<?xml version="1.0" encoding="utf-8" standalone="no"?>
<!DOCTYPE svg PUBLIC "-//W3C//DTD SVG 1.1//EN"
  "http://www.w3.org/Graphics/SVG/1.1/DTD/svg11.dtd">
<svg xmlns:xlink="http://www.w3.org/1999/xlink" width="864pt" height="432pt" viewBox="0 0 864 432" xmlns="http://www.w3.org/2000/svg" version="1.1">
 <metadata>
  <rdf:RDF xmlns:dc="http://purl.org/dc/elements/1.1/" xmlns:cc="http://creativecommons.org/ns#" xmlns:rdf="http://www.w3.org/1999/02/22-rdf-syntax-ns#">
   <cc:Work>
    <dc:type rdf:resource="http://purl.org/dc/dcmitype/StillImage"/>
    <dc:date>2024-09-18T10:19:05.275638</dc:date>
    <dc:format>image/svg+xml</dc:format>
    <dc:creator>
     <cc:Agent>
      <dc:title>Matplotlib v3.9.2, https://matplotlib.org/</dc:title>
     </cc:Agent>
    </dc:creator>
   </cc:Work>
  </rdf:RDF>
 </metadata>
 <defs>
  <style type="text/css">*{stroke-linejoin: round; stroke-linecap: butt}</style>
 </defs>
 <g id="figure_1">
  <g id="patch_1">
   <path d="M 0 432 
L 864 432 
L 864 0 
L 0 0 
z
" style="fill: #ffffff"/>
  </g>
  <g id="axes_1">
   <g id="patch_2">
    <path d="M 41.92 404.12 
L 853.2 404.12 
L 853.2 10.8 
L 41.92 10.8 
z
" style="fill: #ffffff"/>
   </g>
   <g id="matplotlib.axis_1">
    <g id="xtick_1">
     <g id="line2d_1">
      <defs>
       <path id="m06be9c8dd4" d="M 0 0 
L 0 3.5 
" style="stroke: #000000; stroke-width: 0.8"/>
      </defs>
      <g>
       <use xlink:href="#m06be9c8dd4" x="199.048644" y="404.12" style="stroke: #000000; stroke-width: 0.8"/>
      </g>
     </g>
     <g id="text_1">
      <!-- 200 -->
      <g transform="translate(190.018175 418.771563) scale(0.1 -0.1)">
       <defs>
        <path id="DejaVuSansMono-32" d="M 1166 531 
L 3309 531 
L 3309 0 
L 475 0 
L 475 531 
Q 1059 1147 1496 1619 
Q 1934 2091 2100 2284 
Q 2413 2666 2522 2902 
Q 2631 3138 2631 3384 
Q 2631 3775 2401 3997 
Q 2172 4219 1772 4219 
Q 1488 4219 1175 4116 
Q 863 4013 513 3803 
L 513 4441 
Q 834 4594 1145 4672 
Q 1456 4750 1759 4750 
Q 2444 4750 2861 4386 
Q 3278 4022 3278 3431 
Q 3278 3131 3139 2831 
Q 3000 2531 2688 2169 
Q 2513 1966 2180 1606 
Q 1847 1247 1166 531 
z
" transform="scale(0.015625)"/>
        <path id="DejaVuSansMono-30" d="M 1509 2344 
Q 1509 2516 1629 2641 
Q 1750 2766 1919 2766 
Q 2094 2766 2219 2641 
Q 2344 2516 2344 2344 
Q 2344 2169 2220 2047 
Q 2097 1925 1919 1925 
Q 1744 1925 1626 2044 
Q 1509 2163 1509 2344 
z
M 1925 4250 
Q 1484 4250 1267 3775 
Q 1050 3300 1050 2328 
Q 1050 1359 1267 884 
Q 1484 409 1925 409 
Q 2369 409 2586 884 
Q 2803 1359 2803 2328 
Q 2803 3300 2586 3775 
Q 2369 4250 1925 4250 
z
M 1925 4750 
Q 2672 4750 3055 4137 
Q 3438 3525 3438 2328 
Q 3438 1134 3055 521 
Q 2672 -91 1925 -91 
Q 1178 -91 797 521 
Q 416 1134 416 2328 
Q 416 3525 797 4137 
Q 1178 4750 1925 4750 
z
" transform="scale(0.015625)"/>
       </defs>
       <use xlink:href="#DejaVuSansMono-32"/>
       <use xlink:href="#DejaVuSansMono-30" x="60.205078"/>
       <use xlink:href="#DejaVuSansMono-30" x="120.410156"/>
      </g>
     </g>
    </g>
    <g id="xtick_2">
     <g id="line2d_2">
      <g>
       <use xlink:href="#m06be9c8dd4" x="364.447217" y="404.12" style="stroke: #000000; stroke-width: 0.8"/>
      </g>
     </g>
     <g id="text_2">
      <!-- 400 -->
      <g transform="translate(355.416748 418.771563) scale(0.1 -0.1)">
       <defs>
        <path id="DejaVuSansMono-34" d="M 2297 4091 
L 825 1625 
L 2297 1625 
L 2297 4091 
z
M 2194 4666 
L 2925 4666 
L 2925 1625 
L 3547 1625 
L 3547 1113 
L 2925 1113 
L 2925 0 
L 2297 0 
L 2297 1113 
L 319 1113 
L 319 1709 
L 2194 4666 
z
" transform="scale(0.015625)"/>
       </defs>
       <use xlink:href="#DejaVuSansMono-34"/>
       <use xlink:href="#DejaVuSansMono-30" x="60.205078"/>
       <use xlink:href="#DejaVuSansMono-30" x="120.410156"/>
      </g>
     </g>
    </g>
    <g id="xtick_3">
     <g id="line2d_3">
      <g>
       <use xlink:href="#m06be9c8dd4" x="529.84579" y="404.12" style="stroke: #000000; stroke-width: 0.8"/>
      </g>
     </g>
     <g id="text_3">
      <!-- 600 -->
      <g transform="translate(520.815321 418.771563) scale(0.1 -0.1)">
       <defs>
        <path id="DejaVuSansMono-36" d="M 3097 4563 
L 3097 3981 
Q 2900 4097 2678 4158 
Q 2456 4219 2216 4219 
Q 1616 4219 1306 3767 
Q 997 3316 997 2438 
Q 1147 2750 1412 2917 
Q 1678 3084 2022 3084 
Q 2697 3084 3067 2670 
Q 3438 2256 3438 1497 
Q 3438 741 3056 325 
Q 2675 -91 1984 -91 
Q 1172 -91 794 492 
Q 416 1075 416 2328 
Q 416 3509 870 4129 
Q 1325 4750 2188 4750 
Q 2419 4750 2650 4701 
Q 2881 4653 3097 4563 
z
M 1972 2591 
Q 1569 2591 1337 2300 
Q 1106 2009 1106 1497 
Q 1106 984 1337 693 
Q 1569 403 1972 403 
Q 2391 403 2603 679 
Q 2816 956 2816 1497 
Q 2816 2041 2603 2316 
Q 2391 2591 1972 2591 
z
" transform="scale(0.015625)"/>
       </defs>
       <use xlink:href="#DejaVuSansMono-36"/>
       <use xlink:href="#DejaVuSansMono-30" x="60.205078"/>
       <use xlink:href="#DejaVuSansMono-30" x="120.410156"/>
      </g>
     </g>
    </g>
    <g id="xtick_4">
     <g id="line2d_4">
      <g>
       <use xlink:href="#m06be9c8dd4" x="695.244363" y="404.12" style="stroke: #000000; stroke-width: 0.8"/>
      </g>
     </g>
     <g id="text_4">
      <!-- 800 -->
      <g transform="translate(686.213894 418.771563) scale(0.1 -0.1)">
       <defs>
        <path id="DejaVuSansMono-38" d="M 1925 2216 
Q 1503 2216 1273 1980 
Q 1044 1744 1044 1313 
Q 1044 881 1276 642 
Q 1509 403 1925 403 
Q 2350 403 2579 639 
Q 2809 875 2809 1313 
Q 2809 1741 2576 1978 
Q 2344 2216 1925 2216 
z
M 1375 2478 
Q 972 2581 745 2862 
Q 519 3144 519 3541 
Q 519 4097 897 4423 
Q 1275 4750 1925 4750 
Q 2578 4750 2956 4423 
Q 3334 4097 3334 3541 
Q 3334 3144 3107 2862 
Q 2881 2581 2478 2478 
Q 2947 2375 3195 2062 
Q 3444 1750 3444 1253 
Q 3444 622 3041 265 
Q 2638 -91 1925 -91 
Q 1213 -91 811 264 
Q 409 619 409 1247 
Q 409 1747 657 2061 
Q 906 2375 1375 2478 
z
M 1147 3481 
Q 1147 3106 1347 2909 
Q 1547 2713 1925 2713 
Q 2306 2713 2506 2909 
Q 2706 3106 2706 3481 
Q 2706 3863 2507 4063 
Q 2309 4263 1925 4263 
Q 1547 4263 1347 4061 
Q 1147 3859 1147 3481 
z
" transform="scale(0.015625)"/>
       </defs>
       <use xlink:href="#DejaVuSansMono-38"/>
       <use xlink:href="#DejaVuSansMono-30" x="60.205078"/>
       <use xlink:href="#DejaVuSansMono-30" x="120.410156"/>
      </g>
     </g>
    </g>
   </g>
   <g id="matplotlib.axis_2">
    <g id="ytick_1">
     <g id="line2d_5">
      <defs>
       <path id="m81d27e7047" d="M 0 0 
L -3.5 0 
" style="stroke: #000000; stroke-width: 0.8"/>
      </defs>
      <g>
       <use xlink:href="#m81d27e7047" x="41.92" y="386.756142" style="stroke: #000000; stroke-width: 0.8"/>
      </g>
     </g>
     <g id="text_5">
      <!-- 0.00 -->
      <g transform="translate(10.83875 390.581924) scale(0.1 -0.1)">
       <defs>
        <path id="DejaVuSansMono-2e" d="M 1528 953 
L 2316 953 
L 2316 0 
L 1528 0 
L 1528 953 
z
" transform="scale(0.015625)"/>
       </defs>
       <use xlink:href="#DejaVuSansMono-30"/>
       <use xlink:href="#DejaVuSansMono-2e" x="60.205078"/>
       <use xlink:href="#DejaVuSansMono-30" x="120.410156"/>
       <use xlink:href="#DejaVuSansMono-30" x="180.615234"/>
      </g>
     </g>
    </g>
    <g id="ytick_2">
     <g id="line2d_6">
      <g>
       <use xlink:href="#m81d27e7047" x="41.92" y="341.552526" style="stroke: #000000; stroke-width: 0.8"/>
      </g>
     </g>
     <g id="text_6">
      <!-- 0.02 -->
      <g transform="translate(10.83875 345.378307) scale(0.1 -0.1)">
       <use xlink:href="#DejaVuSansMono-30"/>
       <use xlink:href="#DejaVuSansMono-2e" x="60.205078"/>
       <use xlink:href="#DejaVuSansMono-30" x="120.410156"/>
       <use xlink:href="#DejaVuSansMono-32" x="180.615234"/>
      </g>
     </g>
    </g>
    <g id="ytick_3">
     <g id="line2d_7">
      <g>
       <use xlink:href="#m81d27e7047" x="41.92" y="296.348909" style="stroke: #000000; stroke-width: 0.8"/>
      </g>
     </g>
     <g id="text_7">
      <!-- 0.04 -->
      <g transform="translate(10.83875 300.17469) scale(0.1 -0.1)">
       <use xlink:href="#DejaVuSansMono-30"/>
       <use xlink:href="#DejaVuSansMono-2e" x="60.205078"/>
       <use xlink:href="#DejaVuSansMono-30" x="120.410156"/>
       <use xlink:href="#DejaVuSansMono-34" x="180.615234"/>
      </g>
     </g>
    </g>
    <g id="ytick_4">
     <g id="line2d_8">
      <g>
       <use xlink:href="#m81d27e7047" x="41.92" y="251.145292" style="stroke: #000000; stroke-width: 0.8"/>
      </g>
     </g>
     <g id="text_8">
      <!-- 0.06 -->
      <g transform="translate(10.83875 254.971073) scale(0.1 -0.1)">
       <use xlink:href="#DejaVuSansMono-30"/>
       <use xlink:href="#DejaVuSansMono-2e" x="60.205078"/>
       <use xlink:href="#DejaVuSansMono-30" x="120.410156"/>
       <use xlink:href="#DejaVuSansMono-36" x="180.615234"/>
      </g>
     </g>
    </g>
    <g id="ytick_5">
     <g id="line2d_9">
      <g>
       <use xlink:href="#m81d27e7047" x="41.92" y="205.941675" style="stroke: #000000; stroke-width: 0.8"/>
      </g>
     </g>
     <g id="text_9">
      <!-- 0.08 -->
      <g transform="translate(10.83875 209.767457) scale(0.1 -0.1)">
       <use xlink:href="#DejaVuSansMono-30"/>
       <use xlink:href="#DejaVuSansMono-2e" x="60.205078"/>
       <use xlink:href="#DejaVuSansMono-30" x="120.410156"/>
       <use xlink:href="#DejaVuSansMono-38" x="180.615234"/>
      </g>
     </g>
    </g>
    <g id="ytick_6">
     <g id="line2d_10">
      <g>
       <use xlink:href="#m81d27e7047" x="41.92" y="160.738059" style="stroke: #000000; stroke-width: 0.8"/>
      </g>
     </g>
     <g id="text_10">
      <!-- 0.10 -->
      <g transform="translate(10.83875 164.56384) scale(0.1 -0.1)">
       <defs>
        <path id="DejaVuSansMono-31" d="M 844 531 
L 1825 531 
L 1825 4097 
L 769 3859 
L 769 4434 
L 1819 4666 
L 2450 4666 
L 2450 531 
L 3419 531 
L 3419 0 
L 844 0 
L 844 531 
z
" transform="scale(0.015625)"/>
       </defs>
       <use xlink:href="#DejaVuSansMono-30"/>
       <use xlink:href="#DejaVuSansMono-2e" x="60.205078"/>
       <use xlink:href="#DejaVuSansMono-31" x="120.410156"/>
       <use xlink:href="#DejaVuSansMono-30" x="180.615234"/>
      </g>
     </g>
    </g>
    <g id="ytick_7">
     <g id="line2d_11">
      <g>
       <use xlink:href="#m81d27e7047" x="41.92" y="115.534442" style="stroke: #000000; stroke-width: 0.8"/>
      </g>
     </g>
     <g id="text_11">
      <!-- 0.12 -->
      <g transform="translate(10.83875 119.360223) scale(0.1 -0.1)">
       <use xlink:href="#DejaVuSansMono-30"/>
       <use xlink:href="#DejaVuSansMono-2e" x="60.205078"/>
       <use xlink:href="#DejaVuSansMono-31" x="120.410156"/>
       <use xlink:href="#DejaVuSansMono-32" x="180.615234"/>
      </g>
     </g>
    </g>
    <g id="ytick_8">
     <g id="line2d_12">
      <g>
       <use xlink:href="#m81d27e7047" x="41.92" y="70.330825" style="stroke: #000000; stroke-width: 0.8"/>
      </g>
     </g>
     <g id="text_12">
      <!-- 0.14 -->
      <g transform="translate(10.83875 74.156606) scale(0.1 -0.1)">
       <use xlink:href="#DejaVuSansMono-30"/>
       <use xlink:href="#DejaVuSansMono-2e" x="60.205078"/>
       <use xlink:href="#DejaVuSansMono-31" x="120.410156"/>
       <use xlink:href="#DejaVuSansMono-34" x="180.615234"/>
      </g>
     </g>
    </g>
    <g id="ytick_9">
     <g id="line2d_13">
      <g>
       <use xlink:href="#m81d27e7047" x="41.92" y="25.127208" style="stroke: #000000; stroke-width: 0.8"/>
      </g>
     </g>
     <g id="text_13">
      <!-- 0.16 -->
      <g transform="translate(10.83875 28.952989) scale(0.1 -0.1)">
       <use xlink:href="#DejaVuSansMono-30"/>
       <use xlink:href="#DejaVuSansMono-2e" x="60.205078"/>
       <use xlink:href="#DejaVuSansMono-31" x="120.410156"/>
       <use xlink:href="#DejaVuSansMono-36" x="180.615234"/>
      </g>
     </g>
    </g>
   </g>
   <g id="line2d_14">
    <path d="M 33.650071 28.678182 
L 34.477064 55.570316 
L 35.304057 63.124362 
L 36.13105 63.438994 
L 36.958043 64.57299 
L 37.785036 65.899683 
L 39.439021 67.495443 
L 41.093007 69.658264 
L 41.92 69.068156 
L 42.746993 69.727903 
L 43.573986 69.187734 
L 44.400979 71.203549 
L 45.227971 72.256355 
L 46.054964 73.952698 
L 46.881957 75.13238 
L 47.70895 76.913298 
L 48.535943 78.35319 
L 49.362936 78.629563 
L 50.189929 81.014123 
L 51.016922 81.946625 
L 51.843914 84.295259 
L 52.670907 85.415935 
L 53.4979 87.003552 
L 54.324893 87.979996 
L 55.151886 89.762326 
L 56.805872 91.908432 
L 57.632864 94.590529 
L 58.459857 96.39442 
L 60.113843 100.773397 
L 60.940836 102.756238 
L 61.767829 102.92714 
L 62.594822 103.85935 
L 63.421814 106.953889 
L 64.248807 110.500617 
L 65.902793 115.472614 
L 66.729786 117.628485 
L 68.383772 124.337579 
L 69.210765 128.626276 
L 70.86475 141.323627 
L 71.691743 146.269905 
L 73.345729 152.89395 
L 74.172722 157.820751 
L 74.999715 165.406474 
L 77.480693 184.211082 
L 78.307686 188.833336 
L 79.134679 195.725326 
L 79.961672 198.930228 
L 80.788665 203.407348 
L 81.615657 212.12912 
L 84.096636 233.258551 
L 84.923629 238.989677 
L 85.750622 243.916649 
L 86.577615 247.521288 
L 87.404608 252.781922 
L 88.2316 261.321387 
L 89.058593 268.294147 
L 90.712579 279.075822 
L 91.539572 273.346384 
L 92.366565 277.769012 
L 93.193558 283.210189 
L 94.847543 296.753847 
L 95.674536 297.218853 
L 96.501529 295.608381 
L 98.155515 299.756456 
L 98.982508 300.333969 
L 99.809501 313.243328 
L 100.636493 317.163109 
L 101.463486 319.782359 
L 102.290479 320.936147 
L 103.117472 320.217341 
L 103.944465 322.531273 
L 104.771458 329.396528 
L 105.598451 334.010856 
L 106.425443 337.450174 
L 107.252436 342.046787 
L 108.079429 343.925035 
L 108.906422 344.830739 
L 109.733415 345.269007 
L 110.560408 346.475654 
L 112.214393 355.463981 
L 113.868379 357.044318 
L 114.695372 357.983026 
L 115.522365 357.226443 
L 116.349358 357.535558 
L 117.176351 358.175945 
L 118.003344 359.153313 
L 118.830336 360.469011 
L 119.657329 360.49078 
L 120.484322 360.025251 
L 121.311315 361.727539 
L 122.138308 363.044829 
L 122.965301 362.242092 
L 123.792294 363.541935 
L 125.446279 359.147389 
L 126.273272 358.15277 
L 127.100265 352.968282 
L 127.927258 351.451312 
L 128.754251 349.163622 
L 129.581244 348.732875 
L 130.408236 348.853108 
L 132.062222 349.425751 
L 132.889215 352.210315 
L 133.716208 348.713109 
L 134.543201 350.370186 
L 135.370194 355.695889 
L 136.197187 357.8145 
L 137.024179 359.066365 
L 137.851172 357.096709 
L 138.678165 356.280468 
L 139.505158 356.461737 
L 140.332151 355.107096 
L 141.159144 354.455039 
L 141.986137 360.748022 
L 142.813129 361.328944 
L 143.640122 360.805072 
L 144.467115 361.477693 
L 146.121101 366.8122 
L 146.948094 368.045104 
L 147.775087 368.948483 
L 148.60208 370.669346 
L 149.429072 371.981285 
L 150.256065 371.896911 
L 151.083058 372.042929 
L 151.910051 373.232643 
L 153.564037 374.256957 
L 156.872008 374.3737 
L 157.699001 373.165574 
L 158.525994 373.432357 
L 159.352987 373.36288 
L 160.17998 371.957474 
L 161.833965 372.157776 
L 162.660958 372.801053 
L 163.487951 373.125005 
L 164.314944 373.820225 
L 165.141937 372.948665 
L 165.96893 374.433071 
L 166.795923 374.939538 
L 167.622915 374.930494 
L 168.449908 376.62414 
L 169.276901 375.935068 
L 170.930887 376.120643 
L 171.75788 375.90546 
L 172.584873 375.274671 
L 173.411865 376.168892 
L 174.238858 375.384704 
L 176.719837 374.77131 
L 177.54683 375.533238 
L 178.373823 375.889807 
L 179.200815 375.971555 
L 180.027808 375.876528 
L 182.508787 378.009241 
L 183.33578 378.408549 
L 184.989766 379.504637 
L 185.816758 379.506903 
L 186.643751 379.166141 
L 187.470744 379.108874 
L 188.297737 379.659737 
L 189.12473 379.549574 
L 189.951723 379.321401 
L 191.605708 379.175746 
L 192.432701 378.868098 
L 193.259694 378.692217 
L 196.567666 379.778347 
L 197.394659 379.991152 
L 198.221651 380.042649 
L 199.048644 380.245507 
L 199.875637 380.202613 
L 200.70263 380.419104 
L 201.529623 380.193644 
L 202.356616 380.385995 
L 205.664587 380.18709 
L 206.49158 380.387048 
L 207.318573 380.218254 
L 209.799551 380.605382 
L 210.626544 380.400348 
L 212.28053 380.51414 
L 213.934516 380.458458 
L 214.761509 380.353145 
L 216.415494 380.607401 
L 217.242487 380.522709 
L 218.896473 380.786575 
L 221.377452 380.677599 
L 223.85843 380.992085 
L 224.685423 380.39681 
L 226.339409 380.656158 
L 228.820387 380.659607 
L 230.474373 380.841834 
L 231.301366 381.014517 
L 232.128359 380.376952 
L 232.955352 380.77695 
L 233.782345 380.983612 
L 235.43633 381.011873 
L 236.263323 381.148839 
L 239.571295 381.053134 
L 240.398287 381.643464 
L 241.22528 381.935334 
L 242.052273 381.963496 
L 242.879266 381.827419 
L 243.706259 381.959243 
L 244.533252 381.928166 
L 245.360245 382.194639 
L 246.187238 382.142154 
L 248.668216 382.381288 
L 249.495209 382.292583 
L 250.322202 382.045209 
L 251.149195 382.198708 
L 252.80318 382.223692 
L 255.284159 382.426349 
L 256.938145 382.296162 
L 260.246116 382.821505 
L 261.900102 382.89851 
L 264.381081 383.296442 
L 268.516045 383.143397 
L 269.343038 383.213429 
L 270.170031 383.033962 
L 273.478002 383.022954 
L 274.304995 382.843214 
L 275.131988 382.272533 
L 275.958981 382.135249 
L 276.785973 382.136209 
L 277.612966 382.017245 
L 278.439959 382.121605 
L 280.920938 381.695615 
L 281.747931 381.065114 
L 282.574924 381.210673 
L 283.401916 381.627381 
L 284.228909 381.846071 
L 285.055902 381.880615 
L 285.882895 381.543264 
L 288.363874 381.168939 
L 289.190866 381.386069 
L 290.017859 381.814895 
L 293.325831 381.954655 
L 294.152824 382.295946 
L 294.979817 382.133785 
L 296.633802 382.723973 
L 297.460795 382.522064 
L 298.287788 382.979345 
L 299.114781 382.946997 
L 299.941774 383.045894 
L 300.768767 383.019974 
L 302.422752 383.224142 
L 303.249745 383.530065 
L 304.076738 383.569034 
L 304.903731 383.419972 
L 305.730724 383.491361 
L 306.557717 383.236473 
L 310.692681 383.044528 
L 312.346667 383.15658 
L 314.000652 383.305479 
L 315.654638 383.789234 
L 317.308624 384.09017 
L 318.135617 383.951273 
L 319.789602 383.969088 
L 320.616595 383.77853 
L 325.578552 383.751201 
L 326.405545 383.99379 
L 328.059531 384.098031 
L 329.713517 384.283191 
L 334.675474 384.409601 
L 336.32946 384.281394 
L 337.983445 384.17734 
L 339.637431 384.114442 
L 340.464424 384.113699 
L 341.291417 383.98242 
L 342.11841 383.967008 
L 342.945403 383.76366 
L 352.869317 384.607415 
L 353.69631 384.537542 
L 355.350296 384.643711 
L 361.139246 384.459021 
L 362.793231 384.55046 
L 363.620224 384.563905 
L 364.447217 384.454316 
L 367.755189 384.565423 
L 371.06316 384.527229 
L 374.371131 384.386824 
L 375.198124 384.370248 
L 376.85211 384.559168 
L 378.506096 384.478605 
L 380.160082 384.605384 
L 380.987074 384.77908 
L 383.468053 384.595234 
L 386.776024 384.65654 
L 389.257003 384.336541 
L 390.083996 384.405112 
L 390.910989 384.232946 
L 395.045953 384.409557 
L 396.699939 384.697237 
L 397.526932 384.630625 
L 398.353925 384.710972 
L 399.180917 384.937506 
L 400.834903 384.988488 
L 404.142875 385.056912 
L 404.969867 384.804526 
L 405.79686 384.951598 
L 407.450846 384.955349 
L 410.758818 384.823183 
L 411.58581 384.613609 
L 412.412803 384.597069 
L 413.239796 384.804012 
L 414.893782 384.532301 
L 418.201753 384.544763 
L 419.028746 384.240243 
L 420.682732 384.505421 
L 421.509725 384.525053 
L 423.16371 384.793661 
L 426.471682 384.881306 
L 427.298675 385.252229 
L 428.952661 385.175688 
L 443.838532 385.248469 
L 445.492518 385.151997 
L 452.108461 385.156155 
L 452.935454 385.338612 
L 454.589439 385.34022 
L 456.243425 385.322083 
L 463.686361 385.240096 
L 466.994332 385.381605 
L 479.399225 385.488581 
L 483.53419 385.302278 
L 486.015168 385.343756 
L 495.939083 385.389886 
L 497.593068 385.35687 
L 498.420061 385.250042 
L 499.247054 384.826505 
L 501.728033 384.886366 
L 506.68999 385.115257 
L 507.516983 385.560251 
L 509.997961 385.556137 
L 524.883833 385.450787 
L 526.537819 385.551586 
L 533.153761 385.707908 
L 535.63474 385.641352 
L 540.596697 385.605512 
L 541.42369 385.337434 
L 543.077676 385.340876 
L 548.866626 385.180764 
L 549.693619 385.460274 
L 553.00159 385.556055 
L 556.309562 385.745115 
L 563.752497 385.59788 
L 572.022426 385.652641 
L 578.638369 385.662573 
L 581.119348 385.639091 
L 583.600326 385.755267 
L 589.389276 385.839999 
L 590.216269 385.681231 
L 597.659205 385.591949 
L 598.486198 385.815594 
L 610.064098 385.787492 
L 610.891091 385.684302 
L 612.545076 385.699872 
L 617.507034 385.66272 
L 622.468991 385.836442 
L 626.603955 385.768751 
L 647.278777 385.937957 
L 649.759755 386.022064 
L 653.067727 385.952003 
L 670.434577 386.011781 
L 672.088563 385.937162 
L 679.531498 385.964641 
L 687.801427 386.057346 
L 698.552334 386.097111 
L 701.033313 386.155381 
L 703.514292 386.105281 
L 727.497085 386.081663 
L 729.978063 386.112194 
L 730.805056 385.996484 
L 738.247992 386.063534 
L 739.074985 386.160303 
L 741.555963 386.123803 
L 772.154699 386.042923 
L 778.770642 385.987357 
L 782.078614 386.127024 
L 796.137492 386.197941 
L 799.445464 386.221401 
L 800.272457 385.921056 
L 803.580428 385.860722 
L 807.715392 385.523063 
L 808.542385 385.763172 
L 811.023364 385.656976 
L 811.850357 385.387491 
L 815.158328 385.362016 
L 818.4663 385.474239 
L 819.293293 385.346557 
L 820.120285 385.581616 
L 826.736228 385.743622 
L 828.390214 385.954405 
L 834.179164 386.131456 
L 836.660143 386.151352 
L 841.6221 386.115819 
L 846.584057 386.184585 
L 850.719021 386.241818 
L 852.373007 386.20338 
L 852.373007 386.20338 
" clip-path="url(#pbbea63a935)" style="fill: none; stroke-dasharray: 7.4,3.2; stroke-dashoffset: 0; stroke: #000000; stroke-width: 2"/>
   </g>
   <g id="patch_3">
    <path d="M 41.92 404.12 
L 41.92 10.8 
" style="fill: none; stroke: #000000; stroke-width: 0.8; stroke-linejoin: miter; stroke-linecap: square"/>
   </g>
   <g id="patch_4">
    <path d="M 853.2 404.12 
L 853.2 10.8 
" style="fill: none; stroke: #000000; stroke-width: 0.8; stroke-linejoin: miter; stroke-linecap: square"/>
   </g>
   <g id="patch_5">
    <path d="M 41.92 404.12 
L 853.2 404.12 
" style="fill: none; stroke: #000000; stroke-width: 0.8; stroke-linejoin: miter; stroke-linecap: square"/>
   </g>
   <g id="patch_6">
    <path d="M 41.92 10.8 
L 853.2 10.8 
" style="fill: none; stroke: #000000; stroke-width: 0.8; stroke-linejoin: miter; stroke-linecap: square"/>
   </g>
  </g>
 </g>
 <defs>
  <clipPath id="pbbea63a935">
   <rect x="41.92" y="10.8" width="811.28" height="393.32"/>
  </clipPath>
 </defs>
</svg>
