<?xml version="1.0" encoding="utf-8" standalone="no"?>
<!DOCTYPE svg PUBLIC "-//W3C//DTD SVG 1.1//EN"
  "http://www.w3.org/Graphics/SVG/1.1/DTD/svg11.dtd">
<svg xmlns:xlink="http://www.w3.org/1999/xlink" width="864pt" height="288pt" viewBox="0 0 864 288" xmlns="http://www.w3.org/2000/svg" version="1.1">
 <metadata>
  <rdf:RDF xmlns:dc="http://purl.org/dc/elements/1.1/" xmlns:cc="http://creativecommons.org/ns#" xmlns:rdf="http://www.w3.org/1999/02/22-rdf-syntax-ns#">
   <cc:Work>
    <dc:type rdf:resource="http://purl.org/dc/dcmitype/StillImage"/>
    <dc:date>2024-09-18T10:19:04.901557</dc:date>
    <dc:format>image/svg+xml</dc:format>
    <dc:creator>
     <cc:Agent>
      <dc:title>Matplotlib v3.9.2, https://matplotlib.org/</dc:title>
     </cc:Agent>
    </dc:creator>
   </cc:Work>
  </rdf:RDF>
 </metadata>
 <defs>
  <style type="text/css">*{stroke-linejoin: round; stroke-linecap: butt}</style>
 </defs>
 <g id="figure_1">
  <g id="patch_1">
   <path d="M 0 288 
L 864 288 
L 864 0 
L 0 0 
z
" style="fill: #ffffff"/>
  </g>
  <g id="axes_1">
   <g id="patch_2">
    <path d="M 37.4175 261.484615 
L 852.1425 261.484615 
L 852.1425 10.8 
L 37.4175 10.8 
z
" style="fill: #ffffff"/>
   </g>
   <g id="patch_3">
    <path d="M 65.178075 233.724041 
L 72.328079 233.724041 
L 72.328079 226.574036 
L 65.178075 226.574036 
z
" clip-path="url(#p93c78f2348)" style="stroke: #000000; stroke-linejoin: miter"/>
   </g>
   <g id="patch_4">
    <path d="M 91.852941 238.384751 
L 108.324367 238.384751 
L 108.324367 221.913326 
L 91.852941 221.913326 
z
" clip-path="url(#p93c78f2348)" style="stroke: #000000; stroke-linejoin: miter"/>
   </g>
   <g id="patch_5">
    <path d="M 119.403072 242.170197 
L 143.445389 242.170197 
L 143.445389 218.12788 
L 119.403072 218.12788 
z
" clip-path="url(#p93c78f2348)" style="stroke: #000000; stroke-linejoin: miter"/>
   </g>
   <g id="patch_6">
    <path d="M 150.289738 242.619108 
L 175.229878 242.619108 
L 175.229878 217.678969 
L 150.289738 217.678969 
z
" clip-path="url(#p93c78f2348)" style="stroke: #000000; stroke-linejoin: miter"/>
   </g>
   <g id="patch_7">
    <path d="M 181.56679 242.677633 
L 206.623979 242.677633 
L 206.623979 217.620444 
L 181.56679 217.620444 
z
" clip-path="url(#p93c78f2348)" style="stroke: #000000; stroke-linejoin: miter"/>
   </g>
   <g id="patch_8">
    <path d="M 212.898133 242.681867 
L 237.96379 242.681867 
L 237.96379 217.61621 
L 212.898133 217.61621 
z
" clip-path="url(#p93c78f2348)" style="stroke: #000000; stroke-linejoin: miter"/>
   </g>
   <g id="patch_9">
    <path d="M 244.232308 242.683269 
L 269.300769 242.683269 
L 269.300769 217.614808 
L 244.232308 217.614808 
z
" clip-path="url(#p93c78f2348)" style="stroke: #000000; stroke-linejoin: miter"/>
   </g>
   <g id="patch_10">
    <path d="M 275.574899 242.676255 
L 300.629332 242.676255 
L 300.629332 217.621822 
L 275.574899 217.621822 
z
" clip-path="url(#p93c78f2348)" style="stroke: #000000; stroke-linejoin: miter"/>
   </g>
   <g id="patch_11">
    <path d="M 306.903462 242.683269 
L 331.971923 242.683269 
L 331.971923 217.614808 
L 306.903462 217.614808 
z
" clip-path="url(#p93c78f2348)" style="stroke: #000000; stroke-linejoin: miter"/>
   </g>
   <g id="patch_12">
    <path d="M 338.239038 242.683269 
L 363.3075 242.683269 
L 363.3075 217.614808 
L 338.239038 217.614808 
z
" clip-path="url(#p93c78f2348)" style="stroke: #000000; stroke-linejoin: miter"/>
   </g>
   <g id="patch_13">
    <path d="M 369.574615 242.683269 
L 394.643077 242.683269 
L 394.643077 217.614808 
L 369.574615 217.614808 
z
" clip-path="url(#p93c78f2348)" style="stroke: #000000; stroke-linejoin: miter"/>
   </g>
   <g id="patch_14">
    <path d="M 400.910192 242.683269 
L 425.978654 242.683269 
L 425.978654 217.614808 
L 400.910192 217.614808 
z
" clip-path="url(#p93c78f2348)" style="stroke: #000000; stroke-linejoin: miter"/>
   </g>
   <g id="patch_15">
    <path d="M 432.245769 242.683269 
L 457.314231 242.683269 
L 457.314231 217.614808 
L 432.245769 217.614808 
z
" clip-path="url(#p93c78f2348)" style="stroke: #000000; stroke-linejoin: miter"/>
   </g>
   <g id="patch_16">
    <path d="M 463.581346 242.683269 
L 488.649808 242.683269 
L 488.649808 217.614808 
L 463.581346 217.614808 
z
" clip-path="url(#p93c78f2348)" style="stroke: #000000; stroke-linejoin: miter"/>
   </g>
   <g id="patch_17">
    <path d="M 494.916923 242.683269 
L 519.985385 242.683269 
L 519.985385 217.614808 
L 494.916923 217.614808 
z
" clip-path="url(#p93c78f2348)" style="stroke: #000000; stroke-linejoin: miter"/>
   </g>
   <g id="patch_18">
    <path d="M 526.2525 242.683269 
L 551.320962 242.683269 
L 551.320962 217.614808 
L 526.2525 217.614808 
z
" clip-path="url(#p93c78f2348)" style="stroke: #000000; stroke-linejoin: miter"/>
   </g>
   <g id="patch_19">
    <path d="M 557.588077 242.683269 
L 582.656538 242.683269 
L 582.656538 217.614808 
L 557.588077 217.614808 
z
" clip-path="url(#p93c78f2348)" style="stroke: #000000; stroke-linejoin: miter"/>
   </g>
   <g id="patch_20">
    <path d="M 588.925056 242.681867 
L 613.990713 242.681867 
L 613.990713 217.61621 
L 588.925056 217.61621 
z
" clip-path="url(#p93c78f2348)" style="stroke: #000000; stroke-linejoin: miter"/>
   </g>
   <g id="patch_21">
    <path d="M 620.259231 242.683269 
L 645.327692 242.683269 
L 645.327692 217.614808 
L 620.259231 217.614808 
z
" clip-path="url(#p93c78f2348)" style="stroke: #000000; stroke-linejoin: miter"/>
   </g>
   <g id="patch_22">
    <path d="M 651.594808 242.683269 
L 676.663269 242.683269 
L 676.663269 217.614808 
L 651.594808 217.614808 
z
" clip-path="url(#p93c78f2348)" style="stroke: #000000; stroke-linejoin: miter"/>
   </g>
   <g id="patch_23">
    <path d="M 682.930385 242.683269 
L 707.998846 242.683269 
L 707.998846 217.614808 
L 682.930385 217.614808 
z
" clip-path="url(#p93c78f2348)" style="stroke: #000000; stroke-linejoin: miter"/>
   </g>
   <g id="patch_24">
    <path d="M 714.265962 242.683269 
L 739.334423 242.683269 
L 739.334423 217.614808 
L 714.265962 217.614808 
z
" clip-path="url(#p93c78f2348)" style="stroke: #000000; stroke-linejoin: miter"/>
   </g>
   <g id="patch_25">
    <path d="M 745.601538 242.683269 
L 770.67 242.683269 
L 770.67 217.614808 
L 745.601538 217.614808 
z
" clip-path="url(#p93c78f2348)" style="stroke: #000000; stroke-linejoin: miter"/>
   </g>
   <g id="patch_26">
    <path d="M 776.937115 242.683269 
L 802.005577 242.683269 
L 802.005577 217.614808 
L 776.937115 217.614808 
z
" clip-path="url(#p93c78f2348)" style="stroke: #000000; stroke-linejoin: miter"/>
   </g>
   <g id="patch_27">
    <path d="M 65.779872 201.786667 
L 71.726282 201.786667 
L 71.726282 195.840256 
L 65.779872 195.840256 
z
" clip-path="url(#p93c78f2348)" style="stroke: #000000; stroke-linejoin: miter"/>
   </g>
   <g id="patch_28">
    <path d="M 89.910104 208.992011 
L 110.267204 208.992011 
L 110.267204 188.634912 
L 89.910104 188.634912 
z
" clip-path="url(#p93c78f2348)" style="stroke: #000000; stroke-linejoin: miter"/>
   </g>
   <g id="patch_29">
    <path d="M 118.950171 211.287522 
L 143.898291 211.287522 
L 143.898291 186.339401 
L 118.950171 186.339401 
z
" clip-path="url(#p93c78f2348)" style="stroke: #000000; stroke-linejoin: miter"/>
   </g>
   <g id="patch_30">
    <path d="M 150.254112 211.319157 
L 175.265503 211.319157 
L 175.265503 186.307766 
L 150.254112 186.307766 
z
" clip-path="url(#p93c78f2348)" style="stroke: #000000; stroke-linejoin: miter"/>
   </g>
   <g id="patch_31">
    <path d="M 181.563369 211.345477 
L 206.6274 211.345477 
L 206.6274 186.281446 
L 181.563369 186.281446 
z
" clip-path="url(#p93c78f2348)" style="stroke: #000000; stroke-linejoin: miter"/>
   </g>
   <g id="patch_32">
    <path d="M 212.9011 211.343323 
L 237.960823 211.343323 
L 237.960823 186.2836 
L 212.9011 186.2836 
z
" clip-path="url(#p93c78f2348)" style="stroke: #000000; stroke-linejoin: miter"/>
   </g>
   <g id="patch_33">
    <path d="M 244.234523 211.345477 
L 269.298554 211.345477 
L 269.298554 186.281446 
L 244.234523 186.281446 
z
" clip-path="url(#p93c78f2348)" style="stroke: #000000; stroke-linejoin: miter"/>
   </g>
   <g id="patch_34">
    <path d="M 275.570038 211.345539 
L 300.634193 211.345539 
L 300.634193 186.281384 
L 275.570038 186.281384 
z
" clip-path="url(#p93c78f2348)" style="stroke: #000000; stroke-linejoin: miter"/>
   </g>
   <g id="patch_35">
    <path d="M 306.907893 211.343261 
L 331.967492 211.343261 
L 331.967492 186.283662 
L 306.907893 186.283662 
z
" clip-path="url(#p93c78f2348)" style="stroke: #000000; stroke-linejoin: miter"/>
   </g>
   <g id="patch_36">
    <path d="M 338.239038 211.347692 
L 363.3075 211.347692 
L 363.3075 186.279231 
L 338.239038 186.279231 
z
" clip-path="url(#p93c78f2348)" style="stroke: #000000; stroke-linejoin: miter"/>
   </g>
   <g id="patch_37">
    <path d="M 369.574615 211.347692 
L 394.643077 211.347692 
L 394.643077 186.279231 
L 369.574615 186.279231 
z
" clip-path="url(#p93c78f2348)" style="stroke: #000000; stroke-linejoin: miter"/>
   </g>
   <g id="patch_38">
    <path d="M 400.912407 211.345477 
L 425.976439 211.345477 
L 425.976439 186.281446 
L 400.912407 186.281446 
z
" clip-path="url(#p93c78f2348)" style="stroke: #000000; stroke-linejoin: miter"/>
   </g>
   <g id="patch_39">
    <path d="M 432.245769 211.347692 
L 457.314231 211.347692 
L 457.314231 186.279231 
L 432.245769 186.279231 
z
" clip-path="url(#p93c78f2348)" style="stroke: #000000; stroke-linejoin: miter"/>
   </g>
   <g id="patch_40">
    <path d="M 463.581346 211.347692 
L 488.649808 211.347692 
L 488.649808 186.279231 
L 463.581346 186.279231 
z
" clip-path="url(#p93c78f2348)" style="stroke: #000000; stroke-linejoin: miter"/>
   </g>
   <g id="patch_41">
    <path d="M 494.916923 211.347692 
L 519.985385 211.347692 
L 519.985385 186.279231 
L 494.916923 186.279231 
z
" clip-path="url(#p93c78f2348)" style="stroke: #000000; stroke-linejoin: miter"/>
   </g>
   <g id="patch_42">
    <path d="M 526.2525 211.347692 
L 551.320962 211.347692 
L 551.320962 186.279231 
L 526.2525 186.279231 
z
" clip-path="url(#p93c78f2348)" style="stroke: #000000; stroke-linejoin: miter"/>
   </g>
   <g id="patch_43">
    <path d="M 557.588077 211.347692 
L 582.656538 211.347692 
L 582.656538 186.279231 
L 557.588077 186.279231 
z
" clip-path="url(#p93c78f2348)" style="stroke: #000000; stroke-linejoin: miter"/>
   </g>
   <g id="patch_44">
    <path d="M 588.923654 211.347692 
L 613.992115 211.347692 
L 613.992115 186.279231 
L 588.923654 186.279231 
z
" clip-path="url(#p93c78f2348)" style="stroke: #000000; stroke-linejoin: miter"/>
   </g>
   <g id="patch_45">
    <path d="M 620.259231 211.347692 
L 645.327692 211.347692 
L 645.327692 186.279231 
L 620.259231 186.279231 
z
" clip-path="url(#p93c78f2348)" style="stroke: #000000; stroke-linejoin: miter"/>
   </g>
   <g id="patch_46">
    <path d="M 651.594808 211.347692 
L 676.663269 211.347692 
L 676.663269 186.279231 
L 651.594808 186.279231 
z
" clip-path="url(#p93c78f2348)" style="stroke: #000000; stroke-linejoin: miter"/>
   </g>
   <g id="patch_47">
    <path d="M 682.930385 211.347692 
L 707.998846 211.347692 
L 707.998846 186.279231 
L 682.930385 186.279231 
z
" clip-path="url(#p93c78f2348)" style="stroke: #000000; stroke-linejoin: miter"/>
   </g>
   <g id="patch_48">
    <path d="M 714.265962 211.347692 
L 739.334423 211.347692 
L 739.334423 186.279231 
L 714.265962 186.279231 
z
" clip-path="url(#p93c78f2348)" style="stroke: #000000; stroke-linejoin: miter"/>
   </g>
   <g id="patch_49">
    <path d="M 745.608186 211.341045 
L 770.663352 211.341045 
L 770.663352 186.285878 
L 745.608186 186.285878 
z
" clip-path="url(#p93c78f2348)" style="stroke: #000000; stroke-linejoin: miter"/>
   </g>
   <g id="patch_50">
    <path d="M 776.937115 211.347692 
L 802.005577 211.347692 
L 802.005577 186.279231 
L 776.937115 186.279231 
z
" clip-path="url(#p93c78f2348)" style="stroke: #000000; stroke-linejoin: miter"/>
   </g>
   <g id="patch_51">
    <path d="M 63.568351 172.66261 
L 73.937803 172.66261 
L 73.937803 162.293159 
L 63.568351 162.293159 
z
" clip-path="url(#p93c78f2348)" style="stroke: #000000; stroke-linejoin: miter"/>
   </g>
   <g id="patch_52">
    <path d="M 89.261966 178.304573 
L 110.915342 178.304573 
L 110.915342 156.651196 
L 89.261966 156.651196 
z
" clip-path="url(#p93c78f2348)" style="stroke: #000000; stroke-linejoin: miter"/>
   </g>
   <g id="patch_53">
    <path d="M 118.989054 179.913061 
L 143.859408 179.913061 
L 143.859408 155.042708 
L 118.989054 155.042708 
z
" clip-path="url(#p93c78f2348)" style="stroke: #000000; stroke-linejoin: miter"/>
   </g>
   <g id="patch_54">
    <path d="M 150.259708 179.977984 
L 175.259907 179.977984 
L 175.259907 154.977785 
L 150.259708 154.977785 
z
" clip-path="url(#p93c78f2348)" style="stroke: #000000; stroke-linejoin: miter"/>
   </g>
   <g id="patch_55">
    <path d="M 181.561154 180.012115 
L 206.629615 180.012115 
L 206.629615 154.943654 
L 181.561154 154.943654 
z
" clip-path="url(#p93c78f2348)" style="stroke: #000000; stroke-linejoin: miter"/>
   </g>
   <g id="patch_56">
    <path d="M 212.896731 180.012115 
L 237.965192 180.012115 
L 237.965192 154.943654 
L 212.896731 154.943654 
z
" clip-path="url(#p93c78f2348)" style="stroke: #000000; stroke-linejoin: miter"/>
   </g>
   <g id="patch_57">
    <path d="M 244.232308 180.012115 
L 269.300769 180.012115 
L 269.300769 154.943654 
L 244.232308 154.943654 
z
" clip-path="url(#p93c78f2348)" style="stroke: #000000; stroke-linejoin: miter"/>
   </g>
   <g id="patch_58">
    <path d="M 275.567885 180.012115 
L 300.636346 180.012115 
L 300.636346 154.943654 
L 275.567885 154.943654 
z
" clip-path="url(#p93c78f2348)" style="stroke: #000000; stroke-linejoin: miter"/>
   </g>
   <g id="patch_59">
    <path d="M 306.903462 180.012115 
L 331.971923 180.012115 
L 331.971923 154.943654 
L 306.903462 154.943654 
z
" clip-path="url(#p93c78f2348)" style="stroke: #000000; stroke-linejoin: miter"/>
   </g>
   <g id="patch_60">
    <path d="M 338.239038 180.012115 
L 363.3075 180.012115 
L 363.3075 154.943654 
L 338.239038 154.943654 
z
" clip-path="url(#p93c78f2348)" style="stroke: #000000; stroke-linejoin: miter"/>
   </g>
   <g id="patch_61">
    <path d="M 369.574615 180.012115 
L 394.643077 180.012115 
L 394.643077 154.943654 
L 369.574615 154.943654 
z
" clip-path="url(#p93c78f2348)" style="stroke: #000000; stroke-linejoin: miter"/>
   </g>
   <g id="patch_62">
    <path d="M 400.910192 180.012115 
L 425.978654 180.012115 
L 425.978654 154.943654 
L 400.910192 154.943654 
z
" clip-path="url(#p93c78f2348)" style="stroke: #000000; stroke-linejoin: miter"/>
   </g>
   <g id="patch_63">
    <path d="M 432.245769 180.012115 
L 457.314231 180.012115 
L 457.314231 154.943654 
L 432.245769 154.943654 
z
" clip-path="url(#p93c78f2348)" style="stroke: #000000; stroke-linejoin: miter"/>
   </g>
   <g id="patch_64">
    <path d="M 463.581346 180.012115 
L 488.649808 180.012115 
L 488.649808 154.943654 
L 463.581346 154.943654 
z
" clip-path="url(#p93c78f2348)" style="stroke: #000000; stroke-linejoin: miter"/>
   </g>
   <g id="patch_65">
    <path d="M 494.916923 180.012115 
L 519.985385 180.012115 
L 519.985385 154.943654 
L 494.916923 154.943654 
z
" clip-path="url(#p93c78f2348)" style="stroke: #000000; stroke-linejoin: miter"/>
   </g>
   <g id="patch_66">
    <path d="M 526.2525 180.012115 
L 551.320962 180.012115 
L 551.320962 154.943654 
L 526.2525 154.943654 
z
" clip-path="url(#p93c78f2348)" style="stroke: #000000; stroke-linejoin: miter"/>
   </g>
   <g id="patch_67">
    <path d="M 557.588077 180.012115 
L 582.656538 180.012115 
L 582.656538 154.943654 
L 557.588077 154.943654 
z
" clip-path="url(#p93c78f2348)" style="stroke: #000000; stroke-linejoin: miter"/>
   </g>
   <g id="patch_68">
    <path d="M 588.923654 180.012115 
L 613.992115 180.012115 
L 613.992115 154.943654 
L 588.923654 154.943654 
z
" clip-path="url(#p93c78f2348)" style="stroke: #000000; stroke-linejoin: miter"/>
   </g>
   <g id="patch_69">
    <path d="M 620.259231 180.012115 
L 645.327692 180.012115 
L 645.327692 154.943654 
L 620.259231 154.943654 
z
" clip-path="url(#p93c78f2348)" style="stroke: #000000; stroke-linejoin: miter"/>
   </g>
   <g id="patch_70">
    <path d="M 651.594808 180.012115 
L 676.663269 180.012115 
L 676.663269 154.943654 
L 651.594808 154.943654 
z
" clip-path="url(#p93c78f2348)" style="stroke: #000000; stroke-linejoin: miter"/>
   </g>
   <g id="patch_71">
    <path d="M 682.930385 180.012115 
L 707.998846 180.012115 
L 707.998846 154.943654 
L 682.930385 154.943654 
z
" clip-path="url(#p93c78f2348)" style="stroke: #000000; stroke-linejoin: miter"/>
   </g>
   <g id="patch_72">
    <path d="M 714.265962 180.012115 
L 739.334423 180.012115 
L 739.334423 154.943654 
L 714.265962 154.943654 
z
" clip-path="url(#p93c78f2348)" style="stroke: #000000; stroke-linejoin: miter"/>
   </g>
   <g id="patch_73">
    <path d="M 745.605671 180.007983 
L 770.665868 180.007983 
L 770.665868 154.947786 
L 745.605671 154.947786 
z
" clip-path="url(#p93c78f2348)" style="stroke: #000000; stroke-linejoin: miter"/>
   </g>
   <g id="patch_74">
    <path d="M 776.937115 180.012115 
L 802.005577 180.012115 
L 802.005577 154.943654 
L 776.937115 154.943654 
z
" clip-path="url(#p93c78f2348)" style="stroke: #000000; stroke-linejoin: miter"/>
   </g>
   <g id="patch_75">
    <path d="M 64.976322 139.919062 
L 72.529831 139.919062 
L 72.529831 132.365553 
L 64.976322 132.365553 
z
" clip-path="url(#p93c78f2348)" style="stroke: #000000; stroke-linejoin: miter"/>
   </g>
   <g id="patch_76">
    <path d="M 89.608407 146.622554 
L 110.568901 146.622554 
L 110.568901 125.662061 
L 89.608407 125.662061 
z
" clip-path="url(#p93c78f2348)" style="stroke: #000000; stroke-linejoin: miter"/>
   </g>
   <g id="patch_77">
    <path d="M 118.93918 148.627358 
L 143.909282 148.627358 
L 143.909282 123.657257 
L 118.93918 123.657257 
z
" clip-path="url(#p93c78f2348)" style="stroke: #000000; stroke-linejoin: miter"/>
   </g>
   <g id="patch_78">
    <path d="M 150.248221 148.653895 
L 175.271395 148.653895 
L 175.271395 123.630721 
L 150.248221 123.630721 
z
" clip-path="url(#p93c78f2348)" style="stroke: #000000; stroke-linejoin: miter"/>
   </g>
   <g id="patch_79">
    <path d="M 181.570156 148.667536 
L 206.620613 148.667536 
L 206.620613 123.617079 
L 181.570156 123.617079 
z
" clip-path="url(#p93c78f2348)" style="stroke: #000000; stroke-linejoin: miter"/>
   </g>
   <g id="patch_80">
    <path d="M 212.909862 148.663407 
L 237.952061 148.663407 
L 237.952061 123.621208 
L 212.909862 123.621208 
z
" clip-path="url(#p93c78f2348)" style="stroke: #000000; stroke-linejoin: miter"/>
   </g>
   <g id="patch_81">
    <path d="M 244.232308 148.676538 
L 269.300769 148.676538 
L 269.300769 123.608077 
L 244.232308 123.608077 
z
" clip-path="url(#p93c78f2348)" style="stroke: #000000; stroke-linejoin: miter"/>
   </g>
   <g id="patch_82">
    <path d="M 275.567885 148.676538 
L 300.636346 148.676538 
L 300.636346 123.608077 
L 275.567885 123.608077 
z
" clip-path="url(#p93c78f2348)" style="stroke: #000000; stroke-linejoin: miter"/>
   </g>
   <g id="patch_83">
    <path d="M 306.903462 148.676538 
L 331.971923 148.676538 
L 331.971923 123.608077 
L 306.903462 123.608077 
z
" clip-path="url(#p93c78f2348)" style="stroke: #000000; stroke-linejoin: miter"/>
   </g>
   <g id="patch_84">
    <path d="M 338.239038 148.676538 
L 363.3075 148.676538 
L 363.3075 123.608077 
L 338.239038 123.608077 
z
" clip-path="url(#p93c78f2348)" style="stroke: #000000; stroke-linejoin: miter"/>
   </g>
   <g id="patch_85">
    <path d="M 369.574615 148.676538 
L 394.643077 148.676538 
L 394.643077 123.608077 
L 369.574615 123.608077 
z
" clip-path="url(#p93c78f2348)" style="stroke: #000000; stroke-linejoin: miter"/>
   </g>
   <g id="patch_86">
    <path d="M 400.910192 148.676538 
L 425.978654 148.676538 
L 425.978654 123.608077 
L 400.910192 123.608077 
z
" clip-path="url(#p93c78f2348)" style="stroke: #000000; stroke-linejoin: miter"/>
   </g>
   <g id="patch_87">
    <path d="M 432.245769 148.676538 
L 457.314231 148.676538 
L 457.314231 123.608077 
L 432.245769 123.608077 
z
" clip-path="url(#p93c78f2348)" style="stroke: #000000; stroke-linejoin: miter"/>
   </g>
   <g id="patch_88">
    <path d="M 463.581346 148.676538 
L 488.649808 148.676538 
L 488.649808 123.608077 
L 463.581346 123.608077 
z
" clip-path="url(#p93c78f2348)" style="stroke: #000000; stroke-linejoin: miter"/>
   </g>
   <g id="patch_89">
    <path d="M 494.916923 148.676538 
L 519.985385 148.676538 
L 519.985385 123.608077 
L 494.916923 123.608077 
z
" clip-path="url(#p93c78f2348)" style="stroke: #000000; stroke-linejoin: miter"/>
   </g>
   <g id="patch_90">
    <path d="M 526.2525 148.676538 
L 551.320962 148.676538 
L 551.320962 123.608077 
L 526.2525 123.608077 
z
" clip-path="url(#p93c78f2348)" style="stroke: #000000; stroke-linejoin: miter"/>
   </g>
   <g id="patch_91">
    <path d="M 557.588077 148.676538 
L 582.656538 148.676538 
L 582.656538 123.608077 
L 557.588077 123.608077 
z
" clip-path="url(#p93c78f2348)" style="stroke: #000000; stroke-linejoin: miter"/>
   </g>
   <g id="patch_92">
    <path d="M 588.923654 148.676538 
L 613.992115 148.676538 
L 613.992115 123.608077 
L 588.923654 123.608077 
z
" clip-path="url(#p93c78f2348)" style="stroke: #000000; stroke-linejoin: miter"/>
   </g>
   <g id="patch_93">
    <path d="M 620.259231 148.676538 
L 645.327692 148.676538 
L 645.327692 123.608077 
L 620.259231 123.608077 
z
" clip-path="url(#p93c78f2348)" style="stroke: #000000; stroke-linejoin: miter"/>
   </g>
   <g id="patch_94">
    <path d="M 651.594808 148.676538 
L 676.663269 148.676538 
L 676.663269 123.608077 
L 651.594808 123.608077 
z
" clip-path="url(#p93c78f2348)" style="stroke: #000000; stroke-linejoin: miter"/>
   </g>
   <g id="patch_95">
    <path d="M 682.930385 148.676538 
L 707.998846 148.676538 
L 707.998846 123.608077 
L 682.930385 123.608077 
z
" clip-path="url(#p93c78f2348)" style="stroke: #000000; stroke-linejoin: miter"/>
   </g>
   <g id="patch_96">
    <path d="M 714.265962 148.676538 
L 739.334423 148.676538 
L 739.334423 123.608077 
L 714.265962 123.608077 
z
" clip-path="url(#p93c78f2348)" style="stroke: #000000; stroke-linejoin: miter"/>
   </g>
   <g id="patch_97">
    <path d="M 745.601538 148.676538 
L 770.67 148.676538 
L 770.67 123.608077 
L 745.601538 123.608077 
z
" clip-path="url(#p93c78f2348)" style="stroke: #000000; stroke-linejoin: miter"/>
   </g>
   <g id="patch_98">
    <path d="M 776.937115 148.676538 
L 802.005577 148.676538 
L 802.005577 123.608077 
L 776.937115 123.608077 
z
" clip-path="url(#p93c78f2348)" style="stroke: #000000; stroke-linejoin: miter"/>
   </g>
   <g id="patch_99">
    <path d="M 57.570353 115.989455 
L 79.935801 115.989455 
L 79.935801 93.624007 
L 57.570353 93.624007 
z
" clip-path="url(#p93c78f2348)" style="stroke: #000000; stroke-linejoin: miter"/>
   </g>
   <g id="patch_100">
    <path d="M 87.586645 117.30874 
L 112.590663 117.30874 
L 112.590663 92.304722 
L 87.586645 92.304722 
z
" clip-path="url(#p93c78f2348)" style="stroke: #000000; stroke-linejoin: miter"/>
   </g>
   <g id="patch_101">
    <path d="M 118.914158 117.316803 
L 143.934303 117.316803 
L 143.934303 92.296658 
L 118.914158 92.296658 
z
" clip-path="url(#p93c78f2348)" style="stroke: #000000; stroke-linejoin: miter"/>
   </g>
   <g id="patch_102">
    <path d="M 150.225577 117.340962 
L 175.294038 117.340962 
L 175.294038 92.2725 
L 150.225577 92.2725 
z
" clip-path="url(#p93c78f2348)" style="stroke: #000000; stroke-linejoin: miter"/>
   </g>
   <g id="patch_103">
    <path d="M 181.561154 117.340962 
L 206.629615 117.340962 
L 206.629615 92.2725 
L 181.561154 92.2725 
z
" clip-path="url(#p93c78f2348)" style="stroke: #000000; stroke-linejoin: miter"/>
   </g>
   <g id="patch_104">
    <path d="M 212.896731 117.340962 
L 237.965192 117.340962 
L 237.965192 92.2725 
L 212.896731 92.2725 
z
" clip-path="url(#p93c78f2348)" style="stroke: #000000; stroke-linejoin: miter"/>
   </g>
   <g id="patch_105">
    <path d="M 244.232308 117.340962 
L 269.300769 117.340962 
L 269.300769 92.2725 
L 244.232308 92.2725 
z
" clip-path="url(#p93c78f2348)" style="stroke: #000000; stroke-linejoin: miter"/>
   </g>
   <g id="patch_106">
    <path d="M 275.567885 117.340962 
L 300.636346 117.340962 
L 300.636346 92.2725 
L 275.567885 92.2725 
z
" clip-path="url(#p93c78f2348)" style="stroke: #000000; stroke-linejoin: miter"/>
   </g>
   <g id="patch_107">
    <path d="M 306.903462 117.340962 
L 331.971923 117.340962 
L 331.971923 92.2725 
L 306.903462 92.2725 
z
" clip-path="url(#p93c78f2348)" style="stroke: #000000; stroke-linejoin: miter"/>
   </g>
   <g id="patch_108">
    <path d="M 338.239038 117.340962 
L 363.3075 117.340962 
L 363.3075 92.2725 
L 338.239038 92.2725 
z
" clip-path="url(#p93c78f2348)" style="stroke: #000000; stroke-linejoin: miter"/>
   </g>
   <g id="patch_109">
    <path d="M 369.574615 117.340962 
L 394.643077 117.340962 
L 394.643077 92.2725 
L 369.574615 92.2725 
z
" clip-path="url(#p93c78f2348)" style="stroke: #000000; stroke-linejoin: miter"/>
   </g>
   <g id="patch_110">
    <path d="M 400.910192 117.340962 
L 425.978654 117.340962 
L 425.978654 92.2725 
L 400.910192 92.2725 
z
" clip-path="url(#p93c78f2348)" style="stroke: #000000; stroke-linejoin: miter"/>
   </g>
   <g id="patch_111">
    <path d="M 432.245769 117.340962 
L 457.314231 117.340962 
L 457.314231 92.2725 
L 432.245769 92.2725 
z
" clip-path="url(#p93c78f2348)" style="stroke: #000000; stroke-linejoin: miter"/>
   </g>
   <g id="patch_112">
    <path d="M 463.581346 117.340962 
L 488.649808 117.340962 
L 488.649808 92.2725 
L 463.581346 92.2725 
z
" clip-path="url(#p93c78f2348)" style="stroke: #000000; stroke-linejoin: miter"/>
   </g>
   <g id="patch_113">
    <path d="M 494.916923 117.340962 
L 519.985385 117.340962 
L 519.985385 92.2725 
L 494.916923 92.2725 
z
" clip-path="url(#p93c78f2348)" style="stroke: #000000; stroke-linejoin: miter"/>
   </g>
   <g id="patch_114">
    <path d="M 526.2525 117.340962 
L 551.320962 117.340962 
L 551.320962 92.2725 
L 526.2525 92.2725 
z
" clip-path="url(#p93c78f2348)" style="stroke: #000000; stroke-linejoin: miter"/>
   </g>
   <g id="patch_115">
    <path d="M 557.588077 117.340962 
L 582.656538 117.340962 
L 582.656538 92.2725 
L 557.588077 92.2725 
z
" clip-path="url(#p93c78f2348)" style="stroke: #000000; stroke-linejoin: miter"/>
   </g>
   <g id="patch_116">
    <path d="M 588.923654 117.340962 
L 613.992115 117.340962 
L 613.992115 92.2725 
L 588.923654 92.2725 
z
" clip-path="url(#p93c78f2348)" style="stroke: #000000; stroke-linejoin: miter"/>
   </g>
   <g id="patch_117">
    <path d="M 620.259231 117.340962 
L 645.327692 117.340962 
L 645.327692 92.2725 
L 620.259231 92.2725 
z
" clip-path="url(#p93c78f2348)" style="stroke: #000000; stroke-linejoin: miter"/>
   </g>
   <g id="patch_118">
    <path d="M 651.594808 117.340962 
L 676.663269 117.340962 
L 676.663269 92.2725 
L 651.594808 92.2725 
z
" clip-path="url(#p93c78f2348)" style="stroke: #000000; stroke-linejoin: miter"/>
   </g>
   <g id="patch_119">
    <path d="M 682.930385 117.340962 
L 707.998846 117.340962 
L 707.998846 92.2725 
L 682.930385 92.2725 
z
" clip-path="url(#p93c78f2348)" style="stroke: #000000; stroke-linejoin: miter"/>
   </g>
   <g id="patch_120">
    <path d="M 714.265962 117.340962 
L 739.334423 117.340962 
L 739.334423 92.2725 
L 714.265962 92.2725 
z
" clip-path="url(#p93c78f2348)" style="stroke: #000000; stroke-linejoin: miter"/>
   </g>
   <g id="patch_121">
    <path d="M 745.601538 117.340962 
L 770.67 117.340962 
L 770.67 92.2725 
L 745.601538 92.2725 
z
" clip-path="url(#p93c78f2348)" style="stroke: #000000; stroke-linejoin: miter"/>
   </g>
   <g id="patch_122">
    <path d="M 776.937115 117.340962 
L 802.005577 117.340962 
L 802.005577 92.2725 
L 776.937115 92.2725 
z
" clip-path="url(#p93c78f2348)" style="stroke: #000000; stroke-linejoin: miter"/>
   </g>
   <g id="patch_123">
    <path d="M 65.024465 77.199766 
L 72.481689 77.199766 
L 72.481689 69.742542 
L 65.024465 69.742542 
z
" clip-path="url(#p93c78f2348)" style="stroke: #000000; stroke-linejoin: miter"/>
   </g>
   <g id="patch_124">
    <path d="M 89.685671 83.874137 
L 110.491637 83.874137 
L 110.491637 63.068171 
L 89.685671 63.068171 
z
" clip-path="url(#p93c78f2348)" style="stroke: #000000; stroke-linejoin: miter"/>
   </g>
   <g id="patch_125">
    <path d="M 119.006477 85.888907 
L 143.841984 85.888907 
L 143.841984 61.0534 
L 119.006477 61.0534 
z
" clip-path="url(#p93c78f2348)" style="stroke: #000000; stroke-linejoin: miter"/>
   </g>
   <g id="patch_126">
    <path d="M 150.2606 85.970361 
L 175.259015 85.970361 
L 175.259015 60.971946 
L 150.2606 60.971946 
z
" clip-path="url(#p93c78f2348)" style="stroke: #000000; stroke-linejoin: miter"/>
   </g>
   <g id="patch_127">
    <path d="M 181.561154 86.005385 
L 206.629615 86.005385 
L 206.629615 60.936923 
L 181.561154 60.936923 
z
" clip-path="url(#p93c78f2348)" style="stroke: #000000; stroke-linejoin: miter"/>
   </g>
   <g id="patch_128">
    <path d="M 212.896731 86.005385 
L 237.965192 86.005385 
L 237.965192 60.936923 
L 212.896731 60.936923 
z
" clip-path="url(#p93c78f2348)" style="stroke: #000000; stroke-linejoin: miter"/>
   </g>
   <g id="patch_129">
    <path d="M 244.232308 86.005385 
L 269.300769 86.005385 
L 269.300769 60.936923 
L 244.232308 60.936923 
z
" clip-path="url(#p93c78f2348)" style="stroke: #000000; stroke-linejoin: miter"/>
   </g>
   <g id="patch_130">
    <path d="M 275.567885 86.005385 
L 300.636346 86.005385 
L 300.636346 60.936923 
L 275.567885 60.936923 
z
" clip-path="url(#p93c78f2348)" style="stroke: #000000; stroke-linejoin: miter"/>
   </g>
   <g id="patch_131">
    <path d="M 306.903462 86.005385 
L 331.971923 86.005385 
L 331.971923 60.936923 
L 306.903462 60.936923 
z
" clip-path="url(#p93c78f2348)" style="stroke: #000000; stroke-linejoin: miter"/>
   </g>
   <g id="patch_132">
    <path d="M 338.239038 86.005385 
L 363.3075 86.005385 
L 363.3075 60.936923 
L 338.239038 60.936923 
z
" clip-path="url(#p93c78f2348)" style="stroke: #000000; stroke-linejoin: miter"/>
   </g>
   <g id="patch_133">
    <path d="M 369.574615 86.005385 
L 394.643077 86.005385 
L 394.643077 60.936923 
L 369.574615 60.936923 
z
" clip-path="url(#p93c78f2348)" style="stroke: #000000; stroke-linejoin: miter"/>
   </g>
   <g id="patch_134">
    <path d="M 400.910192 86.005385 
L 425.978654 86.005385 
L 425.978654 60.936923 
L 400.910192 60.936923 
z
" clip-path="url(#p93c78f2348)" style="stroke: #000000; stroke-linejoin: miter"/>
   </g>
   <g id="patch_135">
    <path d="M 432.245769 86.005385 
L 457.314231 86.005385 
L 457.314231 60.936923 
L 432.245769 60.936923 
z
" clip-path="url(#p93c78f2348)" style="stroke: #000000; stroke-linejoin: miter"/>
   </g>
   <g id="patch_136">
    <path d="M 463.581346 86.005385 
L 488.649808 86.005385 
L 488.649808 60.936923 
L 463.581346 60.936923 
z
" clip-path="url(#p93c78f2348)" style="stroke: #000000; stroke-linejoin: miter"/>
   </g>
   <g id="patch_137">
    <path d="M 494.916923 86.005385 
L 519.985385 86.005385 
L 519.985385 60.936923 
L 494.916923 60.936923 
z
" clip-path="url(#p93c78f2348)" style="stroke: #000000; stroke-linejoin: miter"/>
   </g>
   <g id="patch_138">
    <path d="M 526.2525 86.005385 
L 551.320962 86.005385 
L 551.320962 60.936923 
L 526.2525 60.936923 
z
" clip-path="url(#p93c78f2348)" style="stroke: #000000; stroke-linejoin: miter"/>
   </g>
   <g id="patch_139">
    <path d="M 557.588077 86.005385 
L 582.656538 86.005385 
L 582.656538 60.936923 
L 557.588077 60.936923 
z
" clip-path="url(#p93c78f2348)" style="stroke: #000000; stroke-linejoin: miter"/>
   </g>
   <g id="patch_140">
    <path d="M 588.923654 86.005385 
L 613.992115 86.005385 
L 613.992115 60.936923 
L 588.923654 60.936923 
z
" clip-path="url(#p93c78f2348)" style="stroke: #000000; stroke-linejoin: miter"/>
   </g>
   <g id="patch_141">
    <path d="M 620.259231 86.005385 
L 645.327692 86.005385 
L 645.327692 60.936923 
L 620.259231 60.936923 
z
" clip-path="url(#p93c78f2348)" style="stroke: #000000; stroke-linejoin: miter"/>
   </g>
   <g id="patch_142">
    <path d="M 651.594808 86.005385 
L 676.663269 86.005385 
L 676.663269 60.936923 
L 651.594808 60.936923 
z
" clip-path="url(#p93c78f2348)" style="stroke: #000000; stroke-linejoin: miter"/>
   </g>
   <g id="patch_143">
    <path d="M 682.930385 86.005385 
L 707.998846 86.005385 
L 707.998846 60.936923 
L 682.930385 60.936923 
z
" clip-path="url(#p93c78f2348)" style="stroke: #000000; stroke-linejoin: miter"/>
   </g>
   <g id="patch_144">
    <path d="M 714.265962 86.005385 
L 739.334423 86.005385 
L 739.334423 60.936923 
L 714.265962 60.936923 
z
" clip-path="url(#p93c78f2348)" style="stroke: #000000; stroke-linejoin: miter"/>
   </g>
   <g id="patch_145">
    <path d="M 745.601538 86.005385 
L 770.67 86.005385 
L 770.67 60.936923 
L 745.601538 60.936923 
z
" clip-path="url(#p93c78f2348)" style="stroke: #000000; stroke-linejoin: miter"/>
   </g>
   <g id="patch_146">
    <path d="M 776.937115 86.005385 
L 802.005577 86.005385 
L 802.005577 60.936923 
L 776.937115 60.936923 
z
" clip-path="url(#p93c78f2348)" style="stroke: #000000; stroke-linejoin: miter"/>
   </g>
   <g id="matplotlib.axis_1">
    <g id="xtick_1">
     <g id="line2d_1">
      <defs>
       <path id="m4ca304ca2d" d="M 0 0 
L 0 3.5 
" style="stroke: #000000; stroke-width: 0.8"/>
      </defs>
      <g>
       <use xlink:href="#m4ca304ca2d" x="68.753077" y="261.484615" style="stroke: #000000; stroke-width: 0.8"/>
      </g>
     </g>
     <g id="text_1">
      <!-- 1 -->
      <g transform="translate(65.742921 282.636178) scale(0.1 -0.1)">
       <defs>
        <path id="DejaVuSansMono-31" d="M 844 531 
L 1825 531 
L 1825 4097 
L 769 3859 
L 769 4434 
L 1819 4666 
L 2450 4666 
L 2450 531 
L 3419 531 
L 3419 0 
L 844 0 
L 844 531 
z
" transform="scale(0.015625)"/>
       </defs>
       <use xlink:href="#DejaVuSansMono-31"/>
      </g>
     </g>
    </g>
    <g id="xtick_2">
     <g id="line2d_2">
      <g>
       <use xlink:href="#m4ca304ca2d" x="256.766538" y="261.484615" style="stroke: #000000; stroke-width: 0.8"/>
      </g>
     </g>
     <g id="text_2">
      <!-- 250 -->
      <g transform="translate(247.73607 282.636178) scale(0.1 -0.1)">
       <defs>
        <path id="DejaVuSansMono-32" d="M 1166 531 
L 3309 531 
L 3309 0 
L 475 0 
L 475 531 
Q 1059 1147 1496 1619 
Q 1934 2091 2100 2284 
Q 2413 2666 2522 2902 
Q 2631 3138 2631 3384 
Q 2631 3775 2401 3997 
Q 2172 4219 1772 4219 
Q 1488 4219 1175 4116 
Q 863 4013 513 3803 
L 513 4441 
Q 834 4594 1145 4672 
Q 1456 4750 1759 4750 
Q 2444 4750 2861 4386 
Q 3278 4022 3278 3431 
Q 3278 3131 3139 2831 
Q 3000 2531 2688 2169 
Q 2513 1966 2180 1606 
Q 1847 1247 1166 531 
z
" transform="scale(0.015625)"/>
        <path id="DejaVuSansMono-35" d="M 647 4666 
L 3009 4666 
L 3009 4134 
L 1222 4134 
L 1222 2988 
Q 1356 3038 1492 3061 
Q 1628 3084 1766 3084 
Q 2491 3084 2916 2656 
Q 3341 2228 3341 1497 
Q 3341 759 2895 334 
Q 2450 -91 1678 -91 
Q 1306 -91 998 -41 
Q 691 9 447 109 
L 447 750 
Q 734 594 1025 517 
Q 1316 441 1619 441 
Q 2141 441 2423 716 
Q 2706 991 2706 1497 
Q 2706 1997 2414 2275 
Q 2122 2553 1600 2553 
Q 1347 2553 1106 2495 
Q 866 2438 647 2322 
L 647 4666 
z
" transform="scale(0.015625)"/>
        <path id="DejaVuSansMono-30" d="M 1509 2344 
Q 1509 2516 1629 2641 
Q 1750 2766 1919 2766 
Q 2094 2766 2219 2641 
Q 2344 2516 2344 2344 
Q 2344 2169 2220 2047 
Q 2097 1925 1919 1925 
Q 1744 1925 1626 2044 
Q 1509 2163 1509 2344 
z
M 1925 4250 
Q 1484 4250 1267 3775 
Q 1050 3300 1050 2328 
Q 1050 1359 1267 884 
Q 1484 409 1925 409 
Q 2369 409 2586 884 
Q 2803 1359 2803 2328 
Q 2803 3300 2586 3775 
Q 2369 4250 1925 4250 
z
M 1925 4750 
Q 2672 4750 3055 4137 
Q 3438 3525 3438 2328 
Q 3438 1134 3055 521 
Q 2672 -91 1925 -91 
Q 1178 -91 797 521 
Q 416 1134 416 2328 
Q 416 3525 797 4137 
Q 1178 4750 1925 4750 
z
" transform="scale(0.015625)"/>
       </defs>
       <use xlink:href="#DejaVuSansMono-32"/>
       <use xlink:href="#DejaVuSansMono-35" x="60.205078"/>
       <use xlink:href="#DejaVuSansMono-30" x="120.410156"/>
      </g>
     </g>
    </g>
    <g id="xtick_3">
     <g id="line2d_3">
      <g>
       <use xlink:href="#m4ca304ca2d" x="444.78" y="261.484615" style="stroke: #000000; stroke-width: 0.8"/>
      </g>
     </g>
     <g id="text_3">
      <!-- 500 -->
      <g transform="translate(435.749531 282.636178) scale(0.1 -0.1)">
       <use xlink:href="#DejaVuSansMono-35"/>
       <use xlink:href="#DejaVuSansMono-30" x="60.205078"/>
       <use xlink:href="#DejaVuSansMono-30" x="120.410156"/>
      </g>
     </g>
    </g>
    <g id="xtick_4">
     <g id="line2d_4">
      <g>
       <use xlink:href="#m4ca304ca2d" x="632.793462" y="261.484615" style="stroke: #000000; stroke-width: 0.8"/>
      </g>
     </g>
     <g id="text_4">
      <!-- 750 -->
      <g transform="translate(623.762993 282.636178) scale(0.1 -0.1)">
       <defs>
        <path id="DejaVuSansMono-37" d="M 434 4666 
L 3372 4666 
L 3372 4397 
L 1703 0 
L 1044 0 
L 2669 4134 
L 434 4134 
L 434 4666 
z
" transform="scale(0.015625)"/>
       </defs>
       <use xlink:href="#DejaVuSansMono-37"/>
       <use xlink:href="#DejaVuSansMono-35" x="60.205078"/>
       <use xlink:href="#DejaVuSansMono-30" x="120.410156"/>
      </g>
     </g>
    </g>
    <g id="xtick_5">
     <g id="line2d_5">
      <g>
       <use xlink:href="#m4ca304ca2d" x="789.471346" y="261.484615" style="stroke: #000000; stroke-width: 0.8"/>
      </g>
     </g>
     <g id="text_5">
      <!-- 1000 -->
      <g transform="translate(777.430721 282.636178) scale(0.1 -0.1)">
       <use xlink:href="#DejaVuSansMono-31"/>
       <use xlink:href="#DejaVuSansMono-30" x="60.205078"/>
       <use xlink:href="#DejaVuSansMono-30" x="120.410156"/>
       <use xlink:href="#DejaVuSansMono-30" x="180.615234"/>
      </g>
     </g>
    </g>
   </g>
   <g id="matplotlib.axis_2">
    <g id="ytick_1">
     <g id="line2d_6">
      <defs>
       <path id="m19674bb5a8" d="M 0 0 
L -3.5 0 
" style="stroke: #000000; stroke-width: 0.8"/>
      </defs>
      <g>
       <use xlink:href="#m19674bb5a8" x="37.4175" y="230.149038" style="stroke: #000000; stroke-width: 0.8"/>
      </g>
     </g>
     <g id="text_6">
      <!-- 2 -->
      <g transform="translate(17.897188 233.97482) scale(0.1 -0.1)">
       <use xlink:href="#DejaVuSansMono-32"/>
      </g>
     </g>
    </g>
    <g id="ytick_2">
     <g id="line2d_7">
      <g>
       <use xlink:href="#m19674bb5a8" x="37.4175" y="198.813462" style="stroke: #000000; stroke-width: 0.8"/>
      </g>
     </g>
     <g id="text_7">
      <!-- 3 -->
      <g transform="translate(17.897188 202.639243) scale(0.1 -0.1)">
       <defs>
        <path id="DejaVuSansMono-33" d="M 2425 2497 
Q 2884 2375 3128 2064 
Q 3372 1753 3372 1288 
Q 3372 644 2939 276 
Q 2506 -91 1741 -91 
Q 1419 -91 1084 -31 
Q 750 28 428 141 
L 428 769 
Q 747 603 1056 522 
Q 1366 441 1672 441 
Q 2191 441 2469 675 
Q 2747 909 2747 1350 
Q 2747 1756 2469 1995 
Q 2191 2234 1716 2234 
L 1234 2234 
L 1234 2753 
L 1716 2753 
Q 2150 2753 2394 2943 
Q 2638 3134 2638 3475 
Q 2638 3834 2411 4026 
Q 2184 4219 1766 4219 
Q 1488 4219 1191 4156 
Q 894 4094 569 3969 
L 569 4550 
Q 947 4650 1242 4700 
Q 1538 4750 1766 4750 
Q 2447 4750 2855 4408 
Q 3263 4066 3263 3500 
Q 3263 3116 3048 2859 
Q 2834 2603 2425 2497 
z
" transform="scale(0.015625)"/>
       </defs>
       <use xlink:href="#DejaVuSansMono-33"/>
      </g>
     </g>
    </g>
    <g id="ytick_3">
     <g id="line2d_8">
      <g>
       <use xlink:href="#m19674bb5a8" x="37.4175" y="167.477885" style="stroke: #000000; stroke-width: 0.8"/>
      </g>
     </g>
     <g id="text_8">
      <!-- 5 -->
      <g transform="translate(17.897188 171.303666) scale(0.1 -0.1)">
       <use xlink:href="#DejaVuSansMono-35"/>
      </g>
     </g>
    </g>
    <g id="ytick_4">
     <g id="line2d_9">
      <g>
       <use xlink:href="#m19674bb5a8" x="37.4175" y="136.142308" style="stroke: #000000; stroke-width: 0.8"/>
      </g>
     </g>
     <g id="text_9">
      <!-- 7 -->
      <g transform="translate(17.897188 139.968089) scale(0.1 -0.1)">
       <use xlink:href="#DejaVuSansMono-37"/>
      </g>
     </g>
    </g>
    <g id="ytick_5">
     <g id="line2d_10">
      <g>
       <use xlink:href="#m19674bb5a8" x="37.4175" y="104.806731" style="stroke: #000000; stroke-width: 0.8"/>
      </g>
     </g>
     <g id="text_10">
      <!-- 11 -->
      <g transform="translate(11.876875 108.632512) scale(0.1 -0.1)">
       <use xlink:href="#DejaVuSansMono-31"/>
       <use xlink:href="#DejaVuSansMono-31" x="60.205078"/>
      </g>
     </g>
    </g>
    <g id="ytick_6">
     <g id="line2d_11">
      <g>
       <use xlink:href="#m19674bb5a8" x="37.4175" y="73.471154" style="stroke: #000000; stroke-width: 0.8"/>
      </g>
     </g>
     <g id="text_11">
      <!-- ℙ -->
      <g transform="translate(17.897188 77.296935) scale(0.1 -0.1)">
       <defs>
        <path id="DejaVuSansMono-2119" d="M 506 4353 
L 506 313 
L 1106 313 
L 1106 4353 
L 506 4353 
z
M 1406 4353 
L 1406 2284 
L 2306 2284 
Q 2378 2284 2447 2291 
L 2447 4347 
Q 2378 4353 2306 4353 
L 1406 4353 
z
M 206 4666 
L 2166 4666 
Q 2913 4666 3297 4323 
Q 3681 3981 3681 3322 
Q 3681 2656 3297 2315 
Q 2913 1975 2163 1975 
L 1406 1975 
L 1406 0 
L 206 0 
L 206 4666 
z
M 2759 4281 
L 2759 2359 
Q 2941 2428 3075 2556 
Q 3353 2825 3353 3322 
Q 3353 3816 3078 4084 
Q 2947 4213 2759 4281 
z
" transform="scale(0.015625)"/>
       </defs>
       <use xlink:href="#DejaVuSansMono-2119"/>
      </g>
     </g>
    </g>
   </g>
   <g id="text_12">
    <!-- base : 11   |   emb : 64   |   heads : 4   |   depth : 3   |   lr : 0.0003   |   l2 : 0.01   |   dropout : 0.01 -->
    <g transform="translate(110.652656 39.002019) scale(0.1 -0.1)">
     <defs>
      <path id="DejaVuSansMono-62" d="M 2869 1747 
Q 2869 2416 2656 2756 
Q 2444 3097 2028 3097 
Q 1609 3097 1393 2755 
Q 1178 2413 1178 1747 
Q 1178 1084 1393 740 
Q 1609 397 2028 397 
Q 2444 397 2656 737 
Q 2869 1078 2869 1747 
z
M 1178 3053 
Q 1316 3309 1558 3446 
Q 1800 3584 2119 3584 
Q 2750 3584 3112 3098 
Q 3475 2613 3475 1759 
Q 3475 894 3111 401 
Q 2747 -91 2113 -91 
Q 1800 -91 1561 45 
Q 1322 181 1178 441 
L 1178 0 
L 603 0 
L 603 4863 
L 1178 4863 
L 1178 3053 
z
" transform="scale(0.015625)"/>
      <path id="DejaVuSansMono-61" d="M 2194 1759 
L 2003 1759 
Q 1500 1759 1245 1582 
Q 991 1406 991 1056 
Q 991 741 1181 566 
Q 1372 391 1709 391 
Q 2184 391 2456 720 
Q 2728 1050 2731 1631 
L 2731 1759 
L 2194 1759 
z
M 3309 1997 
L 3309 0 
L 2731 0 
L 2731 519 
Q 2547 206 2267 57 
Q 1988 -91 1588 -91 
Q 1053 -91 734 211 
Q 416 513 416 1019 
Q 416 1603 808 1906 
Q 1200 2209 1959 2209 
L 2731 2209 
L 2731 2300 
Q 2728 2719 2518 2908 
Q 2309 3097 1850 3097 
Q 1556 3097 1256 3012 
Q 956 2928 672 2766 
L 672 3341 
Q 991 3463 1283 3523 
Q 1575 3584 1850 3584 
Q 2284 3584 2592 3456 
Q 2900 3328 3091 3072 
Q 3209 2916 3259 2686 
Q 3309 2456 3309 1997 
z
" transform="scale(0.015625)"/>
      <path id="DejaVuSansMono-73" d="M 3041 3378 
L 3041 2816 
Q 2794 2959 2544 3031 
Q 2294 3103 2034 3103 
Q 1644 3103 1451 2976 
Q 1259 2850 1259 2591 
Q 1259 2356 1403 2240 
Q 1547 2125 2119 2016 
L 2350 1972 
Q 2778 1891 2998 1647 
Q 3219 1403 3219 1013 
Q 3219 494 2850 201 
Q 2481 -91 1825 -91 
Q 1566 -91 1281 -36 
Q 997 19 666 128 
L 666 722 
Q 988 556 1281 473 
Q 1575 391 1838 391 
Q 2219 391 2428 545 
Q 2638 700 2638 978 
Q 2638 1378 1872 1531 
L 1847 1538 
L 1631 1581 
Q 1134 1678 906 1908 
Q 678 2138 678 2534 
Q 678 3038 1018 3311 
Q 1359 3584 1991 3584 
Q 2272 3584 2531 3532 
Q 2791 3481 3041 3378 
z
" transform="scale(0.015625)"/>
      <path id="DejaVuSansMono-65" d="M 3475 1894 
L 3475 1613 
L 984 1613 
L 984 1594 
Q 984 1022 1282 709 
Q 1581 397 2125 397 
Q 2400 397 2700 484 
Q 3000 572 3341 750 
L 3341 178 
Q 3013 44 2708 -23 
Q 2403 -91 2119 -91 
Q 1303 -91 843 398 
Q 384 888 384 1747 
Q 384 2584 834 3084 
Q 1284 3584 2034 3584 
Q 2703 3584 3089 3131 
Q 3475 2678 3475 1894 
z
M 2900 2063 
Q 2888 2569 2661 2833 
Q 2434 3097 2009 3097 
Q 1594 3097 1325 2822 
Q 1056 2547 1006 2059 
L 2900 2063 
z
" transform="scale(0.015625)"/>
      <path id="DejaVuSansMono-20" transform="scale(0.015625)"/>
      <path id="DejaVuSansMono-3a" d="M 1528 3322 
L 2316 3322 
L 2316 2375 
L 1528 2375 
L 1528 3322 
z
M 1528 953 
L 2316 953 
L 2316 0 
L 1528 0 
L 1528 953 
z
" transform="scale(0.015625)"/>
      <path id="DejaVuSansMono-7c" d="M 2194 4891 
L 2194 -1509 
L 1656 -1509 
L 1656 4891 
L 2194 4891 
z
" transform="scale(0.015625)"/>
      <path id="DejaVuSansMono-6d" d="M 2113 3144 
Q 2219 3369 2383 3476 
Q 2547 3584 2778 3584 
Q 3200 3584 3373 3257 
Q 3547 2931 3547 2028 
L 3547 0 
L 3022 0 
L 3022 2003 
Q 3022 2744 2939 2923 
Q 2856 3103 2638 3103 
Q 2388 3103 2295 2911 
Q 2203 2719 2203 2003 
L 2203 0 
L 1678 0 
L 1678 2003 
Q 1678 2753 1589 2928 
Q 1500 3103 1269 3103 
Q 1041 3103 952 2911 
Q 863 2719 863 2003 
L 863 0 
L 341 0 
L 341 3500 
L 863 3500 
L 863 3200 
Q 966 3388 1120 3486 
Q 1275 3584 1472 3584 
Q 1709 3584 1867 3475 
Q 2025 3366 2113 3144 
z
" transform="scale(0.015625)"/>
      <path id="DejaVuSansMono-36" d="M 3097 4563 
L 3097 3981 
Q 2900 4097 2678 4158 
Q 2456 4219 2216 4219 
Q 1616 4219 1306 3767 
Q 997 3316 997 2438 
Q 1147 2750 1412 2917 
Q 1678 3084 2022 3084 
Q 2697 3084 3067 2670 
Q 3438 2256 3438 1497 
Q 3438 741 3056 325 
Q 2675 -91 1984 -91 
Q 1172 -91 794 492 
Q 416 1075 416 2328 
Q 416 3509 870 4129 
Q 1325 4750 2188 4750 
Q 2419 4750 2650 4701 
Q 2881 4653 3097 4563 
z
M 1972 2591 
Q 1569 2591 1337 2300 
Q 1106 2009 1106 1497 
Q 1106 984 1337 693 
Q 1569 403 1972 403 
Q 2391 403 2603 679 
Q 2816 956 2816 1497 
Q 2816 2041 2603 2316 
Q 2391 2591 1972 2591 
z
" transform="scale(0.015625)"/>
      <path id="DejaVuSansMono-34" d="M 2297 4091 
L 825 1625 
L 2297 1625 
L 2297 4091 
z
M 2194 4666 
L 2925 4666 
L 2925 1625 
L 3547 1625 
L 3547 1113 
L 2925 1113 
L 2925 0 
L 2297 0 
L 2297 1113 
L 319 1113 
L 319 1709 
L 2194 4666 
z
" transform="scale(0.015625)"/>
      <path id="DejaVuSansMono-68" d="M 3284 2169 
L 3284 0 
L 2706 0 
L 2706 2169 
Q 2706 2641 2540 2862 
Q 2375 3084 2022 3084 
Q 1619 3084 1401 2798 
Q 1184 2513 1184 1978 
L 1184 0 
L 609 0 
L 609 4863 
L 1184 4863 
L 1184 2975 
Q 1338 3275 1600 3429 
Q 1863 3584 2222 3584 
Q 2756 3584 3020 3232 
Q 3284 2881 3284 2169 
z
" transform="scale(0.015625)"/>
      <path id="DejaVuSansMono-64" d="M 2681 3053 
L 2681 4863 
L 3256 4863 
L 3256 0 
L 2681 0 
L 2681 441 
Q 2538 181 2298 45 
Q 2059 -91 1747 -91 
Q 1113 -91 748 401 
Q 384 894 384 1759 
Q 384 2613 750 3098 
Q 1116 3584 1747 3584 
Q 2063 3584 2303 3448 
Q 2544 3313 2681 3053 
z
M 991 1747 
Q 991 1078 1203 737 
Q 1416 397 1831 397 
Q 2247 397 2464 740 
Q 2681 1084 2681 1747 
Q 2681 2413 2464 2755 
Q 2247 3097 1831 3097 
Q 1416 3097 1203 2756 
Q 991 2416 991 1747 
z
" transform="scale(0.015625)"/>
      <path id="DejaVuSansMono-70" d="M 1172 441 
L 1172 -1331 
L 594 -1331 
L 594 3500 
L 1172 3500 
L 1172 3053 
Q 1316 3313 1555 3448 
Q 1794 3584 2106 3584 
Q 2741 3584 3102 3093 
Q 3463 2603 3463 1734 
Q 3463 881 3100 395 
Q 2738 -91 2106 -91 
Q 1788 -91 1548 45 
Q 1309 181 1172 441 
z
M 2859 1747 
Q 2859 2416 2648 2756 
Q 2438 3097 2022 3097 
Q 1603 3097 1387 2755 
Q 1172 2413 1172 1747 
Q 1172 1084 1387 740 
Q 1603 397 2022 397 
Q 2438 397 2648 737 
Q 2859 1078 2859 1747 
z
" transform="scale(0.015625)"/>
      <path id="DejaVuSansMono-74" d="M 1919 4494 
L 1919 3500 
L 3225 3500 
L 3225 3053 
L 1919 3053 
L 1919 1153 
Q 1919 766 2066 612 
Q 2213 459 2578 459 
L 3225 459 
L 3225 0 
L 2522 0 
Q 1875 0 1609 259 
Q 1344 519 1344 1153 
L 1344 3053 
L 409 3053 
L 409 3500 
L 1344 3500 
L 1344 4494 
L 1919 4494 
z
" transform="scale(0.015625)"/>
      <path id="DejaVuSansMono-6c" d="M 1997 1269 
Q 1997 881 2139 684 
Q 2281 488 2559 488 
L 3231 488 
L 3231 0 
L 2503 0 
Q 1988 0 1705 331 
Q 1422 663 1422 1269 
L 1422 4447 
L 500 4447 
L 500 4897 
L 1997 4897 
L 1997 1269 
z
" transform="scale(0.015625)"/>
      <path id="DejaVuSansMono-72" d="M 3609 2778 
Q 3425 2922 3234 2987 
Q 3044 3053 2816 3053 
Q 2278 3053 1993 2715 
Q 1709 2378 1709 1741 
L 1709 0 
L 1131 0 
L 1131 3500 
L 1709 3500 
L 1709 2816 
Q 1853 3188 2151 3386 
Q 2450 3584 2859 3584 
Q 3072 3584 3256 3531 
Q 3441 3478 3609 3366 
L 3609 2778 
z
" transform="scale(0.015625)"/>
      <path id="DejaVuSansMono-2e" d="M 1528 953 
L 2316 953 
L 2316 0 
L 1528 0 
L 1528 953 
z
" transform="scale(0.015625)"/>
      <path id="DejaVuSansMono-6f" d="M 1925 3097 
Q 1488 3097 1263 2756 
Q 1038 2416 1038 1747 
Q 1038 1081 1263 739 
Q 1488 397 1925 397 
Q 2366 397 2591 739 
Q 2816 1081 2816 1747 
Q 2816 2416 2591 2756 
Q 2366 3097 1925 3097 
z
M 1925 3584 
Q 2653 3584 3039 3112 
Q 3425 2641 3425 1747 
Q 3425 850 3040 379 
Q 2656 -91 1925 -91 
Q 1197 -91 812 379 
Q 428 850 428 1747 
Q 428 2641 812 3112 
Q 1197 3584 1925 3584 
z
" transform="scale(0.015625)"/>
      <path id="DejaVuSansMono-75" d="M 609 1325 
L 609 3494 
L 1184 3494 
L 1184 1325 
Q 1184 853 1351 631 
Q 1519 409 1869 409 
Q 2275 409 2490 695 
Q 2706 981 2706 1516 
L 2706 3494 
L 3284 3494 
L 3284 0 
L 2706 0 
L 2706 525 
Q 2553 222 2289 65 
Q 2025 -91 1672 -91 
Q 1134 -91 871 261 
Q 609 613 609 1325 
z
" transform="scale(0.015625)"/>
     </defs>
     <use xlink:href="#DejaVuSansMono-62"/>
     <use xlink:href="#DejaVuSansMono-61" x="60.205078"/>
     <use xlink:href="#DejaVuSansMono-73" x="120.410156"/>
     <use xlink:href="#DejaVuSansMono-65" x="180.615234"/>
     <use xlink:href="#DejaVuSansMono-20" x="240.820312"/>
     <use xlink:href="#DejaVuSansMono-3a" x="301.025391"/>
     <use xlink:href="#DejaVuSansMono-20" x="361.230469"/>
     <use xlink:href="#DejaVuSansMono-31" x="421.435547"/>
     <use xlink:href="#DejaVuSansMono-31" x="481.640625"/>
     <use xlink:href="#DejaVuSansMono-20" x="541.845703"/>
     <use xlink:href="#DejaVuSansMono-20" x="602.050781"/>
     <use xlink:href="#DejaVuSansMono-20" x="662.255859"/>
     <use xlink:href="#DejaVuSansMono-7c" x="722.460938"/>
     <use xlink:href="#DejaVuSansMono-20" x="782.666016"/>
     <use xlink:href="#DejaVuSansMono-20" x="842.871094"/>
     <use xlink:href="#DejaVuSansMono-20" x="903.076172"/>
     <use xlink:href="#DejaVuSansMono-65" x="963.28125"/>
     <use xlink:href="#DejaVuSansMono-6d" x="1023.486328"/>
     <use xlink:href="#DejaVuSansMono-62" x="1083.691406"/>
     <use xlink:href="#DejaVuSansMono-20" x="1143.896484"/>
     <use xlink:href="#DejaVuSansMono-3a" x="1204.101562"/>
     <use xlink:href="#DejaVuSansMono-20" x="1264.306641"/>
     <use xlink:href="#DejaVuSansMono-36" x="1324.511719"/>
     <use xlink:href="#DejaVuSansMono-34" x="1384.716797"/>
     <use xlink:href="#DejaVuSansMono-20" x="1444.921875"/>
     <use xlink:href="#DejaVuSansMono-20" x="1505.126953"/>
     <use xlink:href="#DejaVuSansMono-20" x="1565.332031"/>
     <use xlink:href="#DejaVuSansMono-7c" x="1625.537109"/>
     <use xlink:href="#DejaVuSansMono-20" x="1685.742188"/>
     <use xlink:href="#DejaVuSansMono-20" x="1745.947266"/>
     <use xlink:href="#DejaVuSansMono-20" x="1806.152344"/>
     <use xlink:href="#DejaVuSansMono-68" x="1866.357422"/>
     <use xlink:href="#DejaVuSansMono-65" x="1926.5625"/>
     <use xlink:href="#DejaVuSansMono-61" x="1986.767578"/>
     <use xlink:href="#DejaVuSansMono-64" x="2046.972656"/>
     <use xlink:href="#DejaVuSansMono-73" x="2107.177734"/>
     <use xlink:href="#DejaVuSansMono-20" x="2167.382812"/>
     <use xlink:href="#DejaVuSansMono-3a" x="2227.587891"/>
     <use xlink:href="#DejaVuSansMono-20" x="2287.792969"/>
     <use xlink:href="#DejaVuSansMono-34" x="2347.998047"/>
     <use xlink:href="#DejaVuSansMono-20" x="2408.203125"/>
     <use xlink:href="#DejaVuSansMono-20" x="2468.408203"/>
     <use xlink:href="#DejaVuSansMono-20" x="2528.613281"/>
     <use xlink:href="#DejaVuSansMono-7c" x="2588.818359"/>
     <use xlink:href="#DejaVuSansMono-20" x="2649.023438"/>
     <use xlink:href="#DejaVuSansMono-20" x="2709.228516"/>
     <use xlink:href="#DejaVuSansMono-20" x="2769.433594"/>
     <use xlink:href="#DejaVuSansMono-64" x="2829.638672"/>
     <use xlink:href="#DejaVuSansMono-65" x="2889.84375"/>
     <use xlink:href="#DejaVuSansMono-70" x="2950.048828"/>
     <use xlink:href="#DejaVuSansMono-74" x="3010.253906"/>
     <use xlink:href="#DejaVuSansMono-68" x="3070.458984"/>
     <use xlink:href="#DejaVuSansMono-20" x="3130.664062"/>
     <use xlink:href="#DejaVuSansMono-3a" x="3190.869141"/>
     <use xlink:href="#DejaVuSansMono-20" x="3251.074219"/>
     <use xlink:href="#DejaVuSansMono-33" x="3311.279297"/>
     <use xlink:href="#DejaVuSansMono-20" x="3371.484375"/>
     <use xlink:href="#DejaVuSansMono-20" x="3431.689453"/>
     <use xlink:href="#DejaVuSansMono-20" x="3491.894531"/>
     <use xlink:href="#DejaVuSansMono-7c" x="3552.099609"/>
     <use xlink:href="#DejaVuSansMono-20" x="3612.304688"/>
     <use xlink:href="#DejaVuSansMono-20" x="3672.509766"/>
     <use xlink:href="#DejaVuSansMono-20" x="3732.714844"/>
     <use xlink:href="#DejaVuSansMono-6c" x="3792.919922"/>
     <use xlink:href="#DejaVuSansMono-72" x="3853.125"/>
     <use xlink:href="#DejaVuSansMono-20" x="3913.330078"/>
     <use xlink:href="#DejaVuSansMono-3a" x="3973.535156"/>
     <use xlink:href="#DejaVuSansMono-20" x="4033.740234"/>
     <use xlink:href="#DejaVuSansMono-30" x="4093.945312"/>
     <use xlink:href="#DejaVuSansMono-2e" x="4154.150391"/>
     <use xlink:href="#DejaVuSansMono-30" x="4214.355469"/>
     <use xlink:href="#DejaVuSansMono-30" x="4274.560547"/>
     <use xlink:href="#DejaVuSansMono-30" x="4334.765625"/>
     <use xlink:href="#DejaVuSansMono-33" x="4394.970703"/>
     <use xlink:href="#DejaVuSansMono-20" x="4455.175781"/>
     <use xlink:href="#DejaVuSansMono-20" x="4515.380859"/>
     <use xlink:href="#DejaVuSansMono-20" x="4575.585938"/>
     <use xlink:href="#DejaVuSansMono-7c" x="4635.791016"/>
     <use xlink:href="#DejaVuSansMono-20" x="4695.996094"/>
     <use xlink:href="#DejaVuSansMono-20" x="4756.201172"/>
     <use xlink:href="#DejaVuSansMono-20" x="4816.40625"/>
     <use xlink:href="#DejaVuSansMono-6c" x="4876.611328"/>
     <use xlink:href="#DejaVuSansMono-32" x="4936.816406"/>
     <use xlink:href="#DejaVuSansMono-20" x="4997.021484"/>
     <use xlink:href="#DejaVuSansMono-3a" x="5057.226562"/>
     <use xlink:href="#DejaVuSansMono-20" x="5117.431641"/>
     <use xlink:href="#DejaVuSansMono-30" x="5177.636719"/>
     <use xlink:href="#DejaVuSansMono-2e" x="5237.841797"/>
     <use xlink:href="#DejaVuSansMono-30" x="5298.046875"/>
     <use xlink:href="#DejaVuSansMono-31" x="5358.251953"/>
     <use xlink:href="#DejaVuSansMono-20" x="5418.457031"/>
     <use xlink:href="#DejaVuSansMono-20" x="5478.662109"/>
     <use xlink:href="#DejaVuSansMono-20" x="5538.867188"/>
     <use xlink:href="#DejaVuSansMono-7c" x="5599.072266"/>
     <use xlink:href="#DejaVuSansMono-20" x="5659.277344"/>
     <use xlink:href="#DejaVuSansMono-20" x="5719.482422"/>
     <use xlink:href="#DejaVuSansMono-20" x="5779.6875"/>
     <use xlink:href="#DejaVuSansMono-64" x="5839.892578"/>
     <use xlink:href="#DejaVuSansMono-72" x="5900.097656"/>
     <use xlink:href="#DejaVuSansMono-6f" x="5960.302734"/>
     <use xlink:href="#DejaVuSansMono-70" x="6020.507812"/>
     <use xlink:href="#DejaVuSansMono-6f" x="6080.712891"/>
     <use xlink:href="#DejaVuSansMono-75" x="6140.917969"/>
     <use xlink:href="#DejaVuSansMono-74" x="6201.123047"/>
     <use xlink:href="#DejaVuSansMono-20" x="6261.328125"/>
     <use xlink:href="#DejaVuSansMono-3a" x="6321.533203"/>
     <use xlink:href="#DejaVuSansMono-20" x="6381.738281"/>
     <use xlink:href="#DejaVuSansMono-30" x="6441.943359"/>
     <use xlink:href="#DejaVuSansMono-2e" x="6502.148438"/>
     <use xlink:href="#DejaVuSansMono-30" x="6562.353516"/>
     <use xlink:href="#DejaVuSansMono-31" x="6622.558594"/>
    </g>
   </g>
   <g id="text_13">
    <!-- train f1 -->
    <g transform="translate(822.886611 127.728846) rotate(-270) scale(0.1 -0.1)">
     <defs>
      <path id="DejaVuSansMono-69" d="M 800 3500 
L 2272 3500 
L 2272 447 
L 3413 447 
L 3413 0 
L 556 0 
L 556 447 
L 1697 447 
L 1697 3053 
L 800 3053 
L 800 3500 
z
M 1697 4863 
L 2272 4863 
L 2272 4134 
L 1697 4134 
L 1697 4863 
z
" transform="scale(0.015625)"/>
      <path id="DejaVuSansMono-6e" d="M 3284 2169 
L 3284 0 
L 2706 0 
L 2706 2169 
Q 2706 2641 2540 2862 
Q 2375 3084 2022 3084 
Q 1619 3084 1401 2798 
Q 1184 2513 1184 1978 
L 1184 0 
L 609 0 
L 609 3500 
L 1184 3500 
L 1184 2975 
Q 1338 3275 1600 3429 
Q 1863 3584 2222 3584 
Q 2756 3584 3020 3232 
Q 3284 2881 3284 2169 
z
" transform="scale(0.015625)"/>
      <path id="DejaVuSansMono-66" d="M 3322 4863 
L 3322 4384 
L 2669 4384 
Q 2359 4384 2239 4257 
Q 2119 4131 2119 3809 
L 2119 3500 
L 3322 3500 
L 3322 3053 
L 2119 3053 
L 2119 0 
L 1544 0 
L 1544 3053 
L 609 3053 
L 609 3500 
L 1544 3500 
L 1544 3744 
Q 1544 4319 1808 4591 
Q 2072 4863 2631 4863 
L 3322 4863 
z
" transform="scale(0.015625)"/>
     </defs>
     <use xlink:href="#DejaVuSansMono-74"/>
     <use xlink:href="#DejaVuSansMono-72" x="60.205078"/>
     <use xlink:href="#DejaVuSansMono-61" x="120.410156"/>
     <use xlink:href="#DejaVuSansMono-69" x="180.615234"/>
     <use xlink:href="#DejaVuSansMono-6e" x="240.820312"/>
     <use xlink:href="#DejaVuSansMono-20" x="301.025391"/>
     <use xlink:href="#DejaVuSansMono-66" x="361.230469"/>
     <use xlink:href="#DejaVuSansMono-31" x="421.435547"/>
    </g>
   </g>
  </g>
 </g>
 <defs>
  <clipPath id="p93c78f2348">
   <rect x="37.4175" y="10.8" width="814.725" height="250.684615"/>
  </clipPath>
 </defs>
</svg>
