<?xml version="1.0" encoding="utf-8" standalone="no"?>
<!DOCTYPE svg PUBLIC "-//W3C//DTD SVG 1.1//EN"
  "http://www.w3.org/Graphics/SVG/1.1/DTD/svg11.dtd">
<svg xmlns:xlink="http://www.w3.org/1999/xlink" width="864pt" height="432pt" viewBox="0 0 864 432" xmlns="http://www.w3.org/2000/svg" version="1.1">
 <metadata>
  <rdf:RDF xmlns:dc="http://purl.org/dc/elements/1.1/" xmlns:cc="http://creativecommons.org/ns#" xmlns:rdf="http://www.w3.org/1999/02/22-rdf-syntax-ns#">
   <cc:Work>
    <dc:type rdf:resource="http://purl.org/dc/dcmitype/StillImage"/>
    <dc:date>2024-09-18T17:51:26.458756</dc:date>
    <dc:format>image/svg+xml</dc:format>
    <dc:creator>
     <cc:Agent>
      <dc:title>Matplotlib v3.9.2, https://matplotlib.org/</dc:title>
     </cc:Agent>
    </dc:creator>
   </cc:Work>
  </rdf:RDF>
 </metadata>
 <defs>
  <style type="text/css">*{stroke-linejoin: round; stroke-linecap: butt}</style>
 </defs>
 <g id="figure_1">
  <g id="patch_1">
   <path d="M 0 432 
L 864 432 
L 864 0 
L 0 0 
z
" style="fill: #ffffff"/>
  </g>
  <g id="axes_1">
   <g id="patch_2">
    <path d="M 47.95 404.12 
L 853.2 404.12 
L 853.2 10.8 
L 47.95 10.8 
z
" style="fill: #ffffff"/>
   </g>
   <g id="matplotlib.axis_1">
    <g id="xtick_1">
     <g id="line2d_1">
      <defs>
       <path id="m0cb15352aa" d="M 0 0 
L 0 3.5 
" style="stroke: #000000; stroke-width: 0.8"/>
      </defs>
      <g>
       <use xlink:href="#m0cb15352aa" x="203.910754" y="404.12" style="stroke: #000000; stroke-width: 0.8"/>
      </g>
     </g>
     <g id="text_1">
      <!-- 200 -->
      <g transform="translate(194.880286 418.771563) scale(0.1 -0.1)">
       <defs>
        <path id="DejaVuSansMono-32" d="M 1166 531 
L 3309 531 
L 3309 0 
L 475 0 
L 475 531 
Q 1059 1147 1496 1619 
Q 1934 2091 2100 2284 
Q 2413 2666 2522 2902 
Q 2631 3138 2631 3384 
Q 2631 3775 2401 3997 
Q 2172 4219 1772 4219 
Q 1488 4219 1175 4116 
Q 863 4013 513 3803 
L 513 4441 
Q 834 4594 1145 4672 
Q 1456 4750 1759 4750 
Q 2444 4750 2861 4386 
Q 3278 4022 3278 3431 
Q 3278 3131 3139 2831 
Q 3000 2531 2688 2169 
Q 2513 1966 2180 1606 
Q 1847 1247 1166 531 
z
" transform="scale(0.015625)"/>
        <path id="DejaVuSansMono-30" d="M 1509 2344 
Q 1509 2516 1629 2641 
Q 1750 2766 1919 2766 
Q 2094 2766 2219 2641 
Q 2344 2516 2344 2344 
Q 2344 2169 2220 2047 
Q 2097 1925 1919 1925 
Q 1744 1925 1626 2044 
Q 1509 2163 1509 2344 
z
M 1925 4250 
Q 1484 4250 1267 3775 
Q 1050 3300 1050 2328 
Q 1050 1359 1267 884 
Q 1484 409 1925 409 
Q 2369 409 2586 884 
Q 2803 1359 2803 2328 
Q 2803 3300 2586 3775 
Q 2369 4250 1925 4250 
z
M 1925 4750 
Q 2672 4750 3055 4137 
Q 3438 3525 3438 2328 
Q 3438 1134 3055 521 
Q 2672 -91 1925 -91 
Q 1178 -91 797 521 
Q 416 1134 416 2328 
Q 416 3525 797 4137 
Q 1178 4750 1925 4750 
z
" transform="scale(0.015625)"/>
       </defs>
       <use xlink:href="#DejaVuSansMono-32"/>
       <use xlink:href="#DejaVuSansMono-30" x="60.205078"/>
       <use xlink:href="#DejaVuSansMono-30" x="120.410156"/>
      </g>
     </g>
    </g>
    <g id="xtick_2">
     <g id="line2d_2">
      <g>
       <use xlink:href="#m0cb15352aa" x="368.079969" y="404.12" style="stroke: #000000; stroke-width: 0.8"/>
      </g>
     </g>
     <g id="text_2">
      <!-- 400 -->
      <g transform="translate(359.049501 418.771563) scale(0.1 -0.1)">
       <defs>
        <path id="DejaVuSansMono-34" d="M 2297 4091 
L 825 1625 
L 2297 1625 
L 2297 4091 
z
M 2194 4666 
L 2925 4666 
L 2925 1625 
L 3547 1625 
L 3547 1113 
L 2925 1113 
L 2925 0 
L 2297 0 
L 2297 1113 
L 319 1113 
L 319 1709 
L 2194 4666 
z
" transform="scale(0.015625)"/>
       </defs>
       <use xlink:href="#DejaVuSansMono-34"/>
       <use xlink:href="#DejaVuSansMono-30" x="60.205078"/>
       <use xlink:href="#DejaVuSansMono-30" x="120.410156"/>
      </g>
     </g>
    </g>
    <g id="xtick_3">
     <g id="line2d_3">
      <g>
       <use xlink:href="#m0cb15352aa" x="532.249185" y="404.12" style="stroke: #000000; stroke-width: 0.8"/>
      </g>
     </g>
     <g id="text_3">
      <!-- 600 -->
      <g transform="translate(523.218716 418.771563) scale(0.1 -0.1)">
       <defs>
        <path id="DejaVuSansMono-36" d="M 3097 4563 
L 3097 3981 
Q 2900 4097 2678 4158 
Q 2456 4219 2216 4219 
Q 1616 4219 1306 3767 
Q 997 3316 997 2438 
Q 1147 2750 1412 2917 
Q 1678 3084 2022 3084 
Q 2697 3084 3067 2670 
Q 3438 2256 3438 1497 
Q 3438 741 3056 325 
Q 2675 -91 1984 -91 
Q 1172 -91 794 492 
Q 416 1075 416 2328 
Q 416 3509 870 4129 
Q 1325 4750 2188 4750 
Q 2419 4750 2650 4701 
Q 2881 4653 3097 4563 
z
M 1972 2591 
Q 1569 2591 1337 2300 
Q 1106 2009 1106 1497 
Q 1106 984 1337 693 
Q 1569 403 1972 403 
Q 2391 403 2603 679 
Q 2816 956 2816 1497 
Q 2816 2041 2603 2316 
Q 2391 2591 1972 2591 
z
" transform="scale(0.015625)"/>
       </defs>
       <use xlink:href="#DejaVuSansMono-36"/>
       <use xlink:href="#DejaVuSansMono-30" x="60.205078"/>
       <use xlink:href="#DejaVuSansMono-30" x="120.410156"/>
      </g>
     </g>
    </g>
    <g id="xtick_4">
     <g id="line2d_4">
      <g>
       <use xlink:href="#m0cb15352aa" x="696.4184" y="404.12" style="stroke: #000000; stroke-width: 0.8"/>
      </g>
     </g>
     <g id="text_4">
      <!-- 800 -->
      <g transform="translate(687.387931 418.771563) scale(0.1 -0.1)">
       <defs>
        <path id="DejaVuSansMono-38" d="M 1925 2216 
Q 1503 2216 1273 1980 
Q 1044 1744 1044 1313 
Q 1044 881 1276 642 
Q 1509 403 1925 403 
Q 2350 403 2579 639 
Q 2809 875 2809 1313 
Q 2809 1741 2576 1978 
Q 2344 2216 1925 2216 
z
M 1375 2478 
Q 972 2581 745 2862 
Q 519 3144 519 3541 
Q 519 4097 897 4423 
Q 1275 4750 1925 4750 
Q 2578 4750 2956 4423 
Q 3334 4097 3334 3541 
Q 3334 3144 3107 2862 
Q 2881 2581 2478 2478 
Q 2947 2375 3195 2062 
Q 3444 1750 3444 1253 
Q 3444 622 3041 265 
Q 2638 -91 1925 -91 
Q 1213 -91 811 264 
Q 409 619 409 1247 
Q 409 1747 657 2061 
Q 906 2375 1375 2478 
z
M 1147 3481 
Q 1147 3106 1347 2909 
Q 1547 2713 1925 2713 
Q 2306 2713 2506 2909 
Q 2706 3106 2706 3481 
Q 2706 3863 2507 4063 
Q 2309 4263 1925 4263 
Q 1547 4263 1347 4061 
Q 1147 3859 1147 3481 
z
" transform="scale(0.015625)"/>
       </defs>
       <use xlink:href="#DejaVuSansMono-38"/>
       <use xlink:href="#DejaVuSansMono-30" x="60.205078"/>
       <use xlink:href="#DejaVuSansMono-30" x="120.410156"/>
      </g>
     </g>
    </g>
   </g>
   <g id="matplotlib.axis_2">
    <g id="ytick_1">
     <g id="line2d_5">
      <defs>
       <path id="md15170d6a8" d="M 0 0 
L -3.5 0 
" style="stroke: #000000; stroke-width: 0.8"/>
      </defs>
      <g>
       <use xlink:href="#md15170d6a8" x="47.95" y="361.962369" style="stroke: #000000; stroke-width: 0.8"/>
      </g>
     </g>
     <g id="text_5">
      <!-- 0.075 -->
      <g transform="translate(10.848438 365.78815) scale(0.1 -0.1)">
       <defs>
        <path id="DejaVuSansMono-2e" d="M 1528 953 
L 2316 953 
L 2316 0 
L 1528 0 
L 1528 953 
z
" transform="scale(0.015625)"/>
        <path id="DejaVuSansMono-37" d="M 434 4666 
L 3372 4666 
L 3372 4397 
L 1703 0 
L 1044 0 
L 2669 4134 
L 434 4134 
L 434 4666 
z
" transform="scale(0.015625)"/>
        <path id="DejaVuSansMono-35" d="M 647 4666 
L 3009 4666 
L 3009 4134 
L 1222 4134 
L 1222 2988 
Q 1356 3038 1492 3061 
Q 1628 3084 1766 3084 
Q 2491 3084 2916 2656 
Q 3341 2228 3341 1497 
Q 3341 759 2895 334 
Q 2450 -91 1678 -91 
Q 1306 -91 998 -41 
Q 691 9 447 109 
L 447 750 
Q 734 594 1025 517 
Q 1316 441 1619 441 
Q 2141 441 2423 716 
Q 2706 991 2706 1497 
Q 2706 1997 2414 2275 
Q 2122 2553 1600 2553 
Q 1347 2553 1106 2495 
Q 866 2438 647 2322 
L 647 4666 
z
" transform="scale(0.015625)"/>
       </defs>
       <use xlink:href="#DejaVuSansMono-30"/>
       <use xlink:href="#DejaVuSansMono-2e" x="60.205078"/>
       <use xlink:href="#DejaVuSansMono-30" x="120.410156"/>
       <use xlink:href="#DejaVuSansMono-37" x="180.615234"/>
       <use xlink:href="#DejaVuSansMono-35" x="240.820312"/>
      </g>
     </g>
    </g>
    <g id="ytick_2">
     <g id="line2d_6">
      <g>
       <use xlink:href="#md15170d6a8" x="47.95" y="315.826135" style="stroke: #000000; stroke-width: 0.8"/>
      </g>
     </g>
     <g id="text_6">
      <!-- 0.100 -->
      <g transform="translate(10.848438 319.651916) scale(0.1 -0.1)">
       <defs>
        <path id="DejaVuSansMono-31" d="M 844 531 
L 1825 531 
L 1825 4097 
L 769 3859 
L 769 4434 
L 1819 4666 
L 2450 4666 
L 2450 531 
L 3419 531 
L 3419 0 
L 844 0 
L 844 531 
z
" transform="scale(0.015625)"/>
       </defs>
       <use xlink:href="#DejaVuSansMono-30"/>
       <use xlink:href="#DejaVuSansMono-2e" x="60.205078"/>
       <use xlink:href="#DejaVuSansMono-31" x="120.410156"/>
       <use xlink:href="#DejaVuSansMono-30" x="180.615234"/>
       <use xlink:href="#DejaVuSansMono-30" x="240.820312"/>
      </g>
     </g>
    </g>
    <g id="ytick_3">
     <g id="line2d_7">
      <g>
       <use xlink:href="#md15170d6a8" x="47.95" y="269.689902" style="stroke: #000000; stroke-width: 0.8"/>
      </g>
     </g>
     <g id="text_7">
      <!-- 0.125 -->
      <g transform="translate(10.848438 273.515683) scale(0.1 -0.1)">
       <use xlink:href="#DejaVuSansMono-30"/>
       <use xlink:href="#DejaVuSansMono-2e" x="60.205078"/>
       <use xlink:href="#DejaVuSansMono-31" x="120.410156"/>
       <use xlink:href="#DejaVuSansMono-32" x="180.615234"/>
       <use xlink:href="#DejaVuSansMono-35" x="240.820312"/>
      </g>
     </g>
    </g>
    <g id="ytick_4">
     <g id="line2d_8">
      <g>
       <use xlink:href="#md15170d6a8" x="47.95" y="223.553668" style="stroke: #000000; stroke-width: 0.8"/>
      </g>
     </g>
     <g id="text_8">
      <!-- 0.150 -->
      <g transform="translate(10.848438 227.379449) scale(0.1 -0.1)">
       <use xlink:href="#DejaVuSansMono-30"/>
       <use xlink:href="#DejaVuSansMono-2e" x="60.205078"/>
       <use xlink:href="#DejaVuSansMono-31" x="120.410156"/>
       <use xlink:href="#DejaVuSansMono-35" x="180.615234"/>
       <use xlink:href="#DejaVuSansMono-30" x="240.820312"/>
      </g>
     </g>
    </g>
    <g id="ytick_5">
     <g id="line2d_9">
      <g>
       <use xlink:href="#md15170d6a8" x="47.95" y="177.417435" style="stroke: #000000; stroke-width: 0.8"/>
      </g>
     </g>
     <g id="text_9">
      <!-- 0.175 -->
      <g transform="translate(10.848438 181.243216) scale(0.1 -0.1)">
       <use xlink:href="#DejaVuSansMono-30"/>
       <use xlink:href="#DejaVuSansMono-2e" x="60.205078"/>
       <use xlink:href="#DejaVuSansMono-31" x="120.410156"/>
       <use xlink:href="#DejaVuSansMono-37" x="180.615234"/>
       <use xlink:href="#DejaVuSansMono-35" x="240.820312"/>
      </g>
     </g>
    </g>
    <g id="ytick_6">
     <g id="line2d_10">
      <g>
       <use xlink:href="#md15170d6a8" x="47.95" y="131.281201" style="stroke: #000000; stroke-width: 0.8"/>
      </g>
     </g>
     <g id="text_10">
      <!-- 0.200 -->
      <g transform="translate(10.848438 135.106983) scale(0.1 -0.1)">
       <use xlink:href="#DejaVuSansMono-30"/>
       <use xlink:href="#DejaVuSansMono-2e" x="60.205078"/>
       <use xlink:href="#DejaVuSansMono-32" x="120.410156"/>
       <use xlink:href="#DejaVuSansMono-30" x="180.615234"/>
       <use xlink:href="#DejaVuSansMono-30" x="240.820312"/>
      </g>
     </g>
    </g>
    <g id="ytick_7">
     <g id="line2d_11">
      <g>
       <use xlink:href="#md15170d6a8" x="47.95" y="85.144968" style="stroke: #000000; stroke-width: 0.8"/>
      </g>
     </g>
     <g id="text_11">
      <!-- 0.225 -->
      <g transform="translate(10.848438 88.970749) scale(0.1 -0.1)">
       <use xlink:href="#DejaVuSansMono-30"/>
       <use xlink:href="#DejaVuSansMono-2e" x="60.205078"/>
       <use xlink:href="#DejaVuSansMono-32" x="120.410156"/>
       <use xlink:href="#DejaVuSansMono-32" x="180.615234"/>
       <use xlink:href="#DejaVuSansMono-35" x="240.820312"/>
      </g>
     </g>
    </g>
    <g id="ytick_8">
     <g id="line2d_12">
      <g>
       <use xlink:href="#md15170d6a8" x="47.95" y="39.008734" style="stroke: #000000; stroke-width: 0.8"/>
      </g>
     </g>
     <g id="text_12">
      <!-- 0.250 -->
      <g transform="translate(10.848438 42.834516) scale(0.1 -0.1)">
       <use xlink:href="#DejaVuSansMono-30"/>
       <use xlink:href="#DejaVuSansMono-2e" x="60.205078"/>
       <use xlink:href="#DejaVuSansMono-32" x="120.410156"/>
       <use xlink:href="#DejaVuSansMono-35" x="180.615234"/>
       <use xlink:href="#DejaVuSansMono-30" x="240.820312"/>
      </g>
     </g>
    </g>
   </g>
   <g id="line2d_13">
    <path d="M 39.741539 100.803305 
L 40.562385 88.692047 
L 41.383231 92.895145 
L 42.204077 95.234189 
L 43.024924 66.075326 
L 43.84577 62.593415 
L 44.666616 59.647579 
L 45.487462 70.978302 
L 46.308308 75.0327 
L 47.129154 70.007352 
L 47.95 106.037554 
L 48.770846 114.670457 
L 49.591692 132.097626 
L 50.412538 138.608169 
L 51.233384 159.514653 
L 52.05423 153.108025 
L 52.875076 183.016893 
L 53.695923 187.726454 
L 54.516769 185.975409 
L 55.337615 187.443346 
L 56.158461 167.616205 
L 56.979307 155.097986 
L 57.800153 133.495895 
L 58.620999 127.772279 
L 59.441845 111.393236 
L 60.262691 136.03066 
L 61.904383 80.137525 
L 62.725229 94.464645 
L 63.546075 112.743997 
L 64.366922 82.316845 
L 65.187768 133.303588 
L 66.008614 156.896549 
L 66.82946 149.789573 
L 67.650306 143.708138 
L 68.471152 147.378776 
L 69.291998 146.622393 
L 70.112844 151.01264 
L 70.93369 151.526111 
L 71.754536 129.553483 
L 72.575382 151.756946 
L 73.396228 111.419259 
L 74.217074 89.888297 
L 75.03792 123.81061 
L 75.858767 128.476241 
L 76.679613 119.639086 
L 77.500459 139.274933 
L 78.321305 139.045858 
L 79.142151 119.44992 
L 79.962997 123.861562 
L 80.783843 116.156811 
L 81.604689 124.580711 
L 82.425535 143.039801 
L 83.246381 121.829431 
L 84.888073 133.611446 
L 85.708919 128.090318 
L 86.529766 164.664031 
L 87.350612 176.18057 
L 88.171458 172.555783 
L 88.992304 160.625332 
L 89.81315 177.550701 
L 90.633996 177.377829 
L 91.454842 176.381773 
L 92.275688 184.928845 
L 93.096534 174.587606 
L 93.91738 158.671074 
L 94.738226 130.282061 
L 95.559072 113.46324 
L 96.379918 110.083291 
L 97.200765 112.727842 
L 98.021611 74.768827 
L 98.842457 73.269849 
L 99.663303 56.622973 
L 100.484149 49.278412 
L 101.304995 56.798887 
L 102.125841 84.184247 
L 102.946687 82.926449 
L 103.767533 109.821863 
L 104.588379 148.486323 
L 105.409225 144.487886 
L 106.230071 194.889874 
L 107.050917 182.509556 
L 107.871764 199.903974 
L 108.69261 199.656037 
L 109.513456 212.768439 
L 110.334302 210.314958 
L 111.155148 211.965837 
L 111.975994 225.241537 
L 112.79684 194.940028 
L 113.617686 203.505337 
L 114.438532 206.050784 
L 115.259378 251.566352 
L 116.080224 250.64744 
L 116.90107 265.417048 
L 117.721916 233.924927 
L 118.542762 221.251129 
L 119.363609 242.000563 
L 120.184455 240.341218 
L 121.005301 244.545372 
L 121.826147 268.667896 
L 122.646993 268.667896 
L 123.467839 220.262664 
L 124.288685 251.883691 
L 125.109531 244.124222 
L 125.930377 271.124701 
L 126.751223 253.197225 
L 127.572069 225.863613 
L 128.392915 188.757247 
L 129.213761 183.364352 
L 130.034608 158.193825 
L 130.855454 111.763728 
L 131.6763 126.259642 
L 132.497146 79.923354 
L 133.317992 96.005595 
L 134.138838 84.744741 
L 134.959684 93.581087 
L 135.78053 123.359477 
L 136.601376 120.374649 
L 137.422222 148.08461 
L 138.243068 149.126395 
L 139.063914 146.910757 
L 139.88476 136.172103 
L 140.705607 160.501625 
L 141.526453 143.915758 
L 142.347299 148.550018 
L 143.168145 153.948064 
L 143.988991 131.155628 
L 144.809837 182.990588 
L 145.630683 152.392982 
L 146.451529 161.075296 
L 147.272375 209.721031 
L 148.093221 241.927773 
L 148.914067 223.295729 
L 149.734913 219.571666 
L 150.555759 192.975825 
L 151.376606 185.606109 
L 152.197452 227.165826 
L 153.018298 191.521632 
L 153.839144 226.335684 
L 154.65999 230.740806 
L 155.480836 180.203886 
L 156.301682 146.845642 
L 157.122528 164.783161 
L 157.943374 175.697607 
L 158.76422 181.533758 
L 159.585066 181.533758 
L 160.405912 129.217285 
L 161.226758 117.803935 
L 162.047604 86.671123 
L 162.868451 74.274155 
L 163.689297 72.968261 
L 164.510143 70.295488 
L 165.330989 44.453339 
L 166.151835 28.678182 
L 166.972681 49.560778 
L 167.793527 57.017658 
L 168.614373 98.542031 
L 169.435219 118.08388 
L 171.076911 189.106599 
L 171.897757 203.145061 
L 172.718603 220.386626 
L 173.53945 224.825475 
L 175.181142 249.00906 
L 176.001988 252.751896 
L 176.822834 235.422865 
L 177.64368 233.047481 
L 178.464526 188.424085 
L 179.285372 150.913926 
L 180.106218 160.326752 
L 180.927064 167.324261 
L 181.74791 182.278409 
L 182.568756 168.780155 
L 183.389602 137.484384 
L 184.210449 140.210987 
L 185.031295 158.554903 
L 185.852141 167.731754 
L 186.672987 173.698835 
L 187.493833 166.338437 
L 188.314679 143.19666 
L 189.135525 131.634478 
L 189.956371 155.927784 
L 190.777217 161.452621 
L 191.598063 153.11084 
L 192.418909 135.910031 
L 193.239755 96.033903 
L 194.060601 101.813861 
L 194.881448 95.255599 
L 195.702294 95.718792 
L 196.52314 123.976155 
L 197.343986 115.362301 
L 198.164832 97.364187 
L 198.985678 92.38447 
L 199.806524 108.593325 
L 200.62737 148.000852 
L 201.448216 154.902471 
L 202.269062 114.473259 
L 203.089908 123.531464 
L 203.910754 169.614959 
L 204.7316 154.989252 
L 205.552446 147.257192 
L 206.373293 119.668808 
L 207.194139 146.633153 
L 208.014985 157.591851 
L 208.835831 147.756214 
L 209.656677 145.683075 
L 210.477523 171.862706 
L 211.298369 162.090574 
L 212.119215 128.240729 
L 212.940061 161.410455 
L 213.760907 172.541739 
L 214.581753 194.417009 
L 215.402599 160.349499 
L 217.044292 108.221051 
L 217.865138 98.96228 
L 218.685984 81.553106 
L 219.50683 97.516942 
L 220.327676 91.882102 
L 221.148522 64.350923 
L 221.969368 74.292739 
L 222.790214 97.978776 
L 223.61106 108.204924 
L 224.431906 124.806844 
L 225.252752 119.848922 
L 226.073598 121.431003 
L 226.894444 168.024028 
L 227.715291 192.956572 
L 228.536137 193.605157 
L 229.356983 225.868258 
L 230.177829 204.702655 
L 230.998675 198.514213 
L 231.819521 206.613417 
L 233.461213 209.360768 
L 234.282059 247.265549 
L 235.102905 195.746749 
L 235.923751 160.863254 
L 236.744597 204.653579 
L 237.565443 181.247878 
L 238.38629 201.020977 
L 239.207136 214.690971 
L 240.027982 197.600251 
L 240.848828 190.462149 
L 242.49052 214.034238 
L 243.311366 260.910399 
L 244.132212 262.280784 
L 244.953058 243.189929 
L 245.773904 253.334917 
L 246.59475 238.476373 
L 247.415596 203.903402 
L 248.236442 209.593815 
L 249.057288 216.249409 
L 249.878135 228.122226 
L 250.698981 202.270607 
L 251.519827 206.913247 
L 252.340673 247.205279 
L 253.161519 230.577761 
L 253.982365 193.414104 
L 254.803211 218.206707 
L 255.624057 213.592356 
L 256.444903 256.015445 
L 257.265749 230.165743 
L 258.086595 251.764208 
L 258.907441 247.35868 
L 259.728287 206.348691 
L 260.549134 208.167184 
L 261.36998 193.790679 
L 262.190826 224.410228 
L 263.011672 226.636899 
L 263.832518 218.923296 
L 264.653364 193.30397 
L 265.47421 197.644399 
L 266.295056 170.217212 
L 267.115902 172.236698 
L 267.936748 168.619886 
L 268.757594 117.148256 
L 269.57844 120.749256 
L 270.399286 133.501405 
L 271.220133 102.174052 
L 272.040979 94.973856 
L 272.861825 113.58013 
L 273.682671 146.659634 
L 274.503517 161.454102 
L 275.324363 142.202176 
L 276.145209 150.242809 
L 276.966055 153.004314 
L 277.786901 199.498193 
L 278.607747 170.990709 
L 279.428593 212.011977 
L 280.249439 219.528937 
L 281.070285 194.761604 
L 281.891131 204.826092 
L 282.711978 174.748694 
L 283.532824 180.155441 
L 284.35367 174.306142 
L 285.174516 206.936064 
L 285.995362 154.389823 
L 286.816208 172.466776 
L 287.637054 130.345678 
L 288.4579 123.828098 
L 289.278746 109.323479 
L 290.099592 67.326105 
L 290.920438 116.829286 
L 291.741284 133.290403 
L 292.56213 142.673045 
L 293.382977 144.882159 
L 294.203823 165.971877 
L 295.024669 138.189342 
L 295.845515 150.339987 
L 296.666361 151.769144 
L 297.487207 154.752278 
L 298.308053 199.834924 
L 299.128899 151.341365 
L 299.949745 177.000753 
L 300.770591 194.944636 
L 301.591437 161.228442 
L 302.412283 149.587645 
L 303.233129 194.853384 
L 304.053976 193.057009 
L 304.874822 195.799512 
L 305.695668 192.225687 
L 306.516514 164.16203 
L 307.33736 171.559448 
L 308.158206 137.787964 
L 308.979052 139.556308 
L 310.620744 130.685159 
L 311.44159 94.129934 
L 312.262436 97.321276 
L 313.083282 136.966076 
L 313.904128 183.950115 
L 314.724975 196.1893 
L 315.545821 198.155569 
L 316.366667 213.848084 
L 317.187513 179.190446 
L 318.008359 182.785511 
L 318.829205 201.166484 
L 319.650051 208.143077 
L 320.470897 233.937913 
L 321.291743 196.729313 
L 322.112589 171.917335 
L 322.933435 173.898749 
L 323.754281 171.018394 
L 324.575127 163.520657 
L 325.395973 173.295992 
L 326.21682 184.905676 
L 327.037666 179.523968 
L 327.858512 177.308343 
L 328.679358 182.061341 
L 329.500204 185.353859 
L 330.32105 165.031848 
L 331.141896 167.012779 
L 331.962742 174.848017 
L 332.783588 162.54049 
L 333.604434 153.765531 
L 335.246126 171.056273 
L 336.066972 158.559746 
L 336.887819 113.482589 
L 337.708665 146.077921 
L 338.529511 193.739923 
L 339.350357 186.032374 
L 340.171203 170.171256 
L 340.992049 210.673147 
L 341.812895 233.524941 
L 342.633741 219.21618 
L 343.454587 217.846223 
L 344.275433 225.147605 
L 345.096279 225.308746 
L 345.917125 191.199578 
L 346.737971 150.587747 
L 347.558818 146.882794 
L 348.379664 154.303831 
L 349.20051 142.174119 
L 350.021356 143.009244 
L 350.842202 187.571275 
L 351.663048 199.443639 
L 352.483894 227.592565 
L 353.30474 269.547818 
L 354.125586 268.34753 
L 354.946432 264.317823 
L 355.767278 242.12173 
L 356.588124 242.881245 
L 357.40897 226.39934 
L 358.229817 217.44718 
L 359.050663 171.22841 
L 359.871509 151.718075 
L 360.692355 138.413159 
L 361.513201 102.861088 
L 362.334047 118.769271 
L 363.154893 156.659165 
L 363.975739 166.899437 
L 364.796585 202.241642 
L 365.617431 209.239889 
L 366.438277 221.870551 
L 367.259123 237.61401 
L 368.079969 222.403986 
L 368.900815 230.034608 
L 369.721662 227.383287 
L 370.542508 230.162645 
L 371.363354 186.303302 
L 372.1842 195.408052 
L 373.005046 166.165822 
L 373.825892 182.723167 
L 374.646738 177.885559 
L 375.467584 181.679676 
L 377.109276 196.850998 
L 377.930122 197.967917 
L 378.750968 177.592395 
L 379.571814 201.568031 
L 380.392661 186.683054 
L 381.213507 168.494734 
L 382.034353 121.507294 
L 382.855199 102.889758 
L 383.676045 114.382071 
L 384.496891 132.927366 
L 385.317737 104.739909 
L 386.138583 140.545599 
L 386.959429 141.868202 
L 387.780275 126.344578 
L 388.601121 126.159953 
L 389.421967 151.244975 
L 390.242813 149.588074 
L 391.06366 172.616427 
L 391.884506 158.170355 
L 392.705352 133.866974 
L 393.526198 116.148762 
L 394.347044 116.148762 
L 395.16789 147.320685 
L 395.988736 156.87866 
L 396.809582 200.788248 
L 397.630428 179.053866 
L 398.451274 199.746196 
L 399.27212 185.763157 
L 400.092966 194.18605 
L 400.913812 216.505866 
L 401.734659 235.257942 
L 402.555505 208.356568 
L 403.376351 215.983957 
L 404.197197 199.456954 
L 405.018043 152.996902 
L 405.838889 153.094085 
L 407.480581 206.037894 
L 408.301427 182.464992 
L 409.122273 173.349816 
L 409.943119 173.507525 
L 410.763965 162.346388 
L 411.584811 121.389158 
L 412.405657 139.220067 
L 413.226504 161.003904 
L 414.04735 178.974821 
L 414.868196 156.598311 
L 415.689042 117.204219 
L 416.509888 161.989181 
L 417.330734 148.432626 
L 418.15158 147.57267 
L 418.972426 177.142049 
L 419.793272 183.278266 
L 420.614118 180.651658 
L 421.434964 163.751577 
L 422.25581 171.253696 
L 423.076656 146.572017 
L 423.897503 181.344595 
L 424.718349 178.689272 
L 425.539195 225.314313 
L 426.360041 230.737576 
L 427.180887 247.281231 
L 428.001733 237.557831 
L 428.822579 244.081845 
L 429.643425 278.678629 
L 430.464271 251.233011 
L 431.285117 256.405928 
L 432.105963 222.383879 
L 432.926809 213.284747 
L 433.747655 172.878907 
L 434.568502 154.133287 
L 435.389348 116.983065 
L 436.210194 169.00903 
L 437.851886 127.410408 
L 438.672732 158.438164 
L 439.493578 153.981132 
L 440.314424 163.956165 
L 441.13527 124.666277 
L 441.956116 131.763119 
L 442.776962 156.093026 
L 443.597808 146.539171 
L 444.418654 132.932171 
L 445.239501 140.541799 
L 446.881193 122.77815 
L 447.702039 137.874137 
L 448.522885 125.12193 
L 449.343731 176.166273 
L 450.164577 176.091615 
L 451.806269 226.571671 
L 452.627115 227.377868 
L 453.447961 267.126005 
L 454.268807 269.984319 
L 455.089653 248.761705 
L 455.910499 249.93013 
L 456.731346 248.195059 
L 457.552192 198.509888 
L 458.373038 199.287574 
L 459.193884 176.219458 
L 460.835576 120.139283 
L 461.656422 75.791274 
L 462.477268 95.093593 
L 463.298114 117.945521 
L 464.11896 150.292012 
L 464.939806 156.005825 
L 465.760652 179.327433 
L 466.581498 167.684573 
L 467.402345 158.286452 
L 468.223191 177.182003 
L 469.044037 171.812755 
L 469.864883 188.820774 
L 470.685729 184.257253 
L 471.506575 191.095431 
L 472.327421 147.736093 
L 473.148267 161.469312 
L 473.969113 153.189058 
L 474.789959 149.119359 
L 475.610805 173.787924 
L 476.431651 155.28294 
L 477.252497 160.25335 
L 478.073344 131.034544 
L 478.89419 107.74123 
L 479.715036 95.523862 
L 480.535882 138.740694 
L 481.356728 159.810081 
L 482.177574 140.346487 
L 482.99842 171.308558 
L 483.819266 144.466728 
L 484.640112 168.625661 
L 485.460958 163.930543 
L 486.281804 168.829209 
L 487.10265 169.004896 
L 487.923496 170.586207 
L 488.744343 148.996587 
L 489.565189 150.494519 
L 490.386035 156.172643 
L 491.206881 156.648765 
L 492.027727 165.885323 
L 492.848573 190.491316 
L 493.669419 208.286289 
L 494.490265 210.498968 
L 495.311111 216.862983 
L 496.131957 195.263749 
L 496.952803 188.732238 
L 497.773649 154.583618 
L 498.594495 171.285981 
L 499.415341 143.177457 
L 500.236188 121.682069 
L 501.057034 84.240743 
L 501.87788 59.192171 
L 502.698726 101.003279 
L 503.519572 117.659733 
L 504.340418 127.092954 
L 505.161264 111.183911 
L 505.98211 103.227511 
L 506.802956 93.124251 
L 507.623802 112.860991 
L 508.444648 154.838127 
L 509.265494 150.38388 
L 510.08634 152.910008 
L 510.907187 160.54635 
L 511.728033 134.310103 
L 512.548879 143.636451 
L 513.369725 161.354756 
L 515.011417 244.243237 
L 515.832263 258.024731 
L 516.653109 262.945929 
L 517.473955 304.751625 
L 518.294801 327.937827 
L 519.115647 314.267833 
L 519.936493 317.101893 
L 520.757339 299.139391 
L 521.578186 292.332037 
L 522.399032 271.878423 
L 523.219878 266.847515 
L 524.040724 280.863587 
L 524.86157 278.264363 
L 525.682416 263.774585 
L 526.503262 290.071801 
L 527.324108 290.071801 
L 528.9658 380.543535 
L 529.786646 368.213464 
L 530.607492 386.241818 
L 531.428338 347.314588 
L 532.249185 302.576423 
L 533.070031 298.848393 
L 534.711723 238.756177 
L 535.532569 205.073697 
L 536.353415 163.021052 
L 537.174261 169.856048 
L 537.995107 183.985431 
L 538.815953 193.046583 
L 539.636799 187.824739 
L 542.099337 169.432038 
L 542.920183 152.154059 
L 543.74103 151.5629 
L 544.561876 166.53872 
L 545.382722 117.916101 
L 546.203568 144.490571 
L 547.024414 138.551194 
L 547.84526 156.979837 
L 548.666106 168.755339 
L 549.486952 136.35403 
L 550.307798 156.135813 
L 551.128644 172.121728 
L 551.94949 179.201843 
L 552.770336 205.563437 
L 553.591182 245.749718 
L 554.412029 218.66398 
L 555.232875 176.412889 
L 556.053721 165.416069 
L 556.874567 159.452309 
L 557.695413 200.902474 
L 558.516259 226.738766 
L 559.337105 210.274004 
L 560.157951 209.013138 
L 560.978797 168.038994 
L 561.799643 176.475333 
L 562.620489 188.907652 
L 563.441335 211.020271 
L 564.262181 222.050577 
L 565.083028 224.42616 
L 565.903874 177.80896 
L 566.72472 170.218639 
L 567.545566 170.275271 
L 568.366412 158.873636 
L 569.187258 168.933424 
L 570.008104 149.224742 
L 570.82895 168.967476 
L 571.649796 146.115334 
L 572.470642 126.642285 
L 573.291488 134.462211 
L 574.112334 185.371153 
L 574.93318 166.211594 
L 575.754027 204.454769 
L 576.574873 207.906096 
L 577.395719 209.454782 
L 578.216565 212.759471 
L 579.037411 184.177517 
L 579.858257 188.721271 
L 580.679103 241.263063 
L 581.499949 273.76134 
L 582.320795 222.665838 
L 583.962487 178.865478 
L 584.783333 208.623299 
L 585.604179 208.151163 
L 586.425025 173.112321 
L 588.066718 220.721723 
L 588.887564 213.844272 
L 589.70841 177.693901 
L 590.529256 192.109668 
L 591.350102 185.362342 
L 592.170948 191.337299 
L 592.991794 176.063365 
L 593.81264 176.729325 
L 594.633486 210.079523 
L 595.454332 163.693965 
L 596.275178 140.296255 
L 597.096024 103.129567 
L 598.737717 175.941239 
L 599.558563 235.359114 
L 600.379409 213.451392 
L 601.200255 195.771493 
L 602.021101 225.31206 
L 603.662793 237.018857 
L 604.483639 234.782588 
L 605.304485 228.961237 
L 606.125331 183.233289 
L 606.946177 185.850948 
L 607.767023 150.884538 
L 608.58787 152.019601 
L 609.408716 183.685046 
L 610.229562 147.162392 
L 611.050408 130.452153 
L 611.871254 166.323905 
L 613.512946 258.808724 
L 614.333792 267.543611 
L 615.154638 264.869047 
L 615.975484 245.123318 
L 616.79633 253.272543 
L 617.617176 236.067925 
L 618.438022 245.054915 
L 619.258869 220.793544 
L 620.079715 223.524894 
L 620.900561 196.682127 
L 621.721407 151.460337 
L 622.542253 188.453398 
L 623.363099 138.741014 
L 624.183945 170.897661 
L 625.004791 213.873879 
L 625.825637 205.433125 
L 626.646483 186.20415 
L 627.467329 213.077174 
L 628.288175 173.259102 
L 629.109021 149.284885 
L 629.929867 151.991259 
L 630.750714 107.296786 
L 631.57156 152.099697 
L 632.392406 165.191347 
L 633.213252 122.063997 
L 634.034098 127.255551 
L 634.854944 173.791934 
L 635.67579 200.473128 
L 637.317482 269.180266 
L 638.138328 265.135168 
L 638.959174 295.901722 
L 639.78002 289.444299 
L 640.600866 263.582709 
L 641.421713 260.905742 
L 642.242559 260.377529 
L 643.063405 262.781501 
L 643.884251 228.44756 
L 645.525943 182.509068 
L 646.346789 192.944674 
L 647.167635 182.163647 
L 647.988481 144.491964 
L 648.809327 136.880766 
L 649.630173 133.660929 
L 650.451019 167.24603 
L 651.271865 138.847733 
L 652.092712 120.601834 
L 652.913558 98.898958 
L 653.734404 94.127548 
L 654.55525 127.497571 
L 655.376096 147.080271 
L 656.196942 155.675442 
L 657.017788 148.067915 
L 657.838634 164.227901 
L 658.65948 135.95747 
L 659.480326 156.777574 
L 660.301172 195.315953 
L 661.122018 249.995934 
L 661.942864 265.605576 
L 662.76371 242.628801 
L 663.584557 247.755048 
L 664.405403 256.135153 
L 665.226249 258.658547 
L 666.047095 277.681845 
L 666.867941 300.988906 
L 667.688787 278.654801 
L 668.509633 292.696262 
L 669.330479 273.572436 
L 670.151325 307.429232 
L 670.972171 330.640457 
L 671.793017 278.258705 
L 672.613863 280.718752 
L 673.434709 285.394445 
L 674.255556 296.579992 
L 675.076402 305.93193 
L 675.897248 326.555762 
L 676.718094 281.101345 
L 677.53894 283.543141 
L 678.359786 238.76523 
L 679.180632 235.038191 
L 680.001478 251.387422 
L 680.822324 233.911724 
L 681.64317 267.853231 
L 682.464016 237.821628 
L 683.284862 199.261896 
L 684.105708 195.020339 
L 684.926555 237.8384 
L 685.747401 215.817913 
L 686.568247 263.251147 
L 687.389093 260.581894 
L 688.209939 243.693434 
L 689.030785 275.871244 
L 689.851631 255.021542 
L 690.672477 271.583185 
L 691.493323 314.756541 
L 692.314169 279.518959 
L 693.135015 228.261661 
L 693.955861 216.61152 
L 694.776707 211.555495 
L 695.597554 171.097702 
L 696.4184 171.233098 
L 697.239246 181.172464 
L 698.060092 168.198986 
L 698.880938 134.447262 
L 699.701784 89.389539 
L 700.52263 104.059056 
L 701.343476 110.787066 
L 702.164322 145.831849 
L 702.985168 150.887875 
L 703.806014 164.00724 
L 704.62686 216.792824 
L 705.447706 178.475289 
L 706.268552 174.798028 
L 707.089399 205.858688 
L 707.910245 248.565521 
L 708.731091 282.70022 
L 709.551937 276.889242 
L 710.372783 240.402667 
L 711.193629 191.936322 
L 712.014475 197.694339 
L 712.835321 165.169178 
L 713.656167 198.019274 
L 714.477013 244.923278 
L 715.297859 252.383015 
L 716.118705 213.723919 
L 716.939551 216.304967 
L 717.760398 223.62099 
L 718.581244 226.610163 
L 719.40209 275.076508 
L 720.222936 268.246267 
L 721.043782 282.767045 
L 721.864628 279.466833 
L 722.685474 272.756109 
L 723.50632 284.112719 
L 724.327166 274.426152 
L 725.148012 235.096901 
L 725.968858 226.329507 
L 726.789704 262.623263 
L 727.61055 244.667541 
L 728.431397 266.859221 
L 729.252243 233.111401 
L 730.073089 219.103496 
L 730.893935 225.81422 
L 731.714781 190.304115 
L 732.535627 199.697757 
L 733.356473 201.425359 
L 734.177319 253.307906 
L 734.998165 214.439101 
L 735.819011 184.383129 
L 736.639857 201.854839 
L 737.460703 222.525791 
L 738.281549 209.64269 
L 739.102396 184.725232 
L 739.923242 184.202816 
L 740.744088 174.06178 
L 741.564934 159.251566 
L 742.38578 117.472131 
L 744.027472 199.140281 
L 744.848318 199.140281 
L 745.669164 205.919319 
L 746.49001 203.971046 
L 747.310856 214.960584 
L 748.131702 201.535061 
L 748.952548 247.922982 
L 750.594241 292.483568 
L 751.415087 300.067606 
L 752.235933 265.178472 
L 753.056779 217.06497 
L 753.877625 233.985385 
L 754.698471 265.701804 
L 755.519317 226.73714 
L 756.340163 273.558827 
L 757.161009 228.858271 
L 757.981855 254.391607 
L 758.802701 228.173316 
L 759.623547 222.937999 
L 760.444393 263.520097 
L 761.26524 273.451887 
L 762.086086 255.735573 
L 762.906932 223.216129 
L 763.727778 276.108713 
L 764.548624 227.75968 
L 765.36947 253.412434 
L 766.190316 235.497005 
L 767.011162 283.533415 
L 767.832008 259.179246 
L 768.652854 208.322743 
L 769.4737 230.45707 
L 770.294546 248.073632 
L 771.115392 248.170988 
L 771.936239 193.16014 
L 772.757085 217.302631 
L 773.577931 231.942616 
L 774.398777 218.202936 
L 775.219623 173.06769 
L 776.040469 155.923491 
L 776.861315 168.530087 
L 777.682161 172.970873 
L 778.503007 130.440247 
L 779.323853 147.797716 
L 780.144699 150.025993 
L 780.965545 124.202451 
L 781.786391 116.006492 
L 782.607238 134.334344 
L 783.428084 123.243229 
L 785.069776 171.071883 
L 785.890622 155.589318 
L 786.711468 151.481319 
L 787.532314 161.801016 
L 788.35316 199.562487 
L 789.174006 226.440989 
L 789.994852 244.10079 
L 790.815698 221.835882 
L 791.636544 246.148457 
L 792.45739 211.501412 
L 793.278236 196.647348 
L 794.099083 189.329832 
L 794.919929 223.28964 
L 795.740775 236.250769 
L 796.561621 198.655284 
L 797.382467 182.720017 
L 798.203313 142.184136 
L 799.024159 155.201319 
L 799.845005 178.630282 
L 800.665851 235.265659 
L 801.486697 262.200748 
L 802.307543 279.215759 
L 803.128389 279.059254 
L 803.949235 264.858544 
L 804.770082 287.345344 
L 805.590928 281.62294 
L 806.411774 307.137721 
L 807.23262 300.803386 
L 808.053466 290.404543 
L 808.874312 290.404543 
L 809.695158 267.179499 
L 811.33685 203.320297 
L 812.157696 172.974754 
L 812.978542 186.752456 
L 813.799388 227.906761 
L 814.620234 195.810005 
L 816.261927 167.729401 
L 817.082773 138.952903 
L 817.903619 119.240924 
L 818.724465 170.848992 
L 819.545311 169.364727 
L 820.366157 166.214039 
L 821.187003 147.61443 
L 822.007849 138.151899 
L 822.828695 177.936843 
L 823.649541 182.412297 
L 824.470387 160.97714 
L 825.291233 142.683473 
L 826.11208 190.607495 
L 826.932926 181.143652 
L 827.753772 181.788127 
L 828.574618 181.759341 
L 830.21631 215.688057 
L 831.037156 180.370589 
L 831.858002 181.146046 
L 832.678848 235.111159 
L 833.499694 227.590811 
L 834.32054 182.817041 
L 835.141386 158.232003 
L 835.962232 167.396331 
L 836.783078 163.341465 
L 837.603925 152.729981 
L 838.424771 98.318696 
L 839.245617 105.324881 
L 840.066463 94.779028 
L 840.887309 71.437376 
L 842.529001 92.036079 
L 843.349847 123.62436 
L 844.170693 165.259499 
L 844.991539 167.670757 
L 845.812385 162.730014 
L 846.633231 217.141299 
L 847.454077 199.387074 
L 848.274924 247.651904 
L 849.916616 227.333022 
L 850.737462 218.978297 
L 851.558308 219.057672 
L 852.379154 197.86591 
L 852.379154 197.86591 
" clip-path="url(#p2585b300f2)" style="fill: none; stroke-dasharray: 7.4,3.2; stroke-dashoffset: 0; stroke: #000000; stroke-width: 2"/>
   </g>
   <g id="patch_3">
    <path d="M 47.95 404.12 
L 47.95 10.8 
" style="fill: none; stroke: #000000; stroke-width: 0.8; stroke-linejoin: miter; stroke-linecap: square"/>
   </g>
   <g id="patch_4">
    <path d="M 853.2 404.12 
L 853.2 10.8 
" style="fill: none; stroke: #000000; stroke-width: 0.8; stroke-linejoin: miter; stroke-linecap: square"/>
   </g>
   <g id="patch_5">
    <path d="M 47.95 404.12 
L 853.2 404.12 
" style="fill: none; stroke: #000000; stroke-width: 0.8; stroke-linejoin: miter; stroke-linecap: square"/>
   </g>
   <g id="patch_6">
    <path d="M 47.95 10.8 
L 853.2 10.8 
" style="fill: none; stroke: #000000; stroke-width: 0.8; stroke-linejoin: miter; stroke-linecap: square"/>
   </g>
  </g>
 </g>
 <defs>
  <clipPath id="p2585b300f2">
   <rect x="47.95" y="10.8" width="805.25" height="393.32"/>
  </clipPath>
 </defs>
</svg>
