<?xml version="1.0" encoding="utf-8" standalone="no"?>
<!DOCTYPE svg PUBLIC "-//W3C//DTD SVG 1.1//EN"
  "http://www.w3.org/Graphics/SVG/1.1/DTD/svg11.dtd">
<svg xmlns:xlink="http://www.w3.org/1999/xlink" width="864pt" height="432pt" viewBox="0 0 864 432" xmlns="http://www.w3.org/2000/svg" version="1.1">
 <metadata>
  <rdf:RDF xmlns:dc="http://purl.org/dc/elements/1.1/" xmlns:cc="http://creativecommons.org/ns#" xmlns:rdf="http://www.w3.org/1999/02/22-rdf-syntax-ns#">
   <cc:Work>
    <dc:type rdf:resource="http://purl.org/dc/dcmitype/StillImage"/>
    <dc:date>2024-09-18T17:51:26.494474</dc:date>
    <dc:format>image/svg+xml</dc:format>
    <dc:creator>
     <cc:Agent>
      <dc:title>Matplotlib v3.9.2, https://matplotlib.org/</dc:title>
     </cc:Agent>
    </dc:creator>
   </cc:Work>
  </rdf:RDF>
 </metadata>
 <defs>
  <style type="text/css">*{stroke-linejoin: round; stroke-linecap: butt}</style>
 </defs>
 <g id="figure_1">
  <g id="patch_1">
   <path d="M 0 432 
L 864 432 
L 864 0 
L 0 0 
z
" style="fill: #ffffff"/>
  </g>
  <g id="axes_1">
   <g id="patch_2">
    <path d="M 41.92 404.12 
L 853.2 404.12 
L 853.2 11.905412 
L 41.92 11.905412 
z
" style="fill: #ffffff"/>
   </g>
   <g id="matplotlib.axis_1">
    <g id="xtick_1">
     <g id="line2d_1">
      <defs>
       <path id="md527ed9052" d="M 0 0 
L 0 3.5 
" style="stroke: #000000; stroke-width: 0.8"/>
      </defs>
      <g>
       <use xlink:href="#md527ed9052" x="199.048644" y="404.12" style="stroke: #000000; stroke-width: 0.8"/>
      </g>
     </g>
     <g id="text_1">
      <!-- 200 -->
      <g transform="translate(190.018175 418.771563) scale(0.1 -0.1)">
       <defs>
        <path id="DejaVuSansMono-32" d="M 1166 531 
L 3309 531 
L 3309 0 
L 475 0 
L 475 531 
Q 1059 1147 1496 1619 
Q 1934 2091 2100 2284 
Q 2413 2666 2522 2902 
Q 2631 3138 2631 3384 
Q 2631 3775 2401 3997 
Q 2172 4219 1772 4219 
Q 1488 4219 1175 4116 
Q 863 4013 513 3803 
L 513 4441 
Q 834 4594 1145 4672 
Q 1456 4750 1759 4750 
Q 2444 4750 2861 4386 
Q 3278 4022 3278 3431 
Q 3278 3131 3139 2831 
Q 3000 2531 2688 2169 
Q 2513 1966 2180 1606 
Q 1847 1247 1166 531 
z
" transform="scale(0.015625)"/>
        <path id="DejaVuSansMono-30" d="M 1509 2344 
Q 1509 2516 1629 2641 
Q 1750 2766 1919 2766 
Q 2094 2766 2219 2641 
Q 2344 2516 2344 2344 
Q 2344 2169 2220 2047 
Q 2097 1925 1919 1925 
Q 1744 1925 1626 2044 
Q 1509 2163 1509 2344 
z
M 1925 4250 
Q 1484 4250 1267 3775 
Q 1050 3300 1050 2328 
Q 1050 1359 1267 884 
Q 1484 409 1925 409 
Q 2369 409 2586 884 
Q 2803 1359 2803 2328 
Q 2803 3300 2586 3775 
Q 2369 4250 1925 4250 
z
M 1925 4750 
Q 2672 4750 3055 4137 
Q 3438 3525 3438 2328 
Q 3438 1134 3055 521 
Q 2672 -91 1925 -91 
Q 1178 -91 797 521 
Q 416 1134 416 2328 
Q 416 3525 797 4137 
Q 1178 4750 1925 4750 
z
" transform="scale(0.015625)"/>
       </defs>
       <use xlink:href="#DejaVuSansMono-32"/>
       <use xlink:href="#DejaVuSansMono-30" x="60.205078"/>
       <use xlink:href="#DejaVuSansMono-30" x="120.410156"/>
      </g>
     </g>
    </g>
    <g id="xtick_2">
     <g id="line2d_2">
      <g>
       <use xlink:href="#md527ed9052" x="364.447217" y="404.12" style="stroke: #000000; stroke-width: 0.8"/>
      </g>
     </g>
     <g id="text_2">
      <!-- 400 -->
      <g transform="translate(355.416748 418.771563) scale(0.1 -0.1)">
       <defs>
        <path id="DejaVuSansMono-34" d="M 2297 4091 
L 825 1625 
L 2297 1625 
L 2297 4091 
z
M 2194 4666 
L 2925 4666 
L 2925 1625 
L 3547 1625 
L 3547 1113 
L 2925 1113 
L 2925 0 
L 2297 0 
L 2297 1113 
L 319 1113 
L 319 1709 
L 2194 4666 
z
" transform="scale(0.015625)"/>
       </defs>
       <use xlink:href="#DejaVuSansMono-34"/>
       <use xlink:href="#DejaVuSansMono-30" x="60.205078"/>
       <use xlink:href="#DejaVuSansMono-30" x="120.410156"/>
      </g>
     </g>
    </g>
    <g id="xtick_3">
     <g id="line2d_3">
      <g>
       <use xlink:href="#md527ed9052" x="529.84579" y="404.12" style="stroke: #000000; stroke-width: 0.8"/>
      </g>
     </g>
     <g id="text_3">
      <!-- 600 -->
      <g transform="translate(520.815321 418.771563) scale(0.1 -0.1)">
       <defs>
        <path id="DejaVuSansMono-36" d="M 3097 4563 
L 3097 3981 
Q 2900 4097 2678 4158 
Q 2456 4219 2216 4219 
Q 1616 4219 1306 3767 
Q 997 3316 997 2438 
Q 1147 2750 1412 2917 
Q 1678 3084 2022 3084 
Q 2697 3084 3067 2670 
Q 3438 2256 3438 1497 
Q 3438 741 3056 325 
Q 2675 -91 1984 -91 
Q 1172 -91 794 492 
Q 416 1075 416 2328 
Q 416 3509 870 4129 
Q 1325 4750 2188 4750 
Q 2419 4750 2650 4701 
Q 2881 4653 3097 4563 
z
M 1972 2591 
Q 1569 2591 1337 2300 
Q 1106 2009 1106 1497 
Q 1106 984 1337 693 
Q 1569 403 1972 403 
Q 2391 403 2603 679 
Q 2816 956 2816 1497 
Q 2816 2041 2603 2316 
Q 2391 2591 1972 2591 
z
" transform="scale(0.015625)"/>
       </defs>
       <use xlink:href="#DejaVuSansMono-36"/>
       <use xlink:href="#DejaVuSansMono-30" x="60.205078"/>
       <use xlink:href="#DejaVuSansMono-30" x="120.410156"/>
      </g>
     </g>
    </g>
    <g id="xtick_4">
     <g id="line2d_4">
      <g>
       <use xlink:href="#md527ed9052" x="695.244363" y="404.12" style="stroke: #000000; stroke-width: 0.8"/>
      </g>
     </g>
     <g id="text_4">
      <!-- 800 -->
      <g transform="translate(686.213894 418.771563) scale(0.1 -0.1)">
       <defs>
        <path id="DejaVuSansMono-38" d="M 1925 2216 
Q 1503 2216 1273 1980 
Q 1044 1744 1044 1313 
Q 1044 881 1276 642 
Q 1509 403 1925 403 
Q 2350 403 2579 639 
Q 2809 875 2809 1313 
Q 2809 1741 2576 1978 
Q 2344 2216 1925 2216 
z
M 1375 2478 
Q 972 2581 745 2862 
Q 519 3144 519 3541 
Q 519 4097 897 4423 
Q 1275 4750 1925 4750 
Q 2578 4750 2956 4423 
Q 3334 4097 3334 3541 
Q 3334 3144 3107 2862 
Q 2881 2581 2478 2478 
Q 2947 2375 3195 2062 
Q 3444 1750 3444 1253 
Q 3444 622 3041 265 
Q 2638 -91 1925 -91 
Q 1213 -91 811 264 
Q 409 619 409 1247 
Q 409 1747 657 2061 
Q 906 2375 1375 2478 
z
M 1147 3481 
Q 1147 3106 1347 2909 
Q 1547 2713 1925 2713 
Q 2306 2713 2506 2909 
Q 2706 3106 2706 3481 
Q 2706 3863 2507 4063 
Q 2309 4263 1925 4263 
Q 1547 4263 1347 4061 
Q 1147 3859 1147 3481 
z
" transform="scale(0.015625)"/>
       </defs>
       <use xlink:href="#DejaVuSansMono-38"/>
       <use xlink:href="#DejaVuSansMono-30" x="60.205078"/>
       <use xlink:href="#DejaVuSansMono-30" x="120.410156"/>
      </g>
     </g>
    </g>
   </g>
   <g id="matplotlib.axis_2">
    <g id="ytick_1">
     <g id="line2d_5">
      <defs>
       <path id="m7811352c54" d="M 0 0 
L -3.5 0 
" style="stroke: #000000; stroke-width: 0.8"/>
      </defs>
      <g>
       <use xlink:href="#m7811352c54" x="41.92" y="400.946026" style="stroke: #000000; stroke-width: 0.8"/>
      </g>
     </g>
     <g id="text_5">
      <!-- 0.07 -->
      <g transform="translate(10.83875 404.771807) scale(0.1 -0.1)">
       <defs>
        <path id="DejaVuSansMono-2e" d="M 1528 953 
L 2316 953 
L 2316 0 
L 1528 0 
L 1528 953 
z
" transform="scale(0.015625)"/>
        <path id="DejaVuSansMono-37" d="M 434 4666 
L 3372 4666 
L 3372 4397 
L 1703 0 
L 1044 0 
L 2669 4134 
L 434 4134 
L 434 4666 
z
" transform="scale(0.015625)"/>
       </defs>
       <use xlink:href="#DejaVuSansMono-30"/>
       <use xlink:href="#DejaVuSansMono-2e" x="60.205078"/>
       <use xlink:href="#DejaVuSansMono-30" x="120.410156"/>
       <use xlink:href="#DejaVuSansMono-37" x="180.615234"/>
      </g>
     </g>
    </g>
    <g id="ytick_2">
     <g id="line2d_6">
      <g>
       <use xlink:href="#m7811352c54" x="41.92" y="345.849629" style="stroke: #000000; stroke-width: 0.8"/>
      </g>
     </g>
     <g id="text_6">
      <!-- 0.08 -->
      <g transform="translate(10.83875 349.67541) scale(0.1 -0.1)">
       <use xlink:href="#DejaVuSansMono-30"/>
       <use xlink:href="#DejaVuSansMono-2e" x="60.205078"/>
       <use xlink:href="#DejaVuSansMono-30" x="120.410156"/>
       <use xlink:href="#DejaVuSansMono-38" x="180.615234"/>
      </g>
     </g>
    </g>
    <g id="ytick_3">
     <g id="line2d_7">
      <g>
       <use xlink:href="#m7811352c54" x="41.92" y="290.753232" style="stroke: #000000; stroke-width: 0.8"/>
      </g>
     </g>
     <g id="text_7">
      <!-- 0.09 -->
      <g transform="translate(10.83875 294.579013) scale(0.1 -0.1)">
       <defs>
        <path id="DejaVuSansMono-39" d="M 1863 2069 
Q 2266 2069 2495 2359 
Q 2725 2650 2725 3163 
Q 2725 3675 2495 3965 
Q 2266 4256 1863 4256 
Q 1444 4256 1231 3979 
Q 1019 3703 1019 3163 
Q 1019 2619 1230 2344 
Q 1441 2069 1863 2069 
z
M 738 97 
L 738 678 
Q 934 563 1156 502 
Q 1378 441 1619 441 
Q 2219 441 2526 892 
Q 2834 1344 2834 2222 
Q 2688 1909 2422 1742 
Q 2156 1575 1813 1575 
Q 1138 1575 767 1990 
Q 397 2406 397 3169 
Q 397 3922 776 4336 
Q 1156 4750 1850 4750 
Q 2663 4750 3041 4165 
Q 3419 3581 3419 2328 
Q 3419 1150 2964 529 
Q 2509 -91 1644 -91 
Q 1416 -91 1184 -42 
Q 953 6 738 97 
z
" transform="scale(0.015625)"/>
       </defs>
       <use xlink:href="#DejaVuSansMono-30"/>
       <use xlink:href="#DejaVuSansMono-2e" x="60.205078"/>
       <use xlink:href="#DejaVuSansMono-30" x="120.410156"/>
       <use xlink:href="#DejaVuSansMono-39" x="180.615234"/>
      </g>
     </g>
    </g>
    <g id="ytick_4">
     <g id="line2d_8">
      <g>
       <use xlink:href="#m7811352c54" x="41.92" y="235.656835" style="stroke: #000000; stroke-width: 0.8"/>
      </g>
     </g>
     <g id="text_8">
      <!-- 0.10 -->
      <g transform="translate(10.83875 239.482616) scale(0.1 -0.1)">
       <defs>
        <path id="DejaVuSansMono-31" d="M 844 531 
L 1825 531 
L 1825 4097 
L 769 3859 
L 769 4434 
L 1819 4666 
L 2450 4666 
L 2450 531 
L 3419 531 
L 3419 0 
L 844 0 
L 844 531 
z
" transform="scale(0.015625)"/>
       </defs>
       <use xlink:href="#DejaVuSansMono-30"/>
       <use xlink:href="#DejaVuSansMono-2e" x="60.205078"/>
       <use xlink:href="#DejaVuSansMono-31" x="120.410156"/>
       <use xlink:href="#DejaVuSansMono-30" x="180.615234"/>
      </g>
     </g>
    </g>
    <g id="ytick_5">
     <g id="line2d_9">
      <g>
       <use xlink:href="#m7811352c54" x="41.92" y="180.560438" style="stroke: #000000; stroke-width: 0.8"/>
      </g>
     </g>
     <g id="text_9">
      <!-- 0.11 -->
      <g transform="translate(10.83875 184.386219) scale(0.1 -0.1)">
       <use xlink:href="#DejaVuSansMono-30"/>
       <use xlink:href="#DejaVuSansMono-2e" x="60.205078"/>
       <use xlink:href="#DejaVuSansMono-31" x="120.410156"/>
       <use xlink:href="#DejaVuSansMono-31" x="180.615234"/>
      </g>
     </g>
    </g>
    <g id="ytick_6">
     <g id="line2d_10">
      <g>
       <use xlink:href="#m7811352c54" x="41.92" y="125.46404" style="stroke: #000000; stroke-width: 0.8"/>
      </g>
     </g>
     <g id="text_10">
      <!-- 0.12 -->
      <g transform="translate(10.83875 129.289822) scale(0.1 -0.1)">
       <use xlink:href="#DejaVuSansMono-30"/>
       <use xlink:href="#DejaVuSansMono-2e" x="60.205078"/>
       <use xlink:href="#DejaVuSansMono-31" x="120.410156"/>
       <use xlink:href="#DejaVuSansMono-32" x="180.615234"/>
      </g>
     </g>
    </g>
    <g id="ytick_7">
     <g id="line2d_11">
      <g>
       <use xlink:href="#m7811352c54" x="41.92" y="70.367643" style="stroke: #000000; stroke-width: 0.8"/>
      </g>
     </g>
     <g id="text_11">
      <!-- 0.13 -->
      <g transform="translate(10.83875 74.193425) scale(0.1 -0.1)">
       <defs>
        <path id="DejaVuSansMono-33" d="M 2425 2497 
Q 2884 2375 3128 2064 
Q 3372 1753 3372 1288 
Q 3372 644 2939 276 
Q 2506 -91 1741 -91 
Q 1419 -91 1084 -31 
Q 750 28 428 141 
L 428 769 
Q 747 603 1056 522 
Q 1366 441 1672 441 
Q 2191 441 2469 675 
Q 2747 909 2747 1350 
Q 2747 1756 2469 1995 
Q 2191 2234 1716 2234 
L 1234 2234 
L 1234 2753 
L 1716 2753 
Q 2150 2753 2394 2943 
Q 2638 3134 2638 3475 
Q 2638 3834 2411 4026 
Q 2184 4219 1766 4219 
Q 1488 4219 1191 4156 
Q 894 4094 569 3969 
L 569 4550 
Q 947 4650 1242 4700 
Q 1538 4750 1766 4750 
Q 2447 4750 2855 4408 
Q 3263 4066 3263 3500 
Q 3263 3116 3048 2859 
Q 2834 2603 2425 2497 
z
" transform="scale(0.015625)"/>
       </defs>
       <use xlink:href="#DejaVuSansMono-30"/>
       <use xlink:href="#DejaVuSansMono-2e" x="60.205078"/>
       <use xlink:href="#DejaVuSansMono-31" x="120.410156"/>
       <use xlink:href="#DejaVuSansMono-33" x="180.615234"/>
      </g>
     </g>
    </g>
    <g id="ytick_8">
     <g id="line2d_12">
      <g>
       <use xlink:href="#m7811352c54" x="41.92" y="15.271246" style="stroke: #000000; stroke-width: 0.8"/>
      </g>
     </g>
     <g id="text_12">
      <!-- 0.14 -->
      <g transform="translate(10.83875 19.097027) scale(0.1 -0.1)">
       <use xlink:href="#DejaVuSansMono-30"/>
       <use xlink:href="#DejaVuSansMono-2e" x="60.205078"/>
       <use xlink:href="#DejaVuSansMono-31" x="120.410156"/>
       <use xlink:href="#DejaVuSansMono-34" x="180.615234"/>
      </g>
     </g>
    </g>
   </g>
   <g id="line2d_13">
    <path d="M 33.650071 248.158908 
L 34.477064 243.437512 
L 35.304057 251.984626 
L 36.13105 254.347826 
L 36.958043 225.91237 
L 37.785036 225.928597 
L 38.612029 221.758269 
L 39.439021 237.559876 
L 40.266014 241.08012 
L 41.093007 236.298295 
L 41.92 192.702555 
L 42.746993 204.861598 
L 43.573986 218.909578 
L 44.400979 209.644631 
L 45.227971 207.786527 
L 46.054964 172.907023 
L 46.881957 169.060333 
L 47.70895 143.955207 
L 48.535943 133.533244 
L 49.362936 132.649347 
L 50.189929 162.445763 
L 51.016922 95.88818 
L 51.843914 69.856158 
L 52.670907 77.952 
L 53.4979 102.502438 
L 54.324893 132.048515 
L 55.151886 156.560472 
L 55.978879 170.965205 
L 56.805872 169.327269 
L 57.632864 166.790529 
L 58.459857 148.236596 
L 59.28685 164.801303 
L 60.113843 174.581921 
L 61.767829 105.854525 
L 62.594822 104.137177 
L 63.421814 90.304824 
L 64.248807 43.240609 
L 65.0758 29.733348 
L 65.902793 33.098866 
L 66.729786 50.650888 
L 67.556779 79.935574 
L 68.383772 77.587439 
L 69.210765 113.14137 
L 70.037757 137.600336 
L 70.86475 141.752923 
L 71.691743 113.700886 
L 72.518736 134.062473 
L 73.345729 157.919092 
L 74.172722 158.132453 
L 74.999715 172.492258 
L 75.826707 189.364495 
L 76.6537 214.085167 
L 77.480693 209.213938 
L 78.307686 213.675459 
L 79.134679 200.5927 
L 79.961672 229.882378 
L 80.788665 266.615512 
L 81.615657 261.071055 
L 82.44265 245.303539 
L 83.269643 240.956736 
L 84.096636 209.727256 
L 84.923629 201.033967 
L 85.750622 196.759052 
L 86.577615 200.592655 
L 87.404608 200.100449 
L 88.2316 183.472467 
L 89.058593 182.884861 
L 89.885586 185.489308 
L 90.712579 131.302993 
L 91.539572 115.55498 
L 92.366565 129.937743 
L 93.193558 130.313412 
L 94.02055 132.511284 
L 94.847543 141.69943 
L 95.674536 147.763335 
L 96.501529 180.200001 
L 97.328522 180.194817 
L 98.155515 183.410732 
L 98.982508 246.668399 
L 99.809501 245.841134 
L 100.636493 226.832527 
L 101.463486 236.417787 
L 102.290479 226.473027 
L 103.117472 214.912407 
L 103.944465 224.628539 
L 104.771458 198.569916 
L 105.598451 191.051113 
L 106.425443 165.947206 
L 107.252436 173.510405 
L 108.079429 185.082014 
L 108.906422 210.990365 
L 109.733415 183.262648 
L 110.560408 191.239331 
L 111.387401 168.33252 
L 112.214393 170.352312 
L 113.041386 174.591502 
L 113.868379 181.629268 
L 114.695372 211.389224 
L 115.522365 220.116531 
L 116.349358 211.812691 
L 117.176351 209.433572 
L 118.003344 227.837731 
L 118.830336 239.15859 
L 119.657329 255.488618 
L 120.484322 256.088043 
L 121.311315 259.266016 
L 122.138308 247.465729 
L 123.792294 219.110436 
L 124.619286 232.092064 
L 125.446279 225.742571 
L 126.273272 240.915477 
L 127.100265 233.068598 
L 127.927258 220.650653 
L 128.754251 220.203126 
L 129.581244 235.113739 
L 130.408236 223.792334 
L 131.235229 227.693588 
L 132.062222 223.956497 
L 132.889215 231.512881 
L 133.716208 254.245538 
L 134.543201 249.868789 
L 135.370194 257.231557 
L 136.197187 291.814618 
L 137.024179 276.131217 
L 137.851172 276.509128 
L 138.678165 283.114026 
L 139.505158 256.892611 
L 140.332151 271.068417 
L 141.159144 271.153817 
L 141.986137 241.288297 
L 142.813129 229.956938 
L 143.640122 208.08675 
L 144.467115 208.800794 
L 145.294108 199.737115 
L 146.121101 176.831679 
L 146.948094 179.433643 
L 147.775087 212.247362 
L 148.60208 205.887672 
L 149.429072 197.088207 
L 151.910051 222.718088 
L 152.737044 212.732573 
L 153.564037 235.427455 
L 154.39103 253.960314 
L 155.218022 256.101749 
L 156.045015 251.285942 
L 156.872008 252.5708 
L 157.699001 255.03314 
L 158.525994 277.467289 
L 159.352987 261.722293 
L 160.17998 268.283214 
L 161.006972 252.170907 
L 161.833965 220.959156 
L 162.660958 220.211824 
L 163.487951 201.814111 
L 164.314944 204.845929 
L 165.141937 187.089294 
L 166.795923 160.243746 
L 167.622915 185.278725 
L 168.449908 195.294416 
L 169.276901 206.793186 
L 170.103894 209.670447 
L 170.930887 200.341437 
L 171.75788 230.020384 
L 172.584873 216.10757 
L 173.411865 236.359771 
L 174.238858 259.547007 
L 175.065851 274.864824 
L 175.892844 254.019877 
L 176.719837 250.170285 
L 177.54683 254.07752 
L 178.373823 269.891365 
L 179.200815 279.847726 
L 180.027808 261.285344 
L 180.854801 276.049142 
L 181.681794 284.587594 
L 183.33578 204.498622 
L 184.162773 210.788543 
L 184.989766 202.586331 
L 185.816758 199.992763 
L 186.643751 195.363056 
L 187.470744 189.315818 
L 188.297737 211.484484 
L 189.12473 211.626345 
L 189.951723 198.393458 
L 190.778716 226.515427 
L 191.605708 259.262576 
L 192.432701 269.191162 
L 193.259694 266.489603 
L 194.086687 265.000046 
L 194.91368 290.462738 
L 195.740673 293.564371 
L 196.567666 290.531858 
L 197.394659 277.898043 
L 198.221651 291.747587 
L 199.048644 302.093271 
L 199.875637 301.943023 
L 201.529623 291.946425 
L 202.356616 282.186054 
L 203.183609 275.945191 
L 204.010601 277.701898 
L 204.837594 276.822939 
L 205.664587 279.416643 
L 206.49158 264.600322 
L 207.318573 257.80464 
L 208.145566 237.945184 
L 208.972559 241.120707 
L 209.799551 256.794883 
L 211.453537 262.35065 
L 212.28053 258.989749 
L 213.107523 216.162979 
L 213.934516 229.99018 
L 214.761509 246.915134 
L 215.588502 255.480675 
L 216.415494 279.70848 
L 217.242487 274.598422 
L 218.06948 275.798581 
L 218.896473 282.156034 
L 219.723466 278.612018 
L 220.550459 243.987094 
L 221.377452 202.773889 
L 223.031437 163.640622 
L 223.85843 153.05407 
L 224.685423 125.043477 
L 225.512416 112.924803 
L 226.339409 123.19348 
L 227.166402 137.525477 
L 227.993394 143.331776 
L 228.820387 183.512072 
L 229.64738 253.625949 
L 230.474373 274.884947 
L 231.301366 277.136762 
L 232.128359 248.311458 
L 232.955352 271.394021 
L 233.782345 290.795198 
L 235.43633 203.571203 
L 236.263323 197.636931 
L 237.090316 188.007866 
L 237.917309 189.120223 
L 238.744302 184.900236 
L 240.398287 219.315304 
L 241.22528 212.039398 
L 242.052273 214.12219 
L 242.879266 254.77138 
L 243.706259 286.42847 
L 245.360245 293.394916 
L 246.187238 305.283415 
L 247.01423 271.113313 
L 247.841223 248.414141 
L 248.668216 273.450836 
L 249.495209 220.778195 
L 250.322202 215.38387 
L 251.149195 217.143438 
L 251.976188 214.744923 
L 252.80318 210.73212 
L 253.630173 210.535515 
L 254.457166 210.659379 
L 255.284159 240.531996 
L 256.111152 236.005895 
L 256.938145 218.528158 
L 257.765138 262.601075 
L 258.59213 257.539563 
L 259.419123 248.348276 
L 260.246116 258.003359 
L 261.073109 255.27428 
L 261.900102 257.674318 
L 262.727095 265.972143 
L 263.554088 251.960271 
L 264.381081 244.973448 
L 265.208073 257.902371 
L 266.035066 253.539239 
L 266.862059 222.056505 
L 267.689052 127.513169 
L 268.516045 129.193617 
L 269.343038 137.440918 
L 270.170031 127.3153 
L 270.997023 102.649335 
L 272.651009 125.555363 
L 273.478002 74.621892 
L 275.131988 125.645344 
L 275.958981 211.141827 
L 277.612966 196.894726 
L 278.439959 203.03814 
L 280.093945 231.912207 
L 280.920938 243.543253 
L 281.747931 285.974473 
L 282.574924 285.549643 
L 283.401916 249.894425 
L 284.228909 240.095741 
L 285.055902 226.465129 
L 285.882895 220.606208 
L 286.709888 164.899536 
L 287.536881 164.515337 
L 288.363874 161.365097 
L 289.190866 160.452793 
L 290.017859 162.602508 
L 290.844852 160.032174 
L 291.671845 198.565236 
L 292.498838 210.722604 
L 293.325831 229.12111 
L 294.152824 220.121058 
L 294.979817 278.275925 
L 295.806809 250.734747 
L 296.633802 232.118549 
L 297.460795 234.131334 
L 298.287788 233.848249 
L 299.114781 196.591921 
L 299.941774 200.274362 
L 300.768767 177.552727 
L 301.595759 173.052992 
L 302.422752 201.133235 
L 303.249745 203.958514 
L 304.076738 235.367584 
L 304.903731 249.996775 
L 305.730724 251.163576 
L 306.557717 261.469811 
L 307.384709 296.002507 
L 308.211702 297.681207 
L 309.038695 317.264523 
L 309.865688 291.699169 
L 310.692681 283.145828 
L 311.519674 287.523118 
L 312.346667 294.8045 
L 313.17366 294.209673 
L 314.000652 278.101647 
L 314.827645 272.580067 
L 315.654638 281.63093 
L 316.481631 281.400997 
L 317.308624 285.681803 
L 318.135617 314.539105 
L 318.96261 317.759147 
L 319.789602 313.044479 
L 320.616595 301.20242 
L 321.443588 310.801309 
L 322.270581 334.414624 
L 323.924567 330.632242 
L 324.75156 338.212994 
L 325.578552 340.632724 
L 326.405545 342.267397 
L 327.232538 339.208801 
L 328.059531 335.507457 
L 328.886524 334.568409 
L 329.713517 330.479249 
L 330.54051 333.724836 
L 331.367503 333.694212 
L 332.194495 319.2947 
L 333.021488 299.757972 
L 333.848481 293.314068 
L 334.675474 245.267669 
L 335.502467 238.181632 
L 336.32946 233.636809 
L 337.156453 198.045892 
L 337.983445 190.830235 
L 338.810438 188.07956 
L 339.637431 193.914475 
L 340.464424 206.788363 
L 341.291417 211.249871 
L 342.11841 226.549388 
L 342.945403 274.742787 
L 343.772396 281.962893 
L 344.599388 292.416054 
L 345.426381 313.105508 
L 346.253374 303.650002 
L 347.080367 270.453713 
L 347.90736 264.743837 
L 348.734353 255.759552 
L 349.561346 263.683125 
L 350.388338 255.057363 
L 351.215331 254.521849 
L 352.042324 247.850393 
L 352.869317 246.825247 
L 354.523303 276.807787 
L 355.350296 301.95017 
L 357.004281 310.089785 
L 357.831274 314.09799 
L 358.658267 318.829407 
L 359.48526 326.280436 
L 360.312253 335.860003 
L 361.139246 324.918273 
L 362.793231 324.258374 
L 363.620224 338.452742 
L 364.447217 328.229068 
L 365.27421 328.505133 
L 366.101203 316.898521 
L 366.928196 322.15032 
L 367.755189 293.260609 
L 368.582181 298.648628 
L 369.409174 313.210645 
L 370.236167 307.854767 
L 371.06316 294.040801 
L 371.890153 284.810172 
L 372.717146 294.45172 
L 373.544139 270.286221 
L 374.371131 283.62429 
L 375.198124 259.275297 
L 376.025117 285.129278 
L 377.679103 254.383018 
L 378.506096 258.366466 
L 379.333089 274.657571 
L 380.987074 267.748595 
L 381.814067 281.744011 
L 382.64106 275.85443 
L 383.468053 304.838671 
L 384.295046 304.537315 
L 385.122039 270.446312 
L 385.949032 290.602961 
L 386.776024 233.520871 
L 387.603017 235.28768 
L 388.43001 243.631724 
L 389.257003 228.879834 
L 390.083996 228.087577 
L 390.910989 234.890451 
L 391.737982 218.584901 
L 392.564975 213.810317 
L 393.391967 237.09285 
L 394.21896 203.657162 
L 395.045953 267.065802 
L 395.872946 257.106826 
L 396.699939 252.809152 
L 397.526932 264.93263 
L 398.353925 282.356214 
L 399.180917 284.782393 
L 400.00791 275.472196 
L 400.834903 276.589594 
L 401.661896 291.58936 
L 402.488889 312.022177 
L 403.315882 309.661625 
L 404.142875 298.574069 
L 404.969867 297.131847 
L 405.79686 308.347097 
L 406.623853 296.364433 
L 407.450846 294.303579 
L 408.277839 311.707459 
L 409.104832 315.898218 
L 409.931825 316.748717 
L 410.758818 327.512983 
L 411.58581 331.730983 
L 412.412803 332.689509 
L 413.239796 304.827702 
L 414.066789 296.15899 
L 414.893782 300.75034 
L 415.720775 308.592637 
L 416.547768 311.30888 
L 417.37476 307.095067 
L 418.201753 314.438377 
L 419.028746 314.905136 
L 419.855739 294.566217 
L 420.682732 298.271157 
L 421.509725 325.66792 
L 422.336718 322.257506 
L 423.16371 332.346113 
L 423.990703 323.626446 
L 424.817696 305.089971 
L 425.644689 303.741667 
L 426.471682 282.474065 
L 427.298675 240.656402 
L 428.125668 264.248929 
L 428.952661 270.503819 
L 429.779653 261.524559 
L 430.606646 261.841794 
L 431.433639 264.359547 
L 432.260632 256.162249 
L 433.087625 274.943353 
L 433.914618 282.922979 
L 434.741611 303.306097 
L 435.568603 343.500975 
L 436.395596 333.23091 
L 437.222589 338.689268 
L 438.049582 350.013169 
L 438.876575 358.401707 
L 439.703568 354.171647 
L 440.530561 354.496952 
L 441.357554 355.713301 
L 442.184546 353.42599 
L 443.011539 345.087886 
L 443.838532 350.557029 
L 444.665525 361.163614 
L 445.492518 353.694124 
L 446.319511 329.340813 
L 447.146504 317.72184 
L 447.973496 278.150899 
L 448.800489 287.70208 
L 449.627482 280.617389 
L 450.454475 260.634077 
L 451.281468 267.265198 
L 452.108461 241.627321 
L 452.935454 238.417621 
L 453.762446 240.705728 
L 454.589439 259.41112 
L 455.416432 275.182995 
L 456.243425 314.325851 
L 457.070418 295.170017 
L 457.897411 291.91604 
L 458.724404 306.0408 
L 459.551397 304.654709 
L 460.378389 328.925999 
L 461.205382 314.838771 
L 462.032375 323.304589 
L 462.859368 336.662137 
L 463.686361 321.685962 
L 464.513354 314.680675 
L 465.340347 324.97131 
L 466.167339 338.783811 
L 466.994332 341.451717 
L 467.821325 327.238404 
L 468.648318 329.06898 
L 470.302304 336.88161 
L 471.129297 329.789773 
L 471.95629 338.54607 
L 472.783282 319.856429 
L 473.610275 282.432263 
L 474.437268 274.180032 
L 475.264261 271.537971 
L 476.091254 257.816679 
L 476.918247 251.433074 
L 477.74524 223.655748 
L 478.572232 208.592375 
L 479.399225 187.425658 
L 480.226218 191.447668 
L 481.053211 216.272509 
L 481.880204 247.003937 
L 482.707197 242.161337 
L 483.53419 244.901782 
L 484.361182 276.465869 
L 485.188175 265.671423 
L 486.015168 299.074625 
L 486.842161 306.778789 
L 487.669154 327.387998 
L 488.496147 327.85142 
L 489.32314 328.980029 
L 490.150133 329.366252 
L 490.977125 337.665489 
L 491.804118 321.635582 
L 492.631111 324.677355 
L 493.458104 322.096976 
L 494.285097 331.560929 
L 495.11209 328.247368 
L 495.939083 326.504347 
L 496.766075 324.466477 
L 497.593068 307.483224 
L 498.420061 323.436729 
L 499.247054 306.080487 
L 500.074047 329.745328 
L 500.90104 316.295927 
L 501.728033 331.964714 
L 502.555025 320.176525 
L 503.382018 315.385758 
L 504.209011 323.708254 
L 505.036004 323.292007 
L 505.862997 331.766204 
L 506.68999 329.9075 
L 507.516983 311.912758 
L 508.343976 287.534895 
L 509.170968 271.08363 
L 509.997961 272.606622 
L 510.824954 279.131781 
L 511.651947 288.055147 
L 512.47894 278.357491 
L 513.305933 277.420689 
L 514.132926 242.350068 
L 514.959918 223.798532 
L 515.786911 255.712796 
L 516.613904 272.373708 
L 517.440897 292.120338 
L 518.26789 282.288547 
L 519.094883 280.694887 
L 519.921876 276.840545 
L 520.748869 260.726818 
L 521.575861 264.903722 
L 522.402854 305.928926 
L 523.229847 328.356167 
L 524.05684 310.783021 
L 524.883833 288.557718 
L 525.710826 297.550623 
L 526.537819 309.181159 
L 527.364811 309.122355 
L 528.191804 308.461458 
L 529.018797 328.076567 
L 529.84579 322.134963 
L 530.672783 315.184178 
L 531.499776 317.502342 
L 533.153761 364.602558 
L 533.980754 358.787446 
L 534.807747 355.46691 
L 535.63474 361.595148 
L 537.288726 349.378807 
L 538.115719 355.212536 
L 538.942712 340.858643 
L 539.769704 330.045092 
L 540.596697 288.305605 
L 541.42369 286.964366 
L 543.077676 281.724824 
L 543.904669 269.472289 
L 544.731662 278.632477 
L 545.558654 283.231183 
L 546.385647 283.561763 
L 547.21264 308.344822 
L 548.039633 318.950517 
L 548.866626 358.922119 
L 549.693619 362.236517 
L 550.520612 350.631182 
L 551.347604 345.222403 
L 552.174597 352.314942 
L 553.00159 342.609413 
L 553.828583 348.874902 
L 554.655576 344.794965 
L 555.482569 331.014997 
L 556.309562 309.698779 
L 557.136555 299.494103 
L 557.963547 295.053583 
L 559.617533 303.600582 
L 560.444526 307.084591 
L 561.271519 314.238328 
L 562.098512 313.070447 
L 562.925505 308.557453 
L 563.752497 285.145928 
L 564.57949 307.275305 
L 565.406483 318.486791 
L 566.233476 229.461033 
L 567.060469 246.712084 
L 567.887462 245.811787 
L 568.714455 245.438766 
L 569.541448 241.373074 
L 570.36844 234.080354 
L 571.195433 241.659894 
L 572.022426 268.276145 
L 572.849419 264.308838 
L 573.676412 258.580177 
L 574.503405 336.815606 
L 575.330398 327.440665 
L 576.15739 332.098947 
L 576.984383 338.06647 
L 577.811376 350.557977 
L 578.638369 331.858513 
L 579.465362 334.880566 
L 580.292355 338.861161 
L 581.119348 306.771072 
L 581.94634 309.062775 
L 582.773333 322.810651 
L 583.600326 327.004509 
L 584.427319 320.312425 
L 585.254312 319.012666 
L 586.081305 318.604001 
L 586.908298 334.474167 
L 587.735291 327.632545 
L 588.562283 332.463262 
L 589.389276 359.916596 
L 590.216269 361.586638 
L 591.043262 362.744996 
L 591.870255 364.114909 
L 592.697248 376.511159 
L 593.524241 367.688304 
L 594.351233 355.265437 
L 595.178226 365.985422 
L 596.005219 369.263233 
L 596.832212 366.989727 
L 597.659205 357.790867 
L 598.486198 296.624083 
L 599.313191 291.856772 
L 600.140183 271.201862 
L 600.967176 270.750004 
L 601.794169 278.14697 
L 602.621162 275.497512 
L 603.448155 260.137828 
L 604.275148 261.21276 
L 605.102141 267.142106 
L 605.929134 280.576548 
L 606.756126 336.13737 
L 607.583119 341.100091 
L 608.410112 359.97719 
L 609.237105 358.283458 
L 610.064098 355.430885 
L 610.891091 361.699337 
L 611.718084 358.334599 
L 612.545076 353.601877 
L 613.372069 345.796964 
L 614.199062 308.005864 
L 615.026055 318.795421 
L 615.853048 318.464435 
L 616.680041 320.669133 
L 617.507034 302.970444 
L 618.334027 289.023122 
L 619.161019 300.136145 
L 619.988012 322.747873 
L 621.641998 233.725366 
L 622.468991 265.163713 
L 623.295984 254.479026 
L 624.122977 256.940184 
L 624.949969 216.192227 
L 625.776962 227.967912 
L 626.603955 243.413132 
L 627.430948 239.321156 
L 628.257941 232.165133 
L 629.911927 322.77733 
L 630.738919 315.309672 
L 631.565912 318.482772 
L 632.392905 313.38842 
L 633.219898 354.697534 
L 634.046891 345.911538 
L 634.873884 342.311362 
L 635.700877 342.058764 
L 636.52787 336.991083 
L 637.354862 334.803199 
L 638.181855 344.13812 
L 639.008848 355.948476 
L 639.835841 360.842841 
L 640.662834 360.995481 
L 641.489827 359.032593 
L 642.31682 372.531652 
L 643.143812 375.723282 
L 643.970805 375.264737 
L 644.797798 381.403886 
L 645.624791 386.292064 
L 646.451784 373.109189 
L 647.278777 377.145423 
L 648.10577 374.623499 
L 648.932762 383.274562 
L 649.759755 385.289469 
L 651.413741 369.525159 
L 652.240734 364.391337 
L 653.067727 357.280198 
L 653.89472 360.07735 
L 654.721713 366.126115 
L 655.548705 358.779698 
L 656.375698 363.354135 
L 657.202691 357.976445 
L 658.029684 348.334482 
L 658.856677 358.486303 
L 659.68367 316.611015 
L 660.510663 325.825429 
L 661.337655 338.066954 
L 662.164648 322.379396 
L 662.991641 325.818976 
L 663.818634 324.213375 
L 664.645627 318.443746 
L 665.47262 298.649806 
L 666.299613 304.540451 
L 667.126606 302.59851 
L 667.953598 344.319204 
L 669.607584 293.717688 
L 670.434577 243.672753 
L 671.26157 242.768089 
L 672.088563 249.644759 
L 672.915556 217.48043 
L 674.569541 226.971317 
L 675.396534 229.133975 
L 676.223527 227.047842 
L 677.05052 251.687465 
L 677.877513 270.836328 
L 678.704506 331.822976 
L 679.531498 311.96793 
L 680.358491 307.112 
L 681.185484 334.559452 
L 682.012477 348.829455 
L 682.83947 325.766399 
L 683.666463 328.47836 
L 684.493456 340.159635 
L 685.320449 322.443746 
L 686.147441 318.946551 
L 686.974434 301.642981 
L 687.801427 308.63808 
L 688.62842 321.26817 
L 689.455413 330.398198 
L 690.282406 328.293535 
L 691.109399 337.706632 
L 691.936391 305.613205 
L 692.763384 300.511517 
L 693.590377 318.613301 
L 694.41737 314.937707 
L 695.244363 326.189229 
L 696.071356 340.172334 
L 696.898349 332.960673 
L 697.725341 323.351353 
L 698.552334 328.030677 
L 699.379327 339.865376 
L 700.20632 362.643097 
L 701.033313 358.929385 
L 701.860306 329.275884 
L 702.687299 341.021468 
L 703.514292 347.58548 
L 704.341284 343.321697 
L 705.168277 340.8867 
L 705.99527 347.036887 
L 706.822263 336.724323 
L 707.649256 330.042801 
L 708.476249 324.318684 
L 709.303242 314.021239 
L 710.130234 341.043171 
L 710.957227 333.928399 
L 711.78422 337.571809 
L 712.611213 346.250184 
L 713.438206 337.941395 
L 714.265199 337.003069 
L 715.092192 348.140008 
L 715.919185 335.191405 
L 716.746177 343.997056 
L 717.57317 359.847714 
L 718.400163 337.418935 
L 720.054149 341.315882 
L 720.881142 333.882858 
L 721.708135 342.451428 
L 722.535127 327.665344 
L 723.36212 315.954161 
L 724.189113 335.497084 
L 725.843099 317.943946 
L 726.670092 331.855094 
L 727.497085 337.120485 
L 728.324077 327.792727 
L 729.15107 332.185169 
L 729.978063 319.215375 
L 730.805056 338.574193 
L 731.632049 346.706254 
L 732.459042 348.072062 
L 733.286035 348.056467 
L 734.113028 336.867764 
L 734.94002 350.374225 
L 735.767013 338.315882 
L 736.594006 342.669186 
L 737.420999 344.311125 
L 738.247992 360.585006 
L 739.074985 359.193348 
L 740.72897 327.627554 
L 741.555963 338.283255 
L 742.382956 360.762584 
L 743.209949 355.815429 
L 744.036942 340.243972 
L 744.863935 339.58585 
L 745.690928 329.65042 
L 746.51792 329.86214 
L 747.344913 326.560442 
L 748.171906 331.214492 
L 748.998899 345.795264 
L 749.825892 335.887227 
L 750.652885 328.748129 
L 751.479878 323.928582 
L 752.306871 340.453146 
L 753.133863 344.57309 
L 753.960856 352.075707 
L 754.787849 223.762868 
L 755.614842 218.9586 
L 756.441835 232.339842 
L 757.268828 229.047692 
L 758.095821 236.89265 
L 759.749806 227.918299 
L 760.576799 239.813547 
L 761.403792 241.810199 
L 762.230785 239.792279 
L 763.057778 340.527258 
L 763.884771 341.817189 
L 764.711764 344.421246 
L 765.538756 348.134048 
L 766.365749 327.288563 
L 767.192742 325.997092 
L 768.019735 327.001303 
L 768.846728 317.775961 
L 769.673721 302.09263 
L 770.500714 291.564869 
L 771.327706 306.792212 
L 772.154699 312.856043 
L 773.808685 301.367416 
L 774.635678 321.011929 
L 775.462671 319.387933 
L 776.289664 331.339583 
L 777.116656 340.289156 
L 777.943649 335.801408 
L 778.770642 350.227266 
L 780.424628 322.220421 
L 781.251621 319.655653 
L 782.078614 312.069056 
L 782.905607 295.718474 
L 783.732599 302.139497 
L 784.559592 302.101493 
L 785.386585 304.439702 
L 786.213578 315.550098 
L 787.040571 308.975929 
L 787.867564 338.109232 
L 788.694557 352.894413 
L 789.521549 335.312523 
L 790.348542 345.262312 
L 791.175535 366.520284 
L 792.002528 373.132119 
L 792.829521 374.624402 
L 793.656514 366.910489 
L 794.483507 366.714077 
L 795.310499 360.924231 
L 796.137492 317.33042 
L 796.964485 314.89698 
L 797.791478 329.64368 
L 798.618471 331.053399 
L 799.445464 326.193944 
L 800.272457 265.486509 
L 801.09945 258.973773 
L 801.926442 266.275868 
L 802.753435 267.171387 
L 803.580428 258.592147 
L 804.407421 303.576806 
L 805.234414 304.890419 
L 806.061407 309.006105 
L 806.8884 306.527579 
L 807.715392 311.641114 
L 808.542385 369.407138 
L 809.369378 372.85247 
L 810.196371 346.118361 
L 811.023364 352.352573 
L 811.850357 365.632963 
L 812.67735 360.018684 
L 813.504343 361.811937 
L 814.331335 363.884039 
L 815.158328 363.470189 
L 815.985321 365.174984 
L 816.812314 370.024391 
L 817.639307 352.438351 
L 818.4663 361.152481 
L 819.293293 360.31433 
L 820.120285 330.301388 
L 820.947278 336.83779 
L 821.774271 333.185516 
L 822.601264 316.935187 
L 823.428257 324.30458 
L 824.25525 232.115397 
L 825.082243 231.286006 
L 825.909235 232.119452 
L 826.736228 246.785416 
L 827.563221 243.960395 
L 828.390214 267.889967 
L 829.217207 260.738492 
L 830.0442 252.241521 
L 830.871193 270.425754 
L 831.698186 268.537868 
L 832.525178 344.871836 
L 833.352171 332.611551 
L 834.179164 341.213413 
L 835.006157 334.448379 
L 835.83315 337.115719 
L 836.660143 331.841026 
L 837.487136 335.97991 
L 838.314128 324.475282 
L 839.968114 316.4758 
L 840.795107 332.191823 
L 841.6221 345.07507 
L 842.449093 355.5763 
L 843.276086 348.060071 
L 844.103078 330.998926 
L 844.930071 350.318606 
L 845.757064 350.325474 
L 846.584057 330.968081 
L 847.41105 305.238322 
L 848.238043 289.428894 
L 849.065036 287.696423 
L 849.892029 286.347326 
L 851.546014 293.460592 
L 852.373007 311.394666 
L 852.373007 311.394666 
" clip-path="url(#pff3f493116)" style="fill: none; stroke-dasharray: 7.4,3.2; stroke-dashoffset: 0; stroke: #000000; stroke-width: 2"/>
   </g>
   <g id="patch_3">
    <path d="M 41.92 404.12 
L 41.92 11.905412 
" style="fill: none; stroke: #000000; stroke-width: 0.8; stroke-linejoin: miter; stroke-linecap: square"/>
   </g>
   <g id="patch_4">
    <path d="M 853.2 404.12 
L 853.2 11.905412 
" style="fill: none; stroke: #000000; stroke-width: 0.8; stroke-linejoin: miter; stroke-linecap: square"/>
   </g>
   <g id="patch_5">
    <path d="M 41.92 404.12 
L 853.2 404.12 
" style="fill: none; stroke: #000000; stroke-width: 0.8; stroke-linejoin: miter; stroke-linecap: square"/>
   </g>
   <g id="patch_6">
    <path d="M 41.92 11.905412 
L 853.2 11.905412 
" style="fill: none; stroke: #000000; stroke-width: 0.8; stroke-linejoin: miter; stroke-linecap: square"/>
   </g>
  </g>
 </g>
 <defs>
  <clipPath id="pff3f493116">
   <rect x="41.92" y="11.905412" width="811.28" height="392.214588"/>
  </clipPath>
 </defs>
</svg>
