<?xml version="1.0" encoding="utf-8" standalone="no"?>
<!DOCTYPE svg PUBLIC "-//W3C//DTD SVG 1.1//EN"
  "http://www.w3.org/Graphics/SVG/1.1/DTD/svg11.dtd">
<svg xmlns:xlink="http://www.w3.org/1999/xlink" width="864pt" height="360pt" viewBox="0 0 864 360" xmlns="http://www.w3.org/2000/svg" version="1.1">
 <metadata>
  <rdf:RDF xmlns:dc="http://purl.org/dc/elements/1.1/" xmlns:cc="http://creativecommons.org/ns#" xmlns:rdf="http://www.w3.org/1999/02/22-rdf-syntax-ns#">
   <cc:Work>
    <dc:type rdf:resource="http://purl.org/dc/dcmitype/StillImage"/>
    <dc:date>2024-09-16T23:45:13.097233</dc:date>
    <dc:format>image/svg+xml</dc:format>
    <dc:creator>
     <cc:Agent>
      <dc:title>Matplotlib v3.9.2, https://matplotlib.org/</dc:title>
     </cc:Agent>
    </dc:creator>
   </cc:Work>
  </rdf:RDF>
 </metadata>
 <defs>
  <style type="text/css">*{stroke-linejoin: round; stroke-linecap: butt}</style>
 </defs>
 <g id="figure_1">
  <g id="patch_1">
   <path d="M 0 360 
L 864 360 
L 864 0 
L 0 0 
z
" style="fill: #ffffff"/>
  </g>
  <g id="axes_1">
   <g id="patch_2">
    <path d="M 36.36 328.931379 
L 853.2 328.931379 
L 853.2 19.095517 
L 36.36 19.095517 
z
" style="fill: #ffffff"/>
   </g>
   <g id="patch_3">
    <path d="M 59.929309 305.36207 
L 69.124484 305.36207 
L 69.124484 296.166895 
L 59.929309 296.166895 
z
" clip-path="url(#p5a400bd5f5)" style="stroke: #000000; stroke-linejoin: miter"/>
   </g>
   <g id="patch_4">
    <path d="M 90.263955 303.194321 
L 95.123632 303.194321 
L 95.123632 298.334644 
L 90.263955 298.334644 
z
" clip-path="url(#p5a400bd5f5)" style="stroke: #000000; stroke-linejoin: miter"/>
   </g>
   <g id="patch_5">
    <path d="M 118.589135 303.036038 
L 123.132245 303.036038 
L 123.132245 298.492928 
L 118.589135 298.492928 
z
" clip-path="url(#p5a400bd5f5)" style="stroke: #000000; stroke-linejoin: miter"/>
   </g>
   <g id="patch_6">
    <path d="M 147.196707 302.595362 
L 150.858466 302.595362 
L 150.858466 298.933603 
L 147.196707 298.933603 
z
" clip-path="url(#p5a400bd5f5)" style="stroke: #000000; stroke-linejoin: miter"/>
   </g>
   <g id="patch_7">
    <path d="M 174.365932 303.593034 
L 180.023034 303.593034 
L 180.023034 297.935932 
L 174.365932 297.935932 
z
" clip-path="url(#p5a400bd5f5)" style="stroke: #000000; stroke-linejoin: miter"/>
   </g>
   <g id="patch_8">
    <path d="M 202.860251 303.265611 
L 207.862507 303.265611 
L 207.862507 298.263355 
L 202.860251 298.263355 
z
" clip-path="url(#p5a400bd5f5)" style="stroke: #000000; stroke-linejoin: miter"/>
   </g>
   <g id="patch_9">
    <path d="M 232.295634 301.997124 
L 234.760917 301.997124 
L 234.760917 299.531841 
L 232.295634 299.531841 
z
" clip-path="url(#p5a400bd5f5)" style="stroke: #000000; stroke-linejoin: miter"/>
   </g>
   <g id="patch_10">
    <path d="M 259.955161 302.504495 
L 263.435184 302.504495 
L 263.435184 299.024471 
L 259.955161 299.024471 
z
" clip-path="url(#p5a400bd5f5)" style="stroke: #000000; stroke-linejoin: miter"/>
   </g>
   <g id="patch_11">
    <path d="M 288.215102 302.41145 
L 291.509036 302.41145 
L 291.509036 299.117516 
L 288.215102 299.117516 
z
" clip-path="url(#p5a400bd5f5)" style="stroke: #000000; stroke-linejoin: miter"/>
   </g>
   <g id="patch_12">
    <path d="M 316.85984 301.933609 
L 319.198091 301.933609 
L 319.198091 299.595357 
L 316.85984 299.595357 
z
" clip-path="url(#p5a400bd5f5)" style="stroke: #000000; stroke-linejoin: miter"/>
   </g>
   <g id="patch_13">
    <path d="M 345.451765 301.50858 
L 346.939959 301.50858 
L 346.939959 300.020386 
L 345.451765 300.020386 
z
" clip-path="url(#p5a400bd5f5)" style="stroke: #000000; stroke-linejoin: miter"/>
   </g>
   <g id="patch_14">
    <path d="M 374.040909 301.086332 
L 374.684608 301.086332 
L 374.684608 300.442633 
L 374.040909 300.442633 
z
" clip-path="url(#p5a400bd5f5)" style="stroke: #000000; stroke-linejoin: miter"/>
   </g>
   <g id="patch_15">
    <path d="M 400.273851 303.020287 
L 404.785459 303.020287 
L 404.785459 298.508679 
L 400.273851 298.508679 
z
" clip-path="url(#p5a400bd5f5)" style="stroke: #000000; stroke-linejoin: miter"/>
   </g>
   <g id="patch_16">
    <path d="M 428.755587 302.705448 
L 432.637517 302.705448 
L 432.637517 298.823518 
L 428.755587 298.823518 
z
" clip-path="url(#p5a400bd5f5)" style="stroke: #000000; stroke-linejoin: miter"/>
   </g>
   <g id="patch_17">
    <path d="M 456.505552 303.122379 
L 461.221345 303.122379 
L 461.221345 298.406586 
L 456.505552 298.406586 
z
" clip-path="url(#p5a400bd5f5)" style="stroke: #000000; stroke-linejoin: miter"/>
   </g>
   <g id="patch_18">
    <path d="M 485.010085 302.784743 
L 489.050605 302.784743 
L 489.050605 298.744223 
L 485.010085 298.744223 
z
" clip-path="url(#p5a400bd5f5)" style="stroke: #000000; stroke-linejoin: miter"/>
   </g>
   <g id="patch_19">
    <path d="M 514.108035 301.853689 
L 516.286448 301.853689 
L 516.286448 299.675277 
L 514.108035 299.675277 
z
" clip-path="url(#p5a400bd5f5)" style="stroke: #000000; stroke-linejoin: miter"/>
   </g>
   <g id="patch_20">
    <path d="M 541.7054 302.42322 
L 545.022875 302.42322 
L 545.022875 299.105745 
L 541.7054 299.105745 
z
" clip-path="url(#p5a400bd5f5)" style="stroke: #000000; stroke-linejoin: miter"/>
   </g>
   <g id="patch_21">
    <path d="M 570.207402 302.088116 
L 572.854667 302.088116 
L 572.854667 299.44085 
L 570.207402 299.44085 
z
" clip-path="url(#p5a400bd5f5)" style="stroke: #000000; stroke-linejoin: miter"/>
   </g>
   <g id="patch_22">
    <path d="M 599.376081 301.086332 
L 600.019781 301.086332 
L 600.019781 300.442633 
L 599.376081 300.442633 
z
" clip-path="url(#p5a400bd5f5)" style="stroke: #000000; stroke-linejoin: miter"/>
   </g>
   <g id="patch_23">
    <path d="M 625.194154 303.435156 
L 630.535501 303.435156 
L 630.535501 298.093809 
L 625.194154 298.093809 
z
" clip-path="url(#p5a400bd5f5)" style="stroke: #000000; stroke-linejoin: miter"/>
   </g>
   <g id="patch_24">
    <path d="M 654.457935 302.338272 
L 657.605513 302.338272 
L 657.605513 299.190693 
L 654.457935 299.190693 
z
" clip-path="url(#p5a400bd5f5)" style="stroke: #000000; stroke-linejoin: miter"/>
   </g>
   <g id="patch_25">
    <path d="M 682.291732 302.671371 
L 686.105509 302.671371 
L 686.105509 298.857594 
L 682.291732 298.857594 
z
" clip-path="url(#p5a400bd5f5)" style="stroke: #000000; stroke-linejoin: miter"/>
   </g>
   <g id="patch_26">
    <path d="M 709.24666 303.88334 
L 715.484375 303.88334 
L 715.484375 297.645625 
L 709.24666 297.645625 
z
" clip-path="url(#p5a400bd5f5)" style="stroke: #000000; stroke-linejoin: miter"/>
   </g>
   <g id="patch_27">
    <path d="M 738.542555 302.754341 
L 742.522272 302.754341 
L 742.522272 298.774624 
L 738.542555 298.774624 
z
" clip-path="url(#p5a400bd5f5)" style="stroke: #000000; stroke-linejoin: miter"/>
   </g>
   <g id="patch_28">
    <path d="M 764.031818 305.431975 
L 773.366802 305.431975 
L 773.366802 296.096991 
L 764.031818 296.096991 
z
" clip-path="url(#p5a400bd5f5)" style="stroke: #000000; stroke-linejoin: miter"/>
   </g>
   <g id="patch_29">
    <path d="M 787.492109 310.13858 
L 806.240305 310.13858 
L 806.240305 291.390385 
L 787.492109 291.390385 
z
" clip-path="url(#p5a400bd5f5)" style="stroke: #000000; stroke-linejoin: miter"/>
   </g>
   <g id="patch_30">
    <path d="M 59.719571 277.404912 
L 69.334222 277.404912 
L 69.334222 267.79026 
L 59.719571 267.79026 
z
" clip-path="url(#p5a400bd5f5)" style="stroke: #000000; stroke-linejoin: miter"/>
   </g>
   <g id="patch_31">
    <path d="M 89.119278 276.172101 
L 96.268308 276.172101 
L 96.268308 269.023071 
L 89.119278 269.023071 
z
" clip-path="url(#p5a400bd5f5)" style="stroke: #000000; stroke-linejoin: miter"/>
   </g>
   <g id="patch_32">
    <path d="M 118.565026 274.89325 
L 123.156353 274.89325 
L 123.156353 270.301923 
L 118.565026 270.301923 
z
" clip-path="url(#p5a400bd5f5)" style="stroke: #000000; stroke-linejoin: miter"/>
   </g>
   <g id="patch_33">
    <path d="M 145.331184 276.293989 
L 152.723989 276.293989 
L 152.723989 268.901184 
L 145.331184 268.901184 
z
" clip-path="url(#p5a400bd5f5)" style="stroke: #000000; stroke-linejoin: miter"/>
   </g>
   <g id="patch_34">
    <path d="M 174.757157 275.034912 
L 179.631808 275.034912 
L 179.631808 270.160261 
L 174.757157 270.160261 
z
" clip-path="url(#p5a400bd5f5)" style="stroke: #000000; stroke-linejoin: miter"/>
   </g>
   <g id="patch_35">
    <path d="M 202.78381 275.175156 
L 207.938949 275.175156 
L 207.938949 270.020017 
L 202.78381 270.020017 
z
" clip-path="url(#p5a400bd5f5)" style="stroke: #000000; stroke-linejoin: miter"/>
   </g>
   <g id="patch_36">
    <path d="M 230.333185 275.792677 
L 236.723367 275.792677 
L 236.723367 269.402495 
L 230.333185 269.402495 
z
" clip-path="url(#p5a400bd5f5)" style="stroke: #000000; stroke-linejoin: miter"/>
   </g>
   <g id="patch_37">
    <path d="M 259.103233 275.189525 
L 264.287111 275.189525 
L 264.287111 270.005647 
L 259.103233 270.005647 
z
" clip-path="url(#p5a400bd5f5)" style="stroke: #000000; stroke-linejoin: miter"/>
   </g>
   <g id="patch_38">
    <path d="M 286.946051 275.513604 
L 292.778087 275.513604 
L 292.778087 269.681568 
L 286.946051 269.681568 
z
" clip-path="url(#p5a400bd5f5)" style="stroke: #000000; stroke-linejoin: miter"/>
   </g>
   <g id="patch_39">
    <path d="M 316.84223 273.784322 
L 319.215702 273.784322 
L 319.215702 271.41085 
L 316.84223 271.41085 
z
" clip-path="url(#p5a400bd5f5)" style="stroke: #000000; stroke-linejoin: miter"/>
   </g>
   <g id="patch_40">
    <path d="M 343.764027 275.029421 
L 348.627697 275.029421 
L 348.627697 270.165751 
L 343.764027 270.165751 
z
" clip-path="url(#p5a400bd5f5)" style="stroke: #000000; stroke-linejoin: miter"/>
   </g>
   <g id="patch_41">
    <path d="M 372.505672 274.454673 
L 376.219845 274.454673 
L 376.219845 270.7405 
L 372.505672 270.7405 
z
" clip-path="url(#p5a400bd5f5)" style="stroke: #000000; stroke-linejoin: miter"/>
   </g>
   <g id="patch_42">
    <path d="M 402.529655 272.597586 
L 402.529655 272.597586 
L 402.529655 272.597586 
L 402.529655 272.597586 
z
" clip-path="url(#p5a400bd5f5)" style="stroke: #000000; stroke-linejoin: miter"/>
   </g>
   <g id="patch_43">
    <path d="M 428.235595 275.058543 
L 433.157508 275.058543 
L 433.157508 270.13663 
L 428.235595 270.13663 
z
" clip-path="url(#p5a400bd5f5)" style="stroke: #000000; stroke-linejoin: miter"/>
   </g>
   <g id="patch_44">
    <path d="M 456.830726 274.630309 
L 460.896171 274.630309 
L 460.896171 270.564864 
L 456.830726 270.564864 
z
" clip-path="url(#p5a400bd5f5)" style="stroke: #000000; stroke-linejoin: miter"/>
   </g>
   <g id="patch_45">
    <path d="M 484.95837 274.669561 
L 489.10232 274.669561 
L 489.10232 270.525611 
L 484.95837 270.525611 
z
" clip-path="url(#p5a400bd5f5)" style="stroke: #000000; stroke-linejoin: miter"/>
   </g>
   <g id="patch_46">
    <path d="M 513.813461 273.981366 
L 516.581021 273.981366 
L 516.581021 271.213806 
L 513.813461 271.213806 
z
" clip-path="url(#p5a400bd5f5)" style="stroke: #000000; stroke-linejoin: miter"/>
   </g>
   <g id="patch_47">
    <path d="M 542.416681 273.545043 
L 544.311595 273.545043 
L 544.311595 271.650129 
L 542.416681 271.650129 
z
" clip-path="url(#p5a400bd5f5)" style="stroke: #000000; stroke-linejoin: miter"/>
   </g>
   <g id="patch_48">
    <path d="M 569.41592 274.712701 
L 573.646149 274.712701 
L 573.646149 270.482471 
L 569.41592 270.482471 
z
" clip-path="url(#p5a400bd5f5)" style="stroke: #000000; stroke-linejoin: miter"/>
   </g>
   <g id="patch_49">
    <path d="M 597.084034 275.211483 
L 602.311828 275.211483 
L 602.311828 269.983689 
L 597.084034 269.983689 
z
" clip-path="url(#p5a400bd5f5)" style="stroke: #000000; stroke-linejoin: miter"/>
   </g>
   <g id="patch_50">
    <path d="M 626.374044 274.08837 
L 629.355611 274.08837 
L 629.355611 271.106802 
L 626.374044 271.106802 
z
" clip-path="url(#p5a400bd5f5)" style="stroke: #000000; stroke-linejoin: miter"/>
   </g>
   <g id="patch_51">
    <path d="M 654.056281 274.573029 
L 658.007167 274.573029 
L 658.007167 270.622143 
L 654.056281 270.622143 
z
" clip-path="url(#p5a400bd5f5)" style="stroke: #000000; stroke-linejoin: miter"/>
   </g>
   <g id="patch_52">
    <path d="M 681.846155 274.950052 
L 686.551087 274.950052 
L 686.551087 270.24512 
L 681.846155 270.24512 
z
" clip-path="url(#p5a400bd5f5)" style="stroke: #000000; stroke-linejoin: miter"/>
   </g>
   <g id="patch_53">
    <path d="M 709.73922 275.223884 
L 714.991815 275.223884 
L 714.991815 269.971289 
L 709.73922 269.971289 
z
" clip-path="url(#p5a400bd5f5)" style="stroke: #000000; stroke-linejoin: miter"/>
   </g>
   <g id="patch_54">
    <path d="M 737.179165 275.950835 
L 743.885663 275.950835 
L 743.885663 269.244337 
L 737.179165 269.244337 
z
" clip-path="url(#p5a400bd5f5)" style="stroke: #000000; stroke-linejoin: miter"/>
   </g>
   <g id="patch_55">
    <path d="M 764.340662 276.956234 
L 773.057958 276.956234 
L 773.057958 268.238938 
L 764.340662 268.238938 
z
" clip-path="url(#p5a400bd5f5)" style="stroke: #000000; stroke-linejoin: miter"/>
   </g>
   <g id="patch_56">
    <path d="M 791.995453 277.46834 
L 801.736961 277.46834 
L 801.736961 267.726832 
L 791.995453 267.726832 
z
" clip-path="url(#p5a400bd5f5)" style="stroke: #000000; stroke-linejoin: miter"/>
   </g>
   <g id="patch_57">
    <path d="M 60.239278 248.718308 
L 68.814515 248.718308 
L 68.814515 240.143071 
L 60.239278 240.143071 
z
" clip-path="url(#p5a400bd5f5)" style="stroke: #000000; stroke-linejoin: miter"/>
   </g>
   <g id="patch_58">
    <path d="M 89.699034 247.425449 
L 95.688553 247.425449 
L 95.688553 241.43593 
L 89.699034 241.43593 
z
" clip-path="url(#p5a400bd5f5)" style="stroke: #000000; stroke-linejoin: miter"/>
   </g>
   <g id="patch_59">
    <path d="M 117.89353 247.397849 
L 123.827849 247.397849 
L 123.827849 241.46353 
L 117.89353 241.46353 
z
" clip-path="url(#p5a400bd5f5)" style="stroke: #000000; stroke-linejoin: miter"/>
   </g>
   <g id="patch_60">
    <path d="M 145.731119 247.727156 
L 152.324053 247.727156 
L 152.324053 241.134223 
L 145.731119 241.134223 
z
" clip-path="url(#p5a400bd5f5)" style="stroke: #000000; stroke-linejoin: miter"/>
   </g>
   <g id="patch_61">
    <path d="M 173.532442 248.092731 
L 180.856524 248.092731 
L 180.856524 240.768649 
L 173.532442 240.768649 
z
" clip-path="url(#p5a400bd5f5)" style="stroke: #000000; stroke-linejoin: miter"/>
   </g>
   <g id="patch_62">
    <path d="M 201.652987 248.139082 
L 209.069772 248.139082 
L 209.069772 240.722297 
L 201.652987 240.722297 
z
" clip-path="url(#p5a400bd5f5)" style="stroke: #000000; stroke-linejoin: miter"/>
   </g>
   <g id="patch_63">
    <path d="M 231.042717 246.916248 
L 236.013834 246.916248 
L 236.013834 241.945131 
L 231.042717 241.945131 
z
" clip-path="url(#p5a400bd5f5)" style="stroke: #000000; stroke-linejoin: miter"/>
   </g>
   <g id="patch_64">
    <path d="M 259.012015 247.113847 
L 264.37833 247.113847 
L 264.37833 241.747532 
L 259.012015 241.747532 
z
" clip-path="url(#p5a400bd5f5)" style="stroke: #000000; stroke-linejoin: miter"/>
   </g>
   <g id="patch_65">
    <path d="M 286.708178 247.58458 
L 293.01596 247.58458 
L 293.01596 241.276799 
L 286.708178 241.276799 
z
" clip-path="url(#p5a400bd5f5)" style="stroke: #000000; stroke-linejoin: miter"/>
   </g>
   <g id="patch_66">
    <path d="M 315.120994 247.338661 
L 320.936937 247.338661 
L 320.936937 241.522719 
L 315.120994 241.522719 
z
" clip-path="url(#p5a400bd5f5)" style="stroke: #000000; stroke-linejoin: miter"/>
   </g>
   <g id="patch_67">
    <path d="M 343.364392 247.26216 
L 349.027332 247.26216 
L 349.027332 241.59922 
L 343.364392 241.59922 
z
" clip-path="url(#p5a400bd5f5)" style="stroke: #000000; stroke-linejoin: miter"/>
   </g>
   <g id="patch_68">
    <path d="M 371.72222 247.071229 
L 377.003298 247.071229 
L 377.003298 241.790151 
L 371.72222 241.790151 
z
" clip-path="url(#p5a400bd5f5)" style="stroke: #000000; stroke-linejoin: miter"/>
   </g>
   <g id="patch_69">
    <path d="M 400.442446 246.517899 
L 404.616864 246.517899 
L 404.616864 242.343481 
L 400.442446 242.343481 
z
" clip-path="url(#p5a400bd5f5)" style="stroke: #000000; stroke-linejoin: miter"/>
   </g>
   <g id="patch_70">
    <path d="M 427.846731 247.28051 
L 433.546372 247.28051 
L 433.546372 241.580869 
L 427.846731 241.580869 
z
" clip-path="url(#p5a400bd5f5)" style="stroke: #000000; stroke-linejoin: miter"/>
   </g>
   <g id="patch_71">
    <path d="M 456.093022 247.201116 
L 461.633875 247.201116 
L 461.633875 241.660263 
L 456.093022 241.660263 
z
" clip-path="url(#p5a400bd5f5)" style="stroke: #000000; stroke-linejoin: miter"/>
   </g>
   <g id="patch_72">
    <path d="M 484.274449 247.186586 
L 489.786241 247.186586 
L 489.786241 241.674794 
L 484.274449 241.674794 
z
" clip-path="url(#p5a400bd5f5)" style="stroke: #000000; stroke-linejoin: miter"/>
   </g>
   <g id="patch_73">
    <path d="M 512.342623 247.285308 
L 518.051859 247.285308 
L 518.051859 241.576072 
L 512.342623 241.576072 
z
" clip-path="url(#p5a400bd5f5)" style="stroke: #000000; stroke-linejoin: miter"/>
   </g>
   <g id="patch_74">
    <path d="M 539.4582 248.336628 
L 547.270076 248.336628 
L 547.270076 240.524752 
L 539.4582 240.524752 
z
" clip-path="url(#p5a400bd5f5)" style="stroke: #000000; stroke-linejoin: miter"/>
   </g>
   <g id="patch_75">
    <path d="M 567.821051 248.140673 
L 575.241018 248.140673 
L 575.241018 240.720707 
L 567.821051 240.720707 
z
" clip-path="url(#p5a400bd5f5)" style="stroke: #000000; stroke-linejoin: miter"/>
   </g>
   <g id="patch_76">
    <path d="M 596.494917 247.633703 
L 602.900945 247.633703 
L 602.900945 241.227676 
L 596.494917 241.227676 
z
" clip-path="url(#p5a400bd5f5)" style="stroke: #000000; stroke-linejoin: miter"/>
   </g>
   <g id="patch_77">
    <path d="M 623.964969 248.330548 
L 631.764686 248.330548 
L 631.764686 240.530831 
L 623.964969 240.530831 
z
" clip-path="url(#p5a400bd5f5)" style="stroke: #000000; stroke-linejoin: miter"/>
   </g>
   <g id="patch_78">
    <path d="M 652.155023 248.307391 
L 659.908425 248.307391 
L 659.908425 240.553989 
L 652.155023 240.553989 
z
" clip-path="url(#p5a400bd5f5)" style="stroke: #000000; stroke-linejoin: miter"/>
   </g>
   <g id="patch_79">
    <path d="M 679.007893 249.621417 
L 689.389348 249.621417 
L 689.389348 239.239962 
L 679.007893 239.239962 
z
" clip-path="url(#p5a400bd5f5)" style="stroke: #000000; stroke-linejoin: miter"/>
   </g>
   <g id="patch_80">
    <path d="M 707.694092 249.102115 
L 717.036943 249.102115 
L 717.036943 239.759264 
L 707.694092 239.759264 
z
" clip-path="url(#p5a400bd5f5)" style="stroke: #000000; stroke-linejoin: miter"/>
   </g>
   <g id="patch_81">
    <path d="M 734.959839 250.003264 
L 746.104988 250.003264 
L 746.104988 238.858115 
L 734.959839 238.858115 
z
" clip-path="url(#p5a400bd5f5)" style="stroke: #000000; stroke-linejoin: miter"/>
   </g>
   <g id="patch_82">
    <path d="M 762.797888 250.332112 
L 774.600732 250.332112 
L 774.600732 238.529268 
L 762.797888 238.529268 
z
" clip-path="url(#p5a400bd5f5)" style="stroke: #000000; stroke-linejoin: miter"/>
   </g>
   <g id="patch_83">
    <path d="M 790.597849 250.699047 
L 803.134564 250.699047 
L 803.134564 238.162332 
L 790.597849 238.162332 
z
" clip-path="url(#p5a400bd5f5)" style="stroke: #000000; stroke-linejoin: miter"/>
   </g>
   <g id="patch_84">
    <path d="M 61.119269 219.671421 
L 67.934524 219.671421 
L 67.934524 212.856165 
L 61.119269 212.856165 
z
" clip-path="url(#p5a400bd5f5)" style="stroke: #000000; stroke-linejoin: miter"/>
   </g>
   <g id="patch_85">
    <path d="M 89.096873 219.860713 
L 96.290713 219.860713 
L 96.290713 212.666873 
L 89.096873 212.666873 
z
" clip-path="url(#p5a400bd5f5)" style="stroke: #000000; stroke-linejoin: miter"/>
   </g>
   <g id="patch_86">
    <path d="M 117.139717 219.984766 
L 124.581662 219.984766 
L 124.581662 212.542821 
L 117.139717 212.542821 
z
" clip-path="url(#p5a400bd5f5)" style="stroke: #000000; stroke-linejoin: miter"/>
   </g>
   <g id="patch_87">
    <path d="M 146.426978 218.864402 
L 151.628195 218.864402 
L 151.628195 213.663184 
L 146.426978 213.663184 
z
" clip-path="url(#p5a400bd5f5)" style="stroke: #000000; stroke-linejoin: miter"/>
   </g>
   <g id="patch_88">
    <path d="M 174.164598 219.293678 
L 180.224367 219.293678 
L 180.224367 213.233908 
L 174.164598 213.233908 
z
" clip-path="url(#p5a400bd5f5)" style="stroke: #000000; stroke-linejoin: miter"/>
   </g>
   <g id="patch_89">
    <path d="M 202.849851 218.775321 
L 207.872908 218.775321 
L 207.872908 213.752265 
L 202.849851 213.752265 
z
" clip-path="url(#p5a400bd5f5)" style="stroke: #000000; stroke-linejoin: miter"/>
   </g>
   <g id="patch_90">
    <path d="M 230.96566 218.826409 
L 236.090891 218.826409 
L 236.090891 213.701178 
L 230.96566 213.701178 
z
" clip-path="url(#p5a400bd5f5)" style="stroke: #000000; stroke-linejoin: miter"/>
   </g>
   <g id="patch_91">
    <path d="M 258.904608 219.054358 
L 264.485737 219.054358 
L 264.485737 213.473228 
L 258.904608 213.473228 
z
" clip-path="url(#p5a400bd5f5)" style="stroke: #000000; stroke-linejoin: miter"/>
   </g>
   <g id="patch_92">
    <path d="M 287.52767 218.598192 
L 292.196468 218.598192 
L 292.196468 213.929394 
L 287.52767 213.929394 
z
" clip-path="url(#p5a400bd5f5)" style="stroke: #000000; stroke-linejoin: miter"/>
   </g>
   <g id="patch_93">
    <path d="M 315.22744 219.065318 
L 320.830491 219.065318 
L 320.830491 213.462268 
L 315.22744 213.462268 
z
" clip-path="url(#p5a400bd5f5)" style="stroke: #000000; stroke-linejoin: miter"/>
   </g>
   <g id="patch_94">
    <path d="M 343.879065 218.580591 
L 348.51266 218.580591 
L 348.51266 213.946996 
L 343.879065 213.946996 
z
" clip-path="url(#p5a400bd5f5)" style="stroke: #000000; stroke-linejoin: miter"/>
   </g>
   <g id="patch_95">
    <path d="M 372.219234 218.407318 
L 376.506284 218.407318 
L 376.506284 214.120268 
L 372.219234 214.120268 
z
" clip-path="url(#p5a400bd5f5)" style="stroke: #000000; stroke-linejoin: miter"/>
   </g>
   <g id="patch_96">
    <path d="M 400.037718 218.75573 
L 405.021592 218.75573 
L 405.021592 213.771856 
L 400.037718 213.771856 
z
" clip-path="url(#p5a400bd5f5)" style="stroke: #000000; stroke-linejoin: miter"/>
   </g>
   <g id="patch_97">
    <path d="M 428.225921 218.734424 
L 433.167183 218.734424 
L 433.167183 213.793162 
L 428.225921 213.793162 
z
" clip-path="url(#p5a400bd5f5)" style="stroke: #000000; stroke-linejoin: miter"/>
   </g>
   <g id="patch_98">
    <path d="M 456.170136 218.957106 
L 461.556761 218.957106 
L 461.556761 213.570481 
L 456.170136 213.570481 
z
" clip-path="url(#p5a400bd5f5)" style="stroke: #000000; stroke-linejoin: miter"/>
   </g>
   <g id="patch_99">
    <path d="M 484.058645 219.235493 
L 490.002044 219.235493 
L 490.002044 213.292093 
L 484.058645 213.292093 
z
" clip-path="url(#p5a400bd5f5)" style="stroke: #000000; stroke-linejoin: miter"/>
   </g>
   <g id="patch_100">
    <path d="M 513.703116 217.757918 
L 516.691366 217.757918 
L 516.691366 214.769668 
L 513.703116 214.769668 
z
" clip-path="url(#p5a400bd5f5)" style="stroke: #000000; stroke-linejoin: miter"/>
   </g>
   <g id="patch_101">
    <path d="M 540.588657 219.039274 
L 546.139619 219.039274 
L 546.139619 213.488313 
L 540.588657 213.488313 
z
" clip-path="url(#p5a400bd5f5)" style="stroke: #000000; stroke-linejoin: miter"/>
   </g>
   <g id="patch_102">
    <path d="M 568.460725 219.334103 
L 574.601344 219.334103 
L 574.601344 213.193483 
L 568.460725 213.193483 
z
" clip-path="url(#p5a400bd5f5)" style="stroke: #000000; stroke-linejoin: miter"/>
   </g>
   <g id="patch_103">
    <path d="M 596.954323 219.007401 
L 602.441539 219.007401 
L 602.441539 213.520185 
L 596.954323 213.520185 
z
" clip-path="url(#p5a400bd5f5)" style="stroke: #000000; stroke-linejoin: miter"/>
   </g>
   <g id="patch_104">
    <path d="M 624.621662 219.506958 
L 631.107993 219.506958 
L 631.107993 213.020628 
L 624.621662 213.020628 
z
" clip-path="url(#p5a400bd5f5)" style="stroke: #000000; stroke-linejoin: miter"/>
   </g>
   <g id="patch_105">
    <path d="M 652.869228 219.42629 
L 659.194221 219.42629 
L 659.194221 213.101297 
L 652.869228 213.101297 
z
" clip-path="url(#p5a400bd5f5)" style="stroke: #000000; stroke-linejoin: miter"/>
   </g>
   <g id="patch_106">
    <path d="M 680.340925 220.121489 
L 688.056317 220.121489 
L 688.056317 212.406097 
L 680.340925 212.406097 
z
" clip-path="url(#p5a400bd5f5)" style="stroke: #000000; stroke-linejoin: miter"/>
   </g>
   <g id="patch_107">
    <path d="M 708.833687 219.795624 
L 715.897348 219.795624 
L 715.897348 212.731963 
L 708.833687 212.731963 
z
" clip-path="url(#p5a400bd5f5)" style="stroke: #000000; stroke-linejoin: miter"/>
   </g>
   <g id="patch_108">
    <path d="M 736.590018 220.206189 
L 744.474809 220.206189 
L 744.474809 212.321398 
L 736.590018 212.321398 
z
" clip-path="url(#p5a400bd5f5)" style="stroke: #000000; stroke-linejoin: miter"/>
   </g>
   <g id="patch_109">
    <path d="M 764.644031 220.319072 
L 772.754589 220.319072 
L 772.754589 212.208514 
L 764.644031 212.208514 
z
" clip-path="url(#p5a400bd5f5)" style="stroke: #000000; stroke-linejoin: miter"/>
   </g>
   <g id="patch_110">
    <path d="M 792.58534 220.54466 
L 801.147074 220.54466 
L 801.147074 211.982926 
L 792.58534 211.982926 
z
" clip-path="url(#p5a400bd5f5)" style="stroke: #000000; stroke-linejoin: miter"/>
   </g>
   <g id="patch_111">
    <path d="M 60.560561 192.063232 
L 68.493232 192.063232 
L 68.493232 184.130561 
L 60.560561 184.130561 
z
" clip-path="url(#p5a400bd5f5)" style="stroke: #000000; stroke-linejoin: miter"/>
   </g>
   <g id="patch_112">
    <path d="M 89.72285 191.067839 
L 95.664736 191.067839 
L 95.664736 185.125954 
L 89.72285 185.125954 
z
" clip-path="url(#p5a400bd5f5)" style="stroke: #000000; stroke-linejoin: miter"/>
   </g>
   <g id="patch_113">
    <path d="M 117.91863 191.038957 
L 123.80275 191.038957 
L 123.80275 185.154836 
L 117.91863 185.154836 
z
" clip-path="url(#p5a400bd5f5)" style="stroke: #000000; stroke-linejoin: miter"/>
   </g>
   <g id="patch_114">
    <path d="M 146.402797 190.721686 
L 151.652375 190.721686 
L 151.652375 185.472107 
L 146.402797 185.472107 
z
" clip-path="url(#p5a400bd5f5)" style="stroke: #000000; stroke-linejoin: miter"/>
   </g>
   <g id="patch_115">
    <path d="M 174.776757 190.514623 
L 179.612209 190.514623 
L 179.612209 185.67917 
L 174.776757 185.67917 
z
" clip-path="url(#p5a400bd5f5)" style="stroke: #000000; stroke-linejoin: miter"/>
   </g>
   <g id="patch_116">
    <path d="M 203.372449 190.085827 
L 207.350309 190.085827 
L 207.350309 186.107966 
L 203.372449 186.107966 
z
" clip-path="url(#p5a400bd5f5)" style="stroke: #000000; stroke-linejoin: miter"/>
   </g>
   <g id="patch_117">
    <path d="M 230.052925 191.572247 
L 237.003626 191.572247 
L 237.003626 184.621546 
L 230.052925 184.621546 
z
" clip-path="url(#p5a400bd5f5)" style="stroke: #000000; stroke-linejoin: miter"/>
   </g>
   <g id="patch_118">
    <path d="M 259.231896 190.560173 
L 264.158449 190.560173 
L 264.158449 185.63362 
L 259.231896 185.63362 
z
" clip-path="url(#p5a400bd5f5)" style="stroke: #000000; stroke-linejoin: miter"/>
   </g>
   <g id="patch_119">
    <path d="M 287.035508 190.923457 
L 292.68863 190.923457 
L 292.68863 185.270336 
L 287.035508 185.270336 
z
" clip-path="url(#p5a400bd5f5)" style="stroke: #000000; stroke-linejoin: miter"/>
   </g>
   <g id="patch_120">
    <path d="M 315.566539 190.559323 
L 320.491392 190.559323 
L 320.491392 185.63447 
L 315.566539 185.63447 
z
" clip-path="url(#p5a400bd5f5)" style="stroke: #000000; stroke-linejoin: miter"/>
   </g>
   <g id="patch_121">
    <path d="M 343.482657 190.810102 
L 348.909068 190.810102 
L 348.909068 185.383691 
L 343.482657 185.383691 
z
" clip-path="url(#p5a400bd5f5)" style="stroke: #000000; stroke-linejoin: miter"/>
   </g>
   <g id="patch_122">
    <path d="M 371.719602 190.740054 
L 377.005916 190.740054 
L 377.005916 185.453739 
L 371.719602 185.453739 
z
" clip-path="url(#p5a400bd5f5)" style="stroke: #000000; stroke-linejoin: miter"/>
   </g>
   <g id="patch_123">
    <path d="M 399.96453 190.662022 
L 405.09478 190.662022 
L 405.09478 185.531772 
L 399.96453 185.531772 
z
" clip-path="url(#p5a400bd5f5)" style="stroke: #000000; stroke-linejoin: miter"/>
   </g>
   <g id="patch_124">
    <path d="M 428.163278 190.63017 
L 433.229825 190.63017 
L 433.229825 185.563623 
L 428.163278 185.563623 
z
" clip-path="url(#p5a400bd5f5)" style="stroke: #000000; stroke-linejoin: miter"/>
   </g>
   <g id="patch_125">
    <path d="M 456.935329 190.025016 
L 460.791568 190.025016 
L 460.791568 186.168777 
L 456.935329 186.168777 
z
" clip-path="url(#p5a400bd5f5)" style="stroke: #000000; stroke-linejoin: miter"/>
   </g>
   <g id="patch_126">
    <path d="M 484.141651 190.985591 
L 489.919039 190.985591 
L 489.919039 185.208203 
L 484.141651 185.208203 
z
" clip-path="url(#p5a400bd5f5)" style="stroke: #000000; stroke-linejoin: miter"/>
   </g>
   <g id="patch_127">
    <path d="M 511.959556 191.334581 
L 518.434926 191.334581 
L 518.434926 184.859212 
L 511.959556 184.859212 
z
" clip-path="url(#p5a400bd5f5)" style="stroke: #000000; stroke-linejoin: miter"/>
   </g>
   <g id="patch_128">
    <path d="M 540.806141 190.654894 
L 545.922135 190.654894 
L 545.922135 185.538899 
L 540.806141 185.538899 
z
" clip-path="url(#p5a400bd5f5)" style="stroke: #000000; stroke-linejoin: miter"/>
   </g>
   <g id="patch_129">
    <path d="M 568.230763 191.397168 
L 574.831306 191.397168 
L 574.831306 184.796625 
L 568.230763 184.796625 
z
" clip-path="url(#p5a400bd5f5)" style="stroke: #000000; stroke-linejoin: miter"/>
   </g>
   <g id="patch_130">
    <path d="M 596.507592 191.287236 
L 602.88827 191.287236 
L 602.88827 184.906557 
L 596.507592 184.906557 
z
" clip-path="url(#p5a400bd5f5)" style="stroke: #000000; stroke-linejoin: miter"/>
   </g>
   <g id="patch_131">
    <path d="M 624.537973 191.423751 
L 631.191683 191.423751 
L 631.191683 184.770042 
L 624.537973 184.770042 
z
" clip-path="url(#p5a400bd5f5)" style="stroke: #000000; stroke-linejoin: miter"/>
   </g>
   <g id="patch_132">
    <path d="M 653.067397 191.061223 
L 658.996051 191.061223 
L 658.996051 185.13257 
L 653.067397 185.13257 
z
" clip-path="url(#p5a400bd5f5)" style="stroke: #000000; stroke-linejoin: miter"/>
   </g>
   <g id="patch_133">
    <path d="M 680.594689 191.700828 
L 687.802552 191.700828 
L 687.802552 184.492965 
L 680.594689 184.492965 
z
" clip-path="url(#p5a400bd5f5)" style="stroke: #000000; stroke-linejoin: miter"/>
   </g>
   <g id="patch_134">
    <path d="M 708.52498 191.937434 
L 716.206054 191.937434 
L 716.206054 184.256359 
L 708.52498 184.256359 
z
" clip-path="url(#p5a400bd5f5)" style="stroke: #000000; stroke-linejoin: miter"/>
   </g>
   <g id="patch_135">
    <path d="M 736.470807 192.158503 
L 744.59402 192.158503 
L 744.59402 184.03529 
L 736.470807 184.03529 
z
" clip-path="url(#p5a400bd5f5)" style="stroke: #000000; stroke-linejoin: miter"/>
   </g>
   <g id="patch_136">
    <path d="M 764.3096 192.486607 
L 773.089021 192.486607 
L 773.089021 183.707186 
L 764.3096 183.707186 
z
" clip-path="url(#p5a400bd5f5)" style="stroke: #000000; stroke-linejoin: miter"/>
   </g>
   <g id="patch_137">
    <path d="M 792.537325 192.425778 
L 801.195089 192.425778 
L 801.195089 183.768015 
L 792.537325 183.768015 
z
" clip-path="url(#p5a400bd5f5)" style="stroke: #000000; stroke-linejoin: miter"/>
   </g>
   <g id="patch_138">
    <path d="M 61.466546 162.990351 
L 67.587247 162.990351 
L 67.587247 156.869649 
L 61.466546 156.869649 
z
" clip-path="url(#p5a400bd5f5)" style="stroke: #000000; stroke-linejoin: miter"/>
   </g>
   <g id="patch_139">
    <path d="M 89.635837 162.987956 
L 95.751749 162.987956 
L 95.751749 156.872044 
L 89.635837 156.872044 
z
" clip-path="url(#p5a400bd5f5)" style="stroke: #000000; stroke-linejoin: miter"/>
   </g>
   <g id="patch_140">
    <path d="M 118.558816 162.231874 
L 123.162563 162.231874 
L 123.162563 157.628126 
L 118.558816 157.628126 
z
" clip-path="url(#p5a400bd5f5)" style="stroke: #000000; stroke-linejoin: miter"/>
   </g>
   <g id="patch_141">
    <path d="M 146.626477 162.331109 
L 151.428695 162.331109 
L 151.428695 157.528891 
L 146.626477 157.528891 
z
" clip-path="url(#p5a400bd5f5)" style="stroke: #000000; stroke-linejoin: miter"/>
   </g>
   <g id="patch_142">
    <path d="M 174.993276 162.131206 
L 179.395689 162.131206 
L 179.395689 157.728794 
L 174.993276 157.728794 
z
" clip-path="url(#p5a400bd5f5)" style="stroke: #000000; stroke-linejoin: miter"/>
   </g>
   <g id="patch_143">
    <path d="M 202.727093 162.564287 
L 207.995666 162.564287 
L 207.995666 157.295713 
L 202.727093 157.295713 
z
" clip-path="url(#p5a400bd5f5)" style="stroke: #000000; stroke-linejoin: miter"/>
   </g>
   <g id="patch_144">
    <path d="M 231.755269 161.703007 
L 235.301283 161.703007 
L 235.301283 158.156993 
L 231.755269 158.156993 
z
" clip-path="url(#p5a400bd5f5)" style="stroke: #000000; stroke-linejoin: miter"/>
   </g>
   <g id="patch_145">
    <path d="M 260.782863 160.84231 
L 262.607482 160.84231 
L 262.607482 159.01769 
L 260.782863 159.01769 
z
" clip-path="url(#p5a400bd5f5)" style="stroke: #000000; stroke-linejoin: miter"/>
   </g>
   <g id="patch_146">
    <path d="M 287.086125 162.705944 
L 292.638013 162.705944 
L 292.638013 157.154056 
L 287.086125 157.154056 
z
" clip-path="url(#p5a400bd5f5)" style="stroke: #000000; stroke-linejoin: miter"/>
   </g>
   <g id="patch_147">
    <path d="M 316.073275 161.885691 
L 319.984656 161.885691 
L 319.984656 157.974309 
L 316.073275 157.974309 
z
" clip-path="url(#p5a400bd5f5)" style="stroke: #000000; stroke-linejoin: miter"/>
   </g>
   <g id="patch_148">
    <path d="M 343.728107 162.397755 
L 348.663617 162.397755 
L 348.663617 157.462245 
L 343.728107 157.462245 
z
" clip-path="url(#p5a400bd5f5)" style="stroke: #000000; stroke-linejoin: miter"/>
   </g>
   <g id="patch_149">
    <path d="M 372.525062 161.767696 
L 376.200455 161.767696 
L 376.200455 158.092304 
L 372.525062 158.092304 
z
" clip-path="url(#p5a400bd5f5)" style="stroke: #000000; stroke-linejoin: miter"/>
   </g>
   <g id="patch_150">
    <path d="M 400.138331 162.321324 
L 404.920979 162.321324 
L 404.920979 157.538676 
L 400.138331 157.538676 
z
" clip-path="url(#p5a400bd5f5)" style="stroke: #000000; stroke-linejoin: miter"/>
   </g>
   <g id="patch_151">
    <path d="M 428.949993 161.676559 
L 432.443111 161.676559 
L 432.443111 158.183441 
L 428.949993 158.183441 
z
" clip-path="url(#p5a400bd5f5)" style="stroke: #000000; stroke-linejoin: miter"/>
   </g>
   <g id="patch_152">
    <path d="M 456.795122 161.998326 
L 460.931774 161.998326 
L 460.931774 157.861674 
L 456.795122 157.861674 
z
" clip-path="url(#p5a400bd5f5)" style="stroke: #000000; stroke-linejoin: miter"/>
   </g>
   <g id="patch_153">
    <path d="M 484.959967 162.000378 
L 489.100723 162.000378 
L 489.100723 157.859622 
L 484.959967 157.859622 
z
" clip-path="url(#p5a400bd5f5)" style="stroke: #000000; stroke-linejoin: miter"/>
   </g>
   <g id="patch_154">
    <path d="M 513.087433 162.039808 
L 517.30705 162.039808 
L 517.30705 157.820192 
L 513.087433 157.820192 
z
" clip-path="url(#p5a400bd5f5)" style="stroke: #000000; stroke-linejoin: miter"/>
   </g>
   <g id="patch_155">
    <path d="M 541.206685 162.087453 
L 545.521591 162.087453 
L 545.521591 157.772547 
L 541.206685 157.772547 
z
" clip-path="url(#p5a400bd5f5)" style="stroke: #000000; stroke-linejoin: miter"/>
   </g>
   <g id="patch_156">
    <path d="M 569.043738 162.417297 
L 574.018331 162.417297 
L 574.018331 157.442703 
L 569.043738 157.442703 
z
" clip-path="url(#p5a400bd5f5)" style="stroke: #000000; stroke-linejoin: miter"/>
   </g>
   <g id="patch_157">
    <path d="M 596.184768 163.443163 
L 603.211094 163.443163 
L 603.211094 156.416837 
L 596.184768 156.416837 
z
" clip-path="url(#p5a400bd5f5)" style="stroke: #000000; stroke-linejoin: miter"/>
   </g>
   <g id="patch_158">
    <path d="M 625.025589 162.769239 
L 630.704066 162.769239 
L 630.704066 157.090761 
L 625.025589 157.090761 
z
" clip-path="url(#p5a400bd5f5)" style="stroke: #000000; stroke-linejoin: miter"/>
   </g>
   <g id="patch_159">
    <path d="M 653.67733 162.284394 
L 658.386118 162.284394 
L 658.386118 157.575606 
L 653.67733 157.575606 
z
" clip-path="url(#p5a400bd5f5)" style="stroke: #000000; stroke-linejoin: miter"/>
   </g>
   <g id="patch_160">
    <path d="M 681.543669 162.584951 
L 686.853572 162.584951 
L 686.853572 157.275049 
L 681.543669 157.275049 
z
" clip-path="url(#p5a400bd5f5)" style="stroke: #000000; stroke-linejoin: miter"/>
   </g>
   <g id="patch_161">
    <path d="M 708.883637 163.41188 
L 715.847397 163.41188 
L 715.847397 156.44812 
L 708.883637 156.44812 
z
" clip-path="url(#p5a400bd5f5)" style="stroke: #000000; stroke-linejoin: miter"/>
   </g>
   <g id="patch_162">
    <path d="M 736.218676 164.243738 
L 744.846152 164.243738 
L 744.846152 155.616262 
L 736.218676 155.616262 
z
" clip-path="url(#p5a400bd5f5)" style="stroke: #000000; stroke-linejoin: miter"/>
   </g>
   <g id="patch_163">
    <path d="M 764.481407 164.147903 
L 772.917214 164.147903 
L 772.917214 155.712097 
L 764.481407 155.712097 
z
" clip-path="url(#p5a400bd5f5)" style="stroke: #000000; stroke-linejoin: miter"/>
   </g>
   <g id="patch_164">
    <path d="M 792.209522 164.586685 
L 801.522892 164.586685 
L 801.522892 155.273315 
L 792.209522 155.273315 
z
" clip-path="url(#p5a400bd5f5)" style="stroke: #000000; stroke-linejoin: miter"/>
   </g>
   <g id="patch_165">
    <path d="M 60.558283 135.731717 
L 68.49551 135.731717 
L 68.49551 127.79449 
L 60.558283 127.79449 
z
" clip-path="url(#p5a400bd5f5)" style="stroke: #000000; stroke-linejoin: miter"/>
   </g>
   <g id="patch_166">
    <path d="M 89.705975 134.750922 
L 95.681612 134.750922 
L 95.681612 128.775285 
L 89.705975 128.775285 
z
" clip-path="url(#p5a400bd5f5)" style="stroke: #000000; stroke-linejoin: miter"/>
   </g>
   <g id="patch_167">
    <path d="M 118.418979 134.204814 
L 123.3024 134.204814 
L 123.3024 129.321393 
L 118.418979 129.321393 
z
" clip-path="url(#p5a400bd5f5)" style="stroke: #000000; stroke-linejoin: miter"/>
   </g>
   <g id="patch_168">
    <path d="M 146.453164 134.337526 
L 151.602009 134.337526 
L 151.602009 129.188681 
L 146.453164 129.188681 
z
" clip-path="url(#p5a400bd5f5)" style="stroke: #000000; stroke-linejoin: miter"/>
   </g>
   <g id="patch_169">
    <path d="M 174.2997 134.657886 
L 180.089266 134.657886 
L 180.089266 128.868321 
L 174.2997 128.868321 
z
" clip-path="url(#p5a400bd5f5)" style="stroke: #000000; stroke-linejoin: miter"/>
   </g>
   <g id="patch_170">
    <path d="M 202.738643 134.38584 
L 207.984115 134.38584 
L 207.984115 129.140367 
L 202.738643 129.140367 
z
" clip-path="url(#p5a400bd5f5)" style="stroke: #000000; stroke-linejoin: miter"/>
   </g>
   <g id="patch_171">
    <path d="M 231.235925 134.055454 
L 235.820627 134.055454 
L 235.820627 129.470752 
L 231.235925 129.470752 
z
" clip-path="url(#p5a400bd5f5)" style="stroke: #000000; stroke-linejoin: miter"/>
   </g>
   <g id="patch_172">
    <path d="M 259.604071 133.854205 
L 263.786274 133.854205 
L 263.786274 129.672002 
L 259.604071 129.672002 
z
" clip-path="url(#p5a400bd5f5)" style="stroke: #000000; stroke-linejoin: miter"/>
   </g>
   <g id="patch_173">
    <path d="M 286.87891 134.746263 
L 292.845228 134.746263 
L 292.845228 128.779944 
L 286.87891 128.779944 
z
" clip-path="url(#p5a400bd5f5)" style="stroke: #000000; stroke-linejoin: miter"/>
   </g>
   <g id="patch_174">
    <path d="M 315.848099 133.94397 
L 320.209832 133.94397 
L 320.209832 129.582237 
L 315.848099 129.582237 
z
" clip-path="url(#p5a400bd5f5)" style="stroke: #000000; stroke-linejoin: miter"/>
   </g>
   <g id="patch_175">
    <path d="M 343.34177 134.617195 
L 349.049954 134.617195 
L 349.049954 128.909012 
L 343.34177 128.909012 
z
" clip-path="url(#p5a400bd5f5)" style="stroke: #000000; stroke-linejoin: miter"/>
   </g>
   <g id="patch_176">
    <path d="M 371.692753 134.433109 
L 377.032765 134.433109 
L 377.032765 129.093098 
L 371.692753 129.093098 
z
" clip-path="url(#p5a400bd5f5)" style="stroke: #000000; stroke-linejoin: miter"/>
   </g>
   <g id="patch_177">
    <path d="M 399.695937 134.596822 
L 405.363373 134.596822 
L 405.363373 128.929385 
L 399.695937 128.929385 
z
" clip-path="url(#p5a400bd5f5)" style="stroke: #000000; stroke-linejoin: miter"/>
   </g>
   <g id="patch_178">
    <path d="M 428.019778 134.439877 
L 433.373325 134.439877 
L 433.373325 129.08633 
L 428.019778 129.08633 
z
" clip-path="url(#p5a400bd5f5)" style="stroke: #000000; stroke-linejoin: miter"/>
   </g>
   <g id="patch_179">
    <path d="M 455.541846 135.084706 
L 462.185051 135.084706 
L 462.185051 128.441501 
L 455.541846 128.441501 
z
" clip-path="url(#p5a400bd5f5)" style="stroke: #000000; stroke-linejoin: miter"/>
   </g>
   <g id="patch_180">
    <path d="M 484.020961 134.772487 
L 490.039729 134.772487 
L 490.039729 128.753719 
L 484.020961 128.753719 
z
" clip-path="url(#p5a400bd5f5)" style="stroke: #000000; stroke-linejoin: miter"/>
   </g>
   <g id="patch_181">
    <path d="M 512.410231 134.550114 
L 517.984252 134.550114 
L 517.984252 128.976093 
L 512.410231 128.976093 
z
" clip-path="url(#p5a400bd5f5)" style="stroke: #000000; stroke-linejoin: miter"/>
   </g>
   <g id="patch_182">
    <path d="M 539.664322 135.46292 
L 547.063954 135.46292 
L 547.063954 128.063287 
L 539.664322 128.063287 
z
" clip-path="url(#p5a400bd5f5)" style="stroke: #000000; stroke-linejoin: miter"/>
   </g>
   <g id="patch_183">
    <path d="M 567.920885 135.373253 
L 575.141184 135.373253 
L 575.141184 128.152954 
L 567.920885 128.152954 
z
" clip-path="url(#p5a400bd5f5)" style="stroke: #000000; stroke-linejoin: miter"/>
   </g>
   <g id="patch_184">
    <path d="M 595.705234 135.7558 
L 603.690628 135.7558 
L 603.690628 127.770407 
L 595.705234 127.770407 
z
" clip-path="url(#p5a400bd5f5)" style="stroke: #000000; stroke-linejoin: miter"/>
   </g>
   <g id="patch_185">
    <path d="M 623.592625 136.035306 
L 632.13703 136.035306 
L 632.13703 127.490901 
L 623.592625 127.490901 
z
" clip-path="url(#p5a400bd5f5)" style="stroke: #000000; stroke-linejoin: miter"/>
   </g>
   <g id="patch_186">
    <path d="M 651.512341 136.282487 
L 660.551107 136.282487 
L 660.551107 127.24372 
L 651.512341 127.24372 
z
" clip-path="url(#p5a400bd5f5)" style="stroke: #000000; stroke-linejoin: miter"/>
   </g>
   <g id="patch_187">
    <path d="M 679.393163 136.568561 
L 689.004079 136.568561 
L 689.004079 126.957645 
L 679.393163 126.957645 
z
" clip-path="url(#p5a400bd5f5)" style="stroke: #000000; stroke-linejoin: miter"/>
   </g>
   <g id="patch_188">
    <path d="M 707.696787 136.431834 
L 717.034247 136.431834 
L 717.034247 127.094373 
L 707.696787 127.094373 
z
" clip-path="url(#p5a400bd5f5)" style="stroke: #000000; stroke-linejoin: miter"/>
   </g>
   <g id="patch_189">
    <path d="M 735.020896 137.274621 
L 746.043931 137.274621 
L 746.043931 126.251586 
L 735.020896 126.251586 
z
" clip-path="url(#p5a400bd5f5)" style="stroke: #000000; stroke-linejoin: miter"/>
   </g>
   <g id="patch_190">
    <path d="M 762.952467 137.509947 
L 774.446154 137.509947 
L 774.446154 126.01626 
L 762.952467 126.01626 
z
" clip-path="url(#p5a400bd5f5)" style="stroke: #000000; stroke-linejoin: miter"/>
   </g>
   <g id="patch_191">
    <path d="M 791.383582 137.245728 
L 802.348831 137.245728 
L 802.348831 126.280479 
L 791.383582 126.280479 
z
" clip-path="url(#p5a400bd5f5)" style="stroke: #000000; stroke-linejoin: miter"/>
   </g>
   <g id="patch_192">
    <path d="M 60.965992 107.157111 
L 68.087801 107.157111 
L 68.087801 100.035302 
L 60.965992 100.035302 
z
" clip-path="url(#p5a400bd5f5)" style="stroke: #000000; stroke-linejoin: miter"/>
   </g>
   <g id="patch_193">
    <path d="M 90.15265 106.13735 
L 95.234936 106.13735 
L 95.234936 101.055064 
L 90.15265 101.055064 
z
" clip-path="url(#p5a400bd5f5)" style="stroke: #000000; stroke-linejoin: miter"/>
   </g>
   <g id="patch_194">
    <path d="M 118.968221 105.488676 
L 122.753159 105.488676 
L 122.753159 101.703738 
L 118.968221 101.703738 
z
" clip-path="url(#p5a400bd5f5)" style="stroke: #000000; stroke-linejoin: miter"/>
   </g>
   <g id="patch_195">
    <path d="M 146.819099 105.804694 
L 151.236073 105.804694 
L 151.236073 101.38772 
L 146.819099 101.38772 
z
" clip-path="url(#p5a400bd5f5)" style="stroke: #000000; stroke-linejoin: miter"/>
   </g>
   <g id="patch_196">
    <path d="M 175.197468 105.593222 
L 179.191497 105.593222 
L 179.191497 101.599192 
L 175.197468 101.599192 
z
" clip-path="url(#p5a400bd5f5)" style="stroke: #000000; stroke-linejoin: miter"/>
   </g>
   <g id="patch_197">
    <path d="M 203.553848 105.403738 
L 207.168911 105.403738 
L 207.168911 101.788675 
L 203.553848 101.788675 
z
" clip-path="url(#p5a400bd5f5)" style="stroke: #000000; stroke-linejoin: miter"/>
   </g>
   <g id="patch_198">
    <path d="M 231.332054 105.792429 
L 235.724498 105.792429 
L 235.724498 101.399985 
L 231.332054 101.399985 
z
" clip-path="url(#p5a400bd5f5)" style="stroke: #000000; stroke-linejoin: miter"/>
   </g>
   <g id="patch_199">
    <path d="M 259.510753 105.780627 
L 263.879592 105.780627 
L 263.879592 101.411787 
L 259.510753 101.411787 
z
" clip-path="url(#p5a400bd5f5)" style="stroke: #000000; stroke-linejoin: miter"/>
   </g>
   <g id="patch_200">
    <path d="M 287.803896 105.654379 
L 291.920241 105.654379 
L 291.920241 101.538034 
L 287.803896 101.538034 
z
" clip-path="url(#p5a400bd5f5)" style="stroke: #000000; stroke-linejoin: miter"/>
   </g>
   <g id="patch_201">
    <path d="M 316.640836 104.984337 
L 319.417096 104.984337 
L 319.417096 102.208077 
L 316.640836 102.208077 
z
" clip-path="url(#p5a400bd5f5)" style="stroke: #000000; stroke-linejoin: miter"/>
   </g>
   <g id="patch_202">
    <path d="M 344.433942 105.358127 
L 347.957782 105.358127 
L 347.957782 101.834287 
L 344.433942 101.834287 
z
" clip-path="url(#p5a400bd5f5)" style="stroke: #000000; stroke-linejoin: miter"/>
   </g>
   <g id="patch_203">
    <path d="M 372.304531 105.654435 
L 376.420986 105.654435 
L 376.420986 101.537979 
L 372.304531 101.537979 
z
" clip-path="url(#p5a400bd5f5)" style="stroke: #000000; stroke-linejoin: miter"/>
   </g>
   <g id="patch_204">
    <path d="M 400.620369 105.505493 
L 404.438941 105.505493 
L 404.438941 101.686921 
L 400.620369 101.686921 
z
" clip-path="url(#p5a400bd5f5)" style="stroke: #000000; stroke-linejoin: miter"/>
   </g>
   <g id="patch_205">
    <path d="M 429.034465 105.258294 
L 432.358638 105.258294 
L 432.358638 101.93412 
L 429.034465 101.93412 
z
" clip-path="url(#p5a400bd5f5)" style="stroke: #000000; stroke-linejoin: miter"/>
   </g>
   <g id="patch_206">
    <path d="M 456.565797 105.893858 
L 461.1611 105.893858 
L 461.1611 101.298556 
L 456.565797 101.298556 
z
" clip-path="url(#p5a400bd5f5)" style="stroke: #000000; stroke-linejoin: miter"/>
   </g>
   <g id="patch_207">
    <path d="M 485.155818 105.470733 
L 488.904871 105.470733 
L 488.904871 101.72168 
L 485.155818 101.72168 
z
" clip-path="url(#p5a400bd5f5)" style="stroke: #000000; stroke-linejoin: miter"/>
   </g>
   <g id="patch_208">
    <path d="M 512.522902 106.270546 
L 517.87158 106.270546 
L 517.87158 100.921868 
L 512.522902 100.921868 
z
" clip-path="url(#p5a400bd5f5)" style="stroke: #000000; stroke-linejoin: miter"/>
   </g>
   <g id="patch_209">
    <path d="M 540.984787 105.975558 
L 545.743489 105.975558 
L 545.743489 101.216856 
L 540.984787 101.216856 
z
" clip-path="url(#p5a400bd5f5)" style="stroke: #000000; stroke-linejoin: miter"/>
   </g>
   <g id="patch_210">
    <path d="M 569.24567 105.881572 
L 573.816399 105.881572 
L 573.816399 101.310842 
L 569.24567 101.310842 
z
" clip-path="url(#p5a400bd5f5)" style="stroke: #000000; stroke-linejoin: miter"/>
   </g>
   <g id="patch_211">
    <path d="M 597.044359 106.249779 
L 602.351503 106.249779 
L 602.351503 100.942634 
L 597.044359 100.942634 
z
" clip-path="url(#p5a400bd5f5)" style="stroke: #000000; stroke-linejoin: miter"/>
   </g>
   <g id="patch_212">
    <path d="M 625.320958 106.140077 
L 630.408697 106.140077 
L 630.408697 101.052337 
L 625.320958 101.052337 
z
" clip-path="url(#p5a400bd5f5)" style="stroke: #000000; stroke-linejoin: miter"/>
   </g>
   <g id="patch_213">
    <path d="M 653.461977 106.165954 
L 658.601471 106.165954 
L 658.601471 101.02646 
L 653.461977 101.02646 
z
" clip-path="url(#p5a400bd5f5)" style="stroke: #000000; stroke-linejoin: miter"/>
   </g>
   <g id="patch_214">
    <path d="M 680.753962 107.040866 
L 687.64328 107.040866 
L 687.64328 100.151548 
L 680.753962 100.151548 
z
" clip-path="url(#p5a400bd5f5)" style="stroke: #000000; stroke-linejoin: miter"/>
   </g>
   <g id="patch_215">
    <path d="M 709.086026 106.875699 
L 715.645009 106.875699 
L 715.645009 100.316715 
L 709.086026 100.316715 
z
" clip-path="url(#p5a400bd5f5)" style="stroke: #000000; stroke-linejoin: miter"/>
   </g>
   <g id="patch_216">
    <path d="M 736.795541 107.33308 
L 744.269287 107.33308 
L 744.269287 99.859334 
L 736.795541 99.859334 
z
" clip-path="url(#p5a400bd5f5)" style="stroke: #000000; stroke-linejoin: miter"/>
   </g>
   <g id="patch_217">
    <path d="M 764.428983 107.866535 
L 772.969638 107.866535 
L 772.969638 99.325879 
L 764.428983 99.325879 
z
" clip-path="url(#p5a400bd5f5)" style="stroke: #000000; stroke-linejoin: miter"/>
   </g>
   <g id="patch_218">
    <path d="M 792.309255 108.153159 
L 801.423159 108.153159 
L 801.423159 99.039255 
L 792.309255 99.039255 
z
" clip-path="url(#p5a400bd5f5)" style="stroke: #000000; stroke-linejoin: miter"/>
   </g>
   <g id="patch_219">
    <path d="M 60.465669 79.490538 
L 68.588124 79.490538 
L 68.588124 71.368083 
L 60.465669 71.368083 
z
" clip-path="url(#p5a400bd5f5)" style="stroke: #000000; stroke-linejoin: miter"/>
   </g>
   <g id="patch_220">
    <path d="M 88.718828 79.404276 
L 96.668758 79.404276 
L 96.668758 71.454345 
L 88.718828 71.454345 
z
" clip-path="url(#p5a400bd5f5)" style="stroke: #000000; stroke-linejoin: miter"/>
   </g>
   <g id="patch_221">
    <path d="M 117.914186 78.375814 
L 123.807194 78.375814 
L 123.807194 72.482806 
L 117.914186 72.482806 
z
" clip-path="url(#p5a400bd5f5)" style="stroke: #000000; stroke-linejoin: miter"/>
   </g>
   <g id="patch_222">
    <path d="M 145.545945 78.910951 
L 152.509227 78.910951 
L 152.509227 71.94767 
L 145.545945 71.94767 
z
" clip-path="url(#p5a400bd5f5)" style="stroke: #000000; stroke-linejoin: miter"/>
   </g>
   <g id="patch_223">
    <path d="M 173.737471 78.886322 
L 180.651494 78.886322 
L 180.651494 71.972299 
L 173.737471 71.972299 
z
" clip-path="url(#p5a400bd5f5)" style="stroke: #000000; stroke-linejoin: miter"/>
   </g>
   <g id="patch_224">
    <path d="M 202.228829 78.561861 
L 208.49393 78.561861 
L 208.49393 72.29676 
L 202.228829 72.29676 
z
" clip-path="url(#p5a400bd5f5)" style="stroke: #000000; stroke-linejoin: miter"/>
   </g>
   <g id="patch_225">
    <path d="M 230.905838 78.051748 
L 236.150714 78.051748 
L 236.150714 72.806872 
L 230.905838 72.806872 
z
" clip-path="url(#p5a400bd5f5)" style="stroke: #000000; stroke-linejoin: miter"/>
   </g>
   <g id="patch_226">
    <path d="M 260.241275 76.883208 
L 263.14907 76.883208 
L 263.14907 73.975413 
L 260.241275 73.975413 
z
" clip-path="url(#p5a400bd5f5)" style="stroke: #000000; stroke-linejoin: miter"/>
   </g>
   <g id="patch_227">
    <path d="M 287.292061 77.999319 
L 292.432077 77.999319 
L 292.432077 72.859302 
L 287.292061 72.859302 
z
" clip-path="url(#p5a400bd5f5)" style="stroke: #000000; stroke-linejoin: miter"/>
   </g>
   <g id="patch_228">
    <path d="M 315.307503 78.150773 
L 320.750428 78.150773 
L 320.750428 72.707848 
L 315.307503 72.707848 
z
" clip-path="url(#p5a400bd5f5)" style="stroke: #000000; stroke-linejoin: miter"/>
   </g>
   <g id="patch_229">
    <path d="M 344.265753 77.35942 
L 348.125972 77.35942 
L 348.125972 73.499201 
L 344.265753 73.499201 
z
" clip-path="url(#p5a400bd5f5)" style="stroke: #000000; stroke-linejoin: miter"/>
   </g>
   <g id="patch_230">
    <path d="M 371.100563 78.691506 
L 377.624955 78.691506 
L 377.624955 72.167114 
L 371.100563 72.167114 
z
" clip-path="url(#p5a400bd5f5)" style="stroke: #000000; stroke-linejoin: miter"/>
   </g>
   <g id="patch_231">
    <path d="M 399.906219 78.052747 
L 405.153091 78.052747 
L 405.153091 72.805874 
L 399.906219 72.805874 
z
" clip-path="url(#p5a400bd5f5)" style="stroke: #000000; stroke-linejoin: miter"/>
   </g>
   <g id="patch_232">
    <path d="M 427.678451 78.447411 
L 433.714652 78.447411 
L 433.714652 72.41121 
L 427.678451 72.41121 
z
" clip-path="url(#p5a400bd5f5)" style="stroke: #000000; stroke-linejoin: miter"/>
   </g>
   <g id="patch_233">
    <path d="M 456.427862 77.864896 
L 461.299034 77.864896 
L 461.299034 72.993724 
L 456.427862 72.993724 
z
" clip-path="url(#p5a400bd5f5)" style="stroke: #000000; stroke-linejoin: miter"/>
   </g>
   <g id="patch_234">
    <path d="M 483.912158 78.547497 
L 490.148531 78.547497 
L 490.148531 72.311124 
L 483.912158 72.311124 
z
" clip-path="url(#p5a400bd5f5)" style="stroke: #000000; stroke-linejoin: miter"/>
   </g>
   <g id="patch_235">
    <path d="M 512.130002 78.49655 
L 518.264481 78.49655 
L 518.264481 72.362071 
L 512.130002 72.362071 
z
" clip-path="url(#p5a400bd5f5)" style="stroke: #000000; stroke-linejoin: miter"/>
   </g>
   <g id="patch_236">
    <path d="M 541.804432 76.989017 
L 544.923844 76.989017 
L 544.923844 73.869604 
L 541.804432 73.869604 
z
" clip-path="url(#p5a400bd5f5)" style="stroke: #000000; stroke-linejoin: miter"/>
   </g>
   <g id="patch_237">
    <path d="M 568.576562 78.383783 
L 574.485507 78.383783 
L 574.485507 72.474838 
L 568.576562 72.474838 
z
" clip-path="url(#p5a400bd5f5)" style="stroke: #000000; stroke-linejoin: miter"/>
   </g>
   <g id="patch_238">
    <path d="M 596.374307 78.752934 
L 603.021555 78.752934 
L 603.021555 72.105687 
L 596.374307 72.105687 
z
" clip-path="url(#p5a400bd5f5)" style="stroke: #000000; stroke-linejoin: miter"/>
   </g>
   <g id="patch_239">
    <path d="M 623.435029 79.859109 
L 632.294627 79.859109 
L 632.294627 70.999511 
L 623.435029 70.999511 
z
" clip-path="url(#p5a400bd5f5)" style="stroke: #000000; stroke-linejoin: miter"/>
   </g>
   <g id="patch_240">
    <path d="M 652.028272 79.432762 
L 660.035176 79.432762 
L 660.035176 71.425859 
L 652.028272 71.425859 
z
" clip-path="url(#p5a400bd5f5)" style="stroke: #000000; stroke-linejoin: miter"/>
   </g>
   <g id="patch_241">
    <path d="M 680.464258 79.163673 
L 687.932984 79.163673 
L 687.932984 71.694947 
L 680.464258 71.694947 
z
" clip-path="url(#p5a400bd5f5)" style="stroke: #000000; stroke-linejoin: miter"/>
   </g>
   <g id="patch_242">
    <path d="M 707.836883 79.957944 
L 716.894151 79.957944 
L 716.894151 70.900676 
L 707.836883 70.900676 
z
" clip-path="url(#p5a400bd5f5)" style="stroke: #000000; stroke-linejoin: miter"/>
   </g>
   <g id="patch_243">
    <path d="M 735.647738 80.313987 
L 745.41709 80.313987 
L 745.41709 70.544634 
L 735.647738 70.544634 
z
" clip-path="url(#p5a400bd5f5)" style="stroke: #000000; stroke-linejoin: miter"/>
   </g>
   <g id="patch_244">
    <path d="M 762.250634 81.877986 
L 775.147986 81.877986 
L 775.147986 68.980634 
L 762.250634 68.980634 
z
" clip-path="url(#p5a400bd5f5)" style="stroke: #000000; stroke-linejoin: miter"/>
   </g>
   <g id="patch_245">
    <path d="M 789.522321 82.773196 
L 804.210093 82.773196 
L 804.210093 68.085424 
L 789.522321 68.085424 
z
" clip-path="url(#p5a400bd5f5)" style="stroke: #000000; stroke-linejoin: miter"/>
   </g>
   <g id="matplotlib.axis_1">
    <g id="xtick_1">
     <g id="line2d_1">
      <defs>
       <path id="mafd0e903d7" d="M 0 0 
L 0 3.5 
" style="stroke: #000000; stroke-width: 0.8"/>
      </defs>
      <g>
       <use xlink:href="#mafd0e903d7" x="64.526897" y="328.931379" style="stroke: #000000; stroke-width: 0.8"/>
      </g>
     </g>
     <g id="text_1">
      <!-- 1 -->
      <g transform="translate(61.51674 350.082942) scale(0.1 -0.1)">
       <defs>
        <path id="DejaVuSansMono-31" d="M 844 531 
L 1825 531 
L 1825 4097 
L 769 3859 
L 769 4434 
L 1819 4666 
L 2450 4666 
L 2450 531 
L 3419 531 
L 3419 0 
L 844 0 
L 844 531 
z
" transform="scale(0.015625)"/>
       </defs>
       <use xlink:href="#DejaVuSansMono-31"/>
      </g>
     </g>
    </g>
    <g id="xtick_2">
     <g id="line2d_2">
      <g>
       <use xlink:href="#mafd0e903d7" x="796.866207" y="328.931379" style="stroke: #000000; stroke-width: 0.8"/>
      </g>
     </g>
     <g id="text_2">
      <!-- 1000 -->
      <g transform="translate(784.825582 350.082942) scale(0.1 -0.1)">
       <defs>
        <path id="DejaVuSansMono-30" d="M 1509 2344 
Q 1509 2516 1629 2641 
Q 1750 2766 1919 2766 
Q 2094 2766 2219 2641 
Q 2344 2516 2344 2344 
Q 2344 2169 2220 2047 
Q 2097 1925 1919 1925 
Q 1744 1925 1626 2044 
Q 1509 2163 1509 2344 
z
M 1925 4250 
Q 1484 4250 1267 3775 
Q 1050 3300 1050 2328 
Q 1050 1359 1267 884 
Q 1484 409 1925 409 
Q 2369 409 2586 884 
Q 2803 1359 2803 2328 
Q 2803 3300 2586 3775 
Q 2369 4250 1925 4250 
z
M 1925 4750 
Q 2672 4750 3055 4137 
Q 3438 3525 3438 2328 
Q 3438 1134 3055 521 
Q 2672 -91 1925 -91 
Q 1178 -91 797 521 
Q 416 1134 416 2328 
Q 416 3525 797 4137 
Q 1178 4750 1925 4750 
z
" transform="scale(0.015625)"/>
       </defs>
       <use xlink:href="#DejaVuSansMono-31"/>
       <use xlink:href="#DejaVuSansMono-30" x="60.205078"/>
       <use xlink:href="#DejaVuSansMono-30" x="120.410156"/>
       <use xlink:href="#DejaVuSansMono-30" x="180.615234"/>
      </g>
     </g>
    </g>
   </g>
   <g id="matplotlib.axis_2">
    <g id="ytick_1">
     <g id="line2d_3">
      <defs>
       <path id="m1c4c1c7179" d="M 0 0 
L -3.5 0 
" style="stroke: #000000; stroke-width: 0.8"/>
      </defs>
      <g>
       <use xlink:href="#m1c4c1c7179" x="36.36" y="300.764483" style="stroke: #000000; stroke-width: 0.8"/>
      </g>
     </g>
     <g id="text_3">
      <!-- 2 -->
      <g transform="translate(16.839687 304.590264) scale(0.1 -0.1)">
       <defs>
        <path id="DejaVuSansMono-32" d="M 1166 531 
L 3309 531 
L 3309 0 
L 475 0 
L 475 531 
Q 1059 1147 1496 1619 
Q 1934 2091 2100 2284 
Q 2413 2666 2522 2902 
Q 2631 3138 2631 3384 
Q 2631 3775 2401 3997 
Q 2172 4219 1772 4219 
Q 1488 4219 1175 4116 
Q 863 4013 513 3803 
L 513 4441 
Q 834 4594 1145 4672 
Q 1456 4750 1759 4750 
Q 2444 4750 2861 4386 
Q 3278 4022 3278 3431 
Q 3278 3131 3139 2831 
Q 3000 2531 2688 2169 
Q 2513 1966 2180 1606 
Q 1847 1247 1166 531 
z
" transform="scale(0.015625)"/>
       </defs>
       <use xlink:href="#DejaVuSansMono-32"/>
      </g>
     </g>
    </g>
    <g id="ytick_2">
     <g id="line2d_4">
      <g>
       <use xlink:href="#m1c4c1c7179" x="36.36" y="272.597586" style="stroke: #000000; stroke-width: 0.8"/>
      </g>
     </g>
     <g id="text_4">
      <!-- 3 -->
      <g transform="translate(16.839687 276.423367) scale(0.1 -0.1)">
       <defs>
        <path id="DejaVuSansMono-33" d="M 2425 2497 
Q 2884 2375 3128 2064 
Q 3372 1753 3372 1288 
Q 3372 644 2939 276 
Q 2506 -91 1741 -91 
Q 1419 -91 1084 -31 
Q 750 28 428 141 
L 428 769 
Q 747 603 1056 522 
Q 1366 441 1672 441 
Q 2191 441 2469 675 
Q 2747 909 2747 1350 
Q 2747 1756 2469 1995 
Q 2191 2234 1716 2234 
L 1234 2234 
L 1234 2753 
L 1716 2753 
Q 2150 2753 2394 2943 
Q 2638 3134 2638 3475 
Q 2638 3834 2411 4026 
Q 2184 4219 1766 4219 
Q 1488 4219 1191 4156 
Q 894 4094 569 3969 
L 569 4550 
Q 947 4650 1242 4700 
Q 1538 4750 1766 4750 
Q 2447 4750 2855 4408 
Q 3263 4066 3263 3500 
Q 3263 3116 3048 2859 
Q 2834 2603 2425 2497 
z
" transform="scale(0.015625)"/>
       </defs>
       <use xlink:href="#DejaVuSansMono-33"/>
      </g>
     </g>
    </g>
    <g id="ytick_3">
     <g id="line2d_5">
      <g>
       <use xlink:href="#m1c4c1c7179" x="36.36" y="244.43069" style="stroke: #000000; stroke-width: 0.8"/>
      </g>
     </g>
     <g id="text_5">
      <!-- 5 -->
      <g transform="translate(16.839687 248.256471) scale(0.1 -0.1)">
       <defs>
        <path id="DejaVuSansMono-35" d="M 647 4666 
L 3009 4666 
L 3009 4134 
L 1222 4134 
L 1222 2988 
Q 1356 3038 1492 3061 
Q 1628 3084 1766 3084 
Q 2491 3084 2916 2656 
Q 3341 2228 3341 1497 
Q 3341 759 2895 334 
Q 2450 -91 1678 -91 
Q 1306 -91 998 -41 
Q 691 9 447 109 
L 447 750 
Q 734 594 1025 517 
Q 1316 441 1619 441 
Q 2141 441 2423 716 
Q 2706 991 2706 1497 
Q 2706 1997 2414 2275 
Q 2122 2553 1600 2553 
Q 1347 2553 1106 2495 
Q 866 2438 647 2322 
L 647 4666 
z
" transform="scale(0.015625)"/>
       </defs>
       <use xlink:href="#DejaVuSansMono-35"/>
      </g>
     </g>
    </g>
    <g id="ytick_4">
     <g id="line2d_6">
      <g>
       <use xlink:href="#m1c4c1c7179" x="36.36" y="216.263793" style="stroke: #000000; stroke-width: 0.8"/>
      </g>
     </g>
     <g id="text_6">
      <!-- 7 -->
      <g transform="translate(16.839687 220.089574) scale(0.1 -0.1)">
       <defs>
        <path id="DejaVuSansMono-37" d="M 434 4666 
L 3372 4666 
L 3372 4397 
L 1703 0 
L 1044 0 
L 2669 4134 
L 434 4134 
L 434 4666 
z
" transform="scale(0.015625)"/>
       </defs>
       <use xlink:href="#DejaVuSansMono-37"/>
      </g>
     </g>
    </g>
    <g id="ytick_5">
     <g id="line2d_7">
      <g>
       <use xlink:href="#m1c4c1c7179" x="36.36" y="188.096897" style="stroke: #000000; stroke-width: 0.8"/>
      </g>
     </g>
     <g id="text_7">
      <!-- 11 -->
      <g transform="translate(10.819375 191.922678) scale(0.1 -0.1)">
       <use xlink:href="#DejaVuSansMono-31"/>
       <use xlink:href="#DejaVuSansMono-31" x="60.205078"/>
      </g>
     </g>
    </g>
    <g id="ytick_6">
     <g id="line2d_8">
      <g>
       <use xlink:href="#m1c4c1c7179" x="36.36" y="159.93" style="stroke: #000000; stroke-width: 0.8"/>
      </g>
     </g>
     <g id="text_8">
      <!-- 13 -->
      <g transform="translate(10.819375 163.755781) scale(0.1 -0.1)">
       <use xlink:href="#DejaVuSansMono-31"/>
       <use xlink:href="#DejaVuSansMono-33" x="60.205078"/>
      </g>
     </g>
    </g>
    <g id="ytick_7">
     <g id="line2d_9">
      <g>
       <use xlink:href="#m1c4c1c7179" x="36.36" y="131.763103" style="stroke: #000000; stroke-width: 0.8"/>
      </g>
     </g>
     <g id="text_9">
      <!-- 17 -->
      <g transform="translate(10.819375 135.588885) scale(0.1 -0.1)">
       <use xlink:href="#DejaVuSansMono-31"/>
       <use xlink:href="#DejaVuSansMono-37" x="60.205078"/>
      </g>
     </g>
    </g>
    <g id="ytick_8">
     <g id="line2d_10">
      <g>
       <use xlink:href="#m1c4c1c7179" x="36.36" y="103.596207" style="stroke: #000000; stroke-width: 0.8"/>
      </g>
     </g>
     <g id="text_10">
      <!-- 19 -->
      <g transform="translate(10.819375 107.421988) scale(0.1 -0.1)">
       <defs>
        <path id="DejaVuSansMono-39" d="M 1863 2069 
Q 2266 2069 2495 2359 
Q 2725 2650 2725 3163 
Q 2725 3675 2495 3965 
Q 2266 4256 1863 4256 
Q 1444 4256 1231 3979 
Q 1019 3703 1019 3163 
Q 1019 2619 1230 2344 
Q 1441 2069 1863 2069 
z
M 738 97 
L 738 678 
Q 934 563 1156 502 
Q 1378 441 1619 441 
Q 2219 441 2526 892 
Q 2834 1344 2834 2222 
Q 2688 1909 2422 1742 
Q 2156 1575 1813 1575 
Q 1138 1575 767 1990 
Q 397 2406 397 3169 
Q 397 3922 776 4336 
Q 1156 4750 1850 4750 
Q 2663 4750 3041 4165 
Q 3419 3581 3419 2328 
Q 3419 1150 2964 529 
Q 2509 -91 1644 -91 
Q 1416 -91 1184 -42 
Q 953 6 738 97 
z
" transform="scale(0.015625)"/>
       </defs>
       <use xlink:href="#DejaVuSansMono-31"/>
       <use xlink:href="#DejaVuSansMono-39" x="60.205078"/>
      </g>
     </g>
    </g>
    <g id="ytick_9">
     <g id="line2d_11">
      <g>
       <use xlink:href="#m1c4c1c7179" x="36.36" y="75.42931" style="stroke: #000000; stroke-width: 0.8"/>
      </g>
     </g>
     <g id="text_11">
      <!--  -->
      <g transform="translate(16.839687 79.255092) scale(0.1 -0.1)">
       <defs>
        <path id="DejaVuSansMono-2119" d="M 506 4353 
L 506 313 
L 1106 313 
L 1106 4353 
L 506 4353 
z
M 1406 4353 
L 1406 2284 
L 2306 2284 
Q 2378 2284 2447 2291 
L 2447 4347 
Q 2378 4353 2306 4353 
L 1406 4353 
z
M 206 4666 
L 2166 4666 
Q 2913 4666 3297 4323 
Q 3681 3981 3681 3322 
Q 3681 2656 3297 2315 
Q 2913 1975 2163 1975 
L 1406 1975 
L 1406 0 
L 206 0 
L 206 4666 
z
M 2759 4281 
L 2759 2359 
Q 2941 2428 3075 2556 
Q 3353 2825 3353 3322 
Q 3353 3816 3078 4084 
Q 2947 4213 2759 4281 
z
" transform="scale(0.015625)"/>
       </defs>
       <use xlink:href="#DejaVuSansMono-2119"/>
      </g>
     </g>
    </g>
   </g>
  </g>
 </g>
 <defs>
  <clipPath id="p5a400bd5f5">
   <rect x="36.36" y="19.095517" width="816.84" height="309.835862"/>
  </clipPath>
 </defs>
</svg>
