<?xml version="1.0" encoding="utf-8" standalone="no"?>
<!DOCTYPE svg PUBLIC "-//W3C//DTD SVG 1.1//EN"
  "http://www.w3.org/Graphics/SVG/1.1/DTD/svg11.dtd">
<svg xmlns:xlink="http://www.w3.org/1999/xlink" width="864pt" height="432pt" viewBox="0 0 864 432" xmlns="http://www.w3.org/2000/svg" version="1.1">
 <metadata>
  <rdf:RDF xmlns:dc="http://purl.org/dc/elements/1.1/" xmlns:cc="http://creativecommons.org/ns#" xmlns:rdf="http://www.w3.org/1999/02/22-rdf-syntax-ns#">
   <cc:Work>
    <dc:type rdf:resource="http://purl.org/dc/dcmitype/StillImage"/>
    <dc:date>2024-09-19T11:06:33.028463</dc:date>
    <dc:format>image/svg+xml</dc:format>
    <dc:creator>
     <cc:Agent>
      <dc:title>Matplotlib v3.9.2, https://matplotlib.org/</dc:title>
     </cc:Agent>
    </dc:creator>
   </cc:Work>
  </rdf:RDF>
 </metadata>
 <defs>
  <style type="text/css">*{stroke-linejoin: round; stroke-linecap: butt}</style>
 </defs>
 <g id="figure_1">
  <g id="patch_1">
   <path d="M 0 432 
L 864 432 
L 864 0 
L 0 0 
z
" style="fill: #ffffff"/>
  </g>
  <g id="axes_1">
   <g id="patch_2">
    <path d="M 35.89 404.12 
L 853.2 404.12 
L 853.2 10.8 
L 35.89 10.8 
z
" style="fill: #ffffff"/>
   </g>
   <g id="matplotlib.axis_1">
    <g id="xtick_1">
     <g id="line2d_1">
      <defs>
       <path id="m5bc5efc55b" d="M 0 0 
L 0 3.5 
" style="stroke: #000000; stroke-width: 0.8"/>
      </defs>
      <g>
       <use xlink:href="#m5bc5efc55b" x="194.186534" y="404.12" style="stroke: #000000; stroke-width: 0.8"/>
      </g>
     </g>
     <g id="text_1">
      <!-- 200 -->
      <g transform="translate(185.156065 418.771563) scale(0.1 -0.1)">
       <defs>
        <path id="DejaVuSansMono-32" d="M 1166 531 
L 3309 531 
L 3309 0 
L 475 0 
L 475 531 
Q 1059 1147 1496 1619 
Q 1934 2091 2100 2284 
Q 2413 2666 2522 2902 
Q 2631 3138 2631 3384 
Q 2631 3775 2401 3997 
Q 2172 4219 1772 4219 
Q 1488 4219 1175 4116 
Q 863 4013 513 3803 
L 513 4441 
Q 834 4594 1145 4672 
Q 1456 4750 1759 4750 
Q 2444 4750 2861 4386 
Q 3278 4022 3278 3431 
Q 3278 3131 3139 2831 
Q 3000 2531 2688 2169 
Q 2513 1966 2180 1606 
Q 1847 1247 1166 531 
z
" transform="scale(0.015625)"/>
        <path id="DejaVuSansMono-30" d="M 1509 2344 
Q 1509 2516 1629 2641 
Q 1750 2766 1919 2766 
Q 2094 2766 2219 2641 
Q 2344 2516 2344 2344 
Q 2344 2169 2220 2047 
Q 2097 1925 1919 1925 
Q 1744 1925 1626 2044 
Q 1509 2163 1509 2344 
z
M 1925 4250 
Q 1484 4250 1267 3775 
Q 1050 3300 1050 2328 
Q 1050 1359 1267 884 
Q 1484 409 1925 409 
Q 2369 409 2586 884 
Q 2803 1359 2803 2328 
Q 2803 3300 2586 3775 
Q 2369 4250 1925 4250 
z
M 1925 4750 
Q 2672 4750 3055 4137 
Q 3438 3525 3438 2328 
Q 3438 1134 3055 521 
Q 2672 -91 1925 -91 
Q 1178 -91 797 521 
Q 416 1134 416 2328 
Q 416 3525 797 4137 
Q 1178 4750 1925 4750 
z
" transform="scale(0.015625)"/>
       </defs>
       <use xlink:href="#DejaVuSansMono-32"/>
       <use xlink:href="#DejaVuSansMono-30" x="60.205078"/>
       <use xlink:href="#DejaVuSansMono-30" x="120.410156"/>
      </g>
     </g>
    </g>
    <g id="xtick_2">
     <g id="line2d_2">
      <g>
       <use xlink:href="#m5bc5efc55b" x="360.814465" y="404.12" style="stroke: #000000; stroke-width: 0.8"/>
      </g>
     </g>
     <g id="text_2">
      <!-- 400 -->
      <g transform="translate(351.783996 418.771563) scale(0.1 -0.1)">
       <defs>
        <path id="DejaVuSansMono-34" d="M 2297 4091 
L 825 1625 
L 2297 1625 
L 2297 4091 
z
M 2194 4666 
L 2925 4666 
L 2925 1625 
L 3547 1625 
L 3547 1113 
L 2925 1113 
L 2925 0 
L 2297 0 
L 2297 1113 
L 319 1113 
L 319 1709 
L 2194 4666 
z
" transform="scale(0.015625)"/>
       </defs>
       <use xlink:href="#DejaVuSansMono-34"/>
       <use xlink:href="#DejaVuSansMono-30" x="60.205078"/>
       <use xlink:href="#DejaVuSansMono-30" x="120.410156"/>
      </g>
     </g>
    </g>
    <g id="xtick_3">
     <g id="line2d_3">
      <g>
       <use xlink:href="#m5bc5efc55b" x="527.442396" y="404.12" style="stroke: #000000; stroke-width: 0.8"/>
      </g>
     </g>
     <g id="text_3">
      <!-- 600 -->
      <g transform="translate(518.411927 418.771563) scale(0.1 -0.1)">
       <defs>
        <path id="DejaVuSansMono-36" d="M 3097 4563 
L 3097 3981 
Q 2900 4097 2678 4158 
Q 2456 4219 2216 4219 
Q 1616 4219 1306 3767 
Q 997 3316 997 2438 
Q 1147 2750 1412 2917 
Q 1678 3084 2022 3084 
Q 2697 3084 3067 2670 
Q 3438 2256 3438 1497 
Q 3438 741 3056 325 
Q 2675 -91 1984 -91 
Q 1172 -91 794 492 
Q 416 1075 416 2328 
Q 416 3509 870 4129 
Q 1325 4750 2188 4750 
Q 2419 4750 2650 4701 
Q 2881 4653 3097 4563 
z
M 1972 2591 
Q 1569 2591 1337 2300 
Q 1106 2009 1106 1497 
Q 1106 984 1337 693 
Q 1569 403 1972 403 
Q 2391 403 2603 679 
Q 2816 956 2816 1497 
Q 2816 2041 2603 2316 
Q 2391 2591 1972 2591 
z
" transform="scale(0.015625)"/>
       </defs>
       <use xlink:href="#DejaVuSansMono-36"/>
       <use xlink:href="#DejaVuSansMono-30" x="60.205078"/>
       <use xlink:href="#DejaVuSansMono-30" x="120.410156"/>
      </g>
     </g>
    </g>
    <g id="xtick_4">
     <g id="line2d_4">
      <g>
       <use xlink:href="#m5bc5efc55b" x="694.070326" y="404.12" style="stroke: #000000; stroke-width: 0.8"/>
      </g>
     </g>
     <g id="text_4">
      <!-- 800 -->
      <g transform="translate(685.039857 418.771563) scale(0.1 -0.1)">
       <defs>
        <path id="DejaVuSansMono-38" d="M 1925 2216 
Q 1503 2216 1273 1980 
Q 1044 1744 1044 1313 
Q 1044 881 1276 642 
Q 1509 403 1925 403 
Q 2350 403 2579 639 
Q 2809 875 2809 1313 
Q 2809 1741 2576 1978 
Q 2344 2216 1925 2216 
z
M 1375 2478 
Q 972 2581 745 2862 
Q 519 3144 519 3541 
Q 519 4097 897 4423 
Q 1275 4750 1925 4750 
Q 2578 4750 2956 4423 
Q 3334 4097 3334 3541 
Q 3334 3144 3107 2862 
Q 2881 2581 2478 2478 
Q 2947 2375 3195 2062 
Q 3444 1750 3444 1253 
Q 3444 622 3041 265 
Q 2638 -91 1925 -91 
Q 1213 -91 811 264 
Q 409 619 409 1247 
Q 409 1747 657 2061 
Q 906 2375 1375 2478 
z
M 1147 3481 
Q 1147 3106 1347 2909 
Q 1547 2713 1925 2713 
Q 2306 2713 2506 2909 
Q 2706 3106 2706 3481 
Q 2706 3863 2507 4063 
Q 2309 4263 1925 4263 
Q 1547 4263 1347 4061 
Q 1147 3859 1147 3481 
z
" transform="scale(0.015625)"/>
       </defs>
       <use xlink:href="#DejaVuSansMono-38"/>
       <use xlink:href="#DejaVuSansMono-30" x="60.205078"/>
       <use xlink:href="#DejaVuSansMono-30" x="120.410156"/>
      </g>
     </g>
    </g>
   </g>
   <g id="matplotlib.axis_2">
    <g id="ytick_1">
     <g id="line2d_5">
      <defs>
       <path id="m2d76863d4a" d="M 0 0 
L -3.5 0 
" style="stroke: #000000; stroke-width: 0.8"/>
      </defs>
      <g>
       <use xlink:href="#m2d76863d4a" x="35.89" y="386.241818" style="stroke: #000000; stroke-width: 0.8"/>
      </g>
     </g>
     <g id="text_5">
      <!-- 0.0 -->
      <g transform="translate(10.829063 390.067599) scale(0.1 -0.1)">
       <defs>
        <path id="DejaVuSansMono-2e" d="M 1528 953 
L 2316 953 
L 2316 0 
L 1528 0 
L 1528 953 
z
" transform="scale(0.015625)"/>
       </defs>
       <use xlink:href="#DejaVuSansMono-30"/>
       <use xlink:href="#DejaVuSansMono-2e" x="60.205078"/>
       <use xlink:href="#DejaVuSansMono-30" x="120.410156"/>
      </g>
     </g>
    </g>
    <g id="ytick_2">
     <g id="line2d_6">
      <g>
       <use xlink:href="#m2d76863d4a" x="35.89" y="314.729091" style="stroke: #000000; stroke-width: 0.8"/>
      </g>
     </g>
     <g id="text_6">
      <!-- 0.2 -->
      <g transform="translate(10.829063 318.554872) scale(0.1 -0.1)">
       <use xlink:href="#DejaVuSansMono-30"/>
       <use xlink:href="#DejaVuSansMono-2e" x="60.205078"/>
       <use xlink:href="#DejaVuSansMono-32" x="120.410156"/>
      </g>
     </g>
    </g>
    <g id="ytick_3">
     <g id="line2d_7">
      <g>
       <use xlink:href="#m2d76863d4a" x="35.89" y="243.216364" style="stroke: #000000; stroke-width: 0.8"/>
      </g>
     </g>
     <g id="text_7">
      <!-- 0.4 -->
      <g transform="translate(10.829063 247.042145) scale(0.1 -0.1)">
       <use xlink:href="#DejaVuSansMono-30"/>
       <use xlink:href="#DejaVuSansMono-2e" x="60.205078"/>
       <use xlink:href="#DejaVuSansMono-34" x="120.410156"/>
      </g>
     </g>
    </g>
    <g id="ytick_4">
     <g id="line2d_8">
      <g>
       <use xlink:href="#m2d76863d4a" x="35.89" y="171.703636" style="stroke: #000000; stroke-width: 0.8"/>
      </g>
     </g>
     <g id="text_8">
      <!-- 0.6 -->
      <g transform="translate(10.829063 175.529418) scale(0.1 -0.1)">
       <use xlink:href="#DejaVuSansMono-30"/>
       <use xlink:href="#DejaVuSansMono-2e" x="60.205078"/>
       <use xlink:href="#DejaVuSansMono-36" x="120.410156"/>
      </g>
     </g>
    </g>
    <g id="ytick_5">
     <g id="line2d_9">
      <g>
       <use xlink:href="#m2d76863d4a" x="35.89" y="100.190909" style="stroke: #000000; stroke-width: 0.8"/>
      </g>
     </g>
     <g id="text_9">
      <!-- 0.8 -->
      <g transform="translate(10.829063 104.01669) scale(0.1 -0.1)">
       <use xlink:href="#DejaVuSansMono-30"/>
       <use xlink:href="#DejaVuSansMono-2e" x="60.205078"/>
       <use xlink:href="#DejaVuSansMono-38" x="120.410156"/>
      </g>
     </g>
    </g>
    <g id="ytick_6">
     <g id="line2d_10">
      <g>
       <use xlink:href="#m2d76863d4a" x="35.89" y="28.678182" style="stroke: #000000; stroke-width: 0.8"/>
      </g>
     </g>
     <g id="text_10">
      <!-- 1.0 -->
      <g transform="translate(10.829063 32.503963) scale(0.1 -0.1)">
       <defs>
        <path id="DejaVuSansMono-31" d="M 844 531 
L 1825 531 
L 1825 4097 
L 769 3859 
L 769 4434 
L 1819 4666 
L 2450 4666 
L 2450 531 
L 3419 531 
L 3419 0 
L 844 0 
L 844 531 
z
" transform="scale(0.015625)"/>
       </defs>
       <use xlink:href="#DejaVuSansMono-31"/>
       <use xlink:href="#DejaVuSansMono-2e" x="60.205078"/>
       <use xlink:href="#DejaVuSansMono-30" x="120.410156"/>
      </g>
     </g>
    </g>
   </g>
   <g id="line2d_11">
    <path d="M 27.558603 335.632398 
L 28.391743 334.362902 
L 29.224883 334.784946 
L 30.058022 336.59648 
L 30.891162 333.420914 
L 31.724302 328.101785 
L 32.557441 326.012925 
L 33.390581 328.295246 
L 35.05686 337.711041 
L 35.89 334.253298 
L 36.72314 342.472902 
L 38.389419 338.92245 
L 39.222559 342.660615 
L 40.055698 347.979744 
L 40.888838 358.669792 
L 41.721978 348.283136 
L 42.555117 348.283136 
L 43.388257 353.862144 
L 44.221397 358.027933 
L 45.054536 348.458761 
L 45.887676 359.169193 
L 46.720815 363.306293 
L 48.387095 342.98464 
L 49.220234 342.98464 
L 50.053374 353.371296 
L 51.719653 353.371296 
L 52.552793 352.57671 
L 53.385933 352.425105 
L 55.052212 352.425105 
L 55.885352 352.680996 
L 56.718491 363.172746 
L 57.551631 361.667215 
L 60.88419 319.488926 
L 61.717329 320.990099 
L 62.550469 317.985363 
L 63.383609 317.985363 
L 64.216748 328.372019 
L 65.049888 317.985363 
L 65.883028 319.490894 
L 66.716167 319.636222 
L 69.215586 351.409796 
L 70.048726 351.425299 
L 70.881865 354.430035 
L 72.548145 354.430035 
L 73.381284 364.816691 
L 74.214424 354.430035 
L 75.047564 364.671364 
L 75.880703 365.484008 
L 76.713843 355.097352 
L 78.380122 355.08185 
L 80.046402 333.968285 
L 81.712681 333.968285 
L 82.545821 344.354941 
L 84.2121 344.354941 
L 85.04524 354.741597 
L 85.878379 354.741597 
L 86.711519 365.128254 
L 87.544659 365.128254 
L 88.377798 375.855162 
L 90.877217 375.855162 
L 91.710357 367.230511 
L 95.042915 367.230511 
L 95.876055 377.617167 
L 96.709195 365.189651 
L 98.375474 365.189651 
L 99.208614 354.750973 
L 100.041753 363.375624 
L 102.541172 363.375624 
L 103.374312 353.328381 
L 104.207452 353.328381 
L 105.040591 365.755898 
L 106.706871 365.755898 
L 107.54001 376.194576 
L 109.20629 355.421263 
L 110.039429 355.421263 
L 110.872569 344.619861 
L 111.705708 343.602872 
L 113.371988 343.602872 
L 114.205127 333.216215 
L 115.038267 333.216215 
L 115.871407 321.394724 
L 116.704546 321.359927 
L 117.537686 331.746583 
L 118.370826 321.129506 
L 119.203965 321.544252 
L 120.037105 322.221828 
L 121.703384 322.221828 
L 122.536524 332.608484 
L 123.369664 322.164185 
L 124.202803 323.146641 
L 125.035943 333.568094 
L 125.869083 333.568094 
L 127.535362 354.571827 
L 130.86792 354.571827 
L 132.5342 375.855162 
L 135.866758 375.855162 
L 136.699898 386.241818 
L 137.533038 375.572069 
L 143.365015 375.572069 
L 144.198155 365.185412 
L 145.031295 365.185412 
L 145.864434 363.886505 
L 151.696412 363.886505 
L 152.529551 374.273161 
L 153.362691 374.273161 
L 154.195831 386.241818 
L 155.02897 375.647339 
L 155.86211 375.647339 
L 156.69525 364.707715 
L 157.528389 363.895071 
L 158.361529 363.895071 
L 159.194669 363.091557 
L 160.027808 363.091557 
L 161.694088 340.360909 
L 162.527227 340.360909 
L 163.360367 340.551362 
L 164.193507 330.164706 
L 165.026646 341.10433 
L 165.859786 331.35045 
L 166.692926 331.35045 
L 167.526065 322.211017 
L 168.359205 322.211017 
L 170.025484 344.941666 
L 170.858624 344.941666 
L 172.524903 365.732348 
L 173.358043 365.732348 
L 174.191182 376.298872 
L 175.024322 375.61125 
L 175.857462 375.15017 
L 176.690601 364.615366 
L 180.02316 364.615366 
L 181.689439 342.899429 
L 182.522579 342.899429 
L 183.355719 343.587051 
L 185.021998 364.525882 
L 185.855138 354.139225 
L 186.688277 354.139225 
L 187.521417 344.206903 
L 188.354557 344.206903 
L 190.020836 365.922839 
L 190.853976 365.922839 
L 191.687115 358.274419 
L 193.353394 358.274419 
L 194.186534 368.661076 
L 195.019674 368.661076 
L 195.852813 378.593398 
L 196.685953 370.56646 
L 199.185372 370.56646 
L 200.018512 378.21488 
L 203.35107 378.21488 
L 204.18421 367.687626 
L 205.01735 363.477094 
L 205.850489 363.477094 
L 206.683629 353.055641 
L 207.516769 339.214467 
L 208.349908 330.871315 
L 209.183048 330.871315 
L 210.016188 329.426613 
L 210.849327 324.272543 
L 211.682467 317.491164 
L 212.515607 318.775276 
L 213.348746 331.012747 
L 214.181886 328.801014 
L 215.015025 327.664854 
L 215.848165 329.642164 
L 216.681305 327.270866 
L 217.514444 327.270866 
L 218.347584 328.715567 
L 220.013863 338.526877 
L 220.847003 336.443468 
L 221.680143 336.443468 
L 222.513282 327.363718 
L 223.346422 327.651031 
L 224.179562 339.514895 
L 225.012701 345.594261 
L 225.845841 335.629373 
L 226.678981 332.089139 
L 227.51212 324.626941 
L 228.34526 326.751081 
L 229.1784 338.07763 
L 230.011539 336.572099 
L 230.844679 347.863583 
L 231.677819 353.335553 
L 232.510958 353.335553 
L 233.344098 346.857173 
L 234.177238 356.036207 
L 235.010377 357.364707 
L 235.843517 353.170645 
L 236.676656 341.422125 
L 237.509796 335.257235 
L 238.342936 327.264982 
L 239.176075 327.264982 
L 240.842355 318.157377 
L 241.675494 320.102543 
L 242.508634 307.390011 
L 243.341774 298.018697 
L 244.174913 309.674958 
L 245.008053 311.367 
L 245.841193 310.785407 
L 246.674332 312.885323 
L 247.507472 301.42145 
L 248.340612 299.43598 
L 249.173751 290.657175 
L 250.006891 285.745247 
L 250.840031 289.196391 
L 252.50631 284.231118 
L 254.172589 280.82949 
L 255.838869 275.525235 
L 256.672008 275.031996 
L 257.505148 278.916443 
L 258.338287 290.761897 
L 259.171427 289.579869 
L 260.004567 289.087962 
L 260.837706 282.789052 
L 261.670846 281.751227 
L 262.503986 276.682776 
L 263.337125 272.439836 
L 264.170265 270.708058 
L 265.003405 269.499392 
L 265.836544 263.322519 
L 266.669684 251.167535 
L 267.502824 245.710503 
L 268.335963 246.005376 
L 269.169103 239.344192 
L 270.002243 235.739225 
L 270.835382 234.331814 
L 271.668522 235.8519 
L 272.501662 235.281849 
L 273.334801 234.503478 
L 274.167941 234.319227 
L 275.001081 232.986327 
L 275.83422 236.128552 
L 276.66736 235.510633 
L 277.500499 236.96149 
L 278.333639 242.327431 
L 279.166779 242.575739 
L 279.999918 238.80012 
L 280.833058 238.346431 
L 281.666198 237.576588 
L 282.499337 236.343309 
L 283.332477 236.174248 
L 284.165617 231.840143 
L 284.998756 230.807026 
L 285.831896 227.403994 
L 286.665036 220.595062 
L 287.498175 217.967346 
L 288.331315 218.211327 
L 289.164455 220.016952 
L 289.997594 217.38143 
L 290.830734 215.369287 
L 291.663874 212.130211 
L 292.497013 211.534274 
L 293.330153 208.193267 
L 294.163293 206.47277 
L 295.829572 201.998265 
L 296.662712 197.099793 
L 297.495851 191.04644 
L 298.328991 187.767979 
L 299.16213 185.784998 
L 299.99527 182.843963 
L 300.82841 181.157579 
L 301.661549 178.398279 
L 302.494689 172.921922 
L 303.327829 169.812574 
L 304.160968 165.263379 
L 304.994108 164.660077 
L 305.827248 161.127327 
L 306.660387 159.628893 
L 308.326667 153.064913 
L 309.159806 147.532224 
L 309.992946 144.291149 
L 310.826086 142.72758 
L 311.659225 140.039351 
L 312.492365 138.977426 
L 313.325505 136.052955 
L 314.158644 136.144432 
L 315.824924 130.416855 
L 318.324343 123.32916 
L 319.157482 120.990329 
L 319.990622 119.225784 
L 320.823761 116.6795 
L 322.490041 110.884963 
L 323.32318 109.347052 
L 326.655739 100.644926 
L 327.488879 97.300109 
L 328.322018 94.629254 
L 330.821437 84.682084 
L 331.654577 80.978291 
L 332.487717 79.584239 
L 333.320856 77.886205 
L 334.153996 77.240359 
L 334.987136 74.910725 
L 335.820275 74.526623 
L 337.486555 70.218522 
L 338.319694 67.260833 
L 339.152834 65.677952 
L 339.985973 64.980004 
L 340.819113 62.565686 
L 341.652253 60.99518 
L 342.485392 58.637618 
L 343.318532 58.736463 
L 344.984811 58.387917 
L 345.817951 58.545279 
L 346.651091 61.370254 
L 347.48423 62.490992 
L 348.31737 61.781955 
L 349.15051 61.358805 
L 349.983649 60.281266 
L 350.816789 60.816499 
L 351.649929 60.030943 
L 354.149348 56.594316 
L 355.815627 50.359409 
L 356.648767 48.658162 
L 358.315046 47.341504 
L 359.148186 44.887326 
L 359.981325 44.887326 
L 360.814465 45.315866 
L 361.647604 44.016181 
L 362.480744 43.802466 
L 363.313884 44.434536 
L 364.147023 43.969189 
L 364.980163 44.880239 
L 365.813303 43.999538 
L 366.646442 44.691543 
L 367.479582 44.905505 
L 368.312722 44.337605 
L 369.145861 43.323111 
L 369.979001 43.717415 
L 370.812141 43.701251 
L 371.64528 42.235357 
L 372.47842 41.814901 
L 373.31156 40.052856 
L 374.144699 39.843836 
L 374.977839 38.932786 
L 375.810979 38.920702 
L 376.644118 38.278975 
L 377.477258 37.101222 
L 378.310398 37.668783 
L 379.143537 37.937341 
L 379.976677 38.949668 
L 380.809817 39.149348 
L 381.642956 42.628943 
L 382.476096 42.828624 
L 383.309235 42.407961 
L 384.142375 42.215865 
L 384.975515 41.80965 
L 386.641794 42.144439 
L 387.474934 41.471856 
L 388.308073 41.051834 
L 389.141213 42.017129 
L 389.974353 38.739506 
L 390.807492 38.133543 
L 391.640632 37.703211 
L 392.473772 37.871952 
L 393.306911 38.675148 
L 394.140051 38.439863 
L 394.973191 36.943861 
L 395.80633 36.340115 
L 396.63947 35.341529 
L 397.47261 36.254927 
L 399.138889 36.259652 
L 400.805168 35.874457 
L 401.638308 34.862176 
L 402.471448 34.876186 
L 403.304587 35.080496 
L 404.137727 35.48682 
L 404.970866 37.038646 
L 405.804006 35.150821 
L 406.637146 34.937091 
L 407.470285 34.937091 
L 408.303425 35.35282 
L 409.136565 34.72796 
L 409.969704 35.35282 
L 411.635984 35.348149 
L 412.469123 35.148468 
L 413.302263 33.805728 
L 414.135403 33.61518 
L 414.968542 33.619851 
L 415.801682 34.219043 
L 416.634822 33.805675 
L 417.467961 35.029246 
L 419.134241 34.192967 
L 419.96738 34.60863 
L 420.80052 35.946012 
L 421.63366 36.333756 
L 422.466799 35.927474 
L 423.299939 36.793495 
L 424.133078 36.396304 
L 424.966218 36.993133 
L 425.799358 35.769562 
L 426.632497 36.563839 
L 428.298777 36.157583 
L 429.131916 34.411558 
L 429.965056 34.019038 
L 430.798196 34.625 
L 431.631335 33.552308 
L 432.464475 33.145986 
L 433.297615 32.969779 
L 434.130754 33.178865 
L 434.963894 32.593646 
L 435.797034 33.206611 
L 436.630173 34.345069 
L 437.463313 34.347431 
L 438.296453 34.542478 
L 439.129592 33.936516 
L 439.962732 34.138516 
L 440.795872 34.979842 
L 441.629011 35.156049 
L 442.462151 34.740279 
L 443.295291 34.120227 
L 444.12843 33.711584 
L 444.96157 31.953075 
L 445.794709 31.950713 
L 446.627849 31.344672 
L 447.460989 31.344672 
L 448.294128 30.93835 
L 449.127268 30.097024 
L 449.960408 30.097024 
L 450.793547 30.303708 
L 451.626687 30.719478 
L 452.459827 30.719478 
L 453.292966 31.135248 
L 454.126106 30.930925 
L 454.959246 30.930925 
L 455.792385 31.344293 
L 456.625525 31.344293 
L 457.458665 31.950334 
L 458.291804 32.145603 
L 459.124944 32.143242 
L 459.958084 31.727472 
L 460.791223 31.523149 
L 461.624363 31.10738 
L 463.290642 31.10738 
L 464.123782 30.487328 
L 464.956922 30.69165 
L 465.790061 30.292293 
L 466.623201 29.699833 
L 467.45634 29.49551 
L 468.28948 29.699833 
L 469.12262 30.115602 
L 469.955759 30.115602 
L 471.622039 30.524247 
L 474.121458 30.526609 
L 474.954597 30.120287 
L 475.787737 30.120287 
L 476.620877 30.326958 
L 477.454016 29.911188 
L 478.287156 29.911188 
L 479.120296 29.706866 
L 479.953435 29.908865 
L 480.786575 30.324635 
L 481.619715 30.322274 
L 482.452854 30.11559 
L 483.285994 30.319912 
L 484.119134 30.319912 
L 484.952273 30.113241 
L 485.785413 30.319925 
L 486.618552 30.319925 
L 487.451692 31.702766 
L 488.284832 31.702766 
L 489.117971 31.286997 
L 489.951111 31.498444 
L 490.784251 31.498444 
L 491.61739 31.294121 
L 492.45053 31.500805 
L 494.116809 31.089799 
L 494.949949 31.893312 
L 495.783089 30.510471 
L 496.616228 30.308472 
L 497.449368 30.515155 
L 498.282508 30.099386 
L 499.115647 30.099386 
L 499.948787 30.705427 
L 500.781927 30.905065 
L 501.615066 30.905065 
L 502.448206 31.511106 
L 503.281346 30.707592 
L 504.114485 30.707592 
L 505.780765 30.296586 
L 507.447044 30.296586 
L 508.280183 29.690545 
L 509.113323 29.490907 
L 509.946463 29.695229 
L 510.779602 29.089188 
L 511.612742 29.089188 
L 513.279021 29.500195 
L 514.112161 30.106236 
L 516.61158 30.106236 
L 517.44472 29.899552 
L 518.277859 29.899552 
L 520.777278 30.512557 
L 521.610418 30.308235 
L 522.443558 29.702194 
L 524.109837 29.702194 
L 524.942977 30.108516 
L 526.609256 30.108516 
L 527.442396 30.507873 
L 529.108675 30.09919 
L 529.941814 30.902703 
L 530.774954 30.902703 
L 531.608094 31.107026 
L 532.441233 31.107026 
L 533.274373 30.700704 
L 534.107513 30.700704 
L 534.940652 30.496381 
L 535.773792 29.89034 
L 537.440071 29.89034 
L 538.273211 29.293511 
L 539.106351 29.699833 
L 539.93949 29.49551 
L 540.77263 29.49551 
L 541.60577 29.901832 
L 544.938328 29.901832 
L 545.771468 29.69751 
L 546.604608 29.906595 
L 547.437747 29.500273 
L 548.270887 29.704596 
L 549.104027 29.704596 
L 549.937166 29.904315 
L 554.102864 29.904315 
L 554.936004 29.692868 
L 555.769144 29.899552 
L 557.435423 29.899552 
L 558.268563 29.293511 
L 559.101702 29.497833 
L 559.934842 29.904155 
L 562.434261 29.904155 
L 563.267401 30.115602 
L 564.93368 29.704596 
L 565.76682 29.908918 
L 566.599959 30.712432 
L 567.433099 30.712432 
L 568.266239 30.30611 
L 569.099378 30.512794 
L 569.932518 30.512794 
L 570.765657 30.719478 
L 571.598797 30.719478 
L 572.431937 30.926162 
L 573.265076 31.332484 
L 574.098216 31.332484 
L 574.931356 30.733293 
L 575.764495 30.52897 
L 578.263914 30.52897 
L 579.097054 30.322286 
L 579.930194 29.906517 
L 580.763333 29.699833 
L 581.596473 30.351391 
L 582.429613 30.147068 
L 583.262752 30.349068 
L 586.595311 32.76402 
L 588.26159 32.76402 
L 589.09473 33.595564 
L 589.92787 33.37901 
L 590.761009 33.37901 
L 591.594149 32.972688 
L 592.427288 32.366647 
L 593.260428 31.96729 
L 594.093568 31.163777 
L 594.926707 30.557736 
L 596.592987 30.557736 
L 598.259266 28.884866 
L 600.758685 28.884866 
L 601.591825 28.678182 
L 602.424964 29.084504 
L 607.423802 29.084504 
L 608.256942 29.288826 
L 609.923221 29.288826 
L 610.756361 29.089188 
L 612.42264 29.089188 
L 614.088919 29.497833 
L 615.755199 29.497833 
L 616.588338 29.293511 
L 619.920897 29.293511 
L 620.754037 29.699833 
L 621.587176 29.702194 
L 622.420316 29.497872 
L 624.086595 29.497872 
L 624.919735 31.06958 
L 625.752875 31.276264 
L 626.586014 31.682586 
L 627.419154 31.475902 
L 628.252294 31.475902 
L 629.085433 31.06958 
L 629.918573 31.06958 
L 630.751713 31.480573 
L 632.417992 31.480573 
L 633.251131 29.908865 
L 634.084271 29.702181 
L 634.917411 29.295859 
L 636.58369 29.295859 
L 637.41683 29.702181 
L 639.083109 29.69982 
L 639.916249 30.110813 
L 640.749388 30.110813 
L 641.582528 30.517135 
L 643.248807 30.92578 
L 644.915087 30.92578 
L 645.748226 30.519458 
L 646.581366 30.921177 
L 648.247645 30.09919 
L 649.080785 30.09919 
L 649.913925 29.692868 
L 651.580204 29.284223 
L 654.079623 29.284223 
L 654.912762 28.678182 
L 655.745902 28.882504 
L 657.412181 28.882504 
L 658.245321 29.086827 
L 659.078461 29.086827 
L 661.57788 29.699794 
L 663.244159 29.699794 
L 664.077299 29.911242 
L 664.910438 30.327011 
L 665.743578 30.327011 
L 666.576718 30.122689 
L 667.409857 30.327011 
L 668.242997 30.122689 
L 669.076137 30.122689 
L 669.909276 30.524407 
L 671.575556 30.524407 
L 673.241835 30.101513 
L 674.908114 30.101513 
L 675.741254 29.89719 
L 676.574393 31.620389 
L 678.240673 31.216348 
L 679.073812 31.42067 
L 679.906952 31.42067 
L 680.740092 31.216348 
L 681.573231 31.216348 
L 682.406371 31.62267 
L 683.239511 32.621452 
L 684.07265 32.825775 
L 684.90579 31.508898 
L 685.73893 31.91522 
L 689.071488 31.919891 
L 689.904628 31.715569 
L 690.737768 31.309247 
L 691.570907 30.514787 
L 692.404047 30.310464 
L 693.237187 29.904142 
L 694.070326 29.908814 
L 695.736606 29.500182 
L 697.402885 29.908827 
L 699.069164 29.908827 
L 699.902304 29.704504 
L 701.568583 29.704504 
L 704.068002 30.305874 
L 704.901142 30.308235 
L 705.734281 30.103912 
L 706.567421 30.709953 
L 708.2337 30.709953 
L 709.06684 30.914276 
L 709.89998 30.914276 
L 711.566259 30.108597 
L 712.399399 30.108597 
L 713.232538 29.901913 
L 714.065678 29.901913 
L 714.898818 29.295872 
L 716.565097 29.295872 
L 717.398236 29.09155 
L 718.231376 29.09155 
L 719.064516 28.884866 
L 719.897655 29.291188 
L 722.397074 29.288826 
L 723.230214 29.493149 
L 724.063354 29.493149 
L 725.729633 29.906517 
L 726.562773 30.322286 
L 727.395912 30.322286 
L 728.229052 29.915964 
L 730.728471 29.915964 
L 731.561611 29.711642 
L 732.39475 29.711642 
L 733.22789 29.504958 
L 734.06103 29.502597 
L 734.894169 29.086827 
L 735.727309 29.293511 
L 736.560449 29.699833 
L 738.226728 29.699833 
L 739.059867 29.904155 
L 740.726147 29.904155 
L 741.559286 30.108478 
L 742.392426 29.904155 
L 744.058705 29.901794 
L 744.891845 29.495472 
L 745.724985 29.495472 
L 746.558124 29.699794 
L 750.723823 29.702156 
L 751.556962 29.906478 
L 752.390102 29.702156 
L 753.223242 29.702156 
L 755.722661 29.089188 
L 759.055219 29.089188 
L 759.888359 28.884866 
L 760.721498 28.884866 
L 761.554638 29.089188 
L 762.387778 29.089188 
L 764.054057 29.500195 
L 765.720336 29.500195 
L 766.553476 29.899552 
L 770.719174 29.899552 
L 772.385454 29.488545 
L 773.218593 29.692868 
L 774.051733 29.692868 
L 774.884873 29.291149 
L 778.217431 29.291149 
L 779.050571 29.495472 
L 779.88371 29.495472 
L 780.71685 29.911242 
L 781.54999 29.706919 
L 782.383129 29.706919 
L 783.216269 29.502597 
L 784.049409 29.502597 
L 784.882548 30.115562 
L 785.715688 30.919075 
L 786.548828 30.714753 
L 788.215107 30.714753 
L 789.048247 30.298983 
L 789.881386 30.505667 
L 792.380805 30.505667 
L 793.213945 29.892702 
L 794.047085 29.089188 
L 794.880224 29.293511 
L 795.713364 29.695229 
L 796.546504 29.901913 
L 797.379643 29.901913 
L 798.212783 29.695229 
L 799.879062 29.695229 
L 800.712202 30.322536 
L 802.378481 30.733542 
L 803.211621 32.836082 
L 804.8779 32.429679 
L 807.377319 32.429679 
L 808.210459 32.845448 
L 809.876738 32.41778 
L 810.709878 32.41778 
L 811.543017 30.110918 
L 812.376157 29.908918 
L 816.541855 29.908918 
L 817.374995 29.502597 
L 818.208135 29.706919 
L 819.041274 29.502597 
L 819.874414 29.908918 
L 820.707554 29.704596 
L 821.540693 30.120366 
L 822.373833 30.120366 
L 823.206972 30.324688 
L 824.040112 30.740458 
L 825.706391 31.144337 
L 826.539531 30.940015 
L 827.372671 30.940015 
L 828.20581 30.533693 
L 829.03895 30.940015 
L 829.87209 30.524245 
L 830.705229 30.524245 
L 831.538369 30.319923 
L 832.371509 29.904153 
L 833.204648 29.69751 
L 834.037788 29.695148 
L 835.704067 30.106155 
L 836.537207 30.106155 
L 837.370347 29.699833 
L 838.203486 29.904155 
L 839.036626 29.904155 
L 839.869766 30.108478 
L 840.702905 30.108478 
L 841.536045 29.702156 
L 842.369185 29.497833 
L 844.035464 29.918366 
L 844.868603 29.918366 
L 845.701743 30.12505 
L 846.534883 29.920728 
L 847.368022 30.331721 
L 848.201162 30.538392 
L 849.034302 30.538392 
L 849.867441 30.944714 
L 850.700581 31.151398 
L 852.36686 30.319859 
L 852.36686 30.319859 
" clip-path="url(#pa1a13e96a1)" style="fill: none; stroke-dasharray: 7.4,3.2; stroke-dashoffset: 0; stroke: #000000; stroke-width: 2"/>
   </g>
   <g id="patch_3">
    <path d="M 35.89 404.12 
L 35.89 10.8 
" style="fill: none; stroke: #000000; stroke-width: 0.8; stroke-linejoin: miter; stroke-linecap: square"/>
   </g>
   <g id="patch_4">
    <path d="M 853.2 404.12 
L 853.2 10.8 
" style="fill: none; stroke: #000000; stroke-width: 0.8; stroke-linejoin: miter; stroke-linecap: square"/>
   </g>
   <g id="patch_5">
    <path d="M 35.89 404.12 
L 853.2 404.12 
" style="fill: none; stroke: #000000; stroke-width: 0.8; stroke-linejoin: miter; stroke-linecap: square"/>
   </g>
   <g id="patch_6">
    <path d="M 35.89 10.8 
L 853.2 10.8 
" style="fill: none; stroke: #000000; stroke-width: 0.8; stroke-linejoin: miter; stroke-linecap: square"/>
   </g>
  </g>
 </g>
 <defs>
  <clipPath id="pa1a13e96a1">
   <rect x="35.89" y="10.8" width="817.31" height="393.32"/>
  </clipPath>
 </defs>
</svg>
