<?xml version="1.0" encoding="utf-8" standalone="no"?>
<!DOCTYPE svg PUBLIC "-//W3C//DTD SVG 1.1//EN"
  "http://www.w3.org/Graphics/SVG/1.1/DTD/svg11.dtd">
<svg xmlns:xlink="http://www.w3.org/1999/xlink" width="864pt" height="432pt" viewBox="0 0 864 432" xmlns="http://www.w3.org/2000/svg" version="1.1">
 <metadata>
  <rdf:RDF xmlns:dc="http://purl.org/dc/elements/1.1/" xmlns:cc="http://creativecommons.org/ns#" xmlns:rdf="http://www.w3.org/1999/02/22-rdf-syntax-ns#">
   <cc:Work>
    <dc:type rdf:resource="http://purl.org/dc/dcmitype/StillImage"/>
    <dc:date>2024-09-19T11:06:33.056478</dc:date>
    <dc:format>image/svg+xml</dc:format>
    <dc:creator>
     <cc:Agent>
      <dc:title>Matplotlib v3.9.2, https://matplotlib.org/</dc:title>
     </cc:Agent>
    </dc:creator>
   </cc:Work>
  </rdf:RDF>
 </metadata>
 <defs>
  <style type="text/css">*{stroke-linejoin: round; stroke-linecap: butt}</style>
 </defs>
 <g id="figure_1">
  <g id="patch_1">
   <path d="M 0 432 
L 864 432 
L 864 0 
L 0 0 
z
" style="fill: #ffffff"/>
  </g>
  <g id="axes_1">
   <g id="patch_2">
    <path d="M 41.92 404.12 
L 853.2 404.12 
L 853.2 10.8 
L 41.92 10.8 
z
" style="fill: #ffffff"/>
   </g>
   <g id="matplotlib.axis_1">
    <g id="xtick_1">
     <g id="line2d_1">
      <defs>
       <path id="m153be3b48e" d="M 0 0 
L 0 3.5 
" style="stroke: #000000; stroke-width: 0.8"/>
      </defs>
      <g>
       <use xlink:href="#m153be3b48e" x="199.048644" y="404.12" style="stroke: #000000; stroke-width: 0.8"/>
      </g>
     </g>
     <g id="text_1">
      <!-- 200 -->
      <g transform="translate(190.018175 418.771563) scale(0.1 -0.1)">
       <defs>
        <path id="DejaVuSansMono-32" d="M 1166 531 
L 3309 531 
L 3309 0 
L 475 0 
L 475 531 
Q 1059 1147 1496 1619 
Q 1934 2091 2100 2284 
Q 2413 2666 2522 2902 
Q 2631 3138 2631 3384 
Q 2631 3775 2401 3997 
Q 2172 4219 1772 4219 
Q 1488 4219 1175 4116 
Q 863 4013 513 3803 
L 513 4441 
Q 834 4594 1145 4672 
Q 1456 4750 1759 4750 
Q 2444 4750 2861 4386 
Q 3278 4022 3278 3431 
Q 3278 3131 3139 2831 
Q 3000 2531 2688 2169 
Q 2513 1966 2180 1606 
Q 1847 1247 1166 531 
z
" transform="scale(0.015625)"/>
        <path id="DejaVuSansMono-30" d="M 1509 2344 
Q 1509 2516 1629 2641 
Q 1750 2766 1919 2766 
Q 2094 2766 2219 2641 
Q 2344 2516 2344 2344 
Q 2344 2169 2220 2047 
Q 2097 1925 1919 1925 
Q 1744 1925 1626 2044 
Q 1509 2163 1509 2344 
z
M 1925 4250 
Q 1484 4250 1267 3775 
Q 1050 3300 1050 2328 
Q 1050 1359 1267 884 
Q 1484 409 1925 409 
Q 2369 409 2586 884 
Q 2803 1359 2803 2328 
Q 2803 3300 2586 3775 
Q 2369 4250 1925 4250 
z
M 1925 4750 
Q 2672 4750 3055 4137 
Q 3438 3525 3438 2328 
Q 3438 1134 3055 521 
Q 2672 -91 1925 -91 
Q 1178 -91 797 521 
Q 416 1134 416 2328 
Q 416 3525 797 4137 
Q 1178 4750 1925 4750 
z
" transform="scale(0.015625)"/>
       </defs>
       <use xlink:href="#DejaVuSansMono-32"/>
       <use xlink:href="#DejaVuSansMono-30" x="60.205078"/>
       <use xlink:href="#DejaVuSansMono-30" x="120.410156"/>
      </g>
     </g>
    </g>
    <g id="xtick_2">
     <g id="line2d_2">
      <g>
       <use xlink:href="#m153be3b48e" x="364.447217" y="404.12" style="stroke: #000000; stroke-width: 0.8"/>
      </g>
     </g>
     <g id="text_2">
      <!-- 400 -->
      <g transform="translate(355.416748 418.771563) scale(0.1 -0.1)">
       <defs>
        <path id="DejaVuSansMono-34" d="M 2297 4091 
L 825 1625 
L 2297 1625 
L 2297 4091 
z
M 2194 4666 
L 2925 4666 
L 2925 1625 
L 3547 1625 
L 3547 1113 
L 2925 1113 
L 2925 0 
L 2297 0 
L 2297 1113 
L 319 1113 
L 319 1709 
L 2194 4666 
z
" transform="scale(0.015625)"/>
       </defs>
       <use xlink:href="#DejaVuSansMono-34"/>
       <use xlink:href="#DejaVuSansMono-30" x="60.205078"/>
       <use xlink:href="#DejaVuSansMono-30" x="120.410156"/>
      </g>
     </g>
    </g>
    <g id="xtick_3">
     <g id="line2d_3">
      <g>
       <use xlink:href="#m153be3b48e" x="529.84579" y="404.12" style="stroke: #000000; stroke-width: 0.8"/>
      </g>
     </g>
     <g id="text_3">
      <!-- 600 -->
      <g transform="translate(520.815321 418.771563) scale(0.1 -0.1)">
       <defs>
        <path id="DejaVuSansMono-36" d="M 3097 4563 
L 3097 3981 
Q 2900 4097 2678 4158 
Q 2456 4219 2216 4219 
Q 1616 4219 1306 3767 
Q 997 3316 997 2438 
Q 1147 2750 1412 2917 
Q 1678 3084 2022 3084 
Q 2697 3084 3067 2670 
Q 3438 2256 3438 1497 
Q 3438 741 3056 325 
Q 2675 -91 1984 -91 
Q 1172 -91 794 492 
Q 416 1075 416 2328 
Q 416 3509 870 4129 
Q 1325 4750 2188 4750 
Q 2419 4750 2650 4701 
Q 2881 4653 3097 4563 
z
M 1972 2591 
Q 1569 2591 1337 2300 
Q 1106 2009 1106 1497 
Q 1106 984 1337 693 
Q 1569 403 1972 403 
Q 2391 403 2603 679 
Q 2816 956 2816 1497 
Q 2816 2041 2603 2316 
Q 2391 2591 1972 2591 
z
" transform="scale(0.015625)"/>
       </defs>
       <use xlink:href="#DejaVuSansMono-36"/>
       <use xlink:href="#DejaVuSansMono-30" x="60.205078"/>
       <use xlink:href="#DejaVuSansMono-30" x="120.410156"/>
      </g>
     </g>
    </g>
    <g id="xtick_4">
     <g id="line2d_4">
      <g>
       <use xlink:href="#m153be3b48e" x="695.244363" y="404.12" style="stroke: #000000; stroke-width: 0.8"/>
      </g>
     </g>
     <g id="text_4">
      <!-- 800 -->
      <g transform="translate(686.213894 418.771563) scale(0.1 -0.1)">
       <defs>
        <path id="DejaVuSansMono-38" d="M 1925 2216 
Q 1503 2216 1273 1980 
Q 1044 1744 1044 1313 
Q 1044 881 1276 642 
Q 1509 403 1925 403 
Q 2350 403 2579 639 
Q 2809 875 2809 1313 
Q 2809 1741 2576 1978 
Q 2344 2216 1925 2216 
z
M 1375 2478 
Q 972 2581 745 2862 
Q 519 3144 519 3541 
Q 519 4097 897 4423 
Q 1275 4750 1925 4750 
Q 2578 4750 2956 4423 
Q 3334 4097 3334 3541 
Q 3334 3144 3107 2862 
Q 2881 2581 2478 2478 
Q 2947 2375 3195 2062 
Q 3444 1750 3444 1253 
Q 3444 622 3041 265 
Q 2638 -91 1925 -91 
Q 1213 -91 811 264 
Q 409 619 409 1247 
Q 409 1747 657 2061 
Q 906 2375 1375 2478 
z
M 1147 3481 
Q 1147 3106 1347 2909 
Q 1547 2713 1925 2713 
Q 2306 2713 2506 2909 
Q 2706 3106 2706 3481 
Q 2706 3863 2507 4063 
Q 2309 4263 1925 4263 
Q 1547 4263 1347 4061 
Q 1147 3859 1147 3481 
z
" transform="scale(0.015625)"/>
       </defs>
       <use xlink:href="#DejaVuSansMono-38"/>
       <use xlink:href="#DejaVuSansMono-30" x="60.205078"/>
       <use xlink:href="#DejaVuSansMono-30" x="120.410156"/>
      </g>
     </g>
    </g>
   </g>
   <g id="matplotlib.axis_2">
    <g id="ytick_1">
     <g id="line2d_5">
      <defs>
       <path id="m1a66867d5c" d="M 0 0 
L -3.5 0 
" style="stroke: #000000; stroke-width: 0.8"/>
      </defs>
      <g>
       <use xlink:href="#m1a66867d5c" x="41.92" y="386.811578" style="stroke: #000000; stroke-width: 0.8"/>
      </g>
     </g>
     <g id="text_5">
      <!-- 0.00 -->
      <g transform="translate(10.83875 390.637359) scale(0.1 -0.1)">
       <defs>
        <path id="DejaVuSansMono-2e" d="M 1528 953 
L 2316 953 
L 2316 0 
L 1528 0 
L 1528 953 
z
" transform="scale(0.015625)"/>
       </defs>
       <use xlink:href="#DejaVuSansMono-30"/>
       <use xlink:href="#DejaVuSansMono-2e" x="60.205078"/>
       <use xlink:href="#DejaVuSansMono-30" x="120.410156"/>
       <use xlink:href="#DejaVuSansMono-30" x="180.615234"/>
      </g>
     </g>
    </g>
    <g id="ytick_2">
     <g id="line2d_6">
      <g>
       <use xlink:href="#m1a66867d5c" x="41.92" y="326.051856" style="stroke: #000000; stroke-width: 0.8"/>
      </g>
     </g>
     <g id="text_6">
      <!-- 0.02 -->
      <g transform="translate(10.83875 329.877637) scale(0.1 -0.1)">
       <use xlink:href="#DejaVuSansMono-30"/>
       <use xlink:href="#DejaVuSansMono-2e" x="60.205078"/>
       <use xlink:href="#DejaVuSansMono-30" x="120.410156"/>
       <use xlink:href="#DejaVuSansMono-32" x="180.615234"/>
      </g>
     </g>
    </g>
    <g id="ytick_3">
     <g id="line2d_7">
      <g>
       <use xlink:href="#m1a66867d5c" x="41.92" y="265.292133" style="stroke: #000000; stroke-width: 0.8"/>
      </g>
     </g>
     <g id="text_7">
      <!-- 0.04 -->
      <g transform="translate(10.83875 269.117915) scale(0.1 -0.1)">
       <use xlink:href="#DejaVuSansMono-30"/>
       <use xlink:href="#DejaVuSansMono-2e" x="60.205078"/>
       <use xlink:href="#DejaVuSansMono-30" x="120.410156"/>
       <use xlink:href="#DejaVuSansMono-34" x="180.615234"/>
      </g>
     </g>
    </g>
    <g id="ytick_4">
     <g id="line2d_8">
      <g>
       <use xlink:href="#m1a66867d5c" x="41.92" y="204.532411" style="stroke: #000000; stroke-width: 0.8"/>
      </g>
     </g>
     <g id="text_8">
      <!-- 0.06 -->
      <g transform="translate(10.83875 208.358192) scale(0.1 -0.1)">
       <use xlink:href="#DejaVuSansMono-30"/>
       <use xlink:href="#DejaVuSansMono-2e" x="60.205078"/>
       <use xlink:href="#DejaVuSansMono-30" x="120.410156"/>
       <use xlink:href="#DejaVuSansMono-36" x="180.615234"/>
      </g>
     </g>
    </g>
    <g id="ytick_5">
     <g id="line2d_9">
      <g>
       <use xlink:href="#m1a66867d5c" x="41.92" y="143.772689" style="stroke: #000000; stroke-width: 0.8"/>
      </g>
     </g>
     <g id="text_9">
      <!-- 0.08 -->
      <g transform="translate(10.83875 147.59847) scale(0.1 -0.1)">
       <use xlink:href="#DejaVuSansMono-30"/>
       <use xlink:href="#DejaVuSansMono-2e" x="60.205078"/>
       <use xlink:href="#DejaVuSansMono-30" x="120.410156"/>
       <use xlink:href="#DejaVuSansMono-38" x="180.615234"/>
      </g>
     </g>
    </g>
    <g id="ytick_6">
     <g id="line2d_10">
      <g>
       <use xlink:href="#m1a66867d5c" x="41.92" y="83.012966" style="stroke: #000000; stroke-width: 0.8"/>
      </g>
     </g>
     <g id="text_10">
      <!-- 0.10 -->
      <g transform="translate(10.83875 86.838747) scale(0.1 -0.1)">
       <defs>
        <path id="DejaVuSansMono-31" d="M 844 531 
L 1825 531 
L 1825 4097 
L 769 3859 
L 769 4434 
L 1819 4666 
L 2450 4666 
L 2450 531 
L 3419 531 
L 3419 0 
L 844 0 
L 844 531 
z
" transform="scale(0.015625)"/>
       </defs>
       <use xlink:href="#DejaVuSansMono-30"/>
       <use xlink:href="#DejaVuSansMono-2e" x="60.205078"/>
       <use xlink:href="#DejaVuSansMono-31" x="120.410156"/>
       <use xlink:href="#DejaVuSansMono-30" x="180.615234"/>
      </g>
     </g>
    </g>
    <g id="ytick_7">
     <g id="line2d_11">
      <g>
       <use xlink:href="#m1a66867d5c" x="41.92" y="22.253244" style="stroke: #000000; stroke-width: 0.8"/>
      </g>
     </g>
     <g id="text_11">
      <!-- 0.12 -->
      <g transform="translate(10.83875 26.079025) scale(0.1 -0.1)">
       <use xlink:href="#DejaVuSansMono-30"/>
       <use xlink:href="#DejaVuSansMono-2e" x="60.205078"/>
       <use xlink:href="#DejaVuSansMono-31" x="120.410156"/>
       <use xlink:href="#DejaVuSansMono-32" x="180.615234"/>
      </g>
     </g>
    </g>
   </g>
   <g id="line2d_12">
    <path d="M 33.650071 101.008053 
L 34.477064 70.850619 
L 35.304057 92.744575 
L 36.958043 106.588414 
L 37.785036 131.255151 
L 38.612029 121.948756 
L 39.439021 118.643954 
L 40.266014 120.33834 
L 41.093007 135.713849 
L 41.92 140.787292 
L 42.746993 181.321954 
L 43.573986 180.229266 
L 44.400979 181.323542 
L 45.227971 180.40515 
L 46.054964 157.963799 
L 46.881957 169.246693 
L 47.70895 126.017841 
L 48.535943 117.403544 
L 49.362936 98.130178 
L 50.189929 98.135122 
L 51.016922 95.105307 
L 51.843914 96.579856 
L 52.670907 63.761878 
L 53.4979 61.28775 
L 54.324893 74.822644 
L 55.151886 76.594194 
L 55.978879 124.911279 
L 56.805872 134.853636 
L 57.632864 147.784203 
L 58.459857 148.218597 
L 59.28685 149.560304 
L 60.113843 144.654308 
L 60.940836 176.014107 
L 61.767829 164.858539 
L 62.594822 158.401896 
L 63.421814 158.393982 
L 64.248807 58.711572 
L 65.0758 57.197431 
L 65.902793 46.131045 
L 66.729786 43.574548 
L 67.556779 28.678182 
L 68.383772 34.886989 
L 69.210765 32.122479 
L 70.037757 45.829291 
L 70.86475 33.438005 
L 71.691743 33.446999 
L 72.518736 132.720641 
L 73.345729 134.99619 
L 74.172722 144.992624 
L 74.999715 145.481544 
L 75.826707 156.951672 
L 76.6537 157.250284 
L 77.480693 144.134266 
L 78.307686 142.379567 
L 79.134679 169.722777 
L 79.961672 137.052508 
L 80.788665 138.369623 
L 81.615657 138.026153 
L 82.44265 137.4853 
L 83.269643 136.640253 
L 84.096636 129.473002 
L 84.923629 104.787702 
L 85.750622 118.044012 
L 86.577615 112.036828 
L 87.404608 111.09952 
L 88.2316 141.849247 
L 89.058593 142.316845 
L 89.885586 142.332594 
L 90.712579 137.825664 
L 91.539572 139.687679 
L 92.366565 152.141601 
L 93.193558 167.04679 
L 94.02055 171.289425 
L 94.847543 177.325427 
L 95.674536 178.780668 
L 96.501529 180.969026 
L 97.328522 180.234717 
L 98.155515 177.635158 
L 98.982508 176.309861 
L 99.809501 168.642469 
L 100.636493 168.797958 
L 101.463486 177.187335 
L 102.290479 175.520932 
L 103.117472 179.173018 
L 103.944465 166.686613 
L 104.771458 164.332947 
L 105.598451 163.865968 
L 106.425443 161.080478 
L 107.252436 162.585268 
L 108.079429 161.132941 
L 108.906422 160.079265 
L 110.560408 163.205852 
L 111.387401 163.652557 
L 112.214393 176.162262 
L 113.041386 178.314306 
L 113.868379 165.533229 
L 114.695372 155.651793 
L 115.522365 167.85487 
L 116.349358 175.909939 
L 117.176351 173.82241 
L 118.003344 173.747239 
L 118.830336 167.405009 
L 119.657329 162.150558 
L 120.484322 160.432806 
L 121.311315 158.145302 
L 122.138308 167.220068 
L 122.965301 182.544906 
L 123.792294 178.637366 
L 124.619286 171.841121 
L 125.446279 157.064846 
L 126.273272 156.873012 
L 127.100265 161.118322 
L 127.927258 164.177138 
L 128.754251 162.782907 
L 129.581244 161.907105 
L 130.408236 166.659749 
L 131.235229 164.338122 
L 132.062222 168.389726 
L 132.889215 167.174004 
L 133.716208 178.173629 
L 134.543201 174.883085 
L 135.370194 170.664379 
L 136.197187 172.910194 
L 137.024179 176.134063 
L 138.678165 176.954997 
L 139.505158 179.378385 
L 140.332151 174.911859 
L 141.986137 189.398386 
L 142.813129 190.063181 
L 143.640122 195.593937 
L 144.467115 195.581659 
L 145.294108 190.139742 
L 146.121101 192.81429 
L 146.948094 190.568609 
L 147.775087 190.058967 
L 148.60208 190.715957 
L 149.429072 188.418669 
L 150.256065 188.133807 
L 151.083058 189.104451 
L 151.910051 188.607053 
L 152.737044 187.748062 
L 153.564037 191.849635 
L 155.218022 188.020238 
L 156.045015 188.466218 
L 156.872008 192.118357 
L 157.699001 195.21385 
L 158.525994 195.401469 
L 159.352987 197.468917 
L 160.17998 195.648896 
L 161.006972 196.28365 
L 161.833965 195.731678 
L 162.660958 197.227784 
L 163.487951 198.311932 
L 164.314944 197.681763 
L 165.141937 197.637927 
L 165.96893 196.736498 
L 166.795923 194.630562 
L 167.622915 191.634403 
L 168.449908 190.566502 
L 169.276901 180.006906 
L 170.103894 181.902437 
L 170.930887 180.47401 
L 171.75788 182.957783 
L 172.584873 182.28762 
L 173.411865 179.012292 
L 174.238858 180.620736 
L 175.065851 182.690746 
L 175.892844 181.299593 
L 176.719837 184.541946 
L 177.54683 191.091343 
L 178.373823 191.132184 
L 179.200815 192.957266 
L 180.027808 192.866096 
L 180.854801 190.737788 
L 181.681794 190.617473 
L 182.508787 190.835526 
L 183.33578 189.881686 
L 184.162773 193.43358 
L 184.989766 193.951932 
L 185.816758 195.938687 
L 187.470744 187.731352 
L 188.297737 188.266548 
L 189.12473 190.345593 
L 189.951723 193.69903 
L 190.778716 189.679082 
L 191.605708 184.837407 
L 192.432701 181.771018 
L 193.259694 180.682503 
L 194.086687 183.068055 
L 194.91368 172.071769 
L 195.740673 176.302518 
L 196.567666 175.534387 
L 197.394659 176.525654 
L 198.221651 176.364931 
L 199.048644 180.564768 
L 199.875637 186.608021 
L 200.70263 190.145624 
L 201.529623 190.455716 
L 202.356616 189.681397 
L 203.183609 204.643781 
L 204.010601 204.037884 
L 204.837594 201.25568 
L 205.664587 202.033655 
L 206.49158 199.356201 
L 207.318573 199.595748 
L 208.145566 198.335646 
L 208.972559 195.720728 
L 209.799551 195.859943 
L 210.626544 196.74448 
L 211.453537 190.447512 
L 212.28053 190.496117 
L 213.107523 193.995177 
L 213.934516 193.913753 
L 214.761509 196.877045 
L 215.588502 196.673982 
L 216.415494 197.766179 
L 217.242487 200.164839 
L 218.06948 201.334703 
L 218.896473 201.451979 
L 219.723466 205.355491 
L 220.550459 205.053561 
L 221.377452 201.174309 
L 222.204444 201.556697 
L 223.031437 201.615176 
L 223.85843 200.915551 
L 224.685423 201.258758 
L 225.512416 200.394427 
L 226.339409 200.270209 
L 227.166402 199.334661 
L 227.993394 198.57098 
L 228.820387 199.258991 
L 229.64738 204.269721 
L 230.474373 204.163079 
L 231.301366 203.67518 
L 232.128359 205.366278 
L 232.955352 202.283232 
L 233.782345 204.056546 
L 235.43633 204.450101 
L 236.263323 207.605007 
L 237.090316 206.678806 
L 237.917309 206.404502 
L 238.744302 206.782177 
L 239.571295 207.786779 
L 240.398287 203.941269 
L 241.22528 207.411621 
L 242.052273 208.194735 
L 243.706259 209.228084 
L 244.533252 209.704153 
L 245.360245 211.806477 
L 246.187238 212.321862 
L 247.01423 211.052226 
L 247.841223 211.802474 
L 248.668216 213.076593 
L 249.495209 213.42465 
L 251.149195 213.551927 
L 251.976188 214.780288 
L 252.80318 210.675686 
L 253.630173 208.954526 
L 254.457166 208.697707 
L 255.284159 210.458911 
L 256.111152 210.122527 
L 256.938145 212.747397 
L 258.59213 213.332373 
L 259.419123 213.836627 
L 260.246116 213.912707 
L 261.073109 219.009435 
L 261.900102 221.472476 
L 262.727095 221.089831 
L 263.554088 221.283312 
L 264.381081 222.013463 
L 265.208073 222.270723 
L 266.035066 222.713905 
L 267.689052 218.118427 
L 268.516045 218.419583 
L 269.343038 218.275185 
L 270.170031 218.755504 
L 270.997023 219.895099 
L 272.651009 220.524077 
L 274.304995 221.955876 
L 275.131988 223.934318 
L 275.958981 226.67789 
L 277.612966 227.684085 
L 278.439959 228.054816 
L 279.266952 228.669626 
L 280.920938 229.066853 
L 281.747931 229.551742 
L 282.574924 228.361485 
L 284.228909 230.861188 
L 285.055902 231.341606 
L 285.882895 232.083164 
L 286.709888 232.620294 
L 287.536881 233.672152 
L 288.363874 235.1143 
L 289.190866 235.716097 
L 290.017859 237.074141 
L 290.844852 239.662859 
L 291.671845 240.256207 
L 292.498838 240.577908 
L 293.325831 241.106096 
L 294.152824 242.642811 
L 294.979817 243.419292 
L 295.806809 245.00234 
L 296.633802 244.813575 
L 297.460795 245.854218 
L 299.114781 247.300097 
L 299.941774 249.3444 
L 300.768767 250.689393 
L 301.595759 252.860885 
L 303.249745 255.403728 
L 304.076738 255.933255 
L 307.384709 263.890807 
L 308.211702 265.219056 
L 309.038695 266.100384 
L 309.865688 267.368085 
L 310.692681 267.947872 
L 313.17366 274.798408 
L 314.000652 276.444258 
L 314.827645 277.183527 
L 316.481631 280.353385 
L 317.308624 282.888066 
L 318.135617 283.579618 
L 318.96261 286.113811 
L 319.789602 288.070018 
L 321.443588 293.046554 
L 322.270581 294.844697 
L 323.924567 299.811765 
L 324.75156 302.009751 
L 325.578552 304.909587 
L 326.405545 306.622143 
L 327.232538 308.640397 
L 328.059531 311.094143 
L 328.886524 312.840641 
L 329.713517 315.249077 
L 330.54051 318.322774 
L 333.021488 325.953137 
L 333.848481 327.78632 
L 334.675474 331.089273 
L 335.502467 333.929506 
L 336.32946 335.102612 
L 337.156453 336.930958 
L 337.983445 337.584644 
L 338.810438 339.907986 
L 341.291417 344.806351 
L 342.945403 349.10881 
L 343.772396 350.041909 
L 344.599388 351.683733 
L 345.426381 353.019849 
L 346.253374 354.66865 
L 347.080367 354.643175 
L 348.734353 355.944659 
L 349.561346 356.366899 
L 350.388338 355.505877 
L 351.215331 355.391024 
L 352.869317 356.494464 
L 353.69631 356.782684 
L 355.350296 358.097064 
L 357.004281 358.338084 
L 357.831274 358.698296 
L 360.312253 362.367341 
L 361.966239 363.394352 
L 362.793231 364.208729 
L 364.447217 365.287985 
L 365.27421 366.29563 
L 366.101203 366.8754 
L 366.928196 367.072493 
L 367.755189 367.626919 
L 368.582181 367.544928 
L 369.409174 368.404666 
L 370.236167 368.486911 
L 371.890153 368.959971 
L 372.717146 369.650017 
L 374.371131 370.212504 
L 375.198124 370.883663 
L 376.85211 371.904399 
L 377.679103 372.079725 
L 378.506096 372.111534 
L 380.160082 372.704927 
L 380.987074 373.215271 
L 381.814067 373.090594 
L 382.64106 372.366476 
L 384.295046 372.028353 
L 385.122039 370.115798 
L 385.949032 370.127038 
L 386.776024 370.586994 
L 387.603017 370.469652 
L 388.43001 370.612633 
L 389.257003 370.476849 
L 390.083996 370.222981 
L 390.910989 371.484938 
L 392.564975 371.925082 
L 393.391967 374.412706 
L 394.21896 374.592098 
L 395.045953 375.244179 
L 395.872946 375.606171 
L 396.699939 375.48068 
L 397.526932 375.970441 
L 398.353925 377.145834 
L 399.180917 377.162632 
L 400.00791 377.533385 
L 400.834903 376.537885 
L 401.661896 376.446896 
L 402.488889 376.69848 
L 403.315882 377.080529 
L 404.142875 376.922072 
L 404.969867 377.805925 
L 405.79686 377.660768 
L 407.450846 377.865821 
L 408.277839 377.702958 
L 409.104832 379.156783 
L 409.931825 379.449604 
L 411.58581 379.16516 
L 412.412803 379.5409 
L 413.239796 379.106569 
L 414.066789 379.465336 
L 414.893782 379.504236 
L 415.720775 379.683674 
L 416.547768 380.170713 
L 417.37476 380.361319 
L 418.201753 380.288028 
L 419.855739 380.617613 
L 420.682732 380.341929 
L 421.509725 380.66421 
L 422.336718 380.641498 
L 423.16371 380.458649 
L 423.990703 378.536951 
L 424.817696 378.430317 
L 425.644689 378.629079 
L 426.471682 378.181895 
L 428.125668 377.734915 
L 428.952661 378.377331 
L 429.779653 377.92883 
L 430.606646 378.232433 
L 431.433639 378.356719 
L 432.260632 380.569479 
L 433.087625 380.766511 
L 433.914618 380.735065 
L 434.741611 381.42335 
L 435.568603 381.741573 
L 437.222589 381.281253 
L 438.049582 381.531544 
L 438.876575 381.252049 
L 439.703568 380.166722 
L 440.530561 380.075261 
L 441.357554 379.828563 
L 442.184546 379.767973 
L 443.011539 379.45246 
L 443.838532 379.325568 
L 444.665525 379.809056 
L 445.492518 379.922766 
L 447.146504 380.65486 
L 447.973496 382.148586 
L 448.800489 382.293452 
L 449.627482 382.651022 
L 450.454475 382.763871 
L 451.281468 383.215711 
L 452.108461 383.418861 
L 453.762446 383.498255 
L 454.589439 382.79094 
L 455.416432 382.769025 
L 456.243425 382.483894 
L 457.070418 382.586403 
L 462.032375 382.301953 
L 462.859368 382.960241 
L 463.686361 382.960616 
L 464.513354 383.186994 
L 465.340347 383.143529 
L 466.167339 383.259007 
L 466.994332 383.58614 
L 467.821325 383.65349 
L 468.648318 383.247512 
L 469.475311 383.544616 
L 471.129297 383.771811 
L 471.95629 383.661832 
L 472.783282 383.818635 
L 473.610275 383.694537 
L 475.264261 383.625208 
L 476.091254 383.557547 
L 476.918247 384.063478 
L 479.399225 384.085324 
L 480.226218 384.375996 
L 481.053211 384.352573 
L 481.880204 384.588052 
L 482.707197 384.540076 
L 483.53419 383.885796 
L 486.015168 384.276455 
L 487.669154 384.24052 
L 488.496147 383.472466 
L 489.32314 383.488 
L 490.150133 382.572257 
L 490.977125 382.591769 
L 491.804118 383.291577 
L 492.631111 382.955788 
L 493.458104 382.807467 
L 495.939083 382.80158 
L 496.766075 383.554818 
L 497.593068 383.038097 
L 498.420061 383.93135 
L 499.247054 383.980478 
L 500.074047 383.908009 
L 500.90104 384.177014 
L 501.728033 384.217994 
L 502.555025 384.130682 
L 503.382018 384.255357 
L 504.209011 384.232997 
L 505.036004 383.70621 
L 505.862997 384.249688 
L 506.68999 384.261746 
L 510.824954 385.095598 
L 511.651947 384.884832 
L 512.47894 384.985806 
L 513.305933 385.568672 
L 514.132926 385.499507 
L 515.786911 385.209023 
L 516.613904 384.690053 
L 518.26789 384.440873 
L 519.094883 384.442209 
L 519.921876 384.563366 
L 520.748869 384.500978 
L 522.402854 384.144831 
L 524.05684 384.224445 
L 524.883833 384.792275 
L 526.537819 384.88741 
L 527.364811 384.697551 
L 528.191804 384.844738 
L 529.018797 384.819758 
L 529.84579 384.59284 
L 531.499776 384.723056 
L 532.326769 384.539341 
L 533.980754 384.493767 
L 537.288726 384.621654 
L 538.115719 384.979241 
L 538.942712 385.136084 
L 539.769704 385.037755 
L 541.42369 384.66648 
L 543.077676 384.67577 
L 543.904669 384.553862 
L 546.385647 384.73878 
L 547.21264 384.499071 
L 548.039633 384.646304 
L 548.866626 384.661869 
L 549.693619 384.838973 
L 552.174597 384.682758 
L 553.828583 384.689785 
L 554.655576 384.823498 
L 555.482569 385.098043 
L 556.309562 385.249261 
L 557.136555 385.693351 
L 558.79054 385.484094 
L 559.617533 385.473352 
L 560.444526 385.775182 
L 561.271519 385.683421 
L 562.098512 385.299927 
L 562.925505 385.303072 
L 564.57949 384.97395 
L 565.406483 384.538901 
L 567.887462 384.938839 
L 568.714455 384.482869 
L 569.541448 384.524892 
L 570.36844 384.949525 
L 571.195433 384.742886 
L 572.022426 384.940448 
L 572.849419 384.959266 
L 573.676412 385.145099 
L 576.15739 384.847025 
L 576.984383 385.237028 
L 579.465362 385.335807 
L 580.292355 385.222713 
L 581.119348 385.321755 
L 581.94634 385.582065 
L 582.773333 385.692546 
L 583.600326 383.89666 
L 584.427319 383.942811 
L 585.254312 383.768391 
L 587.735291 382.756268 
L 588.562283 382.477686 
L 590.216269 382.52879 
L 591.043262 381.99356 
L 591.870255 382.850722 
L 592.697248 382.882276 
L 595.178226 383.729919 
L 596.005219 384.261803 
L 596.832212 384.656506 
L 598.486198 384.666464 
L 599.313191 385.214837 
L 600.140183 386.241818 
L 600.967176 386.069696 
L 602.621162 386.01402 
L 603.448155 386.104209 
L 605.929134 385.766682 
L 608.410112 385.772906 
L 609.237105 385.892594 
L 611.718084 385.725545 
L 612.545076 385.562435 
L 617.507034 385.387721 
L 619.988012 385.467815 
L 620.815005 385.414135 
L 621.641998 385.506362 
L 622.468991 385.412519 
L 623.295984 385.185903 
L 624.122977 385.290046 
L 625.776962 385.287251 
L 626.603955 384.321856 
L 627.430948 383.859432 
L 628.257941 383.738854 
L 629.084934 384.046844 
L 629.911927 384.0428 
L 631.565912 384.464392 
L 632.392905 384.180578 
L 634.046891 384.056335 
L 634.873884 385.023563 
L 635.700877 385.570548 
L 636.52787 385.709171 
L 638.181855 385.683088 
L 639.008848 385.564136 
L 640.662834 385.652158 
L 641.489827 385.513939 
L 642.31682 385.500998 
L 643.970805 385.182567 
L 648.10577 384.976009 
L 649.759755 385.462294 
L 657.202691 385.703242 
L 659.68367 385.749588 
L 660.510663 385.846725 
L 664.645627 385.652533 
L 665.47262 385.123445 
L 666.299613 384.430069 
L 670.434577 384.330111 
L 671.26157 384.082638 
L 672.915556 384.209108 
L 673.742548 384.629279 
L 674.569541 385.275742 
L 676.223527 385.355373 
L 677.05052 385.429798 
L 677.877513 383.840225 
L 678.704506 383.93643 
L 679.531498 384.176117 
L 681.185484 384.198256 
L 682.012477 384.341719 
L 682.83947 384.342149 
L 683.666463 384.01407 
L 684.493456 383.516407 
L 685.320449 383.448387 
L 686.147441 384.937797 
L 686.974434 384.803291 
L 687.801427 384.513914 
L 691.109399 384.478322 
L 691.936391 384.738664 
L 692.763384 385.209515 
L 694.41737 385.456951 
L 695.244363 385.197029 
L 696.071356 385.560778 
L 696.898349 385.635454 
L 699.379327 385.470612 
L 702.687299 385.354126 
L 703.514292 385.590808 
L 704.341284 385.53663 
L 705.168277 385.322081 
L 705.99527 385.266874 
L 706.822263 385.428838 
L 707.649256 385.258598 
L 709.303242 385.465702 
L 710.130234 385.360277 
L 713.438206 385.561943 
L 714.265199 385.728818 
L 715.092192 385.727935 
L 715.919185 385.909534 
L 720.881142 386.024259 
L 721.708135 386.20411 
L 723.36212 386.229296 
L 724.189113 385.942891 
L 725.843099 385.805786 
L 726.670092 385.402753 
L 727.497085 385.242222 
L 729.978063 385.259594 
L 731.632049 385.128011 
L 732.459042 385.391331 
L 734.113028 385.543084 
L 734.94002 385.869226 
L 735.767013 386.04538 
L 736.594006 385.322214 
L 737.420999 385.166223 
L 740.72897 385.159347 
L 744.036942 385.06144 
L 744.863935 385.74612 
L 745.690928 385.91935 
L 747.344913 385.670269 
L 748.998899 385.735092 
L 750.652885 385.67533 
L 753.133863 385.664898 
L 753.960856 385.674975 
L 755.614842 385.936979 
L 758.095821 386.01575 
L 759.749806 386.050096 
L 761.403792 386.056541 
L 762.230785 386.001856 
L 763.057778 385.795627 
L 766.365749 385.500727 
L 768.019735 385.576857 
L 770.500714 385.641286 
L 771.327706 385.815091 
L 778.770642 385.778309 
L 780.424628 385.721208 
L 781.251621 385.262202 
L 784.559592 385.332723 
L 785.386585 385.109571 
L 786.213578 384.612728 
L 788.694557 384.673336 
L 789.521549 385.171123 
L 791.175535 385.062344 
L 793.656514 385.309387 
L 794.483507 385.878448 
L 795.310499 385.866878 
L 796.964485 385.569206 
L 797.791478 385.551567 
L 798.618471 385.770876 
L 800.272457 385.778089 
L 801.09945 385.120362 
L 801.926442 384.990326 
L 802.753435 384.987014 
L 803.580428 383.300361 
L 805.234414 383.631559 
L 807.715392 383.669834 
L 808.542385 382.11858 
L 809.369378 382.681469 
L 811.023364 382.827971 
L 811.850357 384.561229 
L 813.504343 384.675114 
L 815.985321 384.62025 
L 816.812314 385.256363 
L 817.639307 385.383901 
L 819.293293 385.388489 
L 820.120285 385.168533 
L 820.947278 385.203611 
L 821.774271 384.9666 
L 823.428257 384.961789 
L 824.25525 384.484953 
L 825.082243 384.767107 
L 825.909235 384.534209 
L 827.563221 384.508877 
L 828.390214 384.674741 
L 829.217207 384.534689 
L 830.0442 384.726748 
L 831.698186 384.681563 
L 833.352171 385.535229 
L 834.179164 385.663999 
L 836.660143 385.280624 
L 837.487136 385.396735 
L 838.314128 385.27577 
L 840.795107 385.204297 
L 841.6221 385.431037 
L 843.276086 385.532105 
L 844.103078 384.934051 
L 844.930071 385.051215 
L 845.757064 384.958146 
L 846.584057 385.095024 
L 848.238043 384.490445 
L 849.065036 384.399258 
L 849.892029 383.942579 
L 850.719021 383.769898 
L 851.546014 383.950398 
L 852.373007 384.738419 
L 852.373007 384.738419 
" clip-path="url(#p3be721f701)" style="fill: none; stroke-dasharray: 7.4,3.2; stroke-dashoffset: 0; stroke: #000000; stroke-width: 2"/>
   </g>
   <g id="patch_3">
    <path d="M 41.92 404.12 
L 41.92 10.8 
" style="fill: none; stroke: #000000; stroke-width: 0.8; stroke-linejoin: miter; stroke-linecap: square"/>
   </g>
   <g id="patch_4">
    <path d="M 853.2 404.12 
L 853.2 10.8 
" style="fill: none; stroke: #000000; stroke-width: 0.8; stroke-linejoin: miter; stroke-linecap: square"/>
   </g>
   <g id="patch_5">
    <path d="M 41.92 404.12 
L 853.2 404.12 
" style="fill: none; stroke: #000000; stroke-width: 0.8; stroke-linejoin: miter; stroke-linecap: square"/>
   </g>
   <g id="patch_6">
    <path d="M 41.92 10.8 
L 853.2 10.8 
" style="fill: none; stroke: #000000; stroke-width: 0.8; stroke-linejoin: miter; stroke-linecap: square"/>
   </g>
  </g>
 </g>
 <defs>
  <clipPath id="p3be721f701">
   <rect x="41.92" y="10.8" width="811.28" height="393.32"/>
  </clipPath>
 </defs>
</svg>
