<?xml version="1.0" encoding="utf-8" standalone="no"?>
<!DOCTYPE svg PUBLIC "-//W3C//DTD SVG 1.1//EN"
  "http://www.w3.org/Graphics/SVG/1.1/DTD/svg11.dtd">
<svg xmlns:xlink="http://www.w3.org/1999/xlink" width="864pt" height="432pt" viewBox="0 0 864 432" xmlns="http://www.w3.org/2000/svg" version="1.1">
 <metadata>
  <rdf:RDF xmlns:dc="http://purl.org/dc/elements/1.1/" xmlns:cc="http://creativecommons.org/ns#" xmlns:rdf="http://www.w3.org/1999/02/22-rdf-syntax-ns#">
   <cc:Work>
    <dc:type rdf:resource="http://purl.org/dc/dcmitype/StillImage"/>
    <dc:date>2024-09-16T08:29:04.723294</dc:date>
    <dc:format>image/svg+xml</dc:format>
    <dc:creator>
     <cc:Agent>
      <dc:title>Matplotlib v3.9.2, https://matplotlib.org/</dc:title>
     </cc:Agent>
    </dc:creator>
   </cc:Work>
  </rdf:RDF>
 </metadata>
 <defs>
  <style type="text/css">*{stroke-linejoin: round; stroke-linecap: butt}</style>
 </defs>
 <g id="figure_1">
  <g id="patch_1">
   <path d="M 0 432 
L 864 432 
L 864 0 
L 0 0 
z
" style="fill: #ffffff"/>
  </g>
  <g id="axes_1">
   <g id="patch_2">
    <path d="M 41.92 403.436 
L 853.2 403.436 
L 853.2 11.956572 
L 41.92 11.956572 
z
" style="fill: #ffffff"/>
   </g>
   <g id="matplotlib.axis_1">
    <g id="xtick_1">
     <g id="line2d_1">
      <defs>
       <path id="mc8b8d35879" d="M 0 0 
L 0 3.5 
" style="stroke: #000000; stroke-width: 0.8"/>
      </defs>
      <g>
       <use xlink:href="#mc8b8d35879" x="41.92" y="403.436" style="stroke: #000000; stroke-width: 0.8"/>
      </g>
     </g>
     <g id="text_1">
      <!-- $\mathdefault{10^{1}}$ -->
      <g transform="translate(33.57 418.087562) scale(0.1 -0.1)">
       <defs>
        <path id="DejaVuSansMono-31" d="M 844 531 
L 1825 531 
L 1825 4097 
L 769 3859 
L 769 4434 
L 1819 4666 
L 2450 4666 
L 2450 531 
L 3419 531 
L 3419 0 
L 844 0 
L 844 531 
z
" transform="scale(0.015625)"/>
        <path id="DejaVuSansMono-30" d="M 1509 2344 
Q 1509 2516 1629 2641 
Q 1750 2766 1919 2766 
Q 2094 2766 2219 2641 
Q 2344 2516 2344 2344 
Q 2344 2169 2220 2047 
Q 2097 1925 1919 1925 
Q 1744 1925 1626 2044 
Q 1509 2163 1509 2344 
z
M 1925 4250 
Q 1484 4250 1267 3775 
Q 1050 3300 1050 2328 
Q 1050 1359 1267 884 
Q 1484 409 1925 409 
Q 2369 409 2586 884 
Q 2803 1359 2803 2328 
Q 2803 3300 2586 3775 
Q 2369 4250 1925 4250 
z
M 1925 4750 
Q 2672 4750 3055 4137 
Q 3438 3525 3438 2328 
Q 3438 1134 3055 521 
Q 2672 -91 1925 -91 
Q 1178 -91 797 521 
Q 416 1134 416 2328 
Q 416 3525 797 4137 
Q 1178 4750 1925 4750 
z
" transform="scale(0.015625)"/>
       </defs>
       <use xlink:href="#DejaVuSansMono-31" transform="translate(0 0.684375)"/>
       <use xlink:href="#DejaVuSansMono-30" transform="translate(60.205078 0.684375)"/>
       <use xlink:href="#DejaVuSansMono-31" transform="translate(121.367188 38.965625) scale(0.7)"/>
      </g>
     </g>
    </g>
    <g id="xtick_2">
     <g id="line2d_2">
      <g>
       <use xlink:href="#mc8b8d35879" x="394.492544" y="403.436" style="stroke: #000000; stroke-width: 0.8"/>
      </g>
     </g>
     <g id="text_2">
      <!-- $\mathdefault{10^{2}}$ -->
      <g transform="translate(386.142544 418.087562) scale(0.1 -0.1)">
       <defs>
        <path id="DejaVuSansMono-32" d="M 1166 531 
L 3309 531 
L 3309 0 
L 475 0 
L 475 531 
Q 1059 1147 1496 1619 
Q 1934 2091 2100 2284 
Q 2413 2666 2522 2902 
Q 2631 3138 2631 3384 
Q 2631 3775 2401 3997 
Q 2172 4219 1772 4219 
Q 1488 4219 1175 4116 
Q 863 4013 513 3803 
L 513 4441 
Q 834 4594 1145 4672 
Q 1456 4750 1759 4750 
Q 2444 4750 2861 4386 
Q 3278 4022 3278 3431 
Q 3278 3131 3139 2831 
Q 3000 2531 2688 2169 
Q 2513 1966 2180 1606 
Q 1847 1247 1166 531 
z
" transform="scale(0.015625)"/>
       </defs>
       <use xlink:href="#DejaVuSansMono-31" transform="translate(0 0.765625)"/>
       <use xlink:href="#DejaVuSansMono-30" transform="translate(60.205078 0.765625)"/>
       <use xlink:href="#DejaVuSansMono-32" transform="translate(121.367188 39.046875) scale(0.7)"/>
      </g>
     </g>
    </g>
    <g id="xtick_3">
     <g id="line2d_3">
      <g>
       <use xlink:href="#mc8b8d35879" x="747.065089" y="403.436" style="stroke: #000000; stroke-width: 0.8"/>
      </g>
     </g>
     <g id="text_3">
      <!-- $\mathdefault{10^{3}}$ -->
      <g transform="translate(738.715089 418.087562) scale(0.1 -0.1)">
       <defs>
        <path id="DejaVuSansMono-33" d="M 2425 2497 
Q 2884 2375 3128 2064 
Q 3372 1753 3372 1288 
Q 3372 644 2939 276 
Q 2506 -91 1741 -91 
Q 1419 -91 1084 -31 
Q 750 28 428 141 
L 428 769 
Q 747 603 1056 522 
Q 1366 441 1672 441 
Q 2191 441 2469 675 
Q 2747 909 2747 1350 
Q 2747 1756 2469 1995 
Q 2191 2234 1716 2234 
L 1234 2234 
L 1234 2753 
L 1716 2753 
Q 2150 2753 2394 2943 
Q 2638 3134 2638 3475 
Q 2638 3834 2411 4026 
Q 2184 4219 1766 4219 
Q 1488 4219 1191 4156 
Q 894 4094 569 3969 
L 569 4550 
Q 947 4650 1242 4700 
Q 1538 4750 1766 4750 
Q 2447 4750 2855 4408 
Q 3263 4066 3263 3500 
Q 3263 3116 3048 2859 
Q 2834 2603 2425 2497 
z
" transform="scale(0.015625)"/>
       </defs>
       <use xlink:href="#DejaVuSansMono-31" transform="translate(0 0.765625)"/>
       <use xlink:href="#DejaVuSansMono-30" transform="translate(60.205078 0.765625)"/>
       <use xlink:href="#DejaVuSansMono-33" transform="translate(121.367188 39.046875) scale(0.7)"/>
      </g>
     </g>
    </g>
    <g id="xtick_4">
     <g id="line2d_4">
      <defs>
       <path id="m6f0332e115" d="M 0 0 
L 0 2 
" style="stroke: #000000; stroke-width: 0.6"/>
      </defs>
      <g>
       <use xlink:href="#m6f0332e115" x="148.054911" y="403.436" style="stroke: #000000; stroke-width: 0.6"/>
      </g>
     </g>
    </g>
    <g id="xtick_5">
     <g id="line2d_5">
      <g>
       <use xlink:href="#m6f0332e115" x="210.139855" y="403.436" style="stroke: #000000; stroke-width: 0.6"/>
      </g>
     </g>
    </g>
    <g id="xtick_6">
     <g id="line2d_6">
      <g>
       <use xlink:href="#m6f0332e115" x="254.189823" y="403.436" style="stroke: #000000; stroke-width: 0.6"/>
      </g>
     </g>
    </g>
    <g id="xtick_7">
     <g id="line2d_7">
      <g>
       <use xlink:href="#m6f0332e115" x="288.357633" y="403.436" style="stroke: #000000; stroke-width: 0.6"/>
      </g>
     </g>
    </g>
    <g id="xtick_8">
     <g id="line2d_8">
      <g>
       <use xlink:href="#m6f0332e115" x="316.274766" y="403.436" style="stroke: #000000; stroke-width: 0.6"/>
      </g>
     </g>
    </g>
    <g id="xtick_9">
     <g id="line2d_9">
      <g>
       <use xlink:href="#m6f0332e115" x="339.878366" y="403.436" style="stroke: #000000; stroke-width: 0.6"/>
      </g>
     </g>
    </g>
    <g id="xtick_10">
     <g id="line2d_10">
      <g>
       <use xlink:href="#m6f0332e115" x="360.324734" y="403.436" style="stroke: #000000; stroke-width: 0.6"/>
      </g>
     </g>
    </g>
    <g id="xtick_11">
     <g id="line2d_11">
      <g>
       <use xlink:href="#m6f0332e115" x="378.359709" y="403.436" style="stroke: #000000; stroke-width: 0.6"/>
      </g>
     </g>
    </g>
    <g id="xtick_12">
     <g id="line2d_12">
      <g>
       <use xlink:href="#m6f0332e115" x="500.627456" y="403.436" style="stroke: #000000; stroke-width: 0.6"/>
      </g>
     </g>
    </g>
    <g id="xtick_13">
     <g id="line2d_13">
      <g>
       <use xlink:href="#m6f0332e115" x="562.712399" y="403.436" style="stroke: #000000; stroke-width: 0.6"/>
      </g>
     </g>
    </g>
    <g id="xtick_14">
     <g id="line2d_14">
      <g>
       <use xlink:href="#m6f0332e115" x="606.762367" y="403.436" style="stroke: #000000; stroke-width: 0.6"/>
      </g>
     </g>
    </g>
    <g id="xtick_15">
     <g id="line2d_15">
      <g>
       <use xlink:href="#m6f0332e115" x="640.930177" y="403.436" style="stroke: #000000; stroke-width: 0.6"/>
      </g>
     </g>
    </g>
    <g id="xtick_16">
     <g id="line2d_16">
      <g>
       <use xlink:href="#m6f0332e115" x="668.84731" y="403.436" style="stroke: #000000; stroke-width: 0.6"/>
      </g>
     </g>
    </g>
    <g id="xtick_17">
     <g id="line2d_17">
      <g>
       <use xlink:href="#m6f0332e115" x="692.45091" y="403.436" style="stroke: #000000; stroke-width: 0.6"/>
      </g>
     </g>
    </g>
    <g id="xtick_18">
     <g id="line2d_18">
      <g>
       <use xlink:href="#m6f0332e115" x="712.897279" y="403.436" style="stroke: #000000; stroke-width: 0.6"/>
      </g>
     </g>
    </g>
    <g id="xtick_19">
     <g id="line2d_19">
      <g>
       <use xlink:href="#m6f0332e115" x="730.932254" y="403.436" style="stroke: #000000; stroke-width: 0.6"/>
      </g>
     </g>
    </g>
    <g id="xtick_20">
     <g id="line2d_20">
      <g>
       <use xlink:href="#m6f0332e115" x="853.2" y="403.436" style="stroke: #000000; stroke-width: 0.6"/>
      </g>
     </g>
    </g>
   </g>
   <g id="matplotlib.axis_2">
    <g id="ytick_1">
     <g id="line2d_21">
      <defs>
       <path id="m8e5e65d813" d="M 0 0 
L -3.5 0 
" style="stroke: #000000; stroke-width: 0.8"/>
      </defs>
      <g>
       <use xlink:href="#m8e5e65d813" x="41.92" y="360.097082" style="stroke: #000000; stroke-width: 0.8"/>
      </g>
     </g>
     <g id="text_4">
      <!-- 0.15 -->
      <g transform="translate(10.83875 363.922863) scale(0.1 -0.1)">
       <defs>
        <path id="DejaVuSansMono-2e" d="M 1528 953 
L 2316 953 
L 2316 0 
L 1528 0 
L 1528 953 
z
" transform="scale(0.015625)"/>
        <path id="DejaVuSansMono-35" d="M 647 4666 
L 3009 4666 
L 3009 4134 
L 1222 4134 
L 1222 2988 
Q 1356 3038 1492 3061 
Q 1628 3084 1766 3084 
Q 2491 3084 2916 2656 
Q 3341 2228 3341 1497 
Q 3341 759 2895 334 
Q 2450 -91 1678 -91 
Q 1306 -91 998 -41 
Q 691 9 447 109 
L 447 750 
Q 734 594 1025 517 
Q 1316 441 1619 441 
Q 2141 441 2423 716 
Q 2706 991 2706 1497 
Q 2706 1997 2414 2275 
Q 2122 2553 1600 2553 
Q 1347 2553 1106 2495 
Q 866 2438 647 2322 
L 647 4666 
z
" transform="scale(0.015625)"/>
       </defs>
       <use xlink:href="#DejaVuSansMono-30"/>
       <use xlink:href="#DejaVuSansMono-2e" x="60.205078"/>
       <use xlink:href="#DejaVuSansMono-31" x="120.410156"/>
       <use xlink:href="#DejaVuSansMono-35" x="180.615234"/>
      </g>
     </g>
    </g>
    <g id="ytick_2">
     <g id="line2d_22">
      <g>
       <use xlink:href="#m8e5e65d813" x="41.92" y="273.886783" style="stroke: #000000; stroke-width: 0.8"/>
      </g>
     </g>
     <g id="text_5">
      <!-- 0.20 -->
      <g transform="translate(10.83875 277.712565) scale(0.1 -0.1)">
       <use xlink:href="#DejaVuSansMono-30"/>
       <use xlink:href="#DejaVuSansMono-2e" x="60.205078"/>
       <use xlink:href="#DejaVuSansMono-32" x="120.410156"/>
       <use xlink:href="#DejaVuSansMono-30" x="180.615234"/>
      </g>
     </g>
    </g>
    <g id="ytick_3">
     <g id="line2d_23">
      <g>
       <use xlink:href="#m8e5e65d813" x="41.92" y="187.676485" style="stroke: #000000; stroke-width: 0.8"/>
      </g>
     </g>
     <g id="text_6">
      <!-- 0.25 -->
      <g transform="translate(10.83875 191.502266) scale(0.1 -0.1)">
       <use xlink:href="#DejaVuSansMono-30"/>
       <use xlink:href="#DejaVuSansMono-2e" x="60.205078"/>
       <use xlink:href="#DejaVuSansMono-32" x="120.410156"/>
       <use xlink:href="#DejaVuSansMono-35" x="180.615234"/>
      </g>
     </g>
    </g>
    <g id="ytick_4">
     <g id="line2d_24">
      <g>
       <use xlink:href="#m8e5e65d813" x="41.92" y="101.466186" style="stroke: #000000; stroke-width: 0.8"/>
      </g>
     </g>
     <g id="text_7">
      <!-- 0.30 -->
      <g transform="translate(10.83875 105.291968) scale(0.1 -0.1)">
       <use xlink:href="#DejaVuSansMono-30"/>
       <use xlink:href="#DejaVuSansMono-2e" x="60.205078"/>
       <use xlink:href="#DejaVuSansMono-33" x="120.410156"/>
       <use xlink:href="#DejaVuSansMono-30" x="180.615234"/>
      </g>
     </g>
    </g>
    <g id="ytick_5">
     <g id="line2d_25">
      <g>
       <use xlink:href="#m8e5e65d813" x="41.92" y="15.255888" style="stroke: #000000; stroke-width: 0.8"/>
      </g>
     </g>
     <g id="text_8">
      <!-- 0.35 -->
      <g transform="translate(10.83875 19.081669) scale(0.1 -0.1)">
       <use xlink:href="#DejaVuSansMono-30"/>
       <use xlink:href="#DejaVuSansMono-2e" x="60.205078"/>
       <use xlink:href="#DejaVuSansMono-33" x="120.410156"/>
       <use xlink:href="#DejaVuSansMono-35" x="180.615234"/>
      </g>
     </g>
    </g>
   </g>
   <g id="line2d_26">
    <path d="M 25.787165 164.971656 
L 41.92 130.008139 
L 56.513924 124.392725 
L 69.837133 94.473114 
L 82.093298 97.536572 
L 93.440733 131.906126 
L 104.004943 143.210577 
L 113.887102 124.580785 
L 123.169963 172.053917 
L 131.922077 156.609577 
L 140.200866 152.843669 
L 148.054911 179.140496 
L 155.525677 186.107526 
L 162.648836 213.248796 
L 169.455303 189.879112 
L 175.972045 186.936765 
L 182.222721 209.655054 
L 188.228209 238.537512 
L 194.00702 226.023051 
L 199.575645 243.020089 
L 204.948839 182.821968 
L 210.139855 192.678817 
L 215.160643 183.718185 
L 220.022013 192.351539 
L 224.733779 169.265672 
L 229.304874 177.354901 
L 233.743455 179.234181 
L 238.056988 183.462745 
L 242.252328 206.502265 
L 246.335778 207.175036 
L 250.313152 273.449697 
L 254.189823 263.773105 
L 257.970763 264.453228 
L 261.660588 265.534263 
L 265.263585 305.525381 
L 268.783747 297.989797 
L 272.224798 283.306947 
L 275.590215 225.165283 
L 278.883252 223.709225 
L 282.106956 225.600165 
L 285.264188 213.524373 
L 288.357633 213.885545 
L 291.389817 224.44835 
L 294.363121 206.816132 
L 297.279786 170.481184 
L 300.141931 169.403754 
L 302.951557 173.686031 
L 305.710556 215.588322 
L 308.420721 217.642256 
L 311.08375 211.996931 
L 313.701255 229.053083 
L 316.274766 233.052982 
L 318.805738 234.035616 
L 321.295554 250.866648 
L 323.745531 272.844118 
L 326.156925 272.191864 
L 328.53093 244.313519 
L 330.86869 258.669466 
L 333.171295 247.446037 
L 335.439785 254.111874 
L 337.675158 253.947732 
L 339.878366 253.050716 
L 342.050322 253.75998 
L 344.1919 247.066936 
L 346.303937 269.130564 
L 348.387239 271.421127 
L 350.442576 288.215111 
L 352.470689 268.943632 
L 354.47229 277.5648 
L 356.448064 274.170538 
L 358.398667 236.952698 
L 362.226875 231.280483 
L 364.105675 240.171563 
L 365.961701 235.983557 
L 367.795499 244.390127 
L 369.607595 259.749245 
L 371.398497 240.688828 
L 373.168693 235.876218 
L 374.918659 238.784765 
L 376.64885 256.665343 
L 378.359709 259.706112 
L 380.051664 259.761839 
L 381.725126 226.450091 
L 383.380497 218.447657 
L 385.018163 219.34373 
L 386.638499 221.70996 
L 388.241868 264.28673 
L 389.828621 232.526346 
L 391.399099 231.53657 
L 392.953634 251.025809 
L 394.492544 249.642406 
L 396.016142 217.464534 
L 397.524729 248.621803 
L 399.018597 257.952325 
L 400.498032 240.881621 
L 401.963309 239.886045 
L 403.414698 237.221045 
L 404.852458 269.427818 
L 406.276843 243.726231 
L 407.6881 205.649433 
L 409.086469 205.662721 
L 410.472182 189.726431 
L 411.845468 111.046513 
L 413.206546 96.516845 
L 414.555632 114.158083 
L 415.892936 114.262997 
L 417.218662 114.90131 
L 418.533007 107.355992 
L 419.836166 122.186223 
L 421.128329 159.83615 
L 422.409678 169.652218 
L 423.680393 204.205942 
L 424.940649 283.91842 
L 426.190618 264.23471 
L 427.430465 205.781049 
L 428.660354 172.259939 
L 429.880443 172.02944 
L 431.090886 156.034113 
L 433.48344 78.403543 
L 434.665842 72.437342 
L 435.839183 85.684422 
L 437.003602 86.070714 
L 438.159232 119.135663 
L 439.306206 172.016219 
L 440.444653 194.250736 
L 441.574697 193.316476 
L 442.696462 223.775875 
L 443.81007 273.764669 
L 444.915636 308.926685 
L 446.013278 306.653125 
L 447.103106 280.9082 
L 448.185233 260.393771 
L 449.259766 223.020289 
L 450.326811 177.887225 
L 451.386471 173.8452 
L 452.438849 148.108862 
L 453.484043 116.241052 
L 454.52215 109.876536 
L 455.553268 91.875271 
L 456.577487 82.304906 
L 457.594902 108.842275 
L 458.605601 29.751092 
L 460.607202 101.546242 
L 461.598275 118.323703 
L 462.582975 104.956145 
L 463.561383 119.915431 
L 464.533579 82.214182 
L 465.499641 98.075329 
L 466.459646 88.711052 
L 467.41367 84.039366 
L 468.361786 172.867383 
L 469.304068 144.907342 
L 470.240586 158.367606 
L 471.171412 156.658314 
L 472.096613 195.311571 
L 473.016257 213.899113 
L 473.930411 235.529008 
L 474.83914 238.508731 
L 475.742507 230.317578 
L 476.640576 232.684348 
L 477.533408 242.560208 
L 478.421064 271.266077 
L 479.303605 270.109426 
L 480.181087 257.850988 
L 481.05357 222.243726 
L 481.92111 199.918711 
L 482.783762 221.139691 
L 483.641581 217.103953 
L 484.494621 244.823442 
L 486.186575 202.712062 
L 487.025593 206.428448 
L 487.860038 205.123391 
L 488.68996 204.977215 
L 489.515409 237.815221 
L 490.336431 244.331538 
L 491.153075 232.117242 
L 491.965386 231.812694 
L 492.773411 218.261305 
L 493.577194 241.872744 
L 494.376779 261.722837 
L 495.172211 251.662011 
L 495.963532 249.981736 
L 496.750785 235.982252 
L 497.534011 239.94854 
L 498.313251 247.477415 
L 499.088545 264.150438 
L 499.859934 261.703732 
L 500.627456 270.769291 
L 501.39115 272.237157 
L 502.151053 218.659333 
L 502.907205 212.876784 
L 503.65964 210.09341 
L 504.408396 231.141409 
L 505.153509 193.246682 
L 505.895013 177.416317 
L 506.632944 172.973491 
L 507.367335 184.951995 
L 508.098221 191.397721 
L 508.825635 191.070109 
L 509.549609 213.106847 
L 510.270177 223.199858 
L 510.987369 231.281549 
L 511.701218 236.135267 
L 512.411754 278.270449 
L 513.119009 293.344933 
L 513.823011 293.954522 
L 514.523792 292.231386 
L 515.22138 284.760374 
L 515.915804 281.517771 
L 516.607094 312.483765 
L 517.295276 261.36202 
L 517.980379 254.641909 
L 518.662431 255.881781 
L 519.341458 238.604395 
L 520.017487 239.846954 
L 520.690544 238.573674 
L 521.360656 203.748535 
L 522.027848 209.158466 
L 522.692145 185.237729 
L 523.353573 186.380952 
L 524.012156 234.642248 
L 524.667918 239.731057 
L 525.320885 237.575801 
L 525.971078 243.80936 
L 526.618522 233.398456 
L 527.26324 199.288568 
L 527.905255 216.388556 
L 528.544589 207.938601 
L 529.181265 172.347916 
L 529.815304 159.479798 
L 530.446729 164.194845 
L 531.075561 127.723667 
L 531.701821 99.799505 
L 532.32553 82.825447 
L 532.946708 95.466958 
L 533.565377 78.160616 
L 534.181556 86.67396 
L 534.795266 100.777803 
L 535.406525 161.353018 
L 536.015354 150.590725 
L 536.621772 154.639078 
L 537.82745 220.324468 
L 538.426748 238.741563 
L 539.023709 231.309189 
L 539.618351 270.795475 
L 540.210694 229.720791 
L 540.800753 206.225951 
L 541.388548 174.541472 
L 541.974095 196.593561 
L 542.557411 197.244194 
L 543.138513 201.122282 
L 543.717419 184.994316 
L 544.294144 185.664895 
L 545.441118 208.857402 
L 546.011399 255.969709 
L 546.579564 276.30507 
L 547.145629 308.477497 
L 547.709608 307.698516 
L 548.271518 299.254756 
L 548.831374 288.711362 
L 549.38919 302.961599 
L 549.944981 305.891686 
L 550.498762 253.51833 
L 551.050548 233.484385 
L 552.148189 213.088692 
L 552.694073 191.961103 
L 553.238018 192.879104 
L 553.780037 200.919492 
L 554.320145 213.311633 
L 554.858354 215.832605 
L 555.394678 189.611497 
L 555.92913 236.723195 
L 556.461722 259.131783 
L 556.992469 237.871563 
L 557.521383 204.364031 
L 558.048476 200.114669 
L 558.57376 197.455326 
L 559.618954 131.289977 
L 560.138888 127.543482 
L 560.657062 149.370285 
L 561.173488 139.063816 
L 561.688179 113.308691 
L 562.201145 146.797292 
L 562.712399 168.875323 
L 563.729813 177.892721 
L 564.235997 212.891753 
L 564.740512 226.765384 
L 565.243371 225.673147 
L 565.744583 225.048448 
L 566.244161 228.172875 
L 566.742113 251.219894 
L 567.238452 218.892854 
L 568.226328 265.323832 
L 568.717887 260.88271 
L 569.207872 263.077478 
L 569.696295 251.360104 
L 570.183164 252.284668 
L 571.152283 259.408108 
L 571.634552 229.26616 
L 572.115307 259.091618 
L 572.594557 257.880236 
L 573.072312 252.159735 
L 573.548581 233.963746 
L 574.023373 229.511455 
L 574.496697 251.964905 
L 574.968563 252.257267 
L 575.438979 252.293352 
L 575.907955 260.233253 
L 576.375498 285.202041 
L 576.841618 286.528649 
L 577.306323 274.461772 
L 577.769623 275.193063 
L 578.231524 296.175882 
L 578.692037 302.851827 
L 579.151169 301.790663 
L 579.608928 272.043357 
L 580.065322 227.169342 
L 580.520361 227.853299 
L 581.426401 202.320048 
L 582.327111 211.22512 
L 583.222554 189.767182 
L 583.66832 124.224097 
L 584.112791 151.763148 
L 584.555976 199.294338 
L 584.997882 194.338109 
L 585.438516 203.948979 
L 585.877886 168.79734 
L 586.315999 174.044437 
L 586.752862 172.109385 
L 587.622866 190.69144 
L 588.056021 254.973853 
L 588.487955 256.729017 
L 588.918673 216.207949 
L 589.348183 222.39189 
L 589.776492 220.5932 
L 590.203606 259.480659 
L 590.629532 262.339243 
L 591.054277 260.580197 
L 591.477846 256.468863 
L 591.900248 256.896171 
L 592.321487 243.907167 
L 592.74157 245.63243 
L 593.160504 277.67998 
L 593.578295 274.174721 
L 593.994949 286.402202 
L 594.410473 289.619408 
L 594.824872 283.619563 
L 595.238152 283.605298 
L 595.65032 286.494794 
L 596.061382 287.49372 
L 596.880209 292.891449 
L 597.287986 301.29034 
L 597.69468 303.291462 
L 598.100297 302.863892 
L 598.504843 305.757375 
L 598.908322 304.898464 
L 599.310741 291.267539 
L 599.712105 290.436995 
L 600.11242 286.228725 
L 600.511691 293.124949 
L 600.909923 289.170996 
L 601.307123 289.79382 
L 601.703294 287.978019 
L 602.098444 281.681297 
L 602.492576 284.424309 
L 602.885697 282.716941 
L 603.27781 299.919489 
L 603.668922 258.000565 
L 604.059038 231.726898 
L 604.448162 238.048272 
L 604.8363 231.342944 
L 605.223457 230.751882 
L 605.609637 230.92103 
L 605.994845 232.528635 
L 606.379087 209.20183 
L 606.762367 215.010568 
L 607.14469 210.091334 
L 607.526061 217.863804 
L 607.906484 250.086927 
L 608.285965 201.278018 
L 608.664507 208.130801 
L 609.042116 160.202161 
L 609.418796 132.673527 
L 609.794552 133.847952 
L 610.169387 154.738953 
L 610.543308 155.361566 
L 610.916317 154.298817 
L 611.28842 189.597202 
L 611.659621 174.654591 
L 612.029924 216.324355 
L 612.399334 216.273371 
L 612.767855 259.414287 
L 613.135491 288.327683 
L 613.502246 268.034715 
L 613.868125 271.734927 
L 614.233132 272.880011 
L 614.960546 255.043855 
L 615.684521 271.38239 
L 616.045228 274.239104 
L 616.405088 276.110972 
L 616.764104 263.000066 
L 617.12228 268.664185 
L 617.479621 263.019547 
L 617.836129 262.344174 
L 618.19181 227.530396 
L 618.546666 229.140101 
L 618.900701 232.08797 
L 619.25392 232.556068 
L 619.606326 220.184068 
L 619.957923 224.385814 
L 621.007895 242.580518 
L 621.356292 239.670201 
L 621.703897 289.734945 
L 622.050716 295.466212 
L 622.396751 294.914552 
L 622.742005 277.554931 
L 623.086483 285.11011 
L 623.430187 280.036455 
L 624.115291 289.036742 
L 624.456696 281.252335 
L 624.797342 280.444591 
L 625.137232 271.060798 
L 625.476369 275.999451 
L 625.814757 265.609034 
L 626.489297 276.495758 
L 627.160878 280.898776 
L 627.495567 288.245577 
L 627.829527 300.353331 
L 628.162759 306.127602 
L 628.495268 314.015699 
L 628.827057 305.675686 
L 629.158128 301.788883 
L 629.488484 312.649157 
L 629.81813 294.183403 
L 630.147067 295.119579 
L 630.4753 291.721063 
L 630.80283 290.521853 
L 631.129661 286.870888 
L 631.455796 285.861089 
L 631.781238 245.158032 
L 632.105989 235.598393 
L 632.430054 249.585417 
L 632.753434 236.062806 
L 633.076132 254.739664 
L 633.398152 242.955898 
L 633.719495 247.257681 
L 634.040166 243.742317 
L 634.360167 219.618721 
L 634.679501 217.918321 
L 635.316176 246.168923 
L 635.633524 234.438184 
L 636.266254 138.539832 
L 636.581641 144.638226 
L 636.896379 141.40197 
L 637.210472 142.716309 
L 637.523923 159.756221 
L 637.836732 161.320632 
L 638.148904 170.273932 
L 638.460441 167.055213 
L 638.771345 180.875542 
L 639.08162 212.46798 
L 639.391267 257.61191 
L 639.700288 259.954837 
L 640.008688 263.363553 
L 640.316468 233.453808 
L 640.62363 241.278973 
L 640.930177 235.984711 
L 641.236112 254.432365 
L 641.541437 260.760757 
L 641.846154 259.131362 
L 642.150266 289.056774 
L 642.453775 288.939716 
L 643.058994 267.347814 
L 643.360709 296.311825 
L 643.661831 272.868226 
L 643.962361 277.759563 
L 644.262303 263.659284 
L 644.561659 263.93522 
L 644.86043 260.138101 
L 645.15862 262.0896 
L 645.45623 261.158315 
L 646.04972 284.019135 
L 646.345605 283.026663 
L 646.640919 307.889536 
L 646.935665 285.474407 
L 647.229844 299.404947 
L 647.523459 298.886348 
L 647.816513 283.673638 
L 648.109006 240.827805 
L 648.400942 238.283653 
L 648.692322 228.014199 
L 648.983149 186.483415 
L 649.273425 176.88591 
L 649.563151 175.448413 
L 649.85233 199.921876 
L 650.140964 195.594319 
L 650.429055 173.147791 
L 650.716605 194.037361 
L 651.003616 236.504918 
L 651.29009 238.617128 
L 651.576029 244.372548 
L 651.861435 288.560636 
L 652.14631 295.206318 
L 652.430657 286.894197 
L 652.714476 286.367299 
L 652.997769 292.16022 
L 653.28054 283.854972 
L 653.56279 267.433095 
L 653.84452 221.359962 
L 654.125733 222.185807 
L 654.40643 202.532046 
L 654.686614 199.229405 
L 654.966285 185.915594 
L 655.245447 182.713563 
L 655.524101 184.209824 
L 655.802249 180.852236 
L 656.079893 197.651204 
L 656.357033 205.32085 
L 656.633674 251.848579 
L 656.909815 233.772492 
L 657.185459 258.054037 
L 657.460608 229.558866 
L 657.735263 234.45648 
L 658.009427 242.276864 
L 658.283101 240.142538 
L 658.556286 181.032345 
L 658.828985 194.06136 
L 659.101199 192.97883 
L 659.372929 190.098631 
L 659.644179 197.822189 
L 659.914949 200.040155 
L 660.185241 231.473214 
L 660.455056 235.841818 
L 660.993265 238.521166 
L 661.261662 279.774243 
L 661.529589 279.027121 
L 661.797048 261.479266 
L 662.064041 257.925597 
L 662.330569 252.536824 
L 662.596634 189.534044 
L 662.862237 184.880046 
L 663.127381 177.709136 
L 663.656294 170.69727 
L 663.920068 163.621154 
L 664.183387 152.593528 
L 664.446255 168.392902 
L 664.708672 174.964237 
L 664.97064 163.958293 
L 665.23216 224.519397 
L 665.493235 220.77808 
L 665.753866 245.673016 
L 666.014053 250.209132 
L 666.273799 251.035673 
L 666.533106 275.282396 
L 667.050404 293.730747 
L 667.3084 295.460626 
L 667.565961 309.775524 
L 667.82309 310.071594 
L 668.079788 314.729449 
L 668.336057 283.64989 
L 668.591897 281.868964 
L 668.84731 265.47248 
L 669.102299 267.256802 
L 669.356863 248.100699 
L 669.611004 248.930508 
L 669.864725 238.49091 
L 670.118026 219.539066 
L 670.370908 212.299208 
L 670.623374 216.09892 
L 670.875424 240.136284 
L 671.127059 243.949506 
L 671.629094 228.384713 
L 671.879495 244.096229 
L 672.129487 242.208002 
L 672.379072 249.85919 
L 672.628251 283.208 
L 672.877025 289.146437 
L 673.125395 279.580541 
L 673.373363 277.042193 
L 673.620931 277.205146 
L 673.868098 255.604685 
L 674.36124 274.429926 
L 674.607216 272.99506 
L 674.852798 272.766329 
L 675.097987 263.755408 
L 675.342784 262.958899 
L 675.58719 267.004141 
L 675.831206 249.72176 
L 676.074834 250.114007 
L 676.318076 289.175749 
L 676.560931 272.141845 
L 676.803402 273.244063 
L 677.045489 269.446941 
L 677.528519 270.721906 
L 677.769464 242.059648 
L 678.01003 244.729664 
L 678.250219 258.92487 
L 678.490031 259.941508 
L 678.729469 266.256258 
L 678.968533 269.396712 
L 679.207224 249.556713 
L 679.445543 257.428269 
L 679.683493 254.106849 
L 679.921073 261.139955 
L 680.158285 291.097363 
L 680.39513 287.548543 
L 680.631609 293.355988 
L 681.103475 290.298226 
L 681.338863 296.671859 
L 681.573891 316.164744 
L 681.808558 287.48169 
L 682.042866 291.914156 
L 682.276816 288.305569 
L 682.510409 287.46739 
L 682.743647 290.031557 
L 683.209058 281.656501 
L 683.441235 283.517167 
L 683.67306 289.707847 
L 683.904534 277.667203 
L 684.135659 303.556115 
L 684.366436 297.701947 
L 684.596865 300.653197 
L 684.826948 300.808797 
L 685.056686 299.04442 
L 685.515131 289.270936 
L 685.743839 268.917184 
L 685.972207 260.066855 
L 686.200234 272.084196 
L 686.427922 270.400591 
L 686.882285 276.61165 
L 687.108962 267.036025 
L 687.335304 262.992055 
L 687.561312 233.571509 
L 687.786987 240.831626 
L 688.01233 260.878566 
L 688.237341 267.383889 
L 688.462023 267.961593 
L 688.686375 259.754702 
L 689.357466 201.002318 
L 689.58051 200.039079 
L 689.803231 228.581244 
L 690.025628 232.206146 
L 690.247702 227.646026 
L 690.469455 220.702674 
L 690.690887 197.587456 
L 690.912 192.669652 
L 691.353269 235.238406 
L 691.79327 266.447257 
L 692.012798 274.160361 
L 692.232011 274.080943 
L 692.45091 272.497213 
L 692.887773 283.879817 
L 693.105738 301.115254 
L 693.323393 305.102965 
L 693.540739 306.164358 
L 693.974508 296.94862 
L 694.190933 283.705394 
L 694.407052 279.797811 
L 694.622866 278.503674 
L 694.838377 281.731771 
L 695.053585 293.050993 
L 695.26849 283.302705 
L 695.483095 280.196857 
L 695.697399 278.998911 
L 695.911404 289.008303 
L 696.12511 288.097711 
L 696.338518 302.847575 
L 696.551629 264.648051 
L 696.764444 272.170826 
L 696.976963 271.797604 
L 697.189188 274.764733 
L 697.40112 276.036998 
L 698.035159 271.714427 
L 698.245923 274.072495 
L 698.456398 272.609552 
L 698.666584 310.288943 
L 698.876482 312.531204 
L 699.086092 311.075817 
L 699.295416 287.614295 
L 699.713207 300.781013 
L 699.921675 302.475188 
L 700.129861 280.927289 
L 700.337764 280.03293 
L 700.545384 281.863661 
L 700.752724 281.314414 
L 701.166563 267.532063 
L 701.373064 288.648492 
L 701.579286 286.433794 
L 701.785232 287.979658 
L 701.9909 265.273452 
L 702.606254 246.995649 
L 702.810824 248.741518 
L 703.01512 248.891011 
L 703.219145 256.241185 
L 703.422898 255.691614 
L 703.62638 257.718051 
L 703.829592 250.926559 
L 704.235209 296.530644 
L 704.437615 296.910692 
L 704.841627 308.413931 
L 705.244575 281.451153 
L 705.445652 287.427844 
L 705.646466 287.161716 
L 706.047305 294.788085 
L 706.247331 286.917256 
L 706.447097 290.62135 
L 706.646602 281.140629 
L 706.845848 260.276458 
L 707.243563 291.202806 
L 707.442034 282.238243 
L 707.640248 278.569833 
L 707.838206 263.629498 
L 708.035908 263.599602 
L 708.233355 274.599359 
L 708.430548 274.22558 
L 708.627488 283.678728 
L 708.824174 300.631942 
L 709.020608 301.525574 
L 709.21679 297.667601 
L 709.412722 305.263269 
L 709.608403 295.404007 
L 709.803834 310.353044 
L 710.19395 299.409469 
L 710.388635 296.897086 
L 710.583074 296.863482 
L 710.777266 297.19845 
L 710.971212 296.386667 
L 711.164912 302.902408 
L 711.358368 303.730684 
L 711.55158 314.539153 
L 711.744548 313.488616 
L 711.937274 318.053633 
L 712.129757 313.309029 
L 712.321998 317.366704 
L 712.513999 318.387877 
L 712.897279 302.200109 
L 713.08856 300.884157 
L 713.279602 300.907745 
L 713.470406 304.458267 
L 713.851302 286.176803 
L 714.041396 290.355541 
L 714.231254 289.968969 
L 714.420876 287.040336 
L 714.610265 297.199481 
L 714.799419 299.776119 
L 714.98834 276.537769 
L 715.177028 273.28381 
L 715.365483 263.62974 
L 715.741701 278.807734 
L 715.929463 269.450589 
L 716.116996 271.173974 
L 716.678219 197.533406 
L 716.864838 218.231869 
L 717.051229 219.855204 
L 717.237393 218.508093 
L 717.423332 185.242351 
L 717.609045 188.471367 
L 717.794533 195.216983 
L 717.979796 194.167026 
L 718.534246 274.028286 
L 718.718617 270.309475 
L 718.902766 244.85231 
L 719.086695 253.909211 
L 719.270402 290.856631 
L 719.45389 292.073623 
L 719.637158 297.678736 
L 719.820207 274.648525 
L 720.003037 272.735338 
L 720.185649 273.986373 
L 720.368044 263.190994 
L 720.550221 269.457521 
L 720.732183 297.598716 
L 720.913928 286.267773 
L 721.095458 257.481959 
L 721.276772 254.883194 
L 721.457873 245.678504 
L 721.638759 266.697897 
L 721.819432 265.494177 
L 721.999892 263.38113 
L 722.18014 270.607368 
L 722.360175 268.7227 
L 722.539999 252.410971 
L 722.719613 261.693676 
L 722.899016 289.583089 
L 723.078209 286.570885 
L 723.257192 294.593152 
L 723.435966 294.227869 
L 723.614532 272.579322 
L 723.79289 274.310432 
L 723.971041 267.678147 
L 724.148984 269.035673 
L 724.326721 284.118643 
L 724.504252 288.815528 
L 724.681577 282.221316 
L 724.858697 260.072207 
L 725.035613 257.163426 
L 725.212324 264.199333 
L 725.388832 289.328068 
L 725.565136 238.495316 
L 725.741238 249.474455 
L 725.917137 248.520365 
L 726.092834 246.947147 
L 726.26833 247.984116 
L 726.443626 254.615628 
L 726.61872 282.23805 
L 726.793615 287.285239 
L 726.96831 283.060226 
L 727.142806 284.304812 
L 727.317104 332.086947 
L 727.491203 329.329168 
L 727.665105 330.060402 
L 728.358742 326.414817 
L 728.531662 324.741073 
L 729.049252 314.441578 
L 729.221394 315.067099 
L 729.393343 316.153403 
L 729.565099 319.949329 
L 729.736662 318.428194 
L 729.908034 298.526412 
L 730.079214 300.227511 
L 730.250202 299.738245 
L 730.421 284.496636 
L 730.591608 284.86455 
L 730.762025 289.298085 
L 730.932254 290.214615 
L 731.272144 276.715107 
L 731.441806 278.547406 
L 731.611281 292.29781 
L 731.780568 291.01563 
L 731.949668 275.95371 
L 732.118582 295.390108 
L 732.28731 281.814409 
L 732.455851 279.686462 
L 732.624208 281.569933 
L 732.79238 288.571838 
L 732.960367 286.356405 
L 733.12817 277.933012 
L 733.295789 285.227387 
L 733.463226 287.369645 
L 733.630479 291.717022 
L 733.797549 291.147613 
L 733.964438 301.855476 
L 734.131145 304.219949 
L 734.297671 303.508298 
L 734.464015 292.775323 
L 734.796164 306.466591 
L 734.961968 295.528283 
L 735.127593 296.677624 
L 735.293039 308.600562 
L 735.458307 305.814955 
L 735.788307 309.735086 
L 735.953042 306.326106 
L 736.117599 315.75241 
L 736.281979 307.780622 
L 736.446183 310.406834 
L 736.610211 321.155687 
L 736.937741 318.869974 
L 737.101244 319.291848 
L 737.264573 308.79761 
L 737.427727 307.472883 
L 737.590708 303.753989 
L 737.753515 305.102459 
L 737.916149 312.652715 
L 738.078611 312.338034 
L 738.240901 303.301757 
L 738.403019 300.651787 
L 738.564965 300.56676 
L 738.72674 303.823989 
L 738.888345 315.471348 
L 739.049779 313.859043 
L 739.211043 320.871783 
L 739.372138 322.021332 
L 739.533063 322.238787 
L 739.693819 322.16305 
L 739.854407 329.358411 
L 740.014826 329.22157 
L 740.335162 325.80753 
L 740.495079 328.479817 
L 740.654829 310.581901 
L 740.973829 307.957326 
L 741.133081 304.547996 
L 741.292167 305.059652 
L 741.926863 300.358312 
L 742.085127 297.379134 
L 742.243228 310.394725 
L 742.401165 312.070614 
L 742.55894 308.105953 
L 742.716552 309.51035 
L 742.874002 308.676834 
L 743.031291 311.546222 
L 743.188418 309.647806 
L 743.345384 313.584678 
L 743.502189 305.057576 
L 743.658834 306.833248 
L 743.815319 302.309547 
L 744.127809 302.218749 
L 744.283816 301.322617 
L 744.439663 291.356854 
L 744.595353 293.780421 
L 744.750884 299.116226 
L 744.906257 294.599678 
L 745.061473 302.540915 
L 745.216531 302.147301 
L 745.526178 297.473971 
L 745.680767 298.234441 
L 745.8352 301.226409 
L 746.297567 265.321127 
L 746.451379 269.583017 
L 746.605037 268.419563 
L 746.758541 261.933921 
L 746.911892 277.253435 
L 747.218132 268.228445 
L 747.371023 256.558477 
L 747.523762 273.779617 
L 747.676348 256.749057 
L 747.828782 269.89601 
L 747.981065 262.821579 
L 748.740216 283.301529 
L 748.891595 292.980585 
L 749.042825 294.837803 
L 749.344837 319.598112 
L 749.495621 293.299171 
L 749.646256 292.570347 
L 749.796742 292.619163 
L 749.947081 292.366319 
L 750.097273 289.503326 
L 750.546966 273.039596 
L 750.69657 275.776076 
L 750.846029 256.464015 
L 750.995342 284.756715 
L 751.144509 285.370166 
L 751.293531 287.413695 
L 751.442409 285.762817 
L 751.591142 267.684829 
L 751.73973 277.020621 
L 751.888174 237.826043 
L 752.036475 242.695565 
L 752.332646 231.727366 
L 752.480517 232.707143 
L 752.628245 233.521917 
L 752.775831 232.03584 
L 752.923274 232.402939 
L 753.070576 253.727612 
L 753.217737 254.13831 
L 753.364756 294.236435 
L 753.511634 290.573785 
L 753.658371 292.112974 
L 753.951424 305.218546 
L 754.097741 304.972459 
L 754.243918 292.932 
L 754.389955 293.727219 
L 754.535854 292.391508 
L 754.681613 285.293785 
L 754.827234 285.532413 
L 754.972716 287.237104 
L 755.118061 290.309043 
L 755.263267 305.278919 
L 755.408336 297.270207 
L 755.553268 297.236262 
L 755.698063 308.926387 
L 755.987242 308.481929 
L 756.131627 310.97104 
L 756.275876 303.792166 
L 756.419989 305.66648 
L 756.563967 301.956422 
L 756.707809 303.498666 
L 756.99509 292.477553 
L 757.138528 291.140226 
L 757.281832 288.184575 
L 757.425002 268.695859 
L 757.568038 272.325584 
L 757.710941 283.878406 
L 757.85371 284.538197 
L 757.996347 283.771417 
L 758.138851 281.043446 
L 758.281222 294.318919 
L 758.423461 291.590339 
L 758.707543 273.059991 
L 758.849387 293.351389 
L 758.9911 291.490281 
L 759.132681 280.485941 
L 759.415452 281.32773 
L 759.556641 271.073955 
L 759.697701 271.90649 
L 759.838631 253.598134 
L 760.120102 268.392197 
L 760.260644 268.313532 
L 760.401057 263.764025 
L 760.541341 276.706025 
L 760.681497 276.254674 
L 760.821525 272.929865 
L 760.961425 282.848418 
L 761.101197 266.97353 
L 761.240842 267.190587 
L 761.519749 276.700462 
L 761.659013 275.641482 
L 761.79815 281.744075 
L 761.937161 281.410407 
L 762.214804 252.582015 
L 762.353437 246.680904 
L 762.491945 258.121216 
L 762.630328 281.161995 
L 762.768585 282.429545 
L 762.906718 280.85713 
L 763.182611 238.139632 
L 763.320371 237.924736 
L 763.59552 273.87647 
L 763.870175 286.030298 
L 764.144338 276.39287 
L 764.281236 275.773761 
L 764.554666 302.375138 
L 764.691197 302.888591 
L 764.827607 299.037727 
L 764.963896 275.447269 
L 765.100064 279.598341 
L 765.23611 278.406386 
L 765.507841 283.246533 
L 765.643526 279.869964 
L 765.77909 286.07859 
L 765.914535 286.334227 
L 766.04986 283.332547 
L 766.185066 260.230263 
L 766.320152 282.621485 
L 766.455119 278.909328 
L 766.589968 252.284329 
L 766.859309 253.731826 
L 766.993802 250.563254 
L 767.128177 264.878797 
L 767.262434 262.776825 
L 767.396574 265.303245 
L 767.530596 282.608317 
L 767.664501 279.577916 
L 767.798289 267.176595 
L 767.93196 286.512599 
L 768.065514 284.047179 
L 768.198953 276.242573 
L 768.332275 280.353079 
L 768.465481 280.575906 
L 768.598571 282.604091 
L 768.864405 275.374592 
L 768.997149 278.060434 
L 769.262292 291.877031 
L 769.394692 290.423915 
L 769.659149 303.538297 
L 769.923149 297.338129 
L 770.054979 302.194449 
L 770.186695 311.52695 
L 770.318299 312.14037 
L 770.581166 320.874961 
L 770.843583 325.436294 
L 770.974623 325.60444 
L 771.105551 328.932321 
L 771.236367 313.731204 
L 771.367072 313.78613 
L 771.628147 314.09272 
L 771.758517 312.717759 
L 771.888777 315.583216 
L 772.018926 315.863051 
L 772.148965 313.124949 
L 772.278893 296.743813 
L 772.408711 294.811758 
L 772.538419 310.734829 
L 772.797506 309.528728 
L 772.926885 294.653185 
L 773.185316 295.721867 
L 773.314368 295.75062 
L 773.443311 297.223149 
L 773.572146 308.982782 
L 773.700873 309.956411 
L 773.829491 298.136539 
L 773.958002 300.243119 
L 774.086405 298.290045 
L 774.342888 277.121467 
L 774.470968 277.316804 
L 774.598942 269.712855 
L 774.726808 269.654753 
L 774.854568 274.445864 
L 774.982222 275.038164 
L 775.109769 283.906406 
L 775.364545 278.983205 
L 775.618898 308.90641 
L 775.872829 304.205595 
L 776.126339 302.479782 
L 776.252937 298.977999 
L 776.632104 312.167391 
L 776.758285 311.465298 
L 776.884362 308.805156 
L 777.010335 312.408167 
L 777.136205 321.87168 
L 777.261971 322.00773 
L 777.387634 310.308591 
L 777.513194 313.843758 
L 777.638651 312.413442 
L 777.764005 309.411623 
L 777.889257 310.383942 
L 778.014406 309.989292 
L 778.139454 310.270216 
L 778.389242 305.781128 
L 778.513984 306.79361 
L 778.763162 304.935778 
L 778.8876 303.828036 
L 779.136172 297.993397 
L 779.260307 306.474147 
L 779.384341 306.00643 
L 779.508275 306.115924 
L 779.632109 305.515736 
L 779.755842 306.243882 
L 779.879476 320.109826 
L 780.00301 320.669158 
L 780.126444 318.114625 
L 780.249779 318.013992 
L 780.373015 319.517982 
L 780.496151 308.683616 
L 780.864968 317.138949 
L 780.98771 314.316316 
L 781.110353 303.380382 
L 781.232898 302.631841 
L 781.355346 298.333429 
L 781.477695 287.060649 
L 781.599947 287.47556 
L 781.722101 298.008409 
L 781.966118 281.808684 
L 782.08798 281.736031 
L 782.209746 269.997291 
L 782.331415 279.437626 
L 782.452987 268.279227 
L 782.574463 274.185448 
L 782.695842 266.336023 
L 782.817126 266.036059 
L 782.938313 266.575818 
L 783.180401 264.171927 
L 783.301301 255.587379 
L 783.422106 266.458395 
L 783.542816 244.113564 
L 783.663431 253.447914 
L 783.78395 245.164427 
L 783.904375 271.991926 
L 784.144941 268.402256 
L 784.38513 278.251932 
L 784.624943 279.902116 
L 784.86438 296.360047 
L 784.983959 304.103029 
L 785.222836 283.129537 
L 785.342135 283.743368 
L 785.699476 295.37507 
L 785.818404 294.018525 
L 785.93724 299.650117 
L 786.055984 299.10283 
L 786.174636 301.396319 
L 786.293196 318.269167 
L 786.530041 290.98264 
L 786.76652 296.936038 
L 786.884623 282.556547 
L 787.002635 285.379454 
L 787.238386 282.478644 
L 787.356126 282.005842 
L 787.473775 279.030621 
L 787.708802 311.021534 
L 787.826181 293.554186 
L 787.943469 293.08502 
L 788.177778 308.094404 
L 788.411728 305.237032 
L 788.645321 308.520083 
L 788.878558 297.057236 
L 788.995044 310.986769 
L 789.111441 311.143944 
L 789.227749 313.548634 
L 789.34397 309.090673 
L 789.460102 317.66228 
L 789.807971 310.481001 
L 789.923752 319.72944 
L 790.039446 318.983053 
L 790.270571 288.50922 
L 790.386002 286.972423 
L 790.616605 282.437613 
L 791.076772 291.920585 
L 791.191598 292.181011 
L 791.420992 318.72542 
L 791.53556 318.487315 
L 791.650042 321.43335 
L 791.764439 316.078078 
L 791.878751 316.415397 
L 791.992977 313.119174 
L 792.107118 314.543087 
L 792.221174 310.229755 
L 792.335145 314.474059 
L 792.562834 309.151819 
L 792.676551 310.175436 
L 792.790184 314.856813 
L 792.903732 312.38862 
L 793.243874 317.040145 
L 793.470216 309.980636 
L 793.583262 318.822111 
L 793.696224 316.726556 
L 793.921899 287.522408 
L 794.034611 290.303272 
L 794.147241 287.758259 
L 794.259788 290.058778 
L 794.372253 287.353563 
L 794.484635 295.129242 
L 794.709151 289.499677 
L 794.821286 291.368036 
L 794.933339 312.224878 
L 795.04531 297.503728 
L 795.269007 300.037529 
L 795.380733 298.241596 
L 795.60394 286.443074 
L 795.826823 295.849102 
L 795.938142 293.32037 
L 796.049381 272.79892 
L 796.271617 301.886237 
L 796.382614 299.515862 
L 796.49353 291.573207 
L 796.715123 297.073122 
L 796.936395 283.208462 
L 797.046911 287.56355 
L 797.267705 304.878946 
L 797.488181 306.989699 
L 797.598299 305.876237 
L 797.8183 286.133159 
L 797.928182 289.383046 
L 798.037985 288.664961 
L 798.147709 286.01107 
L 798.257355 277.520868 
L 798.366922 278.330598 
L 798.476411 273.129975 
L 798.585822 273.461097 
L 798.695154 258.942983 
L 798.913586 279.658621 
L 799.131706 287.973073 
L 799.24065 285.299103 
L 799.349516 293.85645 
L 799.567016 251.665305 
L 799.675651 248.967937 
L 799.892689 274.294595 
L 800.10942 277.074925 
L 800.21767 276.897587 
L 800.433942 279.077862 
L 800.649908 317.247942 
L 800.865571 305.532213 
L 801.08093 308.548527 
L 801.295987 304.001685 
L 801.510742 308.011149 
L 801.618006 306.546585 
L 801.725196 313.274211 
L 801.83231 310.353684 
L 801.93935 303.204102 
L 802.046315 304.481223 
L 802.153205 303.751343 
L 802.260021 306.222451 
L 802.473429 299.311398 
L 802.580022 294.746105 
L 802.792985 258.625627 
L 803.005652 285.280211 
L 803.111875 275.043578 
L 803.3241 277.512605 
L 803.536031 285.741939 
L 803.641887 290.638469 
L 803.853379 325.522 
L 803.959016 319.970728 
L 804.064579 323.219864 
L 804.170071 330.280133 
L 804.380835 317.52587 
L 804.59131 300.967462 
L 804.696439 300.816919 
L 804.801495 301.006022 
L 805.011393 304.829251 
L 805.116234 302.316978 
L 805.221003 305.122684 
L 805.325701 317.121945 
L 805.430327 314.938693 
L 805.639365 330.149178 
L 805.743777 332.56583 
L 806.056587 330.092741 
L 806.160715 333.007261 
L 806.368759 310.17811 
L 806.472675 309.386907 
L 806.576521 297.740103 
L 806.680296 300.856956 
L 806.784001 276.680093 
L 806.887635 278.333167 
L 806.9912 282.424445 
L 807.198119 278.964552 
L 807.301474 295.780726 
L 807.40476 294.123567 
L 807.611121 310.07868 
L 807.714198 294.478133 
L 807.920143 315.486915 
L 808.125812 296.278157 
L 808.228543 298.031373 
L 808.331205 296.848447 
L 808.433798 304.254786 
L 808.536322 302.976958 
L 808.638778 303.293435 
L 808.741166 318.628358 
L 808.945735 312.922126 
L 809.047918 314.899144 
L 809.150032 326.069937 
L 809.455967 317.033807 
L 809.659584 306.541698 
L 809.761291 305.888739 
L 809.862931 310.978673 
L 810.066008 294.539231 
L 810.268817 302.230126 
L 810.37012 304.635867 
L 810.471357 303.112281 
L 810.67363 313.450897 
L 810.875635 310.550477 
L 811.077375 325.812278 
L 811.278849 307.811314 
L 811.379487 307.891457 
L 811.580564 312.720251 
L 811.781377 310.175811 
L 811.981928 319.561261 
L 812.082105 311.33242 
L 812.182216 324.043728 
L 812.382243 320.993461 
L 812.582008 319.359006 
L 812.681794 312.505617 
L 812.781514 314.628245 
L 812.881169 312.140892 
L 812.980759 301.221648 
L 813.080285 307.980924 
L 813.179746 305.754822 
L 813.279143 309.588222 
L 813.576946 303.948627 
L 813.676085 306.217649 
L 813.77516 305.837596 
L 813.874171 305.924352 
L 813.973117 311.62209 
L 814.072 311.14898 
L 814.17082 311.809865 
L 814.368267 316.490116 
L 814.466895 316.365008 
L 814.56546 315.593547 
L 814.663961 309.775242 
L 814.762399 309.85068 
L 814.860774 308.395435 
L 814.959085 311.181538 
L 815.057334 310.595151 
L 815.15552 313.859112 
L 815.351702 299.407694 
L 815.449699 301.146152 
L 815.547633 299.339266 
L 815.743314 303.859609 
L 816.036367 308.328978 
L 816.133927 305.576967 
L 816.231425 308.624174 
L 816.328861 321.187109 
L 816.426235 319.886477 
L 816.523547 323.93038 
L 816.620797 322.969602 
L 816.717985 319.186829 
L 816.912177 320.701551 
L 817.009181 312.352247 
L 817.106123 315.417938 
L 817.203004 314.139717 
L 817.49328 299.152846 
L 817.589916 308.234868 
L 817.783006 303.966845 
L 817.87946 285.734861 
L 817.975853 289.838194 
L 818.264668 256.827392 
L 818.360819 260.879314 
L 818.55294 254.786045 
L 818.64891 256.53411 
L 818.74482 262.039962 
L 819.223471 319.91571 
L 819.319022 314.494667 
L 819.414513 320.245249 
L 819.509945 319.755567 
L 819.605317 320.14939 
L 819.70063 314.607755 
L 819.891079 320.016397 
L 820.08129 310.893862 
L 820.176307 312.069219 
L 820.271266 316.169952 
L 820.555788 298.606219 
L 820.650511 298.808607 
L 820.745176 296.433703 
L 821.02882 282.476629 
L 821.123251 282.784661 
L 821.217624 284.642994 
L 821.406196 301.549067 
L 821.594536 309.488087 
L 821.688619 308.201668 
L 821.782644 311.538504 
L 821.876612 324.348757 
L 821.970522 321.511407 
L 822.064375 314.188356 
L 822.15817 315.046175 
L 822.345587 313.866054 
L 822.626285 324.933468 
L 822.719736 328.612021 
L 822.906468 325.801587 
L 822.999749 331.04679 
L 823.092973 324.309542 
L 823.279251 333.165668 
L 823.651128 320.834553 
L 823.836728 306.268836 
L 823.929444 305.959773 
L 824.022104 304.382932 
L 824.207255 294.320714 
L 824.392183 303.11585 
L 824.576888 309.310644 
L 824.669157 318.042205 
L 824.761371 317.170599 
L 824.853528 315.520852 
L 825.037678 325.910642 
L 825.12967 326.200515 
L 825.313488 318.210415 
L 825.405314 317.449239 
L 825.497085 313.061049 
L 825.772069 328.206175 
L 825.955118 318.396536 
L 826.046561 319.434579 
L 826.137948 320.491472 
L 826.229282 324.201057 
L 826.320561 323.552728 
L 826.411785 325.523567 
L 826.594071 314.545163 
L 826.776141 311.68868 
L 826.867094 319.806228 
L 826.957994 318.87335 
L 827.048839 321.585145 
L 827.139631 319.411304 
L 827.321053 322.635169 
L 827.411684 330.232491 
L 827.77367 315.30805 
L 827.864034 322.026548 
L 827.954343 321.66314 
L 828.0446 321.994702 
L 828.134803 319.109451 
L 828.224954 306.852479 
L 828.315051 307.661824 
L 828.405095 313.935481 
L 828.764744 298.148704 
L 828.944252 295.959665 
L 829.033927 298.412966 
L 829.21312 316.9132 
L 829.302638 315.868372 
L 829.481517 330.477386 
L 829.570878 331.786767 
L 829.660187 331.68153 
L 829.749444 331.588037 
L 829.927802 330.240962 
L 830.19495 317.21727 
L 830.283896 317.754771 
L 830.37279 319.164762 
L 830.461633 328.419527 
L 830.550424 325.337565 
L 830.639163 327.53843 
L 830.727852 322.085726 
L 830.816489 323.205523 
L 830.905074 323.376348 
L 831.082092 328.048185 
L 831.170524 326.53054 
L 831.435515 316.678873 
L 831.523743 316.668806 
L 831.611921 318.900451 
L 831.700047 317.61202 
L 831.788124 312.07972 
L 831.876149 312.905105 
L 832.052048 311.788758 
L 832.227746 320.185498 
L 832.315519 327.193742 
L 832.403242 323.909944 
L 832.490914 325.022102 
L 832.578537 323.975655 
L 832.753632 332.293064 
L 832.841104 328.623087 
L 832.928526 330.587988 
L 833.190495 321.175588 
L 833.277718 324.224941 
L 833.364891 321.746598 
L 833.452015 324.096624 
L 833.53909 321.692576 
L 833.71309 313.986034 
L 833.97372 328.840745 
L 834.147228 321.711864 
L 834.493654 333.363441 
L 834.580138 340.771044 
L 834.839298 327.407968 
L 835.011828 339.475455 
L 835.09802 339.553173 
L 835.184164 336.148103 
L 835.356306 340.902601 
L 835.442304 338.959567 
L 835.528255 342.591183 
L 835.614157 341.718012 
L 835.70001 341.165902 
L 835.871574 338.468097 
L 836.042945 340.562451 
L 836.470536 322.350864 
L 836.555912 325.287279 
L 836.726519 322.104453 
L 836.811752 325.799069 
L 836.896937 335.409171 
L 836.982075 334.473475 
L 837.067165 331.07519 
L 837.49191 355.823254 
L 837.576717 352.58459 
L 837.830859 331.51505 
L 837.915479 340.486355 
L 838.000053 339.825956 
L 838.253493 315.955182 
L 838.590763 306.521473 
L 838.674964 307.634366 
L 838.759119 298.201148 
L 838.843228 300.027771 
L 838.927291 303.362726 
L 839.011308 297.912087 
L 839.179203 305.603612 
L 839.263081 293.718779 
L 839.346914 303.162863 
L 839.430701 299.154441 
L 839.514442 301.702309 
L 839.598137 308.855007 
L 839.681786 306.33062 
L 839.848948 313.817639 
L 840.015928 283.435827 
L 840.09935 306.320433 
L 840.182726 305.001636 
L 840.266057 308.198241 
L 840.432582 305.797089 
L 840.515777 311.304074 
L 840.598927 307.816774 
L 840.682032 307.992905 
L 840.848106 350.937936 
L 841.09688 346.112097 
L 841.179714 344.291155 
L 841.262505 347.626965 
L 841.34525 341.900367 
L 841.427951 342.063924 
L 841.510607 355.441291 
L 841.675785 347.546872 
L 841.758307 346.840589 
L 841.840785 341.366444 
L 842.087953 371.356904 
L 842.170254 375.605246 
L 842.25251 374.045092 
L 842.499014 352.237698 
L 842.581095 352.544597 
L 842.663131 357.081696 
L 842.990836 320.688399 
L 843.072653 324.608253 
L 843.236156 336.680825 
L 843.481083 335.338018 
L 843.562638 335.337163 
L 843.64415 336.012299 
L 843.725619 344.2276 
L 843.807044 343.826527 
L 843.969765 330.284871 
L 844.132313 331.233275 
L 844.294689 343.054409 
L 844.375812 337.049042 
L 844.456893 339.252222 
L 844.53793 337.364145 
L 844.699877 346.016424 
L 844.780786 344.991875 
L 844.861652 346.46804 
L 845.023256 332.798629 
L 845.103995 336.948931 
L 845.345955 353.861125 
L 845.667975 338.020244 
L 845.828731 353.809349 
L 845.909046 345.376023 
L 845.989318 346.69954 
L 846.149738 341.642956 
L 846.309989 354.60965 
L 846.390052 371.663048 
L 846.470073 370.322815 
L 846.62999 355.497448 
L 846.709886 357.622684 
L 847.188387 325.252602 
L 847.267992 328.41037 
L 847.427078 345.025825 
L 847.506559 321.855296 
L 847.585999 322.136109 
L 847.665398 316.548855 
L 847.903347 335.522142 
L 847.982582 337.858986 
L 848.140927 305.802266 
L 848.220039 307.302322 
L 848.378139 336.813836 
L 848.457128 337.071112 
L 848.772678 309.857268 
L 848.851464 329.086968 
L 848.930209 326.684652 
L 849.244786 315.756536 
L 849.323329 320.342259 
L 849.401832 315.87157 
L 849.637101 333.143887 
L 849.715443 333.960136 
L 849.793745 327.405452 
L 849.872008 331.551738 
L 849.95023 328.199893 
L 850.028413 331.845842 
L 850.184658 326.316535 
L 850.262721 321.560138 
L 850.340744 323.691173 
L 850.418727 329.016117 
L 850.496671 319.032947 
L 850.574575 323.683852 
L 850.652439 313.678964 
L 851.118796 343.180499 
L 851.196384 331.529514 
L 851.351443 354.43085 
L 851.583736 373.320564 
L 851.661089 371.151427 
L 851.815678 385.641481 
L 851.892914 379.427603 
L 851.970111 384.16323 
L 852.124389 367.126174 
L 852.201469 367.496637 
L 852.355514 354.833816 
L 852.432478 355.838536 
" clip-path="url(#p1dc7fe4895)" style="fill: none; stroke-dasharray: 7.4,3.2; stroke-dashoffset: 0; stroke: #000000; stroke-width: 2"/>
   </g>
   <g id="patch_3">
    <path d="M 41.92 403.436 
L 41.92 11.956572 
" style="fill: none; stroke: #000000; stroke-width: 0.8; stroke-linejoin: miter; stroke-linecap: square"/>
   </g>
   <g id="patch_4">
    <path d="M 853.2 403.436 
L 853.2 11.956572 
" style="fill: none; stroke: #000000; stroke-width: 0.8; stroke-linejoin: miter; stroke-linecap: square"/>
   </g>
   <g id="patch_5">
    <path d="M 41.92 403.436 
L 853.2 403.436 
" style="fill: none; stroke: #000000; stroke-width: 0.8; stroke-linejoin: miter; stroke-linecap: square"/>
   </g>
   <g id="patch_6">
    <path d="M 41.92 11.956572 
L 853.2 11.956572 
" style="fill: none; stroke: #000000; stroke-width: 0.8; stroke-linejoin: miter; stroke-linecap: square"/>
   </g>
  </g>
 </g>
 <defs>
  <clipPath id="p1dc7fe4895">
   <rect x="41.92" y="11.956572" width="811.28" height="391.479428"/>
  </clipPath>
 </defs>
</svg>
