<?xml version="1.0" encoding="utf-8" standalone="no"?>
<!DOCTYPE svg PUBLIC "-//W3C//DTD SVG 1.1//EN"
  "http://www.w3.org/Graphics/SVG/1.1/DTD/svg11.dtd">
<svg xmlns:xlink="http://www.w3.org/1999/xlink" width="864pt" height="432pt" viewBox="0 0 864 432" xmlns="http://www.w3.org/2000/svg" version="1.1">
 <metadata>
  <rdf:RDF xmlns:dc="http://purl.org/dc/elements/1.1/" xmlns:cc="http://creativecommons.org/ns#" xmlns:rdf="http://www.w3.org/1999/02/22-rdf-syntax-ns#">
   <cc:Work>
    <dc:type rdf:resource="http://purl.org/dc/dcmitype/StillImage"/>
    <dc:date>2024-09-18T13:01:58.688188</dc:date>
    <dc:format>image/svg+xml</dc:format>
    <dc:creator>
     <cc:Agent>
      <dc:title>Matplotlib v3.9.2, https://matplotlib.org/</dc:title>
     </cc:Agent>
    </dc:creator>
   </cc:Work>
  </rdf:RDF>
 </metadata>
 <defs>
  <style type="text/css">*{stroke-linejoin: round; stroke-linecap: butt}</style>
 </defs>
 <g id="figure_1">
  <g id="patch_1">
   <path d="M 0 432 
L 864 432 
L 864 0 
L 0 0 
z
" style="fill: #ffffff"/>
  </g>
  <g id="axes_1">
   <g id="patch_2">
    <path d="M 41.92 404.12 
L 853.2 404.12 
L 853.2 13.095234 
L 41.92 13.095234 
z
" style="fill: #ffffff"/>
   </g>
   <g id="matplotlib.axis_1">
    <g id="xtick_1">
     <g id="line2d_1">
      <defs>
       <path id="m881b3e2408" d="M 0 0 
L 0 3.5 
" style="stroke: #000000; stroke-width: 0.8"/>
      </defs>
      <g>
       <use xlink:href="#m881b3e2408" x="193.718753" y="404.12" style="stroke: #000000; stroke-width: 0.8"/>
      </g>
     </g>
     <g id="text_1">
      <!-- 100 -->
      <g transform="translate(184.688284 418.771563) scale(0.1 -0.1)">
       <defs>
        <path id="DejaVuSansMono-31" d="M 844 531 
L 1825 531 
L 1825 4097 
L 769 3859 
L 769 4434 
L 1819 4666 
L 2450 4666 
L 2450 531 
L 3419 531 
L 3419 0 
L 844 0 
L 844 531 
z
" transform="scale(0.015625)"/>
        <path id="DejaVuSansMono-30" d="M 1509 2344 
Q 1509 2516 1629 2641 
Q 1750 2766 1919 2766 
Q 2094 2766 2219 2641 
Q 2344 2516 2344 2344 
Q 2344 2169 2220 2047 
Q 2097 1925 1919 1925 
Q 1744 1925 1626 2044 
Q 1509 2163 1509 2344 
z
M 1925 4250 
Q 1484 4250 1267 3775 
Q 1050 3300 1050 2328 
Q 1050 1359 1267 884 
Q 1484 409 1925 409 
Q 2369 409 2586 884 
Q 2803 1359 2803 2328 
Q 2803 3300 2586 3775 
Q 2369 4250 1925 4250 
z
M 1925 4750 
Q 2672 4750 3055 4137 
Q 3438 3525 3438 2328 
Q 3438 1134 3055 521 
Q 2672 -91 1925 -91 
Q 1178 -91 797 521 
Q 416 1134 416 2328 
Q 416 3525 797 4137 
Q 1178 4750 1925 4750 
z
" transform="scale(0.015625)"/>
       </defs>
       <use xlink:href="#DejaVuSansMono-31"/>
       <use xlink:href="#DejaVuSansMono-30" x="60.205078"/>
       <use xlink:href="#DejaVuSansMono-30" x="120.410156"/>
      </g>
     </g>
    </g>
    <g id="xtick_2">
     <g id="line2d_2">
      <g>
       <use xlink:href="#m881b3e2408" x="362.384033" y="404.12" style="stroke: #000000; stroke-width: 0.8"/>
      </g>
     </g>
     <g id="text_2">
      <!-- 200 -->
      <g transform="translate(353.353565 418.771563) scale(0.1 -0.1)">
       <defs>
        <path id="DejaVuSansMono-32" d="M 1166 531 
L 3309 531 
L 3309 0 
L 475 0 
L 475 531 
Q 1059 1147 1496 1619 
Q 1934 2091 2100 2284 
Q 2413 2666 2522 2902 
Q 2631 3138 2631 3384 
Q 2631 3775 2401 3997 
Q 2172 4219 1772 4219 
Q 1488 4219 1175 4116 
Q 863 4013 513 3803 
L 513 4441 
Q 834 4594 1145 4672 
Q 1456 4750 1759 4750 
Q 2444 4750 2861 4386 
Q 3278 4022 3278 3431 
Q 3278 3131 3139 2831 
Q 3000 2531 2688 2169 
Q 2513 1966 2180 1606 
Q 1847 1247 1166 531 
z
" transform="scale(0.015625)"/>
       </defs>
       <use xlink:href="#DejaVuSansMono-32"/>
       <use xlink:href="#DejaVuSansMono-30" x="60.205078"/>
       <use xlink:href="#DejaVuSansMono-30" x="120.410156"/>
      </g>
     </g>
    </g>
    <g id="xtick_3">
     <g id="line2d_3">
      <g>
       <use xlink:href="#m881b3e2408" x="531.049314" y="404.12" style="stroke: #000000; stroke-width: 0.8"/>
      </g>
     </g>
     <g id="text_3">
      <!-- 300 -->
      <g transform="translate(522.018845 418.771563) scale(0.1 -0.1)">
       <defs>
        <path id="DejaVuSansMono-33" d="M 2425 2497 
Q 2884 2375 3128 2064 
Q 3372 1753 3372 1288 
Q 3372 644 2939 276 
Q 2506 -91 1741 -91 
Q 1419 -91 1084 -31 
Q 750 28 428 141 
L 428 769 
Q 747 603 1056 522 
Q 1366 441 1672 441 
Q 2191 441 2469 675 
Q 2747 909 2747 1350 
Q 2747 1756 2469 1995 
Q 2191 2234 1716 2234 
L 1234 2234 
L 1234 2753 
L 1716 2753 
Q 2150 2753 2394 2943 
Q 2638 3134 2638 3475 
Q 2638 3834 2411 4026 
Q 2184 4219 1766 4219 
Q 1488 4219 1191 4156 
Q 894 4094 569 3969 
L 569 4550 
Q 947 4650 1242 4700 
Q 1538 4750 1766 4750 
Q 2447 4750 2855 4408 
Q 3263 4066 3263 3500 
Q 3263 3116 3048 2859 
Q 2834 2603 2425 2497 
z
" transform="scale(0.015625)"/>
       </defs>
       <use xlink:href="#DejaVuSansMono-33"/>
       <use xlink:href="#DejaVuSansMono-30" x="60.205078"/>
       <use xlink:href="#DejaVuSansMono-30" x="120.410156"/>
      </g>
     </g>
    </g>
    <g id="xtick_4">
     <g id="line2d_4">
      <g>
       <use xlink:href="#m881b3e2408" x="699.714595" y="404.12" style="stroke: #000000; stroke-width: 0.8"/>
      </g>
     </g>
     <g id="text_4">
      <!-- 400 -->
      <g transform="translate(690.684126 418.771563) scale(0.1 -0.1)">
       <defs>
        <path id="DejaVuSansMono-34" d="M 2297 4091 
L 825 1625 
L 2297 1625 
L 2297 4091 
z
M 2194 4666 
L 2925 4666 
L 2925 1625 
L 3547 1625 
L 3547 1113 
L 2925 1113 
L 2925 0 
L 2297 0 
L 2297 1113 
L 319 1113 
L 319 1709 
L 2194 4666 
z
" transform="scale(0.015625)"/>
       </defs>
       <use xlink:href="#DejaVuSansMono-34"/>
       <use xlink:href="#DejaVuSansMono-30" x="60.205078"/>
       <use xlink:href="#DejaVuSansMono-30" x="120.410156"/>
      </g>
     </g>
    </g>
   </g>
   <g id="matplotlib.axis_2">
    <g id="ytick_1">
     <g id="line2d_5">
      <defs>
       <path id="m560607c438" d="M 0 0 
L -3.5 0 
" style="stroke: #000000; stroke-width: 0.8"/>
      </defs>
      <g>
       <use xlink:href="#m560607c438" x="41.92" y="326.653503" style="stroke: #000000; stroke-width: 0.8"/>
      </g>
     </g>
     <g id="text_5">
      <!-- 0.14 -->
      <g transform="translate(10.83875 330.479284) scale(0.1 -0.1)">
       <defs>
        <path id="DejaVuSansMono-2e" d="M 1528 953 
L 2316 953 
L 2316 0 
L 1528 0 
L 1528 953 
z
" transform="scale(0.015625)"/>
       </defs>
       <use xlink:href="#DejaVuSansMono-30"/>
       <use xlink:href="#DejaVuSansMono-2e" x="60.205078"/>
       <use xlink:href="#DejaVuSansMono-31" x="120.410156"/>
       <use xlink:href="#DejaVuSansMono-34" x="180.615234"/>
      </g>
     </g>
    </g>
    <g id="ytick_2">
     <g id="line2d_6">
      <g>
       <use xlink:href="#m560607c438" x="41.92" y="248.753177" style="stroke: #000000; stroke-width: 0.8"/>
      </g>
     </g>
     <g id="text_6">
      <!-- 0.16 -->
      <g transform="translate(10.83875 252.578958) scale(0.1 -0.1)">
       <defs>
        <path id="DejaVuSansMono-36" d="M 3097 4563 
L 3097 3981 
Q 2900 4097 2678 4158 
Q 2456 4219 2216 4219 
Q 1616 4219 1306 3767 
Q 997 3316 997 2438 
Q 1147 2750 1412 2917 
Q 1678 3084 2022 3084 
Q 2697 3084 3067 2670 
Q 3438 2256 3438 1497 
Q 3438 741 3056 325 
Q 2675 -91 1984 -91 
Q 1172 -91 794 492 
Q 416 1075 416 2328 
Q 416 3509 870 4129 
Q 1325 4750 2188 4750 
Q 2419 4750 2650 4701 
Q 2881 4653 3097 4563 
z
M 1972 2591 
Q 1569 2591 1337 2300 
Q 1106 2009 1106 1497 
Q 1106 984 1337 693 
Q 1569 403 1972 403 
Q 2391 403 2603 679 
Q 2816 956 2816 1497 
Q 2816 2041 2603 2316 
Q 2391 2591 1972 2591 
z
" transform="scale(0.015625)"/>
       </defs>
       <use xlink:href="#DejaVuSansMono-30"/>
       <use xlink:href="#DejaVuSansMono-2e" x="60.205078"/>
       <use xlink:href="#DejaVuSansMono-31" x="120.410156"/>
       <use xlink:href="#DejaVuSansMono-36" x="180.615234"/>
      </g>
     </g>
    </g>
    <g id="ytick_3">
     <g id="line2d_7">
      <g>
       <use xlink:href="#m560607c438" x="41.92" y="170.852851" style="stroke: #000000; stroke-width: 0.8"/>
      </g>
     </g>
     <g id="text_7">
      <!-- 0.18 -->
      <g transform="translate(10.83875 174.678632) scale(0.1 -0.1)">
       <defs>
        <path id="DejaVuSansMono-38" d="M 1925 2216 
Q 1503 2216 1273 1980 
Q 1044 1744 1044 1313 
Q 1044 881 1276 642 
Q 1509 403 1925 403 
Q 2350 403 2579 639 
Q 2809 875 2809 1313 
Q 2809 1741 2576 1978 
Q 2344 2216 1925 2216 
z
M 1375 2478 
Q 972 2581 745 2862 
Q 519 3144 519 3541 
Q 519 4097 897 4423 
Q 1275 4750 1925 4750 
Q 2578 4750 2956 4423 
Q 3334 4097 3334 3541 
Q 3334 3144 3107 2862 
Q 2881 2581 2478 2478 
Q 2947 2375 3195 2062 
Q 3444 1750 3444 1253 
Q 3444 622 3041 265 
Q 2638 -91 1925 -91 
Q 1213 -91 811 264 
Q 409 619 409 1247 
Q 409 1747 657 2061 
Q 906 2375 1375 2478 
z
M 1147 3481 
Q 1147 3106 1347 2909 
Q 1547 2713 1925 2713 
Q 2306 2713 2506 2909 
Q 2706 3106 2706 3481 
Q 2706 3863 2507 4063 
Q 2309 4263 1925 4263 
Q 1547 4263 1347 4061 
Q 1147 3859 1147 3481 
z
" transform="scale(0.015625)"/>
       </defs>
       <use xlink:href="#DejaVuSansMono-30"/>
       <use xlink:href="#DejaVuSansMono-2e" x="60.205078"/>
       <use xlink:href="#DejaVuSansMono-31" x="120.410156"/>
       <use xlink:href="#DejaVuSansMono-38" x="180.615234"/>
      </g>
     </g>
    </g>
    <g id="ytick_4">
     <g id="line2d_8">
      <g>
       <use xlink:href="#m560607c438" x="41.92" y="92.952525" style="stroke: #000000; stroke-width: 0.8"/>
      </g>
     </g>
     <g id="text_8">
      <!-- 0.20 -->
      <g transform="translate(10.83875 96.778306) scale(0.1 -0.1)">
       <use xlink:href="#DejaVuSansMono-30"/>
       <use xlink:href="#DejaVuSansMono-2e" x="60.205078"/>
       <use xlink:href="#DejaVuSansMono-32" x="120.410156"/>
       <use xlink:href="#DejaVuSansMono-30" x="180.615234"/>
      </g>
     </g>
    </g>
    <g id="ytick_5">
     <g id="line2d_9">
      <g>
       <use xlink:href="#m560607c438" x="41.92" y="15.052199" style="stroke: #000000; stroke-width: 0.8"/>
      </g>
     </g>
     <g id="text_9">
      <!-- 0.22 -->
      <g transform="translate(10.83875 18.87798) scale(0.1 -0.1)">
       <use xlink:href="#DejaVuSansMono-30"/>
       <use xlink:href="#DejaVuSansMono-2e" x="60.205078"/>
       <use xlink:href="#DejaVuSansMono-32" x="120.410156"/>
       <use xlink:href="#DejaVuSansMono-32" x="180.615234"/>
      </g>
     </g>
    </g>
   </g>
   <g id="line2d_10">
    <path d="M 25.053472 53.768769 
L 26.740125 30.869087 
L 28.426778 82.232131 
L 31.800083 206.233673 
L 33.486736 198.08053 
L 35.173389 200.241988 
L 36.860042 270.817448 
L 38.546694 306.329747 
L 40.233347 282.232555 
L 41.92 282.83467 
L 43.606653 305.575923 
L 45.293306 304.917836 
L 46.979958 321.354747 
L 48.666611 285.692126 
L 50.353264 296.025574 
L 52.039917 296.763719 
L 53.72657 282.613154 
L 55.413222 241.172163 
L 57.099875 266.562388 
L 58.786528 242.400788 
L 60.473181 242.587672 
L 63.846486 243.307049 
L 65.533139 300.951971 
L 67.219792 306.87886 
L 68.906445 300.956504 
L 70.593098 313.075045 
L 72.279751 354.493455 
L 73.966403 361.122733 
L 75.653056 375.686451 
L 77.339709 367.042564 
L 79.026362 365.786985 
L 80.713015 360.469414 
L 82.399667 359.246207 
L 84.08632 352.84669 
L 85.772973 358.751886 
L 87.459626 356.554726 
L 89.146279 287.692527 
L 90.832931 271.952181 
L 92.519584 277.35544 
L 94.206237 231.229419 
L 95.89289 232.582134 
L 97.579543 237.676914 
L 99.266195 198.031083 
L 100.952848 196.099851 
L 102.639501 192.119734 
L 104.326154 170.472503 
L 106.012807 191.551973 
L 107.699459 206.036153 
L 109.386112 202.146649 
L 111.072765 256.967818 
L 112.759418 245.116977 
L 114.446071 212.732227 
L 116.132723 236.61763 
L 117.819376 244.513573 
L 119.506029 221.162146 
L 121.192682 243.600008 
L 122.879335 285.135961 
L 124.565988 272.32258 
L 126.25264 277.888432 
L 127.939293 278.141729 
L 129.625946 289.319376 
L 131.312599 316.097024 
L 132.999252 333.411216 
L 134.685904 329.788209 
L 136.372557 350.39082 
L 138.05921 353.361278 
L 139.745863 345.03615 
L 141.432516 326.283079 
L 143.119168 333.739422 
L 144.805821 330.026813 
L 146.492474 299.942247 
L 148.179127 287.875694 
L 149.86578 287.403124 
L 151.552432 272.965573 
L 153.239085 278.36819 
L 154.925738 276.962516 
L 156.612391 281.978646 
L 158.299044 317.942304 
L 159.985696 302.518327 
L 161.672349 300.919132 
L 163.359002 322.643743 
L 165.045655 328.791553 
L 166.732308 330.057127 
L 168.41896 338.456761 
L 170.105613 338.089189 
L 171.792266 338.37188 
L 173.478919 347.169931 
L 175.165572 342.205852 
L 176.852225 348.85585 
L 178.538877 342.848589 
L 181.912183 354.872548 
L 183.598836 352.919545 
L 185.285489 363.156701 
L 186.972141 362.413374 
L 188.658794 362.122052 
L 190.345447 360.49306 
L 192.0321 355.860657 
L 193.718753 353.740806 
L 195.405405 357.069253 
L 197.092058 358.378429 
L 198.778711 355.773994 
L 200.465364 348.319508 
L 202.152017 337.999081 
L 203.838669 338.491298 
L 205.525322 332.343296 
L 207.211975 324.554977 
L 208.898628 334.027958 
L 210.585281 338.281549 
L 212.271933 338.830923 
L 213.958586 335.443772 
L 215.645239 342.019043 
L 217.331892 347.747252 
L 219.018545 358.887712 
L 220.705198 359.280802 
L 222.39185 361.961252 
L 224.078503 340.756154 
L 225.765156 338.08097 
L 227.451809 344.681669 
L 229.138462 347.391355 
L 230.825114 351.544864 
L 232.511767 349.243835 
L 234.19842 352.450043 
L 235.885073 332.506783 
L 237.571726 316.903279 
L 239.258378 315.996139 
L 240.945031 338.845593 
L 242.631684 336.865085 
L 244.318337 333.501948 
L 246.00499 336.938372 
L 247.691642 338.266644 
L 249.378295 332.613325 
L 251.064948 320.234375 
L 252.751601 323.68708 
L 254.438254 325.618637 
L 256.124906 305.288362 
L 257.811559 313.2211 
L 259.498212 299.891857 
L 261.184865 293.529396 
L 262.871518 237.197 
L 264.55817 216.113537 
L 266.244823 173.884577 
L 267.931476 167.484912 
L 269.618129 174.349398 
L 271.304782 190.151708 
L 272.991435 211.653067 
L 274.678087 189.018416 
L 276.36474 194.264583 
L 278.051393 183.590694 
L 279.738046 239.053635 
L 281.424699 252.546372 
L 283.111351 300.433167 
L 284.798004 310.368493 
L 286.484657 310.882811 
L 288.17131 254.919813 
L 289.857963 243.47126 
L 291.544615 253.967105 
L 294.917921 280.24774 
L 296.604574 272.582171 
L 298.291227 272.559599 
L 299.977879 274.433197 
L 301.664532 282.355202 
L 303.351185 291.158939 
L 305.037838 338.397946 
L 306.724491 343.538212 
L 308.411143 353.760635 
L 310.097796 350.740896 
L 311.784449 350.479053 
L 313.471102 340.044783 
L 315.157755 347.110248 
L 316.844407 349.803467 
L 318.53106 340.084988 
L 320.217713 336.325055 
L 321.904366 342.662269 
L 323.591019 351.638439 
L 325.277672 348.170986 
L 326.964324 345.403754 
L 328.650977 352.111256 
L 330.33763 370.918374 
L 332.024283 360.077459 
L 333.710936 353.095593 
L 335.397588 362.864817 
L 337.084241 366.933976 
L 338.770894 369.287622 
L 340.457547 358.379163 
L 342.1442 361.746782 
L 343.830852 362.134067 
L 345.517505 362.988678 
L 347.204158 362.463825 
L 348.890811 372.18837 
L 350.577464 379.083911 
L 352.264116 380.39271 
L 353.950769 378.775366 
L 355.637422 363.980534 
L 357.324075 355.875692 
L 359.010728 349.446967 
L 360.69738 344.320351 
L 362.384033 344.261835 
L 364.070686 345.744848 
L 365.757339 344.011699 
L 367.443992 328.428274 
L 369.130644 326.869292 
L 370.817297 318.4175 
L 372.50395 313.576739 
L 374.190603 334.881777 
L 377.563909 351.138849 
L 379.250561 333.261124 
L 380.937214 331.431454 
L 382.623867 308.551906 
L 384.31052 322.019151 
L 385.997173 314.422142 
L 389.370478 334.287288 
L 391.057131 334.416682 
L 392.743784 333.544076 
L 394.430437 325.01297 
L 396.117089 341.792971 
L 397.803742 339.953257 
L 399.490395 351.35587 
L 401.177048 347.28524 
L 402.863701 353.98091 
L 404.550353 325.268501 
L 406.237006 312.493385 
L 407.923659 312.904876 
L 409.610312 295.102336 
L 411.296965 287.107864 
L 412.983617 284.131 
L 414.67027 285.803099 
L 416.356923 300.43496 
L 418.043576 304.17876 
L 419.730229 296.564394 
L 421.416881 313.456532 
L 423.103534 321.511145 
L 424.790187 321.097042 
L 426.47684 339.632854 
L 428.163493 355.946226 
L 429.850146 356.453022 
L 431.536798 357.798079 
L 434.910104 313.347538 
L 436.596757 320.651046 
L 438.28341 325.307292 
L 439.970062 329.510434 
L 441.656715 329.060114 
L 443.343368 320.797859 
L 445.030021 323.216882 
L 446.716674 324.941946 
L 448.403326 289.228339 
L 450.089979 308.421187 
L 451.776632 324.150813 
L 453.463285 323.643054 
L 455.149938 327.905293 
L 456.83659 326.536384 
L 458.523243 318.378044 
L 460.209896 327.431743 
L 461.896549 323.939358 
L 463.583202 324.636477 
L 465.269854 349.389867 
L 466.956507 346.197548 
L 468.64316 354.934056 
L 470.329813 355.149385 
L 472.016466 352.682825 
L 473.703119 352.986474 
L 475.389771 360.101444 
L 477.076424 351.878767 
L 478.763077 346.573579 
L 480.44973 326.792499 
L 482.136383 337.443027 
L 483.823035 343.09412 
L 485.509688 343.721605 
L 487.196341 338.839095 
L 488.882994 341.943245 
L 490.569647 351.415397 
L 492.256299 335.915088 
L 493.942952 343.657912 
L 495.629605 350.011609 
L 497.316258 367.348155 
L 499.002911 367.044169 
L 500.689563 359.871916 
L 502.376216 359.980729 
L 504.062869 367.26323 
L 505.749522 369.68458 
L 507.436175 357.463392 
L 509.122827 369.05 
L 510.80948 355.646816 
L 512.496133 357.129681 
L 514.182786 350.018222 
L 515.869439 351.155896 
L 517.556091 340.162901 
L 519.242744 339.995684 
L 520.929397 340.181802 
L 522.61605 337.751496 
L 524.302703 340.271837 
L 525.989356 336.620645 
L 527.676008 342.326172 
L 529.362661 342.66058 
L 531.049314 350.352708 
L 532.735967 339.515874 
L 534.42262 355.292599 
L 536.109272 349.751089 
L 537.795925 349.414238 
L 539.482578 342.6464 
L 541.169231 328.40538 
L 542.855884 329.691511 
L 544.542536 321.68665 
L 547.915842 319.011995 
L 549.602495 324.518542 
L 551.289148 325.478876 
L 552.9758 330.704433 
L 554.662453 326.811295 
L 556.349106 327.338591 
L 558.035759 344.890217 
L 559.722412 342.16785 
L 561.409064 327.348353 
L 563.095717 324.953594 
L 564.78237 327.937015 
L 568.155676 300.609696 
L 569.842328 283.678341 
L 571.528981 286.852116 
L 573.215634 293.009811 
L 574.902287 292.328952 
L 576.58894 290.158873 
L 578.275593 317.918058 
L 579.962245 322.598991 
L 581.648898 311.50828 
L 583.335551 326.532879 
L 585.022204 331.823632 
L 586.708857 346.910833 
L 588.395509 343.525734 
L 590.082162 344.338048 
L 591.768815 335.414334 
L 593.455468 327.750772 
L 595.142121 326.06223 
L 596.828773 312.658432 
L 598.515426 310.919696 
L 600.202079 306.132187 
L 601.888732 311.379009 
L 603.575385 313.274776 
L 605.262037 316.88111 
L 606.94869 314.083616 
L 608.635343 329.277722 
L 610.321996 339.765221 
L 612.008649 339.635344 
L 613.695301 349.477365 
L 615.381954 360.534547 
L 617.068607 364.01344 
L 618.75526 363.720307 
L 620.441913 354.045834 
L 622.128565 348.20377 
L 623.815218 349.402894 
L 625.501871 351.768328 
L 627.188524 359.456295 
L 628.875177 363.94138 
L 630.56183 365.359199 
L 632.248482 367.436788 
L 633.935135 371.124585 
L 635.621788 373.29413 
L 637.308441 382.0106 
L 638.995094 384.600508 
L 640.681746 386.346147 
L 642.368399 385.295726 
L 644.055052 381.440314 
L 645.741705 369.581498 
L 647.428358 370.090874 
L 649.11501 364.791098 
L 650.801663 367.109946 
L 652.488316 364.42209 
L 654.174969 360.086801 
L 655.861622 355.211848 
L 657.548274 354.205485 
L 659.234927 349.690428 
L 660.92158 347.455669 
L 662.608233 356.753354 
L 664.294886 355.907362 
L 665.981538 356.801339 
L 667.668191 355.141579 
L 669.354844 357.880551 
L 671.041497 347.969671 
L 672.72815 346.547487 
L 674.414802 346.144479 
L 676.101455 344.798774 
L 677.788108 344.861626 
L 679.474761 339.815147 
L 681.161414 335.901689 
L 682.848067 334.996249 
L 684.534719 329.952086 
L 686.221372 319.329139 
L 687.908025 326.276437 
L 689.594678 331.053145 
L 691.281331 324.499673 
L 694.654636 337.248897 
L 696.341289 336.908131 
L 698.027942 337.374118 
L 699.714595 338.450115 
L 701.401247 338.289152 
L 703.0879 348.571653 
L 704.774553 356.83192 
L 706.461206 359.694791 
L 708.147859 355.897559 
L 709.834511 355.07496 
L 711.521164 355.264676 
L 713.207817 359.813652 
L 714.89447 361.889799 
L 716.581123 363.692906 
L 718.267775 366.738523 
L 719.954428 366.832241 
L 721.641081 366.391959 
L 723.327734 363.765521 
L 725.014387 365.66573 
L 726.70104 365.912566 
L 728.387692 362.70213 
L 730.074345 363.788296 
L 731.760998 357.460816 
L 733.447651 349.504737 
L 735.134304 348.230724 
L 736.820956 345.431431 
L 738.507609 343.258687 
L 740.194262 346.391097 
L 741.880915 353.467163 
L 743.567568 350.905458 
L 745.25422 350.334405 
L 746.940873 347.364253 
L 748.627526 347.962311 
L 750.314179 358.718153 
L 752.000832 356.64896 
L 753.687484 357.497752 
L 755.374137 356.563913 
L 757.06079 353.324187 
L 758.747443 355.853454 
L 760.434096 350.215533 
L 762.120748 355.14469 
L 763.807401 355.553212 
L 765.494054 352.786723 
L 767.180707 351.710798 
L 768.86736 351.49591 
L 770.554012 354.072071 
L 772.240665 352.663033 
L 773.927318 356.704879 
L 775.613971 348.82026 
L 777.300624 354.368596 
L 778.987277 348.561992 
L 780.673929 349.772526 
L 782.360582 358.135148 
L 784.047235 356.478513 
L 785.733888 355.661695 
L 787.420541 351.452061 
L 789.107193 356.475657 
L 790.793846 355.046105 
L 792.480499 362.388216 
L 794.167152 359.336593 
L 795.853805 362.231653 
L 799.22711 357.904113 
L 800.913763 356.684988 
L 802.600416 362.206405 
L 804.287069 364.646047 
L 805.973721 358.831164 
L 807.660374 353.825266 
L 809.347027 344.70678 
L 811.03368 346.670695 
L 812.720333 344.222516 
L 814.406985 345.663714 
L 816.093638 344.631671 
L 817.780291 338.915917 
L 819.466944 335.893674 
L 821.153597 334.092586 
L 822.840249 335.505013 
L 824.526902 342.318099 
L 826.213555 350.731505 
L 827.900208 350.027053 
L 829.586861 350.375985 
L 831.273514 350.12856 
L 832.960166 353.515198 
L 834.646819 361.0301 
L 836.333472 362.917523 
L 838.020125 362.221052 
L 839.706778 362.659169 
L 841.39343 359.57748 
L 843.080083 358.935555 
L 844.766736 359.659758 
L 846.453389 359.080743 
L 848.140042 360.118955 
L 849.826694 360.581414 
L 851.513347 355.456569 
L 851.513347 355.456569 
" clip-path="url(#p74eef5cd1a)" style="fill: none; stroke-dasharray: 7.4,3.2; stroke-dashoffset: 0; stroke: #000000; stroke-width: 2"/>
   </g>
   <g id="patch_3">
    <path d="M 41.92 404.12 
L 41.92 13.095234 
" style="fill: none; stroke: #000000; stroke-width: 0.8; stroke-linejoin: miter; stroke-linecap: square"/>
   </g>
   <g id="patch_4">
    <path d="M 853.2 404.12 
L 853.2 13.095234 
" style="fill: none; stroke: #000000; stroke-width: 0.8; stroke-linejoin: miter; stroke-linecap: square"/>
   </g>
   <g id="patch_5">
    <path d="M 41.92 404.12 
L 853.2 404.12 
" style="fill: none; stroke: #000000; stroke-width: 0.8; stroke-linejoin: miter; stroke-linecap: square"/>
   </g>
   <g id="patch_6">
    <path d="M 41.92 13.095234 
L 853.2 13.095234 
" style="fill: none; stroke: #000000; stroke-width: 0.8; stroke-linejoin: miter; stroke-linecap: square"/>
   </g>
  </g>
 </g>
 <defs>
  <clipPath id="p74eef5cd1a">
   <rect x="41.92" y="13.095234" width="811.28" height="391.024766"/>
  </clipPath>
 </defs>
</svg>
