<?xml version="1.0" encoding="utf-8" standalone="no"?>
<!DOCTYPE svg PUBLIC "-//W3C//DTD SVG 1.1//EN"
  "http://www.w3.org/Graphics/SVG/1.1/DTD/svg11.dtd">
<svg xmlns:xlink="http://www.w3.org/1999/xlink" width="864pt" height="432pt" viewBox="0 0 864 432" xmlns="http://www.w3.org/2000/svg" version="1.1">
 <metadata>
  <rdf:RDF xmlns:dc="http://purl.org/dc/elements/1.1/" xmlns:cc="http://creativecommons.org/ns#" xmlns:rdf="http://www.w3.org/1999/02/22-rdf-syntax-ns#">
   <cc:Work>
    <dc:type rdf:resource="http://purl.org/dc/dcmitype/StillImage"/>
    <dc:date>2024-09-18T23:25:01.692243</dc:date>
    <dc:format>image/svg+xml</dc:format>
    <dc:creator>
     <cc:Agent>
      <dc:title>Matplotlib v3.9.2, https://matplotlib.org/</dc:title>
     </cc:Agent>
    </dc:creator>
   </cc:Work>
  </rdf:RDF>
 </metadata>
 <defs>
  <style type="text/css">*{stroke-linejoin: round; stroke-linecap: butt}</style>
 </defs>
 <g id="figure_1">
  <g id="patch_1">
   <path d="M 0 432 
L 864 432 
L 864 0 
L 0 0 
z
" style="fill: #ffffff"/>
  </g>
  <g id="axes_1">
   <g id="patch_2">
    <path d="M 41.92 404.12 
L 853.2 404.12 
L 853.2 10.8 
L 41.92 10.8 
z
" style="fill: #ffffff"/>
   </g>
   <g id="matplotlib.axis_1">
    <g id="xtick_1">
     <g id="line2d_1">
      <defs>
       <path id="m2ae7522b7b" d="M 0 0 
L 0 3.5 
" style="stroke: #000000; stroke-width: 0.8"/>
      </defs>
      <g>
       <use xlink:href="#m2ae7522b7b" x="203.166175" y="404.12" style="stroke: #000000; stroke-width: 0.8"/>
      </g>
     </g>
     <g id="text_1">
      <!-- 1000 -->
      <g transform="translate(191.12555 418.771563) scale(0.1 -0.1)">
       <defs>
        <path id="DejaVuSansMono-31" d="M 844 531 
L 1825 531 
L 1825 4097 
L 769 3859 
L 769 4434 
L 1819 4666 
L 2450 4666 
L 2450 531 
L 3419 531 
L 3419 0 
L 844 0 
L 844 531 
z
" transform="scale(0.015625)"/>
        <path id="DejaVuSansMono-30" d="M 1509 2344 
Q 1509 2516 1629 2641 
Q 1750 2766 1919 2766 
Q 2094 2766 2219 2641 
Q 2344 2516 2344 2344 
Q 2344 2169 2220 2047 
Q 2097 1925 1919 1925 
Q 1744 1925 1626 2044 
Q 1509 2163 1509 2344 
z
M 1925 4250 
Q 1484 4250 1267 3775 
Q 1050 3300 1050 2328 
Q 1050 1359 1267 884 
Q 1484 409 1925 409 
Q 2369 409 2586 884 
Q 2803 1359 2803 2328 
Q 2803 3300 2586 3775 
Q 2369 4250 1925 4250 
z
M 1925 4750 
Q 2672 4750 3055 4137 
Q 3438 3525 3438 2328 
Q 3438 1134 3055 521 
Q 2672 -91 1925 -91 
Q 1178 -91 797 521 
Q 416 1134 416 2328 
Q 416 3525 797 4137 
Q 1178 4750 1925 4750 
z
" transform="scale(0.015625)"/>
       </defs>
       <use xlink:href="#DejaVuSansMono-31"/>
       <use xlink:href="#DejaVuSansMono-30" x="60.205078"/>
       <use xlink:href="#DejaVuSansMono-30" x="120.410156"/>
       <use xlink:href="#DejaVuSansMono-30" x="180.615234"/>
      </g>
     </g>
    </g>
    <g id="xtick_2">
     <g id="line2d_2">
      <g>
       <use xlink:href="#m2ae7522b7b" x="366.0411" y="404.12" style="stroke: #000000; stroke-width: 0.8"/>
      </g>
     </g>
     <g id="text_2">
      <!-- 2000 -->
      <g transform="translate(354.000475 418.771563) scale(0.1 -0.1)">
       <defs>
        <path id="DejaVuSansMono-32" d="M 1166 531 
L 3309 531 
L 3309 0 
L 475 0 
L 475 531 
Q 1059 1147 1496 1619 
Q 1934 2091 2100 2284 
Q 2413 2666 2522 2902 
Q 2631 3138 2631 3384 
Q 2631 3775 2401 3997 
Q 2172 4219 1772 4219 
Q 1488 4219 1175 4116 
Q 863 4013 513 3803 
L 513 4441 
Q 834 4594 1145 4672 
Q 1456 4750 1759 4750 
Q 2444 4750 2861 4386 
Q 3278 4022 3278 3431 
Q 3278 3131 3139 2831 
Q 3000 2531 2688 2169 
Q 2513 1966 2180 1606 
Q 1847 1247 1166 531 
z
" transform="scale(0.015625)"/>
       </defs>
       <use xlink:href="#DejaVuSansMono-32"/>
       <use xlink:href="#DejaVuSansMono-30" x="60.205078"/>
       <use xlink:href="#DejaVuSansMono-30" x="120.410156"/>
       <use xlink:href="#DejaVuSansMono-30" x="180.615234"/>
      </g>
     </g>
    </g>
    <g id="xtick_3">
     <g id="line2d_3">
      <g>
       <use xlink:href="#m2ae7522b7b" x="528.916025" y="404.12" style="stroke: #000000; stroke-width: 0.8"/>
      </g>
     </g>
     <g id="text_3">
      <!-- 3000 -->
      <g transform="translate(516.8754 418.771563) scale(0.1 -0.1)">
       <defs>
        <path id="DejaVuSansMono-33" d="M 2425 2497 
Q 2884 2375 3128 2064 
Q 3372 1753 3372 1288 
Q 3372 644 2939 276 
Q 2506 -91 1741 -91 
Q 1419 -91 1084 -31 
Q 750 28 428 141 
L 428 769 
Q 747 603 1056 522 
Q 1366 441 1672 441 
Q 2191 441 2469 675 
Q 2747 909 2747 1350 
Q 2747 1756 2469 1995 
Q 2191 2234 1716 2234 
L 1234 2234 
L 1234 2753 
L 1716 2753 
Q 2150 2753 2394 2943 
Q 2638 3134 2638 3475 
Q 2638 3834 2411 4026 
Q 2184 4219 1766 4219 
Q 1488 4219 1191 4156 
Q 894 4094 569 3969 
L 569 4550 
Q 947 4650 1242 4700 
Q 1538 4750 1766 4750 
Q 2447 4750 2855 4408 
Q 3263 4066 3263 3500 
Q 3263 3116 3048 2859 
Q 2834 2603 2425 2497 
z
" transform="scale(0.015625)"/>
       </defs>
       <use xlink:href="#DejaVuSansMono-33"/>
       <use xlink:href="#DejaVuSansMono-30" x="60.205078"/>
       <use xlink:href="#DejaVuSansMono-30" x="120.410156"/>
       <use xlink:href="#DejaVuSansMono-30" x="180.615234"/>
      </g>
     </g>
    </g>
    <g id="xtick_4">
     <g id="line2d_4">
      <g>
       <use xlink:href="#m2ae7522b7b" x="691.79095" y="404.12" style="stroke: #000000; stroke-width: 0.8"/>
      </g>
     </g>
     <g id="text_4">
      <!-- 4000 -->
      <g transform="translate(679.750325 418.771563) scale(0.1 -0.1)">
       <defs>
        <path id="DejaVuSansMono-34" d="M 2297 4091 
L 825 1625 
L 2297 1625 
L 2297 4091 
z
M 2194 4666 
L 2925 4666 
L 2925 1625 
L 3547 1625 
L 3547 1113 
L 2925 1113 
L 2925 0 
L 2297 0 
L 2297 1113 
L 319 1113 
L 319 1709 
L 2194 4666 
z
" transform="scale(0.015625)"/>
       </defs>
       <use xlink:href="#DejaVuSansMono-34"/>
       <use xlink:href="#DejaVuSansMono-30" x="60.205078"/>
       <use xlink:href="#DejaVuSansMono-30" x="120.410156"/>
       <use xlink:href="#DejaVuSansMono-30" x="180.615234"/>
      </g>
     </g>
    </g>
   </g>
   <g id="matplotlib.axis_2">
    <g id="ytick_1">
     <g id="line2d_5">
      <defs>
       <path id="mb5b9034b70" d="M 0 0 
L -3.5 0 
" style="stroke: #000000; stroke-width: 0.8"/>
      </defs>
      <g>
       <use xlink:href="#mb5b9034b70" x="41.92" y="386.262089" style="stroke: #000000; stroke-width: 0.8"/>
      </g>
     </g>
     <g id="text_5">
      <!-- 0.00 -->
      <g transform="translate(10.83875 390.087871) scale(0.1 -0.1)">
       <defs>
        <path id="DejaVuSansMono-2e" d="M 1528 953 
L 2316 953 
L 2316 0 
L 1528 0 
L 1528 953 
z
" transform="scale(0.015625)"/>
       </defs>
       <use xlink:href="#DejaVuSansMono-30"/>
       <use xlink:href="#DejaVuSansMono-2e" x="60.205078"/>
       <use xlink:href="#DejaVuSansMono-30" x="120.410156"/>
       <use xlink:href="#DejaVuSansMono-30" x="180.615234"/>
      </g>
     </g>
    </g>
    <g id="ytick_2">
     <g id="line2d_6">
      <g>
       <use xlink:href="#mb5b9034b70" x="41.92" y="320.498013" style="stroke: #000000; stroke-width: 0.8"/>
      </g>
     </g>
     <g id="text_6">
      <!-- 0.02 -->
      <g transform="translate(10.83875 324.323795) scale(0.1 -0.1)">
       <use xlink:href="#DejaVuSansMono-30"/>
       <use xlink:href="#DejaVuSansMono-2e" x="60.205078"/>
       <use xlink:href="#DejaVuSansMono-30" x="120.410156"/>
       <use xlink:href="#DejaVuSansMono-32" x="180.615234"/>
      </g>
     </g>
    </g>
    <g id="ytick_3">
     <g id="line2d_7">
      <g>
       <use xlink:href="#mb5b9034b70" x="41.92" y="254.733937" style="stroke: #000000; stroke-width: 0.8"/>
      </g>
     </g>
     <g id="text_7">
      <!-- 0.04 -->
      <g transform="translate(10.83875 258.559719) scale(0.1 -0.1)">
       <use xlink:href="#DejaVuSansMono-30"/>
       <use xlink:href="#DejaVuSansMono-2e" x="60.205078"/>
       <use xlink:href="#DejaVuSansMono-30" x="120.410156"/>
       <use xlink:href="#DejaVuSansMono-34" x="180.615234"/>
      </g>
     </g>
    </g>
    <g id="ytick_4">
     <g id="line2d_8">
      <g>
       <use xlink:href="#mb5b9034b70" x="41.92" y="188.969861" style="stroke: #000000; stroke-width: 0.8"/>
      </g>
     </g>
     <g id="text_8">
      <!-- 0.06 -->
      <g transform="translate(10.83875 192.795643) scale(0.1 -0.1)">
       <defs>
        <path id="DejaVuSansMono-36" d="M 3097 4563 
L 3097 3981 
Q 2900 4097 2678 4158 
Q 2456 4219 2216 4219 
Q 1616 4219 1306 3767 
Q 997 3316 997 2438 
Q 1147 2750 1412 2917 
Q 1678 3084 2022 3084 
Q 2697 3084 3067 2670 
Q 3438 2256 3438 1497 
Q 3438 741 3056 325 
Q 2675 -91 1984 -91 
Q 1172 -91 794 492 
Q 416 1075 416 2328 
Q 416 3509 870 4129 
Q 1325 4750 2188 4750 
Q 2419 4750 2650 4701 
Q 2881 4653 3097 4563 
z
M 1972 2591 
Q 1569 2591 1337 2300 
Q 1106 2009 1106 1497 
Q 1106 984 1337 693 
Q 1569 403 1972 403 
Q 2391 403 2603 679 
Q 2816 956 2816 1497 
Q 2816 2041 2603 2316 
Q 2391 2591 1972 2591 
z
" transform="scale(0.015625)"/>
       </defs>
       <use xlink:href="#DejaVuSansMono-30"/>
       <use xlink:href="#DejaVuSansMono-2e" x="60.205078"/>
       <use xlink:href="#DejaVuSansMono-30" x="120.410156"/>
       <use xlink:href="#DejaVuSansMono-36" x="180.615234"/>
      </g>
     </g>
    </g>
    <g id="ytick_5">
     <g id="line2d_9">
      <g>
       <use xlink:href="#mb5b9034b70" x="41.92" y="123.205786" style="stroke: #000000; stroke-width: 0.8"/>
      </g>
     </g>
     <g id="text_9">
      <!-- 0.08 -->
      <g transform="translate(10.83875 127.031567) scale(0.1 -0.1)">
       <defs>
        <path id="DejaVuSansMono-38" d="M 1925 2216 
Q 1503 2216 1273 1980 
Q 1044 1744 1044 1313 
Q 1044 881 1276 642 
Q 1509 403 1925 403 
Q 2350 403 2579 639 
Q 2809 875 2809 1313 
Q 2809 1741 2576 1978 
Q 2344 2216 1925 2216 
z
M 1375 2478 
Q 972 2581 745 2862 
Q 519 3144 519 3541 
Q 519 4097 897 4423 
Q 1275 4750 1925 4750 
Q 2578 4750 2956 4423 
Q 3334 4097 3334 3541 
Q 3334 3144 3107 2862 
Q 2881 2581 2478 2478 
Q 2947 2375 3195 2062 
Q 3444 1750 3444 1253 
Q 3444 622 3041 265 
Q 2638 -91 1925 -91 
Q 1213 -91 811 264 
Q 409 619 409 1247 
Q 409 1747 657 2061 
Q 906 2375 1375 2478 
z
M 1147 3481 
Q 1147 3106 1347 2909 
Q 1547 2713 1925 2713 
Q 2306 2713 2506 2909 
Q 2706 3106 2706 3481 
Q 2706 3863 2507 4063 
Q 2309 4263 1925 4263 
Q 1547 4263 1347 4061 
Q 1147 3859 1147 3481 
z
" transform="scale(0.015625)"/>
       </defs>
       <use xlink:href="#DejaVuSansMono-30"/>
       <use xlink:href="#DejaVuSansMono-2e" x="60.205078"/>
       <use xlink:href="#DejaVuSansMono-30" x="120.410156"/>
       <use xlink:href="#DejaVuSansMono-38" x="180.615234"/>
      </g>
     </g>
    </g>
    <g id="ytick_6">
     <g id="line2d_10">
      <g>
       <use xlink:href="#mb5b9034b70" x="41.92" y="57.44171" style="stroke: #000000; stroke-width: 0.8"/>
      </g>
     </g>
     <g id="text_10">
      <!-- 0.10 -->
      <g transform="translate(10.83875 61.267491) scale(0.1 -0.1)">
       <use xlink:href="#DejaVuSansMono-30"/>
       <use xlink:href="#DejaVuSansMono-2e" x="60.205078"/>
       <use xlink:href="#DejaVuSansMono-31" x="120.410156"/>
       <use xlink:href="#DejaVuSansMono-30" x="180.615234"/>
      </g>
     </g>
    </g>
   </g>
   <g id="line2d_11">
    <path d="M 41.757125 141.39511 
L 42.082875 132.545656 
L 42.24575 167.853801 
L 42.408625 174.40507 
L 42.5715 172.278888 
L 42.734375 179.045107 
L 42.89725 179.206358 
L 43.060124 172.635112 
L 43.222999 199.055486 
L 43.385874 196.489053 
L 43.548749 203.095912 
L 43.874499 185.857669 
L 44.037374 184.382733 
L 44.200249 187.523084 
L 44.363124 185.170362 
L 44.525999 184.928249 
L 44.851749 169.082143 
L 45.177498 131.614975 
L 45.340373 119.131596 
L 45.503248 119.114111 
L 45.666123 69.520276 
L 45.991873 65.696111 
L 46.154748 66.428383 
L 46.806248 99.139238 
L 46.969123 131.368774 
L 47.131998 132.967828 
L 47.294873 181.271592 
L 47.457747 182.47145 
L 47.783497 154.851386 
L 47.946372 163.763156 
L 48.109247 164.281482 
L 48.272122 176.007299 
L 48.434997 178.335787 
L 48.760747 159.050241 
L 48.923622 157.224388 
L 49.086497 158.279163 
L 49.412247 189.340531 
L 49.737996 163.83614 
L 50.063746 171.219669 
L 50.552371 194.374487 
L 50.715246 193.891331 
L 50.878121 188.135495 
L 51.040996 178.26874 
L 51.366746 204.651013 
L 51.529621 208.875655 
L 51.692495 208.13033 
L 51.85537 189.510842 
L 52.018245 186.235364 
L 52.18112 189.650282 
L 52.343995 186.389713 
L 52.50687 172.067807 
L 52.669745 175.514166 
L 52.83262 173.878932 
L 53.15837 137.378117 
L 53.321245 137.825983 
L 53.48412 151.230381 
L 53.646995 151.178449 
L 53.972744 139.863426 
L 54.135619 154.140254 
L 54.461369 120.450685 
L 54.624244 130.117499 
L 54.787119 127.658901 
L 54.949994 129.298119 
L 55.112869 119.669504 
L 55.275744 98.340246 
L 55.438619 103.419782 
L 55.601494 98.867519 
L 55.764369 103.495503 
L 56.415868 164.967523 
L 56.578743 162.299889 
L 56.904493 193.958061 
L 57.067368 195.483803 
L 57.230243 203.927369 
L 57.555993 203.794414 
L 57.718868 203.072387 
L 57.881743 201.554176 
L 58.044618 201.781248 
L 58.207492 191.46071 
L 58.370367 190.596957 
L 58.696117 183.064242 
L 58.858992 188.427053 
L 59.021867 186.191932 
L 59.184742 189.060226 
L 59.347617 188.596076 
L 59.510492 188.767176 
L 59.673367 192.897606 
L 59.836242 204.087751 
L 59.999117 201.605316 
L 60.161992 213.953502 
L 60.487741 202.935583 
L 60.813491 204.400286 
L 61.139241 208.166635 
L 61.302116 209.4869 
L 61.464991 209.383818 
L 61.790741 215.270178 
L 62.116491 227.381662 
L 62.279366 227.143748 
L 62.442241 224.760478 
L 62.605115 224.50734 
L 62.76799 223.594272 
L 62.930865 218.334583 
L 63.256615 220.354619 
L 63.582365 187.744453 
L 64.07099 193.773804 
L 64.233865 193.787732 
L 64.39674 188.12854 
L 64.559615 192.460307 
L 64.722489 192.726374 
L 65.048239 189.929436 
L 65.211114 199.962652 
L 65.373989 199.79902 
L 65.536864 194.643639 
L 65.699739 179.648385 
L 65.862614 179.773034 
L 66.025489 186.444509 
L 66.188364 184.929037 
L 66.351239 179.854688 
L 66.514114 181.321021 
L 66.676989 201.876649 
L 66.839863 204.617294 
L 67.002738 201.235827 
L 67.165613 206.214163 
L 67.328488 221.791998 
L 67.491363 221.112061 
L 67.654238 216.211025 
L 67.979988 220.030105 
L 68.142863 214.863522 
L 68.305738 214.838495 
L 68.468613 213.255996 
L 68.631488 216.546051 
L 68.794363 213.594699 
L 68.957238 213.590467 
L 69.120112 213.781512 
L 69.282987 214.286479 
L 69.445862 212.936597 
L 69.608737 207.308323 
L 69.771612 209.356016 
L 69.934487 201.013843 
L 70.097362 203.154728 
L 70.423112 196.714687 
L 70.748862 196.144995 
L 70.911737 200.831471 
L 71.074612 198.520052 
L 71.237486 206.59348 
L 71.400361 208.609221 
L 71.563236 216.39009 
L 71.726111 215.755466 
L 71.888986 219.146259 
L 72.051861 225.734569 
L 72.214736 221.6715 
L 72.377611 222.171355 
L 72.540486 215.605877 
L 72.703361 218.659921 
L 73.029111 218.043357 
L 73.191986 210.288905 
L 73.35486 210.994173 
L 73.68061 206.731781 
L 73.843485 210.552201 
L 74.00636 210.671232 
L 74.169235 217.082688 
L 74.33211 217.163804 
L 74.65786 219.955997 
L 74.820735 224.280275 
L 74.98361 212.945186 
L 75.30936 217.380726 
L 75.472234 216.110413 
L 75.797984 215.899896 
L 75.960859 216.408936 
L 76.286609 214.513887 
L 76.449484 217.790234 
L 76.612359 229.183956 
L 76.775234 229.240305 
L 76.938109 228.019041 
L 77.100984 230.013512 
L 77.263859 229.812286 
L 77.426734 229.932076 
L 77.752483 228.575744 
L 77.915358 228.150865 
L 78.078233 229.155832 
L 78.241108 229.246909 
L 78.403983 227.792406 
L 78.566858 225.214374 
L 78.892608 223.937592 
L 79.055483 215.298813 
L 79.544108 219.313198 
L 79.706983 217.524791 
L 79.869857 216.972236 
L 80.521357 220.207477 
L 80.684232 227.698587 
L 80.847107 227.712966 
L 81.498607 224.530877 
L 81.661482 222.498341 
L 81.824357 224.763157 
L 81.987231 224.542463 
L 82.312981 218.196283 
L 82.475856 218.077053 
L 82.638731 218.275594 
L 82.964481 220.907344 
L 83.127356 220.638065 
L 83.290231 223.328316 
L 83.453106 222.590718 
L 83.615981 219.885171 
L 83.778856 219.685082 
L 83.941731 222.512137 
L 84.104606 221.047723 
L 84.26748 221.658632 
L 84.430355 221.70545 
L 84.59323 222.300729 
L 84.756105 223.972107 
L 84.91898 222.514111 
L 85.081855 223.809674 
L 85.57048 231.577294 
L 85.733355 232.942236 
L 85.89623 232.460594 
L 86.059105 232.457718 
L 86.384854 231.758594 
L 86.547729 232.733445 
L 86.873479 231.781472 
L 87.036354 231.083608 
L 87.199229 228.8914 
L 87.362104 228.945839 
L 87.524979 229.392834 
L 87.687854 228.358004 
L 88.013604 229.122651 
L 88.176479 229.439292 
L 88.502228 228.987611 
L 88.665103 229.492486 
L 88.827978 231.988448 
L 88.990853 231.448311 
L 89.153728 228.829594 
L 89.316603 229.513158 
L 89.642353 229.41916 
L 89.805228 228.730194 
L 90.130978 230.335074 
L 90.293853 230.555094 
L 90.456728 230.577816 
L 90.619602 228.317308 
L 90.782477 230.803553 
L 90.945352 230.068078 
L 91.108227 229.866341 
L 91.271102 229.950379 
L 91.433977 230.735919 
L 91.596852 229.745328 
L 91.759727 229.463779 
L 92.085477 227.993194 
L 92.248352 229.144872 
L 92.411227 229.343177 
L 92.574102 230.458372 
L 92.736977 229.948758 
L 93.062726 228.673575 
L 93.225601 229.551743 
L 93.388476 229.628758 
L 93.551351 228.630341 
L 93.877101 229.810106 
L 94.039976 229.430987 
L 94.202851 229.420148 
L 94.528601 230.220603 
L 94.691476 229.325461 
L 95.017225 229.324348 
L 95.1801 230.88343 
L 95.342975 231.169267 
L 95.50585 232.374413 
L 95.8316 232.520488 
L 96.15735 233.13278 
L 96.320225 234.465731 
L 96.4831 233.321093 
L 96.80885 233.580615 
L 96.971725 233.447613 
L 97.134599 232.068597 
L 97.297474 232.389377 
L 97.460349 231.994563 
L 97.786099 232.168967 
L 97.948974 231.824907 
L 98.111849 232.576354 
L 98.274724 232.461453 
L 98.437599 232.103247 
L 98.600474 232.269114 
L 98.763349 233.594737 
L 98.926224 233.543919 
L 99.089099 233.808149 
L 99.251973 233.689864 
L 99.414848 233.207547 
L 99.577723 233.539464 
L 99.740598 233.408191 
L 99.903473 233.468448 
L 100.229223 233.721188 
L 100.392098 233.558531 
L 100.717848 233.522311 
L 100.880723 232.745541 
L 101.043598 233.324179 
L 101.206473 232.169476 
L 101.369348 232.657897 
L 101.695097 232.572614 
L 101.857972 231.599172 
L 102.020847 231.792628 
L 102.183722 231.773494 
L 102.672347 232.277758 
L 102.835222 233.436024 
L 103.323847 233.891907 
L 103.486722 234.566124 
L 103.975346 234.021785 
L 104.138221 234.685616 
L 104.301096 234.688371 
L 104.626846 233.983824 
L 104.952596 234.20659 
L 105.278346 234.452363 
L 105.604096 234.392043 
L 105.929845 233.220432 
L 106.255595 233.603745 
L 106.581345 232.965049 
L 106.907095 233.166039 
L 107.06997 233.386611 
L 107.232845 233.170896 
L 107.39572 234.103047 
L 107.558595 234.182348 
L 107.72147 234.065374 
L 107.884345 234.306455 
L 108.047219 234.302836 
L 108.210094 234.493333 
L 108.535844 234.510167 
L 108.698719 234.061131 
L 108.861594 234.366736 
L 110.164593 234.345975 
L 110.327468 234.805554 
L 110.816093 235.01793 
L 110.978968 234.951047 
L 111.304718 235.441795 
L 111.467593 235.671095 
L 111.630468 235.213569 
L 111.793343 235.180782 
L 111.956218 234.764504 
L 112.281967 234.753307 
L 112.607717 234.983389 
L 112.933467 234.96919 
L 113.096342 235.03121 
L 113.259217 235.324999 
L 113.422092 234.964573 
L 113.584967 235.410783 
L 113.747842 235.425203 
L 114.236467 235.184965 
L 114.725091 235.137314 
L 115.213716 235.811789 
L 115.539466 235.796866 
L 115.865216 235.554921 
L 116.028091 235.724071 
L 116.190966 235.655745 
L 116.353841 235.717977 
L 116.516716 235.658248 
L 116.67959 235.748177 
L 117.00534 235.762527 
L 117.493965 236.171329 
L 117.65684 236.134954 
L 117.98259 236.250371 
L 118.145465 236.28357 
L 118.63409 235.889705 
L 118.959839 236.172382 
L 119.285589 235.591312 
L 119.774214 235.472502 
L 119.937089 235.712539 
L 120.588589 235.575167 
L 121.077213 236.046978 
L 121.240088 236.028749 
L 121.402963 236.24044 
L 121.565838 236.031656 
L 122.054463 236.585618 
L 122.217338 236.556897 
L 122.543088 237.233317 
L 122.705963 237.147464 
L 123.031713 237.310397 
L 123.357462 237.73345 
L 123.683212 237.825389 
L 124.171837 238.008228 
L 124.334712 237.841125 
L 124.497587 237.958917 
L 124.823337 237.857232 
L 124.986212 237.622985 
L 125.149087 237.688319 
L 125.474836 237.436079 
L 125.800586 237.558204 
L 125.963461 237.878633 
L 126.126336 237.904681 
L 126.289211 238.071341 
L 126.452086 238.078378 
L 126.614961 238.356583 
L 126.777836 238.409906 
L 127.429335 239.052038 
L 128.732335 239.981348 
L 128.89521 239.910052 
L 129.058085 239.612169 
L 129.546709 239.728632 
L 129.709584 239.812795 
L 130.035334 239.817859 
L 130.361084 239.78415 
L 130.523959 239.914891 
L 130.686834 240.426265 
L 131.012584 240.507269 
L 131.664084 241.141595 
L 132.152708 241.592297 
L 132.315583 241.328896 
L 132.641333 241.691296 
L 132.804208 241.674025 
L 133.781458 242.207596 
L 133.944332 242.781328 
L 134.432957 243.049591 
L 134.921582 243.576335 
L 135.247332 243.831429 
L 135.573082 244.252591 
L 135.735957 244.286344 
L 136.061706 244.85879 
L 136.224581 244.872475 
L 136.713206 245.489019 
L 137.038956 246.101724 
L 137.201831 246.047604 
L 137.527581 246.494516 
L 138.179081 247.428785 
L 138.341955 246.974166 
L 138.50483 246.883924 
L 138.83058 247.148393 
L 139.80783 248.075279 
L 140.13358 249.26268 
L 140.296455 249.421424 
L 140.622204 250.012565 
L 140.785079 250.104271 
L 141.110829 250.800929 
L 141.599454 251.727814 
L 141.762329 251.916137 
L 142.088079 252.465017 
L 142.250954 252.668345 
L 142.576703 253.304515 
L 143.228203 254.348327 
L 143.879703 256.199587 
L 144.531203 257.668962 
L 145.019827 259.002184 
L 145.345577 259.93256 
L 145.671327 260.981489 
L 145.834202 261.360586 
L 148.114451 271.017283 
L 148.603076 272.619966 
L 148.765951 274.035129 
L 148.928826 274.317217 
L 149.0917 274.864879 
L 149.41745 276.979307 
L 149.580325 276.448355 
L 149.7432 276.923206 
L 150.231825 279.95966 
L 151.0462 284.209085 
L 151.209074 286.442189 
L 151.371949 286.483116 
L 151.534824 286.909562 
L 151.860574 289.176002 
L 152.023449 288.968751 
L 152.349199 291.168956 
L 152.512074 289.896193 
L 152.837824 291.143637 
L 153.000699 292.958166 
L 153.163574 293.024429 
L 153.326449 293.312147 
L 153.489323 293.869924 
L 153.815073 296.353416 
L 153.977948 296.758528 
L 154.303698 300.387711 
L 155.118073 304.677601 
L 155.443823 305.126899 
L 155.769572 306.516173 
L 156.583947 308.690505 
L 156.746822 309.228868 
L 157.235447 311.618245 
L 157.398322 311.935568 
L 158.375571 316.000526 
L 158.538446 316.066764 
L 158.701321 317.04685 
L 158.864196 316.944888 
L 159.189946 318.269442 
L 159.352821 318.52034 
L 159.515696 319.300336 
L 159.678571 319.217022 
L 160.33007 321.864142 
L 160.65582 323.768265 
L 162.121694 330.360035 
L 162.447444 331.409295 
L 162.610319 332.547288 
L 162.773194 332.779742 
L 163.424694 335.043367 
L 163.587569 334.741075 
L 163.750444 335.339656 
L 163.913319 336.461997 
L 164.076194 336.473963 
L 164.401943 337.159035 
L 164.564818 337.147335 
L 164.890568 338.141523 
L 165.053443 336.904566 
L 165.216318 338.312771 
L 165.542068 338.603677 
L 165.704943 339.541344 
L 165.867818 339.775008 
L 166.519317 342.26217 
L 166.682192 344.407834 
L 166.845067 344.604598 
L 167.007942 345.254066 
L 167.170817 343.476098 
L 167.333692 343.551981 
L 167.659442 344.935682 
L 167.985192 342.669111 
L 168.473817 344.096499 
L 168.636691 343.100073 
L 168.799566 345.395037 
L 169.125316 346.208851 
L 169.288191 346.395527 
L 169.613941 350.423458 
L 169.939691 350.860957 
L 170.102566 351.420831 
L 170.428316 353.470316 
L 170.91694 354.997941 
L 171.079815 355.24586 
L 171.24269 354.920866 
L 171.89419 356.615523 
L 172.057065 356.537884 
L 172.21994 356.794517 
L 172.382815 356.654316 
L 172.708565 357.602724 
L 173.034314 359.366584 
L 173.360064 360.13176 
L 173.522939 360.100099 
L 173.685814 360.892435 
L 173.848689 360.928155 
L 174.174439 361.912685 
L 174.337314 362.248274 
L 174.500189 362.033609 
L 174.663064 362.263647 
L 174.825939 361.567587 
L 175.151688 362.416886 
L 175.314563 362.256664 
L 175.477438 362.692209 
L 175.640313 362.498256 
L 175.803188 361.868752 
L 175.966063 361.911773 
L 176.128938 362.377488 
L 176.291813 362.112151 
L 176.454688 362.823113 
L 176.780438 361.109431 
L 176.943313 361.642373 
L 177.106188 361.479126 
L 177.431937 362.156459 
L 177.757687 359.856889 
L 178.083437 360.783645 
L 178.409187 363.302797 
L 178.734937 364.416815 
L 178.897812 364.189633 
L 179.223562 366.696017 
L 179.386436 368.690367 
L 179.875061 369.471726 
L 180.037936 368.980153 
L 181.015186 370.618408 
L 181.178061 370.629181 
L 181.340936 371.018991 
L 181.50381 371.115322 
L 181.666685 372.1339 
L 181.82956 372.101151 
L 181.992435 372.190306 
L 182.15531 373.132913 
L 182.318185 373.042494 
L 182.48106 373.108355 
L 182.80681 373.610469 
L 183.13256 374.213503 
L 183.295435 374.174585 
L 183.621185 374.985254 
L 183.784059 375.06077 
L 184.109809 375.743556 
L 184.435559 374.659099 
L 184.598434 374.737401 
L 184.924184 375.35847 
L 185.087059 375.282995 
L 185.249934 375.067511 
L 185.575684 375.250755 
L 185.738559 375.05976 
L 185.901433 375.627728 
L 186.227183 377.154575 
L 186.552933 377.13201 
L 187.041558 377.984945 
L 187.204433 377.966232 
L 187.367308 377.706906 
L 187.693058 378.013526 
L 188.018807 378.11506 
L 188.181682 378.497064 
L 188.344557 378.510727 
L 188.507432 378.293765 
L 188.833182 378.544424 
L 188.996057 379.294508 
L 189.158932 379.359157 
L 189.321807 378.944796 
L 189.973307 378.709507 
L 190.136181 378.377843 
L 190.461931 378.518275 
L 190.787681 378.784539 
L 191.113431 379.655634 
L 191.439181 379.822663 
L 191.602056 380.000486 
L 191.927806 380.759486 
L 192.253556 381.040684 
L 192.579305 381.37836 
L 192.74218 380.982829 
L 193.06793 381.469414 
L 193.39368 381.329325 
L 193.556555 381.347795 
L 194.04518 380.442188 
L 194.208055 380.365133 
L 194.37093 379.738297 
L 194.696679 379.699947 
L 195.511054 381.002816 
L 195.673929 381.563821 
L 195.836804 381.700857 
L 195.999679 382.787118 
L 196.488304 382.982064 
L 197.139803 382.870718 
L 197.302678 382.5071 
L 197.465553 382.557546 
L 197.791303 381.702447 
L 197.954178 381.809791 
L 198.117053 381.62994 
L 198.279928 380.778291 
L 198.442803 380.757495 
L 199.094302 381.010394 
L 199.257177 381.380422 
L 199.745802 381.390748 
L 199.908677 382.413081 
L 200.234427 382.58804 
L 200.397302 382.286667 
L 200.723052 382.262656 
L 200.885927 382.410861 
L 201.048801 382.865713 
L 201.211676 382.864808 
L 201.374551 383.064956 
L 201.537426 382.97147 
L 201.700301 382.744918 
L 201.863176 382.727694 
L 202.188926 383.343804 
L 202.514676 383.730378 
L 202.677551 383.667839 
L 203.003301 383.816059 
L 203.166175 383.767752 
L 203.491925 384.159899 
L 203.6548 384.193617 
L 203.98055 384.014851 
L 204.9578 383.76423 
L 206.097924 384.212865 
L 206.260799 384.195722 
L 206.586549 384.333171 
L 206.912299 383.202779 
L 207.075174 383.147382 
L 207.238049 382.85465 
L 207.400924 382.986324 
L 207.563798 382.836911 
L 207.726673 382.88118 
L 208.052423 382.060144 
L 208.215298 381.76511 
L 208.541048 382.710626 
L 208.703923 382.521015 
L 208.866798 382.670371 
L 209.029673 382.637973 
L 209.355423 383.044327 
L 209.681172 383.962977 
L 210.006922 384.18268 
L 210.658422 384.461878 
L 211.309922 384.324444 
L 211.635672 384.333776 
L 211.798546 384.259796 
L 212.612921 384.443056 
L 212.938671 384.47663 
L 213.753046 385.120861 
L 214.078795 385.155792 
L 214.24167 385.237613 
L 214.404545 385.191301 
L 214.56742 385.263081 
L 215.056045 385.118977 
L 215.21892 384.848828 
L 215.87042 384.638245 
L 216.196169 383.360964 
L 216.847669 383.493269 
L 217.173419 382.777513 
L 217.499169 382.751908 
L 217.824919 384.180412 
L 217.987794 384.275257 
L 218.150669 383.449212 
L 218.313543 383.386191 
L 218.476418 383.525205 
L 218.802168 384.362447 
L 219.127918 383.189096 
L 219.453668 383.251034 
L 219.616543 383.093633 
L 219.779418 383.898395 
L 220.268043 384.00737 
L 220.430917 384.014556 
L 220.919542 385.272896 
L 221.082417 385.251624 
L 221.408167 385.416514 
L 222.385417 385.414375 
L 222.711166 385.316469 
L 223.525541 385.495015 
L 223.851291 385.489906 
L 224.991415 385.558688 
L 225.80579 385.518284 
L 226.294415 385.526343 
L 226.78304 385.532602 
L 227.271664 385.653584 
L 227.434539 385.64295 
L 227.597414 385.508923 
L 228.900414 385.661427 
L 229.063288 385.634087 
L 229.226163 385.788085 
L 230.203413 385.717409 
L 230.529163 385.578973 
L 230.692038 385.63121 
L 231.017788 385.568913 
L 231.343537 385.606549 
L 231.832162 385.48005 
L 232.157912 385.542972 
L 232.320787 385.465014 
L 232.646537 385.541373 
L 233.135162 385.528756 
L 233.460911 385.61679 
L 233.949536 385.708932 
L 235.089661 385.661008 
L 235.252536 385.565289 
L 235.578285 385.614902 
L 236.229785 385.42739 
L 236.39266 385.441713 
L 236.71841 385.350816 
L 236.881285 385.431659 
L 237.207035 385.393614 
L 238.347159 385.702351 
L 238.510034 385.600959 
L 238.835784 385.609162 
L 238.998659 385.116004 
L 239.324409 385.000819 
L 239.650159 384.881498 
L 239.813034 385.004771 
L 239.975908 384.833312 
L 240.138783 384.915255 
L 240.464533 384.740545 
L 240.627408 385.208773 
L 240.953158 385.132539 
L 241.278908 385.236948 
L 241.441783 385.214136 
L 241.767533 385.402714 
L 242.744782 385.852436 
L 242.907657 385.725041 
L 243.396282 385.768579 
L 243.722032 385.45861 
L 243.884907 385.46092 
L 244.210656 385.267164 
L 244.373531 385.221057 
L 244.699281 385.303905 
L 245.187906 385.32396 
L 245.676531 385.594192 
L 246.002281 385.593346 
L 246.65378 385.671939 
L 246.97953 385.755085 
L 247.793905 385.800893 
L 248.28253 385.888891 
L 248.608279 385.871666 
L 248.934029 385.205913 
L 249.259779 385.078563 
L 249.585529 385.069959 
L 250.074154 384.93115 
L 250.237029 384.932735 
L 250.562779 385.564284 
L 251.051403 385.718416 
L 251.702903 385.784074 
L 251.865778 385.460034 
L 253.331652 385.398436 
L 253.494527 385.734934 
L 255.286151 385.616203 
L 255.611901 385.599666 
L 255.774776 385.401217 
L 256.100526 385.481299 
L 256.426276 385.472322 
L 256.752026 385.497154 
L 257.89215 385.953809 
L 258.2179 385.966902 
L 259.19515 385.897631 
L 259.358024 385.702457 
L 260.009524 385.724037 
L 260.172399 385.613522 
L 260.335274 385.641481 
L 260.661024 385.478073 
L 260.823899 385.452249 
L 260.986774 385.646161 
L 261.312524 385.568229 
L 261.638273 385.570554 
L 262.289773 385.75107 
L 262.452648 385.747905 
L 262.615523 385.586551 
L 263.104148 385.694725 
L 264.081397 385.817916 
L 264.244272 386.002529 
L 264.732897 385.815213 
L 265.058647 385.759931 
L 265.384397 385.832463 
L 265.547272 385.621406 
L 266.198771 385.491309 
L 267.827521 385.315591 
L 267.990396 385.427832 
L 268.316145 385.445989 
L 268.47902 385.484962 
L 268.641895 385.329146 
L 268.80477 385.391996 
L 268.967645 385.175077 
L 269.944895 385.222495 
L 270.10777 385.187283 
L 270.270644 385.419981 
L 270.433519 385.373377 
L 270.596394 385.595899 
L 271.247894 385.699482 
L 271.899394 385.835822 
L 272.550893 385.790795 
L 273.039518 385.808055 
L 273.528143 385.888183 
L 273.691018 385.757336 
L 274.016768 385.885987 
L 275.971267 385.902061 
L 276.297017 385.633896 
L 277.762891 385.869561 
L 278.088641 385.867659 
L 278.251516 385.805403 
L 278.414391 385.21373 
L 278.740141 385.15386 
L 279.228765 384.933571 
L 279.554515 384.926223 
L 279.880265 384.987236 
L 280.04314 385.554767 
L 280.206015 385.217802 
L 280.69464 385.256033 
L 280.857515 385.385703 
L 281.183264 385.353046 
L 281.671889 385.348344 
L 281.834764 385.610283 
L 284.603638 385.811322 
L 284.766513 385.238967 
L 285.092263 385.287473 
L 285.580887 385.263812 
L 285.743762 385.078479 
L 285.906637 384.624918 
L 286.232387 384.541292 
L 286.395262 385.156839 
L 286.883887 385.145347 
L 287.209637 385.234076 
L 287.698261 385.634344 
L 287.861136 385.67497 
L 288.024011 385.57587 
L 288.186886 385.625247 
L 288.675511 385.401399 
L 289.001261 385.310617 
L 289.164136 385.643623 
L 289.489886 385.626699 
L 290.141385 385.871352 
L 290.95576 385.984701 
L 292.747384 386.015407 
L 293.236009 386.084289 
L 294.213258 386.069133 
L 295.190508 385.908225 
L 295.679133 385.858633 
L 296.004883 385.794156 
L 296.493507 385.870353 
L 296.819257 385.764532 
L 296.982132 385.630057 
L 299.099506 385.902486 
L 299.425256 385.802828 
L 300.56538 385.720415 
L 300.728255 385.581235 
L 301.379755 385.722711 
L 302.031255 385.774276 
L 302.19413 385.61733 
L 302.357005 385.791951 
L 302.845629 385.732755 
L 303.008504 385.57445 
L 303.497129 385.486169 
L 303.660004 385.360723 
L 303.822879 385.488468 
L 304.311504 385.356121 
L 304.474379 385.383079 
L 304.637254 385.604711 
L 305.125878 385.677427 
L 305.288753 385.786191 
L 305.614503 385.55843 
L 305.777378 385.673088 
L 306.591753 385.566275 
L 306.917503 385.605334 
L 307.406127 385.927212 
L 307.894752 385.943181 
L 308.383377 386.031647 
L 308.709127 385.942481 
L 310.337876 385.889882 
L 311.152251 385.913976 
L 311.315125 385.827732 
L 311.640875 385.91274 
L 312.292375 385.857012 
L 313.269625 385.96248 
L 313.758249 386.019489 
L 313.921124 386.025716 
L 314.246874 385.899457 
L 317.504373 385.908559 
L 317.992997 385.871403 
L 318.644497 386.004527 
L 319.621747 385.906479 
L 319.947496 385.746722 
L 320.924746 385.799007 
L 321.739121 386.009203 
L 323.204995 385.806611 
L 323.36787 385.531694 
L 324.833744 385.755415 
L 324.996619 385.999401 
L 325.485244 385.946954 
L 326.462493 385.837462 
L 326.625368 385.739175 
L 327.439743 385.818005 
L 327.602618 385.547398 
L 328.579867 385.816331 
L 328.905617 385.634228 
L 329.068492 385.597271 
L 329.231367 385.825 
L 330.208617 385.786678 
L 330.534367 385.993131 
L 331.022991 386.032428 
L 331.348741 385.954276 
L 336.723614 386.022475 
L 337.375113 385.976815 
L 337.863738 385.926003 
L 338.352363 385.96429 
L 338.840988 385.969138 
L 339.166738 385.93036 
L 339.492487 385.858782 
L 340.632612 385.841456 
L 341.121237 386.016768 
L 342.424236 386.094357 
L 343.075736 385.90558 
L 343.564361 385.885282 
L 344.052985 385.729917 
L 344.378735 385.745392 
L 345.030235 385.755298 
L 345.19311 385.581536 
L 345.84461 385.787817 
L 346.007484 385.820661 
L 346.333234 385.550187 
L 346.658984 385.508546 
L 346.821859 385.683245 
L 347.147609 385.569886 
L 347.799109 385.802014 
L 348.124858 385.903615 
L 348.776358 386.008899 
L 349.102108 385.922445 
L 352.033857 385.86416 
L 352.196732 385.720448 
L 353.173981 385.842605 
L 353.662606 385.850924 
L 353.825481 385.993038 
L 355.12848 385.955631 
L 355.45423 386.027199 
L 355.77998 386.00232 
L 356.268605 385.869704 
L 357.408729 385.909221 
L 357.734479 385.961361 
L 358.223104 385.93335 
L 360.503353 386.003281 
L 360.991978 386.083028 
L 366.203975 386.04268 
L 367.181225 386.057418 
L 367.3441 386.041528 
L 367.506975 385.777553 
L 367.995599 385.746704 
L 368.972849 385.570256 
L 369.135724 385.829923 
L 369.950098 385.798013 
L 370.438723 385.994869 
L 371.253098 385.987291 
L 372.556097 385.929768 
L 372.881847 385.95213 
L 373.044722 385.952969 
L 373.370472 385.732572 
L 373.859097 385.740121 
L 374.347721 385.655935 
L 374.673471 385.619634 
L 374.999221 385.897586 
L 376.95372 385.629441 
L 377.116595 385.85892 
L 378.908219 386.01097 
L 379.071094 385.978182 
L 379.396844 386.089658 
L 380.699843 386.060559 
L 381.025593 386.014102 
L 381.839968 386.018444 
L 382.328593 385.858292 
L 382.654343 385.88684 
L 382.980092 385.813613 
L 383.305842 385.858971 
L 383.468717 385.833952 
L 383.957342 385.993415 
L 384.283092 385.976927 
L 384.608842 386.02262 
L 387.051965 386.116793 
L 387.377715 386.042093 
L 391.938213 386.066338 
L 392.101088 386.141891 
L 392.589713 386.043186 
L 398.12746 386.096494 
L 398.77896 386.047748 
L 399.10471 385.954789 
L 400.081959 385.941474 
L 400.733459 386.033102 
L 403.176583 385.945867 
L 403.828083 385.871298 
L 404.479582 386.033044 
L 405.131082 386.151116 
L 405.456832 386.039367 
L 406.434082 385.934274 
L 406.596956 385.955024 
L 406.759831 385.84045 
L 407.085581 385.909058 
L 407.899956 385.930271 
L 408.225706 385.714632 
L 408.551456 385.816503 
L 409.202955 385.704571 
L 409.528705 385.614301 
L 410.01733 385.775306 
L 410.34308 385.753467 
L 411.971829 386.076394 
L 412.786204 386.019921 
L 413.111953 385.967219 
L 414.089203 386.03891 
L 414.414953 386.050674 
L 415.066453 386.093582 
L 415.229327 386.09151 
L 415.392202 385.67055 
L 416.369452 385.551397 
L 416.858077 385.443161 
L 417.020952 385.840076 
L 417.509576 385.784855 
L 417.998201 385.873018 
L 418.812576 385.979927 
L 418.975451 385.938102 
L 419.138326 386.018284 
L 419.464075 385.939989 
L 423.535949 386.099258 
L 424.024573 386.030914 
L 424.676073 385.939349 
L 425.164698 385.908793 
L 425.653323 386.0332 
L 425.979072 386.00488 
L 426.956322 386.004112 
L 427.282072 385.758235 
L 427.607822 385.782458 
L 428.259321 385.782797 
L 428.585071 385.808349 
L 428.910821 386.054925 
L 429.725196 386.023136 
L 439.660566 386.017233 
L 439.986316 385.92795 
L 441.289315 385.951324 
L 441.615065 386.050791 
L 443.08094 386.092977 
L 447.804312 385.987824 
L 448.130062 385.933738 
L 449.921686 386.077973 
L 451.061811 386.036721 
L 451.550436 385.93401 
L 451.876186 385.873219 
L 452.527685 385.968343 
L 460.671431 386.005485 
L 461.160056 385.996946 
L 462.137306 385.974292 
L 462.463056 386.040065 
L 463.60318 386.152875 
L 464.417555 386.182084 
L 468.489428 386.03287 
L 469.629552 385.912657 
L 470.932552 385.822059 
L 471.258302 385.922736 
L 472.072676 385.941679 
L 473.8643 385.981863 
L 474.5158 386.084225 
L 475.655925 386.143172 
L 476.796049 386.128901 
L 477.121799 386.03711 
L 478.424798 385.988836 
L 478.750548 386.077276 
L 480.053547 386.116389 
L 482.170922 386.134301 
L 482.659546 386.101945 
L 483.962546 386.056116 
L 484.614045 386.140418 
L 485.917045 386.055066 
L 488.685918 385.867499 
L 489.011668 385.958974 
L 490.477543 385.918066 
L 490.966167 385.864477 
L 491.617667 386.040704 
L 494.223666 386.04938 
L 494.712291 386.12269 
L 497.31829 386.047016 
L 500.738663 386.066374 
L 501.064413 386.142434 
L 502.367412 386.091333 
L 502.693162 386.006545 
L 507.742285 385.990782 
L 508.719534 385.966194 
L 509.696784 385.975883 
L 509.859659 386.121086 
L 514.257282 385.945511 
L 514.583032 385.981469 
L 514.745906 385.710464 
L 516.211781 385.780197 
L 516.374656 386.049546 
L 516.537531 385.945335 
L 516.86328 385.978327 
L 517.51478 385.946059 
L 518.003405 385.857527 
L 518.329155 385.950257 
L 518.980654 385.987765 
L 519.306404 386.022551 
L 519.795029 386.013061 
L 521.749528 386.157282 
L 522.075278 386.118363 
L 522.726778 386.131459 
L 524.681277 386.127829 
L 525.332777 386.126171 
L 526.472901 386.066669 
L 528.10165 386.097311 
L 528.75315 386.055338 
L 529.241775 386.055951 
L 529.567525 385.931561 
L 530.056149 386.013064 
L 530.381899 385.949661 
L 530.544774 385.744714 
L 530.870524 385.748669 
L 531.033399 385.89778 
L 532.010648 385.874126 
L 532.173523 386.02667 
L 532.499273 385.943937 
L 533.965148 386.022101 
L 536.571146 385.995038 
L 537.222646 385.972563 
L 537.548396 385.995094 
L 539.01427 386.02583 
L 541.457394 386.184062 
L 542.434644 386.181648 
L 543.411893 386.141442 
L 546.180767 385.931765 
L 546.506517 386.037306 
L 546.995142 386.124434 
L 547.972391 386.07773 
L 548.623891 386.122363 
L 548.786766 386.126672 
L 549.112516 385.539994 
L 549.92689 385.456027 
L 550.415515 385.447103 
L 550.741265 386.016315 
L 551.067015 386.004162 
L 551.392765 386.140892 
L 552.044264 386.154752 
L 552.858639 386.128538 
L 554.650263 386.072465 
L 554.813138 385.915692 
L 555.301763 385.966068 
L 555.464638 385.746453 
L 556.279012 385.770753 
L 556.604762 385.914932 
L 556.930512 385.907425 
L 557.093387 386.12043 
L 558.559261 386.222818 
L 559.536511 386.133869 
L 560.025136 386.074965 
L 567.843132 386.031007 
L 568.820381 386.188881 
L 570.449131 386.135154 
L 571.263505 386.118433 
L 572.566505 386.090908 
L 575.335378 386.165124 
L 576.638378 386.10261 
L 576.964128 386.060795 
L 577.615627 386.105682 
L 577.778502 385.951516 
L 580.384501 386.186013 
L 580.547376 385.996363 
L 581.361751 385.976958 
L 581.687501 385.848548 
L 582.01325 385.857953 
L 582.176125 386.060564 
L 582.66475 386.054568 
L 582.9905 386.036871 
L 583.31625 386.167043 
L 584.456374 386.172111 
L 585.433624 386.170652 
L 594.880369 386.058632 
L 595.206119 386.025888 
L 595.531869 385.82493 
L 596.346244 385.874224 
L 596.671994 385.98909 
L 596.834869 385.954381 
L 597.160618 386.142192 
L 598.137868 386.051178 
L 604.48999 386.112799 
L 605.304365 386.097223 
L 606.118739 386.175059 
L 606.444489 385.891829 
L 607.421739 385.794035 
L 607.747488 385.655093 
L 608.073238 385.935209 
L 609.050488 385.921 
L 609.376238 386.060677 
L 613.936736 386.107454 
L 614.099611 385.992633 
L 614.588235 386.054517 
L 615.40261 385.994369 
L 615.565485 385.724917 
L 615.72836 385.835231 
L 616.216985 385.735847 
L 616.705609 385.680101 
L 617.031359 385.661913 
L 617.194234 385.954896 
L 618.334359 385.985442 
L 619.148733 386.017656 
L 619.474483 386.046111 
L 619.800233 386.189558 
L 620.940357 386.142829 
L 623.220606 385.992606 
L 623.383481 385.89892 
L 623.709231 386.024094 
L 626.31523 386.171029 
L 627.129604 386.135107 
L 627.455354 385.977147 
L 628.432604 385.922273 
L 628.758354 385.943131 
L 629.084104 386.101876 
L 629.898478 386.17765 
L 630.387103 386.206688 
L 633.155977 386.087513 
L 633.807476 385.978444 
L 634.458976 385.985229 
L 634.621851 386.041972 
L 634.947601 386.017281 
L 636.2506 386.069541 
L 636.57635 386.145576 
L 637.5536 386.137543 
L 639.508099 386.089773 
L 639.833849 386.137142 
L 640.322473 386.111773 
L 640.973973 386.138929 
L 646.83747 386.112282 
L 647.326095 386.046906 
L 647.651845 386.115011 
L 648.46622 386.160376 
L 648.629095 386.013244 
L 649.606344 385.957163 
L 650.094969 385.894287 
L 650.257844 386.080108 
L 651.235093 386.036857 
L 651.886593 386.083198 
L 652.538093 386.090896 
L 655.795591 386.116482 
L 661.333339 386.138886 
L 661.821963 386.206094 
L 662.310588 386.111356 
L 665.242337 386.090745 
L 665.568087 386.186003 
L 667.522586 386.146161 
L 668.33696 386.211546 
L 671.594459 386.102828 
L 675.177707 386.026169 
L 675.666332 386.146655 
L 678.272331 386.199542 
L 678.760956 386.16575 
L 683.484328 386.088833 
L 684.787328 386.166877 
L 687.556202 386.144762 
L 688.370576 386.189508 
L 688.696326 386.090571 
L 693.582574 386.15851 
L 694.396948 386.151709 
L 696.188573 386.133109 
L 696.840072 386.071253 
L 697.491572 386.055714 
L 699.934696 386.15957 
L 700.260446 386.039911 
L 701.07482 386.060463 
L 702.70357 385.940501 
L 703.680819 385.873195 
L 704.006569 385.965388 
L 704.169444 386.009515 
L 704.495194 385.887224 
L 705.798193 385.863034 
L 706.123943 386.015634 
L 706.938318 386.14067 
L 707.426942 386.159024 
L 708.241317 386.053543 
L 708.729942 386.010941 
L 710.847316 386.095947 
L 713.941939 386.159093 
L 714.430564 386.1525 
L 716.873688 386.101306 
L 717.199438 386.012114 
L 718.013812 386.062028 
L 726.157559 386.194588 
L 744.39955 386.023589 
L 744.888175 386.073838 
L 747.331299 386.134201 
L 747.982799 386.118671 
L 748.797173 386.177565 
L 748.960048 386.03706 
L 749.611548 386.061308 
L 749.937298 385.984942 
L 750.425923 385.960642 
L 750.588797 386.122061 
L 753.846296 386.075498 
L 754.172046 385.982203 
L 754.497796 386.00059 
L 754.823545 386.08015 
L 755.475045 386.118023 
L 755.800795 386.208108 
L 756.28942 386.142912 
L 756.61517 386.031913 
L 757.592419 385.947909 
L 757.918169 385.929523 
L 758.243919 386.035774 
L 759.384043 386.133208 
L 760.035543 386.104133 
L 761.338542 386.07296 
L 761.827167 386.144997 
L 762.641542 386.171007 
L 763.618791 386.180347 
L 764.270291 386.086016 
L 764.758916 386.074304 
L 765.084666 385.948151 
L 766.387665 386.037492 
L 766.713415 386.176115 
L 771.599663 386.182238 
L 771.925413 386.184475 
L 772.902662 386.121416 
L 774.042787 386.16284 
L 781.860783 386.132686 
L 782.186533 386.218901 
L 783.000907 386.207 
L 785.281156 386.165793 
L 785.769781 386.129102 
L 786.909906 386.127007 
L 787.39853 386.15791 
L 788.538655 386.143971 
L 789.515904 386.128302 
L 793.587778 386.157544 
L 794.239277 386.105753 
L 795.216527 385.995393 
L 796.030901 386.093632 
L 797.822526 386.167794 
L 803.034523 386.205928 
L 803.523148 386.140419 
L 804.663272 386.044324 
L 804.989022 386.050389 
L 805.314772 386.016913 
L 806.129147 386.052141 
L 806.617772 386.078548 
L 807.106396 386.139093 
L 808.083646 386.16764 
L 809.22377 386.187884 
L 810.20102 386.106516 
L 812.644144 386.190809 
L 823.882514 386.121506 
L 826.977137 386.129074 
L 827.465762 386.113025 
L 828.605886 386.211048 
L 829.420261 386.224993 
L 835.772383 386.086117 
L 836.098133 386.102555 
L 837.238257 386.155529 
L 839.681381 386.191119 
L 843.590379 386.211062 
L 844.079004 386.106481 
L 846.685003 386.214404 
L 847.173628 386.117341 
L 849.616752 386.132487 
L 849.942502 386.052146 
L 850.431126 386.09221 
L 853.037125 386.106232 
L 853.037125 386.106232 
" clip-path="url(#pe04f27bfe3)" style="fill: none; stroke-dasharray: 7.4,3.2; stroke-dashoffset: 0; stroke: #000000; stroke-width: 2"/>
   </g>
   <g id="patch_3">
    <path d="M 41.92 404.12 
L 41.92 10.8 
" style="fill: none; stroke: #000000; stroke-width: 0.8; stroke-linejoin: miter; stroke-linecap: square"/>
   </g>
   <g id="patch_4">
    <path d="M 853.2 404.12 
L 853.2 10.8 
" style="fill: none; stroke: #000000; stroke-width: 0.8; stroke-linejoin: miter; stroke-linecap: square"/>
   </g>
   <g id="patch_5">
    <path d="M 41.92 404.12 
L 853.2 404.12 
" style="fill: none; stroke: #000000; stroke-width: 0.8; stroke-linejoin: miter; stroke-linecap: square"/>
   </g>
   <g id="patch_6">
    <path d="M 41.92 10.8 
L 853.2 10.8 
" style="fill: none; stroke: #000000; stroke-width: 0.8; stroke-linejoin: miter; stroke-linecap: square"/>
   </g>
  </g>
 </g>
 <defs>
  <clipPath id="pe04f27bfe3">
   <rect x="41.92" y="10.8" width="811.28" height="393.32"/>
  </clipPath>
 </defs>
</svg>
