<?xml version="1.0" encoding="utf-8" standalone="no"?>
<!DOCTYPE svg PUBLIC "-//W3C//DTD SVG 1.1//EN"
  "http://www.w3.org/Graphics/SVG/1.1/DTD/svg11.dtd">
<svg xmlns:xlink="http://www.w3.org/1999/xlink" width="864pt" height="432pt" viewBox="0 0 864 432" xmlns="http://www.w3.org/2000/svg" version="1.1">
 <metadata>
  <rdf:RDF xmlns:dc="http://purl.org/dc/elements/1.1/" xmlns:cc="http://creativecommons.org/ns#" xmlns:rdf="http://www.w3.org/1999/02/22-rdf-syntax-ns#">
   <cc:Work>
    <dc:type rdf:resource="http://purl.org/dc/dcmitype/StillImage"/>
    <dc:date>2024-09-18T23:25:01.638042</dc:date>
    <dc:format>image/svg+xml</dc:format>
    <dc:creator>
     <cc:Agent>
      <dc:title>Matplotlib v3.9.2, https://matplotlib.org/</dc:title>
     </cc:Agent>
    </dc:creator>
   </cc:Work>
  </rdf:RDF>
 </metadata>
 <defs>
  <style type="text/css">*{stroke-linejoin: round; stroke-linecap: butt}</style>
 </defs>
 <g id="figure_1">
  <g id="patch_1">
   <path d="M 0 432 
L 864 432 
L 864 0 
L 0 0 
z
" style="fill: #ffffff"/>
  </g>
  <g id="axes_1">
   <g id="patch_2">
    <path d="M 35.89 404.12 
L 853.2 404.12 
L 853.2 10.8 
L 35.89 10.8 
z
" style="fill: #ffffff"/>
   </g>
   <g id="matplotlib.axis_1">
    <g id="xtick_1">
     <g id="line2d_1">
      <defs>
       <path id="me664b643f8" d="M 0 0 
L 0 3.5 
" style="stroke: #000000; stroke-width: 0.8"/>
      </defs>
      <g>
       <use xlink:href="#me664b643f8" x="198.33467" y="404.12" style="stroke: #000000; stroke-width: 0.8"/>
      </g>
     </g>
     <g id="text_1">
      <!-- 1000 -->
      <g transform="translate(186.294045 418.771563) scale(0.1 -0.1)">
       <defs>
        <path id="DejaVuSansMono-31" d="M 844 531 
L 1825 531 
L 1825 4097 
L 769 3859 
L 769 4434 
L 1819 4666 
L 2450 4666 
L 2450 531 
L 3419 531 
L 3419 0 
L 844 0 
L 844 531 
z
" transform="scale(0.015625)"/>
        <path id="DejaVuSansMono-30" d="M 1509 2344 
Q 1509 2516 1629 2641 
Q 1750 2766 1919 2766 
Q 2094 2766 2219 2641 
Q 2344 2516 2344 2344 
Q 2344 2169 2220 2047 
Q 2097 1925 1919 1925 
Q 1744 1925 1626 2044 
Q 1509 2163 1509 2344 
z
M 1925 4250 
Q 1484 4250 1267 3775 
Q 1050 3300 1050 2328 
Q 1050 1359 1267 884 
Q 1484 409 1925 409 
Q 2369 409 2586 884 
Q 2803 1359 2803 2328 
Q 2803 3300 2586 3775 
Q 2369 4250 1925 4250 
z
M 1925 4750 
Q 2672 4750 3055 4137 
Q 3438 3525 3438 2328 
Q 3438 1134 3055 521 
Q 2672 -91 1925 -91 
Q 1178 -91 797 521 
Q 416 1134 416 2328 
Q 416 3525 797 4137 
Q 1178 4750 1925 4750 
z
" transform="scale(0.015625)"/>
       </defs>
       <use xlink:href="#DejaVuSansMono-31"/>
       <use xlink:href="#DejaVuSansMono-30" x="60.205078"/>
       <use xlink:href="#DejaVuSansMono-30" x="120.410156"/>
       <use xlink:href="#DejaVuSansMono-30" x="180.615234"/>
      </g>
     </g>
    </g>
    <g id="xtick_2">
     <g id="line2d_2">
      <g>
       <use xlink:href="#me664b643f8" x="362.420195" y="404.12" style="stroke: #000000; stroke-width: 0.8"/>
      </g>
     </g>
     <g id="text_2">
      <!-- 2000 -->
      <g transform="translate(350.37957 418.771563) scale(0.1 -0.1)">
       <defs>
        <path id="DejaVuSansMono-32" d="M 1166 531 
L 3309 531 
L 3309 0 
L 475 0 
L 475 531 
Q 1059 1147 1496 1619 
Q 1934 2091 2100 2284 
Q 2413 2666 2522 2902 
Q 2631 3138 2631 3384 
Q 2631 3775 2401 3997 
Q 2172 4219 1772 4219 
Q 1488 4219 1175 4116 
Q 863 4013 513 3803 
L 513 4441 
Q 834 4594 1145 4672 
Q 1456 4750 1759 4750 
Q 2444 4750 2861 4386 
Q 3278 4022 3278 3431 
Q 3278 3131 3139 2831 
Q 3000 2531 2688 2169 
Q 2513 1966 2180 1606 
Q 1847 1247 1166 531 
z
" transform="scale(0.015625)"/>
       </defs>
       <use xlink:href="#DejaVuSansMono-32"/>
       <use xlink:href="#DejaVuSansMono-30" x="60.205078"/>
       <use xlink:href="#DejaVuSansMono-30" x="120.410156"/>
       <use xlink:href="#DejaVuSansMono-30" x="180.615234"/>
      </g>
     </g>
    </g>
    <g id="xtick_3">
     <g id="line2d_3">
      <g>
       <use xlink:href="#me664b643f8" x="526.50572" y="404.12" style="stroke: #000000; stroke-width: 0.8"/>
      </g>
     </g>
     <g id="text_3">
      <!-- 3000 -->
      <g transform="translate(514.465095 418.771563) scale(0.1 -0.1)">
       <defs>
        <path id="DejaVuSansMono-33" d="M 2425 2497 
Q 2884 2375 3128 2064 
Q 3372 1753 3372 1288 
Q 3372 644 2939 276 
Q 2506 -91 1741 -91 
Q 1419 -91 1084 -31 
Q 750 28 428 141 
L 428 769 
Q 747 603 1056 522 
Q 1366 441 1672 441 
Q 2191 441 2469 675 
Q 2747 909 2747 1350 
Q 2747 1756 2469 1995 
Q 2191 2234 1716 2234 
L 1234 2234 
L 1234 2753 
L 1716 2753 
Q 2150 2753 2394 2943 
Q 2638 3134 2638 3475 
Q 2638 3834 2411 4026 
Q 2184 4219 1766 4219 
Q 1488 4219 1191 4156 
Q 894 4094 569 3969 
L 569 4550 
Q 947 4650 1242 4700 
Q 1538 4750 1766 4750 
Q 2447 4750 2855 4408 
Q 3263 4066 3263 3500 
Q 3263 3116 3048 2859 
Q 2834 2603 2425 2497 
z
" transform="scale(0.015625)"/>
       </defs>
       <use xlink:href="#DejaVuSansMono-33"/>
       <use xlink:href="#DejaVuSansMono-30" x="60.205078"/>
       <use xlink:href="#DejaVuSansMono-30" x="120.410156"/>
       <use xlink:href="#DejaVuSansMono-30" x="180.615234"/>
      </g>
     </g>
    </g>
    <g id="xtick_4">
     <g id="line2d_4">
      <g>
       <use xlink:href="#me664b643f8" x="690.591245" y="404.12" style="stroke: #000000; stroke-width: 0.8"/>
      </g>
     </g>
     <g id="text_4">
      <!-- 4000 -->
      <g transform="translate(678.55062 418.771563) scale(0.1 -0.1)">
       <defs>
        <path id="DejaVuSansMono-34" d="M 2297 4091 
L 825 1625 
L 2297 1625 
L 2297 4091 
z
M 2194 4666 
L 2925 4666 
L 2925 1625 
L 3547 1625 
L 3547 1113 
L 2925 1113 
L 2925 0 
L 2297 0 
L 2297 1113 
L 319 1113 
L 319 1709 
L 2194 4666 
z
" transform="scale(0.015625)"/>
       </defs>
       <use xlink:href="#DejaVuSansMono-34"/>
       <use xlink:href="#DejaVuSansMono-30" x="60.205078"/>
       <use xlink:href="#DejaVuSansMono-30" x="120.410156"/>
       <use xlink:href="#DejaVuSansMono-30" x="180.615234"/>
      </g>
     </g>
    </g>
   </g>
   <g id="matplotlib.axis_2">
    <g id="ytick_1">
     <g id="line2d_5">
      <defs>
       <path id="m46cd080b39" d="M 0 0 
L -3.5 0 
" style="stroke: #000000; stroke-width: 0.8"/>
      </defs>
      <g>
       <use xlink:href="#m46cd080b39" x="35.89" y="386.241818" style="stroke: #000000; stroke-width: 0.8"/>
      </g>
     </g>
     <g id="text_5">
      <!-- 0.0 -->
      <g transform="translate(10.829063 390.067599) scale(0.1 -0.1)">
       <defs>
        <path id="DejaVuSansMono-2e" d="M 1528 953 
L 2316 953 
L 2316 0 
L 1528 0 
L 1528 953 
z
" transform="scale(0.015625)"/>
       </defs>
       <use xlink:href="#DejaVuSansMono-30"/>
       <use xlink:href="#DejaVuSansMono-2e" x="60.205078"/>
       <use xlink:href="#DejaVuSansMono-30" x="120.410156"/>
      </g>
     </g>
    </g>
    <g id="ytick_2">
     <g id="line2d_6">
      <g>
       <use xlink:href="#m46cd080b39" x="35.89" y="314.729091" style="stroke: #000000; stroke-width: 0.8"/>
      </g>
     </g>
     <g id="text_6">
      <!-- 0.2 -->
      <g transform="translate(10.829063 318.554872) scale(0.1 -0.1)">
       <use xlink:href="#DejaVuSansMono-30"/>
       <use xlink:href="#DejaVuSansMono-2e" x="60.205078"/>
       <use xlink:href="#DejaVuSansMono-32" x="120.410156"/>
      </g>
     </g>
    </g>
    <g id="ytick_3">
     <g id="line2d_7">
      <g>
       <use xlink:href="#m46cd080b39" x="35.89" y="243.216364" style="stroke: #000000; stroke-width: 0.8"/>
      </g>
     </g>
     <g id="text_7">
      <!-- 0.4 -->
      <g transform="translate(10.829063 247.042145) scale(0.1 -0.1)">
       <use xlink:href="#DejaVuSansMono-30"/>
       <use xlink:href="#DejaVuSansMono-2e" x="60.205078"/>
       <use xlink:href="#DejaVuSansMono-34" x="120.410156"/>
      </g>
     </g>
    </g>
    <g id="ytick_4">
     <g id="line2d_8">
      <g>
       <use xlink:href="#m46cd080b39" x="35.89" y="171.703636" style="stroke: #000000; stroke-width: 0.8"/>
      </g>
     </g>
     <g id="text_8">
      <!-- 0.6 -->
      <g transform="translate(10.829063 175.529418) scale(0.1 -0.1)">
       <defs>
        <path id="DejaVuSansMono-36" d="M 3097 4563 
L 3097 3981 
Q 2900 4097 2678 4158 
Q 2456 4219 2216 4219 
Q 1616 4219 1306 3767 
Q 997 3316 997 2438 
Q 1147 2750 1412 2917 
Q 1678 3084 2022 3084 
Q 2697 3084 3067 2670 
Q 3438 2256 3438 1497 
Q 3438 741 3056 325 
Q 2675 -91 1984 -91 
Q 1172 -91 794 492 
Q 416 1075 416 2328 
Q 416 3509 870 4129 
Q 1325 4750 2188 4750 
Q 2419 4750 2650 4701 
Q 2881 4653 3097 4563 
z
M 1972 2591 
Q 1569 2591 1337 2300 
Q 1106 2009 1106 1497 
Q 1106 984 1337 693 
Q 1569 403 1972 403 
Q 2391 403 2603 679 
Q 2816 956 2816 1497 
Q 2816 2041 2603 2316 
Q 2391 2591 1972 2591 
z
" transform="scale(0.015625)"/>
       </defs>
       <use xlink:href="#DejaVuSansMono-30"/>
       <use xlink:href="#DejaVuSansMono-2e" x="60.205078"/>
       <use xlink:href="#DejaVuSansMono-36" x="120.410156"/>
      </g>
     </g>
    </g>
    <g id="ytick_5">
     <g id="line2d_9">
      <g>
       <use xlink:href="#m46cd080b39" x="35.89" y="100.190909" style="stroke: #000000; stroke-width: 0.8"/>
      </g>
     </g>
     <g id="text_9">
      <!-- 0.8 -->
      <g transform="translate(10.829063 104.01669) scale(0.1 -0.1)">
       <defs>
        <path id="DejaVuSansMono-38" d="M 1925 2216 
Q 1503 2216 1273 1980 
Q 1044 1744 1044 1313 
Q 1044 881 1276 642 
Q 1509 403 1925 403 
Q 2350 403 2579 639 
Q 2809 875 2809 1313 
Q 2809 1741 2576 1978 
Q 2344 2216 1925 2216 
z
M 1375 2478 
Q 972 2581 745 2862 
Q 519 3144 519 3541 
Q 519 4097 897 4423 
Q 1275 4750 1925 4750 
Q 2578 4750 2956 4423 
Q 3334 4097 3334 3541 
Q 3334 3144 3107 2862 
Q 2881 2581 2478 2478 
Q 2947 2375 3195 2062 
Q 3444 1750 3444 1253 
Q 3444 622 3041 265 
Q 2638 -91 1925 -91 
Q 1213 -91 811 264 
Q 409 619 409 1247 
Q 409 1747 657 2061 
Q 906 2375 1375 2478 
z
M 1147 3481 
Q 1147 3106 1347 2909 
Q 1547 2713 1925 2713 
Q 2306 2713 2506 2909 
Q 2706 3106 2706 3481 
Q 2706 3863 2507 4063 
Q 2309 4263 1925 4263 
Q 1547 4263 1347 4061 
Q 1147 3859 1147 3481 
z
" transform="scale(0.015625)"/>
       </defs>
       <use xlink:href="#DejaVuSansMono-30"/>
       <use xlink:href="#DejaVuSansMono-2e" x="60.205078"/>
       <use xlink:href="#DejaVuSansMono-38" x="120.410156"/>
      </g>
     </g>
    </g>
    <g id="ytick_6">
     <g id="line2d_10">
      <g>
       <use xlink:href="#m46cd080b39" x="35.89" y="28.678182" style="stroke: #000000; stroke-width: 0.8"/>
      </g>
     </g>
     <g id="text_10">
      <!-- 1.0 -->
      <g transform="translate(10.829063 32.503963) scale(0.1 -0.1)">
       <use xlink:href="#DejaVuSansMono-31"/>
       <use xlink:href="#DejaVuSansMono-2e" x="60.205078"/>
       <use xlink:href="#DejaVuSansMono-30" x="120.410156"/>
      </g>
     </g>
    </g>
   </g>
   <g id="line2d_11">
    <path d="M 35.725914 347.830801 
L 36.054086 347.163822 
L 36.218171 340.049827 
L 36.382257 339.959419 
L 36.710428 329.703581 
L 36.874513 330.59549 
L 37.694941 363.993084 
L 37.859026 363.535143 
L 38.023112 363.625551 
L 38.351283 373.788636 
L 38.515368 377.129848 
L 38.679454 369.557912 
L 38.843539 369.557912 
L 39.335796 348.289385 
L 39.499882 348.289385 
L 39.663967 340.71745 
L 39.992138 340.810203 
L 40.156224 340.810203 
L 40.320309 348.382139 
L 40.484395 343.228944 
L 40.812566 343.213456 
L 41.304822 365.74519 
L 41.797079 365.74519 
L 41.961164 359.071679 
L 42.12525 364.224874 
L 42.289335 364.224874 
L 42.453421 371.812298 
L 42.617507 371.996372 
L 42.781592 364.424436 
L 43.437934 364.424436 
L 43.60202 363.52601 
L 43.766105 355.954075 
L 43.930191 363.52601 
L 44.094276 363.52601 
L 44.258362 356.002854 
L 44.422447 362.937909 
L 44.586533 362.937909 
L 45.078789 341.101969 
L 45.40696 356.245841 
L 45.899217 356.197061 
L 46.063303 356.833943 
L 46.227388 354.45252 
L 46.391474 361.144588 
L 46.555559 361.144588 
L 46.719645 368.716524 
L 47.047816 353.598281 
L 47.704158 353.598281 
L 47.868243 355.979704 
L 48.032329 348.407768 
L 48.3605 348.407768 
L 48.688671 363.52601 
L 49.509099 363.52601 
L 49.83727 378.669882 
L 50.657697 378.669882 
L 50.821783 386.241818 
L 51.314039 386.241818 
L 51.478125 378.441072 
L 52.626724 378.441072 
L 52.790809 370.875973 
L 52.954895 370.875973 
L 53.11898 378.676719 
L 53.283066 378.493353 
L 54.267579 378.493353 
L 54.431664 386.058452 
L 54.759835 370.91458 
L 54.923921 371.097946 
L 55.416177 371.097946 
L 55.580263 363.478583 
L 56.236605 363.441052 
L 56.400691 371.012988 
L 56.564776 363.428761 
L 56.892947 363.428761 
L 57.057033 355.856825 
L 57.221118 363.476189 
L 57.385204 363.476189 
L 57.713375 348.332317 
L 57.87746 355.941784 
L 58.041546 355.84744 
L 58.205631 363.167782 
L 58.369717 363.167782 
L 58.533802 355.595846 
L 58.697888 363.167782 
L 59.518316 363.167782 
L 59.682401 355.69019 
L 59.846487 355.954075 
L 60.010572 355.954075 
L 60.174658 363.52601 
L 60.338743 363.52601 
L 60.502829 355.954075 
L 60.666914 355.954075 
L 60.995085 371.097946 
L 61.159171 363.518579 
L 61.323256 370.727045 
L 61.651427 370.727045 
L 61.815513 363.155109 
L 62.635941 363.155109 
L 62.800026 370.734476 
L 62.964112 371.097946 
L 63.456368 371.097946 
L 63.620454 363.845917 
L 63.784539 363.845917 
L 64.11271 348.702045 
L 64.440881 348.702045 
L 64.604967 341.130109 
L 64.769052 341.130109 
L 64.933138 340.680909 
L 65.097223 348.252844 
L 65.261309 347.932938 
L 65.425394 355.504874 
L 65.58948 357.869302 
L 65.753566 365.441238 
L 65.917651 365.256451 
L 66.081737 365.256451 
L 66.245822 372.828387 
L 66.409908 372.828387 
L 66.573993 373.277587 
L 66.738079 365.705651 
L 66.902164 372.737868 
L 67.06625 372.737868 
L 67.230335 377.945376 
L 67.394421 377.945376 
L 67.558506 378.130164 
L 68.214848 378.130164 
L 68.378934 385.702099 
L 68.543019 386.241818 
L 70.183875 386.241818 
L 70.34796 385.307567 
L 70.676131 378.33291 
L 71.660644 378.33291 
L 72.152901 367.746054 
L 72.316987 369.608711 
L 72.481072 369.608711 
L 72.809243 354.824983 
L 72.973329 354.644167 
L 73.3015 341.941273 
L 73.465585 345.111487 
L 73.793756 358.57438 
L 74.121927 358.57438 
L 74.450098 373.358108 
L 74.614184 373.538924 
L 74.942355 380.725479 
L 75.10644 380.725479 
L 75.270526 379.526942 
L 75.434612 379.526942 
L 75.598697 372.193471 
L 75.762783 372.193471 
L 75.926868 364.621535 
L 76.255039 364.621535 
L 76.419125 357.046417 
L 76.58321 362.562756 
L 76.747296 362.562756 
L 76.911381 363.761293 
L 77.075467 363.761293 
L 77.239552 371.094764 
L 77.403638 371.094764 
L 77.567723 378.6667 
L 77.895894 364.195889 
L 78.05998 371.771007 
L 78.224065 370.704878 
L 79.044493 370.704878 
L 79.208579 363.819462 
L 79.53675 378.290273 
L 79.700835 378.290273 
L 79.864921 379.356403 
L 80.685348 379.356403 
L 80.849434 386.241818 
L 81.34169 386.241818 
L 81.505776 378.669882 
L 82.982546 378.669882 
L 83.146631 386.241818 
L 85.115657 386.241818 
L 85.279743 382.318427 
L 85.772 382.318427 
L 85.936085 378.197158 
L 86.756513 378.197158 
L 86.920598 382.120549 
L 87.084684 381.76209 
L 87.412855 381.76209 
L 87.57694 385.883358 
L 88.561454 385.883358 
L 88.725539 386.241818 
L 90.694565 386.241818 
L 90.858651 382.973615 
L 91.350907 382.973615 
L 91.514993 375.963951 
L 92.335421 375.963951 
L 92.499506 379.232155 
L 92.991763 379.232155 
L 93.155848 386.241818 
L 95.453046 386.241818 
L 95.617131 385.612146 
L 97.093901 385.612146 
L 97.257986 386.241818 
L 113.502453 386.147474 
L 113.666539 382.335738 
L 113.99471 381.144674 
L 114.158795 381.144674 
L 114.322881 380.772212 
L 114.486966 380.866556 
L 114.651052 379.956725 
L 114.815138 379.769028 
L 114.979223 379.304056 
L 115.143309 379.304056 
L 115.307394 383.115792 
L 115.635565 384.306855 
L 115.799651 384.306855 
L 115.963736 384.679317 
L 116.127822 384.584849 
L 116.291907 385.400211 
L 116.455993 384.851613 
L 116.620078 384.942173 
L 116.784164 384.847705 
L 117.112335 384.376358 
L 117.440506 384.095177 
L 117.768677 382.097682 
L 117.932762 382.003712 
L 118.096848 382.089046 
L 118.260934 380.484165 
L 118.425019 380.297088 
L 118.75319 375.619954 
L 118.917276 369.226027 
L 119.081361 367.821852 
L 119.245447 368.986728 
L 119.409532 367.407871 
L 119.737703 359.995001 
L 119.901789 361.785606 
L 120.065874 357.357942 
L 120.394045 359.981367 
L 120.558131 365.21804 
L 121.050387 357.843092 
L 121.214473 363.194123 
L 121.378559 363.610784 
L 121.542644 362.532158 
L 121.70673 365.965983 
L 121.870815 365.548 
L 122.034901 365.444331 
L 122.198986 361.877075 
L 122.363072 362.645991 
L 122.527157 362.463193 
L 122.691243 363.78587 
L 122.855328 360.879855 
L 123.019414 361.024986 
L 123.347585 358.709343 
L 123.51167 355.132658 
L 123.675756 348.08438 
L 124.003927 346.506764 
L 124.168012 348.080176 
L 124.332098 348.104368 
L 124.496183 344.087037 
L 124.660269 343.301283 
L 124.824355 343.131919 
L 124.98844 341.121206 
L 125.152526 341.273534 
L 125.316611 346.147093 
L 125.480697 345.783469 
L 125.644782 346.947837 
L 125.972953 341.873074 
L 126.137039 342.742424 
L 126.301124 339.832839 
L 126.46521 339.464284 
L 126.629295 340.17217 
L 126.793381 337.487508 
L 126.957466 338.626676 
L 127.121552 340.643566 
L 127.449723 338.142133 
L 127.613808 338.939306 
L 127.777894 341.666376 
L 127.94198 341.245214 
L 128.434236 334.172676 
L 129.090578 318.273529 
L 129.254664 316.743072 
L 129.418749 312.763367 
L 129.582835 312.970224 
L 129.74692 310.627774 
L 130.075091 315.697781 
L 130.403262 313.732386 
L 130.731433 316.051237 
L 130.895519 317.009999 
L 131.059604 315.660784 
L 131.22369 312.208689 
L 131.387776 311.982552 
L 131.551861 310.26051 
L 131.715947 306.561532 
L 132.044118 307.895468 
L 132.208203 308.448562 
L 132.372289 308.293812 
L 132.536374 304.603554 
L 132.70046 305.449056 
L 132.864545 306.99356 
L 133.028631 304.180688 
L 133.192716 303.371517 
L 133.356802 303.127348 
L 133.520887 303.434167 
L 133.684973 302.878256 
L 134.013144 298.327188 
L 134.177229 299.983087 
L 134.341315 300.360745 
L 134.505401 297.799255 
L 134.669486 298.172146 
L 134.833572 295.583987 
L 134.997657 297.3171 
L 135.325828 293.364479 
L 135.489914 295.705531 
L 135.653999 294.815752 
L 135.98217 286.859424 
L 136.146256 287.478672 
L 136.310341 286.50862 
L 136.474427 287.296994 
L 136.802598 281.855499 
L 136.966683 281.282317 
L 137.130769 277.163451 
L 137.294854 277.307764 
L 137.45894 278.040895 
L 138.115282 273.545715 
L 138.279368 273.787671 
L 138.607539 272.903085 
L 138.771624 273.145234 
L 139.099795 268.452197 
L 140.084308 259.290733 
L 140.74065 252.499589 
L 141.396993 247.336345 
L 142.053335 242.319275 
L 142.709677 239.126936 
L 143.037848 238.307431 
L 143.530104 233.961851 
L 143.69419 234.580979 
L 143.858275 233.578468 
L 144.186446 229.031549 
L 144.350532 229.054215 
L 144.514618 228.011521 
L 144.842789 223.36686 
L 145.17096 221.600037 
L 145.335045 219.980859 
L 145.499131 220.279544 
L 145.663216 220.034503 
L 145.827302 219.451383 
L 146.155473 216.928531 
L 146.319558 217.732375 
L 146.647729 214.763681 
L 146.811815 215.046358 
L 147.139986 211.183285 
L 147.304071 214.142022 
L 147.960414 208.309907 
L 148.124499 208.286228 
L 148.288585 207.525124 
L 148.616756 203.338082 
L 148.780841 203.014768 
L 148.944927 198.151255 
L 149.437183 194.482856 
L 149.765354 189.753085 
L 150.257611 187.70606 
L 150.585782 184.896339 
L 150.749867 184.325666 
L 150.913953 184.440828 
L 151.078039 184.165424 
L 151.242124 185.041049 
L 151.570295 183.862677 
L 151.898466 180.418912 
L 153.047065 168.214129 
L 153.375236 163.635528 
L 153.539321 161.883039 
L 153.703407 161.426085 
L 154.031578 159.017354 
L 154.195664 157.697458 
L 154.359749 154.69986 
L 154.523835 155.139323 
L 154.68792 154.026241 
L 155.016091 156.819136 
L 155.672433 152.775667 
L 155.836519 154.188548 
L 156.000604 152.930579 
L 156.656946 139.718852 
L 156.821032 138.196133 
L 157.149203 132.055625 
L 157.313288 131.247271 
L 157.64146 126.494923 
L 157.805545 124.440743 
L 157.969631 125.3459 
L 158.133716 125.04782 
L 158.297802 123.828229 
L 158.625973 124.931863 
L 158.790058 124.096204 
L 159.282315 120.25113 
L 159.4464 120.106391 
L 159.774571 117.759189 
L 159.938657 120.566369 
L 160.92317 113.007684 
L 161.251341 111.901847 
L 161.907683 101.920494 
L 162.235854 107.65835 
L 162.564025 106.498615 
L 162.728111 107.574794 
L 162.892196 107.863518 
L 163.056282 107.38532 
L 163.384453 105.255852 
L 163.548538 108.604603 
L 163.876709 101.870919 
L 164.040795 101.689047 
L 164.204881 103.16172 
L 164.533052 98.675999 
L 164.697137 98.384632 
L 164.861223 97.552886 
L 165.025308 96.088818 
L 165.353479 90.736688 
L 165.68165 87.815164 
L 166.009821 83.843746 
L 166.173907 82.735788 
L 166.502078 83.836389 
L 166.666163 84.964416 
L 166.830249 83.284893 
L 167.15842 82.427685 
L 167.486591 82.996993 
L 167.650677 82.907929 
L 167.814762 82.345035 
L 167.978848 79.97353 
L 168.142933 79.609748 
L 168.471104 78.022822 
L 168.63519 77.898419 
L 168.799275 78.536629 
L 168.963361 77.946294 
L 169.291532 76.545735 
L 169.455617 75.696864 
L 169.619703 75.928778 
L 170.44013 68.851667 
L 170.604216 69.099594 
L 170.768302 70.760369 
L 171.096473 71.337289 
L 171.260558 70.430199 
L 171.424644 70.390773 
L 171.588729 71.152069 
L 171.752815 71.326343 
L 171.9169 71.871428 
L 172.080986 73.120165 
L 172.409157 72.196993 
L 172.573242 72.964665 
L 172.737328 76.847366 
L 172.901413 76.829544 
L 173.065499 76.939689 
L 173.557755 72.321227 
L 174.542269 57.757399 
L 174.87044 58.208104 
L 175.034525 58.627985 
L 175.362696 58.600864 
L 176.183124 56.53894 
L 176.347209 55.258997 
L 176.511295 55.422423 
L 177.167637 52.935334 
L 177.331723 54.564793 
L 177.823979 52.267496 
L 178.316236 48.706773 
L 178.480321 48.727399 
L 178.808492 47.966259 
L 178.972578 46.337225 
L 179.136663 46.424239 
L 179.300749 45.762586 
L 179.62892 48.911238 
L 179.793005 48.682338 
L 179.957091 48.180743 
L 180.121176 48.352006 
L 180.285262 48.281775 
L 180.613433 46.827991 
L 180.941604 48.202288 
L 181.269775 43.503561 
L 181.433861 43.216689 
L 181.597946 43.454649 
L 181.762032 42.689319 
L 181.926117 42.611639 
L 182.418374 44.65729 
L 182.746545 43.356719 
L 182.91063 43.724474 
L 183.238801 43.427305 
L 183.402887 43.655739 
L 183.566972 44.205747 
L 183.731058 43.847604 
L 183.895144 43.081888 
L 184.059229 40.726832 
L 184.223315 40.556731 
L 184.3874 41.003201 
L 184.551486 40.533797 
L 184.879657 41.181369 
L 185.043742 41.227355 
L 185.207828 42.180614 
L 185.371913 41.376628 
L 185.700084 41.746806 
L 185.86417 41.888335 
L 186.192341 41.440825 
L 186.684597 39.708728 
L 186.848683 38.46332 
L 187.012769 38.79894 
L 187.669111 36.981198 
L 187.833196 37.271757 
L 188.161367 36.845306 
L 188.325453 37.413879 
L 188.653624 37.013572 
L 189.309966 39.806765 
L 189.474051 40.196355 
L 189.802222 39.710224 
L 190.458565 37.029578 
L 190.62265 36.724541 
L 190.786736 35.093435 
L 190.950821 34.883708 
L 191.114907 33.875106 
L 191.443078 33.87169 
L 191.607163 33.667203 
L 191.771249 34.193129 
L 191.935334 34.121391 
L 192.09942 34.275885 
L 192.263505 34.132755 
L 192.427591 34.86238 
L 192.591676 35.017467 
L 192.755762 36.248012 
L 193.083933 36.762441 
L 193.412104 36.761981 
L 193.57619 36.972626 
L 194.068446 35.84241 
L 194.232532 36.002969 
L 194.396617 35.351311 
L 194.560703 36.198995 
L 194.724788 36.313196 
L 194.888874 37.006554 
L 195.217045 36.040899 
L 195.545216 36.503701 
L 196.037472 35.277272 
L 196.201558 33.99919 
L 196.365643 33.952752 
L 196.529729 33.321006 
L 196.8579 33.625832 
L 197.186071 33.270046 
L 197.514242 33.380845 
L 197.678328 32.945159 
L 197.842413 33.153358 
L 198.170584 32.321936 
L 198.33467 32.736032 
L 198.498755 32.613153 
L 198.826926 32.077825 
L 198.991012 32.563585 
L 199.155097 32.563152 
L 199.319183 32.884783 
L 199.647354 33.053827 
L 199.811439 33.309246 
L 200.139611 32.430868 
L 200.467782 32.474612 
L 200.631867 31.988421 
L 201.124124 31.732148 
L 201.452295 32.554904 
L 201.61638 32.741101 
L 201.780466 32.741322 
L 202.108637 33.593554 
L 202.272722 33.454701 
L 202.436808 33.673795 
L 202.600893 33.442613 
L 202.764979 33.586465 
L 202.929064 33.448416 
L 203.421321 35.54885 
L 203.749492 34.606332 
L 203.913578 34.797533 
L 204.405834 33.968845 
L 204.56992 33.437971 
L 204.898091 31.658343 
L 205.062176 31.476042 
L 205.554433 32.252491 
L 205.718518 32.226957 
L 206.046689 32.5108 
L 206.37486 32.536141 
L 206.538946 32.466421 
L 206.867117 31.801526 
L 207.031203 31.964304 
L 207.195288 31.849701 
L 207.359374 31.943335 
L 207.523459 31.682935 
L 207.687545 31.77561 
L 207.85163 31.680985 
L 208.015716 31.727237 
L 208.343887 31.513661 
L 208.672058 30.903125 
L 208.836143 30.394712 
L 209.000229 30.301357 
L 209.164314 30.372134 
L 209.3284 30.161795 
L 209.492485 30.137505 
L 209.656571 30.389738 
L 209.820656 30.436284 
L 210.80517 32.180108 
L 211.297426 32.207609 
L 211.461512 32.401789 
L 211.625597 32.170268 
L 211.789683 32.216757 
L 211.953768 32.100293 
L 212.117854 32.371732 
L 212.446025 33.816133 
L 212.774196 34.237704 
L 213.102367 33.273006 
L 213.266453 33.083315 
L 213.430538 33.668233 
L 213.594624 33.598923 
L 214.08688 30.724866 
L 214.415051 33.302176 
L 214.907308 33.584933 
L 215.071393 32.882816 
L 215.399564 32.8106 
L 215.56365 33.091644 
L 215.727735 33.091644 
L 216.055906 30.116178 
L 216.219992 29.998947 
L 216.384077 30.116645 
L 216.712249 29.997478 
L 216.876334 30.091325 
L 217.04042 30.347574 
L 217.204505 30.323388 
L 217.368591 30.44099 
L 217.696762 30.394003 
L 217.860847 30.418292 
L 218.189018 30.230072 
L 218.353104 30.324354 
L 218.517189 30.159794 
L 219.009446 29.316264 
L 219.173531 29.434117 
L 219.501702 29.339271 
L 220.32213 29.880093 
L 220.650301 30.161948 
L 220.978472 30.184864 
L 221.962985 29.973966 
L 222.291156 29.739595 
L 222.455242 29.598547 
L 223.111584 29.694117 
L 223.27567 29.529557 
L 223.603841 29.670046 
L 224.096097 29.504798 
L 224.424268 29.575385 
L 224.588354 29.432926 
L 224.752439 29.479662 
L 224.916525 29.667885 
L 225.244696 29.45631 
L 225.572867 29.480039 
L 225.901038 29.785001 
L 226.721466 29.762276 
L 227.213722 30.045131 
L 227.870064 29.857711 
L 228.362321 29.810883 
L 228.690492 29.598865 
L 228.854577 29.693209 
L 229.018663 29.599112 
L 229.675005 29.763352 
L 230.003176 29.763416 
L 230.331347 30.043722 
L 230.987689 29.83168 
L 231.644031 30.185458 
L 231.972202 29.929319 
L 232.300373 30.070026 
L 232.464459 30.234835 
L 233.613058 29.456881 
L 233.941229 29.528907 
L 234.105314 29.411273 
L 234.2694 29.529124 
L 234.433485 30.537536 
L 234.597571 30.631632 
L 234.925742 31.169115 
L 235.417998 31.193563 
L 235.746169 31.0753 
L 235.910255 31.285488 
L 236.07434 30.277012 
L 236.238426 30.277573 
L 236.730683 29.927965 
L 237.387025 30.115155 
L 237.55111 29.787116 
L 237.879281 29.645288 
L 238.207452 29.48051 
L 238.371538 29.853941 
L 238.863794 29.500442 
L 239.356051 29.595664 
L 239.684222 30.040013 
L 239.848308 30.134545 
L 240.012393 29.902819 
L 240.340564 30.137842 
L 240.668735 30.465212 
L 240.996906 30.441301 
L 241.325077 30.11521 
L 241.653248 29.902859 
L 241.817334 29.996828 
L 242.473676 29.433397 
L 242.637761 29.48063 
L 242.965933 29.292096 
L 243.294104 29.479882 
L 243.622275 29.291537 
L 244.114531 29.29148 
L 244.770873 29.928417 
L 244.934959 29.83457 
L 245.591301 30.258189 
L 245.755386 30.258189 
L 246.083558 30.043605 
L 246.411729 29.809754 
L 246.7399 29.809754 
L 247.068071 29.669043 
L 247.232156 29.739565 
L 247.560327 30.095388 
L 248.052584 30.189326 
L 248.873011 29.930333 
L 249.201182 29.621714 
L 249.365268 29.621277 
L 249.693439 29.456813 
L 249.857525 29.552316 
L 250.185696 29.505361 
L 250.513867 29.599645 
L 251.170209 29.811005 
L 251.334294 30.183203 
L 251.49838 30.158408 
L 251.826551 30.347162 
L 252.154722 30.205737 
L 252.811064 29.758734 
L 253.139235 29.19766 
L 253.795577 29.197287 
L 254.451919 29.338678 
L 254.78009 29.33874 
L 255.108261 29.363375 
L 255.436432 29.292852 
L 255.928689 29.435119 
L 256.25686 29.924685 
L 256.420946 30.018906 
L 256.913202 29.923588 
L 257.241373 29.994177 
L 257.569544 29.922842 
L 257.897715 29.339431 
L 258.225886 29.316362 
L 258.718143 29.268972 
L 259.046314 29.103604 
L 259.374485 29.361919 
L 259.702656 29.338282 
L 259.866742 29.243593 
L 260.030827 29.361444 
L 260.194913 29.337843 
L 260.687169 29.550315 
L 261.01534 29.22104 
L 261.999853 29.856336 
L 262.163939 29.809291 
L 262.984367 30.326148 
L 263.148452 30.30267 
L 263.312538 30.1635 
L 263.640709 30.209609 
L 264.297051 30.094168 
L 264.461136 29.952807 
L 264.953393 30.001299 
L 265.117478 30.000926 
L 265.281564 29.812735 
L 265.773821 30.164864 
L 265.937906 29.974384 
L 266.101992 30.045222 
L 266.758334 29.691214 
L 267.086505 29.644599 
L 267.414676 29.503671 
L 268.235103 29.433553 
L 269.219617 29.033292 
L 269.383702 29.127448 
L 269.711873 29.079493 
L 270.532301 29.338832 
L 270.696386 29.338832 
L 270.860472 29.480161 
L 271.516814 29.315264 
L 271.680899 29.456969 
L 272.993584 29.269085 
L 273.157669 29.386627 
L 273.321755 29.339019 
L 273.48584 29.479509 
L 273.649926 29.408425 
L 273.978097 29.573484 
L 274.142182 29.932275 
L 274.306268 29.955876 
L 274.634439 30.401643 
L 274.798524 30.284101 
L 274.96261 30.563435 
L 275.126695 30.399092 
L 275.290781 30.563526 
L 275.618952 30.469057 
L 275.783038 30.133867 
L 275.947123 30.324695 
L 276.43938 30.044331 
L 276.603465 29.718138 
L 276.767551 29.812235 
L 276.931636 29.600657 
L 277.423893 29.718355 
L 277.587978 29.574888 
L 278.080235 29.574541 
L 278.408406 29.457092 
L 278.572491 29.551281 
L 278.900663 29.527835 
L 279.392919 29.668386 
L 279.557005 29.786238 
L 279.885176 29.597364 
L 280.377432 29.456159 
L 280.541518 29.867144 
L 280.705603 29.86727 
L 280.869689 29.655695 
L 281.19786 29.608649 
L 281.526031 30.194915 
L 281.690116 31.225647 
L 282.018287 31.460324 
L 282.182373 30.931641 
L 282.510544 30.979002 
L 283.002801 30.672957 
L 283.166886 30.322178 
L 283.330972 29.530264 
L 283.659143 29.2481 
L 283.823228 29.482723 
L 284.151399 29.4589 
L 284.47957 29.717616 
L 284.807741 29.836002 
L 284.971827 29.597183 
L 285.299998 29.573552 
L 285.464084 29.362657 
L 287.104939 29.221108 
L 287.43311 29.221234 
L 287.761281 29.079561 
L 288.089452 29.008943 
L 288.581708 28.961767 
L 289.402136 28.91429 
L 289.894393 28.938049 
L 290.222564 28.914601 
L 291.042991 29.197628 
L 291.371162 29.19766 
L 291.863419 29.339676 
L 292.355676 29.221637 
L 292.519761 29.221701 
L 292.847932 29.830917 
L 293.176103 29.783243 
L 293.66836 29.735944 
L 294.324702 29.361421 
L 294.488787 29.056612 
L 294.981044 29.197232 
L 295.473301 29.713549 
L 295.965557 29.689822 
L 296.129643 29.808456 
L 296.785985 29.551453 
L 297.114156 29.222643 
L 297.442327 29.457787 
L 297.606412 29.528218 
L 297.934583 29.480387 
L 298.098669 29.877941 
L 298.42684 29.782717 
L 298.755011 29.806444 
L 299.247268 29.64295 
L 299.575439 29.714321 
L 299.739524 29.434618 
L 300.067695 29.575639 
L 300.888123 29.456973 
L 301.216294 29.526718 
L 301.872636 29.362691 
L 302.364893 29.645443 
L 302.528978 29.692488 
L 304.333919 28.938136 
L 304.498004 29.19639 
L 305.646603 29.243501 
L 305.810689 29.501416 
L 305.974774 29.501416 
L 306.13886 29.361171 
L 306.302945 29.408468 
L 306.795202 29.31406 
L 307.287458 29.643615 
L 307.615629 29.338559 
L 307.9438 29.26797 
L 308.600143 29.17375 
L 308.764228 29.056518 
L 309.256485 29.173903 
L 310.076912 29.244556 
L 310.240998 29.315454 
L 310.733254 29.150615 
L 311.389596 29.079809 
L 311.553682 29.268 
L 311.881853 29.149803 
L 312.538195 29.244336 
L 313.358623 29.174404 
L 314.014965 29.362565 
L 314.17905 29.268096 
L 315.163564 29.479551 
L 315.327649 29.29136 
L 316.640333 29.198419 
L 317.13259 29.198261 
L 317.296675 29.269067 
L 317.788932 29.174125 
L 318.773445 29.526807 
L 319.265702 29.456095 
L 319.429787 29.646575 
L 320.086129 29.364136 
L 320.250215 29.434942 
L 320.4143 29.293798 
L 320.906557 29.411748 
L 321.070642 29.244995 
L 321.89107 29.433587 
L 322.219241 29.480664 
L 322.547412 29.504265 
L 322.711498 29.691838 
L 323.203754 29.597279 
L 323.531925 29.36173 
L 323.696011 29.456574 
L 324.024182 29.315026 
L 324.188267 29.267789 
L 324.516438 28.985682 
L 325.665037 29.362625 
L 326.977721 29.032416 
L 328.618577 29.197946 
L 328.946748 29.244428 
L 330.751688 29.244675 
L 331.079859 29.408517 
L 331.736202 29.52662 
L 332.392544 29.243993 
L 332.720715 29.009034 
L 333.377057 29.008877 
L 335.674254 29.268594 
L 336.494682 29.221355 
L 336.822853 29.244835 
L 337.64328 29.102788 
L 337.971452 28.961488 
L 338.627794 28.843601 
L 339.776392 29.151026 
L 340.104563 29.573716 
L 340.268649 29.620891 
L 340.432734 29.831446 
L 341.253162 29.807554 
L 341.417248 29.902838 
L 341.745419 29.527477 
L 341.909504 29.504029 
L 342.07359 29.246146 
L 342.237675 29.198879 
L 342.565846 29.412053 
L 342.729932 29.412053 
L 342.894017 29.529531 
L 343.058103 29.457785 
L 343.222188 29.831151 
L 343.87853 29.760098 
L 344.370787 29.452489 
L 344.698958 29.287931 
L 344.863044 28.961861 
L 345.027129 28.961893 
L 345.191215 29.150334 
L 345.683471 29.173935 
L 346.011642 29.315264 
L 346.667984 29.361875 
L 346.83207 29.220667 
L 347.324326 29.434591 
L 347.652497 29.293293 
L 348.144754 29.151904 
L 348.472925 29.527794 
L 349.621524 29.431852 
L 349.785609 29.408251 
L 350.277866 29.056273 
L 350.770122 29.008972 
L 351.918721 29.079623 
L 352.410978 29.291544 
L 352.903234 29.291576 
L 353.723662 29.07947 
L 354.051833 28.891215 
L 354.54409 28.961989 
L 354.708175 29.056333 
L 355.036346 29.008879 
L 355.528603 29.126856 
L 356.020859 29.126794 
L 356.34903 29.150206 
L 356.677201 29.150206 
L 357.169458 29.055734 
L 357.661715 29.126666 
L 357.989886 28.985337 
L 361.435682 29.079785 
L 361.927938 29.174255 
L 362.256109 29.150464 
L 363.240622 29.103195 
L 363.732879 29.079625 
L 364.06105 29.293168 
L 364.389221 29.269536 
L 364.717392 29.293046 
L 365.373734 29.575796 
L 365.53782 29.385885 
L 365.865991 29.433246 
L 367.34276 29.056297 
L 368.163188 29.198033 
L 368.491359 29.221637 
L 368.983616 29.198069 
L 369.475872 29.174594 
L 370.132214 29.292505 
L 370.2963 29.245208 
L 370.460385 29.409983 
L 371.280813 29.385321 
L 371.444899 29.267469 
L 371.608984 29.314766 
L 371.77307 29.244053 
L 371.937155 29.434248 
L 372.101241 29.316831 
L 372.429412 29.552009 
L 372.593497 29.528408 
L 372.757583 29.387326 
L 373.085754 29.64623 
L 373.742096 29.64435 
L 374.070267 29.456626 
L 374.398438 29.409267 
L 374.726609 29.19763 
L 376.039293 28.89078 
L 377.023806 28.961767 
L 377.351978 28.938351 
L 378.500576 29.009194 
L 379.81326 29.456913 
L 379.977346 29.504146 
L 380.961859 29.150677 
L 381.782287 29.056267 
L 382.274543 28.938042 
L 384.407655 28.93801 
L 384.735826 29.102884 
L 385.720339 29.150082 
L 386.540767 28.914441 
L 386.868938 28.985529 
L 387.197109 29.103382 
L 389.00205 28.937823 
L 390.314734 29.150048 
L 390.642905 28.984964 
L 395.893642 29.056303 
L 396.221813 29.174312 
L 396.714069 29.126954 
L 396.878155 29.056056 
L 397.042241 29.126862 
L 397.206326 29.032518 
L 397.534497 29.102952 
L 397.698583 29.008574 
L 398.026754 29.079564 
L 398.354925 29.0795 
L 399.011267 29.079841 
L 399.503523 29.032697 
L 399.99578 29.197536 
L 400.323951 29.315326 
L 400.980293 29.149865 
L 401.636635 29.079434 
L 401.964806 29.009098 
L 402.292977 29.103442 
L 402.949319 29.268562 
L 403.27749 29.150553 
L 403.769747 29.268185 
L 404.097918 29.173905 
L 405.246517 29.05658 
L 407.051458 29.714349 
L 407.215543 29.690779 
L 407.379629 29.50308 
L 407.7078 29.43215 
L 407.871885 29.220575 
L 408.035971 29.244149 
L 408.364142 29.055924 
L 408.856398 29.008938 
L 410.497254 28.914816 
L 410.825425 28.938326 
L 411.153596 29.032391 
L 411.809938 29.032327 
L 411.974023 29.055992 
L 412.138109 29.19867 
L 412.794451 29.151404 
L 413.450793 29.410522 
L 413.614879 29.410522 
L 413.778964 29.291509 
L 414.435306 29.291665 
L 414.599392 29.244712 
L 414.927563 29.268533 
L 415.583905 29.291946 
L 415.74799 29.38629 
L 416.404332 29.126762 
L 416.896589 29.056205 
L 417.060675 29.056205 
L 417.22476 29.173748 
L 417.552931 29.126666 
L 417.881102 29.197411 
L 418.045188 29.291631 
L 418.865615 29.032263 
L 419.193786 29.173407 
L 419.521957 29.102566 
L 419.686043 28.984715 
L 420.506471 29.032103 
L 420.998727 28.914535 
L 421.162813 28.914567 
L 421.655069 29.291168 
L 422.147326 29.24381 
L 422.475497 29.14934 
L 422.803668 29.196763 
L 423.624096 28.914912 
L 423.788181 28.938543 
L 424.116352 29.290896 
L 424.280438 29.21981 
L 424.772694 29.314122 
L 425.429036 29.266889 
L 425.757207 28.938168 
L 426.249464 29.032382 
L 426.741721 29.008845 
L 427.233977 29.10322 
L 427.562148 29.126916 
L 427.890319 28.985401 
L 428.382576 29.079653 
L 429.038918 28.937981 
L 430.023431 28.98512 
L 430.679773 29.079463 
L 431.17203 29.126918 
L 431.336115 29.009066 
L 431.992457 29.03264 
L 432.648799 29.008881 
L 433.305142 29.032638 
L 434.781911 28.89072 
L 435.110082 28.985128 
L 435.438253 29.079472 
L 435.93051 29.150336 
L 436.586852 29.079655 
L 437.243194 28.938136 
L 438.063622 29.15043 
L 438.391793 29.126641 
L 439.868563 29.056045 
L 440.196734 29.056045 
L 442.329845 28.843603 
L 442.822102 29.032384 
L 443.64253 29.221353 
L 445.611556 29.032734 
L 446.596069 29.150155 
L 446.92424 29.079316 
L 447.580582 29.008915 
L 448.072839 28.891185 
L 449.057352 29.220763 
L 450.205951 29.197255 
L 450.698207 28.914658 
L 451.518635 29.008693 
L 451.68272 29.17291 
L 452.339062 29.149185 
L 452.995405 29.173093 
L 453.487661 28.914592 
L 453.651747 29.009186 
L 453.815832 28.961953 
L 454.144003 29.080399 
L 454.472174 29.033041 
L 454.63626 29.360651 
L 455.784858 29.242086 
L 456.11303 29.360532 
L 456.277115 29.080096 
L 460.543339 29.079564 
L 460.87151 28.890748 
L 461.199681 28.914407 
L 461.527852 28.843573 
L 462.512365 29.032661 
L 462.840536 28.961827 
L 463.332793 29.00906 
L 463.825049 28.985275 
L 465.62999 29.079932 
L 466.122247 29.173997 
L 466.778589 29.174063 
L 466.942674 29.244869 
L 467.434931 29.150647 
L 467.599016 29.244867 
L 467.763102 29.197692 
L 468.091273 29.339305 
L 470.38847 29.103472 
L 472.193411 29.056116 
L 472.521582 28.985309 
L 473.013839 28.938134 
L 473.506095 28.820001 
L 473.998352 28.914222 
L 474.654694 29.009004 
L 475.311036 29.056299 
L 475.803293 29.009032 
L 477.772319 29.079713 
L 478.10049 29.079655 
L 478.592746 29.008666 
L 479.085003 28.843515 
L 479.57726 28.819974 
L 479.905431 29.008721 
L 481.054029 29.079713 
L 481.3822 28.938228 
L 481.874457 28.890872 
L 482.85897 28.938109 
L 483.187141 29.103135 
L 483.679398 29.0559 
L 484.663911 29.103474 
L 484.992082 29.10347 
L 485.648424 29.433455 
L 487.453365 28.985808 
L 487.781536 29.009409 
L 488.109707 29.127261 
L 488.437878 29.197877 
L 488.601963 29.103033 
L 489.09422 29.173718 
L 489.422391 29.17375 
L 489.750562 29.055898 
L 489.914648 28.961554 
L 490.242819 29.079627 
L 490.57099 28.96162 
L 492.540016 28.914505 
L 492.868187 28.8673 
L 494.016786 28.914253 
L 494.673128 29.103069 
L 496.149898 29.009164 
L 496.478069 29.00935 
L 496.80624 29.150462 
L 499.103437 28.867551 
L 499.595694 28.961863 
L 499.759779 28.961863 
L 499.923865 29.126638 
L 500.416121 29.055521 
L 500.744292 29.126357 
L 501.072463 29.008382 
L 501.400634 29.055679 
L 501.728805 28.914567 
L 502.056977 28.914567 
L 502.221062 28.796404 
L 504.190088 28.985181 
L 504.354174 28.985245 
L 504.682345 29.220982 
L 505.666858 29.150182 
L 505.995029 29.17375 
L 506.3232 28.985275 
L 508.292226 29.079651 
L 508.784483 29.150297 
L 509.440825 29.055736 
L 509.604911 29.032167 
L 509.768996 29.150992 
L 510.261253 28.986034 
L 511.409851 29.242819 
L 511.738022 29.266388 
L 512.066194 29.171951 
L 512.394365 29.290585 
L 512.886621 29.219814 
L 513.050707 28.962238 
L 513.378878 28.962268 
L 513.707049 29.033132 
L 513.871134 28.914499 
L 514.691562 29.103003 
L 515.183819 29.0795 
L 515.51199 29.150212 
L 516.004246 28.985032 
L 516.660588 29.150308 
L 517.152845 29.032205 
L 517.645101 29.07947 
L 518.301443 28.867238 
L 523.55218 28.914443 
L 523.880351 29.032295 
L 525.685292 28.843699 
L 526.177549 28.890965 
L 526.833891 28.961767 
L 526.997976 29.21965 
L 528.474746 29.220407 
L 528.638832 28.938861 
L 529.131088 29.033081 
L 529.623345 29.127205 
L 529.78743 29.055555 
L 530.115601 29.267691 
L 530.607858 29.385913 
L 531.100114 29.150242 
L 531.428285 29.103225 
L 531.756457 28.938383 
L 532.412799 28.938168 
L 532.74097 29.009032 
L 532.905055 28.961674 
L 533.725483 29.196852 
L 535.858595 28.962047 
L 536.186766 29.009247 
L 536.350851 29.173807 
L 537.827621 29.149771 
L 538.155792 28.937978 
L 538.648049 28.867172 
L 538.97622 28.843541 
L 539.960733 28.79631 
L 541.109331 28.867428 
L 541.601588 28.914661 
L 542.750187 28.985341 
L 543.242443 29.197413 
L 543.898785 29.102822 
L 545.047384 28.843763 
L 545.375555 28.867394 
L 545.867812 29.056145 
L 546.195983 29.103257 
L 546.524154 29.008634 
L 547.01641 29.222304 
L 547.180496 29.151591 
L 547.508667 29.315934 
L 548.821351 29.291137 
L 548.985437 29.103193 
L 549.477693 29.008817 
L 550.954463 28.890752 
L 551.44672 29.079378 
L 551.774891 29.126521 
L 552.267147 29.126641 
L 552.431233 29.079465 
L 552.595318 29.150679 
L 553.087575 28.985684 
L 553.415746 29.151678 
L 554.236173 29.080437 
L 554.564345 29.221705 
L 554.72843 29.268937 
L 555.056601 29.055768 
L 555.712943 29.008506 
L 556.533371 28.725444 
L 557.517884 28.820035 
L 559.650996 29.055862 
L 560.143252 28.890869 
L 560.799594 28.914597 
L 561.620022 28.867394 
L 562.276364 28.962049 
L 562.604535 28.985561 
L 563.260877 29.150553 
L 563.424963 29.338126 
L 563.753134 29.290768 
L 564.24539 29.432219 
L 564.901733 29.338248 
L 565.065818 29.103316 
L 565.393989 29.079715 
L 566.214417 28.843571 
L 568.839785 28.937981 
L 569.332042 29.008755 
L 569.660213 28.961522 
L 570.152469 28.985311 
L 570.972897 28.84376 
L 574.418693 28.938143 
L 574.582779 28.961774 
L 574.746864 29.102886 
L 575.567292 29.055434 
L 575.895463 29.00829 
L 576.71589 28.749078 
L 577.536318 28.725444 
L 578.356746 28.796338 
L 578.520831 29.03096 
L 579.177173 29.054624 
L 579.341259 29.030992 
L 579.66943 29.102206 
L 579.997601 29.102206 
L 580.161686 28.867583 
L 580.982114 28.914784 
L 581.310285 28.843571 
L 581.966627 28.843571 
L 585.248338 28.9381 
L 585.740594 28.914411 
L 587.217364 28.772619 
L 587.709621 28.867149 
L 589.18639 28.725444 
L 589.678647 28.867147 
L 592.796272 28.914531 
L 593.124443 29.10266 
L 594.437127 29.103103 
L 594.765298 28.962081 
L 595.093469 28.961701 
L 596.406153 29.055926 
L 597.226581 28.890844 
L 597.882923 28.985124 
L 600.18012 28.938264 
L 600.672377 28.796562 
L 602.477318 28.890595 
L 602.805489 29.102636 
L 603.461831 29.1263 
L 603.790002 29.031862 
L 603.954088 29.055525 
L 604.446344 28.843984 
L 604.938601 28.93845 
L 605.430857 29.103657 
L 606.907627 29.456877 
L 607.235798 29.338746 
L 607.563969 29.126611 
L 607.89214 29.056118 
L 608.712568 28.867392 
L 609.697081 28.914377 
L 610.681594 28.843419 
L 610.84568 28.890778 
L 611.173851 28.820097 
L 612.158364 28.938079 
L 612.322449 29.17301 
L 613.471048 29.10202 
L 613.799219 29.149848 
L 613.963305 28.914916 
L 614.619647 29.127832 
L 614.783732 29.104258 
L 615.111903 29.339403 
L 615.275989 29.363034 
L 615.440074 29.2444 
L 615.932331 29.22042 
L 616.424587 29.149739 
L 616.752758 28.938226 
L 618.229528 28.772773 
L 618.88587 28.937955 
L 619.214041 28.890658 
L 619.870383 28.937889 
L 620.034469 28.890714 
L 620.198555 29.101982 
L 620.526726 29.078502 
L 621.347153 29.125924 
L 621.675324 29.102325 
L 621.83941 28.891025 
L 622.495752 28.89084 
L 626.59789 28.961426 
L 626.926061 29.079278 
L 627.746489 28.984625 
L 628.238745 28.819665 
L 628.402831 28.701813 
L 629.715515 28.79634 
L 631.192285 28.820035 
L 631.520456 28.914629 
L 632.504969 29.10363 
L 634.145824 28.938292 
L 634.638081 28.985622 
L 634.966252 28.890872 
L 635.294423 28.961614 
L 635.786679 28.985245 
L 636.11485 28.984996 
L 636.607107 29.102913 
L 637.099364 28.984938 
L 637.59162 29.008634 
L 638.247962 28.796466 
L 639.396561 28.867179 
L 643.498699 28.772739 
L 644.155041 28.749108 
L 644.975469 28.796402 
L 645.30364 28.843545 
L 645.795896 28.914352 
L 647.436752 28.749203 
L 648.093094 28.867272 
L 648.421265 29.055834 
L 649.241692 29.221044 
L 649.898035 29.032574 
L 650.06212 28.985341 
L 650.390291 29.008885 
L 650.718462 28.914445 
L 651.210719 28.985467 
L 652.031146 28.961987 
L 654.000173 29.032484 
L 654.164258 29.079717 
L 654.8206 28.914381 
L 655.805113 28.725444 
L 656.625541 28.749076 
L 660.399508 28.820001 
L 660.891765 29.008687 
L 661.712192 29.032286 
L 663.681219 28.820067 
L 665.157988 28.961674 
L 667.127015 28.772677 
L 668.275613 28.843451 
L 672.377751 28.937855 
L 673.198179 29.079463 
L 673.854521 29.103037 
L 674.346778 28.867147 
L 675.659462 28.772647 
L 676.47989 28.81991 
L 676.972146 28.772677 
L 677.300317 28.796466 
L 677.956659 28.796466 
L 679.925686 28.843573 
L 680.253857 28.984994 
L 680.910199 29.079553 
L 681.402455 29.008751 
L 681.730626 28.985433 
L 682.222883 28.890967 
L 683.207396 28.937949 
L 683.535567 28.890806 
L 684.848251 28.985311 
L 686.325021 28.890874 
L 686.817278 28.843641 
L 695.021554 28.914006 
L 695.51381 28.985124 
L 696.99058 28.890844 
L 697.482837 28.749046 
L 698.795521 28.843671 
L 700.108205 28.938074 
L 700.928633 28.938136 
L 701.092718 29.172759 
L 701.256804 29.149127 
L 701.584975 29.243096 
L 701.913146 29.290329 
L 702.405403 29.266727 
L 702.569488 29.337532 
L 702.733574 29.079278 
L 702.897659 29.126636 
L 703.061745 29.009158 
L 703.554001 29.056738 
L 703.882172 29.05674 
L 704.046258 29.198069 
L 704.374429 29.245148 
L 704.866685 29.150272 
L 707.163883 28.891027 
L 707.820225 28.985495 
L 708.804738 28.938102 
L 709.46108 28.772771 
L 710.93785 29.12692 
L 711.594192 29.055836 
L 712.578705 28.843547 
L 715.69633 28.938017 
L 716.516758 28.961682 
L 720.45481 28.867021 
L 720.782981 28.79634 
L 723.40835 28.701813 
L 724.064692 28.701813 
L 730.135856 28.772773 
L 730.628113 28.819974 
L 732.104883 28.93801 
L 733.089396 28.843515 
L 733.417567 28.772709 
L 734.073909 28.772773 
L 734.730251 28.819974 
L 735.058422 28.89078 
L 735.714764 28.89081 
L 737.68379 28.961678 
L 738.176047 29.008725 
L 739.16056 28.914288 
L 739.980988 28.725476 
L 740.801415 28.772771 
L 741.293672 28.79637 
L 742.442271 28.890963 
L 743.91904 29.008595 
L 744.247211 28.961301 
L 744.575382 28.772739 
L 745.888067 28.843573 
L 746.380323 28.96158 
L 747.200751 28.985245 
L 748.34935 28.749171 
L 748.841606 28.772803 
L 749.169777 28.961179 
L 749.826119 28.961083 
L 750.974718 28.86749 
L 752.451488 28.74914 
L 752.943744 28.819946 
L 753.600086 29.008604 
L 754.256428 29.055772 
L 755.076856 28.819971 
L 755.569113 28.796498 
L 756.061369 28.867615 
L 756.553626 28.938422 
L 757.209968 29.432406 
L 757.538139 29.38489 
L 757.86631 29.408521 
L 758.194481 29.526373 
L 758.850823 28.961335 
L 759.671251 28.867147 
L 759.999422 28.820003 
L 760.655764 28.820003 
L 763.445218 28.890748 
L 764.265645 29.0799 
L 767.38327 28.725476 
L 768.039613 28.91429 
L 768.367784 28.961522 
L 769.024126 28.96149 
L 769.352297 28.961493 
L 769.844553 28.843547 
L 774.110777 28.749046 
L 774.603034 28.772711 
L 785.760849 28.867147 
L 786.08902 28.890812 
L 787.237619 28.819916 
L 790.683415 28.867268 
L 791.339757 29.055772 
L 792.488356 28.985154 
L 792.980612 28.890899 
L 793.472869 28.962081 
L 794.293297 28.962206 
L 794.457382 29.22046 
L 795.770066 29.125368 
L 795.934152 29.125368 
L 796.098237 28.890778 
L 799.215862 28.820099 
L 799.544033 28.772739 
L 803.153915 28.867176 
L 804.79477 29.009094 
L 807.256053 28.914563 
L 807.912395 28.796466 
L 808.404652 28.843699 
L 808.896908 28.796308 
L 809.389165 28.890746 
L 813.327217 28.79631 
L 813.655388 28.79631 
L 814.639902 28.867117 
L 815.132158 28.937981 
L 815.460329 28.914379 
L 824.320948 28.867053 
L 824.649119 28.725476 
L 825.797717 28.74914 
L 826.289974 28.961584 
L 827.110402 29.008849 
L 827.602658 28.890842 
L 827.930829 28.772741 
L 829.079428 28.701845 
L 830.063941 28.749108 
L 830.392112 28.749108 
L 830.884369 28.79634 
L 836.463276 28.867236 
L 836.791448 28.938042 
L 837.283704 28.89084 
L 838.760474 28.74911 
L 839.909072 28.819944 
L 843.68304 28.866997 
L 844.011211 28.961341 
L 844.339382 28.914166 
L 845.159809 28.985124 
L 845.48798 28.772771 
L 847.292921 28.867332 
L 847.785178 28.985277 
L 848.933776 29.079434 
L 849.590118 28.914258 
L 849.91829 28.914727 
L 850.246461 28.84392 
L 850.902803 28.820289 
L 851.066888 29.031864 
L 852.543658 29.102321 
L 852.707743 28.890746 
L 853.035914 28.890929 
L 853.035914 28.890929 
" clip-path="url(#pba793cf56a)" style="fill: none; stroke-dasharray: 7.4,3.2; stroke-dashoffset: 0; stroke: #000000; stroke-width: 2"/>
   </g>
   <g id="patch_3">
    <path d="M 35.89 404.12 
L 35.89 10.8 
" style="fill: none; stroke: #000000; stroke-width: 0.8; stroke-linejoin: miter; stroke-linecap: square"/>
   </g>
   <g id="patch_4">
    <path d="M 853.2 404.12 
L 853.2 10.8 
" style="fill: none; stroke: #000000; stroke-width: 0.8; stroke-linejoin: miter; stroke-linecap: square"/>
   </g>
   <g id="patch_5">
    <path d="M 35.89 404.12 
L 853.2 404.12 
" style="fill: none; stroke: #000000; stroke-width: 0.8; stroke-linejoin: miter; stroke-linecap: square"/>
   </g>
   <g id="patch_6">
    <path d="M 35.89 10.8 
L 853.2 10.8 
" style="fill: none; stroke: #000000; stroke-width: 0.8; stroke-linejoin: miter; stroke-linecap: square"/>
   </g>
  </g>
 </g>
 <defs>
  <clipPath id="pba793cf56a">
   <rect x="35.89" y="10.8" width="817.31" height="393.32"/>
  </clipPath>
 </defs>
</svg>
