<?xml version="1.0" encoding="utf-8" standalone="no"?>
<!DOCTYPE svg PUBLIC "-//W3C//DTD SVG 1.1//EN"
  "http://www.w3.org/Graphics/SVG/1.1/DTD/svg11.dtd">
<svg xmlns:xlink="http://www.w3.org/1999/xlink" width="864pt" height="432pt" viewBox="0 0 864 432" xmlns="http://www.w3.org/2000/svg" version="1.1">
 <metadata>
  <rdf:RDF xmlns:dc="http://purl.org/dc/elements/1.1/" xmlns:cc="http://creativecommons.org/ns#" xmlns:rdf="http://www.w3.org/1999/02/22-rdf-syntax-ns#">
   <cc:Work>
    <dc:type rdf:resource="http://purl.org/dc/dcmitype/StillImage"/>
    <dc:date>2024-09-17T13:34:45.373887</dc:date>
    <dc:format>image/svg+xml</dc:format>
    <dc:creator>
     <cc:Agent>
      <dc:title>Matplotlib v3.9.2, https://matplotlib.org/</dc:title>
     </cc:Agent>
    </dc:creator>
   </cc:Work>
  </rdf:RDF>
 </metadata>
 <defs>
  <style type="text/css">*{stroke-linejoin: round; stroke-linecap: butt}</style>
 </defs>
 <g id="figure_1">
  <g id="patch_1">
   <path d="M 0 432 
L 864 432 
L 864 0 
L 0 0 
z
" style="fill: #ffffff"/>
  </g>
  <g id="axes_1">
   <g id="patch_2">
    <path d="M 35.89 404.12 
L 853.2 404.12 
L 853.2 10.8 
L 35.89 10.8 
z
" style="fill: #ffffff"/>
   </g>
   <g id="matplotlib.axis_1">
    <g id="xtick_1">
     <g id="line2d_1">
      <defs>
       <path id="mbb189af65e" d="M 0 0 
L 0 3.5 
" style="stroke: #000000; stroke-width: 0.8"/>
      </defs>
      <g>
       <use xlink:href="#mbb189af65e" x="194.186534" y="404.12" style="stroke: #000000; stroke-width: 0.8"/>
      </g>
     </g>
     <g id="text_1">
      <!-- 200 -->
      <g transform="translate(185.156065 418.771563) scale(0.1 -0.1)">
       <defs>
        <path id="DejaVuSansMono-32" d="M 1166 531 
L 3309 531 
L 3309 0 
L 475 0 
L 475 531 
Q 1059 1147 1496 1619 
Q 1934 2091 2100 2284 
Q 2413 2666 2522 2902 
Q 2631 3138 2631 3384 
Q 2631 3775 2401 3997 
Q 2172 4219 1772 4219 
Q 1488 4219 1175 4116 
Q 863 4013 513 3803 
L 513 4441 
Q 834 4594 1145 4672 
Q 1456 4750 1759 4750 
Q 2444 4750 2861 4386 
Q 3278 4022 3278 3431 
Q 3278 3131 3139 2831 
Q 3000 2531 2688 2169 
Q 2513 1966 2180 1606 
Q 1847 1247 1166 531 
z
" transform="scale(0.015625)"/>
        <path id="DejaVuSansMono-30" d="M 1509 2344 
Q 1509 2516 1629 2641 
Q 1750 2766 1919 2766 
Q 2094 2766 2219 2641 
Q 2344 2516 2344 2344 
Q 2344 2169 2220 2047 
Q 2097 1925 1919 1925 
Q 1744 1925 1626 2044 
Q 1509 2163 1509 2344 
z
M 1925 4250 
Q 1484 4250 1267 3775 
Q 1050 3300 1050 2328 
Q 1050 1359 1267 884 
Q 1484 409 1925 409 
Q 2369 409 2586 884 
Q 2803 1359 2803 2328 
Q 2803 3300 2586 3775 
Q 2369 4250 1925 4250 
z
M 1925 4750 
Q 2672 4750 3055 4137 
Q 3438 3525 3438 2328 
Q 3438 1134 3055 521 
Q 2672 -91 1925 -91 
Q 1178 -91 797 521 
Q 416 1134 416 2328 
Q 416 3525 797 4137 
Q 1178 4750 1925 4750 
z
" transform="scale(0.015625)"/>
       </defs>
       <use xlink:href="#DejaVuSansMono-32"/>
       <use xlink:href="#DejaVuSansMono-30" x="60.205078"/>
       <use xlink:href="#DejaVuSansMono-30" x="120.410156"/>
      </g>
     </g>
    </g>
    <g id="xtick_2">
     <g id="line2d_2">
      <g>
       <use xlink:href="#mbb189af65e" x="360.814465" y="404.12" style="stroke: #000000; stroke-width: 0.8"/>
      </g>
     </g>
     <g id="text_2">
      <!-- 400 -->
      <g transform="translate(351.783996 418.771563) scale(0.1 -0.1)">
       <defs>
        <path id="DejaVuSansMono-34" d="M 2297 4091 
L 825 1625 
L 2297 1625 
L 2297 4091 
z
M 2194 4666 
L 2925 4666 
L 2925 1625 
L 3547 1625 
L 3547 1113 
L 2925 1113 
L 2925 0 
L 2297 0 
L 2297 1113 
L 319 1113 
L 319 1709 
L 2194 4666 
z
" transform="scale(0.015625)"/>
       </defs>
       <use xlink:href="#DejaVuSansMono-34"/>
       <use xlink:href="#DejaVuSansMono-30" x="60.205078"/>
       <use xlink:href="#DejaVuSansMono-30" x="120.410156"/>
      </g>
     </g>
    </g>
    <g id="xtick_3">
     <g id="line2d_3">
      <g>
       <use xlink:href="#mbb189af65e" x="527.442396" y="404.12" style="stroke: #000000; stroke-width: 0.8"/>
      </g>
     </g>
     <g id="text_3">
      <!-- 600 -->
      <g transform="translate(518.411927 418.771563) scale(0.1 -0.1)">
       <defs>
        <path id="DejaVuSansMono-36" d="M 3097 4563 
L 3097 3981 
Q 2900 4097 2678 4158 
Q 2456 4219 2216 4219 
Q 1616 4219 1306 3767 
Q 997 3316 997 2438 
Q 1147 2750 1412 2917 
Q 1678 3084 2022 3084 
Q 2697 3084 3067 2670 
Q 3438 2256 3438 1497 
Q 3438 741 3056 325 
Q 2675 -91 1984 -91 
Q 1172 -91 794 492 
Q 416 1075 416 2328 
Q 416 3509 870 4129 
Q 1325 4750 2188 4750 
Q 2419 4750 2650 4701 
Q 2881 4653 3097 4563 
z
M 1972 2591 
Q 1569 2591 1337 2300 
Q 1106 2009 1106 1497 
Q 1106 984 1337 693 
Q 1569 403 1972 403 
Q 2391 403 2603 679 
Q 2816 956 2816 1497 
Q 2816 2041 2603 2316 
Q 2391 2591 1972 2591 
z
" transform="scale(0.015625)"/>
       </defs>
       <use xlink:href="#DejaVuSansMono-36"/>
       <use xlink:href="#DejaVuSansMono-30" x="60.205078"/>
       <use xlink:href="#DejaVuSansMono-30" x="120.410156"/>
      </g>
     </g>
    </g>
    <g id="xtick_4">
     <g id="line2d_4">
      <g>
       <use xlink:href="#mbb189af65e" x="694.070326" y="404.12" style="stroke: #000000; stroke-width: 0.8"/>
      </g>
     </g>
     <g id="text_4">
      <!-- 800 -->
      <g transform="translate(685.039857 418.771563) scale(0.1 -0.1)">
       <defs>
        <path id="DejaVuSansMono-38" d="M 1925 2216 
Q 1503 2216 1273 1980 
Q 1044 1744 1044 1313 
Q 1044 881 1276 642 
Q 1509 403 1925 403 
Q 2350 403 2579 639 
Q 2809 875 2809 1313 
Q 2809 1741 2576 1978 
Q 2344 2216 1925 2216 
z
M 1375 2478 
Q 972 2581 745 2862 
Q 519 3144 519 3541 
Q 519 4097 897 4423 
Q 1275 4750 1925 4750 
Q 2578 4750 2956 4423 
Q 3334 4097 3334 3541 
Q 3334 3144 3107 2862 
Q 2881 2581 2478 2478 
Q 2947 2375 3195 2062 
Q 3444 1750 3444 1253 
Q 3444 622 3041 265 
Q 2638 -91 1925 -91 
Q 1213 -91 811 264 
Q 409 619 409 1247 
Q 409 1747 657 2061 
Q 906 2375 1375 2478 
z
M 1147 3481 
Q 1147 3106 1347 2909 
Q 1547 2713 1925 2713 
Q 2306 2713 2506 2909 
Q 2706 3106 2706 3481 
Q 2706 3863 2507 4063 
Q 2309 4263 1925 4263 
Q 1547 4263 1347 4061 
Q 1147 3859 1147 3481 
z
" transform="scale(0.015625)"/>
       </defs>
       <use xlink:href="#DejaVuSansMono-38"/>
       <use xlink:href="#DejaVuSansMono-30" x="60.205078"/>
       <use xlink:href="#DejaVuSansMono-30" x="120.410156"/>
      </g>
     </g>
    </g>
   </g>
   <g id="matplotlib.axis_2">
    <g id="ytick_1">
     <g id="line2d_5">
      <defs>
       <path id="mddc6666ea6" d="M 0 0 
L -3.5 0 
" style="stroke: #000000; stroke-width: 0.8"/>
      </defs>
      <g>
       <use xlink:href="#mddc6666ea6" x="35.89" y="386.241818" style="stroke: #000000; stroke-width: 0.8"/>
      </g>
     </g>
     <g id="text_5">
      <!-- 0.0 -->
      <g transform="translate(10.829063 390.067599) scale(0.1 -0.1)">
       <defs>
        <path id="DejaVuSansMono-2e" d="M 1528 953 
L 2316 953 
L 2316 0 
L 1528 0 
L 1528 953 
z
" transform="scale(0.015625)"/>
       </defs>
       <use xlink:href="#DejaVuSansMono-30"/>
       <use xlink:href="#DejaVuSansMono-2e" x="60.205078"/>
       <use xlink:href="#DejaVuSansMono-30" x="120.410156"/>
      </g>
     </g>
    </g>
    <g id="ytick_2">
     <g id="line2d_6">
      <g>
       <use xlink:href="#mddc6666ea6" x="35.89" y="314.729091" style="stroke: #000000; stroke-width: 0.8"/>
      </g>
     </g>
     <g id="text_6">
      <!-- 0.2 -->
      <g transform="translate(10.829063 318.554872) scale(0.1 -0.1)">
       <use xlink:href="#DejaVuSansMono-30"/>
       <use xlink:href="#DejaVuSansMono-2e" x="60.205078"/>
       <use xlink:href="#DejaVuSansMono-32" x="120.410156"/>
      </g>
     </g>
    </g>
    <g id="ytick_3">
     <g id="line2d_7">
      <g>
       <use xlink:href="#mddc6666ea6" x="35.89" y="243.216364" style="stroke: #000000; stroke-width: 0.8"/>
      </g>
     </g>
     <g id="text_7">
      <!-- 0.4 -->
      <g transform="translate(10.829063 247.042145) scale(0.1 -0.1)">
       <use xlink:href="#DejaVuSansMono-30"/>
       <use xlink:href="#DejaVuSansMono-2e" x="60.205078"/>
       <use xlink:href="#DejaVuSansMono-34" x="120.410156"/>
      </g>
     </g>
    </g>
    <g id="ytick_4">
     <g id="line2d_8">
      <g>
       <use xlink:href="#mddc6666ea6" x="35.89" y="171.703636" style="stroke: #000000; stroke-width: 0.8"/>
      </g>
     </g>
     <g id="text_8">
      <!-- 0.6 -->
      <g transform="translate(10.829063 175.529418) scale(0.1 -0.1)">
       <use xlink:href="#DejaVuSansMono-30"/>
       <use xlink:href="#DejaVuSansMono-2e" x="60.205078"/>
       <use xlink:href="#DejaVuSansMono-36" x="120.410156"/>
      </g>
     </g>
    </g>
    <g id="ytick_5">
     <g id="line2d_9">
      <g>
       <use xlink:href="#mddc6666ea6" x="35.89" y="100.190909" style="stroke: #000000; stroke-width: 0.8"/>
      </g>
     </g>
     <g id="text_9">
      <!-- 0.8 -->
      <g transform="translate(10.829063 104.01669) scale(0.1 -0.1)">
       <use xlink:href="#DejaVuSansMono-30"/>
       <use xlink:href="#DejaVuSansMono-2e" x="60.205078"/>
       <use xlink:href="#DejaVuSansMono-38" x="120.410156"/>
      </g>
     </g>
    </g>
    <g id="ytick_6">
     <g id="line2d_10">
      <g>
       <use xlink:href="#mddc6666ea6" x="35.89" y="28.678182" style="stroke: #000000; stroke-width: 0.8"/>
      </g>
     </g>
     <g id="text_10">
      <!-- 1.0 -->
      <g transform="translate(10.829063 32.503963) scale(0.1 -0.1)">
       <defs>
        <path id="DejaVuSansMono-31" d="M 844 531 
L 1825 531 
L 1825 4097 
L 769 3859 
L 769 4434 
L 1819 4666 
L 2450 4666 
L 2450 531 
L 3419 531 
L 3419 0 
L 844 0 
L 844 531 
z
" transform="scale(0.015625)"/>
       </defs>
       <use xlink:href="#DejaVuSansMono-31"/>
       <use xlink:href="#DejaVuSansMono-2e" x="60.205078"/>
       <use xlink:href="#DejaVuSansMono-30" x="120.410156"/>
      </g>
     </g>
    </g>
   </g>
   <g id="line2d_11">
    <path d="M 27.558603 296.783016 
L 28.391743 304.859144 
L 31.724302 345.461365 
L 33.390581 364.605019 
L 34.223721 373.186546 
L 35.05686 380.091223 
L 35.89 383.478668 
L 36.72314 385.741729 
L 37.556279 386.241818 
L 149.196993 386.241818 
L 157.528389 381.18428 
L 160.860948 381.198567 
L 161.694088 380.712517 
L 164.193507 377.828599 
L 167.526065 372.150678 
L 168.359205 370.286317 
L 169.192345 367.967058 
L 172.524903 360.84413 
L 174.191182 358.312313 
L 175.024322 356.633993 
L 175.857462 354.56807 
L 176.690601 352.963112 
L 178.356881 350.644545 
L 179.19002 349.922194 
L 180.02316 348.376187 
L 181.689439 344.423475 
L 185.855138 332.212616 
L 186.688277 329.647239 
L 190.020836 316.027177 
L 191.687115 309.639986 
L 193.353394 304.274385 
L 195.852813 294.081332 
L 198.352232 287.644134 
L 199.185372 286.731981 
L 200.018512 282.98333 
L 200.851651 285.568939 
L 201.684791 280.586008 
L 202.517931 279.587378 
L 203.35107 283.690304 
L 205.01735 274.991713 
L 205.850489 277.31687 
L 206.683629 276.524406 
L 207.516769 269.872713 
L 208.349908 271.073955 
L 209.183048 266.241109 
L 210.016188 263.664487 
L 210.849327 260.179662 
L 211.682467 255.396202 
L 212.515607 253.999422 
L 213.348746 251.102696 
L 214.181886 247.488517 
L 215.015025 242.049938 
L 215.848165 240.354296 
L 216.681305 239.371911 
L 217.514444 231.114498 
L 218.347584 228.820043 
L 219.180724 229.621077 
L 220.013863 220.412917 
L 220.847003 219.090802 
L 221.680143 218.129333 
L 222.513282 208.439218 
L 223.346422 208.961831 
L 224.179562 205.664023 
L 225.012701 198.879483 
L 225.845841 197.303011 
L 226.678981 194.247327 
L 227.51212 189.218179 
L 228.34526 187.363765 
L 229.1784 186.472153 
L 230.011539 181.689483 
L 230.844679 180.809957 
L 231.677819 177.032005 
L 232.510958 175.765187 
L 233.344098 174.28593 
L 234.177238 171.136431 
L 235.010377 169.922751 
L 235.843517 167.002514 
L 236.676656 164.902031 
L 237.509796 161.492437 
L 238.342936 160.677617 
L 239.176075 157.857187 
L 240.009215 156.105853 
L 241.675494 149.905998 
L 242.508634 148.525911 
L 243.341774 145.509216 
L 245.008053 141.125583 
L 246.674332 134.259049 
L 247.507472 131.530968 
L 248.340612 128.049926 
L 249.173751 126.422051 
L 250.006891 123.833289 
L 250.840031 120.382123 
L 251.67317 117.552328 
L 252.50631 112.739409 
L 253.33945 110.878084 
L 254.172589 108.18592 
L 255.005729 107.671282 
L 255.838869 106.083574 
L 256.672008 102.372226 
L 257.505148 99.347364 
L 258.338287 95.009999 
L 259.171427 95.267935 
L 260.004567 93.962826 
L 260.837706 93.788181 
L 261.670846 90.629 
L 263.337125 85.371486 
L 264.170265 82.659905 
L 265.003405 82.512751 
L 265.836544 81.013132 
L 266.669684 81.560751 
L 267.502824 77.833657 
L 268.335963 77.245751 
L 269.169103 74.474282 
L 270.002243 73.723363 
L 270.835382 73.40007 
L 271.668522 71.519632 
L 272.501662 72.510026 
L 273.334801 69.883799 
L 274.167941 70.072369 
L 275.001081 68.848497 
L 275.83422 67.994367 
L 276.66736 68.03657 
L 277.500499 65.857196 
L 278.333639 66.86349 
L 279.166779 63.830037 
L 279.999918 64.461994 
L 280.833058 62.04241 
L 281.666198 61.030201 
L 282.499337 60.488935 
L 283.332477 57.976488 
L 284.165617 59.218101 
L 284.998756 56.535091 
L 285.831896 57.816264 
L 286.665036 54.915971 
L 287.498175 55.664241 
L 288.331315 53.584503 
L 289.164455 53.214325 
L 289.997594 53.406003 
L 290.830734 51.164783 
L 291.663874 52.055205 
L 292.497013 49.526906 
L 293.330153 50.397974 
L 294.163293 48.035435 
L 294.996432 48.932702 
L 295.829572 47.103066 
L 296.662712 47.321496 
L 297.495851 46.621699 
L 298.328991 44.999173 
L 299.16213 45.804292 
L 299.99527 43.949657 
L 300.82841 45.091872 
L 301.661549 43.004999 
L 302.494689 44.506395 
L 303.327829 42.639071 
L 304.160968 43.692496 
L 304.994108 42.387028 
L 305.827248 42.026154 
L 306.660387 42.267569 
L 307.493527 40.848215 
L 308.326667 41.567523 
L 309.159806 39.811072 
L 309.992946 40.770224 
L 310.826086 38.9029 
L 311.659225 39.147699 
L 312.492365 37.728345 
L 314.158644 37.728345 
L 314.991784 37.242131 
L 315.824924 37.847803 
L 316.658063 37.005669 
L 317.491203 37.611341 
L 318.324343 36.528494 
L 319.157482 37.134166 
L 319.990622 36.765672 
L 320.823761 37.251886 
L 321.656901 37.12819 
L 322.490041 37.12819 
L 323.32318 37.004495 
L 324.15632 36.275127 
L 324.98946 36.397953 
L 325.822599 35.668586 
L 326.655739 36.158209 
L 327.488879 35.304275 
L 328.322018 36.15228 
L 329.155158 35.29235 
L 329.988298 37.61161 
L 330.821437 36.86675 
L 331.654577 38.18126 
L 332.487717 38.18126 
L 333.320856 37.810172 
L 334.153996 39.239336 
L 334.987136 38.499691 
L 335.820275 38.624258 
L 336.653415 38.265877 
L 337.486555 38.265877 
L 338.319694 36.193138 
L 339.152834 36.569503 
L 339.985973 35.004973 
L 340.819113 35.373468 
L 341.652253 35.373468 
L 342.485392 33.819737 
L 343.318532 34.438252 
L 344.151672 34.313685 
L 344.984811 33.699494 
L 345.817951 34.196036 
L 346.651091 33.699494 
L 347.48423 33.574927 
L 348.31737 33.824948 
L 349.15051 33.206432 
L 349.983649 33.330999 
L 350.816789 33.330999 
L 351.649929 32.712484 
L 352.483068 32.837051 
L 353.316208 32.711598 
L 354.149348 32.34051 
L 354.982487 32.465963 
L 356.648767 32.215943 
L 357.481906 32.215943 
L 358.315046 31.965922 
L 359.981325 31.965922 
L 360.814465 31.841355 
L 361.647604 31.841355 
L 362.480744 31.715901 
L 363.313884 31.715901 
L 364.147023 31.589557 
L 366.646442 31.589557 
L 367.479582 31.464103 
L 368.312722 31.210513 
L 369.145861 31.085059 
L 369.979001 30.831469 
L 370.812141 30.831469 
L 371.64528 30.452424 
L 372.47842 30.325178 
L 373.31156 29.946134 
L 374.144699 29.692544 
L 374.977839 29.566199 
L 375.810979 29.312609 
L 376.644118 29.439855 
L 377.477258 29.186264 
L 378.310398 29.186264 
L 379.143537 28.932674 
L 382.476096 28.932674 
L 383.309235 28.805428 
L 384.142375 28.805428 
L 384.975515 28.678182 
L 394.140051 28.678182 
L 394.973191 28.805428 
L 402.471448 28.805428 
L 403.304587 28.678182 
L 852.36686 28.678182 
L 852.36686 28.678182 
" clip-path="url(#pd56e8f835d)" style="fill: none; stroke-dasharray: 7.4,3.2; stroke-dashoffset: 0; stroke: #000000; stroke-width: 2"/>
   </g>
   <g id="patch_3">
    <path d="M 35.89 404.12 
L 35.89 10.8 
" style="fill: none; stroke: #000000; stroke-width: 0.8; stroke-linejoin: miter; stroke-linecap: square"/>
   </g>
   <g id="patch_4">
    <path d="M 853.2 404.12 
L 853.2 10.8 
" style="fill: none; stroke: #000000; stroke-width: 0.8; stroke-linejoin: miter; stroke-linecap: square"/>
   </g>
   <g id="patch_5">
    <path d="M 35.89 404.12 
L 853.2 404.12 
" style="fill: none; stroke: #000000; stroke-width: 0.8; stroke-linejoin: miter; stroke-linecap: square"/>
   </g>
   <g id="patch_6">
    <path d="M 35.89 10.8 
L 853.2 10.8 
" style="fill: none; stroke: #000000; stroke-width: 0.8; stroke-linejoin: miter; stroke-linecap: square"/>
   </g>
  </g>
 </g>
 <defs>
  <clipPath id="pd56e8f835d">
   <rect x="35.89" y="10.8" width="817.31" height="393.32"/>
  </clipPath>
 </defs>
</svg>
