<?xml version="1.0" encoding="utf-8" standalone="no"?>
<!DOCTYPE svg PUBLIC "-//W3C//DTD SVG 1.1//EN"
  "http://www.w3.org/Graphics/SVG/1.1/DTD/svg11.dtd">
<svg xmlns:xlink="http://www.w3.org/1999/xlink" width="864pt" height="432pt" viewBox="0 0 864 432" xmlns="http://www.w3.org/2000/svg" version="1.1">
 <metadata>
  <rdf:RDF xmlns:dc="http://purl.org/dc/elements/1.1/" xmlns:cc="http://creativecommons.org/ns#" xmlns:rdf="http://www.w3.org/1999/02/22-rdf-syntax-ns#">
   <cc:Work>
    <dc:type rdf:resource="http://purl.org/dc/dcmitype/StillImage"/>
    <dc:date>2024-09-18T11:25:31.870742</dc:date>
    <dc:format>image/svg+xml</dc:format>
    <dc:creator>
     <cc:Agent>
      <dc:title>Matplotlib v3.9.2, https://matplotlib.org/</dc:title>
     </cc:Agent>
    </dc:creator>
   </cc:Work>
  </rdf:RDF>
 </metadata>
 <defs>
  <style type="text/css">*{stroke-linejoin: round; stroke-linecap: butt}</style>
 </defs>
 <g id="figure_1">
  <g id="patch_1">
   <path d="M 0 432 
L 864 432 
L 864 0 
L 0 0 
z
" style="fill: #ffffff"/>
  </g>
  <g id="axes_1">
   <g id="patch_2">
    <path d="M 41.92 404.12 
L 853.2 404.12 
L 853.2 10.8 
L 41.92 10.8 
z
" style="fill: #ffffff"/>
   </g>
   <g id="matplotlib.axis_1">
    <g id="xtick_1">
     <g id="line2d_1">
      <defs>
       <path id="mf7ce52abbc" d="M 0 0 
L 0 3.5 
" style="stroke: #000000; stroke-width: 0.8"/>
      </defs>
      <g>
       <use xlink:href="#mf7ce52abbc" x="199.048644" y="404.12" style="stroke: #000000; stroke-width: 0.8"/>
      </g>
     </g>
     <g id="text_1">
      <!-- 200 -->
      <g transform="translate(190.018175 418.771563) scale(0.1 -0.1)">
       <defs>
        <path id="DejaVuSansMono-32" d="M 1166 531 
L 3309 531 
L 3309 0 
L 475 0 
L 475 531 
Q 1059 1147 1496 1619 
Q 1934 2091 2100 2284 
Q 2413 2666 2522 2902 
Q 2631 3138 2631 3384 
Q 2631 3775 2401 3997 
Q 2172 4219 1772 4219 
Q 1488 4219 1175 4116 
Q 863 4013 513 3803 
L 513 4441 
Q 834 4594 1145 4672 
Q 1456 4750 1759 4750 
Q 2444 4750 2861 4386 
Q 3278 4022 3278 3431 
Q 3278 3131 3139 2831 
Q 3000 2531 2688 2169 
Q 2513 1966 2180 1606 
Q 1847 1247 1166 531 
z
" transform="scale(0.015625)"/>
        <path id="DejaVuSansMono-30" d="M 1509 2344 
Q 1509 2516 1629 2641 
Q 1750 2766 1919 2766 
Q 2094 2766 2219 2641 
Q 2344 2516 2344 2344 
Q 2344 2169 2220 2047 
Q 2097 1925 1919 1925 
Q 1744 1925 1626 2044 
Q 1509 2163 1509 2344 
z
M 1925 4250 
Q 1484 4250 1267 3775 
Q 1050 3300 1050 2328 
Q 1050 1359 1267 884 
Q 1484 409 1925 409 
Q 2369 409 2586 884 
Q 2803 1359 2803 2328 
Q 2803 3300 2586 3775 
Q 2369 4250 1925 4250 
z
M 1925 4750 
Q 2672 4750 3055 4137 
Q 3438 3525 3438 2328 
Q 3438 1134 3055 521 
Q 2672 -91 1925 -91 
Q 1178 -91 797 521 
Q 416 1134 416 2328 
Q 416 3525 797 4137 
Q 1178 4750 1925 4750 
z
" transform="scale(0.015625)"/>
       </defs>
       <use xlink:href="#DejaVuSansMono-32"/>
       <use xlink:href="#DejaVuSansMono-30" x="60.205078"/>
       <use xlink:href="#DejaVuSansMono-30" x="120.410156"/>
      </g>
     </g>
    </g>
    <g id="xtick_2">
     <g id="line2d_2">
      <g>
       <use xlink:href="#mf7ce52abbc" x="364.447217" y="404.12" style="stroke: #000000; stroke-width: 0.8"/>
      </g>
     </g>
     <g id="text_2">
      <!-- 400 -->
      <g transform="translate(355.416748 418.771563) scale(0.1 -0.1)">
       <defs>
        <path id="DejaVuSansMono-34" d="M 2297 4091 
L 825 1625 
L 2297 1625 
L 2297 4091 
z
M 2194 4666 
L 2925 4666 
L 2925 1625 
L 3547 1625 
L 3547 1113 
L 2925 1113 
L 2925 0 
L 2297 0 
L 2297 1113 
L 319 1113 
L 319 1709 
L 2194 4666 
z
" transform="scale(0.015625)"/>
       </defs>
       <use xlink:href="#DejaVuSansMono-34"/>
       <use xlink:href="#DejaVuSansMono-30" x="60.205078"/>
       <use xlink:href="#DejaVuSansMono-30" x="120.410156"/>
      </g>
     </g>
    </g>
    <g id="xtick_3">
     <g id="line2d_3">
      <g>
       <use xlink:href="#mf7ce52abbc" x="529.84579" y="404.12" style="stroke: #000000; stroke-width: 0.8"/>
      </g>
     </g>
     <g id="text_3">
      <!-- 600 -->
      <g transform="translate(520.815321 418.771563) scale(0.1 -0.1)">
       <defs>
        <path id="DejaVuSansMono-36" d="M 3097 4563 
L 3097 3981 
Q 2900 4097 2678 4158 
Q 2456 4219 2216 4219 
Q 1616 4219 1306 3767 
Q 997 3316 997 2438 
Q 1147 2750 1412 2917 
Q 1678 3084 2022 3084 
Q 2697 3084 3067 2670 
Q 3438 2256 3438 1497 
Q 3438 741 3056 325 
Q 2675 -91 1984 -91 
Q 1172 -91 794 492 
Q 416 1075 416 2328 
Q 416 3509 870 4129 
Q 1325 4750 2188 4750 
Q 2419 4750 2650 4701 
Q 2881 4653 3097 4563 
z
M 1972 2591 
Q 1569 2591 1337 2300 
Q 1106 2009 1106 1497 
Q 1106 984 1337 693 
Q 1569 403 1972 403 
Q 2391 403 2603 679 
Q 2816 956 2816 1497 
Q 2816 2041 2603 2316 
Q 2391 2591 1972 2591 
z
" transform="scale(0.015625)"/>
       </defs>
       <use xlink:href="#DejaVuSansMono-36"/>
       <use xlink:href="#DejaVuSansMono-30" x="60.205078"/>
       <use xlink:href="#DejaVuSansMono-30" x="120.410156"/>
      </g>
     </g>
    </g>
    <g id="xtick_4">
     <g id="line2d_4">
      <g>
       <use xlink:href="#mf7ce52abbc" x="695.244363" y="404.12" style="stroke: #000000; stroke-width: 0.8"/>
      </g>
     </g>
     <g id="text_4">
      <!-- 800 -->
      <g transform="translate(686.213894 418.771563) scale(0.1 -0.1)">
       <defs>
        <path id="DejaVuSansMono-38" d="M 1925 2216 
Q 1503 2216 1273 1980 
Q 1044 1744 1044 1313 
Q 1044 881 1276 642 
Q 1509 403 1925 403 
Q 2350 403 2579 639 
Q 2809 875 2809 1313 
Q 2809 1741 2576 1978 
Q 2344 2216 1925 2216 
z
M 1375 2478 
Q 972 2581 745 2862 
Q 519 3144 519 3541 
Q 519 4097 897 4423 
Q 1275 4750 1925 4750 
Q 2578 4750 2956 4423 
Q 3334 4097 3334 3541 
Q 3334 3144 3107 2862 
Q 2881 2581 2478 2478 
Q 2947 2375 3195 2062 
Q 3444 1750 3444 1253 
Q 3444 622 3041 265 
Q 2638 -91 1925 -91 
Q 1213 -91 811 264 
Q 409 619 409 1247 
Q 409 1747 657 2061 
Q 906 2375 1375 2478 
z
M 1147 3481 
Q 1147 3106 1347 2909 
Q 1547 2713 1925 2713 
Q 2306 2713 2506 2909 
Q 2706 3106 2706 3481 
Q 2706 3863 2507 4063 
Q 2309 4263 1925 4263 
Q 1547 4263 1347 4061 
Q 1147 3859 1147 3481 
z
" transform="scale(0.015625)"/>
       </defs>
       <use xlink:href="#DejaVuSansMono-38"/>
       <use xlink:href="#DejaVuSansMono-30" x="60.205078"/>
       <use xlink:href="#DejaVuSansMono-30" x="120.410156"/>
      </g>
     </g>
    </g>
   </g>
   <g id="matplotlib.axis_2">
    <g id="ytick_1">
     <g id="line2d_5">
      <defs>
       <path id="m7ee302eb2a" d="M 0 0 
L -3.5 0 
" style="stroke: #000000; stroke-width: 0.8"/>
      </defs>
      <g>
       <use xlink:href="#m7ee302eb2a" x="41.92" y="348.87855" style="stroke: #000000; stroke-width: 0.8"/>
      </g>
     </g>
     <g id="text_5">
      <!-- 0.02 -->
      <g transform="translate(10.83875 352.704332) scale(0.1 -0.1)">
       <defs>
        <path id="DejaVuSansMono-2e" d="M 1528 953 
L 2316 953 
L 2316 0 
L 1528 0 
L 1528 953 
z
" transform="scale(0.015625)"/>
       </defs>
       <use xlink:href="#DejaVuSansMono-30"/>
       <use xlink:href="#DejaVuSansMono-2e" x="60.205078"/>
       <use xlink:href="#DejaVuSansMono-30" x="120.410156"/>
       <use xlink:href="#DejaVuSansMono-32" x="180.615234"/>
      </g>
     </g>
    </g>
    <g id="ytick_2">
     <g id="line2d_6">
      <g>
       <use xlink:href="#m7ee302eb2a" x="41.92" y="290.235675" style="stroke: #000000; stroke-width: 0.8"/>
      </g>
     </g>
     <g id="text_6">
      <!-- 0.04 -->
      <g transform="translate(10.83875 294.061456) scale(0.1 -0.1)">
       <use xlink:href="#DejaVuSansMono-30"/>
       <use xlink:href="#DejaVuSansMono-2e" x="60.205078"/>
       <use xlink:href="#DejaVuSansMono-30" x="120.410156"/>
       <use xlink:href="#DejaVuSansMono-34" x="180.615234"/>
      </g>
     </g>
    </g>
    <g id="ytick_3">
     <g id="line2d_7">
      <g>
       <use xlink:href="#m7ee302eb2a" x="41.92" y="231.592799" style="stroke: #000000; stroke-width: 0.8"/>
      </g>
     </g>
     <g id="text_7">
      <!-- 0.06 -->
      <g transform="translate(10.83875 235.41858) scale(0.1 -0.1)">
       <use xlink:href="#DejaVuSansMono-30"/>
       <use xlink:href="#DejaVuSansMono-2e" x="60.205078"/>
       <use xlink:href="#DejaVuSansMono-30" x="120.410156"/>
       <use xlink:href="#DejaVuSansMono-36" x="180.615234"/>
      </g>
     </g>
    </g>
    <g id="ytick_4">
     <g id="line2d_8">
      <g>
       <use xlink:href="#m7ee302eb2a" x="41.92" y="172.949923" style="stroke: #000000; stroke-width: 0.8"/>
      </g>
     </g>
     <g id="text_8">
      <!-- 0.08 -->
      <g transform="translate(10.83875 176.775704) scale(0.1 -0.1)">
       <use xlink:href="#DejaVuSansMono-30"/>
       <use xlink:href="#DejaVuSansMono-2e" x="60.205078"/>
       <use xlink:href="#DejaVuSansMono-30" x="120.410156"/>
       <use xlink:href="#DejaVuSansMono-38" x="180.615234"/>
      </g>
     </g>
    </g>
    <g id="ytick_5">
     <g id="line2d_9">
      <g>
       <use xlink:href="#m7ee302eb2a" x="41.92" y="114.307047" style="stroke: #000000; stroke-width: 0.8"/>
      </g>
     </g>
     <g id="text_9">
      <!-- 0.10 -->
      <g transform="translate(10.83875 118.132828) scale(0.1 -0.1)">
       <defs>
        <path id="DejaVuSansMono-31" d="M 844 531 
L 1825 531 
L 1825 4097 
L 769 3859 
L 769 4434 
L 1819 4666 
L 2450 4666 
L 2450 531 
L 3419 531 
L 3419 0 
L 844 0 
L 844 531 
z
" transform="scale(0.015625)"/>
       </defs>
       <use xlink:href="#DejaVuSansMono-30"/>
       <use xlink:href="#DejaVuSansMono-2e" x="60.205078"/>
       <use xlink:href="#DejaVuSansMono-31" x="120.410156"/>
       <use xlink:href="#DejaVuSansMono-30" x="180.615234"/>
      </g>
     </g>
    </g>
    <g id="ytick_6">
     <g id="line2d_10">
      <g>
       <use xlink:href="#m7ee302eb2a" x="41.92" y="55.664171" style="stroke: #000000; stroke-width: 0.8"/>
      </g>
     </g>
     <g id="text_10">
      <!-- 0.12 -->
      <g transform="translate(10.83875 59.489952) scale(0.1 -0.1)">
       <use xlink:href="#DejaVuSansMono-30"/>
       <use xlink:href="#DejaVuSansMono-2e" x="60.205078"/>
       <use xlink:href="#DejaVuSansMono-31" x="120.410156"/>
       <use xlink:href="#DejaVuSansMono-32" x="180.615234"/>
      </g>
     </g>
    </g>
   </g>
   <g id="line2d_11">
    <path d="M 33.650071 34.643122 
L 34.477064 36.521321 
L 35.304057 33.833761 
L 36.13105 30.544922 
L 36.958043 28.678182 
L 37.785036 29.459224 
L 38.612029 33.293723 
L 41.093007 51.132214 
L 41.92 54.3144 
L 42.746993 55.241691 
L 43.573986 54.244851 
L 44.400979 51.869894 
L 47.70895 39.254266 
L 48.535943 37.232934 
L 49.362936 36.050254 
L 50.189929 35.705458 
L 51.016922 36.103895 
L 51.843914 37.075434 
L 53.4979 39.880509 
L 55.151886 42.505156 
L 55.978879 43.416587 
L 56.805872 44.001219 
L 57.632864 44.282534 
L 58.459857 44.321836 
L 60.113843 43.998606 
L 61.767829 43.622988 
L 63.421814 43.527223 
L 67.556779 43.839892 
L 69.210765 43.549844 
L 74.172722 42.10668 
L 75.826707 42.176229 
L 77.480693 42.603971 
L 81.615657 43.959388 
L 83.269643 44.151855 
L 84.923629 44.057975 
L 87.404608 43.571664 
L 89.885586 43.084322 
L 91.539572 42.972402 
L 93.193558 43.109056 
L 95.674536 43.675185 
L 98.155515 44.239441 
L 99.809501 44.362393 
L 101.463486 44.230678 
L 105.598451 43.588274 
L 107.252436 43.580082 
L 109.733415 43.885275 
L 112.214393 44.21861 
L 114.695372 44.293726 
L 120.484322 44.199309 
L 127.927258 44.368892 
L 133.716208 44.539288 
L 140.332151 44.669909 
L 155.218022 45.191733 
L 182.508787 46.429697 
L 185.816758 46.636108 
L 188.297737 46.807419 
L 191.605708 47.059841 
L 195.740673 47.34499 
L 203.183609 47.8288 
L 225.512416 49.995346 
L 227.993394 50.315368 
L 231.301366 50.710151 
L 236.263323 51.399177 
L 238.744302 51.879244 
L 242.052273 52.500685 
L 242.879266 52.856544 
L 243.706259 52.826265 
L 244.533252 53.285775 
L 245.360245 52.910995 
L 246.187238 53.915161 
L 247.01423 52.86769 
L 247.841223 54.645169 
L 248.668216 52.92369 
L 249.495209 54.766485 
L 250.322202 53.881116 
L 251.149195 54.497076 
L 251.976188 55.382287 
L 252.80318 54.396697 
L 253.630173 57.172345 
L 254.457166 52.899319 
L 255.284159 58.728164 
L 256.111152 51.682104 
L 256.938145 55.783444 
L 257.765138 56.960942 
L 258.59213 53.853179 
L 259.419123 55.671773 
L 260.246116 58.017174 
L 261.073109 55.408024 
L 261.900102 55.991153 
L 262.727095 62.071895 
L 263.554088 54.95626 
L 264.381081 64.657615 
L 266.035066 60.662245 
L 266.862059 69.68573 
L 267.689052 60.599295 
L 268.516045 65.76644 
L 269.343038 60.747133 
L 270.170031 57.12481 
L 271.824016 68.515569 
L 272.651009 57.59916 
L 273.478002 58.829709 
L 274.304995 65.081857 
L 275.131988 65.948149 
L 275.958981 71.478294 
L 276.785973 61.790399 
L 277.612966 74.06534 
L 278.439959 80.50145 
L 279.266952 76.791502 
L 280.093945 76.156438 
L 280.920938 85.043062 
L 281.747931 86.646082 
L 282.574924 84.379539 
L 283.401916 82.651445 
L 284.228909 86.018293 
L 285.055902 93.569339 
L 285.882895 96.5613 
L 286.709888 92.850653 
L 287.536881 91.268426 
L 288.363874 95.502741 
L 289.190866 100.700464 
L 290.017859 102.585209 
L 290.844852 102.403877 
L 291.671845 105.988135 
L 292.498838 111.048987 
L 294.152824 110.18271 
L 294.979817 116.124303 
L 295.806809 120.372305 
L 296.633802 121.996658 
L 298.287788 128.559491 
L 299.114781 133.679841 
L 299.941774 136.200673 
L 300.768767 138.104916 
L 301.595759 145.240667 
L 302.422752 147.344078 
L 303.249745 154.298196 
L 304.076738 155.867647 
L 304.903731 159.851065 
L 305.730724 164.438045 
L 306.557717 166.864687 
L 307.384709 168.32001 
L 309.038695 179.744252 
L 309.865688 179.789371 
L 310.692681 183.654147 
L 311.519674 183.33518 
L 312.346667 190.777756 
L 313.17366 193.548392 
L 314.000652 192.160121 
L 315.654638 196.72584 
L 316.481631 196.628074 
L 317.308624 197.459897 
L 318.135617 200.575837 
L 318.96261 203.066947 
L 319.789602 202.880807 
L 320.616595 201.701177 
L 321.443588 201.921976 
L 322.270581 204.371286 
L 323.097574 207.413694 
L 323.924567 208.848233 
L 324.75156 208.624662 
L 325.578552 208.165007 
L 326.405545 208.612109 
L 328.059531 211.423937 
L 328.886524 212.142429 
L 330.54051 212.672472 
L 331.367503 213.390767 
L 333.021488 215.194241 
L 333.848481 215.788282 
L 336.32946 216.983119 
L 338.810438 219.034394 
L 339.637431 219.044489 
L 340.464424 219.269496 
L 342.11841 221.041527 
L 342.945403 221.273448 
L 343.772396 221.377453 
L 344.599388 222.275092 
L 345.426381 223.403039 
L 346.253374 223.680564 
L 347.080367 223.700567 
L 347.90736 224.443248 
L 348.734353 225.376462 
L 350.388338 225.883772 
L 352.042324 227.177624 
L 353.69631 228.096499 
L 354.523303 228.617974 
L 355.350296 229.384055 
L 356.177288 229.991131 
L 357.004281 230.312037 
L 357.831274 231.330279 
L 358.658267 231.981278 
L 359.48526 232.234762 
L 360.312253 233.305294 
L 361.966239 234.430333 
L 362.793231 235.005406 
L 363.620224 235.931216 
L 364.447217 236.009897 
L 365.27421 237.627856 
L 366.101203 236.426888 
L 366.928196 239.145094 
L 367.755189 232.149647 
L 368.582181 235.19282 
L 369.409174 234.186617 
L 370.236167 233.58116 
L 371.06316 236.643685 
L 371.890153 232.026756 
L 372.717146 233.391696 
L 373.544139 235.56049 
L 374.371131 226.768207 
L 375.198124 224.884538 
L 376.025117 236.221413 
L 376.85211 225.877849 
L 377.679103 221.739024 
L 378.506096 225.141988 
L 379.333089 224.96519 
L 380.160082 226.612984 
L 380.987074 222.578415 
L 381.814067 221.39229 
L 382.64106 231.736109 
L 383.468053 230.465343 
L 384.295046 226.108422 
L 385.122039 234.900554 
L 385.949032 242.315685 
L 386.776024 238.485136 
L 387.603017 235.553581 
L 389.257003 244.835323 
L 390.083996 242.405824 
L 390.910989 242.934265 
L 391.737982 245.872015 
L 392.564975 247.636475 
L 394.21896 247.331632 
L 395.045953 248.729829 
L 395.872946 250.720265 
L 396.699939 251.004854 
L 397.526932 250.478424 
L 398.353925 253.468546 
L 399.180917 254.535616 
L 400.00791 253.093133 
L 400.834903 255.139468 
L 401.661896 253.831154 
L 402.488889 253.797266 
L 403.315882 250.209531 
L 404.142875 216.95261 
L 404.969867 210.924801 
L 405.79686 208.222085 
L 406.623853 197.523918 
L 407.450846 190.530712 
L 408.277839 188.606492 
L 409.931825 179.814774 
L 410.758818 171.589554 
L 411.58581 169.353672 
L 412.412803 197.717317 
L 413.239796 198.688954 
L 414.066789 197.004977 
L 414.893782 201.3616 
L 415.720775 203.482835 
L 416.547768 202.623596 
L 417.37476 202.265073 
L 418.201753 205.084852 
L 419.028746 209.145175 
L 419.855739 211.431602 
L 420.682732 212.272573 
L 421.509725 214.132432 
L 422.336718 217.890335 
L 423.16371 222.202738 
L 423.990703 224.859911 
L 424.817696 225.314517 
L 425.644689 225.15954 
L 426.471682 226.431746 
L 427.298675 229.872733 
L 428.125668 234.186653 
L 428.952661 236.972458 
L 429.779653 237.061358 
L 430.606646 235.783342 
L 431.433639 235.29555 
L 432.260632 236.576094 
L 433.087625 238.932699 
L 433.914618 240.886316 
L 434.741611 241.730346 
L 436.395596 242.021589 
L 437.222589 242.447821 
L 438.049582 243.53239 
L 439.703568 247.196578 
L 440.530561 248.572683 
L 441.357554 249.475474 
L 442.184546 250.556659 
L 443.011539 252.060924 
L 443.838532 253.33341 
L 444.665525 254.099506 
L 445.492518 255.082227 
L 447.146504 258.377447 
L 447.973496 258.580557 
L 448.800489 258.382035 
L 449.627482 259.189865 
L 450.454475 260.389394 
L 451.281468 260.614794 
L 452.108461 260.388556 
L 452.935454 261.027091 
L 453.762446 262.126255 
L 455.416432 263.019431 
L 457.070418 265.112193 
L 457.897411 265.682176 
L 458.724404 266.456945 
L 460.378389 268.460043 
L 462.032375 269.83999 
L 466.994332 273.431261 
L 467.821325 273.73874 
L 468.648318 274.662905 
L 469.475311 275.169406 
L 470.302304 275.418323 
L 471.129297 276.33922 
L 472.783282 277.430062 
L 473.610275 278.27888 
L 474.437268 278.554376 
L 479.399225 281.98917 
L 480.226218 282.427342 
L 481.053211 283.133443 
L 481.880204 283.415456 
L 482.707197 284.320938 
L 483.53419 284.536436 
L 484.361182 285.507445 
L 485.188175 285.730854 
L 486.015168 286.794119 
L 486.842161 286.524635 
L 487.669154 288.020629 
L 488.496147 286.323519 
L 489.32314 288.432587 
L 490.150133 284.605315 
L 490.977125 286.796276 
L 491.804118 285.420569 
L 492.631111 285.122573 
L 493.458104 287.536469 
L 494.285097 283.490851 
L 495.11209 285.758324 
L 495.939083 286.316433 
L 497.593068 285.997685 
L 498.420061 291.488076 
L 499.247054 287.984403 
L 500.074047 291.8222 
L 500.90104 292.455862 
L 501.728033 289.897435 
L 502.555025 295.66778 
L 503.382018 294.647257 
L 504.209011 293.072319 
L 505.036004 297.877837 
L 505.862997 296.061407 
L 506.68999 296.080316 
L 507.516983 299.596642 
L 508.343976 297.334726 
L 509.170968 298.875027 
L 509.997961 300.982379 
L 510.824954 299.25249 
L 511.651947 301.486719 
L 512.47894 301.746647 
L 513.305933 301.506251 
L 514.132926 303.593174 
L 514.959918 303.131116 
L 515.786911 303.798759 
L 516.613904 304.664968 
L 517.440897 305.242051 
L 518.26789 305.339614 
L 519.094883 306.744951 
L 519.921876 306.855888 
L 520.748869 307.499366 
L 521.575861 308.684892 
L 522.402854 307.326056 
L 523.229847 310.062333 
L 524.05684 307.670859 
L 524.883833 310.728609 
L 525.710826 308.173237 
L 526.537819 310.345586 
L 527.364811 308.95259 
L 528.191804 309.948913 
L 529.018797 310.211228 
L 529.84579 310.305952 
L 530.672783 312.159902 
L 531.499776 311.214136 
L 532.326769 314.340032 
L 533.153761 312.224683 
L 533.980754 316.341375 
L 534.807747 312.295107 
L 535.63474 316.448113 
L 536.461733 308.045525 
L 537.288726 311.110278 
L 538.115719 303.747189 
L 538.942712 304.420566 
L 539.769704 306.503825 
L 540.596697 298.883119 
L 541.42369 300.999636 
L 542.250683 301.42816 
L 543.077676 299.653423 
L 543.904669 298.189803 
L 544.731662 307.743245 
L 545.558654 302.974782 
L 546.385647 309.432992 
L 547.21264 311.075017 
L 548.039633 308.48717 
L 548.866626 314.127452 
L 549.693619 315.040887 
L 550.520612 314.014169 
L 551.347604 317.930789 
L 552.174597 318.563908 
L 553.00159 317.979991 
L 553.828583 321.571901 
L 554.655576 322.318959 
L 555.482569 321.630705 
L 556.309562 323.834289 
L 557.136555 325.322391 
L 557.963547 324.660719 
L 558.79054 325.494386 
L 559.617533 327.13237 
L 561.271519 327.275675 
L 562.098512 328.375054 
L 562.925505 329.225037 
L 563.752497 329.075053 
L 566.233476 331.140753 
L 567.060469 331.223463 
L 567.887462 332.214318 
L 568.714455 332.376552 
L 569.541448 333.296777 
L 570.36844 332.906976 
L 571.195433 334.235969 
L 572.022426 333.284886 
L 572.849419 334.432291 
L 573.676412 329.533193 
L 574.503405 330.020652 
L 575.330398 319.479705 
L 576.984383 322.049293 
L 577.811376 312.732626 
L 578.638369 314.771491 
L 579.465362 314.833725 
L 580.292355 309.950195 
L 581.119348 309.575232 
L 581.94634 316.609737 
L 582.773333 312.300136 
L 583.600326 323.392451 
L 584.427319 323.631457 
L 585.254312 321.553007 
L 586.081305 329.431253 
L 586.908298 329.632888 
L 587.735291 329.161948 
L 588.562283 334.184691 
L 589.389276 334.472089 
L 590.216269 334.226236 
L 591.043262 336.792109 
L 591.870255 337.276922 
L 592.697248 337.132169 
L 593.524241 338.09454 
L 594.351233 339.622677 
L 596.005219 339.494219 
L 596.832212 341.58068 
L 597.659205 341.594671 
L 598.486198 341.429744 
L 599.313191 343.374037 
L 600.140183 343.800506 
L 600.967176 343.724741 
L 602.621162 345.510265 
L 603.448155 345.403096 
L 604.275148 345.930517 
L 605.102141 346.646248 
L 605.929134 346.846379 
L 606.756126 346.663629 
L 607.583119 347.784183 
L 608.410112 347.142876 
L 609.237105 347.544661 
L 610.064098 346.9785 
L 610.891091 347.991877 
L 611.718084 346.36748 
L 612.545076 347.683678 
L 614.199062 346.987254 
L 615.026055 348.437329 
L 615.853048 347.437558 
L 616.680041 348.916868 
L 617.507034 348.17573 
L 618.334027 350.49148 
L 619.161019 349.047026 
L 619.988012 351.610694 
L 620.815005 350.759808 
L 621.641998 352.080448 
L 622.468991 351.984359 
L 623.295984 352.266423 
L 624.122977 352.959744 
L 624.949969 352.94369 
L 625.776962 353.736306 
L 626.603955 353.87379 
L 627.430948 353.802964 
L 628.257941 354.507072 
L 629.084934 352.285504 
L 629.911927 352.530381 
L 630.738919 344.045268 
L 631.565912 340.721763 
L 632.392905 327.414161 
L 633.219898 326.535265 
L 634.046891 327.055201 
L 634.873884 319.222576 
L 635.700877 315.821012 
L 636.52787 315.449009 
L 637.354862 317.973697 
L 638.181855 311.739579 
L 639.008848 321.892047 
L 639.835841 325.745048 
L 640.662834 337.453887 
L 641.489827 337.263472 
L 642.31682 338.049904 
L 643.143812 345.843686 
L 643.970805 347.896654 
L 644.797798 347.628241 
L 645.624791 348.978161 
L 646.451784 354.109037 
L 647.278777 352.077767 
L 648.10577 351.918556 
L 648.932762 354.731763 
L 649.759755 354.869859 
L 650.586748 353.975302 
L 651.413741 354.568638 
L 652.240734 357.204111 
L 653.067727 356.871034 
L 653.89472 356.744575 
L 654.721713 357.778287 
L 655.548705 359.25376 
L 656.375698 359.448351 
L 657.202691 359.20224 
L 658.856677 360.891123 
L 660.510663 360.623246 
L 661.337655 361.54063 
L 662.164648 361.610753 
L 662.991641 361.541265 
L 663.818634 362.181638 
L 664.645627 362.126937 
L 665.47262 362.378918 
L 666.299613 363.050347 
L 667.953598 363.038206 
L 668.780591 363.873558 
L 669.607584 363.751486 
L 670.434577 363.812893 
L 671.26157 364.445548 
L 672.088563 364.443639 
L 672.915556 364.269949 
L 673.742548 364.844966 
L 674.569541 364.24243 
L 675.396534 364.791024 
L 676.223527 363.997188 
L 677.05052 364.657055 
L 677.877513 364.000142 
L 678.704506 364.530096 
L 679.531498 364.210301 
L 680.358491 364.373435 
L 681.185484 364.805512 
L 682.012477 364.28594 
L 682.83947 365.496347 
L 683.666463 364.958041 
L 684.493456 365.897346 
L 685.320449 365.978345 
L 686.147441 366.18409 
L 686.974434 366.638901 
L 687.801427 366.021547 
L 688.62842 366.825959 
L 689.455413 366.634299 
L 691.109399 367.343505 
L 691.936391 367.233626 
L 692.763384 367.871578 
L 693.590377 367.545433 
L 694.41737 368.44429 
L 695.244363 368.235629 
L 696.071356 369.181964 
L 696.898349 369.153236 
L 697.725341 369.440767 
L 698.552334 370.018851 
L 699.379327 369.393384 
L 700.20632 370.584843 
L 701.033313 367.90729 
L 701.860306 366.920398 
L 703.514292 340.062931 
L 704.341284 332.761552 
L 705.168277 293.966835 
L 705.99527 290.240429 
L 706.822263 284.112002 
L 707.649256 275.319078 
L 708.476249 252.5762 
L 709.303242 239.81546 
L 710.130234 238.044434 
L 711.78422 260.294026 
L 712.611213 265.720878 
L 713.438206 298.489653 
L 714.265199 297.690128 
L 715.092192 302.15516 
L 715.919185 310.356882 
L 716.746177 331.221456 
L 717.57317 345.64171 
L 718.400163 346.658219 
L 719.227156 345.328941 
L 720.054149 344.256071 
L 720.881142 345.418366 
L 721.708135 350.440846 
L 722.535127 354.498419 
L 723.36212 355.385478 
L 724.189113 355.544407 
L 725.843099 353.977091 
L 726.670092 355.411177 
L 727.497085 359.363979 
L 728.324077 362.276353 
L 729.15107 362.801033 
L 730.805056 362.239864 
L 731.632049 362.452055 
L 732.459042 363.205695 
L 734.113028 366.559978 
L 734.94002 367.105113 
L 736.594006 366.626626 
L 737.420999 367.33245 
L 738.247992 368.663118 
L 739.074985 369.561378 
L 742.382956 370.572139 
L 743.209949 370.614749 
L 744.036942 370.927456 
L 744.863935 371.573379 
L 745.690928 371.750302 
L 746.51792 371.57025 
L 747.344913 371.675782 
L 749.825892 372.643372 
L 750.652885 372.955939 
L 752.306871 373.29758 
L 753.133863 373.571213 
L 753.960856 373.675612 
L 754.787849 373.953311 
L 755.614842 374.350823 
L 758.922813 374.713615 
L 760.576799 375.119861 
L 761.403792 375.175248 
L 763.057778 375.542174 
L 763.884771 375.661864 
L 765.538756 376.107595 
L 773.808685 377.658104 
L 778.770642 378.202409 
L 780.424628 378.484179 
L 787.867564 379.536965 
L 790.348542 379.832302 
L 791.175535 379.784206 
L 792.002528 380.008902 
L 792.829521 379.936033 
L 793.656514 380.189471 
L 794.483507 380.194635 
L 796.137492 380.481962 
L 796.964485 380.533863 
L 797.791478 380.757978 
L 798.618471 380.706707 
L 799.445464 380.985267 
L 800.272457 380.94447 
L 801.09945 381.164019 
L 802.753435 381.293791 
L 803.580428 381.436471 
L 804.407421 381.393835 
L 805.234414 381.685776 
L 806.061407 381.473932 
L 806.8884 381.846033 
L 807.715392 381.6541 
L 808.542385 381.936121 
L 809.369378 381.89567 
L 811.023364 382.115212 
L 811.850357 382.069007 
L 812.67735 382.282923 
L 813.504343 382.136952 
L 814.331335 382.472726 
L 815.158328 382.384623 
L 815.985321 382.615086 
L 819.293293 382.89114 
L 820.120285 383.124617 
L 820.947278 383.15239 
L 822.601264 383.442558 
L 823.428257 383.427354 
L 824.25525 383.683125 
L 825.082243 383.480579 
L 825.909235 383.835711 
L 826.736228 383.620077 
L 827.563221 383.952549 
L 828.390214 383.855982 
L 830.0442 384.112317 
L 830.871193 384.103522 
L 831.698186 384.273366 
L 832.525178 384.224853 
L 833.352171 384.400753 
L 835.006157 384.51789 
L 835.83315 384.62113 
L 836.660143 384.592895 
L 837.487136 384.773095 
L 838.314128 384.715634 
L 839.968114 384.957209 
L 840.795107 385.006724 
L 841.6221 385.286192 
L 842.449093 385.113341 
L 843.276086 385.49975 
L 844.103078 385.210831 
L 844.930071 385.620724 
L 845.757064 385.413558 
L 846.584057 385.658631 
L 848.238043 385.646109 
L 849.065036 385.859953 
L 849.892029 385.677643 
L 850.719021 386.041264 
L 851.546014 385.865594 
L 852.373007 386.241818 
L 852.373007 386.241818 
" clip-path="url(#pe88865bfdf)" style="fill: none; stroke-dasharray: 7.4,3.2; stroke-dashoffset: 0; stroke: #000000; stroke-width: 2"/>
   </g>
   <g id="patch_3">
    <path d="M 41.92 404.12 
L 41.92 10.8 
" style="fill: none; stroke: #000000; stroke-width: 0.8; stroke-linejoin: miter; stroke-linecap: square"/>
   </g>
   <g id="patch_4">
    <path d="M 853.2 404.12 
L 853.2 10.8 
" style="fill: none; stroke: #000000; stroke-width: 0.8; stroke-linejoin: miter; stroke-linecap: square"/>
   </g>
   <g id="patch_5">
    <path d="M 41.92 404.12 
L 853.2 404.12 
" style="fill: none; stroke: #000000; stroke-width: 0.8; stroke-linejoin: miter; stroke-linecap: square"/>
   </g>
   <g id="patch_6">
    <path d="M 41.92 10.8 
L 853.2 10.8 
" style="fill: none; stroke: #000000; stroke-width: 0.8; stroke-linejoin: miter; stroke-linecap: square"/>
   </g>
  </g>
 </g>
 <defs>
  <clipPath id="pe88865bfdf">
   <rect x="41.92" y="10.8" width="811.28" height="393.32"/>
  </clipPath>
 </defs>
</svg>
