<?xml version="1.0" encoding="utf-8" standalone="no"?>
<!DOCTYPE svg PUBLIC "-//W3C//DTD SVG 1.1//EN"
  "http://www.w3.org/Graphics/SVG/1.1/DTD/svg11.dtd">
<svg xmlns:xlink="http://www.w3.org/1999/xlink" width="864pt" height="432pt" viewBox="0 0 864 432" xmlns="http://www.w3.org/2000/svg" version="1.1">
 <metadata>
  <rdf:RDF xmlns:dc="http://purl.org/dc/elements/1.1/" xmlns:cc="http://creativecommons.org/ns#" xmlns:rdf="http://www.w3.org/1999/02/22-rdf-syntax-ns#">
   <cc:Work>
    <dc:type rdf:resource="http://purl.org/dc/dcmitype/StillImage"/>
    <dc:date>2024-09-18T13:10:24.069076</dc:date>
    <dc:format>image/svg+xml</dc:format>
    <dc:creator>
     <cc:Agent>
      <dc:title>Matplotlib v3.9.2, https://matplotlib.org/</dc:title>
     </cc:Agent>
    </dc:creator>
   </cc:Work>
  </rdf:RDF>
 </metadata>
 <defs>
  <style type="text/css">*{stroke-linejoin: round; stroke-linecap: butt}</style>
 </defs>
 <g id="figure_1">
  <g id="patch_1">
   <path d="M 0 432 
L 864 432 
L 864 0 
L 0 0 
z
" style="fill: #ffffff"/>
  </g>
  <g id="axes_1">
   <g id="patch_2">
    <path d="M 41.92 404.12 
L 853.2 404.12 
L 853.2 12.385332 
L 41.92 12.385332 
z
" style="fill: #ffffff"/>
   </g>
   <g id="matplotlib.axis_1">
    <g id="xtick_1">
     <g id="line2d_1">
      <defs>
       <path id="mef342c2e09" d="M 0 0 
L 0 3.5 
" style="stroke: #000000; stroke-width: 0.8"/>
      </defs>
      <g>
       <use xlink:href="#mef342c2e09" x="140.20733" y="404.12" style="stroke: #000000; stroke-width: 0.8"/>
      </g>
     </g>
     <g id="text_1">
      <!-- 250 -->
      <g transform="translate(131.176861 418.771563) scale(0.1 -0.1)">
       <defs>
        <path id="DejaVuSansMono-32" d="M 1166 531 
L 3309 531 
L 3309 0 
L 475 0 
L 475 531 
Q 1059 1147 1496 1619 
Q 1934 2091 2100 2284 
Q 2413 2666 2522 2902 
Q 2631 3138 2631 3384 
Q 2631 3775 2401 3997 
Q 2172 4219 1772 4219 
Q 1488 4219 1175 4116 
Q 863 4013 513 3803 
L 513 4441 
Q 834 4594 1145 4672 
Q 1456 4750 1759 4750 
Q 2444 4750 2861 4386 
Q 3278 4022 3278 3431 
Q 3278 3131 3139 2831 
Q 3000 2531 2688 2169 
Q 2513 1966 2180 1606 
Q 1847 1247 1166 531 
z
" transform="scale(0.015625)"/>
        <path id="DejaVuSansMono-35" d="M 647 4666 
L 3009 4666 
L 3009 4134 
L 1222 4134 
L 1222 2988 
Q 1356 3038 1492 3061 
Q 1628 3084 1766 3084 
Q 2491 3084 2916 2656 
Q 3341 2228 3341 1497 
Q 3341 759 2895 334 
Q 2450 -91 1678 -91 
Q 1306 -91 998 -41 
Q 691 9 447 109 
L 447 750 
Q 734 594 1025 517 
Q 1316 441 1619 441 
Q 2141 441 2423 716 
Q 2706 991 2706 1497 
Q 2706 1997 2414 2275 
Q 2122 2553 1600 2553 
Q 1347 2553 1106 2495 
Q 866 2438 647 2322 
L 647 4666 
z
" transform="scale(0.015625)"/>
        <path id="DejaVuSansMono-30" d="M 1509 2344 
Q 1509 2516 1629 2641 
Q 1750 2766 1919 2766 
Q 2094 2766 2219 2641 
Q 2344 2516 2344 2344 
Q 2344 2169 2220 2047 
Q 2097 1925 1919 1925 
Q 1744 1925 1626 2044 
Q 1509 2163 1509 2344 
z
M 1925 4250 
Q 1484 4250 1267 3775 
Q 1050 3300 1050 2328 
Q 1050 1359 1267 884 
Q 1484 409 1925 409 
Q 2369 409 2586 884 
Q 2803 1359 2803 2328 
Q 2803 3300 2586 3775 
Q 2369 4250 1925 4250 
z
M 1925 4750 
Q 2672 4750 3055 4137 
Q 3438 3525 3438 2328 
Q 3438 1134 3055 521 
Q 2672 -91 1925 -91 
Q 1178 -91 797 521 
Q 416 1134 416 2328 
Q 416 3525 797 4137 
Q 1178 4750 1925 4750 
z
" transform="scale(0.015625)"/>
       </defs>
       <use xlink:href="#DejaVuSansMono-32"/>
       <use xlink:href="#DejaVuSansMono-35" x="60.205078"/>
       <use xlink:href="#DejaVuSansMono-30" x="120.410156"/>
      </g>
     </g>
    </g>
    <g id="xtick_2">
     <g id="line2d_2">
      <g>
       <use xlink:href="#mef342c2e09" x="242.589965" y="404.12" style="stroke: #000000; stroke-width: 0.8"/>
      </g>
     </g>
     <g id="text_2">
      <!-- 500 -->
      <g transform="translate(233.559496 418.771563) scale(0.1 -0.1)">
       <use xlink:href="#DejaVuSansMono-35"/>
       <use xlink:href="#DejaVuSansMono-30" x="60.205078"/>
       <use xlink:href="#DejaVuSansMono-30" x="120.410156"/>
      </g>
     </g>
    </g>
    <g id="xtick_3">
     <g id="line2d_3">
      <g>
       <use xlink:href="#mef342c2e09" x="344.9726" y="404.12" style="stroke: #000000; stroke-width: 0.8"/>
      </g>
     </g>
     <g id="text_3">
      <!-- 750 -->
      <g transform="translate(335.942131 418.771563) scale(0.1 -0.1)">
       <defs>
        <path id="DejaVuSansMono-37" d="M 434 4666 
L 3372 4666 
L 3372 4397 
L 1703 0 
L 1044 0 
L 2669 4134 
L 434 4134 
L 434 4666 
z
" transform="scale(0.015625)"/>
       </defs>
       <use xlink:href="#DejaVuSansMono-37"/>
       <use xlink:href="#DejaVuSansMono-35" x="60.205078"/>
       <use xlink:href="#DejaVuSansMono-30" x="120.410156"/>
      </g>
     </g>
    </g>
    <g id="xtick_4">
     <g id="line2d_4">
      <g>
       <use xlink:href="#mef342c2e09" x="447.355235" y="404.12" style="stroke: #000000; stroke-width: 0.8"/>
      </g>
     </g>
     <g id="text_4">
      <!-- 1000 -->
      <g transform="translate(435.31461 418.771563) scale(0.1 -0.1)">
       <defs>
        <path id="DejaVuSansMono-31" d="M 844 531 
L 1825 531 
L 1825 4097 
L 769 3859 
L 769 4434 
L 1819 4666 
L 2450 4666 
L 2450 531 
L 3419 531 
L 3419 0 
L 844 0 
L 844 531 
z
" transform="scale(0.015625)"/>
       </defs>
       <use xlink:href="#DejaVuSansMono-31"/>
       <use xlink:href="#DejaVuSansMono-30" x="60.205078"/>
       <use xlink:href="#DejaVuSansMono-30" x="120.410156"/>
       <use xlink:href="#DejaVuSansMono-30" x="180.615234"/>
      </g>
     </g>
    </g>
    <g id="xtick_5">
     <g id="line2d_5">
      <g>
       <use xlink:href="#mef342c2e09" x="549.73787" y="404.12" style="stroke: #000000; stroke-width: 0.8"/>
      </g>
     </g>
     <g id="text_5">
      <!-- 1250 -->
      <g transform="translate(537.697245 418.771563) scale(0.1 -0.1)">
       <use xlink:href="#DejaVuSansMono-31"/>
       <use xlink:href="#DejaVuSansMono-32" x="60.205078"/>
       <use xlink:href="#DejaVuSansMono-35" x="120.410156"/>
       <use xlink:href="#DejaVuSansMono-30" x="180.615234"/>
      </g>
     </g>
    </g>
    <g id="xtick_6">
     <g id="line2d_6">
      <g>
       <use xlink:href="#mef342c2e09" x="652.120505" y="404.12" style="stroke: #000000; stroke-width: 0.8"/>
      </g>
     </g>
     <g id="text_6">
      <!-- 1500 -->
      <g transform="translate(640.07988 418.771563) scale(0.1 -0.1)">
       <use xlink:href="#DejaVuSansMono-31"/>
       <use xlink:href="#DejaVuSansMono-35" x="60.205078"/>
       <use xlink:href="#DejaVuSansMono-30" x="120.410156"/>
       <use xlink:href="#DejaVuSansMono-30" x="180.615234"/>
      </g>
     </g>
    </g>
    <g id="xtick_7">
     <g id="line2d_7">
      <g>
       <use xlink:href="#mef342c2e09" x="754.50314" y="404.12" style="stroke: #000000; stroke-width: 0.8"/>
      </g>
     </g>
     <g id="text_7">
      <!-- 1750 -->
      <g transform="translate(742.462515 418.771563) scale(0.1 -0.1)">
       <use xlink:href="#DejaVuSansMono-31"/>
       <use xlink:href="#DejaVuSansMono-37" x="60.205078"/>
       <use xlink:href="#DejaVuSansMono-35" x="120.410156"/>
       <use xlink:href="#DejaVuSansMono-30" x="180.615234"/>
      </g>
     </g>
    </g>
   </g>
   <g id="matplotlib.axis_2">
    <g id="ytick_1">
     <g id="line2d_8">
      <defs>
       <path id="maa4afd6cec" d="M 0 0 
L -3.5 0 
" style="stroke: #000000; stroke-width: 0.8"/>
      </defs>
      <g>
       <use xlink:href="#maa4afd6cec" x="41.92" y="386.313879" style="stroke: #000000; stroke-width: 0.8"/>
      </g>
     </g>
     <g id="text_8">
      <!-- 0.00 -->
      <g transform="translate(10.83875 390.13966) scale(0.1 -0.1)">
       <defs>
        <path id="DejaVuSansMono-2e" d="M 1528 953 
L 2316 953 
L 2316 0 
L 1528 0 
L 1528 953 
z
" transform="scale(0.015625)"/>
       </defs>
       <use xlink:href="#DejaVuSansMono-30"/>
       <use xlink:href="#DejaVuSansMono-2e" x="60.205078"/>
       <use xlink:href="#DejaVuSansMono-30" x="120.410156"/>
       <use xlink:href="#DejaVuSansMono-30" x="180.615234"/>
      </g>
     </g>
    </g>
    <g id="ytick_2">
     <g id="line2d_9">
      <g>
       <use xlink:href="#maa4afd6cec" x="41.92" y="339.922377" style="stroke: #000000; stroke-width: 0.8"/>
      </g>
     </g>
     <g id="text_9">
      <!-- 0.05 -->
      <g transform="translate(10.83875 343.748159) scale(0.1 -0.1)">
       <use xlink:href="#DejaVuSansMono-30"/>
       <use xlink:href="#DejaVuSansMono-2e" x="60.205078"/>
       <use xlink:href="#DejaVuSansMono-30" x="120.410156"/>
       <use xlink:href="#DejaVuSansMono-35" x="180.615234"/>
      </g>
     </g>
    </g>
    <g id="ytick_3">
     <g id="line2d_10">
      <g>
       <use xlink:href="#maa4afd6cec" x="41.92" y="293.530876" style="stroke: #000000; stroke-width: 0.8"/>
      </g>
     </g>
     <g id="text_10">
      <!-- 0.10 -->
      <g transform="translate(10.83875 297.356657) scale(0.1 -0.1)">
       <use xlink:href="#DejaVuSansMono-30"/>
       <use xlink:href="#DejaVuSansMono-2e" x="60.205078"/>
       <use xlink:href="#DejaVuSansMono-31" x="120.410156"/>
       <use xlink:href="#DejaVuSansMono-30" x="180.615234"/>
      </g>
     </g>
    </g>
    <g id="ytick_4">
     <g id="line2d_11">
      <g>
       <use xlink:href="#maa4afd6cec" x="41.92" y="247.139375" style="stroke: #000000; stroke-width: 0.8"/>
      </g>
     </g>
     <g id="text_11">
      <!-- 0.15 -->
      <g transform="translate(10.83875 250.965156) scale(0.1 -0.1)">
       <use xlink:href="#DejaVuSansMono-30"/>
       <use xlink:href="#DejaVuSansMono-2e" x="60.205078"/>
       <use xlink:href="#DejaVuSansMono-31" x="120.410156"/>
       <use xlink:href="#DejaVuSansMono-35" x="180.615234"/>
      </g>
     </g>
    </g>
    <g id="ytick_5">
     <g id="line2d_12">
      <g>
       <use xlink:href="#maa4afd6cec" x="41.92" y="200.747873" style="stroke: #000000; stroke-width: 0.8"/>
      </g>
     </g>
     <g id="text_12">
      <!-- 0.20 -->
      <g transform="translate(10.83875 204.573655) scale(0.1 -0.1)">
       <use xlink:href="#DejaVuSansMono-30"/>
       <use xlink:href="#DejaVuSansMono-2e" x="60.205078"/>
       <use xlink:href="#DejaVuSansMono-32" x="120.410156"/>
       <use xlink:href="#DejaVuSansMono-30" x="180.615234"/>
      </g>
     </g>
    </g>
    <g id="ytick_6">
     <g id="line2d_13">
      <g>
       <use xlink:href="#maa4afd6cec" x="41.92" y="154.356372" style="stroke: #000000; stroke-width: 0.8"/>
      </g>
     </g>
     <g id="text_13">
      <!-- 0.25 -->
      <g transform="translate(10.83875 158.182153) scale(0.1 -0.1)">
       <use xlink:href="#DejaVuSansMono-30"/>
       <use xlink:href="#DejaVuSansMono-2e" x="60.205078"/>
       <use xlink:href="#DejaVuSansMono-32" x="120.410156"/>
       <use xlink:href="#DejaVuSansMono-35" x="180.615234"/>
      </g>
     </g>
    </g>
    <g id="ytick_7">
     <g id="line2d_14">
      <g>
       <use xlink:href="#maa4afd6cec" x="41.92" y="107.964871" style="stroke: #000000; stroke-width: 0.8"/>
      </g>
     </g>
     <g id="text_14">
      <!-- 0.30 -->
      <g transform="translate(10.83875 111.790652) scale(0.1 -0.1)">
       <defs>
        <path id="DejaVuSansMono-33" d="M 2425 2497 
Q 2884 2375 3128 2064 
Q 3372 1753 3372 1288 
Q 3372 644 2939 276 
Q 2506 -91 1741 -91 
Q 1419 -91 1084 -31 
Q 750 28 428 141 
L 428 769 
Q 747 603 1056 522 
Q 1366 441 1672 441 
Q 2191 441 2469 675 
Q 2747 909 2747 1350 
Q 2747 1756 2469 1995 
Q 2191 2234 1716 2234 
L 1234 2234 
L 1234 2753 
L 1716 2753 
Q 2150 2753 2394 2943 
Q 2638 3134 2638 3475 
Q 2638 3834 2411 4026 
Q 2184 4219 1766 4219 
Q 1488 4219 1191 4156 
Q 894 4094 569 3969 
L 569 4550 
Q 947 4650 1242 4700 
Q 1538 4750 1766 4750 
Q 2447 4750 2855 4408 
Q 3263 4066 3263 3500 
Q 3263 3116 3048 2859 
Q 2834 2603 2425 2497 
z
" transform="scale(0.015625)"/>
       </defs>
       <use xlink:href="#DejaVuSansMono-30"/>
       <use xlink:href="#DejaVuSansMono-2e" x="60.205078"/>
       <use xlink:href="#DejaVuSansMono-33" x="120.410156"/>
       <use xlink:href="#DejaVuSansMono-30" x="180.615234"/>
      </g>
     </g>
    </g>
    <g id="ytick_8">
     <g id="line2d_15">
      <g>
       <use xlink:href="#maa4afd6cec" x="41.92" y="61.573369" style="stroke: #000000; stroke-width: 0.8"/>
      </g>
     </g>
     <g id="text_15">
      <!-- 0.35 -->
      <g transform="translate(10.83875 65.399151) scale(0.1 -0.1)">
       <use xlink:href="#DejaVuSansMono-30"/>
       <use xlink:href="#DejaVuSansMono-2e" x="60.205078"/>
       <use xlink:href="#DejaVuSansMono-33" x="120.410156"/>
       <use xlink:href="#DejaVuSansMono-35" x="180.615234"/>
      </g>
     </g>
    </g>
    <g id="ytick_9">
     <g id="line2d_16">
      <g>
       <use xlink:href="#maa4afd6cec" x="41.92" y="15.181868" style="stroke: #000000; stroke-width: 0.8"/>
      </g>
     </g>
     <g id="text_16">
      <!-- 0.40 -->
      <g transform="translate(10.83875 19.007649) scale(0.1 -0.1)">
       <defs>
        <path id="DejaVuSansMono-34" d="M 2297 4091 
L 825 1625 
L 2297 1625 
L 2297 4091 
z
M 2194 4666 
L 2925 4666 
L 2925 1625 
L 3547 1625 
L 3547 1113 
L 2925 1113 
L 2925 0 
L 2297 0 
L 2297 1113 
L 319 1113 
L 319 1709 
L 2194 4666 
z
" transform="scale(0.015625)"/>
       </defs>
       <use xlink:href="#DejaVuSansMono-30"/>
       <use xlink:href="#DejaVuSansMono-2e" x="60.205078"/>
       <use xlink:href="#DejaVuSansMono-34" x="120.410156"/>
       <use xlink:href="#DejaVuSansMono-30" x="180.615234"/>
      </g>
     </g>
    </g>
   </g>
   <g id="line2d_17">
    <path d="M 41.510469 194.808509 
L 41.92 205.137638 
L 42.329531 192.825201 
L 42.739061 194.113854 
L 43.148592 193.732675 
L 43.558122 193.84614 
L 43.967653 219.132872 
L 44.786714 224.137308 
L 45.196244 245.222413 
L 45.605775 237.646747 
L 46.015305 242.764191 
L 46.424836 255.076628 
L 46.834366 228.310376 
L 47.243897 254.084234 
L 47.653428 256.043096 
L 48.062958 244.193191 
L 48.472489 269.111217 
L 48.882019 266.355608 
L 49.29155 244.148994 
L 50.110611 265.777965 
L 50.520141 242.039811 
L 50.929672 262.294976 
L 51.339202 236.521118 
L 51.748733 261.652185 
L 52.158264 274.781856 
L 52.567794 269.89854 
L 54.205916 269.923164 
L 54.615447 293.661318 
L 55.024977 300.172405 
L 55.434508 327.262334 
L 55.844038 309.338346 
L 56.253569 309.338346 
L 56.663099 287.131732 
L 57.482161 341.299961 
L 57.891691 341.299961 
L 58.301222 315.119652 
L 58.710752 315.119652 
L 59.529813 262.710703 
L 59.939344 258.866371 
L 60.348874 258.866371 
L 60.758405 258.554587 
L 61.986996 258.554587 
L 62.396527 258.225465 
L 62.806058 258.225465 
L 63.215588 283.544485 
L 63.625119 283.516209 
L 64.034649 292.277567 
L 64.44418 270.817551 
L 64.85371 298.219265 
L 65.263241 289.078083 
L 65.672771 262.653802 
L 66.082302 252.34458 
L 66.491832 278.85401 
L 67.720424 278.882287 
L 68.129955 288.00305 
L 68.539485 285.635522 
L 68.949016 285.635522 
L 69.358546 294.776705 
L 69.768077 321.200985 
L 70.177607 309.26251 
L 70.996668 309.26251 
L 71.406199 300.379032 
L 71.815729 300.322418 
L 72.22526 302.963208 
L 72.634791 326.790751 
L 73.044321 322.151601 
L 73.863382 322.151601 
L 74.272913 318.1881 
L 75.091974 269.675103 
L 75.501504 278.558582 
L 75.911035 305.705125 
L 76.320565 288.079415 
L 76.730096 288.079415 
L 77.139626 292.718565 
L 77.958688 292.718565 
L 78.368218 290.807247 
L 78.777749 295.207882 
L 79.187279 316.63095 
L 80.00634 316.63095 
L 80.415871 327.389894 
L 80.825401 327.389894 
L 81.234932 324.979946 
L 81.644462 324.979946 
L 82.053993 297.890017 
L 82.873054 348.701827 
L 83.282585 339.469688 
L 84.101646 339.469688 
L 84.511176 347.581862 
L 84.920707 346.265792 
L 85.330237 348.67574 
L 85.739768 348.67574 
L 86.149298 363.131388 
L 86.968359 363.131388 
L 87.37789 372.363527 
L 88.196951 372.363527 
L 88.606482 345.273598 
L 89.016012 346.589669 
L 89.835073 346.589669 
L 90.244604 359.223949 
L 91.473195 359.223949 
L 91.882726 332.13402 
L 92.292256 332.13402 
L 92.701787 359.223949 
L 93.520848 359.223949 
L 93.930379 332.13402 
L 95.15897 332.13402 
L 95.568501 311.467736 
L 95.978031 338.557666 
L 96.387562 338.557666 
L 96.797092 311.467736 
L 97.616153 311.467736 
L 98.025684 335.224145 
L 99.254276 335.224145 
L 99.663806 355.890429 
L 100.482867 355.890429 
L 100.892398 382.980358 
L 101.711459 382.980358 
L 102.120989 386.313879 
L 102.94005 386.313879 
L 103.349581 359.223949 
L 104.578173 359.223949 
L 104.987703 332.105744 
L 106.625825 332.105744 
L 107.035356 305.015814 
L 107.444886 305.015814 
L 107.854417 297.283898 
L 108.673478 297.283898 
L 109.083009 324.402104 
L 109.90207 324.402104 
L 110.3116 297.312174 
L 110.721131 297.312174 
L 111.130661 324.402104 
L 111.540192 324.402104 
L 111.949722 332.13402 
L 112.359253 332.13402 
L 112.768783 328.346959 
L 113.178314 328.346959 
L 113.997375 274.354865 
L 114.406906 301.444794 
L 115.225967 247.762247 
L 115.635497 263.526552 
L 116.454558 263.526552 
L 116.864089 267.313614 
L 117.273619 264.839401 
L 117.68315 264.839401 
L 118.09268 269.192706 
L 118.502211 269.192706 
L 119.321272 322.875253 
L 119.730803 334.200877 
L 120.140333 334.200877 
L 120.549864 323.891654 
L 120.959394 323.891654 
L 121.368925 326.365868 
L 122.187986 376.004656 
L 124.235639 376.004656 
L 124.645169 386.313879 
L 126.283291 386.313879 
L 126.692822 359.223949 
L 127.102352 359.223949 
L 127.511883 332.43449 
L 127.921413 332.43449 
L 128.740475 280.758529 
L 129.150005 280.758529 
L 129.559536 253.668599 
L 129.969066 253.668599 
L 130.378597 226.57867 
L 130.788127 253.668599 
L 131.197658 226.57867 
L 131.607188 253.36813 
L 132.016719 239.265114 
L 132.83578 290.941075 
L 133.24531 290.941075 
L 133.654841 318.031004 
L 134.064372 318.031004 
L 134.473902 321.615906 
L 134.883433 294.525977 
L 135.292963 321.615906 
L 135.702494 321.615906 
L 136.112024 308.628993 
L 136.931085 308.628993 
L 137.340616 281.539064 
L 138.159677 281.539064 
L 138.978738 332.13402 
L 139.388269 307.336159 
L 139.797799 307.336159 
L 140.20733 334.426088 
L 141.026391 334.426088 
L 141.435921 361.516017 
L 142.254982 313.417352 
L 143.074043 313.417352 
L 143.483574 338.215213 
L 143.893104 338.215213 
L 144.302635 311.173917 
L 144.712166 300.005593 
L 145.531227 300.005593 
L 146.350288 348.104259 
L 146.759818 348.104259 
L 147.169349 328.160247 
L 147.98841 328.160247 
L 148.39794 355.201543 
L 148.807471 366.369867 
L 149.217002 366.369867 
L 149.626532 342.926979 
L 150.445593 342.926979 
L 150.855124 315.837049 
L 151.264654 335.781061 
L 152.493246 335.781061 
L 152.902776 308.691132 
L 153.312307 308.691132 
L 153.721837 332.13402 
L 154.540899 332.13402 
L 154.950429 359.223949 
L 155.35996 345.448306 
L 156.179021 345.448306 
L 156.588551 320.11186 
L 156.998082 347.20179 
L 159.045734 347.20179 
L 159.455265 360.977433 
L 160.274326 360.977433 
L 160.683857 386.313879 
L 161.093387 386.313879 
L 161.502918 385.034113 
L 161.912448 357.944184 
L 165.188693 357.944184 
L 165.598223 359.223949 
L 166.007754 386.313879 
L 168.464937 386.313879 
L 168.874467 359.084085 
L 170.92212 359.084085 
L 171.331651 357.838676 
L 172.560242 357.838676 
L 172.969773 385.068469 
L 174.198364 385.068469 
L 174.607895 368.962742 
L 175.017426 368.962742 
L 175.426956 370.208151 
L 176.246017 370.208151 
L 176.655548 348.228488 
L 177.474609 348.228488 
L 177.884139 343.560161 
L 178.29367 316.470232 
L 178.7032 332.575959 
L 180.341323 332.575959 
L 180.750853 327.254867 
L 181.569914 327.254867 
L 181.979445 331.923194 
L 182.388975 359.013123 
L 184.436628 359.013123 
L 184.846159 359.223949 
L 186.893811 359.223949 
L 187.303342 332.13402 
L 188.531933 332.13402 
L 188.941464 359.223949 
L 189.760525 359.223949 
L 190.170056 346.589669 
L 190.989117 346.589669 
L 191.398647 373.679598 
L 193.85583 373.679598 
L 194.265361 386.313879 
L 203.275033 386.313879 
L 203.684563 362.278662 
L 204.913155 362.278662 
L 205.322686 354.139802 
L 207.370338 354.139802 
L 207.779869 378.175019 
L 209.00846 378.175019 
L 209.417991 386.313879 
L 215.151418 386.313879 
L 215.560949 359.223949 
L 219.246724 359.223949 
L 219.656254 386.313879 
L 220.475315 332.105744 
L 223.342029 332.105744 
L 223.75156 305.015814 
L 224.570621 359.223949 
L 226.618274 359.223949 
L 227.027804 333.619536 
L 227.437335 333.619536 
L 227.846865 360.709465 
L 229.075457 360.709465 
L 229.484987 333.619536 
L 230.713579 333.619536 
L 231.12311 359.223949 
L 233.170762 359.223949 
L 233.580293 386.313879 
L 233.989823 386.313879 
L 234.399354 378.020426 
L 234.808884 378.020426 
L 235.218415 350.930497 
L 238.085129 350.930497 
L 238.494659 359.223949 
L 238.90419 359.223949 
L 239.31372 386.313879 
L 240.132781 386.313879 
L 240.542312 359.223949 
L 242.180434 359.223949 
L 242.589965 332.46792 
L 244.228087 332.46792 
L 244.637617 359.557849 
L 245.047148 353.758912 
L 246.27574 353.758912 
L 246.68527 354.083366 
L 248.732923 354.083366 
L 249.142453 359.882304 
L 249.551984 359.882304 
L 249.961514 332.792374 
L 250.371045 332.792374 
L 250.780575 359.223949 
L 253.647289 359.223949 
L 254.05682 386.313879 
L 306.886259 386.313879 
L 307.29579 359.602086 
L 310.981565 359.602086 
L 311.391095 386.313879 
L 678.330459 386.313879 
L 678.73999 362.800377 
L 682.425765 362.800377 
L 682.835295 373.22416 
L 686.52107 373.22416 
L 686.930601 386.313879 
L 688.568723 386.313879 
L 688.978253 385.068469 
L 692.664028 385.068469 
L 693.073559 386.313879 
L 696.759334 386.313879 
L 697.168864 385.016214 
L 700.854639 385.016214 
L 701.26417 386.313879 
L 715.188208 386.313879 
L 715.597739 382.474582 
L 719.283513 382.474582 
L 719.693044 386.313879 
L 724.19788 386.313879 
L 724.60741 376.192097 
L 725.016941 376.192097 
L 725.426471 344.186219 
L 726.245533 344.186219 
L 726.655063 322.446268 
L 727.474124 322.446268 
L 727.883655 318.659207 
L 728.293185 318.659207 
L 728.702716 328.780989 
L 729.112246 328.780989 
L 729.521777 360.786866 
L 730.340838 360.786866 
L 730.750369 382.526817 
L 731.159899 350.556643 
L 731.56943 350.556643 
L 731.97896 347.160504 
L 733.207552 347.160504 
L 733.617082 314.985753 
L 734.845674 314.985753 
L 735.255204 345.649124 
L 735.664735 313.093684 
L 736.074266 320.276885 
L 736.893327 320.276885 
L 737.302857 288.684107 
L 737.712388 320.858858 
L 738.940979 320.858858 
L 739.35051 322.165661 
L 739.76004 354.721101 
L 740.169571 322.801582 
L 740.579101 322.801582 
L 740.988632 302.631363 
L 741.398163 334.224141 
L 743.036285 334.224141 
L 743.445815 319.463208 
L 743.855346 319.463208 
L 744.264876 351.382727 
L 744.674407 346.298727 
L 745.083937 333.813476 
L 747.13159 333.813476 
L 747.541121 348.57441 
L 748.360182 348.57441 
L 748.769712 353.65841 
L 749.179243 386.313879 
L 750.817365 386.313879 
L 751.226896 381.264463 
L 751.636426 381.264463 
L 752.455487 316.468924 
L 752.865018 313.944217 
L 753.274548 313.944217 
L 753.684079 312.637414 
L 754.91267 312.637414 
L 755.322201 317.686829 
L 755.731731 317.686829 
L 756.550793 382.482368 
L 756.960323 361.707309 
L 757.369854 361.707309 
L 757.779384 363.014111 
L 758.188915 363.014111 
L 758.598445 356.989241 
L 760.646098 356.989241 
L 761.055628 380.289008 
L 761.465159 380.289008 
L 761.87469 347.669987 
L 762.28422 347.669987 
L 762.693751 353.694857 
L 763.103281 352.397193 
L 763.512812 345.305498 
L 764.331873 345.305498 
L 765.150934 277.907943 
L 765.560464 258.166879 
L 765.969995 290.785901 
L 766.789056 290.785901 
L 767.198587 260.384191 
L 767.608117 264.86228 
L 768.017648 236.25078 
L 768.427178 220.524848 
L 768.836709 223.389073 
L 769.246239 256.162069 
L 769.65577 275.903132 
L 770.0653 246.908444 
L 770.474831 243.197124 
L 770.884361 217.892668 
L 771.293892 218.308884 
L 771.703423 219.606418 
L 772.112953 248.217918 
L 772.522484 231.02085 
L 772.932014 262.781185 
L 773.341545 262.781185 
L 773.751075 232.667402 
L 774.160606 261.66209 
L 774.570136 230.849502 
L 774.979667 225.842382 
L 775.389197 254.548235 
L 775.798728 247.318503 
L 776.208258 229.830606 
L 776.617789 251.507181 
L 777.02732 239.378683 
L 777.43685 206.381284 
L 777.846381 236.495067 
L 778.255911 235.197402 
L 778.665442 244.922166 
L 779.074972 242.407987 
L 779.484503 244.985293 
L 779.894033 227.692791 
L 780.303564 234.543145 
L 780.713094 244.518571 
L 781.122625 243.727917 
L 781.532155 260.999384 
L 781.941686 260.999384 
L 782.351217 226.951142 
L 782.760747 219.633092 
L 783.170278 252.458847 
L 783.579808 215.345646 
L 783.989339 236.09995 
L 784.398869 246.737493 
L 784.8084 217.873841 
L 785.21793 229.476923 
L 786.036991 223.512807 
L 786.446522 238.97664 
L 786.856052 239.282521 
L 787.265583 213.48635 
L 787.675114 223.730264 
L 788.494175 157.822491 
L 788.903705 175.085511 
L 789.313236 141.319454 
L 789.722766 123.989786 
L 790.132297 119.457622 
L 790.541827 102.226494 
L 790.951358 105.359424 
L 791.360888 113.575658 
L 791.770419 106.768152 
L 792.17995 111.54261 
L 792.58948 109.244669 
L 792.999011 122.1163 
L 793.408541 127.293162 
L 793.818072 153.24961 
L 794.227602 148.334092 
L 794.637133 185.447294 
L 795.046663 181.582384 
L 795.456194 199.162322 
L 795.865724 196.239593 
L 796.275255 213.905402 
L 796.684785 218.278986 
L 797.094316 183.673434 
L 797.503847 213.5787 
L 797.913377 224.082436 
L 798.322908 209.941712 
L 798.732438 182.481272 
L 799.141969 195.142491 
L 799.551499 177.713639 
L 799.96103 178.200018 
L 800.37056 194.336194 
L 800.780091 192.146381 
L 801.189621 206.641329 
L 802.008682 144.390925 
L 802.418213 136.064439 
L 802.827744 141.538384 
L 803.237274 128.626463 
L 803.646805 121.531175 
L 804.056335 149.098517 
L 804.465866 110.817416 
L 804.875396 108.838153 
L 805.284927 110.696362 
L 805.694457 104.176082 
L 806.103988 103.264241 
L 806.513518 110.676956 
L 807.74211 165.736647 
L 808.151641 142.667501 
L 808.561171 160.964569 
L 808.970702 167.478458 
L 809.380232 167.276774 
L 809.789763 191.531623 
L 810.199293 207.991283 
L 810.608824 196.366085 
L 811.018354 166.58776 
L 811.427885 158.356959 
L 811.837415 128.60376 
L 812.246946 134.714377 
L 812.656477 129.734374 
L 813.066007 142.51892 
L 813.475538 130.748234 
L 813.885068 107.29734 
L 814.294599 91.397543 
L 814.704129 91.084135 
L 815.11366 89.617733 
L 815.52319 84.24139 
L 815.932721 76.881388 
L 816.342251 63.517163 
L 816.751782 54.297987 
L 817.161312 39.168628 
L 817.570843 39.798814 
L 818.389904 30.830288 
L 818.799435 37.592441 
L 819.208965 65.250069 
L 819.618496 66.041316 
L 820.028026 69.638192 
L 820.437557 76.167444 
L 820.847087 76.148295 
L 821.256618 71.142076 
L 821.666148 63.04356 
L 822.075679 64.392068 
L 822.485209 75.60394 
L 822.89474 69.29142 
L 823.304271 59.227414 
L 823.713801 65.136892 
L 824.123332 79.998433 
L 824.532862 73.845717 
L 824.942393 88.568772 
L 825.761454 93.503714 
L 826.170984 94.036099 
L 826.580515 83.679057 
L 826.990045 85.503132 
L 827.399576 71.233578 
L 827.809107 62.167412 
L 828.218637 43.057888 
L 828.628168 42.207295 
L 829.037698 30.191453 
L 829.447229 34.274428 
L 829.856759 46.397407 
L 830.26629 49.442187 
L 830.67582 69.033788 
L 831.085351 68.647193 
L 831.904412 91.229434 
L 832.723473 108.583249 
L 833.542534 96.984497 
L 833.952065 82.545687 
L 834.361595 87.844791 
L 834.771126 77.624445 
L 835.180656 77.624445 
L 835.590187 76.479607 
L 835.999717 79.582349 
L 836.409248 80.280748 
L 836.818778 71.94227 
L 837.228309 71.442807 
L 837.637839 74.080612 
L 838.04737 73.125735 
L 838.456901 79.180689 
L 838.866431 72.423967 
L 839.275962 70.598729 
L 840.095023 40.045053 
L 840.504553 41.194988 
L 840.914084 45.798839 
L 841.323614 47.856458 
L 841.733145 40.965928 
L 842.552206 45.71365 
L 842.961736 44.472751 
L 843.780798 50.185795 
L 844.190328 51.940221 
L 844.599859 39.116796 
L 845.009389 39.365322 
L 845.41892 53.264413 
L 845.82845 55.139815 
L 846.237981 58.9905 
L 846.647511 40.854901 
L 847.057042 58.748802 
L 847.466572 62.772386 
L 847.876103 62.541469 
L 848.285634 65.092111 
L 848.695164 70.486267 
L 849.104695 64.83584 
L 849.514225 57.135612 
L 849.923756 60.788499 
L 850.333286 56.380052 
L 850.742817 58.183065 
L 851.152347 42.113233 
L 851.561878 35.81275 
L 851.971408 44.860845 
L 852.380939 38.111636 
L 852.790469 45.637219 
L 852.790469 45.637219 
" clip-path="url(#pa0f2a2c541)" style="fill: none; stroke-dasharray: 7.4,3.2; stroke-dashoffset: 0; stroke: #000000; stroke-width: 2"/>
   </g>
   <g id="patch_3">
    <path d="M 41.92 404.12 
L 41.92 12.385332 
" style="fill: none; stroke: #000000; stroke-width: 0.8; stroke-linejoin: miter; stroke-linecap: square"/>
   </g>
   <g id="patch_4">
    <path d="M 853.2 404.12 
L 853.2 12.385332 
" style="fill: none; stroke: #000000; stroke-width: 0.8; stroke-linejoin: miter; stroke-linecap: square"/>
   </g>
   <g id="patch_5">
    <path d="M 41.92 404.12 
L 853.2 404.12 
" style="fill: none; stroke: #000000; stroke-width: 0.8; stroke-linejoin: miter; stroke-linecap: square"/>
   </g>
   <g id="patch_6">
    <path d="M 41.92 12.385332 
L 853.2 12.385332 
" style="fill: none; stroke: #000000; stroke-width: 0.8; stroke-linejoin: miter; stroke-linecap: square"/>
   </g>
  </g>
 </g>
 <defs>
  <clipPath id="pa0f2a2c541">
   <rect x="41.92" y="12.385332" width="811.28" height="391.734668"/>
  </clipPath>
 </defs>
</svg>
