<?xml version="1.0" encoding="utf-8" standalone="no"?>
<!DOCTYPE svg PUBLIC "-//W3C//DTD SVG 1.1//EN"
  "http://www.w3.org/Graphics/SVG/1.1/DTD/svg11.dtd">
<svg xmlns:xlink="http://www.w3.org/1999/xlink" width="864pt" height="360pt" viewBox="0 0 864 360" xmlns="http://www.w3.org/2000/svg" version="1.1">
 <metadata>
  <rdf:RDF xmlns:dc="http://purl.org/dc/elements/1.1/" xmlns:cc="http://creativecommons.org/ns#" xmlns:rdf="http://www.w3.org/1999/02/22-rdf-syntax-ns#">
   <cc:Work>
    <dc:type rdf:resource="http://purl.org/dc/dcmitype/StillImage"/>
    <dc:date>2024-09-16T23:35:15.140532</dc:date>
    <dc:format>image/svg+xml</dc:format>
    <dc:creator>
     <cc:Agent>
      <dc:title>Matplotlib v3.9.2, https://matplotlib.org/</dc:title>
     </cc:Agent>
    </dc:creator>
   </cc:Work>
  </rdf:RDF>
 </metadata>
 <defs>
  <style type="text/css">*{stroke-linejoin: round; stroke-linecap: butt}</style>
 </defs>
 <g id="figure_1">
  <g id="patch_1">
   <path d="M 0 360 
L 864 360 
L 864 0 
L 0 0 
z
" style="fill: #ffffff"/>
  </g>
  <g id="axes_1">
   <g id="patch_2">
    <path d="M 36.36 328.931379 
L 853.2 328.931379 
L 853.2 19.095517 
L 36.36 19.095517 
z
" style="fill: #ffffff"/>
   </g>
   <g id="patch_3">
    <path d="M 53.582901 311.708479 
L 75.470892 311.708479 
L 75.470892 289.820487 
L 53.582901 289.820487 
z
" clip-path="url(#p5cf975d5fa)" style="stroke: #000000; stroke-linejoin: miter"/>
   </g>
   <g id="patch_4">
    <path d="M 84.039228 309.419048 
L 101.348358 309.419048 
L 101.348358 292.109918 
L 84.039228 292.109918 
z
" clip-path="url(#p5cf975d5fa)" style="stroke: #000000; stroke-linejoin: miter"/>
   </g>
   <g id="patch_5">
    <path d="M 114.151316 307.473856 
L 127.570063 307.473856 
L 127.570063 294.055109 
L 114.151316 294.055109 
z
" clip-path="url(#p5cf975d5fa)" style="stroke: #000000; stroke-linejoin: miter"/>
   </g>
   <g id="patch_6">
    <path d="M 144.204179 305.58789 
L 153.850994 305.58789 
L 153.850994 295.941075 
L 144.204179 295.941075 
z
" clip-path="url(#p5cf975d5fa)" style="stroke: #000000; stroke-linejoin: miter"/>
   </g>
   <g id="patch_7">
    <path d="M 173.497654 304.461312 
L 180.891312 304.461312 
L 180.891312 297.067654 
L 173.497654 297.067654 
z
" clip-path="url(#p5cf975d5fa)" style="stroke: #000000; stroke-linejoin: miter"/>
   </g>
   <g id="patch_8">
    <path d="M 201.773645 304.352217 
L 208.949114 304.352217 
L 208.949114 297.176748 
L 201.773645 297.176748 
z
" clip-path="url(#p5cf975d5fa)" style="stroke: #000000; stroke-linejoin: miter"/>
   </g>
   <g id="patch_9">
    <path d="M 232.487766 301.804993 
L 234.568786 301.804993 
L 234.568786 299.723973 
L 232.487766 299.723973 
z
" clip-path="url(#p5cf975d5fa)" style="stroke: #000000; stroke-linejoin: miter"/>
   </g>
   <g id="patch_10">
    <path d="M 257.4046 305.055055 
L 265.985745 305.055055 
L 265.985745 296.47391 
L 257.4046 296.47391 
z
" clip-path="url(#p5cf975d5fa)" style="stroke: #000000; stroke-linejoin: miter"/>
   </g>
   <g id="patch_11">
    <path d="M 286.003928 304.622623 
L 293.720209 304.622623 
L 293.720209 296.906342 
L 286.003928 296.906342 
z
" clip-path="url(#p5cf975d5fa)" style="stroke: #000000; stroke-linejoin: miter"/>
   </g>
   <g id="patch_12">
    <path d="M 314.820489 303.972959 
L 321.237442 303.972959 
L 321.237442 297.556007 
L 314.820489 297.556007 
z
" clip-path="url(#p5cf975d5fa)" style="stroke: #000000; stroke-linejoin: miter"/>
   </g>
   <g id="patch_13">
    <path d="M 342.453609 304.506736 
L 349.938115 304.506736 
L 349.938115 297.02223 
L 342.453609 297.02223 
z
" clip-path="url(#p5cf975d5fa)" style="stroke: #000000; stroke-linejoin: miter"/>
   </g>
   <g id="patch_14">
    <path d="M 370.134108 304.993133 
L 378.591409 304.993133 
L 378.591409 296.535832 
L 370.134108 296.535832 
z
" clip-path="url(#p5cf975d5fa)" style="stroke: #000000; stroke-linejoin: miter"/>
   </g>
   <g id="patch_15">
    <path d="M 398.722251 304.571887 
L 406.337059 304.571887 
L 406.337059 296.957079 
L 398.722251 296.957079 
z
" clip-path="url(#p5cf975d5fa)" style="stroke: #000000; stroke-linejoin: miter"/>
   </g>
   <g id="patch_16">
    <path d="M 426.292804 305.16823 
L 435.100299 305.16823 
L 435.100299 296.360735 
L 426.292804 296.360735 
z
" clip-path="url(#p5cf975d5fa)" style="stroke: #000000; stroke-linejoin: miter"/>
   </g>
   <g id="patch_17">
    <path d="M 455.16594 304.461991 
L 462.560957 304.461991 
L 462.560957 297.066974 
L 455.16594 297.066974 
z
" clip-path="url(#p5cf975d5fa)" style="stroke: #000000; stroke-linejoin: miter"/>
   </g>
   <g id="patch_18">
    <path d="M 483.325772 304.469056 
L 490.734918 304.469056 
L 490.734918 297.05991 
L 483.325772 297.05991 
z
" clip-path="url(#p5cf975d5fa)" style="stroke: #000000; stroke-linejoin: miter"/>
   </g>
   <g id="patch_19">
    <path d="M 512.002267 303.959457 
L 518.392216 303.959457 
L 518.392216 297.569509 
L 512.002267 297.569509 
z
" clip-path="url(#p5cf975d5fa)" style="stroke: #000000; stroke-linejoin: miter"/>
   </g>
   <g id="patch_20">
    <path d="M 540.839558 303.289063 
L 545.888718 303.289063 
L 545.888718 298.239902 
L 540.839558 298.239902 
z
" clip-path="url(#p5cf975d5fa)" style="stroke: #000000; stroke-linejoin: miter"/>
   </g>
   <g id="patch_21">
    <path d="M 569.650597 302.644921 
L 573.411472 302.644921 
L 573.411472 298.884045 
L 569.650597 298.884045 
z
" clip-path="url(#p5cf975d5fa)" style="stroke: #000000; stroke-linejoin: miter"/>
   </g>
   <g id="patch_22">
    <path d="M 598.165277 302.297137 
L 601.230585 302.297137 
L 601.230585 299.231828 
L 598.165277 299.231828 
z
" clip-path="url(#p5cf975d5fa)" style="stroke: #000000; stroke-linejoin: miter"/>
   </g>
   <g id="patch_23">
    <path d="M 625.328072 303.301239 
L 630.401583 303.301239 
L 630.401583 298.227727 
L 625.328072 298.227727 
z
" clip-path="url(#p5cf975d5fa)" style="stroke: #000000; stroke-linejoin: miter"/>
   </g>
   <g id="patch_24">
    <path d="M 654.092759 302.703448 
L 657.970689 302.703448 
L 657.970689 298.825518 
L 654.092759 298.825518 
z
" clip-path="url(#p5cf975d5fa)" style="stroke: #000000; stroke-linejoin: miter"/>
   </g>
   <g id="patch_25">
    <path d="M 680.972646 303.990457 
L 687.424595 303.990457 
L 687.424595 297.538508 
L 680.972646 297.538508 
z
" clip-path="url(#p5cf975d5fa)" style="stroke: #000000; stroke-linejoin: miter"/>
   </g>
   <g id="patch_26">
    <path d="M 711.849603 301.280397 
L 712.881432 301.280397 
L 712.881432 300.248568 
L 711.849603 300.248568 
z
" clip-path="url(#p5cf975d5fa)" style="stroke: #000000; stroke-linejoin: miter"/>
   </g>
   <g id="patch_27">
    <path d="M 737.926522 303.370374 
L 743.138305 303.370374 
L 743.138305 298.158591 
L 737.926522 298.158591 
z
" clip-path="url(#p5cf975d5fa)" style="stroke: #000000; stroke-linejoin: miter"/>
   </g>
   <g id="patch_28">
    <path d="M 767.5589 301.904893 
L 769.839721 301.904893 
L 769.839721 299.624072 
L 767.5589 299.624072 
z
" clip-path="url(#p5cf975d5fa)" style="stroke: #000000; stroke-linejoin: miter"/>
   </g>
   <g id="patch_29">
    <path d="M 793.619506 304.011183 
L 800.112907 304.011183 
L 800.112907 297.517782 
L 793.619506 297.517782 
z
" clip-path="url(#p5cf975d5fa)" style="stroke: #000000; stroke-linejoin: miter"/>
   </g>
   <g id="patch_30">
    <path d="M 53.742014 283.382469 
L 75.311779 283.382469 
L 75.311779 261.812704 
L 53.742014 261.812704 
z
" clip-path="url(#p5cf975d5fa)" style="stroke: #000000; stroke-linejoin: miter"/>
   </g>
   <g id="patch_31">
    <path d="M 83.958122 281.333257 
L 101.429464 281.333257 
L 101.429464 263.861916 
L 83.958122 263.861916 
z
" clip-path="url(#p5cf975d5fa)" style="stroke: #000000; stroke-linejoin: miter"/>
   </g>
   <g id="patch_32">
    <path d="M 113.704793 279.753483 
L 128.016586 279.753483 
L 128.016586 265.44169 
L 113.704793 265.44169 
z
" clip-path="url(#p5cf975d5fa)" style="stroke: #000000; stroke-linejoin: miter"/>
   </g>
   <g id="patch_33">
    <path d="M 144.242221 277.382952 
L 153.812952 277.382952 
L 153.812952 267.812221 
L 144.242221 267.812221 
z
" clip-path="url(#p5cf975d5fa)" style="stroke: #000000; stroke-linejoin: miter"/>
   </g>
   <g id="patch_34">
    <path d="M 173.588271 276.203798 
L 180.800694 276.203798 
L 180.800694 268.991375 
L 173.588271 268.991375 
z
" clip-path="url(#p5cf975d5fa)" style="stroke: #000000; stroke-linejoin: miter"/>
   </g>
   <g id="patch_35">
    <path d="M 199.464695 278.494271 
L 211.258064 278.494271 
L 211.258064 266.700902 
L 199.464695 266.700902 
z
" clip-path="url(#p5cf975d5fa)" style="stroke: #000000; stroke-linejoin: miter"/>
   </g>
   <g id="patch_36">
    <path d="M 229.049134 277.076728 
L 238.007418 277.076728 
L 238.007418 268.118444 
L 229.049134 268.118444 
z
" clip-path="url(#p5cf975d5fa)" style="stroke: #000000; stroke-linejoin: miter"/>
   </g>
   <g id="patch_37">
    <path d="M 258.520269 275.77249 
L 264.870076 275.77249 
L 264.870076 269.422683 
L 258.520269 269.422683 
z
" clip-path="url(#p5cf975d5fa)" style="stroke: #000000; stroke-linejoin: miter"/>
   </g>
   <g id="patch_38">
    <path d="M 284.873321 277.586335 
L 294.850817 277.586335 
L 294.850817 267.608838 
L 284.873321 267.608838 
z
" clip-path="url(#p5cf975d5fa)" style="stroke: #000000; stroke-linejoin: miter"/>
   </g>
   <g id="patch_39">
    <path d="M 313.379733 277.246819 
L 322.678198 277.246819 
L 322.678198 267.948353 
L 313.379733 267.948353 
z
" clip-path="url(#p5cf975d5fa)" style="stroke: #000000; stroke-linejoin: miter"/>
   </g>
   <g id="patch_40">
    <path d="M 342.08675 276.706699 
L 350.304975 276.706699 
L 350.304975 268.488474 
L 342.08675 268.488474 
z
" clip-path="url(#p5cf975d5fa)" style="stroke: #000000; stroke-linejoin: miter"/>
   </g>
   <g id="patch_41">
    <path d="M 369.508255 277.45209 
L 379.217262 277.45209 
L 379.217262 267.743082 
L 369.508255 267.743082 
z
" clip-path="url(#p5cf975d5fa)" style="stroke: #000000; stroke-linejoin: miter"/>
   </g>
   <g id="patch_42">
    <path d="M 398.628492 276.498749 
L 406.430818 276.498749 
L 406.430818 268.696423 
L 398.628492 268.696423 
z
" clip-path="url(#p5cf975d5fa)" style="stroke: #000000; stroke-linejoin: miter"/>
   </g>
   <g id="patch_43">
    <path d="M 428.931669 274.362468 
L 432.461434 274.362468 
L 432.461434 270.832704 
L 428.931669 270.832704 
z
" clip-path="url(#p5cf975d5fa)" style="stroke: #000000; stroke-linejoin: miter"/>
   </g>
   <g id="patch_44">
    <path d="M 455.664475 275.796559 
L 462.062421 275.796559 
L 462.062421 269.398613 
L 455.664475 269.398613 
z
" clip-path="url(#p5cf975d5fa)" style="stroke: #000000; stroke-linejoin: miter"/>
   </g>
   <g id="patch_45">
    <path d="M 482.211985 277.415946 
L 491.848705 277.415946 
L 491.848705 267.779226 
L 482.211985 267.779226 
z
" clip-path="url(#p5cf975d5fa)" style="stroke: #000000; stroke-linejoin: miter"/>
   </g>
   <g id="patch_46">
    <path d="M 511.704568 276.09026 
L 518.689915 276.09026 
L 518.689915 269.104912 
L 511.704568 269.104912 
z
" clip-path="url(#p5cf975d5fa)" style="stroke: #000000; stroke-linejoin: miter"/>
   </g>
   <g id="patch_47">
    <path d="M 541.948294 274.01343 
L 544.779982 274.01343 
L 544.779982 271.181742 
L 541.948294 271.181742 
z
" clip-path="url(#p5cf975d5fa)" style="stroke: #000000; stroke-linejoin: miter"/>
   </g>
   <g id="patch_48">
    <path d="M 567.372466 276.756155 
L 575.689603 276.756155 
L 575.689603 268.439018 
L 567.372466 268.439018 
z
" clip-path="url(#p5cf975d5fa)" style="stroke: #000000; stroke-linejoin: miter"/>
   </g>
   <g id="patch_49">
    <path d="M 595.499498 276.79602 
L 603.896364 276.79602 
L 603.896364 268.399153 
L 595.499498 268.399153 
z
" clip-path="url(#p5cf975d5fa)" style="stroke: #000000; stroke-linejoin: miter"/>
   </g>
   <g id="patch_50">
    <path d="M 624.457291 276.005122 
L 631.272364 276.005122 
L 631.272364 269.19005 
L 624.457291 269.19005 
z
" clip-path="url(#p5cf975d5fa)" style="stroke: #000000; stroke-linejoin: miter"/>
   </g>
   <g id="patch_51">
    <path d="M 653.625079 275.004232 
L 658.43837 275.004232 
L 658.43837 270.190941 
L 653.625079 270.190941 
z
" clip-path="url(#p5cf975d5fa)" style="stroke: #000000; stroke-linejoin: miter"/>
   </g>
   <g id="patch_52">
    <path d="M 680.434944 276.361262 
L 687.962297 276.361262 
L 687.962297 268.83391 
L 680.434944 268.83391 
z
" clip-path="url(#p5cf975d5fa)" style="stroke: #000000; stroke-linejoin: miter"/>
   </g>
   <g id="patch_53">
    <path d="M 706.598211 278.364893 
L 718.132824 278.364893 
L 718.132824 266.83028 
L 706.598211 266.83028 
z
" clip-path="url(#p5cf975d5fa)" style="stroke: #000000; stroke-linejoin: miter"/>
   </g>
   <g id="patch_54">
    <path d="M 736.250229 276.879771 
L 744.814599 276.879771 
L 744.814599 268.315401 
L 736.250229 268.315401 
z
" clip-path="url(#p5cf975d5fa)" style="stroke: #000000; stroke-linejoin: miter"/>
   </g>
   <g id="patch_55">
    <path d="M 766.152717 275.14418 
L 771.245904 275.14418 
L 771.245904 270.050992 
L 766.152717 270.050992 
z
" clip-path="url(#p5cf975d5fa)" style="stroke: #000000; stroke-linejoin: miter"/>
   </g>
   <g id="patch_56">
    <path d="M 794.09819 275.365603 
L 799.634224 275.365603 
L 799.634224 269.829569 
L 794.09819 269.829569 
z
" clip-path="url(#p5cf975d5fa)" style="stroke: #000000; stroke-linejoin: miter"/>
   </g>
   <g id="patch_57">
    <path d="M 57.90713 251.050457 
L 71.146664 251.050457 
L 71.146664 237.810923 
L 57.90713 237.810923 
z
" clip-path="url(#p5cf975d5fa)" style="stroke: #000000; stroke-linejoin: miter"/>
   </g>
   <g id="patch_58">
    <path d="M 87.140213 249.98427 
L 98.247374 249.98427 
L 98.247374 238.877109 
L 87.140213 238.877109 
z
" clip-path="url(#p5cf975d5fa)" style="stroke: #000000; stroke-linejoin: miter"/>
   </g>
   <g id="patch_59">
    <path d="M 116.597809 248.69357 
L 125.12357 248.69357 
L 125.12357 240.167809 
L 116.597809 240.167809 
z
" clip-path="url(#p5cf975d5fa)" style="stroke: #000000; stroke-linejoin: miter"/>
   </g>
   <g id="patch_60">
    <path d="M 144.611544 248.846732 
L 153.443628 248.846732 
L 153.443628 240.014648 
L 144.611544 240.014648 
z
" clip-path="url(#p5cf975d5fa)" style="stroke: #000000; stroke-linejoin: miter"/>
   </g>
   <g id="patch_61">
    <path d="M 173.653258 247.971914 
L 180.735708 247.971914 
L 180.735708 240.889465 
L 173.653258 240.889465 
z
" clip-path="url(#p5cf975d5fa)" style="stroke: #000000; stroke-linejoin: miter"/>
   </g>
   <g id="patch_62">
    <path d="M 200.153742 249.638326 
L 210.569016 249.638326 
L 210.569016 239.223053 
L 200.153742 239.223053 
z
" clip-path="url(#p5cf975d5fa)" style="stroke: #000000; stroke-linejoin: miter"/>
   </g>
   <g id="patch_63">
    <path d="M 229.971653 247.987313 
L 237.084899 247.987313 
L 237.084899 240.874066 
L 229.971653 240.874066 
z
" clip-path="url(#p5cf975d5fa)" style="stroke: #000000; stroke-linejoin: miter"/>
   </g>
   <g id="patch_64">
    <path d="M 257.832811 248.293051 
L 265.557534 248.293051 
L 265.557534 240.568328 
L 257.832811 240.568328 
z
" clip-path="url(#p5cf975d5fa)" style="stroke: #000000; stroke-linejoin: miter"/>
   </g>
   <g id="patch_65">
    <path d="M 285.42359 248.869168 
L 294.300548 248.869168 
L 294.300548 239.992211 
L 285.42359 239.992211 
z
" clip-path="url(#p5cf975d5fa)" style="stroke: #000000; stroke-linejoin: miter"/>
   </g>
   <g id="patch_66">
    <path d="M 314.66685 247.792805 
L 321.391081 247.792805 
L 321.391081 241.068575 
L 314.66685 241.068575 
z
" clip-path="url(#p5cf975d5fa)" style="stroke: #000000; stroke-linejoin: miter"/>
   </g>
   <g id="patch_67">
    <path d="M 342.29821 248.328342 
L 350.093514 248.328342 
L 350.093514 240.533037 
L 342.29821 240.533037 
z
" clip-path="url(#p5cf975d5fa)" style="stroke: #000000; stroke-linejoin: miter"/>
   </g>
   <g id="patch_68">
    <path d="M 371.890859 246.902589 
L 376.834658 246.902589 
L 376.834658 241.95879 
L 371.890859 241.95879 
z
" clip-path="url(#p5cf975d5fa)" style="stroke: #000000; stroke-linejoin: miter"/>
   </g>
   <g id="patch_69">
    <path d="M 398.705941 248.254404 
L 406.353369 248.254404 
L 406.353369 240.606976 
L 398.705941 240.606976 
z
" clip-path="url(#p5cf975d5fa)" style="stroke: #000000; stroke-linejoin: miter"/>
   </g>
   <g id="patch_70">
    <path d="M 426.795921 248.331321 
L 434.597183 248.331321 
L 434.597183 240.530058 
L 426.795921 240.530058 
z
" clip-path="url(#p5cf975d5fa)" style="stroke: #000000; stroke-linejoin: miter"/>
   </g>
   <g id="patch_71">
    <path d="M 454.755833 248.538304 
L 462.971063 248.538304 
L 462.971063 240.323075 
L 454.755833 240.323075 
z
" clip-path="url(#p5cf975d5fa)" style="stroke: #000000; stroke-linejoin: miter"/>
   </g>
   <g id="patch_72">
    <path d="M 483.355575 248.10546 
L 490.705115 248.10546 
L 490.705115 240.75592 
L 483.355575 240.75592 
z
" clip-path="url(#p5cf975d5fa)" style="stroke: #000000; stroke-linejoin: miter"/>
   </g>
   <g id="patch_73">
    <path d="M 513.256713 246.371218 
L 517.13777 246.371218 
L 517.13777 242.490161 
L 513.256713 242.490161 
z
" clip-path="url(#p5cf975d5fa)" style="stroke: #000000; stroke-linejoin: miter"/>
   </g>
   <g id="patch_74">
    <path d="M 541.724266 246.070562 
L 545.00401 246.070562 
L 545.00401 242.790817 
L 541.724266 242.790817 
z
" clip-path="url(#p5cf975d5fa)" style="stroke: #000000; stroke-linejoin: miter"/>
   </g>
   <g id="patch_75">
    <path d="M 567.737932 248.223792 
L 575.324137 248.223792 
L 575.324137 240.637587 
L 567.737932 240.637587 
z
" clip-path="url(#p5cf975d5fa)" style="stroke: #000000; stroke-linejoin: miter"/>
   </g>
   <g id="patch_76">
    <path d="M 595.207312 248.921308 
L 604.18855 248.921308 
L 604.18855 239.940071 
L 595.207312 239.940071 
z
" clip-path="url(#p5cf975d5fa)" style="stroke: #000000; stroke-linejoin: miter"/>
   </g>
   <g id="patch_77">
    <path d="M 625.027338 247.268179 
L 630.702317 247.268179 
L 630.702317 241.5932 
L 625.027338 241.5932 
z
" clip-path="url(#p5cf975d5fa)" style="stroke: #000000; stroke-linejoin: miter"/>
   </g>
   <g id="patch_78">
    <path d="M 652.097347 248.365067 
L 659.966101 248.365067 
L 659.966101 240.496313 
L 652.097347 240.496313 
z
" clip-path="url(#p5cf975d5fa)" style="stroke: #000000; stroke-linejoin: miter"/>
   </g>
   <g id="patch_79">
    <path d="M 681.70186 246.92745 
L 686.695381 246.92745 
L 686.695381 241.933929 
L 681.70186 241.933929 
z
" clip-path="url(#p5cf975d5fa)" style="stroke: #000000; stroke-linejoin: miter"/>
   </g>
   <g id="patch_80">
    <path d="M 710.207752 246.588455 
L 714.523283 246.588455 
L 714.523283 242.272924 
L 710.207752 242.272924 
z
" clip-path="url(#p5cf975d5fa)" style="stroke: #000000; stroke-linejoin: miter"/>
   </g>
   <g id="patch_81">
    <path d="M 736.744873 248.218231 
L 744.319955 248.218231 
L 744.319955 240.643148 
L 736.744873 240.643148 
z
" clip-path="url(#p5cf975d5fa)" style="stroke: #000000; stroke-linejoin: miter"/>
   </g>
   <g id="patch_82">
    <path d="M 767.157163 245.972837 
L 770.241458 245.972837 
L 770.241458 242.888542 
L 767.157163 242.888542 
z
" clip-path="url(#p5cf975d5fa)" style="stroke: #000000; stroke-linejoin: miter"/>
   </g>
   <g id="patch_83">
    <path d="M 793.960787 247.336109 
L 799.771626 247.336109 
L 799.771626 241.52527 
L 793.960787 241.52527 
z
" clip-path="url(#p5cf975d5fa)" style="stroke: #000000; stroke-linejoin: miter"/>
   </g>
   <g id="patch_84">
    <path d="M 58.019308 222.771382 
L 71.034485 222.771382 
L 71.034485 209.756205 
L 58.019308 209.756205 
z
" clip-path="url(#p5cf975d5fa)" style="stroke: #000000; stroke-linejoin: miter"/>
   </g>
   <g id="patch_85">
    <path d="M 86.932318 222.025268 
L 98.455268 222.025268 
L 98.455268 210.502318 
L 86.932318 210.502318 
z
" clip-path="url(#p5cf975d5fa)" style="stroke: #000000; stroke-linejoin: miter"/>
   </g>
   <g id="patch_86">
    <path d="M 115.287848 221.836635 
L 126.433531 221.836635 
L 126.433531 210.690951 
L 115.287848 210.690951 
z
" clip-path="url(#p5cf975d5fa)" style="stroke: #000000; stroke-linejoin: miter"/>
   </g>
   <g id="patch_87">
    <path d="M 144.03651 221.25487 
L 154.018663 221.25487 
L 154.018663 211.272716 
L 144.03651 211.272716 
z
" clip-path="url(#p5cf975d5fa)" style="stroke: #000000; stroke-linejoin: miter"/>
   </g>
   <g id="patch_88">
    <path d="M 172.757629 220.700647 
L 181.631337 220.700647 
L 181.631337 211.826939 
L 172.757629 211.826939 
z
" clip-path="url(#p5cf975d5fa)" style="stroke: #000000; stroke-linejoin: miter"/>
   </g>
   <g id="patch_89">
    <path d="M 200.95358 220.671593 
L 209.769179 220.671593 
L 209.769179 211.855994 
L 200.95358 211.855994 
z
" clip-path="url(#p5cf975d5fa)" style="stroke: #000000; stroke-linejoin: miter"/>
   </g>
   <g id="patch_90">
    <path d="M 229.384026 220.408043 
L 237.672526 220.408043 
L 237.672526 212.119543 
L 229.384026 212.119543 
z
" clip-path="url(#p5cf975d5fa)" style="stroke: #000000; stroke-linejoin: miter"/>
   </g>
   <g id="patch_91">
    <path d="M 258.208435 219.75053 
L 265.181909 219.75053 
L 265.181909 212.777056 
L 258.208435 212.777056 
z
" clip-path="url(#p5cf975d5fa)" style="stroke: #000000; stroke-linejoin: miter"/>
   </g>
   <g id="patch_92">
    <path d="M 285.292728 220.833134 
L 294.43141 220.833134 
L 294.43141 211.694452 
L 285.292728 211.694452 
z
" clip-path="url(#p5cf975d5fa)" style="stroke: #000000; stroke-linejoin: miter"/>
   </g>
   <g id="patch_93">
    <path d="M 313.485793 220.806966 
L 322.572138 220.806966 
L 322.572138 211.72062 
L 313.485793 211.72062 
z
" clip-path="url(#p5cf975d5fa)" style="stroke: #000000; stroke-linejoin: miter"/>
   </g>
   <g id="patch_94">
    <path d="M 342.419047 220.040608 
L 349.972677 220.040608 
L 349.972677 212.486978 
L 342.419047 212.486978 
z
" clip-path="url(#p5cf975d5fa)" style="stroke: #000000; stroke-linejoin: miter"/>
   </g>
   <g id="patch_95">
    <path d="M 370.612766 220.013786 
L 378.112751 220.013786 
L 378.112751 212.5138 
L 370.612766 212.5138 
z
" clip-path="url(#p5cf975d5fa)" style="stroke: #000000; stroke-linejoin: miter"/>
   </g>
   <g id="patch_96">
    <path d="M 399.672796 219.120653 
L 405.386515 219.120653 
L 405.386515 213.406934 
L 399.672796 213.406934 
z
" clip-path="url(#p5cf975d5fa)" style="stroke: #000000; stroke-linejoin: miter"/>
   </g>
   <g id="patch_97">
    <path d="M 426.086196 220.874149 
L 435.306907 220.874149 
L 435.306907 211.653438 
L 426.086196 211.653438 
z
" clip-path="url(#p5cf975d5fa)" style="stroke: #000000; stroke-linejoin: miter"/>
   </g>
   <g id="patch_98">
    <path d="M 455.839146 219.288095 
L 461.887751 219.288095 
L 461.887751 213.239491 
L 455.839146 213.239491 
z
" clip-path="url(#p5cf975d5fa)" style="stroke: #000000; stroke-linejoin: miter"/>
   </g>
   <g id="patch_99">
    <path d="M 483.381889 219.912249 
L 490.678801 219.912249 
L 490.678801 212.615337 
L 483.381889 212.615337 
z
" clip-path="url(#p5cf975d5fa)" style="stroke: #000000; stroke-linejoin: miter"/>
   </g>
   <g id="patch_100">
    <path d="M 512.409653 219.051381 
L 517.98483 219.051381 
L 517.98483 213.476205 
L 512.409653 213.476205 
z
" clip-path="url(#p5cf975d5fa)" style="stroke: #000000; stroke-linejoin: miter"/>
   </g>
   <g id="patch_101">
    <path d="M 540.052805 219.575126 
L 546.67547 219.575126 
L 546.67547 212.952461 
L 540.052805 212.952461 
z
" clip-path="url(#p5cf975d5fa)" style="stroke: #000000; stroke-linejoin: miter"/>
   </g>
   <g id="patch_102">
    <path d="M 568.219562 219.575266 
L 574.842507 219.575266 
L 574.842507 212.952321 
L 568.219562 212.952321 
z
" clip-path="url(#p5cf975d5fa)" style="stroke: #000000; stroke-linejoin: miter"/>
   </g>
   <g id="patch_103">
    <path d="M 596.441462 219.520262 
L 602.9544 219.520262 
L 602.9544 213.007324 
L 596.441462 213.007324 
z
" clip-path="url(#p5cf975d5fa)" style="stroke: #000000; stroke-linejoin: miter"/>
   </g>
   <g id="patch_104">
    <path d="M 625.270165 218.858456 
L 630.459491 218.858456 
L 630.459491 213.66913 
L 625.270165 213.66913 
z
" clip-path="url(#p5cf975d5fa)" style="stroke: #000000; stroke-linejoin: miter"/>
   </g>
   <g id="patch_105">
    <path d="M 653.302022 218.993495 
L 658.761426 218.993495 
L 658.761426 213.534091 
L 653.302022 213.534091 
z
" clip-path="url(#p5cf975d5fa)" style="stroke: #000000; stroke-linejoin: miter"/>
   </g>
   <g id="patch_106">
    <path d="M 680.59452 219.867894 
L 687.802722 219.867894 
L 687.802722 212.659692 
L 680.59452 212.659692 
z
" clip-path="url(#p5cf975d5fa)" style="stroke: #000000; stroke-linejoin: miter"/>
   </g>
   <g id="patch_107">
    <path d="M 707.750504 220.878806 
L 716.98053 220.878806 
L 716.98053 211.64878 
L 707.750504 211.64878 
z
" clip-path="url(#p5cf975d5fa)" style="stroke: #000000; stroke-linejoin: miter"/>
   </g>
   <g id="patch_108">
    <path d="M 737.422844 219.373363 
L 743.641984 219.373363 
L 743.641984 213.154223 
L 737.422844 213.154223 
z
" clip-path="url(#p5cf975d5fa)" style="stroke: #000000; stroke-linejoin: miter"/>
   </g>
   <g id="patch_109">
    <path d="M 768.032739 216.930365 
L 769.365882 216.930365 
L 769.365882 215.597221 
L 768.032739 215.597221 
z
" clip-path="url(#p5cf975d5fa)" style="stroke: #000000; stroke-linejoin: miter"/>
   </g>
   <g id="patch_110">
    <path d="M 793.689864 219.440136 
L 800.042549 219.440136 
L 800.042549 213.087451 
L 793.689864 213.087451 
z
" clip-path="url(#p5cf975d5fa)" style="stroke: #000000; stroke-linejoin: miter"/>
   </g>
   <g id="patch_111">
    <path d="M 58.808135 193.815658 
L 70.245658 193.815658 
L 70.245658 182.378135 
L 58.808135 182.378135 
z
" clip-path="url(#p5cf975d5fa)" style="stroke: #000000; stroke-linejoin: miter"/>
   </g>
   <g id="patch_112">
    <path d="M 88.173349 192.617341 
L 97.214238 192.617341 
L 97.214238 183.576452 
L 88.173349 183.576452 
z
" clip-path="url(#p5cf975d5fa)" style="stroke: #000000; stroke-linejoin: miter"/>
   </g>
   <g id="patch_113">
    <path d="M 116.523661 192.433926 
L 125.197719 192.433926 
L 125.197719 183.759867 
L 116.523661 183.759867 
z
" clip-path="url(#p5cf975d5fa)" style="stroke: #000000; stroke-linejoin: miter"/>
   </g>
   <g id="patch_114">
    <path d="M 145.094209 192.030274 
L 152.960963 192.030274 
L 152.960963 184.163519 
L 145.094209 184.163519 
z
" clip-path="url(#p5cf975d5fa)" style="stroke: #000000; stroke-linejoin: miter"/>
   </g>
   <g id="patch_115">
    <path d="M 174.05051 191.240869 
L 180.338455 191.240869 
L 180.338455 184.952924 
L 174.05051 184.952924 
z
" clip-path="url(#p5cf975d5fa)" style="stroke: #000000; stroke-linejoin: miter"/>
   </g>
   <g id="patch_116">
    <path d="M 201.569156 191.88912 
L 209.153602 191.88912 
L 209.153602 184.304673 
L 201.569156 184.304673 
z
" clip-path="url(#p5cf975d5fa)" style="stroke: #000000; stroke-linejoin: miter"/>
   </g>
   <g id="patch_117">
    <path d="M 229.807811 191.817361 
L 237.248741 191.817361 
L 237.248741 184.376432 
L 229.807811 184.376432 
z
" clip-path="url(#p5cf975d5fa)" style="stroke: #000000; stroke-linejoin: miter"/>
   </g>
   <g id="patch_118">
    <path d="M 259.495037 190.297032 
L 263.895308 190.297032 
L 263.895308 185.896761 
L 259.495037 185.896761 
z
" clip-path="url(#p5cf975d5fa)" style="stroke: #000000; stroke-linejoin: miter"/>
   </g>
   <g id="patch_119">
    <path d="M 286.809969 191.148996 
L 292.914169 191.148996 
L 292.914169 185.044797 
L 286.809969 185.044797 
z
" clip-path="url(#p5cf975d5fa)" style="stroke: #000000; stroke-linejoin: miter"/>
   </g>
   <g id="patch_120">
    <path d="M 314.194632 191.93123 
L 321.863299 191.93123 
L 321.863299 184.262563 
L 314.194632 184.262563 
z
" clip-path="url(#p5cf975d5fa)" style="stroke: #000000; stroke-linejoin: miter"/>
   </g>
   <g id="patch_121">
    <path d="M 342.356569 191.93619 
L 350.035156 191.93619 
L 350.035156 184.257603 
L 342.356569 184.257603 
z
" clip-path="url(#p5cf975d5fa)" style="stroke: #000000; stroke-linejoin: miter"/>
   </g>
   <g id="patch_122">
    <path d="M 371.03276 191.426895 
L 377.692758 191.426895 
L 377.692758 184.766898 
L 371.03276 184.766898 
z
" clip-path="url(#p5cf975d5fa)" style="stroke: #000000; stroke-linejoin: miter"/>
   </g>
   <g id="patch_123">
    <path d="M 400.808767 189.817785 
L 404.250543 189.817785 
L 404.250543 186.376008 
L 400.808767 186.376008 
z
" clip-path="url(#p5cf975d5fa)" style="stroke: #000000; stroke-linejoin: miter"/>
   </g>
   <g id="patch_124">
    <path d="M 427.327277 191.466171 
L 434.065826 191.466171 
L 434.065826 184.727622 
L 427.327277 184.727622 
z
" clip-path="url(#p5cf975d5fa)" style="stroke: #000000; stroke-linejoin: miter"/>
   </g>
   <g id="patch_125">
    <path d="M 456.852279 190.108066 
L 460.874618 190.108066 
L 460.874618 186.085727 
L 456.852279 186.085727 
z
" clip-path="url(#p5cf975d5fa)" style="stroke: #000000; stroke-linejoin: miter"/>
   </g>
   <g id="patch_126">
    <path d="M 483.506462 191.62078 
L 490.554228 191.62078 
L 490.554228 184.573014 
L 483.506462 184.573014 
z
" clip-path="url(#p5cf975d5fa)" style="stroke: #000000; stroke-linejoin: miter"/>
   </g>
   <g id="patch_127">
    <path d="M 511.964159 191.329979 
L 518.430324 191.329979 
L 518.430324 184.863814 
L 511.964159 184.863814 
z
" clip-path="url(#p5cf975d5fa)" style="stroke: #000000; stroke-linejoin: miter"/>
   </g>
   <g id="patch_128">
    <path d="M 540.238716 191.222318 
L 546.48956 191.222318 
L 546.48956 184.971475 
L 540.238716 184.971475 
z
" clip-path="url(#p5cf975d5fa)" style="stroke: #000000; stroke-linejoin: miter"/>
   </g>
   <g id="patch_129">
    <path d="M 569.296275 190.331656 
L 573.765794 190.331656 
L 573.765794 185.862137 
L 569.296275 185.862137 
z
" clip-path="url(#p5cf975d5fa)" style="stroke: #000000; stroke-linejoin: miter"/>
   </g>
   <g id="patch_130">
    <path d="M 597.396284 190.398544 
L 601.999578 190.398544 
L 601.999578 185.795249 
L 597.396284 185.795249 
z
" clip-path="url(#p5cf975d5fa)" style="stroke: #000000; stroke-linejoin: miter"/>
   </g>
   <g id="patch_131">
    <path d="M 625.669746 190.291978 
L 630.059909 190.291978 
L 630.059909 185.901815 
L 625.669746 185.901815 
z
" clip-path="url(#p5cf975d5fa)" style="stroke: #000000; stroke-linejoin: miter"/>
   </g>
   <g id="patch_132">
    <path d="M 653.084541 191.04408 
L 658.978908 191.04408 
L 658.978908 185.149713 
L 653.084541 185.149713 
z
" clip-path="url(#p5cf975d5fa)" style="stroke: #000000; stroke-linejoin: miter"/>
   </g>
   <g id="patch_133">
    <path d="M 682.155562 190.139955 
L 686.241679 190.139955 
L 686.241679 186.053838 
L 682.155562 186.053838 
z
" clip-path="url(#p5cf975d5fa)" style="stroke: #000000; stroke-linejoin: miter"/>
   </g>
   <g id="patch_134">
    <path d="M 710.100626 190.361787 
L 714.630408 190.361787 
L 714.630408 185.832006 
L 710.100626 185.832006 
z
" clip-path="url(#p5cf975d5fa)" style="stroke: #000000; stroke-linejoin: miter"/>
   </g>
   <g id="patch_135">
    <path d="M 737.820468 190.808842 
L 743.24436 190.808842 
L 743.24436 185.384951 
L 737.820468 185.384951 
z
" clip-path="url(#p5cf975d5fa)" style="stroke: #000000; stroke-linejoin: miter"/>
   </g>
   <g id="patch_136">
    <path d="M 765.924515 190.871692 
L 771.474106 190.871692 
L 771.474106 185.322101 
L 765.924515 185.322101 
z
" clip-path="url(#p5cf975d5fa)" style="stroke: #000000; stroke-linejoin: miter"/>
   </g>
   <g id="patch_137">
    <path d="M 793.30564 191.657464 
L 800.426774 191.657464 
L 800.426774 184.53633 
L 793.30564 184.53633 
z
" clip-path="url(#p5cf975d5fa)" style="stroke: #000000; stroke-linejoin: miter"/>
   </g>
   <g id="patch_138">
    <path d="M 58.4542 166.002697 
L 70.599594 166.002697 
L 70.599594 153.857303 
L 58.4542 153.857303 
z
" clip-path="url(#p5cf975d5fa)" style="stroke: #000000; stroke-linejoin: miter"/>
   </g>
   <g id="patch_139">
    <path d="M 86.938299 165.685494 
L 98.449287 165.685494 
L 98.449287 154.174506 
L 86.938299 154.174506 
z
" clip-path="url(#p5cf975d5fa)" style="stroke: #000000; stroke-linejoin: miter"/>
   </g>
   <g id="patch_140">
    <path d="M 114.834226 165.956464 
L 126.887153 165.956464 
L 126.887153 153.903536 
L 114.834226 153.903536 
z
" clip-path="url(#p5cf975d5fa)" style="stroke: #000000; stroke-linejoin: miter"/>
   </g>
   <g id="patch_141">
    <path d="M 143.07175 165.885836 
L 154.983422 165.885836 
L 154.983422 153.974164 
L 143.07175 153.974164 
z
" clip-path="url(#p5cf975d5fa)" style="stroke: #000000; stroke-linejoin: miter"/>
   </g>
   <g id="patch_142">
    <path d="M 171.787689 165.336794 
L 182.601277 165.336794 
L 182.601277 154.523206 
L 171.787689 154.523206 
z
" clip-path="url(#p5cf975d5fa)" style="stroke: #000000; stroke-linejoin: miter"/>
   </g>
   <g id="patch_143">
    <path d="M 201.006262 164.285117 
L 209.716496 164.285117 
L 209.716496 155.574883 
L 201.006262 155.574883 
z
" clip-path="url(#p5cf975d5fa)" style="stroke: #000000; stroke-linejoin: miter"/>
   </g>
   <g id="patch_144">
    <path d="M 229.164248 164.294028 
L 237.892304 164.294028 
L 237.892304 155.565972 
L 229.164248 155.565972 
z
" clip-path="url(#p5cf975d5fa)" style="stroke: #000000; stroke-linejoin: miter"/>
   </g>
   <g id="patch_145">
    <path d="M 257.332904 164.292268 
L 266.057441 164.292268 
L 266.057441 155.567732 
L 257.332904 155.567732 
z
" clip-path="url(#p5cf975d5fa)" style="stroke: #000000; stroke-linejoin: miter"/>
   </g>
   <g id="patch_146">
    <path d="M 286.493364 163.298705 
L 293.230774 163.298705 
L 293.230774 156.561295 
L 286.493364 156.561295 
z
" clip-path="url(#p5cf975d5fa)" style="stroke: #000000; stroke-linejoin: miter"/>
   </g>
   <g id="patch_147">
    <path d="M 314.514737 163.444228 
L 321.543194 163.444228 
L 321.543194 156.415772 
L 314.514737 156.415772 
z
" clip-path="url(#p5cf975d5fa)" style="stroke: #000000; stroke-linejoin: miter"/>
   </g>
   <g id="patch_148">
    <path d="M 342.099091 164.026771 
L 350.292633 164.026771 
L 350.292633 155.833229 
L 342.099091 155.833229 
z
" clip-path="url(#p5cf975d5fa)" style="stroke: #000000; stroke-linejoin: miter"/>
   </g>
   <g id="patch_149">
    <path d="M 371.427526 162.865233 
L 377.297991 162.865233 
L 377.297991 156.994767 
L 371.427526 156.994767 
z
" clip-path="url(#p5cf975d5fa)" style="stroke: #000000; stroke-linejoin: miter"/>
   </g>
   <g id="patch_150">
    <path d="M 399.418292 163.041364 
L 405.641019 163.041364 
L 405.641019 156.818636 
L 399.418292 156.818636 
z
" clip-path="url(#p5cf975d5fa)" style="stroke: #000000; stroke-linejoin: miter"/>
   </g>
   <g id="patch_151">
    <path d="M 428.122467 162.504085 
L 433.270637 162.504085 
L 433.270637 157.355915 
L 428.122467 157.355915 
z
" clip-path="url(#p5cf975d5fa)" style="stroke: #000000; stroke-linejoin: miter"/>
   </g>
   <g id="patch_152">
    <path d="M 455.237309 163.556139 
L 462.489587 163.556139 
L 462.489587 156.303861 
L 455.237309 156.303861 
z
" clip-path="url(#p5cf975d5fa)" style="stroke: #000000; stroke-linejoin: miter"/>
   </g>
   <g id="patch_153">
    <path d="M 483.520177 163.440168 
L 490.540512 163.440168 
L 490.540512 156.419832 
L 483.520177 156.419832 
z
" clip-path="url(#p5cf975d5fa)" style="stroke: #000000; stroke-linejoin: miter"/>
   </g>
   <g id="patch_154">
    <path d="M 511.805073 163.322168 
L 518.589409 163.322168 
L 518.589409 156.537832 
L 511.805073 156.537832 
z
" clip-path="url(#p5cf975d5fa)" style="stroke: #000000; stroke-linejoin: miter"/>
   </g>
   <g id="patch_155">
    <path d="M 540.012804 163.281334 
L 546.715472 163.281334 
L 546.715472 156.578666 
L 540.012804 156.578666 
z
" clip-path="url(#p5cf975d5fa)" style="stroke: #000000; stroke-linejoin: miter"/>
   </g>
   <g id="patch_156">
    <path d="M 569.178524 162.28251 
L 573.883545 162.28251 
L 573.883545 157.57749 
L 569.178524 157.57749 
z
" clip-path="url(#p5cf975d5fa)" style="stroke: #000000; stroke-linejoin: miter"/>
   </g>
   <g id="patch_157">
    <path d="M 596.25279 163.375141 
L 603.143072 163.375141 
L 603.143072 156.484859 
L 596.25279 156.484859 
z
" clip-path="url(#p5cf975d5fa)" style="stroke: #000000; stroke-linejoin: miter"/>
   </g>
   <g id="patch_158">
    <path d="M 624.158821 163.636007 
L 631.570834 163.636007 
L 631.570834 156.223993 
L 624.158821 156.223993 
z
" clip-path="url(#p5cf975d5fa)" style="stroke: #000000; stroke-linejoin: miter"/>
   </g>
   <g id="patch_159">
    <path d="M 653.095869 162.865855 
L 658.96758 162.865855 
L 658.96758 156.994145 
L 653.095869 156.994145 
z
" clip-path="url(#p5cf975d5fa)" style="stroke: #000000; stroke-linejoin: miter"/>
   </g>
   <g id="patch_160">
    <path d="M 681.25574 162.87288 
L 687.141501 162.87288 
L 687.141501 156.98712 
L 681.25574 156.98712 
z
" clip-path="url(#p5cf975d5fa)" style="stroke: #000000; stroke-linejoin: miter"/>
   </g>
   <g id="patch_161">
    <path d="M 710.793184 161.502333 
L 713.93785 161.502333 
L 713.93785 158.357667 
L 710.793184 158.357667 
z
" clip-path="url(#p5cf975d5fa)" style="stroke: #000000; stroke-linejoin: miter"/>
   </g>
   <g id="patch_162">
    <path d="M 737.184273 163.278141 
L 743.880555 163.278141 
L 743.880555 156.581859 
L 737.184273 156.581859 
z
" clip-path="url(#p5cf975d5fa)" style="stroke: #000000; stroke-linejoin: miter"/>
   </g>
   <g id="patch_163">
    <path d="M 768.027297 160.602013 
L 769.371324 160.602013 
L 769.371324 159.257987 
L 768.027297 159.257987 
z
" clip-path="url(#p5cf975d5fa)" style="stroke: #000000; stroke-linejoin: miter"/>
   </g>
   <g id="patch_164">
    <path d="M 793.933604 162.862603 
L 799.79881 162.862603 
L 799.79881 156.997397 
L 793.933604 156.997397 
z
" clip-path="url(#p5cf975d5fa)" style="stroke: #000000; stroke-linejoin: miter"/>
   </g>
   <g id="patch_165">
    <path d="M 60.499684 135.790316 
L 68.554109 135.790316 
L 68.554109 127.735891 
L 60.499684 127.735891 
z
" clip-path="url(#p5cf975d5fa)" style="stroke: #000000; stroke-linejoin: miter"/>
   </g>
   <g id="patch_166">
    <path d="M 88.502389 135.954508 
L 96.885197 135.954508 
L 96.885197 127.571699 
L 88.502389 127.571699 
z
" clip-path="url(#p5cf975d5fa)" style="stroke: #000000; stroke-linejoin: miter"/>
   </g>
   <g id="patch_167">
    <path d="M 116.565519 136.058274 
L 125.155861 136.058274 
L 125.155861 127.467932 
L 116.565519 127.467932 
z
" clip-path="url(#p5cf975d5fa)" style="stroke: #000000; stroke-linejoin: miter"/>
   </g>
   <g id="patch_168">
    <path d="M 144.556333 136.234357 
L 153.49884 136.234357 
L 153.49884 127.29185 
L 144.556333 127.29185 
z
" clip-path="url(#p5cf975d5fa)" style="stroke: #000000; stroke-linejoin: miter"/>
   </g>
   <g id="patch_169">
    <path d="M 173.370519 135.587067 
L 181.018447 135.587067 
L 181.018447 127.93914 
L 173.370519 127.93914 
z
" clip-path="url(#p5cf975d5fa)" style="stroke: #000000; stroke-linejoin: miter"/>
   </g>
   <g id="patch_170">
    <path d="M 201.17644 135.948043 
L 209.546319 135.948043 
L 209.546319 127.578164 
L 201.17644 127.578164 
z
" clip-path="url(#p5cf975d5fa)" style="stroke: #000000; stroke-linejoin: miter"/>
   </g>
   <g id="patch_171">
    <path d="M 230.085188 135.206191 
L 236.971364 135.206191 
L 236.971364 128.320016 
L 230.085188 128.320016 
z
" clip-path="url(#p5cf975d5fa)" style="stroke: #000000; stroke-linejoin: miter"/>
   </g>
   <g id="patch_172">
    <path d="M 258.671016 134.787259 
L 264.719328 134.787259 
L 264.719328 128.738947 
L 258.671016 128.738947 
z
" clip-path="url(#p5cf975d5fa)" style="stroke: #000000; stroke-linejoin: miter"/>
   </g>
   <g id="patch_173">
    <path d="M 286.502697 135.122475 
L 293.221441 135.122475 
L 293.221441 128.403732 
L 286.502697 128.403732 
z
" clip-path="url(#p5cf975d5fa)" style="stroke: #000000; stroke-linejoin: miter"/>
   </g>
   <g id="patch_174">
    <path d="M 314.479262 135.312807 
L 321.578669 135.312807 
L 321.578669 128.2134 
L 314.479262 128.2134 
z
" clip-path="url(#p5cf975d5fa)" style="stroke: #000000; stroke-linejoin: miter"/>
   </g>
   <g id="patch_175">
    <path d="M 342.976303 134.982662 
L 349.415421 134.982662 
L 349.415421 128.543544 
L 342.976303 128.543544 
z
" clip-path="url(#p5cf975d5fa)" style="stroke: #000000; stroke-linejoin: miter"/>
   </g>
   <g id="patch_176">
    <path d="M 371.340148 134.785714 
L 377.385369 134.785714 
L 377.385369 128.740493 
L 371.340148 128.740493 
z
" clip-path="url(#p5cf975d5fa)" style="stroke: #000000; stroke-linejoin: miter"/>
   </g>
   <g id="patch_177">
    <path d="M 400.060761 134.231998 
L 404.99855 134.231998 
L 404.99855 129.294209 
L 400.060761 129.294209 
z
" clip-path="url(#p5cf975d5fa)" style="stroke: #000000; stroke-linejoin: miter"/>
   </g>
   <g id="patch_178">
    <path d="M 427.816421 134.643234 
L 433.576682 134.643234 
L 433.576682 128.882973 
L 427.816421 128.882973 
z
" clip-path="url(#p5cf975d5fa)" style="stroke: #000000; stroke-linejoin: miter"/>
   </g>
   <g id="patch_179">
    <path d="M 456.388354 134.238198 
L 461.338542 134.238198 
L 461.338542 129.288009 
L 456.388354 129.288009 
z
" clip-path="url(#p5cf975d5fa)" style="stroke: #000000; stroke-linejoin: miter"/>
   </g>
   <g id="patch_180">
    <path d="M 484.13832 134.655128 
L 489.92237 134.655128 
L 489.92237 128.871078 
L 484.13832 128.871078 
z
" clip-path="url(#p5cf975d5fa)" style="stroke: #000000; stroke-linejoin: miter"/>
   </g>
   <g id="patch_181">
    <path d="M 511.695095 135.26525 
L 518.699388 135.26525 
L 518.699388 128.260957 
L 511.695095 128.260957 
z
" clip-path="url(#p5cf975d5fa)" style="stroke: #000000; stroke-linejoin: miter"/>
   </g>
   <g id="patch_182">
    <path d="M 539.713108 135.414133 
L 547.015168 135.414133 
L 547.015168 128.112074 
L 539.713108 128.112074 
z
" clip-path="url(#p5cf975d5fa)" style="stroke: #000000; stroke-linejoin: miter"/>
   </g>
   <g id="patch_183">
    <path d="M 569.285086 134.009052 
L 573.776983 134.009052 
L 573.776983 129.517155 
L 569.285086 129.517155 
z
" clip-path="url(#p5cf975d5fa)" style="stroke: #000000; stroke-linejoin: miter"/>
   </g>
   <g id="patch_184">
    <path d="M 597.357401 134.103633 
L 602.038461 134.103633 
L 602.038461 129.422574 
L 597.357401 129.422574 
z
" clip-path="url(#p5cf975d5fa)" style="stroke: #000000; stroke-linejoin: miter"/>
   </g>
   <g id="patch_185">
    <path d="M 625.272529 134.355403 
L 630.457127 134.355403 
L 630.457127 129.170804 
L 625.272529 129.170804 
z
" clip-path="url(#p5cf975d5fa)" style="stroke: #000000; stroke-linejoin: miter"/>
   </g>
   <g id="patch_186">
    <path d="M 653.019808 134.77502 
L 659.04364 134.77502 
L 659.04364 128.751187 
L 653.019808 128.751187 
z
" clip-path="url(#p5cf975d5fa)" style="stroke: #000000; stroke-linejoin: miter"/>
   </g>
   <g id="patch_187">
    <path d="M 681.566652 134.395073 
L 686.83059 134.395073 
L 686.83059 129.131134 
L 681.566652 129.131134 
z
" clip-path="url(#p5cf975d5fa)" style="stroke: #000000; stroke-linejoin: miter"/>
   </g>
   <g id="patch_188">
    <path d="M 709.873235 134.255386 
L 714.857799 134.255386 
L 714.857799 129.270821 
L 709.873235 129.270821 
z
" clip-path="url(#p5cf975d5fa)" style="stroke: #000000; stroke-linejoin: miter"/>
   </g>
   <g id="patch_189">
    <path d="M 737.049025 135.246492 
L 744.015802 135.246492 
L 744.015802 128.279715 
L 737.049025 128.279715 
z
" clip-path="url(#p5cf975d5fa)" style="stroke: #000000; stroke-linejoin: miter"/>
   </g>
   <g id="patch_190">
    <path d="M 766.435467 134.026947 
L 770.963154 134.026947 
L 770.963154 129.49926 
L 766.435467 129.49926 
z
" clip-path="url(#p5cf975d5fa)" style="stroke: #000000; stroke-linejoin: miter"/>
   </g>
   <g id="patch_191">
    <path d="M 793.767776 134.861534 
L 799.964638 134.861534 
L 799.964638 128.664673 
L 793.767776 128.664673 
z
" clip-path="url(#p5cf975d5fa)" style="stroke: #000000; stroke-linejoin: miter"/>
   </g>
   <g id="patch_192">
    <path d="M 64.526897 103.596207 
L 64.526897 103.596207 
L 64.526897 103.596207 
L 64.526897 103.596207 
z
" clip-path="url(#p5cf975d5fa)" style="stroke: #000000; stroke-linejoin: miter"/>
   </g>
   <g id="patch_193">
    <path d="M 92.693793 103.596207 
L 92.693793 103.596207 
L 92.693793 103.596207 
L 92.693793 103.596207 
z
" clip-path="url(#p5cf975d5fa)" style="stroke: #000000; stroke-linejoin: miter"/>
   </g>
   <g id="patch_194">
    <path d="M 120.86069 103.596207 
L 120.86069 103.596207 
L 120.86069 103.596207 
L 120.86069 103.596207 
z
" clip-path="url(#p5cf975d5fa)" style="stroke: #000000; stroke-linejoin: miter"/>
   </g>
   <g id="patch_195">
    <path d="M 149.027586 103.596207 
L 149.027586 103.596207 
L 149.027586 103.596207 
L 149.027586 103.596207 
z
" clip-path="url(#p5cf975d5fa)" style="stroke: #000000; stroke-linejoin: miter"/>
   </g>
   <g id="patch_196">
    <path d="M 177.194483 103.596207 
L 177.194483 103.596207 
L 177.194483 103.596207 
L 177.194483 103.596207 
z
" clip-path="url(#p5cf975d5fa)" style="stroke: #000000; stroke-linejoin: miter"/>
   </g>
   <g id="patch_197">
    <path d="M 205.361379 103.596207 
L 205.361379 103.596207 
L 205.361379 103.596207 
L 205.361379 103.596207 
z
" clip-path="url(#p5cf975d5fa)" style="stroke: #000000; stroke-linejoin: miter"/>
   </g>
   <g id="patch_198">
    <path d="M 233.528276 103.596207 
L 233.528276 103.596207 
L 233.528276 103.596207 
L 233.528276 103.596207 
z
" clip-path="url(#p5cf975d5fa)" style="stroke: #000000; stroke-linejoin: miter"/>
   </g>
   <g id="patch_199">
    <path d="M 260.925482 104.365898 
L 262.464863 104.365898 
L 262.464863 102.826516 
L 260.925482 102.826516 
z
" clip-path="url(#p5cf975d5fa)" style="stroke: #000000; stroke-linejoin: miter"/>
   </g>
   <g id="patch_200">
    <path d="M 289.862069 103.596207 
L 289.862069 103.596207 
L 289.862069 103.596207 
L 289.862069 103.596207 
z
" clip-path="url(#p5cf975d5fa)" style="stroke: #000000; stroke-linejoin: miter"/>
   </g>
   <g id="patch_201">
    <path d="M 318.028966 103.596207 
L 318.028966 103.596207 
L 318.028966 103.596207 
L 318.028966 103.596207 
z
" clip-path="url(#p5cf975d5fa)" style="stroke: #000000; stroke-linejoin: miter"/>
   </g>
   <g id="patch_202">
    <path d="M 344.375982 105.416087 
L 348.015742 105.416087 
L 348.015742 101.776327 
L 344.375982 101.776327 
z
" clip-path="url(#p5cf975d5fa)" style="stroke: #000000; stroke-linejoin: miter"/>
   </g>
   <g id="patch_203">
    <path d="M 372.887904 105.071061 
L 375.837613 105.071061 
L 375.837613 102.121352 
L 372.887904 102.121352 
z
" clip-path="url(#p5cf975d5fa)" style="stroke: #000000; stroke-linejoin: miter"/>
   </g>
   <g id="patch_204">
    <path d="M 400.289005 105.836857 
L 404.770306 105.836857 
L 404.770306 101.355556 
L 400.289005 101.355556 
z
" clip-path="url(#p5cf975d5fa)" style="stroke: #000000; stroke-linejoin: miter"/>
   </g>
   <g id="patch_205">
    <path d="M 428.947334 105.345425 
L 432.44577 105.345425 
L 432.44577 101.846989 
L 428.947334 101.846989 
z
" clip-path="url(#p5cf975d5fa)" style="stroke: #000000; stroke-linejoin: miter"/>
   </g>
   <g id="patch_206">
    <path d="M 457.714941 104.744714 
L 460.011955 104.744714 
L 460.011955 102.4477 
L 457.714941 102.4477 
z
" clip-path="url(#p5cf975d5fa)" style="stroke: #000000; stroke-linejoin: miter"/>
   </g>
   <g id="patch_207">
    <path d="M 484.662947 105.963605 
L 489.397743 105.963605 
L 489.397743 101.228809 
L 484.662947 101.228809 
z
" clip-path="url(#p5cf975d5fa)" style="stroke: #000000; stroke-linejoin: miter"/>
   </g>
   <g id="patch_208">
    <path d="M 513.556527 105.236921 
L 516.837956 105.236921 
L 516.837956 101.955493 
L 513.556527 101.955493 
z
" clip-path="url(#p5cf975d5fa)" style="stroke: #000000; stroke-linejoin: miter"/>
   </g>
   <g id="patch_209">
    <path d="M 542.21592 104.744425 
L 544.512356 104.744425 
L 544.512356 102.447989 
L 542.21592 102.447989 
z
" clip-path="url(#p5cf975d5fa)" style="stroke: #000000; stroke-linejoin: miter"/>
   </g>
   <g id="patch_210">
    <path d="M 569.174409 105.952833 
L 573.88766 105.952833 
L 573.88766 101.239581 
L 569.174409 101.239581 
z
" clip-path="url(#p5cf975d5fa)" style="stroke: #000000; stroke-linejoin: miter"/>
   </g>
   <g id="patch_211">
    <path d="M 597.363754 105.930384 
L 602.032108 105.930384 
L 602.032108 101.26203 
L 597.363754 101.26203 
z
" clip-path="url(#p5cf975d5fa)" style="stroke: #000000; stroke-linejoin: miter"/>
   </g>
   <g id="patch_212">
    <path d="M 625.780489 105.680545 
L 629.949166 105.680545 
L 629.949166 101.511868 
L 625.780489 101.511868 
z
" clip-path="url(#p5cf975d5fa)" style="stroke: #000000; stroke-linejoin: miter"/>
   </g>
   <g id="patch_213">
    <path d="M 653.822461 105.80547 
L 658.240987 105.80547 
L 658.240987 101.386944 
L 653.822461 101.386944 
z
" clip-path="url(#p5cf975d5fa)" style="stroke: #000000; stroke-linejoin: miter"/>
   </g>
   <g id="patch_214">
    <path d="M 682.916043 104.878785 
L 685.481198 104.878785 
L 685.481198 102.313629 
L 682.916043 102.313629 
z
" clip-path="url(#p5cf975d5fa)" style="stroke: #000000; stroke-linejoin: miter"/>
   </g>
   <g id="patch_215">
    <path d="M 711.220181 104.741543 
L 713.510854 104.741543 
L 713.510854 102.45087 
L 711.220181 102.45087 
z
" clip-path="url(#p5cf975d5fa)" style="stroke: #000000; stroke-linejoin: miter"/>
   </g>
   <g id="patch_216">
    <path d="M 739.524127 104.604493 
L 741.5407 104.604493 
L 741.5407 102.58792 
L 739.524127 102.58792 
z
" clip-path="url(#p5cf975d5fa)" style="stroke: #000000; stroke-linejoin: miter"/>
   </g>
   <g id="patch_217">
    <path d="M 767.580307 104.71521 
L 769.818314 104.71521 
L 769.818314 102.477203 
L 767.580307 102.477203 
z
" clip-path="url(#p5cf975d5fa)" style="stroke: #000000; stroke-linejoin: miter"/>
   </g>
   <g id="patch_218">
    <path d="M 794.433504 106.02891 
L 799.29891 106.02891 
L 799.29891 101.163504 
L 794.433504 101.163504 
z
" clip-path="url(#p5cf975d5fa)" style="stroke: #000000; stroke-linejoin: miter"/>
   </g>
   <g id="patch_219">
    <path d="M 58.205938 81.750269 
L 70.847855 81.750269 
L 70.847855 69.108352 
L 58.205938 69.108352 
z
" clip-path="url(#p5cf975d5fa)" style="stroke: #000000; stroke-linejoin: miter"/>
   </g>
   <g id="patch_220">
    <path d="M 85.160382 82.962721 
L 100.227204 82.962721 
L 100.227204 67.895899 
L 85.160382 67.895899 
z
" clip-path="url(#p5cf975d5fa)" style="stroke: #000000; stroke-linejoin: miter"/>
   </g>
   <g id="patch_221">
    <path d="M 114.485503 81.804497 
L 127.235876 81.804497 
L 127.235876 69.054124 
L 114.485503 69.054124 
z
" clip-path="url(#p5cf975d5fa)" style="stroke: #000000; stroke-linejoin: miter"/>
   </g>
   <g id="patch_222">
    <path d="M 144.678702 79.778195 
L 153.37647 79.778195 
L 153.37647 71.080426 
L 144.678702 71.080426 
z
" clip-path="url(#p5cf975d5fa)" style="stroke: #000000; stroke-linejoin: miter"/>
   </g>
   <g id="patch_223">
    <path d="M 171.913186 80.710607 
L 182.475779 80.710607 
L 182.475779 70.148014 
L 171.913186 70.148014 
z
" clip-path="url(#p5cf975d5fa)" style="stroke: #000000; stroke-linejoin: miter"/>
   </g>
   <g id="patch_224">
    <path d="M 199.617562 81.173128 
L 211.105197 81.173128 
L 211.105197 69.685493 
L 199.617562 69.685493 
z
" clip-path="url(#p5cf975d5fa)" style="stroke: #000000; stroke-linejoin: miter"/>
   </g>
   <g id="patch_225">
    <path d="M 229.363433 79.594153 
L 237.693119 79.594153 
L 237.693119 71.264468 
L 229.363433 71.264468 
z
" clip-path="url(#p5cf975d5fa)" style="stroke: #000000; stroke-linejoin: miter"/>
   </g>
   <g id="patch_226">
    <path d="M 256.943689 80.180793 
L 266.446655 80.180793 
L 266.446655 70.677827 
L 256.943689 70.677827 
z
" clip-path="url(#p5cf975d5fa)" style="stroke: #000000; stroke-linejoin: miter"/>
   </g>
   <g id="patch_227">
    <path d="M 286.247981 79.043398 
L 293.476157 79.043398 
L 293.476157 71.815222 
L 286.247981 71.815222 
z
" clip-path="url(#p5cf975d5fa)" style="stroke: #000000; stroke-linejoin: miter"/>
   </g>
   <g id="patch_228">
    <path d="M 313.313455 80.144821 
L 322.744476 80.144821 
L 322.744476 70.7138 
L 313.313455 70.7138 
z
" clip-path="url(#p5cf975d5fa)" style="stroke: #000000; stroke-linejoin: miter"/>
   </g>
   <g id="patch_229">
    <path d="M 341.381724 80.243448 
L 351.01 80.243448 
L 351.01 70.615172 
L 341.381724 70.615172 
z
" clip-path="url(#p5cf975d5fa)" style="stroke: #000000; stroke-linejoin: miter"/>
   </g>
   <g id="patch_230">
    <path d="M 369.680593 80.111476 
L 379.044925 80.111476 
L 379.044925 70.747144 
L 369.680593 70.747144 
z
" clip-path="url(#p5cf975d5fa)" style="stroke: #000000; stroke-linejoin: miter"/>
   </g>
   <g id="patch_231">
    <path d="M 398.794447 79.164519 
L 406.264864 79.164519 
L 406.264864 71.694102 
L 398.794447 71.694102 
z
" clip-path="url(#p5cf975d5fa)" style="stroke: #000000; stroke-linejoin: miter"/>
   </g>
   <g id="patch_232">
    <path d="M 425.192699 80.933163 
L 436.200404 80.933163 
L 436.200404 69.925458 
L 425.192699 69.925458 
z
" clip-path="url(#p5cf975d5fa)" style="stroke: #000000; stroke-linejoin: miter"/>
   </g>
   <g id="patch_233">
    <path d="M 456.821711 77.471048 
L 460.905186 77.471048 
L 460.905186 73.387573 
L 456.821711 73.387573 
z
" clip-path="url(#p5cf975d5fa)" style="stroke: #000000; stroke-linejoin: miter"/>
   </g>
   <g id="patch_234">
    <path d="M 482.06284 80.396815 
L 491.99785 80.396815 
L 491.99785 70.461806 
L 482.06284 70.461806 
z
" clip-path="url(#p5cf975d5fa)" style="stroke: #000000; stroke-linejoin: miter"/>
   </g>
   <g id="patch_235">
    <path d="M 510.967972 79.65858 
L 519.426511 79.65858 
L 519.426511 71.200041 
L 510.967972 71.200041 
z
" clip-path="url(#p5cf975d5fa)" style="stroke: #000000; stroke-linejoin: miter"/>
   </g>
   <g id="patch_236">
    <path d="M 540.153933 78.639515 
L 546.574343 78.639515 
L 546.574343 72.219105 
L 540.153933 72.219105 
z
" clip-path="url(#p5cf975d5fa)" style="stroke: #000000; stroke-linejoin: miter"/>
   </g>
   <g id="patch_237">
    <path d="M 568.461338 78.499007 
L 574.600731 78.499007 
L 574.600731 72.359614 
L 568.461338 72.359614 
z
" clip-path="url(#p5cf975d5fa)" style="stroke: #000000; stroke-linejoin: miter"/>
   </g>
   <g id="patch_238">
    <path d="M 596.515258 78.611983 
L 602.880604 78.611983 
L 602.880604 72.246638 
L 596.515258 72.246638 
z
" clip-path="url(#p5cf975d5fa)" style="stroke: #000000; stroke-linejoin: miter"/>
   </g>
   <g id="patch_239">
    <path d="M 623.468237 79.825901 
L 632.261418 79.825901 
L 632.261418 71.03272 
L 623.468237 71.03272 
z
" clip-path="url(#p5cf975d5fa)" style="stroke: #000000; stroke-linejoin: miter"/>
   </g>
   <g id="patch_240">
    <path d="M 653.746551 77.714484 
L 658.316898 77.714484 
L 658.316898 73.144137 
L 653.746551 73.144137 
z
" clip-path="url(#p5cf975d5fa)" style="stroke: #000000; stroke-linejoin: miter"/>
   </g>
   <g id="patch_241">
    <path d="M 681.237857 78.390074 
L 687.159384 78.390074 
L 687.159384 72.468547 
L 681.237857 72.468547 
z
" clip-path="url(#p5cf975d5fa)" style="stroke: #000000; stroke-linejoin: miter"/>
   </g>
   <g id="patch_242">
    <path d="M 708.860181 78.934647 
L 715.870854 78.934647 
L 715.870854 71.923974 
L 708.860181 71.923974 
z
" clip-path="url(#p5cf975d5fa)" style="stroke: #000000; stroke-linejoin: miter"/>
   </g>
   <g id="patch_243">
    <path d="M 735.881255 80.080469 
L 745.183572 80.080469 
L 745.183572 70.778152 
L 735.881255 70.778152 
z
" clip-path="url(#p5cf975d5fa)" style="stroke: #000000; stroke-linejoin: miter"/>
   </g>
   <g id="patch_244">
    <path d="M 765.509855 78.618766 
L 771.888766 78.618766 
L 771.888766 72.239855 
L 765.509855 72.239855 
z
" clip-path="url(#p5cf975d5fa)" style="stroke: #000000; stroke-linejoin: miter"/>
   </g>
   <g id="patch_245">
    <path d="M 793.229108 79.066409 
L 800.503306 79.066409 
L 800.503306 71.792211 
L 793.229108 71.792211 
z
" clip-path="url(#p5cf975d5fa)" style="stroke: #000000; stroke-linejoin: miter"/>
   </g>
   <g id="matplotlib.axis_1">
    <g id="xtick_1">
     <g id="line2d_1">
      <defs>
       <path id="mef8db6838f" d="M 0 0 
L 0 3.5 
" style="stroke: #000000; stroke-width: 0.8"/>
      </defs>
      <g>
       <use xlink:href="#mef8db6838f" x="64.526897" y="328.931379" style="stroke: #000000; stroke-width: 0.8"/>
      </g>
     </g>
     <g id="text_1">
      <!-- 1 -->
      <g transform="translate(61.51674 350.082942) scale(0.1 -0.1)">
       <defs>
        <path id="DejaVuSansMono-31" d="M 844 531 
L 1825 531 
L 1825 4097 
L 769 3859 
L 769 4434 
L 1819 4666 
L 2450 4666 
L 2450 531 
L 3419 531 
L 3419 0 
L 844 0 
L 844 531 
z
" transform="scale(0.015625)"/>
       </defs>
       <use xlink:href="#DejaVuSansMono-31"/>
      </g>
     </g>
    </g>
    <g id="xtick_2">
     <g id="line2d_2">
      <g>
       <use xlink:href="#mef8db6838f" x="796.866207" y="328.931379" style="stroke: #000000; stroke-width: 0.8"/>
      </g>
     </g>
     <g id="text_2">
      <!-- 500 -->
      <g transform="translate(787.835738 350.082942) scale(0.1 -0.1)">
       <defs>
        <path id="DejaVuSansMono-35" d="M 647 4666 
L 3009 4666 
L 3009 4134 
L 1222 4134 
L 1222 2988 
Q 1356 3038 1492 3061 
Q 1628 3084 1766 3084 
Q 2491 3084 2916 2656 
Q 3341 2228 3341 1497 
Q 3341 759 2895 334 
Q 2450 -91 1678 -91 
Q 1306 -91 998 -41 
Q 691 9 447 109 
L 447 750 
Q 734 594 1025 517 
Q 1316 441 1619 441 
Q 2141 441 2423 716 
Q 2706 991 2706 1497 
Q 2706 1997 2414 2275 
Q 2122 2553 1600 2553 
Q 1347 2553 1106 2495 
Q 866 2438 647 2322 
L 647 4666 
z
" transform="scale(0.015625)"/>
        <path id="DejaVuSansMono-30" d="M 1509 2344 
Q 1509 2516 1629 2641 
Q 1750 2766 1919 2766 
Q 2094 2766 2219 2641 
Q 2344 2516 2344 2344 
Q 2344 2169 2220 2047 
Q 2097 1925 1919 1925 
Q 1744 1925 1626 2044 
Q 1509 2163 1509 2344 
z
M 1925 4250 
Q 1484 4250 1267 3775 
Q 1050 3300 1050 2328 
Q 1050 1359 1267 884 
Q 1484 409 1925 409 
Q 2369 409 2586 884 
Q 2803 1359 2803 2328 
Q 2803 3300 2586 3775 
Q 2369 4250 1925 4250 
z
M 1925 4750 
Q 2672 4750 3055 4137 
Q 3438 3525 3438 2328 
Q 3438 1134 3055 521 
Q 2672 -91 1925 -91 
Q 1178 -91 797 521 
Q 416 1134 416 2328 
Q 416 3525 797 4137 
Q 1178 4750 1925 4750 
z
" transform="scale(0.015625)"/>
       </defs>
       <use xlink:href="#DejaVuSansMono-35"/>
       <use xlink:href="#DejaVuSansMono-30" x="60.205078"/>
       <use xlink:href="#DejaVuSansMono-30" x="120.410156"/>
      </g>
     </g>
    </g>
   </g>
   <g id="matplotlib.axis_2">
    <g id="ytick_1">
     <g id="line2d_3">
      <defs>
       <path id="mb561bb3756" d="M 0 0 
L -3.5 0 
" style="stroke: #000000; stroke-width: 0.8"/>
      </defs>
      <g>
       <use xlink:href="#mb561bb3756" x="36.36" y="300.764483" style="stroke: #000000; stroke-width: 0.8"/>
      </g>
     </g>
     <g id="text_3">
      <!-- 2 -->
      <g transform="translate(16.839687 304.590264) scale(0.1 -0.1)">
       <defs>
        <path id="DejaVuSansMono-32" d="M 1166 531 
L 3309 531 
L 3309 0 
L 475 0 
L 475 531 
Q 1059 1147 1496 1619 
Q 1934 2091 2100 2284 
Q 2413 2666 2522 2902 
Q 2631 3138 2631 3384 
Q 2631 3775 2401 3997 
Q 2172 4219 1772 4219 
Q 1488 4219 1175 4116 
Q 863 4013 513 3803 
L 513 4441 
Q 834 4594 1145 4672 
Q 1456 4750 1759 4750 
Q 2444 4750 2861 4386 
Q 3278 4022 3278 3431 
Q 3278 3131 3139 2831 
Q 3000 2531 2688 2169 
Q 2513 1966 2180 1606 
Q 1847 1247 1166 531 
z
" transform="scale(0.015625)"/>
       </defs>
       <use xlink:href="#DejaVuSansMono-32"/>
      </g>
     </g>
    </g>
    <g id="ytick_2">
     <g id="line2d_4">
      <g>
       <use xlink:href="#mb561bb3756" x="36.36" y="272.597586" style="stroke: #000000; stroke-width: 0.8"/>
      </g>
     </g>
     <g id="text_4">
      <!-- 3 -->
      <g transform="translate(16.839687 276.423367) scale(0.1 -0.1)">
       <defs>
        <path id="DejaVuSansMono-33" d="M 2425 2497 
Q 2884 2375 3128 2064 
Q 3372 1753 3372 1288 
Q 3372 644 2939 276 
Q 2506 -91 1741 -91 
Q 1419 -91 1084 -31 
Q 750 28 428 141 
L 428 769 
Q 747 603 1056 522 
Q 1366 441 1672 441 
Q 2191 441 2469 675 
Q 2747 909 2747 1350 
Q 2747 1756 2469 1995 
Q 2191 2234 1716 2234 
L 1234 2234 
L 1234 2753 
L 1716 2753 
Q 2150 2753 2394 2943 
Q 2638 3134 2638 3475 
Q 2638 3834 2411 4026 
Q 2184 4219 1766 4219 
Q 1488 4219 1191 4156 
Q 894 4094 569 3969 
L 569 4550 
Q 947 4650 1242 4700 
Q 1538 4750 1766 4750 
Q 2447 4750 2855 4408 
Q 3263 4066 3263 3500 
Q 3263 3116 3048 2859 
Q 2834 2603 2425 2497 
z
" transform="scale(0.015625)"/>
       </defs>
       <use xlink:href="#DejaVuSansMono-33"/>
      </g>
     </g>
    </g>
    <g id="ytick_3">
     <g id="line2d_5">
      <g>
       <use xlink:href="#mb561bb3756" x="36.36" y="244.43069" style="stroke: #000000; stroke-width: 0.8"/>
      </g>
     </g>
     <g id="text_5">
      <!-- 5 -->
      <g transform="translate(16.839687 248.256471) scale(0.1 -0.1)">
       <use xlink:href="#DejaVuSansMono-35"/>
      </g>
     </g>
    </g>
    <g id="ytick_4">
     <g id="line2d_6">
      <g>
       <use xlink:href="#mb561bb3756" x="36.36" y="216.263793" style="stroke: #000000; stroke-width: 0.8"/>
      </g>
     </g>
     <g id="text_6">
      <!-- 7 -->
      <g transform="translate(16.839687 220.089574) scale(0.1 -0.1)">
       <defs>
        <path id="DejaVuSansMono-37" d="M 434 4666 
L 3372 4666 
L 3372 4397 
L 1703 0 
L 1044 0 
L 2669 4134 
L 434 4134 
L 434 4666 
z
" transform="scale(0.015625)"/>
       </defs>
       <use xlink:href="#DejaVuSansMono-37"/>
      </g>
     </g>
    </g>
    <g id="ytick_5">
     <g id="line2d_7">
      <g>
       <use xlink:href="#mb561bb3756" x="36.36" y="188.096897" style="stroke: #000000; stroke-width: 0.8"/>
      </g>
     </g>
     <g id="text_7">
      <!-- 11 -->
      <g transform="translate(10.819375 191.922678) scale(0.1 -0.1)">
       <use xlink:href="#DejaVuSansMono-31"/>
       <use xlink:href="#DejaVuSansMono-31" x="60.205078"/>
      </g>
     </g>
    </g>
    <g id="ytick_6">
     <g id="line2d_8">
      <g>
       <use xlink:href="#mb561bb3756" x="36.36" y="159.93" style="stroke: #000000; stroke-width: 0.8"/>
      </g>
     </g>
     <g id="text_8">
      <!-- 13 -->
      <g transform="translate(10.819375 163.755781) scale(0.1 -0.1)">
       <use xlink:href="#DejaVuSansMono-31"/>
       <use xlink:href="#DejaVuSansMono-33" x="60.205078"/>
      </g>
     </g>
    </g>
    <g id="ytick_7">
     <g id="line2d_9">
      <g>
       <use xlink:href="#mb561bb3756" x="36.36" y="131.763103" style="stroke: #000000; stroke-width: 0.8"/>
      </g>
     </g>
     <g id="text_9">
      <!-- 17 -->
      <g transform="translate(10.819375 135.588885) scale(0.1 -0.1)">
       <use xlink:href="#DejaVuSansMono-31"/>
       <use xlink:href="#DejaVuSansMono-37" x="60.205078"/>
      </g>
     </g>
    </g>
    <g id="ytick_8">
     <g id="line2d_10">
      <g>
       <use xlink:href="#mb561bb3756" x="36.36" y="103.596207" style="stroke: #000000; stroke-width: 0.8"/>
      </g>
     </g>
     <g id="text_10">
      <!-- 19 -->
      <g transform="translate(10.819375 107.421988) scale(0.1 -0.1)">
       <defs>
        <path id="DejaVuSansMono-39" d="M 1863 2069 
Q 2266 2069 2495 2359 
Q 2725 2650 2725 3163 
Q 2725 3675 2495 3965 
Q 2266 4256 1863 4256 
Q 1444 4256 1231 3979 
Q 1019 3703 1019 3163 
Q 1019 2619 1230 2344 
Q 1441 2069 1863 2069 
z
M 738 97 
L 738 678 
Q 934 563 1156 502 
Q 1378 441 1619 441 
Q 2219 441 2526 892 
Q 2834 1344 2834 2222 
Q 2688 1909 2422 1742 
Q 2156 1575 1813 1575 
Q 1138 1575 767 1990 
Q 397 2406 397 3169 
Q 397 3922 776 4336 
Q 1156 4750 1850 4750 
Q 2663 4750 3041 4165 
Q 3419 3581 3419 2328 
Q 3419 1150 2964 529 
Q 2509 -91 1644 -91 
Q 1416 -91 1184 -42 
Q 953 6 738 97 
z
" transform="scale(0.015625)"/>
       </defs>
       <use xlink:href="#DejaVuSansMono-31"/>
       <use xlink:href="#DejaVuSansMono-39" x="60.205078"/>
      </g>
     </g>
    </g>
    <g id="ytick_9">
     <g id="line2d_11">
      <g>
       <use xlink:href="#mb561bb3756" x="36.36" y="75.42931" style="stroke: #000000; stroke-width: 0.8"/>
      </g>
     </g>
     <g id="text_11">
      <!--  -->
      <g transform="translate(16.839687 79.255092) scale(0.1 -0.1)">
       <defs>
        <path id="DejaVuSansMono-2119" d="M 506 4353 
L 506 313 
L 1106 313 
L 1106 4353 
L 506 4353 
z
M 1406 4353 
L 1406 2284 
L 2306 2284 
Q 2378 2284 2447 2291 
L 2447 4347 
Q 2378 4353 2306 4353 
L 1406 4353 
z
M 206 4666 
L 2166 4666 
Q 2913 4666 3297 4323 
Q 3681 3981 3681 3322 
Q 3681 2656 3297 2315 
Q 2913 1975 2163 1975 
L 1406 1975 
L 1406 0 
L 206 0 
L 206 4666 
z
M 2759 4281 
L 2759 2359 
Q 2941 2428 3075 2556 
Q 3353 2825 3353 3322 
Q 3353 3816 3078 4084 
Q 2947 4213 2759 4281 
z
" transform="scale(0.015625)"/>
       </defs>
       <use xlink:href="#DejaVuSansMono-2119"/>
      </g>
     </g>
    </g>
   </g>
  </g>
 </g>
 <defs>
  <clipPath id="p5cf975d5fa">
   <rect x="36.36" y="19.095517" width="816.84" height="309.835862"/>
  </clipPath>
 </defs>
</svg>
