<?xml version="1.0" encoding="utf-8" standalone="no"?>
<!DOCTYPE svg PUBLIC "-//W3C//DTD SVG 1.1//EN"
  "http://www.w3.org/Graphics/SVG/1.1/DTD/svg11.dtd">
<svg xmlns:xlink="http://www.w3.org/1999/xlink" width="864pt" height="360pt" viewBox="0 0 864 360" xmlns="http://www.w3.org/2000/svg" version="1.1">
 <metadata>
  <rdf:RDF xmlns:dc="http://purl.org/dc/elements/1.1/" xmlns:cc="http://creativecommons.org/ns#" xmlns:rdf="http://www.w3.org/1999/02/22-rdf-syntax-ns#">
   <cc:Work>
    <dc:type rdf:resource="http://purl.org/dc/dcmitype/StillImage"/>
    <dc:date>2024-09-16T23:35:15.303466</dc:date>
    <dc:format>image/svg+xml</dc:format>
    <dc:creator>
     <cc:Agent>
      <dc:title>Matplotlib v3.9.2, https://matplotlib.org/</dc:title>
     </cc:Agent>
    </dc:creator>
   </cc:Work>
  </rdf:RDF>
 </metadata>
 <defs>
  <style type="text/css">*{stroke-linejoin: round; stroke-linecap: butt}</style>
 </defs>
 <g id="figure_1">
  <g id="patch_1">
   <path d="M 0 360 
L 864 360 
L 864 0 
L 0 0 
z
" style="fill: #ffffff"/>
  </g>
  <g id="axes_1">
   <g id="patch_2">
    <path d="M 36.36 328.931379 
L 853.2 328.931379 
L 853.2 19.095517 
L 36.36 19.095517 
z
" style="fill: #ffffff"/>
   </g>
   <g id="patch_3">
    <path d="M 57.628856 307.662523 
L 71.424937 307.662523 
L 71.424937 293.866442 
L 57.628856 293.866442 
z
" clip-path="url(#p804f92b369)" style="stroke: #000000; stroke-linejoin: miter"/>
   </g>
   <g id="patch_4">
    <path d="M 85.59614 307.862135 
L 99.791446 307.862135 
L 99.791446 293.66683 
L 85.59614 293.66683 
z
" clip-path="url(#p804f92b369)" style="stroke: #000000; stroke-linejoin: miter"/>
   </g>
   <g id="patch_5">
    <path d="M 113.831952 307.79322 
L 127.889427 307.79322 
L 127.889427 293.735745 
L 113.831952 293.735745 
z
" clip-path="url(#p804f92b369)" style="stroke: #000000; stroke-linejoin: miter"/>
   </g>
   <g id="patch_6">
    <path d="M 141.777591 308.014478 
L 156.277581 308.014478 
L 156.277581 293.514488 
L 141.777591 293.514488 
z
" clip-path="url(#p804f92b369)" style="stroke: #000000; stroke-linejoin: miter"/>
   </g>
   <g id="patch_7">
    <path d="M 169.618571 308.340394 
L 184.770394 308.340394 
L 184.770394 293.188571 
L 169.618571 293.188571 
z
" clip-path="url(#p804f92b369)" style="stroke: #000000; stroke-linejoin: miter"/>
   </g>
   <g id="patch_8">
    <path d="M 197.858386 308.267476 
L 212.864373 308.267476 
L 212.864373 293.261489 
L 197.858386 293.261489 
z
" clip-path="url(#p804f92b369)" style="stroke: #000000; stroke-linejoin: miter"/>
   </g>
   <g id="patch_9">
    <path d="M 225.974009 308.31875 
L 241.082543 308.31875 
L 241.082543 293.210216 
L 225.974009 293.210216 
z
" clip-path="url(#p804f92b369)" style="stroke: #000000; stroke-linejoin: miter"/>
   </g>
   <g id="patch_10">
    <path d="M 254.354395 308.105261 
L 269.03595 308.105261 
L 269.03595 293.423705 
L 254.354395 293.423705 
z
" clip-path="url(#p804f92b369)" style="stroke: #000000; stroke-linejoin: miter"/>
   </g>
   <g id="patch_11">
    <path d="M 282.594193 308.032359 
L 297.129945 308.032359 
L 297.129945 293.496607 
L 282.594193 293.496607 
z
" clip-path="url(#p804f92b369)" style="stroke: #000000; stroke-linejoin: miter"/>
   </g>
   <g id="patch_12">
    <path d="M 310.392998 308.40045 
L 325.664933 308.40045 
L 325.664933 293.128516 
L 310.392998 293.128516 
z
" clip-path="url(#p804f92b369)" style="stroke: #000000; stroke-linejoin: miter"/>
   </g>
   <g id="patch_13">
    <path d="M 338.871075 308.089269 
L 353.520649 308.089269 
L 353.520649 293.439696 
L 338.871075 293.439696 
z
" clip-path="url(#p804f92b369)" style="stroke: #000000; stroke-linejoin: miter"/>
   </g>
   <g id="patch_14">
    <path d="M 366.710978 308.416263 
L 382.014539 308.416263 
L 382.014539 293.112702 
L 366.710978 293.112702 
z
" clip-path="url(#p804f92b369)" style="stroke: #000000; stroke-linejoin: miter"/>
   </g>
   <g id="patch_15">
    <path d="M 395.029979 308.264159 
L 410.029332 308.264159 
L 410.029332 293.264806 
L 395.029979 293.264806 
z
" clip-path="url(#p804f92b369)" style="stroke: #000000; stroke-linejoin: miter"/>
   </g>
   <g id="patch_16">
    <path d="M 423.358997 308.102038 
L 438.034107 308.102038 
L 438.034107 293.426928 
L 423.358997 293.426928 
z
" clip-path="url(#p804f92b369)" style="stroke: #000000; stroke-linejoin: miter"/>
   </g>
   <g id="patch_17">
    <path d="M 451.404256 308.223675 
L 466.32264 308.223675 
L 466.32264 293.305291 
L 451.404256 293.305291 
z
" clip-path="url(#p804f92b369)" style="stroke: #000000; stroke-linejoin: miter"/>
   </g>
   <g id="patch_18">
    <path d="M 479.701282 308.093546 
L 494.359408 308.093546 
L 494.359408 293.435419 
L 479.701282 293.435419 
z
" clip-path="url(#p804f92b369)" style="stroke: #000000; stroke-linejoin: miter"/>
   </g>
   <g id="patch_19">
    <path d="M 507.744279 308.217445 
L 522.650203 308.217445 
L 522.650203 293.311521 
L 507.744279 293.311521 
z
" clip-path="url(#p804f92b369)" style="stroke: #000000; stroke-linejoin: miter"/>
   </g>
   <g id="patch_20">
    <path d="M 535.767798 308.360822 
L 550.960478 308.360822 
L 550.960478 293.168143 
L 535.767798 293.168143 
z
" clip-path="url(#p804f92b369)" style="stroke: #000000; stroke-linejoin: miter"/>
   </g>
   <g id="patch_21">
    <path d="M 564.405438 307.890079 
L 578.656631 307.890079 
L 578.656631 293.638886 
L 564.405438 293.638886 
z
" clip-path="url(#p804f92b369)" style="stroke: #000000; stroke-linejoin: miter"/>
   </g>
   <g id="patch_22">
    <path d="M 592.313508 308.148906 
L 607.082355 308.148906 
L 607.082355 293.380059 
L 592.313508 293.380059 
z
" clip-path="url(#p804f92b369)" style="stroke: #000000; stroke-linejoin: miter"/>
   </g>
   <g id="patch_23">
    <path d="M 620.771513 307.857797 
L 634.958142 307.857797 
L 634.958142 293.671168 
L 620.771513 293.671168 
z
" clip-path="url(#p804f92b369)" style="stroke: #000000; stroke-linejoin: miter"/>
   </g>
   <g id="patch_24">
    <path d="M 648.576897 308.21931 
L 663.486551 308.21931 
L 663.486551 293.309656 
L 648.576897 293.309656 
z
" clip-path="url(#p804f92b369)" style="stroke: #000000; stroke-linejoin: miter"/>
   </g>
   <g id="patch_25">
    <path d="M 676.73425 308.228854 
L 691.662992 308.228854 
L 691.662992 293.300112 
L 676.73425 293.300112 
z
" clip-path="url(#p804f92b369)" style="stroke: #000000; stroke-linejoin: miter"/>
   </g>
   <g id="patch_26">
    <path d="M 705.057445 308.072555 
L 719.67359 308.072555 
L 719.67359 293.45641 
L 705.057445 293.45641 
z
" clip-path="url(#p804f92b369)" style="stroke: #000000; stroke-linejoin: miter"/>
   </g>
   <g id="patch_27">
    <path d="M 733.122404 308.174492 
L 747.942423 308.174492 
L 747.942423 293.354473 
L 733.122404 293.354473 
z
" clip-path="url(#p804f92b369)" style="stroke: #000000; stroke-linejoin: miter"/>
   </g>
   <g id="patch_28">
    <path d="M 761.45827 308.005523 
L 775.94035 308.005523 
L 775.94035 293.523443 
L 761.45827 293.523443 
z
" clip-path="url(#p804f92b369)" style="stroke: #000000; stroke-linejoin: miter"/>
   </g>
   <g id="patch_29">
    <path d="M 789.689451 307.941239 
L 804.042963 307.941239 
L 804.042963 293.587727 
L 789.689451 293.587727 
z
" clip-path="url(#p804f92b369)" style="stroke: #000000; stroke-linejoin: miter"/>
   </g>
   <g id="patch_30">
    <path d="M 56.445534 280.678949 
L 72.608259 280.678949 
L 72.608259 264.516223 
L 56.445534 264.516223 
z
" clip-path="url(#p804f92b369)" style="stroke: #000000; stroke-linejoin: miter"/>
   </g>
   <g id="patch_31">
    <path d="M 85.770352 279.521028 
L 99.617235 279.521028 
L 99.617235 265.674145 
L 85.770352 265.674145 
z
" clip-path="url(#p804f92b369)" style="stroke: #000000; stroke-linejoin: miter"/>
   </g>
   <g id="patch_32">
    <path d="M 114.101999 279.356276 
L 127.61938 279.356276 
L 127.61938 265.838896 
L 114.101999 265.838896 
z
" clip-path="url(#p804f92b369)" style="stroke: #000000; stroke-linejoin: miter"/>
   </g>
   <g id="patch_33">
    <path d="M 142.315277 279.309896 
L 155.739896 279.309896 
L 155.739896 265.885277 
L 142.315277 265.885277 
z
" clip-path="url(#p804f92b369)" style="stroke: #000000; stroke-linejoin: miter"/>
   </g>
   <g id="patch_34">
    <path d="M 170.683605 279.108464 
L 183.705361 279.108464 
L 183.705361 266.086708 
L 170.683605 266.086708 
z
" clip-path="url(#p804f92b369)" style="stroke: #000000; stroke-linejoin: miter"/>
   </g>
   <g id="patch_35">
    <path d="M 198.686354 279.272611 
L 212.036404 279.272611 
L 212.036404 265.922561 
L 198.686354 265.922561 
z
" clip-path="url(#p804f92b369)" style="stroke: #000000; stroke-linejoin: miter"/>
   </g>
   <g id="patch_36">
    <path d="M 226.623751 279.502111 
L 240.432801 279.502111 
L 240.432801 265.693062 
L 226.623751 265.693062 
z
" clip-path="url(#p804f92b369)" style="stroke: #000000; stroke-linejoin: miter"/>
   </g>
   <g id="patch_37">
    <path d="M 255.028639 279.26412 
L 268.361706 279.26412 
L 268.361706 265.931053 
L 255.028639 265.931053 
z
" clip-path="url(#p804f92b369)" style="stroke: #000000; stroke-linejoin: miter"/>
   </g>
   <g id="patch_38">
    <path d="M 283.108917 279.350738 
L 296.61522 279.350738 
L 296.61522 265.844435 
L 283.108917 265.844435 
z
" clip-path="url(#p804f92b369)" style="stroke: #000000; stroke-linejoin: miter"/>
   </g>
   <g id="patch_39">
    <path d="M 311.488438 279.138113 
L 324.569493 279.138113 
L 324.569493 266.057059 
L 311.488438 266.057059 
z
" clip-path="url(#p804f92b369)" style="stroke: #000000; stroke-linejoin: miter"/>
   </g>
   <g id="patch_40">
    <path d="M 339.635265 279.158183 
L 352.756459 279.158183 
L 352.756459 266.036989 
L 339.635265 266.036989 
z
" clip-path="url(#p804f92b369)" style="stroke: #000000; stroke-linejoin: miter"/>
   </g>
   <g id="patch_41">
    <path d="M 367.793501 279.166844 
L 380.932016 279.166844 
L 380.932016 266.028328 
L 367.793501 266.028328 
z
" clip-path="url(#p804f92b369)" style="stroke: #000000; stroke-linejoin: miter"/>
   </g>
   <g id="patch_42">
    <path d="M 395.698012 279.42923 
L 409.361299 279.42923 
L 409.361299 265.765943 
L 395.698012 265.765943 
z
" clip-path="url(#p804f92b369)" style="stroke: #000000; stroke-linejoin: miter"/>
   </g>
   <g id="patch_43">
    <path d="M 424.108965 279.185173 
L 437.284138 279.185173 
L 437.284138 266.009999 
L 424.108965 266.009999 
z
" clip-path="url(#p804f92b369)" style="stroke: #000000; stroke-linejoin: miter"/>
   </g>
   <g id="patch_44">
    <path d="M 452.313311 279.147723 
L 465.413585 279.147723 
L 465.413585 266.047449 
L 452.313311 266.047449 
z
" clip-path="url(#p804f92b369)" style="stroke: #000000; stroke-linejoin: miter"/>
   </g>
   <g id="patch_45">
    <path d="M 480.450634 279.177297 
L 493.610056 279.177297 
L 493.610056 266.017875 
L 480.450634 266.017875 
z
" clip-path="url(#p804f92b369)" style="stroke: #000000; stroke-linejoin: miter"/>
   </g>
   <g id="patch_46">
    <path d="M 508.475291 279.319537 
L 521.919192 279.319537 
L 521.919192 265.875636 
L 508.475291 265.875636 
z
" clip-path="url(#p804f92b369)" style="stroke: #000000; stroke-linejoin: miter"/>
   </g>
   <g id="patch_47">
    <path d="M 536.660735 279.300989 
L 550.067541 279.300989 
L 550.067541 265.894183 
L 536.660735 265.894183 
z
" clip-path="url(#p804f92b369)" style="stroke: #000000; stroke-linejoin: miter"/>
   </g>
   <g id="patch_48">
    <path d="M 565.046457 279.082163 
L 578.015612 279.082163 
L 578.015612 266.113009 
L 565.046457 266.113009 
z
" clip-path="url(#p804f92b369)" style="stroke: #000000; stroke-linejoin: miter"/>
   </g>
   <g id="patch_49">
    <path d="M 593.127321 279.168196 
L 606.268541 279.168196 
L 606.268541 266.026977 
L 593.127321 266.026977 
z
" clip-path="url(#p804f92b369)" style="stroke: #000000; stroke-linejoin: miter"/>
   </g>
   <g id="patch_50">
    <path d="M 621.251125 279.211289 
L 634.47853 279.211289 
L 634.47853 265.983884 
L 621.251125 265.983884 
z
" clip-path="url(#p804f92b369)" style="stroke: #000000; stroke-linejoin: miter"/>
   </g>
   <g id="patch_51">
    <path d="M 649.476203 279.153108 
L 662.587245 279.153108 
L 662.587245 266.042065 
L 649.476203 266.042065 
z
" clip-path="url(#p804f92b369)" style="stroke: #000000; stroke-linejoin: miter"/>
   </g>
   <g id="patch_52">
    <path d="M 677.611904 279.184303 
L 690.785337 279.184303 
L 690.785337 266.01087 
L 677.611904 266.01087 
z
" clip-path="url(#p804f92b369)" style="stroke: #000000; stroke-linejoin: miter"/>
   </g>
   <g id="patch_53">
    <path d="M 705.827272 279.135831 
L 718.903762 279.135831 
L 718.903762 266.059341 
L 705.827272 266.059341 
z
" clip-path="url(#p804f92b369)" style="stroke: #000000; stroke-linejoin: miter"/>
   </g>
   <g id="patch_54">
    <path d="M 733.912889 279.217111 
L 747.151938 279.217111 
L 747.151938 265.978062 
L 733.912889 265.978062 
z
" clip-path="url(#p804f92b369)" style="stroke: #000000; stroke-linejoin: miter"/>
   </g>
   <g id="patch_55">
    <path d="M 762.158596 279.1383 
L 775.240025 279.1383 
L 775.240025 266.056872 
L 762.158596 266.056872 
z
" clip-path="url(#p804f92b369)" style="stroke: #000000; stroke-linejoin: miter"/>
   </g>
   <g id="patch_56">
    <path d="M 790.204551 279.259242 
L 803.527863 279.259242 
L 803.527863 265.93593 
L 790.204551 265.93593 
z
" clip-path="url(#p804f92b369)" style="stroke: #000000; stroke-linejoin: miter"/>
   </g>
   <g id="patch_57">
    <path d="M 58.002756 250.95483 
L 71.051037 250.95483 
L 71.051037 237.90655 
L 58.002756 237.90655 
z
" clip-path="url(#p804f92b369)" style="stroke: #000000; stroke-linejoin: miter"/>
   </g>
   <g id="patch_58">
    <path d="M 86.382032 250.742451 
L 99.005554 250.742451 
L 99.005554 238.118929 
L 86.382032 238.118929 
z
" clip-path="url(#p804f92b369)" style="stroke: #000000; stroke-linejoin: miter"/>
   </g>
   <g id="patch_59">
    <path d="M 114.823275 250.468105 
L 126.898105 250.468105 
L 126.898105 238.393275 
L 114.823275 238.393275 
z
" clip-path="url(#p804f92b369)" style="stroke: #000000; stroke-linejoin: miter"/>
   </g>
   <g id="patch_60">
    <path d="M 142.869893 250.588383 
L 155.185279 250.588383 
L 155.185279 238.272997 
L 142.869893 238.272997 
z
" clip-path="url(#p804f92b369)" style="stroke: #000000; stroke-linejoin: miter"/>
   </g>
   <g id="patch_61">
    <path d="M 171.208388 250.416784 
L 183.180578 250.416784 
L 183.180578 238.444595 
L 171.208388 238.444595 
z
" clip-path="url(#p804f92b369)" style="stroke: #000000; stroke-linejoin: miter"/>
   </g>
   <g id="patch_62">
    <path d="M 199.220771 250.571298 
L 211.501987 250.571298 
L 211.501987 238.290082 
L 199.220771 238.290082 
z
" clip-path="url(#p804f92b369)" style="stroke: #000000; stroke-linejoin: miter"/>
   </g>
   <g id="patch_63">
    <path d="M 227.536879 250.422087 
L 239.519673 250.422087 
L 239.519673 238.439293 
L 227.536879 238.439293 
z
" clip-path="url(#p804f92b369)" style="stroke: #000000; stroke-linejoin: miter"/>
   </g>
   <g id="patch_64">
    <path d="M 255.570655 250.555207 
L 267.81969 250.555207 
L 267.81969 238.306172 
L 255.570655 238.306172 
z
" clip-path="url(#p804f92b369)" style="stroke: #000000; stroke-linejoin: miter"/>
   </g>
   <g id="patch_65">
    <path d="M 283.749169 250.54359 
L 295.974969 250.54359 
L 295.974969 238.31779 
L 283.749169 238.31779 
z
" clip-path="url(#p804f92b369)" style="stroke: #000000; stroke-linejoin: miter"/>
   </g>
   <g id="patch_66">
    <path d="M 312.052279 250.407376 
L 324.005652 250.407376 
L 324.005652 238.454004 
L 312.052279 238.454004 
z
" clip-path="url(#p804f92b369)" style="stroke: #000000; stroke-linejoin: miter"/>
   </g>
   <g id="patch_67">
    <path d="M 340.257677 250.368875 
L 352.134047 250.368875 
L 352.134047 238.492504 
L 340.257677 238.492504 
z
" clip-path="url(#p804f92b369)" style="stroke: #000000; stroke-linejoin: miter"/>
   </g>
   <g id="patch_68">
    <path d="M 368.487175 250.306273 
L 380.238342 250.306273 
L 380.238342 238.555106 
L 368.487175 238.555106 
z
" clip-path="url(#p804f92b369)" style="stroke: #000000; stroke-linejoin: miter"/>
   </g>
   <g id="patch_69">
    <path d="M 396.479735 250.48061 
L 408.579576 250.48061 
L 408.579576 238.380769 
L 396.479735 238.380769 
z
" clip-path="url(#p804f92b369)" style="stroke: #000000; stroke-linejoin: miter"/>
   </g>
   <g id="patch_70">
    <path d="M 424.73194 250.395302 
L 436.661164 250.395302 
L 436.661164 238.466078 
L 424.73194 238.466078 
z
" clip-path="url(#p804f92b369)" style="stroke: #000000; stroke-linejoin: miter"/>
   </g>
   <g id="patch_71">
    <path d="M 452.846517 250.447621 
L 464.88038 250.447621 
L 464.88038 238.413758 
L 452.846517 238.413758 
z
" clip-path="url(#p804f92b369)" style="stroke: #000000; stroke-linejoin: miter"/>
   </g>
   <g id="patch_72">
    <path d="M 481.073716 250.387318 
L 492.986973 250.387318 
L 492.986973 238.474061 
L 481.073716 238.474061 
z
" clip-path="url(#p804f92b369)" style="stroke: #000000; stroke-linejoin: miter"/>
   </g>
   <g id="patch_73">
    <path d="M 509.383805 250.244126 
L 521.010677 250.244126 
L 521.010677 238.617254 
L 509.383805 238.617254 
z
" clip-path="url(#p804f92b369)" style="stroke: #000000; stroke-linejoin: miter"/>
   </g>
   <g id="patch_74">
    <path d="M 537.469716 250.325111 
L 549.25856 250.325111 
L 549.25856 238.536268 
L 537.469716 238.536268 
z
" clip-path="url(#p804f92b369)" style="stroke: #000000; stroke-linejoin: miter"/>
   </g>
   <g id="patch_75">
    <path d="M 565.52546 250.436264 
L 577.536608 250.436264 
L 577.536608 238.425116 
L 565.52546 238.425116 
z
" clip-path="url(#p804f92b369)" style="stroke: #000000; stroke-linejoin: miter"/>
   </g>
   <g id="patch_76">
    <path d="M 593.617993 250.510628 
L 605.777869 250.510628 
L 605.777869 238.350751 
L 593.617993 238.350751 
z
" clip-path="url(#p804f92b369)" style="stroke: #000000; stroke-linejoin: miter"/>
   </g>
   <g id="patch_77">
    <path d="M 622.049736 250.245781 
L 633.679919 250.245781 
L 633.679919 238.615598 
L 622.049736 238.615598 
z
" clip-path="url(#p804f92b369)" style="stroke: #000000; stroke-linejoin: miter"/>
   </g>
   <g id="patch_78">
    <path d="M 650.003587 250.458827 
L 662.059861 250.458827 
L 662.059861 238.402552 
L 650.003587 238.402552 
z
" clip-path="url(#p804f92b369)" style="stroke: #000000; stroke-linejoin: miter"/>
   </g>
   <g id="patch_79">
    <path d="M 678.355259 250.274051 
L 690.041982 250.274051 
L 690.041982 238.587328 
L 678.355259 238.587328 
z
" clip-path="url(#p804f92b369)" style="stroke: #000000; stroke-linejoin: miter"/>
   </g>
   <g id="patch_80">
    <path d="M 706.561918 250.234289 
L 718.169116 250.234289 
L 718.169116 238.627091 
L 706.561918 238.627091 
z
" clip-path="url(#p804f92b369)" style="stroke: #000000; stroke-linejoin: miter"/>
   </g>
   <g id="patch_81">
    <path d="M 734.44439 250.518714 
L 746.620438 250.518714 
L 746.620438 238.342666 
L 734.44439 238.342666 
z
" clip-path="url(#p804f92b369)" style="stroke: #000000; stroke-linejoin: miter"/>
   </g>
   <g id="patch_82">
    <path d="M 762.865952 250.264048 
L 774.532669 250.264048 
L 774.532669 238.597331 
L 762.865952 238.597331 
z
" clip-path="url(#p804f92b369)" style="stroke: #000000; stroke-linejoin: miter"/>
   </g>
   <g id="patch_83">
    <path d="M 790.933049 250.363847 
L 802.799365 250.363847 
L 802.799365 238.497532 
L 790.933049 238.497532 
z
" clip-path="url(#p804f92b369)" style="stroke: #000000; stroke-linejoin: miter"/>
   </g>
   <g id="patch_84">
    <path d="M 57.66241 223.128279 
L 71.391383 223.128279 
L 71.391383 209.399307 
L 57.66241 209.399307 
z
" clip-path="url(#p804f92b369)" style="stroke: #000000; stroke-linejoin: miter"/>
   </g>
   <g id="patch_85">
    <path d="M 85.770683 223.186903 
L 99.616903 223.186903 
L 99.616903 209.340683 
L 85.770683 209.340683 
z
" clip-path="url(#p804f92b369)" style="stroke: #000000; stroke-linejoin: miter"/>
   </g>
   <g id="patch_86">
    <path d="M 114.508049 222.616434 
L 127.21333 222.616434 
L 127.21333 209.911152 
L 114.508049 209.911152 
z
" clip-path="url(#p804f92b369)" style="stroke: #000000; stroke-linejoin: miter"/>
   </g>
   <g id="patch_87">
    <path d="M 142.996278 222.295102 
L 155.058895 222.295102 
L 155.058895 210.232485 
L 142.996278 210.232485 
z
" clip-path="url(#p804f92b369)" style="stroke: #000000; stroke-linejoin: miter"/>
   </g>
   <g id="patch_88">
    <path d="M 171.340296 222.117979 
L 183.048669 222.117979 
L 183.048669 210.409607 
L 171.340296 210.409607 
z
" clip-path="url(#p804f92b369)" style="stroke: #000000; stroke-linejoin: miter"/>
   </g>
   <g id="patch_89">
    <path d="M 199.304552 222.32062 
L 211.418207 222.32062 
L 211.418207 210.206966 
L 199.304552 210.206966 
z
" clip-path="url(#p804f92b369)" style="stroke: #000000; stroke-linejoin: miter"/>
   </g>
   <g id="patch_90">
    <path d="M 227.708824 222.083245 
L 239.347728 222.083245 
L 239.347728 210.444341 
L 227.708824 210.444341 
z
" clip-path="url(#p804f92b369)" style="stroke: #000000; stroke-linejoin: miter"/>
   </g>
   <g id="patch_91">
    <path d="M 255.943082 222.015883 
L 267.447263 222.015883 
L 267.447263 210.511703 
L 255.943082 210.511703 
z
" clip-path="url(#p804f92b369)" style="stroke: #000000; stroke-linejoin: miter"/>
   </g>
   <g id="patch_92">
    <path d="M 283.842107 222.283755 
L 295.882031 222.283755 
L 295.882031 210.243831 
L 283.842107 210.243831 
z
" clip-path="url(#p804f92b369)" style="stroke: #000000; stroke-linejoin: miter"/>
   </g>
   <g id="patch_93">
    <path d="M 312.053351 222.239407 
L 324.00458 222.239407 
L 324.00458 210.288179 
L 312.053351 210.288179 
z
" clip-path="url(#p804f92b369)" style="stroke: #000000; stroke-linejoin: miter"/>
   </g>
   <g id="patch_94">
    <path d="M 340.420099 222.039556 
L 351.971625 222.039556 
L 351.971625 210.48803 
L 340.420099 210.48803 
z
" clip-path="url(#p804f92b369)" style="stroke: #000000; stroke-linejoin: miter"/>
   </g>
   <g id="patch_95">
    <path d="M 368.464094 222.162458 
L 380.261424 222.162458 
L 380.261424 210.365128 
L 368.464094 210.365128 
z
" clip-path="url(#p804f92b369)" style="stroke: #000000; stroke-linejoin: miter"/>
   </g>
   <g id="patch_96">
    <path d="M 396.902954 221.890494 
L 408.156356 221.890494 
L 408.156356 210.637092 
L 396.902954 210.637092 
z
" clip-path="url(#p804f92b369)" style="stroke: #000000; stroke-linejoin: miter"/>
   </g>
   <g id="patch_97">
    <path d="M 424.588537 222.371807 
L 436.804566 222.371807 
L 436.804566 210.155779 
L 424.588537 210.155779 
z
" clip-path="url(#p804f92b369)" style="stroke: #000000; stroke-linejoin: miter"/>
   </g>
   <g id="patch_98">
    <path d="M 453.203247 221.923994 
L 464.52365 221.923994 
L 464.52365 210.603592 
L 453.203247 210.603592 
z
" clip-path="url(#p804f92b369)" style="stroke: #000000; stroke-linejoin: miter"/>
   </g>
   <g id="patch_99">
    <path d="M 481.043071 222.251067 
L 493.017618 222.251067 
L 493.017618 210.27652 
L 481.043071 210.27652 
z
" clip-path="url(#p804f92b369)" style="stroke: #000000; stroke-linejoin: miter"/>
   </g>
   <g id="patch_100">
    <path d="M 509.593165 221.86787 
L 520.801318 221.86787 
L 520.801318 210.659716 
L 509.593165 210.659716 
z
" clip-path="url(#p804f92b369)" style="stroke: #000000; stroke-linejoin: miter"/>
   </g>
   <g id="patch_101">
    <path d="M 537.600091 222.027841 
L 549.128185 222.027841 
L 549.128185 210.499746 
L 537.600091 210.499746 
z
" clip-path="url(#p804f92b369)" style="stroke: #000000; stroke-linejoin: miter"/>
   </g>
   <g id="patch_102">
    <path d="M 565.751314 222.043513 
L 577.310755 222.043513 
L 577.310755 210.484073 
L 565.751314 210.484073 
z
" clip-path="url(#p804f92b369)" style="stroke: #000000; stroke-linejoin: miter"/>
   </g>
   <g id="patch_103">
    <path d="M 594.036599 221.925125 
L 605.359263 221.925125 
L 605.359263 210.602461 
L 594.036599 210.602461 
z
" clip-path="url(#p804f92b369)" style="stroke: #000000; stroke-linejoin: miter"/>
   </g>
   <g id="patch_104">
    <path d="M 622.126098 222.002523 
L 633.603558 222.002523 
L 633.603558 210.525063 
L 622.126098 210.525063 
z
" clip-path="url(#p804f92b369)" style="stroke: #000000; stroke-linejoin: miter"/>
   </g>
   <g id="patch_105">
    <path d="M 650.334867 221.960651 
L 661.728582 221.960651 
L 661.728582 210.566936 
L 650.334867 210.566936 
z
" clip-path="url(#p804f92b369)" style="stroke: #000000; stroke-linejoin: miter"/>
   </g>
   <g id="patch_106">
    <path d="M 678.235665 222.226749 
L 690.161576 222.226749 
L 690.161576 210.300838 
L 678.235665 210.300838 
z
" clip-path="url(#p804f92b369)" style="stroke: #000000; stroke-linejoin: miter"/>
   </g>
   <g id="patch_107">
    <path d="M 706.228259 222.401051 
L 718.502775 222.401051 
L 718.502775 210.126535 
L 706.228259 210.126535 
z
" clip-path="url(#p804f92b369)" style="stroke: #000000; stroke-linejoin: miter"/>
   </g>
   <g id="patch_108">
    <path d="M 734.854904 221.941303 
L 746.209923 221.941303 
L 746.209923 210.586283 
L 734.854904 210.586283 
z
" clip-path="url(#p804f92b369)" style="stroke: #000000; stroke-linejoin: miter"/>
   </g>
   <g id="patch_109">
    <path d="M 763.146432 221.816672 
L 774.252189 221.816672 
L 774.252189 210.710914 
L 763.146432 210.710914 
z
" clip-path="url(#p804f92b369)" style="stroke: #000000; stroke-linejoin: miter"/>
   </g>
   <g id="patch_110">
    <path d="M 791.111163 222.018837 
L 802.62125 222.018837 
L 802.62125 210.50875 
L 791.111163 210.50875 
z
" clip-path="url(#p804f92b369)" style="stroke: #000000; stroke-linejoin: miter"/>
   </g>
   <g id="patch_111">
    <path d="M 56.985282 195.638511 
L 72.068511 195.638511 
L 72.068511 180.555282 
L 56.985282 180.555282 
z
" clip-path="url(#p804f92b369)" style="stroke: #000000; stroke-linejoin: miter"/>
   </g>
   <g id="patch_112">
    <path d="M 86.454294 194.336395 
L 98.933292 194.336395 
L 98.933292 181.857398 
L 86.454294 181.857398 
z
" clip-path="url(#p804f92b369)" style="stroke: #000000; stroke-linejoin: miter"/>
   </g>
   <g id="patch_113">
    <path d="M 114.876139 194.081447 
L 126.84524 194.081447 
L 126.84524 182.112346 
L 114.876139 182.112346 
z
" clip-path="url(#p804f92b369)" style="stroke: #000000; stroke-linejoin: miter"/>
   </g>
   <g id="patch_114">
    <path d="M 143.16456 193.959922 
L 154.890612 193.959922 
L 154.890612 182.233871 
L 143.16456 182.233871 
z
" clip-path="url(#p804f92b369)" style="stroke: #000000; stroke-linejoin: miter"/>
   </g>
   <g id="patch_115">
    <path d="M 171.712727 193.578652 
L 182.676238 193.578652 
L 182.676238 182.615141 
L 171.712727 182.615141 
z
" clip-path="url(#p804f92b369)" style="stroke: #000000; stroke-linejoin: miter"/>
   </g>
   <g id="patch_116">
    <path d="M 199.63078 193.827496 
L 211.091979 193.827496 
L 211.091979 182.366297 
L 199.63078 182.366297 
z
" clip-path="url(#p804f92b369)" style="stroke: #000000; stroke-linejoin: miter"/>
   </g>
   <g id="patch_117">
    <path d="M 227.720624 193.904549 
L 239.335928 193.904549 
L 239.335928 182.289245 
L 227.720624 182.289245 
z
" clip-path="url(#p804f92b369)" style="stroke: #000000; stroke-linejoin: miter"/>
   </g>
   <g id="patch_118">
    <path d="M 256.40471 193.387359 
L 266.985635 193.387359 
L 266.985635 182.806434 
L 256.40471 182.806434 
z
" clip-path="url(#p804f92b369)" style="stroke: #000000; stroke-linejoin: miter"/>
   </g>
   <g id="patch_119">
    <path d="M 284.32646 193.632505 
L 295.397678 193.632505 
L 295.397678 182.561288 
L 284.32646 182.561288 
z
" clip-path="url(#p804f92b369)" style="stroke: #000000; stroke-linejoin: miter"/>
   </g>
   <g id="patch_120">
    <path d="M 312.314253 193.811609 
L 323.743678 193.811609 
L 323.743678 182.382184 
L 312.314253 182.382184 
z
" clip-path="url(#p804f92b369)" style="stroke: #000000; stroke-linejoin: miter"/>
   </g>
   <g id="patch_121">
    <path d="M 340.419196 193.873563 
L 351.972528 193.873563 
L 351.972528 182.32023 
L 340.419196 182.32023 
z
" clip-path="url(#p804f92b369)" style="stroke: #000000; stroke-linejoin: miter"/>
   </g>
   <g id="patch_122">
    <path d="M 368.809852 193.649803 
L 379.915665 193.649803 
L 379.915665 182.54399 
L 368.809852 182.54399 
z
" clip-path="url(#p804f92b369)" style="stroke: #000000; stroke-linejoin: miter"/>
   </g>
   <g id="patch_123">
    <path d="M 397.197037 193.429515 
L 407.862274 193.429515 
L 407.862274 182.764278 
L 397.197037 182.764278 
z
" clip-path="url(#p804f92b369)" style="stroke: #000000; stroke-linejoin: miter"/>
   </g>
   <g id="patch_124">
    <path d="M 425.116032 193.677416 
L 436.277071 193.677416 
L 436.277071 182.516377 
L 425.116032 182.516377 
z
" clip-path="url(#p804f92b369)" style="stroke: #000000; stroke-linejoin: miter"/>
   </g>
   <g id="patch_125">
    <path d="M 453.519862 193.440482 
L 464.207034 193.440482 
L 464.207034 182.753311 
L 453.519862 182.753311 
z
" clip-path="url(#p804f92b369)" style="stroke: #000000; stroke-linejoin: miter"/>
   </g>
   <g id="patch_126">
    <path d="M 481.349093 193.778149 
L 492.711597 193.778149 
L 492.711597 182.415644 
L 481.349093 182.415644 
z
" clip-path="url(#p804f92b369)" style="stroke: #000000; stroke-linejoin: miter"/>
   </g>
   <g id="patch_127">
    <path d="M 509.663948 193.63019 
L 520.730535 193.63019 
L 520.730535 182.563603 
L 509.663948 182.563603 
z
" clip-path="url(#p804f92b369)" style="stroke: #000000; stroke-linejoin: miter"/>
   </g>
   <g id="patch_128">
    <path d="M 537.571871 193.889163 
L 549.156404 193.889163 
L 549.156404 182.30463 
L 537.571871 182.30463 
z
" clip-path="url(#p804f92b369)" style="stroke: #000000; stroke-linejoin: miter"/>
   </g>
   <g id="patch_129">
    <path d="M 566.079745 193.548186 
L 576.982324 193.548186 
L 576.982324 182.645607 
L 566.079745 182.645607 
z
" clip-path="url(#p804f92b369)" style="stroke: #000000; stroke-linejoin: miter"/>
   </g>
   <g id="patch_130">
    <path d="M 594.257081 193.537746 
L 605.138781 193.537746 
L 605.138781 182.656047 
L 594.257081 182.656047 
z
" clip-path="url(#p804f92b369)" style="stroke: #000000; stroke-linejoin: miter"/>
   </g>
   <g id="patch_131">
    <path d="M 622.302699 193.659025 
L 633.426956 193.659025 
L 633.426956 182.534768 
L 622.302699 182.534768 
z
" clip-path="url(#p804f92b369)" style="stroke: #000000; stroke-linejoin: miter"/>
   </g>
   <g id="patch_132">
    <path d="M 650.443868 193.684753 
L 661.61958 193.684753 
L 661.61958 182.50904 
L 650.443868 182.50904 
z
" clip-path="url(#p804f92b369)" style="stroke: #000000; stroke-linejoin: miter"/>
   </g>
   <g id="patch_133">
    <path d="M 678.728978 193.566539 
L 689.668264 193.566539 
L 689.668264 182.627254 
L 678.728978 182.627254 
z
" clip-path="url(#p804f92b369)" style="stroke: #000000; stroke-linejoin: miter"/>
   </g>
   <g id="patch_134">
    <path d="M 706.941357 193.521057 
L 717.789678 193.521057 
L 717.789678 182.672736 
L 706.941357 182.672736 
z
" clip-path="url(#p804f92b369)" style="stroke: #000000; stroke-linejoin: miter"/>
   </g>
   <g id="patch_135">
    <path d="M 734.938622 193.690688 
L 746.126205 193.690688 
L 746.126205 182.503105 
L 734.938622 182.503105 
z
" clip-path="url(#p804f92b369)" style="stroke: #000000; stroke-linejoin: miter"/>
   </g>
   <g id="patch_136">
    <path d="M 763.22836 193.567847 
L 774.170261 193.567847 
L 774.170261 182.625946 
L 763.22836 182.625946 
z
" clip-path="url(#p804f92b369)" style="stroke: #000000; stroke-linejoin: miter"/>
   </g>
   <g id="patch_137">
    <path d="M 791.073528 193.889575 
L 802.658886 193.889575 
L 802.658886 182.304218 
L 791.073528 182.304218 
z
" clip-path="url(#p804f92b369)" style="stroke: #000000; stroke-linejoin: miter"/>
   </g>
   <g id="patch_138">
    <path d="M 54.891379 169.565517 
L 74.162414 169.565517 
L 74.162414 150.294483 
L 54.891379 150.294483 
z
" clip-path="url(#p804f92b369)" style="stroke: #000000; stroke-linejoin: miter"/>
   </g>
   <g id="patch_139">
    <path d="M 84.34509 168.278703 
L 101.042496 168.278703 
L 101.042496 151.581297 
L 84.34509 151.581297 
z
" clip-path="url(#p804f92b369)" style="stroke: #000000; stroke-linejoin: miter"/>
   </g>
   <g id="patch_140">
    <path d="M 113.011738 167.778952 
L 128.709642 167.778952 
L 128.709642 152.081048 
L 113.011738 152.081048 
z
" clip-path="url(#p804f92b369)" style="stroke: #000000; stroke-linejoin: miter"/>
   </g>
   <g id="patch_141">
    <path d="M 141.231241 167.726345 
L 156.823932 167.726345 
L 156.823932 152.133655 
L 141.231241 152.133655 
z
" clip-path="url(#p804f92b369)" style="stroke: #000000; stroke-linejoin: miter"/>
   </g>
   <g id="patch_142">
    <path d="M 170.384594 166.739889 
L 184.004372 166.739889 
L 184.004372 153.120111 
L 170.384594 153.120111 
z
" clip-path="url(#p804f92b369)" style="stroke: #000000; stroke-linejoin: miter"/>
   </g>
   <g id="patch_143">
    <path d="M 199.283809 166.007571 
L 211.43895 166.007571 
L 211.43895 153.852429 
L 199.283809 153.852429 
z
" clip-path="url(#p804f92b369)" style="stroke: #000000; stroke-linejoin: miter"/>
   </g>
   <g id="patch_144">
    <path d="M 227.644265 165.814011 
L 239.412287 165.814011 
L 239.412287 154.045989 
L 227.644265 154.045989 
z
" clip-path="url(#p804f92b369)" style="stroke: #000000; stroke-linejoin: miter"/>
   </g>
   <g id="patch_145">
    <path d="M 255.558454 166.066718 
L 267.831891 166.066718 
L 267.831891 153.793282 
L 255.558454 153.793282 
z
" clip-path="url(#p804f92b369)" style="stroke: #000000; stroke-linejoin: miter"/>
   </g>
   <g id="patch_146">
    <path d="M 284.041709 165.75036 
L 295.682429 165.75036 
L 295.682429 154.10964 
L 284.041709 154.10964 
z
" clip-path="url(#p804f92b369)" style="stroke: #000000; stroke-linejoin: miter"/>
   </g>
   <g id="patch_147">
    <path d="M 312.476281 165.482684 
L 323.58165 165.482684 
L 323.58165 154.377316 
L 312.476281 154.377316 
z
" clip-path="url(#p804f92b369)" style="stroke: #000000; stroke-linejoin: miter"/>
   </g>
   <g id="patch_148">
    <path d="M 340.091887 166.033975 
L 352.299837 166.033975 
L 352.299837 153.826025 
L 340.091887 153.826025 
z
" clip-path="url(#p804f92b369)" style="stroke: #000000; stroke-linejoin: miter"/>
   </g>
   <g id="patch_149">
    <path d="M 368.936596 165.356163 
L 379.788922 165.356163 
L 379.788922 154.503837 
L 368.936596 154.503837 
z
" clip-path="url(#p804f92b369)" style="stroke: #000000; stroke-linejoin: miter"/>
   </g>
   <g id="patch_150">
    <path d="M 397.067864 165.391791 
L 407.991446 165.391791 
L 407.991446 154.468209 
L 397.067864 154.468209 
z
" clip-path="url(#p804f92b369)" style="stroke: #000000; stroke-linejoin: miter"/>
   </g>
   <g id="patch_151">
    <path d="M 425.28501 165.341541 
L 436.108093 165.341541 
L 436.108093 154.518459 
L 425.28501 154.518459 
z
" clip-path="url(#p804f92b369)" style="stroke: #000000; stroke-linejoin: miter"/>
   </g>
   <g id="patch_152">
    <path d="M 453.164683 165.628765 
L 464.562214 165.628765 
L 464.562214 154.231235 
L 453.164683 154.231235 
z
" clip-path="url(#p804f92b369)" style="stroke: #000000; stroke-linejoin: miter"/>
   </g>
   <g id="patch_153">
    <path d="M 481.442818 165.517526 
L 492.617871 165.517526 
L 492.617871 154.342474 
L 481.442818 154.342474 
z
" clip-path="url(#p804f92b369)" style="stroke: #000000; stroke-linejoin: miter"/>
   </g>
   <g id="patch_154">
    <path d="M 509.459284 165.667957 
L 520.935199 165.667957 
L 520.935199 154.192043 
L 509.459284 154.192043 
z
" clip-path="url(#p804f92b369)" style="stroke: #000000; stroke-linejoin: miter"/>
   </g>
   <g id="patch_155">
    <path d="M 537.785055 165.509083 
L 548.943221 165.509083 
L 548.943221 154.350917 
L 537.785055 154.350917 
z
" clip-path="url(#p804f92b369)" style="stroke: #000000; stroke-linejoin: miter"/>
   </g>
   <g id="patch_156">
    <path d="M 566.104242 165.356792 
L 576.957827 165.356792 
L 576.957827 154.503208 
L 566.104242 154.503208 
z
" clip-path="url(#p804f92b369)" style="stroke: #000000; stroke-linejoin: miter"/>
   </g>
   <g id="patch_157">
    <path d="M 593.977974 165.649957 
L 605.417888 165.649957 
L 605.417888 154.210043 
L 593.977974 154.210043 
z
" clip-path="url(#p804f92b369)" style="stroke: #000000; stroke-linejoin: miter"/>
   </g>
   <g id="patch_158">
    <path d="M 621.929286 165.865542 
L 633.800369 165.865542 
L 633.800369 153.994458 
L 621.929286 153.994458 
z
" clip-path="url(#p804f92b369)" style="stroke: #000000; stroke-linejoin: miter"/>
   </g>
   <g id="patch_159">
    <path d="M 650.463989 165.497736 
L 661.59946 165.497736 
L 661.59946 154.362264 
L 650.463989 154.362264 
z
" clip-path="url(#p804f92b369)" style="stroke: #000000; stroke-linejoin: miter"/>
   </g>
   <g id="patch_160">
    <path d="M 678.554423 165.574198 
L 689.842819 165.574198 
L 689.842819 154.285802 
L 678.554423 154.285802 
z
" clip-path="url(#p804f92b369)" style="stroke: #000000; stroke-linejoin: miter"/>
   </g>
   <g id="patch_161">
    <path d="M 707.113225 165.182292 
L 717.617809 165.182292 
L 717.617809 154.677708 
L 707.113225 154.677708 
z
" clip-path="url(#p804f92b369)" style="stroke: #000000; stroke-linejoin: miter"/>
   </g>
   <g id="patch_162">
    <path d="M 735.014893 165.447521 
L 746.049935 165.447521 
L 746.049935 154.412479 
L 735.014893 154.412479 
z
" clip-path="url(#p804f92b369)" style="stroke: #000000; stroke-linejoin: miter"/>
   </g>
   <g id="patch_163">
    <path d="M 763.336267 165.293044 
L 774.062354 165.293044 
L 774.062354 154.566956 
L 763.336267 154.566956 
z
" clip-path="url(#p804f92b369)" style="stroke: #000000; stroke-linejoin: miter"/>
   </g>
   <g id="patch_164">
    <path d="M 791.343898 165.452309 
L 802.388516 165.452309 
L 802.388516 154.407691 
L 791.343898 154.407691 
z
" clip-path="url(#p804f92b369)" style="stroke: #000000; stroke-linejoin: miter"/>
   </g>
   <g id="patch_165">
    <path d="M 57.537452 138.752548 
L 71.516341 138.752548 
L 71.516341 124.773659 
L 57.537452 124.773659 
z
" clip-path="url(#p804f92b369)" style="stroke: #000000; stroke-linejoin: miter"/>
   </g>
   <g id="patch_166">
    <path d="M 86.36133 138.095567 
L 99.026257 138.095567 
L 99.026257 125.43064 
L 86.36133 125.43064 
z
" clip-path="url(#p804f92b369)" style="stroke: #000000; stroke-linejoin: miter"/>
   </g>
   <g id="patch_167">
    <path d="M 113.914222 138.709571 
L 127.807157 138.709571 
L 127.807157 124.816636 
L 113.914222 124.816636 
z
" clip-path="url(#p804f92b369)" style="stroke: #000000; stroke-linejoin: miter"/>
   </g>
   <g id="patch_168">
    <path d="M 141.975738 138.814952 
L 156.079435 138.814952 
L 156.079435 124.711255 
L 141.975738 124.711255 
z
" clip-path="url(#p804f92b369)" style="stroke: #000000; stroke-linejoin: miter"/>
   </g>
   <g id="patch_169">
    <path d="M 170.510905 138.446681 
L 183.878061 138.446681 
L 183.878061 125.079525 
L 170.510905 125.079525 
z
" clip-path="url(#p804f92b369)" style="stroke: #000000; stroke-linejoin: miter"/>
   </g>
   <g id="patch_170">
    <path d="M 198.855253 138.26923 
L 211.867506 138.26923 
L 211.867506 125.256977 
L 198.855253 125.256977 
z
" clip-path="url(#p804f92b369)" style="stroke: #000000; stroke-linejoin: miter"/>
   </g>
   <g id="patch_171">
    <path d="M 227.462369 137.82901 
L 239.594183 137.82901 
L 239.594183 125.697197 
L 227.462369 125.697197 
z
" clip-path="url(#p804f92b369)" style="stroke: #000000; stroke-linejoin: miter"/>
   </g>
   <g id="patch_172">
    <path d="M 255.781838 137.676438 
L 267.608507 137.676438 
L 267.608507 125.849769 
L 255.781838 125.849769 
z
" clip-path="url(#p804f92b369)" style="stroke: #000000; stroke-linejoin: miter"/>
   </g>
   <g id="patch_173">
    <path d="M 283.882722 137.74245 
L 295.841416 137.74245 
L 295.841416 125.783757 
L 283.882722 125.783757 
z
" clip-path="url(#p804f92b369)" style="stroke: #000000; stroke-linejoin: miter"/>
   </g>
   <g id="patch_174">
    <path d="M 312.361159 137.43091 
L 323.696772 137.43091 
L 323.696772 126.095297 
L 312.361159 126.095297 
z
" clip-path="url(#p804f92b369)" style="stroke: #000000; stroke-linejoin: miter"/>
   </g>
   <g id="patch_175">
    <path d="M 340.496446 137.46252 
L 351.895278 137.46252 
L 351.895278 126.063687 
L 340.496446 126.063687 
z
" clip-path="url(#p804f92b369)" style="stroke: #000000; stroke-linejoin: miter"/>
   </g>
   <g id="patch_176">
    <path d="M 368.927443 137.198419 
L 379.798074 137.198419 
L 379.798074 126.327788 
L 368.927443 126.327788 
z
" clip-path="url(#p804f92b369)" style="stroke: #000000; stroke-linejoin: miter"/>
   </g>
   <g id="patch_177">
    <path d="M 397.242575 137.050184 
L 407.816735 137.050184 
L 407.816735 126.476023 
L 397.242575 126.476023 
z
" clip-path="url(#p804f92b369)" style="stroke: #000000; stroke-linejoin: miter"/>
   </g>
   <g id="patch_178">
    <path d="M 425.153513 137.306142 
L 436.23959 137.306142 
L 436.23959 126.220065 
L 425.153513 126.220065 
z
" clip-path="url(#p804f92b369)" style="stroke: #000000; stroke-linejoin: miter"/>
   </g>
   <g id="patch_179">
    <path d="M 453.502649 137.123903 
L 464.224247 137.123903 
L 464.224247 126.402304 
L 453.502649 126.402304 
z
" clip-path="url(#p804f92b369)" style="stroke: #000000; stroke-linejoin: miter"/>
   </g>
   <g id="patch_180">
    <path d="M 481.579931 137.213517 
L 492.480758 137.213517 
L 492.480758 126.31269 
L 481.579931 126.31269 
z
" clip-path="url(#p804f92b369)" style="stroke: #000000; stroke-linejoin: miter"/>
   </g>
   <g id="patch_181">
    <path d="M 509.527535 137.43281 
L 520.866947 137.43281 
L 520.866947 126.093397 
L 509.527535 126.093397 
z
" clip-path="url(#p804f92b369)" style="stroke: #000000; stroke-linejoin: miter"/>
   </g>
   <g id="patch_182">
    <path d="M 537.690038 137.437204 
L 549.038238 137.437204 
L 549.038238 126.089003 
L 537.690038 126.089003 
z
" clip-path="url(#p804f92b369)" style="stroke: #000000; stroke-linejoin: miter"/>
   </g>
   <g id="patch_183">
    <path d="M 566.359364 136.934774 
L 576.702705 136.934774 
L 576.702705 126.591432 
L 566.359364 126.591432 
z
" clip-path="url(#p804f92b369)" style="stroke: #000000; stroke-linejoin: miter"/>
   </g>
   <g id="patch_184">
    <path d="M 594.525047 136.935987 
L 604.870815 136.935987 
L 604.870815 126.59022 
L 594.525047 126.59022 
z
" clip-path="url(#p804f92b369)" style="stroke: #000000; stroke-linejoin: miter"/>
   </g>
   <g id="patch_185">
    <path d="M 622.377203 137.250728 
L 633.352452 137.250728 
L 633.352452 126.275479 
L 622.377203 126.275479 
z
" clip-path="url(#p804f92b369)" style="stroke: #000000; stroke-linejoin: miter"/>
   </g>
   <g id="patch_186">
    <path d="M 650.28763 137.507197 
L 661.775818 137.507197 
L 661.775818 126.01901 
L 650.28763 126.01901 
z
" clip-path="url(#p804f92b369)" style="stroke: #000000; stroke-linejoin: miter"/>
   </g>
   <g id="patch_187">
    <path d="M 678.460913 137.500811 
L 689.936328 137.500811 
L 689.936328 126.025396 
L 678.460913 126.025396 
z
" clip-path="url(#p804f92b369)" style="stroke: #000000; stroke-linejoin: miter"/>
   </g>
   <g id="patch_188">
    <path d="M 706.982786 137.145835 
L 717.748249 137.145835 
L 717.748249 126.380372 
L 706.982786 126.380372 
z
" clip-path="url(#p804f92b369)" style="stroke: #000000; stroke-linejoin: miter"/>
   </g>
   <g id="patch_189">
    <path d="M 734.914906 137.380612 
L 746.149922 137.380612 
L 746.149922 126.145595 
L 734.914906 126.145595 
z
" clip-path="url(#p804f92b369)" style="stroke: #000000; stroke-linejoin: miter"/>
   </g>
   <g id="patch_190">
    <path d="M 763.416445 137.045969 
L 773.982176 137.045969 
L 773.982176 126.480238 
L 763.416445 126.480238 
z
" clip-path="url(#p804f92b369)" style="stroke: #000000; stroke-linejoin: miter"/>
   </g>
   <g id="patch_191">
    <path d="M 791.220911 137.4084 
L 802.511503 137.4084 
L 802.511503 126.117807 
L 791.220911 126.117807 
z
" clip-path="url(#p804f92b369)" style="stroke: #000000; stroke-linejoin: miter"/>
   </g>
   <g id="patch_192">
    <path d="M 60.433132 107.689972 
L 68.620661 107.689972 
L 68.620661 99.502442 
L 60.433132 99.502442 
z
" clip-path="url(#p804f92b369)" style="stroke: #000000; stroke-linejoin: miter"/>
   </g>
   <g id="patch_193">
    <path d="M 88.599059 107.690941 
L 96.788528 107.690941 
L 96.788528 99.501472 
L 88.599059 99.501472 
z
" clip-path="url(#p804f92b369)" style="stroke: #000000; stroke-linejoin: miter"/>
   </g>
   <g id="patch_194">
    <path d="M 116.743777 107.713119 
L 124.977602 107.713119 
L 124.977602 99.479295 
L 116.743777 99.479295 
z
" clip-path="url(#p804f92b369)" style="stroke: #000000; stroke-linejoin: miter"/>
   </g>
   <g id="patch_195">
    <path d="M 145.03323 107.590563 
L 153.021943 107.590563 
L 153.021943 99.60185 
L 145.03323 99.60185 
z
" clip-path="url(#p804f92b369)" style="stroke: #000000; stroke-linejoin: miter"/>
   </g>
   <g id="patch_196">
    <path d="M 172.927748 107.862942 
L 181.461218 107.862942 
L 181.461218 99.329472 
L 172.927748 99.329472 
z
" clip-path="url(#p804f92b369)" style="stroke: #000000; stroke-linejoin: miter"/>
   </g>
   <g id="patch_197">
    <path d="M 201.044671 107.912915 
L 209.678088 107.912915 
L 209.678088 99.279498 
L 201.044671 99.279498 
z
" clip-path="url(#p804f92b369)" style="stroke: #000000; stroke-linejoin: miter"/>
   </g>
   <g id="patch_198">
    <path d="M 229.205311 107.919172 
L 237.851241 107.919172 
L 237.851241 99.273242 
L 229.205311 99.273242 
z
" clip-path="url(#p804f92b369)" style="stroke: #000000; stroke-linejoin: miter"/>
   </g>
   <g id="patch_199">
    <path d="M 257.106277 108.185102 
L 266.284067 108.185102 
L 266.284067 99.007312 
L 257.106277 99.007312 
z
" clip-path="url(#p804f92b369)" style="stroke: #000000; stroke-linejoin: miter"/>
   </g>
   <g id="patch_200">
    <path d="M 285.026677 108.431598 
L 294.697461 108.431598 
L 294.697461 98.760815 
L 285.026677 98.760815 
z
" clip-path="url(#p804f92b369)" style="stroke: #000000; stroke-linejoin: miter"/>
   </g>
   <g id="patch_201">
    <path d="M 313.530781 108.094391 
L 322.52715 108.094391 
L 322.52715 99.098023 
L 313.530781 99.098023 
z
" clip-path="url(#p804f92b369)" style="stroke: #000000; stroke-linejoin: miter"/>
   </g>
   <g id="patch_202">
    <path d="M 341.205866 108.586203 
L 351.185858 108.586203 
L 351.185858 98.606211 
L 341.205866 98.606211 
z
" clip-path="url(#p804f92b369)" style="stroke: #000000; stroke-linejoin: miter"/>
   </g>
   <g id="patch_203">
    <path d="M 369.554948 108.404018 
L 379.17057 108.404018 
L 379.17057 98.788396 
L 369.554948 98.788396 
z
" clip-path="url(#p804f92b369)" style="stroke: #000000; stroke-linejoin: miter"/>
   </g>
   <g id="patch_204">
    <path d="M 396.980619 109.145243 
L 408.078691 109.145243 
L 408.078691 98.047171 
L 396.980619 98.047171 
z
" clip-path="url(#p804f92b369)" style="stroke: #000000; stroke-linejoin: miter"/>
   </g>
   <g id="patch_205">
    <path d="M 425.591914 108.700845 
L 435.801189 108.700845 
L 435.801189 98.491569 
L 425.591914 98.491569 
z
" clip-path="url(#p804f92b369)" style="stroke: #000000; stroke-linejoin: miter"/>
   </g>
   <g id="patch_206">
    <path d="M 453.833978 108.625677 
L 463.892919 108.625677 
L 463.892919 98.566736 
L 453.833978 98.566736 
z
" clip-path="url(#p804f92b369)" style="stroke: #000000; stroke-linejoin: miter"/>
   </g>
   <g id="patch_207">
    <path d="M 481.659717 108.966834 
L 492.400972 108.966834 
L 492.400972 98.225579 
L 481.659717 98.225579 
z
" clip-path="url(#p804f92b369)" style="stroke: #000000; stroke-linejoin: miter"/>
   </g>
   <g id="patch_208">
    <path d="M 510.126348 108.6671 
L 520.268135 108.6671 
L 520.268135 98.525313 
L 510.126348 98.525313 
z
" clip-path="url(#p804f92b369)" style="stroke: #000000; stroke-linejoin: miter"/>
   </g>
   <g id="patch_209">
    <path d="M 538.067312 108.893033 
L 548.660964 108.893033 
L 548.660964 98.299381 
L 538.067312 98.299381 
z
" clip-path="url(#p804f92b369)" style="stroke: #000000; stroke-linejoin: miter"/>
   </g>
   <g id="patch_210">
    <path d="M 566.016675 109.110566 
L 577.045394 109.110566 
L 577.045394 98.081848 
L 566.016675 98.081848 
z
" clip-path="url(#p804f92b369)" style="stroke: #000000; stroke-linejoin: miter"/>
   </g>
   <g id="patch_211">
    <path d="M 594.09203 109.202108 
L 605.303833 109.202108 
L 605.303833 97.990305 
L 594.09203 97.990305 
z
" clip-path="url(#p804f92b369)" style="stroke: #000000; stroke-linejoin: miter"/>
   </g>
   <g id="patch_212">
    <path d="M 622.55995 108.901084 
L 633.169705 108.901084 
L 633.169705 98.29133 
L 622.55995 98.29133 
z
" clip-path="url(#p804f92b369)" style="stroke: #000000; stroke-linejoin: miter"/>
   </g>
   <g id="patch_213">
    <path d="M 650.477201 109.15073 
L 661.586247 109.15073 
L 661.586247 98.041684 
L 650.477201 98.041684 
z
" clip-path="url(#p804f92b369)" style="stroke: #000000; stroke-linejoin: miter"/>
   </g>
   <g id="patch_214">
    <path d="M 678.945679 108.849148 
L 689.451562 108.849148 
L 689.451562 98.343265 
L 678.945679 98.343265 
z
" clip-path="url(#p804f92b369)" style="stroke: #000000; stroke-linejoin: miter"/>
   </g>
   <g id="patch_215">
    <path d="M 707.546591 108.415133 
L 717.184443 108.415133 
L 717.184443 98.777281 
L 707.546591 98.777281 
z
" clip-path="url(#p804f92b369)" style="stroke: #000000; stroke-linejoin: miter"/>
   </g>
   <g id="patch_216">
    <path d="M 735.396713 108.731908 
L 745.668115 108.731908 
L 745.668115 98.460506 
L 735.396713 98.460506 
z
" clip-path="url(#p804f92b369)" style="stroke: #000000; stroke-linejoin: miter"/>
   </g>
   <g id="patch_217">
    <path d="M 763.621736 108.673781 
L 773.776884 108.673781 
L 773.776884 98.518633 
L 763.621736 98.518633 
z
" clip-path="url(#p804f92b369)" style="stroke: #000000; stroke-linejoin: miter"/>
   </g>
   <g id="patch_218">
    <path d="M 791.440618 109.021796 
L 802.291796 109.021796 
L 802.291796 98.170618 
L 791.440618 98.170618 
z
" clip-path="url(#p804f92b369)" style="stroke: #000000; stroke-linejoin: miter"/>
   </g>
   <g id="patch_219">
    <path d="M 57.969789 81.986418 
L 71.084004 81.986418 
L 71.084004 68.872203 
L 57.969789 68.872203 
z
" clip-path="url(#p804f92b369)" style="stroke: #000000; stroke-linejoin: miter"/>
   </g>
   <g id="patch_220">
    <path d="M 85.869071 82.254032 
L 99.518515 82.254032 
L 99.518515 68.604588 
L 85.869071 68.604588 
z
" clip-path="url(#p804f92b369)" style="stroke: #000000; stroke-linejoin: miter"/>
   </g>
   <g id="patch_221">
    <path d="M 114.435295 81.854705 
L 127.286084 81.854705 
L 127.286084 69.003916 
L 114.435295 69.003916 
z
" clip-path="url(#p804f92b369)" style="stroke: #000000; stroke-linejoin: miter"/>
   </g>
   <g id="patch_222">
    <path d="M 143.108062 81.348834 
L 154.94711 81.348834 
L 154.94711 69.509786 
L 143.108062 69.509786 
z
" clip-path="url(#p804f92b369)" style="stroke: #000000; stroke-linejoin: miter"/>
   </g>
   <g id="patch_223">
    <path d="M 170.905974 81.717819 
L 183.482991 81.717819 
L 183.482991 69.140802 
L 170.905974 69.140802 
z
" clip-path="url(#p804f92b369)" style="stroke: #000000; stroke-linejoin: miter"/>
   </g>
   <g id="patch_224">
    <path d="M 198.833947 81.956743 
L 211.888812 81.956743 
L 211.888812 68.901878 
L 198.833947 68.901878 
z
" clip-path="url(#p804f92b369)" style="stroke: #000000; stroke-linejoin: miter"/>
   </g>
   <g id="patch_225">
    <path d="M 227.617029 81.340557 
L 239.439523 81.340557 
L 239.439523 69.518064 
L 227.617029 69.518064 
z
" clip-path="url(#p804f92b369)" style="stroke: #000000; stroke-linejoin: miter"/>
   </g>
   <g id="patch_226">
    <path d="M 255.740175 81.384308 
L 267.65017 81.384308 
L 267.65017 69.474312 
L 255.740175 69.474312 
z
" clip-path="url(#p804f92b369)" style="stroke: #000000; stroke-linejoin: miter"/>
   </g>
   <g id="patch_227">
    <path d="M 284.012641 81.278739 
L 295.711497 81.278739 
L 295.711497 69.579882 
L 284.012641 69.579882 
z
" clip-path="url(#p804f92b369)" style="stroke: #000000; stroke-linejoin: miter"/>
   </g>
   <g id="patch_228">
    <path d="M 312.142355 81.315921 
L 323.915576 81.315921 
L 323.915576 69.5427 
L 312.142355 69.5427 
z
" clip-path="url(#p804f92b369)" style="stroke: #000000; stroke-linejoin: miter"/>
   </g>
   <g id="patch_229">
    <path d="M 340.143558 81.481615 
L 352.248166 81.481615 
L 352.248166 69.377006 
L 340.143558 69.377006 
z
" clip-path="url(#p804f92b369)" style="stroke: #000000; stroke-linejoin: miter"/>
   </g>
   <g id="patch_230">
    <path d="M 368.369884 81.422185 
L 380.355633 81.422185 
L 380.355633 69.436436 
L 368.369884 69.436436 
z
" clip-path="url(#p804f92b369)" style="stroke: #000000; stroke-linejoin: miter"/>
   </g>
   <g id="patch_231">
    <path d="M 396.60773 81.351236 
L 408.451581 81.351236 
L 408.451581 69.507385 
L 396.60773 69.507385 
z
" clip-path="url(#p804f92b369)" style="stroke: #000000; stroke-linejoin: miter"/>
   </g>
   <g id="patch_232">
    <path d="M 424.548298 81.577564 
L 436.844805 81.577564 
L 436.844805 69.281057 
L 424.548298 69.281057 
z
" clip-path="url(#p804f92b369)" style="stroke: #000000; stroke-linejoin: miter"/>
   </g>
   <g id="patch_233">
    <path d="M 453.129748 81.163011 
L 464.597149 81.163011 
L 464.597149 69.69561 
L 453.129748 69.69561 
z
" clip-path="url(#p804f92b369)" style="stroke: #000000; stroke-linejoin: miter"/>
   </g>
   <g id="patch_234">
    <path d="M 480.889099 81.570556 
L 493.171591 81.570556 
L 493.171591 69.288064 
L 480.889099 69.288064 
z
" clip-path="url(#p804f92b369)" style="stroke: #000000; stroke-linejoin: miter"/>
   </g>
   <g id="patch_235">
    <path d="M 509.306484 81.320068 
L 521.087999 81.320068 
L 521.087999 69.538553 
L 509.306484 69.538553 
z
" clip-path="url(#p804f92b369)" style="stroke: #000000; stroke-linejoin: miter"/>
   </g>
   <g id="patch_236">
    <path d="M 537.507368 81.286081 
L 549.220908 81.286081 
L 549.220908 69.57254 
L 537.507368 69.57254 
z
" clip-path="url(#p804f92b369)" style="stroke: #000000; stroke-linejoin: miter"/>
   </g>
   <g id="patch_237">
    <path d="M 565.735194 81.225151 
L 577.326875 81.225151 
L 577.326875 69.633469 
L 565.735194 69.633469 
z
" clip-path="url(#p804f92b369)" style="stroke: #000000; stroke-linejoin: miter"/>
   </g>
   <g id="patch_238">
    <path d="M 593.889175 81.238067 
L 605.506688 81.238067 
L 605.506688 69.620554 
L 593.889175 69.620554 
z
" clip-path="url(#p804f92b369)" style="stroke: #000000; stroke-linejoin: miter"/>
   </g>
   <g id="patch_239">
    <path d="M 621.863283 81.430855 
L 633.866372 81.430855 
L 633.866372 69.427766 
L 621.863283 69.427766 
z
" clip-path="url(#p804f92b369)" style="stroke: #000000; stroke-linejoin: miter"/>
   </g>
   <g id="patch_240">
    <path d="M 650.280666 81.180369 
L 661.782783 81.180369 
L 661.782783 69.678252 
L 650.280666 69.678252 
z
" clip-path="url(#p804f92b369)" style="stroke: #000000; stroke-linejoin: miter"/>
   </g>
   <g id="patch_241">
    <path d="M 678.353366 81.274565 
L 690.043875 81.274565 
L 690.043875 69.584056 
L 678.353366 69.584056 
z
" clip-path="url(#p804f92b369)" style="stroke: #000000; stroke-linejoin: miter"/>
   </g>
   <g id="patch_242">
    <path d="M 706.443801 81.351027 
L 718.287234 81.351027 
L 718.287234 69.507594 
L 706.443801 69.507594 
z
" clip-path="url(#p804f92b369)" style="stroke: #000000; stroke-linejoin: miter"/>
   </g>
   <g id="patch_243">
    <path d="M 734.530118 81.431606 
L 746.534709 81.431606 
L 746.534709 69.427015 
L 734.530118 69.427015 
z
" clip-path="url(#p804f92b369)" style="stroke: #000000; stroke-linejoin: miter"/>
   </g>
   <g id="patch_244">
    <path d="M 762.765361 81.36326 
L 774.63326 81.36326 
L 774.63326 69.495361 
L 762.765361 69.495361 
z
" clip-path="url(#p804f92b369)" style="stroke: #000000; stroke-linejoin: miter"/>
   </g>
   <g id="patch_245">
    <path d="M 790.962175 81.333342 
L 802.770239 81.333342 
L 802.770239 69.525278 
L 790.962175 69.525278 
z
" clip-path="url(#p804f92b369)" style="stroke: #000000; stroke-linejoin: miter"/>
   </g>
   <g id="matplotlib.axis_1">
    <g id="xtick_1">
     <g id="line2d_1">
      <defs>
       <path id="me6232abd92" d="M 0 0 
L 0 3.5 
" style="stroke: #000000; stroke-width: 0.8"/>
      </defs>
      <g>
       <use xlink:href="#me6232abd92" x="64.526897" y="328.931379" style="stroke: #000000; stroke-width: 0.8"/>
      </g>
     </g>
     <g id="text_1">
      <!-- 1 -->
      <g transform="translate(61.51674 350.082942) scale(0.1 -0.1)">
       <defs>
        <path id="DejaVuSansMono-31" d="M 844 531 
L 1825 531 
L 1825 4097 
L 769 3859 
L 769 4434 
L 1819 4666 
L 2450 4666 
L 2450 531 
L 3419 531 
L 3419 0 
L 844 0 
L 844 531 
z
" transform="scale(0.015625)"/>
       </defs>
       <use xlink:href="#DejaVuSansMono-31"/>
      </g>
     </g>
    </g>
    <g id="xtick_2">
     <g id="line2d_2">
      <g>
       <use xlink:href="#me6232abd92" x="796.866207" y="328.931379" style="stroke: #000000; stroke-width: 0.8"/>
      </g>
     </g>
     <g id="text_2">
      <!-- 500 -->
      <g transform="translate(787.835738 350.082942) scale(0.1 -0.1)">
       <defs>
        <path id="DejaVuSansMono-35" d="M 647 4666 
L 3009 4666 
L 3009 4134 
L 1222 4134 
L 1222 2988 
Q 1356 3038 1492 3061 
Q 1628 3084 1766 3084 
Q 2491 3084 2916 2656 
Q 3341 2228 3341 1497 
Q 3341 759 2895 334 
Q 2450 -91 1678 -91 
Q 1306 -91 998 -41 
Q 691 9 447 109 
L 447 750 
Q 734 594 1025 517 
Q 1316 441 1619 441 
Q 2141 441 2423 716 
Q 2706 991 2706 1497 
Q 2706 1997 2414 2275 
Q 2122 2553 1600 2553 
Q 1347 2553 1106 2495 
Q 866 2438 647 2322 
L 647 4666 
z
" transform="scale(0.015625)"/>
        <path id="DejaVuSansMono-30" d="M 1509 2344 
Q 1509 2516 1629 2641 
Q 1750 2766 1919 2766 
Q 2094 2766 2219 2641 
Q 2344 2516 2344 2344 
Q 2344 2169 2220 2047 
Q 2097 1925 1919 1925 
Q 1744 1925 1626 2044 
Q 1509 2163 1509 2344 
z
M 1925 4250 
Q 1484 4250 1267 3775 
Q 1050 3300 1050 2328 
Q 1050 1359 1267 884 
Q 1484 409 1925 409 
Q 2369 409 2586 884 
Q 2803 1359 2803 2328 
Q 2803 3300 2586 3775 
Q 2369 4250 1925 4250 
z
M 1925 4750 
Q 2672 4750 3055 4137 
Q 3438 3525 3438 2328 
Q 3438 1134 3055 521 
Q 2672 -91 1925 -91 
Q 1178 -91 797 521 
Q 416 1134 416 2328 
Q 416 3525 797 4137 
Q 1178 4750 1925 4750 
z
" transform="scale(0.015625)"/>
       </defs>
       <use xlink:href="#DejaVuSansMono-35"/>
       <use xlink:href="#DejaVuSansMono-30" x="60.205078"/>
       <use xlink:href="#DejaVuSansMono-30" x="120.410156"/>
      </g>
     </g>
    </g>
   </g>
   <g id="matplotlib.axis_2">
    <g id="ytick_1">
     <g id="line2d_3">
      <defs>
       <path id="m4d0a537bb7" d="M 0 0 
L -3.5 0 
" style="stroke: #000000; stroke-width: 0.8"/>
      </defs>
      <g>
       <use xlink:href="#m4d0a537bb7" x="36.36" y="300.764483" style="stroke: #000000; stroke-width: 0.8"/>
      </g>
     </g>
     <g id="text_3">
      <!-- 2 -->
      <g transform="translate(16.839687 304.590264) scale(0.1 -0.1)">
       <defs>
        <path id="DejaVuSansMono-32" d="M 1166 531 
L 3309 531 
L 3309 0 
L 475 0 
L 475 531 
Q 1059 1147 1496 1619 
Q 1934 2091 2100 2284 
Q 2413 2666 2522 2902 
Q 2631 3138 2631 3384 
Q 2631 3775 2401 3997 
Q 2172 4219 1772 4219 
Q 1488 4219 1175 4116 
Q 863 4013 513 3803 
L 513 4441 
Q 834 4594 1145 4672 
Q 1456 4750 1759 4750 
Q 2444 4750 2861 4386 
Q 3278 4022 3278 3431 
Q 3278 3131 3139 2831 
Q 3000 2531 2688 2169 
Q 2513 1966 2180 1606 
Q 1847 1247 1166 531 
z
" transform="scale(0.015625)"/>
       </defs>
       <use xlink:href="#DejaVuSansMono-32"/>
      </g>
     </g>
    </g>
    <g id="ytick_2">
     <g id="line2d_4">
      <g>
       <use xlink:href="#m4d0a537bb7" x="36.36" y="272.597586" style="stroke: #000000; stroke-width: 0.8"/>
      </g>
     </g>
     <g id="text_4">
      <!-- 3 -->
      <g transform="translate(16.839687 276.423367) scale(0.1 -0.1)">
       <defs>
        <path id="DejaVuSansMono-33" d="M 2425 2497 
Q 2884 2375 3128 2064 
Q 3372 1753 3372 1288 
Q 3372 644 2939 276 
Q 2506 -91 1741 -91 
Q 1419 -91 1084 -31 
Q 750 28 428 141 
L 428 769 
Q 747 603 1056 522 
Q 1366 441 1672 441 
Q 2191 441 2469 675 
Q 2747 909 2747 1350 
Q 2747 1756 2469 1995 
Q 2191 2234 1716 2234 
L 1234 2234 
L 1234 2753 
L 1716 2753 
Q 2150 2753 2394 2943 
Q 2638 3134 2638 3475 
Q 2638 3834 2411 4026 
Q 2184 4219 1766 4219 
Q 1488 4219 1191 4156 
Q 894 4094 569 3969 
L 569 4550 
Q 947 4650 1242 4700 
Q 1538 4750 1766 4750 
Q 2447 4750 2855 4408 
Q 3263 4066 3263 3500 
Q 3263 3116 3048 2859 
Q 2834 2603 2425 2497 
z
" transform="scale(0.015625)"/>
       </defs>
       <use xlink:href="#DejaVuSansMono-33"/>
      </g>
     </g>
    </g>
    <g id="ytick_3">
     <g id="line2d_5">
      <g>
       <use xlink:href="#m4d0a537bb7" x="36.36" y="244.43069" style="stroke: #000000; stroke-width: 0.8"/>
      </g>
     </g>
     <g id="text_5">
      <!-- 5 -->
      <g transform="translate(16.839687 248.256471) scale(0.1 -0.1)">
       <use xlink:href="#DejaVuSansMono-35"/>
      </g>
     </g>
    </g>
    <g id="ytick_4">
     <g id="line2d_6">
      <g>
       <use xlink:href="#m4d0a537bb7" x="36.36" y="216.263793" style="stroke: #000000; stroke-width: 0.8"/>
      </g>
     </g>
     <g id="text_6">
      <!-- 7 -->
      <g transform="translate(16.839687 220.089574) scale(0.1 -0.1)">
       <defs>
        <path id="DejaVuSansMono-37" d="M 434 4666 
L 3372 4666 
L 3372 4397 
L 1703 0 
L 1044 0 
L 2669 4134 
L 434 4134 
L 434 4666 
z
" transform="scale(0.015625)"/>
       </defs>
       <use xlink:href="#DejaVuSansMono-37"/>
      </g>
     </g>
    </g>
    <g id="ytick_5">
     <g id="line2d_7">
      <g>
       <use xlink:href="#m4d0a537bb7" x="36.36" y="188.096897" style="stroke: #000000; stroke-width: 0.8"/>
      </g>
     </g>
     <g id="text_7">
      <!-- 11 -->
      <g transform="translate(10.819375 191.922678) scale(0.1 -0.1)">
       <use xlink:href="#DejaVuSansMono-31"/>
       <use xlink:href="#DejaVuSansMono-31" x="60.205078"/>
      </g>
     </g>
    </g>
    <g id="ytick_6">
     <g id="line2d_8">
      <g>
       <use xlink:href="#m4d0a537bb7" x="36.36" y="159.93" style="stroke: #000000; stroke-width: 0.8"/>
      </g>
     </g>
     <g id="text_8">
      <!-- 13 -->
      <g transform="translate(10.819375 163.755781) scale(0.1 -0.1)">
       <use xlink:href="#DejaVuSansMono-31"/>
       <use xlink:href="#DejaVuSansMono-33" x="60.205078"/>
      </g>
     </g>
    </g>
    <g id="ytick_7">
     <g id="line2d_9">
      <g>
       <use xlink:href="#m4d0a537bb7" x="36.36" y="131.763103" style="stroke: #000000; stroke-width: 0.8"/>
      </g>
     </g>
     <g id="text_9">
      <!-- 17 -->
      <g transform="translate(10.819375 135.588885) scale(0.1 -0.1)">
       <use xlink:href="#DejaVuSansMono-31"/>
       <use xlink:href="#DejaVuSansMono-37" x="60.205078"/>
      </g>
     </g>
    </g>
    <g id="ytick_8">
     <g id="line2d_10">
      <g>
       <use xlink:href="#m4d0a537bb7" x="36.36" y="103.596207" style="stroke: #000000; stroke-width: 0.8"/>
      </g>
     </g>
     <g id="text_10">
      <!-- 19 -->
      <g transform="translate(10.819375 107.421988) scale(0.1 -0.1)">
       <defs>
        <path id="DejaVuSansMono-39" d="M 1863 2069 
Q 2266 2069 2495 2359 
Q 2725 2650 2725 3163 
Q 2725 3675 2495 3965 
Q 2266 4256 1863 4256 
Q 1444 4256 1231 3979 
Q 1019 3703 1019 3163 
Q 1019 2619 1230 2344 
Q 1441 2069 1863 2069 
z
M 738 97 
L 738 678 
Q 934 563 1156 502 
Q 1378 441 1619 441 
Q 2219 441 2526 892 
Q 2834 1344 2834 2222 
Q 2688 1909 2422 1742 
Q 2156 1575 1813 1575 
Q 1138 1575 767 1990 
Q 397 2406 397 3169 
Q 397 3922 776 4336 
Q 1156 4750 1850 4750 
Q 2663 4750 3041 4165 
Q 3419 3581 3419 2328 
Q 3419 1150 2964 529 
Q 2509 -91 1644 -91 
Q 1416 -91 1184 -42 
Q 953 6 738 97 
z
" transform="scale(0.015625)"/>
       </defs>
       <use xlink:href="#DejaVuSansMono-31"/>
       <use xlink:href="#DejaVuSansMono-39" x="60.205078"/>
      </g>
     </g>
    </g>
    <g id="ytick_9">
     <g id="line2d_11">
      <g>
       <use xlink:href="#m4d0a537bb7" x="36.36" y="75.42931" style="stroke: #000000; stroke-width: 0.8"/>
      </g>
     </g>
     <g id="text_11">
      <!--  -->
      <g transform="translate(16.839687 79.255092) scale(0.1 -0.1)">
       <defs>
        <path id="DejaVuSansMono-2119" d="M 506 4353 
L 506 313 
L 1106 313 
L 1106 4353 
L 506 4353 
z
M 1406 4353 
L 1406 2284 
L 2306 2284 
Q 2378 2284 2447 2291 
L 2447 4347 
Q 2378 4353 2306 4353 
L 1406 4353 
z
M 206 4666 
L 2166 4666 
Q 2913 4666 3297 4323 
Q 3681 3981 3681 3322 
Q 3681 2656 3297 2315 
Q 2913 1975 2163 1975 
L 1406 1975 
L 1406 0 
L 206 0 
L 206 4666 
z
M 2759 4281 
L 2759 2359 
Q 2941 2428 3075 2556 
Q 3353 2825 3353 3322 
Q 3353 3816 3078 4084 
Q 2947 4213 2759 4281 
z
" transform="scale(0.015625)"/>
       </defs>
       <use xlink:href="#DejaVuSansMono-2119"/>
      </g>
     </g>
    </g>
   </g>
  </g>
 </g>
 <defs>
  <clipPath id="p804f92b369">
   <rect x="36.36" y="19.095517" width="816.84" height="309.835862"/>
  </clipPath>
 </defs>
</svg>
