<?xml version="1.0" encoding="utf-8" standalone="no"?>
<!DOCTYPE svg PUBLIC "-//W3C//DTD SVG 1.1//EN"
  "http://www.w3.org/Graphics/SVG/1.1/DTD/svg11.dtd">
<svg xmlns:xlink="http://www.w3.org/1999/xlink" width="864pt" height="432pt" viewBox="0 0 864 432" xmlns="http://www.w3.org/2000/svg" version="1.1">
 <metadata>
  <rdf:RDF xmlns:dc="http://purl.org/dc/elements/1.1/" xmlns:cc="http://creativecommons.org/ns#" xmlns:rdf="http://www.w3.org/1999/02/22-rdf-syntax-ns#">
   <cc:Work>
    <dc:type rdf:resource="http://purl.org/dc/dcmitype/StillImage"/>
    <dc:date>2024-09-16T23:35:15.731525</dc:date>
    <dc:format>image/svg+xml</dc:format>
    <dc:creator>
     <cc:Agent>
      <dc:title>Matplotlib v3.9.2, https://matplotlib.org/</dc:title>
     </cc:Agent>
    </dc:creator>
   </cc:Work>
  </rdf:RDF>
 </metadata>
 <defs>
  <style type="text/css">*{stroke-linejoin: round; stroke-linecap: butt}</style>
 </defs>
 <g id="figure_1">
  <g id="patch_1">
   <path d="M 0 432 
L 864 432 
L 864 0 
L 0 0 
z
" style="fill: #ffffff"/>
  </g>
  <g id="axes_1">
   <g id="patch_2">
    <path d="M 41.92 404.12 
L 853.2 404.12 
L 853.2 10.8 
L 41.92 10.8 
z
" style="fill: #ffffff"/>
   </g>
   <g id="matplotlib.axis_1">
    <g id="xtick_1">
     <g id="line2d_1">
      <defs>
       <path id="m3726342971" d="M 0 0 
L 0 3.5 
" style="stroke: #000000; stroke-width: 0.8"/>
      </defs>
      <g>
       <use xlink:href="#m3726342971" x="193.718753" y="404.12" style="stroke: #000000; stroke-width: 0.8"/>
      </g>
     </g>
     <g id="text_1">
      <!-- 100 -->
      <g transform="translate(184.688284 418.771563) scale(0.1 -0.1)">
       <defs>
        <path id="DejaVuSansMono-31" d="M 844 531 
L 1825 531 
L 1825 4097 
L 769 3859 
L 769 4434 
L 1819 4666 
L 2450 4666 
L 2450 531 
L 3419 531 
L 3419 0 
L 844 0 
L 844 531 
z
" transform="scale(0.015625)"/>
        <path id="DejaVuSansMono-30" d="M 1509 2344 
Q 1509 2516 1629 2641 
Q 1750 2766 1919 2766 
Q 2094 2766 2219 2641 
Q 2344 2516 2344 2344 
Q 2344 2169 2220 2047 
Q 2097 1925 1919 1925 
Q 1744 1925 1626 2044 
Q 1509 2163 1509 2344 
z
M 1925 4250 
Q 1484 4250 1267 3775 
Q 1050 3300 1050 2328 
Q 1050 1359 1267 884 
Q 1484 409 1925 409 
Q 2369 409 2586 884 
Q 2803 1359 2803 2328 
Q 2803 3300 2586 3775 
Q 2369 4250 1925 4250 
z
M 1925 4750 
Q 2672 4750 3055 4137 
Q 3438 3525 3438 2328 
Q 3438 1134 3055 521 
Q 2672 -91 1925 -91 
Q 1178 -91 797 521 
Q 416 1134 416 2328 
Q 416 3525 797 4137 
Q 1178 4750 1925 4750 
z
" transform="scale(0.015625)"/>
       </defs>
       <use xlink:href="#DejaVuSansMono-31"/>
       <use xlink:href="#DejaVuSansMono-30" x="60.205078"/>
       <use xlink:href="#DejaVuSansMono-30" x="120.410156"/>
      </g>
     </g>
    </g>
    <g id="xtick_2">
     <g id="line2d_2">
      <g>
       <use xlink:href="#m3726342971" x="362.384033" y="404.12" style="stroke: #000000; stroke-width: 0.8"/>
      </g>
     </g>
     <g id="text_2">
      <!-- 200 -->
      <g transform="translate(353.353565 418.771563) scale(0.1 -0.1)">
       <defs>
        <path id="DejaVuSansMono-32" d="M 1166 531 
L 3309 531 
L 3309 0 
L 475 0 
L 475 531 
Q 1059 1147 1496 1619 
Q 1934 2091 2100 2284 
Q 2413 2666 2522 2902 
Q 2631 3138 2631 3384 
Q 2631 3775 2401 3997 
Q 2172 4219 1772 4219 
Q 1488 4219 1175 4116 
Q 863 4013 513 3803 
L 513 4441 
Q 834 4594 1145 4672 
Q 1456 4750 1759 4750 
Q 2444 4750 2861 4386 
Q 3278 4022 3278 3431 
Q 3278 3131 3139 2831 
Q 3000 2531 2688 2169 
Q 2513 1966 2180 1606 
Q 1847 1247 1166 531 
z
" transform="scale(0.015625)"/>
       </defs>
       <use xlink:href="#DejaVuSansMono-32"/>
       <use xlink:href="#DejaVuSansMono-30" x="60.205078"/>
       <use xlink:href="#DejaVuSansMono-30" x="120.410156"/>
      </g>
     </g>
    </g>
    <g id="xtick_3">
     <g id="line2d_3">
      <g>
       <use xlink:href="#m3726342971" x="531.049314" y="404.12" style="stroke: #000000; stroke-width: 0.8"/>
      </g>
     </g>
     <g id="text_3">
      <!-- 300 -->
      <g transform="translate(522.018845 418.771563) scale(0.1 -0.1)">
       <defs>
        <path id="DejaVuSansMono-33" d="M 2425 2497 
Q 2884 2375 3128 2064 
Q 3372 1753 3372 1288 
Q 3372 644 2939 276 
Q 2506 -91 1741 -91 
Q 1419 -91 1084 -31 
Q 750 28 428 141 
L 428 769 
Q 747 603 1056 522 
Q 1366 441 1672 441 
Q 2191 441 2469 675 
Q 2747 909 2747 1350 
Q 2747 1756 2469 1995 
Q 2191 2234 1716 2234 
L 1234 2234 
L 1234 2753 
L 1716 2753 
Q 2150 2753 2394 2943 
Q 2638 3134 2638 3475 
Q 2638 3834 2411 4026 
Q 2184 4219 1766 4219 
Q 1488 4219 1191 4156 
Q 894 4094 569 3969 
L 569 4550 
Q 947 4650 1242 4700 
Q 1538 4750 1766 4750 
Q 2447 4750 2855 4408 
Q 3263 4066 3263 3500 
Q 3263 3116 3048 2859 
Q 2834 2603 2425 2497 
z
" transform="scale(0.015625)"/>
       </defs>
       <use xlink:href="#DejaVuSansMono-33"/>
       <use xlink:href="#DejaVuSansMono-30" x="60.205078"/>
       <use xlink:href="#DejaVuSansMono-30" x="120.410156"/>
      </g>
     </g>
    </g>
    <g id="xtick_4">
     <g id="line2d_4">
      <g>
       <use xlink:href="#m3726342971" x="699.714595" y="404.12" style="stroke: #000000; stroke-width: 0.8"/>
      </g>
     </g>
     <g id="text_4">
      <!-- 400 -->
      <g transform="translate(690.684126 418.771563) scale(0.1 -0.1)">
       <defs>
        <path id="DejaVuSansMono-34" d="M 2297 4091 
L 825 1625 
L 2297 1625 
L 2297 4091 
z
M 2194 4666 
L 2925 4666 
L 2925 1625 
L 3547 1625 
L 3547 1113 
L 2925 1113 
L 2925 0 
L 2297 0 
L 2297 1113 
L 319 1113 
L 319 1709 
L 2194 4666 
z
" transform="scale(0.015625)"/>
       </defs>
       <use xlink:href="#DejaVuSansMono-34"/>
       <use xlink:href="#DejaVuSansMono-30" x="60.205078"/>
       <use xlink:href="#DejaVuSansMono-30" x="120.410156"/>
      </g>
     </g>
    </g>
   </g>
   <g id="matplotlib.axis_2">
    <g id="ytick_1">
     <g id="line2d_5">
      <defs>
       <path id="mffe96774fa" d="M 0 0 
L -3.5 0 
" style="stroke: #000000; stroke-width: 0.8"/>
      </defs>
      <g>
       <use xlink:href="#mffe96774fa" x="41.92" y="374.203577" style="stroke: #000000; stroke-width: 0.8"/>
      </g>
     </g>
     <g id="text_5">
      <!-- 0.13 -->
      <g transform="translate(10.83875 378.029358) scale(0.1 -0.1)">
       <defs>
        <path id="DejaVuSansMono-2e" d="M 1528 953 
L 2316 953 
L 2316 0 
L 1528 0 
L 1528 953 
z
" transform="scale(0.015625)"/>
       </defs>
       <use xlink:href="#DejaVuSansMono-30"/>
       <use xlink:href="#DejaVuSansMono-2e" x="60.205078"/>
       <use xlink:href="#DejaVuSansMono-31" x="120.410156"/>
       <use xlink:href="#DejaVuSansMono-33" x="180.615234"/>
      </g>
     </g>
    </g>
    <g id="ytick_2">
     <g id="line2d_6">
      <g>
       <use xlink:href="#mffe96774fa" x="41.92" y="328.473872" style="stroke: #000000; stroke-width: 0.8"/>
      </g>
     </g>
     <g id="text_6">
      <!-- 0.14 -->
      <g transform="translate(10.83875 332.299653) scale(0.1 -0.1)">
       <use xlink:href="#DejaVuSansMono-30"/>
       <use xlink:href="#DejaVuSansMono-2e" x="60.205078"/>
       <use xlink:href="#DejaVuSansMono-31" x="120.410156"/>
       <use xlink:href="#DejaVuSansMono-34" x="180.615234"/>
      </g>
     </g>
    </g>
    <g id="ytick_3">
     <g id="line2d_7">
      <g>
       <use xlink:href="#mffe96774fa" x="41.92" y="282.744167" style="stroke: #000000; stroke-width: 0.8"/>
      </g>
     </g>
     <g id="text_7">
      <!-- 0.15 -->
      <g transform="translate(10.83875 286.569948) scale(0.1 -0.1)">
       <defs>
        <path id="DejaVuSansMono-35" d="M 647 4666 
L 3009 4666 
L 3009 4134 
L 1222 4134 
L 1222 2988 
Q 1356 3038 1492 3061 
Q 1628 3084 1766 3084 
Q 2491 3084 2916 2656 
Q 3341 2228 3341 1497 
Q 3341 759 2895 334 
Q 2450 -91 1678 -91 
Q 1306 -91 998 -41 
Q 691 9 447 109 
L 447 750 
Q 734 594 1025 517 
Q 1316 441 1619 441 
Q 2141 441 2423 716 
Q 2706 991 2706 1497 
Q 2706 1997 2414 2275 
Q 2122 2553 1600 2553 
Q 1347 2553 1106 2495 
Q 866 2438 647 2322 
L 647 4666 
z
" transform="scale(0.015625)"/>
       </defs>
       <use xlink:href="#DejaVuSansMono-30"/>
       <use xlink:href="#DejaVuSansMono-2e" x="60.205078"/>
       <use xlink:href="#DejaVuSansMono-31" x="120.410156"/>
       <use xlink:href="#DejaVuSansMono-35" x="180.615234"/>
      </g>
     </g>
    </g>
    <g id="ytick_4">
     <g id="line2d_8">
      <g>
       <use xlink:href="#mffe96774fa" x="41.92" y="237.014462" style="stroke: #000000; stroke-width: 0.8"/>
      </g>
     </g>
     <g id="text_8">
      <!-- 0.16 -->
      <g transform="translate(10.83875 240.840244) scale(0.1 -0.1)">
       <defs>
        <path id="DejaVuSansMono-36" d="M 3097 4563 
L 3097 3981 
Q 2900 4097 2678 4158 
Q 2456 4219 2216 4219 
Q 1616 4219 1306 3767 
Q 997 3316 997 2438 
Q 1147 2750 1412 2917 
Q 1678 3084 2022 3084 
Q 2697 3084 3067 2670 
Q 3438 2256 3438 1497 
Q 3438 741 3056 325 
Q 2675 -91 1984 -91 
Q 1172 -91 794 492 
Q 416 1075 416 2328 
Q 416 3509 870 4129 
Q 1325 4750 2188 4750 
Q 2419 4750 2650 4701 
Q 2881 4653 3097 4563 
z
M 1972 2591 
Q 1569 2591 1337 2300 
Q 1106 2009 1106 1497 
Q 1106 984 1337 693 
Q 1569 403 1972 403 
Q 2391 403 2603 679 
Q 2816 956 2816 1497 
Q 2816 2041 2603 2316 
Q 2391 2591 1972 2591 
z
" transform="scale(0.015625)"/>
       </defs>
       <use xlink:href="#DejaVuSansMono-30"/>
       <use xlink:href="#DejaVuSansMono-2e" x="60.205078"/>
       <use xlink:href="#DejaVuSansMono-31" x="120.410156"/>
       <use xlink:href="#DejaVuSansMono-36" x="180.615234"/>
      </g>
     </g>
    </g>
    <g id="ytick_5">
     <g id="line2d_9">
      <g>
       <use xlink:href="#mffe96774fa" x="41.92" y="191.284758" style="stroke: #000000; stroke-width: 0.8"/>
      </g>
     </g>
     <g id="text_9">
      <!-- 0.17 -->
      <g transform="translate(10.83875 195.110539) scale(0.1 -0.1)">
       <defs>
        <path id="DejaVuSansMono-37" d="M 434 4666 
L 3372 4666 
L 3372 4397 
L 1703 0 
L 1044 0 
L 2669 4134 
L 434 4134 
L 434 4666 
z
" transform="scale(0.015625)"/>
       </defs>
       <use xlink:href="#DejaVuSansMono-30"/>
       <use xlink:href="#DejaVuSansMono-2e" x="60.205078"/>
       <use xlink:href="#DejaVuSansMono-31" x="120.410156"/>
       <use xlink:href="#DejaVuSansMono-37" x="180.615234"/>
      </g>
     </g>
    </g>
    <g id="ytick_6">
     <g id="line2d_10">
      <g>
       <use xlink:href="#mffe96774fa" x="41.92" y="145.555053" style="stroke: #000000; stroke-width: 0.8"/>
      </g>
     </g>
     <g id="text_10">
      <!-- 0.18 -->
      <g transform="translate(10.83875 149.380834) scale(0.1 -0.1)">
       <defs>
        <path id="DejaVuSansMono-38" d="M 1925 2216 
Q 1503 2216 1273 1980 
Q 1044 1744 1044 1313 
Q 1044 881 1276 642 
Q 1509 403 1925 403 
Q 2350 403 2579 639 
Q 2809 875 2809 1313 
Q 2809 1741 2576 1978 
Q 2344 2216 1925 2216 
z
M 1375 2478 
Q 972 2581 745 2862 
Q 519 3144 519 3541 
Q 519 4097 897 4423 
Q 1275 4750 1925 4750 
Q 2578 4750 2956 4423 
Q 3334 4097 3334 3541 
Q 3334 3144 3107 2862 
Q 2881 2581 2478 2478 
Q 2947 2375 3195 2062 
Q 3444 1750 3444 1253 
Q 3444 622 3041 265 
Q 2638 -91 1925 -91 
Q 1213 -91 811 264 
Q 409 619 409 1247 
Q 409 1747 657 2061 
Q 906 2375 1375 2478 
z
M 1147 3481 
Q 1147 3106 1347 2909 
Q 1547 2713 1925 2713 
Q 2306 2713 2506 2909 
Q 2706 3106 2706 3481 
Q 2706 3863 2507 4063 
Q 2309 4263 1925 4263 
Q 1547 4263 1347 4061 
Q 1147 3859 1147 3481 
z
" transform="scale(0.015625)"/>
       </defs>
       <use xlink:href="#DejaVuSansMono-30"/>
       <use xlink:href="#DejaVuSansMono-2e" x="60.205078"/>
       <use xlink:href="#DejaVuSansMono-31" x="120.410156"/>
       <use xlink:href="#DejaVuSansMono-38" x="180.615234"/>
      </g>
     </g>
    </g>
    <g id="ytick_7">
     <g id="line2d_11">
      <g>
       <use xlink:href="#mffe96774fa" x="41.92" y="99.825348" style="stroke: #000000; stroke-width: 0.8"/>
      </g>
     </g>
     <g id="text_11">
      <!-- 0.19 -->
      <g transform="translate(10.83875 103.651129) scale(0.1 -0.1)">
       <defs>
        <path id="DejaVuSansMono-39" d="M 1863 2069 
Q 2266 2069 2495 2359 
Q 2725 2650 2725 3163 
Q 2725 3675 2495 3965 
Q 2266 4256 1863 4256 
Q 1444 4256 1231 3979 
Q 1019 3703 1019 3163 
Q 1019 2619 1230 2344 
Q 1441 2069 1863 2069 
z
M 738 97 
L 738 678 
Q 934 563 1156 502 
Q 1378 441 1619 441 
Q 2219 441 2526 892 
Q 2834 1344 2834 2222 
Q 2688 1909 2422 1742 
Q 2156 1575 1813 1575 
Q 1138 1575 767 1990 
Q 397 2406 397 3169 
Q 397 3922 776 4336 
Q 1156 4750 1850 4750 
Q 2663 4750 3041 4165 
Q 3419 3581 3419 2328 
Q 3419 1150 2964 529 
Q 2509 -91 1644 -91 
Q 1416 -91 1184 -42 
Q 953 6 738 97 
z
" transform="scale(0.015625)"/>
       </defs>
       <use xlink:href="#DejaVuSansMono-30"/>
       <use xlink:href="#DejaVuSansMono-2e" x="60.205078"/>
       <use xlink:href="#DejaVuSansMono-31" x="120.410156"/>
       <use xlink:href="#DejaVuSansMono-39" x="180.615234"/>
      </g>
     </g>
    </g>
    <g id="ytick_8">
     <g id="line2d_12">
      <g>
       <use xlink:href="#mffe96774fa" x="41.92" y="54.095643" style="stroke: #000000; stroke-width: 0.8"/>
      </g>
     </g>
     <g id="text_12">
      <!-- 0.20 -->
      <g transform="translate(10.83875 57.921425) scale(0.1 -0.1)">
       <use xlink:href="#DejaVuSansMono-30"/>
       <use xlink:href="#DejaVuSansMono-2e" x="60.205078"/>
       <use xlink:href="#DejaVuSansMono-32" x="120.410156"/>
       <use xlink:href="#DejaVuSansMono-30" x="180.615234"/>
      </g>
     </g>
    </g>
   </g>
   <g id="line2d_13">
    <path d="M 25.053472 214.678455 
L 26.740125 198.933324 
L 28.426778 235.781241 
L 30.11343 282.899846 
L 31.800083 273.216643 
L 33.486736 273.822036 
L 35.173389 180.340821 
L 36.860042 183.941539 
L 38.546694 149.238654 
L 40.233347 178.712428 
L 41.92 152.442977 
L 43.606653 151.037904 
L 45.293306 158.749251 
L 46.979958 125.781985 
L 48.666611 43.462469 
L 50.353264 28.678182 
L 52.039917 104.48795 
L 53.72657 86.24509 
L 55.413222 120.0682 
L 57.099875 33.501991 
L 58.786528 55.853933 
L 60.473181 74.187685 
L 62.159834 66.233654 
L 63.846486 83.713784 
L 65.533139 167.626303 
L 67.219792 115.836962 
L 68.906445 129.681931 
L 70.593098 126.29579 
L 72.279751 116.074922 
L 73.966403 186.686509 
L 75.653056 189.937455 
L 77.339709 187.230607 
L 79.026362 117.891781 
L 80.713015 110.340793 
L 82.399667 95.710979 
L 84.08632 152.659844 
L 85.772973 165.525713 
L 87.459626 180.754044 
L 89.146279 180.170867 
L 90.832931 195.417126 
L 92.519584 197.067014 
L 94.206237 173.021416 
L 95.89289 238.639979 
L 97.579543 263.268775 
L 99.266195 274.537744 
L 100.952848 280.973585 
L 102.639501 282.884289 
L 104.326154 285.95591 
L 106.012807 305.814345 
L 107.699459 292.844456 
L 109.386112 291.40996 
L 112.759418 327.617828 
L 114.446071 309.81244 
L 116.132723 316.837346 
L 117.819376 318.982393 
L 119.506029 316.089877 
L 121.192682 308.959731 
L 122.879335 307.548281 
L 124.565988 305.880396 
L 126.25264 302.401091 
L 127.939293 311.881405 
L 129.625946 315.309944 
L 131.312599 322.363682 
L 132.999252 324.661292 
L 134.685904 320.549856 
L 136.372557 322.832271 
L 138.05921 330.20375 
L 139.745863 330.771807 
L 141.432516 342.675483 
L 143.119168 338.904609 
L 144.805821 337.557662 
L 146.492474 309.463509 
L 148.179127 317.430527 
L 149.86578 296.619357 
L 151.552432 293.51485 
L 153.239085 292.696901 
L 154.925738 252.863541 
L 156.612391 248.383344 
L 158.299044 231.131363 
L 159.985696 154.686186 
L 161.672349 139.917946 
L 163.359002 181.85439 
L 165.045655 182.090743 
L 166.732308 205.925801 
L 168.41896 212.255169 
L 170.105613 207.887516 
L 171.792266 243.26752 
L 173.478919 244.982894 
L 175.165572 222.478203 
L 176.852225 292.558217 
L 178.538877 303.749939 
L 180.22553 254.752003 
L 181.912183 160.471524 
L 183.598836 148.818381 
L 185.285489 45.812287 
L 186.972141 47.507265 
L 188.658794 53.017008 
L 190.345447 56.458228 
L 192.0321 94.550449 
L 193.718753 106.91453 
L 195.405405 79.623724 
L 197.092058 131.083794 
L 198.778711 232.350914 
L 200.465364 241.168549 
L 202.152017 340.067418 
L 203.838669 344.116749 
L 205.525322 341.300219 
L 207.211975 339.943582 
L 208.898628 333.825817 
L 210.585281 337.627253 
L 212.271933 366.325728 
L 213.958586 361.309794 
L 215.645239 360.782981 
L 217.331892 350.174927 
L 219.018545 351.795418 
L 220.705198 316.985359 
L 222.39185 304.339372 
L 224.078503 293.954185 
L 225.765156 303.906033 
L 227.451809 302.876385 
L 229.138462 303.895301 
L 230.825114 309.277443 
L 232.511767 293.547085 
L 234.19842 300.574628 
L 235.885073 305.381309 
L 237.571726 340.650493 
L 239.258378 329.814843 
L 240.945031 310.262832 
L 242.631684 310.098254 
L 244.318337 310.848476 
L 246.00499 312.130415 
L 247.691642 306.818208 
L 249.378295 299.60732 
L 251.064948 305.094603 
L 252.751601 305.214251 
L 254.438254 275.382265 
L 257.811559 327.189937 
L 259.498212 328.346173 
L 261.184865 325.924523 
L 262.871518 327.146864 
L 264.55817 329.765106 
L 266.244823 346.158219 
L 267.931476 346.733764 
L 269.618129 333.082494 
L 271.304782 328.01837 
L 272.991435 324.488898 
L 274.678087 329.073619 
L 276.36474 329.177809 
L 278.051393 331.236192 
L 279.738046 330.372273 
L 281.424699 332.939327 
L 283.111351 331.097304 
L 284.798004 329.490004 
L 286.484657 339.41993 
L 288.17131 360.884029 
L 289.857963 360.794354 
L 291.544615 360.231305 
L 293.231268 360.454472 
L 294.917921 337.319899 
L 296.604574 337.893346 
L 298.291227 336.25832 
L 299.977879 328.974969 
L 301.664532 326.761712 
L 303.351185 329.981483 
L 305.037838 339.373021 
L 306.724491 331.740113 
L 308.411143 333.52939 
L 310.097796 317.47896 
L 311.784449 334.412647 
L 313.471102 321.936567 
L 315.157755 299.597354 
L 316.844407 305.486569 
L 318.53106 308.023429 
L 320.217713 295.185743 
L 321.904366 293.032349 
L 323.591019 304.884686 
L 325.277672 303.686341 
L 326.964324 315.552852 
L 328.650977 322.890924 
L 330.33763 331.538074 
L 332.024283 355.598612 
L 333.710936 366.387802 
L 335.397588 340.621734 
L 337.084241 354.383647 
L 338.770894 310.5165 
L 340.457547 281.057151 
L 342.1442 280.285219 
L 343.830852 282.420875 
L 345.517505 279.410285 
L 347.204158 281.388764 
L 348.890811 275.564846 
L 350.577464 252.010045 
L 352.264116 279.909974 
L 353.950769 276.417528 
L 355.637422 297.375614 
L 357.324075 309.529945 
L 359.010728 310.709684 
L 360.69738 306.739084 
L 362.384033 307.514853 
L 364.070686 299.026143 
L 365.757339 296.422933 
L 367.443992 294.836771 
L 369.130644 283.642436 
L 370.817297 281.37061 
L 374.190603 319.173478 
L 375.877256 300.579449 
L 377.563909 305.894202 
L 379.250561 305.306329 
L 380.937214 271.7406 
L 382.623867 276.174828 
L 384.31052 297.360524 
L 385.997173 306.321067 
L 387.683825 306.17698 
L 391.057131 304.36684 
L 392.743784 323.650786 
L 394.430437 315.596109 
L 396.117089 313.553938 
L 397.803742 351.901912 
L 399.490395 339.399222 
L 401.177048 335.113865 
L 402.863701 337.432334 
L 404.550353 342.828558 
L 406.237006 353.076417 
L 407.923659 339.92486 
L 409.610312 331.430998 
L 411.296965 296.857516 
L 412.983617 285.90062 
L 414.67027 291.75791 
L 416.356923 306.713412 
L 418.043576 313.313224 
L 419.730229 300.375083 
L 421.416881 261.591943 
L 423.103534 232.934817 
L 424.790187 248.050686 
L 426.47684 248.82148 
L 428.163493 287.702943 
L 429.850146 272.157231 
L 431.536798 252.887193 
L 433.223451 254.176546 
L 434.910104 245.184419 
L 436.596757 257.879901 
L 438.28341 294.273335 
L 439.970062 308.574266 
L 441.656715 302.505059 
L 443.343368 309.524092 
L 445.030021 312.865681 
L 446.716674 343.542191 
L 448.403326 362.074327 
L 450.089979 359.404616 
L 451.776632 359.05048 
L 453.463285 359.296859 
L 455.149938 361.117356 
L 456.83659 373.790995 
L 458.523243 379.202677 
L 460.209896 372.644534 
L 461.896549 368.000332 
L 463.583202 368.622078 
L 465.269854 369.086061 
L 466.956507 334.440818 
L 468.64316 329.187584 
L 470.329813 328.795431 
L 472.016466 324.715428 
L 473.703119 323.724846 
L 475.389771 318.551016 
L 477.076424 265.43744 
L 478.763077 264.799905 
L 480.44973 260.813503 
L 482.136383 260.01338 
L 483.823035 282.986366 
L 485.509688 298.560095 
L 487.196341 291.960753 
L 488.882994 276.945504 
L 490.569647 242.012535 
L 492.256299 241.320616 
L 493.942952 300.093691 
L 495.629605 278.516326 
L 497.316258 265.092764 
L 499.002911 243.584939 
L 500.689563 253.06141 
L 502.376216 252.31532 
L 504.062869 255.033085 
L 505.749522 269.729127 
L 507.436175 307.785829 
L 509.122827 303.879488 
L 510.80948 304.911419 
L 512.496133 333.48642 
L 514.182786 348.791207 
L 515.869439 351.98804 
L 517.556091 357.245734 
L 519.242744 356.171459 
L 520.929397 358.656053 
L 522.61605 357.519258 
L 524.302703 356.008772 
L 525.989356 366.059437 
L 527.676008 362.267644 
L 529.362661 357.660293 
L 531.049314 349.620451 
L 532.735967 365.165134 
L 534.42262 362.548415 
L 536.109272 363.105228 
L 537.795925 361.015664 
L 539.482578 361.208602 
L 541.169231 356.131095 
L 542.855884 355.999226 
L 544.542536 352.957164 
L 546.229189 356.725421 
L 547.915842 337.59111 
L 549.602495 337.891394 
L 551.289148 337.1188 
L 552.9758 315.07827 
L 554.662453 315.647935 
L 558.035759 326.42563 
L 559.722412 325.198746 
L 561.409064 332.582352 
L 563.095717 331.195419 
L 564.78237 354.67572 
L 566.469023 358.300748 
L 568.155676 337.925772 
L 569.842328 361.015657 
L 571.528981 359.810078 
L 574.902287 361.363562 
L 576.58894 334.040368 
L 578.275593 334.017564 
L 579.962245 335.771778 
L 581.648898 332.435096 
L 583.335551 326.899493 
L 585.022204 343.67755 
L 588.395509 343.4761 
L 591.768815 291.278104 
L 593.455468 311.289669 
L 595.142121 303.38248 
L 596.828773 303.640318 
L 598.515426 312.230145 
L 600.202079 317.009236 
L 601.888732 324.231429 
L 603.575385 324.476565 
L 605.262037 322.717791 
L 606.94869 343.425991 
L 608.635343 370.317465 
L 610.321996 378.582873 
L 612.008649 386.241818 
L 613.695301 384.212873 
L 615.381954 378.396918 
L 617.068607 378.463623 
L 618.75526 369.504075 
L 620.441913 356.365683 
L 622.128565 326.536497 
L 623.815218 313.009604 
L 625.501871 312.864342 
L 627.188524 312.276292 
L 628.875177 283.310589 
L 630.56183 284.521625 
L 632.248482 289.889195 
L 633.935135 285.092714 
L 635.621788 292.501917 
L 637.308441 294.415858 
L 640.681746 332.536216 
L 642.368399 329.596532 
L 644.055052 320.906139 
L 645.741705 336.295825 
L 647.428358 335.943344 
L 649.11501 331.196471 
L 650.801663 331.245268 
L 652.488316 326.081438 
L 654.174969 330.449104 
L 655.861622 346.543807 
L 657.548274 342.681922 
L 659.234927 345.538946 
L 660.92158 355.904351 
L 662.608233 368.427558 
L 664.294886 364.878025 
L 665.981538 370.549879 
L 667.668191 375.038437 
L 669.354844 374.017586 
L 671.041497 361.206211 
L 672.72815 357.792316 
L 674.414802 358.171522 
L 676.101455 356.446456 
L 677.788108 351.265181 
L 679.474761 339.978911 
L 681.161414 337.06632 
L 682.848067 336.444969 
L 684.534719 337.023111 
L 686.221372 344.525465 
L 687.908025 356.433079 
L 689.594678 351.429132 
L 691.281331 351.916562 
L 692.967983 353.208791 
L 694.654636 347.413497 
L 696.341289 334.731163 
L 698.027942 336.481044 
L 699.714595 334.234369 
L 701.401247 318.628235 
L 703.0879 317.218332 
L 704.774553 323.691896 
L 706.461206 332.739594 
L 708.147859 325.96426 
L 709.834511 324.455004 
L 711.521164 332.157554 
L 713.207817 346.444728 
L 714.89447 346.089984 
L 716.581123 348.858794 
L 718.267775 354.187175 
L 721.641081 345.757489 
L 723.327734 346.444097 
L 725.014387 355.440845 
L 726.70104 339.361733 
L 728.387692 305.567645 
L 730.074345 315.51582 
L 731.760998 313.584632 
L 733.447651 306.738376 
L 735.134304 308.621189 
L 736.820956 307.557081 
L 738.507609 309.496065 
L 740.194262 307.863365 
L 741.880915 291.037077 
L 743.567568 307.231786 
L 745.25422 302.611018 
L 746.940873 282.939048 
L 748.627526 285.235568 
L 750.314179 267.30794 
L 752.000832 276.179898 
L 753.687484 260.999818 
L 755.374137 261.64089 
L 757.06079 257.198567 
L 758.747443 273.792039 
L 760.434096 267.045223 
L 762.120748 297.730838 
L 763.807401 316.638234 
L 765.494054 320.467805 
L 767.180707 344.354257 
L 768.86736 339.263639 
L 770.554012 359.623794 
L 772.240665 352.16223 
L 773.927318 347.315481 
L 775.613971 346.978611 
L 777.300624 354.873773 
L 778.987277 357.989803 
L 780.673929 356.193728 
L 782.360582 358.013115 
L 784.047235 315.487503 
L 785.733888 316.870184 
L 787.420541 312.782216 
L 789.107193 318.251032 
L 790.793846 322.080563 
L 792.480499 312.947469 
L 794.167152 308.931636 
L 795.853805 313.174915 
L 799.22711 278.014085 
L 800.913763 319.516917 
L 802.600416 319.549823 
L 804.287069 312.421899 
L 805.973721 299.114432 
L 807.660374 295.269017 
L 809.347027 302.563134 
L 811.03368 296.679036 
L 812.720333 292.77566 
L 814.406985 313.118868 
L 816.093638 327.996476 
L 817.780291 329.782489 
L 819.466944 331.809812 
L 821.153597 335.945678 
L 822.840249 342.793298 
L 824.526902 339.426373 
L 826.213555 336.609203 
L 827.900208 345.37907 
L 829.586861 350.687703 
L 831.273514 348.954136 
L 832.960166 330.484215 
L 834.646819 321.634154 
L 836.333472 318.316831 
L 838.020125 297.988921 
L 839.706778 309.288829 
L 841.39343 322.473981 
L 843.080083 320.431005 
L 844.766736 322.437293 
L 846.453389 322.737045 
L 848.140042 312.682779 
L 849.826694 333.108208 
L 851.513347 342.177476 
L 851.513347 342.177476 
" clip-path="url(#p65cbedb8c4)" style="fill: none; stroke-dasharray: 7.4,3.2; stroke-dashoffset: 0; stroke: #000000; stroke-width: 2"/>
   </g>
   <g id="patch_3">
    <path d="M 41.92 404.12 
L 41.92 10.8 
" style="fill: none; stroke: #000000; stroke-width: 0.8; stroke-linejoin: miter; stroke-linecap: square"/>
   </g>
   <g id="patch_4">
    <path d="M 853.2 404.12 
L 853.2 10.8 
" style="fill: none; stroke: #000000; stroke-width: 0.8; stroke-linejoin: miter; stroke-linecap: square"/>
   </g>
   <g id="patch_5">
    <path d="M 41.92 404.12 
L 853.2 404.12 
" style="fill: none; stroke: #000000; stroke-width: 0.8; stroke-linejoin: miter; stroke-linecap: square"/>
   </g>
   <g id="patch_6">
    <path d="M 41.92 10.8 
L 853.2 10.8 
" style="fill: none; stroke: #000000; stroke-width: 0.8; stroke-linejoin: miter; stroke-linecap: square"/>
   </g>
  </g>
 </g>
 <defs>
  <clipPath id="p65cbedb8c4">
   <rect x="41.92" y="10.8" width="811.28" height="393.32"/>
  </clipPath>
 </defs>
</svg>
