<?xml version="1.0" encoding="utf-8" standalone="no"?>
<!DOCTYPE svg PUBLIC "-//W3C//DTD SVG 1.1//EN"
  "http://www.w3.org/Graphics/SVG/1.1/DTD/svg11.dtd">
<svg xmlns:xlink="http://www.w3.org/1999/xlink" width="864pt" height="432pt" viewBox="0 0 864 432" xmlns="http://www.w3.org/2000/svg" version="1.1">
 <metadata>
  <rdf:RDF xmlns:dc="http://purl.org/dc/elements/1.1/" xmlns:cc="http://creativecommons.org/ns#" xmlns:rdf="http://www.w3.org/1999/02/22-rdf-syntax-ns#">
   <cc:Work>
    <dc:type rdf:resource="http://purl.org/dc/dcmitype/StillImage"/>
    <dc:date>2024-09-18T20:45:37.106271</dc:date>
    <dc:format>image/svg+xml</dc:format>
    <dc:creator>
     <cc:Agent>
      <dc:title>Matplotlib v3.9.2, https://matplotlib.org/</dc:title>
     </cc:Agent>
    </dc:creator>
   </cc:Work>
  </rdf:RDF>
 </metadata>
 <defs>
  <style type="text/css">*{stroke-linejoin: round; stroke-linecap: butt}</style>
 </defs>
 <g id="figure_1">
  <g id="patch_1">
   <path d="M 0 432 
L 864 432 
L 864 0 
L 0 0 
z
" style="fill: #ffffff"/>
  </g>
  <g id="axes_1">
   <g id="patch_2">
    <path d="M 35.89 404.12 
L 853.2 404.12 
L 853.2 10.8 
L 35.89 10.8 
z
" style="fill: #ffffff"/>
   </g>
   <g id="matplotlib.axis_1">
    <g id="xtick_1">
     <g id="line2d_1">
      <defs>
       <path id="m9d5035cb4b" d="M 0 0 
L 0 3.5 
" style="stroke: #000000; stroke-width: 0.8"/>
      </defs>
      <g>
       <use xlink:href="#m9d5035cb4b" x="170.234817" y="404.12" style="stroke: #000000; stroke-width: 0.8"/>
      </g>
     </g>
     <g id="text_1">
      <!-- 500 -->
      <g transform="translate(161.204348 418.771563) scale(0.1 -0.1)">
       <defs>
        <path id="DejaVuSansMono-35" d="M 647 4666 
L 3009 4666 
L 3009 4134 
L 1222 4134 
L 1222 2988 
Q 1356 3038 1492 3061 
Q 1628 3084 1766 3084 
Q 2491 3084 2916 2656 
Q 3341 2228 3341 1497 
Q 3341 759 2895 334 
Q 2450 -91 1678 -91 
Q 1306 -91 998 -41 
Q 691 9 447 109 
L 447 750 
Q 734 594 1025 517 
Q 1316 441 1619 441 
Q 2141 441 2423 716 
Q 2706 991 2706 1497 
Q 2706 1997 2414 2275 
Q 2122 2553 1600 2553 
Q 1347 2553 1106 2495 
Q 866 2438 647 2322 
L 647 4666 
z
" transform="scale(0.015625)"/>
        <path id="DejaVuSansMono-30" d="M 1509 2344 
Q 1509 2516 1629 2641 
Q 1750 2766 1919 2766 
Q 2094 2766 2219 2641 
Q 2344 2516 2344 2344 
Q 2344 2169 2220 2047 
Q 2097 1925 1919 1925 
Q 1744 1925 1626 2044 
Q 1509 2163 1509 2344 
z
M 1925 4250 
Q 1484 4250 1267 3775 
Q 1050 3300 1050 2328 
Q 1050 1359 1267 884 
Q 1484 409 1925 409 
Q 2369 409 2586 884 
Q 2803 1359 2803 2328 
Q 2803 3300 2586 3775 
Q 2369 4250 1925 4250 
z
M 1925 4750 
Q 2672 4750 3055 4137 
Q 3438 3525 3438 2328 
Q 3438 1134 3055 521 
Q 2672 -91 1925 -91 
Q 1178 -91 797 521 
Q 416 1134 416 2328 
Q 416 3525 797 4137 
Q 1178 4750 1925 4750 
z
" transform="scale(0.015625)"/>
       </defs>
       <use xlink:href="#DejaVuSansMono-35"/>
       <use xlink:href="#DejaVuSansMono-30" x="60.205078"/>
       <use xlink:href="#DejaVuSansMono-30" x="120.410156"/>
      </g>
     </g>
    </g>
    <g id="xtick_2">
     <g id="line2d_2">
      <g>
       <use xlink:href="#m9d5035cb4b" x="307.321365" y="404.12" style="stroke: #000000; stroke-width: 0.8"/>
      </g>
     </g>
     <g id="text_2">
      <!-- 1000 -->
      <g transform="translate(295.28074 418.771563) scale(0.1 -0.1)">
       <defs>
        <path id="DejaVuSansMono-31" d="M 844 531 
L 1825 531 
L 1825 4097 
L 769 3859 
L 769 4434 
L 1819 4666 
L 2450 4666 
L 2450 531 
L 3419 531 
L 3419 0 
L 844 0 
L 844 531 
z
" transform="scale(0.015625)"/>
       </defs>
       <use xlink:href="#DejaVuSansMono-31"/>
       <use xlink:href="#DejaVuSansMono-30" x="60.205078"/>
       <use xlink:href="#DejaVuSansMono-30" x="120.410156"/>
       <use xlink:href="#DejaVuSansMono-30" x="180.615234"/>
      </g>
     </g>
    </g>
    <g id="xtick_3">
     <g id="line2d_3">
      <g>
       <use xlink:href="#m9d5035cb4b" x="444.407913" y="404.12" style="stroke: #000000; stroke-width: 0.8"/>
      </g>
     </g>
     <g id="text_3">
      <!-- 1500 -->
      <g transform="translate(432.367288 418.771563) scale(0.1 -0.1)">
       <use xlink:href="#DejaVuSansMono-31"/>
       <use xlink:href="#DejaVuSansMono-35" x="60.205078"/>
       <use xlink:href="#DejaVuSansMono-30" x="120.410156"/>
       <use xlink:href="#DejaVuSansMono-30" x="180.615234"/>
      </g>
     </g>
    </g>
    <g id="xtick_4">
     <g id="line2d_4">
      <g>
       <use xlink:href="#m9d5035cb4b" x="581.494462" y="404.12" style="stroke: #000000; stroke-width: 0.8"/>
      </g>
     </g>
     <g id="text_4">
      <!-- 2000 -->
      <g transform="translate(569.453837 418.771563) scale(0.1 -0.1)">
       <defs>
        <path id="DejaVuSansMono-32" d="M 1166 531 
L 3309 531 
L 3309 0 
L 475 0 
L 475 531 
Q 1059 1147 1496 1619 
Q 1934 2091 2100 2284 
Q 2413 2666 2522 2902 
Q 2631 3138 2631 3384 
Q 2631 3775 2401 3997 
Q 2172 4219 1772 4219 
Q 1488 4219 1175 4116 
Q 863 4013 513 3803 
L 513 4441 
Q 834 4594 1145 4672 
Q 1456 4750 1759 4750 
Q 2444 4750 2861 4386 
Q 3278 4022 3278 3431 
Q 3278 3131 3139 2831 
Q 3000 2531 2688 2169 
Q 2513 1966 2180 1606 
Q 1847 1247 1166 531 
z
" transform="scale(0.015625)"/>
       </defs>
       <use xlink:href="#DejaVuSansMono-32"/>
       <use xlink:href="#DejaVuSansMono-30" x="60.205078"/>
       <use xlink:href="#DejaVuSansMono-30" x="120.410156"/>
       <use xlink:href="#DejaVuSansMono-30" x="180.615234"/>
      </g>
     </g>
    </g>
    <g id="xtick_5">
     <g id="line2d_5">
      <g>
       <use xlink:href="#m9d5035cb4b" x="718.58101" y="404.12" style="stroke: #000000; stroke-width: 0.8"/>
      </g>
     </g>
     <g id="text_5">
      <!-- 2500 -->
      <g transform="translate(706.540385 418.771563) scale(0.1 -0.1)">
       <use xlink:href="#DejaVuSansMono-32"/>
       <use xlink:href="#DejaVuSansMono-35" x="60.205078"/>
       <use xlink:href="#DejaVuSansMono-30" x="120.410156"/>
       <use xlink:href="#DejaVuSansMono-30" x="180.615234"/>
      </g>
     </g>
    </g>
   </g>
   <g id="matplotlib.axis_2">
    <g id="ytick_1">
     <g id="line2d_6">
      <defs>
       <path id="m0010a94562" d="M 0 0 
L -3.5 0 
" style="stroke: #000000; stroke-width: 0.8"/>
      </defs>
      <g>
       <use xlink:href="#m0010a94562" x="35.89" y="396.901359" style="stroke: #000000; stroke-width: 0.8"/>
      </g>
     </g>
     <g id="text_6">
      <!-- 0.0 -->
      <g transform="translate(10.829063 400.727141) scale(0.1 -0.1)">
       <defs>
        <path id="DejaVuSansMono-2e" d="M 1528 953 
L 2316 953 
L 2316 0 
L 1528 0 
L 1528 953 
z
" transform="scale(0.015625)"/>
       </defs>
       <use xlink:href="#DejaVuSansMono-30"/>
       <use xlink:href="#DejaVuSansMono-2e" x="60.205078"/>
       <use xlink:href="#DejaVuSansMono-30" x="120.410156"/>
      </g>
     </g>
    </g>
    <g id="ytick_2">
     <g id="line2d_7">
      <g>
       <use xlink:href="#m0010a94562" x="35.89" y="321.801407" style="stroke: #000000; stroke-width: 0.8"/>
      </g>
     </g>
     <g id="text_7">
      <!-- 0.2 -->
      <g transform="translate(10.829063 325.627189) scale(0.1 -0.1)">
       <use xlink:href="#DejaVuSansMono-30"/>
       <use xlink:href="#DejaVuSansMono-2e" x="60.205078"/>
       <use xlink:href="#DejaVuSansMono-32" x="120.410156"/>
      </g>
     </g>
    </g>
    <g id="ytick_3">
     <g id="line2d_8">
      <g>
       <use xlink:href="#m0010a94562" x="35.89" y="246.701455" style="stroke: #000000; stroke-width: 0.8"/>
      </g>
     </g>
     <g id="text_8">
      <!-- 0.4 -->
      <g transform="translate(10.829063 250.527237) scale(0.1 -0.1)">
       <defs>
        <path id="DejaVuSansMono-34" d="M 2297 4091 
L 825 1625 
L 2297 1625 
L 2297 4091 
z
M 2194 4666 
L 2925 4666 
L 2925 1625 
L 3547 1625 
L 3547 1113 
L 2925 1113 
L 2925 0 
L 2297 0 
L 2297 1113 
L 319 1113 
L 319 1709 
L 2194 4666 
z
" transform="scale(0.015625)"/>
       </defs>
       <use xlink:href="#DejaVuSansMono-30"/>
       <use xlink:href="#DejaVuSansMono-2e" x="60.205078"/>
       <use xlink:href="#DejaVuSansMono-34" x="120.410156"/>
      </g>
     </g>
    </g>
    <g id="ytick_4">
     <g id="line2d_9">
      <g>
       <use xlink:href="#m0010a94562" x="35.89" y="171.601503" style="stroke: #000000; stroke-width: 0.8"/>
      </g>
     </g>
     <g id="text_9">
      <!-- 0.6 -->
      <g transform="translate(10.829063 175.427285) scale(0.1 -0.1)">
       <defs>
        <path id="DejaVuSansMono-36" d="M 3097 4563 
L 3097 3981 
Q 2900 4097 2678 4158 
Q 2456 4219 2216 4219 
Q 1616 4219 1306 3767 
Q 997 3316 997 2438 
Q 1147 2750 1412 2917 
Q 1678 3084 2022 3084 
Q 2697 3084 3067 2670 
Q 3438 2256 3438 1497 
Q 3438 741 3056 325 
Q 2675 -91 1984 -91 
Q 1172 -91 794 492 
Q 416 1075 416 2328 
Q 416 3509 870 4129 
Q 1325 4750 2188 4750 
Q 2419 4750 2650 4701 
Q 2881 4653 3097 4563 
z
M 1972 2591 
Q 1569 2591 1337 2300 
Q 1106 2009 1106 1497 
Q 1106 984 1337 693 
Q 1569 403 1972 403 
Q 2391 403 2603 679 
Q 2816 956 2816 1497 
Q 2816 2041 2603 2316 
Q 2391 2591 1972 2591 
z
" transform="scale(0.015625)"/>
       </defs>
       <use xlink:href="#DejaVuSansMono-30"/>
       <use xlink:href="#DejaVuSansMono-2e" x="60.205078"/>
       <use xlink:href="#DejaVuSansMono-36" x="120.410156"/>
      </g>
     </g>
    </g>
    <g id="ytick_5">
     <g id="line2d_10">
      <g>
       <use xlink:href="#m0010a94562" x="35.89" y="96.501552" style="stroke: #000000; stroke-width: 0.8"/>
      </g>
     </g>
     <g id="text_10">
      <!-- 0.8 -->
      <g transform="translate(10.829063 100.327333) scale(0.1 -0.1)">
       <defs>
        <path id="DejaVuSansMono-38" d="M 1925 2216 
Q 1503 2216 1273 1980 
Q 1044 1744 1044 1313 
Q 1044 881 1276 642 
Q 1509 403 1925 403 
Q 2350 403 2579 639 
Q 2809 875 2809 1313 
Q 2809 1741 2576 1978 
Q 2344 2216 1925 2216 
z
M 1375 2478 
Q 972 2581 745 2862 
Q 519 3144 519 3541 
Q 519 4097 897 4423 
Q 1275 4750 1925 4750 
Q 2578 4750 2956 4423 
Q 3334 4097 3334 3541 
Q 3334 3144 3107 2862 
Q 2881 2581 2478 2478 
Q 2947 2375 3195 2062 
Q 3444 1750 3444 1253 
Q 3444 622 3041 265 
Q 2638 -91 1925 -91 
Q 1213 -91 811 264 
Q 409 619 409 1247 
Q 409 1747 657 2061 
Q 906 2375 1375 2478 
z
M 1147 3481 
Q 1147 3106 1347 2909 
Q 1547 2713 1925 2713 
Q 2306 2713 2506 2909 
Q 2706 3106 2706 3481 
Q 2706 3863 2507 4063 
Q 2309 4263 1925 4263 
Q 1547 4263 1347 4061 
Q 1147 3859 1147 3481 
z
" transform="scale(0.015625)"/>
       </defs>
       <use xlink:href="#DejaVuSansMono-30"/>
       <use xlink:href="#DejaVuSansMono-2e" x="60.205078"/>
       <use xlink:href="#DejaVuSansMono-38" x="120.410156"/>
      </g>
     </g>
    </g>
    <g id="ytick_6">
     <g id="line2d_11">
      <g>
       <use xlink:href="#m0010a94562" x="35.89" y="21.4016" style="stroke: #000000; stroke-width: 0.8"/>
      </g>
     </g>
     <g id="text_11">
      <!-- 1.0 -->
      <g transform="translate(10.829063 25.227381) scale(0.1 -0.1)">
       <use xlink:href="#DejaVuSansMono-31"/>
       <use xlink:href="#DejaVuSansMono-2e" x="60.205078"/>
       <use xlink:href="#DejaVuSansMono-30" x="120.410156"/>
      </g>
     </g>
    </g>
   </g>
   <g id="line2d_12">
    <path d="M 35.615827 335.480285 
L 36.164173 320.064087 
L 36.438346 320.403717 
L 36.712519 324.617658 
L 37.260865 322.302294 
L 37.535039 322.518014 
L 37.809212 319.92434 
L 38.083385 320.93415 
L 38.357558 320.240415 
L 38.631731 320.893662 
L 38.905904 322.94056 
L 39.180077 325.946043 
L 39.45425 324.612662 
L 39.728423 327.472601 
L 40.002596 336.968525 
L 40.550943 327.273926 
L 40.825116 327.352136 
L 41.099289 328.806637 
L 41.373462 338.7194 
L 41.647635 337.377921 
L 41.921808 342.056954 
L 42.195981 334.628674 
L 42.470154 331.136495 
L 42.744327 321.317866 
L 43.018501 323.932429 
L 43.292674 328.587275 
L 43.566847 328.74791 
L 43.84102 329.396668 
L 44.389366 329.357456 
L 44.663539 320.128187 
L 44.937712 320.543295 
L 45.211885 324.885135 
L 45.486058 333.105103 
L 45.760231 329.833121 
L 46.034405 330.679492 
L 46.308578 330.450636 
L 46.582751 331.724423 
L 46.856924 328.538364 
L 47.953616 358.439887 
L 48.227789 351.175872 
L 48.501962 350.624311 
L 49.324482 365.271107 
L 49.598655 365.295063 
L 49.872828 357.395508 
L 50.147001 356.523267 
L 50.421174 354.07109 
L 50.695347 355.337656 
L 50.96952 354.49673 
L 51.243693 354.761244 
L 52.340386 322.110786 
L 52.614559 323.331719 
L 52.888732 320.680407 
L 53.162905 323.545221 
L 53.437078 321.596356 
L 53.711251 321.345434 
L 54.259597 337.595921 
L 54.533771 339.146383 
L 54.807944 337.010244 
L 55.082117 348.00048 
L 55.35629 354.222185 
L 55.904636 343.707833 
L 56.178809 344.787486 
L 56.452982 350.123322 
L 57.001328 341.875949 
L 57.275502 341.647812 
L 57.549675 342.137209 
L 57.823848 334.774468 
L 58.646367 327.057575 
L 58.92054 321.931376 
L 59.194713 327.471537 
L 59.743059 330.693432 
L 60.017232 335.752687 
L 60.291406 334.361066 
L 60.565579 330.942587 
L 61.388098 342.891889 
L 61.662271 339.61771 
L 62.210617 328.999528 
L 62.48479 326.967538 
L 62.758963 326.250143 
L 63.033137 331.185442 
L 63.30731 333.927241 
L 63.581483 330.293373 
L 63.855656 338.083824 
L 64.129829 338.681664 
L 64.678175 355.127207 
L 64.952348 352.362255 
L 65.226521 353.460543 
L 65.500694 348.223104 
L 65.774867 353.945005 
L 66.323214 358.409377 
L 66.597387 351.324476 
L 66.87156 348.571075 
L 67.419906 328.003959 
L 67.694079 337.895743 
L 67.968252 335.034676 
L 68.242425 343.924919 
L 68.516598 334.674612 
L 68.790772 329.540905 
L 69.064945 328.127268 
L 69.339118 332.045304 
L 69.613291 329.086037 
L 69.887464 328.456784 
L 70.43581 329.551236 
L 70.709983 334.866752 
L 70.984156 325.911367 
L 71.532503 344.616692 
L 71.806676 337.355822 
L 72.080849 333.646065 
L 72.355022 333.888248 
L 72.629195 333.826502 
L 72.903368 333.162235 
L 73.177541 329.516607 
L 73.451714 323.780169 
L 73.725887 326.303669 
L 74.00006 326.303669 
L 74.274233 318.113592 
L 74.548407 326.292302 
L 74.82258 326.074791 
L 75.096753 328.648199 
L 75.645099 349.055871 
L 75.919272 344.587685 
L 76.193445 345.549792 
L 76.467618 343.348798 
L 76.741791 333.025086 
L 77.015964 334.034267 
L 77.290138 327.793119 
L 77.564311 329.026851 
L 77.838484 327.181621 
L 78.112657 326.747569 
L 78.38683 326.747569 
L 78.661003 334.861383 
L 78.935176 332.3986 
L 79.209349 337.126797 
L 79.483522 345.537135 
L 79.757695 348.884199 
L 80.031869 356.976097 
L 80.306042 360.170228 
L 80.580215 368.477141 
L 80.854388 359.045616 
L 81.128561 359.045616 
L 81.402734 353.681334 
L 81.95108 363.024899 
L 82.225253 359.009329 
L 82.499426 362.429899 
L 82.773599 359.463933 
L 83.321946 350.41727 
L 83.596119 361.239534 
L 83.870292 361.239534 
L 84.144465 359.382666 
L 84.418638 365.881701 
L 84.692811 365.881701 
L 84.966984 370.328409 
L 85.241157 371.76344 
L 85.51533 367.582071 
L 85.789504 365.623058 
L 86.063677 370.811782 
L 86.33785 370.275354 
L 86.612023 363.08015 
L 86.886196 361.065216 
L 87.708715 331.756157 
L 87.982888 331.756157 
L 88.257061 339.414376 
L 88.531234 338.36749 
L 89.079581 320.279225 
L 89.353754 317.652902 
L 89.627927 323.569651 
L 89.9021 326.747298 
L 90.176273 326.916085 
L 90.450446 327.629733 
L 90.724619 317.297706 
L 90.998792 312.939227 
L 91.272965 316.587813 
L 91.547139 315.666052 
L 91.821312 313.959973 
L 92.095485 314.394006 
L 92.369658 312.856129 
L 92.643831 318.457652 
L 92.918004 318.554279 
L 93.192177 317.54754 
L 93.46635 318.010663 
L 93.740523 311.404134 
L 94.014696 310.210296 
L 94.28887 311.639635 
L 94.563043 314.044496 
L 94.837216 323.43199 
L 95.111389 326.79715 
L 95.385562 327.284812 
L 95.659735 328.487081 
L 95.933908 328.788447 
L 96.208081 328.343194 
L 96.482254 331.299914 
L 96.756427 336.882006 
L 97.0306 338.014838 
L 97.304774 343.473093 
L 97.578947 342.06497 
L 97.85312 343.557021 
L 98.127293 341.736417 
L 98.401466 351.030965 
L 98.675639 354.036514 
L 98.949812 364.35067 
L 99.223985 364.065713 
L 99.498158 356.348049 
L 99.772331 363.058591 
L 100.320678 345.835223 
L 100.594851 342.813961 
L 101.143197 326.309219 
L 101.41737 334.057628 
L 101.691543 334.057628 
L 102.239889 350.636038 
L 102.514062 352.148118 
L 102.788235 352.005705 
L 103.062409 352.625052 
L 103.336582 355.646315 
L 103.884928 371.495838 
L 104.159101 363.019991 
L 104.433274 363.019991 
L 104.707447 357.892685 
L 104.98162 350.341238 
L 105.255793 346.912016 
L 105.529966 347.399778 
L 106.078313 347.499161 
L 106.352486 343.475949 
L 106.900832 339.400982 
L 107.175005 339.400982 
L 107.449178 333.766057 
L 107.723351 335.12145 
L 107.997524 334.319688 
L 108.271697 334.032541 
L 108.545871 338.589745 
L 108.820044 337.553883 
L 109.094217 344.052918 
L 109.36839 337.819429 
L 109.642563 343.364188 
L 109.916736 343.364188 
L 110.190909 354.126419 
L 110.739255 349.82104 
L 111.013428 349.600833 
L 111.287601 344.343148 
L 111.561775 334.592296 
L 111.835948 333.218516 
L 112.110121 332.623263 
L 112.384294 337.339685 
L 112.93264 316.265134 
L 113.206813 317.281607 
L 113.480986 312.713211 
L 114.029332 334.093082 
L 114.303506 336.41783 
L 114.577679 337.791609 
L 114.851852 346.381111 
L 115.126025 335.441354 
L 115.400198 335.44685 
L 115.674371 345.016455 
L 115.948544 345.0796 
L 116.222717 355.554734 
L 116.771063 355.554734 
L 117.045236 357.705779 
L 117.31941 357.705779 
L 117.593583 347.541072 
L 117.867756 347.814712 
L 118.141929 358.256417 
L 118.416102 359.314162 
L 118.690275 362.251193 
L 118.964448 351.646579 
L 119.238621 348.964438 
L 119.512794 348.964438 
L 119.786967 352.7439 
L 120.061141 342.889155 
L 120.335314 343.305899 
L 120.609487 345.233971 
L 120.88366 337.328714 
L 121.432006 337.281367 
L 121.706179 337.11077 
L 121.980352 334.527601 
L 122.254525 334.527601 
L 122.528698 337.05906 
L 122.802872 336.51791 
L 123.077045 337.479131 
L 123.351218 343.151872 
L 123.625391 344.672114 
L 123.899564 344.181264 
L 124.173737 344.665361 
L 124.44791 353.886779 
L 124.722083 357.70786 
L 124.996256 354.803442 
L 125.270429 344.801612 
L 125.544602 349.244462 
L 125.818776 355.778597 
L 126.092949 355.560842 
L 126.367122 351.00044 
L 126.641295 350.440941 
L 126.915468 347.644886 
L 127.737987 323.871876 
L 128.286333 338.382522 
L 128.560507 333.090756 
L 129.108853 340.757101 
L 129.383026 341.267163 
L 129.931372 360.169563 
L 130.205545 359.474401 
L 130.479718 360.798577 
L 130.753891 351.957572 
L 131.028064 349.774434 
L 131.302238 357.847679 
L 131.576411 357.847679 
L 131.850584 363.459178 
L 132.124757 363.999466 
L 132.673103 345.118199 
L 132.947276 354.648649 
L 133.221449 354.096343 
L 133.495622 355.025273 
L 134.043968 341.043305 
L 134.318142 341.043305 
L 134.592315 334.352954 
L 134.866488 332.953576 
L 135.140661 335.43617 
L 135.414834 345.408552 
L 135.689007 337.438038 
L 135.96318 337.03721 
L 136.237353 335.794732 
L 136.511526 335.828398 
L 137.059873 323.581027 
L 137.334046 323.630679 
L 137.608219 325.030057 
L 137.882392 330.945464 
L 138.156565 328.953017 
L 138.430738 332.733405 
L 138.704911 338.821992 
L 139.52743 364.496429 
L 139.801603 361.866106 
L 140.075777 368.031489 
L 140.34995 367.036788 
L 140.624123 367.551171 
L 140.898296 370.054502 
L 141.172469 374.244628 
L 141.720815 359.891882 
L 141.994988 349.003189 
L 142.269161 348.278286 
L 142.543334 357.852782 
L 142.817508 356.531172 
L 143.091681 356.556841 
L 143.365854 345.965822 
L 143.640027 345.965822 
L 143.9142 342.125484 
L 144.188373 342.76264 
L 144.462546 348.461722 
L 144.736719 359.350415 
L 145.010892 356.359893 
L 145.285065 356.359893 
L 145.559239 358.071591 
L 145.833412 351.151972 
L 146.107585 354.325712 
L 146.381758 354.325712 
L 147.204277 365.014302 
L 147.47845 364.520224 
L 147.752623 370.613001 
L 148.300969 354.458427 
L 148.575143 353.675743 
L 148.849316 351.022149 
L 149.123489 351.022149 
L 149.397662 340.259917 
L 149.671835 337.963814 
L 149.946008 332.015304 
L 150.220181 332.509382 
L 150.494354 335.496312 
L 150.768527 334.154555 
L 151.0427 333.996086 
L 151.316874 332.840292 
L 151.591047 332.193858 
L 151.86522 332.193858 
L 152.139393 333.449767 
L 152.687739 348.159939 
L 153.236085 327.753372 
L 153.784431 345.400979 
L 154.058604 347.692996 
L 154.332778 351.926854 
L 154.606951 341.311089 
L 154.881124 341.902127 
L 155.155297 341.902127 
L 155.42947 331.484731 
L 155.703643 337.143124 
L 155.977816 336.7203 
L 156.251989 331.840159 
L 156.526162 322.120982 
L 156.800335 324.454366 
L 157.074509 330.937815 
L 157.348682 340.664822 
L 157.622855 344.278935 
L 157.897028 333.527616 
L 158.171201 343.945011 
L 158.445374 338.037879 
L 158.719547 341.378048 
L 158.99372 335.484356 
L 159.267893 346.246587 
L 159.542066 351.448316 
L 160.090413 333.893686 
L 160.364586 330.399369 
L 160.638759 330.607099 
L 160.912932 330.085572 
L 161.461278 347.298358 
L 161.735451 347.423001 
L 162.009624 340.520432 
L 162.283797 339.112308 
L 162.55797 337.052686 
L 162.832144 336.8963 
L 163.38049 356.235379 
L 163.654663 356.756907 
L 164.203009 337.030889 
L 164.477182 347.68008 
L 164.751355 351.089628 
L 165.025528 352.497752 
L 165.299701 352.183561 
L 165.573875 357.858897 
L 165.848048 354.51286 
L 166.122221 353.972572 
L 166.396394 353.972572 
L 166.670567 353.262059 
L 166.94474 354.250145 
L 167.218913 348.635195 
L 167.493086 352.128216 
L 167.767259 341.421817 
L 168.041432 351.448038 
L 168.315606 356.191193 
L 169.138125 334.764903 
L 169.412298 334.703074 
L 169.686471 334.473521 
L 169.960644 336.295545 
L 170.234817 332.004119 
L 170.50899 332.081522 
L 170.783163 332.610395 
L 171.33151 332.530171 
L 171.605683 328.255087 
L 171.879856 326.908634 
L 172.154029 329.033137 
L 172.428202 328.268741 
L 172.702375 321.991446 
L 173.250721 329.223063 
L 173.524894 329.223063 
L 173.799067 328.172714 
L 174.073241 339.01517 
L 174.347414 342.153916 
L 174.621587 341.671333 
L 174.89576 349.009475 
L 175.169933 349.598112 
L 175.444106 359.668334 
L 175.718279 349.421302 
L 175.992452 356.569818 
L 176.540798 339.391704 
L 176.814971 339.391704 
L 177.089145 338.54508 
L 177.363318 343.931991 
L 177.637491 344.920148 
L 177.911664 354.910106 
L 178.185837 354.395722 
L 178.46001 364.642754 
L 178.734183 364.661514 
L 179.008356 369.049807 
L 179.282529 368.945568 
L 179.556702 357.575854 
L 179.830876 361.229786 
L 180.105049 360.798085 
L 180.379222 354.991388 
L 180.653395 344.547024 
L 180.927568 345.061408 
L 181.201741 342.191346 
L 181.475914 337.324536 
L 181.750087 340.64387 
L 182.02426 340.490712 
L 182.298433 350.83166 
L 182.572607 352.089948 
L 182.84678 348.576684 
L 183.120953 354.383382 
L 183.395126 355.333749 
L 183.669299 349.665828 
L 183.943472 349.479497 
L 184.217645 344.21874 
L 184.491818 344.21874 
L 184.765991 353.410355 
L 185.040164 348.149962 
L 185.314337 347.402558 
L 185.588511 349.029996 
L 185.862684 342.059642 
L 186.136857 347.767086 
L 186.41103 345.612095 
L 186.685203 348.668489 
L 186.959376 359.317583 
L 187.233549 348.611845 
L 187.781895 340.889419 
L 188.056068 341.417562 
L 188.330242 349.48044 
L 188.604415 348.974781 
L 188.878588 352.761333 
L 189.152761 350.417457 
L 189.426934 349.409404 
L 189.701107 347.543567 
L 189.97528 355.245307 
L 190.249453 349.115035 
L 190.523626 349.301722 
L 191.071972 336.899147 
L 191.346146 344.37516 
L 191.620319 335.998062 
L 191.894492 336.756723 
L 192.168665 336.749912 
L 192.442838 334.064237 
L 192.717011 337.068234 
L 192.991184 343.38706 
L 193.265357 345.72028 
L 193.53953 345.81986 
L 193.813703 350.530928 
L 194.087877 339.768696 
L 194.36205 341.341436 
L 194.636223 341.861994 
L 194.910396 332.004929 
L 195.184569 336.556441 
L 195.458742 327.697465 
L 195.732915 323.130577 
L 196.281261 340.869171 
L 196.555434 330.073061 
L 196.829608 332.410152 
L 197.103781 339.214511 
L 197.377954 337.612636 
L 197.652127 337.722334 
L 197.9263 328.188921 
L 198.200473 337.047897 
L 198.474646 340.556069 
L 198.748819 340.556069 
L 199.022992 334.20585 
L 199.297165 334.239729 
L 199.571338 342.664869 
L 199.845512 335.736829 
L 200.393858 352.792976 
L 200.668031 357.650906 
L 200.942204 357.650906 
L 201.49055 349.589371 
L 201.764723 356.483793 
L 202.038896 367.246024 
L 202.313069 367.246024 
L 202.587243 364.864151 
L 202.861416 364.864151 
L 203.135589 357.230351 
L 203.409762 361.905835 
L 203.683935 353.229515 
L 203.958108 353.374274 
L 204.232281 353.846677 
L 204.780627 353.846677 
L 205.0548 344.114502 
L 205.328973 345.605291 
L 205.603147 337.245108 
L 205.87732 338.483416 
L 206.151493 328.954874 
L 206.425666 326.868962 
L 206.699839 337.200989 
L 206.974012 340.108084 
L 207.522358 323.476177 
L 208.070704 341.027476 
L 208.344878 339.269829 
L 208.619051 340.110622 
L 208.893224 349.639165 
L 209.167397 350.691504 
L 209.715743 329.781462 
L 209.989916 332.019509 
L 210.264089 328.24332 
L 210.812435 328.24332 
L 211.360782 345.166279 
L 211.634955 344.151415 
L 212.457474 374.771349 
L 212.731647 371.416936 
L 213.00582 374.988746 
L 213.279993 364.932628 
L 213.828339 364.932628 
L 214.102513 367.877724 
L 214.376686 358.680251 
L 214.650859 358.680251 
L 214.925032 356.870613 
L 215.199205 351.014195 
L 215.473378 361.243803 
L 215.747551 360.499831 
L 216.021724 370.55595 
L 216.57007 353.048606 
L 216.844244 343.917347 
L 217.118417 343.3102 
L 217.39259 343.3102 
L 217.940936 336.31085 
L 218.215109 328.107014 
L 218.489282 326.268126 
L 218.763455 316.187595 
L 219.037628 315.010709 
L 219.311801 321.931116 
L 219.585975 322.076056 
L 219.860148 332.89554 
L 220.134321 331.600713 
L 220.682667 343.843539 
L 220.95684 344.977857 
L 221.231013 345.309381 
L 221.505186 346.98947 
L 221.779359 355.488079 
L 222.053532 353.725682 
L 222.327705 359.410904 
L 222.876052 347.101357 
L 223.424398 344.883399 
L 224.246917 366.768501 
L 224.52109 366.768501 
L 224.795263 371.796113 
L 225.069436 369.40782 
L 225.34361 375.573047 
L 225.617783 374.745706 
L 226.714475 337.987425 
L 226.988648 337.770688 
L 227.536994 318.628481 
L 228.08534 309.971465 
L 228.359514 314.266553 
L 228.90786 332.170071 
L 229.182033 332.412074 
L 229.456206 341.747891 
L 229.730379 334.616494 
L 230.004552 336.377779 
L 230.278725 344.768835 
L 230.552898 344.975173 
L 230.827071 349.894384 
L 231.101245 350.041754 
L 231.375418 342.068286 
L 231.649591 340.190787 
L 231.923764 350.688631 
L 232.197937 341.868876 
L 232.47211 352.776249 
L 232.746283 354.506453 
L 233.020456 350.065058 
L 233.294629 360.702895 
L 233.568802 350.787498 
L 233.842976 352.658119 
L 234.117149 352.961685 
L 234.391322 344.076952 
L 234.665495 344.076952 
L 234.939668 343.584254 
L 235.213841 338.865933 
L 235.762187 350.566989 
L 236.03636 350.566989 
L 236.310533 358.059807 
L 236.584706 358.596235 
L 237.133053 377.807079 
L 237.407226 369.109062 
L 237.681399 370.14008 
L 238.229745 356.269789 
L 238.503918 345.59811 
L 238.778091 340.418803 
L 239.052264 342.29718 
L 239.326437 342.29718 
L 239.874784 325.235527 
L 240.148957 323.171313 
L 240.42313 322.976091 
L 240.697303 323.300701 
L 240.971476 320.819246 
L 241.245649 331.490925 
L 241.519822 325.804297 
L 242.068168 306.49817 
L 242.342341 315.000051 
L 242.616515 317.388733 
L 243.164861 325.988101 
L 243.439034 336.425722 
L 243.713207 337.850768 
L 243.98738 331.921824 
L 244.261553 331.910664 
L 244.535726 333.36141 
L 244.809899 333.793641 
L 245.084072 328.104251 
L 245.632419 342.242112 
L 245.906592 347.555787 
L 246.180765 346.043708 
L 246.454938 354.926498 
L 246.729111 353.508707 
L 247.003284 364.385802 
L 247.277457 367.852138 
L 247.825803 381.678695 
L 248.099977 372.492157 
L 248.37415 372.492157 
L 248.648323 368.339164 
L 248.922496 365.919309 
L 249.196669 355.086809 
L 249.470842 362.433544 
L 249.745015 352.680304 
L 250.019188 358.536723 
L 250.293361 359.044155 
L 250.567534 359.044155 
L 250.841707 358.609347 
L 251.115881 349.350449 
L 251.390054 344.2487 
L 251.664227 348.180634 
L 251.9384 358.484262 
L 252.212573 358.484262 
L 252.486746 357.307851 
L 253.035092 357.307851 
L 253.309265 353.204028 
L 253.583438 362.825374 
L 254.131785 359.594787 
L 254.405958 357.473319 
L 254.680131 354.444826 
L 254.954304 349.855385 
L 255.228477 352.697348 
L 255.50265 341.935117 
L 255.776823 340.391967 
L 256.050996 334.000721 
L 256.325169 334.000721 
L 256.599343 335.869538 
L 256.873516 335.725614 
L 257.147689 327.942167 
L 257.421862 331.499533 
L 257.696035 325.326743 
L 257.970208 325.40745 
L 258.244381 336.169681 
L 258.792727 338.997528 
L 259.0669 333.953502 
L 259.341073 339.660857 
L 259.615247 350.242574 
L 259.88942 354.076534 
L 260.163593 350.1696 
L 260.437766 350.270956 
L 260.711939 358.277936 
L 260.986112 358.277936 
L 261.260285 349.196081 
L 261.534458 349.869335 
L 261.808631 348.757627 
L 262.082804 341.651834 
L 262.356978 342.196036 
L 262.905324 333.604364 
L 263.179497 333.550102 
L 263.45367 328.594267 
L 263.727843 328.594267 
L 264.002016 326.743851 
L 264.550362 341.436702 
L 264.824535 346.608103 
L 265.098708 346.608103 
L 265.921228 373.531168 
L 266.195401 368.980681 
L 266.469574 358.252117 
L 266.743747 369.184388 
L 267.840439 333.726185 
L 268.388786 329.534742 
L 268.662959 324.369137 
L 269.211305 343.568161 
L 269.485478 343.568161 
L 269.759651 345.040814 
L 270.307997 366.45063 
L 270.58217 365.690456 
L 270.856344 369.820953 
L 271.130517 367.804127 
L 271.40469 362.207501 
L 271.678863 362.721835 
L 271.953036 356.922611 
L 272.227209 346.457178 
L 272.501382 343.171831 
L 272.775555 334.613929 
L 273.049728 333.56358 
L 273.323901 333.963179 
L 273.598074 323.222812 
L 273.872248 327.662218 
L 274.146421 334.738562 
L 274.420594 335.260089 
L 274.694767 330.176995 
L 274.96894 335.77108 
L 275.243113 346.739286 
L 275.517286 351.060781 
L 275.791459 343.618674 
L 276.065632 343.100216 
L 276.339805 353.840583 
L 276.613979 343.021767 
L 276.888152 338.52485 
L 277.436498 338.61096 
L 277.710671 333.824977 
L 277.984844 333.824977 
L 278.259017 338.061385 
L 278.807363 357.4462 
L 279.081536 352.752453 
L 279.355709 354.164497 
L 279.629883 362.347301 
L 279.904056 350.665087 
L 280.452402 371.118627 
L 280.726575 360.187412 
L 281.000748 354.978167 
L 281.274921 354.978167 
L 281.549094 344.060553 
L 281.823267 345.215559 
L 282.09744 348.123295 
L 282.371614 348.123295 
L 282.645787 356.786416 
L 282.91996 350.105745 
L 283.194133 340.227505 
L 283.742479 351.235235 
L 284.016652 343.72524 
L 284.290825 343.783807 
L 284.564998 347.322548 
L 284.839171 343.059351 
L 285.113345 343.059351 
L 285.387518 345.549572 
L 285.935864 343.655212 
L 286.210037 348.787942 
L 286.48421 340.466056 
L 286.758383 345.521804 
L 287.032556 356.380851 
L 287.306729 356.380851 
L 287.580902 362.136419 
L 287.855075 362.136419 
L 288.129249 353.612146 
L 288.403422 352.859137 
L 288.677595 353.971825 
L 288.951768 344.217223 
L 289.225941 350.084863 
L 289.500114 349.080559 
L 289.774287 342.158905 
L 290.04846 338.087221 
L 290.322633 338.983937 
L 290.596806 338.983937 
L 290.87098 348.037083 
L 291.145153 351.984473 
L 291.419326 361.691269 
L 291.693499 363.399447 
L 291.967672 355.054469 
L 292.790191 364.839128 
L 293.064364 359.561582 
L 293.338537 350.815002 
L 293.61271 350.289827 
L 293.886884 353.663986 
L 294.161057 343.006236 
L 294.43523 340.27916 
L 294.709403 351.078384 
L 294.983576 340.316153 
L 295.257749 336.287598 
L 295.531922 326.947755 
L 296.080268 324.653805 
L 296.354441 323.614397 
L 296.628615 314.428271 
L 297.176961 334.337225 
L 297.451134 334.337225 
L 297.725307 344.574282 
L 297.99948 343.958893 
L 298.821999 373.72676 
L 299.096172 372.543783 
L 299.370346 371.976342 
L 299.644519 373.498638 
L 299.918692 371.166342 
L 300.192865 371.166342 
L 300.467038 371.691516 
L 300.741211 373.768289 
L 301.015384 373.768289 
L 301.289557 373.253906 
L 301.56373 362.739913 
L 301.837903 365.487472 
L 302.112076 376.306287 
L 302.38625 375.781113 
L 302.934596 357.11927 
L 303.482942 349.991211 
L 304.031288 330.765537 
L 304.305461 341.27953 
L 304.853807 341.27953 
L 305.127981 334.248916 
L 305.402154 341.658473 
L 305.676327 344.325727 
L 305.9505 339.685684 
L 306.773019 370.522985 
L 307.047192 369.040749 
L 307.321365 369.040749 
L 307.869712 361.402549 
L 308.143885 353.801643 
L 308.418058 361.28583 
L 308.692231 359.09144 
L 309.240577 347.414891 
L 309.51475 347.414891 
L 310.063096 328.460247 
L 310.337269 327.542667 
L 310.885616 348.324258 
L 311.159789 337.767349 
L 311.433962 338.061983 
L 311.982308 330.356396 
L 312.256481 327.72131 
L 312.530654 338.052463 
L 313.079 343.121911 
L 313.353173 343.121911 
L 313.627347 336.662264 
L 313.90152 337.047408 
L 314.724039 363.568288 
L 314.998212 360.319968 
L 315.272385 350.762415 
L 315.546558 347.416444 
L 315.820731 348.691455 
L 316.094904 337.158906 
L 316.369077 340.023544 
L 316.643251 340.757615 
L 317.191597 329.501553 
L 317.46577 326.442716 
L 317.739943 329.765897 
L 318.288289 349.243049 
L 318.562462 350.715597 
L 318.836635 353.500708 
L 319.110808 347.636797 
L 319.384982 357.074491 
L 319.659155 362.002686 
L 319.933328 356.121559 
L 320.481674 362.320782 
L 320.755847 354.426782 
L 321.03002 354.426782 
L 321.304193 352.20489 
L 321.578366 360.952327 
L 321.852539 362.10488 
L 322.126713 355.321659 
L 322.400886 356.364714 
L 322.675059 360.138926 
L 322.949232 352.811393 
L 323.223405 350.029914 
L 323.497578 349.256232 
L 324.045924 330.193758 
L 324.320097 330.193758 
L 324.59427 333.720797 
L 324.868443 340.504019 
L 325.142617 340.504019 
L 325.41679 343.381541 
L 325.690963 342.329642 
L 325.965136 334.371275 
L 326.513482 354.716818 
L 326.787655 356.208183 
L 327.061828 356.208183 
L 327.884348 343.362158 
L 328.158521 347.876362 
L 328.432694 358.341904 
L 328.706867 360.511786 
L 329.255213 340.013831 
L 329.529386 338.384237 
L 329.803559 327.050027 
L 330.077732 329.167274 
L 330.351905 334.146661 
L 330.626078 331.614021 
L 330.900252 325.989795 
L 331.174425 325.989795 
L 331.448598 323.587071 
L 331.722771 334.159395 
L 331.996944 335.055414 
L 332.271117 336.44142 
L 332.819463 356.120068 
L 333.916156 336.14106 
L 334.190329 339.132111 
L 334.464502 331.486189 
L 335.012848 345.840307 
L 335.561194 345.840307 
L 335.835367 347.711167 
L 336.10954 352.905178 
L 336.383714 352.002263 
L 336.657887 358.074174 
L 336.93206 356.129882 
L 337.206233 359.057483 
L 337.480406 354.287893 
L 337.754579 356.786147 
L 338.577098 327.415518 
L 338.851271 332.606759 
L 339.125444 343.269097 
L 339.399618 332.506865 
L 339.673791 341.921911 
L 339.947964 346.640232 
L 340.222137 341.430306 
L 340.49631 342.466168 
L 341.318829 372.614023 
L 341.867175 372.614023 
L 342.141349 383.376254 
L 342.415522 375.733429 
L 342.689695 375.733429 
L 342.963868 386.241818 
L 343.238041 380.799792 
L 343.512214 378.097399 
L 343.786387 378.108653 
L 344.06056 376.344195 
L 344.334733 370.188461 
L 344.608906 369.200304 
L 344.88308 359.961294 
L 345.157253 368.115003 
L 345.431426 367.636659 
L 345.705599 357.67079 
L 346.253945 366.745055 
L 346.528118 356.464482 
L 346.802291 358.754114 
L 347.350637 350.09281 
L 347.62481 353.416411 
L 347.898984 351.972182 
L 348.173157 352.450525 
L 348.44733 362.416395 
L 348.721503 362.930778 
L 348.995676 354.524067 
L 349.269849 357.598938 
L 349.544022 357.598938 
L 349.818195 358.295771 
L 350.366541 369.109001 
L 350.640715 370.553231 
L 351.463234 339.674311 
L 351.737407 336.786305 
L 352.01158 344.517183 
L 352.285753 333.872327 
L 352.559926 336.706979 
L 352.834099 336.162776 
L 353.108272 335.112427 
L 353.382445 324.50822 
L 353.656619 323.246041 
L 353.930792 330.658654 
L 354.204965 331.087469 
L 354.479138 342.382184 
L 354.753311 335.616424 
L 355.027484 344.696697 
L 355.301657 341.285873 
L 355.57583 341.830075 
L 355.850003 336.140685 
L 356.124176 340.075785 
L 356.39835 351.097649 
L 356.672523 343.025464 
L 356.946696 352.641483 
L 357.220869 351.087691 
L 357.495042 357.853452 
L 357.769215 348.665655 
L 358.043388 348.912026 
L 358.317561 338.528718 
L 358.591734 345.268457 
L 358.865907 340.938076 
L 359.140081 340.393873 
L 359.414254 351.595222 
L 359.688427 346.350927 
L 359.9626 337.256218 
L 360.236773 337.256218 
L 360.510946 337.548667 
L 361.059292 340.85341 
L 361.333465 340.324537 
L 361.607638 351.324026 
L 361.881811 341.239003 
L 362.155985 341.239003 
L 362.430158 339.421545 
L 362.704331 350.070045 
L 362.978504 350.070045 
L 363.252677 360.529976 
L 363.801023 369.602019 
L 364.349369 348.897667 
L 364.623542 358.024894 
L 364.897716 353.355467 
L 365.171889 360.949844 
L 365.446062 359.884597 
L 365.720235 359.884597 
L 365.994408 348.387554 
L 366.268581 342.296982 
L 366.542754 342.099716 
L 366.816927 348.172719 
L 367.0911 350.800631 
L 367.365273 352.30263 
L 367.639446 356.457674 
L 368.187793 337.716657 
L 368.461966 336.7285 
L 368.736139 348.225543 
L 369.010312 347.316567 
L 369.284485 345.363504 
L 369.558658 340.241694 
L 369.832831 342.988517 
L 370.107004 341.525531 
L 370.381177 342.039914 
L 370.655351 347.911421 
L 370.929524 349.173204 
L 371.203697 348.707813 
L 371.47787 348.707813 
L 371.752043 360.475612 
L 372.026216 355.567132 
L 372.300389 364.446627 
L 372.574562 369.40918 
L 372.848735 370.872166 
L 373.122908 365.679084 
L 373.397082 368.703243 
L 373.671255 367.345192 
L 373.945428 368.798739 
L 374.219601 368.798739 
L 374.493774 358.404606 
L 374.767947 358.667096 
L 375.04212 348.946713 
L 375.590466 348.946713 
L 375.864639 353.618268 
L 376.138812 352.567919 
L 376.412986 353.77914 
L 376.961332 353.77914 
L 377.235505 353.539652 
L 377.509678 354.529598 
L 377.783851 353.928233 
L 378.058024 352.537494 
L 378.880543 329.30937 
L 379.154717 339.105016 
L 379.977236 339.032565 
L 380.799755 343.573987 
L 381.348101 339.630911 
L 381.622274 346.316887 
L 382.444794 346.316887 
L 382.718967 344.853478 
L 383.267313 362.674779 
L 383.541486 351.833162 
L 384.089832 372.359132 
L 384.364005 373.353834 
L 384.638178 372.82121 
L 384.912352 363.703643 
L 385.186525 359.971969 
L 385.460698 361.36795 
L 386.009044 342.89684 
L 386.283217 353.738456 
L 386.831563 353.74226 
L 387.105736 341.519247 
L 387.654083 342.685342 
L 388.202429 349.754878 
L 388.750775 367.681786 
L 389.024948 367.681786 
L 389.299121 355.709331 
L 389.573294 356.241954 
L 389.847467 364.512339 
L 390.12164 362.236583 
L 390.395813 370.720677 
L 390.669987 370.720677 
L 390.94416 376.664264 
L 391.766679 344.811697 
L 392.040852 346.763319 
L 392.315025 346.223032 
L 392.589198 350.175661 
L 393.137544 341.169868 
L 393.685891 321.857744 
L 394.234237 343.049712 
L 394.50841 343.492282 
L 394.782583 347.823725 
L 395.056756 348.364013 
L 395.330929 348.364013 
L 395.605102 343.785725 
L 395.879275 349.016567 
L 396.153449 347.703928 
L 396.427622 356.194958 
L 396.975968 336.725152 
L 397.250141 336.364473 
L 397.798487 327.465692 
L 398.07266 326.929264 
L 398.346833 334.272636 
L 398.621006 332.024135 
L 398.895179 344.127623 
L 399.169353 345.649919 
L 399.991872 374.239971 
L 400.266045 377.443747 
L 400.540218 370.737552 
L 400.814391 371.273981 
L 401.088564 363.775522 
L 401.362737 366.024023 
L 401.911084 366.024023 
L 402.185257 364.958776 
L 402.45943 363.404984 
L 402.733603 355.124603 
L 403.007776 353.019868 
L 403.281949 363.678691 
L 403.556122 355.469384 
L 403.830295 366.253466 
L 404.378641 360.965258 
L 405.201161 331.026982 
L 405.475334 339.511227 
L 405.749507 338.530773 
L 406.02368 327.650569 
L 406.297853 329.453244 
L 406.572026 317.965916 
L 406.846199 312.391001 
L 407.120372 314.845248 
L 407.394545 315.585321 
L 407.668719 317.221955 
L 407.942892 328.133913 
L 408.217065 329.932714 
L 408.491238 329.687438 
L 408.765411 330.1776 
L 409.039584 326.23544 
L 409.58793 346.131643 
L 409.862103 338.763346 
L 410.41045 356.951422 
L 410.958796 345.524061 
L 411.232969 355.764765 
L 411.507142 355.122714 
L 411.781315 365.471506 
L 412.055488 364.946332 
L 412.329661 364.946332 
L 412.603834 369.515873 
L 412.878007 360.264225 
L 413.15218 355.172703 
L 413.426354 361.831812 
L 413.700527 359.887219 
L 413.9747 349.894753 
L 414.248873 354.330229 
L 414.523046 344.424959 
L 414.797219 341.308924 
L 415.345565 322.443594 
L 415.893911 331.482021 
L 416.168085 330.953148 
L 416.442258 337.665993 
L 416.716431 347.122241 
L 416.990604 345.081164 
L 417.264777 354.986434 
L 417.53895 347.815262 
L 417.813123 347.782774 
L 418.087296 349.868367 
L 418.361469 355.203336 
L 418.635642 345.30161 
L 418.909815 344.780134 
L 419.458162 326.773906 
L 419.732335 335.4116 
L 420.006508 328.002636 
L 420.280681 330.635815 
L 420.829027 350.246795 
L 421.1032 350.246795 
L 421.377373 357.34759 
L 421.651546 356.875643 
L 422.199893 375.939617 
L 422.474066 364.960092 
L 422.748239 364.739854 
L 423.022412 362.227149 
L 423.296585 351.546767 
L 423.570758 348.208991 
L 424.119104 331.681835 
L 424.393277 333.204132 
L 424.667451 321.367012 
L 424.941624 321.367012 
L 425.764143 350.123444 
L 426.038316 352.084356 
L 426.312489 354.896957 
L 426.586662 365.152202 
L 426.860835 365.622442 
L 427.135008 355.468365 
L 427.409181 366.776612 
L 427.683355 366.776612 
L 428.231701 347.080224 
L 428.505874 341.058057 
L 428.780047 349.777528 
L 429.328393 337.115788 
L 429.602566 342.466137 
L 429.876739 352.620214 
L 430.150912 353.149087 
L 430.425086 349.219438 
L 430.699259 359.496274 
L 430.973432 360.953562 
L 431.247605 358.050807 
L 431.521778 347.322243 
L 431.795951 345.056715 
L 432.344297 345.692251 
L 432.61847 334.706013 
L 432.892643 334.706013 
L 433.166817 331.231441 
L 433.715163 327.852962 
L 433.989336 332.253791 
L 434.263509 342.982355 
L 434.537682 344.356798 
L 435.086028 330.315862 
L 435.360201 340.773227 
L 435.634374 340.773227 
L 435.908547 337.508077 
L 436.182721 330.50202 
L 436.456894 330.36272 
L 436.731067 333.850953 
L 437.00524 333.30675 
L 437.279413 341.078369 
L 437.553586 352.014317 
L 437.827759 356.448124 
L 438.101932 347.496923 
L 438.376105 347.496923 
L 438.650278 347.828169 
L 438.924452 356.336225 
L 439.198625 357.236289 
L 439.746971 339.120862 
L 440.021144 340.555893 
L 440.295317 331.40774 
L 440.56949 327.877489 
L 440.843663 329.282298 
L 441.117836 326.745138 
L 441.392009 335.629717 
L 441.666182 324.867485 
L 442.214529 343.180175 
L 442.488702 341.357914 
L 443.037048 341.408055 
L 443.311221 346.877729 
L 443.585394 354.952993 
L 443.859567 349.118355 
L 444.13374 350.571903 
L 444.407913 357.067092 
L 444.95626 345.806139 
L 445.230433 352.964057 
L 445.504606 352.42377 
L 445.778779 353.214266 
L 446.052952 352.846908 
L 446.327125 344.765287 
L 446.601298 341.978366 
L 446.875471 340.928017 
L 447.149644 335.491133 
L 447.697991 345.220668 
L 447.972164 337.606862 
L 448.246337 338.14715 
L 448.52051 337.789287 
L 448.794683 332.991092 
L 449.068856 339.029177 
L 449.343029 349.643693 
L 449.617202 350.199963 
L 449.891375 349.271979 
L 450.165548 349.800852 
L 450.439722 342.959009 
L 450.713895 354.170417 
L 451.262241 347.114618 
L 451.536414 347.380557 
L 451.810587 338.097232 
L 452.08476 338.641435 
L 452.358933 334.832912 
L 452.633106 339.719471 
L 452.907279 339.719471 
L 453.181453 349.635581 
L 453.455626 349.635581 
L 453.729799 351.852703 
L 454.003972 352.453148 
L 454.552318 373.949795 
L 454.826491 373.949795 
L 455.100664 367.385845 
L 455.374837 370.416741 
L 455.64901 362.732094 
L 455.923183 351.061885 
L 456.197357 346.875987 
L 456.47153 348.260488 
L 456.745703 358.721852 
L 457.294049 358.721852 
L 457.568222 347.43596 
L 457.842395 358.302512 
L 458.116568 351.242054 
L 458.390741 347.730607 
L 458.664914 359.400815 
L 458.939088 352.450898 
L 459.487434 353.508644 
L 460.03578 331.624014 
L 460.309953 335.929462 
L 460.584126 324.85633 
L 460.858299 330.740055 
L 461.132472 341.936149 
L 461.406645 341.936149 
L 461.680819 346.615408 
L 461.954992 335.761803 
L 462.229165 335.761803 
L 462.777511 357.646432 
L 463.051684 364.086589 
L 463.325857 374.151668 
L 463.60003 367.07632 
L 463.874203 367.07632 
L 464.148376 360.14828 
L 464.422549 366.604838 
L 464.696723 377.458443 
L 464.970896 365.974711 
L 465.519242 365.974711 
L 465.793415 355.741498 
L 466.067588 352.506616 
L 466.341761 352.333007 
L 466.615934 344.79159 
L 466.890107 351.719629 
L 467.16428 351.235114 
L 467.438454 340.394325 
L 467.712627 351.878057 
L 467.9868 349.939993 
L 468.260973 338.712074 
L 468.535146 349.485575 
L 468.809319 353.72851 
L 469.083492 354.528807 
L 469.357665 354.948677 
L 469.631838 344.567214 
L 469.906011 345.05173 
L 470.180185 350.174248 
L 470.454358 341.490816 
L 470.728531 341.515504 
L 471.002704 340.809402 
L 471.276877 340.809402 
L 471.55105 334.551072 
L 471.825223 333.625928 
L 472.099396 329.905859 
L 472.373569 330.033823 
L 472.647742 328.990768 
L 472.921915 324.146594 
L 473.196089 330.891963 
L 473.470262 322.104072 
L 473.744435 327.090522 
L 474.018608 320.889608 
L 474.292781 327.147938 
L 475.1153 358.986518 
L 475.389473 360.029573 
L 475.663646 359.030707 
L 475.93782 360.96877 
L 476.211993 360.285201 
L 476.486166 366.700149 
L 476.760339 362.149744 
L 477.582858 330.823243 
L 477.857031 330.823243 
L 478.131204 327.264004 
L 478.405377 337.789454 
L 478.67955 337.789454 
L 478.953724 338.412056 
L 479.227897 330.041078 
L 480.324589 372.640425 
L 480.598762 362.91674 
L 480.872935 365.022432 
L 481.147108 357.713854 
L 481.421281 346.74591 
L 481.695455 346.779578 
L 481.969628 348.32645 
L 482.243801 346.590035 
L 482.517974 346.590035 
L 482.792147 343.82562 
L 483.06632 343.82562 
L 483.340493 343.474922 
L 483.614666 342.693351 
L 483.888839 339.050005 
L 484.163012 350.017949 
L 484.437186 355.589434 
L 484.711359 350.876529 
L 484.985532 352.612944 
L 485.808051 324.494582 
L 486.082224 329.389658 
L 486.356397 331.624776 
L 486.63057 331.438464 
L 486.904743 330.916937 
L 487.45309 339.957399 
L 487.727263 335.654797 
L 488.549782 361.511346 
L 488.823955 366.690653 
L 489.098128 355.173424 
L 489.372301 363.535341 
L 489.646474 364.056868 
L 489.920647 354.526418 
L 490.194821 360.158249 
L 490.468994 359.369328 
L 490.743167 359.369328 
L 491.01734 349.293758 
L 491.291513 352.737015 
L 491.565686 341.786735 
L 491.839859 353.303964 
L 492.114032 352.564632 
L 492.388205 341.454182 
L 492.662378 338.652722 
L 492.936551 330.934035 
L 493.210725 331.722956 
L 493.484898 330.650099 
L 493.759071 341.776018 
L 494.033244 341.228067 
L 494.307417 341.736643 
L 494.58159 341.736643 
L 494.855763 334.337082 
L 495.129936 345.447532 
L 495.404109 349.890792 
L 495.678282 360.163898 
L 495.952456 364.4665 
L 496.226629 365.539356 
L 496.500802 364.531303 
L 496.774975 365.611878 
L 497.049148 376.053583 
L 497.323321 376.053583 
L 497.597494 376.800934 
L 498.14584 369.263451 
L 498.420013 364.902808 
L 498.694187 364.902808 
L 498.96836 363.380512 
L 499.242533 364.388565 
L 499.790879 344.573991 
L 500.065052 344.573991 
L 500.339225 355.259782 
L 500.887571 364.144109 
L 501.710091 337.037869 
L 501.984264 325.52522 
L 502.53261 332.098161 
L 503.355129 298.860807 
L 503.903475 314.581287 
L 504.177648 311.35909 
L 504.451822 322.030129 
L 504.725995 322.780546 
L 505.000168 319.036396 
L 505.274341 322.630769 
L 505.822687 342.987884 
L 506.09686 344.499464 
L 506.371033 344.499464 
L 506.645206 336.812603 
L 506.919379 339.384356 
L 507.193552 329.235714 
L 507.467726 339.997945 
L 507.741899 340.431995 
L 508.564418 308.339995 
L 508.838591 308.491746 
L 509.112764 302.119629 
L 509.386937 313.071705 
L 509.66111 312.938111 
L 509.935283 313.616672 
L 510.209457 306.850911 
L 510.48363 307.51752 
L 510.757803 311.863048 
L 511.580322 345.002586 
L 511.854495 351.374703 
L 512.128668 351.374703 
L 512.402841 362.032993 
L 512.677014 358.280348 
L 512.951188 365.046109 
L 513.225361 376.264004 
L 513.499534 382.605777 
L 513.773707 375.478065 
L 514.04788 375.478065 
L 514.596226 354.644073 
L 514.870399 354.644073 
L 515.144572 353.563498 
L 515.418745 366.786224 
L 515.692918 365.243075 
L 516.241265 365.243075 
L 516.515438 363.764094 
L 516.789611 352.846867 
L 517.337957 348.551317 
L 517.61213 348.551317 
L 517.886303 349.631892 
L 518.160476 349.631892 
L 518.708823 329.63191 
L 518.982996 329.091623 
L 519.257169 327.082821 
L 519.805515 330.732164 
L 520.079688 339.513785 
L 520.353861 327.593158 
L 520.628034 324.244752 
L 520.902207 313.592277 
L 521.17638 319.87719 
L 521.450554 330.556143 
L 521.724727 320.006752 
L 521.9989 331.695103 
L 522.273073 328.815275 
L 522.547246 337.952064 
L 522.821419 341.970729 
L 523.095592 342.094046 
L 523.369765 345.442452 
L 523.643938 353.557767 
L 523.918111 347.3748 
L 524.192284 336.612569 
L 524.466458 347.169624 
L 524.740631 347.169624 
L 525.014804 349.597649 
L 525.56315 329.955456 
L 525.837323 341.752766 
L 526.111496 341.752766 
L 526.659842 346.338903 
L 526.934015 357.101134 
L 527.482362 337.069099 
L 528.030708 354.649871 
L 528.304881 365.57991 
L 528.579054 365.054736 
L 528.853227 360.245379 
L 529.1274 360.245379 
L 529.401573 368.958633 
L 529.675746 357.24846 
L 529.949919 363.590206 
L 530.224093 374.331664 
L 530.498266 373.264552 
L 530.772439 362.070407 
L 531.046612 361.526205 
L 531.320785 361.514951 
L 531.594958 359.15396 
L 531.869131 359.15396 
L 532.143304 347.624986 
L 532.417477 357.770577 
L 532.965824 338.450811 
L 533.239997 329.4722 
L 533.51417 330.212872 
L 533.788343 319.989066 
L 534.062516 320.525494 
L 534.336689 316.842789 
L 534.610862 316.842789 
L 534.885035 328.371764 
L 535.159208 328.338475 
L 535.433381 332.424642 
L 535.707555 340.554018 
L 536.530074 373.864759 
L 536.804247 361.935524 
L 537.07842 372.788577 
L 537.626766 372.788577 
L 537.900939 374.386448 
L 538.175112 384.972125 
L 538.449285 384.972125 
L 538.723459 381.968127 
L 538.997632 369.874901 
L 539.271805 369.874901 
L 539.545978 376.85249 
L 539.820151 376.85249 
L 540.094324 366.37119 
L 540.368497 360.628253 
L 540.64267 360.628253 
L 540.916843 356.26761 
L 541.46519 337.244241 
L 541.739363 349.337468 
L 542.013536 343.973186 
L 542.287709 343.194312 
L 542.561882 332.3298 
L 542.836055 342.811099 
L 543.110228 342.533365 
L 543.384401 332.541526 
L 543.658574 336.902168 
L 544.20692 357.342917 
L 544.481094 357.342917 
L 544.755267 362.707198 
L 545.02944 361.571436 
L 545.303613 364.512559 
L 545.851959 363.24929 
L 546.126132 362.339523 
L 546.948651 331.644691 
L 547.496998 331.644691 
L 547.771171 325.735623 
L 548.045344 322.896781 
L 548.319517 323.440983 
L 548.59369 319.117611 
L 548.867863 330.019217 
L 549.142036 329.894832 
L 549.416209 340.808017 
L 549.964556 338.816361 
L 550.238729 325.241443 
L 550.512902 328.582126 
L 551.061248 327.309179 
L 551.335421 337.307042 
L 551.609594 335.709171 
L 551.883767 345.874392 
L 552.15794 342.967298 
L 552.432113 347.230592 
L 552.706286 348.311167 
L 552.98046 354.526624 
L 553.254633 363.96129 
L 553.528806 363.988565 
L 553.802979 349.905429 
L 554.077152 350.970677 
L 554.351325 351.503301 
L 554.625498 340.53738 
L 554.899671 338.281353 
L 555.173844 341.093447 
L 555.448017 328.800301 
L 555.722191 336.159762 
L 555.996364 329.363387 
L 556.270537 338.32767 
L 556.54471 340.163804 
L 556.818883 340.163804 
L 557.093056 341.229052 
L 557.367229 352.194973 
L 557.915575 335.812683 
L 558.463922 335.840509 
L 558.738095 342.636885 
L 559.012268 333.69519 
L 559.286441 346.482479 
L 559.560614 346.482479 
L 559.834787 334.587766 
L 560.10896 334.587766 
L 560.383133 333.752099 
L 560.657306 347.873457 
L 560.931479 349.736418 
L 561.205652 337.716317 
L 561.479826 334.712318 
L 561.753999 346.157345 
L 562.028172 346.157345 
L 562.302345 337.740971 
L 562.576518 335.061032 
L 562.850691 322.584363 
L 563.124864 336.007205 
L 563.399037 324.509344 
L 563.947383 344.324167 
L 564.221557 347.328166 
L 564.769903 347.328166 
L 565.044076 355.74454 
L 565.318249 358.189035 
L 565.592422 370.665704 
L 565.866595 370.665704 
L 566.140768 381.082989 
L 566.689114 361.925854 
L 566.963287 361.925854 
L 567.511634 343.956905 
L 567.785807 343.416617 
L 568.05998 353.076382 
L 568.608326 327.585841 
L 568.882499 328.666416 
L 569.430845 350.431188 
L 569.705018 350.431188 
L 570.253365 366.908086 
L 570.801711 348.194741 
L 571.075884 362.515352 
L 571.350057 368.062826 
L 572.172576 368.062826 
L 572.720923 343.730008 
L 572.995096 345.22206 
L 573.543442 366.946086 
L 573.817615 366.946086 
L 574.091788 372.568542 
L 574.640134 347.301097 
L 574.914307 344.214798 
L 575.462653 342.266673 
L 575.736827 342.266673 
L 576.285173 322.952085 
L 576.559346 319.100806 
L 576.833519 306.451345 
L 577.381865 329.144858 
L 577.656038 332.231158 
L 578.204384 356.509435 
L 578.478558 344.265926 
L 578.752731 351.617433 
L 579.026904 347.296523 
L 579.301077 346.896862 
L 579.57525 359.546323 
L 579.849423 345.695237 
L 580.123596 341.070539 
L 580.397769 341.070539 
L 580.946115 316.497394 
L 581.220288 319.335597 
L 581.494462 311.075236 
L 581.768635 317.803678 
L 582.042808 306.070508 
L 582.316981 303.955016 
L 582.591154 318.350305 
L 582.865327 321.46599 
L 583.1395 321.46599 
L 583.413673 318.245843 
L 583.687846 331.465685 
L 583.962019 336.427207 
L 584.236193 338.26094 
L 584.510366 338.712127 
L 584.784539 354.696238 
L 585.332885 335.345193 
L 585.607058 336.768442 
L 585.881231 333.192254 
L 586.155404 338.816295 
L 586.429577 328.588675 
L 586.70375 333.032459 
L 586.977924 333.193858 
L 587.52627 319.276518 
L 587.800443 318.118376 
L 588.074616 329.189217 
L 588.622962 333.294278 
L 588.897135 327.624229 
L 589.171308 334.963389 
L 589.445481 323.706797 
L 589.993828 345.555485 
L 590.268001 342.37665 
L 590.542174 347.264813 
L 591.09052 347.264813 
L 591.364693 337.031826 
L 591.638866 348.0106 
L 591.913039 346.674688 
L 592.187212 348.492487 
L 592.461385 348.492487 
L 592.735559 338.268635 
L 593.283905 350.342941 
L 593.558078 350.342941 
L 593.832251 349.798739 
L 594.106424 361.078057 
L 594.380597 366.721406 
L 594.65477 359.082163 
L 594.928943 368.520955 
L 595.203116 355.881585 
L 595.47729 367.186012 
L 595.751463 367.357638 
L 596.299809 351.615564 
L 596.573982 352.159767 
L 596.848155 338.45696 
L 597.122328 336.480646 
L 597.396501 348.344261 
L 597.670674 337.167505 
L 597.944847 339.957701 
L 598.21902 339.957701 
L 598.493194 329.777366 
L 599.04154 347.021439 
L 599.315713 335.664861 
L 599.864059 340.195561 
L 600.138232 328.417464 
L 600.412405 329.080226 
L 600.686578 338.929399 
L 600.960751 338.929399 
L 601.234925 349.093588 
L 601.509098 337.87844 
L 601.783271 334.792141 
L 602.057444 335.210248 
L 602.331617 338.494269 
L 602.60579 338.494269 
L 602.879963 349.728164 
L 603.154136 345.984459 
L 603.428309 345.440256 
L 603.976655 316.402727 
L 604.250829 312.296479 
L 604.525002 314.838575 
L 605.073348 331.029895 
L 605.347521 331.029895 
L 605.621694 331.574098 
L 605.895867 345.831797 
L 606.17004 332.132905 
L 606.718386 363.096625 
L 606.99256 373.624407 
L 607.266733 374.168609 
L 607.815079 355.075256 
L 608.089252 355.075256 
L 608.363425 352.959764 
L 608.637598 340.566423 
L 608.911771 339.404399 
L 609.185944 339.948601 
L 609.460117 323.943694 
L 609.734291 324.170418 
L 610.008464 313.113801 
L 610.282637 314.40485 
L 610.55681 308.607536 
L 610.830983 308.607536 
L 611.105156 305.25217 
L 611.379329 317.101309 
L 611.653502 321.640156 
L 611.927675 318.088131 
L 612.201848 321.242603 
L 612.476021 325.809492 
L 612.750195 325.562582 
L 613.024368 336.679351 
L 613.298541 338.075758 
L 613.572714 336.995184 
L 613.846887 332.747223 
L 614.12106 323.070722 
L 614.395233 333.936994 
L 614.669406 330.022941 
L 614.943579 341.808129 
L 615.217752 341.808129 
L 615.491926 334.45938 
L 615.766099 334.45938 
L 616.040272 335.569077 
L 616.314445 321.419591 
L 616.588618 315.979345 
L 616.862791 323.910416 
L 617.136964 312.335872 
L 617.411137 314.402607 
L 617.959483 314.410109 
L 618.233656 333.062386 
L 618.50783 333.062386 
L 618.782003 346.19097 
L 619.056176 343.712803 
L 619.330349 345.520764 
L 619.604522 333.274922 
L 619.878695 344.849467 
L 620.152868 338.228708 
L 620.427041 321.865149 
L 620.701214 321.865149 
L 620.975387 318.239634 
L 621.523734 285.186188 
L 621.797907 289.347488 
L 622.07208 291.151331 
L 622.346253 290.334174 
L 622.620426 272.708674 
L 622.894599 269.663815 
L 623.168772 287.08512 
L 623.442945 273.371214 
L 623.717118 274.424813 
L 623.991292 276.244749 
L 624.265465 275.762959 
L 624.539638 274.807825 
L 625.087984 301.707717 
L 625.362157 298.286096 
L 625.63633 302.588825 
L 625.910503 301.002206 
L 626.184676 314.716112 
L 626.458849 301.879074 
L 626.733022 316.349201 
L 627.007196 322.638617 
L 627.281369 322.299496 
L 627.555542 322.299496 
L 627.829715 317.910538 
L 628.103888 338.957658 
L 628.378061 346.654586 
L 628.926407 322.464928 
L 629.20058 328.039364 
L 629.474753 326.958789 
L 630.0231 352.755728 
L 630.571446 345.874064 
L 630.845619 332.28455 
L 631.119792 334.269279 
L 631.393965 335.158753 
L 631.668138 328.493667 
L 631.942311 338.328185 
L 632.216484 332.581491 
L 632.490657 331.005967 
L 632.764831 330.46568 
L 633.039004 313.43777 
L 633.313177 321.600808 
L 633.58735 335.190322 
L 633.861523 334.170199 
L 634.409869 365.722088 
L 634.684042 347.281175 
L 634.958215 350.556419 
L 635.232388 345.348722 
L 635.506562 342.737962 
L 635.780735 362.329254 
L 636.054908 351.49905 
L 636.329081 351.49905 
L 636.603254 353.599748 
L 636.877427 333.253945 
L 637.1516 321.700106 
L 637.425773 325.551537 
L 637.974119 305.345012 
L 638.522466 276.209751 
L 638.796639 284.953846 
L 639.070812 267.140379 
L 639.344985 267.140379 
L 639.619158 274.04034 
L 639.893331 266.118049 
L 640.167504 267.189539 
L 640.441677 272.306582 
L 640.71585 270.36608 
L 640.990023 269.463979 
L 641.264197 260.095592 
L 641.53837 262.181702 
L 641.812543 267.617071 
L 642.086716 254.750963 
L 642.360889 253.719704 
L 642.635062 253.134886 
L 642.909235 246.313307 
L 643.183408 231.461685 
L 644.005928 283.195495 
L 644.280101 265.480888 
L 644.554274 259.862683 
L 644.828447 266.720795 
L 645.10262 256.980881 
L 645.925139 319.953577 
L 646.199312 306.874373 
L 646.747659 293.977339 
L 647.296005 329.688248 
L 647.570178 327.140554 
L 647.844351 341.344242 
L 648.392697 323.222839 
L 648.66687 323.222839 
L 648.941043 319.054209 
L 649.215216 324.366156 
L 649.763563 316.200668 
L 650.037736 299.341494 
L 650.586082 315.795019 
L 650.860255 308.049144 
L 651.408601 279.155464 
L 651.682774 278.241871 
L 651.956947 267.055436 
L 652.23112 262.41614 
L 652.505294 254.374624 
L 652.779467 250.436887 
L 653.327813 213.241817 
L 653.601986 212.647056 
L 653.876159 215.125958 
L 654.150332 206.457242 
L 654.424505 224.61867 
L 655.521198 260.871009 
L 655.795371 259.870309 
L 656.069544 265.343805 
L 656.343717 283.946548 
L 656.61789 282.906037 
L 656.892063 300.045783 
L 657.166236 281.270795 
L 657.440409 291.141075 
L 657.714582 283.093513 
L 657.988755 264.658125 
L 658.262929 266.141859 
L 658.537102 265.09792 
L 659.359621 247.518149 
L 659.633794 230.966872 
L 659.907967 241.505091 
L 660.18214 238.375926 
L 660.456313 236.803628 
L 660.730486 254.158442 
L 661.00466 249.245126 
L 661.553006 260.280255 
L 661.827179 245.4299 
L 662.101352 245.247309 
L 662.375525 248.833915 
L 662.649698 231.897513 
L 662.923871 235.026677 
L 663.198044 235.874622 
L 663.472217 231.373443 
L 664.020564 260.061201 
L 664.294737 251.575553 
L 664.843083 297.154625 
L 665.117256 289.91144 
L 665.391429 290.394217 
L 665.665602 290.394217 
L 665.939775 291.127554 
L 666.213948 285.901856 
L 666.762295 245.678511 
L 667.036468 246.272875 
L 667.584814 201.27151 
L 668.13316 218.92096 
L 668.407333 193.250431 
L 668.681506 195.933964 
L 668.955679 178.578933 
L 669.229852 179.002891 
L 669.778199 188.077069 
L 670.052372 187.502392 
L 670.326545 208.049377 
L 670.874891 191.443819 
L 671.149064 188.853739 
L 671.423237 183.186213 
L 671.69741 190.430443 
L 671.971583 210.788864 
L 672.245756 205.979512 
L 672.51993 220.427312 
L 672.794103 224.99102 
L 673.068276 226.588891 
L 673.342449 226.230724 
L 673.616622 236.21166 
L 673.890795 252.963664 
L 674.439141 244.206817 
L 674.713314 225.431829 
L 674.987487 229.977757 
L 675.261661 209.155989 
L 675.535834 206.611321 
L 675.810007 186.492519 
L 676.08418 194.321773 
L 676.358353 186.927706 
L 676.632526 173.275922 
L 676.906699 174.771988 
L 677.180872 178.254883 
L 677.455045 170.270116 
L 677.729218 168.361934 
L 678.003391 168.696173 
L 678.277565 164.494759 
L 678.551738 167.601971 
L 678.825911 181.253337 
L 679.100084 172.850149 
L 679.374257 178.733546 
L 679.922603 226.580798 
L 680.196776 230.440121 
L 680.470949 223.092892 
L 680.745122 220.533875 
L 681.019296 220.519855 
L 681.567642 190.481103 
L 681.841815 192.597039 
L 682.115988 184.514196 
L 682.664334 132.524816 
L 682.938507 130.015491 
L 683.486853 142.500741 
L 683.761027 138.497045 
L 684.0352 150.137171 
L 684.309373 151.248159 
L 684.583546 156.467046 
L 684.857719 158.151683 
L 685.131892 154.64954 
L 685.406065 154.707128 
L 685.680238 150.345118 
L 685.954411 142.130358 
L 686.502757 139.101114 
L 687.051104 121.128517 
L 687.325277 113.723662 
L 687.59945 112.705511 
L 687.873623 120.149493 
L 688.147796 116.900913 
L 688.421969 116.218762 
L 688.696142 122.374014 
L 688.970315 119.758293 
L 689.244488 123.201324 
L 689.518662 123.367214 
L 689.792835 132.088741 
L 690.067008 133.303593 
L 690.341181 131.86032 
L 690.615354 143.647638 
L 690.889527 150.526838 
L 691.1637 150.589139 
L 691.437873 158.833065 
L 691.712046 154.290319 
L 691.986219 160.404129 
L 692.260392 161.225241 
L 692.534566 152.52203 
L 692.808739 154.198367 
L 693.082912 161.538078 
L 693.631258 139.312414 
L 693.905431 150.537897 
L 694.179604 139.372275 
L 694.453777 143.055402 
L 694.72795 133.754872 
L 695.002123 134.820369 
L 695.276297 132.213621 
L 695.55047 134.031897 
L 695.824643 149.284515 
L 696.098816 147.03527 
L 696.372989 173.739349 
L 696.647162 164.379144 
L 696.921335 163.686141 
L 697.195508 159.320581 
L 697.469681 160.089525 
L 697.743854 158.795528 
L 698.018028 162.739259 
L 698.292201 157.275838 
L 698.566374 133.686527 
L 698.840547 134.076395 
L 699.11472 109.748673 
L 699.663066 100.957898 
L 699.937239 99.708643 
L 700.211412 107.873443 
L 700.485585 104.879265 
L 700.759758 132.831264 
L 701.308105 127.52393 
L 701.582278 121.640522 
L 701.856451 127.122036 
L 702.130624 129.73576 
L 702.404797 130.118616 
L 702.67897 129.960844 
L 702.953143 122.651157 
L 703.227316 130.97663 
L 703.501489 97.56918 
L 703.775663 97.487129 
L 704.049836 98.204202 
L 704.324009 98.411851 
L 704.598182 85.535587 
L 704.872355 85.619735 
L 705.146528 113.141702 
L 705.420701 112.237378 
L 705.969047 106.914319 
L 706.24322 109.256329 
L 706.517393 114.25412 
L 706.791567 113.921007 
L 707.06574 114.023832 
L 707.339913 124.363678 
L 707.614086 120.604812 
L 707.888259 101.055741 
L 708.162432 102.188329 
L 708.436605 99.785826 
L 708.984951 90.066721 
L 709.259124 87.570844 
L 709.533298 88.930692 
L 709.807471 89.649896 
L 710.081644 82.804051 
L 710.355817 82.272778 
L 710.62999 74.093119 
L 710.904163 72.08991 
L 711.452509 69.660782 
L 711.726682 72.56579 
L 712.000855 70.867063 
L 712.275029 65.690352 
L 712.549202 68.107 
L 712.823375 64.455003 
L 713.097548 72.211269 
L 713.920067 74.760456 
L 714.468413 78.741868 
L 714.742586 78.645274 
L 715.016759 79.260218 
L 715.290933 75.953678 
L 715.565106 76.534474 
L 715.839279 72.087483 
L 716.113452 69.774677 
L 716.387625 69.665659 
L 716.661798 70.989311 
L 716.935971 73.387812 
L 717.484317 68.861246 
L 717.75849 82.40531 
L 718.032664 81.691568 
L 718.306837 85.691649 
L 718.58101 81.263056 
L 718.855183 79.510886 
L 719.129356 75.974448 
L 719.403529 87.197952 
L 719.677702 81.671619 
L 719.951875 80.26054 
L 720.226048 83.487359 
L 720.500221 68.930493 
L 720.774394 65.481239 
L 721.048568 60.282666 
L 721.322741 61.425822 
L 721.596914 66.616636 
L 721.871087 68.911088 
L 722.14526 55.725811 
L 722.419433 54.224563 
L 722.693606 53.422002 
L 722.967779 49.565355 
L 723.241952 48.867273 
L 723.516125 49.390383 
L 723.790299 52.592164 
L 724.064472 63.717035 
L 724.338645 64.118443 
L 724.612818 62.348505 
L 724.886991 65.116913 
L 725.161164 65.919514 
L 725.435337 67.211419 
L 725.70951 65.810955 
L 725.983683 78.291666 
L 726.257856 80.197563 
L 727.080376 73.250325 
L 727.354549 74.605119 
L 727.628722 71.385843 
L 727.902895 70.443753 
L 728.177068 75.680916 
L 728.451241 78.448225 
L 728.725414 65.455803 
L 728.999587 62.383678 
L 729.27376 61.509545 
L 729.547934 51.438788 
L 729.822107 46.504629 
L 730.09628 47.129656 
L 730.370453 46.723872 
L 730.644626 52.970159 
L 730.918799 45.721101 
L 731.192972 44.09167 
L 731.467145 55.426377 
L 732.015491 61.338557 
L 732.289665 60.721156 
L 732.563838 62.215902 
L 732.838011 59.680466 
L 733.112184 59.730797 
L 733.386357 54.744414 
L 733.66053 53.443958 
L 733.934703 65.23675 
L 734.208876 56.375038 
L 734.483049 55.546557 
L 734.757222 52.496868 
L 735.031396 55.101999 
L 735.305569 56.367458 
L 735.579742 58.896098 
L 735.853915 60.299391 
L 736.128088 59.502224 
L 736.402261 63.396693 
L 736.950607 57.13264 
L 737.22478 55.369472 
L 737.498953 57.733183 
L 737.773126 54.612797 
L 738.0473 53.611213 
L 738.595646 50.576277 
L 738.869819 51.227808 
L 739.143992 47.457024 
L 739.418165 41.876778 
L 739.692338 41.891787 
L 740.240684 45.862996 
L 740.514857 53.031457 
L 740.789031 51.725258 
L 741.063204 77.013742 
L 741.885723 75.354521 
L 742.159896 72.84095 
L 742.434069 75.308916 
L 742.708242 72.877105 
L 742.982415 68.402287 
L 743.256588 61.87706 
L 743.530761 64.271268 
L 743.804935 41.52118 
L 744.079108 45.953905 
L 744.353281 46.797736 
L 744.627454 46.391155 
L 744.901627 47.975756 
L 745.1758 46.22664 
L 745.449973 46.242193 
L 745.998319 49.030938 
L 746.820839 38.828288 
L 747.095012 38.606884 
L 747.369185 38.747498 
L 747.643358 38.481261 
L 747.917531 42.467415 
L 748.191704 43.060351 
L 748.465877 54.3438 
L 748.74005 57.645808 
L 749.288397 56.403629 
L 749.836743 54.370132 
L 750.110916 55.283764 
L 750.385089 52.498141 
L 750.659262 47.64062 
L 750.933435 59.596831 
L 751.207608 54.616217 
L 751.481781 51.840283 
L 751.755954 52.513101 
L 752.030127 53.948476 
L 752.304301 57.733109 
L 752.578474 58.240291 
L 752.852647 58.490212 
L 753.400993 58.494124 
L 753.675166 46.326497 
L 753.949339 40.967555 
L 754.223512 42.664693 
L 754.497685 46.603231 
L 754.771858 47.562036 
L 755.046032 47.375616 
L 755.320205 46.766992 
L 755.594378 47.738438 
L 755.868551 50.570536 
L 756.142724 59.843985 
L 756.416897 59.184489 
L 756.69107 57.386943 
L 756.965243 58.001316 
L 757.239416 56.48213 
L 757.513589 58.969291 
L 757.787762 56.912564 
L 758.061936 56.764696 
L 758.336109 59.038689 
L 758.610282 55.77843 
L 758.884455 46.232882 
L 759.158628 48.330362 
L 759.432801 49.276956 
L 759.706974 45.604057 
L 759.981147 45.417988 
L 760.25532 41.056374 
L 760.529493 42.537747 
L 760.803667 44.752854 
L 761.07784 42.927199 
L 761.352013 43.929583 
L 761.626186 43.657482 
L 761.900359 43.184551 
L 762.448705 40.086274 
L 762.722878 37.176173 
L 762.997051 36.653406 
L 763.271224 43.20683 
L 763.545398 44.225713 
L 763.819571 41.501762 
L 764.093744 42.96724 
L 764.367917 45.875151 
L 764.64209 43.577716 
L 764.916263 44.75107 
L 765.190436 45.311479 
L 765.464609 49.102163 
L 765.738782 49.372252 
L 766.012955 40.444799 
L 766.287128 38.088536 
L 766.561302 38.085495 
L 767.109648 34.037193 
L 767.383821 34.447822 
L 767.657994 33.672314 
L 768.20634 39.178306 
L 768.480513 39.698247 
L 768.754686 53.932276 
L 769.028859 54.676468 
L 769.303033 54.53993 
L 769.577206 54.263825 
L 769.851379 53.625069 
L 770.125552 56.331224 
L 770.399725 55.938379 
L 770.673898 60.490095 
L 770.948071 54.34387 
L 771.222244 53.697496 
L 771.496417 39.087724 
L 771.77059 41.026233 
L 772.044764 45.740951 
L 772.318937 47.165722 
L 772.59311 47.457373 
L 772.867283 45.397211 
L 773.141456 48.551228 
L 773.689802 59.154426 
L 773.963975 59.285859 
L 774.238148 61.584373 
L 774.512321 60.470771 
L 774.786494 56.028127 
L 775.060668 54.603357 
L 775.334841 54.44721 
L 775.609014 53.93577 
L 775.883187 59.099222 
L 776.15736 46.799108 
L 776.431533 42.715396 
L 776.705706 42.440307 
L 777.254052 37.273273 
L 777.802399 40.48733 
L 778.076572 40.211227 
L 778.350745 40.988039 
L 778.624918 35.487507 
L 778.899091 36.627663 
L 779.173264 37.143812 
L 779.447437 47.134199 
L 779.72161 48.049539 
L 779.995783 49.452919 
L 780.269956 48.081777 
L 780.544129 47.742207 
L 780.818303 48.132116 
L 781.092476 48.023292 
L 781.366649 45.467545 
L 781.640822 44.750329 
L 781.914995 44.741974 
L 782.189168 40.20118 
L 782.463341 39.439595 
L 783.011687 37.67305 
L 783.28586 38.13881 
L 783.834207 38.447335 
L 784.10838 37.772502 
L 784.382553 38.100904 
L 784.656726 35.951675 
L 784.930899 30.505123 
L 785.205072 30.489897 
L 785.753418 31.247138 
L 786.027591 30.865891 
L 786.575938 28.678182 
L 786.850111 29.974627 
L 787.124284 29.198268 
L 787.398457 29.058701 
L 787.67263 29.058701 
L 787.946803 31.152041 
L 788.220976 30.359144 
L 788.495149 33.136728 
L 788.769322 32.999337 
L 789.043495 34.331718 
L 789.317669 40.655311 
L 789.591842 40.406958 
L 790.140188 46.825003 
L 790.414361 47.603491 
L 790.962707 47.24935 
L 791.23688 45.631774 
L 791.785226 50.152503 
L 792.0594 44.975156 
L 792.333573 44.622902 
L 792.881919 38.804897 
L 793.156092 40.75036 
L 793.430265 40.034049 
L 793.704438 45.050125 
L 793.978611 46.021421 
L 794.252784 44.228676 
L 794.526957 40.818801 
L 794.80113 40.079183 
L 795.075304 42.703147 
L 795.349477 48.133761 
L 795.62365 50.26876 
L 795.897823 47.951389 
L 796.171996 50.040074 
L 796.446169 45.020956 
L 796.720342 42.349447 
L 796.994515 41.183557 
L 797.268688 45.393677 
L 797.542861 46.042509 
L 797.817035 45.81689 
L 798.091208 39.80513 
L 798.365381 39.353659 
L 798.639554 39.769309 
L 798.913727 37.543385 
L 799.1879 37.671033 
L 799.462073 38.597602 
L 799.736246 38.880771 
L 800.010419 35.336826 
L 800.284592 35.234175 
L 800.558766 33.315201 
L 800.832939 34.108098 
L 801.107112 32.556003 
L 801.381285 32.260207 
L 801.655458 30.968972 
L 801.929631 31.41314 
L 802.477977 41.270089 
L 802.75215 42.870283 
L 803.026323 42.469683 
L 803.300496 41.693323 
L 803.57467 40.488796 
L 803.848843 40.357363 
L 804.123016 41.866964 
L 804.397189 41.869967 
L 804.671362 41.563307 
L 804.945535 35.886489 
L 805.219708 36.381137 
L 805.493881 35.670628 
L 805.768054 37.830726 
L 806.042227 37.43389 
L 806.316401 37.995299 
L 806.590574 37.851643 
L 806.864747 35.676029 
L 807.13892 35.815596 
L 807.413093 35.820529 
L 807.687266 36.223307 
L 807.961439 32.156193 
L 808.235612 30.891608 
L 808.509785 28.880341 
L 808.783958 29.553159 
L 809.058131 31.665064 
L 809.332305 42.951414 
L 809.606478 43.227519 
L 810.154824 51.445045 
L 810.428997 51.205145 
L 810.70317 50.077756 
L 810.977343 50.342623 
L 811.251516 50.963355 
L 811.525689 50.290537 
L 811.799862 48.036972 
L 812.074036 37.688699 
L 812.348209 37.552174 
L 812.622382 32.765586 
L 812.896555 30.947333 
L 813.170728 32.421385 
L 813.444901 36.746038 
L 813.719074 36.461012 
L 813.993247 36.461012 
L 814.26742 36.59755 
L 814.541593 44.575342 
L 814.815767 48.174943 
L 815.08994 59.179099 
L 815.364113 60.341986 
L 815.912459 57.370808 
L 816.186632 53.477521 
L 816.460805 57.416525 
L 816.734978 56.37086 
L 817.009151 56.780482 
L 817.283324 48.798602 
L 817.557497 46.275469 
L 817.831671 36.431157 
L 818.105844 36.084541 
L 818.380017 36.328701 
L 818.65419 39.71549 
L 818.928363 39.00185 
L 819.202536 36.47116 
L 819.476709 36.334635 
L 819.750882 35.928054 
L 820.025055 35.785484 
L 820.299228 33.632385 
L 820.847575 36.526737 
L 821.121748 36.400929 
L 821.395921 33.509092 
L 821.670094 33.898051 
L 821.944267 34.020765 
L 822.21844 34.282879 
L 822.492613 34.143299 
L 822.766786 34.838073 
L 823.040959 35.116193 
L 823.315133 33.018122 
L 823.589306 37.31006 
L 823.863479 39.441363 
L 824.137652 38.278477 
L 824.411825 39.106442 
L 824.960171 42.058301 
L 825.508517 42.962363 
L 825.78269 44.130005 
L 826.056863 43.573746 
L 826.331037 39.650067 
L 826.60521 38.464732 
L 826.879383 38.744897 
L 827.153556 39.253925 
L 827.427729 35.847006 
L 827.701902 35.29501 
L 827.976075 36.077518 
L 828.524421 34.422155 
L 828.798594 38.430739 
L 829.072768 38.219873 
L 829.346941 37.522848 
L 829.621114 39.038865 
L 829.895287 37.312913 
L 830.16946 44.972757 
L 830.443633 45.618319 
L 830.717806 46.709772 
L 830.991979 46.834748 
L 831.266152 47.496073 
L 831.540325 44.471838 
L 831.814498 42.738093 
L 832.088672 42.22505 
L 832.362845 42.707522 
L 832.637018 46.894742 
L 832.911191 39.809718 
L 833.185364 38.678686 
L 833.73371 37.745492 
L 834.007883 37.713422 
L 834.556229 40.380524 
L 834.830403 40.662759 
L 835.104576 38.515665 
L 835.378749 34.61072 
L 835.652922 34.170464 
L 835.927095 34.121415 
L 836.201268 34.293132 
L 836.475441 35.200466 
L 836.749614 35.450387 
L 837.023787 33.673914 
L 837.29796 34.137368 
L 837.572134 34.375781 
L 837.846307 35.538398 
L 838.12048 39.727901 
L 838.394653 40.125815 
L 838.668826 39.746703 
L 839.217172 38.259524 
L 839.491345 37.768586 
L 839.765518 38.802997 
L 840.039691 42.014977 
L 840.313864 42.422585 
L 840.588038 41.550209 
L 840.862211 37.984932 
L 841.136384 37.599113 
L 841.410557 37.590993 
L 841.68473 37.100105 
L 841.958903 37.354071 
L 842.233076 44.935769 
L 842.507249 45.784132 
L 842.781422 40.383071 
L 843.055595 39.039154 
L 843.329769 39.56522 
L 843.603942 39.227497 
L 843.878115 40.895417 
L 844.152288 41.558533 
L 844.426461 41.274155 
L 844.700634 41.75628 
L 844.974807 33.930129 
L 845.24898 32.051443 
L 845.523153 34.125826 
L 845.797326 35.245601 
L 846.071499 34.294728 
L 846.345673 34.150945 
L 846.619846 35.181059 
L 846.894019 34.918687 
L 847.716538 43.512145 
L 847.990711 43.766281 
L 848.264884 48.354324 
L 848.539057 50.60267 
L 849.087404 59.895015 
L 849.361577 56.916786 
L 849.63575 58.142577 
L 849.909923 56.539516 
L 850.184096 51.728203 
L 850.458269 52.103734 
L 850.732442 51.569404 
L 851.006615 44.25741 
L 851.280788 42.074924 
L 851.829135 32.467677 
L 852.103308 33.032249 
L 852.377481 30.857539 
L 852.651654 30.012987 
L 852.925827 35.567626 
L 852.925827 35.567626 
" clip-path="url(#p1c3ea0562f)" style="fill: none; stroke-dasharray: 7.4,3.2; stroke-dashoffset: 0; stroke: #000000; stroke-width: 2"/>
   </g>
   <g id="patch_3">
    <path d="M 35.89 404.12 
L 35.89 10.8 
" style="fill: none; stroke: #000000; stroke-width: 0.8; stroke-linejoin: miter; stroke-linecap: square"/>
   </g>
   <g id="patch_4">
    <path d="M 853.2 404.12 
L 853.2 10.8 
" style="fill: none; stroke: #000000; stroke-width: 0.8; stroke-linejoin: miter; stroke-linecap: square"/>
   </g>
   <g id="patch_5">
    <path d="M 35.89 404.12 
L 853.2 404.12 
" style="fill: none; stroke: #000000; stroke-width: 0.8; stroke-linejoin: miter; stroke-linecap: square"/>
   </g>
   <g id="patch_6">
    <path d="M 35.89 10.8 
L 853.2 10.8 
" style="fill: none; stroke: #000000; stroke-width: 0.8; stroke-linejoin: miter; stroke-linecap: square"/>
   </g>
  </g>
 </g>
 <defs>
  <clipPath id="p1c3ea0562f">
   <rect x="35.89" y="10.8" width="817.31" height="393.32"/>
  </clipPath>
 </defs>
</svg>
