<?xml version="1.0" encoding="utf-8" standalone="no"?>
<!DOCTYPE svg PUBLIC "-//W3C//DTD SVG 1.1//EN"
  "http://www.w3.org/Graphics/SVG/1.1/DTD/svg11.dtd">
<svg xmlns:xlink="http://www.w3.org/1999/xlink" width="864pt" height="432pt" viewBox="0 0 864 432" xmlns="http://www.w3.org/2000/svg" version="1.1">
 <metadata>
  <rdf:RDF xmlns:dc="http://purl.org/dc/elements/1.1/" xmlns:cc="http://creativecommons.org/ns#" xmlns:rdf="http://www.w3.org/1999/02/22-rdf-syntax-ns#">
   <cc:Work>
    <dc:type rdf:resource="http://purl.org/dc/dcmitype/StillImage"/>
    <dc:date>2024-09-17T13:40:35.052101</dc:date>
    <dc:format>image/svg+xml</dc:format>
    <dc:creator>
     <cc:Agent>
      <dc:title>Matplotlib v3.9.2, https://matplotlib.org/</dc:title>
     </cc:Agent>
    </dc:creator>
   </cc:Work>
  </rdf:RDF>
 </metadata>
 <defs>
  <style type="text/css">*{stroke-linejoin: round; stroke-linecap: butt}</style>
 </defs>
 <g id="figure_1">
  <g id="patch_1">
   <path d="M 0 432 
L 864 432 
L 864 0 
L 0 0 
z
" style="fill: #ffffff"/>
  </g>
  <g id="axes_1">
   <g id="patch_2">
    <path d="M 35.89 404.12 
L 853.2 404.12 
L 853.2 10.8 
L 35.89 10.8 
z
" style="fill: #ffffff"/>
   </g>
   <g id="matplotlib.axis_1">
    <g id="xtick_1">
     <g id="line2d_1">
      <defs>
       <path id="m261057b080" d="M 0 0 
L 0 3.5 
" style="stroke: #000000; stroke-width: 0.8"/>
      </defs>
      <g>
       <use xlink:href="#m261057b080" x="134.90787" y="404.12" style="stroke: #000000; stroke-width: 0.8"/>
      </g>
     </g>
     <g id="text_1">
      <!-- 250 -->
      <g transform="translate(125.877401 418.771563) scale(0.1 -0.1)">
       <defs>
        <path id="DejaVuSansMono-32" d="M 1166 531 
L 3309 531 
L 3309 0 
L 475 0 
L 475 531 
Q 1059 1147 1496 1619 
Q 1934 2091 2100 2284 
Q 2413 2666 2522 2902 
Q 2631 3138 2631 3384 
Q 2631 3775 2401 3997 
Q 2172 4219 1772 4219 
Q 1488 4219 1175 4116 
Q 863 4013 513 3803 
L 513 4441 
Q 834 4594 1145 4672 
Q 1456 4750 1759 4750 
Q 2444 4750 2861 4386 
Q 3278 4022 3278 3431 
Q 3278 3131 3139 2831 
Q 3000 2531 2688 2169 
Q 2513 1966 2180 1606 
Q 1847 1247 1166 531 
z
" transform="scale(0.015625)"/>
        <path id="DejaVuSansMono-35" d="M 647 4666 
L 3009 4666 
L 3009 4134 
L 1222 4134 
L 1222 2988 
Q 1356 3038 1492 3061 
Q 1628 3084 1766 3084 
Q 2491 3084 2916 2656 
Q 3341 2228 3341 1497 
Q 3341 759 2895 334 
Q 2450 -91 1678 -91 
Q 1306 -91 998 -41 
Q 691 9 447 109 
L 447 750 
Q 734 594 1025 517 
Q 1316 441 1619 441 
Q 2141 441 2423 716 
Q 2706 991 2706 1497 
Q 2706 1997 2414 2275 
Q 2122 2553 1600 2553 
Q 1347 2553 1106 2495 
Q 866 2438 647 2322 
L 647 4666 
z
" transform="scale(0.015625)"/>
        <path id="DejaVuSansMono-30" d="M 1509 2344 
Q 1509 2516 1629 2641 
Q 1750 2766 1919 2766 
Q 2094 2766 2219 2641 
Q 2344 2516 2344 2344 
Q 2344 2169 2220 2047 
Q 2097 1925 1919 1925 
Q 1744 1925 1626 2044 
Q 1509 2163 1509 2344 
z
M 1925 4250 
Q 1484 4250 1267 3775 
Q 1050 3300 1050 2328 
Q 1050 1359 1267 884 
Q 1484 409 1925 409 
Q 2369 409 2586 884 
Q 2803 1359 2803 2328 
Q 2803 3300 2586 3775 
Q 2369 4250 1925 4250 
z
M 1925 4750 
Q 2672 4750 3055 4137 
Q 3438 3525 3438 2328 
Q 3438 1134 3055 521 
Q 2672 -91 1925 -91 
Q 1178 -91 797 521 
Q 416 1134 416 2328 
Q 416 3525 797 4137 
Q 1178 4750 1925 4750 
z
" transform="scale(0.015625)"/>
       </defs>
       <use xlink:href="#DejaVuSansMono-32"/>
       <use xlink:href="#DejaVuSansMono-35" x="60.205078"/>
       <use xlink:href="#DejaVuSansMono-30" x="120.410156"/>
      </g>
     </g>
    </g>
    <g id="xtick_2">
     <g id="line2d_2">
      <g>
       <use xlink:href="#m261057b080" x="238.051484" y="404.12" style="stroke: #000000; stroke-width: 0.8"/>
      </g>
     </g>
     <g id="text_2">
      <!-- 500 -->
      <g transform="translate(229.021015 418.771563) scale(0.1 -0.1)">
       <use xlink:href="#DejaVuSansMono-35"/>
       <use xlink:href="#DejaVuSansMono-30" x="60.205078"/>
       <use xlink:href="#DejaVuSansMono-30" x="120.410156"/>
      </g>
     </g>
    </g>
    <g id="xtick_3">
     <g id="line2d_3">
      <g>
       <use xlink:href="#m261057b080" x="341.195098" y="404.12" style="stroke: #000000; stroke-width: 0.8"/>
      </g>
     </g>
     <g id="text_3">
      <!-- 750 -->
      <g transform="translate(332.16463 418.771563) scale(0.1 -0.1)">
       <defs>
        <path id="DejaVuSansMono-37" d="M 434 4666 
L 3372 4666 
L 3372 4397 
L 1703 0 
L 1044 0 
L 2669 4134 
L 434 4134 
L 434 4666 
z
" transform="scale(0.015625)"/>
       </defs>
       <use xlink:href="#DejaVuSansMono-37"/>
       <use xlink:href="#DejaVuSansMono-35" x="60.205078"/>
       <use xlink:href="#DejaVuSansMono-30" x="120.410156"/>
      </g>
     </g>
    </g>
    <g id="xtick_4">
     <g id="line2d_4">
      <g>
       <use xlink:href="#m261057b080" x="444.338713" y="404.12" style="stroke: #000000; stroke-width: 0.8"/>
      </g>
     </g>
     <g id="text_4">
      <!-- 1000 -->
      <g transform="translate(432.298088 418.771563) scale(0.1 -0.1)">
       <defs>
        <path id="DejaVuSansMono-31" d="M 844 531 
L 1825 531 
L 1825 4097 
L 769 3859 
L 769 4434 
L 1819 4666 
L 2450 4666 
L 2450 531 
L 3419 531 
L 3419 0 
L 844 0 
L 844 531 
z
" transform="scale(0.015625)"/>
       </defs>
       <use xlink:href="#DejaVuSansMono-31"/>
       <use xlink:href="#DejaVuSansMono-30" x="60.205078"/>
       <use xlink:href="#DejaVuSansMono-30" x="120.410156"/>
       <use xlink:href="#DejaVuSansMono-30" x="180.615234"/>
      </g>
     </g>
    </g>
    <g id="xtick_5">
     <g id="line2d_5">
      <g>
       <use xlink:href="#m261057b080" x="547.482327" y="404.12" style="stroke: #000000; stroke-width: 0.8"/>
      </g>
     </g>
     <g id="text_5">
      <!-- 1250 -->
      <g transform="translate(535.441702 418.771563) scale(0.1 -0.1)">
       <use xlink:href="#DejaVuSansMono-31"/>
       <use xlink:href="#DejaVuSansMono-32" x="60.205078"/>
       <use xlink:href="#DejaVuSansMono-35" x="120.410156"/>
       <use xlink:href="#DejaVuSansMono-30" x="180.615234"/>
      </g>
     </g>
    </g>
    <g id="xtick_6">
     <g id="line2d_6">
      <g>
       <use xlink:href="#m261057b080" x="650.625941" y="404.12" style="stroke: #000000; stroke-width: 0.8"/>
      </g>
     </g>
     <g id="text_6">
      <!-- 1500 -->
      <g transform="translate(638.585316 418.771563) scale(0.1 -0.1)">
       <use xlink:href="#DejaVuSansMono-31"/>
       <use xlink:href="#DejaVuSansMono-35" x="60.205078"/>
       <use xlink:href="#DejaVuSansMono-30" x="120.410156"/>
       <use xlink:href="#DejaVuSansMono-30" x="180.615234"/>
      </g>
     </g>
    </g>
    <g id="xtick_7">
     <g id="line2d_7">
      <g>
       <use xlink:href="#m261057b080" x="753.769556" y="404.12" style="stroke: #000000; stroke-width: 0.8"/>
      </g>
     </g>
     <g id="text_7">
      <!-- 1750 -->
      <g transform="translate(741.728931 418.771563) scale(0.1 -0.1)">
       <use xlink:href="#DejaVuSansMono-31"/>
       <use xlink:href="#DejaVuSansMono-37" x="60.205078"/>
       <use xlink:href="#DejaVuSansMono-35" x="120.410156"/>
       <use xlink:href="#DejaVuSansMono-30" x="180.615234"/>
      </g>
     </g>
    </g>
   </g>
   <g id="matplotlib.axis_2">
    <g id="ytick_1">
     <g id="line2d_8">
      <defs>
       <path id="m589593c1a4" d="M 0 0 
L -3.5 0 
" style="stroke: #000000; stroke-width: 0.8"/>
      </defs>
      <g>
       <use xlink:href="#m589593c1a4" x="35.89" y="386.241818" style="stroke: #000000; stroke-width: 0.8"/>
      </g>
     </g>
     <g id="text_8">
      <!-- 0.0 -->
      <g transform="translate(10.829063 390.067599) scale(0.1 -0.1)">
       <defs>
        <path id="DejaVuSansMono-2e" d="M 1528 953 
L 2316 953 
L 2316 0 
L 1528 0 
L 1528 953 
z
" transform="scale(0.015625)"/>
       </defs>
       <use xlink:href="#DejaVuSansMono-30"/>
       <use xlink:href="#DejaVuSansMono-2e" x="60.205078"/>
       <use xlink:href="#DejaVuSansMono-30" x="120.410156"/>
      </g>
     </g>
    </g>
    <g id="ytick_2">
     <g id="line2d_9">
      <g>
       <use xlink:href="#m589593c1a4" x="35.89" y="314.729091" style="stroke: #000000; stroke-width: 0.8"/>
      </g>
     </g>
     <g id="text_9">
      <!-- 0.2 -->
      <g transform="translate(10.829063 318.554872) scale(0.1 -0.1)">
       <use xlink:href="#DejaVuSansMono-30"/>
       <use xlink:href="#DejaVuSansMono-2e" x="60.205078"/>
       <use xlink:href="#DejaVuSansMono-32" x="120.410156"/>
      </g>
     </g>
    </g>
    <g id="ytick_3">
     <g id="line2d_10">
      <g>
       <use xlink:href="#m589593c1a4" x="35.89" y="243.216364" style="stroke: #000000; stroke-width: 0.8"/>
      </g>
     </g>
     <g id="text_10">
      <!-- 0.4 -->
      <g transform="translate(10.829063 247.042145) scale(0.1 -0.1)">
       <defs>
        <path id="DejaVuSansMono-34" d="M 2297 4091 
L 825 1625 
L 2297 1625 
L 2297 4091 
z
M 2194 4666 
L 2925 4666 
L 2925 1625 
L 3547 1625 
L 3547 1113 
L 2925 1113 
L 2925 0 
L 2297 0 
L 2297 1113 
L 319 1113 
L 319 1709 
L 2194 4666 
z
" transform="scale(0.015625)"/>
       </defs>
       <use xlink:href="#DejaVuSansMono-30"/>
       <use xlink:href="#DejaVuSansMono-2e" x="60.205078"/>
       <use xlink:href="#DejaVuSansMono-34" x="120.410156"/>
      </g>
     </g>
    </g>
    <g id="ytick_4">
     <g id="line2d_11">
      <g>
       <use xlink:href="#m589593c1a4" x="35.89" y="171.703636" style="stroke: #000000; stroke-width: 0.8"/>
      </g>
     </g>
     <g id="text_11">
      <!-- 0.6 -->
      <g transform="translate(10.829063 175.529418) scale(0.1 -0.1)">
       <defs>
        <path id="DejaVuSansMono-36" d="M 3097 4563 
L 3097 3981 
Q 2900 4097 2678 4158 
Q 2456 4219 2216 4219 
Q 1616 4219 1306 3767 
Q 997 3316 997 2438 
Q 1147 2750 1412 2917 
Q 1678 3084 2022 3084 
Q 2697 3084 3067 2670 
Q 3438 2256 3438 1497 
Q 3438 741 3056 325 
Q 2675 -91 1984 -91 
Q 1172 -91 794 492 
Q 416 1075 416 2328 
Q 416 3509 870 4129 
Q 1325 4750 2188 4750 
Q 2419 4750 2650 4701 
Q 2881 4653 3097 4563 
z
M 1972 2591 
Q 1569 2591 1337 2300 
Q 1106 2009 1106 1497 
Q 1106 984 1337 693 
Q 1569 403 1972 403 
Q 2391 403 2603 679 
Q 2816 956 2816 1497 
Q 2816 2041 2603 2316 
Q 2391 2591 1972 2591 
z
" transform="scale(0.015625)"/>
       </defs>
       <use xlink:href="#DejaVuSansMono-30"/>
       <use xlink:href="#DejaVuSansMono-2e" x="60.205078"/>
       <use xlink:href="#DejaVuSansMono-36" x="120.410156"/>
      </g>
     </g>
    </g>
    <g id="ytick_5">
     <g id="line2d_12">
      <g>
       <use xlink:href="#m589593c1a4" x="35.89" y="100.190909" style="stroke: #000000; stroke-width: 0.8"/>
      </g>
     </g>
     <g id="text_12">
      <!-- 0.8 -->
      <g transform="translate(10.829063 104.01669) scale(0.1 -0.1)">
       <defs>
        <path id="DejaVuSansMono-38" d="M 1925 2216 
Q 1503 2216 1273 1980 
Q 1044 1744 1044 1313 
Q 1044 881 1276 642 
Q 1509 403 1925 403 
Q 2350 403 2579 639 
Q 2809 875 2809 1313 
Q 2809 1741 2576 1978 
Q 2344 2216 1925 2216 
z
M 1375 2478 
Q 972 2581 745 2862 
Q 519 3144 519 3541 
Q 519 4097 897 4423 
Q 1275 4750 1925 4750 
Q 2578 4750 2956 4423 
Q 3334 4097 3334 3541 
Q 3334 3144 3107 2862 
Q 2881 2581 2478 2478 
Q 2947 2375 3195 2062 
Q 3444 1750 3444 1253 
Q 3444 622 3041 265 
Q 2638 -91 1925 -91 
Q 1213 -91 811 264 
Q 409 619 409 1247 
Q 409 1747 657 2061 
Q 906 2375 1375 2478 
z
M 1147 3481 
Q 1147 3106 1347 2909 
Q 1547 2713 1925 2713 
Q 2306 2713 2506 2909 
Q 2706 3106 2706 3481 
Q 2706 3863 2507 4063 
Q 2309 4263 1925 4263 
Q 1547 4263 1347 4061 
Q 1147 3859 1147 3481 
z
" transform="scale(0.015625)"/>
       </defs>
       <use xlink:href="#DejaVuSansMono-30"/>
       <use xlink:href="#DejaVuSansMono-2e" x="60.205078"/>
       <use xlink:href="#DejaVuSansMono-38" x="120.410156"/>
      </g>
     </g>
    </g>
    <g id="ytick_6">
     <g id="line2d_13">
      <g>
       <use xlink:href="#m589593c1a4" x="35.89" y="28.678182" style="stroke: #000000; stroke-width: 0.8"/>
      </g>
     </g>
     <g id="text_13">
      <!-- 1.0 -->
      <g transform="translate(10.829063 32.503963) scale(0.1 -0.1)">
       <use xlink:href="#DejaVuSansMono-31"/>
       <use xlink:href="#DejaVuSansMono-2e" x="60.205078"/>
       <use xlink:href="#DejaVuSansMono-30" x="120.410156"/>
      </g>
     </g>
    </g>
   </g>
   <g id="line2d_14">
    <path d="M 35.477426 386.241818 
L 47.442085 386.241818 
L 47.854659 375.55486 
L 48.267234 375.047677 
L 51.567829 375.047677 
L 51.980404 385.734636 
L 52.392978 386.241818 
L 59.406744 386.241818 
L 59.819319 381.895741 
L 63.532489 381.895741 
L 63.945063 386.241818 
L 66.42051 386.241818 
L 66.833084 383.934956 
L 70.546254 383.934956 
L 70.958829 386.241818 
L 80.448041 386.241818 
L 80.860616 384.811564 
L 81.685765 384.811564 
L 82.098339 383.818331 
L 84.573786 383.818331 
L 84.98636 385.248586 
L 85.811509 385.248586 
L 86.224084 386.241818 
L 87.461807 386.241818 
L 87.874382 382.341124 
L 88.699531 365.265982 
L 89.524679 362.316969 
L 91.587552 362.316969 
L 92.000126 366.217663 
L 92.825275 383.292805 
L 93.650424 386.241818 
L 97.363594 386.241818 
L 97.776169 385.255436 
L 99.013892 385.255436 
L 99.426466 384.755347 
L 100.251615 384.755347 
L 100.66419 381.52574 
L 101.076764 380.066296 
L 101.489339 380.066296 
L 101.901913 381.052679 
L 102.314488 380.545496 
L 103.964785 380.538403 
L 104.37736 372.95372 
L 104.789934 371.266827 
L 106.027658 350.379289 
L 106.440232 349.89324 
L 107.265381 349.89324 
L 107.677956 350.400422 
L 108.09053 350.400422 
L 108.503104 357.985105 
L 108.915679 362.404989 
L 109.328253 365.433356 
L 109.740828 361.040433 
L 110.153402 359.36405 
L 110.565977 355.50148 
L 110.978551 355.50148 
L 111.391126 354.011631 
L 112.628849 354.011631 
L 113.041424 354.508247 
L 113.453998 356.239554 
L 113.866572 366.463587 
L 114.279147 366.420877 
L 114.691721 363.545574 
L 115.104296 353.629944 
L 115.51687 354.619704 
L 116.754594 354.619704 
L 117.167168 351.431238 
L 117.579743 355.453829 
L 117.992317 356.433456 
L 118.404891 362.569511 
L 118.817466 362.559548 
L 119.23004 359.357459 
L 120.055189 333.705236 
L 120.880338 328.905724 
L 121.292913 332.09419 
L 121.705487 331.594101 
L 122.118062 319.629993 
L 122.530636 315.940657 
L 122.94321 319.633835 
L 123.355785 326.287127 
L 123.768359 338.091258 
L 124.180934 335.614995 
L 125.006083 317.017653 
L 125.418657 310.781078 
L 125.831232 296.659606 
L 126.243806 300.72405 
L 126.656381 296.688313 
L 127.894104 264.297925 
L 128.306678 265.01306 
L 128.719253 273.513235 
L 129.131827 271.266306 
L 129.544402 262.513314 
L 129.956976 259.963125 
L 130.782125 243.487323 
L 131.1947 247.305059 
L 131.607274 248.09593 
L 132.019849 247.189748 
L 132.432423 243.987919 
L 132.844997 231.016559 
L 133.257572 229.366362 
L 133.670146 226.635963 
L 134.082721 229.58005 
L 134.495295 226.830988 
L 134.90787 222.986082 
L 135.320444 211.411105 
L 135.733019 204.245322 
L 136.145593 202.54128 
L 136.558168 199.518112 
L 136.970742 194.124899 
L 137.383317 185.958023 
L 137.795891 189.678143 
L 138.208465 180.804786 
L 139.033614 170.324509 
L 139.858763 161.651203 
L 140.271338 153.504927 
L 140.683912 148.679572 
L 141.096487 145.185391 
L 141.509061 140.492653 
L 141.921636 126.519833 
L 142.746784 120.146797 
L 143.159359 117.518422 
L 143.571933 115.858499 
L 144.397082 108.618348 
L 144.809657 104.984736 
L 145.222231 104.571085 
L 145.634806 102.829003 
L 146.04738 102.484551 
L 147.285103 100.777093 
L 148.110252 98.410612 
L 148.522827 98.391867 
L 148.935401 97.401701 
L 149.347976 92.970474 
L 150.173125 87.141383 
L 150.585699 85.922507 
L 150.998274 87.564182 
L 151.410848 86.30549 
L 151.823423 82.752557 
L 152.648571 79.007253 
L 153.061146 81.431157 
L 153.47372 79.900221 
L 153.886295 80.662493 
L 154.298869 79.550676 
L 154.711444 78.933075 
L 155.124018 77.570928 
L 155.536593 75.552515 
L 155.949167 77.230636 
L 156.361742 76.440202 
L 156.774316 77.546534 
L 157.18689 71.567692 
L 157.599465 72.643661 
L 158.012039 76.848704 
L 158.424614 77.120749 
L 158.837188 78.085174 
L 159.249763 75.305367 
L 159.662337 76.382352 
L 160.074912 76.034268 
L 160.487486 76.794605 
L 160.900061 74.834228 
L 161.312635 78.743477 
L 161.725209 79.016219 
L 162.137784 76.34605 
L 162.550358 74.576963 
L 162.962933 68.539102 
L 163.788082 63.711514 
L 164.200656 62.635478 
L 164.613231 63.628709 
L 165.025805 61.152564 
L 165.43838 57.195502 
L 165.850954 55.042942 
L 166.263529 50.603547 
L 166.676103 51.028445 
L 167.088677 50.311435 
L 167.501252 53.397476 
L 167.913826 58.032917 
L 168.326401 57.811907 
L 168.738975 54.875396 
L 169.15155 54.799579 
L 169.564124 54.429401 
L 170.389273 52.639658 
L 170.801848 51.152053 
L 171.214422 51.971308 
L 171.626996 51.845859 
L 172.039571 47.642926 
L 173.689869 43.422333 
L 174.102443 47.130152 
L 174.515018 48.997477 
L 174.927592 51.382824 
L 175.340167 51.60983 
L 175.752741 48.416461 
L 176.165315 46.987297 
L 176.57789 50.657905 
L 176.990464 50.909703 
L 177.403039 52.272306 
L 177.815613 52.250572 
L 178.228188 48.868799 
L 178.640762 48.192288 
L 179.053337 47.765707 
L 179.878486 48.091926 
L 180.29106 49.972072 
L 180.703635 50.163652 
L 181.116209 53.177546 
L 181.528783 53.048666 
L 181.941358 52.545052 
L 182.353932 52.346853 
L 182.766507 51.432325 
L 183.179081 49.09719 
L 183.591656 48.643166 
L 184.00423 49.402271 
L 184.416805 48.487954 
L 184.829379 44.897833 
L 185.241954 42.96705 
L 185.654528 41.985126 
L 186.067102 42.108821 
L 186.479677 41.391811 
L 186.892251 41.721197 
L 187.304826 43.72591 
L 187.7174 43.867045 
L 188.129975 42.4176 
L 188.542549 43.552927 
L 188.955124 42.289453 
L 189.367698 41.459034 
L 189.780273 42.923102 
L 190.192847 45.405046 
L 190.605422 44.418771 
L 191.017996 46.265928 
L 191.43057 44.009417 
L 191.843145 43.868281 
L 192.255719 43.996205 
L 192.668294 45.082416 
L 193.080868 48.39435 
L 193.493443 48.512745 
L 193.906017 47.419765 
L 194.318592 45.424035 
L 194.731166 45.424949 
L 195.143741 43.254977 
L 195.556315 43.127731 
L 195.968889 42.779051 
L 196.381464 42.651127 
L 196.794038 41.392556 
L 197.206613 38.080623 
L 197.619187 37.709534 
L 198.031762 38.449251 
L 198.444336 37.589321 
L 198.856911 38.711384 
L 199.269485 38.930369 
L 199.68206 40.100576 
L 200.507208 38.292613 
L 201.332357 38.085518 
L 201.744932 37.83372 
L 202.157506 36.343871 
L 202.570081 36.217526 
L 202.982655 35.346348 
L 203.39523 35.330719 
L 203.807804 34.414103 
L 204.220379 34.414103 
L 204.632953 34.168536 
L 205.045528 31.945017 
L 205.458102 32.198609 
L 205.870676 33.42298 
L 206.695825 33.42298 
L 207.1084 33.297526 
L 207.520974 32.184006 
L 207.933549 32.966831 
L 208.346123 32.842264 
L 208.758698 32.964135 
L 209.171272 33.340501 
L 209.583847 34.184934 
L 209.996421 33.088719 
L 210.408995 33.215965 
L 210.82157 33.720457 
L 211.234144 33.466866 
L 211.646719 33.981347 
L 212.471868 36.331047 
L 213.297017 37.43058 
L 213.709591 36.078963 
L 214.122166 38.773755 
L 214.53474 38.646509 
L 214.947314 39.569395 
L 215.359889 39.696641 
L 215.772463 39.685772 
L 216.185038 39.939478 
L 216.597612 38.734759 
L 217.010187 38.126001 
L 217.422761 41.359335 
L 217.835336 41.738379 
L 218.24791 39.295368 
L 218.660485 40.288603 
L 219.073059 39.966958 
L 219.485634 41.542396 
L 219.898208 41.166031 
L 220.310782 39.489037 
L 220.723357 39.486341 
L 221.135931 39.355455 
L 221.548506 35.262191 
L 221.96108 35.262191 
L 222.373655 35.136748 
L 222.786229 35.40254 
L 223.198804 34.423152 
L 223.611378 33.833988 
L 224.023953 33.833988 
L 224.849101 33.203142 
L 225.261676 33.585788 
L 225.67425 33.459443 
L 226.086825 33.591205 
L 226.499399 33.463056 
L 226.911974 32.831335 
L 227.324548 33.44985 
L 227.737123 32.33633 
L 228.149697 32.466323 
L 228.562272 32.216303 
L 228.974846 32.719914 
L 229.38742 32.587289 
L 229.799995 32.713633 
L 230.212569 32.456417 
L 230.625144 32.581871 
L 231.037718 32.208155 
L 231.450293 31.336049 
L 231.862867 31.336049 
L 232.275442 31.46055 
L 232.688016 31.20696 
L 233.513165 30.326984 
L 233.92574 30.073393 
L 234.750888 30.32611 
L 235.163463 30.32611 
L 235.576037 31.788266 
L 235.988612 32.041856 
L 236.401186 32.163727 
L 236.813761 32.163727 
L 237.63891 32.793683 
L 238.051484 33.549096 
L 238.876633 32.791905 
L 239.289207 32.666475 
L 239.701782 31.204319 
L 240.114356 30.950729 
L 240.526931 30.447118 
L 240.939505 30.700708 
L 241.35208 30.574364 
L 241.764654 30.197998 
L 242.177229 31.826342 
L 244.652675 31.824514 
L 245.06525 31.570923 
L 245.890399 32.323654 
L 246.302973 30.067142 
L 246.715548 30.067142 
L 247.128122 29.939896 
L 247.540697 30.439957 
L 247.953271 30.439957 
L 248.365846 31.726157 
L 248.77842 31.853403 
L 249.190994 31.853403 
L 249.603569 31.728836 
L 250.016143 32.354373 
L 250.841292 33.002577 
L 251.253867 33.002577 
L 251.666441 32.37527 
L 252.079016 33.002577 
L 252.49159 31.716376 
L 253.316739 32.596353 
L 253.729313 34.406475 
L 254.554462 33.390853 
L 254.967037 33.26086 
L 255.379611 33.26086 
L 255.792186 33.639904 
L 256.20476 33.394338 
L 256.617335 33.901521 
L 257.029909 33.39791 
L 257.442484 34.903085 
L 257.855058 33.586024 
L 258.267633 33.082447 
L 258.680207 33.082447 
L 259.505356 33.336038 
L 260.330505 33.086083 
L 260.743079 32.832491 
L 261.155654 33.704596 
L 261.980803 31.714433 
L 262.393377 31.965317 
L 262.805952 31.965317 
L 263.218526 32.218909 
L 263.6311 32.091663 
L 264.456249 31.580834 
L 264.868824 31.841724 
L 265.693973 30.07889 
L 266.106547 30.457934 
L 266.519122 30.07889 
L 266.931696 30.33248 
L 267.344271 29.952543 
L 268.169419 30.710631 
L 268.581994 32.998073 
L 268.994568 32.610839 
L 269.407143 32.989883 
L 269.819717 33.118043 
L 270.232292 32.738999 
L 270.644866 32.738999 
L 271.057441 32.485409 
L 271.470015 32.485409 
L 272.295164 31.72732 
L 272.707739 31.005851 
L 273.120313 31.005851 
L 273.532887 30.880398 
L 273.945462 31.131281 
L 274.358036 31.772077 
L 274.770611 31.899323 
L 275.183185 31.899323 
L 275.59576 31.772077 
L 276.008334 31.900237 
L 276.420909 32.40742 
L 276.833483 30.841447 
L 277.246058 30.714201 
L 278.071206 30.081566 
L 278.483781 29.568017 
L 278.896355 29.440771 
L 279.721504 29.823419 
L 280.546653 29.56712 
L 280.959228 29.56712 
L 281.371802 30.194426 
L 281.784377 30.449829 
L 282.196951 30.449829 
L 282.609525 30.322583 
L 283.0221 30.322583 
L 283.847249 29.939934 
L 284.259823 30.567241 
L 284.672398 30.188197 
L 285.084972 30.188197 
L 285.497547 29.56089 
L 285.910121 29.305488 
L 287.560419 29.305488 
L 287.972993 30.298723 
L 288.385568 29.798663 
L 288.798142 29.925909 
L 289.210717 30.181311 
L 289.623291 30.817547 
L 291.273589 30.817547 
L 291.686164 31.072949 
L 292.098738 30.20696 
L 292.511312 30.079714 
L 292.923887 31.432041 
L 293.336461 31.176639 
L 293.749036 30.668563 
L 294.16161 31.540668 
L 294.574185 31.540668 
L 295.399334 31.922419 
L 296.224483 31.539771 
L 296.637057 34.698458 
L 297.049631 33.476124 
L 297.462206 33.60337 
L 297.87478 35.608045 
L 298.287355 35.367677 
L 299.112504 35.746721 
L 299.937653 36.251196 
L 300.350227 36.251196 
L 300.762802 33.092509 
L 301.175376 33.214314 
L 301.587951 33.087068 
L 302.000525 31.725954 
L 302.413099 32.445834 
L 302.825674 32.319489 
L 304.063397 31.562302 
L 304.475972 31.562302 
L 304.888546 31.817704 
L 305.301121 31.43866 
L 305.713695 31.43866 
L 306.12627 30.666939 
L 306.538844 29.442568 
L 306.951418 29.442568 
L 307.363993 29.315322 
L 307.776567 29.956117 
L 308.189142 29.828871 
L 308.601716 29.828871 
L 309.014291 29.700715 
L 309.426865 29.700715 
L 310.252014 29.956121 
L 310.664589 29.956121 
L 311.077163 29.828875 
L 311.489738 29.828875 
L 311.902312 29.18808 
L 312.314886 29.315326 
L 312.727461 29.822509 
L 313.140035 29.695263 
L 313.55261 29.695263 
L 314.790333 29.312611 
L 315.202908 29.691655 
L 315.615482 29.691655 
L 316.028057 30.070699 
L 316.440631 30.070699 
L 316.853205 29.563516 
L 317.26578 29.563516 
L 317.678354 29.817107 
L 318.503503 29.817107 
L 318.916078 29.944353 
L 319.328652 29.565308 
L 319.741227 29.947049 
L 320.566376 29.568919 
L 321.391524 29.568919 
L 321.804099 29.315328 
L 322.629248 29.315328 
L 323.041822 29.188082 
L 323.454397 29.188082 
L 323.866971 28.806342 
L 324.279546 29.309919 
L 324.69212 29.309919 
L 325.104695 29.437165 
L 325.929844 29.437165 
L 326.342418 30.064472 
L 326.754992 30.9552 
L 327.167567 31.08336 
L 327.992716 31.08336 
L 328.40529 30.451623 
L 329.230439 30.452537 
L 329.643014 30.579783 
L 330.055588 30.579783 
L 330.468163 29.952477 
L 330.880737 29.061748 
L 331.293311 28.933588 
L 331.705886 29.060834 
L 332.943609 29.060834 
L 333.356184 29.436285 
L 334.181333 29.689875 
L 335.419056 29.689875 
L 335.83163 30.328838 
L 336.244205 30.328838 
L 337.069354 30.963284 
L 337.894503 30.333328 
L 338.307077 30.206082 
L 339.544801 30.206082 
L 339.957375 29.439874 
L 340.36995 29.568034 
L 341.607673 28.806342 
L 343.257971 28.806342 
L 343.670545 29.188082 
L 344.08312 29.316243 
L 344.495694 29.188082 
L 346.558566 29.188082 
L 346.971141 29.316243 
L 347.383715 29.316243 
L 347.79629 28.934502 
L 348.208864 28.806342 
L 349.034013 28.806342 
L 349.446588 28.933588 
L 349.859162 28.933588 
L 350.271736 29.060834 
L 350.684311 29.060834 
L 351.096885 29.56891 
L 351.50946 29.56891 
L 351.922034 29.696156 
L 352.334609 29.696156 
L 352.747183 29.823402 
L 353.159758 29.823402 
L 353.572332 29.696156 
L 353.984907 29.824317 
L 354.397481 29.825231 
L 354.810056 29.953391 
L 355.22263 29.317155 
L 355.635204 29.317155 
L 356.047779 29.189909 
L 356.460353 29.189909 
L 356.872928 29.566274 
L 357.698077 29.566274 
L 358.9358 29.181793 
L 359.348375 29.181793 
L 359.760949 29.309039 
L 360.173523 29.309039 
L 360.586098 29.436285 
L 360.998672 28.932674 
L 361.411247 28.932674 
L 361.823821 29.060834 
L 363.474119 29.060834 
L 363.886694 28.933588 
L 364.299268 29.312632 
L 364.711843 29.185386 
L 365.536991 29.185386 
L 365.949566 29.057226 
L 367.187289 29.057226 
L 368.012438 29.312632 
L 368.425013 28.933588 
L 369.662736 28.933588 
L 370.07531 29.060834 
L 370.487885 29.060834 
L 371.725608 29.443482 
L 372.138183 29.315322 
L 372.550757 29.315322 
L 372.963332 29.699799 
L 374.613629 29.699799 
L 375.026204 29.572553 
L 375.438778 30.077044 
L 375.851353 29.821642 
L 376.676502 29.821642 
L 377.089076 29.437165 
L 377.501651 29.564411 
L 377.914225 29.564411 
L 378.3268 29.437165 
L 378.739374 29.437165 
L 379.151949 29.565325 
L 379.564523 28.933588 
L 381.214821 28.933588 
L 381.627395 28.806342 
L 382.03997 28.806342 
L 382.452544 29.063581 
L 383.690268 29.062667 
L 384.102842 29.316257 
L 384.927991 29.316257 
L 385.340565 29.569848 
L 386.165714 29.569848 
L 386.578289 29.312609 
L 387.816012 29.312609 
L 388.228587 29.186264 
L 389.053735 29.186264 
L 389.46631 28.932674 
L 389.878884 29.189913 
L 391.116608 29.189913 
L 391.529182 29.062667 
L 391.941757 29.062667 
L 392.354331 28.935421 
L 393.17948 28.935421 
L 393.592055 29.062667 
L 394.004629 28.805428 
L 395.654927 28.805428 
L 396.480076 29.186264 
L 397.305225 29.186264 
L 397.717799 29.059018 
L 398.542948 29.059018 
L 398.955522 29.187179 
L 399.780671 29.568015 
L 400.193246 29.314425 
L 400.60582 29.314425 
L 401.843544 29.955226 
L 402.668693 29.955226 
L 403.906416 29.573475 
L 404.31899 29.700721 
L 404.731565 29.701636 
L 405.969288 29.060834 
L 407.207012 29.060834 
L 407.619586 28.933588 
L 408.032161 28.933588 
L 408.857309 28.678182 
L 409.269884 28.806342 
L 410.095033 29.440788 
L 410.507607 30.196202 
L 412.157905 30.196202 
L 412.57048 30.323448 
L 412.983054 30.323448 
L 413.395628 30.195288 
L 414.220777 29.560841 
L 414.633352 28.805428 
L 415.045926 28.805428 
L 415.871075 29.060834 
L 416.28365 29.060834 
L 416.696224 28.933588 
L 417.521373 28.933588 
L 417.933948 29.060834 
L 418.759096 29.060834 
L 419.171671 29.18808 
L 419.584245 29.05992 
L 419.99682 29.05992 
L 420.409394 29.187166 
L 420.821969 29.187166 
L 421.234543 29.315326 
L 421.647118 29.315326 
L 422.059692 29.18808 
L 422.472267 29.18808 
L 422.884841 29.315326 
L 423.297415 29.18808 
L 423.70999 29.18808 
L 424.122564 29.060834 
L 424.535139 29.187179 
L 424.947713 29.187179 
L 425.360288 29.059018 
L 426.598011 29.059018 
L 427.010586 28.931772 
L 428.248309 28.931772 
L 428.660883 28.678182 
L 429.073458 28.806342 
L 430.311181 28.806342 
L 430.723756 28.934502 
L 431.13633 29.188093 
L 432.786628 29.188093 
L 433.199202 29.059933 
L 433.611777 29.059933 
L 434.024351 29.441673 
L 434.436926 29.441673 
L 434.8495 29.313512 
L 435.262075 29.059922 
L 436.912373 29.059922 
L 437.324947 29.187168 
L 437.737521 29.187168 
L 438.150096 29.059018 
L 438.56267 29.059018 
L 439.800394 29.693445 
L 441.038117 29.693445 
L 441.450692 29.566199 
L 441.863266 29.566199 
L 442.27584 29.312609 
L 442.688415 29.312609 
L 443.513564 28.931772 
L 443.926138 29.323602 
L 447.639308 29.323602 
L 448.051883 28.678182 
L 448.877032 29.059018 
L 449.702181 29.059018 
L 450.114755 29.312609 
L 450.939904 29.312609 
L 451.352479 29.439855 
L 452.177627 29.439855 
L 453.002776 29.059018 
L 453.827925 29.059018 
L 454.2405 28.805428 
L 455.065649 28.805428 
L 455.478223 28.678182 
L 462.491989 28.678182 
L 462.904563 28.806342 
L 465.792585 28.806342 
L 466.205159 28.934502 
L 466.617733 28.934502 
L 467.030308 28.806342 
L 468.268031 28.806342 
L 468.680606 29.059933 
L 469.505755 29.059933 
L 469.918329 29.315335 
L 470.330904 29.94795 
L 470.743478 30.203352 
L 471.981201 30.203352 
L 472.393776 30.331512 
L 472.80635 30.077922 
L 473.631499 30.077922 
L 474.044074 29.949766 
L 474.456648 29.18899 
L 474.869223 28.933588 
L 476.106946 28.933588 
L 476.51952 28.805428 
L 476.932095 28.805428 
L 477.344669 29.059018 
L 477.757244 29.059018 
L 478.169818 28.931772 
L 478.582393 28.931772 
L 478.994967 29.059018 
L 480.232691 29.059018 
L 480.645265 29.842006 
L 481.057839 29.969252 
L 481.470414 29.715661 
L 482.708137 29.715661 
L 483.120712 29.588415 
L 483.945861 29.588415 
L 484.358435 29.715661 
L 484.77101 29.05992 
L 485.183584 28.932674 
L 486.008733 28.932674 
L 486.421307 29.060834 
L 486.833882 29.060834 
L 487.246456 29.710949 
L 489.309329 29.710949 
L 489.721903 30.466363 
L 490.134478 30.466363 
L 490.547052 30.338202 
L 490.959626 30.338202 
L 491.372201 29.688087 
L 492.19735 29.688087 
L 493.022499 29.433595 
L 493.435073 29.433595 
L 493.847648 28.678182 
L 494.260222 28.678182 
L 494.672797 28.931772 
L 495.085371 29.435383 
L 495.497945 29.562629 
L 496.735669 29.562629 
L 497.148243 29.69079 
L 498.385967 29.69079 
L 498.798541 29.437199 
L 499.211116 28.933588 
L 499.62369 28.806342 
L 500.036265 28.806342 
L 500.448839 29.061744 
L 500.861413 29.061744 
L 501.273988 28.933584 
L 502.924286 28.933584 
L 503.33686 29.06083 
L 504.162009 29.06083 
L 504.574584 28.805428 
L 506.224881 28.805428 
L 506.637456 28.932674 
L 507.05003 28.932674 
L 507.462605 28.805428 
L 509.525477 28.805428 
L 509.938051 28.933588 
L 512.413498 28.934502 
L 513.238647 29.189909 
L 514.476371 29.188994 
L 514.888945 29.060834 
L 516.126668 29.060834 
L 516.539243 29.188994 
L 516.951817 29.061748 
L 517.364392 29.560895 
L 517.776966 29.560895 
L 518.189541 29.687239 
L 520.252413 29.687239 
L 520.664987 29.559079 
L 521.077562 29.559079 
L 521.490136 28.931772 
L 521.902711 28.931772 
L 522.315285 28.678182 
L 522.72786 28.931772 
L 524.790732 28.931772 
L 525.615881 29.187179 
L 526.44103 29.187179 
L 526.853604 28.933588 
L 528.916477 28.933588 
L 529.741625 28.678182 
L 530.1542 29.057226 
L 532.629647 29.057226 
L 533.042221 29.314465 
L 533.86737 29.314465 
L 534.279944 28.935421 
L 534.692519 29.063581 
L 535.517668 29.444418 
L 536.755391 29.444418 
L 537.167966 29.187179 
L 538.405689 29.187179 
L 538.818264 29.059018 
L 539.643412 28.678182 
L 540.055987 28.806342 
L 541.706285 28.806342 
L 542.118859 28.933588 
L 543.769157 28.933588 
L 544.181731 28.805428 
L 544.594306 28.805428 
L 545.00688 28.932674 
L 545.832029 28.932674 
L 546.244604 28.805428 
L 546.657178 29.059018 
L 548.72005 29.059018 
L 549.132625 28.931772 
L 550.370348 28.931772 
L 550.782923 28.678182 
L 551.608072 29.189011 
L 552.020646 29.189011 
L 552.433221 29.444414 
L 554.908667 29.444414 
L 555.733816 28.933584 
L 556.146391 28.933584 
L 556.558965 28.678182 
L 562.747582 28.678182 
L 563.160156 28.931772 
L 564.810454 28.931772 
L 565.223029 29.059933 
L 565.635603 29.059933 
L 566.048178 29.313523 
L 566.873327 29.313523 
L 567.285901 29.059933 
L 568.11105 29.059933 
L 568.523624 29.188093 
L 568.936199 29.188093 
L 569.348773 29.059933 
L 569.761348 29.059933 
L 570.173922 28.806342 
L 572.236795 28.806342 
L 572.649369 28.678182 
L 575.53739 28.678182 
L 576.362539 28.932674 
L 579.663135 28.932674 
L 580.488284 28.678182 
L 581.313433 28.678182 
L 581.726007 28.933584 
L 582.138582 28.933584 
L 582.551156 29.06083 
L 582.96373 29.06083 
L 583.376305 29.188076 
L 585.439177 29.188076 
L 585.851752 28.932674 
L 586.264326 28.932674 
L 586.676901 28.805428 
L 587.089475 28.805428 
L 587.502049 28.678182 
L 589.977496 28.678182 
L 590.390071 28.806342 
L 592.040369 28.806342 
L 592.452943 28.934502 
L 593.690666 28.934502 
L 594.103241 29.188093 
L 594.515815 29.059933 
L 596.166113 29.059933 
L 596.578688 28.931772 
L 597.816411 28.931772 
L 598.228985 28.678182 
L 598.64156 28.806342 
L 599.054134 28.806342 
L 599.466709 29.188082 
L 599.879283 29.188082 
L 600.291858 29.315328 
L 601.942155 29.315328 
L 602.35473 29.442574 
L 602.767304 29.314414 
L 603.179879 29.314414 
L 603.592453 28.932674 
L 604.005028 28.932674 
L 604.417602 28.805428 
L 606.0679 28.805428 
L 606.480475 28.678182 
L 609.368496 28.678182 
L 609.78107 28.931772 
L 613.081666 28.931772 
L 613.49424 29.189011 
L 613.906815 28.935421 
L 617.20741 28.935421 
L 617.619985 28.678182 
L 631.647516 28.678182 
L 632.060091 28.805428 
L 635.773261 28.805428 
L 636.185835 28.678182 
L 641.136729 28.678182 
L 641.549303 28.806342 
L 645.262473 28.806342 
L 645.675048 28.935421 
L 648.150495 28.935421 
L 648.563069 29.314465 
L 649.388218 29.314465 
L 649.800793 29.184472 
L 652.276239 29.184472 
L 652.688814 28.805428 
L 653.513963 28.805428 
L 653.926537 28.678182 
L 654.751686 28.678182 
L 655.16426 28.806342 
L 658.877431 28.806342 
L 659.290005 28.678182 
L 666.303771 28.678182 
L 666.716345 28.935421 
L 667.12892 28.935421 
L 667.541494 29.062667 
L 668.779218 29.062667 
L 669.191792 29.190827 
L 669.604366 29.190827 
L 670.016941 29.318073 
L 670.429515 29.318073 
L 670.84209 29.060834 
L 671.254664 29.060834 
L 671.667239 28.933588 
L 672.904962 28.933588 
L 673.317537 28.805428 
L 673.730111 28.805428 
L 674.142686 28.678182 
L 675.380409 28.678182 
L 675.792983 28.806342 
L 679.506153 28.806342 
L 679.918728 28.678182 
L 698.484578 28.678182 
L 698.897153 28.805428 
L 702.610323 28.805428 
L 703.022898 28.678182 
L 710.036663 28.678182 
L 710.449238 28.806342 
L 713.337259 28.806342 
L 713.749833 28.933588 
L 714.162408 28.933588 
L 714.574982 28.805428 
L 717.463004 28.805428 
L 717.875578 28.678182 
L 719.113301 28.678182 
L 719.525876 29.057226 
L 719.93845 29.185386 
L 722.001323 29.185386 
L 722.413897 29.313547 
L 723.239046 29.313547 
L 724.064195 28.933588 
L 724.889344 28.933588 
L 725.301918 29.060834 
L 725.714493 29.060834 
L 726.127067 29.18808 
L 726.539642 29.05992 
L 727.364791 29.05992 
L 727.777365 28.932674 
L 728.189939 29.186264 
L 729.015088 29.186264 
L 729.427663 29.059018 
L 731.90311 29.059933 
L 732.315684 28.806342 
L 733.965982 28.806342 
L 734.378556 28.678182 
L 735.61628 28.678182 
L 736.028854 28.805428 
L 739.742024 28.805428 
L 740.154599 28.678182 
L 755.419854 28.678182 
L 755.832428 28.806342 
L 759.545598 28.806342 
L 759.958173 28.678182 
L 779.349172 28.678182 
L 779.761747 28.806342 
L 783.474917 28.806342 
L 783.887491 28.678182 
L 795.85215 28.678182 
L 796.264725 28.806342 
L 799.977895 28.806342 
L 800.803044 29.06083 
L 804.10364 29.06083 
L 804.928788 28.678182 
L 805.753937 28.678182 
L 806.166512 28.805428 
L 807.404235 28.805428 
L 807.81681 29.059018 
L 809.467108 29.059018 
L 809.879682 29.187179 
L 810.292256 29.059933 
L 811.52998 29.059933 
L 811.942554 28.806342 
L 815.655724 28.806342 
L 816.068299 28.934502 
L 817.718597 28.934502 
L 818.131171 28.806342 
L 819.781469 28.806342 
L 820.194043 28.678182 
L 828.858107 28.678182 
L 829.270681 28.935421 
L 835.871873 28.933584 
L 836.284447 29.061744 
L 837.109596 29.061744 
L 837.522171 28.806342 
L 839.997617 28.806342 
L 840.410192 28.678182 
L 841.235341 28.932674 
L 842.473064 28.932674 
L 842.885639 29.05992 
L 844.535936 29.05992 
L 845.361085 28.805428 
L 846.598809 28.805428 
L 847.011383 28.678182 
L 852.787426 28.678182 
L 852.787426 28.678182 
" clip-path="url(#pff20f2edea)" style="fill: none; stroke-dasharray: 7.4,3.2; stroke-dashoffset: 0; stroke: #000000; stroke-width: 2"/>
   </g>
   <g id="patch_3">
    <path d="M 35.89 404.12 
L 35.89 10.8 
" style="fill: none; stroke: #000000; stroke-width: 0.8; stroke-linejoin: miter; stroke-linecap: square"/>
   </g>
   <g id="patch_4">
    <path d="M 853.2 404.12 
L 853.2 10.8 
" style="fill: none; stroke: #000000; stroke-width: 0.8; stroke-linejoin: miter; stroke-linecap: square"/>
   </g>
   <g id="patch_5">
    <path d="M 35.89 404.12 
L 853.2 404.12 
" style="fill: none; stroke: #000000; stroke-width: 0.8; stroke-linejoin: miter; stroke-linecap: square"/>
   </g>
   <g id="patch_6">
    <path d="M 35.89 10.8 
L 853.2 10.8 
" style="fill: none; stroke: #000000; stroke-width: 0.8; stroke-linejoin: miter; stroke-linecap: square"/>
   </g>
  </g>
 </g>
 <defs>
  <clipPath id="pff20f2edea">
   <rect x="35.89" y="10.8" width="817.31" height="393.32"/>
  </clipPath>
 </defs>
</svg>
