<?xml version="1.0" encoding="utf-8" ?>
<svg baseProfile="full" preserveAspectRatio="xMidYMid meet" version="1.1" viewBox="0,0,60.0,20.0" xmlns="http://www.w3.org/2000/svg" xmlns:ev="http://www.w3.org/2001/xml-events" xmlns:xlink="http://www.w3.org/1999/xlink"><defs><style type="text/css"><![CDATA[
            * {
                stroke: black;
                stroke-width: 0.1;
            }
        ]]></style></defs><g transform="translate(4.0,4.0)"><rect height="0.0" width="0.0" x="0.0" y="0.0" /><rect height="0.132" width="0.132" x="-0.066" y="0.9339999999999999" /><rect height="0.0" width="0.0" x="0.0" y="2.0" /><rect height="0.132" width="0.132" x="-0.066" y="2.934" /><rect height="0.0" width="0.0" x="0.0" y="4.0" /><rect height="0.132" width="0.132" x="-0.066" y="4.934" /><rect height="0.0" width="0.0" x="0.0" y="6.0" /><rect height="0.132" width="0.132" x="-0.066" y="6.934" /><rect height="0.0" width="0.0" x="0.0" y="8.0" /><rect height="0.132" width="0.132" x="-0.066" y="8.934" /><rect height="0.0" width="0.0" x="0.0" y="10.0" /><rect height="0.132" width="0.132" x="-0.066" y="10.934" /><rect height="0.0" width="0.0" x="0.0" y="12.0" /><rect height="0.132" width="0.132" x="0.9339999999999999" y="-0.066" /><rect height="0.0" width="0.0" x="1.0" y="1.0" /><rect height="0.132" width="0.132" x="0.9339999999999999" y="1.934" /><rect height="0.0" width="0.0" x="1.0" y="3.0" /><rect height="0.132" width="0.132" x="0.9339999999999999" y="3.934" /><rect height="0.0" width="0.0" x="1.0" y="5.0" /><rect height="0.132" width="0.132" x="0.9339999999999999" y="5.934" /><rect height="0.0" width="0.0" x="1.0" y="7.0" /><rect height="0.132" width="0.132" x="0.9339999999999999" y="7.934" /><rect height="0.0" width="0.0" x="1.0" y="9.0" /><rect height="0.132" width="0.132" x="0.9339999999999999" y="9.934" /><rect height="0.0" width="0.0" x="1.0" y="11.0" /><rect height="0.132" width="0.132" x="0.9339999999999999" y="11.934" /><rect height="0.0" width="0.0" x="2.0" y="0.0" /><rect height="0.132" width="0.132" x="1.934" y="0.9339999999999999" /><rect height="0.0" width="0.0" x="2.0" y="2.0" /><rect height="0.132" width="0.132" x="1.934" y="2.934" /><rect height="0.0" width="0.0" x="2.0" y="4.0" /><rect height="0.132" width="0.132" x="1.934" y="4.934" /><rect height="0.0" width="0.0" x="2.0" y="6.0" /><rect height="0.132" width="0.132" x="1.934" y="6.934" /><rect height="0.0" width="0.0" x="2.0" y="8.0" /><rect height="0.132" width="0.132" x="1.934" y="8.934" /><rect height="0.0" width="0.0" x="2.0" y="10.0" /><rect height="0.132" width="0.132" x="1.934" y="10.934" /><rect height="0.0" width="0.0" x="2.0" y="12.0" /><rect height="0.132" width="0.132" x="2.934" y="-0.066" /><rect height="0.0" width="0.0" x="3.0" y="1.0" /><rect height="0.132" width="0.132" x="2.934" y="1.934" /><rect height="0.0" width="0.0" x="3.0" y="3.0" /><rect height="0.132" width="0.132" x="2.934" y="3.934" /><rect height="0.0" width="0.0" x="3.0" y="5.0" /><rect height="0.132" width="0.132" x="2.934" y="5.934" /><rect height="0.0" width="0.0" x="3.0" y="7.0" /><rect height="0.132" width="0.132" x="2.934" y="7.934" /><rect height="0.0" width="0.0" x="3.0" y="9.0" /><rect height="0.132" width="0.132" x="2.934" y="9.934" /><rect height="0.0" width="0.0" x="3.0" y="11.0" /><rect height="0.132" width="0.132" x="2.934" y="11.934" /><rect height="0.0" width="0.0" x="4.0" y="0.0" /><rect height="0.132" width="0.132" x="3.934" y="0.9339999999999999" /><rect height="0.0" width="0.0" x="4.0" y="2.0" /><rect height="0.132" width="0.132" x="3.934" y="2.934" /><rect height="0.0" width="0.0" x="4.0" y="4.0" /><rect height="0.132" width="0.132" x="3.934" y="4.934" /><rect height="0.0" width="0.0" x="4.0" y="6.0" /><rect height="0.132" width="0.132" x="3.934" y="6.934" /><rect height="0.0" width="0.0" x="4.0" y="8.0" /><rect height="0.132" width="0.132" x="3.934" y="8.934" /><rect height="0.0" width="0.0" x="4.0" y="10.0" /><rect height="0.132" width="0.132" x="3.934" y="10.934" /><rect height="0.0" width="0.0" x="4.0" y="12.0" /><rect height="0.132" width="0.132" x="4.934" y="-0.066" /><rect height="0.0" width="0.0" x="5.0" y="1.0" /><rect height="0.132" width="0.132" x="4.934" y="1.934" /><rect height="0.0" width="0.0" x="5.0" y="3.0" /><rect height="0.132" width="0.132" x="4.934" y="3.934" /><rect height="0.0" width="0.0" x="5.0" y="5.0" /><rect height="0.132" width="0.132" x="4.934" y="5.934" /><rect height="0.0" width="0.0" x="5.0" y="7.0" /><rect height="0.132" width="0.132" x="4.934" y="7.934" /><rect height="0.0" width="0.0" x="5.0" y="9.0" /><rect height="0.132" width="0.132" x="4.934" y="9.934" /><rect height="0.0" width="0.0" x="5.0" y="11.0" /><rect height="0.132" width="0.132" x="4.934" y="11.934" /><rect height="0.0" width="0.0" x="6.0" y="0.0" /><rect height="0.132" width="0.132" x="5.934" y="0.9339999999999999" /><rect height="0.0" width="0.0" x="6.0" y="2.0" /><rect height="0.132" width="0.132" x="5.934" y="2.934" /><rect height="0.0" width="0.0" x="6.0" y="4.0" /><rect height="0.132" width="0.132" x="5.934" y="4.934" /><rect height="0.0" width="0.0" x="6.0" y="6.0" /><rect height="0.132" width="0.132" x="5.934" y="6.934" /><rect height="0.0" width="0.0" x="6.0" y="8.0" /><rect height="0.132" width="0.132" x="5.934" y="8.934" /><rect height="0.0" width="0.0" x="6.0" y="10.0" /><rect height="0.132" width="0.132" x="5.934" y="10.934" /><rect height="0.0" width="0.0" x="6.0" y="12.0" /><rect height="0.132" width="0.132" x="6.934" y="-0.066" /><rect height="0.0" width="0.0" x="7.0" y="1.0" /><rect height="0.132" width="0.132" x="6.934" y="1.934" /><rect height="0.0" width="0.0" x="7.0" y="3.0" /><rect height="0.132" width="0.132" x="6.934" y="3.934" /><rect height="0.0" width="0.0" x="7.0" y="5.0" /><rect height="0.132" width="0.132" x="6.934" y="5.934" /><rect height="0.0" width="0.0" x="7.0" y="7.0" /><rect height="0.132" width="0.132" x="6.934" y="7.934" /><rect height="0.0" width="0.0" x="7.0" y="9.0" /><rect height="0.132" width="0.132" x="6.934" y="9.934" /><rect height="0.0" width="0.0" x="7.0" y="11.0" /><rect height="0.132" width="0.132" x="6.934" y="11.934" /><rect height="0.0" width="0.0" x="8.0" y="0.0" /><rect height="0.132" width="0.132" x="7.934" y="0.9339999999999999" /><rect height="0.0" width="0.0" x="8.0" y="2.0" /><rect height="0.132" width="0.132" x="7.934" y="2.934" /><rect height="0.0" width="0.0" x="8.0" y="4.0" /><rect height="0.132" width="0.132" x="7.934" y="4.934" /><rect height="0.0" width="0.0" x="8.0" y="6.0" /><rect height="0.132" width="0.132" x="7.934" y="6.934" /><rect height="0.0" width="0.0" x="8.0" y="8.0" /><rect height="0.132" width="0.132" x="7.934" y="8.934" /><rect height="0.0" width="0.0" x="8.0" y="10.0" /><rect height="0.132" width="0.132" x="7.934" y="10.934" /><rect height="0.0" width="0.0" x="8.0" y="12.0" /><rect height="0.132" width="0.132" x="8.934" y="-0.066" /><rect height="0.0" width="0.0" x="9.0" y="1.0" /><rect height="0.132" width="0.132" x="8.934" y="1.934" /><rect height="0.0" width="0.0" x="9.0" y="3.0" /><rect height="0.132" width="0.132" x="8.934" y="3.934" /><rect height="0.0" width="0.0" x="9.0" y="5.0" /><rect height="0.132" width="0.132" x="8.934" y="5.934" /><rect height="0.0" width="0.0" x="9.0" y="7.0" /><rect height="0.132" width="0.132" x="8.934" y="7.934" /><rect height="0.0" width="0.0" x="9.0" y="9.0" /><rect height="0.132" width="0.132" x="8.934" y="9.934" /><rect height="0.0" width="0.0" x="9.0" y="11.0" /><rect height="0.132" width="0.132" x="8.934" y="11.934" /><rect height="0.0" width="0.0" x="10.0" y="0.0" /><rect height="0.132" width="0.132" x="9.934" y="0.9339999999999999" /><rect height="0.0" width="0.0" x="10.0" y="2.0" /><rect height="0.132" width="0.132" x="9.934" y="2.934" /><rect height="0.0" width="0.0" x="10.0" y="4.0" /><rect height="0.132" width="0.132" x="9.934" y="4.934" /><rect height="0.0" width="0.0" x="10.0" y="6.0" /><rect height="0.132" width="0.132" x="9.934" y="6.934" /><rect height="0.0" width="0.0" x="10.0" y="8.0" /><rect height="0.132" width="0.132" x="9.934" y="8.934" /><rect height="0.0" width="0.0" x="10.0" y="10.0" /><rect height="0.132" width="0.132" x="9.934" y="10.934" /><rect height="0.0" width="0.0" x="10.0" y="12.0" /><rect height="0.132" width="0.132" x="10.934" y="-0.066" /><rect height="0.0" width="0.0" x="11.0" y="1.0" /><rect height="0.132" width="0.132" x="10.934" y="1.934" /><rect height="0.0" width="0.0" x="11.0" y="3.0" /><rect height="0.132" width="0.132" x="10.934" y="3.934" /><rect height="0.0" width="0.0" x="11.0" y="5.0" /><rect height="0.132" width="0.132" x="10.934" y="5.934" /><rect height="0.0" width="0.0" x="11.0" y="7.0" /><rect height="0.132" width="0.132" x="10.934" y="7.934" /><rect height="0.0" width="0.0" x="11.0" y="9.0" /><rect height="0.132" width="0.132" x="10.934" y="9.934" /><rect height="0.0" width="0.0" x="11.0" y="11.0" /><rect height="0.132" width="0.132" x="10.934" y="11.934" /><rect height="0.0" width="0.0" x="12.0" y="0.0" /><rect height="0.132" width="0.132" x="11.934" y="0.9339999999999999" /><rect height="0.0" width="0.0" x="12.0" y="2.0" /><rect height="0.132" width="0.132" x="11.934" y="2.934" /><rect height="0.0" width="0.0" x="12.0" y="4.0" /><rect height="0.132" width="0.132" x="11.934" y="4.934" /><rect height="0.0" width="0.0" x="12.0" y="6.0" /><rect height="0.132" width="0.132" x="11.934" y="6.934" /><rect height="0.0" width="0.0" x="12.0" y="8.0" /><rect height="0.132" width="0.132" x="11.934" y="8.934" /><rect height="0.0" width="0.0" x="12.0" y="10.0" /><rect height="0.132" width="0.132" x="11.934" y="10.934" /><rect height="0.0" width="0.0" x="12.0" y="12.0" /><line x1="0" x2="0" y1="-0.7" y2="-1" /><line x1="0" x2="0" y1="12.7" y2="13" /><line x1="-0.7" x2="-1" y1="0" y2="0" /><line x1="12.7" x2="13" y1="0" y2="0" /><line x1="1" x2="1" y1="-0.7" y2="-1" /><line x1="1" x2="1" y1="12.7" y2="13" /><line x1="-0.7" x2="-1" y1="1" y2="1" /><line x1="12.7" x2="13" y1="1" y2="1" /><line x1="2" x2="2" y1="-0.7" y2="-1" /><line x1="2" x2="2" y1="12.7" y2="13" /><line x1="-0.7" x2="-1" y1="2" y2="2" /><line x1="12.7" x2="13" y1="2" y2="2" /><line x1="3" x2="3" y1="-0.7" y2="-1" /><line x1="3" x2="3" y1="12.7" y2="13" /><line x1="-0.7" x2="-1" y1="3" y2="3" /><line x1="12.7" x2="13" y1="3" y2="3" /><line x1="4" x2="4" y1="-0.7" y2="-1" /><line x1="4" x2="4" y1="12.7" y2="13" /><line x1="-0.7" x2="-1" y1="4" y2="4" /><line x1="12.7" x2="13" y1="4" y2="4" /><line x1="5" x2="5" y1="-0.7" y2="-1" /><line x1="5" x2="5" y1="12.7" y2="13" /><line x1="-0.7" x2="-1" y1="5" y2="5" /><line x1="12.7" x2="13" y1="5" y2="5" /><line x1="6" x2="6" y1="-0.7" y2="-1" /><line x1="6" x2="6" y1="12.7" y2="13" /><line x1="-0.7" x2="-1" y1="6" y2="6" /><line x1="12.7" x2="13" y1="6" y2="6" /><line x1="7" x2="7" y1="-0.7" y2="-1" /><line x1="7" x2="7" y1="12.7" y2="13" /><line x1="-0.7" x2="-1" y1="7" y2="7" /><line x1="12.7" x2="13" y1="7" y2="7" /><line x1="8" x2="8" y1="-0.7" y2="-1" /><line x1="8" x2="8" y1="12.7" y2="13" /><line x1="-0.7" x2="-1" y1="8" y2="8" /><line x1="12.7" x2="13" y1="8" y2="8" /><line x1="9" x2="9" y1="-0.7" y2="-1" /><line x1="9" x2="9" y1="12.7" y2="13" /><line x1="-0.7" x2="-1" y1="9" y2="9" /><line x1="12.7" x2="13" y1="9" y2="9" /><line x1="10" x2="10" y1="-0.7" y2="-1" /><line x1="10" x2="10" y1="12.7" y2="13" /><line x1="-0.7" x2="-1" y1="10" y2="10" /><line x1="12.7" x2="13" y1="10" y2="10" /><line x1="11" x2="11" y1="-0.7" y2="-1" /><line x1="11" x2="11" y1="12.7" y2="13" /><line x1="-0.7" x2="-1" y1="11" y2="11" /><line x1="12.7" x2="13" y1="11" y2="11" /><line x1="12" x2="12" y1="-0.7" y2="-1" /><line x1="12" x2="12" y1="12.7" y2="13" /><line x1="-0.7" x2="-1" y1="12" y2="12" /><line x1="12.7" x2="13" y1="12" y2="12" /></g><g transform="translate(24.0,4.0)"><rect height="0.0" width="0.0" x="0.0" y="0.0" /><rect height="0.132" width="0.132" x="-0.066" y="0.9339999999999999" /><rect height="0.187" width="0.187" x="-0.0935" y="1.9065" /><rect height="0.229" width="0.229" x="-0.1145" y="2.8855" /><rect height="0.264" width="0.264" x="-0.132" y="3.868" /><rect height="0.0" width="0.0" x="0.0" y="5.0" /><rect height="0.132" width="0.132" x="-0.066" y="5.934" /><rect height="0.187" width="0.187" x="-0.0935" y="6.9065" /><rect height="0.229" width="0.229" x="-0.1145" y="7.8855" /><rect height="0.264" width="0.264" x="-0.132" y="8.868" /><rect height="0.0" width="0.0" x="0.0" y="10.0" /><rect height="0.132" width="0.132" x="-0.066" y="10.934" /><rect height="0.187" width="0.187" x="-0.0935" y="11.9065" /><rect height="0.229" width="0.229" x="0.8855" y="-0.1145" /><rect height="0.264" width="0.264" x="0.868" y="0.868" /><rect height="0.0" width="0.0" x="1.0" y="2.0" /><rect height="0.132" width="0.132" x="0.9339999999999999" y="2.934" /><rect height="0.187" width="0.187" x="0.9065" y="3.9065" /><rect height="0.229" width="0.229" x="0.8855" y="4.8855" /><rect height="0.264" width="0.264" x="0.868" y="5.868" /><rect height="0.0" width="0.0" x="1.0" y="7.0" /><rect height="0.132" width="0.132" x="0.9339999999999999" y="7.934" /><rect height="0.187" width="0.187" x="0.9065" y="8.9065" /><rect height="0.229" width="0.229" x="0.8855" y="9.8855" /><rect height="0.264" width="0.264" x="0.868" y="10.868" /><rect height="0.0" width="0.0" x="1.0" y="12.0" /><rect height="0.132" width="0.132" x="1.934" y="-0.066" /><rect height="0.187" width="0.187" x="1.9065" y="0.9065" /><rect height="0.229" width="0.229" x="1.8855" y="1.8855" /><rect height="0.264" width="0.264" x="1.8679999999999999" y="2.868" /><rect height="0.0" width="0.0" x="2.0" y="4.0" /><rect height="0.132" width="0.132" x="1.934" y="4.934" /><rect height="0.187" width="0.187" x="1.9065" y="5.9065" /><rect height="0.229" width="0.229" x="1.8855" y="6.8855" /><rect height="0.264" width="0.264" x="1.8679999999999999" y="7.868" /><rect height="0.0" width="0.0" x="2.0" y="9.0" /><rect height="0.132" width="0.132" x="1.934" y="9.934" /><rect height="0.187" width="0.187" x="1.9065" y="10.9065" /><rect height="0.229" width="0.229" x="1.8855" y="11.8855" /><rect height="0.264" width="0.264" x="2.868" y="-0.132" /><rect height="0.0" width="0.0" x="3.0" y="1.0" /><rect height="0.132" width="0.132" x="2.934" y="1.934" /><rect height="0.187" width="0.187" x="2.9065" y="2.9065" /><rect height="0.229" width="0.229" x="2.8855" y="3.8855" /><rect height="0.264" width="0.264" x="2.868" y="4.868" /><rect height="0.0" width="0.0" x="3.0" y="6.0" /><rect height="0.132" width="0.132" x="2.934" y="6.934" /><rect height="0.187" width="0.187" x="2.9065" y="7.9065" /><rect height="0.229" width="0.229" x="2.8855" y="8.8855" /><rect height="0.264" width="0.264" x="2.868" y="9.868" /><rect height="0.0" width="0.0" x="3.0" y="11.0" /><rect height="0.132" width="0.132" x="2.934" y="11.934" /><rect height="0.187" width="0.187" x="3.9065" y="-0.0935" /><rect height="0.229" width="0.229" x="3.8855" y="0.8855" /><rect height="0.264" width="0.264" x="3.868" y="1.8679999999999999" /><rect height="0.0" width="0.0" x="4.0" y="3.0" /><rect height="0.132" width="0.132" x="3.934" y="3.934" /><rect height="0.187" width="0.187" x="3.9065" y="4.9065" /><rect height="0.229" width="0.229" x="3.8855" y="5.8855" /><rect height="0.264" width="0.264" x="3.868" y="6.868" /><rect height="0.0" width="0.0" x="4.0" y="8.0" /><rect height="0.132" width="0.132" x="3.934" y="8.934" /><rect height="0.187" width="0.187" x="3.9065" y="9.9065" /><rect height="0.229" width="0.229" x="3.8855" y="10.8855" /><rect height="0.264" width="0.264" x="3.868" y="11.868" /><rect height="0.0" width="0.0" x="5.0" y="0.0" /><rect height="0.132" width="0.132" x="4.934" y="0.9339999999999999" /><rect height="0.187" width="0.187" x="4.9065" y="1.9065" /><rect height="0.229" width="0.229" x="4.8855" y="2.8855" /><rect height="0.264" width="0.264" x="4.868" y="3.868" /><rect height="0.0" width="0.0" x="5.0" y="5.0" /><rect height="0.132" width="0.132" x="4.934" y="5.934" /><rect height="0.187" width="0.187" x="4.9065" y="6.9065" /><rect height="0.229" width="0.229" x="4.8855" y="7.8855" /><rect height="0.264" width="0.264" x="4.868" y="8.868" /><rect height="0.0" width="0.0" x="5.0" y="10.0" /><rect height="0.132" width="0.132" x="4.934" y="10.934" /><rect height="0.187" width="0.187" x="4.9065" y="11.9065" /><rect height="0.229" width="0.229" x="5.8855" y="-0.1145" /><rect height="0.264" width="0.264" x="5.868" y="0.868" /><rect height="0.0" width="0.0" x="6.0" y="2.0" /><rect height="0.132" width="0.132" x="5.934" y="2.934" /><rect height="0.187" width="0.187" x="5.9065" y="3.9065" /><rect height="0.229" width="0.229" x="5.8855" y="4.8855" /><rect height="0.264" width="0.264" x="5.868" y="5.868" /><rect height="0.0" width="0.0" x="6.0" y="7.0" /><rect height="0.132" width="0.132" x="5.934" y="7.934" /><rect height="0.187" width="0.187" x="5.9065" y="8.9065" /><rect height="0.229" width="0.229" x="5.8855" y="9.8855" /><rect height="0.264" width="0.264" x="5.868" y="10.868" /><rect height="0.0" width="0.0" x="6.0" y="12.0" /><rect height="0.132" width="0.132" x="6.934" y="-0.066" /><rect height="0.187" width="0.187" x="6.9065" y="0.9065" /><rect height="0.229" width="0.229" x="6.8855" y="1.8855" /><rect height="0.264" width="0.264" x="6.868" y="2.868" /><rect height="0.0" width="0.0" x="7.0" y="4.0" /><rect height="0.132" width="0.132" x="6.934" y="4.934" /><rect height="0.187" width="0.187" x="6.9065" y="5.9065" /><rect height="0.229" width="0.229" x="6.8855" y="6.8855" /><rect height="0.264" width="0.264" x="6.868" y="7.868" /><rect height="0.0" width="0.0" x="7.0" y="9.0" /><rect height="0.132" width="0.132" x="6.934" y="9.934" /><rect height="0.187" width="0.187" x="6.9065" y="10.9065" /><rect height="0.229" width="0.229" x="6.8855" y="11.8855" /><rect height="0.264" width="0.264" x="7.868" y="-0.132" /><rect height="0.0" width="0.0" x="8.0" y="1.0" /><rect height="0.132" width="0.132" x="7.934" y="1.934" /><rect height="0.187" width="0.187" x="7.9065" y="2.9065" /><rect height="0.229" width="0.229" x="7.8855" y="3.8855" /><rect height="0.264" width="0.264" x="7.868" y="4.868" /><rect height="0.0" width="0.0" x="8.0" y="6.0" /><rect height="0.132" width="0.132" x="7.934" y="6.934" /><rect height="0.187" width="0.187" x="7.9065" y="7.9065" /><rect height="0.229" width="0.229" x="7.8855" y="8.8855" /><rect height="0.264" width="0.264" x="7.868" y="9.868" /><rect height="0.0" width="0.0" x="8.0" y="11.0" /><rect height="0.132" width="0.132" x="7.934" y="11.934" /><rect height="0.187" width="0.187" x="8.9065" y="-0.0935" /><rect height="0.229" width="0.229" x="8.8855" y="0.8855" /><rect height="0.264" width="0.264" x="8.868" y="1.8679999999999999" /><rect height="0.0" width="0.0" x="9.0" y="3.0" /><rect height="0.132" width="0.132" x="8.934" y="3.934" /><rect height="0.187" width="0.187" x="8.9065" y="4.9065" /><rect height="0.229" width="0.229" x="8.8855" y="5.8855" /><rect height="0.264" width="0.264" x="8.868" y="6.868" /><rect height="0.0" width="0.0" x="9.0" y="8.0" /><rect height="0.132" width="0.132" x="8.934" y="8.934" /><rect height="0.187" width="0.187" x="8.9065" y="9.9065" /><rect height="0.229" width="0.229" x="8.8855" y="10.8855" /><rect height="0.264" width="0.264" x="8.868" y="11.868" /><rect height="0.0" width="0.0" x="10.0" y="0.0" /><rect height="0.132" width="0.132" x="9.934" y="0.9339999999999999" /><rect height="0.187" width="0.187" x="9.9065" y="1.9065" /><rect height="0.229" width="0.229" x="9.8855" y="2.8855" /><rect height="0.264" width="0.264" x="9.868" y="3.868" /><rect height="0.0" width="0.0" x="10.0" y="5.0" /><rect height="0.132" width="0.132" x="9.934" y="5.934" /><rect height="0.187" width="0.187" x="9.9065" y="6.9065" /><rect height="0.229" width="0.229" x="9.8855" y="7.8855" /><rect height="0.264" width="0.264" x="9.868" y="8.868" /><rect height="0.0" width="0.0" x="10.0" y="10.0" /><rect height="0.132" width="0.132" x="9.934" y="10.934" /><rect height="0.187" width="0.187" x="9.9065" y="11.9065" /><rect height="0.229" width="0.229" x="10.8855" y="-0.1145" /><rect height="0.264" width="0.264" x="10.868" y="0.868" /><rect height="0.0" width="0.0" x="11.0" y="2.0" /><rect height="0.132" width="0.132" x="10.934" y="2.934" /><rect height="0.187" width="0.187" x="10.9065" y="3.9065" /><rect height="0.229" width="0.229" x="10.8855" y="4.8855" /><rect height="0.264" width="0.264" x="10.868" y="5.868" /><rect height="0.0" width="0.0" x="11.0" y="7.0" /><rect height="0.132" width="0.132" x="10.934" y="7.934" /><rect height="0.187" width="0.187" x="10.9065" y="8.9065" /><rect height="0.229" width="0.229" x="10.8855" y="9.8855" /><rect height="0.264" width="0.264" x="10.868" y="10.868" /><rect height="0.0" width="0.0" x="11.0" y="12.0" /><rect height="0.132" width="0.132" x="11.934" y="-0.066" /><rect height="0.187" width="0.187" x="11.9065" y="0.9065" /><rect height="0.229" width="0.229" x="11.8855" y="1.8855" /><rect height="0.264" width="0.264" x="11.868" y="2.868" /><rect height="0.0" width="0.0" x="12.0" y="4.0" /><rect height="0.132" width="0.132" x="11.934" y="4.934" /><rect height="0.187" width="0.187" x="11.9065" y="5.9065" /><rect height="0.229" width="0.229" x="11.8855" y="6.8855" /><rect height="0.264" width="0.264" x="11.868" y="7.868" /><rect height="0.0" width="0.0" x="12.0" y="9.0" /><rect height="0.132" width="0.132" x="11.934" y="9.934" /><rect height="0.187" width="0.187" x="11.9065" y="10.9065" /><rect height="0.229" width="0.229" x="11.8855" y="11.8855" /><line x1="0" x2="0" y1="-0.7" y2="-1" /><line x1="0" x2="0" y1="12.7" y2="13" /><line x1="-0.7" x2="-1" y1="0" y2="0" /><line x1="12.7" x2="13" y1="0" y2="0" /><line x1="1" x2="1" y1="-0.7" y2="-1" /><line x1="1" x2="1" y1="12.7" y2="13" /><line x1="-0.7" x2="-1" y1="1" y2="1" /><line x1="12.7" x2="13" y1="1" y2="1" /><line x1="2" x2="2" y1="-0.7" y2="-1" /><line x1="2" x2="2" y1="12.7" y2="13" /><line x1="-0.7" x2="-1" y1="2" y2="2" /><line x1="12.7" x2="13" y1="2" y2="2" /><line x1="3" x2="3" y1="-0.7" y2="-1" /><line x1="3" x2="3" y1="12.7" y2="13" /><line x1="-0.7" x2="-1" y1="3" y2="3" /><line x1="12.7" x2="13" y1="3" y2="3" /><line x1="4" x2="4" y1="-0.7" y2="-1" /><line x1="4" x2="4" y1="12.7" y2="13" /><line x1="-0.7" x2="-1" y1="4" y2="4" /><line x1="12.7" x2="13" y1="4" y2="4" /><line x1="5" x2="5" y1="-0.7" y2="-1" /><line x1="5" x2="5" y1="12.7" y2="13" /><line x1="-0.7" x2="-1" y1="5" y2="5" /><line x1="12.7" x2="13" y1="5" y2="5" /><line x1="6" x2="6" y1="-0.7" y2="-1" /><line x1="6" x2="6" y1="12.7" y2="13" /><line x1="-0.7" x2="-1" y1="6" y2="6" /><line x1="12.7" x2="13" y1="6" y2="6" /><line x1="7" x2="7" y1="-0.7" y2="-1" /><line x1="7" x2="7" y1="12.7" y2="13" /><line x1="-0.7" x2="-1" y1="7" y2="7" /><line x1="12.7" x2="13" y1="7" y2="7" /><line x1="8" x2="8" y1="-0.7" y2="-1" /><line x1="8" x2="8" y1="12.7" y2="13" /><line x1="-0.7" x2="-1" y1="8" y2="8" /><line x1="12.7" x2="13" y1="8" y2="8" /><line x1="9" x2="9" y1="-0.7" y2="-1" /><line x1="9" x2="9" y1="12.7" y2="13" /><line x1="-0.7" x2="-1" y1="9" y2="9" /><line x1="12.7" x2="13" y1="9" y2="9" /><line x1="10" x2="10" y1="-0.7" y2="-1" /><line x1="10" x2="10" y1="12.7" y2="13" /><line x1="-0.7" x2="-1" y1="10" y2="10" /><line x1="12.7" x2="13" y1="10" y2="10" /><line x1="11" x2="11" y1="-0.7" y2="-1" /><line x1="11" x2="11" y1="12.7" y2="13" /><line x1="-0.7" x2="-1" y1="11" y2="11" /><line x1="12.7" x2="13" y1="11" y2="11" /><line x1="12" x2="12" y1="-0.7" y2="-1" /><line x1="12" x2="12" y1="12.7" y2="13" /><line x1="-0.7" x2="-1" y1="12" y2="12" /><line x1="12.7" x2="13" y1="12" y2="12" /></g><g transform="translate(44.0,4.0)"><rect height="0.0" width="0.0" x="0.0" y="0.0" /><rect height="0.132" width="0.132" x="-0.066" y="0.9339999999999999" /><rect height="0.187" width="0.187" x="-0.0935" y="1.9065" /><rect height="0.229" width="0.229" x="-0.1145" y="2.8855" /><rect height="0.264" width="0.264" x="-0.132" y="3.868" /><rect height="0.295" width="0.295" x="-0.1475" y="4.8525" /><rect height="0.324" width="0.324" x="-0.162" y="5.838" /><rect height="0.349" width="0.349" x="-0.1745" y="6.8255" /><rect height="0.374" width="0.374" x="-0.187" y="7.813" /><rect height="0.396" width="0.396" x="-0.198" y="8.802" /><rect height="0.418" width="0.418" x="-0.209" y="9.791" /><rect height="0.0" width="0.0" x="0.0" y="11.0" /><rect height="0.132" width="0.132" x="-0.066" y="11.934" /><rect height="0.187" width="0.187" x="0.9065" y="-0.0935" /><rect height="0.229" width="0.229" x="0.8855" y="0.8855" /><rect height="0.264" width="0.264" x="0.868" y="1.8679999999999999" /><rect height="0.295" width="0.295" x="0.8525" y="2.8525" /><rect height="0.324" width="0.324" x="0.838" y="3.838" /><rect height="0.349" width="0.349" x="0.8255" y="4.8255" /><rect height="0.374" width="0.374" x="0.813" y="5.813" /><rect height="0.396" width="0.396" x="0.802" y="6.802" /><rect height="0.418" width="0.418" x="0.791" y="7.791" /><rect height="0.0" width="0.0" x="1.0" y="9.0" /><rect height="0.132" width="0.132" x="0.9339999999999999" y="9.934" /><rect height="0.187" width="0.187" x="0.9065" y="10.9065" /><rect height="0.229" width="0.229" x="0.8855" y="11.8855" /><rect height="0.264" width="0.264" x="1.8679999999999999" y="-0.132" /><rect height="0.295" width="0.295" x="1.8525" y="0.8525" /><rect height="0.324" width="0.324" x="1.838" y="1.838" /><rect height="0.349" width="0.349" x="1.8255" y="2.8255" /><rect height="0.374" width="0.374" x="1.813" y="3.813" /><rect height="0.396" width="0.396" x="1.802" y="4.802" /><rect height="0.418" width="0.418" x="1.791" y="5.791" /><rect height="0.0" width="0.0" x="2.0" y="7.0" /><rect height="0.132" width="0.132" x="1.934" y="7.934" /><rect height="0.187" width="0.187" x="1.9065" y="8.9065" /><rect height="0.229" width="0.229" x="1.8855" y="9.8855" /><rect height="0.264" width="0.264" x="1.8679999999999999" y="10.868" /><rect height="0.295" width="0.295" x="1.8525" y="11.8525" /><rect height="0.324" width="0.324" x="2.838" y="-0.162" /><rect height="0.349" width="0.349" x="2.8255" y="0.8255" /><rect height="0.374" width="0.374" x="2.813" y="1.813" /><rect height="0.396" width="0.396" x="2.802" y="2.802" /><rect height="0.418" width="0.418" x="2.791" y="3.791" /><rect height="0.0" width="0.0" x="3.0" y="5.0" /><rect height="0.132" width="0.132" x="2.934" y="5.934" /><rect height="0.187" width="0.187" x="2.9065" y="6.9065" /><rect height="0.229" width="0.229" x="2.8855" y="7.8855" /><rect height="0.264" width="0.264" x="2.868" y="8.868" /><rect height="0.295" width="0.295" x="2.8525" y="9.8525" /><rect height="0.324" width="0.324" x="2.838" y="10.838" /><rect height="0.349" width="0.349" x="2.8255" y="11.8255" /><rect height="0.374" width="0.374" x="3.813" y="-0.187" /><rect height="0.396" width="0.396" x="3.802" y="0.802" /><rect height="0.418" width="0.418" x="3.791" y="1.791" /><rect height="0.0" width="0.0" x="4.0" y="3.0" /><rect height="0.132" width="0.132" x="3.934" y="3.934" /><rect height="0.187" width="0.187" x="3.9065" y="4.9065" /><rect height="0.229" width="0.229" x="3.8855" y="5.8855" /><rect height="0.264" width="0.264" x="3.868" y="6.868" /><rect height="0.295" width="0.295" x="3.8525" y="7.8525" /><rect height="0.324" width="0.324" x="3.838" y="8.838" /><rect height="0.349" width="0.349" x="3.8255" y="9.8255" /><rect height="0.374" width="0.374" x="3.813" y="10.813" /><rect height="0.396" width="0.396" x="3.802" y="11.802" /><rect height="0.418" width="0.418" x="4.791" y="-0.209" /><rect height="0.0" width="0.0" x="5.0" y="1.0" /><rect height="0.132" width="0.132" x="4.934" y="1.934" /><rect height="0.187" width="0.187" x="4.9065" y="2.9065" /><rect height="0.229" width="0.229" x="4.8855" y="3.8855" /><rect height="0.264" width="0.264" x="4.868" y="4.868" /><rect height="0.295" width="0.295" x="4.8525" y="5.8525" /><rect height="0.324" width="0.324" x="4.838" y="6.838" /><rect height="0.349" width="0.349" x="4.8255" y="7.8255" /><rect height="0.374" width="0.374" x="4.813" y="8.813" /><rect height="0.396" width="0.396" x="4.802" y="9.802" /><rect height="0.418" width="0.418" x="4.791" y="10.791" /><rect height="0.0" width="0.0" x="5.0" y="12.0" /><rect height="0.132" width="0.132" x="5.934" y="-0.066" /><rect height="0.187" width="0.187" x="5.9065" y="0.9065" /><rect height="0.229" width="0.229" x="5.8855" y="1.8855" /><rect height="0.264" width="0.264" x="5.868" y="2.868" /><rect height="0.295" width="0.295" x="5.8525" y="3.8525" /><rect height="0.324" width="0.324" x="5.838" y="4.838" /><rect height="0.349" width="0.349" x="5.8255" y="5.8255" /><rect height="0.374" width="0.374" x="5.813" y="6.813" /><rect height="0.396" width="0.396" x="5.802" y="7.802" /><rect height="0.418" width="0.418" x="5.791" y="8.791" /><rect height="0.0" width="0.0" x="6.0" y="10.0" /><rect height="0.132" width="0.132" x="5.934" y="10.934" /><rect height="0.187" width="0.187" x="5.9065" y="11.9065" /><rect height="0.229" width="0.229" x="6.8855" y="-0.1145" /><rect height="0.264" width="0.264" x="6.868" y="0.868" /><rect height="0.295" width="0.295" x="6.8525" y="1.8525" /><rect height="0.324" width="0.324" x="6.838" y="2.838" /><rect height="0.349" width="0.349" x="6.8255" y="3.8255" /><rect height="0.374" width="0.374" x="6.813" y="4.813" /><rect height="0.396" width="0.396" x="6.802" y="5.802" /><rect height="0.418" width="0.418" x="6.791" y="6.791" /><rect height="0.0" width="0.0" x="7.0" y="8.0" /><rect height="0.132" width="0.132" x="6.934" y="8.934" /><rect height="0.187" width="0.187" x="6.9065" y="9.9065" /><rect height="0.229" width="0.229" x="6.8855" y="10.8855" /><rect height="0.264" width="0.264" x="6.868" y="11.868" /><rect height="0.295" width="0.295" x="7.8525" y="-0.1475" /><rect height="0.324" width="0.324" x="7.838" y="0.838" /><rect height="0.349" width="0.349" x="7.8255" y="1.8255" /><rect height="0.374" width="0.374" x="7.813" y="2.813" /><rect height="0.396" width="0.396" x="7.802" y="3.802" /><rect height="0.418" width="0.418" x="7.791" y="4.791" /><rect height="0.0" width="0.0" x="8.0" y="6.0" /><rect height="0.132" width="0.132" x="7.934" y="6.934" /><rect height="0.187" width="0.187" x="7.9065" y="7.9065" /><rect height="0.229" width="0.229" x="7.8855" y="8.8855" /><rect height="0.264" width="0.264" x="7.868" y="9.868" /><rect height="0.295" width="0.295" x="7.8525" y="10.8525" /><rect height="0.324" width="0.324" x="7.838" y="11.838" /><rect height="0.349" width="0.349" x="8.8255" y="-0.1745" /><rect height="0.374" width="0.374" x="8.813" y="0.813" /><rect height="0.396" width="0.396" x="8.802" y="1.802" /><rect height="0.418" width="0.418" x="8.791" y="2.791" /><rect height="0.0" width="0.0" x="9.0" y="4.0" /><rect height="0.132" width="0.132" x="8.934" y="4.934" /><rect height="0.187" width="0.187" x="8.9065" y="5.9065" /><rect height="0.229" width="0.229" x="8.8855" y="6.8855" /><rect height="0.264" width="0.264" x="8.868" y="7.868" /><rect height="0.295" width="0.295" x="8.8525" y="8.8525" /><rect height="0.324" width="0.324" x="8.838" y="9.838" /><rect height="0.349" width="0.349" x="8.8255" y="10.8255" /><rect height="0.374" width="0.374" x="8.813" y="11.813" /><rect height="0.396" width="0.396" x="9.802" y="-0.198" /><rect height="0.418" width="0.418" x="9.791" y="0.791" /><rect height="0.0" width="0.0" x="10.0" y="2.0" /><rect height="0.132" width="0.132" x="9.934" y="2.934" /><rect height="0.187" width="0.187" x="9.9065" y="3.9065" /><rect height="0.229" width="0.229" x="9.8855" y="4.8855" /><rect height="0.264" width="0.264" x="9.868" y="5.868" /><rect height="0.295" width="0.295" x="9.8525" y="6.8525" /><rect height="0.324" width="0.324" x="9.838" y="7.838" /><rect height="0.349" width="0.349" x="9.8255" y="8.8255" /><rect height="0.374" width="0.374" x="9.813" y="9.813" /><rect height="0.396" width="0.396" x="9.802" y="10.802" /><rect height="0.418" width="0.418" x="9.791" y="11.791" /><rect height="0.0" width="0.0" x="11.0" y="0.0" /><rect height="0.132" width="0.132" x="10.934" y="0.9339999999999999" /><rect height="0.187" width="0.187" x="10.9065" y="1.9065" /><rect height="0.229" width="0.229" x="10.8855" y="2.8855" /><rect height="0.264" width="0.264" x="10.868" y="3.868" /><rect height="0.295" width="0.295" x="10.8525" y="4.8525" /><rect height="0.324" width="0.324" x="10.838" y="5.838" /><rect height="0.349" width="0.349" x="10.8255" y="6.8255" /><rect height="0.374" width="0.374" x="10.813" y="7.813" /><rect height="0.396" width="0.396" x="10.802" y="8.802" /><rect height="0.418" width="0.418" x="10.791" y="9.791" /><rect height="0.0" width="0.0" x="11.0" y="11.0" /><rect height="0.132" width="0.132" x="10.934" y="11.934" /><rect height="0.187" width="0.187" x="11.9065" y="-0.0935" /><rect height="0.229" width="0.229" x="11.8855" y="0.8855" /><rect height="0.264" width="0.264" x="11.868" y="1.8679999999999999" /><rect height="0.295" width="0.295" x="11.8525" y="2.8525" /><rect height="0.324" width="0.324" x="11.838" y="3.838" /><rect height="0.349" width="0.349" x="11.8255" y="4.8255" /><rect height="0.374" width="0.374" x="11.813" y="5.813" /><rect height="0.396" width="0.396" x="11.802" y="6.802" /><rect height="0.418" width="0.418" x="11.791" y="7.791" /><rect height="0.0" width="0.0" x="12.0" y="9.0" /><rect height="0.132" width="0.132" x="11.934" y="9.934" /><rect height="0.187" width="0.187" x="11.9065" y="10.9065" /><rect height="0.229" width="0.229" x="11.8855" y="11.8855" /><line x1="0" x2="0" y1="-0.7" y2="-1" /><line x1="0" x2="0" y1="12.7" y2="13" /><line x1="-0.7" x2="-1" y1="0" y2="0" /><line x1="12.7" x2="13" y1="0" y2="0" /><line x1="1" x2="1" y1="-0.7" y2="-1" /><line x1="1" x2="1" y1="12.7" y2="13" /><line x1="-0.7" x2="-1" y1="1" y2="1" /><line x1="12.7" x2="13" y1="1" y2="1" /><line x1="2" x2="2" y1="-0.7" y2="-1" /><line x1="2" x2="2" y1="12.7" y2="13" /><line x1="-0.7" x2="-1" y1="2" y2="2" /><line x1="12.7" x2="13" y1="2" y2="2" /><line x1="3" x2="3" y1="-0.7" y2="-1" /><line x1="3" x2="3" y1="12.7" y2="13" /><line x1="-0.7" x2="-1" y1="3" y2="3" /><line x1="12.7" x2="13" y1="3" y2="3" /><line x1="4" x2="4" y1="-0.7" y2="-1" /><line x1="4" x2="4" y1="12.7" y2="13" /><line x1="-0.7" x2="-1" y1="4" y2="4" /><line x1="12.7" x2="13" y1="4" y2="4" /><line x1="5" x2="5" y1="-0.7" y2="-1" /><line x1="5" x2="5" y1="12.7" y2="13" /><line x1="-0.7" x2="-1" y1="5" y2="5" /><line x1="12.7" x2="13" y1="5" y2="5" /><line x1="6" x2="6" y1="-0.7" y2="-1" /><line x1="6" x2="6" y1="12.7" y2="13" /><line x1="-0.7" x2="-1" y1="6" y2="6" /><line x1="12.7" x2="13" y1="6" y2="6" /><line x1="7" x2="7" y1="-0.7" y2="-1" /><line x1="7" x2="7" y1="12.7" y2="13" /><line x1="-0.7" x2="-1" y1="7" y2="7" /><line x1="12.7" x2="13" y1="7" y2="7" /><line x1="8" x2="8" y1="-0.7" y2="-1" /><line x1="8" x2="8" y1="12.7" y2="13" /><line x1="-0.7" x2="-1" y1="8" y2="8" /><line x1="12.7" x2="13" y1="8" y2="8" /><line x1="9" x2="9" y1="-0.7" y2="-1" /><line x1="9" x2="9" y1="12.7" y2="13" /><line x1="-0.7" x2="-1" y1="9" y2="9" /><line x1="12.7" x2="13" y1="9" y2="9" /><line x1="10" x2="10" y1="-0.7" y2="-1" /><line x1="10" x2="10" y1="12.7" y2="13" /><line x1="-0.7" x2="-1" y1="10" y2="10" /><line x1="12.7" x2="13" y1="10" y2="10" /><line x1="11" x2="11" y1="-0.7" y2="-1" /><line x1="11" x2="11" y1="12.7" y2="13" /><line x1="-0.7" x2="-1" y1="11" y2="11" /><line x1="12.7" x2="13" y1="11" y2="11" /><line x1="12" x2="12" y1="-0.7" y2="-1" /><line x1="12" x2="12" y1="12.7" y2="13" /><line x1="-0.7" x2="-1" y1="12" y2="12" /><line x1="12.7" x2="13" y1="12" y2="12" /></g></svg>