<?xml version="1.0" encoding="utf-8" standalone="no"?>
<!DOCTYPE svg PUBLIC "-//W3C//DTD SVG 1.1//EN"
  "http://www.w3.org/Graphics/SVG/1.1/DTD/svg11.dtd">
<svg xmlns:xlink="http://www.w3.org/1999/xlink" width="864pt" height="288pt" viewBox="0 0 864 288" xmlns="http://www.w3.org/2000/svg" version="1.1">
 <metadata>
  <rdf:RDF xmlns:dc="http://purl.org/dc/elements/1.1/" xmlns:cc="http://creativecommons.org/ns#" xmlns:rdf="http://www.w3.org/1999/02/22-rdf-syntax-ns#">
   <cc:Work>
    <dc:type rdf:resource="http://purl.org/dc/dcmitype/StillImage"/>
    <dc:date>2024-09-18T10:18:16.025949</dc:date>
    <dc:format>image/svg+xml</dc:format>
    <dc:creator>
     <cc:Agent>
      <dc:title>Matplotlib v3.9.2, https://matplotlib.org/</dc:title>
     </cc:Agent>
    </dc:creator>
   </cc:Work>
  </rdf:RDF>
 </metadata>
 <defs>
  <style type="text/css">*{stroke-linejoin: round; stroke-linecap: butt}</style>
 </defs>
 <g id="figure_1">
  <g id="patch_1">
   <path d="M 0 288 
L 864 288 
L 864 0 
L 0 0 
z
" style="fill: #ffffff"/>
  </g>
  <g id="axes_1">
   <g id="patch_2">
    <path d="M 37.4175 261.484615 
L 852.1425 261.484615 
L 852.1425 10.8 
L 37.4175 10.8 
z
" style="fill: #ffffff"/>
   </g>
   <g id="patch_3">
    <path d="M 62.152966 236.74915 
L 75.353188 236.74915 
L 75.353188 223.548927 
L 62.152966 223.548927 
z
" clip-path="url(#pb854e35c6b)" style="stroke: #000000; stroke-linejoin: miter"/>
   </g>
   <g id="patch_4">
    <path d="M 100.088654 230.149038 
L 100.088654 230.149038 
L 100.088654 230.149038 
L 100.088654 230.149038 
z
" clip-path="url(#pb854e35c6b)" style="stroke: #000000; stroke-linejoin: miter"/>
   </g>
   <g id="patch_5">
    <path d="M 131.424231 230.149038 
L 131.424231 230.149038 
L 131.424231 230.149038 
L 131.424231 230.149038 
z
" clip-path="url(#pb854e35c6b)" style="stroke: #000000; stroke-linejoin: miter"/>
   </g>
   <g id="patch_6">
    <path d="M 162.759808 230.149038 
L 162.759808 230.149038 
L 162.759808 230.149038 
L 162.759808 230.149038 
z
" clip-path="url(#pb854e35c6b)" style="stroke: #000000; stroke-linejoin: miter"/>
   </g>
   <g id="patch_7">
    <path d="M 190.85906 233.385363 
L 197.331709 233.385363 
L 197.331709 226.912714 
L 190.85906 226.912714 
z
" clip-path="url(#pb854e35c6b)" style="stroke: #000000; stroke-linejoin: miter"/>
   </g>
   <g id="patch_8">
    <path d="M 220.166523 235.413477 
L 230.6954 235.413477 
L 230.6954 224.8846 
L 220.166523 224.8846 
z
" clip-path="url(#pb854e35c6b)" style="stroke: #000000; stroke-linejoin: miter"/>
   </g>
   <g id="patch_9">
    <path d="M 253.460354 233.455223 
L 260.072723 233.455223 
L 260.072723 226.842854 
L 253.460354 226.842854 
z
" clip-path="url(#pb854e35c6b)" style="stroke: #000000; stroke-linejoin: miter"/>
   </g>
   <g id="patch_10">
    <path d="M 285.226566 233.024588 
L 290.977665 233.024588 
L 290.977665 227.273489 
L 285.226566 227.273489 
z
" clip-path="url(#pb854e35c6b)" style="stroke: #000000; stroke-linejoin: miter"/>
   </g>
   <g id="patch_11">
    <path d="M 315.594746 233.991985 
L 323.280639 233.991985 
L 323.280639 226.306092 
L 315.594746 226.306092 
z
" clip-path="url(#pb854e35c6b)" style="stroke: #000000; stroke-linejoin: miter"/>
   </g>
   <g id="patch_12">
    <path d="M 346.390581 234.531726 
L 355.155957 234.531726 
L 355.155957 225.766351 
L 346.390581 225.766351 
z
" clip-path="url(#pb854e35c6b)" style="stroke: #000000; stroke-linejoin: miter"/>
   </g>
   <g id="patch_13">
    <path d="M 377.929051 234.328834 
L 386.288642 234.328834 
L 386.288642 225.969243 
L 377.929051 225.969243 
z
" clip-path="url(#pb854e35c6b)" style="stroke: #000000; stroke-linejoin: miter"/>
   </g>
   <g id="patch_14">
    <path d="M 407.656783 235.936679 
L 419.232063 235.936679 
L 419.232063 224.361398 
L 407.656783 224.361398 
z
" clip-path="url(#pb854e35c6b)" style="stroke: #000000; stroke-linejoin: miter"/>
   </g>
   <g id="patch_15">
    <path d="M 440.335743 234.593296 
L 449.224257 234.593296 
L 449.224257 225.704781 
L 440.335743 225.704781 
z
" clip-path="url(#pb854e35c6b)" style="stroke: #000000; stroke-linejoin: miter"/>
   </g>
   <g id="patch_16">
    <path d="M 469.594221 236.670394 
L 482.636933 236.670394 
L 482.636933 223.627683 
L 469.594221 223.627683 
z
" clip-path="url(#pb854e35c6b)" style="stroke: #000000; stroke-linejoin: miter"/>
   </g>
   <g id="patch_17">
    <path d="M 499.649203 237.95099 
L 515.253105 237.95099 
L 515.253105 222.347087 
L 499.649203 222.347087 
z
" clip-path="url(#pb854e35c6b)" style="stroke: #000000; stroke-linejoin: miter"/>
   </g>
   <g id="patch_18">
    <path d="M 530.944559 237.991211 
L 546.628903 237.991211 
L 546.628903 222.306866 
L 530.944559 222.306866 
z
" clip-path="url(#pb854e35c6b)" style="stroke: #000000; stroke-linejoin: miter"/>
   </g>
   <g id="patch_19">
    <path d="M 560.397144 239.874202 
L 579.847471 239.874202 
L 579.847471 220.423875 
L 560.397144 220.423875 
z
" clip-path="url(#pb854e35c6b)" style="stroke: #000000; stroke-linejoin: miter"/>
   </g>
   <g id="patch_20">
    <path d="M 591.346392 240.260532 
L 611.569378 240.260532 
L 611.569378 220.037545 
L 591.346392 220.037545 
z
" clip-path="url(#pb854e35c6b)" style="stroke: #000000; stroke-linejoin: miter"/>
   </g>
   <g id="patch_21">
    <path d="M 623.023608 239.918892 
L 642.563315 239.918892 
L 642.563315 220.379185 
L 623.023608 220.379185 
z
" clip-path="url(#pb854e35c6b)" style="stroke: #000000; stroke-linejoin: miter"/>
   </g>
   <g id="patch_22">
    <path d="M 653.050471 241.227606 
L 675.207606 241.227606 
L 675.207606 219.070471 
L 653.050471 219.070471 
z
" clip-path="url(#pb854e35c6b)" style="stroke: #000000; stroke-linejoin: miter"/>
   </g>
   <g id="patch_23">
    <path d="M 684.897021 240.716633 
L 706.03221 240.716633 
L 706.03221 219.581444 
L 684.897021 219.581444 
z
" clip-path="url(#pb854e35c6b)" style="stroke: #000000; stroke-linejoin: miter"/>
   </g>
   <g id="patch_24">
    <path d="M 714.926361 242.022869 
L 738.674023 242.022869 
L 738.674023 218.275208 
L 714.926361 218.275208 
z
" clip-path="url(#pb854e35c6b)" style="stroke: #000000; stroke-linejoin: miter"/>
   </g>
   <g id="patch_25">
    <path d="M 746.287752 241.997056 
L 769.983786 241.997056 
L 769.983786 218.301021 
L 746.287752 218.301021 
z
" clip-path="url(#pb854e35c6b)" style="stroke: #000000; stroke-linejoin: miter"/>
   </g>
   <g id="patch_26">
    <path d="M 777.473791 242.146594 
L 801.468902 242.146594 
L 801.468902 218.151483 
L 777.473791 218.151483 
z
" clip-path="url(#pb854e35c6b)" style="stroke: #000000; stroke-linejoin: miter"/>
   </g>
   <g id="patch_27">
    <path d="M 64.081845 203.484694 
L 73.424309 203.484694 
L 73.424309 194.142229 
L 64.081845 194.142229 
z
" clip-path="url(#pb854e35c6b)" style="stroke: #000000; stroke-linejoin: miter"/>
   </g>
   <g id="patch_28">
    <path d="M 100.088654 198.813462 
L 100.088654 198.813462 
L 100.088654 198.813462 
L 100.088654 198.813462 
z
" clip-path="url(#pb854e35c6b)" style="stroke: #000000; stroke-linejoin: miter"/>
   </g>
   <g id="patch_29">
    <path d="M 131.424231 198.813462 
L 131.424231 198.813462 
L 131.424231 198.813462 
L 131.424231 198.813462 
z
" clip-path="url(#pb854e35c6b)" style="stroke: #000000; stroke-linejoin: miter"/>
   </g>
   <g id="patch_30">
    <path d="M 161.302733 200.270536 
L 164.216882 200.270536 
L 164.216882 197.356387 
L 161.302733 197.356387 
z
" clip-path="url(#pb854e35c6b)" style="stroke: #000000; stroke-linejoin: miter"/>
   </g>
   <g id="patch_31">
    <path d="M 194.095385 198.813462 
L 194.095385 198.813462 
L 194.095385 198.813462 
L 194.095385 198.813462 
z
" clip-path="url(#pb854e35c6b)" style="stroke: #000000; stroke-linejoin: miter"/>
   </g>
   <g id="patch_32">
    <path d="M 225.430962 198.813462 
L 225.430962 198.813462 
L 225.430962 198.813462 
L 225.430962 198.813462 
z
" clip-path="url(#pb854e35c6b)" style="stroke: #000000; stroke-linejoin: miter"/>
   </g>
   <g id="patch_33">
    <path d="M 253.890989 201.689011 
L 259.642088 201.689011 
L 259.642088 195.937912 
L 253.890989 195.937912 
z
" clip-path="url(#pb854e35c6b)" style="stroke: #000000; stroke-linejoin: miter"/>
   </g>
   <g id="patch_34">
    <path d="M 285.600624 201.314953 
L 290.603607 201.314953 
L 290.603607 196.31197 
L 285.600624 196.31197 
z
" clip-path="url(#pb854e35c6b)" style="stroke: #000000; stroke-linejoin: miter"/>
   </g>
   <g id="patch_35">
    <path d="M 316.540717 201.710437 
L 322.334667 201.710437 
L 322.334667 195.916487 
L 316.540717 195.916487 
z
" clip-path="url(#pb854e35c6b)" style="stroke: #000000; stroke-linejoin: miter"/>
   </g>
   <g id="patch_36">
    <path d="M 345.745332 203.841399 
L 355.801207 203.841399 
L 355.801207 193.785524 
L 345.745332 193.785524 
z
" clip-path="url(#pb854e35c6b)" style="stroke: #000000; stroke-linejoin: miter"/>
   </g>
   <g id="patch_37">
    <path d="M 377.875195 203.047113 
L 386.342498 203.047113 
L 386.342498 194.57981 
L 377.875195 194.57981 
z
" clip-path="url(#pb854e35c6b)" style="stroke: #000000; stroke-linejoin: miter"/>
   </g>
   <g id="patch_38">
    <path d="M 408.706391 203.551493 
L 418.182455 203.551493 
L 418.182455 194.07543 
L 408.706391 194.07543 
z
" clip-path="url(#pb854e35c6b)" style="stroke: #000000; stroke-linejoin: miter"/>
   </g>
   <g id="patch_39">
    <path d="M 437.548491 206.04497 
L 452.011509 206.04497 
L 452.011509 191.581953 
L 437.548491 191.581953 
z
" clip-path="url(#pb854e35c6b)" style="stroke: #000000; stroke-linejoin: miter"/>
   </g>
   <g id="patch_40">
    <path d="M 465.461697 209.467341 
L 486.769457 209.467341 
L 486.769457 188.159582 
L 465.461697 188.159582 
z
" clip-path="url(#pb854e35c6b)" style="stroke: #000000; stroke-linejoin: miter"/>
   </g>
   <g id="patch_41">
    <path d="M 496.764496 209.50012 
L 518.137812 209.50012 
L 518.137812 188.126804 
L 496.764496 188.126804 
z
" clip-path="url(#pb854e35c6b)" style="stroke: #000000; stroke-linejoin: miter"/>
   </g>
   <g id="patch_42">
    <path d="M 527.311833 210.288359 
L 550.261628 210.288359 
L 550.261628 187.338564 
L 527.311833 187.338564 
z
" clip-path="url(#pb854e35c6b)" style="stroke: #000000; stroke-linejoin: miter"/>
   </g>
   <g id="patch_43">
    <path d="M 557.97699 210.958779 
L 582.267625 210.958779 
L 582.267625 186.668144 
L 557.97699 186.668144 
z
" clip-path="url(#pb854e35c6b)" style="stroke: #000000; stroke-linejoin: miter"/>
   </g>
   <g id="patch_44">
    <path d="M 589.427518 210.843828 
L 613.488251 210.843828 
L 613.488251 186.783095 
L 589.427518 186.783095 
z
" clip-path="url(#pb854e35c6b)" style="stroke: #000000; stroke-linejoin: miter"/>
   </g>
   <g id="patch_45">
    <path d="M 620.587997 211.018926 
L 644.998926 211.018926 
L 644.998926 186.607997 
L 620.587997 186.607997 
z
" clip-path="url(#pb854e35c6b)" style="stroke: #000000; stroke-linejoin: miter"/>
   </g>
   <g id="patch_46">
    <path d="M 651.972362 210.970138 
L 676.285715 210.970138 
L 676.285715 186.656785 
L 651.972362 186.656785 
z
" clip-path="url(#pb854e35c6b)" style="stroke: #000000; stroke-linejoin: miter"/>
   </g>
   <g id="patch_47">
    <path d="M 683.042529 211.235548 
L 707.886701 211.235548 
L 707.886701 186.391375 
L 683.042529 186.391375 
z
" clip-path="url(#pb854e35c6b)" style="stroke: #000000; stroke-linejoin: miter"/>
   </g>
   <g id="patch_48">
    <path d="M 714.353362 211.260292 
L 739.247023 211.260292 
L 739.247023 186.366631 
L 714.353362 186.366631 
z
" clip-path="url(#pb854e35c6b)" style="stroke: #000000; stroke-linejoin: miter"/>
   </g>
   <g id="patch_49">
    <path d="M 745.694102 211.255129 
L 770.577437 211.255129 
L 770.577437 186.371794 
L 745.694102 186.371794 
z
" clip-path="url(#pb854e35c6b)" style="stroke: #000000; stroke-linejoin: miter"/>
   </g>
   <g id="patch_50">
    <path d="M 776.959843 211.324965 
L 801.982849 211.324965 
L 801.982849 186.301958 
L 776.959843 186.301958 
z
" clip-path="url(#pb854e35c6b)" style="stroke: #000000; stroke-linejoin: miter"/>
   </g>
   <g id="patch_51">
    <path d="M 68.753077 167.477885 
L 68.753077 167.477885 
L 68.753077 167.477885 
L 68.753077 167.477885 
z
" clip-path="url(#pb854e35c6b)" style="stroke: #000000; stroke-linejoin: miter"/>
   </g>
   <g id="patch_52">
    <path d="M 94.220778 173.34576 
L 105.956529 173.34576 
L 105.956529 161.610009 
L 94.220778 161.610009 
z
" clip-path="url(#pb854e35c6b)" style="stroke: #000000; stroke-linejoin: miter"/>
   </g>
   <g id="patch_53">
    <path d="M 124.872336 174.029779 
L 137.976125 174.029779 
L 137.976125 160.92599 
L 124.872336 160.92599 
z
" clip-path="url(#pb854e35c6b)" style="stroke: #000000; stroke-linejoin: miter"/>
   </g>
   <g id="patch_54">
    <path d="M 159.379577 170.858115 
L 166.140038 170.858115 
L 166.140038 164.097654 
L 159.379577 164.097654 
z
" clip-path="url(#pb854e35c6b)" style="stroke: #000000; stroke-linejoin: miter"/>
   </g>
   <g id="patch_55">
    <path d="M 194.095385 167.477885 
L 194.095385 167.477885 
L 194.095385 167.477885 
L 194.095385 167.477885 
z
" clip-path="url(#pb854e35c6b)" style="stroke: #000000; stroke-linejoin: miter"/>
   </g>
   <g id="patch_56">
    <path d="M 221.46729 171.441556 
L 229.394633 171.441556 
L 229.394633 163.514213 
L 221.46729 163.514213 
z
" clip-path="url(#pb854e35c6b)" style="stroke: #000000; stroke-linejoin: miter"/>
   </g>
   <g id="patch_57">
    <path d="M 251.625933 172.61849 
L 261.907143 172.61849 
L 261.907143 162.33728 
L 251.625933 162.33728 
z
" clip-path="url(#pb854e35c6b)" style="stroke: #000000; stroke-linejoin: miter"/>
   </g>
   <g id="patch_58">
    <path d="M 282.404629 173.175371 
L 293.799602 173.175371 
L 293.799602 161.780398 
L 282.404629 161.780398 
z
" clip-path="url(#pb854e35c6b)" style="stroke: #000000; stroke-linejoin: miter"/>
   </g>
   <g id="patch_59">
    <path d="M 314.028255 172.887322 
L 324.84713 172.887322 
L 324.84713 162.068447 
L 314.028255 162.068447 
z
" clip-path="url(#pb854e35c6b)" style="stroke: #000000; stroke-linejoin: miter"/>
   </g>
   <g id="patch_60">
    <path d="M 344.044951 174.206203 
L 357.501587 174.206203 
L 357.501587 160.749567 
L 344.044951 160.749567 
z
" clip-path="url(#pb854e35c6b)" style="stroke: #000000; stroke-linejoin: miter"/>
   </g>
   <g id="patch_61">
    <path d="M 374.828488 174.758242 
L 389.389204 174.758242 
L 389.389204 160.197527 
L 374.828488 160.197527 
z
" clip-path="url(#pb854e35c6b)" style="stroke: #000000; stroke-linejoin: miter"/>
   </g>
   <g id="patch_62">
    <path d="M 404.430437 176.491871 
L 422.458409 176.491871 
L 422.458409 158.463898 
L 404.430437 158.463898 
z
" clip-path="url(#pb854e35c6b)" style="stroke: #000000; stroke-linejoin: miter"/>
   </g>
   <g id="patch_63">
    <path d="M 434.839945 177.41794 
L 454.720055 177.41794 
L 454.720055 157.53783 
L 434.839945 157.53783 
z
" clip-path="url(#pb854e35c6b)" style="stroke: #000000; stroke-linejoin: miter"/>
   </g>
   <g id="patch_64">
    <path d="M 465.498499 178.094962 
L 486.732655 178.094962 
L 486.732655 156.860807 
L 465.498499 156.860807 
z
" clip-path="url(#pb854e35c6b)" style="stroke: #000000; stroke-linejoin: miter"/>
   </g>
   <g id="patch_65">
    <path d="M 496.338156 178.590883 
L 518.564152 178.590883 
L 518.564152 156.364887 
L 496.338156 156.364887 
z
" clip-path="url(#pb854e35c6b)" style="stroke: #000000; stroke-linejoin: miter"/>
   </g>
   <g id="patch_66">
    <path d="M 527.287185 178.97743 
L 550.286277 178.97743 
L 550.286277 155.978339 
L 527.287185 155.978339 
z
" clip-path="url(#pb854e35c6b)" style="stroke: #000000; stroke-linejoin: miter"/>
   </g>
   <g id="patch_67">
    <path d="M 558.02936 179.570833 
L 582.215256 179.570833 
L 582.215256 155.384936 
L 558.02936 155.384936 
z
" clip-path="url(#pb854e35c6b)" style="stroke: #000000; stroke-linejoin: miter"/>
   </g>
   <g id="patch_68">
    <path d="M 589.101557 179.834212 
L 613.814212 179.834212 
L 613.814212 155.121557 
L 589.101557 155.121557 
z
" clip-path="url(#pb854e35c6b)" style="stroke: #000000; stroke-linejoin: miter"/>
   </g>
   <g id="patch_69">
    <path d="M 620.701015 179.570331 
L 644.885908 179.570331 
L 644.885908 155.385439 
L 620.701015 155.385439 
z
" clip-path="url(#pb854e35c6b)" style="stroke: #000000; stroke-linejoin: miter"/>
   </g>
   <g id="patch_70">
    <path d="M 652.06576 179.541163 
L 676.192317 179.541163 
L 676.192317 155.414606 
L 652.06576 155.414606 
z
" clip-path="url(#pb854e35c6b)" style="stroke: #000000; stroke-linejoin: miter"/>
   </g>
   <g id="patch_71">
    <path d="M 683.080501 179.861999 
L 707.84873 179.861999 
L 707.84873 155.09377 
L 683.080501 155.09377 
z
" clip-path="url(#pb854e35c6b)" style="stroke: #000000; stroke-linejoin: miter"/>
   </g>
   <g id="patch_72">
    <path d="M 714.396025 179.882052 
L 739.20436 179.882052 
L 739.20436 155.073717 
L 714.396025 155.073717 
z
" clip-path="url(#pb854e35c6b)" style="stroke: #000000; stroke-linejoin: miter"/>
   </g>
   <g id="patch_73">
    <path d="M 745.883927 179.729726 
L 770.387611 179.729726 
L 770.387611 155.226043 
L 745.883927 155.226043 
z
" clip-path="url(#pb854e35c6b)" style="stroke: #000000; stroke-linejoin: miter"/>
   </g>
   <g id="patch_74">
    <path d="M 777.143977 179.805254 
L 801.798715 179.805254 
L 801.798715 155.150516 
L 777.143977 155.150516 
z
" clip-path="url(#pb854e35c6b)" style="stroke: #000000; stroke-linejoin: miter"/>
   </g>
   <g id="patch_75">
    <path d="M 68.753077 136.142308 
L 68.753077 136.142308 
L 68.753077 136.142308 
L 68.753077 136.142308 
z
" clip-path="url(#pb854e35c6b)" style="stroke: #000000; stroke-linejoin: miter"/>
   </g>
   <g id="patch_76">
    <path d="M 95.671553 140.559409 
L 104.505755 140.559409 
L 104.505755 131.725207 
L 95.671553 131.725207 
z
" clip-path="url(#pb854e35c6b)" style="stroke: #000000; stroke-linejoin: miter"/>
   </g>
   <g id="patch_77">
    <path d="M 129.806069 137.76047 
L 133.042393 137.76047 
L 133.042393 134.524146 
L 129.806069 134.524146 
z
" clip-path="url(#pb854e35c6b)" style="stroke: #000000; stroke-linejoin: miter"/>
   </g>
   <g id="patch_78">
    <path d="M 160.670769 138.231346 
L 164.848846 138.231346 
L 164.848846 134.053269 
L 160.670769 134.053269 
z
" clip-path="url(#pb854e35c6b)" style="stroke: #000000; stroke-linejoin: miter"/>
   </g>
   <g id="patch_79">
    <path d="M 192.113549 138.124144 
L 196.07722 138.124144 
L 196.07722 134.160472 
L 192.113549 134.160472 
z
" clip-path="url(#pb854e35c6b)" style="stroke: #000000; stroke-linejoin: miter"/>
   </g>
   <g id="patch_80">
    <path d="M 225.430962 136.142308 
L 225.430962 136.142308 
L 225.430962 136.142308 
L 225.430962 136.142308 
z
" clip-path="url(#pb854e35c6b)" style="stroke: #000000; stroke-linejoin: miter"/>
   </g>
   <g id="patch_81">
    <path d="M 253.865428 139.043418 
L 259.667649 139.043418 
L 259.667649 133.241197 
L 253.865428 133.241197 
z
" clip-path="url(#pb854e35c6b)" style="stroke: #000000; stroke-linejoin: miter"/>
   </g>
   <g id="patch_82">
    <path d="M 281.371065 142.873358 
L 294.833166 142.873358 
L 294.833166 129.411257 
L 281.371065 129.411257 
z
" clip-path="url(#pb854e35c6b)" style="stroke: #000000; stroke-linejoin: miter"/>
   </g>
   <g id="patch_83">
    <path d="M 313.282381 142.297619 
L 325.593004 142.297619 
L 325.593004 129.986996 
L 313.282381 129.986996 
z
" clip-path="url(#pb854e35c6b)" style="stroke: #000000; stroke-linejoin: miter"/>
   </g>
   <g id="patch_84">
    <path d="M 345.331449 141.584128 
L 356.21509 141.584128 
L 356.21509 130.700487 
L 345.331449 130.700487 
z
" clip-path="url(#pb854e35c6b)" style="stroke: #000000; stroke-linejoin: miter"/>
   </g>
   <g id="patch_85">
    <path d="M 375.643685 142.607469 
L 388.574008 142.607469 
L 388.574008 129.677146 
L 375.643685 129.677146 
z
" clip-path="url(#pb854e35c6b)" style="stroke: #000000; stroke-linejoin: miter"/>
   </g>
   <g id="patch_86">
    <path d="M 404.361551 145.225179 
L 422.527295 145.225179 
L 422.527295 127.059436 
L 404.361551 127.059436 
z
" clip-path="url(#pb854e35c6b)" style="stroke: #000000; stroke-linejoin: miter"/>
   </g>
   <g id="patch_87">
    <path d="M 434.786756 146.135552 
L 454.773244 146.135552 
L 454.773244 126.149064 
L 434.786756 126.149064 
z
" clip-path="url(#pb854e35c6b)" style="stroke: #000000; stroke-linejoin: miter"/>
   </g>
   <g id="patch_88">
    <path d="M 466.016211 146.241674 
L 486.214943 146.241674 
L 486.214943 126.042941 
L 466.016211 126.042941 
z
" clip-path="url(#pb854e35c6b)" style="stroke: #000000; stroke-linejoin: miter"/>
   </g>
   <g id="patch_89">
    <path d="M 497.005483 146.587979 
L 517.896825 146.587979 
L 517.896825 125.696637 
L 497.005483 125.696637 
z
" clip-path="url(#pb854e35c6b)" style="stroke: #000000; stroke-linejoin: miter"/>
   </g>
   <g id="patch_90">
    <path d="M 526.953727 147.975312 
L 550.619735 147.975312 
L 550.619735 124.309303 
L 526.953727 124.309303 
z
" clip-path="url(#pb854e35c6b)" style="stroke: #000000; stroke-linejoin: miter"/>
   </g>
   <g id="patch_91">
    <path d="M 558.200927 148.063688 
L 582.043688 148.063688 
L 582.043688 124.220927 
L 558.200927 124.220927 
z
" clip-path="url(#pb854e35c6b)" style="stroke: #000000; stroke-linejoin: miter"/>
   </g>
   <g id="patch_92">
    <path d="M 589.441461 148.158731 
L 613.474308 148.158731 
L 613.474308 124.125884 
L 589.441461 124.125884 
z
" clip-path="url(#pb854e35c6b)" style="stroke: #000000; stroke-linejoin: miter"/>
   </g>
   <g id="patch_93">
    <path d="M 621.07474 147.861029 
L 644.512183 147.861029 
L 644.512183 124.423586 
L 621.07474 124.423586 
z
" clip-path="url(#pb854e35c6b)" style="stroke: #000000; stroke-linejoin: miter"/>
   </g>
   <g id="patch_94">
    <path d="M 652.24348 148.027867 
L 676.014597 148.027867 
L 676.014597 124.256749 
L 652.24348 124.256749 
z
" clip-path="url(#pb854e35c6b)" style="stroke: #000000; stroke-linejoin: miter"/>
   </g>
   <g id="patch_95">
    <path d="M 683.429087 148.177836 
L 707.500144 148.177836 
L 707.500144 124.106779 
L 683.429087 124.106779 
z
" clip-path="url(#pb854e35c6b)" style="stroke: #000000; stroke-linejoin: miter"/>
   </g>
   <g id="patch_96">
    <path d="M 714.409215 148.533285 
L 739.19117 148.533285 
L 739.19117 123.75133 
L 714.409215 123.75133 
z
" clip-path="url(#pb854e35c6b)" style="stroke: #000000; stroke-linejoin: miter"/>
   </g>
   <g id="patch_97">
    <path d="M 745.69139 148.586686 
L 770.580148 148.586686 
L 770.580148 123.697929 
L 745.69139 123.697929 
z
" clip-path="url(#pb854e35c6b)" style="stroke: #000000; stroke-linejoin: miter"/>
   </g>
   <g id="patch_98">
    <path d="M 776.981961 148.631693 
L 801.960732 148.631693 
L 801.960732 123.652922 
L 776.981961 123.652922 
z
" clip-path="url(#pb854e35c6b)" style="stroke: #000000; stroke-linejoin: miter"/>
   </g>
   <g id="patch_99">
    <path d="M 63.398575 110.161233 
L 74.107579 110.161233 
L 74.107579 99.452229 
L 63.398575 99.452229 
z
" clip-path="url(#pb854e35c6b)" style="stroke: #000000; stroke-linejoin: miter"/>
   </g>
   <g id="patch_100">
    <path d="M 94.053735 110.841649 
L 106.123573 110.841649 
L 106.123573 98.771812 
L 94.053735 98.771812 
z
" clip-path="url(#pb854e35c6b)" style="stroke: #000000; stroke-linejoin: miter"/>
   </g>
   <g id="patch_101">
    <path d="M 120.207714 116.023247 
L 142.640747 116.023247 
L 142.640747 93.590214 
L 120.207714 93.590214 
z
" clip-path="url(#pb854e35c6b)" style="stroke: #000000; stroke-linejoin: miter"/>
   </g>
   <g id="patch_102">
    <path d="M 150.81548 116.751059 
L 174.704136 116.751059 
L 174.704136 92.862403 
L 150.81548 92.862403 
z
" clip-path="url(#pb854e35c6b)" style="stroke: #000000; stroke-linejoin: miter"/>
   </g>
   <g id="patch_103">
    <path d="M 181.758556 117.143559 
L 206.432213 117.143559 
L 206.432213 92.469902 
L 181.758556 92.469902 
z
" clip-path="url(#pb854e35c6b)" style="stroke: #000000; stroke-linejoin: miter"/>
   </g>
   <g id="patch_104">
    <path d="M 212.896731 117.340962 
L 237.965192 117.340962 
L 237.965192 92.2725 
L 212.896731 92.2725 
z
" clip-path="url(#pb854e35c6b)" style="stroke: #000000; stroke-linejoin: miter"/>
   </g>
   <g id="patch_105">
    <path d="M 244.232308 117.340962 
L 269.300769 117.340962 
L 269.300769 92.2725 
L 244.232308 92.2725 
z
" clip-path="url(#pb854e35c6b)" style="stroke: #000000; stroke-linejoin: miter"/>
   </g>
   <g id="patch_106">
    <path d="M 275.567885 117.340962 
L 300.636346 117.340962 
L 300.636346 92.2725 
L 275.567885 92.2725 
z
" clip-path="url(#pb854e35c6b)" style="stroke: #000000; stroke-linejoin: miter"/>
   </g>
   <g id="patch_107">
    <path d="M 306.903462 117.340962 
L 331.971923 117.340962 
L 331.971923 92.2725 
L 306.903462 92.2725 
z
" clip-path="url(#pb854e35c6b)" style="stroke: #000000; stroke-linejoin: miter"/>
   </g>
   <g id="patch_108">
    <path d="M 338.239038 117.340962 
L 363.3075 117.340962 
L 363.3075 92.2725 
L 338.239038 92.2725 
z
" clip-path="url(#pb854e35c6b)" style="stroke: #000000; stroke-linejoin: miter"/>
   </g>
   <g id="patch_109">
    <path d="M 369.574615 117.340962 
L 394.643077 117.340962 
L 394.643077 92.2725 
L 369.574615 92.2725 
z
" clip-path="url(#pb854e35c6b)" style="stroke: #000000; stroke-linejoin: miter"/>
   </g>
   <g id="patch_110">
    <path d="M 400.992927 117.258226 
L 425.895919 117.258226 
L 425.895919 92.355235 
L 400.992927 92.355235 
z
" clip-path="url(#pb854e35c6b)" style="stroke: #000000; stroke-linejoin: miter"/>
   </g>
   <g id="patch_111">
    <path d="M 432.245769 117.340962 
L 457.314231 117.340962 
L 457.314231 92.2725 
L 432.245769 92.2725 
z
" clip-path="url(#pb854e35c6b)" style="stroke: #000000; stroke-linejoin: miter"/>
   </g>
   <g id="patch_112">
    <path d="M 463.581346 117.340962 
L 488.649808 117.340962 
L 488.649808 92.2725 
L 463.581346 92.2725 
z
" clip-path="url(#pb854e35c6b)" style="stroke: #000000; stroke-linejoin: miter"/>
   </g>
   <g id="patch_113">
    <path d="M 495.347381 116.910504 
L 519.554927 116.910504 
L 519.554927 92.702958 
L 495.347381 92.702958 
z
" clip-path="url(#pb854e35c6b)" style="stroke: #000000; stroke-linejoin: miter"/>
   </g>
   <g id="patch_114">
    <path d="M 526.2525 117.340962 
L 551.320962 117.340962 
L 551.320962 92.2725 
L 526.2525 92.2725 
z
" clip-path="url(#pb854e35c6b)" style="stroke: #000000; stroke-linejoin: miter"/>
   </g>
   <g id="patch_115">
    <path d="M 557.754101 117.174938 
L 582.490515 117.174938 
L 582.490515 92.438524 
L 557.754101 92.438524 
z
" clip-path="url(#pb854e35c6b)" style="stroke: #000000; stroke-linejoin: miter"/>
   </g>
   <g id="patch_116">
    <path d="M 589.006389 117.258226 
L 613.90938 117.258226 
L 613.90938 92.355235 
L 589.006389 92.355235 
z
" clip-path="url(#pb854e35c6b)" style="stroke: #000000; stroke-linejoin: miter"/>
   </g>
   <g id="patch_117">
    <path d="M 620.341966 117.258226 
L 645.244957 117.258226 
L 645.244957 92.355235 
L 620.341966 92.355235 
z
" clip-path="url(#pb854e35c6b)" style="stroke: #000000; stroke-linejoin: miter"/>
   </g>
   <g id="patch_118">
    <path d="M 651.844684 117.091085 
L 676.413392 117.091085 
L 676.413392 92.522377 
L 651.844684 92.522377 
z
" clip-path="url(#pb854e35c6b)" style="stroke: #000000; stroke-linejoin: miter"/>
   </g>
   <g id="patch_119">
    <path d="M 682.930385 117.340962 
L 707.998846 117.340962 
L 707.998846 92.2725 
L 682.930385 92.2725 
z
" clip-path="url(#pb854e35c6b)" style="stroke: #000000; stroke-linejoin: miter"/>
   </g>
   <g id="patch_120">
    <path d="M 714.265962 117.340962 
L 739.334423 117.340962 
L 739.334423 92.2725 
L 714.265962 92.2725 
z
" clip-path="url(#pb854e35c6b)" style="stroke: #000000; stroke-linejoin: miter"/>
   </g>
   <g id="patch_121">
    <path d="M 745.601538 117.340962 
L 770.67 117.340962 
L 770.67 92.2725 
L 745.601538 92.2725 
z
" clip-path="url(#pb854e35c6b)" style="stroke: #000000; stroke-linejoin: miter"/>
   </g>
   <g id="patch_122">
    <path d="M 776.937115 117.340962 
L 802.005577 117.340962 
L 802.005577 92.2725 
L 776.937115 92.2725 
z
" clip-path="url(#pb854e35c6b)" style="stroke: #000000; stroke-linejoin: miter"/>
   </g>
   <g id="patch_123">
    <path d="M 64.047916 78.176315 
L 73.458238 78.176315 
L 73.458238 68.765993 
L 64.047916 68.765993 
z
" clip-path="url(#pb854e35c6b)" style="stroke: #000000; stroke-linejoin: miter"/>
   </g>
   <g id="patch_124">
    <path d="M 100.088654 73.471154 
L 100.088654 73.471154 
L 100.088654 73.471154 
L 100.088654 73.471154 
z
" clip-path="url(#pb854e35c6b)" style="stroke: #000000; stroke-linejoin: miter"/>
   </g>
   <g id="patch_125">
    <path d="M 131.424231 73.471154 
L 131.424231 73.471154 
L 131.424231 73.471154 
L 131.424231 73.471154 
z
" clip-path="url(#pb854e35c6b)" style="stroke: #000000; stroke-linejoin: miter"/>
   </g>
   <g id="patch_126">
    <path d="M 161.084851 75.146111 
L 164.434765 75.146111 
L 164.434765 71.796197 
L 161.084851 71.796197 
z
" clip-path="url(#pb854e35c6b)" style="stroke: #000000; stroke-linejoin: miter"/>
   </g>
   <g id="patch_127">
    <path d="M 190.57357 76.992968 
L 197.617199 76.992968 
L 197.617199 69.949339 
L 190.57357 69.949339 
z
" clip-path="url(#pb854e35c6b)" style="stroke: #000000; stroke-linejoin: miter"/>
   </g>
   <g id="patch_128">
    <path d="M 221.14144 77.760676 
L 229.720483 77.760676 
L 229.720483 69.181632 
L 221.14144 69.181632 
z
" clip-path="url(#pb854e35c6b)" style="stroke: #000000; stroke-linejoin: miter"/>
   </g>
   <g id="patch_129">
    <path d="M 251.800145 78.437547 
L 261.732932 78.437547 
L 261.732932 68.50476 
L 251.800145 68.50476 
z
" clip-path="url(#pb854e35c6b)" style="stroke: #000000; stroke-linejoin: miter"/>
   </g>
   <g id="patch_130">
    <path d="M 284.374124 77.199146 
L 291.830107 77.199146 
L 291.830107 69.743162 
L 284.374124 69.743162 
z
" clip-path="url(#pb854e35c6b)" style="stroke: #000000; stroke-linejoin: miter"/>
   </g>
   <g id="patch_131">
    <path d="M 316.532736 76.37611 
L 322.342648 76.37611 
L 322.342648 70.566198 
L 316.532736 70.566198 
z
" clip-path="url(#pb854e35c6b)" style="stroke: #000000; stroke-linejoin: miter"/>
   </g>
   <g id="patch_132">
    <path d="M 345.298803 78.94562 
L 356.247735 78.94562 
L 356.247735 67.996688 
L 345.298803 67.996688 
z
" clip-path="url(#pb854e35c6b)" style="stroke: #000000; stroke-linejoin: miter"/>
   </g>
   <g id="patch_133">
    <path d="M 373.925005 81.654995 
L 390.292687 81.654995 
L 390.292687 65.287313 
L 373.925005 65.287313 
z
" clip-path="url(#pb854e35c6b)" style="stroke: #000000; stroke-linejoin: miter"/>
   </g>
   <g id="patch_134">
    <path d="M 407.043938 79.871639 
L 419.844908 79.871639 
L 419.844908 67.070669 
L 407.043938 67.070669 
z
" clip-path="url(#pb854e35c6b)" style="stroke: #000000; stroke-linejoin: miter"/>
   </g>
   <g id="patch_135">
    <path d="M 436.329828 81.921326 
L 453.230172 81.921326 
L 453.230172 65.020982 
L 436.329828 65.020982 
z
" clip-path="url(#pb854e35c6b)" style="stroke: #000000; stroke-linejoin: miter"/>
   </g>
   <g id="patch_136">
    <path d="M 466.877402 82.709329 
L 485.353752 82.709329 
L 485.353752 64.232979 
L 466.877402 64.232979 
z
" clip-path="url(#pb854e35c6b)" style="stroke: #000000; stroke-linejoin: miter"/>
   </g>
   <g id="patch_137">
    <path d="M 497.937942 82.984365 
L 516.964365 82.984365 
L 516.964365 63.957942 
L 497.937942 63.957942 
z
" clip-path="url(#pb854e35c6b)" style="stroke: #000000; stroke-linejoin: miter"/>
   </g>
   <g id="patch_138">
    <path d="M 528.027463 84.230422 
L 549.545999 84.230422 
L 549.545999 62.711886 
L 528.027463 62.711886 
z
" clip-path="url(#pb854e35c6b)" style="stroke: #000000; stroke-linejoin: miter"/>
   </g>
   <g id="patch_139">
    <path d="M 558.8118 84.781661 
L 581.432815 84.781661 
L 581.432815 62.160646 
L 558.8118 62.160646 
z
" clip-path="url(#pb854e35c6b)" style="stroke: #000000; stroke-linejoin: miter"/>
   </g>
   <g id="patch_140">
    <path d="M 589.589517 85.339521 
L 613.326252 85.339521 
L 613.326252 61.602786 
L 589.589517 61.602786 
z
" clip-path="url(#pb854e35c6b)" style="stroke: #000000; stroke-linejoin: miter"/>
   </g>
   <g id="patch_141">
    <path d="M 621.348303 84.916312 
L 644.23862 84.916312 
L 644.23862 62.025995 
L 621.348303 62.025995 
z
" clip-path="url(#pb854e35c6b)" style="stroke: #000000; stroke-linejoin: miter"/>
   </g>
   <g id="patch_142">
    <path d="M 652.0337 85.566493 
L 676.224377 85.566493 
L 676.224377 61.375815 
L 652.0337 61.375815 
z
" clip-path="url(#pb854e35c6b)" style="stroke: #000000; stroke-linejoin: miter"/>
   </g>
   <g id="patch_143">
    <path d="M 683.148734 85.787035 
L 707.780497 85.787035 
L 707.780497 61.155272 
L 683.148734 61.155272 
z
" clip-path="url(#pb854e35c6b)" style="stroke: #000000; stroke-linejoin: miter"/>
   </g>
   <g id="patch_144">
    <path d="M 714.728902 85.542444 
L 738.871483 85.542444 
L 738.871483 61.399863 
L 714.728902 61.399863 
z
" clip-path="url(#pb854e35c6b)" style="stroke: #000000; stroke-linejoin: miter"/>
   </g>
   <g id="patch_145">
    <path d="M 745.601538 86.005385 
L 770.67 86.005385 
L 770.67 60.936923 
L 745.601538 60.936923 
z
" clip-path="url(#pb854e35c6b)" style="stroke: #000000; stroke-linejoin: miter"/>
   </g>
   <g id="patch_146">
    <path d="M 776.937115 86.005385 
L 802.005577 86.005385 
L 802.005577 60.936923 
L 776.937115 60.936923 
z
" clip-path="url(#pb854e35c6b)" style="stroke: #000000; stroke-linejoin: miter"/>
   </g>
   <g id="matplotlib.axis_1">
    <g id="xtick_1">
     <g id="line2d_1">
      <defs>
       <path id="m7b51290a74" d="M 0 0 
L 0 3.5 
" style="stroke: #000000; stroke-width: 0.8"/>
      </defs>
      <g>
       <use xlink:href="#m7b51290a74" x="68.753077" y="261.484615" style="stroke: #000000; stroke-width: 0.8"/>
      </g>
     </g>
     <g id="text_1">
      <!-- 1 -->
      <g transform="translate(65.742921 282.636178) scale(0.1 -0.1)">
       <defs>
        <path id="DejaVuSansMono-31" d="M 844 531 
L 1825 531 
L 1825 4097 
L 769 3859 
L 769 4434 
L 1819 4666 
L 2450 4666 
L 2450 531 
L 3419 531 
L 3419 0 
L 844 0 
L 844 531 
z
" transform="scale(0.015625)"/>
       </defs>
       <use xlink:href="#DejaVuSansMono-31"/>
      </g>
     </g>
    </g>
    <g id="xtick_2">
     <g id="line2d_2">
      <g>
       <use xlink:href="#m7b51290a74" x="256.766538" y="261.484615" style="stroke: #000000; stroke-width: 0.8"/>
      </g>
     </g>
     <g id="text_2">
      <!-- 25 -->
      <g transform="translate(250.746226 282.636178) scale(0.1 -0.1)">
       <defs>
        <path id="DejaVuSansMono-32" d="M 1166 531 
L 3309 531 
L 3309 0 
L 475 0 
L 475 531 
Q 1059 1147 1496 1619 
Q 1934 2091 2100 2284 
Q 2413 2666 2522 2902 
Q 2631 3138 2631 3384 
Q 2631 3775 2401 3997 
Q 2172 4219 1772 4219 
Q 1488 4219 1175 4116 
Q 863 4013 513 3803 
L 513 4441 
Q 834 4594 1145 4672 
Q 1456 4750 1759 4750 
Q 2444 4750 2861 4386 
Q 3278 4022 3278 3431 
Q 3278 3131 3139 2831 
Q 3000 2531 2688 2169 
Q 2513 1966 2180 1606 
Q 1847 1247 1166 531 
z
" transform="scale(0.015625)"/>
        <path id="DejaVuSansMono-35" d="M 647 4666 
L 3009 4666 
L 3009 4134 
L 1222 4134 
L 1222 2988 
Q 1356 3038 1492 3061 
Q 1628 3084 1766 3084 
Q 2491 3084 2916 2656 
Q 3341 2228 3341 1497 
Q 3341 759 2895 334 
Q 2450 -91 1678 -91 
Q 1306 -91 998 -41 
Q 691 9 447 109 
L 447 750 
Q 734 594 1025 517 
Q 1316 441 1619 441 
Q 2141 441 2423 716 
Q 2706 991 2706 1497 
Q 2706 1997 2414 2275 
Q 2122 2553 1600 2553 
Q 1347 2553 1106 2495 
Q 866 2438 647 2322 
L 647 4666 
z
" transform="scale(0.015625)"/>
       </defs>
       <use xlink:href="#DejaVuSansMono-32"/>
       <use xlink:href="#DejaVuSansMono-35" x="60.205078"/>
      </g>
     </g>
    </g>
    <g id="xtick_3">
     <g id="line2d_3">
      <g>
       <use xlink:href="#m7b51290a74" x="444.78" y="261.484615" style="stroke: #000000; stroke-width: 0.8"/>
      </g>
     </g>
     <g id="text_3">
      <!-- 50 -->
      <g transform="translate(438.759688 282.636178) scale(0.1 -0.1)">
       <defs>
        <path id="DejaVuSansMono-30" d="M 1509 2344 
Q 1509 2516 1629 2641 
Q 1750 2766 1919 2766 
Q 2094 2766 2219 2641 
Q 2344 2516 2344 2344 
Q 2344 2169 2220 2047 
Q 2097 1925 1919 1925 
Q 1744 1925 1626 2044 
Q 1509 2163 1509 2344 
z
M 1925 4250 
Q 1484 4250 1267 3775 
Q 1050 3300 1050 2328 
Q 1050 1359 1267 884 
Q 1484 409 1925 409 
Q 2369 409 2586 884 
Q 2803 1359 2803 2328 
Q 2803 3300 2586 3775 
Q 2369 4250 1925 4250 
z
M 1925 4750 
Q 2672 4750 3055 4137 
Q 3438 3525 3438 2328 
Q 3438 1134 3055 521 
Q 2672 -91 1925 -91 
Q 1178 -91 797 521 
Q 416 1134 416 2328 
Q 416 3525 797 4137 
Q 1178 4750 1925 4750 
z
" transform="scale(0.015625)"/>
       </defs>
       <use xlink:href="#DejaVuSansMono-35"/>
       <use xlink:href="#DejaVuSansMono-30" x="60.205078"/>
      </g>
     </g>
    </g>
    <g id="xtick_4">
     <g id="line2d_4">
      <g>
       <use xlink:href="#m7b51290a74" x="632.793462" y="261.484615" style="stroke: #000000; stroke-width: 0.8"/>
      </g>
     </g>
     <g id="text_4">
      <!-- 75 -->
      <g transform="translate(626.773149 282.636178) scale(0.1 -0.1)">
       <defs>
        <path id="DejaVuSansMono-37" d="M 434 4666 
L 3372 4666 
L 3372 4397 
L 1703 0 
L 1044 0 
L 2669 4134 
L 434 4134 
L 434 4666 
z
" transform="scale(0.015625)"/>
       </defs>
       <use xlink:href="#DejaVuSansMono-37"/>
       <use xlink:href="#DejaVuSansMono-35" x="60.205078"/>
      </g>
     </g>
    </g>
    <g id="xtick_5">
     <g id="line2d_5">
      <g>
       <use xlink:href="#m7b51290a74" x="789.471346" y="261.484615" style="stroke: #000000; stroke-width: 0.8"/>
      </g>
     </g>
     <g id="text_5">
      <!-- 100 -->
      <g transform="translate(780.440877 282.636178) scale(0.1 -0.1)">
       <use xlink:href="#DejaVuSansMono-31"/>
       <use xlink:href="#DejaVuSansMono-30" x="60.205078"/>
       <use xlink:href="#DejaVuSansMono-30" x="120.410156"/>
      </g>
     </g>
    </g>
   </g>
   <g id="matplotlib.axis_2">
    <g id="ytick_1">
     <g id="line2d_6">
      <defs>
       <path id="mfc8ccee3e4" d="M 0 0 
L -3.5 0 
" style="stroke: #000000; stroke-width: 0.8"/>
      </defs>
      <g>
       <use xlink:href="#mfc8ccee3e4" x="37.4175" y="230.149038" style="stroke: #000000; stroke-width: 0.8"/>
      </g>
     </g>
     <g id="text_6">
      <!-- 2 -->
      <g transform="translate(17.897188 233.97482) scale(0.1 -0.1)">
       <use xlink:href="#DejaVuSansMono-32"/>
      </g>
     </g>
    </g>
    <g id="ytick_2">
     <g id="line2d_7">
      <g>
       <use xlink:href="#mfc8ccee3e4" x="37.4175" y="198.813462" style="stroke: #000000; stroke-width: 0.8"/>
      </g>
     </g>
     <g id="text_7">
      <!-- 3 -->
      <g transform="translate(17.897188 202.639243) scale(0.1 -0.1)">
       <defs>
        <path id="DejaVuSansMono-33" d="M 2425 2497 
Q 2884 2375 3128 2064 
Q 3372 1753 3372 1288 
Q 3372 644 2939 276 
Q 2506 -91 1741 -91 
Q 1419 -91 1084 -31 
Q 750 28 428 141 
L 428 769 
Q 747 603 1056 522 
Q 1366 441 1672 441 
Q 2191 441 2469 675 
Q 2747 909 2747 1350 
Q 2747 1756 2469 1995 
Q 2191 2234 1716 2234 
L 1234 2234 
L 1234 2753 
L 1716 2753 
Q 2150 2753 2394 2943 
Q 2638 3134 2638 3475 
Q 2638 3834 2411 4026 
Q 2184 4219 1766 4219 
Q 1488 4219 1191 4156 
Q 894 4094 569 3969 
L 569 4550 
Q 947 4650 1242 4700 
Q 1538 4750 1766 4750 
Q 2447 4750 2855 4408 
Q 3263 4066 3263 3500 
Q 3263 3116 3048 2859 
Q 2834 2603 2425 2497 
z
" transform="scale(0.015625)"/>
       </defs>
       <use xlink:href="#DejaVuSansMono-33"/>
      </g>
     </g>
    </g>
    <g id="ytick_3">
     <g id="line2d_8">
      <g>
       <use xlink:href="#mfc8ccee3e4" x="37.4175" y="167.477885" style="stroke: #000000; stroke-width: 0.8"/>
      </g>
     </g>
     <g id="text_8">
      <!-- 5 -->
      <g transform="translate(17.897188 171.303666) scale(0.1 -0.1)">
       <use xlink:href="#DejaVuSansMono-35"/>
      </g>
     </g>
    </g>
    <g id="ytick_4">
     <g id="line2d_9">
      <g>
       <use xlink:href="#mfc8ccee3e4" x="37.4175" y="136.142308" style="stroke: #000000; stroke-width: 0.8"/>
      </g>
     </g>
     <g id="text_9">
      <!-- 7 -->
      <g transform="translate(17.897188 139.968089) scale(0.1 -0.1)">
       <use xlink:href="#DejaVuSansMono-37"/>
      </g>
     </g>
    </g>
    <g id="ytick_5">
     <g id="line2d_10">
      <g>
       <use xlink:href="#mfc8ccee3e4" x="37.4175" y="104.806731" style="stroke: #000000; stroke-width: 0.8"/>
      </g>
     </g>
     <g id="text_10">
      <!-- 11 -->
      <g transform="translate(11.876875 108.632512) scale(0.1 -0.1)">
       <use xlink:href="#DejaVuSansMono-31"/>
       <use xlink:href="#DejaVuSansMono-31" x="60.205078"/>
      </g>
     </g>
    </g>
    <g id="ytick_6">
     <g id="line2d_11">
      <g>
       <use xlink:href="#mfc8ccee3e4" x="37.4175" y="73.471154" style="stroke: #000000; stroke-width: 0.8"/>
      </g>
     </g>
     <g id="text_11">
      <!-- ℙ -->
      <g transform="translate(17.897188 77.296935) scale(0.1 -0.1)">
       <defs>
        <path id="DejaVuSansMono-2119" d="M 506 4353 
L 506 313 
L 1106 313 
L 1106 4353 
L 506 4353 
z
M 1406 4353 
L 1406 2284 
L 2306 2284 
Q 2378 2284 2447 2291 
L 2447 4347 
Q 2378 4353 2306 4353 
L 1406 4353 
z
M 206 4666 
L 2166 4666 
Q 2913 4666 3297 4323 
Q 3681 3981 3681 3322 
Q 3681 2656 3297 2315 
Q 2913 1975 2163 1975 
L 1406 1975 
L 1406 0 
L 206 0 
L 206 4666 
z
M 2759 4281 
L 2759 2359 
Q 2941 2428 3075 2556 
Q 3353 2825 3353 3322 
Q 3353 3816 3078 4084 
Q 2947 4213 2759 4281 
z
" transform="scale(0.015625)"/>
       </defs>
       <use xlink:href="#DejaVuSansMono-2119"/>
      </g>
     </g>
    </g>
   </g>
   <g id="text_12">
    <!-- base : 11   |   emb : 64   |   heads : 4   |   depth : 3   |   lr : 0.0003   |   l2 : 0.01   |   dropout : 0.01 -->
    <g transform="translate(110.652656 39.002019) scale(0.1 -0.1)">
     <defs>
      <path id="DejaVuSansMono-62" d="M 2869 1747 
Q 2869 2416 2656 2756 
Q 2444 3097 2028 3097 
Q 1609 3097 1393 2755 
Q 1178 2413 1178 1747 
Q 1178 1084 1393 740 
Q 1609 397 2028 397 
Q 2444 397 2656 737 
Q 2869 1078 2869 1747 
z
M 1178 3053 
Q 1316 3309 1558 3446 
Q 1800 3584 2119 3584 
Q 2750 3584 3112 3098 
Q 3475 2613 3475 1759 
Q 3475 894 3111 401 
Q 2747 -91 2113 -91 
Q 1800 -91 1561 45 
Q 1322 181 1178 441 
L 1178 0 
L 603 0 
L 603 4863 
L 1178 4863 
L 1178 3053 
z
" transform="scale(0.015625)"/>
      <path id="DejaVuSansMono-61" d="M 2194 1759 
L 2003 1759 
Q 1500 1759 1245 1582 
Q 991 1406 991 1056 
Q 991 741 1181 566 
Q 1372 391 1709 391 
Q 2184 391 2456 720 
Q 2728 1050 2731 1631 
L 2731 1759 
L 2194 1759 
z
M 3309 1997 
L 3309 0 
L 2731 0 
L 2731 519 
Q 2547 206 2267 57 
Q 1988 -91 1588 -91 
Q 1053 -91 734 211 
Q 416 513 416 1019 
Q 416 1603 808 1906 
Q 1200 2209 1959 2209 
L 2731 2209 
L 2731 2300 
Q 2728 2719 2518 2908 
Q 2309 3097 1850 3097 
Q 1556 3097 1256 3012 
Q 956 2928 672 2766 
L 672 3341 
Q 991 3463 1283 3523 
Q 1575 3584 1850 3584 
Q 2284 3584 2592 3456 
Q 2900 3328 3091 3072 
Q 3209 2916 3259 2686 
Q 3309 2456 3309 1997 
z
" transform="scale(0.015625)"/>
      <path id="DejaVuSansMono-73" d="M 3041 3378 
L 3041 2816 
Q 2794 2959 2544 3031 
Q 2294 3103 2034 3103 
Q 1644 3103 1451 2976 
Q 1259 2850 1259 2591 
Q 1259 2356 1403 2240 
Q 1547 2125 2119 2016 
L 2350 1972 
Q 2778 1891 2998 1647 
Q 3219 1403 3219 1013 
Q 3219 494 2850 201 
Q 2481 -91 1825 -91 
Q 1566 -91 1281 -36 
Q 997 19 666 128 
L 666 722 
Q 988 556 1281 473 
Q 1575 391 1838 391 
Q 2219 391 2428 545 
Q 2638 700 2638 978 
Q 2638 1378 1872 1531 
L 1847 1538 
L 1631 1581 
Q 1134 1678 906 1908 
Q 678 2138 678 2534 
Q 678 3038 1018 3311 
Q 1359 3584 1991 3584 
Q 2272 3584 2531 3532 
Q 2791 3481 3041 3378 
z
" transform="scale(0.015625)"/>
      <path id="DejaVuSansMono-65" d="M 3475 1894 
L 3475 1613 
L 984 1613 
L 984 1594 
Q 984 1022 1282 709 
Q 1581 397 2125 397 
Q 2400 397 2700 484 
Q 3000 572 3341 750 
L 3341 178 
Q 3013 44 2708 -23 
Q 2403 -91 2119 -91 
Q 1303 -91 843 398 
Q 384 888 384 1747 
Q 384 2584 834 3084 
Q 1284 3584 2034 3584 
Q 2703 3584 3089 3131 
Q 3475 2678 3475 1894 
z
M 2900 2063 
Q 2888 2569 2661 2833 
Q 2434 3097 2009 3097 
Q 1594 3097 1325 2822 
Q 1056 2547 1006 2059 
L 2900 2063 
z
" transform="scale(0.015625)"/>
      <path id="DejaVuSansMono-20" transform="scale(0.015625)"/>
      <path id="DejaVuSansMono-3a" d="M 1528 3322 
L 2316 3322 
L 2316 2375 
L 1528 2375 
L 1528 3322 
z
M 1528 953 
L 2316 953 
L 2316 0 
L 1528 0 
L 1528 953 
z
" transform="scale(0.015625)"/>
      <path id="DejaVuSansMono-7c" d="M 2194 4891 
L 2194 -1509 
L 1656 -1509 
L 1656 4891 
L 2194 4891 
z
" transform="scale(0.015625)"/>
      <path id="DejaVuSansMono-6d" d="M 2113 3144 
Q 2219 3369 2383 3476 
Q 2547 3584 2778 3584 
Q 3200 3584 3373 3257 
Q 3547 2931 3547 2028 
L 3547 0 
L 3022 0 
L 3022 2003 
Q 3022 2744 2939 2923 
Q 2856 3103 2638 3103 
Q 2388 3103 2295 2911 
Q 2203 2719 2203 2003 
L 2203 0 
L 1678 0 
L 1678 2003 
Q 1678 2753 1589 2928 
Q 1500 3103 1269 3103 
Q 1041 3103 952 2911 
Q 863 2719 863 2003 
L 863 0 
L 341 0 
L 341 3500 
L 863 3500 
L 863 3200 
Q 966 3388 1120 3486 
Q 1275 3584 1472 3584 
Q 1709 3584 1867 3475 
Q 2025 3366 2113 3144 
z
" transform="scale(0.015625)"/>
      <path id="DejaVuSansMono-36" d="M 3097 4563 
L 3097 3981 
Q 2900 4097 2678 4158 
Q 2456 4219 2216 4219 
Q 1616 4219 1306 3767 
Q 997 3316 997 2438 
Q 1147 2750 1412 2917 
Q 1678 3084 2022 3084 
Q 2697 3084 3067 2670 
Q 3438 2256 3438 1497 
Q 3438 741 3056 325 
Q 2675 -91 1984 -91 
Q 1172 -91 794 492 
Q 416 1075 416 2328 
Q 416 3509 870 4129 
Q 1325 4750 2188 4750 
Q 2419 4750 2650 4701 
Q 2881 4653 3097 4563 
z
M 1972 2591 
Q 1569 2591 1337 2300 
Q 1106 2009 1106 1497 
Q 1106 984 1337 693 
Q 1569 403 1972 403 
Q 2391 403 2603 679 
Q 2816 956 2816 1497 
Q 2816 2041 2603 2316 
Q 2391 2591 1972 2591 
z
" transform="scale(0.015625)"/>
      <path id="DejaVuSansMono-34" d="M 2297 4091 
L 825 1625 
L 2297 1625 
L 2297 4091 
z
M 2194 4666 
L 2925 4666 
L 2925 1625 
L 3547 1625 
L 3547 1113 
L 2925 1113 
L 2925 0 
L 2297 0 
L 2297 1113 
L 319 1113 
L 319 1709 
L 2194 4666 
z
" transform="scale(0.015625)"/>
      <path id="DejaVuSansMono-68" d="M 3284 2169 
L 3284 0 
L 2706 0 
L 2706 2169 
Q 2706 2641 2540 2862 
Q 2375 3084 2022 3084 
Q 1619 3084 1401 2798 
Q 1184 2513 1184 1978 
L 1184 0 
L 609 0 
L 609 4863 
L 1184 4863 
L 1184 2975 
Q 1338 3275 1600 3429 
Q 1863 3584 2222 3584 
Q 2756 3584 3020 3232 
Q 3284 2881 3284 2169 
z
" transform="scale(0.015625)"/>
      <path id="DejaVuSansMono-64" d="M 2681 3053 
L 2681 4863 
L 3256 4863 
L 3256 0 
L 2681 0 
L 2681 441 
Q 2538 181 2298 45 
Q 2059 -91 1747 -91 
Q 1113 -91 748 401 
Q 384 894 384 1759 
Q 384 2613 750 3098 
Q 1116 3584 1747 3584 
Q 2063 3584 2303 3448 
Q 2544 3313 2681 3053 
z
M 991 1747 
Q 991 1078 1203 737 
Q 1416 397 1831 397 
Q 2247 397 2464 740 
Q 2681 1084 2681 1747 
Q 2681 2413 2464 2755 
Q 2247 3097 1831 3097 
Q 1416 3097 1203 2756 
Q 991 2416 991 1747 
z
" transform="scale(0.015625)"/>
      <path id="DejaVuSansMono-70" d="M 1172 441 
L 1172 -1331 
L 594 -1331 
L 594 3500 
L 1172 3500 
L 1172 3053 
Q 1316 3313 1555 3448 
Q 1794 3584 2106 3584 
Q 2741 3584 3102 3093 
Q 3463 2603 3463 1734 
Q 3463 881 3100 395 
Q 2738 -91 2106 -91 
Q 1788 -91 1548 45 
Q 1309 181 1172 441 
z
M 2859 1747 
Q 2859 2416 2648 2756 
Q 2438 3097 2022 3097 
Q 1603 3097 1387 2755 
Q 1172 2413 1172 1747 
Q 1172 1084 1387 740 
Q 1603 397 2022 397 
Q 2438 397 2648 737 
Q 2859 1078 2859 1747 
z
" transform="scale(0.015625)"/>
      <path id="DejaVuSansMono-74" d="M 1919 4494 
L 1919 3500 
L 3225 3500 
L 3225 3053 
L 1919 3053 
L 1919 1153 
Q 1919 766 2066 612 
Q 2213 459 2578 459 
L 3225 459 
L 3225 0 
L 2522 0 
Q 1875 0 1609 259 
Q 1344 519 1344 1153 
L 1344 3053 
L 409 3053 
L 409 3500 
L 1344 3500 
L 1344 4494 
L 1919 4494 
z
" transform="scale(0.015625)"/>
      <path id="DejaVuSansMono-6c" d="M 1997 1269 
Q 1997 881 2139 684 
Q 2281 488 2559 488 
L 3231 488 
L 3231 0 
L 2503 0 
Q 1988 0 1705 331 
Q 1422 663 1422 1269 
L 1422 4447 
L 500 4447 
L 500 4897 
L 1997 4897 
L 1997 1269 
z
" transform="scale(0.015625)"/>
      <path id="DejaVuSansMono-72" d="M 3609 2778 
Q 3425 2922 3234 2987 
Q 3044 3053 2816 3053 
Q 2278 3053 1993 2715 
Q 1709 2378 1709 1741 
L 1709 0 
L 1131 0 
L 1131 3500 
L 1709 3500 
L 1709 2816 
Q 1853 3188 2151 3386 
Q 2450 3584 2859 3584 
Q 3072 3584 3256 3531 
Q 3441 3478 3609 3366 
L 3609 2778 
z
" transform="scale(0.015625)"/>
      <path id="DejaVuSansMono-2e" d="M 1528 953 
L 2316 953 
L 2316 0 
L 1528 0 
L 1528 953 
z
" transform="scale(0.015625)"/>
      <path id="DejaVuSansMono-6f" d="M 1925 3097 
Q 1488 3097 1263 2756 
Q 1038 2416 1038 1747 
Q 1038 1081 1263 739 
Q 1488 397 1925 397 
Q 2366 397 2591 739 
Q 2816 1081 2816 1747 
Q 2816 2416 2591 2756 
Q 2366 3097 1925 3097 
z
M 1925 3584 
Q 2653 3584 3039 3112 
Q 3425 2641 3425 1747 
Q 3425 850 3040 379 
Q 2656 -91 1925 -91 
Q 1197 -91 812 379 
Q 428 850 428 1747 
Q 428 2641 812 3112 
Q 1197 3584 1925 3584 
z
" transform="scale(0.015625)"/>
      <path id="DejaVuSansMono-75" d="M 609 1325 
L 609 3494 
L 1184 3494 
L 1184 1325 
Q 1184 853 1351 631 
Q 1519 409 1869 409 
Q 2275 409 2490 695 
Q 2706 981 2706 1516 
L 2706 3494 
L 3284 3494 
L 3284 0 
L 2706 0 
L 2706 525 
Q 2553 222 2289 65 
Q 2025 -91 1672 -91 
Q 1134 -91 871 261 
Q 609 613 609 1325 
z
" transform="scale(0.015625)"/>
     </defs>
     <use xlink:href="#DejaVuSansMono-62"/>
     <use xlink:href="#DejaVuSansMono-61" x="60.205078"/>
     <use xlink:href="#DejaVuSansMono-73" x="120.410156"/>
     <use xlink:href="#DejaVuSansMono-65" x="180.615234"/>
     <use xlink:href="#DejaVuSansMono-20" x="240.820312"/>
     <use xlink:href="#DejaVuSansMono-3a" x="301.025391"/>
     <use xlink:href="#DejaVuSansMono-20" x="361.230469"/>
     <use xlink:href="#DejaVuSansMono-31" x="421.435547"/>
     <use xlink:href="#DejaVuSansMono-31" x="481.640625"/>
     <use xlink:href="#DejaVuSansMono-20" x="541.845703"/>
     <use xlink:href="#DejaVuSansMono-20" x="602.050781"/>
     <use xlink:href="#DejaVuSansMono-20" x="662.255859"/>
     <use xlink:href="#DejaVuSansMono-7c" x="722.460938"/>
     <use xlink:href="#DejaVuSansMono-20" x="782.666016"/>
     <use xlink:href="#DejaVuSansMono-20" x="842.871094"/>
     <use xlink:href="#DejaVuSansMono-20" x="903.076172"/>
     <use xlink:href="#DejaVuSansMono-65" x="963.28125"/>
     <use xlink:href="#DejaVuSansMono-6d" x="1023.486328"/>
     <use xlink:href="#DejaVuSansMono-62" x="1083.691406"/>
     <use xlink:href="#DejaVuSansMono-20" x="1143.896484"/>
     <use xlink:href="#DejaVuSansMono-3a" x="1204.101562"/>
     <use xlink:href="#DejaVuSansMono-20" x="1264.306641"/>
     <use xlink:href="#DejaVuSansMono-36" x="1324.511719"/>
     <use xlink:href="#DejaVuSansMono-34" x="1384.716797"/>
     <use xlink:href="#DejaVuSansMono-20" x="1444.921875"/>
     <use xlink:href="#DejaVuSansMono-20" x="1505.126953"/>
     <use xlink:href="#DejaVuSansMono-20" x="1565.332031"/>
     <use xlink:href="#DejaVuSansMono-7c" x="1625.537109"/>
     <use xlink:href="#DejaVuSansMono-20" x="1685.742188"/>
     <use xlink:href="#DejaVuSansMono-20" x="1745.947266"/>
     <use xlink:href="#DejaVuSansMono-20" x="1806.152344"/>
     <use xlink:href="#DejaVuSansMono-68" x="1866.357422"/>
     <use xlink:href="#DejaVuSansMono-65" x="1926.5625"/>
     <use xlink:href="#DejaVuSansMono-61" x="1986.767578"/>
     <use xlink:href="#DejaVuSansMono-64" x="2046.972656"/>
     <use xlink:href="#DejaVuSansMono-73" x="2107.177734"/>
     <use xlink:href="#DejaVuSansMono-20" x="2167.382812"/>
     <use xlink:href="#DejaVuSansMono-3a" x="2227.587891"/>
     <use xlink:href="#DejaVuSansMono-20" x="2287.792969"/>
     <use xlink:href="#DejaVuSansMono-34" x="2347.998047"/>
     <use xlink:href="#DejaVuSansMono-20" x="2408.203125"/>
     <use xlink:href="#DejaVuSansMono-20" x="2468.408203"/>
     <use xlink:href="#DejaVuSansMono-20" x="2528.613281"/>
     <use xlink:href="#DejaVuSansMono-7c" x="2588.818359"/>
     <use xlink:href="#DejaVuSansMono-20" x="2649.023438"/>
     <use xlink:href="#DejaVuSansMono-20" x="2709.228516"/>
     <use xlink:href="#DejaVuSansMono-20" x="2769.433594"/>
     <use xlink:href="#DejaVuSansMono-64" x="2829.638672"/>
     <use xlink:href="#DejaVuSansMono-65" x="2889.84375"/>
     <use xlink:href="#DejaVuSansMono-70" x="2950.048828"/>
     <use xlink:href="#DejaVuSansMono-74" x="3010.253906"/>
     <use xlink:href="#DejaVuSansMono-68" x="3070.458984"/>
     <use xlink:href="#DejaVuSansMono-20" x="3130.664062"/>
     <use xlink:href="#DejaVuSansMono-3a" x="3190.869141"/>
     <use xlink:href="#DejaVuSansMono-20" x="3251.074219"/>
     <use xlink:href="#DejaVuSansMono-33" x="3311.279297"/>
     <use xlink:href="#DejaVuSansMono-20" x="3371.484375"/>
     <use xlink:href="#DejaVuSansMono-20" x="3431.689453"/>
     <use xlink:href="#DejaVuSansMono-20" x="3491.894531"/>
     <use xlink:href="#DejaVuSansMono-7c" x="3552.099609"/>
     <use xlink:href="#DejaVuSansMono-20" x="3612.304688"/>
     <use xlink:href="#DejaVuSansMono-20" x="3672.509766"/>
     <use xlink:href="#DejaVuSansMono-20" x="3732.714844"/>
     <use xlink:href="#DejaVuSansMono-6c" x="3792.919922"/>
     <use xlink:href="#DejaVuSansMono-72" x="3853.125"/>
     <use xlink:href="#DejaVuSansMono-20" x="3913.330078"/>
     <use xlink:href="#DejaVuSansMono-3a" x="3973.535156"/>
     <use xlink:href="#DejaVuSansMono-20" x="4033.740234"/>
     <use xlink:href="#DejaVuSansMono-30" x="4093.945312"/>
     <use xlink:href="#DejaVuSansMono-2e" x="4154.150391"/>
     <use xlink:href="#DejaVuSansMono-30" x="4214.355469"/>
     <use xlink:href="#DejaVuSansMono-30" x="4274.560547"/>
     <use xlink:href="#DejaVuSansMono-30" x="4334.765625"/>
     <use xlink:href="#DejaVuSansMono-33" x="4394.970703"/>
     <use xlink:href="#DejaVuSansMono-20" x="4455.175781"/>
     <use xlink:href="#DejaVuSansMono-20" x="4515.380859"/>
     <use xlink:href="#DejaVuSansMono-20" x="4575.585938"/>
     <use xlink:href="#DejaVuSansMono-7c" x="4635.791016"/>
     <use xlink:href="#DejaVuSansMono-20" x="4695.996094"/>
     <use xlink:href="#DejaVuSansMono-20" x="4756.201172"/>
     <use xlink:href="#DejaVuSansMono-20" x="4816.40625"/>
     <use xlink:href="#DejaVuSansMono-6c" x="4876.611328"/>
     <use xlink:href="#DejaVuSansMono-32" x="4936.816406"/>
     <use xlink:href="#DejaVuSansMono-20" x="4997.021484"/>
     <use xlink:href="#DejaVuSansMono-3a" x="5057.226562"/>
     <use xlink:href="#DejaVuSansMono-20" x="5117.431641"/>
     <use xlink:href="#DejaVuSansMono-30" x="5177.636719"/>
     <use xlink:href="#DejaVuSansMono-2e" x="5237.841797"/>
     <use xlink:href="#DejaVuSansMono-30" x="5298.046875"/>
     <use xlink:href="#DejaVuSansMono-31" x="5358.251953"/>
     <use xlink:href="#DejaVuSansMono-20" x="5418.457031"/>
     <use xlink:href="#DejaVuSansMono-20" x="5478.662109"/>
     <use xlink:href="#DejaVuSansMono-20" x="5538.867188"/>
     <use xlink:href="#DejaVuSansMono-7c" x="5599.072266"/>
     <use xlink:href="#DejaVuSansMono-20" x="5659.277344"/>
     <use xlink:href="#DejaVuSansMono-20" x="5719.482422"/>
     <use xlink:href="#DejaVuSansMono-20" x="5779.6875"/>
     <use xlink:href="#DejaVuSansMono-64" x="5839.892578"/>
     <use xlink:href="#DejaVuSansMono-72" x="5900.097656"/>
     <use xlink:href="#DejaVuSansMono-6f" x="5960.302734"/>
     <use xlink:href="#DejaVuSansMono-70" x="6020.507812"/>
     <use xlink:href="#DejaVuSansMono-6f" x="6080.712891"/>
     <use xlink:href="#DejaVuSansMono-75" x="6140.917969"/>
     <use xlink:href="#DejaVuSansMono-74" x="6201.123047"/>
     <use xlink:href="#DejaVuSansMono-20" x="6261.328125"/>
     <use xlink:href="#DejaVuSansMono-3a" x="6321.533203"/>
     <use xlink:href="#DejaVuSansMono-20" x="6381.738281"/>
     <use xlink:href="#DejaVuSansMono-30" x="6441.943359"/>
     <use xlink:href="#DejaVuSansMono-2e" x="6502.148438"/>
     <use xlink:href="#DejaVuSansMono-30" x="6562.353516"/>
     <use xlink:href="#DejaVuSansMono-31" x="6622.558594"/>
    </g>
   </g>
   <g id="text_13">
    <!-- train f1 -->
    <g transform="translate(822.886611 127.728846) rotate(-270) scale(0.1 -0.1)">
     <defs>
      <path id="DejaVuSansMono-69" d="M 800 3500 
L 2272 3500 
L 2272 447 
L 3413 447 
L 3413 0 
L 556 0 
L 556 447 
L 1697 447 
L 1697 3053 
L 800 3053 
L 800 3500 
z
M 1697 4863 
L 2272 4863 
L 2272 4134 
L 1697 4134 
L 1697 4863 
z
" transform="scale(0.015625)"/>
      <path id="DejaVuSansMono-6e" d="M 3284 2169 
L 3284 0 
L 2706 0 
L 2706 2169 
Q 2706 2641 2540 2862 
Q 2375 3084 2022 3084 
Q 1619 3084 1401 2798 
Q 1184 2513 1184 1978 
L 1184 0 
L 609 0 
L 609 3500 
L 1184 3500 
L 1184 2975 
Q 1338 3275 1600 3429 
Q 1863 3584 2222 3584 
Q 2756 3584 3020 3232 
Q 3284 2881 3284 2169 
z
" transform="scale(0.015625)"/>
      <path id="DejaVuSansMono-66" d="M 3322 4863 
L 3322 4384 
L 2669 4384 
Q 2359 4384 2239 4257 
Q 2119 4131 2119 3809 
L 2119 3500 
L 3322 3500 
L 3322 3053 
L 2119 3053 
L 2119 0 
L 1544 0 
L 1544 3053 
L 609 3053 
L 609 3500 
L 1544 3500 
L 1544 3744 
Q 1544 4319 1808 4591 
Q 2072 4863 2631 4863 
L 3322 4863 
z
" transform="scale(0.015625)"/>
     </defs>
     <use xlink:href="#DejaVuSansMono-74"/>
     <use xlink:href="#DejaVuSansMono-72" x="60.205078"/>
     <use xlink:href="#DejaVuSansMono-61" x="120.410156"/>
     <use xlink:href="#DejaVuSansMono-69" x="180.615234"/>
     <use xlink:href="#DejaVuSansMono-6e" x="240.820312"/>
     <use xlink:href="#DejaVuSansMono-20" x="301.025391"/>
     <use xlink:href="#DejaVuSansMono-66" x="361.230469"/>
     <use xlink:href="#DejaVuSansMono-31" x="421.435547"/>
    </g>
   </g>
  </g>
 </g>
 <defs>
  <clipPath id="pb854e35c6b">
   <rect x="37.4175" y="10.8" width="814.725" height="250.684615"/>
  </clipPath>
 </defs>
</svg>
