<?xml version="1.0" encoding="utf-8" standalone="no"?>
<!DOCTYPE svg PUBLIC "-//W3C//DTD SVG 1.1//EN"
  "http://www.w3.org/Graphics/SVG/1.1/DTD/svg11.dtd">
<svg xmlns:xlink="http://www.w3.org/1999/xlink" width="864pt" height="288pt" viewBox="0 0 864 288" xmlns="http://www.w3.org/2000/svg" version="1.1">
 <metadata>
  <rdf:RDF xmlns:dc="http://purl.org/dc/elements/1.1/" xmlns:cc="http://creativecommons.org/ns#" xmlns:rdf="http://www.w3.org/1999/02/22-rdf-syntax-ns#">
   <cc:Work>
    <dc:type rdf:resource="http://purl.org/dc/dcmitype/StillImage"/>
    <dc:date>2024-09-18T10:18:16.131313</dc:date>
    <dc:format>image/svg+xml</dc:format>
    <dc:creator>
     <cc:Agent>
      <dc:title>Matplotlib v3.9.2, https://matplotlib.org/</dc:title>
     </cc:Agent>
    </dc:creator>
   </cc:Work>
  </rdf:RDF>
 </metadata>
 <defs>
  <style type="text/css">*{stroke-linejoin: round; stroke-linecap: butt}</style>
 </defs>
 <g id="figure_1">
  <g id="patch_1">
   <path d="M 0 288 
L 864 288 
L 864 0 
L 0 0 
z
" style="fill: #ffffff"/>
  </g>
  <g id="axes_1">
   <g id="patch_2">
    <path d="M 37.4175 261.484615 
L 852.1425 261.484615 
L 852.1425 10.8 
L 37.4175 10.8 
z
" style="fill: #ffffff"/>
   </g>
   <g id="patch_3">
    <path d="M 49.734461 249.167655 
L 87.771693 249.167655 
L 87.771693 211.130422 
L 49.734461 211.130422 
z
" clip-path="url(#pdf7fc95202)" style="stroke: #000000; stroke-linejoin: miter"/>
   </g>
   <g id="patch_4">
    <path d="M 77.659769 252.577923 
L 122.517538 252.577923 
L 122.517538 207.720154 
L 77.659769 207.720154 
z
" clip-path="url(#pdf7fc95202)" style="stroke: #000000; stroke-linejoin: miter"/>
   </g>
   <g id="patch_5">
    <path d="M 108.548402 253.024867 
L 154.300059 253.024867 
L 154.300059 207.27321 
L 108.548402 207.27321 
z
" clip-path="url(#pdf7fc95202)" style="stroke: #000000; stroke-linejoin: miter"/>
   </g>
   <g id="patch_6">
    <path d="M 141.619908 251.288938 
L 183.899707 251.288938 
L 183.899707 209.009139 
L 141.619908 209.009139 
z
" clip-path="url(#pdf7fc95202)" style="stroke: #000000; stroke-linejoin: miter"/>
   </g>
   <g id="patch_7">
    <path d="M 174.826109 249.418314 
L 213.36466 249.418314 
L 213.36466 210.879763 
L 174.826109 210.879763 
z
" clip-path="url(#pdf7fc95202)" style="stroke: #000000; stroke-linejoin: miter"/>
   </g>
   <g id="patch_8">
    <path d="M 206.555762 249.024238 
L 244.306161 249.024238 
L 244.306161 211.273839 
L 206.555762 211.273839 
z
" clip-path="url(#pdf7fc95202)" style="stroke: #000000; stroke-linejoin: miter"/>
   </g>
   <g id="patch_9">
    <path d="M 236.431493 250.484084 
L 277.101584 250.484084 
L 277.101584 209.813993 
L 236.431493 209.813993 
z
" clip-path="url(#pdf7fc95202)" style="stroke: #000000; stroke-linejoin: miter"/>
   </g>
   <g id="patch_10">
    <path d="M 266.685241 251.565913 
L 309.51899 251.565913 
L 309.51899 208.732164 
L 266.685241 208.732164 
z
" clip-path="url(#pdf7fc95202)" style="stroke: #000000; stroke-linejoin: miter"/>
   </g>
   <g id="patch_11">
    <path d="M 299.062929 250.523802 
L 339.812456 250.523802 
L 339.812456 209.774275 
L 299.062929 209.774275 
z
" clip-path="url(#pdf7fc95202)" style="stroke: #000000; stroke-linejoin: miter"/>
   </g>
   <g id="patch_12">
    <path d="M 331.457494 249.464813 
L 370.089044 249.464813 
L 370.089044 210.833264 
L 331.457494 210.833264 
z
" clip-path="url(#pdf7fc95202)" style="stroke: #000000; stroke-linejoin: miter"/>
   </g>
   <g id="patch_13">
    <path d="M 362.320963 249.936922 
L 401.89673 249.936922 
L 401.89673 210.361155 
L 362.320963 210.361155 
z
" clip-path="url(#pdf7fc95202)" style="stroke: #000000; stroke-linejoin: miter"/>
   </g>
   <g id="patch_14">
    <path d="M 394.788996 248.804465 
L 432.09985 248.804465 
L 432.09985 211.493612 
L 394.788996 211.493612 
z
" clip-path="url(#pdf7fc95202)" style="stroke: #000000; stroke-linejoin: miter"/>
   </g>
   <g id="patch_15">
    <path d="M 424.767892 250.161147 
L 464.792108 250.161147 
L 464.792108 210.13693 
L 424.767892 210.13693 
z
" clip-path="url(#pdf7fc95202)" style="stroke: #000000; stroke-linejoin: miter"/>
   </g>
   <g id="patch_16">
    <path d="M 457.383284 248.881331 
L 494.847869 248.881331 
L 494.847869 211.416746 
L 457.383284 211.416746 
z
" clip-path="url(#pdf7fc95202)" style="stroke: #000000; stroke-linejoin: miter"/>
   </g>
   <g id="patch_17">
    <path d="M 489.63906 247.961132 
L 525.263248 247.961132 
L 525.263248 212.336945 
L 489.63906 212.336945 
z
" clip-path="url(#pdf7fc95202)" style="stroke: #000000; stroke-linejoin: miter"/>
   </g>
   <g id="patch_18">
    <path d="M 521.06517 247.870599 
L 556.508291 247.870599 
L 556.508291 212.427478 
L 521.06517 212.427478 
z
" clip-path="url(#pdf7fc95202)" style="stroke: #000000; stroke-linejoin: miter"/>
   </g>
   <g id="patch_19">
    <path d="M 553.434741 246.836605 
L 586.809875 246.836605 
L 586.809875 213.461471 
L 553.434741 213.461471 
z
" clip-path="url(#pdf7fc95202)" style="stroke: #000000; stroke-linejoin: miter"/>
   </g>
   <g id="patch_20">
    <path d="M 585.569763 246.037161 
L 617.346007 246.037161 
L 617.346007 214.260916 
L 585.569763 214.260916 
z
" clip-path="url(#pdf7fc95202)" style="stroke: #000000; stroke-linejoin: miter"/>
   </g>
   <g id="patch_21">
    <path d="M 616.405353 246.537147 
L 649.18157 246.537147 
L 649.18157 213.76093 
L 616.405353 213.76093 
z
" clip-path="url(#pdf7fc95202)" style="stroke: #000000; stroke-linejoin: miter"/>
   </g>
   <g id="patch_22">
    <path d="M 649.833524 244.444553 
L 678.424553 244.444553 
L 678.424553 215.853524 
L 649.833524 215.853524 
z
" clip-path="url(#pdf7fc95202)" style="stroke: #000000; stroke-linejoin: miter"/>
   </g>
   <g id="patch_23">
    <path d="M 681.156109 244.457545 
L 709.773122 244.457545 
L 709.773122 215.840532 
L 681.156109 215.840532 
z
" clip-path="url(#pdf7fc95202)" style="stroke: #000000; stroke-linejoin: miter"/>
   </g>
   <g id="patch_24">
    <path d="M 714.157553 242.791677 
L 739.442831 242.791677 
L 739.442831 217.5064 
L 714.157553 217.5064 
z
" clip-path="url(#pdf7fc95202)" style="stroke: #000000; stroke-linejoin: miter"/>
   </g>
   <g id="patch_25">
    <path d="M 746.425399 241.859409 
L 769.846139 241.859409 
L 769.846139 218.438668 
L 746.425399 218.438668 
z
" clip-path="url(#pdf7fc95202)" style="stroke: #000000; stroke-linejoin: miter"/>
   </g>
   <g id="patch_26">
    <path d="M 778.748943 240.871442 
L 800.19375 240.871442 
L 800.19375 219.426635 
L 778.748943 219.426635 
z
" clip-path="url(#pdf7fc95202)" style="stroke: #000000; stroke-linejoin: miter"/>
   </g>
   <g id="patch_27">
    <path d="M 50.022097 217.544441 
L 87.484057 217.544441 
L 87.484057 180.082482 
L 50.022097 180.082482 
z
" clip-path="url(#pdf7fc95202)" style="stroke: #000000; stroke-linejoin: miter"/>
   </g>
   <g id="patch_28">
    <path d="M 81.784287 217.117828 
L 118.393021 217.117828 
L 118.393021 180.509095 
L 81.784287 180.509095 
z
" clip-path="url(#pdf7fc95202)" style="stroke: #000000; stroke-linejoin: miter"/>
   </g>
   <g id="patch_29">
    <path d="M 113.985442 216.25225 
L 148.863019 216.25225 
L 148.863019 181.374673 
L 113.985442 181.374673 
z
" clip-path="url(#pdf7fc95202)" style="stroke: #000000; stroke-linejoin: miter"/>
   </g>
   <g id="patch_30">
    <path d="M 145.452611 216.120658 
L 180.067004 216.120658 
L 180.067004 181.506265 
L 145.452611 181.506265 
z
" clip-path="url(#pdf7fc95202)" style="stroke: #000000; stroke-linejoin: miter"/>
   </g>
   <g id="patch_31">
    <path d="M 176.43319 216.475656 
L 211.757579 216.475656 
L 211.757579 181.151267 
L 176.43319 181.151267 
z
" clip-path="url(#pdf7fc95202)" style="stroke: #000000; stroke-linejoin: miter"/>
   </g>
   <g id="patch_32">
    <path d="M 207.800545 216.443879 
L 243.061379 216.443879 
L 243.061379 181.183045 
L 207.800545 181.183045 
z
" clip-path="url(#pdf7fc95202)" style="stroke: #000000; stroke-linejoin: miter"/>
   </g>
   <g id="patch_33">
    <path d="M 239.614795 215.965205 
L 273.918282 215.965205 
L 273.918282 181.661718 
L 239.614795 181.661718 
z
" clip-path="url(#pdf7fc95202)" style="stroke: #000000; stroke-linejoin: miter"/>
   </g>
   <g id="patch_34">
    <path d="M 271.051655 215.863922 
L 305.152576 215.863922 
L 305.152576 181.763001 
L 271.051655 181.763001 
z
" clip-path="url(#pdf7fc95202)" style="stroke: #000000; stroke-linejoin: miter"/>
   </g>
   <g id="patch_35">
    <path d="M 302.375885 215.875269 
L 336.4995 215.875269 
L 336.4995 181.751654 
L 302.375885 181.751654 
z
" clip-path="url(#pdf7fc95202)" style="stroke: #000000; stroke-linejoin: miter"/>
   </g>
   <g id="patch_36">
    <path d="M 334.056698 215.530033 
L 367.489841 215.530033 
L 367.489841 182.09689 
L 334.056698 182.09689 
z
" clip-path="url(#pdf7fc95202)" style="stroke: #000000; stroke-linejoin: miter"/>
   </g>
   <g id="patch_37">
    <path d="M 365.771616 215.150692 
L 398.446076 215.150692 
L 398.446076 182.476232 
L 365.771616 182.476232 
z
" clip-path="url(#pdf7fc95202)" style="stroke: #000000; stroke-linejoin: miter"/>
   </g>
   <g id="patch_38">
    <path d="M 397.531488 214.726396 
L 429.357358 214.726396 
L 429.357358 182.900527 
L 397.531488 182.900527 
z
" clip-path="url(#pdf7fc95202)" style="stroke: #000000; stroke-linejoin: miter"/>
   </g>
   <g id="patch_39">
    <path d="M 429.616071 213.97739 
L 459.943929 213.97739 
L 459.943929 183.649533 
L 429.616071 183.649533 
z
" clip-path="url(#pdf7fc95202)" style="stroke: #000000; stroke-linejoin: miter"/>
   </g>
   <g id="patch_40">
    <path d="M 462.085449 212.84359 
L 490.145705 212.84359 
L 490.145705 184.783333 
L 462.085449 184.783333 
z
" clip-path="url(#pdf7fc95202)" style="stroke: #000000; stroke-linejoin: miter"/>
   </g>
   <g id="patch_41">
    <path d="M 494.471126 211.793489 
L 520.431181 211.793489 
L 520.431181 185.833434 
L 494.471126 185.833434 
z
" clip-path="url(#pdf7fc95202)" style="stroke: #000000; stroke-linejoin: miter"/>
   </g>
   <g id="patch_42">
    <path d="M 527.430624 210.169568 
L 550.142837 210.169568 
L 550.142837 187.457355 
L 527.430624 187.457355 
z
" clip-path="url(#pdf7fc95202)" style="stroke: #000000; stroke-linejoin: miter"/>
   </g>
   <g id="patch_43">
    <path d="M 560.025371 208.910398 
L 580.219244 208.910398 
L 580.219244 188.716525 
L 560.025371 188.716525 
z
" clip-path="url(#pdf7fc95202)" style="stroke: #000000; stroke-linejoin: miter"/>
   </g>
   <g id="patch_44">
    <path d="M 592.110973 208.160374 
L 610.804797 208.160374 
L 610.804797 189.46655 
L 592.110973 189.46655 
z
" clip-path="url(#pdf7fc95202)" style="stroke: #000000; stroke-linejoin: miter"/>
   </g>
   <g id="patch_45">
    <path d="M 624.260816 207.346107 
L 641.326107 207.346107 
L 641.326107 190.280816 
L 624.260816 190.280816 
z
" clip-path="url(#pdf7fc95202)" style="stroke: #000000; stroke-linejoin: miter"/>
   </g>
   <g id="patch_46">
    <path d="M 655.795948 207.146552 
L 672.462129 207.146552 
L 672.462129 190.480371 
L 655.795948 190.480371 
z
" clip-path="url(#pdf7fc95202)" style="stroke: #000000; stroke-linejoin: miter"/>
   </g>
   <g id="patch_47">
    <path d="M 688.958726 205.319351 
L 701.970505 205.319351 
L 701.970505 192.307572 
L 688.958726 192.307572 
z
" clip-path="url(#pdf7fc95202)" style="stroke: #000000; stroke-linejoin: miter"/>
   </g>
   <g id="patch_48">
    <path d="M 719.876067 205.737587 
L 733.724318 205.737587 
L 733.724318 191.889336 
L 719.876067 191.889336 
z
" clip-path="url(#pdf7fc95202)" style="stroke: #000000; stroke-linejoin: miter"/>
   </g>
   <g id="patch_49">
    <path d="M 752.415476 204.533755 
L 763.856062 204.533755 
L 763.856062 193.093168 
L 752.415476 193.093168 
z
" clip-path="url(#pdf7fc95202)" style="stroke: #000000; stroke-linejoin: miter"/>
   </g>
   <g id="patch_50">
    <path d="M 783.981381 204.303426 
L 794.961311 204.303426 
L 794.961311 193.323497 
L 783.981381 193.323497 
z
" clip-path="url(#pdf7fc95202)" style="stroke: #000000; stroke-linejoin: miter"/>
   </g>
   <g id="patch_51">
    <path d="M 52.919431 183.311531 
L 84.586723 183.311531 
L 84.586723 151.644238 
L 52.919431 151.644238 
z
" clip-path="url(#pdf7fc95202)" style="stroke: #000000; stroke-linejoin: miter"/>
   </g>
   <g id="patch_52">
    <path d="M 81.939559 185.626979 
L 118.237748 185.626979 
L 118.237748 149.32879 
L 81.939559 149.32879 
z
" clip-path="url(#pdf7fc95202)" style="stroke: #000000; stroke-linejoin: miter"/>
   </g>
   <g id="patch_53">
    <path d="M 114.013168 184.888948 
L 148.835294 184.888948 
L 148.835294 150.066821 
L 114.013168 150.066821 
z
" clip-path="url(#pdf7fc95202)" style="stroke: #000000; stroke-linejoin: miter"/>
   </g>
   <g id="patch_54">
    <path d="M 147.324872 182.912821 
L 178.194744 182.912821 
L 178.194744 152.042949 
L 147.324872 152.042949 
z
" clip-path="url(#pdf7fc95202)" style="stroke: #000000; stroke-linejoin: miter"/>
   </g>
   <g id="patch_55">
    <path d="M 179.084314 182.488955 
L 209.106455 182.488955 
L 209.106455 152.466814 
L 179.084314 152.466814 
z
" clip-path="url(#pdf7fc95202)" style="stroke: #000000; stroke-linejoin: miter"/>
   </g>
   <g id="patch_56">
    <path d="M 210.126599 182.782247 
L 240.735324 182.782247 
L 240.735324 152.173522 
L 210.126599 152.173522 
z
" clip-path="url(#pdf7fc95202)" style="stroke: #000000; stroke-linejoin: miter"/>
   </g>
   <g id="patch_57">
    <path d="M 241.127469 183.116954 
L 272.405607 183.116954 
L 272.405607 151.838816 
L 241.127469 151.838816 
z
" clip-path="url(#pdf7fc95202)" style="stroke: #000000; stroke-linejoin: miter"/>
   </g>
   <g id="patch_58">
    <path d="M 272.597673 182.982327 
L 303.606558 182.982327 
L 303.606558 151.973442 
L 272.597673 151.973442 
z
" clip-path="url(#pdf7fc95202)" style="stroke: #000000; stroke-linejoin: miter"/>
   </g>
   <g id="patch_59">
    <path d="M 304.600242 182.315334 
L 334.275142 182.315334 
L 334.275142 152.640435 
L 304.600242 152.640435 
z
" clip-path="url(#pdf7fc95202)" style="stroke: #000000; stroke-linejoin: miter"/>
   </g>
   <g id="patch_60">
    <path d="M 336.168932 182.082221 
L 365.377606 182.082221 
L 365.377606 152.873548 
L 336.168932 152.873548 
z
" clip-path="url(#pdf7fc95202)" style="stroke: #000000; stroke-linejoin: miter"/>
   </g>
   <g id="patch_61">
    <path d="M 367.815861 181.77087 
L 396.401832 181.77087 
L 396.401832 153.184899 
L 367.815861 153.184899 
z
" clip-path="url(#pdf7fc95202)" style="stroke: #000000; stroke-linejoin: miter"/>
   </g>
   <g id="patch_62">
    <path d="M 399.605982 181.316326 
L 427.282865 181.316326 
L 427.282865 153.639443 
L 399.605982 153.639443 
z
" clip-path="url(#pdf7fc95202)" style="stroke: #000000; stroke-linejoin: miter"/>
   </g>
   <g id="patch_63">
    <path d="M 431.375331 180.882554 
L 458.184669 180.882554 
L 458.184669 154.073215 
L 431.375331 154.073215 
z
" clip-path="url(#pdf7fc95202)" style="stroke: #000000; stroke-linejoin: miter"/>
   </g>
   <g id="patch_64">
    <path d="M 463.39485 180.198612 
L 488.836304 180.198612 
L 488.836304 154.757158 
L 463.39485 154.757158 
z
" clip-path="url(#pdf7fc95202)" style="stroke: #000000; stroke-linejoin: miter"/>
   </g>
   <g id="patch_65">
    <path d="M 494.98347 179.945568 
L 519.918838 179.945568 
L 519.918838 155.010201 
L 494.98347 155.010201 
z
" clip-path="url(#pdf7fc95202)" style="stroke: #000000; stroke-linejoin: miter"/>
   </g>
   <g id="patch_66">
    <path d="M 528.159495 178.10512 
L 549.413966 178.10512 
L 549.413966 156.850649 
L 528.159495 156.850649 
z
" clip-path="url(#pdf7fc95202)" style="stroke: #000000; stroke-linejoin: miter"/>
   </g>
   <g id="patch_67">
    <path d="M 560.147647 177.452545 
L 580.096968 177.452545 
L 580.096968 157.503224 
L 560.147647 157.503224 
z
" clip-path="url(#pdf7fc95202)" style="stroke: #000000; stroke-linejoin: miter"/>
   </g>
   <g id="patch_68">
    <path d="M 592.31641 176.619359 
L 610.599359 176.619359 
L 610.599359 158.33641 
L 592.31641 158.33641 
z
" clip-path="url(#pdf7fc95202)" style="stroke: #000000; stroke-linejoin: miter"/>
   </g>
   <g id="patch_69">
    <path d="M 623.831059 176.440287 
L 641.755864 176.440287 
L 641.755864 158.515482 
L 623.831059 158.515482 
z
" clip-path="url(#pdf7fc95202)" style="stroke: #000000; stroke-linejoin: miter"/>
   </g>
   <g id="patch_70">
    <path d="M 655.462375 176.144548 
L 672.795702 176.144548 
L 672.795702 158.811221 
L 655.462375 158.811221 
z
" clip-path="url(#pdf7fc95202)" style="stroke: #000000; stroke-linejoin: miter"/>
   </g>
   <g id="patch_71">
    <path d="M 688.2252 174.7173 
L 702.70403 174.7173 
L 702.70403 160.23847 
L 688.2252 160.23847 
z
" clip-path="url(#pdf7fc95202)" style="stroke: #000000; stroke-linejoin: miter"/>
   </g>
   <g id="patch_72">
    <path d="M 720.395618 173.882459 
L 733.204767 173.882459 
L 733.204767 161.07331 
L 720.395618 161.07331 
z
" clip-path="url(#pdf7fc95202)" style="stroke: #000000; stroke-linejoin: miter"/>
   </g>
   <g id="patch_73">
    <path d="M 751.3067 174.306954 
L 764.964838 174.306954 
L 764.964838 160.648816 
L 751.3067 160.648816 
z
" clip-path="url(#pdf7fc95202)" style="stroke: #000000; stroke-linejoin: miter"/>
   </g>
   <g id="patch_74">
    <path d="M 782.471815 174.477416 
L 796.470878 174.477416 
L 796.470878 160.478353 
L 782.471815 160.478353 
z
" clip-path="url(#pdf7fc95202)" style="stroke: #000000; stroke-linejoin: miter"/>
   </g>
   <g id="patch_75">
    <path d="M 53.45404 151.441344 
L 84.052114 151.441344 
L 84.052114 120.843271 
L 53.45404 120.843271 
z
" clip-path="url(#pdf7fc95202)" style="stroke: #000000; stroke-linejoin: miter"/>
   </g>
   <g id="patch_76">
    <path d="M 83.43288 152.798081 
L 116.744428 152.798081 
L 116.744428 119.486534 
L 83.43288 119.486534 
z
" clip-path="url(#pdf7fc95202)" style="stroke: #000000; stroke-linejoin: miter"/>
   </g>
   <g id="patch_77">
    <path d="M 115.717043 151.849495 
L 147.131418 151.849495 
L 147.131418 120.43512 
L 115.717043 120.43512 
z
" clip-path="url(#pdf7fc95202)" style="stroke: #000000; stroke-linejoin: miter"/>
   </g>
   <g id="patch_78">
    <path d="M 147.135493 151.766623 
L 178.384123 151.766623 
L 178.384123 120.517993 
L 147.135493 120.517993 
z
" clip-path="url(#pdf7fc95202)" style="stroke: #000000; stroke-linejoin: miter"/>
   </g>
   <g id="patch_79">
    <path d="M 178.849211 151.388481 
L 209.341558 151.388481 
L 209.341558 120.896134 
L 178.849211 120.896134 
z
" clip-path="url(#pdf7fc95202)" style="stroke: #000000; stroke-linejoin: miter"/>
   </g>
   <g id="patch_80">
    <path d="M 210.536286 151.036983 
L 240.325637 151.036983 
L 240.325637 121.247632 
L 210.536286 121.247632 
z
" clip-path="url(#pdf7fc95202)" style="stroke: #000000; stroke-linejoin: miter"/>
   </g>
   <g id="patch_81">
    <path d="M 241.915676 150.99317 
L 271.617401 150.99317 
L 271.617401 121.291445 
L 241.915676 121.291445 
z
" clip-path="url(#pdf7fc95202)" style="stroke: #000000; stroke-linejoin: miter"/>
   </g>
   <g id="patch_82">
    <path d="M 272.59461 151.649813 
L 303.60962 151.649813 
L 303.60962 120.634803 
L 272.59461 120.634803 
z
" clip-path="url(#pdf7fc95202)" style="stroke: #000000; stroke-linejoin: miter"/>
   </g>
   <g id="patch_83">
    <path d="M 304.812075 150.767925 
L 334.06331 150.767925 
L 334.06331 121.51669 
L 304.812075 121.51669 
z
" clip-path="url(#pdf7fc95202)" style="stroke: #000000; stroke-linejoin: miter"/>
   </g>
   <g id="patch_84">
    <path d="M 336.662382 150.253195 
L 364.884156 150.253195 
L 364.884156 122.031421 
L 336.662382 122.031421 
z
" clip-path="url(#pdf7fc95202)" style="stroke: #000000; stroke-linejoin: miter"/>
   </g>
   <g id="patch_85">
    <path d="M 368.49632 149.754834 
L 395.721372 149.754834 
L 395.721372 122.529781 
L 368.49632 122.529781 
z
" clip-path="url(#pdf7fc95202)" style="stroke: #000000; stroke-linejoin: miter"/>
   </g>
   <g id="patch_86">
    <path d="M 399.688652 149.898079 
L 427.200194 149.898079 
L 427.200194 122.386537 
L 399.688652 122.386537 
z
" clip-path="url(#pdf7fc95202)" style="stroke: #000000; stroke-linejoin: miter"/>
   </g>
   <g id="patch_87">
    <path d="M 431.60904 149.313268 
L 457.95096 149.313268 
L 457.95096 122.971348 
L 431.60904 122.971348 
z
" clip-path="url(#pdf7fc95202)" style="stroke: #000000; stroke-linejoin: miter"/>
   </g>
   <g id="patch_88">
    <path d="M 464.049657 148.208227 
L 488.181497 148.208227 
L 488.181497 124.076388 
L 464.049657 124.076388 
z
" clip-path="url(#pdf7fc95202)" style="stroke: #000000; stroke-linejoin: miter"/>
   </g>
   <g id="patch_89">
    <path d="M 495.202385 148.391076 
L 519.699922 148.391076 
L 519.699922 123.893539 
L 495.202385 123.893539 
z
" clip-path="url(#pdf7fc95202)" style="stroke: #000000; stroke-linejoin: miter"/>
   </g>
   <g id="patch_90">
    <path d="M 528.171828 146.757211 
L 549.401634 146.757211 
L 549.401634 125.527405 
L 528.171828 125.527405 
z
" clip-path="url(#pdf7fc95202)" style="stroke: #000000; stroke-linejoin: miter"/>
   </g>
   <g id="patch_91">
    <path d="M 559.984743 146.279872 
L 580.259872 146.279872 
L 580.259872 126.004743 
L 559.984743 126.004743 
z
" clip-path="url(#pdf7fc95202)" style="stroke: #000000; stroke-linejoin: miter"/>
   </g>
   <g id="patch_92">
    <path d="M 591.957326 145.642867 
L 610.958444 145.642867 
L 610.958444 126.641749 
L 591.957326 126.641749 
z
" clip-path="url(#pdf7fc95202)" style="stroke: #000000; stroke-linejoin: miter"/>
   </g>
   <g id="patch_93">
    <path d="M 623.147823 145.787946 
L 642.4391 145.787946 
L 642.4391 126.496669 
L 623.147823 126.496669 
z
" clip-path="url(#pdf7fc95202)" style="stroke: #000000; stroke-linejoin: miter"/>
   </g>
   <g id="patch_94">
    <path d="M 655.32609 144.945256 
L 672.931987 144.945256 
L 672.931987 127.339359 
L 655.32609 127.339359 
z
" clip-path="url(#pdf7fc95202)" style="stroke: #000000; stroke-linejoin: miter"/>
   </g>
   <g id="patch_95">
    <path d="M 686.216369 145.390554 
L 704.712862 145.390554 
L 704.712862 126.894061 
L 686.216369 126.894061 
z
" clip-path="url(#pdf7fc95202)" style="stroke: #000000; stroke-linejoin: miter"/>
   </g>
   <g id="patch_96">
    <path d="M 719.915363 143.027137 
L 733.685022 143.027137 
L 733.685022 129.257478 
L 719.915363 129.257478 
z
" clip-path="url(#pdf7fc95202)" style="stroke: #000000; stroke-linejoin: miter"/>
   </g>
   <g id="patch_97">
    <path d="M 751.761009 142.517068 
L 764.51053 142.517068 
L 764.51053 129.767547 
L 751.761009 129.767547 
z
" clip-path="url(#pdf7fc95202)" style="stroke: #000000; stroke-linejoin: miter"/>
   </g>
   <g id="patch_98">
    <path d="M 783.351389 142.262265 
L 795.591303 142.262265 
L 795.591303 130.022351 
L 783.351389 130.022351 
z
" clip-path="url(#pdf7fc95202)" style="stroke: #000000; stroke-linejoin: miter"/>
   </g>
   <g id="patch_99">
    <path d="M 53.558567 120.001241 
L 83.947587 120.001241 
L 83.947587 89.612221 
L 53.558567 89.612221 
z
" clip-path="url(#pdf7fc95202)" style="stroke: #000000; stroke-linejoin: miter"/>
   </g>
   <g id="patch_100">
    <path d="M 86.992971 117.902413 
L 113.184336 117.902413 
L 113.184336 91.711048 
L 86.992971 91.711048 
z
" clip-path="url(#pdf7fc95202)" style="stroke: #000000; stroke-linejoin: miter"/>
   </g>
   <g id="patch_101">
    <path d="M 118.607343 117.623619 
L 144.241119 117.623619 
L 144.241119 91.989843 
L 118.607343 91.989843 
z
" clip-path="url(#pdf7fc95202)" style="stroke: #000000; stroke-linejoin: miter"/>
   </g>
   <g id="patch_102">
    <path d="M 151.479023 116.087516 
L 174.040593 116.087516 
L 174.040593 93.525946 
L 151.479023 93.525946 
z
" clip-path="url(#pdf7fc95202)" style="stroke: #000000; stroke-linejoin: miter"/>
   </g>
   <g id="patch_103">
    <path d="M 184.600007 114.302108 
L 203.590762 114.302108 
L 203.590762 95.311353 
L 184.600007 95.311353 
z
" clip-path="url(#pdf7fc95202)" style="stroke: #000000; stroke-linejoin: miter"/>
   </g>
   <g id="patch_104">
    <path d="M 216.524949 113.712743 
L 234.336974 113.712743 
L 234.336974 95.900719 
L 216.524949 95.900719 
z
" clip-path="url(#pdf7fc95202)" style="stroke: #000000; stroke-linejoin: miter"/>
   </g>
   <g id="patch_105">
    <path d="M 249.889253 111.684016 
L 263.643824 111.684016 
L 263.643824 97.929445 
L 249.889253 97.929445 
z
" clip-path="url(#pdf7fc95202)" style="stroke: #000000; stroke-linejoin: miter"/>
   </g>
   <g id="patch_106">
    <path d="M 283.404623 109.504223 
L 292.799608 109.504223 
L 292.799608 100.109238 
L 283.404623 100.109238 
z
" clip-path="url(#pdf7fc95202)" style="stroke: #000000; stroke-linejoin: miter"/>
   </g>
   <g id="patch_107">
    <path d="M 315.402256 108.842167 
L 323.473129 108.842167 
L 323.473129 100.771294 
L 315.402256 100.771294 
z
" clip-path="url(#pdf7fc95202)" style="stroke: #000000; stroke-linejoin: miter"/>
   </g>
   <g id="patch_108">
    <path d="M 346.260184 109.319816 
L 355.286355 109.319816 
L 355.286355 100.293645 
L 346.260184 100.293645 
z
" clip-path="url(#pdf7fc95202)" style="stroke: #000000; stroke-linejoin: miter"/>
   </g>
   <g id="patch_109">
    <path d="M 377.87913 109.036446 
L 386.338562 109.036446 
L 386.338562 100.577015 
L 377.87913 100.577015 
z
" clip-path="url(#pdf7fc95202)" style="stroke: #000000; stroke-linejoin: miter"/>
   </g>
   <g id="patch_110">
    <path d="M 408.7965 109.454654 
L 418.092346 109.454654 
L 418.092346 100.158808 
L 408.7965 100.158808 
z
" clip-path="url(#pdf7fc95202)" style="stroke: #000000; stroke-linejoin: miter"/>
   </g>
   <g id="patch_111">
    <path d="M 439.747333 109.839398 
L 449.812667 109.839398 
L 449.812667 99.774064 
L 439.747333 99.774064 
z
" clip-path="url(#pdf7fc95202)" style="stroke: #000000; stroke-linejoin: miter"/>
   </g>
   <g id="patch_112">
    <path d="M 471.45699 109.465317 
L 480.774164 109.465317 
L 480.774164 100.148144 
L 471.45699 100.148144 
z
" clip-path="url(#pdf7fc95202)" style="stroke: #000000; stroke-linejoin: miter"/>
   </g>
   <g id="patch_113">
    <path d="M 500.944709 111.313175 
L 513.957598 111.313175 
L 513.957598 98.300286 
L 500.944709 98.300286 
z
" clip-path="url(#pdf7fc95202)" style="stroke: #000000; stroke-linejoin: miter"/>
   </g>
   <g id="patch_114">
    <path d="M 533.747647 109.845814 
L 543.825814 109.845814 
L 543.825814 99.767647 
L 533.747647 99.767647 
z
" clip-path="url(#pdf7fc95202)" style="stroke: #000000; stroke-linejoin: miter"/>
   </g>
   <g id="patch_115">
    <path d="M 564.02517 110.903868 
L 576.219445 110.903868 
L 576.219445 98.709593 
L 564.02517 98.709593 
z
" clip-path="url(#pdf7fc95202)" style="stroke: #000000; stroke-linejoin: miter"/>
   </g>
   <g id="patch_116">
    <path d="M 595.547701 110.716914 
L 607.368068 110.716914 
L 607.368068 98.896547 
L 595.547701 98.896547 
z
" clip-path="url(#pdf7fc95202)" style="stroke: #000000; stroke-linejoin: miter"/>
   </g>
   <g id="patch_117">
    <path d="M 626.680568 110.919624 
L 638.906355 110.919624 
L 638.906355 98.693837 
L 626.680568 98.693837 
z
" clip-path="url(#pdf7fc95202)" style="stroke: #000000; stroke-linejoin: miter"/>
   </g>
   <g id="patch_118">
    <path d="M 657.86163 111.074139 
L 670.396447 111.074139 
L 670.396447 98.539322 
L 657.86163 98.539322 
z
" clip-path="url(#pdf7fc95202)" style="stroke: #000000; stroke-linejoin: miter"/>
   </g>
   <g id="patch_119">
    <path d="M 690.727855 109.543492 
L 700.201376 109.543492 
L 700.201376 100.06997 
L 690.727855 100.06997 
z
" clip-path="url(#pdf7fc95202)" style="stroke: #000000; stroke-linejoin: miter"/>
   </g>
   <g id="patch_120">
    <path d="M 720.931662 110.675261 
L 732.668723 110.675261 
L 732.668723 98.9382 
L 720.931662 98.9382 
z
" clip-path="url(#pdf7fc95202)" style="stroke: #000000; stroke-linejoin: miter"/>
   </g>
   <g id="patch_121">
    <path d="M 752.481536 110.460964 
L 763.790002 110.460964 
L 763.790002 99.152498 
L 752.481536 99.152498 
z
" clip-path="url(#pdf7fc95202)" style="stroke: #000000; stroke-linejoin: miter"/>
   </g>
   <g id="patch_122">
    <path d="M 783.724081 110.553996 
L 795.218611 110.553996 
L 795.218611 99.059465 
L 783.724081 99.059465 
z
" clip-path="url(#pdf7fc95202)" style="stroke: #000000; stroke-linejoin: miter"/>
   </g>
   <g id="patch_123">
    <path d="M 50.760383 91.463847 
L 86.74577 91.463847 
L 86.74577 55.47846 
L 50.760383 55.47846 
z
" clip-path="url(#pdf7fc95202)" style="stroke: #000000; stroke-linejoin: miter"/>
   </g>
   <g id="patch_124">
    <path d="M 83.646379 89.913429 
L 116.530929 89.913429 
L 116.530929 57.028879 
L 83.646379 57.028879 
z
" clip-path="url(#pdf7fc95202)" style="stroke: #000000; stroke-linejoin: miter"/>
   </g>
   <g id="patch_125">
    <path d="M 115.065555 89.82983 
L 147.782907 89.82983 
L 147.782907 57.112478 
L 115.065555 57.112478 
z
" clip-path="url(#pdf7fc95202)" style="stroke: #000000; stroke-linejoin: miter"/>
   </g>
   <g id="patch_126">
    <path d="M 146.500633 89.730328 
L 179.018982 89.730328 
L 179.018982 57.21198 
L 146.500633 57.21198 
z
" clip-path="url(#pdf7fc95202)" style="stroke: #000000; stroke-linejoin: miter"/>
   </g>
   <g id="patch_127">
    <path d="M 177.802969 89.76357 
L 210.387801 89.76357 
L 210.387801 57.178738 
L 177.802969 57.178738 
z
" clip-path="url(#pdf7fc95202)" style="stroke: #000000; stroke-linejoin: miter"/>
   </g>
   <g id="patch_128">
    <path d="M 209.217578 89.684538 
L 241.644345 89.684538 
L 241.644345 57.25777 
L 209.217578 57.25777 
z
" clip-path="url(#pdf7fc95202)" style="stroke: #000000; stroke-linejoin: miter"/>
   </g>
   <g id="patch_129">
    <path d="M 240.77055 89.467142 
L 272.762527 89.467142 
L 272.762527 57.475166 
L 240.77055 57.475166 
z
" clip-path="url(#pdf7fc95202)" style="stroke: #000000; stroke-linejoin: miter"/>
   </g>
   <g id="patch_130">
    <path d="M 272.325822 89.247447 
L 303.878408 89.247447 
L 303.878408 57.694861 
L 272.325822 57.694861 
z
" clip-path="url(#pdf7fc95202)" style="stroke: #000000; stroke-linejoin: miter"/>
   </g>
   <g id="patch_131">
    <path d="M 303.809727 89.099119 
L 335.065657 89.099119 
L 335.065657 57.843189 
L 303.809727 57.843189 
z
" clip-path="url(#pdf7fc95202)" style="stroke: #000000; stroke-linejoin: miter"/>
   </g>
   <g id="patch_132">
    <path d="M 335.282772 88.961651 
L 366.263766 88.961651 
L 366.263766 57.980657 
L 335.282772 57.980657 
z
" clip-path="url(#pdf7fc95202)" style="stroke: #000000; stroke-linejoin: miter"/>
   </g>
   <g id="patch_133">
    <path d="M 366.43879 89.14121 
L 397.778903 89.14121 
L 397.778903 57.801097 
L 366.43879 57.801097 
z
" clip-path="url(#pdf7fc95202)" style="stroke: #000000; stroke-linejoin: miter"/>
   </g>
   <g id="patch_134">
    <path d="M 398.499262 88.416315 
L 428.389584 88.416315 
L 428.389584 58.525993 
L 398.499262 58.525993 
z
" clip-path="url(#pdf7fc95202)" style="stroke: #000000; stroke-linejoin: miter"/>
   </g>
   <g id="patch_135">
    <path d="M 430.125546 88.125608 
L 459.434454 88.125608 
L 459.434454 58.8167 
L 430.125546 58.8167 
z
" clip-path="url(#pdf7fc95202)" style="stroke: #000000; stroke-linejoin: miter"/>
   </g>
   <g id="patch_136">
    <path d="M 462.134195 87.452536 
L 490.096959 87.452536 
L 490.096959 59.489772 
L 462.134195 59.489772 
z
" clip-path="url(#pdf7fc95202)" style="stroke: #000000; stroke-linejoin: miter"/>
   </g>
   <g id="patch_137">
    <path d="M 494.096744 86.825564 
L 520.805564 86.825564 
L 520.805564 60.116744 
L 494.096744 60.116744 
z
" clip-path="url(#pdf7fc95202)" style="stroke: #000000; stroke-linejoin: miter"/>
   </g>
   <g id="patch_138">
    <path d="M 526.11267 86.145215 
L 551.460792 86.145215 
L 551.460792 60.797093 
L 526.11267 60.797093 
z
" clip-path="url(#pdf7fc95202)" style="stroke: #000000; stroke-linejoin: miter"/>
   </g>
   <g id="patch_139">
    <path d="M 558.398227 85.195234 
L 581.846388 85.195234 
L 581.846388 61.747074 
L 558.398227 61.747074 
z
" clip-path="url(#pdf7fc95202)" style="stroke: #000000; stroke-linejoin: miter"/>
   </g>
   <g id="patch_140">
    <path d="M 591.33246 83.596578 
L 611.583309 83.596578 
L 611.583309 63.345729 
L 591.33246 63.345729 
z
" clip-path="url(#pdf7fc95202)" style="stroke: #000000; stroke-linejoin: miter"/>
   </g>
   <g id="patch_141">
    <path d="M 621.761017 84.503598 
L 643.825906 84.503598 
L 643.825906 62.438709 
L 621.761017 62.438709 
z
" clip-path="url(#pdf7fc95202)" style="stroke: #000000; stroke-linejoin: miter"/>
   </g>
   <g id="patch_142">
    <path d="M 655.282768 82.317425 
L 672.975309 82.317425 
L 672.975309 64.624883 
L 655.282768 64.624883 
z
" clip-path="url(#pdf7fc95202)" style="stroke: #000000; stroke-linejoin: miter"/>
   </g>
   <g id="patch_143">
    <path d="M 687.388206 81.547563 
L 703.541025 81.547563 
L 703.541025 65.394744 
L 687.388206 65.394744 
z
" clip-path="url(#pdf7fc95202)" style="stroke: #000000; stroke-linejoin: miter"/>
   </g>
   <g id="patch_144">
    <path d="M 719.136154 81.135193 
L 734.464231 81.135193 
L 734.464231 65.807115 
L 719.136154 65.807115 
z
" clip-path="url(#pdf7fc95202)" style="stroke: #000000; stroke-linejoin: miter"/>
   </g>
   <g id="patch_145">
    <path d="M 751.560708 80.046216 
L 764.710831 80.046216 
L 764.710831 66.896092 
L 751.560708 66.896092 
z
" clip-path="url(#pdf7fc95202)" style="stroke: #000000; stroke-linejoin: miter"/>
   </g>
   <g id="patch_146">
    <path d="M 783.848598 79.093902 
L 795.094094 79.093902 
L 795.094094 67.848406 
L 783.848598 67.848406 
z
" clip-path="url(#pdf7fc95202)" style="stroke: #000000; stroke-linejoin: miter"/>
   </g>
   <g id="matplotlib.axis_1">
    <g id="xtick_1">
     <g id="line2d_1">
      <defs>
       <path id="m5a54981774" d="M 0 0 
L 0 3.5 
" style="stroke: #000000; stroke-width: 0.8"/>
      </defs>
      <g>
       <use xlink:href="#m5a54981774" x="68.753077" y="261.484615" style="stroke: #000000; stroke-width: 0.8"/>
      </g>
     </g>
     <g id="text_1">
      <!-- 1 -->
      <g transform="translate(65.742921 282.636178) scale(0.1 -0.1)">
       <defs>
        <path id="DejaVuSansMono-31" d="M 844 531 
L 1825 531 
L 1825 4097 
L 769 3859 
L 769 4434 
L 1819 4666 
L 2450 4666 
L 2450 531 
L 3419 531 
L 3419 0 
L 844 0 
L 844 531 
z
" transform="scale(0.015625)"/>
       </defs>
       <use xlink:href="#DejaVuSansMono-31"/>
      </g>
     </g>
    </g>
    <g id="xtick_2">
     <g id="line2d_2">
      <g>
       <use xlink:href="#m5a54981774" x="256.766538" y="261.484615" style="stroke: #000000; stroke-width: 0.8"/>
      </g>
     </g>
     <g id="text_2">
      <!-- 25 -->
      <g transform="translate(250.746226 282.636178) scale(0.1 -0.1)">
       <defs>
        <path id="DejaVuSansMono-32" d="M 1166 531 
L 3309 531 
L 3309 0 
L 475 0 
L 475 531 
Q 1059 1147 1496 1619 
Q 1934 2091 2100 2284 
Q 2413 2666 2522 2902 
Q 2631 3138 2631 3384 
Q 2631 3775 2401 3997 
Q 2172 4219 1772 4219 
Q 1488 4219 1175 4116 
Q 863 4013 513 3803 
L 513 4441 
Q 834 4594 1145 4672 
Q 1456 4750 1759 4750 
Q 2444 4750 2861 4386 
Q 3278 4022 3278 3431 
Q 3278 3131 3139 2831 
Q 3000 2531 2688 2169 
Q 2513 1966 2180 1606 
Q 1847 1247 1166 531 
z
" transform="scale(0.015625)"/>
        <path id="DejaVuSansMono-35" d="M 647 4666 
L 3009 4666 
L 3009 4134 
L 1222 4134 
L 1222 2988 
Q 1356 3038 1492 3061 
Q 1628 3084 1766 3084 
Q 2491 3084 2916 2656 
Q 3341 2228 3341 1497 
Q 3341 759 2895 334 
Q 2450 -91 1678 -91 
Q 1306 -91 998 -41 
Q 691 9 447 109 
L 447 750 
Q 734 594 1025 517 
Q 1316 441 1619 441 
Q 2141 441 2423 716 
Q 2706 991 2706 1497 
Q 2706 1997 2414 2275 
Q 2122 2553 1600 2553 
Q 1347 2553 1106 2495 
Q 866 2438 647 2322 
L 647 4666 
z
" transform="scale(0.015625)"/>
       </defs>
       <use xlink:href="#DejaVuSansMono-32"/>
       <use xlink:href="#DejaVuSansMono-35" x="60.205078"/>
      </g>
     </g>
    </g>
    <g id="xtick_3">
     <g id="line2d_3">
      <g>
       <use xlink:href="#m5a54981774" x="444.78" y="261.484615" style="stroke: #000000; stroke-width: 0.8"/>
      </g>
     </g>
     <g id="text_3">
      <!-- 50 -->
      <g transform="translate(438.759688 282.636178) scale(0.1 -0.1)">
       <defs>
        <path id="DejaVuSansMono-30" d="M 1509 2344 
Q 1509 2516 1629 2641 
Q 1750 2766 1919 2766 
Q 2094 2766 2219 2641 
Q 2344 2516 2344 2344 
Q 2344 2169 2220 2047 
Q 2097 1925 1919 1925 
Q 1744 1925 1626 2044 
Q 1509 2163 1509 2344 
z
M 1925 4250 
Q 1484 4250 1267 3775 
Q 1050 3300 1050 2328 
Q 1050 1359 1267 884 
Q 1484 409 1925 409 
Q 2369 409 2586 884 
Q 2803 1359 2803 2328 
Q 2803 3300 2586 3775 
Q 2369 4250 1925 4250 
z
M 1925 4750 
Q 2672 4750 3055 4137 
Q 3438 3525 3438 2328 
Q 3438 1134 3055 521 
Q 2672 -91 1925 -91 
Q 1178 -91 797 521 
Q 416 1134 416 2328 
Q 416 3525 797 4137 
Q 1178 4750 1925 4750 
z
" transform="scale(0.015625)"/>
       </defs>
       <use xlink:href="#DejaVuSansMono-35"/>
       <use xlink:href="#DejaVuSansMono-30" x="60.205078"/>
      </g>
     </g>
    </g>
    <g id="xtick_4">
     <g id="line2d_4">
      <g>
       <use xlink:href="#m5a54981774" x="632.793462" y="261.484615" style="stroke: #000000; stroke-width: 0.8"/>
      </g>
     </g>
     <g id="text_4">
      <!-- 75 -->
      <g transform="translate(626.773149 282.636178) scale(0.1 -0.1)">
       <defs>
        <path id="DejaVuSansMono-37" d="M 434 4666 
L 3372 4666 
L 3372 4397 
L 1703 0 
L 1044 0 
L 2669 4134 
L 434 4134 
L 434 4666 
z
" transform="scale(0.015625)"/>
       </defs>
       <use xlink:href="#DejaVuSansMono-37"/>
       <use xlink:href="#DejaVuSansMono-35" x="60.205078"/>
      </g>
     </g>
    </g>
    <g id="xtick_5">
     <g id="line2d_5">
      <g>
       <use xlink:href="#m5a54981774" x="789.471346" y="261.484615" style="stroke: #000000; stroke-width: 0.8"/>
      </g>
     </g>
     <g id="text_5">
      <!-- 100 -->
      <g transform="translate(780.440877 282.636178) scale(0.1 -0.1)">
       <use xlink:href="#DejaVuSansMono-31"/>
       <use xlink:href="#DejaVuSansMono-30" x="60.205078"/>
       <use xlink:href="#DejaVuSansMono-30" x="120.410156"/>
      </g>
     </g>
    </g>
   </g>
   <g id="matplotlib.axis_2">
    <g id="ytick_1">
     <g id="line2d_6">
      <defs>
       <path id="m1734a1cd5f" d="M 0 0 
L -3.5 0 
" style="stroke: #000000; stroke-width: 0.8"/>
      </defs>
      <g>
       <use xlink:href="#m1734a1cd5f" x="37.4175" y="230.149038" style="stroke: #000000; stroke-width: 0.8"/>
      </g>
     </g>
     <g id="text_6">
      <!-- 2 -->
      <g transform="translate(17.897188 233.97482) scale(0.1 -0.1)">
       <use xlink:href="#DejaVuSansMono-32"/>
      </g>
     </g>
    </g>
    <g id="ytick_2">
     <g id="line2d_7">
      <g>
       <use xlink:href="#m1734a1cd5f" x="37.4175" y="198.813462" style="stroke: #000000; stroke-width: 0.8"/>
      </g>
     </g>
     <g id="text_7">
      <!-- 3 -->
      <g transform="translate(17.897188 202.639243) scale(0.1 -0.1)">
       <defs>
        <path id="DejaVuSansMono-33" d="M 2425 2497 
Q 2884 2375 3128 2064 
Q 3372 1753 3372 1288 
Q 3372 644 2939 276 
Q 2506 -91 1741 -91 
Q 1419 -91 1084 -31 
Q 750 28 428 141 
L 428 769 
Q 747 603 1056 522 
Q 1366 441 1672 441 
Q 2191 441 2469 675 
Q 2747 909 2747 1350 
Q 2747 1756 2469 1995 
Q 2191 2234 1716 2234 
L 1234 2234 
L 1234 2753 
L 1716 2753 
Q 2150 2753 2394 2943 
Q 2638 3134 2638 3475 
Q 2638 3834 2411 4026 
Q 2184 4219 1766 4219 
Q 1488 4219 1191 4156 
Q 894 4094 569 3969 
L 569 4550 
Q 947 4650 1242 4700 
Q 1538 4750 1766 4750 
Q 2447 4750 2855 4408 
Q 3263 4066 3263 3500 
Q 3263 3116 3048 2859 
Q 2834 2603 2425 2497 
z
" transform="scale(0.015625)"/>
       </defs>
       <use xlink:href="#DejaVuSansMono-33"/>
      </g>
     </g>
    </g>
    <g id="ytick_3">
     <g id="line2d_8">
      <g>
       <use xlink:href="#m1734a1cd5f" x="37.4175" y="167.477885" style="stroke: #000000; stroke-width: 0.8"/>
      </g>
     </g>
     <g id="text_8">
      <!-- 5 -->
      <g transform="translate(17.897188 171.303666) scale(0.1 -0.1)">
       <use xlink:href="#DejaVuSansMono-35"/>
      </g>
     </g>
    </g>
    <g id="ytick_4">
     <g id="line2d_9">
      <g>
       <use xlink:href="#m1734a1cd5f" x="37.4175" y="136.142308" style="stroke: #000000; stroke-width: 0.8"/>
      </g>
     </g>
     <g id="text_9">
      <!-- 7 -->
      <g transform="translate(17.897188 139.968089) scale(0.1 -0.1)">
       <use xlink:href="#DejaVuSansMono-37"/>
      </g>
     </g>
    </g>
    <g id="ytick_5">
     <g id="line2d_10">
      <g>
       <use xlink:href="#m1734a1cd5f" x="37.4175" y="104.806731" style="stroke: #000000; stroke-width: 0.8"/>
      </g>
     </g>
     <g id="text_10">
      <!-- 11 -->
      <g transform="translate(11.876875 108.632512) scale(0.1 -0.1)">
       <use xlink:href="#DejaVuSansMono-31"/>
       <use xlink:href="#DejaVuSansMono-31" x="60.205078"/>
      </g>
     </g>
    </g>
    <g id="ytick_6">
     <g id="line2d_11">
      <g>
       <use xlink:href="#m1734a1cd5f" x="37.4175" y="73.471154" style="stroke: #000000; stroke-width: 0.8"/>
      </g>
     </g>
     <g id="text_11">
      <!-- ℙ -->
      <g transform="translate(17.897188 77.296935) scale(0.1 -0.1)">
       <defs>
        <path id="DejaVuSansMono-2119" d="M 506 4353 
L 506 313 
L 1106 313 
L 1106 4353 
L 506 4353 
z
M 1406 4353 
L 1406 2284 
L 2306 2284 
Q 2378 2284 2447 2291 
L 2447 4347 
Q 2378 4353 2306 4353 
L 1406 4353 
z
M 206 4666 
L 2166 4666 
Q 2913 4666 3297 4323 
Q 3681 3981 3681 3322 
Q 3681 2656 3297 2315 
Q 2913 1975 2163 1975 
L 1406 1975 
L 1406 0 
L 206 0 
L 206 4666 
z
M 2759 4281 
L 2759 2359 
Q 2941 2428 3075 2556 
Q 3353 2825 3353 3322 
Q 3353 3816 3078 4084 
Q 2947 4213 2759 4281 
z
" transform="scale(0.015625)"/>
       </defs>
       <use xlink:href="#DejaVuSansMono-2119"/>
      </g>
     </g>
    </g>
   </g>
   <g id="text_12">
    <!-- base : 11   |   emb : 64   |   heads : 4   |   depth : 3   |   lr : 0.0003   |   l2 : 0.01   |   dropout : 0.01 -->
    <g transform="translate(110.652656 39.002019) scale(0.1 -0.1)">
     <defs>
      <path id="DejaVuSansMono-62" d="M 2869 1747 
Q 2869 2416 2656 2756 
Q 2444 3097 2028 3097 
Q 1609 3097 1393 2755 
Q 1178 2413 1178 1747 
Q 1178 1084 1393 740 
Q 1609 397 2028 397 
Q 2444 397 2656 737 
Q 2869 1078 2869 1747 
z
M 1178 3053 
Q 1316 3309 1558 3446 
Q 1800 3584 2119 3584 
Q 2750 3584 3112 3098 
Q 3475 2613 3475 1759 
Q 3475 894 3111 401 
Q 2747 -91 2113 -91 
Q 1800 -91 1561 45 
Q 1322 181 1178 441 
L 1178 0 
L 603 0 
L 603 4863 
L 1178 4863 
L 1178 3053 
z
" transform="scale(0.015625)"/>
      <path id="DejaVuSansMono-61" d="M 2194 1759 
L 2003 1759 
Q 1500 1759 1245 1582 
Q 991 1406 991 1056 
Q 991 741 1181 566 
Q 1372 391 1709 391 
Q 2184 391 2456 720 
Q 2728 1050 2731 1631 
L 2731 1759 
L 2194 1759 
z
M 3309 1997 
L 3309 0 
L 2731 0 
L 2731 519 
Q 2547 206 2267 57 
Q 1988 -91 1588 -91 
Q 1053 -91 734 211 
Q 416 513 416 1019 
Q 416 1603 808 1906 
Q 1200 2209 1959 2209 
L 2731 2209 
L 2731 2300 
Q 2728 2719 2518 2908 
Q 2309 3097 1850 3097 
Q 1556 3097 1256 3012 
Q 956 2928 672 2766 
L 672 3341 
Q 991 3463 1283 3523 
Q 1575 3584 1850 3584 
Q 2284 3584 2592 3456 
Q 2900 3328 3091 3072 
Q 3209 2916 3259 2686 
Q 3309 2456 3309 1997 
z
" transform="scale(0.015625)"/>
      <path id="DejaVuSansMono-73" d="M 3041 3378 
L 3041 2816 
Q 2794 2959 2544 3031 
Q 2294 3103 2034 3103 
Q 1644 3103 1451 2976 
Q 1259 2850 1259 2591 
Q 1259 2356 1403 2240 
Q 1547 2125 2119 2016 
L 2350 1972 
Q 2778 1891 2998 1647 
Q 3219 1403 3219 1013 
Q 3219 494 2850 201 
Q 2481 -91 1825 -91 
Q 1566 -91 1281 -36 
Q 997 19 666 128 
L 666 722 
Q 988 556 1281 473 
Q 1575 391 1838 391 
Q 2219 391 2428 545 
Q 2638 700 2638 978 
Q 2638 1378 1872 1531 
L 1847 1538 
L 1631 1581 
Q 1134 1678 906 1908 
Q 678 2138 678 2534 
Q 678 3038 1018 3311 
Q 1359 3584 1991 3584 
Q 2272 3584 2531 3532 
Q 2791 3481 3041 3378 
z
" transform="scale(0.015625)"/>
      <path id="DejaVuSansMono-65" d="M 3475 1894 
L 3475 1613 
L 984 1613 
L 984 1594 
Q 984 1022 1282 709 
Q 1581 397 2125 397 
Q 2400 397 2700 484 
Q 3000 572 3341 750 
L 3341 178 
Q 3013 44 2708 -23 
Q 2403 -91 2119 -91 
Q 1303 -91 843 398 
Q 384 888 384 1747 
Q 384 2584 834 3084 
Q 1284 3584 2034 3584 
Q 2703 3584 3089 3131 
Q 3475 2678 3475 1894 
z
M 2900 2063 
Q 2888 2569 2661 2833 
Q 2434 3097 2009 3097 
Q 1594 3097 1325 2822 
Q 1056 2547 1006 2059 
L 2900 2063 
z
" transform="scale(0.015625)"/>
      <path id="DejaVuSansMono-20" transform="scale(0.015625)"/>
      <path id="DejaVuSansMono-3a" d="M 1528 3322 
L 2316 3322 
L 2316 2375 
L 1528 2375 
L 1528 3322 
z
M 1528 953 
L 2316 953 
L 2316 0 
L 1528 0 
L 1528 953 
z
" transform="scale(0.015625)"/>
      <path id="DejaVuSansMono-7c" d="M 2194 4891 
L 2194 -1509 
L 1656 -1509 
L 1656 4891 
L 2194 4891 
z
" transform="scale(0.015625)"/>
      <path id="DejaVuSansMono-6d" d="M 2113 3144 
Q 2219 3369 2383 3476 
Q 2547 3584 2778 3584 
Q 3200 3584 3373 3257 
Q 3547 2931 3547 2028 
L 3547 0 
L 3022 0 
L 3022 2003 
Q 3022 2744 2939 2923 
Q 2856 3103 2638 3103 
Q 2388 3103 2295 2911 
Q 2203 2719 2203 2003 
L 2203 0 
L 1678 0 
L 1678 2003 
Q 1678 2753 1589 2928 
Q 1500 3103 1269 3103 
Q 1041 3103 952 2911 
Q 863 2719 863 2003 
L 863 0 
L 341 0 
L 341 3500 
L 863 3500 
L 863 3200 
Q 966 3388 1120 3486 
Q 1275 3584 1472 3584 
Q 1709 3584 1867 3475 
Q 2025 3366 2113 3144 
z
" transform="scale(0.015625)"/>
      <path id="DejaVuSansMono-36" d="M 3097 4563 
L 3097 3981 
Q 2900 4097 2678 4158 
Q 2456 4219 2216 4219 
Q 1616 4219 1306 3767 
Q 997 3316 997 2438 
Q 1147 2750 1412 2917 
Q 1678 3084 2022 3084 
Q 2697 3084 3067 2670 
Q 3438 2256 3438 1497 
Q 3438 741 3056 325 
Q 2675 -91 1984 -91 
Q 1172 -91 794 492 
Q 416 1075 416 2328 
Q 416 3509 870 4129 
Q 1325 4750 2188 4750 
Q 2419 4750 2650 4701 
Q 2881 4653 3097 4563 
z
M 1972 2591 
Q 1569 2591 1337 2300 
Q 1106 2009 1106 1497 
Q 1106 984 1337 693 
Q 1569 403 1972 403 
Q 2391 403 2603 679 
Q 2816 956 2816 1497 
Q 2816 2041 2603 2316 
Q 2391 2591 1972 2591 
z
" transform="scale(0.015625)"/>
      <path id="DejaVuSansMono-34" d="M 2297 4091 
L 825 1625 
L 2297 1625 
L 2297 4091 
z
M 2194 4666 
L 2925 4666 
L 2925 1625 
L 3547 1625 
L 3547 1113 
L 2925 1113 
L 2925 0 
L 2297 0 
L 2297 1113 
L 319 1113 
L 319 1709 
L 2194 4666 
z
" transform="scale(0.015625)"/>
      <path id="DejaVuSansMono-68" d="M 3284 2169 
L 3284 0 
L 2706 0 
L 2706 2169 
Q 2706 2641 2540 2862 
Q 2375 3084 2022 3084 
Q 1619 3084 1401 2798 
Q 1184 2513 1184 1978 
L 1184 0 
L 609 0 
L 609 4863 
L 1184 4863 
L 1184 2975 
Q 1338 3275 1600 3429 
Q 1863 3584 2222 3584 
Q 2756 3584 3020 3232 
Q 3284 2881 3284 2169 
z
" transform="scale(0.015625)"/>
      <path id="DejaVuSansMono-64" d="M 2681 3053 
L 2681 4863 
L 3256 4863 
L 3256 0 
L 2681 0 
L 2681 441 
Q 2538 181 2298 45 
Q 2059 -91 1747 -91 
Q 1113 -91 748 401 
Q 384 894 384 1759 
Q 384 2613 750 3098 
Q 1116 3584 1747 3584 
Q 2063 3584 2303 3448 
Q 2544 3313 2681 3053 
z
M 991 1747 
Q 991 1078 1203 737 
Q 1416 397 1831 397 
Q 2247 397 2464 740 
Q 2681 1084 2681 1747 
Q 2681 2413 2464 2755 
Q 2247 3097 1831 3097 
Q 1416 3097 1203 2756 
Q 991 2416 991 1747 
z
" transform="scale(0.015625)"/>
      <path id="DejaVuSansMono-70" d="M 1172 441 
L 1172 -1331 
L 594 -1331 
L 594 3500 
L 1172 3500 
L 1172 3053 
Q 1316 3313 1555 3448 
Q 1794 3584 2106 3584 
Q 2741 3584 3102 3093 
Q 3463 2603 3463 1734 
Q 3463 881 3100 395 
Q 2738 -91 2106 -91 
Q 1788 -91 1548 45 
Q 1309 181 1172 441 
z
M 2859 1747 
Q 2859 2416 2648 2756 
Q 2438 3097 2022 3097 
Q 1603 3097 1387 2755 
Q 1172 2413 1172 1747 
Q 1172 1084 1387 740 
Q 1603 397 2022 397 
Q 2438 397 2648 737 
Q 2859 1078 2859 1747 
z
" transform="scale(0.015625)"/>
      <path id="DejaVuSansMono-74" d="M 1919 4494 
L 1919 3500 
L 3225 3500 
L 3225 3053 
L 1919 3053 
L 1919 1153 
Q 1919 766 2066 612 
Q 2213 459 2578 459 
L 3225 459 
L 3225 0 
L 2522 0 
Q 1875 0 1609 259 
Q 1344 519 1344 1153 
L 1344 3053 
L 409 3053 
L 409 3500 
L 1344 3500 
L 1344 4494 
L 1919 4494 
z
" transform="scale(0.015625)"/>
      <path id="DejaVuSansMono-6c" d="M 1997 1269 
Q 1997 881 2139 684 
Q 2281 488 2559 488 
L 3231 488 
L 3231 0 
L 2503 0 
Q 1988 0 1705 331 
Q 1422 663 1422 1269 
L 1422 4447 
L 500 4447 
L 500 4897 
L 1997 4897 
L 1997 1269 
z
" transform="scale(0.015625)"/>
      <path id="DejaVuSansMono-72" d="M 3609 2778 
Q 3425 2922 3234 2987 
Q 3044 3053 2816 3053 
Q 2278 3053 1993 2715 
Q 1709 2378 1709 1741 
L 1709 0 
L 1131 0 
L 1131 3500 
L 1709 3500 
L 1709 2816 
Q 1853 3188 2151 3386 
Q 2450 3584 2859 3584 
Q 3072 3584 3256 3531 
Q 3441 3478 3609 3366 
L 3609 2778 
z
" transform="scale(0.015625)"/>
      <path id="DejaVuSansMono-2e" d="M 1528 953 
L 2316 953 
L 2316 0 
L 1528 0 
L 1528 953 
z
" transform="scale(0.015625)"/>
      <path id="DejaVuSansMono-6f" d="M 1925 3097 
Q 1488 3097 1263 2756 
Q 1038 2416 1038 1747 
Q 1038 1081 1263 739 
Q 1488 397 1925 397 
Q 2366 397 2591 739 
Q 2816 1081 2816 1747 
Q 2816 2416 2591 2756 
Q 2366 3097 1925 3097 
z
M 1925 3584 
Q 2653 3584 3039 3112 
Q 3425 2641 3425 1747 
Q 3425 850 3040 379 
Q 2656 -91 1925 -91 
Q 1197 -91 812 379 
Q 428 850 428 1747 
Q 428 2641 812 3112 
Q 1197 3584 1925 3584 
z
" transform="scale(0.015625)"/>
      <path id="DejaVuSansMono-75" d="M 609 1325 
L 609 3494 
L 1184 3494 
L 1184 1325 
Q 1184 853 1351 631 
Q 1519 409 1869 409 
Q 2275 409 2490 695 
Q 2706 981 2706 1516 
L 2706 3494 
L 3284 3494 
L 3284 0 
L 2706 0 
L 2706 525 
Q 2553 222 2289 65 
Q 2025 -91 1672 -91 
Q 1134 -91 871 261 
Q 609 613 609 1325 
z
" transform="scale(0.015625)"/>
     </defs>
     <use xlink:href="#DejaVuSansMono-62"/>
     <use xlink:href="#DejaVuSansMono-61" x="60.205078"/>
     <use xlink:href="#DejaVuSansMono-73" x="120.410156"/>
     <use xlink:href="#DejaVuSansMono-65" x="180.615234"/>
     <use xlink:href="#DejaVuSansMono-20" x="240.820312"/>
     <use xlink:href="#DejaVuSansMono-3a" x="301.025391"/>
     <use xlink:href="#DejaVuSansMono-20" x="361.230469"/>
     <use xlink:href="#DejaVuSansMono-31" x="421.435547"/>
     <use xlink:href="#DejaVuSansMono-31" x="481.640625"/>
     <use xlink:href="#DejaVuSansMono-20" x="541.845703"/>
     <use xlink:href="#DejaVuSansMono-20" x="602.050781"/>
     <use xlink:href="#DejaVuSansMono-20" x="662.255859"/>
     <use xlink:href="#DejaVuSansMono-7c" x="722.460938"/>
     <use xlink:href="#DejaVuSansMono-20" x="782.666016"/>
     <use xlink:href="#DejaVuSansMono-20" x="842.871094"/>
     <use xlink:href="#DejaVuSansMono-20" x="903.076172"/>
     <use xlink:href="#DejaVuSansMono-65" x="963.28125"/>
     <use xlink:href="#DejaVuSansMono-6d" x="1023.486328"/>
     <use xlink:href="#DejaVuSansMono-62" x="1083.691406"/>
     <use xlink:href="#DejaVuSansMono-20" x="1143.896484"/>
     <use xlink:href="#DejaVuSansMono-3a" x="1204.101562"/>
     <use xlink:href="#DejaVuSansMono-20" x="1264.306641"/>
     <use xlink:href="#DejaVuSansMono-36" x="1324.511719"/>
     <use xlink:href="#DejaVuSansMono-34" x="1384.716797"/>
     <use xlink:href="#DejaVuSansMono-20" x="1444.921875"/>
     <use xlink:href="#DejaVuSansMono-20" x="1505.126953"/>
     <use xlink:href="#DejaVuSansMono-20" x="1565.332031"/>
     <use xlink:href="#DejaVuSansMono-7c" x="1625.537109"/>
     <use xlink:href="#DejaVuSansMono-20" x="1685.742188"/>
     <use xlink:href="#DejaVuSansMono-20" x="1745.947266"/>
     <use xlink:href="#DejaVuSansMono-20" x="1806.152344"/>
     <use xlink:href="#DejaVuSansMono-68" x="1866.357422"/>
     <use xlink:href="#DejaVuSansMono-65" x="1926.5625"/>
     <use xlink:href="#DejaVuSansMono-61" x="1986.767578"/>
     <use xlink:href="#DejaVuSansMono-64" x="2046.972656"/>
     <use xlink:href="#DejaVuSansMono-73" x="2107.177734"/>
     <use xlink:href="#DejaVuSansMono-20" x="2167.382812"/>
     <use xlink:href="#DejaVuSansMono-3a" x="2227.587891"/>
     <use xlink:href="#DejaVuSansMono-20" x="2287.792969"/>
     <use xlink:href="#DejaVuSansMono-34" x="2347.998047"/>
     <use xlink:href="#DejaVuSansMono-20" x="2408.203125"/>
     <use xlink:href="#DejaVuSansMono-20" x="2468.408203"/>
     <use xlink:href="#DejaVuSansMono-20" x="2528.613281"/>
     <use xlink:href="#DejaVuSansMono-7c" x="2588.818359"/>
     <use xlink:href="#DejaVuSansMono-20" x="2649.023438"/>
     <use xlink:href="#DejaVuSansMono-20" x="2709.228516"/>
     <use xlink:href="#DejaVuSansMono-20" x="2769.433594"/>
     <use xlink:href="#DejaVuSansMono-64" x="2829.638672"/>
     <use xlink:href="#DejaVuSansMono-65" x="2889.84375"/>
     <use xlink:href="#DejaVuSansMono-70" x="2950.048828"/>
     <use xlink:href="#DejaVuSansMono-74" x="3010.253906"/>
     <use xlink:href="#DejaVuSansMono-68" x="3070.458984"/>
     <use xlink:href="#DejaVuSansMono-20" x="3130.664062"/>
     <use xlink:href="#DejaVuSansMono-3a" x="3190.869141"/>
     <use xlink:href="#DejaVuSansMono-20" x="3251.074219"/>
     <use xlink:href="#DejaVuSansMono-33" x="3311.279297"/>
     <use xlink:href="#DejaVuSansMono-20" x="3371.484375"/>
     <use xlink:href="#DejaVuSansMono-20" x="3431.689453"/>
     <use xlink:href="#DejaVuSansMono-20" x="3491.894531"/>
     <use xlink:href="#DejaVuSansMono-7c" x="3552.099609"/>
     <use xlink:href="#DejaVuSansMono-20" x="3612.304688"/>
     <use xlink:href="#DejaVuSansMono-20" x="3672.509766"/>
     <use xlink:href="#DejaVuSansMono-20" x="3732.714844"/>
     <use xlink:href="#DejaVuSansMono-6c" x="3792.919922"/>
     <use xlink:href="#DejaVuSansMono-72" x="3853.125"/>
     <use xlink:href="#DejaVuSansMono-20" x="3913.330078"/>
     <use xlink:href="#DejaVuSansMono-3a" x="3973.535156"/>
     <use xlink:href="#DejaVuSansMono-20" x="4033.740234"/>
     <use xlink:href="#DejaVuSansMono-30" x="4093.945312"/>
     <use xlink:href="#DejaVuSansMono-2e" x="4154.150391"/>
     <use xlink:href="#DejaVuSansMono-30" x="4214.355469"/>
     <use xlink:href="#DejaVuSansMono-30" x="4274.560547"/>
     <use xlink:href="#DejaVuSansMono-30" x="4334.765625"/>
     <use xlink:href="#DejaVuSansMono-33" x="4394.970703"/>
     <use xlink:href="#DejaVuSansMono-20" x="4455.175781"/>
     <use xlink:href="#DejaVuSansMono-20" x="4515.380859"/>
     <use xlink:href="#DejaVuSansMono-20" x="4575.585938"/>
     <use xlink:href="#DejaVuSansMono-7c" x="4635.791016"/>
     <use xlink:href="#DejaVuSansMono-20" x="4695.996094"/>
     <use xlink:href="#DejaVuSansMono-20" x="4756.201172"/>
     <use xlink:href="#DejaVuSansMono-20" x="4816.40625"/>
     <use xlink:href="#DejaVuSansMono-6c" x="4876.611328"/>
     <use xlink:href="#DejaVuSansMono-32" x="4936.816406"/>
     <use xlink:href="#DejaVuSansMono-20" x="4997.021484"/>
     <use xlink:href="#DejaVuSansMono-3a" x="5057.226562"/>
     <use xlink:href="#DejaVuSansMono-20" x="5117.431641"/>
     <use xlink:href="#DejaVuSansMono-30" x="5177.636719"/>
     <use xlink:href="#DejaVuSansMono-2e" x="5237.841797"/>
     <use xlink:href="#DejaVuSansMono-30" x="5298.046875"/>
     <use xlink:href="#DejaVuSansMono-31" x="5358.251953"/>
     <use xlink:href="#DejaVuSansMono-20" x="5418.457031"/>
     <use xlink:href="#DejaVuSansMono-20" x="5478.662109"/>
     <use xlink:href="#DejaVuSansMono-20" x="5538.867188"/>
     <use xlink:href="#DejaVuSansMono-7c" x="5599.072266"/>
     <use xlink:href="#DejaVuSansMono-20" x="5659.277344"/>
     <use xlink:href="#DejaVuSansMono-20" x="5719.482422"/>
     <use xlink:href="#DejaVuSansMono-20" x="5779.6875"/>
     <use xlink:href="#DejaVuSansMono-64" x="5839.892578"/>
     <use xlink:href="#DejaVuSansMono-72" x="5900.097656"/>
     <use xlink:href="#DejaVuSansMono-6f" x="5960.302734"/>
     <use xlink:href="#DejaVuSansMono-70" x="6020.507812"/>
     <use xlink:href="#DejaVuSansMono-6f" x="6080.712891"/>
     <use xlink:href="#DejaVuSansMono-75" x="6140.917969"/>
     <use xlink:href="#DejaVuSansMono-74" x="6201.123047"/>
     <use xlink:href="#DejaVuSansMono-20" x="6261.328125"/>
     <use xlink:href="#DejaVuSansMono-3a" x="6321.533203"/>
     <use xlink:href="#DejaVuSansMono-20" x="6381.738281"/>
     <use xlink:href="#DejaVuSansMono-30" x="6441.943359"/>
     <use xlink:href="#DejaVuSansMono-2e" x="6502.148438"/>
     <use xlink:href="#DejaVuSansMono-30" x="6562.353516"/>
     <use xlink:href="#DejaVuSansMono-31" x="6622.558594"/>
    </g>
   </g>
   <g id="text_13">
    <!-- train loss -->
    <g transform="translate(822.886611 121.708534) rotate(-270) scale(0.1 -0.1)">
     <defs>
      <path id="DejaVuSansMono-69" d="M 800 3500 
L 2272 3500 
L 2272 447 
L 3413 447 
L 3413 0 
L 556 0 
L 556 447 
L 1697 447 
L 1697 3053 
L 800 3053 
L 800 3500 
z
M 1697 4863 
L 2272 4863 
L 2272 4134 
L 1697 4134 
L 1697 4863 
z
" transform="scale(0.015625)"/>
      <path id="DejaVuSansMono-6e" d="M 3284 2169 
L 3284 0 
L 2706 0 
L 2706 2169 
Q 2706 2641 2540 2862 
Q 2375 3084 2022 3084 
Q 1619 3084 1401 2798 
Q 1184 2513 1184 1978 
L 1184 0 
L 609 0 
L 609 3500 
L 1184 3500 
L 1184 2975 
Q 1338 3275 1600 3429 
Q 1863 3584 2222 3584 
Q 2756 3584 3020 3232 
Q 3284 2881 3284 2169 
z
" transform="scale(0.015625)"/>
     </defs>
     <use xlink:href="#DejaVuSansMono-74"/>
     <use xlink:href="#DejaVuSansMono-72" x="60.205078"/>
     <use xlink:href="#DejaVuSansMono-61" x="120.410156"/>
     <use xlink:href="#DejaVuSansMono-69" x="180.615234"/>
     <use xlink:href="#DejaVuSansMono-6e" x="240.820312"/>
     <use xlink:href="#DejaVuSansMono-20" x="301.025391"/>
     <use xlink:href="#DejaVuSansMono-6c" x="361.230469"/>
     <use xlink:href="#DejaVuSansMono-6f" x="421.435547"/>
     <use xlink:href="#DejaVuSansMono-73" x="481.640625"/>
     <use xlink:href="#DejaVuSansMono-73" x="541.845703"/>
    </g>
   </g>
  </g>
 </g>
 <defs>
  <clipPath id="pdf7fc95202">
   <rect x="37.4175" y="10.8" width="814.725" height="250.684615"/>
  </clipPath>
 </defs>
</svg>
