<?xml version="1.0" encoding="utf-8" standalone="no"?>
<!DOCTYPE svg PUBLIC "-//W3C//DTD SVG 1.1//EN"
  "http://www.w3.org/Graphics/SVG/1.1/DTD/svg11.dtd">
<svg xmlns:xlink="http://www.w3.org/1999/xlink" width="864pt" height="432pt" viewBox="0 0 864 432" xmlns="http://www.w3.org/2000/svg" version="1.1">
 <metadata>
  <rdf:RDF xmlns:dc="http://purl.org/dc/elements/1.1/" xmlns:cc="http://creativecommons.org/ns#" xmlns:rdf="http://www.w3.org/1999/02/22-rdf-syntax-ns#">
   <cc:Work>
    <dc:type rdf:resource="http://purl.org/dc/dcmitype/StillImage"/>
    <dc:date>2024-09-16T17:59:55.582144</dc:date>
    <dc:format>image/svg+xml</dc:format>
    <dc:creator>
     <cc:Agent>
      <dc:title>Matplotlib v3.9.2, https://matplotlib.org/</dc:title>
     </cc:Agent>
    </dc:creator>
   </cc:Work>
  </rdf:RDF>
 </metadata>
 <defs>
  <style type="text/css">*{stroke-linejoin: round; stroke-linecap: butt}</style>
 </defs>
 <g id="figure_1">
  <g id="patch_1">
   <path d="M 0 432 
L 864 432 
L 864 0 
L 0 0 
z
" style="fill: #ffffff"/>
  </g>
  <g id="axes_1">
   <g id="patch_2">
    <path d="M 41.92 404.12 
L 853.2 404.12 
L 853.2 10.8 
L 41.92 10.8 
z
" style="fill: #ffffff"/>
   </g>
   <g id="matplotlib.axis_1">
    <g id="xtick_1">
     <g id="line2d_1">
      <defs>
       <path id="m97dcbb9874" d="M 0 0 
L 0 3.5 
" style="stroke: #000000; stroke-width: 0.8"/>
      </defs>
      <g>
       <use xlink:href="#m97dcbb9874" x="199.048644" y="404.12" style="stroke: #000000; stroke-width: 0.8"/>
      </g>
     </g>
     <g id="text_1">
      <!-- 200 -->
      <g transform="translate(190.018175 418.771563) scale(0.1 -0.1)">
       <defs>
        <path id="DejaVuSansMono-32" d="M 1166 531 
L 3309 531 
L 3309 0 
L 475 0 
L 475 531 
Q 1059 1147 1496 1619 
Q 1934 2091 2100 2284 
Q 2413 2666 2522 2902 
Q 2631 3138 2631 3384 
Q 2631 3775 2401 3997 
Q 2172 4219 1772 4219 
Q 1488 4219 1175 4116 
Q 863 4013 513 3803 
L 513 4441 
Q 834 4594 1145 4672 
Q 1456 4750 1759 4750 
Q 2444 4750 2861 4386 
Q 3278 4022 3278 3431 
Q 3278 3131 3139 2831 
Q 3000 2531 2688 2169 
Q 2513 1966 2180 1606 
Q 1847 1247 1166 531 
z
" transform="scale(0.015625)"/>
        <path id="DejaVuSansMono-30" d="M 1509 2344 
Q 1509 2516 1629 2641 
Q 1750 2766 1919 2766 
Q 2094 2766 2219 2641 
Q 2344 2516 2344 2344 
Q 2344 2169 2220 2047 
Q 2097 1925 1919 1925 
Q 1744 1925 1626 2044 
Q 1509 2163 1509 2344 
z
M 1925 4250 
Q 1484 4250 1267 3775 
Q 1050 3300 1050 2328 
Q 1050 1359 1267 884 
Q 1484 409 1925 409 
Q 2369 409 2586 884 
Q 2803 1359 2803 2328 
Q 2803 3300 2586 3775 
Q 2369 4250 1925 4250 
z
M 1925 4750 
Q 2672 4750 3055 4137 
Q 3438 3525 3438 2328 
Q 3438 1134 3055 521 
Q 2672 -91 1925 -91 
Q 1178 -91 797 521 
Q 416 1134 416 2328 
Q 416 3525 797 4137 
Q 1178 4750 1925 4750 
z
" transform="scale(0.015625)"/>
       </defs>
       <use xlink:href="#DejaVuSansMono-32"/>
       <use xlink:href="#DejaVuSansMono-30" x="60.205078"/>
       <use xlink:href="#DejaVuSansMono-30" x="120.410156"/>
      </g>
     </g>
    </g>
    <g id="xtick_2">
     <g id="line2d_2">
      <g>
       <use xlink:href="#m97dcbb9874" x="364.447217" y="404.12" style="stroke: #000000; stroke-width: 0.8"/>
      </g>
     </g>
     <g id="text_2">
      <!-- 400 -->
      <g transform="translate(355.416748 418.771563) scale(0.1 -0.1)">
       <defs>
        <path id="DejaVuSansMono-34" d="M 2297 4091 
L 825 1625 
L 2297 1625 
L 2297 4091 
z
M 2194 4666 
L 2925 4666 
L 2925 1625 
L 3547 1625 
L 3547 1113 
L 2925 1113 
L 2925 0 
L 2297 0 
L 2297 1113 
L 319 1113 
L 319 1709 
L 2194 4666 
z
" transform="scale(0.015625)"/>
       </defs>
       <use xlink:href="#DejaVuSansMono-34"/>
       <use xlink:href="#DejaVuSansMono-30" x="60.205078"/>
       <use xlink:href="#DejaVuSansMono-30" x="120.410156"/>
      </g>
     </g>
    </g>
    <g id="xtick_3">
     <g id="line2d_3">
      <g>
       <use xlink:href="#m97dcbb9874" x="529.84579" y="404.12" style="stroke: #000000; stroke-width: 0.8"/>
      </g>
     </g>
     <g id="text_3">
      <!-- 600 -->
      <g transform="translate(520.815321 418.771563) scale(0.1 -0.1)">
       <defs>
        <path id="DejaVuSansMono-36" d="M 3097 4563 
L 3097 3981 
Q 2900 4097 2678 4158 
Q 2456 4219 2216 4219 
Q 1616 4219 1306 3767 
Q 997 3316 997 2438 
Q 1147 2750 1412 2917 
Q 1678 3084 2022 3084 
Q 2697 3084 3067 2670 
Q 3438 2256 3438 1497 
Q 3438 741 3056 325 
Q 2675 -91 1984 -91 
Q 1172 -91 794 492 
Q 416 1075 416 2328 
Q 416 3509 870 4129 
Q 1325 4750 2188 4750 
Q 2419 4750 2650 4701 
Q 2881 4653 3097 4563 
z
M 1972 2591 
Q 1569 2591 1337 2300 
Q 1106 2009 1106 1497 
Q 1106 984 1337 693 
Q 1569 403 1972 403 
Q 2391 403 2603 679 
Q 2816 956 2816 1497 
Q 2816 2041 2603 2316 
Q 2391 2591 1972 2591 
z
" transform="scale(0.015625)"/>
       </defs>
       <use xlink:href="#DejaVuSansMono-36"/>
       <use xlink:href="#DejaVuSansMono-30" x="60.205078"/>
       <use xlink:href="#DejaVuSansMono-30" x="120.410156"/>
      </g>
     </g>
    </g>
    <g id="xtick_4">
     <g id="line2d_4">
      <g>
       <use xlink:href="#m97dcbb9874" x="695.244363" y="404.12" style="stroke: #000000; stroke-width: 0.8"/>
      </g>
     </g>
     <g id="text_4">
      <!-- 800 -->
      <g transform="translate(686.213894 418.771563) scale(0.1 -0.1)">
       <defs>
        <path id="DejaVuSansMono-38" d="M 1925 2216 
Q 1503 2216 1273 1980 
Q 1044 1744 1044 1313 
Q 1044 881 1276 642 
Q 1509 403 1925 403 
Q 2350 403 2579 639 
Q 2809 875 2809 1313 
Q 2809 1741 2576 1978 
Q 2344 2216 1925 2216 
z
M 1375 2478 
Q 972 2581 745 2862 
Q 519 3144 519 3541 
Q 519 4097 897 4423 
Q 1275 4750 1925 4750 
Q 2578 4750 2956 4423 
Q 3334 4097 3334 3541 
Q 3334 3144 3107 2862 
Q 2881 2581 2478 2478 
Q 2947 2375 3195 2062 
Q 3444 1750 3444 1253 
Q 3444 622 3041 265 
Q 2638 -91 1925 -91 
Q 1213 -91 811 264 
Q 409 619 409 1247 
Q 409 1747 657 2061 
Q 906 2375 1375 2478 
z
M 1147 3481 
Q 1147 3106 1347 2909 
Q 1547 2713 1925 2713 
Q 2306 2713 2506 2909 
Q 2706 3106 2706 3481 
Q 2706 3863 2507 4063 
Q 2309 4263 1925 4263 
Q 1547 4263 1347 4061 
Q 1147 3859 1147 3481 
z
" transform="scale(0.015625)"/>
       </defs>
       <use xlink:href="#DejaVuSansMono-38"/>
       <use xlink:href="#DejaVuSansMono-30" x="60.205078"/>
       <use xlink:href="#DejaVuSansMono-30" x="120.410156"/>
      </g>
     </g>
    </g>
   </g>
   <g id="matplotlib.axis_2">
    <g id="ytick_1">
     <g id="line2d_5">
      <defs>
       <path id="m24a6c0acdc" d="M 0 0 
L -3.5 0 
" style="stroke: #000000; stroke-width: 0.8"/>
      </defs>
      <g>
       <use xlink:href="#m24a6c0acdc" x="41.92" y="394.89474" style="stroke: #000000; stroke-width: 0.8"/>
      </g>
     </g>
     <g id="text_5">
      <!-- 0.12 -->
      <g transform="translate(10.83875 398.720521) scale(0.1 -0.1)">
       <defs>
        <path id="DejaVuSansMono-2e" d="M 1528 953 
L 2316 953 
L 2316 0 
L 1528 0 
L 1528 953 
z
" transform="scale(0.015625)"/>
        <path id="DejaVuSansMono-31" d="M 844 531 
L 1825 531 
L 1825 4097 
L 769 3859 
L 769 4434 
L 1819 4666 
L 2450 4666 
L 2450 531 
L 3419 531 
L 3419 0 
L 844 0 
L 844 531 
z
" transform="scale(0.015625)"/>
       </defs>
       <use xlink:href="#DejaVuSansMono-30"/>
       <use xlink:href="#DejaVuSansMono-2e" x="60.205078"/>
       <use xlink:href="#DejaVuSansMono-31" x="120.410156"/>
       <use xlink:href="#DejaVuSansMono-32" x="180.615234"/>
      </g>
     </g>
    </g>
    <g id="ytick_2">
     <g id="line2d_6">
      <g>
       <use xlink:href="#m24a6c0acdc" x="41.92" y="333.36616" style="stroke: #000000; stroke-width: 0.8"/>
      </g>
     </g>
     <g id="text_6">
      <!-- 0.14 -->
      <g transform="translate(10.83875 337.191941) scale(0.1 -0.1)">
       <use xlink:href="#DejaVuSansMono-30"/>
       <use xlink:href="#DejaVuSansMono-2e" x="60.205078"/>
       <use xlink:href="#DejaVuSansMono-31" x="120.410156"/>
       <use xlink:href="#DejaVuSansMono-34" x="180.615234"/>
      </g>
     </g>
    </g>
    <g id="ytick_3">
     <g id="line2d_7">
      <g>
       <use xlink:href="#m24a6c0acdc" x="41.92" y="271.837581" style="stroke: #000000; stroke-width: 0.8"/>
      </g>
     </g>
     <g id="text_7">
      <!-- 0.16 -->
      <g transform="translate(10.83875 275.663362) scale(0.1 -0.1)">
       <use xlink:href="#DejaVuSansMono-30"/>
       <use xlink:href="#DejaVuSansMono-2e" x="60.205078"/>
       <use xlink:href="#DejaVuSansMono-31" x="120.410156"/>
       <use xlink:href="#DejaVuSansMono-36" x="180.615234"/>
      </g>
     </g>
    </g>
    <g id="ytick_4">
     <g id="line2d_8">
      <g>
       <use xlink:href="#m24a6c0acdc" x="41.92" y="210.309001" style="stroke: #000000; stroke-width: 0.8"/>
      </g>
     </g>
     <g id="text_8">
      <!-- 0.18 -->
      <g transform="translate(10.83875 214.134782) scale(0.1 -0.1)">
       <use xlink:href="#DejaVuSansMono-30"/>
       <use xlink:href="#DejaVuSansMono-2e" x="60.205078"/>
       <use xlink:href="#DejaVuSansMono-31" x="120.410156"/>
       <use xlink:href="#DejaVuSansMono-38" x="180.615234"/>
      </g>
     </g>
    </g>
    <g id="ytick_5">
     <g id="line2d_9">
      <g>
       <use xlink:href="#m24a6c0acdc" x="41.92" y="148.780422" style="stroke: #000000; stroke-width: 0.8"/>
      </g>
     </g>
     <g id="text_9">
      <!-- 0.20 -->
      <g transform="translate(10.83875 152.606203) scale(0.1 -0.1)">
       <use xlink:href="#DejaVuSansMono-30"/>
       <use xlink:href="#DejaVuSansMono-2e" x="60.205078"/>
       <use xlink:href="#DejaVuSansMono-32" x="120.410156"/>
       <use xlink:href="#DejaVuSansMono-30" x="180.615234"/>
      </g>
     </g>
    </g>
    <g id="ytick_6">
     <g id="line2d_10">
      <g>
       <use xlink:href="#m24a6c0acdc" x="41.92" y="87.251842" style="stroke: #000000; stroke-width: 0.8"/>
      </g>
     </g>
     <g id="text_10">
      <!-- 0.22 -->
      <g transform="translate(10.83875 91.077624) scale(0.1 -0.1)">
       <use xlink:href="#DejaVuSansMono-30"/>
       <use xlink:href="#DejaVuSansMono-2e" x="60.205078"/>
       <use xlink:href="#DejaVuSansMono-32" x="120.410156"/>
       <use xlink:href="#DejaVuSansMono-32" x="180.615234"/>
      </g>
     </g>
    </g>
    <g id="ytick_7">
     <g id="line2d_11">
      <g>
       <use xlink:href="#m24a6c0acdc" x="41.92" y="25.723263" style="stroke: #000000; stroke-width: 0.8"/>
      </g>
     </g>
     <g id="text_11">
      <!-- 0.24 -->
      <g transform="translate(10.83875 29.549044) scale(0.1 -0.1)">
       <use xlink:href="#DejaVuSansMono-30"/>
       <use xlink:href="#DejaVuSansMono-2e" x="60.205078"/>
       <use xlink:href="#DejaVuSansMono-32" x="120.410156"/>
       <use xlink:href="#DejaVuSansMono-34" x="180.615234"/>
      </g>
     </g>
    </g>
   </g>
   <g id="line2d_12">
    <path d="M 33.650071 28.678182 
L 34.477064 93.884888 
L 35.304057 143.480348 
L 36.13105 241.037515 
L 36.958043 280.236843 
L 37.785036 301.668043 
L 38.612029 308.191363 
L 39.439021 290.203374 
L 40.266014 320.342574 
L 41.093007 334.942466 
L 41.92 341.030797 
L 42.746993 294.410548 
L 44.400979 285.427448 
L 45.227971 291.58184 
L 46.054964 286.675222 
L 46.881957 274.631835 
L 47.70895 267.482906 
L 48.535943 281.501801 
L 49.362936 277.823825 
L 50.189929 278.035392 
L 51.016922 319.908555 
L 51.843914 331.556038 
L 52.670907 335.997361 
L 53.4979 327.649884 
L 54.324893 329.578596 
L 55.151886 339.82309 
L 55.978879 365.184477 
L 56.805872 361.170384 
L 57.632864 354.036565 
L 58.459857 339.494356 
L 59.28685 315.671129 
L 60.113843 301.416274 
L 60.940836 268.564147 
L 61.767829 275.242581 
L 62.594822 278.731955 
L 63.421814 279.722242 
L 64.248807 272.551201 
L 65.0758 276.554984 
L 65.902793 249.818448 
L 66.729786 260.101967 
L 67.556779 282.659757 
L 68.383772 295.219464 
L 69.210765 326.133459 
L 70.037757 328.282098 
L 70.86475 328.67824 
L 71.691743 324.274105 
L 72.518736 331.508963 
L 73.345729 325.434531 
L 74.172722 356.737962 
L 74.999715 361.45576 
L 75.826707 367.239615 
L 76.6537 366.368583 
L 77.480693 363.929012 
L 78.307686 356.593145 
L 79.134679 333.321732 
L 79.961672 334.831564 
L 81.615657 308.946841 
L 82.44265 309.391186 
L 83.269643 307.524935 
L 84.096636 307.833786 
L 84.923629 310.101621 
L 85.750622 313.820606 
L 86.577615 308.720313 
L 87.404608 327.267185 
L 88.2316 330.333638 
L 89.885586 359.357825 
L 90.712579 353.504351 
L 91.539572 353.139932 
L 92.366565 334.865112 
L 93.193558 335.427428 
L 94.02055 330.165385 
L 95.674536 335.955408 
L 96.501529 333.983786 
L 97.328522 325.108596 
L 98.155515 329.01586 
L 98.982508 333.979396 
L 99.809501 334.082005 
L 100.636493 343.14367 
L 101.463486 343.449138 
L 102.290479 348.865136 
L 103.117472 358.265628 
L 103.944465 361.952375 
L 104.771458 341.465601 
L 105.598451 343.417051 
L 106.425443 340.862765 
L 107.252436 318.540545 
L 108.079429 320.467197 
L 108.906422 290.544368 
L 109.733415 250.034821 
L 110.560408 246.090299 
L 112.214393 246.247763 
L 113.041386 268.90671 
L 113.868379 273.658203 
L 114.695372 276.893837 
L 115.522365 306.737326 
L 116.349358 306.09727 
L 117.176351 323.038366 
L 118.003344 362.924968 
L 118.830336 368.148791 
L 119.657329 352.834333 
L 121.311315 331.638852 
L 122.138308 328.872536 
L 122.965301 328.956095 
L 123.792294 327.995157 
L 124.619286 328.719762 
L 125.446279 333.120358 
L 126.273272 332.026968 
L 127.100265 328.222938 
L 127.927258 342.403575 
L 129.581244 364.006935 
L 130.408236 369.291661 
L 131.235229 368.556563 
L 132.062222 359.155239 
L 132.889215 358.895519 
L 133.716208 371.394095 
L 134.543201 372.300254 
L 135.370194 375.836931 
L 136.197187 374.674261 
L 137.024179 371.642419 
L 137.851172 370.948233 
L 138.678165 367.814682 
L 139.505158 363.354113 
L 140.332151 373.504907 
L 141.159144 368.122555 
L 141.986137 369.401786 
L 142.813129 358.643214 
L 143.640122 325.975782 
L 144.467115 311.25777 
L 145.294108 313.3941 
L 146.121101 296.771781 
L 146.948094 293.996158 
L 147.775087 286.928783 
L 148.60208 271.068056 
L 149.429072 270.353218 
L 150.256065 268.246037 
L 151.083058 278.817323 
L 151.910051 309.557287 
L 152.737044 320.7852 
L 153.564037 318.573808 
L 154.39103 330.424875 
L 155.218022 322.333671 
L 156.045015 322.163994 
L 156.872008 335.555301 
L 157.699001 334.833967 
L 158.525994 339.920887 
L 159.352987 339.865874 
L 160.17998 342.187398 
L 161.006972 344.941736 
L 161.833965 346.197876 
L 162.660958 342.601281 
L 163.487951 348.561476 
L 164.314944 343.973307 
L 165.141937 346.073895 
L 165.96893 353.026192 
L 166.795923 351.186007 
L 167.622915 352.360866 
L 168.449908 352.15679 
L 169.276901 354.820146 
L 170.103894 354.52675 
L 170.930887 361.694791 
L 171.75788 369.86134 
L 172.584873 386.241818 
L 173.411865 380.520966 
L 174.238858 364.384747 
L 175.065851 365.849691 
L 175.892844 365.513503 
L 176.719837 344.651861 
L 177.54683 345.171475 
L 178.373823 339.753769 
L 180.027808 321.618138 
L 180.854801 320.994418 
L 181.681794 302.458411 
L 182.508787 319.173926 
L 183.33578 307.481717 
L 184.162773 306.308363 
L 184.989766 326.154052 
L 185.816758 325.859769 
L 186.643751 330.207706 
L 187.470744 340.555788 
L 188.297737 349.342298 
L 189.12473 350.05811 
L 189.951723 363.801005 
L 190.778716 363.807324 
L 191.605708 375.027563 
L 192.432701 371.158172 
L 193.259694 346.288055 
L 194.086687 345.010192 
L 194.91368 348.152986 
L 195.740673 326.810897 
L 196.567666 322.97071 
L 197.394659 321.589276 
L 198.221651 323.801399 
L 199.048644 312.007289 
L 199.875637 305.155395 
L 200.70263 306.420305 
L 201.529623 329.895341 
L 202.356616 325.035966 
L 203.183609 321.508059 
L 204.010601 343.580463 
L 204.837594 341.711295 
L 205.664587 338.68707 
L 208.145566 366.053593 
L 208.972559 367.850829 
L 209.799551 370.400343 
L 210.626544 376.634134 
L 211.453537 375.498917 
L 212.28053 369.145516 
L 213.107523 371.143358 
L 213.934516 373.932091 
L 214.761509 373.659416 
L 215.588502 370.749105 
L 216.415494 366.964726 
L 217.242487 364.54953 
L 218.06948 361.512588 
L 220.550459 348.263686 
L 221.377452 340.523712 
L 222.204444 342.200805 
L 223.031437 319.099121 
L 223.85843 320.643582 
L 225.512416 328.15994 
L 226.339409 331.167001 
L 227.166402 327.16974 
L 227.993394 331.857928 
L 229.64738 349.37265 
L 230.474373 343.552238 
L 231.301366 366.46547 
L 232.128359 369.579595 
L 232.955352 363.360001 
L 233.782345 360.186483 
L 234.609337 355.506505 
L 235.43633 361.827543 
L 236.263323 366.144588 
L 237.090316 368.526646 
L 237.917309 364.662795 
L 238.744302 367.871243 
L 239.571295 339.380108 
L 240.398287 327.662623 
L 241.22528 328.261815 
L 242.879266 335.275516 
L 243.706259 330.628196 
L 244.533252 331.280283 
L 245.360245 321.114819 
L 246.187238 321.2701 
L 247.01423 324.487721 
L 247.841223 343.788025 
L 248.668216 347.827439 
L 249.495209 346.012618 
L 250.322202 340.237862 
L 251.149195 336.453511 
L 251.976188 339.198822 
L 252.80318 336.312612 
L 253.630173 344.569606 
L 254.457166 348.21604 
L 255.284159 340.433818 
L 256.938145 356.264119 
L 257.765138 359.414544 
L 258.59213 364.475832 
L 259.419123 363.440239 
L 260.246116 366.214921 
L 261.073109 356.168141 
L 261.900102 357.962748 
L 262.727095 354.463353 
L 263.554088 359.749459 
L 264.381081 361.068788 
L 265.208073 357.396822 
L 266.035066 361.382813 
L 266.862059 359.535451 
L 268.516045 351.529888 
L 269.343038 343.229056 
L 270.170031 330.754755 
L 270.997023 336.732897 
L 271.824016 339.14154 
L 272.651009 338.748856 
L 273.478002 326.851947 
L 274.304995 323.056458 
L 275.131988 326.074657 
L 275.958981 334.165468 
L 276.785973 338.782695 
L 277.612966 355.076565 
L 278.439959 362.150111 
L 279.266952 352.681439 
L 280.093945 348.822661 
L 280.920938 349.720087 
L 281.747931 360.447764 
L 282.574924 364.475745 
L 283.401916 362.178989 
L 284.228909 364.077317 
L 285.055902 357.049497 
L 285.882895 355.897676 
L 286.709888 358.793822 
L 287.536881 366.573542 
L 288.363874 370.145622 
L 289.190866 359.622361 
L 290.844852 357.009715 
L 291.671845 342.848738 
L 292.498838 325.242667 
L 293.325831 332.861136 
L 294.152824 328.774981 
L 294.979817 307.211095 
L 295.806809 300.020661 
L 296.633802 299.675239 
L 297.460795 303.274304 
L 298.287788 290.327651 
L 299.114781 289.420093 
L 299.941774 287.824747 
L 300.768767 302.121848 
L 301.595759 299.853499 
L 302.422752 308.323098 
L 303.249745 331.215365 
L 304.076738 328.245284 
L 304.903731 327.753446 
L 305.730724 332.179526 
L 306.557717 348.711539 
L 307.384709 350.828959 
L 308.211702 368.437185 
L 309.038695 366.084349 
L 310.692681 359.578361 
L 311.519674 358.867229 
L 312.346667 370.027214 
L 313.17366 370.860378 
L 314.000652 370.905285 
L 314.827645 372.335883 
L 316.481631 361.142895 
L 317.308624 362.668927 
L 318.135617 363.419408 
L 318.96261 361.293235 
L 319.789602 362.1977 
L 320.616595 358.06403 
L 321.443588 352.81149 
L 322.270581 349.802901 
L 323.097574 341.608001 
L 323.924567 346.340686 
L 324.75156 344.019875 
L 325.578552 348.479318 
L 326.405545 352.28926 
L 327.232538 357.864448 
L 328.059531 355.260157 
L 328.886524 356.559426 
L 329.713517 356.182781 
L 330.54051 348.626918 
L 331.367503 357.567032 
L 332.194495 359.025404 
L 333.021488 364.090641 
L 334.675474 355.533788 
L 335.502467 354.348612 
L 336.32946 356.202023 
L 337.156453 355.497215 
L 337.983445 343.471323 
L 338.810438 355.203714 
L 339.637431 352.260056 
L 340.464424 352.263456 
L 341.291417 347.421141 
L 342.11841 350.793231 
L 342.945403 350.829699 
L 343.772396 352.122637 
L 344.599388 349.035952 
L 345.426381 340.808852 
L 346.253374 346.328969 
L 347.080367 342.930212 
L 347.90736 314.262552 
L 348.734353 301.887504 
L 349.561346 307.578957 
L 350.388338 306.424078 
L 351.215331 310.289481 
L 352.042324 307.571442 
L 352.869317 309.038791 
L 354.523303 325.727846 
L 355.350296 326.867309 
L 356.177288 358.888892 
L 357.004281 366.284499 
L 357.831274 367.371146 
L 358.658267 365.411357 
L 359.48526 353.550629 
L 360.312253 357.71594 
L 361.139246 358.205366 
L 361.966239 359.680578 
L 362.793231 357.559631 
L 363.620224 355.765682 
L 364.447217 345.931179 
L 365.27421 348.631771 
L 366.101203 331.571136 
L 366.928196 329.023337 
L 367.755189 332.539121 
L 368.582181 328.75769 
L 369.409174 327.917715 
L 370.236167 323.260672 
L 371.06316 323.795336 
L 371.890153 317.265967 
L 372.717146 324.384961 
L 373.544139 323.183047 
L 374.371131 341.45894 
L 375.198124 344.769611 
L 376.025117 354.649587 
L 376.85211 356.597306 
L 377.679103 356.109392 
L 378.506096 362.429275 
L 379.333089 367.554 
L 380.160082 379.602441 
L 380.987074 382.290949 
L 382.64106 374.468601 
L 383.468053 376.430741 
L 385.122039 370.017832 
L 386.776024 371.513861 
L 387.603017 371.73081 
L 388.43001 366.415062 
L 389.257003 354.950322 
L 390.083996 360.242535 
L 390.910989 359.877707 
L 391.737982 354.94462 
L 392.564975 356.352329 
L 393.391967 354.188844 
L 394.21896 357.855275 
L 395.045953 354.018246 
L 395.872946 350.985272 
L 396.699939 344.18723 
L 397.526932 340.712415 
L 398.353925 339.167427 
L 399.180917 340.097426 
L 400.00791 337.75622 
L 400.834903 335.99927 
L 401.661896 341.340396 
L 402.488889 332.493155 
L 403.315882 334.423897 
L 404.142875 327.635459 
L 404.969867 339.520321 
L 405.79686 339.936625 
L 406.623853 341.77991 
L 407.450846 332.229231 
L 408.277839 338.41552 
L 409.104832 339.928433 
L 409.931825 338.300135 
L 410.758818 343.714467 
L 411.58581 346.288059 
L 412.412803 355.265074 
L 413.239796 354.956188 
L 414.066789 361.582399 
L 414.893782 363.105436 
L 415.720775 369.109993 
L 416.547768 366.113259 
L 417.37476 357.804422 
L 418.201753 355.030464 
L 419.028746 356.340015 
L 419.855739 353.417631 
L 420.682732 346.552941 
L 421.509725 345.446361 
L 422.336718 345.553353 
L 423.16371 341.014191 
L 424.817696 346.931212 
L 425.644689 346.60955 
L 426.471682 349.9994 
L 427.298675 329.20523 
L 428.125668 330.646232 
L 428.952661 334.588368 
L 429.779653 333.439142 
L 430.606646 333.620778 
L 431.433639 336.679055 
L 432.260632 331.185086 
L 433.087625 332.750378 
L 433.914618 336.872262 
L 434.741611 339.366766 
L 435.568603 359.63136 
L 436.395596 360.754761 
L 437.222589 363.200027 
L 438.049582 364.433086 
L 438.876575 370.578204 
L 439.703568 370.39108 
L 440.530561 374.671616 
L 441.357554 372.16513 
L 442.184546 378.245723 
L 443.011539 371.875394 
L 443.838532 373.330814 
L 444.665525 367.158469 
L 445.492518 365.566811 
L 446.319511 364.457605 
L 447.146504 363.870864 
L 447.973496 365.940167 
L 448.800489 370.955219 
L 449.627482 370.270788 
L 450.454475 362.03427 
L 451.281468 367.830127 
L 452.108461 366.856313 
L 452.935454 370.528896 
L 453.762446 373.205297 
L 454.589439 373.910683 
L 455.416432 368.771053 
L 456.243425 367.88936 
L 457.070418 361.391693 
L 457.897411 362.341533 
L 458.724404 368.171916 
L 459.551397 367.952675 
L 461.205382 358.4621 
L 462.032375 356.45635 
L 462.859368 352.000013 
L 463.686361 353.894495 
L 464.513354 349.111894 
L 465.340347 341.497289 
L 466.167339 330.080588 
L 466.994332 332.417512 
L 467.821325 327.160509 
L 468.648318 333.458354 
L 469.475311 329.842354 
L 470.302304 323.152629 
L 471.129297 319.493408 
L 471.95629 319.62984 
L 472.783282 325.294469 
L 473.610275 337.167797 
L 474.437268 337.230702 
L 475.264261 332.109692 
L 476.091254 329.698567 
L 476.918247 326.269973 
L 477.74524 331.947335 
L 478.572232 339.821293 
L 479.399225 345.251321 
L 481.053211 340.869485 
L 481.880204 340.156013 
L 482.707197 351.797049 
L 483.53419 348.724166 
L 484.361182 355.076639 
L 485.188175 356.946801 
L 486.015168 359.56115 
L 486.842161 360.016504 
L 487.669154 356.826962 
L 488.496147 362.946732 
L 489.32314 363.849002 
L 490.150133 363.282152 
L 490.977125 364.439756 
L 491.804118 373.141739 
L 492.631111 373.01405 
L 493.458104 374.915078 
L 494.285097 371.886039 
L 495.11209 360.322809 
L 495.939083 368.225838 
L 496.766075 367.552902 
L 497.593068 356.465188 
L 498.420061 357.957522 
L 499.247054 349.847455 
L 500.074047 348.260253 
L 500.90104 350.830923 
L 501.728033 349.25428 
L 502.555025 353.617112 
L 503.382018 363.668568 
L 504.209011 355.112093 
L 505.036004 355.090515 
L 505.862997 360.237888 
L 506.68999 359.699126 
L 507.516983 355.97487 
L 508.343976 354.4122 
L 509.170968 354.116365 
L 509.997961 352.422082 
L 510.824954 352.13906 
L 511.651947 346.143094 
L 512.47894 349.275086 
L 513.305933 347.071081 
L 514.132926 349.44214 
L 514.959918 346.05505 
L 515.786911 358.78908 
L 517.440897 353.221158 
L 518.26789 351.654353 
L 519.094883 351.389457 
L 519.921876 359.347506 
L 520.748869 362.381111 
L 521.575861 359.148935 
L 522.402854 357.668539 
L 523.229847 360.414652 
L 524.05684 359.190054 
L 524.883833 361.974555 
L 525.710826 362.960281 
L 526.537819 367.657548 
L 527.364811 365.818591 
L 528.191804 364.323099 
L 529.018797 331.195816 
L 530.672783 334.240294 
L 531.499776 331.357318 
L 533.153761 329.668958 
L 533.980754 327.704218 
L 534.807747 321.160842 
L 535.63474 322.164093 
L 536.461733 321.002601 
L 537.288726 350.36419 
L 538.115719 351.98073 
L 538.942712 355.913516 
L 539.769704 361.825788 
L 540.596697 360.333775 
L 541.42369 360.229887 
L 542.250683 359.883552 
L 543.077676 364.072948 
L 543.904669 364.016736 
L 544.731662 363.485327 
L 545.558654 367.014414 
L 546.385647 368.364894 
L 547.21264 368.686224 
L 548.039633 364.788912 
L 548.866626 368.075849 
L 549.693619 364.789043 
L 550.520612 360.230244 
L 551.347604 359.356085 
L 552.174597 353.099377 
L 553.00159 349.786707 
L 553.828583 352.521693 
L 554.655576 350.68153 
L 555.482569 345.43891 
L 556.309562 338.858422 
L 557.136555 338.457782 
L 558.79054 350.849418 
L 559.617533 349.425852 
L 560.444526 350.407741 
L 561.271519 351.650761 
L 562.098512 351.126533 
L 562.925505 351.254199 
L 563.752497 356.76337 
L 564.57949 358.269378 
L 565.406483 358.014607 
L 566.233476 354.628356 
L 567.060469 357.141047 
L 567.887462 361.226979 
L 568.714455 367.358601 
L 569.541448 366.282016 
L 571.195433 361.055597 
L 572.022426 356.077662 
L 572.849419 355.845819 
L 573.676412 356.950629 
L 574.503405 360.809291 
L 575.330398 360.634514 
L 576.15739 351.701133 
L 576.984383 352.656967 
L 577.811376 354.474598 
L 578.638369 346.752805 
L 579.465362 350.690829 
L 580.292355 353.977699 
L 581.119348 358.127317 
L 581.94634 355.608495 
L 582.773333 349.247487 
L 583.600326 346.809585 
L 584.427319 347.6109 
L 585.254312 344.319256 
L 586.081305 335.300312 
L 586.908298 332.201116 
L 587.735291 331.081833 
L 588.562283 328.480935 
L 589.389276 327.309612 
L 590.216269 324.011487 
L 591.043262 326.5345 
L 591.870255 326.450278 
L 592.697248 335.157384 
L 593.524241 330.923489 
L 595.178226 354.792955 
L 596.005219 359.017645 
L 596.832212 361.733837 
L 597.659205 365.8666 
L 598.486198 370.651456 
L 599.313191 373.923959 
L 600.140183 373.741754 
L 600.967176 374.349009 
L 601.794169 381.701943 
L 602.621162 377.49124 
L 603.448155 376.936155 
L 604.275148 370.77893 
L 605.102141 371.621322 
L 605.929134 368.396028 
L 606.756126 359.663332 
L 607.583119 355.674089 
L 608.410112 355.458368 
L 610.064098 347.687622 
L 610.891091 347.068626 
L 611.718084 344.180035 
L 612.545076 347.275045 
L 613.372069 345.782356 
L 614.199062 347.401985 
L 615.026055 356.930126 
L 615.853048 361.652747 
L 616.680041 362.462424 
L 617.507034 358.564319 
L 618.334027 363.64118 
L 619.161019 367.199395 
L 619.988012 361.836077 
L 620.815005 351.918902 
L 621.641998 353.099299 
L 622.468991 355.065598 
L 623.295984 351.497395 
L 624.122977 348.729415 
L 624.949969 347.238539 
L 625.776962 333.269541 
L 626.603955 329.015266 
L 627.430948 330.14584 
L 629.084934 348.409458 
L 629.911927 347.404614 
L 630.738919 346.607058 
L 631.565912 344.980681 
L 632.392905 333.537932 
L 633.219898 333.701708 
L 634.046891 354.140137 
L 634.873884 356.500844 
L 635.700877 355.478757 
L 636.52787 355.839291 
L 637.354862 359.390887 
L 638.181855 358.054178 
L 639.008848 333.317015 
L 639.835841 336.540568 
L 640.662834 348.004501 
L 641.489827 347.670924 
L 642.31682 348.449025 
L 643.143812 348.650076 
L 643.970805 332.976874 
L 644.797798 332.000601 
L 645.624791 330.385327 
L 646.451784 332.357099 
L 647.278777 354.597733 
L 648.10577 357.073849 
L 648.932762 358.401398 
L 649.759755 360.07243 
L 650.586748 349.931191 
L 651.413741 347.129457 
L 652.240734 366.082888 
L 653.067727 367.303166 
L 653.89472 368.736685 
L 654.721713 364.409363 
L 655.548705 367.167441 
L 656.375698 366.463133 
L 657.202691 359.061874 
L 658.029684 358.561197 
L 658.856677 363.915393 
L 659.68367 360.698318 
L 660.510663 358.742556 
L 661.337655 358.093843 
L 662.164648 355.737074 
L 662.991641 359.965578 
L 664.645627 351.067543 
L 665.47262 359.210132 
L 666.299613 355.341747 
L 667.953598 362.99248 
L 668.780591 362.598355 
L 669.607584 357.665238 
L 670.434577 351.888802 
L 671.26157 349.63857 
L 672.088563 355.768544 
L 672.915556 358.616676 
L 673.742548 350.655805 
L 674.569541 345.643997 
L 675.396534 336.136694 
L 676.223527 340.177077 
L 677.05052 341.407949 
L 677.877513 340.290487 
L 678.704506 337.230106 
L 679.531498 339.499784 
L 680.358491 336.662286 
L 681.185484 336.242824 
L 682.012477 340.144972 
L 682.83947 347.807266 
L 683.666463 356.507409 
L 684.493456 356.596105 
L 685.320449 354.916505 
L 686.147441 352.413324 
L 686.974434 363.104748 
L 687.801427 361.039958 
L 688.62842 361.976866 
L 689.455413 360.531117 
L 690.282406 363.969542 
L 691.109399 352.916645 
L 691.936391 353.535891 
L 692.763384 349.531517 
L 693.590377 347.752998 
L 694.41737 353.75501 
L 695.244363 350.860913 
L 696.071356 349.200154 
L 696.898349 349.233995 
L 697.725341 344.514432 
L 698.552334 343.290478 
L 699.379327 357.873314 
L 700.20632 355.79801 
L 701.860306 362.728836 
L 702.687299 357.921655 
L 703.514292 358.249469 
L 704.341284 362.763127 
L 705.168277 364.357533 
L 705.99527 371.023458 
L 706.822263 368.586441 
L 707.649256 369.198709 
L 708.476249 367.601809 
L 709.303242 365.354987 
L 710.130234 354.559228 
L 710.957227 360.488181 
L 711.78422 362.296694 
L 712.611213 363.058869 
L 713.438206 362.644248 
L 714.265199 363.873142 
L 715.092192 363.307557 
L 715.919185 354.699689 
L 716.746177 354.522934 
L 717.57317 354.012915 
L 718.400163 358.721471 
L 719.227156 360.818003 
L 720.881142 354.304018 
L 721.708135 349.07715 
L 722.535127 344.666466 
L 723.36212 351.336094 
L 724.189113 358.913074 
L 725.016106 360.022885 
L 725.843099 359.509859 
L 726.670092 362.333744 
L 727.497085 358.463626 
L 728.324077 356.780671 
L 729.15107 357.207743 
L 729.978063 361.577061 
L 730.805056 363.994315 
L 731.632049 359.352789 
L 732.459042 356.956735 
L 733.286035 357.055113 
L 734.113028 358.920704 
L 734.94002 363.038355 
L 735.767013 363.477658 
L 736.594006 365.575395 
L 737.420999 362.370235 
L 738.247992 351.752877 
L 739.074985 347.276595 
L 739.901978 351.069517 
L 740.72897 348.352504 
L 742.382956 344.417611 
L 743.209949 328.396174 
L 744.036942 331.790364 
L 744.863935 330.753386 
L 745.690928 335.394367 
L 746.51792 342.355167 
L 747.344913 336.563681 
L 748.171906 332.548534 
L 748.998899 335.084612 
L 749.825892 335.321324 
L 750.652885 336.148962 
L 751.479878 350.574391 
L 752.306871 335.286415 
L 753.133863 340.415176 
L 753.960856 339.573565 
L 754.787849 342.138927 
L 755.614842 354.829606 
L 756.441835 358.503493 
L 757.268828 360.010588 
L 758.095821 365.515232 
L 758.922813 363.749792 
L 759.749806 364.806752 
L 760.576799 379.866181 
L 762.230785 378.358424 
L 763.057778 375.322788 
L 763.884771 373.596814 
L 764.711764 370.568919 
L 765.538756 353.198734 
L 766.365749 352.541102 
L 767.192742 356.449063 
L 768.019735 351.721571 
L 768.846728 345.427816 
L 770.500714 345.218319 
L 772.154699 342.287405 
L 772.981692 342.848218 
L 773.808685 358.486942 
L 774.635678 356.557077 
L 775.462671 354.284533 
L 776.289664 359.65495 
L 777.116656 357.896419 
L 777.943649 355.741236 
L 778.770642 350.771818 
L 779.597635 357.611614 
L 780.424628 354.360469 
L 781.251621 357.6121 
L 782.078614 359.234259 
L 782.905607 355.74445 
L 783.732599 353.314002 
L 784.559592 350.301547 
L 785.386585 352.306073 
L 786.213578 352.243902 
L 787.040571 360.015271 
L 787.867564 359.863349 
L 788.694557 357.574514 
L 789.521549 353.575001 
L 790.348542 351.650241 
L 791.175535 356.963091 
L 792.002528 354.7059 
L 792.829521 353.781819 
L 793.656514 359.927008 
L 794.483507 357.288331 
L 795.310499 356.346307 
L 796.137492 348.819995 
L 796.964485 356.117838 
L 797.791478 360.002502 
L 798.618471 363.127319 
L 799.445464 364.352099 
L 800.272457 372.412195 
L 801.09945 370.922529 
L 801.926442 368.436188 
L 802.753435 369.948119 
L 803.580428 367.572823 
L 804.407421 374.205209 
L 805.234414 362.56999 
L 806.061407 360.953671 
L 806.8884 360.389345 
L 807.715392 354.307668 
L 808.542385 332.740738 
L 809.369378 334.826387 
L 810.196371 335.549073 
L 811.023364 337.87511 
L 811.850357 338.778901 
L 812.67735 340.170497 
L 813.504343 347.891676 
L 814.331335 341.022628 
L 815.158328 336.904428 
L 815.985321 334.662975 
L 816.812314 348.720068 
L 817.639307 349.449544 
L 818.4663 347.799741 
L 819.293293 350.316304 
L 820.120285 351.463527 
L 820.947278 343.85501 
L 821.774271 346.827402 
L 822.601264 355.970207 
L 823.428257 359.397621 
L 824.25525 364.89368 
L 825.082243 372.610665 
L 825.909235 370.140678 
L 826.736228 370.815771 
L 827.563221 360.094338 
L 828.390214 358.53131 
L 829.217207 361.403247 
L 830.0442 362.094394 
L 830.871193 359.230337 
L 831.698186 361.104552 
L 832.525178 363.37358 
L 833.352171 360.565455 
L 835.006157 339.615554 
L 835.83315 334.692905 
L 837.487136 342.360964 
L 838.314128 342.569643 
L 839.141121 342.030514 
L 839.968114 340.842399 
L 840.795107 338.65317 
L 841.6221 338.701895 
L 843.276086 362.257105 
L 844.103078 376.996399 
L 844.930071 374.707925 
L 845.757064 374.880334 
L 846.584057 371.821452 
L 847.41105 371.186443 
L 848.238043 364.582631 
L 849.065036 365.640709 
L 850.719021 355.037787 
L 851.546014 354.466151 
L 852.373007 351.788996 
L 852.373007 351.788996 
" clip-path="url(#p8e2a856a27)" style="fill: none; stroke-dasharray: 7.4,3.2; stroke-dashoffset: 0; stroke: #000000; stroke-width: 2"/>
   </g>
   <g id="patch_3">
    <path d="M 41.92 404.12 
L 41.92 10.8 
" style="fill: none; stroke: #000000; stroke-width: 0.8; stroke-linejoin: miter; stroke-linecap: square"/>
   </g>
   <g id="patch_4">
    <path d="M 853.2 404.12 
L 853.2 10.8 
" style="fill: none; stroke: #000000; stroke-width: 0.8; stroke-linejoin: miter; stroke-linecap: square"/>
   </g>
   <g id="patch_5">
    <path d="M 41.92 404.12 
L 853.2 404.12 
" style="fill: none; stroke: #000000; stroke-width: 0.8; stroke-linejoin: miter; stroke-linecap: square"/>
   </g>
   <g id="patch_6">
    <path d="M 41.92 10.8 
L 853.2 10.8 
" style="fill: none; stroke: #000000; stroke-width: 0.8; stroke-linejoin: miter; stroke-linecap: square"/>
   </g>
  </g>
 </g>
 <defs>
  <clipPath id="p8e2a856a27">
   <rect x="41.92" y="10.8" width="811.28" height="393.32"/>
  </clipPath>
 </defs>
</svg>
