<?xml version="1.0" encoding="utf-8" standalone="no"?>
<!DOCTYPE svg PUBLIC "-//W3C//DTD SVG 1.1//EN"
  "http://www.w3.org/Graphics/SVG/1.1/DTD/svg11.dtd">
<svg xmlns:xlink="http://www.w3.org/1999/xlink" width="864pt" height="432pt" viewBox="0 0 864 432" xmlns="http://www.w3.org/2000/svg" version="1.1">
 <metadata>
  <rdf:RDF xmlns:dc="http://purl.org/dc/elements/1.1/" xmlns:cc="http://creativecommons.org/ns#" xmlns:rdf="http://www.w3.org/1999/02/22-rdf-syntax-ns#">
   <cc:Work>
    <dc:type rdf:resource="http://purl.org/dc/dcmitype/StillImage"/>
    <dc:date>2024-09-16T17:59:55.500387</dc:date>
    <dc:format>image/svg+xml</dc:format>
    <dc:creator>
     <cc:Agent>
      <dc:title>Matplotlib v3.9.2, https://matplotlib.org/</dc:title>
     </cc:Agent>
    </dc:creator>
   </cc:Work>
  </rdf:RDF>
 </metadata>
 <defs>
  <style type="text/css">*{stroke-linejoin: round; stroke-linecap: butt}</style>
 </defs>
 <g id="figure_1">
  <g id="patch_1">
   <path d="M 0 432 
L 864 432 
L 864 0 
L 0 0 
z
" style="fill: #ffffff"/>
  </g>
  <g id="axes_1">
   <g id="patch_2">
    <path d="M 41.92 404.12 
L 853.2 404.12 
L 853.2 10.8 
L 41.92 10.8 
z
" style="fill: #ffffff"/>
   </g>
   <g id="matplotlib.axis_1">
    <g id="xtick_1">
     <g id="line2d_1">
      <defs>
       <path id="mdc4e3b3e51" d="M 0 0 
L 0 3.5 
" style="stroke: #000000; stroke-width: 0.8"/>
      </defs>
      <g>
       <use xlink:href="#mdc4e3b3e51" x="199.048644" y="404.12" style="stroke: #000000; stroke-width: 0.8"/>
      </g>
     </g>
     <g id="text_1">
      <!-- 200 -->
      <g transform="translate(190.018175 418.771563) scale(0.1 -0.1)">
       <defs>
        <path id="DejaVuSansMono-32" d="M 1166 531 
L 3309 531 
L 3309 0 
L 475 0 
L 475 531 
Q 1059 1147 1496 1619 
Q 1934 2091 2100 2284 
Q 2413 2666 2522 2902 
Q 2631 3138 2631 3384 
Q 2631 3775 2401 3997 
Q 2172 4219 1772 4219 
Q 1488 4219 1175 4116 
Q 863 4013 513 3803 
L 513 4441 
Q 834 4594 1145 4672 
Q 1456 4750 1759 4750 
Q 2444 4750 2861 4386 
Q 3278 4022 3278 3431 
Q 3278 3131 3139 2831 
Q 3000 2531 2688 2169 
Q 2513 1966 2180 1606 
Q 1847 1247 1166 531 
z
" transform="scale(0.015625)"/>
        <path id="DejaVuSansMono-30" d="M 1509 2344 
Q 1509 2516 1629 2641 
Q 1750 2766 1919 2766 
Q 2094 2766 2219 2641 
Q 2344 2516 2344 2344 
Q 2344 2169 2220 2047 
Q 2097 1925 1919 1925 
Q 1744 1925 1626 2044 
Q 1509 2163 1509 2344 
z
M 1925 4250 
Q 1484 4250 1267 3775 
Q 1050 3300 1050 2328 
Q 1050 1359 1267 884 
Q 1484 409 1925 409 
Q 2369 409 2586 884 
Q 2803 1359 2803 2328 
Q 2803 3300 2586 3775 
Q 2369 4250 1925 4250 
z
M 1925 4750 
Q 2672 4750 3055 4137 
Q 3438 3525 3438 2328 
Q 3438 1134 3055 521 
Q 2672 -91 1925 -91 
Q 1178 -91 797 521 
Q 416 1134 416 2328 
Q 416 3525 797 4137 
Q 1178 4750 1925 4750 
z
" transform="scale(0.015625)"/>
       </defs>
       <use xlink:href="#DejaVuSansMono-32"/>
       <use xlink:href="#DejaVuSansMono-30" x="60.205078"/>
       <use xlink:href="#DejaVuSansMono-30" x="120.410156"/>
      </g>
     </g>
    </g>
    <g id="xtick_2">
     <g id="line2d_2">
      <g>
       <use xlink:href="#mdc4e3b3e51" x="364.447217" y="404.12" style="stroke: #000000; stroke-width: 0.8"/>
      </g>
     </g>
     <g id="text_2">
      <!-- 400 -->
      <g transform="translate(355.416748 418.771563) scale(0.1 -0.1)">
       <defs>
        <path id="DejaVuSansMono-34" d="M 2297 4091 
L 825 1625 
L 2297 1625 
L 2297 4091 
z
M 2194 4666 
L 2925 4666 
L 2925 1625 
L 3547 1625 
L 3547 1113 
L 2925 1113 
L 2925 0 
L 2297 0 
L 2297 1113 
L 319 1113 
L 319 1709 
L 2194 4666 
z
" transform="scale(0.015625)"/>
       </defs>
       <use xlink:href="#DejaVuSansMono-34"/>
       <use xlink:href="#DejaVuSansMono-30" x="60.205078"/>
       <use xlink:href="#DejaVuSansMono-30" x="120.410156"/>
      </g>
     </g>
    </g>
    <g id="xtick_3">
     <g id="line2d_3">
      <g>
       <use xlink:href="#mdc4e3b3e51" x="529.84579" y="404.12" style="stroke: #000000; stroke-width: 0.8"/>
      </g>
     </g>
     <g id="text_3">
      <!-- 600 -->
      <g transform="translate(520.815321 418.771563) scale(0.1 -0.1)">
       <defs>
        <path id="DejaVuSansMono-36" d="M 3097 4563 
L 3097 3981 
Q 2900 4097 2678 4158 
Q 2456 4219 2216 4219 
Q 1616 4219 1306 3767 
Q 997 3316 997 2438 
Q 1147 2750 1412 2917 
Q 1678 3084 2022 3084 
Q 2697 3084 3067 2670 
Q 3438 2256 3438 1497 
Q 3438 741 3056 325 
Q 2675 -91 1984 -91 
Q 1172 -91 794 492 
Q 416 1075 416 2328 
Q 416 3509 870 4129 
Q 1325 4750 2188 4750 
Q 2419 4750 2650 4701 
Q 2881 4653 3097 4563 
z
M 1972 2591 
Q 1569 2591 1337 2300 
Q 1106 2009 1106 1497 
Q 1106 984 1337 693 
Q 1569 403 1972 403 
Q 2391 403 2603 679 
Q 2816 956 2816 1497 
Q 2816 2041 2603 2316 
Q 2391 2591 1972 2591 
z
" transform="scale(0.015625)"/>
       </defs>
       <use xlink:href="#DejaVuSansMono-36"/>
       <use xlink:href="#DejaVuSansMono-30" x="60.205078"/>
       <use xlink:href="#DejaVuSansMono-30" x="120.410156"/>
      </g>
     </g>
    </g>
    <g id="xtick_4">
     <g id="line2d_4">
      <g>
       <use xlink:href="#mdc4e3b3e51" x="695.244363" y="404.12" style="stroke: #000000; stroke-width: 0.8"/>
      </g>
     </g>
     <g id="text_4">
      <!-- 800 -->
      <g transform="translate(686.213894 418.771563) scale(0.1 -0.1)">
       <defs>
        <path id="DejaVuSansMono-38" d="M 1925 2216 
Q 1503 2216 1273 1980 
Q 1044 1744 1044 1313 
Q 1044 881 1276 642 
Q 1509 403 1925 403 
Q 2350 403 2579 639 
Q 2809 875 2809 1313 
Q 2809 1741 2576 1978 
Q 2344 2216 1925 2216 
z
M 1375 2478 
Q 972 2581 745 2862 
Q 519 3144 519 3541 
Q 519 4097 897 4423 
Q 1275 4750 1925 4750 
Q 2578 4750 2956 4423 
Q 3334 4097 3334 3541 
Q 3334 3144 3107 2862 
Q 2881 2581 2478 2478 
Q 2947 2375 3195 2062 
Q 3444 1750 3444 1253 
Q 3444 622 3041 265 
Q 2638 -91 1925 -91 
Q 1213 -91 811 264 
Q 409 619 409 1247 
Q 409 1747 657 2061 
Q 906 2375 1375 2478 
z
M 1147 3481 
Q 1147 3106 1347 2909 
Q 1547 2713 1925 2713 
Q 2306 2713 2506 2909 
Q 2706 3106 2706 3481 
Q 2706 3863 2507 4063 
Q 2309 4263 1925 4263 
Q 1547 4263 1347 4061 
Q 1147 3859 1147 3481 
z
" transform="scale(0.015625)"/>
       </defs>
       <use xlink:href="#DejaVuSansMono-38"/>
       <use xlink:href="#DejaVuSansMono-30" x="60.205078"/>
       <use xlink:href="#DejaVuSansMono-30" x="120.410156"/>
      </g>
     </g>
    </g>
   </g>
   <g id="matplotlib.axis_2">
    <g id="ytick_1">
     <g id="line2d_5">
      <defs>
       <path id="m21ebafe9c6" d="M 0 0 
L -3.5 0 
" style="stroke: #000000; stroke-width: 0.8"/>
      </defs>
      <g>
       <use xlink:href="#m21ebafe9c6" x="41.92" y="386.241818" style="stroke: #000000; stroke-width: 0.8"/>
      </g>
     </g>
     <g id="text_5">
      <!-- 0.00 -->
      <g transform="translate(10.83875 390.067599) scale(0.1 -0.1)">
       <defs>
        <path id="DejaVuSansMono-2e" d="M 1528 953 
L 2316 953 
L 2316 0 
L 1528 0 
L 1528 953 
z
" transform="scale(0.015625)"/>
       </defs>
       <use xlink:href="#DejaVuSansMono-30"/>
       <use xlink:href="#DejaVuSansMono-2e" x="60.205078"/>
       <use xlink:href="#DejaVuSansMono-30" x="120.410156"/>
       <use xlink:href="#DejaVuSansMono-30" x="180.615234"/>
      </g>
     </g>
    </g>
    <g id="ytick_2">
     <g id="line2d_6">
      <g>
       <use xlink:href="#m21ebafe9c6" x="41.92" y="301.366714" style="stroke: #000000; stroke-width: 0.8"/>
      </g>
     </g>
     <g id="text_6">
      <!-- 0.05 -->
      <g transform="translate(10.83875 305.192495) scale(0.1 -0.1)">
       <defs>
        <path id="DejaVuSansMono-35" d="M 647 4666 
L 3009 4666 
L 3009 4134 
L 1222 4134 
L 1222 2988 
Q 1356 3038 1492 3061 
Q 1628 3084 1766 3084 
Q 2491 3084 2916 2656 
Q 3341 2228 3341 1497 
Q 3341 759 2895 334 
Q 2450 -91 1678 -91 
Q 1306 -91 998 -41 
Q 691 9 447 109 
L 447 750 
Q 734 594 1025 517 
Q 1316 441 1619 441 
Q 2141 441 2423 716 
Q 2706 991 2706 1497 
Q 2706 1997 2414 2275 
Q 2122 2553 1600 2553 
Q 1347 2553 1106 2495 
Q 866 2438 647 2322 
L 647 4666 
z
" transform="scale(0.015625)"/>
       </defs>
       <use xlink:href="#DejaVuSansMono-30"/>
       <use xlink:href="#DejaVuSansMono-2e" x="60.205078"/>
       <use xlink:href="#DejaVuSansMono-30" x="120.410156"/>
       <use xlink:href="#DejaVuSansMono-35" x="180.615234"/>
      </g>
     </g>
    </g>
    <g id="ytick_3">
     <g id="line2d_7">
      <g>
       <use xlink:href="#m21ebafe9c6" x="41.92" y="216.49161" style="stroke: #000000; stroke-width: 0.8"/>
      </g>
     </g>
     <g id="text_7">
      <!-- 0.10 -->
      <g transform="translate(10.83875 220.317391) scale(0.1 -0.1)">
       <defs>
        <path id="DejaVuSansMono-31" d="M 844 531 
L 1825 531 
L 1825 4097 
L 769 3859 
L 769 4434 
L 1819 4666 
L 2450 4666 
L 2450 531 
L 3419 531 
L 3419 0 
L 844 0 
L 844 531 
z
" transform="scale(0.015625)"/>
       </defs>
       <use xlink:href="#DejaVuSansMono-30"/>
       <use xlink:href="#DejaVuSansMono-2e" x="60.205078"/>
       <use xlink:href="#DejaVuSansMono-31" x="120.410156"/>
       <use xlink:href="#DejaVuSansMono-30" x="180.615234"/>
      </g>
     </g>
    </g>
    <g id="ytick_4">
     <g id="line2d_8">
      <g>
       <use xlink:href="#m21ebafe9c6" x="41.92" y="131.616505" style="stroke: #000000; stroke-width: 0.8"/>
      </g>
     </g>
     <g id="text_8">
      <!-- 0.15 -->
      <g transform="translate(10.83875 135.442286) scale(0.1 -0.1)">
       <use xlink:href="#DejaVuSansMono-30"/>
       <use xlink:href="#DejaVuSansMono-2e" x="60.205078"/>
       <use xlink:href="#DejaVuSansMono-31" x="120.410156"/>
       <use xlink:href="#DejaVuSansMono-35" x="180.615234"/>
      </g>
     </g>
    </g>
    <g id="ytick_5">
     <g id="line2d_9">
      <g>
       <use xlink:href="#m21ebafe9c6" x="41.92" y="46.741401" style="stroke: #000000; stroke-width: 0.8"/>
      </g>
     </g>
     <g id="text_9">
      <!-- 0.20 -->
      <g transform="translate(10.83875 50.567182) scale(0.1 -0.1)">
       <use xlink:href="#DejaVuSansMono-30"/>
       <use xlink:href="#DejaVuSansMono-2e" x="60.205078"/>
       <use xlink:href="#DejaVuSansMono-32" x="120.410156"/>
       <use xlink:href="#DejaVuSansMono-30" x="180.615234"/>
      </g>
     </g>
    </g>
   </g>
   <g id="line2d_10">
    <path d="M 33.650071 28.678182 
L 34.477064 77.943228 
L 35.304057 101.164787 
L 36.13105 150.726894 
L 37.785036 238.391132 
L 38.612029 249.834966 
L 39.439021 205.574173 
L 40.266014 208.519949 
L 41.093007 247.913458 
L 41.92 261.493475 
L 42.746993 211.931368 
L 43.573986 209.480362 
L 44.400979 209.480362 
L 45.227971 217.967872 
L 46.054964 201.645738 
L 46.881957 171.275095 
L 47.70895 166.418351 
L 48.535943 212.077842 
L 50.189929 212.077842 
L 51.016922 256.858253 
L 51.843914 285.649808 
L 52.670907 285.649808 
L 53.4979 272.941237 
L 54.324893 289.263372 
L 55.151886 319.634014 
L 55.978879 368.751551 
L 56.805872 368.751551 
L 57.632864 350.961138 
L 59.28685 259.037541 
L 60.113843 222.662496 
L 60.940836 173.08466 
L 61.767829 185.79323 
L 63.421814 185.79323 
L 64.248807 171.269149 
L 65.0758 171.269149 
L 65.902793 139.497456 
L 69.210765 317.440119 
L 71.691743 317.440119 
L 72.518736 331.9642 
L 73.345729 331.9642 
L 74.172722 381.526307 
L 75.826707 386.241818 
L 78.307686 386.241818 
L 79.134679 337.249647 
L 79.961672 337.249647 
L 80.788665 297.982129 
L 81.615657 250.568371 
L 82.44265 248.177523 
L 85.750622 248.177523 
L 86.577615 226.274268 
L 87.404608 275.266439 
L 88.2316 275.266439 
L 89.058593 314.533957 
L 89.885586 361.947715 
L 90.712579 335.119265 
L 91.539572 335.119265 
L 92.366565 287.640256 
L 94.02055 287.640256 
L 94.847543 298.289354 
L 96.501529 298.289354 
L 97.328522 295.915226 
L 98.155515 295.915226 
L 98.982508 325.134524 
L 99.809501 325.134524 
L 100.636493 368.369778 
L 102.290479 368.369778 
L 103.117472 379.623934 
L 103.944465 379.623934 
L 104.771458 330.959654 
L 105.598451 333.333783 
L 106.425443 333.333783 
L 107.252436 283.711747 
L 108.079429 283.711747 
L 109.733415 188.831287 
L 112.214393 188.831287 
L 113.041386 237.495567 
L 114.695372 237.495567 
L 115.522365 287.117603 
L 116.349358 287.117603 
L 117.176351 286.262443 
L 118.003344 335.824551 
L 118.830336 335.824551 
L 119.657329 294.761865 
L 120.484322 290.323951 
L 121.311315 281.56265 
L 124.619286 281.56265 
L 125.446279 283.335078 
L 127.100265 283.335078 
L 127.927258 324.397765 
L 128.754251 328.835678 
L 129.581244 337.596979 
L 131.235229 337.596979 
L 132.062222 335.406654 
L 132.889215 335.406654 
L 133.716208 384.051493 
L 139.505158 384.051493 
L 140.332151 386.241818 
L 141.986137 386.241818 
L 142.813129 364.799687 
L 144.467115 267.815297 
L 145.294108 267.815297 
L 146.121101 221.922765 
L 146.948094 221.922765 
L 147.775087 200.813928 
L 148.60208 160.995982 
L 150.256065 160.995982 
L 151.083058 182.438113 
L 152.737044 279.422503 
L 153.564037 279.422503 
L 154.39103 325.315035 
L 155.218022 292.535682 
L 156.045015 285.352816 
L 156.872008 325.170763 
L 162.660958 325.170763 
L 163.487951 357.950116 
L 164.314944 339.999526 
L 171.75788 339.999526 
L 172.584873 386.241818 
L 173.411865 386.241818 
L 174.238858 338.442123 
L 175.892844 338.442123 
L 176.719837 287.991223 
L 178.373823 287.991223 
L 179.200815 279.608497 
L 180.854801 279.608497 
L 181.681794 229.942812 
L 182.508787 277.742508 
L 183.33578 253.917915 
L 184.162773 253.917915 
L 184.989766 304.368814 
L 186.643751 304.368814 
L 187.470744 312.75154 
L 189.12473 312.75154 
L 189.951723 362.417225 
L 190.778716 362.417225 
L 191.605708 386.241818 
L 192.432701 386.241818 
L 193.259694 336.400269 
L 194.91368 336.400269 
L 195.740673 286.621199 
L 198.221651 286.621199 
L 199.048644 282.183285 
L 199.875637 275.482619 
L 200.70263 275.482619 
L 201.529623 325.324168 
L 203.183609 325.324168 
L 204.010601 375.103239 
L 206.49158 375.103239 
L 207.318573 379.541152 
L 208.145566 386.241818 
L 220.550459 386.241818 
L 221.377452 384.008263 
L 222.204444 384.008263 
L 223.031437 334.092525 
L 226.339409 334.092525 
L 227.166402 331.68472 
L 228.820387 331.68472 
L 229.64738 333.918276 
L 230.474373 333.918276 
L 231.301366 383.834014 
L 234.609337 383.834014 
L 235.43633 386.241818 
L 238.744302 386.241818 
L 239.571295 336.679711 
L 240.398287 319.318894 
L 247.01423 319.318894 
L 247.841223 366.555656 
L 248.668216 383.916473 
L 255.284159 383.916473 
L 256.111152 386.241818 
L 260.246116 386.241818 
L 261.073109 377.423625 
L 266.862059 377.423625 
L 267.689052 375.065983 
L 268.516045 375.065983 
L 269.343038 334.61346 
L 270.170031 330.288614 
L 272.651009 330.288614 
L 273.478002 286.407607 
L 275.131988 286.407607 
L 275.958981 288.765248 
L 276.785973 288.765248 
L 277.612966 338.035965 
L 278.439959 342.360811 
L 280.920938 342.360811 
L 281.747931 386.241818 
L 290.844852 386.241818 
L 292.498838 294.539787 
L 293.325831 294.539787 
L 294.152824 283.796103 
L 294.979817 234.130418 
L 297.460795 234.130418 
L 298.287788 184.159006 
L 299.114781 184.159006 
L 299.941774 176.372614 
L 300.768767 224.22773 
L 301.595759 224.22773 
L 302.422752 234.971414 
L 303.249745 284.637099 
L 304.076738 282.432551 
L 305.730724 282.432551 
L 306.557717 332.403963 
L 307.384709 332.403963 
L 308.211702 384.03727 
L 311.519674 384.03727 
L 312.346667 386.241818 
L 329.713517 386.241818 
L 330.54051 367.090512 
L 337.156453 367.090512 
L 337.983445 316.165448 
L 338.810438 335.316754 
L 344.599388 335.316754 
L 345.426381 315.55747 
L 346.253374 366.482534 
L 347.080367 366.482534 
L 347.90736 316.920427 
L 348.734353 306.311039 
L 352.869317 306.311039 
L 353.69631 326.070323 
L 355.350296 326.070323 
L 356.177288 375.63243 
L 357.004281 386.241818 
L 358.658267 386.241818 
L 359.48526 366.791273 
L 363.620224 366.791273 
L 364.447217 364.383469 
L 365.27421 364.383469 
L 366.101203 317.481636 
L 366.928196 317.481636 
L 367.755189 336.932181 
L 371.06316 336.932181 
L 371.890153 326.518057 
L 372.717146 328.925861 
L 373.544139 328.925861 
L 374.371131 375.827694 
L 379.333089 375.827694 
L 380.160082 386.241818 
L 388.43001 386.241818 
L 389.257003 383.834014 
L 396.699939 383.834014 
L 397.526932 345.977619 
L 404.969867 345.977619 
L 405.79686 350.321977 
L 406.623853 350.321977 
L 407.450846 334.345487 
L 413.239796 334.345487 
L 414.066789 370.265328 
L 414.893782 370.265328 
L 415.720775 386.241818 
L 421.509725 386.241818 
L 422.336718 383.978482 
L 426.471682 383.978482 
L 427.298675 334.416375 
L 429.779653 334.416375 
L 430.606646 336.679711 
L 434.741611 336.679711 
L 435.568603 386.241818 
L 464.513354 386.241818 
L 466.167339 309.141754 
L 472.783282 309.141754 
L 473.610275 346.864025 
L 474.437268 350.504932 
L 481.880204 350.504932 
L 482.707197 386.241818 
L 494.285097 386.241818 
L 495.11209 383.963292 
L 496.766075 383.963292 
L 497.593068 356.348427 
L 502.555025 356.348427 
L 503.382018 358.626953 
L 505.036004 358.626953 
L 505.862997 386.241818 
L 506.68999 386.241818 
L 507.516983 369.902225 
L 514.959918 369.902225 
L 515.786911 386.241818 
L 528.191804 386.241818 
L 529.018797 336.679711 
L 536.461733 336.679711 
L 537.288726 386.241818 
L 555.482569 386.241818 
L 556.309562 383.900436 
L 563.752497 383.900436 
L 564.57949 386.241818 
L 585.254312 386.241818 
L 586.081305 365.023042 
L 586.908298 332.689668 
L 593.524241 332.689668 
L 594.351233 353.908445 
L 595.178226 386.241818 
L 619.988012 386.241818 
L 620.815005 360.259643 
L 624.949969 360.259643 
L 625.776962 310.741746 
L 628.257941 310.741746 
L 629.084934 336.723921 
L 631.565912 336.723921 
L 632.392905 290.428408 
L 633.219898 290.428408 
L 634.046891 339.946305 
L 638.181855 339.946305 
L 639.008848 290.332465 
L 639.835841 290.332465 
L 640.662834 336.627978 
L 643.143812 336.627978 
L 643.970805 284.520475 
L 646.451784 284.520475 
L 647.278777 334.134315 
L 651.413741 334.134315 
L 652.240734 386.241818 
L 658.856677 386.241818 
L 659.68367 383.85097 
L 667.126606 383.85097 
L 667.953598 386.241818 
L 672.915556 386.241818 
L 673.742548 383.867689 
L 674.569541 365.416579 
L 675.396534 363.107053 
L 677.877513 363.107053 
L 678.704506 360.781708 
L 681.185484 360.781708 
L 682.012477 363.155836 
L 682.83947 381.606947 
L 683.666463 383.916473 
L 686.147441 383.916473 
L 686.974434 386.241818 
L 690.282406 386.241818 
L 691.109399 341.794689 
L 698.552334 341.794689 
L 699.379327 386.241818 
L 709.303242 386.241818 
L 710.130234 372.424942 
L 717.57317 372.424942 
L 718.400163 386.241818 
L 736.594006 386.241818 
L 737.420999 383.867689 
L 738.247992 347.306106 
L 742.382956 347.306106 
L 743.209949 294.601409 
L 744.863935 294.601409 
L 745.690928 296.975537 
L 746.51792 333.537121 
L 747.344913 290.726218 
L 750.652885 290.726218 
L 751.479878 343.430915 
L 752.306871 290.504995 
L 754.787849 290.504995 
L 755.614842 333.315898 
L 759.749806 333.315898 
L 760.576799 386.241818 
L 764.711764 386.241818 
L 765.538756 336.08364 
L 772.981692 336.08364 
L 773.808685 386.241818 
L 776.289664 386.241818 
L 777.116656 383.884177 
L 784.559592 383.884177 
L 785.386585 386.241818 
L 787.867564 386.241818 
L 788.694557 373.74487 
L 795.310499 373.74487 
L 796.137492 371.354022 
L 796.964485 383.85097 
L 803.580428 383.85097 
L 804.407421 386.241818 
L 805.234414 351.681894 
L 807.715392 351.681894 
L 808.542385 300.969746 
L 812.67735 300.969746 
L 813.504343 335.52967 
L 815.985321 335.52967 
L 816.812314 386.241818 
L 820.120285 386.241818 
L 820.947278 383.916473 
L 828.390214 383.916473 
L 829.217207 386.241818 
L 833.352171 386.241818 
L 835.83315 230.181888 
L 841.6221 230.181888 
L 844.103078 386.241818 
L 847.41105 386.241818 
L 848.238043 383.85097 
L 849.065036 383.85097 
L 849.892029 371.430222 
L 850.719021 369.056094 
L 852.373007 369.056094 
L 852.373007 369.056094 
" clip-path="url(#pf040caeecb)" style="fill: none; stroke-dasharray: 7.4,3.2; stroke-dashoffset: 0; stroke: #000000; stroke-width: 2"/>
   </g>
   <g id="patch_3">
    <path d="M 41.92 404.12 
L 41.92 10.8 
" style="fill: none; stroke: #000000; stroke-width: 0.8; stroke-linejoin: miter; stroke-linecap: square"/>
   </g>
   <g id="patch_4">
    <path d="M 853.2 404.12 
L 853.2 10.8 
" style="fill: none; stroke: #000000; stroke-width: 0.8; stroke-linejoin: miter; stroke-linecap: square"/>
   </g>
   <g id="patch_5">
    <path d="M 41.92 404.12 
L 853.2 404.12 
" style="fill: none; stroke: #000000; stroke-width: 0.8; stroke-linejoin: miter; stroke-linecap: square"/>
   </g>
   <g id="patch_6">
    <path d="M 41.92 10.8 
L 853.2 10.8 
" style="fill: none; stroke: #000000; stroke-width: 0.8; stroke-linejoin: miter; stroke-linecap: square"/>
   </g>
  </g>
 </g>
 <defs>
  <clipPath id="pf040caeecb">
   <rect x="41.92" y="10.8" width="811.28" height="393.32"/>
  </clipPath>
 </defs>
</svg>
