<?xml version="1.0" encoding="utf-8" standalone="no"?>
<!DOCTYPE svg PUBLIC "-//W3C//DTD SVG 1.1//EN"
  "http://www.w3.org/Graphics/SVG/1.1/DTD/svg11.dtd">
<svg xmlns:xlink="http://www.w3.org/1999/xlink" width="864pt" height="432pt" viewBox="0 0 864 432" xmlns="http://www.w3.org/2000/svg" version="1.1">
 <metadata>
  <rdf:RDF xmlns:dc="http://purl.org/dc/elements/1.1/" xmlns:cc="http://creativecommons.org/ns#" xmlns:rdf="http://www.w3.org/1999/02/22-rdf-syntax-ns#">
   <cc:Work>
    <dc:type rdf:resource="http://purl.org/dc/dcmitype/StillImage"/>
    <dc:date>2024-09-18T13:02:25.016021</dc:date>
    <dc:format>image/svg+xml</dc:format>
    <dc:creator>
     <cc:Agent>
      <dc:title>Matplotlib v3.9.2, https://matplotlib.org/</dc:title>
     </cc:Agent>
    </dc:creator>
   </cc:Work>
  </rdf:RDF>
 </metadata>
 <defs>
  <style type="text/css">*{stroke-linejoin: round; stroke-linecap: butt}</style>
 </defs>
 <g id="figure_1">
  <g id="patch_1">
   <path d="M 0 432 
L 864 432 
L 864 0 
L 0 0 
z
" style="fill: #ffffff"/>
  </g>
  <g id="axes_1">
   <g id="patch_2">
    <path d="M 41.92 404.12 
L 853.2 404.12 
L 853.2 10.8 
L 41.92 10.8 
z
" style="fill: #ffffff"/>
   </g>
   <g id="matplotlib.axis_1">
    <g id="xtick_1">
     <g id="line2d_1">
      <defs>
       <path id="mec0e2aef6c" d="M 0 0 
L 0 3.5 
" style="stroke: #000000; stroke-width: 0.8"/>
      </defs>
      <g>
       <use xlink:href="#mec0e2aef6c" x="199.048644" y="404.12" style="stroke: #000000; stroke-width: 0.8"/>
      </g>
     </g>
     <g id="text_1">
      <!-- 200 -->
      <g transform="translate(190.018175 418.771563) scale(0.1 -0.1)">
       <defs>
        <path id="DejaVuSansMono-32" d="M 1166 531 
L 3309 531 
L 3309 0 
L 475 0 
L 475 531 
Q 1059 1147 1496 1619 
Q 1934 2091 2100 2284 
Q 2413 2666 2522 2902 
Q 2631 3138 2631 3384 
Q 2631 3775 2401 3997 
Q 2172 4219 1772 4219 
Q 1488 4219 1175 4116 
Q 863 4013 513 3803 
L 513 4441 
Q 834 4594 1145 4672 
Q 1456 4750 1759 4750 
Q 2444 4750 2861 4386 
Q 3278 4022 3278 3431 
Q 3278 3131 3139 2831 
Q 3000 2531 2688 2169 
Q 2513 1966 2180 1606 
Q 1847 1247 1166 531 
z
" transform="scale(0.015625)"/>
        <path id="DejaVuSansMono-30" d="M 1509 2344 
Q 1509 2516 1629 2641 
Q 1750 2766 1919 2766 
Q 2094 2766 2219 2641 
Q 2344 2516 2344 2344 
Q 2344 2169 2220 2047 
Q 2097 1925 1919 1925 
Q 1744 1925 1626 2044 
Q 1509 2163 1509 2344 
z
M 1925 4250 
Q 1484 4250 1267 3775 
Q 1050 3300 1050 2328 
Q 1050 1359 1267 884 
Q 1484 409 1925 409 
Q 2369 409 2586 884 
Q 2803 1359 2803 2328 
Q 2803 3300 2586 3775 
Q 2369 4250 1925 4250 
z
M 1925 4750 
Q 2672 4750 3055 4137 
Q 3438 3525 3438 2328 
Q 3438 1134 3055 521 
Q 2672 -91 1925 -91 
Q 1178 -91 797 521 
Q 416 1134 416 2328 
Q 416 3525 797 4137 
Q 1178 4750 1925 4750 
z
" transform="scale(0.015625)"/>
       </defs>
       <use xlink:href="#DejaVuSansMono-32"/>
       <use xlink:href="#DejaVuSansMono-30" x="60.205078"/>
       <use xlink:href="#DejaVuSansMono-30" x="120.410156"/>
      </g>
     </g>
    </g>
    <g id="xtick_2">
     <g id="line2d_2">
      <g>
       <use xlink:href="#mec0e2aef6c" x="364.447217" y="404.12" style="stroke: #000000; stroke-width: 0.8"/>
      </g>
     </g>
     <g id="text_2">
      <!-- 400 -->
      <g transform="translate(355.416748 418.771563) scale(0.1 -0.1)">
       <defs>
        <path id="DejaVuSansMono-34" d="M 2297 4091 
L 825 1625 
L 2297 1625 
L 2297 4091 
z
M 2194 4666 
L 2925 4666 
L 2925 1625 
L 3547 1625 
L 3547 1113 
L 2925 1113 
L 2925 0 
L 2297 0 
L 2297 1113 
L 319 1113 
L 319 1709 
L 2194 4666 
z
" transform="scale(0.015625)"/>
       </defs>
       <use xlink:href="#DejaVuSansMono-34"/>
       <use xlink:href="#DejaVuSansMono-30" x="60.205078"/>
       <use xlink:href="#DejaVuSansMono-30" x="120.410156"/>
      </g>
     </g>
    </g>
    <g id="xtick_3">
     <g id="line2d_3">
      <g>
       <use xlink:href="#mec0e2aef6c" x="529.84579" y="404.12" style="stroke: #000000; stroke-width: 0.8"/>
      </g>
     </g>
     <g id="text_3">
      <!-- 600 -->
      <g transform="translate(520.815321 418.771563) scale(0.1 -0.1)">
       <defs>
        <path id="DejaVuSansMono-36" d="M 3097 4563 
L 3097 3981 
Q 2900 4097 2678 4158 
Q 2456 4219 2216 4219 
Q 1616 4219 1306 3767 
Q 997 3316 997 2438 
Q 1147 2750 1412 2917 
Q 1678 3084 2022 3084 
Q 2697 3084 3067 2670 
Q 3438 2256 3438 1497 
Q 3438 741 3056 325 
Q 2675 -91 1984 -91 
Q 1172 -91 794 492 
Q 416 1075 416 2328 
Q 416 3509 870 4129 
Q 1325 4750 2188 4750 
Q 2419 4750 2650 4701 
Q 2881 4653 3097 4563 
z
M 1972 2591 
Q 1569 2591 1337 2300 
Q 1106 2009 1106 1497 
Q 1106 984 1337 693 
Q 1569 403 1972 403 
Q 2391 403 2603 679 
Q 2816 956 2816 1497 
Q 2816 2041 2603 2316 
Q 2391 2591 1972 2591 
z
" transform="scale(0.015625)"/>
       </defs>
       <use xlink:href="#DejaVuSansMono-36"/>
       <use xlink:href="#DejaVuSansMono-30" x="60.205078"/>
       <use xlink:href="#DejaVuSansMono-30" x="120.410156"/>
      </g>
     </g>
    </g>
    <g id="xtick_4">
     <g id="line2d_4">
      <g>
       <use xlink:href="#mec0e2aef6c" x="695.244363" y="404.12" style="stroke: #000000; stroke-width: 0.8"/>
      </g>
     </g>
     <g id="text_4">
      <!-- 800 -->
      <g transform="translate(686.213894 418.771563) scale(0.1 -0.1)">
       <defs>
        <path id="DejaVuSansMono-38" d="M 1925 2216 
Q 1503 2216 1273 1980 
Q 1044 1744 1044 1313 
Q 1044 881 1276 642 
Q 1509 403 1925 403 
Q 2350 403 2579 639 
Q 2809 875 2809 1313 
Q 2809 1741 2576 1978 
Q 2344 2216 1925 2216 
z
M 1375 2478 
Q 972 2581 745 2862 
Q 519 3144 519 3541 
Q 519 4097 897 4423 
Q 1275 4750 1925 4750 
Q 2578 4750 2956 4423 
Q 3334 4097 3334 3541 
Q 3334 3144 3107 2862 
Q 2881 2581 2478 2478 
Q 2947 2375 3195 2062 
Q 3444 1750 3444 1253 
Q 3444 622 3041 265 
Q 2638 -91 1925 -91 
Q 1213 -91 811 264 
Q 409 619 409 1247 
Q 409 1747 657 2061 
Q 906 2375 1375 2478 
z
M 1147 3481 
Q 1147 3106 1347 2909 
Q 1547 2713 1925 2713 
Q 2306 2713 2506 2909 
Q 2706 3106 2706 3481 
Q 2706 3863 2507 4063 
Q 2309 4263 1925 4263 
Q 1547 4263 1347 4061 
Q 1147 3859 1147 3481 
z
" transform="scale(0.015625)"/>
       </defs>
       <use xlink:href="#DejaVuSansMono-38"/>
       <use xlink:href="#DejaVuSansMono-30" x="60.205078"/>
       <use xlink:href="#DejaVuSansMono-30" x="120.410156"/>
      </g>
     </g>
    </g>
   </g>
   <g id="matplotlib.axis_2">
    <g id="ytick_1">
     <g id="line2d_5">
      <defs>
       <path id="m4d2b9691fa" d="M 0 0 
L -3.5 0 
" style="stroke: #000000; stroke-width: 0.8"/>
      </defs>
      <g>
       <use xlink:href="#m4d2b9691fa" x="41.92" y="351.607558" style="stroke: #000000; stroke-width: 0.8"/>
      </g>
     </g>
     <g id="text_5">
      <!-- 0.14 -->
      <g transform="translate(10.83875 355.433339) scale(0.1 -0.1)">
       <defs>
        <path id="DejaVuSansMono-2e" d="M 1528 953 
L 2316 953 
L 2316 0 
L 1528 0 
L 1528 953 
z
" transform="scale(0.015625)"/>
        <path id="DejaVuSansMono-31" d="M 844 531 
L 1825 531 
L 1825 4097 
L 769 3859 
L 769 4434 
L 1819 4666 
L 2450 4666 
L 2450 531 
L 3419 531 
L 3419 0 
L 844 0 
L 844 531 
z
" transform="scale(0.015625)"/>
       </defs>
       <use xlink:href="#DejaVuSansMono-30"/>
       <use xlink:href="#DejaVuSansMono-2e" x="60.205078"/>
       <use xlink:href="#DejaVuSansMono-31" x="120.410156"/>
       <use xlink:href="#DejaVuSansMono-34" x="180.615234"/>
      </g>
     </g>
    </g>
    <g id="ytick_2">
     <g id="line2d_6">
      <g>
       <use xlink:href="#m4d2b9691fa" x="41.92" y="298.46888" style="stroke: #000000; stroke-width: 0.8"/>
      </g>
     </g>
     <g id="text_6">
      <!-- 0.16 -->
      <g transform="translate(10.83875 302.294661) scale(0.1 -0.1)">
       <use xlink:href="#DejaVuSansMono-30"/>
       <use xlink:href="#DejaVuSansMono-2e" x="60.205078"/>
       <use xlink:href="#DejaVuSansMono-31" x="120.410156"/>
       <use xlink:href="#DejaVuSansMono-36" x="180.615234"/>
      </g>
     </g>
    </g>
    <g id="ytick_3">
     <g id="line2d_7">
      <g>
       <use xlink:href="#m4d2b9691fa" x="41.92" y="245.330202" style="stroke: #000000; stroke-width: 0.8"/>
      </g>
     </g>
     <g id="text_7">
      <!-- 0.18 -->
      <g transform="translate(10.83875 249.155983) scale(0.1 -0.1)">
       <use xlink:href="#DejaVuSansMono-30"/>
       <use xlink:href="#DejaVuSansMono-2e" x="60.205078"/>
       <use xlink:href="#DejaVuSansMono-31" x="120.410156"/>
       <use xlink:href="#DejaVuSansMono-38" x="180.615234"/>
      </g>
     </g>
    </g>
    <g id="ytick_4">
     <g id="line2d_8">
      <g>
       <use xlink:href="#m4d2b9691fa" x="41.92" y="192.191524" style="stroke: #000000; stroke-width: 0.8"/>
      </g>
     </g>
     <g id="text_8">
      <!-- 0.20 -->
      <g transform="translate(10.83875 196.017305) scale(0.1 -0.1)">
       <use xlink:href="#DejaVuSansMono-30"/>
       <use xlink:href="#DejaVuSansMono-2e" x="60.205078"/>
       <use xlink:href="#DejaVuSansMono-32" x="120.410156"/>
       <use xlink:href="#DejaVuSansMono-30" x="180.615234"/>
      </g>
     </g>
    </g>
    <g id="ytick_5">
     <g id="line2d_9">
      <g>
       <use xlink:href="#m4d2b9691fa" x="41.92" y="139.052846" style="stroke: #000000; stroke-width: 0.8"/>
      </g>
     </g>
     <g id="text_9">
      <!-- 0.22 -->
      <g transform="translate(10.83875 142.878627) scale(0.1 -0.1)">
       <use xlink:href="#DejaVuSansMono-30"/>
       <use xlink:href="#DejaVuSansMono-2e" x="60.205078"/>
       <use xlink:href="#DejaVuSansMono-32" x="120.410156"/>
       <use xlink:href="#DejaVuSansMono-32" x="180.615234"/>
      </g>
     </g>
    </g>
    <g id="ytick_6">
     <g id="line2d_10">
      <g>
       <use xlink:href="#m4d2b9691fa" x="41.92" y="85.914168" style="stroke: #000000; stroke-width: 0.8"/>
      </g>
     </g>
     <g id="text_10">
      <!-- 0.24 -->
      <g transform="translate(10.83875 89.739949) scale(0.1 -0.1)">
       <use xlink:href="#DejaVuSansMono-30"/>
       <use xlink:href="#DejaVuSansMono-2e" x="60.205078"/>
       <use xlink:href="#DejaVuSansMono-32" x="120.410156"/>
       <use xlink:href="#DejaVuSansMono-34" x="180.615234"/>
      </g>
     </g>
    </g>
    <g id="ytick_7">
     <g id="line2d_11">
      <g>
       <use xlink:href="#m4d2b9691fa" x="41.92" y="32.77549" style="stroke: #000000; stroke-width: 0.8"/>
      </g>
     </g>
     <g id="text_11">
      <!-- 0.26 -->
      <g transform="translate(10.83875 36.601272) scale(0.1 -0.1)">
       <use xlink:href="#DejaVuSansMono-30"/>
       <use xlink:href="#DejaVuSansMono-2e" x="60.205078"/>
       <use xlink:href="#DejaVuSansMono-32" x="120.410156"/>
       <use xlink:href="#DejaVuSansMono-36" x="180.615234"/>
      </g>
     </g>
    </g>
   </g>
   <g id="line2d_12">
    <path d="M 33.650071 28.678182 
L 34.477064 29.042345 
L 35.304057 34.062583 
L 36.13105 114.477871 
L 36.958043 178.979385 
L 37.785036 266.739092 
L 38.612029 225.77661 
L 39.439021 234.710128 
L 40.266014 229.594929 
L 41.093007 235.822098 
L 41.92 277.390254 
L 42.746993 197.230484 
L 43.573986 197.464616 
L 44.400979 224.799009 
L 45.227971 232.79494 
L 46.054964 206.808269 
L 46.881957 240.327382 
L 47.70895 244.027471 
L 48.535943 249.553641 
L 49.362936 248.157312 
L 50.189929 247.890907 
L 51.016922 328.824645 
L 51.843914 329.491897 
L 52.670907 296.935287 
L 53.4979 318.822177 
L 54.324893 343.796931 
L 55.151886 342.988926 
L 55.978879 325.998506 
L 56.805872 315.87376 
L 57.632864 319.736835 
L 58.459857 291.1474 
L 59.28685 266.835172 
L 60.113843 267.504479 
L 60.940836 290.866798 
L 61.767829 278.89949 
L 62.594822 260.684551 
L 63.421814 270.330689 
L 64.248807 287.638082 
L 65.0758 294.328387 
L 65.902793 294.078296 
L 66.729786 309.1013 
L 67.556779 328.897341 
L 68.383772 314.743982 
L 69.210765 318.085923 
L 70.037757 332.082719 
L 70.86475 349.349273 
L 71.691743 348.696203 
L 72.518736 349.0307 
L 73.345729 352.238235 
L 74.172722 349.745644 
L 74.999715 363.364359 
L 75.826707 366.103304 
L 76.6537 353.33235 
L 77.480693 363.340426 
L 79.134679 346.399076 
L 80.788665 343.346478 
L 81.615657 343.564642 
L 82.44265 345.585348 
L 83.269643 345.546645 
L 84.096636 347.589916 
L 84.923629 374.325054 
L 85.750622 372.334969 
L 86.577615 379.538147 
L 87.404608 378.644989 
L 88.2316 366.175641 
L 89.058593 356.724905 
L 90.712579 354.901563 
L 91.539572 337.986497 
L 92.366565 333.67804 
L 93.193558 332.53756 
L 94.02055 327.589863 
L 94.847543 328.333975 
L 95.674536 338.55712 
L 97.328522 361.779222 
L 98.155515 360.119208 
L 98.982508 357.823303 
L 99.809501 373.07574 
L 100.636493 363.398465 
L 101.463486 347.876987 
L 102.290479 353.638055 
L 103.117472 340.329368 
L 104.771458 339.550803 
L 105.598451 336.111625 
L 106.425443 335.250064 
L 107.252436 338.839731 
L 108.079429 340.913173 
L 108.906422 348.021215 
L 109.733415 364.478651 
L 110.560408 351.320034 
L 111.387401 350.925466 
L 112.214393 354.126834 
L 113.041386 356.65446 
L 113.868379 348.804578 
L 114.695372 349.473942 
L 115.522365 334.67127 
L 116.349358 333.157247 
L 117.176351 338.365298 
L 118.003344 338.544554 
L 119.657329 363.975759 
L 121.311315 348.053195 
L 122.138308 348.96308 
L 122.965301 350.263022 
L 123.792294 355.114006 
L 124.619286 347.871314 
L 125.446279 331.344905 
L 127.100265 319.404853 
L 127.927258 319.949134 
L 128.754251 329.627098 
L 129.581244 315.216822 
L 130.408236 321.12355 
L 131.235229 307.917306 
L 132.062222 318.601562 
L 132.889215 297.010993 
L 133.716208 307.995774 
L 134.543201 313.330361 
L 135.370194 321.388327 
L 136.197187 307.806846 
L 137.024179 308.852783 
L 137.851172 318.925441 
L 138.678165 322.759021 
L 139.505158 335.230233 
L 140.332151 328.50155 
L 141.159144 357.114575 
L 141.986137 331.003675 
L 142.813129 331.409097 
L 143.640122 329.311738 
L 144.467115 339.174776 
L 145.294108 340.056342 
L 146.121101 351.988625 
L 146.948094 349.428139 
L 147.775087 342.387826 
L 148.60208 339.474287 
L 149.429072 340.744232 
L 150.256065 370.454609 
L 151.083058 366.41895 
L 151.910051 370.436011 
L 152.737044 371.392088 
L 153.564037 358.832535 
L 154.39103 355.97228 
L 155.218022 355.990037 
L 156.045015 351.515184 
L 156.872008 356.243719 
L 157.699001 333.458084 
L 158.525994 325.47107 
L 159.352987 329.40984 
L 160.17998 322.262715 
L 161.006972 323.969417 
L 161.833965 326.399747 
L 162.660958 325.955841 
L 163.487951 329.14587 
L 164.314944 339.00323 
L 165.141937 334.735534 
L 165.96893 350.992341 
L 166.795923 361.364886 
L 167.622915 360.489061 
L 168.449908 363.088379 
L 169.276901 343.026083 
L 170.103894 335.827467 
L 170.930887 339.580435 
L 171.75788 332.976265 
L 172.584873 336.552538 
L 173.411865 325.869654 
L 174.238858 331.34868 
L 175.065851 321.321812 
L 175.892844 300.951723 
L 176.719837 300.448259 
L 177.54683 310.296015 
L 178.373823 327.616809 
L 179.200815 327.37312 
L 180.027808 329.106419 
L 180.854801 318.319637 
L 181.681794 338.09943 
L 182.508787 339.181655 
L 183.33578 349.359594 
L 184.162773 366.640611 
L 184.989766 371.588756 
L 185.816758 359.421911 
L 186.643751 344.52301 
L 187.470744 344.358684 
L 188.297737 338.53193 
L 189.12473 347.904458 
L 189.951723 347.418976 
L 190.778716 316.325211 
L 191.605708 315.256758 
L 192.432701 319.460915 
L 193.259694 317.354736 
L 194.086687 331.564596 
L 194.91368 342.239249 
L 195.740673 339.406799 
L 196.567666 348.347096 
L 197.394659 348.355006 
L 198.221651 340.585174 
L 199.048644 368.397531 
L 200.70263 346.351758 
L 201.529623 345.683257 
L 202.356616 355.209148 
L 204.010601 358.672406 
L 204.837594 353.249877 
L 205.664587 345.454837 
L 206.49158 335.240038 
L 207.318573 332.112848 
L 208.972559 352.99516 
L 209.799551 354.844846 
L 210.626544 349.998215 
L 211.453537 351.417318 
L 212.28053 351.623591 
L 213.107523 357.739144 
L 213.934516 367.12172 
L 214.761509 383.917037 
L 215.588502 376.772856 
L 216.415494 375.516565 
L 217.242487 373.69153 
L 218.06948 371.24865 
L 218.896473 375.584251 
L 219.723466 370.232455 
L 220.550459 354.419941 
L 221.377452 351.520018 
L 222.204444 349.805627 
L 223.031437 347.131244 
L 223.85843 350.967397 
L 224.685423 351.065972 
L 225.512416 352.887986 
L 226.339409 353.072418 
L 227.166402 350.492197 
L 227.993394 356.780743 
L 228.820387 373.190992 
L 229.64738 376.642438 
L 231.301366 363.761534 
L 232.128359 372.899209 
L 232.955352 375.157543 
L 233.782345 370.873308 
L 234.609337 367.480174 
L 235.43633 370.36957 
L 236.263323 367.059213 
L 237.090316 360.112143 
L 237.917309 358.895026 
L 238.744302 364.476008 
L 239.571295 367.561667 
L 240.398287 368.448101 
L 241.22528 365.50003 
L 242.052273 370.176653 
L 242.879266 376.721338 
L 243.706259 373.563203 
L 244.533252 370.900491 
L 245.360245 370.918798 
L 246.187238 363.935386 
L 247.01423 359.482763 
L 247.841223 361.435609 
L 248.668216 354.507179 
L 249.495209 352.197116 
L 250.322202 333.350572 
L 251.149195 334.049352 
L 251.976188 334.308308 
L 252.80318 338.08197 
L 253.630173 343.781152 
L 254.457166 351.671817 
L 255.284159 354.549031 
L 256.111152 343.184062 
L 256.938145 340.327071 
L 257.765138 330.14821 
L 258.59213 344.354222 
L 259.419123 342.021195 
L 260.246116 342.314065 
L 261.073109 338.395791 
L 261.900102 333.561594 
L 262.727095 326.224361 
L 263.554088 328.728779 
L 264.381081 344.155324 
L 265.208073 350.251062 
L 266.035066 363.347691 
L 266.862059 367.833068 
L 267.689052 367.485776 
L 268.516045 370.074866 
L 270.170031 381.007227 
L 270.997023 383.554768 
L 271.824016 384.91821 
L 272.651009 380.578255 
L 273.478002 383.877475 
L 274.304995 386.241818 
L 275.131988 382.483379 
L 275.958981 377.982696 
L 276.785973 377.190901 
L 277.612966 367.958383 
L 278.439959 367.127939 
L 279.266952 369.608717 
L 280.093945 363.723552 
L 281.747931 356.679036 
L 282.574924 355.971004 
L 283.401916 357.88558 
L 284.228909 359.481351 
L 285.055902 359.560954 
L 285.882895 365.196326 
L 286.709888 364.893888 
L 287.536881 359.66148 
L 288.363874 358.190466 
L 289.190866 366.143004 
L 290.017859 365.320442 
L 290.844852 361.451174 
L 291.671845 363.446652 
L 292.498838 364.583329 
L 293.325831 363.700544 
L 294.152824 364.808153 
L 294.979817 367.196264 
L 295.806809 374.506052 
L 296.633802 380.509823 
L 297.460795 379.361688 
L 298.287788 383.598213 
L 299.114781 384.513396 
L 299.941774 374.551899 
L 300.768767 373.169332 
L 301.595759 360.246303 
L 302.422752 363.541273 
L 303.249745 362.244989 
L 304.076738 356.869257 
L 304.903731 347.376435 
L 305.730724 345.882576 
L 306.557717 341.889206 
L 307.384709 343.420427 
L 308.211702 351.233156 
L 309.038695 355.432454 
L 309.865688 363.354475 
L 310.692681 361.462885 
L 311.519674 350.559655 
L 312.346667 356.246789 
L 313.17366 366.541613 
L 314.000652 369.483521 
L 314.827645 366.864415 
L 316.481631 362.978147 
L 317.308624 362.597325 
L 318.135617 364.187637 
L 318.96261 362.16992 
L 319.789602 372.780182 
L 320.616595 369.342857 
L 321.443588 368.288064 
L 322.270581 362.441925 
L 323.097574 365.626024 
L 323.924567 365.335957 
L 324.75156 366.484528 
L 325.578552 365.192415 
L 326.405545 369.258081 
L 327.232538 370.663822 
L 328.059531 359.69015 
L 328.886524 363.602911 
L 329.713517 363.461285 
L 330.54051 367.748546 
L 331.367503 367.843146 
L 332.194495 369.283948 
L 333.021488 363.830098 
L 333.848481 366.014307 
L 334.675474 362.938219 
L 335.502467 365.193707 
L 336.32946 372.656904 
L 337.156453 370.45817 
L 337.983445 369.205443 
L 338.810438 369.120547 
L 339.637431 370.90758 
L 340.464424 369.877218 
L 341.291417 375.524935 
L 342.11841 373.609267 
L 342.945403 371.140391 
L 343.772396 369.042801 
L 344.599388 372.290899 
L 345.426381 367.763132 
L 346.253374 365.812685 
L 347.080367 366.14806 
L 347.90736 367.297689 
L 348.734353 370.550935 
L 349.561346 371.619423 
L 350.388338 374.095319 
L 351.215331 375.537171 
L 352.042324 377.880217 
L 352.869317 374.124169 
L 353.69631 375.059203 
L 354.523303 376.955061 
L 355.350296 374.847108 
L 357.004281 371.236339 
L 357.831274 370.558261 
L 358.658267 366.179868 
L 359.48526 370.470408 
L 360.312253 366.500483 
L 361.139246 366.971458 
L 361.966239 369.254647 
L 362.793231 368.860503 
L 363.620224 369.923603 
L 364.447217 371.451692 
L 365.27421 365.317155 
L 366.101203 365.53627 
L 366.928196 368.350205 
L 367.755189 367.853693 
L 368.582181 365.478039 
L 369.409174 369.834544 
L 370.236167 361.991599 
L 371.06316 360.973712 
L 372.717146 360.520477 
L 373.544139 367.808098 
L 374.371131 367.584212 
L 375.198124 368.716441 
L 376.025117 369.140354 
L 376.85211 368.618263 
L 377.679103 361.329836 
L 378.506096 365.262711 
L 379.333089 370.169923 
L 380.987074 367.490876 
L 381.814067 368.164187 
L 382.64106 367.484003 
L 383.468053 364.565711 
L 384.295046 363.396284 
L 385.122039 364.491584 
L 385.949032 368.231597 
L 386.776024 372.980431 
L 387.603017 370.336518 
L 388.43001 374.589008 
L 389.257003 373.929981 
L 390.083996 373.84602 
L 390.910989 375.122799 
L 391.737982 374.420772 
L 392.564975 373.455486 
L 393.391967 373.991411 
L 394.21896 376.588366 
L 395.045953 375.027689 
L 395.872946 372.927741 
L 396.699939 368.100672 
L 397.526932 369.942852 
L 398.353925 367.316759 
L 399.180917 366.08157 
L 400.00791 366.799275 
L 400.834903 365.884271 
L 401.661896 367.640981 
L 402.488889 366.911853 
L 404.142875 370.154908 
L 404.969867 369.852536 
L 405.79686 367.794975 
L 406.623853 371.791462 
L 407.450846 371.382495 
L 408.277839 372.335998 
L 409.104832 371.552536 
L 409.931825 372.967469 
L 410.758818 370.237016 
L 411.58581 371.30891 
L 412.412803 370.40758 
L 413.239796 374.11697 
L 414.893782 370.675432 
L 416.547768 369.868056 
L 417.37476 372.886018 
L 418.201753 370.220428 
L 419.028746 372.668427 
L 419.855739 371.841636 
L 420.682732 374.627782 
L 421.509725 372.516471 
L 422.336718 376.606057 
L 423.16371 375.793317 
L 423.990703 378.610851 
L 424.817696 378.778481 
L 425.644689 378.527266 
L 428.125668 377.330604 
L 428.952661 374.087854 
L 429.779653 375.722199 
L 430.606646 372.776599 
L 431.433639 371.813154 
L 432.260632 371.443707 
L 433.087625 370.363816 
L 433.914618 370.291451 
L 434.741611 372.816602 
L 435.568603 370.72829 
L 436.395596 369.781157 
L 437.222589 372.662607 
L 438.049582 372.8831 
L 438.876575 375.128653 
L 439.703568 375.839821 
L 440.530561 373.350619 
L 441.357554 372.949491 
L 442.184546 373.361091 
L 443.011539 372.464203 
L 443.838532 372.947867 
L 444.665525 373.94253 
L 445.492518 373.081405 
L 446.319511 371.016167 
L 447.146504 367.112879 
L 447.973496 369.086617 
L 448.800489 369.342746 
L 449.627482 369.470531 
L 450.454475 367.197082 
L 451.281468 367.474922 
L 452.108461 366.882235 
L 452.935454 367.425302 
L 453.762446 367.360222 
L 454.589439 369.351416 
L 455.416432 370.550271 
L 456.243425 369.633576 
L 457.070418 370.001788 
L 457.897411 372.396585 
L 458.724404 371.242622 
L 459.551397 372.485832 
L 460.378389 375.720663 
L 461.205382 373.624338 
L 462.032375 373.607638 
L 462.859368 371.737788 
L 463.686361 371.511919 
L 464.513354 370.059877 
L 465.340347 372.202573 
L 466.167339 371.778355 
L 466.994332 374.929605 
L 467.821325 375.057275 
L 468.648318 372.002379 
L 469.475311 371.929353 
L 470.302304 371.30097 
L 471.129297 372.007463 
L 471.95629 375.196902 
L 472.783282 375.551178 
L 473.610275 374.57779 
L 474.437268 374.824353 
L 475.264261 374.510512 
L 476.091254 372.751122 
L 476.918247 374.751877 
L 477.74524 373.459669 
L 478.572232 374.45181 
L 479.399225 374.32528 
L 480.226218 373.377363 
L 481.053211 373.415806 
L 481.880204 371.976132 
L 482.707197 370.074003 
L 483.53419 369.500486 
L 484.361182 370.761246 
L 485.188175 367.899968 
L 486.015168 371.176679 
L 486.842161 372.31608 
L 487.669154 371.683136 
L 488.496147 370.755644 
L 489.32314 372.173697 
L 490.150133 372.289565 
L 490.977125 373.24778 
L 491.804118 373.663818 
L 492.631111 372.552436 
L 493.458104 376.23414 
L 495.11209 373.968165 
L 495.939083 373.16499 
L 496.766075 374.453956 
L 497.593068 374.98749 
L 498.420061 373.823736 
L 499.247054 373.159586 
L 500.074047 372.638955 
L 500.90104 372.981694 
L 501.728033 371.639562 
L 502.555025 373.818704 
L 503.382018 372.216171 
L 504.209011 373.58884 
L 505.036004 372.389712 
L 505.862997 369.449646 
L 506.68999 370.797987 
L 508.343976 371.141454 
L 509.170968 371.106598 
L 509.997961 372.407215 
L 511.651947 371.18685 
L 512.47894 371.033599 
L 513.305933 371.583845 
L 514.132926 372.530439 
L 514.959918 373.835986 
L 515.786911 375.54205 
L 516.613904 376.532366 
L 517.440897 375.575331 
L 518.26789 374.04656 
L 519.094883 371.923543 
L 519.921876 372.465739 
L 520.748869 374.191279 
L 521.575861 374.590083 
L 522.402854 375.687438 
L 524.05684 370.438596 
L 524.883833 368.699837 
L 525.710826 370.047964 
L 526.537819 371.610181 
L 527.364811 371.178551 
L 528.191804 371.724548 
L 529.018797 370.647207 
L 529.84579 370.827997 
L 530.672783 371.148624 
L 531.499776 371.728432 
L 532.326769 372.921341 
L 533.153761 373.453948 
L 533.980754 373.663771 
L 534.807747 372.737403 
L 535.63474 374.342367 
L 536.461733 375.088749 
L 537.288726 375.088523 
L 538.115719 372.412572 
L 538.942712 371.845148 
L 539.769704 372.431892 
L 540.596697 371.876085 
L 541.42369 372.884169 
L 542.250683 371.739688 
L 543.077676 372.175332 
L 543.904669 372.364405 
L 545.558654 371.694217 
L 546.385647 373.52608 
L 547.21264 373.474746 
L 548.039633 372.945785 
L 548.866626 374.782359 
L 549.693619 373.223697 
L 550.520612 373.397269 
L 551.347604 373.152472 
L 552.174597 373.94489 
L 553.00159 373.221012 
L 553.828583 373.992047 
L 554.655576 373.590958 
L 555.482569 374.339766 
L 556.309562 375.30873 
L 557.136555 373.698176 
L 557.963547 374.002206 
L 558.79054 374.713022 
L 559.617533 374.261589 
L 560.444526 373.047087 
L 561.271519 373.496842 
L 562.098512 372.99704 
L 562.925505 373.236698 
L 563.752497 372.594379 
L 564.57949 372.7854 
L 565.406483 373.827901 
L 567.060469 372.599558 
L 567.887462 373.398695 
L 568.714455 373.192142 
L 569.541448 372.816733 
L 570.36844 373.178535 
L 571.195433 373.225447 
L 572.022426 373.414511 
L 572.849419 372.559301 
L 573.676412 372.541731 
L 574.503405 373.347174 
L 575.330398 373.358117 
L 576.15739 372.724469 
L 576.984383 372.970514 
L 577.811376 374.01714 
L 578.638369 373.185115 
L 579.465362 373.683776 
L 580.292355 373.620379 
L 581.119348 374.070402 
L 581.94634 372.733769 
L 582.773333 372.188643 
L 583.600326 371.906281 
L 584.427319 372.849597 
L 585.254312 372.73072 
L 586.081305 372.84177 
L 586.908298 373.19993 
L 587.735291 372.974936 
L 588.562283 372.437245 
L 589.389276 372.817168 
L 590.216269 373.922738 
L 591.043262 373.877553 
L 591.870255 374.371637 
L 592.697248 373.409614 
L 593.524241 373.716808 
L 594.351233 373.092855 
L 595.178226 372.990147 
L 596.005219 373.043231 
L 596.832212 373.36718 
L 597.659205 372.895646 
L 598.486198 372.642855 
L 599.313191 373.576515 
L 600.140183 373.457706 
L 600.967176 373.882854 
L 601.794169 373.438409 
L 602.621162 373.549391 
L 604.275148 373.195856 
L 605.102141 373.389565 
L 605.929134 373.133535 
L 606.756126 373.43038 
L 607.583119 372.88854 
L 608.410112 373.228151 
L 609.237105 372.844882 
L 610.064098 373.262116 
L 610.891091 373.045955 
L 611.718084 373.576591 
L 612.545076 373.356399 
L 613.372069 373.287732 
L 614.199062 373.696323 
L 615.026055 373.300809 
L 615.853048 373.38093 
L 617.507034 373.416455 
L 618.334027 373.517255 
L 620.815005 373.372564 
L 621.641998 373.151316 
L 622.468991 373.123352 
L 623.295984 373.704503 
L 624.122977 373.769575 
L 624.949969 373.106847 
L 625.776962 373.210117 
L 626.603955 373.516863 
L 628.257941 373.208339 
L 629.084934 373.362662 
L 629.911927 373.765303 
L 630.738919 373.303877 
L 631.565912 373.434802 
L 632.392905 373.169662 
L 633.219898 373.681207 
L 634.046891 373.757306 
L 634.873884 372.962548 
L 635.700877 373.559614 
L 636.52787 373.439676 
L 637.354862 373.803184 
L 638.181855 373.333456 
L 639.008848 373.544343 
L 639.835841 373.137775 
L 640.662834 373.388048 
L 641.489827 373.08555 
L 642.31682 372.94491 
L 643.143812 373.384687 
L 643.970805 373.141038 
L 644.797798 373.876119 
L 645.624791 373.906925 
L 646.451784 372.619318 
L 647.278777 372.512255 
L 648.10577 371.411741 
L 648.932762 371.127859 
L 651.413741 372.129671 
L 652.240734 372.048418 
L 653.067727 372.629172 
L 653.89472 371.988809 
L 654.721713 373.696188 
L 655.548705 373.732078 
L 657.202691 375.508718 
L 658.856677 375.331772 
L 659.68367 374.505642 
L 660.510663 373.107064 
L 661.337655 371.349206 
L 662.164648 371.935519 
L 662.991641 371.242092 
L 663.818634 372.026611 
L 664.645627 372.369532 
L 665.47262 372.019077 
L 666.299613 371.860066 
L 667.126606 372.287621 
L 668.780591 373.758751 
L 669.607584 374.70295 
L 670.434577 373.984556 
L 671.26157 374.23578 
L 672.088563 373.899142 
L 672.915556 373.199138 
L 673.742548 372.944082 
L 674.569541 373.440416 
L 675.396534 373.422481 
L 676.223527 373.19681 
L 677.05052 372.469829 
L 677.877513 371.954091 
L 678.704506 371.276504 
L 679.531498 371.617331 
L 680.358491 371.432027 
L 681.185484 372.29046 
L 682.012477 372.389272 
L 682.83947 373.02741 
L 683.666463 372.679034 
L 684.493456 372.746711 
L 685.320449 374.078649 
L 686.147441 372.725463 
L 686.974434 373.869935 
L 687.801427 373.232335 
L 688.62842 373.590064 
L 689.455413 372.416242 
L 690.282406 373.392601 
L 691.109399 372.25634 
L 691.936391 372.745112 
L 692.763384 372.228725 
L 695.244363 374.899027 
L 696.071356 375.090043 
L 696.898349 375.456188 
L 697.725341 375.502332 
L 698.552334 374.937458 
L 699.379327 374.733071 
L 700.20632 374.236746 
L 701.033313 373.409808 
L 701.860306 372.241315 
L 702.687299 373.501921 
L 703.514292 372.923519 
L 704.341284 373.450361 
L 705.168277 372.564005 
L 705.99527 373.529045 
L 706.822263 371.904772 
L 708.476249 371.278401 
L 709.303242 373.103814 
L 710.130234 373.872473 
L 710.957227 372.524445 
L 711.78422 372.062528 
L 713.438206 372.606851 
L 714.265199 372.353347 
L 715.092192 372.801181 
L 715.919185 373.575965 
L 716.746177 373.766815 
L 717.57317 373.3362 
L 718.400163 372.20986 
L 719.227156 372.69955 
L 720.054149 373.530744 
L 720.881142 372.632003 
L 721.708135 371.955837 
L 722.535127 372.776421 
L 723.36212 374.075126 
L 724.189113 374.010912 
L 725.016106 373.275118 
L 725.843099 373.260176 
L 726.670092 373.125316 
L 727.497085 373.780482 
L 728.324077 372.337463 
L 729.978063 372.875815 
L 730.805056 372.54603 
L 732.459042 372.23371 
L 733.286035 373.422845 
L 734.113028 373.112801 
L 734.94002 373.719234 
L 735.767013 373.309713 
L 736.594006 374.287997 
L 737.420999 373.986635 
L 738.247992 374.614479 
L 739.074985 373.122541 
L 739.901978 373.018633 
L 740.72897 372.732597 
L 741.555963 371.550841 
L 742.382956 371.897155 
L 743.209949 372.636267 
L 744.036942 371.900101 
L 744.863935 372.47532 
L 745.690928 371.791842 
L 746.51792 371.495488 
L 747.344913 372.687467 
L 748.171906 372.66975 
L 748.998899 372.959626 
L 749.825892 373.836682 
L 750.652885 373.756688 
L 751.479878 372.736049 
L 752.306871 373.120462 
L 753.133863 372.800694 
L 753.960856 373.816348 
L 754.787849 374.503489 
L 756.441835 373.349938 
L 757.268828 373.832308 
L 758.095821 373.708984 
L 758.922813 373.466625 
L 759.749806 374.604272 
L 760.576799 374.645289 
L 761.403792 374.806941 
L 762.230785 374.376289 
L 763.057778 374.08979 
L 763.884771 374.464851 
L 764.711764 374.538567 
L 765.538756 374.205021 
L 766.365749 374.296576 
L 768.846728 373.090202 
L 769.673721 372.396901 
L 770.500714 373.054713 
L 771.327706 372.506728 
L 772.154699 372.691794 
L 772.981692 373.049609 
L 774.635678 372.157005 
L 775.462671 372.326286 
L 777.116656 373.186596 
L 777.943649 373.669516 
L 778.770642 373.728883 
L 779.597635 373.420379 
L 780.424628 373.405397 
L 781.251621 372.165767 
L 783.732599 373.449455 
L 784.559592 372.822751 
L 785.386585 372.834478 
L 786.213578 372.410462 
L 787.040571 372.654143 
L 787.867564 373.543841 
L 788.694557 372.727664 
L 789.521549 374.581587 
L 790.348542 374.451006 
L 791.175535 374.536971 
L 792.002528 373.313561 
L 792.829521 373.352448 
L 793.656514 373.575506 
L 794.483507 373.647439 
L 795.310499 373.416475 
L 796.137492 372.665652 
L 796.964485 372.481504 
L 797.791478 371.289815 
L 798.618471 371.92618 
L 799.445464 371.911895 
L 800.272457 372.374374 
L 801.09945 372.188188 
L 801.926442 372.472901 
L 802.753435 372.503628 
L 803.580428 372.407457 
L 804.407421 372.427913 
L 805.234414 373.698516 
L 806.061407 374.614194 
L 806.8884 373.937213 
L 807.715392 373.665925 
L 809.369378 374.847839 
L 810.196371 374.160631 
L 811.023364 374.460833 
L 811.850357 374.366776 
L 812.67735 374.762036 
L 813.504343 373.854954 
L 814.331335 373.387882 
L 817.639307 373.100864 
L 818.4663 373.256748 
L 820.120285 373.168795 
L 820.947278 372.850872 
L 821.774271 373.313106 
L 822.601264 373.378705 
L 824.25525 373.118791 
L 825.082243 373.442914 
L 825.909235 372.59738 
L 826.736228 372.732783 
L 827.563221 372.521626 
L 828.390214 372.452329 
L 829.217207 373.036006 
L 830.871193 372.876698 
L 831.698186 373.140923 
L 832.525178 373.78072 
L 833.352171 373.708109 
L 834.179164 374.244775 
L 835.006157 374.199237 
L 835.83315 373.600967 
L 836.660143 373.543805 
L 837.487136 373.217489 
L 838.314128 373.193116 
L 839.968114 373.513062 
L 840.795107 372.742736 
L 841.6221 372.682549 
L 842.449093 372.50883 
L 844.103078 373.346937 
L 844.930071 373.608794 
L 845.757064 373.573059 
L 846.584057 373.359578 
L 847.41105 372.896648 
L 848.238043 372.646185 
L 849.065036 373.205932 
L 849.892029 373.060802 
L 850.719021 373.708608 
L 851.546014 373.112948 
L 852.373007 373.17823 
L 852.373007 373.17823 
" clip-path="url(#pf5af01c94b)" style="fill: none; stroke-dasharray: 7.4,3.2; stroke-dashoffset: 0; stroke: #000000; stroke-width: 2"/>
   </g>
   <g id="patch_3">
    <path d="M 41.92 404.12 
L 41.92 10.8 
" style="fill: none; stroke: #000000; stroke-width: 0.8; stroke-linejoin: miter; stroke-linecap: square"/>
   </g>
   <g id="patch_4">
    <path d="M 853.2 404.12 
L 853.2 10.8 
" style="fill: none; stroke: #000000; stroke-width: 0.8; stroke-linejoin: miter; stroke-linecap: square"/>
   </g>
   <g id="patch_5">
    <path d="M 41.92 404.12 
L 853.2 404.12 
" style="fill: none; stroke: #000000; stroke-width: 0.8; stroke-linejoin: miter; stroke-linecap: square"/>
   </g>
   <g id="patch_6">
    <path d="M 41.92 10.8 
L 853.2 10.8 
" style="fill: none; stroke: #000000; stroke-width: 0.8; stroke-linejoin: miter; stroke-linecap: square"/>
   </g>
  </g>
 </g>
 <defs>
  <clipPath id="pf5af01c94b">
   <rect x="41.92" y="10.8" width="811.28" height="393.32"/>
  </clipPath>
 </defs>
</svg>
