<?xml version="1.0" encoding="utf-8" standalone="no"?>
<!DOCTYPE svg PUBLIC "-//W3C//DTD SVG 1.1//EN"
  "http://www.w3.org/Graphics/SVG/1.1/DTD/svg11.dtd">
<svg xmlns:xlink="http://www.w3.org/1999/xlink" width="864pt" height="432pt" viewBox="0 0 864 432" xmlns="http://www.w3.org/2000/svg" version="1.1">
 <metadata>
  <rdf:RDF xmlns:dc="http://purl.org/dc/elements/1.1/" xmlns:cc="http://creativecommons.org/ns#" xmlns:rdf="http://www.w3.org/1999/02/22-rdf-syntax-ns#">
   <cc:Work>
    <dc:type rdf:resource="http://purl.org/dc/dcmitype/StillImage"/>
    <dc:date>2024-09-19T08:50:12.280667</dc:date>
    <dc:format>image/svg+xml</dc:format>
    <dc:creator>
     <cc:Agent>
      <dc:title>Matplotlib v3.9.2, https://matplotlib.org/</dc:title>
     </cc:Agent>
    </dc:creator>
   </cc:Work>
  </rdf:RDF>
 </metadata>
 <defs>
  <style type="text/css">*{stroke-linejoin: round; stroke-linecap: butt}</style>
 </defs>
 <g id="figure_1">
  <g id="patch_1">
   <path d="M 0 432 
L 864 432 
L 864 0 
L 0 0 
z
" style="fill: #ffffff"/>
  </g>
  <g id="axes_1">
   <g id="patch_2">
    <path d="M 35.89 404.12 
L 853.2 404.12 
L 853.2 10.8 
L 35.89 10.8 
z
" style="fill: #ffffff"/>
   </g>
   <g id="matplotlib.axis_1">
    <g id="xtick_1">
     <g id="line2d_1">
      <defs>
       <path id="mbe1aba6e4b" d="M 0 0 
L 0 3.5 
" style="stroke: #000000; stroke-width: 0.8"/>
      </defs>
      <g>
       <use xlink:href="#mbe1aba6e4b" x="198.33467" y="404.12" style="stroke: #000000; stroke-width: 0.8"/>
      </g>
     </g>
     <g id="text_1">
      <!-- 1000 -->
      <g transform="translate(186.294045 418.771563) scale(0.1 -0.1)">
       <defs>
        <path id="DejaVuSansMono-31" d="M 844 531 
L 1825 531 
L 1825 4097 
L 769 3859 
L 769 4434 
L 1819 4666 
L 2450 4666 
L 2450 531 
L 3419 531 
L 3419 0 
L 844 0 
L 844 531 
z
" transform="scale(0.015625)"/>
        <path id="DejaVuSansMono-30" d="M 1509 2344 
Q 1509 2516 1629 2641 
Q 1750 2766 1919 2766 
Q 2094 2766 2219 2641 
Q 2344 2516 2344 2344 
Q 2344 2169 2220 2047 
Q 2097 1925 1919 1925 
Q 1744 1925 1626 2044 
Q 1509 2163 1509 2344 
z
M 1925 4250 
Q 1484 4250 1267 3775 
Q 1050 3300 1050 2328 
Q 1050 1359 1267 884 
Q 1484 409 1925 409 
Q 2369 409 2586 884 
Q 2803 1359 2803 2328 
Q 2803 3300 2586 3775 
Q 2369 4250 1925 4250 
z
M 1925 4750 
Q 2672 4750 3055 4137 
Q 3438 3525 3438 2328 
Q 3438 1134 3055 521 
Q 2672 -91 1925 -91 
Q 1178 -91 797 521 
Q 416 1134 416 2328 
Q 416 3525 797 4137 
Q 1178 4750 1925 4750 
z
" transform="scale(0.015625)"/>
       </defs>
       <use xlink:href="#DejaVuSansMono-31"/>
       <use xlink:href="#DejaVuSansMono-30" x="60.205078"/>
       <use xlink:href="#DejaVuSansMono-30" x="120.410156"/>
       <use xlink:href="#DejaVuSansMono-30" x="180.615234"/>
      </g>
     </g>
    </g>
    <g id="xtick_2">
     <g id="line2d_2">
      <g>
       <use xlink:href="#mbe1aba6e4b" x="362.420195" y="404.12" style="stroke: #000000; stroke-width: 0.8"/>
      </g>
     </g>
     <g id="text_2">
      <!-- 2000 -->
      <g transform="translate(350.37957 418.771563) scale(0.1 -0.1)">
       <defs>
        <path id="DejaVuSansMono-32" d="M 1166 531 
L 3309 531 
L 3309 0 
L 475 0 
L 475 531 
Q 1059 1147 1496 1619 
Q 1934 2091 2100 2284 
Q 2413 2666 2522 2902 
Q 2631 3138 2631 3384 
Q 2631 3775 2401 3997 
Q 2172 4219 1772 4219 
Q 1488 4219 1175 4116 
Q 863 4013 513 3803 
L 513 4441 
Q 834 4594 1145 4672 
Q 1456 4750 1759 4750 
Q 2444 4750 2861 4386 
Q 3278 4022 3278 3431 
Q 3278 3131 3139 2831 
Q 3000 2531 2688 2169 
Q 2513 1966 2180 1606 
Q 1847 1247 1166 531 
z
" transform="scale(0.015625)"/>
       </defs>
       <use xlink:href="#DejaVuSansMono-32"/>
       <use xlink:href="#DejaVuSansMono-30" x="60.205078"/>
       <use xlink:href="#DejaVuSansMono-30" x="120.410156"/>
       <use xlink:href="#DejaVuSansMono-30" x="180.615234"/>
      </g>
     </g>
    </g>
    <g id="xtick_3">
     <g id="line2d_3">
      <g>
       <use xlink:href="#mbe1aba6e4b" x="526.50572" y="404.12" style="stroke: #000000; stroke-width: 0.8"/>
      </g>
     </g>
     <g id="text_3">
      <!-- 3000 -->
      <g transform="translate(514.465095 418.771563) scale(0.1 -0.1)">
       <defs>
        <path id="DejaVuSansMono-33" d="M 2425 2497 
Q 2884 2375 3128 2064 
Q 3372 1753 3372 1288 
Q 3372 644 2939 276 
Q 2506 -91 1741 -91 
Q 1419 -91 1084 -31 
Q 750 28 428 141 
L 428 769 
Q 747 603 1056 522 
Q 1366 441 1672 441 
Q 2191 441 2469 675 
Q 2747 909 2747 1350 
Q 2747 1756 2469 1995 
Q 2191 2234 1716 2234 
L 1234 2234 
L 1234 2753 
L 1716 2753 
Q 2150 2753 2394 2943 
Q 2638 3134 2638 3475 
Q 2638 3834 2411 4026 
Q 2184 4219 1766 4219 
Q 1488 4219 1191 4156 
Q 894 4094 569 3969 
L 569 4550 
Q 947 4650 1242 4700 
Q 1538 4750 1766 4750 
Q 2447 4750 2855 4408 
Q 3263 4066 3263 3500 
Q 3263 3116 3048 2859 
Q 2834 2603 2425 2497 
z
" transform="scale(0.015625)"/>
       </defs>
       <use xlink:href="#DejaVuSansMono-33"/>
       <use xlink:href="#DejaVuSansMono-30" x="60.205078"/>
       <use xlink:href="#DejaVuSansMono-30" x="120.410156"/>
       <use xlink:href="#DejaVuSansMono-30" x="180.615234"/>
      </g>
     </g>
    </g>
    <g id="xtick_4">
     <g id="line2d_4">
      <g>
       <use xlink:href="#mbe1aba6e4b" x="690.591245" y="404.12" style="stroke: #000000; stroke-width: 0.8"/>
      </g>
     </g>
     <g id="text_4">
      <!-- 4000 -->
      <g transform="translate(678.55062 418.771563) scale(0.1 -0.1)">
       <defs>
        <path id="DejaVuSansMono-34" d="M 2297 4091 
L 825 1625 
L 2297 1625 
L 2297 4091 
z
M 2194 4666 
L 2925 4666 
L 2925 1625 
L 3547 1625 
L 3547 1113 
L 2925 1113 
L 2925 0 
L 2297 0 
L 2297 1113 
L 319 1113 
L 319 1709 
L 2194 4666 
z
" transform="scale(0.015625)"/>
       </defs>
       <use xlink:href="#DejaVuSansMono-34"/>
       <use xlink:href="#DejaVuSansMono-30" x="60.205078"/>
       <use xlink:href="#DejaVuSansMono-30" x="120.410156"/>
       <use xlink:href="#DejaVuSansMono-30" x="180.615234"/>
      </g>
     </g>
    </g>
   </g>
   <g id="matplotlib.axis_2">
    <g id="ytick_1">
     <g id="line2d_5">
      <defs>
       <path id="me99d9f1881" d="M 0 0 
L -3.5 0 
" style="stroke: #000000; stroke-width: 0.8"/>
      </defs>
      <g>
       <use xlink:href="#me99d9f1881" x="35.89" y="386.241818" style="stroke: #000000; stroke-width: 0.8"/>
      </g>
     </g>
     <g id="text_5">
      <!-- 0.0 -->
      <g transform="translate(10.829063 390.067599) scale(0.1 -0.1)">
       <defs>
        <path id="DejaVuSansMono-2e" d="M 1528 953 
L 2316 953 
L 2316 0 
L 1528 0 
L 1528 953 
z
" transform="scale(0.015625)"/>
       </defs>
       <use xlink:href="#DejaVuSansMono-30"/>
       <use xlink:href="#DejaVuSansMono-2e" x="60.205078"/>
       <use xlink:href="#DejaVuSansMono-30" x="120.410156"/>
      </g>
     </g>
    </g>
    <g id="ytick_2">
     <g id="line2d_6">
      <g>
       <use xlink:href="#me99d9f1881" x="35.89" y="314.440457" style="stroke: #000000; stroke-width: 0.8"/>
      </g>
     </g>
     <g id="text_6">
      <!-- 0.2 -->
      <g transform="translate(10.829063 318.266238) scale(0.1 -0.1)">
       <use xlink:href="#DejaVuSansMono-30"/>
       <use xlink:href="#DejaVuSansMono-2e" x="60.205078"/>
       <use xlink:href="#DejaVuSansMono-32" x="120.410156"/>
      </g>
     </g>
    </g>
    <g id="ytick_3">
     <g id="line2d_7">
      <g>
       <use xlink:href="#me99d9f1881" x="35.89" y="242.639096" style="stroke: #000000; stroke-width: 0.8"/>
      </g>
     </g>
     <g id="text_7">
      <!-- 0.4 -->
      <g transform="translate(10.829063 246.464877) scale(0.1 -0.1)">
       <use xlink:href="#DejaVuSansMono-30"/>
       <use xlink:href="#DejaVuSansMono-2e" x="60.205078"/>
       <use xlink:href="#DejaVuSansMono-34" x="120.410156"/>
      </g>
     </g>
    </g>
    <g id="ytick_4">
     <g id="line2d_8">
      <g>
       <use xlink:href="#me99d9f1881" x="35.89" y="170.837735" style="stroke: #000000; stroke-width: 0.8"/>
      </g>
     </g>
     <g id="text_8">
      <!-- 0.6 -->
      <g transform="translate(10.829063 174.663516) scale(0.1 -0.1)">
       <defs>
        <path id="DejaVuSansMono-36" d="M 3097 4563 
L 3097 3981 
Q 2900 4097 2678 4158 
Q 2456 4219 2216 4219 
Q 1616 4219 1306 3767 
Q 997 3316 997 2438 
Q 1147 2750 1412 2917 
Q 1678 3084 2022 3084 
Q 2697 3084 3067 2670 
Q 3438 2256 3438 1497 
Q 3438 741 3056 325 
Q 2675 -91 1984 -91 
Q 1172 -91 794 492 
Q 416 1075 416 2328 
Q 416 3509 870 4129 
Q 1325 4750 2188 4750 
Q 2419 4750 2650 4701 
Q 2881 4653 3097 4563 
z
M 1972 2591 
Q 1569 2591 1337 2300 
Q 1106 2009 1106 1497 
Q 1106 984 1337 693 
Q 1569 403 1972 403 
Q 2391 403 2603 679 
Q 2816 956 2816 1497 
Q 2816 2041 2603 2316 
Q 2391 2591 1972 2591 
z
" transform="scale(0.015625)"/>
       </defs>
       <use xlink:href="#DejaVuSansMono-30"/>
       <use xlink:href="#DejaVuSansMono-2e" x="60.205078"/>
       <use xlink:href="#DejaVuSansMono-36" x="120.410156"/>
      </g>
     </g>
    </g>
    <g id="ytick_5">
     <g id="line2d_9">
      <g>
       <use xlink:href="#me99d9f1881" x="35.89" y="99.036374" style="stroke: #000000; stroke-width: 0.8"/>
      </g>
     </g>
     <g id="text_9">
      <!-- 0.8 -->
      <g transform="translate(10.829063 102.862155) scale(0.1 -0.1)">
       <defs>
        <path id="DejaVuSansMono-38" d="M 1925 2216 
Q 1503 2216 1273 1980 
Q 1044 1744 1044 1313 
Q 1044 881 1276 642 
Q 1509 403 1925 403 
Q 2350 403 2579 639 
Q 2809 875 2809 1313 
Q 2809 1741 2576 1978 
Q 2344 2216 1925 2216 
z
M 1375 2478 
Q 972 2581 745 2862 
Q 519 3144 519 3541 
Q 519 4097 897 4423 
Q 1275 4750 1925 4750 
Q 2578 4750 2956 4423 
Q 3334 4097 3334 3541 
Q 3334 3144 3107 2862 
Q 2881 2581 2478 2478 
Q 2947 2375 3195 2062 
Q 3444 1750 3444 1253 
Q 3444 622 3041 265 
Q 2638 -91 1925 -91 
Q 1213 -91 811 264 
Q 409 619 409 1247 
Q 409 1747 657 2061 
Q 906 2375 1375 2478 
z
M 1147 3481 
Q 1147 3106 1347 2909 
Q 1547 2713 1925 2713 
Q 2306 2713 2506 2909 
Q 2706 3106 2706 3481 
Q 2706 3863 2507 4063 
Q 2309 4263 1925 4263 
Q 1547 4263 1347 4061 
Q 1147 3859 1147 3481 
z
" transform="scale(0.015625)"/>
       </defs>
       <use xlink:href="#DejaVuSansMono-30"/>
       <use xlink:href="#DejaVuSansMono-2e" x="60.205078"/>
       <use xlink:href="#DejaVuSansMono-38" x="120.410156"/>
      </g>
     </g>
    </g>
    <g id="ytick_6">
     <g id="line2d_10">
      <g>
       <use xlink:href="#me99d9f1881" x="35.89" y="27.235013" style="stroke: #000000; stroke-width: 0.8"/>
      </g>
     </g>
     <g id="text_10">
      <!-- 1.0 -->
      <g transform="translate(10.829063 31.060794) scale(0.1 -0.1)">
       <use xlink:href="#DejaVuSansMono-31"/>
       <use xlink:href="#DejaVuSansMono-2e" x="60.205078"/>
       <use xlink:href="#DejaVuSansMono-30" x="120.410156"/>
      </g>
     </g>
    </g>
   </g>
   <g id="line2d_11">
    <path d="M 35.725914 338.877448 
L 35.89 335.929574 
L 36.054086 329.813162 
L 36.218171 331.179197 
L 36.382257 331.173545 
L 36.546342 341.328718 
L 36.710428 340.217391 
L 36.874513 330.29031 
L 37.038599 330.29031 
L 37.202684 323.558933 
L 37.530855 320.426675 
L 37.694941 324.208084 
L 37.859026 319.448524 
L 38.023112 320.039111 
L 38.187197 320.039111 
L 38.515368 340.729025 
L 38.679454 340.729025 
L 39.007625 357.967919 
L 39.17171 368.457162 
L 39.335796 367.202097 
L 39.499882 363.422232 
L 39.663967 373.387059 
L 40.156224 347.019278 
L 40.812566 347.019278 
L 41.140737 344.382542 
L 41.304822 335.709907 
L 41.468908 335.218455 
L 41.797079 351.803082 
L 41.961164 341.407598 
L 42.12525 341.407598 
L 42.453421 322.307953 
L 42.617507 317.808539 
L 43.109763 345.294849 
L 43.273849 343.814409 
L 43.437934 337.613382 
L 43.60202 348.008866 
L 43.766105 339.221237 
L 43.930191 342.075153 
L 44.258362 360.359118 
L 44.586533 340.864442 
L 44.750618 340.864442 
L 44.914704 331.916304 
L 45.078789 337.310574 
L 45.242875 327.324954 
L 45.40696 325.873761 
L 45.571046 332.657635 
L 45.899217 332.657635 
L 46.063303 343.086213 
L 46.227388 344.65375 
L 46.391474 335.836039 
L 46.555559 338.331888 
L 46.719645 328.710067 
L 47.047816 348.934509 
L 47.211901 349.674729 
L 47.704158 349.674729 
L 48.3605 386.241818 
L 49.345013 386.241818 
L 49.509099 375.81324 
L 50.001355 375.81324 
L 50.329526 355.277393 
L 50.493612 355.277393 
L 50.657697 346.184644 
L 50.985868 346.184644 
L 51.149954 356.613222 
L 51.314039 350.277808 
L 51.64221 350.277808 
L 51.970381 368.504825 
L 52.134467 362.552381 
L 52.298552 371.64513 
L 52.462638 370.250929 
L 52.790809 370.250929 
L 53.11898 362.573496 
L 53.283066 362.573496 
L 53.447151 354.418157 
L 53.611237 355.166087 
L 53.775322 361.118532 
L 53.939408 361.118532 
L 54.267579 345.394911 
L 54.431664 343.30361 
L 54.59575 345.36084 
L 54.923921 327.746326 
L 55.088006 337.462565 
L 55.580263 306.312326 
L 55.908434 323.430148 
L 56.07252 325.521449 
L 56.400691 340.923347 
L 56.564776 340.923347 
L 56.728862 330.718702 
L 57.221118 361.071148 
L 57.549289 361.071148 
L 57.713375 351.206265 
L 57.87746 351.206265 
L 58.041546 352.702126 
L 58.205631 351.32509 
L 58.369717 361.529735 
L 58.533802 351.116722 
L 58.697888 351.116722 
L 59.026059 343.244573 
L 59.190145 343.244573 
L 59.35423 353.109457 
L 59.518316 353.109457 
L 59.682401 355.353249 
L 59.846487 367.158864 
L 60.010572 356.421002 
L 60.174658 356.405437 
L 60.338743 346.902315 
L 60.502829 350.373262 
L 60.666914 345.722161 
L 60.995085 345.722161 
L 61.159171 344.958316 
L 61.487342 344.958316 
L 61.815513 366.124756 
L 61.979598 365.1993 
L 62.143684 365.97975 
L 62.30777 375.049396 
L 62.471855 364.620818 
L 62.635941 364.620818 
L 62.964112 344.629324 
L 63.128197 344.629324 
L 63.456368 325.973707 
L 63.620454 336.402285 
L 63.784539 336.402285 
L 63.948625 332.29935 
L 64.11271 334.409477 
L 64.276796 323.980899 
L 64.604967 343.938445 
L 64.769052 343.938445 
L 65.097223 362.594062 
L 65.261309 352.165484 
L 65.425394 352.165484 
L 65.58948 356.268418 
L 65.753566 364.586869 
L 65.917651 364.75811 
L 66.081737 364.75811 
L 66.245822 365.555902 
L 67.06625 365.503409 
L 67.230335 355.074831 
L 67.394421 355.074831 
L 67.558506 362.596879 
L 67.722592 362.596879 
L 68.050763 343.757726 
L 68.214848 343.757726 
L 68.378934 342.959933 
L 68.543019 353.441004 
L 68.707105 342.917243 
L 68.871191 353.345821 
L 69.035276 353.345821 
L 69.199362 345.652533 
L 69.363447 345.652533 
L 69.691618 364.491686 
L 69.855704 364.491686 
L 70.019789 365.289479 
L 70.183875 365.289479 
L 70.34796 365.755958 
L 70.512046 365.755958 
L 70.676131 363.488547 
L 70.840217 373.917124 
L 71.004302 373.917124 
L 71.168388 372.481097 
L 71.332473 372.481097 
L 71.660644 357.03583 
L 71.82473 357.03583 
L 71.988815 367.093113 
L 72.152901 367.093113 
L 72.316987 359.949666 
L 72.645158 359.949666 
L 72.809243 361.385693 
L 72.973329 361.385693 
L 73.3015 376.83096 
L 73.465585 376.041934 
L 73.793756 376.041934 
L 73.957842 375.024214 
L 74.121927 369.873906 
L 74.450098 369.873906 
L 74.614184 360.995243 
L 74.942355 360.995243 
L 75.10644 361.784269 
L 75.434612 361.784269 
L 75.762783 371.080536 
L 75.926868 371.080536 
L 76.090954 363.495885 
L 76.255039 361.854201 
L 76.419125 351.102534 
L 76.911381 351.102534 
L 77.239552 338.370245 
L 77.403638 338.370245 
L 77.567723 330.085473 
L 77.731809 327.527779 
L 77.895894 338.048126 
L 78.05998 338.371215 
L 78.224065 338.371215 
L 78.552236 321.069761 
L 79.044493 340.08467 
L 79.208579 343.050822 
L 79.372664 341.89375 
L 79.53675 341.89375 
L 79.700835 348.159931 
L 79.864921 341.652932 
L 80.029006 345.815782 
L 80.193092 356.319474 
L 80.685348 356.319474 
L 80.849434 361.638093 
L 81.013519 372.93751 
L 81.177605 372.93751 
L 81.669861 386.241818 
L 82.162118 386.241818 
L 82.654375 373.130754 
L 82.81846 370.107539 
L 83.802973 370.107539 
L 83.967059 375.059357 
L 84.131144 372.51427 
L 84.29523 372.51427 
L 84.459315 375.537486 
L 85.279743 375.537486 
L 85.607914 364.684918 
L 85.772 364.96376 
L 86.264256 364.96376 
L 86.756513 346.646456 
L 86.920598 346.646456 
L 87.248769 357.499023 
L 87.905111 357.495935 
L 88.233282 371.442722 
L 89.710052 371.442722 
L 90.202309 355.648884 
L 90.53048 355.648884 
L 90.694565 366.077462 
L 90.858651 358.066567 
L 91.350907 358.066567 
L 91.679078 378.230923 
L 92.335421 378.230923 
L 92.499506 386.241818 
L 93.648105 386.241818 
L 93.81219 376.450723 
L 95.28896 376.450723 
L 95.453046 386.241818 
L 96.437559 386.241818 
L 96.601644 375.81324 
L 98.078414 375.81324 
L 98.242499 386.241818 
L 99.391098 386.241818 
L 99.555184 375.595409 
L 99.883355 375.595409 
L 100.04744 365.129448 
L 101.031953 365.129448 
L 101.196039 375.775857 
L 101.52421 375.775857 
L 101.688296 386.241818 
L 107.103118 386.241818 
L 107.267203 384.150517 
L 108.743973 384.150517 
L 108.908059 386.241818 
L 117.112335 386.241818 
L 117.27642 383.480228 
L 118.75319 383.480228 
L 118.917276 386.241818 
L 122.527157 386.241818 
L 122.691243 384.109105 
L 123.183499 384.109105 
L 123.347585 379.025822 
L 124.168012 379.025822 
L 124.332098 380.36951 
L 124.824355 380.36951 
L 124.98844 380.799 
L 125.808868 380.799 
L 125.972953 381.588026 
L 126.137039 381.588026 
L 126.301124 368.766354 
L 126.46521 368.766354 
L 126.629295 357.587024 
L 126.793381 357.587024 
L 126.957466 347.663259 
L 127.449723 347.663259 
L 127.613808 335.962296 
L 127.777894 335.962296 
L 127.94198 348.783968 
L 128.106065 342.196687 
L 128.270151 358.029809 
L 128.434236 342.292524 
L 128.598322 342.799718 
L 129.090578 342.799718 
L 129.254664 354.500681 
L 129.582835 313.897303 
L 129.74692 312.506655 
L 130.075091 286.159952 
L 130.239177 275.685605 
L 130.567348 231.966554 
L 130.895519 231.966554 
L 131.22369 227.920259 
L 131.387776 216.414403 
L 131.551861 215.87288 
L 131.715947 214.342633 
L 131.880032 234.233551 
L 132.044118 231.564432 
L 132.208203 237.761241 
L 132.372289 217.475354 
L 132.536374 217.475354 
L 132.70046 213.940983 
L 132.864545 215.07898 
L 133.192716 205.881268 
L 133.356802 206.28101 
L 133.520887 185.461285 
L 133.684973 183.252472 
L 134.013144 171.282066 
L 134.177229 146.19862 
L 134.341315 146.011133 
L 134.505401 141.204798 
L 134.669486 139.99447 
L 134.833572 136.524267 
L 134.997657 136.937726 
L 135.161743 129.773331 
L 135.325828 128.747598 
L 135.818085 121.376755 
L 135.98217 119.222228 
L 136.146256 118.955639 
L 136.310341 122.248599 
L 136.474427 121.177783 
L 136.638512 117.050814 
L 136.802598 116.39286 
L 137.45894 108.745764 
L 137.787111 106.272291 
L 137.951197 99.117797 
L 138.115282 97.763871 
L 138.279368 94.300239 
L 138.771624 92.182886 
L 138.93571 90.064189 
L 139.099795 90.24543 
L 139.263881 89.537742 
L 139.427966 86.789718 
L 139.592052 86.330378 
L 139.756137 84.666024 
L 139.920223 87.978867 
L 140.248394 85.33898 
L 140.412479 88.268271 
L 140.904736 82.532693 
L 141.396993 78.269479 
L 141.561078 73.031702 
L 141.725164 75.678995 
L 141.889249 73.782966 
L 142.053335 67.299032 
L 142.21742 66.580927 
L 142.381506 72.858614 
L 142.873762 68.495183 
L 143.037848 70.423089 
L 143.201933 75.629239 
L 143.366019 71.51149 
L 143.69419 70.218723 
L 143.858275 71.574761 
L 144.022361 64.772358 
L 144.350532 63.182717 
L 144.514618 64.163711 
L 144.678703 61.864141 
L 144.842789 55.349361 
L 145.17096 53.920531 
L 145.335045 54.22825 
L 145.663216 49.693918 
L 145.827302 50.070109 
L 145.991387 49.676418 
L 146.155473 47.86535 
L 146.319558 48.02085 
L 146.647729 46.014514 
L 146.811815 46.764987 
L 146.9759 46.929945 
L 147.304071 46.09707 
L 147.468157 45.529571 
L 147.796328 46.912251 
L 147.960414 54.730301 
L 148.288585 55.918245 
L 148.45267 55.344293 
L 148.616756 54.067628 
L 148.780841 54.727151 
L 148.944927 54.546165 
L 149.437183 52.593293 
L 149.601269 43.872478 
L 149.92944 54.882311 
L 150.093525 54.705791 
L 150.257611 55.142671 
L 150.421696 55.077121 
L 150.585782 63.801522 
L 151.078039 63.801522 
L 151.242124 63.581813 
L 151.570295 51.16928 
L 151.734381 53.733917 
L 151.898466 53.314028 
L 152.062552 53.834785 
L 152.226637 45.076793 
L 152.390723 44.862119 
L 153.047065 43.144376 
L 153.21115 43.359131 
L 153.375236 40.377042 
L 153.539321 42.745859 
L 153.703407 42.048581 
L 154.195664 41.652949 
L 154.359749 42.22887 
L 154.523835 42.217011 
L 154.68792 42.429232 
L 154.852006 42.202618 
L 155.016091 42.174156 
L 155.344262 40.411637 
L 155.508348 39.984591 
L 155.836519 39.996181 
L 156.16469 38.804791 
L 156.656946 37.599973 
L 156.821032 35.490955 
L 156.985117 35.502544 
L 157.313288 35.108962 
L 157.64146 34.491175 
L 157.805545 34.871435 
L 158.297802 33.817254 
L 158.461887 34.39139 
L 158.625973 33.974143 
L 158.790058 33.967028 
L 158.954144 33.337276 
L 159.282315 34.155493 
L 159.4464 33.565332 
L 159.610486 33.761167 
L 159.938657 33.355537 
L 160.102742 34.785723 
L 160.266828 35.012136 
L 160.430913 34.809349 
L 160.759085 35.627657 
L 160.92317 35.40599 
L 161.579512 39.018298 
L 161.743598 37.006861 
L 162.235854 35.761695 
L 162.564025 34.346849 
L 163.384453 30.772545 
L 163.548538 30.975331 
L 163.712624 30.975331 
L 164.040795 31.99166 
L 164.204881 31.781731 
L 164.368966 31.366695 
L 164.533052 31.552782 
L 164.697137 31.547987 
L 165.025308 33.35723 
L 165.189394 33.159238 
L 165.353479 33.364373 
L 165.517565 33.355203 
L 165.68165 32.947282 
L 165.845736 33.152416 
L 166.009821 33.152416 
L 166.830249 31.367016 
L 166.994334 31.161881 
L 167.15842 30.562643 
L 167.322506 30.984963 
L 167.978848 30.980167 
L 168.142933 31.166255 
L 168.471104 31.166255 
L 168.63519 31.371389 
L 168.799275 31.779311 
L 168.963361 31.562125 
L 169.127446 31.764912 
L 169.455617 34.160126 
L 169.619703 34.36526 
L 169.783788 34.171889 
L 169.947874 35.539557 
L 170.111959 35.539557 
L 170.44013 35.136431 
L 170.604216 35.353617 
L 170.768302 34.945696 
L 171.096473 32.555277 
L 171.260558 32.555277 
L 171.424644 32.345375 
L 171.588729 31.182813 
L 171.752815 31.182813 
L 171.9169 31.387947 
L 172.080986 31.383152 
L 172.245071 31.165966 
L 172.737328 31.161171 
L 172.901413 30.956036 
L 173.065499 30.956036 
L 173.229584 30.541 
L 173.39367 30.944274 
L 173.557755 30.944274 
L 173.721841 31.16146 
L 173.885927 30.956325 
L 174.050012 30.956325 
L 174.214098 31.166255 
L 174.542269 31.166255 
L 174.706354 30.961121 
L 174.87044 31.166255 
L 175.034525 31.166255 
L 175.362696 30.331282 
L 175.526782 30.331282 
L 175.690867 30.93969 
L 175.854953 32.307359 
L 176.019038 32.102224 
L 176.183124 32.307359 
L 176.347209 32.307359 
L 176.511295 32.51726 
L 176.67538 31.908853 
L 177.003551 32.53623 
L 177.167637 32.74616 
L 177.331723 32.347682 
L 177.495808 30.770084 
L 177.823979 30.774879 
L 177.988065 30.980013 
L 178.15215 30.564977 
L 178.316236 30.564977 
L 178.644407 30.142747 
L 178.972578 30.142747 
L 179.136663 30.347881 
L 179.300749 30.965666 
L 179.464834 30.965666 
L 179.793005 32.030199 
L 179.957091 33.436194 
L 180.121176 33.648495 
L 180.285262 34.945795 
L 180.449348 34.735865 
L 180.613433 34.735865 
L 180.777519 34.938652 
L 180.941604 34.530797 
L 181.10569 35.708935 
L 181.269775 35.059438 
L 181.433861 35.252809 
L 181.597946 34.051948 
L 181.762032 34.047153 
L 181.926117 33.157775 
L 182.090203 33.766182 
L 182.254288 33.556253 
L 182.582459 34.184013 
L 182.746545 33.00108 
L 182.91063 33.00108 
L 183.074716 32.800593 
L 183.238801 33.00338 
L 183.402887 33.652877 
L 183.731058 33.264003 
L 183.895144 33.473933 
L 184.059229 32.836729 
L 184.3874 32.855703 
L 184.879657 34.278053 
L 185.043742 33.423422 
L 185.207828 33.626209 
L 185.371913 34.010514 
L 185.535999 33.800585 
L 185.700084 34.208506 
L 185.86417 33.581124 
L 186.028255 33.581124 
L 186.192341 33.189534 
L 186.520512 31.552833 
L 186.848683 31.567232 
L 187.012769 31.168528 
L 187.505025 31.168528 
L 187.669111 31.600597 
L 187.833196 31.185561 
L 187.997282 31.39549 
L 188.161367 31.39549 
L 188.325453 31.60542 
L 188.489538 31.39303 
L 188.653624 30.985108 
L 188.817709 30.985108 
L 188.981795 30.577187 
L 189.14588 30.787117 
L 189.309966 30.149913 
L 189.474051 30.149913 
L 189.638137 29.939983 
L 189.802222 29.939983 
L 189.966308 29.730054 
L 190.294479 29.725258 
L 190.458565 29.930393 
L 190.62265 30.338314 
L 190.950821 30.333518 
L 191.114907 30.543448 
L 191.443078 33.690314 
L 191.771249 33.690314 
L 191.935334 34.098235 
L 192.09942 33.893101 
L 192.427591 33.280045 
L 192.591676 33.280045 
L 192.755762 33.070116 
L 193.083933 30.331171 
L 193.412104 30.743888 
L 193.57619 30.541101 
L 193.740275 30.541101 
L 193.904361 30.963421 
L 194.232532 30.963421 
L 194.396617 31.173351 
L 194.560703 30.76543 
L 194.724788 30.76543 
L 194.888874 30.5555 
L 195.217045 29.942444 
L 195.38113 30.35748 
L 195.545216 30.14509 
L 195.709301 30.753498 
L 196.201558 30.753498 
L 196.365643 30.958632 
L 196.8579 32.21098 
L 197.021986 32.005873 
L 197.186071 32.005873 
L 197.350157 31.819786 
L 198.170584 34.820757 
L 198.33467 34.403305 
L 198.662841 34.820802 
L 198.826926 34.820802 
L 198.991012 34.608411 
L 199.647354 32.867224 
L 199.975525 33.868743 
L 200.139611 34.698818 
L 200.467782 35.126092 
L 200.631867 35.722788 
L 200.795953 35.512858 
L 201.124124 36.296169 
L 201.452295 35.862456 
L 201.780466 35.013677 
L 202.108637 35.800447 
L 202.272722 35.611606 
L 202.436808 36.229391 
L 202.600893 35.64181 
L 202.764979 35.660784 
L 202.929064 35.870686 
L 203.09315 35.894134 
L 203.421321 36.569226 
L 203.585407 35.958501 
L 203.749492 36.357084 
L 203.913578 36.14722 
L 204.077663 37.011359 
L 204.241749 37.214108 
L 204.56992 38.384311 
L 205.226262 39.65446 
L 205.390347 39.834511 
L 205.554433 40.429207 
L 205.718518 40.143702 
L 205.882604 40.332543 
L 206.046689 40.90084 
L 206.37486 42.302699 
L 206.538946 42.125213 
L 206.867117 42.772823 
L 207.031203 43.019492 
L 207.195288 43.047312 
L 207.523459 43.484969 
L 208.015716 41.367018 
L 208.179801 41.154876 
L 208.507972 40.548837 
L 208.672058 40.511745 
L 209.000229 41.482739 
L 209.164314 41.872367 
L 209.492485 41.856138 
L 210.148828 43.66754 
L 210.476999 43.24102 
L 210.641084 44.041203 
L 210.80517 43.863717 
L 211.133341 44.290437 
L 211.625597 43.234951 
L 211.789683 44.141065 
L 212.117854 42.937823 
L 212.281939 41.157303 
L 212.446025 40.735419 
L 212.61011 40.680399 
L 212.774196 40.45729 
L 212.938281 40.651092 
L 213.102367 40.635229 
L 213.266453 40.861122 
L 213.430538 40.287515 
L 213.594624 41.067174 
L 213.758709 41.067174 
L 214.08688 42.796567 
L 214.250966 42.796567 
L 214.579137 45.239492 
L 214.907308 46.974715 
L 215.235479 46.430163 
L 215.399564 46.430163 
L 215.56365 46.283057 
L 215.727735 45.512085 
L 215.891821 45.567104 
L 216.055906 45.399069 
L 216.384077 43.750973 
L 216.712249 42.211873 
L 217.04042 42.243964 
L 217.368591 42.895548 
L 217.532676 43.918397 
L 217.860847 43.714217 
L 218.189018 48.879894 
L 218.353104 48.866143 
L 218.517189 48.44426 
L 218.681275 48.849915 
L 218.84536 48.166602 
L 219.009446 47.9728 
L 219.337617 45.366288 
L 219.501702 44.976661 
L 219.829874 40.531772 
L 219.993959 40.335781 
L 220.158045 40.917223 
L 220.32213 40.313349 
L 220.486216 42.649065 
L 220.650301 42.85873 
L 220.814387 42.45077 
L 220.978472 42.47859 
L 221.306643 43.302003 
L 221.470729 43.142445 
L 221.634814 43.564329 
L 221.7989 42.982888 
L 221.962985 43.181106 
L 222.127071 41.073305 
L 222.291156 42.187671 
L 222.455242 44.600908 
L 222.619327 44.377097 
L 222.947498 42.962762 
L 223.111584 42.915157 
L 223.27567 42.703015 
L 223.439755 42.703015 
L 223.603841 42.912756 
L 223.767926 42.295049 
L 224.260183 38.756 
L 224.424268 38.951991 
L 224.588354 38.562199 
L 224.916525 38.609804 
L 225.08061 39.44198 
L 225.244696 39.654122 
L 225.572867 39.654122 
L 225.736952 39.458131 
L 226.229209 40.911109 
L 226.885551 39.025424 
L 227.049637 39.221415 
L 227.377808 40.048864 
L 227.541893 40.080955 
L 227.705979 39.863896 
L 227.870064 39.880124 
L 228.362321 41.323261 
L 228.690492 43.312379 
L 228.854577 43.100327 
L 229.182748 43.114396 
L 229.346834 44.798829 
L 229.510919 44.798829 
L 229.839091 45.575516 
L 230.167262 45.01469 
L 230.331347 44.818975 
L 230.659518 45.462872 
L 230.823604 50.58562 
L 230.987689 48.882434 
L 231.151775 48.670292 
L 231.31586 50.025288 
L 231.644031 50.63132 
L 231.808117 50.706127 
L 231.972202 51.142772 
L 232.136288 56.995017 
L 232.300373 56.799193 
L 232.464459 54.474854 
L 232.628544 57.330587 
L 232.79263 57.559331 
L 232.956716 55.623471 
L 233.120801 55.451324 
L 233.284887 55.451324 
L 233.613058 54.427863 
L 233.777143 48.158166 
L 233.941229 47.747872 
L 234.2694 41.077317 
L 234.597571 40.263846 
L 234.925742 39.035338 
L 235.253913 37.344516 
L 235.417998 37.801727 
L 235.582084 37.801727 
L 235.910255 36.575564 
L 236.07434 36.748107 
L 236.402512 35.701013 
L 236.566597 35.887306 
L 236.894768 35.285814 
L 237.058854 34.191695 
L 237.222939 34.000862 
L 237.387025 34.203648 
L 237.55111 35.404509 
L 237.715196 35.029274 
L 237.879281 36.408316 
L 238.043367 36.618218 
L 238.207452 36.016887 
L 238.371538 36.236347 
L 239.02788 37.91356 
L 239.191965 37.134946 
L 239.356051 37.349772 
L 239.520137 36.190191 
L 239.848308 37.047065 
L 240.012393 37.249757 
L 240.176479 37.047009 
L 240.340564 38.359375 
L 240.832821 38.339845 
L 240.996906 37.912674 
L 241.160992 38.127499 
L 241.489163 37.697797 
L 241.817334 36.862954 
L 241.981419 35.362359 
L 242.473676 34.315113 
L 242.637761 34.307998 
L 242.965933 33.446502 
L 243.130018 33.2366 
L 243.294104 34.419533 
L 243.458189 34.62232 
L 243.78636 34.195149 
L 244.114531 34.188034 
L 244.278617 33.985247 
L 244.442702 34.188034 
L 244.606788 33.775384 
L 244.770873 33.775384 
L 244.934959 32.59245 
L 245.099044 32.389664 
L 245.26313 31.977013 
L 245.427215 31.977013 
L 245.591301 32.186915 
L 245.755386 32.19403 
L 245.919472 41.845587 
L 246.083558 41.852702 
L 246.247643 42.062604 
L 246.411729 42.062604 
L 246.575814 42.484851 
L 246.7399 42.489647 
L 246.903985 43.30088 
L 247.068071 43.30088 
L 247.232156 43.513225 
L 247.396242 43.303323 
L 247.560327 33.861669 
L 247.888498 33.854554 
L 248.052584 34.057341 
L 248.216669 33.635093 
L 248.380755 33.630298 
L 248.54484 32.819065 
L 248.708926 32.819065 
L 248.873011 32.396817 
L 249.037097 32.599604 
L 249.201182 32.389702 
L 249.529354 32.396817 
L 249.693439 32.19403 
L 249.857525 32.597304 
L 250.02161 32.392169 
L 250.185696 32.993661 
L 250.349781 32.788555 
L 250.677952 32.802954 
L 250.842038 33.005741 
L 251.006123 34.724537 
L 251.170209 34.514635 
L 251.334294 34.514635 
L 251.49838 34.321263 
L 251.662465 34.526397 
L 251.826551 33.929701 
L 251.990636 34.722388 
L 252.318807 34.707989 
L 252.482893 35.106694 
L 252.646979 33.779488 
L 252.811064 33.98939 
L 252.97515 33.98939 
L 253.139235 33.779488 
L 253.303321 33.779488 
L 253.467406 33.984594 
L 253.631492 33.397014 
L 253.795577 33.606916 
L 253.959663 34.041202 
L 254.287834 33.682713 
L 255.108261 35.555204 
L 255.436432 35.555204 
L 255.928689 34.90609 
L 256.25686 34.071248 
L 256.420946 33.859026 
L 256.585031 33.436779 
L 256.749117 33.429664 
L 256.913202 33.219762 
L 257.241373 35.734568 
L 257.405459 35.91877 
L 257.569544 35.91877 
L 257.73363 36.128672 
L 257.897715 36.765745 
L 258.061801 36.555938 
L 258.389972 37.38848 
L 258.554057 37.80113 
L 258.718143 36.268952 
L 258.882228 36.109394 
L 259.046314 36.137538 
L 259.2104 36.934783 
L 259.374485 37.15695 
L 259.538571 37.15695 
L 259.702656 37.39075 
L 259.866742 37.402609 
L 260.030827 37.605302 
L 260.358998 38.64821 
L 260.523084 38.46453 
L 260.851255 38.969114 
L 261.01534 39.833951 
L 261.179426 47.677054 
L 261.343511 48.585547 
L 261.671682 52.975675 
L 261.835768 53.933028 
L 261.999853 59.918609 
L 262.328024 62.608127 
L 262.656196 65.860612 
L 262.820281 60.032476 
L 262.984367 60.868921 
L 263.312538 59.954776 
L 263.476623 59.6732 
L 263.640709 61.642729 
L 263.96888 60.725699 
L 264.132965 59.493357 
L 264.297051 59.399268 
L 264.625222 57.161338 
L 264.953393 56.410601 
L 265.117478 59.693199 
L 265.281564 57.234902 
L 265.445649 57.659764 
L 265.773821 56.98408 
L 265.937906 59.157183 
L 266.101992 59.382393 
L 266.266077 59.807255 
L 266.594248 58.64859 
L 266.922419 50.818442 
L 267.086505 50.618657 
L 267.25059 50.843735 
L 267.414676 51.436564 
L 267.578761 48.366829 
L 267.742847 48.825441 
L 268.071018 47.771357 
L 268.399189 48.133017 
L 269.055531 46.202006 
L 269.219617 46.757108 
L 269.547788 46.055353 
L 269.711873 46.07547 
L 270.040044 46.975672 
L 270.20413 46.77336 
L 270.368215 48.692338 
L 270.532301 49.122289 
L 270.860472 47.993713 
L 271.024557 47.545956 
L 271.188643 47.768502 
L 271.352728 48.423659 
L 271.516814 47.728744 
L 271.680899 52.976662 
L 271.844985 53.156612 
L 272.00907 51.237633 
L 272.173156 50.789877 
L 272.337242 50.807269 
L 272.665413 49.881469 
L 272.829498 49.221636 
L 273.157669 47.286572 
L 273.321755 44.143243 
L 273.48584 44.701508 
L 273.649926 43.816465 
L 273.814011 43.596536 
L 273.978097 43.15925 
L 274.142182 43.15925 
L 274.306268 42.941893 
L 274.470353 43.931979 
L 274.634439 44.149336 
L 274.798524 43.722164 
L 274.96261 40.330568 
L 275.126695 39.572236 
L 275.783038 39.586971 
L 275.947123 39.804329 
L 276.111209 39.046686 
L 276.275294 39.031951 
L 276.767551 40.826433 
L 276.931636 41.029055 
L 277.095722 40.811698 
L 277.259807 41.214601 
L 277.423893 40.997244 
L 277.587978 40.997244 
L 277.752064 41.202088 
L 278.080235 42.12237 
L 278.24432 49.638391 
L 278.408406 48.488629 
L 278.736577 50.058806 
L 278.900663 50.315736 
L 279.064748 51.17788 
L 279.228834 53.137824 
L 279.392919 53.137824 
L 279.557005 53.363035 
L 279.72109 53.795573 
L 279.885176 46.961972 
L 280.049261 46.94458 
L 280.377432 45.826424 
L 280.705603 45.196825 
L 280.869689 43.65924 
L 281.033774 43.454397 
L 281.19786 43.967402 
L 281.526031 42.990165 
L 281.690116 43.230104 
L 281.854202 43.230104 
L 282.182373 43.854893 
L 282.346459 43.837087 
L 282.67463 44.220154 
L 282.838715 43.039463 
L 283.002801 43.056856 
L 283.166886 43.688954 
L 283.330972 43.668837 
L 283.495057 43.448908 
L 283.659143 46.672192 
L 283.987314 45.827633 
L 284.151399 53.255678 
L 284.315485 52.818392 
L 284.807741 52.77757 
L 285.135912 51.932921 
L 285.299998 56.073412 
L 285.464084 55.635965 
L 285.628169 56.453905 
L 285.792255 48.20792 
L 285.95634 48.410542 
L 286.120426 49.070064 
L 286.284511 48.632778 
L 286.448597 47.438311 
L 286.612682 47.233307 
L 286.776768 47.453326 
L 286.940853 39.652457 
L 287.104939 39.857461 
L 287.269024 38.834518 
L 287.43311 38.629514 
L 287.597195 38.221888 
L 287.761281 41.438686 
L 287.925366 41.438686 
L 288.089452 41.006375 
L 288.253537 41.399608 
L 288.417623 40.962161 
L 288.745794 41.004406 
L 289.238051 42.081642 
L 289.402136 38.002699 
L 289.566222 37.797695 
L 289.730307 38.012579 
L 290.058478 38.01715 
L 290.550735 36.924828 
L 290.71482 36.7074 
L 291.207077 35.650269 
L 291.371162 35.650269 
L 291.535248 35.027759 
L 291.699333 35.037581 
L 291.863419 34.610307 
L 292.027505 34.610307 
L 292.19159 34.395424 
L 292.355676 34.600428 
L 292.683847 35.213115 
L 293.012018 35.196009 
L 293.176103 35.410893 
L 293.340189 35.196009 
L 293.504274 36.198361 
L 293.832445 35.771087 
L 293.996531 35.758954 
L 294.160616 35.136444 
L 294.324702 35.52543 
L 294.488787 38.681895 
L 294.652873 38.691717 
L 294.816958 38.476834 
L 294.981044 38.691717 
L 295.145129 37.901756 
L 295.309215 38.11664 
L 295.473301 38.534092 
L 295.637386 38.331399 
L 295.801472 38.939516 
L 295.965557 38.560352 
L 296.129643 35.19878 
L 296.293728 34.983897 
L 296.457814 35.19878 
L 296.621899 34.983897 
L 296.95007 34.983897 
L 297.114156 34.778835 
L 297.278241 34.969669 
L 297.606412 33.721888 
L 297.770498 33.926994 
L 297.934583 33.91971 
L 298.098669 33.492436 
L 298.262754 33.492436 
L 298.755011 32.845487 
L 298.919097 32.442308 
L 299.411353 33.479961 
L 299.575439 33.487245 
L 299.739524 33.914519 
L 299.90361 33.914519 
L 300.067695 34.126909 
L 300.395866 35.651961 
L 300.724037 37.127281 
L 301.544465 41.340129 
L 301.872636 44.06219 
L 302.036722 44.957445 
L 302.200807 45.016397 
L 302.364893 45.239046 
L 302.528978 47.674165 
L 302.693064 47.656359 
L 303.021235 48.33241 
L 303.18532 48.107073 
L 303.513491 46.641641 
L 303.677577 46.416305 
L 303.841662 46.436901 
L 304.005748 46.662238 
L 304.169833 44.608769 
L 304.498004 46.562867 
L 304.66209 46.539417 
L 304.826175 48.298296 
L 304.990261 48.298296 
L 305.154347 48.12126 
L 305.318432 50.691656 
L 305.482518 58.925127 
L 305.646603 59.617718 
L 305.810689 58.788082 
L 305.974774 57.18169 
L 306.13886 57.088053 
L 306.302945 59.273036 
L 306.467031 57.478958 
L 306.795202 59.357988 
L 306.959287 57.012929 
L 307.123373 48.316387 
L 307.451544 46.50592 
L 307.779715 48.319177 
L 307.9438 47.647513 
L 308.107886 47.647513 
L 308.600143 44.402563 
L 309.092399 46.14463 
L 309.256485 44.816837 
L 309.748741 39.519102 
L 309.912827 39.314169 
L 310.076912 39.326593 
L 310.240998 38.90173 
L 310.733254 36.317415 
L 310.89734 36.544665 
L 311.225511 37.17231 
L 311.553682 36.749821 
L 311.717768 36.317509 
L 311.881853 36.317509 
L 312.045939 36.908816 
L 312.210024 36.908816 
L 312.37411 37.516723 
L 312.538195 37.084411 
L 312.702281 37.434095 
L 312.866366 37.016647 
L 313.030452 37.23153 
L 313.194537 37.23153 
L 313.358623 38.03772 
L 314.507221 34.974415 
L 314.671307 35.367648 
L 314.835392 35.152765 
L 314.999478 34.551637 
L 315.163564 34.76652 
L 315.327649 35.436438 
L 315.65582 35.436438 
L 315.819906 35.651322 
L 315.983991 35.651322 
L 316.148077 36.259438 
L 316.312162 35.651322 
L 316.804419 35.661143 
L 316.968504 35.001048 
L 317.296675 35.635818 
L 317.460761 35.625996 
L 317.624846 35.84088 
L 317.788932 35.232763 
L 318.117103 35.66253 
L 318.281189 35.66253 
L 318.445274 35.447647 
L 318.60936 35.437825 
L 318.773445 36.781478 
L 318.937531 36.566594 
L 319.265702 36.566594 
L 319.429787 36.781478 
L 319.593873 36.566594 
L 319.757958 37.568192 
L 319.922044 37.353309 
L 320.086129 37.353309 
L 320.250215 37.148247 
L 320.4143 35.384707 
L 320.578386 35.384707 
L 320.906557 34.964762 
L 321.070642 34.964762 
L 321.234728 35.179646 
L 321.398813 35.726704 
L 321.562899 35.726704 
L 321.726985 36.532894 
L 321.89107 36.747777 
L 322.219241 36.747777 
L 322.383327 37.570568 
L 322.547412 37.785451 
L 322.711498 37.785451 
L 322.875583 40.312617 
L 323.039669 38.549077 
L 323.203754 39.93613 
L 323.36784 39.93613 
L 323.531925 40.141134 
L 323.860096 40.141134 
L 324.024182 39.318344 
L 324.188267 39.318344 
L 324.352353 39.75579 
L 324.516438 37.228624 
L 324.680524 37.228624 
L 325.008695 35.035381 
L 325.665037 36.085702 
L 325.829123 35.870818 
L 326.157294 35.003605 
L 326.485465 35.003605 
L 326.64955 35.218488 
L 326.813636 34.781041 
L 327.141807 34.790863 
L 327.305892 35.005689 
L 327.469978 35.425576 
L 327.798149 36.86901 
L 327.962234 37.083894 
L 328.12632 37.083894 
L 328.290406 36.86901 
L 328.454491 36.859188 
L 328.782662 36.441612 
L 328.946748 36.429479 
L 329.439004 35.213353 
L 329.60309 35.213353 
L 329.767175 35.428236 
L 329.931261 35.428236 
L 330.095346 35.223174 
L 330.423517 35.232996 
L 330.587603 35.827255 
L 330.751688 37.775918 
L 331.079859 37.763494 
L 331.243945 37.980922 
L 331.408031 37.980922 
L 331.572116 38.195805 
L 332.064373 40.042117 
L 332.228458 39.459991 
L 332.392544 37.943639 
L 332.556629 38.160996 
L 332.720715 38.768904 
L 332.8848 38.336592 
L 333.048886 39.508762 
L 333.212971 39.293879 
L 333.377057 43.70527 
L 333.541142 42.899387 
L 333.705228 42.672137 
L 333.869313 42.25225 
L 334.033399 43.03642 
L 334.197484 42.819063 
L 334.36157 42.201334 
L 334.525655 43.203348 
L 334.689741 42.424411 
L 334.853827 42.629473 
L 335.017912 37.609964 
L 335.181998 37.600143 
L 335.346083 37.814968 
L 335.510169 37.814968 
L 335.674254 37.220996 
L 335.83834 37.23342 
L 336.002425 37.650868 
L 336.330596 36.255621 
L 336.494682 36.050559 
L 336.658767 36.050559 
L 336.986938 35.640494 
L 337.151024 35.855377 
L 337.64328 34.825242 
L 337.807366 34.610359 
L 337.971452 34.825242 
L 338.463708 37.09128 
L 338.627794 37.308708 
L 338.791879 37.308708 
L 338.955965 37.526136 
L 339.12005 37.958447 
L 339.284136 37.741019 
L 339.448221 38.173331 
L 339.612307 37.958447 
L 339.776392 37.152257 
L 339.940478 36.947254 
L 340.104563 35.907292 
L 340.268649 35.689864 
L 340.432734 35.907292 
L 340.59682 35.689864 
L 340.760905 35.67744 
L 340.924991 35.462557 
L 341.089076 35.030246 
L 341.253162 35.450133 
L 341.417248 37.398796 
L 341.581333 37.183912 
L 341.909504 38.777232 
L 342.07359 38.549982 
L 342.237675 38.742853 
L 342.401761 39.899314 
L 342.565846 40.114198 
L 342.729932 40.114198 
L 342.894017 40.302427 
L 343.058103 38.353765 
L 343.222188 38.353765 
L 343.386274 37.566635 
L 343.550359 37.762458 
L 343.714445 37.77228 
L 343.87853 37.364526 
L 344.042616 36.208065 
L 344.206701 35.993181 
L 344.370787 36.400936 
L 344.534873 36.007702 
L 344.698958 36.212764 
L 344.863044 36.620518 
L 345.027129 39.807425 
L 345.191215 39.225299 
L 345.3553 39.215477 
L 345.519386 39.420538 
L 345.683471 39.420538 
L 345.847557 40.057783 
L 346.011642 40.069916 
L 346.339813 40.465479 
L 346.503899 41.821267 
L 346.667984 38.624539 
L 346.83207 38.409713 
L 346.996155 38.409713 
L 347.160241 38.612406 
L 347.324326 38.600273 
L 347.488412 38.370783 
L 347.652497 38.559012 
L 347.816583 38.559012 
L 347.980669 38.957448 
L 348.144754 38.016696 
L 348.30884 39.602068 
L 348.801096 40.637245 
L 349.129267 41.052362 
L 349.293353 41.052362 
L 349.457438 41.252725 
L 349.621524 41.269326 
L 349.785609 41.054652 
L 349.949695 39.459683 
L 350.277866 39.004325 
L 350.441951 39.204688 
L 350.770122 39.162156 
L 350.934208 38.949935 
L 351.098294 38.949935 
L 351.262379 38.523039 
L 351.426465 38.721112 
L 351.918721 40.293016 
L 352.082807 40.278947 
L 352.246892 41.422139 
L 352.410978 41.436208 
L 352.575063 41.63436 
L 352.903234 42.226409 
L 353.06732 42.028336 
L 353.231405 42.044565 
L 353.559576 41.525112 
L 353.723662 41.32696 
L 353.887747 40.197838 
L 354.051833 39.997475 
L 354.380004 39.219388 
L 354.54409 39.233458 
L 354.708175 39.033096 
L 355.200432 38.002271 
L 355.364517 38.01413 
L 355.692688 37.601478 
L 355.856774 37.813768 
L 356.020859 37.799375 
L 356.184945 37.587154 
L 356.34903 37.773447 
L 356.513116 37.561157 
L 356.841287 37.549298 
L 357.169458 37.124718 
L 357.497629 37.112859 
L 357.989886 36.513913 
L 358.153971 37.514069 
L 358.318057 37.525928 
L 358.974399 38.377553 
L 359.30257 38.389412 
L 359.466655 38.601702 
L 359.630741 38.613561 
L 359.794826 37.825695 
L 359.958912 37.613405 
L 360.287083 37.613405 
L 360.451168 37.401115 
L 360.779339 37.389256 
L 360.943425 37.821283 
L 361.435682 37.184413 
L 361.599767 37.184413 
L 361.763853 36.969658 
L 362.092024 37.370451 
L 362.256109 37.764517 
L 362.420195 37.764517 
L 362.748366 38.524079 
L 363.076537 39.123093 
L 363.240622 39.323524 
L 363.404708 39.323524 
L 363.732879 38.922731 
L 363.896964 38.540524 
L 364.06105 38.755279 
L 364.225136 37.77598 
L 365.045563 37.801909 
L 365.209649 38.970503 
L 365.373734 39.182793 
L 365.53782 39.182793 
L 365.701905 38.968038 
L 365.865991 40.213149 
L 366.030076 40.20129 
L 366.194162 39.989068 
L 366.358247 40.18943 
L 366.686418 40.20129 
L 366.850504 39.020836 
L 367.014589 38.808546 
L 367.34276 39.391116 
L 367.506846 37.933715 
L 367.999103 39.097404 
L 368.491359 39.085545 
L 368.655445 39.297835 
L 368.81953 38.703339 
L 369.147701 38.717731 
L 369.475872 37.759604 
L 369.639958 37.165107 
L 369.804043 37.176966 
L 370.460385 38.202565 
L 370.624471 37.77552 
L 370.788557 37.77552 
L 370.952642 38.173955 
L 371.116728 38.162096 
L 371.280813 39.331275 
L 371.608984 38.918622 
L 371.77307 38.50597 
L 371.937155 39.449824 
L 372.101241 39.037172 
L 372.429412 39.037172 
L 372.593497 38.426447 
L 372.757583 38.438306 
L 372.921668 37.269127 
L 373.085754 37.269127 
L 373.249839 37.056837 
L 373.413925 37.269127 
L 373.57801 35.91262 
L 373.742096 38.524619 
L 373.906181 38.524619 
L 374.070267 38.736909 
L 374.234353 38.736909 
L 374.398438 38.524619 
L 374.562524 38.524619 
L 374.890695 38.949199 
L 375.05478 38.736909 
L 375.218866 38.949199 
L 375.382951 36.54949 
L 375.547037 36.76178 
L 375.711122 36.54949 
L 375.875208 39.411284 
L 376.53155 39.411284 
L 376.695635 39.838329 
L 376.859721 39.838329 
L 377.023806 40.270355 
L 377.351978 40.279952 
L 377.516063 37.215411 
L 377.680149 36.807556 
L 377.844234 36.817153 
L 378.172405 35.994315 
L 378.336491 36.567427 
L 378.500576 36.364734 
L 378.828747 35.109914 
L 378.992833 34.904853 
L 379.156918 34.912137 
L 379.321004 35.556839 
L 379.485089 35.566661 
L 379.81326 36.20876 
L 379.977346 35.635649 
L 380.141431 35.862899 
L 380.305517 35.870183 
L 380.469602 40.472102 
L 380.633688 40.472102 
L 380.797774 40.677164 
L 380.961859 40.459736 
L 381.29003 40.459736 
L 381.946372 38.987521 
L 382.110458 34.385602 
L 382.602714 34.395424 
L 382.7668 34.18054 
L 382.930885 33.753266 
L 383.259056 33.753266 
L 383.423142 33.538383 
L 383.587227 34.146669 
L 383.751313 34.146669 
L 383.915399 33.934278 
L 384.079484 36.032236 
L 384.24357 35.817352 
L 384.407655 36.022414 
L 384.899912 36.022414 
L 385.063997 35.810023 
L 385.228083 35.201737 
L 385.556254 35.201737 
L 385.720339 32.888896 
L 385.884425 32.881612 
L 386.376681 33.904812 
L 386.704852 33.904812 
L 386.868938 34.332086 
L 387.033023 34.332086 
L 387.197109 34.544477 
L 387.361195 34.544477 
L 387.52528 34.766644 
L 387.689366 33.946137 
L 387.853451 33.946137 
L 388.017537 33.538383 
L 388.181622 33.753266 
L 388.345708 34.18054 
L 388.509793 33.753266 
L 388.673879 33.753266 
L 388.837964 34.149162 
L 389.00205 34.149162 
L 389.166135 33.926994 
L 389.330221 33.926994 
L 389.658392 34.356761 
L 389.822477 34.337342 
L 389.986563 33.910068 
L 390.150648 34.122458 
L 390.314734 33.910068 
L 390.47882 33.506888 
L 390.806991 33.514173 
L 391.135162 33.907575 
L 391.299247 33.480301 
L 391.627418 34.287188 
L 392.28376 34.897791 
L 392.447846 34.890507 
L 392.611931 34.678117 
L 392.776017 34.282222 
L 392.940102 34.494612 
L 393.104188 33.909713 
L 393.268273 34.114774 
L 393.432359 39.272917 
L 393.596444 39.272917 
L 393.924616 38.865062 
L 394.252787 39.707374 
L 394.416872 39.494984 
L 394.580958 40.284945 
L 394.909129 39.45004 
L 395.073214 34.096434 
L 395.2373 33.884043 
L 395.401385 34.311317 
L 395.565471 34.304033 
L 395.893642 33.256614 
L 396.057727 33.664469 
L 396.221813 33.069972 
L 396.385898 34.266038 
L 396.549984 34.266038 
L 396.878155 34.886183 
L 397.206326 34.466193 
L 397.534497 34.890974 
L 397.862668 34.280371 
L 398.026754 33.084305 
L 398.190839 33.501757 
L 398.51901 33.086674 
L 398.683096 33.07939 
L 398.847181 33.29178 
L 399.011267 33.29178 
L 399.175352 37.264595 
L 399.667609 37.264595 
L 399.99578 36.854472 
L 400.323951 37.28903 
L 400.652122 36.864249 
L 400.816208 32.891434 
L 400.980293 33.318708 
L 401.144379 33.325992 
L 401.308464 33.531099 
L 401.47255 33.523815 
L 401.636635 33.738698 
L 401.800721 33.526308 
L 401.964806 33.099034 
L 402.292977 33.099034 
L 402.785234 32.452085 
L 402.949319 32.452085 
L 403.113405 32.855264 
L 403.27749 32.42799 
L 403.605662 32.42799 
L 403.769747 32.640381 
L 404.097918 32.640381 
L 404.262004 32.862548 
L 404.426089 33.289822 
L 404.590175 33.084716 
L 404.75426 32.47643 
L 404.918346 32.47643 
L 405.082431 32.688821 
L 405.246517 32.688821 
L 405.410602 33.864044 
L 405.902859 33.854222 
L 406.066944 33.426948 
L 406.395115 33.844445 
L 406.559201 35.977319 
L 406.723286 36.571366 
L 406.887372 37.823718 
L 407.051458 38.013137 
L 407.379629 38.013137 
L 407.543714 37.808076 
L 407.7078 37.808076 
L 408.035971 37.390579 
L 408.364142 34.451267 
L 408.692313 31.621882 
L 409.020484 32.242127 
L 409.184569 32.029737 
L 409.348655 32.234843 
L 409.676826 32.234843 
L 409.840911 33.430909 
L 410.004997 33.643299 
L 410.497254 33.643299 
L 410.661339 33.430909 
L 410.825425 33.858183 
L 410.98951 33.653076 
L 411.153596 33.865467 
L 411.317681 33.865467 
L 411.481767 32.881792 
L 411.974023 32.881792 
L 412.138109 32.686328 
L 412.302194 32.898718 
L 412.46628 32.676551 
L 412.630365 32.676551 
L 412.794451 32.46416 
L 413.122622 32.46416 
L 413.286707 32.25177 
L 413.450793 34.922552 
L 413.614879 34.922552 
L 413.778964 35.354863 
L 413.94305 36.161052 
L 414.107135 36.373398 
L 414.271221 36.79085 
L 414.599392 38.59964 
L 414.763477 38.387249 
L 414.927563 38.59964 
L 415.091648 36.141248 
L 415.255734 36.346355 
L 415.419819 40.971442 
L 415.583905 41.360873 
L 416.076161 40.144312 
L 416.240247 39.14196 
L 416.568418 39.549815 
L 416.732504 39.337425 
L 416.896589 39.344709 
L 417.060675 34.28731 
L 417.388846 35.096988 
L 417.552931 35.096988 
L 417.717017 34.884597 
L 417.881102 35.096988 
L 418.045188 35.089704 
L 418.209273 34.886955 
L 418.70153 34.886955 
L 418.865615 32.881657 
L 419.193786 32.874373 
L 419.357872 33.086764 
L 419.521957 33.961743 
L 419.850128 34.406078 
L 420.014214 34.406078 
L 420.1783 34.193687 
L 420.342385 34.186403 
L 420.670556 34.594258 
L 420.998727 34.169477 
L 421.162813 33.294498 
L 421.326898 35.181349 
L 421.490984 34.959181 
L 421.819155 35.794086 
L 422.147326 35.808654 
L 422.311411 35.400799 
L 422.639582 35.82558 
L 422.803668 35.82558 
L 422.967753 33.723845 
L 423.295925 33.313677 
L 423.46001 32.896225 
L 423.624096 34.260868 
L 423.788181 34.260868 
L 424.280438 34.893204 
L 424.608609 34.893204 
L 424.93678 35.320478 
L 425.100865 35.320478 
L 425.264951 34.170718 
L 425.429036 34.163434 
L 425.593122 33.951044 
L 425.757207 33.941447 
L 425.921293 34.134317 
L 426.085378 34.924278 
L 426.249464 34.916994 
L 426.577635 34.482436 
L 426.741721 34.482436 
L 426.905806 34.055162 
L 427.233977 34.055162 
L 427.562148 33.239553 
L 427.726234 32.449592 
L 428.054405 32.456876 
L 428.21849 32.659625 
L 428.710747 32.666909 
L 428.874832 33.473346 
L 429.038918 33.685737 
L 429.203003 33.678453 
L 429.367089 33.466062 
L 429.859346 33.485481 
L 430.023431 33.697872 
L 430.187517 34.125146 
L 430.679773 33.526308 
L 430.843859 33.533592 
L 431.007944 33.738698 
L 431.17203 33.731414 
L 431.336115 33.936521 
L 431.500201 33.509247 
L 431.664286 33.704711 
L 431.828372 33.685292 
L 431.992457 33.890398 
L 432.156543 33.675515 
L 432.320628 33.675515 
L 432.648799 33.258018 
L 432.812885 33.480185 
L 432.97697 35.063818 
L 433.141056 35.491092 
L 433.633313 34.470276 
L 433.797398 34.470276 
L 433.961484 34.265169 
L 434.125569 36.609312 
L 434.289655 37.254014 
L 434.45374 36.61681 
L 434.617826 35.255345 
L 434.781911 35.033177 
L 435.274168 36.100116 
L 435.438253 36.314999 
L 435.602339 37.17972 
L 435.766424 35.047968 
L 435.93051 34.403266 
L 436.094595 35.030648 
L 436.258681 34.815765 
L 436.422767 35.037932 
L 436.586852 35.460293 
L 436.750938 35.450471 
L 436.915023 35.238081 
L 437.40728 34.143908 
L 437.571365 34.752194 
L 437.899536 40.501367 
L 438.063622 40.286483 
L 438.227707 43.297719 
L 438.391793 43.085374 
L 438.555878 43.29048 
L 438.884049 43.297764 
L 439.048135 45.28252 
L 439.21222 44.674234 
L 439.540391 38.295218 
L 439.704477 38.082828 
L 439.868563 34.434348 
L 440.032648 34.019311 
L 440.360819 35.1062 
L 440.524905 34.893809 
L 440.68899 33.131221 
L 441.181247 34.181054 
L 441.345332 34.393444 
L 441.509418 34.393444 
L 441.673503 34.815765 
L 441.837589 33.951044 
L 442.001674 33.73616 
L 442.16576 33.948551 
L 442.493931 33.528606 
L 442.658016 33.101332 
L 442.822102 34.495669 
L 442.986188 34.710553 
L 443.150273 34.710553 
L 443.314359 36.659215 
L 443.64253 37.494244 
L 443.970701 37.924011 
L 444.134786 37.924011 
L 444.298872 38.341463 
L 444.462957 36.954409 
L 444.627043 36.954409 
L 444.791128 37.169293 
L 444.955214 35.22063 
L 445.119299 35.027759 
L 445.283385 35.027759 
L 445.611556 34.597992 
L 445.775641 34.597992 
L 445.939727 34.812818 
L 446.103812 35.619008 
L 446.267898 35.619008 
L 446.431984 35.404124 
L 446.596069 35.811879 
L 446.92424 35.382112 
L 447.088326 35.789866 
L 447.580582 35.789866 
L 448.072839 36.980284 
L 448.236924 36.777592 
L 448.40101 36.777592 
L 448.565095 38.35394 
L 448.729181 37.946186 
L 448.893266 37.946186 
L 449.057352 38.161069 
L 449.221437 37.956065 
L 449.549609 36.567574 
L 449.713694 36.174341 
L 449.87778 36.40159 
L 450.041865 37.053921 
L 450.205951 35.909884 
L 450.370036 36.114945 
L 451.026378 36.105123 
L 451.354549 36.527613 
L 451.846806 35.430547 
L 452.010891 41.154422 
L 452.174977 41.586734 
L 452.667233 47.158188 
L 452.831319 47.828105 
L 452.995405 47.828105 
L 453.15949 48.480436 
L 453.323576 50.893026 
L 453.487661 51.125469 
L 453.651747 45.848862 
L 453.815832 46.273725 
L 454.144003 42.211687 
L 454.308089 42.609495 
L 454.472174 42.37176 
L 454.800345 42.37176 
L 454.964431 40.391481 
L 455.128516 40.171462 
L 455.292602 40.171462 
L 455.456687 39.7466 
L 455.784858 39.731514 
L 455.948944 38.926433 
L 456.11303 39.146362 
L 456.441201 39.131276 
L 456.933457 40.188461 
L 457.261628 41.990578 
L 457.425714 42.210508 
L 457.589799 42.195422 
L 457.91797 41.553132 
L 458.082056 41.755668 
L 458.246141 42.90543 
L 458.574312 42.861563 
L 458.902483 41.499484 
L 459.230654 41.074621 
L 459.39474 41.29464 
L 459.558826 41.732087 
L 459.722911 41.324617 
L 459.886997 39.749994 
L 460.215168 39.146452 
L 460.379253 39.351295 
L 460.543339 39.131276 
L 460.707424 39.131276 
L 460.87151 39.336209 
L 461.035595 39.11619 
L 461.199681 39.680342 
L 461.527852 39.655494 
L 461.691937 39.45056 
L 461.856023 39.438137 
L 462.348279 38.373485 
L 462.676451 37.938701 
L 462.840536 36.937102 
L 463.004622 36.949526 
L 463.168707 37.152148 
L 463.332793 36.934721 
L 463.496878 37.152078 
L 463.660964 36.924828 
L 463.825049 37.129832 
L 464.15322 37.129832 
L 464.645477 38.915348 
L 464.809562 38.930083 
L 464.973648 39.953027 
L 465.137733 39.748093 
L 465.301819 40.165541 
L 465.794075 46.946617 
L 465.958161 47.428756 
L 466.122247 47.527059 
L 466.286332 47.783988 
L 466.450418 47.799074 
L 466.614503 47.213578 
L 466.778589 47.604057 
L 466.942674 47.196431 
L 467.434931 40.42778 
L 467.599016 40.913283 
L 467.927187 39.585375 
L 468.091273 43.27407 
L 468.255358 49.931473 
L 468.419444 49.761012 
L 468.9117 50.823357 
L 469.075786 51.040714 
L 469.239872 49.670167 
L 469.403957 49.887595 
L 469.568043 49.670238 
L 469.732128 45.951723 
L 469.896214 39.29432 
L 470.060299 39.0743 
L 470.224385 39.659797 
L 470.38847 39.252327 
L 470.552556 39.252327 
L 470.716641 39.437873 
L 471.044812 39.450297 
L 471.208898 41.067478 
L 471.372983 41.319948 
L 471.537069 41.099929 
L 471.701154 41.099929 
L 471.86524 40.882869 
L 472.193411 40.882869 
L 472.357496 40.712409 
L 472.521582 40.712409 
L 472.685668 40.494981 
L 472.849753 41.773206 
L 473.013839 41.535471 
L 473.177924 41.535471 
L 473.34201 41.960334 
L 473.506095 41.15445 
L 473.834266 41.15445 
L 473.998352 43.774529 
L 474.162437 43.774529 
L 474.326523 44.196889 
L 474.490608 41.533927 
L 474.818779 42.217017 
L 474.982865 42.012174 
L 475.14695 42.897606 
L 475.311036 43.117625 
L 475.475121 43.542488 
L 475.639207 40.70239 
L 475.967378 41.329789 
L 476.131464 41.552438 
L 476.295549 41.309296 
L 476.62372 42.117441 
L 476.787806 41.892105 
L 476.951891 42.096948 
L 477.115977 42.114754 
L 477.280062 42.782759 
L 477.608233 42.835763 
L 477.772319 42.613114 
L 477.936404 42.856256 
L 478.264575 42.04811 
L 478.592746 42.193898 
L 478.756832 41.75123 
L 479.085003 54.241677 
L 479.413174 54.651261 
L 479.57726 54.18819 
L 479.741345 54.18819 
L 479.905431 54.575821 
L 480.069516 54.634774 
L 480.397687 55.268395 
L 480.725858 43.452021 
L 480.889944 43.229475 
L 481.546286 43.322721 
L 481.874457 42.447346 
L 482.038542 42.704275 
L 482.202628 44.649133 
L 482.366714 43.274605 
L 482.85897 42.832026 
L 483.023056 43.239299 
L 483.187141 42.996157 
L 483.351227 43.40343 
L 483.679398 42.97867 
L 483.843483 46.087057 
L 484.007569 46.544268 
L 484.171654 46.514447 
L 484.33574 46.294428 
L 484.499825 46.532163 
L 484.663911 46.512521 
L 484.827996 46.307678 
L 484.992082 46.327794 
L 485.156167 46.110367 
L 485.320253 46.110367 
L 485.484338 40.837102 
L 485.648424 39.972266 
L 486.140681 40.667404 
L 486.304766 41.826142 
L 486.468852 41.593699 
L 486.632937 41.818909 
L 486.797023 43.31092 
L 486.961108 43.293114 
L 487.61745 46.20703 
L 487.945621 47.07214 
L 488.109707 48.039306 
L 488.273792 48.241485 
L 488.437878 47.634907 
L 488.766049 48.103127 
L 489.09422 47.496399 
L 489.258306 47.963547 
L 489.422391 48.790369 
L 489.586477 47.461441 
L 489.750562 47.174703 
L 489.914648 46.304838 
L 490.242819 46.737517 
L 490.406904 46.070189 
L 490.899161 46.727805 
L 491.227332 46.660701 
L 491.555503 50.557566 
L 491.719588 53.99375 
L 491.883674 54.341685 
L 492.047759 56.691287 
L 492.211845 56.863739 
L 492.704102 59.55859 
L 492.868187 63.579397 
L 493.032273 62.678286 
L 493.196358 62.570693 
L 493.360444 59.652198 
L 493.524529 59.762875 
L 493.688615 58.308369 
L 493.8527 58.161661 
L 494.344957 55.727838 
L 494.509042 52.434595 
L 494.837213 51.675504 
L 495.001299 52.727408 
L 495.165384 52.727408 
L 495.493556 52.092988 
L 495.657641 53.790582 
L 496.313983 51.598574 
L 496.478069 51.259729 
L 496.642154 49.643787 
L 496.80624 49.673152 
L 497.134411 50.006115 
L 497.298496 48.013493 
L 497.462582 47.507903 
L 497.790753 50.43534 
L 497.954838 51.262162 
L 498.118924 50.797636 
L 498.283009 51.222498 
L 498.447095 50.988818 
L 498.775266 51.290276 
L 498.939352 50.89223 
L 499.103437 51.722304 
L 499.431608 48.175392 
L 499.595694 47.143956 
L 499.759779 49.601328 
L 499.923865 49.222815 
L 500.08795 49.509657 
L 500.252036 48.795548 
L 500.744292 51.700846 
L 500.908378 54.346288 
L 501.072463 54.141815 
L 501.236549 54.49891 
L 501.400634 51.733924 
L 501.56472 51.887509 
L 501.728805 51.34637 
L 501.892891 52.851868 
L 502.221062 50.767684 
L 502.549233 48.228377 
L 502.713319 48.459223 
L 503.04149 48.160954 
L 503.205575 47.501779 
L 503.369661 47.756076 
L 503.533746 46.052601 
L 503.697832 46.728282 
L 503.861917 45.587249 
L 504.026003 45.416789 
L 504.354174 44.749021 
L 504.518259 44.619315 
L 504.682345 46.588755 
L 504.84643 46.640944 
L 505.010516 47.939373 
L 505.174601 47.991562 
L 505.338687 48.684607 
L 505.502773 48.699342 
L 505.666858 48.886793 
L 505.830944 47.74576 
L 505.995029 47.74576 
L 506.159115 47.63014 
L 506.3232 45.886036 
L 506.487286 45.86823 
L 506.651371 44.562544 
L 506.815457 44.295682 
L 506.979542 44.382624 
L 507.143628 45.372158 
L 507.307713 44.940131 
L 507.471799 44.911669 
L 507.635884 46.709256 
L 507.79997 46.978034 
L 507.964055 47.55728 
L 508.128141 47.474205 
L 508.292226 50.163342 
L 508.620398 50.909569 
L 508.784483 50.587721 
L 508.948569 52.438689 
L 509.112654 52.924362 
L 509.27674 51.801601 
L 509.440825 53.78623 
L 509.604911 53.281892 
L 509.768996 54.24267 
L 509.933082 50.397457 
L 510.097167 50.527163 
L 510.261253 49.340132 
L 510.425338 49.568056 
L 510.589424 49.044211 
L 510.753509 49.180973 
L 510.917595 50.730256 
L 511.08168 49.909208 
L 511.409851 49.56582 
L 511.573937 50.721896 
L 511.738022 50.496686 
L 511.902108 50.578809 
L 512.066194 53.544785 
L 512.230279 52.889628 
L 512.394365 52.752866 
L 512.722536 49.819293 
L 512.886621 50.466584 
L 513.050707 50.219145 
L 513.214792 50.243522 
L 513.378878 50.715774 
L 513.542963 52.477902 
L 513.707049 48.374967 
L 513.871134 48.395563 
L 514.03522 48.155624 
L 514.199305 48.153262 
L 514.363391 52.905873 
L 514.527476 51.98894 
L 514.691562 52.440782 
L 514.855647 55.260692 
L 515.019733 54.33123 
L 515.183819 52.261769 
L 515.347904 53.786356 
L 515.51199 53.294157 
L 515.676075 56.783195 
L 515.840161 56.458292 
L 516.004246 51.70568 
L 516.332417 52.700602 
L 516.496503 49.479567 
L 516.824674 50.384763 
L 516.988759 49.792661 
L 517.152845 50.921783 
L 517.31693 47.450138 
L 517.481016 46.43606 
L 517.645101 46.459511 
L 517.809187 46.332695 
L 518.137358 45.691132 
L 518.301443 45.691132 
L 518.629615 47.903385 
L 518.7937 47.623557 
L 518.957786 47.641363 
L 519.121871 49.194131 
L 519.285957 48.298061 
L 519.450042 48.588361 
L 519.614128 47.973151 
L 519.778213 47.920962 
L 519.942299 47.472976 
L 520.27047 43.809241 
L 520.434555 42.771717 
L 520.598641 42.549068 
L 521.090897 45.000798 
L 521.583154 43.420009 
L 521.74724 44.235935 
L 521.911325 43.878285 
L 522.075411 44.333377 
L 522.239496 44.100934 
L 522.403582 42.781434 
L 522.567667 42.569292 
L 522.895838 40.080863 
L 523.059924 39.844016 
L 523.224009 40.049078 
L 523.388095 39.814328 
L 523.55218 43.321356 
L 523.716266 43.83343 
L 523.880351 45.014823 
L 524.044437 44.253324 
L 524.208522 44.482067 
L 524.372608 45.79384 
L 524.700779 51.318372 
L 524.864864 51.328194 
L 525.02895 53.470326 
L 525.193036 53.551499 
L 525.357121 54.935726 
L 525.521207 55.12488 
L 525.685292 55.672152 
L 525.849378 55.486606 
L 526.013463 54.386885 
L 526.341634 50.307895 
L 526.50572 50.525323 
L 526.669805 47.830476 
L 526.833891 47.667711 
L 527.162062 44.32827 
L 527.326147 43.563726 
L 527.490233 44.081759 
L 527.654318 43.499633 
L 527.818404 45.205472 
L 527.982489 44.3754 
L 528.146575 45.519437 
L 528.310661 45.316815 
L 528.474746 42.298849 
L 528.802917 44.382429 
L 528.967003 43.964981 
L 529.131088 44.04753 
L 529.295174 43.842526 
L 529.459259 43.198203 
L 529.623345 44.889905 
L 529.78743 44.353518 
L 529.951516 44.73982 
L 530.115601 44.307793 
L 530.279687 43.410042 
L 530.443772 43.341331 
L 530.771943 43.945109 
L 531.100114 48.167395 
L 531.2642 48.105008 
L 531.428285 47.673163 
L 531.756457 48.19127 
L 531.920542 50.877713 
L 532.084628 50.270373 
L 532.412799 54.162312 
L 532.905055 50.273842 
L 533.069141 51.224953 
L 533.233226 51.020212 
L 533.397312 52.131424 
L 533.561397 50.158168 
L 533.725483 51.065065 
L 534.053654 46.626068 
L 534.217739 48.13803 
L 534.54591 48.129462 
L 534.709996 50.263517 
L 534.874082 50.468258 
L 535.038167 49.744677 
L 535.202253 51.09051 
L 535.366338 50.918336 
L 535.694509 57.943245 
L 535.858595 57.985353 
L 536.186766 63.025909 
L 536.350851 62.471367 
L 536.514937 65.364462 
L 536.679022 66.170571 
L 536.843108 65.312858 
L 537.007193 66.667854 
L 537.171279 65.433509 
L 538.155792 49.653245 
L 538.319878 50.299137 
L 538.812134 46.270491 
L 538.97622 47.457706 
L 539.140305 47.402687 
L 539.304391 47.170244 
L 539.632562 49.772001 
L 539.796647 49.899035 
L 539.960733 48.246854 
L 540.124818 50.04932 
L 540.288904 49.327541 
L 540.452989 49.614279 
L 540.617075 49.329932 
L 540.78116 49.4645 
L 540.945246 50.835047 
L 541.273417 47.785304 
L 541.437503 48.359639 
L 541.601588 47.927613 
L 541.765674 48.404553 
L 542.093845 49.734624 
L 542.25793 49.834373 
L 542.422016 52.04935 
L 542.750187 51.63131 
L 542.914272 52.1746 
L 543.078358 53.736992 
L 543.242443 61.714107 
L 543.406529 61.71411 
L 543.7347 63.925364 
L 544.226956 59.142358 
L 544.391042 60.665238 
L 544.555127 60.569933 
L 544.719213 59.468261 
L 544.883299 51.677438 
L 545.375555 44.141793 
L 545.539641 45.525536 
L 545.703726 45.302887 
L 545.867812 45.71016 
L 546.031897 45.46522 
L 546.195983 46.466638 
L 546.360068 45.304549 
L 547.01641 47.626254 
L 547.180496 46.467847 
L 547.344581 48.557567 
L 547.508667 48.714445 
L 547.672752 48.153653 
L 547.836838 47.131639 
L 548.000924 47.356975 
L 548.165009 47.198868 
L 548.329095 48.974094 
L 548.49318 48.75451 
L 548.821351 51.744032 
L 548.985437 52.485763 
L 549.149522 52.290049 
L 549.313608 54.142065 
L 549.477693 53.868535 
L 549.641779 56.837423 
L 549.805864 57.410569 
L 549.96995 55.912538 
L 550.134035 57.716535 
L 550.298121 57.485266 
L 550.462206 58.70796 
L 550.626292 57.017087 
L 550.790377 58.50779 
L 550.954463 58.507792 
L 551.118548 59.208712 
L 551.282634 58.584883 
L 551.44672 60.671045 
L 551.610805 61.24357 
L 552.103062 58.539184 
L 552.267147 58.481153 
L 552.431233 60.579404 
L 552.595318 60.579402 
L 552.759404 60.152013 
L 552.923489 60.464661 
L 553.415746 58.215806 
L 553.908002 60.849198 
L 554.072088 57.798705 
L 554.236173 58.460091 
L 554.400259 61.238118 
L 554.564345 60.618835 
L 554.72843 59.080508 
L 554.892516 59.759062 
L 555.056601 62.24072 
L 555.220687 60.338308 
L 555.384772 63.950036 
L 555.548858 64.850972 
L 555.712943 66.430485 
L 556.041114 62.571033 
L 556.2052 62.571033 
L 556.369285 63.28078 
L 556.533371 62.985357 
L 556.861542 61.552588 
L 557.189713 54.892353 
L 557.353798 54.151543 
L 557.517884 59.000518 
L 557.681969 60.396993 
L 558.010141 57.827062 
L 558.174226 59.927033 
L 558.338312 59.957708 
L 558.502397 61.547133 
L 558.666483 61.088198 
L 558.994654 65.178259 
L 559.158739 61.375793 
L 559.322825 60.254312 
L 559.48691 60.187209 
L 559.650996 59.982736 
L 559.815081 59.5752 
L 559.979167 58.277444 
L 560.143252 59.053674 
L 560.307338 58.878024 
L 560.471423 57.450398 
L 560.799594 53.873611 
L 560.96368 53.754372 
L 561.127766 54.117825 
L 561.291851 56.742671 
L 561.455937 53.991054 
L 561.620022 53.991054 
L 561.784108 53.287729 
L 562.112279 57.831738 
L 562.276364 57.474642 
L 562.604535 55.173763 
L 562.768621 57.154457 
L 562.932706 54.50616 
L 563.424963 55.972949 
L 563.753134 49.909462 
L 563.917219 51.588868 
L 564.081305 51.770584 
L 564.24539 52.754828 
L 564.409476 52.49021 
L 564.573562 53.03135 
L 564.737647 54.953609 
L 564.901733 55.169949 
L 565.065818 53.100488 
L 565.229904 53.725281 
L 565.393989 53.300423 
L 565.558075 53.538526 
L 565.72216 56.426211 
L 565.886246 55.715497 
L 566.214417 52.079381 
L 566.542588 49.103773 
L 566.706673 49.625333 
L 566.870759 48.551121 
L 567.034844 48.568927 
L 567.363015 45.216591 
L 567.527101 45.237187 
L 567.691187 45.459836 
L 568.019358 44.614921 
L 568.183443 46.700168 
L 568.347529 46.158492 
L 568.6757 49.806857 
L 568.839785 50.032193 
L 569.167956 50.827114 
L 569.332042 56.298257 
L 569.496127 57.518811 
L 569.824298 57.539407 
L 569.988384 58.673616 
L 570.152469 57.068732 
L 570.48064 60.004121 
L 570.644726 57.352018 
L 570.808811 57.582865 
L 570.972897 54.467191 
L 571.136983 53.637117 
L 571.301068 56.063883 
L 571.629239 54.268883 
L 571.793325 56.527693 
L 572.121496 52.935174 
L 572.285581 53.276677 
L 572.449667 52.817765 
L 572.613752 50.687633 
L 572.777838 50.965158 
L 572.941923 48.920042 
L 573.106009 49.468782 
L 573.270094 50.851404 
L 573.43418 48.129522 
L 573.598265 47.350586 
L 573.762351 47.16887 
L 574.090522 48.160246 
L 574.418693 47.640783 
L 574.582779 49.642598 
L 574.91095 47.26928 
L 575.239121 52.180484 
L 575.403206 52.385099 
L 575.731377 55.326822 
L 575.895463 61.143457 
L 576.059548 62.061385 
L 576.223634 60.084714 
L 576.387719 60.233969 
L 576.551805 59.601839 
L 576.71589 61.018912 
L 576.879976 60.259809 
L 577.044061 60.920271 
L 577.208147 59.932188 
L 577.372232 61.874406 
L 577.536318 55.903911 
L 577.864489 57.967077 
L 578.028575 58.72069 
L 578.19266 61.035093 
L 578.520831 57.657239 
L 578.684917 57.149259 
L 578.849002 55.544376 
L 579.013088 52.350474 
L 579.177173 52.757747 
L 579.341259 52.02095 
L 579.66943 53.262761 
L 579.997601 50.451916 
L 580.161686 50.826547 
L 580.325772 50.175325 
L 580.489857 51.176744 
L 580.653943 50.746793 
L 580.818029 51.968218 
L 580.982114 50.969222 
L 581.1462 49.167879 
L 581.310285 49.093155 
L 581.474371 48.64517 
L 581.638456 49.940396 
L 581.802542 52.601859 
L 581.966627 52.895985 
L 582.294798 54.565008 
L 582.458884 53.384296 
L 582.622969 53.20258 
L 582.787055 53.245769 
L 582.95114 52.065084 
L 583.115226 52.269928 
L 583.279311 52.966519 
L 583.443397 51.682752 
L 583.607482 51.662156 
L 583.771568 50.97866 
L 583.935653 50.95521 
L 584.42791 55.0063 
L 584.591996 55.356993 
L 584.756081 58.104418 
L 584.920167 57.336489 
L 585.084252 55.607612 
L 585.248338 55.809924 
L 585.412423 54.609483 
L 585.576509 54.404868 
L 586.232851 49.081801 
L 586.396936 47.671015 
L 587.217364 51.224041 
L 587.38145 51.428655 
L 587.545535 51.871323 
L 587.709621 52.800477 
L 587.873706 52.549655 
L 588.037792 51.456159 
L 588.201877 48.911542 
L 588.365963 48.536273 
L 588.530048 48.536273 
L 588.694134 50.929654 
L 588.858219 50.389426 
L 589.18639 51.155902 
L 589.350476 51.075095 
L 589.514561 50.668042 
L 589.678647 50.849758 
L 589.842732 52.273613 
L 590.006818 52.449262 
L 590.170903 51.377113 
L 590.499074 50.802904 
L 590.66316 50.05715 
L 591.155417 49.983349 
L 591.319502 49.801633 
L 591.647673 48.332799 
L 591.811759 49.942341 
L 591.975844 50.19257 
L 592.13993 52.122283 
L 592.468101 58.656069 
L 592.632186 59.378396 
L 592.796272 59.378396 
L 592.960357 58.900589 
L 593.124443 61.319565 
L 593.288528 60.69949 
L 593.452614 59.440319 
L 593.616699 57.256482 
L 593.780785 56.700959 
L 594.108956 51.812236 
L 594.273042 49.837557 
L 594.437127 51.667777 
L 594.601213 56.859141 
L 594.765298 55.494389 
L 595.093469 61.044166 
L 595.257555 60.355174 
L 595.42164 58.916935 
L 595.585726 60.384648 
L 595.749811 58.504118 
L 595.913897 60.226967 
L 596.077982 58.622084 
L 596.242068 53.6144 
L 596.406153 52.153383 
L 596.570239 51.794824 
L 596.734324 49.803782 
L 597.062495 48.857995 
L 597.226581 46.957744 
L 597.390667 49.124757 
L 597.718838 47.619691 
L 597.882923 47.913817 
L 598.047009 48.520395 
L 598.37518 45.243005 
L 598.703351 45.913411 
L 598.867436 45.670268 
L 599.031522 44.435587 
L 599.195607 44.184765 
L 599.359693 46.338344 
L 599.523778 46.719994 
L 599.687864 49.254209 
L 600.016035 48.749098 
L 600.18012 49.39283 
L 600.344206 49.170181 
L 600.508292 50.02452 
L 600.672377 49.067631 
L 600.836463 50.098441 
L 601.328719 44.557563 
L 601.492805 46.676074 
L 601.65689 46.711272 
L 601.820976 45.41494 
L 601.985061 45.637589 
L 602.313232 48.893403 
L 602.477318 48.86159 
L 602.641403 49.099793 
L 602.805489 50.973728 
L 603.13366 48.736804 
L 603.461831 47.846868 
L 603.625916 48.051608 
L 604.118173 45.126908 
L 604.282259 47.780851 
L 604.446344 45.848633 
L 604.61043 47.560498 
L 604.774515 47.721389 
L 604.938601 47.484542 
L 605.102686 48.454704 
L 605.266772 48.340732 
L 605.594943 44.651778 
L 605.759028 45.949752 
L 605.923114 43.656974 
L 606.087199 45.696788 
L 606.41537 42.474991 
L 606.579456 42.711838 
L 606.743541 41.956501 
L 607.071713 43.495544 
L 607.235798 43.495544 
L 607.399884 41.567777 
L 607.563969 41.406892 
L 607.728055 39.612812 
L 607.89214 40.573152 
L 608.056226 40.548595 
L 608.220311 41.853523 
L 608.384397 42.256427 
L 608.548482 39.942302 
L 608.712568 39.754072 
L 608.876653 39.959076 
L 609.040739 39.96636 
L 609.204824 41.626507 
L 609.36891 41.394843 
L 609.697081 42.203617 
L 609.861166 40.681262 
L 610.025252 40.290782 
L 610.189337 40.503173 
L 610.353423 40.298169 
L 610.517509 40.530612 
L 610.681594 40.962923 
L 610.84568 39.074033 
L 611.009765 38.861811 
L 611.337936 36.675121 
L 611.502022 36.460237 
L 611.666107 36.460237 
L 611.830193 38.250671 
L 611.994278 38.028504 
L 612.158364 37.376173 
L 612.322449 37.581106 
L 612.486535 36.987059 
L 612.65062 37.199281 
L 612.814706 36.994219 
L 612.978791 37.209103 
L 613.142877 37.80315 
L 613.471048 36.755628 
L 613.635134 37.195223 
L 613.963305 43.488679 
L 614.619647 43.474276 
L 614.783732 42.667838 
L 614.947818 42.455447 
L 615.111903 42.832195 
L 615.275989 43.595505 
L 615.60416 37.685878 
L 615.768245 37.871965 
L 616.096416 41.233028 
L 616.588673 45.363564 
L 616.752758 44.40564 
L 616.916844 45.027955 
L 617.245015 44.204659 
L 617.409101 44.204659 
L 617.737272 40.008697 
L 617.901357 39.238101 
L 618.065443 39.291296 
L 618.229528 40.449998 
L 618.393614 40.070834 
L 618.557699 41.232122 
L 618.88587 41.249228 
L 619.049956 41.495452 
L 619.378127 43.675603 
L 619.542212 43.081556 
L 619.870383 40.817581 
L 620.034469 41.010451 
L 620.198555 38.653737 
L 620.36264 38.846608 
L 620.526726 39.278919 
L 620.690811 38.634217 
L 620.854897 40.194735 
L 621.018982 39.625033 
L 621.183068 41.697396 
L 621.83941 40.022749 
L 622.167581 39.612451 
L 622.331666 40.418888 
L 622.823923 37.99127 
L 622.988008 38.370434 
L 623.152094 38.169947 
L 623.316179 38.362818 
L 623.480265 39.534988 
L 623.644351 39.69308 
L 623.808436 40.613966 
L 623.972522 40.439805 
L 624.136607 38.463875 
L 624.300693 42.068473 
L 624.464778 42.593335 
L 624.628864 44.978511 
L 624.792949 45.178998 
L 624.957035 44.986127 
L 625.285206 43.607755 
L 625.449291 44.573721 
L 625.613377 44.368717 
L 625.777462 46.682842 
L 625.941548 43.078244 
L 626.269719 41.3605 
L 626.433804 41.174413 
L 626.59789 42.176011 
L 626.761976 41.581964 
L 626.926061 42.009238 
L 627.090147 40.339815 
L 627.254232 40.339815 
L 627.418318 38.23808 
L 627.582403 38.670391 
L 627.746489 38.452964 
L 627.910574 36.896396 
L 628.07466 37.111279 
L 628.402831 38.280847 
L 628.566916 40.197716 
L 628.731002 40.402649 
L 628.895087 40.373853 
L 629.223258 41.216031 
L 629.387344 41.433459 
L 629.551429 41.228525 
L 629.715515 42.334927 
L 629.8796 40.757474 
L 630.043686 40.542719 
L 630.207772 38.606431 
L 630.371857 39.946658 
L 630.700028 39.125819 
L 630.864114 39.363554 
L 631.192285 39.35113 
L 631.35637 38.4376 
L 631.520456 39.272279 
L 631.684541 39.501769 
L 631.848627 41.438057 
L 632.012712 39.880473 
L 632.176798 41.268087 
L 632.340883 41.705534 
L 632.504969 41.410851 
L 632.83314 41.362302 
L 632.997225 41.606878 
L 633.161311 40.586111 
L 633.325397 40.771657 
L 633.489482 38.854788 
L 633.653568 38.434901 
L 633.817653 37.474561 
L 633.981739 37.459475 
L 634.473995 36.457081 
L 634.638081 35.587565 
L 634.802166 35.375174 
L 634.966252 35.962357 
L 635.130337 35.726122 
L 635.294423 36.133876 
L 635.786679 34.663596 
L 635.950765 35.665609 
L 636.11485 35.047825 
L 636.443021 47.380327 
L 636.607107 46.390242 
L 636.771193 47.201554 
L 636.935278 48.895534 
L 637.427535 50.293822 
L 637.59162 49.724119 
L 637.755706 49.929254 
L 637.919791 46.465902 
L 638.083877 38.788126 
L 638.247962 39.020569 
L 638.412048 38.013422 
L 638.576133 35.911687 
L 638.740219 35.7256 
L 638.904304 36.329473 
L 639.232475 35.090724 
L 639.396561 35.30791 
L 639.560646 33.694397 
L 639.724732 33.493953 
L 639.888818 32.834339 
L 640.216989 32.827055 
L 640.381074 33.041938 
L 640.709245 32.039591 
L 640.873331 32.254474 
L 641.037416 32.240075 
L 641.529673 33.724372 
L 641.857844 34.596037 
L 642.021929 34.96145 
L 642.186015 34.543998 
L 642.3501 34.961445 
L 642.514186 34.116724 
L 642.842357 34.107238 
L 643.006442 33.894847 
L 643.334614 32.612901 
L 643.498699 32.830329 
L 643.662785 32.242748 
L 643.82687 33.983266 
L 643.990956 34.41054 
L 644.483212 38.621109 
L 644.647298 38.408808 
L 644.975469 40.642366 
L 645.139554 39.997664 
L 645.30364 40.200412 
L 645.467725 38.672285 
L 645.631811 38.853297 
L 645.795896 40.085879 
L 646.124067 37.158885 
L 646.288153 37.788637 
L 646.452239 35.557519 
L 646.78041 38.564221 
L 646.944495 37.946436 
L 647.108581 39.474563 
L 647.272666 38.653977 
L 647.436752 37.16191 
L 647.764923 37.14514 
L 647.929008 36.932795 
L 648.093094 37.562633 
L 648.421265 33.923654 
L 648.58535 34.551036 
L 648.749436 33.001557 
L 648.913521 33.63131 
L 649.077607 33.265897 
L 649.241692 33.495179 
L 649.405778 34.500167 
L 649.898035 35.101394 
L 650.06212 35.096598 
L 650.226206 34.679146 
L 650.390291 34.700497 
L 650.554377 34.27825 
L 650.882548 34.676125 
L 651.046633 33.883437 
L 651.210719 35.239944 
L 651.53889 34.209216 
L 651.702975 34.214012 
L 651.867061 34.641286 
L 652.031146 34.4241 
L 652.195232 34.428895 
L 652.523403 32.961747 
L 652.687488 33.174138 
L 652.851574 32.259411 
L 653.179745 37.06695 
L 653.343831 37.931671 
L 654.164258 51.038401 
L 654.328344 50.82601 
L 654.492429 52.232382 
L 654.656515 49.468042 
L 654.984686 47.6246 
L 655.641028 36.859864 
L 655.805113 37.087114 
L 655.969199 38.399821 
L 656.29737 36.768711 
L 656.461456 36.553828 
L 656.625541 36.976148 
L 656.789627 36.56111 
L 656.953712 36.56111 
L 657.117798 35.68613 
L 657.281883 36.118442 
L 657.77414 34.613684 
L 658.102311 35.040958 
L 658.594567 36.535374 
L 658.922738 36.105555 
L 659.086824 36.105555 
L 659.250909 36.296389 
L 659.579081 35.404484 
L 659.743166 34.972414 
L 659.907252 37.347566 
L 660.235423 36.693271 
L 660.563594 39.070556 
L 660.727679 39.070556 
L 661.05585 43.821034 
L 661.384021 44.207908 
L 661.548107 41.615328 
L 661.712192 42.178449 
L 661.876278 46.319879 
L 662.204449 43.505834 
L 662.368534 43.904312 
L 662.696705 38.541123 
L 663.024877 38.583826 
L 663.188962 40.261856 
L 663.353048 38.873433 
L 663.517133 34.305064 
L 663.681219 34.300269 
L 663.845304 35.470359 
L 664.00939 35.680167 
L 664.173475 36.247019 
L 664.337561 36.26837 
L 664.501646 36.055979 
L 664.665732 36.87877 
L 664.829817 34.563537 
L 665.157988 35.388948 
L 665.322074 36.396095 
L 665.81433 34.048415 
L 666.142502 35.250749 
L 666.306587 34.005638 
L 666.470673 35.008255 
L 666.634758 35.008255 
L 666.798844 34.814883 
L 667.2911 42.280111 
L 667.455186 43.054209 
L 667.619271 42.037841 
L 667.783357 42.294276 
L 667.947442 43.100902 
L 668.111528 42.308215 
L 668.275613 43.294704 
L 668.439699 43.084802 
L 668.603784 39.150652 
L 668.76787 37.995374 
L 668.931955 35.268826 
L 669.096041 34.699789 
L 669.260126 34.909719 
L 669.588298 33.441107 
L 669.752383 33.653498 
L 669.916469 32.457079 
L 670.080554 32.457079 
L 670.24464 33.089357 
L 670.408725 33.089357 
L 670.736896 32.457022 
L 671.065067 33.505063 
L 671.229153 33.299957 
L 671.557324 32.4626 
L 671.721409 32.257466 
L 672.377751 30.78542 
L 672.541837 30.737415 
L 672.705923 30.53689 
L 673.198179 36.142714 
L 673.362265 41.266978 
L 673.854521 42.871524 
L 674.018607 44.083805 
L 674.182692 43.487109 
L 674.346778 43.496594 
L 674.510863 41.610319 
L 674.674949 55.269857 
L 674.839034 54.862002 
L 675.00312 49.737737 
L 675.331291 48.55064 
L 675.495376 48.12832 
L 675.659462 47.125968 
L 675.823547 49.231272 
L 676.151719 50.256738 
L 676.315804 34.936332 
L 676.643975 37.871711 
L 676.808061 38.289163 
L 677.136232 39.675174 
L 677.300317 39.670378 
L 677.464403 38.18522 
L 677.792574 37.178772 
L 678.120745 35.979762 
L 678.28483 35.77707 
L 678.448916 35.359618 
L 678.777087 34.178713 
L 678.941172 35.717184 
L 679.269344 35.075688 
L 679.433429 35.269059 
L 679.597515 35.886844 
L 679.7616 33.93572 
L 679.925686 33.916746 
L 680.253857 35.754499 
L 680.417942 35.959633 
L 680.582028 34.008509 
L 680.746113 35.557988 
L 681.074284 35.145201 
L 681.23837 35.357491 
L 681.402455 36.77729 
L 681.566541 35.961364 
L 681.894712 34.095513 
L 682.222883 35.565383 
L 682.386968 33.82007 
L 682.551054 33.614923 
L 682.71514 35.340834 
L 683.043311 33.508408 
L 683.207396 33.925856 
L 683.371482 33.928227 
L 683.535567 33.328988 
L 683.699653 32.269423 
L 683.863738 32.936153 
L 684.027824 32.5235 
L 684.191909 32.5235 
L 684.355995 30.594802 
L 684.52008 32.910036 
L 684.684166 32.910036 
L 684.848251 33.122426 
L 685.340508 34.138755 
L 685.504593 33.064105 
L 685.668679 33.679544 
L 685.99685 33.68434 
L 686.160936 31.777027 
L 686.325021 31.777027 
L 686.489107 31.564637 
L 686.653192 30.949197 
L 686.817278 30.949197 
L 686.981363 31.357119 
L 687.145449 31.354748 
L 687.309534 30.946827 
L 687.47362 31.562266 
L 687.637705 31.349965 
L 687.801791 33.230294 
L 688.129962 33.230294 
L 688.458133 33.852754 
L 688.622218 33.649967 
L 688.786304 33.852782 
L 688.950389 35.258777 
L 689.114475 35.646152 
L 689.278561 37.575641 
L 689.442646 35.28502 
L 689.606732 35.881717 
L 689.770817 35.671787 
L 690.098988 36.330471 
L 690.263074 36.330471 
L 690.427159 37.174856 
L 690.75533 36.778392 
L 690.919416 35.705905 
L 691.083501 36.335658 
L 691.247587 35.951352 
L 691.411672 36.578733 
L 691.739843 35.31902 
L 691.903929 35.323816 
L 692.396186 33.082687 
L 692.560271 36.091749 
L 692.888442 35.042047 
L 693.052528 35.013904 
L 693.380699 35.988677 
L 693.70887 36.792812 
L 693.872955 36.792812 
L 694.037041 42.219144 
L 694.201126 38.147933 
L 694.529297 38.956823 
L 694.693383 38.150066 
L 694.857468 38.164465 
L 695.021554 37.385223 
L 695.185639 39.102651 
L 695.349725 43.482876 
L 695.51381 43.695266 
L 695.677896 38.268935 
L 695.841982 38.268935 
L 696.006067 38.0731 
L 696.170153 38.273587 
L 696.334238 38.273587 
L 696.498324 39.2218 
L 696.662409 38.804352 
L 696.826495 36.072779 
L 696.99058 31.485116 
L 697.154666 30.855277 
L 697.318751 35.300481 
L 697.482837 35.713133 
L 697.811008 34.692073 
L 697.975093 34.899591 
L 698.139179 33.526686 
L 698.303264 33.939339 
L 698.46735 33.939339 
L 698.631435 33.7483 
L 698.795521 33.7483 
L 698.959607 29.505911 
L 699.287778 30.135677 
L 699.451863 30.345606 
L 699.615949 30.345606 
L 699.780034 31.364345 
L 699.94412 31.159211 
L 700.108205 31.567173 
L 700.272291 32.346415 
L 700.436376 32.346415 
L 700.600462 32.145971 
L 700.764547 31.311071 
L 700.928633 31.516206 
L 701.256804 31.516206 
L 701.420889 30.709768 
L 701.584975 30.709768 
L 701.74906 30.92436 
L 701.913146 30.343109 
L 702.077231 30.965664 
L 702.241317 30.965664 
L 702.405403 31.968477 
L 702.569488 31.760972 
L 702.733574 31.756177 
L 702.897659 32.937081 
L 703.061745 32.724781 
L 703.22583 33.799431 
L 703.389916 33.384395 
L 703.554001 33.613678 
L 703.718087 33.19627 
L 703.882172 33.804678 
L 704.046258 32.801864 
L 704.210343 32.801864 
L 704.374429 32.389212 
L 704.538514 31.000789 
L 704.7026 31.42548 
L 704.866685 30.555964 
L 705.030771 30.761098 
L 705.194856 29.916377 
L 705.358942 30.555951 
L 705.523028 29.740025 
L 705.687113 29.947544 
L 706.17937 34.078621 
L 706.343455 33.65393 
L 706.507541 33.64924 
L 706.671626 33.845074 
L 706.835712 33.845074 
L 706.999797 33.4178 
L 707.163883 38.394131 
L 707.327968 38.599265 
L 707.820225 35.095524 
L 708.148396 35.10501 
L 708.476567 37.325904 
L 708.640652 37.325904 
L 708.804738 32.762226 
L 708.968824 34.690924 
L 709.132909 34.273476 
L 709.296995 34.271105 
L 709.46108 34.693425 
L 709.625166 34.695796 
L 709.789251 34.485867 
L 710.117422 32.073933 
L 710.445593 35.921411 
L 710.609679 33.580061 
L 710.773764 34.405363 
L 711.266021 33.775512 
L 711.758277 33.775512 
L 712.086449 29.303081 
L 712.250534 29.918521 
L 712.41462 29.300736 
L 712.578705 29.718184 
L 712.906876 30.928319 
L 713.235047 31.33624 
L 713.727304 32.385897 
L 713.891389 31.977976 
L 714.383646 32.47233 
L 714.547731 33.073822 
L 714.711817 32.656374 
L 714.875902 34.920668 
L 715.039988 35.111708 
L 715.204073 34.689387 
L 715.368159 34.894522 
L 715.532245 34.687004 
L 715.69633 38.621154 
L 715.860416 39.569367 
L 716.188587 37.273054 
L 716.352672 37.690502 
L 716.516758 35.015915 
L 716.844929 35.037267 
L 717.009014 34.832132 
L 717.1731 35.461971 
L 717.337185 31.110373 
L 717.501271 30.16216 
L 717.829442 30.787125 
L 717.993527 30.985117 
L 718.157613 30.77997 
L 718.321698 34.591453 
L 718.485784 35.228657 
L 718.64987 35.021139 
L 718.813955 35.021139 
L 719.306212 35.646109 
L 719.470297 35.438591 
L 719.634383 34.823151 
L 719.798468 36.211574 
L 719.962554 32.1877 
L 720.126639 32.168281 
L 720.290725 33.45045 
L 720.618896 32.613094 
L 720.782981 32.190846 
L 720.947067 32.176447 
L 721.111152 32.806285 
L 721.275238 32.806285 
L 721.603409 31.413067 
L 721.767494 30.795283 
L 721.93158 29.720632 
L 722.259751 30.541246 
L 723.080179 28.678182 
L 723.736521 30.121336 
L 723.900606 29.91383 
L 724.228777 29.911459 
L 724.556948 30.324125 
L 724.885119 34.650143 
L 725.213291 35.426768 
L 726.033718 36.469723 
L 726.197804 36.469723 
L 726.525975 32.565816 
L 726.69006 33.98553 
L 726.854146 34.186016 
L 727.018231 34.186016 
L 727.346402 34.844571 
L 727.510488 35.665158 
L 727.674573 35.464714 
L 727.838659 35.872635 
L 728.002744 35.457599 
L 728.16683 35.667529 
L 728.330915 33.473717 
L 728.495001 34.235842 
L 728.659087 36.093322 
L 728.823172 35.2486 
L 728.987258 35.03621 
L 729.151343 34.010476 
L 729.315429 34.010476 
L 729.971771 35.44228 
L 730.135856 35.534028 
L 730.299942 33.039345 
L 730.464027 33.039345 
L 730.792198 34.301632 
L 730.956284 34.709553 
L 731.120369 35.830046 
L 731.284455 36.021085 
L 731.44854 35.593811 
L 731.612626 38.964079 
L 731.776712 37.909718 
L 731.940797 39.090623 
L 732.104883 39.090623 
L 732.268968 38.031059 
L 732.433054 38.233845 
L 732.597139 40.291861 
L 732.761225 38.787062 
L 733.089396 38.176164 
L 733.253481 33.780162 
L 733.417567 33.372241 
L 733.745738 39.167407 
L 734.073909 39.160455 
L 734.237994 36.694518 
L 734.40208 36.06468 
L 734.566165 36.27461 
L 735.058422 37.326768 
L 735.222508 38.800079 
L 735.386593 36.334142 
L 735.550679 36.534586 
L 735.714764 36.133617 
L 735.87885 36.940244 
L 736.042935 36.940244 
L 736.207021 37.367518 
L 736.371106 37.150332 
L 736.535192 37.534637 
L 736.699277 37.327119 
L 736.863363 32.625843 
L 737.355619 32.635329 
L 737.519705 34.323386 
L 737.68379 34.323386 
L 737.847876 34.108502 
L 738.011961 34.113298 
L 738.176047 33.70764 
L 738.340133 33.915159 
L 738.668304 33.232228 
L 738.832389 39.249809 
L 738.996475 39.454943 
L 739.16056 40.051725 
L 739.488731 44.137815 
L 739.652817 44.128329 
L 739.816902 43.72736 
L 739.980988 43.93729 
L 740.145073 43.547981 
L 740.309159 44.373283 
L 740.473244 38.568094 
L 740.63733 38.36296 
L 741.129586 32.672367 
L 741.457757 33.741591 
L 741.621843 33.953982 
L 741.785929 34.746669 
L 742.1141 33.706564 
L 742.278185 33.706564 
L 742.606356 32.424659 
L 742.770442 32.424659 
L 742.934527 31.570027 
L 743.098613 31.562912 
L 743.262698 31.345726 
L 743.426784 30.135591 
L 743.590869 31.879197 
L 743.754955 31.876826 
L 743.91904 31.669307 
L 744.083126 31.669307 
L 744.247211 31.457007 
L 744.739468 31.450054 
L 745.067639 33.270547 
L 745.231725 31.319423 
L 745.39581 31.319423 
L 745.888067 33.006708 
L 746.052152 34.583741 
L 746.380323 34.590693 
L 746.544409 33.619718 
L 747.036665 37.567018 
L 747.200751 37.354627 
L 747.693007 34.720107 
L 748.185264 34.720107 
L 748.677521 29.928086 
L 748.841606 29.928086 
L 749.005692 30.138016 
L 749.169777 31.163749 
L 749.333863 30.958643 
L 749.497948 31.168572 
L 749.662034 30.760651 
L 749.826119 30.760651 
L 749.990205 31.383206 
L 750.15429 31.385577 
L 750.318376 31.590724 
L 750.482461 34.368624 
L 750.646547 34.363829 
L 751.466975 35.163747 
L 751.63106 34.746339 
L 751.795146 34.746339 
L 751.959231 36.326309 
L 752.123317 33.937717 
L 752.287402 34.331821 
L 752.451488 33.329204 
L 752.615573 33.32192 
L 752.779659 34.133153 
L 752.943744 33.923224 
L 753.10783 33.515302 
L 753.271915 33.925595 
L 753.436001 33.923224 
L 753.600086 32.55076 
L 753.764172 35.145121 
L 753.928257 34.543512 
L 754.092343 34.543512 
L 754.420514 33.513077 
L 754.748685 34.322245 
L 755.076856 33.709177 
L 755.240942 33.501672 
L 755.405027 30.513206 
L 755.733198 30.515577 
L 755.897284 30.308059 
L 756.225455 29.310263 
L 756.38954 29.310263 
L 756.553626 29.732583 
L 756.717711 33.59881 
L 756.881797 33.601181 
L 757.045882 34.385219 
L 757.209968 34.385219 
L 757.374053 36.673469 
L 757.538139 36.673469 
L 758.030396 37.284085 
L 758.194481 36.859394 
L 758.358567 33.410615 
L 758.522652 34.20591 
L 758.686738 33.00922 
L 758.850823 33.00922 
L 759.014909 31.14329 
L 759.34308 31.140919 
L 759.507165 30.725883 
L 759.671251 31.876051 
L 759.999422 31.873627 
L 760.163507 32.865294 
L 760.327593 33.072812 
L 760.491678 34.075429 
L 760.655764 33.858243 
L 760.983935 34.483196 
L 761.14802 35.871264 
L 761.312106 34.105656 
L 761.476192 34.506625 
L 761.640277 34.093973 
L 761.804363 32.934392 
L 761.968448 33.923564 
L 762.296619 33.321849 
L 762.460705 33.11192 
L 762.62479 32.699267 
L 762.788876 31.910438 
L 762.952961 32.525878 
L 763.117047 32.325353 
L 763.281132 32.940792 
L 763.773389 31.33131 
L 764.265645 31.33131 
L 764.757902 30.331265 
L 764.921988 30.128478 
L 765.086073 30.130849 
L 765.250159 31.443556 
L 765.414244 31.245564 
L 765.57833 31.670255 
L 765.742415 31.667884 
L 766.070586 33.464162 
L 766.398757 36.212755 
L 766.562843 35.800103 
L 766.726928 35.800103 
L 766.891014 34.876705 
L 767.055099 34.867219 
L 767.38327 36.227413 
L 767.547356 36.208867 
L 767.711441 35.834589 
L 768.039613 32.67333 
L 768.203698 33.480087 
L 768.367784 33.680531 
L 768.531869 35.369542 
L 768.695955 35.369542 
L 768.86004 33.981119 
L 769.024126 33.59181 
L 769.188211 34.494612 
L 769.352297 33.897916 
L 769.680468 34.928432 
L 770.008639 34.326822 
L 770.172724 31.831054 
L 770.33681 31.63061 
L 770.500895 35.660277 
L 770.664981 36.049586 
L 770.829066 35.342841 
L 771.157238 40.389906 
L 771.321323 39.97487 
L 771.485409 40.189463 
L 771.649494 39.984315 
L 771.81358 40.189463 
L 771.977665 40.590431 
L 772.141751 37.79872 
L 772.469922 36.618988 
L 772.798093 33.096053 
L 772.962178 34.170703 
L 773.126264 34.364075 
L 773.290349 34.364075 
L 773.454435 36.500278 
L 773.61852 36.514345 
L 773.782606 36.33854 
L 773.946691 37.183262 
L 774.274862 36.736793 
L 774.438948 36.845489 
L 774.767119 35.160047 
L 774.931205 35.367565 
L 775.09529 34.029028 
L 775.259376 34.213231 
L 775.423461 33.358599 
L 775.587547 33.136432 
L 775.751632 33.136432 
L 775.915718 32.93844 
L 776.079803 31.324927 
L 776.243889 31.534829 
L 776.407974 31.952277 
L 776.57206 31.952277 
L 776.736145 31.572017 
L 777.064316 31.609982 
L 777.228402 32.492246 
L 777.556573 31.867293 
L 777.720659 32.074811 
L 777.884744 31.452256 
L 778.04883 32.985932 
L 778.212915 33.386901 
L 778.377001 33.394185 
L 778.541086 33.746153 
L 778.705172 33.746153 
L 778.869257 32.649298 
L 779.033343 37.928808 
L 779.197428 38.131623 
L 779.361514 38.131623 
L 779.525599 40.148514 
L 779.689685 38.81283 
L 780.017856 38.409401 
L 780.181941 37.420228 
L 780.346027 37.420228 
L 780.510112 38.517084 
L 780.674198 33.655022 
L 781.002369 34.065476 
L 781.166455 32.466033 
L 781.494626 33.777464 
L 781.658711 33.772668 
L 781.822797 33.982598 
L 781.986882 33.982598 
L 782.150968 33.687915 
L 782.479139 34.341602 
L 782.643224 34.336807 
L 782.80731 34.534798 
L 782.971395 33.457777 
L 783.299566 37.543161 
L 783.463652 37.125713 
L 783.627737 39.259545 
L 783.791823 38.254557 
L 783.955908 40.442872 
L 784.119994 39.59815 
L 784.28408 39.393016 
L 784.612251 40.967875 
L 784.940422 35.820342 
L 785.104507 36.228304 
L 785.268593 34.949103 
L 785.432678 35.161403 
L 785.596764 32.138189 
L 786.08902 34.127316 
L 786.253106 33.704996 
L 786.417191 33.704996 
L 786.581277 33.499861 
L 786.745362 33.714454 
L 786.909448 32.652304 
L 787.237619 33.04849 
L 787.401704 34.962755 
L 787.729876 32.217476 
L 788.058047 34.220652 
L 788.222132 34.430581 
L 788.386218 33.808027 
L 788.550303 34.225475 
L 788.714389 34.02964 
L 788.878474 34.454332 
L 789.04256 32.945724 
L 789.206645 32.945724 
L 789.370731 33.172137 
L 789.862987 31.779593 
L 790.027073 32.624315 
L 790.191158 34.702635 
L 790.355244 38.641581 
L 790.519329 38.21926 
L 790.683415 37.412634 
L 790.847501 37.825287 
L 791.175672 36.785254 
L 791.339757 37.386864 
L 791.667928 39.90507 
L 791.832014 38.031857 
L 791.996099 34.310097 
L 792.160185 35.128313 
L 792.32427 35.328757 
L 792.488356 35.123622 
L 792.816527 36.73932 
L 792.980612 35.932564 
L 793.308783 32.989454 
L 793.472869 32.784348 
L 793.636954 33.392464 
L 793.80104 32.366731 
L 793.965125 32.166287 
L 794.129211 33.362706 
L 794.457382 32.174123 
L 794.621468 32.789562 
L 794.785553 32.372115 
L 794.949639 32.372115 
L 795.113724 32.162185 
L 795.27781 31.341678 
L 795.441895 32.16698 
L 795.605981 32.372115 
L 795.770066 31.38083 
L 795.934152 31.16853 
L 796.098237 30.538691 
L 796.262323 30.545806 
L 796.590494 30.963254 
L 796.754579 30.755736 
L 796.918665 31.548423 
L 797.246836 30.720762 
L 797.410922 31.114867 
L 797.739093 33.520049 
L 798.067264 33.102629 
L 798.395435 33.097833 
L 798.55952 32.517537 
L 798.723606 44.46339 
L 798.887691 44.465761 
L 799.051777 44.071657 
L 799.379948 41.668846 
L 799.544033 41.256194 
L 799.708119 42.091094 
L 799.872204 41.678441 
L 800.03629 41.678441 
L 800.200375 42.81421 
L 800.364461 30.868356 
L 800.692632 31.672599 
L 801.020803 36.273172 
L 801.184889 36.69062 
L 801.348974 39.885386 
L 801.677145 40.911321 
L 801.841231 40.93083 
L 802.005316 41.541609 
L 802.333487 41.152402 
L 802.497573 39.108786 
L 802.661658 39.367528 
L 802.825744 39.367528 
L 802.989829 35.75531 
L 803.318 34.936893 
L 803.482086 33.356924 
L 803.646171 36.242099 
L 803.974343 35.831858 
L 804.138428 35.20202 
L 804.302514 33.226089 
L 804.466599 33.615398 
L 804.79477 33.610603 
L 804.958856 34.807293 
L 805.122941 34.807293 
L 805.287027 31.518844 
L 805.451112 31.728774 
L 805.615198 34.19106 
L 805.779283 34.806499 
L 806.107454 39.612329 
L 806.435625 38.992158 
L 806.599711 37.795468 
L 806.763796 39.541444 
L 806.927882 39.75863 
L 807.091967 39.5487 
L 807.256053 37.513688 
L 807.420139 37.960399 
L 807.74831 32.750951 
L 808.076481 33.165987 
L 808.240566 33.795826 
L 808.404652 32.26215 
L 808.568737 31.837459 
L 808.732823 32.474663 
L 809.060994 30.980456 
L 809.225079 31.209739 
L 809.389165 31.21211 
L 809.55325 32.393015 
L 809.881421 32.38573 
L 810.209592 31.970654 
L 810.373678 32.140076 
L 810.537764 32.140076 
L 810.701849 32.352377 
L 811.03002 31.915576 
L 811.194106 30.935115 
L 811.522277 30.517695 
L 811.686362 30.722829 
L 811.850448 31.91952 
L 812.014533 30.905376 
L 812.178619 30.697857 
L 812.342704 30.910248 
L 812.50679 32.770717 
L 812.670875 32.975864 
L 812.834961 33.956325 
L 812.999046 34.163843 
L 813.163132 34.576493 
L 813.327217 37.285641 
L 813.491303 36.496912 
L 813.655388 37.720798 
L 813.819474 37.720798 
L 813.98356 37.503612 
L 814.147645 35.440356 
L 814.311731 35.235209 
L 814.475816 34.264234 
L 814.803987 34.875396 
L 814.968073 33.538712 
L 815.296244 33.308702 
L 815.460329 33.924142 
L 815.952586 36.997632 
L 816.116671 36.988146 
L 816.444842 35.551682 
L 816.608928 34.382005 
L 816.773013 35.021579 
L 817.101185 33.839288 
L 817.429356 31.44531 
L 817.593441 30.570331 
L 817.757527 30.579817 
L 817.921612 30.784964 
L 818.085698 30.784964 
L 818.249783 30.586973 
L 818.413869 29.947398 
L 818.74204 30.560299 
L 818.906125 31.597892 
L 819.070211 31.80541 
L 819.398382 31.170789 
L 820.218809 31.138381 
L 820.382895 31.936048 
L 820.546981 31.306417 
L 820.875152 32.563776 
L 821.039237 32.561406 
L 821.203323 32.768911 
L 821.367408 32.76654 
L 821.531494 33.155849 
L 821.695579 34.145021 
L 821.859665 33.772046 
L 822.02375 32.974379 
L 822.187836 32.771564 
L 822.516007 31.10154 
L 822.680092 31.309045 
L 822.844178 31.309045 
L 823.008263 31.103898 
L 823.50052 29.715931 
L 823.828691 30.730049 
L 823.992777 30.935196 
L 824.320948 33.678648 
L 824.485033 33.265995 
L 824.649119 33.471142 
L 824.813204 35.379353 
L 824.97729 34.749515 
L 825.305461 34.768489 
L 825.469546 34.160002 
L 825.633632 34.162373 
L 825.961803 31.418935 
L 826.289974 35.320989 
L 826.454059 33.422264 
L 826.618145 37.161917 
L 826.78223 37.584237 
L 826.946316 36.749337 
L 827.110402 37.565263 
L 827.274487 37.565263 
L 827.602658 38.598362 
L 827.930829 35.722039 
L 828.094915 35.93443 
L 828.259 35.895878 
L 828.423086 35.471187 
L 828.587171 35.676334 
L 828.751257 35.065555 
L 828.915342 35.487876 
L 829.407599 33.839337 
L 829.571684 33.63655 
L 829.73577 33.211859 
L 829.899855 30.707448 
L 830.063941 30.910263 
L 830.228027 30.705116 
L 830.392112 31.108456 
L 830.556198 30.886579 
L 830.884369 33.355576 
L 831.048454 33.567876 
L 831.21254 33.572672 
L 831.540711 32.996137 
L 831.704796 33.218013 
L 832.197053 34.944708 
L 832.525224 32.890788 
L 832.853395 32.468558 
L 833.01748 32.876519 
L 833.181566 34.724671 
L 833.345651 34.724671 
L 833.509737 35.690419 
L 833.673823 34.390748 
L 833.837908 34.199709 
L 834.001994 34.4121 
L 834.330165 36.92865 
L 834.49425 36.721132 
L 834.658336 36.935724 
L 834.822421 34.679717 
L 834.986507 34.257397 
L 835.150592 33.079259 
L 835.642849 32.451792 
L 835.97102 30.807116 
L 836.135105 31.415603 
L 836.299191 32.744172 
L 836.463276 32.326724 
L 836.627362 32.531859 
L 836.791448 32.321929 
L 837.119619 36.765373 
L 837.283704 36.956412 
L 837.44779 38.928977 
L 837.611875 37.851955 
L 837.775961 37.660916 
L 837.940046 35.709793 
L 838.104132 39.357456 
L 838.268217 39.789525 
L 838.432303 39.582007 
L 838.596388 36.944078 
L 838.760474 38.714181 
L 838.924559 38.313212 
L 839.088645 36.340648 
L 839.416816 36.970445 
L 839.580901 36.970445 
L 839.744987 33.322782 
L 839.909072 32.685579 
L 840.237244 32.685579 
L 840.401329 29.949728 
L 840.565415 29.947357 
L 840.7295 30.792079 
L 841.057671 29.539686 
L 841.221757 29.747205 
L 841.385842 30.355692 
L 841.549928 30.355692 
L 841.714013 30.56321 
L 842.042184 29.723442 
L 842.20627 29.926256 
L 842.370355 29.89746 
L 842.534441 30.305422 
L 842.862612 31.907475 
L 843.026697 36.275318 
L 843.190783 36.272947 
L 843.518954 37.67673 
L 843.68304 37.886659 
L 843.847125 38.760866 
L 844.011211 38.362388 
L 844.175296 38.770352 
L 844.339382 38.180191 
L 844.503467 39.5314 
L 844.667553 35.370995 
L 844.831638 36.215574 
L 845.159809 35.019309 
L 845.323895 35.210348 
L 845.48798 34.734936 
L 845.652066 35.16221 
L 845.816151 34.553802 
L 845.980237 34.553802 
L 846.144322 32.813285 
L 846.472493 31.768248 
L 846.636579 37.0431 
L 846.800665 37.0431 
L 846.96475 36.642131 
L 847.292921 34.990652 
L 847.457007 35.200582 
L 847.621092 34.995448 
L 847.785178 36.308154 
L 847.949263 36.530031 
L 848.113349 36.324896 
L 848.277434 31.050044 
L 848.44152 31.050044 
L 848.769691 31.465121 
L 848.933776 32.467935 
L 849.097862 32.658974 
L 849.261947 33.07401 
L 849.426033 31.343856 
L 849.590118 31.121979 
L 849.91829 31.532353 
L 850.246461 31.529982 
L 850.410546 31.324835 
L 850.574632 30.322021 
L 850.738717 30.322021 
L 850.902803 29.906985 
L 851.066888 30.114503 
L 851.230974 29.706541 
L 851.395059 29.706541 
L 851.72323 30.135923 
L 851.887316 30.126437 
L 852.215487 33.717503 
L 852.543658 33.318946 
L 853.035914 34.781452 
L 853.035914 34.781452 
" clip-path="url(#p675286192b)" style="fill: none; stroke-dasharray: 7.4,3.2; stroke-dashoffset: 0; stroke: #000000; stroke-width: 2"/>
   </g>
   <g id="patch_3">
    <path d="M 35.89 404.12 
L 35.89 10.8 
" style="fill: none; stroke: #000000; stroke-width: 0.8; stroke-linejoin: miter; stroke-linecap: square"/>
   </g>
   <g id="patch_4">
    <path d="M 853.2 404.12 
L 853.2 10.8 
" style="fill: none; stroke: #000000; stroke-width: 0.8; stroke-linejoin: miter; stroke-linecap: square"/>
   </g>
   <g id="patch_5">
    <path d="M 35.89 404.12 
L 853.2 404.12 
" style="fill: none; stroke: #000000; stroke-width: 0.8; stroke-linejoin: miter; stroke-linecap: square"/>
   </g>
   <g id="patch_6">
    <path d="M 35.89 10.8 
L 853.2 10.8 
" style="fill: none; stroke: #000000; stroke-width: 0.8; stroke-linejoin: miter; stroke-linecap: square"/>
   </g>
  </g>
 </g>
 <defs>
  <clipPath id="p675286192b">
   <rect x="35.89" y="10.8" width="817.31" height="393.32"/>
  </clipPath>
 </defs>
</svg>
