<?xml version="1.0" encoding="utf-8" standalone="no"?>
<!DOCTYPE svg PUBLIC "-//W3C//DTD SVG 1.1//EN"
  "http://www.w3.org/Graphics/SVG/1.1/DTD/svg11.dtd">
<svg xmlns:xlink="http://www.w3.org/1999/xlink" width="864pt" height="432pt" viewBox="0 0 864 432" xmlns="http://www.w3.org/2000/svg" version="1.1">
 <metadata>
  <rdf:RDF xmlns:dc="http://purl.org/dc/elements/1.1/" xmlns:cc="http://creativecommons.org/ns#" xmlns:rdf="http://www.w3.org/1999/02/22-rdf-syntax-ns#">
   <cc:Work>
    <dc:type rdf:resource="http://purl.org/dc/dcmitype/StillImage"/>
    <dc:date>2024-09-16T10:55:59.255031</dc:date>
    <dc:format>image/svg+xml</dc:format>
    <dc:creator>
     <cc:Agent>
      <dc:title>Matplotlib v3.9.2, https://matplotlib.org/</dc:title>
     </cc:Agent>
    </dc:creator>
   </cc:Work>
  </rdf:RDF>
 </metadata>
 <defs>
  <style type="text/css">*{stroke-linejoin: round; stroke-linecap: butt}</style>
 </defs>
 <g id="figure_1">
  <g id="patch_1">
   <path d="M 0 432 
L 864 432 
L 864 0 
L 0 0 
z
" style="fill: #ffffff"/>
  </g>
  <g id="axes_1">
   <g id="patch_2">
    <path d="M 41.92 404.12 
L 841.14 404.12 
L 841.14 10.8 
L 41.92 10.8 
z
" style="fill: #ffffff"/>
   </g>
   <g id="matplotlib.axis_1">
    <g id="xtick_1">
     <g id="line2d_1">
      <defs>
       <path id="m6300e38932" d="M 0 0 
L 0 3.5 
" style="stroke: #000000; stroke-width: 0.8"/>
      </defs>
      <g>
       <use xlink:href="#m6300e38932" x="195.305657" y="404.12" style="stroke: #000000; stroke-width: 0.8"/>
      </g>
     </g>
     <g id="text_1">
      <!-- 200 -->
      <g transform="translate(186.275188 418.771563) scale(0.1 -0.1)">
       <defs>
        <path id="DejaVuSansMono-32" d="M 1166 531 
L 3309 531 
L 3309 0 
L 475 0 
L 475 531 
Q 1059 1147 1496 1619 
Q 1934 2091 2100 2284 
Q 2413 2666 2522 2902 
Q 2631 3138 2631 3384 
Q 2631 3775 2401 3997 
Q 2172 4219 1772 4219 
Q 1488 4219 1175 4116 
Q 863 4013 513 3803 
L 513 4441 
Q 834 4594 1145 4672 
Q 1456 4750 1759 4750 
Q 2444 4750 2861 4386 
Q 3278 4022 3278 3431 
Q 3278 3131 3139 2831 
Q 3000 2531 2688 2169 
Q 2513 1966 2180 1606 
Q 1847 1247 1166 531 
z
" transform="scale(0.015625)"/>
        <path id="DejaVuSansMono-30" d="M 1509 2344 
Q 1509 2516 1629 2641 
Q 1750 2766 1919 2766 
Q 2094 2766 2219 2641 
Q 2344 2516 2344 2344 
Q 2344 2169 2220 2047 
Q 2097 1925 1919 1925 
Q 1744 1925 1626 2044 
Q 1509 2163 1509 2344 
z
M 1925 4250 
Q 1484 4250 1267 3775 
Q 1050 3300 1050 2328 
Q 1050 1359 1267 884 
Q 1484 409 1925 409 
Q 2369 409 2586 884 
Q 2803 1359 2803 2328 
Q 2803 3300 2586 3775 
Q 2369 4250 1925 4250 
z
M 1925 4750 
Q 2672 4750 3055 4137 
Q 3438 3525 3438 2328 
Q 3438 1134 3055 521 
Q 2672 -91 1925 -91 
Q 1178 -91 797 521 
Q 416 1134 416 2328 
Q 416 3525 797 4137 
Q 1178 4750 1925 4750 
z
" transform="scale(0.015625)"/>
       </defs>
       <use xlink:href="#DejaVuSansMono-32"/>
       <use xlink:href="#DejaVuSansMono-30" x="60.205078"/>
       <use xlink:href="#DejaVuSansMono-30" x="120.410156"/>
      </g>
     </g>
    </g>
    <g id="xtick_2">
     <g id="line2d_2">
      <g>
       <use xlink:href="#m6300e38932" x="356.764242" y="404.12" style="stroke: #000000; stroke-width: 0.8"/>
      </g>
     </g>
     <g id="text_2">
      <!-- 400 -->
      <g transform="translate(347.733774 418.771563) scale(0.1 -0.1)">
       <defs>
        <path id="DejaVuSansMono-34" d="M 2297 4091 
L 825 1625 
L 2297 1625 
L 2297 4091 
z
M 2194 4666 
L 2925 4666 
L 2925 1625 
L 3547 1625 
L 3547 1113 
L 2925 1113 
L 2925 0 
L 2297 0 
L 2297 1113 
L 319 1113 
L 319 1709 
L 2194 4666 
z
" transform="scale(0.015625)"/>
       </defs>
       <use xlink:href="#DejaVuSansMono-34"/>
       <use xlink:href="#DejaVuSansMono-30" x="60.205078"/>
       <use xlink:href="#DejaVuSansMono-30" x="120.410156"/>
      </g>
     </g>
    </g>
    <g id="xtick_3">
     <g id="line2d_3">
      <g>
       <use xlink:href="#m6300e38932" x="518.222828" y="404.12" style="stroke: #000000; stroke-width: 0.8"/>
      </g>
     </g>
     <g id="text_3">
      <!-- 600 -->
      <g transform="translate(509.19236 418.771563) scale(0.1 -0.1)">
       <defs>
        <path id="DejaVuSansMono-36" d="M 3097 4563 
L 3097 3981 
Q 2900 4097 2678 4158 
Q 2456 4219 2216 4219 
Q 1616 4219 1306 3767 
Q 997 3316 997 2438 
Q 1147 2750 1412 2917 
Q 1678 3084 2022 3084 
Q 2697 3084 3067 2670 
Q 3438 2256 3438 1497 
Q 3438 741 3056 325 
Q 2675 -91 1984 -91 
Q 1172 -91 794 492 
Q 416 1075 416 2328 
Q 416 3509 870 4129 
Q 1325 4750 2188 4750 
Q 2419 4750 2650 4701 
Q 2881 4653 3097 4563 
z
M 1972 2591 
Q 1569 2591 1337 2300 
Q 1106 2009 1106 1497 
Q 1106 984 1337 693 
Q 1569 403 1972 403 
Q 2391 403 2603 679 
Q 2816 956 2816 1497 
Q 2816 2041 2603 2316 
Q 2391 2591 1972 2591 
z
" transform="scale(0.015625)"/>
       </defs>
       <use xlink:href="#DejaVuSansMono-36"/>
       <use xlink:href="#DejaVuSansMono-30" x="60.205078"/>
       <use xlink:href="#DejaVuSansMono-30" x="120.410156"/>
      </g>
     </g>
    </g>
    <g id="xtick_4">
     <g id="line2d_4">
      <g>
       <use xlink:href="#m6300e38932" x="679.681414" y="404.12" style="stroke: #000000; stroke-width: 0.8"/>
      </g>
     </g>
     <g id="text_4">
      <!-- 800 -->
      <g transform="translate(670.650945 418.771563) scale(0.1 -0.1)">
       <defs>
        <path id="DejaVuSansMono-38" d="M 1925 2216 
Q 1503 2216 1273 1980 
Q 1044 1744 1044 1313 
Q 1044 881 1276 642 
Q 1509 403 1925 403 
Q 2350 403 2579 639 
Q 2809 875 2809 1313 
Q 2809 1741 2576 1978 
Q 2344 2216 1925 2216 
z
M 1375 2478 
Q 972 2581 745 2862 
Q 519 3144 519 3541 
Q 519 4097 897 4423 
Q 1275 4750 1925 4750 
Q 2578 4750 2956 4423 
Q 3334 4097 3334 3541 
Q 3334 3144 3107 2862 
Q 2881 2581 2478 2478 
Q 2947 2375 3195 2062 
Q 3444 1750 3444 1253 
Q 3444 622 3041 265 
Q 2638 -91 1925 -91 
Q 1213 -91 811 264 
Q 409 619 409 1247 
Q 409 1747 657 2061 
Q 906 2375 1375 2478 
z
M 1147 3481 
Q 1147 3106 1347 2909 
Q 1547 2713 1925 2713 
Q 2306 2713 2506 2909 
Q 2706 3106 2706 3481 
Q 2706 3863 2507 4063 
Q 2309 4263 1925 4263 
Q 1547 4263 1347 4061 
Q 1147 3859 1147 3481 
z
" transform="scale(0.015625)"/>
       </defs>
       <use xlink:href="#DejaVuSansMono-38"/>
       <use xlink:href="#DejaVuSansMono-30" x="60.205078"/>
       <use xlink:href="#DejaVuSansMono-30" x="120.410156"/>
      </g>
     </g>
    </g>
    <g id="xtick_5">
     <g id="line2d_5">
      <g>
       <use xlink:href="#m6300e38932" x="841.14" y="404.12" style="stroke: #000000; stroke-width: 0.8"/>
      </g>
     </g>
     <g id="text_5">
      <!-- 1000 -->
      <g transform="translate(829.099375 418.771563) scale(0.1 -0.1)">
       <defs>
        <path id="DejaVuSansMono-31" d="M 844 531 
L 1825 531 
L 1825 4097 
L 769 3859 
L 769 4434 
L 1819 4666 
L 2450 4666 
L 2450 531 
L 3419 531 
L 3419 0 
L 844 0 
L 844 531 
z
" transform="scale(0.015625)"/>
       </defs>
       <use xlink:href="#DejaVuSansMono-31"/>
       <use xlink:href="#DejaVuSansMono-30" x="60.205078"/>
       <use xlink:href="#DejaVuSansMono-30" x="120.410156"/>
       <use xlink:href="#DejaVuSansMono-30" x="180.615234"/>
      </g>
     </g>
    </g>
   </g>
   <g id="matplotlib.axis_2">
    <g id="ytick_1">
     <g id="line2d_6">
      <defs>
       <path id="m464af7aead" d="M 0 0 
L -3.5 0 
" style="stroke: #000000; stroke-width: 0.8"/>
      </defs>
      <g>
       <use xlink:href="#m464af7aead" x="41.92" y="333.531592" style="stroke: #000000; stroke-width: 0.8"/>
      </g>
     </g>
     <g id="text_6">
      <!-- 0.14 -->
      <g transform="translate(10.83875 337.357373) scale(0.1 -0.1)">
       <defs>
        <path id="DejaVuSansMono-2e" d="M 1528 953 
L 2316 953 
L 2316 0 
L 1528 0 
L 1528 953 
z
" transform="scale(0.015625)"/>
       </defs>
       <use xlink:href="#DejaVuSansMono-30"/>
       <use xlink:href="#DejaVuSansMono-2e" x="60.205078"/>
       <use xlink:href="#DejaVuSansMono-31" x="120.410156"/>
       <use xlink:href="#DejaVuSansMono-34" x="180.615234"/>
      </g>
     </g>
    </g>
    <g id="ytick_2">
     <g id="line2d_7">
      <g>
       <use xlink:href="#m464af7aead" x="41.92" y="259.288204" style="stroke: #000000; stroke-width: 0.8"/>
      </g>
     </g>
     <g id="text_7">
      <!-- 0.15 -->
      <g transform="translate(10.83875 263.113985) scale(0.1 -0.1)">
       <defs>
        <path id="DejaVuSansMono-35" d="M 647 4666 
L 3009 4666 
L 3009 4134 
L 1222 4134 
L 1222 2988 
Q 1356 3038 1492 3061 
Q 1628 3084 1766 3084 
Q 2491 3084 2916 2656 
Q 3341 2228 3341 1497 
Q 3341 759 2895 334 
Q 2450 -91 1678 -91 
Q 1306 -91 998 -41 
Q 691 9 447 109 
L 447 750 
Q 734 594 1025 517 
Q 1316 441 1619 441 
Q 2141 441 2423 716 
Q 2706 991 2706 1497 
Q 2706 1997 2414 2275 
Q 2122 2553 1600 2553 
Q 1347 2553 1106 2495 
Q 866 2438 647 2322 
L 647 4666 
z
" transform="scale(0.015625)"/>
       </defs>
       <use xlink:href="#DejaVuSansMono-30"/>
       <use xlink:href="#DejaVuSansMono-2e" x="60.205078"/>
       <use xlink:href="#DejaVuSansMono-31" x="120.410156"/>
       <use xlink:href="#DejaVuSansMono-35" x="180.615234"/>
      </g>
     </g>
    </g>
    <g id="ytick_3">
     <g id="line2d_8">
      <g>
       <use xlink:href="#m464af7aead" x="41.92" y="185.044815" style="stroke: #000000; stroke-width: 0.8"/>
      </g>
     </g>
     <g id="text_8">
      <!-- 0.16 -->
      <g transform="translate(10.83875 188.870597) scale(0.1 -0.1)">
       <use xlink:href="#DejaVuSansMono-30"/>
       <use xlink:href="#DejaVuSansMono-2e" x="60.205078"/>
       <use xlink:href="#DejaVuSansMono-31" x="120.410156"/>
       <use xlink:href="#DejaVuSansMono-36" x="180.615234"/>
      </g>
     </g>
    </g>
    <g id="ytick_4">
     <g id="line2d_9">
      <g>
       <use xlink:href="#m464af7aead" x="41.92" y="110.801427" style="stroke: #000000; stroke-width: 0.8"/>
      </g>
     </g>
     <g id="text_9">
      <!-- 0.17 -->
      <g transform="translate(10.83875 114.627208) scale(0.1 -0.1)">
       <defs>
        <path id="DejaVuSansMono-37" d="M 434 4666 
L 3372 4666 
L 3372 4397 
L 1703 0 
L 1044 0 
L 2669 4134 
L 434 4134 
L 434 4666 
z
" transform="scale(0.015625)"/>
       </defs>
       <use xlink:href="#DejaVuSansMono-30"/>
       <use xlink:href="#DejaVuSansMono-2e" x="60.205078"/>
       <use xlink:href="#DejaVuSansMono-31" x="120.410156"/>
       <use xlink:href="#DejaVuSansMono-37" x="180.615234"/>
      </g>
     </g>
    </g>
    <g id="ytick_5">
     <g id="line2d_10">
      <g>
       <use xlink:href="#m464af7aead" x="41.92" y="36.558039" style="stroke: #000000; stroke-width: 0.8"/>
      </g>
     </g>
     <g id="text_10">
      <!-- 0.18 -->
      <g transform="translate(10.83875 40.38382) scale(0.1 -0.1)">
       <use xlink:href="#DejaVuSansMono-30"/>
       <use xlink:href="#DejaVuSansMono-2e" x="60.205078"/>
       <use xlink:href="#DejaVuSansMono-31" x="120.410156"/>
       <use xlink:href="#DejaVuSansMono-38" x="180.615234"/>
      </g>
     </g>
    </g>
   </g>
   <g id="line2d_11">
    <path d="M 33.847071 28.678182 
L 34.654364 33.759697 
L 35.461657 34.490875 
L 36.268949 50.923566 
L 37.076242 84.149757 
L 37.883535 91.007703 
L 38.690828 107.209124 
L 39.498121 130.877441 
L 40.305414 129.583105 
L 41.112707 130.241474 
L 41.92 162.036529 
L 42.727293 171.394401 
L 43.534586 169.947831 
L 44.341879 155.137026 
L 45.149172 161.293501 
L 45.956465 162.309724 
L 46.763758 164.054861 
L 47.571051 145.886913 
L 48.378343 159.640758 
L 49.185636 138.508639 
L 49.992929 139.40014 
L 50.800222 159.172864 
L 51.607515 148.850662 
L 52.414808 148.250409 
L 53.222101 145.648756 
L 54.029394 148.945017 
L 54.836687 165.150181 
L 55.64398 164.785986 
L 56.451273 167.447843 
L 57.258566 133.415572 
L 58.065859 131.45636 
L 58.873152 132.498646 
L 59.680444 149.034 
L 60.487737 151.638043 
L 61.29503 157.291633 
L 62.102323 176.472028 
L 62.909616 175.997809 
L 63.716909 173.651241 
L 64.524202 202.109778 
L 65.331495 215.396749 
L 66.138788 212.590684 
L 66.946081 228.193671 
L 67.753374 228.646394 
L 68.560667 242.381211 
L 69.36796 233.278339 
L 70.175253 234.34556 
L 70.982545 238.046171 
L 71.789838 232.553161 
L 72.597131 242.250561 
L 73.404424 231.786761 
L 74.211717 236.6606 
L 75.01901 220.502987 
L 75.826303 226.902017 
L 76.633596 210.016782 
L 77.440889 207.821908 
L 78.248182 209.317199 
L 79.055475 198.030572 
L 79.862768 196.536414 
L 80.670061 188.11693 
L 81.477354 190.592894 
L 82.284646 189.19671 
L 83.091939 198.763244 
L 83.899232 163.75784 
L 84.706525 176.698108 
L 85.513818 191.564036 
L 86.321111 191.284285 
L 87.128404 191.443964 
L 87.935697 209.600846 
L 88.74299 216.230828 
L 89.550283 232.132442 
L 90.357576 232.700662 
L 91.164869 225.561892 
L 91.972162 237.96627 
L 92.779455 194.703456 
L 93.586747 195.120368 
L 94.39404 187.016643 
L 95.201333 189.726098 
L 96.815919 185.035653 
L 97.623212 216.6559 
L 98.430505 200.278425 
L 99.237798 201.321705 
L 100.045091 199.832441 
L 100.852384 176.564898 
L 101.659677 172.864826 
L 102.46697 170.828638 
L 103.274263 170.54028 
L 104.081556 172.259147 
L 104.888848 171.279384 
L 105.696141 167.778975 
L 106.503434 170.512412 
L 107.310727 162.573114 
L 108.11802 157.008689 
L 108.925313 136.908454 
L 109.732606 138.13813 
L 110.539899 138.43653 
L 111.347192 108.688872 
L 112.154485 115.67989 
L 112.961778 104.221999 
L 113.769071 115.247502 
L 114.576364 110.516362 
L 115.383657 126.067037 
L 116.190949 127.110205 
L 116.998242 145.188435 
L 117.805535 145.314634 
L 118.612828 145.102185 
L 119.420121 128.792873 
L 120.227414 130.253149 
L 121.034707 135.086882 
L 121.842 134.328153 
L 122.649293 140.867147 
L 123.456586 139.437098 
L 124.263879 177.104903 
L 125.071172 180.146566 
L 125.878465 182.029287 
L 126.685758 174.728181 
L 127.493051 174.693441 
L 128.300343 172.718632 
L 129.107636 172.148766 
L 129.914929 174.779109 
L 130.722222 174.683895 
L 131.529515 163.764204 
L 132.336808 161.194118 
L 133.144101 203.793841 
L 133.951394 210.029599 
L 134.758687 217.902746 
L 135.56598 210.997434 
L 136.373273 205.992011 
L 137.987859 213.466175 
L 138.795152 223.79955 
L 139.602444 224.264374 
L 140.409737 225.879465 
L 141.21703 257.048752 
L 142.024323 261.092002 
L 142.831616 258.030769 
L 143.638909 251.779927 
L 145.253495 253.447935 
L 146.060788 248.582212 
L 146.868081 245.837324 
L 147.675374 258.040302 
L 148.482667 263.765824 
L 149.28996 282.893107 
L 150.097253 287.534735 
L 150.904545 276.784567 
L 151.711838 303.763134 
L 152.519131 301.485057 
L 153.326424 312.991093 
L 154.133717 313.814261 
L 154.94101 321.67189 
L 155.748303 318.998401 
L 156.555596 304.23728 
L 157.362889 302.779167 
L 158.170182 303.792385 
L 158.977475 304.386497 
L 159.784768 332.645091 
L 160.592061 326.425475 
L 161.399354 328.847663 
L 162.206646 329.669236 
L 163.013939 329.261233 
L 163.821232 330.722255 
L 164.628525 327.971698 
L 165.435818 324.372234 
L 166.243111 324.526649 
L 167.050404 332.368791 
L 167.857697 331.736539 
L 168.66499 331.295476 
L 169.472283 328.542587 
L 170.279576 307.647193 
L 171.086869 307.764128 
L 171.894162 315.551485 
L 172.701455 311.543383 
L 173.508747 308.837284 
L 174.31604 291.450069 
L 175.123333 290.545986 
L 175.930626 287.566243 
L 176.737919 293.276489 
L 177.545212 292.501489 
L 178.352505 280.915879 
L 179.159798 279.625578 
L 179.967091 278.551473 
L 180.774384 259.972658 
L 181.581677 257.982251 
L 182.38897 255.561663 
L 183.196263 252.08882 
L 184.003556 252.192061 
L 184.810848 210.057046 
L 185.618141 202.545553 
L 186.425434 206.061461 
L 187.232727 208.979219 
L 188.04002 177.231343 
L 188.847313 174.274428 
L 190.461899 181.837878 
L 191.269192 192.692818 
L 192.076485 195.905282 
L 192.883778 195.615276 
L 193.691071 195.728897 
L 194.498364 195.545513 
L 195.305657 193.41378 
L 196.112949 198.219631 
L 196.920242 195.35847 
L 197.727535 190.365672 
L 198.534828 167.807843 
L 199.342121 164.665705 
L 200.149414 163.091287 
L 200.956707 168.990514 
L 201.764 169.893133 
L 202.571293 167.597699 
L 203.378586 156.309185 
L 204.185879 152.910043 
L 204.993172 140.227469 
L 205.800465 135.274987 
L 206.607758 131.475409 
L 207.415051 131.157555 
L 208.222343 124.86265 
L 209.029636 127.697223 
L 209.836929 122.669667 
L 210.644222 130.137078 
L 211.451515 129.062971 
L 212.258808 140.950197 
L 213.066101 129.044954 
L 213.873394 132.955398 
L 214.680687 125.215948 
L 215.48798 126.144111 
L 216.295273 135.605143 
L 217.102566 137.765058 
L 217.909859 131.604131 
L 218.717152 135.068974 
L 219.524444 144.621189 
L 220.331737 140.078324 
L 221.13903 154.638796 
L 221.946323 155.96919 
L 222.753616 158.30521 
L 223.560909 146.206143 
L 224.368202 153.118261 
L 225.175495 187.354693 
L 226.790081 195.762194 
L 227.597374 195.410791 
L 228.404667 225.353542 
L 229.21196 229.006854 
L 230.019253 228.258393 
L 231.633838 224.800555 
L 232.441131 225.27092 
L 233.248424 226.894759 
L 234.055717 222.332266 
L 234.86301 219.073211 
L 235.670303 221.053564 
L 236.477596 200.402966 
L 237.284889 217.011235 
L 238.092182 224.246236 
L 238.899475 246.832815 
L 239.706768 249.906872 
L 240.514061 251.460234 
L 241.321354 243.066784 
L 242.128646 241.400839 
L 242.935939 222.048985 
L 243.743232 232.216202 
L 244.550525 235.562809 
L 245.357818 248.787824 
L 246.165111 255.506708 
L 247.779697 255.470863 
L 248.58699 252.805291 
L 249.394283 239.064805 
L 250.201576 246.123837 
L 251.008869 260.467002 
L 251.816162 258.816903 
L 252.623455 259.266063 
L 253.430747 279.273558 
L 254.23804 279.476213 
L 255.045333 305.73614 
L 255.852626 305.982167 
L 256.659919 295.427485 
L 257.467212 295.217154 
L 258.274505 297.464485 
L 259.081798 302.44117 
L 259.889091 302.795391 
L 260.696384 308.603581 
L 261.503677 309.771383 
L 262.31097 310.505616 
L 263.118263 308.475586 
L 263.925556 325.36185 
L 264.732848 324.380924 
L 265.540141 319.050635 
L 266.347434 315.147143 
L 267.154727 315.953568 
L 267.96202 315.220747 
L 268.769313 316.665054 
L 269.576606 311.536197 
L 270.383899 311.909878 
L 271.191192 310.247442 
L 271.998485 305.327442 
L 272.805778 303.808965 
L 273.613071 304.452323 
L 274.420364 300.626492 
L 275.227657 302.890418 
L 276.034949 294.820629 
L 276.842242 304.315834 
L 277.649535 300.00446 
L 278.456828 299.982784 
L 279.264121 293.954969 
L 280.071414 292.233191 
L 280.878707 292.349209 
L 281.686 300.735829 
L 282.493293 301.56155 
L 283.300586 323.40305 
L 284.915172 323.33299 
L 285.722465 325.94471 
L 286.529758 327.103964 
L 287.337051 317.249873 
L 288.144343 317.272156 
L 288.951636 315.526233 
L 289.758929 324.91743 
L 290.566222 326.173996 
L 291.373515 324.598412 
L 292.180808 299.110727 
L 292.988101 295.534546 
L 293.795394 285.957663 
L 294.602687 280.6522 
L 295.40998 280.113392 
L 296.217273 248.723886 
L 297.024566 259.688262 
L 297.831859 258.522642 
L 298.639152 263.179813 
L 299.446444 265.128481 
L 300.253737 258.255791 
L 301.06103 258.186298 
L 301.868323 259.127032 
L 302.675616 258.580544 
L 303.482909 238.086524 
L 304.290202 242.181719 
L 305.097495 234.553354 
L 305.904788 240.524431 
L 306.712081 245.135753 
L 307.519374 238.572429 
L 308.326667 239.752992 
L 309.13396 230.393785 
L 309.941253 234.295732 
L 310.748545 222.301192 
L 311.555838 222.225677 
L 312.363131 228.731712 
L 313.170424 229.785771 
L 313.977717 226.559111 
L 314.78501 232.743073 
L 315.592303 233.588113 
L 316.399596 239.298105 
L 317.206889 239.978239 
L 318.014182 241.612338 
L 318.821475 235.587622 
L 319.628768 242.394778 
L 320.436061 244.145742 
L 321.243354 241.109491 
L 322.050646 241.830972 
L 322.857939 230.277198 
L 323.665232 228.547812 
L 324.472525 192.290146 
L 325.279818 170.265352 
L 326.087111 170.077468 
L 326.894404 170.461945 
L 327.701697 167.923167 
L 328.50899 153.050554 
L 329.316283 164.464527 
L 330.123576 167.901363 
L 331.738162 145.541848 
L 332.545455 173.919634 
L 333.352747 166.180481 
L 334.16004 175.375871 
L 334.967333 178.853012 
L 335.774626 177.334318 
L 336.581919 208.745234 
L 337.389212 202.616664 
L 338.196505 203.634098 
L 339.003798 203.092222 
L 339.811091 195.050802 
L 340.618384 201.269872 
L 341.425677 194.108103 
L 342.23297 191.559183 
L 343.040263 190.296081 
L 343.847556 206.385171 
L 344.654848 197.754995 
L 345.462141 202.525882 
L 346.269434 205.830153 
L 347.076727 192.633586 
L 347.88402 198.903025 
L 348.691313 198.359562 
L 349.498606 208.116363 
L 350.305899 208.689342 
L 351.113192 221.022199 
L 351.920485 224.080981 
L 352.727778 224.094059 
L 353.535071 224.772095 
L 354.342364 228.074784 
L 355.149657 229.6981 
L 355.956949 218.52861 
L 356.764242 218.487958 
L 357.571535 227.333483 
L 358.378828 226.713149 
L 359.993414 225.812757 
L 360.800707 225.92899 
L 361.608 221.286595 
L 362.415293 221.368881 
L 363.222586 235.215989 
L 364.029879 236.933796 
L 364.837172 264.979597 
L 365.644465 286.895372 
L 366.451758 285.54296 
L 367.259051 282.294766 
L 368.873636 313.639283 
L 369.680929 312.965682 
L 370.488222 313.228038 
L 371.295515 309.971135 
L 372.102808 322.743737 
L 372.910101 322.18683 
L 373.717394 320.769103 
L 374.524687 318.712554 
L 375.33198 308.166387 
L 376.139273 307.779096 
L 376.946566 307.812656 
L 377.753859 314.072076 
L 378.561152 313.733777 
L 379.368444 307.352561 
L 380.175737 312.552108 
L 380.98303 310.900065 
L 381.790323 305.920888 
L 382.597616 308.808264 
L 383.404909 309.319275 
L 384.212202 292.427692 
L 385.019495 300.33583 
L 385.826788 294.177587 
L 386.634081 298.715464 
L 387.441374 311.793636 
L 388.248667 309.673129 
L 389.05596 304.996766 
L 389.863253 305.024452 
L 390.670545 290.532147 
L 391.477838 283.756749 
L 392.285131 281.756297 
L 393.092424 274.353044 
L 393.899717 263.537524 
L 394.70701 262.769878 
L 395.514303 263.176322 
L 396.321596 272.710613 
L 397.128889 275.710328 
L 397.936182 272.591141 
L 398.743475 277.040206 
L 399.550768 277.596617 
L 400.358061 277.375412 
L 401.165354 276.893702 
L 401.972646 285.127787 
L 402.779939 278.808927 
L 403.587232 278.562819 
L 404.394525 277.07857 
L 405.201818 284.614989 
L 406.009111 284.674716 
L 406.816404 283.48267 
L 407.623697 287.236127 
L 408.43099 284.715844 
L 409.238283 283.998189 
L 410.045576 278.05899 
L 410.852869 278.663011 
L 411.660162 292.36206 
L 412.467455 294.714261 
L 413.274747 294.83841 
L 414.08204 304.425041 
L 414.889333 306.085949 
L 415.696626 311.53628 
L 416.503919 290.722834 
L 417.311212 287.981925 
L 418.118505 287.678806 
L 418.925798 287.764804 
L 419.733091 292.480486 
L 420.540384 296.333625 
L 421.347677 291.46708 
L 422.15497 303.598726 
L 422.962263 305.270151 
L 423.769556 306.123319 
L 424.576848 328.962626 
L 425.384141 327.660356 
L 426.191434 336.277085 
L 426.998727 331.077539 
L 427.80602 333.977569 
L 428.613313 328.612512 
L 429.420606 332.641251 
L 430.227899 329.481808 
L 431.035192 342.258379 
L 431.842485 347.03863 
L 432.649778 343.096028 
L 433.457071 349.639441 
L 434.264364 358.983658 
L 435.071657 358.653216 
L 435.878949 357.43352 
L 436.686242 359.770101 
L 437.493535 359.298015 
L 438.300828 362.052176 
L 439.108121 361.14876 
L 439.915414 366.670796 
L 440.722707 367.458901 
L 441.53 357.450448 
L 442.337293 354.044993 
L 443.144586 357.39901 
L 443.951879 358.019322 
L 444.759172 355.317554 
L 445.566465 357.292232 
L 446.373758 356.02525 
L 447.181051 356.178107 
L 447.988343 356.181443 
L 448.795636 358.330532 
L 449.602929 356.698424 
L 450.410222 357.564275 
L 451.217515 356.064328 
L 452.024808 354.093438 
L 452.832101 347.022027 
L 453.639394 347.434733 
L 454.446687 339.894391 
L 455.25398 336.997704 
L 456.061273 341.668142 
L 456.868566 365.050987 
L 457.675859 364.415913 
L 458.483152 361.497338 
L 459.290444 352.662686 
L 460.097737 354.892191 
L 460.90503 353.479282 
L 461.712323 360.883429 
L 462.519616 360.326163 
L 463.326909 349.901884 
L 464.134202 350.05789 
L 464.941495 349.346667 
L 466.556081 352.126071 
L 467.363374 343.817463 
L 468.170667 342.002457 
L 468.97796 345.613552 
L 469.785253 340.327258 
L 470.592545 343.225734 
L 471.399838 333.901014 
L 472.207131 335.915988 
L 473.014424 341.58833 
L 473.821717 342.485238 
L 474.62901 326.252876 
L 475.436303 326.877056 
L 476.243596 327.975484 
L 477.050889 325.112548 
L 477.858182 323.939203 
L 478.665475 307.854542 
L 479.472768 302.746935 
L 480.280061 290.080233 
L 481.087354 282.540905 
L 481.894646 288.688182 
L 482.701939 284.62357 
L 483.509232 287.018598 
L 484.316525 286.457435 
L 485.123818 288.033231 
L 485.931111 287.724262 
L 486.738404 288.877759 
L 487.545697 289.521465 
L 488.35299 277.314214 
L 489.160283 274.601064 
L 489.967576 275.256709 
L 490.774869 277.260947 
L 491.582162 278.475384 
L 492.389455 280.524951 
L 493.196747 286.030149 
L 494.00404 282.810446 
L 494.811333 288.770557 
L 495.618626 292.193658 
L 496.425919 289.915459 
L 497.233212 289.963626 
L 498.040505 290.352672 
L 498.847798 293.525898 
L 499.655091 300.99026 
L 500.462384 291.124803 
L 501.269677 271.085902 
L 502.884263 270.104569 
L 503.691556 280.256436 
L 504.498848 278.686712 
L 505.306141 279.127595 
L 506.113434 273.870731 
L 506.920727 271.460699 
L 507.72802 284.40738 
L 509.342606 286.845105 
L 510.149899 290.325932 
L 510.957192 289.505271 
L 511.764485 290.982408 
L 512.571778 285.364721 
L 513.379071 282.077155 
L 514.186364 277.873496 
L 514.993657 293.253003 
L 515.800949 285.317166 
L 516.608242 272.615416 
L 517.415535 273.490875 
L 518.222828 274.687001 
L 519.030121 291.731647 
L 519.837414 294.998687 
L 520.644707 299.394778 
L 521.452 306.552082 
L 522.259293 308.272837 
L 523.066586 315.776702 
L 523.873879 315.787064 
L 524.681172 313.942817 
L 525.488465 316.46122 
L 526.295758 316.414327 
L 527.910343 315.306516 
L 528.717636 327.397434 
L 529.524929 330.68504 
L 530.332222 325.135592 
L 531.139515 327.586509 
L 531.946808 327.113319 
L 532.754101 327.050301 
L 533.561394 321.361539 
L 534.368687 323.708484 
L 535.17598 328.482094 
L 535.983273 328.783272 
L 536.790566 333.350862 
L 537.597859 330.258359 
L 538.405152 322.544375 
L 539.212444 313.711707 
L 540.019737 315.674835 
L 540.82703 324.47569 
L 541.634323 346.087761 
L 542.441616 333.860241 
L 543.248909 335.055546 
L 544.056202 330.058295 
L 544.863495 331.473706 
L 545.670788 326.627612 
L 546.478081 331.199491 
L 547.285374 333.257612 
L 548.092667 333.095581 
L 548.89996 333.516847 
L 549.707253 335.343863 
L 550.514545 334.735986 
L 551.321838 335.567427 
L 552.129131 344.623106 
L 552.936424 345.885254 
L 553.743717 348.869871 
L 554.55101 352.661071 
L 555.358303 353.782065 
L 556.165596 362.500936 
L 556.972889 372.615121 
L 557.780182 371.741475 
L 558.587475 369.286168 
L 559.394768 367.668024 
L 560.202061 364.60306 
L 561.009354 369.754543 
L 561.816646 344.929394 
L 562.623939 343.482273 
L 563.431232 343.393725 
L 564.238525 341.001718 
L 565.045818 339.59088 
L 565.853111 333.522135 
L 566.660404 331.878679 
L 567.467697 329.873657 
L 568.27499 329.09297 
L 569.082283 328.609617 
L 569.889576 320.281572 
L 570.696869 325.808124 
L 571.504162 326.983466 
L 572.311455 320.169746 
L 573.92604 294.581328 
L 574.733333 294.393974 
L 575.540626 283.546242 
L 576.347919 282.77075 
L 577.155212 282.201832 
L 577.962505 282.60178 
L 578.769798 280.549304 
L 579.577091 286.935946 
L 580.384384 279.898086 
L 581.191677 277.724823 
L 581.99897 266.83099 
L 582.806263 278.797056 
L 583.613556 278.441419 
L 584.420848 280.742547 
L 585.228141 269.851177 
L 586.035434 273.153945 
L 586.842727 274.139802 
L 587.65002 273.852726 
L 588.457313 270.739885 
L 589.264606 270.261302 
L 590.071899 267.342374 
L 590.879192 270.360088 
L 591.686485 267.590141 
L 592.493778 269.034722 
L 593.301071 271.999229 
L 594.108364 266.162535 
L 594.915657 266.594578 
L 595.722949 266.888167 
L 596.530242 266.009019 
L 598.952121 273.976871 
L 599.759414 272.805385 
L 600.566707 277.772628 
L 601.374 274.200326 
L 602.181293 298.621192 
L 602.988586 298.730487 
L 603.795879 297.951433 
L 604.603172 298.130231 
L 605.410465 297.776237 
L 606.217758 302.014136 
L 607.025051 304.137511 
L 607.832343 304.113435 
L 608.639636 304.302579 
L 609.446929 304.866262 
L 610.254222 306.654583 
L 611.061515 304.510532 
L 611.868808 298.929784 
L 612.676101 294.631102 
L 613.483394 297.031347 
L 614.290687 316.875189 
L 615.09798 310.373796 
L 615.905273 321.828652 
L 616.712566 317.78866 
L 617.519859 297.148238 
L 618.327152 295.802275 
L 619.134444 306.307378 
L 619.941737 304.946366 
L 620.74903 310.768768 
L 621.556323 313.776563 
L 622.363616 312.342534 
L 623.170909 311.80483 
L 623.978202 312.27145 
L 624.785495 314.705119 
L 625.592788 325.978482 
L 626.400081 327.519494 
L 627.207374 326.346694 
L 628.014667 326.886801 
L 628.82196 330.307302 
L 629.629253 330.994344 
L 630.436545 333.488093 
L 631.243838 330.344533 
L 632.051131 333.317019 
L 632.858424 332.76344 
L 633.665717 331.036867 
L 634.47301 337.833866 
L 635.280303 332.895714 
L 636.087596 333.032532 
L 636.894889 310.47798 
L 637.702182 305.587621 
L 638.509475 305.146523 
L 639.316768 304.534438 
L 640.124061 308.274527 
L 640.931354 309.046174 
L 641.738646 315.643683 
L 642.545939 312.44576 
L 643.353232 313.838313 
L 644.160525 306.646519 
L 644.967818 306.922199 
L 645.775111 309.432518 
L 646.582404 308.845469 
L 647.389697 307.518422 
L 648.19699 310.332427 
L 649.004283 313.681449 
L 649.811576 306.92106 
L 650.618869 311.775684 
L 651.426162 315.246593 
L 652.233455 320.722022 
L 653.040747 332.485555 
L 653.84804 342.415043 
L 655.462626 339.529923 
L 656.269919 339.236541 
L 657.077212 342.741384 
L 657.884505 363.600704 
L 658.691798 367.553465 
L 659.499091 369.800015 
L 660.306384 372.877343 
L 661.113677 368.028237 
L 661.92097 368.23765 
L 662.728263 376.565689 
L 663.535556 374.474897 
L 664.342848 374.423968 
L 665.150141 372.349506 
L 665.957434 360.503369 
L 666.764727 352.353241 
L 667.57202 351.73799 
L 668.379313 337.596206 
L 669.186606 332.237741 
L 669.993899 331.618869 
L 670.801192 333.021151 
L 672.415778 328.748188 
L 673.223071 327.535612 
L 674.030364 330.633325 
L 674.837657 330.335804 
L 675.644949 334.689999 
L 676.452242 332.598399 
L 677.259535 352.83221 
L 678.066828 352.974925 
L 678.874121 350.012558 
L 679.681414 348.606309 
L 680.488707 348.586256 
L 681.296 344.490547 
L 682.103293 344.44806 
L 682.910586 346.150667 
L 683.717879 346.86935 
L 684.525172 349.923403 
L 685.332465 348.756989 
L 686.139758 349.639468 
L 686.947051 348.854688 
L 687.754343 343.432782 
L 688.561636 341.637403 
L 689.368929 341.61699 
L 690.176222 339.666605 
L 690.983515 340.329631 
L 691.790808 337.363946 
L 692.598101 327.718579 
L 693.405394 323.493779 
L 694.212687 324.206836 
L 695.01998 323.854566 
L 695.827273 330.918851 
L 696.634566 330.892369 
L 697.441859 331.499506 
L 698.249152 317.896579 
L 699.056444 310.045072 
L 699.863737 306.149081 
L 700.67103 306.277441 
L 701.478323 308.575501 
L 702.285616 305.448981 
L 703.092909 305.8852 
L 703.900202 301.968504 
L 704.707495 301.977328 
L 705.514788 301.803393 
L 706.322081 310.678391 
L 707.129374 314.145433 
L 707.936667 316.278053 
L 708.74396 330.092978 
L 709.551253 332.334576 
L 710.358545 332.131184 
L 711.165838 329.708735 
L 711.973131 333.029545 
L 712.780424 334.290949 
L 713.587717 332.758065 
L 714.39501 330.331832 
L 715.202303 327.166439 
L 716.009596 327.67313 
L 716.816889 329.797686 
L 717.624182 327.119254 
L 718.431475 329.655879 
L 719.238768 328.263418 
L 720.046061 329.907713 
L 720.853354 329.933912 
L 721.660646 333.812371 
L 722.467939 333.872706 
L 723.275232 336.341796 
L 724.082525 338.039012 
L 724.889818 342.144755 
L 725.697111 345.547575 
L 726.504404 345.880301 
L 727.311697 349.169781 
L 728.11899 354.327897 
L 728.926283 352.928576 
L 729.733576 348.62279 
L 730.540869 355.284337 
L 731.348162 355.907807 
L 732.155455 358.34391 
L 732.962747 367.837707 
L 733.77004 368.856816 
L 734.577333 361.828887 
L 735.384626 364.574557 
L 736.191919 361.132577 
L 736.999212 361.398159 
L 737.806505 361.979976 
L 738.613798 371.160488 
L 739.421091 377.835705 
L 740.228384 377.32151 
L 741.035677 377.853672 
L 743.457556 386.241818 
L 744.264848 384.47688 
L 745.072141 376.078319 
L 745.879434 374.94694 
L 746.686727 377.912168 
L 747.49402 378.497765 
L 748.301313 375.592282 
L 749.108606 375.543325 
L 749.915899 379.042736 
L 750.723192 379.08588 
L 751.530485 380.609768 
L 752.337778 380.507702 
L 753.145071 379.867065 
L 753.952364 382.952163 
L 754.759657 380.49246 
L 755.566949 382.012047 
L 756.374242 380.360903 
L 757.181535 379.469193 
L 757.988828 385.253733 
L 758.796121 383.305556 
L 759.603414 384.067403 
L 760.410707 383.552314 
L 761.218 383.328991 
L 762.025293 383.376944 
L 762.832586 383.553976 
L 763.639879 382.319749 
L 764.447172 377.447602 
L 765.254465 376.866138 
L 766.061758 376.607878 
L 766.869051 376.588073 
L 767.676343 371.117063 
L 768.483636 369.705758 
L 770.098222 375.857027 
L 770.905515 377.182668 
L 771.712808 369.446643 
L 772.520101 368.136271 
L 773.327394 366.430446 
L 774.134687 365.575114 
L 774.94198 368.957696 
L 775.749273 355.879917 
L 776.556566 360.565256 
L 777.363859 360.597489 
L 778.171152 359.250054 
L 778.978444 363.333313 
L 779.785737 364.080909 
L 780.59303 360.862515 
L 781.400323 359.053468 
L 782.207616 358.723426 
L 783.014909 356.479239 
L 783.822202 353.174689 
L 784.629495 343.401853 
L 785.436788 351.75815 
L 786.244081 355.42781 
L 787.051374 354.417116 
L 787.858667 358.393834 
L 788.66596 361.232897 
L 789.473253 358.992572 
L 790.280545 353.660481 
L 791.087838 352.960225 
L 791.895131 353.665642 
L 792.702424 347.733784 
L 795.124303 346.645171 
L 795.931596 345.006235 
L 796.738889 344.829048 
L 797.546182 346.194601 
L 798.353475 338.28285 
L 799.160768 339.900936 
L 799.968061 343.100299 
L 800.775354 342.72358 
L 800.775354 342.72358 
" clip-path="url(#pcb06f837bd)" style="fill: none; stroke-dasharray: 7.4,3.2; stroke-dashoffset: 0; stroke: #000000; stroke-width: 2"/>
   </g>
   <g id="patch_3">
    <path d="M 41.92 404.12 
L 41.92 10.8 
" style="fill: none; stroke: #000000; stroke-width: 0.8; stroke-linejoin: miter; stroke-linecap: square"/>
   </g>
   <g id="patch_4">
    <path d="M 841.14 404.12 
L 841.14 10.8 
" style="fill: none; stroke: #000000; stroke-width: 0.8; stroke-linejoin: miter; stroke-linecap: square"/>
   </g>
   <g id="patch_5">
    <path d="M 41.92 404.12 
L 841.14 404.12 
" style="fill: none; stroke: #000000; stroke-width: 0.8; stroke-linejoin: miter; stroke-linecap: square"/>
   </g>
   <g id="patch_6">
    <path d="M 41.92 10.8 
L 841.14 10.8 
" style="fill: none; stroke: #000000; stroke-width: 0.8; stroke-linejoin: miter; stroke-linecap: square"/>
   </g>
  </g>
 </g>
 <defs>
  <clipPath id="pcb06f837bd">
   <rect x="41.92" y="10.8" width="799.22" height="393.32"/>
  </clipPath>
 </defs>
</svg>
