<?xml version="1.0" encoding="utf-8" standalone="no"?>
<!DOCTYPE svg PUBLIC "-//W3C//DTD SVG 1.1//EN"
  "http://www.w3.org/Graphics/SVG/1.1/DTD/svg11.dtd">
<svg xmlns:xlink="http://www.w3.org/1999/xlink" width="864pt" height="432pt" viewBox="0 0 864 432" xmlns="http://www.w3.org/2000/svg" version="1.1">
 <metadata>
  <rdf:RDF xmlns:dc="http://purl.org/dc/elements/1.1/" xmlns:cc="http://creativecommons.org/ns#" xmlns:rdf="http://www.w3.org/1999/02/22-rdf-syntax-ns#">
   <cc:Work>
    <dc:type rdf:resource="http://purl.org/dc/dcmitype/StillImage"/>
    <dc:date>2024-09-18T17:54:32.093908</dc:date>
    <dc:format>image/svg+xml</dc:format>
    <dc:creator>
     <cc:Agent>
      <dc:title>Matplotlib v3.9.2, https://matplotlib.org/</dc:title>
     </cc:Agent>
    </dc:creator>
   </cc:Work>
  </rdf:RDF>
 </metadata>
 <defs>
  <style type="text/css">*{stroke-linejoin: round; stroke-linecap: butt}</style>
 </defs>
 <g id="figure_1">
  <g id="patch_1">
   <path d="M 0 432 
L 864 432 
L 864 0 
L 0 0 
z
" style="fill: #ffffff"/>
  </g>
  <g id="axes_1">
   <g id="patch_2">
    <path d="M 35.89 404.12 
L 853.2 404.12 
L 853.2 10.8 
L 35.89 10.8 
z
" style="fill: #ffffff"/>
   </g>
   <g id="matplotlib.axis_1">
    <g id="xtick_1">
     <g id="line2d_1">
      <defs>
       <path id="m7a65cd53b9" d="M 0 0 
L 0 3.5 
" style="stroke: #000000; stroke-width: 0.8"/>
      </defs>
      <g>
       <use xlink:href="#m7a65cd53b9" x="134.90787" y="404.12" style="stroke: #000000; stroke-width: 0.8"/>
      </g>
     </g>
     <g id="text_1">
      <!-- 250 -->
      <g transform="translate(125.877401 418.771563) scale(0.1 -0.1)">
       <defs>
        <path id="DejaVuSansMono-32" d="M 1166 531 
L 3309 531 
L 3309 0 
L 475 0 
L 475 531 
Q 1059 1147 1496 1619 
Q 1934 2091 2100 2284 
Q 2413 2666 2522 2902 
Q 2631 3138 2631 3384 
Q 2631 3775 2401 3997 
Q 2172 4219 1772 4219 
Q 1488 4219 1175 4116 
Q 863 4013 513 3803 
L 513 4441 
Q 834 4594 1145 4672 
Q 1456 4750 1759 4750 
Q 2444 4750 2861 4386 
Q 3278 4022 3278 3431 
Q 3278 3131 3139 2831 
Q 3000 2531 2688 2169 
Q 2513 1966 2180 1606 
Q 1847 1247 1166 531 
z
" transform="scale(0.015625)"/>
        <path id="DejaVuSansMono-35" d="M 647 4666 
L 3009 4666 
L 3009 4134 
L 1222 4134 
L 1222 2988 
Q 1356 3038 1492 3061 
Q 1628 3084 1766 3084 
Q 2491 3084 2916 2656 
Q 3341 2228 3341 1497 
Q 3341 759 2895 334 
Q 2450 -91 1678 -91 
Q 1306 -91 998 -41 
Q 691 9 447 109 
L 447 750 
Q 734 594 1025 517 
Q 1316 441 1619 441 
Q 2141 441 2423 716 
Q 2706 991 2706 1497 
Q 2706 1997 2414 2275 
Q 2122 2553 1600 2553 
Q 1347 2553 1106 2495 
Q 866 2438 647 2322 
L 647 4666 
z
" transform="scale(0.015625)"/>
        <path id="DejaVuSansMono-30" d="M 1509 2344 
Q 1509 2516 1629 2641 
Q 1750 2766 1919 2766 
Q 2094 2766 2219 2641 
Q 2344 2516 2344 2344 
Q 2344 2169 2220 2047 
Q 2097 1925 1919 1925 
Q 1744 1925 1626 2044 
Q 1509 2163 1509 2344 
z
M 1925 4250 
Q 1484 4250 1267 3775 
Q 1050 3300 1050 2328 
Q 1050 1359 1267 884 
Q 1484 409 1925 409 
Q 2369 409 2586 884 
Q 2803 1359 2803 2328 
Q 2803 3300 2586 3775 
Q 2369 4250 1925 4250 
z
M 1925 4750 
Q 2672 4750 3055 4137 
Q 3438 3525 3438 2328 
Q 3438 1134 3055 521 
Q 2672 -91 1925 -91 
Q 1178 -91 797 521 
Q 416 1134 416 2328 
Q 416 3525 797 4137 
Q 1178 4750 1925 4750 
z
" transform="scale(0.015625)"/>
       </defs>
       <use xlink:href="#DejaVuSansMono-32"/>
       <use xlink:href="#DejaVuSansMono-35" x="60.205078"/>
       <use xlink:href="#DejaVuSansMono-30" x="120.410156"/>
      </g>
     </g>
    </g>
    <g id="xtick_2">
     <g id="line2d_2">
      <g>
       <use xlink:href="#m7a65cd53b9" x="238.051484" y="404.12" style="stroke: #000000; stroke-width: 0.8"/>
      </g>
     </g>
     <g id="text_2">
      <!-- 500 -->
      <g transform="translate(229.021015 418.771563) scale(0.1 -0.1)">
       <use xlink:href="#DejaVuSansMono-35"/>
       <use xlink:href="#DejaVuSansMono-30" x="60.205078"/>
       <use xlink:href="#DejaVuSansMono-30" x="120.410156"/>
      </g>
     </g>
    </g>
    <g id="xtick_3">
     <g id="line2d_3">
      <g>
       <use xlink:href="#m7a65cd53b9" x="341.195098" y="404.12" style="stroke: #000000; stroke-width: 0.8"/>
      </g>
     </g>
     <g id="text_3">
      <!-- 750 -->
      <g transform="translate(332.16463 418.771563) scale(0.1 -0.1)">
       <defs>
        <path id="DejaVuSansMono-37" d="M 434 4666 
L 3372 4666 
L 3372 4397 
L 1703 0 
L 1044 0 
L 2669 4134 
L 434 4134 
L 434 4666 
z
" transform="scale(0.015625)"/>
       </defs>
       <use xlink:href="#DejaVuSansMono-37"/>
       <use xlink:href="#DejaVuSansMono-35" x="60.205078"/>
       <use xlink:href="#DejaVuSansMono-30" x="120.410156"/>
      </g>
     </g>
    </g>
    <g id="xtick_4">
     <g id="line2d_4">
      <g>
       <use xlink:href="#m7a65cd53b9" x="444.338713" y="404.12" style="stroke: #000000; stroke-width: 0.8"/>
      </g>
     </g>
     <g id="text_4">
      <!-- 1000 -->
      <g transform="translate(432.298088 418.771563) scale(0.1 -0.1)">
       <defs>
        <path id="DejaVuSansMono-31" d="M 844 531 
L 1825 531 
L 1825 4097 
L 769 3859 
L 769 4434 
L 1819 4666 
L 2450 4666 
L 2450 531 
L 3419 531 
L 3419 0 
L 844 0 
L 844 531 
z
" transform="scale(0.015625)"/>
       </defs>
       <use xlink:href="#DejaVuSansMono-31"/>
       <use xlink:href="#DejaVuSansMono-30" x="60.205078"/>
       <use xlink:href="#DejaVuSansMono-30" x="120.410156"/>
       <use xlink:href="#DejaVuSansMono-30" x="180.615234"/>
      </g>
     </g>
    </g>
    <g id="xtick_5">
     <g id="line2d_5">
      <g>
       <use xlink:href="#m7a65cd53b9" x="547.482327" y="404.12" style="stroke: #000000; stroke-width: 0.8"/>
      </g>
     </g>
     <g id="text_5">
      <!-- 1250 -->
      <g transform="translate(535.441702 418.771563) scale(0.1 -0.1)">
       <use xlink:href="#DejaVuSansMono-31"/>
       <use xlink:href="#DejaVuSansMono-32" x="60.205078"/>
       <use xlink:href="#DejaVuSansMono-35" x="120.410156"/>
       <use xlink:href="#DejaVuSansMono-30" x="180.615234"/>
      </g>
     </g>
    </g>
    <g id="xtick_6">
     <g id="line2d_6">
      <g>
       <use xlink:href="#m7a65cd53b9" x="650.625941" y="404.12" style="stroke: #000000; stroke-width: 0.8"/>
      </g>
     </g>
     <g id="text_6">
      <!-- 1500 -->
      <g transform="translate(638.585316 418.771563) scale(0.1 -0.1)">
       <use xlink:href="#DejaVuSansMono-31"/>
       <use xlink:href="#DejaVuSansMono-35" x="60.205078"/>
       <use xlink:href="#DejaVuSansMono-30" x="120.410156"/>
       <use xlink:href="#DejaVuSansMono-30" x="180.615234"/>
      </g>
     </g>
    </g>
    <g id="xtick_7">
     <g id="line2d_7">
      <g>
       <use xlink:href="#m7a65cd53b9" x="753.769556" y="404.12" style="stroke: #000000; stroke-width: 0.8"/>
      </g>
     </g>
     <g id="text_7">
      <!-- 1750 -->
      <g transform="translate(741.728931 418.771563) scale(0.1 -0.1)">
       <use xlink:href="#DejaVuSansMono-31"/>
       <use xlink:href="#DejaVuSansMono-37" x="60.205078"/>
       <use xlink:href="#DejaVuSansMono-35" x="120.410156"/>
       <use xlink:href="#DejaVuSansMono-30" x="180.615234"/>
      </g>
     </g>
    </g>
   </g>
   <g id="matplotlib.axis_2">
    <g id="ytick_1">
     <g id="line2d_8">
      <defs>
       <path id="m011bf8d57f" d="M 0 0 
L -3.5 0 
" style="stroke: #000000; stroke-width: 0.8"/>
      </defs>
      <g>
       <use xlink:href="#m011bf8d57f" x="35.89" y="335.621641" style="stroke: #000000; stroke-width: 0.8"/>
      </g>
     </g>
     <g id="text_8">
      <!-- 0.2 -->
      <g transform="translate(10.829063 339.447422) scale(0.1 -0.1)">
       <defs>
        <path id="DejaVuSansMono-2e" d="M 1528 953 
L 2316 953 
L 2316 0 
L 1528 0 
L 1528 953 
z
" transform="scale(0.015625)"/>
       </defs>
       <use xlink:href="#DejaVuSansMono-30"/>
       <use xlink:href="#DejaVuSansMono-2e" x="60.205078"/>
       <use xlink:href="#DejaVuSansMono-32" x="120.410156"/>
      </g>
     </g>
    </g>
    <g id="ytick_2">
     <g id="line2d_9">
      <g>
       <use xlink:href="#m011bf8d57f" x="35.89" y="256.846787" style="stroke: #000000; stroke-width: 0.8"/>
      </g>
     </g>
     <g id="text_9">
      <!-- 0.4 -->
      <g transform="translate(10.829063 260.672568) scale(0.1 -0.1)">
       <defs>
        <path id="DejaVuSansMono-34" d="M 2297 4091 
L 825 1625 
L 2297 1625 
L 2297 4091 
z
M 2194 4666 
L 2925 4666 
L 2925 1625 
L 3547 1625 
L 3547 1113 
L 2925 1113 
L 2925 0 
L 2297 0 
L 2297 1113 
L 319 1113 
L 319 1709 
L 2194 4666 
z
" transform="scale(0.015625)"/>
       </defs>
       <use xlink:href="#DejaVuSansMono-30"/>
       <use xlink:href="#DejaVuSansMono-2e" x="60.205078"/>
       <use xlink:href="#DejaVuSansMono-34" x="120.410156"/>
      </g>
     </g>
    </g>
    <g id="ytick_3">
     <g id="line2d_10">
      <g>
       <use xlink:href="#m011bf8d57f" x="35.89" y="178.071932" style="stroke: #000000; stroke-width: 0.8"/>
      </g>
     </g>
     <g id="text_10">
      <!-- 0.6 -->
      <g transform="translate(10.829063 181.897713) scale(0.1 -0.1)">
       <defs>
        <path id="DejaVuSansMono-36" d="M 3097 4563 
L 3097 3981 
Q 2900 4097 2678 4158 
Q 2456 4219 2216 4219 
Q 1616 4219 1306 3767 
Q 997 3316 997 2438 
Q 1147 2750 1412 2917 
Q 1678 3084 2022 3084 
Q 2697 3084 3067 2670 
Q 3438 2256 3438 1497 
Q 3438 741 3056 325 
Q 2675 -91 1984 -91 
Q 1172 -91 794 492 
Q 416 1075 416 2328 
Q 416 3509 870 4129 
Q 1325 4750 2188 4750 
Q 2419 4750 2650 4701 
Q 2881 4653 3097 4563 
z
M 1972 2591 
Q 1569 2591 1337 2300 
Q 1106 2009 1106 1497 
Q 1106 984 1337 693 
Q 1569 403 1972 403 
Q 2391 403 2603 679 
Q 2816 956 2816 1497 
Q 2816 2041 2603 2316 
Q 2391 2591 1972 2591 
z
" transform="scale(0.015625)"/>
       </defs>
       <use xlink:href="#DejaVuSansMono-30"/>
       <use xlink:href="#DejaVuSansMono-2e" x="60.205078"/>
       <use xlink:href="#DejaVuSansMono-36" x="120.410156"/>
      </g>
     </g>
    </g>
    <g id="ytick_4">
     <g id="line2d_11">
      <g>
       <use xlink:href="#m011bf8d57f" x="35.89" y="99.297077" style="stroke: #000000; stroke-width: 0.8"/>
      </g>
     </g>
     <g id="text_11">
      <!-- 0.8 -->
      <g transform="translate(10.829063 103.122859) scale(0.1 -0.1)">
       <defs>
        <path id="DejaVuSansMono-38" d="M 1925 2216 
Q 1503 2216 1273 1980 
Q 1044 1744 1044 1313 
Q 1044 881 1276 642 
Q 1509 403 1925 403 
Q 2350 403 2579 639 
Q 2809 875 2809 1313 
Q 2809 1741 2576 1978 
Q 2344 2216 1925 2216 
z
M 1375 2478 
Q 972 2581 745 2862 
Q 519 3144 519 3541 
Q 519 4097 897 4423 
Q 1275 4750 1925 4750 
Q 2578 4750 2956 4423 
Q 3334 4097 3334 3541 
Q 3334 3144 3107 2862 
Q 2881 2581 2478 2478 
Q 2947 2375 3195 2062 
Q 3444 1750 3444 1253 
Q 3444 622 3041 265 
Q 2638 -91 1925 -91 
Q 1213 -91 811 264 
Q 409 619 409 1247 
Q 409 1747 657 2061 
Q 906 2375 1375 2478 
z
M 1147 3481 
Q 1147 3106 1347 2909 
Q 1547 2713 1925 2713 
Q 2306 2713 2506 2909 
Q 2706 3106 2706 3481 
Q 2706 3863 2507 4063 
Q 2309 4263 1925 4263 
Q 1547 4263 1347 4061 
Q 1147 3859 1147 3481 
z
" transform="scale(0.015625)"/>
       </defs>
       <use xlink:href="#DejaVuSansMono-30"/>
       <use xlink:href="#DejaVuSansMono-2e" x="60.205078"/>
       <use xlink:href="#DejaVuSansMono-38" x="120.410156"/>
      </g>
     </g>
    </g>
    <g id="ytick_5">
     <g id="line2d_12">
      <g>
       <use xlink:href="#m011bf8d57f" x="35.89" y="20.522223" style="stroke: #000000; stroke-width: 0.8"/>
      </g>
     </g>
     <g id="text_12">
      <!-- 1.0 -->
      <g transform="translate(10.829063 24.348004) scale(0.1 -0.1)">
       <use xlink:href="#DejaVuSansMono-31"/>
       <use xlink:href="#DejaVuSansMono-2e" x="60.205078"/>
       <use xlink:href="#DejaVuSansMono-30" x="120.410156"/>
      </g>
     </g>
    </g>
   </g>
   <g id="line2d_13">
    <path d="M 35.477426 344.874797 
L 35.89 340.499143 
L 36.302574 342.79451 
L 36.715149 341.579523 
L 37.540298 329.868357 
L 37.952872 327.98425 
L 38.365447 334.44464 
L 38.778021 334.221766 
L 39.190596 327.836971 
L 39.60317 331.915012 
L 40.015745 333.229057 
L 40.428319 330.59862 
L 40.840893 337.55988 
L 41.253468 336.616182 
L 41.666042 336.347812 
L 42.078617 339.855225 
L 42.491191 333.59736 
L 43.31634 352.210202 
L 43.728915 349.686788 
L 44.554064 362.523295 
L 44.966638 354.784011 
L 45.379213 363.10767 
L 45.791787 363.740644 
L 46.204361 359.834068 
L 46.616936 365.984954 
L 47.02951 358.960085 
L 47.442085 354.97335 
L 47.854659 357.71964 
L 48.679808 339.198009 
L 49.092383 338.806928 
L 49.504957 331.199185 
L 49.917532 334.798382 
L 50.330106 333.065385 
L 50.74268 327.455316 
L 51.155255 337.397773 
L 51.567829 333.014589 
L 51.980404 327.101163 
L 52.392978 329.260527 
L 53.218127 331.710625 
L 53.630702 336.846686 
L 54.043276 330.550753 
L 54.455851 336.991734 
L 54.868425 336.510105 
L 55.280999 326.252277 
L 55.693574 331.177239 
L 56.106148 340.345926 
L 56.518723 339.027217 
L 56.931297 338.328754 
L 57.343872 336.711533 
L 57.756446 336.111756 
L 58.169021 338.25269 
L 58.99417 343.766732 
L 59.406744 345.106652 
L 59.819319 348.589644 
L 60.231893 340.268709 
L 60.644467 349.935302 
L 61.057042 349.939626 
L 61.469616 348.888677 
L 61.882191 342.550302 
L 62.294765 342.83226 
L 62.70734 334.187137 
L 63.532489 329.583561 
L 63.945063 320.428344 
L 64.357638 320.140613 
L 64.770212 311.504966 
L 65.182786 314.160754 
L 65.595361 321.07223 
L 66.007935 321.716285 
L 66.42051 328.784339 
L 66.833084 333.804153 
L 67.245659 333.785819 
L 67.658233 337.563425 
L 68.070808 342.771488 
L 68.483382 343.050757 
L 69.308531 348.154105 
L 69.721106 342.30127 
L 70.13368 341.781149 
L 70.546254 338.699319 
L 70.958829 333.214533 
L 71.371403 334.196521 
L 71.783978 330.946239 
L 72.196552 324.411619 
L 72.609127 324.200492 
L 73.021701 322.509335 
L 73.434276 317.002867 
L 73.84685 320.166873 
L 74.259425 319.944471 
L 74.671999 312.177287 
L 75.084573 311.019493 
L 75.497148 308.842243 
L 75.909722 310.129346 
L 76.322297 309.0206 
L 76.734871 312.28225 
L 77.147446 312.063275 
L 77.56002 323.165771 
L 77.972595 324.070055 
L 78.385169 332.678742 
L 78.797744 344.31644 
L 79.622892 360.225123 
L 80.035467 369.589966 
L 80.860616 374.30792 
L 81.27319 371.561352 
L 81.685765 360.764799 
L 82.098339 365.311695 
L 82.510914 363.138236 
L 84.161212 326.342803 
L 84.573786 328.286598 
L 84.98636 321.951075 
L 85.811509 331.406896 
L 86.224084 323.304073 
L 86.636658 327.917907 
L 87.049233 326.331974 
L 87.874382 348.085999 
L 88.286956 351.311625 
L 88.699531 350.902405 
L 89.112105 353.40219 
L 89.524679 359.532922 
L 89.937254 353.894941 
L 90.349828 354.241498 
L 90.762403 342.962951 
L 91.174977 342.786722 
L 91.587552 332.126062 
L 92.000126 330.039311 
L 92.412701 326.125483 
L 93.23785 321.519775 
L 93.650424 312.956261 
L 94.062998 312.753327 
L 94.475573 313.01551 
L 95.300722 314.603156 
L 95.713296 318.754738 
L 96.125871 320.841489 
L 96.538445 326.310219 
L 96.95102 336.790994 
L 97.776169 351.627831 
L 98.188743 363.093001 
L 98.601318 364.711906 
L 99.426466 386.241818 
L 99.839041 381.969391 
L 100.251615 381.969391 
L 100.66419 380.246254 
L 101.076764 379.7067 
L 101.901913 363.815177 
L 102.314488 352.440146 
L 102.727062 349.308555 
L 103.139637 349.308555 
L 103.552211 338.108945 
L 103.964785 338.658199 
L 104.37736 331.496849 
L 104.789934 327.381856 
L 105.202509 316.112951 
L 105.615083 317.667052 
L 106.027658 316.275336 
L 106.440232 317.871122 
L 106.852807 328.925895 
L 107.265381 327.410994 
L 107.677956 328.081457 
L 108.09053 334.19671 
L 108.503104 330.920391 
L 108.915679 331.530859 
L 109.328253 336.541488 
L 109.740828 338.182631 
L 110.565977 343.332287 
L 110.978551 340.939853 
L 111.391126 337.325228 
L 112.216275 335.588908 
L 112.628849 342.42544 
L 113.041424 345.126927 
L 113.453998 344.60497 
L 113.866572 342.415273 
L 114.279147 343.397533 
L 114.691721 340.96102 
L 115.104296 331.458593 
L 115.51687 324.591947 
L 115.929445 330.827952 
L 116.342019 325.580202 
L 116.754594 322.918902 
L 117.167168 325.56702 
L 117.579743 320.242368 
L 117.992317 320.645317 
L 118.404891 321.293543 
L 118.817466 320.461999 
L 119.23004 323.282275 
L 119.642615 327.860187 
L 120.055189 321.744998 
L 120.467764 331.009213 
L 120.880338 324.992038 
L 121.292913 316.86511 
L 121.705487 320.841765 
L 122.118062 321.968332 
L 122.530636 321.465103 
L 122.94321 321.996251 
L 123.355785 331.61411 
L 123.768359 333.124257 
L 124.180934 340.98242 
L 124.593508 338.599122 
L 125.006083 341.80926 
L 125.418657 352.782393 
L 126.243806 361.737751 
L 127.068955 359.07084 
L 127.48153 348.096016 
L 127.894104 342.171692 
L 128.306678 337.955607 
L 128.719253 329.15537 
L 129.131827 326.564092 
L 130.369551 302.447106 
L 130.782125 299.914254 
L 131.1947 299.98152 
L 131.607274 302.203583 
L 132.019849 314.03602 
L 132.432423 308.916773 
L 132.844997 320.402986 
L 133.257572 321.272662 
L 134.495295 339.527628 
L 134.90787 339.070982 
L 135.320444 351.108146 
L 135.733019 350.612039 
L 136.145593 349.575527 
L 136.558168 352.814515 
L 136.970742 341.578701 
L 137.383317 341.557543 
L 137.795891 344.411704 
L 138.208465 345.972409 
L 138.62104 353.371235 
L 139.033614 358.175978 
L 139.446189 348.927109 
L 139.858763 352.83531 
L 140.271338 341.376499 
L 140.683912 342.744692 
L 141.096487 345.650797 
L 141.509061 351.630218 
L 141.921636 351.129284 
L 142.33421 341.559514 
L 142.746784 329.328404 
L 143.159359 327.114024 
L 143.571933 324.227591 
L 143.984508 317.172217 
L 144.397082 316.880896 
L 144.809657 312.337656 
L 145.222231 310.771122 
L 145.634806 307.765641 
L 146.04738 303.148113 
L 146.459955 304.837272 
L 146.872529 305.227121 
L 147.285103 302.855123 
L 147.697678 314.990425 
L 148.110252 322.625351 
L 148.935401 324.706671 
L 149.347976 335.650744 
L 149.76055 340.358911 
L 150.173125 338.917724 
L 150.585699 343.815047 
L 151.410848 365.841357 
L 151.823423 365.270525 
L 152.235997 357.144991 
L 152.648571 367.374031 
L 153.061146 373.115806 
L 153.47372 362.433088 
L 153.886295 357.450899 
L 154.298869 354.44491 
L 154.711444 349.020363 
L 155.124018 339.31496 
L 155.536593 335.19302 
L 155.949167 325.816173 
L 156.361742 330.114589 
L 156.774316 319.874607 
L 157.18689 313.669317 
L 157.599465 312.120321 
L 158.837188 305.731985 
L 159.662337 314.129517 
L 160.074912 313.259522 
L 160.487486 311.084914 
L 160.900061 322.966038 
L 161.312635 323.549473 
L 161.725209 330.141553 
L 162.137784 330.146658 
L 162.550358 342.820214 
L 162.962933 343.410287 
L 163.375507 341.257385 
L 163.788082 341.257385 
L 164.200656 342.296111 
L 164.613231 342.118004 
L 165.025805 338.796173 
L 165.43838 347.992978 
L 165.850954 342.453974 
L 166.263529 340.272365 
L 166.676103 327.590807 
L 167.088677 325.531362 
L 167.501252 334.59716 
L 167.913826 326.286051 
L 168.326401 325.602713 
L 168.738975 336.543664 
L 169.15155 326.892651 
L 169.564124 328.710133 
L 169.976699 331.625039 
L 170.389273 332.231231 
L 170.801848 341.570825 
L 171.214422 343.756781 
L 171.626996 332.796132 
L 172.039571 327.722487 
L 172.452145 326.432071 
L 172.86472 313.198895 
L 173.277294 319.438845 
L 173.689869 308.810227 
L 174.102443 311.325951 
L 174.515018 321.13473 
L 174.927592 313.126338 
L 175.340167 313.604382 
L 176.165315 334.565564 
L 176.57789 333.725008 
L 176.990464 346.958185 
L 177.403039 342.321511 
L 177.815613 340.986505 
L 178.228188 338.203868 
L 178.640762 329.725816 
L 179.053337 327.595354 
L 179.465911 330.58798 
L 180.29106 309.741898 
L 180.703635 321.291781 
L 181.116209 307.441258 
L 181.941358 326.067035 
L 182.766507 320.691978 
L 183.179081 330.258517 
L 183.591656 326.751467 
L 184.00423 328.423143 
L 184.416805 328.868348 
L 184.829379 315.718055 
L 185.241954 324.964852 
L 185.654528 324.896191 
L 186.067102 316.255225 
L 186.479677 327.299099 
L 186.892251 327.946107 
L 187.304826 319.328021 
L 187.7174 317.909321 
L 188.129975 314.665412 
L 188.542549 328.744321 
L 188.955124 335.314617 
L 189.367698 325.403713 
L 189.780273 318.29259 
L 190.192847 318.476771 
L 190.605422 305.902151 
L 191.017996 304.089785 
L 191.843145 307.187141 
L 192.255719 319.590916 
L 192.668294 319.590916 
L 193.080868 324.782966 
L 193.493443 324.306859 
L 193.906017 320.758442 
L 194.318592 322.100489 
L 194.731166 329.569684 
L 195.143741 331.346449 
L 195.556315 338.593932 
L 195.968889 337.505507 
L 196.794038 314.579927 
L 197.206613 317.011249 
L 197.619187 322.008161 
L 198.031762 320.358898 
L 198.444336 317.717872 
L 198.856911 323.948651 
L 199.269485 320.922197 
L 199.68206 312.499086 
L 200.094634 323.60108 
L 200.507208 324.822496 
L 200.919783 324.778732 
L 201.332357 311.6142 
L 201.744932 308.312691 
L 202.157506 312.990913 
L 202.570081 313.698214 
L 202.982655 301.369055 
L 203.39523 302.588598 
L 203.807804 305.566099 
L 204.220379 295.584949 
L 204.632953 295.197701 
L 205.458102 294.840425 
L 205.870676 295.581015 
L 206.283251 304.192906 
L 206.695825 302.750015 
L 207.1084 307.201688 
L 207.520974 320.769932 
L 207.933549 325.807618 
L 209.171272 354.547487 
L 209.583847 353.298354 
L 209.996421 359.288526 
L 210.408995 345.026239 
L 210.82157 346.846078 
L 211.234144 347.484793 
L 211.646719 346.414483 
L 212.059293 337.739006 
L 212.884442 313.705201 
L 213.297017 309.546968 
L 213.709591 314.16233 
L 214.122166 307.77518 
L 214.53474 315.812828 
L 214.947314 313.118578 
L 215.359889 306.717887 
L 215.772463 293.604375 
L 216.185038 304.627309 
L 216.597612 318.83261 
L 217.010187 320.125802 
L 217.422761 324.815673 
L 218.24791 320.27949 
L 218.660485 327.066748 
L 219.073059 331.037196 
L 219.485634 331.031727 
L 219.898208 335.084893 
L 220.310782 327.356339 
L 220.723357 312.468269 
L 221.135931 316.116435 
L 221.548506 304.079408 
L 221.96108 299.229213 
L 222.373655 300.599628 
L 222.786229 287.666198 
L 223.198804 281.996342 
L 223.611378 282.397965 
L 224.023953 279.788467 
L 224.436527 274.633233 
L 224.849101 287.348204 
L 225.261676 285.342847 
L 226.086825 298.35285 
L 226.911974 318.241733 
L 227.324548 320.710046 
L 227.737123 320.533742 
L 228.149697 319.074445 
L 228.562272 333.040689 
L 228.974846 326.262101 
L 229.38742 322.893297 
L 229.799995 314.877421 
L 230.212569 325.242534 
L 230.625144 319.40292 
L 231.037718 307.434899 
L 231.450293 304.22861 
L 231.862867 317.648221 
L 232.275442 322.021823 
L 232.688016 313.540773 
L 233.100591 321.382955 
L 233.513165 321.682397 
L 233.92574 323.817331 
L 234.338314 312.832791 
L 234.750888 310.5305 
L 235.163463 309.76674 
L 235.576037 311.812396 
L 235.988612 296.957708 
L 236.813761 291.033835 
L 237.226335 289.388974 
L 237.63891 295.035083 
L 238.051484 294.850159 
L 238.464059 302.299931 
L 238.876633 300.206253 
L 239.289207 307.736203 
L 239.701782 312.367899 
L 240.114356 312.498314 
L 240.526931 316.25042 
L 240.939505 325.831146 
L 241.35208 314.62541 
L 241.764654 310.633675 
L 242.177229 314.955578 
L 242.589803 316.271337 
L 243.002378 320.763979 
L 243.414952 315.215022 
L 243.827527 313.780673 
L 244.240101 311.719989 
L 244.652675 307.890877 
L 245.06525 308.894572 
L 245.477824 307.728329 
L 245.890399 307.836284 
L 246.302973 301.628483 
L 246.715548 287.482294 
L 247.128122 281.597912 
L 247.540697 280.31567 
L 247.953271 278.099657 
L 248.365846 282.326303 
L 248.77842 283.755642 
L 249.190994 280.090634 
L 249.603569 290.262585 
L 250.016143 292.449531 
L 251.666441 347.788393 
L 252.079016 350.493191 
L 252.49159 349.150056 
L 252.904165 359.27514 
L 253.316739 361.330265 
L 253.729313 350.442484 
L 254.141888 346.057202 
L 254.967037 316.60647 
L 255.792186 290.260302 
L 256.20476 291.782522 
L 256.617335 294.83233 
L 257.442484 272.170821 
L 257.855058 273.342374 
L 258.267633 273.682603 
L 258.680207 277.080905 
L 259.092781 290.603989 
L 259.505356 292.199572 
L 259.91793 292.149084 
L 260.330505 287.450331 
L 260.743079 284.354302 
L 261.155654 282.188217 
L 261.568228 288.489272 
L 261.980803 288.409225 
L 262.393377 299.813532 
L 262.805952 306.428128 
L 263.218526 295.800532 
L 263.6311 302.246212 
L 264.043675 302.826082 
L 264.456249 301.848521 
L 264.868824 299.451746 
L 265.281398 301.13847 
L 265.693973 294.137649 
L 266.106547 298.338115 
L 266.519122 294.816969 
L 267.344271 284.593811 
L 267.756845 290.504455 
L 268.169419 291.692181 
L 268.581994 294.266613 
L 268.994568 294.909765 
L 269.407143 290.51153 
L 269.819717 287.779981 
L 270.232292 280.770464 
L 270.644866 267.692807 
L 271.057441 263.619392 
L 271.470015 260.873668 
L 271.88259 248.144849 
L 272.295164 251.943651 
L 272.707739 249.987209 
L 273.120313 254.705468 
L 273.532887 257.639508 
L 273.945462 255.762318 
L 274.358036 255.637886 
L 274.770611 263.379174 
L 275.183185 261.296588 
L 275.59576 264.54893 
L 276.008334 260.835077 
L 276.420909 256.018293 
L 276.833483 264.976753 
L 277.658632 273.066554 
L 278.071206 279.079665 
L 278.483781 282.50932 
L 278.896355 272.570775 
L 279.30893 283.374982 
L 279.721504 284.54741 
L 280.134079 296.834423 
L 280.546653 295.372852 
L 281.371802 274.565486 
L 282.196951 274.164988 
L 282.609525 283.692994 
L 283.0221 296.033157 
L 283.434674 291.32451 
L 283.847249 289.801971 
L 284.259823 275.738128 
L 285.084972 280.200045 
L 285.497547 279.872496 
L 285.910121 285.553263 
L 286.322696 281.206681 
L 286.73527 274.116944 
L 287.560419 255.994882 
L 287.972993 255.88734 
L 288.385568 258.182085 
L 288.798142 255.551378 
L 289.210717 266.109381 
L 289.623291 269.410569 
L 290.035866 257.910334 
L 290.44844 266.221174 
L 290.861015 265.043612 
L 291.273589 264.295752 
L 291.686164 281.865632 
L 292.098738 276.653314 
L 292.923887 275.300679 
L 293.336461 259.864659 
L 293.749036 255.187702 
L 294.16161 252.828974 
L 294.986759 237.638705 
L 295.399334 246.651082 
L 295.811908 231.4967 
L 296.224483 237.275444 
L 296.637057 234.511394 
L 297.049631 237.381671 
L 297.462206 242.654387 
L 297.87478 242.536521 
L 298.287355 241.599745 
L 298.699929 241.014153 
L 299.112504 245.566822 
L 299.525078 240.89716 
L 299.937653 246.569385 
L 300.350227 240.235766 
L 300.762802 248.832641 
L 301.175376 245.063174 
L 301.587951 237.661544 
L 302.000525 236.565665 
L 302.413099 238.289125 
L 302.825674 239.482303 
L 303.238248 234.256671 
L 303.650823 242.957843 
L 304.063397 236.994679 
L 304.475972 237.978558 
L 305.301121 257.904078 
L 305.713695 260.575904 
L 306.538844 257.437024 
L 306.951418 253.042595 
L 307.363993 267.521541 
L 307.776567 255.303136 
L 308.189142 255.468852 
L 308.601716 259.204894 
L 309.014291 240.89931 
L 309.426865 228.812669 
L 309.83944 227.841681 
L 310.664589 233.061997 
L 311.077163 230.543659 
L 311.489738 217.915935 
L 311.902312 215.334627 
L 312.314886 212.032476 
L 312.727461 225.165384 
L 313.965184 222.678754 
L 314.377759 220.614784 
L 314.790333 226.825404 
L 315.202908 227.996391 
L 315.615482 222.179336 
L 316.028057 223.935161 
L 316.440631 223.381892 
L 316.853205 203.549013 
L 317.26578 201.526302 
L 317.678354 203.123232 
L 318.090929 207.115836 
L 318.503503 203.138755 
L 318.916078 192.982887 
L 319.328652 190.106743 
L 319.741227 193.448434 
L 320.566376 188.375045 
L 321.391524 190.904379 
L 321.804099 190.099496 
L 322.216673 184.573307 
L 322.629248 189.127627 
L 323.041822 190.434701 
L 323.454397 189.264511 
L 323.866971 186.484907 
L 324.69212 184.231875 
L 325.104695 185.564389 
L 325.517269 181.225527 
L 325.929844 181.756303 
L 326.342418 179.585393 
L 326.754992 179.738747 
L 327.167567 179.151376 
L 327.580141 188.513413 
L 327.992716 186.132652 
L 328.40529 193.220359 
L 328.817865 195.628342 
L 329.230439 194.903015 
L 329.643014 198.080288 
L 330.055588 196.957637 
L 330.468163 206.204868 
L 330.880737 202.265533 
L 331.293311 202.864342 
L 331.705886 194.116986 
L 332.11846 195.197372 
L 332.531035 186.708941 
L 333.356184 180.422874 
L 334.181333 177.635384 
L 334.593907 168.462848 
L 335.006482 168.64617 
L 335.419056 167.056739 
L 335.83163 167.08428 
L 336.656779 174.102408 
L 337.481928 180.926229 
L 337.894503 179.822167 
L 338.307077 180.436917 
L 338.719652 180.118493 
L 339.132226 177.407848 
L 339.544801 175.468364 
L 339.957375 182.187917 
L 340.782524 172.263631 
L 341.195098 166.988165 
L 341.607673 166.797796 
L 342.020247 169.72597 
L 342.432822 165.106985 
L 342.845396 177.848044 
L 343.670545 186.440856 
L 344.08312 180.851022 
L 344.495694 182.602281 
L 344.908269 185.923737 
L 345.320843 192.076696 
L 345.733417 186.371398 
L 346.145992 182.709058 
L 346.558566 191.603954 
L 346.971141 177.912701 
L 348.208864 168.137486 
L 348.621439 163.856242 
L 349.034013 167.836555 
L 349.446588 163.556136 
L 349.859162 164.477339 
L 350.271736 164.634176 
L 350.684311 160.351559 
L 351.096885 167.396558 
L 351.50946 167.299756 
L 351.922034 174.281366 
L 352.334609 173.202122 
L 352.747183 175.556125 
L 353.159758 171.131978 
L 353.572332 169.466334 
L 353.984907 168.943112 
L 354.397481 166.813857 
L 354.810056 165.68606 
L 355.22263 155.69194 
L 355.635204 152.03421 
L 356.047779 145.333586 
L 356.460353 145.112367 
L 356.872928 145.073499 
L 357.285502 154.714364 
L 357.698077 157.084296 
L 358.110651 161.105656 
L 358.523226 159.42706 
L 358.9358 157.246745 
L 359.348375 169.818811 
L 359.760949 171.366313 
L 360.586098 171.781694 
L 360.998672 170.548689 
L 361.411247 156.190453 
L 361.823821 157.554519 
L 362.236396 157.05697 
L 362.64897 159.286485 
L 363.061545 165.888561 
L 363.474119 152.179848 
L 363.886694 152.992791 
L 364.299268 151.232332 
L 365.124417 153.745523 
L 365.536991 150.886423 
L 366.36214 140.521247 
L 366.774715 145.279906 
L 367.187289 135.871435 
L 367.599864 136.866741 
L 368.012438 136.220227 
L 368.425013 133.932766 
L 368.837587 133.409693 
L 369.250162 133.086566 
L 370.07531 143.795054 
L 370.487885 149.71392 
L 370.900459 145.797242 
L 371.313034 152.078877 
L 371.725608 151.945849 
L 372.138183 151.454917 
L 372.550757 151.537689 
L 372.963332 151.231916 
L 373.375906 150.176921 
L 373.788481 146.02252 
L 374.613629 134.279809 
L 375.026204 135.440529 
L 375.438778 130.222958 
L 375.851353 131.059876 
L 376.676502 127.015257 
L 377.089076 121.951146 
L 378.3268 126.711008 
L 378.739374 127.152192 
L 379.151949 125.062788 
L 379.564523 130.856368 
L 379.977097 128.147298 
L 380.389672 127.35698 
L 381.214821 132.729645 
L 381.627395 131.591171 
L 382.03997 132.848578 
L 382.865119 128.209889 
L 383.277693 128.811694 
L 383.690268 123.612172 
L 384.515416 128.092353 
L 384.927991 125.02188 
L 385.340565 125.913517 
L 385.75314 124.946661 
L 386.165714 121.808305 
L 386.578289 123.316272 
L 386.990863 123.505043 
L 387.403438 119.774808 
L 388.228587 114.906506 
L 388.641161 116.544863 
L 389.053735 121.369416 
L 389.46631 121.650712 
L 389.878884 118.456475 
L 390.704033 120.13535 
L 391.116608 120.010646 
L 391.529182 122.777762 
L 391.941757 124.35022 
L 392.354331 121.532549 
L 393.17948 110.642581 
L 393.592055 111.438344 
L 394.004629 114.540595 
L 394.829778 109.339578 
L 395.242352 108.325394 
L 395.654927 106.185966 
L 396.067501 106.511159 
L 396.480076 111.829619 
L 396.89265 110.212818 
L 397.305225 110.590296 
L 397.717799 107.750118 
L 398.130374 106.677508 
L 398.542948 107.666855 
L 398.955522 106.241724 
L 399.368097 106.097377 
L 400.60582 99.28853 
L 401.018395 106.48472 
L 401.843544 104.914248 
L 402.256118 103.635538 
L 402.668693 108.039166 
L 403.081267 109.324707 
L 404.31899 116.127897 
L 404.731565 113.490276 
L 405.144139 108.088693 
L 405.556714 110.587798 
L 405.969288 111.055107 
L 406.381863 109.128031 
L 406.794437 104.445425 
L 407.207012 104.853967 
L 407.619586 102.938237 
L 408.032161 101.635482 
L 408.857309 109.089694 
L 409.269884 108.864728 
L 409.682458 108.920147 
L 410.095033 108.402339 
L 410.507607 110.818779 
L 410.920182 116.727544 
L 411.332756 114.690527 
L 411.745331 113.472612 
L 412.157905 116.253307 
L 412.57048 108.006646 
L 412.983054 104.594875 
L 413.395628 106.861228 
L 413.808203 103.382515 
L 414.220777 106.122887 
L 414.633352 105.816891 
L 415.045926 99.470892 
L 415.458501 99.385848 
L 416.28365 101.320812 
L 416.696224 103.111817 
L 417.108799 101.895692 
L 417.521373 101.326965 
L 417.933948 102.976288 
L 418.346522 98.761742 
L 418.759096 101.56963 
L 419.171671 102.463528 
L 419.584245 104.140316 
L 419.99682 106.579145 
L 420.409394 104.255404 
L 421.234543 108.402938 
L 422.059692 103.683936 
L 422.472267 103.107946 
L 422.884841 99.494423 
L 423.297415 98.586728 
L 424.535139 89.566475 
L 424.947713 85.738539 
L 425.360288 84.196477 
L 425.772862 83.962921 
L 426.185437 85.134102 
L 426.598011 84.153538 
L 427.010586 83.603013 
L 427.42316 82.220093 
L 427.835734 83.662088 
L 428.248309 85.793437 
L 428.660883 86.5941 
L 429.073458 85.201847 
L 429.486032 87.794989 
L 429.898607 88.145247 
L 430.311181 89.317385 
L 430.723756 94.668026 
L 431.13633 98.343528 
L 431.548905 96.514471 
L 431.961479 95.891563 
L 432.374054 92.518158 
L 432.786628 92.321094 
L 433.199202 93.840751 
L 433.611777 91.12683 
L 434.024351 92.486847 
L 434.436926 88.042865 
L 434.8495 85.125303 
L 435.262075 79.15026 
L 435.674649 84.639929 
L 436.087224 85.277735 
L 436.499798 86.61448 
L 436.912373 86.251212 
L 437.324947 87.056049 
L 437.737521 85.226 
L 438.150096 82.35934 
L 438.56267 85.301564 
L 438.975245 82.506572 
L 439.387819 83.1333 
L 439.800394 79.879558 
L 440.212968 78.063529 
L 441.038117 71.90749 
L 441.450692 75.86051 
L 441.863266 76.827921 
L 442.688415 79.284923 
L 443.100989 80.209409 
L 443.513564 79.559739 
L 443.926138 83.247827 
L 444.338713 81.498587 
L 444.751287 82.998198 
L 445.163862 87.275721 
L 445.576436 84.114616 
L 445.989011 83.11735 
L 446.401585 83.15934 
L 446.81416 80.070133 
L 447.639308 82.912093 
L 448.051883 79.516861 
L 448.464457 85.099606 
L 448.877032 86.283549 
L 449.289606 84.556896 
L 449.702181 84.169455 
L 450.114755 85.73066 
L 450.52733 84.281341 
L 450.939904 84.668056 
L 451.352479 84.435801 
L 452.177627 81.607836 
L 453.002776 73.807545 
L 453.415351 73.249441 
L 453.827925 68.991895 
L 454.2405 68.245969 
L 454.653074 68.298036 
L 455.478223 65.662845 
L 456.303372 67.524043 
L 456.715946 71.109701 
L 457.128521 73.138512 
L 457.541095 77.467467 
L 457.95367 83.490614 
L 458.366244 83.413718 
L 458.778819 82.848145 
L 459.191393 83.751074 
L 459.603968 84.249551 
L 460.429117 79.116609 
L 460.841691 74.976895 
L 461.254266 74.030132 
L 461.66684 72.423166 
L 462.079414 66.669309 
L 462.491989 67.26617 
L 462.904563 71.199202 
L 463.317138 70.081829 
L 464.142287 72.181619 
L 464.554861 71.745538 
L 464.967436 76.202158 
L 465.38001 75.39749 
L 465.792585 71.027143 
L 466.205159 72.428091 
L 466.617733 72.987549 
L 467.030308 69.106363 
L 467.442882 70.726554 
L 467.855457 67.356483 
L 468.268031 67.086286 
L 468.680606 68.334784 
L 469.09318 65.404122 
L 469.505755 65.56609 
L 469.918329 67.407873 
L 470.330904 68.106524 
L 470.743478 65.9494 
L 471.156052 68.469947 
L 471.568627 68.300538 
L 471.981201 67.399959 
L 472.393776 65.50972 
L 472.80635 68.539525 
L 473.218925 66.922231 
L 473.631499 70.103949 
L 474.044074 68.962803 
L 474.456648 67.192723 
L 474.869223 66.090178 
L 475.281797 63.985383 
L 475.694372 64.439519 
L 476.106946 65.56444 
L 476.51952 67.630846 
L 476.932095 65.430759 
L 477.344669 65.52017 
L 477.757244 61.963409 
L 478.169818 61.700986 
L 478.582393 62.558044 
L 478.994967 63.985054 
L 479.407542 63.382845 
L 479.820116 61.921022 
L 480.232691 61.197349 
L 480.645265 61.422381 
L 481.057839 61.116681 
L 481.470414 60.400011 
L 481.882988 60.40889 
L 482.295563 60.733355 
L 482.708137 64.86951 
L 483.120712 64.108889 
L 483.533286 64.054914 
L 483.945861 64.414697 
L 484.358435 65.665031 
L 485.183584 62.46286 
L 485.596159 62.850778 
L 486.008733 62.653116 
L 486.421307 65.97902 
L 486.833882 64.123891 
L 487.246456 66.800267 
L 487.659031 66.138291 
L 488.48418 69.715024 
L 488.896754 70.298712 
L 489.309329 72.29877 
L 489.721903 72.847539 
L 490.134478 71.967858 
L 490.547052 67.027186 
L 490.959626 66.689072 
L 491.784775 66.571545 
L 492.19735 67.559538 
L 493.022499 65.477311 
L 493.435073 66.129933 
L 493.847648 67.037884 
L 494.260222 68.691086 
L 494.672797 69.249069 
L 495.085371 68.441366 
L 495.497945 64.876564 
L 495.91052 68.926764 
L 496.735669 63.162998 
L 497.148243 63.053028 
L 497.560818 62.063744 
L 498.385967 58.178626 
L 498.798541 59.263178 
L 499.211116 58.857369 
L 499.62369 58.775698 
L 500.036265 54.284791 
L 500.448839 54.396197 
L 500.861413 58.298475 
L 501.686562 59.618186 
L 502.511711 65.180642 
L 502.924286 65.037765 
L 503.33686 63.223478 
L 503.749435 63.341493 
L 504.162009 65.147458 
L 504.574584 63.447646 
L 504.987158 60.13379 
L 505.399732 60.98997 
L 506.224881 57.391977 
L 506.637456 54.943229 
L 507.462605 52.026446 
L 507.875179 52.51761 
L 508.287754 54.077738 
L 508.700328 54.691964 
L 509.112903 54.82481 
L 509.525477 54.722662 
L 509.938051 55.866797 
L 510.350626 56.369185 
L 510.7632 56.595737 
L 511.175775 61.300661 
L 512.000924 64.803371 
L 512.413498 63.91391 
L 512.826073 64.972483 
L 513.238647 66.608746 
L 513.651222 67.208234 
L 514.888945 63.418143 
L 515.301519 57.41477 
L 515.714094 62.269116 
L 516.126668 61.342816 
L 516.539243 58.950407 
L 516.951817 58.115426 
L 517.364392 56.398765 
L 517.776966 55.411601 
L 518.189541 57.431023 
L 518.602115 57.431023 
L 519.01469 58.500666 
L 519.427264 62.642427 
L 519.839838 57.621105 
L 520.252413 56.163056 
L 520.664987 60.553483 
L 521.077562 61.59011 
L 521.490136 61.261084 
L 521.902711 61.856191 
L 522.315285 59.144912 
L 522.72786 59.308688 
L 523.140434 60.102021 
L 523.553009 57.021359 
L 523.965583 57.110103 
L 524.378157 58.530385 
L 524.790732 54.088711 
L 525.203306 55.969298 
L 525.615881 55.672968 
L 526.028455 55.768842 
L 526.44103 57.244799 
L 526.853604 57.059985 
L 527.266179 55.752986 
L 527.678753 56.286049 
L 528.091328 56.604884 
L 528.503902 54.582288 
L 528.916477 56.389762 
L 529.329051 55.115924 
L 529.741625 55.771368 
L 530.1542 54.794511 
L 530.566774 54.248644 
L 530.979349 54.374521 
L 531.391923 54.025413 
L 531.804498 55.04839 
L 532.217072 53.112865 
L 532.629647 53.389923 
L 533.042221 50.869041 
L 533.454796 47.06022 
L 533.86737 48.135433 
L 534.279944 50.487379 
L 534.692519 50.270184 
L 535.517668 55.183041 
L 535.930242 54.838504 
L 536.342817 58.610192 
L 536.755391 60.364045 
L 537.167966 63.973708 
L 537.58054 64.125593 
L 537.993115 62.547513 
L 538.405689 59.904222 
L 538.818264 59.966269 
L 539.230838 60.424549 
L 539.643412 56.420192 
L 540.055987 56.01166 
L 540.468561 51.978112 
L 540.881136 51.91657 
L 541.29371 49.223033 
L 541.706285 50.783151 
L 542.118859 53.75055 
L 542.944008 53.951867 
L 543.356583 53.813892 
L 543.769157 54.390739 
L 544.181731 54.310446 
L 544.594306 57.812602 
L 545.00688 55.749453 
L 545.419455 55.597983 
L 545.832029 54.868178 
L 546.244604 51.5552 
L 546.657178 50.431099 
L 547.069753 50.828661 
L 547.482327 51.494381 
L 547.894902 54.560509 
L 548.307476 54.058146 
L 548.72005 52.097597 
L 549.132625 55.457043 
L 549.545199 55.685188 
L 549.957774 55.719264 
L 550.370348 56.19872 
L 550.782923 57.574093 
L 551.195497 57.160761 
L 552.020646 48.680924 
L 552.433221 54.106323 
L 552.845795 53.534993 
L 553.25837 50.161905 
L 553.670944 48.360498 
L 554.083518 49.118273 
L 554.496093 48.756437 
L 554.908667 49.692619 
L 555.733816 50.544196 
L 556.146391 52.09097 
L 556.558965 46.224492 
L 556.97154 45.902065 
L 557.384114 45.836737 
L 557.796689 49.687914 
L 558.209263 49.02406 
L 558.621837 51.444904 
L 559.034412 49.329974 
L 559.446986 48.704953 
L 559.859561 48.455236 
L 560.272135 48.737581 
L 560.68471 49.917691 
L 561.097284 57.57973 
L 561.509859 58.262039 
L 561.922433 55.639868 
L 562.335008 55.953123 
L 562.747582 56.448332 
L 563.160156 56.608765 
L 563.572731 56.126372 
L 563.985305 57.392423 
L 564.39788 56.947877 
L 564.810454 55.056859 
L 565.223029 50.249126 
L 565.635603 49.739568 
L 566.048178 51.091539 
L 566.460752 51.907018 
L 566.873327 51.121341 
L 567.285901 49.752421 
L 567.698476 49.645391 
L 568.11105 48.789852 
L 568.523624 51.742148 
L 568.936199 52.638722 
L 569.348773 49.375049 
L 569.761348 51.667269 
L 570.173922 50.593764 
L 570.999071 47.008125 
L 571.411646 48.708301 
L 571.82422 48.513486 
L 572.236795 48.534892 
L 572.649369 46.400955 
L 573.061943 46.692713 
L 573.474518 47.684734 
L 574.299667 46.399528 
L 574.712241 48.490599 
L 575.124816 49.477464 
L 575.53739 49.459249 
L 575.949965 50.348832 
L 576.362539 49.290836 
L 576.775114 50.286825 
L 577.187688 50.25048 
L 577.600262 49.882191 
L 578.012837 49.761664 
L 578.425411 51.49918 
L 578.837986 52.277243 
L 579.25056 50.630987 
L 579.663135 49.799117 
L 580.075709 48.715654 
L 580.488284 48.70534 
L 581.313433 46.846581 
L 581.726007 46.359639 
L 582.138582 44.276421 
L 582.551156 44.492402 
L 582.96373 42.766097 
L 583.376305 44.186824 
L 583.788879 49.111441 
L 584.201454 48.299939 
L 584.614028 48.570387 
L 585.439177 51.606891 
L 585.851752 53.1769 
L 586.264326 55.261923 
L 586.676901 53.34486 
L 587.502049 50.763008 
L 587.914624 46.438208 
L 588.327198 48.038751 
L 588.739773 48.76815 
L 589.152347 45.941863 
L 589.564922 46.065726 
L 589.977496 43.988127 
L 590.390071 45.797808 
L 590.802645 45.533382 
L 591.627794 45.813147 
L 592.040369 45.225647 
L 592.452943 45.186572 
L 592.865517 44.9343 
L 593.278092 46.684364 
L 593.690666 44.526261 
L 594.103241 45.458191 
L 594.515815 41.265417 
L 594.92839 42.571714 
L 595.340964 42.944642 
L 595.753539 42.113521 
L 596.166113 42.262976 
L 596.578688 41.386895 
L 597.403836 42.03525 
L 597.816411 43.066524 
L 598.228985 45.04157 
L 598.64156 46.06467 
L 599.054134 46.482443 
L 599.466709 46.225791 
L 599.879283 48.30313 
L 600.291858 48.885916 
L 600.704432 48.997583 
L 601.117007 50.663671 
L 601.529581 48.818475 
L 601.942155 49.69572 
L 602.35473 46.386123 
L 602.767304 46.56245 
L 603.179879 45.922359 
L 603.592453 46.14493 
L 604.005028 47.279725 
L 604.417602 47.657977 
L 604.830177 47.787592 
L 605.242751 45.567686 
L 605.655326 45.772239 
L 606.0679 44.766996 
L 606.480475 46.076676 
L 606.893049 45.682654 
L 607.305623 43.583437 
L 607.718198 42.847495 
L 608.130772 41.07067 
L 608.543347 41.780774 
L 608.955921 41.401901 
L 609.368496 43.395938 
L 609.78107 44.010218 
L 610.193645 43.679596 
L 610.606219 42.49418 
L 611.018794 46.072546 
L 611.843942 50.68673 
L 612.669091 47.112082 
L 613.081666 55.554288 
L 613.49424 54.2425 
L 614.319389 52.998533 
L 614.731964 53.655762 
L 615.144538 53.281369 
L 615.557113 53.999854 
L 615.969687 53.034551 
L 616.382261 54.673014 
L 616.794836 57.234427 
L 617.20741 48.844853 
L 617.619985 50.573917 
L 618.445134 51.646717 
L 619.270283 51.598867 
L 619.682857 50.704236 
L 620.095432 49.173692 
L 620.508006 48.752322 
L 620.920581 47.22597 
L 621.333155 51.685461 
L 621.745729 49.349448 
L 622.158304 48.496289 
L 622.570878 48.084291 
L 622.983453 48.627569 
L 623.396027 45.835023 
L 623.808602 45.033886 
L 624.221176 45.867782 
L 624.633751 45.92327 
L 625.046325 45.036539 
L 625.4589 39.717687 
L 625.871474 39.717687 
L 626.284048 39.604987 
L 626.696623 41.00236 
L 627.109197 39.547504 
L 627.521772 39.386532 
L 627.934346 38.960018 
L 628.346921 39.374627 
L 628.759495 41.825429 
L 629.17207 47.244838 
L 629.584644 49.655826 
L 629.997219 49.367471 
L 630.409793 51.112347 
L 630.822367 51.142115 
L 631.234942 51.729104 
L 631.647516 51.2685 
L 632.060091 53.80178 
L 632.472665 53.091867 
L 632.88524 50.333583 
L 633.297814 44.199115 
L 634.122963 41.287044 
L 634.948112 43.318004 
L 635.773261 46.023442 
L 636.185835 43.353994 
L 636.59841 43.207908 
L 637.010984 42.375862 
L 637.423559 42.560208 
L 637.836133 42.283803 
L 638.248708 42.56615 
L 638.661282 42.09281 
L 639.073857 38.81088 
L 639.486431 37.956064 
L 639.899006 38.653421 
L 640.31158 40.843507 
L 640.724154 40.759188 
L 641.136729 41.311892 
L 641.549303 42.081769 
L 641.961878 42.423503 
L 642.374452 43.371947 
L 642.787027 41.428052 
L 643.199601 41.856669 
L 643.612176 41.833444 
L 644.437325 37.080452 
L 644.849899 36.626017 
L 645.262473 37.629249 
L 645.675048 36.544163 
L 646.087622 36.614427 
L 646.500197 34.974647 
L 646.912771 34.766486 
L 647.73792 38.696994 
L 648.563069 39.450006 
L 648.975644 41.126799 
L 649.388218 42.064767 
L 649.800793 43.325825 
L 650.625941 51.934439 
L 651.038516 52.973902 
L 651.45109 52.292865 
L 651.863665 50.0311 
L 652.276239 50.573208 
L 652.688814 50.327282 
L 653.926537 47.339147 
L 654.339112 42.428915 
L 654.751686 39.153912 
L 655.989409 34.670969 
L 656.814558 36.269896 
L 657.227133 36.178405 
L 657.639707 34.230892 
L 658.052282 35.160113 
L 658.877431 35.678517 
L 659.70258 36.98111 
L 660.115154 38.110498 
L 660.527728 36.055645 
L 660.940303 37.637127 
L 661.352877 38.532446 
L 662.178026 41.877566 
L 662.590601 41.533237 
L 663.41575 41.467437 
L 663.828324 43.116306 
L 664.240899 42.739845 
L 664.653473 43.355128 
L 665.066047 42.128617 
L 665.478622 41.396105 
L 665.891196 39.773426 
L 666.303771 39.412473 
L 667.12892 41.456266 
L 667.541494 41.69344 
L 667.954069 41.19082 
L 668.366643 43.288752 
L 668.779218 43.540066 
L 669.191792 45.460038 
L 669.604366 45.054987 
L 670.016941 45.061234 
L 670.429515 45.565256 
L 670.84209 43.830793 
L 671.254664 42.717366 
L 671.667239 43.241299 
L 672.904962 41.899787 
L 673.317537 39.903311 
L 673.730111 40.025712 
L 674.142686 40.875708 
L 674.55526 39.114211 
L 674.967834 39.94605 
L 675.792983 42.172847 
L 676.205558 41.824607 
L 677.030707 42.322598 
L 677.443281 41.232629 
L 677.855856 40.848109 
L 678.26843 43.28166 
L 678.681005 43.176313 
L 679.093579 43.311511 
L 679.506153 41.392797 
L 679.918728 38.795657 
L 680.331302 38.126753 
L 680.743877 36.816564 
L 681.156451 37.102172 
L 681.569026 37.102172 
L 681.9816 39.26102 
L 682.394175 36.367578 
L 682.806749 36.90975 
L 683.219324 38.685171 
L 683.631898 38.989218 
L 684.044472 44.998744 
L 684.869621 47.421477 
L 685.282196 46.842471 
L 685.69477 48.008943 
L 686.107345 46.851486 
L 686.519919 46.906952 
L 686.932494 46.086423 
L 687.345068 44.32098 
L 687.757643 45.216538 
L 688.170217 39.507286 
L 688.582792 38.580617 
L 688.995366 36.622221 
L 689.40794 38.51685 
L 689.820515 37.475737 
L 690.233089 37.282284 
L 690.645664 37.282284 
L 691.058238 39.044588 
L 691.470813 39.290514 
L 691.883387 40.72721 
L 692.295962 43.908449 
L 692.708536 43.805382 
L 693.121111 43.52202 
L 693.533685 42.657221 
L 693.946259 46.287849 
L 694.358834 45.358628 
L 694.771408 46.729977 
L 695.596557 44.315343 
L 696.421706 39.870458 
L 697.246855 42.071261 
L 697.65943 40.886453 
L 698.072004 37.815853 
L 698.484578 37.236628 
L 698.897153 36.110116 
L 699.309727 36.450179 
L 700.134876 45.844306 
L 700.547451 45.764191 
L 700.960025 44.839586 
L 701.3726 43.462159 
L 701.785174 44.358611 
L 702.197749 43.545154 
L 702.610323 43.545154 
L 703.022898 44.109851 
L 703.435472 47.953864 
L 703.848046 44.259177 
L 704.260621 38.341387 
L 705.08577 37.595797 
L 705.498344 39.621914 
L 705.910919 38.735301 
L 706.323493 38.597204 
L 706.736068 39.95961 
L 707.148642 38.412836 
L 707.561217 33.776709 
L 708.386365 37.618015 
L 708.79894 41.852875 
L 709.211514 42.172997 
L 709.624089 42.209471 
L 710.036663 41.523715 
L 710.449238 42.649225 
L 710.861812 41.688771 
L 711.274387 42.397677 
L 711.686961 41.466437 
L 712.099536 39.592589 
L 712.51211 39.330448 
L 712.924685 36.113241 
L 713.337259 36.459844 
L 713.749833 35.885338 
L 714.162408 36.46342 
L 714.574982 36.770549 
L 714.987557 36.639458 
L 715.400131 38.940396 
L 716.22528 42.261378 
L 717.050429 39.81042 
L 717.463004 39.151673 
L 717.875578 38.218188 
L 718.288152 43.513669 
L 718.700727 42.761737 
L 719.113301 44.244704 
L 719.525876 41.090609 
L 719.93845 40.686521 
L 720.351025 41.595317 
L 720.763599 41.293115 
L 722.001323 42.052059 
L 722.413897 36.617533 
L 722.826471 36.194076 
L 723.239046 34.711109 
L 723.65162 36.402134 
L 724.064195 36.806222 
L 724.476769 34.196703 
L 724.889344 36.349215 
L 725.301918 36.410494 
L 725.714493 36.945594 
L 726.127067 35.701942 
L 726.539642 36.507347 
L 726.952216 36.774958 
L 727.364791 37.983444 
L 727.777365 37.998735 
L 728.602514 38.254537 
L 729.015088 36.108273 
L 729.427663 35.866357 
L 730.252812 38.265684 
L 730.665386 37.637947 
L 731.077961 37.693227 
L 731.90311 35.622464 
L 732.315684 36.390783 
L 732.728258 37.566171 
L 733.140833 37.691889 
L 733.553407 37.664365 
L 733.965982 35.067225 
L 734.378556 35.841824 
L 734.791131 36.101197 
L 735.203705 36.826685 
L 735.61628 36.682512 
L 736.028854 38.491009 
L 736.854003 34.943339 
L 737.266577 35.207727 
L 737.679152 34.963594 
L 738.091726 35.573177 
L 738.504301 34.352924 
L 738.916875 35.355369 
L 739.32945 34.707008 
L 739.742024 34.859278 
L 740.154599 32.899442 
L 740.567173 34.906323 
L 740.979748 35.601887 
L 741.392322 35.344636 
L 741.804897 34.906475 
L 742.217471 34.880346 
L 742.630045 35.140144 
L 743.04262 33.12149 
L 743.455194 34.762133 
L 743.867769 35.584087 
L 744.280343 35.445938 
L 744.692918 33.552577 
L 745.105492 33.730082 
L 745.930641 37.132286 
L 746.343216 36.54056 
L 746.75579 37.23544 
L 747.168364 37.64579 
L 747.580939 35.87274 
L 747.993513 34.644043 
L 748.818662 36.002869 
L 749.231237 35.572189 
L 749.643811 34.803758 
L 750.056386 33.611625 
L 750.46896 33.611625 
L 750.881535 33.077232 
L 751.706683 33.174688 
L 752.119258 33.917663 
L 752.531832 33.100173 
L 752.944407 33.339976 
L 753.356981 33.332525 
L 754.18213 31.883747 
L 754.594705 33.633928 
L 755.007279 34.144883 
L 755.419854 33.586348 
L 755.832428 34.325137 
L 756.245003 33.699471 
L 756.657577 33.407742 
L 757.070151 32.679928 
L 757.482726 33.05687 
L 758.307875 33.333508 
L 758.720449 32.201183 
L 759.133024 31.573516 
L 759.545598 32.953152 
L 759.958173 31.621115 
L 760.370747 32.183796 
L 760.783322 34.823741 
L 761.195896 34.126151 
L 761.60847 34.391894 
L 762.433619 37.671967 
L 762.846194 37.884103 
L 763.258768 38.787203 
L 763.671343 38.266931 
L 764.083917 39.550526 
L 764.496492 39.540548 
L 764.909066 38.144065 
L 765.321641 38.13683 
L 765.734215 37.328223 
L 766.14679 36.949787 
L 766.559364 37.076738 
L 766.971938 37.961146 
L 767.384513 37.947755 
L 768.209662 36.740962 
L 769.034811 35.659886 
L 769.447385 36.448634 
L 769.85996 36.454707 
L 770.272534 34.864687 
L 770.685109 32.582612 
L 771.097683 31.581221 
L 771.510257 32.716763 
L 771.922832 32.704261 
L 772.335406 31.750343 
L 772.747981 33.385258 
L 773.160555 33.257944 
L 773.57313 32.943524 
L 773.985704 32.937451 
L 774.398279 33.076577 
L 774.810853 34.214048 
L 775.223428 33.922528 
L 775.636002 31.716337 
L 776.461151 31.726603 
L 776.873725 31.443997 
L 777.2863 32.216107 
L 777.698874 33.494385 
L 778.524023 34.449604 
L 778.936598 34.4094 
L 779.349172 34.719671 
L 779.761747 36.8031 
L 780.174321 37.094768 
L 780.586896 37.758732 
L 780.99947 36.949287 
L 781.412044 36.629569 
L 781.824619 34.869826 
L 782.237193 34.454288 
L 782.649768 37.0886 
L 783.062342 37.657125 
L 783.474917 38.01126 
L 783.887491 35.658816 
L 784.300066 37.723761 
L 784.71264 37.987647 
L 785.125215 37.581948 
L 785.537789 38.050902 
L 785.950363 38.180062 
L 786.362938 37.631714 
L 786.775512 34.030213 
L 787.188087 33.373297 
L 787.600661 31.863902 
L 788.013236 32.298839 
L 788.42581 30.679466 
L 788.838385 31.441321 
L 789.250959 33.63228 
L 789.663534 34.63951 
L 790.076108 33.807551 
L 790.488682 34.997422 
L 790.901257 37.139998 
L 791.313831 36.697762 
L 791.726406 38.469199 
L 792.13898 39.26858 
L 792.551555 39.809019 
L 792.964129 38.251279 
L 793.376704 37.507132 
L 793.789278 36.367538 
L 794.201853 38.884972 
L 794.614427 37.978406 
L 795.027002 36.734996 
L 795.439576 37.140266 
L 795.85215 35.792328 
L 796.264725 36.554697 
L 796.677299 35.967708 
L 797.089874 37.833653 
L 797.915023 35.591048 
L 798.327597 33.91355 
L 798.740172 35.751546 
L 799.152746 36.304644 
L 799.565321 35.764505 
L 799.977895 36.193132 
L 800.390469 35.152406 
L 800.803044 34.622994 
L 801.215618 33.165551 
L 802.040767 32.92899 
L 802.453342 32.378637 
L 802.865916 30.55121 
L 803.691065 30.274417 
L 804.10364 31.207119 
L 804.516214 30.255387 
L 804.928788 30.39212 
L 805.341363 29.851652 
L 805.753937 30.308087 
L 806.166512 31.564527 
L 806.579086 34.740711 
L 806.991661 35.266609 
L 807.404235 35.451957 
L 807.81681 36.265159 
L 808.229384 36.533427 
L 808.641959 38.127298 
L 809.467108 38.772185 
L 809.879682 37.850583 
L 810.292256 38.092827 
L 810.704831 35.491642 
L 811.117405 35.241627 
L 811.52998 35.37219 
L 811.942554 34.985409 
L 812.767703 32.883361 
L 813.180278 32.487008 
L 813.592852 32.364985 
L 814.005427 32.49784 
L 814.418001 32.194471 
L 814.830575 32.342959 
L 815.24315 32.061752 
L 815.655724 30.730605 
L 816.068299 31.13748 
L 816.480873 32.58557 
L 816.893448 32.146534 
L 817.306022 33.735019 
L 817.718597 33.595917 
L 818.131171 33.725917 
L 818.543746 32.532684 
L 818.95632 32.551994 
L 819.781469 34.419932 
L 820.194043 34.005708 
L 820.606618 32.290331 
L 821.019192 31.866867 
L 821.431767 32.835708 
L 821.844341 32.685323 
L 822.256916 33.080185 
L 822.66949 34.837017 
L 823.082065 37.195382 
L 823.494639 37.339381 
L 823.907214 37.350127 
L 824.319788 36.63715 
L 824.732362 36.80445 
L 825.144937 37.701533 
L 825.557511 34.858787 
L 825.970086 35.278274 
L 826.38266 34.775447 
L 826.795235 33.442079 
L 827.207809 31.018521 
L 827.620384 30.065915 
L 828.032958 28.678182 
L 828.445533 30.316626 
L 828.858107 30.280417 
L 829.270681 29.662561 
L 829.683256 31.519724 
L 830.508405 30.937134 
L 830.920979 32.284746 
L 831.333554 32.302706 
L 831.746128 32.592141 
L 832.158703 34.258231 
L 832.571277 33.318392 
L 832.983852 32.903938 
L 833.396426 33.868172 
L 833.809001 32.42136 
L 834.634149 32.715159 
L 835.046724 31.083164 
L 835.459298 29.955828 
L 836.284447 29.715828 
L 836.697022 29.877611 
L 837.109596 30.63855 
L 837.522171 30.504308 
L 837.934745 31.054089 
L 838.759894 30.619151 
L 839.172468 31.868633 
L 839.585043 35.495157 
L 839.997617 35.342657 
L 840.410192 34.209205 
L 840.822766 34.623327 
L 841.235341 34.145749 
L 841.647915 33.328259 
L 842.06049 32.785514 
L 842.473064 32.79775 
L 842.885639 32.652432 
L 843.298213 32.143407 
L 843.710787 29.39861 
L 844.123362 28.838134 
L 844.535936 29.658286 
L 844.948511 28.800031 
L 845.361085 28.945295 
L 845.77366 29.210082 
L 846.186234 29.742082 
L 846.598809 29.735919 
L 847.011383 30.423614 
L 847.423958 29.689409 
L 847.836532 29.681843 
L 848.249107 31.820224 
L 848.661681 31.694865 
L 849.074255 32.653256 
L 849.48683 31.945402 
L 849.899404 32.27713 
L 850.311979 30.901192 
L 850.724553 30.630331 
L 851.137128 30.522892 
L 851.549702 31.766122 
L 851.962277 34.305459 
L 852.374851 33.035919 
L 852.787426 32.762615 
L 852.787426 32.762615 
" clip-path="url(#p4319566a12)" style="fill: none; stroke-dasharray: 7.4,3.2; stroke-dashoffset: 0; stroke: #000000; stroke-width: 2"/>
   </g>
   <g id="patch_3">
    <path d="M 35.89 404.12 
L 35.89 10.8 
" style="fill: none; stroke: #000000; stroke-width: 0.8; stroke-linejoin: miter; stroke-linecap: square"/>
   </g>
   <g id="patch_4">
    <path d="M 853.2 404.12 
L 853.2 10.8 
" style="fill: none; stroke: #000000; stroke-width: 0.8; stroke-linejoin: miter; stroke-linecap: square"/>
   </g>
   <g id="patch_5">
    <path d="M 35.89 404.12 
L 853.2 404.12 
" style="fill: none; stroke: #000000; stroke-width: 0.8; stroke-linejoin: miter; stroke-linecap: square"/>
   </g>
   <g id="patch_6">
    <path d="M 35.89 10.8 
L 853.2 10.8 
" style="fill: none; stroke: #000000; stroke-width: 0.8; stroke-linejoin: miter; stroke-linecap: square"/>
   </g>
  </g>
 </g>
 <defs>
  <clipPath id="p4319566a12">
   <rect x="35.89" y="10.8" width="817.31" height="393.32"/>
  </clipPath>
 </defs>
</svg>
