<?xml version="1.0" encoding="utf-8" standalone="no"?>
<!DOCTYPE svg PUBLIC "-//W3C//DTD SVG 1.1//EN"
  "http://www.w3.org/Graphics/SVG/1.1/DTD/svg11.dtd">
<svg xmlns:xlink="http://www.w3.org/1999/xlink" width="864pt" height="432pt" viewBox="0 0 864 432" xmlns="http://www.w3.org/2000/svg" version="1.1">
 <metadata>
  <rdf:RDF xmlns:dc="http://purl.org/dc/elements/1.1/" xmlns:cc="http://creativecommons.org/ns#" xmlns:rdf="http://www.w3.org/1999/02/22-rdf-syntax-ns#">
   <cc:Work>
    <dc:type rdf:resource="http://purl.org/dc/dcmitype/StillImage"/>
    <dc:date>2024-09-18T17:54:32.139173</dc:date>
    <dc:format>image/svg+xml</dc:format>
    <dc:creator>
     <cc:Agent>
      <dc:title>Matplotlib v3.9.2, https://matplotlib.org/</dc:title>
     </cc:Agent>
    </dc:creator>
   </cc:Work>
  </rdf:RDF>
 </metadata>
 <defs>
  <style type="text/css">*{stroke-linejoin: round; stroke-linecap: butt}</style>
 </defs>
 <g id="figure_1">
  <g id="patch_1">
   <path d="M 0 432 
L 864 432 
L 864 0 
L 0 0 
z
" style="fill: #ffffff"/>
  </g>
  <g id="axes_1">
   <g id="patch_2">
    <path d="M 41.92 404.12 
L 853.2 404.12 
L 853.2 10.8 
L 41.92 10.8 
z
" style="fill: #ffffff"/>
   </g>
   <g id="matplotlib.axis_1">
    <g id="xtick_1">
     <g id="line2d_1">
      <defs>
       <path id="m57cfa344c7" d="M 0 0 
L 0 3.5 
" style="stroke: #000000; stroke-width: 0.8"/>
      </defs>
      <g>
       <use xlink:href="#m57cfa344c7" x="140.20733" y="404.12" style="stroke: #000000; stroke-width: 0.8"/>
      </g>
     </g>
     <g id="text_1">
      <!-- 250 -->
      <g transform="translate(131.176861 418.771563) scale(0.1 -0.1)">
       <defs>
        <path id="DejaVuSansMono-32" d="M 1166 531 
L 3309 531 
L 3309 0 
L 475 0 
L 475 531 
Q 1059 1147 1496 1619 
Q 1934 2091 2100 2284 
Q 2413 2666 2522 2902 
Q 2631 3138 2631 3384 
Q 2631 3775 2401 3997 
Q 2172 4219 1772 4219 
Q 1488 4219 1175 4116 
Q 863 4013 513 3803 
L 513 4441 
Q 834 4594 1145 4672 
Q 1456 4750 1759 4750 
Q 2444 4750 2861 4386 
Q 3278 4022 3278 3431 
Q 3278 3131 3139 2831 
Q 3000 2531 2688 2169 
Q 2513 1966 2180 1606 
Q 1847 1247 1166 531 
z
" transform="scale(0.015625)"/>
        <path id="DejaVuSansMono-35" d="M 647 4666 
L 3009 4666 
L 3009 4134 
L 1222 4134 
L 1222 2988 
Q 1356 3038 1492 3061 
Q 1628 3084 1766 3084 
Q 2491 3084 2916 2656 
Q 3341 2228 3341 1497 
Q 3341 759 2895 334 
Q 2450 -91 1678 -91 
Q 1306 -91 998 -41 
Q 691 9 447 109 
L 447 750 
Q 734 594 1025 517 
Q 1316 441 1619 441 
Q 2141 441 2423 716 
Q 2706 991 2706 1497 
Q 2706 1997 2414 2275 
Q 2122 2553 1600 2553 
Q 1347 2553 1106 2495 
Q 866 2438 647 2322 
L 647 4666 
z
" transform="scale(0.015625)"/>
        <path id="DejaVuSansMono-30" d="M 1509 2344 
Q 1509 2516 1629 2641 
Q 1750 2766 1919 2766 
Q 2094 2766 2219 2641 
Q 2344 2516 2344 2344 
Q 2344 2169 2220 2047 
Q 2097 1925 1919 1925 
Q 1744 1925 1626 2044 
Q 1509 2163 1509 2344 
z
M 1925 4250 
Q 1484 4250 1267 3775 
Q 1050 3300 1050 2328 
Q 1050 1359 1267 884 
Q 1484 409 1925 409 
Q 2369 409 2586 884 
Q 2803 1359 2803 2328 
Q 2803 3300 2586 3775 
Q 2369 4250 1925 4250 
z
M 1925 4750 
Q 2672 4750 3055 4137 
Q 3438 3525 3438 2328 
Q 3438 1134 3055 521 
Q 2672 -91 1925 -91 
Q 1178 -91 797 521 
Q 416 1134 416 2328 
Q 416 3525 797 4137 
Q 1178 4750 1925 4750 
z
" transform="scale(0.015625)"/>
       </defs>
       <use xlink:href="#DejaVuSansMono-32"/>
       <use xlink:href="#DejaVuSansMono-35" x="60.205078"/>
       <use xlink:href="#DejaVuSansMono-30" x="120.410156"/>
      </g>
     </g>
    </g>
    <g id="xtick_2">
     <g id="line2d_2">
      <g>
       <use xlink:href="#m57cfa344c7" x="242.589965" y="404.12" style="stroke: #000000; stroke-width: 0.8"/>
      </g>
     </g>
     <g id="text_2">
      <!-- 500 -->
      <g transform="translate(233.559496 418.771563) scale(0.1 -0.1)">
       <use xlink:href="#DejaVuSansMono-35"/>
       <use xlink:href="#DejaVuSansMono-30" x="60.205078"/>
       <use xlink:href="#DejaVuSansMono-30" x="120.410156"/>
      </g>
     </g>
    </g>
    <g id="xtick_3">
     <g id="line2d_3">
      <g>
       <use xlink:href="#m57cfa344c7" x="344.9726" y="404.12" style="stroke: #000000; stroke-width: 0.8"/>
      </g>
     </g>
     <g id="text_3">
      <!-- 750 -->
      <g transform="translate(335.942131 418.771563) scale(0.1 -0.1)">
       <defs>
        <path id="DejaVuSansMono-37" d="M 434 4666 
L 3372 4666 
L 3372 4397 
L 1703 0 
L 1044 0 
L 2669 4134 
L 434 4134 
L 434 4666 
z
" transform="scale(0.015625)"/>
       </defs>
       <use xlink:href="#DejaVuSansMono-37"/>
       <use xlink:href="#DejaVuSansMono-35" x="60.205078"/>
       <use xlink:href="#DejaVuSansMono-30" x="120.410156"/>
      </g>
     </g>
    </g>
    <g id="xtick_4">
     <g id="line2d_4">
      <g>
       <use xlink:href="#m57cfa344c7" x="447.355235" y="404.12" style="stroke: #000000; stroke-width: 0.8"/>
      </g>
     </g>
     <g id="text_4">
      <!-- 1000 -->
      <g transform="translate(435.31461 418.771563) scale(0.1 -0.1)">
       <defs>
        <path id="DejaVuSansMono-31" d="M 844 531 
L 1825 531 
L 1825 4097 
L 769 3859 
L 769 4434 
L 1819 4666 
L 2450 4666 
L 2450 531 
L 3419 531 
L 3419 0 
L 844 0 
L 844 531 
z
" transform="scale(0.015625)"/>
       </defs>
       <use xlink:href="#DejaVuSansMono-31"/>
       <use xlink:href="#DejaVuSansMono-30" x="60.205078"/>
       <use xlink:href="#DejaVuSansMono-30" x="120.410156"/>
       <use xlink:href="#DejaVuSansMono-30" x="180.615234"/>
      </g>
     </g>
    </g>
    <g id="xtick_5">
     <g id="line2d_5">
      <g>
       <use xlink:href="#m57cfa344c7" x="549.73787" y="404.12" style="stroke: #000000; stroke-width: 0.8"/>
      </g>
     </g>
     <g id="text_5">
      <!-- 1250 -->
      <g transform="translate(537.697245 418.771563) scale(0.1 -0.1)">
       <use xlink:href="#DejaVuSansMono-31"/>
       <use xlink:href="#DejaVuSansMono-32" x="60.205078"/>
       <use xlink:href="#DejaVuSansMono-35" x="120.410156"/>
       <use xlink:href="#DejaVuSansMono-30" x="180.615234"/>
      </g>
     </g>
    </g>
    <g id="xtick_6">
     <g id="line2d_6">
      <g>
       <use xlink:href="#m57cfa344c7" x="652.120505" y="404.12" style="stroke: #000000; stroke-width: 0.8"/>
      </g>
     </g>
     <g id="text_6">
      <!-- 1500 -->
      <g transform="translate(640.07988 418.771563) scale(0.1 -0.1)">
       <use xlink:href="#DejaVuSansMono-31"/>
       <use xlink:href="#DejaVuSansMono-35" x="60.205078"/>
       <use xlink:href="#DejaVuSansMono-30" x="120.410156"/>
       <use xlink:href="#DejaVuSansMono-30" x="180.615234"/>
      </g>
     </g>
    </g>
    <g id="xtick_7">
     <g id="line2d_7">
      <g>
       <use xlink:href="#m57cfa344c7" x="754.50314" y="404.12" style="stroke: #000000; stroke-width: 0.8"/>
      </g>
     </g>
     <g id="text_7">
      <!-- 1750 -->
      <g transform="translate(742.462515 418.771563) scale(0.1 -0.1)">
       <use xlink:href="#DejaVuSansMono-31"/>
       <use xlink:href="#DejaVuSansMono-37" x="60.205078"/>
       <use xlink:href="#DejaVuSansMono-35" x="120.410156"/>
       <use xlink:href="#DejaVuSansMono-30" x="180.615234"/>
      </g>
     </g>
    </g>
   </g>
   <g id="matplotlib.axis_2">
    <g id="ytick_1">
     <g id="line2d_8">
      <defs>
       <path id="mefb345be85" d="M 0 0 
L -3.5 0 
" style="stroke: #000000; stroke-width: 0.8"/>
      </defs>
      <g>
       <use xlink:href="#mefb345be85" x="41.92" y="393.860807" style="stroke: #000000; stroke-width: 0.8"/>
      </g>
     </g>
     <g id="text_8">
      <!-- 0.00 -->
      <g transform="translate(10.83875 397.686588) scale(0.1 -0.1)">
       <defs>
        <path id="DejaVuSansMono-2e" d="M 1528 953 
L 2316 953 
L 2316 0 
L 1528 0 
L 1528 953 
z
" transform="scale(0.015625)"/>
       </defs>
       <use xlink:href="#DejaVuSansMono-30"/>
       <use xlink:href="#DejaVuSansMono-2e" x="60.205078"/>
       <use xlink:href="#DejaVuSansMono-30" x="120.410156"/>
       <use xlink:href="#DejaVuSansMono-30" x="180.615234"/>
      </g>
     </g>
    </g>
    <g id="ytick_2">
     <g id="line2d_9">
      <g>
       <use xlink:href="#mefb345be85" x="41.92" y="331.031461" style="stroke: #000000; stroke-width: 0.8"/>
      </g>
     </g>
     <g id="text_9">
      <!-- 0.02 -->
      <g transform="translate(10.83875 334.857242) scale(0.1 -0.1)">
       <use xlink:href="#DejaVuSansMono-30"/>
       <use xlink:href="#DejaVuSansMono-2e" x="60.205078"/>
       <use xlink:href="#DejaVuSansMono-30" x="120.410156"/>
       <use xlink:href="#DejaVuSansMono-32" x="180.615234"/>
      </g>
     </g>
    </g>
    <g id="ytick_3">
     <g id="line2d_10">
      <g>
       <use xlink:href="#mefb345be85" x="41.92" y="268.202115" style="stroke: #000000; stroke-width: 0.8"/>
      </g>
     </g>
     <g id="text_10">
      <!-- 0.04 -->
      <g transform="translate(10.83875 272.027896) scale(0.1 -0.1)">
       <defs>
        <path id="DejaVuSansMono-34" d="M 2297 4091 
L 825 1625 
L 2297 1625 
L 2297 4091 
z
M 2194 4666 
L 2925 4666 
L 2925 1625 
L 3547 1625 
L 3547 1113 
L 2925 1113 
L 2925 0 
L 2297 0 
L 2297 1113 
L 319 1113 
L 319 1709 
L 2194 4666 
z
" transform="scale(0.015625)"/>
       </defs>
       <use xlink:href="#DejaVuSansMono-30"/>
       <use xlink:href="#DejaVuSansMono-2e" x="60.205078"/>
       <use xlink:href="#DejaVuSansMono-30" x="120.410156"/>
       <use xlink:href="#DejaVuSansMono-34" x="180.615234"/>
      </g>
     </g>
    </g>
    <g id="ytick_4">
     <g id="line2d_11">
      <g>
       <use xlink:href="#mefb345be85" x="41.92" y="205.372768" style="stroke: #000000; stroke-width: 0.8"/>
      </g>
     </g>
     <g id="text_11">
      <!-- 0.06 -->
      <g transform="translate(10.83875 209.19855) scale(0.1 -0.1)">
       <defs>
        <path id="DejaVuSansMono-36" d="M 3097 4563 
L 3097 3981 
Q 2900 4097 2678 4158 
Q 2456 4219 2216 4219 
Q 1616 4219 1306 3767 
Q 997 3316 997 2438 
Q 1147 2750 1412 2917 
Q 1678 3084 2022 3084 
Q 2697 3084 3067 2670 
Q 3438 2256 3438 1497 
Q 3438 741 3056 325 
Q 2675 -91 1984 -91 
Q 1172 -91 794 492 
Q 416 1075 416 2328 
Q 416 3509 870 4129 
Q 1325 4750 2188 4750 
Q 2419 4750 2650 4701 
Q 2881 4653 3097 4563 
z
M 1972 2591 
Q 1569 2591 1337 2300 
Q 1106 2009 1106 1497 
Q 1106 984 1337 693 
Q 1569 403 1972 403 
Q 2391 403 2603 679 
Q 2816 956 2816 1497 
Q 2816 2041 2603 2316 
Q 2391 2591 1972 2591 
z
" transform="scale(0.015625)"/>
       </defs>
       <use xlink:href="#DejaVuSansMono-30"/>
       <use xlink:href="#DejaVuSansMono-2e" x="60.205078"/>
       <use xlink:href="#DejaVuSansMono-30" x="120.410156"/>
       <use xlink:href="#DejaVuSansMono-36" x="180.615234"/>
      </g>
     </g>
    </g>
    <g id="ytick_5">
     <g id="line2d_12">
      <g>
       <use xlink:href="#mefb345be85" x="41.92" y="142.543422" style="stroke: #000000; stroke-width: 0.8"/>
      </g>
     </g>
     <g id="text_12">
      <!-- 0.08 -->
      <g transform="translate(10.83875 146.369203) scale(0.1 -0.1)">
       <defs>
        <path id="DejaVuSansMono-38" d="M 1925 2216 
Q 1503 2216 1273 1980 
Q 1044 1744 1044 1313 
Q 1044 881 1276 642 
Q 1509 403 1925 403 
Q 2350 403 2579 639 
Q 2809 875 2809 1313 
Q 2809 1741 2576 1978 
Q 2344 2216 1925 2216 
z
M 1375 2478 
Q 972 2581 745 2862 
Q 519 3144 519 3541 
Q 519 4097 897 4423 
Q 1275 4750 1925 4750 
Q 2578 4750 2956 4423 
Q 3334 4097 3334 3541 
Q 3334 3144 3107 2862 
Q 2881 2581 2478 2478 
Q 2947 2375 3195 2062 
Q 3444 1750 3444 1253 
Q 3444 622 3041 265 
Q 2638 -91 1925 -91 
Q 1213 -91 811 264 
Q 409 619 409 1247 
Q 409 1747 657 2061 
Q 906 2375 1375 2478 
z
M 1147 3481 
Q 1147 3106 1347 2909 
Q 1547 2713 1925 2713 
Q 2306 2713 2506 2909 
Q 2706 3106 2706 3481 
Q 2706 3863 2507 4063 
Q 2309 4263 1925 4263 
Q 1547 4263 1347 4061 
Q 1147 3859 1147 3481 
z
" transform="scale(0.015625)"/>
       </defs>
       <use xlink:href="#DejaVuSansMono-30"/>
       <use xlink:href="#DejaVuSansMono-2e" x="60.205078"/>
       <use xlink:href="#DejaVuSansMono-30" x="120.410156"/>
       <use xlink:href="#DejaVuSansMono-38" x="180.615234"/>
      </g>
     </g>
    </g>
    <g id="ytick_6">
     <g id="line2d_13">
      <g>
       <use xlink:href="#mefb345be85" x="41.92" y="79.714076" style="stroke: #000000; stroke-width: 0.8"/>
      </g>
     </g>
     <g id="text_13">
      <!-- 0.10 -->
      <g transform="translate(10.83875 83.539857) scale(0.1 -0.1)">
       <use xlink:href="#DejaVuSansMono-30"/>
       <use xlink:href="#DejaVuSansMono-2e" x="60.205078"/>
       <use xlink:href="#DejaVuSansMono-31" x="120.410156"/>
       <use xlink:href="#DejaVuSansMono-30" x="180.615234"/>
      </g>
     </g>
    </g>
    <g id="ytick_7">
     <g id="line2d_14">
      <g>
       <use xlink:href="#mefb345be85" x="41.92" y="16.884729" style="stroke: #000000; stroke-width: 0.8"/>
      </g>
     </g>
     <g id="text_14">
      <!-- 0.12 -->
      <g transform="translate(10.83875 20.710511) scale(0.1 -0.1)">
       <use xlink:href="#DejaVuSansMono-30"/>
       <use xlink:href="#DejaVuSansMono-2e" x="60.205078"/>
       <use xlink:href="#DejaVuSansMono-31" x="120.410156"/>
       <use xlink:href="#DejaVuSansMono-32" x="180.615234"/>
      </g>
     </g>
    </g>
   </g>
   <g id="line2d_15">
    <path d="M 41.510469 73.339923 
L 41.92 82.865885 
L 42.329531 86.982735 
L 42.739061 75.949553 
L 43.148592 79.145978 
L 43.558122 84.857081 
L 43.967653 83.334176 
L 44.377183 79.442134 
L 44.786714 84.857783 
L 45.196244 76.011386 
L 45.605775 84.806606 
L 46.015305 82.855835 
L 46.424836 81.972584 
L 46.834366 83.46555 
L 47.653428 89.104374 
L 48.062958 89.53757 
L 48.472489 91.495271 
L 48.882019 88.084163 
L 49.29155 82.092463 
L 49.70108 84.158868 
L 50.110611 80.500778 
L 50.520141 82.564066 
L 50.929672 81.619665 
L 51.339202 76.649766 
L 51.748733 75.063146 
L 52.158264 78.406761 
L 52.567794 70.920599 
L 52.977325 74.562523 
L 53.386855 89.565617 
L 53.796386 84.027209 
L 54.205916 94.769617 
L 54.615447 91.1156 
L 55.024977 107.050308 
L 55.434508 117.760349 
L 55.844038 120.767387 
L 56.253569 116.999905 
L 56.663099 130.567786 
L 57.07263 120.036907 
L 57.482161 125.042872 
L 57.891691 106.932746 
L 58.301222 108.540145 
L 58.710752 118.956198 
L 59.120283 120.255274 
L 59.529813 114.885223 
L 59.939344 113.098194 
L 60.348874 117.806161 
L 60.758405 118.50387 
L 61.577466 129.147062 
L 61.986996 139.077543 
L 62.396527 136.783079 
L 62.806058 136.702781 
L 63.215588 115.811295 
L 63.625119 113.832777 
L 64.034649 112.929141 
L 64.85371 103.333154 
L 65.263241 111.846297 
L 65.672771 98.980968 
L 66.082302 110.58468 
L 66.491832 98.42198 
L 66.901363 97.223736 
L 67.310893 113.383573 
L 67.720424 113.777225 
L 68.949016 123.528531 
L 69.358546 119.230626 
L 69.768077 131.382321 
L 70.177607 132.420492 
L 70.587138 146.724145 
L 70.996668 146.79561 
L 71.406199 149.201705 
L 71.815729 154.116408 
L 72.22526 149.463629 
L 72.634791 155.385358 
L 73.044321 154.41316 
L 73.453852 157.234698 
L 73.863382 147.8733 
L 74.272913 147.718829 
L 74.682443 146.829136 
L 75.091974 144.979794 
L 75.501504 134.323502 
L 75.911035 135.163993 
L 76.320565 135.205667 
L 76.730096 133.314929 
L 77.139626 136.336804 
L 77.549157 138.256352 
L 77.958688 128.552963 
L 78.368218 127.245964 
L 78.777749 128.543788 
L 79.187279 132.670573 
L 79.59681 145.412058 
L 80.00634 142.277496 
L 80.415871 144.910323 
L 80.825401 143.487805 
L 81.234932 143.272142 
L 81.644462 144.919472 
L 82.053993 153.40092 
L 82.463523 155.593838 
L 82.873054 155.154112 
L 83.282585 132.581884 
L 83.692115 132.475292 
L 84.101646 134.605104 
L 84.511176 128.388654 
L 84.920707 128.420264 
L 85.330237 105.682424 
L 85.739768 95.13948 
L 86.149298 108.059904 
L 86.558829 105.254595 
L 86.968359 100.648261 
L 87.37789 119.582882 
L 87.78742 113.244817 
L 88.196951 112.559906 
L 88.606482 119.868746 
L 89.016012 119.642244 
L 89.425543 143.651358 
L 89.835073 149.619304 
L 90.244604 149.659264 
L 90.654134 149.17836 
L 91.063665 152.358296 
L 91.473195 153.61192 
L 91.882726 157.687534 
L 92.292256 154.114683 
L 92.701787 156.031891 
L 93.111318 153.618633 
L 93.520848 141.234351 
L 93.930379 144.410046 
L 94.339909 145.187148 
L 94.74944 150.777446 
L 95.15897 140.274153 
L 95.568501 137.7995 
L 95.978031 139.983196 
L 96.387562 140.12596 
L 96.797092 123.387422 
L 97.206623 116.70121 
L 97.616153 126.034372 
L 98.025684 118.675624 
L 98.435215 116.601265 
L 98.844745 108.788179 
L 99.254276 121.588709 
L 99.663806 121.965944 
L 100.073337 123.966661 
L 100.482867 126.767682 
L 101.301928 156.506073 
L 101.711459 152.230546 
L 102.120989 160.24437 
L 102.53052 158.071534 
L 102.94005 166.545716 
L 103.349581 160.953665 
L 103.759112 159.080764 
L 104.168642 158.015561 
L 104.578173 145.899422 
L 104.987703 140.95934 
L 105.397234 141.120302 
L 105.806764 142.382167 
L 106.216295 143.015023 
L 106.625825 144.114993 
L 107.035356 144.134036 
L 107.444886 149.796995 
L 107.854417 147.008015 
L 108.263948 141.977287 
L 108.673478 147.342637 
L 109.083009 142.259097 
L 109.492539 120.612158 
L 109.90207 127.463575 
L 110.3116 128.006069 
L 110.721131 129.13203 
L 111.130661 128.475878 
L 111.540192 116.16321 
L 111.949722 123.6416 
L 112.359253 118.849533 
L 113.178314 137.712103 
L 113.587845 156.821102 
L 113.997375 155.677436 
L 114.406906 149.18552 
L 114.816436 146.609487 
L 115.225967 147.971014 
L 115.635497 161.025113 
L 116.045028 161.186102 
L 116.454558 168.071378 
L 116.864089 171.156971 
L 117.273619 164.21349 
L 118.09268 162.089583 
L 118.911742 173.892377 
L 119.321272 172.607691 
L 119.730803 173.060798 
L 120.140333 175.244359 
L 120.549864 174.632979 
L 120.959394 164.469522 
L 121.368925 170.098669 
L 121.778455 164.487996 
L 122.187986 165.305634 
L 122.597516 163.985109 
L 123.007047 160.655595 
L 123.416577 163.417262 
L 123.826108 162.715431 
L 124.235639 161.255214 
L 124.645169 165.14613 
L 125.0547 175.9157 
L 126.283291 186.875623 
L 126.692822 187.944597 
L 127.102352 190.462965 
L 127.511883 187.395143 
L 127.921413 186.958584 
L 128.330944 188.11167 
L 128.740475 179.77256 
L 129.150005 177.102229 
L 129.559536 172.049451 
L 129.969066 175.619793 
L 130.378597 174.761001 
L 130.788127 171.914894 
L 131.197658 172.111535 
L 131.607188 172.137253 
L 132.016719 173.66186 
L 132.426249 162.626894 
L 132.83578 172.452018 
L 133.24531 173.733467 
L 133.654841 178.293914 
L 134.473902 179.918212 
L 134.883433 182.967671 
L 135.292963 182.608427 
L 135.702494 183.771925 
L 136.112024 165.355232 
L 136.521555 174.862771 
L 136.931085 174.229462 
L 137.340616 162.752979 
L 137.750146 162.999101 
L 138.159677 158.530635 
L 138.569207 156.156052 
L 139.388269 153.675892 
L 139.797799 153.39907 
L 140.20733 164.479286 
L 140.61686 145.557067 
L 141.026391 146.952379 
L 141.435921 157.010331 
L 141.845452 156.590686 
L 142.254982 157.171202 
L 142.664513 158.585851 
L 143.074043 153.583044 
L 143.483574 153.998067 
L 143.893104 148.110567 
L 144.302635 153.045353 
L 144.712166 175.109631 
L 145.121696 172.640844 
L 145.531227 175.10566 
L 145.940757 174.631148 
L 146.350288 178.919386 
L 146.759818 177.540963 
L 147.169349 181.821021 
L 147.578879 180.974655 
L 147.98841 188.266803 
L 148.39794 190.741299 
L 148.807471 176.488844 
L 149.217002 173.88079 
L 149.626532 175.052983 
L 150.036063 172.90646 
L 150.445593 165.268584 
L 150.855124 166.023686 
L 151.674185 171.734178 
L 152.083715 171.907339 
L 152.493246 169.406306 
L 153.312307 175.892466 
L 153.721837 176.479459 
L 154.131368 179.727781 
L 154.540899 180.552996 
L 154.950429 181.753988 
L 155.35996 181.64987 
L 155.76949 181.856361 
L 156.179021 175.646213 
L 156.998082 166.971212 
L 157.407612 167.895829 
L 157.817143 161.301871 
L 158.226673 159.006863 
L 158.636204 166.684152 
L 159.045734 165.633256 
L 159.455265 167.277732 
L 159.864796 165.025741 
L 160.274326 168.949397 
L 160.683857 174.019084 
L 161.093387 188.755374 
L 161.502918 188.696233 
L 162.731509 177.581532 
L 163.14104 177.943476 
L 163.55057 178.104543 
L 163.960101 175.171678 
L 164.369631 178.009657 
L 164.779162 167.798651 
L 165.188693 168.598647 
L 165.598223 168.568067 
L 166.007754 170.863996 
L 166.826815 179.248132 
L 167.236345 180.454089 
L 167.645876 169.031837 
L 168.055406 171.978135 
L 168.464937 172.691908 
L 168.874467 179.618896 
L 169.283998 178.913778 
L 169.693529 177.872795 
L 170.103059 184.274042 
L 170.51259 182.228166 
L 170.92212 183.049918 
L 171.331651 178.989601 
L 171.741181 187.573166 
L 172.150712 189.807016 
L 172.560242 182.61883 
L 172.969773 188.351341 
L 173.379303 189.163983 
L 173.788834 183.934772 
L 174.198364 183.122838 
L 174.607895 179.835401 
L 175.017426 180.482931 
L 175.426956 172.030544 
L 175.836487 172.469151 
L 176.246017 167.937446 
L 176.655548 167.529682 
L 177.065078 165.317077 
L 177.474609 165.561295 
L 177.884139 169.115922 
L 178.29367 170.747272 
L 178.7032 178.021015 
L 179.112731 175.55417 
L 179.522261 183.646104 
L 179.931792 183.688623 
L 180.341323 173.610514 
L 180.750853 177.646699 
L 181.160384 178.892133 
L 181.569914 178.439194 
L 181.979445 165.077925 
L 182.388975 165.486194 
L 182.798506 163.962027 
L 183.208036 163.861427 
L 183.617567 168.512066 
L 184.027097 165.752626 
L 184.436628 180.204188 
L 184.846159 183.900616 
L 185.255689 185.940223 
L 185.66522 184.601674 
L 186.07475 202.103137 
L 186.484281 195.685999 
L 186.893811 195.909154 
L 187.303342 188.166069 
L 187.712872 185.322747 
L 188.122403 187.394269 
L 188.531933 186.651932 
L 188.941464 186.658765 
L 189.350994 185.832843 
L 189.760525 187.760991 
L 190.170056 185.420553 
L 190.579586 188.195546 
L 190.989117 187.660884 
L 191.398647 194.511772 
L 192.217708 200.858251 
L 192.627239 200.186546 
L 193.036769 200.14319 
L 193.4463 191.086716 
L 193.85583 191.197785 
L 194.265361 190.932843 
L 194.674891 194.718947 
L 195.084422 183.736786 
L 195.493953 186.110625 
L 195.903483 182.886594 
L 196.313014 183.009787 
L 196.722544 178.862228 
L 197.541605 146.484478 
L 197.951136 143.267535 
L 198.360666 146.952804 
L 198.770197 147.315072 
L 199.179727 161.981744 
L 199.589258 163.237487 
L 199.998788 166.488246 
L 200.408319 165.716138 
L 200.81785 166.06376 
L 201.636911 208.686682 
L 202.046441 205.1732 
L 202.455972 204.887146 
L 202.865502 202.762874 
L 203.275033 202.482224 
L 203.684563 195.100224 
L 204.094094 194.502384 
L 204.503624 195.231467 
L 204.913155 198.490894 
L 205.322686 197.575625 
L 205.732216 197.560403 
L 206.141747 204.27536 
L 206.551277 203.717392 
L 206.960808 204.370374 
L 207.370338 204.256641 
L 207.779869 199.49004 
L 208.59893 201.272496 
L 209.00846 199.441368 
L 209.417991 201.00061 
L 210.237052 196.859499 
L 210.646583 196.583351 
L 211.465644 189.377941 
L 211.875174 201.835193 
L 212.284705 196.588102 
L 212.694235 195.176109 
L 213.103766 197.278983 
L 213.513296 193.945089 
L 213.922827 189.243524 
L 214.332357 191.045245 
L 214.741888 191.834825 
L 215.151418 198.54955 
L 215.560949 200.943065 
L 215.97048 200.005204 
L 216.38001 203.744009 
L 216.789541 204.140793 
L 217.199071 205.59312 
L 217.608602 208.215989 
L 218.018132 214.847208 
L 218.427663 215.260452 
L 218.837193 212.941886 
L 219.246724 212.857825 
L 219.656254 212.302949 
L 220.065785 212.773681 
L 220.475315 213.624109 
L 220.884846 210.824087 
L 221.294377 202.272218 
L 221.703907 201.275982 
L 222.113438 195.742992 
L 222.522968 184.026732 
L 222.932499 186.283615 
L 223.342029 183.47002 
L 223.75156 184.634242 
L 224.16109 181.492131 
L 224.570621 181.461874 
L 224.980151 184.26494 
L 225.389682 193.307486 
L 225.799213 194.340258 
L 226.208743 190.518379 
L 226.618274 202.717452 
L 227.027804 202.715743 
L 227.437335 199.474547 
L 227.846865 199.026902 
L 228.256396 194.773681 
L 228.665926 195.110814 
L 229.075457 193.391741 
L 229.484987 190.871834 
L 229.894518 190.865651 
L 230.304048 199.738847 
L 230.713579 199.317825 
L 231.12311 196.074672 
L 231.53264 199.185709 
L 231.942171 196.500547 
L 232.351701 201.831608 
L 232.761232 201.46949 
L 233.170762 199.67674 
L 233.580293 202.775528 
L 233.989823 201.027526 
L 234.399354 201.324912 
L 234.808884 185.487601 
L 235.218415 187.494516 
L 235.627945 190.307763 
L 236.037476 194.053262 
L 236.447007 184.591689 
L 236.856537 184.717326 
L 237.266068 189.544697 
L 237.675598 184.37214 
L 238.085129 186.907303 
L 238.494659 187.862509 
L 238.90419 204.439607 
L 239.31372 205.298005 
L 239.723251 206.723755 
L 240.132781 206.297803 
L 240.542312 218.296995 
L 240.951843 216.064 
L 241.361373 216.464819 
L 241.770904 220.084352 
L 242.180434 219.325758 
L 242.589965 220.309902 
L 242.999495 217.560716 
L 243.409026 217.746073 
L 243.818556 215.706133 
L 244.228087 215.986145 
L 244.637617 210.735279 
L 245.047148 214.249976 
L 245.456678 212.256062 
L 245.866209 211.483724 
L 246.27574 204.530594 
L 246.68527 202.356194 
L 247.094801 198.515427 
L 247.504331 198.750884 
L 247.913862 195.266151 
L 248.323392 195.812239 
L 248.732923 200.79217 
L 249.142453 199.330799 
L 249.551984 191.594859 
L 249.961514 194.245863 
L 250.780575 189.877234 
L 251.190106 196.942784 
L 251.599637 193.48076 
L 252.009167 196.76152 
L 252.418698 189.727687 
L 253.237759 191.327695 
L 253.647289 197.404105 
L 254.05682 195.412116 
L 254.46635 204.493181 
L 254.875881 202.289873 
L 255.285411 194.494336 
L 255.694942 192.316617 
L 256.104472 189.326821 
L 256.514003 196.674652 
L 256.923534 189.026565 
L 257.333064 186.707948 
L 257.742595 185.225472 
L 258.152125 185.662222 
L 258.561656 182.532522 
L 258.971186 189.656674 
L 259.380717 187.32315 
L 260.199778 197.008508 
L 260.609308 194.835173 
L 261.018839 201.032015 
L 261.42837 202.348514 
L 261.8379 207.56003 
L 262.656961 215.358989 
L 263.066492 201.707157 
L 263.476022 202.372227 
L 263.885553 204.20715 
L 264.295083 204.537963 
L 264.704614 206.697686 
L 265.114144 206.381043 
L 265.523675 209.156738 
L 265.933205 207.022765 
L 266.342736 207.231056 
L 266.752267 201.166916 
L 267.571328 221.551598 
L 267.980858 218.484967 
L 268.390389 218.437226 
L 268.799919 218.038281 
L 269.61898 216.324542 
L 270.028511 219.066889 
L 270.438041 216.609101 
L 270.847572 221.57586 
L 271.257102 223.210024 
L 271.666633 223.426051 
L 272.485694 217.41394 
L 272.895225 218.586251 
L 273.304755 218.257896 
L 273.714286 220.445295 
L 274.123816 218.101335 
L 274.533347 219.77472 
L 274.942877 223.046316 
L 275.352408 221.92439 
L 275.761938 223.022203 
L 276.171469 228.395417 
L 276.580999 230.75453 
L 276.99053 229.056484 
L 277.400061 230.558918 
L 277.809591 229.648079 
L 278.219122 232.436276 
L 278.628652 232.733896 
L 279.038183 231.076266 
L 279.447713 232.231674 
L 279.857244 231.463935 
L 280.266774 232.198937 
L 280.676305 231.855446 
L 281.085835 230.611097 
L 281.495366 231.836345 
L 281.904897 231.758424 
L 282.314427 232.024355 
L 282.723958 232.683187 
L 283.133488 235.241324 
L 283.543019 230.602084 
L 283.952549 222.086851 
L 284.36208 219.358761 
L 284.77161 219.660954 
L 285.181141 217.919666 
L 285.590671 217.691374 
L 286.409732 214.379408 
L 287.228794 206.820103 
L 287.638324 211.009502 
L 288.047855 219.903909 
L 288.457385 223.940762 
L 288.866916 222.001744 
L 289.276446 218.419299 
L 289.685977 219.752666 
L 290.505038 214.59209 
L 290.914568 218.073466 
L 291.324099 219.368998 
L 291.733629 222.669821 
L 292.14316 218.286819 
L 292.552691 218.602967 
L 292.962221 220.293827 
L 293.371752 225.646338 
L 293.781282 215.795571 
L 294.190813 220.345663 
L 294.600343 221.109828 
L 295.009874 219.709829 
L 295.419404 220.885072 
L 295.828935 214.704091 
L 296.238465 219.824357 
L 296.647996 218.551376 
L 297.057527 220.82587 
L 297.467057 225.219603 
L 297.876588 237.302688 
L 298.286118 238.934192 
L 298.695649 243.243438 
L 299.105179 246.111336 
L 299.51471 245.505026 
L 299.92424 250.955596 
L 300.333771 250.104833 
L 300.743301 250.289468 
L 301.152832 249.849802 
L 301.562362 232.11448 
L 301.971893 229.830172 
L 302.790954 230.389581 
L 303.200485 222.294509 
L 303.610015 223.334888 
L 304.019546 222.698846 
L 304.429076 224.447834 
L 304.838607 222.841183 
L 305.248137 223.319853 
L 305.657668 240.679944 
L 306.067198 242.226779 
L 306.886259 240.487914 
L 307.29579 248.530915 
L 307.705321 243.59921 
L 308.114851 244.236568 
L 308.524382 243.711494 
L 308.933912 236.762427 
L 309.343443 235.201177 
L 309.752973 234.796645 
L 310.162504 235.593581 
L 310.572034 235.68825 
L 310.981565 237.24803 
L 311.391095 229.224907 
L 311.800626 232.136998 
L 312.210156 229.488041 
L 312.619687 228.441819 
L 313.029218 237.666775 
L 313.438748 241.346288 
L 314.257809 241.689785 
L 314.66734 241.222977 
L 315.07687 242.433916 
L 315.486401 246.721989 
L 315.895931 249.125782 
L 316.305462 254.104578 
L 316.714992 250.495817 
L 317.124523 250.6635 
L 317.534054 250.205382 
L 317.943584 251.797648 
L 318.353115 251.776275 
L 318.762645 250.326301 
L 319.172176 249.610213 
L 319.581706 255.319075 
L 319.991237 253.810965 
L 320.400767 253.304461 
L 320.810298 259.202301 
L 321.219828 260.895405 
L 321.629359 261.228515 
L 322.038889 259.348909 
L 322.44842 260.607692 
L 322.857951 264.544972 
L 323.267481 266.619911 
L 323.677012 264.75592 
L 324.086542 267.657938 
L 324.496073 268.378547 
L 324.905603 268.624719 
L 325.315134 267.629642 
L 325.724664 267.229826 
L 326.134195 268.31298 
L 326.543725 267.41923 
L 326.953256 267.334437 
L 327.362786 267.790854 
L 327.772317 270.244419 
L 328.181848 270.023546 
L 328.591378 272.124116 
L 329.000909 269.994547 
L 329.410439 273.234002 
L 329.81997 271.710065 
L 330.2295 273.490455 
L 331.048561 271.639024 
L 331.458092 267.150023 
L 331.867622 267.291211 
L 332.277153 264.983566 
L 332.686683 263.602518 
L 333.096214 265.464957 
L 333.505745 263.453155 
L 333.915275 266.185801 
L 334.324806 261.061621 
L 334.734336 264.230238 
L 335.143867 263.569857 
L 335.553397 267.93782 
L 335.962928 268.91613 
L 336.372458 272.67521 
L 336.781989 272.872445 
L 337.191519 274.824983 
L 337.60105 276.086594 
L 338.010581 276.150084 
L 338.420111 282.262306 
L 338.829642 282.020736 
L 339.239172 283.703076 
L 339.648703 283.767947 
L 340.058233 279.126384 
L 340.467764 278.770683 
L 341.286825 274.996575 
L 341.696355 276.041049 
L 342.105886 275.811762 
L 342.515416 274.721633 
L 343.334478 276.592196 
L 343.744008 273.537988 
L 344.153539 278.151148 
L 344.563069 279.17655 
L 344.9726 283.003555 
L 345.38213 282.737393 
L 345.791661 280.306615 
L 346.201191 282.195434 
L 346.610722 276.428683 
L 347.020252 272.761681 
L 347.429783 270.824828 
L 347.839313 273.216627 
L 348.248844 272.703961 
L 348.658375 269.994663 
L 349.067905 268.186106 
L 349.886966 272.829233 
L 350.296497 263.80179 
L 350.706027 270.964366 
L 351.115558 274.077152 
L 351.525088 275.619179 
L 351.934619 276.059324 
L 352.344149 278.110279 
L 352.75368 276.416512 
L 353.16321 277.979484 
L 353.572741 278.131432 
L 353.982272 278.647704 
L 354.391802 284.985682 
L 354.801333 281.678465 
L 355.210863 282.307178 
L 355.620394 279.6027 
L 356.029924 280.843235 
L 356.439455 279.700863 
L 356.848985 283.061722 
L 357.258516 284.252312 
L 357.668046 284.982389 
L 358.487108 287.980671 
L 358.896638 292.695594 
L 359.306169 294.416951 
L 359.715699 297.479552 
L 360.12523 298.458269 
L 360.53476 298.293913 
L 360.944291 293.746195 
L 361.353821 292.166111 
L 361.763352 289.584511 
L 362.172882 290.146779 
L 362.582413 291.855892 
L 362.991943 285.385937 
L 363.811005 282.873703 
L 364.220535 282.4641 
L 364.630066 284.213047 
L 365.039596 290.941134 
L 365.449127 289.426049 
L 365.858657 290.603686 
L 366.268188 289.483334 
L 366.677718 282.297503 
L 367.087249 288.928325 
L 367.496779 289.659119 
L 367.90631 291.668024 
L 368.31584 291.191783 
L 368.725371 290.066708 
L 369.134902 292.150761 
L 369.544432 295.387798 
L 369.953963 297.498448 
L 370.363493 294.513626 
L 370.773024 302.383118 
L 371.182554 302.907062 
L 371.592085 302.832414 
L 372.001615 304.13015 
L 372.820676 304.606814 
L 374.049268 291.971353 
L 374.458799 294.397508 
L 374.868329 289.351376 
L 375.27786 289.499169 
L 376.096921 289.545936 
L 376.506451 289.899975 
L 376.915982 290.843162 
L 378.144573 304.117153 
L 378.554104 304.355119 
L 378.963635 309.704458 
L 379.373165 308.490833 
L 379.782696 310.569404 
L 380.192226 311.768091 
L 380.601757 313.882058 
L 381.420818 311.212905 
L 381.830348 309.339582 
L 382.239879 309.551187 
L 382.649409 310.734633 
L 383.05894 305.601167 
L 383.46847 306.773995 
L 383.878001 307.066832 
L 384.287532 306.112607 
L 384.697062 304.332676 
L 385.106593 305.234863 
L 385.516123 303.944381 
L 385.925654 305.862572 
L 386.335184 307.176103 
L 386.744715 307.822757 
L 387.154245 313.652165 
L 387.563776 313.648043 
L 387.973306 312.549903 
L 388.382837 313.901959 
L 388.792367 314.414216 
L 389.201898 314.634617 
L 389.611429 316.735109 
L 390.020959 315.503272 
L 390.43049 315.036053 
L 390.84002 315.400146 
L 391.249551 315.561665 
L 391.659081 316.295096 
L 392.478142 311.631601 
L 392.887673 311.992984 
L 393.297203 313.607039 
L 393.706734 313.487266 
L 394.116265 314.079673 
L 394.525795 315.526526 
L 394.935326 313.577314 
L 395.344856 312.597613 
L 395.754387 314.337323 
L 396.163917 317.376208 
L 396.573448 318.814306 
L 396.982978 317.459206 
L 397.392509 316.985993 
L 397.802039 318.167977 
L 398.21157 318.698781 
L 398.6211 317.972746 
L 399.030631 319.152619 
L 399.440162 319.464584 
L 399.849692 315.960984 
L 400.668753 319.005514 
L 401.078284 321.64312 
L 401.897345 321.880756 
L 402.306875 322.93134 
L 402.716406 322.950157 
L 403.125936 326.429308 
L 403.535467 327.899954 
L 403.944997 329.893293 
L 404.354528 326.721771 
L 404.764059 326.712211 
L 405.173589 326.472251 
L 405.58312 327.546497 
L 405.99265 324.373547 
L 406.402181 324.437079 
L 406.811711 323.518413 
L 407.221242 321.5981 
L 407.630772 320.276101 
L 408.040303 322.097113 
L 408.449833 325.815269 
L 408.859364 322.891158 
L 409.268894 322.683825 
L 409.678425 323.476759 
L 410.087956 326.862162 
L 410.497486 325.996145 
L 410.907017 327.423084 
L 411.316547 328.232781 
L 412.135608 323.421367 
L 412.545139 323.709893 
L 412.954669 325.110261 
L 413.3642 325.965366 
L 413.77373 324.027161 
L 414.183261 319.838681 
L 415.002322 321.397117 
L 415.411853 317.497297 
L 415.821383 322.548168 
L 416.230914 325.226355 
L 416.640444 324.08341 
L 417.049975 326.787844 
L 417.459505 324.579709 
L 417.869036 326.047231 
L 418.278566 329.749836 
L 418.688097 330.785493 
L 419.097627 330.494104 
L 419.507158 332.140579 
L 420.326219 330.179335 
L 420.73575 330.284545 
L 421.14528 328.952847 
L 421.554811 331.877582 
L 421.964341 328.35763 
L 422.373872 329.090669 
L 422.783402 329.233074 
L 423.192933 326.974649 
L 423.602463 328.76279 
L 424.011994 327.844421 
L 424.831055 329.251716 
L 425.240586 330.749188 
L 425.650116 331.551922 
L 426.059647 335.440713 
L 426.469177 335.259729 
L 426.878708 336.332939 
L 427.288238 338.382488 
L 427.697769 338.745735 
L 428.107299 340.450626 
L 428.51683 340.021624 
L 429.335891 339.780895 
L 429.745422 338.725882 
L 430.154952 339.046002 
L 430.564483 339.582633 
L 431.383544 338.285845 
L 431.793074 337.456977 
L 432.202605 338.428839 
L 432.612135 337.94673 
L 433.021666 338.146567 
L 433.431196 337.192293 
L 433.840727 334.667828 
L 434.250257 331.104055 
L 434.659788 332.645902 
L 435.069319 332.816322 
L 435.478849 333.941236 
L 435.88838 335.497788 
L 436.29791 334.964072 
L 436.707441 336.072491 
L 437.116971 335.129125 
L 437.936032 339.624729 
L 438.345563 344.409513 
L 438.755093 341.797232 
L 439.164624 341.583162 
L 439.574154 342.618065 
L 439.983685 342.825441 
L 440.393216 342.59226 
L 440.802746 344.138834 
L 441.212277 346.85008 
L 441.621807 345.626928 
L 442.031338 347.599416 
L 442.440868 348.17003 
L 442.850399 349.495927 
L 443.259929 350.392165 
L 443.66946 350.58775 
L 444.07899 351.923166 
L 444.488521 348.683477 
L 444.898051 348.213734 
L 445.307582 346.223691 
L 445.717113 346.021556 
L 446.126643 344.741785 
L 446.536174 344.484733 
L 446.945704 343.22507 
L 447.355235 343.732715 
L 447.764765 342.419821 
L 448.174296 339.578917 
L 448.583826 342.318372 
L 448.993357 342.34763 
L 449.402887 341.910187 
L 449.812418 343.014733 
L 450.631479 340.562638 
L 451.04101 342.53785 
L 451.45054 339.481451 
L 451.860071 340.328785 
L 452.269601 340.858052 
L 452.679132 341.152918 
L 453.088662 340.7378 
L 453.498193 342.58138 
L 453.907723 342.094083 
L 454.317254 343.544193 
L 454.726784 343.78071 
L 455.136315 344.171347 
L 455.545846 347.223704 
L 455.955376 348.637234 
L 456.364907 349.552196 
L 456.774437 352.413367 
L 457.183968 353.36665 
L 457.593498 353.755645 
L 458.003029 355.181755 
L 458.412559 355.580005 
L 458.82209 355.169397 
L 459.23162 354.939541 
L 460.050681 351.398252 
L 460.460212 349.765671 
L 460.869743 345.256667 
L 461.279273 345.372485 
L 462.098334 343.63293 
L 462.507865 342.482419 
L 463.326926 344.826638 
L 463.736456 347.255112 
L 464.145987 348.489722 
L 464.555517 350.083798 
L 464.965048 354.528063 
L 465.784109 352.640412 
L 466.19364 353.392811 
L 466.60317 354.394934 
L 467.012701 354.36384 
L 467.422231 354.537764 
L 467.831762 351.541205 
L 468.241292 352.560032 
L 468.650823 354.29979 
L 469.060353 353.970434 
L 469.469884 351.680759 
L 469.879414 353.346537 
L 470.288945 353.432027 
L 470.698476 355.209572 
L 471.108006 355.856664 
L 471.517537 355.572424 
L 471.927067 357.106385 
L 472.336598 356.523828 
L 472.746128 356.568104 
L 473.155659 356.033003 
L 473.565189 359.952273 
L 473.97472 357.868285 
L 474.38425 358.11094 
L 474.793781 357.598984 
L 475.203311 358.365606 
L 475.612842 356.218445 
L 476.022373 357.432409 
L 476.431903 355.05244 
L 476.841434 355.222598 
L 477.250964 355.978863 
L 477.660495 354.344259 
L 478.070025 356.778694 
L 478.479556 354.863403 
L 478.889086 354.279737 
L 479.298617 352.856241 
L 479.708147 354.201015 
L 480.117678 353.683899 
L 480.527208 355.923826 
L 480.936739 355.700473 
L 481.34627 355.286075 
L 481.7558 356.214065 
L 482.165331 356.353532 
L 482.574861 357.586495 
L 482.984392 358.064151 
L 483.393922 358.724287 
L 483.803453 358.557115 
L 484.212983 359.553398 
L 484.622514 360.196822 
L 485.032044 360.562298 
L 485.441575 357.66443 
L 485.851106 357.869546 
L 486.260636 357.297244 
L 486.670167 358.401004 
L 487.079697 358.220385 
L 487.489228 358.634764 
L 487.898758 360.462387 
L 488.308289 361.015225 
L 488.717819 361.004213 
L 489.12735 358.442484 
L 489.53688 359.296667 
L 489.946411 358.092063 
L 490.355941 358.450816 
L 491.175003 355.594268 
L 491.584533 355.450369 
L 492.403594 351.492332 
L 492.813125 352.127306 
L 493.222655 355.297903 
L 493.632186 355.740225 
L 494.451247 357.390806 
L 494.860777 354.970064 
L 495.270308 354.389421 
L 495.679838 355.193387 
L 496.089369 355.568239 
L 496.4989 356.150585 
L 496.90843 355.037471 
L 497.317961 354.802678 
L 497.727491 355.795724 
L 498.137022 357.356309 
L 498.546552 355.570353 
L 499.365613 362.349662 
L 499.775144 362.215849 
L 500.184674 361.868331 
L 500.594205 361.844386 
L 501.003735 363.1912 
L 501.413266 362.367767 
L 501.822797 362.34436 
L 502.232327 361.860917 
L 502.641858 363.568252 
L 503.051388 363.50811 
L 503.460919 359.433233 
L 503.870449 359.297327 
L 504.27998 359.713625 
L 504.68951 359.338875 
L 505.099041 358.071381 
L 505.508571 358.733395 
L 505.918102 360.236462 
L 506.327633 360.505727 
L 506.737163 359.789453 
L 507.146694 359.4487 
L 507.556224 362.995735 
L 507.965755 360.69754 
L 508.375285 362.067845 
L 508.784816 362.587472 
L 509.194346 363.916717 
L 509.603877 363.995489 
L 510.013407 364.540375 
L 510.422938 364.242363 
L 510.832468 363.291719 
L 511.241999 363.913798 
L 511.65153 363.339909 
L 512.06106 364.876965 
L 512.470591 363.426799 
L 512.880121 364.276858 
L 513.289652 363.670524 
L 513.699182 361.39159 
L 514.518243 360.041905 
L 515.746835 361.200515 
L 516.156365 361.460214 
L 516.565896 363.372185 
L 517.384957 363.378148 
L 517.794488 366.214245 
L 518.204018 361.342857 
L 518.613549 361.311403 
L 519.023079 362.948606 
L 519.43261 362.396869 
L 519.84214 363.254024 
L 520.251671 363.398093 
L 520.661201 361.205572 
L 521.070732 360.155918 
L 521.480262 360.196605 
L 521.889793 358.754428 
L 522.299324 363.272053 
L 522.708854 364.258095 
L 523.118385 361.83206 
L 523.937446 362.281642 
L 524.346976 362.007458 
L 524.756507 364.236322 
L 525.166037 365.791005 
L 525.575568 365.196767 
L 525.985098 366.008438 
L 526.394629 366.398227 
L 526.80416 365.887235 
L 527.21369 368.289725 
L 527.623221 366.530493 
L 528.442282 364.974973 
L 528.851812 363.877978 
L 529.261343 363.646642 
L 530.080404 364.655649 
L 530.489934 364.511392 
L 530.899465 365.169135 
L 531.308995 364.961946 
L 531.718526 366.502761 
L 532.128057 366.542886 
L 532.537587 368.163267 
L 532.947118 368.708692 
L 533.356648 368.530844 
L 533.766179 369.487146 
L 534.175709 368.682402 
L 534.58524 369.777607 
L 534.99477 369.351528 
L 535.404301 370.353231 
L 535.813831 371.000345 
L 536.223362 369.966888 
L 536.632892 367.826448 
L 537.042423 367.790817 
L 537.451954 366.486447 
L 537.861484 364.361789 
L 538.271015 363.861433 
L 538.680545 361.386313 
L 539.090076 359.615905 
L 539.499606 356.084002 
L 539.909137 356.352218 
L 540.318667 357.914633 
L 540.728198 360.573493 
L 541.137728 360.567499 
L 541.547259 359.779404 
L 541.95679 362.613358 
L 542.36632 364.358465 
L 542.775851 367.093882 
L 543.185381 367.973187 
L 543.594912 370.314027 
L 544.004442 370.111523 
L 544.413973 368.438376 
L 545.233034 367.61459 
L 545.642564 367.69981 
L 546.461625 366.569451 
L 546.871156 362.8581 
L 547.280687 364.133573 
L 547.690217 364.554138 
L 548.099748 364.556898 
L 548.509278 366.256079 
L 549.328339 366.631073 
L 549.73787 367.048103 
L 550.1474 365.475534 
L 550.556931 365.54122 
L 550.966461 368.393676 
L 551.375992 367.093926 
L 551.785522 365.391153 
L 552.195053 365.3429 
L 553.014114 364.498344 
L 553.833175 366.72002 
L 554.242706 369.307285 
L 554.652236 365.515298 
L 555.061767 364.156954 
L 555.471297 365.979815 
L 555.880828 368.939659 
L 556.290358 368.367317 
L 556.699889 368.656108 
L 557.109419 368.298823 
L 557.51895 367.566349 
L 557.928481 368.128114 
L 558.338011 366.904805 
L 558.747542 370.666262 
L 559.157072 372.620437 
L 559.566603 372.744571 
L 559.976133 370.521192 
L 560.385664 371.53664 
L 560.795194 370.891814 
L 561.204725 372.10589 
L 561.614255 372.332442 
L 562.023786 372.816985 
L 562.842847 372.823416 
L 563.252378 365.301443 
L 563.661908 364.644448 
L 564.071439 365.817183 
L 564.480969 364.512806 
L 564.8905 364.016496 
L 565.709561 363.548064 
L 566.119091 362.842366 
L 566.938152 364.462058 
L 567.347683 367.198138 
L 567.757214 367.384209 
L 568.166744 366.632849 
L 568.576275 367.749682 
L 568.985805 367.046721 
L 569.395336 367.534731 
L 569.804866 368.272837 
L 570.214397 368.301559 
L 570.623927 366.477874 
L 571.033458 365.836588 
L 571.442988 370.174086 
L 571.852519 368.700502 
L 572.67158 369.810732 
L 573.081111 371.267297 
L 573.490641 370.306436 
L 573.900172 370.040904 
L 574.309702 369.512778 
L 574.719233 370.049201 
L 575.538294 370.180049 
L 576.357355 371.07829 
L 576.766885 369.649238 
L 577.176416 368.892791 
L 577.585946 368.969944 
L 577.995477 368.534276 
L 578.405008 369.819465 
L 578.814538 370.092829 
L 579.224069 370.065515 
L 579.633599 370.201738 
L 580.04313 370.478417 
L 580.45266 369.911567 
L 580.862191 369.029323 
L 581.271721 370.693625 
L 582.090782 372.376998 
L 582.500313 371.509801 
L 582.909844 371.955396 
L 583.319374 372.650156 
L 583.728905 372.883393 
L 584.138435 373.57677 
L 584.547966 373.528704 
L 584.957496 375.040557 
L 585.367027 373.952502 
L 585.776557 371.069315 
L 586.186088 371.446249 
L 586.595618 372.671215 
L 587.005149 370.257861 
L 587.414679 368.966118 
L 587.82421 368.413445 
L 588.233741 368.136149 
L 588.643271 368.629789 
L 589.462332 370.452561 
L 589.871863 373.096592 
L 590.281393 372.400563 
L 590.690924 371.093187 
L 591.100454 374.175305 
L 591.509985 374.063337 
L 591.919515 374.735845 
L 592.329046 374.017088 
L 592.738576 374.037912 
L 593.148107 373.75447 
L 593.557638 373.760773 
L 593.967168 373.950365 
L 594.376699 373.934412 
L 595.19576 371.739454 
L 595.60529 373.180921 
L 596.014821 372.83562 
L 596.424351 374.293997 
L 596.833882 373.992772 
L 597.243412 374.077274 
L 597.652943 374.280775 
L 598.062473 373.352168 
L 598.472004 372.841856 
L 598.881535 374.569538 
L 599.291065 375.430867 
L 599.700596 375.533822 
L 600.110126 374.61754 
L 600.519657 374.169337 
L 600.929187 373.923073 
L 601.338718 374.050405 
L 601.748248 373.065525 
L 602.567309 374.824859 
L 602.97684 373.557265 
L 603.386371 373.932272 
L 603.795901 372.883067 
L 604.205432 374.308343 
L 604.614962 374.440738 
L 605.024493 374.854402 
L 605.843554 373.521277 
L 606.253084 373.50034 
L 606.662615 373.610326 
L 607.072145 374.843876 
L 607.481676 374.789903 
L 607.891206 375.332793 
L 608.300737 375.239412 
L 608.710268 375.522828 
L 609.119798 376.453609 
L 609.529329 377.102025 
L 609.938859 378.408913 
L 610.75792 377.869458 
L 611.167451 376.498637 
L 611.576981 375.617721 
L 611.986512 375.569401 
L 612.396042 375.846904 
L 612.805573 370.87572 
L 613.215103 369.052144 
L 613.624634 368.190205 
L 614.034165 369.125668 
L 614.443695 369.45349 
L 614.853226 360.6635 
L 615.262756 361.557933 
L 615.672287 361.813294 
L 616.081817 362.293861 
L 616.491348 361.959212 
L 616.900878 365.489008 
L 617.310409 365.743585 
L 617.719939 366.180969 
L 618.12947 365.31567 
L 618.539001 363.582134 
L 618.948531 372.278364 
L 619.358062 371.503743 
L 619.767592 371.090118 
L 620.177123 370.047735 
L 620.586653 370.009862 
L 620.996184 369.591935 
L 621.405714 369.561237 
L 621.815245 370.050647 
L 622.224775 370.217448 
L 622.634306 371.82944 
L 623.043836 369.235774 
L 624.272428 373.247116 
L 624.681959 372.34422 
L 625.091489 372.928297 
L 625.50102 374.179852 
L 625.91055 373.530268 
L 626.320081 372.241859 
L 626.729611 372.527829 
L 627.139142 375.376668 
L 627.548672 375.240716 
L 627.958203 374.544129 
L 628.367733 372.335001 
L 629.186795 374.714946 
L 629.596325 374.55293 
L 630.005856 373.738172 
L 630.415386 373.425649 
L 630.824917 369.664466 
L 631.234447 368.423951 
L 631.643978 368.373682 
L 632.053508 367.059364 
L 632.463039 367.909623 
L 633.2821 368.109328 
L 633.69163 367.309862 
L 634.101161 368.564308 
L 634.510692 370.513782 
L 634.920222 374.166489 
L 635.329753 375.615734 
L 636.148814 377.584726 
L 636.558344 377.8043 
L 637.377405 376.269897 
L 637.786936 377.555932 
L 638.196466 377.81719 
L 638.605997 377.661562 
L 639.015528 378.093961 
L 639.425058 378.156332 
L 639.834589 377.746435 
L 640.244119 376.748026 
L 640.65365 377.662529 
L 641.06318 377.649267 
L 641.472711 377.123626 
L 641.882241 375.816322 
L 642.291772 375.570565 
L 642.701302 375.863422 
L 643.520363 375.131584 
L 643.929894 375.080068 
L 644.339425 376.37623 
L 644.748955 376.249196 
L 645.977547 378.891033 
L 646.387077 379.408072 
L 646.796608 378.676697 
L 647.206138 378.737578 
L 647.615669 377.744549 
L 648.43473 379.257878 
L 648.84426 378.580844 
L 649.253791 375.535846 
L 649.663322 375.939351 
L 650.072852 375.960517 
L 650.482383 374.918897 
L 650.891913 374.386072 
L 651.301444 373.310975 
L 651.710974 372.561553 
L 652.120505 369.822282 
L 652.939566 369.129806 
L 653.349096 372.026743 
L 653.758627 371.178888 
L 654.168157 371.820508 
L 654.577688 372.108315 
L 654.987219 371.885504 
L 655.396749 373.182508 
L 656.21581 377.495204 
L 656.625341 377.66717 
L 657.034871 378.785502 
L 657.444402 379.501456 
L 657.853932 379.654148 
L 658.263463 378.765248 
L 658.672993 379.116575 
L 659.082524 380.515122 
L 659.492055 380.075361 
L 659.901585 379.188488 
L 660.311116 378.822551 
L 661.130177 378.423221 
L 661.539707 377.288621 
L 661.949238 378.306045 
L 663.177829 376.53964 
L 663.58736 376.30378 
L 663.99689 377.4662 
L 664.406421 376.64397 
L 664.815952 376.562841 
L 665.225482 375.587495 
L 665.635013 375.838211 
L 666.044543 374.36427 
L 666.454074 375.276027 
L 666.863604 375.375633 
L 667.273135 375.954199 
L 667.682665 376.228614 
L 668.092196 375.367243 
L 668.911257 375.610322 
L 669.320787 376.452598 
L 669.730318 375.91142 
L 670.139849 377.024835 
L 670.549379 375.400799 
L 670.95891 376.170164 
L 671.36844 376.337742 
L 671.777971 374.847533 
L 672.187501 375.988075 
L 672.597032 376.370175 
L 673.416093 376.063983 
L 673.825623 376.125922 
L 674.235154 375.883325 
L 675.054215 375.967297 
L 675.463746 375.51208 
L 675.873276 377.562497 
L 676.282807 377.591258 
L 676.692337 376.447975 
L 677.101868 376.087163 
L 678.330459 376.551077 
L 678.73999 378.617787 
L 679.14952 378.399383 
L 679.559051 377.446363 
L 680.378112 376.44118 
L 680.787643 378.548143 
L 681.197173 379.026733 
L 681.606704 379.252999 
L 682.016234 379.040509 
L 682.425765 377.203127 
L 682.835295 377.270074 
L 683.244826 374.393898 
L 683.654356 375.719927 
L 684.063887 375.222851 
L 684.473417 374.224213 
L 684.882948 373.710152 
L 685.292479 370.590045 
L 686.11154 370.345759 
L 686.52107 372.63272 
L 686.930601 372.126046 
L 687.340131 372.876237 
L 687.749662 372.345615 
L 688.159192 373.250089 
L 688.568723 374.775017 
L 688.978253 374.557251 
L 689.387784 377.910173 
L 689.797314 378.404725 
L 690.206845 379.654675 
L 690.616376 378.657776 
L 691.025906 378.991243 
L 691.435437 380.647046 
L 691.844967 380.942518 
L 692.254498 380.107536 
L 693.073559 379.605984 
L 693.483089 377.995767 
L 693.89262 377.615122 
L 694.711681 377.855418 
L 695.121212 376.014927 
L 695.530742 376.564895 
L 696.349803 375.876506 
L 697.168864 376.299144 
L 697.578395 377.465523 
L 697.987925 376.325428 
L 698.397456 374.658983 
L 698.806986 375.681431 
L 699.216517 376.053016 
L 699.626047 376.171448 
L 700.035578 376.533547 
L 700.445109 377.559403 
L 701.26417 373.227247 
L 701.6737 373.298018 
L 702.083231 373.610144 
L 702.492761 375.491382 
L 702.902292 374.791321 
L 703.311822 376.108811 
L 704.130883 376.163991 
L 704.540414 371.347373 
L 705.359475 376.823284 
L 705.769006 377.086566 
L 706.178536 378.56407 
L 706.588067 376.195118 
L 706.997597 376.80952 
L 707.407128 376.991127 
L 707.816658 376.51595 
L 708.226189 376.94642 
L 708.635719 381.689039 
L 709.45478 379.311488 
L 709.864311 376.815275 
L 710.273841 376.093625 
L 710.683372 376.661458 
L 711.092903 376.702774 
L 711.502433 374.919328 
L 711.911964 375.692778 
L 712.321494 375.471292 
L 712.731025 375.844382 
L 713.140555 377.133286 
L 713.550086 376.47824 
L 713.959616 378.321904 
L 714.369147 378.530558 
L 714.778677 379.897872 
L 715.188208 379.670315 
L 715.597739 380.91887 
L 716.007269 380.820484 
L 716.4168 379.668428 
L 716.82633 379.391745 
L 717.235861 378.195442 
L 718.054922 379.82161 
L 718.464452 380.091078 
L 718.873983 380.53251 
L 719.283513 377.657778 
L 719.693044 377.57866 
L 720.102574 376.69459 
L 720.512105 378.324653 
L 720.921636 378.060276 
L 721.331166 375.887505 
L 721.740697 376.720605 
L 722.150227 375.607169 
L 722.559758 375.452443 
L 722.969288 375.034402 
L 723.378819 377.69409 
L 724.19788 379.432263 
L 724.60741 378.795996 
L 725.016941 378.968125 
L 725.426471 381.74386 
L 725.836002 380.578623 
L 726.245533 381.731381 
L 726.655063 381.542871 
L 727.064594 382.126297 
L 727.474124 382.058349 
L 728.293185 380.915271 
L 728.702716 380.557572 
L 729.112246 380.682244 
L 729.521777 380.934175 
L 729.931307 382.117804 
L 730.340838 382.022049 
L 730.750369 381.240775 
L 731.159899 379.919549 
L 731.56943 380.029464 
L 731.97896 379.657816 
L 732.388491 380.10631 
L 732.798021 380.933662 
L 733.207552 379.224376 
L 733.617082 378.914711 
L 734.436143 378.879293 
L 734.845674 379.651855 
L 735.255204 379.988981 
L 735.664735 379.816068 
L 736.483796 380.258591 
L 736.893327 379.111705 
L 737.302857 381.02303 
L 737.712388 381.623588 
L 738.121918 381.716894 
L 738.940979 381.30176 
L 739.35051 381.676682 
L 739.76004 381.303404 
L 740.169571 381.75274 
L 740.579101 381.492045 
L 740.988632 382.510389 
L 741.398163 381.345906 
L 742.217224 380.855238 
L 743.036285 381.588494 
L 743.445815 381.754569 
L 743.855346 382.910431 
L 744.264876 381.98726 
L 744.674407 381.540499 
L 745.083937 381.758957 
L 745.493468 382.897499 
L 745.902998 382.309661 
L 746.72206 380.519795 
L 747.13159 380.91032 
L 747.950651 380.650393 
L 748.769712 382.415816 
L 749.179243 382.225783 
L 749.588773 382.20182 
L 750.407834 382.550724 
L 750.817365 383.459294 
L 751.636426 383.307932 
L 752.045957 382.882602 
L 752.455487 382.080255 
L 752.865018 380.380983 
L 753.274548 380.657796 
L 753.684079 380.011985 
L 754.093609 379.89581 
L 754.50314 380.743721 
L 754.91267 380.703177 
L 755.322201 379.817953 
L 755.731731 379.561261 
L 756.141262 380.278493 
L 756.550793 380.687164 
L 756.960323 382.253907 
L 757.369854 382.156943 
L 757.779384 382.243687 
L 758.188915 382.906765 
L 758.598445 382.715124 
L 759.007976 382.212184 
L 759.417506 382.393392 
L 760.236567 380.832903 
L 760.646098 381.065132 
L 761.055628 380.511246 
L 761.465159 379.321323 
L 761.87469 379.741513 
L 762.28422 379.48897 
L 762.693751 378.9869 
L 763.103281 378.690779 
L 763.512812 379.276285 
L 763.922342 380.075097 
L 764.331873 380.224757 
L 764.741403 380.042123 
L 765.150934 380.385053 
L 765.560464 381.265827 
L 766.789056 382.128823 
L 767.198587 382.191337 
L 767.608117 380.350295 
L 768.017648 380.214241 
L 768.427178 380.581361 
L 768.836709 379.306145 
L 769.246239 379.382461 
L 769.65577 379.645843 
L 770.0653 379.503527 
L 770.474831 379.165226 
L 771.293892 380.92961 
L 771.703423 382.653361 
L 772.112953 381.764494 
L 772.522484 381.809554 
L 772.932014 383.843643 
L 773.341545 382.957896 
L 773.751075 382.931109 
L 774.160606 382.357753 
L 774.570136 382.571005 
L 774.979667 382.535336 
L 775.389197 381.834894 
L 775.798728 382.006099 
L 776.208258 383.640818 
L 776.617789 383.662772 
L 777.02732 383.513656 
L 777.43685 383.217147 
L 778.255911 380.116075 
L 779.074972 379.627735 
L 779.484503 379.794726 
L 779.894033 379.410876 
L 780.303564 378.499237 
L 781.122625 377.618678 
L 781.941686 379.312515 
L 782.351217 381.592735 
L 782.760747 382.067123 
L 783.170278 380.85784 
L 783.579808 381.021401 
L 783.989339 381.063291 
L 784.398869 381.907602 
L 784.8084 381.184838 
L 785.627461 381.347915 
L 786.036991 381.705324 
L 786.856052 381.505944 
L 787.265583 383.238135 
L 787.675114 383.188385 
L 788.084644 383.837252 
L 788.494175 383.370617 
L 788.903705 384.412101 
L 789.722766 382.65757 
L 790.132297 382.336413 
L 790.541827 382.659655 
L 790.951358 381.561178 
L 791.360888 380.141692 
L 791.770419 380.226356 
L 792.17995 379.254838 
L 792.58948 379.185956 
L 792.999011 378.738208 
L 793.408541 379.853865 
L 794.227602 380.598636 
L 794.637133 378.526121 
L 795.046663 379.35898 
L 795.456194 379.650692 
L 795.865724 379.650543 
L 796.275255 380.590472 
L 796.684785 380.271588 
L 797.094316 380.587088 
L 797.503847 379.226493 
L 797.913377 379.548343 
L 798.322908 379.426573 
L 798.732438 380.930086 
L 799.141969 380.13787 
L 799.551499 380.02639 
L 799.96103 380.182705 
L 800.37056 379.694981 
L 800.780091 380.29239 
L 801.189621 380.273513 
L 801.599152 381.535623 
L 802.008682 381.435483 
L 802.418213 382.272346 
L 802.827744 382.573046 
L 803.237274 383.029989 
L 804.465866 382.514178 
L 804.875396 382.693765 
L 805.284927 382.485921 
L 805.694457 382.624516 
L 806.103988 382.963859 
L 806.513518 382.234932 
L 806.923049 380.332324 
L 807.74211 381.394013 
L 808.151641 381.412687 
L 808.561171 379.863194 
L 808.970702 379.196899 
L 809.380232 379.416011 
L 809.789763 379.463038 
L 810.199293 379.796787 
L 810.608824 379.870888 
L 811.018354 381.589414 
L 811.427885 381.748896 
L 812.246946 381.068975 
L 812.656477 382.980876 
L 813.475538 383.478 
L 813.885068 383.640952 
L 814.294599 383.563075 
L 814.704129 383.202566 
L 815.11366 383.050634 
L 815.52319 382.700812 
L 816.342251 383.614445 
L 816.751782 381.331947 
L 817.161312 381.848083 
L 817.980374 380.973363 
L 818.389904 380.908031 
L 818.799435 382.034754 
L 819.208965 381.666492 
L 820.028026 381.622351 
L 820.437557 381.496317 
L 820.847087 383.733873 
L 821.256618 384.124876 
L 821.666148 383.383605 
L 822.075679 383.944709 
L 822.485209 383.859742 
L 823.304271 381.984305 
L 823.713801 382.010989 
L 824.123332 382.327399 
L 824.532862 382.501293 
L 824.942393 382.036882 
L 825.351923 380.785788 
L 825.761454 382.192174 
L 826.580515 381.415971 
L 826.990045 382.146707 
L 827.399576 383.847238 
L 828.218637 384.48562 
L 828.628168 384.275069 
L 829.037698 384.797713 
L 829.447229 385.717849 
L 829.856759 384.757227 
L 830.26629 385.022613 
L 830.67582 385.455636 
L 831.085351 384.63455 
L 831.494881 384.169266 
L 831.904412 384.120061 
L 832.313942 383.515308 
L 832.723473 383.94822 
L 833.133004 384.086174 
L 833.542534 383.899275 
L 833.952065 384.739371 
L 834.361595 384.368378 
L 834.771126 384.59368 
L 835.590187 386.241818 
L 835.999717 385.863594 
L 836.409248 385.961244 
L 836.818778 385.523129 
L 837.228309 384.758335 
L 837.637839 384.874306 
L 838.04737 384.553898 
L 838.456901 384.909017 
L 838.866431 384.961756 
L 839.275962 384.506699 
L 839.685492 381.92304 
L 840.504553 382.558339 
L 840.914084 382.37769 
L 841.323614 383.208648 
L 841.733145 383.008843 
L 842.142675 383.282642 
L 842.552206 383.367992 
L 842.961736 383.299833 
L 843.371267 383.110621 
L 843.780798 384.875755 
L 844.190328 385.302566 
L 844.599859 385.266629 
L 845.009389 385.936067 
L 845.41892 385.02674 
L 845.82845 385.420341 
L 846.237981 385.026701 
L 846.647511 385.00851 
L 847.057042 384.806512 
L 847.466572 385.389359 
L 847.876103 385.46497 
L 848.285634 384.597057 
L 848.695164 384.426167 
L 849.104695 383.494068 
L 849.514225 384.531689 
L 849.923756 383.700643 
L 850.333286 384.207073 
L 851.152347 383.779016 
L 851.561878 383.184551 
L 851.971408 381.78925 
L 852.790469 382.063632 
L 852.790469 382.063632 
" clip-path="url(#p0acba9cebe)" style="fill: none; stroke-dasharray: 7.4,3.2; stroke-dashoffset: 0; stroke: #000000; stroke-width: 2"/>
   </g>
   <g id="patch_3">
    <path d="M 41.92 404.12 
L 41.92 10.8 
" style="fill: none; stroke: #000000; stroke-width: 0.8; stroke-linejoin: miter; stroke-linecap: square"/>
   </g>
   <g id="patch_4">
    <path d="M 853.2 404.12 
L 853.2 10.8 
" style="fill: none; stroke: #000000; stroke-width: 0.8; stroke-linejoin: miter; stroke-linecap: square"/>
   </g>
   <g id="patch_5">
    <path d="M 41.92 404.12 
L 853.2 404.12 
" style="fill: none; stroke: #000000; stroke-width: 0.8; stroke-linejoin: miter; stroke-linecap: square"/>
   </g>
   <g id="patch_6">
    <path d="M 41.92 10.8 
L 853.2 10.8 
" style="fill: none; stroke: #000000; stroke-width: 0.8; stroke-linejoin: miter; stroke-linecap: square"/>
   </g>
  </g>
 </g>
 <defs>
  <clipPath id="p0acba9cebe">
   <rect x="41.92" y="10.8" width="811.28" height="393.32"/>
  </clipPath>
 </defs>
</svg>
