<?xml version="1.0" encoding="utf-8" standalone="no"?>
<!DOCTYPE svg PUBLIC "-//W3C//DTD SVG 1.1//EN"
  "http://www.w3.org/Graphics/SVG/1.1/DTD/svg11.dtd">
<svg xmlns:xlink="http://www.w3.org/1999/xlink" width="864pt" height="432pt" viewBox="0 0 864 432" xmlns="http://www.w3.org/2000/svg" version="1.1">
 <metadata>
  <rdf:RDF xmlns:dc="http://purl.org/dc/elements/1.1/" xmlns:cc="http://creativecommons.org/ns#" xmlns:rdf="http://www.w3.org/1999/02/22-rdf-syntax-ns#">
   <cc:Work>
    <dc:type rdf:resource="http://purl.org/dc/dcmitype/StillImage"/>
    <dc:date>2024-09-18T22:51:00.807107</dc:date>
    <dc:format>image/svg+xml</dc:format>
    <dc:creator>
     <cc:Agent>
      <dc:title>Matplotlib v3.9.2, https://matplotlib.org/</dc:title>
     </cc:Agent>
    </dc:creator>
   </cc:Work>
  </rdf:RDF>
 </metadata>
 <defs>
  <style type="text/css">*{stroke-linejoin: round; stroke-linecap: butt}</style>
 </defs>
 <g id="figure_1">
  <g id="patch_1">
   <path d="M 0 432 
L 864 432 
L 864 0 
L 0 0 
z
" style="fill: #ffffff"/>
  </g>
  <g id="axes_1">
   <g id="patch_2">
    <path d="M 47.95 404.12 
L 853.2 404.12 
L 853.2 10.8 
L 47.95 10.8 
z
" style="fill: #ffffff"/>
   </g>
   <g id="matplotlib.axis_1">
    <g id="xtick_1">
     <g id="line2d_1">
      <defs>
       <path id="mfd9888ae8b" d="M 0 0 
L 0 3.5 
" style="stroke: #000000; stroke-width: 0.8"/>
      </defs>
      <g>
       <use xlink:href="#mfd9888ae8b" x="203.910754" y="404.12" style="stroke: #000000; stroke-width: 0.8"/>
      </g>
     </g>
     <g id="text_1">
      <!-- 200 -->
      <g transform="translate(194.880286 418.771563) scale(0.1 -0.1)">
       <defs>
        <path id="DejaVuSansMono-32" d="M 1166 531 
L 3309 531 
L 3309 0 
L 475 0 
L 475 531 
Q 1059 1147 1496 1619 
Q 1934 2091 2100 2284 
Q 2413 2666 2522 2902 
Q 2631 3138 2631 3384 
Q 2631 3775 2401 3997 
Q 2172 4219 1772 4219 
Q 1488 4219 1175 4116 
Q 863 4013 513 3803 
L 513 4441 
Q 834 4594 1145 4672 
Q 1456 4750 1759 4750 
Q 2444 4750 2861 4386 
Q 3278 4022 3278 3431 
Q 3278 3131 3139 2831 
Q 3000 2531 2688 2169 
Q 2513 1966 2180 1606 
Q 1847 1247 1166 531 
z
" transform="scale(0.015625)"/>
        <path id="DejaVuSansMono-30" d="M 1509 2344 
Q 1509 2516 1629 2641 
Q 1750 2766 1919 2766 
Q 2094 2766 2219 2641 
Q 2344 2516 2344 2344 
Q 2344 2169 2220 2047 
Q 2097 1925 1919 1925 
Q 1744 1925 1626 2044 
Q 1509 2163 1509 2344 
z
M 1925 4250 
Q 1484 4250 1267 3775 
Q 1050 3300 1050 2328 
Q 1050 1359 1267 884 
Q 1484 409 1925 409 
Q 2369 409 2586 884 
Q 2803 1359 2803 2328 
Q 2803 3300 2586 3775 
Q 2369 4250 1925 4250 
z
M 1925 4750 
Q 2672 4750 3055 4137 
Q 3438 3525 3438 2328 
Q 3438 1134 3055 521 
Q 2672 -91 1925 -91 
Q 1178 -91 797 521 
Q 416 1134 416 2328 
Q 416 3525 797 4137 
Q 1178 4750 1925 4750 
z
" transform="scale(0.015625)"/>
       </defs>
       <use xlink:href="#DejaVuSansMono-32"/>
       <use xlink:href="#DejaVuSansMono-30" x="60.205078"/>
       <use xlink:href="#DejaVuSansMono-30" x="120.410156"/>
      </g>
     </g>
    </g>
    <g id="xtick_2">
     <g id="line2d_2">
      <g>
       <use xlink:href="#mfd9888ae8b" x="368.079969" y="404.12" style="stroke: #000000; stroke-width: 0.8"/>
      </g>
     </g>
     <g id="text_2">
      <!-- 400 -->
      <g transform="translate(359.049501 418.771563) scale(0.1 -0.1)">
       <defs>
        <path id="DejaVuSansMono-34" d="M 2297 4091 
L 825 1625 
L 2297 1625 
L 2297 4091 
z
M 2194 4666 
L 2925 4666 
L 2925 1625 
L 3547 1625 
L 3547 1113 
L 2925 1113 
L 2925 0 
L 2297 0 
L 2297 1113 
L 319 1113 
L 319 1709 
L 2194 4666 
z
" transform="scale(0.015625)"/>
       </defs>
       <use xlink:href="#DejaVuSansMono-34"/>
       <use xlink:href="#DejaVuSansMono-30" x="60.205078"/>
       <use xlink:href="#DejaVuSansMono-30" x="120.410156"/>
      </g>
     </g>
    </g>
    <g id="xtick_3">
     <g id="line2d_3">
      <g>
       <use xlink:href="#mfd9888ae8b" x="532.249185" y="404.12" style="stroke: #000000; stroke-width: 0.8"/>
      </g>
     </g>
     <g id="text_3">
      <!-- 600 -->
      <g transform="translate(523.218716 418.771563) scale(0.1 -0.1)">
       <defs>
        <path id="DejaVuSansMono-36" d="M 3097 4563 
L 3097 3981 
Q 2900 4097 2678 4158 
Q 2456 4219 2216 4219 
Q 1616 4219 1306 3767 
Q 997 3316 997 2438 
Q 1147 2750 1412 2917 
Q 1678 3084 2022 3084 
Q 2697 3084 3067 2670 
Q 3438 2256 3438 1497 
Q 3438 741 3056 325 
Q 2675 -91 1984 -91 
Q 1172 -91 794 492 
Q 416 1075 416 2328 
Q 416 3509 870 4129 
Q 1325 4750 2188 4750 
Q 2419 4750 2650 4701 
Q 2881 4653 3097 4563 
z
M 1972 2591 
Q 1569 2591 1337 2300 
Q 1106 2009 1106 1497 
Q 1106 984 1337 693 
Q 1569 403 1972 403 
Q 2391 403 2603 679 
Q 2816 956 2816 1497 
Q 2816 2041 2603 2316 
Q 2391 2591 1972 2591 
z
" transform="scale(0.015625)"/>
       </defs>
       <use xlink:href="#DejaVuSansMono-36"/>
       <use xlink:href="#DejaVuSansMono-30" x="60.205078"/>
       <use xlink:href="#DejaVuSansMono-30" x="120.410156"/>
      </g>
     </g>
    </g>
    <g id="xtick_4">
     <g id="line2d_4">
      <g>
       <use xlink:href="#mfd9888ae8b" x="696.4184" y="404.12" style="stroke: #000000; stroke-width: 0.8"/>
      </g>
     </g>
     <g id="text_4">
      <!-- 800 -->
      <g transform="translate(687.387931 418.771563) scale(0.1 -0.1)">
       <defs>
        <path id="DejaVuSansMono-38" d="M 1925 2216 
Q 1503 2216 1273 1980 
Q 1044 1744 1044 1313 
Q 1044 881 1276 642 
Q 1509 403 1925 403 
Q 2350 403 2579 639 
Q 2809 875 2809 1313 
Q 2809 1741 2576 1978 
Q 2344 2216 1925 2216 
z
M 1375 2478 
Q 972 2581 745 2862 
Q 519 3144 519 3541 
Q 519 4097 897 4423 
Q 1275 4750 1925 4750 
Q 2578 4750 2956 4423 
Q 3334 4097 3334 3541 
Q 3334 3144 3107 2862 
Q 2881 2581 2478 2478 
Q 2947 2375 3195 2062 
Q 3444 1750 3444 1253 
Q 3444 622 3041 265 
Q 2638 -91 1925 -91 
Q 1213 -91 811 264 
Q 409 619 409 1247 
Q 409 1747 657 2061 
Q 906 2375 1375 2478 
z
M 1147 3481 
Q 1147 3106 1347 2909 
Q 1547 2713 1925 2713 
Q 2306 2713 2506 2909 
Q 2706 3106 2706 3481 
Q 2706 3863 2507 4063 
Q 2309 4263 1925 4263 
Q 1547 4263 1347 4061 
Q 1147 3859 1147 3481 
z
" transform="scale(0.015625)"/>
       </defs>
       <use xlink:href="#DejaVuSansMono-38"/>
       <use xlink:href="#DejaVuSansMono-30" x="60.205078"/>
       <use xlink:href="#DejaVuSansMono-30" x="120.410156"/>
      </g>
     </g>
    </g>
   </g>
   <g id="matplotlib.axis_2">
    <g id="ytick_1">
     <g id="line2d_5">
      <defs>
       <path id="m424e6d62a9" d="M 0 0 
L -3.5 0 
" style="stroke: #000000; stroke-width: 0.8"/>
      </defs>
      <g>
       <use xlink:href="#m424e6d62a9" x="47.95" y="386.241818" style="stroke: #000000; stroke-width: 0.8"/>
      </g>
     </g>
     <g id="text_5">
      <!-- 0.000 -->
      <g transform="translate(10.848438 390.067599) scale(0.1 -0.1)">
       <defs>
        <path id="DejaVuSansMono-2e" d="M 1528 953 
L 2316 953 
L 2316 0 
L 1528 0 
L 1528 953 
z
" transform="scale(0.015625)"/>
       </defs>
       <use xlink:href="#DejaVuSansMono-30"/>
       <use xlink:href="#DejaVuSansMono-2e" x="60.205078"/>
       <use xlink:href="#DejaVuSansMono-30" x="120.410156"/>
       <use xlink:href="#DejaVuSansMono-30" x="180.615234"/>
       <use xlink:href="#DejaVuSansMono-30" x="240.820312"/>
      </g>
     </g>
    </g>
    <g id="ytick_2">
     <g id="line2d_6">
      <g>
       <use xlink:href="#m424e6d62a9" x="47.95" y="332.026714" style="stroke: #000000; stroke-width: 0.8"/>
      </g>
     </g>
     <g id="text_6">
      <!-- 0.025 -->
      <g transform="translate(10.848438 335.852495) scale(0.1 -0.1)">
       <defs>
        <path id="DejaVuSansMono-35" d="M 647 4666 
L 3009 4666 
L 3009 4134 
L 1222 4134 
L 1222 2988 
Q 1356 3038 1492 3061 
Q 1628 3084 1766 3084 
Q 2491 3084 2916 2656 
Q 3341 2228 3341 1497 
Q 3341 759 2895 334 
Q 2450 -91 1678 -91 
Q 1306 -91 998 -41 
Q 691 9 447 109 
L 447 750 
Q 734 594 1025 517 
Q 1316 441 1619 441 
Q 2141 441 2423 716 
Q 2706 991 2706 1497 
Q 2706 1997 2414 2275 
Q 2122 2553 1600 2553 
Q 1347 2553 1106 2495 
Q 866 2438 647 2322 
L 647 4666 
z
" transform="scale(0.015625)"/>
       </defs>
       <use xlink:href="#DejaVuSansMono-30"/>
       <use xlink:href="#DejaVuSansMono-2e" x="60.205078"/>
       <use xlink:href="#DejaVuSansMono-30" x="120.410156"/>
       <use xlink:href="#DejaVuSansMono-32" x="180.615234"/>
       <use xlink:href="#DejaVuSansMono-35" x="240.820312"/>
      </g>
     </g>
    </g>
    <g id="ytick_3">
     <g id="line2d_7">
      <g>
       <use xlink:href="#m424e6d62a9" x="47.95" y="277.811609" style="stroke: #000000; stroke-width: 0.8"/>
      </g>
     </g>
     <g id="text_7">
      <!-- 0.050 -->
      <g transform="translate(10.848438 281.63739) scale(0.1 -0.1)">
       <use xlink:href="#DejaVuSansMono-30"/>
       <use xlink:href="#DejaVuSansMono-2e" x="60.205078"/>
       <use xlink:href="#DejaVuSansMono-30" x="120.410156"/>
       <use xlink:href="#DejaVuSansMono-35" x="180.615234"/>
       <use xlink:href="#DejaVuSansMono-30" x="240.820312"/>
      </g>
     </g>
    </g>
    <g id="ytick_4">
     <g id="line2d_8">
      <g>
       <use xlink:href="#m424e6d62a9" x="47.95" y="223.596505" style="stroke: #000000; stroke-width: 0.8"/>
      </g>
     </g>
     <g id="text_8">
      <!-- 0.075 -->
      <g transform="translate(10.848438 227.422286) scale(0.1 -0.1)">
       <defs>
        <path id="DejaVuSansMono-37" d="M 434 4666 
L 3372 4666 
L 3372 4397 
L 1703 0 
L 1044 0 
L 2669 4134 
L 434 4134 
L 434 4666 
z
" transform="scale(0.015625)"/>
       </defs>
       <use xlink:href="#DejaVuSansMono-30"/>
       <use xlink:href="#DejaVuSansMono-2e" x="60.205078"/>
       <use xlink:href="#DejaVuSansMono-30" x="120.410156"/>
       <use xlink:href="#DejaVuSansMono-37" x="180.615234"/>
       <use xlink:href="#DejaVuSansMono-35" x="240.820312"/>
      </g>
     </g>
    </g>
    <g id="ytick_5">
     <g id="line2d_9">
      <g>
       <use xlink:href="#m424e6d62a9" x="47.95" y="169.3814" style="stroke: #000000; stroke-width: 0.8"/>
      </g>
     </g>
     <g id="text_9">
      <!-- 0.100 -->
      <g transform="translate(10.848438 173.207181) scale(0.1 -0.1)">
       <defs>
        <path id="DejaVuSansMono-31" d="M 844 531 
L 1825 531 
L 1825 4097 
L 769 3859 
L 769 4434 
L 1819 4666 
L 2450 4666 
L 2450 531 
L 3419 531 
L 3419 0 
L 844 0 
L 844 531 
z
" transform="scale(0.015625)"/>
       </defs>
       <use xlink:href="#DejaVuSansMono-30"/>
       <use xlink:href="#DejaVuSansMono-2e" x="60.205078"/>
       <use xlink:href="#DejaVuSansMono-31" x="120.410156"/>
       <use xlink:href="#DejaVuSansMono-30" x="180.615234"/>
       <use xlink:href="#DejaVuSansMono-30" x="240.820312"/>
      </g>
     </g>
    </g>
    <g id="ytick_6">
     <g id="line2d_10">
      <g>
       <use xlink:href="#m424e6d62a9" x="47.95" y="115.166295" style="stroke: #000000; stroke-width: 0.8"/>
      </g>
     </g>
     <g id="text_10">
      <!-- 0.125 -->
      <g transform="translate(10.848438 118.992077) scale(0.1 -0.1)">
       <use xlink:href="#DejaVuSansMono-30"/>
       <use xlink:href="#DejaVuSansMono-2e" x="60.205078"/>
       <use xlink:href="#DejaVuSansMono-31" x="120.410156"/>
       <use xlink:href="#DejaVuSansMono-32" x="180.615234"/>
       <use xlink:href="#DejaVuSansMono-35" x="240.820312"/>
      </g>
     </g>
    </g>
    <g id="ytick_7">
     <g id="line2d_11">
      <g>
       <use xlink:href="#m424e6d62a9" x="47.95" y="60.951191" style="stroke: #000000; stroke-width: 0.8"/>
      </g>
     </g>
     <g id="text_11">
      <!-- 0.150 -->
      <g transform="translate(10.848438 64.776972) scale(0.1 -0.1)">
       <use xlink:href="#DejaVuSansMono-30"/>
       <use xlink:href="#DejaVuSansMono-2e" x="60.205078"/>
       <use xlink:href="#DejaVuSansMono-31" x="120.410156"/>
       <use xlink:href="#DejaVuSansMono-35" x="180.615234"/>
       <use xlink:href="#DejaVuSansMono-30" x="240.820312"/>
      </g>
     </g>
    </g>
   </g>
   <g id="line2d_12">
    <path d="M 39.741539 207.977075 
L 40.562385 206.585373 
L 43.024924 74.670051 
L 43.84577 116.799705 
L 45.487462 28.678182 
L 46.308308 63.449535 
L 47.129154 109.553719 
L 47.95 109.789138 
L 48.770846 155.895713 
L 49.591692 157.786505 
L 50.412538 170.141176 
L 51.233384 213.408719 
L 52.05423 213.408719 
L 53.695923 300.707862 
L 54.516769 300.707862 
L 56.158461 221.855557 
L 56.979307 221.855557 
L 57.800153 219.962512 
L 58.620999 207.578658 
L 60.262691 207.578658 
L 61.083537 196.063218 
L 61.904383 151.906861 
L 62.725229 151.906861 
L 63.546075 142.748036 
L 64.366922 144.667601 
L 65.187768 98.678567 
L 66.008614 144.785004 
L 67.650306 144.785004 
L 68.471152 139.168475 
L 69.291998 112.719718 
L 70.112844 157.229268 
L 71.754536 157.229268 
L 73.396228 246.238695 
L 74.217074 246.238695 
L 75.03792 292.342879 
L 75.858767 248.938038 
L 76.679613 254.554566 
L 77.500459 296.732792 
L 79.142151 205.008799 
L 79.962997 205.811898 
L 83.246381 205.811898 
L 84.067227 249.216739 
L 85.708919 249.216739 
L 86.529766 272.251333 
L 87.350612 307.974864 
L 88.171458 307.246245 
L 88.992304 264.032263 
L 89.81315 264.032263 
L 90.633996 217.928079 
L 91.454842 217.928079 
L 93.91738 79.769959 
L 94.738226 102.70419 
L 95.559072 66.661528 
L 97.200765 155.905215 
L 98.842457 155.905215 
L 99.663303 115.276146 
L 100.484149 160.682469 
L 101.304995 160.487598 
L 102.125841 206.591782 
L 102.946687 206.591782 
L 103.767533 213.29719 
L 104.588379 167.193006 
L 106.230071 167.193006 
L 107.871764 253.926259 
L 108.69261 254.62412 
L 109.513456 300.768743 
L 111.155148 300.768743 
L 111.975994 306.846486 
L 112.79684 352.95067 
L 113.617686 352.95067 
L 114.438532 306.868305 
L 116.90107 306.868305 
L 117.721916 260.743161 
L 118.542762 260.743161 
L 119.363609 214.638977 
L 120.184455 247.930126 
L 121.005301 247.930126 
L 121.826147 202.187046 
L 122.646993 247.240824 
L 123.467839 247.240824 
L 125.109531 155.113204 
L 125.930377 201.238347 
L 129.213761 201.238347 
L 130.034608 246.981427 
L 130.855454 248.010014 
L 131.6763 248.010014 
L 132.497146 294.067361 
L 133.317992 296.819499 
L 134.959684 296.819499 
L 135.78053 342.923683 
L 136.601376 296.819499 
L 137.422222 296.819499 
L 138.243068 250.715315 
L 139.88476 250.715315 
L 140.705607 208.152779 
L 141.526453 251.470914 
L 143.988991 251.470914 
L 144.809837 297.575098 
L 145.630683 297.575098 
L 146.451529 343.679282 
L 148.093221 343.679282 
L 148.914067 386.241818 
L 150.555759 386.241818 
L 151.376606 384.55024 
L 152.197452 338.446055 
L 153.839144 338.446055 
L 154.65999 316.01222 
L 157.122528 316.01222 
L 158.76422 225.221644 
L 159.585066 226.556544 
L 160.405912 272.660729 
L 161.226758 249.605148 
L 162.047604 249.605148 
L 162.868451 272.038984 
L 163.689297 272.038984 
L 165.330989 188.327568 
L 166.151835 233.01396 
L 166.972681 260.413797 
L 167.793527 214.666291 
L 168.614373 214.666291 
L 169.435219 191.611257 
L 170.256065 191.611257 
L 171.076911 167.107256 
L 171.897757 167.107256 
L 173.53945 250.818672 
L 174.360296 250.818672 
L 175.181142 269.523019 
L 176.001988 315.627203 
L 176.822834 315.627203 
L 177.64368 326.990025 
L 178.464526 280.869703 
L 179.285372 259.281088 
L 180.927064 172.067561 
L 184.210449 172.067561 
L 185.031295 125.963377 
L 185.852141 160.71117 
L 186.672987 160.727308 
L 189.135525 294.03345 
L 192.418909 294.03345 
L 193.239755 340.137634 
L 194.060601 294.03345 
L 195.702294 294.03345 
L 196.52314 248.087618 
L 197.343986 220.317142 
L 198.164832 220.317142 
L 198.985678 174.212958 
L 201.448216 174.212958 
L 203.089908 266.421326 
L 203.910754 266.421326 
L 204.7316 312.367158 
L 205.552446 294.03345 
L 206.373293 294.03345 
L 207.194139 332.517356 
L 208.014985 332.517356 
L 208.835831 286.555279 
L 210.477523 286.555279 
L 211.298369 240.451095 
L 212.119215 240.451095 
L 212.940061 194.346911 
L 213.760907 240.451095 
L 214.581753 240.451095 
L 215.402599 248.071373 
L 216.223445 248.071373 
L 217.044292 247.929266 
L 218.685984 247.929266 
L 219.50683 294.03345 
L 224.431906 294.03345 
L 225.252752 340.137634 
L 228.536137 340.137634 
L 229.356983 386.241818 
L 231.819521 386.241818 
L 232.640367 340.367127 
L 236.744597 340.367127 
L 239.207136 204.458402 
L 240.027982 204.458402 
L 240.848828 204.228909 
L 241.669674 204.228909 
L 243.311366 114.948895 
L 244.132212 114.948895 
L 244.953058 68.844711 
L 247.415596 204.753436 
L 248.236442 204.753436 
L 249.057288 250.85762 
L 249.878135 250.85762 
L 251.519827 340.137634 
L 252.340673 332.221816 
L 253.161519 378.326 
L 259.728287 378.326 
L 260.549134 386.241818 
L 276.966055 386.241818 
L 277.786901 340.137634 
L 283.532824 340.137634 
L 284.35367 297.949674 
L 285.174516 297.949674 
L 285.995362 344.053858 
L 291.741284 344.053858 
L 292.56213 386.241818 
L 297.487207 386.241818 
L 298.308053 341.095985 
L 300.770591 341.095985 
L 301.591437 294.991801 
L 303.233129 294.991801 
L 304.874822 202.231139 
L 305.695668 202.231139 
L 306.516514 247.376972 
L 308.979052 247.376972 
L 309.799898 293.481156 
L 311.44159 293.481156 
L 313.083282 386.241818 
L 852.379154 386.241818 
L 852.379154 386.241818 
" clip-path="url(#p79d63982b7)" style="fill: none; stroke-dasharray: 7.4,3.2; stroke-dashoffset: 0; stroke: #000000; stroke-width: 2"/>
   </g>
   <g id="patch_3">
    <path d="M 47.95 404.12 
L 47.95 10.8 
" style="fill: none; stroke: #000000; stroke-width: 0.8; stroke-linejoin: miter; stroke-linecap: square"/>
   </g>
   <g id="patch_4">
    <path d="M 853.2 404.12 
L 853.2 10.8 
" style="fill: none; stroke: #000000; stroke-width: 0.8; stroke-linejoin: miter; stroke-linecap: square"/>
   </g>
   <g id="patch_5">
    <path d="M 47.95 404.12 
L 853.2 404.12 
" style="fill: none; stroke: #000000; stroke-width: 0.8; stroke-linejoin: miter; stroke-linecap: square"/>
   </g>
   <g id="patch_6">
    <path d="M 47.95 10.8 
L 853.2 10.8 
" style="fill: none; stroke: #000000; stroke-width: 0.8; stroke-linejoin: miter; stroke-linecap: square"/>
   </g>
  </g>
 </g>
 <defs>
  <clipPath id="p79d63982b7">
   <rect x="47.95" y="10.8" width="805.25" height="393.32"/>
  </clipPath>
 </defs>
</svg>
