<?xml version="1.0" encoding="utf-8" standalone="no"?>
<!DOCTYPE svg PUBLIC "-//W3C//DTD SVG 1.1//EN"
  "http://www.w3.org/Graphics/SVG/1.1/DTD/svg11.dtd">
<svg xmlns:xlink="http://www.w3.org/1999/xlink" width="864pt" height="432pt" viewBox="0 0 864 432" xmlns="http://www.w3.org/2000/svg" version="1.1">
 <metadata>
  <rdf:RDF xmlns:dc="http://purl.org/dc/elements/1.1/" xmlns:cc="http://creativecommons.org/ns#" xmlns:rdf="http://www.w3.org/1999/02/22-rdf-syntax-ns#">
   <cc:Work>
    <dc:type rdf:resource="http://purl.org/dc/dcmitype/StillImage"/>
    <dc:date>2024-09-17T13:17:39.722475</dc:date>
    <dc:format>image/svg+xml</dc:format>
    <dc:creator>
     <cc:Agent>
      <dc:title>Matplotlib v3.9.2, https://matplotlib.org/</dc:title>
     </cc:Agent>
    </dc:creator>
   </cc:Work>
  </rdf:RDF>
 </metadata>
 <defs>
  <style type="text/css">*{stroke-linejoin: round; stroke-linecap: butt}</style>
 </defs>
 <g id="figure_1">
  <g id="patch_1">
   <path d="M 0 432 
L 864 432 
L 864 0 
L 0 0 
z
" style="fill: #ffffff"/>
  </g>
  <g id="axes_1">
   <g id="patch_2">
    <path d="M 41.92 404.12 
L 853.2 404.12 
L 853.2 10.8 
L 41.92 10.8 
z
" style="fill: #ffffff"/>
   </g>
   <g id="matplotlib.axis_1">
    <g id="xtick_1">
     <g id="line2d_1">
      <defs>
       <path id="me5755d208f" d="M 0 0 
L 0 3.5 
" style="stroke: #000000; stroke-width: 0.8"/>
      </defs>
      <g>
       <use xlink:href="#me5755d208f" x="199.048644" y="404.12" style="stroke: #000000; stroke-width: 0.8"/>
      </g>
     </g>
     <g id="text_1">
      <!-- 200 -->
      <g transform="translate(190.018175 418.771563) scale(0.1 -0.1)">
       <defs>
        <path id="DejaVuSansMono-32" d="M 1166 531 
L 3309 531 
L 3309 0 
L 475 0 
L 475 531 
Q 1059 1147 1496 1619 
Q 1934 2091 2100 2284 
Q 2413 2666 2522 2902 
Q 2631 3138 2631 3384 
Q 2631 3775 2401 3997 
Q 2172 4219 1772 4219 
Q 1488 4219 1175 4116 
Q 863 4013 513 3803 
L 513 4441 
Q 834 4594 1145 4672 
Q 1456 4750 1759 4750 
Q 2444 4750 2861 4386 
Q 3278 4022 3278 3431 
Q 3278 3131 3139 2831 
Q 3000 2531 2688 2169 
Q 2513 1966 2180 1606 
Q 1847 1247 1166 531 
z
" transform="scale(0.015625)"/>
        <path id="DejaVuSansMono-30" d="M 1509 2344 
Q 1509 2516 1629 2641 
Q 1750 2766 1919 2766 
Q 2094 2766 2219 2641 
Q 2344 2516 2344 2344 
Q 2344 2169 2220 2047 
Q 2097 1925 1919 1925 
Q 1744 1925 1626 2044 
Q 1509 2163 1509 2344 
z
M 1925 4250 
Q 1484 4250 1267 3775 
Q 1050 3300 1050 2328 
Q 1050 1359 1267 884 
Q 1484 409 1925 409 
Q 2369 409 2586 884 
Q 2803 1359 2803 2328 
Q 2803 3300 2586 3775 
Q 2369 4250 1925 4250 
z
M 1925 4750 
Q 2672 4750 3055 4137 
Q 3438 3525 3438 2328 
Q 3438 1134 3055 521 
Q 2672 -91 1925 -91 
Q 1178 -91 797 521 
Q 416 1134 416 2328 
Q 416 3525 797 4137 
Q 1178 4750 1925 4750 
z
" transform="scale(0.015625)"/>
       </defs>
       <use xlink:href="#DejaVuSansMono-32"/>
       <use xlink:href="#DejaVuSansMono-30" x="60.205078"/>
       <use xlink:href="#DejaVuSansMono-30" x="120.410156"/>
      </g>
     </g>
    </g>
    <g id="xtick_2">
     <g id="line2d_2">
      <g>
       <use xlink:href="#me5755d208f" x="364.447217" y="404.12" style="stroke: #000000; stroke-width: 0.8"/>
      </g>
     </g>
     <g id="text_2">
      <!-- 400 -->
      <g transform="translate(355.416748 418.771563) scale(0.1 -0.1)">
       <defs>
        <path id="DejaVuSansMono-34" d="M 2297 4091 
L 825 1625 
L 2297 1625 
L 2297 4091 
z
M 2194 4666 
L 2925 4666 
L 2925 1625 
L 3547 1625 
L 3547 1113 
L 2925 1113 
L 2925 0 
L 2297 0 
L 2297 1113 
L 319 1113 
L 319 1709 
L 2194 4666 
z
" transform="scale(0.015625)"/>
       </defs>
       <use xlink:href="#DejaVuSansMono-34"/>
       <use xlink:href="#DejaVuSansMono-30" x="60.205078"/>
       <use xlink:href="#DejaVuSansMono-30" x="120.410156"/>
      </g>
     </g>
    </g>
    <g id="xtick_3">
     <g id="line2d_3">
      <g>
       <use xlink:href="#me5755d208f" x="529.84579" y="404.12" style="stroke: #000000; stroke-width: 0.8"/>
      </g>
     </g>
     <g id="text_3">
      <!-- 600 -->
      <g transform="translate(520.815321 418.771563) scale(0.1 -0.1)">
       <defs>
        <path id="DejaVuSansMono-36" d="M 3097 4563 
L 3097 3981 
Q 2900 4097 2678 4158 
Q 2456 4219 2216 4219 
Q 1616 4219 1306 3767 
Q 997 3316 997 2438 
Q 1147 2750 1412 2917 
Q 1678 3084 2022 3084 
Q 2697 3084 3067 2670 
Q 3438 2256 3438 1497 
Q 3438 741 3056 325 
Q 2675 -91 1984 -91 
Q 1172 -91 794 492 
Q 416 1075 416 2328 
Q 416 3509 870 4129 
Q 1325 4750 2188 4750 
Q 2419 4750 2650 4701 
Q 2881 4653 3097 4563 
z
M 1972 2591 
Q 1569 2591 1337 2300 
Q 1106 2009 1106 1497 
Q 1106 984 1337 693 
Q 1569 403 1972 403 
Q 2391 403 2603 679 
Q 2816 956 2816 1497 
Q 2816 2041 2603 2316 
Q 2391 2591 1972 2591 
z
" transform="scale(0.015625)"/>
       </defs>
       <use xlink:href="#DejaVuSansMono-36"/>
       <use xlink:href="#DejaVuSansMono-30" x="60.205078"/>
       <use xlink:href="#DejaVuSansMono-30" x="120.410156"/>
      </g>
     </g>
    </g>
    <g id="xtick_4">
     <g id="line2d_4">
      <g>
       <use xlink:href="#me5755d208f" x="695.244363" y="404.12" style="stroke: #000000; stroke-width: 0.8"/>
      </g>
     </g>
     <g id="text_4">
      <!-- 800 -->
      <g transform="translate(686.213894 418.771563) scale(0.1 -0.1)">
       <defs>
        <path id="DejaVuSansMono-38" d="M 1925 2216 
Q 1503 2216 1273 1980 
Q 1044 1744 1044 1313 
Q 1044 881 1276 642 
Q 1509 403 1925 403 
Q 2350 403 2579 639 
Q 2809 875 2809 1313 
Q 2809 1741 2576 1978 
Q 2344 2216 1925 2216 
z
M 1375 2478 
Q 972 2581 745 2862 
Q 519 3144 519 3541 
Q 519 4097 897 4423 
Q 1275 4750 1925 4750 
Q 2578 4750 2956 4423 
Q 3334 4097 3334 3541 
Q 3334 3144 3107 2862 
Q 2881 2581 2478 2478 
Q 2947 2375 3195 2062 
Q 3444 1750 3444 1253 
Q 3444 622 3041 265 
Q 2638 -91 1925 -91 
Q 1213 -91 811 264 
Q 409 619 409 1247 
Q 409 1747 657 2061 
Q 906 2375 1375 2478 
z
M 1147 3481 
Q 1147 3106 1347 2909 
Q 1547 2713 1925 2713 
Q 2306 2713 2506 2909 
Q 2706 3106 2706 3481 
Q 2706 3863 2507 4063 
Q 2309 4263 1925 4263 
Q 1547 4263 1347 4061 
Q 1147 3859 1147 3481 
z
" transform="scale(0.015625)"/>
       </defs>
       <use xlink:href="#DejaVuSansMono-38"/>
       <use xlink:href="#DejaVuSansMono-30" x="60.205078"/>
       <use xlink:href="#DejaVuSansMono-30" x="120.410156"/>
      </g>
     </g>
    </g>
   </g>
   <g id="matplotlib.axis_2">
    <g id="ytick_1">
     <g id="line2d_5">
      <defs>
       <path id="md8092d85d4" d="M 0 0 
L -3.5 0 
" style="stroke: #000000; stroke-width: 0.8"/>
      </defs>
      <g>
       <use xlink:href="#md8092d85d4" x="41.92" y="394.160836" style="stroke: #000000; stroke-width: 0.8"/>
      </g>
     </g>
     <g id="text_5">
      <!-- 0.12 -->
      <g transform="translate(10.83875 397.986617) scale(0.1 -0.1)">
       <defs>
        <path id="DejaVuSansMono-2e" d="M 1528 953 
L 2316 953 
L 2316 0 
L 1528 0 
L 1528 953 
z
" transform="scale(0.015625)"/>
        <path id="DejaVuSansMono-31" d="M 844 531 
L 1825 531 
L 1825 4097 
L 769 3859 
L 769 4434 
L 1819 4666 
L 2450 4666 
L 2450 531 
L 3419 531 
L 3419 0 
L 844 0 
L 844 531 
z
" transform="scale(0.015625)"/>
       </defs>
       <use xlink:href="#DejaVuSansMono-30"/>
       <use xlink:href="#DejaVuSansMono-2e" x="60.205078"/>
       <use xlink:href="#DejaVuSansMono-31" x="120.410156"/>
       <use xlink:href="#DejaVuSansMono-32" x="180.615234"/>
      </g>
     </g>
    </g>
    <g id="ytick_2">
     <g id="line2d_6">
      <g>
       <use xlink:href="#md8092d85d4" x="41.92" y="323.189307" style="stroke: #000000; stroke-width: 0.8"/>
      </g>
     </g>
     <g id="text_6">
      <!-- 0.14 -->
      <g transform="translate(10.83875 327.015088) scale(0.1 -0.1)">
       <use xlink:href="#DejaVuSansMono-30"/>
       <use xlink:href="#DejaVuSansMono-2e" x="60.205078"/>
       <use xlink:href="#DejaVuSansMono-31" x="120.410156"/>
       <use xlink:href="#DejaVuSansMono-34" x="180.615234"/>
      </g>
     </g>
    </g>
    <g id="ytick_3">
     <g id="line2d_7">
      <g>
       <use xlink:href="#md8092d85d4" x="41.92" y="252.217778" style="stroke: #000000; stroke-width: 0.8"/>
      </g>
     </g>
     <g id="text_7">
      <!-- 0.16 -->
      <g transform="translate(10.83875 256.043559) scale(0.1 -0.1)">
       <use xlink:href="#DejaVuSansMono-30"/>
       <use xlink:href="#DejaVuSansMono-2e" x="60.205078"/>
       <use xlink:href="#DejaVuSansMono-31" x="120.410156"/>
       <use xlink:href="#DejaVuSansMono-36" x="180.615234"/>
      </g>
     </g>
    </g>
    <g id="ytick_4">
     <g id="line2d_8">
      <g>
       <use xlink:href="#md8092d85d4" x="41.92" y="181.246248" style="stroke: #000000; stroke-width: 0.8"/>
      </g>
     </g>
     <g id="text_8">
      <!-- 0.18 -->
      <g transform="translate(10.83875 185.07203) scale(0.1 -0.1)">
       <use xlink:href="#DejaVuSansMono-30"/>
       <use xlink:href="#DejaVuSansMono-2e" x="60.205078"/>
       <use xlink:href="#DejaVuSansMono-31" x="120.410156"/>
       <use xlink:href="#DejaVuSansMono-38" x="180.615234"/>
      </g>
     </g>
    </g>
    <g id="ytick_5">
     <g id="line2d_9">
      <g>
       <use xlink:href="#md8092d85d4" x="41.92" y="110.274719" style="stroke: #000000; stroke-width: 0.8"/>
      </g>
     </g>
     <g id="text_9">
      <!-- 0.20 -->
      <g transform="translate(10.83875 114.1005) scale(0.1 -0.1)">
       <use xlink:href="#DejaVuSansMono-30"/>
       <use xlink:href="#DejaVuSansMono-2e" x="60.205078"/>
       <use xlink:href="#DejaVuSansMono-32" x="120.410156"/>
       <use xlink:href="#DejaVuSansMono-30" x="180.615234"/>
      </g>
     </g>
    </g>
    <g id="ytick_6">
     <g id="line2d_10">
      <g>
       <use xlink:href="#md8092d85d4" x="41.92" y="39.30319" style="stroke: #000000; stroke-width: 0.8"/>
      </g>
     </g>
     <g id="text_10">
      <!-- 0.22 -->
      <g transform="translate(10.83875 43.128971) scale(0.1 -0.1)">
       <use xlink:href="#DejaVuSansMono-30"/>
       <use xlink:href="#DejaVuSansMono-2e" x="60.205078"/>
       <use xlink:href="#DejaVuSansMono-32" x="120.410156"/>
       <use xlink:href="#DejaVuSansMono-32" x="180.615234"/>
      </g>
     </g>
    </g>
   </g>
   <g id="line2d_11">
    <path d="M 33.650071 28.678182 
L 34.477064 35.413506 
L 35.304057 54.666141 
L 36.13105 50.049307 
L 36.958043 73.455979 
L 37.785036 110.617579 
L 38.612029 132.699088 
L 40.266014 203.384464 
L 41.093007 198.999849 
L 41.92 240.606584 
L 43.573986 253.258327 
L 44.400979 267.432436 
L 45.227971 290.42138 
L 46.054964 305.135737 
L 46.881957 304.58367 
L 47.70895 315.850105 
L 48.535943 320.244412 
L 49.362936 293.844402 
L 50.189929 296.341593 
L 51.016922 300.614884 
L 51.843914 316.750721 
L 52.670907 322.344704 
L 53.4979 322.188908 
L 54.324893 321.376016 
L 55.151886 317.3697 
L 55.978879 314.074568 
L 56.805872 320.330389 
L 57.632864 354.315572 
L 58.459857 343.398806 
L 59.28685 344.516624 
L 60.113843 319.79096 
L 60.940836 320.079296 
L 61.767829 303.973784 
L 62.594822 294.856358 
L 63.421814 295.710146 
L 64.248807 286.484537 
L 65.0758 286.474067 
L 65.902793 280.877231 
L 66.729786 288.123837 
L 67.556779 281.842475 
L 68.383772 295.668045 
L 69.210765 286.55514 
L 70.86475 308.807835 
L 71.691743 316.129493 
L 72.518736 316.893177 
L 73.345729 324.031412 
L 74.172722 329.108416 
L 74.999715 335.56966 
L 77.480693 364.699247 
L 79.134679 373.103469 
L 79.961672 373.393602 
L 80.788665 382.944124 
L 81.615657 383.377633 
L 82.44265 337.953558 
L 83.269643 337.108907 
L 84.096636 332.102559 
L 84.923629 330.652673 
L 85.750622 327.195359 
L 86.577615 324.803482 
L 87.404608 327.676495 
L 88.2316 321.137073 
L 89.058593 323.588136 
L 89.885586 312.747686 
L 90.712579 353.906255 
L 91.539572 345.641117 
L 92.366565 350.613542 
L 93.193558 346.131885 
L 94.02055 337.472038 
L 94.847543 326.569602 
L 95.674536 319.131174 
L 96.501529 317.831747 
L 97.328522 317.803568 
L 98.155515 323.104103 
L 98.982508 319.774016 
L 99.809501 325.520692 
L 100.636493 322.410225 
L 101.463486 329.251458 
L 103.117472 352.492127 
L 103.944465 355.447447 
L 104.771458 338.751115 
L 105.598451 338.674553 
L 106.425443 336.903408 
L 107.252436 344.209308 
L 108.079429 339.884984 
L 108.906422 337.167646 
L 109.733415 331.859915 
L 110.560408 331.841297 
L 111.387401 333.514433 
L 112.214393 336.737569 
L 113.041386 359.531978 
L 113.868379 353.99404 
L 114.695372 359.40759 
L 115.522365 349.623223 
L 116.349358 346.200367 
L 117.176351 347.669384 
L 118.003344 339.647393 
L 118.830336 324.721971 
L 119.657329 323.715535 
L 120.484322 310.584628 
L 121.311315 311.506034 
L 122.138308 314.843286 
L 122.965301 307.916491 
L 123.792294 311.431465 
L 124.619286 317.958651 
L 125.446279 318.776656 
L 126.273272 323.34857 
L 127.100265 336.579882 
L 127.927258 339.448638 
L 128.754251 351.057587 
L 129.581244 341.539444 
L 130.408236 343.509741 
L 131.235229 343.046948 
L 132.062222 348.315396 
L 132.889215 347.032748 
L 133.716208 347.794697 
L 134.543201 356.364546 
L 136.197187 342.613801 
L 137.024179 345.249181 
L 137.851172 355.676234 
L 138.678165 354.971451 
L 139.505158 358.829159 
L 140.332151 355.599514 
L 141.159144 337.62022 
L 141.986137 339.048736 
L 142.813129 330.042665 
L 143.640122 335.853641 
L 144.467115 338.318407 
L 145.294108 314.031438 
L 146.121101 310.256489 
L 146.948094 293.124689 
L 147.775087 295.604303 
L 148.60208 300.465147 
L 149.429072 312.589867 
L 150.256065 313.830446 
L 151.083058 322.807949 
L 151.910051 323.332794 
L 152.737044 320.875764 
L 153.564037 341.099788 
L 154.39103 343.620192 
L 155.218022 361.911113 
L 156.045015 352.837296 
L 156.872008 353.221895 
L 157.699001 358.666951 
L 158.525994 355.372263 
L 159.352987 353.867175 
L 160.17998 331.153474 
L 161.006972 334.839525 
L 161.833965 337.829141 
L 162.660958 335.848525 
L 163.487951 330.551494 
L 164.314944 331.802765 
L 165.141937 322.576122 
L 165.96893 328.728676 
L 166.795923 326.886446 
L 167.622915 326.459399 
L 168.449908 347.436473 
L 169.276901 324.897555 
L 170.103894 325.274323 
L 170.930887 322.97011 
L 171.75788 308.637119 
L 172.584873 313.711796 
L 173.411865 311.187156 
L 174.238858 303.69006 
L 175.065851 303.515499 
L 175.892844 287.250275 
L 176.719837 291.376296 
L 177.54683 314.626428 
L 178.373823 316.389351 
L 179.200815 321.821589 
L 180.027808 341.270872 
L 180.854801 343.208651 
L 181.681794 353.06043 
L 182.508787 356.647937 
L 183.33578 362.240768 
L 184.162773 373.145446 
L 184.989766 365.048659 
L 185.816758 365.578659 
L 186.643751 353.649823 
L 187.470744 350.550205 
L 188.297737 349.593997 
L 189.12473 351.091473 
L 189.951723 353.052208 
L 190.778716 356.775902 
L 191.605708 356.271391 
L 192.432701 360.990078 
L 194.086687 365.395955 
L 194.91368 360.645161 
L 195.740673 347.118886 
L 196.567666 344.828484 
L 197.394659 347.650002 
L 198.221651 343.012953 
L 199.048644 322.743147 
L 199.875637 320.300437 
L 200.70263 323.291121 
L 201.529623 328.29311 
L 202.356616 322.772053 
L 203.183609 330.792522 
L 204.010601 343.102351 
L 204.837594 344.599642 
L 205.664587 336.416875 
L 206.49158 337.195376 
L 207.318573 350.497364 
L 208.145566 352.621385 
L 208.972559 349.046997 
L 209.799551 344.41123 
L 210.626544 336.316479 
L 211.453537 311.064823 
L 212.28053 315.180282 
L 213.107523 304.79286 
L 213.934516 311.592354 
L 214.761509 310.942527 
L 215.588502 317.334123 
L 216.415494 296.908724 
L 217.242487 295.416806 
L 218.06948 298.792299 
L 218.896473 310.646424 
L 219.723466 338.82852 
L 220.550459 325.43283 
L 221.377452 329.992915 
L 222.204444 331.653036 
L 223.031437 334.671653 
L 223.85843 334.198829 
L 224.685423 355.843233 
L 225.512416 360.576488 
L 226.339409 354.349882 
L 227.166402 355.447585 
L 227.993394 358.938452 
L 228.820387 366.866532 
L 229.64738 367.285214 
L 230.474373 357.2416 
L 232.128359 358.390544 
L 232.955352 339.579683 
L 233.782345 337.497271 
L 234.609337 346.086074 
L 235.43633 343.654719 
L 236.263323 345.257737 
L 237.090316 350.829363 
L 237.917309 357.683564 
L 238.744302 362.44173 
L 239.571295 361.678707 
L 240.398287 360.392574 
L 241.22528 377.907009 
L 242.052273 372.192768 
L 242.879266 364.776337 
L 243.706259 350.324218 
L 244.533252 348.054642 
L 245.360245 308.918503 
L 246.187238 305.792327 
L 247.01423 308.205051 
L 247.841223 308.435829 
L 248.668216 304.872815 
L 249.495209 303.972298 
L 250.322202 312.347128 
L 251.149195 314.396343 
L 251.976188 324.108963 
L 252.80318 317.316848 
L 253.630173 355.316606 
L 254.457166 352.363423 
L 255.284159 350.748663 
L 256.111152 348.418305 
L 256.938145 353.546304 
L 257.765138 351.551519 
L 258.59213 348.375577 
L 259.419123 351.491656 
L 260.246116 357.187004 
L 261.073109 360.474693 
L 261.900102 351.742863 
L 262.727095 352.440439 
L 263.554088 356.436113 
L 264.381081 358.596303 
L 265.208073 353.714826 
L 266.035066 354.853171 
L 266.862059 354.326592 
L 267.689052 337.941414 
L 268.516045 338.162589 
L 269.343038 331.502749 
L 270.170031 329.453597 
L 270.997023 334.651462 
L 271.824016 333.202432 
L 272.651009 333.66619 
L 273.478002 330.522535 
L 274.304995 329.254586 
L 275.131988 325.609675 
L 275.958981 342.170285 
L 276.785973 338.146046 
L 277.612966 344.475077 
L 278.439959 354.155606 
L 279.266952 344.003732 
L 280.093945 340.342611 
L 280.920938 337.879655 
L 281.747931 345.06092 
L 282.574924 342.690784 
L 283.401916 347.569019 
L 284.228909 347.501515 
L 285.055902 348.603285 
L 285.882895 354.336942 
L 286.709888 352.088716 
L 287.536881 355.816985 
L 288.363874 353.766993 
L 289.190866 353.499219 
L 290.017859 348.741772 
L 290.844852 347.91354 
L 291.671845 346.568469 
L 292.498838 345.99963 
L 293.325831 346.144108 
L 294.152824 323.961888 
L 294.979817 322.764558 
L 295.806809 327.976004 
L 296.633802 334.418207 
L 297.460795 335.146304 
L 298.287788 334.316945 
L 299.114781 326.227402 
L 299.941774 324.531994 
L 300.768767 324.920678 
L 301.595759 325.815425 
L 302.422752 347.92544 
L 303.249745 350.729133 
L 304.076738 347.979212 
L 304.903731 345.780821 
L 305.730724 349.060824 
L 306.557717 351.411173 
L 307.384709 362.364943 
L 308.211702 363.123821 
L 309.038695 351.54874 
L 309.865688 350.970933 
L 310.692681 350.213306 
L 311.519674 353.984123 
L 312.346667 358.565282 
L 313.17366 348.473216 
L 314.000652 348.74031 
L 314.827645 347.169699 
L 315.654638 348.625946 
L 316.481631 352.233071 
L 317.308624 365.225821 
L 318.96261 354.800092 
L 319.789602 353.537114 
L 320.616595 353.373785 
L 321.443588 358.771815 
L 322.270581 353.600155 
L 323.097574 355.776779 
L 323.924567 353.362442 
L 324.75156 348.755322 
L 325.578552 342.046451 
L 326.405545 350.389136 
L 327.232538 356.14161 
L 328.059531 352.084021 
L 328.886524 350.409994 
L 329.713517 357.829613 
L 330.54051 359.327612 
L 331.367503 357.037047 
L 333.021488 345.110519 
L 333.848481 348.887689 
L 334.675474 342.808606 
L 335.502467 341.927295 
L 336.32946 331.003444 
L 337.156453 326.948565 
L 337.983445 326.343784 
L 338.810438 330.016792 
L 339.637431 336.099912 
L 340.464424 339.522805 
L 341.291417 348.172615 
L 342.11841 344.546608 
L 342.945403 350.442979 
L 343.772396 351.882813 
L 344.599388 367.832072 
L 345.426381 369.940849 
L 346.253374 353.553168 
L 347.080367 353.843922 
L 347.90736 353.513853 
L 348.734353 358.158722 
L 349.561346 347.158161 
L 350.388338 341.909795 
L 351.215331 340.939198 
L 352.042324 321.17375 
L 352.869317 318.940723 
L 353.69631 321.241227 
L 354.523303 333.584095 
L 355.350296 331.810411 
L 356.177288 317.509059 
L 357.004281 310.84602 
L 357.831274 321.335104 
L 358.658267 334.602256 
L 359.48526 325.189433 
L 360.312253 343.169926 
L 361.139246 335.012668 
L 361.966239 328.698387 
L 362.793231 333.270986 
L 363.620224 326.489851 
L 364.447217 338.25314 
L 365.27421 347.637951 
L 366.101203 349.65891 
L 366.928196 332.195558 
L 367.755189 340.725907 
L 368.582181 342.23565 
L 369.409174 344.922631 
L 370.236167 351.980687 
L 371.06316 351.79062 
L 371.890153 354.268563 
L 372.717146 357.585563 
L 373.544139 348.728711 
L 374.371131 347.435907 
L 375.198124 362.99078 
L 376.025117 367.027485 
L 376.85211 364.274026 
L 377.679103 370.373803 
L 378.506096 350.577923 
L 379.333089 351.118113 
L 380.160082 350.520233 
L 380.987074 348.724209 
L 381.814067 355.262346 
L 382.64106 350.003146 
L 383.468053 349.089368 
L 384.295046 342.884483 
L 385.122039 345.49133 
L 385.949032 340.089659 
L 386.776024 359.496343 
L 387.603017 355.429958 
L 388.43001 346.2108 
L 389.257003 340.568859 
L 390.083996 340.689749 
L 390.910989 347.055667 
L 391.737982 348.334168 
L 392.564975 349.89854 
L 393.391967 349.490103 
L 394.21896 353.232225 
L 395.045953 354.37797 
L 395.872946 339.446079 
L 396.699939 353.220687 
L 397.526932 356.640339 
L 398.353925 340.5573 
L 399.180917 337.654551 
L 400.00791 337.033553 
L 400.834903 340.478843 
L 401.661896 339.100495 
L 402.488889 334.254637 
L 403.315882 332.500468 
L 404.142875 349.196144 
L 404.969867 345.626565 
L 405.79686 339.75909 
L 406.623853 353.182448 
L 407.450846 358.256171 
L 408.277839 359.757552 
L 409.104832 358.700081 
L 409.931825 360.428057 
L 410.758818 360.624753 
L 411.58581 355.531959 
L 412.412803 355.090704 
L 413.239796 358.39583 
L 414.066789 365.488233 
L 414.893782 371.384659 
L 415.720775 370.769871 
L 416.547768 361.410301 
L 417.37476 354.971469 
L 418.201753 350.649266 
L 419.028746 358.799732 
L 419.855739 365.424523 
L 420.682732 365.879616 
L 421.509725 361.752509 
L 422.336718 359.326296 
L 423.16371 352.142964 
L 423.990703 347.804469 
L 424.817696 349.138489 
L 425.644689 352.02558 
L 426.471682 356.237287 
L 427.298675 353.800517 
L 428.125668 352.834961 
L 428.952661 352.169482 
L 429.779653 357.852417 
L 430.606646 359.736837 
L 431.433639 360.511996 
L 432.260632 354.035938 
L 433.087625 361.966551 
L 433.914618 361.800858 
L 434.741611 354.286978 
L 435.568603 342.16228 
L 436.395596 338.657207 
L 437.222589 332.600026 
L 438.049582 333.645819 
L 438.876575 332.455701 
L 439.703568 336.794275 
L 440.530561 346.259691 
L 441.357554 346.637189 
L 442.184546 341.169724 
L 443.011539 348.785505 
L 443.838532 355.051495 
L 444.665525 354.142883 
L 445.492518 345.8436 
L 446.319511 343.840796 
L 447.146504 345.945956 
L 447.973496 341.622187 
L 448.800489 339.850037 
L 449.627482 340.333999 
L 450.454475 345.365983 
L 451.281468 341.21388 
L 452.108461 343.954383 
L 452.935454 349.012782 
L 453.762446 364.794525 
L 454.589439 363.254421 
L 455.416432 359.497615 
L 456.243425 364.519092 
L 457.070418 366.762188 
L 457.897411 365.781491 
L 458.724404 371.34177 
L 459.551397 370.326271 
L 460.378389 373.542723 
L 461.205382 374.657127 
L 462.032375 376.323046 
L 462.859368 364.550176 
L 463.686361 362.614125 
L 464.513354 354.733006 
L 465.340347 349.466895 
L 466.994332 349.007301 
L 467.821325 354.24866 
L 468.648318 355.773553 
L 469.475311 349.916595 
L 470.302304 348.010561 
L 471.129297 356.227751 
L 471.95629 357.40017 
L 472.783282 355.365566 
L 473.610275 357.243631 
L 474.437268 353.870832 
L 475.264261 352.527593 
L 476.091254 346.926299 
L 476.918247 342.832063 
L 477.74524 346.183724 
L 478.572232 342.204423 
L 479.399225 346.155482 
L 480.226218 339.052302 
L 481.053211 343.795181 
L 481.880204 345.325616 
L 482.707197 343.057603 
L 483.53419 341.789025 
L 484.361182 342.807723 
L 485.188175 347.502972 
L 486.015168 340.471871 
L 486.842161 344.534475 
L 487.669154 343.123116 
L 488.496147 350.301874 
L 489.32314 350.747423 
L 490.150133 352.052834 
L 490.977125 358.447811 
L 491.804118 350.986839 
L 492.631111 355.581728 
L 493.458104 340.8347 
L 494.285097 338.585285 
L 495.11209 329.86016 
L 495.939083 333.743223 
L 496.766075 339.009905 
L 497.593068 339.275056 
L 498.420061 339.993127 
L 499.247054 334.458611 
L 500.074047 342.206044 
L 500.90104 342.126296 
L 501.728033 352.494401 
L 502.555025 364.766098 
L 503.382018 373.878371 
L 504.209011 373.180937 
L 505.036004 371.208285 
L 505.862997 368.084358 
L 506.68999 368.799981 
L 507.516983 374.394964 
L 508.343976 372.808955 
L 509.170968 370.067703 
L 509.997961 366.81872 
L 510.824954 357.11515 
L 511.651947 357.097804 
L 512.47894 356.647181 
L 513.305933 357.888749 
L 514.132926 366.07954 
L 514.959918 361.275933 
L 515.786911 349.969095 
L 516.613904 353.817086 
L 517.440897 354.508745 
L 518.26789 362.684278 
L 519.094883 364.124028 
L 519.921876 364.786416 
L 520.748869 362.525386 
L 521.575861 361.305556 
L 522.402854 359.338241 
L 523.229847 363.270866 
L 524.05684 373.08746 
L 524.883833 368.198101 
L 525.710826 361.982033 
L 526.537819 358.419786 
L 527.364811 363.203809 
L 528.191804 358.400747 
L 529.018797 359.480186 
L 529.84579 354.253475 
L 530.672783 354.4025 
L 531.499776 351.360149 
L 532.326769 339.37224 
L 533.153761 330.70994 
L 533.980754 330.993286 
L 534.807747 329.991635 
L 535.63474 332.645985 
L 536.461733 328.723052 
L 537.288726 328.655675 
L 538.115719 331.673502 
L 538.942712 330.144045 
L 539.769704 331.07209 
L 540.596697 343.096831 
L 541.42369 357.964047 
L 542.250683 363.158456 
L 543.077676 355.662028 
L 543.904669 356.451578 
L 544.731662 361.69483 
L 545.558654 358.32492 
L 547.21264 366.438954 
L 548.039633 367.761171 
L 548.866626 366.265363 
L 549.693619 365.701651 
L 551.347604 363.055936 
L 552.174597 355.439029 
L 553.00159 357.314223 
L 553.828583 360.797105 
L 554.655576 358.409152 
L 556.309562 343.198007 
L 557.136555 344.766461 
L 557.963547 343.90835 
L 558.79054 344.49979 
L 559.617533 356.301611 
L 560.444526 360.871743 
L 561.271519 363.813103 
L 562.098512 357.651182 
L 562.925505 359.854155 
L 563.752497 362.817306 
L 564.57949 371.729344 
L 565.406483 371.777732 
L 566.233476 368.150244 
L 567.060469 360.183965 
L 567.887462 356.444841 
L 568.714455 356.383529 
L 569.541448 348.858632 
L 570.36844 357.025374 
L 571.195433 353.411561 
L 572.022426 355.132131 
L 572.849419 356.506224 
L 573.676412 356.51041 
L 574.503405 359.20272 
L 575.330398 371.753194 
L 576.15739 367.234512 
L 576.984383 368.426907 
L 577.811376 367.279292 
L 578.638369 359.373852 
L 579.465362 364.757119 
L 580.292355 355.581562 
L 581.94634 346.531407 
L 582.773333 345.901435 
L 583.600326 342.009544 
L 584.427319 349.632125 
L 585.254312 348.968314 
L 586.081305 341.856336 
L 586.908298 341.627057 
L 587.735291 340.702402 
L 588.562283 352.10311 
L 589.389276 353.556771 
L 590.216269 352.96099 
L 591.043262 349.805173 
L 591.870255 353.362918 
L 592.697248 354.793395 
L 593.524241 355.024826 
L 594.351233 364.571012 
L 595.178226 363.664727 
L 596.005219 364.425529 
L 596.832212 362.984083 
L 597.659205 363.098616 
L 598.486198 366.263433 
L 599.313191 365.222463 
L 600.140183 360.641975 
L 600.967176 357.269517 
L 601.794169 355.522151 
L 602.621162 359.002553 
L 603.448155 354.949663 
L 604.275148 349.189624 
L 606.756126 340.36525 
L 607.583119 343.724055 
L 608.410112 344.531522 
L 609.237105 347.232827 
L 610.064098 346.096793 
L 610.891091 347.229797 
L 612.545076 358.33961 
L 614.199062 360.310512 
L 615.026055 366.041571 
L 615.853048 370.093137 
L 616.680041 365.477847 
L 617.507034 366.55056 
L 618.334027 370.250473 
L 619.161019 368.466166 
L 619.988012 371.004644 
L 620.815005 370.994137 
L 621.641998 372.133259 
L 622.468991 372.900888 
L 623.295984 372.15702 
L 624.122977 357.117646 
L 624.949969 357.42538 
L 625.776962 348.287813 
L 626.603955 345.624466 
L 627.430948 349.497908 
L 628.257941 351.561103 
L 629.084934 349.029647 
L 629.911927 334.835397 
L 630.738919 330.874022 
L 631.565912 322.764587 
L 632.392905 336.226171 
L 633.219898 339.591839 
L 634.873884 344.28 
L 635.700877 335.935504 
L 636.52787 335.489473 
L 637.354862 335.402225 
L 638.181855 351.475071 
L 639.008848 354.272503 
L 639.835841 361.9456 
L 640.662834 356.533435 
L 641.489827 358.995299 
L 642.31682 360.037459 
L 643.143812 357.664927 
L 643.970805 365.986993 
L 644.797798 363.543854 
L 645.624791 367.630748 
L 646.451784 365.620063 
L 647.278777 369.364332 
L 648.10577 370.093573 
L 648.932762 373.430503 
L 649.759755 375.976733 
L 650.586748 377.921001 
L 651.413741 376.923533 
L 652.240734 374.454375 
L 653.067727 374.719938 
L 653.89472 368.69665 
L 654.721713 365.942335 
L 655.548705 362.779289 
L 658.029684 344.133441 
L 658.856677 318.741046 
L 659.68367 319.739127 
L 660.510663 318.013192 
L 661.337655 322.515088 
L 662.164648 323.703704 
L 662.991641 327.869116 
L 663.818634 327.564423 
L 665.47262 339.339985 
L 666.299613 344.714321 
L 667.126606 367.753623 
L 667.953598 371.928688 
L 668.780591 375.502172 
L 669.607584 376.136834 
L 670.434577 375.291253 
L 671.26157 371.259801 
L 672.088563 372.034817 
L 672.915556 373.222439 
L 673.742548 368.045237 
L 674.569541 367.951106 
L 675.396534 372.978248 
L 676.223527 373.025913 
L 677.05052 368.610374 
L 677.877513 365.008662 
L 679.531498 373.263208 
L 680.358491 376.049001 
L 681.185484 371.830597 
L 682.012477 376.512005 
L 682.83947 375.308031 
L 683.666463 364.218727 
L 684.493456 347.862494 
L 685.320449 339.571841 
L 686.147441 337.471832 
L 686.974434 337.112082 
L 687.801427 333.728324 
L 688.62842 326.306894 
L 689.455413 321.894243 
L 690.282406 325.123539 
L 691.109399 326.264618 
L 691.936391 333.106274 
L 692.763384 348.019671 
L 693.590377 358.126464 
L 694.41737 362.214218 
L 695.244363 363.258509 
L 696.071356 366.473898 
L 696.898349 371.753704 
L 697.725341 378.521511 
L 698.552334 374.247072 
L 699.379327 373.856088 
L 700.20632 378.423343 
L 701.033313 369.977438 
L 701.860306 372.941596 
L 702.687299 372.674589 
L 703.514292 369.610232 
L 704.341284 362.952888 
L 705.168277 362.376206 
L 705.99527 356.778387 
L 706.822263 356.747591 
L 707.649256 353.870721 
L 708.476249 349.689363 
L 709.303242 347.179703 
L 710.130234 346.411966 
L 711.78422 339.242636 
L 712.611213 347.180446 
L 713.438206 349.938262 
L 714.265199 351.557066 
L 715.919185 357.000913 
L 716.746177 359.120038 
L 717.57317 368.721355 
L 718.400163 362.08643 
L 719.227156 367.474607 
L 720.054149 371.62152 
L 720.881142 372.291203 
L 721.708135 367.001011 
L 722.535127 371.64991 
L 723.36212 373.132507 
L 724.189113 366.975477 
L 725.016106 363.05771 
L 726.670092 368.171247 
L 727.497085 366.088077 
L 728.324077 362.910945 
L 729.15107 354.829461 
L 729.978063 361.074447 
L 730.805056 362.420915 
L 731.632049 354.656309 
L 732.459042 361.446169 
L 733.286035 362.421856 
L 734.113028 361.389536 
L 734.94002 364.407511 
L 735.767013 365.340336 
L 737.420999 367.645205 
L 738.247992 359.858499 
L 739.074985 353.900872 
L 739.901978 356.936011 
L 740.72897 355.360474 
L 741.555963 355.794443 
L 742.382956 355.022314 
L 744.036942 347.237158 
L 744.863935 349.661731 
L 745.690928 349.551291 
L 746.51792 358.123514 
L 747.344913 358.768265 
L 748.171906 363.591169 
L 748.998899 362.185568 
L 749.825892 352.284946 
L 750.652885 352.817038 
L 751.479878 351.76729 
L 752.306871 357.747776 
L 753.133863 360.522376 
L 753.960856 362.802529 
L 754.787849 362.274271 
L 755.614842 366.520949 
L 756.441835 365.59144 
L 757.268828 368.717035 
L 758.095821 382.208323 
L 758.922813 382.630244 
L 759.749806 385.834 
L 760.576799 385.506091 
L 761.403792 362.133113 
L 762.230785 357.903605 
L 763.057778 355.334661 
L 763.884771 351.482907 
L 764.711764 351.483201 
L 765.538756 353.689463 
L 766.365749 352.111737 
L 767.192742 349.921359 
L 768.019735 351.308048 
L 768.846728 342.896508 
L 769.673721 355.485437 
L 770.500714 361.983797 
L 771.327706 360.182484 
L 772.154699 363.050061 
L 772.981692 357.341983 
L 773.808685 354.021555 
L 774.635678 355.207067 
L 775.462671 349.579223 
L 776.289664 351.364305 
L 777.116656 357.279138 
L 777.943649 366.651867 
L 778.770642 361.005201 
L 779.597635 362.742103 
L 780.424628 354.70084 
L 781.251621 362.723842 
L 782.078614 362.424013 
L 782.905607 359.946424 
L 783.732599 365.918434 
L 785.386585 359.812654 
L 786.213578 358.162559 
L 787.040571 363.952063 
L 787.867564 364.39458 
L 788.694557 371.720576 
L 789.521549 366.371061 
L 790.348542 369.883402 
L 791.175535 372.770095 
L 792.002528 376.173674 
L 792.829521 375.560475 
L 793.656514 375.9375 
L 794.483507 378.754618 
L 795.310499 378.563599 
L 796.137492 372.734463 
L 796.964485 370.681155 
L 797.791478 369.162909 
L 798.618471 361.220055 
L 799.445464 361.386189 
L 800.272457 357.690333 
L 801.09945 357.404929 
L 801.926442 357.386734 
L 802.753435 356.806069 
L 803.580428 354.442569 
L 804.407421 353.894415 
L 805.234414 352.760713 
L 806.061407 345.717983 
L 806.8884 353.083416 
L 807.715392 352.566138 
L 808.542385 353.095726 
L 809.369378 351.813326 
L 810.196371 355.576602 
L 811.023364 354.06147 
L 811.850357 357.57875 
L 812.67735 364.54469 
L 813.504343 369.186426 
L 814.331335 381.49201 
L 815.158328 374.549865 
L 815.985321 375.366117 
L 816.812314 372.905295 
L 817.639307 374.687577 
L 818.4663 375.733568 
L 819.293293 375.20696 
L 820.120285 373.301203 
L 820.947278 375.881531 
L 821.774271 377.736227 
L 822.601264 374.286794 
L 823.428257 377.229942 
L 824.25525 370.250335 
L 825.082243 368.271596 
L 825.909235 361.908887 
L 826.736228 346.614036 
L 827.563221 339.987678 
L 828.390214 340.017189 
L 829.217207 335.394113 
L 830.0442 327.653094 
L 830.871193 332.333828 
L 831.698186 328.873318 
L 832.525178 333.846892 
L 833.352171 340.52891 
L 834.179164 344.009609 
L 835.006157 360.68429 
L 835.83315 368.227959 
L 836.660143 367.010762 
L 837.487136 371.717393 
L 838.314128 377.432803 
L 839.141121 375.169509 
L 839.968114 381.345728 
L 840.795107 382.471414 
L 841.6221 373.667131 
L 842.449093 378.806468 
L 843.276086 378.7507 
L 844.103078 381.478637 
L 844.930071 384.847042 
L 845.757064 381.108309 
L 846.584057 380.031361 
L 847.41105 381.134714 
L 848.238043 380.422311 
L 849.065036 382.214436 
L 849.892029 386.241818 
L 851.546014 371.796509 
L 852.373007 368.55205 
L 852.373007 368.55205 
" clip-path="url(#p0bff6814f3)" style="fill: none; stroke-dasharray: 7.4,3.2; stroke-dashoffset: 0; stroke: #000000; stroke-width: 2"/>
   </g>
   <g id="patch_3">
    <path d="M 41.92 404.12 
L 41.92 10.8 
" style="fill: none; stroke: #000000; stroke-width: 0.8; stroke-linejoin: miter; stroke-linecap: square"/>
   </g>
   <g id="patch_4">
    <path d="M 853.2 404.12 
L 853.2 10.8 
" style="fill: none; stroke: #000000; stroke-width: 0.8; stroke-linejoin: miter; stroke-linecap: square"/>
   </g>
   <g id="patch_5">
    <path d="M 41.92 404.12 
L 853.2 404.12 
" style="fill: none; stroke: #000000; stroke-width: 0.8; stroke-linejoin: miter; stroke-linecap: square"/>
   </g>
   <g id="patch_6">
    <path d="M 41.92 10.8 
L 853.2 10.8 
" style="fill: none; stroke: #000000; stroke-width: 0.8; stroke-linejoin: miter; stroke-linecap: square"/>
   </g>
  </g>
 </g>
 <defs>
  <clipPath id="p0bff6814f3">
   <rect x="41.92" y="10.8" width="811.28" height="393.32"/>
  </clipPath>
 </defs>
</svg>
