<?xml version="1.0" encoding="utf-8" standalone="no"?>
<!DOCTYPE svg PUBLIC "-//W3C//DTD SVG 1.1//EN"
  "http://www.w3.org/Graphics/SVG/1.1/DTD/svg11.dtd">
<svg xmlns:xlink="http://www.w3.org/1999/xlink" width="864pt" height="432pt" viewBox="0 0 864 432" xmlns="http://www.w3.org/2000/svg" version="1.1">
 <metadata>
  <rdf:RDF xmlns:dc="http://purl.org/dc/elements/1.1/" xmlns:cc="http://creativecommons.org/ns#" xmlns:rdf="http://www.w3.org/1999/02/22-rdf-syntax-ns#">
   <cc:Work>
    <dc:type rdf:resource="http://purl.org/dc/dcmitype/StillImage"/>
    <dc:date>2024-09-19T19:16:28.609428</dc:date>
    <dc:format>image/svg+xml</dc:format>
    <dc:creator>
     <cc:Agent>
      <dc:title>Matplotlib v3.9.2, https://matplotlib.org/</dc:title>
     </cc:Agent>
    </dc:creator>
   </cc:Work>
  </rdf:RDF>
 </metadata>
 <defs>
  <style type="text/css">*{stroke-linejoin: round; stroke-linecap: butt}</style>
 </defs>
 <g id="figure_1">
  <g id="patch_1">
   <path d="M 0 432 
L 864 432 
L 864 0 
L 0 0 
z
" style="fill: #ffffff"/>
  </g>
  <g id="axes_1">
   <g id="patch_2">
    <path d="M 35.89 404.12 
L 853.2 404.12 
L 853.2 10.8 
L 35.89 10.8 
z
" style="fill: #ffffff"/>
   </g>
   <g id="matplotlib.axis_1">
    <g id="xtick_1">
     <g id="line2d_1">
      <defs>
       <path id="m88440d9bf0" d="M 0 0 
L 0 3.5 
" style="stroke: #000000; stroke-width: 0.8"/>
      </defs>
      <g>
       <use xlink:href="#m88440d9bf0" x="134.90787" y="404.12" style="stroke: #000000; stroke-width: 0.8"/>
      </g>
     </g>
     <g id="text_1">
      <!-- 250 -->
      <g transform="translate(125.877401 418.771563) scale(0.1 -0.1)">
       <defs>
        <path id="DejaVuSansMono-32" d="M 1166 531 
L 3309 531 
L 3309 0 
L 475 0 
L 475 531 
Q 1059 1147 1496 1619 
Q 1934 2091 2100 2284 
Q 2413 2666 2522 2902 
Q 2631 3138 2631 3384 
Q 2631 3775 2401 3997 
Q 2172 4219 1772 4219 
Q 1488 4219 1175 4116 
Q 863 4013 513 3803 
L 513 4441 
Q 834 4594 1145 4672 
Q 1456 4750 1759 4750 
Q 2444 4750 2861 4386 
Q 3278 4022 3278 3431 
Q 3278 3131 3139 2831 
Q 3000 2531 2688 2169 
Q 2513 1966 2180 1606 
Q 1847 1247 1166 531 
z
" transform="scale(0.015625)"/>
        <path id="DejaVuSansMono-35" d="M 647 4666 
L 3009 4666 
L 3009 4134 
L 1222 4134 
L 1222 2988 
Q 1356 3038 1492 3061 
Q 1628 3084 1766 3084 
Q 2491 3084 2916 2656 
Q 3341 2228 3341 1497 
Q 3341 759 2895 334 
Q 2450 -91 1678 -91 
Q 1306 -91 998 -41 
Q 691 9 447 109 
L 447 750 
Q 734 594 1025 517 
Q 1316 441 1619 441 
Q 2141 441 2423 716 
Q 2706 991 2706 1497 
Q 2706 1997 2414 2275 
Q 2122 2553 1600 2553 
Q 1347 2553 1106 2495 
Q 866 2438 647 2322 
L 647 4666 
z
" transform="scale(0.015625)"/>
        <path id="DejaVuSansMono-30" d="M 1509 2344 
Q 1509 2516 1629 2641 
Q 1750 2766 1919 2766 
Q 2094 2766 2219 2641 
Q 2344 2516 2344 2344 
Q 2344 2169 2220 2047 
Q 2097 1925 1919 1925 
Q 1744 1925 1626 2044 
Q 1509 2163 1509 2344 
z
M 1925 4250 
Q 1484 4250 1267 3775 
Q 1050 3300 1050 2328 
Q 1050 1359 1267 884 
Q 1484 409 1925 409 
Q 2369 409 2586 884 
Q 2803 1359 2803 2328 
Q 2803 3300 2586 3775 
Q 2369 4250 1925 4250 
z
M 1925 4750 
Q 2672 4750 3055 4137 
Q 3438 3525 3438 2328 
Q 3438 1134 3055 521 
Q 2672 -91 1925 -91 
Q 1178 -91 797 521 
Q 416 1134 416 2328 
Q 416 3525 797 4137 
Q 1178 4750 1925 4750 
z
" transform="scale(0.015625)"/>
       </defs>
       <use xlink:href="#DejaVuSansMono-32"/>
       <use xlink:href="#DejaVuSansMono-35" x="60.205078"/>
       <use xlink:href="#DejaVuSansMono-30" x="120.410156"/>
      </g>
     </g>
    </g>
    <g id="xtick_2">
     <g id="line2d_2">
      <g>
       <use xlink:href="#m88440d9bf0" x="238.051484" y="404.12" style="stroke: #000000; stroke-width: 0.8"/>
      </g>
     </g>
     <g id="text_2">
      <!-- 500 -->
      <g transform="translate(229.021015 418.771563) scale(0.1 -0.1)">
       <use xlink:href="#DejaVuSansMono-35"/>
       <use xlink:href="#DejaVuSansMono-30" x="60.205078"/>
       <use xlink:href="#DejaVuSansMono-30" x="120.410156"/>
      </g>
     </g>
    </g>
    <g id="xtick_3">
     <g id="line2d_3">
      <g>
       <use xlink:href="#m88440d9bf0" x="341.195098" y="404.12" style="stroke: #000000; stroke-width: 0.8"/>
      </g>
     </g>
     <g id="text_3">
      <!-- 750 -->
      <g transform="translate(332.16463 418.771563) scale(0.1 -0.1)">
       <defs>
        <path id="DejaVuSansMono-37" d="M 434 4666 
L 3372 4666 
L 3372 4397 
L 1703 0 
L 1044 0 
L 2669 4134 
L 434 4134 
L 434 4666 
z
" transform="scale(0.015625)"/>
       </defs>
       <use xlink:href="#DejaVuSansMono-37"/>
       <use xlink:href="#DejaVuSansMono-35" x="60.205078"/>
       <use xlink:href="#DejaVuSansMono-30" x="120.410156"/>
      </g>
     </g>
    </g>
    <g id="xtick_4">
     <g id="line2d_4">
      <g>
       <use xlink:href="#m88440d9bf0" x="444.338713" y="404.12" style="stroke: #000000; stroke-width: 0.8"/>
      </g>
     </g>
     <g id="text_4">
      <!-- 1000 -->
      <g transform="translate(432.298088 418.771563) scale(0.1 -0.1)">
       <defs>
        <path id="DejaVuSansMono-31" d="M 844 531 
L 1825 531 
L 1825 4097 
L 769 3859 
L 769 4434 
L 1819 4666 
L 2450 4666 
L 2450 531 
L 3419 531 
L 3419 0 
L 844 0 
L 844 531 
z
" transform="scale(0.015625)"/>
       </defs>
       <use xlink:href="#DejaVuSansMono-31"/>
       <use xlink:href="#DejaVuSansMono-30" x="60.205078"/>
       <use xlink:href="#DejaVuSansMono-30" x="120.410156"/>
       <use xlink:href="#DejaVuSansMono-30" x="180.615234"/>
      </g>
     </g>
    </g>
    <g id="xtick_5">
     <g id="line2d_5">
      <g>
       <use xlink:href="#m88440d9bf0" x="547.482327" y="404.12" style="stroke: #000000; stroke-width: 0.8"/>
      </g>
     </g>
     <g id="text_5">
      <!-- 1250 -->
      <g transform="translate(535.441702 418.771563) scale(0.1 -0.1)">
       <use xlink:href="#DejaVuSansMono-31"/>
       <use xlink:href="#DejaVuSansMono-32" x="60.205078"/>
       <use xlink:href="#DejaVuSansMono-35" x="120.410156"/>
       <use xlink:href="#DejaVuSansMono-30" x="180.615234"/>
      </g>
     </g>
    </g>
    <g id="xtick_6">
     <g id="line2d_6">
      <g>
       <use xlink:href="#m88440d9bf0" x="650.625941" y="404.12" style="stroke: #000000; stroke-width: 0.8"/>
      </g>
     </g>
     <g id="text_6">
      <!-- 1500 -->
      <g transform="translate(638.585316 418.771563) scale(0.1 -0.1)">
       <use xlink:href="#DejaVuSansMono-31"/>
       <use xlink:href="#DejaVuSansMono-35" x="60.205078"/>
       <use xlink:href="#DejaVuSansMono-30" x="120.410156"/>
       <use xlink:href="#DejaVuSansMono-30" x="180.615234"/>
      </g>
     </g>
    </g>
    <g id="xtick_7">
     <g id="line2d_7">
      <g>
       <use xlink:href="#m88440d9bf0" x="753.769556" y="404.12" style="stroke: #000000; stroke-width: 0.8"/>
      </g>
     </g>
     <g id="text_7">
      <!-- 1750 -->
      <g transform="translate(741.728931 418.771563) scale(0.1 -0.1)">
       <use xlink:href="#DejaVuSansMono-31"/>
       <use xlink:href="#DejaVuSansMono-37" x="60.205078"/>
       <use xlink:href="#DejaVuSansMono-35" x="120.410156"/>
       <use xlink:href="#DejaVuSansMono-30" x="180.615234"/>
      </g>
     </g>
    </g>
   </g>
   <g id="matplotlib.axis_2">
    <g id="ytick_1">
     <g id="line2d_8">
      <defs>
       <path id="m72d20e0636" d="M 0 0 
L -3.5 0 
" style="stroke: #000000; stroke-width: 0.8"/>
      </defs>
      <g>
       <use xlink:href="#m72d20e0636" x="35.89" y="386.241818" style="stroke: #000000; stroke-width: 0.8"/>
      </g>
     </g>
     <g id="text_8">
      <!-- 0.0 -->
      <g transform="translate(10.829063 390.067599) scale(0.1 -0.1)">
       <defs>
        <path id="DejaVuSansMono-2e" d="M 1528 953 
L 2316 953 
L 2316 0 
L 1528 0 
L 1528 953 
z
" transform="scale(0.015625)"/>
       </defs>
       <use xlink:href="#DejaVuSansMono-30"/>
       <use xlink:href="#DejaVuSansMono-2e" x="60.205078"/>
       <use xlink:href="#DejaVuSansMono-30" x="120.410156"/>
      </g>
     </g>
    </g>
    <g id="ytick_2">
     <g id="line2d_9">
      <g>
       <use xlink:href="#m72d20e0636" x="35.89" y="314.729091" style="stroke: #000000; stroke-width: 0.8"/>
      </g>
     </g>
     <g id="text_9">
      <!-- 0.2 -->
      <g transform="translate(10.829063 318.554872) scale(0.1 -0.1)">
       <use xlink:href="#DejaVuSansMono-30"/>
       <use xlink:href="#DejaVuSansMono-2e" x="60.205078"/>
       <use xlink:href="#DejaVuSansMono-32" x="120.410156"/>
      </g>
     </g>
    </g>
    <g id="ytick_3">
     <g id="line2d_10">
      <g>
       <use xlink:href="#m72d20e0636" x="35.89" y="243.216364" style="stroke: #000000; stroke-width: 0.8"/>
      </g>
     </g>
     <g id="text_10">
      <!-- 0.4 -->
      <g transform="translate(10.829063 247.042145) scale(0.1 -0.1)">
       <defs>
        <path id="DejaVuSansMono-34" d="M 2297 4091 
L 825 1625 
L 2297 1625 
L 2297 4091 
z
M 2194 4666 
L 2925 4666 
L 2925 1625 
L 3547 1625 
L 3547 1113 
L 2925 1113 
L 2925 0 
L 2297 0 
L 2297 1113 
L 319 1113 
L 319 1709 
L 2194 4666 
z
" transform="scale(0.015625)"/>
       </defs>
       <use xlink:href="#DejaVuSansMono-30"/>
       <use xlink:href="#DejaVuSansMono-2e" x="60.205078"/>
       <use xlink:href="#DejaVuSansMono-34" x="120.410156"/>
      </g>
     </g>
    </g>
    <g id="ytick_4">
     <g id="line2d_11">
      <g>
       <use xlink:href="#m72d20e0636" x="35.89" y="171.703636" style="stroke: #000000; stroke-width: 0.8"/>
      </g>
     </g>
     <g id="text_11">
      <!-- 0.6 -->
      <g transform="translate(10.829063 175.529418) scale(0.1 -0.1)">
       <defs>
        <path id="DejaVuSansMono-36" d="M 3097 4563 
L 3097 3981 
Q 2900 4097 2678 4158 
Q 2456 4219 2216 4219 
Q 1616 4219 1306 3767 
Q 997 3316 997 2438 
Q 1147 2750 1412 2917 
Q 1678 3084 2022 3084 
Q 2697 3084 3067 2670 
Q 3438 2256 3438 1497 
Q 3438 741 3056 325 
Q 2675 -91 1984 -91 
Q 1172 -91 794 492 
Q 416 1075 416 2328 
Q 416 3509 870 4129 
Q 1325 4750 2188 4750 
Q 2419 4750 2650 4701 
Q 2881 4653 3097 4563 
z
M 1972 2591 
Q 1569 2591 1337 2300 
Q 1106 2009 1106 1497 
Q 1106 984 1337 693 
Q 1569 403 1972 403 
Q 2391 403 2603 679 
Q 2816 956 2816 1497 
Q 2816 2041 2603 2316 
Q 2391 2591 1972 2591 
z
" transform="scale(0.015625)"/>
       </defs>
       <use xlink:href="#DejaVuSansMono-30"/>
       <use xlink:href="#DejaVuSansMono-2e" x="60.205078"/>
       <use xlink:href="#DejaVuSansMono-36" x="120.410156"/>
      </g>
     </g>
    </g>
    <g id="ytick_5">
     <g id="line2d_12">
      <g>
       <use xlink:href="#m72d20e0636" x="35.89" y="100.190909" style="stroke: #000000; stroke-width: 0.8"/>
      </g>
     </g>
     <g id="text_12">
      <!-- 0.8 -->
      <g transform="translate(10.829063 104.01669) scale(0.1 -0.1)">
       <defs>
        <path id="DejaVuSansMono-38" d="M 1925 2216 
Q 1503 2216 1273 1980 
Q 1044 1744 1044 1313 
Q 1044 881 1276 642 
Q 1509 403 1925 403 
Q 2350 403 2579 639 
Q 2809 875 2809 1313 
Q 2809 1741 2576 1978 
Q 2344 2216 1925 2216 
z
M 1375 2478 
Q 972 2581 745 2862 
Q 519 3144 519 3541 
Q 519 4097 897 4423 
Q 1275 4750 1925 4750 
Q 2578 4750 2956 4423 
Q 3334 4097 3334 3541 
Q 3334 3144 3107 2862 
Q 2881 2581 2478 2478 
Q 2947 2375 3195 2062 
Q 3444 1750 3444 1253 
Q 3444 622 3041 265 
Q 2638 -91 1925 -91 
Q 1213 -91 811 264 
Q 409 619 409 1247 
Q 409 1747 657 2061 
Q 906 2375 1375 2478 
z
M 1147 3481 
Q 1147 3106 1347 2909 
Q 1547 2713 1925 2713 
Q 2306 2713 2506 2909 
Q 2706 3106 2706 3481 
Q 2706 3863 2507 4063 
Q 2309 4263 1925 4263 
Q 1547 4263 1347 4061 
Q 1147 3859 1147 3481 
z
" transform="scale(0.015625)"/>
       </defs>
       <use xlink:href="#DejaVuSansMono-30"/>
       <use xlink:href="#DejaVuSansMono-2e" x="60.205078"/>
       <use xlink:href="#DejaVuSansMono-38" x="120.410156"/>
      </g>
     </g>
    </g>
    <g id="ytick_6">
     <g id="line2d_13">
      <g>
       <use xlink:href="#m72d20e0636" x="35.89" y="28.678182" style="stroke: #000000; stroke-width: 0.8"/>
      </g>
     </g>
     <g id="text_13">
      <!-- 1.0 -->
      <g transform="translate(10.829063 32.503963) scale(0.1 -0.1)">
       <use xlink:href="#DejaVuSansMono-31"/>
       <use xlink:href="#DejaVuSansMono-2e" x="60.205078"/>
       <use xlink:href="#DejaVuSansMono-30" x="120.410156"/>
      </g>
     </g>
    </g>
   </g>
   <g id="line2d_14">
    <path d="M 35.477426 346.654396 
L 35.89 354.442911 
L 36.302574 365.051942 
L 36.715149 365.051942 
L 37.127723 375.096707 
L 37.540298 381.975741 
L 38.365447 361.927188 
L 38.778021 361.927188 
L 39.60317 341.153876 
L 40.015745 336.819771 
L 40.428319 326.433115 
L 41.253468 326.433115 
L 41.666042 319.549271 
L 42.491191 340.392409 
L 43.31634 340.392409 
L 43.728915 350.779066 
L 44.141489 355.11317 
L 44.554064 365.499827 
L 44.966638 355.11317 
L 45.379213 355.11317 
L 45.791787 365.468506 
L 46.204361 355.08185 
L 46.616936 355.08185 
L 47.02951 344.695193 
L 47.442085 355.08185 
L 47.854659 355.08185 
L 48.679808 334.308537 
L 49.917532 334.308537 
L 50.330106 344.695193 
L 51.567829 344.695193 
L 51.980404 334.041529 
L 52.392978 344.428186 
L 52.805553 344.428186 
L 53.218127 354.814842 
L 53.630702 354.814842 
L 54.043276 344.581124 
L 54.455851 344.581124 
L 54.868425 334.194468 
L 55.280999 344.581124 
L 55.693574 334.194468 
L 56.106148 344.848132 
L 56.518723 344.848132 
L 56.931297 355.234788 
L 57.756446 355.234788 
L 58.169021 355.08185 
L 58.581595 344.695193 
L 59.406744 344.695193 
L 59.819319 355.08185 
L 60.231893 355.08185 
L 60.644467 344.695193 
L 61.882191 344.695193 
L 62.294765 346.964189 
L 62.70734 347.02942 
L 63.119914 357.416076 
L 64.357638 357.416076 
L 64.770212 367.802733 
L 65.182786 357.416076 
L 65.595361 357.416076 
L 66.007935 347.131637 
L 66.42051 344.862641 
L 66.833084 355.184066 
L 67.245659 344.79741 
L 67.658233 344.79741 
L 68.070808 334.410754 
L 68.483382 333.598109 
L 68.895957 323.120947 
L 69.721106 323.120947 
L 70.546254 343.792042 
L 70.958829 343.792042 
L 71.371403 354.178698 
L 71.783978 354.178698 
L 72.196552 364.565355 
L 72.609127 364.574486 
L 73.434276 385.438304 
L 74.259425 385.438304 
L 74.671999 379.437236 
L 76.322297 379.437236 
L 76.734871 369.854094 
L 77.147446 369.854094 
L 77.972595 348.673064 
L 78.385169 348.673064 
L 78.797744 354.674132 
L 80.448041 354.674132 
L 80.860616 365.060788 
L 81.27319 354.604306 
L 82.098339 374.981822 
L 82.510914 368.395123 
L 82.923488 358.008467 
L 83.748637 358.008467 
L 84.573786 337.030642 
L 84.98636 329.87937 
L 85.398935 340.335852 
L 85.811509 340.335852 
L 86.224084 341.139366 
L 86.636658 337.339409 
L 87.049233 337.464149 
L 87.461807 337.464149 
L 87.874382 327.077492 
L 88.286956 337.586964 
L 88.699531 337.73261 
L 89.112105 334.497226 
L 90.762403 334.497226 
L 91.174977 344.759142 
L 91.587552 344.759142 
L 92.000126 355.145799 
L 92.412701 355.145799 
L 93.23785 375.855162 
L 93.650424 375.855162 
L 94.062998 371.850449 
L 94.475573 371.850449 
L 94.888147 382.237106 
L 96.125871 382.237106 
L 96.538445 371.819897 
L 97.363594 371.819897 
L 97.776169 367.466948 
L 98.188743 361.082988 
L 98.601318 361.082988 
L 99.013892 359.638287 
L 99.426466 349.251631 
L 100.251615 349.251631 
L 100.66419 359.668839 
L 101.076764 359.668839 
L 101.489339 349.282183 
L 101.901913 352.822487 
L 102.314488 363.21116 
L 102.727062 353.947853 
L 103.139637 355.392555 
L 103.552211 365.779211 
L 103.964785 356.956212 
L 104.37736 356.956212 
L 104.789934 356.161626 
L 105.615083 356.067967 
L 106.027658 356.880612 
L 106.440232 356.880612 
L 106.852807 366.143919 
L 107.677956 366.143919 
L 108.09053 374.966917 
L 108.503104 374.966917 
L 108.915679 375.761503 
L 109.328253 365.651083 
L 109.740828 376.131398 
L 110.978551 376.131398 
L 111.8037 355.327554 
L 113.041424 355.327554 
L 113.453998 365.437975 
L 115.104296 365.437975 
L 115.51687 365.316879 
L 115.929445 375.74582 
L 119.23004 375.74582 
L 119.642615 386.241818 
L 123.355785 386.241818 
L 123.768359 375.967 
L 124.180934 375.967 
L 124.593508 363.730982 
L 125.006083 363.730982 
L 125.418657 362.936397 
L 125.831232 362.936397 
L 126.243806 359.893302 
L 126.656381 359.893302 
L 127.068955 357.53574 
L 127.48153 357.53574 
L 127.894104 367.810558 
L 128.306678 357.366259 
L 128.719253 365.838449 
L 129.131827 363.480887 
L 129.544402 364.275472 
L 129.956976 354.039337 
L 130.369551 357.082431 
L 130.782125 354.724869 
L 131.1947 357.082431 
L 131.607274 352.791667 
L 132.019849 352.791667 
L 132.432423 362.483201 
L 132.844997 366.247028 
L 133.257572 368.604591 
L 133.670146 364.22626 
L 134.082721 374.462396 
L 134.495295 374.462396 
L 134.90787 372.141556 
L 135.320444 367.807451 
L 135.733019 372.098215 
L 136.558168 362.962489 
L 136.970742 354.688289 
L 137.383317 354.688289 
L 137.795891 351.782916 
L 138.208465 347.448811 
L 138.62104 346.636166 
L 139.033614 348.957007 
L 139.446189 352.530338 
L 139.858763 348.196233 
L 140.271338 347.524446 
L 140.683912 348.609288 
L 141.096487 347.087223 
L 141.509061 334.961151 
L 141.921636 332.569604 
L 142.746784 319.57804 
L 143.159359 316.781531 
L 143.571933 313.118837 
L 144.397082 315.504814 
L 144.809657 316.129589 
L 145.222231 320.26148 
L 146.04738 333.615642 
L 146.459955 339.704517 
L 146.872529 341.083691 
L 147.285103 339.55433 
L 147.697678 335.771417 
L 148.110252 335.035896 
L 148.522827 335.771417 
L 148.935401 333.711467 
L 149.347976 334.906296 
L 149.76055 327.008941 
L 150.173125 325.336376 
L 150.585699 317.915442 
L 150.998274 313.982242 
L 151.410848 315.659783 
L 151.823423 320.17994 
L 152.235997 317.912511 
L 152.648571 312.8821 
L 153.061146 313.338231 
L 153.47372 307.591673 
L 153.886295 315.694973 
L 154.298869 314.251811 
L 155.124018 327.095126 
L 156.361742 311.720815 
L 156.774316 311.078211 
L 157.18689 307.341678 
L 157.599465 304.653231 
L 158.012039 300.481362 
L 158.424614 293.110846 
L 158.837188 289.430946 
L 159.249763 283.932181 
L 159.662337 284.146077 
L 160.074912 283.199804 
L 160.487486 279.26142 
L 160.900061 273.645149 
L 161.312635 269.671927 
L 161.725209 272.539605 
L 162.137784 270.054204 
L 162.550358 268.896103 
L 163.375507 257.489796 
L 163.788082 254.290075 
L 164.200656 247.956566 
L 165.43838 243.728747 
L 165.850954 243.549517 
L 166.263529 242.066261 
L 167.088677 250.005228 
L 167.501252 252.771802 
L 169.15155 258.765021 
L 169.564124 259.952391 
L 169.976699 253.190653 
L 170.389273 249.271974 
L 172.039571 228.724225 
L 172.452145 226.254219 
L 173.277294 220.055821 
L 173.689869 217.219388 
L 174.102443 216.908438 
L 174.515018 215.083303 
L 174.927592 215.083303 
L 175.340167 213.996764 
L 175.752741 212.223398 
L 176.165315 211.123203 
L 176.57789 211.954289 
L 176.990464 209.801377 
L 177.403039 210.435307 
L 177.815613 207.750264 
L 178.228188 209.672685 
L 178.640762 209.091846 
L 179.053337 205.66425 
L 179.465911 203.555423 
L 179.878486 202.668473 
L 180.29106 201.188901 
L 180.703635 197.297964 
L 181.116209 197.22969 
L 181.528783 192.395521 
L 181.941358 190.495184 
L 182.353932 184.206293 
L 182.766507 182.608865 
L 183.591656 177.933171 
L 184.00423 173.990949 
L 184.416805 171.2129 
L 184.829379 171.853578 
L 186.067102 163.288966 
L 186.892251 154.19565 
L 187.7174 147.303449 
L 188.129975 145.631464 
L 188.955124 139.250984 
L 189.367698 137.748898 
L 189.780273 134.596396 
L 190.605422 130.315894 
L 192.668294 112.541766 
L 193.493443 98.668765 
L 193.906017 95.805073 
L 194.318592 91.547283 
L 194.731166 90.09842 
L 195.143741 87.995105 
L 195.556315 88.548291 
L 196.381464 83.810123 
L 196.794038 81.084964 
L 197.206613 82.029246 
L 197.619187 82.221173 
L 198.444336 81.795538 
L 198.856911 82.154237 
L 199.269485 81.549377 
L 199.68206 79.817495 
L 200.094634 79.432852 
L 200.507208 78.867814 
L 200.919783 79.222387 
L 201.332357 75.760638 
L 202.982655 67.310239 
L 203.39523 66.749263 
L 203.807804 65.516287 
L 204.220379 66.264772 
L 204.632953 64.558806 
L 205.458102 63.529578 
L 205.870676 63.848933 
L 206.283251 63.246971 
L 206.695825 62.300706 
L 207.1084 62.062246 
L 207.520974 62.793847 
L 207.933549 60.984036 
L 208.346123 58.491841 
L 208.758698 59.34127 
L 209.171272 57.074362 
L 209.583847 56.88021 
L 209.996421 55.603845 
L 210.408995 55.767527 
L 211.234144 54.237423 
L 211.646719 51.087413 
L 212.059293 50.26833 
L 212.471868 51.256983 
L 212.884442 49.429783 
L 213.297017 49.405327 
L 213.709591 48.298808 
L 214.122166 48.61169 
L 214.947314 48.142255 
L 215.359889 47.434277 
L 215.772463 47.003987 
L 216.185038 46.741918 
L 216.597612 45.084001 
L 217.010187 44.69594 
L 217.835336 44.943955 
L 218.660485 42.072061 
L 219.073059 42.285872 
L 219.485634 41.644681 
L 219.898208 41.844238 
L 220.723357 42.741326 
L 221.135931 42.72763 
L 221.548506 41.968683 
L 221.96108 41.968683 
L 222.373655 42.175237 
L 222.786229 41.95714 
L 223.611378 41.881558 
L 224.023953 41.470564 
L 224.436527 39.974562 
L 224.849101 38.934095 
L 225.261676 38.550809 
L 225.67425 37.547711 
L 226.086825 36.941785 
L 226.911974 36.971799 
L 227.324548 36.186472 
L 227.737123 35.816577 
L 228.149697 35.600633 
L 228.562272 36.206595 
L 228.974846 37.183115 
L 229.38742 37.359912 
L 229.799995 37.35524 
L 230.212569 36.776326 
L 230.625144 35.9614 
L 231.037718 35.545736 
L 231.862867 35.123149 
L 232.275442 35.708988 
L 233.513165 34.532787 
L 233.92574 34.542235 
L 234.338314 34.135954 
L 234.750888 34.335592 
L 235.163463 34.340263 
L 235.576037 34.979447 
L 235.988612 34.979447 
L 236.401186 33.99189 
L 236.813761 33.792252 
L 237.226335 33.000153 
L 238.051484 32.582063 
L 238.464059 32.786372 
L 239.289207 32.800596 
L 239.701782 31.755091 
L 240.114356 31.353372 
L 241.35208 31.353372 
L 241.764654 31.750564 
L 242.177229 31.750564 
L 242.589803 31.543893 
L 243.002378 31.931637 
L 243.414952 32.135919 
L 243.827527 32.741959 
L 244.240101 32.537637 
L 244.652675 32.535276 
L 245.477824 32.124269 
L 245.890399 32.319538 
L 246.302973 32.742522 
L 246.715548 32.5382 
L 247.953271 30.9196 
L 248.365846 31.525641 
L 248.77842 31.927359 
L 249.603569 31.927359 
L 250.016143 31.13526 
L 250.428718 30.712276 
L 250.841292 31.12327 
L 251.253867 30.916586 
L 251.666441 30.918948 
L 252.079016 31.334717 
L 252.49159 31.355983 
L 252.904165 30.749942 
L 253.316739 32.700289 
L 253.729313 32.904612 
L 254.141888 32.90225 
L 254.554462 33.303969 
L 254.967037 33.097298 
L 255.379611 33.30162 
L 255.792186 33.89845 
L 256.20476 34.286194 
L 256.617335 33.658887 
L 257.029909 34.065209 
L 257.442484 32.114862 
L 257.855058 32.117223 
L 258.267633 32.328671 
L 258.680207 31.72263 
L 259.092781 31.934077 
L 259.505356 31.729754 
L 259.91793 31.738887 
L 260.330505 30.935373 
L 260.743079 31.341695 
L 261.155654 30.935373 
L 261.568228 30.935373 
L 261.980803 30.728689 
L 262.393377 30.312919 
L 262.805952 30.312919 
L 263.218526 30.103834 
L 263.6311 30.103834 
L 264.043675 29.291188 
L 264.456249 29.291188 
L 264.868824 28.884866 
L 266.106547 28.884866 
L 266.519122 29.09155 
L 267.344271 29.09155 
L 268.169419 29.500195 
L 268.581994 30.32218 
L 268.994568 30.526502 
L 269.407143 30.526502 
L 269.819717 30.730825 
L 270.232292 30.730825 
L 270.644866 30.524141 
L 271.057441 30.728463 
L 271.88259 30.317457 
L 272.295164 30.519456 
L 272.707739 30.108465 
L 273.120313 29.904142 
L 274.770611 29.906504 
L 275.183185 29.702181 
L 275.59576 29.702181 
L 276.008334 29.906504 
L 276.833483 29.089188 
L 277.658632 29.089188 
L 278.071206 28.882504 
L 279.721504 28.882504 
L 280.134079 28.678182 
L 280.546653 28.678182 
L 280.959228 28.884866 
L 281.371802 28.884866 
L 281.784377 29.09155 
L 282.609525 29.09155 
L 283.0221 29.497872 
L 284.259823 29.497872 
L 284.672398 29.704555 
L 285.084972 29.497872 
L 285.497547 29.702194 
L 285.910121 29.49551 
L 286.73527 29.49551 
L 287.147845 29.089188 
L 287.972993 29.497833 
L 288.385568 29.497833 
L 288.798142 29.291149 
L 289.623291 29.291149 
L 290.035866 29.495472 
L 291.273589 29.495472 
L 292.098738 29.086827 
L 292.923887 29.086827 
L 293.336461 29.493149 
L 293.749036 29.288826 
L 294.986759 29.899471 
L 295.811908 29.899471 
L 296.224483 30.106155 
L 296.637057 30.106155 
L 297.049631 30.312838 
L 297.462206 29.906517 
L 297.87478 29.906517 
L 298.287355 29.500195 
L 298.699929 29.500195 
L 299.112504 29.295872 
L 299.525078 29.500195 
L 299.937653 29.500195 
L 300.350227 29.293511 
L 301.175376 29.293511 
L 302.000525 29.704517 
L 302.413099 29.704517 
L 302.825674 29.500195 
L 303.650823 29.502556 
L 304.063397 29.70924 
L 305.301121 29.706879 
L 305.713695 29.502556 
L 306.538844 29.906517 
L 307.363993 29.906517 
L 307.776567 30.106155 
L 308.189142 29.899471 
L 308.601716 30.103793 
L 309.014291 30.103793 
L 309.426865 29.899471 
L 309.83944 29.899471 
L 310.252014 29.493149 
L 310.664589 29.288826 
L 311.077163 29.288826 
L 311.489738 29.49551 
L 311.902312 29.293511 
L 312.314886 29.293511 
L 312.727461 29.089188 
L 314.790333 29.089188 
L 315.202908 29.504958 
L 316.028057 29.093952 
L 316.853205 29.093952 
L 317.678354 29.502597 
L 318.503503 29.502597 
L 318.916078 29.70928 
L 319.328652 29.293511 
L 319.741227 29.497833 
L 320.566376 29.497833 
L 321.391524 29.904155 
L 321.804099 29.699833 
L 322.629248 29.699833 
L 323.041822 29.493149 
L 323.454397 29.493149 
L 323.866971 29.288826 
L 324.69212 29.288826 
L 325.104695 29.084504 
L 325.517269 28.678182 
L 325.929844 28.882504 
L 326.342418 28.882504 
L 327.167567 29.291149 
L 327.580141 29.706919 
L 329.643014 29.706919 
L 330.055588 29.502597 
L 330.468163 29.706919 
L 330.880737 29.706919 
L 331.293311 29.502597 
L 331.705886 29.086827 
L 332.11846 29.293511 
L 334.181333 29.293511 
L 334.593907 29.089188 
L 335.83163 29.089188 
L 336.244205 29.686018 
L 336.656779 29.89034 
L 338.719652 29.89034 
L 339.132226 29.686018 
L 339.544801 29.892702 
L 339.957375 29.892702 
L 340.36995 29.293511 
L 340.782524 29.293511 
L 341.195098 29.497833 
L 342.432822 29.497833 
L 343.257971 29.906478 
L 343.670545 29.699794 
L 344.08312 29.699794 
L 344.495694 29.495472 
L 344.908269 29.497833 
L 345.320843 29.293511 
L 345.733417 29.293511 
L 346.145992 29.497833 
L 346.558566 29.497833 
L 347.383715 29.089188 
L 347.79629 29.089188 
L 348.208864 29.295872 
L 348.621439 29.295872 
L 349.034013 29.089188 
L 349.446588 29.089188 
L 349.859162 29.293511 
L 350.271736 29.695229 
L 350.684311 29.695229 
L 351.922034 30.310558 
L 352.747183 30.310558 
L 353.159758 30.517242 
L 353.572332 30.517242 
L 353.984907 30.312919 
L 354.397481 29.706879 
L 354.810056 30.510392 
L 356.047779 29.895063 
L 356.460353 30.104149 
L 356.872928 30.104149 
L 358.523226 30.926202 
L 358.9358 30.329373 
L 359.348375 30.329373 
L 359.760949 30.740366 
L 360.173523 30.740366 
L 360.586098 30.324597 
L 360.998672 30.324597 
L 361.411247 29.908827 
L 361.823821 29.704504 
L 362.236396 30.106223 
L 363.061545 29.695216 
L 363.474119 29.695216 
L 363.886694 29.284223 
L 365.949566 29.284223 
L 366.36214 28.678182 
L 366.774715 29.284223 
L 368.012438 29.284223 
L 368.425013 29.490907 
L 370.07531 29.490907 
L 370.487885 29.897229 
L 370.900459 29.49551 
L 372.138183 29.49551 
L 372.550757 29.288826 
L 372.963332 29.288826 
L 373.375906 29.493149 
L 373.788481 29.493149 
L 374.201055 29.699833 
L 374.613629 29.293511 
L 375.026204 29.089188 
L 375.851353 29.089188 
L 377.089076 29.706879 
L 379.151949 29.704517 
L 379.564523 29.911201 
L 379.977097 29.911201 
L 380.389672 30.310558 
L 381.627395 29.695229 
L 383.277693 29.697591 
L 383.690268 29.897229 
L 384.102842 29.897229 
L 384.515416 29.69751 
L 384.927991 30.103832 
L 385.340565 30.103832 
L 385.75314 30.519601 
L 386.165714 30.519601 
L 386.578289 30.312917 
L 387.403438 30.312917 
L 387.816012 29.906595 
L 388.228587 29.906595 
L 388.641161 29.706957 
L 389.053735 29.300635 
L 389.46631 29.300635 
L 389.878884 28.884866 
L 391.116608 28.884866 
L 391.529182 29.883648 
L 391.941757 30.090332 
L 392.354331 30.090332 
L 392.766906 30.696294 
L 393.17948 30.900617 
L 393.592055 30.900617 
L 394.829778 31.515946 
L 395.242352 31.515946 
L 395.654927 30.721486 
L 396.067501 30.514802 
L 396.480076 30.514802 
L 396.89265 29.702156 
L 397.305225 29.497833 
L 397.717799 29.497833 
L 398.955522 28.882504 
L 399.368097 28.882504 
L 399.780671 28.678182 
L 400.60582 29.089188 
L 401.843544 29.089188 
L 402.256118 29.293511 
L 403.081267 29.293511 
L 404.31899 29.908827 
L 404.731565 29.911188 
L 405.144139 30.115511 
L 405.556714 30.115511 
L 406.381863 30.521833 
L 406.794437 30.928155 
L 407.207012 30.928155 
L 409.269884 29.901832 
L 410.095033 29.901832 
L 410.507607 29.49551 
L 412.157905 29.500182 
L 412.57048 29.293498 
L 413.808203 29.293498 
L 414.220777 29.089175 
L 414.633352 29.293498 
L 415.045926 29.086827 
L 415.458501 29.493149 
L 416.696224 29.493149 
L 417.521373 29.906517 
L 418.346522 29.906517 
L 419.171671 29.497872 
L 419.584245 29.09155 
L 419.99682 29.295872 
L 420.409394 29.295872 
L 420.821969 29.500195 
L 421.647118 29.086827 
L 422.472267 29.086827 
L 422.884841 29.502597 
L 423.297415 30.343923 
L 424.947713 30.343923 
L 425.360288 30.548245 
L 425.772862 31.547028 
L 426.185437 31.547028 
L 426.598011 31.95335 
L 427.010586 31.53758 
L 427.42316 30.696254 
L 428.248309 30.698615 
L 428.660883 31.114385 
L 429.898607 30.519603 
L 430.311181 31.323117 
L 430.723756 31.720309 
L 431.13633 32.32635 
L 431.548905 33.325132 
L 432.374054 33.322771 
L 432.786628 32.907001 
L 433.199202 32.907001 
L 433.611777 33.113685 
L 434.024351 32.301039 
L 434.436926 31.913295 
L 434.8495 31.109781 
L 435.262075 30.710424 
L 435.674649 29.915964 
L 436.087224 29.915964 
L 436.499798 29.711642 
L 436.912373 29.711642 
L 437.324947 29.915964 
L 438.975245 29.913603 
L 439.387819 29.706919 
L 441.038117 29.70928 
L 441.863266 29.300635 
L 442.27584 29.300635 
L 442.688415 28.884866 
L 443.100989 29.490907 
L 443.513564 29.490907 
L 443.926138 29.284223 
L 445.163862 29.284223 
L 445.576436 29.699992 
L 446.81416 29.699992 
L 447.226734 29.298274 
L 447.639308 29.298274 
L 448.051883 29.502597 
L 448.877032 29.502597 
L 449.289606 29.706919 
L 449.702181 29.291149 
L 450.114755 29.291149 
L 450.52733 29.706919 
L 450.939904 29.706919 
L 451.352479 29.502597 
L 451.765053 29.502597 
L 452.177627 29.298274 
L 453.002776 29.298274 
L 453.415351 29.093952 
L 453.827925 29.300635 
L 454.2405 29.300635 
L 454.653074 28.884866 
L 455.065649 29.089188 
L 457.541095 29.089188 
L 457.95367 28.882504 
L 458.778819 29.293511 
L 459.191393 29.089188 
L 462.079414 29.089188 
L 462.904563 28.678182 
L 466.205159 28.678182 
L 466.617733 28.882504 
L 470.330904 28.882504 
L 470.743478 28.678182 
L 471.568627 29.089188 
L 472.393776 29.089188 
L 473.631499 29.704517 
L 474.044074 30.115511 
L 474.869223 30.115511 
L 475.694372 29.704504 
L 476.51952 30.113149 
L 477.344669 30.113149 
L 477.757244 29.908827 
L 478.169818 29.497833 
L 479.820116 29.497833 
L 480.645265 29.089188 
L 481.057839 29.089188 
L 481.470414 28.884866 
L 484.77101 28.884866 
L 485.183584 28.678182 
L 486.421307 28.678182 
L 486.833882 28.884866 
L 487.659031 28.884866 
L 488.071605 29.089188 
L 488.48418 29.089188 
L 488.896754 29.49551 
L 489.309329 30.299024 
L 490.134478 30.71003 
L 490.547052 31.1258 
L 490.959626 31.334886 
L 492.19735 31.337247 
L 492.609924 31.54157 
L 493.022499 31.341932 
L 493.435073 30.742741 
L 493.847648 30.740379 
L 494.260222 30.942379 
L 494.672797 30.730931 
L 495.085371 30.315162 
L 496.323094 30.3128 
L 497.148243 29.901794 
L 497.560818 30.103793 
L 497.973392 29.899471 
L 498.385967 29.899471 
L 498.798541 29.695148 
L 499.211116 29.901832 
L 500.036265 29.901832 
L 500.448839 29.69751 
L 501.273988 29.69751 
L 501.686562 29.291188 
L 502.099137 29.291188 
L 502.511711 28.884866 
L 502.924286 29.089188 
L 507.05003 29.089188 
L 507.462605 28.884866 
L 509.112903 28.884866 
L 509.525477 29.089188 
L 509.938051 29.089188 
L 510.350626 29.49551 
L 510.7632 29.49551 
L 511.175775 29.288826 
L 512.826073 29.288826 
L 513.238647 29.493149 
L 513.651222 29.288826 
L 514.063796 29.288826 
L 514.476371 28.882504 
L 515.301519 29.291149 
L 515.714094 29.697471 
L 516.539243 29.697471 
L 516.951817 29.901794 
L 517.364392 29.697471 
L 518.189541 29.697471 
L 518.602115 30.113241 
L 519.01469 29.908918 
L 519.427264 29.908918 
L 519.839838 29.502597 
L 520.252413 29.70928 
L 520.664987 29.70928 
L 521.077562 29.504958 
L 522.315285 29.504958 
L 522.72786 29.089188 
L 523.140434 29.089188 
L 523.553009 28.884866 
L 523.965583 28.884866 
L 524.378157 28.678182 
L 526.853604 28.678182 
L 527.678753 29.09155 
L 528.091328 29.09155 
L 528.503902 29.295872 
L 530.566774 29.295872 
L 530.979349 29.702194 
L 531.804498 29.288826 
L 532.217072 29.288826 
L 532.629647 29.084504 
L 533.454796 29.084504 
L 533.86737 29.288826 
L 534.279944 29.288826 
L 534.692519 29.493149 
L 535.517668 29.502597 
L 535.930242 29.706919 
L 537.167966 29.706919 
L 537.58054 30.113241 
L 537.993115 29.908918 
L 538.405689 29.908918 
L 538.818264 29.704596 
L 539.230838 29.288826 
L 539.643412 29.493149 
L 540.055987 29.288826 
L 540.881136 29.288826 
L 541.29371 29.49551 
L 541.706285 29.295872 
L 543.356583 29.295872 
L 543.769157 29.09155 
L 544.594306 29.502556 
L 545.419455 29.500195 
L 545.832029 29.293511 
L 547.482327 29.293511 
L 547.894902 29.500195 
L 548.72005 29.089188 
L 549.132625 29.695229 
L 549.545199 29.490907 
L 551.195497 29.490907 
L 551.608072 29.9019 
L 552.433221 29.899539 
L 552.845795 30.106223 
L 553.25837 29.500182 
L 553.670944 29.500182 
L 554.496093 29.911188 
L 554.908667 29.911188 
L 555.321242 30.524154 
L 555.733816 30.11316 
L 556.146391 30.514878 
L 556.558965 31.120919 
L 556.97154 30.914235 
L 557.796689 31.32288 
L 559.034412 31.32288 
L 559.446986 30.914238 
L 559.859561 30.914238 
L 560.68471 30.113162 
L 561.097284 30.113162 
L 561.509859 29.90884 
L 561.922433 29.90884 
L 562.335008 29.704517 
L 562.747582 29.904155 
L 563.160156 30.310477 
L 563.572731 30.106155 
L 563.985305 30.106155 
L 564.39788 29.901832 
L 565.635603 29.899471 
L 566.048178 29.695148 
L 566.460752 29.695148 
L 567.285901 28.882504 
L 568.523624 28.882504 
L 568.936199 28.678182 
L 569.348773 28.678182 
L 569.761348 28.884866 
L 570.173922 28.884866 
L 570.586497 29.089188 
L 572.236795 29.089188 
L 573.061943 29.500195 
L 573.474518 29.500195 
L 573.887092 29.293511 
L 574.299667 29.497833 
L 574.712241 29.293511 
L 576.362539 29.293511 
L 577.187688 28.882504 
L 578.012837 28.882504 
L 578.425411 28.678182 
L 578.837986 28.882504 
L 580.075709 28.882504 
L 580.488284 29.089188 
L 582.551156 29.089188 
L 582.96373 28.884866 
L 584.201454 28.884866 
L 584.614028 28.678182 
L 586.676901 28.678182 
L 587.089475 28.884866 
L 587.502049 28.884866 
L 587.914624 29.089188 
L 588.327198 29.089188 
L 588.739773 29.293511 
L 589.977496 29.293511 
L 590.390071 29.500195 
L 590.802645 29.500195 
L 591.21522 29.293511 
L 591.627794 29.293511 
L 592.040369 29.089188 
L 592.452943 29.293511 
L 593.278092 29.295872 
L 593.690666 29.702194 
L 594.103241 29.702194 
L 594.515815 29.49551 
L 596.166113 29.49551 
L 596.578688 29.291188 
L 597.403836 29.288826 
L 597.816411 29.089188 
L 600.704432 29.089188 
L 601.117007 28.884866 
L 601.529581 29.089188 
L 601.942155 28.882504 
L 605.242751 28.882504 
L 605.655326 28.678182 
L 607.718198 28.678182 
L 608.543347 29.086827 
L 608.955921 29.493149 
L 611.018794 29.493149 
L 611.431368 29.899471 
L 612.256517 29.899471 
L 612.669091 29.695148 
L 613.081666 29.288826 
L 614.319389 29.288826 
L 614.731964 29.49551 
L 615.144538 29.49551 
L 615.557113 29.089188 
L 617.619985 29.09155 
L 618.032559 29.497872 
L 618.445134 29.702194 
L 618.857708 29.49551 
L 619.270283 29.699833 
L 619.682857 29.699833 
L 620.095432 29.906517 
L 621.333155 29.906517 
L 621.745729 30.312838 
L 622.158304 29.906517 
L 622.570878 29.908878 
L 622.983453 30.3152 
L 623.396027 30.110877 
L 623.808602 30.317561 
L 624.633751 29.904193 
L 625.4589 29.904193 
L 625.871474 29.497872 
L 626.284048 29.497872 
L 626.696623 29.291188 
L 627.521772 29.295859 
L 627.934346 29.089175 
L 629.17207 29.089175 
L 629.584644 29.293498 
L 629.997219 29.69982 
L 630.409793 29.69982 
L 630.822367 29.904142 
L 631.234942 29.493149 
L 631.647516 29.697471 
L 633.297814 29.697471 
L 633.710389 29.493149 
L 634.122963 29.086827 
L 634.535538 29.086827 
L 634.948112 28.882504 
L 635.360687 28.882504 
L 635.773261 28.678182 
L 636.185835 28.884866 
L 637.010984 28.884866 
L 637.423559 29.089188 
L 638.248708 29.089188 
L 638.661282 29.293511 
L 639.073857 29.699833 
L 641.136729 29.697471 
L 641.549303 29.493149 
L 641.961878 29.493149 
L 642.374452 29.908918 
L 642.787027 29.91128 
L 643.199601 29.504958 
L 643.612176 29.504958 
L 644.02475 29.70928 
L 644.437325 29.504958 
L 646.087622 29.504958 
L 646.500197 29.089188 
L 646.912771 28.882504 
L 647.73792 28.882504 
L 648.150495 28.678182 
L 648.975644 28.678182 
L 649.388218 28.882504 
L 649.800793 28.882504 
L 650.213367 29.089188 
L 653.513963 29.089188 
L 653.926537 29.293511 
L 654.339112 29.086827 
L 654.751686 29.086827 
L 655.989409 29.699794 
L 657.227133 29.699794 
L 657.639707 29.911242 
L 658.052282 29.706919 
L 658.464856 29.911242 
L 658.877431 30.317563 
L 659.70258 30.317563 
L 660.115154 30.113241 
L 660.940303 30.113241 
L 661.352877 30.319925 
L 661.765452 29.904155 
L 662.178026 29.904155 
L 662.590601 29.699833 
L 663.003175 29.293511 
L 663.828324 28.884866 
L 665.066047 28.884866 
L 665.478622 28.678182 
L 665.891196 28.678182 
L 666.303771 29.084504 
L 670.016941 29.084504 
L 670.429515 28.678182 
L 672.492388 28.678182 
L 672.904962 28.884866 
L 675.792983 28.884866 
L 676.205558 29.490907 
L 676.618132 29.697591 
L 677.030707 29.695229 
L 677.443281 29.899552 
L 678.26843 29.899552 
L 678.681005 30.310545 
L 679.918728 30.310545 
L 680.331302 29.908827 
L 681.569026 29.293498 
L 682.394175 29.293498 
L 682.806749 29.086827 
L 683.219324 29.293511 
L 683.631898 29.293511 
L 684.044472 29.699833 
L 684.457047 29.699833 
L 684.869621 29.904155 
L 685.282196 29.904155 
L 685.69477 30.108478 
L 686.932494 30.108478 
L 687.345068 29.901794 
L 687.757643 30.106116 
L 688.995366 29.495472 
L 689.40794 29.495472 
L 689.820515 29.291149 
L 690.645664 29.291149 
L 691.058238 29.086827 
L 691.470813 29.086827 
L 692.295962 28.678182 
L 693.121111 28.678182 
L 693.533685 29.089175 
L 694.358834 29.089175 
L 694.771408 29.293498 
L 695.596557 29.293498 
L 696.009132 29.49782 
L 697.246855 29.49782 
L 697.65943 29.086827 
L 698.484578 29.086827 
L 698.897153 28.882504 
L 699.722302 28.882504 
L 700.134876 28.678182 
L 705.498344 28.678182 
L 705.910919 28.882504 
L 707.561217 28.882504 
L 708.386365 29.295872 
L 709.211514 30.108516 
L 709.624089 30.714557 
L 710.036663 30.510234 
L 710.861812 30.510234 
L 711.686961 30.923602 
L 712.51211 30.510234 
L 713.749833 29.295872 
L 714.574982 29.295872 
L 714.987557 29.500195 
L 715.812706 29.086827 
L 717.050429 29.086827 
L 717.463004 29.714133 
L 717.875578 29.509811 
L 718.288152 29.714133 
L 719.525876 29.714133 
L 719.93845 29.918456 
L 720.763599 30.7311 
L 721.176174 30.935422 
L 721.588748 30.308116 
L 722.001323 30.308116 
L 722.413897 30.103793 
L 722.826471 30.310477 
L 723.239046 30.106155 
L 724.064195 30.106155 
L 724.889344 29.293511 
L 725.301918 29.089188 
L 725.714493 29.089188 
L 726.539642 29.502556 
L 726.952216 29.295872 
L 729.840237 29.295872 
L 730.252812 29.49551 
L 730.665386 29.288826 
L 731.077961 29.288826 
L 731.90311 29.697471 
L 732.315684 29.493149 
L 733.965982 29.493149 
L 734.378556 29.086827 
L 735.203705 29.086827 
L 736.028854 28.678182 
L 736.854003 28.678182 
L 737.266577 28.882504 
L 737.679152 28.882504 
L 738.091726 29.288826 
L 739.742024 29.288826 
L 740.154599 29.49551 
L 740.979748 29.49551 
L 741.392322 29.291188 
L 741.804897 29.291188 
L 742.217471 29.09155 
L 743.04262 29.09155 
L 743.455194 29.295872 
L 743.867769 29.295872 
L 744.280343 29.089188 
L 744.692918 29.293511 
L 747.168364 29.291149 
L 747.580939 29.086827 
L 748.406088 29.086827 
L 748.818662 28.882504 
L 750.056386 28.882504 
L 750.46896 28.678182 
L 753.356981 28.678182 
L 753.769556 28.882504 
L 755.832428 28.882504 
L 756.245003 29.509811 
L 757.482726 29.509811 
L 757.8953 29.305488 
L 758.307875 29.509811 
L 758.720449 29.509811 
L 759.133024 30.313324 
L 759.958173 30.721969 
L 760.370747 30.094663 
L 761.195896 30.094663 
L 761.60847 30.301347 
L 762.021045 30.301347 
L 762.433619 30.097024 
L 762.846194 30.097024 
L 763.258768 29.293511 
L 764.083917 28.884866 
L 764.496492 28.884866 
L 765.321641 29.295872 
L 765.734215 29.089188 
L 766.971938 29.089188 
L 767.797087 29.497833 
L 768.622236 29.497833 
L 769.447385 29.086827 
L 770.272534 29.086827 
L 771.097683 29.497833 
L 771.510257 29.293511 
L 772.747981 29.293511 
L 773.160555 29.497833 
L 774.810853 29.500195 
L 775.223428 29.293511 
L 775.636002 29.293511 
L 776.048576 29.089188 
L 776.873725 29.497833 
L 777.2863 29.293511 
L 777.698874 29.497833 
L 778.524023 29.497833 
L 778.936598 29.291149 
L 779.349172 29.495472 
L 780.174321 29.495472 
L 780.99947 29.086827 
L 781.824619 29.49551 
L 783.062342 29.49551 
L 783.474917 29.291188 
L 783.887491 29.69751 
L 785.125215 29.69751 
L 785.537789 29.490826 
L 785.950363 29.084504 
L 787.600661 29.084504 
L 788.013236 28.678182 
L 788.42581 28.884866 
L 789.250959 28.884866 
L 789.663534 29.089188 
L 790.901257 29.089188 
L 791.313831 29.293511 
L 792.13898 29.293511 
L 792.551555 29.086827 
L 793.376704 29.086827 
L 793.789278 28.882504 
L 795.027002 28.882504 
L 795.439576 28.678182 
L 795.85215 28.678182 
L 796.264725 29.481695 
L 796.677299 29.481695 
L 797.089874 29.686018 
L 797.502448 29.686018 
L 797.915023 29.892702 
L 799.565321 29.892702 
L 799.977895 30.097024 
L 800.390469 29.293511 
L 800.803044 29.293511 
L 801.215618 29.089188 
L 801.628193 29.089188 
L 802.040767 28.882504 
L 803.691065 28.882504 
L 804.10364 28.678182 
L 805.753937 28.678182 
L 806.166512 28.882504 
L 808.641959 28.882504 
L 809.054533 29.086827 
L 809.467108 29.086827 
L 809.879682 29.493149 
L 810.292256 29.288826 
L 811.117405 29.699833 
L 811.942554 29.699833 
L 812.355129 29.906517 
L 812.767703 29.906517 
L 813.180278 29.702194 
L 813.592852 29.702194 
L 814.005427 29.295872 
L 814.418001 29.295872 
L 815.24315 28.884866 
L 815.655724 29.089188 
L 816.068299 29.089188 
L 816.480873 28.882504 
L 816.893448 29.089188 
L 817.718597 29.089188 
L 818.131171 29.695229 
L 818.543746 29.899552 
L 818.95632 30.310545 
L 819.368894 30.310545 
L 819.781469 30.106223 
L 820.606618 30.106223 
L 821.019192 29.899539 
L 821.431767 30.103861 
L 821.844341 30.103861 
L 822.256916 29.49782 
L 823.082065 29.086827 
L 824.319788 29.086827 
L 825.144937 29.497833 
L 825.557511 29.293511 
L 826.38266 29.293511 
L 826.795235 29.497833 
L 827.207809 29.293511 
L 828.032958 29.702156 
L 828.445533 29.702156 
L 828.858107 29.904155 
L 829.270681 29.697471 
L 829.683256 30.310437 
L 830.09583 30.51712 
L 830.508405 30.51712 
L 830.920979 30.312798 
L 831.333554 30.312798 
L 831.746128 30.714516 
L 832.158703 30.510194 
L 832.571277 30.510194 
L 832.983852 30.103872 
L 833.396426 30.310556 
L 833.809001 29.697591 
L 834.221575 29.490907 
L 835.459298 29.490907 
L 835.871873 28.884866 
L 836.284447 29.09155 
L 836.697022 29.502543 
L 837.109596 30.694423 
L 837.522171 30.487739 
L 837.934745 30.692062 
L 838.34732 30.692062 
L 838.759894 31.107831 
L 839.172468 31.720797 
L 839.585043 31.925119 
L 840.410192 31.925119 
L 840.822766 31.514126 
L 841.235341 30.322246 
L 841.647915 30.322246 
L 842.06049 30.117923 
L 842.473064 30.117923 
L 842.885639 29.906476 
L 843.298213 29.293511 
L 843.710787 29.293511 
L 844.123362 29.704504 
L 844.535936 29.49782 
L 844.948511 29.904142 
L 846.598809 29.904142 
L 847.011383 29.69982 
L 847.423958 29.69982 
L 847.836532 29.495497 
L 848.249107 29.084504 
L 848.661681 29.490826 
L 849.074255 29.084504 
L 851.549702 29.084504 
L 851.962277 29.291188 
L 852.374851 29.291188 
L 852.787426 28.884866 
L 852.787426 28.884866 
" clip-path="url(#p8c754ca6c7)" style="fill: none; stroke-dasharray: 7.4,3.2; stroke-dashoffset: 0; stroke: #000000; stroke-width: 2"/>
   </g>
   <g id="patch_3">
    <path d="M 35.89 404.12 
L 35.89 10.8 
" style="fill: none; stroke: #000000; stroke-width: 0.8; stroke-linejoin: miter; stroke-linecap: square"/>
   </g>
   <g id="patch_4">
    <path d="M 853.2 404.12 
L 853.2 10.8 
" style="fill: none; stroke: #000000; stroke-width: 0.8; stroke-linejoin: miter; stroke-linecap: square"/>
   </g>
   <g id="patch_5">
    <path d="M 35.89 404.12 
L 853.2 404.12 
" style="fill: none; stroke: #000000; stroke-width: 0.8; stroke-linejoin: miter; stroke-linecap: square"/>
   </g>
   <g id="patch_6">
    <path d="M 35.89 10.8 
L 853.2 10.8 
" style="fill: none; stroke: #000000; stroke-width: 0.8; stroke-linejoin: miter; stroke-linecap: square"/>
   </g>
  </g>
 </g>
 <defs>
  <clipPath id="p8c754ca6c7">
   <rect x="35.89" y="10.8" width="817.31" height="393.32"/>
  </clipPath>
 </defs>
</svg>
