<?xml version="1.0" encoding="utf-8" standalone="no"?>
<!DOCTYPE svg PUBLIC "-//W3C//DTD SVG 1.1//EN"
  "http://www.w3.org/Graphics/SVG/1.1/DTD/svg11.dtd">
<svg xmlns:xlink="http://www.w3.org/1999/xlink" width="864pt" height="432pt" viewBox="0 0 864 432" xmlns="http://www.w3.org/2000/svg" version="1.1">
 <metadata>
  <rdf:RDF xmlns:dc="http://purl.org/dc/elements/1.1/" xmlns:cc="http://creativecommons.org/ns#" xmlns:rdf="http://www.w3.org/1999/02/22-rdf-syntax-ns#">
   <cc:Work>
    <dc:type rdf:resource="http://purl.org/dc/dcmitype/StillImage"/>
    <dc:date>2024-09-19T19:16:28.643007</dc:date>
    <dc:format>image/svg+xml</dc:format>
    <dc:creator>
     <cc:Agent>
      <dc:title>Matplotlib v3.9.2, https://matplotlib.org/</dc:title>
     </cc:Agent>
    </dc:creator>
   </cc:Work>
  </rdf:RDF>
 </metadata>
 <defs>
  <style type="text/css">*{stroke-linejoin: round; stroke-linecap: butt}</style>
 </defs>
 <g id="figure_1">
  <g id="patch_1">
   <path d="M 0 432 
L 864 432 
L 864 0 
L 0 0 
z
" style="fill: #ffffff"/>
  </g>
  <g id="axes_1">
   <g id="patch_2">
    <path d="M 41.92 404.12 
L 853.2 404.12 
L 853.2 10.8 
L 41.92 10.8 
z
" style="fill: #ffffff"/>
   </g>
   <g id="matplotlib.axis_1">
    <g id="xtick_1">
     <g id="line2d_1">
      <defs>
       <path id="ma31626cf40" d="M 0 0 
L 0 3.5 
" style="stroke: #000000; stroke-width: 0.8"/>
      </defs>
      <g>
       <use xlink:href="#ma31626cf40" x="140.20733" y="404.12" style="stroke: #000000; stroke-width: 0.8"/>
      </g>
     </g>
     <g id="text_1">
      <!-- 250 -->
      <g transform="translate(131.176861 418.771563) scale(0.1 -0.1)">
       <defs>
        <path id="DejaVuSansMono-32" d="M 1166 531 
L 3309 531 
L 3309 0 
L 475 0 
L 475 531 
Q 1059 1147 1496 1619 
Q 1934 2091 2100 2284 
Q 2413 2666 2522 2902 
Q 2631 3138 2631 3384 
Q 2631 3775 2401 3997 
Q 2172 4219 1772 4219 
Q 1488 4219 1175 4116 
Q 863 4013 513 3803 
L 513 4441 
Q 834 4594 1145 4672 
Q 1456 4750 1759 4750 
Q 2444 4750 2861 4386 
Q 3278 4022 3278 3431 
Q 3278 3131 3139 2831 
Q 3000 2531 2688 2169 
Q 2513 1966 2180 1606 
Q 1847 1247 1166 531 
z
" transform="scale(0.015625)"/>
        <path id="DejaVuSansMono-35" d="M 647 4666 
L 3009 4666 
L 3009 4134 
L 1222 4134 
L 1222 2988 
Q 1356 3038 1492 3061 
Q 1628 3084 1766 3084 
Q 2491 3084 2916 2656 
Q 3341 2228 3341 1497 
Q 3341 759 2895 334 
Q 2450 -91 1678 -91 
Q 1306 -91 998 -41 
Q 691 9 447 109 
L 447 750 
Q 734 594 1025 517 
Q 1316 441 1619 441 
Q 2141 441 2423 716 
Q 2706 991 2706 1497 
Q 2706 1997 2414 2275 
Q 2122 2553 1600 2553 
Q 1347 2553 1106 2495 
Q 866 2438 647 2322 
L 647 4666 
z
" transform="scale(0.015625)"/>
        <path id="DejaVuSansMono-30" d="M 1509 2344 
Q 1509 2516 1629 2641 
Q 1750 2766 1919 2766 
Q 2094 2766 2219 2641 
Q 2344 2516 2344 2344 
Q 2344 2169 2220 2047 
Q 2097 1925 1919 1925 
Q 1744 1925 1626 2044 
Q 1509 2163 1509 2344 
z
M 1925 4250 
Q 1484 4250 1267 3775 
Q 1050 3300 1050 2328 
Q 1050 1359 1267 884 
Q 1484 409 1925 409 
Q 2369 409 2586 884 
Q 2803 1359 2803 2328 
Q 2803 3300 2586 3775 
Q 2369 4250 1925 4250 
z
M 1925 4750 
Q 2672 4750 3055 4137 
Q 3438 3525 3438 2328 
Q 3438 1134 3055 521 
Q 2672 -91 1925 -91 
Q 1178 -91 797 521 
Q 416 1134 416 2328 
Q 416 3525 797 4137 
Q 1178 4750 1925 4750 
z
" transform="scale(0.015625)"/>
       </defs>
       <use xlink:href="#DejaVuSansMono-32"/>
       <use xlink:href="#DejaVuSansMono-35" x="60.205078"/>
       <use xlink:href="#DejaVuSansMono-30" x="120.410156"/>
      </g>
     </g>
    </g>
    <g id="xtick_2">
     <g id="line2d_2">
      <g>
       <use xlink:href="#ma31626cf40" x="242.589965" y="404.12" style="stroke: #000000; stroke-width: 0.8"/>
      </g>
     </g>
     <g id="text_2">
      <!-- 500 -->
      <g transform="translate(233.559496 418.771563) scale(0.1 -0.1)">
       <use xlink:href="#DejaVuSansMono-35"/>
       <use xlink:href="#DejaVuSansMono-30" x="60.205078"/>
       <use xlink:href="#DejaVuSansMono-30" x="120.410156"/>
      </g>
     </g>
    </g>
    <g id="xtick_3">
     <g id="line2d_3">
      <g>
       <use xlink:href="#ma31626cf40" x="344.9726" y="404.12" style="stroke: #000000; stroke-width: 0.8"/>
      </g>
     </g>
     <g id="text_3">
      <!-- 750 -->
      <g transform="translate(335.942131 418.771563) scale(0.1 -0.1)">
       <defs>
        <path id="DejaVuSansMono-37" d="M 434 4666 
L 3372 4666 
L 3372 4397 
L 1703 0 
L 1044 0 
L 2669 4134 
L 434 4134 
L 434 4666 
z
" transform="scale(0.015625)"/>
       </defs>
       <use xlink:href="#DejaVuSansMono-37"/>
       <use xlink:href="#DejaVuSansMono-35" x="60.205078"/>
       <use xlink:href="#DejaVuSansMono-30" x="120.410156"/>
      </g>
     </g>
    </g>
    <g id="xtick_4">
     <g id="line2d_4">
      <g>
       <use xlink:href="#ma31626cf40" x="447.355235" y="404.12" style="stroke: #000000; stroke-width: 0.8"/>
      </g>
     </g>
     <g id="text_4">
      <!-- 1000 -->
      <g transform="translate(435.31461 418.771563) scale(0.1 -0.1)">
       <defs>
        <path id="DejaVuSansMono-31" d="M 844 531 
L 1825 531 
L 1825 4097 
L 769 3859 
L 769 4434 
L 1819 4666 
L 2450 4666 
L 2450 531 
L 3419 531 
L 3419 0 
L 844 0 
L 844 531 
z
" transform="scale(0.015625)"/>
       </defs>
       <use xlink:href="#DejaVuSansMono-31"/>
       <use xlink:href="#DejaVuSansMono-30" x="60.205078"/>
       <use xlink:href="#DejaVuSansMono-30" x="120.410156"/>
       <use xlink:href="#DejaVuSansMono-30" x="180.615234"/>
      </g>
     </g>
    </g>
    <g id="xtick_5">
     <g id="line2d_5">
      <g>
       <use xlink:href="#ma31626cf40" x="549.73787" y="404.12" style="stroke: #000000; stroke-width: 0.8"/>
      </g>
     </g>
     <g id="text_5">
      <!-- 1250 -->
      <g transform="translate(537.697245 418.771563) scale(0.1 -0.1)">
       <use xlink:href="#DejaVuSansMono-31"/>
       <use xlink:href="#DejaVuSansMono-32" x="60.205078"/>
       <use xlink:href="#DejaVuSansMono-35" x="120.410156"/>
       <use xlink:href="#DejaVuSansMono-30" x="180.615234"/>
      </g>
     </g>
    </g>
    <g id="xtick_6">
     <g id="line2d_6">
      <g>
       <use xlink:href="#ma31626cf40" x="652.120505" y="404.12" style="stroke: #000000; stroke-width: 0.8"/>
      </g>
     </g>
     <g id="text_6">
      <!-- 1500 -->
      <g transform="translate(640.07988 418.771563) scale(0.1 -0.1)">
       <use xlink:href="#DejaVuSansMono-31"/>
       <use xlink:href="#DejaVuSansMono-35" x="60.205078"/>
       <use xlink:href="#DejaVuSansMono-30" x="120.410156"/>
       <use xlink:href="#DejaVuSansMono-30" x="180.615234"/>
      </g>
     </g>
    </g>
    <g id="xtick_7">
     <g id="line2d_7">
      <g>
       <use xlink:href="#ma31626cf40" x="754.50314" y="404.12" style="stroke: #000000; stroke-width: 0.8"/>
      </g>
     </g>
     <g id="text_7">
      <!-- 1750 -->
      <g transform="translate(742.462515 418.771563) scale(0.1 -0.1)">
       <use xlink:href="#DejaVuSansMono-31"/>
       <use xlink:href="#DejaVuSansMono-37" x="60.205078"/>
       <use xlink:href="#DejaVuSansMono-35" x="120.410156"/>
       <use xlink:href="#DejaVuSansMono-30" x="180.615234"/>
      </g>
     </g>
    </g>
   </g>
   <g id="matplotlib.axis_2">
    <g id="ytick_1">
     <g id="line2d_8">
      <defs>
       <path id="m19bce3edb6" d="M 0 0 
L -3.5 0 
" style="stroke: #000000; stroke-width: 0.8"/>
      </defs>
      <g>
       <use xlink:href="#m19bce3edb6" x="41.92" y="386.395385" style="stroke: #000000; stroke-width: 0.8"/>
      </g>
     </g>
     <g id="text_8">
      <!-- 0.00 -->
      <g transform="translate(10.83875 390.221166) scale(0.1 -0.1)">
       <defs>
        <path id="DejaVuSansMono-2e" d="M 1528 953 
L 2316 953 
L 2316 0 
L 1528 0 
L 1528 953 
z
" transform="scale(0.015625)"/>
       </defs>
       <use xlink:href="#DejaVuSansMono-30"/>
       <use xlink:href="#DejaVuSansMono-2e" x="60.205078"/>
       <use xlink:href="#DejaVuSansMono-30" x="120.410156"/>
       <use xlink:href="#DejaVuSansMono-30" x="180.615234"/>
      </g>
     </g>
    </g>
    <g id="ytick_2">
     <g id="line2d_9">
      <g>
       <use xlink:href="#m19bce3edb6" x="41.92" y="325.725643" style="stroke: #000000; stroke-width: 0.8"/>
      </g>
     </g>
     <g id="text_9">
      <!-- 0.02 -->
      <g transform="translate(10.83875 329.551424) scale(0.1 -0.1)">
       <use xlink:href="#DejaVuSansMono-30"/>
       <use xlink:href="#DejaVuSansMono-2e" x="60.205078"/>
       <use xlink:href="#DejaVuSansMono-30" x="120.410156"/>
       <use xlink:href="#DejaVuSansMono-32" x="180.615234"/>
      </g>
     </g>
    </g>
    <g id="ytick_3">
     <g id="line2d_10">
      <g>
       <use xlink:href="#m19bce3edb6" x="41.92" y="265.0559" style="stroke: #000000; stroke-width: 0.8"/>
      </g>
     </g>
     <g id="text_10">
      <!-- 0.04 -->
      <g transform="translate(10.83875 268.881681) scale(0.1 -0.1)">
       <defs>
        <path id="DejaVuSansMono-34" d="M 2297 4091 
L 825 1625 
L 2297 1625 
L 2297 4091 
z
M 2194 4666 
L 2925 4666 
L 2925 1625 
L 3547 1625 
L 3547 1113 
L 2925 1113 
L 2925 0 
L 2297 0 
L 2297 1113 
L 319 1113 
L 319 1709 
L 2194 4666 
z
" transform="scale(0.015625)"/>
       </defs>
       <use xlink:href="#DejaVuSansMono-30"/>
       <use xlink:href="#DejaVuSansMono-2e" x="60.205078"/>
       <use xlink:href="#DejaVuSansMono-30" x="120.410156"/>
       <use xlink:href="#DejaVuSansMono-34" x="180.615234"/>
      </g>
     </g>
    </g>
    <g id="ytick_4">
     <g id="line2d_11">
      <g>
       <use xlink:href="#m19bce3edb6" x="41.92" y="204.386157" style="stroke: #000000; stroke-width: 0.8"/>
      </g>
     </g>
     <g id="text_11">
      <!-- 0.06 -->
      <g transform="translate(10.83875 208.211939) scale(0.1 -0.1)">
       <defs>
        <path id="DejaVuSansMono-36" d="M 3097 4563 
L 3097 3981 
Q 2900 4097 2678 4158 
Q 2456 4219 2216 4219 
Q 1616 4219 1306 3767 
Q 997 3316 997 2438 
Q 1147 2750 1412 2917 
Q 1678 3084 2022 3084 
Q 2697 3084 3067 2670 
Q 3438 2256 3438 1497 
Q 3438 741 3056 325 
Q 2675 -91 1984 -91 
Q 1172 -91 794 492 
Q 416 1075 416 2328 
Q 416 3509 870 4129 
Q 1325 4750 2188 4750 
Q 2419 4750 2650 4701 
Q 2881 4653 3097 4563 
z
M 1972 2591 
Q 1569 2591 1337 2300 
Q 1106 2009 1106 1497 
Q 1106 984 1337 693 
Q 1569 403 1972 403 
Q 2391 403 2603 679 
Q 2816 956 2816 1497 
Q 2816 2041 2603 2316 
Q 2391 2591 1972 2591 
z
" transform="scale(0.015625)"/>
       </defs>
       <use xlink:href="#DejaVuSansMono-30"/>
       <use xlink:href="#DejaVuSansMono-2e" x="60.205078"/>
       <use xlink:href="#DejaVuSansMono-30" x="120.410156"/>
       <use xlink:href="#DejaVuSansMono-36" x="180.615234"/>
      </g>
     </g>
    </g>
    <g id="ytick_5">
     <g id="line2d_12">
      <g>
       <use xlink:href="#m19bce3edb6" x="41.92" y="143.716415" style="stroke: #000000; stroke-width: 0.8"/>
      </g>
     </g>
     <g id="text_12">
      <!-- 0.08 -->
      <g transform="translate(10.83875 147.542196) scale(0.1 -0.1)">
       <defs>
        <path id="DejaVuSansMono-38" d="M 1925 2216 
Q 1503 2216 1273 1980 
Q 1044 1744 1044 1313 
Q 1044 881 1276 642 
Q 1509 403 1925 403 
Q 2350 403 2579 639 
Q 2809 875 2809 1313 
Q 2809 1741 2576 1978 
Q 2344 2216 1925 2216 
z
M 1375 2478 
Q 972 2581 745 2862 
Q 519 3144 519 3541 
Q 519 4097 897 4423 
Q 1275 4750 1925 4750 
Q 2578 4750 2956 4423 
Q 3334 4097 3334 3541 
Q 3334 3144 3107 2862 
Q 2881 2581 2478 2478 
Q 2947 2375 3195 2062 
Q 3444 1750 3444 1253 
Q 3444 622 3041 265 
Q 2638 -91 1925 -91 
Q 1213 -91 811 264 
Q 409 619 409 1247 
Q 409 1747 657 2061 
Q 906 2375 1375 2478 
z
M 1147 3481 
Q 1147 3106 1347 2909 
Q 1547 2713 1925 2713 
Q 2306 2713 2506 2909 
Q 2706 3106 2706 3481 
Q 2706 3863 2507 4063 
Q 2309 4263 1925 4263 
Q 1547 4263 1347 4061 
Q 1147 3859 1147 3481 
z
" transform="scale(0.015625)"/>
       </defs>
       <use xlink:href="#DejaVuSansMono-30"/>
       <use xlink:href="#DejaVuSansMono-2e" x="60.205078"/>
       <use xlink:href="#DejaVuSansMono-30" x="120.410156"/>
       <use xlink:href="#DejaVuSansMono-38" x="180.615234"/>
      </g>
     </g>
    </g>
    <g id="ytick_6">
     <g id="line2d_13">
      <g>
       <use xlink:href="#m19bce3edb6" x="41.92" y="83.046672" style="stroke: #000000; stroke-width: 0.8"/>
      </g>
     </g>
     <g id="text_13">
      <!-- 0.10 -->
      <g transform="translate(10.83875 86.872454) scale(0.1 -0.1)">
       <use xlink:href="#DejaVuSansMono-30"/>
       <use xlink:href="#DejaVuSansMono-2e" x="60.205078"/>
       <use xlink:href="#DejaVuSansMono-31" x="120.410156"/>
       <use xlink:href="#DejaVuSansMono-30" x="180.615234"/>
      </g>
     </g>
    </g>
    <g id="ytick_7">
     <g id="line2d_14">
      <g>
       <use xlink:href="#m19bce3edb6" x="41.92" y="22.37693" style="stroke: #000000; stroke-width: 0.8"/>
      </g>
     </g>
     <g id="text_14">
      <!-- 0.12 -->
      <g transform="translate(10.83875 26.202711) scale(0.1 -0.1)">
       <use xlink:href="#DejaVuSansMono-30"/>
       <use xlink:href="#DejaVuSansMono-2e" x="60.205078"/>
       <use xlink:href="#DejaVuSansMono-31" x="120.410156"/>
       <use xlink:href="#DejaVuSansMono-32" x="180.615234"/>
      </g>
     </g>
    </g>
   </g>
   <g id="line2d_15">
    <path d="M 41.510469 129.681021 
L 41.92 129.163267 
L 42.329531 137.721335 
L 42.739061 150.354341 
L 43.558122 159.89402 
L 43.967653 144.92949 
L 44.377183 139.521908 
L 44.786714 155.622705 
L 45.196244 150.759262 
L 45.605775 155.33818 
L 46.015305 157.746416 
L 46.424836 149.831249 
L 46.834366 145.593121 
L 47.243897 144.547504 
L 47.653428 139.454043 
L 48.062958 156.930464 
L 48.472489 161.446815 
L 48.882019 146.573401 
L 49.29155 143.436143 
L 49.70108 141.385829 
L 50.110611 141.537823 
L 50.520141 153.499892 
L 50.929672 152.046944 
L 51.339202 151.938892 
L 51.748733 151.052889 
L 52.158264 124.30372 
L 52.567794 117.418404 
L 52.977325 116.319452 
L 53.386855 129.928739 
L 53.796386 132.072404 
L 54.205916 69.889297 
L 54.615447 53.474351 
L 55.024977 50.615411 
L 55.844038 35.113105 
L 56.253569 54.551944 
L 56.663099 63.101177 
L 57.07263 65.089501 
L 57.482161 60.285302 
L 57.891691 64.299796 
L 58.301222 126.019893 
L 58.710752 134.761926 
L 59.120283 140.697261 
L 59.529813 143.485707 
L 60.348874 160.216751 
L 60.758405 148.187268 
L 61.167935 156.123657 
L 61.577466 137.282852 
L 61.986996 136.889247 
L 62.806058 98.454253 
L 63.215588 101.043372 
L 63.625119 100.666921 
L 64.034649 81.007058 
L 64.44418 69.71263 
L 64.85371 52.040404 
L 65.263241 41.651649 
L 65.672771 62.730689 
L 66.082302 54.431945 
L 66.491832 65.995666 
L 66.901363 65.030584 
L 67.310893 63.706063 
L 67.720424 28.678182 
L 68.129955 50.756202 
L 68.539485 60.940129 
L 68.949016 87.733486 
L 69.358546 74.140286 
L 69.768077 76.459858 
L 70.177607 87.118725 
L 70.587138 92.025016 
L 70.996668 113.427731 
L 71.406199 106.221949 
L 71.815729 146.807152 
L 72.22526 143.940362 
L 72.634791 109.326011 
L 73.044321 108.163098 
L 73.453852 135.576227 
L 73.863382 127.747424 
L 74.272913 128.979783 
L 74.682443 131.391135 
L 75.091974 124.617 
L 75.501504 132.732645 
L 75.911035 129.443574 
L 76.320565 132.560355 
L 76.730096 164.697122 
L 77.139626 169.315993 
L 77.549157 171.731113 
L 77.958688 178.651267 
L 78.368218 178.845332 
L 78.777749 178.306857 
L 79.187279 189.967122 
L 79.59681 190.08948 
L 80.00634 195.13683 
L 80.415871 195.031328 
L 80.825401 197.257374 
L 81.234932 196.825945 
L 81.644462 196.91426 
L 82.053993 198.020921 
L 82.463523 189.11388 
L 82.873054 192.409988 
L 83.282585 191.231234 
L 83.692115 183.546812 
L 84.101646 185.692902 
L 84.511176 186.497356 
L 84.920707 186.513113 
L 85.330237 186.291161 
L 86.149298 185.455702 
L 86.558829 194.042715 
L 86.968359 191.844293 
L 87.37789 188.395614 
L 87.78742 195.758295 
L 88.196951 194.281758 
L 88.606482 190.423503 
L 89.016012 192.156713 
L 89.425543 192.704732 
L 90.244604 187.850953 
L 90.654134 186.866165 
L 91.063665 187.725532 
L 91.473195 192.886035 
L 91.882726 190.491866 
L 92.292256 186.331563 
L 92.701787 188.765118 
L 93.111318 188.728806 
L 93.520848 184.134634 
L 93.930379 187.072314 
L 94.339909 186.937407 
L 94.74944 182.370284 
L 95.15897 183.942598 
L 95.568501 182.73432 
L 95.978031 184.985053 
L 96.387562 184.300335 
L 96.797092 185.782938 
L 97.206623 185.041275 
L 97.616153 187.88758 
L 98.025684 184.988843 
L 98.435215 187.858664 
L 98.844745 193.865097 
L 99.254276 194.159751 
L 99.663806 194.30933 
L 100.073337 193.493716 
L 100.482867 190.769752 
L 101.301928 181.107808 
L 101.711459 182.084449 
L 102.120989 182.579563 
L 102.53052 182.789825 
L 102.94005 182.542577 
L 103.349581 181.467242 
L 103.759112 178.683563 
L 104.168642 180.134231 
L 104.578173 188.247112 
L 104.987703 180.841784 
L 105.397234 183.749791 
L 105.806764 184.444387 
L 106.216295 185.944718 
L 106.625825 180.870282 
L 107.035356 171.613922 
L 107.444886 171.838461 
L 107.854417 175.372346 
L 108.263948 173.532562 
L 108.673478 173.654463 
L 109.083009 184.770069 
L 109.492539 186.009892 
L 110.3116 185.421644 
L 110.721131 189.883651 
L 111.130661 197.323471 
L 111.540192 197.410486 
L 111.949722 197.143369 
L 112.768783 199.106802 
L 113.178314 196.267822 
L 113.587845 197.895535 
L 113.997375 194.189729 
L 114.406906 195.07139 
L 114.816436 190.596281 
L 115.225967 191.909032 
L 115.635497 192.619674 
L 116.045028 192.386864 
L 116.454558 193.00986 
L 116.864089 188.855413 
L 117.273619 189.578858 
L 117.68315 186.889009 
L 118.09268 190.155361 
L 118.502211 189.772247 
L 118.911742 194.798399 
L 119.321272 194.947454 
L 119.730803 194.661194 
L 120.140333 191.346026 
L 120.549864 191.334149 
L 120.959394 192.820286 
L 121.778455 197.375565 
L 122.597516 198.949414 
L 123.007047 198.222975 
L 123.416577 197.080582 
L 123.826108 196.927177 
L 124.235639 200.845545 
L 124.645169 200.584315 
L 125.0547 203.256973 
L 125.46423 203.46192 
L 125.873761 202.355033 
L 126.283291 201.744084 
L 126.692822 198.33669 
L 127.102352 198.922904 
L 127.511883 200.599793 
L 127.921413 200.643532 
L 128.330944 195.49213 
L 128.740475 195.988632 
L 129.150005 193.783809 
L 129.559536 194.484133 
L 129.969066 194.476166 
L 130.378597 193.550265 
L 130.788127 197.141719 
L 131.197658 197.292419 
L 131.607188 196.948185 
L 132.016719 197.36732 
L 132.426249 202.273672 
L 132.83578 200.725923 
L 133.24531 202.994455 
L 133.654841 199.712416 
L 134.473902 202.783916 
L 134.883433 202.851633 
L 135.292963 200.496131 
L 135.702494 201.102664 
L 136.112024 201.314796 
L 136.521555 201.669561 
L 136.931085 203.628628 
L 137.340616 203.269729 
L 137.750146 205.90205 
L 138.159677 206.056008 
L 138.569207 205.592062 
L 138.978738 205.799962 
L 139.388269 208.342656 
L 140.20733 207.109426 
L 140.61686 207.665134 
L 141.026391 207.336304 
L 141.435921 207.838181 
L 141.845452 208.799586 
L 142.254982 208.817775 
L 142.664513 209.170162 
L 143.074043 209.029638 
L 143.483574 209.328739 
L 144.302635 210.511474 
L 144.712166 209.06536 
L 145.121696 208.657146 
L 145.531227 208.874942 
L 146.350288 208.848723 
L 146.759818 207.981857 
L 147.169349 206.730745 
L 147.578879 204.472404 
L 147.98841 205.054276 
L 148.39794 204.873065 
L 148.807471 206.57326 
L 149.217002 206.768613 
L 149.626532 206.594116 
L 150.036063 205.876261 
L 150.445593 206.535779 
L 150.855124 207.434945 
L 151.264654 208.860032 
L 151.674185 211.328308 
L 152.083715 211.125195 
L 152.493246 211.45549 
L 152.902776 210.499552 
L 153.312307 211.277141 
L 153.721837 210.627056 
L 154.131368 211.644594 
L 154.540899 210.794708 
L 154.950429 209.593561 
L 155.35996 209.998546 
L 155.76949 208.20409 
L 156.179021 208.327413 
L 156.588551 208.204954 
L 156.998082 209.39793 
L 157.407612 208.443854 
L 157.817143 209.526983 
L 158.226673 209.667114 
L 158.636204 210.268065 
L 159.045734 212.027195 
L 159.455265 212.257674 
L 159.864796 214.592959 
L 160.274326 213.272013 
L 160.683857 214.033429 
L 161.093387 214.066536 
L 161.502918 215.467249 
L 161.912448 215.650509 
L 162.321979 216.291192 
L 162.731509 217.317557 
L 163.14104 217.974538 
L 163.55057 217.929664 
L 163.960101 218.003498 
L 164.369631 220.190543 
L 164.779162 220.141683 
L 165.188693 220.614547 
L 165.598223 220.31015 
L 166.007754 221.193339 
L 166.417284 221.730212 
L 166.826815 221.962952 
L 167.236345 222.473342 
L 167.645876 221.781742 
L 168.055406 221.925944 
L 168.464937 220.884999 
L 168.874467 222.107297 
L 169.693529 223.314517 
L 170.103059 222.803296 
L 171.331651 223.170035 
L 171.741181 224.677044 
L 172.150712 225.11844 
L 172.560242 226.862794 
L 172.969773 226.826971 
L 173.379303 226.921961 
L 174.198364 229.785094 
L 174.607895 230.047332 
L 175.426956 232.496125 
L 175.836487 233.696985 
L 176.246017 234.485795 
L 176.655548 234.887395 
L 177.474609 236.152418 
L 177.884139 234.426347 
L 178.29367 234.702518 
L 178.7032 235.764199 
L 179.112731 235.812745 
L 179.522261 236.207458 
L 179.931792 236.428627 
L 180.341323 237.284511 
L 181.160384 239.807815 
L 181.569914 240.324303 
L 181.979445 243.341416 
L 182.798506 245.17481 
L 183.208036 245.597134 
L 183.617567 245.648279 
L 184.436628 247.95524 
L 184.846159 248.288321 
L 186.07475 250.758494 
L 186.484281 252.458066 
L 186.893811 253.221244 
L 188.122403 259.185922 
L 189.350994 264.221255 
L 189.760525 263.901764 
L 190.170056 265.263045 
L 190.579586 267.140709 
L 191.398647 272.646034 
L 192.217708 276.885855 
L 193.036769 280.171504 
L 193.4463 282.529589 
L 193.85583 286.071373 
L 195.084422 292.118258 
L 195.493953 293.387252 
L 196.722544 300.337798 
L 197.951136 309.351039 
L 198.360666 312.802143 
L 198.770197 314.478303 
L 199.589258 320.441882 
L 201.22738 329.877507 
L 201.636911 331.815806 
L 202.046441 331.5626 
L 203.684563 334.436445 
L 204.094094 335.570248 
L 204.503624 336.14886 
L 204.913155 336.424687 
L 205.322686 337.513853 
L 205.732216 338.278518 
L 206.141747 341.601813 
L 206.551277 342.889166 
L 206.960808 344.668727 
L 207.370338 345.801263 
L 207.779869 346.302312 
L 208.189399 347.068217 
L 208.59893 348.19391 
L 209.417991 349.302017 
L 209.827521 350.111155 
L 210.237052 350.323463 
L 210.646583 350.69256 
L 211.056113 350.551517 
L 211.465644 351.078029 
L 211.875174 352.59034 
L 212.284705 352.229358 
L 213.103766 354.427736 
L 213.513296 354.982951 
L 213.922827 355.879665 
L 214.332357 356.300206 
L 215.151418 359.593255 
L 215.560949 360.669393 
L 215.97048 361.068375 
L 216.38001 362.990229 
L 216.789541 363.636264 
L 217.199071 363.851459 
L 217.608602 364.774229 
L 218.018132 364.949639 
L 218.427663 366.031134 
L 218.837193 365.901603 
L 219.246724 365.609416 
L 219.656254 365.509081 
L 220.065785 366.145101 
L 220.884846 366.737158 
L 221.294377 367.934194 
L 221.703907 368.466155 
L 222.113438 369.201592 
L 222.522968 369.667054 
L 223.342029 371.810568 
L 223.75156 371.96626 
L 224.16109 372.301197 
L 224.570621 372.411672 
L 224.980151 371.92801 
L 225.389682 371.995982 
L 225.799213 372.207092 
L 226.208743 372.750584 
L 226.618274 372.518464 
L 227.027804 372.546136 
L 227.846865 373.74804 
L 228.665926 374.578929 
L 229.075457 376.02765 
L 230.304048 377.276446 
L 230.713579 377.65012 
L 231.12311 377.651412 
L 231.53264 377.256817 
L 231.942171 377.567645 
L 232.351701 377.337896 
L 232.761232 377.834625 
L 233.580293 377.509004 
L 234.399354 377.975975 
L 235.627945 380.014084 
L 236.037476 380.36812 
L 236.447007 381.085399 
L 236.856537 380.688807 
L 237.266068 381.075547 
L 238.90419 381.055059 
L 239.31372 381.213549 
L 239.723251 381.211377 
L 240.132781 380.835194 
L 240.542312 380.929105 
L 240.951843 381.156953 
L 241.361373 381.181098 
L 241.770904 381.65895 
L 242.180434 381.632176 
L 242.589965 381.733357 
L 242.999495 381.632027 
L 243.818556 381.131507 
L 244.228087 381.697323 
L 244.637617 381.743802 
L 245.047148 381.932992 
L 245.456678 381.933004 
L 245.866209 381.65292 
L 246.68527 381.817142 
L 247.504331 382.433214 
L 247.913862 382.634151 
L 248.323392 382.561233 
L 249.142453 382.883237 
L 249.551984 383.130261 
L 249.961514 383.592872 
L 250.371045 383.570349 
L 250.780575 383.272869 
L 251.599637 383.251037 
L 252.009167 383.511874 
L 252.418698 383.587441 
L 252.828228 383.221441 
L 254.05682 383.08529 
L 254.875881 383.860998 
L 255.285411 383.69117 
L 255.694942 383.867532 
L 256.104472 383.449441 
L 256.923534 383.380974 
L 257.333064 383.657505 
L 257.742595 381.230851 
L 258.152125 381.215624 
L 258.561656 381.082044 
L 258.971186 380.821432 
L 259.380717 380.970444 
L 260.199778 380.778113 
L 260.609308 380.489609 
L 261.018839 380.993585 
L 261.42837 380.795126 
L 261.8379 383.238104 
L 262.247431 383.120539 
L 262.656961 382.73851 
L 263.066492 383.165701 
L 263.476022 383.140119 
L 264.295083 383.56221 
L 264.704614 384.000707 
L 265.114144 383.740265 
L 266.342736 384.208611 
L 266.752267 384.786634 
L 267.980858 384.884027 
L 268.390389 385.225725 
L 268.799919 385.234872 
L 269.20945 385.53835 
L 271.257102 385.306096 
L 272.076164 385.34629 
L 272.485694 385.286375 
L 272.895225 384.737317 
L 274.123816 384.534672 
L 274.533347 384.534831 
L 274.942877 384.747523 
L 275.761938 384.760228 
L 276.580999 384.696193 
L 276.99053 384.949651 
L 277.809591 385.154207 
L 278.219122 385.053808 
L 280.266774 385.232423 
L 281.495366 385.651161 
L 281.904897 385.643895 
L 282.314427 385.866335 
L 284.77161 385.755287 
L 285.181141 385.567834 
L 285.590671 385.575871 
L 286.409732 385.456023 
L 286.819263 385.449249 
L 287.228794 385.206202 
L 288.457385 385.30344 
L 288.866916 385.205734 
L 289.276446 385.443359 
L 289.685977 385.330884 
L 290.505038 385.439335 
L 290.914568 385.44759 
L 291.324099 385.63877 
L 292.14316 385.360472 
L 292.552691 385.371096 
L 292.962221 385.514669 
L 295.419404 385.418869 
L 296.238465 385.666375 
L 297.467057 385.608274 
L 297.876588 385.696532 
L 298.695649 385.542695 
L 299.51471 385.5369 
L 299.92424 385.566097 
L 300.333771 385.453363 
L 300.743301 385.49473 
L 301.152832 385.087579 
L 301.562362 385.163564 
L 301.971893 385.120739 
L 302.381424 385.327651 
L 304.019546 385.217681 
L 304.429076 385.303579 
L 304.838607 385.261649 
L 305.248137 385.483618 
L 305.657668 385.4196 
L 306.067198 385.086613 
L 307.705321 385.12497 
L 308.114851 384.902533 
L 309.752973 384.996389 
L 310.162504 385.240083 
L 310.981565 385.153139 
L 311.800626 385.05652 
L 312.210156 385.288137 
L 313.029218 385.21312 
L 314.257809 385.457914 
L 315.07687 385.592724 
L 315.486401 385.446961 
L 315.895931 385.537136 
L 316.714992 385.573227 
L 318.762645 385.641757 
L 319.172176 385.421132 
L 319.991237 385.668668 
L 321.219828 385.724063 
L 321.629359 385.601445 
L 322.44842 385.685666 
L 322.857951 385.525238 
L 323.267481 385.78888 
L 324.086542 385.737015 
L 324.905603 385.624861 
L 325.315134 385.507669 
L 326.543725 385.50482 
L 326.953256 385.699724 
L 328.181848 385.779381 
L 329.81997 385.96626 
L 331.048561 385.634432 
L 331.458092 384.818355 
L 333.096214 384.783758 
L 333.915275 384.916321 
L 335.143867 384.936473 
L 335.553397 385.713619 
L 335.962928 385.353782 
L 336.781989 385.241786 
L 339.648703 385.381344 
L 340.467764 385.303141 
L 342.924947 385.353765 
L 343.334478 384.411222 
L 343.744008 384.412153 
L 344.153539 384.747619 
L 344.9726 384.686148 
L 346.201191 384.81266 
L 347.020252 384.689642 
L 347.429783 385.652867 
L 350.706027 385.651768 
L 351.525088 385.784912 
L 351.934619 385.683676 
L 352.344149 385.703922 
L 352.75368 385.942254 
L 353.572741 385.916374 
L 353.982272 385.68063 
L 354.801333 385.604036 
L 356.029924 385.106338 
L 356.439455 385.119827 
L 356.848985 384.478688 
L 357.668046 384.480064 
L 358.077577 384.719996 
L 358.487108 383.778856 
L 359.306169 383.972443 
L 359.715699 384.176249 
L 360.53476 383.846706 
L 360.944291 384.078131 
L 361.763352 383.789592 
L 362.172882 383.718781 
L 362.582413 384.446321 
L 362.991943 384.461669 
L 363.401474 384.222534 
L 363.811005 384.228939 
L 364.220535 384.683574 
L 364.630066 384.726874 
L 365.039596 385.105141 
L 365.449127 385.299965 
L 365.858657 384.711617 
L 366.268188 384.80261 
L 366.677718 385.009819 
L 367.087249 385.033681 
L 367.496779 385.21544 
L 367.90631 385.08729 
L 369.544432 385.134393 
L 369.953963 385.733919 
L 370.363493 385.419762 
L 370.773024 385.449275 
L 371.182554 385.334619 
L 372.001615 385.413196 
L 373.230207 385.417837 
L 373.639738 385.455979 
L 374.049268 385.276307 
L 374.458799 385.524059 
L 374.868329 385.486407 
L 375.27786 385.606673 
L 375.68739 385.604245 
L 376.096921 385.739858 
L 376.506451 385.756475 
L 376.915982 385.634793 
L 377.735043 385.523636 
L 378.144573 385.780964 
L 378.963635 385.909941 
L 379.373165 385.892444 
L 380.192226 385.254436 
L 380.601757 385.081624 
L 381.420818 385.091879 
L 382.239879 385.006478 
L 382.649409 385.001426 
L 383.05894 384.766899 
L 383.46847 384.766814 
L 385.516123 385.42004 
L 386.335184 385.090061 
L 386.744715 385.064921 
L 387.154245 385.172499 
L 387.563776 385.102126 
L 387.973306 385.14909 
L 388.382837 385.021302 
L 388.792367 385.009976 
L 389.201898 384.711295 
L 389.611429 384.64639 
L 390.020959 385.011906 
L 390.43049 385.138486 
L 391.249551 385.22995 
L 392.068612 385.342553 
L 392.478142 385.490033 
L 392.887673 385.409491 
L 393.297203 385.691139 
L 394.116265 385.723039 
L 394.525795 385.61272 
L 394.935326 384.7456 
L 395.344856 384.508255 
L 395.754387 384.532576 
L 396.163917 384.023965 
L 397.392509 383.920037 
L 397.802039 383.470676 
L 398.6211 383.40395 
L 399.030631 384.180268 
L 399.440162 384.373991 
L 399.849692 384.37909 
L 400.259223 384.999067 
L 401.487814 385.229877 
L 401.897345 385.680164 
L 403.125936 385.91147 
L 403.535467 385.669129 
L 405.99265 385.36353 
L 406.402181 385.411765 
L 407.221242 385.006285 
L 409.268894 384.782323 
L 410.087956 384.301534 
L 410.497486 384.306566 
L 411.316547 384.686947 
L 411.726078 383.927701 
L 412.954669 384.112328 
L 413.3642 384.095048 
L 413.77373 384.427584 
L 415.002322 384.332865 
L 415.411853 384.245749 
L 415.821383 385.353009 
L 417.459505 385.526336 
L 418.278566 385.547164 
L 418.688097 385.323156 
L 419.916689 385.525458 
L 420.73575 385.115564 
L 421.964341 385.046753 
L 422.783402 385.370266 
L 423.602463 385.22592 
L 424.011994 385.009906 
L 424.831055 385.388551 
L 425.650116 385.432293 
L 426.469177 384.479079 
L 428.107299 384.769415 
L 428.51683 384.687186 
L 428.92636 383.648066 
L 429.335891 383.62854 
L 429.745422 383.363492 
L 430.564483 384.399072 
L 430.974013 384.396039 
L 431.793074 383.355458 
L 432.202605 383.47058 
L 432.612135 383.443586 
L 433.021666 384.086327 
L 433.840727 383.257107 
L 434.250257 382.279479 
L 434.659788 381.911761 
L 435.069319 381.831529 
L 435.88838 382.748097 
L 436.707441 382.431941 
L 437.116971 382.803721 
L 437.526502 382.608073 
L 437.936032 383.287873 
L 438.345563 384.20017 
L 439.164624 384.391093 
L 439.574154 384.500701 
L 439.983685 384.439814 
L 440.393216 384.506368 
L 440.802746 384.712531 
L 441.212277 384.74206 
L 441.621807 385.033246 
L 444.488521 385.230392 
L 445.307582 385.328137 
L 445.717113 385.593115 
L 446.126643 385.284268 
L 446.536174 385.325822 
L 446.945704 385.677389 
L 448.174296 385.678794 
L 448.583826 385.380888 
L 449.812418 385.408238 
L 450.221949 385.674104 
L 451.860071 385.643283 
L 452.269601 385.509478 
L 452.679132 385.83003 
L 453.088662 385.773362 
L 453.498193 385.511792 
L 455.955376 385.571488 
L 456.364907 385.700919 
L 456.774437 385.583334 
L 457.183968 385.612968 
L 457.593498 385.870685 
L 458.003029 385.743242 
L 459.641151 385.747128 
L 461.279273 385.75207 
L 461.688804 385.633036 
L 462.098334 385.77541 
L 464.555517 385.865648 
L 465.374578 385.967879 
L 465.784109 386.104854 
L 466.60317 386.027899 
L 467.831762 385.988151 
L 471.108006 386.114048 
L 472.746128 385.987352 
L 475.612842 385.625038 
L 476.022373 385.360299 
L 476.431903 384.931608 
L 476.841434 384.732662 
L 479.298617 384.821733 
L 479.708147 384.801487 
L 480.117678 385.040122 
L 480.527208 385.473409 
L 480.936739 385.691203 
L 482.984392 385.711587 
L 483.393922 385.847744 
L 484.212983 385.783436 
L 485.032044 385.796325 
L 487.489228 385.767403 
L 487.898758 385.990296 
L 489.12735 386.005603 
L 489.53688 385.768414 
L 490.765472 385.689627 
L 491.175003 385.646225 
L 492.403594 384.6577 
L 493.632186 384.242644 
L 494.451247 384.316016 
L 495.679838 383.91688 
L 496.089369 384.343424 
L 496.90843 384.248974 
L 497.317961 384.406829 
L 497.727491 384.765341 
L 498.546552 384.756416 
L 499.365613 385.102769 
L 499.775144 385.528447 
L 500.184674 385.349208 
L 500.594205 385.588354 
L 501.822797 385.547031 
L 502.641858 385.510868 
L 505.508571 385.62858 
L 507.146694 385.557022 
L 507.965755 385.605609 
L 511.241999 385.724113 
L 512.470591 385.626751 
L 513.289652 385.542042 
L 514.108713 385.756036 
L 515.337304 385.723086 
L 515.746835 385.624314 
L 516.975427 385.814505 
L 517.384957 385.614436 
L 519.43261 385.410698 
L 520.251671 385.510925 
L 520.661201 385.507246 
L 521.070732 385.273978 
L 521.480262 385.472355 
L 521.889793 385.403216 
L 522.299324 385.539848 
L 523.118385 385.495849 
L 523.527915 385.621577 
L 524.756507 385.671861 
L 525.166037 385.9396 
L 526.394629 386.078016 
L 527.21369 386.189481 
L 529.261343 386.099473 
L 530.080404 385.799007 
L 530.899465 385.733653 
L 532.537587 385.682105 
L 533.766179 385.812259 
L 534.175709 385.952145 
L 534.99477 385.946529 
L 535.813831 386.000937 
L 536.223362 385.630859 
L 537.042423 385.624976 
L 537.451954 385.437216 
L 539.909137 385.348646 
L 540.318667 385.738648 
L 541.137728 385.764368 
L 541.547259 386.01103 
L 541.95679 385.84239 
L 542.775851 385.800103 
L 544.413973 385.729254 
L 545.642564 385.732733 
L 546.052095 385.870789 
L 547.280687 385.697119 
L 548.509278 385.845964 
L 549.73787 385.860232 
L 550.1474 384.842526 
L 550.966461 385.046181 
L 551.375992 384.787455 
L 553.423645 384.85515 
L 553.833175 384.408339 
L 554.242706 384.995497 
L 554.652236 385.003393 
L 555.061767 384.413914 
L 555.880828 384.568918 
L 556.699889 384.303328 
L 557.109419 384.263789 
L 557.51895 383.879097 
L 557.928481 384.310805 
L 558.338011 384.450886 
L 558.747542 384.089548 
L 559.157072 384.674068 
L 559.566603 384.775015 
L 559.976133 384.739332 
L 560.385664 384.86497 
L 560.795194 384.478313 
L 561.204725 384.480845 
L 561.614255 384.786331 
L 562.023786 384.7634 
L 562.433317 385.0344 
L 563.661908 385.066545 
L 564.071439 384.834129 
L 564.480969 384.829998 
L 564.8905 385.175976 
L 565.30003 385.056031 
L 567.757214 385.39244 
L 568.166744 385.679759 
L 568.985805 385.766414 
L 569.395336 385.892715 
L 571.442988 385.929326 
L 571.852519 385.709186 
L 574.719233 385.455705 
L 575.538294 385.353596 
L 575.947824 385.517154 
L 577.176416 385.523493 
L 578.405008 385.718878 
L 580.45266 386.018004 
L 582.090782 386.050359 
L 582.500313 385.830372 
L 583.319374 385.872522 
L 584.547966 385.801075 
L 588.233741 386.076594 
L 589.871863 385.970453 
L 591.919515 385.876601 
L 592.329046 385.488249 
L 594.376699 385.491523 
L 594.786229 384.638609 
L 595.19576 384.640216 
L 595.60529 384.470722 
L 596.014821 384.449358 
L 596.424351 384.834744 
L 598.472004 384.921068 
L 598.881535 385.801053 
L 606.662615 385.811227 
L 607.072145 385.768889 
L 607.891206 385.862108 
L 610.34839 385.89253 
L 610.75792 385.757119 
L 613.215103 385.749333 
L 614.443695 385.70441 
L 614.853226 385.865412 
L 615.672287 385.759137 
L 616.900878 385.564752 
L 617.310409 385.719249 
L 618.948531 385.810258 
L 619.358062 385.953579 
L 619.767592 385.814431 
L 620.177123 385.82418 
L 620.586653 385.974696 
L 621.405714 385.904921 
L 622.224775 385.476981 
L 623.043836 385.479173 
L 623.453367 384.820054 
L 623.862898 384.938581 
L 624.681959 384.580842 
L 625.091489 384.625988 
L 625.50102 383.995122 
L 626.320081 384.370323 
L 627.139142 384.217533 
L 627.548672 384.83072 
L 627.958203 384.818255 
L 628.367733 385.09256 
L 628.777264 384.983464 
L 629.186795 384.989924 
L 629.596325 385.594766 
L 631.234447 385.81404 
L 631.643978 385.709896 
L 634.101161 385.780719 
L 635.329753 385.790956 
L 635.739283 385.94551 
L 637.377405 386.029246 
L 637.786936 385.051862 
L 641.472711 384.735627 
L 641.882241 385.343614 
L 643.520363 385.471127 
L 643.929894 384.753874 
L 644.339425 384.377624 
L 644.748955 384.547703 
L 645.158486 384.525637 
L 645.568016 384.225005 
L 645.977547 384.655765 
L 647.206138 384.576742 
L 647.615669 384.595639 
L 648.025199 385.302945 
L 648.43473 385.734041 
L 649.253791 385.664528 
L 649.663322 385.937903 
L 650.891913 385.819952 
L 651.301444 385.789178 
L 651.710974 385.578261 
L 654.987219 385.649198 
L 655.396749 385.577617 
L 655.80628 385.743322 
L 656.625341 385.70767 
L 657.853932 385.580127 
L 658.672993 385.62403 
L 659.082524 385.386561 
L 659.492055 385.485502 
L 659.901585 385.464539 
L 660.720646 385.229623 
L 661.130177 384.889094 
L 661.949238 384.878647 
L 662.358768 384.800761 
L 662.768299 384.593859 
L 663.177829 384.884192 
L 664.406421 385.011727 
L 664.815952 385.171742 
L 665.225482 385.556152 
L 665.635013 385.488651 
L 668.092196 385.690189 
L 668.911257 385.596066 
L 669.730318 385.602441 
L 670.139849 385.5321 
L 670.95891 385.614039 
L 673.825623 385.829098 
L 674.235154 385.500185 
L 675.463746 385.461959 
L 677.101868 385.479229 
L 677.511398 385.071558 
L 677.920929 384.932751 
L 678.330459 385.221432 
L 678.73999 384.998939 
L 679.559051 385.067864 
L 679.968582 384.297051 
L 681.197173 384.34983 
L 681.606704 384.184215 
L 682.835295 384.539669 
L 683.654356 384.43923 
L 684.063887 385.122637 
L 684.473417 384.682761 
L 684.882948 384.643734 
L 685.292479 384.213571 
L 685.702009 384.824157 
L 686.52107 384.773103 
L 688.159192 384.931371 
L 688.568723 385.349774 
L 688.978253 385.332664 
L 689.387784 385.666184 
L 691.435437 385.720414 
L 692.254498 385.714866 
L 693.073559 385.787854 
L 693.483089 385.873468 
L 694.30215 385.81098 
L 694.711681 385.603754 
L 695.121212 385.53971 
L 695.940273 385.618007 
L 698.397456 385.577457 
L 698.806986 385.864288 
L 700.854639 385.910542 
L 704.540414 386.05195 
L 705.359475 386.014985 
L 706.997597 386.039373 
L 709.04525 385.936698 
L 709.864311 385.079825 
L 710.273841 384.837079 
L 710.683372 383.871475 
L 711.502433 383.926222 
L 713.140555 383.814484 
L 714.369147 384.783376 
L 714.778677 385.606437 
L 716.4168 385.646781 
L 716.82633 385.754239 
L 717.235861 385.744379 
L 718.054922 385.863382 
L 718.464452 383.889493 
L 718.873983 384.027304 
L 719.283513 383.716384 
L 719.693044 383.608555 
L 720.512105 383.575315 
L 722.150227 382.644426 
L 722.559758 384.609317 
L 722.969288 384.611316 
L 723.378819 384.871889 
L 723.788349 384.450496 
L 725.016941 384.736941 
L 726.245533 385.44189 
L 726.655063 385.42868 
L 727.474124 384.945727 
L 727.883655 385.4407 
L 728.702716 385.361203 
L 729.521777 385.40234 
L 730.750369 385.279838 
L 731.97896 385.679632 
L 733.207552 385.571276 
L 734.436143 385.548944 
L 737.712388 385.788034 
L 738.121918 385.599876 
L 738.531449 385.570326 
L 738.940979 385.422663 
L 740.579101 385.352055 
L 740.988632 385.035937 
L 741.807693 385.159981 
L 742.217224 385.407633 
L 744.674407 385.615109 
L 745.083937 385.96368 
L 745.493468 385.854735 
L 747.13159 385.85559 
L 749.179243 385.927446 
L 749.588773 386.066671 
L 750.817365 386.116549 
L 751.226896 386.241818 
L 752.045957 386.21485 
L 756.550793 386.142356 
L 756.960323 385.132415 
L 759.007976 385.084147 
L 759.417506 384.978245 
L 759.827037 384.511097 
L 760.236567 384.302814 
L 760.646098 384.236183 
L 761.055628 385.205863 
L 761.87469 385.175273 
L 762.693751 385.074736 
L 763.512812 385.171063 
L 763.922342 385.633486 
L 764.741403 385.850667 
L 765.150934 385.855517 
L 765.969995 385.55575 
L 766.789056 385.630088 
L 768.017648 385.677023 
L 769.246239 385.702462 
L 770.0653 385.968329 
L 774.979667 385.723626 
L 775.389197 385.56993 
L 776.617789 385.672236 
L 777.43685 385.394434 
L 777.846381 385.544095 
L 778.665442 385.407255 
L 779.074972 385.436505 
L 779.484503 385.637797 
L 780.303564 385.639392 
L 781.532155 385.933626 
L 782.351217 385.623656 
L 785.627461 385.477499 
L 786.856052 385.724558 
L 788.084644 385.735493 
L 788.494175 385.890668 
L 789.722766 385.794179 
L 791.360888 385.851971 
L 791.770419 385.4507 
L 792.999011 385.422473 
L 795.046663 385.590962 
L 795.456194 385.646065 
L 795.865724 385.983777 
L 796.275255 386.010954 
L 796.684785 385.691691 
L 797.503847 385.585319 
L 798.322908 385.46131 
L 800.37056 385.353902 
L 800.780091 385.723252 
L 801.189621 385.742156 
L 801.599152 385.890271 
L 802.008682 385.875551 
L 802.827744 386.018872 
L 806.103988 386.110026 
L 806.923049 386.008072 
L 808.970702 386.009097 
L 810.199293 385.657372 
L 810.608824 385.775706 
L 812.246946 385.447757 
L 812.656477 385.239304 
L 813.066007 385.1664 
L 813.475538 385.343262 
L 813.885068 385.336023 
L 814.294599 385.545699 
L 814.704129 385.507262 
L 816.342251 385.789034 
L 816.751782 386.007663 
L 817.161312 385.439796 
L 817.980374 385.479949 
L 818.389904 385.101756 
L 818.799435 385.050226 
L 819.208965 384.404448 
L 820.847087 384.281921 
L 821.256618 384.924893 
L 821.666148 384.755495 
L 822.075679 384.708057 
L 822.485209 385.069453 
L 822.89474 385.146912 
L 823.304271 385.729095 
L 823.713801 385.599266 
L 824.532862 385.655301 
L 825.761454 385.539459 
L 826.580515 385.593884 
L 826.990045 385.390583 
L 828.628168 385.547481 
L 829.037698 385.287709 
L 829.447229 385.444082 
L 829.856759 385.294247 
L 830.26629 385.015067 
L 830.67582 384.998915 
L 831.085351 385.172769 
L 831.494881 385.184435 
L 831.904412 384.353432 
L 832.313942 384.409378 
L 832.723473 384.345662 
L 833.133004 384.46058 
L 833.542534 384.272434 
L 834.361595 384.726767 
L 835.180656 384.726098 
L 835.590187 384.635271 
L 835.999717 385.47388 
L 836.409248 385.286665 
L 836.818778 384.769953 
L 837.228309 384.533046 
L 837.637839 384.6896 
L 838.866431 384.396297 
L 839.685492 384.175962 
L 840.504553 384.165931 
L 841.323614 385.149771 
L 842.552206 385.190608 
L 843.371267 385.563449 
L 843.780798 385.631636 
L 844.190328 385.472888 
L 844.599859 385.664316 
L 845.41892 385.581334 
L 847.466572 385.681956 
L 848.285634 385.978594 
L 848.695164 385.694247 
L 849.514225 385.79049 
L 851.561878 385.787816 
L 851.971408 385.585167 
L 852.380939 385.57779 
L 852.790469 385.863879 
L 852.790469 385.863879 
" clip-path="url(#p9932f360b4)" style="fill: none; stroke-dasharray: 7.4,3.2; stroke-dashoffset: 0; stroke: #000000; stroke-width: 2"/>
   </g>
   <g id="patch_3">
    <path d="M 41.92 404.12 
L 41.92 10.8 
" style="fill: none; stroke: #000000; stroke-width: 0.8; stroke-linejoin: miter; stroke-linecap: square"/>
   </g>
   <g id="patch_4">
    <path d="M 853.2 404.12 
L 853.2 10.8 
" style="fill: none; stroke: #000000; stroke-width: 0.8; stroke-linejoin: miter; stroke-linecap: square"/>
   </g>
   <g id="patch_5">
    <path d="M 41.92 404.12 
L 853.2 404.12 
" style="fill: none; stroke: #000000; stroke-width: 0.8; stroke-linejoin: miter; stroke-linecap: square"/>
   </g>
   <g id="patch_6">
    <path d="M 41.92 10.8 
L 853.2 10.8 
" style="fill: none; stroke: #000000; stroke-width: 0.8; stroke-linejoin: miter; stroke-linecap: square"/>
   </g>
  </g>
 </g>
 <defs>
  <clipPath id="p9932f360b4">
   <rect x="41.92" y="10.8" width="811.28" height="393.32"/>
  </clipPath>
 </defs>
</svg>
