<?xml version="1.0" encoding="utf-8" standalone="no"?>
<!DOCTYPE svg PUBLIC "-//W3C//DTD SVG 1.1//EN"
  "http://www.w3.org/Graphics/SVG/1.1/DTD/svg11.dtd">
<svg xmlns:xlink="http://www.w3.org/1999/xlink" width="864pt" height="432pt" viewBox="0 0 864 432" xmlns="http://www.w3.org/2000/svg" version="1.1">
 <metadata>
  <rdf:RDF xmlns:dc="http://purl.org/dc/elements/1.1/" xmlns:cc="http://creativecommons.org/ns#" xmlns:rdf="http://www.w3.org/1999/02/22-rdf-syntax-ns#">
   <cc:Work>
    <dc:type rdf:resource="http://purl.org/dc/dcmitype/StillImage"/>
    <dc:date>2024-09-18T20:38:11.729919</dc:date>
    <dc:format>image/svg+xml</dc:format>
    <dc:creator>
     <cc:Agent>
      <dc:title>Matplotlib v3.9.2, https://matplotlib.org/</dc:title>
     </cc:Agent>
    </dc:creator>
   </cc:Work>
  </rdf:RDF>
 </metadata>
 <defs>
  <style type="text/css">*{stroke-linejoin: round; stroke-linecap: butt}</style>
 </defs>
 <g id="figure_1">
  <g id="patch_1">
   <path d="M 0 432 
L 864 432 
L 864 0 
L 0 0 
z
" style="fill: #ffffff"/>
  </g>
  <g id="axes_1">
   <g id="patch_2">
    <path d="M 41.92 404.12 
L 853.2 404.12 
L 853.2 10.8 
L 41.92 10.8 
z
" style="fill: #ffffff"/>
   </g>
   <g id="matplotlib.axis_1">
    <g id="xtick_1">
     <g id="line2d_1">
      <defs>
       <path id="m62eb2e7044" d="M 0 0 
L 0 3.5 
" style="stroke: #000000; stroke-width: 0.8"/>
      </defs>
      <g>
       <use xlink:href="#m62eb2e7044" x="175.27364" y="404.12" style="stroke: #000000; stroke-width: 0.8"/>
      </g>
     </g>
     <g id="text_1">
      <!-- 500 -->
      <g transform="translate(166.243171 418.771563) scale(0.1 -0.1)">
       <defs>
        <path id="DejaVuSansMono-35" d="M 647 4666 
L 3009 4666 
L 3009 4134 
L 1222 4134 
L 1222 2988 
Q 1356 3038 1492 3061 
Q 1628 3084 1766 3084 
Q 2491 3084 2916 2656 
Q 3341 2228 3341 1497 
Q 3341 759 2895 334 
Q 2450 -91 1678 -91 
Q 1306 -91 998 -41 
Q 691 9 447 109 
L 447 750 
Q 734 594 1025 517 
Q 1316 441 1619 441 
Q 2141 441 2423 716 
Q 2706 991 2706 1497 
Q 2706 1997 2414 2275 
Q 2122 2553 1600 2553 
Q 1347 2553 1106 2495 
Q 866 2438 647 2322 
L 647 4666 
z
" transform="scale(0.015625)"/>
        <path id="DejaVuSansMono-30" d="M 1509 2344 
Q 1509 2516 1629 2641 
Q 1750 2766 1919 2766 
Q 2094 2766 2219 2641 
Q 2344 2516 2344 2344 
Q 2344 2169 2220 2047 
Q 2097 1925 1919 1925 
Q 1744 1925 1626 2044 
Q 1509 2163 1509 2344 
z
M 1925 4250 
Q 1484 4250 1267 3775 
Q 1050 3300 1050 2328 
Q 1050 1359 1267 884 
Q 1484 409 1925 409 
Q 2369 409 2586 884 
Q 2803 1359 2803 2328 
Q 2803 3300 2586 3775 
Q 2369 4250 1925 4250 
z
M 1925 4750 
Q 2672 4750 3055 4137 
Q 3438 3525 3438 2328 
Q 3438 1134 3055 521 
Q 2672 -91 1925 -91 
Q 1178 -91 797 521 
Q 416 1134 416 2328 
Q 416 3525 797 4137 
Q 1178 4750 1925 4750 
z
" transform="scale(0.015625)"/>
       </defs>
       <use xlink:href="#DejaVuSansMono-35"/>
       <use xlink:href="#DejaVuSansMono-30" x="60.205078"/>
       <use xlink:href="#DejaVuSansMono-30" x="120.410156"/>
      </g>
     </g>
    </g>
    <g id="xtick_2">
     <g id="line2d_2">
      <g>
       <use xlink:href="#m62eb2e7044" x="311.348782" y="404.12" style="stroke: #000000; stroke-width: 0.8"/>
      </g>
     </g>
     <g id="text_2">
      <!-- 1000 -->
      <g transform="translate(299.308157 418.771563) scale(0.1 -0.1)">
       <defs>
        <path id="DejaVuSansMono-31" d="M 844 531 
L 1825 531 
L 1825 4097 
L 769 3859 
L 769 4434 
L 1819 4666 
L 2450 4666 
L 2450 531 
L 3419 531 
L 3419 0 
L 844 0 
L 844 531 
z
" transform="scale(0.015625)"/>
       </defs>
       <use xlink:href="#DejaVuSansMono-31"/>
       <use xlink:href="#DejaVuSansMono-30" x="60.205078"/>
       <use xlink:href="#DejaVuSansMono-30" x="120.410156"/>
       <use xlink:href="#DejaVuSansMono-30" x="180.615234"/>
      </g>
     </g>
    </g>
    <g id="xtick_3">
     <g id="line2d_3">
      <g>
       <use xlink:href="#m62eb2e7044" x="447.423925" y="404.12" style="stroke: #000000; stroke-width: 0.8"/>
      </g>
     </g>
     <g id="text_3">
      <!-- 1500 -->
      <g transform="translate(435.3833 418.771563) scale(0.1 -0.1)">
       <use xlink:href="#DejaVuSansMono-31"/>
       <use xlink:href="#DejaVuSansMono-35" x="60.205078"/>
       <use xlink:href="#DejaVuSansMono-30" x="120.410156"/>
       <use xlink:href="#DejaVuSansMono-30" x="180.615234"/>
      </g>
     </g>
    </g>
    <g id="xtick_4">
     <g id="line2d_4">
      <g>
       <use xlink:href="#m62eb2e7044" x="583.499067" y="404.12" style="stroke: #000000; stroke-width: 0.8"/>
      </g>
     </g>
     <g id="text_4">
      <!-- 2000 -->
      <g transform="translate(571.458442 418.771563) scale(0.1 -0.1)">
       <defs>
        <path id="DejaVuSansMono-32" d="M 1166 531 
L 3309 531 
L 3309 0 
L 475 0 
L 475 531 
Q 1059 1147 1496 1619 
Q 1934 2091 2100 2284 
Q 2413 2666 2522 2902 
Q 2631 3138 2631 3384 
Q 2631 3775 2401 3997 
Q 2172 4219 1772 4219 
Q 1488 4219 1175 4116 
Q 863 4013 513 3803 
L 513 4441 
Q 834 4594 1145 4672 
Q 1456 4750 1759 4750 
Q 2444 4750 2861 4386 
Q 3278 4022 3278 3431 
Q 3278 3131 3139 2831 
Q 3000 2531 2688 2169 
Q 2513 1966 2180 1606 
Q 1847 1247 1166 531 
z
" transform="scale(0.015625)"/>
       </defs>
       <use xlink:href="#DejaVuSansMono-32"/>
       <use xlink:href="#DejaVuSansMono-30" x="60.205078"/>
       <use xlink:href="#DejaVuSansMono-30" x="120.410156"/>
       <use xlink:href="#DejaVuSansMono-30" x="180.615234"/>
      </g>
     </g>
    </g>
    <g id="xtick_5">
     <g id="line2d_5">
      <g>
       <use xlink:href="#m62eb2e7044" x="719.57421" y="404.12" style="stroke: #000000; stroke-width: 0.8"/>
      </g>
     </g>
     <g id="text_5">
      <!-- 2500 -->
      <g transform="translate(707.533585 418.771563) scale(0.1 -0.1)">
       <use xlink:href="#DejaVuSansMono-32"/>
       <use xlink:href="#DejaVuSansMono-35" x="60.205078"/>
       <use xlink:href="#DejaVuSansMono-30" x="120.410156"/>
       <use xlink:href="#DejaVuSansMono-30" x="180.615234"/>
      </g>
     </g>
    </g>
   </g>
   <g id="matplotlib.axis_2">
    <g id="ytick_1">
     <g id="line2d_6">
      <defs>
       <path id="m17c254159a" d="M 0 0 
L -3.5 0 
" style="stroke: #000000; stroke-width: 0.8"/>
      </defs>
      <g>
       <use xlink:href="#m17c254159a" x="41.92" y="386.389793" style="stroke: #000000; stroke-width: 0.8"/>
      </g>
     </g>
     <g id="text_6">
      <!-- 0.00 -->
      <g transform="translate(10.83875 390.215575) scale(0.1 -0.1)">
       <defs>
        <path id="DejaVuSansMono-2e" d="M 1528 953 
L 2316 953 
L 2316 0 
L 1528 0 
L 1528 953 
z
" transform="scale(0.015625)"/>
       </defs>
       <use xlink:href="#DejaVuSansMono-30"/>
       <use xlink:href="#DejaVuSansMono-2e" x="60.205078"/>
       <use xlink:href="#DejaVuSansMono-30" x="120.410156"/>
       <use xlink:href="#DejaVuSansMono-30" x="180.615234"/>
      </g>
     </g>
    </g>
    <g id="ytick_2">
     <g id="line2d_7">
      <g>
       <use xlink:href="#m17c254159a" x="41.92" y="327.625169" style="stroke: #000000; stroke-width: 0.8"/>
      </g>
     </g>
     <g id="text_7">
      <!-- 0.02 -->
      <g transform="translate(10.83875 331.45095) scale(0.1 -0.1)">
       <use xlink:href="#DejaVuSansMono-30"/>
       <use xlink:href="#DejaVuSansMono-2e" x="60.205078"/>
       <use xlink:href="#DejaVuSansMono-30" x="120.410156"/>
       <use xlink:href="#DejaVuSansMono-32" x="180.615234"/>
      </g>
     </g>
    </g>
    <g id="ytick_3">
     <g id="line2d_8">
      <g>
       <use xlink:href="#m17c254159a" x="41.92" y="268.860544" style="stroke: #000000; stroke-width: 0.8"/>
      </g>
     </g>
     <g id="text_8">
      <!-- 0.04 -->
      <g transform="translate(10.83875 272.686326) scale(0.1 -0.1)">
       <defs>
        <path id="DejaVuSansMono-34" d="M 2297 4091 
L 825 1625 
L 2297 1625 
L 2297 4091 
z
M 2194 4666 
L 2925 4666 
L 2925 1625 
L 3547 1625 
L 3547 1113 
L 2925 1113 
L 2925 0 
L 2297 0 
L 2297 1113 
L 319 1113 
L 319 1709 
L 2194 4666 
z
" transform="scale(0.015625)"/>
       </defs>
       <use xlink:href="#DejaVuSansMono-30"/>
       <use xlink:href="#DejaVuSansMono-2e" x="60.205078"/>
       <use xlink:href="#DejaVuSansMono-30" x="120.410156"/>
       <use xlink:href="#DejaVuSansMono-34" x="180.615234"/>
      </g>
     </g>
    </g>
    <g id="ytick_4">
     <g id="line2d_9">
      <g>
       <use xlink:href="#m17c254159a" x="41.92" y="210.09592" style="stroke: #000000; stroke-width: 0.8"/>
      </g>
     </g>
     <g id="text_9">
      <!-- 0.06 -->
      <g transform="translate(10.83875 213.921701) scale(0.1 -0.1)">
       <defs>
        <path id="DejaVuSansMono-36" d="M 3097 4563 
L 3097 3981 
Q 2900 4097 2678 4158 
Q 2456 4219 2216 4219 
Q 1616 4219 1306 3767 
Q 997 3316 997 2438 
Q 1147 2750 1412 2917 
Q 1678 3084 2022 3084 
Q 2697 3084 3067 2670 
Q 3438 2256 3438 1497 
Q 3438 741 3056 325 
Q 2675 -91 1984 -91 
Q 1172 -91 794 492 
Q 416 1075 416 2328 
Q 416 3509 870 4129 
Q 1325 4750 2188 4750 
Q 2419 4750 2650 4701 
Q 2881 4653 3097 4563 
z
M 1972 2591 
Q 1569 2591 1337 2300 
Q 1106 2009 1106 1497 
Q 1106 984 1337 693 
Q 1569 403 1972 403 
Q 2391 403 2603 679 
Q 2816 956 2816 1497 
Q 2816 2041 2603 2316 
Q 2391 2591 1972 2591 
z
" transform="scale(0.015625)"/>
       </defs>
       <use xlink:href="#DejaVuSansMono-30"/>
       <use xlink:href="#DejaVuSansMono-2e" x="60.205078"/>
       <use xlink:href="#DejaVuSansMono-30" x="120.410156"/>
       <use xlink:href="#DejaVuSansMono-36" x="180.615234"/>
      </g>
     </g>
    </g>
    <g id="ytick_5">
     <g id="line2d_10">
      <g>
       <use xlink:href="#m17c254159a" x="41.92" y="151.331295" style="stroke: #000000; stroke-width: 0.8"/>
      </g>
     </g>
     <g id="text_10">
      <!-- 0.08 -->
      <g transform="translate(10.83875 155.157076) scale(0.1 -0.1)">
       <defs>
        <path id="DejaVuSansMono-38" d="M 1925 2216 
Q 1503 2216 1273 1980 
Q 1044 1744 1044 1313 
Q 1044 881 1276 642 
Q 1509 403 1925 403 
Q 2350 403 2579 639 
Q 2809 875 2809 1313 
Q 2809 1741 2576 1978 
Q 2344 2216 1925 2216 
z
M 1375 2478 
Q 972 2581 745 2862 
Q 519 3144 519 3541 
Q 519 4097 897 4423 
Q 1275 4750 1925 4750 
Q 2578 4750 2956 4423 
Q 3334 4097 3334 3541 
Q 3334 3144 3107 2862 
Q 2881 2581 2478 2478 
Q 2947 2375 3195 2062 
Q 3444 1750 3444 1253 
Q 3444 622 3041 265 
Q 2638 -91 1925 -91 
Q 1213 -91 811 264 
Q 409 619 409 1247 
Q 409 1747 657 2061 
Q 906 2375 1375 2478 
z
M 1147 3481 
Q 1147 3106 1347 2909 
Q 1547 2713 1925 2713 
Q 2306 2713 2506 2909 
Q 2706 3106 2706 3481 
Q 2706 3863 2507 4063 
Q 2309 4263 1925 4263 
Q 1547 4263 1347 4061 
Q 1147 3859 1147 3481 
z
" transform="scale(0.015625)"/>
       </defs>
       <use xlink:href="#DejaVuSansMono-30"/>
       <use xlink:href="#DejaVuSansMono-2e" x="60.205078"/>
       <use xlink:href="#DejaVuSansMono-30" x="120.410156"/>
       <use xlink:href="#DejaVuSansMono-38" x="180.615234"/>
      </g>
     </g>
    </g>
    <g id="ytick_6">
     <g id="line2d_11">
      <g>
       <use xlink:href="#m17c254159a" x="41.92" y="92.566671" style="stroke: #000000; stroke-width: 0.8"/>
      </g>
     </g>
     <g id="text_11">
      <!-- 0.10 -->
      <g transform="translate(10.83875 96.392452) scale(0.1 -0.1)">
       <use xlink:href="#DejaVuSansMono-30"/>
       <use xlink:href="#DejaVuSansMono-2e" x="60.205078"/>
       <use xlink:href="#DejaVuSansMono-31" x="120.410156"/>
       <use xlink:href="#DejaVuSansMono-30" x="180.615234"/>
      </g>
     </g>
    </g>
    <g id="ytick_7">
     <g id="line2d_12">
      <g>
       <use xlink:href="#m17c254159a" x="41.92" y="33.802046" style="stroke: #000000; stroke-width: 0.8"/>
      </g>
     </g>
     <g id="text_12">
      <!-- 0.12 -->
      <g transform="translate(10.83875 37.627827) scale(0.1 -0.1)">
       <use xlink:href="#DejaVuSansMono-30"/>
       <use xlink:href="#DejaVuSansMono-2e" x="60.205078"/>
       <use xlink:href="#DejaVuSansMono-31" x="120.410156"/>
       <use xlink:href="#DejaVuSansMono-32" x="180.615234"/>
      </g>
     </g>
    </g>
   </g>
   <g id="line2d_13">
    <path d="M 41.64785 87.854587 
L 42.19215 99.521441 
L 42.464301 70.741204 
L 42.736451 69.368879 
L 43.008601 66.671227 
L 43.280751 65.160189 
L 43.552902 88.44751 
L 43.825052 72.778147 
L 44.097202 70.356916 
L 44.369353 39.448348 
L 44.641503 56.655932 
L 44.913653 51.377162 
L 45.185803 78.167023 
L 45.730104 90.851962 
L 46.002254 82.848165 
L 46.274405 90.046443 
L 46.818705 110.486829 
L 47.090855 139.589293 
L 47.907306 158.855325 
L 48.179457 160.534112 
L 48.451607 160.270393 
L 48.723757 167.183355 
L 48.995907 161.945371 
L 49.268058 168.47647 
L 49.540208 170.065136 
L 50.084509 131.008681 
L 50.356659 131.192075 
L 50.628809 126.023233 
L 50.900959 125.559236 
L 51.17311 124.060279 
L 51.71741 136.131671 
L 51.989561 130.448917 
L 52.261711 130.345192 
L 52.533861 146.670879 
L 52.806011 144.020173 
L 53.078162 144.691232 
L 53.350312 143.770512 
L 53.622462 143.969943 
L 53.894613 144.432106 
L 54.166763 144.478952 
L 54.438913 143.751157 
L 54.711063 139.687194 
L 54.983214 140.433472 
L 55.255364 138.234566 
L 55.527514 159.634343 
L 55.799665 157.052592 
L 56.071815 157.272836 
L 56.343965 151.987733 
L 56.616115 148.92684 
L 56.888266 151.174502 
L 57.160416 151.557935 
L 57.432566 158.870108 
L 57.704717 153.910556 
L 57.976867 162.998699 
L 58.249017 154.323196 
L 58.521167 153.852349 
L 58.793318 157.912146 
L 59.065468 133.987369 
L 59.337618 140.111892 
L 60.154069 92.15182 
L 60.426219 97.047897 
L 60.69837 97.50582 
L 60.97052 105.373357 
L 61.514821 113.278535 
L 61.786971 142.938686 
L 62.059121 142.290086 
L 62.603422 169.535873 
L 62.875572 184.673935 
L 63.147722 180.826335 
L 63.692023 178.352888 
L 64.236323 145.229945 
L 64.780624 100.968499 
L 65.052774 101.588636 
L 65.324925 99.075368 
L 65.869225 108.975253 
L 66.141375 109.079297 
L 66.413526 110.218548 
L 66.685676 118.087657 
L 66.957826 118.965192 
L 67.229977 121.778928 
L 67.774277 109.831582 
L 68.046427 112.571826 
L 68.318578 114.126455 
L 68.590728 111.105461 
L 68.862878 111.361231 
L 69.135029 110.958072 
L 69.407179 111.646423 
L 69.679329 110.50678 
L 69.951479 123.15578 
L 70.22363 148.790505 
L 70.49578 137.392615 
L 70.76793 140.538596 
L 71.040081 132.100979 
L 71.312231 134.547741 
L 71.584381 131.198414 
L 71.856531 131.682411 
L 72.128682 136.653664 
L 72.672982 167.003296 
L 72.945133 151.851627 
L 73.217283 145.675075 
L 73.489433 98.874032 
L 73.761583 104.875476 
L 74.033734 76.928229 
L 74.305884 71.630405 
L 74.578034 73.204139 
L 74.850185 70.862757 
L 75.122335 60.428762 
L 75.394485 28.678182 
L 75.938786 51.732882 
L 76.210936 79.467487 
L 76.483086 83.622245 
L 76.755236 111.594065 
L 77.027387 80.424409 
L 77.571687 81.184455 
L 77.843838 89.452903 
L 78.115988 118.549838 
L 78.388138 121.746847 
L 78.932439 154.439528 
L 79.204589 144.688285 
L 79.476739 142.05373 
L 79.74889 182.074594 
L 80.02104 181.513843 
L 80.29319 180.022841 
L 80.837491 186.43043 
L 81.381791 184.152466 
L 81.926092 172.318376 
L 82.198242 170.350724 
L 82.742543 163.891948 
L 83.014693 165.839053 
L 83.286843 165.901122 
L 83.558994 159.299643 
L 83.831144 158.557115 
L 84.103294 158.607479 
L 84.375444 165.928856 
L 84.647595 178.11429 
L 84.919745 178.269612 
L 85.191895 183.480462 
L 85.464046 186.294758 
L 86.008346 172.880539 
L 86.280496 167.574588 
L 86.552647 143.817713 
L 86.824797 130.113962 
L 87.096947 126.187319 
L 87.369098 129.679447 
L 87.641248 135.58638 
L 87.913398 135.741376 
L 88.185548 136.664063 
L 88.457699 146.427671 
L 88.729849 149.763461 
L 89.001999 155.701142 
L 89.5463 195.337097 
L 89.81845 197.326002 
L 90.362751 196.052845 
L 90.634901 190.394294 
L 91.179202 187.584554 
L 91.451352 187.312024 
L 91.723502 193.817482 
L 91.995652 191.645188 
L 92.267803 191.303337 
L 92.539953 190.66984 
L 92.812103 187.666972 
L 93.084254 186.793392 
L 93.356404 192.438887 
L 93.628554 192.299361 
L 93.900704 190.963757 
L 94.172855 186.40353 
L 94.445005 172.494522 
L 94.717155 172.944364 
L 94.989306 172.029434 
L 95.261456 165.917118 
L 95.533606 162.380209 
L 95.805756 155.676802 
L 96.077907 156.347145 
L 96.350057 155.502327 
L 96.622207 156.071468 
L 96.894358 162.941947 
L 97.166508 175.267199 
L 97.438658 177.536289 
L 97.710808 171.445424 
L 98.255109 184.176498 
L 98.527259 190.178324 
L 98.79941 183.421465 
L 99.07156 180.807001 
L 99.34371 175.49806 
L 99.61586 176.217304 
L 99.888011 178.320987 
L 100.160161 179.185268 
L 100.704462 177.674379 
L 100.976612 180.435728 
L 101.520912 171.071712 
L 101.793063 176.75336 
L 102.065213 184.951473 
L 102.609514 168.72771 
L 102.881664 168.614612 
L 103.153814 176.529608 
L 103.698115 142.658484 
L 103.970265 147.230858 
L 104.242415 130.378926 
L 104.514566 129.044195 
L 104.786716 130.463187 
L 105.058866 130.400785 
L 105.875317 118.871595 
L 106.147467 140.434495 
L 106.419618 130.781207 
L 106.691768 131.614608 
L 106.963918 158.613478 
L 107.236068 153.526047 
L 107.508219 144.104992 
L 107.780369 152.471059 
L 108.052519 151.331933 
L 108.59682 158.70049 
L 108.86897 158.833062 
L 109.14112 161.76358 
L 109.413271 149.79365 
L 109.685421 149.603466 
L 110.229722 163.320272 
L 110.501872 165.307591 
L 110.774022 163.638016 
L 111.046172 159.253892 
L 111.318323 159.480724 
L 111.590473 154.359869 
L 111.862623 177.227891 
L 112.134774 184.229868 
L 112.406924 185.485272 
L 112.679074 177.816886 
L 112.951224 180.798885 
L 113.223375 149.343086 
L 113.495525 159.870398 
L 113.767675 165.099453 
L 114.039826 155.547705 
L 114.311976 158.068442 
L 114.584126 158.121652 
L 114.856276 164.717742 
L 115.128427 162.604796 
L 115.400577 157.199152 
L 115.672727 155.56896 
L 115.944878 179.170961 
L 116.217028 180.103339 
L 116.489178 174.86436 
L 116.761328 180.561737 
L 117.033479 165.309861 
L 117.305629 166.557978 
L 117.577779 167.040195 
L 117.84993 168.796859 
L 118.12208 182.098823 
L 118.39423 180.381889 
L 118.66638 187.229378 
L 118.938531 188.772782 
L 119.210681 184.749091 
L 119.482831 187.073993 
L 119.754982 198.126971 
L 120.299282 179.264356 
L 120.571432 179.942991 
L 120.843583 176.949873 
L 121.115733 179.058691 
L 121.387883 178.761347 
L 121.660034 177.164848 
L 121.932184 185.207519 
L 122.476484 192.145759 
L 123.020785 209.523828 
L 123.292935 204.906948 
L 123.565086 208.902207 
L 123.837236 208.801066 
L 124.109386 210.1943 
L 124.381536 213.290514 
L 124.653687 212.53228 
L 124.925837 205.728956 
L 125.470138 203.520182 
L 125.742288 205.595672 
L 126.014438 209.827886 
L 126.286588 208.898027 
L 126.558739 197.503691 
L 126.830889 192.839665 
L 127.103039 192.130826 
L 127.37519 189.249821 
L 127.64734 196.087657 
L 127.91949 200.085628 
L 128.19164 200.277815 
L 128.463791 194.809752 
L 128.735941 194.78881 
L 129.008091 192.623342 
L 129.280242 204.230571 
L 129.552392 209.054129 
L 129.824542 207.555178 
L 130.096692 213.275783 
L 130.368843 213.358441 
L 130.640993 212.887777 
L 130.913143 211.40209 
L 131.185294 217.324443 
L 131.457444 215.521198 
L 131.729594 195.321756 
L 132.001744 193.85011 
L 132.273895 181.822184 
L 132.546045 184.87737 
L 132.818195 183.203252 
L 133.090346 183.13393 
L 133.362496 183.536012 
L 133.634646 184.603991 
L 133.906796 171.74464 
L 134.178947 176.87086 
L 134.451097 188.366423 
L 134.723247 192.191646 
L 134.995398 158.275709 
L 135.267548 157.476962 
L 135.539698 139.909904 
L 135.811848 138.568583 
L 136.083999 139.148515 
L 136.356149 114.361025 
L 136.628299 126.164546 
L 136.90045 109.758655 
L 137.1726 112.475418 
L 137.44475 103.629174 
L 137.7169 147.722797 
L 137.989051 148.230061 
L 138.261201 157.443306 
L 138.533351 146.757348 
L 138.805502 147.303509 
L 139.077652 156.722729 
L 139.621952 128.233436 
L 140.166253 145.049307 
L 140.438403 146.891713 
L 140.710554 138.347644 
L 140.982704 136.141409 
L 141.254854 148.594684 
L 141.527004 147.062831 
L 142.071305 175.500454 
L 142.343455 203.327374 
L 142.615606 204.177518 
L 142.887756 202.290475 
L 143.159906 195.685922 
L 143.704207 207.668065 
L 144.248507 202.555881 
L 144.792808 210.997952 
L 145.337108 200.672576 
L 146.69786 223.575429 
L 146.97001 229.573511 
L 147.24216 228.572604 
L 147.514311 228.922133 
L 148.058611 238.465365 
L 148.330761 229.847172 
L 148.602912 233.821426 
L 148.875062 234.381174 
L 149.147212 234.476956 
L 149.419363 230.353083 
L 149.691513 199.893436 
L 149.963663 195.026754 
L 150.235813 195.137183 
L 150.780114 177.276906 
L 151.052264 183.116959 
L 151.324415 184.776436 
L 151.868715 183.005669 
L 152.140865 178.092278 
L 152.413016 209.18081 
L 152.685166 198.466964 
L 152.957316 198.247571 
L 153.229467 205.666908 
L 153.501617 216.94938 
L 154.045917 215.617965 
L 154.318068 216.447453 
L 154.590218 218.809423 
L 154.862368 226.551696 
L 155.134519 225.674664 
L 155.406669 242.588791 
L 155.678819 242.306126 
L 155.950969 243.193485 
L 156.22312 244.766885 
L 156.49527 249.766526 
L 156.76742 251.197222 
L 157.039571 253.298425 
L 157.311721 232.184634 
L 157.583871 231.963399 
L 157.856021 231.175051 
L 158.128172 232.371169 
L 158.400322 232.088731 
L 158.672472 232.275406 
L 158.944623 232.863538 
L 159.216773 233.06295 
L 159.488923 232.037897 
L 159.761073 233.398818 
L 160.033224 254.759746 
L 160.305374 258.994664 
L 160.577524 256.388865 
L 160.849675 257.564716 
L 161.393975 263.393527 
L 161.666125 261.534327 
L 161.938276 261.291212 
L 162.210426 264.369707 
L 162.482576 259.122142 
L 163.026877 255.288859 
L 163.299027 255.791001 
L 163.571177 256.648718 
L 163.843328 258.752927 
L 164.115478 257.566351 
L 164.387628 258.324685 
L 164.659779 261.441313 
L 164.931929 259.91647 
L 165.204079 266.070993 
L 165.476229 267.687937 
L 166.02053 275.0972 
L 166.564831 272.329283 
L 167.109131 276.534545 
L 167.381281 274.430481 
L 167.653432 277.522984 
L 167.925582 277.851553 
L 168.197732 273.645728 
L 168.469883 273.936518 
L 168.742033 275.100471 
L 169.014183 278.016014 
L 169.286333 278.471697 
L 169.558484 269.149347 
L 169.830634 268.245632 
L 170.102784 271.207957 
L 170.374935 269.932997 
L 170.647085 255.26376 
L 170.919235 262.319308 
L 171.191385 258.336644 
L 171.463536 261.58287 
L 171.735686 257.605942 
L 172.007836 260.14441 
L 172.279987 269.997268 
L 172.552137 272.950582 
L 172.824287 273.15954 
L 173.096437 276.54543 
L 173.368588 294.561064 
L 173.640738 291.891154 
L 173.912888 291.36724 
L 174.185039 290.196577 
L 174.457189 294.646601 
L 174.729339 292.771324 
L 175.001489 294.770522 
L 175.27364 295.939555 
L 175.54579 295.401554 
L 175.81794 296.035449 
L 176.090091 285.859798 
L 176.634391 297.344648 
L 177.450842 304.741292 
L 177.722992 304.905575 
L 177.995143 304.666649 
L 178.267293 305.556119 
L 178.539443 302.698799 
L 178.811593 313.639641 
L 179.083744 309.181827 
L 179.355894 312.449408 
L 179.628044 311.556449 
L 179.900195 311.27563 
L 180.172345 310.200306 
L 180.444495 310.060318 
L 180.988796 314.435199 
L 181.260946 317.919477 
L 181.533096 317.927263 
L 181.805247 322.93506 
L 182.077397 321.207304 
L 182.621697 323.123846 
L 182.893848 323.948229 
L 183.165998 325.953688 
L 183.438148 326.929742 
L 183.710299 326.739108 
L 183.982449 320.57098 
L 184.254599 311.637532 
L 184.526749 306.377047 
L 184.7989 307.826341 
L 185.07105 308.229932 
L 185.3432 309.057765 
L 185.615351 309.516549 
L 185.887501 310.345894 
L 186.159651 303.492463 
L 186.431801 304.575018 
L 187.248252 323.889071 
L 187.520403 324.30299 
L 187.792553 326.023562 
L 188.064703 323.396674 
L 188.336853 325.303423 
L 188.609004 326.018542 
L 188.881154 333.673608 
L 189.153304 332.417476 
L 189.425455 335.18937 
L 189.697605 335.535265 
L 189.969755 338.948421 
L 190.514056 339.682552 
L 190.786206 342.924893 
L 191.058356 342.313708 
L 191.330507 342.121108 
L 191.602657 342.49385 
L 191.874807 345.44652 
L 192.146957 345.519512 
L 192.419108 345.393348 
L 192.691258 346.008144 
L 192.963408 347.629342 
L 193.235559 347.920422 
L 193.507709 348.522017 
L 193.779859 352.891894 
L 194.052009 352.414008 
L 194.32416 352.992408 
L 194.59631 352.646243 
L 194.86846 351.731976 
L 195.140611 354.68173 
L 195.684911 356.096965 
L 195.957061 356.984595 
L 196.229212 358.791824 
L 196.501362 358.564137 
L 196.773512 359.923363 
L 197.045663 360.617288 
L 197.317813 362.103797 
L 197.589963 362.722989 
L 197.862113 363.020461 
L 198.134264 363.039921 
L 198.406414 361.399703 
L 198.678564 361.940318 
L 198.950715 361.107226 
L 199.222865 359.70992 
L 199.495015 359.783538 
L 199.767165 359.090859 
L 200.039316 357.593118 
L 200.311466 358.880416 
L 200.855767 359.90136 
L 201.127917 361.53459 
L 201.400067 354.941237 
L 201.672217 354.914464 
L 202.216518 357.466047 
L 202.488668 357.249584 
L 202.760819 356.213983 
L 203.305119 356.433223 
L 203.577269 356.31703 
L 203.84942 356.958721 
L 204.12157 364.386241 
L 204.39372 365.123088 
L 204.665871 355.712565 
L 204.938021 355.134593 
L 205.210171 356.504934 
L 205.482321 358.71123 
L 205.754472 358.567373 
L 206.026622 358.122674 
L 206.298772 358.519966 
L 206.843073 357.252731 
L 207.115223 357.979349 
L 207.387373 366.725257 
L 207.659524 363.598124 
L 207.931674 363.632611 
L 208.203824 364.29752 
L 208.475975 363.942503 
L 208.748125 364.788871 
L 209.020275 364.198223 
L 209.292425 365.00104 
L 209.564576 362.176794 
L 209.836726 361.271841 
L 210.108876 362.81307 
L 210.381027 366.881565 
L 210.653177 367.152448 
L 210.925327 366.51009 
L 211.197477 356.022619 
L 211.469628 355.349246 
L 211.741778 356.590069 
L 212.013928 356.431537 
L 212.286078 359.074588 
L 212.558229 360.109772 
L 212.830379 360.16479 
L 213.102529 360.425092 
L 213.37468 359.313413 
L 213.64683 359.699774 
L 213.91898 370.925543 
L 214.19113 371.708152 
L 214.463281 367.756524 
L 215.007581 368.488869 
L 215.279732 368.51097 
L 215.551882 368.041326 
L 215.824032 367.22095 
L 216.096182 364.63036 
L 216.640483 365.845919 
L 216.912633 365.844545 
L 217.184784 369.351749 
L 217.456934 369.005139 
L 217.729084 369.059792 
L 218.001234 366.690849 
L 218.273385 366.959262 
L 218.545535 368.043991 
L 218.817685 370.539452 
L 219.089836 369.471635 
L 219.361986 369.290347 
L 219.634136 369.731932 
L 219.906286 369.34157 
L 220.178437 369.785926 
L 220.450587 369.375087 
L 220.722737 371.736883 
L 221.267038 371.419752 
L 221.811338 373.923822 
L 222.083489 374.303112 
L 222.355639 373.950485 
L 222.627789 374.237937 
L 222.89994 372.531182 
L 223.17209 371.532417 
L 223.44424 371.599679 
L 223.71639 371.871984 
L 223.988541 371.670021 
L 224.532841 372.131484 
L 224.804992 369.882963 
L 225.077142 369.751167 
L 225.349292 370.197617 
L 225.893593 373.95112 
L 226.165743 374.405873 
L 226.710044 374.800494 
L 226.982194 374.461702 
L 227.254344 373.564811 
L 227.526494 375.718758 
L 227.798645 375.38306 
L 228.070795 373.309544 
L 228.615096 372.814723 
L 228.887246 371.762622 
L 229.703697 372.41343 
L 229.975847 372.866263 
L 230.247997 370.829401 
L 230.520148 371.806625 
L 230.792298 373.657105 
L 231.064448 372.880629 
L 231.336598 373.156212 
L 231.608749 373.83211 
L 231.880899 373.503808 
L 232.4252 368.880327 
L 232.69735 369.412672 
L 232.9695 371.269562 
L 233.24165 370.515613 
L 233.513801 371.01554 
L 233.785951 371.88878 
L 234.058101 371.445196 
L 234.330252 371.509469 
L 234.602402 371.688843 
L 234.874552 373.190489 
L 235.146702 375.78106 
L 235.418853 375.612437 
L 235.963153 376.557904 
L 236.235304 376.66314 
L 236.507454 376.413461 
L 236.779604 376.452913 
L 237.051754 376.341129 
L 237.868205 376.72119 
L 238.140356 375.186124 
L 238.412506 375.148328 
L 238.684656 375.446312 
L 238.956806 373.439381 
L 239.228957 373.457026 
L 239.501107 373.932437 
L 239.773257 373.787969 
L 240.045408 372.904225 
L 240.317558 373.481548 
L 240.589708 373.499944 
L 240.861858 374.69643 
L 241.134009 374.653312 
L 241.406159 374.297944 
L 241.678309 376.326377 
L 241.95046 376.735463 
L 242.22261 376.306048 
L 242.49476 375.420015 
L 242.76691 376.529038 
L 243.039061 375.10778 
L 243.311211 374.632338 
L 243.583361 375.216915 
L 243.855512 375.3904 
L 244.127662 376.107077 
L 244.399812 375.642556 
L 244.671962 375.729436 
L 244.944113 376.267376 
L 245.216263 378.032235 
L 245.488413 378.167685 
L 245.760564 379.24787 
L 246.032714 379.786693 
L 246.304864 379.377026 
L 246.577014 379.252612 
L 246.849165 378.62522 
L 247.121315 378.778305 
L 247.393465 378.698462 
L 247.665616 373.895265 
L 247.937766 373.81357 
L 248.209916 373.333382 
L 248.482066 373.310686 
L 248.754217 372.455321 
L 249.026367 372.237853 
L 249.298517 371.303412 
L 249.842818 371.827417 
L 250.114968 371.190746 
L 250.387118 376.337056 
L 250.659269 375.899255 
L 250.931419 375.783356 
L 251.203569 375.804298 
L 251.47572 376.34774 
L 252.29217 378.529563 
L 252.564321 378.084362 
L 252.836471 379.087295 
L 253.108621 378.923077 
L 253.380772 379.414638 
L 253.925072 379.01515 
L 254.197222 379.364884 
L 254.741523 379.332613 
L 255.013673 378.608429 
L 255.557974 378.071047 
L 255.830124 377.443993 
L 256.102274 377.115175 
L 256.374425 377.670631 
L 256.646575 377.289182 
L 256.918725 377.182747 
L 257.463026 377.71492 
L 257.735176 378.079363 
L 258.007326 378.075083 
L 258.279477 378.228302 
L 258.823777 378.693362 
L 259.095928 378.846368 
L 259.368078 379.872189 
L 259.912378 379.526765 
L 260.456679 378.762036 
L 260.728829 379.511885 
L 261.27313 377.035222 
L 261.54528 374.491374 
L 262.089581 371.905433 
L 262.633881 372.134538 
L 262.906032 372.00964 
L 263.178182 372.672761 
L 263.450332 372.712739 
L 263.722482 373.612453 
L 263.994633 375.196047 
L 264.266783 377.907779 
L 264.538933 378.826392 
L 264.811084 380.232472 
L 265.083234 380.535865 
L 265.355384 380.468679 
L 265.627534 381.151995 
L 266.171835 380.90574 
L 266.443985 381.098819 
L 266.988286 380.419749 
L 267.260436 380.801956 
L 267.532586 379.539722 
L 267.804737 379.129967 
L 268.076887 378.330713 
L 268.621188 377.554747 
L 268.893338 377.844046 
L 269.165488 377.400132 
L 269.437638 377.470871 
L 269.709789 377.895715 
L 269.981939 377.181034 
L 270.254089 378.518787 
L 270.52624 378.90213 
L 270.79839 379.677901 
L 271.07054 379.843073 
L 271.34269 380.301719 
L 271.614841 380.096529 
L 271.886991 380.477299 
L 272.431292 380.021788 
L 272.703442 380.765384 
L 272.975592 380.443028 
L 273.247742 380.49925 
L 274.064193 379.487955 
L 274.336344 379.583775 
L 275.152794 380.749563 
L 275.424945 379.58005 
L 275.969245 379.431195 
L 276.241396 379.956421 
L 276.785696 380.43609 
L 277.602147 380.393507 
L 277.874297 380.333877 
L 278.146448 381.609903 
L 278.418598 381.975762 
L 278.690748 382.099962 
L 278.962898 382.011925 
L 279.235049 381.277831 
L 279.507199 380.972774 
L 279.779349 380.928222 
L 280.051499 380.61334 
L 280.32365 380.730199 
L 280.5958 380.618239 
L 281.140101 380.668373 
L 281.412251 380.200733 
L 281.684401 380.243202 
L 281.956551 381.252771 
L 282.500852 381.84311 
L 283.045153 381.834639 
L 283.861603 380.230219 
L 284.133754 380.78243 
L 284.678054 380.881074 
L 284.950205 381.052723 
L 285.222355 380.81086 
L 285.494505 381.127678 
L 285.766655 381.081543 
L 286.583106 382.315691 
L 286.855257 381.838683 
L 287.127407 381.75624 
L 287.399557 381.161204 
L 287.671707 381.009752 
L 287.943858 381.154584 
L 289.032459 380.535086 
L 289.304609 380.649816 
L 289.576759 381.053101 
L 289.84891 380.87356 
L 290.39321 381.305699 
L 290.937511 380.999099 
L 291.209661 381.082049 
L 291.481811 381.468503 
L 291.753962 381.00676 
L 292.026112 381.086608 
L 292.298262 380.462474 
L 292.570413 380.818879 
L 292.842563 380.655327 
L 293.114713 379.716617 
L 293.386863 380.160297 
L 293.659014 380.088244 
L 293.931164 380.197073 
L 294.203314 380.543534 
L 294.475465 381.084954 
L 294.747615 381.226776 
L 295.019765 382.016179 
L 295.291915 381.332095 
L 295.564066 381.834332 
L 296.108366 381.427892 
L 296.380517 381.651412 
L 297.196967 380.521367 
L 297.469118 377.262464 
L 297.741268 376.931084 
L 298.013418 377.709651 
L 298.285569 376.375159 
L 298.557719 377.343637 
L 298.829869 377.481163 
L 299.102019 377.4716 
L 300.190621 379.461287 
L 300.462771 379.363556 
L 300.734921 379.049298 
L 301.007071 380.079249 
L 301.279222 380.19125 
L 301.551372 378.824902 
L 301.823522 378.503131 
L 302.095673 378.531379 
L 302.639973 378.267025 
L 302.912123 380.715034 
L 303.184274 381.146271 
L 303.456424 381.248008 
L 304.000725 381.583426 
L 304.272875 382.721815 
L 304.545025 383.293523 
L 304.817175 383.268138 
L 305.089326 382.802291 
L 305.361476 382.667185 
L 305.905777 382.667009 
L 306.722227 381.957975 
L 306.994378 382.112891 
L 307.266528 382.054091 
L 307.538678 381.307509 
L 307.810829 381.732449 
L 308.89943 382.2456 
L 309.17158 382.563628 
L 309.715881 382.727021 
L 309.988031 382.573832 
L 310.260181 383.361733 
L 310.532331 383.646462 
L 311.893083 383.168224 
L 312.165233 383.140695 
L 312.709534 382.082086 
L 312.981684 381.9828 
L 313.253834 381.741646 
L 313.525985 381.940787 
L 314.070285 381.808298 
L 314.886736 380.71828 
L 315.158886 379.775025 
L 315.431037 380.277199 
L 315.703187 380.001441 
L 315.975337 379.989966 
L 316.247487 379.684088 
L 316.519638 379.778592 
L 316.791788 376.251982 
L 317.063938 376.584561 
L 317.336089 376.641497 
L 317.608239 377.394805 
L 317.880389 378.91683 
L 318.69684 379.6512 
L 318.96899 376.05945 
L 319.241141 376.127203 
L 319.513291 379.456874 
L 319.785441 379.818542 
L 320.057591 379.987921 
L 320.329742 379.870972 
L 320.874042 379.425059 
L 321.146193 378.82816 
L 321.418343 378.675988 
L 321.690493 381.759872 
L 321.962643 379.937267 
L 322.234794 380.190033 
L 322.506944 379.783835 
L 322.779094 379.661097 
L 323.051245 379.740399 
L 323.595545 380.07816 
L 323.867695 380.863163 
L 324.139846 379.805237 
L 324.411996 380.448486 
L 324.684146 382.184438 
L 324.956297 382.22593 
L 325.228447 382.77364 
L 325.500597 382.902953 
L 326.317048 382.559768 
L 326.589198 382.53321 
L 326.861349 383.747235 
L 327.133499 383.328449 
L 327.405649 383.30845 
L 327.94995 382.242608 
L 328.2221 382.137242 
L 329.038551 382.626235 
L 329.310701 382.618592 
L 329.582851 382.321466 
L 329.855002 382.802756 
L 330.127152 382.746987 
L 330.399302 383.467064 
L 330.943603 383.85106 
L 331.487903 383.756204 
L 332.032204 383.516467 
L 332.304354 382.492481 
L 332.576505 382.499003 
L 332.848655 382.63029 
L 333.392955 382.593914 
L 333.665106 382.347648 
L 333.937256 382.292542 
L 334.753707 382.724291 
L 335.025857 383.677927 
L 335.298007 383.753051 
L 335.570158 383.70255 
L 335.842308 383.25139 
L 336.114458 383.154577 
L 336.386609 383.422655 
L 337.203059 383.410485 
L 337.47521 383.216594 
L 337.74736 383.421408 
L 338.01951 382.914519 
L 338.291661 383.017655 
L 338.563811 383.342369 
L 338.835961 383.451293 
L 339.108111 382.927863 
L 339.380262 383.033008 
L 339.652412 382.99233 
L 339.924562 382.816651 
L 340.468863 382.882516 
L 340.741013 383.560774 
L 341.013163 383.361628 
L 341.557464 383.492859 
L 341.829614 383.611837 
L 342.373915 383.674371 
L 342.918215 383.725256 
L 343.190366 383.68902 
L 343.462516 383.416261 
L 344.006817 383.644701 
L 344.278967 383.62795 
L 344.551117 384.043955 
L 344.823267 383.781593 
L 345.095418 383.043933 
L 345.639718 383.36143 
L 346.184019 383.728784 
L 346.456169 382.68204 
L 347.27262 382.646188 
L 347.54477 382.878423 
L 347.81692 383.408281 
L 348.361221 383.194772 
L 348.633371 382.896911 
L 348.905522 382.409098 
L 349.177672 383.461849 
L 349.721972 383.507922 
L 349.994123 383.54769 
L 350.266273 383.474481 
L 350.810574 383.774952 
L 351.082724 383.845433 
L 351.627024 384.482253 
L 352.715626 384.143619 
L 353.259926 383.359647 
L 353.532076 383.364563 
L 353.804227 383.074136 
L 354.076377 382.176441 
L 354.348527 382.079686 
L 354.620678 382.22348 
L 355.164978 382.258955 
L 355.709279 382.960926 
L 355.981429 383.462564 
L 356.253579 383.387307 
L 356.52573 383.556683 
L 356.79788 384.331977 
L 357.07003 384.580584 
L 357.614331 384.705611 
L 357.886481 383.306972 
L 359.247232 383.296659 
L 359.519383 383.365269 
L 359.791533 382.88735 
L 360.063683 382.649286 
L 360.335834 382.692266 
L 360.607984 384.095323 
L 361.424435 384.137066 
L 361.696585 383.984803 
L 362.240886 383.940781 
L 362.785186 384.535143 
L 363.057336 384.353713 
L 363.329487 384.358828 
L 363.601637 384.112583 
L 363.873787 384.254516 
L 364.145938 384.263722 
L 364.418088 384.384615 
L 364.690238 384.38091 
L 365.778839 383.276815 
L 366.59529 383.2379 
L 366.86744 383.324322 
L 367.411741 383.166895 
L 367.683891 382.444468 
L 368.500342 383.634245 
L 368.772492 383.63242 
L 369.044643 383.766364 
L 369.861094 383.587035 
L 370.133244 383.627753 
L 370.405394 384.672766 
L 370.949695 384.592013 
L 372.038296 384.669871 
L 372.310446 384.737867 
L 372.854747 385.04325 
L 374.215498 384.879926 
L 374.487648 384.928461 
L 374.759799 384.748389 
L 375.031949 384.752315 
L 375.304099 384.312481 
L 375.8484 384.311423 
L 376.12055 383.751065 
L 376.664851 383.926925 
L 376.937001 383.492773 
L 377.481302 383.409126 
L 378.025602 383.366796 
L 378.297752 383.081866 
L 378.569903 382.438574 
L 378.842053 383.018102 
L 379.114203 382.578884 
L 379.386354 382.576764 
L 379.658504 382.963196 
L 380.202804 382.966795 
L 380.474955 382.770992 
L 381.291406 384.277946 
L 381.563556 384.161721 
L 381.835706 384.515108 
L 382.652157 384.43748 
L 382.924307 384.214225 
L 383.196458 384.466484 
L 384.012908 384.213024 
L 384.557209 384.374752 
L 384.829359 384.381064 
L 385.64581 384.948337 
L 385.91796 384.861988 
L 386.462261 385.069731 
L 386.734411 384.867422 
L 387.006562 384.922182 
L 387.823012 384.520614 
L 388.639463 384.673061 
L 389.183764 384.496157 
L 389.728064 384.443541 
L 390.272365 384.400124 
L 390.544515 383.81954 
L 390.816666 383.777815 
L 391.088816 383.925873 
L 391.360966 383.853447 
L 392.177417 384.180916 
L 392.449567 384.008974 
L 392.721718 383.68544 
L 392.993868 383.958956 
L 393.266018 384.642152 
L 393.810319 384.42232 
L 394.082469 384.488625 
L 394.354619 384.203945 
L 394.62677 384.118687 
L 394.89892 384.261902 
L 395.17107 384.182454 
L 395.44322 384.501129 
L 396.531822 384.618314 
L 396.803972 384.499422 
L 397.348272 384.741727 
L 397.620423 384.653295 
L 398.164723 384.746414 
L 398.709024 384.489338 
L 398.981174 384.542295 
L 399.253324 384.45766 
L 399.797625 384.59857 
L 400.069775 384.532335 
L 400.341926 384.300584 
L 400.614076 384.404373 
L 400.886226 384.141041 
L 401.158376 384.251526 
L 401.430527 383.421355 
L 401.702677 383.377622 
L 401.974827 383.537102 
L 402.519128 383.403331 
L 402.791278 383.238053 
L 403.335579 383.268332 
L 403.607729 383.436089 
L 403.879879 383.388754 
L 404.15203 384.251988 
L 404.42418 384.309355 
L 404.69633 384.033806 
L 405.240631 384.143189 
L 405.512781 384.315984 
L 405.784931 384.700761 
L 406.873532 384.931292 
L 407.145683 384.406482 
L 407.417833 384.661253 
L 408.234284 384.701171 
L 408.778584 384.620813 
L 409.050735 384.531355 
L 409.322885 384.019855 
L 409.595035 383.764978 
L 409.867186 383.877655 
L 410.683636 383.813329 
L 411.500087 383.516826 
L 411.772238 383.570237 
L 412.044388 384.175175 
L 412.316538 384.387388 
L 412.588688 384.831634 
L 413.132989 384.93981 
L 413.405139 384.900186 
L 414.22159 385.217171 
L 414.49374 385.28705 
L 414.765891 385.092252 
L 415.038041 385.158848 
L 415.582341 384.707389 
L 415.854492 384.803675 
L 416.126642 384.391682 
L 416.670943 384.165297 
L 417.487393 384.338612 
L 417.759544 384.182608 
L 418.031694 384.23723 
L 418.303844 384.406706 
L 418.575995 384.353572 
L 418.848145 384.781032 
L 419.664596 384.803596 
L 420.208896 384.778593 
L 420.481047 384.276256 
L 421.025347 384.403878 
L 421.569648 384.338269 
L 421.841798 384.504879 
L 422.113948 383.900346 
L 422.930399 383.791345 
L 423.202549 384.446237 
L 424.563301 384.388259 
L 424.835451 385.010103 
L 425.107601 384.825042 
L 425.651902 384.828649 
L 425.924052 384.253 
L 426.196203 384.396948 
L 426.468353 384.30992 
L 426.740503 384.464654 
L 428.101255 384.506039 
L 428.373405 384.381755 
L 428.645555 384.936922 
L 428.917705 384.819145 
L 429.189856 384.943814 
L 430.006307 384.841188 
L 430.278457 384.977635 
L 430.550607 384.972085 
L 431.094908 385.153911 
L 431.911359 384.993487 
L 433.816411 385.244663 
L 434.360711 385.308755 
L 435.721463 385.149069 
L 436.537913 384.801048 
L 437.898665 385.127273 
L 438.170815 385.077953 
L 439.259416 385.502699 
L 440.075867 385.233252 
L 441.164468 385.336758 
L 441.436619 385.419566 
L 441.708769 385.287025 
L 443.341671 385.378731 
L 443.885971 385.252322 
L 446.335324 384.734898 
L 447.151775 384.592508 
L 448.512526 384.905562 
L 448.784676 385.127102 
L 449.328977 384.871178 
L 449.873277 385.163737 
L 450.145428 385.174424 
L 450.417578 384.958418 
L 451.506179 384.769711 
L 451.778329 384.94222 
L 452.05048 384.825156 
L 452.32263 384.88532 
L 452.866931 384.638003 
L 454.499832 384.741133 
L 454.771983 384.998063 
L 455.044133 384.980772 
L 455.860584 385.373694 
L 456.404884 385.221413 
L 457.765636 385.233769 
L 458.037786 384.93497 
L 458.309936 385.009287 
L 458.582087 384.914165 
L 458.854237 385.043392 
L 459.398537 384.816398 
L 460.487139 384.691687 
L 461.031439 384.286614 
L 461.84789 384.520648 
L 462.392191 384.516538 
L 463.208641 384.742584 
L 463.480792 385.22994 
L 463.752942 385.416532 
L 464.297243 385.456199 
L 464.569393 385.475275 
L 464.841543 385.31054 
L 467.018745 385.0985 
L 467.563046 384.940558 
L 467.835196 384.679122 
L 468.379497 384.762704 
L 468.651647 384.668002 
L 469.740248 384.866579 
L 470.012399 384.978524 
L 470.556699 385.509112 
L 470.828849 385.472726 
L 471.101 385.297512 
L 471.917451 385.466173 
L 472.733901 385.274523 
L 473.550352 385.25713 
L 473.822503 384.994048 
L 474.094653 384.978664 
L 474.366803 384.590164 
L 474.911104 384.680615 
L 475.183254 384.752499 
L 476.271855 384.551279 
L 476.544005 384.965904 
L 476.816156 384.985077 
L 477.088306 385.231348 
L 477.360456 385.22253 
L 477.632607 385.093936 
L 477.904757 385.100343 
L 478.176907 384.264253 
L 479.265508 384.463049 
L 479.537659 384.384835 
L 479.809809 384.510317 
L 480.62626 384.576705 
L 480.89841 385.45962 
L 481.44271 384.9419 
L 481.987011 384.971739 
L 482.259161 385.007244 
L 482.803462 384.916684 
L 483.075612 384.951852 
L 483.347762 384.582448 
L 483.619913 384.564202 
L 484.164213 385.133653 
L 484.436364 384.621145 
L 484.980664 384.646822 
L 485.252814 384.753228 
L 485.797115 384.629586 
L 486.069265 384.977493 
L 486.885716 385.038454 
L 487.157866 385.56609 
L 487.702167 385.574801 
L 488.246468 385.490281 
L 488.518618 385.536946 
L 489.607219 385.283025 
L 489.879369 385.336775 
L 490.15152 385.260642 
L 490.42367 385.306174 
L 490.69582 384.915733 
L 491.240121 384.832223 
L 492.056572 385.150591 
L 493.145173 384.885311 
L 493.417323 385.264821 
L 493.689473 385.422377 
L 494.233774 385.389357 
L 495.050225 385.317086 
L 495.322375 384.534597 
L 495.594525 384.750543 
L 496.683126 384.807453 
L 497.227427 384.804262 
L 497.771728 384.706905 
L 498.043878 385.302447 
L 498.588178 385.357475 
L 499.132479 385.065546 
L 499.94893 385.077321 
L 500.49323 385.274202 
L 500.765381 385.500424 
L 501.037531 385.484898 
L 501.309681 385.353764 
L 501.853982 385.547649 
L 502.398282 385.443916 
L 503.214733 385.380417 
L 503.759034 385.243153 
L 504.031184 385.368585 
L 504.575485 385.374393 
L 505.391936 385.554983 
L 505.664086 385.45132 
L 506.480537 385.567838 
L 506.752687 385.463987 
L 507.569138 385.521289 
L 508.113438 385.284938 
L 508.385589 385.153043 
L 508.929889 385.157271 
L 509.47419 385.315277 
L 510.01849 385.261683 
L 510.290641 384.657691 
L 510.834941 384.805507 
L 511.379242 384.992136 
L 511.651392 384.987145 
L 511.923542 384.830457 
L 512.739993 384.822463 
L 513.012144 385.403728 
L 513.284294 385.422695 
L 513.556444 385.245116 
L 514.372895 385.29348 
L 514.645045 384.964387 
L 515.733646 385.043254 
L 516.005797 385.010312 
L 516.277947 385.251178 
L 517.094398 385.274648 
L 517.366548 385.669307 
L 517.638698 385.394712 
L 518.99945 385.263714 
L 519.54375 385.263909 
L 519.815901 384.975788 
L 520.360201 385.086117 
L 520.632352 384.945029 
L 521.448802 385.16628 
L 522.265253 385.125497 
L 523.081704 385.39962 
L 523.353854 385.560539 
L 524.714606 385.597745 
L 524.986756 385.323218 
L 525.258906 385.529389 
L 525.803207 385.569987 
L 526.347508 385.205272 
L 526.891808 385.078403 
L 527.436109 384.808748 
L 527.708259 384.988468 
L 529.341161 385.033841 
L 530.157612 385.434363 
L 530.701912 385.577813 
L 533.695565 385.667544 
L 534.239866 385.881672 
L 535.872768 385.717551 
L 536.417068 385.729757 
L 536.689218 385.607212 
L 537.233519 385.747729 
L 538.59427 385.836675 
L 539.138571 385.825355 
L 539.682872 385.876986 
L 540.227172 385.857163 
L 541.043623 385.78521 
L 542.132224 385.792175 
L 542.676525 385.631551 
L 543.492976 385.641596 
L 543.765126 385.488836 
L 544.037276 385.489342 
L 544.853727 384.953155 
L 545.670178 385.0334 
L 546.214478 385.123424 
L 546.486629 385.314357 
L 546.758779 385.273651 
L 547.030929 385.395463 
L 547.57523 385.826212 
L 548.391681 385.896549 
L 548.663831 385.778992 
L 549.208131 385.681416 
L 551.113183 385.566171 
L 551.657484 385.690076 
L 551.929634 385.475144 
L 553.018235 385.451976 
L 553.562536 385.416528 
L 554.378987 385.28835 
L 554.651137 385.597758 
L 555.739738 385.588192 
L 556.011889 385.347626 
L 556.284039 385.413984 
L 556.828339 385.269263 
L 557.37264 384.746802 
L 557.64479 384.689299 
L 557.916941 384.801187 
L 558.461241 384.778131 
L 558.733391 384.995035 
L 559.005542 384.849145 
L 560.366293 385.752821 
L 560.910594 385.779188 
L 561.454894 385.673081 
L 561.727045 385.854955 
L 561.999195 385.656997 
L 563.359946 385.564533 
L 563.632097 385.382126 
L 564.176397 385.443821 
L 564.448547 385.322384 
L 564.720698 385.500157 
L 565.264998 385.432608 
L 565.809299 385.431165 
L 566.081449 385.26415 
L 566.353599 385.474162 
L 567.714351 385.546694 
L 567.986501 385.695928 
L 568.258651 385.43593 
L 568.530802 385.343541 
L 568.802952 385.50617 
L 570.163703 385.435483 
L 570.708004 385.177805 
L 570.980154 385.428698 
L 571.252305 385.076787 
L 571.524455 385.077608 
L 571.796605 384.890764 
L 572.613056 384.94236 
L 573.157357 385.179476 
L 573.701657 385.353872 
L 573.973807 385.83681 
L 574.245958 385.856787 
L 574.518108 386.066475 
L 575.878859 385.980048 
L 576.15101 385.900455 
L 576.42316 385.658105 
L 577.239611 385.595334 
L 577.511761 385.402709 
L 578.056062 385.431517 
L 578.872513 385.475688 
L 579.144663 385.652366 
L 579.961114 385.508262 
L 580.505414 385.71317 
L 582.410466 385.760322 
L 582.954767 385.631192 
L 583.771218 385.597102 
L 584.043368 385.478576 
L 585.404119 385.696208 
L 586.22057 385.755004 
L 586.492721 385.496766 
L 586.764871 385.65845 
L 588.942073 385.530898 
L 589.214223 385.776531 
L 590.030674 385.772756 
L 590.302825 385.874939 
L 590.847125 385.798451 
L 591.663576 385.886432 
L 592.480027 385.741271 
L 592.752177 385.523135 
L 593.024327 385.499398 
L 593.296478 385.59248 
L 594.385079 385.522173 
L 595.20153 385.68608 
L 595.47368 385.056451 
L 597.923033 384.959693 
L 598.195183 385.745513 
L 599.283784 385.669056 
L 600.100235 385.623298 
L 600.916686 385.758895 
L 602.005287 385.860749 
L 604.454639 386.097278 
L 604.99894 385.879697 
L 605.543241 385.90259 
L 606.359691 385.754125 
L 606.903992 385.668888 
L 607.176142 385.476295 
L 607.720443 385.534262 
L 608.809044 385.507556 
L 609.081194 385.238985 
L 609.353345 385.274509 
L 609.625495 385.191887 
L 610.169795 385.505275 
L 610.441946 385.572673 
L 610.714096 385.24071 
L 610.986246 385.373714 
L 611.530547 385.354976 
L 611.802697 385.609463 
L 612.074847 385.614575 
L 612.346998 385.748404 
L 612.619148 385.756397 
L 612.891298 385.279122 
L 613.163449 385.284532 
L 613.435599 385.623737 
L 614.25205 385.6097 
L 614.79635 385.480782 
L 615.340651 385.479741 
L 615.612801 385.899458 
L 616.157102 385.817379 
L 616.429252 385.591957 
L 616.973552 385.550105 
L 617.245703 385.708002 
L 618.878604 385.658578 
L 619.150755 385.871456 
L 619.967206 385.787198 
L 621.600107 385.800798 
L 622.416558 385.791582 
L 622.960859 385.933545 
L 623.233009 385.793286 
L 624.59376 385.735917 
L 624.865911 385.654966 
L 625.410211 385.642086 
L 625.682362 385.649331 
L 625.954512 385.849832 
L 629.764616 385.935323 
L 630.581067 385.818045 
L 631.941818 385.812694 
L 632.486119 385.873401 
L 633.30257 386.018055 
L 635.207622 385.875241 
L 642.82783 385.988502 
L 643.64428 386.071001 
L 644.188581 386.039696 
L 644.732882 385.961827 
L 649.087286 386.053506 
L 649.359436 385.801096 
L 651.808789 385.580338 
L 652.080939 385.866658 
L 653.985991 385.992221 
L 654.258142 385.87096 
L 655.074592 385.853794 
L 655.346743 385.586358 
L 656.163194 385.522707 
L 656.707494 385.464524 
L 656.979644 385.598329 
L 657.523945 385.550201 
L 657.796095 385.41968 
L 658.068246 385.737413 
L 658.340396 385.752041 
L 658.612546 385.907428 
L 659.428997 385.785469 
L 659.973298 385.69696 
L 660.789748 385.881718 
L 661.061899 385.574687 
L 661.87835 385.632001 
L 662.966951 385.693672 
L 663.511251 385.602477 
L 663.783402 385.903985 
L 665.688454 385.996718 
L 666.232754 386.038345 
L 667.865656 386.02184 
L 668.409956 385.943786 
L 668.682107 385.414556 
L 671.131459 385.436882 
L 671.40361 385.952256 
L 671.94791 386.085703 
L 675.485864 385.790396 
L 676.030164 385.684121 
L 676.846615 385.85741 
L 677.390916 385.841575 
L 677.663066 385.668427 
L 678.751667 385.663958 
L 680.656719 385.942922 
L 680.92887 386.057467 
L 681.74532 386.10189 
L 682.561771 386.138295 
L 683.378222 385.794925 
L 683.922523 385.848987 
L 684.194673 385.650879 
L 685.283274 385.540675 
L 685.827575 385.47997 
L 686.099725 385.677446 
L 686.644025 385.663958 
L 686.916176 385.850448 
L 688.004777 385.870727 
L 688.276927 386.089642 
L 692.631332 386.007741 
L 692.903482 385.819875 
L 693.447783 385.828342 
L 693.992083 385.887673 
L 695.352835 385.873874 
L 695.624985 386.048908 
L 696.169285 386.013517 
L 696.441436 385.556358 
L 698.074337 385.569837 
L 698.890788 385.638498 
L 699.162939 386.10407 
L 700.52369 385.965168 
L 701.340141 385.919712 
L 702.700892 385.911229 
L 702.973043 386.087496 
L 705.966696 386.137197 
L 709.232499 386.025022 
L 710.3211 386.123668 
L 710.593251 386.113486 
L 710.865401 385.918444 
L 711.954002 385.885689 
L 713.314753 385.604178 
L 713.586904 385.807661 
L 715.219805 385.792937 
L 715.491956 385.570749 
L 716.036256 385.786792 
L 717.941308 385.794666 
L 718.213459 386.011702 
L 718.757759 385.919976 
L 720.934961 385.922771 
L 721.207112 386.012331 
L 721.751412 386.003727 
L 722.567863 386.016601 
L 723.384314 385.935144 
L 725.017216 385.893149 
L 727.194418 385.933171 
L 728.010869 385.904754 
L 728.82732 385.967156 
L 729.09947 385.925839 
L 729.37162 386.007735 
L 729.915921 385.697593 
L 730.460221 385.725294 
L 731.276672 385.600016 
L 732.365273 385.724223 
L 732.637424 385.915188 
L 732.909574 385.866865 
L 733.453875 386.001098 
L 734.814626 385.871595 
L 735.358927 385.956165 
L 737.808279 386.099887 
L 738.080429 385.97326 
L 739.169031 385.917798 
L 739.985481 385.710779 
L 741.618383 385.921432 
L 743.523435 386.06759 
L 748.694291 386.113 
L 749.782892 386.102339 
L 750.327192 385.939371 
L 751.143643 385.948577 
L 751.960094 385.890002 
L 752.232244 385.908953 
L 752.504394 385.687079 
L 753.320845 385.665624 
L 754.953747 385.586 
L 755.498048 385.964309 
L 757.130949 386.045123 
L 757.67525 386.151456 
L 758.763851 386.187087 
L 759.308152 386.093962 
L 761.757504 386.103559 
L 762.846105 386.131759 
L 765.023308 386.105232 
L 765.567608 386.071724 
L 769.649862 386.078864 
L 770.194163 385.96554 
L 772.371365 386.011865 
L 772.643516 386.133336 
L 774.276417 386.128679 
L 774.820718 386.208972 
L 775.092868 386.102051 
L 776.99792 386.126023 
L 777.542221 386.037044 
L 778.086521 386.119569 
L 779.447273 386.065211 
L 779.719423 385.840361 
L 780.263724 385.894432 
L 781.624475 385.836136 
L 782.168776 385.850631 
L 782.440926 386.092501 
L 783.801677 385.916729 
L 784.073828 385.980215 
L 784.345978 385.840856 
L 785.97888 385.875711 
L 786.25103 386.012781 
L 786.79533 386.037233 
L 787.067481 386.167059 
L 788.972533 386.08813 
L 789.788984 386.066147 
L 795.77629 386.018746 
L 797.681342 385.94897 
L 798.225642 386.000773 
L 798.497793 386.110916 
L 800.947145 385.868715 
L 802.852197 385.911708 
L 805.5737 386.103095 
L 807.206602 386.193476 
L 808.839504 385.825734 
L 809.655954 385.873683 
L 810.200255 385.928923 
L 810.744556 386.061532 
L 811.016706 386.026256 
L 811.561006 386.129034 
L 815.09896 385.954514 
L 815.643261 385.892557 
L 818.636914 386.064622 
L 821.358417 385.865346 
L 825.440671 386.015164 
L 828.434324 386.069142 
L 828.706474 385.922618 
L 828.978625 385.921724 
L 829.522925 386.084172 
L 831.155827 386.005502 
L 831.427977 386.137948 
L 832.516578 386.014885 
L 833.87733 386.064766 
L 837.143133 386.105796 
L 837.959584 385.98682 
L 838.776035 386.029569 
L 839.320335 385.985338 
L 842.041838 386.078625 
L 843.130439 386.071623 
L 844.491191 386.186073 
L 845.035491 386.06705 
L 845.579792 385.97419 
L 847.212694 385.966119 
L 847.484844 386.097178 
L 848.573445 386.016022 
L 851.022798 386.038154 
L 851.294948 386.171714 
L 852.92785 386.056531 
L 852.92785 386.056531 
" clip-path="url(#pcf5f5b3ef6)" style="fill: none; stroke-dasharray: 7.4,3.2; stroke-dashoffset: 0; stroke: #000000; stroke-width: 2"/>
   </g>
   <g id="patch_3">
    <path d="M 41.92 404.12 
L 41.92 10.8 
" style="fill: none; stroke: #000000; stroke-width: 0.8; stroke-linejoin: miter; stroke-linecap: square"/>
   </g>
   <g id="patch_4">
    <path d="M 853.2 404.12 
L 853.2 10.8 
" style="fill: none; stroke: #000000; stroke-width: 0.8; stroke-linejoin: miter; stroke-linecap: square"/>
   </g>
   <g id="patch_5">
    <path d="M 41.92 404.12 
L 853.2 404.12 
" style="fill: none; stroke: #000000; stroke-width: 0.8; stroke-linejoin: miter; stroke-linecap: square"/>
   </g>
   <g id="patch_6">
    <path d="M 41.92 10.8 
L 853.2 10.8 
" style="fill: none; stroke: #000000; stroke-width: 0.8; stroke-linejoin: miter; stroke-linecap: square"/>
   </g>
  </g>
 </g>
 <defs>
  <clipPath id="pcf5f5b3ef6">
   <rect x="41.92" y="10.8" width="811.28" height="393.32"/>
  </clipPath>
 </defs>
</svg>
