<?xml version="1.0" encoding="utf-8" standalone="no"?>
<!DOCTYPE svg PUBLIC "-//W3C//DTD SVG 1.1//EN"
  "http://www.w3.org/Graphics/SVG/1.1/DTD/svg11.dtd">
<svg xmlns:xlink="http://www.w3.org/1999/xlink" width="864pt" height="432pt" viewBox="0 0 864 432" xmlns="http://www.w3.org/2000/svg" version="1.1">
 <metadata>
  <rdf:RDF xmlns:dc="http://purl.org/dc/elements/1.1/" xmlns:cc="http://creativecommons.org/ns#" xmlns:rdf="http://www.w3.org/1999/02/22-rdf-syntax-ns#">
   <cc:Work>
    <dc:type rdf:resource="http://purl.org/dc/dcmitype/StillImage"/>
    <dc:date>2024-09-19T15:56:05.785383</dc:date>
    <dc:format>image/svg+xml</dc:format>
    <dc:creator>
     <cc:Agent>
      <dc:title>Matplotlib v3.9.2, https://matplotlib.org/</dc:title>
     </cc:Agent>
    </dc:creator>
   </cc:Work>
  </rdf:RDF>
 </metadata>
 <defs>
  <style type="text/css">*{stroke-linejoin: round; stroke-linecap: butt}</style>
 </defs>
 <g id="figure_1">
  <g id="patch_1">
   <path d="M 0 432 
L 864 432 
L 864 0 
L 0 0 
z
" style="fill: #ffffff"/>
  </g>
  <g id="axes_1">
   <g id="patch_2">
    <path d="M 41.92 404.12 
L 853.2 404.12 
L 853.2 12.69425 
L 41.92 12.69425 
z
" style="fill: #ffffff"/>
   </g>
   <g id="matplotlib.axis_1">
    <g id="xtick_1">
     <g id="line2d_1">
      <defs>
       <path id="m54306b733e" d="M 0 0 
L 0 3.5 
" style="stroke: #000000; stroke-width: 0.8"/>
      </defs>
      <g>
       <use xlink:href="#m54306b733e" x="199.048644" y="404.12" style="stroke: #000000; stroke-width: 0.8"/>
      </g>
     </g>
     <g id="text_1">
      <!-- 200 -->
      <g transform="translate(190.018175 418.771563) scale(0.1 -0.1)">
       <defs>
        <path id="DejaVuSansMono-32" d="M 1166 531 
L 3309 531 
L 3309 0 
L 475 0 
L 475 531 
Q 1059 1147 1496 1619 
Q 1934 2091 2100 2284 
Q 2413 2666 2522 2902 
Q 2631 3138 2631 3384 
Q 2631 3775 2401 3997 
Q 2172 4219 1772 4219 
Q 1488 4219 1175 4116 
Q 863 4013 513 3803 
L 513 4441 
Q 834 4594 1145 4672 
Q 1456 4750 1759 4750 
Q 2444 4750 2861 4386 
Q 3278 4022 3278 3431 
Q 3278 3131 3139 2831 
Q 3000 2531 2688 2169 
Q 2513 1966 2180 1606 
Q 1847 1247 1166 531 
z
" transform="scale(0.015625)"/>
        <path id="DejaVuSansMono-30" d="M 1509 2344 
Q 1509 2516 1629 2641 
Q 1750 2766 1919 2766 
Q 2094 2766 2219 2641 
Q 2344 2516 2344 2344 
Q 2344 2169 2220 2047 
Q 2097 1925 1919 1925 
Q 1744 1925 1626 2044 
Q 1509 2163 1509 2344 
z
M 1925 4250 
Q 1484 4250 1267 3775 
Q 1050 3300 1050 2328 
Q 1050 1359 1267 884 
Q 1484 409 1925 409 
Q 2369 409 2586 884 
Q 2803 1359 2803 2328 
Q 2803 3300 2586 3775 
Q 2369 4250 1925 4250 
z
M 1925 4750 
Q 2672 4750 3055 4137 
Q 3438 3525 3438 2328 
Q 3438 1134 3055 521 
Q 2672 -91 1925 -91 
Q 1178 -91 797 521 
Q 416 1134 416 2328 
Q 416 3525 797 4137 
Q 1178 4750 1925 4750 
z
" transform="scale(0.015625)"/>
       </defs>
       <use xlink:href="#DejaVuSansMono-32"/>
       <use xlink:href="#DejaVuSansMono-30" x="60.205078"/>
       <use xlink:href="#DejaVuSansMono-30" x="120.410156"/>
      </g>
     </g>
    </g>
    <g id="xtick_2">
     <g id="line2d_2">
      <g>
       <use xlink:href="#m54306b733e" x="364.447217" y="404.12" style="stroke: #000000; stroke-width: 0.8"/>
      </g>
     </g>
     <g id="text_2">
      <!-- 400 -->
      <g transform="translate(355.416748 418.771563) scale(0.1 -0.1)">
       <defs>
        <path id="DejaVuSansMono-34" d="M 2297 4091 
L 825 1625 
L 2297 1625 
L 2297 4091 
z
M 2194 4666 
L 2925 4666 
L 2925 1625 
L 3547 1625 
L 3547 1113 
L 2925 1113 
L 2925 0 
L 2297 0 
L 2297 1113 
L 319 1113 
L 319 1709 
L 2194 4666 
z
" transform="scale(0.015625)"/>
       </defs>
       <use xlink:href="#DejaVuSansMono-34"/>
       <use xlink:href="#DejaVuSansMono-30" x="60.205078"/>
       <use xlink:href="#DejaVuSansMono-30" x="120.410156"/>
      </g>
     </g>
    </g>
    <g id="xtick_3">
     <g id="line2d_3">
      <g>
       <use xlink:href="#m54306b733e" x="529.84579" y="404.12" style="stroke: #000000; stroke-width: 0.8"/>
      </g>
     </g>
     <g id="text_3">
      <!-- 600 -->
      <g transform="translate(520.815321 418.771563) scale(0.1 -0.1)">
       <defs>
        <path id="DejaVuSansMono-36" d="M 3097 4563 
L 3097 3981 
Q 2900 4097 2678 4158 
Q 2456 4219 2216 4219 
Q 1616 4219 1306 3767 
Q 997 3316 997 2438 
Q 1147 2750 1412 2917 
Q 1678 3084 2022 3084 
Q 2697 3084 3067 2670 
Q 3438 2256 3438 1497 
Q 3438 741 3056 325 
Q 2675 -91 1984 -91 
Q 1172 -91 794 492 
Q 416 1075 416 2328 
Q 416 3509 870 4129 
Q 1325 4750 2188 4750 
Q 2419 4750 2650 4701 
Q 2881 4653 3097 4563 
z
M 1972 2591 
Q 1569 2591 1337 2300 
Q 1106 2009 1106 1497 
Q 1106 984 1337 693 
Q 1569 403 1972 403 
Q 2391 403 2603 679 
Q 2816 956 2816 1497 
Q 2816 2041 2603 2316 
Q 2391 2591 1972 2591 
z
" transform="scale(0.015625)"/>
       </defs>
       <use xlink:href="#DejaVuSansMono-36"/>
       <use xlink:href="#DejaVuSansMono-30" x="60.205078"/>
       <use xlink:href="#DejaVuSansMono-30" x="120.410156"/>
      </g>
     </g>
    </g>
    <g id="xtick_4">
     <g id="line2d_4">
      <g>
       <use xlink:href="#m54306b733e" x="695.244363" y="404.12" style="stroke: #000000; stroke-width: 0.8"/>
      </g>
     </g>
     <g id="text_4">
      <!-- 800 -->
      <g transform="translate(686.213894 418.771563) scale(0.1 -0.1)">
       <defs>
        <path id="DejaVuSansMono-38" d="M 1925 2216 
Q 1503 2216 1273 1980 
Q 1044 1744 1044 1313 
Q 1044 881 1276 642 
Q 1509 403 1925 403 
Q 2350 403 2579 639 
Q 2809 875 2809 1313 
Q 2809 1741 2576 1978 
Q 2344 2216 1925 2216 
z
M 1375 2478 
Q 972 2581 745 2862 
Q 519 3144 519 3541 
Q 519 4097 897 4423 
Q 1275 4750 1925 4750 
Q 2578 4750 2956 4423 
Q 3334 4097 3334 3541 
Q 3334 3144 3107 2862 
Q 2881 2581 2478 2478 
Q 2947 2375 3195 2062 
Q 3444 1750 3444 1253 
Q 3444 622 3041 265 
Q 2638 -91 1925 -91 
Q 1213 -91 811 264 
Q 409 619 409 1247 
Q 409 1747 657 2061 
Q 906 2375 1375 2478 
z
M 1147 3481 
Q 1147 3106 1347 2909 
Q 1547 2713 1925 2713 
Q 2306 2713 2506 2909 
Q 2706 3106 2706 3481 
Q 2706 3863 2507 4063 
Q 2309 4263 1925 4263 
Q 1547 4263 1347 4061 
Q 1147 3859 1147 3481 
z
" transform="scale(0.015625)"/>
       </defs>
       <use xlink:href="#DejaVuSansMono-38"/>
       <use xlink:href="#DejaVuSansMono-30" x="60.205078"/>
       <use xlink:href="#DejaVuSansMono-30" x="120.410156"/>
      </g>
     </g>
    </g>
   </g>
   <g id="matplotlib.axis_2">
    <g id="ytick_1">
     <g id="line2d_5">
      <defs>
       <path id="m8a74229765" d="M 0 0 
L -3.5 0 
" style="stroke: #000000; stroke-width: 0.8"/>
      </defs>
      <g>
       <use xlink:href="#m8a74229765" x="41.92" y="386.773165" style="stroke: #000000; stroke-width: 0.8"/>
      </g>
     </g>
     <g id="text_5">
      <!-- 0.00 -->
      <g transform="translate(10.83875 390.598946) scale(0.1 -0.1)">
       <defs>
        <path id="DejaVuSansMono-2e" d="M 1528 953 
L 2316 953 
L 2316 0 
L 1528 0 
L 1528 953 
z
" transform="scale(0.015625)"/>
       </defs>
       <use xlink:href="#DejaVuSansMono-30"/>
       <use xlink:href="#DejaVuSansMono-2e" x="60.205078"/>
       <use xlink:href="#DejaVuSansMono-30" x="120.410156"/>
       <use xlink:href="#DejaVuSansMono-30" x="180.615234"/>
      </g>
     </g>
    </g>
    <g id="ytick_2">
     <g id="line2d_6">
      <g>
       <use xlink:href="#m8a74229765" x="41.92" y="312.443546" style="stroke: #000000; stroke-width: 0.8"/>
      </g>
     </g>
     <g id="text_6">
      <!-- 0.02 -->
      <g transform="translate(10.83875 316.269327) scale(0.1 -0.1)">
       <use xlink:href="#DejaVuSansMono-30"/>
       <use xlink:href="#DejaVuSansMono-2e" x="60.205078"/>
       <use xlink:href="#DejaVuSansMono-30" x="120.410156"/>
       <use xlink:href="#DejaVuSansMono-32" x="180.615234"/>
      </g>
     </g>
    </g>
    <g id="ytick_3">
     <g id="line2d_7">
      <g>
       <use xlink:href="#m8a74229765" x="41.92" y="238.113927" style="stroke: #000000; stroke-width: 0.8"/>
      </g>
     </g>
     <g id="text_7">
      <!-- 0.04 -->
      <g transform="translate(10.83875 241.939708) scale(0.1 -0.1)">
       <use xlink:href="#DejaVuSansMono-30"/>
       <use xlink:href="#DejaVuSansMono-2e" x="60.205078"/>
       <use xlink:href="#DejaVuSansMono-30" x="120.410156"/>
       <use xlink:href="#DejaVuSansMono-34" x="180.615234"/>
      </g>
     </g>
    </g>
    <g id="ytick_4">
     <g id="line2d_8">
      <g>
       <use xlink:href="#m8a74229765" x="41.92" y="163.784308" style="stroke: #000000; stroke-width: 0.8"/>
      </g>
     </g>
     <g id="text_8">
      <!-- 0.06 -->
      <g transform="translate(10.83875 167.610089) scale(0.1 -0.1)">
       <use xlink:href="#DejaVuSansMono-30"/>
       <use xlink:href="#DejaVuSansMono-2e" x="60.205078"/>
       <use xlink:href="#DejaVuSansMono-30" x="120.410156"/>
       <use xlink:href="#DejaVuSansMono-36" x="180.615234"/>
      </g>
     </g>
    </g>
    <g id="ytick_5">
     <g id="line2d_9">
      <g>
       <use xlink:href="#m8a74229765" x="41.92" y="89.454688" style="stroke: #000000; stroke-width: 0.8"/>
      </g>
     </g>
     <g id="text_9">
      <!-- 0.08 -->
      <g transform="translate(10.83875 93.28047) scale(0.1 -0.1)">
       <use xlink:href="#DejaVuSansMono-30"/>
       <use xlink:href="#DejaVuSansMono-2e" x="60.205078"/>
       <use xlink:href="#DejaVuSansMono-30" x="120.410156"/>
       <use xlink:href="#DejaVuSansMono-38" x="180.615234"/>
      </g>
     </g>
    </g>
    <g id="ytick_6">
     <g id="line2d_10">
      <g>
       <use xlink:href="#m8a74229765" x="41.92" y="15.125069" style="stroke: #000000; stroke-width: 0.8"/>
      </g>
     </g>
     <g id="text_10">
      <!-- 0.10 -->
      <g transform="translate(10.83875 18.950851) scale(0.1 -0.1)">
       <defs>
        <path id="DejaVuSansMono-31" d="M 844 531 
L 1825 531 
L 1825 4097 
L 769 3859 
L 769 4434 
L 1819 4666 
L 2450 4666 
L 2450 531 
L 3419 531 
L 3419 0 
L 844 0 
L 844 531 
z
" transform="scale(0.015625)"/>
       </defs>
       <use xlink:href="#DejaVuSansMono-30"/>
       <use xlink:href="#DejaVuSansMono-2e" x="60.205078"/>
       <use xlink:href="#DejaVuSansMono-31" x="120.410156"/>
       <use xlink:href="#DejaVuSansMono-30" x="180.615234"/>
      </g>
     </g>
    </g>
   </g>
   <g id="line2d_11">
    <path d="M 33.650071 76.592875 
L 34.477064 85.889845 
L 35.304057 83.985935 
L 36.13105 90.653138 
L 36.958043 87.9933 
L 37.785036 87.157169 
L 38.612029 41.252636 
L 39.439021 45.60995 
L 40.266014 38.322625 
L 41.093007 38.166132 
L 41.92 50.853012 
L 42.746993 57.203191 
L 43.573986 74.734166 
L 44.400979 73.492856 
L 45.227971 83.773112 
L 46.054964 88.570804 
L 46.881957 121.146655 
L 47.70895 113.573392 
L 48.535943 119.899073 
L 49.362936 104.585833 
L 50.189929 102.113968 
L 51.016922 92.976975 
L 51.843914 93.712161 
L 52.670907 78.558123 
L 53.4979 76.361137 
L 54.324893 75.447181 
L 55.151886 95.61553 
L 55.978879 104.518117 
L 56.805872 107.962859 
L 57.632864 123.417335 
L 58.459857 123.892184 
L 59.28685 133.388882 
L 60.113843 125.893734 
L 60.940836 136.980728 
L 61.767829 123.985858 
L 63.421814 110.815621 
L 64.248807 73.989218 
L 65.0758 71.415377 
L 65.902793 71.127042 
L 66.729786 70.686245 
L 67.556779 58.723039 
L 69.210765 73.37692 
L 70.037757 89.955158 
L 70.86475 30.48633 
L 71.691743 31.648441 
L 72.518736 61.343025 
L 73.345729 64.183613 
L 74.172722 55.309408 
L 74.999715 55.510908 
L 75.826707 65.885993 
L 76.6537 54.443121 
L 77.480693 51.719597 
L 78.307686 51.896411 
L 79.134679 119.185531 
L 79.961672 71.842029 
L 80.788665 75.252923 
L 81.615657 74.877435 
L 83.269643 80.742583 
L 84.096636 78.061028 
L 84.923629 90.551512 
L 85.750622 92.422482 
L 86.577615 90.89 
L 87.404608 86.802098 
L 88.2316 133.105758 
L 89.058593 137.396846 
L 89.885586 133.321709 
L 90.712579 141.722995 
L 91.539572 132.96131 
L 92.366565 134.893409 
L 93.193558 132.753724 
L 94.02055 121.577917 
L 94.847543 113.654781 
L 96.501529 123.027937 
L 97.328522 123.020753 
L 98.155515 120.227206 
L 98.982508 118.89833 
L 99.809501 119.06751 
L 100.636493 122.364687 
L 101.463486 121.857936 
L 102.290479 111.007325 
L 103.117472 120.230006 
L 103.944465 119.165402 
L 104.771458 108.004567 
L 105.598451 67.481697 
L 106.425443 72.036122 
L 107.252436 48.660589 
L 108.079429 39.52115 
L 109.733415 37.59102 
L 110.560408 56.838135 
L 111.387401 56.658337 
L 112.214393 53.975606 
L 113.041386 63.647555 
L 113.868379 94.256905 
L 114.695372 76.55747 
L 115.522365 101.915055 
L 116.349358 117.865372 
L 117.176351 118.573066 
L 118.003344 121.857469 
L 118.830336 125.714556 
L 119.657329 122.489931 
L 120.484322 123.972941 
L 121.311315 127.010198 
L 122.138308 105.288904 
L 122.965301 118.105143 
L 123.792294 118.195192 
L 124.619286 111.199891 
L 125.446279 111.647878 
L 126.273272 110.364535 
L 127.100265 104.42983 
L 127.927258 105.683847 
L 128.754251 92.160124 
L 129.581244 81.509789 
L 130.408236 113.251245 
L 131.235229 112.194768 
L 132.062222 112.41376 
L 132.889215 115.687719 
L 133.716208 113.069937 
L 134.543201 96.784953 
L 135.370194 99.023278 
L 136.197187 101.731523 
L 137.024179 103.542351 
L 137.851172 112.484042 
L 138.678165 107.922994 
L 139.505158 116.782367 
L 140.332151 116.920102 
L 141.159144 121.533094 
L 141.986137 119.837166 
L 142.813129 136.386945 
L 143.640122 139.604095 
L 144.467115 135.670027 
L 145.294108 146.682007 
L 146.121101 148.384173 
L 146.948094 148.973232 
L 147.775087 139.127554 
L 148.60208 135.48734 
L 149.429072 135.113875 
L 150.256065 137.939035 
L 151.083058 136.924844 
L 151.910051 132.705858 
L 152.737044 135.449798 
L 153.564037 137.493848 
L 154.39103 133.648741 
L 155.218022 135.278884 
L 156.045015 127.927049 
L 156.872008 131.933451 
L 157.699001 132.727638 
L 158.525994 132.267439 
L 159.352987 127.107527 
L 160.17998 128.758038 
L 161.006972 121.526007 
L 161.833965 122.42575 
L 162.660958 126.520327 
L 163.487951 128.224024 
L 164.314944 145.374545 
L 165.141937 145.322926 
L 165.96893 145.910335 
L 166.795923 140.233587 
L 167.622915 146.634222 
L 168.449908 148.336803 
L 169.276901 154.726476 
L 170.103894 150.859789 
L 170.930887 150.375247 
L 171.75788 151.131098 
L 172.584873 150.894397 
L 173.411865 150.136968 
L 174.238858 147.151641 
L 175.065851 152.565614 
L 175.892844 148.863139 
L 176.719837 148.640854 
L 177.54683 149.792458 
L 178.373823 153.613123 
L 179.200815 154.43008 
L 180.027808 145.019884 
L 180.854801 140.521718 
L 181.681794 140.992376 
L 182.508787 129.889441 
L 183.33578 126.329816 
L 184.162773 128.896 
L 184.989766 130.641126 
L 185.816758 131.059359 
L 186.643751 131.774616 
L 187.470744 129.296913 
L 188.297737 137.080761 
L 189.12473 140.017478 
L 189.951723 139.3472 
L 190.778716 153.835536 
L 191.605708 159.597732 
L 192.432701 160.601359 
L 193.259694 156.693727 
L 194.086687 156.25942 
L 194.91368 151.884764 
L 195.740673 146.006777 
L 196.567666 146.082101 
L 197.394659 125.835355 
L 198.221651 126.817455 
L 199.048644 126.87474 
L 199.875637 125.523695 
L 200.70263 127.004872 
L 201.529623 131.100494 
L 202.356616 129.864134 
L 203.183609 134.371602 
L 204.010601 140.484339 
L 204.837594 142.312628 
L 205.664587 164.706194 
L 206.49158 163.703177 
L 207.318573 163.819649 
L 208.145566 165.73852 
L 208.972559 165.662708 
L 209.799551 165.929754 
L 210.626544 151.562283 
L 211.453537 144.593827 
L 212.28053 139.24907 
L 213.107523 138.139361 
L 213.934516 137.918761 
L 214.761509 139.795754 
L 215.588502 139.864857 
L 216.415494 138.810428 
L 217.242487 138.814692 
L 218.06948 137.723425 
L 218.896473 151.66644 
L 219.723466 155.530059 
L 220.550459 163.648679 
L 221.377452 164.854865 
L 222.204444 163.789604 
L 223.031437 162.305199 
L 223.85843 158.570172 
L 224.685423 158.595593 
L 225.512416 158.073826 
L 226.339409 157.258493 
L 227.166402 159.43898 
L 227.993394 163.122988 
L 228.820387 162.570697 
L 229.64738 162.396378 
L 230.474373 164.22076 
L 231.301366 162.783993 
L 232.128359 165.908544 
L 232.955352 166.292906 
L 233.782345 166.297321 
L 234.609337 165.697696 
L 235.43633 166.584443 
L 236.263323 165.96439 
L 237.090316 165.770807 
L 237.917309 165.273422 
L 238.744302 165.51366 
L 239.571295 169.036136 
L 241.22528 170.975551 
L 242.879266 174.860346 
L 243.706259 175.969641 
L 244.533252 175.810559 
L 245.360245 177.467402 
L 246.187238 178.833506 
L 247.01423 179.116093 
L 247.841223 178.615506 
L 249.495209 179.799034 
L 250.322202 179.773946 
L 251.149195 181.813956 
L 251.976188 182.070999 
L 252.80318 183.661542 
L 253.630173 183.632015 
L 256.111152 186.577692 
L 256.938145 186.187038 
L 258.59213 187.824161 
L 259.419123 188.688601 
L 260.246116 188.23182 
L 261.073109 189.368782 
L 261.900102 190.900327 
L 262.727095 191.245694 
L 263.554088 192.577789 
L 264.381081 194.597226 
L 265.208073 196.930289 
L 267.689052 200.61561 
L 268.516045 203.603576 
L 269.343038 204.273919 
L 270.170031 205.348859 
L 270.997023 206.185199 
L 271.824016 206.611293 
L 272.651009 207.392112 
L 273.478002 205.25567 
L 274.304995 205.966566 
L 275.131988 208.23458 
L 275.958981 208.589994 
L 276.785973 209.26139 
L 278.439959 211.940063 
L 279.266952 215.212017 
L 280.920938 218.619153 
L 281.747931 221.946235 
L 282.574924 224.193628 
L 283.401916 224.09191 
L 284.228909 225.120036 
L 285.055902 226.578247 
L 285.882895 226.301498 
L 286.709888 228.299837 
L 287.536881 229.040133 
L 288.363874 231.44372 
L 289.190866 232.816879 
L 290.017859 235.950335 
L 290.844852 235.6011 
L 291.671845 235.9044 
L 292.498838 238.4655 
L 293.325831 240.547474 
L 294.152824 244.826293 
L 295.806809 248.403364 
L 297.460795 252.740396 
L 298.287788 254.31906 
L 299.114781 256.844636 
L 299.941774 260.927523 
L 301.595759 265.076062 
L 302.422752 266.512512 
L 303.249745 269.408624 
L 304.903731 271.707801 
L 305.730724 273.330264 
L 308.211702 282.686173 
L 309.865688 286.949676 
L 312.346667 292.735324 
L 313.17366 294.251335 
L 314.000652 296.90598 
L 314.827645 298.503996 
L 315.654638 301.032008 
L 316.481631 302.194504 
L 317.308624 304.108893 
L 318.135617 305.357938 
L 318.96261 307.508053 
L 319.789602 309.024198 
L 320.616595 311.735503 
L 321.443588 313.855084 
L 322.270581 314.450849 
L 323.097574 316.315769 
L 324.75156 319.091271 
L 325.578552 319.205644 
L 327.232538 324.062994 
L 328.059531 325.229601 
L 329.713517 328.282532 
L 330.54051 330.962412 
L 332.194495 335.053409 
L 333.848481 341.290642 
L 334.675474 343.5745 
L 335.502467 345.391113 
L 337.156453 348.35422 
L 337.983445 348.725004 
L 339.637431 351.273924 
L 341.291417 353.345934 
L 342.11841 355.226679 
L 343.772396 357.482796 
L 344.599388 359.468905 
L 345.426381 360.181717 
L 346.253374 362.683313 
L 347.080367 363.814018 
L 347.90736 364.756159 
L 348.734353 365.281264 
L 349.561346 365.242697 
L 350.388338 365.792948 
L 351.215331 365.215247 
L 352.042324 365.747451 
L 352.869317 365.786201 
L 353.69631 366.353624 
L 354.523303 366.413804 
L 356.177288 365.984805 
L 357.004281 366.349077 
L 357.831274 368.173194 
L 358.658267 368.254009 
L 359.48526 369.99985 
L 360.312253 370.512274 
L 361.139246 371.156132 
L 361.966239 371.148049 
L 362.793231 372.248155 
L 363.620224 372.704528 
L 364.447217 373.511251 
L 365.27421 373.994013 
L 366.101203 373.826002 
L 366.928196 374.332374 
L 368.582181 374.013768 
L 369.409174 374.70369 
L 370.236167 375.544851 
L 371.06316 375.626072 
L 371.890153 376.579524 
L 372.717146 377.112542 
L 374.371131 377.539019 
L 375.198124 377.205427 
L 376.025117 377.255393 
L 376.85211 376.702176 
L 377.679103 376.461842 
L 378.506096 376.772992 
L 379.333089 376.776671 
L 380.160082 376.449978 
L 380.987074 375.923615 
L 381.814067 375.938212 
L 382.64106 375.381014 
L 383.468053 375.582618 
L 384.295046 375.600278 
L 385.122039 375.989066 
L 385.949032 375.180725 
L 387.603017 374.953937 
L 388.43001 374.887141 
L 390.083996 375.666394 
L 392.564975 375.460602 
L 393.391967 376.063737 
L 394.21896 377.067118 
L 395.045953 377.684729 
L 395.872946 377.346201 
L 396.699939 377.599609 
L 397.526932 376.988023 
L 398.353925 375.808555 
L 399.180917 375.524388 
L 400.834903 376.442163 
L 401.661896 375.895325 
L 402.488889 375.663122 
L 403.315882 375.737581 
L 404.142875 376.173536 
L 404.969867 376.399731 
L 405.79686 377.354974 
L 406.623853 378.592342 
L 407.450846 380.137984 
L 408.277839 380.261868 
L 409.104832 380.530933 
L 409.931825 381.439663 
L 411.58581 381.401201 
L 412.412803 381.914972 
L 413.239796 381.793462 
L 414.066789 381.259974 
L 414.893782 381.221466 
L 415.720775 380.939063 
L 417.37476 380.752396 
L 418.201753 380.584776 
L 419.028746 380.786311 
L 419.855739 380.724362 
L 420.682732 380.166074 
L 421.509725 380.406162 
L 422.336718 380.382189 
L 425.644689 380.913319 
L 426.471682 380.236163 
L 427.298675 380.544884 
L 428.125668 380.542105 
L 428.952661 380.96794 
L 429.779653 380.797962 
L 430.606646 381.0428 
L 431.433639 380.86628 
L 432.260632 380.80445 
L 433.087625 380.325378 
L 433.914618 380.331208 
L 434.741611 381.054638 
L 435.568603 380.795765 
L 436.395596 381.253873 
L 438.049582 381.755565 
L 439.703568 381.988147 
L 440.530561 381.571616 
L 441.357554 382.209425 
L 442.184546 382.376932 
L 443.011539 382.332026 
L 443.838532 382.529749 
L 444.665525 382.492549 
L 445.492518 380.038164 
L 446.319511 379.918806 
L 447.146504 380.188916 
L 447.973496 380.175563 
L 448.800489 380.717814 
L 449.627482 380.464156 
L 450.454475 380.42793 
L 452.108461 380.899044 
L 452.935454 380.927878 
L 453.762446 383.502775 
L 454.589439 383.732437 
L 455.416432 383.469317 
L 457.070418 383.583017 
L 458.724404 383.922138 
L 459.551397 383.434151 
L 460.378389 383.457802 
L 462.032375 383.026725 
L 462.859368 383.076556 
L 463.686361 383.375482 
L 465.340347 383.406316 
L 466.167339 383.276682 
L 466.994332 383.265426 
L 467.821325 383.455457 
L 469.475311 382.922982 
L 470.302304 383.130963 
L 471.95629 383.340056 
L 476.918247 384.568279 
L 477.74524 385.002029 
L 480.226218 385.069455 
L 481.053211 384.638763 
L 483.53419 384.389354 
L 484.361182 384.645469 
L 486.842161 384.271948 
L 488.496147 383.840029 
L 489.32314 384.100041 
L 490.150133 383.039449 
L 490.977125 382.742009 
L 493.458104 382.168907 
L 494.285097 381.896148 
L 497.593068 381.631965 
L 498.420061 382.335837 
L 500.074047 383.001552 
L 500.90104 382.860312 
L 501.728033 383.30266 
L 504.209011 383.941865 
L 505.036004 383.89022 
L 505.862997 384.058278 
L 506.68999 384.366171 
L 508.343976 384.051871 
L 509.170968 384.292624 
L 509.997961 384.190391 
L 510.824954 384.439739 
L 511.651947 384.194303 
L 512.47894 384.236003 
L 513.305933 384.414622 
L 515.786911 384.547714 
L 516.613904 384.738009 
L 517.440897 384.611472 
L 518.26789 384.730623 
L 519.094883 384.631487 
L 519.921876 384.887347 
L 521.575861 384.714429 
L 523.229847 384.840121 
L 524.05684 383.731141 
L 526.537819 383.230032 
L 527.364811 383.28373 
L 528.191804 382.947578 
L 529.018797 383.056948 
L 529.84579 383.021543 
L 530.672783 382.362174 
L 531.499776 382.003739 
L 532.326769 383.278746 
L 533.153761 383.207266 
L 533.980754 383.502349 
L 534.807747 383.659267 
L 535.63474 383.56264 
L 536.461733 383.847136 
L 537.288726 383.783191 
L 538.115719 383.935596 
L 538.942712 384.651961 
L 539.769704 385.060479 
L 540.596697 384.828689 
L 541.42369 385.076029 
L 543.904669 385.115386 
L 545.558654 385.310308 
L 546.385647 385.173659 
L 547.21264 385.151902 
L 548.039633 384.864747 
L 548.866626 385.147637 
L 551.347604 385.202976 
L 552.174597 384.824961 
L 553.00159 384.68839 
L 554.655576 384.674016 
L 555.482569 384.440797 
L 557.963547 384.237153 
L 559.617533 383.975923 
L 560.444526 384.218249 
L 562.098512 384.03524 
L 563.752497 384.576202 
L 564.57949 384.375719 
L 566.233476 384.475096 
L 567.060469 384.748238 
L 567.887462 384.640997 
L 568.714455 383.871416 
L 569.541448 384.00265 
L 570.36844 383.935517 
L 571.195433 383.5482 
L 572.022426 383.55521 
L 572.849419 383.408693 
L 573.676412 383.027707 
L 574.503405 383.08557 
L 575.330398 382.968316 
L 576.15739 383.188315 
L 576.984383 383.738268 
L 577.811376 383.608384 
L 578.638369 383.71782 
L 579.465362 384.091554 
L 580.292355 383.880707 
L 581.119348 384.540093 
L 581.94634 384.858985 
L 582.773333 384.949439 
L 583.600326 384.602916 
L 584.427319 384.455741 
L 585.254312 384.466792 
L 586.081305 384.775776 
L 586.908298 384.554337 
L 587.735291 384.495227 
L 588.562283 384.727813 
L 590.216269 384.767326 
L 591.043262 384.739433 
L 591.870255 385.222861 
L 593.524241 385.539824 
L 594.351233 385.094152 
L 595.178226 385.049102 
L 596.005219 384.63776 
L 596.832212 384.47281 
L 600.140183 384.483204 
L 601.794169 384.598415 
L 604.275148 385.801582 
L 605.102141 385.333958 
L 605.929134 385.339067 
L 606.756126 385.197272 
L 608.410112 385.201567 
L 609.237105 384.974502 
L 610.064098 384.463458 
L 611.718084 384.355598 
L 612.545076 384.403057 
L 613.372069 384.790981 
L 616.680041 384.788876 
L 617.507034 384.94781 
L 618.334027 385.544722 
L 619.161019 385.52453 
L 620.815005 385.251018 
L 621.641998 385.506912 
L 622.468991 385.630856 
L 623.295984 385.422991 
L 626.603955 385.340412 
L 628.257941 385.59949 
L 630.738919 385.369896 
L 631.565912 385.581099 
L 635.700877 385.682377 
L 639.008848 385.522467 
L 639.835841 385.545386 
L 641.489827 385.263781 
L 643.143812 385.220949 
L 643.970805 385.020605 
L 644.797798 384.988429 
L 646.451784 385.28543 
L 648.10577 385.350486 
L 649.759755 385.667018 
L 651.413741 385.720354 
L 652.240734 386.090418 
L 653.89472 385.860371 
L 659.68367 385.798504 
L 660.510663 385.811557 
L 661.337655 386.05848 
L 662.164648 386.135271 
L 662.991641 385.724239 
L 665.47262 385.410257 
L 666.299613 385.497562 
L 667.953598 385.133046 
L 669.607584 384.930499 
L 670.434577 384.653551 
L 671.26157 384.865909 
L 672.088563 384.809844 
L 672.915556 384.563288 
L 674.569541 384.481628 
L 675.396534 384.768704 
L 676.223527 384.579625 
L 677.877513 384.712186 
L 678.704506 384.993054 
L 680.358491 385.056868 
L 681.185484 385.412711 
L 682.012477 385.404562 
L 683.666463 385.111691 
L 684.493456 385.332976 
L 685.320449 384.990627 
L 687.801427 385.143216 
L 688.62842 385.283162 
L 690.282406 385.416237 
L 691.109399 385.604659 
L 691.936391 385.533759 
L 692.763384 385.593458 
L 693.590377 385.945243 
L 696.071356 385.917272 
L 696.898349 385.971243 
L 697.725341 385.837031 
L 699.379327 385.914764 
L 700.20632 386.052711 
L 701.033313 385.659445 
L 701.860306 385.528432 
L 706.822263 385.794791 
L 708.476249 385.770583 
L 709.303242 386.128809 
L 710.130234 386.213208 
L 712.611213 386.016177 
L 714.265199 385.953956 
L 715.919185 385.350403 
L 718.400163 385.292138 
L 719.227156 385.165681 
L 721.708135 385.30559 
L 722.535127 385.243542 
L 724.189113 385.832606 
L 726.670092 385.85028 
L 727.497085 385.404522 
L 729.15107 385.244368 
L 729.978063 385.207226 
L 730.805056 385.36419 
L 732.459042 385.220507 
L 734.113028 385.279607 
L 734.94002 385.237627 
L 735.767013 385.681531 
L 739.074985 385.494582 
L 739.901978 385.343078 
L 744.036942 385.451204 
L 745.690928 385.656146 
L 746.51792 385.490692 
L 747.344913 384.709264 
L 749.825892 384.698382 
L 750.652885 384.776106 
L 753.960856 384.55879 
L 754.787849 384.730787 
L 755.614842 385.595099 
L 756.441835 385.87501 
L 758.095821 385.903893 
L 758.922813 385.807412 
L 759.749806 385.896232 
L 760.576799 386.11854 
L 761.403792 385.947742 
L 762.230785 385.991183 
L 763.057778 385.612515 
L 768.019735 385.55995 
L 768.846728 385.587552 
L 769.673721 385.829017 
L 770.500714 385.68436 
L 771.327706 386.021853 
L 772.154699 385.737713 
L 775.462671 385.531732 
L 776.289664 385.613352 
L 777.943649 385.452467 
L 778.770642 385.626192 
L 779.597635 385.600166 
L 780.424628 385.917125 
L 783.732599 386.138385 
L 785.386585 385.953612 
L 787.867564 386.0364 
L 788.694557 385.879243 
L 792.002528 386.000408 
L 793.656514 386.32792 
L 794.483507 386.24221 
L 795.310499 386.013212 
L 796.137492 385.99074 
L 796.964485 386.147233 
L 797.791478 385.967849 
L 802.753435 385.940071 
L 803.580428 386.063584 
L 806.061407 386.077608 
L 806.8884 385.719577 
L 810.196371 385.456016 
L 813.504343 385.616079 
L 814.331335 385.531897 
L 815.158328 385.837859 
L 815.985321 385.917985 
L 817.639307 385.828426 
L 818.4663 385.914829 
L 819.293293 385.793578 
L 820.120285 385.341375 
L 822.601264 385.549455 
L 823.428257 385.423967 
L 825.082243 385.397945 
L 825.909235 385.178018 
L 826.736228 385.09731 
L 827.563221 385.150644 
L 828.390214 385.577675 
L 831.698186 385.40376 
L 832.525178 385.397042 
L 833.352171 384.773312 
L 834.179164 384.994772 
L 837.487136 385.101996 
L 839.141121 384.796205 
L 839.968114 384.903922 
L 840.795107 383.76646 
L 841.6221 384.565382 
L 845.757064 384.598286 
L 848.238043 384.814794 
L 849.065036 385.769502 
L 850.719021 385.695659 
L 852.373007 385.682132 
L 852.373007 385.682132 
" clip-path="url(#p3e93b5d992)" style="fill: none; stroke-dasharray: 7.4,3.2; stroke-dashoffset: 0; stroke: #000000; stroke-width: 2"/>
   </g>
   <g id="patch_3">
    <path d="M 41.92 404.12 
L 41.92 12.69425 
" style="fill: none; stroke: #000000; stroke-width: 0.8; stroke-linejoin: miter; stroke-linecap: square"/>
   </g>
   <g id="patch_4">
    <path d="M 853.2 404.12 
L 853.2 12.69425 
" style="fill: none; stroke: #000000; stroke-width: 0.8; stroke-linejoin: miter; stroke-linecap: square"/>
   </g>
   <g id="patch_5">
    <path d="M 41.92 404.12 
L 853.2 404.12 
" style="fill: none; stroke: #000000; stroke-width: 0.8; stroke-linejoin: miter; stroke-linecap: square"/>
   </g>
   <g id="patch_6">
    <path d="M 41.92 12.69425 
L 853.2 12.69425 
" style="fill: none; stroke: #000000; stroke-width: 0.8; stroke-linejoin: miter; stroke-linecap: square"/>
   </g>
  </g>
 </g>
 <defs>
  <clipPath id="p3e93b5d992">
   <rect x="41.92" y="12.69425" width="811.28" height="391.42575"/>
  </clipPath>
 </defs>
</svg>
