<?xml version="1.0" encoding="utf-8" standalone="no"?>
<!DOCTYPE svg PUBLIC "-//W3C//DTD SVG 1.1//EN"
  "http://www.w3.org/Graphics/SVG/1.1/DTD/svg11.dtd">
<svg xmlns:xlink="http://www.w3.org/1999/xlink" width="864pt" height="432pt" viewBox="0 0 864 432" xmlns="http://www.w3.org/2000/svg" version="1.1">
 <metadata>
  <rdf:RDF xmlns:dc="http://purl.org/dc/elements/1.1/" xmlns:cc="http://creativecommons.org/ns#" xmlns:rdf="http://www.w3.org/1999/02/22-rdf-syntax-ns#">
   <cc:Work>
    <dc:type rdf:resource="http://purl.org/dc/dcmitype/StillImage"/>
    <dc:date>2024-09-19T15:56:05.743465</dc:date>
    <dc:format>image/svg+xml</dc:format>
    <dc:creator>
     <cc:Agent>
      <dc:title>Matplotlib v3.9.2, https://matplotlib.org/</dc:title>
     </cc:Agent>
    </dc:creator>
   </cc:Work>
  </rdf:RDF>
 </metadata>
 <defs>
  <style type="text/css">*{stroke-linejoin: round; stroke-linecap: butt}</style>
 </defs>
 <g id="figure_1">
  <g id="patch_1">
   <path d="M 0 432 
L 864 432 
L 864 0 
L 0 0 
z
" style="fill: #ffffff"/>
  </g>
  <g id="axes_1">
   <g id="patch_2">
    <path d="M 35.89 404.12 
L 853.2 404.12 
L 853.2 10.8 
L 35.89 10.8 
z
" style="fill: #ffffff"/>
   </g>
   <g id="matplotlib.axis_1">
    <g id="xtick_1">
     <g id="line2d_1">
      <defs>
       <path id="m22db32442a" d="M 0 0 
L 0 3.5 
" style="stroke: #000000; stroke-width: 0.8"/>
      </defs>
      <g>
       <use xlink:href="#m22db32442a" x="194.186534" y="404.12" style="stroke: #000000; stroke-width: 0.8"/>
      </g>
     </g>
     <g id="text_1">
      <!-- 200 -->
      <g transform="translate(185.156065 418.771563) scale(0.1 -0.1)">
       <defs>
        <path id="DejaVuSansMono-32" d="M 1166 531 
L 3309 531 
L 3309 0 
L 475 0 
L 475 531 
Q 1059 1147 1496 1619 
Q 1934 2091 2100 2284 
Q 2413 2666 2522 2902 
Q 2631 3138 2631 3384 
Q 2631 3775 2401 3997 
Q 2172 4219 1772 4219 
Q 1488 4219 1175 4116 
Q 863 4013 513 3803 
L 513 4441 
Q 834 4594 1145 4672 
Q 1456 4750 1759 4750 
Q 2444 4750 2861 4386 
Q 3278 4022 3278 3431 
Q 3278 3131 3139 2831 
Q 3000 2531 2688 2169 
Q 2513 1966 2180 1606 
Q 1847 1247 1166 531 
z
" transform="scale(0.015625)"/>
        <path id="DejaVuSansMono-30" d="M 1509 2344 
Q 1509 2516 1629 2641 
Q 1750 2766 1919 2766 
Q 2094 2766 2219 2641 
Q 2344 2516 2344 2344 
Q 2344 2169 2220 2047 
Q 2097 1925 1919 1925 
Q 1744 1925 1626 2044 
Q 1509 2163 1509 2344 
z
M 1925 4250 
Q 1484 4250 1267 3775 
Q 1050 3300 1050 2328 
Q 1050 1359 1267 884 
Q 1484 409 1925 409 
Q 2369 409 2586 884 
Q 2803 1359 2803 2328 
Q 2803 3300 2586 3775 
Q 2369 4250 1925 4250 
z
M 1925 4750 
Q 2672 4750 3055 4137 
Q 3438 3525 3438 2328 
Q 3438 1134 3055 521 
Q 2672 -91 1925 -91 
Q 1178 -91 797 521 
Q 416 1134 416 2328 
Q 416 3525 797 4137 
Q 1178 4750 1925 4750 
z
" transform="scale(0.015625)"/>
       </defs>
       <use xlink:href="#DejaVuSansMono-32"/>
       <use xlink:href="#DejaVuSansMono-30" x="60.205078"/>
       <use xlink:href="#DejaVuSansMono-30" x="120.410156"/>
      </g>
     </g>
    </g>
    <g id="xtick_2">
     <g id="line2d_2">
      <g>
       <use xlink:href="#m22db32442a" x="360.814465" y="404.12" style="stroke: #000000; stroke-width: 0.8"/>
      </g>
     </g>
     <g id="text_2">
      <!-- 400 -->
      <g transform="translate(351.783996 418.771563) scale(0.1 -0.1)">
       <defs>
        <path id="DejaVuSansMono-34" d="M 2297 4091 
L 825 1625 
L 2297 1625 
L 2297 4091 
z
M 2194 4666 
L 2925 4666 
L 2925 1625 
L 3547 1625 
L 3547 1113 
L 2925 1113 
L 2925 0 
L 2297 0 
L 2297 1113 
L 319 1113 
L 319 1709 
L 2194 4666 
z
" transform="scale(0.015625)"/>
       </defs>
       <use xlink:href="#DejaVuSansMono-34"/>
       <use xlink:href="#DejaVuSansMono-30" x="60.205078"/>
       <use xlink:href="#DejaVuSansMono-30" x="120.410156"/>
      </g>
     </g>
    </g>
    <g id="xtick_3">
     <g id="line2d_3">
      <g>
       <use xlink:href="#m22db32442a" x="527.442396" y="404.12" style="stroke: #000000; stroke-width: 0.8"/>
      </g>
     </g>
     <g id="text_3">
      <!-- 600 -->
      <g transform="translate(518.411927 418.771563) scale(0.1 -0.1)">
       <defs>
        <path id="DejaVuSansMono-36" d="M 3097 4563 
L 3097 3981 
Q 2900 4097 2678 4158 
Q 2456 4219 2216 4219 
Q 1616 4219 1306 3767 
Q 997 3316 997 2438 
Q 1147 2750 1412 2917 
Q 1678 3084 2022 3084 
Q 2697 3084 3067 2670 
Q 3438 2256 3438 1497 
Q 3438 741 3056 325 
Q 2675 -91 1984 -91 
Q 1172 -91 794 492 
Q 416 1075 416 2328 
Q 416 3509 870 4129 
Q 1325 4750 2188 4750 
Q 2419 4750 2650 4701 
Q 2881 4653 3097 4563 
z
M 1972 2591 
Q 1569 2591 1337 2300 
Q 1106 2009 1106 1497 
Q 1106 984 1337 693 
Q 1569 403 1972 403 
Q 2391 403 2603 679 
Q 2816 956 2816 1497 
Q 2816 2041 2603 2316 
Q 2391 2591 1972 2591 
z
" transform="scale(0.015625)"/>
       </defs>
       <use xlink:href="#DejaVuSansMono-36"/>
       <use xlink:href="#DejaVuSansMono-30" x="60.205078"/>
       <use xlink:href="#DejaVuSansMono-30" x="120.410156"/>
      </g>
     </g>
    </g>
    <g id="xtick_4">
     <g id="line2d_4">
      <g>
       <use xlink:href="#m22db32442a" x="694.070326" y="404.12" style="stroke: #000000; stroke-width: 0.8"/>
      </g>
     </g>
     <g id="text_4">
      <!-- 800 -->
      <g transform="translate(685.039857 418.771563) scale(0.1 -0.1)">
       <defs>
        <path id="DejaVuSansMono-38" d="M 1925 2216 
Q 1503 2216 1273 1980 
Q 1044 1744 1044 1313 
Q 1044 881 1276 642 
Q 1509 403 1925 403 
Q 2350 403 2579 639 
Q 2809 875 2809 1313 
Q 2809 1741 2576 1978 
Q 2344 2216 1925 2216 
z
M 1375 2478 
Q 972 2581 745 2862 
Q 519 3144 519 3541 
Q 519 4097 897 4423 
Q 1275 4750 1925 4750 
Q 2578 4750 2956 4423 
Q 3334 4097 3334 3541 
Q 3334 3144 3107 2862 
Q 2881 2581 2478 2478 
Q 2947 2375 3195 2062 
Q 3444 1750 3444 1253 
Q 3444 622 3041 265 
Q 2638 -91 1925 -91 
Q 1213 -91 811 264 
Q 409 619 409 1247 
Q 409 1747 657 2061 
Q 906 2375 1375 2478 
z
M 1147 3481 
Q 1147 3106 1347 2909 
Q 1547 2713 1925 2713 
Q 2306 2713 2506 2909 
Q 2706 3106 2706 3481 
Q 2706 3863 2507 4063 
Q 2309 4263 1925 4263 
Q 1547 4263 1347 4061 
Q 1147 3859 1147 3481 
z
" transform="scale(0.015625)"/>
       </defs>
       <use xlink:href="#DejaVuSansMono-38"/>
       <use xlink:href="#DejaVuSansMono-30" x="60.205078"/>
       <use xlink:href="#DejaVuSansMono-30" x="120.410156"/>
      </g>
     </g>
    </g>
   </g>
   <g id="matplotlib.axis_2">
    <g id="ytick_1">
     <g id="line2d_5">
      <defs>
       <path id="m7a5fa70335" d="M 0 0 
L -3.5 0 
" style="stroke: #000000; stroke-width: 0.8"/>
      </defs>
      <g>
       <use xlink:href="#m7a5fa70335" x="35.89" y="395.9012" style="stroke: #000000; stroke-width: 0.8"/>
      </g>
     </g>
     <g id="text_5">
      <!-- 0.0 -->
      <g transform="translate(10.829063 399.726981) scale(0.1 -0.1)">
       <defs>
        <path id="DejaVuSansMono-2e" d="M 1528 953 
L 2316 953 
L 2316 0 
L 1528 0 
L 1528 953 
z
" transform="scale(0.015625)"/>
       </defs>
       <use xlink:href="#DejaVuSansMono-30"/>
       <use xlink:href="#DejaVuSansMono-2e" x="60.205078"/>
       <use xlink:href="#DejaVuSansMono-30" x="120.410156"/>
      </g>
     </g>
    </g>
    <g id="ytick_2">
     <g id="line2d_6">
      <g>
       <use xlink:href="#m7a5fa70335" x="35.89" y="322.456596" style="stroke: #000000; stroke-width: 0.8"/>
      </g>
     </g>
     <g id="text_6">
      <!-- 0.2 -->
      <g transform="translate(10.829063 326.282377) scale(0.1 -0.1)">
       <use xlink:href="#DejaVuSansMono-30"/>
       <use xlink:href="#DejaVuSansMono-2e" x="60.205078"/>
       <use xlink:href="#DejaVuSansMono-32" x="120.410156"/>
      </g>
     </g>
    </g>
    <g id="ytick_3">
     <g id="line2d_7">
      <g>
       <use xlink:href="#m7a5fa70335" x="35.89" y="249.011992" style="stroke: #000000; stroke-width: 0.8"/>
      </g>
     </g>
     <g id="text_7">
      <!-- 0.4 -->
      <g transform="translate(10.829063 252.837774) scale(0.1 -0.1)">
       <use xlink:href="#DejaVuSansMono-30"/>
       <use xlink:href="#DejaVuSansMono-2e" x="60.205078"/>
       <use xlink:href="#DejaVuSansMono-34" x="120.410156"/>
      </g>
     </g>
    </g>
    <g id="ytick_4">
     <g id="line2d_8">
      <g>
       <use xlink:href="#m7a5fa70335" x="35.89" y="175.567389" style="stroke: #000000; stroke-width: 0.8"/>
      </g>
     </g>
     <g id="text_8">
      <!-- 0.6 -->
      <g transform="translate(10.829063 179.39317) scale(0.1 -0.1)">
       <use xlink:href="#DejaVuSansMono-30"/>
       <use xlink:href="#DejaVuSansMono-2e" x="60.205078"/>
       <use xlink:href="#DejaVuSansMono-36" x="120.410156"/>
      </g>
     </g>
    </g>
    <g id="ytick_5">
     <g id="line2d_9">
      <g>
       <use xlink:href="#m7a5fa70335" x="35.89" y="102.122785" style="stroke: #000000; stroke-width: 0.8"/>
      </g>
     </g>
     <g id="text_9">
      <!-- 0.8 -->
      <g transform="translate(10.829063 105.948567) scale(0.1 -0.1)">
       <use xlink:href="#DejaVuSansMono-30"/>
       <use xlink:href="#DejaVuSansMono-2e" x="60.205078"/>
       <use xlink:href="#DejaVuSansMono-38" x="120.410156"/>
      </g>
     </g>
    </g>
    <g id="ytick_6">
     <g id="line2d_10">
      <g>
       <use xlink:href="#m7a5fa70335" x="35.89" y="28.678182" style="stroke: #000000; stroke-width: 0.8"/>
      </g>
     </g>
     <g id="text_10">
      <!-- 1.0 -->
      <g transform="translate(10.829063 32.503963) scale(0.1 -0.1)">
       <defs>
        <path id="DejaVuSansMono-31" d="M 844 531 
L 1825 531 
L 1825 4097 
L 769 3859 
L 769 4434 
L 1819 4666 
L 2450 4666 
L 2450 531 
L 3419 531 
L 3419 0 
L 844 0 
L 844 531 
z
" transform="scale(0.015625)"/>
       </defs>
       <use xlink:href="#DejaVuSansMono-31"/>
       <use xlink:href="#DejaVuSansMono-2e" x="60.205078"/>
       <use xlink:href="#DejaVuSansMono-30" x="120.410156"/>
      </g>
     </g>
    </g>
   </g>
   <g id="line2d_11">
    <path d="M 27.558603 345.332221 
L 28.391743 343.082763 
L 29.224883 352.786583 
L 30.058022 353.830334 
L 30.891162 346.266126 
L 31.724302 343.724762 
L 32.557441 333.822564 
L 33.390581 332.9501 
L 34.223721 335.068694 
L 35.05686 332.870201 
L 35.89 332.044981 
L 36.72314 343.511017 
L 37.556279 341.860577 
L 38.389419 337.907013 
L 40.888838 368.583251 
L 41.721978 361.808423 
L 42.555117 361.808423 
L 43.388257 372.048296 
L 44.221397 372.873516 
L 45.054536 362.206271 
L 45.887676 362.065379 
L 46.720815 372.91515 
L 47.553955 372.91515 
L 48.387095 362.30943 
L 49.220234 357.824264 
L 50.053374 368.351736 
L 50.886514 368.351736 
L 52.552793 348.28852 
L 53.385933 352.184278 
L 54.219072 353.975609 
L 55.052212 353.975609 
L 55.885352 343.308363 
L 56.718491 353.914083 
L 57.551631 358.399249 
L 59.21791 338.236527 
L 60.05105 337.8604 
L 60.88419 337.270702 
L 61.717329 333.374944 
L 63.383609 333.374944 
L 64.216748 339.896124 
L 65.883028 318.424418 
L 66.716167 329.091664 
L 67.549307 336.972974 
L 70.048726 368.66926 
L 71.715005 368.66926 
L 72.548145 372.815327 
L 73.381284 383.482573 
L 74.214424 383.619787 
L 75.047564 383.619787 
L 75.880703 385.233954 
L 76.713843 374.566708 
L 77.546983 374.566708 
L 78.380122 363.80651 
L 79.213262 363.80651 
L 80.046402 361.273938 
L 81.712681 361.273938 
L 82.545821 371.941184 
L 83.37896 371.941184 
L 84.2121 361.220243 
L 85.04524 371.887489 
L 85.878379 371.887489 
L 86.711519 382.647686 
L 87.544659 382.647686 
L 88.377798 374.513013 
L 91.710357 374.513013 
L 92.543496 385.233954 
L 97.542334 385.233954 
L 98.375474 376.620081 
L 100.874893 344.353582 
L 101.708033 344.353582 
L 102.541172 333.686336 
L 105.873731 333.650599 
L 106.706871 331.826284 
L 108.37315 331.733333 
L 109.20629 331.998094 
L 110.039429 331.998094 
L 110.872569 332.822249 
L 112.538848 332.822249 
L 113.371988 343.525232 
L 114.205127 332.959517 
L 115.038267 332.853678 
L 115.871407 343.613876 
L 118.370826 343.613876 
L 119.203965 342.78972 
L 120.037105 342.78972 
L 120.870245 334.343591 
L 121.703384 334.343591 
L 122.536524 344.909305 
L 123.369664 344.786086 
L 124.202803 344.786086 
L 125.869083 366.120578 
L 126.702222 366.120578 
L 127.535362 376.787824 
L 128.368502 365.191307 
L 129.201641 373.637437 
L 130.86792 373.637437 
L 131.70106 384.304683 
L 133.367339 361.891004 
L 135.866758 361.891004 
L 136.699898 362.496691 
L 138.366177 362.496691 
L 139.199317 352.099815 
L 140.032457 352.099815 
L 141.698736 374.513493 
L 143.365015 353.049262 
L 144.198155 345.066153 
L 145.031295 350.991838 
L 146.697574 350.991838 
L 147.530714 361.388714 
L 149.196993 361.388714 
L 150.030133 350.075278 
L 151.696412 371.539509 
L 152.529551 379.522618 
L 153.362691 384.587764 
L 154.195831 384.587764 
L 155.02897 373.677514 
L 157.528389 373.677514 
L 158.361529 383.492081 
L 162.527227 383.492081 
L 163.360367 386.241818 
L 165.026646 386.241818 
L 165.859786 384.695616 
L 166.692926 386.194485 
L 170.858624 386.194485 
L 171.691764 384.511906 
L 173.358043 384.511906 
L 174.191182 386.058108 
L 175.024322 386.058108 
L 175.857462 375.331662 
L 179.19002 375.331662 
L 180.02316 385.174754 
L 180.8563 384.349534 
L 183.355719 384.349534 
L 184.188858 383.479462 
L 186.688277 383.479462 
L 187.521417 380.35416 
L 188.354557 369.666789 
L 189.187696 365.10158 
L 190.020836 365.10158 
L 191.687115 342.845513 
L 192.520255 343.756945 
L 193.353394 342.922348 
L 194.186534 342.922348 
L 195.019674 334.70477 
L 195.852813 337.830072 
L 196.685953 347.692223 
L 197.519093 342.497988 
L 198.352232 342.497988 
L 199.185372 340.518527 
L 200.018512 352.071611 
L 200.851651 361.177242 
L 201.684791 362.01184 
L 202.517931 362.01184 
L 203.35107 370.229418 
L 204.18421 370.229418 
L 205.01735 369.458016 
L 205.850489 369.339697 
L 206.683629 358.564518 
L 207.516769 360.361647 
L 208.349908 354.759939 
L 209.183048 354.742771 
L 210.016188 353.092331 
L 210.849327 352.257733 
L 212.515607 352.257733 
L 213.348746 343.094954 
L 214.181886 342.557986 
L 215.015025 341.815377 
L 215.848165 352.700693 
L 216.681305 358.3024 
L 218.347584 361.549462 
L 219.180724 362.38406 
L 220.013863 358.818788 
L 220.847003 350.382584 
L 221.680143 361.141984 
L 222.513282 362.919747 
L 223.346422 372.211941 
L 224.179562 365.365411 
L 225.012701 356.690852 
L 226.678981 355.021656 
L 227.51212 343.77655 
L 228.34526 347.341822 
L 229.1784 342.83492 
L 230.011539 342.000322 
L 230.844679 351.46251 
L 231.677819 348.622959 
L 232.510958 350.37927 
L 233.344098 355.147201 
L 234.177238 345.78116 
L 235.010377 338.675801 
L 235.843517 346.727663 
L 236.676656 345.113496 
L 237.509796 350.907128 
L 238.342936 345.446473 
L 240.009215 326.756313 
L 240.842355 324.982552 
L 241.675494 319.859106 
L 242.508634 316.542331 
L 243.341774 310.992463 
L 244.174913 302.094216 
L 245.008053 296.158003 
L 245.841193 291.966768 
L 246.674332 291.517107 
L 247.507472 289.185531 
L 248.340612 290.25867 
L 249.173751 282.582857 
L 250.006891 282.899164 
L 250.840031 285.252997 
L 251.67317 292.747345 
L 252.50631 295.65826 
L 253.33945 293.599066 
L 254.172589 294.103687 
L 255.005729 288.892502 
L 255.838869 286.513964 
L 256.672008 284.508452 
L 257.505148 284.103123 
L 259.171427 270.797355 
L 260.004567 259.383741 
L 260.837706 250.400597 
L 261.670846 245.679517 
L 263.337125 233.384725 
L 264.170265 231.100113 
L 265.003405 234.209832 
L 265.836544 232.892221 
L 266.669684 230.802705 
L 268.335963 227.861626 
L 269.169103 231.419885 
L 270.002243 230.422969 
L 270.835382 225.67067 
L 271.668522 229.346301 
L 272.501662 227.622963 
L 275.001081 211.371957 
L 275.83422 209.2131 
L 276.66736 206.017655 
L 277.500499 201.149167 
L 278.333639 193.202041 
L 279.166779 192.337989 
L 279.999918 185.863384 
L 280.833058 183.775495 
L 281.666198 182.069368 
L 282.499337 179.833289 
L 283.332477 181.324913 
L 284.165617 178.458745 
L 284.998756 176.610823 
L 285.831896 173.403351 
L 287.498175 185.672351 
L 288.331315 182.227716 
L 289.164455 179.402921 
L 289.997594 174.779458 
L 290.830734 173.423683 
L 291.663874 169.615255 
L 292.497013 167.977304 
L 293.330153 165.168103 
L 294.163293 161.762643 
L 294.996432 153.353935 
L 295.829572 142.243654 
L 296.662712 140.410811 
L 299.16213 126.267146 
L 299.99527 123.115545 
L 300.82841 120.405344 
L 301.661549 121.472204 
L 303.327829 118.578702 
L 304.160968 115.515068 
L 304.994108 114.38045 
L 306.660387 111.236584 
L 307.493527 112.205109 
L 308.326667 111.581424 
L 309.159806 108.284764 
L 309.992946 104.291547 
L 310.826086 102.406336 
L 311.659225 99.306536 
L 312.492365 101.961997 
L 313.325505 98.252674 
L 314.158644 100.905515 
L 314.991784 103.107851 
L 315.824924 100.632188 
L 316.658063 101.101725 
L 317.491203 103.624018 
L 318.324343 102.068303 
L 319.157482 99.910609 
L 319.990622 98.720449 
L 320.823761 94.947836 
L 321.656901 99.065186 
L 323.32318 92.017228 
L 324.15632 92.222504 
L 324.98946 89.684548 
L 326.655739 86.71317 
L 328.322018 81.673601 
L 329.155158 78.49937 
L 329.988298 70.773662 
L 330.821437 66.156294 
L 332.487717 59.034452 
L 333.320856 56.818883 
L 334.153996 56.787815 
L 334.987136 56.228309 
L 335.820275 55.19343 
L 336.653415 53.778345 
L 337.486555 53.553735 
L 338.319694 52.442301 
L 339.152834 52.442301 
L 339.985973 51.841069 
L 340.819113 49.698184 
L 341.652253 47.972595 
L 342.485392 43.484315 
L 343.318532 40.568019 
L 344.984811 38.525813 
L 345.817951 38.701899 
L 346.651091 38.487233 
L 347.48423 39.466021 
L 348.31737 39.261003 
L 349.15051 40.058506 
L 349.983649 41.201545 
L 350.816789 41.415815 
L 351.649929 43.546605 
L 352.483068 44.402954 
L 353.316208 44.617688 
L 354.149348 43.160718 
L 354.982487 43.592533 
L 355.815627 42.790236 
L 356.648767 42.363344 
L 357.481906 41.768596 
L 359.148186 39.031045 
L 359.981325 37.107683 
L 360.814465 36.647574 
L 361.647604 37.44465 
L 362.480744 37.437539 
L 364.147023 36.18999 
L 364.980163 36.607291 
L 365.813303 35.987235 
L 366.646442 35.530302 
L 367.479582 35.540005 
L 368.312722 35.120323 
L 369.145861 34.304401 
L 369.979001 33.914922 
L 370.812141 33.914922 
L 371.64528 35.298841 
L 372.47842 35.291729 
L 373.31156 35.69496 
L 374.144699 35.907186 
L 374.977839 35.704663 
L 376.644118 36.524831 
L 377.477258 37.539067 
L 378.310398 36.91431 
L 379.143537 38.097912 
L 379.976677 37.126496 
L 380.809817 37.348274 
L 381.642956 37.348274 
L 382.476096 37.572757 
L 384.142375 38.389242 
L 384.975515 38.193831 
L 385.808654 36.969753 
L 386.641794 36.969753 
L 387.474934 35.786151 
L 388.308073 36.37175 
L 389.141213 36.553323 
L 389.974353 35.315493 
L 392.473772 33.449763 
L 393.306911 33.449763 
L 394.140051 33.66203 
L 394.973191 34.306196 
L 395.80633 36.052963 
L 396.63947 35.255178 
L 397.47261 35.453492 
L 398.305749 36.479256 
L 399.138889 37.292753 
L 399.972029 37.295178 
L 401.638308 37.678668 
L 402.471448 37.678668 
L 403.304587 37.034502 
L 404.137727 34.665322 
L 404.970866 34.465005 
L 406.637146 32.425006 
L 407.470285 31.821338 
L 408.303425 32.031167 
L 409.136565 31.415789 
L 409.969704 31.611485 
L 410.802844 32.424982 
L 411.635984 32.215139 
L 412.469123 32.637236 
L 413.302263 32.637236 
L 414.135403 32.84949 
L 415.801682 34.082682 
L 416.634822 34.077884 
L 417.467961 34.295044 
L 418.301101 33.469823 
L 419.134241 32.866156 
L 420.80052 32.861358 
L 422.466799 32.439275 
L 423.299939 32.663758 
L 424.133078 31.847836 
L 424.966218 31.642805 
L 425.799358 31.633102 
L 426.632497 32.262626 
L 427.465637 32.66575 
L 428.298777 33.49097 
L 429.131916 33.49097 
L 429.965056 34.505205 
L 430.798196 34.719939 
L 431.631335 34.078199 
L 432.464475 34.295359 
L 433.297615 34.083091 
L 434.130754 33.665793 
L 434.963894 33.036269 
L 435.797034 32.833461 
L 436.630173 32.42554 
L 437.463313 32.833461 
L 438.296453 31.609384 
L 439.962732 31.597255 
L 440.795872 31.380096 
L 441.629011 31.380096 
L 442.462151 32.691608 
L 443.295291 33.108907 
L 444.12843 32.696336 
L 444.96157 32.90145 
L 445.794709 32.90145 
L 446.627849 33.113718 
L 448.294128 33.120941 
L 449.127268 32.911099 
L 449.960408 32.911099 
L 450.793547 31.599586 
L 451.626687 31.394555 
L 452.459827 31.60681 
L 453.292966 31.194239 
L 454.126106 30.581286 
L 454.959246 30.581286 
L 455.792385 30.15919 
L 456.625525 30.576447 
L 458.291804 30.576447 
L 459.124944 30.788714 
L 459.958084 30.786289 
L 462.457503 30.151925 
L 464.123782 30.1495 
L 464.956922 29.732243 
L 465.790061 30.159245 
L 466.623201 30.781657 
L 469.12262 30.149706 
L 473.288318 30.149706 
L 474.121458 29.722704 
L 474.954597 29.100291 
L 477.454016 29.100291 
L 478.287156 29.312559 
L 479.120296 29.312559 
L 479.953435 29.102717 
L 480.786575 29.314984 
L 481.619715 29.102717 
L 484.119134 29.102717 
L 484.952273 29.725129 
L 486.618552 30.140003 
L 487.451692 32.323493 
L 488.284832 32.53576 
L 489.117971 32.323493 
L 489.951111 32.323493 
L 490.784251 32.53576 
L 491.61739 32.953058 
L 492.45053 33.165326 
L 493.28367 32.960211 
L 494.116809 33.172466 
L 494.949949 32.967435 
L 495.783089 30.996212 
L 497.449368 30.993787 
L 498.282508 31.203629 
L 499.115647 30.991362 
L 499.948787 30.991362 
L 500.781927 30.779094 
L 501.615066 30.361796 
L 502.448206 30.149541 
L 503.281346 30.149541 
L 504.114485 29.937274 
L 504.947625 29.937274 
L 505.780765 30.149541 
L 506.613904 29.939699 
L 507.447044 29.939699 
L 508.280183 29.522401 
L 509.113323 29.939699 
L 509.946463 29.939699 
L 511.612742 29.51759 
L 512.445882 29.51759 
L 513.279021 29.725046 
L 514.112161 29.512779 
L 514.945301 29.725046 
L 516.61158 29.725046 
L 517.44472 29.307748 
L 520.777278 29.307748 
L 521.610418 29.754503 
L 523.276697 30.174174 
L 524.942977 30.174174 
L 525.776116 30.384017 
L 526.609256 30.384017 
L 528.275535 31.218614 
L 529.108675 31.855416 
L 529.941814 31.201204 
L 530.774954 31.40866 
L 531.608094 30.986564 
L 532.441233 30.986564 
L 533.274373 31.196406 
L 534.107513 31.196406 
L 534.940652 31.613704 
L 536.606932 30.779107 
L 537.440071 30.142305 
L 538.273211 30.349762 
L 539.106351 29.932463 
L 540.77263 29.932463 
L 542.438909 29.512779 
L 543.272049 29.09548 
L 544.105189 29.307748 
L 544.938328 29.307748 
L 545.771468 29.725046 
L 546.604608 29.307748 
L 547.437747 29.307748 
L 548.270887 29.51759 
L 549.104027 29.51759 
L 550.770306 30.356985 
L 552.436585 30.354559 
L 553.269725 30.776656 
L 554.102864 30.571625 
L 554.936004 30.571625 
L 555.769144 30.783892 
L 556.602283 30.786317 
L 557.435423 30.996159 
L 558.268563 30.991362 
L 559.101702 30.78633 
L 559.934842 30.996173 
L 560.767982 30.78633 
L 561.601121 30.364234 
L 562.434261 30.569265 
L 563.267401 30.569265 
L 564.93368 30.14473 
L 565.76682 30.356985 
L 566.599959 30.151954 
L 567.433099 30.356985 
L 568.266239 30.356985 
L 569.099378 30.774283 
L 569.932518 30.774283 
L 570.765657 31.394339 
L 571.598797 31.811637 
L 573.265076 31.811637 
L 574.098216 31.389541 
L 574.931356 31.389541 
L 576.597635 30.974667 
L 577.430775 30.557369 
L 578.263914 30.974667 
L 579.097054 29.937314 
L 579.930194 29.520015 
L 580.763333 29.520015 
L 581.596473 30.345235 
L 582.429613 30.555077 
L 583.262752 30.555077 
L 584.095892 30.34281 
L 585.762171 30.764919 
L 586.595311 30.347621 
L 589.09473 30.347621 
L 589.92787 29.522401 
L 591.594149 29.100291 
L 592.427288 29.100291 
L 594.093568 29.517577 
L 594.926707 29.517577 
L 595.759847 29.727419 
L 600.758685 29.727419 
L 602.424964 28.888024 
L 603.258104 29.713244 
L 604.091244 29.503402 
L 606.590663 29.503402 
L 609.090082 30.140204 
L 610.756361 30.140204 
L 611.589501 29.73708 
L 613.25578 29.73708 
L 614.088919 29.946922 
L 615.755199 29.944497 
L 616.588338 29.73223 
L 619.087757 30.356945 
L 619.920897 29.934849 
L 620.754037 29.934849 
L 621.587176 30.557262 
L 622.420316 30.34742 
L 623.253456 30.34742 
L 624.086595 30.137577 
L 624.919735 30.349845 
L 625.752875 29.932546 
L 626.586014 29.722704 
L 629.085433 29.725129 
L 629.918573 29.102717 
L 632.417992 29.102717 
L 633.251131 28.890449 
L 634.084271 29.102717 
L 635.75055 29.100291 
L 636.58369 29.310133 
L 638.249969 29.310133 
L 639.083109 29.522401 
L 641.582528 29.522401 
L 642.415668 29.737135 
L 643.248807 29.737135 
L 644.915087 29.317451 
L 646.581366 29.317451 
L 647.414506 29.105183 
L 649.913925 29.105183 
L 650.747064 28.678182 
L 653.246483 29.307708 
L 655.745902 29.307708 
L 656.579042 29.519976 
L 659.078461 29.519976 
L 660.74474 29.100291 
L 661.57788 29.102717 
L 662.411019 29.520015 
L 663.244159 29.520015 
L 664.077299 29.729857 
L 664.910438 29.51759 
L 666.576718 29.939699 
L 668.242997 29.939699 
L 669.076137 30.151967 
L 670.742416 30.154339 
L 671.575556 30.571638 
L 673.241835 30.574063 
L 674.074975 30.361796 
L 674.908114 30.569252 
L 676.574393 30.569252 
L 677.407533 30.356985 
L 678.240673 30.35941 
L 679.073812 30.147156 
L 679.906952 29.729857 
L 680.740092 29.727432 
L 681.573231 30.14473 
L 683.239511 30.14473 
L 684.07265 30.354573 
L 685.73893 30.354573 
L 687.405209 29.932463 
L 688.238349 29.932463 
L 689.071488 29.722621 
L 689.904628 29.305322 
L 690.737768 29.51759 
L 691.570907 29.100291 
L 692.404047 28.890449 
L 698.236024 28.890449 
L 699.069164 28.678182 
L 699.902304 29.100278 
L 700.735443 29.31012 
L 706.567421 29.31012 
L 707.400561 29.519962 
L 709.06684 29.097866 
L 713.232538 29.097866 
L 714.898818 29.522401 
L 715.731957 29.312559 
L 716.565097 29.312559 
L 718.231376 29.732243 
L 720.730795 29.732243 
L 721.563935 29.942085 
L 723.230214 29.51755 
L 724.063354 29.51755 
L 725.729633 29.097866 
L 727.395912 29.524868 
L 729.062192 29.524868 
L 729.895331 29.315025 
L 730.728471 29.524868 
L 732.39475 29.524868 
L 734.06103 29.944552 
L 734.894169 29.727393 
L 741.559286 29.732243 
L 742.392426 29.522401 
L 743.225566 29.524826 
L 744.058705 29.314984 
L 744.891845 29.314984 
L 745.724985 29.524826 
L 746.558124 30.945024 
L 747.391264 31.35517 
L 749.057543 31.35517 
L 749.890683 31.142902 
L 750.723823 31.142902 
L 751.556962 31.357636 
L 753.223242 31.357636 
L 754.056381 31.147794 
L 754.889521 29.727596 
L 755.722661 29.105183 
L 757.38894 29.105183 
L 758.22208 29.522482 
L 759.055219 29.732324 
L 759.888359 29.305322 
L 760.721498 29.515165 
L 761.554638 29.515165 
L 762.387778 29.727432 
L 765.720336 29.727432 
L 766.553476 29.310133 
L 767.386616 29.100291 
L 768.219755 29.100291 
L 769.052895 28.890449 
L 769.886035 29.100291 
L 770.719174 28.888024 
L 771.552314 29.510437 
L 775.718012 29.510437 
L 776.551152 29.720279 
L 777.384292 29.720279 
L 778.217431 29.510437 
L 779.050571 29.510437 
L 779.88371 28.888024 
L 783.216269 28.888024 
L 784.049409 29.100291 
L 787.381967 29.100291 
L 788.215107 29.310133 
L 791.547666 29.310133 
L 793.213945 28.888024 
L 794.880224 29.310133 
L 795.713364 29.310133 
L 796.546504 29.100291 
L 797.379643 29.312559 
L 801.545341 29.312559 
L 803.211621 28.890449 
L 804.8779 28.890449 
L 805.71104 28.678182 
L 806.544179 29.100278 
L 809.043598 29.100278 
L 809.876738 29.31012 
L 813.209297 29.31012 
L 814.042436 29.519962 
L 814.875576 29.097866 
L 817.374995 29.097866 
L 818.208135 28.888024 
L 819.874414 29.307708 
L 821.540693 29.307708 
L 822.373833 29.097866 
L 823.206972 29.307708 
L 824.040112 29.307708 
L 825.706391 29.732243 
L 827.372671 29.734668 
L 828.20581 29.524826 
L 829.03895 29.524826 
L 829.87209 29.734668 
L 832.371509 29.734668 
L 833.204648 30.347621 
L 834.037788 30.135354 
L 834.870928 30.135354 
L 835.704067 29.923086 
L 838.203486 29.925511 
L 839.036626 30.137779 
L 839.869766 29.927937 
L 840.702905 30.572189 
L 841.536045 29.746969 
L 845.701743 29.746969 
L 846.534883 29.952 
L 847.368022 29.739733 
L 848.201162 29.739733 
L 849.034302 29.305322 
L 849.867441 29.515165 
L 852.36686 29.515165 
L 852.36686 29.515165 
" clip-path="url(#pb96e58b66d)" style="fill: none; stroke-dasharray: 7.4,3.2; stroke-dashoffset: 0; stroke: #000000; stroke-width: 2"/>
   </g>
   <g id="patch_3">
    <path d="M 35.89 404.12 
L 35.89 10.8 
" style="fill: none; stroke: #000000; stroke-width: 0.8; stroke-linejoin: miter; stroke-linecap: square"/>
   </g>
   <g id="patch_4">
    <path d="M 853.2 404.12 
L 853.2 10.8 
" style="fill: none; stroke: #000000; stroke-width: 0.8; stroke-linejoin: miter; stroke-linecap: square"/>
   </g>
   <g id="patch_5">
    <path d="M 35.89 404.12 
L 853.2 404.12 
" style="fill: none; stroke: #000000; stroke-width: 0.8; stroke-linejoin: miter; stroke-linecap: square"/>
   </g>
   <g id="patch_6">
    <path d="M 35.89 10.8 
L 853.2 10.8 
" style="fill: none; stroke: #000000; stroke-width: 0.8; stroke-linejoin: miter; stroke-linecap: square"/>
   </g>
  </g>
 </g>
 <defs>
  <clipPath id="pb96e58b66d">
   <rect x="35.89" y="10.8" width="817.31" height="393.32"/>
  </clipPath>
 </defs>
</svg>
