<?xml version="1.0" encoding="utf-8" standalone="no"?>
<!DOCTYPE svg PUBLIC "-//W3C//DTD SVG 1.1//EN"
  "http://www.w3.org/Graphics/SVG/1.1/DTD/svg11.dtd">
<svg xmlns:xlink="http://www.w3.org/1999/xlink" width="864pt" height="432pt" viewBox="0 0 864 432" xmlns="http://www.w3.org/2000/svg" version="1.1">
 <metadata>
  <rdf:RDF xmlns:dc="http://purl.org/dc/elements/1.1/" xmlns:cc="http://creativecommons.org/ns#" xmlns:rdf="http://www.w3.org/1999/02/22-rdf-syntax-ns#">
   <cc:Work>
    <dc:type rdf:resource="http://purl.org/dc/dcmitype/StillImage"/>
    <dc:date>2024-09-18T11:29:04.937108</dc:date>
    <dc:format>image/svg+xml</dc:format>
    <dc:creator>
     <cc:Agent>
      <dc:title>Matplotlib v3.9.2, https://matplotlib.org/</dc:title>
     </cc:Agent>
    </dc:creator>
   </cc:Work>
  </rdf:RDF>
 </metadata>
 <defs>
  <style type="text/css">*{stroke-linejoin: round; stroke-linecap: butt}</style>
 </defs>
 <g id="figure_1">
  <g id="patch_1">
   <path d="M 0 432 
L 864 432 
L 864 0 
L 0 0 
z
" style="fill: #ffffff"/>
  </g>
  <g id="axes_1">
   <g id="patch_2">
    <path d="M 41.92 404.12 
L 853.2 404.12 
L 853.2 10.8 
L 41.92 10.8 
z
" style="fill: #ffffff"/>
   </g>
   <g id="matplotlib.axis_1">
    <g id="xtick_1">
     <g id="line2d_1">
      <defs>
       <path id="m9c5ac795c1" d="M 0 0 
L 0 3.5 
" style="stroke: #000000; stroke-width: 0.8"/>
      </defs>
      <g>
       <use xlink:href="#m9c5ac795c1" x="199.048644" y="404.12" style="stroke: #000000; stroke-width: 0.8"/>
      </g>
     </g>
     <g id="text_1">
      <!-- 200 -->
      <g transform="translate(190.018175 418.771563) scale(0.1 -0.1)">
       <defs>
        <path id="DejaVuSansMono-32" d="M 1166 531 
L 3309 531 
L 3309 0 
L 475 0 
L 475 531 
Q 1059 1147 1496 1619 
Q 1934 2091 2100 2284 
Q 2413 2666 2522 2902 
Q 2631 3138 2631 3384 
Q 2631 3775 2401 3997 
Q 2172 4219 1772 4219 
Q 1488 4219 1175 4116 
Q 863 4013 513 3803 
L 513 4441 
Q 834 4594 1145 4672 
Q 1456 4750 1759 4750 
Q 2444 4750 2861 4386 
Q 3278 4022 3278 3431 
Q 3278 3131 3139 2831 
Q 3000 2531 2688 2169 
Q 2513 1966 2180 1606 
Q 1847 1247 1166 531 
z
" transform="scale(0.015625)"/>
        <path id="DejaVuSansMono-30" d="M 1509 2344 
Q 1509 2516 1629 2641 
Q 1750 2766 1919 2766 
Q 2094 2766 2219 2641 
Q 2344 2516 2344 2344 
Q 2344 2169 2220 2047 
Q 2097 1925 1919 1925 
Q 1744 1925 1626 2044 
Q 1509 2163 1509 2344 
z
M 1925 4250 
Q 1484 4250 1267 3775 
Q 1050 3300 1050 2328 
Q 1050 1359 1267 884 
Q 1484 409 1925 409 
Q 2369 409 2586 884 
Q 2803 1359 2803 2328 
Q 2803 3300 2586 3775 
Q 2369 4250 1925 4250 
z
M 1925 4750 
Q 2672 4750 3055 4137 
Q 3438 3525 3438 2328 
Q 3438 1134 3055 521 
Q 2672 -91 1925 -91 
Q 1178 -91 797 521 
Q 416 1134 416 2328 
Q 416 3525 797 4137 
Q 1178 4750 1925 4750 
z
" transform="scale(0.015625)"/>
       </defs>
       <use xlink:href="#DejaVuSansMono-32"/>
       <use xlink:href="#DejaVuSansMono-30" x="60.205078"/>
       <use xlink:href="#DejaVuSansMono-30" x="120.410156"/>
      </g>
     </g>
    </g>
    <g id="xtick_2">
     <g id="line2d_2">
      <g>
       <use xlink:href="#m9c5ac795c1" x="364.447217" y="404.12" style="stroke: #000000; stroke-width: 0.8"/>
      </g>
     </g>
     <g id="text_2">
      <!-- 400 -->
      <g transform="translate(355.416748 418.771563) scale(0.1 -0.1)">
       <defs>
        <path id="DejaVuSansMono-34" d="M 2297 4091 
L 825 1625 
L 2297 1625 
L 2297 4091 
z
M 2194 4666 
L 2925 4666 
L 2925 1625 
L 3547 1625 
L 3547 1113 
L 2925 1113 
L 2925 0 
L 2297 0 
L 2297 1113 
L 319 1113 
L 319 1709 
L 2194 4666 
z
" transform="scale(0.015625)"/>
       </defs>
       <use xlink:href="#DejaVuSansMono-34"/>
       <use xlink:href="#DejaVuSansMono-30" x="60.205078"/>
       <use xlink:href="#DejaVuSansMono-30" x="120.410156"/>
      </g>
     </g>
    </g>
    <g id="xtick_3">
     <g id="line2d_3">
      <g>
       <use xlink:href="#m9c5ac795c1" x="529.84579" y="404.12" style="stroke: #000000; stroke-width: 0.8"/>
      </g>
     </g>
     <g id="text_3">
      <!-- 600 -->
      <g transform="translate(520.815321 418.771563) scale(0.1 -0.1)">
       <defs>
        <path id="DejaVuSansMono-36" d="M 3097 4563 
L 3097 3981 
Q 2900 4097 2678 4158 
Q 2456 4219 2216 4219 
Q 1616 4219 1306 3767 
Q 997 3316 997 2438 
Q 1147 2750 1412 2917 
Q 1678 3084 2022 3084 
Q 2697 3084 3067 2670 
Q 3438 2256 3438 1497 
Q 3438 741 3056 325 
Q 2675 -91 1984 -91 
Q 1172 -91 794 492 
Q 416 1075 416 2328 
Q 416 3509 870 4129 
Q 1325 4750 2188 4750 
Q 2419 4750 2650 4701 
Q 2881 4653 3097 4563 
z
M 1972 2591 
Q 1569 2591 1337 2300 
Q 1106 2009 1106 1497 
Q 1106 984 1337 693 
Q 1569 403 1972 403 
Q 2391 403 2603 679 
Q 2816 956 2816 1497 
Q 2816 2041 2603 2316 
Q 2391 2591 1972 2591 
z
" transform="scale(0.015625)"/>
       </defs>
       <use xlink:href="#DejaVuSansMono-36"/>
       <use xlink:href="#DejaVuSansMono-30" x="60.205078"/>
       <use xlink:href="#DejaVuSansMono-30" x="120.410156"/>
      </g>
     </g>
    </g>
    <g id="xtick_4">
     <g id="line2d_4">
      <g>
       <use xlink:href="#m9c5ac795c1" x="695.244363" y="404.12" style="stroke: #000000; stroke-width: 0.8"/>
      </g>
     </g>
     <g id="text_4">
      <!-- 800 -->
      <g transform="translate(686.213894 418.771563) scale(0.1 -0.1)">
       <defs>
        <path id="DejaVuSansMono-38" d="M 1925 2216 
Q 1503 2216 1273 1980 
Q 1044 1744 1044 1313 
Q 1044 881 1276 642 
Q 1509 403 1925 403 
Q 2350 403 2579 639 
Q 2809 875 2809 1313 
Q 2809 1741 2576 1978 
Q 2344 2216 1925 2216 
z
M 1375 2478 
Q 972 2581 745 2862 
Q 519 3144 519 3541 
Q 519 4097 897 4423 
Q 1275 4750 1925 4750 
Q 2578 4750 2956 4423 
Q 3334 4097 3334 3541 
Q 3334 3144 3107 2862 
Q 2881 2581 2478 2478 
Q 2947 2375 3195 2062 
Q 3444 1750 3444 1253 
Q 3444 622 3041 265 
Q 2638 -91 1925 -91 
Q 1213 -91 811 264 
Q 409 619 409 1247 
Q 409 1747 657 2061 
Q 906 2375 1375 2478 
z
M 1147 3481 
Q 1147 3106 1347 2909 
Q 1547 2713 1925 2713 
Q 2306 2713 2506 2909 
Q 2706 3106 2706 3481 
Q 2706 3863 2507 4063 
Q 2309 4263 1925 4263 
Q 1547 4263 1347 4061 
Q 1147 3859 1147 3481 
z
" transform="scale(0.015625)"/>
       </defs>
       <use xlink:href="#DejaVuSansMono-38"/>
       <use xlink:href="#DejaVuSansMono-30" x="60.205078"/>
       <use xlink:href="#DejaVuSansMono-30" x="120.410156"/>
      </g>
     </g>
    </g>
   </g>
   <g id="matplotlib.axis_2">
    <g id="ytick_1">
     <g id="line2d_5">
      <defs>
       <path id="m646c373c1c" d="M 0 0 
L -3.5 0 
" style="stroke: #000000; stroke-width: 0.8"/>
      </defs>
      <g>
       <use xlink:href="#m646c373c1c" x="41.92" y="349.389201" style="stroke: #000000; stroke-width: 0.8"/>
      </g>
     </g>
     <g id="text_5">
      <!-- 0.02 -->
      <g transform="translate(10.83875 353.214982) scale(0.1 -0.1)">
       <defs>
        <path id="DejaVuSansMono-2e" d="M 1528 953 
L 2316 953 
L 2316 0 
L 1528 0 
L 1528 953 
z
" transform="scale(0.015625)"/>
       </defs>
       <use xlink:href="#DejaVuSansMono-30"/>
       <use xlink:href="#DejaVuSansMono-2e" x="60.205078"/>
       <use xlink:href="#DejaVuSansMono-30" x="120.410156"/>
       <use xlink:href="#DejaVuSansMono-32" x="180.615234"/>
      </g>
     </g>
    </g>
    <g id="ytick_2">
     <g id="line2d_6">
      <g>
       <use xlink:href="#m646c373c1c" x="41.92" y="290.652603" style="stroke: #000000; stroke-width: 0.8"/>
      </g>
     </g>
     <g id="text_6">
      <!-- 0.04 -->
      <g transform="translate(10.83875 294.478384) scale(0.1 -0.1)">
       <use xlink:href="#DejaVuSansMono-30"/>
       <use xlink:href="#DejaVuSansMono-2e" x="60.205078"/>
       <use xlink:href="#DejaVuSansMono-30" x="120.410156"/>
       <use xlink:href="#DejaVuSansMono-34" x="180.615234"/>
      </g>
     </g>
    </g>
    <g id="ytick_3">
     <g id="line2d_7">
      <g>
       <use xlink:href="#m646c373c1c" x="41.92" y="231.916005" style="stroke: #000000; stroke-width: 0.8"/>
      </g>
     </g>
     <g id="text_7">
      <!-- 0.06 -->
      <g transform="translate(10.83875 235.741787) scale(0.1 -0.1)">
       <use xlink:href="#DejaVuSansMono-30"/>
       <use xlink:href="#DejaVuSansMono-2e" x="60.205078"/>
       <use xlink:href="#DejaVuSansMono-30" x="120.410156"/>
       <use xlink:href="#DejaVuSansMono-36" x="180.615234"/>
      </g>
     </g>
    </g>
    <g id="ytick_4">
     <g id="line2d_8">
      <g>
       <use xlink:href="#m646c373c1c" x="41.92" y="173.179408" style="stroke: #000000; stroke-width: 0.8"/>
      </g>
     </g>
     <g id="text_8">
      <!-- 0.08 -->
      <g transform="translate(10.83875 177.005189) scale(0.1 -0.1)">
       <use xlink:href="#DejaVuSansMono-30"/>
       <use xlink:href="#DejaVuSansMono-2e" x="60.205078"/>
       <use xlink:href="#DejaVuSansMono-30" x="120.410156"/>
       <use xlink:href="#DejaVuSansMono-38" x="180.615234"/>
      </g>
     </g>
    </g>
    <g id="ytick_5">
     <g id="line2d_9">
      <g>
       <use xlink:href="#m646c373c1c" x="41.92" y="114.44281" style="stroke: #000000; stroke-width: 0.8"/>
      </g>
     </g>
     <g id="text_9">
      <!-- 0.10 -->
      <g transform="translate(10.83875 118.268591) scale(0.1 -0.1)">
       <defs>
        <path id="DejaVuSansMono-31" d="M 844 531 
L 1825 531 
L 1825 4097 
L 769 3859 
L 769 4434 
L 1819 4666 
L 2450 4666 
L 2450 531 
L 3419 531 
L 3419 0 
L 844 0 
L 844 531 
z
" transform="scale(0.015625)"/>
       </defs>
       <use xlink:href="#DejaVuSansMono-30"/>
       <use xlink:href="#DejaVuSansMono-2e" x="60.205078"/>
       <use xlink:href="#DejaVuSansMono-31" x="120.410156"/>
       <use xlink:href="#DejaVuSansMono-30" x="180.615234"/>
      </g>
     </g>
    </g>
    <g id="ytick_6">
     <g id="line2d_10">
      <g>
       <use xlink:href="#m646c373c1c" x="41.92" y="55.706212" style="stroke: #000000; stroke-width: 0.8"/>
      </g>
     </g>
     <g id="text_10">
      <!-- 0.12 -->
      <g transform="translate(10.83875 59.531993) scale(0.1 -0.1)">
       <use xlink:href="#DejaVuSansMono-30"/>
       <use xlink:href="#DejaVuSansMono-2e" x="60.205078"/>
       <use xlink:href="#DejaVuSansMono-31" x="120.410156"/>
       <use xlink:href="#DejaVuSansMono-32" x="180.615234"/>
      </g>
     </g>
    </g>
   </g>
   <g id="line2d_11">
    <path d="M 33.650071 34.651876 
L 34.477064 36.533357 
L 35.304057 33.841744 
L 36.13105 30.547831 
L 36.958043 28.678182 
L 37.785036 29.460426 
L 38.612029 33.300833 
L 41.093007 51.165868 
L 41.92 54.35212 
L 42.746993 55.279742 
L 43.573986 54.280335 
L 44.400979 51.900941 
L 47.70895 39.266193 
L 48.535943 37.242888 
L 49.362936 36.05985 
L 50.189929 35.716089 
L 51.016922 36.116741 
L 51.843914 37.091235 
L 53.4979 39.901841 
L 55.151886 42.527843 
L 55.978879 43.437827 
L 56.805872 44.019826 
L 57.632864 44.297992 
L 58.459857 44.334336 
L 60.113843 44.00807 
L 61.767829 43.635921 
L 63.421814 43.548727 
L 67.556779 43.861569 
L 69.210765 43.561245 
L 73.345729 42.239362 
L 74.999715 42.123924 
L 76.6537 42.404978 
L 79.134679 43.25705 
L 80.788665 43.792635 
L 82.44265 44.105697 
L 84.096636 44.136238 
L 85.750622 43.923121 
L 90.712579 43.049938 
L 92.366565 43.071087 
L 94.02055 43.317794 
L 98.982508 44.323949 
L 100.636493 44.316455 
L 103.117472 43.963095 
L 105.598451 43.629689 
L 107.252436 43.617954 
L 109.733415 43.900253 
L 113.041386 44.290498 
L 115.522365 44.310374 
L 120.484322 44.229309 
L 164.314944 45.558625 
L 187.470744 46.729871 
L 191.605708 47.080789 
L 199.875637 47.589415 
L 204.010601 47.913973 
L 210.626544 48.542396 
L 221.377452 49.62231 
L 233.782345 51.103522 
L 237.090316 51.613783 
L 237.917309 51.855192 
L 239.571295 52.120111 
L 242.879266 52.69452 
L 243.706259 52.980585 
L 244.533252 52.941899 
L 245.360245 53.651936 
L 246.187238 52.924633 
L 247.01423 54.576504 
L 247.841223 52.604112 
L 248.668216 55.028084 
L 249.495209 53.400091 
L 251.149195 55.266544 
L 251.976188 53.765744 
L 252.80318 56.726052 
L 253.630173 53.248081 
L 254.457166 57.162015 
L 255.284159 53.945178 
L 256.111152 57.401792 
L 256.938145 56.557561 
L 257.765138 56.58594 
L 258.59213 59.907689 
L 259.419123 52.503461 
L 260.246116 59.767945 
L 261.073109 55.38438 
L 261.900102 55.760026 
L 263.554088 60.750073 
L 264.381081 56.040386 
L 265.208073 59.316228 
L 266.035066 63.906306 
L 266.862059 57.397527 
L 267.689052 68.606675 
L 268.516045 64.731812 
L 269.343038 66.069173 
L 270.170031 75.625292 
L 270.997023 64.942201 
L 271.824016 68.438888 
L 272.651009 77.483771 
L 273.478002 69.349019 
L 274.304995 72.781519 
L 275.131988 77.012034 
L 275.958981 74.307766 
L 276.785973 78.3705 
L 277.612966 78.910814 
L 278.439959 77.806103 
L 279.266952 87.097015 
L 280.093945 84.766237 
L 280.920938 86.153878 
L 281.747931 92.654369 
L 282.574924 91.243422 
L 283.401916 93.663597 
L 284.228909 96.576237 
L 285.055902 96.932246 
L 285.882895 103.741037 
L 286.709888 102.380714 
L 287.536881 101.849905 
L 288.363874 107.814092 
L 289.190866 108.497762 
L 290.017859 112.896578 
L 290.844852 115.232978 
L 291.671845 115.471849 
L 292.498838 117.314296 
L 293.325831 122.08799 
L 294.152824 125.173219 
L 294.979817 132.075393 
L 295.806809 135.176001 
L 296.633802 139.266624 
L 297.460795 133.769836 
L 298.287788 142.191003 
L 299.114781 137.550464 
L 299.941774 141.327367 
L 300.768767 150.635411 
L 301.595759 152.742179 
L 302.422752 149.74386 
L 303.249745 148.140764 
L 304.076738 156.679942 
L 304.903731 160.955149 
L 305.730724 173.020206 
L 306.557717 168.540581 
L 307.384709 176.778865 
L 308.211702 181.048918 
L 309.038695 179.997048 
L 309.865688 182.529963 
L 310.692681 190.787866 
L 311.519674 194.979755 
L 312.346667 192.605156 
L 313.17366 189.00203 
L 314.000652 188.467256 
L 314.827645 192.171232 
L 315.654638 197.362645 
L 316.481631 200.804713 
L 317.308624 201.564424 
L 318.96261 199.479172 
L 319.789602 199.745935 
L 320.616595 201.739906 
L 321.443588 204.407528 
L 322.270581 206.342878 
L 323.097574 206.934737 
L 323.924567 206.480812 
L 324.75156 205.746533 
L 325.578552 205.557629 
L 326.405545 206.404836 
L 328.059531 210.024983 
L 328.886524 211.31428 
L 329.713517 211.812944 
L 331.367503 211.929898 
L 332.194495 212.434601 
L 333.848481 214.254436 
L 334.675474 214.775976 
L 335.502467 214.803819 
L 336.32946 214.653575 
L 337.156453 214.769435 
L 337.983445 215.375384 
L 339.637431 217.100662 
L 340.464424 217.500786 
L 342.11841 217.784461 
L 342.945403 218.311364 
L 344.599388 219.70671 
L 345.426381 220.070144 
L 347.080367 220.546051 
L 352.042324 223.230785 
L 356.177288 225.597366 
L 357.004281 225.935963 
L 360.312253 227.781971 
L 361.139246 228.233455 
L 362.793231 229.389771 
L 363.620224 229.706344 
L 364.447217 230.183493 
L 366.101203 231.571694 
L 367.755189 232.34554 
L 372.717146 235.962951 
L 373.544139 236.491754 
L 384.295046 245.248884 
L 385.949032 246.805062 
L 386.776024 247.344861 
L 387.603017 248.429473 
L 388.43001 248.158456 
L 389.257003 250.926104 
L 390.083996 240.050986 
L 390.910989 243.295685 
L 391.737982 231.535776 
L 392.564975 224.316146 
L 393.391967 227.330872 
L 394.21896 229.30897 
L 395.872946 217.454158 
L 396.699939 219.573721 
L 397.526932 220.006133 
L 398.353925 231.021439 
L 399.180917 223.651271 
L 400.834903 243.509873 
L 401.661896 241.633555 
L 402.488889 237.92897 
L 403.315882 241.804744 
L 404.142875 248.855816 
L 404.969867 249.402252 
L 405.79686 246.055763 
L 406.623853 245.896261 
L 407.450846 251.350181 
L 408.277839 254.534784 
L 409.104832 252.285621 
L 409.931825 251.98601 
L 410.758818 255.224562 
L 411.58581 257.861032 
L 412.412803 257.445627 
L 413.239796 256.822046 
L 414.066789 258.655497 
L 414.893782 260.090657 
L 415.720775 260.987366 
L 416.547768 260.512864 
L 417.37476 262.154641 
L 419.028746 263.831849 
L 419.855739 263.240278 
L 420.682732 264.516734 
L 421.509725 261.460373 
L 422.336718 248.178789 
L 423.16371 243.217744 
L 423.990703 235.194372 
L 424.817696 223.770198 
L 425.644689 208.759668 
L 428.125668 184.085398 
L 428.952661 171.763902 
L 429.779653 165.556935 
L 430.606646 171.209262 
L 431.433639 169.284621 
L 432.260632 169.556688 
L 433.087625 174.395076 
L 433.914618 183.315295 
L 434.741611 185.325835 
L 435.568603 185.772653 
L 436.395596 189.991871 
L 437.222589 195.579271 
L 438.049582 200.003889 
L 440.530561 210.463708 
L 441.357554 213.443169 
L 443.838532 220.009448 
L 444.665525 222.436687 
L 445.492518 223.815287 
L 446.319511 223.925439 
L 447.146504 223.830724 
L 447.973496 224.38075 
L 448.800489 225.519932 
L 450.454475 228.569414 
L 452.935454 233.549153 
L 453.762446 235.854023 
L 455.416432 241.023477 
L 456.243425 242.537736 
L 457.070418 243.249901 
L 458.724404 244.010198 
L 460.378389 245.630062 
L 461.205382 246.637044 
L 466.994332 255.398294 
L 469.475311 257.753149 
L 471.129297 259.253293 
L 472.783282 260.521312 
L 474.437268 262.630155 
L 476.091254 264.748646 
L 478.572232 267.54849 
L 480.226218 269.203612 
L 481.053211 270.126059 
L 482.707197 271.397929 
L 484.361182 273.063998 
L 486.015168 274.488354 
L 486.842161 275.06165 
L 489.32314 277.165121 
L 491.804118 279.038902 
L 493.458104 280.300275 
L 494.285097 280.883412 
L 495.939083 282.364004 
L 501.728033 287.250054 
L 502.555025 287.721974 
L 503.382018 288.764421 
L 504.209011 288.606524 
L 505.036004 290.378457 
L 505.862997 287.885006 
L 506.68999 290.463548 
L 507.516983 281.071644 
L 508.343976 283.505188 
L 509.170968 280.839243 
L 509.997961 277.019364 
L 510.824954 279.581455 
L 511.651947 279.702233 
L 512.47894 274.326554 
L 513.305933 272.234708 
L 514.132926 277.536276 
L 514.959918 275.246528 
L 515.786911 282.075217 
L 516.613904 281.034906 
L 517.440897 286.165347 
L 518.26789 289.359164 
L 519.094883 286.042873 
L 519.921876 287.371241 
L 520.748869 294.990757 
L 521.575861 294.649584 
L 522.402854 292.821638 
L 523.229847 295.205859 
L 524.05684 298.948194 
L 524.883833 297.10148 
L 525.710826 296.613662 
L 526.537819 299.353115 
L 527.364811 300.745837 
L 528.191804 299.646304 
L 529.018797 300.410307 
L 529.84579 302.873681 
L 530.672783 303.197826 
L 531.499776 303.131007 
L 532.326769 304.097456 
L 533.153761 305.577462 
L 533.980754 306.152835 
L 534.807747 306.371407 
L 535.63474 307.243133 
L 536.461733 308.779255 
L 537.288726 309.034759 
L 538.115719 309.042733 
L 538.942712 310.618495 
L 539.769704 310.975251 
L 540.596697 310.776096 
L 541.42369 312.602923 
L 542.250683 312.768256 
L 543.077676 312.48413 
L 543.904669 314.418285 
L 544.731662 314.194887 
L 545.558654 314.327111 
L 546.385647 316.242548 
L 547.21264 315.970903 
L 548.039633 316.519663 
L 548.866626 317.545964 
L 549.693619 317.961004 
L 550.520612 318.824993 
L 551.347604 319.18833 
L 552.174597 319.850298 
L 553.00159 320.268308 
L 553.828583 321.395496 
L 554.655576 320.601456 
L 555.482569 322.529421 
L 556.309562 321.553726 
L 557.136555 323.310044 
L 557.963547 321.592812 
L 558.79054 323.311758 
L 559.617533 318.603539 
L 560.444526 319.644063 
L 561.271519 312.022099 
L 562.925505 314.543057 
L 563.752497 307.669429 
L 564.57949 310.564104 
L 565.406483 308.697925 
L 566.233476 307.445561 
L 567.060469 307.683107 
L 567.887462 312.83953 
L 568.714455 309.19158 
L 569.541448 319.682495 
L 571.195433 316.002196 
L 572.022426 324.142873 
L 572.849419 322.493619 
L 573.676412 321.904324 
L 574.503405 327.145903 
L 575.330398 325.749756 
L 576.15739 325.169053 
L 576.984383 329.391579 
L 577.811376 327.954944 
L 578.638369 327.679975 
L 579.465362 331.234139 
L 580.292355 329.786583 
L 581.119348 330.05297 
L 581.94634 333.580843 
L 582.773333 331.959721 
L 583.600326 332.808853 
L 584.427319 335.7018 
L 585.254312 334.094156 
L 586.908298 337.085126 
L 587.735291 336.360571 
L 588.562283 337.854426 
L 589.389276 338.170231 
L 590.216269 338.280783 
L 591.043262 339.258592 
L 591.870255 339.075456 
L 592.697248 339.869291 
L 593.524241 337.759735 
L 594.351233 338.4008 
L 595.178226 333.133854 
L 596.005219 334.817548 
L 596.832212 334.16065 
L 597.659205 332.275777 
L 598.486198 332.924549 
L 599.313191 332.77366 
L 600.967176 332.090937 
L 601.794169 336.197793 
L 602.621162 334.846183 
L 603.448155 340.58205 
L 604.275148 340.682264 
L 605.102141 340.483967 
L 605.929134 343.349227 
L 607.583119 343.659408 
L 608.410112 344.918518 
L 610.064098 345.365335 
L 610.891091 345.446175 
L 611.718084 346.670887 
L 612.545076 346.491446 
L 613.372069 346.753871 
L 614.199062 348.216967 
L 615.026055 347.861777 
L 615.853048 349.014901 
L 616.680041 349.238489 
L 617.507034 350.272343 
L 618.334027 348.669049 
L 619.161019 351.01 
L 619.988012 348.102625 
L 620.815005 348.369627 
L 621.641998 338.087425 
L 622.468991 333.264078 
L 623.295984 320.762761 
L 624.122977 314.283175 
L 624.949969 314.859188 
L 625.776962 313.062043 
L 626.603955 301.752095 
L 627.430948 301.096262 
L 628.257941 304.371687 
L 629.084934 300.677988 
L 630.738919 311.714952 
L 631.565912 325.119814 
L 632.392905 329.218286 
L 633.219898 325.0305 
L 634.046891 326.879911 
L 634.873884 340.876737 
L 635.700877 338.325548 
L 636.52787 333.601085 
L 637.354862 337.60308 
L 638.181855 344.673992 
L 639.008848 342.648294 
L 639.835841 338.232278 
L 640.662834 341.686816 
L 641.489827 347.016966 
L 642.31682 345.706171 
L 643.143812 342.91445 
L 643.970805 345.874385 
L 644.797798 351.365328 
L 645.624791 350.372138 
L 646.451784 348.29673 
L 647.278777 350.174392 
L 648.10577 354.779121 
L 648.932762 354.092571 
L 649.759755 352.75078 
L 650.586748 354.016969 
L 651.413741 356.610705 
L 652.240734 356.123663 
L 653.067727 355.38272 
L 653.89472 356.53886 
L 654.721713 358.344066 
L 656.375698 358.067143 
L 657.202691 358.973333 
L 658.029684 360.04444 
L 658.856677 359.939098 
L 659.68367 360.044483 
L 660.510663 360.825505 
L 661.337655 361.267606 
L 662.164648 361.121254 
L 663.818634 361.895252 
L 664.645627 361.866844 
L 666.299613 362.460551 
L 669.607584 363.628091 
L 670.434577 363.980121 
L 671.26157 364.1348 
L 672.088563 364.116827 
L 672.915556 364.619125 
L 673.742548 363.512551 
L 674.569541 363.960821 
L 675.396534 362.280793 
L 676.223527 362.74863 
L 677.05052 360.287015 
L 677.877513 360.483726 
L 678.704506 360.544213 
L 679.531498 357.840339 
L 680.358491 358.698995 
L 681.185484 358.515056 
L 682.012477 357.520674 
L 682.83947 357.819707 
L 683.666463 359.867612 
L 684.493456 357.781405 
L 685.320449 360.868034 
L 686.147441 360.915516 
L 686.974434 360.325973 
L 687.801427 363.346795 
L 688.62842 363.033772 
L 689.455413 363.055642 
L 690.282406 365.873466 
L 691.109399 365.362256 
L 691.936391 365.602211 
L 692.763384 367.891491 
L 693.590377 367.435938 
L 694.41737 367.674454 
L 695.244363 368.995964 
L 696.071356 368.825387 
L 696.898349 369.021654 
L 697.725341 369.519283 
L 698.552334 369.307179 
L 699.379327 369.729236 
L 700.20632 369.620108 
L 701.033313 369.776839 
L 701.860306 370.157792 
L 702.687299 370.052436 
L 704.341284 370.556819 
L 705.168277 370.649685 
L 705.99527 371.115004 
L 706.822263 371.101112 
L 707.649256 371.253443 
L 708.476249 371.76532 
L 709.303242 371.711964 
L 710.130234 371.88067 
L 710.957227 372.305789 
L 711.78422 372.212941 
L 712.611213 372.435539 
L 713.438206 372.786979 
L 714.265199 372.654049 
L 715.092192 373.134609 
L 715.919185 372.963039 
L 716.746177 373.415676 
L 717.57317 373.202247 
L 718.400163 373.672088 
L 719.227156 373.263915 
L 720.054149 373.821019 
L 720.881142 372.860641 
L 721.708135 373.44498 
L 722.535127 371.762059 
L 723.36212 372.308672 
L 724.189113 370.963641 
L 725.016106 371.212787 
L 725.843099 371.303392 
L 726.670092 370.35611 
L 727.497085 371.495358 
L 728.324077 369.77415 
L 729.15107 371.504632 
L 729.978063 370.488212 
L 730.805056 372.236402 
L 731.632049 372.139397 
L 732.459042 373.291362 
L 733.286035 373.352413 
L 734.113028 373.61306 
L 734.94002 374.524665 
L 735.767013 374.225101 
L 736.594006 375.591022 
L 737.420999 375.542775 
L 738.247992 375.886891 
L 739.074985 376.551399 
L 739.901978 375.881828 
L 740.72897 377.032563 
L 741.555963 376.161373 
L 742.382956 376.910679 
L 743.209949 376.289017 
L 744.036942 376.64526 
L 744.863935 376.344473 
L 745.690928 376.417394 
L 746.51792 376.624669 
L 747.344913 376.497448 
L 748.171906 377.044186 
L 748.998899 376.733475 
L 749.825892 377.560799 
L 750.652885 377.244813 
L 751.479878 378.110353 
L 752.306871 377.911921 
L 753.133863 378.49412 
L 753.960856 378.430397 
L 754.787849 378.544464 
L 755.614842 378.80406 
L 756.441835 378.145522 
L 757.268828 378.742478 
L 758.095821 376.035208 
L 758.922813 374.810635 
L 759.749806 361.798572 
L 760.576799 343.05066 
L 761.403792 331.564235 
L 762.230785 289.025749 
L 763.057778 284.993175 
L 763.884771 276.226705 
L 764.711764 269.522908 
L 765.538756 241.023948 
L 766.365749 223.215454 
L 767.192742 218.949371 
L 768.019735 228.553911 
L 768.846728 244.411502 
L 769.673721 254.037483 
L 770.500714 292.931613 
L 771.327706 289.865672 
L 772.981692 300.605932 
L 773.808685 327.075048 
L 774.635678 346.195888 
L 775.462671 350.699527 
L 776.289664 351.791745 
L 777.116656 351.160606 
L 777.943649 350.278397 
L 778.770642 352.392598 
L 779.597635 358.8784 
L 780.424628 362.027286 
L 781.251621 363.417569 
L 782.078614 363.962317 
L 782.905607 363.344588 
L 783.732599 362.897205 
L 784.559592 364.357505 
L 785.386585 367.279155 
L 786.213578 369.710537 
L 787.040571 371.14696 
L 787.867564 371.607811 
L 789.521549 369.628187 
L 790.348542 370.181965 
L 791.175535 371.988698 
L 792.002528 373.425005 
L 792.829521 374.24698 
L 793.656514 374.822055 
L 794.483507 374.792435 
L 795.310499 374.448281 
L 796.137492 374.743531 
L 797.791478 377.488609 
L 798.618471 377.869924 
L 801.926442 377.951643 
L 803.580428 378.55064 
L 806.061407 378.868871 
L 806.8884 379.085202 
L 808.542385 379.892585 
L 811.023364 380.390071 
L 811.850357 380.752395 
L 813.504343 381.119602 
L 815.158328 381.299409 
L 816.812314 381.507616 
L 820.947278 382.436597 
L 822.601264 382.704456 
L 823.428257 382.99991 
L 832.525178 384.154849 
L 834.179164 384.429041 
L 836.660143 384.717077 
L 840.795107 385.179713 
L 844.103078 385.457239 
L 846.584057 385.775257 
L 847.41105 385.792675 
L 848.238043 385.962223 
L 849.065036 385.93454 
L 849.892029 386.110067 
L 850.719021 386.081166 
L 851.546014 386.241818 
L 852.373007 386.23776 
L 852.373007 386.23776 
" clip-path="url(#pdf4ebe7f7e)" style="fill: none; stroke-dasharray: 7.4,3.2; stroke-dashoffset: 0; stroke: #000000; stroke-width: 2"/>
   </g>
   <g id="patch_3">
    <path d="M 41.92 404.12 
L 41.92 10.8 
" style="fill: none; stroke: #000000; stroke-width: 0.8; stroke-linejoin: miter; stroke-linecap: square"/>
   </g>
   <g id="patch_4">
    <path d="M 853.2 404.12 
L 853.2 10.8 
" style="fill: none; stroke: #000000; stroke-width: 0.8; stroke-linejoin: miter; stroke-linecap: square"/>
   </g>
   <g id="patch_5">
    <path d="M 41.92 404.12 
L 853.2 404.12 
" style="fill: none; stroke: #000000; stroke-width: 0.8; stroke-linejoin: miter; stroke-linecap: square"/>
   </g>
   <g id="patch_6">
    <path d="M 41.92 10.8 
L 853.2 10.8 
" style="fill: none; stroke: #000000; stroke-width: 0.8; stroke-linejoin: miter; stroke-linecap: square"/>
   </g>
  </g>
 </g>
 <defs>
  <clipPath id="pdf4ebe7f7e">
   <rect x="41.92" y="10.8" width="811.28" height="393.32"/>
  </clipPath>
 </defs>
</svg>
