<?xml version="1.0" encoding="utf-8" standalone="no"?>
<!DOCTYPE svg PUBLIC "-//W3C//DTD SVG 1.1//EN"
  "http://www.w3.org/Graphics/SVG/1.1/DTD/svg11.dtd">
<svg xmlns:xlink="http://www.w3.org/1999/xlink" width="864pt" height="432pt" viewBox="0 0 864 432" xmlns="http://www.w3.org/2000/svg" version="1.1">
 <metadata>
  <rdf:RDF xmlns:dc="http://purl.org/dc/elements/1.1/" xmlns:cc="http://creativecommons.org/ns#" xmlns:rdf="http://www.w3.org/1999/02/22-rdf-syntax-ns#">
   <cc:Work>
    <dc:type rdf:resource="http://purl.org/dc/dcmitype/StillImage"/>
    <dc:date>2024-09-16T17:52:33.010457</dc:date>
    <dc:format>image/svg+xml</dc:format>
    <dc:creator>
     <cc:Agent>
      <dc:title>Matplotlib v3.9.2, https://matplotlib.org/</dc:title>
     </cc:Agent>
    </dc:creator>
   </cc:Work>
  </rdf:RDF>
 </metadata>
 <defs>
  <style type="text/css">*{stroke-linejoin: round; stroke-linecap: butt}</style>
 </defs>
 <g id="figure_1">
  <g id="patch_1">
   <path d="M 0 432 
L 864 432 
L 864 0 
L 0 0 
z
" style="fill: #ffffff"/>
  </g>
  <g id="axes_1">
   <g id="patch_2">
    <path d="M 35.89 404.12 
L 853.2 404.12 
L 853.2 10.8 
L 35.89 10.8 
z
" style="fill: #ffffff"/>
   </g>
   <g id="matplotlib.axis_1">
    <g id="xtick_1">
     <g id="line2d_1">
      <defs>
       <path id="m012e162ed5" d="M 0 0 
L 0 3.5 
" style="stroke: #000000; stroke-width: 0.8"/>
      </defs>
      <g>
       <use xlink:href="#m012e162ed5" x="188.817027" y="404.12" style="stroke: #000000; stroke-width: 0.8"/>
      </g>
     </g>
     <g id="text_1">
      <!-- 100 -->
      <g transform="translate(179.786558 418.771563) scale(0.1 -0.1)">
       <defs>
        <path id="DejaVuSansMono-31" d="M 844 531 
L 1825 531 
L 1825 4097 
L 769 3859 
L 769 4434 
L 1819 4666 
L 2450 4666 
L 2450 531 
L 3419 531 
L 3419 0 
L 844 0 
L 844 531 
z
" transform="scale(0.015625)"/>
        <path id="DejaVuSansMono-30" d="M 1509 2344 
Q 1509 2516 1629 2641 
Q 1750 2766 1919 2766 
Q 2094 2766 2219 2641 
Q 2344 2516 2344 2344 
Q 2344 2169 2220 2047 
Q 2097 1925 1919 1925 
Q 1744 1925 1626 2044 
Q 1509 2163 1509 2344 
z
M 1925 4250 
Q 1484 4250 1267 3775 
Q 1050 3300 1050 2328 
Q 1050 1359 1267 884 
Q 1484 409 1925 409 
Q 2369 409 2586 884 
Q 2803 1359 2803 2328 
Q 2803 3300 2586 3775 
Q 2369 4250 1925 4250 
z
M 1925 4750 
Q 2672 4750 3055 4137 
Q 3438 3525 3438 2328 
Q 3438 1134 3055 521 
Q 2672 -91 1925 -91 
Q 1178 -91 797 521 
Q 416 1134 416 2328 
Q 416 3525 797 4137 
Q 1178 4750 1925 4750 
z
" transform="scale(0.015625)"/>
       </defs>
       <use xlink:href="#DejaVuSansMono-31"/>
       <use xlink:href="#DejaVuSansMono-30" x="60.205078"/>
       <use xlink:href="#DejaVuSansMono-30" x="120.410156"/>
      </g>
     </g>
    </g>
    <g id="xtick_2">
     <g id="line2d_2">
      <g>
       <use xlink:href="#m012e162ed5" x="358.735946" y="404.12" style="stroke: #000000; stroke-width: 0.8"/>
      </g>
     </g>
     <g id="text_2">
      <!-- 200 -->
      <g transform="translate(349.705477 418.771563) scale(0.1 -0.1)">
       <defs>
        <path id="DejaVuSansMono-32" d="M 1166 531 
L 3309 531 
L 3309 0 
L 475 0 
L 475 531 
Q 1059 1147 1496 1619 
Q 1934 2091 2100 2284 
Q 2413 2666 2522 2902 
Q 2631 3138 2631 3384 
Q 2631 3775 2401 3997 
Q 2172 4219 1772 4219 
Q 1488 4219 1175 4116 
Q 863 4013 513 3803 
L 513 4441 
Q 834 4594 1145 4672 
Q 1456 4750 1759 4750 
Q 2444 4750 2861 4386 
Q 3278 4022 3278 3431 
Q 3278 3131 3139 2831 
Q 3000 2531 2688 2169 
Q 2513 1966 2180 1606 
Q 1847 1247 1166 531 
z
" transform="scale(0.015625)"/>
       </defs>
       <use xlink:href="#DejaVuSansMono-32"/>
       <use xlink:href="#DejaVuSansMono-30" x="60.205078"/>
       <use xlink:href="#DejaVuSansMono-30" x="120.410156"/>
      </g>
     </g>
    </g>
    <g id="xtick_3">
     <g id="line2d_3">
      <g>
       <use xlink:href="#m012e162ed5" x="528.654865" y="404.12" style="stroke: #000000; stroke-width: 0.8"/>
      </g>
     </g>
     <g id="text_3">
      <!-- 300 -->
      <g transform="translate(519.624396 418.771563) scale(0.1 -0.1)">
       <defs>
        <path id="DejaVuSansMono-33" d="M 2425 2497 
Q 2884 2375 3128 2064 
Q 3372 1753 3372 1288 
Q 3372 644 2939 276 
Q 2506 -91 1741 -91 
Q 1419 -91 1084 -31 
Q 750 28 428 141 
L 428 769 
Q 747 603 1056 522 
Q 1366 441 1672 441 
Q 2191 441 2469 675 
Q 2747 909 2747 1350 
Q 2747 1756 2469 1995 
Q 2191 2234 1716 2234 
L 1234 2234 
L 1234 2753 
L 1716 2753 
Q 2150 2753 2394 2943 
Q 2638 3134 2638 3475 
Q 2638 3834 2411 4026 
Q 2184 4219 1766 4219 
Q 1488 4219 1191 4156 
Q 894 4094 569 3969 
L 569 4550 
Q 947 4650 1242 4700 
Q 1538 4750 1766 4750 
Q 2447 4750 2855 4408 
Q 3263 4066 3263 3500 
Q 3263 3116 3048 2859 
Q 2834 2603 2425 2497 
z
" transform="scale(0.015625)"/>
       </defs>
       <use xlink:href="#DejaVuSansMono-33"/>
       <use xlink:href="#DejaVuSansMono-30" x="60.205078"/>
       <use xlink:href="#DejaVuSansMono-30" x="120.410156"/>
      </g>
     </g>
    </g>
    <g id="xtick_4">
     <g id="line2d_4">
      <g>
       <use xlink:href="#m012e162ed5" x="698.573784" y="404.12" style="stroke: #000000; stroke-width: 0.8"/>
      </g>
     </g>
     <g id="text_4">
      <!-- 400 -->
      <g transform="translate(689.543315 418.771563) scale(0.1 -0.1)">
       <defs>
        <path id="DejaVuSansMono-34" d="M 2297 4091 
L 825 1625 
L 2297 1625 
L 2297 4091 
z
M 2194 4666 
L 2925 4666 
L 2925 1625 
L 3547 1625 
L 3547 1113 
L 2925 1113 
L 2925 0 
L 2297 0 
L 2297 1113 
L 319 1113 
L 319 1709 
L 2194 4666 
z
" transform="scale(0.015625)"/>
       </defs>
       <use xlink:href="#DejaVuSansMono-34"/>
       <use xlink:href="#DejaVuSansMono-30" x="60.205078"/>
       <use xlink:href="#DejaVuSansMono-30" x="120.410156"/>
      </g>
     </g>
    </g>
   </g>
   <g id="matplotlib.axis_2">
    <g id="ytick_1">
     <g id="line2d_5">
      <defs>
       <path id="meb296d7024" d="M 0 0 
L -3.5 0 
" style="stroke: #000000; stroke-width: 0.8"/>
      </defs>
      <g>
       <use xlink:href="#meb296d7024" x="35.89" y="386.241818" style="stroke: #000000; stroke-width: 0.8"/>
      </g>
     </g>
     <g id="text_5">
      <!-- 0.0 -->
      <g transform="translate(10.829063 390.067599) scale(0.1 -0.1)">
       <defs>
        <path id="DejaVuSansMono-2e" d="M 1528 953 
L 2316 953 
L 2316 0 
L 1528 0 
L 1528 953 
z
" transform="scale(0.015625)"/>
       </defs>
       <use xlink:href="#DejaVuSansMono-30"/>
       <use xlink:href="#DejaVuSansMono-2e" x="60.205078"/>
       <use xlink:href="#DejaVuSansMono-30" x="120.410156"/>
      </g>
     </g>
    </g>
    <g id="ytick_2">
     <g id="line2d_6">
      <g>
       <use xlink:href="#meb296d7024" x="35.89" y="314.729091" style="stroke: #000000; stroke-width: 0.8"/>
      </g>
     </g>
     <g id="text_6">
      <!-- 0.2 -->
      <g transform="translate(10.829063 318.554872) scale(0.1 -0.1)">
       <use xlink:href="#DejaVuSansMono-30"/>
       <use xlink:href="#DejaVuSansMono-2e" x="60.205078"/>
       <use xlink:href="#DejaVuSansMono-32" x="120.410156"/>
      </g>
     </g>
    </g>
    <g id="ytick_3">
     <g id="line2d_7">
      <g>
       <use xlink:href="#meb296d7024" x="35.89" y="243.216364" style="stroke: #000000; stroke-width: 0.8"/>
      </g>
     </g>
     <g id="text_7">
      <!-- 0.4 -->
      <g transform="translate(10.829063 247.042145) scale(0.1 -0.1)">
       <use xlink:href="#DejaVuSansMono-30"/>
       <use xlink:href="#DejaVuSansMono-2e" x="60.205078"/>
       <use xlink:href="#DejaVuSansMono-34" x="120.410156"/>
      </g>
     </g>
    </g>
    <g id="ytick_4">
     <g id="line2d_8">
      <g>
       <use xlink:href="#meb296d7024" x="35.89" y="171.703636" style="stroke: #000000; stroke-width: 0.8"/>
      </g>
     </g>
     <g id="text_8">
      <!-- 0.6 -->
      <g transform="translate(10.829063 175.529418) scale(0.1 -0.1)">
       <defs>
        <path id="DejaVuSansMono-36" d="M 3097 4563 
L 3097 3981 
Q 2900 4097 2678 4158 
Q 2456 4219 2216 4219 
Q 1616 4219 1306 3767 
Q 997 3316 997 2438 
Q 1147 2750 1412 2917 
Q 1678 3084 2022 3084 
Q 2697 3084 3067 2670 
Q 3438 2256 3438 1497 
Q 3438 741 3056 325 
Q 2675 -91 1984 -91 
Q 1172 -91 794 492 
Q 416 1075 416 2328 
Q 416 3509 870 4129 
Q 1325 4750 2188 4750 
Q 2419 4750 2650 4701 
Q 2881 4653 3097 4563 
z
M 1972 2591 
Q 1569 2591 1337 2300 
Q 1106 2009 1106 1497 
Q 1106 984 1337 693 
Q 1569 403 1972 403 
Q 2391 403 2603 679 
Q 2816 956 2816 1497 
Q 2816 2041 2603 2316 
Q 2391 2591 1972 2591 
z
" transform="scale(0.015625)"/>
       </defs>
       <use xlink:href="#DejaVuSansMono-30"/>
       <use xlink:href="#DejaVuSansMono-2e" x="60.205078"/>
       <use xlink:href="#DejaVuSansMono-36" x="120.410156"/>
      </g>
     </g>
    </g>
    <g id="ytick_5">
     <g id="line2d_9">
      <g>
       <use xlink:href="#meb296d7024" x="35.89" y="100.190909" style="stroke: #000000; stroke-width: 0.8"/>
      </g>
     </g>
     <g id="text_9">
      <!-- 0.8 -->
      <g transform="translate(10.829063 104.01669) scale(0.1 -0.1)">
       <defs>
        <path id="DejaVuSansMono-38" d="M 1925 2216 
Q 1503 2216 1273 1980 
Q 1044 1744 1044 1313 
Q 1044 881 1276 642 
Q 1509 403 1925 403 
Q 2350 403 2579 639 
Q 2809 875 2809 1313 
Q 2809 1741 2576 1978 
Q 2344 2216 1925 2216 
z
M 1375 2478 
Q 972 2581 745 2862 
Q 519 3144 519 3541 
Q 519 4097 897 4423 
Q 1275 4750 1925 4750 
Q 2578 4750 2956 4423 
Q 3334 4097 3334 3541 
Q 3334 3144 3107 2862 
Q 2881 2581 2478 2478 
Q 2947 2375 3195 2062 
Q 3444 1750 3444 1253 
Q 3444 622 3041 265 
Q 2638 -91 1925 -91 
Q 1213 -91 811 264 
Q 409 619 409 1247 
Q 409 1747 657 2061 
Q 906 2375 1375 2478 
z
M 1147 3481 
Q 1147 3106 1347 2909 
Q 1547 2713 1925 2713 
Q 2306 2713 2506 2909 
Q 2706 3106 2706 3481 
Q 2706 3863 2507 4063 
Q 2309 4263 1925 4263 
Q 1547 4263 1347 4061 
Q 1147 3859 1147 3481 
z
" transform="scale(0.015625)"/>
       </defs>
       <use xlink:href="#DejaVuSansMono-30"/>
       <use xlink:href="#DejaVuSansMono-2e" x="60.205078"/>
       <use xlink:href="#DejaVuSansMono-38" x="120.410156"/>
      </g>
     </g>
    </g>
    <g id="ytick_6">
     <g id="line2d_10">
      <g>
       <use xlink:href="#meb296d7024" x="35.89" y="28.678182" style="stroke: #000000; stroke-width: 0.8"/>
      </g>
     </g>
     <g id="text_10">
      <!-- 1.0 -->
      <g transform="translate(10.829063 32.503963) scale(0.1 -0.1)">
       <use xlink:href="#DejaVuSansMono-31"/>
       <use xlink:href="#DejaVuSansMono-2e" x="60.205078"/>
       <use xlink:href="#DejaVuSansMono-30" x="120.410156"/>
      </g>
     </g>
    </g>
   </g>
   <g id="line2d_11">
    <path d="M 18.898108 375.917356 
L 23.995676 375.917356 
L 25.694865 378.152128 
L 29.093243 384.909283 
L 30.792432 386.241818 
L 168.426757 386.241818 
L 173.524324 384.730936 
L 175.223514 383.744554 
L 176.922703 382.275114 
L 178.621892 380.329189 
L 185.418649 370.665307 
L 188.817027 366.923951 
L 192.215405 362.417536 
L 193.914595 360.288851 
L 195.613784 358.659139 
L 197.312973 357.521682 
L 199.012162 355.964724 
L 202.410541 351.261284 
L 204.10973 348.160061 
L 205.808919 344.62317 
L 207.508108 341.538307 
L 209.207297 338.87193 
L 210.906486 336.615212 
L 214.304865 331.343224 
L 216.004054 329.151263 
L 219.402432 325.793289 
L 221.101622 324.972701 
L 222.800811 324.325875 
L 226.199189 322.375686 
L 227.898378 321.52621 
L 231.296757 320.518261 
L 236.394324 317.336016 
L 238.093514 314.076931 
L 239.792703 312.306007 
L 241.491892 307.317907 
L 243.191081 310.791382 
L 244.89027 302.898258 
L 246.589459 306.796113 
L 248.288649 311.519769 
L 249.987838 304.358868 
L 251.687027 296.381604 
L 253.386216 301.458035 
L 255.085405 303.284295 
L 256.784595 295.988551 
L 258.483784 294.71215 
L 260.182973 291.468485 
L 261.882162 292.095999 
L 265.280541 263.860138 
L 266.97973 267.249996 
L 268.678919 263.868466 
L 270.378108 249.820573 
L 272.077297 239.034627 
L 273.776486 242.472868 
L 275.475676 235.899654 
L 277.174865 221.594324 
L 278.874054 221.191597 
L 280.573243 216.3316 
L 282.272432 210.855739 
L 283.971622 201.972021 
L 285.670811 197.711979 
L 287.37 190.286593 
L 289.069189 187.588189 
L 290.768378 175.62795 
L 292.467568 170.308508 
L 294.166757 167.519902 
L 295.865946 156.101083 
L 297.565135 152.434433 
L 299.264324 147.016275 
L 300.963514 139.426316 
L 302.662703 134.533388 
L 304.361892 131.102402 
L 306.061081 123.600269 
L 307.76027 119.030285 
L 309.459459 115.859576 
L 311.158649 109.757008 
L 312.857838 105.712047 
L 314.557027 101.27515 
L 316.256216 96.499383 
L 317.955405 92.42723 
L 321.353784 85.184512 
L 323.052973 81.770385 
L 324.752162 87.814055 
L 326.451351 99.221963 
L 328.150541 100.394301 
L 329.84973 107.215145 
L 331.548919 106.125642 
L 333.248108 109.715301 
L 334.947297 109.593445 
L 336.646486 113.939476 
L 338.345676 118.871387 
L 340.044865 119.50433 
L 341.744054 108.848123 
L 343.443243 93.081507 
L 345.142432 89.008597 
L 346.841622 79.247521 
L 348.540811 77.388758 
L 350.24 72.23491 
L 351.939189 72.504653 
L 353.638378 66.760563 
L 355.337568 58.826949 
L 357.036757 56.179103 
L 358.735946 55.662813 
L 360.435135 54.636382 
L 362.134324 52.790998 
L 363.833514 51.280742 
L 365.532703 50.030641 
L 367.231892 48.403109 
L 368.931081 44.948013 
L 370.63027 43.087905 
L 372.329459 42.972468 
L 374.028649 42.972468 
L 375.727838 41.789825 
L 377.427027 40.133655 
L 379.126216 39.650809 
L 384.223784 37.472766 
L 387.622162 36.983168 
L 389.321351 35.90779 
L 391.020541 34.700376 
L 392.71973 34.203834 
L 394.418919 33.953813 
L 396.118108 33.457271 
L 397.817297 32.834385 
L 402.914865 31.707939 
L 406.313243 30.707818 
L 408.012432 30.45602 
L 409.711622 30.45602 
L 413.11 30.203331 
L 418.207568 30.203331 
L 419.906757 30.076986 
L 425.004324 30.076986 
L 426.703514 29.950642 
L 438.597838 29.950642 
L 440.297027 29.823396 
L 441.996216 29.94974 
L 443.695405 29.822494 
L 445.394595 31.046865 
L 448.792973 30.792373 
L 450.492162 31.778647 
L 455.58973 31.396909 
L 457.288919 31.396909 
L 458.988108 31.143319 
L 460.687297 31.143319 
L 462.386486 29.791702 
L 464.085676 29.918948 
L 465.784865 29.918948 
L 467.484054 28.805428 
L 479.378378 28.805428 
L 481.077568 28.678182 
L 851.500811 28.678182 
L 851.500811 28.678182 
" clip-path="url(#p330d8ac54f)" style="fill: none; stroke-dasharray: 7.4,3.2; stroke-dashoffset: 0; stroke: #000000; stroke-width: 2"/>
   </g>
   <g id="patch_3">
    <path d="M 35.89 404.12 
L 35.89 10.8 
" style="fill: none; stroke: #000000; stroke-width: 0.8; stroke-linejoin: miter; stroke-linecap: square"/>
   </g>
   <g id="patch_4">
    <path d="M 853.2 404.12 
L 853.2 10.8 
" style="fill: none; stroke: #000000; stroke-width: 0.8; stroke-linejoin: miter; stroke-linecap: square"/>
   </g>
   <g id="patch_5">
    <path d="M 35.89 404.12 
L 853.2 404.12 
" style="fill: none; stroke: #000000; stroke-width: 0.8; stroke-linejoin: miter; stroke-linecap: square"/>
   </g>
   <g id="patch_6">
    <path d="M 35.89 10.8 
L 853.2 10.8 
" style="fill: none; stroke: #000000; stroke-width: 0.8; stroke-linejoin: miter; stroke-linecap: square"/>
   </g>
  </g>
 </g>
 <defs>
  <clipPath id="p330d8ac54f">
   <rect x="35.89" y="10.8" width="817.31" height="393.32"/>
  </clipPath>
 </defs>
</svg>
