<?xml version="1.0" encoding="utf-8" standalone="no"?>
<!DOCTYPE svg PUBLIC "-//W3C//DTD SVG 1.1//EN"
  "http://www.w3.org/Graphics/SVG/1.1/DTD/svg11.dtd">
<svg xmlns:xlink="http://www.w3.org/1999/xlink" width="864pt" height="360pt" viewBox="0 0 864 360" xmlns="http://www.w3.org/2000/svg" version="1.1">
 <metadata>
  <rdf:RDF xmlns:dc="http://purl.org/dc/elements/1.1/" xmlns:cc="http://creativecommons.org/ns#" xmlns:rdf="http://www.w3.org/1999/02/22-rdf-syntax-ns#">
   <cc:Work>
    <dc:type rdf:resource="http://purl.org/dc/dcmitype/StillImage"/>
    <dc:date>2024-09-16T23:24:51.665193</dc:date>
    <dc:format>image/svg+xml</dc:format>
    <dc:creator>
     <cc:Agent>
      <dc:title>Matplotlib v3.9.2, https://matplotlib.org/</dc:title>
     </cc:Agent>
    </dc:creator>
   </cc:Work>
  </rdf:RDF>
 </metadata>
 <defs>
  <style type="text/css">*{stroke-linejoin: round; stroke-linecap: butt}</style>
 </defs>
 <g id="figure_1">
  <g id="patch_1">
   <path d="M 0 360 
L 864 360 
L 864 0 
L 0 0 
z
" style="fill: #ffffff"/>
  </g>
  <g id="axes_1">
   <g id="patch_2">
    <path d="M 36.36 328.931379 
L 853.2 328.931379 
L 853.2 19.095517 
L 36.36 19.095517 
z
" style="fill: #ffffff"/>
   </g>
   <g id="patch_3">
    <path d="M 51.930278 313.361102 
L 77.123515 313.361102 
L 77.123515 288.167864 
L 51.930278 288.167864 
z
" clip-path="url(#p0d7233a3ab)" style="stroke: #000000; stroke-linejoin: miter"/>
   </g>
   <g id="patch_4">
    <path d="M 87.070264 306.388012 
L 98.317323 306.388012 
L 98.317323 295.140953 
L 87.070264 295.140953 
z
" clip-path="url(#p0d7233a3ab)" style="stroke: #000000; stroke-linejoin: miter"/>
   </g>
   <g id="patch_5">
    <path d="M 116.089738 305.535434 
L 125.631641 305.535434 
L 125.631641 295.993531 
L 116.089738 295.993531 
z
" clip-path="url(#p0d7233a3ab)" style="stroke: #000000; stroke-linejoin: miter"/>
   </g>
   <g id="patch_6">
    <path d="M 144.520664 305.271405 
L 153.534508 305.271405 
L 153.534508 296.257561 
L 144.520664 296.257561 
z
" clip-path="url(#p0d7233a3ab)" style="stroke: #000000; stroke-linejoin: miter"/>
   </g>
   <g id="patch_7">
    <path d="M 172.727926 305.23104 
L 181.66104 305.23104 
L 181.66104 296.297926 
L 172.727926 296.297926 
z
" clip-path="url(#p0d7233a3ab)" style="stroke: #000000; stroke-linejoin: miter"/>
   </g>
   <g id="patch_8">
    <path d="M 200.254769 305.871093 
L 210.467989 305.871093 
L 210.467989 295.657873 
L 200.254769 295.657873 
z
" clip-path="url(#p0d7233a3ab)" style="stroke: #000000; stroke-linejoin: miter"/>
   </g>
   <g id="patch_9">
    <path d="M 230.73698 303.555778 
L 236.319571 303.555778 
L 236.319571 297.973187 
L 230.73698 297.973187 
z
" clip-path="url(#p0d7233a3ab)" style="stroke: #000000; stroke-linejoin: miter"/>
   </g>
   <g id="patch_10">
    <path d="M 257.054072 305.405583 
L 266.336272 305.405583 
L 266.336272 296.123383 
L 257.054072 296.123383 
z
" clip-path="url(#p0d7233a3ab)" style="stroke: #000000; stroke-linejoin: miter"/>
   </g>
   <g id="patch_11">
    <path d="M 284.901964 305.724588 
L 294.822174 305.724588 
L 294.822174 295.804377 
L 284.901964 295.804377 
z
" clip-path="url(#p0d7233a3ab)" style="stroke: #000000; stroke-linejoin: miter"/>
   </g>
   <g id="patch_12">
    <path d="M 315.742043 303.051406 
L 320.315888 303.051406 
L 320.315888 298.47756 
L 315.742043 298.47756 
z
" clip-path="url(#p0d7233a3ab)" style="stroke: #000000; stroke-linejoin: miter"/>
   </g>
   <g id="patch_13">
    <path d="M 343.394276 303.566068 
L 348.997448 303.566068 
L 348.997448 297.962897 
L 343.394276 297.962897 
z
" clip-path="url(#p0d7233a3ab)" style="stroke: #000000; stroke-linejoin: miter"/>
   </g>
   <g id="patch_14">
    <path d="M 370.34307 304.784171 
L 378.382447 304.784171 
L 378.382447 296.744795 
L 370.34307 296.744795 
z
" clip-path="url(#p0d7233a3ab)" style="stroke: #000000; stroke-linejoin: miter"/>
   </g>
   <g id="patch_15">
    <path d="M 399.336271 303.957867 
L 405.723039 303.957867 
L 405.723039 297.571099 
L 399.336271 297.571099 
z
" clip-path="url(#p0d7233a3ab)" style="stroke: #000000; stroke-linejoin: miter"/>
   </g>
   <g id="patch_16">
    <path d="M 428.264089 303.196945 
L 433.129014 303.196945 
L 433.129014 298.33202 
L 428.264089 298.33202 
z
" clip-path="url(#p0d7233a3ab)" style="stroke: #000000; stroke-linejoin: miter"/>
   </g>
   <g id="patch_17">
    <path d="M 456.589875 303.038056 
L 461.137022 303.038056 
L 461.137022 298.490909 
L 456.589875 298.490909 
z
" clip-path="url(#p0d7233a3ab)" style="stroke: #000000; stroke-linejoin: miter"/>
   </g>
   <g id="patch_18">
    <path d="M 486.726941 301.067886 
L 487.333748 301.067886 
L 487.333748 300.461079 
L 486.726941 300.461079 
z
" clip-path="url(#p0d7233a3ab)" style="stroke: #000000; stroke-linejoin: miter"/>
   </g>
   <g id="patch_19">
    <path d="M 512.976282 302.985443 
L 517.418201 302.985443 
L 517.418201 298.543523 
L 512.976282 298.543523 
z
" clip-path="url(#p0d7233a3ab)" style="stroke: #000000; stroke-linejoin: miter"/>
   </g>
   <g id="patch_20">
    <path d="M 539.018911 305.10971 
L 547.709365 305.10971 
L 547.709365 296.419256 
L 539.018911 296.419256 
z
" clip-path="url(#p0d7233a3ab)" style="stroke: #000000; stroke-linejoin: miter"/>
   </g>
   <g id="patch_21">
    <path d="M 571.008045 301.287472 
L 572.054024 301.287472 
L 572.054024 300.241493 
L 571.008045 300.241493 
z
" clip-path="url(#p0d7233a3ab)" style="stroke: #000000; stroke-linejoin: miter"/>
   </g>
   <g id="patch_22">
    <path d="M 599.697931 300.764483 
L 599.697931 300.764483 
L 599.697931 300.764483 
L 599.697931 300.764483 
z
" clip-path="url(#p0d7233a3ab)" style="stroke: #000000; stroke-linejoin: miter"/>
   </g>
   <g id="patch_23">
    <path d="M 625.709688 302.919622 
L 630.019967 302.919622 
L 630.019967 298.609343 
L 625.709688 298.609343 
z
" clip-path="url(#p0d7233a3ab)" style="stroke: #000000; stroke-linejoin: miter"/>
   </g>
   <g id="patch_24">
    <path d="M 653.559087 303.23712 
L 658.504362 303.23712 
L 658.504362 298.291845 
L 653.559087 298.291845 
z
" clip-path="url(#p0d7233a3ab)" style="stroke: #000000; stroke-linejoin: miter"/>
   </g>
   <g id="patch_25">
    <path d="M 682.152176 302.810927 
L 686.245065 302.810927 
L 686.245065 298.718039 
L 682.152176 298.718039 
z
" clip-path="url(#p0d7233a3ab)" style="stroke: #000000; stroke-linejoin: miter"/>
   </g>
   <g id="patch_26">
    <path d="M 709.055705 304.074295 
L 715.67533 304.074295 
L 715.67533 297.45467 
L 709.055705 297.45467 
z
" clip-path="url(#p0d7233a3ab)" style="stroke: #000000; stroke-linejoin: miter"/>
   </g>
   <g id="patch_27">
    <path d="M 738.932423 302.364474 
L 742.132405 302.364474 
L 742.132405 299.164491 
L 738.932423 299.164491 
z
" clip-path="url(#p0d7233a3ab)" style="stroke: #000000; stroke-linejoin: miter"/>
   </g>
   <g id="patch_28">
    <path d="M 766.926063 302.53773 
L 770.472558 302.53773 
L 770.472558 298.991236 
L 766.926063 298.991236 
z
" clip-path="url(#p0d7233a3ab)" style="stroke: #000000; stroke-linejoin: miter"/>
   </g>
   <g id="patch_29">
    <path d="M 796.265179 301.36551 
L 797.467234 301.36551 
L 797.467234 300.163455 
L 796.265179 300.163455 
z
" clip-path="url(#p0d7233a3ab)" style="stroke: #000000; stroke-linejoin: miter"/>
   </g>
   <g id="patch_30">
    <path d="M 52.970353 284.15413 
L 76.083441 284.15413 
L 76.083441 261.041042 
L 52.970353 261.041042 
z
" clip-path="url(#p0d7233a3ab)" style="stroke: #000000; stroke-linejoin: miter"/>
   </g>
   <g id="patch_31">
    <path d="M 84.729792 280.561588 
L 100.657795 280.561588 
L 100.657795 264.633585 
L 84.729792 264.633585 
z
" clip-path="url(#p0d7233a3ab)" style="stroke: #000000; stroke-linejoin: miter"/>
   </g>
   <g id="patch_32">
    <path d="M 115.518959 277.939316 
L 126.20242 277.939316 
L 126.20242 267.255856 
L 115.518959 267.255856 
z
" clip-path="url(#p0d7233a3ab)" style="stroke: #000000; stroke-linejoin: miter"/>
   </g>
   <g id="patch_33">
    <path d="M 143.609251 278.015921 
L 154.445921 278.015921 
L 154.445921 267.179251 
L 143.609251 267.179251 
z
" clip-path="url(#p0d7233a3ab)" style="stroke: #000000; stroke-linejoin: miter"/>
   </g>
   <g id="patch_34">
    <path d="M 172.626302 277.165767 
L 181.762664 277.165767 
L 181.762664 268.029405 
L 172.626302 268.029405 
z
" clip-path="url(#p0d7233a3ab)" style="stroke: #000000; stroke-linejoin: miter"/>
   </g>
   <g id="patch_35">
    <path d="M 200.056427 277.902539 
L 210.666332 277.902539 
L 210.666332 267.292634 
L 200.056427 267.292634 
z
" clip-path="url(#p0d7233a3ab)" style="stroke: #000000; stroke-linejoin: miter"/>
   </g>
   <g id="patch_36">
    <path d="M 228.232154 277.893708 
L 238.824398 277.893708 
L 238.824398 267.301464 
L 228.232154 267.301464 
z
" clip-path="url(#p0d7233a3ab)" style="stroke: #000000; stroke-linejoin: miter"/>
   </g>
   <g id="patch_37">
    <path d="M 256.41407 277.878688 
L 266.976275 277.878688 
L 266.976275 267.316484 
L 256.41407 267.316484 
z
" clip-path="url(#p0d7233a3ab)" style="stroke: #000000; stroke-linejoin: miter"/>
   </g>
   <g id="patch_38">
    <path d="M 286.267616 276.192039 
L 293.456522 276.192039 
L 293.456522 269.003133 
L 286.267616 269.003133 
z
" clip-path="url(#p0d7233a3ab)" style="stroke: #000000; stroke-linejoin: miter"/>
   </g>
   <g id="patch_39">
    <path d="M 313.01684 277.609712 
L 323.041091 277.609712 
L 323.041091 267.585461 
L 313.01684 267.585461 
z
" clip-path="url(#p0d7233a3ab)" style="stroke: #000000; stroke-linejoin: miter"/>
   </g>
   <g id="patch_40">
    <path d="M 342.522741 276.270707 
L 349.868983 276.270707 
L 349.868983 268.924465 
L 342.522741 268.924465 
z
" clip-path="url(#p0d7233a3ab)" style="stroke: #000000; stroke-linejoin: miter"/>
   </g>
   <g id="patch_41">
    <path d="M 369.810637 277.149708 
L 378.91488 277.149708 
L 378.91488 268.045465 
L 369.810637 268.045465 
z
" clip-path="url(#p0d7233a3ab)" style="stroke: #000000; stroke-linejoin: miter"/>
   </g>
   <g id="patch_42">
    <path d="M 399.822469 275.304772 
L 405.236841 275.304772 
L 405.236841 269.8904 
L 399.822469 269.8904 
z
" clip-path="url(#p0d7233a3ab)" style="stroke: #000000; stroke-linejoin: miter"/>
   </g>
   <g id="patch_43">
    <path d="M 427.242846 276.051292 
L 434.150258 276.051292 
L 434.150258 269.14388 
L 427.242846 269.14388 
z
" clip-path="url(#p0d7233a3ab)" style="stroke: #000000; stroke-linejoin: miter"/>
   </g>
   <g id="patch_44">
    <path d="M 454.032304 277.42873 
L 463.694592 277.42873 
L 463.694592 267.766442 
L 454.032304 267.766442 
z
" clip-path="url(#p0d7233a3ab)" style="stroke: #000000; stroke-linejoin: miter"/>
   </g>
   <g id="patch_45">
    <path d="M 483.840963 275.786968 
L 490.219727 275.786968 
L 490.219727 269.408205 
L 483.840963 269.408205 
z
" clip-path="url(#p0d7233a3ab)" style="stroke: #000000; stroke-linejoin: miter"/>
   </g>
   <g id="patch_46">
    <path d="M 512.054585 275.740243 
L 518.339898 275.740243 
L 518.339898 269.454929 
L 512.054585 269.454929 
z
" clip-path="url(#p0d7233a3ab)" style="stroke: #000000; stroke-linejoin: miter"/>
   </g>
   <g id="patch_47">
    <path d="M 539.102114 276.85961 
L 547.626162 276.85961 
L 547.626162 268.335562 
L 539.102114 268.335562 
z
" clip-path="url(#p0d7233a3ab)" style="stroke: #000000; stroke-linejoin: miter"/>
   </g>
   <g id="patch_48">
    <path d="M 567.864443 276.264178 
L 575.197626 276.264178 
L 575.197626 268.930995 
L 567.864443 268.930995 
z
" clip-path="url(#p0d7233a3ab)" style="stroke: #000000; stroke-linejoin: miter"/>
   </g>
   <g id="patch_49">
    <path d="M 598.698917 273.5966 
L 600.696945 273.5966 
L 600.696945 271.598573 
L 598.698917 271.598573 
z
" clip-path="url(#p0d7233a3ab)" style="stroke: #000000; stroke-linejoin: miter"/>
   </g>
   <g id="patch_50">
    <path d="M 624.508406 275.954007 
L 631.221249 275.954007 
L 631.221249 269.241165 
L 624.508406 269.241165 
z
" clip-path="url(#p0d7233a3ab)" style="stroke: #000000; stroke-linejoin: miter"/>
   </g>
   <g id="patch_51">
    <path d="M 652.449136 276.180174 
L 659.614312 276.180174 
L 659.614312 269.014999 
L 652.449136 269.014999 
z
" clip-path="url(#p0d7233a3ab)" style="stroke: #000000; stroke-linejoin: miter"/>
   </g>
   <g id="patch_52">
    <path d="M 681.917738 274.878469 
L 686.479503 274.878469 
L 686.479503 270.316703 
L 681.917738 270.316703 
z
" clip-path="url(#p0d7233a3ab)" style="stroke: #000000; stroke-linejoin: miter"/>
   </g>
   <g id="patch_53">
    <path d="M 710.414859 274.548245 
L 714.316176 274.548245 
L 714.316176 270.646928 
L 710.414859 270.646928 
z
" clip-path="url(#p0d7233a3ab)" style="stroke: #000000; stroke-linejoin: miter"/>
   </g>
   <g id="patch_54">
    <path d="M 736.434215 276.695785 
L 744.630613 276.695785 
L 744.630613 268.499387 
L 736.434215 268.499387 
z
" clip-path="url(#p0d7233a3ab)" style="stroke: #000000; stroke-linejoin: miter"/>
   </g>
   <g id="patch_55">
    <path d="M 767.050815 274.246081 
L 770.347806 274.246081 
L 770.347806 270.949091 
L 767.050815 270.949091 
z
" clip-path="url(#p0d7233a3ab)" style="stroke: #000000; stroke-linejoin: miter"/>
   </g>
   <g id="patch_56">
    <path d="M 793.599835 275.863958 
L 800.132579 275.863958 
L 800.132579 269.331214 
L 793.599835 269.331214 
z
" clip-path="url(#p0d7233a3ab)" style="stroke: #000000; stroke-linejoin: miter"/>
   </g>
   <g id="patch_57">
    <path d="M 57.464594 251.492993 
L 71.5892 251.492993 
L 71.5892 237.368387 
L 57.464594 237.368387 
z
" clip-path="url(#p0d7233a3ab)" style="stroke: #000000; stroke-linejoin: miter"/>
   </g>
   <g id="patch_58">
    <path d="M 86.311587 250.812896 
L 99.075999 250.812896 
L 99.075999 238.048484 
L 86.311587 238.048484 
z
" clip-path="url(#p0d7233a3ab)" style="stroke: #000000; stroke-linejoin: miter"/>
   </g>
   <g id="patch_59">
    <path d="M 116.33588 248.955499 
L 125.385499 248.955499 
L 125.385499 239.90588 
L 116.33588 239.90588 
z
" clip-path="url(#p0d7233a3ab)" style="stroke: #000000; stroke-linejoin: miter"/>
   </g>
   <g id="patch_60">
    <path d="M 143.044281 250.413995 
L 155.010891 250.413995 
L 155.010891 238.447385 
L 143.044281 238.447385 
z
" clip-path="url(#p0d7233a3ab)" style="stroke: #000000; stroke-linejoin: miter"/>
   </g>
   <g id="patch_61">
    <path d="M 172.489342 249.13583 
L 181.899624 249.13583 
L 181.899624 239.725549 
L 172.489342 239.725549 
z
" clip-path="url(#p0d7233a3ab)" style="stroke: #000000; stroke-linejoin: miter"/>
   </g>
   <g id="patch_62">
    <path d="M 201.072354 248.719715 
L 209.650404 248.719715 
L 209.650404 240.141665 
L 201.072354 240.141665 
z
" clip-path="url(#p0d7233a3ab)" style="stroke: #000000; stroke-linejoin: miter"/>
   </g>
   <g id="patch_63">
    <path d="M 229.918962 248.040004 
L 237.13759 248.040004 
L 237.13759 240.821375 
L 229.918962 240.821375 
z
" clip-path="url(#p0d7233a3ab)" style="stroke: #000000; stroke-linejoin: miter"/>
   </g>
   <g id="patch_64">
    <path d="M 256.984927 249.140936 
L 266.405418 249.140936 
L 266.405418 239.720444 
L 256.984927 239.720444 
z
" clip-path="url(#p0d7233a3ab)" style="stroke: #000000; stroke-linejoin: miter"/>
   </g>
   <g id="patch_65">
    <path d="M 285.798108 248.49465 
L 293.92603 248.49465 
L 293.92603 240.366729 
L 285.798108 240.366729 
z
" clip-path="url(#p0d7233a3ab)" style="stroke: #000000; stroke-linejoin: miter"/>
   </g>
   <g id="patch_66">
    <path d="M 314.256788 248.202868 
L 321.801143 248.202868 
L 321.801143 240.658512 
L 314.256788 240.658512 
z
" clip-path="url(#p0d7233a3ab)" style="stroke: #000000; stroke-linejoin: miter"/>
   </g>
   <g id="patch_67">
    <path d="M 341.744672 248.881879 
L 350.647052 248.881879 
L 350.647052 239.9795 
L 341.744672 239.9795 
z
" clip-path="url(#p0d7233a3ab)" style="stroke: #000000; stroke-linejoin: miter"/>
   </g>
   <g id="patch_68">
    <path d="M 372.096243 246.697205 
L 376.629274 246.697205 
L 376.629274 242.164174 
L 372.096243 242.164174 
z
" clip-path="url(#p0d7233a3ab)" style="stroke: #000000; stroke-linejoin: miter"/>
   </g>
   <g id="patch_69">
    <path d="M 399.782499 247.177846 
L 405.276811 247.177846 
L 405.276811 241.683534 
L 399.782499 241.683534 
z
" clip-path="url(#p0d7233a3ab)" style="stroke: #000000; stroke-linejoin: miter"/>
   </g>
   <g id="patch_70">
    <path d="M 427.532583 247.594658 
L 433.86052 247.594658 
L 433.86052 241.266721 
L 427.532583 241.266721 
z
" clip-path="url(#p0d7233a3ab)" style="stroke: #000000; stroke-linejoin: miter"/>
   </g>
   <g id="patch_71">
    <path d="M 456.072751 247.221387 
L 461.654146 247.221387 
L 461.654146 241.639992 
L 456.072751 241.639992 
z
" clip-path="url(#p0d7233a3ab)" style="stroke: #000000; stroke-linejoin: miter"/>
   </g>
   <g id="patch_72">
    <path d="M 483.308017 248.153017 
L 490.752672 248.153017 
L 490.752672 240.708362 
L 483.308017 240.708362 
z
" clip-path="url(#p0d7233a3ab)" style="stroke: #000000; stroke-linejoin: miter"/>
   </g>
   <g id="patch_73">
    <path d="M 511.288073 248.339858 
L 519.10641 248.339858 
L 519.10641 240.521521 
L 511.288073 240.521521 
z
" clip-path="url(#p0d7233a3ab)" style="stroke: #000000; stroke-linejoin: miter"/>
   </g>
   <g id="patch_74">
    <path d="M 543.364138 244.43069 
L 543.364138 244.43069 
L 543.364138 244.43069 
L 543.364138 244.43069 
z
" clip-path="url(#p0d7233a3ab)" style="stroke: #000000; stroke-linejoin: miter"/>
   </g>
   <g id="patch_75">
    <path d="M 568.844483 247.117242 
L 574.217586 247.117242 
L 574.217586 241.744138 
L 568.844483 241.744138 
z
" clip-path="url(#p0d7233a3ab)" style="stroke: #000000; stroke-linejoin: miter"/>
   </g>
   <g id="patch_76">
    <path d="M 595.874979 248.253642 
L 603.520883 248.253642 
L 603.520883 240.607737 
L 595.874979 240.607737 
z
" clip-path="url(#p0d7233a3ab)" style="stroke: #000000; stroke-linejoin: miter"/>
   </g>
   <g id="patch_77">
    <path d="M 626.224581 246.070936 
L 629.505074 246.070936 
L 629.505074 242.790443 
L 626.224581 242.790443 
z
" clip-path="url(#p0d7233a3ab)" style="stroke: #000000; stroke-linejoin: miter"/>
   </g>
   <g id="patch_78">
    <path d="M 653.698244 246.76417 
L 658.365204 246.76417 
L 658.365204 242.09721 
L 653.698244 242.09721 
z
" clip-path="url(#p0d7233a3ab)" style="stroke: #000000; stroke-linejoin: miter"/>
   </g>
   <g id="patch_79">
    <path d="M 680.117808 248.511503 
L 688.279434 248.511503 
L 688.279434 240.349876 
L 680.117808 240.349876 
z
" clip-path="url(#p0d7233a3ab)" style="stroke: #000000; stroke-linejoin: miter"/>
   </g>
   <g id="patch_80">
    <path d="M 710.953378 245.842829 
L 713.777657 245.842829 
L 713.777657 243.01855 
L 710.953378 243.01855 
z
" clip-path="url(#p0d7233a3ab)" style="stroke: #000000; stroke-linejoin: miter"/>
   </g>
   <g id="patch_81">
    <path d="M 738.703837 246.259267 
L 742.360991 246.259267 
L 742.360991 242.602113 
L 738.703837 242.602113 
z
" clip-path="url(#p0d7233a3ab)" style="stroke: #000000; stroke-linejoin: miter"/>
   </g>
   <g id="patch_82">
    <path d="M 765.948619 247.181381 
L 771.450001 247.181381 
L 771.450001 241.679999 
L 765.948619 241.679999 
z
" clip-path="url(#p0d7233a3ab)" style="stroke: #000000; stroke-linejoin: miter"/>
   </g>
   <g id="patch_83">
    <path d="M 795.733708 245.563189 
L 797.998706 245.563189 
L 797.998706 243.29819 
L 795.733708 243.29819 
z
" clip-path="url(#p0d7233a3ab)" style="stroke: #000000; stroke-linejoin: miter"/>
   </g>
   <g id="patch_84">
    <path d="M 56.636679 224.15401 
L 72.417114 224.15401 
L 72.417114 208.373576 
L 56.636679 208.373576 
z
" clip-path="url(#p0d7233a3ab)" style="stroke: #000000; stroke-linejoin: miter"/>
   </g>
   <g id="patch_85">
    <path d="M 86.836368 222.121218 
L 98.551218 222.121218 
L 98.551218 210.406368 
L 86.836368 210.406368 
z
" clip-path="url(#p0d7233a3ab)" style="stroke: #000000; stroke-linejoin: miter"/>
   </g>
   <g id="patch_86">
    <path d="M 116.411739 220.712744 
L 125.30964 220.712744 
L 125.30964 211.814842 
L 116.411739 211.814842 
z
" clip-path="url(#p0d7233a3ab)" style="stroke: #000000; stroke-linejoin: miter"/>
   </g>
   <g id="patch_87">
    <path d="M 144.439485 220.851894 
L 153.615687 220.851894 
L 153.615687 211.675692 
L 144.439485 211.675692 
z
" clip-path="url(#p0d7233a3ab)" style="stroke: #000000; stroke-linejoin: miter"/>
   </g>
   <g id="patch_88">
    <path d="M 171.723456 221.73482 
L 182.66551 221.73482 
L 182.66551 210.792766 
L 171.723456 210.792766 
z
" clip-path="url(#p0d7233a3ab)" style="stroke: #000000; stroke-linejoin: miter"/>
   </g>
   <g id="patch_89">
    <path d="M 200.35028 221.274893 
L 210.372479 221.274893 
L 210.372479 211.252694 
L 200.35028 211.252694 
z
" clip-path="url(#p0d7233a3ab)" style="stroke: #000000; stroke-linejoin: miter"/>
   </g>
   <g id="patch_90">
    <path d="M 229.616945 220.175124 
L 237.439607 220.175124 
L 237.439607 212.352462 
L 229.616945 212.352462 
z
" clip-path="url(#p0d7233a3ab)" style="stroke: #000000; stroke-linejoin: miter"/>
   </g>
   <g id="patch_91">
    <path d="M 256.470036 221.48893 
L 266.920309 221.48893 
L 266.920309 211.038656 
L 256.470036 211.038656 
z
" clip-path="url(#p0d7233a3ab)" style="stroke: #000000; stroke-linejoin: miter"/>
   </g>
   <g id="patch_92">
    <path d="M 286.695337 219.430525 
L 293.028801 219.430525 
L 293.028801 213.097061 
L 286.695337 213.097061 
z
" clip-path="url(#p0d7233a3ab)" style="stroke: #000000; stroke-linejoin: miter"/>
   </g>
   <g id="patch_93">
    <path d="M 313.942071 220.350688 
L 322.11586 220.350688 
L 322.11586 212.176899 
L 313.942071 212.176899 
z
" clip-path="url(#p0d7233a3ab)" style="stroke: #000000; stroke-linejoin: miter"/>
   </g>
   <g id="patch_94">
    <path d="M 342.840905 219.618751 
L 349.55082 219.618751 
L 349.55082 212.908836 
L 342.840905 212.908836 
z
" clip-path="url(#p0d7233a3ab)" style="stroke: #000000; stroke-linejoin: miter"/>
   </g>
   <g id="patch_95">
    <path d="M 370.706325 219.920227 
L 378.019192 219.920227 
L 378.019192 212.60736 
L 370.706325 212.60736 
z
" clip-path="url(#p0d7233a3ab)" style="stroke: #000000; stroke-linejoin: miter"/>
   </g>
   <g id="patch_96">
    <path d="M 398.530103 220.263345 
L 406.529207 220.263345 
L 406.529207 212.264241 
L 398.530103 212.264241 
z
" clip-path="url(#p0d7233a3ab)" style="stroke: #000000; stroke-linejoin: miter"/>
   </g>
   <g id="patch_97">
    <path d="M 426.301605 220.658739 
L 435.091498 220.658739 
L 435.091498 211.868847 
L 426.301605 211.868847 
z
" clip-path="url(#p0d7233a3ab)" style="stroke: #000000; stroke-linejoin: miter"/>
   </g>
   <g id="patch_98">
    <path d="M 455.342825 219.784416 
L 462.384072 219.784416 
L 462.384072 212.74317 
L 455.342825 212.74317 
z
" clip-path="url(#p0d7233a3ab)" style="stroke: #000000; stroke-linejoin: miter"/>
   </g>
   <g id="patch_99">
    <path d="M 484.233557 219.060581 
L 489.827132 219.060581 
L 489.827132 213.467005 
L 484.233557 213.467005 
z
" clip-path="url(#p0d7233a3ab)" style="stroke: #000000; stroke-linejoin: miter"/>
   </g>
   <g id="patch_100">
    <path d="M 511.564783 219.896251 
L 518.829699 219.896251 
L 518.829699 212.631335 
L 511.564783 212.631335 
z
" clip-path="url(#p0d7233a3ab)" style="stroke: #000000; stroke-linejoin: miter"/>
   </g>
   <g id="patch_101">
    <path d="M 539.453077 220.174854 
L 547.275198 220.174854 
L 547.275198 212.352733 
L 539.453077 212.352733 
z
" clip-path="url(#p0d7233a3ab)" style="stroke: #000000; stroke-linejoin: miter"/>
   </g>
   <g id="patch_102">
    <path d="M 568.333845 219.460983 
L 574.728224 219.460983 
L 574.728224 213.066603 
L 568.333845 213.066603 
z
" clip-path="url(#p0d7233a3ab)" style="stroke: #000000; stroke-linejoin: miter"/>
   </g>
   <g id="patch_103">
    <path d="M 596.091482 219.870242 
L 603.30438 219.870242 
L 603.30438 212.657344 
L 596.091482 212.657344 
z
" clip-path="url(#p0d7233a3ab)" style="stroke: #000000; stroke-linejoin: miter"/>
   </g>
   <g id="patch_104">
    <path d="M 624.162135 219.966486 
L 631.56752 219.966486 
L 631.56752 212.561101 
L 624.162135 212.561101 
z
" clip-path="url(#p0d7233a3ab)" style="stroke: #000000; stroke-linejoin: miter"/>
   </g>
   <g id="patch_105">
    <path d="M 652.160323 220.135194 
L 659.903125 220.135194 
L 659.903125 212.392392 
L 652.160323 212.392392 
z
" clip-path="url(#p0d7233a3ab)" style="stroke: #000000; stroke-linejoin: miter"/>
   </g>
   <g id="patch_106">
    <path d="M 682.218936 218.243477 
L 686.178305 218.243477 
L 686.178305 214.284109 
L 682.218936 214.284109 
z
" clip-path="url(#p0d7233a3ab)" style="stroke: #000000; stroke-linejoin: miter"/>
   </g>
   <g id="patch_107">
    <path d="M 709.491961 219.137349 
L 715.239073 219.137349 
L 715.239073 213.390237 
L 709.491961 213.390237 
z
" clip-path="url(#p0d7233a3ab)" style="stroke: #000000; stroke-linejoin: miter"/>
   </g>
   <g id="patch_108">
    <path d="M 737.412226 219.383981 
L 743.652602 219.383981 
L 743.652602 213.143605 
L 737.412226 213.143605 
z
" clip-path="url(#p0d7233a3ab)" style="stroke: #000000; stroke-linejoin: miter"/>
   </g>
   <g id="patch_109">
    <path d="M 764.741668 220.221435 
L 772.656952 220.221435 
L 772.656952 212.306151 
L 764.741668 212.306151 
z
" clip-path="url(#p0d7233a3ab)" style="stroke: #000000; stroke-linejoin: miter"/>
   </g>
   <g id="patch_110">
    <path d="M 793.41652 219.71348 
L 800.315894 219.71348 
L 800.315894 212.814106 
L 793.41652 212.814106 
z
" clip-path="url(#p0d7233a3ab)" style="stroke: #000000; stroke-linejoin: miter"/>
   </g>
   <g id="patch_111">
    <path d="M 57.554899 195.068894 
L 71.498894 195.068894 
L 71.498894 181.124899 
L 57.554899 181.124899 
z
" clip-path="url(#p0d7233a3ab)" style="stroke: #000000; stroke-linejoin: miter"/>
   </g>
   <g id="patch_112">
    <path d="M 87.804085 192.986604 
L 97.583501 192.986604 
L 97.583501 183.207189 
L 87.804085 183.207189 
z
" clip-path="url(#p0d7233a3ab)" style="stroke: #000000; stroke-linejoin: miter"/>
   </g>
   <g id="patch_113">
    <path d="M 116.849437 192.10815 
L 124.871943 192.10815 
L 124.871943 184.085643 
L 116.849437 184.085643 
z
" clip-path="url(#p0d7233a3ab)" style="stroke: #000000; stroke-linejoin: miter"/>
   </g>
   <g id="patch_114">
    <path d="M 145.333774 191.790709 
L 152.721399 191.790709 
L 152.721399 184.403084 
L 145.333774 184.403084 
z
" clip-path="url(#p0d7233a3ab)" style="stroke: #000000; stroke-linejoin: miter"/>
   </g>
   <g id="patch_115">
    <path d="M 173.650302 191.641077 
L 180.738664 191.641077 
L 180.738664 184.552716 
L 173.650302 184.552716 
z
" clip-path="url(#p0d7233a3ab)" style="stroke: #000000; stroke-linejoin: miter"/>
   </g>
   <g id="patch_116">
    <path d="M 201.568321 191.889955 
L 209.154437 191.889955 
L 209.154437 184.303838 
L 201.568321 184.303838 
z
" clip-path="url(#p0d7233a3ab)" style="stroke: #000000; stroke-linejoin: miter"/>
   </g>
   <g id="patch_117">
    <path d="M 229.481322 192.143851 
L 237.57523 192.143851 
L 237.57523 184.049943 
L 229.481322 184.049943 
z
" clip-path="url(#p0d7233a3ab)" style="stroke: #000000; stroke-linejoin: miter"/>
   </g>
   <g id="patch_118">
    <path d="M 259.211787 190.580282 
L 264.178558 190.580282 
L 264.178558 185.613511 
L 259.211787 185.613511 
z
" clip-path="url(#p0d7233a3ab)" style="stroke: #000000; stroke-linejoin: miter"/>
   </g>
   <g id="patch_119">
    <path d="M 285.987129 191.971837 
L 293.737009 191.971837 
L 293.737009 184.221956 
L 285.987129 184.221956 
z
" clip-path="url(#p0d7233a3ab)" style="stroke: #000000; stroke-linejoin: miter"/>
   </g>
   <g id="patch_120">
    <path d="M 314.992412 191.13345 
L 321.065519 191.13345 
L 321.065519 185.060343 
L 314.992412 185.060343 
z
" clip-path="url(#p0d7233a3ab)" style="stroke: #000000; stroke-linejoin: miter"/>
   </g>
   <g id="patch_121">
    <path d="M 343.195224 191.097535 
L 349.196501 191.097535 
L 349.196501 185.096258 
L 343.195224 185.096258 
z
" clip-path="url(#p0d7233a3ab)" style="stroke: #000000; stroke-linejoin: miter"/>
   </g>
   <g id="patch_122">
    <path d="M 371.162761 191.296894 
L 377.562756 191.296894 
L 377.562756 184.896899 
L 371.162761 184.896899 
z
" clip-path="url(#p0d7233a3ab)" style="stroke: #000000; stroke-linejoin: miter"/>
   </g>
   <g id="patch_123">
    <path d="M 398.410056 192.216496 
L 406.649254 192.216496 
L 406.649254 183.977298 
L 398.410056 183.977298 
z
" clip-path="url(#p0d7233a3ab)" style="stroke: #000000; stroke-linejoin: miter"/>
   </g>
   <g id="patch_124">
    <path d="M 427.584368 191.209081 
L 433.808736 191.209081 
L 433.808736 184.984712 
L 427.584368 184.984712 
z
" clip-path="url(#p0d7233a3ab)" style="stroke: #000000; stroke-linejoin: miter"/>
   </g>
   <g id="patch_125">
    <path d="M 456.339667 190.620678 
L 461.38723 190.620678 
L 461.38723 185.573115 
L 456.339667 185.573115 
z
" clip-path="url(#p0d7233a3ab)" style="stroke: #000000; stroke-linejoin: miter"/>
   </g>
   <g id="patch_126">
    <path d="M 483.471579 191.655663 
L 490.589111 191.655663 
L 490.589111 184.53813 
L 483.471579 184.53813 
z
" clip-path="url(#p0d7233a3ab)" style="stroke: #000000; stroke-linejoin: miter"/>
   </g>
   <g id="patch_127">
    <path d="M 513.239873 190.054265 
L 517.15461 190.054265 
L 517.15461 186.139528 
L 513.239873 186.139528 
z
" clip-path="url(#p0d7233a3ab)" style="stroke: #000000; stroke-linejoin: miter"/>
   </g>
   <g id="patch_128">
    <path d="M 541.683405 189.77763 
L 545.044871 189.77763 
L 545.044871 186.416163 
L 541.683405 186.416163 
z
" clip-path="url(#p0d7233a3ab)" style="stroke: #000000; stroke-linejoin: miter"/>
   </g>
   <g id="patch_129">
    <path d="M 568.283097 191.344834 
L 574.778972 191.344834 
L 574.778972 184.848959 
L 568.283097 184.848959 
z
" clip-path="url(#p0d7233a3ab)" style="stroke: #000000; stroke-linejoin: miter"/>
   </g>
   <g id="patch_130">
    <path d="M 597.639873 190.154954 
L 601.755989 190.154954 
L 601.755989 186.038839 
L 597.639873 186.038839 
z
" clip-path="url(#p0d7233a3ab)" style="stroke: #000000; stroke-linejoin: miter"/>
   </g>
   <g id="patch_131">
    <path d="M 624.613774 191.347951 
L 631.115882 191.347951 
L 631.115882 184.845843 
L 624.613774 184.845843 
z
" clip-path="url(#p0d7233a3ab)" style="stroke: #000000; stroke-linejoin: miter"/>
   </g>
   <g id="patch_132">
    <path d="M 653.426783 190.701838 
L 658.636665 190.701838 
L 658.636665 185.491955 
L 653.426783 185.491955 
z
" clip-path="url(#p0d7233a3ab)" style="stroke: #000000; stroke-linejoin: miter"/>
   </g>
   <g id="patch_133">
    <path d="M 681.681074 190.614443 
L 686.716168 190.614443 
L 686.716168 185.57935 
L 681.681074 185.57935 
z
" clip-path="url(#p0d7233a3ab)" style="stroke: #000000; stroke-linejoin: miter"/>
   </g>
   <g id="patch_134">
    <path d="M 709.767875 190.694539 
L 714.96316 190.694539 
L 714.96316 185.499254 
L 709.767875 185.499254 
z
" clip-path="url(#p0d7233a3ab)" style="stroke: #000000; stroke-linejoin: miter"/>
   </g>
   <g id="patch_135">
    <path d="M 737.601572 191.027739 
L 743.463256 191.027739 
L 743.463256 185.166054 
L 737.601572 185.166054 
z
" clip-path="url(#p0d7233a3ab)" style="stroke: #000000; stroke-linejoin: miter"/>
   </g>
   <g id="patch_136">
    <path d="M 766.674032 190.122175 
L 770.724589 190.122175 
L 770.724589 186.071618 
L 766.674032 186.071618 
z
" clip-path="url(#p0d7233a3ab)" style="stroke: #000000; stroke-linejoin: miter"/>
   </g>
   <g id="patch_137">
    <path d="M 794.326442 190.636662 
L 799.405972 190.636662 
L 799.405972 185.557131 
L 794.326442 185.557131 
z
" clip-path="url(#p0d7233a3ab)" style="stroke: #000000; stroke-linejoin: miter"/>
   </g>
   <g id="patch_138">
    <path d="M 57.282072 167.174825 
L 71.771721 167.174825 
L 71.771721 152.685175 
L 57.282072 152.685175 
z
" clip-path="url(#p0d7233a3ab)" style="stroke: #000000; stroke-linejoin: miter"/>
   </g>
   <g id="patch_139">
    <path d="M 85.816536 166.807257 
L 99.571051 166.807257 
L 99.571051 153.052743 
L 85.816536 153.052743 
z
" clip-path="url(#p0d7233a3ab)" style="stroke: #000000; stroke-linejoin: miter"/>
   </g>
   <g id="patch_140">
    <path d="M 115.394329 165.396361 
L 126.327051 165.396361 
L 126.327051 154.463639 
L 115.394329 154.463639 
z
" clip-path="url(#p0d7233a3ab)" style="stroke: #000000; stroke-linejoin: miter"/>
   </g>
   <g id="patch_141">
    <path d="M 144.472101 164.485485 
L 153.583071 164.485485 
L 153.583071 155.374515 
L 144.472101 155.374515 
z
" clip-path="url(#p0d7233a3ab)" style="stroke: #000000; stroke-linejoin: miter"/>
   </g>
   <g id="patch_142">
    <path d="M 172.939267 164.185215 
L 181.449698 164.185215 
L 181.449698 155.674785 
L 172.939267 155.674785 
z
" clip-path="url(#p0d7233a3ab)" style="stroke: #000000; stroke-linejoin: miter"/>
   </g>
   <g id="patch_143">
    <path d="M 201.042388 164.248991 
L 209.680371 164.248991 
L 209.680371 155.611009 
L 201.042388 155.611009 
z
" clip-path="url(#p0d7233a3ab)" style="stroke: #000000; stroke-linejoin: miter"/>
   </g>
   <g id="patch_144">
    <path d="M 229.133486 164.32479 
L 237.923066 164.32479 
L 237.923066 155.53521 
L 229.133486 155.53521 
z
" clip-path="url(#p0d7233a3ab)" style="stroke: #000000; stroke-linejoin: miter"/>
   </g>
   <g id="patch_145">
    <path d="M 258.258878 163.366295 
L 265.131467 163.366295 
L 265.131467 156.493705 
L 258.258878 156.493705 
z
" clip-path="url(#p0d7233a3ab)" style="stroke: #000000; stroke-linejoin: miter"/>
   </g>
   <g id="patch_146">
    <path d="M 285.867263 163.924806 
L 293.856874 163.924806 
L 293.856874 155.935194 
L 285.867263 155.935194 
z
" clip-path="url(#p0d7233a3ab)" style="stroke: #000000; stroke-linejoin: miter"/>
   </g>
   <g id="patch_147">
    <path d="M 314.331785 163.627181 
L 321.726146 163.627181 
L 321.726146 156.232819 
L 314.331785 156.232819 
z
" clip-path="url(#p0d7233a3ab)" style="stroke: #000000; stroke-linejoin: miter"/>
   </g>
   <g id="patch_148">
    <path d="M 343.563624 162.562239 
L 348.828101 162.562239 
L 348.828101 157.297761 
L 343.563624 157.297761 
z
" clip-path="url(#p0d7233a3ab)" style="stroke: #000000; stroke-linejoin: miter"/>
   </g>
   <g id="patch_149">
    <path d="M 370.536727 163.756032 
L 378.188791 163.756032 
L 378.188791 156.103968 
L 370.536727 156.103968 
z
" clip-path="url(#p0d7233a3ab)" style="stroke: #000000; stroke-linejoin: miter"/>
   </g>
   <g id="patch_150">
    <path d="M 398.620509 163.839147 
L 406.438802 163.839147 
L 406.438802 156.020853 
L 398.620509 156.020853 
z
" clip-path="url(#p0d7233a3ab)" style="stroke: #000000; stroke-linejoin: miter"/>
   </g>
   <g id="patch_151">
    <path d="M 427.983096 162.643456 
L 433.410008 162.643456 
L 433.410008 157.216544 
L 427.983096 157.216544 
z
" clip-path="url(#p0d7233a3ab)" style="stroke: #000000; stroke-linejoin: miter"/>
   </g>
   <g id="patch_152">
    <path d="M 455.059555 163.733894 
L 462.667342 163.733894 
L 462.667342 156.126106 
L 455.059555 156.126106 
z
" clip-path="url(#p0d7233a3ab)" style="stroke: #000000; stroke-linejoin: miter"/>
   </g>
   <g id="patch_153">
    <path d="M 484.754283 162.206061 
L 489.306406 162.206061 
L 489.306406 157.653939 
L 484.754283 157.653939 
z
" clip-path="url(#p0d7233a3ab)" style="stroke: #000000; stroke-linejoin: miter"/>
   </g>
   <g id="patch_154">
    <path d="M 512.64531 162.481931 
L 517.749173 162.481931 
L 517.749173 157.378069 
L 512.64531 157.378069 
z
" clip-path="url(#p0d7233a3ab)" style="stroke: #000000; stroke-linejoin: miter"/>
   </g>
   <g id="patch_155">
    <path d="M 540.4044 162.889737 
L 546.323875 162.889737 
L 546.323875 156.970263 
L 540.4044 156.970263 
z
" clip-path="url(#p0d7233a3ab)" style="stroke: #000000; stroke-linejoin: miter"/>
   </g>
   <g id="patch_156">
    <path d="M 568.287706 163.173328 
L 574.774363 163.173328 
L 574.774363 156.686672 
L 568.287706 156.686672 
z
" clip-path="url(#p0d7233a3ab)" style="stroke: #000000; stroke-linejoin: miter"/>
   </g>
   <g id="patch_157">
    <path d="M 596.14834 163.479591 
L 603.247522 163.479591 
L 603.247522 156.380409 
L 596.14834 156.380409 
z
" clip-path="url(#p0d7233a3ab)" style="stroke: #000000; stroke-linejoin: miter"/>
   </g>
   <g id="patch_158">
    <path d="M 624.652419 163.142409 
L 631.077236 163.142409 
L 631.077236 156.717591 
L 624.652419 156.717591 
z
" clip-path="url(#p0d7233a3ab)" style="stroke: #000000; stroke-linejoin: miter"/>
   </g>
   <g id="patch_159">
    <path d="M 653.540798 162.420926 
L 658.52265 162.420926 
L 658.52265 157.439074 
L 653.540798 157.439074 
z
" clip-path="url(#p0d7233a3ab)" style="stroke: #000000; stroke-linejoin: miter"/>
   </g>
   <g id="patch_160">
    <path d="M 681.699258 162.429363 
L 686.697984 162.429363 
L 686.697984 157.430637 
L 681.699258 157.430637 
z
" clip-path="url(#p0d7233a3ab)" style="stroke: #000000; stroke-linejoin: miter"/>
   </g>
   <g id="patch_161">
    <path d="M 708.924316 163.371201 
L 715.806718 163.371201 
L 715.806718 156.488799 
L 708.924316 156.488799 
z
" clip-path="url(#p0d7233a3ab)" style="stroke: #000000; stroke-linejoin: miter"/>
   </g>
   <g id="patch_162">
    <path d="M 737.988204 162.47421 
L 743.076624 162.47421 
L 743.076624 157.38579 
L 737.988204 157.38579 
z
" clip-path="url(#p0d7233a3ab)" style="stroke: #000000; stroke-linejoin: miter"/>
   </g>
   <g id="patch_163">
    <path d="M 766.36905 162.26026 
L 771.02957 162.26026 
L 771.02957 157.59974 
L 766.36905 157.59974 
z
" clip-path="url(#p0d7233a3ab)" style="stroke: #000000; stroke-linejoin: miter"/>
   </g>
   <g id="patch_164">
    <path d="M 794.097207 162.699 
L 799.635207 162.699 
L 799.635207 157.161 
L 794.097207 157.161 
z
" clip-path="url(#p0d7233a3ab)" style="stroke: #000000; stroke-linejoin: miter"/>
   </g>
   <g id="patch_165">
    <path d="M 59.152171 137.137829 
L 69.901623 137.137829 
L 69.901623 126.388377 
L 59.152171 126.388377 
z
" clip-path="url(#p0d7233a3ab)" style="stroke: #000000; stroke-linejoin: miter"/>
   </g>
   <g id="patch_166">
    <path d="M 87.511514 136.945383 
L 97.876072 136.945383 
L 97.876072 126.580824 
L 87.511514 126.580824 
z
" clip-path="url(#p0d7233a3ab)" style="stroke: #000000; stroke-linejoin: miter"/>
   </g>
   <g id="patch_167">
    <path d="M 116.061022 136.562771 
L 125.660357 136.562771 
L 125.660357 126.963436 
L 116.061022 126.963436 
z
" clip-path="url(#p0d7233a3ab)" style="stroke: #000000; stroke-linejoin: miter"/>
   </g>
   <g id="patch_168">
    <path d="M 144.998301 135.792388 
L 153.056871 135.792388 
L 153.056871 127.733818 
L 144.998301 127.733818 
z
" clip-path="url(#p0d7233a3ab)" style="stroke: #000000; stroke-linejoin: miter"/>
   </g>
   <g id="patch_169">
    <path d="M 172.788012 136.169574 
L 181.600953 136.169574 
L 181.600953 127.356633 
L 172.788012 127.356633 
z
" clip-path="url(#p0d7233a3ab)" style="stroke: #000000; stroke-linejoin: miter"/>
   </g>
   <g id="patch_170">
    <path d="M 201.548455 135.576028 
L 209.174304 135.576028 
L 209.174304 127.950179 
L 201.548455 127.950179 
z
" clip-path="url(#p0d7233a3ab)" style="stroke: #000000; stroke-linejoin: miter"/>
   </g>
   <g id="patch_171">
    <path d="M 229.41463 135.876749 
L 237.641922 135.876749 
L 237.641922 127.649458 
L 229.41463 127.649458 
z
" clip-path="url(#p0d7233a3ab)" style="stroke: #000000; stroke-linejoin: miter"/>
   </g>
   <g id="patch_172">
    <path d="M 258.214793 135.243483 
L 265.175552 135.243483 
L 265.175552 128.282724 
L 258.214793 128.282724 
z
" clip-path="url(#p0d7233a3ab)" style="stroke: #000000; stroke-linejoin: miter"/>
   </g>
   <g id="patch_173">
    <path d="M 285.982796 135.642376 
L 293.741342 135.642376 
L 293.741342 127.883831 
L 285.982796 127.883831 
z
" clip-path="url(#p0d7233a3ab)" style="stroke: #000000; stroke-linejoin: miter"/>
   </g>
   <g id="patch_174">
    <path d="M 314.672806 135.119263 
L 321.385125 135.119263 
L 321.385125 128.406944 
L 314.672806 128.406944 
z
" clip-path="url(#p0d7233a3ab)" style="stroke: #000000; stroke-linejoin: miter"/>
   </g>
   <g id="patch_175">
    <path d="M 341.999029 135.959937 
L 350.392695 135.959937 
L 350.392695 127.56627 
L 341.999029 127.56627 
z
" clip-path="url(#p0d7233a3ab)" style="stroke: #000000; stroke-linejoin: miter"/>
   </g>
   <g id="patch_176">
    <path d="M 370.571466 135.554396 
L 378.154051 135.554396 
L 378.154051 127.971811 
L 370.571466 127.971811 
z
" clip-path="url(#p0d7233a3ab)" style="stroke: #000000; stroke-linejoin: miter"/>
   </g>
   <g id="patch_177">
    <path d="M 398.635197 135.657562 
L 406.424113 135.657562 
L 406.424113 127.868645 
L 398.635197 127.868645 
z
" clip-path="url(#p0d7233a3ab)" style="stroke: #000000; stroke-linejoin: miter"/>
   </g>
   <g id="patch_178">
    <path d="M 427.500817 134.958838 
L 433.892287 134.958838 
L 433.892287 128.567368 
L 427.500817 128.567368 
z
" clip-path="url(#p0d7233a3ab)" style="stroke: #000000; stroke-linejoin: miter"/>
   </g>
   <g id="patch_179">
    <path d="M 455.219907 135.406645 
L 462.50699 135.406645 
L 462.50699 128.119562 
L 455.219907 128.119562 
z
" clip-path="url(#p0d7233a3ab)" style="stroke: #000000; stroke-linejoin: miter"/>
   </g>
   <g id="patch_180">
    <path d="M 483.681694 135.111754 
L 490.378995 135.111754 
L 490.378995 128.414453 
L 483.681694 128.414453 
z
" clip-path="url(#p0d7233a3ab)" style="stroke: #000000; stroke-linejoin: miter"/>
   </g>
   <g id="patch_181">
    <path d="M 512.520047 134.440298 
L 517.874436 134.440298 
L 517.874436 129.085909 
L 512.520047 129.085909 
z
" clip-path="url(#p0d7233a3ab)" style="stroke: #000000; stroke-linejoin: miter"/>
   </g>
   <g id="patch_182">
    <path d="M 540.605557 134.521684 
L 546.122719 134.521684 
L 546.122719 129.004523 
L 540.605557 129.004523 
z
" clip-path="url(#p0d7233a3ab)" style="stroke: #000000; stroke-linejoin: miter"/>
   </g>
   <g id="patch_183">
    <path d="M 567.920109 135.374029 
L 575.14196 135.374029 
L 575.14196 128.152178 
L 567.920109 128.152178 
z
" clip-path="url(#p0d7233a3ab)" style="stroke: #000000; stroke-linejoin: miter"/>
   </g>
   <g id="patch_184">
    <path d="M 596.43718 135.023854 
L 602.958682 135.023854 
L 602.958682 128.502353 
L 596.43718 128.502353 
z
" clip-path="url(#p0d7233a3ab)" style="stroke: #000000; stroke-linejoin: miter"/>
   </g>
   <g id="patch_185">
    <path d="M 624.638997 134.988934 
L 631.090658 134.988934 
L 631.090658 128.537273 
L 624.638997 128.537273 
z
" clip-path="url(#p0d7233a3ab)" style="stroke: #000000; stroke-linejoin: miter"/>
   </g>
   <g id="patch_186">
    <path d="M 652.963827 134.831 
L 659.099621 134.831 
L 659.099621 128.695206 
L 652.963827 128.695206 
z
" clip-path="url(#p0d7233a3ab)" style="stroke: #000000; stroke-linejoin: miter"/>
   </g>
   <g id="patch_187">
    <path d="M 680.307053 135.654671 
L 688.090189 135.654671 
L 688.090189 127.871535 
L 680.307053 127.871535 
z
" clip-path="url(#p0d7233a3ab)" style="stroke: #000000; stroke-linejoin: miter"/>
   </g>
   <g id="patch_188">
    <path d="M 708.690003 135.438617 
L 716.041031 135.438617 
L 716.041031 128.087589 
L 708.690003 128.087589 
z
" clip-path="url(#p0d7233a3ab)" style="stroke: #000000; stroke-linejoin: miter"/>
   </g>
   <g id="patch_189">
    <path d="M 737.079513 135.216004 
L 743.985314 135.216004 
L 743.985314 128.310203 
L 737.079513 128.310203 
z
" clip-path="url(#p0d7233a3ab)" style="stroke: #000000; stroke-linejoin: miter"/>
   </g>
   <g id="patch_190">
    <path d="M 764.68013 135.782284 
L 772.718491 135.782284 
L 772.718491 127.743923 
L 764.68013 127.743923 
z
" clip-path="url(#p0d7233a3ab)" style="stroke: #000000; stroke-linejoin: miter"/>
   </g>
   <g id="patch_191">
    <path d="M 792.575605 136.053706 
L 801.156809 136.053706 
L 801.156809 127.472501 
L 792.575605 127.472501 
z
" clip-path="url(#p0d7233a3ab)" style="stroke: #000000; stroke-linejoin: miter"/>
   </g>
   <g id="patch_192">
    <path d="M 63.873745 104.249358 
L 65.180048 104.249358 
L 65.180048 102.943056 
L 63.873745 102.943056 
z
" clip-path="url(#p0d7233a3ab)" style="stroke: #000000; stroke-linejoin: miter"/>
   </g>
   <g id="patch_193">
    <path d="M 91.858845 104.431155 
L 93.528741 104.431155 
L 93.528741 102.761259 
L 91.858845 102.761259 
z
" clip-path="url(#p0d7233a3ab)" style="stroke: #000000; stroke-linejoin: miter"/>
   </g>
   <g id="patch_194">
    <path d="M 120.86069 103.596207 
L 120.86069 103.596207 
L 120.86069 103.596207 
L 120.86069 103.596207 
z
" clip-path="url(#p0d7233a3ab)" style="stroke: #000000; stroke-linejoin: miter"/>
   </g>
   <g id="patch_195">
    <path d="M 147.308511 105.315283 
L 150.746662 105.315283 
L 150.746662 101.877131 
L 147.308511 101.877131 
z
" clip-path="url(#p0d7233a3ab)" style="stroke: #000000; stroke-linejoin: miter"/>
   </g>
   <g id="patch_196">
    <path d="M 175.681106 105.109583 
L 178.707859 105.109583 
L 178.707859 102.082831 
L 175.681106 102.082831 
z
" clip-path="url(#p0d7233a3ab)" style="stroke: #000000; stroke-linejoin: miter"/>
   </g>
   <g id="patch_197">
    <path d="M 203.614967 105.34262 
L 207.107792 105.34262 
L 207.107792 101.849794 
L 203.614967 101.849794 
z
" clip-path="url(#p0d7233a3ab)" style="stroke: #000000; stroke-linejoin: miter"/>
   </g>
   <g id="patch_198">
    <path d="M 231.559364 105.565119 
L 235.497188 105.565119 
L 235.497188 101.627295 
L 231.559364 101.627295 
z
" clip-path="url(#p0d7233a3ab)" style="stroke: #000000; stroke-linejoin: miter"/>
   </g>
   <g id="patch_199">
    <path d="M 259.565638 105.725741 
L 263.824707 105.725741 
L 263.824707 101.466672 
L 259.565638 101.466672 
z
" clip-path="url(#p0d7233a3ab)" style="stroke: #000000; stroke-linejoin: miter"/>
   </g>
   <g id="patch_200">
    <path d="M 286.962222 106.496054 
L 292.761916 106.496054 
L 292.761916 100.69636 
L 286.962222 100.69636 
z
" clip-path="url(#p0d7233a3ab)" style="stroke: #000000; stroke-linejoin: miter"/>
   </g>
   <g id="patch_201">
    <path d="M 315.849909 105.775263 
L 320.208022 105.775263 
L 320.208022 101.417151 
L 315.849909 101.417151 
z
" clip-path="url(#p0d7233a3ab)" style="stroke: #000000; stroke-linejoin: miter"/>
   </g>
   <g id="patch_202">
    <path d="M 343.431445 106.360624 
L 348.960279 106.360624 
L 348.960279 100.83179 
L 343.431445 100.83179 
z
" clip-path="url(#p0d7233a3ab)" style="stroke: #000000; stroke-linejoin: miter"/>
   </g>
   <g id="patch_203">
    <path d="M 372.028317 105.930649 
L 376.697201 105.930649 
L 376.697201 101.261765 
L 372.028317 101.261765 
z
" clip-path="url(#p0d7233a3ab)" style="stroke: #000000; stroke-linejoin: miter"/>
   </g>
   <g id="patch_204">
    <path d="M 400.119496 106.006366 
L 404.939814 106.006366 
L 404.939814 101.186048 
L 400.119496 101.186048 
z
" clip-path="url(#p0d7233a3ab)" style="stroke: #000000; stroke-linejoin: miter"/>
   </g>
   <g id="patch_205">
    <path d="M 428.675799 105.616959 
L 432.717304 105.616959 
L 432.717304 101.575454 
L 428.675799 101.575454 
z
" clip-path="url(#p0d7233a3ab)" style="stroke: #000000; stroke-linejoin: miter"/>
   </g>
   <g id="patch_206">
    <path d="M 456.722483 105.737172 
L 461.004413 105.737172 
L 461.004413 101.455242 
L 456.722483 101.455242 
z
" clip-path="url(#p0d7233a3ab)" style="stroke: #000000; stroke-linejoin: miter"/>
   </g>
   <g id="patch_207">
    <path d="M 484.02567 106.600881 
L 490.035019 106.600881 
L 490.035019 100.591532 
L 484.02567 100.591532 
z
" clip-path="url(#p0d7233a3ab)" style="stroke: #000000; stroke-linejoin: miter"/>
   </g>
   <g id="patch_208">
    <path d="M 512.485677 106.307772 
L 517.908806 106.307772 
L 517.908806 100.884642 
L 512.485677 100.884642 
z
" clip-path="url(#p0d7233a3ab)" style="stroke: #000000; stroke-linejoin: miter"/>
   </g>
   <g id="patch_209">
    <path d="M 541.545969 105.414375 
L 545.182306 105.414375 
L 545.182306 101.778038 
L 541.545969 101.778038 
z
" clip-path="url(#p0d7233a3ab)" style="stroke: #000000; stroke-linejoin: miter"/>
   </g>
   <g id="patch_210">
    <path d="M 569.718816 105.408425 
L 573.343253 105.408425 
L 573.343253 101.783988 
L 569.718816 101.783988 
z
" clip-path="url(#p0d7233a3ab)" style="stroke: #000000; stroke-linejoin: miter"/>
   </g>
   <g id="patch_211">
    <path d="M 596.541728 106.75241 
L 602.854135 106.75241 
L 602.854135 100.440003 
L 596.541728 100.440003 
z
" clip-path="url(#p0d7233a3ab)" style="stroke: #000000; stroke-linejoin: miter"/>
   </g>
   <g id="patch_212">
    <path d="M 625.717091 105.743944 
L 630.012564 105.743944 
L 630.012564 101.44847 
L 625.717091 101.44847 
z
" clip-path="url(#p0d7233a3ab)" style="stroke: #000000; stroke-linejoin: miter"/>
   </g>
   <g id="patch_213">
    <path d="M 653.806974 105.820957 
L 658.256474 105.820957 
L 658.256474 101.371457 
L 653.806974 101.371457 
z
" clip-path="url(#p0d7233a3ab)" style="stroke: #000000; stroke-linejoin: miter"/>
   </g>
   <g id="patch_214">
    <path d="M 682.117743 105.677084 
L 686.279498 105.677084 
L 686.279498 101.51533 
L 682.117743 101.51533 
z
" clip-path="url(#p0d7233a3ab)" style="stroke: #000000; stroke-linejoin: miter"/>
   </g>
   <g id="patch_215">
    <path d="M 709.547551 106.414173 
L 715.183484 106.414173 
L 715.183484 100.778241 
L 709.547551 100.778241 
z
" clip-path="url(#p0d7233a3ab)" style="stroke: #000000; stroke-linejoin: miter"/>
   </g>
   <g id="patch_216">
    <path d="M 738.664508 105.464113 
L 742.400319 105.464113 
L 742.400319 101.728301 
L 738.664508 101.728301 
z
" clip-path="url(#p0d7233a3ab)" style="stroke: #000000; stroke-linejoin: miter"/>
   </g>
   <g id="patch_217">
    <path d="M 766.841621 105.453896 
L 770.557 105.453896 
L 770.557 101.738518 
L 766.841621 101.738518 
z
" clip-path="url(#p0d7233a3ab)" style="stroke: #000000; stroke-linejoin: miter"/>
   </g>
   <g id="patch_218">
    <path d="M 795.632945 104.829469 
L 798.099469 104.829469 
L 798.099469 102.362945 
L 795.632945 102.362945 
z
" clip-path="url(#p0d7233a3ab)" style="stroke: #000000; stroke-linejoin: miter"/>
   </g>
   <g id="patch_219">
    <path d="M 56.359955 83.596252 
L 72.693838 83.596252 
L 72.693838 67.262369 
L 56.359955 67.262369 
z
" clip-path="url(#p0d7233a3ab)" style="stroke: #000000; stroke-linejoin: miter"/>
   </g>
   <g id="patch_220">
    <path d="M 86.452717 81.670387 
L 98.93487 81.670387 
L 98.93487 69.188234 
L 86.452717 69.188234 
z
" clip-path="url(#p0d7233a3ab)" style="stroke: #000000; stroke-linejoin: miter"/>
   </g>
   <g id="patch_221">
    <path d="M 113.867697 82.422303 
L 127.853682 82.422303 
L 127.853682 68.436318 
L 113.867697 68.436318 
z
" clip-path="url(#p0d7233a3ab)" style="stroke: #000000; stroke-linejoin: miter"/>
   </g>
   <g id="patch_222">
    <path d="M 144.032314 80.424583 
L 154.022859 80.424583 
L 154.022859 70.434038 
L 144.032314 70.434038 
z
" clip-path="url(#p0d7233a3ab)" style="stroke: #000000; stroke-linejoin: miter"/>
   </g>
   <g id="patch_223">
    <path d="M 169.97312 82.650673 
L 184.415845 82.650673 
L 184.415845 68.207948 
L 169.97312 68.207948 
z
" clip-path="url(#p0d7233a3ab)" style="stroke: #000000; stroke-linejoin: miter"/>
   </g>
   <g id="patch_224">
    <path d="M 201.065835 79.724855 
L 209.656924 79.724855 
L 209.656924 71.133766 
L 201.065835 71.133766 
z
" clip-path="url(#p0d7233a3ab)" style="stroke: #000000; stroke-linejoin: miter"/>
   </g>
   <g id="patch_225">
    <path d="M 228.316458 80.641129 
L 238.740094 80.641129 
L 238.740094 70.217492 
L 228.316458 70.217492 
z
" clip-path="url(#p0d7233a3ab)" style="stroke: #000000; stroke-linejoin: miter"/>
   </g>
   <g id="patch_226">
    <path d="M 256.069439 81.055043 
L 267.320905 81.055043 
L 267.320905 69.803577 
L 256.069439 69.803577 
z
" clip-path="url(#p0d7233a3ab)" style="stroke: #000000; stroke-linejoin: miter"/>
   </g>
   <g id="patch_227">
    <path d="M 285.06146 80.22992 
L 294.662678 80.22992 
L 294.662678 70.628701 
L 285.06146 70.628701 
z
" clip-path="url(#p0d7233a3ab)" style="stroke: #000000; stroke-linejoin: miter"/>
   </g>
   <g id="patch_228">
    <path d="M 314.301105 79.15717 
L 321.756826 79.15717 
L 321.756826 71.70145 
L 314.301105 71.70145 
z
" clip-path="url(#p0d7233a3ab)" style="stroke: #000000; stroke-linejoin: miter"/>
   </g>
   <g id="patch_229">
    <path d="M 342.137724 79.487448 
L 350.254 79.487448 
L 350.254 71.371173 
L 342.137724 71.371173 
z
" clip-path="url(#p0d7233a3ab)" style="stroke: #000000; stroke-linejoin: miter"/>
   </g>
   <g id="patch_230">
    <path d="M 369.94161 79.850458 
L 378.783907 79.850458 
L 378.783907 71.008162 
L 369.94161 71.008162 
z
" clip-path="url(#p0d7233a3ab)" style="stroke: #000000; stroke-linejoin: miter"/>
   </g>
   <g id="patch_231">
    <path d="M 399.458296 78.50067 
L 405.601015 78.50067 
L 405.601015 72.357951 
L 399.458296 72.357951 
z
" clip-path="url(#p0d7233a3ab)" style="stroke: #000000; stroke-linejoin: miter"/>
   </g>
   <g id="patch_232">
    <path d="M 426.486905 79.638957 
L 434.906199 79.638957 
L 434.906199 71.219663 
L 426.486905 71.219663 
z
" clip-path="url(#p0d7233a3ab)" style="stroke: #000000; stroke-linejoin: miter"/>
   </g>
   <g id="patch_233">
    <path d="M 454.689988 79.602771 
L 463.036909 79.602771 
L 463.036909 71.25585 
L 454.689988 71.25585 
z
" clip-path="url(#p0d7233a3ab)" style="stroke: #000000; stroke-linejoin: miter"/>
   </g>
   <g id="patch_234">
    <path d="M 482.478404 79.981251 
L 491.582286 79.981251 
L 491.582286 70.877369 
L 482.478404 70.877369 
z
" clip-path="url(#p0d7233a3ab)" style="stroke: #000000; stroke-linejoin: miter"/>
   </g>
   <g id="patch_235">
    <path d="M 511.078616 79.547936 
L 519.315867 79.547936 
L 519.315867 71.310685 
L 511.078616 71.310685 
z
" clip-path="url(#p0d7233a3ab)" style="stroke: #000000; stroke-linejoin: miter"/>
   </g>
   <g id="patch_236">
    <path d="M 538.620844 80.172604 
L 548.107432 80.172604 
L 548.107432 70.686017 
L 538.620844 70.686017 
z
" clip-path="url(#p0d7233a3ab)" style="stroke: #000000; stroke-linejoin: miter"/>
   </g>
   <g id="patch_237">
    <path d="M 568.630613 78.329732 
L 574.431456 78.329732 
L 574.431456 72.528889 
L 568.630613 72.528889 
z
" clip-path="url(#p0d7233a3ab)" style="stroke: #000000; stroke-linejoin: miter"/>
   </g>
   <g id="patch_238">
    <path d="M 594.90461 80.222631 
L 604.491252 80.222631 
L 604.491252 70.63599 
L 594.90461 70.63599 
z
" clip-path="url(#p0d7233a3ab)" style="stroke: #000000; stroke-linejoin: miter"/>
   </g>
   <g id="patch_239">
    <path d="M 623.832635 79.461503 
L 631.89702 79.461503 
L 631.89702 71.397117 
L 623.832635 71.397117 
z
" clip-path="url(#p0d7233a3ab)" style="stroke: #000000; stroke-linejoin: miter"/>
   </g>
   <g id="patch_240">
    <path d="M 654.49201 76.969024 
L 657.571438 76.969024 
L 657.571438 73.889596 
L 654.49201 73.889596 
z
" clip-path="url(#p0d7233a3ab)" style="stroke: #000000; stroke-linejoin: miter"/>
   </g>
   <g id="patch_241">
    <path d="M 680.487754 79.140177 
L 687.909488 79.140177 
L 687.909488 71.718443 
L 680.487754 71.718443 
z
" clip-path="url(#p0d7233a3ab)" style="stroke: #000000; stroke-linejoin: miter"/>
   </g>
   <g id="patch_242">
    <path d="M 708.671991 79.122836 
L 716.059043 79.122836 
L 716.059043 71.735785 
L 708.671991 71.735785 
z
" clip-path="url(#p0d7233a3ab)" style="stroke: #000000; stroke-linejoin: miter"/>
   </g>
   <g id="patch_243">
    <path d="M 736.815726 79.145998 
L 744.249102 79.145998 
L 744.249102 71.712622 
L 736.815726 71.712622 
z
" clip-path="url(#p0d7233a3ab)" style="stroke: #000000; stroke-linejoin: miter"/>
   </g>
   <g id="patch_244">
    <path d="M 764.666157 79.462464 
L 772.732464 79.462464 
L 772.732464 71.396157 
L 764.666157 71.396157 
z
" clip-path="url(#p0d7233a3ab)" style="stroke: #000000; stroke-linejoin: miter"/>
   </g>
   <g id="patch_245">
    <path d="M 793.150373 79.145145 
L 800.582041 79.145145 
L 800.582041 71.713476 
L 793.150373 71.713476 
z
" clip-path="url(#p0d7233a3ab)" style="stroke: #000000; stroke-linejoin: miter"/>
   </g>
   <g id="matplotlib.axis_1">
    <g id="xtick_1">
     <g id="line2d_1">
      <defs>
       <path id="m18c9156a63" d="M 0 0 
L 0 3.5 
" style="stroke: #000000; stroke-width: 0.8"/>
      </defs>
      <g>
       <use xlink:href="#m18c9156a63" x="64.526897" y="328.931379" style="stroke: #000000; stroke-width: 0.8"/>
      </g>
     </g>
     <g id="text_1">
      <!-- 1 -->
      <g transform="translate(61.51674 350.082942) scale(0.1 -0.1)">
       <defs>
        <path id="DejaVuSansMono-31" d="M 844 531 
L 1825 531 
L 1825 4097 
L 769 3859 
L 769 4434 
L 1819 4666 
L 2450 4666 
L 2450 531 
L 3419 531 
L 3419 0 
L 844 0 
L 844 531 
z
" transform="scale(0.015625)"/>
       </defs>
       <use xlink:href="#DejaVuSansMono-31"/>
      </g>
     </g>
    </g>
    <g id="xtick_2">
     <g id="line2d_2">
      <g>
       <use xlink:href="#m18c9156a63" x="796.866207" y="328.931379" style="stroke: #000000; stroke-width: 0.8"/>
      </g>
     </g>
     <g id="text_2">
      <!-- 1000 -->
      <g transform="translate(784.825582 350.082942) scale(0.1 -0.1)">
       <defs>
        <path id="DejaVuSansMono-30" d="M 1509 2344 
Q 1509 2516 1629 2641 
Q 1750 2766 1919 2766 
Q 2094 2766 2219 2641 
Q 2344 2516 2344 2344 
Q 2344 2169 2220 2047 
Q 2097 1925 1919 1925 
Q 1744 1925 1626 2044 
Q 1509 2163 1509 2344 
z
M 1925 4250 
Q 1484 4250 1267 3775 
Q 1050 3300 1050 2328 
Q 1050 1359 1267 884 
Q 1484 409 1925 409 
Q 2369 409 2586 884 
Q 2803 1359 2803 2328 
Q 2803 3300 2586 3775 
Q 2369 4250 1925 4250 
z
M 1925 4750 
Q 2672 4750 3055 4137 
Q 3438 3525 3438 2328 
Q 3438 1134 3055 521 
Q 2672 -91 1925 -91 
Q 1178 -91 797 521 
Q 416 1134 416 2328 
Q 416 3525 797 4137 
Q 1178 4750 1925 4750 
z
" transform="scale(0.015625)"/>
       </defs>
       <use xlink:href="#DejaVuSansMono-31"/>
       <use xlink:href="#DejaVuSansMono-30" x="60.205078"/>
       <use xlink:href="#DejaVuSansMono-30" x="120.410156"/>
       <use xlink:href="#DejaVuSansMono-30" x="180.615234"/>
      </g>
     </g>
    </g>
   </g>
   <g id="matplotlib.axis_2">
    <g id="ytick_1">
     <g id="line2d_3">
      <defs>
       <path id="mf57b87ae66" d="M 0 0 
L -3.5 0 
" style="stroke: #000000; stroke-width: 0.8"/>
      </defs>
      <g>
       <use xlink:href="#mf57b87ae66" x="36.36" y="300.764483" style="stroke: #000000; stroke-width: 0.8"/>
      </g>
     </g>
     <g id="text_3">
      <!-- 2 -->
      <g transform="translate(16.839687 304.590264) scale(0.1 -0.1)">
       <defs>
        <path id="DejaVuSansMono-32" d="M 1166 531 
L 3309 531 
L 3309 0 
L 475 0 
L 475 531 
Q 1059 1147 1496 1619 
Q 1934 2091 2100 2284 
Q 2413 2666 2522 2902 
Q 2631 3138 2631 3384 
Q 2631 3775 2401 3997 
Q 2172 4219 1772 4219 
Q 1488 4219 1175 4116 
Q 863 4013 513 3803 
L 513 4441 
Q 834 4594 1145 4672 
Q 1456 4750 1759 4750 
Q 2444 4750 2861 4386 
Q 3278 4022 3278 3431 
Q 3278 3131 3139 2831 
Q 3000 2531 2688 2169 
Q 2513 1966 2180 1606 
Q 1847 1247 1166 531 
z
" transform="scale(0.015625)"/>
       </defs>
       <use xlink:href="#DejaVuSansMono-32"/>
      </g>
     </g>
    </g>
    <g id="ytick_2">
     <g id="line2d_4">
      <g>
       <use xlink:href="#mf57b87ae66" x="36.36" y="272.597586" style="stroke: #000000; stroke-width: 0.8"/>
      </g>
     </g>
     <g id="text_4">
      <!-- 3 -->
      <g transform="translate(16.839687 276.423367) scale(0.1 -0.1)">
       <defs>
        <path id="DejaVuSansMono-33" d="M 2425 2497 
Q 2884 2375 3128 2064 
Q 3372 1753 3372 1288 
Q 3372 644 2939 276 
Q 2506 -91 1741 -91 
Q 1419 -91 1084 -31 
Q 750 28 428 141 
L 428 769 
Q 747 603 1056 522 
Q 1366 441 1672 441 
Q 2191 441 2469 675 
Q 2747 909 2747 1350 
Q 2747 1756 2469 1995 
Q 2191 2234 1716 2234 
L 1234 2234 
L 1234 2753 
L 1716 2753 
Q 2150 2753 2394 2943 
Q 2638 3134 2638 3475 
Q 2638 3834 2411 4026 
Q 2184 4219 1766 4219 
Q 1488 4219 1191 4156 
Q 894 4094 569 3969 
L 569 4550 
Q 947 4650 1242 4700 
Q 1538 4750 1766 4750 
Q 2447 4750 2855 4408 
Q 3263 4066 3263 3500 
Q 3263 3116 3048 2859 
Q 2834 2603 2425 2497 
z
" transform="scale(0.015625)"/>
       </defs>
       <use xlink:href="#DejaVuSansMono-33"/>
      </g>
     </g>
    </g>
    <g id="ytick_3">
     <g id="line2d_5">
      <g>
       <use xlink:href="#mf57b87ae66" x="36.36" y="244.43069" style="stroke: #000000; stroke-width: 0.8"/>
      </g>
     </g>
     <g id="text_5">
      <!-- 5 -->
      <g transform="translate(16.839687 248.256471) scale(0.1 -0.1)">
       <defs>
        <path id="DejaVuSansMono-35" d="M 647 4666 
L 3009 4666 
L 3009 4134 
L 1222 4134 
L 1222 2988 
Q 1356 3038 1492 3061 
Q 1628 3084 1766 3084 
Q 2491 3084 2916 2656 
Q 3341 2228 3341 1497 
Q 3341 759 2895 334 
Q 2450 -91 1678 -91 
Q 1306 -91 998 -41 
Q 691 9 447 109 
L 447 750 
Q 734 594 1025 517 
Q 1316 441 1619 441 
Q 2141 441 2423 716 
Q 2706 991 2706 1497 
Q 2706 1997 2414 2275 
Q 2122 2553 1600 2553 
Q 1347 2553 1106 2495 
Q 866 2438 647 2322 
L 647 4666 
z
" transform="scale(0.015625)"/>
       </defs>
       <use xlink:href="#DejaVuSansMono-35"/>
      </g>
     </g>
    </g>
    <g id="ytick_4">
     <g id="line2d_6">
      <g>
       <use xlink:href="#mf57b87ae66" x="36.36" y="216.263793" style="stroke: #000000; stroke-width: 0.8"/>
      </g>
     </g>
     <g id="text_6">
      <!-- 7 -->
      <g transform="translate(16.839687 220.089574) scale(0.1 -0.1)">
       <defs>
        <path id="DejaVuSansMono-37" d="M 434 4666 
L 3372 4666 
L 3372 4397 
L 1703 0 
L 1044 0 
L 2669 4134 
L 434 4134 
L 434 4666 
z
" transform="scale(0.015625)"/>
       </defs>
       <use xlink:href="#DejaVuSansMono-37"/>
      </g>
     </g>
    </g>
    <g id="ytick_5">
     <g id="line2d_7">
      <g>
       <use xlink:href="#mf57b87ae66" x="36.36" y="188.096897" style="stroke: #000000; stroke-width: 0.8"/>
      </g>
     </g>
     <g id="text_7">
      <!-- 11 -->
      <g transform="translate(10.819375 191.922678) scale(0.1 -0.1)">
       <use xlink:href="#DejaVuSansMono-31"/>
       <use xlink:href="#DejaVuSansMono-31" x="60.205078"/>
      </g>
     </g>
    </g>
    <g id="ytick_6">
     <g id="line2d_8">
      <g>
       <use xlink:href="#mf57b87ae66" x="36.36" y="159.93" style="stroke: #000000; stroke-width: 0.8"/>
      </g>
     </g>
     <g id="text_8">
      <!-- 13 -->
      <g transform="translate(10.819375 163.755781) scale(0.1 -0.1)">
       <use xlink:href="#DejaVuSansMono-31"/>
       <use xlink:href="#DejaVuSansMono-33" x="60.205078"/>
      </g>
     </g>
    </g>
    <g id="ytick_7">
     <g id="line2d_9">
      <g>
       <use xlink:href="#mf57b87ae66" x="36.36" y="131.763103" style="stroke: #000000; stroke-width: 0.8"/>
      </g>
     </g>
     <g id="text_9">
      <!-- 17 -->
      <g transform="translate(10.819375 135.588885) scale(0.1 -0.1)">
       <use xlink:href="#DejaVuSansMono-31"/>
       <use xlink:href="#DejaVuSansMono-37" x="60.205078"/>
      </g>
     </g>
    </g>
    <g id="ytick_8">
     <g id="line2d_10">
      <g>
       <use xlink:href="#mf57b87ae66" x="36.36" y="103.596207" style="stroke: #000000; stroke-width: 0.8"/>
      </g>
     </g>
     <g id="text_10">
      <!-- 19 -->
      <g transform="translate(10.819375 107.421988) scale(0.1 -0.1)">
       <defs>
        <path id="DejaVuSansMono-39" d="M 1863 2069 
Q 2266 2069 2495 2359 
Q 2725 2650 2725 3163 
Q 2725 3675 2495 3965 
Q 2266 4256 1863 4256 
Q 1444 4256 1231 3979 
Q 1019 3703 1019 3163 
Q 1019 2619 1230 2344 
Q 1441 2069 1863 2069 
z
M 738 97 
L 738 678 
Q 934 563 1156 502 
Q 1378 441 1619 441 
Q 2219 441 2526 892 
Q 2834 1344 2834 2222 
Q 2688 1909 2422 1742 
Q 2156 1575 1813 1575 
Q 1138 1575 767 1990 
Q 397 2406 397 3169 
Q 397 3922 776 4336 
Q 1156 4750 1850 4750 
Q 2663 4750 3041 4165 
Q 3419 3581 3419 2328 
Q 3419 1150 2964 529 
Q 2509 -91 1644 -91 
Q 1416 -91 1184 -42 
Q 953 6 738 97 
z
" transform="scale(0.015625)"/>
       </defs>
       <use xlink:href="#DejaVuSansMono-31"/>
       <use xlink:href="#DejaVuSansMono-39" x="60.205078"/>
      </g>
     </g>
    </g>
    <g id="ytick_9">
     <g id="line2d_11">
      <g>
       <use xlink:href="#mf57b87ae66" x="36.36" y="75.42931" style="stroke: #000000; stroke-width: 0.8"/>
      </g>
     </g>
     <g id="text_11">
      <!--  -->
      <g transform="translate(16.839687 79.255092) scale(0.1 -0.1)">
       <defs>
        <path id="DejaVuSansMono-2119" d="M 506 4353 
L 506 313 
L 1106 313 
L 1106 4353 
L 506 4353 
z
M 1406 4353 
L 1406 2284 
L 2306 2284 
Q 2378 2284 2447 2291 
L 2447 4347 
Q 2378 4353 2306 4353 
L 1406 4353 
z
M 206 4666 
L 2166 4666 
Q 2913 4666 3297 4323 
Q 3681 3981 3681 3322 
Q 3681 2656 3297 2315 
Q 2913 1975 2163 1975 
L 1406 1975 
L 1406 0 
L 206 0 
L 206 4666 
z
M 2759 4281 
L 2759 2359 
Q 2941 2428 3075 2556 
Q 3353 2825 3353 3322 
Q 3353 3816 3078 4084 
Q 2947 4213 2759 4281 
z
" transform="scale(0.015625)"/>
       </defs>
       <use xlink:href="#DejaVuSansMono-2119"/>
      </g>
     </g>
    </g>
   </g>
  </g>
 </g>
 <defs>
  <clipPath id="p0d7233a3ab">
   <rect x="36.36" y="19.095517" width="816.84" height="309.835862"/>
  </clipPath>
 </defs>
</svg>
