<?xml version="1.0" encoding="utf-8" standalone="no"?>
<!DOCTYPE svg PUBLIC "-//W3C//DTD SVG 1.1//EN"
  "http://www.w3.org/Graphics/SVG/1.1/DTD/svg11.dtd">
<svg xmlns:xlink="http://www.w3.org/1999/xlink" width="864pt" height="288pt" viewBox="0 0 864 288" xmlns="http://www.w3.org/2000/svg" version="1.1">
 <metadata>
  <rdf:RDF xmlns:dc="http://purl.org/dc/elements/1.1/" xmlns:cc="http://creativecommons.org/ns#" xmlns:rdf="http://www.w3.org/1999/02/22-rdf-syntax-ns#">
   <cc:Work>
    <dc:type rdf:resource="http://purl.org/dc/dcmitype/StillImage"/>
    <dc:date>2024-09-18T11:20:57.565411</dc:date>
    <dc:format>image/svg+xml</dc:format>
    <dc:creator>
     <cc:Agent>
      <dc:title>Matplotlib v3.9.2, https://matplotlib.org/</dc:title>
     </cc:Agent>
    </dc:creator>
   </cc:Work>
  </rdf:RDF>
 </metadata>
 <defs>
  <style type="text/css">*{stroke-linejoin: round; stroke-linecap: butt}</style>
 </defs>
 <g id="figure_1">
  <g id="patch_1">
   <path d="M 0 288 
L 864 288 
L 864 0 
L 0 0 
z
" style="fill: #ffffff"/>
  </g>
  <g id="axes_1">
   <g id="patch_2">
    <path d="M 36.36 257.418947 
L 853.2 257.418947 
L 853.2 20.965263 
L 36.36 20.965263 
z
" style="fill: #ffffff"/>
   </g>
   <g id="patch_3">
    <path d="M 57.855789 235.923158 
L 57.855789 235.923158 
L 57.855789 235.923158 
L 57.855789 235.923158 
z
" clip-path="url(#p9b1ef35480)" style="stroke: #000000; stroke-linejoin: miter"/>
   </g>
   <g id="patch_4">
    <path d="M 79.351579 235.923158 
L 79.351579 235.923158 
L 79.351579 235.923158 
L 79.351579 235.923158 
z
" clip-path="url(#p9b1ef35480)" style="stroke: #000000; stroke-linejoin: miter"/>
   </g>
   <g id="patch_5">
    <path d="M 100.847368 235.923158 
L 100.847368 235.923158 
L 100.847368 235.923158 
L 100.847368 235.923158 
z
" clip-path="url(#p9b1ef35480)" style="stroke: #000000; stroke-linejoin: miter"/>
   </g>
   <g id="patch_6">
    <path d="M 122.343158 235.923158 
L 122.343158 235.923158 
L 122.343158 235.923158 
L 122.343158 235.923158 
z
" clip-path="url(#p9b1ef35480)" style="stroke: #000000; stroke-linejoin: miter"/>
   </g>
   <g id="patch_7">
    <path d="M 142.512198 237.249907 
L 145.165696 237.249907 
L 145.165696 234.596409 
L 142.512198 234.596409 
z
" clip-path="url(#p9b1ef35480)" style="stroke: #000000; stroke-linejoin: miter"/>
   </g>
   <g id="patch_8">
    <path d="M 161.338493 239.919402 
L 169.330981 239.919402 
L 169.330981 231.926914 
L 161.338493 231.926914 
z
" clip-path="url(#p9b1ef35480)" style="stroke: #000000; stroke-linejoin: miter"/>
   </g>
   <g id="patch_9">
    <path d="M 180.297427 242.456257 
L 193.363626 242.456257 
L 193.363626 229.390059 
L 180.297427 229.390059 
z
" clip-path="url(#p9b1ef35480)" style="stroke: #000000; stroke-linejoin: miter"/>
   </g>
   <g id="patch_10">
    <path d="M 201.047696 243.201778 
L 215.604936 243.201778 
L 215.604936 228.644538 
L 201.047696 228.644538 
z
" clip-path="url(#p9b1ef35480)" style="stroke: #000000; stroke-linejoin: miter"/>
   </g>
   <g id="patch_11">
    <path d="M 222.248523 243.496741 
L 237.395688 243.496741 
L 237.395688 228.349575 
L 222.248523 228.349575 
z
" clip-path="url(#p9b1ef35480)" style="stroke: #000000; stroke-linejoin: miter"/>
   </g>
   <g id="patch_12">
    <path d="M 243.277633 243.96342 
L 259.358156 243.96342 
L 259.358156 227.882896 
L 243.277633 227.882896 
z
" clip-path="url(#p9b1ef35480)" style="stroke: #000000; stroke-linejoin: miter"/>
   </g>
   <g id="patch_13">
    <path d="M 264.347005 244.389837 
L 281.280363 244.389837 
L 281.280363 227.456479 
L 264.347005 227.456479 
z
" clip-path="url(#p9b1ef35480)" style="stroke: #000000; stroke-linejoin: miter"/>
   </g>
   <g id="patch_14">
    <path d="M 285.727017 244.505614 
L 302.89193 244.505614 
L 302.89193 227.340701 
L 285.727017 227.340701 
z
" clip-path="url(#p9b1ef35480)" style="stroke: #000000; stroke-linejoin: miter"/>
   </g>
   <g id="patch_15">
    <path d="M 307.206947 244.521474 
L 324.403579 244.521474 
L 324.403579 227.324842 
L 307.206947 227.324842 
z
" clip-path="url(#p9b1ef35480)" style="stroke: #000000; stroke-linejoin: miter"/>
   </g>
   <g id="patch_16">
    <path d="M 328.702737 244.521474 
L 345.899368 244.521474 
L 345.899368 227.324842 
L 328.702737 227.324842 
z
" clip-path="url(#p9b1ef35480)" style="stroke: #000000; stroke-linejoin: miter"/>
   </g>
   <g id="patch_17">
    <path d="M 350.198526 244.521474 
L 367.395158 244.521474 
L 367.395158 227.324842 
L 350.198526 227.324842 
z
" clip-path="url(#p9b1ef35480)" style="stroke: #000000; stroke-linejoin: miter"/>
   </g>
   <g id="patch_18">
    <path d="M 371.694316 244.521474 
L 388.890947 244.521474 
L 388.890947 227.324842 
L 371.694316 227.324842 
z
" clip-path="url(#p9b1ef35480)" style="stroke: #000000; stroke-linejoin: miter"/>
   </g>
   <g id="patch_19">
    <path d="M 393.190105 244.521474 
L 410.386737 244.521474 
L 410.386737 227.324842 
L 393.190105 227.324842 
z
" clip-path="url(#p9b1ef35480)" style="stroke: #000000; stroke-linejoin: miter"/>
   </g>
   <g id="patch_20">
    <path d="M 414.685895 244.521474 
L 431.882526 244.521474 
L 431.882526 227.324842 
L 414.685895 227.324842 
z
" clip-path="url(#p9b1ef35480)" style="stroke: #000000; stroke-linejoin: miter"/>
   </g>
   <g id="patch_21">
    <path d="M 436.181684 244.521474 
L 453.378316 244.521474 
L 453.378316 227.324842 
L 436.181684 227.324842 
z
" clip-path="url(#p9b1ef35480)" style="stroke: #000000; stroke-linejoin: miter"/>
   </g>
   <g id="patch_22">
    <path d="M 457.677474 244.521474 
L 474.874105 244.521474 
L 474.874105 227.324842 
L 457.677474 227.324842 
z
" clip-path="url(#p9b1ef35480)" style="stroke: #000000; stroke-linejoin: miter"/>
   </g>
   <g id="patch_23">
    <path d="M 479.173263 244.521474 
L 496.369895 244.521474 
L 496.369895 227.324842 
L 479.173263 227.324842 
z
" clip-path="url(#p9b1ef35480)" style="stroke: #000000; stroke-linejoin: miter"/>
   </g>
   <g id="patch_24">
    <path d="M 500.669053 244.521474 
L 517.865684 244.521474 
L 517.865684 227.324842 
L 500.669053 227.324842 
z
" clip-path="url(#p9b1ef35480)" style="stroke: #000000; stroke-linejoin: miter"/>
   </g>
   <g id="patch_25">
    <path d="M 522.164842 244.521474 
L 539.361474 244.521474 
L 539.361474 227.324842 
L 522.164842 227.324842 
z
" clip-path="url(#p9b1ef35480)" style="stroke: #000000; stroke-linejoin: miter"/>
   </g>
   <g id="patch_26">
    <path d="M 543.660632 244.521474 
L 560.857263 244.521474 
L 560.857263 227.324842 
L 543.660632 227.324842 
z
" clip-path="url(#p9b1ef35480)" style="stroke: #000000; stroke-linejoin: miter"/>
   </g>
   <g id="patch_27">
    <path d="M 565.156421 244.521474 
L 582.353053 244.521474 
L 582.353053 227.324842 
L 565.156421 227.324842 
z
" clip-path="url(#p9b1ef35480)" style="stroke: #000000; stroke-linejoin: miter"/>
   </g>
   <g id="patch_28">
    <path d="M 586.652211 244.521474 
L 603.848842 244.521474 
L 603.848842 227.324842 
L 586.652211 227.324842 
z
" clip-path="url(#p9b1ef35480)" style="stroke: #000000; stroke-linejoin: miter"/>
   </g>
   <g id="patch_29">
    <path d="M 608.148 244.521474 
L 625.344632 244.521474 
L 625.344632 227.324842 
L 608.148 227.324842 
z
" clip-path="url(#p9b1ef35480)" style="stroke: #000000; stroke-linejoin: miter"/>
   </g>
   <g id="patch_30">
    <path d="M 629.643789 244.521474 
L 646.840421 244.521474 
L 646.840421 227.324842 
L 629.643789 227.324842 
z
" clip-path="url(#p9b1ef35480)" style="stroke: #000000; stroke-linejoin: miter"/>
   </g>
   <g id="patch_31">
    <path d="M 651.139579 244.521474 
L 668.336211 244.521474 
L 668.336211 227.324842 
L 651.139579 227.324842 
z
" clip-path="url(#p9b1ef35480)" style="stroke: #000000; stroke-linejoin: miter"/>
   </g>
   <g id="patch_32">
    <path d="M 672.635368 244.521474 
L 689.832 244.521474 
L 689.832 227.324842 
L 672.635368 227.324842 
z
" clip-path="url(#p9b1ef35480)" style="stroke: #000000; stroke-linejoin: miter"/>
   </g>
   <g id="patch_33">
    <path d="M 694.131158 244.521474 
L 711.327789 244.521474 
L 711.327789 227.324842 
L 694.131158 227.324842 
z
" clip-path="url(#p9b1ef35480)" style="stroke: #000000; stroke-linejoin: miter"/>
   </g>
   <g id="patch_34">
    <path d="M 715.626947 244.521474 
L 732.823579 244.521474 
L 732.823579 227.324842 
L 715.626947 227.324842 
z
" clip-path="url(#p9b1ef35480)" style="stroke: #000000; stroke-linejoin: miter"/>
   </g>
   <g id="patch_35">
    <path d="M 737.122737 244.521474 
L 754.319368 244.521474 
L 754.319368 227.324842 
L 737.122737 227.324842 
z
" clip-path="url(#p9b1ef35480)" style="stroke: #000000; stroke-linejoin: miter"/>
   </g>
   <g id="patch_36">
    <path d="M 758.618526 244.521474 
L 775.815158 244.521474 
L 775.815158 227.324842 
L 758.618526 227.324842 
z
" clip-path="url(#p9b1ef35480)" style="stroke: #000000; stroke-linejoin: miter"/>
   </g>
   <g id="patch_37">
    <path d="M 780.114316 244.521474 
L 797.310947 244.521474 
L 797.310947 227.324842 
L 780.114316 227.324842 
z
" clip-path="url(#p9b1ef35480)" style="stroke: #000000; stroke-linejoin: miter"/>
   </g>
   <g id="patch_38">
    <path d="M 801.610105 244.521474 
L 818.806737 244.521474 
L 818.806737 227.324842 
L 801.610105 227.324842 
z
" clip-path="url(#p9b1ef35480)" style="stroke: #000000; stroke-linejoin: miter"/>
   </g>
   <g id="patch_39">
    <path d="M 51.696608 220.58655 
L 64.014971 220.58655 
L 64.014971 208.268187 
L 51.696608 208.268187 
z
" clip-path="url(#p9b1ef35480)" style="stroke: #000000; stroke-linejoin: miter"/>
   </g>
   <g id="patch_40">
    <path d="M 79.351579 214.427368 
L 79.351579 214.427368 
L 79.351579 214.427368 
L 79.351579 214.427368 
z
" clip-path="url(#p9b1ef35480)" style="stroke: #000000; stroke-linejoin: miter"/>
   </g>
   <g id="patch_41">
    <path d="M 100.847368 214.427368 
L 100.847368 214.427368 
L 100.847368 214.427368 
L 100.847368 214.427368 
z
" clip-path="url(#p9b1ef35480)" style="stroke: #000000; stroke-linejoin: miter"/>
   </g>
   <g id="patch_42">
    <path d="M 122.343158 214.427368 
L 122.343158 214.427368 
L 122.343158 214.427368 
L 122.343158 214.427368 
z
" clip-path="url(#p9b1ef35480)" style="stroke: #000000; stroke-linejoin: miter"/>
   </g>
   <g id="patch_43">
    <path d="M 141.41595 216.850365 
L 146.261944 216.850365 
L 146.261944 212.004371 
L 141.41595 212.004371 
z
" clip-path="url(#p9b1ef35480)" style="stroke: #000000; stroke-linejoin: miter"/>
   </g>
   <g id="patch_44">
    <path d="M 159.249154 220.512952 
L 171.42032 220.512952 
L 171.42032 208.341785 
L 159.249154 208.341785 
z
" clip-path="url(#p9b1ef35480)" style="stroke: #000000; stroke-linejoin: miter"/>
   </g>
   <g id="patch_45">
    <path d="M 179.983209 221.274686 
L 193.677844 221.274686 
L 193.677844 207.580051 
L 179.983209 207.580051 
z
" clip-path="url(#p9b1ef35480)" style="stroke: #000000; stroke-linejoin: miter"/>
   </g>
   <g id="patch_46">
    <path d="M 201.587873 221.165812 
L 215.064759 221.165812 
L 215.064759 207.688925 
L 201.587873 207.688925 
z
" clip-path="url(#p9b1ef35480)" style="stroke: #000000; stroke-linejoin: miter"/>
   </g>
   <g id="patch_47">
    <path d="M 223.065371 221.184103 
L 236.578839 221.184103 
L 236.578839 207.670634 
L 223.065371 207.670634 
z
" clip-path="url(#p9b1ef35480)" style="stroke: #000000; stroke-linejoin: miter"/>
   </g>
   <g id="patch_48">
    <path d="M 244.185351 221.559912 
L 258.450438 221.559912 
L 258.450438 207.294825 
L 244.185351 207.294825 
z
" clip-path="url(#p9b1ef35480)" style="stroke: #000000; stroke-linejoin: miter"/>
   </g>
   <g id="patch_49">
    <path d="M 265.217046 222.024006 
L 280.410322 222.024006 
L 280.410322 206.83073 
L 265.217046 206.83073 
z
" clip-path="url(#p9b1ef35480)" style="stroke: #000000; stroke-linejoin: miter"/>
   </g>
   <g id="patch_50">
    <path d="M 286.058049 222.678793 
L 302.560898 222.678793 
L 302.560898 206.175944 
L 286.058049 206.175944 
z
" clip-path="url(#p9b1ef35480)" style="stroke: #000000; stroke-linejoin: miter"/>
   </g>
   <g id="patch_51">
    <path d="M 307.317322 222.91531 
L 324.293204 222.91531 
L 324.293204 205.939427 
L 307.317322 205.939427 
z
" clip-path="url(#p9b1ef35480)" style="stroke: #000000; stroke-linejoin: miter"/>
   </g>
   <g id="patch_52">
    <path d="M 328.718105 223.010316 
L 345.884001 223.010316 
L 345.884001 205.84442 
L 328.718105 205.84442 
z
" clip-path="url(#p9b1ef35480)" style="stroke: #000000; stroke-linejoin: miter"/>
   </g>
   <g id="patch_53">
    <path d="M 350.198526 223.025684 
L 367.395158 223.025684 
L 367.395158 205.829053 
L 350.198526 205.829053 
z
" clip-path="url(#p9b1ef35480)" style="stroke: #000000; stroke-linejoin: miter"/>
   </g>
   <g id="patch_54">
    <path d="M 371.694316 223.025684 
L 388.890947 223.025684 
L 388.890947 205.829053 
L 371.694316 205.829053 
z
" clip-path="url(#p9b1ef35480)" style="stroke: #000000; stroke-linejoin: miter"/>
   </g>
   <g id="patch_55">
    <path d="M 393.190105 223.025684 
L 410.386737 223.025684 
L 410.386737 205.829053 
L 393.190105 205.829053 
z
" clip-path="url(#p9b1ef35480)" style="stroke: #000000; stroke-linejoin: miter"/>
   </g>
   <g id="patch_56">
    <path d="M 414.685895 223.025684 
L 431.882526 223.025684 
L 431.882526 205.829053 
L 414.685895 205.829053 
z
" clip-path="url(#p9b1ef35480)" style="stroke: #000000; stroke-linejoin: miter"/>
   </g>
   <g id="patch_57">
    <path d="M 436.181684 223.025684 
L 453.378316 223.025684 
L 453.378316 205.829053 
L 436.181684 205.829053 
z
" clip-path="url(#p9b1ef35480)" style="stroke: #000000; stroke-linejoin: miter"/>
   </g>
   <g id="patch_58">
    <path d="M 457.677474 223.025684 
L 474.874105 223.025684 
L 474.874105 205.829053 
L 457.677474 205.829053 
z
" clip-path="url(#p9b1ef35480)" style="stroke: #000000; stroke-linejoin: miter"/>
   </g>
   <g id="patch_59">
    <path d="M 479.173263 223.025684 
L 496.369895 223.025684 
L 496.369895 205.829053 
L 479.173263 205.829053 
z
" clip-path="url(#p9b1ef35480)" style="stroke: #000000; stroke-linejoin: miter"/>
   </g>
   <g id="patch_60">
    <path d="M 500.669053 223.025684 
L 517.865684 223.025684 
L 517.865684 205.829053 
L 500.669053 205.829053 
z
" clip-path="url(#p9b1ef35480)" style="stroke: #000000; stroke-linejoin: miter"/>
   </g>
   <g id="patch_61">
    <path d="M 522.164842 223.025684 
L 539.361474 223.025684 
L 539.361474 205.829053 
L 522.164842 205.829053 
z
" clip-path="url(#p9b1ef35480)" style="stroke: #000000; stroke-linejoin: miter"/>
   </g>
   <g id="patch_62">
    <path d="M 543.660632 223.025684 
L 560.857263 223.025684 
L 560.857263 205.829053 
L 543.660632 205.829053 
z
" clip-path="url(#p9b1ef35480)" style="stroke: #000000; stroke-linejoin: miter"/>
   </g>
   <g id="patch_63">
    <path d="M 565.156421 223.025684 
L 582.353053 223.025684 
L 582.353053 205.829053 
L 565.156421 205.829053 
z
" clip-path="url(#p9b1ef35480)" style="stroke: #000000; stroke-linejoin: miter"/>
   </g>
   <g id="patch_64">
    <path d="M 586.652211 223.025684 
L 603.848842 223.025684 
L 603.848842 205.829053 
L 586.652211 205.829053 
z
" clip-path="url(#p9b1ef35480)" style="stroke: #000000; stroke-linejoin: miter"/>
   </g>
   <g id="patch_65">
    <path d="M 608.148 223.025684 
L 625.344632 223.025684 
L 625.344632 205.829053 
L 608.148 205.829053 
z
" clip-path="url(#p9b1ef35480)" style="stroke: #000000; stroke-linejoin: miter"/>
   </g>
   <g id="patch_66">
    <path d="M 629.643789 223.025684 
L 646.840421 223.025684 
L 646.840421 205.829053 
L 629.643789 205.829053 
z
" clip-path="url(#p9b1ef35480)" style="stroke: #000000; stroke-linejoin: miter"/>
   </g>
   <g id="patch_67">
    <path d="M 651.139579 223.025684 
L 668.336211 223.025684 
L 668.336211 205.829053 
L 651.139579 205.829053 
z
" clip-path="url(#p9b1ef35480)" style="stroke: #000000; stroke-linejoin: miter"/>
   </g>
   <g id="patch_68">
    <path d="M 672.635368 223.025684 
L 689.832 223.025684 
L 689.832 205.829053 
L 672.635368 205.829053 
z
" clip-path="url(#p9b1ef35480)" style="stroke: #000000; stroke-linejoin: miter"/>
   </g>
   <g id="patch_69">
    <path d="M 694.131158 223.025684 
L 711.327789 223.025684 
L 711.327789 205.829053 
L 694.131158 205.829053 
z
" clip-path="url(#p9b1ef35480)" style="stroke: #000000; stroke-linejoin: miter"/>
   </g>
   <g id="patch_70">
    <path d="M 715.626947 223.025684 
L 732.823579 223.025684 
L 732.823579 205.829053 
L 715.626947 205.829053 
z
" clip-path="url(#p9b1ef35480)" style="stroke: #000000; stroke-linejoin: miter"/>
   </g>
   <g id="patch_71">
    <path d="M 737.122737 223.025684 
L 754.319368 223.025684 
L 754.319368 205.829053 
L 737.122737 205.829053 
z
" clip-path="url(#p9b1ef35480)" style="stroke: #000000; stroke-linejoin: miter"/>
   </g>
   <g id="patch_72">
    <path d="M 758.618526 223.025684 
L 775.815158 223.025684 
L 775.815158 205.829053 
L 758.618526 205.829053 
z
" clip-path="url(#p9b1ef35480)" style="stroke: #000000; stroke-linejoin: miter"/>
   </g>
   <g id="patch_73">
    <path d="M 780.114316 223.025684 
L 797.310947 223.025684 
L 797.310947 205.829053 
L 780.114316 205.829053 
z
" clip-path="url(#p9b1ef35480)" style="stroke: #000000; stroke-linejoin: miter"/>
   </g>
   <g id="patch_74">
    <path d="M 801.610105 223.025684 
L 818.806737 223.025684 
L 818.806737 205.829053 
L 801.610105 205.829053 
z
" clip-path="url(#p9b1ef35480)" style="stroke: #000000; stroke-linejoin: miter"/>
   </g>
   <g id="patch_75">
    <path d="M 56.04712 194.740248 
L 59.664459 194.740248 
L 59.664459 191.12291 
L 56.04712 191.12291 
z
" clip-path="url(#p9b1ef35480)" style="stroke: #000000; stroke-linejoin: miter"/>
   </g>
   <g id="patch_76">
    <path d="M 79.351579 192.931579 
L 79.351579 192.931579 
L 79.351579 192.931579 
L 79.351579 192.931579 
z
" clip-path="url(#p9b1ef35480)" style="stroke: #000000; stroke-linejoin: miter"/>
   </g>
   <g id="patch_77">
    <path d="M 99.048854 194.730093 
L 102.645883 194.730093 
L 102.645883 191.133065 
L 99.048854 191.133065 
z
" clip-path="url(#p9b1ef35480)" style="stroke: #000000; stroke-linejoin: miter"/>
   </g>
   <g id="patch_78">
    <path d="M 120.342555 194.932182 
L 124.343761 194.932182 
L 124.343761 190.930976 
L 120.342555 190.930976 
z
" clip-path="url(#p9b1ef35480)" style="stroke: #000000; stroke-linejoin: miter"/>
   </g>
   <g id="patch_79">
    <path d="M 142.512198 194.258328 
L 145.165696 194.258328 
L 145.165696 191.60483 
L 142.512198 191.60483 
z
" clip-path="url(#p9b1ef35480)" style="stroke: #000000; stroke-linejoin: miter"/>
   </g>
   <g id="patch_80">
    <path d="M 165.334737 192.931579 
L 165.334737 192.931579 
L 165.334737 192.931579 
L 165.334737 192.931579 
z
" clip-path="url(#p9b1ef35480)" style="stroke: #000000; stroke-linejoin: miter"/>
   </g>
   <g id="patch_81">
    <path d="M 186.830526 192.931579 
L 186.830526 192.931579 
L 186.830526 192.931579 
L 186.830526 192.931579 
z
" clip-path="url(#p9b1ef35480)" style="stroke: #000000; stroke-linejoin: miter"/>
   </g>
   <g id="patch_82">
    <path d="M 208.326316 192.931579 
L 208.326316 192.931579 
L 208.326316 192.931579 
L 208.326316 192.931579 
z
" clip-path="url(#p9b1ef35480)" style="stroke: #000000; stroke-linejoin: miter"/>
   </g>
   <g id="patch_83">
    <path d="M 229.822105 192.931579 
L 229.822105 192.931579 
L 229.822105 192.931579 
L 229.822105 192.931579 
z
" clip-path="url(#p9b1ef35480)" style="stroke: #000000; stroke-linejoin: miter"/>
   </g>
   <g id="patch_84">
    <path d="M 250.014221 194.235252 
L 252.621568 194.235252 
L 252.621568 191.627906 
L 250.014221 191.627906 
z
" clip-path="url(#p9b1ef35480)" style="stroke: #000000; stroke-linejoin: miter"/>
   </g>
   <g id="patch_85">
    <path d="M 270.828272 194.916991 
L 274.799096 194.916991 
L 274.799096 190.946167 
L 270.828272 190.946167 
z
" clip-path="url(#p9b1ef35480)" style="stroke: #000000; stroke-linejoin: miter"/>
   </g>
   <g id="patch_86">
    <path d="M 292.750615 194.490437 
L 295.868332 194.490437 
L 295.868332 191.37272 
L 292.750615 191.37272 
z
" clip-path="url(#p9b1ef35480)" style="stroke: #000000; stroke-linejoin: miter"/>
   </g>
   <g id="patch_87">
    <path d="M 314.861475 193.875367 
L 316.749051 193.875367 
L 316.749051 191.987791 
L 314.861475 191.987791 
z
" clip-path="url(#p9b1ef35480)" style="stroke: #000000; stroke-linejoin: miter"/>
   </g>
   <g id="patch_88">
    <path d="M 337.301053 192.931579 
L 337.301053 192.931579 
L 337.301053 192.931579 
L 337.301053 192.931579 
z
" clip-path="url(#p9b1ef35480)" style="stroke: #000000; stroke-linejoin: miter"/>
   </g>
   <g id="patch_89">
    <path d="M 358.796842 192.931579 
L 358.796842 192.931579 
L 358.796842 192.931579 
L 358.796842 192.931579 
z
" clip-path="url(#p9b1ef35480)" style="stroke: #000000; stroke-linejoin: miter"/>
   </g>
   <g id="patch_90">
    <path d="M 380.292632 192.931579 
L 380.292632 192.931579 
L 380.292632 192.931579 
L 380.292632 192.931579 
z
" clip-path="url(#p9b1ef35480)" style="stroke: #000000; stroke-linejoin: miter"/>
   </g>
   <g id="patch_91">
    <path d="M 401.788421 192.931579 
L 401.788421 192.931579 
L 401.788421 192.931579 
L 401.788421 192.931579 
z
" clip-path="url(#p9b1ef35480)" style="stroke: #000000; stroke-linejoin: miter"/>
   </g>
   <g id="patch_92">
    <path d="M 423.284211 192.931579 
L 423.284211 192.931579 
L 423.284211 192.931579 
L 423.284211 192.931579 
z
" clip-path="url(#p9b1ef35480)" style="stroke: #000000; stroke-linejoin: miter"/>
   </g>
   <g id="patch_93">
    <path d="M 444.78 192.931579 
L 444.78 192.931579 
L 444.78 192.931579 
L 444.78 192.931579 
z
" clip-path="url(#p9b1ef35480)" style="stroke: #000000; stroke-linejoin: miter"/>
   </g>
   <g id="patch_94">
    <path d="M 466.275789 192.931579 
L 466.275789 192.931579 
L 466.275789 192.931579 
L 466.275789 192.931579 
z
" clip-path="url(#p9b1ef35480)" style="stroke: #000000; stroke-linejoin: miter"/>
   </g>
   <g id="patch_95">
    <path d="M 486.14339 194.559768 
L 489.399768 194.559768 
L 489.399768 191.30339 
L 486.14339 191.30339 
z
" clip-path="url(#p9b1ef35480)" style="stroke: #000000; stroke-linejoin: miter"/>
   </g>
   <g id="patch_96">
    <path d="M 508.323581 193.875367 
L 510.211156 193.875367 
L 510.211156 191.987791 
L 508.323581 191.987791 
z
" clip-path="url(#p9b1ef35480)" style="stroke: #000000; stroke-linejoin: miter"/>
   </g>
   <g id="patch_97">
    <path d="M 530.763158 192.931579 
L 530.763158 192.931579 
L 530.763158 192.931579 
L 530.763158 192.931579 
z
" clip-path="url(#p9b1ef35480)" style="stroke: #000000; stroke-linejoin: miter"/>
   </g>
   <g id="patch_98">
    <path d="M 552.258947 192.931579 
L 552.258947 192.931579 
L 552.258947 192.931579 
L 552.258947 192.931579 
z
" clip-path="url(#p9b1ef35480)" style="stroke: #000000; stroke-linejoin: miter"/>
   </g>
   <g id="patch_99">
    <path d="M 572.420019 194.266296 
L 575.089454 194.266296 
L 575.089454 191.596861 
L 572.420019 191.596861 
z
" clip-path="url(#p9b1ef35480)" style="stroke: #000000; stroke-linejoin: miter"/>
   </g>
   <g id="patch_100">
    <path d="M 592.970413 195.211692 
L 597.530639 195.211692 
L 597.530639 190.651466 
L 592.970413 190.651466 
z
" clip-path="url(#p9b1ef35480)" style="stroke: #000000; stroke-linejoin: miter"/>
   </g>
   <g id="patch_101">
    <path d="M 614.146387 195.531508 
L 619.346244 195.531508 
L 619.346244 190.33165 
L 614.146387 190.33165 
z
" clip-path="url(#p9b1ef35480)" style="stroke: #000000; stroke-linejoin: miter"/>
   </g>
   <g id="patch_102">
    <path d="M 635.678425 195.49526 
L 640.805786 195.49526 
L 640.805786 190.367898 
L 635.678425 190.367898 
z
" clip-path="url(#p9b1ef35480)" style="stroke: #000000; stroke-linejoin: miter"/>
   </g>
   <g id="patch_103">
    <path d="M 656.773483 195.89599 
L 662.702306 195.89599 
L 662.702306 189.967167 
L 656.773483 189.967167 
z
" clip-path="url(#p9b1ef35480)" style="stroke: #000000; stroke-linejoin: miter"/>
   </g>
   <g id="patch_104">
    <path d="M 677.735523 196.429741 
L 684.731846 196.429741 
L 684.731846 189.433417 
L 677.735523 189.433417 
z
" clip-path="url(#p9b1ef35480)" style="stroke: #000000; stroke-linejoin: miter"/>
   </g>
   <g id="patch_105">
    <path d="M 699.044481 196.616571 
L 706.414466 196.616571 
L 706.414466 189.246587 
L 699.044481 189.246587 
z
" clip-path="url(#p9b1ef35480)" style="stroke: #000000; stroke-linejoin: miter"/>
   </g>
   <g id="patch_106">
    <path d="M 720.372799 196.784043 
L 728.077727 196.784043 
L 728.077727 189.079115 
L 720.372799 189.079115 
z
" clip-path="url(#p9b1ef35480)" style="stroke: #000000; stroke-linejoin: miter"/>
   </g>
   <g id="patch_107">
    <path d="M 741.340576 197.312055 
L 750.101529 197.312055 
L 750.101529 188.551103 
L 741.340576 188.551103 
z
" clip-path="url(#p9b1ef35480)" style="stroke: #000000; stroke-linejoin: miter"/>
   </g>
   <g id="patch_108">
    <path d="M 762.525589 197.622832 
L 771.908095 197.622832 
L 771.908095 188.240326 
L 762.525589 188.240326 
z
" clip-path="url(#p9b1ef35480)" style="stroke: #000000; stroke-linejoin: miter"/>
   </g>
   <g id="patch_109">
    <path d="M 783.705241 197.938969 
L 793.720022 197.938969 
L 793.720022 187.924189 
L 783.705241 187.924189 
z
" clip-path="url(#p9b1ef35480)" style="stroke: #000000; stroke-linejoin: miter"/>
   </g>
   <g id="patch_110">
    <path d="M 805.045315 198.094685 
L 815.371527 198.094685 
L 815.371527 187.768473 
L 805.045315 187.768473 
z
" clip-path="url(#p9b1ef35480)" style="stroke: #000000; stroke-linejoin: miter"/>
   </g>
   <g id="patch_111">
    <path d="M 54.493035 174.798544 
L 61.218544 174.798544 
L 61.218544 168.073035 
L 54.493035 168.073035 
z
" clip-path="url(#p9b1ef35480)" style="stroke: #000000; stroke-linejoin: miter"/>
   </g>
   <g id="patch_112">
    <path d="M 77.101688 173.68568 
L 81.601469 173.68568 
L 81.601469 169.185899 
L 77.101688 169.185899 
z
" clip-path="url(#p9b1ef35480)" style="stroke: #000000; stroke-linejoin: miter"/>
   </g>
   <g id="patch_113">
    <path d="M 100.847368 171.435789 
L 100.847368 171.435789 
L 100.847368 171.435789 
L 100.847368 171.435789 
z
" clip-path="url(#p9b1ef35480)" style="stroke: #000000; stroke-linejoin: miter"/>
   </g>
   <g id="patch_114">
    <path d="M 122.343158 171.435789 
L 122.343158 171.435789 
L 122.343158 171.435789 
L 122.343158 171.435789 
z
" clip-path="url(#p9b1ef35480)" style="stroke: #000000; stroke-linejoin: miter"/>
   </g>
   <g id="patch_115">
    <path d="M 143.838947 171.435789 
L 143.838947 171.435789 
L 143.838947 171.435789 
L 143.838947 171.435789 
z
" clip-path="url(#p9b1ef35480)" style="stroke: #000000; stroke-linejoin: miter"/>
   </g>
   <g id="patch_116">
    <path d="M 165.334737 171.435789 
L 165.334737 171.435789 
L 165.334737 171.435789 
L 165.334737 171.435789 
z
" clip-path="url(#p9b1ef35480)" style="stroke: #000000; stroke-linejoin: miter"/>
   </g>
   <g id="patch_117">
    <path d="M 186.830526 171.435789 
L 186.830526 171.435789 
L 186.830526 171.435789 
L 186.830526 171.435789 
z
" clip-path="url(#p9b1ef35480)" style="stroke: #000000; stroke-linejoin: miter"/>
   </g>
   <g id="patch_118">
    <path d="M 208.326316 171.435789 
L 208.326316 171.435789 
L 208.326316 171.435789 
L 208.326316 171.435789 
z
" clip-path="url(#p9b1ef35480)" style="stroke: #000000; stroke-linejoin: miter"/>
   </g>
   <g id="patch_119">
    <path d="M 229.822105 171.435789 
L 229.822105 171.435789 
L 229.822105 171.435789 
L 229.822105 171.435789 
z
" clip-path="url(#p9b1ef35480)" style="stroke: #000000; stroke-linejoin: miter"/>
   </g>
   <g id="patch_120">
    <path d="M 251.317895 171.435789 
L 251.317895 171.435789 
L 251.317895 171.435789 
L 251.317895 171.435789 
z
" clip-path="url(#p9b1ef35480)" style="stroke: #000000; stroke-linejoin: miter"/>
   </g>
   <g id="patch_121">
    <path d="M 272.813684 171.435789 
L 272.813684 171.435789 
L 272.813684 171.435789 
L 272.813684 171.435789 
z
" clip-path="url(#p9b1ef35480)" style="stroke: #000000; stroke-linejoin: miter"/>
   </g>
   <g id="patch_122">
    <path d="M 293.251094 172.494169 
L 295.367853 172.494169 
L 295.367853 170.37741 
L 293.251094 170.37741 
z
" clip-path="url(#p9b1ef35480)" style="stroke: #000000; stroke-linejoin: miter"/>
   </g>
   <g id="patch_123">
    <path d="M 312.866721 174.374332 
L 318.743805 174.374332 
L 318.743805 168.497247 
L 312.866721 168.497247 
z
" clip-path="url(#p9b1ef35480)" style="stroke: #000000; stroke-linejoin: miter"/>
   </g>
   <g id="patch_124">
    <path d="M 334.171736 174.565106 
L 340.430369 174.565106 
L 340.430369 168.306473 
L 334.171736 168.306473 
z
" clip-path="url(#p9b1ef35480)" style="stroke: #000000; stroke-linejoin: miter"/>
   </g>
   <g id="patch_125">
    <path d="M 357.264844 172.967787 
L 360.32884 172.967787 
L 360.32884 169.903792 
L 357.264844 169.903792 
z
" clip-path="url(#p9b1ef35480)" style="stroke: #000000; stroke-linejoin: miter"/>
   </g>
   <g id="patch_126">
    <path d="M 380.292632 171.435789 
L 380.292632 171.435789 
L 380.292632 171.435789 
L 380.292632 171.435789 
z
" clip-path="url(#p9b1ef35480)" style="stroke: #000000; stroke-linejoin: miter"/>
   </g>
   <g id="patch_127">
    <path d="M 400.218591 173.00562 
L 403.358252 173.00562 
L 403.358252 169.865959 
L 400.218591 169.865959 
z
" clip-path="url(#p9b1ef35480)" style="stroke: #000000; stroke-linejoin: miter"/>
   </g>
   <g id="patch_128">
    <path d="M 421.382355 173.337645 
L 425.186066 173.337645 
L 425.186066 169.533934 
L 421.382355 169.533934 
z
" clip-path="url(#p9b1ef35480)" style="stroke: #000000; stroke-linejoin: miter"/>
   </g>
   <g id="patch_129">
    <path d="M 442.621908 173.593882 
L 446.938092 173.593882 
L 446.938092 169.277697 
L 442.621908 169.277697 
z
" clip-path="url(#p9b1ef35480)" style="stroke: #000000; stroke-linejoin: miter"/>
   </g>
   <g id="patch_130">
    <path d="M 463.466364 174.245215 
L 469.085215 174.245215 
L 469.085215 168.626364 
L 463.466364 168.626364 
z
" clip-path="url(#p9b1ef35480)" style="stroke: #000000; stroke-linejoin: miter"/>
   </g>
   <g id="patch_131">
    <path d="M 485.379394 173.827974 
L 490.163763 173.827974 
L 490.163763 169.043605 
L 485.379394 169.043605 
z
" clip-path="url(#p9b1ef35480)" style="stroke: #000000; stroke-linejoin: miter"/>
   </g>
   <g id="patch_132">
    <path d="M 507.729206 172.973952 
L 510.805531 172.973952 
L 510.805531 169.897627 
L 507.729206 169.897627 
z
" clip-path="url(#p9b1ef35480)" style="stroke: #000000; stroke-linejoin: miter"/>
   </g>
   <g id="patch_133">
    <path d="M 529.199774 172.999173 
L 532.326541 172.999173 
L 532.326541 169.872406 
L 529.199774 169.872406 
z
" clip-path="url(#p9b1ef35480)" style="stroke: #000000; stroke-linejoin: miter"/>
   </g>
   <g id="patch_134">
    <path d="M 549.85911 173.835627 
L 554.658784 173.835627 
L 554.658784 169.035952 
L 549.85911 169.035952 
z
" clip-path="url(#p9b1ef35480)" style="stroke: #000000; stroke-linejoin: miter"/>
   </g>
   <g id="patch_135">
    <path d="M 571.605158 173.585368 
L 575.904316 173.585368 
L 575.904316 169.286211 
L 571.605158 169.286211 
z
" clip-path="url(#p9b1ef35480)" style="stroke: #000000; stroke-linejoin: miter"/>
   </g>
   <g id="patch_136">
    <path d="M 593.092434 173.593882 
L 597.408618 173.593882 
L 597.408618 169.277697 
L 593.092434 169.277697 
z
" clip-path="url(#p9b1ef35480)" style="stroke: #000000; stroke-linejoin: miter"/>
   </g>
   <g id="patch_137">
    <path d="M 614.579744 173.602361 
L 618.912888 173.602361 
L 618.912888 169.269218 
L 614.579744 169.269218 
z
" clip-path="url(#p9b1ef35480)" style="stroke: #000000; stroke-linejoin: miter"/>
   </g>
   <g id="patch_138">
    <path d="M 635.237064 174.44083 
L 641.247146 174.44083 
L 641.247146 168.430749 
L 635.237064 168.430749 
z
" clip-path="url(#p9b1ef35480)" style="stroke: #000000; stroke-linejoin: miter"/>
   </g>
   <g id="patch_139">
    <path d="M 656.306707 174.866978 
L 663.169083 174.866978 
L 663.169083 168.004601 
L 656.306707 168.004601 
z
" clip-path="url(#p9b1ef35480)" style="stroke: #000000; stroke-linejoin: miter"/>
   </g>
   <g id="patch_140">
    <path d="M 677.594843 175.074631 
L 684.872526 175.074631 
L 684.872526 167.796948 
L 677.594843 167.796948 
z
" clip-path="url(#p9b1ef35480)" style="stroke: #000000; stroke-linejoin: miter"/>
   </g>
   <g id="patch_141">
    <path d="M 698.537735 175.627528 
L 706.921213 175.627528 
L 706.921213 167.24405 
L 698.537735 167.24405 
z
" clip-path="url(#p9b1ef35480)" style="stroke: #000000; stroke-linejoin: miter"/>
   </g>
   <g id="patch_142">
    <path d="M 719.850895 175.810157 
L 728.599631 175.810157 
L 728.599631 167.061422 
L 719.850895 167.061422 
z
" clip-path="url(#p9b1ef35480)" style="stroke: #000000; stroke-linejoin: miter"/>
   </g>
   <g id="patch_143">
    <path d="M 741.242151 175.914691 
L 750.199954 175.914691 
L 750.199954 166.956888 
L 741.242151 166.956888 
z
" clip-path="url(#p9b1ef35480)" style="stroke: #000000; stroke-linejoin: miter"/>
   </g>
   <g id="patch_144">
    <path d="M 762.123552 176.529079 
L 772.310132 176.529079 
L 772.310132 166.3425 
L 762.123552 166.3425 
z
" clip-path="url(#p9b1ef35480)" style="stroke: #000000; stroke-linejoin: miter"/>
   </g>
   <g id="patch_145">
    <path d="M 783.514882 176.633539 
L 793.910382 176.633539 
L 793.910382 166.238039 
L 783.514882 166.238039 
z
" clip-path="url(#p9b1ef35480)" style="stroke: #000000; stroke-linejoin: miter"/>
   </g>
   <g id="patch_146">
    <path d="M 805.001882 176.642328 
L 815.41496 176.642328 
L 815.41496 166.229251 
L 805.001882 166.229251 
z
" clip-path="url(#p9b1ef35480)" style="stroke: #000000; stroke-linejoin: miter"/>
   </g>
   <g id="patch_147">
    <path d="M 56.161275 151.634514 
L 59.550304 151.634514 
L 59.550304 148.245486 
L 56.161275 148.245486 
z
" clip-path="url(#p9b1ef35480)" style="stroke: #000000; stroke-linejoin: miter"/>
   </g>
   <g id="patch_148">
    <path d="M 77.606534 151.685044 
L 81.096623 151.685044 
L 81.096623 148.194956 
L 77.606534 148.194956 
z
" clip-path="url(#p9b1ef35480)" style="stroke: #000000; stroke-linejoin: miter"/>
   </g>
   <g id="patch_149">
    <path d="M 98.614856 152.172513 
L 103.079881 152.172513 
L 103.079881 147.707487 
L 98.614856 147.707487 
z
" clip-path="url(#p9b1ef35480)" style="stroke: #000000; stroke-linejoin: miter"/>
   </g>
   <g id="patch_150">
    <path d="M 120.397434 151.885724 
L 124.288882 151.885724 
L 124.288882 147.994276 
L 120.397434 147.994276 
z
" clip-path="url(#p9b1ef35480)" style="stroke: #000000; stroke-linejoin: miter"/>
   </g>
   <g id="patch_151">
    <path d="M 143.838947 149.94 
L 143.838947 149.94 
L 143.838947 149.94 
L 143.838947 149.94 
z
" clip-path="url(#p9b1ef35480)" style="stroke: #000000; stroke-linejoin: miter"/>
   </g>
   <g id="patch_152">
    <path d="M 165.334737 149.94 
L 165.334737 149.94 
L 165.334737 149.94 
L 165.334737 149.94 
z
" clip-path="url(#p9b1ef35480)" style="stroke: #000000; stroke-linejoin: miter"/>
   </g>
   <g id="patch_153">
    <path d="M 186.830526 149.94 
L 186.830526 149.94 
L 186.830526 149.94 
L 186.830526 149.94 
z
" clip-path="url(#p9b1ef35480)" style="stroke: #000000; stroke-linejoin: miter"/>
   </g>
   <g id="patch_154">
    <path d="M 208.326316 149.94 
L 208.326316 149.94 
L 208.326316 149.94 
L 208.326316 149.94 
z
" clip-path="url(#p9b1ef35480)" style="stroke: #000000; stroke-linejoin: miter"/>
   </g>
   <g id="patch_155">
    <path d="M 227.963215 151.79889 
L 231.680995 151.79889 
L 231.680995 148.08111 
L 227.963215 148.08111 
z
" clip-path="url(#p9b1ef35480)" style="stroke: #000000; stroke-linejoin: miter"/>
   </g>
   <g id="patch_156">
    <path d="M 249.606682 151.651213 
L 253.029107 151.651213 
L 253.029107 148.228787 
L 249.606682 148.228787 
z
" clip-path="url(#p9b1ef35480)" style="stroke: #000000; stroke-linejoin: miter"/>
   </g>
   <g id="patch_157">
    <path d="M 271.093677 151.660007 
L 274.533691 151.660007 
L 274.533691 148.219993 
L 271.093677 148.219993 
z
" clip-path="url(#p9b1ef35480)" style="stroke: #000000; stroke-linejoin: miter"/>
   </g>
   <g id="patch_158">
    <path d="M 292.572352 151.677122 
L 296.046596 151.677122 
L 296.046596 148.202878 
L 292.572352 148.202878 
z
" clip-path="url(#p9b1ef35480)" style="stroke: #000000; stroke-linejoin: miter"/>
   </g>
   <g id="patch_159">
    <path d="M 313.999839 151.745424 
L 317.610687 151.745424 
L 317.610687 148.134576 
L 313.999839 148.134576 
z
" clip-path="url(#p9b1ef35480)" style="stroke: #000000; stroke-linejoin: miter"/>
   </g>
   <g id="patch_160">
    <path d="M 335.37781 151.863243 
L 339.224296 151.863243 
L 339.224296 148.016757 
L 335.37781 148.016757 
z
" clip-path="url(#p9b1ef35480)" style="stroke: #000000; stroke-linejoin: miter"/>
   </g>
   <g id="patch_161">
    <path d="M 358.796842 149.94 
L 358.796842 149.94 
L 358.796842 149.94 
L 358.796842 149.94 
z
" clip-path="url(#p9b1ef35480)" style="stroke: #000000; stroke-linejoin: miter"/>
   </g>
   <g id="patch_162">
    <path d="M 380.292632 149.94 
L 380.292632 149.94 
L 380.292632 149.94 
L 380.292632 149.94 
z
" clip-path="url(#p9b1ef35480)" style="stroke: #000000; stroke-linejoin: miter"/>
   </g>
   <g id="patch_163">
    <path d="M 400.492176 151.236245 
L 403.084666 151.236245 
L 403.084666 148.643755 
L 400.492176 148.643755 
z
" clip-path="url(#p9b1ef35480)" style="stroke: #000000; stroke-linejoin: miter"/>
   </g>
   <g id="patch_164">
    <path d="M 422.002449 151.221761 
L 424.565972 151.221761 
L 424.565972 148.658239 
L 422.002449 148.658239 
z
" clip-path="url(#p9b1ef35480)" style="stroke: #000000; stroke-linejoin: miter"/>
   </g>
   <g id="patch_165">
    <path d="M 444.78 149.94 
L 444.78 149.94 
L 444.78 149.94 
L 444.78 149.94 
z
" clip-path="url(#p9b1ef35480)" style="stroke: #000000; stroke-linejoin: miter"/>
   </g>
   <g id="patch_166">
    <path d="M 466.275789 149.94 
L 466.275789 149.94 
L 466.275789 149.94 
L 466.275789 149.94 
z
" clip-path="url(#p9b1ef35480)" style="stroke: #000000; stroke-linejoin: miter"/>
   </g>
   <g id="patch_167">
    <path d="M 487.771579 149.94 
L 487.771579 149.94 
L 487.771579 149.94 
L 487.771579 149.94 
z
" clip-path="url(#p9b1ef35480)" style="stroke: #000000; stroke-linejoin: miter"/>
   </g>
   <g id="patch_168">
    <path d="M 509.267368 149.94 
L 509.267368 149.94 
L 509.267368 149.94 
L 509.267368 149.94 
z
" clip-path="url(#p9b1ef35480)" style="stroke: #000000; stroke-linejoin: miter"/>
   </g>
   <g id="patch_169">
    <path d="M 530.763158 149.94 
L 530.763158 149.94 
L 530.763158 149.94 
L 530.763158 149.94 
z
" clip-path="url(#p9b1ef35480)" style="stroke: #000000; stroke-linejoin: miter"/>
   </g>
   <g id="patch_170">
    <path d="M 552.258947 149.94 
L 552.258947 149.94 
L 552.258947 149.94 
L 552.258947 149.94 
z
" clip-path="url(#p9b1ef35480)" style="stroke: #000000; stroke-linejoin: miter"/>
   </g>
   <g id="patch_171">
    <path d="M 571.508387 152.18635 
L 576.001086 152.18635 
L 576.001086 147.69365 
L 571.508387 147.69365 
z
" clip-path="url(#p9b1ef35480)" style="stroke: #000000; stroke-linejoin: miter"/>
   </g>
   <g id="patch_172">
    <path d="M 592.700974 152.489552 
L 597.800079 152.489552 
L 597.800079 147.390448 
L 592.700974 147.390448 
z
" clip-path="url(#p9b1ef35480)" style="stroke: #000000; stroke-linejoin: miter"/>
   </g>
   <g id="patch_173">
    <path d="M 613.674183 153.012133 
L 619.818449 153.012133 
L 619.818449 146.867867 
L 613.674183 146.867867 
z
" clip-path="url(#p9b1ef35480)" style="stroke: #000000; stroke-linejoin: miter"/>
   </g>
   <g id="patch_174">
    <path d="M 634.52243 153.659675 
L 641.961781 153.659675 
L 641.961781 146.220325 
L 634.52243 146.220325 
z
" clip-path="url(#p9b1ef35480)" style="stroke: #000000; stroke-linejoin: miter"/>
   </g>
   <g id="patch_175">
    <path d="M 655.833393 153.844501 
L 663.642396 153.844501 
L 663.642396 146.035499 
L 655.833393 146.035499 
z
" clip-path="url(#p9b1ef35480)" style="stroke: #000000; stroke-linejoin: miter"/>
   </g>
   <g id="patch_176">
    <path d="M 677.387631 153.786053 
L 685.079737 153.786053 
L 685.079737 146.093947 
L 677.387631 146.093947 
z
" clip-path="url(#p9b1ef35480)" style="stroke: #000000; stroke-linejoin: miter"/>
   </g>
   <g id="patch_177">
    <path d="M 698.712542 153.956932 
L 706.746406 153.956932 
L 706.746406 145.923068 
L 698.712542 145.923068 
z
" clip-path="url(#p9b1ef35480)" style="stroke: #000000; stroke-linejoin: miter"/>
   </g>
   <g id="patch_178">
    <path d="M 720.245017 153.920247 
L 728.20551 153.920247 
L 728.20551 145.959753 
L 720.245017 145.959753 
z
" clip-path="url(#p9b1ef35480)" style="stroke: #000000; stroke-linejoin: miter"/>
   </g>
   <g id="patch_179">
    <path d="M 741.262127 154.398926 
L 750.179978 154.398926 
L 750.179978 145.481074 
L 741.262127 145.481074 
z
" clip-path="url(#p9b1ef35480)" style="stroke: #000000; stroke-linejoin: miter"/>
   </g>
   <g id="patch_180">
    <path d="M 762.550949 154.605893 
L 771.882735 154.605893 
L 771.882735 145.274107 
L 762.550949 145.274107 
z
" clip-path="url(#p9b1ef35480)" style="stroke: #000000; stroke-linejoin: miter"/>
   </g>
   <g id="patch_181">
    <path d="M 783.788373 154.864259 
L 793.63689 154.864259 
L 793.63689 145.015741 
L 783.788373 145.015741 
z
" clip-path="url(#p9b1ef35480)" style="stroke: #000000; stroke-linejoin: miter"/>
   </g>
   <g id="patch_182">
    <path d="M 804.719059 155.429362 
L 815.697783 155.429362 
L 815.697783 144.450638 
L 804.719059 144.450638 
z
" clip-path="url(#p9b1ef35480)" style="stroke: #000000; stroke-linejoin: miter"/>
   </g>
   <g id="patch_183">
    <path d="M 55.497833 130.802167 
L 60.213746 130.802167 
L 60.213746 126.086254 
L 55.497833 126.086254 
z
" clip-path="url(#p9b1ef35480)" style="stroke: #000000; stroke-linejoin: miter"/>
   </g>
   <g id="patch_184">
    <path d="M 79.351579 128.444211 
L 79.351579 128.444211 
L 79.351579 128.444211 
L 79.351579 128.444211 
z
" clip-path="url(#p9b1ef35480)" style="stroke: #000000; stroke-linejoin: miter"/>
   </g>
   <g id="patch_185">
    <path d="M 100.847368 128.444211 
L 100.847368 128.444211 
L 100.847368 128.444211 
L 100.847368 128.444211 
z
" clip-path="url(#p9b1ef35480)" style="stroke: #000000; stroke-linejoin: miter"/>
   </g>
   <g id="patch_186">
    <path d="M 122.343158 128.444211 
L 122.343158 128.444211 
L 122.343158 128.444211 
L 122.343158 128.444211 
z
" clip-path="url(#p9b1ef35480)" style="stroke: #000000; stroke-linejoin: miter"/>
   </g>
   <g id="patch_187">
    <path d="M 143.838947 128.444211 
L 143.838947 128.444211 
L 143.838947 128.444211 
L 143.838947 128.444211 
z
" clip-path="url(#p9b1ef35480)" style="stroke: #000000; stroke-linejoin: miter"/>
   </g>
   <g id="patch_188">
    <path d="M 165.334737 128.444211 
L 165.334737 128.444211 
L 165.334737 128.444211 
L 165.334737 128.444211 
z
" clip-path="url(#p9b1ef35480)" style="stroke: #000000; stroke-linejoin: miter"/>
   </g>
   <g id="patch_189">
    <path d="M 186.830526 128.444211 
L 186.830526 128.444211 
L 186.830526 128.444211 
L 186.830526 128.444211 
z
" clip-path="url(#p9b1ef35480)" style="stroke: #000000; stroke-linejoin: miter"/>
   </g>
   <g id="patch_190">
    <path d="M 208.326316 128.444211 
L 208.326316 128.444211 
L 208.326316 128.444211 
L 208.326316 128.444211 
z
" clip-path="url(#p9b1ef35480)" style="stroke: #000000; stroke-linejoin: miter"/>
   </g>
   <g id="patch_191">
    <path d="M 229.822105 128.444211 
L 229.822105 128.444211 
L 229.822105 128.444211 
L 229.822105 128.444211 
z
" clip-path="url(#p9b1ef35480)" style="stroke: #000000; stroke-linejoin: miter"/>
   </g>
   <g id="patch_192">
    <path d="M 251.317895 128.444211 
L 251.317895 128.444211 
L 251.317895 128.444211 
L 251.317895 128.444211 
z
" clip-path="url(#p9b1ef35480)" style="stroke: #000000; stroke-linejoin: miter"/>
   </g>
   <g id="patch_193">
    <path d="M 272.813684 128.444211 
L 272.813684 128.444211 
L 272.813684 128.444211 
L 272.813684 128.444211 
z
" clip-path="url(#p9b1ef35480)" style="stroke: #000000; stroke-linejoin: miter"/>
   </g>
   <g id="patch_194">
    <path d="M 294.309474 128.444211 
L 294.309474 128.444211 
L 294.309474 128.444211 
L 294.309474 128.444211 
z
" clip-path="url(#p9b1ef35480)" style="stroke: #000000; stroke-linejoin: miter"/>
   </g>
   <g id="patch_195">
    <path d="M 315.805263 128.444211 
L 315.805263 128.444211 
L 315.805263 128.444211 
L 315.805263 128.444211 
z
" clip-path="url(#p9b1ef35480)" style="stroke: #000000; stroke-linejoin: miter"/>
   </g>
   <g id="patch_196">
    <path d="M 335.32778 130.417483 
L 339.274325 130.417483 
L 339.274325 126.470938 
L 335.32778 126.470938 
z
" clip-path="url(#p9b1ef35480)" style="stroke: #000000; stroke-linejoin: miter"/>
   </g>
   <g id="patch_197">
    <path d="M 358.796842 128.444211 
L 358.796842 128.444211 
L 358.796842 128.444211 
L 358.796842 128.444211 
z
" clip-path="url(#p9b1ef35480)" style="stroke: #000000; stroke-linejoin: miter"/>
   </g>
   <g id="patch_198">
    <path d="M 380.292632 128.444211 
L 380.292632 128.444211 
L 380.292632 128.444211 
L 380.292632 128.444211 
z
" clip-path="url(#p9b1ef35480)" style="stroke: #000000; stroke-linejoin: miter"/>
   </g>
   <g id="patch_199">
    <path d="M 401.788421 128.444211 
L 401.788421 128.444211 
L 401.788421 128.444211 
L 401.788421 128.444211 
z
" clip-path="url(#p9b1ef35480)" style="stroke: #000000; stroke-linejoin: miter"/>
   </g>
   <g id="patch_200">
    <path d="M 423.284211 128.444211 
L 423.284211 128.444211 
L 423.284211 128.444211 
L 423.284211 128.444211 
z
" clip-path="url(#p9b1ef35480)" style="stroke: #000000; stroke-linejoin: miter"/>
   </g>
   <g id="patch_201">
    <path d="M 444.78 128.444211 
L 444.78 128.444211 
L 444.78 128.444211 
L 444.78 128.444211 
z
" clip-path="url(#p9b1ef35480)" style="stroke: #000000; stroke-linejoin: miter"/>
   </g>
   <g id="patch_202">
    <path d="M 464.898957 129.821043 
L 467.652622 129.821043 
L 467.652622 127.067378 
L 464.898957 127.067378 
z
" clip-path="url(#p9b1ef35480)" style="stroke: #000000; stroke-linejoin: miter"/>
   </g>
   <g id="patch_203">
    <path d="M 485.848937 130.366852 
L 489.694221 130.366852 
L 489.694221 126.521569 
L 485.848937 126.521569 
z
" clip-path="url(#p9b1ef35480)" style="stroke: #000000; stroke-linejoin: miter"/>
   </g>
   <g id="patch_204">
    <path d="M 507.281496 130.430083 
L 511.253241 130.430083 
L 511.253241 126.458338 
L 507.281496 126.458338 
z
" clip-path="url(#p9b1ef35480)" style="stroke: #000000; stroke-linejoin: miter"/>
   </g>
   <g id="patch_205">
    <path d="M 528.76409 130.443278 
L 532.762226 130.443278 
L 532.762226 126.445143 
L 528.76409 126.445143 
z
" clip-path="url(#p9b1ef35480)" style="stroke: #000000; stroke-linejoin: miter"/>
   </g>
   <g id="patch_206">
    <path d="M 552.258947 128.444211 
L 552.258947 128.444211 
L 552.258947 128.444211 
L 552.258947 128.444211 
z
" clip-path="url(#p9b1ef35480)" style="stroke: #000000; stroke-linejoin: miter"/>
   </g>
   <g id="patch_207">
    <path d="M 573.754737 128.444211 
L 573.754737 128.444211 
L 573.754737 128.444211 
L 573.754737 128.444211 
z
" clip-path="url(#p9b1ef35480)" style="stroke: #000000; stroke-linejoin: miter"/>
   </g>
   <g id="patch_208">
    <path d="M 595.250526 128.444211 
L 595.250526 128.444211 
L 595.250526 128.444211 
L 595.250526 128.444211 
z
" clip-path="url(#p9b1ef35480)" style="stroke: #000000; stroke-linejoin: miter"/>
   </g>
   <g id="patch_209">
    <path d="M 614.27476 130.915766 
L 619.217872 130.915766 
L 619.217872 125.972655 
L 614.27476 125.972655 
z
" clip-path="url(#p9b1ef35480)" style="stroke: #000000; stroke-linejoin: miter"/>
   </g>
   <g id="patch_210">
    <path d="M 635.585594 131.100722 
L 640.898617 131.100722 
L 640.898617 125.787699 
L 635.585594 125.787699 
z
" clip-path="url(#p9b1ef35480)" style="stroke: #000000; stroke-linejoin: miter"/>
   </g>
   <g id="patch_211">
    <path d="M 656.505196 131.676909 
L 662.970594 131.676909 
L 662.970594 125.211512 
L 656.505196 125.211512 
z
" clip-path="url(#p9b1ef35480)" style="stroke: #000000; stroke-linejoin: miter"/>
   </g>
   <g id="patch_212">
    <path d="M 677.923938 131.753956 
L 684.54343 131.753956 
L 684.54343 125.134465 
L 677.923938 125.134465 
z
" clip-path="url(#p9b1ef35480)" style="stroke: #000000; stroke-linejoin: miter"/>
   </g>
   <g id="patch_213">
    <path d="M 698.975797 132.197887 
L 706.483151 132.197887 
L 706.483151 124.690534 
L 698.975797 124.690534 
z
" clip-path="url(#p9b1ef35480)" style="stroke: #000000; stroke-linejoin: miter"/>
   </g>
   <g id="patch_214">
    <path d="M 720.078787 132.590687 
L 728.371739 132.590687 
L 728.371739 124.297734 
L 720.078787 124.297734 
z
" clip-path="url(#p9b1ef35480)" style="stroke: #000000; stroke-linejoin: miter"/>
   </g>
   <g id="patch_215">
    <path d="M 741.598203 132.56706 
L 749.843902 132.56706 
L 749.843902 124.321361 
L 741.598203 124.321361 
z
" clip-path="url(#p9b1ef35480)" style="stroke: #000000; stroke-linejoin: miter"/>
   </g>
   <g id="patch_216">
    <path d="M 762.642019 133.019034 
L 771.791665 133.019034 
L 771.791665 123.869387 
L 762.642019 123.869387 
z
" clip-path="url(#p9b1ef35480)" style="stroke: #000000; stroke-linejoin: miter"/>
   </g>
   <g id="patch_217">
    <path d="M 784.251185 132.905658 
L 793.174079 132.905658 
L 793.174079 123.982763 
L 784.251185 123.982763 
z
" clip-path="url(#p9b1ef35480)" style="stroke: #000000; stroke-linejoin: miter"/>
   </g>
   <g id="patch_218">
    <path d="M 805.34021 133.312421 
L 815.076632 133.312421 
L 815.076632 123.576 
L 805.34021 123.576 
z
" clip-path="url(#p9b1ef35480)" style="stroke: #000000; stroke-linejoin: miter"/>
   </g>
   <g id="patch_219">
    <path d="M 55.216348 109.587863 
L 60.495231 109.587863 
L 60.495231 104.308979 
L 55.216348 104.308979 
z
" clip-path="url(#p9b1ef35480)" style="stroke: #000000; stroke-linejoin: miter"/>
   </g>
   <g id="patch_220">
    <path d="M 76.673711 109.626289 
L 82.029447 109.626289 
L 82.029447 104.270553 
L 76.673711 104.270553 
z
" clip-path="url(#p9b1ef35480)" style="stroke: #000000; stroke-linejoin: miter"/>
   </g>
   <g id="patch_221">
    <path d="M 98.460955 109.334834 
L 103.233781 109.334834 
L 103.233781 104.562008 
L 98.460955 104.562008 
z
" clip-path="url(#p9b1ef35480)" style="stroke: #000000; stroke-linejoin: miter"/>
   </g>
   <g id="patch_222">
    <path d="M 122.343158 106.948421 
L 122.343158 106.948421 
L 122.343158 106.948421 
L 122.343158 106.948421 
z
" clip-path="url(#p9b1ef35480)" style="stroke: #000000; stroke-linejoin: miter"/>
   </g>
   <g id="patch_223">
    <path d="M 143.838947 106.948421 
L 143.838947 106.948421 
L 143.838947 106.948421 
L 143.838947 106.948421 
z
" clip-path="url(#p9b1ef35480)" style="stroke: #000000; stroke-linejoin: miter"/>
   </g>
   <g id="patch_224">
    <path d="M 165.334737 106.948421 
L 165.334737 106.948421 
L 165.334737 106.948421 
L 165.334737 106.948421 
z
" clip-path="url(#p9b1ef35480)" style="stroke: #000000; stroke-linejoin: miter"/>
   </g>
   <g id="patch_225">
    <path d="M 185.110863 108.668084 
L 188.550189 108.668084 
L 188.550189 105.228758 
L 185.110863 105.228758 
z
" clip-path="url(#p9b1ef35480)" style="stroke: #000000; stroke-linejoin: miter"/>
   </g>
   <g id="patch_226">
    <path d="M 205.894345 109.380392 
L 210.758287 109.380392 
L 210.758287 104.51645 
L 205.894345 104.51645 
z
" clip-path="url(#p9b1ef35480)" style="stroke: #000000; stroke-linejoin: miter"/>
   </g>
   <g id="patch_227">
    <path d="M 227.600795 109.169731 
L 232.043415 109.169731 
L 232.043415 104.727111 
L 227.600795 104.727111 
z
" clip-path="url(#p9b1ef35480)" style="stroke: #000000; stroke-linejoin: miter"/>
   </g>
   <g id="patch_228">
    <path d="M 249.356382 108.909933 
L 253.279407 108.909933 
L 253.279407 104.986909 
L 249.356382 104.986909 
z
" clip-path="url(#p9b1ef35480)" style="stroke: #000000; stroke-linejoin: miter"/>
   </g>
   <g id="patch_229">
    <path d="M 269.520435 110.24167 
L 276.106933 110.24167 
L 276.106933 103.655172 
L 269.520435 103.655172 
z
" clip-path="url(#p9b1ef35480)" style="stroke: #000000; stroke-linejoin: miter"/>
   </g>
   <g id="patch_230">
    <path d="M 291.053143 110.204752 
L 297.565804 110.204752 
L 297.565804 103.692091 
L 291.053143 103.692091 
z
" clip-path="url(#p9b1ef35480)" style="stroke: #000000; stroke-linejoin: miter"/>
   </g>
   <g id="patch_231">
    <path d="M 312.657702 110.095983 
L 318.952825 110.095983 
L 318.952825 103.800859 
L 312.657702 103.800859 
z
" clip-path="url(#p9b1ef35480)" style="stroke: #000000; stroke-linejoin: miter"/>
   </g>
   <g id="patch_232">
    <path d="M 334.039441 110.210033 
L 340.562664 110.210033 
L 340.562664 103.68681 
L 334.039441 103.68681 
z
" clip-path="url(#p9b1ef35480)" style="stroke: #000000; stroke-linejoin: miter"/>
   </g>
   <g id="patch_233">
    <path d="M 356.332951 109.412312 
L 361.260733 109.412312 
L 361.260733 104.48453 
L 356.332951 104.48453 
z
" clip-path="url(#p9b1ef35480)" style="stroke: #000000; stroke-linejoin: miter"/>
   </g>
   <g id="patch_234">
    <path d="M 380.292632 106.948421 
L 380.292632 106.948421 
L 380.292632 106.948421 
L 380.292632 106.948421 
z
" clip-path="url(#p9b1ef35480)" style="stroke: #000000; stroke-linejoin: miter"/>
   </g>
   <g id="patch_235">
    <path d="M 401.788421 106.948421 
L 401.788421 106.948421 
L 401.788421 106.948421 
L 401.788421 106.948421 
z
" clip-path="url(#p9b1ef35480)" style="stroke: #000000; stroke-linejoin: miter"/>
   </g>
   <g id="patch_236">
    <path d="M 423.284211 106.948421 
L 423.284211 106.948421 
L 423.284211 106.948421 
L 423.284211 106.948421 
z
" clip-path="url(#p9b1ef35480)" style="stroke: #000000; stroke-linejoin: miter"/>
   </g>
   <g id="patch_237">
    <path d="M 444.78 106.948421 
L 444.78 106.948421 
L 444.78 106.948421 
L 444.78 106.948421 
z
" clip-path="url(#p9b1ef35480)" style="stroke: #000000; stroke-linejoin: miter"/>
   </g>
   <g id="patch_238">
    <path d="M 466.275789 106.948421 
L 466.275789 106.948421 
L 466.275789 106.948421 
L 466.275789 106.948421 
z
" clip-path="url(#p9b1ef35480)" style="stroke: #000000; stroke-linejoin: miter"/>
   </g>
   <g id="patch_239">
    <path d="M 484.846372 109.873628 
L 490.696785 109.873628 
L 490.696785 104.023215 
L 484.846372 104.023215 
z
" clip-path="url(#p9b1ef35480)" style="stroke: #000000; stroke-linejoin: miter"/>
   </g>
   <g id="patch_240">
    <path d="M 506.202987 110.012802 
L 512.33175 110.012802 
L 512.33175 103.88404 
L 506.202987 103.88404 
z
" clip-path="url(#p9b1ef35480)" style="stroke: #000000; stroke-linejoin: miter"/>
   </g>
   <g id="patch_241">
    <path d="M 527.645565 110.066014 
L 533.88075 110.066014 
L 533.88075 103.830829 
L 527.645565 103.830829 
z
" clip-path="url(#p9b1ef35480)" style="stroke: #000000; stroke-linejoin: miter"/>
   </g>
   <g id="patch_242">
    <path d="M 550.572679 108.63469 
L 553.945216 108.63469 
L 553.945216 105.262153 
L 550.572679 105.262153 
z
" clip-path="url(#p9b1ef35480)" style="stroke: #000000; stroke-linejoin: miter"/>
   </g>
   <g id="patch_243">
    <path d="M 573.754737 106.948421 
L 573.754737 106.948421 
L 573.754737 106.948421 
L 573.754737 106.948421 
z
" clip-path="url(#p9b1ef35480)" style="stroke: #000000; stroke-linejoin: miter"/>
   </g>
   <g id="patch_244">
    <path d="M 595.250526 106.948421 
L 595.250526 106.948421 
L 595.250526 106.948421 
L 595.250526 106.948421 
z
" clip-path="url(#p9b1ef35480)" style="stroke: #000000; stroke-linejoin: miter"/>
   </g>
   <g id="patch_245">
    <path d="M 614.361572 109.333165 
L 619.13106 109.333165 
L 619.13106 104.563677 
L 614.361572 104.563677 
z
" clip-path="url(#p9b1ef35480)" style="stroke: #000000; stroke-linejoin: miter"/>
   </g>
   <g id="patch_246">
    <path d="M 634.225173 110.965353 
L 642.259037 110.965353 
L 642.259037 102.931489 
L 634.225173 102.931489 
z
" clip-path="url(#p9b1ef35480)" style="stroke: #000000; stroke-linejoin: miter"/>
   </g>
   <g id="patch_247">
    <path d="M 655.923747 110.762569 
L 663.552042 110.762569 
L 663.552042 103.134274 
L 655.923747 103.134274 
z
" clip-path="url(#p9b1ef35480)" style="stroke: #000000; stroke-linejoin: miter"/>
   </g>
   <g id="patch_248">
    <path d="M 677.051267 111.130838 
L 685.416101 111.130838 
L 685.416101 102.766004 
L 677.051267 102.766004 
z
" clip-path="url(#p9b1ef35480)" style="stroke: #000000; stroke-linejoin: miter"/>
   </g>
   <g id="patch_249">
    <path d="M 698.165509 111.512386 
L 707.293439 111.512386 
L 707.293439 102.384456 
L 698.165509 102.384456 
z
" clip-path="url(#p9b1ef35480)" style="stroke: #000000; stroke-linejoin: miter"/>
   </g>
   <g id="patch_250">
    <path d="M 719.693553 111.480131 
L 728.756973 111.480131 
L 728.756973 102.416711 
L 719.693553 102.416711 
z
" clip-path="url(#p9b1ef35480)" style="stroke: #000000; stroke-linejoin: miter"/>
   </g>
   <g id="patch_251">
    <path d="M 741.220066 111.449407 
L 750.222039 111.449407 
L 750.222039 102.447435 
L 741.220066 102.447435 
z
" clip-path="url(#p9b1ef35480)" style="stroke: #000000; stroke-linejoin: miter"/>
   </g>
   <g id="patch_252">
    <path d="M 762.981004 111.184259 
L 771.45268 111.184259 
L 771.45268 102.712583 
L 762.981004 102.712583 
z
" clip-path="url(#p9b1ef35480)" style="stroke: #000000; stroke-linejoin: miter"/>
   </g>
   <g id="patch_253">
    <path d="M 784.358705 111.302348 
L 793.066558 111.302348 
L 793.066558 102.594494 
L 784.358705 102.594494 
z
" clip-path="url(#p9b1ef35480)" style="stroke: #000000; stroke-linejoin: miter"/>
   </g>
   <g id="patch_254">
    <path d="M 804.943049 112.213793 
L 815.473793 112.213793 
L 815.473793 101.683049 
L 804.943049 101.683049 
z
" clip-path="url(#p9b1ef35480)" style="stroke: #000000; stroke-linejoin: miter"/>
   </g>
   <g id="patch_255">
    <path d="M 55.230273 88.078148 
L 60.481306 88.078148 
L 60.481306 82.827115 
L 55.230273 82.827115 
z
" clip-path="url(#p9b1ef35480)" style="stroke: #000000; stroke-linejoin: miter"/>
   </g>
   <g id="patch_256">
    <path d="M 76.70563 88.09858 
L 81.997528 88.09858 
L 81.997528 82.806683 
L 76.70563 82.806683 
z
" clip-path="url(#p9b1ef35480)" style="stroke: #000000; stroke-linejoin: miter"/>
   </g>
   <g id="patch_257">
    <path d="M 98.79616 87.50384 
L 102.898577 87.50384 
L 102.898577 83.401423 
L 98.79616 83.401423 
z
" clip-path="url(#p9b1ef35480)" style="stroke: #000000; stroke-linejoin: miter"/>
   </g>
   <g id="patch_258">
    <path d="M 122.343158 85.452632 
L 122.343158 85.452632 
L 122.343158 85.452632 
L 122.343158 85.452632 
z
" clip-path="url(#p9b1ef35480)" style="stroke: #000000; stroke-linejoin: miter"/>
   </g>
   <g id="patch_259">
    <path d="M 143.838947 85.452632 
L 143.838947 85.452632 
L 143.838947 85.452632 
L 143.838947 85.452632 
z
" clip-path="url(#p9b1ef35480)" style="stroke: #000000; stroke-linejoin: miter"/>
   </g>
   <g id="patch_260">
    <path d="M 165.334737 85.452632 
L 165.334737 85.452632 
L 165.334737 85.452632 
L 165.334737 85.452632 
z
" clip-path="url(#p9b1ef35480)" style="stroke: #000000; stroke-linejoin: miter"/>
   </g>
   <g id="patch_261">
    <path d="M 186.830526 85.452632 
L 186.830526 85.452632 
L 186.830526 85.452632 
L 186.830526 85.452632 
z
" clip-path="url(#p9b1ef35480)" style="stroke: #000000; stroke-linejoin: miter"/>
   </g>
   <g id="patch_262">
    <path d="M 206.450009 87.328938 
L 210.202622 87.328938 
L 210.202622 83.576325 
L 206.450009 83.576325 
z
" clip-path="url(#p9b1ef35480)" style="stroke: #000000; stroke-linejoin: miter"/>
   </g>
   <g id="patch_263">
    <path d="M 227.406496 87.868241 
L 232.237715 87.868241 
L 232.237715 83.037022 
L 227.406496 83.037022 
z
" clip-path="url(#p9b1ef35480)" style="stroke: #000000; stroke-linejoin: miter"/>
   </g>
   <g id="patch_264">
    <path d="M 249.190032 87.580494 
L 253.445758 87.580494 
L 253.445758 83.324769 
L 249.190032 83.324769 
z
" clip-path="url(#p9b1ef35480)" style="stroke: #000000; stroke-linejoin: miter"/>
   </g>
   <g id="patch_265">
    <path d="M 270.473341 87.792975 
L 275.154028 87.792975 
L 275.154028 83.112288 
L 270.473341 83.112288 
z
" clip-path="url(#p9b1ef35480)" style="stroke: #000000; stroke-linejoin: miter"/>
   </g>
   <g id="patch_266">
    <path d="M 291.916778 87.845327 
L 296.702169 87.845327 
L 296.702169 83.059936 
L 291.916778 83.059936 
z
" clip-path="url(#p9b1ef35480)" style="stroke: #000000; stroke-linejoin: miter"/>
   </g>
   <g id="patch_267">
    <path d="M 313.420519 87.837375 
L 318.190007 87.837375 
L 318.190007 83.067888 
L 313.420519 83.067888 
z
" clip-path="url(#p9b1ef35480)" style="stroke: #000000; stroke-linejoin: miter"/>
   </g>
   <g id="patch_268">
    <path d="M 334.809676 87.944008 
L 339.792429 87.944008 
L 339.792429 82.961255 
L 334.809676 82.961255 
z
" clip-path="url(#p9b1ef35480)" style="stroke: #000000; stroke-linejoin: miter"/>
   </g>
   <g id="patch_269">
    <path d="M 356.814207 87.435266 
L 360.779477 87.435266 
L 360.779477 83.469997 
L 356.814207 83.469997 
z
" clip-path="url(#p9b1ef35480)" style="stroke: #000000; stroke-linejoin: miter"/>
   </g>
   <g id="patch_270">
    <path d="M 378.207234 87.538029 
L 382.378029 87.538029 
L 382.378029 83.367234 
L 378.207234 83.367234 
z
" clip-path="url(#p9b1ef35480)" style="stroke: #000000; stroke-linejoin: miter"/>
   </g>
   <g id="patch_271">
    <path d="M 400.291646 86.949406 
L 403.285196 86.949406 
L 403.285196 83.955857 
L 400.291646 83.955857 
z
" clip-path="url(#p9b1ef35480)" style="stroke: #000000; stroke-linejoin: miter"/>
   </g>
   <g id="patch_272">
    <path d="M 423.284211 85.452632 
L 423.284211 85.452632 
L 423.284211 85.452632 
L 423.284211 85.452632 
z
" clip-path="url(#p9b1ef35480)" style="stroke: #000000; stroke-linejoin: miter"/>
   </g>
   <g id="patch_273">
    <path d="M 444.78 85.452632 
L 444.78 85.452632 
L 444.78 85.452632 
L 444.78 85.452632 
z
" clip-path="url(#p9b1ef35480)" style="stroke: #000000; stroke-linejoin: miter"/>
   </g>
   <g id="patch_274">
    <path d="M 466.275789 85.452632 
L 466.275789 85.452632 
L 466.275789 85.452632 
L 466.275789 85.452632 
z
" clip-path="url(#p9b1ef35480)" style="stroke: #000000; stroke-linejoin: miter"/>
   </g>
   <g id="patch_275">
    <path d="M 487.771579 85.452632 
L 487.771579 85.452632 
L 487.771579 85.452632 
L 487.771579 85.452632 
z
" clip-path="url(#p9b1ef35480)" style="stroke: #000000; stroke-linejoin: miter"/>
   </g>
   <g id="patch_276">
    <path d="M 509.267368 85.452632 
L 509.267368 85.452632 
L 509.267368 85.452632 
L 509.267368 85.452632 
z
" clip-path="url(#p9b1ef35480)" style="stroke: #000000; stroke-linejoin: miter"/>
   </g>
   <g id="patch_277">
    <path d="M 530.763158 85.452632 
L 530.763158 85.452632 
L 530.763158 85.452632 
L 530.763158 85.452632 
z
" clip-path="url(#p9b1ef35480)" style="stroke: #000000; stroke-linejoin: miter"/>
   </g>
   <g id="patch_278">
    <path d="M 552.258947 85.452632 
L 552.258947 85.452632 
L 552.258947 85.452632 
L 552.258947 85.452632 
z
" clip-path="url(#p9b1ef35480)" style="stroke: #000000; stroke-linejoin: miter"/>
   </g>
   <g id="patch_279">
    <path d="M 573.754737 85.452632 
L 573.754737 85.452632 
L 573.754737 85.452632 
L 573.754737 85.452632 
z
" clip-path="url(#p9b1ef35480)" style="stroke: #000000; stroke-linejoin: miter"/>
   </g>
   <g id="patch_280">
    <path d="M 595.250526 85.452632 
L 595.250526 85.452632 
L 595.250526 85.452632 
L 595.250526 85.452632 
z
" clip-path="url(#p9b1ef35480)" style="stroke: #000000; stroke-linejoin: miter"/>
   </g>
   <g id="patch_281">
    <path d="M 615.121387 87.077561 
L 618.371245 87.077561 
L 618.371245 83.827703 
L 615.121387 83.827703 
z
" clip-path="url(#p9b1ef35480)" style="stroke: #000000; stroke-linejoin: miter"/>
   </g>
   <g id="patch_282">
    <path d="M 635.100698 88.594038 
L 641.383512 88.594038 
L 641.383512 82.311225 
L 635.100698 82.311225 
z
" clip-path="url(#p9b1ef35480)" style="stroke: #000000; stroke-linejoin: miter"/>
   </g>
   <g id="patch_283">
    <path d="M 656.697931 88.492595 
L 662.777858 88.492595 
L 662.777858 82.412668 
L 656.697931 82.412668 
z
" clip-path="url(#p9b1ef35480)" style="stroke: #000000; stroke-linejoin: miter"/>
   </g>
   <g id="patch_284">
    <path d="M 678.344886 88.34143 
L 684.122483 88.34143 
L 684.122483 82.563833 
L 678.344886 82.563833 
z
" clip-path="url(#p9b1ef35480)" style="stroke: #000000; stroke-linejoin: miter"/>
   </g>
   <g id="patch_285">
    <path d="M 699.342177 88.839928 
L 706.11677 88.839928 
L 706.11677 82.065335 
L 699.342177 82.065335 
z
" clip-path="url(#p9b1ef35480)" style="stroke: #000000; stroke-linejoin: miter"/>
   </g>
   <g id="patch_286">
    <path d="M 720.426032 89.251863 
L 728.024494 89.251863 
L 728.024494 81.653401 
L 720.426032 81.653401 
z
" clip-path="url(#p9b1ef35480)" style="stroke: #000000; stroke-linejoin: miter"/>
   </g>
   <g id="patch_287">
    <path d="M 741.177587 89.996097 
L 750.264518 89.996097 
L 750.264518 80.909166 
L 741.177587 80.909166 
z
" clip-path="url(#p9b1ef35480)" style="stroke: #000000; stroke-linejoin: miter"/>
   </g>
   <g id="patch_288">
    <path d="M 762.749277 89.920197 
L 771.684407 89.920197 
L 771.684407 80.985066 
L 762.749277 80.985066 
z
" clip-path="url(#p9b1ef35480)" style="stroke: #000000; stroke-linejoin: miter"/>
   </g>
   <g id="patch_289">
    <path d="M 784.457569 89.707695 
L 792.967695 89.707695 
L 792.967695 81.197569 
L 784.457569 81.197569 
z
" clip-path="url(#p9b1ef35480)" style="stroke: #000000; stroke-linejoin: miter"/>
   </g>
   <g id="patch_290">
    <path d="M 805.493032 90.168021 
L 814.923811 90.168021 
L 814.923811 80.737242 
L 805.493032 80.737242 
z
" clip-path="url(#p9b1ef35480)" style="stroke: #000000; stroke-linejoin: miter"/>
   </g>
   <g id="patch_291">
    <path d="M 54.733799 67.078833 
L 60.97778 67.078833 
L 60.97778 60.834851 
L 54.733799 60.834851 
z
" clip-path="url(#p9b1ef35480)" style="stroke: #000000; stroke-linejoin: miter"/>
   </g>
   <g id="patch_292">
    <path d="M 79.351579 63.956842 
L 79.351579 63.956842 
L 79.351579 63.956842 
L 79.351579 63.956842 
z
" clip-path="url(#p9b1ef35480)" style="stroke: #000000; stroke-linejoin: miter"/>
   </g>
   <g id="patch_293">
    <path d="M 100.847368 63.956842 
L 100.847368 63.956842 
L 100.847368 63.956842 
L 100.847368 63.956842 
z
" clip-path="url(#p9b1ef35480)" style="stroke: #000000; stroke-linejoin: miter"/>
   </g>
   <g id="patch_294">
    <path d="M 119.766158 66.533842 
L 124.920157 66.533842 
L 124.920157 61.379843 
L 119.766158 61.379843 
z
" clip-path="url(#p9b1ef35480)" style="stroke: #000000; stroke-linejoin: miter"/>
   </g>
   <g id="patch_295">
    <path d="M 140.213355 67.582434 
L 147.464539 67.582434 
L 147.464539 60.33125 
L 140.213355 60.33125 
z
" clip-path="url(#p9b1ef35480)" style="stroke: #000000; stroke-linejoin: miter"/>
   </g>
   <g id="patch_296">
    <path d="M 162.144252 67.147327 
L 168.525222 67.147327 
L 168.525222 60.766357 
L 162.144252 60.766357 
z
" clip-path="url(#p9b1ef35480)" style="stroke: #000000; stroke-linejoin: miter"/>
   </g>
   <g id="patch_297">
    <path d="M 182.113413 68.673956 
L 191.54764 68.673956 
L 191.54764 59.239729 
L 182.113413 59.239729 
z
" clip-path="url(#p9b1ef35480)" style="stroke: #000000; stroke-linejoin: miter"/>
   </g>
   <g id="patch_298">
    <path d="M 201.633117 70.650041 
L 215.019514 70.650041 
L 215.019514 57.263643 
L 201.633117 57.263643 
z
" clip-path="url(#p9b1ef35480)" style="stroke: #000000; stroke-linejoin: miter"/>
   </g>
   <g id="patch_299">
    <path d="M 222.590664 71.188284 
L 237.053547 71.188284 
L 237.053547 56.725401 
L 222.590664 56.725401 
z
" clip-path="url(#p9b1ef35480)" style="stroke: #000000; stroke-linejoin: miter"/>
   </g>
   <g id="patch_300">
    <path d="M 244.051167 71.22357 
L 258.584622 71.22357 
L 258.584622 56.690114 
L 244.051167 56.690114 
z
" clip-path="url(#p9b1ef35480)" style="stroke: #000000; stroke-linejoin: miter"/>
   </g>
   <g id="patch_301">
    <path d="M 265.548811 71.221716 
L 280.078558 71.221716 
L 280.078558 56.691969 
L 265.548811 56.691969 
z
" clip-path="url(#p9b1ef35480)" style="stroke: #000000; stroke-linejoin: miter"/>
   </g>
   <g id="patch_302">
    <path d="M 287.061745 71.204571 
L 301.557202 71.204571 
L 301.557202 56.709113 
L 287.061745 56.709113 
z
" clip-path="url(#p9b1ef35480)" style="stroke: #000000; stroke-linejoin: miter"/>
   </g>
   <g id="patch_303">
    <path d="M 308.533045 71.229061 
L 323.077482 71.229061 
L 323.077482 56.684624 
L 308.533045 56.684624 
z
" clip-path="url(#p9b1ef35480)" style="stroke: #000000; stroke-linejoin: miter"/>
   </g>
   <g id="patch_304">
    <path d="M 330.021822 71.236073 
L 344.580284 71.236073 
L 344.580284 56.677611 
L 330.021822 56.677611 
z
" clip-path="url(#p9b1ef35480)" style="stroke: #000000; stroke-linejoin: miter"/>
   </g>
   <g id="patch_305">
    <path d="M 351.524675 71.229009 
L 366.069009 71.229009 
L 366.069009 56.684675 
L 351.524675 56.684675 
z
" clip-path="url(#p9b1ef35480)" style="stroke: #000000; stroke-linejoin: miter"/>
   </g>
   <g id="patch_306">
    <path d="M 373.004508 71.244966 
L 387.580756 71.244966 
L 387.580756 56.668718 
L 373.004508 56.668718 
z
" clip-path="url(#p9b1ef35480)" style="stroke: #000000; stroke-linejoin: miter"/>
   </g>
   <g id="patch_307">
    <path d="M 394.535506 71.209757 
L 409.041336 71.209757 
L 409.041336 56.703927 
L 394.535506 56.703927 
z
" clip-path="url(#p9b1ef35480)" style="stroke: #000000; stroke-linejoin: miter"/>
   </g>
   <g id="patch_308">
    <path d="M 415.985211 71.255842 
L 430.58321 71.255842 
L 430.58321 56.657842 
L 415.985211 56.657842 
z
" clip-path="url(#p9b1ef35480)" style="stroke: #000000; stroke-linejoin: miter"/>
   </g>
   <g id="patch_309">
    <path d="M 437.477854 71.258989 
L 452.082146 71.258989 
L 452.082146 56.654696 
L 437.477854 56.654696 
z
" clip-path="url(#p9b1ef35480)" style="stroke: #000000; stroke-linejoin: miter"/>
   </g>
   <g id="patch_310">
    <path d="M 458.97805 71.254581 
L 473.573528 71.254581 
L 473.573528 56.659103 
L 458.97805 56.659103 
z
" clip-path="url(#p9b1ef35480)" style="stroke: #000000; stroke-linejoin: miter"/>
   </g>
   <g id="patch_311">
    <path d="M 480.445742 71.282679 
L 495.097416 71.282679 
L 495.097416 56.631005 
L 480.445742 56.631005 
z
" clip-path="url(#p9b1ef35480)" style="stroke: #000000; stroke-linejoin: miter"/>
   </g>
   <g id="patch_312">
    <path d="M 501.980535 71.243675 
L 516.554201 71.243675 
L 516.554201 56.670009 
L 501.980535 56.670009 
z
" clip-path="url(#p9b1ef35480)" style="stroke: #000000; stroke-linejoin: miter"/>
   </g>
   <g id="patch_313">
    <path d="M 523.392789 71.327211 
L 538.133527 71.327211 
L 538.133527 56.586473 
L 523.392789 56.586473 
z
" clip-path="url(#p9b1ef35480)" style="stroke: #000000; stroke-linejoin: miter"/>
   </g>
   <g id="patch_314">
    <path d="M 544.831904 71.383886 
L 559.685991 71.383886 
L 559.685991 56.529798 
L 544.831904 56.529798 
z
" clip-path="url(#p9b1ef35480)" style="stroke: #000000; stroke-linejoin: miter"/>
   </g>
   <g id="patch_315">
    <path d="M 566.403481 71.308098 
L 581.105993 71.308098 
L 581.105993 56.605586 
L 566.403481 56.605586 
z
" clip-path="url(#p9b1ef35480)" style="stroke: #000000; stroke-linejoin: miter"/>
   </g>
   <g id="patch_316">
    <path d="M 587.842551 71.364818 
L 602.658502 71.364818 
L 602.658502 56.548867 
L 587.842551 56.548867 
z
" clip-path="url(#p9b1ef35480)" style="stroke: #000000; stroke-linejoin: miter"/>
   </g>
   <g id="patch_317">
    <path d="M 609.273597 71.429561 
L 624.219035 71.429561 
L 624.219035 56.484123 
L 609.273597 56.484123 
z
" clip-path="url(#p9b1ef35480)" style="stroke: #000000; stroke-linejoin: miter"/>
   </g>
   <g id="patch_318">
    <path d="M 630.789077 71.40987 
L 645.695133 71.40987 
L 645.695133 56.503814 
L 630.789077 56.503814 
z
" clip-path="url(#p9b1ef35480)" style="stroke: #000000; stroke-linejoin: miter"/>
   </g>
   <g id="patch_319">
    <path d="M 652.245115 71.449622 
L 667.230675 71.449622 
L 667.230675 56.464062 
L 652.245115 56.464062 
z
" clip-path="url(#p9b1ef35480)" style="stroke: #000000; stroke-linejoin: miter"/>
   </g>
   <g id="patch_320">
    <path d="M 673.680177 71.510349 
L 688.787191 71.510349 
L 688.787191 56.403335 
L 673.680177 56.403335 
z
" clip-path="url(#p9b1ef35480)" style="stroke: #000000; stroke-linejoin: miter"/>
   </g>
   <g id="patch_321">
    <path d="M 695.147967 71.538349 
L 710.31098 71.538349 
L 710.31098 56.375336 
L 695.147967 56.375336 
z
" clip-path="url(#p9b1ef35480)" style="stroke: #000000; stroke-linejoin: miter"/>
   </g>
   <g id="patch_322">
    <path d="M 716.555423 71.626682 
L 731.895103 71.626682 
L 731.895103 56.287002 
L 716.555423 56.287002 
z
" clip-path="url(#p9b1ef35480)" style="stroke: #000000; stroke-linejoin: miter"/>
   </g>
   <g id="patch_323">
    <path d="M 737.988575 71.68932 
L 753.453531 71.68932 
L 753.453531 56.224364 
L 737.988575 56.224364 
z
" clip-path="url(#p9b1ef35480)" style="stroke: #000000; stroke-linejoin: miter"/>
   </g>
   <g id="patch_324">
    <path d="M 759.432177 71.741507 
L 775.001507 71.741507 
L 775.001507 56.172177 
L 759.432177 56.172177 
z
" clip-path="url(#p9b1ef35480)" style="stroke: #000000; stroke-linejoin: miter"/>
   </g>
   <g id="patch_325">
    <path d="M 780.906725 71.762749 
L 796.518538 71.762749 
L 796.518538 56.150936 
L 780.906725 56.150936 
z
" clip-path="url(#p9b1ef35480)" style="stroke: #000000; stroke-linejoin: miter"/>
   </g>
   <g id="patch_326">
    <path d="M 802.339563 71.8257 
L 818.077279 71.8257 
L 818.077279 56.087984 
L 802.339563 56.087984 
z
" clip-path="url(#p9b1ef35480)" style="stroke: #000000; stroke-linejoin: miter"/>
   </g>
   <g id="matplotlib.axis_1">
    <g id="xtick_1">
     <g id="line2d_1">
      <defs>
       <path id="m45d1897b0e" d="M 0 0 
L 0 3.5 
" style="stroke: #000000; stroke-width: 0.8"/>
      </defs>
      <g>
       <use xlink:href="#m45d1897b0e" x="57.855789" y="257.418947" style="stroke: #000000; stroke-width: 0.8"/>
      </g>
     </g>
     <g id="text_1">
      <!-- 1 -->
      <g transform="translate(54.845633 278.57051) scale(0.1 -0.1)">
       <defs>
        <path id="DejaVuSansMono-31" d="M 844 531 
L 1825 531 
L 1825 4097 
L 769 3859 
L 769 4434 
L 1819 4666 
L 2450 4666 
L 2450 531 
L 3419 531 
L 3419 0 
L 844 0 
L 844 531 
z
" transform="scale(0.015625)"/>
       </defs>
       <use xlink:href="#DejaVuSansMono-31"/>
      </g>
     </g>
    </g>
    <g id="xtick_2">
     <g id="line2d_2">
      <g>
       <use xlink:href="#m45d1897b0e" x="251.317895" y="257.418947" style="stroke: #000000; stroke-width: 0.8"/>
      </g>
     </g>
     <g id="text_2">
      <!-- 25 -->
      <g transform="translate(245.297582 278.57051) scale(0.1 -0.1)">
       <defs>
        <path id="DejaVuSansMono-32" d="M 1166 531 
L 3309 531 
L 3309 0 
L 475 0 
L 475 531 
Q 1059 1147 1496 1619 
Q 1934 2091 2100 2284 
Q 2413 2666 2522 2902 
Q 2631 3138 2631 3384 
Q 2631 3775 2401 3997 
Q 2172 4219 1772 4219 
Q 1488 4219 1175 4116 
Q 863 4013 513 3803 
L 513 4441 
Q 834 4594 1145 4672 
Q 1456 4750 1759 4750 
Q 2444 4750 2861 4386 
Q 3278 4022 3278 3431 
Q 3278 3131 3139 2831 
Q 3000 2531 2688 2169 
Q 2513 1966 2180 1606 
Q 1847 1247 1166 531 
z
" transform="scale(0.015625)"/>
        <path id="DejaVuSansMono-35" d="M 647 4666 
L 3009 4666 
L 3009 4134 
L 1222 4134 
L 1222 2988 
Q 1356 3038 1492 3061 
Q 1628 3084 1766 3084 
Q 2491 3084 2916 2656 
Q 3341 2228 3341 1497 
Q 3341 759 2895 334 
Q 2450 -91 1678 -91 
Q 1306 -91 998 -41 
Q 691 9 447 109 
L 447 750 
Q 734 594 1025 517 
Q 1316 441 1619 441 
Q 2141 441 2423 716 
Q 2706 991 2706 1497 
Q 2706 1997 2414 2275 
Q 2122 2553 1600 2553 
Q 1347 2553 1106 2495 
Q 866 2438 647 2322 
L 647 4666 
z
" transform="scale(0.015625)"/>
       </defs>
       <use xlink:href="#DejaVuSansMono-32"/>
       <use xlink:href="#DejaVuSansMono-35" x="60.205078"/>
      </g>
     </g>
    </g>
    <g id="xtick_3">
     <g id="line2d_3">
      <g>
       <use xlink:href="#m45d1897b0e" x="444.78" y="257.418947" style="stroke: #000000; stroke-width: 0.8"/>
      </g>
     </g>
     <g id="text_3">
      <!-- 50 -->
      <g transform="translate(438.759687 278.57051) scale(0.1 -0.1)">
       <defs>
        <path id="DejaVuSansMono-30" d="M 1509 2344 
Q 1509 2516 1629 2641 
Q 1750 2766 1919 2766 
Q 2094 2766 2219 2641 
Q 2344 2516 2344 2344 
Q 2344 2169 2220 2047 
Q 2097 1925 1919 1925 
Q 1744 1925 1626 2044 
Q 1509 2163 1509 2344 
z
M 1925 4250 
Q 1484 4250 1267 3775 
Q 1050 3300 1050 2328 
Q 1050 1359 1267 884 
Q 1484 409 1925 409 
Q 2369 409 2586 884 
Q 2803 1359 2803 2328 
Q 2803 3300 2586 3775 
Q 2369 4250 1925 4250 
z
M 1925 4750 
Q 2672 4750 3055 4137 
Q 3438 3525 3438 2328 
Q 3438 1134 3055 521 
Q 2672 -91 1925 -91 
Q 1178 -91 797 521 
Q 416 1134 416 2328 
Q 416 3525 797 4137 
Q 1178 4750 1925 4750 
z
" transform="scale(0.015625)"/>
       </defs>
       <use xlink:href="#DejaVuSansMono-35"/>
       <use xlink:href="#DejaVuSansMono-30" x="60.205078"/>
      </g>
     </g>
    </g>
    <g id="xtick_4">
     <g id="line2d_4">
      <g>
       <use xlink:href="#m45d1897b0e" x="638.242105" y="257.418947" style="stroke: #000000; stroke-width: 0.8"/>
      </g>
     </g>
     <g id="text_4">
      <!-- 75 -->
      <g transform="translate(632.221793 278.57051) scale(0.1 -0.1)">
       <defs>
        <path id="DejaVuSansMono-37" d="M 434 4666 
L 3372 4666 
L 3372 4397 
L 1703 0 
L 1044 0 
L 2669 4134 
L 434 4134 
L 434 4666 
z
" transform="scale(0.015625)"/>
       </defs>
       <use xlink:href="#DejaVuSansMono-37"/>
       <use xlink:href="#DejaVuSansMono-35" x="60.205078"/>
      </g>
     </g>
    </g>
    <g id="xtick_5">
     <g id="line2d_5">
      <g>
       <use xlink:href="#m45d1897b0e" x="810.208421" y="257.418947" style="stroke: #000000; stroke-width: 0.8"/>
      </g>
     </g>
     <g id="text_5">
      <!-- 100 -->
      <g transform="translate(801.177952 278.57051) scale(0.1 -0.1)">
       <use xlink:href="#DejaVuSansMono-31"/>
       <use xlink:href="#DejaVuSansMono-30" x="60.205078"/>
       <use xlink:href="#DejaVuSansMono-30" x="120.410156"/>
      </g>
     </g>
    </g>
   </g>
   <g id="matplotlib.axis_2">
    <g id="ytick_1">
     <g id="line2d_6">
      <defs>
       <path id="mde53ec8838" d="M 0 0 
L -3.5 0 
" style="stroke: #000000; stroke-width: 0.8"/>
      </defs>
      <g>
       <use xlink:href="#mde53ec8838" x="36.36" y="235.923158" style="stroke: #000000; stroke-width: 0.8"/>
      </g>
     </g>
     <g id="text_6">
      <!-- 2 -->
      <g transform="translate(16.839687 239.748939) scale(0.1 -0.1)">
       <use xlink:href="#DejaVuSansMono-32"/>
      </g>
     </g>
    </g>
    <g id="ytick_2">
     <g id="line2d_7">
      <g>
       <use xlink:href="#mde53ec8838" x="36.36" y="214.427368" style="stroke: #000000; stroke-width: 0.8"/>
      </g>
     </g>
     <g id="text_7">
      <!-- 3 -->
      <g transform="translate(16.839687 218.25315) scale(0.1 -0.1)">
       <defs>
        <path id="DejaVuSansMono-33" d="M 2425 2497 
Q 2884 2375 3128 2064 
Q 3372 1753 3372 1288 
Q 3372 644 2939 276 
Q 2506 -91 1741 -91 
Q 1419 -91 1084 -31 
Q 750 28 428 141 
L 428 769 
Q 747 603 1056 522 
Q 1366 441 1672 441 
Q 2191 441 2469 675 
Q 2747 909 2747 1350 
Q 2747 1756 2469 1995 
Q 2191 2234 1716 2234 
L 1234 2234 
L 1234 2753 
L 1716 2753 
Q 2150 2753 2394 2943 
Q 2638 3134 2638 3475 
Q 2638 3834 2411 4026 
Q 2184 4219 1766 4219 
Q 1488 4219 1191 4156 
Q 894 4094 569 3969 
L 569 4550 
Q 947 4650 1242 4700 
Q 1538 4750 1766 4750 
Q 2447 4750 2855 4408 
Q 3263 4066 3263 3500 
Q 3263 3116 3048 2859 
Q 2834 2603 2425 2497 
z
" transform="scale(0.015625)"/>
       </defs>
       <use xlink:href="#DejaVuSansMono-33"/>
      </g>
     </g>
    </g>
    <g id="ytick_3">
     <g id="line2d_8">
      <g>
       <use xlink:href="#mde53ec8838" x="36.36" y="192.931579" style="stroke: #000000; stroke-width: 0.8"/>
      </g>
     </g>
     <g id="text_8">
      <!-- 5 -->
      <g transform="translate(16.839687 196.75736) scale(0.1 -0.1)">
       <use xlink:href="#DejaVuSansMono-35"/>
      </g>
     </g>
    </g>
    <g id="ytick_4">
     <g id="line2d_9">
      <g>
       <use xlink:href="#mde53ec8838" x="36.36" y="171.435789" style="stroke: #000000; stroke-width: 0.8"/>
      </g>
     </g>
     <g id="text_9">
      <!-- 7 -->
      <g transform="translate(16.839687 175.261571) scale(0.1 -0.1)">
       <use xlink:href="#DejaVuSansMono-37"/>
      </g>
     </g>
    </g>
    <g id="ytick_5">
     <g id="line2d_10">
      <g>
       <use xlink:href="#mde53ec8838" x="36.36" y="149.94" style="stroke: #000000; stroke-width: 0.8"/>
      </g>
     </g>
     <g id="text_10">
      <!-- 11 -->
      <g transform="translate(10.819375 153.765781) scale(0.1 -0.1)">
       <use xlink:href="#DejaVuSansMono-31"/>
       <use xlink:href="#DejaVuSansMono-31" x="60.205078"/>
      </g>
     </g>
    </g>
    <g id="ytick_6">
     <g id="line2d_11">
      <g>
       <use xlink:href="#mde53ec8838" x="36.36" y="128.444211" style="stroke: #000000; stroke-width: 0.8"/>
      </g>
     </g>
     <g id="text_11">
      <!-- 13 -->
      <g transform="translate(10.819375 132.269992) scale(0.1 -0.1)">
       <use xlink:href="#DejaVuSansMono-31"/>
       <use xlink:href="#DejaVuSansMono-33" x="60.205078"/>
      </g>
     </g>
    </g>
    <g id="ytick_7">
     <g id="line2d_12">
      <g>
       <use xlink:href="#mde53ec8838" x="36.36" y="106.948421" style="stroke: #000000; stroke-width: 0.8"/>
      </g>
     </g>
     <g id="text_12">
      <!-- 17 -->
      <g transform="translate(10.819375 110.774202) scale(0.1 -0.1)">
       <use xlink:href="#DejaVuSansMono-31"/>
       <use xlink:href="#DejaVuSansMono-37" x="60.205078"/>
      </g>
     </g>
    </g>
    <g id="ytick_8">
     <g id="line2d_13">
      <g>
       <use xlink:href="#mde53ec8838" x="36.36" y="85.452632" style="stroke: #000000; stroke-width: 0.8"/>
      </g>
     </g>
     <g id="text_13">
      <!-- 19 -->
      <g transform="translate(10.819375 89.278413) scale(0.1 -0.1)">
       <defs>
        <path id="DejaVuSansMono-39" d="M 1863 2069 
Q 2266 2069 2495 2359 
Q 2725 2650 2725 3163 
Q 2725 3675 2495 3965 
Q 2266 4256 1863 4256 
Q 1444 4256 1231 3979 
Q 1019 3703 1019 3163 
Q 1019 2619 1230 2344 
Q 1441 2069 1863 2069 
z
M 738 97 
L 738 678 
Q 934 563 1156 502 
Q 1378 441 1619 441 
Q 2219 441 2526 892 
Q 2834 1344 2834 2222 
Q 2688 1909 2422 1742 
Q 2156 1575 1813 1575 
Q 1138 1575 767 1990 
Q 397 2406 397 3169 
Q 397 3922 776 4336 
Q 1156 4750 1850 4750 
Q 2663 4750 3041 4165 
Q 3419 3581 3419 2328 
Q 3419 1150 2964 529 
Q 2509 -91 1644 -91 
Q 1416 -91 1184 -42 
Q 953 6 738 97 
z
" transform="scale(0.015625)"/>
       </defs>
       <use xlink:href="#DejaVuSansMono-31"/>
       <use xlink:href="#DejaVuSansMono-39" x="60.205078"/>
      </g>
     </g>
    </g>
    <g id="ytick_9">
     <g id="line2d_14">
      <g>
       <use xlink:href="#mde53ec8838" x="36.36" y="63.956842" style="stroke: #000000; stroke-width: 0.8"/>
      </g>
     </g>
     <g id="text_14">
      <!--  -->
      <g transform="translate(16.839687 67.782623) scale(0.1 -0.1)">
       <defs>
        <path id="DejaVuSansMono-2119" d="M 506 4353 
L 506 313 
L 1106 313 
L 1106 4353 
L 506 4353 
z
M 1406 4353 
L 1406 2284 
L 2306 2284 
Q 2378 2284 2447 2291 
L 2447 4347 
Q 2378 4353 2306 4353 
L 1406 4353 
z
M 206 4666 
L 2166 4666 
Q 2913 4666 3297 4323 
Q 3681 3981 3681 3322 
Q 3681 2656 3297 2315 
Q 2913 1975 2163 1975 
L 1406 1975 
L 1406 0 
L 206 0 
L 206 4666 
z
M 2759 4281 
L 2759 2359 
Q 2941 2428 3075 2556 
Q 3353 2825 3353 3322 
Q 3353 3816 3078 4084 
Q 2947 4213 2759 4281 
z
" transform="scale(0.015625)"/>
       </defs>
       <use xlink:href="#DejaVuSansMono-2119"/>
      </g>
     </g>
    </g>
   </g>
   <g id="text_15">
    <!-- base : 12   |   emb : 64   |   heads : 4   |   depth : 3   |   lr : 0.0003   |   l2 : 0.0   |   dropout : 0.0 -->
    <g transform="translate(116.672969 40.311474) scale(0.1 -0.1)">
     <defs>
      <path id="DejaVuSansMono-62" d="M 2869 1747 
Q 2869 2416 2656 2756 
Q 2444 3097 2028 3097 
Q 1609 3097 1393 2755 
Q 1178 2413 1178 1747 
Q 1178 1084 1393 740 
Q 1609 397 2028 397 
Q 2444 397 2656 737 
Q 2869 1078 2869 1747 
z
M 1178 3053 
Q 1316 3309 1558 3446 
Q 1800 3584 2119 3584 
Q 2750 3584 3112 3098 
Q 3475 2613 3475 1759 
Q 3475 894 3111 401 
Q 2747 -91 2113 -91 
Q 1800 -91 1561 45 
Q 1322 181 1178 441 
L 1178 0 
L 603 0 
L 603 4863 
L 1178 4863 
L 1178 3053 
z
" transform="scale(0.015625)"/>
      <path id="DejaVuSansMono-61" d="M 2194 1759 
L 2003 1759 
Q 1500 1759 1245 1582 
Q 991 1406 991 1056 
Q 991 741 1181 566 
Q 1372 391 1709 391 
Q 2184 391 2456 720 
Q 2728 1050 2731 1631 
L 2731 1759 
L 2194 1759 
z
M 3309 1997 
L 3309 0 
L 2731 0 
L 2731 519 
Q 2547 206 2267 57 
Q 1988 -91 1588 -91 
Q 1053 -91 734 211 
Q 416 513 416 1019 
Q 416 1603 808 1906 
Q 1200 2209 1959 2209 
L 2731 2209 
L 2731 2300 
Q 2728 2719 2518 2908 
Q 2309 3097 1850 3097 
Q 1556 3097 1256 3012 
Q 956 2928 672 2766 
L 672 3341 
Q 991 3463 1283 3523 
Q 1575 3584 1850 3584 
Q 2284 3584 2592 3456 
Q 2900 3328 3091 3072 
Q 3209 2916 3259 2686 
Q 3309 2456 3309 1997 
z
" transform="scale(0.015625)"/>
      <path id="DejaVuSansMono-73" d="M 3041 3378 
L 3041 2816 
Q 2794 2959 2544 3031 
Q 2294 3103 2034 3103 
Q 1644 3103 1451 2976 
Q 1259 2850 1259 2591 
Q 1259 2356 1403 2240 
Q 1547 2125 2119 2016 
L 2350 1972 
Q 2778 1891 2998 1647 
Q 3219 1403 3219 1013 
Q 3219 494 2850 201 
Q 2481 -91 1825 -91 
Q 1566 -91 1281 -36 
Q 997 19 666 128 
L 666 722 
Q 988 556 1281 473 
Q 1575 391 1838 391 
Q 2219 391 2428 545 
Q 2638 700 2638 978 
Q 2638 1378 1872 1531 
L 1847 1538 
L 1631 1581 
Q 1134 1678 906 1908 
Q 678 2138 678 2534 
Q 678 3038 1018 3311 
Q 1359 3584 1991 3584 
Q 2272 3584 2531 3532 
Q 2791 3481 3041 3378 
z
" transform="scale(0.015625)"/>
      <path id="DejaVuSansMono-65" d="M 3475 1894 
L 3475 1613 
L 984 1613 
L 984 1594 
Q 984 1022 1282 709 
Q 1581 397 2125 397 
Q 2400 397 2700 484 
Q 3000 572 3341 750 
L 3341 178 
Q 3013 44 2708 -23 
Q 2403 -91 2119 -91 
Q 1303 -91 843 398 
Q 384 888 384 1747 
Q 384 2584 834 3084 
Q 1284 3584 2034 3584 
Q 2703 3584 3089 3131 
Q 3475 2678 3475 1894 
z
M 2900 2063 
Q 2888 2569 2661 2833 
Q 2434 3097 2009 3097 
Q 1594 3097 1325 2822 
Q 1056 2547 1006 2059 
L 2900 2063 
z
" transform="scale(0.015625)"/>
      <path id="DejaVuSansMono-20" transform="scale(0.015625)"/>
      <path id="DejaVuSansMono-3a" d="M 1528 3322 
L 2316 3322 
L 2316 2375 
L 1528 2375 
L 1528 3322 
z
M 1528 953 
L 2316 953 
L 2316 0 
L 1528 0 
L 1528 953 
z
" transform="scale(0.015625)"/>
      <path id="DejaVuSansMono-7c" d="M 2194 4891 
L 2194 -1509 
L 1656 -1509 
L 1656 4891 
L 2194 4891 
z
" transform="scale(0.015625)"/>
      <path id="DejaVuSansMono-6d" d="M 2113 3144 
Q 2219 3369 2383 3476 
Q 2547 3584 2778 3584 
Q 3200 3584 3373 3257 
Q 3547 2931 3547 2028 
L 3547 0 
L 3022 0 
L 3022 2003 
Q 3022 2744 2939 2923 
Q 2856 3103 2638 3103 
Q 2388 3103 2295 2911 
Q 2203 2719 2203 2003 
L 2203 0 
L 1678 0 
L 1678 2003 
Q 1678 2753 1589 2928 
Q 1500 3103 1269 3103 
Q 1041 3103 952 2911 
Q 863 2719 863 2003 
L 863 0 
L 341 0 
L 341 3500 
L 863 3500 
L 863 3200 
Q 966 3388 1120 3486 
Q 1275 3584 1472 3584 
Q 1709 3584 1867 3475 
Q 2025 3366 2113 3144 
z
" transform="scale(0.015625)"/>
      <path id="DejaVuSansMono-36" d="M 3097 4563 
L 3097 3981 
Q 2900 4097 2678 4158 
Q 2456 4219 2216 4219 
Q 1616 4219 1306 3767 
Q 997 3316 997 2438 
Q 1147 2750 1412 2917 
Q 1678 3084 2022 3084 
Q 2697 3084 3067 2670 
Q 3438 2256 3438 1497 
Q 3438 741 3056 325 
Q 2675 -91 1984 -91 
Q 1172 -91 794 492 
Q 416 1075 416 2328 
Q 416 3509 870 4129 
Q 1325 4750 2188 4750 
Q 2419 4750 2650 4701 
Q 2881 4653 3097 4563 
z
M 1972 2591 
Q 1569 2591 1337 2300 
Q 1106 2009 1106 1497 
Q 1106 984 1337 693 
Q 1569 403 1972 403 
Q 2391 403 2603 679 
Q 2816 956 2816 1497 
Q 2816 2041 2603 2316 
Q 2391 2591 1972 2591 
z
" transform="scale(0.015625)"/>
      <path id="DejaVuSansMono-34" d="M 2297 4091 
L 825 1625 
L 2297 1625 
L 2297 4091 
z
M 2194 4666 
L 2925 4666 
L 2925 1625 
L 3547 1625 
L 3547 1113 
L 2925 1113 
L 2925 0 
L 2297 0 
L 2297 1113 
L 319 1113 
L 319 1709 
L 2194 4666 
z
" transform="scale(0.015625)"/>
      <path id="DejaVuSansMono-68" d="M 3284 2169 
L 3284 0 
L 2706 0 
L 2706 2169 
Q 2706 2641 2540 2862 
Q 2375 3084 2022 3084 
Q 1619 3084 1401 2798 
Q 1184 2513 1184 1978 
L 1184 0 
L 609 0 
L 609 4863 
L 1184 4863 
L 1184 2975 
Q 1338 3275 1600 3429 
Q 1863 3584 2222 3584 
Q 2756 3584 3020 3232 
Q 3284 2881 3284 2169 
z
" transform="scale(0.015625)"/>
      <path id="DejaVuSansMono-64" d="M 2681 3053 
L 2681 4863 
L 3256 4863 
L 3256 0 
L 2681 0 
L 2681 441 
Q 2538 181 2298 45 
Q 2059 -91 1747 -91 
Q 1113 -91 748 401 
Q 384 894 384 1759 
Q 384 2613 750 3098 
Q 1116 3584 1747 3584 
Q 2063 3584 2303 3448 
Q 2544 3313 2681 3053 
z
M 991 1747 
Q 991 1078 1203 737 
Q 1416 397 1831 397 
Q 2247 397 2464 740 
Q 2681 1084 2681 1747 
Q 2681 2413 2464 2755 
Q 2247 3097 1831 3097 
Q 1416 3097 1203 2756 
Q 991 2416 991 1747 
z
" transform="scale(0.015625)"/>
      <path id="DejaVuSansMono-70" d="M 1172 441 
L 1172 -1331 
L 594 -1331 
L 594 3500 
L 1172 3500 
L 1172 3053 
Q 1316 3313 1555 3448 
Q 1794 3584 2106 3584 
Q 2741 3584 3102 3093 
Q 3463 2603 3463 1734 
Q 3463 881 3100 395 
Q 2738 -91 2106 -91 
Q 1788 -91 1548 45 
Q 1309 181 1172 441 
z
M 2859 1747 
Q 2859 2416 2648 2756 
Q 2438 3097 2022 3097 
Q 1603 3097 1387 2755 
Q 1172 2413 1172 1747 
Q 1172 1084 1387 740 
Q 1603 397 2022 397 
Q 2438 397 2648 737 
Q 2859 1078 2859 1747 
z
" transform="scale(0.015625)"/>
      <path id="DejaVuSansMono-74" d="M 1919 4494 
L 1919 3500 
L 3225 3500 
L 3225 3053 
L 1919 3053 
L 1919 1153 
Q 1919 766 2066 612 
Q 2213 459 2578 459 
L 3225 459 
L 3225 0 
L 2522 0 
Q 1875 0 1609 259 
Q 1344 519 1344 1153 
L 1344 3053 
L 409 3053 
L 409 3500 
L 1344 3500 
L 1344 4494 
L 1919 4494 
z
" transform="scale(0.015625)"/>
      <path id="DejaVuSansMono-6c" d="M 1997 1269 
Q 1997 881 2139 684 
Q 2281 488 2559 488 
L 3231 488 
L 3231 0 
L 2503 0 
Q 1988 0 1705 331 
Q 1422 663 1422 1269 
L 1422 4447 
L 500 4447 
L 500 4897 
L 1997 4897 
L 1997 1269 
z
" transform="scale(0.015625)"/>
      <path id="DejaVuSansMono-72" d="M 3609 2778 
Q 3425 2922 3234 2987 
Q 3044 3053 2816 3053 
Q 2278 3053 1993 2715 
Q 1709 2378 1709 1741 
L 1709 0 
L 1131 0 
L 1131 3500 
L 1709 3500 
L 1709 2816 
Q 1853 3188 2151 3386 
Q 2450 3584 2859 3584 
Q 3072 3584 3256 3531 
Q 3441 3478 3609 3366 
L 3609 2778 
z
" transform="scale(0.015625)"/>
      <path id="DejaVuSansMono-2e" d="M 1528 953 
L 2316 953 
L 2316 0 
L 1528 0 
L 1528 953 
z
" transform="scale(0.015625)"/>
      <path id="DejaVuSansMono-6f" d="M 1925 3097 
Q 1488 3097 1263 2756 
Q 1038 2416 1038 1747 
Q 1038 1081 1263 739 
Q 1488 397 1925 397 
Q 2366 397 2591 739 
Q 2816 1081 2816 1747 
Q 2816 2416 2591 2756 
Q 2366 3097 1925 3097 
z
M 1925 3584 
Q 2653 3584 3039 3112 
Q 3425 2641 3425 1747 
Q 3425 850 3040 379 
Q 2656 -91 1925 -91 
Q 1197 -91 812 379 
Q 428 850 428 1747 
Q 428 2641 812 3112 
Q 1197 3584 1925 3584 
z
" transform="scale(0.015625)"/>
      <path id="DejaVuSansMono-75" d="M 609 1325 
L 609 3494 
L 1184 3494 
L 1184 1325 
Q 1184 853 1351 631 
Q 1519 409 1869 409 
Q 2275 409 2490 695 
Q 2706 981 2706 1516 
L 2706 3494 
L 3284 3494 
L 3284 0 
L 2706 0 
L 2706 525 
Q 2553 222 2289 65 
Q 2025 -91 1672 -91 
Q 1134 -91 871 261 
Q 609 613 609 1325 
z
" transform="scale(0.015625)"/>
     </defs>
     <use xlink:href="#DejaVuSansMono-62"/>
     <use xlink:href="#DejaVuSansMono-61" x="60.205078"/>
     <use xlink:href="#DejaVuSansMono-73" x="120.410156"/>
     <use xlink:href="#DejaVuSansMono-65" x="180.615234"/>
     <use xlink:href="#DejaVuSansMono-20" x="240.820312"/>
     <use xlink:href="#DejaVuSansMono-3a" x="301.025391"/>
     <use xlink:href="#DejaVuSansMono-20" x="361.230469"/>
     <use xlink:href="#DejaVuSansMono-31" x="421.435547"/>
     <use xlink:href="#DejaVuSansMono-32" x="481.640625"/>
     <use xlink:href="#DejaVuSansMono-20" x="541.845703"/>
     <use xlink:href="#DejaVuSansMono-20" x="602.050781"/>
     <use xlink:href="#DejaVuSansMono-20" x="662.255859"/>
     <use xlink:href="#DejaVuSansMono-7c" x="722.460938"/>
     <use xlink:href="#DejaVuSansMono-20" x="782.666016"/>
     <use xlink:href="#DejaVuSansMono-20" x="842.871094"/>
     <use xlink:href="#DejaVuSansMono-20" x="903.076172"/>
     <use xlink:href="#DejaVuSansMono-65" x="963.28125"/>
     <use xlink:href="#DejaVuSansMono-6d" x="1023.486328"/>
     <use xlink:href="#DejaVuSansMono-62" x="1083.691406"/>
     <use xlink:href="#DejaVuSansMono-20" x="1143.896484"/>
     <use xlink:href="#DejaVuSansMono-3a" x="1204.101562"/>
     <use xlink:href="#DejaVuSansMono-20" x="1264.306641"/>
     <use xlink:href="#DejaVuSansMono-36" x="1324.511719"/>
     <use xlink:href="#DejaVuSansMono-34" x="1384.716797"/>
     <use xlink:href="#DejaVuSansMono-20" x="1444.921875"/>
     <use xlink:href="#DejaVuSansMono-20" x="1505.126953"/>
     <use xlink:href="#DejaVuSansMono-20" x="1565.332031"/>
     <use xlink:href="#DejaVuSansMono-7c" x="1625.537109"/>
     <use xlink:href="#DejaVuSansMono-20" x="1685.742188"/>
     <use xlink:href="#DejaVuSansMono-20" x="1745.947266"/>
     <use xlink:href="#DejaVuSansMono-20" x="1806.152344"/>
     <use xlink:href="#DejaVuSansMono-68" x="1866.357422"/>
     <use xlink:href="#DejaVuSansMono-65" x="1926.5625"/>
     <use xlink:href="#DejaVuSansMono-61" x="1986.767578"/>
     <use xlink:href="#DejaVuSansMono-64" x="2046.972656"/>
     <use xlink:href="#DejaVuSansMono-73" x="2107.177734"/>
     <use xlink:href="#DejaVuSansMono-20" x="2167.382812"/>
     <use xlink:href="#DejaVuSansMono-3a" x="2227.587891"/>
     <use xlink:href="#DejaVuSansMono-20" x="2287.792969"/>
     <use xlink:href="#DejaVuSansMono-34" x="2347.998047"/>
     <use xlink:href="#DejaVuSansMono-20" x="2408.203125"/>
     <use xlink:href="#DejaVuSansMono-20" x="2468.408203"/>
     <use xlink:href="#DejaVuSansMono-20" x="2528.613281"/>
     <use xlink:href="#DejaVuSansMono-7c" x="2588.818359"/>
     <use xlink:href="#DejaVuSansMono-20" x="2649.023438"/>
     <use xlink:href="#DejaVuSansMono-20" x="2709.228516"/>
     <use xlink:href="#DejaVuSansMono-20" x="2769.433594"/>
     <use xlink:href="#DejaVuSansMono-64" x="2829.638672"/>
     <use xlink:href="#DejaVuSansMono-65" x="2889.84375"/>
     <use xlink:href="#DejaVuSansMono-70" x="2950.048828"/>
     <use xlink:href="#DejaVuSansMono-74" x="3010.253906"/>
     <use xlink:href="#DejaVuSansMono-68" x="3070.458984"/>
     <use xlink:href="#DejaVuSansMono-20" x="3130.664062"/>
     <use xlink:href="#DejaVuSansMono-3a" x="3190.869141"/>
     <use xlink:href="#DejaVuSansMono-20" x="3251.074219"/>
     <use xlink:href="#DejaVuSansMono-33" x="3311.279297"/>
     <use xlink:href="#DejaVuSansMono-20" x="3371.484375"/>
     <use xlink:href="#DejaVuSansMono-20" x="3431.689453"/>
     <use xlink:href="#DejaVuSansMono-20" x="3491.894531"/>
     <use xlink:href="#DejaVuSansMono-7c" x="3552.099609"/>
     <use xlink:href="#DejaVuSansMono-20" x="3612.304688"/>
     <use xlink:href="#DejaVuSansMono-20" x="3672.509766"/>
     <use xlink:href="#DejaVuSansMono-20" x="3732.714844"/>
     <use xlink:href="#DejaVuSansMono-6c" x="3792.919922"/>
     <use xlink:href="#DejaVuSansMono-72" x="3853.125"/>
     <use xlink:href="#DejaVuSansMono-20" x="3913.330078"/>
     <use xlink:href="#DejaVuSansMono-3a" x="3973.535156"/>
     <use xlink:href="#DejaVuSansMono-20" x="4033.740234"/>
     <use xlink:href="#DejaVuSansMono-30" x="4093.945312"/>
     <use xlink:href="#DejaVuSansMono-2e" x="4154.150391"/>
     <use xlink:href="#DejaVuSansMono-30" x="4214.355469"/>
     <use xlink:href="#DejaVuSansMono-30" x="4274.560547"/>
     <use xlink:href="#DejaVuSansMono-30" x="4334.765625"/>
     <use xlink:href="#DejaVuSansMono-33" x="4394.970703"/>
     <use xlink:href="#DejaVuSansMono-20" x="4455.175781"/>
     <use xlink:href="#DejaVuSansMono-20" x="4515.380859"/>
     <use xlink:href="#DejaVuSansMono-20" x="4575.585938"/>
     <use xlink:href="#DejaVuSansMono-7c" x="4635.791016"/>
     <use xlink:href="#DejaVuSansMono-20" x="4695.996094"/>
     <use xlink:href="#DejaVuSansMono-20" x="4756.201172"/>
     <use xlink:href="#DejaVuSansMono-20" x="4816.40625"/>
     <use xlink:href="#DejaVuSansMono-6c" x="4876.611328"/>
     <use xlink:href="#DejaVuSansMono-32" x="4936.816406"/>
     <use xlink:href="#DejaVuSansMono-20" x="4997.021484"/>
     <use xlink:href="#DejaVuSansMono-3a" x="5057.226562"/>
     <use xlink:href="#DejaVuSansMono-20" x="5117.431641"/>
     <use xlink:href="#DejaVuSansMono-30" x="5177.636719"/>
     <use xlink:href="#DejaVuSansMono-2e" x="5237.841797"/>
     <use xlink:href="#DejaVuSansMono-30" x="5298.046875"/>
     <use xlink:href="#DejaVuSansMono-20" x="5358.251953"/>
     <use xlink:href="#DejaVuSansMono-20" x="5418.457031"/>
     <use xlink:href="#DejaVuSansMono-20" x="5478.662109"/>
     <use xlink:href="#DejaVuSansMono-7c" x="5538.867188"/>
     <use xlink:href="#DejaVuSansMono-20" x="5599.072266"/>
     <use xlink:href="#DejaVuSansMono-20" x="5659.277344"/>
     <use xlink:href="#DejaVuSansMono-20" x="5719.482422"/>
     <use xlink:href="#DejaVuSansMono-64" x="5779.6875"/>
     <use xlink:href="#DejaVuSansMono-72" x="5839.892578"/>
     <use xlink:href="#DejaVuSansMono-6f" x="5900.097656"/>
     <use xlink:href="#DejaVuSansMono-70" x="5960.302734"/>
     <use xlink:href="#DejaVuSansMono-6f" x="6020.507812"/>
     <use xlink:href="#DejaVuSansMono-75" x="6080.712891"/>
     <use xlink:href="#DejaVuSansMono-74" x="6140.917969"/>
     <use xlink:href="#DejaVuSansMono-20" x="6201.123047"/>
     <use xlink:href="#DejaVuSansMono-3a" x="6261.328125"/>
     <use xlink:href="#DejaVuSansMono-20" x="6321.533203"/>
     <use xlink:href="#DejaVuSansMono-30" x="6381.738281"/>
     <use xlink:href="#DejaVuSansMono-2e" x="6441.943359"/>
     <use xlink:href="#DejaVuSansMono-30" x="6502.148438"/>
    </g>
   </g>
   <g id="text_16">
    <!-- train f1 -->
    <g transform="translate(833.783898 125.85875) rotate(-270) scale(0.1 -0.1)">
     <defs>
      <path id="DejaVuSansMono-69" d="M 800 3500 
L 2272 3500 
L 2272 447 
L 3413 447 
L 3413 0 
L 556 0 
L 556 447 
L 1697 447 
L 1697 3053 
L 800 3053 
L 800 3500 
z
M 1697 4863 
L 2272 4863 
L 2272 4134 
L 1697 4134 
L 1697 4863 
z
" transform="scale(0.015625)"/>
      <path id="DejaVuSansMono-6e" d="M 3284 2169 
L 3284 0 
L 2706 0 
L 2706 2169 
Q 2706 2641 2540 2862 
Q 2375 3084 2022 3084 
Q 1619 3084 1401 2798 
Q 1184 2513 1184 1978 
L 1184 0 
L 609 0 
L 609 3500 
L 1184 3500 
L 1184 2975 
Q 1338 3275 1600 3429 
Q 1863 3584 2222 3584 
Q 2756 3584 3020 3232 
Q 3284 2881 3284 2169 
z
" transform="scale(0.015625)"/>
      <path id="DejaVuSansMono-66" d="M 3322 4863 
L 3322 4384 
L 2669 4384 
Q 2359 4384 2239 4257 
Q 2119 4131 2119 3809 
L 2119 3500 
L 3322 3500 
L 3322 3053 
L 2119 3053 
L 2119 0 
L 1544 0 
L 1544 3053 
L 609 3053 
L 609 3500 
L 1544 3500 
L 1544 3744 
Q 1544 4319 1808 4591 
Q 2072 4863 2631 4863 
L 3322 4863 
z
" transform="scale(0.015625)"/>
     </defs>
     <use xlink:href="#DejaVuSansMono-74"/>
     <use xlink:href="#DejaVuSansMono-72" x="60.205078"/>
     <use xlink:href="#DejaVuSansMono-61" x="120.410156"/>
     <use xlink:href="#DejaVuSansMono-69" x="180.615234"/>
     <use xlink:href="#DejaVuSansMono-6e" x="240.820312"/>
     <use xlink:href="#DejaVuSansMono-20" x="301.025391"/>
     <use xlink:href="#DejaVuSansMono-66" x="361.230469"/>
     <use xlink:href="#DejaVuSansMono-31" x="421.435547"/>
    </g>
   </g>
  </g>
 </g>
 <defs>
  <clipPath id="p9b1ef35480">
   <rect x="36.36" y="20.965263" width="816.84" height="236.453684"/>
  </clipPath>
 </defs>
</svg>
