<?xml version="1.0" encoding="utf-8" standalone="no"?>
<!DOCTYPE svg PUBLIC "-//W3C//DTD SVG 1.1//EN"
  "http://www.w3.org/Graphics/SVG/1.1/DTD/svg11.dtd">
<svg xmlns:xlink="http://www.w3.org/1999/xlink" width="864pt" height="432pt" viewBox="0 0 864 432" xmlns="http://www.w3.org/2000/svg" version="1.1">
 <metadata>
  <rdf:RDF xmlns:dc="http://purl.org/dc/elements/1.1/" xmlns:cc="http://creativecommons.org/ns#" xmlns:rdf="http://www.w3.org/1999/02/22-rdf-syntax-ns#">
   <cc:Work>
    <dc:type rdf:resource="http://purl.org/dc/dcmitype/StillImage"/>
    <dc:date>2024-09-16T18:10:58.142063</dc:date>
    <dc:format>image/svg+xml</dc:format>
    <dc:creator>
     <cc:Agent>
      <dc:title>Matplotlib v3.9.2, https://matplotlib.org/</dc:title>
     </cc:Agent>
    </dc:creator>
   </cc:Work>
  </rdf:RDF>
 </metadata>
 <defs>
  <style type="text/css">*{stroke-linejoin: round; stroke-linecap: butt}</style>
 </defs>
 <g id="figure_1">
  <g id="patch_1">
   <path d="M 0 432 
L 864 432 
L 864 0 
L 0 0 
z
" style="fill: #ffffff"/>
  </g>
  <g id="axes_1">
   <g id="patch_2">
    <path d="M 35.89 404.12 
L 853.2 404.12 
L 853.2 11.787727 
L 35.89 11.787727 
z
" style="fill: #ffffff"/>
   </g>
   <g id="matplotlib.axis_1">
    <g id="xtick_1">
     <g id="line2d_1">
      <defs>
       <path id="m2c8476f708" d="M 0 0 
L 0 3.5 
" style="stroke: #000000; stroke-width: 0.8"/>
      </defs>
      <g>
       <use xlink:href="#m2c8476f708" x="198.33467" y="404.12" style="stroke: #000000; stroke-width: 0.8"/>
      </g>
     </g>
     <g id="text_1">
      <!-- 1000 -->
      <g transform="translate(186.294045 418.771563) scale(0.1 -0.1)">
       <defs>
        <path id="DejaVuSansMono-31" d="M 844 531 
L 1825 531 
L 1825 4097 
L 769 3859 
L 769 4434 
L 1819 4666 
L 2450 4666 
L 2450 531 
L 3419 531 
L 3419 0 
L 844 0 
L 844 531 
z
" transform="scale(0.015625)"/>
        <path id="DejaVuSansMono-30" d="M 1509 2344 
Q 1509 2516 1629 2641 
Q 1750 2766 1919 2766 
Q 2094 2766 2219 2641 
Q 2344 2516 2344 2344 
Q 2344 2169 2220 2047 
Q 2097 1925 1919 1925 
Q 1744 1925 1626 2044 
Q 1509 2163 1509 2344 
z
M 1925 4250 
Q 1484 4250 1267 3775 
Q 1050 3300 1050 2328 
Q 1050 1359 1267 884 
Q 1484 409 1925 409 
Q 2369 409 2586 884 
Q 2803 1359 2803 2328 
Q 2803 3300 2586 3775 
Q 2369 4250 1925 4250 
z
M 1925 4750 
Q 2672 4750 3055 4137 
Q 3438 3525 3438 2328 
Q 3438 1134 3055 521 
Q 2672 -91 1925 -91 
Q 1178 -91 797 521 
Q 416 1134 416 2328 
Q 416 3525 797 4137 
Q 1178 4750 1925 4750 
z
" transform="scale(0.015625)"/>
       </defs>
       <use xlink:href="#DejaVuSansMono-31"/>
       <use xlink:href="#DejaVuSansMono-30" x="60.205078"/>
       <use xlink:href="#DejaVuSansMono-30" x="120.410156"/>
       <use xlink:href="#DejaVuSansMono-30" x="180.615234"/>
      </g>
     </g>
    </g>
    <g id="xtick_2">
     <g id="line2d_2">
      <g>
       <use xlink:href="#m2c8476f708" x="362.420195" y="404.12" style="stroke: #000000; stroke-width: 0.8"/>
      </g>
     </g>
     <g id="text_2">
      <!-- 2000 -->
      <g transform="translate(350.37957 418.771563) scale(0.1 -0.1)">
       <defs>
        <path id="DejaVuSansMono-32" d="M 1166 531 
L 3309 531 
L 3309 0 
L 475 0 
L 475 531 
Q 1059 1147 1496 1619 
Q 1934 2091 2100 2284 
Q 2413 2666 2522 2902 
Q 2631 3138 2631 3384 
Q 2631 3775 2401 3997 
Q 2172 4219 1772 4219 
Q 1488 4219 1175 4116 
Q 863 4013 513 3803 
L 513 4441 
Q 834 4594 1145 4672 
Q 1456 4750 1759 4750 
Q 2444 4750 2861 4386 
Q 3278 4022 3278 3431 
Q 3278 3131 3139 2831 
Q 3000 2531 2688 2169 
Q 2513 1966 2180 1606 
Q 1847 1247 1166 531 
z
" transform="scale(0.015625)"/>
       </defs>
       <use xlink:href="#DejaVuSansMono-32"/>
       <use xlink:href="#DejaVuSansMono-30" x="60.205078"/>
       <use xlink:href="#DejaVuSansMono-30" x="120.410156"/>
       <use xlink:href="#DejaVuSansMono-30" x="180.615234"/>
      </g>
     </g>
    </g>
    <g id="xtick_3">
     <g id="line2d_3">
      <g>
       <use xlink:href="#m2c8476f708" x="526.50572" y="404.12" style="stroke: #000000; stroke-width: 0.8"/>
      </g>
     </g>
     <g id="text_3">
      <!-- 3000 -->
      <g transform="translate(514.465095 418.771563) scale(0.1 -0.1)">
       <defs>
        <path id="DejaVuSansMono-33" d="M 2425 2497 
Q 2884 2375 3128 2064 
Q 3372 1753 3372 1288 
Q 3372 644 2939 276 
Q 2506 -91 1741 -91 
Q 1419 -91 1084 -31 
Q 750 28 428 141 
L 428 769 
Q 747 603 1056 522 
Q 1366 441 1672 441 
Q 2191 441 2469 675 
Q 2747 909 2747 1350 
Q 2747 1756 2469 1995 
Q 2191 2234 1716 2234 
L 1234 2234 
L 1234 2753 
L 1716 2753 
Q 2150 2753 2394 2943 
Q 2638 3134 2638 3475 
Q 2638 3834 2411 4026 
Q 2184 4219 1766 4219 
Q 1488 4219 1191 4156 
Q 894 4094 569 3969 
L 569 4550 
Q 947 4650 1242 4700 
Q 1538 4750 1766 4750 
Q 2447 4750 2855 4408 
Q 3263 4066 3263 3500 
Q 3263 3116 3048 2859 
Q 2834 2603 2425 2497 
z
" transform="scale(0.015625)"/>
       </defs>
       <use xlink:href="#DejaVuSansMono-33"/>
       <use xlink:href="#DejaVuSansMono-30" x="60.205078"/>
       <use xlink:href="#DejaVuSansMono-30" x="120.410156"/>
       <use xlink:href="#DejaVuSansMono-30" x="180.615234"/>
      </g>
     </g>
    </g>
    <g id="xtick_4">
     <g id="line2d_4">
      <g>
       <use xlink:href="#m2c8476f708" x="690.591245" y="404.12" style="stroke: #000000; stroke-width: 0.8"/>
      </g>
     </g>
     <g id="text_4">
      <!-- 4000 -->
      <g transform="translate(678.55062 418.771563) scale(0.1 -0.1)">
       <defs>
        <path id="DejaVuSansMono-34" d="M 2297 4091 
L 825 1625 
L 2297 1625 
L 2297 4091 
z
M 2194 4666 
L 2925 4666 
L 2925 1625 
L 3547 1625 
L 3547 1113 
L 2925 1113 
L 2925 0 
L 2297 0 
L 2297 1113 
L 319 1113 
L 319 1709 
L 2194 4666 
z
" transform="scale(0.015625)"/>
       </defs>
       <use xlink:href="#DejaVuSansMono-34"/>
       <use xlink:href="#DejaVuSansMono-30" x="60.205078"/>
       <use xlink:href="#DejaVuSansMono-30" x="120.410156"/>
       <use xlink:href="#DejaVuSansMono-30" x="180.615234"/>
      </g>
     </g>
    </g>
   </g>
   <g id="matplotlib.axis_2">
    <g id="ytick_1">
     <g id="line2d_5">
      <defs>
       <path id="m0dc9b8afb9" d="M 0 0 
L -3.5 0 
" style="stroke: #000000; stroke-width: 0.8"/>
      </defs>
      <g>
       <use xlink:href="#m0dc9b8afb9" x="35.89" y="386.286715" style="stroke: #000000; stroke-width: 0.8"/>
      </g>
     </g>
     <g id="text_5">
      <!-- 0.0 -->
      <g transform="translate(10.829063 390.112496) scale(0.1 -0.1)">
       <defs>
        <path id="DejaVuSansMono-2e" d="M 1528 953 
L 2316 953 
L 2316 0 
L 1528 0 
L 1528 953 
z
" transform="scale(0.015625)"/>
       </defs>
       <use xlink:href="#DejaVuSansMono-30"/>
       <use xlink:href="#DejaVuSansMono-2e" x="60.205078"/>
       <use xlink:href="#DejaVuSansMono-30" x="120.410156"/>
      </g>
     </g>
    </g>
    <g id="ytick_2">
     <g id="line2d_6">
      <g>
       <use xlink:href="#m0dc9b8afb9" x="35.89" y="312.088047" style="stroke: #000000; stroke-width: 0.8"/>
      </g>
     </g>
     <g id="text_6">
      <!-- 0.2 -->
      <g transform="translate(10.829063 315.913828) scale(0.1 -0.1)">
       <use xlink:href="#DejaVuSansMono-30"/>
       <use xlink:href="#DejaVuSansMono-2e" x="60.205078"/>
       <use xlink:href="#DejaVuSansMono-32" x="120.410156"/>
      </g>
     </g>
    </g>
    <g id="ytick_3">
     <g id="line2d_7">
      <g>
       <use xlink:href="#m0dc9b8afb9" x="35.89" y="237.889379" style="stroke: #000000; stroke-width: 0.8"/>
      </g>
     </g>
     <g id="text_7">
      <!-- 0.4 -->
      <g transform="translate(10.829063 241.71516) scale(0.1 -0.1)">
       <use xlink:href="#DejaVuSansMono-30"/>
       <use xlink:href="#DejaVuSansMono-2e" x="60.205078"/>
       <use xlink:href="#DejaVuSansMono-34" x="120.410156"/>
      </g>
     </g>
    </g>
    <g id="ytick_4">
     <g id="line2d_8">
      <g>
       <use xlink:href="#m0dc9b8afb9" x="35.89" y="163.690711" style="stroke: #000000; stroke-width: 0.8"/>
      </g>
     </g>
     <g id="text_8">
      <!-- 0.6 -->
      <g transform="translate(10.829063 167.516492) scale(0.1 -0.1)">
       <defs>
        <path id="DejaVuSansMono-36" d="M 3097 4563 
L 3097 3981 
Q 2900 4097 2678 4158 
Q 2456 4219 2216 4219 
Q 1616 4219 1306 3767 
Q 997 3316 997 2438 
Q 1147 2750 1412 2917 
Q 1678 3084 2022 3084 
Q 2697 3084 3067 2670 
Q 3438 2256 3438 1497 
Q 3438 741 3056 325 
Q 2675 -91 1984 -91 
Q 1172 -91 794 492 
Q 416 1075 416 2328 
Q 416 3509 870 4129 
Q 1325 4750 2188 4750 
Q 2419 4750 2650 4701 
Q 2881 4653 3097 4563 
z
M 1972 2591 
Q 1569 2591 1337 2300 
Q 1106 2009 1106 1497 
Q 1106 984 1337 693 
Q 1569 403 1972 403 
Q 2391 403 2603 679 
Q 2816 956 2816 1497 
Q 2816 2041 2603 2316 
Q 2391 2591 1972 2591 
z
" transform="scale(0.015625)"/>
       </defs>
       <use xlink:href="#DejaVuSansMono-30"/>
       <use xlink:href="#DejaVuSansMono-2e" x="60.205078"/>
       <use xlink:href="#DejaVuSansMono-36" x="120.410156"/>
      </g>
     </g>
    </g>
    <g id="ytick_5">
     <g id="line2d_9">
      <g>
       <use xlink:href="#m0dc9b8afb9" x="35.89" y="89.492043" style="stroke: #000000; stroke-width: 0.8"/>
      </g>
     </g>
     <g id="text_9">
      <!-- 0.8 -->
      <g transform="translate(10.829063 93.317824) scale(0.1 -0.1)">
       <defs>
        <path id="DejaVuSansMono-38" d="M 1925 2216 
Q 1503 2216 1273 1980 
Q 1044 1744 1044 1313 
Q 1044 881 1276 642 
Q 1509 403 1925 403 
Q 2350 403 2579 639 
Q 2809 875 2809 1313 
Q 2809 1741 2576 1978 
Q 2344 2216 1925 2216 
z
M 1375 2478 
Q 972 2581 745 2862 
Q 519 3144 519 3541 
Q 519 4097 897 4423 
Q 1275 4750 1925 4750 
Q 2578 4750 2956 4423 
Q 3334 4097 3334 3541 
Q 3334 3144 3107 2862 
Q 2881 2581 2478 2478 
Q 2947 2375 3195 2062 
Q 3444 1750 3444 1253 
Q 3444 622 3041 265 
Q 2638 -91 1925 -91 
Q 1213 -91 811 264 
Q 409 619 409 1247 
Q 409 1747 657 2061 
Q 906 2375 1375 2478 
z
M 1147 3481 
Q 1147 3106 1347 2909 
Q 1547 2713 1925 2713 
Q 2306 2713 2506 2909 
Q 2706 3106 2706 3481 
Q 2706 3863 2507 4063 
Q 2309 4263 1925 4263 
Q 1547 4263 1347 4061 
Q 1147 3859 1147 3481 
z
" transform="scale(0.015625)"/>
       </defs>
       <use xlink:href="#DejaVuSansMono-30"/>
       <use xlink:href="#DejaVuSansMono-2e" x="60.205078"/>
       <use xlink:href="#DejaVuSansMono-38" x="120.410156"/>
      </g>
     </g>
    </g>
    <g id="ytick_6">
     <g id="line2d_10">
      <g>
       <use xlink:href="#m0dc9b8afb9" x="35.89" y="15.293375" style="stroke: #000000; stroke-width: 0.8"/>
      </g>
     </g>
     <g id="text_10">
      <!-- 1.0 -->
      <g transform="translate(10.829063 19.119156) scale(0.1 -0.1)">
       <use xlink:href="#DejaVuSansMono-31"/>
       <use xlink:href="#DejaVuSansMono-2e" x="60.205078"/>
       <use xlink:href="#DejaVuSansMono-30" x="120.410156"/>
      </g>
     </g>
    </g>
   </g>
   <g id="line2d_11">
    <path d="M 35.725914 343.006508 
L 36.710428 378.026636 
L 36.874513 377.736946 
L 37.038599 382.882715 
L 37.36677 383.746652 
L 37.530855 385.100642 
L 37.694941 385.401042 
L 37.859026 385.401042 
L 38.023112 385.697837 
L 38.187197 385.697837 
L 38.351283 380.366196 
L 38.515368 380.955074 
L 38.679454 380.955074 
L 38.843539 376.634645 
L 39.663967 376.634645 
L 39.828053 376.334246 
L 39.992138 381.371447 
L 40.320309 381.371447 
L 40.484395 379.805267 
L 40.812566 379.805267 
L 41.140737 370.571979 
L 41.304822 370.571979 
L 41.468908 362.888513 
L 41.632993 363.182953 
L 41.961164 363.182953 
L 42.12525 369.069562 
L 42.453421 369.069562 
L 42.781592 378.30285 
L 42.945678 378.30285 
L 43.109763 385.986315 
L 43.930191 385.986315 
L 44.094276 378.390447 
L 44.258362 378.098326 
L 44.586533 378.098326 
L 44.750618 378.398725 
L 45.571046 378.398725 
L 45.735131 385.994594 
L 45.899217 386.286715 
L 46.227388 386.286715 
L 46.391474 381.085873 
L 47.868243 381.085873 
L 48.032329 378.148238 
L 48.196414 378.148238 
L 48.3605 372.65204 
L 49.345013 372.65204 
L 49.509099 364.338025 
L 49.673184 372.476502 
L 49.83727 372.476502 
L 50.001355 370.564975 
L 50.657697 370.564975 
L 50.821783 370.266989 
L 50.985868 370.266989 
L 51.149954 378.581005 
L 51.478125 378.581005 
L 51.64221 385.988728 
L 52.298552 385.988728 
L 52.462638 386.286715 
L 54.267579 386.286715 
L 54.431664 385.410353 
L 55.908434 385.410353 
L 56.07252 386.286715 
L 60.666914 386.286715 
L 60.831 385.996876 
L 61.651427 385.996876 
L 61.815513 377.779969 
L 62.30777 377.779969 
L 62.471855 378.069807 
L 62.635941 375.987038 
L 63.292283 375.987038 
L 63.456368 384.203945 
L 63.620454 384.203945 
L 63.784539 383.617395 
L 64.11271 383.617395 
L 64.276796 385.700164 
L 65.261309 385.700164 
L 65.425394 386.286715 
L 68.543019 386.286715 
L 68.707105 383.960738 
L 70.183875 383.960738 
L 70.34796 386.286715 
L 73.793756 386.286715 
L 73.957842 385.985094 
L 75.434612 385.985094 
L 75.598697 386.286715 
L 78.05998 386.286715 
L 78.224065 384.193336 
L 79.700835 384.193336 
L 79.864921 386.286715 
L 80.521263 386.286715 
L 80.685348 380.2224 
L 82.162118 380.2224 
L 82.326204 386.286715 
L 82.490289 381.288877 
L 83.967059 381.288877 
L 84.131144 386.286715 
L 86.920598 386.286715 
L 87.084684 384.961739 
L 88.561454 384.961739 
L 88.725539 386.286715 
L 91.022736 386.286715 
L 91.186822 385.693126 
L 92.663592 385.693126 
L 92.827677 386.286715 
L 94.632618 386.286715 
L 94.796703 381.690337 
L 96.273473 381.690337 
L 96.437559 386.286715 
L 100.375611 386.286715 
L 100.539697 383.272394 
L 102.016467 383.272394 
L 102.180552 386.286715 
L 109.072144 386.286715 
L 109.23623 385.183389 
L 110.712999 385.183389 
L 110.877085 386.286715 
L 119.245447 386.286715 
L 119.409532 383.318768 
L 120.886302 383.318768 
L 121.050387 386.286715 
L 124.168012 386.286715 
L 124.332098 386.007773 
L 125.644782 386.007773 
L 125.808868 385.425822 
L 125.972953 385.704765 
L 127.285637 385.704765 
L 127.449723 386.286715 
L 128.270151 386.286715 
L 128.434236 383.893209 
L 128.762407 383.893209 
L 128.926493 383.301985 
L 129.911006 383.301985 
L 130.075091 385.69549 
L 130.403262 385.69549 
L 130.567348 386.286715 
L 131.880032 386.286715 
L 132.044118 385.987527 
L 133.520887 385.987527 
L 133.684973 386.286715 
L 134.669486 386.286715 
L 134.833572 385.98992 
L 136.310341 385.98992 
L 136.474427 386.286715 
L 139.920223 386.286715 
L 140.084308 385.987527 
L 140.904736 385.987527 
L 141.068822 385.687127 
L 141.561078 385.687127 
L 141.725164 385.986315 
L 142.545591 385.986315 
L 142.709677 386.286715 
L 143.858275 386.286715 
L 144.022361 385.988728 
L 145.499131 385.988728 
L 145.663216 386.286715 
L 145.827302 386.286715 
L 145.991387 385.433857 
L 147.468157 385.433857 
L 147.632243 386.286715 
L 148.288585 386.286715 
L 148.616756 377.482831 
L 148.944927 377.482831 
L 149.109012 376.89859 
L 149.92944 376.89859 
L 150.257611 385.702473 
L 150.585782 385.702473 
L 150.749867 386.286715 
L 154.68792 386.286715 
L 154.852006 384.64998 
L 156.16469 384.64998 
L 156.328775 381.455997 
L 156.492861 383.092732 
L 157.805545 383.092732 
L 157.969631 386.286715 
L 158.297802 386.286715 
L 158.461887 385.396331 
L 159.938657 385.396331 
L 160.102742 386.286715 
L 160.430913 385.683474 
L 161.087256 385.683474 
L 161.251341 385.085097 
L 161.743598 385.085097 
L 162.071769 385.688339 
L 162.235854 383.976062 
L 162.728111 383.976062 
L 162.892196 384.574438 
L 163.712624 384.574438 
L 163.876709 386.286715 
L 164.697137 386.286715 
L 164.861223 384.843161 
L 165.025308 384.843161 
L 165.189394 374.994975 
L 165.68165 374.994975 
L 165.845736 373.540099 
L 166.009821 373.540099 
L 166.173907 372.656781 
L 166.337992 372.656781 
L 166.502078 374.100335 
L 166.666163 374.100335 
L 166.830249 383.948521 
L 167.322506 383.948521 
L 167.486591 383.748408 
L 167.650677 383.748408 
L 167.814762 384.631726 
L 168.142933 384.631726 
L 168.307019 383.498922 
L 168.799275 383.498922 
L 168.963361 379.41927 
L 169.127446 381.074259 
L 169.619703 381.074259 
L 169.783788 380.772639 
L 169.947874 381.905443 
L 170.111959 379.051648 
L 170.44013 379.051648 
L 170.604216 383.131299 
L 170.768302 383.131299 
L 170.932387 379.529422 
L 171.260558 379.529422 
L 171.424644 374.869429 
L 171.588729 374.869429 
L 171.752815 376.559324 
L 171.9169 372.615209 
L 172.245071 372.615209 
L 172.409157 372.019235 
L 172.573242 375.621113 
L 172.901413 375.621113 
L 173.065499 380.582726 
L 173.229584 380.582726 
L 173.39367 379.245548 
L 173.557755 383.189663 
L 173.721841 383.189663 
L 173.885927 377.297416 
L 174.050012 376.999429 
L 174.214098 376.999429 
L 174.378183 372.263344 
L 174.542269 371.961723 
L 174.706354 371.961723 
L 174.87044 368.150148 
L 175.034525 370.651226 
L 175.362696 370.651226 
L 175.526782 376.543474 
L 175.690867 376.561071 
L 175.854953 371.461507 
L 176.019038 376.197592 
L 176.347209 369.937785 
L 176.511295 373.74936 
L 176.67538 369.598386 
L 177.003551 369.598386 
L 177.167637 369.296765 
L 177.331723 370.173128 
L 177.495808 375.272692 
L 177.659894 375.272692 
L 177.823979 379.667735 
L 178.15215 369.08848 
L 178.316236 372.066353 
L 178.480321 371.765953 
L 178.808492 359.213967 
L 178.972578 359.213967 
L 179.136663 356.999081 
L 179.464834 337.190473 
L 179.793005 341.013248 
L 179.957091 332.445984 
L 180.121176 332.157506 
L 180.285262 332.261692 
L 180.449348 335.022831 
L 180.613433 331.590152 
L 180.777519 331.845073 
L 181.10569 342.351931 
L 181.269775 344.8567 
L 181.433861 340.178501 
L 181.597946 345.232635 
L 181.762032 341.369593 
L 182.090203 346.967081 
L 182.254288 345.94784 
L 182.582459 335.787164 
L 182.746545 338.408569 
L 182.91063 330.618994 
L 183.074716 333.816351 
L 183.238801 328.384582 
L 183.402887 327.003272 
L 183.566972 324.194778 
L 183.895144 312.42551 
L 184.059229 312.03706 
L 184.223315 312.523644 
L 184.3874 313.582924 
L 184.551486 319.905474 
L 184.879657 321.728135 
L 185.043742 320.60524 
L 185.207828 321.155746 
L 185.371913 322.680166 
L 185.535999 321.248281 
L 185.700084 323.901235 
L 185.86417 322.806275 
L 186.192341 310.43687 
L 186.848683 294.051601 
L 187.176854 298.138697 
L 187.34094 294.337329 
L 187.669111 304.421056 
L 187.833196 306.108007 
L 187.997282 306.129667 
L 188.325453 317.216779 
L 188.489538 319.064951 
L 188.653624 315.354127 
L 188.817709 315.440005 
L 188.981795 314.441863 
L 189.474051 299.277419 
L 189.966308 284.004804 
L 190.62265 292.585275 
L 190.786736 293.266353 
L 190.950821 293.46857 
L 191.114907 295.750612 
L 191.443078 307.602117 
L 191.607163 307.549668 
L 191.771249 306.530455 
L 192.09942 301.042598 
L 192.427591 307.732824 
L 192.591676 308.180824 
L 192.755762 310.696546 
L 193.083933 302.055415 
L 193.248018 299.769906 
L 193.412104 299.728237 
L 193.57619 299.877446 
L 193.740275 303.180324 
L 193.904361 296.483545 
L 194.232532 305.539431 
L 194.396617 304.879454 
L 194.560703 303.119532 
L 194.888874 309.012265 
L 195.052959 308.545224 
L 195.217045 317.746025 
L 195.38113 312.244123 
L 195.545216 319.808066 
L 196.037472 295.472711 
L 196.201558 297.040315 
L 196.365643 303.16484 
L 196.693814 298.17399 
L 196.8579 286.555795 
L 197.186071 285.17297 
L 197.842413 294.334275 
L 198.006499 289.743432 
L 198.170584 291.169727 
L 198.33467 289.930787 
L 198.498755 292.328484 
L 198.662841 289.21522 
L 198.991012 292.343603 
L 199.155097 293.508949 
L 199.319183 299.280842 
L 199.483268 298.764514 
L 199.647354 299.852946 
L 199.811439 298.981191 
L 199.975525 300.870573 
L 200.303696 321.351624 
L 200.467782 312.757576 
L 200.631867 311.653482 
L 200.960038 303.062613 
L 201.124124 302.207994 
L 201.288209 302.212583 
L 201.61638 304.980897 
L 201.944551 283.837367 
L 202.108637 290.175931 
L 202.272722 289.843632 
L 202.436808 288.797473 
L 202.600893 285.090196 
L 202.764979 286.899697 
L 203.257235 275.927546 
L 203.421321 276.945675 
L 203.585407 284.726224 
L 203.913578 282.728153 
L 204.077663 283.50704 
L 204.405834 289.476969 
L 204.56992 288.132924 
L 204.734005 297.404355 
L 205.062176 300.41577 
L 205.226262 292.659068 
L 205.390347 298.650105 
L 205.718518 298.127906 
L 205.882604 294.284016 
L 206.046689 297.303701 
L 206.210775 296.520946 
L 206.37486 288.070804 
L 206.538946 293.397138 
L 206.703032 290.303834 
L 206.867117 290.069005 
L 207.031203 279.114476 
L 207.195288 286.828571 
L 207.359374 288.27282 
L 207.523459 298.940531 
L 207.687545 293.242712 
L 207.85163 294.650583 
L 208.015716 297.079647 
L 208.179801 290.265903 
L 208.343887 292.978814 
L 208.507972 291.452977 
L 208.672058 292.935094 
L 208.836143 287.056866 
L 209.000229 289.37288 
L 209.164314 279.171598 
L 209.984742 265.091494 
L 210.312913 272.337273 
L 210.80517 280.596522 
L 210.969255 282.081819 
L 211.297426 302.701961 
L 211.461512 309.33149 
L 211.625597 310.944649 
L 211.789683 309.077964 
L 211.953768 304.529903 
L 212.117854 310.790416 
L 212.446025 300.235908 
L 212.61011 298.618649 
L 212.774196 287.640434 
L 212.938281 287.890132 
L 213.430538 277.289131 
L 213.594624 280.319336 
L 213.758709 267.695257 
L 214.250966 264.030469 
L 214.415051 261.759868 
L 214.579137 254.691252 
L 214.743222 257.31464 
L 215.727735 307.506398 
L 215.891821 310.392874 
L 216.055906 315.634382 
L 216.219992 316.459749 
L 216.548163 305.910281 
L 217.204505 262.176476 
L 217.368591 260.499604 
L 217.532676 263.384787 
L 217.696762 259.751934 
L 218.024933 264.526774 
L 218.189018 262.358085 
L 218.353104 264.18752 
L 218.517189 277.32764 
L 218.681275 275.540104 
L 219.009446 278.801597 
L 219.173531 273.068263 
L 219.337617 278.507882 
L 219.501702 273.817264 
L 219.665788 272.939701 
L 219.829874 280.965588 
L 219.993959 281.807864 
L 220.158045 270.500013 
L 220.650301 267.537656 
L 220.814387 268.408777 
L 220.978472 268.658654 
L 221.306643 274.159422 
L 221.470729 264.557331 
L 221.634814 264.07126 
L 221.7989 266.940432 
L 221.962985 278.696602 
L 222.127071 277.950781 
L 222.455242 275.331248 
L 222.783413 266.108705 
L 222.947498 267.101758 
L 223.111584 266.837957 
L 223.439755 262.473248 
L 223.603841 251.213495 
L 223.932012 248.284104 
L 224.096097 248.518966 
L 224.260183 251.558705 
L 224.424268 251.306762 
L 224.588354 246.885054 
L 224.752439 248.200432 
L 224.916525 248.272778 
L 225.08061 244.016192 
L 225.572867 252.636438 
L 225.736952 253.596848 
L 225.901038 252.847557 
L 226.065123 254.537134 
L 226.229209 254.029347 
L 226.393295 254.820958 
L 226.55738 256.332317 
L 226.721466 256.4676 
L 227.049637 247.551575 
L 227.213722 251.031899 
L 227.377808 248.411175 
L 227.541893 242.902486 
L 227.705979 244.706914 
L 227.870064 243.471069 
L 228.198235 240.185786 
L 228.362321 242.686596 
L 228.526406 243.212698 
L 228.690492 250.334467 
L 228.854577 245.925064 
L 229.018663 248.471096 
L 229.182748 247.427412 
L 229.346834 241.972141 
L 229.510919 244.042161 
L 229.675005 243.575489 
L 229.839091 244.074289 
L 230.003176 246.046728 
L 230.167262 245.609295 
L 230.331347 243.25461 
L 230.495433 242.79325 
L 230.659518 241.643511 
L 231.151775 243.549821 
L 231.31586 243.079122 
L 231.479946 248.391841 
L 231.644031 243.257119 
L 231.808117 243.033671 
L 231.972202 238.680845 
L 232.136288 238.495398 
L 232.300373 236.447291 
L 232.464459 236.391884 
L 232.628544 235.789809 
L 232.79263 239.062039 
L 232.956716 239.259701 
L 233.120801 233.362482 
L 233.448972 234.871741 
L 233.613058 234.278303 
L 233.777143 236.383585 
L 233.941229 236.849849 
L 234.105314 238.175119 
L 234.2694 241.87047 
L 234.433485 237.983568 
L 234.597571 241.301762 
L 234.925742 238.317007 
L 235.089827 244.945537 
L 235.253913 246.417249 
L 235.417998 243.497183 
L 235.582084 243.140864 
L 235.746169 241.668776 
L 235.910255 245.961903 
L 236.238426 241.179938 
L 236.402512 242.63675 
L 236.566597 248.491896 
L 236.730683 243.017605 
L 237.058854 245.569595 
L 237.222939 245.838255 
L 237.387025 249.182756 
L 237.55111 241.21014 
L 237.715196 240.888507 
L 237.879281 239.983383 
L 238.043367 242.026951 
L 238.207452 236.313105 
L 238.371538 235.694355 
L 238.535623 236.115534 
L 238.699709 235.229394 
L 238.863794 239.25452 
L 239.02788 235.872243 
L 239.191965 238.311408 
L 239.520137 253.011847 
L 239.684222 254.075041 
L 239.848308 259.788886 
L 240.012393 260.79694 
L 240.176479 258.368869 
L 240.340564 258.728984 
L 240.50465 256.969333 
L 240.668735 257.65532 
L 240.832821 254.218484 
L 240.996906 243.70957 
L 241.160992 242.503919 
L 241.489163 231.620558 
L 241.653248 241.689037 
L 241.817334 240.536057 
L 241.981419 241.390378 
L 242.145505 241.501522 
L 242.473676 239.541692 
L 242.637761 238.42499 
L 242.965933 235.657655 
L 243.130018 236.011946 
L 243.294104 222.172744 
L 243.458189 230.773289 
L 243.622275 227.962352 
L 243.78636 228.119385 
L 244.114531 231.04743 
L 244.278617 236.815258 
L 244.606788 240.383688 
L 244.770873 239.57338 
L 244.934959 239.529607 
L 245.099044 231.770359 
L 245.26313 234.355678 
L 245.591301 227.410334 
L 245.755386 225.974943 
L 246.083558 217.734664 
L 246.247643 216.110571 
L 246.575814 223.388321 
L 246.903985 219.698222 
L 247.068071 220.16604 
L 247.232156 219.824955 
L 247.396242 221.623972 
L 247.888498 218.312 
L 248.216669 209.465569 
L 248.380755 211.12376 
L 248.54484 209.527934 
L 248.873011 225.557383 
L 249.201182 232.250015 
L 249.365268 233.190165 
L 249.693439 236.462752 
L 249.857525 238.167218 
L 250.02161 237.174117 
L 250.185696 238.308009 
L 250.513867 223.631878 
L 250.842038 214.848281 
L 251.334294 211.897413 
L 251.49838 211.952689 
L 251.662465 210.514505 
L 251.826551 210.475552 
L 251.990636 211.952127 
L 252.154722 210.614252 
L 252.318807 210.698539 
L 252.482893 210.406813 
L 252.646979 210.569217 
L 252.811064 211.434132 
L 253.139235 209.821444 
L 253.303321 218.565372 
L 253.467406 218.610203 
L 253.631492 215.738625 
L 253.795577 214.841537 
L 254.123748 225.661107 
L 254.78009 218.117013 
L 254.944176 210.301485 
L 255.108261 210.191112 
L 255.272347 210.644464 
L 255.436432 212.722225 
L 255.764603 200.175041 
L 256.092775 205.526609 
L 256.25686 216.933119 
L 256.420946 216.627932 
L 256.585031 222.246185 
L 256.913202 219.65173 
L 257.405459 234.517324 
L 257.569544 233.652039 
L 257.73363 231.370055 
L 257.897715 220.445547 
L 258.061801 221.220154 
L 258.225886 215.346345 
L 258.389972 215.263373 
L 258.554057 214.10405 
L 259.046314 197.680401 
L 259.2104 200.640478 
L 259.374485 200.127494 
L 259.538571 200.867987 
L 260.030827 195.735024 
L 260.194913 197.403887 
L 260.358998 196.455539 
L 260.523084 200.447786 
L 260.687169 199.889236 
L 260.851255 196.522819 
L 261.01534 196.154962 
L 261.179426 193.751908 
L 261.835768 199.173532 
L 261.999853 198.785313 
L 262.163939 195.945945 
L 262.328024 195.845601 
L 262.49211 194.349079 
L 262.820281 195.633274 
L 262.984367 195.7765 
L 263.148452 195.061787 
L 263.312538 201.767082 
L 263.640709 197.365484 
L 263.804794 198.963821 
L 264.132965 204.536056 
L 264.789307 197.759629 
L 264.953393 195.237701 
L 265.117478 194.742655 
L 265.281564 200.998792 
L 265.445649 198.623392 
L 265.773821 190.267636 
L 266.101992 198.152942 
L 266.266077 196.494917 
L 266.430163 196.32212 
L 266.594248 191.055726 
L 266.758334 192.117725 
L 267.086505 183.542075 
L 267.414676 185.791302 
L 267.578761 181.861667 
L 267.742847 181.693695 
L 268.071018 187.16809 
L 268.235103 187.70213 
L 268.399189 187.610808 
L 268.563274 185.721037 
L 268.72736 188.334712 
L 268.891445 186.782044 
L 269.055531 189.255594 
L 269.219617 186.518149 
L 269.383702 186.864762 
L 269.711873 183.209917 
L 269.875959 182.058784 
L 270.20413 185.091888 
L 270.368215 184.780912 
L 270.532301 186.642099 
L 270.696386 186.849936 
L 270.860472 187.672968 
L 271.024557 184.766675 
L 271.188643 185.642433 
L 271.352728 188.413508 
L 271.516814 188.790591 
L 271.680899 185.293961 
L 271.844985 185.348681 
L 272.173156 178.258335 
L 272.337242 175.20574 
L 272.501327 174.543157 
L 272.665413 180.328732 
L 272.829498 180.395462 
L 272.993584 175.933165 
L 273.157669 175.734116 
L 273.321755 175.307712 
L 273.814011 179.032655 
L 274.142182 177.009496 
L 274.470353 168.085301 
L 274.634439 166.732317 
L 274.798524 166.519102 
L 274.96261 165.290077 
L 275.290781 160.061712 
L 275.454866 159.402227 
L 275.783038 159.402305 
L 275.947123 156.908743 
L 276.111209 157.829416 
L 276.275294 156.626274 
L 276.43938 157.370951 
L 276.931636 161.174819 
L 277.095722 160.126567 
L 277.259807 157.397633 
L 277.423893 169.84953 
L 277.587978 172.606822 
L 277.752064 172.987925 
L 277.916149 174.641027 
L 278.080235 173.17785 
L 278.24432 174.687193 
L 278.408406 174.001185 
L 278.572491 174.56974 
L 278.736577 174.629615 
L 278.900663 176.709325 
L 279.064748 164.512907 
L 279.228834 164.142838 
L 279.557005 158.711101 
L 279.72109 159.137677 
L 279.885176 154.378011 
L 280.049261 154.384335 
L 280.213347 152.725791 
L 280.377432 157.11307 
L 280.869689 153.095784 
L 281.033774 154.639771 
L 281.19786 154.881107 
L 281.361945 152.924018 
L 281.526031 153.450891 
L 281.690116 152.941712 
L 281.854202 153.708978 
L 282.018287 148.77979 
L 282.182373 148.160727 
L 282.346459 149.117883 
L 282.510544 147.995716 
L 282.838715 143.859162 
L 283.002801 144.271831 
L 283.330972 142.520149 
L 283.659143 139.539853 
L 283.823228 139.546827 
L 283.987314 140.318316 
L 284.151399 140.343116 
L 284.47957 142.016538 
L 284.643656 141.724077 
L 284.971827 148.123297 
L 285.135912 147.974694 
L 285.464084 150.296803 
L 285.628169 150.221811 
L 285.792255 153.374544 
L 285.95634 152.615695 
L 286.120426 152.490817 
L 286.284511 151.603243 
L 286.448597 152.76248 
L 286.612682 164.945778 
L 286.776768 165.299483 
L 286.940853 165.952743 
L 287.104939 164.874723 
L 287.269024 164.789497 
L 287.43311 162.795884 
L 287.761281 167.52976 
L 287.925366 168.576513 
L 288.089452 166.127986 
L 288.253537 153.914792 
L 288.417623 153.598283 
L 288.581708 153.01304 
L 288.745794 154.465096 
L 289.073965 152.615682 
L 289.238051 152.351866 
L 289.566222 159.090517 
L 289.730307 178.142949 
L 289.894393 177.54906 
L 290.550735 185.101164 
L 290.71482 184.761427 
L 290.878906 183.798303 
L 291.207077 177.954303 
L 291.371162 158.688871 
L 291.699333 155.974421 
L 291.863419 154.893616 
L 292.027505 151.45169 
L 292.19159 152.856118 
L 292.355676 152.830389 
L 292.519761 152.521635 
L 292.683847 151.027111 
L 292.847932 150.95275 
L 293.012018 150.04106 
L 293.176103 150.020172 
L 293.340189 150.527985 
L 293.504274 150.004587 
L 293.66836 159.457297 
L 293.832445 157.939192 
L 294.160616 157.522394 
L 294.324702 158.855761 
L 294.652873 164.196026 
L 294.816958 163.868231 
L 295.145129 162.224993 
L 295.309215 153.287492 
L 295.473301 152.777398 
L 295.637386 158.56798 
L 295.801472 159.06235 
L 295.965557 157.389485 
L 296.293728 151.888159 
L 296.457814 153.619212 
L 296.785985 154.505743 
L 296.95007 154.399906 
L 297.114156 153.912907 
L 297.278241 148.085557 
L 297.442327 148.65519 
L 297.606412 150.496673 
L 297.770498 150.455647 
L 297.934583 150.033086 
L 298.262754 148.423323 
L 298.42684 148.383672 
L 298.590926 147.899138 
L 298.755011 150.107538 
L 298.919097 149.8573 
L 299.247268 146.372024 
L 299.411353 147.084823 
L 299.575439 146.724234 
L 299.739524 146.015714 
L 300.067695 148.782284 
L 300.231781 148.296359 
L 300.395866 146.446573 
L 300.559952 146.027606 
L 300.724037 146.057355 
L 300.888123 146.34207 
L 301.052208 146.143325 
L 301.380379 147.042784 
L 301.70855 145.154862 
L 301.872636 146.016161 
L 302.036722 145.801676 
L 302.528978 147.20887 
L 302.693064 147.168764 
L 302.857149 147.273398 
L 303.021235 147.145266 
L 303.349406 146.485996 
L 303.513491 144.744229 
L 303.677577 144.258585 
L 304.169833 141.608654 
L 304.333919 143.398233 
L 304.498004 143.816506 
L 304.66209 143.55332 
L 304.826175 143.864411 
L 304.990261 143.795408 
L 305.810689 150.107266 
L 306.13886 146.905722 
L 306.467031 148.038887 
L 306.795202 147.656509 
L 306.959287 146.175811 
L 307.123373 145.714277 
L 307.287458 145.603892 
L 307.615629 143.187743 
L 307.779715 144.635463 
L 307.9438 144.141562 
L 308.107886 142.703246 
L 308.271971 142.645728 
L 308.436057 142.240272 
L 308.600143 142.239494 
L 308.764228 142.003974 
L 308.928314 140.798156 
L 309.092399 142.266082 
L 309.256485 142.338051 
L 309.42057 141.06532 
L 309.748741 143.240672 
L 310.076912 142.098495 
L 310.569169 146.13674 
L 310.733254 144.413108 
L 310.89734 144.932563 
L 311.061425 144.228112 
L 311.225511 142.853198 
L 311.389596 142.858123 
L 311.553682 144.400687 
L 311.717768 150.452113 
L 311.881853 150.199721 
L 312.045939 149.076192 
L 312.37411 148.787885 
L 312.702281 150.662969 
L 313.030452 149.867458 
L 313.194537 150.13602 
L 313.358623 144.845606 
L 313.686794 146.390592 
L 313.850879 146.473765 
L 314.014965 147.307084 
L 314.343136 145.020727 
L 314.507221 145.761765 
L 314.671307 145.620025 
L 314.835392 143.512159 
L 314.999478 143.300766 
L 315.163564 141.493258 
L 315.327649 141.430674 
L 315.491735 140.569307 
L 315.65582 138.948314 
L 315.819906 138.911784 
L 315.983991 138.402452 
L 316.148077 138.365449 
L 316.312162 137.677619 
L 316.476248 137.641423 
L 316.640333 137.419603 
L 317.13259 134.636822 
L 317.296675 135.668682 
L 317.460761 135.705213 
L 317.624846 136.144676 
L 317.788932 134.854626 
L 317.953017 135.366195 
L 318.117103 136.629789 
L 318.281189 136.674186 
L 318.60936 138.165968 
L 319.101616 136.167912 
L 319.429787 135.124348 
L 319.593873 134.834638 
L 319.757958 133.697994 
L 319.922044 134.565638 
L 320.086129 133.560376 
L 320.4143 135.885827 
L 320.578386 135.049708 
L 320.742471 135.406087 
L 321.070642 134.514071 
L 321.234728 134.507459 
L 321.398813 133.891329 
L 321.562899 131.392345 
L 321.726985 132.198428 
L 321.89107 131.603532 
L 322.055156 131.450389 
L 322.219241 133.519341 
L 322.383327 133.658858 
L 322.547412 134.404037 
L 322.711498 136.222728 
L 322.875583 136.255511 
L 323.36784 140.570994 
L 323.696011 141.325297 
L 323.860096 140.3031 
L 324.024182 140.774601 
L 324.188267 140.794076 
L 324.352353 139.294346 
L 324.516438 139.146088 
L 324.84461 138.303298 
L 325.008695 138.045773 
L 325.172781 136.800167 
L 325.336866 136.494454 
L 325.500952 137.881346 
L 325.665037 141.008556 
L 325.829123 141.589338 
L 326.157294 145.481797 
L 326.485465 147.318561 
L 326.977721 148.791567 
L 327.141807 148.164323 
L 327.305892 146.263617 
L 327.469978 148.128292 
L 327.634063 146.609605 
L 327.798149 152.046989 
L 328.12632 149.515669 
L 328.290406 151.443844 
L 328.618577 150.703874 
L 328.782662 155.015415 
L 328.946748 156.286601 
L 329.110833 153.810988 
L 329.274919 153.568509 
L 329.439004 151.710825 
L 329.60309 153.019132 
L 329.767175 151.921705 
L 329.931261 149.525785 
L 330.095346 149.478901 
L 330.259432 149.628882 
L 330.587603 143.443202 
L 330.751688 143.59631 
L 330.915774 144.539723 
L 331.079859 140.163999 
L 331.243945 140.087727 
L 331.572116 141.447241 
L 331.736202 141.563462 
L 331.900287 141.336371 
L 332.064373 139.736492 
L 332.392544 141.290456 
L 332.556629 140.236702 
L 332.720715 140.572666 
L 333.048886 139.213895 
L 333.212971 141.149756 
L 333.377057 141.207435 
L 333.541142 141.449671 
L 333.705228 140.335847 
L 333.869313 140.365687 
L 334.033399 138.797873 
L 334.197484 138.98957 
L 334.525655 136.854136 
L 334.689741 137.477009 
L 335.181998 134.808023 
L 335.346083 135.998289 
L 335.510169 135.354802 
L 336.330596 139.627427 
L 336.494682 138.350332 
L 336.822853 137.694365 
L 337.315109 136.048003 
L 337.64328 132.773067 
L 337.807366 139.905246 
L 337.971452 138.875411 
L 338.135537 139.249022 
L 338.627794 141.338557 
L 338.791879 145.697729 
L 338.955965 146.695915 
L 339.12005 150.21086 
L 339.284136 150.703397 
L 339.448221 143.14129 
L 339.612307 142.847029 
L 339.776392 142.882211 
L 339.940478 142.561416 
L 340.104563 143.129037 
L 340.268649 143.21426 
L 340.432734 139.426559 
L 340.59682 138.263099 
L 340.760905 135.69397 
L 341.253162 136.792185 
L 341.417248 136.893645 
L 341.581333 137.292162 
L 342.07359 136.017418 
L 342.237675 136.464531 
L 342.401761 138.366236 
L 342.729932 137.215769 
L 342.894017 137.232389 
L 343.058103 135.180679 
L 343.222188 134.847965 
L 343.386274 133.967736 
L 343.550359 134.745419 
L 343.714445 134.812049 
L 343.87853 135.653946 
L 344.042616 133.15484 
L 344.206701 133.080384 
L 344.534873 134.49405 
L 344.698958 135.922797 
L 344.863044 135.642991 
L 345.027129 136.530184 
L 345.191215 135.549863 
L 345.3553 136.045245 
L 345.683471 135.277984 
L 345.847557 136.000113 
L 346.011642 135.313299 
L 346.339813 138.520805 
L 346.503899 138.742264 
L 346.83207 136.095822 
L 346.996155 135.675128 
L 347.160241 135.68409 
L 347.488412 133.982379 
L 347.652497 136.130802 
L 347.980669 131.553049 
L 348.30884 135.120764 
L 348.472925 134.715973 
L 348.637011 136.233163 
L 348.801096 135.241631 
L 349.129267 138.067864 
L 349.293353 135.682284 
L 349.457438 136.829785 
L 349.621524 136.72158 
L 349.785609 135.202685 
L 349.949695 135.343441 
L 350.11378 137.220795 
L 350.277866 135.666634 
L 350.606037 138.278109 
L 351.098294 134.45535 
L 351.262379 134.261035 
L 351.426465 132.88386 
L 351.754636 133.509735 
L 351.918721 132.450858 
L 352.082807 133.303032 
L 352.246892 131.709232 
L 352.575063 131.005893 
L 352.739149 132.691988 
L 352.903234 131.994493 
L 353.231405 132.603665 
L 353.395491 134.125419 
L 353.559576 134.175679 
L 353.723662 131.882682 
L 353.887747 132.814865 
L 354.051833 132.860626 
L 354.215918 133.610477 
L 354.380004 131.855401 
L 354.872261 135.765099 
L 355.036346 132.969406 
L 355.200432 134.226663 
L 355.364517 133.653841 
L 355.528603 134.059743 
L 355.692688 133.703825 
L 356.020859 135.745341 
L 356.34903 133.452399 
L 356.513116 130.847235 
L 356.677201 131.834794 
L 356.841287 131.876563 
L 357.005372 133.084092 
L 357.169458 132.415552 
L 357.333543 132.974529 
L 357.497629 131.788153 
L 357.8258 131.873978 
L 358.153971 133.593068 
L 358.318057 133.521114 
L 358.482142 132.283366 
L 358.646228 133.040406 
L 358.810313 132.384665 
L 359.30257 129.505964 
L 359.466655 129.351196 
L 359.630741 133.9027 
L 359.794826 134.87198 
L 359.958912 134.599586 
L 360.122997 134.692901 
L 360.287083 132.354229 
L 360.615254 133.576538 
L 360.779339 134.906631 
L 360.943425 137.615301 
L 361.107511 137.490588 
L 361.271596 133.063813 
L 361.435682 131.7037 
L 361.599767 131.912123 
L 361.763853 131.429187 
L 361.927938 132.34631 
L 362.092024 132.607851 
L 362.256109 133.236229 
L 362.420195 131.628883 
L 362.58428 128.919691 
L 362.748366 136.603842 
L 362.912451 136.430503 
L 363.240622 134.457758 
L 363.404708 134.763987 
L 363.568793 136.324465 
L 363.732879 135.52966 
L 364.225136 140.670418 
L 364.389221 135.050447 
L 364.553307 135.429257 
L 365.045563 139.516495 
L 365.209649 138.19586 
L 365.373734 140.611735 
L 365.53782 138.66239 
L 365.865991 137.670811 
L 366.030076 137.576884 
L 366.686418 132.012144 
L 367.34276 126.279799 
L 367.506846 126.61525 
L 367.670932 125.885532 
L 367.835017 126.391894 
L 367.999103 125.549232 
L 368.163188 126.314516 
L 368.327274 126.194501 
L 368.491359 127.993283 
L 368.655445 125.261421 
L 368.81953 125.011839 
L 368.983616 126.328346 
L 369.147701 124.406783 
L 369.311787 127.568631 
L 369.639958 126.519499 
L 369.804043 125.045064 
L 369.968129 126.185419 
L 370.132214 124.5797 
L 370.2963 126.054302 
L 370.460385 128.820882 
L 370.788557 128.965476 
L 370.952642 123.45183 
L 371.116728 123.252853 
L 371.444899 125.17251 
L 371.608984 124.851461 
L 371.77307 127.514045 
L 371.937155 127.035681 
L 372.101241 124.882019 
L 372.265326 126.239496 
L 372.593497 132.906019 
L 372.757583 133.154723 
L 372.921668 132.443131 
L 373.085754 132.685412 
L 373.249839 132.302361 
L 373.413925 129.247179 
L 373.57801 130.360379 
L 373.742096 130.250423 
L 373.906181 132.985504 
L 374.070267 130.081659 
L 374.234353 129.19834 
L 374.398438 129.077816 
L 374.562524 129.485191 
L 374.726609 128.33229 
L 374.890695 128.836763 
L 375.05478 131.600527 
L 375.218866 131.280971 
L 375.382951 132.316957 
L 375.547037 128.109717 
L 375.711122 128.686826 
L 375.875208 127.390779 
L 376.039293 128.687806 
L 376.203379 128.599586 
L 376.367464 128.944342 
L 376.53155 128.899692 
L 376.859721 125.318302 
L 377.023806 124.035211 
L 377.187892 121.782755 
L 377.351978 122.605241 
L 377.516063 121.591892 
L 377.844234 118.304034 
L 378.00832 117.580545 
L 378.172405 119.038258 
L 378.336491 119.177704 
L 378.500576 118.234581 
L 378.664662 119.83523 
L 378.828747 120.173522 
L 378.992833 118.272949 
L 379.485089 122.051451 
L 379.649175 121.404093 
L 379.81326 119.320109 
L 380.141431 121.161201 
L 380.305517 121.229722 
L 380.633688 124.741409 
L 380.797774 124.250445 
L 380.961859 123.094534 
L 381.29003 123.139589 
L 381.454116 124.03047 
L 381.618201 124.147239 
L 381.782287 123.798642 
L 381.946372 124.952853 
L 382.110458 123.398938 
L 382.274543 124.948081 
L 382.438629 123.973812 
L 382.602714 124.707939 
L 382.7668 126.943903 
L 382.930885 127.605299 
L 383.259056 123.298649 
L 383.423142 124.427547 
L 383.587227 122.630259 
L 383.751313 125.405936 
L 383.915399 124.079903 
L 384.079484 124.698742 
L 384.24357 126.119056 
L 384.407655 124.703318 
L 384.571741 124.303284 
L 385.063997 130.213558 
L 385.228083 130.561879 
L 385.392168 128.466139 
L 385.556254 129.521839 
L 385.884425 128.633623 
L 386.04851 129.593087 
L 386.376681 129.085062 
L 386.540767 127.241198 
L 387.033023 126.209343 
L 387.52528 123.935179 
L 387.689366 122.637042 
L 387.853451 123.366171 
L 388.017537 121.870431 
L 388.181622 121.882564 
L 388.509793 119.10727 
L 388.673879 119.388292 
L 388.837964 118.151357 
L 389.330221 117.565252 
L 389.494306 116.419875 
L 389.658392 116.388508 
L 389.822477 116.163569 
L 390.150648 119.629016 
L 390.314734 117.943109 
L 390.47882 119.269331 
L 390.642905 119.429365 
L 390.806991 118.895302 
L 390.971076 119.890651 
L 391.299247 118.445329 
L 391.463333 118.303335 
L 391.627418 115.463931 
L 391.791504 114.783295 
L 391.955589 120.721755 
L 392.119675 119.85072 
L 392.28376 121.66704 
L 392.447846 122.034378 
L 392.611931 120.553197 
L 392.940102 121.533195 
L 393.104188 121.575351 
L 393.268273 126.417708 
L 393.432359 125.036736 
L 393.596444 121.911068 
L 393.924616 120.374213 
L 394.252787 121.030352 
L 394.580958 126.700128 
L 394.745043 127.785926 
L 394.909129 124.171265 
L 395.073214 125.219272 
L 395.401385 121.92727 
L 396.057727 118.252824 
L 396.221813 115.341896 
L 396.385898 117.452666 
L 396.714069 115.456329 
L 397.370412 117.790879 
L 397.534497 117.766471 
L 397.698583 116.176887 
L 397.862668 116.000397 
L 398.026754 114.905531 
L 398.683096 114.053482 
L 398.847181 114.325953 
L 399.011267 116.677066 
L 399.175352 116.285002 
L 399.339438 117.097983 
L 399.503523 117.078051 
L 399.667609 119.093374 
L 399.831694 119.197966 
L 399.99578 118.472098 
L 400.159865 119.039846 
L 400.323951 118.773953 
L 400.488037 117.903007 
L 400.652122 115.10847 
L 400.816208 115.277698 
L 400.980293 115.048936 
L 401.144379 116.30043 
L 401.308464 113.151012 
L 401.636635 114.628257 
L 401.800721 114.950157 
L 401.964806 115.729589 
L 402.128892 118.83671 
L 402.292977 118.204355 
L 402.457063 120.445878 
L 402.785234 118.530839 
L 402.949319 118.392689 
L 403.27749 124.352335 
L 403.441576 124.586716 
L 403.605662 123.029029 
L 403.769747 119.39606 
L 403.933833 119.925448 
L 404.097918 116.350958 
L 404.262004 116.318498 
L 404.590175 114.113309 
L 404.75426 110.221222 
L 404.918346 111.208783 
L 405.082431 110.396035 
L 405.574688 120.682551 
L 406.066944 124.84304 
L 406.23103 125.000246 
L 406.395115 126.462396 
L 406.559201 123.881758 
L 406.723286 123.662038 
L 407.379629 116.867766 
L 407.543714 115.825933 
L 407.7078 113.183688 
L 407.871885 113.563526 
L 408.692313 109.026958 
L 408.856398 108.672348 
L 409.020484 114.324295 
L 409.184569 113.914514 
L 409.348655 115.460252 
L 409.51274 115.722504 
L 409.676826 113.849794 
L 409.840911 114.431291 
L 410.169083 116.693518 
L 410.333168 116.423703 
L 410.497254 119.021406 
L 410.661339 115.839079 
L 410.98951 119.546608 
L 411.317681 121.564359 
L 411.481767 122.026013 
L 411.645852 121.920819 
L 411.809938 123.817925 
L 411.974023 123.917672 
L 412.302194 117.984323 
L 412.630365 114.448587 
L 412.794451 112.15034 
L 412.958536 111.897638 
L 413.122622 112.422404 
L 413.450793 107.974619 
L 413.778964 113.033875 
L 413.94305 112.749224 
L 414.271221 113.978261 
L 414.435306 117.666056 
L 414.763477 115.184709 
L 415.091648 117.954999 
L 415.419819 112.607383 
L 415.583905 115.122174 
L 415.74799 113.389221 
L 415.912076 113.046626 
L 416.076161 108.48545 
L 416.240247 109.123549 
L 416.404332 107.83341 
L 416.568418 107.768854 
L 416.732504 106.776198 
L 416.896589 108.208178 
L 417.060675 108.504279 
L 417.22476 106.117613 
L 417.388846 106.184277 
L 417.552931 106.685723 
L 417.717017 108.2014 
L 417.881102 108.271147 
L 418.209273 112.526629 
L 418.537444 109.452556 
L 418.70153 112.122533 
L 418.865615 112.862421 
L 419.029701 115.133126 
L 419.193786 115.293047 
L 419.357872 115.018154 
L 419.521957 117.979232 
L 419.850128 114.08603 
L 420.1783 116.509302 
L 420.506471 110.646077 
L 420.670556 116.268784 
L 420.834642 117.001843 
L 420.998727 116.402567 
L 421.162813 112.815585 
L 421.326898 115.806564 
L 421.490984 116.356922 
L 421.655069 117.806075 
L 421.819155 116.580116 
L 421.98324 126.276305 
L 422.147326 128.733049 
L 422.311411 122.011774 
L 422.475497 122.824756 
L 422.803668 128.741441 
L 422.967753 127.100268 
L 423.131839 127.282638 
L 423.46001 129.090509 
L 423.624096 120.328616 
L 423.952267 118.327325 
L 424.116352 116.052997 
L 424.280438 116.588234 
L 424.444523 113.933064 
L 424.608609 113.83877 
L 424.772694 114.700571 
L 424.93678 114.820034 
L 425.100865 113.694393 
L 425.264951 114.224557 
L 425.429036 114.165863 
L 425.757207 116.292051 
L 425.921293 114.455484 
L 426.249464 115.674784 
L 426.413549 115.794676 
L 426.577635 115.333724 
L 426.741721 116.922321 
L 426.905806 125.434077 
L 427.069892 127.528843 
L 427.233977 127.601971 
L 427.398063 127.508608 
L 427.562148 127.715768 
L 427.726234 128.123411 
L 427.890319 127.315321 
L 428.054405 125.419328 
L 428.382576 119.671897 
L 428.546661 109.80239 
L 428.874832 105.313835 
L 429.038918 106.118752 
L 429.203003 106.044001 
L 429.367089 103.141136 
L 429.69526 104.595132 
L 430.023431 106.410974 
L 430.187517 107.221501 
L 430.351602 110.852557 
L 430.515688 111.415225 
L 430.679773 110.69569 
L 430.843859 112.288944 
L 431.007944 115.531822 
L 431.17203 114.123269 
L 431.336115 114.871758 
L 431.500201 114.027898 
L 431.664286 114.46511 
L 431.828372 117.442036 
L 431.992457 115.419893 
L 432.156543 115.741725 
L 432.648799 111.157819 
L 432.812885 113.835438 
L 432.97697 113.561156 
L 433.141056 113.584189 
L 433.305142 112.569701 
L 433.633313 107.362896 
L 433.797398 107.991387 
L 433.961484 111.038469 
L 434.125569 110.192103 
L 434.617826 103.108389 
L 434.781911 102.404152 
L 434.945997 102.495328 
L 435.274168 104.278209 
L 435.438253 104.587861 
L 435.602339 101.398841 
L 435.93051 101.448 
L 436.094595 101.804142 
L 436.258681 102.899638 
L 436.422767 102.940833 
L 436.586852 105.948062 
L 436.750938 105.525871 
L 436.915023 106.22743 
L 437.079109 105.103211 
L 437.243194 105.515677 
L 437.40728 105.27757 
L 437.735451 110.861464 
L 437.899536 110.384519 
L 438.063622 111.058979 
L 438.391793 107.635517 
L 438.555878 107.459465 
L 439.048135 112.329654 
L 439.21222 112.655844 
L 439.376306 109.974702 
L 439.540391 111.749187 
L 439.704477 111.960556 
L 439.868563 113.15342 
L 440.032648 118.551044 
L 440.524905 111.681133 
L 440.68899 111.483949 
L 440.853076 107.547455 
L 441.017161 107.053441 
L 441.345332 101.871867 
L 441.509418 101.879669 
L 441.673503 95.430485 
L 441.837589 100.525597 
L 442.329845 104.598738 
L 442.493931 108.727266 
L 442.658016 109.869951 
L 442.986188 116.033377 
L 443.150273 114.986031 
L 443.314359 120.045935 
L 443.478444 116.719519 
L 443.64253 115.773096 
L 443.806615 113.218616 
L 443.970701 113.170827 
L 444.298872 107.186552 
L 444.462957 106.724555 
L 444.627043 109.306014 
L 444.791128 107.725194 
L 444.955214 104.841585 
L 445.119299 104.340652 
L 445.283385 104.223621 
L 445.939727 117.179213 
L 446.267898 112.608949 
L 446.596069 115.784381 
L 446.92424 117.199334 
L 447.088326 115.083087 
L 447.252411 108.862216 
L 447.580582 106.848987 
L 447.744668 106.219109 
L 448.236924 99.686172 
L 448.40101 98.245135 
L 448.565095 97.94995 
L 448.729181 96.862429 
L 448.893266 97.429789 
L 449.057352 95.982118 
L 449.221437 99.482829 
L 449.385523 99.461757 
L 449.549609 99.161592 
L 449.87778 103.600605 
L 450.041865 104.787324 
L 450.205951 103.96189 
L 450.370036 105.369515 
L 450.534122 103.776166 
L 450.698207 108.761813 
L 450.862293 106.002473 
L 451.026378 107.282633 
L 451.190464 106.88391 
L 451.68272 100.080238 
L 451.846806 102.434274 
L 452.174977 103.048483 
L 452.339062 99.161738 
L 452.503148 97.9617 
L 452.667233 97.686961 
L 452.831319 98.496112 
L 452.995405 98.147173 
L 453.323576 101.209189 
L 453.651747 96.726074 
L 453.815832 96.129883 
L 454.144003 92.853081 
L 454.472174 97.410359 
L 454.800345 94.582169 
L 455.292602 100.739099 
L 455.620773 102.757561 
L 455.784858 104.296698 
L 456.11303 101.494833 
L 456.277115 102.469383 
L 456.441201 105.123184 
L 456.769372 99.876134 
L 456.933457 100.303802 
L 457.097543 101.660454 
L 457.261628 101.728637 
L 457.425714 102.427662 
L 457.589799 99.39631 
L 457.753885 100.164959 
L 457.91797 102.796378 
L 458.082056 101.42623 
L 458.246141 101.306165 
L 458.410227 101.566014 
L 458.902483 106.401225 
L 459.066569 106.145411 
L 459.230654 106.975133 
L 459.39474 109.959093 
L 459.558826 108.594619 
L 459.722911 108.256995 
L 460.051082 109.779781 
L 460.215168 109.065551 
L 460.379253 105.058937 
L 460.543339 106.239876 
L 460.707424 106.181904 
L 460.87151 107.529512 
L 461.199681 103.066124 
L 461.363766 102.435154 
L 461.527852 100.331235 
L 461.691937 99.873478 
L 461.856023 97.70023 
L 462.020108 99.286174 
L 462.512365 94.050532 
L 462.840536 94.364798 
L 463.004622 95.680195 
L 463.168707 101.897834 
L 463.332793 101.513096 
L 463.496878 102.39838 
L 463.825049 101.101513 
L 464.15322 105.219238 
L 464.317306 105.671896 
L 464.645477 107.706504 
L 464.809562 101.253844 
L 465.137733 107.146656 
L 465.301819 106.801511 
L 465.465904 108.195888 
L 465.62999 106.121255 
L 465.794075 107.082528 
L 466.122247 105.568058 
L 466.286332 105.726312 
L 466.450418 109.084409 
L 466.942674 100.98312 
L 467.10676 99.013995 
L 467.270845 102.321702 
L 467.599016 99.28404 
L 467.763102 97.304484 
L 467.927187 97.370834 
L 468.091273 94.864694 
L 468.419444 97.199335 
L 468.747615 98.470828 
L 469.075786 96.77995 
L 469.403957 103.822758 
L 469.568043 101.386663 
L 469.732128 100.69274 
L 469.896214 97.801976 
L 470.060299 98.691186 
L 470.38847 96.350703 
L 470.716641 92.74937 
L 470.880727 90.696089 
L 471.044812 86.942343 
L 471.372983 90.065243 
L 471.537069 90.334099 
L 471.86524 87.097158 
L 472.193411 86.179464 
L 472.357496 88.157264 
L 472.521582 86.71463 
L 472.685668 86.590349 
L 472.849753 84.676871 
L 473.013839 84.11833 
L 473.834266 92.947451 
L 473.998352 92.045882 
L 474.162437 94.627064 
L 474.326523 94.990738 
L 474.490608 96.333147 
L 474.654694 96.408679 
L 474.818779 101.624751 
L 474.982865 100.398087 
L 475.311036 96.009423 
L 475.475121 99.473906 
L 475.803293 99.445924 
L 475.967378 99.794406 
L 476.131464 96.65426 
L 476.295549 97.424577 
L 476.459635 92.519771 
L 476.62372 92.713226 
L 476.951891 95.519971 
L 477.444148 93.820991 
L 477.772319 95.262689 
L 477.936404 93.53144 
L 478.264575 95.751953 
L 478.428661 94.613425 
L 478.756832 88.894742 
L 479.085003 95.685402 
L 479.249089 95.379811 
L 479.413174 96.248778 
L 479.57726 97.934382 
L 479.741345 95.460375 
L 479.905431 97.061454 
L 480.069516 99.863231 
L 480.397687 107.652447 
L 481.054029 97.785642 
L 481.3822 102.967061 
L 481.546286 103.3755 
L 482.038542 93.924862 
L 482.202628 94.467553 
L 482.530799 96.963246 
L 482.694885 98.423885 
L 482.85897 93.380959 
L 483.187141 90.834521 
L 483.515312 97.78623 
L 483.679398 97.879962 
L 483.843483 101.716059 
L 484.33574 95.727656 
L 484.663911 98.275465 
L 484.992082 95.10031 
L 485.156167 96.814915 
L 485.320253 96.357193 
L 485.484338 94.566732 
L 485.648424 95.125028 
L 486.140681 103.372762 
L 486.304766 101.101718 
L 486.468852 101.954384 
L 486.632937 100.755717 
L 486.797023 96.972744 
L 487.125194 94.97041 
L 487.289279 94.530004 
L 487.61745 89.12212 
L 487.781536 92.436018 
L 487.945621 92.219798 
L 488.109707 90.978642 
L 488.273792 91.871586 
L 488.437878 92.132335 
L 488.601963 95.675164 
L 488.766049 93.527807 
L 489.09422 96.707577 
L 489.258306 101.501193 
L 489.422391 95.987368 
L 489.586477 95.520971 
L 489.750562 96.381617 
L 489.914648 93.346952 
L 490.078733 93.210696 
L 490.242819 91.155611 
L 490.406904 90.664702 
L 490.735075 86.647763 
L 490.899161 80.804955 
L 491.063246 81.439994 
L 491.555503 84.866021 
L 491.883674 81.70852 
L 492.375931 90.043966 
L 492.540016 89.736517 
L 492.704102 90.378851 
L 493.032273 86.638467 
L 493.196358 87.829617 
L 493.360444 87.566798 
L 493.524529 90.695567 
L 493.8527 86.592041 
L 494.016786 83.032357 
L 494.180871 86.275994 
L 494.344957 85.460184 
L 494.509042 85.588556 
L 494.673128 85.252128 
L 494.837213 85.323756 
L 495.001299 84.867188 
L 495.165384 83.2589 
L 495.32947 82.947605 
L 495.493556 82.386918 
L 495.657641 83.773602 
L 495.985812 79.023525 
L 496.149898 79.690709 
L 496.313983 82.749451 
L 496.478069 82.399804 
L 496.642154 85.559137 
L 496.970325 83.61603 
L 497.462582 87.348374 
L 497.626667 90.43697 
L 497.790753 89.292978 
L 498.118924 82.997846 
L 498.283009 80.99968 
L 498.61118 82.667695 
L 498.939352 79.532951 
L 499.103437 81.786059 
L 499.267523 78.531937 
L 499.759779 85.445729 
L 499.923865 85.344352 
L 500.08795 84.480073 
L 500.252036 84.939022 
L 500.416121 86.224055 
L 500.580207 85.622327 
L 500.744292 84.260226 
L 501.072463 87.03167 
L 501.236549 85.861655 
L 501.400634 86.555086 
L 501.56472 86.178441 
L 501.728805 88.18244 
L 502.056977 89.290583 
L 502.221062 86.99661 
L 502.385148 87.310755 
L 502.549233 86.380279 
L 502.713319 82.948501 
L 502.877404 82.018026 
L 503.04149 85.515477 
L 503.205575 86.414058 
L 503.533746 83.26558 
L 503.861917 90.014565 
L 504.026003 87.989175 
L 504.190088 88.090755 
L 504.354174 87.979631 
L 504.518259 87.575066 
L 504.84643 80.787395 
L 505.010516 79.717309 
L 505.174601 84.693978 
L 505.502773 79.257254 
L 505.666858 79.416235 
L 505.830944 84.706923 
L 505.995029 83.848023 
L 506.159115 82.099862 
L 506.3232 81.774371 
L 506.487286 81.118351 
L 506.651371 79.805663 
L 506.815457 75.708063 
L 506.979542 80.87818 
L 507.143628 79.430564 
L 507.307713 79.043205 
L 507.471799 73.91763 
L 507.635884 75.351059 
L 507.79997 80.459525 
L 508.128141 82.869703 
L 508.456312 88.479602 
L 508.620398 84.307844 
L 508.784483 84.03877 
L 508.948569 87.582036 
L 509.27674 86.426811 
L 509.440825 85.742257 
L 509.604911 83.400414 
L 509.933082 92.385705 
L 510.097167 89.816837 
L 510.261253 89.511809 
L 510.589424 93.637568 
L 510.753509 94.175945 
L 510.917595 95.995052 
L 511.08168 95.333867 
L 511.245766 100.274288 
L 511.573937 94.673471 
L 511.738022 98.561071 
L 511.902108 98.995139 
L 512.066194 96.862201 
L 512.230279 92.82437 
L 512.394365 94.065429 
L 512.55845 94.432208 
L 512.722536 95.317032 
L 512.886621 92.077493 
L 513.050707 91.218996 
L 513.214792 92.175816 
L 513.378878 88.455639 
L 513.542963 92.554232 
L 513.707049 92.813415 
L 514.03522 97.597748 
L 514.363391 95.807937 
L 514.527476 96.750648 
L 515.019733 92.862767 
L 515.183819 87.036075 
L 515.347904 86.205423 
L 516.004246 73.793313 
L 516.332417 76.1762 
L 516.496503 74.441032 
L 516.988759 89.541576 
L 517.645101 98.313895 
L 517.809187 97.352518 
L 517.973272 98.770184 
L 518.137358 102.379407 
L 518.629615 89.014036 
L 518.7937 90.050487 
L 519.285957 81.85512 
L 519.450042 78.952887 
L 519.614128 82.9719 
L 519.778213 79.487224 
L 519.942299 80.528068 
L 520.106384 78.543106 
L 520.27047 80.31894 
L 520.434555 77.696424 
L 520.598641 79.232047 
L 520.762726 78.058492 
L 521.090897 81.480003 
L 521.254983 75.732922 
L 521.419068 77.604516 
L 521.583154 76.771807 
L 521.74724 80.045845 
L 521.911325 80.281821 
L 522.075411 83.3848 
L 522.239496 84.170941 
L 522.731753 91.147929 
L 523.059924 87.401316 
L 523.224009 88.293529 
L 523.55218 84.374798 
L 523.716266 86.00669 
L 523.880351 86.025536 
L 524.208522 80.925239 
L 524.372608 81.056178 
L 524.536693 83.525827 
L 524.700779 88.307566 
L 524.864864 89.464585 
L 525.02895 95.183682 
L 525.193036 96.295332 
L 525.357121 92.823758 
L 525.521207 91.766861 
L 525.685292 94.993611 
L 525.849378 94.438572 
L 526.177549 90.48467 
L 526.669805 75.443093 
L 526.833891 75.098726 
L 527.162062 71.803055 
L 527.326147 72.251698 
L 527.490233 76.11117 
L 527.654318 74.213264 
L 528.146575 79.666186 
L 528.310661 85.58487 
L 528.474746 84.713771 
L 528.802917 86.850141 
L 528.967003 85.717085 
L 529.295174 82.938744 
L 529.459259 81.351246 
L 529.623345 82.180121 
L 530.115601 74.246264 
L 530.279687 74.117447 
L 530.607858 71.927319 
L 530.771943 72.185452 
L 531.100114 75.79241 
L 531.592371 74.470612 
L 531.756457 75.124779 
L 531.920542 73.941211 
L 532.084628 74.060446 
L 532.248713 73.66507 
L 532.74097 67.151588 
L 533.069141 74.234296 
L 533.233226 70.799091 
L 533.397312 70.870195 
L 533.725483 72.4333 
L 533.889568 71.228738 
L 534.053654 71.04668 
L 534.54591 72.836228 
L 534.709996 71.002631 
L 534.874082 70.955929 
L 535.038167 70.07089 
L 535.202253 68.35615 
L 535.366338 67.859783 
L 535.694509 71.325783 
L 535.858595 71.008949 
L 536.02268 72.230038 
L 536.186766 67.25317 
L 536.350851 66.549446 
L 536.679022 70.070905 
L 537.171279 79.258191 
L 537.663535 75.041405 
L 537.827621 74.885922 
L 538.155792 70.112805 
L 538.319878 67.91338 
L 538.648049 68.546947 
L 538.812134 64.230335 
L 538.97622 65.455913 
L 539.632562 81.630782 
L 539.796647 82.320927 
L 539.960733 87.490084 
L 540.288904 83.604571 
L 540.452989 85.578685 
L 540.617075 90.897476 
L 540.945246 84.257128 
L 541.109331 86.897133 
L 541.273417 81.407519 
L 541.437503 81.853767 
L 541.765674 77.935845 
L 541.929759 81.285863 
L 542.093845 81.018845 
L 542.25793 75.879155 
L 542.422016 78.022714 
L 542.586101 77.161444 
L 542.750187 72.018174 
L 542.914272 74.093662 
L 543.078358 74.168048 
L 543.242443 73.3672 
L 543.406529 73.595796 
L 543.570614 71.490434 
L 543.7347 72.949719 
L 543.898785 72.393576 
L 544.062871 72.882975 
L 544.226956 74.624101 
L 544.391042 75.172853 
L 544.555127 77.299955 
L 544.719213 77.449507 
L 545.21147 81.388173 
L 545.375555 76.400016 
L 545.539641 77.828182 
L 545.703726 74.18184 
L 546.195983 72.367282 
L 546.360068 71.099656 
L 546.688239 66.899419 
L 546.852325 64.374169 
L 547.01641 69.940275 
L 547.180496 68.509074 
L 547.672752 74.847098 
L 547.836838 76.688809 
L 548.000924 76.171879 
L 548.165009 76.440713 
L 548.329095 78.267106 
L 548.49318 83.330026 
L 548.657266 80.134794 
L 548.821351 80.491011 
L 549.149522 77.620137 
L 549.313608 78.640374 
L 549.477693 74.707601 
L 549.641779 75.112657 
L 549.805864 73.616815 
L 550.134035 64.323634 
L 550.298121 64.338001 
L 550.462206 65.433599 
L 550.626292 68.455872 
L 550.790377 69.33485 
L 551.118548 66.796684 
L 551.610805 74.851906 
L 551.774891 75.033519 
L 551.938976 78.561051 
L 552.103062 75.55157 
L 552.267147 75.708339 
L 552.595318 72.819869 
L 552.759404 72.937882 
L 552.923489 70.572692 
L 553.087575 71.005183 
L 553.25166 73.774073 
L 553.415746 72.715297 
L 553.579831 66.495944 
L 553.743917 67.256239 
L 554.072088 63.968116 
L 554.236173 65.661455 
L 554.400259 68.517256 
L 554.72843 67.055171 
L 554.892516 61.789365 
L 555.056601 64.462771 
L 555.220687 64.585038 
L 555.384772 63.578218 
L 555.548858 63.433558 
L 555.712943 64.165098 
L 555.877029 66.614805 
L 556.041114 63.446127 
L 556.2052 64.070866 
L 556.369285 62.60724 
L 556.697456 65.515859 
L 557.025627 71.469862 
L 557.189713 70.642827 
L 557.353798 71.364158 
L 557.517884 70.035704 
L 557.681969 70.669878 
L 558.010141 76.461731 
L 558.174226 77.745205 
L 558.338312 76.693096 
L 558.502397 76.542658 
L 558.666483 75.013633 
L 558.830568 75.632408 
L 559.158739 78.232333 
L 559.322825 77.356124 
L 559.48691 77.919165 
L 559.650996 75.337269 
L 559.815081 75.595393 
L 559.979167 72.928287 
L 560.143252 72.548984 
L 560.471423 69.686846 
L 560.635509 67.323816 
L 560.799594 63.300504 
L 560.96368 64.491522 
L 561.127766 61.26074 
L 561.291851 67.834667 
L 561.784108 72.040075 
L 561.948193 71.67229 
L 562.112279 71.808435 
L 562.276364 71.67103 
L 562.604535 70.361275 
L 562.768621 72.699411 
L 562.932706 65.708633 
L 563.260877 63.263361 
L 563.424963 64.226147 
L 563.589048 63.836876 
L 563.753134 64.889637 
L 563.917219 67.054342 
L 564.081305 67.330174 
L 564.24539 65.866774 
L 564.409476 61.616638 
L 564.573562 61.667874 
L 564.737647 59.360735 
L 564.901733 60.550008 
L 565.065818 56.578155 
L 565.229904 56.919638 
L 565.393989 55.972767 
L 565.558075 58.436919 
L 565.72216 58.58069 
L 566.050331 62.124933 
L 566.214417 62.574121 
L 566.378502 67.468552 
L 566.542588 68.525596 
L 566.706673 70.660533 
L 566.870759 70.091464 
L 567.034844 72.210981 
L 567.19893 67.807552 
L 567.363015 68.218048 
L 567.855272 77.510012 
L 568.183443 71.353953 
L 568.511614 82.701946 
L 568.6757 87.102086 
L 569.003871 89.932508 
L 569.332042 83.825891 
L 569.496127 83.639702 
L 569.660213 84.570669 
L 569.824298 90.032491 
L 569.988384 80.158745 
L 570.152469 80.251332 
L 570.316555 76.80417 
L 570.48064 76.126486 
L 570.644726 75.954885 
L 570.972897 73.207936 
L 571.136983 72.73701 
L 571.301068 71.617601 
L 571.465154 66.901486 
L 571.629239 66.038768 
L 571.95741 62.933616 
L 572.121496 61.537887 
L 572.285581 61.192771 
L 572.613752 65.509197 
L 572.777838 65.422142 
L 572.941923 65.208795 
L 573.106009 67.501573 
L 573.598265 64.388976 
L 573.762351 64.356744 
L 573.926436 64.072113 
L 574.254608 59.765105 
L 574.418693 65.05411 
L 574.582779 65.549188 
L 574.746864 64.034006 
L 575.239121 72.532989 
L 575.403206 75.577619 
L 575.567292 74.203307 
L 575.731377 74.899557 
L 575.895463 76.394793 
L 576.059548 69.364751 
L 576.223634 68.093088 
L 576.387719 69.385241 
L 576.551805 71.875426 
L 576.71589 71.730197 
L 576.879976 65.111146 
L 577.044061 65.085659 
L 577.208147 68.399632 
L 577.372232 69.134909 
L 577.536318 67.025223 
L 577.700404 67.429107 
L 577.864489 72.468869 
L 578.028575 70.327369 
L 578.19266 66.41333 
L 578.356746 69.263461 
L 578.520831 77.27198 
L 578.684917 78.119128 
L 579.013088 75.401432 
L 579.177173 75.432523 
L 579.341259 82.760499 
L 579.505344 80.654678 
L 579.833515 84.424545 
L 579.997601 83.940141 
L 580.489857 74.255301 
L 580.653943 74.255301 
L 580.818029 74.094469 
L 580.982114 67.351688 
L 581.1462 66.604434 
L 581.638456 57.764463 
L 581.802542 57.923448 
L 582.130713 60.123638 
L 582.294798 60.834482 
L 582.458884 59.770855 
L 582.622969 62.196459 
L 582.787055 59.218434 
L 582.95114 60.039407 
L 583.115226 59.965271 
L 583.279311 60.874869 
L 583.607482 63.677114 
L 583.771568 63.708043 
L 583.935653 65.045917 
L 584.263825 70.304504 
L 584.756081 77.619097 
L 584.920167 77.563457 
L 585.248338 70.676729 
L 585.412423 71.543325 
L 585.576509 69.765404 
L 585.740594 71.207576 
L 585.90468 68.290507 
L 586.068765 69.783895 
L 586.232851 69.101021 
L 586.396936 64.927038 
L 586.561022 65.451413 
L 586.725107 63.674487 
L 586.889193 63.749994 
L 587.053278 65.645118 
L 587.217364 63.921037 
L 587.873706 53.868824 
L 588.037792 54.059513 
L 588.201877 52.008118 
L 588.365963 58.566582 
L 588.530048 59.796121 
L 588.694134 57.888731 
L 588.858219 60.513062 
L 589.022305 58.996997 
L 589.18639 61.480916 
L 589.350476 68.546321 
L 589.514561 67.307813 
L 589.678647 70.003799 
L 589.842732 75.76268 
L 590.006818 70.582656 
L 590.170903 74.280915 
L 590.499074 71.823916 
L 590.66316 71.86747 
L 590.827246 72.40042 
L 590.991331 66.671472 
L 591.319502 66.016208 
L 591.483588 61.308959 
L 591.647673 62.232072 
L 591.811759 59.004246 
L 591.975844 61.273264 
L 592.304015 66.882754 
L 592.468101 65.915619 
L 592.796272 70.338253 
L 592.960357 68.787562 
L 593.124443 69.729378 
L 593.288528 76.013013 
L 593.452614 75.95705 
L 593.616699 76.304734 
L 593.780785 74.174799 
L 593.944871 77.230943 
L 594.108956 76.712122 
L 594.273042 75.008089 
L 594.437127 77.942705 
L 594.601213 77.739018 
L 594.765298 76.875544 
L 594.929384 69.010294 
L 595.093469 68.024993 
L 595.257555 70.736524 
L 595.585726 64.707481 
L 595.749811 67.333418 
L 595.913897 67.935051 
L 596.077982 64.066571 
L 596.570239 77.559645 
L 596.734324 78.144492 
L 596.89841 75.628549 
L 597.226581 81.992893 
L 597.390667 85.096674 
L 597.554752 83.207514 
L 597.718838 85.268589 
L 598.211094 70.95797 
L 598.37518 69.614497 
L 598.539265 66.390543 
L 598.703351 69.826644 
L 598.867436 69.059949 
L 599.031522 62.607892 
L 599.359693 63.361784 
L 599.523778 65.06541 
L 599.687864 69.581451 
L 599.851949 70.774826 
L 600.18012 71.338177 
L 600.508292 61.115093 
L 600.672377 66.617923 
L 600.836463 67.253095 
L 601.000548 63.395406 
L 601.164634 63.360134 
L 601.328719 60.812794 
L 601.492805 60.667556 
L 601.985061 57.936108 
L 602.149147 58.356101 
L 602.313232 55.137414 
L 602.477318 55.320226 
L 602.641403 57.305962 
L 602.805489 57.700797 
L 602.969574 59.181399 
L 603.13366 57.608191 
L 603.790002 62.367098 
L 603.954088 61.360327 
L 604.282259 57.111176 
L 604.446344 56.796109 
L 604.61043 53.95803 
L 605.102686 53.338058 
L 605.430857 55.770076 
L 605.594943 54.648148 
L 605.759028 64.421174 
L 605.923114 66.324396 
L 606.087199 65.096395 
L 606.579456 72.526417 
L 606.743541 71.499427 
L 606.907627 71.600107 
L 607.071713 71.504825 
L 607.235798 74.737692 
L 607.399884 66.943753 
L 607.563969 66.207178 
L 607.728055 66.265014 
L 607.89214 68.587922 
L 608.056226 65.835431 
L 608.220311 61.015658 
L 608.384397 62.05786 
L 608.876653 54.617063 
L 609.040739 54.666256 
L 609.204824 56.611165 
L 609.36891 56.025243 
L 609.532995 51.434797 
L 609.861166 54.098495 
L 610.025252 57.344507 
L 610.189337 58.10059 
L 610.353423 58.283422 
L 610.517509 57.736671 
L 610.681594 58.940961 
L 611.009765 55.583584 
L 611.337936 64.225088 
L 611.502022 63.867922 
L 611.830193 55.075648 
L 612.486535 50.696214 
L 612.65062 51.583824 
L 612.814706 50.642214 
L 612.978791 44.929331 
L 613.142877 44.929331 
L 613.471048 48.526474 
L 613.799219 56.71872 
L 613.963305 54.822282 
L 614.12739 54.400076 
L 614.291476 55.741599 
L 614.455561 51.595144 
L 614.619647 51.204639 
L 614.783732 51.251069 
L 614.947818 51.66792 
L 615.111903 53.562527 
L 615.275989 47.553043 
L 615.440074 52.688872 
L 615.60416 51.430257 
L 615.932331 55.926923 
L 616.096416 58.873085 
L 616.260502 59.394501 
L 616.424587 58.957052 
L 616.588673 59.027035 
L 616.752758 57.00635 
L 616.916844 59.622598 
L 617.08093 57.221557 
L 617.245015 62.948164 
L 617.409101 63.023414 
L 617.573186 57.792997 
L 617.901357 56.47638 
L 618.229528 57.75652 
L 618.393614 60.392124 
L 618.721785 59.46643 
L 618.88587 57.736397 
L 619.049956 62.568869 
L 619.542212 67.557601 
L 619.706298 66.969848 
L 619.870383 67.249705 
L 620.034469 64.434482 
L 620.198555 72.71798 
L 620.36264 72.213166 
L 620.526726 70.378436 
L 620.690811 70.339604 
L 620.854897 73.953064 
L 621.018982 72.266062 
L 621.347153 81.062763 
L 621.511239 80.440083 
L 621.675324 83.909046 
L 621.83941 79.149246 
L 622.003495 77.794086 
L 622.167581 79.919242 
L 622.495752 74.18299 
L 622.659837 75.715387 
L 622.823923 69.84659 
L 622.988008 70.966123 
L 623.316179 69.83355 
L 623.480265 66.938844 
L 623.644351 66.829723 
L 623.808436 64.72065 
L 624.136607 69.981253 
L 624.628864 63.706728 
L 624.792949 63.8665 
L 624.957035 61.378088 
L 625.12112 63.321165 
L 625.285206 61.217655 
L 625.613377 60.151361 
L 625.777462 56.471184 
L 625.941548 60.136872 
L 626.105633 67.422279 
L 626.269719 68.509129 
L 626.433804 73.635345 
L 626.59789 73.554706 
L 626.761976 69.549743 
L 626.926061 69.646198 
L 627.090147 70.6438 
L 627.746489 56.675357 
L 627.910574 57.730227 
L 628.07466 52.646302 
L 628.566916 58.685382 
L 628.731002 58.150411 
L 628.895087 59.005681 
L 629.059173 62.715319 
L 629.387344 60.771993 
L 629.551429 57.43582 
L 629.715515 60.45749 
L 629.8796 57.278933 
L 630.043686 57.69107 
L 630.207772 60.357274 
L 630.371857 58.515957 
L 630.535943 58.092888 
L 630.700028 54.240288 
L 630.864114 55.730248 
L 631.35637 50.091282 
L 631.520456 53.048556 
L 631.684541 51.572326 
L 631.848627 47.727808 
L 632.012712 50.949358 
L 632.176798 49.929127 
L 632.340883 58.52032 
L 632.504969 57.178079 
L 632.997225 63.154984 
L 633.161311 61.554713 
L 633.489482 67.348063 
L 633.817653 65.563433 
L 633.981739 57.50395 
L 634.30991 59.844822 
L 634.473995 59.677589 
L 634.966252 50.621647 
L 635.130337 49.337538 
L 635.458508 51.961644 
L 635.622594 51.564394 
L 635.786679 51.942381 
L 636.11485 48.763947 
L 636.278936 53.757996 
L 636.443021 53.203194 
L 636.607107 56.151731 
L 636.935278 52.225668 
L 637.099364 52.542641 
L 637.263449 53.41514 
L 637.755706 48.501676 
L 637.919791 44.91388 
L 638.412048 50.664537 
L 638.576133 50.671007 
L 638.904304 49.581621 
L 639.06839 49.749181 
L 639.232475 54.923739 
L 639.560646 55.637084 
L 639.724732 54.814744 
L 639.888818 49.557717 
L 640.052903 50.456165 
L 640.54516 49.396701 
L 640.873331 46.561189 
L 641.037416 49.765023 
L 641.201502 48.995212 
L 641.529673 56.024124 
L 641.857844 53.272993 
L 642.3501 62.366591 
L 642.678271 58.830102 
L 642.842357 63.801619 
L 643.006442 59.10861 
L 643.170528 58.721782 
L 643.498699 56.605776 
L 643.662785 58.566452 
L 643.82687 58.332979 
L 643.990956 57.050655 
L 644.155041 57.327056 
L 644.319127 55.042965 
L 644.483212 50.601254 
L 644.647298 53.018768 
L 644.811383 50.905928 
L 645.139554 61.686876 
L 645.30364 60.324963 
L 645.467725 60.425702 
L 645.795896 63.896291 
L 646.124067 73.253205 
L 646.616324 67.069721 
L 646.78041 67.943082 
L 647.764923 55.958741 
L 648.257179 65.281119 
L 648.421265 62.713959 
L 648.913521 64.918459 
L 649.077607 66.902468 
L 649.241692 67.227294 
L 649.405778 64.864594 
L 649.569863 66.640368 
L 649.733949 63.785638 
L 649.898035 63.339569 
L 650.226206 56.911848 
L 650.554377 59.993388 
L 650.718462 59.215402 
L 650.882548 59.375812 
L 651.046633 60.043109 
L 651.210719 57.696085 
L 651.374804 60.476518 
L 651.53889 59.314389 
L 651.867061 63.732923 
L 652.195232 59.094789 
L 652.359317 58.029296 
L 652.523403 55.280016 
L 652.687488 54.462693 
L 652.851574 56.397654 
L 653.01566 56.242618 
L 653.179745 55.378593 
L 653.343831 52.400804 
L 653.672002 51.100237 
L 653.836087 50.642064 
L 654.000173 51.798979 
L 654.164258 51.867801 
L 654.328344 55.611409 
L 654.656515 47.412201 
L 654.8206 50.308588 
L 654.984686 50.317572 
L 655.148771 51.93739 
L 655.312857 51.224091 
L 655.476942 48.298122 
L 655.641028 48.467872 
L 655.805113 51.269648 
L 655.969199 51.717196 
L 656.29737 57.743802 
L 656.461456 56.18403 
L 656.625541 62.854664 
L 656.789627 60.218571 
L 657.117798 65.104798 
L 657.281883 65.70521 
L 657.445969 65.423482 
L 657.610054 62.393162 
L 657.77414 61.958853 
L 657.938225 60.016874 
L 658.102311 62.177997 
L 658.266396 57.691866 
L 658.430482 59.48732 
L 658.594567 57.457471 
L 658.758653 61.767367 
L 659.250909 53.660768 
L 659.414995 56.508108 
L 659.907252 52.250248 
L 660.071337 53.861664 
L 660.235423 53.925661 
L 660.399508 51.514399 
L 660.563594 53.99548 
L 660.891765 60.836846 
L 661.05585 57.888757 
L 661.384021 59.441089 
L 661.548107 62.939991 
L 661.712192 59.341864 
L 661.876278 60.292806 
L 662.040363 58.048401 
L 662.204449 57.388591 
L 662.53262 49.36215 
L 662.696705 49.130037 
L 663.024877 52.697062 
L 663.188962 47.799582 
L 663.353048 51.183532 
L 663.681219 48.360598 
L 663.845304 48.6282 
L 664.00939 50.733441 
L 664.173475 51.401963 
L 664.337561 53.967061 
L 664.501646 52.829994 
L 664.665732 48.529563 
L 664.829817 50.43066 
L 664.993903 48.319948 
L 665.322074 50.316623 
L 665.486159 54.858629 
L 665.650245 55.973848 
L 665.81433 61.451203 
L 666.142502 58.468899 
L 666.306587 57.775165 
L 666.634758 53.453216 
L 666.962929 53.134922 
L 667.127015 51.80663 
L 667.2911 53.892533 
L 667.455186 49.642789 
L 667.619271 50.590753 
L 667.947442 56.755797 
L 668.111528 59.414248 
L 668.439699 69.315273 
L 668.603784 69.796608 
L 668.931955 62.86312 
L 669.096041 64.685032 
L 670.080554 48.894506 
L 670.24464 52.459474 
L 670.572811 54.278444 
L 670.736896 52.130454 
L 670.900982 53.106322 
L 671.065067 53.288059 
L 671.229153 53.046884 
L 671.393238 57.274283 
L 671.557324 55.027782 
L 671.721409 55.832136 
L 671.885495 53.169607 
L 672.04958 56.261018 
L 672.213666 55.466127 
L 672.541837 57.3284 
L 672.870008 53.065278 
L 673.034094 55.2543 
L 673.198179 55.698772 
L 673.362265 52.963485 
L 673.52635 52.275656 
L 673.690436 46.161819 
L 673.854521 48.037931 
L 674.018607 47.850269 
L 674.346778 48.769963 
L 674.510863 52.857268 
L 674.674949 50.021491 
L 674.839034 51.272344 
L 675.167205 55.879046 
L 675.331291 57.586951 
L 675.495376 55.147822 
L 675.659462 56.757533 
L 675.823547 54.356471 
L 675.987633 54.249182 
L 676.315804 47.437644 
L 676.47989 46.93036 
L 676.643975 44.638241 
L 676.808061 44.755136 
L 676.972146 45.65745 
L 677.136232 47.896005 
L 677.300317 46.350383 
L 677.464403 49.325767 
L 677.628488 48.528585 
L 677.956659 55.116497 
L 678.120745 53.029406 
L 678.28483 54.446029 
L 678.777087 48.384119 
L 678.941172 49.31673 
L 679.105258 48.178644 
L 679.269344 48.178644 
L 679.7616 41.686041 
L 680.253857 44.760238 
L 680.417942 45.362722 
L 680.582028 44.266171 
L 680.746113 44.034903 
L 680.910199 49.978508 
L 681.074284 48.275693 
L 681.402455 49.58773 
L 681.566541 49.715972 
L 681.730626 48.130409 
L 681.894712 49.133325 
L 682.058797 54.591583 
L 682.222883 52.644825 
L 682.386968 54.857004 
L 682.551054 51.441634 
L 682.879225 54.749909 
L 683.043311 57.538508 
L 683.207396 58.086097 
L 683.371482 60.460769 
L 683.535567 57.486678 
L 683.699653 50.845069 
L 683.863738 51.194889 
L 684.027824 50.691192 
L 684.355995 47.1364 
L 684.52008 48.390081 
L 684.848251 43.438864 
L 685.668679 56.849005 
L 685.832765 57.912745 
L 685.99685 62.227503 
L 686.160936 59.713593 
L 686.489107 64.768274 
L 686.653192 61.10822 
L 686.817278 60.793542 
L 687.145449 54.954633 
L 687.47362 51.431871 
L 687.637705 50.163237 
L 687.801791 53.524773 
L 687.965876 50.644938 
L 688.294047 49.395388 
L 688.458133 51.284957 
L 689.278561 43.43072 
L 689.442646 39.353939 
L 689.606732 44.180866 
L 689.934903 41.184688 
L 690.098988 42.479132 
L 690.263074 48.816299 
L 690.427159 49.201296 
L 690.591245 51.283235 
L 690.919416 57.918333 
L 691.083501 58.52871 
L 691.247587 58.459308 
L 691.411672 59.676194 
L 691.575758 63.473711 
L 691.903929 56.161019 
L 692.068014 54.563026 
L 692.2321 54.243941 
L 692.560271 46.579601 
L 692.724357 46.125063 
L 693.216613 38.453032 
L 693.380699 38.893375 
L 693.70887 41.923921 
L 693.872955 40.232209 
L 694.037041 44.902762 
L 694.201126 45.573808 
L 695.021554 57.058375 
L 695.349725 53.427698 
L 695.51381 56.651554 
L 695.677896 52.373451 
L 695.841982 53.727728 
L 696.006067 52.511362 
L 696.334238 47.309336 
L 696.498324 47.540465 
L 696.662409 46.359389 
L 696.99058 53.382178 
L 697.154666 50.229182 
L 697.318751 52.246056 
L 697.646922 48.944543 
L 697.811008 50.797562 
L 697.975093 50.170766 
L 698.139179 47.365357 
L 698.303264 49.390149 
L 698.46735 45.023549 
L 698.631435 45.532525 
L 698.959607 50.924833 
L 699.123692 52.736109 
L 699.287778 52.668632 
L 699.451863 52.266391 
L 699.615949 58.606463 
L 699.780034 60.31154 
L 700.108205 55.480171 
L 700.600462 50.81554 
L 700.764547 52.0176 
L 701.092718 49.12115 
L 701.420889 40.492151 
L 701.74906 45.181955 
L 701.913146 44.504674 
L 702.241317 50.031888 
L 702.405403 49.659735 
L 702.569488 49.73552 
L 702.733574 51.250021 
L 702.897659 51.220025 
L 703.061745 54.427635 
L 703.22583 51.031061 
L 703.389916 50.139147 
L 703.554001 50.246231 
L 704.046258 40.230223 
L 704.210343 40.789296 
L 704.374429 37.808418 
L 704.538514 41.411003 
L 704.7026 40.526329 
L 704.866685 41.731963 
L 705.030771 41.671608 
L 705.194856 44.194403 
L 705.358942 42.605954 
L 705.523028 42.409939 
L 705.687113 43.881684 
L 705.851199 44.289675 
L 706.015284 45.123951 
L 706.343455 40.636002 
L 706.507541 41.664543 
L 706.671626 40.82149 
L 706.835712 38.588849 
L 706.999797 38.517429 
L 707.327968 45.05884 
L 707.492054 45.986904 
L 707.820225 45.014412 
L 707.98431 47.964162 
L 708.148396 44.944235 
L 708.312481 47.3526 
L 708.476567 45.67018 
L 708.640652 51.87478 
L 708.804738 51.313859 
L 708.968824 47.714874 
L 709.132909 47.159185 
L 709.296995 49.400551 
L 709.46108 59.753702 
L 709.789251 66.794563 
L 709.953337 65.757527 
L 710.117422 67.493186 
L 710.281508 62.644553 
L 710.445593 62.541001 
L 710.609679 64.517993 
L 710.773764 65.125489 
L 710.93785 66.770962 
L 711.266021 54.764243 
L 711.430106 54.81728 
L 711.758277 58.1242 
L 712.086449 54.613521 
L 712.250534 57.180252 
L 712.41462 57.837926 
L 712.578705 56.353415 
L 712.742791 53.371712 
L 712.906876 53.293744 
L 713.399133 46.278485 
L 713.563218 47.012806 
L 713.727304 46.688365 
L 714.055475 39.585185 
L 714.711817 44.489405 
L 715.039988 52.925095 
L 715.204073 52.62018 
L 715.368159 55.088624 
L 715.532245 54.784675 
L 715.69633 55.56732 
L 715.860416 52.16759 
L 716.024501 51.359493 
L 716.188587 47.642021 
L 716.352672 47.040699 
L 716.680843 41.437282 
L 716.844929 42.761735 
L 717.009014 39.383314 
L 717.1731 40.474949 
L 717.337185 43.402241 
L 717.829442 45.887614 
L 717.993527 45.766469 
L 718.485784 41.305416 
L 718.64987 40.627898 
L 718.813955 43.220276 
L 718.978041 39.870313 
L 719.142126 39.935381 
L 719.306212 40.616611 
L 719.470297 42.232821 
L 719.634383 46.852611 
L 719.798468 46.638213 
L 719.962554 48.692086 
L 720.126639 48.323623 
L 720.290725 48.686324 
L 720.45481 46.83508 
L 720.782981 48.891768 
L 720.947067 47.344969 
L 721.111152 50.491548 
L 721.275238 49.579458 
L 721.439323 54.322092 
L 721.603409 51.632937 
L 721.767494 52.209733 
L 721.93158 52.197182 
L 722.095666 49.860173 
L 722.259751 49.793876 
L 722.423837 48.797992 
L 722.587922 49.068826 
L 723.080179 38.783786 
L 723.244264 41.992652 
L 723.40835 42.182322 
L 723.572435 43.882746 
L 723.900606 42.068427 
L 724.064692 42.973854 
L 724.392863 40.905492 
L 724.556948 43.25672 
L 724.721034 41.986116 
L 724.885119 42.342731 
L 725.213291 40.750266 
L 725.377376 44.296828 
L 725.541462 44.150768 
L 725.705547 45.237028 
L 725.869633 45.383842 
L 726.033718 48.01388 
L 726.361889 44.616375 
L 726.525975 43.413337 
L 726.69006 43.763486 
L 726.854146 42.183199 
L 727.018231 39.488764 
L 727.182317 42.386966 
L 727.510488 38.971839 
L 727.674573 35.921444 
L 728.002744 37.516631 
L 728.16683 39.103439 
L 728.330915 42.490602 
L 728.495001 43.221445 
L 728.659087 42.14986 
L 728.987258 38.213927 
L 729.151343 38.939941 
L 729.315429 38.19343 
L 729.479514 36.665814 
L 729.6436 37.126526 
L 730.135856 31.264473 
L 730.628113 36.413015 
L 730.792198 36.503247 
L 730.956284 42.020214 
L 731.120369 42.024866 
L 731.44854 42.541526 
L 731.612626 41.347183 
L 731.776712 47.81555 
L 731.940797 46.744271 
L 732.104883 43.66398 
L 732.268968 44.039699 
L 732.433054 43.159425 
L 732.597139 38.252945 
L 732.761225 38.034021 
L 732.92531 37.397451 
L 733.089396 38.457187 
L 733.253481 43.569735 
L 733.417567 43.217218 
L 733.745738 46.49526 
L 733.909823 46.389301 
L 734.073909 51.078131 
L 734.237994 52.030028 
L 734.566165 57.124928 
L 734.730251 54.791227 
L 735.058422 43.40698 
L 735.222508 42.988344 
L 735.386593 45.65107 
L 735.550679 45.769374 
L 735.714764 41.902978 
L 735.87885 41.102711 
L 736.042935 41.974482 
L 736.207021 39.100602 
L 736.371106 44.256693 
L 736.535192 45.786288 
L 736.863363 52.197843 
L 737.191534 48.613871 
L 737.355619 47.650574 
L 737.519705 49.054152 
L 737.68379 47.913214 
L 737.847876 50.202552 
L 738.011961 45.191661 
L 738.176047 43.734059 
L 738.504218 35.755713 
L 738.832389 34.962482 
L 738.996475 36.529028 
L 739.16056 34.348437 
L 739.488731 36.047466 
L 739.652817 35.762481 
L 739.980988 40.00943 
L 740.145073 40.442992 
L 740.309159 39.95773 
L 740.63733 44.575632 
L 740.801415 44.43363 
L 741.129586 39.305969 
L 741.293672 43.374927 
L 741.457757 43.157886 
L 741.621843 41.544872 
L 741.785929 44.105905 
L 741.950014 44.114788 
L 742.442271 39.527957 
L 742.606356 40.912164 
L 742.934527 36.528026 
L 743.098613 40.392167 
L 743.262698 40.533608 
L 743.426784 38.24253 
L 743.754955 39.82094 
L 743.91904 39.491501 
L 744.083126 41.419311 
L 744.247211 40.553441 
L 744.411297 43.311392 
L 744.575382 43.146007 
L 744.739468 39.793248 
L 744.903554 39.661152 
L 745.067639 39.174842 
L 745.231725 37.013173 
L 745.39581 39.907556 
L 745.723981 36.973945 
L 745.888067 38.86019 
L 746.052152 37.955679 
L 746.216238 39.39801 
L 746.380323 39.422803 
L 746.708494 41.857445 
L 746.87258 46.067386 
L 747.036665 43.72009 
L 747.200751 43.83172 
L 747.364836 45.992385 
L 747.528922 45.66063 
L 747.693007 44.665568 
L 748.021178 40.746224 
L 748.34935 38.216707 
L 748.677521 33.725923 
L 748.841606 34.892364 
L 749.333863 30.094956 
L 749.497948 33.0974 
L 749.662034 33.028459 
L 750.15429 34.834974 
L 750.318376 39.790532 
L 750.482461 40.251107 
L 750.646547 40.285411 
L 750.810632 44.649138 
L 751.138803 46.350212 
L 751.466975 44.041744 
L 751.795146 47.851481 
L 751.959231 42.385878 
L 752.123317 41.041748 
L 752.287402 40.98666 
L 752.451488 36.695793 
L 752.615573 36.425498 
L 752.779659 32.663021 
L 752.943744 39.864325 
L 753.10783 40.352097 
L 753.271915 41.805988 
L 753.436001 38.107429 
L 753.764172 46.424552 
L 754.092343 50.749654 
L 754.256428 51.774093 
L 754.420514 51.246786 
L 754.584599 48.687124 
L 755.076856 54.617733 
L 755.569113 48.217503 
L 755.897284 50.903514 
L 756.061369 55.68723 
L 756.225455 52.793415 
L 756.38954 53.927565 
L 756.553626 50.20025 
L 756.717711 52.731768 
L 756.881797 52.642656 
L 757.209968 57.808799 
L 757.374053 55.668465 
L 757.538139 55.105733 
L 757.702224 50.239774 
L 757.86631 50.72558 
L 758.030396 48.396604 
L 758.194481 51.590195 
L 758.358567 49.20109 
L 758.522652 50.957626 
L 758.686738 50.497264 
L 758.850823 47.628702 
L 759.014909 50.259833 
L 759.178994 50.317514 
L 759.34308 50.927064 
L 759.671251 47.317569 
L 759.999422 48.872636 
L 760.327593 42.082844 
L 760.491678 43.175508 
L 760.655764 39.270042 
L 760.819849 44.205875 
L 760.983935 45.142621 
L 761.14802 46.792203 
L 761.312106 49.59149 
L 761.476192 42.81842 
L 761.640277 41.806882 
L 761.804363 44.347989 
L 761.968448 42.362035 
L 762.296619 59.160443 
L 762.460705 55.4805 
L 762.62479 55.795198 
L 763.117047 62.755947 
L 763.281132 68.598361 
L 763.445218 66.128964 
L 763.609303 68.593967 
L 763.937474 53.18118 
L 764.10156 53.968511 
L 764.265645 53.194725 
L 764.429731 55.009652 
L 764.593817 52.086182 
L 764.757902 53.233429 
L 764.921988 49.880136 
L 765.086073 54.017005 
L 765.57833 58.715553 
L 765.742415 55.846971 
L 765.906501 55.903063 
L 766.070586 51.215142 
L 766.234672 49.872056 
L 767.055099 37.720623 
L 767.219185 36.94091 
L 767.38327 38.117658 
L 767.711441 43.887821 
L 767.875527 44.954329 
L 768.367784 41.433666 
L 768.531869 42.941611 
L 768.695955 49.442942 
L 768.86004 50.556347 
L 769.024126 49.424771 
L 769.188211 45.324661 
L 769.516382 43.447827 
L 769.844553 44.472814 
L 770.008639 43.482876 
L 770.172724 40.561035 
L 770.33681 34.868639 
L 770.664981 36.515267 
L 770.829066 34.705207 
L 771.157238 38.693001 
L 771.485409 39.093772 
L 771.649494 40.908226 
L 771.81358 40.172199 
L 771.977665 42.188462 
L 772.141751 37.148853 
L 772.469922 43.341468 
L 772.634007 42.205237 
L 772.798093 39.449938 
L 772.962178 40.948429 
L 773.290349 41.122195 
L 773.454435 45.013333 
L 773.61852 42.405846 
L 773.782606 47.498437 
L 773.946691 44.917394 
L 774.110777 48.00567 
L 774.274862 47.399928 
L 774.438948 47.694955 
L 774.603034 45.264123 
L 774.767119 44.639459 
L 774.931205 48.011694 
L 775.09529 45.371112 
L 775.259376 45.531435 
L 775.751632 35.289386 
L 775.915718 34.93665 
L 776.079803 35.336221 
L 776.243889 39.083104 
L 776.407974 39.616873 
L 776.57206 34.84186 
L 776.736145 38.060923 
L 776.900231 38.614127 
L 777.064316 40.472718 
L 777.228402 40.650203 
L 777.392487 39.923654 
L 777.556573 41.317206 
L 777.720659 41.324227 
L 777.884744 39.72207 
L 778.04883 39.459389 
L 778.212915 41.823159 
L 778.377001 39.570772 
L 778.541086 40.059496 
L 779.361514 51.966064 
L 779.525599 48.948636 
L 779.689685 51.12465 
L 779.85377 50.737726 
L 780.181941 48.434937 
L 780.510112 39.844408 
L 780.674198 41.33784 
L 780.838283 38.04582 
L 781.002369 39.797109 
L 781.166455 44.858722 
L 781.494626 39.202494 
L 781.658711 40.79738 
L 781.822797 40.793278 
L 781.986882 41.421548 
L 782.150968 47.298673 
L 782.315053 47.26299 
L 782.479139 46.51111 
L 782.643224 47.364147 
L 782.80731 47.377888 
L 783.135481 52.378674 
L 783.299566 52.028984 
L 783.463652 52.799383 
L 783.627737 55.993416 
L 783.955908 49.581828 
L 784.119994 50.473411 
L 784.28408 53.653108 
L 784.612251 46.065902 
L 784.940422 49.696847 
L 785.104507 49.215647 
L 785.432678 41.959821 
L 785.596764 43.740752 
L 785.760849 40.218795 
L 785.924935 32.988676 
L 786.253106 36.410434 
L 786.581277 31.659496 
L 786.745362 34.139503 
L 786.909448 34.496496 
L 787.073533 38.186715 
L 787.237619 38.648298 
L 787.56579 43.993894 
L 787.729876 42.447661 
L 787.893961 42.603697 
L 788.222132 45.919417 
L 788.386218 45.096328 
L 788.550303 46.409114 
L 788.714389 44.233198 
L 788.878474 40.44082 
L 789.04256 40.921821 
L 789.206645 39.014391 
L 789.534816 43.771171 
L 789.698902 42.427136 
L 789.862987 42.373003 
L 790.027073 40.569449 
L 790.191158 40.024047 
L 790.683415 42.753627 
L 790.847501 42.234395 
L 791.011586 39.624721 
L 791.175672 39.025025 
L 791.339757 40.562912 
L 791.503843 38.584356 
L 791.832014 38.824394 
L 792.488356 33.399383 
L 792.652441 33.993814 
L 792.816527 33.353417 
L 792.980612 30.472961 
L 793.308783 37.614594 
L 793.80104 42.517357 
L 793.965125 40.956394 
L 794.129211 42.638069 
L 794.293297 45.730528 
L 794.457382 42.786515 
L 794.621468 44.289252 
L 794.785553 38.694514 
L 794.949639 37.970634 
L 795.27781 32.196986 
L 795.441895 32.561341 
L 795.605981 35.429894 
L 795.770066 34.989108 
L 795.934152 30.933164 
L 796.098237 32.093644 
L 796.262323 31.221212 
L 796.426408 31.861222 
L 796.590494 30.033887 
L 796.754579 32.175318 
L 797.08275 38.828929 
L 797.246836 38.590433 
L 797.575007 36.921309 
L 797.739093 37.332621 
L 798.067264 38.432162 
L 798.395435 40.920421 
L 798.55952 35.960193 
L 798.723606 35.564732 
L 798.887691 32.861228 
L 799.051777 34.641995 
L 799.215862 34.495729 
L 799.379948 37.616177 
L 799.544033 36.447695 
L 799.708119 39.458303 
L 800.03629 39.115831 
L 800.200375 39.673146 
L 800.364461 38.980551 
L 800.528546 41.38692 
L 800.692632 40.215963 
L 800.856718 42.983716 
L 801.020803 38.942053 
L 801.184889 40.297537 
L 801.348974 38.299387 
L 801.51306 38.640748 
L 801.677145 36.471285 
L 802.005316 41.934363 
L 802.333487 39.4274 
L 802.497573 40.436298 
L 802.825744 46.20304 
L 803.153915 44.385642 
L 803.318 44.174066 
L 803.646171 38.907048 
L 803.974343 41.211155 
L 804.302514 38.096142 
L 804.466599 33.760771 
L 804.958856 45.38221 
L 805.122941 45.000251 
L 805.451112 43.682188 
L 805.615198 45.090331 
L 805.943369 42.290536 
L 806.107454 45.782481 
L 806.435625 38.839866 
L 806.763796 40.122752 
L 807.091967 43.517031 
L 807.584224 47.442084 
L 807.74831 45.956129 
L 807.912395 46.116996 
L 808.240566 43.859492 
L 808.404652 48.491268 
L 808.896908 40.833623 
L 809.060994 40.4273 
L 809.225079 43.479203 
L 809.389165 44.428457 
L 809.717336 45.082775 
L 810.045507 46.309281 
L 810.209592 50.557161 
L 810.373678 51.38546 
L 810.701849 49.973789 
L 811.03002 46.196353 
L 811.522277 41.805323 
L 811.850448 33.568505 
L 812.014533 32.168417 
L 812.178619 32.968986 
L 812.342704 33.11039 
L 812.50679 31.766572 
L 812.999046 34.798546 
L 813.163132 33.733775 
L 813.327217 37.332061 
L 813.491303 36.604623 
L 813.655388 39.630538 
L 813.819474 39.905566 
L 814.147645 42.095296 
L 814.475816 35.603012 
L 814.803987 39.096987 
L 814.968073 35.498701 
L 815.132158 37.653329 
L 815.296244 37.142304 
L 815.460329 36.061884 
L 815.7885 32.934747 
L 815.952586 33.376333 
L 816.116671 35.41681 
L 816.280757 31.152155 
L 816.444842 32.85213 
L 816.608928 32.918892 
L 816.773013 33.782696 
L 816.937099 33.06244 
L 817.101185 36.266212 
L 817.26527 36.262665 
L 817.593441 41.380184 
L 817.757527 42.012919 
L 817.921612 42.086661 
L 818.085698 42.329441 
L 818.249783 45.019335 
L 818.413869 42.153263 
L 818.577954 43.75559 
L 818.74204 47.432678 
L 818.906125 48.545205 
L 819.398382 45.043024 
L 819.562467 45.975376 
L 819.726553 45.517296 
L 819.890638 44.464858 
L 820.054724 45.654248 
L 820.218809 42.612999 
L 820.382895 36.909841 
L 820.711066 34.713517 
L 820.875152 38.063477 
L 821.039237 36.955482 
L 821.203323 37.100968 
L 821.367408 36.252984 
L 821.531494 37.690443 
L 821.695579 35.635166 
L 822.351921 51.144089 
L 822.516007 50.457894 
L 822.680092 51.146035 
L 822.844178 50.723426 
L 823.008263 51.438967 
L 823.172349 47.860076 
L 823.336434 49.417768 
L 823.50052 45.468634 
L 823.664606 45.806208 
L 823.992777 36.098147 
L 824.156862 34.042412 
L 824.485033 34.649805 
L 824.649119 32.985606 
L 824.97729 36.015743 
L 825.141375 39.16796 
L 825.305461 38.919323 
L 825.469546 39.124517 
L 825.633632 40.906713 
L 825.797717 40.298683 
L 825.961803 40.724943 
L 826.125888 40.009222 
L 826.289974 41.664536 
L 826.454059 44.794006 
L 826.78223 40.005983 
L 827.110402 35.611919 
L 827.274487 35.705627 
L 827.438573 35.345653 
L 827.766744 36.568831 
L 827.930829 34.779195 
L 828.094915 35.025606 
L 828.259 36.087751 
L 828.423086 35.006093 
L 828.587171 36.530025 
L 828.915342 41.614422 
L 829.079428 44.422279 
L 829.243513 42.216869 
L 829.571684 41.909371 
L 829.899855 36.870074 
L 830.063941 37.397874 
L 830.884369 29.621012 
L 831.21254 31.698227 
L 831.376625 32.268641 
L 831.704796 37.754526 
L 831.868882 38.178686 
L 832.032967 37.320405 
L 832.197053 35.697124 
L 832.525224 38.100775 
L 832.689309 36.857385 
L 833.01748 38.107776 
L 833.345651 33.137263 
L 833.509737 33.448589 
L 833.673823 35.132745 
L 834.001994 33.970518 
L 834.166079 32.987862 
L 834.330165 34.457146 
L 834.49425 34.842964 
L 834.822421 38.80491 
L 834.986507 38.516443 
L 835.150592 39.204617 
L 835.314678 40.454413 
L 835.478763 40.826434 
L 835.806934 44.92763 
L 836.135105 42.773442 
L 836.299191 38.346954 
L 836.627362 44.455221 
L 836.791448 44.736603 
L 836.955533 41.442677 
L 837.119619 41.886983 
L 837.283704 38.607502 
L 837.44779 39.48 
L 837.611875 42.738508 
L 837.940046 44.328368 
L 838.268217 37.061852 
L 838.432303 36.740715 
L 838.596388 38.112444 
L 838.760474 40.437209 
L 838.924559 40.091146 
L 839.088645 38.99473 
L 839.416816 35.100352 
L 839.744987 33.289584 
L 839.909072 33.890361 
L 840.073158 32.578731 
L 840.237244 33.970465 
L 840.401329 32.047978 
L 840.7295 36.55571 
L 841.057671 33.760143 
L 841.221757 35.274445 
L 841.385842 34.121404 
L 841.549928 34.461312 
L 841.714013 38.102223 
L 841.878099 36.080746 
L 842.042184 36.410394 
L 842.370355 31.086926 
L 842.534441 34.998347 
L 842.698526 35.295118 
L 842.862612 33.930107 
L 843.026697 34.482357 
L 843.190783 41.650097 
L 843.354869 39.599923 
L 843.518954 41.589671 
L 843.68304 40.408436 
L 843.847125 40.044125 
L 844.011211 43.799632 
L 844.175296 39.961363 
L 844.503467 40.91129 
L 844.667553 43.970607 
L 844.831638 44.061593 
L 844.995724 43.171521 
L 845.159809 43.407736 
L 845.48798 45.300045 
L 845.652066 41.111636 
L 845.816151 41.629689 
L 845.980237 43.237411 
L 846.144322 43.018486 
L 846.308408 39.260319 
L 846.472493 31.822225 
L 846.636579 34.710123 
L 846.800665 34.129048 
L 846.96475 34.919353 
L 847.128836 33.852004 
L 847.457007 39.892121 
L 847.621092 39.725089 
L 847.949263 43.91523 
L 848.113349 44.409204 
L 848.605605 36.78401 
L 848.769691 37.414458 
L 849.097862 34.689157 
L 849.261947 36.919368 
L 849.426033 37.480209 
L 849.754204 35.079267 
L 849.91829 34.684934 
L 850.246461 40.887256 
L 850.410546 40.035574 
L 850.738717 35.617458 
L 850.902803 35.242518 
L 851.066888 33.849326 
L 851.395059 40.774927 
L 851.559145 41.833738 
L 851.887316 38.752536 
L 852.051401 40.137446 
L 852.379572 44.172878 
L 852.871829 37.064541 
L 853.035914 38.506994 
L 853.035914 38.506994 
" clip-path="url(#pb89d20c7b8)" style="fill: none; stroke-dasharray: 7.4,3.2; stroke-dashoffset: 0; stroke: #000000; stroke-width: 2"/>
   </g>
   <g id="patch_3">
    <path d="M 35.89 404.12 
L 35.89 11.787727 
" style="fill: none; stroke: #000000; stroke-width: 0.8; stroke-linejoin: miter; stroke-linecap: square"/>
   </g>
   <g id="patch_4">
    <path d="M 853.2 404.12 
L 853.2 11.787727 
" style="fill: none; stroke: #000000; stroke-width: 0.8; stroke-linejoin: miter; stroke-linecap: square"/>
   </g>
   <g id="patch_5">
    <path d="M 35.89 404.12 
L 853.2 404.12 
" style="fill: none; stroke: #000000; stroke-width: 0.8; stroke-linejoin: miter; stroke-linecap: square"/>
   </g>
   <g id="patch_6">
    <path d="M 35.89 11.787727 
L 853.2 11.787727 
" style="fill: none; stroke: #000000; stroke-width: 0.8; stroke-linejoin: miter; stroke-linecap: square"/>
   </g>
  </g>
 </g>
 <defs>
  <clipPath id="pb89d20c7b8">
   <rect x="35.89" y="11.787727" width="817.31" height="392.332273"/>
  </clipPath>
 </defs>
</svg>
