<?xml version="1.0" encoding="utf-8" standalone="no"?>
<!DOCTYPE svg PUBLIC "-//W3C//DTD SVG 1.1//EN"
  "http://www.w3.org/Graphics/SVG/1.1/DTD/svg11.dtd">
<svg xmlns:xlink="http://www.w3.org/1999/xlink" width="864pt" height="432pt" viewBox="0 0 864 432" xmlns="http://www.w3.org/2000/svg" version="1.1">
 <metadata>
  <rdf:RDF xmlns:dc="http://purl.org/dc/elements/1.1/" xmlns:cc="http://creativecommons.org/ns#" xmlns:rdf="http://www.w3.org/1999/02/22-rdf-syntax-ns#">
   <cc:Work>
    <dc:type rdf:resource="http://purl.org/dc/dcmitype/StillImage"/>
    <dc:date>2024-09-15T22:30:11.796759</dc:date>
    <dc:format>image/svg+xml</dc:format>
    <dc:creator>
     <cc:Agent>
      <dc:title>Matplotlib v3.9.2, https://matplotlib.org/</dc:title>
     </cc:Agent>
    </dc:creator>
   </cc:Work>
  </rdf:RDF>
 </metadata>
 <defs>
  <style type="text/css">*{stroke-linejoin: round; stroke-linecap: butt}</style>
 </defs>
 <g id="figure_1">
  <g id="patch_1">
   <path d="M 0 432 
L 864 432 
L 864 0 
L 0 0 
z
" style="fill: #ffffff"/>
  </g>
  <g id="axes_1">
   <g id="patch_2">
    <path d="M 41.92 403.436 
L 853.2 403.436 
L 853.2 10.8 
L 41.92 10.8 
z
" style="fill: #ffffff"/>
   </g>
   <g id="matplotlib.axis_1">
    <g id="xtick_1">
     <g id="line2d_1">
      <defs>
       <path id="mb479981145" d="M 0 0 
L 0 3.5 
" style="stroke: #000000; stroke-width: 0.8"/>
      </defs>
      <g>
       <use xlink:href="#mb479981145" x="41.92" y="403.436" style="stroke: #000000; stroke-width: 0.8"/>
      </g>
     </g>
     <g id="text_1">
      <!-- $\mathdefault{10^{1}}$ -->
      <g transform="translate(33.57 418.087562) scale(0.1 -0.1)">
       <defs>
        <path id="DejaVuSansMono-31" d="M 844 531 
L 1825 531 
L 1825 4097 
L 769 3859 
L 769 4434 
L 1819 4666 
L 2450 4666 
L 2450 531 
L 3419 531 
L 3419 0 
L 844 0 
L 844 531 
z
" transform="scale(0.015625)"/>
        <path id="DejaVuSansMono-30" d="M 1509 2344 
Q 1509 2516 1629 2641 
Q 1750 2766 1919 2766 
Q 2094 2766 2219 2641 
Q 2344 2516 2344 2344 
Q 2344 2169 2220 2047 
Q 2097 1925 1919 1925 
Q 1744 1925 1626 2044 
Q 1509 2163 1509 2344 
z
M 1925 4250 
Q 1484 4250 1267 3775 
Q 1050 3300 1050 2328 
Q 1050 1359 1267 884 
Q 1484 409 1925 409 
Q 2369 409 2586 884 
Q 2803 1359 2803 2328 
Q 2803 3300 2586 3775 
Q 2369 4250 1925 4250 
z
M 1925 4750 
Q 2672 4750 3055 4137 
Q 3438 3525 3438 2328 
Q 3438 1134 3055 521 
Q 2672 -91 1925 -91 
Q 1178 -91 797 521 
Q 416 1134 416 2328 
Q 416 3525 797 4137 
Q 1178 4750 1925 4750 
z
" transform="scale(0.015625)"/>
       </defs>
       <use xlink:href="#DejaVuSansMono-31" transform="translate(0 0.684375)"/>
       <use xlink:href="#DejaVuSansMono-30" transform="translate(60.205078 0.684375)"/>
       <use xlink:href="#DejaVuSansMono-31" transform="translate(121.367188 38.965625) scale(0.7)"/>
      </g>
     </g>
    </g>
    <g id="xtick_2">
     <g id="line2d_2">
      <g>
       <use xlink:href="#mb479981145" x="519.432845" y="403.436" style="stroke: #000000; stroke-width: 0.8"/>
      </g>
     </g>
     <g id="text_2">
      <!-- $\mathdefault{10^{2}}$ -->
      <g transform="translate(511.082845 418.087562) scale(0.1 -0.1)">
       <defs>
        <path id="DejaVuSansMono-32" d="M 1166 531 
L 3309 531 
L 3309 0 
L 475 0 
L 475 531 
Q 1059 1147 1496 1619 
Q 1934 2091 2100 2284 
Q 2413 2666 2522 2902 
Q 2631 3138 2631 3384 
Q 2631 3775 2401 3997 
Q 2172 4219 1772 4219 
Q 1488 4219 1175 4116 
Q 863 4013 513 3803 
L 513 4441 
Q 834 4594 1145 4672 
Q 1456 4750 1759 4750 
Q 2444 4750 2861 4386 
Q 3278 4022 3278 3431 
Q 3278 3131 3139 2831 
Q 3000 2531 2688 2169 
Q 2513 1966 2180 1606 
Q 1847 1247 1166 531 
z
" transform="scale(0.015625)"/>
       </defs>
       <use xlink:href="#DejaVuSansMono-31" transform="translate(0 0.765625)"/>
       <use xlink:href="#DejaVuSansMono-30" transform="translate(60.205078 0.765625)"/>
       <use xlink:href="#DejaVuSansMono-32" transform="translate(121.367188 39.046875) scale(0.7)"/>
      </g>
     </g>
    </g>
    <g id="xtick_3">
     <g id="line2d_3">
      <defs>
       <path id="mab6452b1cb" d="M 0 0 
L 0 2 
" style="stroke: #000000; stroke-width: 0.6"/>
      </defs>
      <g>
       <use xlink:href="#mab6452b1cb" x="185.66569" y="403.436" style="stroke: #000000; stroke-width: 0.6"/>
      </g>
     </g>
    </g>
    <g id="xtick_4">
     <g id="line2d_4">
      <g>
       <use xlink:href="#mab6452b1cb" x="269.751528" y="403.436" style="stroke: #000000; stroke-width: 0.6"/>
      </g>
     </g>
    </g>
    <g id="xtick_5">
     <g id="line2d_5">
      <g>
       <use xlink:href="#mab6452b1cb" x="329.411379" y="403.436" style="stroke: #000000; stroke-width: 0.6"/>
      </g>
     </g>
    </g>
    <g id="xtick_6">
     <g id="line2d_6">
      <g>
       <use xlink:href="#mab6452b1cb" x="375.687155" y="403.436" style="stroke: #000000; stroke-width: 0.6"/>
      </g>
     </g>
    </g>
    <g id="xtick_7">
     <g id="line2d_7">
      <g>
       <use xlink:href="#mab6452b1cb" x="413.497217" y="403.436" style="stroke: #000000; stroke-width: 0.6"/>
      </g>
     </g>
    </g>
    <g id="xtick_8">
     <g id="line2d_8">
      <g>
       <use xlink:href="#mab6452b1cb" x="445.465169" y="403.436" style="stroke: #000000; stroke-width: 0.6"/>
      </g>
     </g>
    </g>
    <g id="xtick_9">
     <g id="line2d_9">
      <g>
       <use xlink:href="#mab6452b1cb" x="473.157069" y="403.436" style="stroke: #000000; stroke-width: 0.6"/>
      </g>
     </g>
    </g>
    <g id="xtick_10">
     <g id="line2d_10">
      <g>
       <use xlink:href="#mab6452b1cb" x="497.583055" y="403.436" style="stroke: #000000; stroke-width: 0.6"/>
      </g>
     </g>
    </g>
    <g id="xtick_11">
     <g id="line2d_11">
      <g>
       <use xlink:href="#mab6452b1cb" x="663.178534" y="403.436" style="stroke: #000000; stroke-width: 0.6"/>
      </g>
     </g>
    </g>
    <g id="xtick_12">
     <g id="line2d_12">
      <g>
       <use xlink:href="#mab6452b1cb" x="747.264372" y="403.436" style="stroke: #000000; stroke-width: 0.6"/>
      </g>
     </g>
    </g>
    <g id="xtick_13">
     <g id="line2d_13">
      <g>
       <use xlink:href="#mab6452b1cb" x="806.924224" y="403.436" style="stroke: #000000; stroke-width: 0.6"/>
      </g>
     </g>
    </g>
    <g id="xtick_14">
     <g id="line2d_14">
      <g>
       <use xlink:href="#mab6452b1cb" x="853.2" y="403.436" style="stroke: #000000; stroke-width: 0.6"/>
      </g>
     </g>
    </g>
   </g>
   <g id="matplotlib.axis_2">
    <g id="ytick_1">
     <g id="line2d_15">
      <defs>
       <path id="mc40bf84cd4" d="M 0 0 
L -3.5 0 
" style="stroke: #000000; stroke-width: 0.8"/>
      </defs>
      <g>
       <use xlink:href="#mc40bf84cd4" x="41.92" y="385.608795" style="stroke: #000000; stroke-width: 0.8"/>
      </g>
     </g>
     <g id="text_3">
      <!-- 0.00 -->
      <g transform="translate(10.83875 389.434576) scale(0.1 -0.1)">
       <defs>
        <path id="DejaVuSansMono-2e" d="M 1528 953 
L 2316 953 
L 2316 0 
L 1528 0 
L 1528 953 
z
" transform="scale(0.015625)"/>
       </defs>
       <use xlink:href="#DejaVuSansMono-30"/>
       <use xlink:href="#DejaVuSansMono-2e" x="60.205078"/>
       <use xlink:href="#DejaVuSansMono-30" x="120.410156"/>
       <use xlink:href="#DejaVuSansMono-30" x="180.615234"/>
      </g>
     </g>
    </g>
    <g id="ytick_2">
     <g id="line2d_16">
      <g>
       <use xlink:href="#mc40bf84cd4" x="41.92" y="333.413125" style="stroke: #000000; stroke-width: 0.8"/>
      </g>
     </g>
     <g id="text_4">
      <!-- 0.05 -->
      <g transform="translate(10.83875 337.238906) scale(0.1 -0.1)">
       <defs>
        <path id="DejaVuSansMono-35" d="M 647 4666 
L 3009 4666 
L 3009 4134 
L 1222 4134 
L 1222 2988 
Q 1356 3038 1492 3061 
Q 1628 3084 1766 3084 
Q 2491 3084 2916 2656 
Q 3341 2228 3341 1497 
Q 3341 759 2895 334 
Q 2450 -91 1678 -91 
Q 1306 -91 998 -41 
Q 691 9 447 109 
L 447 750 
Q 734 594 1025 517 
Q 1316 441 1619 441 
Q 2141 441 2423 716 
Q 2706 991 2706 1497 
Q 2706 1997 2414 2275 
Q 2122 2553 1600 2553 
Q 1347 2553 1106 2495 
Q 866 2438 647 2322 
L 647 4666 
z
" transform="scale(0.015625)"/>
       </defs>
       <use xlink:href="#DejaVuSansMono-30"/>
       <use xlink:href="#DejaVuSansMono-2e" x="60.205078"/>
       <use xlink:href="#DejaVuSansMono-30" x="120.410156"/>
       <use xlink:href="#DejaVuSansMono-35" x="180.615234"/>
      </g>
     </g>
    </g>
    <g id="ytick_3">
     <g id="line2d_17">
      <g>
       <use xlink:href="#mc40bf84cd4" x="41.92" y="281.217456" style="stroke: #000000; stroke-width: 0.8"/>
      </g>
     </g>
     <g id="text_5">
      <!-- 0.10 -->
      <g transform="translate(10.83875 285.043237) scale(0.1 -0.1)">
       <use xlink:href="#DejaVuSansMono-30"/>
       <use xlink:href="#DejaVuSansMono-2e" x="60.205078"/>
       <use xlink:href="#DejaVuSansMono-31" x="120.410156"/>
       <use xlink:href="#DejaVuSansMono-30" x="180.615234"/>
      </g>
     </g>
    </g>
    <g id="ytick_4">
     <g id="line2d_18">
      <g>
       <use xlink:href="#mc40bf84cd4" x="41.92" y="229.021786" style="stroke: #000000; stroke-width: 0.8"/>
      </g>
     </g>
     <g id="text_6">
      <!-- 0.15 -->
      <g transform="translate(10.83875 232.847567) scale(0.1 -0.1)">
       <use xlink:href="#DejaVuSansMono-30"/>
       <use xlink:href="#DejaVuSansMono-2e" x="60.205078"/>
       <use xlink:href="#DejaVuSansMono-31" x="120.410156"/>
       <use xlink:href="#DejaVuSansMono-35" x="180.615234"/>
      </g>
     </g>
    </g>
    <g id="ytick_5">
     <g id="line2d_19">
      <g>
       <use xlink:href="#mc40bf84cd4" x="41.92" y="176.826116" style="stroke: #000000; stroke-width: 0.8"/>
      </g>
     </g>
     <g id="text_7">
      <!-- 0.20 -->
      <g transform="translate(10.83875 180.651898) scale(0.1 -0.1)">
       <use xlink:href="#DejaVuSansMono-30"/>
       <use xlink:href="#DejaVuSansMono-2e" x="60.205078"/>
       <use xlink:href="#DejaVuSansMono-32" x="120.410156"/>
       <use xlink:href="#DejaVuSansMono-30" x="180.615234"/>
      </g>
     </g>
    </g>
    <g id="ytick_6">
     <g id="line2d_20">
      <g>
       <use xlink:href="#mc40bf84cd4" x="41.92" y="124.630447" style="stroke: #000000; stroke-width: 0.8"/>
      </g>
     </g>
     <g id="text_8">
      <!-- 0.25 -->
      <g transform="translate(10.83875 128.456228) scale(0.1 -0.1)">
       <use xlink:href="#DejaVuSansMono-30"/>
       <use xlink:href="#DejaVuSansMono-2e" x="60.205078"/>
       <use xlink:href="#DejaVuSansMono-32" x="120.410156"/>
       <use xlink:href="#DejaVuSansMono-35" x="180.615234"/>
      </g>
     </g>
    </g>
    <g id="ytick_7">
     <g id="line2d_21">
      <g>
       <use xlink:href="#mc40bf84cd4" x="41.92" y="72.434777" style="stroke: #000000; stroke-width: 0.8"/>
      </g>
     </g>
     <g id="text_9">
      <!-- 0.30 -->
      <g transform="translate(10.83875 76.260558) scale(0.1 -0.1)">
       <defs>
        <path id="DejaVuSansMono-33" d="M 2425 2497 
Q 2884 2375 3128 2064 
Q 3372 1753 3372 1288 
Q 3372 644 2939 276 
Q 2506 -91 1741 -91 
Q 1419 -91 1084 -31 
Q 750 28 428 141 
L 428 769 
Q 747 603 1056 522 
Q 1366 441 1672 441 
Q 2191 441 2469 675 
Q 2747 909 2747 1350 
Q 2747 1756 2469 1995 
Q 2191 2234 1716 2234 
L 1234 2234 
L 1234 2753 
L 1716 2753 
Q 2150 2753 2394 2943 
Q 2638 3134 2638 3475 
Q 2638 3834 2411 4026 
Q 2184 4219 1766 4219 
Q 1488 4219 1191 4156 
Q 894 4094 569 3969 
L 569 4550 
Q 947 4650 1242 4700 
Q 1538 4750 1766 4750 
Q 2447 4750 2855 4408 
Q 3263 4066 3263 3500 
Q 3263 3116 3048 2859 
Q 2834 2603 2425 2497 
z
" transform="scale(0.015625)"/>
       </defs>
       <use xlink:href="#DejaVuSansMono-30"/>
       <use xlink:href="#DejaVuSansMono-2e" x="60.205078"/>
       <use xlink:href="#DejaVuSansMono-33" x="120.410156"/>
       <use xlink:href="#DejaVuSansMono-30" x="180.615234"/>
      </g>
     </g>
    </g>
    <g id="ytick_8">
     <g id="line2d_22">
      <g>
       <use xlink:href="#mc40bf84cd4" x="41.92" y="20.239107" style="stroke: #000000; stroke-width: 0.8"/>
      </g>
     </g>
     <g id="text_10">
      <!-- 0.35 -->
      <g transform="translate(10.83875 24.064889) scale(0.1 -0.1)">
       <use xlink:href="#DejaVuSansMono-30"/>
       <use xlink:href="#DejaVuSansMono-2e" x="60.205078"/>
       <use xlink:href="#DejaVuSansMono-33" x="120.410156"/>
       <use xlink:href="#DejaVuSansMono-35" x="180.615234"/>
      </g>
     </g>
    </g>
   </g>
   <g id="line2d_23">
    <path d="M -1 290.96909 
L 20.070211 302.685536 
L 41.92 317.058348 
L 79.730062 344.349197 
L 96.329414 355.185937 
L 111.698014 363.666487 
L 126.005838 369.988609 
L 139.389914 374.405221 
L 151.96232 377.415941 
L 163.8159 379.528766 
L 175.028425 381.022086 
L 185.66569 382.060265 
L 195.783852 382.783082 
L 205.431228 383.299574 
L 223.475752 383.962067 
L 240.075104 384.338985 
L 269.751528 384.70365 
L 283.135603 384.774244 
L 295.70801 384.653882 
L 334.532163 383.871708 
L 344.409324 383.397484 
L 353.837366 382.623133 
L 358.395378 382.619155 
L 362.85536 382.782384 
L 367.221441 382.797834 
L 371.497494 382.680333 
L 379.793848 382.870508 
L 383.820794 382.7495 
L 387.771031 382.377642 
L 391.647428 382.282576 
L 395.452694 382.54126 
L 399.189393 382.506577 
L 406.466673 381.829165 
L 410.011737 381.738314 
L 416.925084 382.165822 
L 420.29721 382.052671 
L 426.881293 382.04099 
L 430.09657 381.814284 
L 439.453699 381.590733 
L 442.481216 379.858042 
L 445.465169 381.298985 
L 448.406796 381.38063 
L 451.307279 380.563536 
L 454.167755 380.721886 
L 456.989311 381.172663 
L 459.772993 381.040057 
L 462.519804 380.428553 
L 465.230708 380.58508 
L 467.906632 381.383665 
L 470.548466 381.352956 
L 473.157069 380.826364 
L 475.733266 380.743631 
L 478.277852 381.35712 
L 480.791594 381.640695 
L 483.275231 381.510292 
L 485.729475 381.221402 
L 488.155014 381.367686 
L 490.552511 381.748438 
L 492.922608 381.952251 
L 497.583055 381.583503 
L 504.383048 382.357326 
L 506.60105 382.285312 
L 510.967131 382.537107 
L 517.348594 382.882012 
L 523.539537 383.10229 
L 546.605642 383.98395 
L 593.607798 385.049437 
L 614.294156 385.270599 
L 642.477674 385.417756 
L 706.950684 385.545889 
L 852.784822 385.588909 
L 852.784822 385.588909 
" clip-path="url(#p03b763a95a)" style="fill: none; stroke: #000000; stroke-width: 2; stroke-linecap: square"/>
   </g>
   <g id="line2d_24">
    <path d="M -1 208.244576 
L 20.070211 201.717857 
L 41.92 196.700688 
L 61.685539 197.095145 
L 79.730062 200.87845 
L 96.329414 204.607591 
L 111.698014 206.87417 
L 126.005838 207.694724 
L 139.389914 207.198145 
L 151.96232 205.897921 
L 163.8159 205.071752 
L 175.028425 205.760768 
L 185.66569 207.841055 
L 195.783852 210.265772 
L 205.431228 211.711082 
L 214.649688 211.698124 
L 223.475752 211.012546 
L 231.941466 210.977732 
L 240.075104 211.980908 
L 247.901738 213.247641 
L 255.443704 213.954981 
L 262.720983 213.953006 
L 276.55152 213.173394 
L 283.135603 213.062779 
L 289.517066 213.5464 
L 295.70801 214.925988 
L 301.71948 216.962626 
L 307.56159 219.088506 
L 313.243622 220.687909 
L 318.774115 221.085959 
L 329.411379 219.122137 
L 334.532163 220.786469 
L 339.529542 225.358361 
L 344.409324 229.067793 
L 349.176918 229.423781 
L 353.837366 227.446348 
L 358.395378 227.795974 
L 362.85536 232.004489 
L 367.221441 236.326637 
L 371.497494 238.553006 
L 375.687155 240.020716 
L 379.793848 242.407975 
L 383.820794 245.312704 
L 387.771031 248.685126 
L 391.647428 252.473798 
L 395.452694 254.941152 
L 399.189393 255.843668 
L 402.859953 259.892094 
L 406.466673 267.074296 
L 410.011737 270.364265 
L 413.497217 272.614729 
L 416.925084 279.914492 
L 420.29721 284.800085 
L 423.61538 290.061989 
L 426.881293 293.983093 
L 430.09657 299.301814 
L 433.262756 308.285991 
L 436.381329 306.142012 
L 439.453699 320.079697 
L 442.481216 290.510097 
L 445.465169 328.744784 
L 448.406796 330.552814 
L 451.307279 316.065735 
L 454.167755 341.81451 
L 456.989311 346.380176 
L 459.772993 336.308629 
L 462.519804 347.246918 
L 465.230708 356.461749 
L 467.906632 357.287704 
L 470.548466 349.303265 
L 473.157069 363.211332 
L 475.733266 365.66087 
L 478.277852 367.415055 
L 480.791594 361.207826 
L 483.275231 370.972379 
L 485.729475 373.11004 
L 488.155014 373.81495 
L 490.552511 372.404883 
L 492.922608 373.817458 
L 495.265923 377.383619 
L 497.583055 377.595145 
L 499.874584 378.298129 
L 502.141067 378.506087 
L 504.383048 378.169262 
L 506.60105 379.087851 
L 508.79558 380.41544 
L 510.967131 380.791966 
L 513.116178 380.891268 
L 515.243183 381.481718 
L 519.432845 381.170296 
L 521.496356 381.411077 
L 523.539537 382.220137 
L 525.562784 382.538145 
L 529.551007 382.156739 
L 533.463976 382.802004 
L 535.393117 382.814542 
L 537.304478 383.022544 
L 541.075149 382.840269 
L 546.605642 383.557514 
L 548.416843 383.435307 
L 553.757427 383.794944 
L 557.242907 383.915997 
L 560.670773 384.139046 
L 564.042899 384.134522 
L 572.240852 384.455267 
L 575.431395 384.409468 
L 581.668893 384.704529 
L 584.718672 384.738436 
L 589.210859 384.868545 
L 597.913445 385.025023 
L 608.976398 385.177283 
L 721.538186 385.554129 
L 852.784822 385.58866 
L 852.784822 385.58866 
" clip-path="url(#p03b763a95a)" style="fill: none; stroke-dasharray: 7.4,3.2; stroke-dashoffset: 0; stroke: #000000; stroke-width: 2"/>
   </g>
   <g id="line2d_25">
    <path d="M -1 295.471901 
L 20.070211 311.203709 
L 41.92 327.000699 
L 61.685539 338.850083 
L 79.730062 347.483152 
L 96.329414 354.40702 
L 111.698014 360.566386 
L 126.005838 365.755617 
L 139.389914 369.462362 
L 151.96232 371.431572 
L 163.8159 371.869952 
L 185.66569 370.93855 
L 195.783852 371.893078 
L 205.431228 374.393074 
L 214.649688 377.273596 
L 223.475752 379.53156 
L 231.941466 380.931953 
L 240.075104 381.730677 
L 247.901738 382.195788 
L 262.720983 382.629115 
L 276.55152 382.697207 
L 289.517066 382.475049 
L 301.71948 382.146245 
L 307.56159 382.437571 
L 313.243622 383.032697 
L 318.774115 383.489955 
L 324.160942 383.590335 
L 329.411379 383.337667 
L 334.532163 382.820739 
L 339.529542 382.449139 
L 344.409324 382.375095 
L 353.837366 381.893746 
L 362.85536 381.991506 
L 367.221441 381.390095 
L 371.497494 380.390127 
L 375.687155 380.399383 
L 379.793848 381.064069 
L 383.820794 381.035156 
L 387.771031 380.276881 
L 391.647428 379.774059 
L 395.452694 379.825457 
L 399.189393 379.296061 
L 402.859953 378.484064 
L 406.466673 378.481593 
L 413.497217 379.378835 
L 416.925084 379.35036 
L 420.29721 378.21382 
L 423.61538 378.640779 
L 426.881293 379.59872 
L 430.09657 379.426609 
L 433.262756 379.049019 
L 436.381329 378.289968 
L 439.453699 379.905222 
L 442.481216 376.909341 
L 445.465169 380.119404 
L 448.406796 379.561058 
L 451.307279 377.286137 
L 454.167755 377.213332 
L 456.989311 378.550997 
L 459.772993 378.26375 
L 462.519804 377.218378 
L 465.230708 377.586592 
L 467.906632 379.092348 
L 470.548466 379.232343 
L 473.157069 378.546771 
L 475.733266 378.458341 
L 478.277852 379.375187 
L 480.791594 379.750508 
L 483.275231 379.537242 
L 485.729475 379.017495 
L 488.155014 379.071157 
L 492.922608 380.523351 
L 495.265923 380.528395 
L 497.583055 380.126746 
L 499.874584 380.12685 
L 504.383048 381.338482 
L 506.60105 381.316321 
L 510.967131 380.513628 
L 513.116178 380.74356 
L 515.243183 381.383692 
L 517.348594 381.760262 
L 523.539537 382.047135 
L 525.562784 382.259482 
L 529.551007 382.470471 
L 533.463976 382.861504 
L 546.605642 383.399216 
L 550.212363 383.435913 
L 553.757427 383.648221 
L 564.042899 384.039446 
L 577.008446 384.51545 
L 603.518683 385.061103 
L 629.475165 385.293263 
L 673.296697 385.473628 
L 775.042663 385.568042 
L 852.784822 385.583431 
L 852.784822 385.583431 
" clip-path="url(#p03b763a95a)" style="fill: none; stroke-dasharray: 7.4,3.2; stroke-dashoffset: 0; stroke: #000000; stroke-width: 2"/>
   </g>
   <g id="line2d_26">
    <path d="M -1 180.768485 
L 20.070211 201.630544 
L 41.92 216.961164 
L 61.685539 222.401381 
L 79.730062 219.52616 
L 96.329414 210.93105 
L 111.698014 199.858008 
L 126.005838 189.986847 
L 139.389914 184.715734 
L 151.96232 186.651681 
L 163.8159 194.714574 
L 175.028425 204.423491 
L 185.66569 211.005623 
L 195.783852 212.193505 
L 205.431228 208.567046 
L 214.649688 203.121338 
L 223.475752 199.380438 
L 231.941466 199.251902 
L 240.075104 202.167396 
L 247.901738 206.223452 
L 255.443704 209.676186 
L 262.720983 211.6609 
L 269.751528 212.310483 
L 276.55152 212.383703 
L 283.135603 212.64026 
L 289.517066 213.414598 
L 295.70801 214.748469 
L 307.56159 217.890606 
L 313.243622 218.99553 
L 318.774115 219.222594 
L 329.411379 217.501858 
L 334.532163 219.490258 
L 344.409324 230.093291 
L 349.176918 231.364892 
L 353.837366 230.00128 
L 358.395378 231.10972 
L 362.85536 234.807454 
L 367.221441 236.340544 
L 371.497494 234.253926 
L 375.687155 232.569434 
L 379.793848 234.112993 
L 383.820794 237.151951 
L 387.771031 241.076578 
L 391.647428 246.529224 
L 395.452694 250.406484 
L 399.189393 250.132225 
L 402.859953 251.50626 
L 406.466673 256.633655 
L 410.011737 257.14411 
L 413.497217 256.858238 
L 416.925084 261.821344 
L 420.29721 262.036461 
L 423.61538 265.38835 
L 430.09657 270.61061 
L 433.262756 278.936921 
L 436.381329 270.48017 
L 439.453699 294.154243 
L 442.481216 248.959214 
L 445.465169 307.886354 
L 448.406796 295.386831 
L 451.307279 269.309165 
L 454.167755 297.311142 
L 456.989311 309.825039 
L 459.772993 291.292618 
L 462.519804 294.39904 
L 465.230708 313.622227 
L 467.906632 312.144017 
L 470.548466 302.207865 
L 473.157069 312.182633 
L 475.733266 323.139192 
L 478.277852 319.351497 
L 480.791594 314.261224 
L 483.275231 324.663027 
L 485.729475 332.594982 
L 488.155014 330.769219 
L 490.552511 328.363339 
L 492.922608 334.971877 
L 495.265923 342.540253 
L 497.583055 345.329766 
L 499.874584 346.553344 
L 502.141067 348.318184 
L 504.383048 351.704936 
L 506.60105 355.610315 
L 508.79558 358.968447 
L 510.967131 360.403833 
L 513.116178 361.338732 
L 515.243183 363.994141 
L 517.348594 366.133511 
L 521.496356 368.06882 
L 523.539537 369.96364 
L 525.562784 371.153657 
L 527.566483 371.695427 
L 529.551007 373.212533 
L 531.516721 375.288622 
L 533.463976 376.604152 
L 537.304478 377.019754 
L 539.198384 377.535466 
L 541.075149 378.249045 
L 542.935083 379.243953 
L 544.778483 380.006895 
L 546.605642 380.167195 
L 548.416843 380.070786 
L 550.212363 380.461758 
L 551.99247 381.046902 
L 553.757427 381.385863 
L 558.963922 381.901553 
L 564.042899 382.532741 
L 567.361069 382.922393 
L 573.842259 383.17151 
L 577.008446 383.550104 
L 578.573594 383.75051 
L 580.127019 383.833481 
L 584.718672 383.719833 
L 593.607798 384.340786 
L 600.735001 384.417383 
L 610.318675 384.719375 
L 618.194857 384.847184 
L 642.477674 385.183287 
L 692.162533 385.45564 
L 773.220854 385.549678 
L 852.784822 385.573126 
L 852.784822 385.573126 
" clip-path="url(#p03b763a95a)" style="fill: none; stroke-dasharray: 7.4,3.2; stroke-dashoffset: 0; stroke: #000000; stroke-width: 2"/>
   </g>
   <g id="line2d_27">
    <path d="M -1 176.216654 
L 20.070211 180.235028 
L 41.92 196.642106 
L 61.685539 214.350729 
L 79.730062 226.582674 
L 96.329414 230.939713 
L 111.698014 227.404005 
L 126.005838 217.29735 
L 139.389914 203.436322 
L 151.96232 190.838636 
L 163.8159 184.719078 
L 175.028425 187.47029 
L 185.66569 197.68263 
L 195.783852 211.256347 
L 205.431228 223.694278 
L 214.649688 231.966891 
L 223.475752 234.813287 
L 231.941466 232.40173 
L 240.075104 226.006217 
L 247.901738 217.745504 
L 255.443704 210.417671 
L 262.720983 206.628486 
L 269.751528 207.620726 
L 276.55152 212.357414 
L 283.135603 218.561796 
L 289.517066 224.074533 
L 295.70801 227.362286 
L 301.71948 227.481223 
L 307.56159 224.101257 
L 313.243622 218.246828 
L 318.774115 211.847255 
L 324.160942 207.364418 
L 329.411379 206.71079 
L 334.532163 210.547202 
L 339.529542 218.583978 
L 344.409324 228.844633 
L 349.176918 237.411993 
L 353.837366 241.034391 
L 358.395378 238.47683 
L 362.85536 231.183204 
L 367.221441 223.72948 
L 371.497494 221.458187 
L 375.687155 226.239939 
L 379.793848 233.984551 
L 383.820794 239.210351 
L 387.771031 240.231633 
L 391.647428 239.648006 
L 395.452694 241.051409 
L 399.189393 244.980298 
L 402.859953 248.204274 
L 406.466673 248.404038 
L 410.011737 247.435504 
L 413.497217 246.69377 
L 416.925084 248.184394 
L 420.29721 253.848299 
L 423.61538 259.114543 
L 426.881293 260.548638 
L 430.09657 260.24753 
L 433.262756 262.247674 
L 436.381329 269.243506 
L 439.453699 268.562143 
L 442.481216 276.772923 
L 445.465169 274.671333 
L 448.406796 282.025937 
L 451.307279 286.121254 
L 454.167755 286.02341 
L 456.989311 286.407577 
L 459.772993 290.796179 
L 462.519804 301.110291 
L 465.230708 308.338063 
L 467.906632 307.283647 
L 470.548466 307.122951 
L 473.157069 314.083075 
L 475.733266 321.675449 
L 478.277852 322.554297 
L 480.791594 320.059428 
L 483.275231 323.043001 
L 485.729475 328.883213 
L 488.155014 332.946999 
L 490.552511 334.2318 
L 492.922608 335.257714 
L 495.265923 337.332552 
L 497.583055 340.180706 
L 499.874584 344.641629 
L 502.141067 347.020795 
L 504.383048 346.638631 
L 506.60105 348.267069 
L 508.79558 353.393263 
L 510.967131 356.368184 
L 513.116178 356.140906 
L 515.243183 357.575444 
L 517.348594 360.682901 
L 519.432845 363.039401 
L 521.496356 364.957158 
L 523.539537 367.179326 
L 525.562784 368.651855 
L 527.566483 368.947386 
L 529.551007 369.46683 
L 531.516721 370.466301 
L 533.463976 371.224471 
L 535.393117 372.440468 
L 537.304478 374.756366 
L 539.198384 376.073029 
L 542.935083 374.707026 
L 544.778483 376.003257 
L 546.605642 377.698562 
L 548.416843 378.793843 
L 550.212363 379.429085 
L 551.99247 379.530164 
L 553.757427 379.138588 
L 555.507489 378.949775 
L 557.242907 379.542755 
L 558.963922 380.351692 
L 560.670773 380.77587 
L 562.36369 380.98114 
L 565.708621 381.656663 
L 570.626982 382.295237 
L 572.240852 382.575462 
L 573.842259 382.667216 
L 577.008446 382.682203 
L 583.199389 383.372552 
L 586.226905 383.710764 
L 589.210859 383.663284 
L 592.152485 383.702532 
L 597.913445 384.127272 
L 600.735001 384.253513 
L 606.265494 384.350617 
L 610.318675 384.516014 
L 618.194857 384.685873 
L 631.900704 384.966244 
L 649.240704 385.165186 
L 676.238323 385.356951 
L 747.954494 385.513709 
L 852.784822 385.561966 
L 852.784822 385.561966 
" clip-path="url(#p03b763a95a)" style="fill: none; stroke-dasharray: 7.4,3.2; stroke-dashoffset: 0; stroke: #000000; stroke-width: 2"/>
   </g>
   <g id="line2d_28">
    <path d="M -1 230.744622 
L 20.070211 226.859158 
L 41.92 218.082048 
L 61.685539 206.658011 
L 79.730062 195.928807 
L 96.329414 190.565714 
L 111.698014 193.2312 
L 126.005838 202.155154 
L 139.389914 213.016299 
L 151.96232 221.785335 
L 163.8159 226.729845 
L 175.028425 227.999782 
L 185.66569 226.385554 
L 195.783852 222.492069 
L 205.431228 216.590305 
L 223.475752 202.509104 
L 231.941466 198.750734 
L 240.075104 200.08336 
L 247.901738 206.557584 
L 255.443704 216.395098 
L 262.720983 226.815478 
L 269.751528 235.291713 
L 276.55152 240.240189 
L 283.135603 241.277555 
L 289.517066 238.637348 
L 295.70801 232.864849 
L 307.56159 217.447445 
L 313.243622 212.817313 
L 318.774115 213.282843 
L 324.160942 218.851922 
L 329.411379 227.398374 
L 334.532163 236.204169 
L 339.529542 242.99588 
L 344.409324 246.574693 
L 349.176918 247.017481 
L 353.837366 245.502808 
L 358.395378 243.871719 
L 362.85536 243.840312 
L 367.221441 245.830874 
L 371.497494 249.145025 
L 375.687155 252.72001 
L 379.793848 255.39885 
L 383.820794 256.655791 
L 387.771031 257.039475 
L 391.647428 258.514707 
L 395.452694 261.919507 
L 399.189393 265.881413 
L 402.859953 270.040967 
L 406.466673 273.390475 
L 410.011737 273.590193 
L 413.497217 274.27042 
L 416.925084 279.457813 
L 420.29721 284.014936 
L 423.61538 287.358027 
L 426.881293 287.434055 
L 430.09657 288.190419 
L 433.262756 294.223659 
L 436.381329 295.68083 
L 439.453699 306.841365 
L 442.481216 294.065382 
L 445.465169 312.250245 
L 448.406796 308.160084 
L 451.307279 303.252092 
L 454.167755 316.243395 
L 456.989311 322.109063 
L 459.772993 316.782837 
L 462.519804 321.114812 
L 465.230708 330.238705 
L 467.906632 332.147173 
L 470.548466 330.728136 
L 473.157069 333.974733 
L 475.733266 336.920607 
L 478.277852 336.174354 
L 480.791594 336.087449 
L 483.275231 342.405033 
L 485.729475 348.255453 
L 488.155014 350.708632 
L 490.552511 350.844813 
L 492.922608 351.359083 
L 495.265923 353.988571 
L 499.874584 360.626195 
L 502.141067 361.94697 
L 504.383048 361.970381 
L 506.60105 363.427881 
L 508.79558 366.292922 
L 510.967131 367.71492 
L 513.116178 367.775019 
L 515.243183 368.579823 
L 519.432845 371.724444 
L 521.496356 372.977149 
L 523.539537 373.784567 
L 525.562784 373.845346 
L 527.566483 373.370504 
L 529.551007 373.663718 
L 533.463976 376.558397 
L 535.393117 377.504253 
L 537.304478 378.30331 
L 539.198384 378.728902 
L 541.075149 378.616196 
L 542.935083 378.76513 
L 544.778483 379.349239 
L 546.605642 379.787043 
L 553.757427 380.677862 
L 555.507489 380.82135 
L 560.670773 381.588674 
L 564.042899 381.86162 
L 567.361069 382.313412 
L 570.626982 382.713465 
L 573.842259 383.092523 
L 581.668893 383.408353 
L 584.718672 383.566254 
L 587.724249 383.829757 
L 608.976398 384.590072 
L 616.902758 384.764889 
L 629.475165 384.983193 
L 651.446907 385.231677 
L 686.680772 385.415545 
L 753.394312 385.525875 
L 852.784822 385.566283 
L 852.784822 385.566283 
" clip-path="url(#p03b763a95a)" style="fill: none; stroke-dasharray: 7.4,3.2; stroke-dashoffset: 0; stroke: #000000; stroke-width: 2"/>
   </g>
   <g id="line2d_29">
    <path d="M -1 163.432659 
L 20.070211 161.98767 
L 41.92 187.233924 
L 61.685539 220.253568 
L 79.730062 243.838228 
L 96.329414 252.566182 
L 111.698014 247.71723 
L 126.005838 231.506463 
L 139.389914 208.010174 
L 151.96232 185.520779 
L 163.8159 173.505663 
L 175.028425 175.579509 
L 185.66569 187.904787 
L 195.783852 203.242562 
L 205.431228 216.435029 
L 214.649688 225.803825 
L 223.475752 232.181713 
L 231.941466 236.867845 
L 240.075104 240.572408 
L 247.901738 243.139085 
L 255.443704 243.706177 
L 262.720983 241.14706 
L 269.751528 234.485237 
L 276.55152 223.954724 
L 283.135603 212.233996 
L 289.517066 203.674679 
L 295.70801 201.515262 
L 301.71948 205.268778 
L 307.56159 211.469567 
L 313.243622 217.700627 
L 318.774115 225.226512 
L 324.160942 234.866611 
L 329.411379 243.522622 
L 334.532163 246.687875 
L 339.529542 242.525886 
L 344.409324 235.779565 
L 349.176918 234.605154 
L 353.837366 239.634394 
L 358.395378 244.974854 
L 362.85536 249.099323 
L 367.221441 254.100703 
L 371.497494 258.17303 
L 375.687155 256.520108 
L 379.793848 251.083367 
L 383.820794 250.813479 
L 387.771031 256.872674 
L 391.647428 262.456165 
L 395.452694 265.734335 
L 399.189393 269.544793 
L 402.859953 270.376858 
L 406.466673 268.156042 
L 410.011737 271.858949 
L 413.497217 277.203243 
L 416.925084 277.495928 
L 420.29721 280.093093 
L 423.61538 279.163005 
L 426.881293 281.359188 
L 430.09657 286.869701 
L 433.262756 286.759552 
L 436.381329 295.201938 
L 439.453699 281.937667 
L 442.481216 312.734411 
L 445.465169 281.149422 
L 448.406796 293.794 
L 451.307279 311.003416 
L 454.167755 301.911128 
L 456.989311 298.26916 
L 459.772993 312.663921 
L 462.519804 316.282392 
L 465.230708 310.358842 
L 467.906632 311.842372 
L 470.548466 318.337596 
L 473.157069 320.918953 
L 475.733266 321.824292 
L 478.277852 326.59363 
L 480.791594 330.513299 
L 483.275231 332.085982 
L 485.729475 333.408839 
L 490.552511 339.861413 
L 495.265923 341.339437 
L 497.583055 343.765989 
L 499.874584 347.382422 
L 502.141067 350.111506 
L 504.383048 350.508865 
L 506.60105 350.458574 
L 508.79558 352.829993 
L 510.967131 356.625445 
L 513.116178 359.015573 
L 515.243183 359.01194 
L 517.348594 358.451281 
L 519.432845 360.218398 
L 521.496356 363.59427 
L 523.539537 366.131067 
L 525.562784 366.739961 
L 527.566483 366.173281 
L 529.551007 366.441283 
L 531.516721 368.156479 
L 533.463976 370.056148 
L 535.393117 371.222533 
L 541.075149 373.001456 
L 542.935083 373.873093 
L 544.778483 374.862189 
L 546.605642 375.527229 
L 548.416843 376.054943 
L 551.99247 377.452697 
L 553.757427 377.942282 
L 555.507489 378.297178 
L 557.242907 378.775692 
L 560.670773 379.914291 
L 564.042899 380.725661 
L 565.708621 380.939017 
L 569.000455 381.090661 
L 572.240852 381.711308 
L 575.431395 382.23418 
L 583.199389 382.97839 
L 587.724249 383.229501 
L 590.686888 383.346264 
L 597.913445 383.856596 
L 604.896636 384.203051 
L 628.251673 384.821766 
L 651.446907 385.144055 
L 687.604521 385.378598 
L 749.327884 385.509128 
L 852.784822 385.559674 
L 852.784822 385.559674 
" clip-path="url(#p03b763a95a)" style="fill: none; stroke-dasharray: 7.4,3.2; stroke-dashoffset: 0; stroke: #000000; stroke-width: 2"/>
   </g>
   <g id="line2d_30">
    <path d="M -1 141.360884 
L 20.070211 157.36208 
L 41.92 183.388148 
L 61.685539 209.474976 
L 79.730062 228.975611 
L 96.329414 238.160975 
L 111.698014 236.572819 
L 126.005838 226.114095 
L 139.389914 210.720957 
L 151.96232 197.194358 
L 163.8159 191.247529 
L 175.028425 193.80383 
L 185.66569 201.573346 
L 195.783852 210.496273 
L 205.431228 217.8746 
L 214.649688 222.401085 
L 223.475752 223.35761 
L 231.941466 220.828609 
L 240.075104 215.625209 
L 247.901738 209.237878 
L 255.443704 203.649899 
L 262.720983 200.958421 
L 269.751528 202.461053 
L 276.55152 207.972779 
L 283.135603 215.871671 
L 289.517066 224.129133 
L 295.70801 231.133193 
L 301.71948 235.880396 
L 307.56159 237.706801 
L 313.243622 236.426768 
L 318.774115 232.405495 
L 324.160942 227.310019 
L 329.411379 224.277377 
L 334.532163 226.339494 
L 339.529542 233.821187 
L 344.409324 243.380149 
L 349.176918 250.362447 
L 353.837366 252.346165 
L 358.395378 249.706284 
L 362.85536 244.599639 
L 367.221441 239.84301 
L 371.497494 237.872156 
L 375.687155 240.363062 
L 379.793848 245.675475 
L 383.820794 249.218836 
L 387.771031 249.153254 
L 391.647428 248.082801 
L 395.452694 248.827319 
L 399.189393 252.02779 
L 402.859953 258.513867 
L 406.466673 265.946979 
L 410.011737 268.843418 
L 413.497217 269.364255 
L 416.925084 273.094578 
L 420.29721 276.485962 
L 423.61538 279.537497 
L 426.881293 278.265055 
L 430.09657 276.112614 
L 433.262756 279.860888 
L 436.381329 279.222715 
L 439.453699 290.5538 
L 442.481216 275.610482 
L 445.465169 300.694569 
L 448.406796 297.755704 
L 451.307279 291.144879 
L 454.167755 303.219721 
L 456.989311 307.588808 
L 459.772993 297.684172 
L 462.519804 302.929532 
L 465.230708 314.737978 
L 467.906632 314.420443 
L 470.548466 311.390072 
L 473.157069 319.617512 
L 475.733266 328.908906 
L 478.277852 328.832194 
L 480.791594 326.317372 
L 483.275231 330.217153 
L 485.729475 335.200994 
L 488.155014 336.483913 
L 490.552511 337.227471 
L 492.922608 340.146849 
L 495.265923 342.255602 
L 497.583055 343.509498 
L 499.874584 345.648962 
L 502.141067 346.701876 
L 504.383048 346.364049 
L 506.60105 347.324253 
L 508.79558 350.953006 
L 510.967131 352.815542 
L 513.116178 352.759601 
L 515.243183 354.648247 
L 517.348594 356.992593 
L 521.496356 358.873055 
L 523.539537 361.208055 
L 525.562784 363.337013 
L 527.566483 364.348838 
L 529.551007 365.600682 
L 531.516721 367.059026 
L 533.463976 368.061671 
L 535.393117 369.39467 
L 537.304478 371.677934 
L 539.198384 373.124228 
L 542.935083 372.456554 
L 544.778483 373.352588 
L 546.605642 374.558169 
L 548.416843 375.48795 
L 550.212363 376.233353 
L 551.99247 376.644811 
L 553.757427 376.689731 
L 555.507489 376.905419 
L 558.963922 378.469652 
L 560.670773 378.934801 
L 564.042899 379.485275 
L 567.361069 380.155662 
L 573.842259 381.035457 
L 577.008446 381.272515 
L 580.127019 381.738001 
L 589.210859 382.609328 
L 596.488139 383.074838 
L 610.318675 383.985844 
L 618.194857 384.262474 
L 627.020921 384.509088 
L 647.010777 384.941342 
L 672.306809 385.220893 
L 715.181177 385.422206 
L 791.3162 385.52372 
L 852.784822 385.549922 
L 852.784822 385.549922 
" clip-path="url(#p03b763a95a)" style="fill: none; stroke-dasharray: 7.4,3.2; stroke-dashoffset: 0; stroke: #000000; stroke-width: 2"/>
   </g>
   <g id="line2d_31">
    <path d="M -1 184.4415 
L 20.070211 174.373365 
L 41.92 171.994444 
L 61.685539 176.467061 
L 79.730062 185.884794 
L 96.329414 198.763583 
L 111.698014 212.900317 
L 126.005838 225.782778 
L 139.389914 235.100115 
L 151.96232 239.922607 
L 163.8159 240.282889 
L 175.028425 236.290891 
L 185.66569 228.37327 
L 195.783852 217.453792 
L 205.431228 205.87199 
L 214.649688 197.11462 
L 223.475752 194.852116 
L 231.941466 200.591839 
L 240.075104 212.319972 
L 247.901738 226.055886 
L 255.443704 237.705836 
L 262.720983 244.439946 
L 269.751528 245.2227 
L 276.55152 241.10506 
L 283.135603 234.578585 
L 289.517066 228.89676 
L 295.70801 226.684205 
L 301.71948 228.539279 
L 307.56159 232.983833 
L 313.243622 238.106469 
L 318.774115 243.550544 
L 329.411379 255.292956 
L 334.532163 259.582554 
L 339.529542 260.22149 
L 344.409324 256.994193 
L 349.176918 252.575624 
L 353.837366 249.985179 
L 358.395378 251.583306 
L 362.85536 258.414016 
L 367.221441 267.707157 
L 371.497494 274.518134 
L 375.687155 277.169752 
L 379.793848 277.953361 
L 383.820794 279.524974 
L 387.771031 282.687653 
L 391.647428 286.579792 
L 395.452694 289.305789 
L 399.189393 291.048373 
L 402.859953 295.141925 
L 406.466673 302.320806 
L 410.011737 307.751371 
L 413.497217 311.098421 
L 416.925084 313.138691 
L 420.29721 311.340193 
L 423.61538 311.230775 
L 426.881293 313.581285 
L 430.09657 317.48338 
L 433.262756 322.837509 
L 436.381329 323.091678 
L 439.453699 333.844102 
L 442.481216 324.287925 
L 445.465169 338.177874 
L 448.406796 333.010388 
L 451.307279 326.265802 
L 454.167755 331.66228 
L 456.989311 334.580041 
L 459.772993 328.96941 
L 462.519804 330.166508 
L 465.230708 336.643065 
L 467.906632 338.902952 
L 470.548466 336.80578 
L 475.733266 340.396683 
L 478.277852 340.420331 
L 480.791594 340.906853 
L 483.275231 344.295596 
L 485.729475 345.738449 
L 488.155014 345.714202 
L 490.552511 346.554281 
L 492.922608 348.563693 
L 495.265923 349.566822 
L 497.583055 349.964903 
L 499.874584 351.403533 
L 502.141067 353.014353 
L 504.383048 353.788793 
L 506.60105 353.973095 
L 508.79558 355.476316 
L 510.967131 357.930423 
L 513.116178 359.802081 
L 515.243183 360.264895 
L 517.348594 360.005217 
L 519.432845 361.111625 
L 521.496356 363.602602 
L 523.539537 365.434323 
L 525.562784 365.4632 
L 527.566483 364.494309 
L 529.551007 364.368051 
L 531.516721 365.85447 
L 533.463976 367.847656 
L 535.393117 368.957303 
L 539.198384 369.407316 
L 541.075149 370.315343 
L 542.935083 371.487086 
L 544.778483 372.314389 
L 546.605642 372.560551 
L 548.416843 372.645855 
L 550.212363 373.082393 
L 551.99247 373.979621 
L 553.757427 375.051652 
L 555.507489 375.952562 
L 557.242907 376.530369 
L 558.963922 376.805389 
L 562.36369 377.100858 
L 564.042899 377.444363 
L 573.842259 380.157068 
L 577.008446 380.55814 
L 581.668893 380.97632 
L 592.152485 382.141507 
L 604.896636 383.317239 
L 630.69148 384.510867 
L 653.629887 385.008605 
L 693.062236 385.321359 
L 756.061631 385.472695 
L 852.784822 385.539397 
L 852.784822 385.539397 
" clip-path="url(#p03b763a95a)" style="fill: none; stroke-dasharray: 7.4,3.2; stroke-dashoffset: 0; stroke: #000000; stroke-width: 2"/>
   </g>
   <g id="line2d_32">
    <path d="M -1 219.938048 
L 20.070211 215.934126 
L 41.92 208.691786 
L 61.685539 202.538613 
L 79.730062 198.363666 
L 96.329414 193.916312 
L 111.698014 186.830927 
L 126.005838 177.605212 
L 139.389914 169.562338 
L 151.96232 166.819448 
L 163.8159 170.800573 
L 175.028425 179.685187 
L 185.66569 190.48859 
L 195.783852 200.573328 
L 205.431228 208.798061 
L 214.649688 215.259561 
L 223.475752 220.315883 
L 231.941466 224.284781 
L 240.075104 227.281895 
L 247.901738 229.30909 
L 255.443704 230.515265 
L 262.720983 230.964447 
L 269.751528 230.56733 
L 276.55152 229.07988 
L 283.135603 226.309317 
L 289.517066 222.551989 
L 295.70801 218.328479 
L 301.71948 214.483402 
L 307.56159 211.718611 
L 313.243622 210.744368 
L 318.774115 212.075361 
L 324.160942 215.598531 
L 329.411379 220.233454 
L 334.532163 224.319672 
L 344.409324 229.768118 
L 353.837366 237.20652 
L 358.395378 238.684683 
L 362.85536 238.518068 
L 367.221441 240.113085 
L 371.497494 244.994641 
L 375.687155 251.692926 
L 379.793848 257.876223 
L 383.820794 262.108437 
L 387.771031 264.019775 
L 391.647428 264.375631 
L 395.452694 265.15399 
L 399.189393 266.771407 
L 406.466673 268.439721 
L 410.011737 273.329731 
L 413.497217 279.1793 
L 416.925084 281.91788 
L 420.29721 284.439298 
L 423.61538 286.411909 
L 426.881293 287.712794 
L 430.09657 287.546856 
L 433.262756 287.834547 
L 436.381329 297.105428 
L 439.453699 297.098281 
L 442.481216 312.111475 
L 445.465169 306.247844 
L 448.406796 314.887575 
L 451.307279 319.56628 
L 454.167755 312.525578 
L 456.989311 311.891403 
L 459.772993 318.37797 
L 462.519804 318.645105 
L 465.230708 318.267292 
L 467.906632 322.100192 
L 470.548466 324.151468 
L 473.157069 322.027746 
L 475.733266 323.222375 
L 478.277852 328.541088 
L 480.791594 331.176034 
L 483.275231 329.58955 
L 485.729475 329.53623 
L 488.155014 333.655872 
L 490.552511 338.442092 
L 492.922608 339.772537 
L 495.265923 338.054896 
L 497.583055 337.966996 
L 499.874584 342.498175 
L 502.141067 346.134306 
L 506.60105 345.746028 
L 510.967131 353.019837 
L 513.116178 354.186736 
L 515.243183 355.12299 
L 517.348594 356.477979 
L 521.496356 360.308198 
L 523.539537 361.35684 
L 525.562784 360.716664 
L 527.566483 359.144215 
L 529.551007 359.526663 
L 531.516721 361.785 
L 533.463976 363.688801 
L 535.393117 365.110354 
L 537.304478 366.760527 
L 539.198384 367.729127 
L 541.075149 367.171531 
L 542.935083 366.829004 
L 544.778483 367.80809 
L 546.605642 369.067401 
L 550.212363 370.99379 
L 551.99247 371.699964 
L 555.507489 372.440214 
L 558.963922 373.950309 
L 560.670773 374.319416 
L 562.36369 374.536745 
L 565.708621 375.388735 
L 569.000455 375.644754 
L 570.626982 376.210116 
L 572.240852 377.00901 
L 573.842259 377.616235 
L 577.008446 378.231087 
L 583.199389 379.316696 
L 586.226905 380.172013 
L 589.210859 380.635109 
L 596.488139 381.547038 
L 600.735001 382.029575 
L 615.602559 383.323492 
L 627.020921 384.010681 
L 642.477674 384.552501 
L 658.988873 384.877235 
L 686.680772 385.170319 
L 733.695876 385.381824 
L 820.955355 385.499014 
L 852.784822 385.51825 
L 852.784822 385.51825 
" clip-path="url(#p03b763a95a)" style="fill: none; stroke-dasharray: 7.4,3.2; stroke-dashoffset: 0; stroke: #000000; stroke-width: 2"/>
   </g>
   <g id="line2d_33">
    <path d="M -1 238.202276 
L 20.070211 235.366628 
L 41.92 219.510232 
L 61.685539 197.169796 
L 79.730062 175.018219 
L 96.329414 158.161292 
L 111.698014 149.005156 
L 126.005838 148.73995 
L 139.389914 157.169036 
L 151.96232 171.771611 
L 163.8159 188.304455 
L 175.028425 202.735966 
L 185.66569 212.982077 
L 195.783852 219.111015 
L 205.431228 222.333621 
L 214.649688 224.187388 
L 223.475752 225.649592 
L 231.941466 226.859936 
L 240.075104 227.606321 
L 247.901738 227.773278 
L 255.443704 227.405499 
L 262.720983 226.618529 
L 269.751528 225.738507 
L 276.55152 225.250219 
L 283.135603 225.164228 
L 289.517066 224.883124 
L 295.70801 223.825224 
L 307.56159 220.01045 
L 313.243622 218.614373 
L 318.774115 216.898615 
L 324.160942 214.194941 
L 329.411379 212.667824 
L 334.532163 216.083988 
L 339.529542 225.226404 
L 344.409324 235.104704 
L 349.176918 240.417008 
L 353.837366 242.105716 
L 358.395378 244.769319 
L 362.85536 248.90239 
L 367.221441 251.104398 
L 371.497494 250.610417 
L 375.687155 250.419411 
L 379.793848 251.621728 
L 383.820794 252.293742 
L 387.771031 252.5692 
L 391.647428 254.330956 
L 395.452694 256.633997 
L 399.189393 258.290046 
L 402.859953 263.282645 
L 406.466673 270.213914 
L 410.011737 270.279822 
L 413.497217 267.955508 
L 416.925084 271.301058 
L 420.29721 273.428563 
L 423.61538 276.973978 
L 426.881293 278.468039 
L 430.09657 280.573564 
L 433.262756 287.046092 
L 436.381329 281.457748 
L 439.453699 298.166735 
L 442.481216 273.468556 
L 445.465169 307.499947 
L 448.406796 297.221791 
L 451.307279 285.816833 
L 454.167755 306.642254 
L 456.989311 313.598233 
L 459.772993 304.874851 
L 462.519804 313.075458 
L 465.230708 324.462244 
L 467.906632 322.149398 
L 470.548466 319.092762 
L 473.157069 326.61248 
L 475.733266 330.708466 
L 478.277852 326.294875 
L 480.791594 323.032478 
L 483.275231 328.815717 
L 485.729475 333.976557 
L 488.155014 333.736283 
L 490.552511 331.563814 
L 492.922608 333.083297 
L 495.265923 337.854311 
L 497.583055 341.355836 
L 499.874584 342.082049 
L 502.141067 341.995728 
L 504.383048 344.060105 
L 506.60105 347.630346 
L 508.79558 349.747873 
L 510.967131 350.072559 
L 513.116178 350.21947 
L 515.243183 351.697684 
L 517.348594 353.864266 
L 519.432845 355.539194 
L 523.539537 357.174707 
L 529.551007 360.643147 
L 531.516721 361.961258 
L 533.463976 363.430407 
L 535.393117 364.745099 
L 537.304478 365.820645 
L 541.075149 367.616178 
L 544.778483 369.739667 
L 546.605642 370.509698 
L 551.99247 372.045219 
L 555.507489 373.395948 
L 558.963922 374.405139 
L 562.36369 375.1676 
L 564.042899 375.661872 
L 569.000455 377.550145 
L 570.626982 377.929394 
L 581.668893 379.541286 
L 584.718672 379.944596 
L 589.210859 380.917658 
L 597.913445 382.153278 
L 602.131513 382.616084 
L 612.977445 383.422991 
L 623.284222 384.026548 
L 637.843265 384.522936 
L 652.54127 384.848626 
L 679.138807 385.156195 
L 722.319284 385.375076 
L 804.839973 385.492348 
L 852.784822 385.519602 
L 852.784822 385.519602 
" clip-path="url(#p03b763a95a)" style="fill: none; stroke-dasharray: 7.4,3.2; stroke-dashoffset: 0; stroke: #000000; stroke-width: 2"/>
   </g>
   <g id="line2d_34">
    <path d="M -1 207.436731 
L 20.070211 196.338182 
L 41.92 204.320405 
L 61.685539 226.105368 
L 79.730062 247.619153 
L 96.329414 261.375445 
L 111.698014 267.086523 
L 126.005838 266.588209 
L 139.389914 262.603732 
L 151.96232 259.609598 
L 163.8159 261.857861 
L 175.028425 269.548441 
L 185.66569 279.113064 
L 195.783852 286.365344 
L 205.431228 289.151696 
L 214.649688 287.562271 
L 223.475752 283.497606 
L 231.941466 280.066734 
L 240.075104 279.830345 
L 247.901738 283.28693 
L 255.443704 288.788855 
L 262.720983 293.260772 
L 269.751528 294.246261 
L 276.55152 291.701137 
L 283.135603 288.634887 
L 289.517066 289.639781 
L 295.70801 295.955168 
L 301.71948 303.338464 
L 307.56159 306.392658 
L 313.243622 303.474598 
L 318.774115 298.345639 
L 324.160942 297.740646 
L 334.532163 307.340122 
L 339.529542 307.186488 
L 344.409324 305.20543 
L 349.176918 308.338032 
L 353.837366 313.625867 
L 358.395378 314.239384 
L 362.85536 312.644648 
L 367.221441 315.753147 
L 371.497494 321.453265 
L 375.687155 322.788773 
L 379.793848 321.266245 
L 383.820794 324.636217 
L 387.771031 331.041841 
L 391.647428 332.391298 
L 395.452694 329.873178 
L 399.189393 331.825839 
L 402.859953 335.729746 
L 406.466673 336.933545 
L 410.011737 339.816687 
L 413.497217 341.727539 
L 416.925084 341.677726 
L 420.29721 347.265694 
L 423.61538 347.508652 
L 426.881293 347.57129 
L 430.09657 351.595647 
L 433.262756 351.101557 
L 436.381329 357.181995 
L 439.453699 341.108219 
L 442.481216 364.953975 
L 445.465169 338.045971 
L 448.406796 351.634415 
L 451.307279 365.594477 
L 454.167755 358.306375 
L 456.989311 345.738336 
L 459.772993 362.174627 
L 462.519804 366.416064 
L 465.230708 359.757384 
L 467.906632 358.976626 
L 470.548466 366.477426 
L 473.157069 367.506282 
L 475.733266 363.411509 
L 478.277852 365.71667 
L 480.791594 367.821522 
L 483.275231 367.391228 
L 485.729475 366.404272 
L 488.155014 368.924203 
L 490.552511 370.126778 
L 492.922608 367.106015 
L 495.265923 368.363706 
L 497.583055 370.712634 
L 499.874584 371.689297 
L 502.141067 371.31185 
L 504.383048 371.388872 
L 506.60105 372.587296 
L 508.79558 372.572109 
L 510.967131 372.968669 
L 513.116178 374.500948 
L 515.243183 373.869215 
L 517.348594 373.560113 
L 519.432845 375.711291 
L 521.496356 377.012722 
L 523.539537 376.241388 
L 525.562784 375.750876 
L 527.566483 377.294888 
L 529.551007 378.299551 
L 531.516721 378.095407 
L 533.463976 378.347761 
L 535.393117 379.010788 
L 537.304478 379.121345 
L 539.198384 379.022047 
L 541.075149 380.011444 
L 542.935083 380.288847 
L 544.778483 379.928131 
L 546.605642 380.422184 
L 548.416843 381.119079 
L 550.212363 381.163313 
L 551.99247 380.852346 
L 553.757427 381.225983 
L 555.507489 381.912114 
L 557.242907 382.064186 
L 558.963922 381.925102 
L 560.670773 382.037897 
L 562.36369 382.322039 
L 569.000455 382.953017 
L 572.240852 382.851325 
L 577.008446 383.36992 
L 580.127019 383.395698 
L 583.199389 383.762822 
L 589.210859 383.944378 
L 592.152485 384.133233 
L 596.488139 384.322189 
L 604.896636 384.550635 
L 608.976398 384.613823 
L 612.977445 384.781326 
L 620.755151 384.897132 
L 660.04425 385.325834 
L 782.757302 385.548684 
L 852.784822 385.569715 
L 852.784822 385.569715 
" clip-path="url(#p03b763a95a)" style="fill: none; stroke-dasharray: 7.4,3.2; stroke-dashoffset: 0; stroke: #000000; stroke-width: 2"/>
   </g>
   <g id="patch_3">
    <path d="M 41.92 403.436 
L 41.92 10.8 
" style="fill: none; stroke: #000000; stroke-width: 0.8; stroke-linejoin: miter; stroke-linecap: square"/>
   </g>
   <g id="patch_4">
    <path d="M 853.2 403.436 
L 853.2 10.8 
" style="fill: none; stroke: #000000; stroke-width: 0.8; stroke-linejoin: miter; stroke-linecap: square"/>
   </g>
   <g id="patch_5">
    <path d="M 41.92 403.436 
L 853.2 403.436 
" style="fill: none; stroke: #000000; stroke-width: 0.8; stroke-linejoin: miter; stroke-linecap: square"/>
   </g>
   <g id="patch_6">
    <path d="M 41.92 10.8 
L 853.2 10.8 
" style="fill: none; stroke: #000000; stroke-width: 0.8; stroke-linejoin: miter; stroke-linecap: square"/>
   </g>
  </g>
 </g>
 <defs>
  <clipPath id="p03b763a95a">
   <rect x="41.92" y="10.8" width="811.28" height="392.636"/>
  </clipPath>
 </defs>
</svg>
