<?xml version="1.0" encoding="utf-8" standalone="no"?>
<!DOCTYPE svg PUBLIC "-//W3C//DTD SVG 1.1//EN"
  "http://www.w3.org/Graphics/SVG/1.1/DTD/svg11.dtd">
<svg xmlns:xlink="http://www.w3.org/1999/xlink" width="864pt" height="432pt" viewBox="0 0 864 432" xmlns="http://www.w3.org/2000/svg" version="1.1">
 <metadata>
  <rdf:RDF xmlns:dc="http://purl.org/dc/elements/1.1/" xmlns:cc="http://creativecommons.org/ns#" xmlns:rdf="http://www.w3.org/1999/02/22-rdf-syntax-ns#">
   <cc:Work>
    <dc:type rdf:resource="http://purl.org/dc/dcmitype/StillImage"/>
    <dc:date>2024-09-16T11:41:44.181072</dc:date>
    <dc:format>image/svg+xml</dc:format>
    <dc:creator>
     <cc:Agent>
      <dc:title>Matplotlib v3.9.2, https://matplotlib.org/</dc:title>
     </cc:Agent>
    </dc:creator>
   </cc:Work>
  </rdf:RDF>
 </metadata>
 <defs>
  <style type="text/css">*{stroke-linejoin: round; stroke-linecap: butt}</style>
 </defs>
 <g id="figure_1">
  <g id="patch_1">
   <path d="M 0 432 
L 864 432 
L 864 0 
L 0 0 
z
" style="fill: #ffffff"/>
  </g>
  <g id="axes_1">
   <g id="patch_2">
    <path d="M 41.92 404.12 
L 853.2 404.12 
L 853.2 10.8 
L 41.92 10.8 
z
" style="fill: #ffffff"/>
   </g>
   <g id="matplotlib.axis_1">
    <g id="xtick_1">
     <g id="line2d_1">
      <defs>
       <path id="mabbbc5a512" d="M 0 0 
L 0 3.5 
" style="stroke: #000000; stroke-width: 0.8"/>
      </defs>
      <g>
       <use xlink:href="#mabbbc5a512" x="204.322897" y="404.12" style="stroke: #000000; stroke-width: 0.8"/>
      </g>
     </g>
     <g id="text_1">
      <!-- 2000 -->
      <g transform="translate(192.282272 418.771563) scale(0.1 -0.1)">
       <defs>
        <path id="DejaVuSansMono-32" d="M 1166 531 
L 3309 531 
L 3309 0 
L 475 0 
L 475 531 
Q 1059 1147 1496 1619 
Q 1934 2091 2100 2284 
Q 2413 2666 2522 2902 
Q 2631 3138 2631 3384 
Q 2631 3775 2401 3997 
Q 2172 4219 1772 4219 
Q 1488 4219 1175 4116 
Q 863 4013 513 3803 
L 513 4441 
Q 834 4594 1145 4672 
Q 1456 4750 1759 4750 
Q 2444 4750 2861 4386 
Q 3278 4022 3278 3431 
Q 3278 3131 3139 2831 
Q 3000 2531 2688 2169 
Q 2513 1966 2180 1606 
Q 1847 1247 1166 531 
z
" transform="scale(0.015625)"/>
        <path id="DejaVuSansMono-30" d="M 1509 2344 
Q 1509 2516 1629 2641 
Q 1750 2766 1919 2766 
Q 2094 2766 2219 2641 
Q 2344 2516 2344 2344 
Q 2344 2169 2220 2047 
Q 2097 1925 1919 1925 
Q 1744 1925 1626 2044 
Q 1509 2163 1509 2344 
z
M 1925 4250 
Q 1484 4250 1267 3775 
Q 1050 3300 1050 2328 
Q 1050 1359 1267 884 
Q 1484 409 1925 409 
Q 2369 409 2586 884 
Q 2803 1359 2803 2328 
Q 2803 3300 2586 3775 
Q 2369 4250 1925 4250 
z
M 1925 4750 
Q 2672 4750 3055 4137 
Q 3438 3525 3438 2328 
Q 3438 1134 3055 521 
Q 2672 -91 1925 -91 
Q 1178 -91 797 521 
Q 416 1134 416 2328 
Q 416 3525 797 4137 
Q 1178 4750 1925 4750 
z
" transform="scale(0.015625)"/>
       </defs>
       <use xlink:href="#DejaVuSansMono-32"/>
       <use xlink:href="#DejaVuSansMono-30" x="60.205078"/>
       <use xlink:href="#DejaVuSansMono-30" x="120.410156"/>
       <use xlink:href="#DejaVuSansMono-30" x="180.615234"/>
      </g>
     </g>
    </g>
    <g id="xtick_2">
     <g id="line2d_2">
      <g>
       <use xlink:href="#mabbbc5a512" x="367.541889" y="404.12" style="stroke: #000000; stroke-width: 0.8"/>
      </g>
     </g>
     <g id="text_2">
      <!-- 4000 -->
      <g transform="translate(355.501264 418.771563) scale(0.1 -0.1)">
       <defs>
        <path id="DejaVuSansMono-34" d="M 2297 4091 
L 825 1625 
L 2297 1625 
L 2297 4091 
z
M 2194 4666 
L 2925 4666 
L 2925 1625 
L 3547 1625 
L 3547 1113 
L 2925 1113 
L 2925 0 
L 2297 0 
L 2297 1113 
L 319 1113 
L 319 1709 
L 2194 4666 
z
" transform="scale(0.015625)"/>
       </defs>
       <use xlink:href="#DejaVuSansMono-34"/>
       <use xlink:href="#DejaVuSansMono-30" x="60.205078"/>
       <use xlink:href="#DejaVuSansMono-30" x="120.410156"/>
       <use xlink:href="#DejaVuSansMono-30" x="180.615234"/>
      </g>
     </g>
    </g>
    <g id="xtick_3">
     <g id="line2d_3">
      <g>
       <use xlink:href="#mabbbc5a512" x="530.760881" y="404.12" style="stroke: #000000; stroke-width: 0.8"/>
      </g>
     </g>
     <g id="text_3">
      <!-- 6000 -->
      <g transform="translate(518.720256 418.771563) scale(0.1 -0.1)">
       <defs>
        <path id="DejaVuSansMono-36" d="M 3097 4563 
L 3097 3981 
Q 2900 4097 2678 4158 
Q 2456 4219 2216 4219 
Q 1616 4219 1306 3767 
Q 997 3316 997 2438 
Q 1147 2750 1412 2917 
Q 1678 3084 2022 3084 
Q 2697 3084 3067 2670 
Q 3438 2256 3438 1497 
Q 3438 741 3056 325 
Q 2675 -91 1984 -91 
Q 1172 -91 794 492 
Q 416 1075 416 2328 
Q 416 3509 870 4129 
Q 1325 4750 2188 4750 
Q 2419 4750 2650 4701 
Q 2881 4653 3097 4563 
z
M 1972 2591 
Q 1569 2591 1337 2300 
Q 1106 2009 1106 1497 
Q 1106 984 1337 693 
Q 1569 403 1972 403 
Q 2391 403 2603 679 
Q 2816 956 2816 1497 
Q 2816 2041 2603 2316 
Q 2391 2591 1972 2591 
z
" transform="scale(0.015625)"/>
       </defs>
       <use xlink:href="#DejaVuSansMono-36"/>
       <use xlink:href="#DejaVuSansMono-30" x="60.205078"/>
       <use xlink:href="#DejaVuSansMono-30" x="120.410156"/>
       <use xlink:href="#DejaVuSansMono-30" x="180.615234"/>
      </g>
     </g>
    </g>
    <g id="xtick_4">
     <g id="line2d_4">
      <g>
       <use xlink:href="#mabbbc5a512" x="693.979873" y="404.12" style="stroke: #000000; stroke-width: 0.8"/>
      </g>
     </g>
     <g id="text_4">
      <!-- 8000 -->
      <g transform="translate(681.939248 418.771563) scale(0.1 -0.1)">
       <defs>
        <path id="DejaVuSansMono-38" d="M 1925 2216 
Q 1503 2216 1273 1980 
Q 1044 1744 1044 1313 
Q 1044 881 1276 642 
Q 1509 403 1925 403 
Q 2350 403 2579 639 
Q 2809 875 2809 1313 
Q 2809 1741 2576 1978 
Q 2344 2216 1925 2216 
z
M 1375 2478 
Q 972 2581 745 2862 
Q 519 3144 519 3541 
Q 519 4097 897 4423 
Q 1275 4750 1925 4750 
Q 2578 4750 2956 4423 
Q 3334 4097 3334 3541 
Q 3334 3144 3107 2862 
Q 2881 2581 2478 2478 
Q 2947 2375 3195 2062 
Q 3444 1750 3444 1253 
Q 3444 622 3041 265 
Q 2638 -91 1925 -91 
Q 1213 -91 811 264 
Q 409 619 409 1247 
Q 409 1747 657 2061 
Q 906 2375 1375 2478 
z
M 1147 3481 
Q 1147 3106 1347 2909 
Q 1547 2713 1925 2713 
Q 2306 2713 2506 2909 
Q 2706 3106 2706 3481 
Q 2706 3863 2507 4063 
Q 2309 4263 1925 4263 
Q 1547 4263 1347 4061 
Q 1147 3859 1147 3481 
z
" transform="scale(0.015625)"/>
       </defs>
       <use xlink:href="#DejaVuSansMono-38"/>
       <use xlink:href="#DejaVuSansMono-30" x="60.205078"/>
       <use xlink:href="#DejaVuSansMono-30" x="120.410156"/>
       <use xlink:href="#DejaVuSansMono-30" x="180.615234"/>
      </g>
     </g>
    </g>
   </g>
   <g id="matplotlib.axis_2">
    <g id="ytick_1">
     <g id="line2d_5">
      <defs>
       <path id="m1823860e69" d="M 0 0 
L -3.5 0 
" style="stroke: #000000; stroke-width: 0.8"/>
      </defs>
      <g>
       <use xlink:href="#m1823860e69" x="41.92" y="386.241818" style="stroke: #000000; stroke-width: 0.8"/>
      </g>
     </g>
     <g id="text_5">
      <!-- 0.00 -->
      <g transform="translate(10.83875 390.067599) scale(0.1 -0.1)">
       <defs>
        <path id="DejaVuSansMono-2e" d="M 1528 953 
L 2316 953 
L 2316 0 
L 1528 0 
L 1528 953 
z
" transform="scale(0.015625)"/>
       </defs>
       <use xlink:href="#DejaVuSansMono-30"/>
       <use xlink:href="#DejaVuSansMono-2e" x="60.205078"/>
       <use xlink:href="#DejaVuSansMono-30" x="120.410156"/>
       <use xlink:href="#DejaVuSansMono-30" x="180.615234"/>
      </g>
     </g>
    </g>
    <g id="ytick_2">
     <g id="line2d_6">
      <g>
       <use xlink:href="#m1823860e69" x="41.92" y="333.984806" style="stroke: #000000; stroke-width: 0.8"/>
      </g>
     </g>
     <g id="text_6">
      <!-- 0.02 -->
      <g transform="translate(10.83875 337.810587) scale(0.1 -0.1)">
       <use xlink:href="#DejaVuSansMono-30"/>
       <use xlink:href="#DejaVuSansMono-2e" x="60.205078"/>
       <use xlink:href="#DejaVuSansMono-30" x="120.410156"/>
       <use xlink:href="#DejaVuSansMono-32" x="180.615234"/>
      </g>
     </g>
    </g>
    <g id="ytick_3">
     <g id="line2d_7">
      <g>
       <use xlink:href="#m1823860e69" x="41.92" y="281.727794" style="stroke: #000000; stroke-width: 0.8"/>
      </g>
     </g>
     <g id="text_7">
      <!-- 0.04 -->
      <g transform="translate(10.83875 285.553575) scale(0.1 -0.1)">
       <use xlink:href="#DejaVuSansMono-30"/>
       <use xlink:href="#DejaVuSansMono-2e" x="60.205078"/>
       <use xlink:href="#DejaVuSansMono-30" x="120.410156"/>
       <use xlink:href="#DejaVuSansMono-34" x="180.615234"/>
      </g>
     </g>
    </g>
    <g id="ytick_4">
     <g id="line2d_8">
      <g>
       <use xlink:href="#m1823860e69" x="41.92" y="229.470781" style="stroke: #000000; stroke-width: 0.8"/>
      </g>
     </g>
     <g id="text_8">
      <!-- 0.06 -->
      <g transform="translate(10.83875 233.296563) scale(0.1 -0.1)">
       <use xlink:href="#DejaVuSansMono-30"/>
       <use xlink:href="#DejaVuSansMono-2e" x="60.205078"/>
       <use xlink:href="#DejaVuSansMono-30" x="120.410156"/>
       <use xlink:href="#DejaVuSansMono-36" x="180.615234"/>
      </g>
     </g>
    </g>
    <g id="ytick_5">
     <g id="line2d_9">
      <g>
       <use xlink:href="#m1823860e69" x="41.92" y="177.213769" style="stroke: #000000; stroke-width: 0.8"/>
      </g>
     </g>
     <g id="text_9">
      <!-- 0.08 -->
      <g transform="translate(10.83875 181.03955) scale(0.1 -0.1)">
       <use xlink:href="#DejaVuSansMono-30"/>
       <use xlink:href="#DejaVuSansMono-2e" x="60.205078"/>
       <use xlink:href="#DejaVuSansMono-30" x="120.410156"/>
       <use xlink:href="#DejaVuSansMono-38" x="180.615234"/>
      </g>
     </g>
    </g>
    <g id="ytick_6">
     <g id="line2d_10">
      <g>
       <use xlink:href="#m1823860e69" x="41.92" y="124.956757" style="stroke: #000000; stroke-width: 0.8"/>
      </g>
     </g>
     <g id="text_10">
      <!-- 0.10 -->
      <g transform="translate(10.83875 128.782538) scale(0.1 -0.1)">
       <defs>
        <path id="DejaVuSansMono-31" d="M 844 531 
L 1825 531 
L 1825 4097 
L 769 3859 
L 769 4434 
L 1819 4666 
L 2450 4666 
L 2450 531 
L 3419 531 
L 3419 0 
L 844 0 
L 844 531 
z
" transform="scale(0.015625)"/>
       </defs>
       <use xlink:href="#DejaVuSansMono-30"/>
       <use xlink:href="#DejaVuSansMono-2e" x="60.205078"/>
       <use xlink:href="#DejaVuSansMono-31" x="120.410156"/>
       <use xlink:href="#DejaVuSansMono-30" x="180.615234"/>
      </g>
     </g>
    </g>
    <g id="ytick_7">
     <g id="line2d_11">
      <g>
       <use xlink:href="#m1823860e69" x="41.92" y="72.699745" style="stroke: #000000; stroke-width: 0.8"/>
      </g>
     </g>
     <g id="text_11">
      <!-- 0.12 -->
      <g transform="translate(10.83875 76.525526) scale(0.1 -0.1)">
       <use xlink:href="#DejaVuSansMono-30"/>
       <use xlink:href="#DejaVuSansMono-2e" x="60.205078"/>
       <use xlink:href="#DejaVuSansMono-31" x="120.410156"/>
       <use xlink:href="#DejaVuSansMono-32" x="180.615234"/>
      </g>
     </g>
    </g>
    <g id="ytick_8">
     <g id="line2d_12">
      <g>
       <use xlink:href="#m1823860e69" x="41.92" y="20.442732" style="stroke: #000000; stroke-width: 0.8"/>
      </g>
     </g>
     <g id="text_12">
      <!-- 0.14 -->
      <g transform="translate(10.83875 24.268514) scale(0.1 -0.1)">
       <use xlink:href="#DejaVuSansMono-30"/>
       <use xlink:href="#DejaVuSansMono-2e" x="60.205078"/>
       <use xlink:href="#DejaVuSansMono-31" x="120.410156"/>
       <use xlink:href="#DejaVuSansMono-34" x="180.615234"/>
      </g>
     </g>
    </g>
   </g>
   <g id="line2d_13">
    <path d="M 41.838391 93.292812 
L 42.083219 55.666873 
L 42.164828 55.041741 
L 42.409657 28.678182 
L 42.817704 70.016661 
L 42.980923 54.695233 
L 43.225752 43.190098 
L 43.307361 50.734607 
L 43.388971 37.747657 
L 43.715409 59.850803 
L 43.878628 28.998084 
L 44.041847 43.48428 
L 44.123456 47.269691 
L 44.205066 61.689669 
L 44.286675 46.535737 
L 44.449894 61.180217 
L 44.531504 63.2738 
L 44.613113 48.016278 
L 44.939551 64.207582 
L 45.021161 64.207582 
L 45.18438 62.79523 
L 45.265989 47.979505 
L 45.347599 62.780249 
L 45.510818 47.550731 
L 45.592427 47.550731 
L 45.755646 42.699368 
L 46.000475 72.986871 
L 46.326913 107.071645 
L 46.408522 103.792217 
L 46.571741 103.792217 
L 46.73496 93.214894 
L 46.898179 93.214894 
L 47.143008 122.00828 
L 47.224617 122.00828 
L 47.306227 130.353507 
L 47.387836 119.316646 
L 47.551055 139.828606 
L 47.795884 139.828606 
L 47.959103 155.702484 
L 48.122322 156.428275 
L 48.285541 151.700204 
L 48.44876 166.854136 
L 48.530369 167.231298 
L 48.693588 186.593238 
L 48.856807 173.752225 
L 49.020026 173.752225 
L 49.101636 158.494702 
L 49.183245 159.907054 
L 49.264855 159.907054 
L 49.428074 174.722779 
L 49.509683 174.694774 
L 49.672902 173.95354 
L 49.917731 204.468585 
L 50.08095 204.468585 
L 50.244169 216.757981 
L 50.325778 216.757981 
L 50.488997 222.031816 
L 50.652216 207.428487 
L 50.733826 218.00581 
L 50.815435 217.331526 
L 50.897045 217.331526 
L 51.141873 186.81648 
L 51.386702 186.81648 
L 51.549921 202.010149 
L 51.876359 202.010149 
L 52.039578 192.582091 
L 52.202796 192.582091 
L 52.366015 208.596774 
L 52.447625 208.596774 
L 52.529234 198.287567 
L 52.692453 213.167928 
L 52.855672 237.500899 
L 52.937282 229.026788 
L 53.100501 217.499506 
L 53.26372 232.757029 
L 53.345329 232.757029 
L 53.508548 205.967188 
L 53.590158 221.224711 
L 53.671767 219.929957 
L 53.753377 219.929957 
L 53.834986 218.063636 
L 53.998205 202.806113 
L 54.161424 202.806113 
L 54.243034 187.54859 
L 54.406253 197.654272 
L 54.487862 197.654272 
L 54.569472 194.821916 
L 54.651081 209.425246 
L 54.977519 164.694658 
L 55.140738 188.739787 
L 55.303957 177.824174 
L 55.467176 164.856621 
L 55.548786 164.856621 
L 55.712005 149.599099 
L 55.793614 164.856621 
L 55.956833 147.563111 
L 56.201662 171.97001 
L 56.364881 167.768442 
L 56.5281 167.768442 
L 56.691319 176.645949 
L 56.772928 176.645949 
L 56.936147 161.340548 
L 57.017757 154.557136 
L 57.099366 166.084418 
L 57.262585 154.501678 
L 57.425804 148.603297 
L 57.507414 163.924725 
L 57.589023 160.498934 
L 57.915461 119.46804 
L 57.997071 119.46804 
L 58.16029 115.067449 
L 58.241899 115.067449 
L 58.405118 130.324972 
L 58.568337 118.029204 
L 58.731556 132.474231 
L 58.813166 135.651282 
L 59.057994 166.047326 
L 59.139604 152.136528 
L 59.79248 197.747132 
L 59.874089 193.251906 
L 59.955699 207.798449 
L 60.118918 195.072567 
L 60.200527 195.072567 
L 60.282137 189.071762 
L 60.445356 193.273331 
L 60.526965 193.273331 
L 60.608575 188.175086 
L 60.690184 189.606785 
L 60.853403 189.606785 
L 60.935013 197.704323 
L 61.016622 183.180945 
L 61.261451 210.021207 
L 61.34306 210.021207 
L 61.42467 212.771576 
L 61.587889 199.153655 
L 61.669498 198.962116 
L 61.751108 198.104303 
L 61.995936 228.637798 
L 62.077546 228.637798 
L 62.240765 233.038388 
L 62.485593 233.038388 
L 62.648812 244.637395 
L 62.812031 244.637395 
L 62.89364 256.469172 
L 63.056859 241.211649 
L 63.383297 210.420529 
L 63.464907 210.420529 
L 63.709735 179.75744 
L 63.791345 179.75744 
L 63.954564 158.81539 
L 64.036173 159.52637 
L 64.199392 174.288239 
L 64.362611 150.552513 
L 64.444221 150.552513 
L 64.60744 135.29499 
L 64.770659 140.393235 
L 64.933878 140.393235 
L 65.178706 162.124476 
L 65.341925 141.702683 
L 65.505144 141.702683 
L 65.831582 188.811881 
L 65.994801 173.64229 
L 66.15802 173.64229 
L 66.402849 143.095359 
L 66.566068 143.095359 
L 66.729287 143.792119 
L 66.892506 143.056104 
L 67.137334 143.09956 
L 67.218944 137.4782 
L 67.463772 144.168029 
L 67.545382 128.910506 
L 67.79021 159.573594 
L 67.87182 159.573594 
L 68.116648 185.010871 
L 68.198258 185.010871 
L 68.279867 173.459321 
L 68.443086 203.195852 
L 68.524696 187.93833 
L 68.606305 189.665019 
L 68.769524 187.655134 
L 69.095962 187.655134 
L 69.259181 164.337207 
L 69.4224 184.759001 
L 69.667229 184.759001 
L 69.830448 184.057564 
L 69.912057 170.832024 
L 69.993667 186.001616 
L 70.156886 168.816536 
L 70.401714 214.62099 
L 70.728152 171.688554 
L 70.809762 171.688554 
L 70.972981 172.424568 
L 71.05459 161.186501 
L 71.1362 161.793515 
L 71.217809 161.793515 
L 71.462638 194.854337 
L 71.544247 194.854337 
L 71.707466 210.11186 
L 71.952295 179.407688 
L 72.115514 173.954782 
L 72.197123 173.954782 
L 72.278733 158.956724 
L 72.441952 170.508274 
L 72.523561 167.989864 
L 72.68678 196.77822 
L 73.176437 149.850408 
L 73.339656 173.168335 
L 73.502875 172.427101 
L 73.747703 172.427101 
L 73.910922 173.128537 
L 73.992532 186.354077 
L 74.074141 183.603708 
L 74.31897 200.788788 
L 74.400579 200.788788 
L 74.482189 195.267293 
L 74.645408 210.662324 
L 74.727017 210.662324 
L 74.808627 224.857513 
L 74.890236 223.551088 
L 75.053455 208.293565 
L 75.135065 205.360241 
L 75.216674 219.967294 
L 75.298284 204.516435 
L 75.379893 205.252449 
L 75.461503 205.252449 
L 75.787941 186.73907 
L 75.95116 201.996593 
L 76.032769 202.18572 
L 76.195988 207.638625 
L 76.277598 207.638625 
L 76.440817 222.636683 
L 76.522426 222.636683 
L 76.685645 225.155093 
L 76.767255 225.155093 
L 77.093693 265.251724 
L 77.256912 264.892612 
L 77.338521 258.966559 
L 77.420131 243.709037 
L 77.50174 244.450271 
L 77.58335 244.450271 
L 77.746569 229.096689 
L 78.073007 229.096689 
L 78.236226 231.847058 
L 78.317835 231.847058 
L 78.481054 216.589535 
L 78.725883 235.453246 
L 78.889102 204.90635 
L 78.970711 206.212775 
L 79.052321 221.470297 
L 79.13393 206.605065 
L 79.21554 220.776457 
L 79.297149 205.687383 
L 79.378759 221.138242 
L 79.541978 205.88072 
L 79.623587 220.402228 
L 79.705197 205.144705 
L 79.786806 218.237175 
L 79.950025 212.762631 
L 80.031635 212.762631 
L 80.194854 228.020154 
L 80.276463 228.020154 
L 80.439682 213.745673 
L 80.602901 213.745673 
L 80.76612 202.601527 
L 81.092558 202.601527 
L 81.255777 191.66035 
L 81.337387 177.043909 
L 81.418996 182.969961 
L 81.582215 198.227484 
L 81.663825 184.616355 
L 81.827044 199.969937 
L 82.153482 199.969937 
L 82.235091 197.8935 
L 82.39831 169.98428 
L 82.561529 185.241802 
L 82.643139 185.241802 
L 82.806358 156.475296 
L 82.969577 187.022193 
L 83.132795 171.764671 
L 83.296014 186.629903 
L 83.377624 190.442463 
L 83.459233 175.18494 
L 83.622452 190.442463 
L 83.704062 191.178477 
L 83.785671 206.436 
L 83.867281 200.528685 
L 83.94889 206.003229 
L 84.193719 175.969584 
L 84.275328 175.969584 
L 84.356938 160.519684 
L 84.438547 174.794165 
L 84.683376 153.381869 
L 84.846595 161.863237 
L 84.928204 161.863237 
L 85.091423 157.70643 
L 85.173033 157.70643 
L 85.254642 147.851105 
L 85.336252 148.622876 
L 85.499471 163.239317 
L 85.58108 163.239317 
L 85.825909 131.077878 
L 85.989128 131.077878 
L 86.315566 87.427282 
L 86.397175 102.684805 
L 86.478785 100.07898 
L 86.642004 85.69998 
L 86.723613 84.268281 
L 86.968442 113.034787 
L 87.050051 113.034787 
L 87.21327 128.292309 
L 87.29488 128.292309 
L 87.376489 113.708957 
L 87.539708 140.242993 
L 87.702927 125.505277 
L 87.866146 125.505277 
L 88.437413 172.216404 
L 88.519022 156.958881 
L 88.600632 162.40748 
L 88.682241 163.113655 
L 88.92707 167.898314 
L 89.008679 167.898314 
L 89.171898 156.797599 
L 89.253508 156.797599 
L 89.498336 186.022507 
L 89.661555 186.022507 
L 89.987993 231.795075 
L 90.069603 231.795075 
L 90.55926 283.008797 
L 90.640869 282.155434 
L 90.722479 282.155434 
L 90.885698 283.587132 
L 91.130526 253.072965 
L 91.212136 253.072965 
L 91.375355 222.528993 
L 91.538574 237.112346 
L 91.620183 237.112346 
L 91.701793 251.850062 
L 91.865012 244.214335 
L 92.028231 244.214335 
L 92.19145 241.408589 
L 92.354669 246.088321 
L 92.517888 246.088321 
L 92.681107 261.345844 
L 92.762716 261.345844 
L 92.925935 274.481486 
L 93.089154 244.40484 
L 93.252373 252.43789 
L 93.823639 252.43789 
L 93.986858 237.180367 
L 94.150077 237.180367 
L 94.476515 201.685686 
L 94.639734 186.428163 
L 94.802953 191.930992 
L 94.966172 191.930992 
L 95.047782 192.294062 
L 95.129391 177.03654 
L 95.37422 207.551585 
L 95.782267 207.580512 
L 95.863877 215.216239 
L 96.027096 200.593511 
L 96.108705 200.593511 
L 96.516753 159.86807 
L 96.679972 159.152221 
L 96.843191 143.814733 
L 96.9248 143.814733 
L 97.00641 130.813796 
L 97.251238 168.114914 
L 97.904114 168.114914 
L 98.067333 183.372437 
L 98.230552 183.372437 
L 98.393771 189.167786 
L 98.475381 189.167786 
L 98.6386 188.7665 
L 98.720209 173.508977 
L 98.883428 183.238512 
L 98.965038 183.238512 
L 99.046647 167.980989 
L 99.209866 198.132085 
L 99.373085 185.255614 
L 99.454695 185.255614 
L 99.617914 200.513137 
L 99.944352 200.513137 
L 100.107571 215.135865 
L 100.18918 215.135865 
L 100.27079 212.996356 
L 100.352399 228.177166 
L 100.434009 228.152006 
L 100.515618 228.152006 
L 100.760447 198.567497 
L 100.923666 213.904985 
L 101.005275 200.405257 
L 101.086885 213.406194 
L 101.168494 210.367996 
L 101.494932 210.367996 
L 101.739761 179.85295 
L 101.82137 179.85295 
L 101.984589 167.425357 
L 102.147808 166.684123 
L 102.229418 166.684123 
L 102.311027 156.00175 
L 102.392637 165.463924 
L 102.474246 150.206402 
L 102.882294 211.130726 
L 103.045513 198.320643 
L 103.127122 213.578165 
L 103.290341 205.739613 
L 103.371951 217.895298 
L 103.861607 148.115553 
L 104.106436 148.115553 
L 104.269655 132.791619 
L 104.514483 163.306665 
L 104.677702 163.336116 
L 104.840921 178.378953 
L 104.922531 178.378953 
L 105.00414 163.12143 
L 105.167359 176.621158 
L 105.330578 179.659356 
L 105.493797 162.466388 
L 105.575407 162.466388 
L 105.820235 187.207178 
L 105.901845 175.303532 
L 106.065064 187.731125 
L 106.146673 188.472359 
L 106.309892 174.308545 
L 106.554721 200.248441 
L 106.962768 200.248441 
L 107.125987 211.646173 
L 107.207597 211.646173 
L 107.370816 219.484725 
L 107.452425 220.205511 
L 107.942082 289.315294 
L 108.186911 289.315294 
L 108.35013 304.639228 
L 108.921396 304.609776 
L 109.003006 297.335906 
L 109.084615 312.593428 
L 109.166225 310.176919 
L 109.247834 310.176919 
L 109.411053 294.919397 
L 109.492663 310.176919 
L 109.574272 309.415228 
L 109.655882 309.415228 
L 109.819101 315.189483 
L 109.90071 299.931961 
L 110.063929 311.835607 
L 110.227148 311.835607 
L 110.390367 310.741898 
L 110.471977 310.741898 
L 110.635196 308.457439 
L 110.716805 308.457439 
L 111.043243 262.932038 
L 111.206462 264.34439 
L 111.288072 264.34439 
L 111.5329 224.237866 
L 111.61451 224.237866 
L 111.777729 210.512133 
L 111.859338 210.512133 
L 111.940948 211.182095 
L 112.022557 208.552811 
L 112.267386 178.176882 
L 112.348995 178.176882 
L 112.593824 147.661837 
L 112.757043 147.661837 
L 112.920262 156.416265 
L 113.001871 156.416265 
L 113.083481 163.690136 
L 113.16509 149.980962 
L 113.2467 152.397471 
L 113.328309 152.397471 
L 113.491528 161.306011 
L 113.573138 161.306011 
L 113.736357 148.745624 
L 113.899575 148.745624 
L 113.981185 164.003147 
L 114.062794 163.267133 
L 114.307623 163.267133 
L 114.470842 178.524655 
L 114.552451 178.524655 
L 114.71567 180.809115 
L 114.79728 179.415594 
L 115.042108 209.635594 
L 115.123718 209.635594 
L 115.286937 194.378071 
L 115.368546 194.378071 
L 115.613375 234.484595 
L 115.694984 234.484595 
L 115.858203 248.210328 
L 116.021422 232.815855 
L 116.103032 235.445139 
L 116.34786 265.821068 
L 116.42947 265.821068 
L 116.674298 296.336114 
L 116.837517 296.336114 
L 117.000736 302.839208 
L 117.082346 302.839208 
L 117.163955 292.168928 
L 117.327174 305.878102 
L 117.408784 290.620579 
L 117.490393 296.969562 
L 117.572003 295.527989 
L 117.653612 295.527989 
L 117.816831 310.785512 
L 117.98005 307.052868 
L 118.06166 307.052868 
L 118.224879 307.788883 
L 118.306488 307.788883 
L 118.469707 292.53136 
L 118.551317 292.53136 
L 118.714536 290.607789 
L 118.796145 290.607789 
L 118.959364 292.001309 
L 119.040974 292.001309 
L 119.122583 276.84789 
L 119.285802 307.410814 
L 119.69385 267.229732 
L 119.775459 267.229732 
L 119.938678 251.972209 
L 120.101897 267.366681 
L 120.183507 267.366681 
L 120.428335 237.954201 
L 120.917992 237.954201 
L 121.162821 207.404625 
L 121.24443 202.817382 
L 121.407649 190.085673 
L 121.570868 190.213103 
L 121.734087 191.654676 
L 121.897306 191.654676 
L 121.978916 195.387319 
L 122.223744 164.667745 
L 122.386963 153.971449 
L 122.550182 169.228972 
L 122.795011 140.68406 
L 123.121449 140.68406 
L 123.284668 155.83748 
L 123.366277 155.83748 
L 123.692715 196.018562 
L 123.855934 180.761039 
L 124.019153 196.018562 
L 124.263981 196.018562 
L 124.50881 225.431043 
L 124.916857 225.431043 
L 124.998467 210.853743 
L 125.243295 241.403319 
L 125.324905 249.588464 
L 125.406514 247.480196 
L 125.488124 244.36966 
L 125.651343 253.321584 
L 125.896171 222.806538 
L 125.977781 222.806538 
L 126.05939 207.549016 
L 126.222609 238.26859 
L 126.304219 223.011068 
L 126.385828 226.881957 
L 126.549047 233.707363 
L 126.630657 219.941449 
L 126.712266 235.152409 
L 126.793876 219.878961 
L 126.957095 233.787916 
L 127.120314 218.591839 
L 127.446752 218.591839 
L 127.609971 203.334317 
L 127.77319 203.334317 
L 127.936409 218.591839 
L 128.018018 218.591839 
L 128.181237 204.207772 
L 128.262847 204.207772 
L 128.426066 183.20772 
L 128.915723 183.20772 
L 128.997332 168.892635 
L 129.160551 183.469935 
L 129.32377 183.469935 
L 129.40538 190.542313 
L 129.486989 190.124767 
L 129.895037 201.535353 
L 130.139865 232.050398 
L 130.303084 232.050398 
L 130.466303 247.307921 
L 130.629522 247.307921 
L 130.874351 276.347283 
L 131.03757 277.695851 
L 131.200789 292.891927 
L 131.445617 263.093513 
L 131.527227 261.661814 
L 131.690446 276.919337 
L 132.098493 276.919337 
L 132.261712 288.174242 
L 132.343322 288.174242 
L 132.506541 309.174294 
L 132.66976 291.202121 
L 132.914588 291.202121 
L 133.077807 275.00216 
L 133.485855 275.00216 
L 133.649074 290.259683 
L 133.812293 290.259683 
L 133.975512 288.137802 
L 134.138731 288.137802 
L 134.22034 284.766382 
L 134.383559 269.508859 
L 134.546778 269.508859 
L 134.709997 254.940237 
L 135.036435 230.386477 
L 135.281263 230.386477 
L 135.444482 239.892501 
L 135.526092 239.143984 
L 135.689311 240.575683 
L 135.934139 213.191005 
L 136.178968 213.191005 
L 136.342187 216.320168 
L 136.505406 201.062645 
L 136.587015 201.062645 
L 136.668625 209.204319 
L 136.750234 208.273131 
L 136.995063 208.273131 
L 137.158282 238.788177 
L 137.321501 223.434595 
L 137.729548 223.434595 
L 137.892767 208.504019 
L 137.974377 208.504019 
L 138.137596 198.404517 
L 138.219205 198.404517 
L 138.300815 186.518415 
L 138.382424 201.775938 
L 138.545643 187.78587 
L 138.627253 187.78587 
L 138.790472 202.354492 
L 139.11691 226.908252 
L 139.361738 226.908252 
L 139.524957 219.365622 
L 139.688176 234.623145 
L 139.769786 234.623145 
L 140.014614 262.007822 
L 140.341052 262.007822 
L 140.422662 246.822023 
L 140.585881 262.079546 
L 140.66749 262.079546 
L 140.830709 272.144472 
L 141.238757 272.144472 
L 141.401976 287.498054 
L 141.565195 287.498054 
L 141.728414 283.296485 
L 141.810023 283.296485 
L 141.973242 297.516081 
L 142.054852 297.922195 
L 142.218071 308.021697 
L 142.29968 308.021697 
L 142.38129 323.279219 
L 142.462899 308.021697 
L 142.626118 322.011764 
L 142.870947 322.011764 
L 143.034166 321.280897 
L 143.197385 321.280897 
L 143.442213 276.928325 
L 143.605432 290.254339 
L 143.687042 290.254339 
L 143.850261 275.868291 
L 144.258308 275.868291 
L 144.421527 260.610768 
L 144.584746 275.796567 
L 144.829574 275.796567 
L 144.911184 276.493327 
L 145.156012 246.728301 
L 145.48245 222.6208 
L 145.56406 222.6208 
L 145.645669 208.645951 
L 145.727279 212.84752 
L 145.808888 212.84752 
L 146.053717 183.793453 
L 146.135326 198.644862 
L 146.216936 195.725476 
L 146.461764 195.725476 
L 146.624983 207.44015 
L 146.788202 207.44015 
L 147.19625 147.21265 
L 147.277859 147.21265 
L 147.441078 177.743622 
L 147.522688 176.3077 
L 147.767516 176.3077 
L 147.930735 190.693748 
L 148.175564 190.693748 
L 148.338783 181.46106 
L 148.502002 196.718583 
L 148.910049 196.718583 
L 148.991659 181.600203 
L 149.073268 183.643991 
L 149.154878 183.643991 
L 149.399706 222.522476 
L 149.481316 222.522476 
L 149.644535 209.331385 
L 149.807754 223.306234 
L 149.889363 223.306234 
L 150.052582 253.071281 
L 150.134192 248.181736 
L 150.215801 248.181736 
L 150.37902 251.101122 
L 150.542239 235.925784 
L 150.705458 239.468632 
L 150.868677 224.211109 
L 150.950287 225.53343 
L 151.031896 240.719229 
L 151.113506 225.535325 
L 151.358334 256.05037 
L 151.521553 240.944348 
L 151.684772 256.201871 
L 151.929601 256.201871 
L 152.09282 241.092777 
L 152.256039 241.092777 
L 152.419258 250.325465 
L 152.582477 250.325465 
L 152.745696 235.067942 
L 152.827305 235.067942 
L 152.908915 234.347156 
L 152.990524 219.089633 
L 153.153743 247.158268 
L 153.235353 245.835306 
L 153.561791 245.835306 
L 153.72501 259.026397 
L 154.133057 259.026397 
L 154.296276 251.840617 
L 154.377886 251.840617 
L 154.459495 236.567168 
L 154.622714 251.742506 
L 154.785933 251.742506 
L 154.949152 267.000029 
L 155.19398 289.645967 
L 155.438809 289.645967 
L 155.602028 304.751989 
L 155.683637 304.751989 
L 156.010075 280.899563 
L 156.173294 296.008657 
L 156.581342 296.008657 
L 156.662951 280.751134 
L 156.82617 296.008657 
L 156.90778 296.008657 
L 156.989389 281.47192 
L 157.152608 296.729443 
L 157.234218 296.729443 
L 157.397437 298.052405 
L 157.479046 296.721016 
L 157.642265 281.539316 
L 157.723875 277.584732 
L 157.968703 246.246812 
L 158.050313 246.246812 
L 158.213532 220.221178 
L 158.376751 232.296503 
L 158.45836 232.296503 
L 158.53997 247.569951 
L 158.703189 232.312429 
L 159.029627 232.312429 
L 159.192846 236.736302 
L 159.356065 225.478374 
L 159.764112 225.478374 
L 160.17216 249.3308 
L 160.498598 249.3308 
L 160.661817 234.084568 
L 160.825036 249.342091 
L 160.988255 249.342091 
L 161.151474 264.599613 
L 161.396302 264.599613 
L 161.559521 247.034801 
L 161.72274 262.216501 
L 161.967569 272.498701 
L 162.130788 269.971767 
L 162.375616 295.997401 
L 162.538835 295.997401 
L 162.620445 286.199212 
L 162.702054 301.456734 
L 163.028492 279.825978 
L 163.273321 279.825978 
L 163.43654 293.133202 
L 163.518149 293.133202 
L 163.844587 247.844828 
L 163.926197 247.844828 
L 164.089416 235.59709 
L 164.334244 235.59709 
L 164.497463 230.047673 
L 164.742292 230.095869 
L 164.98712 199.580824 
L 165.150339 199.580824 
L 165.395167 169.065779 
L 165.476777 169.065779 
L 165.803215 187.96198 
L 165.884824 187.96198 
L 166.129653 215.499218 
L 166.292872 201.585587 
L 166.374481 201.585587 
L 166.5377 187.094146 
L 166.61931 187.094146 
L 166.700919 196.892336 
L 166.782529 181.618887 
L 167.027357 203.249643 
L 167.190576 183.463566 
L 167.761843 183.51293 
L 167.925062 198.525994 
L 168.006671 198.525994 
L 168.16989 195.516208 
L 168.333109 194.810032 
L 168.414719 194.810032 
L 168.577938 200.35945 
L 168.822766 200.401739 
L 169.067595 230.916784 
L 169.230814 230.916784 
L 169.475642 261.43183 
L 169.720471 230.918447 
L 170.046909 230.918447 
L 170.210128 220.467045 
L 170.373347 234.380676 
L 170.454956 234.380676 
L 170.618175 248.872117 
L 170.781394 248.872117 
L 170.944613 264.145566 
L 171.107832 264.145566 
L 171.271051 283.931643 
L 171.43427 283.931643 
L 171.597489 270.800849 
L 171.679099 270.800849 
L 171.923927 301.026795 
L 172.087146 301.026795 
L 172.168756 316.284318 
L 172.250365 301.026795 
L 172.331975 301.732971 
L 172.658413 301.732971 
L 172.740022 287.710518 
L 172.821632 302.866264 
L 172.903241 301.434565 
L 173.06646 284.744872 
L 173.474508 284.744872 
L 173.556117 269.487349 
L 173.882555 292.22439 
L 173.964165 292.22439 
L 174.045774 289.076378 
L 174.208993 269.037894 
L 174.372212 269.037894 
L 174.861869 232.713183 
L 174.943479 232.713183 
L 175.106698 217.455661 
L 175.514745 217.455661 
L 175.596354 230.586454 
L 175.841183 200.588352 
L 176.24923 200.588352 
L 176.412449 215.845875 
L 176.738887 215.845875 
L 176.820497 229.868328 
L 176.902106 224.920918 
L 176.983716 226.352617 
L 177.065325 241.658018 
L 177.146935 240.923782 
L 177.310154 240.923782 
L 177.473373 240.182548 
L 177.554982 240.182548 
L 177.718201 261.153635 
L 178.044639 261.153635 
L 178.207858 265.261172 
L 178.371077 279.792903 
L 178.452687 279.792903 
L 178.860734 316.117614 
L 179.023953 300.860091 
L 179.187172 316.117614 
L 179.432001 316.117614 
L 179.59522 304.929428 
L 179.758439 304.865522 
L 179.921658 319.606102 
L 180.084877 307.019467 
L 180.329705 307.019467 
L 180.492924 303.683913 
L 180.819362 303.683913 
L 180.900972 294.81372 
L 180.982581 299.761129 
L 181.1458 279.025609 
L 181.309019 281.144136 
L 181.717067 245.055382 
L 181.880286 244.324515 
L 182.125114 244.324515 
L 182.206724 229.066992 
L 182.369943 244.065623 
L 182.696381 244.065623 
L 182.8596 228.975363 
L 182.941209 228.975363 
L 183.104428 244.232886 
L 183.512476 244.232886 
L 183.675695 255.421072 
L 183.757304 255.421072 
L 183.920523 270.7425 
L 184.002133 270.7425 
L 184.165352 283.329135 
L 184.41018 283.329135 
L 184.573399 286.664689 
L 184.899837 286.664689 
L 185.144666 311.018442 
L 185.307885 303.828257 
L 185.389494 303.828257 
L 185.797541 342.721022 
L 185.96076 343.45189 
L 186.205589 343.45189 
L 186.368808 358.709412 
L 186.450417 358.709412 
L 186.776855 298.666367 
L 186.940074 313.756627 
L 187.266512 313.756627 
L 187.429731 308.582666 
L 187.837779 308.582666 
L 188.000998 294.791467 
L 188.327436 294.791467 
L 188.490655 276.581878 
L 188.653874 276.581878 
L 188.817093 261.324355 
L 189.143531 261.324355 
L 189.22514 257.020836 
L 189.30675 269.462982 
L 189.469969 260.906278 
L 190.530892 260.906278 
L 190.85733 308.192794 
L 191.265378 308.192794 
L 191.346987 292.935271 
L 191.428597 298.109233 
L 191.673425 298.109233 
L 191.836644 282.85171 
L 191.918254 282.85171 
L 191.999863 296.642909 
L 192.163082 281.129993 
L 192.244692 281.129993 
L 192.407911 265.872471 
L 192.57113 284.082059 
L 192.734349 284.082059 
L 192.897568 299.339582 
L 192.979177 299.339582 
L 193.142396 289.296193 
L 193.224006 289.296193 
L 193.550444 302.156415 
L 193.795272 302.156415 
L 193.958491 284.899542 
L 194.448148 284.899542 
L 194.529758 280.148905 
L 194.692977 265.218331 
L 194.856196 277.974861 
L 195.019415 277.974861 
L 195.182634 265.375343 
L 195.345853 265.375343 
L 195.427462 280.632866 
L 195.509072 276.300678 
L 195.7539 249.033807 
L 195.917119 262.319367 
L 196.080338 262.319367 
L 196.161947 265.014525 
L 196.325166 262.991673 
L 196.488385 278.249195 
L 197.059652 278.249195 
L 197.222871 288.292584 
L 197.467699 288.292584 
L 197.630918 285.066843 
L 197.957356 285.130748 
L 198.120575 271.80867 
L 198.528623 271.80867 
L 198.610232 261.301785 
L 198.773451 276.232359 
L 198.855061 276.232359 
L 199.01828 262.476782 
L 199.099889 262.476782 
L 199.181499 275.076299 
L 199.344718 259.818776 
L 199.507937 259.818776 
L 199.589546 264.150964 
L 199.834375 291.417835 
L 199.997594 293.389797 
L 200.160813 286.198465 
L 200.324032 301.039076 
L 200.895298 301.039076 
L 201.140127 275.005232 
L 201.303346 266.29573 
L 201.548174 266.29573 
L 201.711393 269.521472 
L 201.874612 254.784242 
L 201.956222 254.784242 
L 202.20105 285.299287 
L 202.364269 270.318944 
L 202.609098 270.318944 
L 202.772317 285.576467 
L 202.935536 285.576467 
L 203.098755 299.332044 
L 203.261974 270.9074 
L 203.425193 286.164923 
L 203.506802 286.164923 
L 203.670021 270.644142 
L 203.751631 270.644142 
L 203.91485 255.386619 
L 204.078069 253.323843 
L 204.241288 260.515175 
L 204.975773 260.515175 
L 205.220602 286.549019 
L 205.383821 294.517287 
L 205.54704 290.994342 
L 205.628649 290.994342 
L 205.791868 287.807939 
L 205.955087 302.545169 
L 206.281525 302.545169 
L 206.363134 317.525512 
L 206.607963 289.163193 
L 206.771182 289.163193 
L 206.934401 274.086598 
L 207.179229 274.086598 
L 207.342448 302.511242 
L 207.424058 301.069669 
L 207.587277 301.069669 
L 207.750496 316.59045 
L 207.832105 316.59045 
L 207.995324 317.162161 
L 208.158543 319.224937 
L 209.301076 319.224937 
L 209.382686 319.966172 
L 209.464295 307.617252 
L 209.545905 311.140197 
L 209.709124 311.140197 
L 209.872343 313.605814 
L 210.035562 312.864579 
L 210.198781 297.543151 
L 210.443609 297.543151 
L 210.688438 325.90547 
L 210.770047 325.90547 
L 210.851657 319.162629 
L 210.933266 334.239225 
L 211.014876 333.508358 
L 211.178095 332.829695 
L 211.341314 328.875111 
L 211.422923 328.875111 
L 211.586142 330.316683 
L 211.830971 330.316683 
L 211.91258 315.240365 
L 212.075799 329.926176 
L 213.299942 329.926176 
L 213.463161 321.103564 
L 213.62638 331.362203 
L 213.789599 331.362203 
L 213.952818 332.082989 
L 214.116037 322.98761 
L 214.279256 338.309038 
L 214.768913 338.309038 
L 214.932132 317.705048 
L 215.013741 317.705048 
L 215.25857 319.114577 
L 215.421789 323.069162 
L 215.503398 323.069162 
L 215.829836 300.844037 
L 215.911446 300.844037 
L 216.074665 315.920356 
L 217.217197 315.920356 
L 217.380416 300.662833 
L 217.543635 309.485445 
L 217.625245 311.575726 
L 217.706854 309.675471 
L 217.870073 294.354043 
L 218.033292 294.354043 
L 218.114902 291.56619 
L 218.278121 276.929652 
L 218.849387 276.929652 
L 219.094216 304.276484 
L 219.257435 289.730087 
L 219.502263 289.730087 
L 219.583873 274.472565 
L 219.910311 296.697689 
L 221.134453 296.697689 
L 221.297672 281.440167 
L 221.460891 296.697689 
L 221.70572 296.697689 
L 221.787329 298.597944 
L 221.868939 307.771489 
L 222.113767 282.577774 
L 222.358596 309.838778 
L 223.093081 309.838778 
L 223.174691 294.581255 
L 223.33791 309.127652 
L 223.501129 309.127652 
L 223.582738 296.98863 
L 223.745957 312.246152 
L 224.398833 312.246152 
L 224.562052 298.190339 
L 225.214928 298.190339 
L 225.378147 313.447861 
L 225.541366 313.447861 
L 225.704585 298.437274 
L 225.786195 298.437274 
L 225.867804 283.179751 
L 226.357461 312.402822 
L 227.173556 312.402822 
L 227.336775 327.660345 
L 227.581603 327.660345 
L 227.744822 339.799367 
L 227.989651 339.799367 
L 228.07126 337.463858 
L 228.234479 322.829304 
L 228.479308 322.829304 
L 228.642527 336.885118 
L 229.213793 336.885118 
L 229.377012 321.627596 
L 229.458622 321.627596 
L 229.621841 310.973253 
L 229.78506 325.983841 
L 229.866669 325.983841 
L 230.029888 333.000114 
L 230.193107 321.723648 
L 230.519545 321.723648 
L 230.682764 307.594068 
L 231.906907 307.594068 
L 232.070126 294.792534 
L 232.151735 297.128042 
L 232.314954 311.762596 
L 233.294268 311.762596 
L 233.457487 327.020119 
L 233.539097 327.020119 
L 233.702316 337.674461 
L 233.947144 337.674461 
L 234.191973 359.310704 
L 234.60002 359.310704 
L 234.763239 373.440283 
L 235.252896 373.440283 
L 235.416115 359.285629 
L 235.987382 359.285629 
L 236.068991 358.263666 
L 236.31382 328.47108 
L 236.558648 328.47108 
L 236.721867 324.431891 
L 236.803477 324.431891 
L 236.966696 309.174368 
L 237.8644 309.174368 
L 238.027619 296.218084 
L 239.088542 296.218084 
L 239.251761 282.607737 
L 239.333371 282.607737 
L 239.49659 296.762391 
L 240.067856 296.762391 
L 240.394294 340.378475 
L 240.639123 323.184232 
L 240.802342 327.223421 
L 240.883951 327.223421 
L 240.965561 342.480943 
L 241.12878 327.730472 
L 241.944875 327.730472 
L 242.108094 340.686757 
L 242.597751 340.686757 
L 242.76097 325.923566 
L 243.169017 325.923566 
L 243.332236 329.891249 
L 244.229941 329.891249 
L 244.39316 327.278398 
L 244.474769 327.278398 
L 244.719598 344.472642 
L 244.964426 344.472642 
L 245.046036 330.56006 
L 245.209255 345.310531 
L 246.678226 345.310531 
L 246.841445 360.073723 
L 247.249492 360.073723 
L 247.412711 369.716386 
L 247.902368 369.716386 
L 248.065587 354.817578 
L 248.147196 354.817578 
L 248.310415 339.560055 
L 248.392025 342.172906 
L 248.555244 326.663626 
L 249.044901 326.663626 
L 249.20812 340.576208 
L 250.84031 340.576208 
L 251.003529 325.792552 
L 251.982843 325.792552 
L 252.146062 340.691361 
L 252.227671 340.691361 
L 252.39089 355.948883 
L 252.4725 355.948883 
L 252.635719 371.458163 
L 252.880547 371.458163 
L 253.043766 370.082978 
L 253.615033 370.082978 
L 253.778252 363.990233 
L 254.02308 363.990233 
L 254.267909 337.969899 
L 254.839175 337.969899 
L 254.920785 322.712376 
L 255.084004 337.496032 
L 255.981708 337.496032 
L 256.144927 336.064333 
L 256.226537 336.064333 
L 256.389756 325.458258 
L 256.716194 325.458258 
L 256.879413 310.659812 
L 256.961022 310.659812 
L 257.124241 312.034997 
L 257.28746 312.034997 
L 257.450679 307.634407 
L 257.613898 307.634407 
L 257.695507 292.479311 
L 257.858726 298.572057 
L 258.103555 298.572057 
L 258.185164 299.310699 
L 258.348383 310.243129 
L 258.511602 310.243129 
L 258.674821 295.07531 
L 258.756431 295.07531 
L 258.91965 279.871222 
L 259.082869 295.128745 
L 260.062183 295.128745 
L 260.225402 296.560444 
L 260.307011 296.560444 
L 260.47023 307.166519 
L 260.633449 291.908996 
L 260.796668 291.908996 
L 260.959887 306.707442 
L 261.367935 306.707442 
L 261.531154 311.108032 
L 261.694373 311.108032 
L 261.857592 326.263127 
L 261.939201 326.263127 
L 262.10242 323.583281 
L 262.18403 323.583281 
L 262.347249 337.932542 
L 262.592077 337.932542 
L 262.755296 353.100361 
L 262.836906 353.100361 
L 263.000125 368.304449 
L 264.142658 368.304449 
L 264.305877 366.307365 
L 264.550705 366.307365 
L 264.713924 381.564888 
L 265.203581 381.564888 
L 265.3668 372.618162 
L 266.019676 372.618162 
L 266.182895 375.298009 
L 266.99899 375.298009 
L 267.162209 368.006332 
L 268.223132 368.006332 
L 268.386351 370.003415 
L 268.54957 370.003415 
L 268.712789 367.899106 
L 268.876008 367.899106 
L 269.039227 366.486754 
L 269.202446 351.183724 
L 269.284056 351.183724 
L 269.365665 360.13045 
L 269.528884 344.872927 
L 269.610494 344.872927 
L 269.773713 342.260077 
L 270.753027 342.260077 
L 270.916246 327.002554 
L 271.079465 327.002554 
L 271.242684 334.294231 
L 271.487512 334.294231 
L 271.650731 319.19041 
L 271.89556 319.19041 
L 272.058779 306.670502 
L 272.630045 306.670502 
L 272.793264 308.774811 
L 272.956483 308.774811 
L 273.119702 310.187162 
L 273.282921 325.490193 
L 273.44614 325.490193 
L 273.609359 340.747716 
L 273.690969 340.747716 
L 273.854188 343.360566 
L 274.425454 343.360566 
L 274.588673 342.649587 
L 274.833502 342.649587 
L 274.996721 357.907109 
L 275.567987 357.907109 
L 275.731206 373.01093 
L 275.976035 373.01093 
L 276.139254 385.530838 
L 276.302473 385.530838 
L 276.465692 370.8177 
L 277.526615 370.8177 
L 277.689834 355.701547 
L 278.505929 355.701547 
L 278.669148 356.412526 
L 279.240414 356.412526 
L 279.566852 312.45834 
L 280.219728 312.45834 
L 280.382947 311.717106 
L 280.546166 326.430245 
L 280.790995 326.430245 
L 280.954214 315.939989 
L 281.60709 315.939989 
L 281.770309 331.056142 
L 283.320889 331.056142 
L 283.647327 375.010328 
L 284.218594 375.010328 
L 284.300203 359.810305 
L 284.381813 360.551539 
L 284.87147 360.551539 
L 285.034689 371.041796 
L 285.524346 371.041796 
L 285.687565 365.87352 
L 285.769174 365.87352 
L 285.932393 350.473838 
L 288.299069 350.473838 
L 288.462287 365.67386 
L 288.543897 365.67386 
L 288.707116 359.920795 
L 289.359992 359.920795 
L 289.523211 353.744966 
L 289.60482 353.744966 
L 289.768039 358.913242 
L 289.849649 358.913242 
L 290.012868 374.312924 
L 291.073791 374.312924 
L 291.23701 373.620778 
L 291.971496 373.620778 
L 292.134715 358.960439 
L 292.624372 358.960439 
L 292.787591 364.713505 
L 293.440467 364.713505 
L 293.603686 370.889333 
L 294.256562 370.889333 
L 294.419781 365.971026 
L 295.154266 365.971026 
L 295.317485 366.663172 
L 295.888752 366.663172 
L 296.051971 355.202104 
L 296.13358 369.862443 
L 296.21519 365.293525 
L 298.337037 365.293525 
L 298.500256 370.211832 
L 298.908303 370.211832 
L 299.071522 356.832778 
L 299.969226 356.832778 
L 300.132445 368.293845 
L 300.214055 368.293845 
L 300.377274 357.805659 
L 302.988778 357.805659 
L 303.151997 371.184713 
L 304.29453 371.184713 
L 304.457749 386.241818 
L 304.784187 386.241818 
L 305.029015 355.906862 
L 308.375005 355.906862 
L 308.538224 346.129743 
L 308.864662 346.129743 
L 309.10949 376.464699 
L 309.843975 376.464699 
L 310.007194 369.212705 
L 310.986508 369.212705 
L 311.231337 356.759372 
L 312.455479 356.759372 
L 312.618698 366.536491 
L 313.92445 366.536491 
L 314.087669 373.788485 
L 314.495717 373.788485 
L 314.658936 358.530962 
L 315.066983 358.530962 
L 315.311812 370.984295 
L 317.025611 370.984295 
L 317.18883 355.726773 
L 318.412973 355.726773 
L 318.576192 347.317599 
L 318.739411 362.575122 
L 321.106086 362.575122 
L 321.269305 377.832644 
L 322.493447 377.832644 
L 322.656666 386.241818 
L 324.452075 386.241818 
L 324.615294 385.540382 
L 324.941732 385.540382 
L 325.104951 384.829402 
L 328.53255 384.829402 
L 328.695769 385.530838 
L 329.022207 385.530838 
L 329.185426 386.241818 
L 331.470492 386.241818 
L 331.633711 376.895036 
L 332.613025 376.895036 
L 332.776244 364.379702 
L 333.184291 364.379702 
L 333.34751 354.592435 
L 335.550967 354.592435 
L 335.714186 363.939217 
L 336.6935 363.939217 
L 336.856719 376.454551 
L 337.264766 376.454551 
L 337.427985 386.241818 
L 339.060175 386.241818 
L 339.223394 373.063964 
L 341.42685 373.063964 
L 341.590069 372.367203 
L 343.14065 372.367203 
L 343.303869 385.545058 
L 345.507325 385.545058 
L 345.670544 386.241818 
L 347.547563 386.241818 
L 347.710782 374.063278 
L 351.628037 374.063278 
L 351.791256 383.81126 
L 354.076322 383.81126 
L 354.239541 379.701158 
L 355.708512 379.701158 
L 355.871731 382.131716 
L 358.156797 382.131716 
L 358.320016 386.241818 
L 359.462549 386.241818 
L 359.625768 371.128272 
L 363.543024 371.128272 
L 363.706243 386.241818 
L 842.917204 386.241818 
L 843.080422 385.540382 
L 845.855145 385.540382 
L 846.018364 379.658409 
L 846.263193 379.658409 
L 846.426412 377.539881 
L 846.508021 377.539881 
L 846.67124 375.449601 
L 846.997678 375.449601 
L 847.160897 376.151037 
L 848.38504 376.151037 
L 848.711478 355.276954 
L 849.93562 355.276954 
L 850.098839 361.158927 
L 850.343668 361.158927 
L 850.506887 363.277455 
L 850.588496 363.277455 
L 850.751715 365.367735 
L 852.465515 365.367735 
L 852.791953 386.241818 
L 852.955172 383.509425 
L 853.118391 383.509425 
L 853.118391 383.509425 
" clip-path="url(#p7459f65d96)" style="fill: none; stroke-dasharray: 7.4,3.2; stroke-dashoffset: 0; stroke: #000000; stroke-width: 2"/>
   </g>
   <g id="patch_3">
    <path d="M 41.92 404.12 
L 41.92 10.8 
" style="fill: none; stroke: #000000; stroke-width: 0.8; stroke-linejoin: miter; stroke-linecap: square"/>
   </g>
   <g id="patch_4">
    <path d="M 853.2 404.12 
L 853.2 10.8 
" style="fill: none; stroke: #000000; stroke-width: 0.8; stroke-linejoin: miter; stroke-linecap: square"/>
   </g>
   <g id="patch_5">
    <path d="M 41.92 404.12 
L 853.2 404.12 
" style="fill: none; stroke: #000000; stroke-width: 0.8; stroke-linejoin: miter; stroke-linecap: square"/>
   </g>
   <g id="patch_6">
    <path d="M 41.92 10.8 
L 853.2 10.8 
" style="fill: none; stroke: #000000; stroke-width: 0.8; stroke-linejoin: miter; stroke-linecap: square"/>
   </g>
  </g>
 </g>
 <defs>
  <clipPath id="p7459f65d96">
   <rect x="41.92" y="10.8" width="811.28" height="393.32"/>
  </clipPath>
 </defs>
</svg>
