<?xml version="1.0" encoding="utf-8" standalone="no"?>
<!DOCTYPE svg PUBLIC "-//W3C//DTD SVG 1.1//EN"
  "http://www.w3.org/Graphics/SVG/1.1/DTD/svg11.dtd">
<svg xmlns:xlink="http://www.w3.org/1999/xlink" width="864pt" height="432pt" viewBox="0 0 864 432" xmlns="http://www.w3.org/2000/svg" version="1.1">
 <metadata>
  <rdf:RDF xmlns:dc="http://purl.org/dc/elements/1.1/" xmlns:cc="http://creativecommons.org/ns#" xmlns:rdf="http://www.w3.org/1999/02/22-rdf-syntax-ns#">
   <cc:Work>
    <dc:type rdf:resource="http://purl.org/dc/dcmitype/StillImage"/>
    <dc:date>2024-09-18T12:47:32.244680</dc:date>
    <dc:format>image/svg+xml</dc:format>
    <dc:creator>
     <cc:Agent>
      <dc:title>Matplotlib v3.9.2, https://matplotlib.org/</dc:title>
     </cc:Agent>
    </dc:creator>
   </cc:Work>
  </rdf:RDF>
 </metadata>
 <defs>
  <style type="text/css">*{stroke-linejoin: round; stroke-linecap: butt}</style>
 </defs>
 <g id="figure_1">
  <g id="patch_1">
   <path d="M 0 432 
L 864 432 
L 864 0 
L 0 0 
z
" style="fill: #ffffff"/>
  </g>
  <g id="axes_1">
   <g id="patch_2">
    <path d="M 35.89 404.12 
L 853.2 404.12 
L 853.2 10.8 
L 35.89 10.8 
z
" style="fill: #ffffff"/>
   </g>
   <g id="matplotlib.axis_1">
    <g id="xtick_1">
     <g id="line2d_1">
      <defs>
       <path id="m2bec18e6ad" d="M 0 0 
L 0 3.5 
" style="stroke: #000000; stroke-width: 0.8"/>
      </defs>
      <g>
       <use xlink:href="#m2bec18e6ad" x="188.817027" y="404.12" style="stroke: #000000; stroke-width: 0.8"/>
      </g>
     </g>
     <g id="text_1">
      <!-- 100 -->
      <g transform="translate(179.786558 418.771563) scale(0.1 -0.1)">
       <defs>
        <path id="DejaVuSansMono-31" d="M 844 531 
L 1825 531 
L 1825 4097 
L 769 3859 
L 769 4434 
L 1819 4666 
L 2450 4666 
L 2450 531 
L 3419 531 
L 3419 0 
L 844 0 
L 844 531 
z
" transform="scale(0.015625)"/>
        <path id="DejaVuSansMono-30" d="M 1509 2344 
Q 1509 2516 1629 2641 
Q 1750 2766 1919 2766 
Q 2094 2766 2219 2641 
Q 2344 2516 2344 2344 
Q 2344 2169 2220 2047 
Q 2097 1925 1919 1925 
Q 1744 1925 1626 2044 
Q 1509 2163 1509 2344 
z
M 1925 4250 
Q 1484 4250 1267 3775 
Q 1050 3300 1050 2328 
Q 1050 1359 1267 884 
Q 1484 409 1925 409 
Q 2369 409 2586 884 
Q 2803 1359 2803 2328 
Q 2803 3300 2586 3775 
Q 2369 4250 1925 4250 
z
M 1925 4750 
Q 2672 4750 3055 4137 
Q 3438 3525 3438 2328 
Q 3438 1134 3055 521 
Q 2672 -91 1925 -91 
Q 1178 -91 797 521 
Q 416 1134 416 2328 
Q 416 3525 797 4137 
Q 1178 4750 1925 4750 
z
" transform="scale(0.015625)"/>
       </defs>
       <use xlink:href="#DejaVuSansMono-31"/>
       <use xlink:href="#DejaVuSansMono-30" x="60.205078"/>
       <use xlink:href="#DejaVuSansMono-30" x="120.410156"/>
      </g>
     </g>
    </g>
    <g id="xtick_2">
     <g id="line2d_2">
      <g>
       <use xlink:href="#m2bec18e6ad" x="358.735946" y="404.12" style="stroke: #000000; stroke-width: 0.8"/>
      </g>
     </g>
     <g id="text_2">
      <!-- 200 -->
      <g transform="translate(349.705477 418.771563) scale(0.1 -0.1)">
       <defs>
        <path id="DejaVuSansMono-32" d="M 1166 531 
L 3309 531 
L 3309 0 
L 475 0 
L 475 531 
Q 1059 1147 1496 1619 
Q 1934 2091 2100 2284 
Q 2413 2666 2522 2902 
Q 2631 3138 2631 3384 
Q 2631 3775 2401 3997 
Q 2172 4219 1772 4219 
Q 1488 4219 1175 4116 
Q 863 4013 513 3803 
L 513 4441 
Q 834 4594 1145 4672 
Q 1456 4750 1759 4750 
Q 2444 4750 2861 4386 
Q 3278 4022 3278 3431 
Q 3278 3131 3139 2831 
Q 3000 2531 2688 2169 
Q 2513 1966 2180 1606 
Q 1847 1247 1166 531 
z
" transform="scale(0.015625)"/>
       </defs>
       <use xlink:href="#DejaVuSansMono-32"/>
       <use xlink:href="#DejaVuSansMono-30" x="60.205078"/>
       <use xlink:href="#DejaVuSansMono-30" x="120.410156"/>
      </g>
     </g>
    </g>
    <g id="xtick_3">
     <g id="line2d_3">
      <g>
       <use xlink:href="#m2bec18e6ad" x="528.654865" y="404.12" style="stroke: #000000; stroke-width: 0.8"/>
      </g>
     </g>
     <g id="text_3">
      <!-- 300 -->
      <g transform="translate(519.624396 418.771563) scale(0.1 -0.1)">
       <defs>
        <path id="DejaVuSansMono-33" d="M 2425 2497 
Q 2884 2375 3128 2064 
Q 3372 1753 3372 1288 
Q 3372 644 2939 276 
Q 2506 -91 1741 -91 
Q 1419 -91 1084 -31 
Q 750 28 428 141 
L 428 769 
Q 747 603 1056 522 
Q 1366 441 1672 441 
Q 2191 441 2469 675 
Q 2747 909 2747 1350 
Q 2747 1756 2469 1995 
Q 2191 2234 1716 2234 
L 1234 2234 
L 1234 2753 
L 1716 2753 
Q 2150 2753 2394 2943 
Q 2638 3134 2638 3475 
Q 2638 3834 2411 4026 
Q 2184 4219 1766 4219 
Q 1488 4219 1191 4156 
Q 894 4094 569 3969 
L 569 4550 
Q 947 4650 1242 4700 
Q 1538 4750 1766 4750 
Q 2447 4750 2855 4408 
Q 3263 4066 3263 3500 
Q 3263 3116 3048 2859 
Q 2834 2603 2425 2497 
z
" transform="scale(0.015625)"/>
       </defs>
       <use xlink:href="#DejaVuSansMono-33"/>
       <use xlink:href="#DejaVuSansMono-30" x="60.205078"/>
       <use xlink:href="#DejaVuSansMono-30" x="120.410156"/>
      </g>
     </g>
    </g>
    <g id="xtick_4">
     <g id="line2d_4">
      <g>
       <use xlink:href="#m2bec18e6ad" x="698.573784" y="404.12" style="stroke: #000000; stroke-width: 0.8"/>
      </g>
     </g>
     <g id="text_4">
      <!-- 400 -->
      <g transform="translate(689.543315 418.771563) scale(0.1 -0.1)">
       <defs>
        <path id="DejaVuSansMono-34" d="M 2297 4091 
L 825 1625 
L 2297 1625 
L 2297 4091 
z
M 2194 4666 
L 2925 4666 
L 2925 1625 
L 3547 1625 
L 3547 1113 
L 2925 1113 
L 2925 0 
L 2297 0 
L 2297 1113 
L 319 1113 
L 319 1709 
L 2194 4666 
z
" transform="scale(0.015625)"/>
       </defs>
       <use xlink:href="#DejaVuSansMono-34"/>
       <use xlink:href="#DejaVuSansMono-30" x="60.205078"/>
       <use xlink:href="#DejaVuSansMono-30" x="120.410156"/>
      </g>
     </g>
    </g>
   </g>
   <g id="matplotlib.axis_2">
    <g id="ytick_1">
     <g id="line2d_5">
      <defs>
       <path id="m04971a3f9f" d="M 0 0 
L -3.5 0 
" style="stroke: #000000; stroke-width: 0.8"/>
      </defs>
      <g>
       <use xlink:href="#m04971a3f9f" x="35.89" y="386.241818" style="stroke: #000000; stroke-width: 0.8"/>
      </g>
     </g>
     <g id="text_5">
      <!-- 0.0 -->
      <g transform="translate(10.829063 390.067599) scale(0.1 -0.1)">
       <defs>
        <path id="DejaVuSansMono-2e" d="M 1528 953 
L 2316 953 
L 2316 0 
L 1528 0 
L 1528 953 
z
" transform="scale(0.015625)"/>
       </defs>
       <use xlink:href="#DejaVuSansMono-30"/>
       <use xlink:href="#DejaVuSansMono-2e" x="60.205078"/>
       <use xlink:href="#DejaVuSansMono-30" x="120.410156"/>
      </g>
     </g>
    </g>
    <g id="ytick_2">
     <g id="line2d_6">
      <g>
       <use xlink:href="#m04971a3f9f" x="35.89" y="327.064333" style="stroke: #000000; stroke-width: 0.8"/>
      </g>
     </g>
     <g id="text_6">
      <!-- 0.1 -->
      <g transform="translate(10.829063 330.890115) scale(0.1 -0.1)">
       <use xlink:href="#DejaVuSansMono-30"/>
       <use xlink:href="#DejaVuSansMono-2e" x="60.205078"/>
       <use xlink:href="#DejaVuSansMono-31" x="120.410156"/>
      </g>
     </g>
    </g>
    <g id="ytick_3">
     <g id="line2d_7">
      <g>
       <use xlink:href="#m04971a3f9f" x="35.89" y="267.886848" style="stroke: #000000; stroke-width: 0.8"/>
      </g>
     </g>
     <g id="text_7">
      <!-- 0.2 -->
      <g transform="translate(10.829063 271.71263) scale(0.1 -0.1)">
       <use xlink:href="#DejaVuSansMono-30"/>
       <use xlink:href="#DejaVuSansMono-2e" x="60.205078"/>
       <use xlink:href="#DejaVuSansMono-32" x="120.410156"/>
      </g>
     </g>
    </g>
    <g id="ytick_4">
     <g id="line2d_8">
      <g>
       <use xlink:href="#m04971a3f9f" x="35.89" y="208.709364" style="stroke: #000000; stroke-width: 0.8"/>
      </g>
     </g>
     <g id="text_8">
      <!-- 0.3 -->
      <g transform="translate(10.829063 212.535145) scale(0.1 -0.1)">
       <use xlink:href="#DejaVuSansMono-30"/>
       <use xlink:href="#DejaVuSansMono-2e" x="60.205078"/>
       <use xlink:href="#DejaVuSansMono-33" x="120.410156"/>
      </g>
     </g>
    </g>
    <g id="ytick_5">
     <g id="line2d_9">
      <g>
       <use xlink:href="#m04971a3f9f" x="35.89" y="149.531879" style="stroke: #000000; stroke-width: 0.8"/>
      </g>
     </g>
     <g id="text_9">
      <!-- 0.4 -->
      <g transform="translate(10.829063 153.35766) scale(0.1 -0.1)">
       <use xlink:href="#DejaVuSansMono-30"/>
       <use xlink:href="#DejaVuSansMono-2e" x="60.205078"/>
       <use xlink:href="#DejaVuSansMono-34" x="120.410156"/>
      </g>
     </g>
    </g>
    <g id="ytick_6">
     <g id="line2d_10">
      <g>
       <use xlink:href="#m04971a3f9f" x="35.89" y="90.354394" style="stroke: #000000; stroke-width: 0.8"/>
      </g>
     </g>
     <g id="text_10">
      <!-- 0.5 -->
      <g transform="translate(10.829063 94.180175) scale(0.1 -0.1)">
       <defs>
        <path id="DejaVuSansMono-35" d="M 647 4666 
L 3009 4666 
L 3009 4134 
L 1222 4134 
L 1222 2988 
Q 1356 3038 1492 3061 
Q 1628 3084 1766 3084 
Q 2491 3084 2916 2656 
Q 3341 2228 3341 1497 
Q 3341 759 2895 334 
Q 2450 -91 1678 -91 
Q 1306 -91 998 -41 
Q 691 9 447 109 
L 447 750 
Q 734 594 1025 517 
Q 1316 441 1619 441 
Q 2141 441 2423 716 
Q 2706 991 2706 1497 
Q 2706 1997 2414 2275 
Q 2122 2553 1600 2553 
Q 1347 2553 1106 2495 
Q 866 2438 647 2322 
L 647 4666 
z
" transform="scale(0.015625)"/>
       </defs>
       <use xlink:href="#DejaVuSansMono-30"/>
       <use xlink:href="#DejaVuSansMono-2e" x="60.205078"/>
       <use xlink:href="#DejaVuSansMono-35" x="120.410156"/>
      </g>
     </g>
    </g>
    <g id="ytick_7">
     <g id="line2d_11">
      <g>
       <use xlink:href="#m04971a3f9f" x="35.89" y="31.176909" style="stroke: #000000; stroke-width: 0.8"/>
      </g>
     </g>
     <g id="text_11">
      <!-- 0.6 -->
      <g transform="translate(10.829063 35.00269) scale(0.1 -0.1)">
       <defs>
        <path id="DejaVuSansMono-36" d="M 3097 4563 
L 3097 3981 
Q 2900 4097 2678 4158 
Q 2456 4219 2216 4219 
Q 1616 4219 1306 3767 
Q 997 3316 997 2438 
Q 1147 2750 1412 2917 
Q 1678 3084 2022 3084 
Q 2697 3084 3067 2670 
Q 3438 2256 3438 1497 
Q 3438 741 3056 325 
Q 2675 -91 1984 -91 
Q 1172 -91 794 492 
Q 416 1075 416 2328 
Q 416 3509 870 4129 
Q 1325 4750 2188 4750 
Q 2419 4750 2650 4701 
Q 2881 4653 3097 4563 
z
M 1972 2591 
Q 1569 2591 1337 2300 
Q 1106 2009 1106 1497 
Q 1106 984 1337 693 
Q 1569 403 1972 403 
Q 2391 403 2603 679 
Q 2816 956 2816 1497 
Q 2816 2041 2603 2316 
Q 2391 2591 1972 2591 
z
" transform="scale(0.015625)"/>
       </defs>
       <use xlink:href="#DejaVuSansMono-30"/>
       <use xlink:href="#DejaVuSansMono-2e" x="60.205078"/>
       <use xlink:href="#DejaVuSansMono-36" x="120.410156"/>
      </g>
     </g>
    </g>
   </g>
   <g id="line2d_12">
    <path d="M 18.898108 334.407522 
L 20.597297 351.685621 
L 23.995676 351.685621 
L 25.694865 368.963719 
L 27.394054 363.972847 
L 32.491622 363.972847 
L 34.190811 381.250946 
L 37.589189 381.250946 
L 39.288378 363.880118 
L 42.686757 363.880118 
L 44.385946 368.87099 
L 46.085135 352.721189 
L 54.581081 352.721189 
L 56.28027 370.092017 
L 57.979459 352.813918 
L 61.377838 352.813918 
L 63.077027 368.963719 
L 64.776216 368.963719 
L 66.475405 366.643034 
L 73.272162 366.643034 
L 74.971351 383.921132 
L 81.768108 383.921132 
L 83.467297 386.241818 
L 95.361622 386.241818 
L 97.060811 371.375976 
L 112.353514 371.375976 
L 114.052703 386.241818 
L 125.947027 386.241818 
L 127.646216 368.412159 
L 134.442973 368.412159 
L 136.142162 363.917667 
L 142.938919 363.917667 
L 144.638108 381.747325 
L 151.434865 381.747325 
L 153.134054 386.241818 
L 453.890541 386.241818 
L 455.58973 378.172162 
L 470.882432 378.172162 
L 472.581622 386.241818 
L 486.175135 386.241818 
L 489.573514 380.210992 
L 491.272703 380.210992 
L 492.971892 370.584033 
L 503.167027 370.584033 
L 504.866216 367.933517 
L 506.565405 369.421769 
L 508.264595 369.421769 
L 509.963784 379.048728 
L 511.662973 379.048728 
L 513.362162 377.449337 
L 520.158919 377.449337 
L 521.858108 383.115266 
L 523.557297 376.838802 
L 528.654865 376.838802 
L 530.354054 378.438193 
L 532.053243 374.668927 
L 533.752432 373.84127 
L 538.85 373.84127 
L 540.549189 380.066828 
L 542.248378 379.244919 
L 543.947568 368.750389 
L 545.646757 352.935716 
L 547.345946 352.108059 
L 549.045135 346.122795 
L 550.744324 339.644589 
L 552.443514 335.64611 
L 554.142703 330.911912 
L 555.841892 330.911912 
L 557.541081 332.489978 
L 559.24027 314.713248 
L 560.939459 324.368381 
L 562.638649 337.734331 
L 564.337838 325.928592 
L 566.037027 320.888751 
L 567.736216 317.055322 
L 569.435405 308.976763 
L 571.134595 296.727288 
L 572.833784 278.473537 
L 574.532973 273.02298 
L 576.232162 291.621618 
L 577.931351 278.684246 
L 581.32973 269.372179 
L 583.028919 281.072303 
L 584.728108 271.61783 
L 586.427297 282.051049 
L 588.126486 284.323935 
L 589.825676 297.127128 
L 591.524865 295.749514 
L 593.224054 284.561731 
L 594.923243 277.385708 
L 596.622432 268.080969 
L 598.321622 267.502558 
L 600.020811 252.586266 
L 601.72 260.155319 
L 603.419189 240.249914 
L 605.118378 232.70128 
L 606.817568 215.244423 
L 608.516757 199.059128 
L 610.215946 189.860409 
L 611.915135 186.94329 
L 613.614324 179.539092 
L 615.313514 182.592684 
L 617.012703 190.311487 
L 618.711892 179.352371 
L 620.411081 179.586484 
L 622.11027 177.931717 
L 623.809459 177.054879 
L 625.508649 182.621597 
L 627.207838 182.399026 
L 628.907027 180.364831 
L 630.606216 179.273615 
L 632.305405 171.37985 
L 634.004595 156.709447 
L 635.703784 161.483827 
L 637.402973 157.665643 
L 639.102162 155.06046 
L 640.801351 157.80383 
L 642.500541 150.793464 
L 644.19973 149.103776 
L 645.898919 146.646325 
L 647.598108 144.919565 
L 649.297297 142.216363 
L 650.996486 142.035736 
L 652.695676 136.355083 
L 654.394865 135.246781 
L 656.094054 133.974296 
L 657.793243 129.617116 
L 659.492432 127.259433 
L 661.191622 129.945085 
L 662.890811 133.924502 
L 664.59 133.894101 
L 666.289189 133.208941 
L 667.988378 131.080979 
L 669.687568 130.756324 
L 671.386757 132.756542 
L 673.085946 133.097245 
L 674.785135 129.876688 
L 676.484324 128.286292 
L 678.183514 117.80051 
L 679.882703 112.317379 
L 681.581892 112.729035 
L 683.281081 111.2364 
L 684.98027 109.047595 
L 686.679459 106.153045 
L 688.378649 101.290742 
L 690.077838 99.530879 
L 691.777027 103.444335 
L 693.476216 103.356667 
L 695.175405 104.666512 
L 696.874595 104.681196 
L 698.573784 102.06198 
L 700.272973 98.15964 
L 701.972162 97.601609 
L 703.671351 95.991826 
L 705.370541 98.987792 
L 707.06973 98.357168 
L 708.768919 93.353797 
L 710.468108 92.50245 
L 712.167297 89.537724 
L 713.866486 89.006004 
L 715.565676 87.233775 
L 717.264865 88.258781 
L 718.964054 88.916973 
L 720.663243 95.851147 
L 722.362432 93.50815 
L 724.061622 90.889566 
L 725.760811 90.321248 
L 727.46 89.090424 
L 729.159189 92.067695 
L 730.858378 93.530689 
L 732.557568 93.73995 
L 734.256757 92.756231 
L 735.955946 94.126251 
L 737.655135 84.726919 
L 739.354324 90.945207 
L 741.053514 92.233751 
L 742.752703 90.157515 
L 744.451892 86.837463 
L 746.151081 84.083104 
L 747.85027 81.706633 
L 749.549459 82.976806 
L 751.248649 81.268169 
L 752.947838 78.640598 
L 754.647027 78.54622 
L 756.346216 69.925425 
L 758.045405 67.281396 
L 759.744595 67.683146 
L 763.142973 64.82701 
L 764.842162 66.871568 
L 766.541351 63.431073 
L 768.240541 65.107255 
L 769.93973 65.587498 
L 771.638919 63.567338 
L 773.338108 61.752443 
L 775.037297 63.249818 
L 776.736486 63.370842 
L 778.435676 67.304932 
L 780.134865 65.268864 
L 781.834054 61.165508 
L 783.533243 57.537167 
L 785.232432 54.621022 
L 786.931622 49.789189 
L 788.630811 52.172029 
L 790.33 52.165461 
L 792.029189 51.047188 
L 793.728378 50.476143 
L 795.427568 48.394775 
L 797.126757 47.917107 
L 798.825946 49.606545 
L 800.525135 58.185575 
L 803.923514 63.273807 
L 805.622703 61.684854 
L 807.321892 65.832952 
L 809.021081 67.735531 
L 810.72027 66.025854 
L 812.419459 66.051247 
L 814.118649 67.915749 
L 815.817838 64.409374 
L 817.517027 56.285155 
L 819.216216 55.396605 
L 820.915405 52.551533 
L 822.614595 51.3054 
L 824.313784 44.854227 
L 826.012973 41.70548 
L 827.712162 39.666256 
L 829.411351 40.352588 
L 831.110541 37.80339 
L 832.80973 37.858598 
L 834.508919 39.791276 
L 836.208108 36.88592 
L 837.907297 34.552 
L 839.606486 30.889575 
L 841.305676 30.525224 
L 843.004865 30.430705 
L 844.704054 29.06667 
L 848.102432 28.678182 
L 849.801622 33.312731 
L 851.500811 29.932632 
L 851.500811 29.932632 
" clip-path="url(#p4d4c963a8e)" style="fill: none; stroke-dasharray: 7.4,3.2; stroke-dashoffset: 0; stroke: #000000; stroke-width: 2"/>
   </g>
   <g id="patch_3">
    <path d="M 35.89 404.12 
L 35.89 10.8 
" style="fill: none; stroke: #000000; stroke-width: 0.8; stroke-linejoin: miter; stroke-linecap: square"/>
   </g>
   <g id="patch_4">
    <path d="M 853.2 404.12 
L 853.2 10.8 
" style="fill: none; stroke: #000000; stroke-width: 0.8; stroke-linejoin: miter; stroke-linecap: square"/>
   </g>
   <g id="patch_5">
    <path d="M 35.89 404.12 
L 853.2 404.12 
" style="fill: none; stroke: #000000; stroke-width: 0.8; stroke-linejoin: miter; stroke-linecap: square"/>
   </g>
   <g id="patch_6">
    <path d="M 35.89 10.8 
L 853.2 10.8 
" style="fill: none; stroke: #000000; stroke-width: 0.8; stroke-linejoin: miter; stroke-linecap: square"/>
   </g>
  </g>
 </g>
 <defs>
  <clipPath id="p4d4c963a8e">
   <rect x="35.89" y="10.8" width="817.31" height="393.32"/>
  </clipPath>
 </defs>
</svg>
