<?xml version="1.0" encoding="utf-8" standalone="no"?>
<!DOCTYPE svg PUBLIC "-//W3C//DTD SVG 1.1//EN"
  "http://www.w3.org/Graphics/SVG/1.1/DTD/svg11.dtd">
<svg xmlns:xlink="http://www.w3.org/1999/xlink" width="432pt" height="216pt" viewBox="0 0 432 216" xmlns="http://www.w3.org/2000/svg" version="1.1">
 <metadata>
  <rdf:RDF xmlns:dc="http://purl.org/dc/elements/1.1/" xmlns:cc="http://creativecommons.org/ns#" xmlns:rdf="http://www.w3.org/1999/02/22-rdf-syntax-ns#">
   <cc:Work>
    <dc:type rdf:resource="http://purl.org/dc/dcmitype/StillImage"/>
    <dc:date>2024-08-13T20:53:35.162968</dc:date>
    <dc:format>image/svg+xml</dc:format>
    <dc:creator>
     <cc:Agent>
      <dc:title>Matplotlib v3.9.1.post1, https://matplotlib.org/</dc:title>
     </cc:Agent>
    </dc:creator>
   </cc:Work>
  </rdf:RDF>
 </metadata>
 <defs>
  <style type="text/css">*{stroke-linejoin: round; stroke-linecap: butt}</style>
 </defs>
 <g id="figure_1">
  <g id="patch_1">
   <path d="M 0 216 
L 432 216 
L 432 0 
L 0 0 
z
" style="fill: #ffffff"/>
  </g>
  <g id="axes_1">
   <g id="patch_2">
    <path d="M 37.08 170.399655 
L 421.2 170.399655 
L 421.2 24.698966 
L 37.08 24.698966 
z
" style="fill: #ffffff"/>
   </g>
   <g id="patch_3">
    <path d="M 45.784622 161.695033 
L 54.866412 161.695033 
L 54.866412 152.613243 
L 45.784622 152.613243 
z
" clip-path="url(#pa15aeee909)" style="stroke: #000000; stroke-linejoin: miter"/>
   </g>
   <g id="patch_4">
    <path d="M 59.018501 161.706672 
L 68.123568 161.706672 
L 68.123568 152.601604 
L 59.018501 152.601604 
z
" clip-path="url(#pa15aeee909)" style="stroke: #000000; stroke-linejoin: miter"/>
   </g>
   <g id="patch_5">
    <path d="M 72.2822 161.688489 
L 81.350902 161.688489 
L 81.350902 152.619786 
L 72.2822 152.619786 
z
" clip-path="url(#pa15aeee909)" style="stroke: #000000; stroke-linejoin: miter"/>
   </g>
   <g id="patch_6">
    <path d="M 85.591699 161.624507 
L 94.532439 161.624507 
L 94.532439 152.683769 
L 85.591699 152.683769 
z
" clip-path="url(#pa15aeee909)" style="stroke: #000000; stroke-linejoin: miter"/>
   </g>
   <g id="patch_7">
    <path d="M 98.78379 161.677933 
L 107.831376 161.677933 
L 107.831376 152.630343 
L 98.78379 152.630343 
z
" clip-path="url(#pa15aeee909)" style="stroke: #000000; stroke-linejoin: miter"/>
   </g>
   <g id="patch_8">
    <path d="M 112.019915 161.687324 
L 121.086292 161.687324 
L 121.086292 152.620951 
L 112.019915 152.620951 
z
" clip-path="url(#pa15aeee909)" style="stroke: #000000; stroke-linejoin: miter"/>
   </g>
   <g id="patch_9">
    <path d="M 125.263418 161.689342 
L 134.333824 161.689342 
L 134.333824 152.618934 
L 125.263418 152.618934 
z
" clip-path="url(#pa15aeee909)" style="stroke: #000000; stroke-linejoin: miter"/>
   </g>
   <g id="patch_10">
    <path d="M 138.544595 161.653683 
L 147.543687 161.653683 
L 147.543687 152.654593 
L 138.544595 152.654593 
z
" clip-path="url(#pa15aeee909)" style="stroke: #000000; stroke-linejoin: miter"/>
   </g>
   <g id="patch_11">
    <path d="M 151.793428 161.650365 
L 160.785882 161.650365 
L 160.785882 152.65791 
L 151.793428 152.65791 
z
" clip-path="url(#pa15aeee909)" style="stroke: #000000; stroke-linejoin: miter"/>
   </g>
   <g id="patch_12">
    <path d="M 165.018633 161.670675 
L 174.051712 161.670675 
L 174.051712 152.637601 
L 165.018633 152.637601 
z
" clip-path="url(#pa15aeee909)" style="stroke: #000000; stroke-linejoin: miter"/>
   </g>
   <g id="patch_13">
    <path d="M 178.258908 161.675921 
L 187.302471 161.675921 
L 187.302471 152.632355 
L 178.258908 152.632355 
z
" clip-path="url(#pa15aeee909)" style="stroke: #000000; stroke-linejoin: miter"/>
   </g>
   <g id="patch_14">
    <path d="M 191.257636 161.922706 
L 200.794765 161.922706 
L 200.794765 152.38557 
L 191.257636 152.38557 
z
" clip-path="url(#pa15aeee909)" style="stroke: #000000; stroke-linejoin: miter"/>
   </g>
   <g id="patch_15">
    <path d="M 204.609413 161.81645 
L 213.934036 161.81645 
L 213.934036 152.491826 
L 204.609413 152.491826 
z
" clip-path="url(#pa15aeee909)" style="stroke: #000000; stroke-linejoin: miter"/>
   </g>
   <g id="patch_16">
    <path d="M 217.924418 161.746957 
L 227.110052 161.746957 
L 227.110052 152.561319 
L 217.924418 152.561319 
z
" clip-path="url(#pa15aeee909)" style="stroke: #000000; stroke-linejoin: miter"/>
   </g>
   <g id="patch_17">
    <path d="M 231.239777 161.677115 
L 240.285728 161.677115 
L 240.285728 152.631161 
L 231.239777 152.631161 
z
" clip-path="url(#pa15aeee909)" style="stroke: #000000; stroke-linejoin: miter"/>
   </g>
   <g id="patch_18">
    <path d="M 244.498722 161.663693 
L 253.51783 161.663693 
L 253.51783 152.644583 
L 244.498722 152.644583 
z
" clip-path="url(#pa15aeee909)" style="stroke: #000000; stroke-linejoin: miter"/>
   </g>
   <g id="patch_19">
    <path d="M 257.608067 161.799859 
L 266.899506 161.799859 
L 266.899506 152.508417 
L 257.608067 152.508417 
z
" clip-path="url(#pa15aeee909)" style="stroke: #000000; stroke-linejoin: miter"/>
   </g>
   <g id="patch_20">
    <path d="M 270.77149 161.88196 
L 280.227131 161.88196 
L 280.227131 152.426316 
L 270.77149 152.426316 
z
" clip-path="url(#pa15aeee909)" style="stroke: #000000; stroke-linejoin: miter"/>
   </g>
   <g id="patch_21">
    <path d="M 284.095805 161.803172 
L 293.393876 161.803172 
L 293.393876 152.505104 
L 284.095805 152.505104 
z
" clip-path="url(#pa15aeee909)" style="stroke: #000000; stroke-linejoin: miter"/>
   </g>
   <g id="patch_22">
    <path d="M 297.307746 161.836731 
L 306.672943 161.836731 
L 306.672943 152.471545 
L 297.307746 152.471545 
z
" clip-path="url(#pa15aeee909)" style="stroke: #000000; stroke-linejoin: miter"/>
   </g>
   <g id="patch_23">
    <path d="M 310.550207 161.839796 
L 319.921517 161.839796 
L 319.921517 152.46848 
L 310.550207 152.46848 
z
" clip-path="url(#pa15aeee909)" style="stroke: #000000; stroke-linejoin: miter"/>
   </g>
   <g id="patch_24">
    <path d="M 323.854892 161.780636 
L 333.107892 161.780636 
L 333.107892 152.52764 
L 323.854892 152.52764 
z
" clip-path="url(#pa15aeee909)" style="stroke: #000000; stroke-linejoin: miter"/>
   </g>
   <g id="patch_25">
    <path d="M 337.21829 161.662739 
L 346.235503 161.662739 
L 346.235503 152.645537 
L 337.21829 152.645537 
z
" clip-path="url(#pa15aeee909)" style="stroke: #000000; stroke-linejoin: miter"/>
   </g>
   <g id="patch_26">
    <path d="M 350.515068 161.611482 
L 359.42976 161.611482 
L 359.42976 152.696794 
L 350.515068 152.696794 
z
" clip-path="url(#pa15aeee909)" style="stroke: #000000; stroke-linejoin: miter"/>
   </g>
   <g id="patch_27">
    <path d="M 363.669357 161.702716 
L 372.766505 161.702716 
L 372.766505 152.605559 
L 363.669357 152.605559 
z
" clip-path="url(#pa15aeee909)" style="stroke: #000000; stroke-linejoin: miter"/>
   </g>
   <g id="patch_28">
    <path d="M 376.956231 161.661362 
L 385.97069 161.661362 
L 385.97069 152.646914 
L 376.956231 152.646914 
z
" clip-path="url(#pa15aeee909)" style="stroke: #000000; stroke-linejoin: miter"/>
   </g>
   <g id="patch_29">
    <path d="M 390.167845 161.695269 
L 399.250112 161.695269 
L 399.250112 152.613007 
L 390.167845 152.613007 
z
" clip-path="url(#pa15aeee909)" style="stroke: #000000; stroke-linejoin: miter"/>
   </g>
   <g id="patch_30">
    <path d="M 45.691499 148.542639 
L 54.959536 148.542639 
L 54.959536 139.274601 
L 45.691499 139.274601 
z
" clip-path="url(#pa15aeee909)" style="stroke: #000000; stroke-linejoin: miter"/>
   </g>
   <g id="patch_31">
    <path d="M 58.920024 148.559631 
L 68.222045 148.559631 
L 68.222045 139.25761 
L 58.920024 139.25761 
z
" clip-path="url(#pa15aeee909)" style="stroke: #000000; stroke-linejoin: miter"/>
   </g>
   <g id="patch_32">
    <path d="M 72.28099 148.444182 
L 81.352115 148.444182 
L 81.352115 139.373059 
L 72.28099 139.373059 
z
" clip-path="url(#pa15aeee909)" style="stroke: #000000; stroke-linejoin: miter"/>
   </g>
   <g id="patch_33">
    <path d="M 85.47037 148.500321 
L 94.653768 148.500321 
L 94.653768 139.316922 
L 85.47037 139.316922 
z
" clip-path="url(#pa15aeee909)" style="stroke: #000000; stroke-linejoin: miter"/>
   </g>
   <g id="patch_34">
    <path d="M 98.630701 148.585506 
L 107.984469 148.585506 
L 107.984469 139.231735 
L 98.630701 139.231735 
z
" clip-path="url(#pa15aeee909)" style="stroke: #000000; stroke-linejoin: miter"/>
   </g>
   <g id="patch_35">
    <path d="M 111.977744 148.483977 
L 121.128457 148.483977 
L 121.128457 139.333264 
L 111.977744 139.333264 
z
" clip-path="url(#pa15aeee909)" style="stroke: #000000; stroke-linejoin: miter"/>
   </g>
   <g id="patch_36">
    <path d="M 125.097908 148.609335 
L 134.499333 148.609335 
L 134.499333 139.207907 
L 125.097908 139.207907 
z
" clip-path="url(#pa15aeee909)" style="stroke: #000000; stroke-linejoin: miter"/>
   </g>
   <g id="patch_37">
    <path d="M 138.273085 148.679676 
L 147.815191 148.679676 
L 147.815191 139.137567 
L 138.273085 139.137567 
z
" clip-path="url(#pa15aeee909)" style="stroke: #000000; stroke-linejoin: miter"/>
   </g>
   <g id="patch_38">
    <path d="M 151.678711 148.519563 
L 160.900593 148.519563 
L 160.900593 139.29768 
L 151.678711 139.29768 
z
" clip-path="url(#pa15aeee909)" style="stroke: #000000; stroke-linejoin: miter"/>
   </g>
   <g id="patch_39">
    <path d="M 165.12819 148.31561 
L 173.942168 148.31561 
L 173.942168 139.501632 
L 165.12819 139.501632 
z
" clip-path="url(#pa15aeee909)" style="stroke: #000000; stroke-linejoin: miter"/>
   </g>
   <g id="patch_40">
    <path d="M 178.11877 148.570534 
L 187.442597 148.570534 
L 187.442597 139.246707 
L 178.11877 139.246707 
z
" clip-path="url(#pa15aeee909)" style="stroke: #000000; stroke-linejoin: miter"/>
   </g>
   <g id="patch_41">
    <path d="M 191.627271 148.30756 
L 200.425143 148.30756 
L 200.425143 139.509681 
L 191.627271 139.509681 
z
" clip-path="url(#pa15aeee909)" style="stroke: #000000; stroke-linejoin: miter"/>
   </g>
   <g id="patch_42">
    <path d="M 204.700388 148.479962 
L 213.843073 148.479962 
L 213.843073 139.337279 
L 204.700388 139.337279 
z
" clip-path="url(#pa15aeee909)" style="stroke: #000000; stroke-linejoin: miter"/>
   </g>
   <g id="patch_43">
    <path d="M 217.895251 148.53061 
L 227.139232 148.53061 
L 227.139232 139.28663 
L 217.895251 139.28663 
z
" clip-path="url(#pa15aeee909)" style="stroke: #000000; stroke-linejoin: miter"/>
   </g>
   <g id="patch_44">
    <path d="M 231.218454 148.452928 
L 240.307063 148.452928 
L 240.307063 139.364313 
L 231.218454 139.364313 
z
" clip-path="url(#pa15aeee909)" style="stroke: #000000; stroke-linejoin: miter"/>
   </g>
   <g id="patch_45">
    <path d="M 244.535228 148.381673 
L 253.481336 148.381673 
L 253.481336 139.43557 
L 244.535228 139.43557 
z
" clip-path="url(#pa15aeee909)" style="stroke: #000000; stroke-linejoin: miter"/>
   </g>
   <g id="patch_46">
    <path d="M 257.862916 148.299501 
L 266.64467 148.299501 
L 266.64467 139.51774 
L 257.862916 139.51774 
z
" clip-path="url(#pa15aeee909)" style="stroke: #000000; stroke-linejoin: miter"/>
   </g>
   <g id="patch_47">
    <path d="M 270.995681 148.412242 
L 280.002915 148.412242 
L 280.002915 139.405001 
L 270.995681 139.405001 
z
" clip-path="url(#pa15aeee909)" style="stroke: #000000; stroke-linejoin: miter"/>
   </g>
   <g id="patch_48">
    <path d="M 284.049698 148.60374 
L 293.439932 148.60374 
L 293.439932 139.213501 
L 284.049698 139.213501 
z
" clip-path="url(#pa15aeee909)" style="stroke: #000000; stroke-linejoin: miter"/>
   </g>
   <g id="patch_49">
    <path d="M 297.076431 148.822531 
L 306.904259 148.822531 
L 306.904259 138.99471 
L 297.076431 138.99471 
z
" clip-path="url(#pa15aeee909)" style="stroke: #000000; stroke-linejoin: miter"/>
   </g>
   <g id="patch_50">
    <path d="M 310.708636 148.435843 
L 319.763088 148.435843 
L 319.763088 139.381398 
L 310.708636 139.381398 
z
" clip-path="url(#pa15aeee909)" style="stroke: #000000; stroke-linejoin: miter"/>
   </g>
   <g id="patch_51">
    <path d="M 323.978482 148.411521 
L 332.984276 148.411521 
L 332.984276 139.405721 
L 323.978482 139.405721 
z
" clip-path="url(#pa15aeee909)" style="stroke: #000000; stroke-linejoin: miter"/>
   </g>
   <g id="patch_52">
    <path d="M 337.335059 148.300466 
L 346.118759 148.300466 
L 346.118759 139.516774 
L 337.335059 139.516774 
z
" clip-path="url(#pa15aeee909)" style="stroke: #000000; stroke-linejoin: miter"/>
   </g>
   <g id="patch_53">
    <path d="M 350.584568 148.296461 
L 359.360259 148.296461 
L 359.360259 139.52078 
L 350.584568 139.52078 
z
" clip-path="url(#pa15aeee909)" style="stroke: #000000; stroke-linejoin: miter"/>
   </g>
   <g id="patch_54">
    <path d="M 363.774227 148.352324 
L 372.661635 148.352324 
L 372.661635 139.464917 
L 363.774227 139.464917 
z
" clip-path="url(#pa15aeee909)" style="stroke: #000000; stroke-linejoin: miter"/>
   </g>
   <g id="patch_55">
    <path d="M 377.058221 148.313844 
L 385.868675 148.313844 
L 385.868675 139.503397 
L 377.058221 139.503397 
z
" clip-path="url(#pa15aeee909)" style="stroke: #000000; stroke-linejoin: miter"/>
   </g>
   <g id="patch_56">
    <path d="M 390.240503 148.377092 
L 399.177453 148.377092 
L 399.177453 139.440149 
L 390.240503 139.440149 
z
" clip-path="url(#pa15aeee909)" style="stroke: #000000; stroke-linejoin: miter"/>
   </g>
   <g id="patch_57">
    <path d="M 45.865066 135.123555 
L 54.785969 135.123555 
L 54.785969 126.202653 
L 45.865066 126.202653 
z
" clip-path="url(#pa15aeee909)" style="stroke: #000000; stroke-linejoin: miter"/>
   </g>
   <g id="patch_58">
    <path d="M 59.236099 134.998038 
L 67.90597 134.998038 
L 67.90597 126.328167 
L 59.236099 126.328167 
z
" clip-path="url(#pa15aeee909)" style="stroke: #000000; stroke-linejoin: miter"/>
   </g>
   <g id="patch_59">
    <path d="M 72.409484 135.070171 
L 81.22362 135.070171 
L 81.22362 126.256035 
L 72.409484 126.256035 
z
" clip-path="url(#pa15aeee909)" style="stroke: #000000; stroke-linejoin: miter"/>
   </g>
   <g id="patch_60">
    <path d="M 85.80077 134.924402 
L 94.323368 134.924402 
L 94.323368 126.401805 
L 85.80077 126.401805 
z
" clip-path="url(#pa15aeee909)" style="stroke: #000000; stroke-linejoin: miter"/>
   </g>
   <g id="patch_61">
    <path d="M 98.875488 135.095202 
L 107.739681 135.095202 
L 107.739681 126.231008 
L 98.875488 126.231008 
z
" clip-path="url(#pa15aeee909)" style="stroke: #000000; stroke-linejoin: miter"/>
   </g>
   <g id="patch_62">
    <path d="M 112.2525 134.963707 
L 120.853707 134.963707 
L 120.853707 126.3625 
L 112.2525 126.3625 
z
" clip-path="url(#pa15aeee909)" style="stroke: #000000; stroke-linejoin: miter"/>
   </g>
   <g id="patch_63">
    <path d="M 125.432376 135.029348 
L 134.164866 135.029348 
L 134.164866 126.296859 
L 125.432376 126.296859 
z
" clip-path="url(#pa15aeee909)" style="stroke: #000000; stroke-linejoin: miter"/>
   </g>
   <g id="patch_64">
    <path d="M 138.724619 134.982621 
L 147.363657 134.982621 
L 147.363657 126.343584 
L 138.724619 126.343584 
z
" clip-path="url(#pa15aeee909)" style="stroke: #000000; stroke-linejoin: miter"/>
   </g>
   <g id="patch_65">
    <path d="M 151.977405 134.975355 
L 160.601911 134.975355 
L 160.601911 126.350851 
L 151.977405 126.350851 
z
" clip-path="url(#pa15aeee909)" style="stroke: #000000; stroke-linejoin: miter"/>
   </g>
   <g id="patch_66">
    <path d="M 165.4655 134.732775 
L 173.604845 134.732775 
L 173.604845 126.593434 
L 165.4655 126.593434 
z
" clip-path="url(#pa15aeee909)" style="stroke: #000000; stroke-linejoin: miter"/>
   </g>
   <g id="patch_67">
    <path d="M 178.760016 134.683772 
L 186.801351 134.683772 
L 186.801351 126.642436 
L 178.760016 126.642436 
z
" clip-path="url(#pa15aeee909)" style="stroke: #000000; stroke-linejoin: miter"/>
   </g>
   <g id="patch_68">
    <path d="M 192.093792 134.595516 
L 199.958621 134.595516 
L 199.958621 126.730692 
L 192.093792 126.730692 
z
" clip-path="url(#pa15aeee909)" style="stroke: #000000; stroke-linejoin: miter"/>
   </g>
   <g id="patch_69">
    <path d="M 205.105771 134.829063 
L 213.43769 134.829063 
L 213.43769 126.497144 
L 205.105771 126.497144 
z
" clip-path="url(#pa15aeee909)" style="stroke: #000000; stroke-linejoin: miter"/>
   </g>
   <g id="patch_70">
    <path d="M 218.51477 134.665578 
L 226.519712 134.665578 
L 226.519712 126.660629 
L 218.51477 126.660629 
z
" clip-path="url(#pa15aeee909)" style="stroke: #000000; stroke-linejoin: miter"/>
   </g>
   <g id="patch_71">
    <path d="M 231.792992 134.632874 
L 239.732538 134.632874 
L 239.732538 126.69333 
L 231.792992 126.69333 
z
" clip-path="url(#pa15aeee909)" style="stroke: #000000; stroke-linejoin: miter"/>
   </g>
   <g id="patch_72">
    <path d="M 244.770952 134.900432 
L 253.245612 134.900432 
L 253.245612 126.425777 
L 244.770952 126.425777 
z
" clip-path="url(#pa15aeee909)" style="stroke: #000000; stroke-linejoin: miter"/>
   </g>
   <g id="patch_73">
    <path d="M 258.114253 134.802648 
L 266.393346 134.802648 
L 266.393346 126.523557 
L 258.114253 126.523557 
z
" clip-path="url(#pa15aeee909)" style="stroke: #000000; stroke-linejoin: miter"/>
   </g>
   <g id="patch_74">
    <path d="M 271.257945 134.904464 
L 279.740676 134.904464 
L 279.740676 126.421744 
L 271.257945 126.421744 
z
" clip-path="url(#pa15aeee909)" style="stroke: #000000; stroke-linejoin: miter"/>
   </g>
   <g id="patch_75">
    <path d="M 284.074255 135.333681 
L 293.4154 135.333681 
L 293.4154 125.992528 
L 284.074255 125.992528 
z
" clip-path="url(#pa15aeee909)" style="stroke: #000000; stroke-linejoin: miter"/>
   </g>
   <g id="patch_76">
    <path d="M 297.879795 134.773653 
L 306.100895 134.773653 
L 306.100895 126.552554 
L 297.879795 126.552554 
z
" clip-path="url(#pa15aeee909)" style="stroke: #000000; stroke-linejoin: miter"/>
   </g>
   <g id="patch_77">
    <path d="M 311.200321 134.698645 
L 319.271403 134.698645 
L 319.271403 126.627562 
L 311.200321 126.627562 
z
" clip-path="url(#pa15aeee909)" style="stroke: #000000; stroke-linejoin: miter"/>
   </g>
   <g id="patch_78">
    <path d="M 323.914312 135.230174 
L 333.048446 135.230174 
L 333.048446 126.096033 
L 323.914312 126.096033 
z
" clip-path="url(#pa15aeee909)" style="stroke: #000000; stroke-linejoin: miter"/>
   </g>
   <g id="patch_79">
    <path d="M 337.71336 134.676642 
L 345.740433 134.676642 
L 345.740433 126.649567 
L 337.71336 126.649567 
z
" clip-path="url(#pa15aeee909)" style="stroke: #000000; stroke-linejoin: miter"/>
   </g>
   <g id="patch_80">
    <path d="M 350.862496 134.773012 
L 359.082307 134.773012 
L 359.082307 126.553195 
L 350.862496 126.553195 
z
" clip-path="url(#pa15aeee909)" style="stroke: #000000; stroke-linejoin: miter"/>
   </g>
   <g id="patch_81">
    <path d="M 364.267478 134.613559 
L 372.168384 134.613559 
L 372.168384 126.712651 
L 364.267478 126.712651 
z
" clip-path="url(#pa15aeee909)" style="stroke: #000000; stroke-linejoin: miter"/>
   </g>
   <g id="patch_82">
    <path d="M 377.22903 134.897509 
L 385.697841 134.897509 
L 385.697841 126.428698 
L 377.22903 126.428698 
z
" clip-path="url(#pa15aeee909)" style="stroke: #000000; stroke-linejoin: miter"/>
   </g>
   <g id="patch_83">
    <path d="M 390.58063 134.791445 
L 398.837326 134.791445 
L 398.837326 126.534762 
L 390.58063 126.534762 
z
" clip-path="url(#pa15aeee909)" style="stroke: #000000; stroke-linejoin: miter"/>
   </g>
   <g id="patch_84">
    <path d="M 45.750473 121.99263 
L 54.900561 121.99263 
L 54.900561 112.842542 
L 45.750473 112.842542 
z
" clip-path="url(#pa15aeee909)" style="stroke: #000000; stroke-linejoin: miter"/>
   </g>
   <g id="patch_85">
    <path d="M 59.251323 121.737298 
L 67.890747 121.737298 
L 67.890747 113.097877 
L 59.251323 113.097877 
z
" clip-path="url(#pa15aeee909)" style="stroke: #000000; stroke-linejoin: miter"/>
   </g>
   <g id="patch_86">
    <path d="M 72.642776 121.591362 
L 80.990327 121.591362 
L 80.990327 113.243811 
L 72.642776 113.243811 
z
" clip-path="url(#pa15aeee909)" style="stroke: #000000; stroke-linejoin: miter"/>
   </g>
   <g id="patch_87">
    <path d="M 86.010738 121.468918 
L 94.113403 121.468918 
L 94.113403 113.366252 
L 86.010738 113.366252 
z
" clip-path="url(#pa15aeee909)" style="stroke: #000000; stroke-linejoin: miter"/>
   </g>
   <g id="patch_88">
    <path d="M 99.148337 121.576835 
L 107.466832 121.576835 
L 107.466832 113.25834 
L 99.148337 113.25834 
z
" clip-path="url(#pa15aeee909)" style="stroke: #000000; stroke-linejoin: miter"/>
   </g>
   <g id="patch_89">
    <path d="M 112.501381 121.469312 
L 120.604833 121.469312 
L 120.604833 113.365863 
L 112.501381 113.365863 
z
" clip-path="url(#pa15aeee909)" style="stroke: #000000; stroke-linejoin: miter"/>
   </g>
   <g id="patch_90">
    <path d="M 125.696604 121.5196 
L 133.900631 121.5196 
L 133.900631 113.315569 
L 125.696604 113.315569 
z
" clip-path="url(#pa15aeee909)" style="stroke: #000000; stroke-linejoin: miter"/>
   </g>
   <g id="patch_91">
    <path d="M 139.048823 121.412901 
L 147.039453 121.412901 
L 147.039453 113.422268 
L 139.048823 113.422268 
z
" clip-path="url(#pa15aeee909)" style="stroke: #000000; stroke-linejoin: miter"/>
   </g>
   <g id="patch_92">
    <path d="M 152.243326 121.463915 
L 160.335984 121.463915 
L 160.335984 113.37126 
L 152.243326 113.37126 
z
" clip-path="url(#pa15aeee909)" style="stroke: #000000; stroke-linejoin: miter"/>
   </g>
   <g id="patch_93">
    <path d="M 165.866689 121.08607 
L 173.203656 121.08607 
L 173.203656 113.749103 
L 165.866689 113.749103 
z
" clip-path="url(#pa15aeee909)" style="stroke: #000000; stroke-linejoin: miter"/>
   </g>
   <g id="patch_94">
    <path d="M 179.122792 121.075487 
L 186.4386 121.075487 
L 186.4386 113.759682 
L 179.122792 113.759682 
z
" clip-path="url(#pa15aeee909)" style="stroke: #000000; stroke-linejoin: miter"/>
   </g>
   <g id="patch_95">
    <path d="M 192.338561 121.105229 
L 199.713853 121.105229 
L 199.713853 113.72994 
L 192.338561 113.72994 
z
" clip-path="url(#pa15aeee909)" style="stroke: #000000; stroke-linejoin: miter"/>
   </g>
   <g id="patch_96">
    <path d="M 205.574996 121.114311 
L 212.968452 121.114311 
L 212.968452 113.720858 
L 205.574996 113.720858 
z
" clip-path="url(#pa15aeee909)" style="stroke: #000000; stroke-linejoin: miter"/>
   </g>
   <g id="patch_97">
    <path d="M 218.808311 121.126514 
L 226.226172 121.126514 
L 226.226172 113.708659 
L 218.808311 113.708659 
z
" clip-path="url(#pa15aeee909)" style="stroke: #000000; stroke-linejoin: miter"/>
   </g>
   <g id="patch_98">
    <path d="M 232.008252 121.17209 
L 239.517265 121.17209 
L 239.517265 113.66308 
L 232.008252 113.66308 
z
" clip-path="url(#pa15aeee909)" style="stroke: #000000; stroke-linejoin: miter"/>
   </g>
   <g id="patch_99">
    <path d="M 245.016883 121.408982 
L 252.999681 121.408982 
L 252.999681 113.426187 
L 245.016883 113.426187 
z
" clip-path="url(#pa15aeee909)" style="stroke: #000000; stroke-linejoin: miter"/>
   </g>
   <g id="patch_100">
    <path d="M 258.605672 121.065707 
L 265.901914 121.065707 
L 265.901914 113.769465 
L 258.605672 113.769465 
z
" clip-path="url(#pa15aeee909)" style="stroke: #000000; stroke-linejoin: miter"/>
   </g>
   <g id="patch_101">
    <path d="M 270.201109 122.715794 
L 280.797512 122.715794 
L 280.797512 112.119381 
L 270.201109 112.119381 
z
" clip-path="url(#pa15aeee909)" style="stroke: #000000; stroke-linejoin: miter"/>
   </g>
   <g id="patch_102">
    <path d="M 284.084032 122.078391 
L 293.405649 122.078391 
L 293.405649 112.756781 
L 284.084032 112.756781 
z
" clip-path="url(#pa15aeee909)" style="stroke: #000000; stroke-linejoin: miter"/>
   </g>
   <g id="patch_103">
    <path d="M 298.039084 121.368835 
L 305.941581 121.368835 
L 305.941581 113.466334 
L 298.039084 113.466334 
z
" clip-path="url(#pa15aeee909)" style="stroke: #000000; stroke-linejoin: miter"/>
   </g>
   <g id="patch_104">
    <path d="M 310.909989 121.743453 
L 319.56171 121.743453 
L 319.56171 113.091722 
L 310.909989 113.091722 
z
" clip-path="url(#pa15aeee909)" style="stroke: #000000; stroke-linejoin: miter"/>
   </g>
   <g id="patch_105">
    <path d="M 324.337709 121.561254 
L 332.62505 121.561254 
L 332.62505 113.273916 
L 324.337709 113.273916 
z
" clip-path="url(#pa15aeee909)" style="stroke: #000000; stroke-linejoin: miter"/>
   </g>
   <g id="patch_106">
    <path d="M 338.097117 121.047362 
L 345.356676 121.047362 
L 345.356676 113.78781 
L 338.097117 113.78781 
z
" clip-path="url(#pa15aeee909)" style="stroke: #000000; stroke-linejoin: miter"/>
   </g>
   <g id="patch_107">
    <path d="M 351.330281 121.059729 
L 358.614572 121.059729 
L 358.614572 113.775447 
L 351.330281 113.775447 
z
" clip-path="url(#pa15aeee909)" style="stroke: #000000; stroke-linejoin: miter"/>
   </g>
   <g id="patch_108">
    <path d="M 364.569179 121.066335 
L 371.866683 121.066335 
L 371.866683 113.768837 
L 364.569179 113.768837 
z
" clip-path="url(#pa15aeee909)" style="stroke: #000000; stroke-linejoin: miter"/>
   </g>
   <g id="patch_109">
    <path d="M 377.733372 121.147672 
L 385.19355 121.147672 
L 385.19355 113.687497 
L 377.733372 113.687497 
z
" clip-path="url(#pa15aeee909)" style="stroke: #000000; stroke-linejoin: miter"/>
   </g>
   <g id="patch_110">
    <path d="M 390.780846 121.345703 
L 398.637085 121.345703 
L 398.637085 113.48947 
L 390.780846 113.48947 
z
" clip-path="url(#pa15aeee909)" style="stroke: #000000; stroke-linejoin: miter"/>
   </g>
   <g id="patch_111">
    <path d="M 46.026198 108.47139 
L 54.624837 108.47139 
L 54.624837 99.872748 
L 46.026198 99.872748 
z
" clip-path="url(#pa15aeee909)" style="stroke: #000000; stroke-linejoin: miter"/>
   </g>
   <g id="patch_112">
    <path d="M 59.158628 108.584477 
L 67.983441 108.584477 
L 67.983441 99.759667 
L 59.158628 99.759667 
z
" clip-path="url(#pa15aeee909)" style="stroke: #000000; stroke-linejoin: miter"/>
   </g>
   <g id="patch_113">
    <path d="M 72.56065 108.427971 
L 81.072454 108.427971 
L 81.072454 99.91617 
L 72.56065 99.91617 
z
" clip-path="url(#pa15aeee909)" style="stroke: #000000; stroke-linejoin: miter"/>
   </g>
   <g id="patch_114">
    <path d="M 85.429976 108.804162 
L 94.694165 108.804162 
L 94.694165 99.539973 
L 85.429976 99.539973 
z
" clip-path="url(#pa15aeee909)" style="stroke: #000000; stroke-linejoin: miter"/>
   </g>
   <g id="patch_115">
    <path d="M 98.871389 108.608266 
L 107.743787 108.608266 
L 107.743787 99.735869 
L 98.871389 99.735869 
z
" clip-path="url(#pa15aeee909)" style="stroke: #000000; stroke-linejoin: miter"/>
   </g>
   <g id="patch_116">
    <path d="M 112.376318 108.348857 
L 120.729895 108.348857 
L 120.729895 99.995284 
L 112.376318 99.995284 
z
" clip-path="url(#pa15aeee909)" style="stroke: #000000; stroke-linejoin: miter"/>
   </g>
   <g id="patch_117">
    <path d="M 125.447389 108.523301 
L 134.149852 108.523301 
L 134.149852 99.820837 
L 125.447389 99.820837 
z
" clip-path="url(#pa15aeee909)" style="stroke: #000000; stroke-linejoin: miter"/>
   </g>
   <g id="patch_118">
    <path d="M 139.072969 108.143241 
L 147.015313 108.143241 
L 147.015313 100.2009 
L 139.072969 100.2009 
z
" clip-path="url(#pa15aeee909)" style="stroke: #000000; stroke-linejoin: miter"/>
   </g>
   <g id="patch_119">
    <path d="M 152.152831 108.308896 
L 160.426479 108.308896 
L 160.426479 100.035245 
L 152.152831 100.035245 
z
" clip-path="url(#pa15aeee909)" style="stroke: #000000; stroke-linejoin: miter"/>
   </g>
   <g id="patch_120">
    <path d="M 165.534836 108.172402 
L 173.535509 108.172402 
L 173.535509 100.171733 
L 165.534836 100.171733 
z
" clip-path="url(#pa15aeee909)" style="stroke: #000000; stroke-linejoin: miter"/>
   </g>
   <g id="patch_121">
    <path d="M 179.083128 107.869628 
L 186.478239 107.869628 
L 186.478239 100.474513 
L 179.083128 100.474513 
z
" clip-path="url(#pa15aeee909)" style="stroke: #000000; stroke-linejoin: miter"/>
   </g>
   <g id="patch_122">
    <path d="M 192.602252 107.596024 
L 199.450162 107.596024 
L 199.450162 100.748114 
L 192.602252 100.748114 
z
" clip-path="url(#pa15aeee909)" style="stroke: #000000; stroke-linejoin: miter"/>
   </g>
   <g id="patch_123">
    <path d="M 205.667398 107.776392 
L 212.876037 107.776392 
L 212.876037 100.567749 
L 205.667398 100.567749 
z
" clip-path="url(#pa15aeee909)" style="stroke: #000000; stroke-linejoin: miter"/>
   </g>
   <g id="patch_124">
    <path d="M 219.298694 107.390623 
L 225.735801 107.390623 
L 225.735801 100.953515 
L 219.298694 100.953515 
z
" clip-path="url(#pa15aeee909)" style="stroke: #000000; stroke-linejoin: miter"/>
   </g>
   <g id="patch_125">
    <path d="M 232.374956 107.559874 
L 239.150561 107.559874 
L 239.150561 100.784267 
L 232.374956 100.784267 
z
" clip-path="url(#pa15aeee909)" style="stroke: #000000; stroke-linejoin: miter"/>
   </g>
   <g id="patch_126">
    <path d="M 245.869777 107.310565 
L 252.146775 107.310565 
L 252.146775 101.03357 
L 245.869777 101.03357 
z
" clip-path="url(#pa15aeee909)" style="stroke: #000000; stroke-linejoin: miter"/>
   </g>
   <g id="patch_127">
    <path d="M 258.814895 107.610967 
L 265.692704 107.610967 
L 265.692704 100.733171 
L 258.814895 100.733171 
z
" clip-path="url(#pa15aeee909)" style="stroke: #000000; stroke-linejoin: miter"/>
   </g>
   <g id="patch_128">
    <path d="M 272.153774 107.517618 
L 278.844872 107.517618 
L 278.844872 100.82652 
L 272.153774 100.82652 
z
" clip-path="url(#pa15aeee909)" style="stroke: #000000; stroke-linejoin: miter"/>
   </g>
   <g id="patch_129">
    <path d="M 285.300737 107.616162 
L 292.188918 107.616162 
L 292.188918 100.727972 
L 285.300737 100.727972 
z
" clip-path="url(#pa15aeee909)" style="stroke: #000000; stroke-linejoin: miter"/>
   </g>
   <g id="patch_130">
    <path d="M 298.630712 107.531696 
L 305.349953 107.531696 
L 305.349953 100.812448 
L 298.630712 100.812448 
z
" clip-path="url(#pa15aeee909)" style="stroke: #000000; stroke-linejoin: miter"/>
   </g>
   <g id="patch_131">
    <path d="M 311.929914 107.478023 
L 318.54181 107.478023 
L 318.54181 100.866121 
L 311.929914 100.866121 
z
" clip-path="url(#pa15aeee909)" style="stroke: #000000; stroke-linejoin: miter"/>
   </g>
   <g id="patch_132">
    <path d="M 325.200443 107.452999 
L 331.762316 107.452999 
L 331.762316 100.891139 
L 325.200443 100.891139 
z
" clip-path="url(#pa15aeee909)" style="stroke: #000000; stroke-linejoin: miter"/>
   </g>
   <g id="patch_133">
    <path d="M 338.437345 107.461617 
L 345.016448 107.461617 
L 345.016448 100.882524 
L 338.437345 100.882524 
z
" clip-path="url(#pa15aeee909)" style="stroke: #000000; stroke-linejoin: miter"/>
   </g>
   <g id="patch_134">
    <path d="M 351.750544 107.393935 
L 358.194283 107.393935 
L 358.194283 100.950206 
L 351.750544 100.950206 
z
" clip-path="url(#pa15aeee909)" style="stroke: #000000; stroke-linejoin: miter"/>
   </g>
   <g id="patch_135">
    <path d="M 365.028854 107.361156 
L 371.407033 107.361156 
L 371.407033 100.982979 
L 365.028854 100.982979 
z
" clip-path="url(#pa15aeee909)" style="stroke: #000000; stroke-linejoin: miter"/>
   </g>
   <g id="patch_136">
    <path d="M 378.210504 107.425 
L 384.716367 107.425 
L 384.716367 100.919138 
L 378.210504 100.919138 
z
" clip-path="url(#pa15aeee909)" style="stroke: #000000; stroke-linejoin: miter"/>
   </g>
   <g id="patch_137">
    <path d="M 391.466582 107.414443 
L 397.951324 107.414443 
L 397.951324 100.929698 
L 391.466582 100.929698 
z
" clip-path="url(#pa15aeee909)" style="stroke: #000000; stroke-linejoin: miter"/>
   </g>
   <g id="patch_138">
    <path d="M 45.595736 95.65633 
L 55.055299 95.65633 
L 55.055299 86.196767 
L 45.595736 86.196767 
z
" clip-path="url(#pa15aeee909)" style="stroke: #000000; stroke-linejoin: miter"/>
   </g>
   <g id="patch_139">
    <path d="M 58.991563 95.506023 
L 68.150506 95.506023 
L 68.150506 86.34708 
L 58.991563 86.34708 
z
" clip-path="url(#pa15aeee909)" style="stroke: #000000; stroke-linejoin: miter"/>
   </g>
   <g id="patch_140">
    <path d="M 72.328188 95.414916 
L 81.304916 95.414916 
L 81.304916 86.438188 
L 72.328188 86.438188 
z
" clip-path="url(#pa15aeee909)" style="stroke: #000000; stroke-linejoin: miter"/>
   </g>
   <g id="patch_141">
    <path d="M 85.911931 95.07669 
L 94.212207 95.07669 
L 94.212207 86.776414 
L 85.911931 86.776414 
z
" clip-path="url(#pa15aeee909)" style="stroke: #000000; stroke-linejoin: miter"/>
   </g>
   <g id="patch_142">
    <path d="M 99.022337 95.211801 
L 107.592835 95.211801 
L 107.592835 86.641303 
L 99.022337 86.641303 
z
" clip-path="url(#pa15aeee909)" style="stroke: #000000; stroke-linejoin: miter"/>
   </g>
   <g id="patch_143">
    <path d="M 112.44592 95.033735 
L 120.660287 95.033735 
L 120.660287 86.819368 
L 112.44592 86.819368 
z
" clip-path="url(#pa15aeee909)" style="stroke: #000000; stroke-linejoin: miter"/>
   </g>
   <g id="patch_144">
    <path d="M 125.942894 94.782278 
L 133.654347 94.782278 
L 133.654347 87.070826 
L 125.942894 87.070826 
z
" clip-path="url(#pa15aeee909)" style="stroke: #000000; stroke-linejoin: miter"/>
   </g>
   <g id="patch_145">
    <path d="M 138.787203 95.183486 
L 147.301066 95.183486 
L 147.301066 86.669623 
L 138.787203 86.669623 
z
" clip-path="url(#pa15aeee909)" style="stroke: #000000; stroke-linejoin: miter"/>
   </g>
   <g id="patch_146">
    <path d="M 151.989557 95.22665 
L 160.589747 95.22665 
L 160.589747 86.626454 
L 151.989557 86.626454 
z
" clip-path="url(#pa15aeee909)" style="stroke: #000000; stroke-linejoin: miter"/>
   </g>
   <g id="patch_147">
    <path d="M 165.550474 94.91125 
L 173.51987 94.91125 
L 173.51987 86.94186 
L 165.550474 86.94186 
z
" clip-path="url(#pa15aeee909)" style="stroke: #000000; stroke-linejoin: miter"/>
   </g>
   <g id="patch_148">
    <path d="M 179.369013 94.338235 
L 186.192379 94.338235 
L 186.192379 87.514869 
L 179.369013 87.514869 
z
" clip-path="url(#pa15aeee909)" style="stroke: #000000; stroke-linejoin: miter"/>
   </g>
   <g id="patch_149">
    <path d="M 192.338056 94.614703 
L 199.714371 94.614703 
L 199.714371 87.238394 
L 192.338056 87.238394 
z
" clip-path="url(#pa15aeee909)" style="stroke: #000000; stroke-linejoin: miter"/>
   </g>
   <g id="patch_150">
    <path d="M 205.792303 94.405973 
L 212.751133 94.405973 
L 212.751133 87.447136 
L 205.792303 87.447136 
z
" clip-path="url(#pa15aeee909)" style="stroke: #000000; stroke-linejoin: miter"/>
   </g>
   <g id="patch_151">
    <path d="M 219.119839 94.323961 
L 225.914657 94.323961 
L 225.914657 87.529149 
L 219.119839 87.529149 
z
" clip-path="url(#pa15aeee909)" style="stroke: #000000; stroke-linejoin: miter"/>
   </g>
   <g id="patch_152">
    <path d="M 232.45167 94.237634 
L 239.073835 94.237634 
L 239.073835 87.615469 
L 232.45167 87.615469 
z
" clip-path="url(#pa15aeee909)" style="stroke: #000000; stroke-linejoin: miter"/>
   </g>
   <g id="patch_153">
    <path d="M 245.804243 94.130585 
L 252.212309 94.130585 
L 252.212309 87.722512 
L 245.804243 87.722512 
z
" clip-path="url(#pa15aeee909)" style="stroke: #000000; stroke-linejoin: miter"/>
   </g>
   <g id="patch_154">
    <path d="M 259.083272 94.097073 
L 265.424301 94.097073 
L 265.424301 87.756031 
L 259.083272 87.756031 
z
" clip-path="url(#pa15aeee909)" style="stroke: #000000; stroke-linejoin: miter"/>
   </g>
   <g id="patch_155">
    <path d="M 272.114742 94.311133 
L 278.883904 94.311133 
L 278.883904 87.54197 
L 272.114742 87.54197 
z
" clip-path="url(#pa15aeee909)" style="stroke: #000000; stroke-linejoin: miter"/>
   </g>
   <g id="patch_156">
    <path d="M 285.08746 94.583925 
L 292.402195 94.583925 
L 292.402195 87.269184 
L 285.08746 87.269184 
z
" clip-path="url(#pa15aeee909)" style="stroke: #000000; stroke-linejoin: miter"/>
   </g>
   <g id="patch_157">
    <path d="M 298.778075 94.138827 
L 305.202614 94.138827 
L 305.202614 87.714282 
L 298.778075 87.714282 
z
" clip-path="url(#pa15aeee909)" style="stroke: #000000; stroke-linejoin: miter"/>
   </g>
   <g id="patch_158">
    <path d="M 312.064899 94.097508 
L 318.406825 94.097508 
L 318.406825 87.755595 
L 312.064899 87.755595 
z
" clip-path="url(#pa15aeee909)" style="stroke: #000000; stroke-linejoin: miter"/>
   </g>
   <g id="patch_159">
    <path d="M 324.898136 94.509789 
L 332.064597 94.509789 
L 332.064597 87.343321 
L 324.898136 87.343321 
z
" clip-path="url(#pa15aeee909)" style="stroke: #000000; stroke-linejoin: miter"/>
   </g>
   <g id="patch_160">
    <path d="M 338.537087 94.116355 
L 344.916706 94.116355 
L 344.916706 87.736748 
L 338.537087 87.736748 
z
" clip-path="url(#pa15aeee909)" style="stroke: #000000; stroke-linejoin: miter"/>
   </g>
   <g id="patch_161">
    <path d="M 351.820601 94.078371 
L 358.124227 94.078371 
L 358.124227 87.774739 
L 351.820601 87.774739 
z
" clip-path="url(#pa15aeee909)" style="stroke: #000000; stroke-linejoin: miter"/>
   </g>
   <g id="patch_162">
    <path d="M 365.040223 94.104254 
L 371.395639 94.104254 
L 371.395639 87.748843 
L 365.040223 87.748843 
z
" clip-path="url(#pa15aeee909)" style="stroke: #000000; stroke-linejoin: miter"/>
   </g>
   <g id="patch_163">
    <path d="M 378.140978 94.249016 
L 384.785893 94.249016 
L 384.785893 87.604094 
L 378.140978 87.604094 
z
" clip-path="url(#pa15aeee909)" style="stroke: #000000; stroke-linejoin: miter"/>
   </g>
   <g id="patch_164">
    <path d="M 391.525421 94.110096 
L 397.89251 94.110096 
L 397.89251 87.743014 
L 391.525421 87.743014 
z
" clip-path="url(#pa15aeee909)" style="stroke: #000000; stroke-linejoin: miter"/>
   </g>
   <g id="patch_165">
    <path d="M 45.990111 82.016438 
L 54.660924 82.016438 
L 54.660924 73.345624 
L 45.990111 73.345624 
z
" clip-path="url(#pa15aeee909)" style="stroke: #000000; stroke-linejoin: miter"/>
   </g>
   <g id="patch_166">
    <path d="M 59.127343 82.124726 
L 68.014726 82.124726 
L 68.014726 73.237343 
L 59.127343 73.237343 
z
" clip-path="url(#pa15aeee909)" style="stroke: #000000; stroke-linejoin: miter"/>
   </g>
   <g id="patch_167">
    <path d="M 72.640899 81.856689 
L 80.992206 81.856689 
L 80.992206 73.50538 
L 72.640899 73.50538 
z
" clip-path="url(#pa15aeee909)" style="stroke: #000000; stroke-linejoin: miter"/>
   </g>
   <g id="patch_168">
    <path d="M 86.214885 81.528222 
L 93.909256 81.528222 
L 93.909256 73.833854 
L 86.214885 73.833854 
z
" clip-path="url(#pa15aeee909)" style="stroke: #000000; stroke-linejoin: miter"/>
   </g>
   <g id="patch_169">
    <path d="M 99.216938 81.771683 
L 107.398234 81.771683 
L 107.398234 73.590386 
L 99.216938 73.590386 
z
" clip-path="url(#pa15aeee909)" style="stroke: #000000; stroke-linejoin: miter"/>
   </g>
   <g id="patch_170">
    <path d="M 112.673004 81.561134 
L 120.433197 81.561134 
L 120.433197 73.800941 
L 112.673004 73.800941 
z
" clip-path="url(#pa15aeee909)" style="stroke: #000000; stroke-linejoin: miter"/>
   </g>
   <g id="patch_171">
    <path d="M 126.048131 81.431524 
L 133.54911 81.431524 
L 133.54911 73.930545 
L 126.048131 73.930545 
z
" clip-path="url(#pa15aeee909)" style="stroke: #000000; stroke-linejoin: miter"/>
   </g>
   <g id="patch_172">
    <path d="M 139.416203 81.308969 
L 146.672079 81.308969 
L 146.672079 74.053093 
L 139.416203 74.053093 
z
" clip-path="url(#pa15aeee909)" style="stroke: #000000; stroke-linejoin: miter"/>
   </g>
   <g id="patch_173">
    <path d="M 152.723756 81.246934 
L 159.855555 81.246934 
L 159.855555 74.115135 
L 152.723756 74.115135 
z
" clip-path="url(#pa15aeee909)" style="stroke: #000000; stroke-linejoin: miter"/>
   </g>
   <g id="patch_174">
    <path d="M 166.388071 80.828129 
L 172.682261 80.828129 
L 172.682261 74.533933 
L 166.388071 74.533933 
z
" clip-path="url(#pa15aeee909)" style="stroke: #000000; stroke-linejoin: miter"/>
   </g>
   <g id="patch_175">
    <path d="M 179.538723 80.923008 
L 186.022669 80.923008 
L 186.022669 74.439061 
L 179.538723 74.439061 
z
" clip-path="url(#pa15aeee909)" style="stroke: #000000; stroke-linejoin: miter"/>
   </g>
   <g id="patch_176">
    <path d="M 192.84265 80.864585 
L 199.209751 80.864585 
L 199.209751 74.497477 
L 192.84265 74.497477 
z
" clip-path="url(#pa15aeee909)" style="stroke: #000000; stroke-linejoin: miter"/>
   </g>
   <g id="patch_177">
    <path d="M 206.559401 80.393358 
L 211.984048 80.393358 
L 211.984048 74.968705 
L 206.559401 74.968705 
z
" clip-path="url(#pa15aeee909)" style="stroke: #000000; stroke-linejoin: miter"/>
   </g>
   <g id="patch_178">
    <path d="M 219.802518 80.395764 
L 225.231978 80.395764 
L 225.231978 74.966304 
L 219.802518 74.966304 
z
" clip-path="url(#pa15aeee909)" style="stroke: #000000; stroke-linejoin: miter"/>
   </g>
   <g id="patch_179">
    <path d="M 233.060781 80.383006 
L 238.464724 80.383006 
L 238.464724 74.979056 
L 233.060781 74.979056 
z
" clip-path="url(#pa15aeee909)" style="stroke: #000000; stroke-linejoin: miter"/>
   </g>
   <g id="patch_180">
    <path d="M 246.320698 80.368606 
L 251.695841 80.368606 
L 251.695841 74.993463 
L 246.320698 74.993463 
z
" clip-path="url(#pa15aeee909)" style="stroke: #000000; stroke-linejoin: miter"/>
   </g>
   <g id="patch_181">
    <path d="M 259.398653 80.536174 
L 265.108933 80.536174 
L 265.108933 74.825894 
L 259.398653 74.825894 
z
" clip-path="url(#pa15aeee909)" style="stroke: #000000; stroke-linejoin: miter"/>
   </g>
   <g id="patch_182">
    <path d="M 272.342343 80.837989 
L 278.656252 80.837989 
L 278.656252 74.524074 
L 272.342343 74.524074 
z
" clip-path="url(#pa15aeee909)" style="stroke: #000000; stroke-linejoin: miter"/>
   </g>
   <g id="patch_183">
    <path d="M 285.452674 80.973182 
L 292.036956 80.973182 
L 292.036956 74.388894 
L 285.452674 74.388894 
z
" clip-path="url(#pa15aeee909)" style="stroke: #000000; stroke-linejoin: miter"/>
   </g>
   <g id="patch_184">
    <path d="M 299.168174 80.503218 
L 304.812541 80.503218 
L 304.812541 74.858851 
L 299.168174 74.858851 
z
" clip-path="url(#pa15aeee909)" style="stroke: #000000; stroke-linejoin: miter"/>
   </g>
   <g id="patch_185">
    <path d="M 312.416117 80.500774 
L 318.055582 80.500774 
L 318.055582 74.861302 
L 312.416117 74.861302 
z
" clip-path="url(#pa15aeee909)" style="stroke: #000000; stroke-linejoin: miter"/>
   </g>
   <g id="patch_186">
    <path d="M 324.988505 81.173915 
L 331.974254 81.173915 
L 331.974254 74.18816 
L 324.988505 74.18816 
z
" clip-path="url(#pa15aeee909)" style="stroke: #000000; stroke-linejoin: miter"/>
   </g>
   <g id="patch_187">
    <path d="M 339.07172 80.336199 
L 344.382048 80.336199 
L 344.382048 75.025864 
L 339.07172 75.025864 
z
" clip-path="url(#pa15aeee909)" style="stroke: #000000; stroke-linejoin: miter"/>
   </g>
   <g id="patch_188">
    <path d="M 352.202463 80.450991 
L 357.742364 80.450991 
L 357.742364 74.911078 
L 352.202463 74.911078 
z
" clip-path="url(#pa15aeee909)" style="stroke: #000000; stroke-linejoin: miter"/>
   </g>
   <g id="patch_189">
    <path d="M 365.471956 80.427003 
L 370.963881 80.427003 
L 370.963881 74.935066 
L 365.471956 74.935066 
z
" clip-path="url(#pa15aeee909)" style="stroke: #000000; stroke-linejoin: miter"/>
   </g>
   <g id="patch_190">
    <path d="M 378.582817 80.561678 
L 384.344105 80.561678 
L 384.344105 74.800397 
L 378.582817 74.800397 
z
" clip-path="url(#pa15aeee909)" style="stroke: #000000; stroke-linejoin: miter"/>
   </g>
   <g id="patch_191">
    <path d="M 391.988886 80.401101 
L 397.42902 80.401101 
L 397.42902 74.960961 
L 391.988886 74.960961 
z
" clip-path="url(#pa15aeee909)" style="stroke: #000000; stroke-linejoin: miter"/>
   </g>
   <g id="patch_192">
    <path d="M 45.525294 69.235738 
L 55.12574 69.235738 
L 55.12574 59.635291 
L 45.525294 59.635291 
z
" clip-path="url(#pa15aeee909)" style="stroke: #000000; stroke-linejoin: miter"/>
   </g>
   <g id="patch_193">
    <path d="M 59.211894 68.794657 
L 67.930174 68.794657 
L 67.930174 60.076378 
L 59.211894 60.076378 
z
" clip-path="url(#pa15aeee909)" style="stroke: #000000; stroke-linejoin: miter"/>
   </g>
   <g id="patch_194">
    <path d="M 72.424735 68.827335 
L 81.20837 68.827335 
L 81.20837 60.043705 
L 72.424735 60.043705 
z
" clip-path="url(#pa15aeee909)" style="stroke: #000000; stroke-linejoin: miter"/>
   </g>
   <g id="patch_195">
    <path d="M 85.555616 68.94197 
L 94.568525 68.94197 
L 94.568525 59.929065 
L 85.555616 59.929065 
z
" clip-path="url(#pa15aeee909)" style="stroke: #000000; stroke-linejoin: miter"/>
   </g>
   <g id="patch_196">
    <path d="M 99.080286 68.662817 
L 107.534886 68.662817 
L 107.534886 60.208217 
L 99.080286 60.208217 
z
" clip-path="url(#pa15aeee909)" style="stroke: #000000; stroke-linejoin: miter"/>
   </g>
   <g id="patch_197">
    <path d="M 112.579831 68.40879 
L 120.526382 68.40879 
L 120.526382 60.462238 
L 112.579831 60.462238 
z
" clip-path="url(#pa15aeee909)" style="stroke: #000000; stroke-linejoin: miter"/>
   </g>
   <g id="patch_198">
    <path d="M 125.711592 68.522546 
L 133.885656 68.522546 
L 133.885656 60.348482 
L 125.711592 60.348482 
z
" clip-path="url(#pa15aeee909)" style="stroke: #000000; stroke-linejoin: miter"/>
   </g>
   <g id="patch_199">
    <path d="M 139.450227 68.029428 
L 146.638049 68.029428 
L 146.638049 60.841606 
L 139.450227 60.841606 
z
" clip-path="url(#pa15aeee909)" style="stroke: #000000; stroke-linejoin: miter"/>
   </g>
   <g id="patch_200">
    <path d="M 152.77326 67.951912 
L 159.80605 67.951912 
L 159.80605 60.919122 
L 152.77326 60.919122 
z
" clip-path="url(#pa15aeee909)" style="stroke: #000000; stroke-linejoin: miter"/>
   </g>
   <g id="patch_201">
    <path d="M 166.160469 67.810214 
L 172.909863 67.810214 
L 172.909863 61.060814 
L 166.160469 61.060814 
z
" clip-path="url(#pa15aeee909)" style="stroke: #000000; stroke-linejoin: miter"/>
   </g>
   <g id="patch_202">
    <path d="M 179.534819 67.681381 
L 186.026547 67.681381 
L 186.026547 61.189647 
L 179.534819 61.189647 
z
" clip-path="url(#pa15aeee909)" style="stroke: #000000; stroke-linejoin: miter"/>
   </g>
   <g id="patch_203">
    <path d="M 192.935924 67.5258 
L 199.11649 67.5258 
L 199.11649 61.345241 
L 192.935924 61.345241 
z
" clip-path="url(#pa15aeee909)" style="stroke: #000000; stroke-linejoin: miter"/>
   </g>
   <g id="patch_204">
    <path d="M 206.421953 67.285289 
L 212.121496 67.285289 
L 212.121496 61.585746 
L 206.421953 61.585746 
z
" clip-path="url(#pa15aeee909)" style="stroke: #000000; stroke-linejoin: miter"/>
   </g>
   <g id="patch_205">
    <path d="M 219.864578 67.08818 
L 225.169904 67.08818 
L 225.169904 61.782854 
L 219.864578 61.782854 
z
" clip-path="url(#pa15aeee909)" style="stroke: #000000; stroke-linejoin: miter"/>
   </g>
   <g id="patch_206">
    <path d="M 232.864076 67.334206 
L 238.661453 67.334206 
L 238.661453 61.536829 
L 232.864076 61.536829 
z
" clip-path="url(#pa15aeee909)" style="stroke: #000000; stroke-linejoin: miter"/>
   </g>
   <g id="patch_207">
    <path d="M 246.336589 67.107204 
L 251.679963 67.107204 
L 251.679963 61.76383 
L 246.336589 61.76383 
z
" clip-path="url(#pa15aeee909)" style="stroke: #000000; stroke-linejoin: miter"/>
   </g>
   <g id="patch_208">
    <path d="M 259.455408 67.233896 
L 265.052165 67.233896 
L 265.052165 61.637139 
L 259.455408 61.637139 
z
" clip-path="url(#pa15aeee909)" style="stroke: #000000; stroke-linejoin: miter"/>
   </g>
   <g id="patch_209">
    <path d="M 272.066084 67.868744 
L 278.932537 67.868744 
L 278.932537 61.002291 
L 272.066084 61.002291 
z
" clip-path="url(#pa15aeee909)" style="stroke: #000000; stroke-linejoin: miter"/>
   </g>
   <g id="patch_210">
    <path d="M 285.453078 67.727267 
L 292.036577 67.727267 
L 292.036577 61.143774 
L 285.453078 61.143774 
z
" clip-path="url(#pa15aeee909)" style="stroke: #000000; stroke-linejoin: miter"/>
   </g>
   <g id="patch_211">
    <path d="M 299.239014 67.186855 
L 304.741701 67.186855 
L 304.741701 61.68418 
L 299.239014 61.68418 
z
" clip-path="url(#pa15aeee909)" style="stroke: #000000; stroke-linejoin: miter"/>
   </g>
   <g id="patch_212">
    <path d="M 312.286918 67.384474 
L 318.184832 67.384474 
L 318.184832 61.48656 
L 312.286918 61.48656 
z
" clip-path="url(#pa15aeee909)" style="stroke: #000000; stroke-linejoin: miter"/>
   </g>
   <g id="patch_213">
    <path d="M 325.449999 67.466904 
L 331.512785 67.466904 
L 331.512785 61.404131 
L 325.449999 61.404131 
z
" clip-path="url(#pa15aeee909)" style="stroke: #000000; stroke-linejoin: miter"/>
   </g>
   <g id="patch_214">
    <path d="M 339.073867 67.088553 
L 344.379951 67.088553 
L 344.379951 61.782481 
L 339.073867 61.782481 
z
" clip-path="url(#pa15aeee909)" style="stroke: #000000; stroke-linejoin: miter"/>
   </g>
   <g id="patch_215">
    <path d="M 352.300613 67.107324 
L 357.644214 67.107324 
L 357.644214 61.763717 
L 352.300613 61.763717 
z
" clip-path="url(#pa15aeee909)" style="stroke: #000000; stroke-linejoin: miter"/>
   </g>
   <g id="patch_216">
    <path d="M 365.485674 67.167768 
L 370.950163 67.167768 
L 370.950163 61.703273 
L 365.485674 61.703273 
z
" clip-path="url(#pa15aeee909)" style="stroke: #000000; stroke-linejoin: miter"/>
   </g>
   <g id="patch_217">
    <path d="M 378.550252 67.348713 
L 384.376645 67.348713 
L 384.376645 61.522321 
L 378.550252 61.522321 
z
" clip-path="url(#pa15aeee909)" style="stroke: #000000; stroke-linejoin: miter"/>
   </g>
   <g id="patch_218">
    <path d="M 391.964456 67.180021 
L 397.45345 67.180021 
L 397.45345 61.691014 
L 391.964456 61.691014 
z
" clip-path="url(#pa15aeee909)" style="stroke: #000000; stroke-linejoin: miter"/>
   </g>
   <g id="patch_219">
    <path d="M 45.8383 55.677221 
L 54.812735 55.677221 
L 54.812735 46.702792 
L 45.8383 46.702792 
z
" clip-path="url(#pa15aeee909)" style="stroke: #000000; stroke-linejoin: miter"/>
   </g>
   <g id="patch_220">
    <path d="M 59.254697 55.506336 
L 67.887371 55.506336 
L 67.887371 46.873664 
L 59.254697 46.873664 
z
" clip-path="url(#pa15aeee909)" style="stroke: #000000; stroke-linejoin: miter"/>
   </g>
   <g id="patch_221">
    <path d="M 72.433484 55.573064 
L 81.199619 55.573064 
L 81.199619 46.806929 
L 72.433484 46.806929 
z
" clip-path="url(#pa15aeee909)" style="stroke: #000000; stroke-linejoin: miter"/>
   </g>
   <g id="patch_222">
    <path d="M 85.765982 55.486087 
L 94.358153 55.486087 
L 94.358153 46.893913 
L 85.765982 46.893913 
z
" clip-path="url(#pa15aeee909)" style="stroke: #000000; stroke-linejoin: miter"/>
   </g>
   <g id="patch_223">
    <path d="M 98.926306 55.571283 
L 107.688869 55.571283 
L 107.688869 46.808723 
L 98.926306 46.808723 
z
" clip-path="url(#pa15aeee909)" style="stroke: #000000; stroke-linejoin: miter"/>
   </g>
   <g id="patch_224">
    <path d="M 112.132573 55.61053 
L 120.973628 55.61053 
L 120.973628 46.769476 
L 112.132573 46.769476 
z
" clip-path="url(#pa15aeee909)" style="stroke: #000000; stroke-linejoin: miter"/>
   </g>
   <g id="patch_225">
    <path d="M 125.643051 55.34557 
L 133.954191 55.34557 
L 133.954191 47.03443 
L 125.643051 47.03443 
z
" clip-path="url(#pa15aeee909)" style="stroke: #000000; stroke-linejoin: miter"/>
   </g>
   <g id="patch_226">
    <path d="M 138.681897 55.552241 
L 147.406372 55.552241 
L 147.406372 46.827759 
L 138.681897 46.827759 
z
" clip-path="url(#pa15aeee909)" style="stroke: #000000; stroke-linejoin: miter"/>
   </g>
   <g id="patch_227">
    <path d="M 152.134193 55.345462 
L 160.445124 55.345462 
L 160.445124 47.034531 
L 152.134193 47.034531 
z
" clip-path="url(#pa15aeee909)" style="stroke: #000000; stroke-linejoin: miter"/>
   </g>
   <g id="patch_228">
    <path d="M 165.561793 55.16338 
L 173.508552 55.16338 
L 173.508552 47.21662 
L 165.561793 47.21662 
z
" clip-path="url(#pa15aeee909)" style="stroke: #000000; stroke-linejoin: miter"/>
   </g>
   <g id="patch_229">
    <path d="M 178.82886 55.14183 
L 186.732519 55.14183 
L 186.732519 47.23817 
L 178.82886 47.23817 
z
" clip-path="url(#pa15aeee909)" style="stroke: #000000; stroke-linejoin: miter"/>
   </g>
   <g id="patch_230">
    <path d="M 192.14077 55.075436 
L 199.911643 55.075436 
L 199.911643 47.304564 
L 192.14077 47.304564 
z
" clip-path="url(#pa15aeee909)" style="stroke: #000000; stroke-linejoin: miter"/>
   </g>
   <g id="patch_231">
    <path d="M 205.480648 54.981082 
L 213.062813 54.981082 
L 213.062813 47.398924 
L 205.480648 47.398924 
z
" clip-path="url(#pa15aeee909)" style="stroke: #000000; stroke-linejoin: miter"/>
   </g>
   <g id="patch_232">
    <path d="M 218.584587 55.122661 
L 226.449909 55.122661 
L 226.449909 47.257345 
L 218.584587 47.257345 
z
" clip-path="url(#pa15aeee909)" style="stroke: #000000; stroke-linejoin: miter"/>
   </g>
   <g id="patch_233">
    <path d="M 231.856618 55.09614 
L 239.668899 55.09614 
L 239.668899 47.28386 
L 231.856618 47.28386 
z
" clip-path="url(#pa15aeee909)" style="stroke: #000000; stroke-linejoin: miter"/>
   </g>
   <g id="patch_234">
    <path d="M 245.09294 55.105336 
L 252.923612 55.105336 
L 252.923612 47.274664 
L 245.09294 47.274664 
z
" clip-path="url(#pa15aeee909)" style="stroke: #000000; stroke-linejoin: miter"/>
   </g>
   <g id="patch_235">
    <path d="M 258.178916 55.264877 
L 266.32867 55.264877 
L 266.32867 47.115123 
L 258.178916 47.115123 
z
" clip-path="url(#pa15aeee909)" style="stroke: #000000; stroke-linejoin: miter"/>
   </g>
   <g id="patch_236">
    <path d="M 270.609549 56.079749 
L 280.389047 56.079749 
L 280.389047 46.300251 
L 270.609549 46.300251 
z
" clip-path="url(#pa15aeee909)" style="stroke: #000000; stroke-linejoin: miter"/>
   </g>
   <g id="patch_237">
    <path d="M 283.978227 55.956613 
L 293.511453 55.956613 
L 293.511453 46.423387 
L 283.978227 46.423387 
z
" clip-path="url(#pa15aeee909)" style="stroke: #000000; stroke-linejoin: miter"/>
   </g>
   <g id="patch_238">
    <path d="M 298.080895 55.099456 
L 305.899795 55.099456 
L 305.899795 47.28055 
L 298.080895 47.28055 
z
" clip-path="url(#pa15aeee909)" style="stroke: #000000; stroke-linejoin: miter"/>
   </g>
   <g id="patch_239">
    <path d="M 311.388258 55.037598 
L 319.083466 55.037598 
L 319.083466 47.342396 
L 311.388258 47.342396 
z
" clip-path="url(#pa15aeee909)" style="stroke: #000000; stroke-linejoin: miter"/>
   </g>
   <g id="patch_240">
    <path d="M 324.611291 55.060089 
L 332.351468 55.060089 
L 332.351468 47.319911 
L 324.611291 47.319911 
z
" clip-path="url(#pa15aeee909)" style="stroke: #000000; stroke-linejoin: miter"/>
   </g>
   <g id="patch_241">
    <path d="M 337.851149 55.06576 
L 345.60267 55.06576 
L 345.60267 47.31424 
L 337.851149 47.31424 
z
" clip-path="url(#pa15aeee909)" style="stroke: #000000; stroke-linejoin: miter"/>
   </g>
   <g id="patch_242">
    <path d="M 351.116801 55.045619 
L 358.828026 55.045619 
L 358.828026 47.334387 
L 351.116801 47.334387 
z
" clip-path="url(#pa15aeee909)" style="stroke: #000000; stroke-linejoin: miter"/>
   </g>
   <g id="patch_243">
    <path d="M 364.197497 55.210446 
L 372.23839 55.210446 
L 372.23839 47.169554 
L 364.197497 47.169554 
z
" clip-path="url(#pa15aeee909)" style="stroke: #000000; stroke-linejoin: miter"/>
   </g>
   <g id="patch_244">
    <path d="M 377.612004 55.041438 
L 385.314892 55.041438 
L 385.314892 47.338556 
L 377.612004 47.338556 
z
" clip-path="url(#pa15aeee909)" style="stroke: #000000; stroke-linejoin: miter"/>
   </g>
   <g id="patch_245">
    <path d="M 390.88415 55.014803 
L 398.533756 55.014803 
L 398.533756 47.365184 
L 390.88415 47.365184 
z
" clip-path="url(#pa15aeee909)" style="stroke: #000000; stroke-linejoin: miter"/>
   </g>
   <g id="matplotlib.axis_1">
    <g id="xtick_1">
     <g id="line2d_1">
      <defs>
       <path id="m1d3f9ce5dc" d="M 0 0 
L 0 3.5 
" style="stroke: #000000; stroke-width: 0.8"/>
      </defs>
      <g>
       <use xlink:href="#m1d3f9ce5dc" x="50.325517" y="170.399655" style="stroke: #000000; stroke-width: 0.8"/>
      </g>
     </g>
     <g id="text_1">
      <!-- 1 -->
      <g transform="translate(47.144267 191.498093) scale(0.1 -0.1)">
       <defs>
        <path id="DejaVuSans-31" d="M 794 531 
L 1825 531 
L 1825 4091 
L 703 3866 
L 703 4441 
L 1819 4666 
L 2450 4666 
L 2450 531 
L 3481 531 
L 3481 0 
L 794 0 
L 794 531 
z
" transform="scale(0.015625)"/>
       </defs>
       <use xlink:href="#DejaVuSans-31"/>
      </g>
     </g>
    </g>
    <g id="xtick_2">
     <g id="line2d_2">
      <g>
       <use xlink:href="#m1d3f9ce5dc" x="394.708966" y="170.399655" style="stroke: #000000; stroke-width: 0.8"/>
      </g>
     </g>
     <g id="text_2">
      <!-- 50 -->
      <g transform="translate(388.346466 191.498093) scale(0.1 -0.1)">
       <defs>
        <path id="DejaVuSans-35" d="M 691 4666 
L 3169 4666 
L 3169 4134 
L 1269 4134 
L 1269 2991 
Q 1406 3038 1543 3061 
Q 1681 3084 1819 3084 
Q 2600 3084 3056 2656 
Q 3513 2228 3513 1497 
Q 3513 744 3044 326 
Q 2575 -91 1722 -91 
Q 1428 -91 1123 -41 
Q 819 9 494 109 
L 494 744 
Q 775 591 1075 516 
Q 1375 441 1709 441 
Q 2250 441 2565 725 
Q 2881 1009 2881 1497 
Q 2881 1984 2565 2268 
Q 2250 2553 1709 2553 
Q 1456 2553 1204 2497 
Q 953 2441 691 2322 
L 691 4666 
z
" transform="scale(0.015625)"/>
        <path id="DejaVuSans-30" d="M 2034 4250 
Q 1547 4250 1301 3770 
Q 1056 3291 1056 2328 
Q 1056 1369 1301 889 
Q 1547 409 2034 409 
Q 2525 409 2770 889 
Q 3016 1369 3016 2328 
Q 3016 3291 2770 3770 
Q 2525 4250 2034 4250 
z
M 2034 4750 
Q 2819 4750 3233 4129 
Q 3647 3509 3647 2328 
Q 3647 1150 3233 529 
Q 2819 -91 2034 -91 
Q 1250 -91 836 529 
Q 422 1150 422 2328 
Q 422 3509 836 4129 
Q 1250 4750 2034 4750 
z
" transform="scale(0.015625)"/>
       </defs>
       <use xlink:href="#DejaVuSans-35"/>
       <use xlink:href="#DejaVuSans-30" x="63.623047"/>
      </g>
     </g>
    </g>
    <g id="text_3">
     <!-- Epoch -->
     <g transform="translate(213.829062 205.176218) scale(0.1 -0.1)">
      <defs>
       <path id="DejaVuSans-45" d="M 628 4666 
L 3578 4666 
L 3578 4134 
L 1259 4134 
L 1259 2753 
L 3481 2753 
L 3481 2222 
L 1259 2222 
L 1259 531 
L 3634 531 
L 3634 0 
L 628 0 
L 628 4666 
z
" transform="scale(0.015625)"/>
       <path id="DejaVuSans-70" d="M 1159 525 
L 1159 -1331 
L 581 -1331 
L 581 3500 
L 1159 3500 
L 1159 2969 
Q 1341 3281 1617 3432 
Q 1894 3584 2278 3584 
Q 2916 3584 3314 3078 
Q 3713 2572 3713 1747 
Q 3713 922 3314 415 
Q 2916 -91 2278 -91 
Q 1894 -91 1617 61 
Q 1341 213 1159 525 
z
M 3116 1747 
Q 3116 2381 2855 2742 
Q 2594 3103 2138 3103 
Q 1681 3103 1420 2742 
Q 1159 2381 1159 1747 
Q 1159 1113 1420 752 
Q 1681 391 2138 391 
Q 2594 391 2855 752 
Q 3116 1113 3116 1747 
z
" transform="scale(0.015625)"/>
       <path id="DejaVuSans-6f" d="M 1959 3097 
Q 1497 3097 1228 2736 
Q 959 2375 959 1747 
Q 959 1119 1226 758 
Q 1494 397 1959 397 
Q 2419 397 2687 759 
Q 2956 1122 2956 1747 
Q 2956 2369 2687 2733 
Q 2419 3097 1959 3097 
z
M 1959 3584 
Q 2709 3584 3137 3096 
Q 3566 2609 3566 1747 
Q 3566 888 3137 398 
Q 2709 -91 1959 -91 
Q 1206 -91 779 398 
Q 353 888 353 1747 
Q 353 2609 779 3096 
Q 1206 3584 1959 3584 
z
" transform="scale(0.015625)"/>
       <path id="DejaVuSans-63" d="M 3122 3366 
L 3122 2828 
Q 2878 2963 2633 3030 
Q 2388 3097 2138 3097 
Q 1578 3097 1268 2742 
Q 959 2388 959 1747 
Q 959 1106 1268 751 
Q 1578 397 2138 397 
Q 2388 397 2633 464 
Q 2878 531 3122 666 
L 3122 134 
Q 2881 22 2623 -34 
Q 2366 -91 2075 -91 
Q 1284 -91 818 406 
Q 353 903 353 1747 
Q 353 2603 823 3093 
Q 1294 3584 2113 3584 
Q 2378 3584 2631 3529 
Q 2884 3475 3122 3366 
z
" transform="scale(0.015625)"/>
       <path id="DejaVuSans-68" d="M 3513 2113 
L 3513 0 
L 2938 0 
L 2938 2094 
Q 2938 2591 2744 2837 
Q 2550 3084 2163 3084 
Q 1697 3084 1428 2787 
Q 1159 2491 1159 1978 
L 1159 0 
L 581 0 
L 581 4863 
L 1159 4863 
L 1159 2956 
Q 1366 3272 1645 3428 
Q 1925 3584 2291 3584 
Q 2894 3584 3203 3211 
Q 3513 2838 3513 2113 
z
" transform="scale(0.015625)"/>
      </defs>
      <use xlink:href="#DejaVuSans-45"/>
      <use xlink:href="#DejaVuSans-70" x="63.183594"/>
      <use xlink:href="#DejaVuSans-6f" x="126.660156"/>
      <use xlink:href="#DejaVuSans-63" x="187.841797"/>
      <use xlink:href="#DejaVuSans-68" x="242.822266"/>
     </g>
    </g>
   </g>
   <g id="matplotlib.axis_2">
    <g id="ytick_1">
     <g id="line2d_3">
      <defs>
       <path id="m9b794af06c" d="M 0 0 
L -3.5 0 
" style="stroke: #000000; stroke-width: 0.8"/>
      </defs>
      <g>
       <use xlink:href="#m9b794af06c" x="37.08" y="157.154138" style="stroke: #000000; stroke-width: 0.8"/>
      </g>
     </g>
     <g id="text_4">
      <!-- 2 -->
      <g transform="translate(17.2175 160.953357) scale(0.1 -0.1)">
       <defs>
        <path id="DejaVuSans-32" d="M 1228 531 
L 3431 531 
L 3431 0 
L 469 0 
L 469 531 
Q 828 903 1448 1529 
Q 2069 2156 2228 2338 
Q 2531 2678 2651 2914 
Q 2772 3150 2772 3378 
Q 2772 3750 2511 3984 
Q 2250 4219 1831 4219 
Q 1534 4219 1204 4116 
Q 875 4013 500 3803 
L 500 4441 
Q 881 4594 1212 4672 
Q 1544 4750 1819 4750 
Q 2544 4750 2975 4387 
Q 3406 4025 3406 3419 
Q 3406 3131 3298 2873 
Q 3191 2616 2906 2266 
Q 2828 2175 2409 1742 
Q 1991 1309 1228 531 
z
" transform="scale(0.015625)"/>
       </defs>
       <use xlink:href="#DejaVuSans-32"/>
      </g>
     </g>
    </g>
    <g id="ytick_2">
     <g id="line2d_4">
      <g>
       <use xlink:href="#m9b794af06c" x="37.08" y="143.908621" style="stroke: #000000; stroke-width: 0.8"/>
      </g>
     </g>
     <g id="text_5">
      <!-- 3 -->
      <g transform="translate(17.2175 147.707839) scale(0.1 -0.1)">
       <defs>
        <path id="DejaVuSans-33" d="M 2597 2516 
Q 3050 2419 3304 2112 
Q 3559 1806 3559 1356 
Q 3559 666 3084 287 
Q 2609 -91 1734 -91 
Q 1441 -91 1130 -33 
Q 819 25 488 141 
L 488 750 
Q 750 597 1062 519 
Q 1375 441 1716 441 
Q 2309 441 2620 675 
Q 2931 909 2931 1356 
Q 2931 1769 2642 2001 
Q 2353 2234 1838 2234 
L 1294 2234 
L 1294 2753 
L 1863 2753 
Q 2328 2753 2575 2939 
Q 2822 3125 2822 3475 
Q 2822 3834 2567 4026 
Q 2313 4219 1838 4219 
Q 1578 4219 1281 4162 
Q 984 4106 628 3988 
L 628 4550 
Q 988 4650 1302 4700 
Q 1616 4750 1894 4750 
Q 2613 4750 3031 4423 
Q 3450 4097 3450 3541 
Q 3450 3153 3228 2886 
Q 3006 2619 2597 2516 
z
" transform="scale(0.015625)"/>
       </defs>
       <use xlink:href="#DejaVuSans-33"/>
      </g>
     </g>
    </g>
    <g id="ytick_3">
     <g id="line2d_5">
      <g>
       <use xlink:href="#m9b794af06c" x="37.08" y="130.663103" style="stroke: #000000; stroke-width: 0.8"/>
      </g>
     </g>
     <g id="text_6">
      <!-- 5 -->
      <g transform="translate(17.2175 134.462322) scale(0.1 -0.1)">
       <use xlink:href="#DejaVuSans-35"/>
      </g>
     </g>
    </g>
    <g id="ytick_4">
     <g id="line2d_6">
      <g>
       <use xlink:href="#m9b794af06c" x="37.08" y="117.417586" style="stroke: #000000; stroke-width: 0.8"/>
      </g>
     </g>
     <g id="text_7">
      <!-- 7 -->
      <g transform="translate(17.2175 121.216805) scale(0.1 -0.1)">
       <defs>
        <path id="DejaVuSans-37" d="M 525 4666 
L 3525 4666 
L 3525 4397 
L 1831 0 
L 1172 0 
L 2766 4134 
L 525 4134 
L 525 4666 
z
" transform="scale(0.015625)"/>
       </defs>
       <use xlink:href="#DejaVuSans-37"/>
      </g>
     </g>
    </g>
    <g id="ytick_5">
     <g id="line2d_7">
      <g>
       <use xlink:href="#m9b794af06c" x="37.08" y="104.172069" style="stroke: #000000; stroke-width: 0.8"/>
      </g>
     </g>
     <g id="text_8">
      <!-- 11 -->
      <g transform="translate(10.855 107.971288) scale(0.1 -0.1)">
       <use xlink:href="#DejaVuSans-31"/>
       <use xlink:href="#DejaVuSans-31" x="63.623047"/>
      </g>
     </g>
    </g>
    <g id="ytick_6">
     <g id="line2d_8">
      <g>
       <use xlink:href="#m9b794af06c" x="37.08" y="90.926552" style="stroke: #000000; stroke-width: 0.8"/>
      </g>
     </g>
     <g id="text_9">
      <!-- 13 -->
      <g transform="translate(10.855 94.72577) scale(0.1 -0.1)">
       <use xlink:href="#DejaVuSans-31"/>
       <use xlink:href="#DejaVuSans-33" x="63.623047"/>
      </g>
     </g>
    </g>
    <g id="ytick_7">
     <g id="line2d_9">
      <g>
       <use xlink:href="#m9b794af06c" x="37.08" y="77.681034" style="stroke: #000000; stroke-width: 0.8"/>
      </g>
     </g>
     <g id="text_10">
      <!-- 17 -->
      <g transform="translate(10.855 81.480253) scale(0.1 -0.1)">
       <use xlink:href="#DejaVuSans-31"/>
       <use xlink:href="#DejaVuSans-37" x="63.623047"/>
      </g>
     </g>
    </g>
    <g id="ytick_8">
     <g id="line2d_10">
      <g>
       <use xlink:href="#m9b794af06c" x="37.08" y="64.435517" style="stroke: #000000; stroke-width: 0.8"/>
      </g>
     </g>
     <g id="text_11">
      <!-- 19 -->
      <g transform="translate(10.855 68.234736) scale(0.1 -0.1)">
       <defs>
        <path id="DejaVuSans-39" d="M 703 97 
L 703 672 
Q 941 559 1184 500 
Q 1428 441 1663 441 
Q 2288 441 2617 861 
Q 2947 1281 2994 2138 
Q 2813 1869 2534 1725 
Q 2256 1581 1919 1581 
Q 1219 1581 811 2004 
Q 403 2428 403 3163 
Q 403 3881 828 4315 
Q 1253 4750 1959 4750 
Q 2769 4750 3195 4129 
Q 3622 3509 3622 2328 
Q 3622 1225 3098 567 
Q 2575 -91 1691 -91 
Q 1453 -91 1209 -44 
Q 966 3 703 97 
z
M 1959 2075 
Q 2384 2075 2632 2365 
Q 2881 2656 2881 3163 
Q 2881 3666 2632 3958 
Q 2384 4250 1959 4250 
Q 1534 4250 1286 3958 
Q 1038 3666 1038 3163 
Q 1038 2656 1286 2365 
Q 1534 2075 1959 2075 
z
" transform="scale(0.015625)"/>
       </defs>
       <use xlink:href="#DejaVuSans-31"/>
       <use xlink:href="#DejaVuSans-39" x="63.623047"/>
      </g>
     </g>
    </g>
    <g id="ytick_9">
     <g id="line2d_11">
      <g>
       <use xlink:href="#m9b794af06c" x="37.08" y="51.19" style="stroke: #000000; stroke-width: 0.8"/>
      </g>
     </g>
     <g id="text_12">
      <!--  -->
      <g transform="translate(16.5675 54.989219) scale(0.1 -0.1)">
       <defs>
        <path id="DejaVuSans-2119" d="M 938 4353 
L 938 313 
L 1569 313 
L 1569 4353 
L 938 4353 
z
M 1881 4353 
L 1881 2284 
L 2825 2284 
Q 2900 2284 2972 2291 
L 2972 4347 
Q 2900 4353 2825 4353 
L 1881 4353 
z
M 625 4666 
L 2678 4666 
Q 3459 4666 3861 4323 
Q 4263 3981 4263 3322 
Q 4263 2656 3861 2315 
Q 3459 1975 2675 1975 
L 1881 1975 
L 1881 0 
L 625 0 
L 625 4666 
z
M 3300 4281 
L 3300 2359 
Q 3488 2428 3628 2556 
Q 3919 2825 3919 3322 
Q 3919 3816 3631 4084 
Q 3494 4213 3300 4281 
z
" transform="scale(0.015625)"/>
       </defs>
       <use xlink:href="#DejaVuSans-2119"/>
      </g>
     </g>
    </g>
   </g>
  </g>
 </g>
 <defs>
  <clipPath id="pa15aeee909">
   <rect x="37.08" y="24.698966" width="384.12" height="145.70069"/>
  </clipPath>
 </defs>
</svg>
