<?xml version="1.0" encoding="utf-8" standalone="no"?>
<!DOCTYPE svg PUBLIC "-//W3C//DTD SVG 1.1//EN"
  "http://www.w3.org/Graphics/SVG/1.1/DTD/svg11.dtd">
<svg xmlns:xlink="http://www.w3.org/1999/xlink" width="432pt" height="216pt" viewBox="0 0 432 216" xmlns="http://www.w3.org/2000/svg" version="1.1">
 <metadata>
  <rdf:RDF xmlns:dc="http://purl.org/dc/elements/1.1/" xmlns:cc="http://creativecommons.org/ns#" xmlns:rdf="http://www.w3.org/1999/02/22-rdf-syntax-ns#">
   <cc:Work>
    <dc:type rdf:resource="http://purl.org/dc/dcmitype/StillImage"/>
    <dc:date>2024-08-13T18:47:57.743047</dc:date>
    <dc:format>image/svg+xml</dc:format>
    <dc:creator>
     <cc:Agent>
      <dc:title>Matplotlib v3.9.1.post1, https://matplotlib.org/</dc:title>
     </cc:Agent>
    </dc:creator>
   </cc:Work>
  </rdf:RDF>
 </metadata>
 <defs>
  <style type="text/css">*{stroke-linejoin: round; stroke-linecap: butt}</style>
 </defs>
 <g id="figure_1">
  <g id="patch_1">
   <path d="M 0 216 
L 432 216 
L 432 0 
L 0 0 
z
" style="fill: #ffffff"/>
  </g>
  <g id="axes_1">
   <g id="patch_2">
    <path d="M 37.08 165.340833 
L 418.505 165.340833 
L 418.505 38.199167 
L 37.08 38.199167 
z
" style="fill: #ffffff"/>
   </g>
   <g id="patch_3">
    <path d="M 38.084946 164.335888 
L 50.201906 164.335888 
L 50.201906 152.218927 
L 38.084946 152.218927 
z
" clip-path="url(#p7d319b4cba)" style="stroke: #000000; stroke-linejoin: miter"/>
   </g>
   <g id="patch_4">
    <path d="M 52.452651 164.095034 
L 64.087906 164.095034 
L 64.087906 152.45978 
L 52.452651 152.45978 
z
" clip-path="url(#p7d319b4cba)" style="stroke: #000000; stroke-linejoin: miter"/>
   </g>
   <g id="patch_5">
    <path d="M 66.82926 163.845276 
L 77.964996 163.845276 
L 77.964996 152.709538 
L 66.82926 152.709538 
z
" clip-path="url(#p7d319b4cba)" style="stroke: #000000; stroke-linejoin: miter"/>
   </g>
   <g id="patch_6">
    <path d="M 81.301743 163.499645 
L 91.746217 163.499645 
L 91.746217 153.05517 
L 81.301743 153.05517 
z
" clip-path="url(#p7d319b4cba)" style="stroke: #000000; stroke-linejoin: miter"/>
   </g>
   <g id="patch_7">
    <path d="M 95.856115 163.072125 
L 105.445552 163.072125 
L 105.445552 153.48269 
L 95.856115 153.48269 
z
" clip-path="url(#p7d319b4cba)" style="stroke: #000000; stroke-linejoin: miter"/>
   </g>
   <g id="patch_8">
    <path d="M 110.697234 162.357856 
L 118.85813 162.357856 
L 118.85813 154.196958 
L 110.697234 154.196958 
z
" clip-path="url(#p7d319b4cba)" style="stroke: #000000; stroke-linejoin: miter"/>
   </g>
   <g id="patch_9">
    <path d="M 125.686334 161.495608 
L 132.122733 161.495608 
L 132.122733 155.059207 
L 125.686334 155.059207 
z
" clip-path="url(#p7d319b4cba)" style="stroke: #000000; stroke-linejoin: miter"/>
   </g>
   <g id="patch_10">
    <path d="M 140.504139 160.80466 
L 145.558646 160.80466 
L 145.558646 155.750155 
L 140.504139 155.750155 
z
" clip-path="url(#p7d319b4cba)" style="stroke: #000000; stroke-linejoin: miter"/>
   </g>
   <g id="patch_11">
    <path d="M 155.359141 160.076505 
L 158.957334 160.076505 
L 158.957334 156.47831 
L 155.359141 156.47831 
z
" clip-path="url(#p7d319b4cba)" style="stroke: #000000; stroke-linejoin: miter"/>
   </g>
   <g id="patch_12">
    <path d="M 170.313839 159.248656 
L 172.256333 159.248656 
L 172.256333 157.306159 
L 170.313839 157.306159 
z
" clip-path="url(#p7d319b4cba)" style="stroke: #000000; stroke-linejoin: miter"/>
   </g>
   <g id="patch_13">
    <path d="M 185.171623 158.517732 
L 185.652279 158.517732 
L 185.652279 158.037082 
L 185.171623 158.037082 
z
" clip-path="url(#p7d319b4cba)" style="stroke: #000000; stroke-linejoin: miter"/>
   </g>
   <g id="patch_14">
    <path d="M 199.500575 158.315628 
L 199.577018 158.315628 
L 199.577018 158.239187 
L 199.500575 158.239187 
z
" clip-path="url(#p7d319b4cba)" style="stroke: #000000; stroke-linejoin: miter"/>
   </g>
   <g id="patch_15">
    <path d="M 213.631401 158.311652 
L 213.699895 158.311652 
L 213.699895 158.243163 
L 213.631401 158.243163 
z
" clip-path="url(#p7d319b4cba)" style="stroke: #000000; stroke-linejoin: miter"/>
   </g>
   <g id="patch_16">
    <path d="M 227.777923 158.291987 
L 227.807077 158.291987 
L 227.807077 158.262828 
L 227.777923 158.262828 
z
" clip-path="url(#p7d319b4cba)" style="stroke: #000000; stroke-linejoin: miter"/>
   </g>
   <g id="patch_17">
    <path d="M 241.915431 158.281325 
L 241.923272 158.281325 
L 241.923272 158.27349 
L 241.915431 158.27349 
z
" clip-path="url(#p7d319b4cba)" style="stroke: #000000; stroke-linejoin: miter"/>
   </g>
   <g id="patch_18">
    <path d="M 256.04549 158.278128 
L 256.046931 158.278128 
L 256.046931 158.276687 
L 256.04549 158.276687 
z
" clip-path="url(#p7d319b4cba)" style="stroke: #000000; stroke-linejoin: miter"/>
   </g>
   <g id="patch_19">
    <path d="M 270.170631 158.279833 
L 270.175481 158.279833 
L 270.175481 158.274982 
L 270.170631 158.274982 
z
" clip-path="url(#p7d319b4cba)" style="stroke: #000000; stroke-linejoin: miter"/>
   </g>
   <g id="patch_20">
    <path d="M 284.298425 158.278896 
L 284.301389 158.278896 
L 284.301389 158.275919 
L 284.298425 158.275919 
z
" clip-path="url(#p7d319b4cba)" style="stroke: #000000; stroke-linejoin: miter"/>
   </g>
   <g id="patch_21">
    <path d="M 298.425681 158.278489 
L 298.427837 158.278489 
L 298.427837 158.276326 
L 298.425681 158.276326 
z
" clip-path="url(#p7d319b4cba)" style="stroke: #000000; stroke-linejoin: miter"/>
   </g>
   <g id="patch_22">
    <path d="M 312.545662 158.285355 
L 312.56156 158.285355 
L 312.56156 158.26946 
L 312.545662 158.26946 
z
" clip-path="url(#p7d319b4cba)" style="stroke: #000000; stroke-linejoin: miter"/>
   </g>
   <g id="patch_23">
    <path d="M 326.67564 158.282238 
L 326.685313 158.282238 
L 326.685313 158.272577 
L 326.67564 158.272577 
z
" clip-path="url(#p7d319b4cba)" style="stroke: #000000; stroke-linejoin: miter"/>
   </g>
   <g id="patch_24">
    <path d="M 340.796833 158.287887 
L 340.817796 158.287887 
L 340.817796 158.266927 
L 340.796833 158.266927 
z
" clip-path="url(#p7d319b4cba)" style="stroke: #000000; stroke-linejoin: miter"/>
   </g>
   <g id="patch_25">
    <path d="M 354.925841 158.28573 
L 354.942493 158.28573 
L 354.942493 158.269085 
L 354.925841 158.269085 
z
" clip-path="url(#p7d319b4cba)" style="stroke: #000000; stroke-linejoin: miter"/>
   </g>
   <g id="patch_26">
    <path d="M 369.059375 158.279051 
L 369.062662 158.279051 
L 369.062662 158.275764 
L 369.059375 158.275764 
z
" clip-path="url(#p7d319b4cba)" style="stroke: #000000; stroke-linejoin: miter"/>
   </g>
   <g id="patch_27">
    <path d="M 383.186092 158.27919 
L 383.189649 158.27919 
L 383.189649 158.275624 
L 383.186092 158.275624 
z
" clip-path="url(#p7d319b4cba)" style="stroke: #000000; stroke-linejoin: miter"/>
   </g>
   <g id="patch_28">
    <path d="M 397.308498 158.283641 
L 397.320973 158.283641 
L 397.320973 158.271174 
L 397.308498 158.271174 
z
" clip-path="url(#p7d319b4cba)" style="stroke: #000000; stroke-linejoin: miter"/>
   </g>
   <g id="patch_29">
    <path d="M 411.434622 158.284368 
L 411.448553 158.284368 
L 411.448553 158.270446 
L 411.434622 158.270446 
z
" clip-path="url(#p7d319b4cba)" style="stroke: #000000; stroke-linejoin: miter"/>
   </g>
   <g id="patch_30">
    <path d="M 37.786343 150.507639 
L 50.500509 150.507639 
L 50.500509 137.793472 
L 37.786343 137.793472 
z
" clip-path="url(#p7d319b4cba)" style="stroke: #000000; stroke-linejoin: miter"/>
   </g>
   <g id="patch_31">
    <path d="M 52.223913 150.19692 
L 64.316641 150.19692 
L 64.316641 138.104193 
L 52.223913 138.104193 
z
" clip-path="url(#p7d319b4cba)" style="stroke: #000000; stroke-linejoin: miter"/>
   </g>
   <g id="patch_32">
    <path d="M 66.338268 150.209417 
L 78.455992 150.209417 
L 78.455992 138.091694 
L 66.338268 138.091694 
z
" clip-path="url(#p7d319b4cba)" style="stroke: #000000; stroke-linejoin: miter"/>
   </g>
   <g id="patch_33">
    <path d="M 80.793446 149.881091 
L 92.254517 149.881091 
L 92.254517 138.42002 
L 80.793446 138.42002 
z
" clip-path="url(#p7d319b4cba)" style="stroke: #000000; stroke-linejoin: miter"/>
   </g>
   <g id="patch_34">
    <path d="M 94.733152 150.068237 
L 106.568511 150.068237 
L 106.568511 138.232874 
L 94.733152 138.232874 
z
" clip-path="url(#p7d319b4cba)" style="stroke: #000000; stroke-linejoin: miter"/>
   </g>
   <g id="patch_35">
    <path d="M 109.044573 149.883667 
L 120.510798 149.883667 
L 120.510798 138.417443 
L 109.044573 138.417443 
z
" clip-path="url(#p7d319b4cba)" style="stroke: #000000; stroke-linejoin: miter"/>
   </g>
   <g id="patch_36">
    <path d="M 123.136545 149.918548 
L 134.67253 149.918548 
L 134.67253 138.382563 
L 123.136545 138.382563 
z
" clip-path="url(#p7d319b4cba)" style="stroke: #000000; stroke-linejoin: miter"/>
   </g>
   <g id="patch_37">
    <path d="M 137.190295 149.991648 
L 148.872476 149.991648 
L 148.872476 138.309463 
L 137.190295 138.309463 
z
" clip-path="url(#p7d319b4cba)" style="stroke: #000000; stroke-linejoin: miter"/>
   </g>
   <g id="patch_38">
    <path d="M 151.444751 149.864048 
L 162.871731 149.864048 
L 162.871731 138.437062 
L 151.444751 138.437062 
z
" clip-path="url(#p7d319b4cba)" style="stroke: #000000; stroke-linejoin: miter"/>
   </g>
   <g id="patch_39">
    <path d="M 165.532923 149.902725 
L 177.037262 149.902725 
L 177.037262 138.398386 
L 165.532923 138.398386 
z
" clip-path="url(#p7d319b4cba)" style="stroke: #000000; stroke-linejoin: miter"/>
   </g>
   <g id="patch_40">
    <path d="M 179.692028 149.870468 
L 191.131847 149.870468 
L 191.131847 138.430643 
L 179.692028 138.430643 
z
" clip-path="url(#p7d319b4cba)" style="stroke: #000000; stroke-linejoin: miter"/>
   </g>
   <g id="patch_41">
    <path d="M 193.778665 149.910689 
L 205.298928 149.910689 
L 205.298928 138.390423 
L 193.778665 138.390423 
z
" clip-path="url(#p7d319b4cba)" style="stroke: #000000; stroke-linejoin: miter"/>
   </g>
   <g id="patch_42">
    <path d="M 207.9207 149.895498 
L 219.410583 149.895498 
L 219.410583 138.405614 
L 207.9207 138.405614 
z
" clip-path="url(#p7d319b4cba)" style="stroke: #000000; stroke-linejoin: miter"/>
   </g>
   <g id="patch_43">
    <path d="M 222.074645 149.868407 
L 233.510341 149.868407 
L 233.510341 138.432704 
L 222.074645 138.432704 
z
" clip-path="url(#p7d319b4cba)" style="stroke: #000000; stroke-linejoin: miter"/>
   </g>
   <g id="patch_44">
    <path d="M 236.202467 149.86744 
L 247.636237 149.86744 
L 247.636237 138.433671 
L 236.202467 138.433671 
z
" clip-path="url(#p7d319b4cba)" style="stroke: #000000; stroke-linejoin: miter"/>
   </g>
   <g id="patch_45">
    <path d="M 250.33173 149.865032 
L 261.760691 149.865032 
L 261.760691 138.436079 
L 250.33173 138.436079 
z
" clip-path="url(#p7d319b4cba)" style="stroke: #000000; stroke-linejoin: miter"/>
   </g>
   <g id="patch_46">
    <path d="M 264.481607 149.841998 
L 275.864505 149.841998 
L 275.864505 138.459113 
L 264.481607 138.459113 
z
" clip-path="url(#p7d319b4cba)" style="stroke: #000000; stroke-linejoin: miter"/>
   </g>
   <g id="patch_47">
    <path d="M 278.610964 149.839509 
L 289.988877 149.839509 
L 289.988877 138.461602 
L 278.610964 138.461602 
z
" clip-path="url(#p7d319b4cba)" style="stroke: #000000; stroke-linejoin: miter"/>
   </g>
   <g id="patch_48">
    <path d="M 292.744175 149.833135 
L 304.109343 149.833135 
L 304.109343 138.467976 
L 292.744175 138.467976 
z
" clip-path="url(#p7d319b4cba)" style="stroke: #000000; stroke-linejoin: miter"/>
   </g>
   <g id="patch_49">
    <path d="M 306.874395 149.829784 
L 318.232854 149.829784 
L 318.232854 138.471326 
L 306.874395 138.471326 
z
" clip-path="url(#p7d319b4cba)" style="stroke: #000000; stroke-linejoin: miter"/>
   </g>
   <g id="patch_50">
    <path d="M 321.023045 149.807966 
L 332.337854 149.807966 
L 332.337854 138.493145 
L 321.023045 138.493145 
z
" clip-path="url(#p7d319b4cba)" style="stroke: #000000; stroke-linejoin: miter"/>
   </g>
   <g id="patch_51">
    <path d="M 335.12147 149.836403 
L 346.493159 149.836403 
L 346.493159 138.464708 
L 335.12147 138.464708 
z
" clip-path="url(#p7d319b4cba)" style="stroke: #000000; stroke-linejoin: miter"/>
   </g>
   <g id="patch_52">
    <path d="M 349.24455 149.840172 
L 360.623783 149.840172 
L 360.623783 138.460939 
L 349.24455 138.460939 
z
" clip-path="url(#p7d319b4cba)" style="stroke: #000000; stroke-linejoin: miter"/>
   </g>
   <g id="patch_53">
    <path d="M 363.398939 149.81264 
L 374.723098 149.81264 
L 374.723098 138.488473 
L 363.398939 138.488473 
z
" clip-path="url(#p7d319b4cba)" style="stroke: #000000; stroke-linejoin: miter"/>
   </g>
   <g id="patch_54">
    <path d="M 377.543575 149.79486 
L 388.832193 149.79486 
L 388.832193 138.50625 
L 377.543575 138.50625 
z
" clip-path="url(#p7d319b4cba)" style="stroke: #000000; stroke-linejoin: miter"/>
   </g>
   <g id="patch_55">
    <path d="M 391.662235 149.803041 
L 402.967209 149.803041 
L 402.967209 138.49807 
L 391.662235 138.49807 
z
" clip-path="url(#p7d319b4cba)" style="stroke: #000000; stroke-linejoin: miter"/>
   </g>
   <g id="patch_56">
    <path d="M 405.745275 149.84685 
L 417.137873 149.84685 
L 417.137873 138.45426 
L 405.745275 138.45426 
z
" clip-path="url(#p7d319b4cba)" style="stroke: #000000; stroke-linejoin: miter"/>
   </g>
   <g id="patch_57">
    <path d="M 38.338333 135.828796 
L 49.948519 135.828796 
L 49.948519 124.218612 
L 38.338333 124.218612 
z
" clip-path="url(#p7d319b4cba)" style="stroke: #000000; stroke-linejoin: miter"/>
   </g>
   <g id="patch_58">
    <path d="M 53.801019 134.492962 
L 62.739536 134.492962 
L 62.739536 125.554445 
L 53.801019 125.554445 
z
" clip-path="url(#p7d319b4cba)" style="stroke: #000000; stroke-linejoin: miter"/>
   </g>
   <g id="patch_59">
    <path d="M 68.21946 134.201374 
L 76.574801 134.201374 
L 76.574801 125.846032 
L 68.21946 125.846032 
z
" clip-path="url(#p7d319b4cba)" style="stroke: #000000; stroke-linejoin: miter"/>
   </g>
   <g id="patch_60">
    <path d="M 82.53162 134.016066 
L 90.516343 134.016066 
L 90.516343 126.031342 
L 82.53162 126.031342 
z
" clip-path="url(#p7d319b4cba)" style="stroke: #000000; stroke-linejoin: miter"/>
   </g>
   <g id="patch_61">
    <path d="M 97.150087 133.52445 
L 104.15158 133.52445 
L 104.15158 126.522957 
L 97.150087 126.522957 
z
" clip-path="url(#p7d319b4cba)" style="stroke: #000000; stroke-linejoin: miter"/>
   </g>
   <g id="patch_62">
    <path d="M 111.70297 133.098417 
L 117.852394 133.098417 
L 117.852394 126.948992 
L 111.70297 126.948992 
z
" clip-path="url(#p7d319b4cba)" style="stroke: #000000; stroke-linejoin: miter"/>
   </g>
   <g id="patch_63">
    <path d="M 126.446299 132.48194 
L 131.362768 132.48194 
L 131.362768 127.565466 
L 126.446299 127.565466 
z
" clip-path="url(#p7d319b4cba)" style="stroke: #000000; stroke-linejoin: miter"/>
   </g>
   <g id="patch_64">
    <path d="M 141.126982 131.928111 
L 144.935796 131.928111 
L 144.935796 128.119297 
L 141.126982 128.119297 
z
" clip-path="url(#p7d319b4cba)" style="stroke: #000000; stroke-linejoin: miter"/>
   </g>
   <g id="patch_65">
    <path d="M 155.896212 131.285734 
L 158.420269 131.285734 
L 158.420269 128.761672 
L 155.896212 128.761672 
z
" clip-path="url(#p7d319b4cba)" style="stroke: #000000; stroke-linejoin: miter"/>
   </g>
   <g id="patch_66">
    <path d="M 170.529856 130.778939 
L 172.040329 130.778939 
L 172.040329 129.268467 
L 170.529856 129.268467 
z
" clip-path="url(#p7d319b4cba)" style="stroke: #000000; stroke-linejoin: miter"/>
   </g>
   <g id="patch_67">
    <path d="M 185.089226 130.346425 
L 185.734663 130.346425 
L 185.734663 129.700982 
L 185.089226 129.700982 
z
" clip-path="url(#p7d319b4cba)" style="stroke: #000000; stroke-linejoin: miter"/>
   </g>
   <g id="patch_68">
    <path d="M 199.472391 130.090113 
L 199.605215 130.090113 
L 199.605215 129.957295 
L 199.472391 129.957295 
z
" clip-path="url(#p7d319b4cba)" style="stroke: #000000; stroke-linejoin: miter"/>
   </g>
   <g id="patch_69">
    <path d="M 213.649899 130.039446 
L 213.681384 130.039446 
L 213.681384 130.007961 
L 213.649899 130.007961 
z
" clip-path="url(#p7d319b4cba)" style="stroke: #000000; stroke-linejoin: miter"/>
   </g>
   <g id="patch_70">
    <path d="M 227.782706 130.033498 
L 227.802294 130.033498 
L 227.802294 130.013909 
L 227.782706 130.013909 
z
" clip-path="url(#p7d319b4cba)" style="stroke: #000000; stroke-linejoin: miter"/>
   </g>
   <g id="patch_71">
    <path d="M 241.905556 130.037506 
L 241.933161 130.037506 
L 241.933161 130.009901 
L 241.905556 130.009901 
z
" clip-path="url(#p7d319b4cba)" style="stroke: #000000; stroke-linejoin: miter"/>
   </g>
   <g id="patch_72">
    <path d="M 256.034793 130.035115 
L 256.057615 130.035115 
L 256.057615 130.012293 
L 256.034793 130.012293 
z
" clip-path="url(#p7d319b4cba)" style="stroke: #000000; stroke-linejoin: miter"/>
   </g>
   <g id="patch_73">
    <path d="M 270.170617 130.026144 
L 270.175508 130.026144 
L 270.175508 130.021262 
L 270.170617 130.021262 
z
" clip-path="url(#p7d319b4cba)" style="stroke: #000000; stroke-linejoin: miter"/>
   </g>
   <g id="patch_74">
    <path d="M 284.294195 130.029418 
L 284.30562 130.029418 
L 284.30562 130.017988 
L 284.294195 130.017988 
z
" clip-path="url(#p7d319b4cba)" style="stroke: #000000; stroke-linejoin: miter"/>
   </g>
   <g id="patch_75">
    <path d="M 298.423041 130.027415 
L 298.430451 130.027415 
L 298.430451 130.019992 
L 298.423041 130.019992 
z
" clip-path="url(#p7d319b4cba)" style="stroke: #000000; stroke-linejoin: miter"/>
   </g>
   <g id="patch_76">
    <path d="M 312.543345 130.033976 
L 312.563904 130.033976 
L 312.563904 130.013431 
L 312.543345 130.013431 
z
" clip-path="url(#p7d319b4cba)" style="stroke: #000000; stroke-linejoin: miter"/>
   </g>
   <g id="patch_77">
    <path d="M 326.677014 130.027153 
L 326.683912 130.027153 
L 326.683912 130.020255 
L 326.677014 130.020255 
z
" clip-path="url(#p7d319b4cba)" style="stroke: #000000; stroke-linejoin: miter"/>
   </g>
   <g id="patch_78">
    <path d="M 340.80683 130.024184 
L 340.8078 130.024184 
L 340.8078 130.023222 
L 340.80683 130.023222 
z
" clip-path="url(#p7d319b4cba)" style="stroke: #000000; stroke-linejoin: miter"/>
   </g>
   <g id="patch_79">
    <path d="M 354.932766 130.025093 
L 354.935541 130.025093 
L 354.935541 130.022313 
L 354.932766 130.022313 
z
" clip-path="url(#p7d319b4cba)" style="stroke: #000000; stroke-linejoin: miter"/>
   </g>
   <g id="patch_80">
    <path d="M 369.060587 130.024138 
L 369.06145 130.024138 
L 369.06145 130.023269 
L 369.060587 130.023269 
z
" clip-path="url(#p7d319b4cba)" style="stroke: #000000; stroke-linejoin: miter"/>
   </g>
   <g id="patch_81">
    <path d="M 383.185876 130.025684 
L 383.189837 130.025684 
L 383.189837 130.021723 
L 383.185876 130.021723 
z
" clip-path="url(#p7d319b4cba)" style="stroke: #000000; stroke-linejoin: miter"/>
   </g>
   <g id="patch_82">
    <path d="M 397.302381 130.036039 
L 397.327063 130.036039 
L 397.327063 130.011366 
L 397.302381 130.011366 
z
" clip-path="url(#p7d319b4cba)" style="stroke: #000000; stroke-linejoin: miter"/>
   </g>
   <g id="patch_83">
    <path d="M 411.439715 130.02557 
L 411.44346 130.02557 
L 411.44346 130.021838 
L 411.439715 130.021838 
z
" clip-path="url(#p7d319b4cba)" style="stroke: #000000; stroke-linejoin: miter"/>
   </g>
   <g id="patch_84">
    <path d="M 38.863716 121.176564 
L 49.423136 121.176564 
L 49.423136 110.617143 
L 38.863716 110.617143 
z
" clip-path="url(#p7d319b4cba)" style="stroke: #000000; stroke-linejoin: miter"/>
   </g>
   <g id="patch_85">
    <path d="M 54.138869 120.028262 
L 62.401688 120.028262 
L 62.401688 111.765445 
L 54.138869 111.765445 
z
" clip-path="url(#p7d319b4cba)" style="stroke: #000000; stroke-linejoin: miter"/>
   </g>
   <g id="patch_86">
    <path d="M 68.256056 120.037926 
L 76.5382 120.037926 
L 76.5382 111.755782 
L 68.256056 111.755782 
z
" clip-path="url(#p7d319b4cba)" style="stroke: #000000; stroke-linejoin: miter"/>
   </g>
   <g id="patch_87">
    <path d="M 82.261754 120.15908 
L 90.786206 120.15908 
L 90.786206 111.634627 
L 82.261754 111.634627 
z
" clip-path="url(#p7d319b4cba)" style="stroke: #000000; stroke-linejoin: miter"/>
   </g>
   <g id="patch_88">
    <path d="M 96.619344 119.928341 
L 104.682326 119.928341 
L 104.682326 111.865359 
L 96.619344 111.865359 
z
" clip-path="url(#p7d319b4cba)" style="stroke: #000000; stroke-linejoin: miter"/>
   </g>
   <g id="patch_89">
    <path d="M 110.916504 119.758033 
L 118.638866 119.758033 
L 118.638866 112.035674 
L 110.916504 112.035674 
z
" clip-path="url(#p7d319b4cba)" style="stroke: #000000; stroke-linejoin: miter"/>
   </g>
   <g id="patch_90">
    <path d="M 124.776212 120.025174 
L 133.032856 120.025174 
L 133.032856 111.768526 
L 124.776212 111.768526 
z
" clip-path="url(#p7d319b4cba)" style="stroke: #000000; stroke-linejoin: miter"/>
   </g>
   <g id="patch_91">
    <path d="M 139.158379 119.769862 
L 146.904399 119.769862 
L 146.904399 112.023842 
L 139.158379 112.023842 
z
" clip-path="url(#p7d319b4cba)" style="stroke: #000000; stroke-linejoin: miter"/>
   </g>
   <g id="patch_92">
    <path d="M 153.193484 119.861605 
L 161.122998 119.861605 
L 161.122998 111.932095 
L 153.193484 111.932095 
z
" clip-path="url(#p7d319b4cba)" style="stroke: #000000; stroke-linejoin: miter"/>
   </g>
   <g id="patch_93">
    <path d="M 167.392912 119.789033 
L 175.177274 119.789033 
L 175.177274 112.004668 
L 167.392912 112.004668 
z
" clip-path="url(#p7d319b4cba)" style="stroke: #000000; stroke-linejoin: miter"/>
   </g>
   <g id="patch_94">
    <path d="M 181.524398 119.784395 
L 189.299491 119.784395 
L 189.299491 112.009305 
L 181.524398 112.009305 
z
" clip-path="url(#p7d319b4cba)" style="stroke: #000000; stroke-linejoin: miter"/>
   </g>
   <g id="patch_95">
    <path d="M 195.646117 119.789528 
L 203.431462 119.789528 
L 203.431462 112.004176 
L 195.646117 112.004176 
z
" clip-path="url(#p7d319b4cba)" style="stroke: #000000; stroke-linejoin: miter"/>
   </g>
   <g id="patch_96">
    <path d="M 209.858855 119.703641 
L 217.472427 119.703641 
L 217.472427 112.090062 
L 209.858855 112.090062 
z
" clip-path="url(#p7d319b4cba)" style="stroke: #000000; stroke-linejoin: miter"/>
   </g>
   <g id="patch_97">
    <path d="M 223.936775 119.75258 
L 231.648238 119.75258 
L 231.648238 112.041124 
L 223.936775 112.041124 
z
" clip-path="url(#p7d319b4cba)" style="stroke: #000000; stroke-linejoin: miter"/>
   </g>
   <g id="patch_98">
    <path d="M 238.034635 119.781572 
L 245.804069 119.781572 
L 245.804069 112.012131 
L 238.034635 112.012131 
z
" clip-path="url(#p7d319b4cba)" style="stroke: #000000; stroke-linejoin: miter"/>
   </g>
   <g id="patch_99">
    <path d="M 252.195491 119.747568 
L 259.896917 119.747568 
L 259.896917 112.046136 
L 252.195491 112.046136 
z
" clip-path="url(#p7d319b4cba)" style="stroke: #000000; stroke-linejoin: miter"/>
   </g>
   <g id="patch_100">
    <path d="M 266.360389 119.709515 
L 273.985722 119.709515 
L 273.985722 112.084188 
L 266.360389 112.084188 
z
" clip-path="url(#p7d319b4cba)" style="stroke: #000000; stroke-linejoin: miter"/>
   </g>
   <g id="patch_101">
    <path d="M 280.504863 119.691883 
L 288.094925 119.691883 
L 288.094925 112.101821 
L 280.504863 112.101821 
z
" clip-path="url(#p7d319b4cba)" style="stroke: #000000; stroke-linejoin: miter"/>
   </g>
   <g id="patch_102">
    <path d="M 294.67065 119.652968 
L 302.182869 119.652968 
L 302.182869 112.140739 
L 294.67065 112.140739 
z
" clip-path="url(#p7d319b4cba)" style="stroke: #000000; stroke-linejoin: miter"/>
   </g>
   <g id="patch_103">
    <path d="M 308.774814 119.675639 
L 316.332381 119.675639 
L 316.332381 112.118062 
L 308.774814 112.118062 
z
" clip-path="url(#p7d319b4cba)" style="stroke: #000000; stroke-linejoin: miter"/>
   </g>
   <g id="patch_104">
    <path d="M 322.891723 119.685602 
L 330.46923 119.685602 
L 330.46923 112.108102 
L 322.891723 112.108102 
z
" clip-path="url(#p7d319b4cba)" style="stroke: #000000; stroke-linejoin: miter"/>
   </g>
   <g id="patch_105">
    <path d="M 337.06042 119.64376 
L 344.554236 119.64376 
L 344.554236 112.149944 
L 337.06042 112.149944 
z
" clip-path="url(#p7d319b4cba)" style="stroke: #000000; stroke-linejoin: miter"/>
   </g>
   <g id="patch_106">
    <path d="M 351.186895 119.644117 
L 358.681438 119.644117 
L 358.681438 112.149584 
L 351.186895 112.149584 
z
" clip-path="url(#p7d319b4cba)" style="stroke: #000000; stroke-linejoin: miter"/>
   </g>
   <g id="patch_107">
    <path d="M 365.334117 119.62375 
L 372.78792 119.62375 
L 372.78792 112.169957 
L 365.334117 112.169957 
z
" clip-path="url(#p7d319b4cba)" style="stroke: #000000; stroke-linejoin: miter"/>
   </g>
   <g id="patch_108">
    <path d="M 379.475708 119.609024 
L 386.90006 119.609024 
L 386.90006 112.184679 
L 379.475708 112.184679 
z
" clip-path="url(#p7d319b4cba)" style="stroke: #000000; stroke-linejoin: miter"/>
   </g>
   <g id="patch_109">
    <path d="M 393.610482 119.601079 
L 401.018936 119.601079 
L 401.018936 112.192625 
L 393.610482 112.192625 
z
" clip-path="url(#p7d319b4cba)" style="stroke: #000000; stroke-linejoin: miter"/>
   </g>
   <g id="patch_110">
    <path d="M 407.791735 119.546688 
L 415.091413 119.546688 
L 415.091413 112.247016 
L 407.791735 112.247016 
z
" clip-path="url(#p7d319b4cba)" style="stroke: #000000; stroke-linejoin: miter"/>
   </g>
   <g id="patch_111">
    <path d="M 38.59977 107.313657 
L 49.687082 107.313657 
L 49.687082 96.226343 
L 38.59977 96.226343 
z
" clip-path="url(#p7d319b4cba)" style="stroke: #000000; stroke-linejoin: miter"/>
   </g>
   <g id="patch_112">
    <path d="M 55.045445 104.994835 
L 61.495113 104.994835 
L 61.495113 98.545168 
L 55.045445 98.545168 
z
" clip-path="url(#p7d319b4cba)" style="stroke: #000000; stroke-linejoin: miter"/>
   </g>
   <g id="patch_113">
    <path d="M 69.031164 105.135965 
L 75.763095 105.135965 
L 75.763095 98.404038 
L 69.031164 98.404038 
z
" clip-path="url(#p7d319b4cba)" style="stroke: #000000; stroke-linejoin: miter"/>
   </g>
   <g id="patch_114">
    <path d="M 83.556517 104.737465 
L 89.491446 104.737465 
L 89.491446 98.802539 
L 83.556517 98.802539 
z
" clip-path="url(#p7d319b4cba)" style="stroke: #000000; stroke-linejoin: miter"/>
   </g>
   <g id="patch_115">
    <path d="M 97.530962 104.889871 
L 103.770701 104.889871 
L 103.770701 98.650132 
L 97.530962 98.650132 
z
" clip-path="url(#p7d319b4cba)" style="stroke: #000000; stroke-linejoin: miter"/>
   </g>
   <g id="patch_116">
    <path d="M 111.828863 104.718822 
L 117.726507 104.718822 
L 117.726507 98.821178 
L 111.828863 98.821178 
z
" clip-path="url(#p7d319b4cba)" style="stroke: #000000; stroke-linejoin: miter"/>
   </g>
   <g id="patch_117">
    <path d="M 125.923401 104.751139 
L 131.88568 104.751139 
L 131.88568 98.788864 
L 125.923401 98.788864 
z
" clip-path="url(#p7d319b4cba)" style="stroke: #000000; stroke-linejoin: miter"/>
   </g>
   <g id="patch_118">
    <path d="M 139.996545 104.804844 
L 146.066232 104.804844 
L 146.066232 98.735156 
L 139.996545 98.735156 
z
" clip-path="url(#p7d319b4cba)" style="stroke: #000000; stroke-linejoin: miter"/>
   </g>
   <g id="patch_119">
    <path d="M 154.185566 104.742678 
L 160.130916 104.742678 
L 160.130916 98.797325 
L 154.185566 98.797325 
z
" clip-path="url(#p7d319b4cba)" style="stroke: #000000; stroke-linejoin: miter"/>
   </g>
   <g id="patch_120">
    <path d="M 168.320959 104.734134 
L 174.249226 104.734134 
L 174.249226 98.805866 
L 168.320959 98.805866 
z
" clip-path="url(#p7d319b4cba)" style="stroke: #000000; stroke-linejoin: miter"/>
   </g>
   <g id="patch_121">
    <path d="M 182.43128 104.750661 
L 188.392595 104.750661 
L 188.392595 98.789343 
L 182.43128 98.789343 
z
" clip-path="url(#p7d319b4cba)" style="stroke: #000000; stroke-linejoin: miter"/>
   </g>
   <g id="patch_122">
    <path d="M 196.57694 104.731853 
L 202.50064 104.731853 
L 202.50064 98.80815 
L 196.57694 98.80815 
z
" clip-path="url(#p7d319b4cba)" style="stroke: #000000; stroke-linejoin: miter"/>
   </g>
   <g id="patch_123">
    <path d="M 210.667874 104.767774 
L 216.663422 104.767774 
L 216.663422 98.772226 
L 210.667874 98.772226 
z
" clip-path="url(#p7d319b4cba)" style="stroke: #000000; stroke-linejoin: miter"/>
   </g>
   <g id="patch_124">
    <path d="M 224.822385 104.740112 
L 230.762615 104.740112 
L 230.762615 98.799885 
L 224.822385 98.799885 
z
" clip-path="url(#p7d319b4cba)" style="stroke: #000000; stroke-linejoin: miter"/>
   </g>
   <g id="patch_125">
    <path d="M 238.913333 104.776016 
L 244.925358 104.776016 
L 244.925358 98.763987 
L 238.913333 98.763987 
z
" clip-path="url(#p7d319b4cba)" style="stroke: #000000; stroke-linejoin: miter"/>
   </g>
   <g id="patch_126">
    <path d="M 253.05786 104.75835 
L 259.034561 104.75835 
L 259.034561 98.78165 
L 253.05786 98.78165 
z
" clip-path="url(#p7d319b4cba)" style="stroke: #000000; stroke-linejoin: miter"/>
   </g>
   <g id="patch_127">
    <path d="M 267.245958 104.697095 
L 273.100153 104.697095 
L 273.100153 98.842902 
L 267.245958 98.842902 
z
" clip-path="url(#p7d319b4cba)" style="stroke: #000000; stroke-linejoin: miter"/>
   </g>
   <g id="patch_128">
    <path d="M 281.332338 104.737566 
L 287.267476 104.737566 
L 287.267476 98.802438 
L 281.332338 98.802438 
z
" clip-path="url(#p7d319b4cba)" style="stroke: #000000; stroke-linejoin: miter"/>
   </g>
   <g id="patch_129">
    <path d="M 295.489288 104.707468 
L 301.364231 104.707468 
L 301.364231 98.832528 
L 295.489288 98.832528 
z
" clip-path="url(#p7d319b4cba)" style="stroke: #000000; stroke-linejoin: miter"/>
   </g>
   <g id="patch_130">
    <path d="M 309.643327 104.680281 
L 315.463895 104.680281 
L 315.463895 98.859722 
L 309.643327 98.859722 
z
" clip-path="url(#p7d319b4cba)" style="stroke: #000000; stroke-linejoin: miter"/>
   </g>
   <g id="patch_131">
    <path d="M 323.785672 104.664781 
L 329.575227 104.664781 
L 329.575227 98.875222 
L 323.785672 98.875222 
z
" clip-path="url(#p7d319b4cba)" style="stroke: #000000; stroke-linejoin: miter"/>
   </g>
   <g id="patch_132">
    <path d="M 337.952348 104.624973 
L 343.662281 104.624973 
L 343.662281 98.915027 
L 337.952348 98.915027 
z
" clip-path="url(#p7d319b4cba)" style="stroke: #000000; stroke-linejoin: miter"/>
   </g>
   <g id="patch_133">
    <path d="M 352.082056 104.622114 
L 357.786277 104.622114 
L 357.786277 98.91789 
L 352.082056 98.91789 
z
" clip-path="url(#p7d319b4cba)" style="stroke: #000000; stroke-linejoin: miter"/>
   </g>
   <g id="patch_134">
    <path d="M 366.222381 104.608625 
L 371.89963 104.608625 
L 371.89963 98.931375 
L 366.222381 98.931375 
z
" clip-path="url(#p7d319b4cba)" style="stroke: #000000; stroke-linejoin: miter"/>
   </g>
   <g id="patch_135">
    <path d="M 380.379276 104.578591 
L 385.996465 104.578591 
L 385.996465 98.961412 
L 380.379276 98.961412 
z
" clip-path="url(#p7d319b4cba)" style="stroke: #000000; stroke-linejoin: miter"/>
   </g>
   <g id="patch_136">
    <path d="M 394.514939 104.569794 
L 400.114533 104.569794 
L 400.114533 98.97021 
L 394.514939 98.97021 
z
" clip-path="url(#p7d319b4cba)" style="stroke: #000000; stroke-linejoin: miter"/>
   </g>
   <g id="patch_137">
    <path d="M 408.639554 104.57203 
L 414.243621 104.57203 
L 414.243621 98.967967 
L 408.639554 98.967967 
z
" clip-path="url(#p7d319b4cba)" style="stroke: #000000; stroke-linejoin: miter"/>
   </g>
   <g id="patch_138">
    <path d="M 39.407923 92.378648 
L 48.878929 92.378648 
L 48.878929 82.907641 
L 39.407923 82.907641 
z
" clip-path="url(#p7d319b4cba)" style="stroke: #000000; stroke-linejoin: miter"/>
   </g>
   <g id="patch_139">
    <path d="M 55.454059 90.459368 
L 61.086498 90.459368 
L 61.086498 84.826928 
L 55.454059 84.826928 
z
" clip-path="url(#p7d319b4cba)" style="stroke: #000000; stroke-linejoin: miter"/>
   </g>
   <g id="patch_140">
    <path d="M 69.573714 90.466562 
L 75.220544 90.466562 
L 75.220544 84.819734 
L 69.573714 84.819734 
z
" clip-path="url(#p7d319b4cba)" style="stroke: #000000; stroke-linejoin: miter"/>
   </g>
   <g id="patch_141">
    <path d="M 83.834456 90.332673 
L 89.213503 90.332673 
L 89.213503 84.953623 
L 83.834456 84.953623 
z
" clip-path="url(#p7d319b4cba)" style="stroke: #000000; stroke-linejoin: miter"/>
   </g>
   <g id="patch_142">
    <path d="M 97.871898 90.422083 
L 103.429768 90.422083 
L 103.429768 84.864213 
L 97.871898 84.864213 
z
" clip-path="url(#p7d319b4cba)" style="stroke: #000000; stroke-linejoin: miter"/>
   </g>
   <g id="patch_143">
    <path d="M 112.179577 90.241256 
L 117.375793 90.241256 
L 117.375793 85.04504 
L 112.179577 85.04504 
z
" clip-path="url(#p7d319b4cba)" style="stroke: #000000; stroke-linejoin: miter"/>
   </g>
   <g id="patch_144">
    <path d="M 126.173726 90.37396 
L 131.635355 90.37396 
L 131.635355 84.91233 
L 126.173726 84.91233 
z
" clip-path="url(#p7d319b4cba)" style="stroke: #000000; stroke-linejoin: miter"/>
   </g>
   <g id="patch_145">
    <path d="M 140.325953 90.348584 
L 145.736825 90.348584 
L 145.736825 84.937712 
L 140.325953 84.937712 
z
" clip-path="url(#p7d319b4cba)" style="stroke: #000000; stroke-linejoin: miter"/>
   </g>
   <g id="patch_146">
    <path d="M 154.534259 90.26713 
L 159.782223 90.26713 
L 159.782223 85.019173 
L 154.534259 85.019173 
z
" clip-path="url(#p7d319b4cba)" style="stroke: #000000; stroke-linejoin: miter"/>
   </g>
   <g id="patch_147">
    <path d="M 168.665193 90.263055 
L 173.905006 90.263055 
L 173.905006 85.023242 
L 168.665193 85.023242 
z
" clip-path="url(#p7d319b4cba)" style="stroke: #000000; stroke-linejoin: miter"/>
   </g>
   <g id="patch_148">
    <path d="M 182.804978 90.250114 
L 188.018911 90.250114 
L 188.018911 85.036189 
L 182.804978 85.036189 
z
" clip-path="url(#p7d319b4cba)" style="stroke: #000000; stroke-linejoin: miter"/>
   </g>
   <g id="patch_149">
    <path d="M 197.014295 90.16765 
L 202.063298 90.16765 
L 202.063298 85.118653 
L 197.014295 85.118653 
z
" clip-path="url(#p7d319b4cba)" style="stroke: #000000; stroke-linejoin: miter"/>
   </g>
   <g id="patch_150">
    <path d="M 211.042892 90.265904 
L 216.288404 90.265904 
L 216.288404 85.020392 
L 211.042892 85.020392 
z
" clip-path="url(#p7d319b4cba)" style="stroke: #000000; stroke-linejoin: miter"/>
   </g>
   <g id="patch_151">
    <path d="M 225.143594 90.292047 
L 230.441393 90.292047 
L 230.441393 84.994249 
L 225.143594 84.994249 
z
" clip-path="url(#p7d319b4cba)" style="stroke: #000000; stroke-linejoin: miter"/>
   </g>
   <g id="patch_152">
    <path d="M 239.357882 90.204625 
L 244.480835 90.204625 
L 244.480835 85.081671 
L 239.357882 85.081671 
z
" clip-path="url(#p7d319b4cba)" style="stroke: #000000; stroke-linejoin: miter"/>
   </g>
   <g id="patch_153">
    <path d="M 253.510412 90.17894 
L 258.581995 90.17894 
L 258.581995 85.107357 
L 253.510412 85.107357 
z
" clip-path="url(#p7d319b4cba)" style="stroke: #000000; stroke-linejoin: miter"/>
   </g>
   <g id="patch_154">
    <path d="M 267.605361 90.210842 
L 272.740763 90.210842 
L 272.740763 85.075454 
L 267.605361 85.075454 
z
" clip-path="url(#p7d319b4cba)" style="stroke: #000000; stroke-linejoin: miter"/>
   </g>
   <g id="patch_155">
    <path d="M 281.769141 90.173901 
L 286.830647 90.173901 
L 286.830647 85.112395 
L 281.769141 85.112395 
z
" clip-path="url(#p7d319b4cba)" style="stroke: #000000; stroke-linejoin: miter"/>
   </g>
   <g id="patch_156">
    <path d="M 295.889984 90.179916 
L 300.963534 90.179916 
L 300.963534 85.10638 
L 295.889984 85.10638 
z
" clip-path="url(#p7d319b4cba)" style="stroke: #000000; stroke-linejoin: miter"/>
   </g>
   <g id="patch_157">
    <path d="M 310.046502 90.15025 
L 315.060693 90.15025 
L 315.060693 85.136053 
L 310.046502 85.136053 
z
" clip-path="url(#p7d319b4cba)" style="stroke: #000000; stroke-linejoin: miter"/>
   </g>
   <g id="patch_158">
    <path d="M 324.205445 90.118159 
L 329.155454 90.118159 
L 329.155454 85.168144 
L 324.205445 85.168144 
z
" clip-path="url(#p7d319b4cba)" style="stroke: #000000; stroke-linejoin: miter"/>
   </g>
   <g id="patch_159">
    <path d="M 338.364793 90.085663 
L 343.249837 90.085663 
L 343.249837 85.200633 
L 338.364793 85.200633 
z
" clip-path="url(#p7d319b4cba)" style="stroke: #000000; stroke-linejoin: miter"/>
   </g>
   <g id="patch_160">
    <path d="M 352.532843 90.044465 
L 357.335463 90.044465 
L 357.335463 85.241838 
L 352.532843 85.241838 
z
" clip-path="url(#p7d319b4cba)" style="stroke: #000000; stroke-linejoin: miter"/>
   </g>
   <g id="patch_161">
    <path d="M 366.701594 90.002586 
L 371.42047 90.002586 
L 371.42047 85.28371 
L 366.701594 85.28371 
z
" clip-path="url(#p7d319b4cba)" style="stroke: #000000; stroke-linejoin: miter"/>
   </g>
   <g id="patch_162">
    <path d="M 380.865199 89.965806 
L 385.510515 89.965806 
L 385.510515 85.32049 
L 380.865199 85.32049 
z
" clip-path="url(#p7d319b4cba)" style="stroke: #000000; stroke-linejoin: miter"/>
   </g>
   <g id="patch_163">
    <path d="M 395.018133 89.93973 
L 399.611311 89.93973 
L 399.611311 85.346566 
L 395.018133 85.346566 
z
" clip-path="url(#p7d319b4cba)" style="stroke: #000000; stroke-linejoin: miter"/>
   </g>
   <g id="patch_164">
    <path d="M 409.186911 89.897818 
L 413.696237 89.897818 
L 413.696237 85.388485 
L 409.186911 85.388485 
z
" clip-path="url(#p7d319b4cba)" style="stroke: #000000; stroke-linejoin: miter"/>
   </g>
   <g id="patch_165">
    <path d="M 39.535385 78.124334 
L 48.751467 78.124334 
L 48.751467 68.908252 
L 39.535385 68.908252 
z
" clip-path="url(#p7d319b4cba)" style="stroke: #000000; stroke-linejoin: miter"/>
   </g>
   <g id="patch_166">
    <path d="M 55.74959 76.036985 
L 60.790963 76.036985 
L 60.790963 70.995614 
L 55.74959 70.995614 
z
" clip-path="url(#p7d319b4cba)" style="stroke: #000000; stroke-linejoin: miter"/>
   </g>
   <g id="patch_167">
    <path d="M 69.993166 75.92026 
L 74.801094 75.92026 
L 74.801094 71.112332 
L 69.993166 71.112332 
z
" clip-path="url(#p7d319b4cba)" style="stroke: #000000; stroke-linejoin: miter"/>
   </g>
   <g id="patch_168">
    <path d="M 84.285823 75.754455 
L 88.76214 75.754455 
L 88.76214 71.278137 
L 84.285823 71.278137 
z
" clip-path="url(#p7d319b4cba)" style="stroke: #000000; stroke-linejoin: miter"/>
   </g>
   <g id="patch_169">
    <path d="M 98.382267 75.784863 
L 102.9194 75.784863 
L 102.9194 71.24773 
L 98.382267 71.24773 
z
" clip-path="url(#p7d319b4cba)" style="stroke: #000000; stroke-linejoin: miter"/>
   </g>
   <g id="patch_170">
    <path d="M 112.595012 75.698969 
L 116.960358 75.698969 
L 116.960358 71.333623 
L 112.595012 71.333623 
z
" clip-path="url(#p7d319b4cba)" style="stroke: #000000; stroke-linejoin: miter"/>
   </g>
   <g id="patch_171">
    <path d="M 126.701299 75.719535 
L 131.107782 75.719535 
L 131.107782 71.313051 
L 126.701299 71.313051 
z
" clip-path="url(#p7d319b4cba)" style="stroke: #000000; stroke-linejoin: miter"/>
   </g>
   <g id="patch_172">
    <path d="M 140.865866 75.681819 
L 145.196911 75.681819 
L 145.196911 71.350774 
L 140.865866 71.350774 
z
" clip-path="url(#p7d319b4cba)" style="stroke: #000000; stroke-linejoin: miter"/>
   </g>
   <g id="patch_173">
    <path d="M 154.99581 75.678727 
L 159.320671 75.678727 
L 159.320671 71.353873 
L 154.99581 71.353873 
z
" clip-path="url(#p7d319b4cba)" style="stroke: #000000; stroke-linejoin: miter"/>
   </g>
   <g id="patch_174">
    <path d="M 169.120021 75.681374 
L 173.450177 75.681374 
L 173.450177 71.351218 
L 169.120021 71.351218 
z
" clip-path="url(#p7d319b4cba)" style="stroke: #000000; stroke-linejoin: miter"/>
   </g>
   <g id="patch_175">
    <path d="M 183.25466 75.67358 
L 187.569228 75.67358 
L 187.569228 71.359006 
L 183.25466 71.359006 
z
" clip-path="url(#p7d319b4cba)" style="stroke: #000000; stroke-linejoin: miter"/>
   </g>
   <g id="patch_176">
    <path d="M 197.395766 75.659333 
L 201.68184 75.659333 
L 201.68184 71.373266 
L 197.395766 71.373266 
z
" clip-path="url(#p7d319b4cba)" style="stroke: #000000; stroke-linejoin: miter"/>
   </g>
   <g id="patch_177">
    <path d="M 211.519519 75.662425 
L 215.811777 75.662425 
L 215.811777 71.370167 
L 211.519519 71.370167 
z
" clip-path="url(#p7d319b4cba)" style="stroke: #000000; stroke-linejoin: miter"/>
   </g>
   <g id="patch_178">
    <path d="M 225.641831 75.666965 
L 229.943169 75.666965 
L 229.943169 71.365627 
L 225.641831 71.365627 
z
" clip-path="url(#p7d319b4cba)" style="stroke: #000000; stroke-linejoin: miter"/>
   </g>
   <g id="patch_179">
    <path d="M 239.764587 75.671068 
L 244.07413 75.671068 
L 244.07413 71.361525 
L 239.764587 71.361525 
z
" clip-path="url(#p7d319b4cba)" style="stroke: #000000; stroke-linejoin: miter"/>
   </g>
   <g id="patch_180">
    <path d="M 253.883841 75.678659 
L 258.208567 75.678659 
L 258.208567 71.35394 
L 253.883841 71.35394 
z
" clip-path="url(#p7d319b4cba)" style="stroke: #000000; stroke-linejoin: miter"/>
   </g>
   <g id="patch_181">
    <path d="M 268.06407 75.625282 
L 272.282028 75.625282 
L 272.282028 71.407318 
L 268.06407 71.407318 
z
" clip-path="url(#p7d319b4cba)" style="stroke: #000000; stroke-linejoin: miter"/>
   </g>
   <g id="patch_182">
    <path d="M 282.237819 75.578371 
L 286.361968 75.578371 
L 286.361968 71.454222 
L 282.237819 71.454222 
z
" clip-path="url(#p7d319b4cba)" style="stroke: #000000; stroke-linejoin: miter"/>
   </g>
   <g id="patch_183">
    <path d="M 296.404981 75.538075 
L 300.448538 75.538075 
L 300.448538 71.494518 
L 296.404981 71.494518 
z
" clip-path="url(#p7d319b4cba)" style="stroke: #000000; stroke-linejoin: miter"/>
   </g>
   <g id="patch_184">
    <path d="M 310.537329 75.532592 
L 314.56992 75.532592 
L 314.56992 71.500001 
L 310.537329 71.500001 
z
" clip-path="url(#p7d319b4cba)" style="stroke: #000000; stroke-linejoin: miter"/>
   </g>
   <g id="patch_185">
    <path d="M 324.695383 75.501369 
L 328.665516 75.501369 
L 328.665516 71.531223 
L 324.695383 71.531223 
z
" clip-path="url(#p7d319b4cba)" style="stroke: #000000; stroke-linejoin: miter"/>
   </g>
   <g id="patch_186">
    <path d="M 338.854057 75.469554 
L 342.760573 75.469554 
L 342.760573 71.563045 
L 338.854057 71.563045 
z
" clip-path="url(#p7d319b4cba)" style="stroke: #000000; stroke-linejoin: miter"/>
   </g>
   <g id="patch_187">
    <path d="M 353.032481 75.417988 
L 356.835879 75.417988 
L 356.835879 71.614604 
L 353.032481 71.614604 
z
" clip-path="url(#p7d319b4cba)" style="stroke: #000000; stroke-linejoin: miter"/>
   </g>
   <g id="patch_188">
    <path d="M 367.200478 75.376823 
L 370.921532 75.376823 
L 370.921532 71.655762 
L 367.200478 71.655762 
z
" clip-path="url(#p7d319b4cba)" style="stroke: #000000; stroke-linejoin: miter"/>
   </g>
   <g id="patch_189">
    <path d="M 381.38836 75.3158 
L 384.987381 75.3158 
L 384.987381 71.716792 
L 381.38836 71.716792 
z
" clip-path="url(#p7d319b4cba)" style="stroke: #000000; stroke-linejoin: miter"/>
   </g>
   <g id="patch_190">
    <path d="M 395.595938 75.235073 
L 399.033479 75.235073 
L 399.033479 71.797526 
L 395.595938 71.797526 
z
" clip-path="url(#p7d319b4cba)" style="stroke: #000000; stroke-linejoin: miter"/>
   </g>
   <g id="patch_191">
    <path d="M 409.754127 75.20375 
L 413.129048 75.20375 
L 413.129048 71.828843 
L 409.754127 71.828843 
z
" clip-path="url(#p7d319b4cba)" style="stroke: #000000; stroke-linejoin: miter"/>
   </g>
   <g id="patch_192">
    <path d="M 38.135495 65.397374 
L 50.151357 65.397374 
L 50.151357 53.381515 
L 38.135495 53.381515 
z
" clip-path="url(#p7d319b4cba)" style="stroke: #000000; stroke-linejoin: miter"/>
   </g>
   <g id="patch_193">
    <path d="M 55.650657 62.009068 
L 60.889898 62.009068 
L 60.889898 56.769828 
L 55.650657 56.769828 
z
" clip-path="url(#p7d319b4cba)" style="stroke: #000000; stroke-linejoin: miter"/>
   </g>
   <g id="patch_194">
    <path d="M 70.036619 61.749953 
L 74.757642 61.749953 
L 74.757642 57.028929 
L 70.036619 57.028929 
z
" clip-path="url(#p7d319b4cba)" style="stroke: #000000; stroke-linejoin: miter"/>
   </g>
   <g id="patch_195">
    <path d="M 84.420281 61.493149 
L 88.627682 61.493149 
L 88.627682 57.285747 
L 84.420281 57.285747 
z
" clip-path="url(#p7d319b4cba)" style="stroke: #000000; stroke-linejoin: miter"/>
   </g>
   <g id="patch_196">
    <path d="M 98.662413 61.377865 
L 102.639254 61.377865 
L 102.639254 57.401024 
L 98.662413 57.401024 
z
" clip-path="url(#p7d319b4cba)" style="stroke: #000000; stroke-linejoin: miter"/>
   </g>
   <g id="patch_197">
    <path d="M 112.786024 61.381105 
L 116.769346 61.381105 
L 116.769346 57.397784 
L 112.786024 57.397784 
z
" clip-path="url(#p7d319b4cba)" style="stroke: #000000; stroke-linejoin: miter"/>
   </g>
   <g id="patch_198">
    <path d="M 126.928821 61.365161 
L 130.880253 61.365161 
L 130.880253 57.413728 
L 126.928821 57.413728 
z
" clip-path="url(#p7d319b4cba)" style="stroke: #000000; stroke-linejoin: miter"/>
   </g>
   <g id="patch_199">
    <path d="M 141.051873 61.36896 
L 145.010911 61.36896 
L 145.010911 57.409922 
L 141.051873 57.409922 
z
" clip-path="url(#p7d319b4cba)" style="stroke: #000000; stroke-linejoin: miter"/>
   </g>
   <g id="patch_200">
    <path d="M 155.183178 61.364507 
L 159.13331 61.364507 
L 159.13331 57.414375 
L 155.183178 57.414375 
z
" clip-path="url(#p7d319b4cba)" style="stroke: #000000; stroke-linejoin: miter"/>
   </g>
   <g id="patch_201">
    <path d="M 169.295311 61.379219 
L 173.274861 61.379219 
L 173.274861 57.39967 
L 169.295311 57.39967 
z
" clip-path="url(#p7d319b4cba)" style="stroke: #000000; stroke-linejoin: miter"/>
   </g>
   <g id="patch_202">
    <path d="M 183.398101 61.403294 
L 187.425801 61.403294 
L 187.425801 57.375601 
L 183.398101 57.375601 
z
" clip-path="url(#p7d319b4cba)" style="stroke: #000000; stroke-linejoin: miter"/>
   </g>
   <g id="patch_203">
    <path d="M 197.534653 61.393588 
L 201.542939 61.393588 
L 201.542939 57.385295 
L 197.534653 57.385295 
z
" clip-path="url(#p7d319b4cba)" style="stroke: #000000; stroke-linejoin: miter"/>
   </g>
   <g id="patch_204">
    <path d="M 211.672054 61.383032 
L 215.659229 61.383032 
L 215.659229 57.39585 
L 211.672054 57.39585 
z
" clip-path="url(#p7d319b4cba)" style="stroke: #000000; stroke-linejoin: miter"/>
   </g>
   <g id="patch_205">
    <path d="M 225.768808 61.413129 
L 229.816178 61.413129 
L 229.816178 57.36576 
L 225.768808 57.36576 
z
" clip-path="url(#p7d319b4cba)" style="stroke: #000000; stroke-linejoin: miter"/>
   </g>
   <g id="patch_206">
    <path d="M 239.950116 61.358681 
L 243.888588 61.358681 
L 243.888588 57.420208 
L 239.950116 57.420208 
z
" clip-path="url(#p7d319b4cba)" style="stroke: #000000; stroke-linejoin: miter"/>
   </g>
   <g id="patch_207">
    <path d="M 254.08241 61.353231 
L 258.009983 61.353231 
L 258.009983 57.425651 
L 254.08241 57.425651 
z
" clip-path="url(#p7d319b4cba)" style="stroke: #000000; stroke-linejoin: miter"/>
   </g>
   <g id="patch_208">
    <path d="M 268.234537 61.327963 
L 272.111575 61.327963 
L 272.111575 57.450925 
L 268.234537 57.450925 
z
" clip-path="url(#p7d319b4cba)" style="stroke: #000000; stroke-linejoin: miter"/>
   </g>
   <g id="patch_209">
    <path d="M 282.386474 61.302885 
L 286.213341 61.302885 
L 286.213341 57.476004 
L 282.386474 57.476004 
z
" clip-path="url(#p7d319b4cba)" style="stroke: #000000; stroke-linejoin: miter"/>
   </g>
   <g id="patch_210">
    <path d="M 296.527068 61.289136 
L 300.326451 61.289136 
L 300.326451 57.48976 
L 296.527068 57.48976 
z
" clip-path="url(#p7d319b4cba)" style="stroke: #000000; stroke-linejoin: miter"/>
   </g>
   <g id="patch_211">
    <path d="M 310.658419 61.284643 
L 314.448803 61.284643 
L 314.448803 57.494246 
L 310.658419 57.494246 
z
" clip-path="url(#p7d319b4cba)" style="stroke: #000000; stroke-linejoin: miter"/>
   </g>
   <g id="patch_212">
    <path d="M 324.836547 61.233347 
L 328.524352 61.233347 
L 328.524352 57.545536 
L 324.836547 57.545536 
z
" clip-path="url(#p7d319b4cba)" style="stroke: #000000; stroke-linejoin: miter"/>
   </g>
   <g id="patch_213">
    <path d="M 338.991395 61.205351 
L 342.623208 61.205351 
L 342.623208 57.573538 
L 338.991395 57.573538 
z
" clip-path="url(#p7d319b4cba)" style="stroke: #000000; stroke-linejoin: miter"/>
   </g>
   <g id="patch_214">
    <path d="M 353.166343 61.157268 
L 356.70199 61.157268 
L 356.70199 57.621621 
L 353.166343 57.621621 
z
" clip-path="url(#p7d319b4cba)" style="stroke: #000000; stroke-linejoin: miter"/>
   </g>
   <g id="patch_215">
    <path d="M 367.305751 61.144712 
L 370.816286 61.144712 
L 370.816286 57.634177 
L 367.305751 57.634177 
z
" clip-path="url(#p7d319b4cba)" style="stroke: #000000; stroke-linejoin: miter"/>
   </g>
   <g id="patch_216">
    <path d="M 381.498429 61.078872 
L 384.877284 61.078872 
L 384.877284 57.700017 
L 381.498429 57.700017 
z
" clip-path="url(#p7d319b4cba)" style="stroke: #000000; stroke-linejoin: miter"/>
   </g>
   <g id="patch_217">
    <path d="M 395.687227 61.016932 
L 398.94219 61.016932 
L 398.94219 57.761956 
L 395.687227 57.761956 
z
" clip-path="url(#p7d319b4cba)" style="stroke: #000000; stroke-linejoin: miter"/>
   </g>
   <g id="patch_218">
    <path d="M 409.828953 61.002072 
L 413.054195 61.002072 
L 413.054195 57.776823 
L 409.828953 57.776823 
z
" clip-path="url(#p7d319b4cba)" style="stroke: #000000; stroke-linejoin: miter"/>
   </g>
   <g id="patch_219">
    <path d="M 37.863684 51.542335 
L 50.423168 51.542335 
L 50.423168 38.982857 
L 37.863684 38.982857 
z
" clip-path="url(#p7d319b4cba)" style="stroke: #000000; stroke-linejoin: miter"/>
   </g>
   <g id="patch_220">
    <path d="M 53.323229 50.209643 
L 63.217327 50.209643 
L 63.217327 40.315548 
L 53.323229 40.315548 
z
" clip-path="url(#p7d319b4cba)" style="stroke: #000000; stroke-linejoin: miter"/>
   </g>
   <g id="patch_221">
    <path d="M 67.599343 50.060376 
L 77.194913 50.060376 
L 77.194913 40.464809 
L 67.599343 40.464809 
z
" clip-path="url(#p7d319b4cba)" style="stroke: #000000; stroke-linejoin: miter"/>
   </g>
   <g id="patch_222">
    <path d="M 82.095373 49.691205 
L 90.952594 49.691205 
L 90.952594 40.83398 
L 82.095373 40.83398 
z
" clip-path="url(#p7d319b4cba)" style="stroke: #000000; stroke-linejoin: miter"/>
   </g>
   <g id="patch_223">
    <path d="M 96.201278 49.712148 
L 105.100388 49.712148 
L 105.100388 40.813044 
L 96.201278 40.813044 
z
" clip-path="url(#p7d319b4cba)" style="stroke: #000000; stroke-linejoin: miter"/>
   </g>
   <g id="patch_224">
    <path d="M 110.67978 49.360497 
L 118.87559 49.360497 
L 118.87559 41.164688 
L 110.67978 41.164688 
z
" clip-path="url(#p7d319b4cba)" style="stroke: #000000; stroke-linejoin: miter"/>
   </g>
   <g id="patch_225">
    <path d="M 125.115844 49.051285 
L 132.693223 49.051285 
L 132.693223 41.473907 
L 125.115844 41.473907 
z
" clip-path="url(#p7d319b4cba)" style="stroke: #000000; stroke-linejoin: miter"/>
   </g>
   <g id="patch_226">
    <path d="M 139.511976 48.782005 
L 146.550808 48.782005 
L 146.550808 41.74318 
L 139.511976 41.74318 
z
" clip-path="url(#p7d319b4cba)" style="stroke: #000000; stroke-linejoin: miter"/>
   </g>
   <g id="patch_227">
    <path d="M 153.77529 48.645543 
L 160.541191 48.645543 
L 160.541191 41.879642 
L 153.77529 41.879642 
z
" clip-path="url(#p7d319b4cba)" style="stroke: #000000; stroke-linejoin: miter"/>
   </g>
   <g id="patch_228">
    <path d="M 168.113363 48.434323 
L 174.456823 48.434323 
L 174.456823 42.090863 
L 168.113363 42.090863 
z
" clip-path="url(#p7d319b4cba)" style="stroke: #000000; stroke-linejoin: miter"/>
   </g>
   <g id="patch_229">
    <path d="M 182.505985 48.168546 
L 188.317891 48.168546 
L 188.317891 42.356633 
L 182.505985 42.356633 
z
" clip-path="url(#p7d319b4cba)" style="stroke: #000000; stroke-linejoin: miter"/>
   </g>
   <g id="patch_230">
    <path d="M 196.736237 48.065158 
L 202.341369 48.065158 
L 202.341369 42.460034 
L 196.736237 42.460034 
z
" clip-path="url(#p7d319b4cba)" style="stroke: #000000; stroke-linejoin: miter"/>
   </g>
   <g id="patch_231">
    <path d="M 210.896932 48.031309 
L 216.434364 48.031309 
L 216.434364 42.493876 
L 210.896932 42.493876 
z
" clip-path="url(#p7d319b4cba)" style="stroke: #000000; stroke-linejoin: miter"/>
   </g>
   <g id="patch_232">
    <path d="M 225.035667 48.019426 
L 230.549333 48.019426 
L 230.549333 42.505759 
L 225.035667 42.505759 
z
" clip-path="url(#p7d319b4cba)" style="stroke: #000000; stroke-linejoin: miter"/>
   </g>
   <g id="patch_233">
    <path d="M 239.148224 48.03372 
L 244.69048 48.03372 
L 244.69048 42.491465 
L 239.148224 42.491465 
z
" clip-path="url(#p7d319b4cba)" style="stroke: #000000; stroke-linejoin: miter"/>
   </g>
   <g id="patch_234">
    <path d="M 253.263827 48.044963 
L 258.828567 48.044963 
L 258.828567 42.480215 
L 253.263827 42.480215 
z
" clip-path="url(#p7d319b4cba)" style="stroke: #000000; stroke-linejoin: miter"/>
   </g>
   <g id="patch_235">
    <path d="M 267.48283 47.952818 
L 272.863281 47.952818 
L 272.863281 42.572367 
L 267.48283 42.572367 
z
" clip-path="url(#p7d319b4cba)" style="stroke: #000000; stroke-linejoin: miter"/>
   </g>
   <g id="patch_236">
    <path d="M 281.622103 47.940383 
L 286.977685 47.940383 
L 286.977685 42.584802 
L 281.622103 42.584802 
z
" clip-path="url(#p7d319b4cba)" style="stroke: #000000; stroke-linejoin: miter"/>
   </g>
   <g id="patch_237">
    <path d="M 295.814889 47.87447 
L 301.03863 47.87447 
L 301.03863 42.650722 
L 295.814889 42.650722 
z
" clip-path="url(#p7d319b4cba)" style="stroke: #000000; stroke-linejoin: miter"/>
   </g>
   <g id="patch_238">
    <path d="M 309.99078 47.82543 
L 315.116469 47.82543 
L 315.116469 42.699748 
L 309.99078 42.699748 
z
" clip-path="url(#p7d319b4cba)" style="stroke: #000000; stroke-linejoin: miter"/>
   </g>
   <g id="patch_239">
    <path d="M 324.119707 47.823342 
L 329.241219 47.823342 
L 329.241219 42.701837 
L 324.119707 42.701837 
z
" clip-path="url(#p7d319b4cba)" style="stroke: #000000; stroke-linejoin: miter"/>
   </g>
   <g id="patch_240">
    <path d="M 338.294682 47.775232 
L 343.319947 47.775232 
L 343.319947 42.74996 
L 338.294682 42.74996 
z
" clip-path="url(#p7d319b4cba)" style="stroke: #000000; stroke-linejoin: miter"/>
   </g>
   <g id="patch_241">
    <path d="M 352.458044 47.738728 
L 357.410316 47.738728 
L 357.410316 42.786457 
L 352.458044 42.786457 
z
" clip-path="url(#p7d319b4cba)" style="stroke: #000000; stroke-linejoin: miter"/>
   </g>
   <g id="patch_242">
    <path d="M 366.609416 47.714182 
L 371.512594 47.714182 
L 371.512594 42.811004 
L 366.609416 42.811004 
z
" clip-path="url(#p7d319b4cba)" style="stroke: #000000; stroke-linejoin: miter"/>
   </g>
   <g id="patch_243">
    <path d="M 380.737373 47.713104 
L 385.638395 47.713104 
L 385.638395 42.812081 
L 380.737373 42.812081 
z
" clip-path="url(#p7d319b4cba)" style="stroke: #000000; stroke-linejoin: miter"/>
   </g>
   <g id="patch_244">
    <path d="M 394.886589 47.690719 
L 399.742829 47.690719 
L 399.742829 42.834473 
L 394.886589 42.834473 
z
" clip-path="url(#p7d319b4cba)" style="stroke: #000000; stroke-linejoin: miter"/>
   </g>
   <g id="patch_245">
    <path d="M 409.084871 47.619309 
L 413.798304 47.619309 
L 413.798304 42.905876 
L 409.084871 42.905876 
z
" clip-path="url(#p7d319b4cba)" style="stroke: #000000; stroke-linejoin: miter"/>
   </g>
   <g id="matplotlib.axis_1">
    <g id="xtick_1">
     <g id="line2d_1">
      <defs>
       <path id="m75ec46ed2c" d="M 0 0 
L 0 3.5 
" style="stroke: #000000; stroke-width: 0.8"/>
      </defs>
      <g>
       <use xlink:href="#m75ec46ed2c" x="44.143426" y="165.340833" style="stroke: #000000; stroke-width: 0.8"/>
      </g>
     </g>
     <g id="text_1">
      <!-- 1 -->
      <g transform="translate(40.962176 186.439271) scale(0.1 -0.1)">
       <defs>
        <path id="DejaVuSans-31" d="M 794 531 
L 1825 531 
L 1825 4091 
L 703 3866 
L 703 4441 
L 1819 4666 
L 2450 4666 
L 2450 531 
L 3481 531 
L 3481 0 
L 794 0 
L 794 531 
z
" transform="scale(0.015625)"/>
       </defs>
       <use xlink:href="#DejaVuSans-31"/>
      </g>
     </g>
    </g>
    <g id="xtick_2">
     <g id="line2d_2">
      <g>
       <use xlink:href="#m75ec46ed2c" x="411.441574" y="165.340833" style="stroke: #000000; stroke-width: 0.8"/>
      </g>
     </g>
     <g id="text_2">
      <!-- 100 -->
      <g transform="translate(401.897824 186.439271) scale(0.1 -0.1)">
       <defs>
        <path id="DejaVuSans-30" d="M 2034 4250 
Q 1547 4250 1301 3770 
Q 1056 3291 1056 2328 
Q 1056 1369 1301 889 
Q 1547 409 2034 409 
Q 2525 409 2770 889 
Q 3016 1369 3016 2328 
Q 3016 3291 2770 3770 
Q 2525 4250 2034 4250 
z
M 2034 4750 
Q 2819 4750 3233 4129 
Q 3647 3509 3647 2328 
Q 3647 1150 3233 529 
Q 2819 -91 2034 -91 
Q 1250 -91 836 529 
Q 422 1150 422 2328 
Q 422 3509 836 4129 
Q 1250 4750 2034 4750 
z
" transform="scale(0.015625)"/>
       </defs>
       <use xlink:href="#DejaVuSans-31"/>
       <use xlink:href="#DejaVuSans-30" x="63.623047"/>
       <use xlink:href="#DejaVuSans-30" x="127.246094"/>
      </g>
     </g>
    </g>
    <g id="text_3">
     <!-- Epoch -->
     <g transform="translate(212.481562 200.117396) scale(0.1 -0.1)">
      <defs>
       <path id="DejaVuSans-45" d="M 628 4666 
L 3578 4666 
L 3578 4134 
L 1259 4134 
L 1259 2753 
L 3481 2753 
L 3481 2222 
L 1259 2222 
L 1259 531 
L 3634 531 
L 3634 0 
L 628 0 
L 628 4666 
z
" transform="scale(0.015625)"/>
       <path id="DejaVuSans-70" d="M 1159 525 
L 1159 -1331 
L 581 -1331 
L 581 3500 
L 1159 3500 
L 1159 2969 
Q 1341 3281 1617 3432 
Q 1894 3584 2278 3584 
Q 2916 3584 3314 3078 
Q 3713 2572 3713 1747 
Q 3713 922 3314 415 
Q 2916 -91 2278 -91 
Q 1894 -91 1617 61 
Q 1341 213 1159 525 
z
M 3116 1747 
Q 3116 2381 2855 2742 
Q 2594 3103 2138 3103 
Q 1681 3103 1420 2742 
Q 1159 2381 1159 1747 
Q 1159 1113 1420 752 
Q 1681 391 2138 391 
Q 2594 391 2855 752 
Q 3116 1113 3116 1747 
z
" transform="scale(0.015625)"/>
       <path id="DejaVuSans-6f" d="M 1959 3097 
Q 1497 3097 1228 2736 
Q 959 2375 959 1747 
Q 959 1119 1226 758 
Q 1494 397 1959 397 
Q 2419 397 2687 759 
Q 2956 1122 2956 1747 
Q 2956 2369 2687 2733 
Q 2419 3097 1959 3097 
z
M 1959 3584 
Q 2709 3584 3137 3096 
Q 3566 2609 3566 1747 
Q 3566 888 3137 398 
Q 2709 -91 1959 -91 
Q 1206 -91 779 398 
Q 353 888 353 1747 
Q 353 2609 779 3096 
Q 1206 3584 1959 3584 
z
" transform="scale(0.015625)"/>
       <path id="DejaVuSans-63" d="M 3122 3366 
L 3122 2828 
Q 2878 2963 2633 3030 
Q 2388 3097 2138 3097 
Q 1578 3097 1268 2742 
Q 959 2388 959 1747 
Q 959 1106 1268 751 
Q 1578 397 2138 397 
Q 2388 397 2633 464 
Q 2878 531 3122 666 
L 3122 134 
Q 2881 22 2623 -34 
Q 2366 -91 2075 -91 
Q 1284 -91 818 406 
Q 353 903 353 1747 
Q 353 2603 823 3093 
Q 1294 3584 2113 3584 
Q 2378 3584 2631 3529 
Q 2884 3475 3122 3366 
z
" transform="scale(0.015625)"/>
       <path id="DejaVuSans-68" d="M 3513 2113 
L 3513 0 
L 2938 0 
L 2938 2094 
Q 2938 2591 2744 2837 
Q 2550 3084 2163 3084 
Q 1697 3084 1428 2787 
Q 1159 2491 1159 1978 
L 1159 0 
L 581 0 
L 581 4863 
L 1159 4863 
L 1159 2956 
Q 1366 3272 1645 3428 
Q 1925 3584 2291 3584 
Q 2894 3584 3203 3211 
Q 3513 2838 3513 2113 
z
" transform="scale(0.015625)"/>
      </defs>
      <use xlink:href="#DejaVuSans-45"/>
      <use xlink:href="#DejaVuSans-70" x="63.183594"/>
      <use xlink:href="#DejaVuSans-6f" x="126.660156"/>
      <use xlink:href="#DejaVuSans-63" x="187.841797"/>
      <use xlink:href="#DejaVuSans-68" x="242.822266"/>
     </g>
    </g>
   </g>
   <g id="matplotlib.axis_2">
    <g id="ytick_1">
     <g id="line2d_3">
      <defs>
       <path id="mb44e08ea7e" d="M 0 0 
L -3.5 0 
" style="stroke: #000000; stroke-width: 0.8"/>
      </defs>
      <g>
       <use xlink:href="#mb44e08ea7e" x="37.08" y="158.277407" style="stroke: #000000; stroke-width: 0.8"/>
      </g>
     </g>
     <g id="text_4">
      <!-- 2 -->
      <g transform="translate(17.2175 162.076626) scale(0.1 -0.1)">
       <defs>
        <path id="DejaVuSans-32" d="M 1228 531 
L 3431 531 
L 3431 0 
L 469 0 
L 469 531 
Q 828 903 1448 1529 
Q 2069 2156 2228 2338 
Q 2531 2678 2651 2914 
Q 2772 3150 2772 3378 
Q 2772 3750 2511 3984 
Q 2250 4219 1831 4219 
Q 1534 4219 1204 4116 
Q 875 4013 500 3803 
L 500 4441 
Q 881 4594 1212 4672 
Q 1544 4750 1819 4750 
Q 2544 4750 2975 4387 
Q 3406 4025 3406 3419 
Q 3406 3131 3298 2873 
Q 3191 2616 2906 2266 
Q 2828 2175 2409 1742 
Q 1991 1309 1228 531 
z
" transform="scale(0.015625)"/>
       </defs>
       <use xlink:href="#DejaVuSans-32"/>
      </g>
     </g>
    </g>
    <g id="ytick_2">
     <g id="line2d_4">
      <g>
       <use xlink:href="#mb44e08ea7e" x="37.08" y="144.150556" style="stroke: #000000; stroke-width: 0.8"/>
      </g>
     </g>
     <g id="text_5">
      <!-- 3 -->
      <g transform="translate(17.2175 147.949774) scale(0.1 -0.1)">
       <defs>
        <path id="DejaVuSans-33" d="M 2597 2516 
Q 3050 2419 3304 2112 
Q 3559 1806 3559 1356 
Q 3559 666 3084 287 
Q 2609 -91 1734 -91 
Q 1441 -91 1130 -33 
Q 819 25 488 141 
L 488 750 
Q 750 597 1062 519 
Q 1375 441 1716 441 
Q 2309 441 2620 675 
Q 2931 909 2931 1356 
Q 2931 1769 2642 2001 
Q 2353 2234 1838 2234 
L 1294 2234 
L 1294 2753 
L 1863 2753 
Q 2328 2753 2575 2939 
Q 2822 3125 2822 3475 
Q 2822 3834 2567 4026 
Q 2313 4219 1838 4219 
Q 1578 4219 1281 4162 
Q 984 4106 628 3988 
L 628 4550 
Q 988 4650 1302 4700 
Q 1616 4750 1894 4750 
Q 2613 4750 3031 4423 
Q 3450 4097 3450 3541 
Q 3450 3153 3228 2886 
Q 3006 2619 2597 2516 
z
" transform="scale(0.015625)"/>
       </defs>
       <use xlink:href="#DejaVuSans-33"/>
      </g>
     </g>
    </g>
    <g id="ytick_3">
     <g id="line2d_5">
      <g>
       <use xlink:href="#mb44e08ea7e" x="37.08" y="130.023704" style="stroke: #000000; stroke-width: 0.8"/>
      </g>
     </g>
     <g id="text_6">
      <!-- 5 -->
      <g transform="translate(17.2175 133.822922) scale(0.1 -0.1)">
       <defs>
        <path id="DejaVuSans-35" d="M 691 4666 
L 3169 4666 
L 3169 4134 
L 1269 4134 
L 1269 2991 
Q 1406 3038 1543 3061 
Q 1681 3084 1819 3084 
Q 2600 3084 3056 2656 
Q 3513 2228 3513 1497 
Q 3513 744 3044 326 
Q 2575 -91 1722 -91 
Q 1428 -91 1123 -41 
Q 819 9 494 109 
L 494 744 
Q 775 591 1075 516 
Q 1375 441 1709 441 
Q 2250 441 2565 725 
Q 2881 1009 2881 1497 
Q 2881 1984 2565 2268 
Q 2250 2553 1709 2553 
Q 1456 2553 1204 2497 
Q 953 2441 691 2322 
L 691 4666 
z
" transform="scale(0.015625)"/>
       </defs>
       <use xlink:href="#DejaVuSans-35"/>
      </g>
     </g>
    </g>
    <g id="ytick_4">
     <g id="line2d_6">
      <g>
       <use xlink:href="#mb44e08ea7e" x="37.08" y="115.896852" style="stroke: #000000; stroke-width: 0.8"/>
      </g>
     </g>
     <g id="text_7">
      <!-- 7 -->
      <g transform="translate(17.2175 119.696071) scale(0.1 -0.1)">
       <defs>
        <path id="DejaVuSans-37" d="M 525 4666 
L 3525 4666 
L 3525 4397 
L 1831 0 
L 1172 0 
L 2766 4134 
L 525 4134 
L 525 4666 
z
" transform="scale(0.015625)"/>
       </defs>
       <use xlink:href="#DejaVuSans-37"/>
      </g>
     </g>
    </g>
    <g id="ytick_5">
     <g id="line2d_7">
      <g>
       <use xlink:href="#mb44e08ea7e" x="37.08" y="101.77" style="stroke: #000000; stroke-width: 0.8"/>
      </g>
     </g>
     <g id="text_8">
      <!-- 11 -->
      <g transform="translate(10.855 105.569219) scale(0.1 -0.1)">
       <use xlink:href="#DejaVuSans-31"/>
       <use xlink:href="#DejaVuSans-31" x="63.623047"/>
      </g>
     </g>
    </g>
    <g id="ytick_6">
     <g id="line2d_8">
      <g>
       <use xlink:href="#mb44e08ea7e" x="37.08" y="87.643148" style="stroke: #000000; stroke-width: 0.8"/>
      </g>
     </g>
     <g id="text_9">
      <!-- 13 -->
      <g transform="translate(10.855 91.442367) scale(0.1 -0.1)">
       <use xlink:href="#DejaVuSans-31"/>
       <use xlink:href="#DejaVuSans-33" x="63.623047"/>
      </g>
     </g>
    </g>
    <g id="ytick_7">
     <g id="line2d_9">
      <g>
       <use xlink:href="#mb44e08ea7e" x="37.08" y="73.516296" style="stroke: #000000; stroke-width: 0.8"/>
      </g>
     </g>
     <g id="text_10">
      <!-- 17 -->
      <g transform="translate(10.855 77.315515) scale(0.1 -0.1)">
       <use xlink:href="#DejaVuSans-31"/>
       <use xlink:href="#DejaVuSans-37" x="63.623047"/>
      </g>
     </g>
    </g>
    <g id="ytick_8">
     <g id="line2d_10">
      <g>
       <use xlink:href="#mb44e08ea7e" x="37.08" y="59.389444" style="stroke: #000000; stroke-width: 0.8"/>
      </g>
     </g>
     <g id="text_11">
      <!-- 19 -->
      <g transform="translate(10.855 63.188663) scale(0.1 -0.1)">
       <defs>
        <path id="DejaVuSans-39" d="M 703 97 
L 703 672 
Q 941 559 1184 500 
Q 1428 441 1663 441 
Q 2288 441 2617 861 
Q 2947 1281 2994 2138 
Q 2813 1869 2534 1725 
Q 2256 1581 1919 1581 
Q 1219 1581 811 2004 
Q 403 2428 403 3163 
Q 403 3881 828 4315 
Q 1253 4750 1959 4750 
Q 2769 4750 3195 4129 
Q 3622 3509 3622 2328 
Q 3622 1225 3098 567 
Q 2575 -91 1691 -91 
Q 1453 -91 1209 -44 
Q 966 3 703 97 
z
M 1959 2075 
Q 2384 2075 2632 2365 
Q 2881 2656 2881 3163 
Q 2881 3666 2632 3958 
Q 2384 4250 1959 4250 
Q 1534 4250 1286 3958 
Q 1038 3666 1038 3163 
Q 1038 2656 1286 2365 
Q 1534 2075 1959 2075 
z
" transform="scale(0.015625)"/>
       </defs>
       <use xlink:href="#DejaVuSans-31"/>
       <use xlink:href="#DejaVuSans-39" x="63.623047"/>
      </g>
     </g>
    </g>
    <g id="ytick_9">
     <g id="line2d_11">
      <g>
       <use xlink:href="#mb44e08ea7e" x="37.08" y="45.262593" style="stroke: #000000; stroke-width: 0.8"/>
      </g>
     </g>
     <g id="text_12">
      <!--  -->
      <g transform="translate(16.5675 49.061811) scale(0.1 -0.1)">
       <defs>
        <path id="DejaVuSans-2119" d="M 938 4353 
L 938 313 
L 1569 313 
L 1569 4353 
L 938 4353 
z
M 1881 4353 
L 1881 2284 
L 2825 2284 
Q 2900 2284 2972 2291 
L 2972 4347 
Q 2900 4353 2825 4353 
L 1881 4353 
z
M 625 4666 
L 2678 4666 
Q 3459 4666 3861 4323 
Q 4263 3981 4263 3322 
Q 4263 2656 3861 2315 
Q 3459 1975 2675 1975 
L 1881 1975 
L 1881 0 
L 625 0 
L 625 4666 
z
M 3300 4281 
L 3300 2359 
Q 3488 2428 3628 2556 
Q 3919 2825 3919 3322 
Q 3919 3816 3631 4084 
Q 3494 4213 3300 4281 
z
" transform="scale(0.015625)"/>
       </defs>
       <use xlink:href="#DejaVuSans-2119"/>
      </g>
     </g>
    </g>
   </g>
  </g>
 </g>
 <defs>
  <clipPath id="p7d319b4cba">
   <rect x="37.08" y="38.199167" width="381.425" height="127.141667"/>
  </clipPath>
 </defs>
</svg>
