<?xml version="1.0" encoding="utf-8" standalone="no"?>
<!DOCTYPE svg PUBLIC "-//W3C//DTD SVG 1.1//EN"
  "http://www.w3.org/Graphics/SVG/1.1/DTD/svg11.dtd">
<svg xmlns:xlink="http://www.w3.org/1999/xlink" width="432pt" height="216pt" viewBox="0 0 432 216" xmlns="http://www.w3.org/2000/svg" version="1.1">
 <metadata>
  <rdf:RDF xmlns:dc="http://purl.org/dc/elements/1.1/" xmlns:cc="http://creativecommons.org/ns#" xmlns:rdf="http://www.w3.org/1999/02/22-rdf-syntax-ns#">
   <cc:Work>
    <dc:type rdf:resource="http://purl.org/dc/dcmitype/StillImage"/>
    <dc:date>2024-08-13T20:40:26.229595</dc:date>
    <dc:format>image/svg+xml</dc:format>
    <dc:creator>
     <cc:Agent>
      <dc:title>Matplotlib v3.9.1.post1, https://matplotlib.org/</dc:title>
     </cc:Agent>
    </dc:creator>
   </cc:Work>
  </rdf:RDF>
 </metadata>
 <defs>
  <style type="text/css">*{stroke-linejoin: round; stroke-linecap: butt}</style>
 </defs>
 <g id="figure_1">
  <g id="patch_1">
   <path d="M 0 216 
L 432 216 
L 432 0 
L 0 0 
z
" style="fill: #ffffff"/>
  </g>
  <g id="axes_1">
   <g id="patch_2">
    <path d="M 37.08 170.399655 
L 421.2 170.399655 
L 421.2 24.698966 
L 37.08 24.698966 
z
" style="fill: #ffffff"/>
   </g>
   <g id="patch_3">
    <path d="M 45.02731 162.452345 
L 55.623724 162.452345 
L 55.623724 151.855931 
L 45.02731 151.855931 
z
" clip-path="url(#p514d84f826)" style="stroke: #000000; stroke-linejoin: miter"/>
   </g>
   <g id="patch_4">
    <path d="M 59.500245 161.224928 
L 67.641825 161.224928 
L 67.641825 153.083348 
L 59.500245 153.083348 
z
" clip-path="url(#p514d84f826)" style="stroke: #000000; stroke-linejoin: miter"/>
   </g>
   <g id="patch_5">
    <path d="M 76.018487 157.952203 
L 77.614617 157.952203 
L 77.614617 156.356073 
L 76.018487 156.356073 
z
" clip-path="url(#p514d84f826)" style="stroke: #000000; stroke-linejoin: miter"/>
   </g>
   <g id="patch_6">
    <path d="M 89.663494 157.552711 
L 90.46064 157.552711 
L 90.46064 156.755565 
L 89.663494 156.755565 
z
" clip-path="url(#p514d84f826)" style="stroke: #000000; stroke-linejoin: miter"/>
   </g>
   <g id="patch_7">
    <path d="M 102.930751 157.530972 
L 103.684421 157.530972 
L 103.684421 156.777303 
L 102.930751 156.777303 
z
" clip-path="url(#p514d84f826)" style="stroke: #000000; stroke-linejoin: miter"/>
   </g>
   <g id="patch_8">
    <path d="M 116.345018 157.362224 
L 116.761189 157.362224 
L 116.761189 156.946052 
L 116.345018 156.946052 
z
" clip-path="url(#p514d84f826)" style="stroke: #000000; stroke-linejoin: miter"/>
   </g>
   <g id="patch_9">
    <path d="M 129.402187 157.550573 
L 130.195061 157.550573 
L 130.195061 156.757703 
L 129.402187 156.757703 
z
" clip-path="url(#p514d84f826)" style="stroke: #000000; stroke-linejoin: miter"/>
   </g>
   <g id="patch_10">
    <path d="M 142.679714 157.518563 
L 143.408562 157.518563 
L 143.408562 156.789713 
L 142.679714 156.789713 
z
" clip-path="url(#p514d84f826)" style="stroke: #000000; stroke-linejoin: miter"/>
   </g>
   <g id="patch_11">
    <path d="M 155.69857 157.745222 
L 156.88074 157.745222 
L 156.88074 156.563054 
L 155.69857 156.563054 
z
" clip-path="url(#p514d84f826)" style="stroke: #000000; stroke-linejoin: miter"/>
   </g>
   <g id="patch_12">
    <path d="M 168.955835 157.733477 
L 170.11451 157.733477 
L 170.11451 156.574799 
L 168.955835 156.574799 
z
" clip-path="url(#p514d84f826)" style="stroke: #000000; stroke-linejoin: miter"/>
   </g>
   <g id="patch_13">
    <path d="M 182.26527 157.669555 
L 183.296109 157.669555 
L 183.296109 156.638721 
L 182.26527 156.638721 
z
" clip-path="url(#p514d84f826)" style="stroke: #000000; stroke-linejoin: miter"/>
   </g>
   <g id="patch_14">
    <path d="M 195.399285 157.781055 
L 196.653116 157.781055 
L 196.653116 156.527221 
L 195.399285 156.527221 
z
" clip-path="url(#p514d84f826)" style="stroke: #000000; stroke-linejoin: miter"/>
   </g>
   <g id="patch_15">
    <path d="M 208.788743 157.637124 
L 209.754718 157.637124 
L 209.754718 156.671152 
L 208.788743 156.671152 
z
" clip-path="url(#p514d84f826)" style="stroke: #000000; stroke-linejoin: miter"/>
   </g>
   <g id="patch_16">
    <path d="M 221.89032 157.781058 
L 223.144163 157.781058 
L 223.144163 156.527217 
L 221.89032 156.527217 
z
" clip-path="url(#p514d84f826)" style="stroke: #000000; stroke-linejoin: miter"/>
   </g>
   <g id="patch_17">
    <path d="M 235.097802 157.819093 
L 236.427715 157.819093 
L 236.427715 156.489183 
L 235.097802 156.489183 
z
" clip-path="url(#p514d84f826)" style="stroke: #000000; stroke-linejoin: miter"/>
   </g>
   <g id="patch_18">
    <path d="M 248.409536 157.75288 
L 249.607016 157.75288 
L 249.607016 156.555396 
L 248.409536 156.555396 
z
" clip-path="url(#p514d84f826)" style="stroke: #000000; stroke-linejoin: miter"/>
   </g>
   <g id="patch_19">
    <path d="M 262.056975 157.35095 
L 262.450598 157.35095 
L 262.450598 156.957326 
L 262.056975 156.957326 
z
" clip-path="url(#p514d84f826)" style="stroke: #000000; stroke-linejoin: miter"/>
   </g>
   <g id="patch_20">
    <path d="M 275.217593 157.435865 
L 275.781052 157.435865 
L 275.781052 156.87241 
L 275.217593 156.87241 
z
" clip-path="url(#p514d84f826)" style="stroke: #000000; stroke-linejoin: miter"/>
   </g>
   <g id="patch_21">
    <path d="M 288.273784 157.625188 
L 289.215871 157.625188 
L 289.215871 156.683088 
L 288.273784 156.683088 
z
" clip-path="url(#p514d84f826)" style="stroke: #000000; stroke-linejoin: miter"/>
   </g>
   <g id="patch_22">
    <path d="M 301.490854 157.653618 
L 302.489811 157.653618 
L 302.489811 156.654658 
L 301.490854 156.654658 
z
" clip-path="url(#p514d84f826)" style="stroke: #000000; stroke-linejoin: miter"/>
   </g>
   <g id="patch_23">
    <path d="M 314.901319 157.48869 
L 315.570431 157.48869 
L 315.570431 156.819586 
L 314.901319 156.819586 
z
" clip-path="url(#p514d84f826)" style="stroke: #000000; stroke-linejoin: miter"/>
   </g>
   <g id="patch_24">
    <path d="M 328.062328 157.573192 
L 328.90043 157.573192 
L 328.90043 156.735083 
L 328.062328 156.735083 
z
" clip-path="url(#p514d84f826)" style="stroke: #000000; stroke-linejoin: miter"/>
   </g>
   <g id="patch_25">
    <path d="M 341.247212 157.633828 
L 342.206581 157.633828 
L 342.206581 156.674448 
L 341.247212 156.674448 
z
" clip-path="url(#p514d84f826)" style="stroke: #000000; stroke-linejoin: miter"/>
   </g>
   <g id="patch_26">
    <path d="M 354.428939 157.697613 
L 355.515889 157.697613 
L 355.515889 156.610663 
L 354.428939 156.610663 
z
" clip-path="url(#p514d84f826)" style="stroke: #000000; stroke-linejoin: miter"/>
   </g>
   <g id="patch_27">
    <path d="M 367.974388 157.397684 
L 368.461474 157.397684 
L 368.461474 156.910591 
L 367.974388 156.910591 
z
" clip-path="url(#p514d84f826)" style="stroke: #000000; stroke-linejoin: miter"/>
   </g>
   <g id="patch_28">
    <path d="M 381.028683 157.58891 
L 381.898239 157.58891 
L 381.898239 156.719366 
L 381.028683 156.719366 
z
" clip-path="url(#p514d84f826)" style="stroke: #000000; stroke-linejoin: miter"/>
   </g>
   <g id="patch_29">
    <path d="M 394.38094 157.482164 
L 395.036991 157.482164 
L 395.036991 156.826112 
L 394.38094 156.826112 
z
" clip-path="url(#p514d84f826)" style="stroke: #000000; stroke-linejoin: miter"/>
   </g>
   <g id="patch_30">
    <path d="M 45.041801 149.192337 
L 55.609234 149.192337 
L 55.609234 138.624904 
L 45.041801 138.624904 
z
" clip-path="url(#p514d84f826)" style="stroke: #000000; stroke-linejoin: miter"/>
   </g>
   <g id="patch_31">
    <path d="M 58.341515 149.13814 
L 68.800553 149.13814 
L 68.800553 138.679102 
L 58.341515 138.679102 
z
" clip-path="url(#p514d84f826)" style="stroke: #000000; stroke-linejoin: miter"/>
   </g>
   <g id="patch_32">
    <path d="M 71.521953 149.203218 
L 82.111147 149.203218 
L 82.111147 138.614022 
L 71.521953 138.614022 
z
" clip-path="url(#p514d84f826)" style="stroke: #000000; stroke-linejoin: miter"/>
   </g>
   <g id="patch_33">
    <path d="M 84.817537 149.153151 
L 95.306598 149.153151 
L 95.306598 138.664089 
L 84.817537 138.664089 
z
" clip-path="url(#p514d84f826)" style="stroke: #000000; stroke-linejoin: miter"/>
   </g>
   <g id="patch_34">
    <path d="M 98.079002 149.137205 
L 108.536174 149.137205 
L 108.536174 138.680036 
L 98.079002 138.680036 
z
" clip-path="url(#p514d84f826)" style="stroke: #000000; stroke-linejoin: miter"/>
   </g>
   <g id="patch_35">
    <path d="M 111.332474 149.129252 
L 121.773733 149.129252 
L 121.773733 138.687991 
L 111.332474 138.687991 
z
" clip-path="url(#p514d84f826)" style="stroke: #000000; stroke-linejoin: miter"/>
   </g>
   <g id="patch_36">
    <path d="M 124.609754 149.097485 
L 134.987481 149.097485 
L 134.987481 138.719757 
L 124.609754 138.719757 
z
" clip-path="url(#p514d84f826)" style="stroke: #000000; stroke-linejoin: miter"/>
   </g>
   <g id="patch_37">
    <path d="M 137.927141 149.025619 
L 148.161141 149.025619 
L 148.161141 138.79162 
L 137.927141 138.79162 
z
" clip-path="url(#p514d84f826)" style="stroke: #000000; stroke-linejoin: miter"/>
   </g>
   <g id="patch_38">
    <path d="M 151.307137 148.89114 
L 161.272173 148.89114 
L 161.272173 138.9261 
L 151.307137 138.9261 
z
" clip-path="url(#p514d84f826)" style="stroke: #000000; stroke-linejoin: miter"/>
   </g>
   <g id="patch_39">
    <path d="M 164.828119 148.61567 
L 174.242214 148.61567 
L 174.242214 139.201573 
L 164.828119 139.201573 
z
" clip-path="url(#p514d84f826)" style="stroke: #000000; stroke-linejoin: miter"/>
   </g>
   <g id="patch_40">
    <path d="M 178.51718 148.172124 
L 187.044187 148.172124 
L 187.044187 139.645118 
L 178.51718 139.645118 
z
" clip-path="url(#p514d84f826)" style="stroke: #000000; stroke-linejoin: miter"/>
   </g>
   <g id="patch_41">
    <path d="M 192.294918 147.639912 
L 199.757496 147.639912 
L 199.757496 140.177331 
L 192.294918 140.177331 
z
" clip-path="url(#p514d84f826)" style="stroke: #000000; stroke-linejoin: miter"/>
   </g>
   <g id="patch_42">
    <path d="M 206.210255 146.97009 
L 212.333194 146.97009 
L 212.333194 140.847151 
L 206.210255 140.847151 
z
" clip-path="url(#p514d84f826)" style="stroke: #000000; stroke-linejoin: miter"/>
   </g>
   <g id="patch_43">
    <path d="M 219.959204 146.466661 
L 225.075279 146.466661 
L 225.075279 141.350582 
L 219.959204 141.350582 
z
" clip-path="url(#p514d84f826)" style="stroke: #000000; stroke-linejoin: miter"/>
   </g>
   <g id="patch_44">
    <path d="M 233.682157 145.989223 
L 237.84336 145.989223 
L 237.84336 141.828019 
L 233.682157 141.828019 
z
" clip-path="url(#p514d84f826)" style="stroke: #000000; stroke-linejoin: miter"/>
   </g>
   <g id="patch_45">
    <path d="M 247.021554 145.895339 
L 250.994985 145.895339 
L 250.994985 141.921902 
L 247.021554 141.921902 
z
" clip-path="url(#p514d84f826)" style="stroke: #000000; stroke-linejoin: miter"/>
   </g>
   <g id="patch_46">
    <path d="M 260.937384 145.225032 
L 263.570215 145.225032 
L 263.570215 142.592208 
L 260.937384 142.592208 
z
" clip-path="url(#p514d84f826)" style="stroke: #000000; stroke-linejoin: miter"/>
   </g>
   <g id="patch_47">
    <path d="M 274.25105 145.156887 
L 276.747596 145.156887 
L 276.747596 142.660354 
L 274.25105 142.660354 
z
" clip-path="url(#p514d84f826)" style="stroke: #000000; stroke-linejoin: miter"/>
   </g>
   <g id="patch_48">
    <path d="M 287.717853 144.935597 
L 289.771802 144.935597 
L 289.771802 142.881645 
L 287.717853 142.881645 
z
" clip-path="url(#p514d84f826)" style="stroke: #000000; stroke-linejoin: miter"/>
   </g>
   <g id="patch_49">
    <path d="M 301.056038 144.842936 
L 302.924677 144.842936 
L 302.924677 142.974305 
L 301.056038 142.974305 
z
" clip-path="url(#p514d84f826)" style="stroke: #000000; stroke-linejoin: miter"/>
   </g>
   <g id="patch_50">
    <path d="M 314.407158 144.737316 
L 316.064541 144.737316 
L 316.064541 143.079926 
L 314.407158 143.079926 
z
" clip-path="url(#p514d84f826)" style="stroke: #000000; stroke-linejoin: miter"/>
   </g>
   <g id="patch_51">
    <path d="M 327.61627 144.773725 
L 329.346488 144.773725 
L 329.346488 143.043516 
L 327.61627 143.043516 
z
" clip-path="url(#p514d84f826)" style="stroke: #000000; stroke-linejoin: miter"/>
   </g>
   <g id="patch_52">
    <path d="M 340.566731 145.068793 
L 342.887087 145.068793 
L 342.887087 142.748449 
L 340.566731 142.748449 
z
" clip-path="url(#p514d84f826)" style="stroke: #000000; stroke-linejoin: miter"/>
   </g>
   <g id="patch_53">
    <path d="M 353.884882 144.996159 
L 356.059971 144.996159 
L 356.059971 142.821081 
L 353.884882 142.821081 
z
" clip-path="url(#p514d84f826)" style="stroke: #000000; stroke-linejoin: miter"/>
   </g>
   <g id="patch_54">
    <path d="M 367.481592 144.644965 
L 368.95427 144.644965 
L 368.95427 143.172275 
L 367.481592 143.172275 
z
" clip-path="url(#p514d84f826)" style="stroke: #000000; stroke-linejoin: miter"/>
   </g>
   <g id="patch_55">
    <path d="M 380.807195 144.564865 
L 382.119676 144.564865 
L 382.119676 143.252376 
L 380.807195 143.252376 
z
" clip-path="url(#p514d84f826)" style="stroke: #000000; stroke-linejoin: miter"/>
   </g>
   <g id="patch_56">
    <path d="M 393.95959 144.658005 
L 395.458366 144.658005 
L 395.458366 143.159236 
L 393.95959 143.159236 
z
" clip-path="url(#p514d84f826)" style="stroke: #000000; stroke-linejoin: miter"/>
   </g>
   <g id="patch_57">
    <path d="M 45.495755 135.492867 
L 55.15528 135.492867 
L 55.15528 125.833343 
L 45.495755 125.833343 
z
" clip-path="url(#p514d84f826)" style="stroke: #000000; stroke-linejoin: miter"/>
   </g>
   <g id="patch_58">
    <path d="M 59.623822 134.610316 
L 67.518247 134.610316 
L 67.518247 126.715891 
L 59.623822 126.715891 
z
" clip-path="url(#p514d84f826)" style="stroke: #000000; stroke-linejoin: miter"/>
   </g>
   <g id="patch_59">
    <path d="M 75.910272 131.569383 
L 77.722831 131.569383 
L 77.722831 129.756824 
L 75.910272 129.756824 
z
" clip-path="url(#p514d84f826)" style="stroke: #000000; stroke-linejoin: miter"/>
   </g>
   <g id="patch_60">
    <path d="M 89.643987 131.081185 
L 90.48015 131.081185 
L 90.48015 130.245022 
L 89.643987 130.245022 
z
" clip-path="url(#p514d84f826)" style="stroke: #000000; stroke-linejoin: miter"/>
   </g>
   <g id="patch_61">
    <path d="M 102.980587 130.990101 
L 103.634582 130.990101 
L 103.634582 130.336104 
L 102.980587 130.336104 
z
" clip-path="url(#p514d84f826)" style="stroke: #000000; stroke-linejoin: miter"/>
   </g>
   <g id="patch_62">
    <path d="M 116.207406 131.008798 
L 116.898795 131.008798 
L 116.898795 130.317409 
L 116.207406 130.317409 
z
" clip-path="url(#p514d84f826)" style="stroke: #000000; stroke-linejoin: miter"/>
   </g>
   <g id="patch_63">
    <path d="M 129.522658 130.939066 
L 130.074584 130.939066 
L 130.074584 130.38714 
L 129.522658 130.38714 
z
" clip-path="url(#p514d84f826)" style="stroke: #000000; stroke-linejoin: miter"/>
   </g>
   <g id="patch_64">
    <path d="M 142.679619 131.027624 
L 143.408657 131.027624 
L 143.408657 130.298584 
L 142.679619 130.298584 
z
" clip-path="url(#p514d84f826)" style="stroke: #000000; stroke-linejoin: miter"/>
   </g>
   <g id="patch_65">
    <path d="M 155.676464 131.276296 
L 156.902846 131.276296 
L 156.902846 130.04991 
L 155.676464 130.04991 
z
" clip-path="url(#p514d84f826)" style="stroke: #000000; stroke-linejoin: miter"/>
   </g>
   <g id="patch_66">
    <path d="M 169.048831 131.149449 
L 170.021526 131.149449 
L 170.021526 130.176759 
L 169.048831 130.176759 
z
" clip-path="url(#p514d84f826)" style="stroke: #000000; stroke-linejoin: miter"/>
   </g>
   <g id="patch_67">
    <path d="M 182.319726 131.124067 
L 183.241653 131.124067 
L 183.241653 130.20214 
L 182.319726 130.20214 
z
" clip-path="url(#p514d84f826)" style="stroke: #000000; stroke-linejoin: miter"/>
   </g>
   <g id="patch_68">
    <path d="M 195.628744 131.060568 
L 196.42367 131.060568 
L 196.42367 130.26564 
L 195.628744 130.26564 
z
" clip-path="url(#p514d84f826)" style="stroke: #000000; stroke-linejoin: miter"/>
   </g>
   <g id="patch_69">
    <path d="M 208.655565 131.279261 
L 209.887883 131.279261 
L 209.887883 130.046947 
L 208.655565 130.046947 
z
" clip-path="url(#p514d84f826)" style="stroke: #000000; stroke-linejoin: miter"/>
   </g>
   <g id="patch_70">
    <path d="M 222.242308 130.938035 
L 222.792175 130.938035 
L 222.792175 130.388173 
L 222.242308 130.388173 
z
" clip-path="url(#p514d84f826)" style="stroke: #000000; stroke-linejoin: miter"/>
   </g>
   <g id="patch_71">
    <path d="M 235.461614 130.964248 
L 236.063903 130.964248 
L 236.063903 130.361959 
L 235.461614 130.361959 
z
" clip-path="url(#p514d84f826)" style="stroke: #000000; stroke-linejoin: miter"/>
   </g>
   <g id="patch_72">
    <path d="M 248.525194 131.146186 
L 249.491358 131.146186 
L 249.491358 130.180021 
L 248.525194 130.180021 
z
" clip-path="url(#p514d84f826)" style="stroke: #000000; stroke-linejoin: miter"/>
   </g>
   <g id="patch_73">
    <path d="M 261.880924 131.035974 
L 262.626662 131.035974 
L 262.626662 130.290235 
L 261.880924 130.290235 
z
" clip-path="url(#p514d84f826)" style="stroke: #000000; stroke-linejoin: miter"/>
   </g>
   <g id="patch_74">
    <path d="M 275.047947 131.114478 
L 275.950699 131.114478 
L 275.950699 130.211731 
L 275.047947 130.211731 
z
" clip-path="url(#p514d84f826)" style="stroke: #000000; stroke-linejoin: miter"/>
   </g>
   <g id="patch_75">
    <path d="M 288.560124 130.847799 
L 288.929506 130.847799 
L 288.929506 130.478406 
L 288.560124 130.478406 
z
" clip-path="url(#p514d84f826)" style="stroke: #000000; stroke-linejoin: miter"/>
   </g>
   <g id="patch_76">
    <path d="M 301.305013 131.348424 
L 302.675651 131.348424 
L 302.675651 129.977781 
L 301.305013 129.977781 
z
" clip-path="url(#p514d84f826)" style="stroke: #000000; stroke-linejoin: miter"/>
   </g>
   <g id="patch_77">
    <path d="M 314.769871 131.129107 
L 315.701878 131.129107 
L 315.701878 130.1971 
L 314.769871 130.1971 
z
" clip-path="url(#p514d84f826)" style="stroke: #000000; stroke-linejoin: miter"/>
   </g>
   <g id="patch_78">
    <path d="M 328.221415 130.923074 
L 328.741369 130.923074 
L 328.741369 130.403132 
L 328.221415 130.403132 
z
" clip-path="url(#p514d84f826)" style="stroke: #000000; stroke-linejoin: miter"/>
   </g>
   <g id="patch_79">
    <path d="M 340.85196 131.53805 
L 342.601858 131.53805 
L 342.601858 129.788161 
L 340.85196 129.788161 
z
" clip-path="url(#p514d84f826)" style="stroke: #000000; stroke-linejoin: miter"/>
   </g>
   <g id="patch_80">
    <path d="M 354.710049 130.925467 
L 355.234779 130.925467 
L 355.234779 130.400739 
L 354.710049 130.400739 
z
" clip-path="url(#p514d84f826)" style="stroke: #000000; stroke-linejoin: miter"/>
   </g>
   <g id="patch_81">
    <path d="M 368.040503 130.840527 
L 368.395359 130.840527 
L 368.395359 130.485679 
L 368.040503 130.485679 
z
" clip-path="url(#p514d84f826)" style="stroke: #000000; stroke-linejoin: miter"/>
   </g>
   <g id="patch_82">
    <path d="M 381.131406 130.995138 
L 381.795465 130.995138 
L 381.795465 130.331071 
L 381.131406 130.331071 
z
" clip-path="url(#p514d84f826)" style="stroke: #000000; stroke-linejoin: miter"/>
   </g>
   <g id="patch_83">
    <path d="M 394.540986 130.831076 
L 394.876919 130.831076 
L 394.876919 130.495131 
L 394.540986 130.495131 
z
" clip-path="url(#p514d84f826)" style="stroke: #000000; stroke-linejoin: miter"/>
   </g>
   <g id="patch_84">
    <path d="M 45.733839 122.009263 
L 54.917195 122.009263 
L 54.917195 112.825906 
L 45.733839 112.825906 
z
" clip-path="url(#p514d84f826)" style="stroke: #000000; stroke-linejoin: miter"/>
   </g>
   <g id="patch_85">
    <path d="M 59.232131 121.756489 
L 67.909938 121.756489 
L 67.909938 113.078683 
L 59.232131 113.078683 
z
" clip-path="url(#p514d84f826)" style="stroke: #000000; stroke-linejoin: miter"/>
   </g>
   <g id="patch_86">
    <path d="M 72.516883 121.717255 
L 81.11622 121.717255 
L 81.11622 113.117918 
L 72.516883 113.117918 
z
" clip-path="url(#p514d84f826)" style="stroke: #000000; stroke-linejoin: miter"/>
   </g>
   <g id="patch_87">
    <path d="M 85.805681 121.673974 
L 94.318457 121.673974 
L 94.318457 113.161198 
L 85.805681 113.161198 
z
" clip-path="url(#p514d84f826)" style="stroke: #000000; stroke-linejoin: miter"/>
   </g>
   <g id="patch_88">
    <path d="M 99.086646 121.638526 
L 107.528526 121.638526 
L 107.528526 113.196649 
L 99.086646 113.196649 
z
" clip-path="url(#p514d84f826)" style="stroke: #000000; stroke-linejoin: miter"/>
   </g>
   <g id="patch_89">
    <path d="M 112.41741 121.553277 
L 120.688791 121.553277 
L 120.688791 113.281896 
L 112.41741 113.281896 
z
" clip-path="url(#p514d84f826)" style="stroke: #000000; stroke-linejoin: miter"/>
   </g>
   <g id="patch_90">
    <path d="M 125.761197 121.455007 
L 133.836038 121.455007 
L 133.836038 113.380163 
L 125.761197 113.380163 
z
" clip-path="url(#p514d84f826)" style="stroke: #000000; stroke-linejoin: miter"/>
   </g>
   <g id="patch_91">
    <path d="M 139.169439 121.292289 
L 146.918844 121.292289 
L 146.918844 113.542887 
L 139.169439 113.542887 
z
" clip-path="url(#p514d84f826)" style="stroke: #000000; stroke-linejoin: miter"/>
   </g>
   <g id="patch_92">
    <path d="M 152.607908 121.099336 
L 159.971402 121.099336 
L 159.971402 113.735836 
L 152.607908 113.735836 
z
" clip-path="url(#p514d84f826)" style="stroke: #000000; stroke-linejoin: miter"/>
   </g>
   <g id="patch_93">
    <path d="M 166.208913 120.743846 
L 172.861432 120.743846 
L 172.861432 114.091323 
L 166.208913 114.091323 
z
" clip-path="url(#p514d84f826)" style="stroke: #000000; stroke-linejoin: miter"/>
   </g>
   <g id="patch_94">
    <path d="M 179.709683 120.488596 
L 185.851696 120.488596 
L 185.851696 114.34658 
L 179.709683 114.34658 
z
" clip-path="url(#p514d84f826)" style="stroke: #000000; stroke-linejoin: miter"/>
   </g>
   <g id="patch_95">
    <path d="M 193.289062 120.154735 
L 198.763352 120.154735 
L 198.763352 114.680441 
L 193.289062 114.680441 
z
" clip-path="url(#p514d84f826)" style="stroke: #000000; stroke-linejoin: miter"/>
   </g>
   <g id="patch_96">
    <path d="M 206.912349 119.776965 
L 211.6311 119.776965 
L 211.6311 115.058211 
L 206.912349 115.058211 
z
" clip-path="url(#p514d84f826)" style="stroke: #000000; stroke-linejoin: miter"/>
   </g>
   <g id="patch_97">
    <path d="M 220.347471 119.58736 
L 224.687024 119.58736 
L 224.687024 115.247809 
L 220.347471 115.247809 
z
" clip-path="url(#p514d84f826)" style="stroke: #000000; stroke-linejoin: miter"/>
   </g>
   <g id="patch_98">
    <path d="M 233.950408 119.229937 
L 237.575109 119.229937 
L 237.575109 115.605236 
L 233.950408 115.605236 
z
" clip-path="url(#p514d84f826)" style="stroke: #000000; stroke-linejoin: miter"/>
   </g>
   <g id="patch_99">
    <path d="M 247.526553 118.899316 
L 250.490011 118.899316 
L 250.490011 115.935857 
L 247.526553 115.935857 
z
" clip-path="url(#p514d84f826)" style="stroke: #000000; stroke-linejoin: miter"/>
   </g>
   <g id="patch_100">
    <path d="M 260.84963 118.821752 
L 263.657956 118.821752 
L 263.657956 116.01342 
L 260.84963 116.01342 
z
" clip-path="url(#p514d84f826)" style="stroke: #000000; stroke-linejoin: miter"/>
   </g>
   <g id="patch_101">
    <path d="M 274.112958 118.803948 
L 276.885688 118.803948 
L 276.885688 116.031225 
L 274.112958 116.031225 
z
" clip-path="url(#p514d84f826)" style="stroke: #000000; stroke-linejoin: miter"/>
   </g>
   <g id="patch_102">
    <path d="M 287.615964 118.546453 
L 289.873691 118.546453 
L 289.873691 116.28872 
L 287.615964 116.28872 
z
" clip-path="url(#p514d84f826)" style="stroke: #000000; stroke-linejoin: miter"/>
   </g>
   <g id="patch_103">
    <path d="M 300.958419 118.449525 
L 303.022296 118.449525 
L 303.022296 116.385648 
L 300.958419 116.385648 
z
" clip-path="url(#p514d84f826)" style="stroke: #000000; stroke-linejoin: miter"/>
   </g>
   <g id="patch_104">
    <path d="M 314.255323 118.398113 
L 316.216376 118.398113 
L 316.216376 116.437059 
L 314.255323 116.437059 
z
" clip-path="url(#p514d84f826)" style="stroke: #000000; stroke-linejoin: miter"/>
   </g>
   <g id="patch_105">
    <path d="M 327.323614 118.575339 
L 329.639119 118.575339 
L 329.639119 116.259831 
L 327.323614 116.259831 
z
" clip-path="url(#p514d84f826)" style="stroke: #000000; stroke-linejoin: miter"/>
   </g>
   <g id="patch_106">
    <path d="M 340.863303 118.281182 
L 342.59049 118.281182 
L 342.59049 116.553993 
L 340.863303 116.553993 
z
" clip-path="url(#p514d84f826)" style="stroke: #000000; stroke-linejoin: miter"/>
   </g>
   <g id="patch_107">
    <path d="M 354.033206 118.356788 
L 355.911622 118.356788 
L 355.911622 116.478382 
L 354.033206 116.478382 
z
" clip-path="url(#p514d84f826)" style="stroke: #000000; stroke-linejoin: miter"/>
   </g>
   <g id="patch_108">
    <path d="M 367.35886 118.276663 
L 369.077002 118.276663 
L 369.077002 116.558512 
L 367.35886 116.558512 
z
" clip-path="url(#p514d84f826)" style="stroke: #000000; stroke-linejoin: miter"/>
   </g>
   <g id="patch_109">
    <path d="M 380.66304 118.217998 
L 382.263857 118.217998 
L 382.263857 116.617172 
L 380.66304 116.617172 
z
" clip-path="url(#p514d84f826)" style="stroke: #000000; stroke-linejoin: miter"/>
   </g>
   <g id="patch_110">
    <path d="M 394.01421 118.112351 
L 395.403746 118.112351 
L 395.403746 116.722822 
L 394.01421 116.722822 
z
" clip-path="url(#p514d84f826)" style="stroke: #000000; stroke-linejoin: miter"/>
   </g>
   <g id="patch_111">
    <path d="M 46.21982 108.277768 
L 54.431215 108.277768 
L 54.431215 100.06637 
L 46.21982 100.06637 
z
" clip-path="url(#p514d84f826)" style="stroke: #000000; stroke-linejoin: miter"/>
   </g>
   <g id="patch_112">
    <path d="M 59.845947 107.897156 
L 67.296121 107.897156 
L 67.296121 100.446982 
L 59.845947 100.446982 
z
" clip-path="url(#p514d84f826)" style="stroke: #000000; stroke-linejoin: miter"/>
   </g>
   <g id="patch_113">
    <path d="M 73.09473 107.893891 
L 80.538373 107.893891 
L 80.538373 100.450247 
L 73.09473 100.450247 
z
" clip-path="url(#p514d84f826)" style="stroke: #000000; stroke-linejoin: miter"/>
   </g>
   <g id="patch_114">
    <path d="M 86.363342 107.870796 
L 93.760796 107.870796 
L 93.760796 100.473345 
L 86.363342 100.473345 
z
" clip-path="url(#p514d84f826)" style="stroke: #000000; stroke-linejoin: miter"/>
   </g>
   <g id="patch_115">
    <path d="M 99.633418 107.846237 
L 106.981754 107.846237 
L 106.981754 100.497901 
L 99.633418 100.497901 
z
" clip-path="url(#p514d84f826)" style="stroke: #000000; stroke-linejoin: miter"/>
   </g>
   <g id="patch_116">
    <path d="M 112.943504 107.781666 
L 120.162697 107.781666 
L 120.162697 100.562469 
L 112.943504 100.562469 
z
" clip-path="url(#p514d84f826)" style="stroke: #000000; stroke-linejoin: miter"/>
   </g>
   <g id="patch_117">
    <path d="M 126.261724 107.708966 
L 133.335517 107.708966 
L 133.335517 100.635172 
L 126.261724 100.635172 
z
" clip-path="url(#p514d84f826)" style="stroke: #000000; stroke-linejoin: miter"/>
   </g>
   <g id="patch_118">
    <path d="M 139.66713 107.549077 
L 146.421153 107.549077 
L 146.421153 100.795054 
L 139.66713 100.795054 
z
" clip-path="url(#p514d84f826)" style="stroke: #000000; stroke-linejoin: miter"/>
   </g>
   <g id="patch_119">
    <path d="M 153.165519 107.296209 
L 159.413792 107.296209 
L 159.413792 101.047932 
L 153.165519 101.047932 
z
" clip-path="url(#p514d84f826)" style="stroke: #000000; stroke-linejoin: miter"/>
   </g>
   <g id="patch_120">
    <path d="M 166.733326 106.973921 
L 172.337031 106.973921 
L 172.337031 101.370217 
L 166.733326 101.370217 
z
" clip-path="url(#p514d84f826)" style="stroke: #000000; stroke-linejoin: miter"/>
   </g>
   <g id="patch_121">
    <path d="M 180.227124 106.725638 
L 185.334268 106.725638 
L 185.334268 101.618497 
L 180.227124 101.618497 
z
" clip-path="url(#p514d84f826)" style="stroke: #000000; stroke-linejoin: miter"/>
   </g>
   <g id="patch_122">
    <path d="M 193.827194 106.371082 
L 198.22522 106.371082 
L 198.22522 101.973056 
L 193.827194 101.973056 
z
" clip-path="url(#p514d84f826)" style="stroke: #000000; stroke-linejoin: miter"/>
   </g>
   <g id="patch_123">
    <path d="M 207.313715 106.130081 
L 211.229733 106.130081 
L 211.229733 102.21406 
L 207.313715 102.21406 
z
" clip-path="url(#p514d84f826)" style="stroke: #000000; stroke-linejoin: miter"/>
   </g>
   <g id="patch_124">
    <path d="M 220.772509 105.916801 
L 224.261973 105.916801 
L 224.261973 102.427337 
L 220.772509 102.427337 
z
" clip-path="url(#p514d84f826)" style="stroke: #000000; stroke-linejoin: miter"/>
   </g>
   <g id="patch_125">
    <path d="M 234.21679 105.718041 
L 237.30874 105.718041 
L 237.30874 102.626094 
L 234.21679 102.626094 
z
" clip-path="url(#p514d84f826)" style="stroke: #000000; stroke-linejoin: miter"/>
   </g>
   <g id="patch_126">
    <path d="M 247.823087 105.357264 
L 250.193477 105.357264 
L 250.193477 102.986874 
L 247.823087 102.986874 
z
" clip-path="url(#p514d84f826)" style="stroke: #000000; stroke-linejoin: miter"/>
   </g>
   <g id="patch_127">
    <path d="M 261.191071 105.234798 
L 263.316516 105.234798 
L 263.316516 103.10934 
L 261.191071 103.10934 
z
" clip-path="url(#p514d84f826)" style="stroke: #000000; stroke-linejoin: miter"/>
   </g>
   <g id="patch_128">
    <path d="M 274.591051 105.080325 
L 276.40757 105.080325 
L 276.40757 103.263816 
L 274.591051 103.263816 
z
" clip-path="url(#p514d84f826)" style="stroke: #000000; stroke-linejoin: miter"/>
   </g>
   <g id="patch_129">
    <path d="M 287.892199 105.024691 
L 289.597456 105.024691 
L 289.597456 103.319447 
L 287.892199 103.319447 
z
" clip-path="url(#p514d84f826)" style="stroke: #000000; stroke-linejoin: miter"/>
   </g>
   <g id="patch_130">
    <path d="M 301.149919 105.012495 
L 302.830771 105.012495 
L 302.830771 103.331643 
L 301.149919 103.331643 
z
" clip-path="url(#p514d84f826)" style="stroke: #000000; stroke-linejoin: miter"/>
   </g>
   <g id="patch_131">
    <path d="M 314.470545 104.937392 
L 316.001204 104.937392 
L 316.001204 103.406746 
L 314.470545 103.406746 
z
" clip-path="url(#p514d84f826)" style="stroke: #000000; stroke-linejoin: miter"/>
   </g>
   <g id="patch_132">
    <path d="M 327.683649 104.96979 
L 329.279084 104.96979 
L 329.279084 103.374351 
L 327.683649 103.374351 
z
" clip-path="url(#p514d84f826)" style="stroke: #000000; stroke-linejoin: miter"/>
   </g>
   <g id="patch_133">
    <path d="M 340.828869 105.070097 
L 342.624924 105.070097 
L 342.624924 103.274041 
L 340.828869 103.274041 
z
" clip-path="url(#p514d84f826)" style="stroke: #000000; stroke-linejoin: miter"/>
   </g>
   <g id="patch_134">
    <path d="M 354.212781 104.931692 
L 355.732021 104.931692 
L 355.732021 103.412443 
L 354.212781 103.412443 
z
" clip-path="url(#p514d84f826)" style="stroke: #000000; stroke-linejoin: miter"/>
   </g>
   <g id="patch_135">
    <path d="M 367.629284 104.760713 
L 368.806578 104.760713 
L 368.806578 103.583428 
L 367.629284 103.583428 
z
" clip-path="url(#p514d84f826)" style="stroke: #000000; stroke-linejoin: miter"/>
   </g>
   <g id="patch_136">
    <path d="M 380.630879 105.004641 
L 382.296017 105.004641 
L 382.296017 103.339493 
L 380.630879 103.339493 
z
" clip-path="url(#p514d84f826)" style="stroke: #000000; stroke-linejoin: miter"/>
   </g>
   <g id="patch_137">
    <path d="M 394.105969 104.775056 
L 395.311937 104.775056 
L 395.311937 103.569078 
L 394.105969 103.569078 
z
" clip-path="url(#p514d84f826)" style="stroke: #000000; stroke-linejoin: miter"/>
   </g>
   <g id="patch_138">
    <path d="M 46.184641 95.067431 
L 54.466393 95.067431 
L 54.466393 86.785679 
L 46.184641 86.785679 
z
" clip-path="url(#p514d84f826)" style="stroke: #000000; stroke-linejoin: miter"/>
   </g>
   <g id="patch_139">
    <path d="M 59.786014 94.711571 
L 67.356054 94.711571 
L 67.356054 87.141533 
L 59.786014 87.141533 
z
" clip-path="url(#p514d84f826)" style="stroke: #000000; stroke-linejoin: miter"/>
   </g>
   <g id="patch_140">
    <path d="M 73.046118 94.696987 
L 80.586984 94.696987 
L 80.586984 87.156123 
L 73.046118 87.156123 
z
" clip-path="url(#p514d84f826)" style="stroke: #000000; stroke-linejoin: miter"/>
   </g>
   <g id="patch_141">
    <path d="M 86.348692 94.639929 
L 93.775446 94.639929 
L 93.775446 87.213175 
L 86.348692 87.213175 
z
" clip-path="url(#p514d84f826)" style="stroke: #000000; stroke-linejoin: miter"/>
   </g>
   <g id="patch_142">
    <path d="M 99.629108 94.605027 
L 106.986061 94.605027 
L 106.986061 87.24807 
L 99.629108 87.24807 
z
" clip-path="url(#p514d84f826)" style="stroke: #000000; stroke-linejoin: miter"/>
   </g>
   <g id="patch_143">
    <path d="M 112.930941 94.548714 
L 120.175259 94.548714 
L 120.175259 87.304396 
L 112.930941 87.304396 
z
" clip-path="url(#p514d84f826)" style="stroke: #000000; stroke-linejoin: miter"/>
   </g>
   <g id="patch_144">
    <path d="M 126.234369 94.490803 
L 133.362866 94.490803 
L 133.362866 87.362307 
L 126.234369 87.362307 
z
" clip-path="url(#p514d84f826)" style="stroke: #000000; stroke-linejoin: miter"/>
   </g>
   <g id="patch_145">
    <path d="M 139.600048 94.370642 
L 146.488222 94.370642 
L 146.488222 87.482468 
L 139.600048 87.482468 
z
" clip-path="url(#p514d84f826)" style="stroke: #000000; stroke-linejoin: miter"/>
   </g>
   <g id="patch_146">
    <path d="M 153.019494 94.196713 
L 159.559817 94.196713 
L 159.559817 87.65639 
L 153.019494 87.65639 
z
" clip-path="url(#p514d84f826)" style="stroke: #000000; stroke-linejoin: miter"/>
   </g>
   <g id="patch_147">
    <path d="M 166.498348 93.963376 
L 172.571997 93.963376 
L 172.571997 87.889727 
L 166.498348 87.889727 
z
" clip-path="url(#p514d84f826)" style="stroke: #000000; stroke-linejoin: miter"/>
   </g>
   <g id="patch_148">
    <path d="M 180.027603 93.679639 
L 185.533776 93.679639 
L 185.533776 88.173465 
L 180.027603 88.173465 
z
" clip-path="url(#p514d84f826)" style="stroke: #000000; stroke-linejoin: miter"/>
   </g>
   <g id="patch_149">
    <path d="M 193.622759 93.33 
L 198.429655 93.33 
L 198.429655 88.523104 
L 193.622759 88.523104 
z
" clip-path="url(#p514d84f826)" style="stroke: #000000; stroke-linejoin: miter"/>
   </g>
   <g id="patch_150">
    <path d="M 207.149715 93.048561 
L 211.393733 93.048561 
L 211.393733 88.804542 
L 207.149715 88.804542 
z
" clip-path="url(#p514d84f826)" style="stroke: #000000; stroke-linejoin: miter"/>
   </g>
   <g id="patch_151">
    <path d="M 220.640102 92.803698 
L 224.394394 92.803698 
L 224.394394 89.049406 
L 220.640102 89.049406 
z
" clip-path="url(#p514d84f826)" style="stroke: #000000; stroke-linejoin: miter"/>
   </g>
   <g id="patch_152">
    <path d="M 234.117869 92.571447 
L 237.407661 92.571447 
L 237.407661 89.281656 
L 234.117869 89.281656 
z
" clip-path="url(#p514d84f826)" style="stroke: #000000; stroke-linejoin: miter"/>
   </g>
   <g id="patch_153">
    <path d="M 247.742584 92.192237 
L 250.273955 92.192237 
L 250.273955 89.660866 
L 247.742584 89.660866 
z
" clip-path="url(#p514d84f826)" style="stroke: #000000; stroke-linejoin: miter"/>
   </g>
   <g id="patch_154">
    <path d="M 261.134189 92.046156 
L 263.37341 92.046156 
L 263.37341 89.806948 
L 261.134189 89.806948 
z
" clip-path="url(#p514d84f826)" style="stroke: #000000; stroke-linejoin: miter"/>
   </g>
   <g id="patch_155">
    <path d="M 274.503764 91.922098 
L 276.494856 91.922098 
L 276.494856 89.931006 
L 274.503764 89.931006 
z
" clip-path="url(#p514d84f826)" style="stroke: #000000; stroke-linejoin: miter"/>
   </g>
   <g id="patch_156">
    <path d="M 287.870118 91.801255 
L 289.619537 91.801255 
L 289.619537 90.051843 
L 287.870118 90.051843 
z
" clip-path="url(#p514d84f826)" style="stroke: #000000; stroke-linejoin: miter"/>
   </g>
   <g id="patch_157">
    <path d="M 301.245517 91.671386 
L 302.735198 91.671386 
L 302.735198 90.181711 
L 301.245517 90.181711 
z
" clip-path="url(#p514d84f826)" style="stroke: #000000; stroke-linejoin: miter"/>
   </g>
   <g id="patch_158">
    <path d="M 314.533048 91.62936 
L 315.938651 91.62936 
L 315.938651 90.223744 
L 314.533048 90.223744 
z
" clip-path="url(#p514d84f826)" style="stroke: #000000; stroke-linejoin: miter"/>
   </g>
   <g id="patch_159">
    <path d="M 327.7053 91.702637 
L 329.257484 91.702637 
L 329.257484 90.15046 
L 327.7053 90.15046 
z
" clip-path="url(#p514d84f826)" style="stroke: #000000; stroke-linejoin: miter"/>
   </g>
   <g id="patch_160">
    <path d="M 340.879775 91.773679 
L 342.574018 91.773679 
L 342.574018 90.079431 
L 340.879775 90.079431 
z
" clip-path="url(#p514d84f826)" style="stroke: #000000; stroke-linejoin: miter"/>
   </g>
   <g id="patch_161">
    <path d="M 354.200301 91.698665 
L 355.744527 91.698665 
L 355.744527 90.154439 
L 354.200301 90.154439 
z
" clip-path="url(#p514d84f826)" style="stroke: #000000; stroke-linejoin: miter"/>
   </g>
   <g id="patch_162">
    <path d="M 367.584946 91.559537 
L 368.850916 91.559537 
L 368.850916 90.29356 
L 367.584946 90.29356 
z
" clip-path="url(#p514d84f826)" style="stroke: #000000; stroke-linejoin: miter"/>
   </g>
   <g id="patch_163">
    <path d="M 380.733955 91.656051 
L 382.192941 91.656051 
L 382.192941 90.197059 
L 380.733955 90.197059 
z
" clip-path="url(#p514d84f826)" style="stroke: #000000; stroke-linejoin: miter"/>
   </g>
   <g id="patch_164">
    <path d="M 394.179764 91.455747 
L 395.238141 91.455747 
L 395.238141 90.397363 
L 394.179764 90.397363 
z
" clip-path="url(#p514d84f826)" style="stroke: #000000; stroke-linejoin: miter"/>
   </g>
   <g id="patch_165">
    <path d="M 46.693841 81.312708 
L 53.957193 81.312708 
L 53.957193 74.049354 
L 46.693841 74.049354 
z
" clip-path="url(#p514d84f826)" style="stroke: #000000; stroke-linejoin: miter"/>
   </g>
   <g id="patch_166">
    <path d="M 60.413496 80.838576 
L 66.728573 80.838576 
L 66.728573 74.523499 
L 60.413496 74.523499 
z
" clip-path="url(#p514d84f826)" style="stroke: #000000; stroke-linejoin: miter"/>
   </g>
   <g id="patch_167">
    <path d="M 73.685987 80.811601 
L 79.947118 80.811601 
L 79.947118 74.550468 
L 73.685987 74.550468 
z
" clip-path="url(#p514d84f826)" style="stroke: #000000; stroke-linejoin: miter"/>
   </g>
   <g id="patch_168">
    <path d="M 87.021227 80.721876 
L 93.102911 80.721876 
L 93.102911 74.640193 
L 87.021227 74.640193 
z
" clip-path="url(#p514d84f826)" style="stroke: #000000; stroke-linejoin: miter"/>
   </g>
   <g id="patch_169">
    <path d="M 100.341522 80.647095 
L 106.273647 80.647095 
L 106.273647 74.714967 
L 100.341522 74.714967 
z
" clip-path="url(#p514d84f826)" style="stroke: #000000; stroke-linejoin: miter"/>
   </g>
   <g id="patch_170">
    <path d="M 113.723259 80.510879 
L 119.382954 80.510879 
L 119.382954 74.851184 
L 113.723259 74.851184 
z
" clip-path="url(#p514d84f826)" style="stroke: #000000; stroke-linejoin: miter"/>
   </g>
   <g id="patch_171">
    <path d="M 127.26315 80.216505 
L 132.334098 80.216505 
L 132.334098 75.145558 
L 127.26315 75.145558 
z
" clip-path="url(#p514d84f826)" style="stroke: #000000; stroke-linejoin: miter"/>
   </g>
   <g id="patch_172">
    <path d="M 140.790068 79.935104 
L 145.298214 79.935104 
L 145.298214 75.426959 
L 140.790068 75.426959 
z
" clip-path="url(#p514d84f826)" style="stroke: #000000; stroke-linejoin: miter"/>
   </g>
   <g id="patch_173">
    <path d="M 154.29238 79.67831 
L 158.286937 79.67831 
L 158.286937 75.683753 
L 154.29238 75.683753 
z
" clip-path="url(#p514d84f826)" style="stroke: #000000; stroke-linejoin: miter"/>
   </g>
   <g id="patch_174">
    <path d="M 167.820239 79.395974 
L 171.250118 79.395974 
L 171.250118 75.966095 
L 167.820239 75.966095 
z
" clip-path="url(#p514d84f826)" style="stroke: #000000; stroke-linejoin: miter"/>
   </g>
   <g id="patch_175">
    <path d="M 181.292095 79.169629 
L 184.269284 79.169629 
L 184.269284 76.192433 
L 181.292095 76.192433 
z
" clip-path="url(#p514d84f826)" style="stroke: #000000; stroke-linejoin: miter"/>
   </g>
   <g id="patch_176">
    <path d="M 194.888047 78.819188 
L 197.164355 78.819188 
L 197.164355 76.542874 
L 194.888047 76.542874 
z
" clip-path="url(#p514d84f826)" style="stroke: #000000; stroke-linejoin: miter"/>
   </g>
   <g id="patch_177">
    <path d="M 208.257205 78.695554 
L 210.286243 78.695554 
L 210.286243 76.666515 
L 208.257205 76.666515 
z
" clip-path="url(#p514d84f826)" style="stroke: #000000; stroke-linejoin: miter"/>
   </g>
   <g id="patch_178">
    <path d="M 221.638073 78.560209 
L 223.396422 78.560209 
L 223.396422 76.801866 
L 221.638073 76.801866 
z
" clip-path="url(#p514d84f826)" style="stroke: #000000; stroke-linejoin: miter"/>
   </g>
   <g id="patch_179">
    <path d="M 234.774211 78.669576 
L 236.751294 78.669576 
L 236.751294 76.692487 
L 234.774211 76.692487 
z
" clip-path="url(#p514d84f826)" style="stroke: #000000; stroke-linejoin: miter"/>
   </g>
   <g id="patch_180">
    <path d="M 248.241557 78.44776 
L 249.775008 78.44776 
L 249.775008 76.914315 
L 248.241557 76.914315 
z
" clip-path="url(#p514d84f826)" style="stroke: #000000; stroke-linejoin: miter"/>
   </g>
   <g id="patch_181">
    <path d="M 261.489588 78.445246 
L 263.017998 78.445246 
L 263.017998 76.916829 
L 261.489588 76.916829 
z
" clip-path="url(#p514d84f826)" style="stroke: #000000; stroke-linejoin: miter"/>
   </g>
   <g id="patch_182">
    <path d="M 274.915615 78.264742 
L 276.083031 78.264742 
L 276.083031 77.097333 
L 274.915615 77.097333 
z
" clip-path="url(#p514d84f826)" style="stroke: #000000; stroke-linejoin: miter"/>
   </g>
   <g id="patch_183">
    <path d="M 288.242659 78.183203 
L 289.246997 78.183203 
L 289.246997 77.178866 
L 288.242659 77.178866 
z
" clip-path="url(#p514d84f826)" style="stroke: #000000; stroke-linejoin: miter"/>
   </g>
   <g id="patch_184">
    <path d="M 301.351423 78.319944 
L 302.629242 78.319944 
L 302.629242 77.042125 
L 301.351423 77.042125 
z
" clip-path="url(#p514d84f826)" style="stroke: #000000; stroke-linejoin: miter"/>
   </g>
   <g id="patch_185">
    <path d="M 314.707747 78.209162 
L 315.764002 78.209162 
L 315.764002 77.152907 
L 314.707747 77.152907 
z
" clip-path="url(#p514d84f826)" style="stroke: #000000; stroke-linejoin: miter"/>
   </g>
   <g id="patch_186">
    <path d="M 327.998891 78.163523 
L 328.963868 78.163523 
L 328.963868 77.198552 
L 327.998891 77.198552 
z
" clip-path="url(#p514d84f826)" style="stroke: #000000; stroke-linejoin: miter"/>
   </g>
   <g id="patch_187">
    <path d="M 341.127992 78.279939 
L 342.325801 78.279939 
L 342.325801 77.082124 
L 341.127992 77.082124 
z
" clip-path="url(#p514d84f826)" style="stroke: #000000; stroke-linejoin: miter"/>
   </g>
   <g id="patch_188">
    <path d="M 354.515164 78.138284 
L 355.429664 78.138284 
L 355.429664 77.223785 
L 354.515164 77.223785 
z
" clip-path="url(#p514d84f826)" style="stroke: #000000; stroke-linejoin: miter"/>
   </g>
   <g id="patch_189">
    <path d="M 367.804514 78.094452 
L 368.631348 78.094452 
L 368.631348 77.267617 
L 367.804514 77.267617 
z
" clip-path="url(#p514d84f826)" style="stroke: #000000; stroke-linejoin: miter"/>
   </g>
   <g id="patch_190">
    <path d="M 381.068802 78.075681 
L 381.858094 78.075681 
L 381.858094 77.286382 
L 381.068802 77.286382 
z
" clip-path="url(#p514d84f826)" style="stroke: #000000; stroke-linejoin: miter"/>
   </g>
   <g id="patch_191">
    <path d="M 394.332004 78.058002 
L 395.085927 78.058002 
L 395.085927 77.304067 
L 394.332004 77.304067 
z
" clip-path="url(#p514d84f826)" style="stroke: #000000; stroke-linejoin: miter"/>
   </g>
   <g id="patch_192">
    <path d="M 46.644988 68.116045 
L 54.006046 68.116045 
L 54.006046 60.754989 
L 46.644988 60.754989 
z
" clip-path="url(#p514d84f826)" style="stroke: #000000; stroke-linejoin: miter"/>
   </g>
   <g id="patch_193">
    <path d="M 60.396739 67.609815 
L 66.745331 67.609815 
L 66.745331 61.261226 
L 60.396739 61.261226 
z
" clip-path="url(#p514d84f826)" style="stroke: #000000; stroke-linejoin: miter"/>
   </g>
   <g id="patch_194">
    <path d="M 73.676917 67.575153 
L 79.956188 67.575153 
L 79.956188 61.295881 
L 73.676917 61.295881 
z
" clip-path="url(#p514d84f826)" style="stroke: #000000; stroke-linejoin: miter"/>
   </g>
   <g id="patch_195">
    <path d="M 86.935656 67.561934 
L 93.188482 67.561934 
L 93.188482 61.309107 
L 86.935656 61.309107 
z
" clip-path="url(#p514d84f826)" style="stroke: #000000; stroke-linejoin: miter"/>
   </g>
   <g id="patch_196">
    <path d="M 100.206749 67.536354 
L 106.408423 67.536354 
L 106.408423 61.33468 
L 100.206749 61.33468 
z
" clip-path="url(#p514d84f826)" style="stroke: #000000; stroke-linejoin: miter"/>
   </g>
   <g id="patch_197">
    <path d="M 113.524249 67.464371 
L 119.581951 67.464371 
L 119.581951 61.40667 
L 113.524249 61.40667 
z
" clip-path="url(#p514d84f826)" style="stroke: #000000; stroke-linejoin: miter"/>
   </g>
   <g id="patch_198">
    <path d="M 126.914819 67.319319 
L 132.682422 67.319319 
L 132.682422 61.551715 
L 126.914819 61.551715 
z
" clip-path="url(#p514d84f826)" style="stroke: #000000; stroke-linejoin: miter"/>
   </g>
   <g id="patch_199">
    <path d="M 140.43628 67.043375 
L 145.652002 67.043375 
L 145.652002 61.827653 
L 140.43628 61.827653 
z
" clip-path="url(#p514d84f826)" style="stroke: #000000; stroke-linejoin: miter"/>
   </g>
   <g id="patch_200">
    <path d="M 153.940707 66.784465 
L 158.638597 66.784465 
L 158.638597 62.086576 
L 153.940707 62.086576 
z
" clip-path="url(#p514d84f826)" style="stroke: #000000; stroke-linejoin: miter"/>
   </g>
   <g id="patch_201">
    <path d="M 167.577454 66.393236 
L 171.492891 66.393236 
L 171.492891 62.477799 
L 167.577454 62.477799 
z
" clip-path="url(#p514d84f826)" style="stroke: #000000; stroke-linejoin: miter"/>
   </g>
   <g id="patch_202">
    <path d="M 181.121071 66.095129 
L 184.440295 66.095129 
L 184.440295 62.775899 
L 181.121071 62.775899 
z
" clip-path="url(#p514d84f826)" style="stroke: #000000; stroke-linejoin: miter"/>
   </g>
   <g id="patch_203">
    <path d="M 194.622296 65.839428 
L 197.430117 65.839428 
L 197.430117 63.031607 
L 194.622296 63.031607 
z
" clip-path="url(#p514d84f826)" style="stroke: #000000; stroke-linejoin: miter"/>
   </g>
   <g id="patch_204">
    <path d="M 208.173948 65.533293 
L 210.3695 65.533293 
L 210.3695 63.337741 
L 208.173948 63.337741 
z
" clip-path="url(#p514d84f826)" style="stroke: #000000; stroke-linejoin: miter"/>
   </g>
   <g id="patch_205">
    <path d="M 221.510731 65.442034 
L 223.523765 65.442034 
L 223.523765 63.429007 
L 221.510731 63.429007 
z
" clip-path="url(#p514d84f826)" style="stroke: #000000; stroke-linejoin: miter"/>
   </g>
   <g id="patch_206">
    <path d="M 234.870276 65.328 
L 236.655241 65.328 
L 236.655241 63.543041 
L 234.870276 63.543041 
z
" clip-path="url(#p514d84f826)" style="stroke: #000000; stroke-linejoin: miter"/>
   </g>
   <g id="patch_207">
    <path d="M 248.169252 65.274541 
L 249.8473 65.274541 
L 249.8473 63.596493 
L 248.169252 63.596493 
z
" clip-path="url(#p514d84f826)" style="stroke: #000000; stroke-linejoin: miter"/>
   </g>
   <g id="patch_208">
    <path d="M 261.324325 65.364992 
L 263.183274 65.364992 
L 263.183274 63.506049 
L 261.324325 63.506049 
z
" clip-path="url(#p514d84f826)" style="stroke: #000000; stroke-linejoin: miter"/>
   </g>
   <g id="patch_209">
    <path d="M 274.910689 65.024133 
L 276.087907 65.024133 
L 276.087907 63.846902 
L 274.910689 63.846902 
z
" clip-path="url(#p514d84f826)" style="stroke: #000000; stroke-linejoin: miter"/>
   </g>
   <g id="patch_210">
    <path d="M 288.06518 65.115165 
L 289.424475 65.115165 
L 289.424475 63.75587 
L 288.06518 63.75587 
z
" clip-path="url(#p514d84f826)" style="stroke: #000000; stroke-linejoin: miter"/>
   </g>
   <g id="patch_211">
    <path d="M 301.447905 64.97795 
L 302.532759 64.97795 
L 302.532759 63.89309 
L 301.447905 63.89309 
z
" clip-path="url(#p514d84f826)" style="stroke: #000000; stroke-linejoin: miter"/>
   </g>
   <g id="patch_212">
    <path d="M 314.576173 65.095206 
L 315.895551 65.095206 
L 315.895551 63.775822 
L 314.576173 63.775822 
z
" clip-path="url(#p514d84f826)" style="stroke: #000000; stroke-linejoin: miter"/>
   </g>
   <g id="patch_213">
    <path d="M 328.020593 64.896304 
L 328.942166 64.896304 
L 328.942166 63.974724 
L 328.020593 63.974724 
z
" clip-path="url(#p514d84f826)" style="stroke: #000000; stroke-linejoin: miter"/>
   </g>
   <g id="patch_214">
    <path d="M 341.167227 64.995187 
L 342.286566 64.995187 
L 342.286566 63.875842 
L 341.167227 63.875842 
z
" clip-path="url(#p514d84f826)" style="stroke: #000000; stroke-linejoin: miter"/>
   </g>
   <g id="patch_215">
    <path d="M 354.333845 65.074092 
L 355.611007 65.074092 
L 355.611007 63.796936 
L 354.333845 63.796936 
z
" clip-path="url(#p514d84f826)" style="stroke: #000000; stroke-linejoin: miter"/>
   </g>
   <g id="patch_216">
    <path d="M 367.596542 65.056912 
L 368.83932 65.056912 
L 368.83932 63.814128 
L 367.596542 63.814128 
z
" clip-path="url(#p514d84f826)" style="stroke: #000000; stroke-linejoin: miter"/>
   </g>
   <g id="patch_217">
    <path d="M 380.903577 64.995401 
L 382.023345 64.995401 
L 382.023345 63.875639 
L 380.903577 63.875639 
z
" clip-path="url(#p514d84f826)" style="stroke: #000000; stroke-linejoin: miter"/>
   </g>
   <g id="patch_218">
    <path d="M 394.309494 64.834989 
L 395.108437 64.834989 
L 395.108437 64.036039 
L 394.309494 64.036039 
z
" clip-path="url(#p514d84f826)" style="stroke: #000000; stroke-linejoin: miter"/>
   </g>
   <g id="patch_219">
    <path d="M 45.588829 55.926688 
L 55.062205 55.926688 
L 55.062205 46.453312 
L 45.588829 46.453312 
z
" clip-path="url(#p514d84f826)" style="stroke: #000000; stroke-linejoin: miter"/>
   </g>
   <g id="patch_220">
    <path d="M 59.38019 55.380844 
L 67.761879 55.380844 
L 67.761879 46.999149 
L 59.38019 46.999149 
z
" clip-path="url(#p514d84f826)" style="stroke: #000000; stroke-linejoin: miter"/>
   </g>
   <g id="patch_221">
    <path d="M 73.366938 54.63961 
L 80.266165 54.63961 
L 80.266165 47.74039 
L 73.366938 47.74039 
z
" clip-path="url(#p514d84f826)" style="stroke: #000000; stroke-linejoin: miter"/>
   </g>
   <g id="patch_222">
    <path d="M 86.696151 54.555918 
L 93.427987 54.555918 
L 93.427987 47.824089 
L 86.696151 47.824089 
z
" clip-path="url(#p514d84f826)" style="stroke: #000000; stroke-linejoin: miter"/>
   </g>
   <g id="patch_223">
    <path d="M 99.980499 54.517087 
L 106.634673 54.517087 
L 106.634673 47.862907 
L 99.980499 47.862907 
z
" clip-path="url(#p514d84f826)" style="stroke: #000000; stroke-linejoin: miter"/>
   </g>
   <g id="patch_224">
    <path d="M 113.274251 54.468852 
L 119.831956 54.468852 
L 119.831956 47.911148 
L 113.274251 47.911148 
z
" clip-path="url(#p514d84f826)" style="stroke: #000000; stroke-linejoin: miter"/>
   </g>
   <g id="patch_225">
    <path d="M 126.636209 54.352411 
L 132.961032 54.352411 
L 132.961032 48.027589 
L 126.636209 48.027589 
z
" clip-path="url(#p514d84f826)" style="stroke: #000000; stroke-linejoin: miter"/>
   </g>
   <g id="patch_226">
    <path d="M 140.13518 54.098958 
L 145.953096 54.098958 
L 145.953096 48.281048 
L 140.13518 48.281048 
z
" clip-path="url(#p514d84f826)" style="stroke: #000000; stroke-linejoin: miter"/>
   </g>
   <g id="patch_227">
    <path d="M 153.807561 53.672094 
L 158.77175 53.672094 
L 158.77175 48.707906 
L 153.807561 48.707906 
z
" clip-path="url(#p514d84f826)" style="stroke: #000000; stroke-linejoin: miter"/>
   </g>
   <g id="patch_228">
    <path d="M 167.534366 53.1908 
L 171.535966 53.1908 
L 171.535966 49.189194 
L 167.534366 49.189194 
z
" clip-path="url(#p514d84f826)" style="stroke: #000000; stroke-linejoin: miter"/>
   </g>
   <g id="patch_229">
    <path d="M 181.417707 52.552977 
L 184.14366 52.552977 
L 184.14366 49.827017 
L 181.417707 49.827017 
z
" clip-path="url(#p514d84f826)" style="stroke: #000000; stroke-linejoin: miter"/>
   </g>
   <g id="patch_230">
    <path d="M 194.964912 52.251295 
L 197.087502 52.251295 
L 197.087502 50.128705 
L 194.964912 50.128705 
z
" clip-path="url(#p514d84f826)" style="stroke: #000000; stroke-linejoin: miter"/>
   </g>
   <g id="patch_231">
    <path d="M 208.304789 52.156935 
L 210.238659 52.156935 
L 210.238659 50.223065 
L 208.304789 50.223065 
z
" clip-path="url(#p514d84f826)" style="stroke: #000000; stroke-linejoin: miter"/>
   </g>
   <g id="patch_232">
    <path d="M 221.476549 52.230693 
L 223.557934 52.230693 
L 223.557934 50.149307 
L 221.476549 50.149307 
z
" clip-path="url(#p514d84f826)" style="stroke: #000000; stroke-linejoin: miter"/>
   </g>
   <g id="patch_233">
    <path d="M 234.900454 52.052305 
L 236.625063 52.052305 
L 236.625063 50.327695 
L 234.900454 50.327695 
z
" clip-path="url(#p514d84f826)" style="stroke: #000000; stroke-linejoin: miter"/>
   </g>
   <g id="patch_234">
    <path d="M 248.3307 51.867576 
L 249.685851 51.867576 
L 249.685851 50.512424 
L 248.3307 50.512424 
z
" clip-path="url(#p514d84f826)" style="stroke: #000000; stroke-linejoin: miter"/>
   </g>
   <g id="patch_235">
    <path d="M 261.537955 51.905831 
L 262.969618 51.905831 
L 262.969618 50.474162 
L 261.537955 50.474162 
z
" clip-path="url(#p514d84f826)" style="stroke: #000000; stroke-linejoin: miter"/>
   </g>
   <g id="patch_236">
    <path d="M 274.813246 51.876064 
L 276.185375 51.876064 
L 276.185375 50.503936 
L 274.813246 50.503936 
z
" clip-path="url(#p514d84f826)" style="stroke: #000000; stroke-linejoin: miter"/>
   </g>
   <g id="patch_237">
    <path d="M 288.21646 51.718368 
L 289.273195 51.718368 
L 289.273195 50.661632 
L 288.21646 50.661632 
z
" clip-path="url(#p514d84f826)" style="stroke: #000000; stroke-linejoin: miter"/>
   </g>
   <g id="patch_238">
    <path d="M 301.41577 51.764569 
L 302.564895 51.764569 
L 302.564895 50.615438 
L 301.41577 50.615438 
z
" clip-path="url(#p514d84f826)" style="stroke: #000000; stroke-linejoin: miter"/>
   </g>
   <g id="patch_239">
    <path d="M 314.764919 51.660943 
L 315.706805 51.660943 
L 315.706805 50.719057 
L 314.764919 50.719057 
z
" clip-path="url(#p514d84f826)" style="stroke: #000000; stroke-linejoin: miter"/>
   </g>
   <g id="patch_240">
    <path d="M 327.873886 51.7975 
L 329.088873 51.7975 
L 329.088873 50.582506 
L 327.873886 50.582506 
z
" clip-path="url(#p514d84f826)" style="stroke: #000000; stroke-linejoin: miter"/>
   </g>
   <g id="patch_241">
    <path d="M 341.017084 51.899806 
L 342.436709 51.899806 
L 342.436709 50.480188 
L 341.017084 50.480188 
z
" clip-path="url(#p514d84f826)" style="stroke: #000000; stroke-linejoin: miter"/>
   </g>
   <g id="patch_242">
    <path d="M 354.43 51.732408 
L 355.514803 51.732408 
L 355.514803 50.647598 
L 354.43 50.647598 
z
" clip-path="url(#p514d84f826)" style="stroke: #000000; stroke-linejoin: miter"/>
   </g>
   <g id="patch_243">
    <path d="M 367.676098 51.731827 
L 368.759764 51.731827 
L 368.759764 50.648167 
L 367.676098 50.648167 
z
" clip-path="url(#p514d84f826)" style="stroke: #000000; stroke-linejoin: miter"/>
   </g>
   <g id="patch_244">
    <path d="M 380.956378 51.697083 
L 381.970544 51.697083 
L 381.970544 50.682917 
L 380.956378 50.682917 
z
" clip-path="url(#p514d84f826)" style="stroke: #000000; stroke-linejoin: miter"/>
   </g>
   <g id="patch_245">
    <path d="M 394.256794 51.642166 
L 395.161112 51.642166 
L 395.161112 50.737841 
L 394.256794 50.737841 
z
" clip-path="url(#p514d84f826)" style="stroke: #000000; stroke-linejoin: miter"/>
   </g>
   <g id="matplotlib.axis_1">
    <g id="xtick_1">
     <g id="line2d_1">
      <defs>
       <path id="m6eab9fda2f" d="M 0 0 
L 0 3.5 
" style="stroke: #000000; stroke-width: 0.8"/>
      </defs>
      <g>
       <use xlink:href="#m6eab9fda2f" x="50.325517" y="170.399655" style="stroke: #000000; stroke-width: 0.8"/>
      </g>
     </g>
     <g id="text_1">
      <!-- 1 -->
      <g transform="translate(47.144267 191.498093) scale(0.1 -0.1)">
       <defs>
        <path id="DejaVuSans-31" d="M 794 531 
L 1825 531 
L 1825 4091 
L 703 3866 
L 703 4441 
L 1819 4666 
L 2450 4666 
L 2450 531 
L 3481 531 
L 3481 0 
L 794 0 
L 794 531 
z
" transform="scale(0.015625)"/>
       </defs>
       <use xlink:href="#DejaVuSans-31"/>
      </g>
     </g>
    </g>
    <g id="xtick_2">
     <g id="line2d_2">
      <g>
       <use xlink:href="#m6eab9fda2f" x="394.708966" y="170.399655" style="stroke: #000000; stroke-width: 0.8"/>
      </g>
     </g>
     <g id="text_2">
      <!-- 1000 -->
      <g transform="translate(381.983966 191.498093) scale(0.1 -0.1)">
       <defs>
        <path id="DejaVuSans-30" d="M 2034 4250 
Q 1547 4250 1301 3770 
Q 1056 3291 1056 2328 
Q 1056 1369 1301 889 
Q 1547 409 2034 409 
Q 2525 409 2770 889 
Q 3016 1369 3016 2328 
Q 3016 3291 2770 3770 
Q 2525 4250 2034 4250 
z
M 2034 4750 
Q 2819 4750 3233 4129 
Q 3647 3509 3647 2328 
Q 3647 1150 3233 529 
Q 2819 -91 2034 -91 
Q 1250 -91 836 529 
Q 422 1150 422 2328 
Q 422 3509 836 4129 
Q 1250 4750 2034 4750 
z
" transform="scale(0.015625)"/>
       </defs>
       <use xlink:href="#DejaVuSans-31"/>
       <use xlink:href="#DejaVuSans-30" x="63.623047"/>
       <use xlink:href="#DejaVuSans-30" x="127.246094"/>
       <use xlink:href="#DejaVuSans-30" x="190.869141"/>
      </g>
     </g>
    </g>
    <g id="text_3">
     <!-- Epoch -->
     <g transform="translate(213.829062 205.176218) scale(0.1 -0.1)">
      <defs>
       <path id="DejaVuSans-45" d="M 628 4666 
L 3578 4666 
L 3578 4134 
L 1259 4134 
L 1259 2753 
L 3481 2753 
L 3481 2222 
L 1259 2222 
L 1259 531 
L 3634 531 
L 3634 0 
L 628 0 
L 628 4666 
z
" transform="scale(0.015625)"/>
       <path id="DejaVuSans-70" d="M 1159 525 
L 1159 -1331 
L 581 -1331 
L 581 3500 
L 1159 3500 
L 1159 2969 
Q 1341 3281 1617 3432 
Q 1894 3584 2278 3584 
Q 2916 3584 3314 3078 
Q 3713 2572 3713 1747 
Q 3713 922 3314 415 
Q 2916 -91 2278 -91 
Q 1894 -91 1617 61 
Q 1341 213 1159 525 
z
M 3116 1747 
Q 3116 2381 2855 2742 
Q 2594 3103 2138 3103 
Q 1681 3103 1420 2742 
Q 1159 2381 1159 1747 
Q 1159 1113 1420 752 
Q 1681 391 2138 391 
Q 2594 391 2855 752 
Q 3116 1113 3116 1747 
z
" transform="scale(0.015625)"/>
       <path id="DejaVuSans-6f" d="M 1959 3097 
Q 1497 3097 1228 2736 
Q 959 2375 959 1747 
Q 959 1119 1226 758 
Q 1494 397 1959 397 
Q 2419 397 2687 759 
Q 2956 1122 2956 1747 
Q 2956 2369 2687 2733 
Q 2419 3097 1959 3097 
z
M 1959 3584 
Q 2709 3584 3137 3096 
Q 3566 2609 3566 1747 
Q 3566 888 3137 398 
Q 2709 -91 1959 -91 
Q 1206 -91 779 398 
Q 353 888 353 1747 
Q 353 2609 779 3096 
Q 1206 3584 1959 3584 
z
" transform="scale(0.015625)"/>
       <path id="DejaVuSans-63" d="M 3122 3366 
L 3122 2828 
Q 2878 2963 2633 3030 
Q 2388 3097 2138 3097 
Q 1578 3097 1268 2742 
Q 959 2388 959 1747 
Q 959 1106 1268 751 
Q 1578 397 2138 397 
Q 2388 397 2633 464 
Q 2878 531 3122 666 
L 3122 134 
Q 2881 22 2623 -34 
Q 2366 -91 2075 -91 
Q 1284 -91 818 406 
Q 353 903 353 1747 
Q 353 2603 823 3093 
Q 1294 3584 2113 3584 
Q 2378 3584 2631 3529 
Q 2884 3475 3122 3366 
z
" transform="scale(0.015625)"/>
       <path id="DejaVuSans-68" d="M 3513 2113 
L 3513 0 
L 2938 0 
L 2938 2094 
Q 2938 2591 2744 2837 
Q 2550 3084 2163 3084 
Q 1697 3084 1428 2787 
Q 1159 2491 1159 1978 
L 1159 0 
L 581 0 
L 581 4863 
L 1159 4863 
L 1159 2956 
Q 1366 3272 1645 3428 
Q 1925 3584 2291 3584 
Q 2894 3584 3203 3211 
Q 3513 2838 3513 2113 
z
" transform="scale(0.015625)"/>
      </defs>
      <use xlink:href="#DejaVuSans-45"/>
      <use xlink:href="#DejaVuSans-70" x="63.183594"/>
      <use xlink:href="#DejaVuSans-6f" x="126.660156"/>
      <use xlink:href="#DejaVuSans-63" x="187.841797"/>
      <use xlink:href="#DejaVuSans-68" x="242.822266"/>
     </g>
    </g>
   </g>
   <g id="matplotlib.axis_2">
    <g id="ytick_1">
     <g id="line2d_3">
      <defs>
       <path id="m008141bc4d" d="M 0 0 
L -3.5 0 
" style="stroke: #000000; stroke-width: 0.8"/>
      </defs>
      <g>
       <use xlink:href="#m008141bc4d" x="37.08" y="157.154138" style="stroke: #000000; stroke-width: 0.8"/>
      </g>
     </g>
     <g id="text_4">
      <!-- 2 -->
      <g transform="translate(17.2175 160.953357) scale(0.1 -0.1)">
       <defs>
        <path id="DejaVuSans-32" d="M 1228 531 
L 3431 531 
L 3431 0 
L 469 0 
L 469 531 
Q 828 903 1448 1529 
Q 2069 2156 2228 2338 
Q 2531 2678 2651 2914 
Q 2772 3150 2772 3378 
Q 2772 3750 2511 3984 
Q 2250 4219 1831 4219 
Q 1534 4219 1204 4116 
Q 875 4013 500 3803 
L 500 4441 
Q 881 4594 1212 4672 
Q 1544 4750 1819 4750 
Q 2544 4750 2975 4387 
Q 3406 4025 3406 3419 
Q 3406 3131 3298 2873 
Q 3191 2616 2906 2266 
Q 2828 2175 2409 1742 
Q 1991 1309 1228 531 
z
" transform="scale(0.015625)"/>
       </defs>
       <use xlink:href="#DejaVuSans-32"/>
      </g>
     </g>
    </g>
    <g id="ytick_2">
     <g id="line2d_4">
      <g>
       <use xlink:href="#m008141bc4d" x="37.08" y="143.908621" style="stroke: #000000; stroke-width: 0.8"/>
      </g>
     </g>
     <g id="text_5">
      <!-- 3 -->
      <g transform="translate(17.2175 147.707839) scale(0.1 -0.1)">
       <defs>
        <path id="DejaVuSans-33" d="M 2597 2516 
Q 3050 2419 3304 2112 
Q 3559 1806 3559 1356 
Q 3559 666 3084 287 
Q 2609 -91 1734 -91 
Q 1441 -91 1130 -33 
Q 819 25 488 141 
L 488 750 
Q 750 597 1062 519 
Q 1375 441 1716 441 
Q 2309 441 2620 675 
Q 2931 909 2931 1356 
Q 2931 1769 2642 2001 
Q 2353 2234 1838 2234 
L 1294 2234 
L 1294 2753 
L 1863 2753 
Q 2328 2753 2575 2939 
Q 2822 3125 2822 3475 
Q 2822 3834 2567 4026 
Q 2313 4219 1838 4219 
Q 1578 4219 1281 4162 
Q 984 4106 628 3988 
L 628 4550 
Q 988 4650 1302 4700 
Q 1616 4750 1894 4750 
Q 2613 4750 3031 4423 
Q 3450 4097 3450 3541 
Q 3450 3153 3228 2886 
Q 3006 2619 2597 2516 
z
" transform="scale(0.015625)"/>
       </defs>
       <use xlink:href="#DejaVuSans-33"/>
      </g>
     </g>
    </g>
    <g id="ytick_3">
     <g id="line2d_5">
      <g>
       <use xlink:href="#m008141bc4d" x="37.08" y="130.663103" style="stroke: #000000; stroke-width: 0.8"/>
      </g>
     </g>
     <g id="text_6">
      <!-- 5 -->
      <g transform="translate(17.2175 134.462322) scale(0.1 -0.1)">
       <defs>
        <path id="DejaVuSans-35" d="M 691 4666 
L 3169 4666 
L 3169 4134 
L 1269 4134 
L 1269 2991 
Q 1406 3038 1543 3061 
Q 1681 3084 1819 3084 
Q 2600 3084 3056 2656 
Q 3513 2228 3513 1497 
Q 3513 744 3044 326 
Q 2575 -91 1722 -91 
Q 1428 -91 1123 -41 
Q 819 9 494 109 
L 494 744 
Q 775 591 1075 516 
Q 1375 441 1709 441 
Q 2250 441 2565 725 
Q 2881 1009 2881 1497 
Q 2881 1984 2565 2268 
Q 2250 2553 1709 2553 
Q 1456 2553 1204 2497 
Q 953 2441 691 2322 
L 691 4666 
z
" transform="scale(0.015625)"/>
       </defs>
       <use xlink:href="#DejaVuSans-35"/>
      </g>
     </g>
    </g>
    <g id="ytick_4">
     <g id="line2d_6">
      <g>
       <use xlink:href="#m008141bc4d" x="37.08" y="117.417586" style="stroke: #000000; stroke-width: 0.8"/>
      </g>
     </g>
     <g id="text_7">
      <!-- 7 -->
      <g transform="translate(17.2175 121.216805) scale(0.1 -0.1)">
       <defs>
        <path id="DejaVuSans-37" d="M 525 4666 
L 3525 4666 
L 3525 4397 
L 1831 0 
L 1172 0 
L 2766 4134 
L 525 4134 
L 525 4666 
z
" transform="scale(0.015625)"/>
       </defs>
       <use xlink:href="#DejaVuSans-37"/>
      </g>
     </g>
    </g>
    <g id="ytick_5">
     <g id="line2d_7">
      <g>
       <use xlink:href="#m008141bc4d" x="37.08" y="104.172069" style="stroke: #000000; stroke-width: 0.8"/>
      </g>
     </g>
     <g id="text_8">
      <!-- 11 -->
      <g transform="translate(10.855 107.971288) scale(0.1 -0.1)">
       <use xlink:href="#DejaVuSans-31"/>
       <use xlink:href="#DejaVuSans-31" x="63.623047"/>
      </g>
     </g>
    </g>
    <g id="ytick_6">
     <g id="line2d_8">
      <g>
       <use xlink:href="#m008141bc4d" x="37.08" y="90.926552" style="stroke: #000000; stroke-width: 0.8"/>
      </g>
     </g>
     <g id="text_9">
      <!-- 13 -->
      <g transform="translate(10.855 94.72577) scale(0.1 -0.1)">
       <use xlink:href="#DejaVuSans-31"/>
       <use xlink:href="#DejaVuSans-33" x="63.623047"/>
      </g>
     </g>
    </g>
    <g id="ytick_7">
     <g id="line2d_9">
      <g>
       <use xlink:href="#m008141bc4d" x="37.08" y="77.681034" style="stroke: #000000; stroke-width: 0.8"/>
      </g>
     </g>
     <g id="text_10">
      <!-- 17 -->
      <g transform="translate(10.855 81.480253) scale(0.1 -0.1)">
       <use xlink:href="#DejaVuSans-31"/>
       <use xlink:href="#DejaVuSans-37" x="63.623047"/>
      </g>
     </g>
    </g>
    <g id="ytick_8">
     <g id="line2d_10">
      <g>
       <use xlink:href="#m008141bc4d" x="37.08" y="64.435517" style="stroke: #000000; stroke-width: 0.8"/>
      </g>
     </g>
     <g id="text_11">
      <!-- 19 -->
      <g transform="translate(10.855 68.234736) scale(0.1 -0.1)">
       <defs>
        <path id="DejaVuSans-39" d="M 703 97 
L 703 672 
Q 941 559 1184 500 
Q 1428 441 1663 441 
Q 2288 441 2617 861 
Q 2947 1281 2994 2138 
Q 2813 1869 2534 1725 
Q 2256 1581 1919 1581 
Q 1219 1581 811 2004 
Q 403 2428 403 3163 
Q 403 3881 828 4315 
Q 1253 4750 1959 4750 
Q 2769 4750 3195 4129 
Q 3622 3509 3622 2328 
Q 3622 1225 3098 567 
Q 2575 -91 1691 -91 
Q 1453 -91 1209 -44 
Q 966 3 703 97 
z
M 1959 2075 
Q 2384 2075 2632 2365 
Q 2881 2656 2881 3163 
Q 2881 3666 2632 3958 
Q 2384 4250 1959 4250 
Q 1534 4250 1286 3958 
Q 1038 3666 1038 3163 
Q 1038 2656 1286 2365 
Q 1534 2075 1959 2075 
z
" transform="scale(0.015625)"/>
       </defs>
       <use xlink:href="#DejaVuSans-31"/>
       <use xlink:href="#DejaVuSans-39" x="63.623047"/>
      </g>
     </g>
    </g>
    <g id="ytick_9">
     <g id="line2d_11">
      <g>
       <use xlink:href="#m008141bc4d" x="37.08" y="51.19" style="stroke: #000000; stroke-width: 0.8"/>
      </g>
     </g>
     <g id="text_12">
      <!--  -->
      <g transform="translate(16.5675 54.989219) scale(0.1 -0.1)">
       <defs>
        <path id="DejaVuSans-2119" d="M 938 4353 
L 938 313 
L 1569 313 
L 1569 4353 
L 938 4353 
z
M 1881 4353 
L 1881 2284 
L 2825 2284 
Q 2900 2284 2972 2291 
L 2972 4347 
Q 2900 4353 2825 4353 
L 1881 4353 
z
M 625 4666 
L 2678 4666 
Q 3459 4666 3861 4323 
Q 4263 3981 4263 3322 
Q 4263 2656 3861 2315 
Q 3459 1975 2675 1975 
L 1881 1975 
L 1881 0 
L 625 0 
L 625 4666 
z
M 3300 4281 
L 3300 2359 
Q 3488 2428 3628 2556 
Q 3919 2825 3919 3322 
Q 3919 3816 3631 4084 
Q 3494 4213 3300 4281 
z
" transform="scale(0.015625)"/>
       </defs>
       <use xlink:href="#DejaVuSans-2119"/>
      </g>
     </g>
    </g>
   </g>
  </g>
 </g>
 <defs>
  <clipPath id="p514d84f826">
   <rect x="37.08" y="24.698966" width="384.12" height="145.70069"/>
  </clipPath>
 </defs>
</svg>
