<?xml version="1.0" encoding="utf-8" standalone="no"?>
<!DOCTYPE svg PUBLIC "-//W3C//DTD SVG 1.1//EN"
  "http://www.w3.org/Graphics/SVG/1.1/DTD/svg11.dtd">
<svg xmlns:xlink="http://www.w3.org/1999/xlink" width="432pt" height="216pt" viewBox="0 0 432 216" xmlns="http://www.w3.org/2000/svg" version="1.1">
 <metadata>
  <rdf:RDF xmlns:dc="http://purl.org/dc/elements/1.1/" xmlns:cc="http://creativecommons.org/ns#" xmlns:rdf="http://www.w3.org/1999/02/22-rdf-syntax-ns#">
   <cc:Work>
    <dc:type rdf:resource="http://purl.org/dc/dcmitype/StillImage"/>
    <dc:date>2024-08-13T20:37:14.752506</dc:date>
    <dc:format>image/svg+xml</dc:format>
    <dc:creator>
     <cc:Agent>
      <dc:title>Matplotlib v3.9.1.post1, https://matplotlib.org/</dc:title>
     </cc:Agent>
    </dc:creator>
   </cc:Work>
  </rdf:RDF>
 </metadata>
 <defs>
  <style type="text/css">*{stroke-linejoin: round; stroke-linecap: butt}</style>
 </defs>
 <g id="figure_1">
  <g id="patch_1">
   <path d="M 0 216 
L 432 216 
L 432 0 
L 0 0 
z
" style="fill: #ffffff"/>
  </g>
  <g id="axes_1">
   <g id="patch_2">
    <path d="M 37.08 170.399655 
L 421.2 170.399655 
L 421.2 24.698966 
L 37.08 24.698966 
z
" style="fill: #ffffff"/>
   </g>
   <g id="patch_3">
    <path d="M 45.154372 162.325283 
L 55.496662 162.325283 
L 55.496662 151.982993 
L 45.154372 151.982993 
z
" clip-path="url(#pb47437b18a)" style="stroke: #000000; stroke-linejoin: miter"/>
   </g>
   <g id="patch_4">
    <path d="M 58.406406 162.318766 
L 68.735663 162.318766 
L 68.735663 151.98951 
L 58.406406 151.98951 
z
" clip-path="url(#pb47437b18a)" style="stroke: #000000; stroke-linejoin: miter"/>
   </g>
   <g id="patch_5">
    <path d="M 71.654956 162.315734 
L 81.978146 162.315734 
L 81.978146 151.992542 
L 71.654956 151.992542 
z
" clip-path="url(#pb47437b18a)" style="stroke: #000000; stroke-linejoin: miter"/>
   </g>
   <g id="patch_6">
    <path d="M 84.900456 162.31575 
L 95.223679 162.31575 
L 95.223679 151.992526 
L 84.900456 151.992526 
z
" clip-path="url(#pb47437b18a)" style="stroke: #000000; stroke-linejoin: miter"/>
   </g>
   <g id="patch_7">
    <path d="M 98.139007 162.322717 
L 108.476166 162.322717 
L 108.476166 151.985559 
L 98.139007 151.985559 
z
" clip-path="url(#pb47437b18a)" style="stroke: #000000; stroke-linejoin: miter"/>
   </g>
   <g id="patch_8">
    <path d="M 111.397017 162.310225 
L 121.70919 162.310225 
L 121.70919 151.998051 
L 111.397017 151.998051 
z
" clip-path="url(#pb47437b18a)" style="stroke: #000000; stroke-linejoin: miter"/>
   </g>
   <g id="patch_9">
    <path d="M 124.63822 162.314539 
L 134.959021 162.314539 
L 134.959021 151.993737 
L 124.63822 151.993737 
z
" clip-path="url(#pb47437b18a)" style="stroke: #000000; stroke-linejoin: miter"/>
   </g>
   <g id="patch_10">
    <path d="M 137.898081 162.300198 
L 148.190201 162.300198 
L 148.190201 152.008078 
L 137.898081 152.008078 
z
" clip-path="url(#pb47437b18a)" style="stroke: #000000; stroke-linejoin: miter"/>
   </g>
   <g id="patch_11">
    <path d="M 151.156451 162.28734 
L 161.422859 162.28734 
L 161.422859 152.020936 
L 151.156451 152.020936 
z
" clip-path="url(#pb47437b18a)" style="stroke: #000000; stroke-linejoin: miter"/>
   </g>
   <g id="patch_12">
    <path d="M 164.404861 162.284454 
L 174.665496 162.284454 
L 174.665496 152.023822 
L 164.404861 152.023822 
z
" clip-path="url(#pb47437b18a)" style="stroke: #000000; stroke-linejoin: miter"/>
   </g>
   <g id="patch_13">
    <path d="M 177.658956 162.275869 
L 187.902424 162.275869 
L 187.902424 152.032407 
L 177.658956 152.032407 
z
" clip-path="url(#pb47437b18a)" style="stroke: #000000; stroke-linejoin: miter"/>
   </g>
   <g id="patch_14">
    <path d="M 190.920364 162.259983 
L 201.13205 162.259983 
L 201.13205 152.048292 
L 190.920364 152.048292 
z
" clip-path="url(#pb47437b18a)" style="stroke: #000000; stroke-linejoin: miter"/>
   </g>
   <g id="patch_15">
    <path d="M 204.174622 162.251246 
L 214.368839 162.251246 
L 214.368839 152.05703 
L 204.174622 152.05703 
z
" clip-path="url(#pb47437b18a)" style="stroke: #000000; stroke-linejoin: miter"/>
   </g>
   <g id="patch_16">
    <path d="M 217.446641 162.224744 
L 227.587854 162.224744 
L 227.587854 152.083532 
L 217.446641 152.083532 
z
" clip-path="url(#pb47437b18a)" style="stroke: #000000; stroke-linejoin: miter"/>
   </g>
   <g id="patch_17">
    <path d="M 230.708656 162.208236 
L 240.816849 162.208236 
L 240.816849 152.10004 
L 230.708656 152.10004 
z
" clip-path="url(#pb47437b18a)" style="stroke: #000000; stroke-linejoin: miter"/>
   </g>
   <g id="patch_18">
    <path d="M 243.997842 162.164573 
L 254.01871 162.164573 
L 254.01871 152.143702 
L 243.997842 152.143702 
z
" clip-path="url(#pb47437b18a)" style="stroke: #000000; stroke-linejoin: miter"/>
   </g>
   <g id="patch_19">
    <path d="M 257.280484 162.127447 
L 267.227102 162.127447 
L 267.227102 152.180829 
L 257.280484 152.180829 
z
" clip-path="url(#pb47437b18a)" style="stroke: #000000; stroke-linejoin: miter"/>
   </g>
   <g id="patch_20">
    <path d="M 270.585902 162.067535 
L 280.412694 162.067535 
L 280.412694 152.24074 
L 270.585902 152.24074 
z
" clip-path="url(#pb47437b18a)" style="stroke: #000000; stroke-linejoin: miter"/>
   </g>
   <g id="patch_21">
    <path d="M 283.923202 161.975764 
L 293.566453 161.975764 
L 293.566453 152.332512 
L 283.923202 152.332512 
z
" clip-path="url(#pb47437b18a)" style="stroke: #000000; stroke-linejoin: miter"/>
   </g>
   <g id="patch_22">
    <path d="M 297.288672 161.855807 
L 306.692017 161.855807 
L 306.692017 152.452469 
L 297.288672 152.452469 
z
" clip-path="url(#pb47437b18a)" style="stroke: #000000; stroke-linejoin: miter"/>
   </g>
   <g id="patch_23">
    <path d="M 310.683221 161.706769 
L 319.788478 161.706769 
L 319.788478 152.601507 
L 310.683221 152.601507 
z
" clip-path="url(#pb47437b18a)" style="stroke: #000000; stroke-linejoin: miter"/>
   </g>
   <g id="patch_24">
    <path d="M 324.071403 161.564122 
L 332.891381 161.564122 
L 332.891381 152.744154 
L 324.071403 152.744154 
z
" clip-path="url(#pb47437b18a)" style="stroke: #000000; stroke-linejoin: miter"/>
   </g>
   <g id="patch_25">
    <path d="M 337.495409 161.385629 
L 345.958384 161.385629 
L 345.958384 152.922647 
L 337.495409 152.922647 
z
" clip-path="url(#pb47437b18a)" style="stroke: #000000; stroke-linejoin: miter"/>
   </g>
   <g id="patch_26">
    <path d="M 350.874572 161.251975 
L 359.070256 161.251975 
L 359.070256 153.056301 
L 350.874572 153.056301 
z
" clip-path="url(#pb47437b18a)" style="stroke: #000000; stroke-linejoin: miter"/>
   </g>
   <g id="patch_27">
    <path d="M 364.085857 161.286209 
L 372.350006 161.286209 
L 372.350006 153.022067 
L 364.085857 153.022067 
z
" clip-path="url(#pb47437b18a)" style="stroke: #000000; stroke-linejoin: miter"/>
   </g>
   <g id="patch_28">
    <path d="M 377.498519 161.119079 
L 385.428403 161.119079 
L 385.428403 153.189197 
L 377.498519 153.189197 
z
" clip-path="url(#pb47437b18a)" style="stroke: #000000; stroke-linejoin: miter"/>
   </g>
   <g id="patch_29">
    <path d="M 391.044221 160.818879 
L 398.37371 160.818879 
L 398.37371 153.489397 
L 391.044221 153.489397 
z
" clip-path="url(#pb47437b18a)" style="stroke: #000000; stroke-linejoin: miter"/>
   </g>
   <g id="patch_30">
    <path d="M 45.140257 149.093881 
L 55.510778 149.093881 
L 55.510778 138.723361 
L 45.140257 138.723361 
z
" clip-path="url(#pb47437b18a)" style="stroke: #000000; stroke-linejoin: miter"/>
   </g>
   <g id="patch_31">
    <path d="M 58.409103 149.070553 
L 68.732966 149.070553 
L 68.732966 138.746689 
L 58.409103 138.746689 
z
" clip-path="url(#pb47437b18a)" style="stroke: #000000; stroke-linejoin: miter"/>
   </g>
   <g id="patch_32">
    <path d="M 71.69898 149.026193 
L 81.934124 149.026193 
L 81.934124 138.791049 
L 71.69898 138.791049 
z
" clip-path="url(#pb47437b18a)" style="stroke: #000000; stroke-linejoin: miter"/>
   </g>
   <g id="patch_33">
    <path d="M 85.015391 148.9553 
L 95.108751 148.9553 
L 95.108751 138.861942 
L 85.015391 138.861942 
z
" clip-path="url(#pb47437b18a)" style="stroke: #000000; stroke-linejoin: miter"/>
   </g>
   <g id="patch_34">
    <path d="M 98.236715 148.979493 
L 108.378458 148.979493 
L 108.378458 138.837749 
L 98.236715 138.837749 
z
" clip-path="url(#pb47437b18a)" style="stroke: #000000; stroke-linejoin: miter"/>
   </g>
   <g id="patch_35">
    <path d="M 111.254895 149.206827 
L 121.851312 149.206827 
L 121.851312 138.610413 
L 111.254895 138.610413 
z
" clip-path="url(#pb47437b18a)" style="stroke: #000000; stroke-linejoin: miter"/>
   </g>
   <g id="patch_36">
    <path d="M 124.686638 149.020604 
L 134.910603 149.020604 
L 134.910603 138.796638 
L 124.686638 138.796638 
z
" clip-path="url(#pb47437b18a)" style="stroke: #000000; stroke-linejoin: miter"/>
   </g>
   <g id="patch_37">
    <path d="M 138.01648 148.936278 
L 148.071796 148.936278 
L 148.071796 138.880963 
L 138.01648 138.880963 
z
" clip-path="url(#pb47437b18a)" style="stroke: #000000; stroke-linejoin: miter"/>
   </g>
   <g id="patch_38">
    <path d="M 151.218765 148.979511 
L 161.360546 148.979511 
L 161.360546 138.83773 
L 151.218765 138.83773 
z
" clip-path="url(#pb47437b18a)" style="stroke: #000000; stroke-linejoin: miter"/>
   </g>
   <g id="patch_39">
    <path d="M 164.44373 149.000059 
L 174.626603 149.000059 
L 174.626603 138.817181 
L 164.44373 138.817181 
z
" clip-path="url(#pb47437b18a)" style="stroke: #000000; stroke-linejoin: miter"/>
   </g>
   <g id="patch_40">
    <path d="M 177.718755 148.970549 
L 187.842612 148.970549 
L 187.842612 138.846692 
L 177.718755 138.846692 
z
" clip-path="url(#pb47437b18a)" style="stroke: #000000; stroke-linejoin: miter"/>
   </g>
   <g id="patch_41">
    <path d="M 190.999907 148.934916 
L 201.052494 148.934916 
L 201.052494 138.882325 
L 190.999907 138.882325 
z
" clip-path="url(#pb47437b18a)" style="stroke: #000000; stroke-linejoin: miter"/>
   </g>
   <g id="patch_42">
    <path d="M 204.253749 148.926592 
L 214.289687 148.926592 
L 214.289687 138.890651 
L 204.253749 138.890651 
z
" clip-path="url(#pb47437b18a)" style="stroke: #000000; stroke-linejoin: miter"/>
   </g>
   <g id="patch_43">
    <path d="M 217.498887 148.926977 
L 227.535596 148.926977 
L 227.535596 138.890266 
L 217.498887 138.890266 
z
" clip-path="url(#pb47437b18a)" style="stroke: #000000; stroke-linejoin: miter"/>
   </g>
   <g id="patch_44">
    <path d="M 230.741941 148.92944 
L 240.783576 148.92944 
L 240.783576 138.887803 
L 230.741941 138.887803 
z
" clip-path="url(#pb47437b18a)" style="stroke: #000000; stroke-linejoin: miter"/>
   </g>
   <g id="patch_45">
    <path d="M 243.983365 148.933526 
L 254.033174 148.933526 
L 254.033174 138.883713 
L 243.983365 138.883713 
z
" clip-path="url(#pb47437b18a)" style="stroke: #000000; stroke-linejoin: miter"/>
   </g>
   <g id="patch_46">
    <path d="M 257.234933 148.927486 
L 267.272653 148.927486 
L 267.272653 138.889755 
L 257.234933 138.889755 
z
" clip-path="url(#pb47437b18a)" style="stroke: #000000; stroke-linejoin: miter"/>
   </g>
   <g id="patch_47">
    <path d="M 270.482345 148.925579 
L 280.51625 148.925579 
L 280.51625 138.891662 
L 270.482345 138.891662 
z
" clip-path="url(#pb47437b18a)" style="stroke: #000000; stroke-linejoin: miter"/>
   </g>
   <g id="patch_48">
    <path d="M 283.727408 148.926033 
L 293.762222 148.926033 
L 293.762222 138.891207 
L 283.727408 138.891207 
z
" clip-path="url(#pb47437b18a)" style="stroke: #000000; stroke-linejoin: miter"/>
   </g>
   <g id="patch_49">
    <path d="M 296.972622 148.926344 
L 307.008068 148.926344 
L 307.008068 138.890898 
L 296.972622 138.890898 
z
" clip-path="url(#pb47437b18a)" style="stroke: #000000; stroke-linejoin: miter"/>
   </g>
   <g id="patch_50">
    <path d="M 310.21824 148.926233 
L 320.253459 148.926233 
L 320.253459 138.891008 
L 310.21824 138.891008 
z
" clip-path="url(#pb47437b18a)" style="stroke: #000000; stroke-linejoin: miter"/>
   </g>
   <g id="patch_51">
    <path d="M 323.465172 148.924828 
L 333.497586 148.924828 
L 333.497586 138.892414 
L 323.465172 138.892414 
z
" clip-path="url(#pb47437b18a)" style="stroke: #000000; stroke-linejoin: miter"/>
   </g>
   <g id="patch_52">
    <path d="M 336.709199 148.926323 
L 346.744594 148.926323 
L 346.744594 138.890917 
L 336.709199 138.890917 
z
" clip-path="url(#pb47437b18a)" style="stroke: #000000; stroke-linejoin: miter"/>
   </g>
   <g id="patch_53">
    <path d="M 349.952266 148.928766 
L 359.992562 148.928766 
L 359.992562 138.888476 
L 349.952266 138.888476 
z
" clip-path="url(#pb47437b18a)" style="stroke: #000000; stroke-linejoin: miter"/>
   </g>
   <g id="patch_54">
    <path d="M 363.194979 148.931572 
L 373.240884 148.931572 
L 373.240884 138.885668 
L 363.194979 138.885668 
z
" clip-path="url(#pb47437b18a)" style="stroke: #000000; stroke-linejoin: miter"/>
   </g>
   <g id="patch_55">
    <path d="M 376.443856 148.928205 
L 386.483015 148.928205 
L 386.483015 138.889036 
L 376.443856 138.889036 
z
" clip-path="url(#pb47437b18a)" style="stroke: #000000; stroke-linejoin: miter"/>
   </g>
   <g id="patch_56">
    <path d="M 389.691773 148.925804 
L 399.726133 148.925804 
L 399.726133 138.891438 
L 389.691773 138.891438 
z
" clip-path="url(#pb47437b18a)" style="stroke: #000000; stroke-linejoin: miter"/>
   </g>
   <g id="patch_57">
    <path d="M 45.181558 135.807063 
L 55.469477 135.807063 
L 55.469477 125.519144 
L 45.181558 125.519144 
z
" clip-path="url(#pb47437b18a)" style="stroke: #000000; stroke-linejoin: miter"/>
   </g>
   <g id="patch_58">
    <path d="M 58.497621 135.736517 
L 68.644448 135.736517 
L 68.644448 125.58969 
L 58.497621 125.58969 
z
" clip-path="url(#pb47437b18a)" style="stroke: #000000; stroke-linejoin: miter"/>
   </g>
   <g id="patch_59">
    <path d="M 71.870172 135.609483 
L 81.76293 135.609483 
L 81.76293 125.716726 
L 71.870172 125.716726 
z
" clip-path="url(#pb47437b18a)" style="stroke: #000000; stroke-linejoin: miter"/>
   </g>
   <g id="patch_60">
    <path d="M 85.330386 135.394786 
L 94.793755 135.394786 
L 94.793755 125.931417 
L 85.330386 125.931417 
z
" clip-path="url(#pb47437b18a)" style="stroke: #000000; stroke-linejoin: miter"/>
   </g>
   <g id="patch_61">
    <path d="M 98.743447 135.227243 
L 107.871729 135.227243 
L 107.871729 126.098964 
L 98.743447 126.098964 
z
" clip-path="url(#pb47437b18a)" style="stroke: #000000; stroke-linejoin: miter"/>
   </g>
   <g id="patch_62">
    <path d="M 111.643933 135.572277 
L 121.46228 135.572277 
L 121.46228 125.75393 
L 111.643933 125.75393 
z
" clip-path="url(#pb47437b18a)" style="stroke: #000000; stroke-linejoin: miter"/>
   </g>
   <g id="patch_63">
    <path d="M 125.108904 135.35282 
L 134.488337 135.35282 
L 134.488337 125.973387 
L 125.108904 125.973387 
z
" clip-path="url(#pb47437b18a)" style="stroke: #000000; stroke-linejoin: miter"/>
   </g>
   <g id="patch_64">
    <path d="M 138.52458 135.182663 
L 147.563696 135.182663 
L 147.563696 126.143545 
L 138.52458 126.143545 
z
" clip-path="url(#pb47437b18a)" style="stroke: #000000; stroke-linejoin: miter"/>
   </g>
   <g id="patch_65">
    <path d="M 151.72454 135.228219 
L 160.854764 135.228219 
L 160.854764 126.097988 
L 151.72454 126.097988 
z
" clip-path="url(#pb47437b18a)" style="stroke: #000000; stroke-linejoin: miter"/>
   </g>
   <g id="patch_66">
    <path d="M 164.967701 135.230568 
L 174.102631 135.230568 
L 174.102631 126.095639 
L 164.967701 126.095639 
z
" clip-path="url(#pb47437b18a)" style="stroke: #000000; stroke-linejoin: miter"/>
   </g>
   <g id="patch_67">
    <path d="M 178.253792 135.190001 
L 187.307587 135.190001 
L 187.307587 126.136206 
L 178.253792 126.136206 
z
" clip-path="url(#pb47437b18a)" style="stroke: #000000; stroke-linejoin: miter"/>
   </g>
   <g id="patch_68">
    <path d="M 191.52758 135.161731 
L 200.524834 135.161731 
L 200.524834 126.164476 
L 191.52758 126.164476 
z
" clip-path="url(#pb47437b18a)" style="stroke: #000000; stroke-linejoin: miter"/>
   </g>
   <g id="patch_69">
    <path d="M 204.776748 135.158082 
L 213.766701 135.158082 
L 213.766701 126.168127 
L 204.776748 126.168127 
z
" clip-path="url(#pb47437b18a)" style="stroke: #000000; stroke-linejoin: miter"/>
   </g>
   <g id="patch_70">
    <path d="M 218.033128 135.147223 
L 227.001367 135.147223 
L 227.001367 126.178984 
L 218.033128 126.178984 
z
" clip-path="url(#pb47437b18a)" style="stroke: #000000; stroke-linejoin: miter"/>
   </g>
   <g id="patch_71">
    <path d="M 231.290999 135.134869 
L 240.23453 135.134869 
L 240.23453 126.191338 
L 231.290999 126.191338 
z
" clip-path="url(#pb47437b18a)" style="stroke: #000000; stroke-linejoin: miter"/>
   </g>
   <g id="patch_72">
    <path d="M 244.534799 135.136579 
L 253.481753 135.136579 
L 253.481753 126.18963 
L 244.534799 126.18963 
z
" clip-path="url(#pb47437b18a)" style="stroke: #000000; stroke-linejoin: miter"/>
   </g>
   <g id="patch_73">
    <path d="M 257.788843 135.12806 
L 266.718744 135.12806 
L 266.718744 126.198147 
L 257.788843 126.198147 
z
" clip-path="url(#pb47437b18a)" style="stroke: #000000; stroke-linejoin: miter"/>
   </g>
   <g id="patch_74">
    <path d="M 271.045779 135.116635 
L 279.952842 135.116635 
L 279.952842 126.209572 
L 271.045779 126.209572 
z
" clip-path="url(#pb47437b18a)" style="stroke: #000000; stroke-linejoin: miter"/>
   </g>
   <g id="patch_75">
    <path d="M 284.299684 135.108241 
L 293.189946 135.108241 
L 293.189946 126.217966 
L 284.299684 126.217966 
z
" clip-path="url(#pb47437b18a)" style="stroke: #000000; stroke-linejoin: miter"/>
   </g>
   <g id="patch_76">
    <path d="M 297.554978 135.09847 
L 306.425711 135.09847 
L 306.425711 126.227737 
L 297.554978 126.227737 
z
" clip-path="url(#pb47437b18a)" style="stroke: #000000; stroke-linejoin: miter"/>
   </g>
   <g id="patch_77">
    <path d="M 310.805776 135.093188 
L 319.665949 135.093188 
L 319.665949 126.233017 
L 310.805776 126.233017 
z
" clip-path="url(#pb47437b18a)" style="stroke: #000000; stroke-linejoin: miter"/>
   </g>
   <g id="patch_78">
    <path d="M 324.05248 135.091996 
L 332.910278 135.091996 
L 332.910278 126.234211 
L 324.05248 126.234211 
z
" clip-path="url(#pb47437b18a)" style="stroke: #000000; stroke-linejoin: miter"/>
   </g>
   <g id="patch_79">
    <path d="M 337.310806 135.079191 
L 346.142987 135.079191 
L 346.142987 126.247019 
L 337.310806 126.247019 
z
" clip-path="url(#pb47437b18a)" style="stroke: #000000; stroke-linejoin: miter"/>
   </g>
   <g id="patch_80">
    <path d="M 350.566328 135.069194 
L 359.3785 135.069194 
L 359.3785 126.257011 
L 350.566328 126.257011 
z
" clip-path="url(#pb47437b18a)" style="stroke: #000000; stroke-linejoin: miter"/>
   </g>
   <g id="patch_81">
    <path d="M 363.825563 135.055471 
L 372.610299 135.055471 
L 372.610299 126.270736 
L 363.825563 126.270736 
z
" clip-path="url(#pb47437b18a)" style="stroke: #000000; stroke-linejoin: miter"/>
   </g>
   <g id="patch_82">
    <path d="M 377.085481 135.041071 
L 385.841416 135.041071 
L 385.841416 126.285136 
L 377.085481 126.285136 
z
" clip-path="url(#pb47437b18a)" style="stroke: #000000; stroke-linejoin: miter"/>
   </g>
   <g id="patch_83">
    <path d="M 390.364195 135.007883 
L 399.053761 135.007883 
L 399.053761 126.318323 
L 390.364195 126.318323 
z
" clip-path="url(#pb47437b18a)" style="stroke: #000000; stroke-linejoin: miter"/>
   </g>
   <g id="patch_84">
    <path d="M 45.143104 122.600001 
L 55.507931 122.600001 
L 55.507931 112.235175 
L 45.143104 112.235175 
z
" clip-path="url(#pb47437b18a)" style="stroke: #000000; stroke-linejoin: miter"/>
   </g>
   <g id="patch_85">
    <path d="M 58.477987 122.510633 
L 68.664081 122.510633 
L 68.664081 112.324539 
L 58.477987 112.324539 
z
" clip-path="url(#pb47437b18a)" style="stroke: #000000; stroke-linejoin: miter"/>
   </g>
   <g id="patch_86">
    <path d="M 71.872067 122.362072 
L 81.761038 122.362072 
L 81.761038 112.473103 
L 71.872067 112.473103 
z
" clip-path="url(#pb47437b18a)" style="stroke: #000000; stroke-linejoin: miter"/>
   </g>
   <g id="patch_87">
    <path d="M 85.399483 122.080172 
L 94.724652 122.080172 
L 94.724652 112.755003 
L 85.399483 112.755003 
z
" clip-path="url(#pb47437b18a)" style="stroke: #000000; stroke-linejoin: miter"/>
   </g>
   <g id="patch_88">
    <path d="M 99.038882 121.686291 
L 107.576287 121.686291 
L 107.576287 113.148882 
L 99.038882 113.148882 
z
" clip-path="url(#pb47437b18a)" style="stroke: #000000; stroke-linejoin: miter"/>
   </g>
   <g id="patch_89">
    <path d="M 112.226131 121.744562 
L 120.880082 121.744562 
L 120.880082 113.090611 
L 112.226131 113.090611 
z
" clip-path="url(#pb47437b18a)" style="stroke: #000000; stroke-linejoin: miter"/>
   </g>
   <g id="patch_90">
    <path d="M 125.513669 121.702538 
L 134.083567 121.702538 
L 134.083567 113.132637 
L 125.513669 113.132637 
z
" clip-path="url(#pb47437b18a)" style="stroke: #000000; stroke-linejoin: miter"/>
   </g>
   <g id="patch_91">
    <path d="M 138.873334 121.588387 
L 147.214936 121.588387 
L 147.214936 113.246785 
L 138.873334 113.246785 
z
" clip-path="url(#pb47437b18a)" style="stroke: #000000; stroke-linejoin: miter"/>
   </g>
   <g id="patch_92">
    <path d="M 152.094604 121.612637 
L 160.4847 121.612637 
L 160.4847 113.222535 
L 152.094604 113.222535 
z
" clip-path="url(#pb47437b18a)" style="stroke: #000000; stroke-linejoin: miter"/>
   </g>
   <g id="patch_93">
    <path d="M 165.361564 121.591198 
L 173.708793 121.591198 
L 173.708793 113.243972 
L 165.361564 113.243972 
z
" clip-path="url(#pb47437b18a)" style="stroke: #000000; stroke-linejoin: miter"/>
   </g>
   <g id="patch_94">
    <path d="M 178.618501 121.579778 
L 186.942879 121.579778 
L 186.942879 113.255394 
L 178.618501 113.255394 
z
" clip-path="url(#pb47437b18a)" style="stroke: #000000; stroke-linejoin: miter"/>
   </g>
   <g id="patch_95">
    <path d="M 191.860241 121.583552 
L 200.192173 121.583552 
L 200.192173 113.25162 
L 191.860241 113.25162 
z
" clip-path="url(#pb47437b18a)" style="stroke: #000000; stroke-linejoin: miter"/>
   </g>
   <g id="patch_96">
    <path d="M 205.107438 121.581869 
L 213.435997 121.581869 
L 213.435997 113.253307 
L 205.107438 113.253307 
z
" clip-path="url(#pb47437b18a)" style="stroke: #000000; stroke-linejoin: miter"/>
   </g>
   <g id="patch_97">
    <path d="M 218.34808 121.586748 
L 226.686403 121.586748 
L 226.686403 113.248424 
L 218.34808 113.248424 
z
" clip-path="url(#pb47437b18a)" style="stroke: #000000; stroke-linejoin: miter"/>
   </g>
   <g id="patch_98">
    <path d="M 231.59918 121.581158 
L 239.926324 121.581158 
L 239.926324 113.254011 
L 231.59918 113.254011 
z
" clip-path="url(#pb47437b18a)" style="stroke: #000000; stroke-linejoin: miter"/>
   </g>
   <g id="patch_99">
    <path d="M 244.845645 121.580217 
L 253.170907 121.580217 
L 253.170907 113.254952 
L 244.845645 113.254952 
z
" clip-path="url(#pb47437b18a)" style="stroke: #000000; stroke-linejoin: miter"/>
   </g>
   <g id="patch_100">
    <path d="M 258.089747 121.581635 
L 266.417852 121.581635 
L 266.417852 113.253537 
L 258.089747 113.253537 
z
" clip-path="url(#pb47437b18a)" style="stroke: #000000; stroke-linejoin: miter"/>
   </g>
   <g id="patch_101">
    <path d="M 271.33174 121.585163 
L 279.66688 121.585163 
L 279.66688 113.25001 
L 271.33174 113.25001 
z
" clip-path="url(#pb47437b18a)" style="stroke: #000000; stroke-linejoin: miter"/>
   </g>
   <g id="patch_102">
    <path d="M 284.575489 121.586928 
L 292.914166 121.586928 
L 292.914166 113.248244 
L 284.575489 113.248244 
z
" clip-path="url(#pb47437b18a)" style="stroke: #000000; stroke-linejoin: miter"/>
   </g>
   <g id="patch_103">
    <path d="M 297.818505 121.589435 
L 306.16221 121.589435 
L 306.16221 113.245737 
L 297.818505 113.245737 
z
" clip-path="url(#pb47437b18a)" style="stroke: #000000; stroke-linejoin: miter"/>
   </g>
   <g id="patch_104">
    <path d="M 311.06137 121.592072 
L 319.410329 121.592072 
L 319.410329 113.2431 
L 311.06137 113.2431 
z
" clip-path="url(#pb47437b18a)" style="stroke: #000000; stroke-linejoin: miter"/>
   </g>
   <g id="patch_105">
    <path d="M 324.31055 121.588422 
L 332.652208 121.588422 
L 332.652208 113.246751 
L 324.31055 113.246751 
z
" clip-path="url(#pb47437b18a)" style="stroke: #000000; stroke-linejoin: miter"/>
   </g>
   <g id="patch_106">
    <path d="M 337.561777 121.582693 
L 345.891991 121.582693 
L 345.891991 113.252476 
L 337.561777 113.252476 
z
" clip-path="url(#pb47437b18a)" style="stroke: #000000; stroke-linejoin: miter"/>
   </g>
   <g id="patch_107">
    <path d="M 350.810427 121.579576 
L 359.134401 121.579576 
L 359.134401 113.255599 
L 350.810427 113.255599 
z
" clip-path="url(#pb47437b18a)" style="stroke: #000000; stroke-linejoin: miter"/>
   </g>
   <g id="patch_108">
    <path d="M 364.051144 121.584383 
L 372.384743 121.584383 
L 372.384743 113.250793 
L 364.051144 113.250793 
z
" clip-path="url(#pb47437b18a)" style="stroke: #000000; stroke-linejoin: miter"/>
   </g>
   <g id="patch_109">
    <path d="M 377.291129 121.589909 
L 385.635768 121.589909 
L 385.635768 113.24526 
L 377.291129 113.24526 
z
" clip-path="url(#pb47437b18a)" style="stroke: #000000; stroke-linejoin: miter"/>
   </g>
   <g id="patch_110">
    <path d="M 390.541547 121.585017 
L 398.876409 121.585017 
L 398.876409 113.250155 
L 390.541547 113.250155 
z
" clip-path="url(#pb47437b18a)" style="stroke: #000000; stroke-linejoin: miter"/>
   </g>
   <g id="patch_111">
    <path d="M 45.164246 109.333341 
L 55.486789 109.333341 
L 55.486789 99.010797 
L 45.164246 99.010797 
z
" clip-path="url(#pb47437b18a)" style="stroke: #000000; stroke-linejoin: miter"/>
   </g>
   <g id="patch_112">
    <path d="M 58.498139 109.244965 
L 68.64393 109.244965 
L 68.64393 99.09917 
L 58.498139 99.09917 
z
" clip-path="url(#pb47437b18a)" style="stroke: #000000; stroke-linejoin: miter"/>
   </g>
   <g id="patch_113">
    <path d="M 71.901826 109.086794 
L 81.731274 109.086794 
L 81.731274 99.257347 
L 71.901826 99.257347 
z
" clip-path="url(#pb47437b18a)" style="stroke: #000000; stroke-linejoin: miter"/>
   </g>
   <g id="patch_114">
    <path d="M 85.45932 108.774818 
L 94.664815 108.774818 
L 94.664815 99.569323 
L 85.45932 99.569323 
z
" clip-path="url(#pb47437b18a)" style="stroke: #000000; stroke-linejoin: miter"/>
   </g>
   <g id="patch_115">
    <path d="M 99.311185 108.16847 
L 107.303988 108.16847 
L 107.303988 100.175668 
L 99.311185 100.175668 
z
" clip-path="url(#pb47437b18a)" style="stroke: #000000; stroke-linejoin: miter"/>
   </g>
   <g id="patch_116">
    <path d="M 112.960329 107.76484 
L 120.145871 107.76484 
L 120.145871 100.579295 
L 112.960329 100.579295 
z
" clip-path="url(#pb47437b18a)" style="stroke: #000000; stroke-linejoin: miter"/>
   </g>
   <g id="patch_117">
    <path d="M 126.215668 107.755019 
L 133.381567 107.755019 
L 133.381567 100.589116 
L 126.215668 100.589116 
z
" clip-path="url(#pb47437b18a)" style="stroke: #000000; stroke-linejoin: miter"/>
   </g>
   <g id="patch_118">
    <path d="M 139.473748 107.742459 
L 146.614528 107.742459 
L 146.614528 100.601679 
L 139.473748 100.601679 
z
" clip-path="url(#pb47437b18a)" style="stroke: #000000; stroke-linejoin: miter"/>
   </g>
   <g id="patch_119">
    <path d="M 152.719454 107.742267 
L 159.85985 107.742267 
L 159.85985 100.601868 
L 152.719454 100.601868 
z
" clip-path="url(#pb47437b18a)" style="stroke: #000000; stroke-linejoin: miter"/>
   </g>
   <g id="patch_120">
    <path d="M 165.96211 107.745131 
L 173.108234 107.745131 
L 173.108234 100.599007 
L 165.96211 100.599007 
z
" clip-path="url(#pb47437b18a)" style="stroke: #000000; stroke-linejoin: miter"/>
   </g>
   <g id="patch_121">
    <path d="M 179.1571 107.795659 
L 186.404279 107.795659 
L 186.404279 100.548479 
L 179.1571 100.548479 
z
" clip-path="url(#pb47437b18a)" style="stroke: #000000; stroke-linejoin: miter"/>
   </g>
   <g id="patch_122">
    <path d="M 192.404348 107.793934 
L 199.648079 107.793934 
L 199.648079 100.550204 
L 192.404348 100.550204 
z
" clip-path="url(#pb47437b18a)" style="stroke: #000000; stroke-linejoin: miter"/>
   </g>
   <g id="patch_123">
    <path d="M 205.700064 107.743732 
L 212.843397 107.743732 
L 212.843397 100.600409 
L 205.700064 100.600409 
z
" clip-path="url(#pb47437b18a)" style="stroke: #000000; stroke-linejoin: miter"/>
   </g>
   <g id="patch_124">
    <path d="M 218.944255 107.745055 
L 226.090228 107.745055 
L 226.090228 100.599083 
L 218.944255 100.599083 
z
" clip-path="url(#pb47437b18a)" style="stroke: #000000; stroke-linejoin: miter"/>
   </g>
   <g id="patch_125">
    <path d="M 232.187928 107.746899 
L 239.337589 107.746899 
L 239.337589 100.597239 
L 232.187928 100.597239 
z
" clip-path="url(#pb47437b18a)" style="stroke: #000000; stroke-linejoin: miter"/>
   </g>
   <g id="patch_126">
    <path d="M 245.436212 107.744127 
L 252.580327 107.744127 
L 252.580327 100.600011 
L 245.436212 100.600011 
z
" clip-path="url(#pb47437b18a)" style="stroke: #000000; stroke-linejoin: miter"/>
   </g>
   <g id="patch_127">
    <path d="M 258.676411 107.749457 
L 265.831175 107.749457 
L 265.831175 100.594681 
L 258.676411 100.594681 
z
" clip-path="url(#pb47437b18a)" style="stroke: #000000; stroke-linejoin: miter"/>
   </g>
   <g id="patch_128">
    <path d="M 271.917861 107.753528 
L 279.080785 107.753528 
L 279.080785 100.590607 
L 271.917861 100.590607 
z
" clip-path="url(#pb47437b18a)" style="stroke: #000000; stroke-linejoin: miter"/>
   </g>
   <g id="patch_129">
    <path d="M 285.16305 107.753841 
L 292.326606 107.753841 
L 292.326606 100.590297 
L 285.16305 100.590297 
z
" clip-path="url(#pb47437b18a)" style="stroke: #000000; stroke-linejoin: miter"/>
   </g>
   <g id="patch_130">
    <path d="M 298.402251 107.76015 
L 305.578413 107.76015 
L 305.578413 100.583988 
L 298.402251 100.583988 
z
" clip-path="url(#pb47437b18a)" style="stroke: #000000; stroke-linejoin: miter"/>
   </g>
   <g id="patch_131">
    <path d="M 311.638269 107.769672 
L 318.83348 107.769672 
L 318.83348 100.574463 
L 311.638269 100.574463 
z
" clip-path="url(#pb47437b18a)" style="stroke: #000000; stroke-linejoin: miter"/>
   </g>
   <g id="patch_132">
    <path d="M 324.880805 107.77264 
L 332.081954 107.77264 
L 332.081954 100.571495 
L 324.880805 100.571495 
z
" clip-path="url(#pb47437b18a)" style="stroke: #000000; stroke-linejoin: miter"/>
   </g>
   <g id="patch_133">
    <path d="M 338.130036 107.768929 
L 345.323757 107.768929 
L 345.323757 100.575208 
L 338.130036 100.575208 
z
" clip-path="url(#pb47437b18a)" style="stroke: #000000; stroke-linejoin: miter"/>
   </g>
   <g id="patch_134">
    <path d="M 351.388564 107.755925 
L 358.556289 107.755925 
L 358.556289 100.588213 
L 351.388564 100.588213 
z
" clip-path="url(#pb47437b18a)" style="stroke: #000000; stroke-linejoin: miter"/>
   </g>
   <g id="patch_135">
    <path d="M 364.639261 107.750727 
L 371.796576 107.750727 
L 371.796576 100.593411 
L 364.639261 100.593411 
z
" clip-path="url(#pb47437b18a)" style="stroke: #000000; stroke-linejoin: miter"/>
   </g>
   <g id="patch_136">
    <path d="M 377.889047 107.74646 
L 385.037824 107.74646 
L 385.037824 100.597681 
L 377.889047 100.597681 
z
" clip-path="url(#pb47437b18a)" style="stroke: #000000; stroke-linejoin: miter"/>
   </g>
   <g id="patch_137">
    <path d="M 391.134337 107.746691 
L 398.283569 107.746691 
L 398.283569 100.597447 
L 391.134337 100.597447 
z
" clip-path="url(#pb47437b18a)" style="stroke: #000000; stroke-linejoin: miter"/>
   </g>
   <g id="patch_138">
    <path d="M 45.17819 96.073878 
L 55.472845 96.073878 
L 55.472845 85.779225 
L 45.17819 85.779225 
z
" clip-path="url(#pb47437b18a)" style="stroke: #000000; stroke-linejoin: miter"/>
   </g>
   <g id="patch_139">
    <path d="M 58.584061 95.913522 
L 68.558008 95.913522 
L 68.558008 85.939575 
L 58.584061 85.939575 
z
" clip-path="url(#pb47437b18a)" style="stroke: #000000; stroke-linejoin: miter"/>
   </g>
   <g id="patch_140">
    <path d="M 72.084157 95.658945 
L 81.548945 95.658945 
L 81.548945 86.194158 
L 72.084157 86.194158 
z
" clip-path="url(#pb47437b18a)" style="stroke: #000000; stroke-linejoin: miter"/>
   </g>
   <g id="patch_141">
    <path d="M 85.766039 95.222582 
L 94.358096 95.222582 
L 94.358096 86.630528 
L 85.766039 86.630528 
z
" clip-path="url(#pb47437b18a)" style="stroke: #000000; stroke-linejoin: miter"/>
   </g>
   <g id="patch_142">
    <path d="M 99.571756 94.662382 
L 107.043417 94.662382 
L 107.043417 87.190721 
L 99.571756 87.190721 
z
" clip-path="url(#pb47437b18a)" style="stroke: #000000; stroke-linejoin: miter"/>
   </g>
   <g id="patch_143">
    <path d="M 112.66725 94.812405 
L 120.438957 94.812405 
L 120.438957 87.040698 
L 112.66725 87.040698 
z
" clip-path="url(#pb47437b18a)" style="stroke: #000000; stroke-linejoin: miter"/>
   </g>
   <g id="patch_144">
    <path d="M 125.975523 94.74965 
L 133.621719 94.74965 
L 133.621719 87.103454 
L 125.975523 87.103454 
z
" clip-path="url(#pb47437b18a)" style="stroke: #000000; stroke-linejoin: miter"/>
   </g>
   <g id="patch_145">
    <path d="M 139.422879 94.547811 
L 146.665397 94.547811 
L 146.665397 87.305293 
L 139.422879 87.305293 
z
" clip-path="url(#pb47437b18a)" style="stroke: #000000; stroke-linejoin: miter"/>
   </g>
   <g id="patch_146">
    <path d="M 152.665788 94.550419 
L 159.913523 94.550419 
L 159.913523 87.302684 
L 152.665788 87.302684 
z
" clip-path="url(#pb47437b18a)" style="stroke: #000000; stroke-linejoin: miter"/>
   </g>
   <g id="patch_147">
    <path d="M 165.921903 94.539821 
L 173.148442 94.539821 
L 173.148442 87.313282 
L 165.921903 87.313282 
z
" clip-path="url(#pb47437b18a)" style="stroke: #000000; stroke-linejoin: miter"/>
   </g>
   <g id="patch_148">
    <path d="M 179.17102 94.536221 
L 186.390359 94.536221 
L 186.390359 87.316883 
L 179.17102 87.316883 
z
" clip-path="url(#pb47437b18a)" style="stroke: #000000; stroke-linejoin: miter"/>
   </g>
   <g id="patch_149">
    <path d="M 192.417144 94.535621 
L 199.635282 94.535621 
L 199.635282 87.317489 
L 192.417144 87.317489 
z
" clip-path="url(#pb47437b18a)" style="stroke: #000000; stroke-linejoin: miter"/>
   </g>
   <g id="patch_150">
    <path d="M 205.634922 94.563354 
L 212.908527 94.563354 
L 212.908527 87.289749 
L 205.634922 87.289749 
z
" clip-path="url(#pb47437b18a)" style="stroke: #000000; stroke-linejoin: miter"/>
   </g>
   <g id="patch_151">
    <path d="M 218.873984 94.569809 
L 226.160486 94.569809 
L 226.160486 87.283301 
L 218.873984 87.283301 
z
" clip-path="url(#pb47437b18a)" style="stroke: #000000; stroke-linejoin: miter"/>
   </g>
   <g id="patch_152">
    <path d="M 232.142504 94.546806 
L 239.383013 94.546806 
L 239.383013 87.306297 
L 232.142504 87.306297 
z
" clip-path="url(#pb47437b18a)" style="stroke: #000000; stroke-linejoin: miter"/>
   </g>
   <g id="patch_153">
    <path d="M 245.398051 94.536783 
L 252.618514 94.536783 
L 252.618514 87.316327 
L 245.398051 87.316327 
z
" clip-path="url(#pb47437b18a)" style="stroke: #000000; stroke-linejoin: miter"/>
   </g>
   <g id="patch_154">
    <path d="M 258.64065 94.539695 
L 265.866923 94.539695 
L 265.866923 87.313415 
L 258.64065 87.313415 
z
" clip-path="url(#pb47437b18a)" style="stroke: #000000; stroke-linejoin: miter"/>
   </g>
   <g id="patch_155">
    <path d="M 271.883502 94.542354 
L 279.115119 94.542354 
L 279.115119 87.31075 
L 271.883502 87.31075 
z
" clip-path="url(#pb47437b18a)" style="stroke: #000000; stroke-linejoin: miter"/>
   </g>
   <g id="patch_156">
    <path d="M 285.122072 94.549314 
L 292.367609 94.549314 
L 292.367609 87.30379 
L 285.122072 87.30379 
z
" clip-path="url(#pb47437b18a)" style="stroke: #000000; stroke-linejoin: miter"/>
   </g>
   <g id="patch_157">
    <path d="M 298.360212 94.556685 
L 305.620478 94.556685 
L 305.620478 87.296419 
L 298.360212 87.296419 
z
" clip-path="url(#pb47437b18a)" style="stroke: #000000; stroke-linejoin: miter"/>
   </g>
   <g id="patch_158">
    <path d="M 311.59676 94.565653 
L 318.874964 94.565653 
L 318.874964 87.287444 
L 311.59676 87.287444 
z
" clip-path="url(#pb47437b18a)" style="stroke: #000000; stroke-linejoin: miter"/>
   </g>
   <g id="patch_159">
    <path d="M 324.838033 94.569891 
L 332.1247 94.569891 
L 332.1247 87.283218 
L 324.838033 87.283218 
z
" clip-path="url(#pb47437b18a)" style="stroke: #000000; stroke-linejoin: miter"/>
   </g>
   <g id="patch_160">
    <path d="M 338.084637 94.568805 
L 345.369156 94.568805 
L 345.369156 87.284298 
L 338.084637 87.284298 
z
" clip-path="url(#pb47437b18a)" style="stroke: #000000; stroke-linejoin: miter"/>
   </g>
   <g id="patch_161">
    <path d="M 351.343872 94.555106 
L 358.60098 94.555106 
L 358.60098 87.297998 
L 351.343872 87.297998 
z
" clip-path="url(#pb47437b18a)" style="stroke: #000000; stroke-linejoin: miter"/>
   </g>
   <g id="patch_162">
    <path d="M 364.600379 94.54411 
L 371.835483 94.54411 
L 371.835483 87.308994 
L 364.600379 87.308994 
z
" clip-path="url(#pb47437b18a)" style="stroke: #000000; stroke-linejoin: miter"/>
   </g>
   <g id="patch_163">
    <path d="M 377.850444 94.539543 
L 385.076427 94.539543 
L 385.076427 87.313554 
L 377.850444 87.313554 
z
" clip-path="url(#pb47437b18a)" style="stroke: #000000; stroke-linejoin: miter"/>
   </g>
   <g id="patch_164">
    <path d="M 391.091111 94.544413 
L 398.326845 94.544413 
L 398.326845 87.308691 
L 391.091111 87.308691 
z
" clip-path="url(#pb47437b18a)" style="stroke: #000000; stroke-linejoin: miter"/>
   </g>
   <g id="patch_165">
    <path d="M 45.112761 82.893788 
L 55.538273 82.893788 
L 55.538273 72.468275 
L 45.112761 72.468275 
z
" clip-path="url(#pb47437b18a)" style="stroke: #000000; stroke-linejoin: miter"/>
   </g>
   <g id="patch_166">
    <path d="M 58.408866 82.843203 
L 68.733203 82.843203 
L 68.733203 72.518866 
L 58.408866 72.518866 
z
" clip-path="url(#pb47437b18a)" style="stroke: #000000; stroke-linejoin: miter"/>
   </g>
   <g id="patch_167">
    <path d="M 71.774978 82.722606 
L 81.858124 82.722606 
L 81.858124 72.639463 
L 71.774978 72.639463 
z
" clip-path="url(#pb47437b18a)" style="stroke: #000000; stroke-linejoin: miter"/>
   </g>
   <g id="patch_168">
    <path d="M 85.290731 82.452372 
L 94.833406 82.452372 
L 94.833406 72.909697 
L 85.290731 72.909697 
z
" clip-path="url(#pb47437b18a)" style="stroke: #000000; stroke-linejoin: miter"/>
   </g>
   <g id="patch_169">
    <path d="M 99.145975 81.842649 
L 107.4692 81.842649 
L 107.4692 73.519427 
L 99.145975 73.519427 
z
" clip-path="url(#pb47437b18a)" style="stroke: #000000; stroke-linejoin: miter"/>
   </g>
   <g id="patch_170">
    <path d="M 113.22061 81.013528 
L 119.885591 81.013528 
L 119.885591 74.348547 
L 113.22061 74.348547 
z
" clip-path="url(#pb47437b18a)" style="stroke: #000000; stroke-linejoin: miter"/>
   </g>
   <g id="patch_171">
    <path d="M 126.687735 80.79192 
L 132.9095 80.79192 
L 132.9095 74.570155 
L 126.687735 74.570155 
z
" clip-path="url(#pb47437b18a)" style="stroke: #000000; stroke-linejoin: miter"/>
   </g>
   <g id="patch_172">
    <path d="M 139.881424 80.843749 
L 146.206846 80.843749 
L 146.206846 74.518326 
L 139.881424 74.518326 
z
" clip-path="url(#pb47437b18a)" style="stroke: #000000; stroke-linejoin: miter"/>
   </g>
   <g id="patch_173">
    <path d="M 153.173572 80.797118 
L 159.405745 80.797118 
L 159.405745 74.564944 
L 153.173572 74.564944 
z
" clip-path="url(#pb47437b18a)" style="stroke: #000000; stroke-linejoin: miter"/>
   </g>
   <g id="patch_174">
    <path d="M 166.49111 80.725091 
L 172.579223 80.725091 
L 172.579223 74.636972 
L 166.49111 74.636972 
z
" clip-path="url(#pb47437b18a)" style="stroke: #000000; stroke-linejoin: miter"/>
   </g>
   <g id="patch_175">
    <path d="M 179.694967 80.766757 
L 185.866413 80.766757 
L 185.866413 74.595318 
L 179.694967 74.595318 
z
" clip-path="url(#pb47437b18a)" style="stroke: #000000; stroke-linejoin: miter"/>
   </g>
   <g id="patch_176">
    <path d="M 192.901035 80.806207 
L 199.151379 80.806207 
L 199.151379 74.555862 
L 192.901035 74.555862 
z
" clip-path="url(#pb47437b18a)" style="stroke: #000000; stroke-linejoin: miter"/>
   </g>
   <g id="patch_177">
    <path d="M 206.198406 80.754347 
L 212.34503 80.754347 
L 212.34503 74.607716 
L 206.198406 74.607716 
z
" clip-path="url(#pb47437b18a)" style="stroke: #000000; stroke-linejoin: miter"/>
   </g>
   <g id="patch_178">
    <path d="M 219.469225 80.729045 
L 225.565245 80.729045 
L 225.565245 74.633024 
L 219.469225 74.633024 
z
" clip-path="url(#pb47437b18a)" style="stroke: #000000; stroke-linejoin: miter"/>
   </g>
   <g id="patch_179">
    <path d="M 232.712506 80.731287 
L 238.813011 80.731287 
L 238.813011 74.630782 
L 232.712506 74.630782 
z
" clip-path="url(#pb47437b18a)" style="stroke: #000000; stroke-linejoin: miter"/>
   </g>
   <g id="patch_180">
    <path d="M 245.948726 80.740584 
L 252.067825 80.740584 
L 252.067825 74.621491 
L 245.948726 74.621491 
z
" clip-path="url(#pb47437b18a)" style="stroke: #000000; stroke-linejoin: miter"/>
   </g>
   <g id="patch_181">
    <path d="M 259.207381 80.727447 
L 265.300205 80.727447 
L 265.300205 74.634616 
L 259.207381 74.634616 
z
" clip-path="url(#pb47437b18a)" style="stroke: #000000; stroke-linejoin: miter"/>
   </g>
   <g id="patch_182">
    <path d="M 272.453277 80.727062 
L 278.545344 80.727062 
L 278.545344 74.635001 
L 272.453277 74.635001 
z
" clip-path="url(#pb47437b18a)" style="stroke: #000000; stroke-linejoin: miter"/>
   </g>
   <g id="patch_183">
    <path d="M 285.698415 80.727453 
L 291.791265 80.727453 
L 291.791265 74.634609 
L 285.698415 74.634609 
z
" clip-path="url(#pb47437b18a)" style="stroke: #000000; stroke-linejoin: miter"/>
   </g>
   <g id="patch_184">
    <path d="M 298.942012 80.729361 
L 305.038652 80.729361 
L 305.038652 74.632708 
L 298.942012 74.632708 
z
" clip-path="url(#pb47437b18a)" style="stroke: #000000; stroke-linejoin: miter"/>
   </g>
   <g id="patch_185">
    <path d="M 312.186342 80.730548 
L 318.285382 80.730548 
L 318.285382 74.631521 
L 312.186342 74.631521 
z
" clip-path="url(#pb47437b18a)" style="stroke: #000000; stroke-linejoin: miter"/>
   </g>
   <g id="patch_186">
    <path d="M 325.436836 80.725571 
L 331.525922 80.725571 
L 331.525922 74.636498 
L 325.436836 74.636498 
z
" clip-path="url(#pb47437b18a)" style="stroke: #000000; stroke-linejoin: miter"/>
   </g>
   <g id="patch_187">
    <path d="M 338.686649 80.721295 
L 344.76717 80.721295 
L 344.76717 74.640774 
L 338.686649 74.640774 
z
" clip-path="url(#pb47437b18a)" style="stroke: #000000; stroke-linejoin: miter"/>
   </g>
   <g id="patch_188">
    <path d="M 351.929513 80.723942 
L 358.015314 80.723942 
L 358.015314 74.638134 
L 351.929513 74.638134 
z
" clip-path="url(#pb47437b18a)" style="stroke: #000000; stroke-linejoin: miter"/>
   </g>
   <g id="patch_189">
    <path d="M 365.164091 80.734868 
L 371.271746 80.734868 
L 371.271746 74.627207 
L 365.164091 74.627207 
z
" clip-path="url(#pb47437b18a)" style="stroke: #000000; stroke-linejoin: miter"/>
   </g>
   <g id="patch_190">
    <path d="M 378.406198 80.738291 
L 384.520724 80.738291 
L 384.520724 74.623771 
L 378.406198 74.623771 
z
" clip-path="url(#pb47437b18a)" style="stroke: #000000; stroke-linejoin: miter"/>
   </g>
   <g id="patch_191">
    <path d="M 391.659218 80.730775 
L 397.758713 80.730775 
L 397.758713 74.631287 
L 391.659218 74.631287 
z
" clip-path="url(#pb47437b18a)" style="stroke: #000000; stroke-linejoin: miter"/>
   </g>
   <g id="patch_192">
    <path d="M 45.172462 69.588572 
L 55.478573 69.588572 
L 55.478573 59.282462 
L 45.172462 59.282462 
z
" clip-path="url(#pb47437b18a)" style="stroke: #000000; stroke-linejoin: miter"/>
   </g>
   <g id="patch_193">
    <path d="M 58.544894 69.461659 
L 68.597173 69.461659 
L 68.597173 59.409381 
L 58.544894 59.409381 
z
" clip-path="url(#pb47437b18a)" style="stroke: #000000; stroke-linejoin: miter"/>
   </g>
   <g id="patch_194">
    <path d="M 72.022802 69.22927 
L 81.610305 69.22927 
L 81.610305 59.641771 
L 72.022802 59.641771 
z
" clip-path="url(#pb47437b18a)" style="stroke: #000000; stroke-linejoin: miter"/>
   </g>
   <g id="patch_195">
    <path d="M 85.708794 68.788789 
L 94.415341 68.788789 
L 94.415341 60.082239 
L 85.708794 60.082239 
z
" clip-path="url(#pb47437b18a)" style="stroke: #000000; stroke-linejoin: miter"/>
   </g>
   <g id="patch_196">
    <path d="M 99.736817 68.006286 
L 106.878355 68.006286 
L 106.878355 60.864748 
L 99.736817 60.864748 
z
" clip-path="url(#pb47437b18a)" style="stroke: #000000; stroke-linejoin: miter"/>
   </g>
   <g id="patch_197">
    <path d="M 113.494628 67.493993 
L 119.611579 67.493993 
L 119.611579 61.377041 
L 113.494628 61.377041 
z
" clip-path="url(#pb47437b18a)" style="stroke: #000000; stroke-linejoin: miter"/>
   </g>
   <g id="patch_198">
    <path d="M 126.756314 67.477824 
L 132.840934 67.477824 
L 132.840934 61.393204 
L 126.756314 61.393204 
z
" clip-path="url(#pb47437b18a)" style="stroke: #000000; stroke-linejoin: miter"/>
   </g>
   <g id="patch_199">
    <path d="M 139.998313 67.481342 
L 146.089957 67.481342 
L 146.089957 61.389699 
L 139.998313 61.389699 
z
" clip-path="url(#pb47437b18a)" style="stroke: #000000; stroke-linejoin: miter"/>
   </g>
   <g id="patch_200">
    <path d="M 153.243938 67.481235 
L 159.335373 67.481235 
L 159.335373 61.389806 
L 153.243938 61.389806 
z
" clip-path="url(#pb47437b18a)" style="stroke: #000000; stroke-linejoin: miter"/>
   </g>
   <g id="patch_201">
    <path d="M 166.49831 67.47238 
L 172.572035 67.47238 
L 172.572035 61.398655 
L 166.49831 61.398655 
z
" clip-path="url(#pb47437b18a)" style="stroke: #000000; stroke-linejoin: miter"/>
   </g>
   <g id="patch_202">
    <path d="M 179.684811 67.53139 
L 185.876556 67.53139 
L 185.876556 61.339638 
L 179.684811 61.339638 
z
" clip-path="url(#pb47437b18a)" style="stroke: #000000; stroke-linejoin: miter"/>
   </g>
   <g id="patch_203">
    <path d="M 192.916989 67.544735 
L 199.135425 67.544735 
L 199.135425 61.326305 
L 192.916989 61.326305 
z
" clip-path="url(#pb47437b18a)" style="stroke: #000000; stroke-linejoin: miter"/>
   </g>
   <g id="patch_204">
    <path d="M 206.227396 67.479845 
L 212.316052 67.479845 
L 212.316052 61.391195 
L 206.227396 61.391195 
z
" clip-path="url(#pb47437b18a)" style="stroke: #000000; stroke-linejoin: miter"/>
   </g>
   <g id="patch_205">
    <path d="M 219.483991 67.468767 
L 225.550491 67.468767 
L 225.550491 61.402261 
L 219.483991 61.402261 
z
" clip-path="url(#pb47437b18a)" style="stroke: #000000; stroke-linejoin: miter"/>
   </g>
   <g id="patch_206">
    <path d="M 232.729256 67.469013 
L 238.796249 67.469013 
L 238.796249 61.402021 
L 232.729256 61.402021 
z
" clip-path="url(#pb47437b18a)" style="stroke: #000000; stroke-linejoin: miter"/>
   </g>
   <g id="patch_207">
    <path d="M 245.976049 67.467744 
L 252.040503 67.467744 
L 252.040503 61.403297 
L 245.976049 61.403297 
z
" clip-path="url(#pb47437b18a)" style="stroke: #000000; stroke-linejoin: miter"/>
   </g>
   <g id="patch_208">
    <path d="M 259.212383 67.476934 
L 265.295203 67.476934 
L 265.295203 61.394107 
L 259.212383 61.394107 
z
" clip-path="url(#pb47437b18a)" style="stroke: #000000; stroke-linejoin: miter"/>
   </g>
   <g id="patch_209">
    <path d="M 272.452822 67.482005 
L 278.545799 67.482005 
L 278.545799 61.389029 
L 272.452822 61.389029 
z
" clip-path="url(#pb47437b18a)" style="stroke: #000000; stroke-linejoin: miter"/>
   </g>
   <g id="patch_210">
    <path d="M 285.698264 67.482088 
L 291.791392 67.482088 
L 291.791392 61.388947 
L 285.698264 61.388947 
z
" clip-path="url(#pb47437b18a)" style="stroke: #000000; stroke-linejoin: miter"/>
   </g>
   <g id="patch_211">
    <path d="M 298.94128 67.484582 
L 305.03941 67.484582 
L 305.03941 61.386458 
L 298.94128 61.386458 
z
" clip-path="url(#pb47437b18a)" style="stroke: #000000; stroke-linejoin: miter"/>
   </g>
   <g id="patch_212">
    <path d="M 312.180633 67.490734 
L 318.291066 67.490734 
L 318.291066 61.3803 
L 312.180633 61.3803 
z
" clip-path="url(#pb47437b18a)" style="stroke: #000000; stroke-linejoin: miter"/>
   </g>
   <g id="patch_213">
    <path d="M 325.425998 67.490911 
L 331.536786 67.490911 
L 331.536786 61.38013 
L 325.425998 61.38013 
z
" clip-path="url(#pb47437b18a)" style="stroke: #000000; stroke-linejoin: miter"/>
   </g>
   <g id="patch_214">
    <path d="M 338.673815 67.488593 
L 344.779979 67.488593 
L 344.779979 61.382435 
L 338.673815 61.382435 
z
" clip-path="url(#pb47437b18a)" style="stroke: #000000; stroke-linejoin: miter"/>
   </g>
   <g id="patch_215">
    <path d="M 351.919382 67.488549 
L 358.025445 67.488549 
L 358.025445 61.382492 
L 351.919382 61.382492 
z
" clip-path="url(#pb47437b18a)" style="stroke: #000000; stroke-linejoin: miter"/>
   </g>
   <g id="patch_216">
    <path d="M 365.158129 67.495319 
L 371.277733 67.495319 
L 371.277733 61.375715 
L 365.158129 61.375715 
z
" clip-path="url(#pb47437b18a)" style="stroke: #000000; stroke-linejoin: miter"/>
   </g>
   <g id="patch_217">
    <path d="M 378.3992 67.499766 
L 384.527697 67.499766 
L 384.527697 61.371269 
L 378.3992 61.371269 
z
" clip-path="url(#pb47437b18a)" style="stroke: #000000; stroke-linejoin: miter"/>
   </g>
   <g id="patch_218">
    <path d="M 391.656591 67.487892 
L 397.76134 67.487892 
L 397.76134 61.383143 
L 391.656591 61.383143 
z
" clip-path="url(#pb47437b18a)" style="stroke: #000000; stroke-linejoin: miter"/>
   </g>
   <g id="patch_219">
    <path d="M 45.155321 56.360196 
L 55.495713 56.360196 
L 55.495713 46.01981 
L 45.155321 46.01981 
z
" clip-path="url(#pb47437b18a)" style="stroke: #000000; stroke-linejoin: miter"/>
   </g>
   <g id="patch_220">
    <path d="M 58.468964 56.292072 
L 68.673104 56.292072 
L 68.673104 46.087934 
L 58.468964 46.087934 
z
" clip-path="url(#pb47437b18a)" style="stroke: #000000; stroke-linejoin: miter"/>
   </g>
   <g id="patch_221">
    <path d="M 71.836215 56.170339 
L 81.796891 56.170339 
L 81.796891 46.209668 
L 71.836215 46.209668 
z
" clip-path="url(#pb47437b18a)" style="stroke: #000000; stroke-linejoin: miter"/>
   </g>
   <g id="patch_222">
    <path d="M 85.311416 55.940653 
L 94.812722 55.940653 
L 94.812722 46.439354 
L 85.311416 46.439354 
z
" clip-path="url(#pb47437b18a)" style="stroke: #000000; stroke-linejoin: miter"/>
   </g>
   <g id="patch_223">
    <path d="M 98.843615 55.653972 
L 107.771564 55.653972 
L 107.771564 46.726022 
L 98.843615 46.726022 
z
" clip-path="url(#pb47437b18a)" style="stroke: #000000; stroke-linejoin: miter"/>
   </g>
   <g id="patch_224">
    <path d="M 111.921936 55.821168 
L 121.184265 55.821168 
L 121.184265 46.558839 
L 111.921936 46.558839 
z
" clip-path="url(#pb47437b18a)" style="stroke: #000000; stroke-linejoin: miter"/>
   </g>
   <g id="patch_225">
    <path d="M 125.280174 55.708447 
L 134.317067 55.708447 
L 134.317067 46.671553 
L 125.280174 46.671553 
z
" clip-path="url(#pb47437b18a)" style="stroke: #000000; stroke-linejoin: miter"/>
   </g>
   <g id="patch_226">
    <path d="M 138.627681 55.606457 
L 147.460595 55.606457 
L 147.460595 46.773543 
L 138.627681 46.773543 
z
" clip-path="url(#pb47437b18a)" style="stroke: #000000; stroke-linejoin: miter"/>
   </g>
   <g id="patch_227">
    <path d="M 151.829802 55.649854 
L 160.749502 55.649854 
L 160.749502 46.730153 
L 151.829802 46.730153 
z
" clip-path="url(#pb47437b18a)" style="stroke: #000000; stroke-linejoin: miter"/>
   </g>
   <g id="patch_228">
    <path d="M 165.102067 55.623106 
L 173.968278 55.623106 
L 173.968278 46.756894 
L 165.102067 46.756894 
z
" clip-path="url(#pb47437b18a)" style="stroke: #000000; stroke-linejoin: miter"/>
   </g>
   <g id="patch_229">
    <path d="M 178.391253 55.579431 
L 187.170114 55.579431 
L 187.170114 46.800563 
L 178.391253 46.800563 
z
" clip-path="url(#pb47437b18a)" style="stroke: #000000; stroke-linejoin: miter"/>
   </g>
   <g id="patch_230">
    <path d="M 191.649275 55.566938 
L 200.403151 55.566938 
L 200.403151 46.813069 
L 191.649275 46.813069 
z
" clip-path="url(#pb47437b18a)" style="stroke: #000000; stroke-linejoin: miter"/>
   </g>
   <g id="patch_231">
    <path d="M 204.896384 55.565333 
L 213.647051 55.565333 
L 213.647051 46.81466 
L 204.896384 46.81466 
z
" clip-path="url(#pb47437b18a)" style="stroke: #000000; stroke-linejoin: miter"/>
   </g>
   <g id="patch_232">
    <path d="M 218.150365 55.556883 
L 226.88413 55.556883 
L 226.88413 46.823124 
L 218.150365 46.823124 
z
" clip-path="url(#pb47437b18a)" style="stroke: #000000; stroke-linejoin: miter"/>
   </g>
   <g id="patch_233">
    <path d="M 231.405255 55.547504 
L 240.120262 55.547504 
L 240.120262 46.832496 
L 231.405255 46.832496 
z
" clip-path="url(#pb47437b18a)" style="stroke: #000000; stroke-linejoin: miter"/>
   </g>
   <g id="patch_234">
    <path d="M 244.658869 55.539406 
L 253.357682 55.539406 
L 253.357682 46.840594 
L 244.658869 46.840594 
z
" clip-path="url(#pb47437b18a)" style="stroke: #000000; stroke-linejoin: miter"/>
   </g>
   <g id="patch_235">
    <path d="M 257.915667 55.528126 
L 266.591919 55.528126 
L 266.591919 46.851874 
L 257.915667 46.851874 
z
" clip-path="url(#pb47437b18a)" style="stroke: #000000; stroke-linejoin: miter"/>
   </g>
   <g id="patch_236">
    <path d="M 271.176747 55.512557 
L 279.821849 55.512557 
L 279.821849 46.867449 
L 271.176747 46.867449 
z
" clip-path="url(#pb47437b18a)" style="stroke: #000000; stroke-linejoin: miter"/>
   </g>
   <g id="patch_237">
    <path d="M 284.439241 55.495599 
L 293.050439 55.495599 
L 293.050439 46.884401 
L 284.439241 46.884401 
z
" clip-path="url(#pb47437b18a)" style="stroke: #000000; stroke-linejoin: miter"/>
   </g>
   <g id="patch_238">
    <path d="M 297.704641 55.475691 
L 306.276023 55.475691 
L 306.276023 46.904309 
L 297.704641 46.904309 
z
" clip-path="url(#pb47437b18a)" style="stroke: #000000; stroke-linejoin: miter"/>
   </g>
   <g id="patch_239">
    <path d="M 310.96898 55.456882 
L 319.502744 55.456882 
L 319.502744 46.923118 
L 310.96898 46.923118 
z
" clip-path="url(#pb47437b18a)" style="stroke: #000000; stroke-linejoin: miter"/>
   </g>
   <g id="patch_240">
    <path d="M 324.231853 55.439513 
L 332.73088 55.439513 
L 332.73088 46.940487 
L 324.231853 46.940487 
z
" clip-path="url(#pb47437b18a)" style="stroke: #000000; stroke-linejoin: miter"/>
   </g>
   <g id="patch_241">
    <path d="M 337.505843 55.411047 
L 345.947925 55.411047 
L 345.947925 46.968959 
L 337.505843 46.968959 
z
" clip-path="url(#pb47437b18a)" style="stroke: #000000; stroke-linejoin: miter"/>
   </g>
   <g id="patch_242">
    <path d="M 350.772001 55.390426 
L 359.172852 55.390426 
L 359.172852 46.989587 
L 350.772001 46.989587 
z
" clip-path="url(#pb47437b18a)" style="stroke: #000000; stroke-linejoin: miter"/>
   </g>
   <g id="patch_243">
    <path d="M 364.02151 55.386415 
L 372.414352 55.386415 
L 372.414352 46.993579 
L 364.02151 46.993579 
z
" clip-path="url(#pb47437b18a)" style="stroke: #000000; stroke-linejoin: miter"/>
   </g>
   <g id="patch_244">
    <path d="M 377.292392 55.361063 
L 385.634505 55.361063 
L 385.634505 47.018943 
L 377.292392 47.018943 
z
" clip-path="url(#pb47437b18a)" style="stroke: #000000; stroke-linejoin: miter"/>
   </g>
   <g id="patch_245">
    <path d="M 390.573253 55.325712 
L 398.844678 55.325712 
L 398.844678 47.054288 
L 390.573253 47.054288 
z
" clip-path="url(#pb47437b18a)" style="stroke: #000000; stroke-linejoin: miter"/>
   </g>
   <g id="matplotlib.axis_1">
    <g id="xtick_1">
     <g id="line2d_1">
      <defs>
       <path id="m90839d9cd5" d="M 0 0 
L 0 3.5 
" style="stroke: #000000; stroke-width: 0.8"/>
      </defs>
      <g>
       <use xlink:href="#m90839d9cd5" x="50.325517" y="170.399655" style="stroke: #000000; stroke-width: 0.8"/>
      </g>
     </g>
     <g id="text_1">
      <!-- 1 -->
      <g transform="translate(47.144267 191.498093) scale(0.1 -0.1)">
       <defs>
        <path id="DejaVuSans-31" d="M 794 531 
L 1825 531 
L 1825 4091 
L 703 3866 
L 703 4441 
L 1819 4666 
L 2450 4666 
L 2450 531 
L 3481 531 
L 3481 0 
L 794 0 
L 794 531 
z
" transform="scale(0.015625)"/>
       </defs>
       <use xlink:href="#DejaVuSans-31"/>
      </g>
     </g>
    </g>
    <g id="xtick_2">
     <g id="line2d_2">
      <g>
       <use xlink:href="#m90839d9cd5" x="394.708966" y="170.399655" style="stroke: #000000; stroke-width: 0.8"/>
      </g>
     </g>
     <g id="text_2">
      <!-- 200 -->
      <g transform="translate(385.165216 191.498093) scale(0.1 -0.1)">
       <defs>
        <path id="DejaVuSans-32" d="M 1228 531 
L 3431 531 
L 3431 0 
L 469 0 
L 469 531 
Q 828 903 1448 1529 
Q 2069 2156 2228 2338 
Q 2531 2678 2651 2914 
Q 2772 3150 2772 3378 
Q 2772 3750 2511 3984 
Q 2250 4219 1831 4219 
Q 1534 4219 1204 4116 
Q 875 4013 500 3803 
L 500 4441 
Q 881 4594 1212 4672 
Q 1544 4750 1819 4750 
Q 2544 4750 2975 4387 
Q 3406 4025 3406 3419 
Q 3406 3131 3298 2873 
Q 3191 2616 2906 2266 
Q 2828 2175 2409 1742 
Q 1991 1309 1228 531 
z
" transform="scale(0.015625)"/>
        <path id="DejaVuSans-30" d="M 2034 4250 
Q 1547 4250 1301 3770 
Q 1056 3291 1056 2328 
Q 1056 1369 1301 889 
Q 1547 409 2034 409 
Q 2525 409 2770 889 
Q 3016 1369 3016 2328 
Q 3016 3291 2770 3770 
Q 2525 4250 2034 4250 
z
M 2034 4750 
Q 2819 4750 3233 4129 
Q 3647 3509 3647 2328 
Q 3647 1150 3233 529 
Q 2819 -91 2034 -91 
Q 1250 -91 836 529 
Q 422 1150 422 2328 
Q 422 3509 836 4129 
Q 1250 4750 2034 4750 
z
" transform="scale(0.015625)"/>
       </defs>
       <use xlink:href="#DejaVuSans-32"/>
       <use xlink:href="#DejaVuSans-30" x="63.623047"/>
       <use xlink:href="#DejaVuSans-30" x="127.246094"/>
      </g>
     </g>
    </g>
    <g id="text_3">
     <!-- Epoch -->
     <g transform="translate(213.829062 205.176218) scale(0.1 -0.1)">
      <defs>
       <path id="DejaVuSans-45" d="M 628 4666 
L 3578 4666 
L 3578 4134 
L 1259 4134 
L 1259 2753 
L 3481 2753 
L 3481 2222 
L 1259 2222 
L 1259 531 
L 3634 531 
L 3634 0 
L 628 0 
L 628 4666 
z
" transform="scale(0.015625)"/>
       <path id="DejaVuSans-70" d="M 1159 525 
L 1159 -1331 
L 581 -1331 
L 581 3500 
L 1159 3500 
L 1159 2969 
Q 1341 3281 1617 3432 
Q 1894 3584 2278 3584 
Q 2916 3584 3314 3078 
Q 3713 2572 3713 1747 
Q 3713 922 3314 415 
Q 2916 -91 2278 -91 
Q 1894 -91 1617 61 
Q 1341 213 1159 525 
z
M 3116 1747 
Q 3116 2381 2855 2742 
Q 2594 3103 2138 3103 
Q 1681 3103 1420 2742 
Q 1159 2381 1159 1747 
Q 1159 1113 1420 752 
Q 1681 391 2138 391 
Q 2594 391 2855 752 
Q 3116 1113 3116 1747 
z
" transform="scale(0.015625)"/>
       <path id="DejaVuSans-6f" d="M 1959 3097 
Q 1497 3097 1228 2736 
Q 959 2375 959 1747 
Q 959 1119 1226 758 
Q 1494 397 1959 397 
Q 2419 397 2687 759 
Q 2956 1122 2956 1747 
Q 2956 2369 2687 2733 
Q 2419 3097 1959 3097 
z
M 1959 3584 
Q 2709 3584 3137 3096 
Q 3566 2609 3566 1747 
Q 3566 888 3137 398 
Q 2709 -91 1959 -91 
Q 1206 -91 779 398 
Q 353 888 353 1747 
Q 353 2609 779 3096 
Q 1206 3584 1959 3584 
z
" transform="scale(0.015625)"/>
       <path id="DejaVuSans-63" d="M 3122 3366 
L 3122 2828 
Q 2878 2963 2633 3030 
Q 2388 3097 2138 3097 
Q 1578 3097 1268 2742 
Q 959 2388 959 1747 
Q 959 1106 1268 751 
Q 1578 397 2138 397 
Q 2388 397 2633 464 
Q 2878 531 3122 666 
L 3122 134 
Q 2881 22 2623 -34 
Q 2366 -91 2075 -91 
Q 1284 -91 818 406 
Q 353 903 353 1747 
Q 353 2603 823 3093 
Q 1294 3584 2113 3584 
Q 2378 3584 2631 3529 
Q 2884 3475 3122 3366 
z
" transform="scale(0.015625)"/>
       <path id="DejaVuSans-68" d="M 3513 2113 
L 3513 0 
L 2938 0 
L 2938 2094 
Q 2938 2591 2744 2837 
Q 2550 3084 2163 3084 
Q 1697 3084 1428 2787 
Q 1159 2491 1159 1978 
L 1159 0 
L 581 0 
L 581 4863 
L 1159 4863 
L 1159 2956 
Q 1366 3272 1645 3428 
Q 1925 3584 2291 3584 
Q 2894 3584 3203 3211 
Q 3513 2838 3513 2113 
z
" transform="scale(0.015625)"/>
      </defs>
      <use xlink:href="#DejaVuSans-45"/>
      <use xlink:href="#DejaVuSans-70" x="63.183594"/>
      <use xlink:href="#DejaVuSans-6f" x="126.660156"/>
      <use xlink:href="#DejaVuSans-63" x="187.841797"/>
      <use xlink:href="#DejaVuSans-68" x="242.822266"/>
     </g>
    </g>
   </g>
   <g id="matplotlib.axis_2">
    <g id="ytick_1">
     <g id="line2d_3">
      <defs>
       <path id="m494712b2ff" d="M 0 0 
L -3.5 0 
" style="stroke: #000000; stroke-width: 0.8"/>
      </defs>
      <g>
       <use xlink:href="#m494712b2ff" x="37.08" y="157.154138" style="stroke: #000000; stroke-width: 0.8"/>
      </g>
     </g>
     <g id="text_4">
      <!-- 2 -->
      <g transform="translate(17.2175 160.953357) scale(0.1 -0.1)">
       <use xlink:href="#DejaVuSans-32"/>
      </g>
     </g>
    </g>
    <g id="ytick_2">
     <g id="line2d_4">
      <g>
       <use xlink:href="#m494712b2ff" x="37.08" y="143.908621" style="stroke: #000000; stroke-width: 0.8"/>
      </g>
     </g>
     <g id="text_5">
      <!-- 3 -->
      <g transform="translate(17.2175 147.707839) scale(0.1 -0.1)">
       <defs>
        <path id="DejaVuSans-33" d="M 2597 2516 
Q 3050 2419 3304 2112 
Q 3559 1806 3559 1356 
Q 3559 666 3084 287 
Q 2609 -91 1734 -91 
Q 1441 -91 1130 -33 
Q 819 25 488 141 
L 488 750 
Q 750 597 1062 519 
Q 1375 441 1716 441 
Q 2309 441 2620 675 
Q 2931 909 2931 1356 
Q 2931 1769 2642 2001 
Q 2353 2234 1838 2234 
L 1294 2234 
L 1294 2753 
L 1863 2753 
Q 2328 2753 2575 2939 
Q 2822 3125 2822 3475 
Q 2822 3834 2567 4026 
Q 2313 4219 1838 4219 
Q 1578 4219 1281 4162 
Q 984 4106 628 3988 
L 628 4550 
Q 988 4650 1302 4700 
Q 1616 4750 1894 4750 
Q 2613 4750 3031 4423 
Q 3450 4097 3450 3541 
Q 3450 3153 3228 2886 
Q 3006 2619 2597 2516 
z
" transform="scale(0.015625)"/>
       </defs>
       <use xlink:href="#DejaVuSans-33"/>
      </g>
     </g>
    </g>
    <g id="ytick_3">
     <g id="line2d_5">
      <g>
       <use xlink:href="#m494712b2ff" x="37.08" y="130.663103" style="stroke: #000000; stroke-width: 0.8"/>
      </g>
     </g>
     <g id="text_6">
      <!-- 5 -->
      <g transform="translate(17.2175 134.462322) scale(0.1 -0.1)">
       <defs>
        <path id="DejaVuSans-35" d="M 691 4666 
L 3169 4666 
L 3169 4134 
L 1269 4134 
L 1269 2991 
Q 1406 3038 1543 3061 
Q 1681 3084 1819 3084 
Q 2600 3084 3056 2656 
Q 3513 2228 3513 1497 
Q 3513 744 3044 326 
Q 2575 -91 1722 -91 
Q 1428 -91 1123 -41 
Q 819 9 494 109 
L 494 744 
Q 775 591 1075 516 
Q 1375 441 1709 441 
Q 2250 441 2565 725 
Q 2881 1009 2881 1497 
Q 2881 1984 2565 2268 
Q 2250 2553 1709 2553 
Q 1456 2553 1204 2497 
Q 953 2441 691 2322 
L 691 4666 
z
" transform="scale(0.015625)"/>
       </defs>
       <use xlink:href="#DejaVuSans-35"/>
      </g>
     </g>
    </g>
    <g id="ytick_4">
     <g id="line2d_6">
      <g>
       <use xlink:href="#m494712b2ff" x="37.08" y="117.417586" style="stroke: #000000; stroke-width: 0.8"/>
      </g>
     </g>
     <g id="text_7">
      <!-- 7 -->
      <g transform="translate(17.2175 121.216805) scale(0.1 -0.1)">
       <defs>
        <path id="DejaVuSans-37" d="M 525 4666 
L 3525 4666 
L 3525 4397 
L 1831 0 
L 1172 0 
L 2766 4134 
L 525 4134 
L 525 4666 
z
" transform="scale(0.015625)"/>
       </defs>
       <use xlink:href="#DejaVuSans-37"/>
      </g>
     </g>
    </g>
    <g id="ytick_5">
     <g id="line2d_7">
      <g>
       <use xlink:href="#m494712b2ff" x="37.08" y="104.172069" style="stroke: #000000; stroke-width: 0.8"/>
      </g>
     </g>
     <g id="text_8">
      <!-- 11 -->
      <g transform="translate(10.855 107.971288) scale(0.1 -0.1)">
       <use xlink:href="#DejaVuSans-31"/>
       <use xlink:href="#DejaVuSans-31" x="63.623047"/>
      </g>
     </g>
    </g>
    <g id="ytick_6">
     <g id="line2d_8">
      <g>
       <use xlink:href="#m494712b2ff" x="37.08" y="90.926552" style="stroke: #000000; stroke-width: 0.8"/>
      </g>
     </g>
     <g id="text_9">
      <!-- 13 -->
      <g transform="translate(10.855 94.72577) scale(0.1 -0.1)">
       <use xlink:href="#DejaVuSans-31"/>
       <use xlink:href="#DejaVuSans-33" x="63.623047"/>
      </g>
     </g>
    </g>
    <g id="ytick_7">
     <g id="line2d_9">
      <g>
       <use xlink:href="#m494712b2ff" x="37.08" y="77.681034" style="stroke: #000000; stroke-width: 0.8"/>
      </g>
     </g>
     <g id="text_10">
      <!-- 17 -->
      <g transform="translate(10.855 81.480253) scale(0.1 -0.1)">
       <use xlink:href="#DejaVuSans-31"/>
       <use xlink:href="#DejaVuSans-37" x="63.623047"/>
      </g>
     </g>
    </g>
    <g id="ytick_8">
     <g id="line2d_10">
      <g>
       <use xlink:href="#m494712b2ff" x="37.08" y="64.435517" style="stroke: #000000; stroke-width: 0.8"/>
      </g>
     </g>
     <g id="text_11">
      <!-- 19 -->
      <g transform="translate(10.855 68.234736) scale(0.1 -0.1)">
       <defs>
        <path id="DejaVuSans-39" d="M 703 97 
L 703 672 
Q 941 559 1184 500 
Q 1428 441 1663 441 
Q 2288 441 2617 861 
Q 2947 1281 2994 2138 
Q 2813 1869 2534 1725 
Q 2256 1581 1919 1581 
Q 1219 1581 811 2004 
Q 403 2428 403 3163 
Q 403 3881 828 4315 
Q 1253 4750 1959 4750 
Q 2769 4750 3195 4129 
Q 3622 3509 3622 2328 
Q 3622 1225 3098 567 
Q 2575 -91 1691 -91 
Q 1453 -91 1209 -44 
Q 966 3 703 97 
z
M 1959 2075 
Q 2384 2075 2632 2365 
Q 2881 2656 2881 3163 
Q 2881 3666 2632 3958 
Q 2384 4250 1959 4250 
Q 1534 4250 1286 3958 
Q 1038 3666 1038 3163 
Q 1038 2656 1286 2365 
Q 1534 2075 1959 2075 
z
" transform="scale(0.015625)"/>
       </defs>
       <use xlink:href="#DejaVuSans-31"/>
       <use xlink:href="#DejaVuSans-39" x="63.623047"/>
      </g>
     </g>
    </g>
    <g id="ytick_9">
     <g id="line2d_11">
      <g>
       <use xlink:href="#m494712b2ff" x="37.08" y="51.19" style="stroke: #000000; stroke-width: 0.8"/>
      </g>
     </g>
     <g id="text_12">
      <!--  -->
      <g transform="translate(16.5675 54.989219) scale(0.1 -0.1)">
       <defs>
        <path id="DejaVuSans-2119" d="M 938 4353 
L 938 313 
L 1569 313 
L 1569 4353 
L 938 4353 
z
M 1881 4353 
L 1881 2284 
L 2825 2284 
Q 2900 2284 2972 2291 
L 2972 4347 
Q 2900 4353 2825 4353 
L 1881 4353 
z
M 625 4666 
L 2678 4666 
Q 3459 4666 3861 4323 
Q 4263 3981 4263 3322 
Q 4263 2656 3861 2315 
Q 3459 1975 2675 1975 
L 1881 1975 
L 1881 0 
L 625 0 
L 625 4666 
z
M 3300 4281 
L 3300 2359 
Q 3488 2428 3628 2556 
Q 3919 2825 3919 3322 
Q 3919 3816 3631 4084 
Q 3494 4213 3300 4281 
z
" transform="scale(0.015625)"/>
       </defs>
       <use xlink:href="#DejaVuSans-2119"/>
      </g>
     </g>
    </g>
   </g>
  </g>
 </g>
 <defs>
  <clipPath id="pb47437b18a">
   <rect x="37.08" y="24.698966" width="384.12" height="145.70069"/>
  </clipPath>
 </defs>
</svg>
