<?xml version="1.0" encoding="utf-8" standalone="no"?>
<!DOCTYPE svg PUBLIC "-//W3C//DTD SVG 1.1//EN"
  "http://www.w3.org/Graphics/SVG/1.1/DTD/svg11.dtd">
<svg xmlns:xlink="http://www.w3.org/1999/xlink" width="432pt" height="216pt" viewBox="0 0 432 216" xmlns="http://www.w3.org/2000/svg" version="1.1">
 <metadata>
  <rdf:RDF xmlns:dc="http://purl.org/dc/elements/1.1/" xmlns:cc="http://creativecommons.org/ns#" xmlns:rdf="http://www.w3.org/1999/02/22-rdf-syntax-ns#">
   <cc:Work>
    <dc:type rdf:resource="http://purl.org/dc/dcmitype/StillImage"/>
    <dc:date>2024-08-13T20:53:18.330735</dc:date>
    <dc:format>image/svg+xml</dc:format>
    <dc:creator>
     <cc:Agent>
      <dc:title>Matplotlib v3.9.1.post1, https://matplotlib.org/</dc:title>
     </cc:Agent>
    </dc:creator>
   </cc:Work>
  </rdf:RDF>
 </metadata>
 <defs>
  <style type="text/css">*{stroke-linejoin: round; stroke-linecap: butt}</style>
 </defs>
 <g id="figure_1">
  <g id="patch_1">
   <path d="M 0 216 
L 432 216 
L 432 0 
L 0 0 
z
" style="fill: #ffffff"/>
  </g>
  <g id="axes_1">
   <g id="patch_2">
    <path d="M 37.08 170.399655 
L 421.2 170.399655 
L 421.2 24.698966 
L 37.08 24.698966 
z
" style="fill: #ffffff"/>
   </g>
   <g id="patch_3">
    <path d="M 45.074184 162.405471 
L 55.576851 162.405471 
L 55.576851 151.902804 
L 45.074184 151.902804 
z
" clip-path="url(#p5a13d13245)" style="stroke: #000000; stroke-linejoin: miter"/>
   </g>
   <g id="patch_4">
    <path d="M 58.312997 162.412175 
L 68.829072 162.412175 
L 68.829072 151.896101 
L 58.312997 151.896101 
z
" clip-path="url(#p5a13d13245)" style="stroke: #000000; stroke-linejoin: miter"/>
   </g>
   <g id="patch_5">
    <path d="M 71.562716 162.407973 
L 82.070384 162.407973 
L 82.070384 151.900303 
L 71.562716 151.900303 
z
" clip-path="url(#p5a13d13245)" style="stroke: #000000; stroke-linejoin: miter"/>
   </g>
   <g id="patch_6">
    <path d="M 84.801681 162.414527 
L 95.322457 162.414527 
L 95.322457 151.893749 
L 84.801681 151.893749 
z
" clip-path="url(#p5a13d13245)" style="stroke: #000000; stroke-linejoin: miter"/>
   </g>
   <g id="patch_7">
    <path d="M 98.11181 162.349914 
L 108.503362 162.349914 
L 108.503362 151.958362 
L 98.11181 151.958362 
z
" clip-path="url(#p5a13d13245)" style="stroke: #000000; stroke-linejoin: miter"/>
   </g>
   <g id="patch_8">
    <path d="M 111.331261 162.37598 
L 121.774945 162.37598 
L 121.774945 151.932296 
L 111.331261 151.932296 
z
" clip-path="url(#p5a13d13245)" style="stroke: #000000; stroke-linejoin: miter"/>
   </g>
   <g id="patch_9">
    <path d="M 124.627704 162.325054 
L 134.969537 162.325054 
L 134.969537 151.983222 
L 124.627704 151.983222 
z
" clip-path="url(#p5a13d13245)" style="stroke: #000000; stroke-linejoin: miter"/>
   </g>
   <g id="patch_10">
    <path d="M 137.873986 162.324289 
L 148.21429 162.324289 
L 148.21429 151.983987 
L 137.873986 151.983987 
z
" clip-path="url(#p5a13d13245)" style="stroke: #000000; stroke-linejoin: miter"/>
   </g>
   <g id="patch_11">
    <path d="M 151.206587 162.237208 
L 161.372723 162.237208 
L 161.372723 152.071067 
L 151.206587 152.071067 
z
" clip-path="url(#p5a13d13245)" style="stroke: #000000; stroke-linejoin: miter"/>
   </g>
   <g id="patch_12">
    <path d="M 164.556128 162.133183 
L 174.514216 162.133183 
L 174.514216 152.175093 
L 164.556128 152.175093 
z
" clip-path="url(#p5a13d13245)" style="stroke: #000000; stroke-linejoin: miter"/>
   </g>
   <g id="patch_13">
    <path d="M 178.006674 161.928156 
L 187.554705 161.928156 
L 187.554705 152.38012 
L 178.006674 152.38012 
z
" clip-path="url(#p5a13d13245)" style="stroke: #000000; stroke-linejoin: miter"/>
   </g>
   <g id="patch_14">
    <path d="M 191.302492 161.877852 
L 200.749922 161.877852 
L 200.749922 152.430424 
L 191.302492 152.430424 
z
" clip-path="url(#p5a13d13245)" style="stroke: #000000; stroke-linejoin: miter"/>
   </g>
   <g id="patch_15">
    <path d="M 204.739231 161.686629 
L 213.804218 161.686629 
L 213.804218 152.621647 
L 204.739231 152.621647 
z
" clip-path="url(#p5a13d13245)" style="stroke: #000000; stroke-linejoin: miter"/>
   </g>
   <g id="patch_16">
    <path d="M 217.972116 161.69926 
L 227.062354 161.69926 
L 227.062354 152.609016 
L 217.972116 152.609016 
z
" clip-path="url(#p5a13d13245)" style="stroke: #000000; stroke-linejoin: miter"/>
   </g>
   <g id="patch_17">
    <path d="M 231.44689 161.470005 
L 240.078627 161.470005 
L 240.078627 152.838271 
L 231.44689 152.838271 
z
" clip-path="url(#p5a13d13245)" style="stroke: #000000; stroke-linejoin: miter"/>
   </g>
   <g id="patch_18">
    <path d="M 244.85858 161.303839 
L 253.157984 161.303839 
L 253.157984 153.004436 
L 244.85858 153.004436 
z
" clip-path="url(#p5a13d13245)" style="stroke: #000000; stroke-linejoin: miter"/>
   </g>
   <g id="patch_19">
    <path d="M 258.090594 161.317333 
L 266.416993 161.317333 
L 266.416993 152.990943 
L 258.090594 152.990943 
z
" clip-path="url(#p5a13d13245)" style="stroke: #000000; stroke-linejoin: miter"/>
   </g>
   <g id="patch_20">
    <path d="M 272.101478 160.551982 
L 278.897168 160.551982 
L 278.897168 153.756294 
L 272.101478 153.756294 
z
" clip-path="url(#p5a13d13245)" style="stroke: #000000; stroke-linejoin: miter"/>
   </g>
   <g id="patch_21">
    <path d="M 285.37284 160.526118 
L 292.11679 160.526118 
L 292.11679 153.782157 
L 285.37284 153.782157 
z
" clip-path="url(#p5a13d13245)" style="stroke: #000000; stroke-linejoin: miter"/>
   </g>
   <g id="patch_22">
    <path d="M 299.364626 159.77985 
L 304.616039 159.77985 
L 304.616039 154.528425 
L 299.364626 154.528425 
z
" clip-path="url(#p5a13d13245)" style="stroke: #000000; stroke-linejoin: miter"/>
   </g>
   <g id="patch_23">
    <path d="M 312.689421 159.700567 
L 317.782278 159.700567 
L 317.782278 154.607709 
L 312.689421 154.607709 
z
" clip-path="url(#p5a13d13245)" style="stroke: #000000; stroke-linejoin: miter"/>
   </g>
   <g id="patch_24">
    <path d="M 326.04097 159.594544 
L 330.921788 159.594544 
L 330.921788 154.713732 
L 326.04097 154.713732 
z
" clip-path="url(#p5a13d13245)" style="stroke: #000000; stroke-linejoin: miter"/>
   </g>
   <g id="patch_25">
    <path d="M 340.199168 158.681857 
L 343.2546 158.681857 
L 343.2546 155.626419 
L 340.199168 155.626419 
z
" clip-path="url(#p5a13d13245)" style="stroke: #000000; stroke-linejoin: miter"/>
   </g>
   <g id="patch_26">
    <path d="M 353.649019 158.477544 
L 356.295834 158.477544 
L 356.295834 155.830732 
L 353.649019 155.830732 
z
" clip-path="url(#p5a13d13245)" style="stroke: #000000; stroke-linejoin: miter"/>
   </g>
   <g id="patch_27">
    <path d="M 366.195133 159.176943 
L 370.240755 159.176943 
L 370.240755 155.131333 
L 366.195133 155.131333 
z
" clip-path="url(#p5a13d13245)" style="stroke: #000000; stroke-linejoin: miter"/>
   </g>
   <g id="patch_28">
    <path d="M 380.44807 158.16952 
L 382.478826 158.16952 
L 382.478826 156.138755 
L 380.44807 156.138755 
z
" clip-path="url(#p5a13d13245)" style="stroke: #000000; stroke-linejoin: miter"/>
   </g>
   <g id="patch_29">
    <path d="M 393.531217 158.331897 
L 395.88674 158.331897 
L 395.88674 155.976379 
L 393.531217 155.976379 
z
" clip-path="url(#p5a13d13245)" style="stroke: #000000; stroke-linejoin: miter"/>
   </g>
   <g id="patch_30">
    <path d="M 45.053943 149.180194 
L 55.597091 149.180194 
L 55.597091 138.637047 
L 45.053943 138.637047 
z
" clip-path="url(#p5a13d13245)" style="stroke: #000000; stroke-linejoin: miter"/>
   </g>
   <g id="patch_31">
    <path d="M 58.272828 149.206827 
L 68.869243 149.206827 
L 68.869243 138.610413 
L 58.272828 138.610413 
z
" clip-path="url(#p5a13d13245)" style="stroke: #000000; stroke-linejoin: miter"/>
   </g>
   <g id="patch_32">
    <path d="M 71.606767 149.118405 
L 82.026337 149.118405 
L 82.026337 138.698836 
L 71.606767 138.698836 
z
" clip-path="url(#p5a13d13245)" style="stroke: #000000; stroke-linejoin: miter"/>
   </g>
   <g id="patch_33">
    <path d="M 84.880273 149.090417 
L 95.243868 149.090417 
L 95.243868 138.726825 
L 84.880273 138.726825 
z
" clip-path="url(#p5a13d13245)" style="stroke: #000000; stroke-linejoin: miter"/>
   </g>
   <g id="patch_34">
    <path d="M 98.200091 149.016116 
L 108.415084 149.016116 
L 108.415084 138.801126 
L 98.200091 138.801126 
z
" clip-path="url(#p5a13d13245)" style="stroke: #000000; stroke-linejoin: miter"/>
   </g>
   <g id="patch_35">
    <path d="M 111.388396 149.073329 
L 121.717811 149.073329 
L 121.717811 138.743913 
L 111.388396 138.743913 
z
" clip-path="url(#p5a13d13245)" style="stroke: #000000; stroke-linejoin: miter"/>
   </g>
   <g id="patch_36">
    <path d="M 124.647555 149.059686 
L 134.949686 149.059686 
L 134.949686 138.757555 
L 124.647555 138.757555 
z
" clip-path="url(#p5a13d13245)" style="stroke: #000000; stroke-linejoin: miter"/>
   </g>
   <g id="patch_37">
    <path d="M 137.863179 149.089579 
L 148.225097 149.089579 
L 148.225097 138.727662 
L 137.863179 138.727662 
z
" clip-path="url(#p5a13d13245)" style="stroke: #000000; stroke-linejoin: miter"/>
   </g>
   <g id="patch_38">
    <path d="M 151.157639 149.040637 
L 161.421672 149.040637 
L 161.421672 138.776604 
L 151.157639 138.776604 
z
" clip-path="url(#p5a13d13245)" style="stroke: #000000; stroke-linejoin: miter"/>
   </g>
   <g id="patch_39">
    <path d="M 164.405291 149.038502 
L 174.665054 149.038502 
L 174.665054 138.778739 
L 164.405291 138.778739 
z
" clip-path="url(#p5a13d13245)" style="stroke: #000000; stroke-linejoin: miter"/>
   </g>
   <g id="patch_40">
    <path d="M 177.635953 149.05336 
L 187.925426 149.05336 
L 187.925426 138.763881 
L 177.635953 138.763881 
z
" clip-path="url(#p5a13d13245)" style="stroke: #000000; stroke-linejoin: miter"/>
   </g>
   <g id="patch_41">
    <path d="M 190.884729 149.050105 
L 201.167697 149.050105 
L 201.167697 138.767137 
L 190.884729 138.767137 
z
" clip-path="url(#p5a13d13245)" style="stroke: #000000; stroke-linejoin: miter"/>
   </g>
   <g id="patch_42">
    <path d="M 204.160765 149.019578 
L 214.382683 149.019578 
L 214.382683 138.797665 
L 204.160765 138.797665 
z
" clip-path="url(#p5a13d13245)" style="stroke: #000000; stroke-linejoin: miter"/>
   </g>
   <g id="patch_43">
    <path d="M 217.417904 149.007963 
L 227.616592 149.007963 
L 227.616592 138.809278 
L 217.417904 138.809278 
z
" clip-path="url(#p5a13d13245)" style="stroke: #000000; stroke-linejoin: miter"/>
   </g>
   <g id="patch_44">
    <path d="M 230.650966 149.020418 
L 240.874564 149.020418 
L 240.874564 138.796825 
L 230.650966 138.796825 
z
" clip-path="url(#p5a13d13245)" style="stroke: #000000; stroke-linejoin: miter"/>
   </g>
   <g id="patch_45">
    <path d="M 243.866179 149.050717 
L 254.150373 149.050717 
L 254.150373 138.766524 
L 243.866179 138.766524 
z
" clip-path="url(#p5a13d13245)" style="stroke: #000000; stroke-linejoin: miter"/>
   </g>
   <g id="patch_46">
    <path d="M 257.109284 149.053135 
L 267.398315 149.053135 
L 267.398315 138.764107 
L 257.109284 138.764107 
z
" clip-path="url(#p5a13d13245)" style="stroke: #000000; stroke-linejoin: miter"/>
   </g>
   <g id="patch_47">
    <path d="M 270.351201 149.056732 
L 280.64742 149.056732 
L 280.64742 138.76051 
L 270.351201 138.76051 
z
" clip-path="url(#p5a13d13245)" style="stroke: #000000; stroke-linejoin: miter"/>
   </g>
   <g id="patch_48">
    <path d="M 283.615262 149.038191 
L 293.874393 149.038191 
L 293.874393 138.779049 
L 283.615262 138.779049 
z
" clip-path="url(#p5a13d13245)" style="stroke: #000000; stroke-linejoin: miter"/>
   </g>
   <g id="patch_49">
    <path d="M 296.861638 149.037321 
L 307.119052 149.037321 
L 307.119052 138.77992 
L 296.861638 138.77992 
z
" clip-path="url(#p5a13d13245)" style="stroke: #000000; stroke-linejoin: miter"/>
   </g>
   <g id="patch_50">
    <path d="M 310.085226 149.059247 
L 320.386473 149.059247 
L 320.386473 138.757994 
L 310.085226 138.757994 
z
" clip-path="url(#p5a13d13245)" style="stroke: #000000; stroke-linejoin: miter"/>
   </g>
   <g id="patch_51">
    <path d="M 323.340571 149.049423 
L 333.622162 149.049423 
L 333.622162 138.767819 
L 323.340571 138.767819 
z
" clip-path="url(#p5a13d13245)" style="stroke: #000000; stroke-linejoin: miter"/>
   </g>
   <g id="patch_52">
    <path d="M 336.54367 149.091847 
L 346.910123 149.091847 
L 346.910123 138.725394 
L 336.54367 138.725394 
z
" clip-path="url(#p5a13d13245)" style="stroke: #000000; stroke-linejoin: miter"/>
   </g>
   <g id="patch_53">
    <path d="M 349.827892 149.053154 
L 360.116961 149.053154 
L 360.116961 138.764089 
L 349.827892 138.764089 
z
" clip-path="url(#p5a13d13245)" style="stroke: #000000; stroke-linejoin: miter"/>
   </g>
   <g id="patch_54">
    <path d="M 363.090007 149.03654 
L 373.345855 149.03654 
L 373.345855 138.780703 
L 363.090007 138.780703 
z
" clip-path="url(#p5a13d13245)" style="stroke: #000000; stroke-linejoin: miter"/>
   </g>
   <g id="patch_55">
    <path d="M 376.290984 149.081095 
L 386.635937 149.081095 
L 386.635937 138.736147 
L 376.290984 138.736147 
z
" clip-path="url(#p5a13d13245)" style="stroke: #000000; stroke-linejoin: miter"/>
   </g>
   <g id="patch_56">
    <path d="M 389.57844 149.039145 
L 399.839491 149.039145 
L 399.839491 138.778095 
L 389.57844 138.778095 
z
" clip-path="url(#p5a13d13245)" style="stroke: #000000; stroke-linejoin: miter"/>
   </g>
   <g id="patch_57">
    <path d="M 45.143979 135.844642 
L 55.507056 135.844642 
L 55.507056 125.481564 
L 45.143979 125.481564 
z
" clip-path="url(#p5a13d13245)" style="stroke: #000000; stroke-linejoin: miter"/>
   </g>
   <g id="patch_58">
    <path d="M 58.727806 135.506332 
L 68.414263 135.506332 
L 68.414263 125.819875 
L 58.727806 125.819875 
z
" clip-path="url(#p5a13d13245)" style="stroke: #000000; stroke-linejoin: miter"/>
   </g>
   <g id="patch_59">
    <path d="M 71.902278 135.577377 
L 81.730826 135.577377 
L 81.730826 125.74883 
L 71.902278 125.74883 
z
" clip-path="url(#p5a13d13245)" style="stroke: #000000; stroke-linejoin: miter"/>
   </g>
   <g id="patch_60">
    <path d="M 85.397386 135.327787 
L 94.726755 135.327787 
L 94.726755 125.998417 
L 85.397386 125.998417 
z
" clip-path="url(#p5a13d13245)" style="stroke: #000000; stroke-linejoin: miter"/>
   </g>
   <g id="patch_61">
    <path d="M 98.506507 135.464183 
L 108.108666 135.464183 
L 108.108666 125.862024 
L 98.506507 125.862024 
z
" clip-path="url(#p5a13d13245)" style="stroke: #000000; stroke-linejoin: miter"/>
   </g>
   <g id="patch_62">
    <path d="M 111.890546 135.32566 
L 121.215655 135.32566 
L 121.215655 126.000549 
L 111.890546 126.000549 
z
" clip-path="url(#p5a13d13245)" style="stroke: #000000; stroke-linejoin: miter"/>
   </g>
   <g id="patch_63">
    <path d="M 125.275462 135.186262 
L 134.321779 135.186262 
L 134.321779 126.139945 
L 125.275462 126.139945 
z
" clip-path="url(#p5a13d13245)" style="stroke: #000000; stroke-linejoin: miter"/>
   </g>
   <g id="patch_64">
    <path d="M 138.347266 135.359974 
L 147.74101 135.359974 
L 147.74101 125.966231 
L 138.347266 125.966231 
z
" clip-path="url(#p5a13d13245)" style="stroke: #000000; stroke-linejoin: miter"/>
   </g>
   <g id="patch_65">
    <path d="M 151.817612 135.135148 
L 160.761705 135.135148 
L 160.761705 126.19106 
L 151.817612 126.19106 
z
" clip-path="url(#p5a13d13245)" style="stroke: #000000; stroke-linejoin: miter"/>
   </g>
   <g id="patch_66">
    <path d="M 164.962977 135.235294 
L 174.107355 135.235294 
L 174.107355 126.090914 
L 164.962977 126.090914 
z
" clip-path="url(#p5a13d13245)" style="stroke: #000000; stroke-linejoin: miter"/>
   </g>
   <g id="patch_67">
    <path d="M 178.352902 135.090894 
L 187.208477 135.090894 
L 187.208477 126.235313 
L 178.352902 126.235313 
z
" clip-path="url(#p5a13d13245)" style="stroke: #000000; stroke-linejoin: miter"/>
   </g>
   <g id="patch_68">
    <path d="M 191.675297 135.014012 
L 200.377117 135.014012 
L 200.377117 126.312197 
L 191.675297 126.312197 
z
" clip-path="url(#p5a13d13245)" style="stroke: #000000; stroke-linejoin: miter"/>
   </g>
   <g id="patch_69">
    <path d="M 205.003667 134.931157 
L 213.539768 134.931157 
L 213.539768 126.395053 
L 205.003667 126.395053 
z
" clip-path="url(#p5a13d13245)" style="stroke: #000000; stroke-linejoin: miter"/>
   </g>
   <g id="patch_70">
    <path d="M 218.295341 134.885003 
L 226.739141 134.885003 
L 226.739141 126.441203 
L 218.295341 126.441203 
z
" clip-path="url(#p5a13d13245)" style="stroke: #000000; stroke-linejoin: miter"/>
   </g>
   <g id="patch_71">
    <path d="M 232.00781 134.418052 
L 239.517707 134.418052 
L 239.517707 126.908155 
L 232.00781 126.908155 
z
" clip-path="url(#p5a13d13245)" style="stroke: #000000; stroke-linejoin: miter"/>
   </g>
   <g id="patch_72">
    <path d="M 245.27206 134.399324 
L 252.744504 134.399324 
L 252.744504 126.926881 
L 245.27206 126.926881 
z
" clip-path="url(#p5a13d13245)" style="stroke: #000000; stroke-linejoin: miter"/>
   </g>
   <g id="patch_73">
    <path d="M 258.18028 134.736615 
L 266.327306 134.736615 
L 266.327306 126.589591 
L 258.18028 126.589591 
z
" clip-path="url(#p5a13d13245)" style="stroke: #000000; stroke-linejoin: miter"/>
   </g>
   <g id="patch_74">
    <path d="M 272.060349 134.102071 
L 278.938272 134.102071 
L 278.938272 127.224136 
L 272.060349 127.224136 
z
" clip-path="url(#p5a13d13245)" style="stroke: #000000; stroke-linejoin: miter"/>
   </g>
   <g id="patch_75">
    <path d="M 285.533139 133.874785 
L 291.956516 133.874785 
L 291.956516 127.451421 
L 285.533139 127.451421 
z
" clip-path="url(#p5a13d13245)" style="stroke: #000000; stroke-linejoin: miter"/>
   </g>
   <g id="patch_76">
    <path d="M 299.318974 133.334485 
L 304.661741 133.334485 
L 304.661741 127.991723 
L 299.318974 127.991723 
z
" clip-path="url(#p5a13d13245)" style="stroke: #000000; stroke-linejoin: miter"/>
   </g>
   <g id="patch_77">
    <path d="M 312.381429 133.517534 
L 318.090295 133.517534 
L 318.090295 127.808674 
L 312.381429 127.808674 
z
" clip-path="url(#p5a13d13245)" style="stroke: #000000; stroke-linejoin: miter"/>
   </g>
   <g id="patch_78">
    <path d="M 325.851795 133.292685 
L 331.110964 133.292685 
L 331.110964 128.033522 
L 325.851795 128.033522 
z
" clip-path="url(#p5a13d13245)" style="stroke: #000000; stroke-linejoin: miter"/>
   </g>
   <g id="patch_79">
    <path d="M 338.866097 133.523907 
L 344.587696 133.523907 
L 344.587696 127.802298 
L 338.866097 127.802298 
z
" clip-path="url(#p5a13d13245)" style="stroke: #000000; stroke-linejoin: miter"/>
   </g>
   <g id="patch_80">
    <path d="M 352.806041 132.829473 
L 357.138786 132.829473 
L 357.138786 128.496734 
L 352.806041 128.496734 
z
" clip-path="url(#p5a13d13245)" style="stroke: #000000; stroke-linejoin: miter"/>
   </g>
   <g id="patch_81">
    <path d="M 366.280828 132.600216 
L 370.15506 132.600216 
L 370.15506 128.725991 
L 366.280828 128.725991 
z
" clip-path="url(#p5a13d13245)" style="stroke: #000000; stroke-linejoin: miter"/>
   </g>
   <g id="patch_82">
    <path d="M 379.982483 132.144061 
L 382.944388 132.144061 
L 382.944388 129.182148 
L 379.982483 129.182148 
z
" clip-path="url(#p5a13d13245)" style="stroke: #000000; stroke-linejoin: miter"/>
   </g>
   <g id="patch_83">
    <path d="M 393.399744 131.972331 
L 396.018187 131.972331 
L 396.018187 129.353875 
L 393.399744 129.353875 
z
" clip-path="url(#p5a13d13245)" style="stroke: #000000; stroke-linejoin: miter"/>
   </g>
   <g id="patch_84">
    <path d="M 45.409888 122.333215 
L 55.241147 122.333215 
L 55.241147 112.501954 
L 45.409888 112.501954 
z
" clip-path="url(#p5a13d13245)" style="stroke: #000000; stroke-linejoin: miter"/>
   </g>
   <g id="patch_85">
    <path d="M 59.289041 121.699579 
L 67.853028 121.699579 
L 67.853028 113.135593 
L 59.289041 113.135593 
z
" clip-path="url(#p5a13d13245)" style="stroke: #000000; stroke-linejoin: miter"/>
   </g>
   <g id="patch_86">
    <path d="M 72.226675 122.007463 
L 81.406429 122.007463 
L 81.406429 112.827709 
L 72.226675 112.827709 
z
" clip-path="url(#p5a13d13245)" style="stroke: #000000; stroke-linejoin: miter"/>
   </g>
   <g id="patch_87">
    <path d="M 85.722288 121.757367 
L 94.401853 121.757367 
L 94.401853 113.077802 
L 85.722288 113.077802 
z
" clip-path="url(#p5a13d13245)" style="stroke: #000000; stroke-linejoin: miter"/>
   </g>
   <g id="patch_88">
    <path d="M 98.89977 121.825403 
L 107.715403 121.825403 
L 107.715403 113.00977 
L 98.89977 113.00977 
z
" clip-path="url(#p5a13d13245)" style="stroke: #000000; stroke-linejoin: miter"/>
   </g>
   <g id="patch_89">
    <path d="M 112.173526 121.797164 
L 120.932681 121.797164 
L 120.932681 113.038008 
L 112.173526 113.038008 
z
" clip-path="url(#p5a13d13245)" style="stroke: #000000; stroke-linejoin: miter"/>
   </g>
   <g id="patch_90">
    <path d="M 125.530633 121.685577 
L 134.066615 121.685577 
L 134.066615 113.149596 
L 125.530633 113.149596 
z
" clip-path="url(#p5a13d13245)" style="stroke: #000000; stroke-linejoin: miter"/>
   </g>
   <g id="patch_91">
    <path d="M 138.662602 121.799122 
L 147.425674 121.799122 
L 147.425674 113.03605 
L 138.662602 113.03605 
z
" clip-path="url(#p5a13d13245)" style="stroke: #000000; stroke-linejoin: miter"/>
   </g>
   <g id="patch_92">
    <path d="M 152.013034 121.694208 
L 160.566277 121.694208 
L 160.566277 113.140965 
L 152.013034 113.140965 
z
" clip-path="url(#p5a13d13245)" style="stroke: #000000; stroke-linejoin: miter"/>
   </g>
   <g id="patch_93">
    <path d="M 165.199472 121.75329 
L 173.870873 121.75329 
L 173.870873 113.081885 
L 165.199472 113.081885 
z
" clip-path="url(#p5a13d13245)" style="stroke: #000000; stroke-linejoin: miter"/>
   </g>
   <g id="patch_94">
    <path d="M 178.4844 121.713882 
L 187.076992 121.713882 
L 187.076992 113.121291 
L 178.4844 113.121291 
z
" clip-path="url(#p5a13d13245)" style="stroke: #000000; stroke-linejoin: miter"/>
   </g>
   <g id="patch_95">
    <path d="M 191.743168 121.700631 
L 200.309258 121.700631 
L 200.309258 113.134541 
L 191.743168 113.134541 
z
" clip-path="url(#p5a13d13245)" style="stroke: #000000; stroke-linejoin: miter"/>
   </g>
   <g id="patch_96">
    <path d="M 204.986968 121.702339 
L 213.556468 121.702339 
L 213.556468 113.132833 
L 204.986968 113.132833 
z
" clip-path="url(#p5a13d13245)" style="stroke: #000000; stroke-linejoin: miter"/>
   </g>
   <g id="patch_97">
    <path d="M 218.217061 121.717772 
L 226.817434 121.717772 
L 226.817434 113.1174 
L 218.217061 113.1174 
z
" clip-path="url(#p5a13d13245)" style="stroke: #000000; stroke-linejoin: miter"/>
   </g>
   <g id="patch_98">
    <path d="M 231.507068 121.673283 
L 240.018462 121.673283 
L 240.018462 113.16189 
L 231.507068 113.16189 
z
" clip-path="url(#p5a13d13245)" style="stroke: #000000; stroke-linejoin: miter"/>
   </g>
   <g id="patch_99">
    <path d="M 244.781197 121.644668 
L 253.235355 121.644668 
L 253.235355 113.190504 
L 244.781197 113.190504 
z
" clip-path="url(#p5a13d13245)" style="stroke: #000000; stroke-linejoin: miter"/>
   </g>
   <g id="patch_100">
    <path d="M 257.992355 121.679021 
L 266.515218 121.679021 
L 266.515218 113.156152 
L 257.992355 113.156152 
z
" clip-path="url(#p5a13d13245)" style="stroke: #000000; stroke-linejoin: miter"/>
   </g>
   <g id="patch_101">
    <path d="M 271.23018 121.686717 
L 279.768441 121.686717 
L 279.768441 113.148456 
L 271.23018 113.148456 
z
" clip-path="url(#p5a13d13245)" style="stroke: #000000; stroke-linejoin: miter"/>
   </g>
   <g id="patch_102">
    <path d="M 284.461928 121.700495 
L 293.027752 121.700495 
L 293.027752 113.134674 
L 284.461928 113.134674 
z
" clip-path="url(#p5a13d13245)" style="stroke: #000000; stroke-linejoin: miter"/>
   </g>
   <g id="patch_103">
    <path d="M 297.711664 121.696257 
L 306.269 121.696257 
L 306.269 113.138915 
L 297.711664 113.138915 
z
" clip-path="url(#p5a13d13245)" style="stroke: #000000; stroke-linejoin: miter"/>
   </g>
   <g id="patch_104">
    <path d="M 310.890157 121.763288 
L 319.581567 121.763288 
L 319.581567 113.071884 
L 310.890157 113.071884 
z
" clip-path="url(#p5a13d13245)" style="stroke: #000000; stroke-linejoin: miter"/>
   </g>
   <g id="patch_105">
    <path d="M 324.216063 121.682893 
L 332.74667 121.682893 
L 332.74667 113.15228 
L 324.216063 113.15228 
z
" clip-path="url(#p5a13d13245)" style="stroke: #000000; stroke-linejoin: miter"/>
   </g>
   <g id="patch_106">
    <path d="M 337.42995 121.714523 
L 346.023817 121.714523 
L 346.023817 113.12065 
L 337.42995 113.12065 
z
" clip-path="url(#p5a13d13245)" style="stroke: #000000; stroke-linejoin: miter"/>
   </g>
   <g id="patch_107">
    <path d="M 350.588838 121.801165 
L 359.35599 121.801165 
L 359.35599 113.034004 
L 350.588838 113.034004 
z
" clip-path="url(#p5a13d13245)" style="stroke: #000000; stroke-linejoin: miter"/>
   </g>
   <g id="patch_108">
    <path d="M 363.933945 121.701578 
L 372.501942 121.701578 
L 372.501942 113.133594 
L 363.933945 113.133594 
z
" clip-path="url(#p5a13d13245)" style="stroke: #000000; stroke-linejoin: miter"/>
   </g>
   <g id="patch_109">
    <path d="M 377.117137 121.763895 
L 385.80976 121.763895 
L 385.80976 113.071275 
L 377.117137 113.071275 
z
" clip-path="url(#p5a13d13245)" style="stroke: #000000; stroke-linejoin: miter"/>
   </g>
   <g id="patch_110">
    <path d="M 390.422883 121.703672 
L 398.995048 121.703672 
L 398.995048 113.1315 
L 390.422883 113.1315 
z
" clip-path="url(#p5a13d13245)" style="stroke: #000000; stroke-linejoin: miter"/>
   </g>
   <g id="patch_111">
    <path d="M 45.273729 109.223857 
L 55.377305 109.223857 
L 55.377305 99.120278 
L 45.273729 99.120278 
z
" clip-path="url(#p5a13d13245)" style="stroke: #000000; stroke-linejoin: miter"/>
   </g>
   <g id="patch_112">
    <path d="M 58.98097 108.762132 
L 68.161098 108.762132 
L 68.161098 99.582006 
L 58.98097 99.582006 
z
" clip-path="url(#p5a13d13245)" style="stroke: #000000; stroke-linejoin: miter"/>
   </g>
   <g id="patch_113">
    <path d="M 72.982312 108.006308 
L 80.650791 108.006308 
L 80.650791 100.33783 
L 72.982312 100.33783 
z
" clip-path="url(#p5a13d13245)" style="stroke: #000000; stroke-linejoin: miter"/>
   </g>
   <g id="patch_114">
    <path d="M 86.289331 107.944807 
L 93.83481 107.944807 
L 93.83481 100.399328 
L 86.289331 100.399328 
z
" clip-path="url(#p5a13d13245)" style="stroke: #000000; stroke-linejoin: miter"/>
   </g>
   <g id="patch_115">
    <path d="M 99.581122 107.898533 
L 107.03405 107.898533 
L 107.03405 100.445605 
L 99.581122 100.445605 
z
" clip-path="url(#p5a13d13245)" style="stroke: #000000; stroke-linejoin: miter"/>
   </g>
   <g id="patch_116">
    <path d="M 112.835059 107.890114 
L 120.271148 107.890114 
L 120.271148 100.454024 
L 112.835059 100.454024 
z
" clip-path="url(#p5a13d13245)" style="stroke: #000000; stroke-linejoin: miter"/>
   </g>
   <g id="patch_117">
    <path d="M 126.109415 107.861278 
L 133.487833 107.861278 
L 133.487833 100.482863 
L 126.109415 100.482863 
z
" clip-path="url(#p5a13d13245)" style="stroke: #000000; stroke-linejoin: miter"/>
   </g>
   <g id="patch_118">
    <path d="M 139.330653 107.885554 
L 146.757623 107.885554 
L 146.757623 100.458584 
L 139.330653 100.458584 
z
" clip-path="url(#p5a13d13245)" style="stroke: #000000; stroke-linejoin: miter"/>
   </g>
   <g id="patch_119">
    <path d="M 152.594575 107.867152 
L 159.984741 107.867152 
L 159.984741 100.476989 
L 152.594575 100.476989 
z
" clip-path="url(#p5a13d13245)" style="stroke: #000000; stroke-linejoin: miter"/>
   </g>
   <g id="patch_120">
    <path d="M 165.767427 107.939814 
L 173.302917 107.939814 
L 173.302917 100.404324 
L 165.767427 100.404324 
z
" clip-path="url(#p5a13d13245)" style="stroke: #000000; stroke-linejoin: miter"/>
   </g>
   <g id="patch_121">
    <path d="M 179.004229 107.948536 
L 186.557163 107.948536 
L 186.557163 100.395602 
L 179.004229 100.395602 
z
" clip-path="url(#p5a13d13245)" style="stroke: #000000; stroke-linejoin: miter"/>
   </g>
   <g id="patch_122">
    <path d="M 192.247674 107.950598 
L 199.804739 107.950598 
L 199.804739 100.393536 
L 192.247674 100.393536 
z
" clip-path="url(#p5a13d13245)" style="stroke: #000000; stroke-linejoin: miter"/>
   </g>
   <g id="patch_123">
    <path d="M 205.600487 107.843303 
L 212.942961 107.843303 
L 212.942961 100.500832 
L 205.600487 100.500832 
z
" clip-path="url(#p5a13d13245)" style="stroke: #000000; stroke-linejoin: miter"/>
   </g>
   <g id="patch_124">
    <path d="M 218.816155 107.873152 
L 226.218315 107.873152 
L 226.218315 100.470989 
L 218.816155 100.470989 
z
" clip-path="url(#p5a13d13245)" style="stroke: #000000; stroke-linejoin: miter"/>
   </g>
   <g id="patch_125">
    <path d="M 232.122444 107.812383 
L 239.403073 107.812383 
L 239.403073 100.531755 
L 232.122444 100.531755 
z
" clip-path="url(#p5a13d13245)" style="stroke: #000000; stroke-linejoin: miter"/>
   </g>
   <g id="patch_126">
    <path d="M 245.345729 107.834612 
L 252.670822 107.834612 
L 252.670822 100.509523 
L 245.345729 100.509523 
z
" clip-path="url(#p5a13d13245)" style="stroke: #000000; stroke-linejoin: miter"/>
   </g>
   <g id="patch_127">
    <path d="M 258.635231 107.790637 
L 265.872355 107.790637 
L 265.872355 100.553501 
L 258.635231 100.553501 
z
" clip-path="url(#p5a13d13245)" style="stroke: #000000; stroke-linejoin: miter"/>
   </g>
   <g id="patch_128">
    <path d="M 271.801395 107.869991 
L 279.197226 107.869991 
L 279.197226 100.474147 
L 271.801395 100.474147 
z
" clip-path="url(#p5a13d13245)" style="stroke: #000000; stroke-linejoin: miter"/>
   </g>
   <g id="patch_129">
    <path d="M 285.02372 107.89319 
L 292.465961 107.89319 
L 292.465961 100.450948 
L 285.02372 100.450948 
z
" clip-path="url(#p5a13d13245)" style="stroke: #000000; stroke-linejoin: miter"/>
   </g>
   <g id="patch_130">
    <path d="M 298.281793 107.880608 
L 305.698871 107.880608 
L 305.698871 100.46353 
L 298.281793 100.46353 
z
" clip-path="url(#p5a13d13245)" style="stroke: #000000; stroke-linejoin: miter"/>
   </g>
   <g id="patch_131">
    <path d="M 311.537769 107.870162 
L 318.933955 107.870162 
L 318.933955 100.473976 
L 311.537769 100.473976 
z
" clip-path="url(#p5a13d13245)" style="stroke: #000000; stroke-linejoin: miter"/>
   </g>
   <g id="patch_132">
    <path d="M 324.708733 107.944715 
L 332.254025 107.944715 
L 332.254025 100.399423 
L 324.708733 100.399423 
z
" clip-path="url(#p5a13d13245)" style="stroke: #000000; stroke-linejoin: miter"/>
   </g>
   <g id="patch_133">
    <path d="M 338.075087 107.823891 
L 345.378731 107.823891 
L 345.378731 100.520247 
L 338.075087 100.520247 
z
" clip-path="url(#p5a13d13245)" style="stroke: #000000; stroke-linejoin: miter"/>
   </g>
   <g id="patch_134">
    <path d="M 351.229276 107.915213 
L 358.715552 107.915213 
L 358.715552 100.428931 
L 351.229276 100.428931 
z
" clip-path="url(#p5a13d13245)" style="stroke: #000000; stroke-linejoin: miter"/>
   </g>
   <g id="patch_135">
    <path d="M 364.519864 107.870143 
L 371.915998 107.870143 
L 371.915998 100.473995 
L 364.519864 100.473995 
z
" clip-path="url(#p5a13d13245)" style="stroke: #000000; stroke-linejoin: miter"/>
   </g>
   <g id="patch_136">
    <path d="M 377.665816 107.969701 
L 385.26108 107.969701 
L 385.26108 100.374437 
L 377.665816 100.374437 
z
" clip-path="url(#p5a13d13245)" style="stroke: #000000; stroke-linejoin: miter"/>
   </g>
   <g id="patch_137">
    <path d="M 390.989525 107.891503 
L 398.428406 107.891503 
L 398.428406 100.452635 
L 390.989525 100.452635 
z
" clip-path="url(#p5a13d13245)" style="stroke: #000000; stroke-linejoin: miter"/>
   </g>
   <g id="patch_138">
    <path d="M 45.229317 96.02275 
L 55.421718 96.02275 
L 55.421718 85.830347 
L 45.229317 85.830347 
z
" clip-path="url(#p5a13d13245)" style="stroke: #000000; stroke-linejoin: miter"/>
   </g>
   <g id="patch_139">
    <path d="M 59.43427 95.063313 
L 67.707799 95.063313 
L 67.707799 86.789784 
L 59.43427 86.789784 
z
" clip-path="url(#p5a13d13245)" style="stroke: #000000; stroke-linejoin: miter"/>
   </g>
   <g id="patch_140">
    <path d="M 72.961351 94.781754 
L 80.671751 94.781754 
L 80.671751 87.071356 
L 72.961351 87.071356 
z
" clip-path="url(#p5a13d13245)" style="stroke: #000000; stroke-linejoin: miter"/>
   </g>
   <g id="patch_141">
    <path d="M 86.190935 94.797683 
L 93.9332 94.797683 
L 93.9332 87.055415 
L 86.190935 87.055415 
z
" clip-path="url(#p5a13d13245)" style="stroke: #000000; stroke-linejoin: miter"/>
   </g>
   <g id="patch_142">
    <path d="M 99.484147 94.749991 
L 107.131025 94.749991 
L 107.131025 87.103113 
L 99.484147 87.103113 
z
" clip-path="url(#p5a13d13245)" style="stroke: #000000; stroke-linejoin: miter"/>
   </g>
   <g id="patch_143">
    <path d="M 112.757783 94.721872 
L 120.34843 94.721872 
L 120.34843 87.131225 
L 112.757783 87.131225 
z
" clip-path="url(#p5a13d13245)" style="stroke: #000000; stroke-linejoin: miter"/>
   </g>
   <g id="patch_144">
    <path d="M 126.024238 94.700935 
L 133.573004 94.700935 
L 133.573004 87.152169 
L 126.024238 87.152169 
z
" clip-path="url(#p5a13d13245)" style="stroke: #000000; stroke-linejoin: miter"/>
   </g>
   <g id="patch_145">
    <path d="M 139.145002 94.825687 
L 146.943274 94.825687 
L 146.943274 87.027416 
L 139.145002 87.027416 
z
" clip-path="url(#p5a13d13245)" style="stroke: #000000; stroke-linejoin: miter"/>
   </g>
   <g id="patch_146">
    <path d="M 152.504497 94.71171 
L 160.07482 94.71171 
L 160.07482 87.141387 
L 152.504497 87.141387 
z
" clip-path="url(#p5a13d13245)" style="stroke: #000000; stroke-linejoin: miter"/>
   </g>
   <g id="patch_147">
    <path d="M 165.687089 94.774642 
L 173.383269 94.774642 
L 173.383269 87.078462 
L 165.687089 87.078462 
z
" clip-path="url(#p5a13d13245)" style="stroke: #000000; stroke-linejoin: miter"/>
   </g>
   <g id="patch_148">
    <path d="M 178.935385 94.771857 
L 186.625995 94.771857 
L 186.625995 87.081247 
L 178.935385 87.081247 
z
" clip-path="url(#p5a13d13245)" style="stroke: #000000; stroke-linejoin: miter"/>
   </g>
   <g id="patch_149">
    <path d="M 192.296231 94.656527 
L 199.756182 94.656527 
L 199.756182 87.196576 
L 192.296231 87.196576 
z
" clip-path="url(#p5a13d13245)" style="stroke: #000000; stroke-linejoin: miter"/>
   </g>
   <g id="patch_150">
    <path d="M 205.523218 94.675058 
L 213.020231 94.675058 
L 213.020231 87.178045 
L 205.523218 87.178045 
z
" clip-path="url(#p5a13d13245)" style="stroke: #000000; stroke-linejoin: miter"/>
   </g>
   <g id="patch_151">
    <path d="M 218.765678 94.678109 
L 226.268792 94.678109 
L 226.268792 87.174988 
L 218.765678 87.174988 
z
" clip-path="url(#p5a13d13245)" style="stroke: #000000; stroke-linejoin: miter"/>
   </g>
   <g id="patch_152">
    <path d="M 232.026935 94.66237 
L 239.49857 94.66237 
L 239.49857 87.190734 
L 232.026935 87.190734 
z
" clip-path="url(#p5a13d13245)" style="stroke: #000000; stroke-linejoin: miter"/>
   </g>
   <g id="patch_153">
    <path d="M 245.28545 94.649371 
L 252.731089 94.649371 
L 252.731089 87.203726 
L 245.28545 87.203726 
z
" clip-path="url(#p5a13d13245)" style="stroke: #000000; stroke-linejoin: miter"/>
   </g>
   <g id="patch_154">
    <path d="M 258.530159 94.65018 
L 265.977427 94.65018 
L 265.977427 87.202917 
L 258.530159 87.202917 
z
" clip-path="url(#p5a13d13245)" style="stroke: #000000; stroke-linejoin: miter"/>
   </g>
   <g id="patch_155">
    <path d="M 271.716458 94.709404 
L 279.282163 94.709404 
L 279.282163 87.143705 
L 271.716458 87.143705 
z
" clip-path="url(#p5a13d13245)" style="stroke: #000000; stroke-linejoin: miter"/>
   </g>
   <g id="patch_156">
    <path d="M 284.986607 94.684779 
L 292.503073 94.684779 
L 292.503073 87.168325 
L 284.986607 87.168325 
z
" clip-path="url(#p5a13d13245)" style="stroke: #000000; stroke-linejoin: miter"/>
   </g>
   <g id="patch_157">
    <path d="M 298.27098 94.645916 
L 305.70971 94.645916 
L 305.70971 87.207187 
L 298.27098 87.207187 
z
" clip-path="url(#p5a13d13245)" style="stroke: #000000; stroke-linejoin: miter"/>
   </g>
   <g id="patch_158">
    <path d="M 311.513567 94.648847 
L 318.958157 94.648847 
L 318.958157 87.204256 
L 311.513567 87.204256 
z
" clip-path="url(#p5a13d13245)" style="stroke: #000000; stroke-linejoin: miter"/>
   </g>
   <g id="patch_159">
    <path d="M 324.710097 94.69784 
L 332.252686 94.69784 
L 332.252686 87.155264 
L 324.710097 87.155264 
z
" clip-path="url(#p5a13d13245)" style="stroke: #000000; stroke-linejoin: miter"/>
   </g>
   <g id="patch_160">
    <path d="M 338.005005 94.648437 
L 345.448762 94.648437 
L 345.448762 87.204667 
L 338.005005 87.204667 
z
" clip-path="url(#p5a13d13245)" style="stroke: #000000; stroke-linejoin: miter"/>
   </g>
   <g id="patch_161">
    <path d="M 351.136457 94.762509 
L 358.808371 94.762509 
L 358.808371 87.090594 
L 351.136457 87.090594 
z
" clip-path="url(#p5a13d13245)" style="stroke: #000000; stroke-linejoin: miter"/>
   </g>
   <g id="patch_162">
    <path d="M 364.45918 94.685309 
L 371.976682 94.685309 
L 371.976682 87.167801 
L 364.45918 87.167801 
z
" clip-path="url(#p5a13d13245)" style="stroke: #000000; stroke-linejoin: miter"/>
   </g>
   <g id="patch_163">
    <path d="M 377.691686 94.698326 
L 385.235235 94.698326 
L 385.235235 87.154777 
L 377.691686 87.154777 
z
" clip-path="url(#p5a13d13245)" style="stroke: #000000; stroke-linejoin: miter"/>
   </g>
   <g id="patch_164">
    <path d="M 390.920049 94.71548 
L 398.497907 94.71548 
L 398.497907 87.137623 
L 390.920049 87.137623 
z
" clip-path="url(#p5a13d13245)" style="stroke: #000000; stroke-linejoin: miter"/>
   </g>
   <g id="patch_165">
    <path d="M 45.47382 82.53273 
L 55.177215 82.53273 
L 55.177215 72.829333 
L 45.47382 72.829333 
z
" clip-path="url(#p5a13d13245)" style="stroke: #000000; stroke-linejoin: miter"/>
   </g>
   <g id="patch_166">
    <path d="M 59.924316 81.327753 
L 67.217753 81.327753 
L 67.217753 74.034316 
L 59.924316 74.034316 
z
" clip-path="url(#p5a13d13245)" style="stroke: #000000; stroke-linejoin: miter"/>
   </g>
   <g id="patch_167">
    <path d="M 73.447276 81.050312 
L 80.185826 81.050312 
L 80.185826 74.311763 
L 73.447276 74.311763 
z
" clip-path="url(#p5a13d13245)" style="stroke: #000000; stroke-linejoin: miter"/>
   </g>
   <g id="patch_168">
    <path d="M 86.6721 81.071003 
L 93.452038 81.071003 
L 93.452038 74.291066 
L 86.6721 74.291066 
z
" clip-path="url(#p5a13d13245)" style="stroke: #000000; stroke-linejoin: miter"/>
   </g>
   <g id="patch_169">
    <path d="M 99.92436 81.064258 
L 106.69081 81.064258 
L 106.69081 74.297805 
L 99.92436 74.297805 
z
" clip-path="url(#p5a13d13245)" style="stroke: #000000; stroke-linejoin: miter"/>
   </g>
   <g id="patch_170">
    <path d="M 113.247775 80.986363 
L 119.858432 80.986363 
L 119.858432 74.375706 
L 113.247775 74.375706 
z
" clip-path="url(#p5a13d13245)" style="stroke: #000000; stroke-linejoin: miter"/>
   </g>
   <g id="patch_171">
    <path d="M 126.615424 80.864231 
L 132.981811 80.864231 
L 132.981811 74.497844 
L 126.615424 74.497844 
z
" clip-path="url(#p5a13d13245)" style="stroke: #000000; stroke-linejoin: miter"/>
   </g>
   <g id="patch_172">
    <path d="M 139.794049 80.931124 
L 146.294227 80.931124 
L 146.294227 74.430945 
L 139.794049 74.430945 
z
" clip-path="url(#p5a13d13245)" style="stroke: #000000; stroke-linejoin: miter"/>
   </g>
   <g id="patch_173">
    <path d="M 153.131052 80.839637 
L 159.448264 80.839637 
L 159.448264 74.522432 
L 153.131052 74.522432 
z
" clip-path="url(#p5a13d13245)" style="stroke: #000000; stroke-linejoin: miter"/>
   </g>
   <g id="patch_174">
    <path d="M 166.336167 80.880047 
L 172.734191 80.880047 
L 172.734191 74.482029 
L 166.336167 74.482029 
z
" clip-path="url(#p5a13d13245)" style="stroke: #000000; stroke-linejoin: miter"/>
   </g>
   <g id="patch_175">
    <path d="M 179.59525 80.866474 
L 185.966129 80.866474 
L 185.966129 74.495602 
L 179.59525 74.495602 
z
" clip-path="url(#p5a13d13245)" style="stroke: #000000; stroke-linejoin: miter"/>
   </g>
   <g id="patch_176">
    <path d="M 192.823108 80.884133 
L 199.229305 80.884133 
L 199.229305 74.47793 
L 192.823108 74.47793 
z
" clip-path="url(#p5a13d13245)" style="stroke: #000000; stroke-linejoin: miter"/>
   </g>
   <g id="patch_177">
    <path d="M 206.173155 80.779604 
L 212.370294 80.779604 
L 212.370294 74.582471 
L 206.173155 74.582471 
z
" clip-path="url(#p5a13d13245)" style="stroke: #000000; stroke-linejoin: miter"/>
   </g>
   <g id="patch_178">
    <path d="M 219.384705 80.813571 
L 225.649778 80.813571 
L 225.649778 74.548504 
L 219.384705 74.548504 
z
" clip-path="url(#p5a13d13245)" style="stroke: #000000; stroke-linejoin: miter"/>
   </g>
   <g id="patch_179">
    <path d="M 232.656004 80.787789 
L 238.869514 80.787789 
L 238.869514 74.574279 
L 232.656004 74.574279 
z
" clip-path="url(#p5a13d13245)" style="stroke: #000000; stroke-linejoin: miter"/>
   </g>
   <g id="patch_180">
    <path d="M 245.911033 80.778278 
L 252.105519 80.778278 
L 252.105519 74.583791 
L 245.911033 74.583791 
z
" clip-path="url(#p5a13d13245)" style="stroke: #000000; stroke-linejoin: miter"/>
   </g>
   <g id="patch_181">
    <path d="M 259.165923 80.768911 
L 265.341663 80.768911 
L 265.341663 74.593158 
L 259.165923 74.593158 
z
" clip-path="url(#p5a13d13245)" style="stroke: #000000; stroke-linejoin: miter"/>
   </g>
   <g id="patch_182">
    <path d="M 272.357173 80.823178 
L 278.641473 80.823178 
L 278.641473 74.538891 
L 272.357173 74.538891 
z
" clip-path="url(#p5a13d13245)" style="stroke: #000000; stroke-linejoin: miter"/>
   </g>
   <g id="patch_183">
    <path d="M 285.612594 80.813262 
L 291.877036 80.813262 
L 291.877036 74.548807 
L 285.612594 74.548807 
z
" clip-path="url(#p5a13d13245)" style="stroke: #000000; stroke-linejoin: miter"/>
   </g>
   <g id="patch_184">
    <path d="M 298.830852 80.840515 
L 305.149813 80.840515 
L 305.149813 74.521548 
L 298.830852 74.521548 
z
" clip-path="url(#p5a13d13245)" style="stroke: #000000; stroke-linejoin: miter"/>
   </g>
   <g id="patch_185">
    <path d="M 312.034987 80.881904 
L 318.436712 80.881904 
L 318.436712 74.480165 
L 312.034987 74.480165 
z
" clip-path="url(#p5a13d13245)" style="stroke: #000000; stroke-linejoin: miter"/>
   </g>
   <g id="patch_186">
    <path d="M 325.24761 80.914803 
L 331.715148 80.914803 
L 331.715148 74.447259 
L 325.24761 74.447259 
z
" clip-path="url(#p5a13d13245)" style="stroke: #000000; stroke-linejoin: miter"/>
   </g>
   <g id="patch_187">
    <path d="M 338.599286 80.808657 
L 344.854532 80.808657 
L 344.854532 74.553418 
L 338.599286 74.553418 
z
" clip-path="url(#p5a13d13245)" style="stroke: #000000; stroke-linejoin: miter"/>
   </g>
   <g id="patch_188">
    <path d="M 351.731975 80.921486 
L 358.212878 80.921486 
L 358.212878 74.44059 
L 351.731975 74.44059 
z
" clip-path="url(#p5a13d13245)" style="stroke: #000000; stroke-linejoin: miter"/>
   </g>
   <g id="patch_189">
    <path d="M 365.040172 80.858787 
L 371.395665 80.858787 
L 371.395665 74.503282 
L 365.040172 74.503282 
z
" clip-path="url(#p5a13d13245)" style="stroke: #000000; stroke-linejoin: miter"/>
   </g>
   <g id="patch_190">
    <path d="M 378.380328 80.764168 
L 384.546594 80.764168 
L 384.546594 74.597907 
L 378.380328 74.597907 
z
" clip-path="url(#p5a13d13245)" style="stroke: #000000; stroke-linejoin: miter"/>
   </g>
   <g id="patch_191">
    <path d="M 391.543232 80.846781 
L 397.874724 80.846781 
L 397.874724 74.515295 
L 391.543232 74.515295 
z
" clip-path="url(#p5a13d13245)" style="stroke: #000000; stroke-linejoin: miter"/>
   </g>
   <g id="patch_192">
    <path d="M 45.337562 69.423473 
L 55.313472 69.423473 
L 55.313472 59.447561 
L 45.337562 59.447561 
z
" clip-path="url(#p5a13d13245)" style="stroke: #000000; stroke-linejoin: miter"/>
   </g>
   <g id="patch_193">
    <path d="M 59.77423 68.232322 
L 67.367839 68.232322 
L 67.367839 60.638713 
L 59.77423 60.638713 
z
" clip-path="url(#p5a13d13245)" style="stroke: #000000; stroke-linejoin: miter"/>
   </g>
   <g id="patch_194">
    <path d="M 73.535012 67.717054 
L 80.098091 67.717054 
L 80.098091 61.153975 
L 73.535012 61.153975 
z
" clip-path="url(#p5a13d13245)" style="stroke: #000000; stroke-linejoin: miter"/>
   </g>
   <g id="patch_195">
    <path d="M 86.784654 67.712936 
L 93.339484 67.712936 
L 93.339484 61.158105 
L 86.784654 61.158105 
z
" clip-path="url(#p5a13d13245)" style="stroke: #000000; stroke-linejoin: miter"/>
   </g>
   <g id="patch_196">
    <path d="M 100.067012 67.676095 
L 106.548164 67.676095 
L 106.548164 61.194946 
L 100.067012 61.194946 
z
" clip-path="url(#p5a13d13245)" style="stroke: #000000; stroke-linejoin: miter"/>
   </g>
   <g id="patch_197">
    <path d="M 113.294709 67.693912 
L 119.811498 67.693912 
L 119.811498 61.177122 
L 113.294709 61.177122 
z
" clip-path="url(#p5a13d13245)" style="stroke: #000000; stroke-linejoin: miter"/>
   </g>
   <g id="patch_198">
    <path d="M 126.671617 67.562521 
L 132.925618 67.562521 
L 132.925618 61.30852 
L 126.671617 61.30852 
z
" clip-path="url(#p5a13d13245)" style="stroke: #000000; stroke-linejoin: miter"/>
   </g>
   <g id="patch_199">
    <path d="M 139.881468 67.598187 
L 146.206814 67.598187 
L 146.206814 61.272841 
L 139.881468 61.272841 
z
" clip-path="url(#p5a13d13245)" style="stroke: #000000; stroke-linejoin: miter"/>
   </g>
   <g id="patch_200">
    <path d="M 153.090214 67.634959 
L 159.489103 67.634959 
L 159.489103 61.236069 
L 153.090214 61.236069 
z
" clip-path="url(#p5a13d13245)" style="stroke: #000000; stroke-linejoin: miter"/>
   </g>
   <g id="patch_201">
    <path d="M 166.310423 67.660267 
L 172.759922 67.660267 
L 172.759922 61.210768 
L 166.310423 61.210768 
z
" clip-path="url(#p5a13d13245)" style="stroke: #000000; stroke-linejoin: miter"/>
   </g>
   <g id="patch_202">
    <path d="M 179.605103 67.611104 
L 185.956276 67.611104 
L 185.956276 61.259931 
L 179.605103 61.259931 
z
" clip-path="url(#p5a13d13245)" style="stroke: #000000; stroke-linejoin: miter"/>
   </g>
   <g id="patch_203">
    <path d="M 192.792072 67.669652 
L 199.260342 67.669652 
L 199.260342 61.201382 
L 192.792072 61.201382 
z
" clip-path="url(#p5a13d13245)" style="stroke: #000000; stroke-linejoin: miter"/>
   </g>
   <g id="patch_204">
    <path d="M 206.105157 67.602078 
L 212.438279 67.602078 
L 212.438279 61.268956 
L 206.105157 61.268956 
z
" clip-path="url(#p5a13d13245)" style="stroke: #000000; stroke-linejoin: miter"/>
   </g>
   <g id="patch_205">
    <path d="M 219.347276 67.605482 
L 225.687206 67.605482 
L 225.687206 61.265546 
L 219.347276 61.265546 
z
" clip-path="url(#p5a13d13245)" style="stroke: #000000; stroke-linejoin: miter"/>
   </g>
   <g id="patch_206">
    <path d="M 232.598832 67.599444 
L 238.926686 67.599444 
L 238.926686 61.271584 
L 232.598832 61.271584 
z
" clip-path="url(#p5a13d13245)" style="stroke: #000000; stroke-linejoin: miter"/>
   </g>
   <g id="patch_207">
    <path d="M 245.836909 67.606891 
L 252.179656 67.606891 
L 252.179656 61.26415 
L 245.836909 61.26415 
z
" clip-path="url(#p5a13d13245)" style="stroke: #000000; stroke-linejoin: miter"/>
   </g>
   <g id="patch_208">
    <path d="M 259.125311 67.563999 
L 265.382262 67.563999 
L 265.382262 61.307042 
L 259.125311 61.307042 
z
" clip-path="url(#p5a13d13245)" style="stroke: #000000; stroke-linejoin: miter"/>
   </g>
   <g id="patch_209">
    <path d="M 272.349847 67.584968 
L 278.648749 67.584968 
L 278.648749 61.28606 
L 272.349847 61.28606 
z
" clip-path="url(#p5a13d13245)" style="stroke: #000000; stroke-linejoin: miter"/>
   </g>
   <g id="patch_210">
    <path d="M 285.565452 67.614893 
L 291.924203 67.614893 
L 291.924203 61.256141 
L 285.565452 61.256141 
z
" clip-path="url(#p5a13d13245)" style="stroke: #000000; stroke-linejoin: miter"/>
   </g>
   <g id="patch_211">
    <path d="M 298.853235 67.572614 
L 305.127429 67.572614 
L 305.127429 61.298414 
L 298.853235 61.298414 
z
" clip-path="url(#p5a13d13245)" style="stroke: #000000; stroke-linejoin: miter"/>
   </g>
   <g id="patch_212">
    <path d="M 312.102921 67.568452 
L 318.368803 67.568452 
L 318.368803 61.302583 
L 312.102921 61.302583 
z
" clip-path="url(#p5a13d13245)" style="stroke: #000000; stroke-linejoin: miter"/>
   </g>
   <g id="patch_213">
    <path d="M 325.295662 67.621241 
L 331.667096 67.621241 
L 331.667096 61.249794 
L 325.295662 61.249794 
z
" clip-path="url(#p5a13d13245)" style="stroke: #000000; stroke-linejoin: miter"/>
   </g>
   <g id="patch_214">
    <path d="M 338.570182 67.592231 
L 344.883611 67.592231 
L 344.883611 61.278809 
L 338.570182 61.278809 
z
" clip-path="url(#p5a13d13245)" style="stroke: #000000; stroke-linejoin: miter"/>
   </g>
   <g id="patch_215">
    <path d="M 351.799733 67.608192 
L 358.145069 67.608192 
L 358.145069 61.262849 
L 351.799733 61.262849 
z
" clip-path="url(#p5a13d13245)" style="stroke: #000000; stroke-linejoin: miter"/>
   </g>
   <g id="patch_216">
    <path d="M 365.034159 67.619276 
L 371.401678 67.619276 
L 371.401678 61.251752 
L 365.034159 61.251752 
z
" clip-path="url(#p5a13d13245)" style="stroke: #000000; stroke-linejoin: miter"/>
   </g>
   <g id="patch_217">
    <path d="M 378.188348 67.710618 
L 384.738549 67.710618 
L 384.738549 61.16041 
L 378.188348 61.16041 
z
" clip-path="url(#p5a13d13245)" style="stroke: #000000; stroke-linejoin: miter"/>
   </g>
   <g id="patch_218">
    <path d="M 391.470194 67.674295 
L 397.947737 67.674295 
L 397.947737 61.19674 
L 391.470194 61.19674 
z
" clip-path="url(#p5a13d13245)" style="stroke: #000000; stroke-linejoin: miter"/>
   </g>
   <g id="patch_219">
    <path d="M 45.321128 56.19439 
L 55.329906 56.19439 
L 55.329906 46.185616 
L 45.321128 46.185616 
z
" clip-path="url(#p5a13d13245)" style="stroke: #000000; stroke-linejoin: miter"/>
   </g>
   <g id="patch_220">
    <path d="M 58.899159 55.861874 
L 68.242908 55.861874 
L 68.242908 46.518126 
L 58.899159 46.518126 
z
" clip-path="url(#p5a13d13245)" style="stroke: #000000; stroke-linejoin: miter"/>
   </g>
   <g id="patch_221">
    <path d="M 72.14176 55.864792 
L 81.491344 55.864792 
L 81.491344 46.515208 
L 72.14176 46.515208 
z
" clip-path="url(#p5a13d13245)" style="stroke: #000000; stroke-linejoin: miter"/>
   </g>
   <g id="patch_222">
    <path d="M 85.460511 55.791558 
L 94.663627 55.791558 
L 94.663627 46.588448 
L 85.460511 46.588448 
z
" clip-path="url(#p5a13d13245)" style="stroke: #000000; stroke-linejoin: miter"/>
   </g>
   <g id="patch_223">
    <path d="M 98.708021 55.789569 
L 107.907155 55.789569 
L 107.907155 46.590431 
L 98.708021 46.590431 
z
" clip-path="url(#p5a13d13245)" style="stroke: #000000; stroke-linejoin: miter"/>
   </g>
   <g id="patch_224">
    <path d="M 111.99594 55.747163 
L 121.110261 55.747163 
L 121.110261 46.632837 
L 111.99594 46.632837 
z
" clip-path="url(#p5a13d13245)" style="stroke: #000000; stroke-linejoin: miter"/>
   </g>
   <g id="patch_225">
    <path d="M 125.337453 55.651167 
L 134.259782 55.651167 
L 134.259782 46.728839 
L 125.337453 46.728839 
z
" clip-path="url(#p5a13d13245)" style="stroke: #000000; stroke-linejoin: miter"/>
   </g>
   <g id="patch_226">
    <path d="M 138.54066 55.693478 
L 147.547616 55.693478 
L 147.547616 46.686522 
L 138.54066 46.686522 
z
" clip-path="url(#p5a13d13245)" style="stroke: #000000; stroke-linejoin: miter"/>
   </g>
   <g id="patch_227">
    <path d="M 151.874752 55.604903 
L 160.704558 55.604903 
L 160.704558 46.775097 
L 151.874752 46.775097 
z
" clip-path="url(#p5a13d13245)" style="stroke: #000000; stroke-linejoin: miter"/>
   </g>
   <g id="patch_228">
    <path d="M 165.084597 55.640575 
L 173.985748 55.640575 
L 173.985748 46.739425 
L 165.084597 46.739425 
z
" clip-path="url(#p5a13d13245)" style="stroke: #000000; stroke-linejoin: miter"/>
   </g>
   <g id="patch_229">
    <path d="M 178.467461 55.503229 
L 187.093918 55.503229 
L 187.093918 46.876771 
L 178.467461 46.876771 
z
" clip-path="url(#p5a13d13245)" style="stroke: #000000; stroke-linejoin: miter"/>
   </g>
   <g id="patch_230">
    <path d="M 191.680792 55.535421 
L 200.371634 55.535421 
L 200.371634 46.844585 
L 191.680792 46.844585 
z
" clip-path="url(#p5a13d13245)" style="stroke: #000000; stroke-linejoin: miter"/>
   </g>
   <g id="patch_231">
    <path d="M 205.071981 55.389744 
L 213.471468 55.389744 
L 213.471468 46.990256 
L 205.071981 46.990256 
z
" clip-path="url(#p5a13d13245)" style="stroke: #000000; stroke-linejoin: miter"/>
   </g>
   <g id="patch_232">
    <path d="M 218.202042 55.505199 
L 226.832441 55.505199 
L 226.832441 46.874801 
L 218.202042 46.874801 
z
" clip-path="url(#p5a13d13245)" style="stroke: #000000; stroke-linejoin: miter"/>
   </g>
   <g id="patch_233">
    <path d="M 231.68005 55.272703 
L 239.845455 55.272703 
L 239.845455 47.107291 
L 231.68005 47.107291 
z
" clip-path="url(#p5a13d13245)" style="stroke: #000000; stroke-linejoin: miter"/>
   </g>
   <g id="patch_234">
    <path d="M 244.883679 55.314603 
L 253.132885 55.314603 
L 253.132885 47.065404 
L 244.883679 47.065404 
z
" clip-path="url(#p5a13d13245)" style="stroke: #000000; stroke-linejoin: miter"/>
   </g>
   <g id="patch_235">
    <path d="M 258.062601 55.381192 
L 266.444985 55.381192 
L 266.444985 46.998808 
L 258.062601 46.998808 
z
" clip-path="url(#p5a13d13245)" style="stroke: #000000; stroke-linejoin: miter"/>
   </g>
   <g id="patch_236">
    <path d="M 271.583267 55.106044 
L 279.415354 55.106044 
L 279.415354 47.273956 
L 271.583267 47.273956 
z
" clip-path="url(#p5a13d13245)" style="stroke: #000000; stroke-linejoin: miter"/>
   </g>
   <g id="patch_237">
    <path d="M 284.692612 55.242209 
L 292.797043 55.242209 
L 292.797043 47.137784 
L 284.692612 47.137784 
z
" clip-path="url(#p5a13d13245)" style="stroke: #000000; stroke-linejoin: miter"/>
   </g>
   <g id="patch_238">
    <path d="M 298.185159 54.995199 
L 305.795556 54.995199 
L 305.795556 47.384801 
L 298.185159 47.384801 
z
" clip-path="url(#p5a13d13245)" style="stroke: #000000; stroke-linejoin: miter"/>
   </g>
   <g id="patch_239">
    <path d="M 311.541786 54.884069 
L 318.929938 54.884069 
L 318.929938 47.495924 
L 311.541786 47.495924 
z
" clip-path="url(#p5a13d13245)" style="stroke: #000000; stroke-linejoin: miter"/>
   </g>
   <g id="patch_240">
    <path d="M 324.706561 54.964812 
L 332.256198 54.964812 
L 332.256198 47.415181 
L 324.706561 47.415181 
z
" clip-path="url(#p5a13d13245)" style="stroke: #000000; stroke-linejoin: miter"/>
   </g>
   <g id="patch_241">
    <path d="M 338.224674 54.692222 
L 345.229119 54.692222 
L 345.229119 47.687778 
L 338.224674 47.687778 
z
" clip-path="url(#p5a13d13245)" style="stroke: #000000; stroke-linejoin: miter"/>
   </g>
   <g id="patch_242">
    <path d="M 351.482091 54.680336 
L 358.462762 54.680336 
L 358.462762 47.699664 
L 351.482091 47.699664 
z
" clip-path="url(#p5a13d13245)" style="stroke: #000000; stroke-linejoin: miter"/>
   </g>
   <g id="patch_243">
    <path d="M 364.663893 54.744045 
L 371.771995 54.744045 
L 371.771995 47.635949 
L 364.663893 47.635949 
z
" clip-path="url(#p5a13d13245)" style="stroke: #000000; stroke-linejoin: miter"/>
   </g>
   <g id="patch_244">
    <path d="M 377.928686 54.724756 
L 384.998185 54.724756 
L 384.998185 47.655251 
L 377.928686 47.655251 
z
" clip-path="url(#p5a13d13245)" style="stroke: #000000; stroke-linejoin: miter"/>
   </g>
   <g id="patch_245">
    <path d="M 391.197194 54.701778 
L 398.220763 54.701778 
L 398.220763 47.678215 
L 391.197194 47.678215 
z
" clip-path="url(#p5a13d13245)" style="stroke: #000000; stroke-linejoin: miter"/>
   </g>
   <g id="matplotlib.axis_1">
    <g id="xtick_1">
     <g id="line2d_1">
      <defs>
       <path id="m4dcdb7ba94" d="M 0 0 
L 0 3.5 
" style="stroke: #000000; stroke-width: 0.8"/>
      </defs>
      <g>
       <use xlink:href="#m4dcdb7ba94" x="50.325517" y="170.399655" style="stroke: #000000; stroke-width: 0.8"/>
      </g>
     </g>
     <g id="text_1">
      <!-- 1 -->
      <g transform="translate(47.144267 191.498093) scale(0.1 -0.1)">
       <defs>
        <path id="DejaVuSans-31" d="M 794 531 
L 1825 531 
L 1825 4091 
L 703 3866 
L 703 4441 
L 1819 4666 
L 2450 4666 
L 2450 531 
L 3481 531 
L 3481 0 
L 794 0 
L 794 531 
z
" transform="scale(0.015625)"/>
       </defs>
       <use xlink:href="#DejaVuSans-31"/>
      </g>
     </g>
    </g>
    <g id="xtick_2">
     <g id="line2d_2">
      <g>
       <use xlink:href="#m4dcdb7ba94" x="394.708966" y="170.399655" style="stroke: #000000; stroke-width: 0.8"/>
      </g>
     </g>
     <g id="text_2">
      <!-- 200 -->
      <g transform="translate(385.165216 191.498093) scale(0.1 -0.1)">
       <defs>
        <path id="DejaVuSans-32" d="M 1228 531 
L 3431 531 
L 3431 0 
L 469 0 
L 469 531 
Q 828 903 1448 1529 
Q 2069 2156 2228 2338 
Q 2531 2678 2651 2914 
Q 2772 3150 2772 3378 
Q 2772 3750 2511 3984 
Q 2250 4219 1831 4219 
Q 1534 4219 1204 4116 
Q 875 4013 500 3803 
L 500 4441 
Q 881 4594 1212 4672 
Q 1544 4750 1819 4750 
Q 2544 4750 2975 4387 
Q 3406 4025 3406 3419 
Q 3406 3131 3298 2873 
Q 3191 2616 2906 2266 
Q 2828 2175 2409 1742 
Q 1991 1309 1228 531 
z
" transform="scale(0.015625)"/>
        <path id="DejaVuSans-30" d="M 2034 4250 
Q 1547 4250 1301 3770 
Q 1056 3291 1056 2328 
Q 1056 1369 1301 889 
Q 1547 409 2034 409 
Q 2525 409 2770 889 
Q 3016 1369 3016 2328 
Q 3016 3291 2770 3770 
Q 2525 4250 2034 4250 
z
M 2034 4750 
Q 2819 4750 3233 4129 
Q 3647 3509 3647 2328 
Q 3647 1150 3233 529 
Q 2819 -91 2034 -91 
Q 1250 -91 836 529 
Q 422 1150 422 2328 
Q 422 3509 836 4129 
Q 1250 4750 2034 4750 
z
" transform="scale(0.015625)"/>
       </defs>
       <use xlink:href="#DejaVuSans-32"/>
       <use xlink:href="#DejaVuSans-30" x="63.623047"/>
       <use xlink:href="#DejaVuSans-30" x="127.246094"/>
      </g>
     </g>
    </g>
    <g id="text_3">
     <!-- Epoch -->
     <g transform="translate(213.829062 205.176218) scale(0.1 -0.1)">
      <defs>
       <path id="DejaVuSans-45" d="M 628 4666 
L 3578 4666 
L 3578 4134 
L 1259 4134 
L 1259 2753 
L 3481 2753 
L 3481 2222 
L 1259 2222 
L 1259 531 
L 3634 531 
L 3634 0 
L 628 0 
L 628 4666 
z
" transform="scale(0.015625)"/>
       <path id="DejaVuSans-70" d="M 1159 525 
L 1159 -1331 
L 581 -1331 
L 581 3500 
L 1159 3500 
L 1159 2969 
Q 1341 3281 1617 3432 
Q 1894 3584 2278 3584 
Q 2916 3584 3314 3078 
Q 3713 2572 3713 1747 
Q 3713 922 3314 415 
Q 2916 -91 2278 -91 
Q 1894 -91 1617 61 
Q 1341 213 1159 525 
z
M 3116 1747 
Q 3116 2381 2855 2742 
Q 2594 3103 2138 3103 
Q 1681 3103 1420 2742 
Q 1159 2381 1159 1747 
Q 1159 1113 1420 752 
Q 1681 391 2138 391 
Q 2594 391 2855 752 
Q 3116 1113 3116 1747 
z
" transform="scale(0.015625)"/>
       <path id="DejaVuSans-6f" d="M 1959 3097 
Q 1497 3097 1228 2736 
Q 959 2375 959 1747 
Q 959 1119 1226 758 
Q 1494 397 1959 397 
Q 2419 397 2687 759 
Q 2956 1122 2956 1747 
Q 2956 2369 2687 2733 
Q 2419 3097 1959 3097 
z
M 1959 3584 
Q 2709 3584 3137 3096 
Q 3566 2609 3566 1747 
Q 3566 888 3137 398 
Q 2709 -91 1959 -91 
Q 1206 -91 779 398 
Q 353 888 353 1747 
Q 353 2609 779 3096 
Q 1206 3584 1959 3584 
z
" transform="scale(0.015625)"/>
       <path id="DejaVuSans-63" d="M 3122 3366 
L 3122 2828 
Q 2878 2963 2633 3030 
Q 2388 3097 2138 3097 
Q 1578 3097 1268 2742 
Q 959 2388 959 1747 
Q 959 1106 1268 751 
Q 1578 397 2138 397 
Q 2388 397 2633 464 
Q 2878 531 3122 666 
L 3122 134 
Q 2881 22 2623 -34 
Q 2366 -91 2075 -91 
Q 1284 -91 818 406 
Q 353 903 353 1747 
Q 353 2603 823 3093 
Q 1294 3584 2113 3584 
Q 2378 3584 2631 3529 
Q 2884 3475 3122 3366 
z
" transform="scale(0.015625)"/>
       <path id="DejaVuSans-68" d="M 3513 2113 
L 3513 0 
L 2938 0 
L 2938 2094 
Q 2938 2591 2744 2837 
Q 2550 3084 2163 3084 
Q 1697 3084 1428 2787 
Q 1159 2491 1159 1978 
L 1159 0 
L 581 0 
L 581 4863 
L 1159 4863 
L 1159 2956 
Q 1366 3272 1645 3428 
Q 1925 3584 2291 3584 
Q 2894 3584 3203 3211 
Q 3513 2838 3513 2113 
z
" transform="scale(0.015625)"/>
      </defs>
      <use xlink:href="#DejaVuSans-45"/>
      <use xlink:href="#DejaVuSans-70" x="63.183594"/>
      <use xlink:href="#DejaVuSans-6f" x="126.660156"/>
      <use xlink:href="#DejaVuSans-63" x="187.841797"/>
      <use xlink:href="#DejaVuSans-68" x="242.822266"/>
     </g>
    </g>
   </g>
   <g id="matplotlib.axis_2">
    <g id="ytick_1">
     <g id="line2d_3">
      <defs>
       <path id="m04ca30d726" d="M 0 0 
L -3.5 0 
" style="stroke: #000000; stroke-width: 0.8"/>
      </defs>
      <g>
       <use xlink:href="#m04ca30d726" x="37.08" y="157.154138" style="stroke: #000000; stroke-width: 0.8"/>
      </g>
     </g>
     <g id="text_4">
      <!-- 2 -->
      <g transform="translate(17.2175 160.953357) scale(0.1 -0.1)">
       <use xlink:href="#DejaVuSans-32"/>
      </g>
     </g>
    </g>
    <g id="ytick_2">
     <g id="line2d_4">
      <g>
       <use xlink:href="#m04ca30d726" x="37.08" y="143.908621" style="stroke: #000000; stroke-width: 0.8"/>
      </g>
     </g>
     <g id="text_5">
      <!-- 3 -->
      <g transform="translate(17.2175 147.707839) scale(0.1 -0.1)">
       <defs>
        <path id="DejaVuSans-33" d="M 2597 2516 
Q 3050 2419 3304 2112 
Q 3559 1806 3559 1356 
Q 3559 666 3084 287 
Q 2609 -91 1734 -91 
Q 1441 -91 1130 -33 
Q 819 25 488 141 
L 488 750 
Q 750 597 1062 519 
Q 1375 441 1716 441 
Q 2309 441 2620 675 
Q 2931 909 2931 1356 
Q 2931 1769 2642 2001 
Q 2353 2234 1838 2234 
L 1294 2234 
L 1294 2753 
L 1863 2753 
Q 2328 2753 2575 2939 
Q 2822 3125 2822 3475 
Q 2822 3834 2567 4026 
Q 2313 4219 1838 4219 
Q 1578 4219 1281 4162 
Q 984 4106 628 3988 
L 628 4550 
Q 988 4650 1302 4700 
Q 1616 4750 1894 4750 
Q 2613 4750 3031 4423 
Q 3450 4097 3450 3541 
Q 3450 3153 3228 2886 
Q 3006 2619 2597 2516 
z
" transform="scale(0.015625)"/>
       </defs>
       <use xlink:href="#DejaVuSans-33"/>
      </g>
     </g>
    </g>
    <g id="ytick_3">
     <g id="line2d_5">
      <g>
       <use xlink:href="#m04ca30d726" x="37.08" y="130.663103" style="stroke: #000000; stroke-width: 0.8"/>
      </g>
     </g>
     <g id="text_6">
      <!-- 5 -->
      <g transform="translate(17.2175 134.462322) scale(0.1 -0.1)">
       <defs>
        <path id="DejaVuSans-35" d="M 691 4666 
L 3169 4666 
L 3169 4134 
L 1269 4134 
L 1269 2991 
Q 1406 3038 1543 3061 
Q 1681 3084 1819 3084 
Q 2600 3084 3056 2656 
Q 3513 2228 3513 1497 
Q 3513 744 3044 326 
Q 2575 -91 1722 -91 
Q 1428 -91 1123 -41 
Q 819 9 494 109 
L 494 744 
Q 775 591 1075 516 
Q 1375 441 1709 441 
Q 2250 441 2565 725 
Q 2881 1009 2881 1497 
Q 2881 1984 2565 2268 
Q 2250 2553 1709 2553 
Q 1456 2553 1204 2497 
Q 953 2441 691 2322 
L 691 4666 
z
" transform="scale(0.015625)"/>
       </defs>
       <use xlink:href="#DejaVuSans-35"/>
      </g>
     </g>
    </g>
    <g id="ytick_4">
     <g id="line2d_6">
      <g>
       <use xlink:href="#m04ca30d726" x="37.08" y="117.417586" style="stroke: #000000; stroke-width: 0.8"/>
      </g>
     </g>
     <g id="text_7">
      <!-- 7 -->
      <g transform="translate(17.2175 121.216805) scale(0.1 -0.1)">
       <defs>
        <path id="DejaVuSans-37" d="M 525 4666 
L 3525 4666 
L 3525 4397 
L 1831 0 
L 1172 0 
L 2766 4134 
L 525 4134 
L 525 4666 
z
" transform="scale(0.015625)"/>
       </defs>
       <use xlink:href="#DejaVuSans-37"/>
      </g>
     </g>
    </g>
    <g id="ytick_5">
     <g id="line2d_7">
      <g>
       <use xlink:href="#m04ca30d726" x="37.08" y="104.172069" style="stroke: #000000; stroke-width: 0.8"/>
      </g>
     </g>
     <g id="text_8">
      <!-- 11 -->
      <g transform="translate(10.855 107.971288) scale(0.1 -0.1)">
       <use xlink:href="#DejaVuSans-31"/>
       <use xlink:href="#DejaVuSans-31" x="63.623047"/>
      </g>
     </g>
    </g>
    <g id="ytick_6">
     <g id="line2d_8">
      <g>
       <use xlink:href="#m04ca30d726" x="37.08" y="90.926552" style="stroke: #000000; stroke-width: 0.8"/>
      </g>
     </g>
     <g id="text_9">
      <!-- 13 -->
      <g transform="translate(10.855 94.72577) scale(0.1 -0.1)">
       <use xlink:href="#DejaVuSans-31"/>
       <use xlink:href="#DejaVuSans-33" x="63.623047"/>
      </g>
     </g>
    </g>
    <g id="ytick_7">
     <g id="line2d_9">
      <g>
       <use xlink:href="#m04ca30d726" x="37.08" y="77.681034" style="stroke: #000000; stroke-width: 0.8"/>
      </g>
     </g>
     <g id="text_10">
      <!-- 17 -->
      <g transform="translate(10.855 81.480253) scale(0.1 -0.1)">
       <use xlink:href="#DejaVuSans-31"/>
       <use xlink:href="#DejaVuSans-37" x="63.623047"/>
      </g>
     </g>
    </g>
    <g id="ytick_8">
     <g id="line2d_10">
      <g>
       <use xlink:href="#m04ca30d726" x="37.08" y="64.435517" style="stroke: #000000; stroke-width: 0.8"/>
      </g>
     </g>
     <g id="text_11">
      <!-- 19 -->
      <g transform="translate(10.855 68.234736) scale(0.1 -0.1)">
       <defs>
        <path id="DejaVuSans-39" d="M 703 97 
L 703 672 
Q 941 559 1184 500 
Q 1428 441 1663 441 
Q 2288 441 2617 861 
Q 2947 1281 2994 2138 
Q 2813 1869 2534 1725 
Q 2256 1581 1919 1581 
Q 1219 1581 811 2004 
Q 403 2428 403 3163 
Q 403 3881 828 4315 
Q 1253 4750 1959 4750 
Q 2769 4750 3195 4129 
Q 3622 3509 3622 2328 
Q 3622 1225 3098 567 
Q 2575 -91 1691 -91 
Q 1453 -91 1209 -44 
Q 966 3 703 97 
z
M 1959 2075 
Q 2384 2075 2632 2365 
Q 2881 2656 2881 3163 
Q 2881 3666 2632 3958 
Q 2384 4250 1959 4250 
Q 1534 4250 1286 3958 
Q 1038 3666 1038 3163 
Q 1038 2656 1286 2365 
Q 1534 2075 1959 2075 
z
" transform="scale(0.015625)"/>
       </defs>
       <use xlink:href="#DejaVuSans-31"/>
       <use xlink:href="#DejaVuSans-39" x="63.623047"/>
      </g>
     </g>
    </g>
    <g id="ytick_9">
     <g id="line2d_11">
      <g>
       <use xlink:href="#m04ca30d726" x="37.08" y="51.19" style="stroke: #000000; stroke-width: 0.8"/>
      </g>
     </g>
     <g id="text_12">
      <!--  -->
      <g transform="translate(16.5675 54.989219) scale(0.1 -0.1)">
       <defs>
        <path id="DejaVuSans-2119" d="M 938 4353 
L 938 313 
L 1569 313 
L 1569 4353 
L 938 4353 
z
M 1881 4353 
L 1881 2284 
L 2825 2284 
Q 2900 2284 2972 2291 
L 2972 4347 
Q 2900 4353 2825 4353 
L 1881 4353 
z
M 625 4666 
L 2678 4666 
Q 3459 4666 3861 4323 
Q 4263 3981 4263 3322 
Q 4263 2656 3861 2315 
Q 3459 1975 2675 1975 
L 1881 1975 
L 1881 0 
L 625 0 
L 625 4666 
z
M 3300 4281 
L 3300 2359 
Q 3488 2428 3628 2556 
Q 3919 2825 3919 3322 
Q 3919 3816 3631 4084 
Q 3494 4213 3300 4281 
z
" transform="scale(0.015625)"/>
       </defs>
       <use xlink:href="#DejaVuSans-2119"/>
      </g>
     </g>
    </g>
   </g>
  </g>
 </g>
 <defs>
  <clipPath id="p5a13d13245">
   <rect x="37.08" y="24.698966" width="384.12" height="145.70069"/>
  </clipPath>
 </defs>
</svg>
