<?xml version="1.0" encoding="utf-8" standalone="no"?>
<!DOCTYPE svg PUBLIC "-//W3C//DTD SVG 1.1//EN"
  "http://www.w3.org/Graphics/SVG/1.1/DTD/svg11.dtd">
<svg xmlns:xlink="http://www.w3.org/1999/xlink" width="864pt" height="432pt" viewBox="0 0 864 432" xmlns="http://www.w3.org/2000/svg" version="1.1">
 <metadata>
  <rdf:RDF xmlns:dc="http://purl.org/dc/elements/1.1/" xmlns:cc="http://creativecommons.org/ns#" xmlns:rdf="http://www.w3.org/1999/02/22-rdf-syntax-ns#">
   <cc:Work>
    <dc:type rdf:resource="http://purl.org/dc/dcmitype/StillImage"/>
    <dc:date>2024-08-13T22:17:38.072273</dc:date>
    <dc:format>image/svg+xml</dc:format>
    <dc:creator>
     <cc:Agent>
      <dc:title>Matplotlib v3.9.1.post1, https://matplotlib.org/</dc:title>
     </cc:Agent>
    </dc:creator>
   </cc:Work>
  </rdf:RDF>
 </metadata>
 <defs>
  <style type="text/css">*{stroke-linejoin: round; stroke-linecap: butt}</style>
 </defs>
 <g id="figure_1">
  <g id="patch_1">
   <path d="M 0 432 
L 864 432 
L 864 0 
L 0 0 
z
" style="fill: #ffffff"/>
  </g>
  <g id="axes_1">
   <g id="patch_2">
    <path d="M 37.08 368.71 
L 853.2 368.71 
L 853.2 59.147241 
L 37.08 59.147241 
z
" style="fill: #ffffff"/>
   </g>
   <g id="patch_3">
    <path d="M 53.504069 352.285931 
L 76.940069 352.285931 
L 76.940069 328.849931 
L 53.504069 328.849931 
z
" clip-path="url(#p36cf812e5f)" style="stroke: #000000; stroke-linejoin: miter"/>
   </g>
   <g id="patch_4">
    <path d="M 91.013045 342.919024 
L 95.715231 342.919024 
L 95.715231 338.216838 
L 91.013045 338.216838 
z
" clip-path="url(#p36cf812e5f)" style="stroke: #000000; stroke-linejoin: miter"/>
   </g>
   <g id="patch_5">
    <path d="M 121.504532 340.569606 
L 121.507882 340.569606 
L 121.507882 340.566256 
L 121.504532 340.566256 
z
" clip-path="url(#p36cf812e5f)" style="stroke: #000000; stroke-linejoin: miter"/>
   </g>
   <g id="patch_6">
    <path d="M 149.647377 340.56883 
L 149.649175 340.56883 
L 149.649175 340.567032 
L 149.647377 340.567032 
z
" clip-path="url(#p36cf812e5f)" style="stroke: #000000; stroke-linejoin: miter"/>
   </g>
   <g id="patch_7">
    <path d="M 177.789612 340.568664 
L 177.791078 340.568664 
L 177.791078 340.567198 
L 177.789612 340.567198 
z
" clip-path="url(#p36cf812e5f)" style="stroke: #000000; stroke-linejoin: miter"/>
   </g>
   <g id="patch_8">
    <path d="M 205.931926 340.568419 
L 205.932902 340.568419 
L 205.932902 340.567443 
L 205.931926 340.567443 
z
" clip-path="url(#p36cf812e5f)" style="stroke: #000000; stroke-linejoin: miter"/>
   </g>
   <g id="patch_9">
    <path d="M 234.074044 340.568369 
L 234.074921 340.568369 
L 234.074921 340.567493 
L 234.074044 340.567493 
z
" clip-path="url(#p36cf812e5f)" style="stroke: #000000; stroke-linejoin: miter"/>
   </g>
   <g id="patch_10">
    <path d="M 262.215837 340.568645 
L 262.217266 340.568645 
L 262.217266 340.567217 
L 262.215837 340.567217 
z
" clip-path="url(#p36cf812e5f)" style="stroke: #000000; stroke-linejoin: miter"/>
   </g>
   <g id="patch_11">
    <path d="M 290.356441 340.570111 
L 290.360801 340.570111 
L 290.360801 340.565751 
L 290.356441 340.565751 
z
" clip-path="url(#p36cf812e5f)" style="stroke: #000000; stroke-linejoin: miter"/>
   </g>
   <g id="patch_12">
    <path d="M 318.487937 340.580683 
L 318.513442 340.580683 
L 318.513442 340.555179 
L 318.487937 340.555179 
z
" clip-path="url(#p36cf812e5f)" style="stroke: #000000; stroke-linejoin: miter"/>
   </g>
   <g id="patch_13">
    <path d="M 346.555544 340.655146 
L 346.729974 340.655146 
L 346.729974 340.480716 
L 346.555544 340.480716 
z
" clip-path="url(#p36cf812e5f)" style="stroke: #000000; stroke-linejoin: miter"/>
   </g>
   <g id="patch_14">
    <path d="M 374.571262 340.781496 
L 374.998393 340.781496 
L 374.998393 340.354366 
L 374.571262 340.354366 
z
" clip-path="url(#p36cf812e5f)" style="stroke: #000000; stroke-linejoin: miter"/>
   </g>
   <g id="patch_15">
    <path d="M 402.744458 340.750369 
L 403.109335 340.750369 
L 403.109335 340.385493 
L 402.744458 340.385493 
z
" clip-path="url(#p36cf812e5f)" style="stroke: #000000; stroke-linejoin: miter"/>
   </g>
   <g id="patch_16">
    <path d="M 429.386066 342.250831 
L 432.751866 342.250831 
L 432.751866 338.885031 
L 429.386066 338.885031 
z
" clip-path="url(#p36cf812e5f)" style="stroke: #000000; stroke-linejoin: miter"/>
   </g>
   <g id="patch_17">
    <path d="M 458.765367 341.013598 
L 459.656702 341.013598 
L 459.656702 340.122264 
L 458.765367 340.122264 
z
" clip-path="url(#p36cf812e5f)" style="stroke: #000000; stroke-linejoin: miter"/>
   </g>
   <g id="patch_18">
    <path d="M 487.35007 340.570964 
L 487.356136 340.570964 
L 487.356136 340.564898 
L 487.35007 340.564898 
z
" clip-path="url(#p36cf812e5f)" style="stroke: #000000; stroke-linejoin: miter"/>
   </g>
   <g id="patch_19">
    <path d="M 515.492771 340.570332 
L 515.497573 340.570332 
L 515.497573 340.56553 
L 515.492771 340.56553 
z
" clip-path="url(#p36cf812e5f)" style="stroke: #000000; stroke-linejoin: miter"/>
   </g>
   <g id="patch_20">
    <path d="M 543.633166 340.572007 
L 543.641317 340.572007 
L 543.641317 340.563855 
L 543.633166 340.563855 
z
" clip-path="url(#p36cf812e5f)" style="stroke: #000000; stroke-linejoin: miter"/>
   </g>
   <g id="patch_21">
    <path d="M 571.767389 340.579852 
L 571.791231 340.579852 
L 571.791231 340.55601 
L 571.767389 340.55601 
z
" clip-path="url(#p36cf812e5f)" style="stroke: #000000; stroke-linejoin: miter"/>
   </g>
   <g id="patch_22">
    <path d="M 599.884089 340.605221 
L 599.95867 340.605221 
L 599.95867 340.530641 
L 599.884089 340.530641 
z
" clip-path="url(#p36cf812e5f)" style="stroke: #000000; stroke-linejoin: miter"/>
   </g>
   <g id="patch_23">
    <path d="M 627.992828 340.638552 
L 628.134069 340.638552 
L 628.134069 340.49731 
L 627.992828 340.49731 
z
" clip-path="url(#p36cf812e5f)" style="stroke: #000000; stroke-linejoin: miter"/>
   </g>
   <g id="patch_24">
    <path d="M 656.112418 340.66103 
L 656.298616 340.66103 
L 656.298616 340.474832 
L 656.112418 340.474832 
z
" clip-path="url(#p36cf812e5f)" style="stroke: #000000; stroke-linejoin: miter"/>
   </g>
   <g id="patch_25">
    <path d="M 684.258924 340.656593 
L 684.436248 340.656593 
L 684.436248 340.479269 
L 684.258924 340.479269 
z
" clip-path="url(#p36cf812e5f)" style="stroke: #000000; stroke-linejoin: miter"/>
   </g>
   <g id="patch_26">
    <path d="M 712.403526 340.654061 
L 712.575785 340.654061 
L 712.575785 340.481801 
L 712.403526 340.481801 
z
" clip-path="url(#p36cf812e5f)" style="stroke: #000000; stroke-linejoin: miter"/>
   </g>
   <g id="patch_27">
    <path d="M 740.554376 340.645279 
L 740.709072 340.645279 
L 740.709072 340.490583 
L 740.554376 340.490583 
z
" clip-path="url(#p36cf812e5f)" style="stroke: #000000; stroke-linejoin: miter"/>
   </g>
   <g id="patch_28">
    <path d="M 768.719303 340.622421 
L 768.828283 340.622421 
L 768.828283 340.513441 
L 768.719303 340.513441 
z
" clip-path="url(#p36cf812e5f)" style="stroke: #000000; stroke-linejoin: miter"/>
   </g>
   <g id="patch_29">
    <path d="M 796.862189 340.621604 
L 796.969535 340.621604 
L 796.969535 340.514258 
L 796.862189 340.514258 
z
" clip-path="url(#p36cf812e5f)" style="stroke: #000000; stroke-linejoin: miter"/>
   </g>
   <g id="patch_30">
    <path d="M 52.558138 325.089793 
L 77.886 325.089793 
L 77.886 299.761931 
L 52.558138 299.761931 
z
" clip-path="url(#p36cf812e5f)" style="stroke: #000000; stroke-linejoin: miter"/>
   </g>
   <g id="patch_31">
    <path d="M 80.700207 325.089793 
L 106.028069 325.089793 
L 106.028069 299.761931 
L 80.700207 299.761931 
z
" clip-path="url(#p36cf812e5f)" style="stroke: #000000; stroke-linejoin: miter"/>
   </g>
   <g id="patch_32">
    <path d="M 108.842276 325.089793 
L 134.170138 325.089793 
L 134.170138 299.761931 
L 108.842276 299.761931 
z
" clip-path="url(#p36cf812e5f)" style="stroke: #000000; stroke-linejoin: miter"/>
   </g>
   <g id="patch_33">
    <path d="M 136.984345 325.089793 
L 162.312207 325.089793 
L 162.312207 299.761931 
L 136.984345 299.761931 
z
" clip-path="url(#p36cf812e5f)" style="stroke: #000000; stroke-linejoin: miter"/>
   </g>
   <g id="patch_34">
    <path d="M 165.126414 325.089793 
L 190.454276 325.089793 
L 190.454276 299.761931 
L 165.126414 299.761931 
z
" clip-path="url(#p36cf812e5f)" style="stroke: #000000; stroke-linejoin: miter"/>
   </g>
   <g id="patch_35">
    <path d="M 193.268483 325.089793 
L 218.596345 325.089793 
L 218.596345 299.761931 
L 193.268483 299.761931 
z
" clip-path="url(#p36cf812e5f)" style="stroke: #000000; stroke-linejoin: miter"/>
   </g>
   <g id="patch_36">
    <path d="M 221.634316 324.866029 
L 246.514649 324.866029 
L 246.514649 299.985695 
L 221.634316 299.985695 
z
" clip-path="url(#p36cf812e5f)" style="stroke: #000000; stroke-linejoin: miter"/>
   </g>
   <g id="patch_37">
    <path d="M 250.101554 324.54086 
L 274.33155 324.54086 
L 274.33155 300.310864 
L 250.101554 300.310864 
z
" clip-path="url(#p36cf812e5f)" style="stroke: #000000; stroke-linejoin: miter"/>
   </g>
   <g id="patch_38">
    <path d="M 278.726666 324.057816 
L 301.990575 324.057816 
L 301.990575 300.793908 
L 278.726666 300.793908 
z
" clip-path="url(#p36cf812e5f)" style="stroke: #000000; stroke-linejoin: miter"/>
   </g>
   <g id="patch_39">
    <path d="M 307.523139 323.403413 
L 329.478241 323.403413 
L 329.478241 301.448311 
L 307.523139 301.448311 
z
" clip-path="url(#p36cf812e5f)" style="stroke: #000000; stroke-linejoin: miter"/>
   </g>
   <g id="patch_40">
    <path d="M 336.49629 322.572331 
L 356.789228 322.572331 
L 356.789228 302.279393 
L 336.49629 302.279393 
z
" clip-path="url(#p36cf812e5f)" style="stroke: #000000; stroke-linejoin: miter"/>
   </g>
   <g id="patch_41">
    <path d="M 365.494518 321.716171 
L 384.075137 321.716171 
L 384.075137 303.135553 
L 365.494518 303.135553 
z
" clip-path="url(#p36cf812e5f)" style="stroke: #000000; stroke-linejoin: miter"/>
   </g>
   <g id="patch_42">
    <path d="M 394.468218 320.884541 
L 411.385575 320.884541 
L 411.385575 303.967183 
L 394.468218 303.967183 
z
" clip-path="url(#p36cf812e5f)" style="stroke: #000000; stroke-linejoin: miter"/>
   </g>
   <g id="patch_43">
    <path d="M 418.405034 325.089793 
L 443.732897 325.089793 
L 443.732897 299.761931 
L 418.405034 299.761931 
z
" clip-path="url(#p36cf812e5f)" style="stroke: #000000; stroke-linejoin: miter"/>
   </g>
   <g id="patch_44">
    <path d="M 449.543994 322.092902 
L 468.878075 322.092902 
L 468.878075 302.758822 
L 449.543994 302.758822 
z
" clip-path="url(#p36cf812e5f)" style="stroke: #000000; stroke-linejoin: miter"/>
   </g>
   <g id="patch_45">
    <path d="M 479.291007 320.487959 
L 495.4152 320.487959 
L 495.4152 304.363765 
L 479.291007 304.363765 
z
" clip-path="url(#p36cf812e5f)" style="stroke: #000000; stroke-linejoin: miter"/>
   </g>
   <g id="patch_46">
    <path d="M 508.278872 319.642163 
L 522.711473 319.642163 
L 522.711473 305.209562 
L 508.278872 305.209562 
z
" clip-path="url(#p36cf812e5f)" style="stroke: #000000; stroke-linejoin: miter"/>
   </g>
   <g id="patch_47">
    <path d="M 537.193538 318.869565 
L 550.080945 318.869565 
L 550.080945 305.982159 
L 537.193538 305.982159 
z
" clip-path="url(#p36cf812e5f)" style="stroke: #000000; stroke-linejoin: miter"/>
   </g>
   <g id="patch_48">
    <path d="M 566.072811 318.132362 
L 577.48581 318.132362 
L 577.48581 306.719362 
L 566.072811 306.719362 
z
" clip-path="url(#p36cf812e5f)" style="stroke: #000000; stroke-linejoin: miter"/>
   </g>
   <g id="patch_49">
    <path d="M 594.947148 317.400093 
L 604.89561 317.400093 
L 604.89561 307.451631 
L 594.947148 307.451631 
z
" clip-path="url(#p36cf812e5f)" style="stroke: #000000; stroke-linejoin: miter"/>
   </g>
   <g id="patch_50">
    <path d="M 623.791957 316.697354 
L 632.33494 316.697354 
L 632.33494 308.154371 
L 623.791957 308.154371 
z
" clip-path="url(#p36cf812e5f)" style="stroke: #000000; stroke-linejoin: miter"/>
   </g>
   <g id="patch_51">
    <path d="M 652.550455 316.080925 
L 659.86058 316.080925 
L 659.86058 308.7708 
L 652.550455 308.7708 
z
" clip-path="url(#p36cf812e5f)" style="stroke: #000000; stroke-linejoin: miter"/>
   </g>
   <g id="patch_52">
    <path d="M 681.211207 315.562241 
L 687.483966 315.562241 
L 687.483966 309.289483 
L 681.211207 309.289483 
z
" clip-path="url(#p36cf812e5f)" style="stroke: #000000; stroke-linejoin: miter"/>
   </g>
   <g id="patch_53">
    <path d="M 709.775581 315.139936 
L 715.203729 315.139936 
L 715.203729 309.711788 
L 709.775581 309.711788 
z
" clip-path="url(#p36cf812e5f)" style="stroke: #000000; stroke-linejoin: miter"/>
   </g>
   <g id="patch_54">
    <path d="M 738.264142 314.793444 
L 742.999306 314.793444 
L 742.999306 310.05828 
L 738.264142 310.05828 
z
" clip-path="url(#p36cf812e5f)" style="stroke: #000000; stroke-linejoin: miter"/>
   </g>
   <g id="patch_55">
    <path d="M 766.682685 314.51697 
L 770.864901 314.51697 
L 770.864901 310.334754 
L 766.682685 310.334754 
z
" clip-path="url(#p36cf812e5f)" style="stroke: #000000; stroke-linejoin: miter"/>
   </g>
   <g id="patch_56">
    <path d="M 795.061575 314.280149 
L 798.770149 314.280149 
L 798.770149 310.571575 
L 795.061575 310.571575 
z
" clip-path="url(#p36cf812e5f)" style="stroke: #000000; stroke-linejoin: miter"/>
   </g>
   <g id="patch_57">
    <path d="M 52.558138 296.947724 
L 77.886 296.947724 
L 77.886 271.619862 
L 52.558138 271.619862 
z
" clip-path="url(#p36cf812e5f)" style="stroke: #000000; stroke-linejoin: miter"/>
   </g>
   <g id="patch_58">
    <path d="M 80.700207 296.947724 
L 106.028069 296.947724 
L 106.028069 271.619862 
L 80.700207 271.619862 
z
" clip-path="url(#p36cf812e5f)" style="stroke: #000000; stroke-linejoin: miter"/>
   </g>
   <g id="patch_59">
    <path d="M 108.842276 296.947724 
L 134.170138 296.947724 
L 134.170138 271.619862 
L 108.842276 271.619862 
z
" clip-path="url(#p36cf812e5f)" style="stroke: #000000; stroke-linejoin: miter"/>
   </g>
   <g id="patch_60">
    <path d="M 136.984345 296.947724 
L 162.312207 296.947724 
L 162.312207 271.619862 
L 136.984345 271.619862 
z
" clip-path="url(#p36cf812e5f)" style="stroke: #000000; stroke-linejoin: miter"/>
   </g>
   <g id="patch_61">
    <path d="M 165.126414 296.947724 
L 190.454276 296.947724 
L 190.454276 271.619862 
L 165.126414 271.619862 
z
" clip-path="url(#p36cf812e5f)" style="stroke: #000000; stroke-linejoin: miter"/>
   </g>
   <g id="patch_62">
    <path d="M 193.268483 296.947724 
L 218.596345 296.947724 
L 218.596345 271.619862 
L 193.268483 271.619862 
z
" clip-path="url(#p36cf812e5f)" style="stroke: #000000; stroke-linejoin: miter"/>
   </g>
   <g id="patch_63">
    <path d="M 221.454648 296.903628 
L 246.694317 296.903628 
L 246.694317 271.663959 
L 221.454648 271.663959 
z
" clip-path="url(#p36cf812e5f)" style="stroke: #000000; stroke-linejoin: miter"/>
   </g>
   <g id="patch_64">
    <path d="M 249.672142 296.828203 
L 274.760962 296.828203 
L 274.760962 271.739383 
L 249.672142 271.739383 
z
" clip-path="url(#p36cf812e5f)" style="stroke: #000000; stroke-linejoin: miter"/>
   </g>
   <g id="patch_65">
    <path d="M 277.867984 296.774429 
L 302.849257 296.774429 
L 302.849257 271.793157 
L 277.867984 271.793157 
z
" clip-path="url(#p36cf812e5f)" style="stroke: #000000; stroke-linejoin: miter"/>
   </g>
   <g id="patch_66">
    <path d="M 306.065949 296.718533 
L 330.93543 296.718533 
L 330.93543 271.849053 
L 306.065949 271.849053 
z
" clip-path="url(#p36cf812e5f)" style="stroke: #000000; stroke-linejoin: miter"/>
   </g>
   <g id="patch_67">
    <path d="M 334.291047 296.635505 
L 358.99447 296.635505 
L 358.99447 271.932082 
L 334.291047 271.932082 
z
" clip-path="url(#p36cf812e5f)" style="stroke: #000000; stroke-linejoin: miter"/>
   </g>
   <g id="patch_68">
    <path d="M 362.52271 296.545911 
L 387.046945 296.545911 
L 387.046945 272.021676 
L 362.52271 272.021676 
z
" clip-path="url(#p36cf812e5f)" style="stroke: #000000; stroke-linejoin: miter"/>
   </g>
   <g id="patch_69">
    <path d="M 390.772772 296.437917 
L 415.081021 296.437917 
L 415.081021 272.129669 
L 390.772772 272.129669 
z
" clip-path="url(#p36cf812e5f)" style="stroke: #000000; stroke-linejoin: miter"/>
   </g>
   <g id="patch_70">
    <path d="M 418.699364 296.653394 
L 443.438567 296.653394 
L 443.438567 271.914192 
L 418.699364 271.914192 
z
" clip-path="url(#p36cf812e5f)" style="stroke: #000000; stroke-linejoin: miter"/>
   </g>
   <g id="patch_71">
    <path d="M 446.761429 296.733398 
L 471.66064 296.733398 
L 471.66064 271.834188 
L 446.761429 271.834188 
z
" clip-path="url(#p36cf812e5f)" style="stroke: #000000; stroke-linejoin: miter"/>
   </g>
   <g id="patch_72">
    <path d="M 475.176107 296.460789 
L 499.5301 296.460789 
L 499.5301 272.106797 
L 475.176107 272.106797 
z
" clip-path="url(#p36cf812e5f)" style="stroke: #000000; stroke-linejoin: miter"/>
   </g>
   <g id="patch_73">
    <path d="M 503.422641 296.356324 
L 527.567704 296.356324 
L 527.567704 272.211262 
L 503.422641 272.211262 
z
" clip-path="url(#p36cf812e5f)" style="stroke: #000000; stroke-linejoin: miter"/>
   </g>
   <g id="patch_74">
    <path d="M 531.662516 296.258519 
L 555.611967 296.258519 
L 555.611967 272.309068 
L 531.662516 272.309068 
z
" clip-path="url(#p36cf812e5f)" style="stroke: #000000; stroke-linejoin: miter"/>
   </g>
   <g id="patch_75">
    <path d="M 559.907678 296.155425 
L 583.650942 296.155425 
L 583.650942 272.412161 
L 559.907678 272.412161 
z
" clip-path="url(#p36cf812e5f)" style="stroke: #000000; stroke-linejoin: miter"/>
   </g>
   <g id="patch_76">
    <path d="M 588.164444 296.040729 
L 611.678315 296.040729 
L 611.678315 272.526858 
L 588.164444 272.526858 
z
" clip-path="url(#p36cf812e5f)" style="stroke: #000000; stroke-linejoin: miter"/>
   </g>
   <g id="patch_77">
    <path d="M 616.428163 295.919079 
L 639.698734 295.919079 
L 639.698734 272.648507 
L 616.428163 272.648507 
z
" clip-path="url(#p36cf812e5f)" style="stroke: #000000; stroke-linejoin: miter"/>
   </g>
   <g id="patch_78">
    <path d="M 644.706638 295.782673 
L 667.704397 295.782673 
L 667.704397 272.784913 
L 644.706638 272.784913 
z
" clip-path="url(#p36cf812e5f)" style="stroke: #000000; stroke-linejoin: miter"/>
   </g>
   <g id="patch_79">
    <path d="M 672.999594 295.631786 
L 695.695579 295.631786 
L 695.695579 272.9358 
L 672.999594 272.9358 
z
" clip-path="url(#p36cf812e5f)" style="stroke: #000000; stroke-linejoin: miter"/>
   </g>
   <g id="patch_80">
    <path d="M 701.304079 295.469369 
L 723.675231 295.469369 
L 723.675231 273.098217 
L 701.304079 273.098217 
z
" clip-path="url(#p36cf812e5f)" style="stroke: #000000; stroke-linejoin: miter"/>
   </g>
   <g id="patch_81">
    <path d="M 729.622362 295.293155 
L 751.641086 295.293155 
L 751.641086 273.274431 
L 729.622362 273.274431 
z
" clip-path="url(#p36cf812e5f)" style="stroke: #000000; stroke-linejoin: miter"/>
   </g>
   <g id="patch_82">
    <path d="M 757.967605 295.089981 
L 779.579981 295.089981 
L 779.579981 273.477605 
L 757.967605 273.477605 
z
" clip-path="url(#p36cf812e5f)" style="stroke: #000000; stroke-linejoin: miter"/>
   </g>
   <g id="patch_83">
    <path d="M 786.329512 294.870143 
L 807.502212 294.870143 
L 807.502212 273.697443 
L 786.329512 273.697443 
z
" clip-path="url(#p36cf812e5f)" style="stroke: #000000; stroke-linejoin: miter"/>
   </g>
   <g id="patch_84">
    <path d="M 52.558138 268.805655 
L 77.886 268.805655 
L 77.886 243.477793 
L 52.558138 243.477793 
z
" clip-path="url(#p36cf812e5f)" style="stroke: #000000; stroke-linejoin: miter"/>
   </g>
   <g id="patch_85">
    <path d="M 80.700207 268.805655 
L 106.028069 268.805655 
L 106.028069 243.477793 
L 80.700207 243.477793 
z
" clip-path="url(#p36cf812e5f)" style="stroke: #000000; stroke-linejoin: miter"/>
   </g>
   <g id="patch_86">
    <path d="M 108.842276 268.805655 
L 134.170138 268.805655 
L 134.170138 243.477793 
L 108.842276 243.477793 
z
" clip-path="url(#p36cf812e5f)" style="stroke: #000000; stroke-linejoin: miter"/>
   </g>
   <g id="patch_87">
    <path d="M 137.16791 268.62209 
L 162.128641 268.62209 
L 162.128641 243.661359 
L 137.16791 243.661359 
z
" clip-path="url(#p36cf812e5f)" style="stroke: #000000; stroke-linejoin: miter"/>
   </g>
   <g id="patch_88">
    <path d="M 165.689547 268.242522 
L 189.891143 268.242522 
L 189.891143 244.040926 
L 165.689547 244.040926 
z
" clip-path="url(#p36cf812e5f)" style="stroke: #000000; stroke-linejoin: miter"/>
   </g>
   <g id="patch_89">
    <path d="M 194.150347 267.923791 
L 217.71448 267.923791 
L 217.71448 244.359658 
L 194.150347 244.359658 
z
" clip-path="url(#p36cf812e5f)" style="stroke: #000000; stroke-linejoin: miter"/>
   </g>
   <g id="patch_90">
    <path d="M 222.580203 267.636004 
L 245.568762 267.636004 
L 245.568762 244.647445 
L 222.580203 244.647445 
z
" clip-path="url(#p36cf812e5f)" style="stroke: #000000; stroke-linejoin: miter"/>
   </g>
   <g id="patch_91">
    <path d="M 250.962681 267.395595 
L 273.470422 267.395595 
L 273.470422 244.887854 
L 250.962681 244.887854 
z
" clip-path="url(#p36cf812e5f)" style="stroke: #000000; stroke-linejoin: miter"/>
   </g>
   <g id="patch_92">
    <path d="M 279.303869 267.196476 
L 301.413372 267.196476 
L 301.413372 245.086973 
L 279.303869 245.086973 
z
" clip-path="url(#p36cf812e5f)" style="stroke: #000000; stroke-linejoin: miter"/>
   </g>
   <g id="patch_93">
    <path d="M 307.569654 267.07276 
L 329.431726 267.07276 
L 329.431726 245.210688 
L 307.569654 245.210688 
z
" clip-path="url(#p36cf812e5f)" style="stroke: #000000; stroke-linejoin: miter"/>
   </g>
   <g id="patch_94">
    <path d="M 335.849346 266.935137 
L 357.436172 266.935137 
L 357.436172 245.348311 
L 335.849346 245.348311 
z
" clip-path="url(#p36cf812e5f)" style="stroke: #000000; stroke-linejoin: miter"/>
   </g>
   <g id="patch_95">
    <path d="M 364.119011 266.807541 
L 385.450644 266.807541 
L 385.450644 245.475907 
L 364.119011 245.475907 
z
" clip-path="url(#p36cf812e5f)" style="stroke: #000000; stroke-linejoin: miter"/>
   </g>
   <g id="patch_96">
    <path d="M 392.381244 266.687376 
L 413.472549 266.687376 
L 413.472549 245.596072 
L 392.381244 245.596072 
z
" clip-path="url(#p36cf812e5f)" style="stroke: #000000; stroke-linejoin: miter"/>
   </g>
   <g id="patch_97">
    <path d="M 418.711319 268.49937 
L 443.426612 268.49937 
L 443.426612 243.784078 
L 418.711319 243.784078 
z
" clip-path="url(#p36cf812e5f)" style="stroke: #000000; stroke-linejoin: miter"/>
   </g>
   <g id="patch_98">
    <path d="M 448.162456 267.190303 
L 470.259613 267.190303 
L 470.259613 245.093145 
L 448.162456 245.093145 
z
" clip-path="url(#p36cf812e5f)" style="stroke: #000000; stroke-linejoin: miter"/>
   </g>
   <g id="patch_99">
    <path d="M 476.578343 266.916484 
L 498.127864 266.916484 
L 498.127864 245.366964 
L 476.578343 245.366964 
z
" clip-path="url(#p36cf812e5f)" style="stroke: #000000; stroke-linejoin: miter"/>
   </g>
   <g id="patch_100">
    <path d="M 504.830916 266.805981 
L 526.159429 266.805981 
L 526.159429 245.477467 
L 504.830916 245.477467 
z
" clip-path="url(#p36cf812e5f)" style="stroke: #000000; stroke-linejoin: miter"/>
   </g>
   <g id="patch_101">
    <path d="M 533.02906 266.749905 
L 554.245423 266.749905 
L 554.245423 245.533543 
L 533.02906 245.533543 
z
" clip-path="url(#p36cf812e5f)" style="stroke: #000000; stroke-linejoin: miter"/>
   </g>
   <g id="patch_102">
    <path d="M 561.211021 266.710014 
L 582.3476 266.710014 
L 582.3476 245.573435 
L 561.211021 245.573435 
z
" clip-path="url(#p36cf812e5f)" style="stroke: #000000; stroke-linejoin: miter"/>
   </g>
   <g id="patch_103">
    <path d="M 589.39846 266.664643 
L 610.444298 266.664643 
L 610.444298 245.618805 
L 589.39846 245.618805 
z
" clip-path="url(#p36cf812e5f)" style="stroke: #000000; stroke-linejoin: miter"/>
   </g>
   <g id="patch_104">
    <path d="M 617.594353 266.61082 
L 638.532544 266.61082 
L 638.532544 245.672628 
L 617.594353 245.672628 
z
" clip-path="url(#p36cf812e5f)" style="stroke: #000000; stroke-linejoin: miter"/>
   </g>
   <g id="patch_105">
    <path d="M 645.809279 266.537962 
L 666.601755 266.537962 
L 666.601755 245.745486 
L 645.809279 245.745486 
z
" clip-path="url(#p36cf812e5f)" style="stroke: #000000; stroke-linejoin: miter"/>
   </g>
   <g id="patch_106">
    <path d="M 674.035072 266.454238 
L 694.6601 266.454238 
L 694.6601 245.82921 
L 674.035072 245.82921 
z
" clip-path="url(#p36cf812e5f)" style="stroke: #000000; stroke-linejoin: miter"/>
   </g>
   <g id="patch_107">
    <path d="M 702.279552 266.351827 
L 722.699758 266.351827 
L 722.699758 245.931621 
L 702.279552 245.931621 
z
" clip-path="url(#p36cf812e5f)" style="stroke: #000000; stroke-linejoin: miter"/>
   </g>
   <g id="patch_108">
    <path d="M 730.542908 266.23054 
L 750.72054 266.23054 
L 750.72054 246.052908 
L 730.542908 246.052908 
z
" clip-path="url(#p36cf812e5f)" style="stroke: #000000; stroke-linejoin: miter"/>
   </g>
   <g id="patch_109">
    <path d="M 758.818844 266.096673 
L 778.728742 266.096673 
L 778.728742 246.186775 
L 758.818844 246.186775 
z
" clip-path="url(#p36cf812e5f)" style="stroke: #000000; stroke-linejoin: miter"/>
   </g>
   <g id="patch_110">
    <path d="M 787.112652 265.944934 
L 806.719072 265.944934 
L 806.719072 246.338514 
L 787.112652 246.338514 
z
" clip-path="url(#p36cf812e5f)" style="stroke: #000000; stroke-linejoin: miter"/>
   </g>
   <g id="patch_111">
    <path d="M 52.558138 240.663586 
L 77.886 240.663586 
L 77.886 215.335724 
L 52.558138 215.335724 
z
" clip-path="url(#p36cf812e5f)" style="stroke: #000000; stroke-linejoin: miter"/>
   </g>
   <g id="patch_112">
    <path d="M 80.700207 240.663586 
L 106.028069 240.663586 
L 106.028069 215.335724 
L 80.700207 215.335724 
z
" clip-path="url(#p36cf812e5f)" style="stroke: #000000; stroke-linejoin: miter"/>
   </g>
   <g id="patch_113">
    <path d="M 108.842276 240.663586 
L 134.170138 240.663586 
L 134.170138 215.335724 
L 108.842276 215.335724 
z
" clip-path="url(#p36cf812e5f)" style="stroke: #000000; stroke-linejoin: miter"/>
   </g>
   <g id="patch_114">
    <path d="M 137.097136 240.550795 
L 162.199416 240.550795 
L 162.199416 215.448515 
L 137.097136 215.448515 
z
" clip-path="url(#p36cf812e5f)" style="stroke: #000000; stroke-linejoin: miter"/>
   </g>
   <g id="patch_115">
    <path d="M 165.512111 240.277889 
L 190.068579 240.277889 
L 190.068579 215.721421 
L 165.512111 215.721421 
z
" clip-path="url(#p36cf812e5f)" style="stroke: #000000; stroke-linejoin: miter"/>
   </g>
   <g id="patch_116">
    <path d="M 193.798303 240.133766 
L 218.066525 240.133766 
L 218.066525 215.865544 
L 193.798303 215.865544 
z
" clip-path="url(#p36cf812e5f)" style="stroke: #000000; stroke-linejoin: miter"/>
   </g>
   <g id="patch_117">
    <path d="M 222.00895 240.065188 
L 246.140015 240.065188 
L 246.140015 215.934123 
L 222.00895 215.934123 
z
" clip-path="url(#p36cf812e5f)" style="stroke: #000000; stroke-linejoin: miter"/>
   </g>
   <g id="patch_118">
    <path d="M 250.217794 239.998413 
L 274.215309 239.998413 
L 274.215309 216.000897 
L 250.217794 216.000897 
z
" clip-path="url(#p36cf812e5f)" style="stroke: #000000; stroke-linejoin: miter"/>
   </g>
   <g id="patch_119">
    <path d="M 278.440012 239.918264 
L 302.27723 239.918264 
L 302.27723 216.081046 
L 278.440012 216.081046 
z
" clip-path="url(#p36cf812e5f)" style="stroke: #000000; stroke-linejoin: miter"/>
   </g>
   <g id="patch_120">
    <path d="M 306.663867 239.836478 
L 330.337512 239.836478 
L 330.337512 216.162833 
L 306.663867 216.162833 
z
" clip-path="url(#p36cf812e5f)" style="stroke: #000000; stroke-linejoin: miter"/>
   </g>
   <g id="patch_121">
    <path d="M 334.894173 239.748241 
L 358.391344 239.748241 
L 358.391344 216.25107 
L 334.894173 216.25107 
z
" clip-path="url(#p36cf812e5f)" style="stroke: #000000; stroke-linejoin: miter"/>
   </g>
   <g id="patch_122">
    <path d="M 363.11033 239.674153 
L 386.459325 239.674153 
L 386.459325 216.325158 
L 363.11033 216.325158 
z
" clip-path="url(#p36cf812e5f)" style="stroke: #000000; stroke-linejoin: miter"/>
   </g>
   <g id="patch_123">
    <path d="M 391.339408 239.587143 
L 414.514385 239.587143 
L 414.514385 216.412167 
L 391.339408 216.412167 
z
" clip-path="url(#p36cf812e5f)" style="stroke: #000000; stroke-linejoin: miter"/>
   </g>
   <g id="patch_124">
    <path d="M 418.82515 240.243471 
L 443.312781 240.243471 
L 443.312781 215.75584 
L 418.82515 215.75584 
z
" clip-path="url(#p36cf812e5f)" style="stroke: #000000; stroke-linejoin: miter"/>
   </g>
   <g id="patch_125">
    <path d="M 447.452684 239.758006 
L 470.969385 239.758006 
L 470.969385 216.241305 
L 447.452684 216.241305 
z
" clip-path="url(#p36cf812e5f)" style="stroke: #000000; stroke-linejoin: miter"/>
   </g>
   <g id="patch_126">
    <path d="M 475.713742 239.639017 
L 498.992465 239.639017 
L 498.992465 216.360293 
L 475.713742 216.360293 
z
" clip-path="url(#p36cf812e5f)" style="stroke: #000000; stroke-linejoin: miter"/>
   </g>
   <g id="patch_127">
    <path d="M 503.920995 239.573832 
L 527.06935 239.573832 
L 527.06935 216.425478 
L 503.920995 216.425478 
z
" clip-path="url(#p36cf812e5f)" style="stroke: #000000; stroke-linejoin: miter"/>
   </g>
   <g id="patch_128">
    <path d="M 532.098719 239.538178 
L 555.175764 239.538178 
L 555.175764 216.461133 
L 532.098719 216.461133 
z
" clip-path="url(#p36cf812e5f)" style="stroke: #000000; stroke-linejoin: miter"/>
   </g>
   <g id="patch_129">
    <path d="M 560.285001 239.493965 
L 583.27362 239.493965 
L 583.27362 216.505346 
L 560.285001 216.505346 
z
" clip-path="url(#p36cf812e5f)" style="stroke: #000000; stroke-linejoin: miter"/>
   </g>
   <g id="patch_130">
    <path d="M 588.486869 239.434166 
L 611.35589 239.434166 
L 611.35589 216.565145 
L 588.486869 216.565145 
z
" clip-path="url(#p36cf812e5f)" style="stroke: #000000; stroke-linejoin: miter"/>
   </g>
   <g id="patch_131">
    <path d="M 616.700323 239.36278 
L 639.426574 239.36278 
L 639.426574 216.63653 
L 616.700323 216.63653 
z
" clip-path="url(#p36cf812e5f)" style="stroke: #000000; stroke-linejoin: miter"/>
   </g>
   <g id="patch_132">
    <path d="M 644.935818 239.269354 
L 667.475217 239.269354 
L 667.475217 216.729956 
L 644.935818 216.729956 
z
" clip-path="url(#p36cf812e5f)" style="stroke: #000000; stroke-linejoin: miter"/>
   </g>
   <g id="patch_133">
    <path d="M 673.196255 239.150986 
L 695.498917 239.150986 
L 695.498917 216.848324 
L 673.196255 216.848324 
z
" clip-path="url(#p36cf812e5f)" style="stroke: #000000; stroke-linejoin: miter"/>
   </g>
   <g id="patch_134">
    <path d="M 701.470485 239.018825 
L 723.508825 239.018825 
L 723.508825 216.980485 
L 701.470485 216.980485 
z
" clip-path="url(#p36cf812e5f)" style="stroke: #000000; stroke-linejoin: miter"/>
   </g>
   <g id="patch_135">
    <path d="M 729.768414 238.862965 
L 751.495034 238.862965 
L 751.495034 217.136345 
L 729.768414 217.136345 
z
" clip-path="url(#p36cf812e5f)" style="stroke: #000000; stroke-linejoin: miter"/>
   </g>
   <g id="patch_136">
    <path d="M 758.090178 238.68327 
L 779.457408 238.68327 
L 779.457408 217.31604 
L 758.090178 217.31604 
z
" clip-path="url(#p36cf812e5f)" style="stroke: #000000; stroke-linejoin: miter"/>
   </g>
   <g id="patch_137">
    <path d="M 786.433679 238.481839 
L 807.398046 238.481839 
L 807.398046 217.517472 
L 786.433679 217.517472 
z
" clip-path="url(#p36cf812e5f)" style="stroke: #000000; stroke-linejoin: miter"/>
   </g>
   <g id="patch_138">
    <path d="M 52.558138 212.521517 
L 77.886 212.521517 
L 77.886 187.193655 
L 52.558138 187.193655 
z
" clip-path="url(#p36cf812e5f)" style="stroke: #000000; stroke-linejoin: miter"/>
   </g>
   <g id="patch_139">
    <path d="M 80.700207 212.521517 
L 106.028069 212.521517 
L 106.028069 187.193655 
L 80.700207 187.193655 
z
" clip-path="url(#p36cf812e5f)" style="stroke: #000000; stroke-linejoin: miter"/>
   </g>
   <g id="patch_140">
    <path d="M 108.842276 212.521517 
L 134.170138 212.521517 
L 134.170138 187.193655 
L 108.842276 187.193655 
z
" clip-path="url(#p36cf812e5f)" style="stroke: #000000; stroke-linejoin: miter"/>
   </g>
   <g id="patch_141">
    <path d="M 136.984345 212.521517 
L 162.312207 212.521517 
L 162.312207 187.193655 
L 136.984345 187.193655 
z
" clip-path="url(#p36cf812e5f)" style="stroke: #000000; stroke-linejoin: miter"/>
   </g>
   <g id="patch_142">
    <path d="M 165.130736 212.517195 
L 190.449954 212.517195 
L 190.449954 187.197977 
L 165.130736 187.197977 
z
" clip-path="url(#p36cf812e5f)" style="stroke: #000000; stroke-linejoin: miter"/>
   </g>
   <g id="patch_143">
    <path d="M 193.420645 212.369355 
L 218.444183 212.369355 
L 218.444183 187.345817 
L 193.420645 187.345817 
z
" clip-path="url(#p36cf812e5f)" style="stroke: #000000; stroke-linejoin: miter"/>
   </g>
   <g id="patch_144">
    <path d="M 221.686936 212.245133 
L 246.462029 212.245133 
L 246.462029 187.47004 
L 221.686936 187.47004 
z
" clip-path="url(#p36cf812e5f)" style="stroke: #000000; stroke-linejoin: miter"/>
   </g>
   <g id="patch_145">
    <path d="M 249.944682 212.129456 
L 274.488422 212.129456 
L 274.488422 187.585716 
L 249.944682 187.585716 
z
" clip-path="url(#p36cf812e5f)" style="stroke: #000000; stroke-linejoin: miter"/>
   </g>
   <g id="patch_146">
    <path d="M 278.19972 212.016487 
L 302.517521 212.016487 
L 302.517521 187.698686 
L 278.19972 187.698686 
z
" clip-path="url(#p36cf812e5f)" style="stroke: #000000; stroke-linejoin: miter"/>
   </g>
   <g id="patch_147">
    <path d="M 306.448293 211.909983 
L 330.553086 211.909983 
L 330.553086 187.80519 
L 306.448293 187.80519 
z
" clip-path="url(#p36cf812e5f)" style="stroke: #000000; stroke-linejoin: miter"/>
   </g>
   <g id="patch_148">
    <path d="M 334.703873 211.796472 
L 358.581644 211.796472 
L 358.581644 187.918701 
L 334.703873 187.918701 
z
" clip-path="url(#p36cf812e5f)" style="stroke: #000000; stroke-linejoin: miter"/>
   </g>
   <g id="patch_149">
    <path d="M 362.988985 211.653429 
L 386.58067 211.653429 
L 386.58067 188.061743 
L 362.988985 188.061743 
z
" clip-path="url(#p36cf812e5f)" style="stroke: #000000; stroke-linejoin: miter"/>
   </g>
   <g id="patch_150">
    <path d="M 391.294996 211.489487 
L 414.558797 211.489487 
L 414.558797 188.225686 
L 391.294996 188.225686 
z
" clip-path="url(#p36cf812e5f)" style="stroke: #000000; stroke-linejoin: miter"/>
   </g>
   <g id="patch_151">
    <path d="M 419.14156 211.784992 
L 442.996371 211.784992 
L 442.996371 187.930181 
L 419.14156 187.930181 
z
" clip-path="url(#p36cf812e5f)" style="stroke: #000000; stroke-linejoin: miter"/>
   </g>
   <g id="patch_152">
    <path d="M 447.45109 211.61753 
L 470.970978 211.61753 
L 470.970978 188.097642 
L 447.45109 188.097642 
z
" clip-path="url(#p36cf812e5f)" style="stroke: #000000; stroke-linejoin: miter"/>
   </g>
   <g id="patch_153">
    <path d="M 475.808925 211.401765 
L 498.897282 211.401765 
L 498.897282 188.313408 
L 475.808925 188.313408 
z
" clip-path="url(#p36cf812e5f)" style="stroke: #000000; stroke-linejoin: miter"/>
   </g>
   <g id="patch_154">
    <path d="M 504.097256 211.255502 
L 526.893089 211.255502 
L 526.893089 188.45967 
L 504.097256 188.45967 
z
" clip-path="url(#p36cf812e5f)" style="stroke: #000000; stroke-linejoin: miter"/>
   </g>
   <g id="patch_155">
    <path d="M 532.344746 211.150081 
L 554.929736 211.150081 
L 554.929736 188.565091 
L 532.344746 188.565091 
z
" clip-path="url(#p36cf812e5f)" style="stroke: #000000; stroke-linejoin: miter"/>
   </g>
   <g id="patch_156">
    <path d="M 560.587426 211.04947 
L 582.971194 211.04947 
L 582.971194 188.665702 
L 560.587426 188.665702 
z
" clip-path="url(#p36cf812e5f)" style="stroke: #000000; stroke-linejoin: miter"/>
   </g>
   <g id="patch_157">
    <path d="M 588.829208 210.949757 
L 611.01355 210.949757 
L 611.01355 188.765415 
L 588.829208 188.765415 
z
" clip-path="url(#p36cf812e5f)" style="stroke: #000000; stroke-linejoin: miter"/>
   </g>
   <g id="patch_158">
    <path d="M 617.082645 210.83839 
L 639.044252 210.83839 
L 639.044252 188.876783 
L 617.082645 188.876783 
z
" clip-path="url(#p36cf812e5f)" style="stroke: #000000; stroke-linejoin: miter"/>
   </g>
   <g id="patch_159">
    <path d="M 645.339507 210.723596 
L 667.071527 210.723596 
L 667.071527 188.991576 
L 645.339507 188.991576 
z
" clip-path="url(#p36cf812e5f)" style="stroke: #000000; stroke-linejoin: miter"/>
   </g>
   <g id="patch_160">
    <path d="M 673.596975 210.608198 
L 695.098198 210.608198 
L 695.098198 189.106975 
L 673.596975 189.106975 
z
" clip-path="url(#p36cf812e5f)" style="stroke: #000000; stroke-linejoin: miter"/>
   </g>
   <g id="patch_161">
    <path d="M 701.870291 210.476951 
L 723.10902 210.476951 
L 723.10902 189.238222 
L 701.870291 189.238222 
z
" clip-path="url(#p36cf812e5f)" style="stroke: #000000; stroke-linejoin: miter"/>
   </g>
   <g id="patch_162">
    <path d="M 730.150379 210.338931 
L 751.113069 210.338931 
L 751.113069 189.376241 
L 730.150379 189.376241 
z
" clip-path="url(#p36cf812e5f)" style="stroke: #000000; stroke-linejoin: miter"/>
   </g>
   <g id="patch_163">
    <path d="M 758.450457 210.180923 
L 779.09713 210.180923 
L 779.09713 189.53425 
L 758.450457 189.53425 
z
" clip-path="url(#p36cf812e5f)" style="stroke: #000000; stroke-linejoin: miter"/>
   </g>
   <g id="patch_164">
    <path d="M 786.783991 209.989458 
L 807.047734 209.989458 
L 807.047734 189.725715 
L 786.783991 189.725715 
z
" clip-path="url(#p36cf812e5f)" style="stroke: #000000; stroke-linejoin: miter"/>
   </g>
   <g id="patch_165">
    <path d="M 52.558138 184.379448 
L 77.886 184.379448 
L 77.886 159.051586 
L 52.558138 159.051586 
z
" clip-path="url(#p36cf812e5f)" style="stroke: #000000; stroke-linejoin: miter"/>
   </g>
   <g id="patch_166">
    <path d="M 80.700207 184.379448 
L 106.028069 184.379448 
L 106.028069 159.051586 
L 80.700207 159.051586 
z
" clip-path="url(#p36cf812e5f)" style="stroke: #000000; stroke-linejoin: miter"/>
   </g>
   <g id="patch_167">
    <path d="M 108.842276 184.379448 
L 134.170138 184.379448 
L 134.170138 159.051586 
L 108.842276 159.051586 
z
" clip-path="url(#p36cf812e5f)" style="stroke: #000000; stroke-linejoin: miter"/>
   </g>
   <g id="patch_168">
    <path d="M 136.984345 184.379448 
L 162.312207 184.379448 
L 162.312207 159.051586 
L 136.984345 159.051586 
z
" clip-path="url(#p36cf812e5f)" style="stroke: #000000; stroke-linejoin: miter"/>
   </g>
   <g id="patch_169">
    <path d="M 165.266582 184.23928 
L 190.314108 184.23928 
L 190.314108 159.191754 
L 165.266582 159.191754 
z
" clip-path="url(#p36cf812e5f)" style="stroke: #000000; stroke-linejoin: miter"/>
   </g>
   <g id="patch_170">
    <path d="M 193.568485 184.079446 
L 218.296343 184.079446 
L 218.296343 159.351588 
L 193.568485 159.351588 
z
" clip-path="url(#p36cf812e5f)" style="stroke: #000000; stroke-linejoin: miter"/>
   </g>
   <g id="patch_171">
    <path d="M 221.892494 183.897506 
L 246.256472 183.897506 
L 246.256472 159.533528 
L 221.892494 159.533528 
z
" clip-path="url(#p36cf812e5f)" style="stroke: #000000; stroke-linejoin: miter"/>
   </g>
   <g id="patch_172">
    <path d="M 250.188532 183.743537 
L 274.244572 183.743537 
L 274.244572 159.687497 
L 250.188532 159.687497 
z
" clip-path="url(#p36cf812e5f)" style="stroke: #000000; stroke-linejoin: miter"/>
   </g>
   <g id="patch_173">
    <path d="M 278.487521 183.586617 
L 302.229721 183.586617 
L 302.229721 159.844417 
L 278.487521 159.844417 
z
" clip-path="url(#p36cf812e5f)" style="stroke: #000000; stroke-linejoin: miter"/>
   </g>
   <g id="patch_174">
    <path d="M 306.764794 183.451413 
L 330.236586 183.451413 
L 330.236586 159.979621 
L 306.764794 159.979621 
z
" clip-path="url(#p36cf812e5f)" style="stroke: #000000; stroke-linejoin: miter"/>
   </g>
   <g id="patch_175">
    <path d="M 335.000295 183.35798 
L 358.285222 183.35798 
L 358.285222 160.073054 
L 335.000295 160.073054 
z
" clip-path="url(#p36cf812e5f)" style="stroke: #000000; stroke-linejoin: miter"/>
   </g>
   <g id="patch_176">
    <path d="M 363.226 183.274345 
L 386.343655 183.274345 
L 386.343655 160.15669 
L 363.226 160.15669 
z
" clip-path="url(#p36cf812e5f)" style="stroke: #000000; stroke-linejoin: miter"/>
   </g>
   <g id="patch_177">
    <path d="M 391.464294 183.17812 
L 414.389499 183.17812 
L 414.389499 160.252915 
L 391.464294 160.252915 
z
" clip-path="url(#p36cf812e5f)" style="stroke: #000000; stroke-linejoin: miter"/>
   </g>
   <g id="patch_178">
    <path d="M 419.360313 183.42417 
L 442.777618 183.42417 
L 442.777618 160.006865 
L 419.360313 160.006865 
z
" clip-path="url(#p36cf812e5f)" style="stroke: #000000; stroke-linejoin: miter"/>
   </g>
   <g id="patch_179">
    <path d="M 447.657971 183.268581 
L 470.764098 183.268581 
L 470.764098 160.162453 
L 447.657971 160.162453 
z
" clip-path="url(#p36cf812e5f)" style="stroke: #000000; stroke-linejoin: miter"/>
   </g>
   <g id="patch_180">
    <path d="M 475.965665 183.102956 
L 498.740542 183.102956 
L 498.740542 160.328079 
L 475.965665 160.328079 
z
" clip-path="url(#p36cf812e5f)" style="stroke: #000000; stroke-linejoin: miter"/>
   </g>
   <g id="patch_181">
    <path d="M 504.200966 183.009723 
L 526.789378 183.009723 
L 526.789378 160.421311 
L 504.200966 160.421311 
z
" clip-path="url(#p36cf812e5f)" style="stroke: #000000; stroke-linejoin: miter"/>
   </g>
   <g id="patch_182">
    <path d="M 532.454571 182.898187 
L 554.819911 182.898187 
L 554.819911 160.532847 
L 532.454571 160.532847 
z
" clip-path="url(#p36cf812e5f)" style="stroke: #000000; stroke-linejoin: miter"/>
   </g>
   <g id="patch_183">
    <path d="M 560.727637 182.767191 
L 582.830984 182.767191 
L 582.830984 160.663844 
L 560.727637 160.663844 
z
" clip-path="url(#p36cf812e5f)" style="stroke: #000000; stroke-linejoin: miter"/>
   </g>
   <g id="patch_184">
    <path d="M 589.027076 182.609821 
L 610.815683 182.609821 
L 610.815683 160.821214 
L 589.027076 160.821214 
z
" clip-path="url(#p36cf812e5f)" style="stroke: #000000; stroke-linejoin: miter"/>
   </g>
   <g id="patch_185">
    <path d="M 617.3699 182.409066 
L 638.756997 182.409066 
L 638.756997 161.021969 
L 617.3699 161.021969 
z
" clip-path="url(#p36cf812e5f)" style="stroke: #000000; stroke-linejoin: miter"/>
   </g>
   <g id="patch_186">
    <path d="M 645.733446 182.187589 
L 666.677589 182.187589 
L 666.677589 161.243446 
L 645.733446 161.243446 
z
" clip-path="url(#p36cf812e5f)" style="stroke: #000000; stroke-linejoin: miter"/>
   </g>
   <g id="patch_187">
    <path d="M 674.108709 181.954394 
L 694.586463 181.954394 
L 694.586463 161.47664 
L 674.108709 161.47664 
z
" clip-path="url(#p36cf812e5f)" style="stroke: #000000; stroke-linejoin: miter"/>
   </g>
   <g id="patch_188">
    <path d="M 702.477129 181.728044 
L 722.502182 181.728044 
L 722.502182 161.702991 
L 702.477129 161.702991 
z
" clip-path="url(#p36cf812e5f)" style="stroke: #000000; stroke-linejoin: miter"/>
   </g>
   <g id="patch_189">
    <path d="M 730.852182 181.49506 
L 750.411267 181.49506 
L 750.411267 161.935975 
L 730.852182 161.935975 
z
" clip-path="url(#p36cf812e5f)" style="stroke: #000000; stroke-linejoin: miter"/>
   </g>
   <g id="patch_190">
    <path d="M 759.23219 181.257121 
L 778.315397 181.257121 
L 778.315397 162.173914 
L 759.23219 162.173914 
z
" clip-path="url(#p36cf812e5f)" style="stroke: #000000; stroke-linejoin: miter"/>
   </g>
   <g id="patch_191">
    <path d="M 787.598142 181.033237 
L 806.233582 181.033237 
L 806.233582 162.397798 
L 787.598142 162.397798 
z
" clip-path="url(#p36cf812e5f)" style="stroke: #000000; stroke-linejoin: miter"/>
   </g>
   <g id="patch_192">
    <path d="M 52.558138 156.237379 
L 77.886 156.237379 
L 77.886 130.909517 
L 52.558138 130.909517 
z
" clip-path="url(#p36cf812e5f)" style="stroke: #000000; stroke-linejoin: miter"/>
   </g>
   <g id="patch_193">
    <path d="M 80.700207 156.237379 
L 106.028069 156.237379 
L 106.028069 130.909517 
L 80.700207 130.909517 
z
" clip-path="url(#p36cf812e5f)" style="stroke: #000000; stroke-linejoin: miter"/>
   </g>
   <g id="patch_194">
    <path d="M 108.842276 156.237379 
L 134.170138 156.237379 
L 134.170138 130.909517 
L 108.842276 130.909517 
z
" clip-path="url(#p36cf812e5f)" style="stroke: #000000; stroke-linejoin: miter"/>
   </g>
   <g id="patch_195">
    <path d="M 136.993342 156.228382 
L 162.30321 156.228382 
L 162.30321 130.918514 
L 136.993342 130.918514 
z
" clip-path="url(#p36cf812e5f)" style="stroke: #000000; stroke-linejoin: miter"/>
   </g>
   <g id="patch_196">
    <path d="M 165.198989 156.164804 
L 190.3817 156.164804 
L 190.3817 130.982093 
L 165.198989 130.982093 
z
" clip-path="url(#p36cf812e5f)" style="stroke: #000000; stroke-linejoin: miter"/>
   </g>
   <g id="patch_197">
    <path d="M 193.374098 156.131764 
L 218.49073 156.131764 
L 218.49073 131.015132 
L 193.374098 131.015132 
z
" clip-path="url(#p36cf812e5f)" style="stroke: #000000; stroke-linejoin: miter"/>
   </g>
   <g id="patch_198">
    <path d="M 221.546294 156.101637 
L 246.602672 156.101637 
L 246.602672 131.045259 
L 221.546294 131.045259 
z
" clip-path="url(#p36cf812e5f)" style="stroke: #000000; stroke-linejoin: miter"/>
   </g>
   <g id="patch_199">
    <path d="M 249.739449 156.050551 
L 274.693655 156.050551 
L 274.693655 131.096345 
L 249.739449 131.096345 
z
" clip-path="url(#p36cf812e5f)" style="stroke: #000000; stroke-linejoin: miter"/>
   </g>
   <g id="patch_200">
    <path d="M 277.951108 155.980961 
L 302.766133 155.980961 
L 302.766133 131.165936 
L 277.951108 131.165936 
z
" clip-path="url(#p36cf812e5f)" style="stroke: #000000; stroke-linejoin: miter"/>
   </g>
   <g id="patch_201">
    <path d="M 306.191687 155.882451 
L 330.809692 155.882451 
L 330.809692 131.264446 
L 306.191687 131.264446 
z
" clip-path="url(#p36cf812e5f)" style="stroke: #000000; stroke-linejoin: miter"/>
   </g>
   <g id="patch_202">
    <path d="M 334.461326 155.75488 
L 358.824191 155.75488 
L 358.824191 131.392016 
L 334.461326 131.392016 
z
" clip-path="url(#p36cf812e5f)" style="stroke: #000000; stroke-linejoin: miter"/>
   </g>
   <g id="patch_203">
    <path d="M 362.735563 155.622713 
L 386.834093 155.622713 
L 386.834093 131.524183 
L 362.735563 131.524183 
z
" clip-path="url(#p36cf812e5f)" style="stroke: #000000; stroke-linejoin: miter"/>
   </g>
   <g id="patch_204">
    <path d="M 391.048436 155.451909 
L 414.805357 155.451909 
L 414.805357 131.694988 
L 391.048436 131.694988 
z
" clip-path="url(#p36cf812e5f)" style="stroke: #000000; stroke-linejoin: miter"/>
   </g>
   <g id="patch_205">
    <path d="M 418.740278 155.902136 
L 443.397653 155.902136 
L 443.397653 131.244761 
L 418.740278 131.244761 
z
" clip-path="url(#p36cf812e5f)" style="stroke: #000000; stroke-linejoin: miter"/>
   </g>
   <g id="patch_206">
    <path d="M 447.337563 155.446919 
L 471.084506 155.446919 
L 471.084506 131.699977 
L 447.337563 131.699977 
z
" clip-path="url(#p36cf812e5f)" style="stroke: #000000; stroke-linejoin: miter"/>
   </g>
   <g id="patch_207">
    <path d="M 475.484748 155.441804 
L 499.221459 155.441804 
L 499.221459 131.705092 
L 475.484748 131.705092 
z
" clip-path="url(#p36cf812e5f)" style="stroke: #000000; stroke-linejoin: miter"/>
   </g>
   <g id="patch_208">
    <path d="M 503.793905 155.274716 
L 527.19644 155.274716 
L 527.19644 131.87218 
L 503.793905 131.87218 
z
" clip-path="url(#p36cf812e5f)" style="stroke: #000000; stroke-linejoin: miter"/>
   </g>
   <g id="patch_209">
    <path d="M 532.033077 155.177612 
L 555.241405 155.177612 
L 555.241405 131.969284 
L 532.033077 131.969284 
z
" clip-path="url(#p36cf812e5f)" style="stroke: #000000; stroke-linejoin: miter"/>
   </g>
   <g id="patch_210">
    <path d="M 560.26686 155.085899 
L 583.291761 155.085899 
L 583.291761 132.060998 
L 560.26686 132.060998 
z
" clip-path="url(#p36cf812e5f)" style="stroke: #000000; stroke-linejoin: miter"/>
   </g>
   <g id="patch_211">
    <path d="M 588.500042 154.994786 
L 611.342717 154.994786 
L 611.342717 132.152111 
L 588.500042 132.152111 
z
" clip-path="url(#p36cf812e5f)" style="stroke: #000000; stroke-linejoin: miter"/>
   </g>
   <g id="patch_212">
    <path d="M 616.74648 154.890417 
L 639.380417 154.890417 
L 639.380417 132.25648 
L 616.74648 132.25648 
z
" clip-path="url(#p36cf812e5f)" style="stroke: #000000; stroke-linejoin: miter"/>
   </g>
   <g id="patch_213">
    <path d="M 645.005197 154.773769 
L 667.405838 154.773769 
L 667.405838 132.373128 
L 645.005197 132.373128 
z
" clip-path="url(#p36cf812e5f)" style="stroke: #000000; stroke-linejoin: miter"/>
   </g>
   <g id="patch_214">
    <path d="M 673.281021 154.640014 
L 695.414152 154.640014 
L 695.414152 132.506883 
L 673.281021 132.506883 
z
" clip-path="url(#p36cf812e5f)" style="stroke: #000000; stroke-linejoin: miter"/>
   </g>
   <g id="patch_215">
    <path d="M 701.574251 154.488853 
L 723.405059 154.488853 
L 723.405059 132.658044 
L 701.574251 132.658044 
z
" clip-path="url(#p36cf812e5f)" style="stroke: #000000; stroke-linejoin: miter"/>
   </g>
   <g id="patch_216">
    <path d="M 729.896936 154.308236 
L 751.366512 154.308236 
L 751.366512 132.83866 
L 729.896936 132.83866 
z
" clip-path="url(#p36cf812e5f)" style="stroke: #000000; stroke-linejoin: miter"/>
   </g>
   <g id="patch_217">
    <path d="M 758.241045 154.106196 
L 779.306541 154.106196 
L 779.306541 133.0407 
L 758.241045 133.0407 
z
" clip-path="url(#p36cf812e5f)" style="stroke: #000000; stroke-linejoin: miter"/>
   </g>
   <g id="patch_218">
    <path d="M 786.612267 153.877043 
L 807.219457 153.877043 
L 807.219457 133.269853 
L 786.612267 133.269853 
z
" clip-path="url(#p36cf812e5f)" style="stroke: #000000; stroke-linejoin: miter"/>
   </g>
   <g id="patch_219">
    <path d="M 52.558138 128.09531 
L 77.886 128.09531 
L 77.886 102.767448 
L 52.558138 102.767448 
z
" clip-path="url(#p36cf812e5f)" style="stroke: #000000; stroke-linejoin: miter"/>
   </g>
   <g id="patch_220">
    <path d="M 82.790453 126.005064 
L 103.937823 126.005064 
L 103.937823 104.857695 
L 82.790453 104.857695 
z
" clip-path="url(#p36cf812e5f)" style="stroke: #000000; stroke-linejoin: miter"/>
   </g>
   <g id="patch_221">
    <path d="M 111.459915 125.477671 
L 131.552498 125.477671 
L 131.552498 105.385088 
L 111.459915 105.385088 
z
" clip-path="url(#p36cf812e5f)" style="stroke: #000000; stroke-linejoin: miter"/>
   </g>
   <g id="patch_222">
    <path d="M 139.995226 125.084429 
L 159.301326 125.084429 
L 159.301326 105.778329 
L 139.995226 105.778329 
z
" clip-path="url(#p36cf812e5f)" style="stroke: #000000; stroke-linejoin: miter"/>
   </g>
   <g id="patch_223">
    <path d="M 168.468142 124.753582 
L 187.112547 124.753582 
L 187.112547 106.109177 
L 168.468142 106.109177 
z
" clip-path="url(#p36cf812e5f)" style="stroke: #000000; stroke-linejoin: miter"/>
   </g>
   <g id="patch_224">
    <path d="M 196.928491 124.435302 
L 214.936337 124.435302 
L 214.936337 106.427456 
L 196.928491 106.427456 
z
" clip-path="url(#p36cf812e5f)" style="stroke: #000000; stroke-linejoin: miter"/>
   </g>
   <g id="patch_225">
    <path d="M 225.416878 124.088984 
L 242.732088 124.088984 
L 242.732088 106.773775 
L 225.416878 106.773775 
z
" clip-path="url(#p36cf812e5f)" style="stroke: #000000; stroke-linejoin: miter"/>
   </g>
   <g id="patch_226">
    <path d="M 253.894777 123.753154 
L 270.538326 123.753154 
L 270.538326 107.109605 
L 253.894777 107.109605 
z
" clip-path="url(#p36cf812e5f)" style="stroke: #000000; stroke-linejoin: miter"/>
   </g>
   <g id="patch_227">
    <path d="M 282.448917 123.341083 
L 298.268325 123.341083 
L 298.268325 107.521675 
L 282.448917 107.521675 
z
" clip-path="url(#p36cf812e5f)" style="stroke: #000000; stroke-linejoin: miter"/>
   </g>
   <g id="patch_228">
    <path d="M 310.963939 122.96813 
L 326.03744 122.96813 
L 326.03744 107.894629 
L 310.963939 107.894629 
z
" clip-path="url(#p36cf812e5f)" style="stroke: #000000; stroke-linejoin: miter"/>
   </g>
   <g id="patch_229">
    <path d="M 339.585005 122.489133 
L 353.700512 122.489133 
L 353.700512 108.373626 
L 339.585005 108.373626 
z
" clip-path="url(#p36cf812e5f)" style="stroke: #000000; stroke-linejoin: miter"/>
   </g>
   <g id="patch_230">
    <path d="M 368.195178 122.021029 
L 381.374477 122.021029 
L 381.374477 108.84173 
L 368.195178 108.84173 
z
" clip-path="url(#p36cf812e5f)" style="stroke: #000000; stroke-linejoin: miter"/>
   </g>
   <g id="patch_231">
    <path d="M 396.748315 121.609961 
L 409.105479 121.609961 
L 409.105479 109.252797 
L 396.748315 109.252797 
z
" clip-path="url(#p36cf812e5f)" style="stroke: #000000; stroke-linejoin: miter"/>
   </g>
   <g id="patch_232">
    <path d="M 418.405034 128.09531 
L 443.732897 128.09531 
L 443.732897 102.767448 
L 418.405034 102.767448 
z
" clip-path="url(#p36cf812e5f)" style="stroke: #000000; stroke-linejoin: miter"/>
   </g>
   <g id="patch_233">
    <path d="M 451.27862 123.363794 
L 467.143449 123.363794 
L 467.143449 107.498965 
L 451.27862 107.498965 
z
" clip-path="url(#p36cf812e5f)" style="stroke: #000000; stroke-linejoin: miter"/>
   </g>
   <g id="patch_234">
    <path d="M 480.782169 122.002313 
L 493.924038 122.002313 
L 493.924038 108.860445 
L 480.782169 108.860445 
z
" clip-path="url(#p36cf812e5f)" style="stroke: #000000; stroke-linejoin: miter"/>
   </g>
   <g id="patch_235">
    <path d="M 509.109779 121.816773 
L 521.880566 121.816773 
L 521.880566 109.045986 
L 509.109779 109.045986 
z
" clip-path="url(#p36cf812e5f)" style="stroke: #000000; stroke-linejoin: miter"/>
   </g>
   <g id="patch_236">
    <path d="M 537.428615 121.640006 
L 549.845868 121.640006 
L 549.845868 109.222753 
L 537.428615 109.222753 
z
" clip-path="url(#p36cf812e5f)" style="stroke: #000000; stroke-linejoin: miter"/>
   </g>
   <g id="patch_237">
    <path d="M 565.751076 121.459614 
L 577.807545 121.459614 
L 577.807545 109.403145 
L 565.751076 109.403145 
z
" clip-path="url(#p36cf812e5f)" style="stroke: #000000; stroke-linejoin: miter"/>
   </g>
   <g id="patch_238">
    <path d="M 594.089386 121.263373 
L 605.753373 121.263373 
L 605.753373 109.599386 
L 594.089386 109.599386 
z
" clip-path="url(#p36cf812e5f)" style="stroke: #000000; stroke-linejoin: miter"/>
   </g>
   <g id="patch_239">
    <path d="M 622.425745 121.069083 
L 633.701152 121.069083 
L 633.701152 109.793676 
L 622.425745 109.793676 
z
" clip-path="url(#p36cf812e5f)" style="stroke: #000000; stroke-linejoin: miter"/>
   </g>
   <g id="patch_240">
    <path d="M 650.746557 120.89034 
L 661.664477 120.89034 
L 661.664477 109.972419 
L 650.746557 109.972419 
z
" clip-path="url(#p36cf812e5f)" style="stroke: #000000; stroke-linejoin: miter"/>
   </g>
   <g id="patch_241">
    <path d="M 679.062924 120.716041 
L 689.632248 120.716041 
L 689.632248 110.146717 
L 679.062924 110.146717 
z
" clip-path="url(#p36cf812e5f)" style="stroke: #000000; stroke-linejoin: miter"/>
   </g>
   <g id="patch_242">
    <path d="M 707.371096 120.549938 
L 717.608214 120.549938 
L 717.608214 110.31282 
L 707.371096 110.31282 
z
" clip-path="url(#p36cf812e5f)" style="stroke: #000000; stroke-linejoin: miter"/>
   </g>
   <g id="patch_243">
    <path d="M 735.682826 120.380277 
L 745.580622 120.380277 
L 745.580622 110.482481 
L 735.682826 110.482481 
z
" clip-path="url(#p36cf812e5f)" style="stroke: #000000; stroke-linejoin: miter"/>
   </g>
   <g id="patch_244">
    <path d="M 763.997907 120.207266 
L 773.549679 120.207266 
L 773.549679 110.655493 
L 763.997907 110.655493 
z
" clip-path="url(#p36cf812e5f)" style="stroke: #000000; stroke-linejoin: miter"/>
   </g>
   <g id="patch_245">
    <path d="M 792.318611 120.028631 
L 801.513114 120.028631 
L 801.513114 110.834128 
L 792.318611 110.834128 
z
" clip-path="url(#p36cf812e5f)" style="stroke: #000000; stroke-linejoin: miter"/>
   </g>
   <g id="matplotlib.axis_1">
    <g id="xtick_1">
     <g id="line2d_1">
      <defs>
       <path id="mad5a7dbb1a" d="M 0 0 
L 0 3.5 
" style="stroke: #000000; stroke-width: 0.8"/>
      </defs>
      <g>
       <use xlink:href="#mad5a7dbb1a" x="65.222069" y="368.71" style="stroke: #000000; stroke-width: 0.8"/>
      </g>
     </g>
     <g id="text_1">
      <!-- 1 -->
      <g transform="translate(62.040819 389.808437) scale(0.1 -0.1)">
       <defs>
        <path id="DejaVuSans-31" d="M 794 531 
L 1825 531 
L 1825 4091 
L 703 3866 
L 703 4441 
L 1819 4666 
L 2450 4666 
L 2450 531 
L 3481 531 
L 3481 0 
L 794 0 
L 794 531 
z
" transform="scale(0.015625)"/>
       </defs>
       <use xlink:href="#DejaVuSans-31"/>
      </g>
     </g>
    </g>
    <g id="xtick_2">
     <g id="line2d_2">
      <g>
       <use xlink:href="#mad5a7dbb1a" x="796.915862" y="368.71" style="stroke: #000000; stroke-width: 0.8"/>
      </g>
     </g>
     <g id="text_2">
      <!-- 2000 -->
      <g transform="translate(784.190862 389.808437) scale(0.1 -0.1)">
       <defs>
        <path id="DejaVuSans-32" d="M 1228 531 
L 3431 531 
L 3431 0 
L 469 0 
L 469 531 
Q 828 903 1448 1529 
Q 2069 2156 2228 2338 
Q 2531 2678 2651 2914 
Q 2772 3150 2772 3378 
Q 2772 3750 2511 3984 
Q 2250 4219 1831 4219 
Q 1534 4219 1204 4116 
Q 875 4013 500 3803 
L 500 4441 
Q 881 4594 1212 4672 
Q 1544 4750 1819 4750 
Q 2544 4750 2975 4387 
Q 3406 4025 3406 3419 
Q 3406 3131 3298 2873 
Q 3191 2616 2906 2266 
Q 2828 2175 2409 1742 
Q 1991 1309 1228 531 
z
" transform="scale(0.015625)"/>
        <path id="DejaVuSans-30" d="M 2034 4250 
Q 1547 4250 1301 3770 
Q 1056 3291 1056 2328 
Q 1056 1369 1301 889 
Q 1547 409 2034 409 
Q 2525 409 2770 889 
Q 3016 1369 3016 2328 
Q 3016 3291 2770 3770 
Q 2525 4250 2034 4250 
z
M 2034 4750 
Q 2819 4750 3233 4129 
Q 3647 3509 3647 2328 
Q 3647 1150 3233 529 
Q 2819 -91 2034 -91 
Q 1250 -91 836 529 
Q 422 1150 422 2328 
Q 422 3509 836 4129 
Q 1250 4750 2034 4750 
z
" transform="scale(0.015625)"/>
       </defs>
       <use xlink:href="#DejaVuSans-32"/>
       <use xlink:href="#DejaVuSans-30" x="63.623047"/>
       <use xlink:href="#DejaVuSans-30" x="127.246094"/>
       <use xlink:href="#DejaVuSans-30" x="190.869141"/>
      </g>
     </g>
    </g>
    <g id="text_3">
     <!-- Epoch -->
     <g transform="translate(429.829062 403.486562) scale(0.1 -0.1)">
      <defs>
       <path id="DejaVuSans-45" d="M 628 4666 
L 3578 4666 
L 3578 4134 
L 1259 4134 
L 1259 2753 
L 3481 2753 
L 3481 2222 
L 1259 2222 
L 1259 531 
L 3634 531 
L 3634 0 
L 628 0 
L 628 4666 
z
" transform="scale(0.015625)"/>
       <path id="DejaVuSans-70" d="M 1159 525 
L 1159 -1331 
L 581 -1331 
L 581 3500 
L 1159 3500 
L 1159 2969 
Q 1341 3281 1617 3432 
Q 1894 3584 2278 3584 
Q 2916 3584 3314 3078 
Q 3713 2572 3713 1747 
Q 3713 922 3314 415 
Q 2916 -91 2278 -91 
Q 1894 -91 1617 61 
Q 1341 213 1159 525 
z
M 3116 1747 
Q 3116 2381 2855 2742 
Q 2594 3103 2138 3103 
Q 1681 3103 1420 2742 
Q 1159 2381 1159 1747 
Q 1159 1113 1420 752 
Q 1681 391 2138 391 
Q 2594 391 2855 752 
Q 3116 1113 3116 1747 
z
" transform="scale(0.015625)"/>
       <path id="DejaVuSans-6f" d="M 1959 3097 
Q 1497 3097 1228 2736 
Q 959 2375 959 1747 
Q 959 1119 1226 758 
Q 1494 397 1959 397 
Q 2419 397 2687 759 
Q 2956 1122 2956 1747 
Q 2956 2369 2687 2733 
Q 2419 3097 1959 3097 
z
M 1959 3584 
Q 2709 3584 3137 3096 
Q 3566 2609 3566 1747 
Q 3566 888 3137 398 
Q 2709 -91 1959 -91 
Q 1206 -91 779 398 
Q 353 888 353 1747 
Q 353 2609 779 3096 
Q 1206 3584 1959 3584 
z
" transform="scale(0.015625)"/>
       <path id="DejaVuSans-63" d="M 3122 3366 
L 3122 2828 
Q 2878 2963 2633 3030 
Q 2388 3097 2138 3097 
Q 1578 3097 1268 2742 
Q 959 2388 959 1747 
Q 959 1106 1268 751 
Q 1578 397 2138 397 
Q 2388 397 2633 464 
Q 2878 531 3122 666 
L 3122 134 
Q 2881 22 2623 -34 
Q 2366 -91 2075 -91 
Q 1284 -91 818 406 
Q 353 903 353 1747 
Q 353 2603 823 3093 
Q 1294 3584 2113 3584 
Q 2378 3584 2631 3529 
Q 2884 3475 3122 3366 
z
" transform="scale(0.015625)"/>
       <path id="DejaVuSans-68" d="M 3513 2113 
L 3513 0 
L 2938 0 
L 2938 2094 
Q 2938 2591 2744 2837 
Q 2550 3084 2163 3084 
Q 1697 3084 1428 2787 
Q 1159 2491 1159 1978 
L 1159 0 
L 581 0 
L 581 4863 
L 1159 4863 
L 1159 2956 
Q 1366 3272 1645 3428 
Q 1925 3584 2291 3584 
Q 2894 3584 3203 3211 
Q 3513 2838 3513 2113 
z
" transform="scale(0.015625)"/>
      </defs>
      <use xlink:href="#DejaVuSans-45"/>
      <use xlink:href="#DejaVuSans-70" x="63.183594"/>
      <use xlink:href="#DejaVuSans-6f" x="126.660156"/>
      <use xlink:href="#DejaVuSans-63" x="187.841797"/>
      <use xlink:href="#DejaVuSans-68" x="242.822266"/>
     </g>
    </g>
   </g>
   <g id="matplotlib.axis_2">
    <g id="ytick_1">
     <g id="line2d_3">
      <defs>
       <path id="m4731b5beef" d="M 0 0 
L -3.5 0 
" style="stroke: #000000; stroke-width: 0.8"/>
      </defs>
      <g>
       <use xlink:href="#m4731b5beef" x="37.08" y="340.567931" style="stroke: #000000; stroke-width: 0.8"/>
      </g>
     </g>
     <g id="text_4">
      <!-- 2 -->
      <g transform="translate(17.2175 344.36715) scale(0.1 -0.1)">
       <use xlink:href="#DejaVuSans-32"/>
      </g>
     </g>
    </g>
    <g id="ytick_2">
     <g id="line2d_4">
      <g>
       <use xlink:href="#m4731b5beef" x="37.08" y="312.425862" style="stroke: #000000; stroke-width: 0.8"/>
      </g>
     </g>
     <g id="text_5">
      <!-- 3 -->
      <g transform="translate(17.2175 316.225081) scale(0.1 -0.1)">
       <defs>
        <path id="DejaVuSans-33" d="M 2597 2516 
Q 3050 2419 3304 2112 
Q 3559 1806 3559 1356 
Q 3559 666 3084 287 
Q 2609 -91 1734 -91 
Q 1441 -91 1130 -33 
Q 819 25 488 141 
L 488 750 
Q 750 597 1062 519 
Q 1375 441 1716 441 
Q 2309 441 2620 675 
Q 2931 909 2931 1356 
Q 2931 1769 2642 2001 
Q 2353 2234 1838 2234 
L 1294 2234 
L 1294 2753 
L 1863 2753 
Q 2328 2753 2575 2939 
Q 2822 3125 2822 3475 
Q 2822 3834 2567 4026 
Q 2313 4219 1838 4219 
Q 1578 4219 1281 4162 
Q 984 4106 628 3988 
L 628 4550 
Q 988 4650 1302 4700 
Q 1616 4750 1894 4750 
Q 2613 4750 3031 4423 
Q 3450 4097 3450 3541 
Q 3450 3153 3228 2886 
Q 3006 2619 2597 2516 
z
" transform="scale(0.015625)"/>
       </defs>
       <use xlink:href="#DejaVuSans-33"/>
      </g>
     </g>
    </g>
    <g id="ytick_3">
     <g id="line2d_5">
      <g>
       <use xlink:href="#m4731b5beef" x="37.08" y="284.283793" style="stroke: #000000; stroke-width: 0.8"/>
      </g>
     </g>
     <g id="text_6">
      <!-- 5 -->
      <g transform="translate(17.2175 288.083012) scale(0.1 -0.1)">
       <defs>
        <path id="DejaVuSans-35" d="M 691 4666 
L 3169 4666 
L 3169 4134 
L 1269 4134 
L 1269 2991 
Q 1406 3038 1543 3061 
Q 1681 3084 1819 3084 
Q 2600 3084 3056 2656 
Q 3513 2228 3513 1497 
Q 3513 744 3044 326 
Q 2575 -91 1722 -91 
Q 1428 -91 1123 -41 
Q 819 9 494 109 
L 494 744 
Q 775 591 1075 516 
Q 1375 441 1709 441 
Q 2250 441 2565 725 
Q 2881 1009 2881 1497 
Q 2881 1984 2565 2268 
Q 2250 2553 1709 2553 
Q 1456 2553 1204 2497 
Q 953 2441 691 2322 
L 691 4666 
z
" transform="scale(0.015625)"/>
       </defs>
       <use xlink:href="#DejaVuSans-35"/>
      </g>
     </g>
    </g>
    <g id="ytick_4">
     <g id="line2d_6">
      <g>
       <use xlink:href="#m4731b5beef" x="37.08" y="256.141724" style="stroke: #000000; stroke-width: 0.8"/>
      </g>
     </g>
     <g id="text_7">
      <!-- 7 -->
      <g transform="translate(17.2175 259.940943) scale(0.1 -0.1)">
       <defs>
        <path id="DejaVuSans-37" d="M 525 4666 
L 3525 4666 
L 3525 4397 
L 1831 0 
L 1172 0 
L 2766 4134 
L 525 4134 
L 525 4666 
z
" transform="scale(0.015625)"/>
       </defs>
       <use xlink:href="#DejaVuSans-37"/>
      </g>
     </g>
    </g>
    <g id="ytick_5">
     <g id="line2d_7">
      <g>
       <use xlink:href="#m4731b5beef" x="37.08" y="227.999655" style="stroke: #000000; stroke-width: 0.8"/>
      </g>
     </g>
     <g id="text_8">
      <!-- 11 -->
      <g transform="translate(10.855 231.798874) scale(0.1 -0.1)">
       <use xlink:href="#DejaVuSans-31"/>
       <use xlink:href="#DejaVuSans-31" x="63.623047"/>
      </g>
     </g>
    </g>
    <g id="ytick_6">
     <g id="line2d_8">
      <g>
       <use xlink:href="#m4731b5beef" x="37.08" y="199.857586" style="stroke: #000000; stroke-width: 0.8"/>
      </g>
     </g>
     <g id="text_9">
      <!-- 13 -->
      <g transform="translate(10.855 203.656805) scale(0.1 -0.1)">
       <use xlink:href="#DejaVuSans-31"/>
       <use xlink:href="#DejaVuSans-33" x="63.623047"/>
      </g>
     </g>
    </g>
    <g id="ytick_7">
     <g id="line2d_9">
      <g>
       <use xlink:href="#m4731b5beef" x="37.08" y="171.715517" style="stroke: #000000; stroke-width: 0.8"/>
      </g>
     </g>
     <g id="text_10">
      <!-- 17 -->
      <g transform="translate(10.855 175.514736) scale(0.1 -0.1)">
       <use xlink:href="#DejaVuSans-31"/>
       <use xlink:href="#DejaVuSans-37" x="63.623047"/>
      </g>
     </g>
    </g>
    <g id="ytick_8">
     <g id="line2d_10">
      <g>
       <use xlink:href="#m4731b5beef" x="37.08" y="143.573448" style="stroke: #000000; stroke-width: 0.8"/>
      </g>
     </g>
     <g id="text_11">
      <!-- 19 -->
      <g transform="translate(10.855 147.372667) scale(0.1 -0.1)">
       <defs>
        <path id="DejaVuSans-39" d="M 703 97 
L 703 672 
Q 941 559 1184 500 
Q 1428 441 1663 441 
Q 2288 441 2617 861 
Q 2947 1281 2994 2138 
Q 2813 1869 2534 1725 
Q 2256 1581 1919 1581 
Q 1219 1581 811 2004 
Q 403 2428 403 3163 
Q 403 3881 828 4315 
Q 1253 4750 1959 4750 
Q 2769 4750 3195 4129 
Q 3622 3509 3622 2328 
Q 3622 1225 3098 567 
Q 2575 -91 1691 -91 
Q 1453 -91 1209 -44 
Q 966 3 703 97 
z
M 1959 2075 
Q 2384 2075 2632 2365 
Q 2881 2656 2881 3163 
Q 2881 3666 2632 3958 
Q 2384 4250 1959 4250 
Q 1534 4250 1286 3958 
Q 1038 3666 1038 3163 
Q 1038 2656 1286 2365 
Q 1534 2075 1959 2075 
z
" transform="scale(0.015625)"/>
       </defs>
       <use xlink:href="#DejaVuSans-31"/>
       <use xlink:href="#DejaVuSans-39" x="63.623047"/>
      </g>
     </g>
    </g>
    <g id="ytick_9">
     <g id="line2d_11">
      <g>
       <use xlink:href="#m4731b5beef" x="37.08" y="115.431379" style="stroke: #000000; stroke-width: 0.8"/>
      </g>
     </g>
     <g id="text_12">
      <!--  -->
      <g transform="translate(16.5675 119.230598) scale(0.1 -0.1)">
       <defs>
        <path id="DejaVuSans-2119" d="M 938 4353 
L 938 313 
L 1569 313 
L 1569 4353 
L 938 4353 
z
M 1881 4353 
L 1881 2284 
L 2825 2284 
Q 2900 2284 2972 2291 
L 2972 4347 
Q 2900 4353 2825 4353 
L 1881 4353 
z
M 625 4666 
L 2678 4666 
Q 3459 4666 3861 4323 
Q 4263 3981 4263 3322 
Q 4263 2656 3861 2315 
Q 3459 1975 2675 1975 
L 1881 1975 
L 1881 0 
L 625 0 
L 625 4666 
z
M 3300 4281 
L 3300 2359 
Q 3488 2428 3628 2556 
Q 3919 2825 3919 3322 
Q 3919 3816 3631 4084 
Q 3494 4213 3300 4281 
z
" transform="scale(0.015625)"/>
       </defs>
       <use xlink:href="#DejaVuSans-2119"/>
      </g>
     </g>
    </g>
   </g>
  </g>
 </g>
 <defs>
  <clipPath id="p36cf812e5f">
   <rect x="37.08" y="59.147241" width="816.12" height="309.562759"/>
  </clipPath>
 </defs>
</svg>
