<?xml version="1.0" encoding="utf-8" standalone="no"?>
<!DOCTYPE svg PUBLIC "-//W3C//DTD SVG 1.1//EN"
  "http://www.w3.org/Graphics/SVG/1.1/DTD/svg11.dtd">
<svg xmlns:xlink="http://www.w3.org/1999/xlink" width="864pt" height="432pt" viewBox="0 0 864 432" xmlns="http://www.w3.org/2000/svg" version="1.1">
 <metadata>
  <rdf:RDF xmlns:dc="http://purl.org/dc/elements/1.1/" xmlns:cc="http://creativecommons.org/ns#" xmlns:rdf="http://www.w3.org/1999/02/22-rdf-syntax-ns#">
   <cc:Work>
    <dc:type rdf:resource="http://purl.org/dc/dcmitype/StillImage"/>
    <dc:date>2024-09-16T17:53:37.056793</dc:date>
    <dc:format>image/svg+xml</dc:format>
    <dc:creator>
     <cc:Agent>
      <dc:title>Matplotlib v3.9.2, https://matplotlib.org/</dc:title>
     </cc:Agent>
    </dc:creator>
   </cc:Work>
  </rdf:RDF>
 </metadata>
 <defs>
  <style type="text/css">*{stroke-linejoin: round; stroke-linecap: butt}</style>
 </defs>
 <g id="figure_1">
  <g id="patch_1">
   <path d="M 0 432 
L 864 432 
L 864 0 
L 0 0 
z
" style="fill: #ffffff"/>
  </g>
  <g id="axes_1">
   <g id="patch_2">
    <path d="M 41.92 404.12 
L 853.2 404.12 
L 853.2 10.8 
L 41.92 10.8 
z
" style="fill: #ffffff"/>
   </g>
   <g id="matplotlib.axis_1">
    <g id="xtick_1">
     <g id="line2d_1">
      <defs>
       <path id="m83a8ff63f9" d="M 0 0 
L 0 3.5 
" style="stroke: #000000; stroke-width: 0.8"/>
      </defs>
      <g>
       <use xlink:href="#m83a8ff63f9" x="193.718753" y="404.12" style="stroke: #000000; stroke-width: 0.8"/>
      </g>
     </g>
     <g id="text_1">
      <!-- 100 -->
      <g transform="translate(184.688284 418.771563) scale(0.1 -0.1)">
       <defs>
        <path id="DejaVuSansMono-31" d="M 844 531 
L 1825 531 
L 1825 4097 
L 769 3859 
L 769 4434 
L 1819 4666 
L 2450 4666 
L 2450 531 
L 3419 531 
L 3419 0 
L 844 0 
L 844 531 
z
" transform="scale(0.015625)"/>
        <path id="DejaVuSansMono-30" d="M 1509 2344 
Q 1509 2516 1629 2641 
Q 1750 2766 1919 2766 
Q 2094 2766 2219 2641 
Q 2344 2516 2344 2344 
Q 2344 2169 2220 2047 
Q 2097 1925 1919 1925 
Q 1744 1925 1626 2044 
Q 1509 2163 1509 2344 
z
M 1925 4250 
Q 1484 4250 1267 3775 
Q 1050 3300 1050 2328 
Q 1050 1359 1267 884 
Q 1484 409 1925 409 
Q 2369 409 2586 884 
Q 2803 1359 2803 2328 
Q 2803 3300 2586 3775 
Q 2369 4250 1925 4250 
z
M 1925 4750 
Q 2672 4750 3055 4137 
Q 3438 3525 3438 2328 
Q 3438 1134 3055 521 
Q 2672 -91 1925 -91 
Q 1178 -91 797 521 
Q 416 1134 416 2328 
Q 416 3525 797 4137 
Q 1178 4750 1925 4750 
z
" transform="scale(0.015625)"/>
       </defs>
       <use xlink:href="#DejaVuSansMono-31"/>
       <use xlink:href="#DejaVuSansMono-30" x="60.205078"/>
       <use xlink:href="#DejaVuSansMono-30" x="120.410156"/>
      </g>
     </g>
    </g>
    <g id="xtick_2">
     <g id="line2d_2">
      <g>
       <use xlink:href="#m83a8ff63f9" x="362.384033" y="404.12" style="stroke: #000000; stroke-width: 0.8"/>
      </g>
     </g>
     <g id="text_2">
      <!-- 200 -->
      <g transform="translate(353.353565 418.771563) scale(0.1 -0.1)">
       <defs>
        <path id="DejaVuSansMono-32" d="M 1166 531 
L 3309 531 
L 3309 0 
L 475 0 
L 475 531 
Q 1059 1147 1496 1619 
Q 1934 2091 2100 2284 
Q 2413 2666 2522 2902 
Q 2631 3138 2631 3384 
Q 2631 3775 2401 3997 
Q 2172 4219 1772 4219 
Q 1488 4219 1175 4116 
Q 863 4013 513 3803 
L 513 4441 
Q 834 4594 1145 4672 
Q 1456 4750 1759 4750 
Q 2444 4750 2861 4386 
Q 3278 4022 3278 3431 
Q 3278 3131 3139 2831 
Q 3000 2531 2688 2169 
Q 2513 1966 2180 1606 
Q 1847 1247 1166 531 
z
" transform="scale(0.015625)"/>
       </defs>
       <use xlink:href="#DejaVuSansMono-32"/>
       <use xlink:href="#DejaVuSansMono-30" x="60.205078"/>
       <use xlink:href="#DejaVuSansMono-30" x="120.410156"/>
      </g>
     </g>
    </g>
    <g id="xtick_3">
     <g id="line2d_3">
      <g>
       <use xlink:href="#m83a8ff63f9" x="531.049314" y="404.12" style="stroke: #000000; stroke-width: 0.8"/>
      </g>
     </g>
     <g id="text_3">
      <!-- 300 -->
      <g transform="translate(522.018845 418.771563) scale(0.1 -0.1)">
       <defs>
        <path id="DejaVuSansMono-33" d="M 2425 2497 
Q 2884 2375 3128 2064 
Q 3372 1753 3372 1288 
Q 3372 644 2939 276 
Q 2506 -91 1741 -91 
Q 1419 -91 1084 -31 
Q 750 28 428 141 
L 428 769 
Q 747 603 1056 522 
Q 1366 441 1672 441 
Q 2191 441 2469 675 
Q 2747 909 2747 1350 
Q 2747 1756 2469 1995 
Q 2191 2234 1716 2234 
L 1234 2234 
L 1234 2753 
L 1716 2753 
Q 2150 2753 2394 2943 
Q 2638 3134 2638 3475 
Q 2638 3834 2411 4026 
Q 2184 4219 1766 4219 
Q 1488 4219 1191 4156 
Q 894 4094 569 3969 
L 569 4550 
Q 947 4650 1242 4700 
Q 1538 4750 1766 4750 
Q 2447 4750 2855 4408 
Q 3263 4066 3263 3500 
Q 3263 3116 3048 2859 
Q 2834 2603 2425 2497 
z
" transform="scale(0.015625)"/>
       </defs>
       <use xlink:href="#DejaVuSansMono-33"/>
       <use xlink:href="#DejaVuSansMono-30" x="60.205078"/>
       <use xlink:href="#DejaVuSansMono-30" x="120.410156"/>
      </g>
     </g>
    </g>
    <g id="xtick_4">
     <g id="line2d_4">
      <g>
       <use xlink:href="#m83a8ff63f9" x="699.714595" y="404.12" style="stroke: #000000; stroke-width: 0.8"/>
      </g>
     </g>
     <g id="text_4">
      <!-- 400 -->
      <g transform="translate(690.684126 418.771563) scale(0.1 -0.1)">
       <defs>
        <path id="DejaVuSansMono-34" d="M 2297 4091 
L 825 1625 
L 2297 1625 
L 2297 4091 
z
M 2194 4666 
L 2925 4666 
L 2925 1625 
L 3547 1625 
L 3547 1113 
L 2925 1113 
L 2925 0 
L 2297 0 
L 2297 1113 
L 319 1113 
L 319 1709 
L 2194 4666 
z
" transform="scale(0.015625)"/>
       </defs>
       <use xlink:href="#DejaVuSansMono-34"/>
       <use xlink:href="#DejaVuSansMono-30" x="60.205078"/>
       <use xlink:href="#DejaVuSansMono-30" x="120.410156"/>
      </g>
     </g>
    </g>
   </g>
   <g id="matplotlib.axis_2">
    <g id="ytick_1">
     <g id="line2d_5">
      <defs>
       <path id="mb03d734d23" d="M 0 0 
L -3.5 0 
" style="stroke: #000000; stroke-width: 0.8"/>
      </defs>
      <g>
       <use xlink:href="#mb03d734d23" x="41.92" y="390.61096" style="stroke: #000000; stroke-width: 0.8"/>
      </g>
     </g>
     <g id="text_5">
      <!-- 0.00 -->
      <g transform="translate(10.83875 394.436741) scale(0.1 -0.1)">
       <defs>
        <path id="DejaVuSansMono-2e" d="M 1528 953 
L 2316 953 
L 2316 0 
L 1528 0 
L 1528 953 
z
" transform="scale(0.015625)"/>
       </defs>
       <use xlink:href="#DejaVuSansMono-30"/>
       <use xlink:href="#DejaVuSansMono-2e" x="60.205078"/>
       <use xlink:href="#DejaVuSansMono-30" x="120.410156"/>
       <use xlink:href="#DejaVuSansMono-30" x="180.615234"/>
      </g>
     </g>
    </g>
    <g id="ytick_2">
     <g id="line2d_6">
      <g>
       <use xlink:href="#mb03d734d23" x="41.92" y="342.487602" style="stroke: #000000; stroke-width: 0.8"/>
      </g>
     </g>
     <g id="text_6">
      <!-- 0.02 -->
      <g transform="translate(10.83875 346.313383) scale(0.1 -0.1)">
       <use xlink:href="#DejaVuSansMono-30"/>
       <use xlink:href="#DejaVuSansMono-2e" x="60.205078"/>
       <use xlink:href="#DejaVuSansMono-30" x="120.410156"/>
       <use xlink:href="#DejaVuSansMono-32" x="180.615234"/>
      </g>
     </g>
    </g>
    <g id="ytick_3">
     <g id="line2d_7">
      <g>
       <use xlink:href="#mb03d734d23" x="41.92" y="294.364245" style="stroke: #000000; stroke-width: 0.8"/>
      </g>
     </g>
     <g id="text_7">
      <!-- 0.04 -->
      <g transform="translate(10.83875 298.190026) scale(0.1 -0.1)">
       <use xlink:href="#DejaVuSansMono-30"/>
       <use xlink:href="#DejaVuSansMono-2e" x="60.205078"/>
       <use xlink:href="#DejaVuSansMono-30" x="120.410156"/>
       <use xlink:href="#DejaVuSansMono-34" x="180.615234"/>
      </g>
     </g>
    </g>
    <g id="ytick_4">
     <g id="line2d_8">
      <g>
       <use xlink:href="#mb03d734d23" x="41.92" y="246.240887" style="stroke: #000000; stroke-width: 0.8"/>
      </g>
     </g>
     <g id="text_8">
      <!-- 0.06 -->
      <g transform="translate(10.83875 250.066668) scale(0.1 -0.1)">
       <defs>
        <path id="DejaVuSansMono-36" d="M 3097 4563 
L 3097 3981 
Q 2900 4097 2678 4158 
Q 2456 4219 2216 4219 
Q 1616 4219 1306 3767 
Q 997 3316 997 2438 
Q 1147 2750 1412 2917 
Q 1678 3084 2022 3084 
Q 2697 3084 3067 2670 
Q 3438 2256 3438 1497 
Q 3438 741 3056 325 
Q 2675 -91 1984 -91 
Q 1172 -91 794 492 
Q 416 1075 416 2328 
Q 416 3509 870 4129 
Q 1325 4750 2188 4750 
Q 2419 4750 2650 4701 
Q 2881 4653 3097 4563 
z
M 1972 2591 
Q 1569 2591 1337 2300 
Q 1106 2009 1106 1497 
Q 1106 984 1337 693 
Q 1569 403 1972 403 
Q 2391 403 2603 679 
Q 2816 956 2816 1497 
Q 2816 2041 2603 2316 
Q 2391 2591 1972 2591 
z
" transform="scale(0.015625)"/>
       </defs>
       <use xlink:href="#DejaVuSansMono-30"/>
       <use xlink:href="#DejaVuSansMono-2e" x="60.205078"/>
       <use xlink:href="#DejaVuSansMono-30" x="120.410156"/>
       <use xlink:href="#DejaVuSansMono-36" x="180.615234"/>
      </g>
     </g>
    </g>
    <g id="ytick_5">
     <g id="line2d_9">
      <g>
       <use xlink:href="#mb03d734d23" x="41.92" y="198.117529" style="stroke: #000000; stroke-width: 0.8"/>
      </g>
     </g>
     <g id="text_9">
      <!-- 0.08 -->
      <g transform="translate(10.83875 201.943311) scale(0.1 -0.1)">
       <defs>
        <path id="DejaVuSansMono-38" d="M 1925 2216 
Q 1503 2216 1273 1980 
Q 1044 1744 1044 1313 
Q 1044 881 1276 642 
Q 1509 403 1925 403 
Q 2350 403 2579 639 
Q 2809 875 2809 1313 
Q 2809 1741 2576 1978 
Q 2344 2216 1925 2216 
z
M 1375 2478 
Q 972 2581 745 2862 
Q 519 3144 519 3541 
Q 519 4097 897 4423 
Q 1275 4750 1925 4750 
Q 2578 4750 2956 4423 
Q 3334 4097 3334 3541 
Q 3334 3144 3107 2862 
Q 2881 2581 2478 2478 
Q 2947 2375 3195 2062 
Q 3444 1750 3444 1253 
Q 3444 622 3041 265 
Q 2638 -91 1925 -91 
Q 1213 -91 811 264 
Q 409 619 409 1247 
Q 409 1747 657 2061 
Q 906 2375 1375 2478 
z
M 1147 3481 
Q 1147 3106 1347 2909 
Q 1547 2713 1925 2713 
Q 2306 2713 2506 2909 
Q 2706 3106 2706 3481 
Q 2706 3863 2507 4063 
Q 2309 4263 1925 4263 
Q 1547 4263 1347 4061 
Q 1147 3859 1147 3481 
z
" transform="scale(0.015625)"/>
       </defs>
       <use xlink:href="#DejaVuSansMono-30"/>
       <use xlink:href="#DejaVuSansMono-2e" x="60.205078"/>
       <use xlink:href="#DejaVuSansMono-30" x="120.410156"/>
       <use xlink:href="#DejaVuSansMono-38" x="180.615234"/>
      </g>
     </g>
    </g>
    <g id="ytick_6">
     <g id="line2d_10">
      <g>
       <use xlink:href="#mb03d734d23" x="41.92" y="149.994172" style="stroke: #000000; stroke-width: 0.8"/>
      </g>
     </g>
     <g id="text_10">
      <!-- 0.10 -->
      <g transform="translate(10.83875 153.819953) scale(0.1 -0.1)">
       <use xlink:href="#DejaVuSansMono-30"/>
       <use xlink:href="#DejaVuSansMono-2e" x="60.205078"/>
       <use xlink:href="#DejaVuSansMono-31" x="120.410156"/>
       <use xlink:href="#DejaVuSansMono-30" x="180.615234"/>
      </g>
     </g>
    </g>
    <g id="ytick_7">
     <g id="line2d_11">
      <g>
       <use xlink:href="#mb03d734d23" x="41.92" y="101.870814" style="stroke: #000000; stroke-width: 0.8"/>
      </g>
     </g>
     <g id="text_11">
      <!-- 0.12 -->
      <g transform="translate(10.83875 105.696595) scale(0.1 -0.1)">
       <use xlink:href="#DejaVuSansMono-30"/>
       <use xlink:href="#DejaVuSansMono-2e" x="60.205078"/>
       <use xlink:href="#DejaVuSansMono-31" x="120.410156"/>
       <use xlink:href="#DejaVuSansMono-32" x="180.615234"/>
      </g>
     </g>
    </g>
    <g id="ytick_8">
     <g id="line2d_12">
      <g>
       <use xlink:href="#mb03d734d23" x="41.92" y="53.747456" style="stroke: #000000; stroke-width: 0.8"/>
      </g>
     </g>
     <g id="text_12">
      <!-- 0.14 -->
      <g transform="translate(10.83875 57.573238) scale(0.1 -0.1)">
       <use xlink:href="#DejaVuSansMono-30"/>
       <use xlink:href="#DejaVuSansMono-2e" x="60.205078"/>
       <use xlink:href="#DejaVuSansMono-31" x="120.410156"/>
       <use xlink:href="#DejaVuSansMono-34" x="180.615234"/>
      </g>
     </g>
    </g>
   </g>
   <g id="line2d_13">
    <path d="M 25.053472 28.678182 
L 26.740125 47.905519 
L 28.426778 65.801002 
L 30.11343 79.487552 
L 31.800083 87.814149 
L 33.486736 91.578408 
L 35.173389 92.322916 
L 36.860042 91.34907 
L 38.546694 89.463208 
L 40.233347 87.092906 
L 43.606653 81.705611 
L 46.979958 76.351029 
L 48.666611 73.968517 
L 50.353264 71.890616 
L 52.039917 70.167719 
L 53.72657 68.836796 
L 55.413222 67.919644 
L 57.099875 67.426054 
L 58.786528 67.35457 
L 60.473181 67.677295 
L 62.159834 68.344192 
L 63.846486 69.279587 
L 70.593098 73.758782 
L 72.279751 74.639047 
L 73.966403 75.347553 
L 77.339709 76.341948 
L 85.772973 78.09602 
L 89.146279 78.651094 
L 90.832931 78.77912 
L 92.519584 78.762118 
L 94.206237 78.585096 
L 97.579543 77.828838 
L 102.639501 76.422337 
L 104.326154 76.099541 
L 106.012807 75.913599 
L 107.699459 75.879117 
L 109.386112 75.992027 
L 112.759418 76.569212 
L 119.506029 78.073808 
L 122.879335 78.575451 
L 126.25264 78.864745 
L 131.312599 79.025654 
L 141.432516 79.245027 
L 146.492474 79.58745 
L 171.792266 82.33359 
L 180.22553 83.5346 
L 192.0321 85.466222 
L 197.092058 86.39996 
L 200.465364 87.4319 
L 205.525322 89.232999 
L 208.898628 90.698711 
L 212.271933 92.563461 
L 213.958586 93.771473 
L 215.645239 94.466001 
L 217.331892 96.58702 
L 219.018545 92.984172 
L 220.705198 97.094833 
L 222.39185 94.403537 
L 224.078503 90.530506 
L 227.451809 98.302316 
L 229.138462 97.220701 
L 230.825114 94.19812 
L 232.511767 97.62741 
L 234.19842 100.678123 
L 235.885073 106.305458 
L 237.571726 100.493871 
L 239.258378 107.028899 
L 240.945031 116.73645 
L 242.631684 115.503066 
L 244.318337 111.734494 
L 246.00499 118.417615 
L 247.691642 127.04164 
L 249.378295 124.973177 
L 251.064948 124.813525 
L 252.751601 131.244703 
L 254.438254 137.073518 
L 256.124906 138.249489 
L 257.811559 141.562089 
L 259.498212 143.648886 
L 261.184865 150.565825 
L 262.871518 154.524176 
L 264.55817 156.779316 
L 266.244823 162.23838 
L 267.931476 169.148933 
L 269.618129 170.184291 
L 271.304782 177.416468 
L 272.991435 179.52864 
L 274.678087 184.102801 
L 276.36474 175.405597 
L 278.051393 180.690951 
L 279.738046 184.340715 
L 281.424699 186.310417 
L 283.111351 179.004425 
L 284.798004 181.454171 
L 286.484657 187.458744 
L 288.17131 191.825985 
L 289.857963 191.879519 
L 291.544615 189.921394 
L 293.231268 210.41594 
L 294.917921 215.07241 
L 296.604574 218.546163 
L 298.291227 221.129645 
L 299.977879 234.465949 
L 301.664532 238.637683 
L 303.351185 241.32254 
L 305.037838 243.282887 
L 306.724491 254.810055 
L 308.411143 259.976812 
L 310.097796 260.940099 
L 313.471102 265.5149 
L 316.844407 279.156032 
L 318.53106 279.712223 
L 320.217713 282.376424 
L 321.904366 285.654885 
L 323.591019 287.754186 
L 325.277672 292.233436 
L 326.964324 295.447311 
L 328.650977 296.90047 
L 330.33763 299.299247 
L 332.024283 301.376153 
L 333.710936 303.651976 
L 335.397588 306.251201 
L 337.084241 307.730693 
L 340.457547 312.026042 
L 342.1442 313.131646 
L 343.830852 315.069881 
L 345.517505 316.799965 
L 347.204158 319.097241 
L 348.890811 318.398525 
L 350.577464 321.057232 
L 352.264116 314.036841 
L 353.950769 316.786759 
L 355.637422 318.734493 
L 357.324075 317.588103 
L 359.010728 316.695728 
L 360.69738 318.343771 
L 362.384033 320.407258 
L 364.070686 320.256963 
L 365.757339 321.099635 
L 367.443992 321.053054 
L 369.130644 332.006806 
L 370.817297 331.627683 
L 372.50395 330.003068 
L 374.190603 332.25581 
L 375.877256 335.991028 
L 377.563909 337.139041 
L 379.250561 336.091095 
L 380.937214 335.52357 
L 382.623867 338.655027 
L 384.31052 339.478897 
L 387.683825 339.415569 
L 389.370478 340.102678 
L 391.057131 341.974048 
L 392.743784 342.354213 
L 394.430437 341.840886 
L 396.117089 342.840749 
L 397.803742 344.53399 
L 399.490395 345.217728 
L 401.177048 345.46715 
L 402.863701 344.813977 
L 404.550353 345.901988 
L 406.237006 347.723498 
L 407.923659 347.97797 
L 411.296965 348.056119 
L 414.67027 350.597627 
L 416.356923 350.385376 
L 418.043576 350.518158 
L 419.730229 351.67783 
L 421.416881 352.602994 
L 423.103534 352.968004 
L 424.790187 352.817552 
L 426.47684 353.582973 
L 428.163493 354.736867 
L 431.536798 355.114421 
L 433.223451 355.633394 
L 434.910104 356.383359 
L 436.596757 356.882571 
L 438.28341 356.917118 
L 439.970062 357.414046 
L 441.656715 358.057831 
L 445.030021 358.596787 
L 450.089979 359.931503 
L 451.776632 360.110129 
L 456.83659 361.404288 
L 460.209896 362.062566 
L 461.896549 362.584718 
L 463.583202 362.906289 
L 465.269854 363.038602 
L 468.64316 363.772304 
L 472.016466 364.342909 
L 473.703119 364.629444 
L 475.389771 365.056844 
L 477.076424 365.238929 
L 483.823035 366.449675 
L 485.509688 366.663679 
L 487.196341 367.036895 
L 490.569647 367.499401 
L 495.629605 368.311993 
L 497.316258 368.440193 
L 499.002911 368.794118 
L 504.062869 369.421284 
L 519.242744 371.382819 
L 529.362661 372.571121 
L 534.42262 373.079215 
L 541.169231 373.80475 
L 552.9758 374.982865 
L 585.022204 377.582696 
L 586.708857 377.598601 
L 588.395509 377.819112 
L 590.082162 377.841267 
L 591.768815 378.040645 
L 595.142121 378.240996 
L 601.888732 378.609257 
L 603.575385 378.826353 
L 605.262037 378.793563 
L 606.94869 379.031322 
L 608.635343 378.995579 
L 610.321996 379.205164 
L 612.008649 379.213737 
L 615.381954 379.445157 
L 620.441913 379.66622 
L 622.128565 379.85807 
L 623.815218 379.841579 
L 625.501871 380.036463 
L 627.188524 380.038536 
L 630.56183 380.239938 
L 664.294886 381.780955 
L 669.354844 381.936033 
L 672.72815 382.070897 
L 679.474761 382.350559 
L 687.908025 382.627744 
L 694.654636 382.883563 
L 704.774553 383.208648 
L 767.180707 384.795741 
L 784.047235 385.131266 
L 809.347027 385.590625 
L 832.960166 385.970736 
L 851.513347 386.241818 
L 851.513347 386.241818 
" clip-path="url(#pd150e34fd9)" style="fill: none; stroke-dasharray: 7.4,3.2; stroke-dashoffset: 0; stroke: #000000; stroke-width: 2"/>
   </g>
   <g id="patch_3">
    <path d="M 41.92 404.12 
L 41.92 10.8 
" style="fill: none; stroke: #000000; stroke-width: 0.8; stroke-linejoin: miter; stroke-linecap: square"/>
   </g>
   <g id="patch_4">
    <path d="M 853.2 404.12 
L 853.2 10.8 
" style="fill: none; stroke: #000000; stroke-width: 0.8; stroke-linejoin: miter; stroke-linecap: square"/>
   </g>
   <g id="patch_5">
    <path d="M 41.92 404.12 
L 853.2 404.12 
" style="fill: none; stroke: #000000; stroke-width: 0.8; stroke-linejoin: miter; stroke-linecap: square"/>
   </g>
   <g id="patch_6">
    <path d="M 41.92 10.8 
L 853.2 10.8 
" style="fill: none; stroke: #000000; stroke-width: 0.8; stroke-linejoin: miter; stroke-linecap: square"/>
   </g>
  </g>
 </g>
 <defs>
  <clipPath id="pd150e34fd9">
   <rect x="41.92" y="10.8" width="811.28" height="393.32"/>
  </clipPath>
 </defs>
</svg>
