<?xml version="1.0" encoding="utf-8" standalone="no"?>
<!DOCTYPE svg PUBLIC "-//W3C//DTD SVG 1.1//EN"
  "http://www.w3.org/Graphics/SVG/1.1/DTD/svg11.dtd">
<svg xmlns:xlink="http://www.w3.org/1999/xlink" width="864pt" height="432pt" viewBox="0 0 864 432" xmlns="http://www.w3.org/2000/svg" version="1.1">
 <metadata>
  <rdf:RDF xmlns:dc="http://purl.org/dc/elements/1.1/" xmlns:cc="http://creativecommons.org/ns#" xmlns:rdf="http://www.w3.org/1999/02/22-rdf-syntax-ns#">
   <cc:Work>
    <dc:type rdf:resource="http://purl.org/dc/dcmitype/StillImage"/>
    <dc:date>2024-09-18T22:46:53.185710</dc:date>
    <dc:format>image/svg+xml</dc:format>
    <dc:creator>
     <cc:Agent>
      <dc:title>Matplotlib v3.9.2, https://matplotlib.org/</dc:title>
     </cc:Agent>
    </dc:creator>
   </cc:Work>
  </rdf:RDF>
 </metadata>
 <defs>
  <style type="text/css">*{stroke-linejoin: round; stroke-linecap: butt}</style>
 </defs>
 <g id="figure_1">
  <g id="patch_1">
   <path d="M 0 432 
L 864 432 
L 864 0 
L 0 0 
z
" style="fill: #ffffff"/>
  </g>
  <g id="axes_1">
   <g id="patch_2">
    <path d="M 35.89 404.12 
L 853.2 404.12 
L 853.2 10.8 
L 35.89 10.8 
z
" style="fill: #ffffff"/>
   </g>
   <g id="matplotlib.axis_1">
    <g id="xtick_1">
     <g id="line2d_1">
      <defs>
       <path id="me0180c80df" d="M 0 0 
L 0 3.5 
" style="stroke: #000000; stroke-width: 0.8"/>
      </defs>
      <g>
       <use xlink:href="#me0180c80df" x="134.90787" y="404.12" style="stroke: #000000; stroke-width: 0.8"/>
      </g>
     </g>
     <g id="text_1">
      <!-- 250 -->
      <g transform="translate(125.877401 418.771563) scale(0.1 -0.1)">
       <defs>
        <path id="DejaVuSansMono-32" d="M 1166 531 
L 3309 531 
L 3309 0 
L 475 0 
L 475 531 
Q 1059 1147 1496 1619 
Q 1934 2091 2100 2284 
Q 2413 2666 2522 2902 
Q 2631 3138 2631 3384 
Q 2631 3775 2401 3997 
Q 2172 4219 1772 4219 
Q 1488 4219 1175 4116 
Q 863 4013 513 3803 
L 513 4441 
Q 834 4594 1145 4672 
Q 1456 4750 1759 4750 
Q 2444 4750 2861 4386 
Q 3278 4022 3278 3431 
Q 3278 3131 3139 2831 
Q 3000 2531 2688 2169 
Q 2513 1966 2180 1606 
Q 1847 1247 1166 531 
z
" transform="scale(0.015625)"/>
        <path id="DejaVuSansMono-35" d="M 647 4666 
L 3009 4666 
L 3009 4134 
L 1222 4134 
L 1222 2988 
Q 1356 3038 1492 3061 
Q 1628 3084 1766 3084 
Q 2491 3084 2916 2656 
Q 3341 2228 3341 1497 
Q 3341 759 2895 334 
Q 2450 -91 1678 -91 
Q 1306 -91 998 -41 
Q 691 9 447 109 
L 447 750 
Q 734 594 1025 517 
Q 1316 441 1619 441 
Q 2141 441 2423 716 
Q 2706 991 2706 1497 
Q 2706 1997 2414 2275 
Q 2122 2553 1600 2553 
Q 1347 2553 1106 2495 
Q 866 2438 647 2322 
L 647 4666 
z
" transform="scale(0.015625)"/>
        <path id="DejaVuSansMono-30" d="M 1509 2344 
Q 1509 2516 1629 2641 
Q 1750 2766 1919 2766 
Q 2094 2766 2219 2641 
Q 2344 2516 2344 2344 
Q 2344 2169 2220 2047 
Q 2097 1925 1919 1925 
Q 1744 1925 1626 2044 
Q 1509 2163 1509 2344 
z
M 1925 4250 
Q 1484 4250 1267 3775 
Q 1050 3300 1050 2328 
Q 1050 1359 1267 884 
Q 1484 409 1925 409 
Q 2369 409 2586 884 
Q 2803 1359 2803 2328 
Q 2803 3300 2586 3775 
Q 2369 4250 1925 4250 
z
M 1925 4750 
Q 2672 4750 3055 4137 
Q 3438 3525 3438 2328 
Q 3438 1134 3055 521 
Q 2672 -91 1925 -91 
Q 1178 -91 797 521 
Q 416 1134 416 2328 
Q 416 3525 797 4137 
Q 1178 4750 1925 4750 
z
" transform="scale(0.015625)"/>
       </defs>
       <use xlink:href="#DejaVuSansMono-32"/>
       <use xlink:href="#DejaVuSansMono-35" x="60.205078"/>
       <use xlink:href="#DejaVuSansMono-30" x="120.410156"/>
      </g>
     </g>
    </g>
    <g id="xtick_2">
     <g id="line2d_2">
      <g>
       <use xlink:href="#me0180c80df" x="238.051484" y="404.12" style="stroke: #000000; stroke-width: 0.8"/>
      </g>
     </g>
     <g id="text_2">
      <!-- 500 -->
      <g transform="translate(229.021015 418.771563) scale(0.1 -0.1)">
       <use xlink:href="#DejaVuSansMono-35"/>
       <use xlink:href="#DejaVuSansMono-30" x="60.205078"/>
       <use xlink:href="#DejaVuSansMono-30" x="120.410156"/>
      </g>
     </g>
    </g>
    <g id="xtick_3">
     <g id="line2d_3">
      <g>
       <use xlink:href="#me0180c80df" x="341.195098" y="404.12" style="stroke: #000000; stroke-width: 0.8"/>
      </g>
     </g>
     <g id="text_3">
      <!-- 750 -->
      <g transform="translate(332.16463 418.771563) scale(0.1 -0.1)">
       <defs>
        <path id="DejaVuSansMono-37" d="M 434 4666 
L 3372 4666 
L 3372 4397 
L 1703 0 
L 1044 0 
L 2669 4134 
L 434 4134 
L 434 4666 
z
" transform="scale(0.015625)"/>
       </defs>
       <use xlink:href="#DejaVuSansMono-37"/>
       <use xlink:href="#DejaVuSansMono-35" x="60.205078"/>
       <use xlink:href="#DejaVuSansMono-30" x="120.410156"/>
      </g>
     </g>
    </g>
    <g id="xtick_4">
     <g id="line2d_4">
      <g>
       <use xlink:href="#me0180c80df" x="444.338713" y="404.12" style="stroke: #000000; stroke-width: 0.8"/>
      </g>
     </g>
     <g id="text_4">
      <!-- 1000 -->
      <g transform="translate(432.298088 418.771563) scale(0.1 -0.1)">
       <defs>
        <path id="DejaVuSansMono-31" d="M 844 531 
L 1825 531 
L 1825 4097 
L 769 3859 
L 769 4434 
L 1819 4666 
L 2450 4666 
L 2450 531 
L 3419 531 
L 3419 0 
L 844 0 
L 844 531 
z
" transform="scale(0.015625)"/>
       </defs>
       <use xlink:href="#DejaVuSansMono-31"/>
       <use xlink:href="#DejaVuSansMono-30" x="60.205078"/>
       <use xlink:href="#DejaVuSansMono-30" x="120.410156"/>
       <use xlink:href="#DejaVuSansMono-30" x="180.615234"/>
      </g>
     </g>
    </g>
    <g id="xtick_5">
     <g id="line2d_5">
      <g>
       <use xlink:href="#me0180c80df" x="547.482327" y="404.12" style="stroke: #000000; stroke-width: 0.8"/>
      </g>
     </g>
     <g id="text_5">
      <!-- 1250 -->
      <g transform="translate(535.441702 418.771563) scale(0.1 -0.1)">
       <use xlink:href="#DejaVuSansMono-31"/>
       <use xlink:href="#DejaVuSansMono-32" x="60.205078"/>
       <use xlink:href="#DejaVuSansMono-35" x="120.410156"/>
       <use xlink:href="#DejaVuSansMono-30" x="180.615234"/>
      </g>
     </g>
    </g>
    <g id="xtick_6">
     <g id="line2d_6">
      <g>
       <use xlink:href="#me0180c80df" x="650.625941" y="404.12" style="stroke: #000000; stroke-width: 0.8"/>
      </g>
     </g>
     <g id="text_6">
      <!-- 1500 -->
      <g transform="translate(638.585316 418.771563) scale(0.1 -0.1)">
       <use xlink:href="#DejaVuSansMono-31"/>
       <use xlink:href="#DejaVuSansMono-35" x="60.205078"/>
       <use xlink:href="#DejaVuSansMono-30" x="120.410156"/>
       <use xlink:href="#DejaVuSansMono-30" x="180.615234"/>
      </g>
     </g>
    </g>
    <g id="xtick_7">
     <g id="line2d_7">
      <g>
       <use xlink:href="#me0180c80df" x="753.769556" y="404.12" style="stroke: #000000; stroke-width: 0.8"/>
      </g>
     </g>
     <g id="text_7">
      <!-- 1750 -->
      <g transform="translate(741.728931 418.771563) scale(0.1 -0.1)">
       <use xlink:href="#DejaVuSansMono-31"/>
       <use xlink:href="#DejaVuSansMono-37" x="60.205078"/>
       <use xlink:href="#DejaVuSansMono-35" x="120.410156"/>
       <use xlink:href="#DejaVuSansMono-30" x="180.615234"/>
      </g>
     </g>
    </g>
   </g>
   <g id="matplotlib.axis_2">
    <g id="ytick_1">
     <g id="line2d_8">
      <defs>
       <path id="m01c0d94903" d="M 0 0 
L -3.5 0 
" style="stroke: #000000; stroke-width: 0.8"/>
      </defs>
      <g>
       <use xlink:href="#m01c0d94903" x="35.89" y="388.15905" style="stroke: #000000; stroke-width: 0.8"/>
      </g>
     </g>
     <g id="text_8">
      <!-- 0.0 -->
      <g transform="translate(10.829063 391.984831) scale(0.1 -0.1)">
       <defs>
        <path id="DejaVuSansMono-2e" d="M 1528 953 
L 2316 953 
L 2316 0 
L 1528 0 
L 1528 953 
z
" transform="scale(0.015625)"/>
       </defs>
       <use xlink:href="#DejaVuSansMono-30"/>
       <use xlink:href="#DejaVuSansMono-2e" x="60.205078"/>
       <use xlink:href="#DejaVuSansMono-30" x="120.410156"/>
      </g>
     </g>
    </g>
    <g id="ytick_2">
     <g id="line2d_9">
      <g>
       <use xlink:href="#m01c0d94903" x="35.89" y="316.262876" style="stroke: #000000; stroke-width: 0.8"/>
      </g>
     </g>
     <g id="text_9">
      <!-- 0.2 -->
      <g transform="translate(10.829063 320.088657) scale(0.1 -0.1)">
       <use xlink:href="#DejaVuSansMono-30"/>
       <use xlink:href="#DejaVuSansMono-2e" x="60.205078"/>
       <use xlink:href="#DejaVuSansMono-32" x="120.410156"/>
      </g>
     </g>
    </g>
    <g id="ytick_3">
     <g id="line2d_10">
      <g>
       <use xlink:href="#m01c0d94903" x="35.89" y="244.366702" style="stroke: #000000; stroke-width: 0.8"/>
      </g>
     </g>
     <g id="text_10">
      <!-- 0.4 -->
      <g transform="translate(10.829063 248.192484) scale(0.1 -0.1)">
       <defs>
        <path id="DejaVuSansMono-34" d="M 2297 4091 
L 825 1625 
L 2297 1625 
L 2297 4091 
z
M 2194 4666 
L 2925 4666 
L 2925 1625 
L 3547 1625 
L 3547 1113 
L 2925 1113 
L 2925 0 
L 2297 0 
L 2297 1113 
L 319 1113 
L 319 1709 
L 2194 4666 
z
" transform="scale(0.015625)"/>
       </defs>
       <use xlink:href="#DejaVuSansMono-30"/>
       <use xlink:href="#DejaVuSansMono-2e" x="60.205078"/>
       <use xlink:href="#DejaVuSansMono-34" x="120.410156"/>
      </g>
     </g>
    </g>
    <g id="ytick_4">
     <g id="line2d_11">
      <g>
       <use xlink:href="#m01c0d94903" x="35.89" y="172.470529" style="stroke: #000000; stroke-width: 0.8"/>
      </g>
     </g>
     <g id="text_11">
      <!-- 0.6 -->
      <g transform="translate(10.829063 176.29631) scale(0.1 -0.1)">
       <defs>
        <path id="DejaVuSansMono-36" d="M 3097 4563 
L 3097 3981 
Q 2900 4097 2678 4158 
Q 2456 4219 2216 4219 
Q 1616 4219 1306 3767 
Q 997 3316 997 2438 
Q 1147 2750 1412 2917 
Q 1678 3084 2022 3084 
Q 2697 3084 3067 2670 
Q 3438 2256 3438 1497 
Q 3438 741 3056 325 
Q 2675 -91 1984 -91 
Q 1172 -91 794 492 
Q 416 1075 416 2328 
Q 416 3509 870 4129 
Q 1325 4750 2188 4750 
Q 2419 4750 2650 4701 
Q 2881 4653 3097 4563 
z
M 1972 2591 
Q 1569 2591 1337 2300 
Q 1106 2009 1106 1497 
Q 1106 984 1337 693 
Q 1569 403 1972 403 
Q 2391 403 2603 679 
Q 2816 956 2816 1497 
Q 2816 2041 2603 2316 
Q 2391 2591 1972 2591 
z
" transform="scale(0.015625)"/>
       </defs>
       <use xlink:href="#DejaVuSansMono-30"/>
       <use xlink:href="#DejaVuSansMono-2e" x="60.205078"/>
       <use xlink:href="#DejaVuSansMono-36" x="120.410156"/>
      </g>
     </g>
    </g>
    <g id="ytick_5">
     <g id="line2d_12">
      <g>
       <use xlink:href="#m01c0d94903" x="35.89" y="100.574355" style="stroke: #000000; stroke-width: 0.8"/>
      </g>
     </g>
     <g id="text_12">
      <!-- 0.8 -->
      <g transform="translate(10.829063 104.400137) scale(0.1 -0.1)">
       <defs>
        <path id="DejaVuSansMono-38" d="M 1925 2216 
Q 1503 2216 1273 1980 
Q 1044 1744 1044 1313 
Q 1044 881 1276 642 
Q 1509 403 1925 403 
Q 2350 403 2579 639 
Q 2809 875 2809 1313 
Q 2809 1741 2576 1978 
Q 2344 2216 1925 2216 
z
M 1375 2478 
Q 972 2581 745 2862 
Q 519 3144 519 3541 
Q 519 4097 897 4423 
Q 1275 4750 1925 4750 
Q 2578 4750 2956 4423 
Q 3334 4097 3334 3541 
Q 3334 3144 3107 2862 
Q 2881 2581 2478 2478 
Q 2947 2375 3195 2062 
Q 3444 1750 3444 1253 
Q 3444 622 3041 265 
Q 2638 -91 1925 -91 
Q 1213 -91 811 264 
Q 409 619 409 1247 
Q 409 1747 657 2061 
Q 906 2375 1375 2478 
z
M 1147 3481 
Q 1147 3106 1347 2909 
Q 1547 2713 1925 2713 
Q 2306 2713 2506 2909 
Q 2706 3106 2706 3481 
Q 2706 3863 2507 4063 
Q 2309 4263 1925 4263 
Q 1547 4263 1347 4061 
Q 1147 3859 1147 3481 
z
" transform="scale(0.015625)"/>
       </defs>
       <use xlink:href="#DejaVuSansMono-30"/>
       <use xlink:href="#DejaVuSansMono-2e" x="60.205078"/>
       <use xlink:href="#DejaVuSansMono-38" x="120.410156"/>
      </g>
     </g>
    </g>
    <g id="ytick_6">
     <g id="line2d_13">
      <g>
       <use xlink:href="#m01c0d94903" x="35.89" y="28.678182" style="stroke: #000000; stroke-width: 0.8"/>
      </g>
     </g>
     <g id="text_13">
      <!-- 1.0 -->
      <g transform="translate(10.829063 32.503963) scale(0.1 -0.1)">
       <use xlink:href="#DejaVuSansMono-31"/>
       <use xlink:href="#DejaVuSansMono-2e" x="60.205078"/>
       <use xlink:href="#DejaVuSansMono-30" x="120.410156"/>
      </g>
     </g>
    </g>
   </g>
   <g id="line2d_14">
    <path d="M 35.477426 354.911304 
L 36.302574 354.911304 
L 36.715149 344.768954 
L 37.127723 346.549968 
L 37.540298 356.853081 
L 37.952872 356.853081 
L 38.365447 362.642532 
L 38.778021 372.989495 
L 39.190596 372.989495 
L 39.60317 362.686382 
L 40.015745 362.686382 
L 40.428319 352.38327 
L 40.840893 362.525619 
L 41.253468 362.040606 
L 41.666042 362.040606 
L 42.078617 351.591487 
L 42.491191 345.977838 
L 42.903766 343.19476 
L 43.31634 333.699039 
L 43.728915 344.002151 
L 44.141489 338.296106 
L 44.554064 348.599218 
L 44.966638 348.599218 
L 45.379213 339.294663 
L 45.791787 339.294663 
L 46.204361 339.44067 
L 46.616936 349.56798 
L 47.02951 352.351058 
L 47.442085 361.846779 
L 47.854659 351.543666 
L 48.267234 357.249712 
L 48.679808 353.218151 
L 49.504957 353.218151 
L 49.917532 342.687903 
L 50.330106 352.991016 
L 51.567829 352.991016 
L 51.980404 363.294128 
L 52.392978 363.294128 
L 52.805553 367.325689 
L 53.218127 361.989645 
L 53.630702 361.989645 
L 54.043276 366.875152 
L 54.868425 366.875152 
L 55.280999 356.572039 
L 55.693574 353.540273 
L 56.931297 353.540273 
L 57.343872 357.584769 
L 57.756446 357.693081 
L 58.169021 353.034709 
L 58.581595 342.731597 
L 58.99417 342.218053 
L 59.406744 348.272755 
L 59.819319 351.304521 
L 60.231893 350.821996 
L 61.057042 332.721034 
L 61.469616 334.012582 
L 61.882191 333.649204 
L 62.70734 353.309427 
L 63.119914 343.135701 
L 63.532489 347.384111 
L 63.945063 347.384111 
L 64.357638 347.866636 
L 64.770212 347.866636 
L 65.182786 345.361373 
L 65.595361 345.361373 
L 66.007935 355.919552 
L 66.42051 355.919552 
L 66.833084 356.865554 
L 67.245659 356.996323 
L 68.070808 356.996323 
L 68.483382 346.69321 
L 68.895957 345.774959 
L 69.308531 356.078072 
L 70.13368 356.078072 
L 70.546254 344.86227 
L 70.958829 344.86227 
L 71.371403 345.115659 
L 72.196552 324.487835 
L 73.021701 346.012311 
L 74.259425 346.012311 
L 74.671999 357.228113 
L 75.084573 346.079377 
L 75.497148 346.079377 
L 75.909722 356.38249 
L 76.322297 363.323852 
L 76.734871 363.323852 
L 77.147446 353.02074 
L 78.797744 353.02074 
L 79.622892 374.472588 
L 80.035467 364.169475 
L 80.448041 367.552825 
L 82.923488 367.519427 
L 83.336063 357.216314 
L 84.161212 357.216314 
L 84.573786 346.06664 
L 84.98636 346.06664 
L 85.398935 356.403151 
L 85.811509 346.100038 
L 87.049233 346.100038 
L 87.461807 356.403151 
L 87.874382 346.100038 
L 88.699531 367.03928 
L 89.112105 367.03928 
L 89.524679 356.736168 
L 89.937254 365.520347 
L 91.174977 365.520347 
L 91.587552 357.34392 
L 92.000126 367.647032 
L 92.412701 367.647032 
L 92.825275 362.395317 
L 93.23785 352.092204 
L 93.650424 358.376276 
L 94.062998 359.895209 
L 94.475573 349.592097 
L 95.300722 349.592097 
L 95.713296 347.465412 
L 96.125871 346.966133 
L 96.538445 336.663021 
L 96.95102 342.42828 
L 97.363594 352.731393 
L 97.776169 356.750433 
L 98.188743 356.750433 
L 98.601318 367.053546 
L 99.013892 356.750433 
L 99.426466 356.750433 
L 99.839041 367.053546 
L 100.251615 365.596466 
L 100.66419 371.855419 
L 102.727062 371.855419 
L 103.139637 382.158531 
L 103.552211 382.158531 
L 103.964785 380.175188 
L 104.37736 382.131547 
L 104.789934 386.175707 
L 106.027658 386.175707 
L 106.440232 375.872594 
L 106.852807 375.872594 
L 107.265381 365.634214 
L 107.677956 365.634214 
L 108.09053 357.303656 
L 108.915679 357.303656 
L 109.328253 353.426902 
L 109.740828 342.019374 
L 110.153402 337.100162 
L 110.565977 347.403274 
L 110.978551 336.503563 
L 111.391126 336.43883 
L 111.8037 326.135718 
L 112.216275 336.449619 
L 112.628849 336.449619 
L 113.041424 325.092771 
L 113.453998 328.969525 
L 113.866572 340.377052 
L 114.279147 345.296265 
L 114.691721 345.296265 
L 115.104296 344.730806 
L 115.929445 365.337031 
L 116.754594 365.337031 
L 117.167168 376.693879 
L 117.579743 376.693879 
L 117.992317 366.390766 
L 118.404891 366.390766 
L 118.817466 356.109084 
L 119.23004 367.574255 
L 119.642615 367.574255 
L 120.055189 357.271142 
L 120.880338 357.271142 
L 121.292913 347.000261 
L 121.705487 347.000261 
L 122.118062 357.303373 
L 123.768359 357.281943 
L 124.180934 367.585056 
L 125.006083 367.585056 
L 125.418657 377.855937 
L 126.656381 377.855937 
L 127.068955 376.122133 
L 127.894104 376.122133 
L 128.306678 369.617242 
L 128.719253 369.100003 
L 129.956976 336.114921 
L 130.369551 336.114921 
L 130.782125 325.757639 
L 131.1947 327.491443 
L 132.019849 327.491443 
L 132.432423 333.996334 
L 132.844997 334.513573 
L 134.082721 367.498655 
L 134.495295 367.498655 
L 135.320444 386.241818 
L 135.733019 375.960136 
L 136.145593 375.960136 
L 136.558168 371.680601 
L 138.208465 371.680601 
L 138.62104 359.636456 
L 139.033614 361.553687 
L 139.446189 361.553687 
L 139.858763 371.83537 
L 140.271338 359.675341 
L 140.683912 363.954875 
L 142.33421 363.954875 
L 142.746784 375.999021 
L 143.159359 365.684479 
L 143.571933 362.416471 
L 143.984508 354.356362 
L 144.397082 354.213302 
L 144.809657 354.213302 
L 145.222231 342.590988 
L 145.634806 342.590988 
L 146.04738 332.287875 
L 146.872529 332.287875 
L 147.285103 342.602417 
L 147.697678 345.870424 
L 148.110252 353.930534 
L 148.522827 353.473892 
L 148.935401 353.473892 
L 149.347976 365.096206 
L 150.173125 364.038282 
L 150.998274 364.038282 
L 151.410848 361.506726 
L 152.235997 336.474065 
L 152.648571 338.930683 
L 153.061146 338.930683 
L 153.47372 333.435434 
L 154.298869 328.664561 
L 154.711444 324.350791 
L 155.124018 322.407651 
L 155.536593 324.436436 
L 155.949167 335.603408 
L 156.361742 340.457721 
L 156.774316 350.760834 
L 157.18689 341.686559 
L 157.599465 347.181808 
L 158.012039 349.150394 
L 158.424614 360.316872 
L 158.837188 354.894702 
L 159.249763 354.82676 
L 159.662337 341.428156 
L 160.074912 343.425272 
L 160.487486 350.439533 
L 160.900061 338.515289 
L 161.312635 337.84093 
L 161.725209 331.470383 
L 162.137784 320.341113 
L 162.550358 304.891846 
L 162.962933 298.694038 
L 163.375507 290.155138 
L 163.788082 288.004221 
L 164.200656 271.841515 
L 164.613231 262.056829 
L 165.025805 256.158072 
L 165.850954 233.532038 
L 166.676103 221.868728 
L 167.088677 220.222023 
L 167.501252 210.651809 
L 168.326401 197.948639 
L 168.738975 184.129677 
L 169.15155 176.20263 
L 169.564124 171.011294 
L 169.976699 162.714184 
L 170.801848 152.138914 
L 171.214422 142.448405 
L 172.452145 124.035906 
L 172.86472 120.954166 
L 173.277294 119.565937 
L 174.102443 114.199814 
L 174.515018 108.731443 
L 174.927592 107.079538 
L 175.340167 104.600359 
L 175.752741 101.077318 
L 176.57789 96.209728 
L 177.403039 86.520688 
L 177.815613 86.118202 
L 178.640762 82.360502 
L 179.465911 75.881372 
L 179.878486 82.525636 
L 180.29106 84.456917 
L 180.703635 83.049373 
L 181.116209 80.640696 
L 181.528783 80.048506 
L 182.766507 72.880173 
L 183.591656 69.88658 
L 184.00423 60.660847 
L 184.416805 55.157085 
L 184.829379 53.077716 
L 185.241954 52.228898 
L 185.654528 51.06095 
L 186.067102 53.550394 
L 186.479677 55.299762 
L 186.892251 54.329819 
L 187.304826 53.839922 
L 187.7174 53.640212 
L 188.129975 51.923946 
L 188.542549 51.626764 
L 188.955124 51.727392 
L 189.367698 52.089928 
L 189.780273 50.634098 
L 190.192847 44.693597 
L 190.605422 40.879266 
L 191.017996 42.348174 
L 191.43057 42.078113 
L 192.255719 41.04149 
L 192.668294 41.641533 
L 193.080868 41.858539 
L 193.493443 41.12573 
L 193.906017 41.006291 
L 194.318592 42.35487 
L 194.731166 42.582721 
L 195.143741 41.113814 
L 195.556315 41.350136 
L 196.381464 40.84991 
L 197.206613 37.743812 
L 198.031762 36.849276 
L 198.856911 35.264675 
L 199.269485 34.639906 
L 199.68206 37.03605 
L 200.094634 37.408961 
L 200.507208 37.002278 
L 200.919783 37.000377 
L 201.332357 39.616741 
L 201.744932 40.85571 
L 202.157506 41.253639 
L 202.570081 43.042278 
L 202.982655 43.420483 
L 203.39523 43.542686 
L 203.807804 41.382647 
L 204.632953 41.630276 
L 205.045528 41.887021 
L 205.458102 39.651641 
L 205.870676 38.27813 
L 206.283251 38.26672 
L 206.695825 36.478081 
L 207.1084 36.524072 
L 207.520974 39.339767 
L 207.933549 39.164031 
L 208.346123 38.158749 
L 208.758698 41.89659 
L 209.171272 43.595329 
L 209.583847 43.085508 
L 209.996421 43.726939 
L 210.408995 44.105202 
L 210.82157 43.34589 
L 211.234144 43.292619 
L 211.646719 41.467998 
L 212.059293 40.516758 
L 212.471868 42.928082 
L 212.884442 38.935395 
L 213.297017 37.739222 
L 213.709591 37.870889 
L 214.53474 36.728018 
L 214.947314 37.389272 
L 215.359889 36.761628 
L 215.772463 37.119133 
L 216.185038 38.001865 
L 216.597612 35.854838 
L 217.010187 36.385417 
L 217.422761 35.626105 
L 217.835336 36.25375 
L 218.660485 36.768214 
L 219.073059 36.363705 
L 219.485634 36.363705 
L 219.898208 34.758381 
L 220.310782 34.004485 
L 221.548506 34.27578 
L 221.96108 33.776959 
L 222.373655 33.653715 
L 222.786229 33.649909 
L 223.198804 33.524831 
L 223.611378 34.028173 
L 224.023953 34.157009 
L 224.436527 34.157009 
L 224.849101 33.895567 
L 225.261676 34.82593 
L 226.499399 35.220069 
L 227.324548 35.749997 
L 227.737123 35.512884 
L 228.149697 35.640793 
L 228.562272 35.382183 
L 228.974846 35.760337 
L 229.38742 34.158841 
L 229.799995 33.900231 
L 231.862867 31.928503 
L 232.688016 32.874605 
L 233.100591 33.124095 
L 233.513165 40.091314 
L 233.92574 40.222987 
L 234.338314 40.732808 
L 234.750888 40.865451 
L 235.163463 40.733777 
L 235.576037 40.860713 
L 235.988612 40.733777 
L 236.401186 41.30718 
L 236.813761 41.184143 
L 237.226335 40.934652 
L 237.63891 33.833832 
L 238.051484 34.088677 
L 238.464059 33.707693 
L 239.289207 34.357566 
L 240.114356 36.480779 
L 240.526931 35.094793 
L 240.939505 36.796905 
L 241.35208 37.931966 
L 241.764654 38.190576 
L 243.414952 36.631259 
L 244.240101 34.247535 
L 244.652675 34.251364 
L 245.477824 30.509284 
L 245.890399 30.644744 
L 246.302973 31.734904 
L 248.365846 32.897253 
L 248.77842 32.763651 
L 249.190994 33.533897 
L 249.603569 33.791549 
L 250.016143 33.397479 
L 250.428718 32.437092 
L 250.841292 32.17944 
L 251.253867 32.308277 
L 251.666441 31.921758 
L 252.079016 31.794822 
L 252.49159 31.797652 
L 252.904165 31.929326 
L 253.316739 31.419563 
L 254.141888 31.42052 
L 254.554462 31.941509 
L 254.967037 31.809831 
L 255.379611 31.420501 
L 255.792186 31.289781 
L 257.855058 29.983513 
L 258.267633 29.851835 
L 258.680207 30.578666 
L 259.092781 30.578666 
L 259.505356 30.970827 
L 259.91793 30.970827 
L 260.330505 31.906281 
L 261.155654 32.558005 
L 261.980803 33.219382 
L 262.393377 33.219382 
L 262.805952 33.700817 
L 263.6311 34.215279 
L 264.043675 35.110782 
L 264.456249 34.43582 
L 264.868824 34.304147 
L 265.281398 34.045537 
L 265.693973 34.408476 
L 266.106547 34.40473 
L 266.519122 35.175045 
L 266.931696 33.829525 
L 267.344271 34.21136 
L 268.169419 32.802349 
L 268.581994 32.673534 
L 268.994568 34.051127 
L 269.407143 34.564636 
L 269.819717 33.800811 
L 270.232292 33.812221 
L 270.644866 33.562891 
L 271.470015 32.668505 
L 271.88259 34.314984 
L 272.707739 35.249415 
L 273.120313 34.001595 
L 273.532887 33.617859 
L 273.945462 34.256496 
L 274.358036 33.858567 
L 275.183185 33.856667 
L 275.59576 33.724989 
L 276.008334 32.07851 
L 276.420909 31.674652 
L 276.833483 31.950813 
L 277.658632 31.429826 
L 278.071206 30.659511 
L 278.483781 30.528791 
L 278.896355 30.138527 
L 279.30893 30.522263 
L 279.721504 31.542068 
L 280.546653 31.940016 
L 280.959228 31.524536 
L 281.371802 31.524536 
L 281.784377 31.913867 
L 282.196951 32.689724 
L 282.609525 32.820444 
L 283.0221 33.079054 
L 283.434674 32.565545 
L 283.847249 31.54574 
L 284.259823 31.281418 
L 285.084972 30.49414 
L 285.497547 30.49414 
L 285.910121 30.622049 
L 286.322696 30.363431 
L 287.147845 30.370094 
L 287.972993 30.631545 
L 288.385568 30.631545 
L 288.798142 31.567 
L 289.210717 31.831322 
L 289.623291 31.831322 
L 290.035866 31.578405 
L 290.44844 32.080971 
L 291.686164 31.688807 
L 292.098738 32.074368 
L 292.511312 32.074368 
L 292.923887 31.399406 
L 293.749036 32.177261 
L 294.16161 31.912939 
L 294.574185 31.153627 
L 294.986759 31.284347 
L 295.399334 31.020025 
L 296.224483 30.761396 
L 296.637057 30.892116 
L 297.049631 32.731682 
L 297.462206 32.087453 
L 297.87478 31.689505 
L 299.112504 31.693334 
L 299.525078 32.337563 
L 299.937653 32.598056 
L 300.350227 33.151185 
L 300.762802 33.152143 
L 301.175376 31.450031 
L 301.587951 31.96727 
L 302.000525 32.098948 
L 302.413099 32.616188 
L 303.238248 33.136332 
L 303.650823 32.492103 
L 304.063397 32.23161 
L 304.475972 32.308956 
L 304.888546 32.177278 
L 305.713695 31.657134 
L 306.12627 31.525456 
L 306.538844 31.26871 
L 307.363993 30.353523 
L 307.776567 31.021702 
L 308.189142 31.15338 
L 308.601716 30.265253 
L 309.014291 30.396931 
L 309.426865 30.396931 
L 309.83944 30.263329 
L 310.252014 30.263329 
L 310.664589 34.335342 
L 311.077163 34.466062 
L 311.489738 34.726555 
L 311.902312 34.058376 
L 312.314886 34.594877 
L 312.727461 34.59392 
L 313.140035 34.462242 
L 314.377759 35.248573 
L 314.790333 31.17656 
L 315.615482 31.17656 
L 316.028057 31.30728 
L 316.440631 30.6391 
L 316.853205 30.50838 
L 317.26578 30.768874 
L 318.090929 30.382406 
L 318.916078 30.378519 
L 319.741227 32.878307 
L 320.153801 32.878307 
L 320.97895 34.793615 
L 321.391524 34.922451 
L 321.804099 36.774115 
L 322.216673 36.642437 
L 322.629248 37.393502 
L 323.041822 37.391601 
L 323.866971 34.5006 
L 324.279546 34.36988 
L 325.104695 32.585292 
L 325.517269 32.195962 
L 325.929844 30.344299 
L 326.342418 30.344299 
L 326.754992 29.332751 
L 327.167567 29.072258 
L 327.992716 29.072258 
L 328.40529 29.203936 
L 328.817865 29.203936 
L 329.230439 29.073216 
L 329.643014 29.073216 
L 330.055588 28.941538 
L 330.468163 29.073216 
L 330.880737 28.941538 
L 331.293311 29.072258 
L 331.705886 29.604821 
L 332.11846 29.604821 
L 332.531035 29.473143 
L 333.356184 29.864357 
L 334.181333 29.864357 
L 334.593907 30.122009 
L 335.006482 30.639248 
L 335.419056 30.639248 
L 335.83163 30.367178 
L 336.244205 31.011407 
L 336.656779 32.398876 
L 337.069354 32.138382 
L 338.719652 33.337113 
L 339.132226 32.819874 
L 339.544801 32.689154 
L 339.957375 32.823697 
L 340.36995 32.179468 
L 340.782524 30.923677 
L 341.195098 30.923677 
L 341.607673 30.65645 
L 342.020247 30.932469 
L 342.432822 30.671975 
L 342.845396 30.268118 
L 343.257971 30.268118 
L 343.670545 30.912347 
L 344.08312 30.517311 
L 345.320843 30.516353 
L 345.733417 30.646126 
L 346.145992 30.24034 
L 346.558566 30.884569 
L 346.971141 30.88074 
L 347.383715 31.656598 
L 347.79629 31.143089 
L 348.621439 31.143089 
L 349.034013 31.012369 
L 349.446588 31.272862 
L 349.859162 31.012369 
L 350.271736 31.147923 
L 350.684311 30.503694 
L 351.922034 29.734571 
L 352.334609 29.866249 
L 353.159758 29.866249 
L 353.572332 29.737434 
L 353.984907 29.737434 
L 354.397481 29.339486 
L 354.810056 29.339486 
L 355.22263 29.471164 
L 355.635204 29.33561 
L 356.460353 29.597046 
L 357.698077 29.596088 
L 358.110651 30.366402 
L 358.9358 30.366402 
L 359.348375 30.234724 
L 360.173523 30.236653 
L 360.586098 29.974259 
L 360.998672 29.974259 
L 361.411247 30.236653 
L 361.823821 30.237611 
L 362.236396 29.727789 
L 363.061545 29.727789 
L 363.474119 29.85851 
L 363.886694 29.594187 
L 364.299268 29.727789 
L 364.711843 29.727789 
L 365.124417 29.85851 
L 365.536991 29.596116 
L 365.949566 29.595158 
L 366.36214 29.334665 
L 367.187289 29.597063 
L 367.599864 30.361845 
L 368.012438 30.493523 
L 368.425013 30.229201 
L 368.837587 30.229201 
L 369.250162 30.09848 
L 369.662736 30.09848 
L 370.07531 29.96776 
L 370.900459 30.89738 
L 371.313034 30.765702 
L 371.725608 29.8702 
L 372.138183 29.869242 
L 372.550757 30.133565 
L 372.963332 30.264285 
L 373.375906 30.526679 
L 374.201055 30.526679 
L 374.613629 30.134518 
L 375.026204 29.466338 
L 375.438778 29.726832 
L 376.263927 29.727789 
L 376.676502 29.463467 
L 377.089076 29.849986 
L 377.501651 29.587592 
L 378.3268 29.587592 
L 378.739374 29.718312 
L 379.151949 29.978806 
L 379.564523 29.718312 
L 379.977097 30.235552 
L 380.389672 30.496034 
L 380.802246 30.496034 
L 381.627395 30.87983 
L 382.03997 30.87983 
L 382.452544 31.011508 
L 382.865119 30.880787 
L 383.277693 30.620294 
L 383.690268 30.884616 
L 384.102842 30.367377 
L 384.515416 30.105937 
L 384.927991 30.36643 
L 385.340565 29.596116 
L 385.75314 29.465396 
L 386.578289 29.725889 
L 387.403438 29.725889 
L 387.816012 29.592287 
L 388.228587 29.592287 
L 388.641161 29.850897 
L 389.46631 29.850897 
L 389.878884 29.982575 
L 390.704033 29.721124 
L 391.941757 29.721124 
L 392.354331 29.983517 
L 392.766906 30.111426 
L 393.17948 29.981653 
L 393.592055 30.112374 
L 394.004629 29.980696 
L 395.242352 30.635284 
L 395.654927 30.766962 
L 396.067501 31.168806 
L 396.480076 31.166905 
L 396.89265 30.780386 
L 397.305225 30.781344 
L 397.717799 30.650624 
L 398.130374 30.650624 
L 398.542948 30.520851 
L 398.955522 30.522751 
L 399.780671 30.257471 
L 400.193246 29.724908 
L 401.430969 29.333694 
L 401.843544 29.465372 
L 402.256118 29.465372 
L 402.668693 29.334652 
L 403.493841 28.941538 
L 404.31899 29.204894 
L 404.731565 29.073216 
L 405.556714 29.073216 
L 405.969288 28.941538 
L 406.381863 29.073216 
L 406.794437 29.073216 
L 407.619586 29.334656 
L 408.032161 29.333698 
L 408.444735 29.20202 
L 408.857309 29.20202 
L 409.269884 29.333698 
L 410.095033 29.333698 
L 410.507607 29.20202 
L 410.920182 29.20202 
L 411.332756 29.335622 
L 412.157905 29.337538 
L 412.57048 29.60186 
L 413.395628 31.135999 
L 414.220777 31.135999 
L 414.633352 31.398393 
L 415.045926 31.398393 
L 415.458501 31.134071 
L 415.871075 31.397429 
L 416.28365 31.265751 
L 416.696224 31.261922 
L 417.108799 30.36642 
L 417.521373 29.860427 
L 418.346522 29.860427 
L 418.759096 29.598033 
L 419.171671 29.862356 
L 419.584245 29.862356 
L 419.99682 29.59804 
L 420.409394 29.72876 
L 420.821969 29.598987 
L 421.234543 31.1073 
L 421.647118 30.842978 
L 422.059692 32.602674 
L 422.884841 32.602674 
L 423.297415 32.338351 
L 424.122564 32.598845 
L 424.947713 32.337404 
L 425.360288 30.829091 
L 425.772862 31.093413 
L 426.185437 29.596111 
L 427.010586 29.596111 
L 427.42316 29.727789 
L 427.835734 29.597069 
L 429.486032 29.597069 
L 429.898607 29.464425 
L 430.311181 29.202031 
L 430.723756 29.332751 
L 431.13633 29.996001 
L 431.548905 30.385307 
L 431.961479 30.516985 
L 432.374054 30.256492 
L 432.786628 30.65444 
L 433.199202 30.78516 
L 433.611777 30.78516 
L 434.024351 30.653482 
L 434.436926 30.653482 
L 434.8495 30.522762 
L 435.674649 29.599968 
L 436.499798 30.501849 
L 436.912373 30.234622 
L 437.324947 30.103901 
L 438.150096 30.103901 
L 438.56267 30.874216 
L 438.975245 31.004936 
L 439.800394 31.005894 
L 440.212968 30.361665 
L 440.625543 29.972335 
L 441.038117 30.105937 
L 442.27584 30.105937 
L 442.688415 29.599945 
L 443.100989 29.469225 
L 443.513564 29.469225 
L 443.926138 29.727834 
L 444.338713 29.727834 
L 444.751287 29.858555 
L 445.163862 29.594232 
L 445.576436 29.594232 
L 445.989011 29.724953 
L 446.401585 29.724953 
L 446.81416 29.46063 
L 447.226734 29.724953 
L 448.051883 29.466338 
L 448.464457 29.726832 
L 448.877032 29.727789 
L 449.289606 30.245029 
L 449.702181 30.245029 
L 450.114755 30.376702 
L 450.52733 30.376702 
L 450.939904 30.50838 
L 451.352479 30.244058 
L 451.765053 30.244058 
L 452.177627 29.981664 
L 452.590202 30.491485 
L 453.002776 30.359807 
L 453.415351 29.973288 
L 453.827925 30.104009 
L 454.2405 29.841615 
L 454.653074 29.841615 
L 455.065649 29.709937 
L 456.303372 29.709937 
L 456.715946 28.939622 
L 457.128521 29.070342 
L 457.541095 29.0713 
L 457.95367 29.201073 
L 458.366244 29.201073 
L 459.603968 29.983517 
L 460.841691 29.983517 
L 461.66684 29.721119 
L 462.904563 29.724948 
L 463.729712 29.336576 
L 464.142287 29.336576 
L 464.554861 29.467296 
L 464.967436 29.467296 
L 465.792585 29.85851 
L 466.205159 29.594187 
L 466.617733 29.983517 
L 467.030308 29.721124 
L 467.442882 29.849939 
L 468.268031 29.849939 
L 468.680606 29.719219 
L 469.09318 29.719219 
L 469.918329 29.328005 
L 470.330904 29.459683 
L 470.743478 29.201073 
L 471.156052 29.332751 
L 471.568627 29.203936 
L 471.981201 29.468258 
L 472.80635 29.468258 
L 473.218925 29.599936 
L 473.631499 29.864258 
L 474.044074 29.864258 
L 474.456648 29.73258 
L 474.869223 29.73258 
L 475.694372 29.469225 
L 476.106946 29.204902 
L 476.932095 29.204902 
L 477.757244 28.939622 
L 478.582393 28.939622 
L 478.994967 28.808902 
L 480.232691 29.201063 
L 481.470414 29.201063 
L 481.882988 29.070342 
L 482.708137 29.070342 
L 483.120712 29.332736 
L 484.358435 28.940576 
L 485.183584 28.940576 
L 486.421307 29.332736 
L 486.833882 29.332736 
L 487.246456 29.201063 
L 488.896754 29.201063 
L 489.309329 29.590393 
L 490.134478 29.59135 
L 490.547052 29.721124 
L 491.372201 29.722081 
L 492.609924 30.116157 
L 493.022499 30.116157 
L 493.435073 29.726827 
L 493.847648 29.596107 
L 494.260222 29.724923 
L 494.672797 29.595149 
L 495.085371 29.595149 
L 495.497945 29.852802 
L 496.735669 29.458725 
L 497.148243 29.458725 
L 497.560818 29.721119 
L 497.973392 29.721119 
L 498.798541 29.329906 
L 499.211116 29.329906 
L 499.62369 28.940576 
L 500.036265 28.940576 
L 500.448839 29.883035 
L 500.861413 30.014713 
L 501.273988 30.277107 
L 501.686562 30.014713 
L 502.511711 30.014713 
L 502.924286 31.157938 
L 503.33686 31.157938 
L 503.749435 31.288658 
L 504.162009 31.288658 
L 504.574584 30.346199 
L 504.987158 30.345241 
L 505.399732 30.213568 
L 505.812307 30.213568 
L 506.224881 30.344288 
L 506.637456 30.344288 
L 507.05003 29.201063 
L 507.462605 29.463456 
L 507.875179 29.332736 
L 508.700328 29.332736 
L 509.112903 29.719255 
L 509.525477 29.588535 
L 509.938051 29.720213 
L 510.350626 29.589493 
L 511.175775 29.589493 
L 511.588349 29.327099 
L 512.000924 29.725047 
L 512.826073 29.725047 
L 513.238647 29.875987 
L 513.651222 29.875987 
L 514.063796 29.744309 
L 515.714094 29.744309 
L 516.126668 29.606855 
L 516.539243 29.606855 
L 516.951817 29.869249 
L 517.364392 29.331789 
L 517.776966 29.331789 
L 518.189541 29.976018 
L 519.01469 30.367232 
L 519.427264 30.497952 
L 519.839838 30.758445 
L 520.664987 31.018002 
L 521.490136 30.755608 
L 521.902711 30.886328 
L 522.315285 30.2421 
L 522.72786 29.981606 
L 523.140434 30.379535 
L 523.553009 30.248815 
L 523.965583 30.377651 
L 524.790732 29.988321 
L 525.203306 29.988321 
L 525.615881 30.252644 
L 526.028455 30.121923 
L 526.44103 30.121923 
L 526.853604 30.382417 
L 527.266179 29.985446 
L 527.678753 30.117124 
L 528.091328 29.858514 
L 528.916477 30.119965 
L 529.329051 29.989245 
L 529.741625 29.724923 
L 530.566774 29.988278 
L 530.979349 29.727785 
L 531.391923 29.726827 
L 531.804498 29.595149 
L 532.217072 29.595149 
L 532.629647 29.466334 
L 533.86737 29.466334 
L 534.692519 29.202978 
L 535.105093 29.202978 
L 535.517668 29.604821 
L 535.930242 29.736499 
L 536.755391 29.474101 
L 537.167966 29.474101 
L 537.58054 30.132491 
L 537.993115 30.263211 
L 539.230838 30.263211 
L 539.643412 29.730648 
L 540.055987 29.59897 
L 540.881136 29.59897 
L 541.29371 29.727785 
L 541.706285 29.331789 
L 542.118859 29.201069 
L 542.531434 29.463463 
L 544.181731 29.463463 
L 544.594306 29.594183 
L 545.00688 29.594183 
L 545.419455 29.465368 
L 545.832029 29.202974 
L 546.244604 29.202974 
L 546.657178 29.0713 
L 547.482327 29.0713 
L 547.894902 29.335622 
L 548.72005 29.600902 
L 549.132625 29.861396 
L 549.545199 29.729718 
L 549.957774 29.861396 
L 550.370348 29.861396 
L 550.782923 29.730676 
L 551.195497 29.861396 
L 551.608072 29.861396 
L 552.020646 29.597074 
L 552.433221 30.608621 
L 552.845795 30.475019 
L 553.25837 30.214525 
L 553.670944 30.345246 
L 554.083518 30.213568 
L 554.908667 30.475966 
L 555.321242 30.345246 
L 556.146391 30.345246 
L 556.558965 29.20202 
L 556.97154 29.0713 
L 557.796689 29.072258 
L 558.209263 29.332751 
L 558.621837 29.202031 
L 559.446986 29.594192 
L 560.272135 29.594192 
L 560.68471 29.856586 
L 561.097284 30.37757 
L 561.509859 30.50829 
L 561.922433 30.376612 
L 562.335008 30.376612 
L 562.747582 30.640935 
L 563.160156 30.248774 
L 563.572731 30.117096 
L 564.39788 30.117096 
L 564.810454 29.985422 
L 565.223029 29.464438 
L 565.635603 29.333718 
L 566.048178 29.594211 
L 566.873327 29.069395 
L 568.11105 29.069395 
L 568.523624 29.200116 
L 568.936199 29.069395 
L 569.348773 29.201073 
L 569.761348 29.201073 
L 570.173922 28.94058 
L 572.236795 28.94058 
L 572.649369 28.80986 
L 573.061943 28.80986 
L 573.474518 28.678182 
L 573.887092 28.678182 
L 574.299667 29.454039 
L 574.712241 29.454039 
L 575.53739 29.845253 
L 577.187688 29.845253 
L 577.600262 29.975973 
L 578.012837 30.240295 
L 578.425411 29.596116 
L 578.837986 29.596116 
L 579.663135 29.204902 
L 581.313433 29.204902 
L 582.138582 28.94058 
L 582.551156 28.939622 
L 582.96373 30.082847 
L 583.376305 30.34717 
L 585.851752 30.34717 
L 586.676901 30.085729 
L 587.089475 28.942504 
L 587.502049 28.678182 
L 587.914624 28.678182 
L 588.327198 28.808902 
L 590.390071 28.808902 
L 590.802645 28.939622 
L 592.040369 28.939622 
L 592.452943 28.808902 
L 593.690666 28.808902 
L 594.103241 28.94058 
L 594.515815 28.94058 
L 594.92839 28.80986 
L 596.166113 28.80986 
L 596.578688 28.941538 
L 596.991262 29.20586 
L 597.403836 29.20586 
L 597.816411 29.337538 
L 598.228985 29.20586 
L 600.291858 29.20586 
L 600.704432 29.463512 
L 601.117007 29.32991 
L 601.529581 29.71924 
L 601.942155 29.587562 
L 602.767304 29.587562 
L 603.179879 29.71924 
L 604.005028 29.71924 
L 604.417602 29.850918 
L 604.830177 29.461588 
L 605.242751 29.848107 
L 605.655326 29.458777 
L 606.480475 29.458777 
L 606.893049 29.589497 
L 607.305623 29.457819 
L 608.543347 29.456861 
L 608.955921 29.587581 
L 609.368496 29.330836 
L 612.256517 29.330836 
L 613.081666 29.069395 
L 614.319389 29.071296 
L 614.731964 29.202974 
L 615.144538 29.072254 
L 615.557113 29.072254 
L 615.969687 29.336576 
L 617.20741 29.336576 
L 617.619985 29.074182 
L 618.032559 29.074182 
L 618.445134 29.47213 
L 618.857708 29.340452 
L 619.270283 29.340452 
L 619.682857 29.604774 
L 620.095432 29.340452 
L 621.333155 29.340452 
L 621.745729 29.471172 
L 622.158304 29.471172 
L 622.570878 29.073224 
L 623.396027 29.073224 
L 623.808602 28.939622 
L 624.633751 28.939622 
L 625.046325 29.0713 
L 625.4589 29.331793 
L 625.871474 29.201073 
L 627.521772 29.201073 
L 627.934346 29.070353 
L 628.346921 29.070353 
L 628.759495 29.201073 
L 629.17207 29.069395 
L 629.584644 28.808902 
L 631.647516 28.808902 
L 632.060091 29.073224 
L 632.472665 29.073224 
L 632.88524 28.942504 
L 633.297814 28.942504 
L 633.710389 29.073224 
L 634.535538 29.073224 
L 634.948112 29.204902 
L 635.773261 29.204902 
L 636.185835 28.94058 
L 636.59841 29.072258 
L 638.661282 29.072258 
L 639.073857 28.94058 
L 639.486431 28.94058 
L 640.31158 29.203936 
L 640.724154 29.072258 
L 641.549303 29.335614 
L 641.961878 29.204894 
L 642.374452 29.849123 
L 643.199601 29.849123 
L 643.612176 29.980801 
L 644.02475 29.849123 
L 645.262473 29.847207 
L 645.675048 29.715529 
L 646.087622 29.715529 
L 646.500197 29.0713 
L 647.325346 29.0713 
L 648.150495 29.459672 
L 648.563069 29.328952 
L 650.625941 29.32991 
L 651.038516 29.46063 
L 651.45109 29.46063 
L 651.863665 29.331793 
L 652.276239 29.718312 
L 654.751686 29.717355 
L 655.16426 29.586634 
L 655.576835 29.586634 
L 655.989409 29.457819 
L 656.401984 28.94058 
L 656.814558 28.94058 
L 657.227133 29.338528 
L 658.464856 29.339486 
L 658.877431 29.471164 
L 659.70258 29.471164 
L 660.115154 29.339486 
L 660.527728 29.339486 
L 660.940303 29.471164 
L 661.352877 29.203936 
L 661.765452 29.202978 
L 662.178026 29.333698 
L 665.478622 29.332741 
L 666.303771 29.0713 
L 666.716345 29.0713 
L 667.12892 28.939622 
L 668.779218 28.939622 
L 669.604366 28.678182 
L 671.667239 28.678182 
L 672.079813 28.80986 
L 673.317537 28.80986 
L 673.730111 28.94058 
L 674.967834 28.94058 
L 675.380409 29.201073 
L 675.792983 29.201073 
L 676.205558 29.069395 
L 677.443281 29.069395 
L 677.855856 28.938675 
L 679.093579 28.938675 
L 679.506153 28.678182 
L 681.569026 28.678182 
L 682.394175 29.070353 
L 682.806749 29.201073 
L 685.282196 29.201073 
L 685.69477 29.331793 
L 686.519919 28.939622 
L 686.932494 29.073224 
L 687.757643 29.073224 
L 688.170217 29.337547 
L 688.582792 29.469225 
L 689.40794 29.469225 
L 689.820515 29.338504 
L 690.645664 29.338504 
L 691.058238 29.074182 
L 691.883387 29.074182 
L 692.295962 28.80986 
L 696.009132 28.808902 
L 696.421706 28.939622 
L 696.834281 28.808902 
L 697.246855 29.20685 
L 697.65943 29.20685 
L 698.072004 29.33757 
L 698.484578 29.33757 
L 698.897153 29.46829 
L 699.722302 29.859504 
L 700.134876 29.859504 
L 700.547451 29.728784 
L 700.960025 29.728784 
L 701.3726 29.461556 
L 702.197749 29.461556 
L 702.610323 29.592276 
L 703.022898 29.461556 
L 703.848046 29.070342 
L 704.260621 29.070342 
L 704.673195 29.201063 
L 705.08577 29.201063 
L 705.498344 29.070342 
L 705.910919 29.070342 
L 706.736068 28.808902 
L 707.973791 28.808902 
L 708.386365 29.20685 
L 708.79894 29.07613 
L 711.274387 29.07613 
L 711.686961 29.20685 
L 712.099536 29.20685 
L 712.51211 28.808902 
L 713.337259 28.808902 
L 714.162408 29.070342 
L 714.574982 29.330836 
L 714.987557 29.330836 
L 715.400131 29.461556 
L 715.812706 29.330836 
L 717.050429 29.330836 
L 717.463004 29.462514 
L 717.875578 29.463471 
L 718.700727 29.203936 
L 719.113301 29.334656 
L 719.525876 29.203936 
L 720.351025 29.203936 
L 721.176174 29.466334 
L 721.588748 29.334656 
L 722.413897 29.333698 
L 722.826471 29.20202 
L 723.239046 29.333694 
L 723.65162 30.126667 
L 724.064195 30.126667 
L 724.889344 30.387161 
L 725.301918 30.25644 
L 725.714493 30.387161 
L 726.127067 30.25644 
L 726.952216 30.649554 
L 727.364791 30.779321 
L 727.777365 30.248742 
L 728.189939 30.248742 
L 729.015088 29.988248 
L 729.840237 29.988248 
L 730.252812 31.131474 
L 730.665386 31.129573 
L 731.077961 30.998853 
L 731.90311 30.344299 
L 732.728258 30.344299 
L 733.140833 30.212621 
L 733.553407 30.475014 
L 733.965982 30.344294 
L 734.378556 29.331789 
L 734.791131 29.202016 
L 735.203705 29.202016 
L 735.61628 29.332736 
L 737.266577 29.332736 
L 737.679152 29.070342 
L 738.091726 29.46829 
L 738.916875 29.20685 
L 739.32945 29.338528 
L 739.742024 29.605756 
L 740.154599 29.736476 
L 740.567173 29.736476 
L 740.979748 29.868154 
L 741.392322 29.868154 
L 741.804897 30.128647 
L 742.217471 29.730699 
L 742.630045 29.861419 
L 743.04262 29.861419 
L 743.455194 30.37397 
L 743.867769 29.976022 
L 745.518067 29.976022 
L 745.930641 29.715529 
L 746.343216 29.715529 
L 746.75579 29.584809 
L 747.168364 29.584809 
L 747.580939 29.0713 
L 747.993513 29.202978 
L 748.406088 29.0713 
L 748.818662 29.20202 
L 750.46896 29.20202 
L 750.881535 29.333698 
L 751.294109 29.333698 
L 752.119258 29.0713 
L 752.531832 29.0713 
L 753.356981 28.80986 
L 754.594705 28.80986 
L 755.007279 28.678182 
L 756.657577 28.678182 
L 757.070151 28.80986 
L 757.482726 28.80986 
L 757.8953 28.94058 
L 758.307875 29.202974 
L 759.133024 29.202974 
L 759.545598 29.334652 
L 759.958173 29.334652 
L 760.370747 29.46633 
L 760.783322 29.46633 
L 761.195896 29.334652 
L 761.60847 29.334652 
L 762.021045 29.593262 
L 762.433619 29.330868 
L 763.258768 29.330868 
L 763.671343 29.19919 
L 764.083917 29.19919 
L 764.496492 29.067512 
L 764.909066 29.067512 
L 765.321641 29.19919 
L 765.734215 29.19919 
L 766.14679 28.941538 
L 766.559364 28.941538 
L 766.971938 29.073216 
L 768.622236 29.073216 
L 769.034811 29.204894 
L 769.447385 29.073216 
L 769.85996 29.073216 
L 770.272534 28.941538 
L 770.685109 28.941538 
L 771.097683 28.80986 
L 771.510257 28.94058 
L 772.335406 28.94058 
L 772.747981 29.072258 
L 773.160555 28.94058 
L 773.57313 29.202974 
L 775.223428 29.202974 
L 775.636002 29.072254 
L 776.048576 29.072254 
L 776.461151 29.203932 
L 776.873725 29.072254 
L 777.2863 29.072254 
L 778.111449 29.32991 
L 778.936598 29.32991 
L 779.349172 29.461588 
L 780.174321 29.461588 
L 780.586896 29.32991 
L 781.412044 29.32991 
L 782.237193 28.941538 
L 783.062342 28.941538 
L 783.474917 28.80986 
L 784.71264 28.80986 
L 785.125215 28.94058 
L 785.537789 29.201073 
L 785.950363 29.069395 
L 786.775512 29.330836 
L 788.838385 29.330836 
L 789.250959 29.200116 
L 789.663534 28.939622 
L 790.076108 28.939622 
L 790.488682 29.073224 
L 790.901257 28.942504 
L 793.789278 28.942504 
L 794.201853 29.073224 
L 794.614427 28.808902 
L 795.027002 28.808902 
L 795.85215 29.0713 
L 796.264725 29.0713 
L 796.677299 29.202978 
L 797.089874 29.202978 
L 797.502448 29.334656 
L 797.915023 29.334656 
L 798.327597 29.203936 
L 798.740172 29.203936 
L 799.152746 29.736499 
L 799.977895 29.736499 
L 800.390469 29.86722 
L 800.803044 30.127702 
L 801.628193 31.410568 
L 802.865916 31.410568 
L 803.278491 30.878004 
L 804.516214 30.484886 
L 804.928788 30.092725 
L 805.753937 28.678182 
L 806.166512 28.678182 
L 806.579086 29.346362 
L 806.991661 29.346362 
L 807.404235 29.735692 
L 810.292256 29.735692 
L 810.704831 29.067512 
L 811.117405 29.067512 
L 811.52998 28.678182 
L 813.180278 28.678182 
L 813.592852 28.938675 
L 814.005427 28.938675 
L 814.830575 29.201073 
L 815.655724 29.201073 
L 816.068299 29.331793 
L 816.480873 29.331793 
L 816.893448 29.592287 
L 817.718597 29.592287 
L 818.131171 29.723007 
L 818.95632 29.460609 
L 819.368894 29.460609 
L 819.781469 29.591329 
L 820.606618 29.592287 
L 821.019192 29.331793 
L 821.431767 29.331793 
L 821.844341 29.0713 
L 822.66949 29.072258 
L 823.082065 29.202978 
L 823.494639 29.202978 
L 824.319788 28.94058 
L 825.970086 28.94058 
L 826.38266 28.808902 
L 826.795235 28.808902 
L 827.207809 28.678182 
L 827.620384 28.678182 
L 828.032958 28.808902 
L 828.445533 29.198232 
L 829.270681 29.198232 
L 829.683256 30.218037 
L 831.746128 30.218037 
L 832.158703 30.087317 
L 832.571277 29.697987 
L 833.396426 29.697987 
L 833.809001 28.678182 
L 835.046724 28.678182 
L 835.459298 28.80986 
L 835.871873 29.074182 
L 839.172468 29.074182 
L 839.997617 28.808902 
L 840.410192 29.069395 
L 842.06049 29.069395 
L 842.885639 29.330836 
L 843.710787 29.330836 
L 844.123362 29.200116 
L 844.535936 28.939622 
L 845.77366 28.939622 
L 846.186234 29.070342 
L 847.011383 28.808902 
L 848.249107 28.808902 
L 848.661681 28.94058 
L 849.899404 28.94058 
L 850.311979 28.80986 
L 850.724553 28.941538 
L 852.374851 28.941538 
L 852.787426 28.80986 
L 852.787426 28.80986 
" clip-path="url(#pb9c80afa42)" style="fill: none; stroke-dasharray: 7.4,3.2; stroke-dashoffset: 0; stroke: #000000; stroke-width: 2"/>
   </g>
   <g id="patch_3">
    <path d="M 35.89 404.12 
L 35.89 10.8 
" style="fill: none; stroke: #000000; stroke-width: 0.8; stroke-linejoin: miter; stroke-linecap: square"/>
   </g>
   <g id="patch_4">
    <path d="M 853.2 404.12 
L 853.2 10.8 
" style="fill: none; stroke: #000000; stroke-width: 0.8; stroke-linejoin: miter; stroke-linecap: square"/>
   </g>
   <g id="patch_5">
    <path d="M 35.89 404.12 
L 853.2 404.12 
" style="fill: none; stroke: #000000; stroke-width: 0.8; stroke-linejoin: miter; stroke-linecap: square"/>
   </g>
   <g id="patch_6">
    <path d="M 35.89 10.8 
L 853.2 10.8 
" style="fill: none; stroke: #000000; stroke-width: 0.8; stroke-linejoin: miter; stroke-linecap: square"/>
   </g>
  </g>
 </g>
 <defs>
  <clipPath id="pb9c80afa42">
   <rect x="35.89" y="10.8" width="817.31" height="393.32"/>
  </clipPath>
 </defs>
</svg>
