<?xml version="1.0" encoding="utf-8" standalone="no"?>
<!DOCTYPE svg PUBLIC "-//W3C//DTD SVG 1.1//EN"
  "http://www.w3.org/Graphics/SVG/1.1/DTD/svg11.dtd">
<svg xmlns:xlink="http://www.w3.org/1999/xlink" width="864pt" height="432pt" viewBox="0 0 864 432" xmlns="http://www.w3.org/2000/svg" version="1.1">
 <metadata>
  <rdf:RDF xmlns:dc="http://purl.org/dc/elements/1.1/" xmlns:cc="http://creativecommons.org/ns#" xmlns:rdf="http://www.w3.org/1999/02/22-rdf-syntax-ns#">
   <cc:Work>
    <dc:type rdf:resource="http://purl.org/dc/dcmitype/StillImage"/>
    <dc:date>2024-09-19T11:09:26.348712</dc:date>
    <dc:format>image/svg+xml</dc:format>
    <dc:creator>
     <cc:Agent>
      <dc:title>Matplotlib v3.9.2, https://matplotlib.org/</dc:title>
     </cc:Agent>
    </dc:creator>
   </cc:Work>
  </rdf:RDF>
 </metadata>
 <defs>
  <style type="text/css">*{stroke-linejoin: round; stroke-linecap: butt}</style>
 </defs>
 <g id="figure_1">
  <g id="patch_1">
   <path d="M 0 432 
L 864 432 
L 864 0 
L 0 0 
z
" style="fill: #ffffff"/>
  </g>
  <g id="axes_1">
   <g id="patch_2">
    <path d="M 35.89 404.12 
L 853.2 404.12 
L 853.2 10.8 
L 35.89 10.8 
z
" style="fill: #ffffff"/>
   </g>
   <g id="matplotlib.axis_1">
    <g id="xtick_1">
     <g id="line2d_1">
      <defs>
       <path id="mbe8d96981f" d="M 0 0 
L 0 3.5 
" style="stroke: #000000; stroke-width: 0.8"/>
      </defs>
      <g>
       <use xlink:href="#mbe8d96981f" x="194.186534" y="404.12" style="stroke: #000000; stroke-width: 0.8"/>
      </g>
     </g>
     <g id="text_1">
      <!-- 200 -->
      <g transform="translate(185.156065 418.771563) scale(0.1 -0.1)">
       <defs>
        <path id="DejaVuSansMono-32" d="M 1166 531 
L 3309 531 
L 3309 0 
L 475 0 
L 475 531 
Q 1059 1147 1496 1619 
Q 1934 2091 2100 2284 
Q 2413 2666 2522 2902 
Q 2631 3138 2631 3384 
Q 2631 3775 2401 3997 
Q 2172 4219 1772 4219 
Q 1488 4219 1175 4116 
Q 863 4013 513 3803 
L 513 4441 
Q 834 4594 1145 4672 
Q 1456 4750 1759 4750 
Q 2444 4750 2861 4386 
Q 3278 4022 3278 3431 
Q 3278 3131 3139 2831 
Q 3000 2531 2688 2169 
Q 2513 1966 2180 1606 
Q 1847 1247 1166 531 
z
" transform="scale(0.015625)"/>
        <path id="DejaVuSansMono-30" d="M 1509 2344 
Q 1509 2516 1629 2641 
Q 1750 2766 1919 2766 
Q 2094 2766 2219 2641 
Q 2344 2516 2344 2344 
Q 2344 2169 2220 2047 
Q 2097 1925 1919 1925 
Q 1744 1925 1626 2044 
Q 1509 2163 1509 2344 
z
M 1925 4250 
Q 1484 4250 1267 3775 
Q 1050 3300 1050 2328 
Q 1050 1359 1267 884 
Q 1484 409 1925 409 
Q 2369 409 2586 884 
Q 2803 1359 2803 2328 
Q 2803 3300 2586 3775 
Q 2369 4250 1925 4250 
z
M 1925 4750 
Q 2672 4750 3055 4137 
Q 3438 3525 3438 2328 
Q 3438 1134 3055 521 
Q 2672 -91 1925 -91 
Q 1178 -91 797 521 
Q 416 1134 416 2328 
Q 416 3525 797 4137 
Q 1178 4750 1925 4750 
z
" transform="scale(0.015625)"/>
       </defs>
       <use xlink:href="#DejaVuSansMono-32"/>
       <use xlink:href="#DejaVuSansMono-30" x="60.205078"/>
       <use xlink:href="#DejaVuSansMono-30" x="120.410156"/>
      </g>
     </g>
    </g>
    <g id="xtick_2">
     <g id="line2d_2">
      <g>
       <use xlink:href="#mbe8d96981f" x="360.814465" y="404.12" style="stroke: #000000; stroke-width: 0.8"/>
      </g>
     </g>
     <g id="text_2">
      <!-- 400 -->
      <g transform="translate(351.783996 418.771563) scale(0.1 -0.1)">
       <defs>
        <path id="DejaVuSansMono-34" d="M 2297 4091 
L 825 1625 
L 2297 1625 
L 2297 4091 
z
M 2194 4666 
L 2925 4666 
L 2925 1625 
L 3547 1625 
L 3547 1113 
L 2925 1113 
L 2925 0 
L 2297 0 
L 2297 1113 
L 319 1113 
L 319 1709 
L 2194 4666 
z
" transform="scale(0.015625)"/>
       </defs>
       <use xlink:href="#DejaVuSansMono-34"/>
       <use xlink:href="#DejaVuSansMono-30" x="60.205078"/>
       <use xlink:href="#DejaVuSansMono-30" x="120.410156"/>
      </g>
     </g>
    </g>
    <g id="xtick_3">
     <g id="line2d_3">
      <g>
       <use xlink:href="#mbe8d96981f" x="527.442396" y="404.12" style="stroke: #000000; stroke-width: 0.8"/>
      </g>
     </g>
     <g id="text_3">
      <!-- 600 -->
      <g transform="translate(518.411927 418.771563) scale(0.1 -0.1)">
       <defs>
        <path id="DejaVuSansMono-36" d="M 3097 4563 
L 3097 3981 
Q 2900 4097 2678 4158 
Q 2456 4219 2216 4219 
Q 1616 4219 1306 3767 
Q 997 3316 997 2438 
Q 1147 2750 1412 2917 
Q 1678 3084 2022 3084 
Q 2697 3084 3067 2670 
Q 3438 2256 3438 1497 
Q 3438 741 3056 325 
Q 2675 -91 1984 -91 
Q 1172 -91 794 492 
Q 416 1075 416 2328 
Q 416 3509 870 4129 
Q 1325 4750 2188 4750 
Q 2419 4750 2650 4701 
Q 2881 4653 3097 4563 
z
M 1972 2591 
Q 1569 2591 1337 2300 
Q 1106 2009 1106 1497 
Q 1106 984 1337 693 
Q 1569 403 1972 403 
Q 2391 403 2603 679 
Q 2816 956 2816 1497 
Q 2816 2041 2603 2316 
Q 2391 2591 1972 2591 
z
" transform="scale(0.015625)"/>
       </defs>
       <use xlink:href="#DejaVuSansMono-36"/>
       <use xlink:href="#DejaVuSansMono-30" x="60.205078"/>
       <use xlink:href="#DejaVuSansMono-30" x="120.410156"/>
      </g>
     </g>
    </g>
    <g id="xtick_4">
     <g id="line2d_4">
      <g>
       <use xlink:href="#mbe8d96981f" x="694.070326" y="404.12" style="stroke: #000000; stroke-width: 0.8"/>
      </g>
     </g>
     <g id="text_4">
      <!-- 800 -->
      <g transform="translate(685.039857 418.771563) scale(0.1 -0.1)">
       <defs>
        <path id="DejaVuSansMono-38" d="M 1925 2216 
Q 1503 2216 1273 1980 
Q 1044 1744 1044 1313 
Q 1044 881 1276 642 
Q 1509 403 1925 403 
Q 2350 403 2579 639 
Q 2809 875 2809 1313 
Q 2809 1741 2576 1978 
Q 2344 2216 1925 2216 
z
M 1375 2478 
Q 972 2581 745 2862 
Q 519 3144 519 3541 
Q 519 4097 897 4423 
Q 1275 4750 1925 4750 
Q 2578 4750 2956 4423 
Q 3334 4097 3334 3541 
Q 3334 3144 3107 2862 
Q 2881 2581 2478 2478 
Q 2947 2375 3195 2062 
Q 3444 1750 3444 1253 
Q 3444 622 3041 265 
Q 2638 -91 1925 -91 
Q 1213 -91 811 264 
Q 409 619 409 1247 
Q 409 1747 657 2061 
Q 906 2375 1375 2478 
z
M 1147 3481 
Q 1147 3106 1347 2909 
Q 1547 2713 1925 2713 
Q 2306 2713 2506 2909 
Q 2706 3106 2706 3481 
Q 2706 3863 2507 4063 
Q 2309 4263 1925 4263 
Q 1547 4263 1347 4061 
Q 1147 3859 1147 3481 
z
" transform="scale(0.015625)"/>
       </defs>
       <use xlink:href="#DejaVuSansMono-38"/>
       <use xlink:href="#DejaVuSansMono-30" x="60.205078"/>
       <use xlink:href="#DejaVuSansMono-30" x="120.410156"/>
      </g>
     </g>
    </g>
   </g>
   <g id="matplotlib.axis_2">
    <g id="ytick_1">
     <g id="line2d_5">
      <defs>
       <path id="m31074dc7f8" d="M 0 0 
L -3.5 0 
" style="stroke: #000000; stroke-width: 0.8"/>
      </defs>
      <g>
       <use xlink:href="#m31074dc7f8" x="35.89" y="386.241818" style="stroke: #000000; stroke-width: 0.8"/>
      </g>
     </g>
     <g id="text_5">
      <!-- 0.0 -->
      <g transform="translate(10.829063 390.067599) scale(0.1 -0.1)">
       <defs>
        <path id="DejaVuSansMono-2e" d="M 1528 953 
L 2316 953 
L 2316 0 
L 1528 0 
L 1528 953 
z
" transform="scale(0.015625)"/>
       </defs>
       <use xlink:href="#DejaVuSansMono-30"/>
       <use xlink:href="#DejaVuSansMono-2e" x="60.205078"/>
       <use xlink:href="#DejaVuSansMono-30" x="120.410156"/>
      </g>
     </g>
    </g>
    <g id="ytick_2">
     <g id="line2d_6">
      <g>
       <use xlink:href="#m31074dc7f8" x="35.89" y="314.729091" style="stroke: #000000; stroke-width: 0.8"/>
      </g>
     </g>
     <g id="text_6">
      <!-- 0.2 -->
      <g transform="translate(10.829063 318.554872) scale(0.1 -0.1)">
       <use xlink:href="#DejaVuSansMono-30"/>
       <use xlink:href="#DejaVuSansMono-2e" x="60.205078"/>
       <use xlink:href="#DejaVuSansMono-32" x="120.410156"/>
      </g>
     </g>
    </g>
    <g id="ytick_3">
     <g id="line2d_7">
      <g>
       <use xlink:href="#m31074dc7f8" x="35.89" y="243.216364" style="stroke: #000000; stroke-width: 0.8"/>
      </g>
     </g>
     <g id="text_7">
      <!-- 0.4 -->
      <g transform="translate(10.829063 247.042145) scale(0.1 -0.1)">
       <use xlink:href="#DejaVuSansMono-30"/>
       <use xlink:href="#DejaVuSansMono-2e" x="60.205078"/>
       <use xlink:href="#DejaVuSansMono-34" x="120.410156"/>
      </g>
     </g>
    </g>
    <g id="ytick_4">
     <g id="line2d_8">
      <g>
       <use xlink:href="#m31074dc7f8" x="35.89" y="171.703636" style="stroke: #000000; stroke-width: 0.8"/>
      </g>
     </g>
     <g id="text_8">
      <!-- 0.6 -->
      <g transform="translate(10.829063 175.529418) scale(0.1 -0.1)">
       <use xlink:href="#DejaVuSansMono-30"/>
       <use xlink:href="#DejaVuSansMono-2e" x="60.205078"/>
       <use xlink:href="#DejaVuSansMono-36" x="120.410156"/>
      </g>
     </g>
    </g>
    <g id="ytick_5">
     <g id="line2d_9">
      <g>
       <use xlink:href="#m31074dc7f8" x="35.89" y="100.190909" style="stroke: #000000; stroke-width: 0.8"/>
      </g>
     </g>
     <g id="text_9">
      <!-- 0.8 -->
      <g transform="translate(10.829063 104.01669) scale(0.1 -0.1)">
       <use xlink:href="#DejaVuSansMono-30"/>
       <use xlink:href="#DejaVuSansMono-2e" x="60.205078"/>
       <use xlink:href="#DejaVuSansMono-38" x="120.410156"/>
      </g>
     </g>
    </g>
    <g id="ytick_6">
     <g id="line2d_10">
      <g>
       <use xlink:href="#m31074dc7f8" x="35.89" y="28.678182" style="stroke: #000000; stroke-width: 0.8"/>
      </g>
     </g>
     <g id="text_10">
      <!-- 1.0 -->
      <g transform="translate(10.829063 32.503963) scale(0.1 -0.1)">
       <defs>
        <path id="DejaVuSansMono-31" d="M 844 531 
L 1825 531 
L 1825 4097 
L 769 3859 
L 769 4434 
L 1819 4666 
L 2450 4666 
L 2450 531 
L 3419 531 
L 3419 0 
L 844 0 
L 844 531 
z
" transform="scale(0.015625)"/>
       </defs>
       <use xlink:href="#DejaVuSansMono-31"/>
       <use xlink:href="#DejaVuSansMono-2e" x="60.205078"/>
       <use xlink:href="#DejaVuSansMono-30" x="120.410156"/>
      </g>
     </g>
    </g>
   </g>
   <g id="line2d_11">
    <path d="M 27.558603 335.632398 
L 28.391743 334.362902 
L 29.224883 334.784946 
L 30.058022 336.59648 
L 30.891162 333.420914 
L 31.724302 328.101785 
L 32.557441 326.012925 
L 33.390581 328.295246 
L 35.05686 337.711041 
L 35.89 334.253298 
L 36.72314 342.472902 
L 38.389419 338.92245 
L 39.222559 342.660615 
L 40.055698 347.979744 
L 40.888838 358.669792 
L 41.721978 348.283136 
L 42.555117 348.283136 
L 43.388257 353.862144 
L 44.221397 358.027933 
L 45.054536 348.458761 
L 45.887676 359.169193 
L 46.720815 363.306293 
L 48.387095 342.98464 
L 49.220234 342.98464 
L 50.053374 353.371296 
L 51.719653 353.371296 
L 52.552793 352.57671 
L 54.219072 352.48654 
L 55.052212 352.48654 
L 55.885352 352.742432 
L 56.718491 363.234182 
L 57.551631 361.72865 
L 60.88419 319.550361 
L 61.717329 320.990099 
L 62.550469 317.985363 
L 63.383609 317.985363 
L 64.216748 328.372019 
L 65.049888 317.985363 
L 65.883028 319.490894 
L 66.716167 319.636222 
L 69.215586 351.409796 
L 70.048726 351.425299 
L 70.881865 354.430035 
L 72.548145 354.430035 
L 73.381284 364.816691 
L 74.214424 354.430035 
L 75.047564 364.671364 
L 75.880703 365.484008 
L 76.713843 355.097352 
L 78.380122 355.08185 
L 80.046402 333.968285 
L 81.712681 333.968285 
L 82.545821 344.354941 
L 84.2121 344.354941 
L 85.04524 354.741597 
L 85.878379 354.741597 
L 86.711519 365.128254 
L 87.544659 365.128254 
L 88.377798 375.855162 
L 90.877217 375.855162 
L 91.710357 367.186953 
L 95.042915 367.186953 
L 95.876055 377.573609 
L 96.709195 365.146093 
L 98.375474 365.146093 
L 99.208614 354.707415 
L 100.041753 363.375624 
L 102.541172 363.375624 
L 103.374312 353.328381 
L 104.207452 353.328381 
L 105.040591 365.755898 
L 106.706871 365.755898 
L 107.54001 376.194576 
L 109.20629 355.421263 
L 110.039429 355.421263 
L 110.872569 344.619861 
L 111.705708 343.602872 
L 113.371988 343.602872 
L 114.205127 333.216215 
L 115.038267 333.216215 
L 115.871407 321.394724 
L 116.704546 321.359927 
L 117.537686 331.746583 
L 118.370826 321.129506 
L 119.203965 321.544252 
L 120.037105 322.221828 
L 121.703384 322.221828 
L 122.536524 332.608484 
L 123.369664 322.164185 
L 124.202803 323.146641 
L 125.035943 333.568094 
L 125.869083 333.568094 
L 127.535362 354.571827 
L 130.86792 354.571827 
L 132.5342 375.855162 
L 135.866758 375.855162 
L 136.699898 386.241818 
L 137.533038 375.572069 
L 143.365015 375.572069 
L 144.198155 365.185412 
L 145.031295 365.185412 
L 145.864434 363.886505 
L 151.696412 363.886505 
L 152.529551 374.273161 
L 153.362691 374.273161 
L 154.195831 386.241818 
L 155.02897 375.647339 
L 155.86211 375.647339 
L 156.69525 364.707715 
L 157.528389 363.895071 
L 158.361529 363.895071 
L 159.194669 363.091557 
L 160.027808 363.091557 
L 161.694088 340.360909 
L 162.527227 340.360909 
L 163.360367 340.551362 
L 164.193507 330.164706 
L 165.026646 341.10433 
L 165.859786 331.322496 
L 166.692926 331.322496 
L 167.526065 322.129608 
L 168.359205 322.129608 
L 170.025484 344.860256 
L 170.858624 344.860256 
L 172.524903 365.650938 
L 173.358043 365.650938 
L 174.191182 376.245416 
L 175.024322 375.557794 
L 175.857462 375.15017 
L 176.690601 364.615366 
L 180.02316 364.615366 
L 181.689439 342.899429 
L 182.522579 342.899429 
L 183.355719 343.587051 
L 185.021998 364.525882 
L 185.855138 354.139225 
L 186.688277 354.139225 
L 187.521417 344.206903 
L 188.354557 344.206903 
L 190.020836 365.922839 
L 190.853976 365.922839 
L 191.687115 358.274419 
L 193.353394 358.274419 
L 194.186534 368.661076 
L 195.019674 368.661076 
L 195.852813 378.593398 
L 196.685953 370.525295 
L 199.185372 370.525295 
L 200.018512 378.173715 
L 203.35107 378.173715 
L 204.18421 367.646462 
L 205.01735 363.477094 
L 205.850489 363.477094 
L 206.683629 353.055641 
L 207.516769 339.214467 
L 208.349908 330.871315 
L 209.183048 330.871315 
L 210.016188 329.426613 
L 210.849327 324.272543 
L 211.682467 317.491164 
L 212.515607 318.775276 
L 213.348746 331.012747 
L 214.181886 328.801014 
L 215.015025 327.664854 
L 215.848165 329.58724 
L 216.681305 327.215941 
L 217.514444 327.215941 
L 218.347584 328.660643 
L 220.013863 338.471952 
L 220.847003 336.388544 
L 221.680143 336.388544 
L 222.513282 327.308794 
L 223.346422 327.574922 
L 224.179562 339.493711 
L 225.012701 345.573076 
L 225.845841 335.608188 
L 226.678981 332.067954 
L 227.51212 324.605756 
L 228.34526 326.729897 
L 229.1784 338.056446 
L 230.011539 336.550915 
L 230.844679 347.842399 
L 231.677819 353.335553 
L 232.510958 353.335553 
L 233.344098 346.857173 
L 234.177238 356.036207 
L 235.010377 357.364707 
L 235.843517 353.170645 
L 236.676656 341.422125 
L 237.509796 335.257235 
L 238.342936 327.264982 
L 239.176075 327.264982 
L 240.842355 318.157377 
L 241.675494 320.102543 
L 242.508634 307.390011 
L 243.341774 298.018697 
L 244.174913 309.674958 
L 245.008053 311.367 
L 245.841193 310.785407 
L 246.674332 312.885323 
L 247.507472 301.42145 
L 248.340612 299.43598 
L 249.173751 290.657175 
L 250.006891 285.745247 
L 250.840031 289.196391 
L 252.50631 284.231118 
L 254.172589 280.82949 
L 255.838869 275.525235 
L 256.672008 275.031996 
L 257.505148 278.916443 
L 258.338287 290.761897 
L 259.171427 289.579869 
L 260.004567 289.087962 
L 260.837706 282.789052 
L 261.670846 281.751227 
L 262.503986 276.682776 
L 263.337125 272.439836 
L 264.170265 270.708058 
L 265.003405 269.499392 
L 265.836544 263.322519 
L 266.669684 251.167535 
L 267.502824 245.710503 
L 268.335963 246.005376 
L 269.169103 239.344192 
L 270.002243 235.739225 
L 270.835382 234.331814 
L 271.668522 235.8519 
L 273.334801 234.605376 
L 274.167941 234.421125 
L 275.001081 233.088225 
L 275.83422 236.23045 
L 276.66736 235.612531 
L 277.500499 237.063388 
L 278.333639 242.429329 
L 279.166779 242.677637 
L 279.999918 238.902018 
L 280.833058 238.448329 
L 281.666198 237.576588 
L 282.499337 236.153711 
L 283.332477 235.98465 
L 284.165617 231.650544 
L 284.998756 231.02216 
L 285.831896 227.619128 
L 286.665036 220.810197 
L 287.498175 218.182481 
L 288.331315 218.426461 
L 289.164455 220.359407 
L 289.997594 217.848791 
L 290.830734 216.026247 
L 291.663874 212.78717 
L 292.497013 212.191234 
L 293.330153 208.445493 
L 294.163293 206.619638 
L 295.829572 202.145133 
L 296.662712 197.246661 
L 297.495851 191.065988 
L 298.328991 187.662621 
L 299.16213 185.67964 
L 299.99527 182.738605 
L 300.82841 181.05222 
L 301.661549 178.162537 
L 302.494689 172.791539 
L 303.327829 169.682191 
L 304.160968 165.132996 
L 304.994108 164.529694 
L 305.827248 160.996944 
L 306.660387 159.357522 
L 307.493527 155.743435 
L 308.326667 152.653376 
L 309.159806 147.120687 
L 309.992946 143.708646 
L 310.826086 142.291992 
L 311.659225 139.435991 
L 312.492365 138.374066 
L 313.325505 135.32545 
L 314.158644 135.555384 
L 315.824924 130.108961 
L 319.157482 121.008647 
L 319.990622 119.572346 
L 320.823761 117.193158 
L 322.490041 111.243978 
L 323.32318 109.706067 
L 325.822599 103.471301 
L 326.655739 100.84151 
L 329.155158 91.513657 
L 330.821437 85.002374 
L 331.654577 81.347682 
L 333.320856 78.759867 
L 334.153996 78.11402 
L 334.987136 75.560695 
L 335.820275 74.693873 
L 337.486555 70.385771 
L 338.319694 67.428082 
L 339.152834 65.845202 
L 339.985973 65.098151 
L 340.819113 62.332464 
L 341.652253 60.589135 
L 342.485392 58.005062 
L 343.318532 58.327598 
L 344.984811 57.580469 
L 345.817951 57.737832 
L 346.651091 60.562806 
L 347.48423 61.636497 
L 348.31737 60.92746 
L 349.15051 60.462639 
L 349.983649 59.385101 
L 350.816789 60.146844 
L 351.649929 59.361289 
L 353.316208 57.523533 
L 354.149348 56.323245 
L 354.982487 53.106162 
L 355.815627 50.359816 
L 356.648767 48.658569 
L 357.481906 48.257939 
L 358.315046 47.565935 
L 359.148186 45.313634 
L 359.981325 45.120921 
L 360.814465 45.549461 
L 361.647604 44.249776 
L 362.480744 44.052596 
L 363.313884 44.684666 
L 364.147023 43.994888 
L 364.980163 44.719362 
L 365.813303 44.038287 
L 366.646442 44.730291 
L 367.479582 44.742375 
L 368.312722 44.367189 
L 369.145861 43.541353 
L 369.979001 43.935656 
L 370.812141 43.902959 
L 371.64528 42.437065 
L 372.47842 42.016609 
L 373.31156 40.441139 
L 374.144699 39.830522 
L 374.977839 38.919472 
L 375.810979 39.12128 
L 376.644118 38.270534 
L 377.477258 36.695064 
L 378.310398 37.451394 
L 379.143537 37.719952 
L 379.976677 38.537242 
L 380.809817 38.537242 
L 381.642956 42.181094 
L 382.476096 42.780168 
L 383.309235 42.359505 
L 384.975515 41.960501 
L 385.808654 42.390834 
L 386.641794 42.093928 
L 387.474934 41.421345 
L 388.308073 41.580262 
L 389.141213 42.931932 
L 389.974353 39.490051 
L 390.807492 38.686668 
L 391.640632 38.465393 
L 392.473772 38.652866 
L 393.306911 39.456062 
L 394.140051 38.819059 
L 394.973191 37.544708 
L 395.80633 37.347287 
L 396.63947 36.378167 
L 397.47261 37.10487 
L 398.305749 37.323449 
L 399.138889 37.116765 
L 399.972029 36.701035 
L 400.805168 36.088108 
L 401.638308 35.073465 
L 402.471448 35.489194 
L 403.304587 36.095156 
L 404.137727 36.292578 
L 404.970866 37.615806 
L 405.804006 36.129738 
L 406.637146 35.904235 
L 407.470285 36.310557 
L 408.303425 36.312919 
L 409.136565 36.10386 
L 409.969704 36.731082 
L 410.802844 36.522024 
L 411.635984 35.9137 
L 412.469123 35.110317 
L 413.302263 33.167036 
L 414.968542 31.96869 
L 415.801682 32.168409 
L 416.634822 32.166048 
L 417.467961 33.399025 
L 418.301101 33.380127 
L 419.134241 33.173456 
L 419.96738 33.791118 
L 420.80052 35.534782 
L 421.63366 35.941104 
L 422.466799 35.328138 
L 423.299939 36.386018 
L 424.133078 35.9843 
L 424.966218 36.985248 
L 425.799358 35.547961 
L 426.632497 36.493825 
L 427.465637 36.289503 
L 428.298777 35.878511 
L 429.131916 34.132486 
L 429.965056 33.930487 
L 430.798196 34.34148 
L 431.631335 33.689922 
L 432.464475 33.896594 
L 433.297615 33.532649 
L 434.130754 33.946017 
L 434.963894 33.028834 
L 435.797034 33.235518 
L 436.630173 34.016404 
L 437.463313 34.018765 
L 438.296453 34.420484 
L 439.129592 34.622455 
L 439.962732 35.038118 
L 440.795872 35.042895 
L 441.629011 35.393448 
L 442.462151 34.773396 
L 443.295291 33.93207 
L 444.12843 33.93207 
L 444.96157 32.740191 
L 445.794709 32.533507 
L 446.627849 32.13415 
L 447.460989 31.936954 
L 448.294128 31.114969 
L 449.127268 31.105521 
L 449.960408 30.519682 
L 452.459827 31.132688 
L 454.126106 31.132688 
L 454.959246 31.532045 
L 455.792385 31.532045 
L 456.625525 31.938367 
L 457.458665 32.138086 
L 458.291804 32.530828 
L 459.124944 32.530828 
L 460.791223 32.124506 
L 462.457503 32.124506 
L 463.290642 31.518465 
L 464.123782 31.309379 
L 464.956922 31.706571 
L 465.790061 31.307214 
L 466.623201 30.714753 
L 467.45634 30.508069 
L 469.12262 30.921477 
L 470.788899 30.921477 
L 471.622039 31.128161 
L 472.455178 30.921477 
L 473.288318 30.117964 
L 474.121458 30.115602 
L 474.954597 29.913603 
L 475.787737 30.329373 
L 476.620877 30.331734 
L 477.454016 30.120287 
L 478.287156 31.119069 
L 479.120296 31.119069 
L 480.786575 31.525391 
L 481.619715 31.525391 
L 482.452854 31.321069 
L 483.285994 31.321069 
L 484.952273 30.905299 
L 485.785413 31.542303 
L 486.618552 30.949842 
L 487.451692 33.075898 
L 489.117971 32.667215 
L 489.951111 32.667215 
L 490.784251 32.871537 
L 492.45053 32.871537 
L 493.28367 33.712863 
L 494.116809 32.871537 
L 494.949949 32.871537 
L 495.783089 30.745481 
L 496.616228 30.947481 
L 497.449368 30.947481 
L 498.282508 31.946263 
L 500.781927 31.946263 
L 501.615066 31.311621 
L 502.448206 32.115135 
L 503.281346 31.708813 
L 504.114485 31.708813 
L 504.947625 31.302491 
L 505.780765 31.302491 
L 506.613904 30.303708 
L 509.113323 29.688379 
L 509.946463 29.686018 
L 510.779602 28.882504 
L 511.612742 28.882504 
L 512.445882 29.298274 
L 513.279021 29.298274 
L 515.77844 29.913603 
L 517.44472 29.913603 
L 518.277859 29.70928 
L 519.110999 29.915964 
L 519.944139 29.915964 
L 520.777278 29.500195 
L 522.443558 29.502556 
L 524.109837 29.09155 
L 525.776116 29.09155 
L 526.609256 29.295872 
L 527.442396 29.293511 
L 528.275535 29.899552 
L 529.108675 30.305874 
L 529.941814 30.305874 
L 530.774954 30.09919 
L 531.608094 30.09919 
L 532.441233 30.514959 
L 534.107513 30.514959 
L 535.773792 30.106314 
L 536.606932 29.706957 
L 537.440071 29.504958 
L 538.273211 29.70928 
L 539.106351 30.115602 
L 539.93949 30.319925 
L 540.77263 29.904155 
L 541.60577 30.108478 
L 544.105189 30.108478 
L 544.938328 30.317563 
L 545.771468 30.113241 
L 546.604608 30.115602 
L 547.437747 29.70928 
L 548.270887 29.91128 
L 549.104027 30.322274 
L 549.937166 30.524273 
L 552.436585 30.524273 
L 553.269725 30.315187 
L 554.102864 30.315187 
L 555.769144 30.719148 
L 556.602283 31.504705 
L 557.435423 31.298034 
L 558.268563 30.891712 
L 559.101702 30.891712 
L 560.767982 31.302719 
L 561.601121 31.096035 
L 562.434261 31.096035 
L 563.267401 30.689713 
L 564.10054 31.326717 
L 564.93368 30.134837 
L 565.76682 29.930514 
L 566.599959 30.536555 
L 567.433099 30.536555 
L 569.099378 30.125549 
L 571.598797 30.125549 
L 572.431937 29.488545 
L 573.265076 29.692868 
L 574.098216 29.692868 
L 574.931356 29.086827 
L 579.097054 29.086827 
L 579.930194 29.291149 
L 580.763333 29.086827 
L 582.429613 29.502597 
L 584.929032 29.502597 
L 585.762171 29.706919 
L 586.595311 29.706919 
L 587.428451 29.911242 
L 588.26159 29.706919 
L 589.09473 30.764799 
L 589.92787 30.976336 
L 590.761009 30.772013 
L 593.260428 30.772013 
L 594.093568 30.567691 
L 594.926707 30.567691 
L 595.759847 31.166882 
L 596.592987 31.371204 
L 597.426126 30.313324 
L 598.259266 29.892702 
L 599.925545 29.892702 
L 601.591825 30.303708 
L 602.424964 30.71003 
L 603.258104 30.916714 
L 604.091244 30.317523 
L 604.924383 30.1132 
L 605.757523 30.317523 
L 606.590663 30.110839 
L 607.423802 30.110839 
L 608.256942 30.526609 
L 609.923221 30.115602 
L 610.756361 29.70928 
L 611.589501 30.694476 
L 612.42264 30.490154 
L 613.25578 30.490154 
L 614.088919 30.285831 
L 618.254618 30.285831 
L 619.087757 30.692153 
L 619.920897 29.704596 
L 620.754037 30.310637 
L 621.587176 30.310637 
L 622.420316 30.514959 
L 624.086595 30.514959 
L 624.919735 30.303512 
L 626.586014 30.303512 
L 627.419154 29.89719 
L 628.252294 29.692868 
L 629.085433 29.086827 
L 629.918573 29.086827 
L 630.751713 28.882504 
L 634.084271 28.882504 
L 634.917411 29.298274 
L 635.75055 29.504958 
L 640.749388 29.504958 
L 641.582528 29.906676 
L 642.415668 29.906676 
L 643.248807 29.490907 
L 644.081947 29.284223 
L 645.748226 29.284223 
L 646.581366 29.490907 
L 649.080785 29.490907 
L 649.913925 29.295859 
L 653.246483 29.295859 
L 654.079623 29.500182 
L 654.912762 29.293498 
L 656.579042 29.293498 
L 657.412181 29.49782 
L 658.245321 29.086827 
L 660.74474 29.086827 
L 661.57788 29.714133 
L 662.411019 29.509811 
L 664.910438 29.509811 
L 667.409857 30.728845 
L 668.242997 31.334886 
L 669.076137 31.334886 
L 669.909276 30.707579 
L 670.742416 30.911902 
L 671.575556 31.318224 
L 672.408695 31.524908 
L 673.241835 32.137873 
L 674.074975 31.531832 
L 674.908114 31.120838 
L 675.741254 31.906396 
L 676.574393 31.507039 
L 679.073812 31.507039 
L 679.906952 31.100717 
L 680.740092 30.894033 
L 681.573231 30.281068 
L 683.239511 30.281068 
L 684.07265 29.089188 
L 684.90579 28.882504 
L 685.73893 28.882504 
L 686.572069 29.502556 
L 687.405209 29.298234 
L 688.238349 29.502556 
L 689.071488 29.502556 
L 689.904628 29.908878 
L 690.737768 29.908878 
L 691.570907 30.514919 
L 692.404047 30.514919 
L 693.237187 31.134971 
L 694.070326 31.134971 
L 694.903466 30.514919 
L 695.736606 30.719241 
L 696.569745 30.719241 
L 697.402885 31.125563 
L 698.236024 30.719241 
L 699.069164 30.719241 
L 699.902304 30.1132 
L 700.735443 30.1132 
L 701.568583 29.493149 
L 702.401723 29.493149 
L 703.234862 29.899471 
L 704.901142 29.901832 
L 705.734281 29.49551 
L 710.733119 29.49551 
L 711.566259 29.089188 
L 713.232538 28.678182 
L 714.065678 28.678182 
L 714.898818 29.084504 
L 715.731957 29.291188 
L 722.397074 29.291188 
L 724.063354 28.884866 
L 725.729633 28.884866 
L 726.562773 29.09155 
L 727.395912 29.697591 
L 730.728471 29.697591 
L 731.561611 29.490907 
L 733.22789 29.490907 
L 734.06103 29.695229 
L 734.894169 29.692868 
L 735.727309 29.086827 
L 736.560449 29.493149 
L 737.393588 29.697471 
L 738.226728 29.697471 
L 739.059867 30.324778 
L 739.893007 30.324778 
L 740.726147 30.531462 
L 742.392426 30.531462 
L 743.225566 30.738133 
L 744.058705 31.930013 
L 745.724985 31.523691 
L 746.558124 31.523691 
L 747.391264 30.896384 
L 748.224404 30.896384 
L 749.057543 31.10547 
L 749.890683 31.10547 
L 750.723823 30.901147 
L 751.556962 30.490154 
L 752.390102 29.298274 
L 753.223242 29.093952 
L 754.889521 29.093952 
L 755.722661 29.298274 
L 756.5558 29.298274 
L 757.38894 28.882504 
L 759.055219 28.882504 
L 759.888359 29.288826 
L 760.721498 29.49551 
L 768.219755 29.49551 
L 769.052895 29.288826 
L 770.719174 29.699833 
L 771.552314 29.699833 
L 772.385454 29.49551 
L 773.218593 29.49551 
L 774.051733 29.702194 
L 774.884873 30.54352 
L 775.718012 30.747843 
L 776.551152 30.545843 
L 777.384292 30.952165 
L 778.217431 31.551356 
L 779.050571 31.950713 
L 779.88371 32.155036 
L 782.383129 32.155036 
L 783.216269 31.729479 
L 784.049409 31.940927 
L 784.882548 31.943288 
L 785.715688 31.536966 
L 787.381967 30.331734 
L 788.215107 30.127412 
L 789.881386 30.536057 
L 790.714526 31.132886 
L 792.380805 30.301347 
L 793.213945 30.094663 
L 794.047085 30.298985 
L 794.880224 30.094663 
L 796.546504 30.094663 
L 798.212783 29.686018 
L 799.045923 28.882504 
L 799.879062 29.089188 
L 801.545341 29.920728 
L 802.378481 29.716405 
L 803.211621 30.122727 
L 804.8779 30.531372 
L 805.71104 30.531372 
L 806.544179 30.735695 
L 807.377319 30.735695 
L 808.210459 30.529011 
L 809.876738 29.697471 
L 810.709878 29.697471 
L 813.209297 29.086827 
L 814.042436 29.086827 
L 814.875576 28.882504 
L 815.708716 29.086827 
L 818.208135 29.086827 
L 819.041274 29.293511 
L 819.874414 29.089188 
L 826.539531 29.089188 
L 827.372671 28.882504 
L 828.20581 29.298274 
L 829.03895 29.504958 
L 829.87209 29.504958 
L 830.705229 30.503741 
L 831.538369 30.910062 
L 835.704067 30.910062 
L 836.537207 30.494293 
L 838.203486 30.494293 
L 839.036626 29.702194 
L 839.869766 29.702194 
L 840.702905 29.497872 
L 841.536045 29.497872 
L 842.369185 29.702194 
L 843.202324 31.273902 
L 844.868603 31.273902 
L 846.534883 31.689672 
L 847.368022 31.482988 
L 849.867441 31.48766 
L 850.700581 31.283337 
L 851.533721 29.915952 
L 852.36686 29.915952 
L 852.36686 29.915952 
" clip-path="url(#p19c3137d60)" style="fill: none; stroke-dasharray: 7.4,3.2; stroke-dashoffset: 0; stroke: #000000; stroke-width: 2"/>
   </g>
   <g id="patch_3">
    <path d="M 35.89 404.12 
L 35.89 10.8 
" style="fill: none; stroke: #000000; stroke-width: 0.8; stroke-linejoin: miter; stroke-linecap: square"/>
   </g>
   <g id="patch_4">
    <path d="M 853.2 404.12 
L 853.2 10.8 
" style="fill: none; stroke: #000000; stroke-width: 0.8; stroke-linejoin: miter; stroke-linecap: square"/>
   </g>
   <g id="patch_5">
    <path d="M 35.89 404.12 
L 853.2 404.12 
" style="fill: none; stroke: #000000; stroke-width: 0.8; stroke-linejoin: miter; stroke-linecap: square"/>
   </g>
   <g id="patch_6">
    <path d="M 35.89 10.8 
L 853.2 10.8 
" style="fill: none; stroke: #000000; stroke-width: 0.8; stroke-linejoin: miter; stroke-linecap: square"/>
   </g>
  </g>
 </g>
 <defs>
  <clipPath id="p19c3137d60">
   <rect x="35.89" y="10.8" width="817.31" height="393.32"/>
  </clipPath>
 </defs>
</svg>
