<?xml version="1.0" encoding="utf-8" standalone="no"?>
<!DOCTYPE svg PUBLIC "-//W3C//DTD SVG 1.1//EN"
  "http://www.w3.org/Graphics/SVG/1.1/DTD/svg11.dtd">
<svg xmlns:xlink="http://www.w3.org/1999/xlink" width="864pt" height="360pt" viewBox="0 0 864 360" xmlns="http://www.w3.org/2000/svg" version="1.1">
 <metadata>
  <rdf:RDF xmlns:dc="http://purl.org/dc/elements/1.1/" xmlns:cc="http://creativecommons.org/ns#" xmlns:rdf="http://www.w3.org/1999/02/22-rdf-syntax-ns#">
   <cc:Work>
    <dc:type rdf:resource="http://purl.org/dc/dcmitype/StillImage"/>
    <dc:date>2024-09-16T23:37:33.926899</dc:date>
    <dc:format>image/svg+xml</dc:format>
    <dc:creator>
     <cc:Agent>
      <dc:title>Matplotlib v3.9.2, https://matplotlib.org/</dc:title>
     </cc:Agent>
    </dc:creator>
   </cc:Work>
  </rdf:RDF>
 </metadata>
 <defs>
  <style type="text/css">*{stroke-linejoin: round; stroke-linecap: butt}</style>
 </defs>
 <g id="figure_1">
  <g id="patch_1">
   <path d="M 0 360 
L 864 360 
L 864 0 
L 0 0 
z
" style="fill: #ffffff"/>
  </g>
  <g id="axes_1">
   <g id="patch_2">
    <path d="M 36.36 328.931379 
L 853.2 328.931379 
L 853.2 19.095517 
L 36.36 19.095517 
z
" style="fill: #ffffff"/>
   </g>
   <g id="patch_3">
    <path d="M 59.386637 305.904742 
L 69.667156 305.904742 
L 69.667156 295.624223 
L 59.386637 295.624223 
z
" clip-path="url(#pb72caea710)" style="stroke: #000000; stroke-linejoin: miter"/>
   </g>
   <g id="patch_4">
    <path d="M 89.977151 303.481125 
L 95.410435 303.481125 
L 95.410435 298.047841 
L 89.977151 298.047841 
z
" clip-path="url(#pb72caea710)" style="stroke: #000000; stroke-linejoin: miter"/>
   </g>
   <g id="patch_5">
    <path d="M 118.321014 303.304159 
L 123.400366 303.304159 
L 123.400366 298.224807 
L 118.321014 298.224807 
z
" clip-path="url(#pb72caea710)" style="stroke: #000000; stroke-linejoin: miter"/>
   </g>
   <g id="patch_6">
    <path d="M 146.980601 302.811468 
L 151.074572 302.811468 
L 151.074572 298.717497 
L 146.980601 298.717497 
z
" clip-path="url(#pb72caea710)" style="stroke: #000000; stroke-linejoin: miter"/>
   </g>
   <g id="patch_7">
    <path d="M 174.032067 303.926899 
L 180.356899 303.926899 
L 180.356899 297.602067 
L 174.032067 297.602067 
z
" clip-path="url(#pb72caea710)" style="stroke: #000000; stroke-linejoin: miter"/>
   </g>
   <g id="patch_8">
    <path d="M 202.565033 303.560829 
L 208.157725 303.560829 
L 208.157725 297.968137 
L 202.565033 297.968137 
z
" clip-path="url(#pb72caea710)" style="stroke: #000000; stroke-linejoin: miter"/>
   </g>
   <g id="patch_9">
    <path d="M 232.150141 302.142618 
L 234.906411 302.142618 
L 234.906411 299.386348 
L 232.150141 299.386348 
z
" clip-path="url(#pb72caea710)" style="stroke: #000000; stroke-linejoin: miter"/>
   </g>
   <g id="patch_10">
    <path d="M 259.74978 302.709875 
L 263.640565 302.709875 
L 263.640565 298.81909 
L 259.74978 298.81909 
z
" clip-path="url(#pb72caea710)" style="stroke: #000000; stroke-linejoin: miter"/>
   </g>
   <g id="patch_11">
    <path d="M 288.020704 302.605848 
L 291.703434 302.605848 
L 291.703434 298.923118 
L 288.020704 298.923118 
z
" clip-path="url(#pb72caea710)" style="stroke: #000000; stroke-linejoin: miter"/>
   </g>
   <g id="patch_12">
    <path d="M 316.721843 302.071605 
L 319.336088 302.071605 
L 319.336088 299.45736 
L 316.721843 299.45736 
z
" clip-path="url(#pb72caea710)" style="stroke: #000000; stroke-linejoin: miter"/>
   </g>
   <g id="patch_13">
    <path d="M 345.363936 301.596409 
L 347.027788 301.596409 
L 347.027788 299.932557 
L 345.363936 299.932557 
z
" clip-path="url(#pb72caea710)" style="stroke: #000000; stroke-linejoin: miter"/>
   </g>
   <g id="patch_14">
    <path d="M 374.00292 301.124322 
L 374.722597 301.124322 
L 374.722597 300.404644 
L 374.00292 300.404644 
z
" clip-path="url(#pb72caea710)" style="stroke: #000000; stroke-linejoin: miter"/>
   </g>
   <g id="patch_15">
    <path d="M 400.00759 303.286548 
L 405.051721 303.286548 
L 405.051721 298.242417 
L 400.00759 298.242417 
z
" clip-path="url(#pb72caea710)" style="stroke: #000000; stroke-linejoin: miter"/>
   </g>
   <g id="patch_16">
    <path d="M 428.526487 302.934548 
L 432.866617 302.934548 
L 432.866617 298.594418 
L 428.526487 298.594418 
z
" clip-path="url(#pb72caea710)" style="stroke: #000000; stroke-linejoin: miter"/>
   </g>
   <g id="patch_17">
    <path d="M 456.22724 303.400691 
L 461.499657 303.400691 
L 461.499657 298.128274 
L 456.22724 298.128274 
z
" clip-path="url(#pb72caea710)" style="stroke: #000000; stroke-linejoin: miter"/>
   </g>
   <g id="patch_18">
    <path d="M 484.771625 303.023202 
L 489.289064 303.023202 
L 489.289064 298.505763 
L 484.771625 298.505763 
z
" clip-path="url(#pb72caea710)" style="stroke: #000000; stroke-linejoin: miter"/>
   </g>
   <g id="patch_19">
    <path d="M 513.979472 301.982252 
L 516.415011 301.982252 
L 516.415011 299.546713 
L 513.979472 299.546713 
z
" clip-path="url(#pb72caea710)" style="stroke: #000000; stroke-linejoin: miter"/>
   </g>
   <g id="patch_20">
    <path d="M 541.509613 302.619008 
L 545.218663 302.619008 
L 545.218663 298.909958 
L 541.509613 298.909958 
z
" clip-path="url(#pb72caea710)" style="stroke: #000000; stroke-linejoin: miter"/>
   </g>
   <g id="patch_21">
    <path d="M 570.051168 302.244349 
L 573.010901 302.244349 
L 573.010901 299.284616 
L 570.051168 299.284616 
z
" clip-path="url(#pb72caea710)" style="stroke: #000000; stroke-linejoin: miter"/>
   </g>
   <g id="patch_22">
    <path d="M 599.338092 301.124322 
L 600.05777 301.124322 
L 600.05777 300.404644 
L 599.338092 300.404644 
z
" clip-path="url(#pb72caea710)" style="stroke: #000000; stroke-linejoin: miter"/>
   </g>
   <g id="patch_23">
    <path d="M 624.878924 303.750387 
L 630.850731 303.750387 
L 630.850731 297.778579 
L 624.878924 297.778579 
z
" clip-path="url(#pb72caea710)" style="stroke: #000000; stroke-linejoin: miter"/>
   </g>
   <g id="patch_24">
    <path d="M 654.272174 302.524033 
L 657.791274 302.524033 
L 657.791274 299.004933 
L 654.272174 299.004933 
z
" clip-path="url(#pb72caea710)" style="stroke: #000000; stroke-linejoin: miter"/>
   </g>
   <g id="patch_25">
    <path d="M 682.066654 302.896449 
L 686.330587 302.896449 
L 686.330587 298.632516 
L 682.066654 298.632516 
z
" clip-path="url(#pb72caea710)" style="stroke: #000000; stroke-linejoin: miter"/>
   </g>
   <g id="patch_26">
    <path d="M 708.878529 304.251471 
L 715.852506 304.251471 
L 715.852506 297.277494 
L 708.878529 297.277494 
z
" clip-path="url(#pb72caea710)" style="stroke: #000000; stroke-linejoin: miter"/>
   </g>
   <g id="patch_27">
    <path d="M 738.307684 302.989212 
L 742.757143 302.989212 
L 742.757143 298.539753 
L 738.307684 298.539753 
z
" clip-path="url(#pb72caea710)" style="stroke: #000000; stroke-linejoin: miter"/>
   </g>
   <g id="patch_28">
    <path d="M 763.480896 305.982897 
L 773.917725 305.982897 
L 773.917725 295.546068 
L 763.480896 295.546068 
z
" clip-path="url(#pb72caea710)" style="stroke: #000000; stroke-linejoin: miter"/>
   </g>
   <g id="patch_29">
    <path d="M 786.385647 311.245042 
L 807.346767 311.245042 
L 807.346767 290.283923 
L 786.385647 290.283923 
z
" clip-path="url(#pb72caea710)" style="stroke: #000000; stroke-linejoin: miter"/>
   </g>
   <g id="patch_30">
    <path d="M 59.152143 277.97234 
L 69.90165 277.97234 
L 69.90165 267.222833 
L 59.152143 267.222833 
z
" clip-path="url(#pb72caea710)" style="stroke: #000000; stroke-linejoin: miter"/>
   </g>
   <g id="patch_31">
    <path d="M 88.697364 276.594015 
L 96.690222 276.594015 
L 96.690222 268.601157 
L 88.697364 268.601157 
z
" clip-path="url(#pb72caea710)" style="stroke: #000000; stroke-linejoin: miter"/>
   </g>
   <g id="patch_32">
    <path d="M 118.29406 275.164216 
L 123.427319 275.164216 
L 123.427319 270.030957 
L 118.29406 270.030957 
z
" clip-path="url(#pb72caea710)" style="stroke: #000000; stroke-linejoin: miter"/>
   </g>
   <g id="patch_33">
    <path d="M 144.894883 276.73029 
L 153.16029 276.73029 
L 153.16029 268.464883 
L 144.894883 268.464883 
z
" clip-path="url(#pb72caea710)" style="stroke: #000000; stroke-linejoin: miter"/>
   </g>
   <g id="patch_34">
    <path d="M 174.46947 275.322599 
L 179.919496 275.322599 
L 179.919496 269.872573 
L 174.46947 269.872573 
z
" clip-path="url(#pb72caea710)" style="stroke: #000000; stroke-linejoin: miter"/>
   </g>
   <g id="patch_35">
    <path d="M 202.479569 275.479397 
L 208.24319 275.479397 
L 208.24319 269.715776 
L 202.479569 269.715776 
z
" clip-path="url(#pb72caea710)" style="stroke: #000000; stroke-linejoin: miter"/>
   </g>
   <g id="patch_36">
    <path d="M 229.956056 276.169806 
L 237.100496 276.169806 
L 237.100496 269.025366 
L 229.956056 269.025366 
z
" clip-path="url(#pb72caea710)" style="stroke: #000000; stroke-linejoin: miter"/>
   </g>
   <g id="patch_37">
    <path d="M 258.797297 275.495462 
L 264.593048 275.495462 
L 264.593048 269.69971 
L 258.797297 269.69971 
z
" clip-path="url(#pb72caea710)" style="stroke: #000000; stroke-linejoin: miter"/>
   </g>
   <g id="patch_38">
    <path d="M 286.601862 275.857793 
L 293.122276 275.857793 
L 293.122276 269.337379 
L 286.601862 269.337379 
z
" clip-path="url(#pb72caea710)" style="stroke: #000000; stroke-linejoin: miter"/>
   </g>
   <g id="patch_39">
    <path d="M 316.702154 273.924397 
L 319.355777 273.924397 
L 319.355777 271.270775 
L 316.702154 271.270775 
z
" clip-path="url(#pb72caea710)" style="stroke: #000000; stroke-linejoin: miter"/>
   </g>
   <g id="patch_40">
    <path d="M 343.476988 275.31646 
L 348.914736 275.31646 
L 348.914736 269.878712 
L 343.476988 269.878712 
z
" clip-path="url(#pb72caea710)" style="stroke: #000000; stroke-linejoin: miter"/>
   </g>
   <g id="patch_41">
    <path d="M 372.286473 274.673872 
L 376.439045 274.673872 
L 376.439045 270.5213 
L 372.286473 270.5213 
z
" clip-path="url(#pb72caea710)" style="stroke: #000000; stroke-linejoin: miter"/>
   </g>
   <g id="patch_42">
    <path d="M 402.529655 272.597586 
L 402.529655 272.597586 
L 402.529655 272.597586 
L 402.529655 272.597586 
z
" clip-path="url(#pb72caea710)" style="stroke: #000000; stroke-linejoin: miter"/>
   </g>
   <g id="patch_43">
    <path d="M 427.945118 275.349019 
L 433.447985 275.349019 
L 433.447985 269.846153 
L 427.945118 269.846153 
z
" clip-path="url(#pb72caea710)" style="stroke: #000000; stroke-linejoin: miter"/>
   </g>
   <g id="patch_44">
    <path d="M 456.590796 274.870239 
L 461.136101 274.870239 
L 461.136101 270.324934 
L 456.590796 270.324934 
z
" clip-path="url(#pb72caea710)" style="stroke: #000000; stroke-linejoin: miter"/>
   </g>
   <g id="patch_45">
    <path d="M 484.713806 274.914125 
L 489.346884 274.914125 
L 489.346884 270.281048 
L 484.713806 270.281048 
z
" clip-path="url(#pb72caea710)" style="stroke: #000000; stroke-linejoin: miter"/>
   </g>
   <g id="patch_46">
    <path d="M 513.650128 274.144699 
L 516.744354 274.144699 
L 516.744354 271.050473 
L 513.650128 271.050473 
z
" clip-path="url(#pb72caea710)" style="stroke: #000000; stroke-linejoin: miter"/>
   </g>
   <g id="patch_47">
    <path d="M 542.304849 273.656876 
L 544.423427 273.656876 
L 544.423427 271.538297 
L 542.304849 271.538297 
z
" clip-path="url(#pb72caea710)" style="stroke: #000000; stroke-linejoin: miter"/>
   </g>
   <g id="patch_48">
    <path d="M 569.166264 274.962356 
L 573.895805 274.962356 
L 573.895805 270.232816 
L 569.166264 270.232816 
z
" clip-path="url(#pb72caea710)" style="stroke: #000000; stroke-linejoin: miter"/>
   </g>
   <g id="patch_49">
    <path d="M 596.775506 275.520012 
L 602.620356 275.520012 
L 602.620356 269.675161 
L 596.775506 269.675161 
z
" clip-path="url(#pb72caea710)" style="stroke: #000000; stroke-linejoin: miter"/>
   </g>
   <g id="patch_50">
    <path d="M 626.198081 274.264333 
L 629.531574 274.264333 
L 629.531574 270.930839 
L 626.198081 270.930839 
z
" clip-path="url(#pb72caea710)" style="stroke: #000000; stroke-linejoin: miter"/>
   </g>
   <g id="patch_51">
    <path d="M 653.823111 274.806199 
L 658.240337 274.806199 
L 658.240337 270.388973 
L 653.823111 270.388973 
z
" clip-path="url(#pb72caea710)" style="stroke: #000000; stroke-linejoin: miter"/>
   </g>
   <g id="patch_52">
    <path d="M 681.568484 275.227723 
L 686.828758 275.227723 
L 686.828758 269.967449 
L 681.568484 269.967449 
z
" clip-path="url(#pb72caea710)" style="stroke: #000000; stroke-linejoin: miter"/>
   </g>
   <g id="patch_53">
    <path d="M 709.429228 275.533876 
L 715.301807 275.533876 
L 715.301807 269.661296 
L 709.429228 269.661296 
z
" clip-path="url(#pb72caea710)" style="stroke: #000000; stroke-linejoin: miter"/>
   </g>
   <g id="patch_54">
    <path d="M 736.783368 276.346632 
L 744.28146 276.346632 
L 744.28146 268.84854 
L 736.783368 268.84854 
z
" clip-path="url(#pb72caea710)" style="stroke: #000000; stroke-linejoin: miter"/>
   </g>
   <g id="patch_55">
    <path d="M 763.826194 277.470703 
L 773.572427 277.470703 
L 773.572427 267.72447 
L 763.826194 267.72447 
z
" clip-path="url(#pb72caea710)" style="stroke: #000000; stroke-linejoin: miter"/>
   </g>
   <g id="patch_56">
    <path d="M 791.420539 278.043254 
L 802.311875 278.043254 
L 802.311875 267.151918 
L 791.420539 267.151918 
z
" clip-path="url(#pb72caea710)" style="stroke: #000000; stroke-linejoin: miter"/>
   </g>
   <g id="patch_57">
    <path d="M 59.733194 249.224392 
L 69.320599 249.224392 
L 69.320599 239.636987 
L 59.733194 239.636987 
z
" clip-path="url(#pb72caea710)" style="stroke: #000000; stroke-linejoin: miter"/>
   </g>
   <g id="patch_58">
    <path d="M 89.34555 247.778933 
L 96.042036 247.778933 
L 96.042036 241.082447 
L 89.34555 241.082447 
z
" clip-path="url(#pb72caea710)" style="stroke: #000000; stroke-linejoin: miter"/>
   </g>
   <g id="patch_59">
    <path d="M 117.543304 247.748075 
L 124.178075 247.748075 
L 124.178075 241.113304 
L 117.543304 241.113304 
z
" clip-path="url(#pb72caea710)" style="stroke: #000000; stroke-linejoin: miter"/>
   </g>
   <g id="patch_60">
    <path d="M 145.342024 248.116252 
L 152.713148 248.116252 
L 152.713148 240.745128 
L 145.342024 240.745128 
z
" clip-path="url(#pb72caea710)" style="stroke: #000000; stroke-linejoin: miter"/>
   </g>
   <g id="patch_61">
    <path d="M 173.100196 248.524976 
L 181.288769 248.524976 
L 181.288769 240.336403 
L 173.100196 240.336403 
z
" clip-path="url(#pb72caea710)" style="stroke: #000000; stroke-linejoin: miter"/>
   </g>
   <g id="patch_62">
    <path d="M 201.215271 248.576798 
L 209.507488 248.576798 
L 209.507488 240.284581 
L 201.215271 240.284581 
z
" clip-path="url(#pb72caea710)" style="stroke: #000000; stroke-linejoin: miter"/>
   </g>
   <g id="patch_63">
    <path d="M 230.749337 247.209629 
L 236.307215 247.209629 
L 236.307215 241.651751 
L 230.749337 241.651751 
z
" clip-path="url(#pb72caea710)" style="stroke: #000000; stroke-linejoin: miter"/>
   </g>
   <g id="patch_64">
    <path d="M 258.695311 247.430551 
L 264.695033 247.430551 
L 264.695033 241.430829 
L 258.695311 241.430829 
z
" clip-path="url(#pb72caea710)" style="stroke: #000000; stroke-linejoin: miter"/>
   </g>
   <g id="patch_65">
    <path d="M 286.335912 247.956847 
L 293.388226 247.956847 
L 293.388226 240.904533 
L 286.335912 240.904533 
z
" clip-path="url(#pb72caea710)" style="stroke: #000000; stroke-linejoin: miter"/>
   </g>
   <g id="patch_66">
    <path d="M 314.777755 247.6819 
L 321.280176 247.6819 
L 321.280176 241.179479 
L 314.777755 241.179479 
z
" clip-path="url(#pb72caea710)" style="stroke: #000000; stroke-linejoin: miter"/>
   </g>
   <g id="patch_67">
    <path d="M 343.030182 247.59637 
L 349.361542 247.59637 
L 349.361542 241.26501 
L 343.030182 241.26501 
z
" clip-path="url(#pb72caea710)" style="stroke: #000000; stroke-linejoin: miter"/>
   </g>
   <g id="patch_68">
    <path d="M 371.410546 247.382902 
L 377.314971 247.382902 
L 377.314971 241.478478 
L 371.410546 241.478478 
z
" clip-path="url(#pb72caea710)" style="stroke: #000000; stroke-linejoin: miter"/>
   </g>
   <g id="patch_69">
    <path d="M 400.196085 246.76426 
L 404.863226 246.76426 
L 404.863226 242.097119 
L 400.196085 242.097119 
z
" clip-path="url(#pb72caea710)" style="stroke: #000000; stroke-linejoin: miter"/>
   </g>
   <g id="patch_70">
    <path d="M 427.510356 247.616886 
L 433.882748 247.616886 
L 433.882748 241.244494 
L 427.510356 241.244494 
z
" clip-path="url(#pb72caea710)" style="stroke: #000000; stroke-linejoin: miter"/>
   </g>
   <g id="patch_71">
    <path d="M 455.766017 247.528121 
L 461.96088 247.528121 
L 461.96088 241.333258 
L 455.766017 241.333258 
z
" clip-path="url(#pb72caea710)" style="stroke: #000000; stroke-linejoin: miter"/>
   </g>
   <g id="patch_72">
    <path d="M 483.94916 247.511875 
L 490.11153 247.511875 
L 490.11153 241.349505 
L 483.94916 241.349505 
z
" clip-path="url(#pb72caea710)" style="stroke: #000000; stroke-linejoin: miter"/>
   </g>
   <g id="patch_73">
    <path d="M 512.005681 247.62225 
L 518.388801 247.62225 
L 518.388801 241.23913 
L 512.005681 241.23913 
z
" clip-path="url(#pb72caea710)" style="stroke: #000000; stroke-linejoin: miter"/>
   </g>
   <g id="patch_74">
    <path d="M 538.997167 248.797661 
L 547.731109 248.797661 
L 547.731109 240.063718 
L 538.997167 240.063718 
z
" clip-path="url(#pb72caea710)" style="stroke: #000000; stroke-linejoin: miter"/>
   </g>
   <g id="patch_75">
    <path d="M 567.383147 248.578577 
L 575.678922 248.578577 
L 575.678922 240.282802 
L 567.383147 240.282802 
z
" clip-path="url(#pb72caea710)" style="stroke: #000000; stroke-linejoin: miter"/>
   </g>
   <g id="patch_76">
    <path d="M 596.116853 248.011768 
L 603.279009 248.011768 
L 603.279009 240.849612 
L 596.116853 240.849612 
z
" clip-path="url(#pb72caea710)" style="stroke: #000000; stroke-linejoin: miter"/>
   </g>
   <g id="patch_77">
    <path d="M 623.504653 248.790864 
L 632.225002 248.790864 
L 632.225002 240.070515 
L 623.504653 240.070515 
z
" clip-path="url(#pb72caea710)" style="stroke: #000000; stroke-linejoin: miter"/>
   </g>
   <g id="patch_78">
    <path d="M 651.697441 248.764973 
L 660.366008 248.764973 
L 660.366008 240.096406 
L 651.697441 240.096406 
z
" clip-path="url(#pb72caea710)" style="stroke: #000000; stroke-linejoin: miter"/>
   </g>
   <g id="patch_79">
    <path d="M 678.395211 250.234099 
L 690.00203 250.234099 
L 690.00203 238.62728 
L 678.395211 238.62728 
z
" clip-path="url(#pb72caea710)" style="stroke: #000000; stroke-linejoin: miter"/>
   </g>
   <g id="patch_80">
    <path d="M 707.142705 249.653502 
L 717.58833 249.653502 
L 717.58833 239.207877 
L 707.142705 239.207877 
z
" clip-path="url(#pb72caea710)" style="stroke: #000000; stroke-linejoin: miter"/>
   </g>
   <g id="patch_81">
    <path d="M 734.302086 250.661017 
L 746.762741 250.661017 
L 746.762741 238.200362 
L 734.302086 238.200362 
z
" clip-path="url(#pb72caea710)" style="stroke: #000000; stroke-linejoin: miter"/>
   </g>
   <g id="patch_82">
    <path d="M 762.10132 251.02868 
L 775.2973 251.02868 
L 775.2973 237.8327 
L 762.10132 237.8327 
z
" clip-path="url(#pb72caea710)" style="stroke: #000000; stroke-linejoin: miter"/>
   </g>
   <g id="patch_83">
    <path d="M 789.85797 251.438926 
L 803.874444 251.438926 
L 803.874444 237.422453 
L 789.85797 237.422453 
z
" clip-path="url(#pb72caea710)" style="stroke: #000000; stroke-linejoin: miter"/>
   </g>
   <g id="patch_84">
    <path d="M 60.717053 220.073637 
L 68.33674 220.073637 
L 68.33674 212.453949 
L 60.717053 212.453949 
z
" clip-path="url(#pb72caea710)" style="stroke: #000000; stroke-linejoin: miter"/>
   </g>
   <g id="patch_85">
    <path d="M 88.672314 220.285272 
L 96.715272 220.285272 
L 96.715272 212.242314 
L 88.672314 212.242314 
z
" clip-path="url(#pb72caea710)" style="stroke: #000000; stroke-linejoin: miter"/>
   </g>
   <g id="patch_86">
    <path d="M 116.700516 220.423967 
L 125.020864 220.423967 
L 125.020864 212.103619 
L 116.700516 212.103619 
z
" clip-path="url(#pb72caea710)" style="stroke: #000000; stroke-linejoin: miter"/>
   </g>
   <g id="patch_87">
    <path d="M 146.120017 219.171362 
L 151.935155 219.171362 
L 151.935155 213.356224 
L 146.120017 213.356224 
z
" clip-path="url(#pb72caea710)" style="stroke: #000000; stroke-linejoin: miter"/>
   </g>
   <g id="patch_88">
    <path d="M 173.806969 219.651307 
L 180.581997 219.651307 
L 180.581997 212.876279 
L 173.806969 212.876279 
z
" clip-path="url(#pb72caea710)" style="stroke: #000000; stroke-linejoin: miter"/>
   </g>
   <g id="patch_89">
    <path d="M 202.553405 219.071767 
L 208.169353 219.071767 
L 208.169353 213.455819 
L 202.553405 213.455819 
z
" clip-path="url(#pb72caea710)" style="stroke: #000000; stroke-linejoin: miter"/>
   </g>
   <g id="patch_90">
    <path d="M 230.663185 219.128884 
L 236.393367 219.128884 
L 236.393367 213.398702 
L 230.663185 213.398702 
z
" clip-path="url(#pb72caea710)" style="stroke: #000000; stroke-linejoin: miter"/>
   </g>
   <g id="patch_91">
    <path d="M 258.575226 219.383739 
L 264.815119 219.383739 
L 264.815119 213.143847 
L 258.575226 213.143847 
z
" clip-path="url(#pb72caea710)" style="stroke: #000000; stroke-linejoin: miter"/>
   </g>
   <g id="patch_92">
    <path d="M 287.252131 218.873731 
L 292.472006 218.873731 
L 292.472006 213.653856 
L 287.252131 213.653856 
z
" clip-path="url(#pb72caea710)" style="stroke: #000000; stroke-linejoin: miter"/>
   </g>
   <g id="patch_93">
    <path d="M 314.896765 219.395993 
L 321.161166 219.395993 
L 321.161166 213.131593 
L 314.896765 213.131593 
z
" clip-path="url(#pb72caea710)" style="stroke: #000000; stroke-linejoin: miter"/>
   </g>
   <g id="patch_94">
    <path d="M 343.605604 218.854051 
L 348.78612 218.854051 
L 348.78612 213.673535 
L 343.605604 213.673535 
z
" clip-path="url(#pb72caea710)" style="stroke: #000000; stroke-linejoin: miter"/>
   </g>
   <g id="patch_95">
    <path d="M 371.966225 218.660327 
L 376.759292 218.660327 
L 376.759292 213.867259 
L 371.966225 213.867259 
z
" clip-path="url(#pb72caea710)" style="stroke: #000000; stroke-linejoin: miter"/>
   </g>
   <g id="patch_96">
    <path d="M 399.743585 219.049863 
L 405.315726 219.049863 
L 405.315726 213.477723 
L 399.743585 213.477723 
z
" clip-path="url(#pb72caea710)" style="stroke: #000000; stroke-linejoin: miter"/>
   </g>
   <g id="patch_97">
    <path d="M 427.934302 219.026042 
L 433.458801 219.026042 
L 433.458801 213.501544 
L 427.934302 213.501544 
z
" clip-path="url(#pb72caea710)" style="stroke: #000000; stroke-linejoin: miter"/>
   </g>
   <g id="patch_98">
    <path d="M 455.852233 219.275008 
L 461.874663 219.275008 
L 461.874663 213.252578 
L 455.852233 213.252578 
z
" clip-path="url(#pb72caea710)" style="stroke: #000000; stroke-linejoin: miter"/>
   </g>
   <g id="patch_99">
    <path d="M 483.707884 219.586254 
L 490.352806 219.586254 
L 490.352806 212.941332 
L 483.707884 212.941332 
z
" clip-path="url(#pb72caea710)" style="stroke: #000000; stroke-linejoin: miter"/>
   </g>
   <g id="patch_100">
    <path d="M 513.526759 217.934276 
L 516.867724 217.934276 
L 516.867724 214.593311 
L 513.526759 214.593311 
z
" clip-path="url(#pb72caea710)" style="stroke: #000000; stroke-linejoin: miter"/>
   </g>
   <g id="patch_101">
    <path d="M 540.261056 219.366875 
L 546.46722 219.366875 
L 546.46722 213.160711 
L 540.261056 213.160711 
z
" clip-path="url(#pb72caea710)" style="stroke: #000000; stroke-linejoin: miter"/>
   </g>
   <g id="patch_102">
    <path d="M 568.098324 219.696504 
L 574.963745 219.696504 
L 574.963745 212.831082 
L 568.098324 212.831082 
z
" clip-path="url(#pb72caea710)" style="stroke: #000000; stroke-linejoin: miter"/>
   </g>
   <g id="patch_103">
    <path d="M 596.630484 219.33124 
L 602.765378 219.33124 
L 602.765378 213.196346 
L 596.630484 213.196346 
z
" clip-path="url(#pb72caea710)" style="stroke: #000000; stroke-linejoin: miter"/>
   </g>
   <g id="patch_104">
    <path d="M 624.238859 219.889762 
L 631.490797 219.889762 
L 631.490797 212.637824 
L 624.238859 212.637824 
z
" clip-path="url(#pb72caea710)" style="stroke: #000000; stroke-linejoin: miter"/>
   </g>
   <g id="patch_105">
    <path d="M 652.495946 219.799572 
L 659.567503 219.799572 
L 659.567503 212.728015 
L 652.495946 212.728015 
z
" clip-path="url(#pb72caea710)" style="stroke: #000000; stroke-linejoin: miter"/>
   </g>
   <g id="patch_106">
    <path d="M 679.885585 220.576828 
L 688.511656 220.576828 
L 688.511656 211.950758 
L 679.885585 211.950758 
z
" clip-path="url(#pb72caea710)" style="stroke: #000000; stroke-linejoin: miter"/>
   </g>
   <g id="patch_107">
    <path d="M 708.41681 220.2125 
L 716.314224 220.2125 
L 716.314224 212.315086 
L 708.41681 212.315086 
z
" clip-path="url(#pb72caea710)" style="stroke: #000000; stroke-linejoin: miter"/>
   </g>
   <g id="patch_108">
    <path d="M 736.124682 220.671525 
L 744.940146 220.671525 
L 744.940146 211.856061 
L 736.124682 211.856061 
z
" clip-path="url(#pb72caea710)" style="stroke: #000000; stroke-linejoin: miter"/>
   </g>
   <g id="patch_109">
    <path d="M 764.16537 220.797733 
L 773.23325 220.797733 
L 773.23325 211.729853 
L 764.16537 211.729853 
z
" clip-path="url(#pb72caea710)" style="stroke: #000000; stroke-linejoin: miter"/>
   </g>
   <g id="patch_110">
    <path d="M 792.080052 221.049948 
L 801.652362 221.049948 
L 801.652362 211.477638 
L 792.080052 211.477638 
z
" clip-path="url(#pb72caea710)" style="stroke: #000000; stroke-linejoin: miter"/>
   </g>
   <g id="patch_111">
    <path d="M 60.092399 192.531395 
L 68.961395 192.531395 
L 68.961395 183.662399 
L 60.092399 183.662399 
z
" clip-path="url(#pb72caea710)" style="stroke: #000000; stroke-linejoin: miter"/>
   </g>
   <g id="patch_112">
    <path d="M 89.372178 191.418511 
L 96.015408 191.418511 
L 96.015408 184.775282 
L 89.372178 184.775282 
z
" clip-path="url(#pb72caea710)" style="stroke: #000000; stroke-linejoin: miter"/>
   </g>
   <g id="patch_113">
    <path d="M 117.571367 191.38622 
L 124.150013 191.38622 
L 124.150013 184.807573 
L 117.571367 184.807573 
z
" clip-path="url(#pb72caea710)" style="stroke: #000000; stroke-linejoin: miter"/>
   </g>
   <g id="patch_114">
    <path d="M 146.092983 191.0315 
L 151.96219 191.0315 
L 151.96219 185.162293 
L 146.092983 185.162293 
z
" clip-path="url(#pb72caea710)" style="stroke: #000000; stroke-linejoin: miter"/>
   </g>
   <g id="patch_115">
    <path d="M 174.491383 190.799997 
L 179.897583 190.799997 
L 179.897583 185.393796 
L 174.491383 185.393796 
z
" clip-path="url(#pb72caea710)" style="stroke: #000000; stroke-linejoin: miter"/>
   </g>
   <g id="patch_116">
    <path d="M 203.137688 190.320588 
L 207.585071 190.320588 
L 207.585071 185.873205 
L 203.137688 185.873205 
z
" clip-path="url(#pb72caea710)" style="stroke: #000000; stroke-linejoin: miter"/>
   </g>
   <g id="patch_117">
    <path d="M 229.642716 191.982457 
L 237.413836 191.982457 
L 237.413836 184.211336 
L 229.642716 184.211336 
z
" clip-path="url(#pb72caea710)" style="stroke: #000000; stroke-linejoin: miter"/>
   </g>
   <g id="patch_118">
    <path d="M 258.941145 190.850924 
L 264.4492 190.850924 
L 264.4492 185.342869 
L 258.941145 185.342869 
z
" clip-path="url(#pb72caea710)" style="stroke: #000000; stroke-linejoin: miter"/>
   </g>
   <g id="patch_119">
    <path d="M 286.701878 191.257088 
L 293.02226 191.257088 
L 293.02226 184.936706 
L 286.701878 184.936706 
z
" clip-path="url(#pb72caea710)" style="stroke: #000000; stroke-linejoin: miter"/>
   </g>
   <g id="patch_120">
    <path d="M 315.275889 190.849973 
L 320.782042 190.849973 
L 320.782042 185.34382 
L 315.275889 185.34382 
z
" clip-path="url(#pb72caea710)" style="stroke: #000000; stroke-linejoin: miter"/>
   </g>
   <g id="patch_121">
    <path d="M 343.162406 191.130353 
L 349.229318 191.130353 
L 349.229318 185.06344 
L 343.162406 185.06344 
z
" clip-path="url(#pb72caea710)" style="stroke: #000000; stroke-linejoin: miter"/>
   </g>
   <g id="patch_122">
    <path d="M 371.407619 191.052036 
L 377.317898 191.052036 
L 377.317898 185.141757 
L 371.407619 185.141757 
z
" clip-path="url(#pb72caea710)" style="stroke: #000000; stroke-linejoin: miter"/>
   </g>
   <g id="patch_123">
    <path d="M 399.661758 190.964794 
L 405.397552 190.964794 
L 405.397552 185.229 
L 399.661758 185.229 
z
" clip-path="url(#pb72caea710)" style="stroke: #000000; stroke-linejoin: miter"/>
   </g>
   <g id="patch_124">
    <path d="M 427.864266 190.929182 
L 433.528838 190.929182 
L 433.528838 185.264611 
L 427.864266 185.264611 
z
" clip-path="url(#pb72caea710)" style="stroke: #000000; stroke-linejoin: miter"/>
   </g>
   <g id="patch_125">
    <path d="M 456.707745 190.2526 
L 461.019151 190.2526 
L 461.019151 185.941193 
L 456.707745 185.941193 
z
" clip-path="url(#pb72caea710)" style="stroke: #000000; stroke-linejoin: miter"/>
   </g>
   <g id="patch_126">
    <path d="M 483.800687 191.326555 
L 490.260003 191.326555 
L 490.260003 184.867239 
L 483.800687 184.867239 
z
" clip-path="url(#pb72caea710)" style="stroke: #000000; stroke-linejoin: miter"/>
   </g>
   <g id="patch_127">
    <path d="M 511.5774 191.716738 
L 518.817083 191.716738 
L 518.817083 184.477055 
L 511.5774 184.477055 
z
" clip-path="url(#pb72caea710)" style="stroke: #000000; stroke-linejoin: miter"/>
   </g>
   <g id="patch_128">
    <path d="M 540.50421 190.956824 
L 546.224066 190.956824 
L 546.224066 185.236969 
L 540.50421 185.236969 
z
" clip-path="url(#pb72caea710)" style="stroke: #000000; stroke-linejoin: miter"/>
   </g>
   <g id="patch_129">
    <path d="M 567.841219 191.786712 
L 575.22085 191.786712 
L 575.22085 184.407081 
L 567.841219 184.407081 
z
" clip-path="url(#pb72caea710)" style="stroke: #000000; stroke-linejoin: miter"/>
   </g>
   <g id="patch_130">
    <path d="M 596.131023 191.663804 
L 603.264839 191.663804 
L 603.264839 184.529989 
L 596.131023 184.529989 
z
" clip-path="url(#pb72caea710)" style="stroke: #000000; stroke-linejoin: miter"/>
   </g>
   <g id="patch_131">
    <path d="M 624.145291 191.816433 
L 631.584364 191.816433 
L 631.584364 184.37736 
L 624.145291 184.37736 
z
" clip-path="url(#pb72caea710)" style="stroke: #000000; stroke-linejoin: miter"/>
   </g>
   <g id="patch_132">
    <path d="M 652.717506 191.411115 
L 659.345942 191.411115 
L 659.345942 184.782679 
L 652.717506 184.782679 
z
" clip-path="url(#pb72caea710)" style="stroke: #000000; stroke-linejoin: miter"/>
   </g>
   <g id="patch_133">
    <path d="M 680.169303 192.126215 
L 688.227939 192.126215 
L 688.227939 184.067579 
L 680.169303 184.067579 
z
" clip-path="url(#pb72caea710)" style="stroke: #000000; stroke-linejoin: miter"/>
   </g>
   <g id="patch_134">
    <path d="M 708.071666 192.390748 
L 716.659368 192.390748 
L 716.659368 183.803046 
L 708.071666 183.803046 
z
" clip-path="url(#pb72caea710)" style="stroke: #000000; stroke-linejoin: miter"/>
   </g>
   <g id="patch_135">
    <path d="M 735.9914 192.637911 
L 745.073428 192.637911 
L 745.073428 183.555882 
L 735.9914 183.555882 
z
" clip-path="url(#pb72caea710)" style="stroke: #000000; stroke-linejoin: miter"/>
   </g>
   <g id="patch_136">
    <path d="M 763.791464 193.004742 
L 773.607156 193.004742 
L 773.607156 183.189051 
L 763.791464 183.189051 
z
" clip-path="url(#pb72caea710)" style="stroke: #000000; stroke-linejoin: miter"/>
   </g>
   <g id="patch_137">
    <path d="M 792.02637 192.936733 
L 801.706044 192.936733 
L 801.706044 183.25706 
L 792.02637 183.25706 
z
" clip-path="url(#pb72caea710)" style="stroke: #000000; stroke-linejoin: miter"/>
   </g>
   <g id="patch_138">
    <path d="M 61.10532 163.351576 
L 67.948473 163.351576 
L 67.948473 156.508424 
L 61.10532 156.508424 
z
" clip-path="url(#pb72caea710)" style="stroke: #000000; stroke-linejoin: miter"/>
   </g>
   <g id="patch_139">
    <path d="M 89.274895 163.348899 
L 96.112692 163.348899 
L 96.112692 156.511101 
L 89.274895 156.511101 
z
" clip-path="url(#pb72caea710)" style="stroke: #000000; stroke-linejoin: miter"/>
   </g>
   <g id="patch_140">
    <path d="M 118.287116 162.503573 
L 123.434263 162.503573 
L 123.434263 157.356427 
L 118.287116 157.356427 
z
" clip-path="url(#pb72caea710)" style="stroke: #000000; stroke-linejoin: miter"/>
   </g>
   <g id="patch_141">
    <path d="M 146.343065 162.614521 
L 151.712107 162.614521 
L 151.712107 157.245479 
L 146.343065 157.245479 
z
" clip-path="url(#pb72caea710)" style="stroke: #000000; stroke-linejoin: miter"/>
   </g>
   <g id="patch_142">
    <path d="M 174.733459 162.391024 
L 179.655506 162.391024 
L 179.655506 157.468976 
L 174.733459 157.468976 
z
" clip-path="url(#pb72caea710)" style="stroke: #000000; stroke-linejoin: miter"/>
   </g>
   <g id="patch_143">
    <path d="M 202.416157 162.875222 
L 208.306601 162.875222 
L 208.306601 156.984778 
L 202.416157 156.984778 
z
" clip-path="url(#pb72caea710)" style="stroke: #000000; stroke-linejoin: miter"/>
   </g>
   <g id="patch_144">
    <path d="M 231.545994 161.912282 
L 235.510558 161.912282 
L 235.510558 157.947718 
L 231.545994 157.947718 
z
" clip-path="url(#pb72caea710)" style="stroke: #000000; stroke-linejoin: miter"/>
   </g>
   <g id="patch_145">
    <path d="M 260.675179 160.949993 
L 262.715166 160.949993 
L 262.715166 158.910007 
L 260.675179 158.910007 
z
" clip-path="url(#pb72caea710)" style="stroke: #000000; stroke-linejoin: miter"/>
   </g>
   <g id="patch_146">
    <path d="M 286.758469 163.0336 
L 292.965669 163.0336 
L 292.965669 156.8264 
L 286.758469 156.8264 
z
" clip-path="url(#pb72caea710)" style="stroke: #000000; stroke-linejoin: miter"/>
   </g>
   <g id="patch_147">
    <path d="M 315.842437 162.116529 
L 320.215494 162.116529 
L 320.215494 157.743471 
L 315.842437 157.743471 
z
" clip-path="url(#pb72caea710)" style="stroke: #000000; stroke-linejoin: miter"/>
   </g>
   <g id="patch_148">
    <path d="M 343.436828 162.689034 
L 348.954896 162.689034 
L 348.954896 157.170966 
L 343.436828 157.170966 
z
" clip-path="url(#pb72caea710)" style="stroke: #000000; stroke-linejoin: miter"/>
   </g>
   <g id="patch_149">
    <path d="M 372.308152 161.984607 
L 376.417365 161.984607 
L 376.417365 157.875393 
L 372.308152 157.875393 
z
" clip-path="url(#pb72caea710)" style="stroke: #000000; stroke-linejoin: miter"/>
   </g>
   <g id="patch_150">
    <path d="M 399.856074 162.603581 
L 405.203237 162.603581 
L 405.203237 157.256419 
L 399.856074 157.256419 
z
" clip-path="url(#pb72caea710)" style="stroke: #000000; stroke-linejoin: miter"/>
   </g>
   <g id="patch_151">
    <path d="M 428.74384 161.882712 
L 432.649264 161.882712 
L 432.649264 157.977288 
L 428.74384 157.977288 
z
" clip-path="url(#pb72caea710)" style="stroke: #000000; stroke-linejoin: miter"/>
   </g>
   <g id="patch_152">
    <path d="M 456.55099 162.242459 
L 461.175907 162.242459 
L 461.175907 157.617541 
L 456.55099 157.617541 
z
" clip-path="url(#pb72caea710)" style="stroke: #000000; stroke-linejoin: miter"/>
   </g>
   <g id="patch_153">
    <path d="M 484.715592 162.244753 
L 489.345098 162.244753 
L 489.345098 157.615247 
L 484.715592 157.615247 
z
" clip-path="url(#pb72caea710)" style="stroke: #000000; stroke-linejoin: miter"/>
   </g>
   <g id="patch_154">
    <path d="M 512.838404 162.288838 
L 517.556079 162.288838 
L 517.556079 157.571162 
L 512.838404 157.571162 
z
" clip-path="url(#pb72caea710)" style="stroke: #000000; stroke-linejoin: miter"/>
   </g>
   <g id="patch_155">
    <path d="M 540.952033 162.342105 
L 545.776243 162.342105 
L 545.776243 157.517895 
L 540.952033 157.517895 
z
" clip-path="url(#pb72caea710)" style="stroke: #000000; stroke-linejoin: miter"/>
   </g>
   <g id="patch_156">
    <path d="M 568.750152 162.710882 
L 574.311917 162.710882 
L 574.311917 157.149118 
L 568.750152 157.149118 
z
" clip-path="url(#pb72caea710)" style="stroke: #000000; stroke-linejoin: miter"/>
   </g>
   <g id="patch_157">
    <path d="M 595.770096 163.857835 
L 603.625766 163.857835 
L 603.625766 156.002165 
L 595.770096 156.002165 
z
" clip-path="url(#pb72caea710)" style="stroke: #000000; stroke-linejoin: miter"/>
   </g>
   <g id="patch_158">
    <path d="M 624.690462 163.104365 
L 631.039193 163.104365 
L 631.039193 156.755635 
L 624.690462 156.755635 
z
" clip-path="url(#pb72caea710)" style="stroke: #000000; stroke-linejoin: miter"/>
   </g>
   <g id="patch_159">
    <path d="M 653.399432 162.562293 
L 658.664017 162.562293 
L 658.664017 157.297707 
L 653.399432 157.297707 
z
" clip-path="url(#pb72caea710)" style="stroke: #000000; stroke-linejoin: miter"/>
   </g>
   <g id="patch_160">
    <path d="M 681.230295 162.898326 
L 687.166946 162.898326 
L 687.166946 156.961674 
L 681.230295 156.961674 
z
" clip-path="url(#pb72caea710)" style="stroke: #000000; stroke-linejoin: miter"/>
   </g>
   <g id="patch_161">
    <path d="M 708.472657 163.82286 
L 716.258377 163.82286 
L 716.258377 156.03714 
L 708.472657 156.03714 
z
" clip-path="url(#pb72caea710)" style="stroke: #000000; stroke-linejoin: miter"/>
   </g>
   <g id="patch_162">
    <path d="M 735.709508 164.752906 
L 745.35532 164.752906 
L 745.35532 155.107094 
L 735.709508 155.107094 
z
" clip-path="url(#pb72caea710)" style="stroke: #000000; stroke-linejoin: miter"/>
   </g>
   <g id="patch_163">
    <path d="M 763.983551 164.645759 
L 773.41507 164.645759 
L 773.41507 155.214241 
L 763.983551 155.214241 
z
" clip-path="url(#pb72caea710)" style="stroke: #000000; stroke-linejoin: miter"/>
   </g>
   <g id="patch_164">
    <path d="M 791.659875 165.136332 
L 802.072539 165.136332 
L 802.072539 154.723668 
L 791.659875 154.723668 
z
" clip-path="url(#pb72caea710)" style="stroke: #000000; stroke-linejoin: miter"/>
   </g>
   <g id="patch_165">
    <path d="M 60.089852 136.200148 
L 68.963941 136.200148 
L 68.963941 127.326059 
L 60.089852 127.326059 
z
" clip-path="url(#pb72caea710)" style="stroke: #000000; stroke-linejoin: miter"/>
   </g>
   <g id="patch_166">
    <path d="M 89.35331 135.103586 
L 96.034276 135.103586 
L 96.034276 128.422621 
L 89.35331 128.422621 
z
" clip-path="url(#pb72caea710)" style="stroke: #000000; stroke-linejoin: miter"/>
   </g>
   <g id="patch_167">
    <path d="M 118.130774 134.493019 
L 123.590605 134.493019 
L 123.590605 129.033188 
L 118.130774 129.033188 
z
" clip-path="url(#pb72caea710)" style="stroke: #000000; stroke-linejoin: miter"/>
   </g>
   <g id="patch_168">
    <path d="M 146.149295 134.641395 
L 151.905878 134.641395 
L 151.905878 128.884812 
L 146.149295 128.884812 
z
" clip-path="url(#pb72caea710)" style="stroke: #000000; stroke-linejoin: miter"/>
   </g>
   <g id="patch_169">
    <path d="M 173.958017 134.999569 
L 180.430948 134.999569 
L 180.430948 128.526638 
L 173.958017 128.526638 
z
" clip-path="url(#pb72caea710)" style="stroke: #000000; stroke-linejoin: miter"/>
   </g>
   <g id="patch_170">
    <path d="M 202.429071 134.695412 
L 208.293687 134.695412 
L 208.293687 128.830795 
L 202.429071 128.830795 
z
" clip-path="url(#pb72caea710)" style="stroke: #000000; stroke-linejoin: miter"/>
   </g>
   <g id="patch_171">
    <path d="M 230.96535 134.32603 
L 236.091202 134.32603 
L 236.091202 129.200177 
L 230.96535 129.200177 
z
" clip-path="url(#pb72caea710)" style="stroke: #000000; stroke-linejoin: miter"/>
   </g>
   <g id="patch_172">
    <path d="M 259.35725 134.101026 
L 264.033095 134.101026 
L 264.033095 129.425181 
L 259.35725 129.425181 
z
" clip-path="url(#pb72caea710)" style="stroke: #000000; stroke-linejoin: miter"/>
   </g>
   <g id="patch_173">
    <path d="M 286.526795 135.098377 
L 293.197343 135.098377 
L 293.197343 128.42783 
L 286.526795 128.42783 
z
" clip-path="url(#pb72caea710)" style="stroke: #000000; stroke-linejoin: miter"/>
   </g>
   <g id="patch_174">
    <path d="M 315.590682 134.201387 
L 320.467249 134.201387 
L 320.467249 129.32482 
L 315.590682 129.32482 
z
" clip-path="url(#pb72caea710)" style="stroke: #000000; stroke-linejoin: miter"/>
   </g>
   <g id="patch_175">
    <path d="M 343.00489 134.954075 
L 349.386834 134.954075 
L 349.386834 128.572132 
L 343.00489 128.572132 
z
" clip-path="url(#pb72caea710)" style="stroke: #000000; stroke-linejoin: miter"/>
   </g>
   <g id="patch_176">
    <path d="M 371.377601 134.748261 
L 377.347916 134.748261 
L 377.347916 128.777946 
L 371.377601 128.777946 
z
" clip-path="url(#pb72caea710)" style="stroke: #000000; stroke-linejoin: miter"/>
   </g>
   <g id="patch_177">
    <path d="M 399.361462 134.931297 
L 405.697848 134.931297 
L 405.697848 128.59491 
L 399.361462 128.59491 
z
" clip-path="url(#pb72caea710)" style="stroke: #000000; stroke-linejoin: miter"/>
   </g>
   <g id="patch_178">
    <path d="M 427.703828 134.755827 
L 433.689276 134.755827 
L 433.689276 128.770379 
L 427.703828 128.770379 
z
" clip-path="url(#pb72caea710)" style="stroke: #000000; stroke-linejoin: miter"/>
   </g>
   <g id="patch_179">
    <path d="M 455.149784 135.476768 
L 462.577113 135.476768 
L 462.577113 128.049439 
L 455.149784 128.049439 
z
" clip-path="url(#pb72caea710)" style="stroke: #000000; stroke-linejoin: miter"/>
   </g>
   <g id="patch_180">
    <path d="M 483.665751 135.127697 
L 490.394938 135.127697 
L 490.394938 128.39851 
L 483.665751 128.39851 
z
" clip-path="url(#pb72caea710)" style="stroke: #000000; stroke-linejoin: miter"/>
   </g>
   <g id="patch_181">
    <path d="M 512.081269 134.879076 
L 518.313213 134.879076 
L 518.313213 128.647131 
L 512.081269 128.647131 
z
" clip-path="url(#pb72caea710)" style="stroke: #000000; stroke-linejoin: miter"/>
   </g>
   <g id="patch_182">
    <path d="M 539.227618 135.899624 
L 547.500658 135.899624 
L 547.500658 127.626583 
L 539.227618 127.626583 
z
" clip-path="url(#pb72caea710)" style="stroke: #000000; stroke-linejoin: miter"/>
   </g>
   <g id="patch_183">
    <path d="M 567.494764 135.799373 
L 575.567305 135.799373 
L 575.567305 127.726833 
L 567.494764 127.726833 
z
" clip-path="url(#pb72caea710)" style="stroke: #000000; stroke-linejoin: miter"/>
   </g>
   <g id="patch_184">
    <path d="M 595.23396 136.227074 
L 604.161902 136.227074 
L 604.161902 127.299133 
L 595.23396 127.299133 
z
" clip-path="url(#pb72caea710)" style="stroke: #000000; stroke-linejoin: miter"/>
   </g>
   <g id="patch_185">
    <path d="M 623.08836 136.539571 
L 632.641296 136.539571 
L 632.641296 126.986635 
L 623.08836 126.986635 
z
" clip-path="url(#pb72caea710)" style="stroke: #000000; stroke-linejoin: miter"/>
   </g>
   <g id="patch_186">
    <path d="M 650.9789 136.815927 
L 661.084548 136.815927 
L 661.084548 126.710279 
L 650.9789 126.710279 
z
" clip-path="url(#pb72caea710)" style="stroke: #000000; stroke-linejoin: miter"/>
   </g>
   <g id="patch_187">
    <path d="M 678.825955 137.135769 
L 689.571286 137.135769 
L 689.571286 126.390438 
L 678.825955 126.390438 
z
" clip-path="url(#pb72caea710)" style="stroke: #000000; stroke-linejoin: miter"/>
   </g>
   <g id="patch_188">
    <path d="M 707.145718 136.982902 
L 717.585316 136.982902 
L 717.585316 126.543304 
L 707.145718 126.543304 
z
" clip-path="url(#pb72caea710)" style="stroke: #000000; stroke-linejoin: miter"/>
   </g>
   <g id="patch_189">
    <path d="M 734.37035 137.925167 
L 746.694478 137.925167 
L 746.694478 125.60104 
L 734.37035 125.60104 
z
" clip-path="url(#pb72caea710)" style="stroke: #000000; stroke-linejoin: miter"/>
   </g>
   <g id="patch_190">
    <path d="M 762.274144 138.18827 
L 775.124477 138.18827 
L 775.124477 125.337937 
L 762.274144 125.337937 
z
" clip-path="url(#pb72caea710)" style="stroke: #000000; stroke-linejoin: miter"/>
   </g>
   <g id="patch_191">
    <path d="M 790.736446 137.892864 
L 802.995967 137.892864 
L 802.995967 125.633343 
L 790.736446 125.633343 
z
" clip-path="url(#pb72caea710)" style="stroke: #000000; stroke-linejoin: miter"/>
   </g>
   <g id="patch_192">
    <path d="M 60.545684 107.577419 
L 68.508109 107.577419 
L 68.508109 99.614995 
L 60.545684 99.614995 
z
" clip-path="url(#pb72caea710)" style="stroke: #000000; stroke-linejoin: miter"/>
   </g>
   <g id="patch_193">
    <path d="M 89.852709 106.437291 
L 95.534877 106.437291 
L 95.534877 100.755123 
L 89.852709 100.755123 
z
" clip-path="url(#pb72caea710)" style="stroke: #000000; stroke-linejoin: miter"/>
   </g>
   <g id="patch_194">
    <path d="M 118.744845 105.712052 
L 122.976534 105.712052 
L 122.976534 101.480362 
L 118.744845 101.480362 
z
" clip-path="url(#pb72caea710)" style="stroke: #000000; stroke-linejoin: miter"/>
   </g>
   <g id="patch_195">
    <path d="M 146.558423 106.06537 
L 151.496749 106.06537 
L 151.496749 101.127044 
L 146.558423 101.127044 
z
" clip-path="url(#pb72caea710)" style="stroke: #000000; stroke-linejoin: miter"/>
   </g>
   <g id="patch_196">
    <path d="M 174.961752 105.828937 
L 179.427213 105.828937 
L 179.427213 101.363477 
L 174.961752 101.363477 
z
" clip-path="url(#pb72caea710)" style="stroke: #000000; stroke-linejoin: miter"/>
   </g>
   <g id="patch_197">
    <path d="M 203.340498 105.617088 
L 207.382261 105.617088 
L 207.382261 101.575325 
L 203.340498 101.575325 
z
" clip-path="url(#pb72caea710)" style="stroke: #000000; stroke-linejoin: miter"/>
   </g>
   <g id="patch_198">
    <path d="M 231.072825 106.051658 
L 235.983727 106.051658 
L 235.983727 101.140756 
L 231.072825 101.140756 
z
" clip-path="url(#pb72caea710)" style="stroke: #000000; stroke-linejoin: miter"/>
   </g>
   <g id="patch_199">
    <path d="M 259.252917 106.038462 
L 264.137428 106.038462 
L 264.137428 101.153951 
L 259.252917 101.153951 
z
" clip-path="url(#pb72caea710)" style="stroke: #000000; stroke-linejoin: miter"/>
   </g>
   <g id="patch_200">
    <path d="M 287.560962 105.897314 
L 292.163176 105.897314 
L 292.163176 101.2951 
L 287.560962 101.2951 
z
" clip-path="url(#pb72caea710)" style="stroke: #000000; stroke-linejoin: miter"/>
   </g>
   <g id="patch_201">
    <path d="M 316.476989 105.148183 
L 319.580942 105.148183 
L 319.580942 102.04423 
L 316.476989 102.04423 
z
" clip-path="url(#pb72caea710)" style="stroke: #000000; stroke-linejoin: miter"/>
   </g>
   <g id="patch_202">
    <path d="M 344.225975 105.566094 
L 348.165749 105.566094 
L 348.165749 101.62632 
L 344.225975 101.62632 
z
" clip-path="url(#pb72caea710)" style="stroke: #000000; stroke-linejoin: miter"/>
   </g>
   <g id="patch_203">
    <path d="M 372.06159 105.897376 
L 376.663927 105.897376 
L 376.663927 101.295038 
L 372.06159 101.295038 
z
" clip-path="url(#pb72caea710)" style="stroke: #000000; stroke-linejoin: miter"/>
   </g>
   <g id="patch_204">
    <path d="M 400.395008 105.730854 
L 404.664302 105.730854 
L 404.664302 101.46156 
L 400.395008 101.46156 
z
" clip-path="url(#pb72caea710)" style="stroke: #000000; stroke-linejoin: miter"/>
   </g>
   <g id="patch_205">
    <path d="M 428.838282 105.454476 
L 432.554821 105.454476 
L 432.554821 101.737937 
L 428.838282 101.737937 
z
" clip-path="url(#pb72caea710)" style="stroke: #000000; stroke-linejoin: miter"/>
   </g>
   <g id="patch_206">
    <path d="M 456.294596 106.165059 
L 461.432301 106.165059 
L 461.432301 101.027355 
L 456.294596 101.027355 
z
" clip-path="url(#pb72caea710)" style="stroke: #000000; stroke-linejoin: miter"/>
   </g>
   <g id="patch_207">
    <path d="M 484.93456 105.691991 
L 489.126129 105.691991 
L 489.126129 101.500423 
L 484.93456 101.500423 
z
" clip-path="url(#pb72caea710)" style="stroke: #000000; stroke-linejoin: miter"/>
   </g>
   <g id="patch_208">
    <path d="M 512.207239 106.586209 
L 518.187243 106.586209 
L 518.187243 100.606205 
L 512.207239 100.606205 
z
" clip-path="url(#pb72caea710)" style="stroke: #000000; stroke-linejoin: miter"/>
   </g>
   <g id="patch_209">
    <path d="M 540.703943 106.256402 
L 546.024333 106.256402 
L 546.024333 100.936011 
L 540.703943 100.936011 
z
" clip-path="url(#pb72caea710)" style="stroke: #000000; stroke-linejoin: miter"/>
   </g>
   <g id="patch_210">
    <path d="M 568.975919 106.151323 
L 574.08615 106.151323 
L 574.08615 101.041091 
L 568.975919 101.041091 
z
" clip-path="url(#pb72caea710)" style="stroke: #000000; stroke-linejoin: miter"/>
   </g>
   <g id="patch_211">
    <path d="M 596.731147 106.562991 
L 602.664715 106.562991 
L 602.664715 100.629423 
L 596.731147 100.629423 
z
" clip-path="url(#pb72caea710)" style="stroke: #000000; stroke-linejoin: miter"/>
   </g>
   <g id="patch_212">
    <path d="M 625.020695 106.44034 
L 630.70896 106.44034 
L 630.70896 100.752074 
L 625.020695 100.752074 
z
" clip-path="url(#pb72caea710)" style="stroke: #000000; stroke-linejoin: miter"/>
   </g>
   <g id="patch_213">
    <path d="M 653.15866 106.469271 
L 658.904788 106.469271 
L 658.904788 100.723143 
L 653.15866 100.723143 
z
" clip-path="url(#pb72caea710)" style="stroke: #000000; stroke-linejoin: miter"/>
   </g>
   <g id="patch_214">
    <path d="M 680.347375 107.447453 
L 688.049867 107.447453 
L 688.049867 99.744961 
L 680.347375 99.744961 
z
" clip-path="url(#pb72caea710)" style="stroke: #000000; stroke-linejoin: miter"/>
   </g>
   <g id="patch_215">
    <path d="M 708.698934 107.26279 
L 716.0321 107.26279 
L 716.0321 99.929624 
L 708.698934 99.929624 
z
" clip-path="url(#pb72caea710)" style="stroke: #000000; stroke-linejoin: miter"/>
   </g>
   <g id="patch_216">
    <path d="M 736.354463 107.774158 
L 744.710365 107.774158 
L 744.710365 99.418256 
L 736.354463 99.418256 
z
" clip-path="url(#pb72caea710)" style="stroke: #000000; stroke-linejoin: miter"/>
   </g>
   <g id="patch_217">
    <path d="M 763.924939 108.370578 
L 773.473682 108.370578 
L 773.473682 98.821835 
L 763.924939 98.821835 
z
" clip-path="url(#pb72caea710)" style="stroke: #000000; stroke-linejoin: miter"/>
   </g>
   <g id="patch_218">
    <path d="M 791.77138 108.691034 
L 801.961034 108.691034 
L 801.961034 98.50138 
L 791.77138 98.50138 
z
" clip-path="url(#pb72caea710)" style="stroke: #000000; stroke-linejoin: miter"/>
   </g>
   <g id="patch_219">
    <path d="M 59.986306 79.969901 
L 69.067487 79.969901 
L 69.067487 70.88872 
L 59.986306 70.88872 
z
" clip-path="url(#pb72caea710)" style="stroke: #000000; stroke-linejoin: miter"/>
   </g>
   <g id="patch_220">
    <path d="M 88.249647 79.873457 
L 97.137939 79.873457 
L 97.137939 70.985164 
L 88.249647 70.985164 
z
" clip-path="url(#pb72caea710)" style="stroke: #000000; stroke-linejoin: miter"/>
   </g>
   <g id="patch_221">
    <path d="M 117.566398 78.723602 
L 124.154981 78.723602 
L 124.154981 72.135019 
L 117.566398 72.135019 
z
" clip-path="url(#pb72caea710)" style="stroke: #000000; stroke-linejoin: miter"/>
   </g>
   <g id="patch_222">
    <path d="M 145.134994 79.321903 
L 152.920179 79.321903 
L 152.920179 71.536718 
L 145.134994 71.536718 
z
" clip-path="url(#pb72caea710)" style="stroke: #000000; stroke-linejoin: miter"/>
   </g>
   <g id="patch_223">
    <path d="M 173.329427 79.294367 
L 181.059539 79.294367 
L 181.059539 71.564254 
L 173.329427 71.564254 
z
" clip-path="url(#pb72caea710)" style="stroke: #000000; stroke-linejoin: miter"/>
   </g>
   <g id="patch_224">
    <path d="M 201.859082 78.931608 
L 208.863677 78.931608 
L 208.863677 71.927013 
L 201.859082 71.927013 
z
" clip-path="url(#pb72caea710)" style="stroke: #000000; stroke-linejoin: miter"/>
   </g>
   <g id="patch_225">
    <path d="M 230.596301 78.361285 
L 236.460251 78.361285 
L 236.460251 72.497336 
L 230.596301 72.497336 
z
" clip-path="url(#pb72caea710)" style="stroke: #000000; stroke-linejoin: miter"/>
   </g>
   <g id="patch_226">
    <path d="M 260.069666 77.054817 
L 263.320679 77.054817 
L 263.320679 73.803803 
L 260.069666 73.803803 
z
" clip-path="url(#pb72caea710)" style="stroke: #000000; stroke-linejoin: miter"/>
   </g>
   <g id="patch_227">
    <path d="M 286.988712 78.302667 
L 292.735426 78.302667 
L 292.735426 72.555954 
L 286.988712 72.555954 
z
" clip-path="url(#pb72caea710)" style="stroke: #000000; stroke-linejoin: miter"/>
   </g>
   <g id="patch_228">
    <path d="M 314.986278 78.471998 
L 321.071653 78.471998 
L 321.071653 72.386623 
L 314.986278 72.386623 
z
" clip-path="url(#pb72caea710)" style="stroke: #000000; stroke-linejoin: miter"/>
   </g>
   <g id="patch_229">
    <path d="M 344.037934 77.587239 
L 348.35379 77.587239 
L 348.35379 73.271382 
L 344.037934 73.271382 
z
" clip-path="url(#pb72caea710)" style="stroke: #000000; stroke-linejoin: miter"/>
   </g>
   <g id="patch_230">
    <path d="M 370.715512 79.076557 
L 378.010005 79.076557 
L 378.010005 71.782064 
L 370.715512 71.782064 
z
" clip-path="url(#pb72caea710)" style="stroke: #000000; stroke-linejoin: miter"/>
   </g>
   <g id="patch_231">
    <path d="M 399.596564 78.362401 
L 405.462746 78.362401 
L 405.462746 72.496219 
L 399.596564 72.496219 
z
" clip-path="url(#pb72caea710)" style="stroke: #000000; stroke-linejoin: miter"/>
   </g>
   <g id="patch_232">
    <path d="M 427.322213 78.803649 
L 434.070891 78.803649 
L 434.070891 72.054971 
L 427.322213 72.054971 
z
" clip-path="url(#pb72caea710)" style="stroke: #000000; stroke-linejoin: miter"/>
   </g>
   <g id="patch_233">
    <path d="M 456.14038 78.152378 
L 461.586516 78.152378 
L 461.586516 72.706242 
L 456.14038 72.706242 
z
" clip-path="url(#pb72caea710)" style="stroke: #000000; stroke-linejoin: miter"/>
   </g>
   <g id="patch_234">
    <path d="M 483.544107 78.915549 
L 490.516583 78.915549 
L 490.516583 71.943072 
L 483.544107 71.943072 
z
" clip-path="url(#pb72caea710)" style="stroke: #000000; stroke-linejoin: miter"/>
   </g>
   <g id="patch_235">
    <path d="M 511.767964 78.858588 
L 518.626519 78.858588 
L 518.626519 72.000033 
L 511.767964 72.000033 
z
" clip-path="url(#pb72caea710)" style="stroke: #000000; stroke-linejoin: miter"/>
   </g>
   <g id="patch_236">
    <path d="M 541.620333 77.173115 
L 545.107943 77.173115 
L 545.107943 73.685506 
L 541.620333 73.685506 
z
" clip-path="url(#pb72caea710)" style="stroke: #000000; stroke-linejoin: miter"/>
   </g>
   <g id="patch_237">
    <path d="M 568.227834 78.732511 
L 574.834235 78.732511 
L 574.834235 72.126109 
L 568.227834 72.126109 
z
" clip-path="url(#pb72caea710)" style="stroke: #000000; stroke-linejoin: miter"/>
   </g>
   <g id="patch_238">
    <path d="M 595.982007 79.145235 
L 603.413855 79.145235 
L 603.413855 71.713386 
L 595.982007 71.713386 
z
" clip-path="url(#pb72caea710)" style="stroke: #000000; stroke-linejoin: miter"/>
   </g>
   <g id="patch_239">
    <path d="M 622.912162 80.381976 
L 632.817493 80.381976 
L 632.817493 70.476645 
L 622.912162 70.476645 
z
" clip-path="url(#pb72caea710)" style="stroke: #000000; stroke-linejoin: miter"/>
   </g>
   <g id="patch_240">
    <path d="M 651.555729 79.905305 
L 660.507719 79.905305 
L 660.507719 70.953315 
L 651.555729 70.953315 
z
" clip-path="url(#pb72caea710)" style="stroke: #000000; stroke-linejoin: miter"/>
   </g>
   <g id="patch_241">
    <path d="M 680.023476 79.604455 
L 688.373765 79.604455 
L 688.373765 71.254166 
L 680.023476 71.254166 
z
" clip-path="url(#pb72caea710)" style="stroke: #000000; stroke-linejoin: miter"/>
   </g>
   <g id="patch_242">
    <path d="M 707.302351 80.492477 
L 717.428684 80.492477 
L 717.428684 70.366144 
L 707.302351 70.366144 
z
" clip-path="url(#pb72caea710)" style="stroke: #000000; stroke-linejoin: miter"/>
   </g>
   <g id="patch_243">
    <path d="M 735.07118 80.890544 
L 745.993648 80.890544 
L 745.993648 69.968076 
L 735.07118 69.968076 
z
" clip-path="url(#pb72caea710)" style="stroke: #000000; stroke-linejoin: miter"/>
   </g>
   <g id="patch_244">
    <path d="M 761.489471 82.639149 
L 775.909149 82.639149 
L 775.909149 68.219471 
L 761.489471 68.219471 
z
" clip-path="url(#pb72caea710)" style="stroke: #000000; stroke-linejoin: miter"/>
   </g>
   <g id="patch_245">
    <path d="M 788.655493 83.640025 
L 805.076921 83.640025 
L 805.076921 67.218596 
L 788.655493 67.218596 
z
" clip-path="url(#pb72caea710)" style="stroke: #000000; stroke-linejoin: miter"/>
   </g>
   <g id="matplotlib.axis_1">
    <g id="xtick_1">
     <g id="line2d_1">
      <defs>
       <path id="m9da1079889" d="M 0 0 
L 0 3.5 
" style="stroke: #000000; stroke-width: 0.8"/>
      </defs>
      <g>
       <use xlink:href="#m9da1079889" x="64.526897" y="328.931379" style="stroke: #000000; stroke-width: 0.8"/>
      </g>
     </g>
     <g id="text_1">
      <!-- 1 -->
      <g transform="translate(61.51674 350.082942) scale(0.1 -0.1)">
       <defs>
        <path id="DejaVuSansMono-31" d="M 844 531 
L 1825 531 
L 1825 4097 
L 769 3859 
L 769 4434 
L 1819 4666 
L 2450 4666 
L 2450 531 
L 3419 531 
L 3419 0 
L 844 0 
L 844 531 
z
" transform="scale(0.015625)"/>
       </defs>
       <use xlink:href="#DejaVuSansMono-31"/>
      </g>
     </g>
    </g>
    <g id="xtick_2">
     <g id="line2d_2">
      <g>
       <use xlink:href="#m9da1079889" x="796.866207" y="328.931379" style="stroke: #000000; stroke-width: 0.8"/>
      </g>
     </g>
     <g id="text_2">
      <!-- 1000 -->
      <g transform="translate(784.825582 350.082942) scale(0.1 -0.1)">
       <defs>
        <path id="DejaVuSansMono-30" d="M 1509 2344 
Q 1509 2516 1629 2641 
Q 1750 2766 1919 2766 
Q 2094 2766 2219 2641 
Q 2344 2516 2344 2344 
Q 2344 2169 2220 2047 
Q 2097 1925 1919 1925 
Q 1744 1925 1626 2044 
Q 1509 2163 1509 2344 
z
M 1925 4250 
Q 1484 4250 1267 3775 
Q 1050 3300 1050 2328 
Q 1050 1359 1267 884 
Q 1484 409 1925 409 
Q 2369 409 2586 884 
Q 2803 1359 2803 2328 
Q 2803 3300 2586 3775 
Q 2369 4250 1925 4250 
z
M 1925 4750 
Q 2672 4750 3055 4137 
Q 3438 3525 3438 2328 
Q 3438 1134 3055 521 
Q 2672 -91 1925 -91 
Q 1178 -91 797 521 
Q 416 1134 416 2328 
Q 416 3525 797 4137 
Q 1178 4750 1925 4750 
z
" transform="scale(0.015625)"/>
       </defs>
       <use xlink:href="#DejaVuSansMono-31"/>
       <use xlink:href="#DejaVuSansMono-30" x="60.205078"/>
       <use xlink:href="#DejaVuSansMono-30" x="120.410156"/>
       <use xlink:href="#DejaVuSansMono-30" x="180.615234"/>
      </g>
     </g>
    </g>
   </g>
   <g id="matplotlib.axis_2">
    <g id="ytick_1">
     <g id="line2d_3">
      <defs>
       <path id="mc959e6c8b5" d="M 0 0 
L -3.5 0 
" style="stroke: #000000; stroke-width: 0.8"/>
      </defs>
      <g>
       <use xlink:href="#mc959e6c8b5" x="36.36" y="300.764483" style="stroke: #000000; stroke-width: 0.8"/>
      </g>
     </g>
     <g id="text_3">
      <!-- 2 -->
      <g transform="translate(16.839687 304.590264) scale(0.1 -0.1)">
       <defs>
        <path id="DejaVuSansMono-32" d="M 1166 531 
L 3309 531 
L 3309 0 
L 475 0 
L 475 531 
Q 1059 1147 1496 1619 
Q 1934 2091 2100 2284 
Q 2413 2666 2522 2902 
Q 2631 3138 2631 3384 
Q 2631 3775 2401 3997 
Q 2172 4219 1772 4219 
Q 1488 4219 1175 4116 
Q 863 4013 513 3803 
L 513 4441 
Q 834 4594 1145 4672 
Q 1456 4750 1759 4750 
Q 2444 4750 2861 4386 
Q 3278 4022 3278 3431 
Q 3278 3131 3139 2831 
Q 3000 2531 2688 2169 
Q 2513 1966 2180 1606 
Q 1847 1247 1166 531 
z
" transform="scale(0.015625)"/>
       </defs>
       <use xlink:href="#DejaVuSansMono-32"/>
      </g>
     </g>
    </g>
    <g id="ytick_2">
     <g id="line2d_4">
      <g>
       <use xlink:href="#mc959e6c8b5" x="36.36" y="272.597586" style="stroke: #000000; stroke-width: 0.8"/>
      </g>
     </g>
     <g id="text_4">
      <!-- 3 -->
      <g transform="translate(16.839687 276.423367) scale(0.1 -0.1)">
       <defs>
        <path id="DejaVuSansMono-33" d="M 2425 2497 
Q 2884 2375 3128 2064 
Q 3372 1753 3372 1288 
Q 3372 644 2939 276 
Q 2506 -91 1741 -91 
Q 1419 -91 1084 -31 
Q 750 28 428 141 
L 428 769 
Q 747 603 1056 522 
Q 1366 441 1672 441 
Q 2191 441 2469 675 
Q 2747 909 2747 1350 
Q 2747 1756 2469 1995 
Q 2191 2234 1716 2234 
L 1234 2234 
L 1234 2753 
L 1716 2753 
Q 2150 2753 2394 2943 
Q 2638 3134 2638 3475 
Q 2638 3834 2411 4026 
Q 2184 4219 1766 4219 
Q 1488 4219 1191 4156 
Q 894 4094 569 3969 
L 569 4550 
Q 947 4650 1242 4700 
Q 1538 4750 1766 4750 
Q 2447 4750 2855 4408 
Q 3263 4066 3263 3500 
Q 3263 3116 3048 2859 
Q 2834 2603 2425 2497 
z
" transform="scale(0.015625)"/>
       </defs>
       <use xlink:href="#DejaVuSansMono-33"/>
      </g>
     </g>
    </g>
    <g id="ytick_3">
     <g id="line2d_5">
      <g>
       <use xlink:href="#mc959e6c8b5" x="36.36" y="244.43069" style="stroke: #000000; stroke-width: 0.8"/>
      </g>
     </g>
     <g id="text_5">
      <!-- 5 -->
      <g transform="translate(16.839687 248.256471) scale(0.1 -0.1)">
       <defs>
        <path id="DejaVuSansMono-35" d="M 647 4666 
L 3009 4666 
L 3009 4134 
L 1222 4134 
L 1222 2988 
Q 1356 3038 1492 3061 
Q 1628 3084 1766 3084 
Q 2491 3084 2916 2656 
Q 3341 2228 3341 1497 
Q 3341 759 2895 334 
Q 2450 -91 1678 -91 
Q 1306 -91 998 -41 
Q 691 9 447 109 
L 447 750 
Q 734 594 1025 517 
Q 1316 441 1619 441 
Q 2141 441 2423 716 
Q 2706 991 2706 1497 
Q 2706 1997 2414 2275 
Q 2122 2553 1600 2553 
Q 1347 2553 1106 2495 
Q 866 2438 647 2322 
L 647 4666 
z
" transform="scale(0.015625)"/>
       </defs>
       <use xlink:href="#DejaVuSansMono-35"/>
      </g>
     </g>
    </g>
    <g id="ytick_4">
     <g id="line2d_6">
      <g>
       <use xlink:href="#mc959e6c8b5" x="36.36" y="216.263793" style="stroke: #000000; stroke-width: 0.8"/>
      </g>
     </g>
     <g id="text_6">
      <!-- 7 -->
      <g transform="translate(16.839687 220.089574) scale(0.1 -0.1)">
       <defs>
        <path id="DejaVuSansMono-37" d="M 434 4666 
L 3372 4666 
L 3372 4397 
L 1703 0 
L 1044 0 
L 2669 4134 
L 434 4134 
L 434 4666 
z
" transform="scale(0.015625)"/>
       </defs>
       <use xlink:href="#DejaVuSansMono-37"/>
      </g>
     </g>
    </g>
    <g id="ytick_5">
     <g id="line2d_7">
      <g>
       <use xlink:href="#mc959e6c8b5" x="36.36" y="188.096897" style="stroke: #000000; stroke-width: 0.8"/>
      </g>
     </g>
     <g id="text_7">
      <!-- 11 -->
      <g transform="translate(10.819375 191.922678) scale(0.1 -0.1)">
       <use xlink:href="#DejaVuSansMono-31"/>
       <use xlink:href="#DejaVuSansMono-31" x="60.205078"/>
      </g>
     </g>
    </g>
    <g id="ytick_6">
     <g id="line2d_8">
      <g>
       <use xlink:href="#mc959e6c8b5" x="36.36" y="159.93" style="stroke: #000000; stroke-width: 0.8"/>
      </g>
     </g>
     <g id="text_8">
      <!-- 13 -->
      <g transform="translate(10.819375 163.755781) scale(0.1 -0.1)">
       <use xlink:href="#DejaVuSansMono-31"/>
       <use xlink:href="#DejaVuSansMono-33" x="60.205078"/>
      </g>
     </g>
    </g>
    <g id="ytick_7">
     <g id="line2d_9">
      <g>
       <use xlink:href="#mc959e6c8b5" x="36.36" y="131.763103" style="stroke: #000000; stroke-width: 0.8"/>
      </g>
     </g>
     <g id="text_9">
      <!-- 17 -->
      <g transform="translate(10.819375 135.588885) scale(0.1 -0.1)">
       <use xlink:href="#DejaVuSansMono-31"/>
       <use xlink:href="#DejaVuSansMono-37" x="60.205078"/>
      </g>
     </g>
    </g>
    <g id="ytick_8">
     <g id="line2d_10">
      <g>
       <use xlink:href="#mc959e6c8b5" x="36.36" y="103.596207" style="stroke: #000000; stroke-width: 0.8"/>
      </g>
     </g>
     <g id="text_10">
      <!-- 19 -->
      <g transform="translate(10.819375 107.421988) scale(0.1 -0.1)">
       <defs>
        <path id="DejaVuSansMono-39" d="M 1863 2069 
Q 2266 2069 2495 2359 
Q 2725 2650 2725 3163 
Q 2725 3675 2495 3965 
Q 2266 4256 1863 4256 
Q 1444 4256 1231 3979 
Q 1019 3703 1019 3163 
Q 1019 2619 1230 2344 
Q 1441 2069 1863 2069 
z
M 738 97 
L 738 678 
Q 934 563 1156 502 
Q 1378 441 1619 441 
Q 2219 441 2526 892 
Q 2834 1344 2834 2222 
Q 2688 1909 2422 1742 
Q 2156 1575 1813 1575 
Q 1138 1575 767 1990 
Q 397 2406 397 3169 
Q 397 3922 776 4336 
Q 1156 4750 1850 4750 
Q 2663 4750 3041 4165 
Q 3419 3581 3419 2328 
Q 3419 1150 2964 529 
Q 2509 -91 1644 -91 
Q 1416 -91 1184 -42 
Q 953 6 738 97 
z
" transform="scale(0.015625)"/>
       </defs>
       <use xlink:href="#DejaVuSansMono-31"/>
       <use xlink:href="#DejaVuSansMono-39" x="60.205078"/>
      </g>
     </g>
    </g>
    <g id="ytick_9">
     <g id="line2d_11">
      <g>
       <use xlink:href="#mc959e6c8b5" x="36.36" y="75.42931" style="stroke: #000000; stroke-width: 0.8"/>
      </g>
     </g>
     <g id="text_11">
      <!--  -->
      <g transform="translate(16.839687 79.255092) scale(0.1 -0.1)">
       <defs>
        <path id="DejaVuSansMono-2119" d="M 506 4353 
L 506 313 
L 1106 313 
L 1106 4353 
L 506 4353 
z
M 1406 4353 
L 1406 2284 
L 2306 2284 
Q 2378 2284 2447 2291 
L 2447 4347 
Q 2378 4353 2306 4353 
L 1406 4353 
z
M 206 4666 
L 2166 4666 
Q 2913 4666 3297 4323 
Q 3681 3981 3681 3322 
Q 3681 2656 3297 2315 
Q 2913 1975 2163 1975 
L 1406 1975 
L 1406 0 
L 206 0 
L 206 4666 
z
M 2759 4281 
L 2759 2359 
Q 2941 2428 3075 2556 
Q 3353 2825 3353 3322 
Q 3353 3816 3078 4084 
Q 2947 4213 2759 4281 
z
" transform="scale(0.015625)"/>
       </defs>
       <use xlink:href="#DejaVuSansMono-2119"/>
      </g>
     </g>
    </g>
   </g>
  </g>
 </g>
 <defs>
  <clipPath id="pb72caea710">
   <rect x="36.36" y="19.095517" width="816.84" height="309.835862"/>
  </clipPath>
 </defs>
</svg>
