<?xml version="1.0" encoding="utf-8" standalone="no"?>
<!DOCTYPE svg PUBLIC "-//W3C//DTD SVG 1.1//EN"
  "http://www.w3.org/Graphics/SVG/1.1/DTD/svg11.dtd">
<svg xmlns:xlink="http://www.w3.org/1999/xlink" width="864pt" height="360pt" viewBox="0 0 864 360" xmlns="http://www.w3.org/2000/svg" version="1.1">
 <metadata>
  <rdf:RDF xmlns:dc="http://purl.org/dc/elements/1.1/" xmlns:cc="http://creativecommons.org/ns#" xmlns:rdf="http://www.w3.org/1999/02/22-rdf-syntax-ns#">
   <cc:Work>
    <dc:type rdf:resource="http://purl.org/dc/dcmitype/StillImage"/>
    <dc:date>2024-09-16T23:37:34.087502</dc:date>
    <dc:format>image/svg+xml</dc:format>
    <dc:creator>
     <cc:Agent>
      <dc:title>Matplotlib v3.9.2, https://matplotlib.org/</dc:title>
     </cc:Agent>
    </dc:creator>
   </cc:Work>
  </rdf:RDF>
 </metadata>
 <defs>
  <style type="text/css">*{stroke-linejoin: round; stroke-linecap: butt}</style>
 </defs>
 <g id="figure_1">
  <g id="patch_1">
   <path d="M 0 360 
L 864 360 
L 864 0 
L 0 0 
z
" style="fill: #ffffff"/>
  </g>
  <g id="axes_1">
   <g id="patch_2">
    <path d="M 36.36 328.931379 
L 853.2 328.931379 
L 853.2 19.095517 
L 36.36 19.095517 
z
" style="fill: #ffffff"/>
   </g>
   <g id="patch_3">
    <path d="M 56.981429 308.30995 
L 72.072364 308.30995 
L 72.072364 293.219015 
L 56.981429 293.219015 
z
" clip-path="url(#pc2127fec66)" style="stroke: #000000; stroke-linejoin: miter"/>
   </g>
   <g id="patch_4">
    <path d="M 85.413257 308.045019 
L 99.97433 308.045019 
L 99.97433 293.483946 
L 85.413257 293.483946 
z
" clip-path="url(#pc2127fec66)" style="stroke: #000000; stroke-linejoin: miter"/>
   </g>
   <g id="patch_5">
    <path d="M 113.267614 308.357558 
L 128.453765 308.357558 
L 128.453765 293.171407 
L 113.267614 293.171407 
z
" clip-path="url(#pc2127fec66)" style="stroke: #000000; stroke-linejoin: miter"/>
   </g>
   <g id="patch_6">
    <path d="M 141.681443 308.110626 
L 156.37373 308.110626 
L 156.37373 293.418339 
L 141.681443 293.418339 
z
" clip-path="url(#pc2127fec66)" style="stroke: #000000; stroke-linejoin: miter"/>
   </g>
   <g id="patch_7">
    <path d="M 169.811498 308.147467 
L 184.577467 308.147467 
L 184.577467 293.381498 
L 169.811498 293.381498 
z
" clip-path="url(#pc2127fec66)" style="stroke: #000000; stroke-linejoin: miter"/>
   </g>
   <g id="patch_8">
    <path d="M 197.969939 308.155923 
L 212.75282 308.155923 
L 212.75282 293.373042 
L 197.969939 293.373042 
z
" clip-path="url(#pc2127fec66)" style="stroke: #000000; stroke-linejoin: miter"/>
   </g>
   <g id="patch_9">
    <path d="M 226.172071 308.120687 
L 240.88448 308.120687 
L 240.88448 293.408278 
L 226.172071 293.408278 
z
" clip-path="url(#pc2127fec66)" style="stroke: #000000; stroke-linejoin: miter"/>
   </g>
   <g id="patch_10">
    <path d="M 254.530228 307.929427 
L 268.860117 307.929427 
L 268.860117 293.599539 
L 254.530228 293.599539 
z
" clip-path="url(#pc2127fec66)" style="stroke: #000000; stroke-linejoin: miter"/>
   </g>
   <g id="patch_11">
    <path d="M 282.435242 308.19131 
L 297.288896 308.19131 
L 297.288896 293.337656 
L 282.435242 293.337656 
z
" clip-path="url(#pc2127fec66)" style="stroke: #000000; stroke-linejoin: miter"/>
   </g>
   <g id="patch_12">
    <path d="M 310.769356 308.024092 
L 325.288575 308.024092 
L 325.288575 293.504873 
L 310.769356 293.504873 
z
" clip-path="url(#pc2127fec66)" style="stroke: #000000; stroke-linejoin: miter"/>
   </g>
   <g id="patch_13">
    <path d="M 338.861736 308.098609 
L 353.529989 308.098609 
L 353.529989 293.430356 
L 338.861736 293.430356 
z
" clip-path="url(#pc2127fec66)" style="stroke: #000000; stroke-linejoin: miter"/>
   </g>
   <g id="patch_14">
    <path d="M 367.134473 307.992768 
L 381.591044 307.992768 
L 381.591044 293.536197 
L 367.134473 293.536197 
z
" clip-path="url(#pc2127fec66)" style="stroke: #000000; stroke-linejoin: miter"/>
   </g>
   <g id="patch_15">
    <path d="M 395.228684 308.065454 
L 409.830627 308.065454 
L 409.830627 293.463511 
L 395.228684 293.463511 
z
" clip-path="url(#pc2127fec66)" style="stroke: #000000; stroke-linejoin: miter"/>
   </g>
   <g id="patch_16">
    <path d="M 423.337741 308.123293 
L 438.055362 308.123293 
L 438.055362 293.405672 
L 423.337741 293.405672 
z
" clip-path="url(#pc2127fec66)" style="stroke: #000000; stroke-linejoin: miter"/>
   </g>
   <g id="patch_17">
    <path d="M 451.62203 308.005901 
L 466.104867 308.005901 
L 466.104867 293.523064 
L 451.62203 293.523064 
z
" clip-path="url(#pc2127fec66)" style="stroke: #000000; stroke-linejoin: miter"/>
   </g>
   <g id="patch_18">
    <path d="M 479.769214 308.025614 
L 494.291476 308.025614 
L 494.291476 293.503352 
L 479.769214 293.503352 
z
" clip-path="url(#pc2127fec66)" style="stroke: #000000; stroke-linejoin: miter"/>
   </g>
   <g id="patch_19">
    <path d="M 507.9633 307.998424 
L 522.431183 307.998424 
L 522.431183 293.530541 
L 507.9633 293.530541 
z
" clip-path="url(#pc2127fec66)" style="stroke: #000000; stroke-linejoin: miter"/>
   </g>
   <g id="patch_20">
    <path d="M 536.119583 308.009038 
L 550.608693 308.009038 
L 550.608693 293.519928 
L 536.119583 293.519928 
z
" clip-path="url(#pc2127fec66)" style="stroke: #000000; stroke-linejoin: miter"/>
   </g>
   <g id="patch_21">
    <path d="M 564.167683 308.127835 
L 578.894386 308.127835 
L 578.894386 293.401131 
L 564.167683 293.401131 
z
" clip-path="url(#pc2127fec66)" style="stroke: #000000; stroke-linejoin: miter"/>
   </g>
   <g id="patch_22">
    <path d="M 592.569644 307.89277 
L 606.826218 307.89277 
L 606.826218 293.636196 
L 592.569644 293.636196 
z
" clip-path="url(#pc2127fec66)" style="stroke: #000000; stroke-linejoin: miter"/>
   </g>
   <g id="patch_23">
    <path d="M 620.65708 307.97223 
L 635.072575 307.97223 
L 635.072575 293.556736 
L 620.65708 293.556736 
z
" clip-path="url(#pc2127fec66)" style="stroke: #000000; stroke-linejoin: miter"/>
   </g>
   <g id="patch_24">
    <path d="M 648.816223 307.979984 
L 663.247225 307.979984 
L 663.247225 293.548982 
L 648.816223 293.548982 
z
" clip-path="url(#pc2127fec66)" style="stroke: #000000; stroke-linejoin: miter"/>
   </g>
   <g id="patch_25">
    <path d="M 676.919899 308.043204 
L 691.477342 308.043204 
L 691.477342 293.485761 
L 676.919899 293.485761 
z
" clip-path="url(#pc2127fec66)" style="stroke: #000000; stroke-linejoin: miter"/>
   </g>
   <g id="patch_26">
    <path d="M 705.267178 307.862822 
L 719.463857 307.862822 
L 719.463857 293.666143 
L 705.267178 293.666143 
z
" clip-path="url(#pc2127fec66)" style="stroke: #000000; stroke-linejoin: miter"/>
   </g>
   <g id="patch_27">
    <path d="M 733.414673 307.882223 
L 747.650154 307.882223 
L 747.650154 293.646742 
L 733.414673 293.646742 
z
" clip-path="url(#pc2127fec66)" style="stroke: #000000; stroke-linejoin: miter"/>
   </g>
   <g id="patch_28">
    <path d="M 761.806788 307.657005 
L 775.591832 307.657005 
L 775.591832 293.871961 
L 761.806788 293.871961 
z
" clip-path="url(#pc2127fec66)" style="stroke: #000000; stroke-linejoin: miter"/>
   </g>
   <g id="patch_29">
    <path d="M 790.633057 306.997633 
L 803.099357 306.997633 
L 803.099357 294.531333 
L 790.633057 294.531333 
z
" clip-path="url(#pc2127fec66)" style="stroke: #000000; stroke-linejoin: miter"/>
   </g>
   <g id="patch_30">
    <path d="M 57.808286 279.316197 
L 71.245507 279.316197 
L 71.245507 265.878976 
L 57.808286 265.878976 
z
" clip-path="url(#pc2127fec66)" style="stroke: #000000; stroke-linejoin: miter"/>
   </g>
   <g id="patch_31">
    <path d="M 86.080728 279.210651 
L 99.306858 279.210651 
L 99.306858 265.984521 
L 86.080728 265.984521 
z
" clip-path="url(#pc2127fec66)" style="stroke: #000000; stroke-linejoin: miter"/>
   </g>
   <g id="patch_32">
    <path d="M 114.321359 279.136917 
L 127.400021 279.136917 
L 127.400021 266.058255 
L 114.321359 266.058255 
z
" clip-path="url(#pc2127fec66)" style="stroke: #000000; stroke-linejoin: miter"/>
   </g>
   <g id="patch_33">
    <path d="M 142.522191 279.102981 
L 155.532981 279.102981 
L 155.532981 266.092191 
L 142.522191 266.092191 
z
" clip-path="url(#pc2127fec66)" style="stroke: #000000; stroke-linejoin: miter"/>
   </g>
   <g id="patch_34">
    <path d="M 170.615645 279.176424 
L 183.773321 279.176424 
L 183.773321 266.018748 
L 170.615645 266.018748 
z
" clip-path="url(#pc2127fec66)" style="stroke: #000000; stroke-linejoin: miter"/>
   </g>
   <g id="patch_35">
    <path d="M 198.881134 279.077831 
L 211.841624 279.077831 
L 211.841624 266.117341 
L 198.881134 266.117341 
z
" clip-path="url(#pc2127fec66)" style="stroke: #000000; stroke-linejoin: miter"/>
   </g>
   <g id="patch_36">
    <path d="M 227.011275 279.114587 
L 240.045277 279.114587 
L 240.045277 266.080586 
L 227.011275 266.080586 
z
" clip-path="url(#pc2127fec66)" style="stroke: #000000; stroke-linejoin: miter"/>
   </g>
   <g id="patch_37">
    <path d="M 255.160542 279.132216 
L 268.229803 279.132216 
L 268.229803 266.062956 
L 255.160542 266.062956 
z
" clip-path="url(#pc2127fec66)" style="stroke: #000000; stroke-linejoin: miter"/>
   </g>
   <g id="patch_38">
    <path d="M 283.37349 279.086165 
L 296.350648 279.086165 
L 296.350648 266.109007 
L 283.37349 266.109007 
z
" clip-path="url(#pc2127fec66)" style="stroke: #000000; stroke-linejoin: miter"/>
   </g>
   <g id="patch_39">
    <path d="M 311.566126 279.060426 
L 324.491805 279.060426 
L 324.491805 266.134746 
L 311.566126 266.134746 
z
" clip-path="url(#pc2127fec66)" style="stroke: #000000; stroke-linejoin: miter"/>
   </g>
   <g id="patch_40">
    <path d="M 339.688819 279.104629 
L 352.702905 279.104629 
L 352.702905 266.090544 
L 339.688819 266.090544 
z
" clip-path="url(#pc2127fec66)" style="stroke: #000000; stroke-linejoin: miter"/>
   </g>
   <g id="patch_41">
    <path d="M 367.885863 279.074482 
L 380.839655 279.074482 
L 380.839655 266.12069 
L 367.885863 266.12069 
z
" clip-path="url(#pc2127fec66)" style="stroke: #000000; stroke-linejoin: miter"/>
   </g>
   <g id="patch_42">
    <path d="M 396.073277 279.053965 
L 408.986034 279.053965 
L 408.986034 266.141208 
L 396.073277 266.141208 
z
" clip-path="url(#pc2127fec66)" style="stroke: #000000; stroke-linejoin: miter"/>
   </g>
   <g id="patch_43">
    <path d="M 424.230444 279.063694 
L 437.162659 279.063694 
L 437.162659 266.131479 
L 424.230444 266.131479 
z
" clip-path="url(#pc2127fec66)" style="stroke: #000000; stroke-linejoin: miter"/>
   </g>
   <g id="patch_44">
    <path d="M 452.371261 279.089774 
L 465.355636 279.089774 
L 465.355636 266.105399 
L 452.371261 266.105399 
z
" clip-path="url(#pc2127fec66)" style="stroke: #000000; stroke-linejoin: miter"/>
   </g>
   <g id="patch_45">
    <path d="M 480.583923 279.044008 
L 493.476766 279.044008 
L 493.476766 266.151165 
L 480.583923 266.151165 
z
" clip-path="url(#pc2127fec66)" style="stroke: #000000; stroke-linejoin: miter"/>
   </g>
   <g id="patch_46">
    <path d="M 508.761921 279.032906 
L 521.632561 279.032906 
L 521.632561 266.162266 
L 508.761921 266.162266 
z
" clip-path="url(#pc2127fec66)" style="stroke: #000000; stroke-linejoin: miter"/>
   </g>
   <g id="patch_47">
    <path d="M 536.93142 279.030305 
L 549.796856 279.030305 
L 549.796856 266.164868 
L 536.93142 266.164868 
z
" clip-path="url(#pc2127fec66)" style="stroke: #000000; stroke-linejoin: miter"/>
   </g>
   <g id="patch_48">
    <path d="M 565.111449 279.017172 
L 577.95062 279.017172 
L 577.95062 266.178001 
L 565.111449 266.178001 
z
" clip-path="url(#pc2127fec66)" style="stroke: #000000; stroke-linejoin: miter"/>
   </g>
   <g id="patch_49">
    <path d="M 593.257839 279.037678 
L 606.138023 279.037678 
L 606.138023 266.157494 
L 593.257839 266.157494 
z
" clip-path="url(#pc2127fec66)" style="stroke: #000000; stroke-linejoin: miter"/>
   </g>
   <g id="patch_50">
    <path d="M 621.450307 279.012107 
L 634.279348 279.012107 
L 634.279348 266.183066 
L 621.450307 266.183066 
z
" clip-path="url(#pc2127fec66)" style="stroke: #000000; stroke-linejoin: miter"/>
   </g>
   <g id="patch_51">
    <path d="M 649.620706 279.008605 
L 662.442743 279.008605 
L 662.442743 266.186568 
L 649.620706 266.186568 
z
" clip-path="url(#pc2127fec66)" style="stroke: #000000; stroke-linejoin: miter"/>
   </g>
   <g id="patch_52">
    <path d="M 677.801218 278.994989 
L 690.596024 278.994989 
L 690.596024 266.200183 
L 677.801218 266.200183 
z
" clip-path="url(#pc2127fec66)" style="stroke: #000000; stroke-linejoin: miter"/>
   </g>
   <g id="patch_53">
    <path d="M 706.001409 278.961694 
L 718.729625 278.961694 
L 718.729625 266.233478 
L 706.001409 266.233478 
z
" clip-path="url(#pc2127fec66)" style="stroke: #000000; stroke-linejoin: miter"/>
   </g>
   <g id="patch_54">
    <path d="M 734.141961 278.988039 
L 746.922867 278.988039 
L 746.922867 266.207133 
L 734.141961 266.207133 
z
" clip-path="url(#pc2127fec66)" style="stroke: #000000; stroke-linejoin: miter"/>
   </g>
   <g id="patch_55">
    <path d="M 762.309614 278.987283 
L 775.089007 278.987283 
L 775.089007 266.20789 
L 762.309614 266.20789 
z
" clip-path="url(#pc2127fec66)" style="stroke: #000000; stroke-linejoin: miter"/>
   </g>
   <g id="patch_56">
    <path d="M 790.507826 278.955967 
L 803.224587 278.955967 
L 803.224587 266.239206 
L 790.507826 266.239206 
z
" clip-path="url(#pc2127fec66)" style="stroke: #000000; stroke-linejoin: miter"/>
   </g>
   <g id="patch_57">
    <path d="M 58.290706 250.66688 
L 70.763087 250.66688 
L 70.763087 238.194499 
L 58.290706 238.194499 
z
" clip-path="url(#pc2127fec66)" style="stroke: #000000; stroke-linejoin: miter"/>
   </g>
   <g id="patch_58">
    <path d="M 86.744693 250.37979 
L 98.642894 250.37979 
L 98.642894 238.481589 
L 86.744693 238.481589 
z
" clip-path="url(#pc2127fec66)" style="stroke: #000000; stroke-linejoin: miter"/>
   </g>
   <g id="patch_59">
    <path d="M 114.960989 250.33039 
L 126.76039 250.33039 
L 126.76039 238.530989 
L 114.960989 238.530989 
z
" clip-path="url(#pc2127fec66)" style="stroke: #000000; stroke-linejoin: miter"/>
   </g>
   <g id="patch_60">
    <path d="M 143.065768 250.392508 
L 154.989404 250.392508 
L 154.989404 238.468871 
L 143.065768 238.468871 
z
" clip-path="url(#pc2127fec66)" style="stroke: #000000; stroke-linejoin: miter"/>
   </g>
   <g id="patch_61">
    <path d="M 171.245501 250.379671 
L 183.143464 250.379671 
L 183.143464 238.481708 
L 171.245501 238.481708 
z
" clip-path="url(#pc2127fec66)" style="stroke: #000000; stroke-linejoin: miter"/>
   </g>
   <g id="patch_62">
    <path d="M 199.296402 250.495667 
L 211.426356 250.495667 
L 211.426356 238.365713 
L 199.296402 238.365713 
z
" clip-path="url(#pc2127fec66)" style="stroke: #000000; stroke-linejoin: miter"/>
   </g>
   <g id="patch_63">
    <path d="M 227.672803 250.286163 
L 239.383749 250.286163 
L 239.383749 238.575217 
L 227.672803 238.575217 
z
" clip-path="url(#pc2127fec66)" style="stroke: #000000; stroke-linejoin: miter"/>
   </g>
   <g id="patch_64">
    <path d="M 255.783138 250.342724 
L 267.607207 250.342724 
L 267.607207 238.518655 
L 255.783138 238.518655 
z
" clip-path="url(#pc2127fec66)" style="stroke: #000000; stroke-linejoin: miter"/>
   </g>
   <g id="patch_65">
    <path d="M 283.920917 250.371842 
L 295.803221 250.371842 
L 295.803221 238.489538 
L 283.920917 238.489538 
z
" clip-path="url(#pc2127fec66)" style="stroke: #000000; stroke-linejoin: miter"/>
   </g>
   <g id="patch_66">
    <path d="M 312.116064 250.343591 
L 323.941867 250.343591 
L 323.941867 238.517788 
L 312.116064 238.517788 
z
" clip-path="url(#pc2127fec66)" style="stroke: #000000; stroke-linejoin: miter"/>
   </g>
   <g id="patch_67">
    <path d="M 340.306233 250.320319 
L 352.085491 250.320319 
L 352.085491 238.541061 
L 340.306233 238.541061 
z
" clip-path="url(#pc2127fec66)" style="stroke: #000000; stroke-linejoin: miter"/>
   </g>
   <g id="patch_68">
    <path d="M 368.480658 250.31279 
L 380.244859 250.31279 
L 380.244859 238.548589 
L 368.480658 238.548589 
z
" clip-path="url(#pc2127fec66)" style="stroke: #000000; stroke-linejoin: miter"/>
   </g>
   <g id="patch_69">
    <path d="M 396.735915 250.22443 
L 408.323396 250.22443 
L 408.323396 238.636949 
L 396.735915 238.636949 
z
" clip-path="url(#pc2127fec66)" style="stroke: #000000; stroke-linejoin: miter"/>
   </g>
   <g id="patch_70">
    <path d="M 424.826794 250.300448 
L 436.56631 250.300448 
L 436.56631 238.560932 
L 424.826794 238.560932 
z
" clip-path="url(#pc2127fec66)" style="stroke: #000000; stroke-linejoin: miter"/>
   </g>
   <g id="patch_71">
    <path d="M 452.961208 250.33293 
L 464.765688 250.33293 
L 464.765688 238.52845 
L 452.961208 238.52845 
z
" clip-path="url(#pc2127fec66)" style="stroke: #000000; stroke-linejoin: miter"/>
   </g>
   <g id="patch_72">
    <path d="M 481.17873 250.282304 
L 492.881959 250.282304 
L 492.881959 238.579075 
L 481.17873 238.579075 
z
" clip-path="url(#pc2127fec66)" style="stroke: #000000; stroke-linejoin: miter"/>
   </g>
   <g id="patch_73">
    <path d="M 509.360648 250.267283 
L 521.033834 250.267283 
L 521.033834 238.594097 
L 509.360648 238.594097 
z
" clip-path="url(#pc2127fec66)" style="stroke: #000000; stroke-linejoin: miter"/>
   </g>
   <g id="patch_74">
    <path d="M 537.466974 250.327853 
L 549.261301 250.327853 
L 549.261301 238.533526 
L 537.466974 238.533526 
z
" clip-path="url(#pc2127fec66)" style="stroke: #000000; stroke-linejoin: miter"/>
   </g>
   <g id="patch_75">
    <path d="M 565.685821 250.275903 
L 577.376248 250.275903 
L 577.376248 238.585476 
L 565.685821 238.585476 
z
" clip-path="url(#pc2127fec66)" style="stroke: #000000; stroke-linejoin: miter"/>
   </g>
   <g id="patch_76">
    <path d="M 593.883597 250.245024 
L 605.512265 250.245024 
L 605.512265 238.616355 
L 593.883597 238.616355 
z
" clip-path="url(#pc2127fec66)" style="stroke: #000000; stroke-linejoin: miter"/>
   </g>
   <g id="patch_77">
    <path d="M 622.03965 250.255867 
L 633.690005 250.255867 
L 633.690005 238.605512 
L 622.03965 238.605512 
z
" clip-path="url(#pc2127fec66)" style="stroke: #000000; stroke-linejoin: miter"/>
   </g>
   <g id="patch_78">
    <path d="M 650.239035 250.223378 
L 661.824413 250.223378 
L 661.824413 238.638001 
L 650.239035 238.638001 
z
" clip-path="url(#pc2127fec66)" style="stroke: #000000; stroke-linejoin: miter"/>
   </g>
   <g id="patch_79">
    <path d="M 678.328208 250.301102 
L 690.069033 250.301102 
L 690.069033 238.560277 
L 678.328208 238.560277 
z
" clip-path="url(#pc2127fec66)" style="stroke: #000000; stroke-linejoin: miter"/>
   </g>
   <g id="patch_80">
    <path d="M 706.616689 250.179518 
L 718.114346 250.179518 
L 718.114346 238.681861 
L 706.616689 238.681861 
z
" clip-path="url(#pc2127fec66)" style="stroke: #000000; stroke-linejoin: miter"/>
   </g>
   <g id="patch_81">
    <path d="M 734.733062 250.230042 
L 746.331766 250.230042 
L 746.331766 238.631338 
L 734.733062 238.631338 
z
" clip-path="url(#pc2127fec66)" style="stroke: #000000; stroke-linejoin: miter"/>
   </g>
   <g id="patch_82">
    <path d="M 762.898484 250.231516 
L 774.500136 250.231516 
L 774.500136 238.629864 
L 762.898484 238.629864 
z
" clip-path="url(#pc2127fec66)" style="stroke: #000000; stroke-linejoin: miter"/>
   </g>
   <g id="patch_83">
    <path d="M 791.063188 250.233709 
L 802.669226 250.233709 
L 802.669226 238.627671 
L 791.063188 238.627671 
z
" clip-path="url(#pc2127fec66)" style="stroke: #000000; stroke-linejoin: miter"/>
   </g>
   <g id="patch_84">
    <path d="M 58.60701 222.18368 
L 70.446783 222.18368 
L 70.446783 210.343907 
L 58.60701 210.343907 
z
" clip-path="url(#pc2127fec66)" style="stroke: #000000; stroke-linejoin: miter"/>
   </g>
   <g id="patch_85">
    <path d="M 86.77413 222.183456 
L 98.613456 222.183456 
L 98.613456 210.34413 
L 86.77413 210.34413 
z
" clip-path="url(#pc2127fec66)" style="stroke: #000000; stroke-linejoin: miter"/>
   </g>
   <g id="patch_86">
    <path d="M 114.912001 222.212482 
L 126.809378 222.212482 
L 126.809378 210.315105 
L 114.912001 210.315105 
z
" clip-path="url(#pc2127fec66)" style="stroke: #000000; stroke-linejoin: miter"/>
   </g>
   <g id="patch_87">
    <path d="M 143.305956 221.985423 
L 154.749217 221.985423 
L 154.749217 210.542163 
L 143.305956 210.542163 
z
" clip-path="url(#pc2127fec66)" style="stroke: #000000; stroke-linejoin: miter"/>
   </g>
   <g id="patch_88">
    <path d="M 171.249103 222.209173 
L 183.139863 222.209173 
L 183.139863 210.318413 
L 171.249103 210.318413 
z
" clip-path="url(#pc2127fec66)" style="stroke: #000000; stroke-linejoin: miter"/>
   </g>
   <g id="patch_89">
    <path d="M 199.663852 221.961321 
L 211.058907 221.961321 
L 211.058907 210.566265 
L 199.663852 210.566265 
z
" clip-path="url(#pc2127fec66)" style="stroke: #000000; stroke-linejoin: miter"/>
   </g>
   <g id="patch_90">
    <path d="M 227.739967 222.052101 
L 239.316584 222.052101 
L 239.316584 210.475485 
L 227.739967 210.475485 
z
" clip-path="url(#pc2127fec66)" style="stroke: #000000; stroke-linejoin: miter"/>
   </g>
   <g id="patch_91">
    <path d="M 255.928502 222.030463 
L 267.461843 222.030463 
L 267.461843 210.497123 
L 255.928502 210.497123 
z
" clip-path="url(#pc2127fec66)" style="stroke: #000000; stroke-linejoin: miter"/>
   </g>
   <g id="patch_92">
    <path d="M 284.127139 221.998723 
L 295.596999 221.998723 
L 295.596999 210.528863 
L 284.127139 210.528863 
z
" clip-path="url(#pc2127fec66)" style="stroke: #000000; stroke-linejoin: miter"/>
   </g>
   <g id="patch_93">
    <path d="M 312.20756 222.085198 
L 323.850371 222.085198 
L 323.850371 210.442388 
L 312.20756 210.442388 
z
" clip-path="url(#pc2127fec66)" style="stroke: #000000; stroke-linejoin: miter"/>
   </g>
   <g id="patch_94">
    <path d="M 340.467889 221.991766 
L 351.923835 221.991766 
L 351.923835 210.53582 
L 340.467889 210.53582 
z
" clip-path="url(#pc2127fec66)" style="stroke: #000000; stroke-linejoin: miter"/>
   </g>
   <g id="patch_95">
    <path d="M 368.562345 222.064206 
L 380.163172 222.064206 
L 380.163172 210.46338 
L 368.562345 210.46338 
z
" clip-path="url(#pc2127fec66)" style="stroke: #000000; stroke-linejoin: miter"/>
   </g>
   <g id="patch_96">
    <path d="M 396.872887 221.920561 
L 408.186423 221.920561 
L 408.186423 210.607025 
L 396.872887 210.607025 
z
" clip-path="url(#pc2127fec66)" style="stroke: #000000; stroke-linejoin: miter"/>
   </g>
   <g id="patch_97">
    <path d="M 424.967192 221.993153 
L 436.425912 221.993153 
L 436.425912 210.534433 
L 424.967192 210.534433 
z
" clip-path="url(#pc2127fec66)" style="stroke: #000000; stroke-linejoin: miter"/>
   </g>
   <g id="patch_98">
    <path d="M 453.12323 222.004011 
L 464.603666 222.004011 
L 464.603666 210.523575 
L 453.12323 210.523575 
z
" clip-path="url(#pc2127fec66)" style="stroke: #000000; stroke-linejoin: miter"/>
   </g>
   <g id="patch_99">
    <path d="M 481.337367 221.956771 
L 492.723323 221.956771 
L 492.723323 210.570815 
L 481.337367 210.570815 
z
" clip-path="url(#pc2127fec66)" style="stroke: #000000; stroke-linejoin: miter"/>
   </g>
   <g id="patch_100">
    <path d="M 509.567257 221.893777 
L 520.827226 221.893777 
L 520.827226 210.633809 
L 509.567257 210.633809 
z
" clip-path="url(#pc2127fec66)" style="stroke: #000000; stroke-linejoin: miter"/>
   </g>
   <g id="patch_101">
    <path d="M 537.672211 221.95572 
L 549.056065 221.95572 
L 549.056065 210.571866 
L 537.672211 210.571866 
z
" clip-path="url(#pc2127fec66)" style="stroke: #000000; stroke-linejoin: miter"/>
   </g>
   <g id="patch_102">
    <path d="M 565.808909 221.985918 
L 577.25316 221.985918 
L 577.25316 210.541668 
L 565.808909 210.541668 
z
" clip-path="url(#pc2127fec66)" style="stroke: #000000; stroke-linejoin: miter"/>
   </g>
   <g id="patch_103">
    <path d="M 594.036567 221.925157 
L 605.359295 221.925157 
L 605.359295 210.602429 
L 594.036567 210.602429 
z
" clip-path="url(#pc2127fec66)" style="stroke: #000000; stroke-linejoin: miter"/>
   </g>
   <g id="patch_104">
    <path d="M 622.162628 221.965993 
L 633.567027 221.965993 
L 633.567027 210.561593 
L 622.162628 210.561593 
z
" clip-path="url(#pc2127fec66)" style="stroke: #000000; stroke-linejoin: miter"/>
   </g>
   <g id="patch_105">
    <path d="M 650.311964 221.983553 
L 661.751484 221.983553 
L 661.751484 210.544033 
L 650.311964 210.544033 
z
" clip-path="url(#pc2127fec66)" style="stroke: #000000; stroke-linejoin: miter"/>
   </g>
   <g id="patch_106">
    <path d="M 678.470317 221.992097 
L 689.926925 221.992097 
L 689.926925 210.535489 
L 678.470317 210.535489 
z
" clip-path="url(#pc2127fec66)" style="stroke: #000000; stroke-linejoin: miter"/>
   </g>
   <g id="patch_107">
    <path d="M 706.73361 221.895701 
L 717.997425 221.895701 
L 717.997425 210.631885 
L 706.73361 210.631885 
z
" clip-path="url(#pc2127fec66)" style="stroke: #000000; stroke-linejoin: miter"/>
   </g>
   <g id="patch_108">
    <path d="M 734.877418 221.918789 
L 746.18741 221.918789 
L 746.18741 210.608797 
L 734.877418 210.608797 
z
" clip-path="url(#pc2127fec66)" style="stroke: #000000; stroke-linejoin: miter"/>
   </g>
   <g id="patch_109">
    <path d="M 763.017547 221.945557 
L 774.381074 221.945557 
L 774.381074 210.582029 
L 763.017547 210.582029 
z
" clip-path="url(#pc2127fec66)" style="stroke: #000000; stroke-linejoin: miter"/>
   </g>
   <g id="patch_110">
    <path d="M 791.246052 221.883948 
L 802.486361 221.883948 
L 802.486361 210.643639 
L 791.246052 210.643639 
z
" clip-path="url(#pc2127fec66)" style="stroke: #000000; stroke-linejoin: miter"/>
   </g>
   <g id="patch_111">
    <path d="M 58.152814 194.470979 
L 70.900979 194.470979 
L 70.900979 181.722814 
L 58.152814 181.722814 
z
" clip-path="url(#pc2127fec66)" style="stroke: #000000; stroke-linejoin: miter"/>
   </g>
   <g id="patch_112">
    <path d="M 86.917694 193.872996 
L 98.469892 193.872996 
L 98.469892 182.320798 
L 86.917694 182.320798 
z
" clip-path="url(#pc2127fec66)" style="stroke: #000000; stroke-linejoin: miter"/>
   </g>
   <g id="patch_113">
    <path d="M 115.216401 193.741185 
L 126.504978 193.741185 
L 126.504978 182.452608 
L 115.216401 182.452608 
z
" clip-path="url(#pc2127fec66)" style="stroke: #000000; stroke-linejoin: miter"/>
   </g>
   <g id="patch_114">
    <path d="M 143.39681 193.727672 
L 154.658362 193.727672 
L 154.658362 182.466121 
L 143.39681 182.466121 
z
" clip-path="url(#pc2127fec66)" style="stroke: #000000; stroke-linejoin: miter"/>
   </g>
   <g id="patch_115">
    <path d="M 171.654823 193.636556 
L 182.734142 193.636556 
L 182.734142 182.557237 
L 171.654823 182.557237 
z
" clip-path="url(#pc2127fec66)" style="stroke: #000000; stroke-linejoin: miter"/>
   </g>
   <g id="patch_116">
    <path d="M 199.827154 193.631122 
L 210.895604 193.631122 
L 210.895604 182.562671 
L 199.827154 182.562671 
z
" clip-path="url(#pc2127fec66)" style="stroke: #000000; stroke-linejoin: miter"/>
   </g>
   <g id="patch_117">
    <path d="M 227.665982 193.95919 
L 239.39057 193.95919 
L 239.39057 182.234603 
L 227.665982 182.234603 
z
" clip-path="url(#pc2127fec66)" style="stroke: #000000; stroke-linejoin: miter"/>
   </g>
   <g id="patch_118">
    <path d="M 256.216477 193.575592 
L 267.173868 193.575592 
L 267.173868 182.618201 
L 256.216477 182.618201 
z
" clip-path="url(#pc2127fec66)" style="stroke: #000000; stroke-linejoin: miter"/>
   </g>
   <g id="patch_119">
    <path d="M 284.206252 193.752714 
L 295.517886 193.752714 
L 295.517886 182.44108 
L 284.206252 182.44108 
z
" clip-path="url(#pc2127fec66)" style="stroke: #000000; stroke-linejoin: miter"/>
   </g>
   <g id="patch_120">
    <path d="M 312.515532 193.61033 
L 323.542399 193.61033 
L 323.542399 182.583463 
L 312.515532 182.583463 
z
" clip-path="url(#pc2127fec66)" style="stroke: #000000; stroke-linejoin: miter"/>
   </g>
   <g id="patch_121">
    <path d="M 340.592145 193.700613 
L 351.799579 193.700613 
L 351.799579 182.49318 
L 340.592145 182.49318 
z
" clip-path="url(#pc2127fec66)" style="stroke: #000000; stroke-linejoin: miter"/>
   </g>
   <g id="patch_122">
    <path d="M 368.829599 193.630057 
L 379.895919 193.630057 
L 379.895919 182.563736 
L 368.829599 182.563736 
z
" clip-path="url(#pc2127fec66)" style="stroke: #000000; stroke-linejoin: miter"/>
   </g>
   <g id="patch_123">
    <path d="M 396.907029 193.719523 
L 408.152282 193.719523 
L 408.152282 182.47427 
L 396.907029 182.47427 
z
" clip-path="url(#pc2127fec66)" style="stroke: #000000; stroke-linejoin: miter"/>
   </g>
   <g id="patch_124">
    <path d="M 425.120165 193.673283 
L 436.272938 193.673283 
L 436.272938 182.52051 
L 425.120165 182.52051 
z
" clip-path="url(#pc2127fec66)" style="stroke: #000000; stroke-linejoin: miter"/>
   </g>
   <g id="patch_125">
    <path d="M 453.495961 193.464384 
L 464.230936 193.464384 
L 464.230936 182.729409 
L 453.495961 182.729409 
z
" clip-path="url(#pc2127fec66)" style="stroke: #000000; stroke-linejoin: miter"/>
   </g>
   <g id="patch_126">
    <path d="M 481.466854 193.660387 
L 492.593836 193.660387 
L 492.593836 182.533406 
L 481.466854 182.533406 
z
" clip-path="url(#pc2127fec66)" style="stroke: #000000; stroke-linejoin: miter"/>
   </g>
   <g id="patch_127">
    <path d="M 509.567072 193.727066 
L 520.827411 193.727066 
L 520.827411 182.466727 
L 509.567072 182.466727 
z
" clip-path="url(#pc2127fec66)" style="stroke: #000000; stroke-linejoin: miter"/>
   </g>
   <g id="patch_128">
    <path d="M 537.978443 193.482591 
L 548.749833 193.482591 
L 548.749833 182.711202 
L 537.978443 182.711202 
z
" clip-path="url(#pc2127fec66)" style="stroke: #000000; stroke-linejoin: miter"/>
   </g>
   <g id="patch_129">
    <path d="M 565.913141 193.71479 
L 577.148928 193.71479 
L 577.148928 182.479003 
L 565.913141 182.479003 
z
" clip-path="url(#pc2127fec66)" style="stroke: #000000; stroke-linejoin: miter"/>
   </g>
   <g id="patch_130">
    <path d="M 594.205582 193.589245 
L 605.19028 193.589245 
L 605.19028 182.604548 
L 594.205582 182.604548 
z
" clip-path="url(#pc2127fec66)" style="stroke: #000000; stroke-linejoin: miter"/>
   </g>
   <g id="patch_131">
    <path d="M 622.371043 193.590681 
L 633.358612 193.590681 
L 633.358612 182.603112 
L 622.371043 182.603112 
z
" clip-path="url(#pc2127fec66)" style="stroke: #000000; stroke-linejoin: miter"/>
   </g>
   <g id="patch_132">
    <path d="M 650.597433 193.531188 
L 661.466015 193.531188 
L 661.466015 182.662605 
L 650.597433 182.662605 
z
" clip-path="url(#pc2127fec66)" style="stroke: #000000; stroke-linejoin: miter"/>
   </g>
   <g id="patch_133">
    <path d="M 678.717259 193.578258 
L 689.679982 193.578258 
L 689.679982 182.615535 
L 678.717259 182.615535 
z
" clip-path="url(#pc2127fec66)" style="stroke: #000000; stroke-linejoin: miter"/>
   </g>
   <g id="patch_134">
    <path d="M 706.917762 193.544652 
L 717.813273 193.544652 
L 717.813273 182.649141 
L 706.917762 182.649141 
z
" clip-path="url(#pc2127fec66)" style="stroke: #000000; stroke-linejoin: miter"/>
   </g>
   <g id="patch_135">
    <path d="M 735.170537 193.458774 
L 745.894291 193.458774 
L 745.894291 182.735019 
L 735.170537 182.735019 
z
" clip-path="url(#pc2127fec66)" style="stroke: #000000; stroke-linejoin: miter"/>
   </g>
   <g id="patch_136">
    <path d="M 763.233053 193.563154 
L 774.165568 193.563154 
L 774.165568 182.630639 
L 763.233053 182.630639 
z
" clip-path="url(#pc2127fec66)" style="stroke: #000000; stroke-linejoin: miter"/>
   </g>
   <g id="patch_137">
    <path d="M 791.54389 193.419214 
L 802.188524 193.419214 
L 802.188524 182.774579 
L 791.54389 182.774579 
z
" clip-path="url(#pc2127fec66)" style="stroke: #000000; stroke-linejoin: miter"/>
   </g>
   <g id="patch_138">
    <path d="M 58.60991 165.846986 
L 70.443883 165.846986 
L 70.443883 154.013014 
L 58.60991 154.013014 
z
" clip-path="url(#pc2127fec66)" style="stroke: #000000; stroke-linejoin: miter"/>
   </g>
   <g id="patch_139">
    <path d="M 86.870274 165.753519 
L 98.517312 165.753519 
L 98.517312 154.106481 
L 86.870274 154.106481 
z
" clip-path="url(#pc2127fec66)" style="stroke: #000000; stroke-linejoin: miter"/>
   </g>
   <g id="patch_140">
    <path d="M 115.279906 165.510784 
L 126.441474 165.510784 
L 126.441474 154.349216 
L 115.279906 154.349216 
z
" clip-path="url(#pc2127fec66)" style="stroke: #000000; stroke-linejoin: miter"/>
   </g>
   <g id="patch_141">
    <path d="M 143.375568 165.582019 
L 154.679605 165.582019 
L 154.679605 154.277981 
L 143.375568 154.277981 
z
" clip-path="url(#pc2127fec66)" style="stroke: #000000; stroke-linejoin: miter"/>
   </g>
   <g id="patch_142">
    <path d="M 171.71377 165.410713 
L 182.675196 165.410713 
L 182.675196 154.449287 
L 171.71377 154.449287 
z
" clip-path="url(#pc2127fec66)" style="stroke: #000000; stroke-linejoin: miter"/>
   </g>
   <g id="patch_143">
    <path d="M 199.581899 165.70948 
L 211.14086 165.70948 
L 211.14086 154.15052 
L 199.581899 154.15052 
z
" clip-path="url(#pc2127fec66)" style="stroke: #000000; stroke-linejoin: miter"/>
   </g>
   <g id="patch_144">
    <path d="M 228.040017 165.418259 
L 239.016535 165.418259 
L 239.016535 154.441741 
L 228.040017 154.441741 
z
" clip-path="url(#pc2127fec66)" style="stroke: #000000; stroke-linejoin: miter"/>
   </g>
   <g id="patch_145">
    <path d="M 256.393106 165.232066 
L 266.997238 165.232066 
L 266.997238 154.627934 
L 256.393106 154.627934 
z
" clip-path="url(#pc2127fec66)" style="stroke: #000000; stroke-linejoin: miter"/>
   </g>
   <g id="patch_146">
    <path d="M 284.173364 165.618705 
L 295.550773 165.618705 
L 295.550773 154.241295 
L 284.173364 154.241295 
z
" clip-path="url(#pc2127fec66)" style="stroke: #000000; stroke-linejoin: miter"/>
   </g>
   <g id="patch_147">
    <path d="M 312.588085 165.37088 
L 323.469846 165.37088 
L 323.469846 154.48912 
L 312.588085 154.48912 
z
" clip-path="url(#pc2127fec66)" style="stroke: #000000; stroke-linejoin: miter"/>
   </g>
   <g id="patch_148">
    <path d="M 340.515712 165.61015 
L 351.876012 165.61015 
L 351.876012 154.24985 
L 340.515712 154.24985 
z
" clip-path="url(#pc2127fec66)" style="stroke: #000000; stroke-linejoin: miter"/>
   </g>
   <g id="patch_149">
    <path d="M 368.895737 165.397022 
L 379.829781 165.397022 
L 379.829781 154.462978 
L 368.895737 154.462978 
z
" clip-path="url(#pc2127fec66)" style="stroke: #000000; stroke-linejoin: miter"/>
   </g>
   <g id="patch_150">
    <path d="M 397.03351 165.426146 
L 408.025801 165.426146 
L 408.025801 154.433854 
L 397.03351 154.433854 
z
" clip-path="url(#pc2127fec66)" style="stroke: #000000; stroke-linejoin: miter"/>
   </g>
   <g id="patch_151">
    <path d="M 425.307884 165.318668 
L 436.08522 165.318668 
L 436.08522 154.541332 
L 425.307884 154.541332 
z
" clip-path="url(#pc2127fec66)" style="stroke: #000000; stroke-linejoin: miter"/>
   </g>
   <g id="patch_152">
    <path d="M 453.381589 165.411859 
L 464.345307 165.411859 
L 464.345307 154.448141 
L 453.381589 154.448141 
z
" clip-path="url(#pc2127fec66)" style="stroke: #000000; stroke-linejoin: miter"/>
   </g>
   <g id="patch_153">
    <path d="M 481.503584 165.456761 
L 492.557106 165.456761 
L 492.557106 154.403239 
L 481.503584 154.403239 
z
" clip-path="url(#pc2127fec66)" style="stroke: #000000; stroke-linejoin: miter"/>
   </g>
   <g id="patch_154">
    <path d="M 509.653678 165.473564 
L 520.740805 165.473564 
L 520.740805 154.386436 
L 509.653678 154.386436 
z
" clip-path="url(#pc2127fec66)" style="stroke: #000000; stroke-linejoin: miter"/>
   </g>
   <g id="patch_155">
    <path d="M 537.982543 165.311595 
L 548.745733 165.311595 
L 548.745733 154.548405 
L 537.982543 154.548405 
z
" clip-path="url(#pc2127fec66)" style="stroke: #000000; stroke-linejoin: miter"/>
   </g>
   <g id="patch_156">
    <path d="M 566.124947 165.336087 
L 576.937122 165.336087 
L 576.937122 154.523913 
L 566.124947 154.523913 
z
" clip-path="url(#pc2127fec66)" style="stroke: #000000; stroke-linejoin: miter"/>
   </g>
   <g id="patch_157">
    <path d="M 594.085801 165.54213 
L 605.310061 165.54213 
L 605.310061 154.31787 
L 594.085801 154.31787 
z
" clip-path="url(#pc2127fec66)" style="stroke: #000000; stroke-linejoin: miter"/>
   </g>
   <g id="patch_158">
    <path d="M 622.370859 165.423969 
L 633.358797 165.423969 
L 633.358797 154.436031 
L 622.370859 154.436031 
z
" clip-path="url(#pc2127fec66)" style="stroke: #000000; stroke-linejoin: miter"/>
   </g>
   <g id="patch_159">
    <path d="M 650.695294 165.26643 
L 661.368154 165.26643 
L 661.368154 154.59357 
L 650.695294 154.59357 
z
" clip-path="url(#pc2127fec66)" style="stroke: #000000; stroke-linejoin: miter"/>
   </g>
   <g id="patch_160">
    <path d="M 678.753748 165.374873 
L 689.643493 165.374873 
L 689.643493 154.485127 
L 678.753748 154.485127 
z
" clip-path="url(#pc2127fec66)" style="stroke: #000000; stroke-linejoin: miter"/>
   </g>
   <g id="patch_161">
    <path d="M 707.035113 165.260404 
L 717.695921 165.260404 
L 717.695921 154.599596 
L 707.035113 154.599596 
z
" clip-path="url(#pc2127fec66)" style="stroke: #000000; stroke-linejoin: miter"/>
   </g>
   <g id="patch_162">
    <path d="M 735.077209 165.385205 
L 745.987619 165.385205 
L 745.987619 154.474795 
L 735.077209 154.474795 
z
" clip-path="url(#pc2127fec66)" style="stroke: #000000; stroke-linejoin: miter"/>
   </g>
   <g id="patch_163">
    <path d="M 763.364723 165.264587 
L 774.033897 165.264587 
L 774.033897 154.595413 
L 763.364723 154.595413 
z
" clip-path="url(#pc2127fec66)" style="stroke: #000000; stroke-linejoin: miter"/>
   </g>
   <g id="patch_164">
    <path d="M 791.505699 165.290508 
L 802.226715 165.290508 
L 802.226715 154.569492 
L 791.505699 154.569492 
z
" clip-path="url(#pc2127fec66)" style="stroke: #000000; stroke-linejoin: miter"/>
   </g>
   <g id="patch_165">
    <path d="M 57.323871 138.966129 
L 71.729922 138.966129 
L 71.729922 124.560078 
L 57.323871 124.560078 
z
" clip-path="url(#pc2127fec66)" style="stroke: #000000; stroke-linejoin: miter"/>
   </g>
   <g id="patch_166">
    <path d="M 87.002583 137.454313 
L 98.385003 137.454313 
L 98.385003 126.071894 
L 87.002583 126.071894 
z
" clip-path="url(#pc2127fec66)" style="stroke: #000000; stroke-linejoin: miter"/>
   </g>
   <g id="patch_167">
    <path d="M 115.420909 137.202884 
L 126.300471 137.202884 
L 126.300471 126.323323 
L 115.420909 126.323323 
z
" clip-path="url(#pc2127fec66)" style="stroke: #000000; stroke-linejoin: miter"/>
   </g>
   <g id="patch_168">
    <path d="M 143.719179 137.071511 
L 154.335993 137.071511 
L 154.335993 126.454696 
L 143.719179 126.454696 
z
" clip-path="url(#pc2127fec66)" style="stroke: #000000; stroke-linejoin: miter"/>
   </g>
   <g id="patch_169">
    <path d="M 171.607478 137.350108 
L 182.781487 137.350108 
L 182.781487 126.176099 
L 171.607478 126.176099 
z
" clip-path="url(#pc2127fec66)" style="stroke: #000000; stroke-linejoin: miter"/>
   </g>
   <g id="patch_170">
    <path d="M 200.111512 137.012971 
L 210.611246 137.012971 
L 210.611246 126.513236 
L 200.111512 126.513236 
z
" clip-path="url(#pc2127fec66)" style="stroke: #000000; stroke-linejoin: miter"/>
   </g>
   <g id="patch_171">
    <path d="M 228.01707 137.274309 
L 239.039482 137.274309 
L 239.039482 126.251898 
L 228.01707 126.251898 
z
" clip-path="url(#pc2127fec66)" style="stroke: #000000; stroke-linejoin: miter"/>
   </g>
   <g id="patch_172">
    <path d="M 256.50111 136.957166 
L 266.889235 136.957166 
L 266.889235 126.569041 
L 256.50111 126.569041 
z
" clip-path="url(#pc2127fec66)" style="stroke: #000000; stroke-linejoin: miter"/>
   </g>
   <g id="patch_173">
    <path d="M 284.245476 137.379696 
L 295.478662 137.379696 
L 295.478662 126.146511 
L 284.245476 126.146511 
z
" clip-path="url(#pc2127fec66)" style="stroke: #000000; stroke-linejoin: miter"/>
   </g>
   <g id="patch_174">
    <path d="M 312.770119 137.02195 
L 323.287812 137.02195 
L 323.287812 126.504257 
L 312.770119 126.504257 
z
" clip-path="url(#pc2127fec66)" style="stroke: #000000; stroke-linejoin: miter"/>
   </g>
   <g id="patch_175">
    <path d="M 340.878424 137.080542 
L 351.513301 137.080542 
L 351.513301 126.445665 
L 340.878424 126.445665 
z
" clip-path="url(#pc2127fec66)" style="stroke: #000000; stroke-linejoin: miter"/>
   </g>
   <g id="patch_176">
    <path d="M 368.942466 137.183396 
L 379.783051 137.183396 
L 379.783051 126.342811 
L 368.942466 126.342811 
z
" clip-path="url(#pc2127fec66)" style="stroke: #000000; stroke-linejoin: miter"/>
   </g>
   <g id="patch_177">
    <path d="M 397.217735 137.075023 
L 407.841575 137.075023 
L 407.841575 126.451184 
L 397.217735 126.451184 
z
" clip-path="url(#pc2127fec66)" style="stroke: #000000; stroke-linejoin: miter"/>
   </g>
   <g id="patch_178">
    <path d="M 425.367748 137.091907 
L 436.025355 137.091907 
L 436.025355 126.4343 
L 425.367748 126.4343 
z
" clip-path="url(#pc2127fec66)" style="stroke: #000000; stroke-linejoin: miter"/>
   </g>
   <g id="patch_179">
    <path d="M 453.583657 137.042894 
L 464.143239 137.042894 
L 464.143239 126.483313 
L 453.583657 126.483313 
z
" clip-path="url(#pc2127fec66)" style="stroke: #000000; stroke-linejoin: miter"/>
   </g>
   <g id="patch_180">
    <path d="M 481.798229 136.995219 
L 492.26246 136.995219 
L 492.26246 126.530988 
L 481.798229 126.530988 
z
" clip-path="url(#pc2127fec66)" style="stroke: #000000; stroke-linejoin: miter"/>
   </g>
   <g id="patch_181">
    <path d="M 509.981568 136.978777 
L 520.412915 136.978777 
L 520.412915 126.54743 
L 509.981568 126.54743 
z
" clip-path="url(#pc2127fec66)" style="stroke: #000000; stroke-linejoin: miter"/>
   </g>
   <g id="patch_182">
    <path d="M 538.048394 137.078847 
L 548.679881 137.078847 
L 548.679881 126.44736 
L 538.048394 126.44736 
z
" clip-path="url(#pc2127fec66)" style="stroke: #000000; stroke-linejoin: miter"/>
   </g>
   <g id="patch_183">
    <path d="M 566.409499 136.884639 
L 576.65257 136.884639 
L 576.65257 126.641568 
L 566.409499 126.641568 
z
" clip-path="url(#pc2127fec66)" style="stroke: #000000; stroke-linejoin: miter"/>
   </g>
   <g id="patch_184">
    <path d="M 594.456182 137.004853 
L 604.93968 137.004853 
L 604.93968 126.521354 
L 594.456182 126.521354 
z
" clip-path="url(#pc2127fec66)" style="stroke: #000000; stroke-linejoin: miter"/>
   </g>
   <g id="patch_185">
    <path d="M 622.479019 137.148912 
L 633.250636 137.148912 
L 633.250636 126.377295 
L 622.479019 126.377295 
z
" clip-path="url(#pc2127fec66)" style="stroke: #000000; stroke-linejoin: miter"/>
   </g>
   <g id="patch_186">
    <path d="M 650.873406 136.921422 
L 661.190042 136.921422 
L 661.190042 126.604785 
L 650.873406 126.604785 
z
" clip-path="url(#pc2127fec66)" style="stroke: #000000; stroke-linejoin: miter"/>
   </g>
   <g id="patch_187">
    <path d="M 678.866864 137.09486 
L 689.530378 137.09486 
L 689.530378 126.431346 
L 678.866864 126.431346 
z
" clip-path="url(#pc2127fec66)" style="stroke: #000000; stroke-linejoin: miter"/>
   </g>
   <g id="patch_188">
    <path d="M 707.248755 136.879866 
L 717.48228 136.879866 
L 717.48228 126.646341 
L 707.248755 126.646341 
z
" clip-path="url(#pc2127fec66)" style="stroke: #000000; stroke-linejoin: miter"/>
   </g>
   <g id="patch_189">
    <path d="M 735.387964 136.907553 
L 745.676864 136.907553 
L 745.676864 126.618654 
L 735.387964 126.618654 
z
" clip-path="url(#pc2127fec66)" style="stroke: #000000; stroke-linejoin: miter"/>
   </g>
   <g id="patch_190">
    <path d="M 763.472613 136.9898 
L 773.926007 136.9898 
L 773.926007 126.536407 
L 763.472613 126.536407 
z
" clip-path="url(#pc2127fec66)" style="stroke: #000000; stroke-linejoin: miter"/>
   </g>
   <g id="patch_191">
    <path d="M 791.744855 136.884455 
L 801.987559 136.884455 
L 801.987559 126.641752 
L 791.744855 126.641752 
z
" clip-path="url(#pc2127fec66)" style="stroke: #000000; stroke-linejoin: miter"/>
   </g>
   <g id="patch_192">
    <path d="M 57.787053 110.336051 
L 71.26674 110.336051 
L 71.26674 96.856363 
L 57.787053 96.856363 
z
" clip-path="url(#pc2127fec66)" style="stroke: #000000; stroke-linejoin: miter"/>
   </g>
   <g id="patch_193">
    <path d="M 87.37813 108.91187 
L 98.009456 108.91187 
L 98.009456 98.280544 
L 87.37813 98.280544 
z
" clip-path="url(#pc2127fec66)" style="stroke: #000000; stroke-linejoin: miter"/>
   </g>
   <g id="patch_194">
    <path d="M 115.40498 109.051917 
L 126.316399 109.051917 
L 126.316399 98.140497 
L 115.40498 98.140497 
z
" clip-path="url(#pc2127fec66)" style="stroke: #000000; stroke-linejoin: miter"/>
   </g>
   <g id="patch_195">
    <path d="M 143.567363 109.05643 
L 154.487809 109.05643 
L 154.487809 98.135984 
L 143.567363 98.135984 
z
" clip-path="url(#pc2127fec66)" style="stroke: #000000; stroke-linejoin: miter"/>
   </g>
   <g id="patch_196">
    <path d="M 171.733413 109.057277 
L 182.655553 109.057277 
L 182.655553 98.135137 
L 171.733413 98.135137 
z
" clip-path="url(#pc2127fec66)" style="stroke: #000000; stroke-linejoin: miter"/>
   </g>
   <g id="patch_197">
    <path d="M 200.164225 108.793362 
L 210.558534 108.793362 
L 210.558534 98.399052 
L 200.164225 98.399052 
z
" clip-path="url(#pc2127fec66)" style="stroke: #000000; stroke-linejoin: miter"/>
   </g>
   <g id="patch_198">
    <path d="M 227.981984 109.142499 
L 239.074568 109.142499 
L 239.074568 98.049915 
L 227.981984 98.049915 
z
" clip-path="url(#pc2127fec66)" style="stroke: #000000; stroke-linejoin: miter"/>
   </g>
   <g id="patch_199">
    <path d="M 256.29453 108.99685 
L 267.095815 108.99685 
L 267.095815 98.195564 
L 256.29453 98.195564 
z
" clip-path="url(#pc2127fec66)" style="stroke: #000000; stroke-linejoin: miter"/>
   </g>
   <g id="patch_200">
    <path d="M 284.408781 109.049495 
L 295.315357 109.049495 
L 295.315357 98.142919 
L 284.408781 98.142919 
z
" clip-path="url(#pc2127fec66)" style="stroke: #000000; stroke-linejoin: miter"/>
   </g>
   <g id="patch_201">
    <path d="M 312.624764 109.000408 
L 323.433167 109.000408 
L 323.433167 98.192006 
L 312.624764 98.192006 
z
" clip-path="url(#pc2127fec66)" style="stroke: #000000; stroke-linejoin: miter"/>
   </g>
   <g id="patch_202">
    <path d="M 340.79883 108.993239 
L 351.592894 108.993239 
L 351.592894 98.199175 
L 340.79883 98.199175 
z
" clip-path="url(#pc2127fec66)" style="stroke: #000000; stroke-linejoin: miter"/>
   </g>
   <g id="patch_203">
    <path d="M 368.892093 109.066872 
L 379.833424 109.066872 
L 379.833424 98.125542 
L 368.892093 98.125542 
z
" clip-path="url(#pc2127fec66)" style="stroke: #000000; stroke-linejoin: miter"/>
   </g>
   <g id="patch_204">
    <path d="M 397.231988 108.893875 
L 407.827323 108.893875 
L 407.827323 98.298539 
L 397.231988 98.298539 
z
" clip-path="url(#pc2127fec66)" style="stroke: #000000; stroke-linejoin: miter"/>
   </g>
   <g id="patch_205">
    <path d="M 425.110628 109.182131 
L 436.282475 109.182131 
L 436.282475 98.010283 
L 425.110628 98.010283 
z
" clip-path="url(#pc2127fec66)" style="stroke: #000000; stroke-linejoin: miter"/>
   </g>
   <g id="patch_206">
    <path d="M 453.382748 109.076907 
L 464.344148 109.076907 
L 464.344148 98.115507 
L 453.382748 98.115507 
z
" clip-path="url(#pc2127fec66)" style="stroke: #000000; stroke-linejoin: miter"/>
   </g>
   <g id="patch_207">
    <path d="M 481.817986 108.808566 
L 492.242704 108.808566 
L 492.242704 98.383848 
L 481.817986 98.383848 
z
" clip-path="url(#pc2127fec66)" style="stroke: #000000; stroke-linejoin: miter"/>
   </g>
   <g id="patch_208">
    <path d="M 509.548513 109.244935 
L 520.84597 109.244935 
L 520.84597 97.947479 
L 509.548513 97.947479 
z
" clip-path="url(#pc2127fec66)" style="stroke: #000000; stroke-linejoin: miter"/>
   </g>
   <g id="patch_209">
    <path d="M 538.044236 108.916109 
L 548.68404 108.916109 
L 548.68404 98.276305 
L 538.044236 98.276305 
z
" clip-path="url(#pc2127fec66)" style="stroke: #000000; stroke-linejoin: miter"/>
   </g>
   <g id="patch_210">
    <path d="M 566.178325 108.948916 
L 576.883744 108.948916 
L 576.883744 98.243498 
L 566.178325 98.243498 
z
" clip-path="url(#pc2127fec66)" style="stroke: #000000; stroke-linejoin: miter"/>
   </g>
   <g id="patch_211">
    <path d="M 594.193769 109.100369 
L 605.202093 109.100369 
L 605.202093 98.092045 
L 594.193769 98.092045 
z
" clip-path="url(#pc2127fec66)" style="stroke: #000000; stroke-linejoin: miter"/>
   </g>
   <g id="patch_212">
    <path d="M 622.607653 108.853382 
L 633.122002 108.853382 
L 633.122002 98.339032 
L 622.607653 98.339032 
z
" clip-path="url(#pc2127fec66)" style="stroke: #000000; stroke-linejoin: miter"/>
   </g>
   <g id="patch_213">
    <path d="M 650.725276 108.902655 
L 661.338172 108.902655 
L 661.338172 98.289759 
L 650.725276 98.289759 
z
" clip-path="url(#pc2127fec66)" style="stroke: #000000; stroke-linejoin: miter"/>
   </g>
   <g id="patch_214">
    <path d="M 678.804271 108.990557 
L 689.59297 108.990557 
L 689.59297 98.201857 
L 678.804271 98.201857 
z
" clip-path="url(#pc2127fec66)" style="stroke: #000000; stroke-linejoin: miter"/>
   </g>
   <g id="patch_215">
    <path d="M 706.987221 108.974503 
L 717.743814 108.974503 
L 717.743814 98.21791 
L 706.987221 98.21791 
z
" clip-path="url(#pc2127fec66)" style="stroke: #000000; stroke-linejoin: miter"/>
   </g>
   <g id="patch_216">
    <path d="M 735.275617 108.853004 
L 745.789211 108.853004 
L 745.789211 98.33941 
L 735.275617 98.33941 
z
" clip-path="url(#pc2127fec66)" style="stroke: #000000; stroke-linejoin: miter"/>
   </g>
   <g id="patch_217">
    <path d="M 763.184806 109.110711 
L 774.213814 109.110711 
L 774.213814 98.081703 
L 763.184806 98.081703 
z
" clip-path="url(#pc2127fec66)" style="stroke: #000000; stroke-linejoin: miter"/>
   </g>
   <g id="patch_218">
    <path d="M 791.514462 108.947952 
L 802.217952 108.947952 
L 802.217952 98.244462 
L 791.514462 98.244462 
z
" clip-path="url(#pc2127fec66)" style="stroke: #000000; stroke-linejoin: miter"/>
   </g>
   <g id="patch_219">
    <path d="M 58.511017 81.44519 
L 70.542776 81.44519 
L 70.542776 69.413431 
L 58.511017 69.413431 
z
" clip-path="url(#pc2127fec66)" style="stroke: #000000; stroke-linejoin: miter"/>
   </g>
   <g id="patch_220">
    <path d="M 86.603212 81.519891 
L 98.784374 81.519891 
L 98.784374 69.33873 
L 86.603212 69.33873 
z
" clip-path="url(#pc2127fec66)" style="stroke: #000000; stroke-linejoin: miter"/>
   </g>
   <g id="patch_221">
    <path d="M 114.974232 81.315768 
L 126.747147 81.315768 
L 126.747147 69.542853 
L 114.974232 69.542853 
z
" clip-path="url(#pc2127fec66)" style="stroke: #000000; stroke-linejoin: miter"/>
   </g>
   <g id="patch_222">
    <path d="M 143.04704 81.409856 
L 155.008132 81.409856 
L 155.008132 69.448765 
L 143.04704 69.448765 
z
" clip-path="url(#pc2127fec66)" style="stroke: #000000; stroke-linejoin: miter"/>
   </g>
   <g id="patch_223">
    <path d="M 171.228796 81.394997 
L 183.160169 81.394997 
L 183.160169 69.463624 
L 171.228796 69.463624 
z
" clip-path="url(#pc2127fec66)" style="stroke: #000000; stroke-linejoin: miter"/>
   </g>
   <g id="patch_224">
    <path d="M 199.441422 81.349267 
L 211.281336 81.349267 
L 211.281336 69.509353 
L 199.441422 69.509353 
z
" clip-path="url(#pc2127fec66)" style="stroke: #000000; stroke-linejoin: miter"/>
   </g>
   <g id="patch_225">
    <path d="M 227.708432 81.249154 
L 239.348119 81.249154 
L 239.348119 69.609467 
L 227.708432 69.609467 
z
" clip-path="url(#pc2127fec66)" style="stroke: #000000; stroke-linejoin: miter"/>
   </g>
   <g id="patch_226">
    <path d="M 255.878572 81.245911 
L 267.511773 81.245911 
L 267.511773 69.61271 
L 255.878572 69.61271 
z
" clip-path="url(#pc2127fec66)" style="stroke: #000000; stroke-linejoin: miter"/>
   </g>
   <g id="patch_227">
    <path d="M 283.986681 81.304698 
L 295.737457 81.304698 
L 295.737457 69.553923 
L 283.986681 69.553923 
z
" clip-path="url(#pc2127fec66)" style="stroke: #000000; stroke-linejoin: miter"/>
   </g>
   <g id="patch_228">
    <path d="M 312.178179 81.280097 
L 323.879752 81.280097 
L 323.879752 69.578524 
L 312.178179 69.578524 
z
" clip-path="url(#pc2127fec66)" style="stroke: #000000; stroke-linejoin: miter"/>
   </g>
   <g id="patch_229">
    <path d="M 340.394274 81.230898 
L 351.99745 81.230898 
L 351.99745 69.627722 
L 340.394274 69.627722 
z
" clip-path="url(#pc2127fec66)" style="stroke: #000000; stroke-linejoin: miter"/>
   </g>
   <g id="patch_230">
    <path d="M 368.453511 81.338557 
L 380.272006 81.338557 
L 380.272006 69.520063 
L 368.453511 69.520063 
z
" clip-path="url(#pc2127fec66)" style="stroke: #000000; stroke-linejoin: miter"/>
   </g>
   <g id="patch_231">
    <path d="M 396.713363 81.245603 
L 408.345947 81.245603 
L 408.345947 69.613018 
L 396.713363 69.613018 
z
" clip-path="url(#pc2127fec66)" style="stroke: #000000; stroke-linejoin: miter"/>
   </g>
   <g id="patch_232">
    <path d="M 424.843632 81.28223 
L 436.549471 81.28223 
L 436.549471 69.576391 
L 424.843632 69.576391 
z
" clip-path="url(#pc2127fec66)" style="stroke: #000000; stroke-linejoin: miter"/>
   </g>
   <g id="patch_233">
    <path d="M 453.10531 81.187449 
L 464.621587 81.187449 
L 464.621587 69.671172 
L 453.10531 69.671172 
z
" clip-path="url(#pc2127fec66)" style="stroke: #000000; stroke-linejoin: miter"/>
   </g>
   <g id="patch_234">
    <path d="M 481.193017 81.266638 
L 492.867672 81.266638 
L 492.867672 69.591983 
L 481.193017 69.591983 
z
" clip-path="url(#pc2127fec66)" style="stroke: #000000; stroke-linejoin: miter"/>
   </g>
   <g id="patch_235">
    <path d="M 509.386535 81.240017 
L 521.007948 81.240017 
L 521.007948 69.618604 
L 509.386535 69.618604 
z
" clip-path="url(#pc2127fec66)" style="stroke: #000000; stroke-linejoin: miter"/>
   </g>
   <g id="patch_236">
    <path d="M 537.657405 81.136043 
L 549.070871 81.136043 
L 549.070871 69.722578 
L 537.657405 69.722578 
z
" clip-path="url(#pc2127fec66)" style="stroke: #000000; stroke-linejoin: miter"/>
   </g>
   <g id="patch_237">
    <path d="M 565.741803 81.218542 
L 577.320266 81.218542 
L 577.320266 69.640079 
L 565.741803 69.640079 
z
" clip-path="url(#pc2127fec66)" style="stroke: #000000; stroke-linejoin: miter"/>
   </g>
   <g id="patch_238">
    <path d="M 593.938727 81.188514 
L 605.457135 81.188514 
L 605.457135 69.670106 
L 593.938727 69.670106 
z
" clip-path="url(#pc2127fec66)" style="stroke: #000000; stroke-linejoin: miter"/>
   </g>
   <g id="patch_239">
    <path d="M 622.018949 81.275189 
L 633.710706 81.275189 
L 633.710706 69.583432 
L 622.018949 69.583432 
z
" clip-path="url(#pc2127fec66)" style="stroke: #000000; stroke-linejoin: miter"/>
   </g>
   <g id="patch_240">
    <path d="M 650.226931 81.234103 
L 661.836517 81.234103 
L 661.836517 69.624518 
L 650.226931 69.624518 
z
" clip-path="url(#pc2127fec66)" style="stroke: #000000; stroke-linejoin: miter"/>
   </g>
   <g id="patch_241">
    <path d="M 678.466406 81.161525 
L 689.930836 81.161525 
L 689.930836 69.697096 
L 678.466406 69.697096 
z
" clip-path="url(#pc2127fec66)" style="stroke: #000000; stroke-linejoin: miter"/>
   </g>
   <g id="patch_242">
    <path d="M 706.640512 81.154316 
L 718.090523 81.154316 
L 718.090523 69.704305 
L 706.640512 69.704305 
z
" clip-path="url(#pc2127fec66)" style="stroke: #000000; stroke-linejoin: miter"/>
   </g>
   <g id="patch_243">
    <path d="M 734.852953 81.108771 
L 746.211875 81.108771 
L 746.211875 69.749849 
L 734.852953 69.749849 
z
" clip-path="url(#pc2127fec66)" style="stroke: #000000; stroke-linejoin: miter"/>
   </g>
   <g id="patch_244">
    <path d="M 763.068978 81.059643 
L 774.329643 81.059643 
L 774.329643 69.798978 
L 763.068978 69.798978 
z
" clip-path="url(#pc2127fec66)" style="stroke: #000000; stroke-linejoin: miter"/>
   </g>
   <g id="patch_245">
    <path d="M 791.509062 80.786455 
L 802.223352 80.786455 
L 802.223352 70.072166 
L 791.509062 70.072166 
z
" clip-path="url(#pc2127fec66)" style="stroke: #000000; stroke-linejoin: miter"/>
   </g>
   <g id="matplotlib.axis_1">
    <g id="xtick_1">
     <g id="line2d_1">
      <defs>
       <path id="m8d859f39e1" d="M 0 0 
L 0 3.5 
" style="stroke: #000000; stroke-width: 0.8"/>
      </defs>
      <g>
       <use xlink:href="#m8d859f39e1" x="64.526897" y="328.931379" style="stroke: #000000; stroke-width: 0.8"/>
      </g>
     </g>
     <g id="text_1">
      <!-- 1 -->
      <g transform="translate(61.51674 350.082942) scale(0.1 -0.1)">
       <defs>
        <path id="DejaVuSansMono-31" d="M 844 531 
L 1825 531 
L 1825 4097 
L 769 3859 
L 769 4434 
L 1819 4666 
L 2450 4666 
L 2450 531 
L 3419 531 
L 3419 0 
L 844 0 
L 844 531 
z
" transform="scale(0.015625)"/>
       </defs>
       <use xlink:href="#DejaVuSansMono-31"/>
      </g>
     </g>
    </g>
    <g id="xtick_2">
     <g id="line2d_2">
      <g>
       <use xlink:href="#m8d859f39e1" x="796.866207" y="328.931379" style="stroke: #000000; stroke-width: 0.8"/>
      </g>
     </g>
     <g id="text_2">
      <!-- 1000 -->
      <g transform="translate(784.825582 350.082942) scale(0.1 -0.1)">
       <defs>
        <path id="DejaVuSansMono-30" d="M 1509 2344 
Q 1509 2516 1629 2641 
Q 1750 2766 1919 2766 
Q 2094 2766 2219 2641 
Q 2344 2516 2344 2344 
Q 2344 2169 2220 2047 
Q 2097 1925 1919 1925 
Q 1744 1925 1626 2044 
Q 1509 2163 1509 2344 
z
M 1925 4250 
Q 1484 4250 1267 3775 
Q 1050 3300 1050 2328 
Q 1050 1359 1267 884 
Q 1484 409 1925 409 
Q 2369 409 2586 884 
Q 2803 1359 2803 2328 
Q 2803 3300 2586 3775 
Q 2369 4250 1925 4250 
z
M 1925 4750 
Q 2672 4750 3055 4137 
Q 3438 3525 3438 2328 
Q 3438 1134 3055 521 
Q 2672 -91 1925 -91 
Q 1178 -91 797 521 
Q 416 1134 416 2328 
Q 416 3525 797 4137 
Q 1178 4750 1925 4750 
z
" transform="scale(0.015625)"/>
       </defs>
       <use xlink:href="#DejaVuSansMono-31"/>
       <use xlink:href="#DejaVuSansMono-30" x="60.205078"/>
       <use xlink:href="#DejaVuSansMono-30" x="120.410156"/>
       <use xlink:href="#DejaVuSansMono-30" x="180.615234"/>
      </g>
     </g>
    </g>
   </g>
   <g id="matplotlib.axis_2">
    <g id="ytick_1">
     <g id="line2d_3">
      <defs>
       <path id="mc548be3f78" d="M 0 0 
L -3.5 0 
" style="stroke: #000000; stroke-width: 0.8"/>
      </defs>
      <g>
       <use xlink:href="#mc548be3f78" x="36.36" y="300.764483" style="stroke: #000000; stroke-width: 0.8"/>
      </g>
     </g>
     <g id="text_3">
      <!-- 2 -->
      <g transform="translate(16.839687 304.590264) scale(0.1 -0.1)">
       <defs>
        <path id="DejaVuSansMono-32" d="M 1166 531 
L 3309 531 
L 3309 0 
L 475 0 
L 475 531 
Q 1059 1147 1496 1619 
Q 1934 2091 2100 2284 
Q 2413 2666 2522 2902 
Q 2631 3138 2631 3384 
Q 2631 3775 2401 3997 
Q 2172 4219 1772 4219 
Q 1488 4219 1175 4116 
Q 863 4013 513 3803 
L 513 4441 
Q 834 4594 1145 4672 
Q 1456 4750 1759 4750 
Q 2444 4750 2861 4386 
Q 3278 4022 3278 3431 
Q 3278 3131 3139 2831 
Q 3000 2531 2688 2169 
Q 2513 1966 2180 1606 
Q 1847 1247 1166 531 
z
" transform="scale(0.015625)"/>
       </defs>
       <use xlink:href="#DejaVuSansMono-32"/>
      </g>
     </g>
    </g>
    <g id="ytick_2">
     <g id="line2d_4">
      <g>
       <use xlink:href="#mc548be3f78" x="36.36" y="272.597586" style="stroke: #000000; stroke-width: 0.8"/>
      </g>
     </g>
     <g id="text_4">
      <!-- 3 -->
      <g transform="translate(16.839687 276.423367) scale(0.1 -0.1)">
       <defs>
        <path id="DejaVuSansMono-33" d="M 2425 2497 
Q 2884 2375 3128 2064 
Q 3372 1753 3372 1288 
Q 3372 644 2939 276 
Q 2506 -91 1741 -91 
Q 1419 -91 1084 -31 
Q 750 28 428 141 
L 428 769 
Q 747 603 1056 522 
Q 1366 441 1672 441 
Q 2191 441 2469 675 
Q 2747 909 2747 1350 
Q 2747 1756 2469 1995 
Q 2191 2234 1716 2234 
L 1234 2234 
L 1234 2753 
L 1716 2753 
Q 2150 2753 2394 2943 
Q 2638 3134 2638 3475 
Q 2638 3834 2411 4026 
Q 2184 4219 1766 4219 
Q 1488 4219 1191 4156 
Q 894 4094 569 3969 
L 569 4550 
Q 947 4650 1242 4700 
Q 1538 4750 1766 4750 
Q 2447 4750 2855 4408 
Q 3263 4066 3263 3500 
Q 3263 3116 3048 2859 
Q 2834 2603 2425 2497 
z
" transform="scale(0.015625)"/>
       </defs>
       <use xlink:href="#DejaVuSansMono-33"/>
      </g>
     </g>
    </g>
    <g id="ytick_3">
     <g id="line2d_5">
      <g>
       <use xlink:href="#mc548be3f78" x="36.36" y="244.43069" style="stroke: #000000; stroke-width: 0.8"/>
      </g>
     </g>
     <g id="text_5">
      <!-- 5 -->
      <g transform="translate(16.839687 248.256471) scale(0.1 -0.1)">
       <defs>
        <path id="DejaVuSansMono-35" d="M 647 4666 
L 3009 4666 
L 3009 4134 
L 1222 4134 
L 1222 2988 
Q 1356 3038 1492 3061 
Q 1628 3084 1766 3084 
Q 2491 3084 2916 2656 
Q 3341 2228 3341 1497 
Q 3341 759 2895 334 
Q 2450 -91 1678 -91 
Q 1306 -91 998 -41 
Q 691 9 447 109 
L 447 750 
Q 734 594 1025 517 
Q 1316 441 1619 441 
Q 2141 441 2423 716 
Q 2706 991 2706 1497 
Q 2706 1997 2414 2275 
Q 2122 2553 1600 2553 
Q 1347 2553 1106 2495 
Q 866 2438 647 2322 
L 647 4666 
z
" transform="scale(0.015625)"/>
       </defs>
       <use xlink:href="#DejaVuSansMono-35"/>
      </g>
     </g>
    </g>
    <g id="ytick_4">
     <g id="line2d_6">
      <g>
       <use xlink:href="#mc548be3f78" x="36.36" y="216.263793" style="stroke: #000000; stroke-width: 0.8"/>
      </g>
     </g>
     <g id="text_6">
      <!-- 7 -->
      <g transform="translate(16.839687 220.089574) scale(0.1 -0.1)">
       <defs>
        <path id="DejaVuSansMono-37" d="M 434 4666 
L 3372 4666 
L 3372 4397 
L 1703 0 
L 1044 0 
L 2669 4134 
L 434 4134 
L 434 4666 
z
" transform="scale(0.015625)"/>
       </defs>
       <use xlink:href="#DejaVuSansMono-37"/>
      </g>
     </g>
    </g>
    <g id="ytick_5">
     <g id="line2d_7">
      <g>
       <use xlink:href="#mc548be3f78" x="36.36" y="188.096897" style="stroke: #000000; stroke-width: 0.8"/>
      </g>
     </g>
     <g id="text_7">
      <!-- 11 -->
      <g transform="translate(10.819375 191.922678) scale(0.1 -0.1)">
       <use xlink:href="#DejaVuSansMono-31"/>
       <use xlink:href="#DejaVuSansMono-31" x="60.205078"/>
      </g>
     </g>
    </g>
    <g id="ytick_6">
     <g id="line2d_8">
      <g>
       <use xlink:href="#mc548be3f78" x="36.36" y="159.93" style="stroke: #000000; stroke-width: 0.8"/>
      </g>
     </g>
     <g id="text_8">
      <!-- 13 -->
      <g transform="translate(10.819375 163.755781) scale(0.1 -0.1)">
       <use xlink:href="#DejaVuSansMono-31"/>
       <use xlink:href="#DejaVuSansMono-33" x="60.205078"/>
      </g>
     </g>
    </g>
    <g id="ytick_7">
     <g id="line2d_9">
      <g>
       <use xlink:href="#mc548be3f78" x="36.36" y="131.763103" style="stroke: #000000; stroke-width: 0.8"/>
      </g>
     </g>
     <g id="text_9">
      <!-- 17 -->
      <g transform="translate(10.819375 135.588885) scale(0.1 -0.1)">
       <use xlink:href="#DejaVuSansMono-31"/>
       <use xlink:href="#DejaVuSansMono-37" x="60.205078"/>
      </g>
     </g>
    </g>
    <g id="ytick_8">
     <g id="line2d_10">
      <g>
       <use xlink:href="#mc548be3f78" x="36.36" y="103.596207" style="stroke: #000000; stroke-width: 0.8"/>
      </g>
     </g>
     <g id="text_10">
      <!-- 19 -->
      <g transform="translate(10.819375 107.421988) scale(0.1 -0.1)">
       <defs>
        <path id="DejaVuSansMono-39" d="M 1863 2069 
Q 2266 2069 2495 2359 
Q 2725 2650 2725 3163 
Q 2725 3675 2495 3965 
Q 2266 4256 1863 4256 
Q 1444 4256 1231 3979 
Q 1019 3703 1019 3163 
Q 1019 2619 1230 2344 
Q 1441 2069 1863 2069 
z
M 738 97 
L 738 678 
Q 934 563 1156 502 
Q 1378 441 1619 441 
Q 2219 441 2526 892 
Q 2834 1344 2834 2222 
Q 2688 1909 2422 1742 
Q 2156 1575 1813 1575 
Q 1138 1575 767 1990 
Q 397 2406 397 3169 
Q 397 3922 776 4336 
Q 1156 4750 1850 4750 
Q 2663 4750 3041 4165 
Q 3419 3581 3419 2328 
Q 3419 1150 2964 529 
Q 2509 -91 1644 -91 
Q 1416 -91 1184 -42 
Q 953 6 738 97 
z
" transform="scale(0.015625)"/>
       </defs>
       <use xlink:href="#DejaVuSansMono-31"/>
       <use xlink:href="#DejaVuSansMono-39" x="60.205078"/>
      </g>
     </g>
    </g>
    <g id="ytick_9">
     <g id="line2d_11">
      <g>
       <use xlink:href="#mc548be3f78" x="36.36" y="75.42931" style="stroke: #000000; stroke-width: 0.8"/>
      </g>
     </g>
     <g id="text_11">
      <!--  -->
      <g transform="translate(16.839687 79.255092) scale(0.1 -0.1)">
       <defs>
        <path id="DejaVuSansMono-2119" d="M 506 4353 
L 506 313 
L 1106 313 
L 1106 4353 
L 506 4353 
z
M 1406 4353 
L 1406 2284 
L 2306 2284 
Q 2378 2284 2447 2291 
L 2447 4347 
Q 2378 4353 2306 4353 
L 1406 4353 
z
M 206 4666 
L 2166 4666 
Q 2913 4666 3297 4323 
Q 3681 3981 3681 3322 
Q 3681 2656 3297 2315 
Q 2913 1975 2163 1975 
L 1406 1975 
L 1406 0 
L 206 0 
L 206 4666 
z
M 2759 4281 
L 2759 2359 
Q 2941 2428 3075 2556 
Q 3353 2825 3353 3322 
Q 3353 3816 3078 4084 
Q 2947 4213 2759 4281 
z
" transform="scale(0.015625)"/>
       </defs>
       <use xlink:href="#DejaVuSansMono-2119"/>
      </g>
     </g>
    </g>
   </g>
  </g>
 </g>
 <defs>
  <clipPath id="pc2127fec66">
   <rect x="36.36" y="19.095517" width="816.84" height="309.835862"/>
  </clipPath>
 </defs>
</svg>
