<?xml version="1.0" encoding="utf-8" standalone="no"?>
<!DOCTYPE svg PUBLIC "-//W3C//DTD SVG 1.1//EN"
  "http://www.w3.org/Graphics/SVG/1.1/DTD/svg11.dtd">
<svg xmlns:xlink="http://www.w3.org/1999/xlink" width="864pt" height="288pt" viewBox="0 0 864 288" xmlns="http://www.w3.org/2000/svg" version="1.1">
 <metadata>
  <rdf:RDF xmlns:dc="http://purl.org/dc/elements/1.1/" xmlns:cc="http://creativecommons.org/ns#" xmlns:rdf="http://www.w3.org/1999/02/22-rdf-syntax-ns#">
   <cc:Work>
    <dc:type rdf:resource="http://purl.org/dc/dcmitype/StillImage"/>
    <dc:date>2024-09-18T11:22:33.045916</dc:date>
    <dc:format>image/svg+xml</dc:format>
    <dc:creator>
     <cc:Agent>
      <dc:title>Matplotlib v3.9.2, https://matplotlib.org/</dc:title>
     </cc:Agent>
    </dc:creator>
   </cc:Work>
  </rdf:RDF>
 </metadata>
 <defs>
  <style type="text/css">*{stroke-linejoin: round; stroke-linecap: butt}</style>
 </defs>
 <g id="figure_1">
  <g id="patch_1">
   <path d="M 0 288 
L 864 288 
L 864 0 
L 0 0 
z
" style="fill: #ffffff"/>
  </g>
  <g id="axes_1">
   <g id="patch_2">
    <path d="M 36.36 257.418947 
L 853.2 257.418947 
L 853.2 20.965263 
L 36.36 20.965263 
z
" style="fill: #ffffff"/>
   </g>
   <g id="patch_3">
    <path d="M 51.992697 241.786251 
L 63.718882 241.786251 
L 63.718882 230.060065 
L 51.992697 230.060065 
z
" clip-path="url(#p75e485dc2e)" style="stroke: #000000; stroke-linejoin: miter"/>
   </g>
   <g id="patch_4">
    <path d="M 73.721847 241.55289 
L 84.981311 241.55289 
L 84.981311 230.293426 
L 73.721847 230.293426 
z
" clip-path="url(#p75e485dc2e)" style="stroke: #000000; stroke-linejoin: miter"/>
   </g>
   <g id="patch_5">
    <path d="M 95.1242 241.646327 
L 106.570537 241.646327 
L 106.570537 230.199989 
L 95.1242 230.199989 
z
" clip-path="url(#p75e485dc2e)" style="stroke: #000000; stroke-linejoin: miter"/>
   </g>
   <g id="patch_6">
    <path d="M 116.594575 241.671741 
L 128.091741 241.671741 
L 128.091741 230.174575 
L 116.594575 230.174575 
z
" clip-path="url(#p75e485dc2e)" style="stroke: #000000; stroke-linejoin: miter"/>
   </g>
   <g id="patch_7">
    <path d="M 138.334885 241.42722 
L 149.343009 241.42722 
L 149.343009 230.419096 
L 138.334885 230.419096 
z
" clip-path="url(#p75e485dc2e)" style="stroke: #000000; stroke-linejoin: miter"/>
   </g>
   <g id="patch_8">
    <path d="M 160.208892 241.049002 
L 170.460581 241.049002 
L 170.460581 230.797313 
L 160.208892 230.797313 
z
" clip-path="url(#p75e485dc2e)" style="stroke: #000000; stroke-linejoin: miter"/>
   </g>
   <g id="patch_9">
    <path d="M 182.037743 240.715941 
L 191.62331 240.715941 
L 191.62331 231.130374 
L 182.037743 231.130374 
z
" clip-path="url(#p75e485dc2e)" style="stroke: #000000; stroke-linejoin: miter"/>
   </g>
   <g id="patch_10">
    <path d="M 203.788512 240.460962 
L 212.86412 240.460962 
L 212.86412 231.385354 
L 203.788512 231.385354 
z
" clip-path="url(#p75e485dc2e)" style="stroke: #000000; stroke-linejoin: miter"/>
   </g>
   <g id="patch_11">
    <path d="M 225.567423 240.17784 
L 234.076788 240.17784 
L 234.076788 231.668475 
L 225.567423 231.668475 
z
" clip-path="url(#p75e485dc2e)" style="stroke: #000000; stroke-linejoin: miter"/>
   </g>
   <g id="patch_12">
    <path d="M 247.559602 239.68145 
L 255.076187 239.68145 
L 255.076187 232.164865 
L 247.559602 232.164865 
z
" clip-path="url(#p75e485dc2e)" style="stroke: #000000; stroke-linejoin: miter"/>
   </g>
   <g id="patch_13">
    <path d="M 269.653067 239.083776 
L 275.974302 239.083776 
L 275.974302 232.76254 
L 269.653067 232.76254 
z
" clip-path="url(#p75e485dc2e)" style="stroke: #000000; stroke-linejoin: miter"/>
   </g>
   <g id="patch_14">
    <path d="M 291.648793 238.583839 
L 296.970155 238.583839 
L 296.970155 233.262477 
L 291.648793 233.262477 
z
" clip-path="url(#p75e485dc2e)" style="stroke: #000000; stroke-linejoin: miter"/>
   </g>
   <g id="patch_15">
    <path d="M 313.601285 238.127136 
L 318.009242 238.127136 
L 318.009242 233.719179 
L 313.601285 233.719179 
z
" clip-path="url(#p75e485dc2e)" style="stroke: #000000; stroke-linejoin: miter"/>
   </g>
   <g id="patch_16">
    <path d="M 335.539273 237.684938 
L 339.062832 237.684938 
L 339.062832 234.161378 
L 335.539273 234.161378 
z
" clip-path="url(#p75e485dc2e)" style="stroke: #000000; stroke-linejoin: miter"/>
   </g>
   <g id="patch_17">
    <path d="M 357.285932 237.434068 
L 360.307752 237.434068 
L 360.307752 234.412248 
L 357.285932 234.412248 
z
" clip-path="url(#p75e485dc2e)" style="stroke: #000000; stroke-linejoin: miter"/>
   </g>
   <g id="patch_18">
    <path d="M 378.936399 237.279391 
L 381.648864 237.279391 
L 381.648864 234.566925 
L 378.936399 234.566925 
z
" clip-path="url(#p75e485dc2e)" style="stroke: #000000; stroke-linejoin: miter"/>
   </g>
   <g id="patch_19">
    <path d="M 400.48234 237.229239 
L 403.094502 237.229239 
L 403.094502 234.617077 
L 400.48234 234.617077 
z
" clip-path="url(#p75e485dc2e)" style="stroke: #000000; stroke-linejoin: miter"/>
   </g>
   <g id="patch_20">
    <path d="M 421.97911 237.228258 
L 424.589311 237.228258 
L 424.589311 234.618058 
L 421.97911 234.618058 
z
" clip-path="url(#p75e485dc2e)" style="stroke: #000000; stroke-linejoin: miter"/>
   </g>
   <g id="patch_21">
    <path d="M 443.537409 237.165749 
L 446.022591 237.165749 
L 446.022591 234.680567 
L 443.537409 234.680567 
z
" clip-path="url(#p75e485dc2e)" style="stroke: #000000; stroke-linejoin: miter"/>
   </g>
   <g id="patch_22">
    <path d="M 465.117707 237.08124 
L 467.433872 237.08124 
L 467.433872 234.765076 
L 465.117707 234.765076 
z
" clip-path="url(#p75e485dc2e)" style="stroke: #000000; stroke-linejoin: miter"/>
   </g>
   <g id="patch_23">
    <path d="M 486.698811 236.995926 
L 488.844347 236.995926 
L 488.844347 234.85039 
L 486.698811 234.85039 
z
" clip-path="url(#p75e485dc2e)" style="stroke: #000000; stroke-linejoin: miter"/>
   </g>
   <g id="patch_24">
    <path d="M 508.277174 236.913352 
L 510.257562 236.913352 
L 510.257562 234.932964 
L 508.277174 234.932964 
z
" clip-path="url(#p75e485dc2e)" style="stroke: #000000; stroke-linejoin: miter"/>
   </g>
   <g id="patch_25">
    <path d="M 529.851954 236.834361 
L 531.674361 236.834361 
L 531.674361 235.011954 
L 529.851954 235.011954 
z
" clip-path="url(#p75e485dc2e)" style="stroke: #000000; stroke-linejoin: miter"/>
   </g>
   <g id="patch_26">
    <path d="M 551.423753 236.758352 
L 553.094141 236.758352 
L 553.094141 235.087964 
L 551.423753 235.087964 
z
" clip-path="url(#p75e485dc2e)" style="stroke: #000000; stroke-linejoin: miter"/>
   </g>
   <g id="patch_27">
    <path d="M 572.991989 236.685906 
L 574.517485 236.685906 
L 574.517485 235.16041 
L 572.991989 235.16041 
z
" clip-path="url(#p75e485dc2e)" style="stroke: #000000; stroke-linejoin: miter"/>
   </g>
   <g id="patch_28">
    <path d="M 594.551018 236.622666 
L 595.950035 236.622666 
L 595.950035 235.223649 
L 594.551018 235.223649 
z
" clip-path="url(#p75e485dc2e)" style="stroke: #000000; stroke-linejoin: miter"/>
   </g>
   <g id="patch_29">
    <path d="M 616.088359 236.581115 
L 617.404273 236.581115 
L 617.404273 235.265201 
L 616.088359 235.265201 
z
" clip-path="url(#p75e485dc2e)" style="stroke: #000000; stroke-linejoin: miter"/>
   </g>
   <g id="patch_30">
    <path d="M 637.611267 236.553996 
L 638.872943 236.553996 
L 638.872943 235.29232 
L 637.611267 235.29232 
z
" clip-path="url(#p75e485dc2e)" style="stroke: #000000; stroke-linejoin: miter"/>
   </g>
   <g id="patch_31">
    <path d="M 659.114398 236.546655 
L 660.361391 236.546655 
L 660.361391 235.299661 
L 659.114398 235.299661 
z
" clip-path="url(#p75e485dc2e)" style="stroke: #000000; stroke-linejoin: miter"/>
   </g>
   <g id="patch_32">
    <path d="M 680.602987 236.553855 
L 681.864381 236.553855 
L 681.864381 235.292461 
L 680.602987 235.292461 
z
" clip-path="url(#p75e485dc2e)" style="stroke: #000000; stroke-linejoin: miter"/>
   </g>
   <g id="patch_33">
    <path d="M 702.091344 236.561287 
L 703.367603 236.561287 
L 703.367603 235.285028 
L 702.091344 235.285028 
z
" clip-path="url(#p75e485dc2e)" style="stroke: #000000; stroke-linejoin: miter"/>
   </g>
   <g id="patch_34">
    <path d="M 723.567379 236.581042 
L 724.883147 236.581042 
L 724.883147 235.265274 
L 723.567379 235.265274 
z
" clip-path="url(#p75e485dc2e)" style="stroke: #000000; stroke-linejoin: miter"/>
   </g>
   <g id="patch_35">
    <path d="M 745.042154 236.602056 
L 746.399951 236.602056 
L 746.399951 235.24426 
L 745.042154 235.24426 
z
" clip-path="url(#p75e485dc2e)" style="stroke: #000000; stroke-linejoin: miter"/>
   </g>
   <g id="patch_36">
    <path d="M 766.516786 236.623214 
L 767.916898 236.623214 
L 767.916898 235.223102 
L 766.516786 235.223102 
z
" clip-path="url(#p75e485dc2e)" style="stroke: #000000; stroke-linejoin: miter"/>
   </g>
   <g id="patch_37">
    <path d="M 787.987929 236.64786 
L 789.437334 236.64786 
L 789.437334 235.198455 
L 787.987929 235.198455 
z
" clip-path="url(#p75e485dc2e)" style="stroke: #000000; stroke-linejoin: miter"/>
   </g>
   <g id="patch_38">
    <path d="M 809.470007 236.661572 
L 810.946836 236.661572 
L 810.946836 235.184743 
L 809.470007 235.184743 
z
" clip-path="url(#p75e485dc2e)" style="stroke: #000000; stroke-linejoin: miter"/>
   </g>
   <g id="patch_39">
    <path d="M 51.86254 220.420618 
L 63.849039 220.420618 
L 63.849039 208.434119 
L 51.86254 208.434119 
z
" clip-path="url(#p75e485dc2e)" style="stroke: #000000; stroke-linejoin: miter"/>
   </g>
   <g id="patch_40">
    <path d="M 74.017745 219.761202 
L 84.685413 219.761202 
L 84.685413 209.093535 
L 74.017745 209.093535 
z
" clip-path="url(#p75e485dc2e)" style="stroke: #000000; stroke-linejoin: miter"/>
   </g>
   <g id="patch_41">
    <path d="M 95.346085 219.928652 
L 106.348652 219.928652 
L 106.348652 208.926085 
L 95.346085 208.926085 
z
" clip-path="url(#p75e485dc2e)" style="stroke: #000000; stroke-linejoin: miter"/>
   </g>
   <g id="patch_42">
    <path d="M 117.137932 219.632594 
L 127.548383 219.632594 
L 127.548383 209.222143 
L 117.137932 209.222143 
z
" clip-path="url(#p75e485dc2e)" style="stroke: #000000; stroke-linejoin: miter"/>
   </g>
   <g id="patch_43">
    <path d="M 138.93123 219.335086 
L 148.746665 219.335086 
L 148.746665 209.519651 
L 138.93123 209.519651 
z
" clip-path="url(#p75e485dc2e)" style="stroke: #000000; stroke-linejoin: miter"/>
   </g>
   <g id="patch_44">
    <path d="M 160.590975 219.17113 
L 170.078499 219.17113 
L 170.078499 209.683607 
L 160.590975 209.683607 
z
" clip-path="url(#p75e485dc2e)" style="stroke: #000000; stroke-linejoin: miter"/>
   </g>
   <g id="patch_45">
    <path d="M 182.240421 219.017473 
L 191.420631 219.017473 
L 191.420631 209.837263 
L 182.240421 209.837263 
z
" clip-path="url(#p75e485dc2e)" style="stroke: #000000; stroke-linejoin: miter"/>
   </g>
   <g id="patch_46">
    <path d="M 203.890058 218.863626 
L 212.762574 218.863626 
L 212.762574 209.99111 
L 203.890058 209.99111 
z
" clip-path="url(#p75e485dc2e)" style="stroke: #000000; stroke-linejoin: miter"/>
   </g>
   <g id="patch_47">
    <path d="M 225.520783 218.72869 
L 234.123427 218.72869 
L 234.123427 210.126047 
L 225.520783 210.126047 
z
" clip-path="url(#p75e485dc2e)" style="stroke: #000000; stroke-linejoin: miter"/>
   </g>
   <g id="patch_48">
    <path d="M 247.25469 218.490574 
L 255.3811 218.490574 
L 255.3811 210.364163 
L 247.25469 210.364163 
z
" clip-path="url(#p75e485dc2e)" style="stroke: #000000; stroke-linejoin: miter"/>
   </g>
   <g id="patch_49">
    <path d="M 269.106701 218.134351 
L 276.520667 218.134351 
L 276.520667 210.720386 
L 269.106701 210.720386 
z
" clip-path="url(#p75e485dc2e)" style="stroke: #000000; stroke-linejoin: miter"/>
   </g>
   <g id="patch_50">
    <path d="M 290.952099 217.784743 
L 297.666848 217.784743 
L 297.666848 211.069994 
L 290.952099 211.069994 
z
" clip-path="url(#p75e485dc2e)" style="stroke: #000000; stroke-linejoin: miter"/>
   </g>
   <g id="patch_51">
    <path d="M 312.799512 217.43312 
L 318.811014 217.43312 
L 318.811014 211.421617 
L 312.799512 211.421617 
z
" clip-path="url(#p75e485dc2e)" style="stroke: #000000; stroke-linejoin: miter"/>
   </g>
   <g id="patch_52">
    <path d="M 334.682155 217.046266 
L 339.919951 217.046266 
L 339.919951 211.80847 
L 334.682155 211.80847 
z
" clip-path="url(#p75e485dc2e)" style="stroke: #000000; stroke-linejoin: miter"/>
   </g>
   <g id="patch_53">
    <path d="M 356.57188 216.65233 
L 361.021804 216.65233 
L 361.021804 212.202406 
L 356.57188 212.202406 
z
" clip-path="url(#p75e485dc2e)" style="stroke: #000000; stroke-linejoin: miter"/>
   </g>
   <g id="patch_54">
    <path d="M 378.455221 216.264779 
L 382.130042 216.264779 
L 382.130042 212.589958 
L 378.455221 212.589958 
z
" clip-path="url(#p75e485dc2e)" style="stroke: #000000; stroke-linejoin: miter"/>
   </g>
   <g id="patch_55">
    <path d="M 400.303534 215.912255 
L 403.273308 215.912255 
L 403.273308 212.942482 
L 400.303534 212.942482 
z
" clip-path="url(#p75e485dc2e)" style="stroke: #000000; stroke-linejoin: miter"/>
   </g>
   <g id="patch_56">
    <path d="M 422.087397 215.624182 
L 424.481024 215.624182 
L 424.481024 213.230555 
L 422.087397 213.230555 
z
" clip-path="url(#p75e485dc2e)" style="stroke: #000000; stroke-linejoin: miter"/>
   </g>
   <g id="patch_57">
    <path d="M 443.802748 215.404621 
L 445.757252 215.404621 
L 445.757252 213.450116 
L 443.802748 213.450116 
z
" clip-path="url(#p75e485dc2e)" style="stroke: #000000; stroke-linejoin: miter"/>
   </g>
   <g id="patch_58">
    <path d="M 465.455607 215.24755 
L 467.095972 215.24755 
L 467.095972 213.607186 
L 465.455607 213.607186 
z
" clip-path="url(#p75e485dc2e)" style="stroke: #000000; stroke-linejoin: miter"/>
   </g>
   <g id="patch_59">
    <path d="M 487.056148 215.142799 
L 488.48701 215.142799 
L 488.48701 213.711938 
L 487.056148 213.711938 
z
" clip-path="url(#p75e485dc2e)" style="stroke: #000000; stroke-linejoin: miter"/>
   </g>
   <g id="patch_60">
    <path d="M 508.613054 215.081683 
L 509.921683 215.081683 
L 509.921683 213.773054 
L 508.613054 213.773054 
z
" clip-path="url(#p75e485dc2e)" style="stroke: #000000; stroke-linejoin: miter"/>
   </g>
   <g id="patch_61">
    <path d="M 530.134623 215.055903 
L 531.391693 215.055903 
L 531.391693 213.798834 
L 530.134623 213.798834 
z
" clip-path="url(#p75e485dc2e)" style="stroke: #000000; stroke-linejoin: miter"/>
   </g>
   <g id="patch_62">
    <path d="M 551.632695 215.053621 
L 552.8852 215.053621 
L 552.8852 213.801116 
L 551.632695 213.801116 
z
" clip-path="url(#p75e485dc2e)" style="stroke: #000000; stroke-linejoin: miter"/>
   </g>
   <g id="patch_63">
    <path d="M 573.123109 215.058996 
L 574.386364 215.058996 
L 574.386364 213.795741 
L 573.123109 213.795741 
z
" clip-path="url(#p75e485dc2e)" style="stroke: #000000; stroke-linejoin: miter"/>
   </g>
   <g id="patch_64">
    <path d="M 594.613254 215.064641 
L 595.887798 215.064641 
L 595.887798 213.790096 
L 594.613254 213.790096 
z
" clip-path="url(#p75e485dc2e)" style="stroke: #000000; stroke-linejoin: miter"/>
   </g>
   <g id="patch_65">
    <path d="M 616.102243 215.071441 
L 617.390388 215.071441 
L 617.390388 213.783296 
L 616.102243 213.783296 
z
" clip-path="url(#p75e485dc2e)" style="stroke: #000000; stroke-linejoin: miter"/>
   </g>
   <g id="patch_66">
    <path d="M 637.591217 215.078256 
L 638.892993 215.078256 
L 638.892993 213.77648 
L 637.591217 213.77648 
z
" clip-path="url(#p75e485dc2e)" style="stroke: #000000; stroke-linejoin: miter"/>
   </g>
   <g id="patch_67">
    <path d="M 659.079367 215.085896 
L 660.396422 215.085896 
L 660.396422 213.768841 
L 659.079367 213.768841 
z
" clip-path="url(#p75e485dc2e)" style="stroke: #000000; stroke-linejoin: miter"/>
   </g>
   <g id="patch_68">
    <path d="M 680.567087 215.093966 
L 681.900282 215.093966 
L 681.900282 213.760771 
L 680.567087 213.760771 
z
" clip-path="url(#p75e485dc2e)" style="stroke: #000000; stroke-linejoin: miter"/>
   </g>
   <g id="patch_69">
    <path d="M 702.054922 215.10192 
L 703.404026 215.10192 
L 703.404026 213.752816 
L 702.054922 213.752816 
z
" clip-path="url(#p75e485dc2e)" style="stroke: #000000; stroke-linejoin: miter"/>
   </g>
   <g id="patch_70">
    <path d="M 723.533811 215.118821 
L 724.916715 215.118821 
L 724.916715 213.735916 
L 723.533811 213.735916 
z
" clip-path="url(#p75e485dc2e)" style="stroke: #000000; stroke-linejoin: miter"/>
   </g>
   <g id="patch_71">
    <path d="M 745.004966 215.143455 
L 746.437139 215.143455 
L 746.437139 213.711282 
L 745.004966 213.711282 
z
" clip-path="url(#p75e485dc2e)" style="stroke: #000000; stroke-linejoin: miter"/>
   </g>
   <g id="patch_72">
    <path d="M 766.482169 215.162042 
L 767.951515 215.162042 
L 767.951515 213.692695 
L 766.482169 213.692695 
z
" clip-path="url(#p75e485dc2e)" style="stroke: #000000; stroke-linejoin: miter"/>
   </g>
   <g id="patch_73">
    <path d="M 787.965649 215.174351 
L 789.459615 215.174351 
L 789.459615 213.680385 
L 787.965649 213.680385 
z
" clip-path="url(#p75e485dc2e)" style="stroke: #000000; stroke-linejoin: miter"/>
   </g>
   <g id="patch_74">
    <path d="M 809.435393 215.200397 
L 810.981449 215.200397 
L 810.981449 213.65434 
L 809.435393 213.65434 
z
" clip-path="url(#p75e485dc2e)" style="stroke: #000000; stroke-linejoin: miter"/>
   </g>
   <g id="patch_75">
    <path d="M 52.881828 197.90554 
L 62.829751 197.90554 
L 62.829751 187.957617 
L 52.881828 187.957617 
z
" clip-path="url(#p75e485dc2e)" style="stroke: #000000; stroke-linejoin: miter"/>
   </g>
   <g id="patch_76">
    <path d="M 74.473237 197.809921 
L 84.229921 197.809921 
L 84.229921 188.053237 
L 74.473237 188.053237 
z
" clip-path="url(#p75e485dc2e)" style="stroke: #000000; stroke-linejoin: miter"/>
   </g>
   <g id="patch_77">
    <path d="M 95.861463 197.917484 
L 105.833274 197.917484 
L 105.833274 187.945673 
L 95.861463 187.945673 
z
" clip-path="url(#p75e485dc2e)" style="stroke: #000000; stroke-linejoin: miter"/>
   </g>
   <g id="patch_78">
    <path d="M 117.314298 197.960439 
L 127.372018 197.960439 
L 127.372018 187.902719 
L 117.314298 187.902719 
z
" clip-path="url(#p75e485dc2e)" style="stroke: #000000; stroke-linejoin: miter"/>
   </g>
   <g id="patch_79">
    <path d="M 138.891968 197.878558 
L 148.785926 197.878558 
L 148.785926 187.9846 
L 138.891968 187.9846 
z
" clip-path="url(#p75e485dc2e)" style="stroke: #000000; stroke-linejoin: miter"/>
   </g>
   <g id="patch_80">
    <path d="M 160.467876 197.79844 
L 170.201597 197.79844 
L 170.201597 188.064718 
L 160.467876 188.064718 
z
" clip-path="url(#p75e485dc2e)" style="stroke: #000000; stroke-linejoin: miter"/>
   </g>
   <g id="patch_81">
    <path d="M 181.992032 197.770073 
L 191.66902 197.770073 
L 191.66902 188.093085 
L 181.992032 188.093085 
z
" clip-path="url(#p75e485dc2e)" style="stroke: #000000; stroke-linejoin: miter"/>
   </g>
   <g id="patch_82">
    <path d="M 203.468692 197.789203 
L 213.18394 197.789203 
L 213.18394 188.073955 
L 203.468692 188.073955 
z
" clip-path="url(#p75e485dc2e)" style="stroke: #000000; stroke-linejoin: miter"/>
   </g>
   <g id="patch_83">
    <path d="M 224.911162 197.842522 
L 234.733048 197.842522 
L 234.733048 188.020636 
L 224.911162 188.020636 
z
" clip-path="url(#p75e485dc2e)" style="stroke: #000000; stroke-linejoin: miter"/>
   </g>
   <g id="patch_84">
    <path d="M 246.356071 197.893403 
L 256.279719 197.893403 
L 256.279719 187.969755 
L 246.356071 187.969755 
z
" clip-path="url(#p75e485dc2e)" style="stroke: #000000; stroke-linejoin: miter"/>
   </g>
   <g id="patch_85">
    <path d="M 267.832782 197.912481 
L 277.794587 197.912481 
L 277.794587 187.950677 
L 267.832782 187.950677 
z
" clip-path="url(#p75e485dc2e)" style="stroke: #000000; stroke-linejoin: miter"/>
   </g>
   <g id="patch_86">
    <path d="M 289.350909 197.890144 
L 299.268039 197.890144 
L 299.268039 187.973014 
L 289.350909 187.973014 
z
" clip-path="url(#p75e485dc2e)" style="stroke: #000000; stroke-linejoin: miter"/>
   </g>
   <g id="patch_87">
    <path d="M 310.899667 197.837175 
L 320.710859 197.837175 
L 320.710859 188.025983 
L 310.899667 188.025983 
z
" clip-path="url(#p75e485dc2e)" style="stroke: #000000; stroke-linejoin: miter"/>
   </g>
   <g id="patch_88">
    <path d="M 332.439601 197.793031 
L 342.162505 197.793031 
L 342.162505 188.070127 
L 332.439601 188.070127 
z
" clip-path="url(#p75e485dc2e)" style="stroke: #000000; stroke-linejoin: miter"/>
   </g>
   <g id="patch_89">
    <path d="M 353.935827 197.792594 
L 363.657857 197.792594 
L 363.657857 188.070564 
L 353.935827 188.070564 
z
" clip-path="url(#p75e485dc2e)" style="stroke: #000000; stroke-linejoin: miter"/>
   </g>
   <g id="patch_90">
    <path d="M 375.407145 197.817066 
L 385.178118 197.817066 
L 385.178118 188.046092 
L 375.407145 188.046092 
z
" clip-path="url(#p75e485dc2e)" style="stroke: #000000; stroke-linejoin: miter"/>
   </g>
   <g id="patch_91">
    <path d="M 396.91766 197.80234 
L 406.659182 197.80234 
L 406.659182 188.060818 
L 396.91766 188.060818 
z
" clip-path="url(#p75e485dc2e)" style="stroke: #000000; stroke-linejoin: miter"/>
   </g>
   <g id="patch_92">
    <path d="M 418.464188 197.751602 
L 428.104233 197.751602 
L 428.104233 188.111556 
L 418.464188 188.111556 
z
" clip-path="url(#p75e485dc2e)" style="stroke: #000000; stroke-linejoin: miter"/>
   </g>
   <g id="patch_93">
    <path d="M 439.996206 197.715373 
L 449.563794 197.715373 
L 449.563794 188.147785 
L 439.996206 188.147785 
z
" clip-path="url(#p75e485dc2e)" style="stroke: #000000; stroke-linejoin: miter"/>
   </g>
   <g id="patch_94">
    <path d="M 461.49415 197.713218 
L 471.057429 197.713218 
L 471.057429 188.14994 
L 461.49415 188.14994 
z
" clip-path="url(#p75e485dc2e)" style="stroke: #000000; stroke-linejoin: miter"/>
   </g>
   <g id="patch_95">
    <path d="M 482.973206 197.729951 
L 492.569951 197.729951 
L 492.569951 188.133206 
L 482.973206 188.133206 
z
" clip-path="url(#p75e485dc2e)" style="stroke: #000000; stroke-linejoin: miter"/>
   </g>
   <g id="patch_96">
    <path d="M 504.464709 197.734239 
L 514.070028 197.734239 
L 514.070028 188.128919 
L 504.464709 188.128919 
z
" clip-path="url(#p75e485dc2e)" style="stroke: #000000; stroke-linejoin: miter"/>
   </g>
   <g id="patch_97">
    <path d="M 525.982988 197.711749 
L 535.543328 197.711749 
L 535.543328 188.151409 
L 525.982988 188.151409 
z
" clip-path="url(#p75e485dc2e)" style="stroke: #000000; stroke-linejoin: miter"/>
   </g>
   <g id="patch_98">
    <path d="M 547.506686 197.68384 
L 557.011209 197.68384 
L 557.011209 188.179318 
L 547.506686 188.179318 
z
" clip-path="url(#p75e485dc2e)" style="stroke: #000000; stroke-linejoin: miter"/>
   </g>
   <g id="patch_99">
    <path d="M 569.01207 197.674246 
L 578.497404 197.674246 
L 578.497404 188.188912 
L 569.01207 188.188912 
z
" clip-path="url(#p75e485dc2e)" style="stroke: #000000; stroke-linejoin: miter"/>
   </g>
   <g id="patch_100">
    <path d="M 590.507757 197.674348 
L 599.993295 197.674348 
L 599.993295 188.18881 
L 590.507757 188.18881 
z
" clip-path="url(#p75e485dc2e)" style="stroke: #000000; stroke-linejoin: miter"/>
   </g>
   <g id="patch_101">
    <path d="M 612.02302 197.654874 
L 621.469611 197.654874 
L 621.469611 188.208284 
L 612.02302 188.208284 
z
" clip-path="url(#p75e485dc2e)" style="stroke: #000000; stroke-linejoin: miter"/>
   </g>
   <g id="patch_102">
    <path d="M 633.549057 197.624627 
L 642.935153 197.624627 
L 642.935153 188.238531 
L 633.549057 188.238531 
z
" clip-path="url(#p75e485dc2e)" style="stroke: #000000; stroke-linejoin: miter"/>
   </g>
   <g id="patch_103">
    <path d="M 655.04978 197.619693 
L 664.426009 197.619693 
L 664.426009 188.243465 
L 655.04978 188.243465 
z
" clip-path="url(#p75e485dc2e)" style="stroke: #000000; stroke-linejoin: miter"/>
   </g>
   <g id="patch_104">
    <path d="M 676.549015 197.616248 
L 685.918354 197.616248 
L 685.918354 188.24691 
L 676.549015 188.24691 
z
" clip-path="url(#p75e485dc2e)" style="stroke: #000000; stroke-linejoin: miter"/>
   </g>
   <g id="patch_105">
    <path d="M 698.086568 197.574484 
L 707.372379 197.574484 
L 707.372379 188.288674 
L 698.086568 188.288674 
z
" clip-path="url(#p75e485dc2e)" style="stroke: #000000; stroke-linejoin: miter"/>
   </g>
   <g id="patch_106">
    <path d="M 719.612838 197.544004 
L 728.837689 197.544004 
L 728.837689 188.319153 
L 719.612838 188.319153 
z
" clip-path="url(#p75e485dc2e)" style="stroke: #000000; stroke-linejoin: miter"/>
   </g>
   <g id="patch_107">
    <path d="M 741.134839 197.517792 
L 750.307266 197.517792 
L 750.307266 188.345366 
L 741.134839 188.345366 
z
" clip-path="url(#p75e485dc2e)" style="stroke: #000000; stroke-linejoin: miter"/>
   </g>
   <g id="patch_108">
    <path d="M 762.668178 197.480243 
L 771.765506 197.480243 
L 771.765506 188.382915 
L 762.668178 188.382915 
z
" clip-path="url(#p75e485dc2e)" style="stroke: #000000; stroke-linejoin: miter"/>
   </g>
   <g id="patch_109">
    <path d="M 784.188559 197.455652 
L 793.236704 197.455652 
L 793.236704 188.407506 
L 784.188559 188.407506 
z
" clip-path="url(#p75e485dc2e)" style="stroke: #000000; stroke-linejoin: miter"/>
   </g>
   <g id="patch_110">
    <path d="M 805.730402 197.409598 
L 814.68644 197.409598 
L 814.68644 188.45356 
L 805.730402 188.45356 
z
" clip-path="url(#p75e485dc2e)" style="stroke: #000000; stroke-linejoin: miter"/>
   </g>
   <g id="patch_111">
    <path d="M 52.586679 176.7049 
L 63.1249 176.7049 
L 63.1249 166.166679 
L 52.586679 166.166679 
z
" clip-path="url(#p75e485dc2e)" style="stroke: #000000; stroke-linejoin: miter"/>
   </g>
   <g id="patch_112">
    <path d="M 74.495813 176.291556 
L 84.207345 176.291556 
L 84.207345 166.580023 
L 74.495813 166.580023 
z
" clip-path="url(#p75e485dc2e)" style="stroke: #000000; stroke-linejoin: miter"/>
   </g>
   <g id="patch_113">
    <path d="M 96.233097 176.050061 
L 105.46164 176.050061 
L 105.46164 166.821518 
L 96.233097 166.821518 
z
" clip-path="url(#p75e485dc2e)" style="stroke: #000000; stroke-linejoin: miter"/>
   </g>
   <g id="patch_114">
    <path d="M 117.718737 176.06021 
L 126.967579 176.06021 
L 126.967579 166.811369 
L 117.718737 166.811369 
z
" clip-path="url(#p75e485dc2e)" style="stroke: #000000; stroke-linejoin: miter"/>
   </g>
   <g id="patch_115">
    <path d="M 139.081382 176.193355 
L 148.596513 176.193355 
L 148.596513 166.678224 
L 139.081382 166.678224 
z
" clip-path="url(#p75e485dc2e)" style="stroke: #000000; stroke-linejoin: miter"/>
   </g>
   <g id="patch_116">
    <path d="M 160.469123 176.301403 
L 170.20035 176.301403 
L 170.20035 166.570176 
L 160.469123 166.570176 
z
" clip-path="url(#p75e485dc2e)" style="stroke: #000000; stroke-linejoin: miter"/>
   </g>
   <g id="patch_117">
    <path d="M 181.964415 176.301901 
L 191.696638 176.301901 
L 191.696638 166.569678 
L 181.964415 166.569678 
z
" clip-path="url(#p75e485dc2e)" style="stroke: #000000; stroke-linejoin: miter"/>
   </g>
   <g id="patch_118">
    <path d="M 203.52938 176.232725 
L 213.123251 176.232725 
L 213.123251 166.638854 
L 203.52938 166.638854 
z
" clip-path="url(#p75e485dc2e)" style="stroke: #000000; stroke-linejoin: miter"/>
   </g>
   <g id="patch_119">
    <path d="M 225.106733 176.151162 
L 234.537478 176.151162 
L 234.537478 166.720417 
L 225.106733 166.720417 
z
" clip-path="url(#p75e485dc2e)" style="stroke: #000000; stroke-linejoin: miter"/>
   </g>
   <g id="patch_120">
    <path d="M 246.665861 176.087823 
L 255.969928 176.087823 
L 255.969928 166.783756 
L 246.665861 166.783756 
z
" clip-path="url(#p75e485dc2e)" style="stroke: #000000; stroke-linejoin: miter"/>
   </g>
   <g id="patch_121">
    <path d="M 268.16681 176.082664 
L 277.460558 176.082664 
L 277.460558 166.788915 
L 268.16681 166.788915 
z
" clip-path="url(#p75e485dc2e)" style="stroke: #000000; stroke-linejoin: miter"/>
   </g>
   <g id="patch_122">
    <path d="M 289.575771 176.169492 
L 299.043177 176.169492 
L 299.043177 166.702087 
L 289.575771 166.702087 
z
" clip-path="url(#p75e485dc2e)" style="stroke: #000000; stroke-linejoin: miter"/>
   </g>
   <g id="patch_123">
    <path d="M 310.964616 176.276436 
L 320.64591 176.276436 
L 320.64591 166.595143 
L 310.964616 166.595143 
z
" clip-path="url(#p75e485dc2e)" style="stroke: #000000; stroke-linejoin: miter"/>
   </g>
   <g id="patch_124">
    <path d="M 332.483426 176.253416 
L 342.118679 176.253416 
L 342.118679 166.618163 
L 332.483426 166.618163 
z
" clip-path="url(#p75e485dc2e)" style="stroke: #000000; stroke-linejoin: miter"/>
   </g>
   <g id="patch_125">
    <path d="M 354.110908 176.121723 
L 363.482776 176.121723 
L 363.482776 166.749856 
L 354.110908 166.749856 
z
" clip-path="url(#p75e485dc2e)" style="stroke: #000000; stroke-linejoin: miter"/>
   </g>
   <g id="patch_126">
    <path d="M 375.699447 176.028974 
L 384.885816 176.028974 
L 384.885816 166.842605 
L 375.699447 166.842605 
z
" clip-path="url(#p75e485dc2e)" style="stroke: #000000; stroke-linejoin: miter"/>
   </g>
   <g id="patch_127">
    <path d="M 397.19041 176.0338 
L 406.386432 176.0338 
L 406.386432 166.837779 
L 397.19041 166.837779 
z
" clip-path="url(#p75e485dc2e)" style="stroke: #000000; stroke-linejoin: miter"/>
   </g>
   <g id="patch_128">
    <path d="M 418.616729 176.103271 
L 427.951692 176.103271 
L 427.951692 166.768308 
L 418.616729 166.768308 
z
" clip-path="url(#p75e485dc2e)" style="stroke: #000000; stroke-linejoin: miter"/>
   </g>
   <g id="patch_129">
    <path d="M 440.062176 176.153613 
L 449.497824 176.153613 
L 449.497824 166.717966 
L 440.062176 166.717966 
z
" clip-path="url(#p75e485dc2e)" style="stroke: #000000; stroke-linejoin: miter"/>
   </g>
   <g id="patch_130">
    <path d="M 461.586954 176.124625 
L 470.964625 176.124625 
L 470.964625 166.746954 
L 461.586954 166.746954 
z
" clip-path="url(#p75e485dc2e)" style="stroke: #000000; stroke-linejoin: miter"/>
   </g>
   <g id="patch_131">
    <path d="M 483.152665 176.054703 
L 492.390493 176.054703 
L 492.390493 166.816876 
L 483.152665 166.816876 
z
" clip-path="url(#p75e485dc2e)" style="stroke: #000000; stroke-linejoin: miter"/>
   </g>
   <g id="patch_132">
    <path d="M 504.688169 176.014989 
L 513.846567 176.014989 
L 513.846567 166.85659 
L 504.688169 166.85659 
z
" clip-path="url(#p75e485dc2e)" style="stroke: #000000; stroke-linejoin: miter"/>
   </g>
   <g id="patch_133">
    <path d="M 526.17229 176.026658 
L 535.354026 176.026658 
L 535.354026 166.844921 
L 526.17229 166.844921 
z
" clip-path="url(#p75e485dc2e)" style="stroke: #000000; stroke-linejoin: miter"/>
   </g>
   <g id="patch_134">
    <path d="M 547.652265 176.042471 
L 556.865629 176.042471 
L 556.865629 166.829108 
L 547.652265 166.829108 
z
" clip-path="url(#p75e485dc2e)" style="stroke: #000000; stroke-linejoin: miter"/>
   </g>
   <g id="patch_135">
    <path d="M 569.185188 176.005338 
L 578.324285 176.005338 
L 578.324285 166.866241 
L 569.185188 166.866241 
z
" clip-path="url(#p75e485dc2e)" style="stroke: #000000; stroke-linejoin: miter"/>
   </g>
   <g id="patch_136">
    <path d="M 590.732693 175.953623 
L 599.76836 175.953623 
L 599.76836 166.917956 
L 590.732693 166.917956 
z
" clip-path="url(#p75e485dc2e)" style="stroke: #000000; stroke-linejoin: miter"/>
   </g>
   <g id="patch_137">
    <path d="M 612.226411 175.955694 
L 621.26622 175.955694 
L 621.26622 166.915885 
L 612.226411 166.915885 
z
" clip-path="url(#p75e485dc2e)" style="stroke: #000000; stroke-linejoin: miter"/>
   </g>
   <g id="patch_138">
    <path d="M 633.699228 175.978667 
L 642.784983 175.978667 
L 642.784983 166.892912 
L 633.699228 166.892912 
z
" clip-path="url(#p75e485dc2e)" style="stroke: #000000; stroke-linejoin: miter"/>
   </g>
   <g id="patch_139">
    <path d="M 655.23221 175.941474 
L 664.243579 175.941474 
L 664.243579 166.930105 
L 655.23221 166.930105 
z
" clip-path="url(#p75e485dc2e)" style="stroke: #000000; stroke-linejoin: miter"/>
   </g>
   <g id="patch_140">
    <path d="M 676.773389 175.896085 
L 685.69398 175.896085 
L 685.69398 166.975494 
L 676.773389 166.975494 
z
" clip-path="url(#p75e485dc2e)" style="stroke: #000000; stroke-linejoin: miter"/>
   </g>
   <g id="patch_141">
    <path d="M 698.259345 175.905918 
L 707.199602 175.905918 
L 707.199602 166.965661 
L 698.259345 166.965661 
z
" clip-path="url(#p75e485dc2e)" style="stroke: #000000; stroke-linejoin: miter"/>
   </g>
   <g id="patch_142">
    <path d="M 719.796564 175.864489 
L 728.653962 175.864489 
L 728.653962 167.00709 
L 719.796564 167.00709 
z
" clip-path="url(#p75e485dc2e)" style="stroke: #000000; stroke-linejoin: miter"/>
   </g>
   <g id="patch_143">
    <path d="M 741.358231 175.798611 
L 750.083874 175.798611 
L 750.083874 167.072968 
L 741.358231 167.072968 
z
" clip-path="url(#p75e485dc2e)" style="stroke: #000000; stroke-linejoin: miter"/>
   </g>
   <g id="patch_144">
    <path d="M 762.875894 175.776737 
L 771.55779 175.776737 
L 771.55779 167.094842 
L 762.875894 167.094842 
z
" clip-path="url(#p75e485dc2e)" style="stroke: #000000; stroke-linejoin: miter"/>
   </g>
   <g id="patch_145">
    <path d="M 784.4132 175.735221 
L 793.012063 175.735221 
L 793.012063 167.136358 
L 784.4132 167.136358 
z
" clip-path="url(#p75e485dc2e)" style="stroke: #000000; stroke-linejoin: miter"/>
   </g>
   <g id="patch_146">
    <path d="M 805.942701 175.701509 
L 814.474141 175.701509 
L 814.474141 167.17007 
L 805.942701 167.17007 
z
" clip-path="url(#p75e485dc2e)" style="stroke: #000000; stroke-linejoin: miter"/>
   </g>
   <g id="patch_147">
    <path d="M 53.316886 154.478903 
L 62.394693 154.478903 
L 62.394693 145.401097 
L 53.316886 145.401097 
z
" clip-path="url(#p75e485dc2e)" style="stroke: #000000; stroke-linejoin: miter"/>
   </g>
   <g id="patch_148">
    <path d="M 74.567174 154.724405 
L 84.135984 154.724405 
L 84.135984 145.155595 
L 74.567174 145.155595 
z
" clip-path="url(#p75e485dc2e)" style="stroke: #000000; stroke-linejoin: miter"/>
   </g>
   <g id="patch_149">
    <path d="M 95.886781 154.900587 
L 105.807955 154.900587 
L 105.807955 144.979413 
L 95.886781 144.979413 
z
" clip-path="url(#p75e485dc2e)" style="stroke: #000000; stroke-linejoin: miter"/>
   </g>
   <g id="patch_150">
    <path d="M 117.514586 154.768571 
L 127.171729 154.768571 
L 127.171729 145.111429 
L 117.514586 145.111429 
z
" clip-path="url(#p75e485dc2e)" style="stroke: #000000; stroke-linejoin: miter"/>
   </g>
   <g id="patch_151">
    <path d="M 139.302668 154.476279 
L 148.375226 154.476279 
L 148.375226 145.403721 
L 139.302668 145.403721 
z
" clip-path="url(#p75e485dc2e)" style="stroke: #000000; stroke-linejoin: miter"/>
   </g>
   <g id="patch_152">
    <path d="M 161.013631 154.261105 
L 169.655842 154.261105 
L 169.655842 145.618895 
L 161.013631 145.618895 
z
" clip-path="url(#p75e485dc2e)" style="stroke: #000000; stroke-linejoin: miter"/>
   </g>
   <g id="patch_153">
    <path d="M 182.549021 154.221506 
L 191.112032 154.221506 
L 191.112032 145.658494 
L 182.549021 145.658494 
z
" clip-path="url(#p75e485dc2e)" style="stroke: #000000; stroke-linejoin: miter"/>
   </g>
   <g id="patch_154">
    <path d="M 203.929548 154.336767 
L 212.723083 154.336767 
L 212.723083 145.543233 
L 203.929548 145.543233 
z
" clip-path="url(#p75e485dc2e)" style="stroke: #000000; stroke-linejoin: miter"/>
   </g>
   <g id="patch_155">
    <path d="M 225.251657 154.510448 
L 234.392553 154.510448 
L 234.392553 145.369552 
L 225.251657 145.369552 
z
" clip-path="url(#p75e485dc2e)" style="stroke: #000000; stroke-linejoin: miter"/>
   </g>
   <g id="patch_156">
    <path d="M 246.672449 154.585446 
L 255.96334 154.585446 
L 255.96334 145.294554 
L 246.672449 145.294554 
z
" clip-path="url(#p75e485dc2e)" style="stroke: #000000; stroke-linejoin: miter"/>
   </g>
   <g id="patch_157">
    <path d="M 268.206912 154.546773 
L 277.420457 154.546773 
L 277.420457 145.333227 
L 268.206912 145.333227 
z
" clip-path="url(#p75e485dc2e)" style="stroke: #000000; stroke-linejoin: miter"/>
   </g>
   <g id="patch_158">
    <path d="M 289.756746 154.492727 
L 298.862201 154.492727 
L 298.862201 145.387273 
L 289.756746 145.387273 
z
" clip-path="url(#p75e485dc2e)" style="stroke: #000000; stroke-linejoin: miter"/>
   </g>
   <g id="patch_159">
    <path d="M 311.29845 154.446813 
L 320.312076 154.446813 
L 320.312076 145.433187 
L 311.29845 145.433187 
z
" clip-path="url(#p75e485dc2e)" style="stroke: #000000; stroke-linejoin: miter"/>
   </g>
   <g id="patch_160">
    <path d="M 332.856786 154.384267 
L 341.74532 154.384267 
L 341.74532 145.495733 
L 332.856786 145.495733 
z
" clip-path="url(#p75e485dc2e)" style="stroke: #000000; stroke-linejoin: miter"/>
   </g>
   <g id="patch_161">
    <path d="M 354.38355 154.353292 
L 363.210135 154.353292 
L 363.210135 145.526708 
L 354.38355 145.526708 
z
" clip-path="url(#p75e485dc2e)" style="stroke: #000000; stroke-linejoin: miter"/>
   </g>
   <g id="patch_162">
    <path d="M 375.838824 154.393807 
L 384.746439 154.393807 
L 384.746439 145.486193 
L 375.838824 145.486193 
z
" clip-path="url(#p75e485dc2e)" style="stroke: #000000; stroke-linejoin: miter"/>
   </g>
   <g id="patch_163">
    <path d="M 397.26714 154.461281 
L 406.309702 154.461281 
L 406.309702 145.418719 
L 397.26714 145.418719 
z
" clip-path="url(#p75e485dc2e)" style="stroke: #000000; stroke-linejoin: miter"/>
   </g>
   <g id="patch_164">
    <path d="M 418.727681 154.496529 
L 427.84074 154.496529 
L 427.84074 145.383471 
L 418.727681 145.383471 
z
" clip-path="url(#p75e485dc2e)" style="stroke: #000000; stroke-linejoin: miter"/>
   </g>
   <g id="patch_165">
    <path d="M 440.230768 154.489232 
L 449.329232 154.489232 
L 449.329232 145.390768 
L 440.230768 145.390768 
z
" clip-path="url(#p75e485dc2e)" style="stroke: #000000; stroke-linejoin: miter"/>
   </g>
   <g id="patch_166">
    <path d="M 461.754491 154.461298 
L 470.797088 154.461298 
L 470.797088 145.418702 
L 461.754491 145.418702 
z
" clip-path="url(#p75e485dc2e)" style="stroke: #000000; stroke-linejoin: miter"/>
   </g>
   <g id="patch_167">
    <path d="M 483.292861 154.418718 
L 492.250297 154.418718 
L 492.250297 145.461282 
L 483.292861 145.461282 
z
" clip-path="url(#p75e485dc2e)" style="stroke: #000000; stroke-linejoin: miter"/>
   </g>
   <g id="patch_168">
    <path d="M 504.843232 154.364137 
L 513.691505 154.364137 
L 513.691505 145.515863 
L 504.843232 145.515863 
z
" clip-path="url(#p75e485dc2e)" style="stroke: #000000; stroke-linejoin: miter"/>
   </g>
   <g id="patch_169">
    <path d="M 526.374637 154.328521 
L 535.151679 154.328521 
L 535.151679 145.551479 
L 526.374637 145.551479 
z
" clip-path="url(#p75e485dc2e)" style="stroke: #000000; stroke-linejoin: miter"/>
   </g>
   <g id="patch_170">
    <path d="M 547.864351 154.334596 
L 556.653544 154.334596 
L 556.653544 145.545404 
L 547.864351 145.545404 
z
" clip-path="url(#p75e485dc2e)" style="stroke: #000000; stroke-linejoin: miter"/>
   </g>
   <g id="patch_171">
    <path d="M 569.346235 154.348501 
L 578.163238 154.348501 
L 578.163238 145.531499 
L 569.346235 145.531499 
z
" clip-path="url(#p75e485dc2e)" style="stroke: #000000; stroke-linejoin: miter"/>
   </g>
   <g id="patch_172">
    <path d="M 590.867348 154.323179 
L 599.633705 154.323179 
L 599.633705 145.556821 
L 590.867348 145.556821 
z
" clip-path="url(#p75e485dc2e)" style="stroke: #000000; stroke-linejoin: miter"/>
   </g>
   <g id="patch_173">
    <path d="M 612.405463 154.280853 
L 621.087169 154.280853 
L 621.087169 145.599147 
L 612.405463 145.599147 
z
" clip-path="url(#p75e485dc2e)" style="stroke: #000000; stroke-linejoin: miter"/>
   </g>
   <g id="patch_174">
    <path d="M 633.911293 154.270812 
L 642.572917 154.270812 
L 642.572917 145.609188 
L 633.911293 145.609188 
z
" clip-path="url(#p75e485dc2e)" style="stroke: #000000; stroke-linejoin: miter"/>
   </g>
   <g id="patch_175">
    <path d="M 655.408736 154.269159 
L 664.067054 154.269159 
L 664.067054 145.610841 
L 655.408736 145.610841 
z
" clip-path="url(#p75e485dc2e)" style="stroke: #000000; stroke-linejoin: miter"/>
   </g>
   <g id="patch_176">
    <path d="M 676.927344 154.24634 
L 685.540024 154.24634 
L 685.540024 145.63366 
L 676.927344 145.63366 
z
" clip-path="url(#p75e485dc2e)" style="stroke: #000000; stroke-linejoin: miter"/>
   </g>
   <g id="patch_177">
    <path d="M 698.452412 154.217062 
L 707.006535 154.217062 
L 707.006535 145.662938 
L 698.452412 145.662938 
z
" clip-path="url(#p75e485dc2e)" style="stroke: #000000; stroke-linejoin: miter"/>
   </g>
   <g id="patch_178">
    <path d="M 720.004574 154.160689 
L 728.445952 154.160689 
L 728.445952 145.719311 
L 720.004574 145.719311 
z
" clip-path="url(#p75e485dc2e)" style="stroke: #000000; stroke-linejoin: miter"/>
   </g>
   <g id="patch_179">
    <path d="M 741.542239 154.118813 
L 749.899866 154.118813 
L 749.899866 145.761187 
L 741.542239 145.761187 
z
" clip-path="url(#p75e485dc2e)" style="stroke: #000000; stroke-linejoin: miter"/>
   </g>
   <g id="patch_180">
    <path d="M 763.065225 154.091617 
L 771.368459 154.091617 
L 771.368459 145.788383 
L 763.065225 145.788383 
z
" clip-path="url(#p75e485dc2e)" style="stroke: #000000; stroke-linejoin: miter"/>
   </g>
   <g id="patch_181">
    <path d="M 784.617877 154.034755 
L 792.807386 154.034755 
L 792.807386 145.845245 
L 784.617877 145.845245 
z
" clip-path="url(#p75e485dc2e)" style="stroke: #000000; stroke-linejoin: miter"/>
   </g>
   <g id="patch_182">
    <path d="M 806.156534 153.991887 
L 814.260308 153.991887 
L 814.260308 145.888113 
L 806.156534 145.888113 
z
" clip-path="url(#p75e485dc2e)" style="stroke: #000000; stroke-linejoin: miter"/>
   </g>
   <g id="patch_183">
    <path d="M 52.610685 133.689315 
L 63.100894 133.689315 
L 63.100894 123.199106 
L 52.610685 123.199106 
z
" clip-path="url(#p75e485dc2e)" style="stroke: #000000; stroke-linejoin: miter"/>
   </g>
   <g id="patch_184">
    <path d="M 74.943284 132.852506 
L 83.759874 132.852506 
L 83.759874 124.035915 
L 74.943284 124.035915 
z
" clip-path="url(#p75e485dc2e)" style="stroke: #000000; stroke-linejoin: miter"/>
   </g>
   <g id="patch_185">
    <path d="M 96.614829 132.67675 
L 105.079908 132.67675 
L 105.079908 124.211671 
L 96.614829 124.211671 
z
" clip-path="url(#p75e485dc2e)" style="stroke: #000000; stroke-linejoin: miter"/>
   </g>
   <g id="patch_186">
    <path d="M 117.925973 132.861395 
L 126.760343 132.861395 
L 126.760343 124.027026 
L 117.925973 124.027026 
z
" clip-path="url(#p75e485dc2e)" style="stroke: #000000; stroke-linejoin: miter"/>
   </g>
   <g id="patch_187">
    <path d="M 139.154204 133.128954 
L 148.52369 133.128954 
L 148.52369 123.759467 
L 139.154204 123.759467 
z
" clip-path="url(#p75e485dc2e)" style="stroke: #000000; stroke-linejoin: miter"/>
   </g>
   <g id="patch_188">
    <path d="M 160.538906 133.240041 
L 170.130567 133.240041 
L 170.130567 123.64838 
L 160.538906 123.64838 
z
" clip-path="url(#p75e485dc2e)" style="stroke: #000000; stroke-linejoin: miter"/>
   </g>
   <g id="patch_189">
    <path d="M 182.131621 133.143116 
L 191.529432 133.143116 
L 191.529432 123.745305 
L 182.131621 123.745305 
z
" clip-path="url(#p75e485dc2e)" style="stroke: #000000; stroke-linejoin: miter"/>
   </g>
   <g id="patch_190">
    <path d="M 203.811888 132.958638 
L 212.840743 132.958638 
L 212.840743 123.929783 
L 203.811888 123.929783 
z
" clip-path="url(#p75e485dc2e)" style="stroke: #000000; stroke-linejoin: miter"/>
   </g>
   <g id="patch_191">
    <path d="M 225.457935 132.808381 
L 234.186276 132.808381 
L 234.186276 124.08004 
L 225.457935 124.08004 
z
" clip-path="url(#p75e485dc2e)" style="stroke: #000000; stroke-linejoin: miter"/>
   </g>
   <g id="patch_192">
    <path d="M 247.006319 132.755786 
L 255.62947 132.755786 
L 255.62947 124.132635 
L 247.006319 124.132635 
z
" clip-path="url(#p75e485dc2e)" style="stroke: #000000; stroke-linejoin: miter"/>
   </g>
   <g id="patch_193">
    <path d="M 268.438771 132.819124 
L 277.188598 132.819124 
L 277.188598 124.069297 
L 268.438771 124.069297 
z
" clip-path="url(#p75e485dc2e)" style="stroke: #000000; stroke-linejoin: miter"/>
   </g>
   <g id="patch_194">
    <path d="M 289.779351 132.974334 
L 298.839597 132.974334 
L 298.839597 123.914087 
L 289.779351 123.914087 
z
" clip-path="url(#p75e485dc2e)" style="stroke: #000000; stroke-linejoin: miter"/>
   </g>
   <g id="patch_195">
    <path d="M 311.140839 133.108635 
L 320.469688 133.108635 
L 320.469688 123.779786 
L 311.140839 123.779786 
z
" clip-path="url(#p75e485dc2e)" style="stroke: #000000; stroke-linejoin: miter"/>
   </g>
   <g id="patch_196">
    <path d="M 332.661175 133.084088 
L 341.94093 133.084088 
L 341.94093 123.804333 
L 332.661175 123.804333 
z
" clip-path="url(#p75e485dc2e)" style="stroke: #000000; stroke-linejoin: miter"/>
   </g>
   <g id="patch_197">
    <path d="M 354.308651 132.932402 
L 363.285033 132.932402 
L 363.285033 123.956019 
L 354.308651 123.956019 
z
" clip-path="url(#p75e485dc2e)" style="stroke: #000000; stroke-linejoin: miter"/>
   </g>
   <g id="patch_198">
    <path d="M 375.926387 132.810455 
L 384.658876 132.810455 
L 384.658876 124.077966 
L 375.926387 124.077966 
z
" clip-path="url(#p75e485dc2e)" style="stroke: #000000; stroke-linejoin: miter"/>
   </g>
   <g id="patch_199">
    <path d="M 397.430037 132.802595 
L 406.146805 132.802595 
L 406.146805 124.085826 
L 397.430037 124.085826 
z
" clip-path="url(#p75e485dc2e)" style="stroke: #000000; stroke-linejoin: miter"/>
   </g>
   <g id="patch_200">
    <path d="M 418.846136 132.882285 
L 427.722285 132.882285 
L 427.722285 124.006136 
L 418.846136 124.006136 
z
" clip-path="url(#p75e485dc2e)" style="stroke: #000000; stroke-linejoin: miter"/>
   </g>
   <g id="patch_201">
    <path d="M 440.255976 132.968235 
L 449.304024 132.968235 
L 449.304024 123.920186 
L 440.255976 123.920186 
z
" clip-path="url(#p75e485dc2e)" style="stroke: #000000; stroke-linejoin: miter"/>
   </g>
   <g id="patch_202">
    <path d="M 461.722885 132.997115 
L 470.828694 132.997115 
L 470.828694 123.891306 
L 461.722885 123.891306 
z
" clip-path="url(#p75e485dc2e)" style="stroke: #000000; stroke-linejoin: miter"/>
   </g>
   <g id="patch_203">
    <path d="M 483.244748 132.971042 
L 492.29841 132.971042 
L 492.29841 123.917379 
L 483.244748 123.917379 
z
" clip-path="url(#p75e485dc2e)" style="stroke: #000000; stroke-linejoin: miter"/>
   </g>
   <g id="patch_204">
    <path d="M 504.776142 132.935437 
L 513.758595 132.935437 
L 513.758595 123.952984 
L 504.776142 123.952984 
z
" clip-path="url(#p75e485dc2e)" style="stroke: #000000; stroke-linejoin: miter"/>
   </g>
   <g id="patch_205">
    <path d="M 526.295323 132.912046 
L 535.230993 132.912046 
L 535.230993 123.976375 
L 526.295323 123.976375 
z
" clip-path="url(#p75e485dc2e)" style="stroke: #000000; stroke-linejoin: miter"/>
   </g>
   <g id="patch_206">
    <path d="M 547.827049 132.876109 
L 556.690845 132.876109 
L 556.690845 124.012312 
L 547.827049 124.012312 
z
" clip-path="url(#p75e485dc2e)" style="stroke: #000000; stroke-linejoin: miter"/>
   </g>
   <g id="patch_207">
    <path d="M 569.386817 132.81213 
L 578.122656 132.81213 
L 578.122656 124.076291 
L 569.386817 124.076291 
z
" clip-path="url(#p75e485dc2e)" style="stroke: #000000; stroke-linejoin: miter"/>
   </g>
   <g id="patch_208">
    <path d="M 590.920641 132.774096 
L 599.580411 132.774096 
L 599.580411 124.114325 
L 590.920641 124.114325 
z
" clip-path="url(#p75e485dc2e)" style="stroke: #000000; stroke-linejoin: miter"/>
   </g>
   <g id="patch_209">
    <path d="M 612.374389 132.816138 
L 621.118243 132.816138 
L 621.118243 124.072283 
L 612.374389 124.072283 
z
" clip-path="url(#p75e485dc2e)" style="stroke: #000000; stroke-linejoin: miter"/>
   </g>
   <g id="patch_210">
    <path d="M 633.803528 132.882788 
L 642.680683 132.882788 
L 642.680683 124.005633 
L 633.803528 124.005633 
z
" clip-path="url(#p75e485dc2e)" style="stroke: #000000; stroke-linejoin: miter"/>
   </g>
   <g id="patch_211">
    <path d="M 655.326754 132.855352 
L 664.149036 132.855352 
L 664.149036 124.033069 
L 655.326754 124.033069 
z
" clip-path="url(#p75e485dc2e)" style="stroke: #000000; stroke-linejoin: miter"/>
   </g>
   <g id="patch_212">
    <path d="M 676.901614 132.776281 
L 685.565755 132.776281 
L 685.565755 124.11214 
L 676.901614 124.11214 
z
" clip-path="url(#p75e485dc2e)" style="stroke: #000000; stroke-linejoin: miter"/>
   </g>
   <g id="patch_213">
    <path d="M 698.422982 132.750702 
L 707.035965 132.750702 
L 707.035965 124.137719 
L 698.422982 124.137719 
z
" clip-path="url(#p75e485dc2e)" style="stroke: #000000; stroke-linejoin: miter"/>
   </g>
   <g id="patch_214">
    <path d="M 719.968509 132.700964 
L 728.482017 132.700964 
L 728.482017 124.187457 
L 719.968509 124.187457 
z
" clip-path="url(#p75e485dc2e)" style="stroke: #000000; stroke-linejoin: miter"/>
   </g>
   <g id="patch_215">
    <path d="M 741.49784 132.667423 
L 749.944266 132.667423 
L 749.944266 124.220998 
L 741.49784 124.220998 
z
" clip-path="url(#p75e485dc2e)" style="stroke: #000000; stroke-linejoin: miter"/>
   </g>
   <g id="patch_216">
    <path d="M 762.977923 132.683129 
L 771.455761 132.683129 
L 771.455761 124.205292 
L 762.977923 124.205292 
z
" clip-path="url(#p75e485dc2e)" style="stroke: #000000; stroke-linejoin: miter"/>
   </g>
   <g id="patch_217">
    <path d="M 784.518018 132.638824 
L 792.907245 132.638824 
L 792.907245 124.249597 
L 784.518018 124.249597 
z
" clip-path="url(#p75e485dc2e)" style="stroke: #000000; stroke-linejoin: miter"/>
   </g>
   <g id="patch_218">
    <path d="M 806.049374 132.603258 
L 814.367468 132.603258 
L 814.367468 124.285163 
L 806.049374 124.285163 
z
" clip-path="url(#p75e485dc2e)" style="stroke: #000000; stroke-linejoin: miter"/>
   </g>
   <g id="patch_219">
    <path d="M 50.579769 114.224442 
L 65.13181 114.224442 
L 65.13181 99.6724 
L 50.579769 99.6724 
z
" clip-path="url(#p75e485dc2e)" style="stroke: #000000; stroke-linejoin: miter"/>
   </g>
   <g id="patch_220">
    <path d="M 73.435734 112.864266 
L 85.267424 112.864266 
L 85.267424 101.032576 
L 73.435734 101.032576 
z
" clip-path="url(#p75e485dc2e)" style="stroke: #000000; stroke-linejoin: miter"/>
   </g>
   <g id="patch_221">
    <path d="M 96.0651 111.730689 
L 105.629637 111.730689 
L 105.629637 102.166153 
L 96.0651 102.166153 
z
" clip-path="url(#p75e485dc2e)" style="stroke: #000000; stroke-linejoin: miter"/>
   </g>
   <g id="patch_222">
    <path d="M 118.063528 111.228051 
L 126.622788 111.228051 
L 126.622788 102.668791 
L 118.063528 102.668791 
z
" clip-path="url(#p75e485dc2e)" style="stroke: #000000; stroke-linejoin: miter"/>
   </g>
   <g id="patch_223">
    <path d="M 139.690939 111.096429 
L 147.986956 111.096429 
L 147.986956 102.800413 
L 139.690939 102.800413 
z
" clip-path="url(#p75e485dc2e)" style="stroke: #000000; stroke-linejoin: miter"/>
   </g>
   <g id="patch_224">
    <path d="M 161.170125 111.113033 
L 169.499348 111.113033 
L 169.499348 102.78381 
L 161.170125 102.78381 
z
" clip-path="url(#p75e485dc2e)" style="stroke: #000000; stroke-linejoin: miter"/>
   </g>
   <g id="patch_225">
    <path d="M 182.62329 111.155657 
L 191.037762 111.155657 
L 191.037762 102.741185 
L 182.62329 102.741185 
z
" clip-path="url(#p75e485dc2e)" style="stroke: #000000; stroke-linejoin: miter"/>
   </g>
   <g id="patch_226">
    <path d="M 204.073427 111.20131 
L 212.579205 111.20131 
L 212.579205 102.695532 
L 204.073427 102.695532 
z
" clip-path="url(#p75e485dc2e)" style="stroke: #000000; stroke-linejoin: miter"/>
   </g>
   <g id="patch_227">
    <path d="M 225.446017 111.324509 
L 234.198194 111.324509 
L 234.198194 102.572333 
L 225.446017 102.572333 
z
" clip-path="url(#p75e485dc2e)" style="stroke: #000000; stroke-linejoin: miter"/>
   </g>
   <g id="patch_228">
    <path d="M 246.673036 111.59328 
L 255.962754 111.59328 
L 255.962754 102.303562 
L 246.673036 102.303562 
z
" clip-path="url(#p75e485dc2e)" style="stroke: #000000; stroke-linejoin: miter"/>
   </g>
   <g id="patch_229">
    <path d="M 267.875162 111.886944 
L 277.752207 111.886944 
L 277.752207 102.009899 
L 267.875162 102.009899 
z
" clip-path="url(#p75e485dc2e)" style="stroke: #000000; stroke-linejoin: miter"/>
   </g>
   <g id="patch_230">
    <path d="M 289.288371 111.969524 
L 299.330576 111.969524 
L 299.330576 101.927319 
L 289.288371 101.927319 
z
" clip-path="url(#p75e485dc2e)" style="stroke: #000000; stroke-linejoin: miter"/>
   </g>
   <g id="patch_231">
    <path d="M 310.909809 111.843876 
L 320.700718 111.843876 
L 320.700718 102.052967 
L 310.909809 102.052967 
z
" clip-path="url(#p75e485dc2e)" style="stroke: #000000; stroke-linejoin: miter"/>
   </g>
   <g id="patch_232">
    <path d="M 332.580863 111.668611 
L 342.021242 111.668611 
L 342.021242 102.228232 
L 332.580863 102.228232 
z
" clip-path="url(#p75e485dc2e)" style="stroke: #000000; stroke-linejoin: miter"/>
   </g>
   <g id="patch_233">
    <path d="M 354.254573 111.490691 
L 363.339112 111.490691 
L 363.339112 102.406152 
L 354.254573 102.406152 
z
" clip-path="url(#p75e485dc2e)" style="stroke: #000000; stroke-linejoin: miter"/>
   </g>
   <g id="patch_234">
    <path d="M 375.918527 111.322526 
L 384.666736 111.322526 
L 384.666736 102.574317 
L 375.918527 102.574317 
z
" clip-path="url(#p75e485dc2e)" style="stroke: #000000; stroke-linejoin: miter"/>
   </g>
   <g id="patch_235">
    <path d="M 397.507437 111.229405 
L 406.069405 111.229405 
L 406.069405 102.667437 
L 397.507437 102.667437 
z
" clip-path="url(#p75e485dc2e)" style="stroke: #000000; stroke-linejoin: miter"/>
   </g>
   <g id="patch_236">
    <path d="M 418.989576 111.243056 
L 427.578845 111.243056 
L 427.578845 102.653786 
L 418.989576 102.653786 
z
" clip-path="url(#p75e485dc2e)" style="stroke: #000000; stroke-linejoin: miter"/>
   </g>
   <g id="patch_237">
    <path d="M 440.404956 111.323465 
L 449.155044 111.323465 
L 449.155044 102.573377 
L 440.404956 102.573377 
z
" clip-path="url(#p75e485dc2e)" style="stroke: #000000; stroke-linejoin: miter"/>
   </g>
   <g id="patch_238">
    <path d="M 461.820992 111.403219 
L 470.730587 111.403219 
L 470.730587 102.493623 
L 461.820992 102.493623 
z
" clip-path="url(#p75e485dc2e)" style="stroke: #000000; stroke-linejoin: miter"/>
   </g>
   <g id="patch_239">
    <path d="M 483.261223 111.458777 
L 492.281935 111.458777 
L 492.281935 102.438065 
L 483.261223 102.438065 
z
" clip-path="url(#p75e485dc2e)" style="stroke: #000000; stroke-linejoin: miter"/>
   </g>
   <g id="patch_240">
    <path d="M 504.719518 111.496272 
L 513.815219 111.496272 
L 513.815219 102.40057 
L 504.719518 102.40057 
z
" clip-path="url(#p75e485dc2e)" style="stroke: #000000; stroke-linejoin: miter"/>
   </g>
   <g id="patch_241">
    <path d="M 526.219026 111.492553 
L 535.30729 111.492553 
L 535.30729 102.404289 
L 526.219026 102.404289 
z
" clip-path="url(#p75e485dc2e)" style="stroke: #000000; stroke-linejoin: miter"/>
   </g>
   <g id="patch_242">
    <path d="M 547.787864 111.419504 
L 556.730031 111.419504 
L 556.730031 102.477338 
L 547.787864 102.477338 
z
" clip-path="url(#p75e485dc2e)" style="stroke: #000000; stroke-linejoin: miter"/>
   </g>
   <g id="patch_243">
    <path d="M 569.386275 111.316883 
L 578.123199 111.316883 
L 578.123199 102.579959 
L 569.386275 102.579959 
z
" clip-path="url(#p75e485dc2e)" style="stroke: #000000; stroke-linejoin: miter"/>
   </g>
   <g id="patch_244">
    <path d="M 590.945336 111.253611 
L 599.555716 111.253611 
L 599.555716 102.643231 
L 590.945336 102.643231 
z
" clip-path="url(#p75e485dc2e)" style="stroke: #000000; stroke-linejoin: miter"/>
   </g>
   <g id="patch_245">
    <path d="M 612.462432 111.232305 
L 621.0302 111.232305 
L 621.0302 102.664537 
L 612.462432 102.664537 
z
" clip-path="url(#p75e485dc2e)" style="stroke: #000000; stroke-linejoin: miter"/>
   </g>
   <g id="patch_246">
    <path d="M 633.967352 111.223174 
L 642.516858 111.223174 
L 642.516858 102.673668 
L 633.967352 102.673668 
z
" clip-path="url(#p75e485dc2e)" style="stroke: #000000; stroke-linejoin: miter"/>
   </g>
   <g id="patch_247">
    <path d="M 655.453566 111.232749 
L 664.022223 111.232749 
L 664.022223 102.664093 
L 655.453566 102.664093 
z
" clip-path="url(#p75e485dc2e)" style="stroke: #000000; stroke-linejoin: miter"/>
   </g>
   <g id="patch_248">
    <path d="M 676.945928 111.236177 
L 685.52144 111.236177 
L 685.52144 102.660665 
L 676.945928 102.660665 
z
" clip-path="url(#p75e485dc2e)" style="stroke: #000000; stroke-linejoin: miter"/>
   </g>
   <g id="patch_249">
    <path d="M 698.485632 111.192263 
L 706.973315 111.192263 
L 706.973315 102.704579 
L 698.485632 102.704579 
z
" clip-path="url(#p75e485dc2e)" style="stroke: #000000; stroke-linejoin: miter"/>
   </g>
   <g id="patch_250">
    <path d="M 720.021897 111.151787 
L 728.428629 111.151787 
L 728.428629 102.745055 
L 720.021897 102.745055 
z
" clip-path="url(#p75e485dc2e)" style="stroke: #000000; stroke-linejoin: miter"/>
   </g>
   <g id="patch_251">
    <path d="M 741.553419 111.116054 
L 749.888686 111.116054 
L 749.888686 102.780788 
L 741.553419 102.780788 
z
" clip-path="url(#p75e485dc2e)" style="stroke: #000000; stroke-linejoin: miter"/>
   </g>
   <g id="patch_252">
    <path d="M 763.085021 111.080242 
L 771.348663 111.080242 
L 771.348663 102.8166 
L 763.085021 102.8166 
z
" clip-path="url(#p75e485dc2e)" style="stroke: #000000; stroke-linejoin: miter"/>
   </g>
   <g id="patch_253">
    <path d="M 784.618305 111.042748 
L 792.806958 111.042748 
L 792.806958 102.854094 
L 784.618305 102.854094 
z
" clip-path="url(#p75e485dc2e)" style="stroke: #000000; stroke-linejoin: miter"/>
   </g>
   <g id="patch_254">
    <path d="M 806.155558 111.001285 
L 814.261285 111.001285 
L 814.261285 102.895558 
L 806.155558 102.895558 
z
" clip-path="url(#p75e485dc2e)" style="stroke: #000000; stroke-linejoin: miter"/>
   </g>
   <g id="patch_255">
    <path d="M 47.965704 95.342717 
L 67.745875 95.342717 
L 67.745875 75.562546 
L 47.965704 75.562546 
z
" clip-path="url(#p75e485dc2e)" style="stroke: #000000; stroke-linejoin: miter"/>
   </g>
   <g id="patch_256">
    <path d="M 72.420558 92.383653 
L 86.2826 92.383653 
L 86.2826 78.521611 
L 72.420558 78.521611 
z
" clip-path="url(#p75e485dc2e)" style="stroke: #000000; stroke-linejoin: miter"/>
   </g>
   <g id="patch_257">
    <path d="M 96.011744 90.288256 
L 105.682993 90.288256 
L 105.682993 80.617007 
L 96.011744 80.617007 
z
" clip-path="url(#p75e485dc2e)" style="stroke: #000000; stroke-linejoin: miter"/>
   </g>
   <g id="patch_258">
    <path d="M 118.579902 89.215887 
L 126.106414 89.215887 
L 126.106414 81.689376 
L 118.579902 81.689376 
z
" clip-path="url(#p75e485dc2e)" style="stroke: #000000; stroke-linejoin: miter"/>
   </g>
   <g id="patch_259">
    <path d="M 140.447241 88.844337 
L 147.230653 88.844337 
L 147.230653 82.060926 
L 140.447241 82.060926 
z
" clip-path="url(#p75e485dc2e)" style="stroke: #000000; stroke-linejoin: miter"/>
   </g>
   <g id="patch_260">
    <path d="M 161.978272 88.809096 
L 168.691201 88.809096 
L 168.691201 82.096167 
L 161.978272 82.096167 
z
" clip-path="url(#p75e485dc2e)" style="stroke: #000000; stroke-linejoin: miter"/>
   </g>
   <g id="patch_261">
    <path d="M 183.291206 88.991952 
L 190.369847 88.991952 
L 190.369847 81.913311 
L 183.291206 81.913311 
z
" clip-path="url(#p75e485dc2e)" style="stroke: #000000; stroke-linejoin: miter"/>
   </g>
   <g id="patch_262">
    <path d="M 204.370835 89.408113 
L 212.281797 89.408113 
L 212.281797 81.49715 
L 204.370835 81.49715 
z
" clip-path="url(#p75e485dc2e)" style="stroke: #000000; stroke-linejoin: miter"/>
   </g>
   <g id="patch_263">
    <path d="M 225.351294 89.923442 
L 234.292916 89.923442 
L 234.292916 80.981821 
L 225.351294 80.981821 
z
" clip-path="url(#p75e485dc2e)" style="stroke: #000000; stroke-linejoin: miter"/>
   </g>
   <g id="patch_264">
    <path d="M 246.5393 90.231226 
L 256.096489 90.231226 
L 256.096489 80.674037 
L 246.5393 80.674037 
z
" clip-path="url(#p75e485dc2e)" style="stroke: #000000; stroke-linejoin: miter"/>
   </g>
   <g id="patch_265">
    <path d="M 267.982984 90.283332 
L 277.644384 90.283332 
L 277.644384 80.621931 
L 267.982984 80.621931 
z
" clip-path="url(#p75e485dc2e)" style="stroke: #000000; stroke-linejoin: miter"/>
   </g>
   <g id="patch_266">
    <path d="M 289.48877 90.273335 
L 299.130177 90.273335 
L 299.130177 80.631928 
L 289.48877 80.631928 
z
" clip-path="url(#p75e485dc2e)" style="stroke: #000000; stroke-linejoin: miter"/>
   </g>
   <g id="patch_267">
    <path d="M 311.017855 90.24004 
L 320.592672 90.24004 
L 320.592672 80.665223 
L 311.017855 80.665223 
z
" clip-path="url(#p75e485dc2e)" style="stroke: #000000; stroke-linejoin: miter"/>
   </g>
   <g id="patch_268">
    <path d="M 332.645002 90.108682 
L 341.957103 90.108682 
L 341.957103 80.796581 
L 332.645002 80.796581 
z
" clip-path="url(#p75e485dc2e)" style="stroke: #000000; stroke-linejoin: miter"/>
   </g>
   <g id="patch_269">
    <path d="M 354.290778 89.958696 
L 363.302906 89.958696 
L 363.302906 80.946567 
L 354.290778 80.946567 
z
" clip-path="url(#p75e485dc2e)" style="stroke: #000000; stroke-linejoin: miter"/>
   </g>
   <g id="patch_270">
    <path d="M 375.841242 89.904021 
L 384.744021 89.904021 
L 384.744021 81.001242 
L 375.841242 81.001242 
z
" clip-path="url(#p75e485dc2e)" style="stroke: #000000; stroke-linejoin: miter"/>
   </g>
   <g id="patch_271">
    <path d="M 397.316077 89.924975 
L 406.260765 89.924975 
L 406.260765 80.980288 
L 397.316077 80.980288 
z
" clip-path="url(#p75e485dc2e)" style="stroke: #000000; stroke-linejoin: miter"/>
   </g>
   <g id="patch_272">
    <path d="M 418.788792 89.94805 
L 427.779629 89.94805 
L 427.779629 80.957213 
L 418.788792 80.957213 
z
" clip-path="url(#p75e485dc2e)" style="stroke: #000000; stroke-linejoin: miter"/>
   </g>
   <g id="patch_273">
    <path d="M 440.26992 89.962712 
L 449.29008 89.962712 
L 449.29008 80.942552 
L 440.26992 80.942552 
z
" clip-path="url(#p75e485dc2e)" style="stroke: #000000; stroke-linejoin: miter"/>
   </g>
   <g id="patch_274">
    <path d="M 461.752564 89.975857 
L 470.799015 89.975857 
L 470.799015 80.929406 
L 461.752564 80.929406 
z
" clip-path="url(#p75e485dc2e)" style="stroke: #000000; stroke-linejoin: miter"/>
   </g>
   <g id="patch_275">
    <path d="M 483.262686 89.961524 
L 492.280472 89.961524 
L 492.280472 80.943739 
L 483.262686 80.943739 
z
" clip-path="url(#p75e485dc2e)" style="stroke: #000000; stroke-linejoin: miter"/>
   </g>
   <g id="patch_276">
    <path d="M 504.818531 89.901469 
L 513.716206 89.901469 
L 513.716206 81.003794 
L 504.818531 81.003794 
z
" clip-path="url(#p75e485dc2e)" style="stroke: #000000; stroke-linejoin: miter"/>
   </g>
   <g id="patch_277">
    <path d="M 526.389107 89.826683 
L 535.137209 89.826683 
L 535.137209 81.07858 
L 526.389107 81.07858 
z
" clip-path="url(#p75e485dc2e)" style="stroke: #000000; stroke-linejoin: miter"/>
   </g>
   <g id="patch_278">
    <path d="M 547.931598 89.779981 
L 556.586297 89.779981 
L 556.586297 81.125282 
L 547.931598 81.125282 
z
" clip-path="url(#p75e485dc2e)" style="stroke: #000000; stroke-linejoin: miter"/>
   </g>
   <g id="patch_279">
    <path d="M 569.439196 89.768172 
L 578.070278 89.768172 
L 578.070278 81.137091 
L 569.439196 81.137091 
z
" clip-path="url(#p75e485dc2e)" style="stroke: #000000; stroke-linejoin: miter"/>
   </g>
   <g id="patch_280">
    <path d="M 590.92702 89.776137 
L 599.574032 89.776137 
L 599.574032 81.129126 
L 590.92702 81.129126 
z
" clip-path="url(#p75e485dc2e)" style="stroke: #000000; stroke-linejoin: miter"/>
   </g>
   <g id="patch_281">
    <path d="M 612.403015 89.795932 
L 621.089616 89.795932 
L 621.089616 81.109331 
L 612.403015 81.109331 
z
" clip-path="url(#p75e485dc2e)" style="stroke: #000000; stroke-linejoin: miter"/>
   </g>
   <g id="patch_282">
    <path d="M 633.880545 89.814192 
L 642.603665 89.814192 
L 642.603665 81.091071 
L 633.880545 81.091071 
z
" clip-path="url(#p75e485dc2e)" style="stroke: #000000; stroke-linejoin: miter"/>
   </g>
   <g id="patch_283">
    <path d="M 655.387187 89.803339 
L 664.088602 89.803339 
L 664.088602 81.101924 
L 655.387187 81.101924 
z
" clip-path="url(#p75e485dc2e)" style="stroke: #000000; stroke-linejoin: miter"/>
   </g>
   <g id="patch_284">
    <path d="M 676.918406 89.76791 
L 685.548962 89.76791 
L 685.548962 81.137354 
L 676.918406 81.137354 
z
" clip-path="url(#p75e485dc2e)" style="stroke: #000000; stroke-linejoin: miter"/>
   </g>
   <g id="patch_285">
    <path d="M 698.455651 89.726454 
L 707.003297 89.726454 
L 707.003297 81.178809 
L 698.455651 81.178809 
z
" clip-path="url(#p75e485dc2e)" style="stroke: #000000; stroke-linejoin: miter"/>
   </g>
   <g id="patch_286">
    <path d="M 720.009716 89.668179 
L 728.440811 89.668179 
L 728.440811 81.237084 
L 720.009716 81.237084 
z
" clip-path="url(#p75e485dc2e)" style="stroke: #000000; stroke-linejoin: miter"/>
   </g>
   <g id="patch_287">
    <path d="M 741.562626 89.611058 
L 749.879479 89.611058 
L 749.879479 81.294205 
L 741.562626 81.294205 
z
" clip-path="url(#p75e485dc2e)" style="stroke: #000000; stroke-linejoin: miter"/>
   </g>
   <g id="patch_288">
    <path d="M 763.081434 89.58804 
L 771.35225 89.58804 
L 771.35225 81.317223 
L 763.081434 81.317223 
z
" clip-path="url(#p75e485dc2e)" style="stroke: #000000; stroke-linejoin: miter"/>
   </g>
   <g id="patch_289">
    <path d="M 784.568691 89.596572 
L 792.856572 89.596572 
L 792.856572 81.308691 
L 784.568691 81.308691 
z
" clip-path="url(#p75e485dc2e)" style="stroke: #000000; stroke-linejoin: miter"/>
   </g>
   <g id="patch_290">
    <path d="M 806.065731 89.595321 
L 814.351111 89.595321 
L 814.351111 81.309942 
L 806.065731 81.309942 
z
" clip-path="url(#p75e485dc2e)" style="stroke: #000000; stroke-linejoin: miter"/>
   </g>
   <g id="patch_291">
    <path d="M 52.733224 69.079408 
L 62.978355 69.079408 
L 62.978355 58.834276 
L 52.733224 58.834276 
z
" clip-path="url(#p75e485dc2e)" style="stroke: #000000; stroke-linejoin: miter"/>
   </g>
   <g id="patch_292">
    <path d="M 74.698217 68.610204 
L 84.004941 68.610204 
L 84.004941 59.30348 
L 74.698217 59.30348 
z
" clip-path="url(#p75e485dc2e)" style="stroke: #000000; stroke-linejoin: miter"/>
   </g>
   <g id="patch_293">
    <path d="M 96.207778 68.596433 
L 105.486959 68.596433 
L 105.486959 59.317251 
L 96.207778 59.317251 
z
" clip-path="url(#p75e485dc2e)" style="stroke: #000000; stroke-linejoin: miter"/>
   </g>
   <g id="patch_294">
    <path d="M 117.650707 68.649293 
L 127.035609 68.649293 
L 127.035609 59.264391 
L 117.650707 59.264391 
z
" clip-path="url(#p75e485dc2e)" style="stroke: #000000; stroke-linejoin: miter"/>
   </g>
   <g id="patch_295">
    <path d="M 139.243422 68.552368 
L 148.434473 68.552368 
L 148.434473 59.361316 
L 139.243422 59.361316 
z
" clip-path="url(#p75e485dc2e)" style="stroke: #000000; stroke-linejoin: miter"/>
   </g>
   <g id="patch_296">
    <path d="M 160.91286 68.378719 
L 169.756613 68.378719 
L 169.756613 59.534966 
L 160.91286 59.534966 
z
" clip-path="url(#p75e485dc2e)" style="stroke: #000000; stroke-linejoin: miter"/>
   </g>
   <g id="patch_297">
    <path d="M 182.544345 68.243023 
L 191.116707 68.243023 
L 191.116707 59.670661 
L 182.544345 59.670661 
z
" clip-path="url(#p75e485dc2e)" style="stroke: #000000; stroke-linejoin: miter"/>
   </g>
   <g id="patch_298">
    <path d="M 204.108654 68.174504 
L 212.543978 68.174504 
L 212.543978 59.73918 
L 204.108654 59.73918 
z
" clip-path="url(#p75e485dc2e)" style="stroke: #000000; stroke-linejoin: miter"/>
   </g>
   <g id="patch_299">
    <path d="M 225.677418 68.101529 
L 233.966792 68.101529 
L 233.966792 59.812155 
L 225.677418 59.812155 
z
" clip-path="url(#p75e485dc2e)" style="stroke: #000000; stroke-linejoin: miter"/>
   </g>
   <g id="patch_300">
    <path d="M 247.416823 67.857914 
L 255.218967 67.857914 
L 255.218967 60.05577 
L 247.416823 60.05577 
z
" clip-path="url(#p75e485dc2e)" style="stroke: #000000; stroke-linejoin: miter"/>
   </g>
   <g id="patch_301">
    <path d="M 269.173793 67.596733 
L 276.453575 67.596733 
L 276.453575 60.316951 
L 269.173793 60.316951 
z
" clip-path="url(#p75e485dc2e)" style="stroke: #000000; stroke-linejoin: miter"/>
   </g>
   <g id="patch_302">
    <path d="M 290.749698 67.516618 
L 297.86925 67.516618 
L 297.86925 60.397066 
L 290.749698 60.397066 
z
" clip-path="url(#p75e485dc2e)" style="stroke: #000000; stroke-linejoin: miter"/>
   </g>
   <g id="patch_303">
    <path d="M 312.185896 67.576209 
L 319.42463 67.576209 
L 319.42463 60.337475 
L 312.185896 60.337475 
z
" clip-path="url(#p75e485dc2e)" style="stroke: #000000; stroke-linejoin: miter"/>
   </g>
   <g id="patch_304">
    <path d="M 333.725451 67.532444 
L 340.876654 67.532444 
L 340.876654 60.381241 
L 333.725451 60.381241 
z
" clip-path="url(#p75e485dc2e)" style="stroke: #000000; stroke-linejoin: miter"/>
   </g>
   <g id="patch_305">
    <path d="M 355.347254 67.40643 
L 362.24643 67.40643 
L 362.24643 60.507254 
L 355.347254 60.507254 
z
" clip-path="url(#p75e485dc2e)" style="stroke: #000000; stroke-linejoin: miter"/>
   </g>
   <g id="patch_306">
    <path d="M 376.860415 67.389059 
L 383.724849 67.389059 
L 383.724849 60.524625 
L 376.860415 60.524625 
z
" clip-path="url(#p75e485dc2e)" style="stroke: #000000; stroke-linejoin: miter"/>
   </g>
   <g id="patch_307">
    <path d="M 398.31529 67.429973 
L 405.261552 67.429973 
L 405.261552 60.483711 
L 398.31529 60.483711 
z
" clip-path="url(#p75e485dc2e)" style="stroke: #000000; stroke-linejoin: miter"/>
   </g>
   <g id="patch_308">
    <path d="M 419.861989 67.379064 
L 426.706432 67.379064 
L 426.706432 60.53462 
L 419.861989 60.53462 
z
" clip-path="url(#p75e485dc2e)" style="stroke: #000000; stroke-linejoin: miter"/>
   </g>
   <g id="patch_309">
    <path d="M 441.443829 67.293013 
L 448.116171 67.293013 
L 448.116171 60.620671 
L 441.443829 60.620671 
z
" clip-path="url(#p75e485dc2e)" style="stroke: #000000; stroke-linejoin: miter"/>
   </g>
   <g id="patch_310">
    <path d="M 462.946493 67.286138 
L 469.605086 67.286138 
L 469.605086 60.627546 
L 462.946493 60.627546 
z
" clip-path="url(#p75e485dc2e)" style="stroke: #000000; stroke-linejoin: miter"/>
   </g>
   <g id="patch_311">
    <path d="M 484.393298 67.335123 
L 491.14986 67.335123 
L 491.14986 60.578561 
L 484.393298 60.578561 
z
" clip-path="url(#p75e485dc2e)" style="stroke: #000000; stroke-linejoin: miter"/>
   </g>
   <g id="patch_312">
    <path d="M 505.916182 67.308029 
L 512.618555 67.308029 
L 512.618555 60.605655 
L 505.916182 60.605655 
z
" clip-path="url(#p75e485dc2e)" style="stroke: #000000; stroke-linejoin: miter"/>
   </g>
   <g id="patch_313">
    <path d="M 527.499117 67.220883 
L 534.027199 67.220883 
L 534.027199 60.692801 
L 527.499117 60.692801 
z
" clip-path="url(#p75e485dc2e)" style="stroke: #000000; stroke-linejoin: miter"/>
   </g>
   <g id="patch_314">
    <path d="M 549.024799 67.19099 
L 555.493096 67.19099 
L 555.493096 60.722694 
L 549.024799 60.722694 
z
" clip-path="url(#p75e485dc2e)" style="stroke: #000000; stroke-linejoin: miter"/>
   </g>
   <g id="patch_315">
    <path d="M 570.507675 67.203904 
L 577.001799 67.203904 
L 577.001799 60.70978 
L 570.507675 60.70978 
z
" clip-path="url(#p75e485dc2e)" style="stroke: #000000; stroke-linejoin: miter"/>
   </g>
   <g id="patch_316">
    <path d="M 592.037757 67.169611 
L 598.463296 67.169611 
L 598.463296 60.744073 
L 592.037757 60.744073 
z
" clip-path="url(#p75e485dc2e)" style="stroke: #000000; stroke-linejoin: miter"/>
   </g>
   <g id="patch_317">
    <path d="M 613.592277 67.110881 
L 619.900354 67.110881 
L 619.900354 60.802803 
L 613.592277 60.802803 
z
" clip-path="url(#p75e485dc2e)" style="stroke: #000000; stroke-linejoin: miter"/>
   </g>
   <g id="patch_318">
    <path d="M 635.108084 67.090863 
L 641.376126 67.090863 
L 641.376126 60.822821 
L 635.108084 60.822821 
z
" clip-path="url(#p75e485dc2e)" style="stroke: #000000; stroke-linejoin: miter"/>
   </g>
   <g id="patch_319">
    <path d="M 656.631049 67.063688 
L 662.844741 67.063688 
L 662.844741 60.849996 
L 656.631049 60.849996 
z
" clip-path="url(#p75e485dc2e)" style="stroke: #000000; stroke-linejoin: miter"/>
   </g>
   <g id="patch_320">
    <path d="M 678.178456 67.01207 
L 684.288912 67.01207 
L 684.288912 60.901614 
L 678.178456 60.901614 
z
" clip-path="url(#p75e485dc2e)" style="stroke: #000000; stroke-linejoin: miter"/>
   </g>
   <g id="patch_321">
    <path d="M 699.704485 66.981831 
L 705.754463 66.981831 
L 705.754463 60.931853 
L 699.704485 60.931853 
z
" clip-path="url(#p75e485dc2e)" style="stroke: #000000; stroke-linejoin: miter"/>
   </g>
   <g id="patch_322">
    <path d="M 721.248398 66.933707 
L 727.202128 66.933707 
L 727.202128 60.979977 
L 721.248398 60.979977 
z
" clip-path="url(#p75e485dc2e)" style="stroke: #000000; stroke-linejoin: miter"/>
   </g>
   <g id="patch_323">
    <path d="M 742.784932 66.892962 
L 748.657173 66.892962 
L 748.657173 61.020722 
L 742.784932 61.020722 
z
" clip-path="url(#p75e485dc2e)" style="stroke: #000000; stroke-linejoin: miter"/>
   </g>
   <g id="patch_324">
    <path d="M 764.332926 66.840758 
L 770.100758 66.840758 
L 770.100758 61.072926 
L 764.332926 61.072926 
z
" clip-path="url(#p75e485dc2e)" style="stroke: #000000; stroke-linejoin: miter"/>
   </g>
   <g id="patch_325">
    <path d="M 785.895673 66.7738 
L 791.52959 66.7738 
L 791.52959 61.139884 
L 785.895673 61.139884 
z
" clip-path="url(#p75e485dc2e)" style="stroke: #000000; stroke-linejoin: miter"/>
   </g>
   <g id="patch_326">
    <path d="M 807.439986 66.725277 
L 812.976856 66.725277 
L 812.976856 61.188407 
L 807.439986 61.188407 
z
" clip-path="url(#p75e485dc2e)" style="stroke: #000000; stroke-linejoin: miter"/>
   </g>
   <g id="matplotlib.axis_1">
    <g id="xtick_1">
     <g id="line2d_1">
      <defs>
       <path id="mf34755dcff" d="M 0 0 
L 0 3.5 
" style="stroke: #000000; stroke-width: 0.8"/>
      </defs>
      <g>
       <use xlink:href="#mf34755dcff" x="57.855789" y="257.418947" style="stroke: #000000; stroke-width: 0.8"/>
      </g>
     </g>
     <g id="text_1">
      <!-- 1 -->
      <g transform="translate(54.845633 278.57051) scale(0.1 -0.1)">
       <defs>
        <path id="DejaVuSansMono-31" d="M 844 531 
L 1825 531 
L 1825 4097 
L 769 3859 
L 769 4434 
L 1819 4666 
L 2450 4666 
L 2450 531 
L 3419 531 
L 3419 0 
L 844 0 
L 844 531 
z
" transform="scale(0.015625)"/>
       </defs>
       <use xlink:href="#DejaVuSansMono-31"/>
      </g>
     </g>
    </g>
    <g id="xtick_2">
     <g id="line2d_2">
      <g>
       <use xlink:href="#mf34755dcff" x="251.317895" y="257.418947" style="stroke: #000000; stroke-width: 0.8"/>
      </g>
     </g>
     <g id="text_2">
      <!-- 25 -->
      <g transform="translate(245.297582 278.57051) scale(0.1 -0.1)">
       <defs>
        <path id="DejaVuSansMono-32" d="M 1166 531 
L 3309 531 
L 3309 0 
L 475 0 
L 475 531 
Q 1059 1147 1496 1619 
Q 1934 2091 2100 2284 
Q 2413 2666 2522 2902 
Q 2631 3138 2631 3384 
Q 2631 3775 2401 3997 
Q 2172 4219 1772 4219 
Q 1488 4219 1175 4116 
Q 863 4013 513 3803 
L 513 4441 
Q 834 4594 1145 4672 
Q 1456 4750 1759 4750 
Q 2444 4750 2861 4386 
Q 3278 4022 3278 3431 
Q 3278 3131 3139 2831 
Q 3000 2531 2688 2169 
Q 2513 1966 2180 1606 
Q 1847 1247 1166 531 
z
" transform="scale(0.015625)"/>
        <path id="DejaVuSansMono-35" d="M 647 4666 
L 3009 4666 
L 3009 4134 
L 1222 4134 
L 1222 2988 
Q 1356 3038 1492 3061 
Q 1628 3084 1766 3084 
Q 2491 3084 2916 2656 
Q 3341 2228 3341 1497 
Q 3341 759 2895 334 
Q 2450 -91 1678 -91 
Q 1306 -91 998 -41 
Q 691 9 447 109 
L 447 750 
Q 734 594 1025 517 
Q 1316 441 1619 441 
Q 2141 441 2423 716 
Q 2706 991 2706 1497 
Q 2706 1997 2414 2275 
Q 2122 2553 1600 2553 
Q 1347 2553 1106 2495 
Q 866 2438 647 2322 
L 647 4666 
z
" transform="scale(0.015625)"/>
       </defs>
       <use xlink:href="#DejaVuSansMono-32"/>
       <use xlink:href="#DejaVuSansMono-35" x="60.205078"/>
      </g>
     </g>
    </g>
    <g id="xtick_3">
     <g id="line2d_3">
      <g>
       <use xlink:href="#mf34755dcff" x="444.78" y="257.418947" style="stroke: #000000; stroke-width: 0.8"/>
      </g>
     </g>
     <g id="text_3">
      <!-- 50 -->
      <g transform="translate(438.759687 278.57051) scale(0.1 -0.1)">
       <defs>
        <path id="DejaVuSansMono-30" d="M 1509 2344 
Q 1509 2516 1629 2641 
Q 1750 2766 1919 2766 
Q 2094 2766 2219 2641 
Q 2344 2516 2344 2344 
Q 2344 2169 2220 2047 
Q 2097 1925 1919 1925 
Q 1744 1925 1626 2044 
Q 1509 2163 1509 2344 
z
M 1925 4250 
Q 1484 4250 1267 3775 
Q 1050 3300 1050 2328 
Q 1050 1359 1267 884 
Q 1484 409 1925 409 
Q 2369 409 2586 884 
Q 2803 1359 2803 2328 
Q 2803 3300 2586 3775 
Q 2369 4250 1925 4250 
z
M 1925 4750 
Q 2672 4750 3055 4137 
Q 3438 3525 3438 2328 
Q 3438 1134 3055 521 
Q 2672 -91 1925 -91 
Q 1178 -91 797 521 
Q 416 1134 416 2328 
Q 416 3525 797 4137 
Q 1178 4750 1925 4750 
z
" transform="scale(0.015625)"/>
       </defs>
       <use xlink:href="#DejaVuSansMono-35"/>
       <use xlink:href="#DejaVuSansMono-30" x="60.205078"/>
      </g>
     </g>
    </g>
    <g id="xtick_4">
     <g id="line2d_4">
      <g>
       <use xlink:href="#mf34755dcff" x="638.242105" y="257.418947" style="stroke: #000000; stroke-width: 0.8"/>
      </g>
     </g>
     <g id="text_4">
      <!-- 75 -->
      <g transform="translate(632.221793 278.57051) scale(0.1 -0.1)">
       <defs>
        <path id="DejaVuSansMono-37" d="M 434 4666 
L 3372 4666 
L 3372 4397 
L 1703 0 
L 1044 0 
L 2669 4134 
L 434 4134 
L 434 4666 
z
" transform="scale(0.015625)"/>
       </defs>
       <use xlink:href="#DejaVuSansMono-37"/>
       <use xlink:href="#DejaVuSansMono-35" x="60.205078"/>
      </g>
     </g>
    </g>
    <g id="xtick_5">
     <g id="line2d_5">
      <g>
       <use xlink:href="#mf34755dcff" x="810.208421" y="257.418947" style="stroke: #000000; stroke-width: 0.8"/>
      </g>
     </g>
     <g id="text_5">
      <!-- 100 -->
      <g transform="translate(801.177952 278.57051) scale(0.1 -0.1)">
       <use xlink:href="#DejaVuSansMono-31"/>
       <use xlink:href="#DejaVuSansMono-30" x="60.205078"/>
       <use xlink:href="#DejaVuSansMono-30" x="120.410156"/>
      </g>
     </g>
    </g>
   </g>
   <g id="matplotlib.axis_2">
    <g id="ytick_1">
     <g id="line2d_6">
      <defs>
       <path id="m23bb46121c" d="M 0 0 
L -3.5 0 
" style="stroke: #000000; stroke-width: 0.8"/>
      </defs>
      <g>
       <use xlink:href="#m23bb46121c" x="36.36" y="235.923158" style="stroke: #000000; stroke-width: 0.8"/>
      </g>
     </g>
     <g id="text_6">
      <!-- 2 -->
      <g transform="translate(16.839687 239.748939) scale(0.1 -0.1)">
       <use xlink:href="#DejaVuSansMono-32"/>
      </g>
     </g>
    </g>
    <g id="ytick_2">
     <g id="line2d_7">
      <g>
       <use xlink:href="#m23bb46121c" x="36.36" y="214.427368" style="stroke: #000000; stroke-width: 0.8"/>
      </g>
     </g>
     <g id="text_7">
      <!-- 3 -->
      <g transform="translate(16.839687 218.25315) scale(0.1 -0.1)">
       <defs>
        <path id="DejaVuSansMono-33" d="M 2425 2497 
Q 2884 2375 3128 2064 
Q 3372 1753 3372 1288 
Q 3372 644 2939 276 
Q 2506 -91 1741 -91 
Q 1419 -91 1084 -31 
Q 750 28 428 141 
L 428 769 
Q 747 603 1056 522 
Q 1366 441 1672 441 
Q 2191 441 2469 675 
Q 2747 909 2747 1350 
Q 2747 1756 2469 1995 
Q 2191 2234 1716 2234 
L 1234 2234 
L 1234 2753 
L 1716 2753 
Q 2150 2753 2394 2943 
Q 2638 3134 2638 3475 
Q 2638 3834 2411 4026 
Q 2184 4219 1766 4219 
Q 1488 4219 1191 4156 
Q 894 4094 569 3969 
L 569 4550 
Q 947 4650 1242 4700 
Q 1538 4750 1766 4750 
Q 2447 4750 2855 4408 
Q 3263 4066 3263 3500 
Q 3263 3116 3048 2859 
Q 2834 2603 2425 2497 
z
" transform="scale(0.015625)"/>
       </defs>
       <use xlink:href="#DejaVuSansMono-33"/>
      </g>
     </g>
    </g>
    <g id="ytick_3">
     <g id="line2d_8">
      <g>
       <use xlink:href="#m23bb46121c" x="36.36" y="192.931579" style="stroke: #000000; stroke-width: 0.8"/>
      </g>
     </g>
     <g id="text_8">
      <!-- 5 -->
      <g transform="translate(16.839687 196.75736) scale(0.1 -0.1)">
       <use xlink:href="#DejaVuSansMono-35"/>
      </g>
     </g>
    </g>
    <g id="ytick_4">
     <g id="line2d_9">
      <g>
       <use xlink:href="#m23bb46121c" x="36.36" y="171.435789" style="stroke: #000000; stroke-width: 0.8"/>
      </g>
     </g>
     <g id="text_9">
      <!-- 7 -->
      <g transform="translate(16.839687 175.261571) scale(0.1 -0.1)">
       <use xlink:href="#DejaVuSansMono-37"/>
      </g>
     </g>
    </g>
    <g id="ytick_5">
     <g id="line2d_10">
      <g>
       <use xlink:href="#m23bb46121c" x="36.36" y="149.94" style="stroke: #000000; stroke-width: 0.8"/>
      </g>
     </g>
     <g id="text_10">
      <!-- 11 -->
      <g transform="translate(10.819375 153.765781) scale(0.1 -0.1)">
       <use xlink:href="#DejaVuSansMono-31"/>
       <use xlink:href="#DejaVuSansMono-31" x="60.205078"/>
      </g>
     </g>
    </g>
    <g id="ytick_6">
     <g id="line2d_11">
      <g>
       <use xlink:href="#m23bb46121c" x="36.36" y="128.444211" style="stroke: #000000; stroke-width: 0.8"/>
      </g>
     </g>
     <g id="text_11">
      <!-- 13 -->
      <g transform="translate(10.819375 132.269992) scale(0.1 -0.1)">
       <use xlink:href="#DejaVuSansMono-31"/>
       <use xlink:href="#DejaVuSansMono-33" x="60.205078"/>
      </g>
     </g>
    </g>
    <g id="ytick_7">
     <g id="line2d_12">
      <g>
       <use xlink:href="#m23bb46121c" x="36.36" y="106.948421" style="stroke: #000000; stroke-width: 0.8"/>
      </g>
     </g>
     <g id="text_12">
      <!-- 17 -->
      <g transform="translate(10.819375 110.774202) scale(0.1 -0.1)">
       <use xlink:href="#DejaVuSansMono-31"/>
       <use xlink:href="#DejaVuSansMono-37" x="60.205078"/>
      </g>
     </g>
    </g>
    <g id="ytick_8">
     <g id="line2d_13">
      <g>
       <use xlink:href="#m23bb46121c" x="36.36" y="85.452632" style="stroke: #000000; stroke-width: 0.8"/>
      </g>
     </g>
     <g id="text_13">
      <!-- 19 -->
      <g transform="translate(10.819375 89.278413) scale(0.1 -0.1)">
       <defs>
        <path id="DejaVuSansMono-39" d="M 1863 2069 
Q 2266 2069 2495 2359 
Q 2725 2650 2725 3163 
Q 2725 3675 2495 3965 
Q 2266 4256 1863 4256 
Q 1444 4256 1231 3979 
Q 1019 3703 1019 3163 
Q 1019 2619 1230 2344 
Q 1441 2069 1863 2069 
z
M 738 97 
L 738 678 
Q 934 563 1156 502 
Q 1378 441 1619 441 
Q 2219 441 2526 892 
Q 2834 1344 2834 2222 
Q 2688 1909 2422 1742 
Q 2156 1575 1813 1575 
Q 1138 1575 767 1990 
Q 397 2406 397 3169 
Q 397 3922 776 4336 
Q 1156 4750 1850 4750 
Q 2663 4750 3041 4165 
Q 3419 3581 3419 2328 
Q 3419 1150 2964 529 
Q 2509 -91 1644 -91 
Q 1416 -91 1184 -42 
Q 953 6 738 97 
z
" transform="scale(0.015625)"/>
       </defs>
       <use xlink:href="#DejaVuSansMono-31"/>
       <use xlink:href="#DejaVuSansMono-39" x="60.205078"/>
      </g>
     </g>
    </g>
    <g id="ytick_9">
     <g id="line2d_14">
      <g>
       <use xlink:href="#m23bb46121c" x="36.36" y="63.956842" style="stroke: #000000; stroke-width: 0.8"/>
      </g>
     </g>
     <g id="text_14">
      <!--  -->
      <g transform="translate(16.839687 67.782623) scale(0.1 -0.1)">
       <defs>
        <path id="DejaVuSansMono-2119" d="M 506 4353 
L 506 313 
L 1106 313 
L 1106 4353 
L 506 4353 
z
M 1406 4353 
L 1406 2284 
L 2306 2284 
Q 2378 2284 2447 2291 
L 2447 4347 
Q 2378 4353 2306 4353 
L 1406 4353 
z
M 206 4666 
L 2166 4666 
Q 2913 4666 3297 4323 
Q 3681 3981 3681 3322 
Q 3681 2656 3297 2315 
Q 2913 1975 2163 1975 
L 1406 1975 
L 1406 0 
L 206 0 
L 206 4666 
z
M 2759 4281 
L 2759 2359 
Q 2941 2428 3075 2556 
Q 3353 2825 3353 3322 
Q 3353 3816 3078 4084 
Q 2947 4213 2759 4281 
z
" transform="scale(0.015625)"/>
       </defs>
       <use xlink:href="#DejaVuSansMono-2119"/>
      </g>
     </g>
    </g>
   </g>
   <g id="text_15">
    <!-- base : 12   |   emb : 64   |   heads : 4   |   depth : 3   |   lr : 0.0003   |   l2 : 0.0   |   dropout : 0.0 -->
    <g transform="translate(116.672969 40.311474) scale(0.1 -0.1)">
     <defs>
      <path id="DejaVuSansMono-62" d="M 2869 1747 
Q 2869 2416 2656 2756 
Q 2444 3097 2028 3097 
Q 1609 3097 1393 2755 
Q 1178 2413 1178 1747 
Q 1178 1084 1393 740 
Q 1609 397 2028 397 
Q 2444 397 2656 737 
Q 2869 1078 2869 1747 
z
M 1178 3053 
Q 1316 3309 1558 3446 
Q 1800 3584 2119 3584 
Q 2750 3584 3112 3098 
Q 3475 2613 3475 1759 
Q 3475 894 3111 401 
Q 2747 -91 2113 -91 
Q 1800 -91 1561 45 
Q 1322 181 1178 441 
L 1178 0 
L 603 0 
L 603 4863 
L 1178 4863 
L 1178 3053 
z
" transform="scale(0.015625)"/>
      <path id="DejaVuSansMono-61" d="M 2194 1759 
L 2003 1759 
Q 1500 1759 1245 1582 
Q 991 1406 991 1056 
Q 991 741 1181 566 
Q 1372 391 1709 391 
Q 2184 391 2456 720 
Q 2728 1050 2731 1631 
L 2731 1759 
L 2194 1759 
z
M 3309 1997 
L 3309 0 
L 2731 0 
L 2731 519 
Q 2547 206 2267 57 
Q 1988 -91 1588 -91 
Q 1053 -91 734 211 
Q 416 513 416 1019 
Q 416 1603 808 1906 
Q 1200 2209 1959 2209 
L 2731 2209 
L 2731 2300 
Q 2728 2719 2518 2908 
Q 2309 3097 1850 3097 
Q 1556 3097 1256 3012 
Q 956 2928 672 2766 
L 672 3341 
Q 991 3463 1283 3523 
Q 1575 3584 1850 3584 
Q 2284 3584 2592 3456 
Q 2900 3328 3091 3072 
Q 3209 2916 3259 2686 
Q 3309 2456 3309 1997 
z
" transform="scale(0.015625)"/>
      <path id="DejaVuSansMono-73" d="M 3041 3378 
L 3041 2816 
Q 2794 2959 2544 3031 
Q 2294 3103 2034 3103 
Q 1644 3103 1451 2976 
Q 1259 2850 1259 2591 
Q 1259 2356 1403 2240 
Q 1547 2125 2119 2016 
L 2350 1972 
Q 2778 1891 2998 1647 
Q 3219 1403 3219 1013 
Q 3219 494 2850 201 
Q 2481 -91 1825 -91 
Q 1566 -91 1281 -36 
Q 997 19 666 128 
L 666 722 
Q 988 556 1281 473 
Q 1575 391 1838 391 
Q 2219 391 2428 545 
Q 2638 700 2638 978 
Q 2638 1378 1872 1531 
L 1847 1538 
L 1631 1581 
Q 1134 1678 906 1908 
Q 678 2138 678 2534 
Q 678 3038 1018 3311 
Q 1359 3584 1991 3584 
Q 2272 3584 2531 3532 
Q 2791 3481 3041 3378 
z
" transform="scale(0.015625)"/>
      <path id="DejaVuSansMono-65" d="M 3475 1894 
L 3475 1613 
L 984 1613 
L 984 1594 
Q 984 1022 1282 709 
Q 1581 397 2125 397 
Q 2400 397 2700 484 
Q 3000 572 3341 750 
L 3341 178 
Q 3013 44 2708 -23 
Q 2403 -91 2119 -91 
Q 1303 -91 843 398 
Q 384 888 384 1747 
Q 384 2584 834 3084 
Q 1284 3584 2034 3584 
Q 2703 3584 3089 3131 
Q 3475 2678 3475 1894 
z
M 2900 2063 
Q 2888 2569 2661 2833 
Q 2434 3097 2009 3097 
Q 1594 3097 1325 2822 
Q 1056 2547 1006 2059 
L 2900 2063 
z
" transform="scale(0.015625)"/>
      <path id="DejaVuSansMono-20" transform="scale(0.015625)"/>
      <path id="DejaVuSansMono-3a" d="M 1528 3322 
L 2316 3322 
L 2316 2375 
L 1528 2375 
L 1528 3322 
z
M 1528 953 
L 2316 953 
L 2316 0 
L 1528 0 
L 1528 953 
z
" transform="scale(0.015625)"/>
      <path id="DejaVuSansMono-7c" d="M 2194 4891 
L 2194 -1509 
L 1656 -1509 
L 1656 4891 
L 2194 4891 
z
" transform="scale(0.015625)"/>
      <path id="DejaVuSansMono-6d" d="M 2113 3144 
Q 2219 3369 2383 3476 
Q 2547 3584 2778 3584 
Q 3200 3584 3373 3257 
Q 3547 2931 3547 2028 
L 3547 0 
L 3022 0 
L 3022 2003 
Q 3022 2744 2939 2923 
Q 2856 3103 2638 3103 
Q 2388 3103 2295 2911 
Q 2203 2719 2203 2003 
L 2203 0 
L 1678 0 
L 1678 2003 
Q 1678 2753 1589 2928 
Q 1500 3103 1269 3103 
Q 1041 3103 952 2911 
Q 863 2719 863 2003 
L 863 0 
L 341 0 
L 341 3500 
L 863 3500 
L 863 3200 
Q 966 3388 1120 3486 
Q 1275 3584 1472 3584 
Q 1709 3584 1867 3475 
Q 2025 3366 2113 3144 
z
" transform="scale(0.015625)"/>
      <path id="DejaVuSansMono-36" d="M 3097 4563 
L 3097 3981 
Q 2900 4097 2678 4158 
Q 2456 4219 2216 4219 
Q 1616 4219 1306 3767 
Q 997 3316 997 2438 
Q 1147 2750 1412 2917 
Q 1678 3084 2022 3084 
Q 2697 3084 3067 2670 
Q 3438 2256 3438 1497 
Q 3438 741 3056 325 
Q 2675 -91 1984 -91 
Q 1172 -91 794 492 
Q 416 1075 416 2328 
Q 416 3509 870 4129 
Q 1325 4750 2188 4750 
Q 2419 4750 2650 4701 
Q 2881 4653 3097 4563 
z
M 1972 2591 
Q 1569 2591 1337 2300 
Q 1106 2009 1106 1497 
Q 1106 984 1337 693 
Q 1569 403 1972 403 
Q 2391 403 2603 679 
Q 2816 956 2816 1497 
Q 2816 2041 2603 2316 
Q 2391 2591 1972 2591 
z
" transform="scale(0.015625)"/>
      <path id="DejaVuSansMono-34" d="M 2297 4091 
L 825 1625 
L 2297 1625 
L 2297 4091 
z
M 2194 4666 
L 2925 4666 
L 2925 1625 
L 3547 1625 
L 3547 1113 
L 2925 1113 
L 2925 0 
L 2297 0 
L 2297 1113 
L 319 1113 
L 319 1709 
L 2194 4666 
z
" transform="scale(0.015625)"/>
      <path id="DejaVuSansMono-68" d="M 3284 2169 
L 3284 0 
L 2706 0 
L 2706 2169 
Q 2706 2641 2540 2862 
Q 2375 3084 2022 3084 
Q 1619 3084 1401 2798 
Q 1184 2513 1184 1978 
L 1184 0 
L 609 0 
L 609 4863 
L 1184 4863 
L 1184 2975 
Q 1338 3275 1600 3429 
Q 1863 3584 2222 3584 
Q 2756 3584 3020 3232 
Q 3284 2881 3284 2169 
z
" transform="scale(0.015625)"/>
      <path id="DejaVuSansMono-64" d="M 2681 3053 
L 2681 4863 
L 3256 4863 
L 3256 0 
L 2681 0 
L 2681 441 
Q 2538 181 2298 45 
Q 2059 -91 1747 -91 
Q 1113 -91 748 401 
Q 384 894 384 1759 
Q 384 2613 750 3098 
Q 1116 3584 1747 3584 
Q 2063 3584 2303 3448 
Q 2544 3313 2681 3053 
z
M 991 1747 
Q 991 1078 1203 737 
Q 1416 397 1831 397 
Q 2247 397 2464 740 
Q 2681 1084 2681 1747 
Q 2681 2413 2464 2755 
Q 2247 3097 1831 3097 
Q 1416 3097 1203 2756 
Q 991 2416 991 1747 
z
" transform="scale(0.015625)"/>
      <path id="DejaVuSansMono-70" d="M 1172 441 
L 1172 -1331 
L 594 -1331 
L 594 3500 
L 1172 3500 
L 1172 3053 
Q 1316 3313 1555 3448 
Q 1794 3584 2106 3584 
Q 2741 3584 3102 3093 
Q 3463 2603 3463 1734 
Q 3463 881 3100 395 
Q 2738 -91 2106 -91 
Q 1788 -91 1548 45 
Q 1309 181 1172 441 
z
M 2859 1747 
Q 2859 2416 2648 2756 
Q 2438 3097 2022 3097 
Q 1603 3097 1387 2755 
Q 1172 2413 1172 1747 
Q 1172 1084 1387 740 
Q 1603 397 2022 397 
Q 2438 397 2648 737 
Q 2859 1078 2859 1747 
z
" transform="scale(0.015625)"/>
      <path id="DejaVuSansMono-74" d="M 1919 4494 
L 1919 3500 
L 3225 3500 
L 3225 3053 
L 1919 3053 
L 1919 1153 
Q 1919 766 2066 612 
Q 2213 459 2578 459 
L 3225 459 
L 3225 0 
L 2522 0 
Q 1875 0 1609 259 
Q 1344 519 1344 1153 
L 1344 3053 
L 409 3053 
L 409 3500 
L 1344 3500 
L 1344 4494 
L 1919 4494 
z
" transform="scale(0.015625)"/>
      <path id="DejaVuSansMono-6c" d="M 1997 1269 
Q 1997 881 2139 684 
Q 2281 488 2559 488 
L 3231 488 
L 3231 0 
L 2503 0 
Q 1988 0 1705 331 
Q 1422 663 1422 1269 
L 1422 4447 
L 500 4447 
L 500 4897 
L 1997 4897 
L 1997 1269 
z
" transform="scale(0.015625)"/>
      <path id="DejaVuSansMono-72" d="M 3609 2778 
Q 3425 2922 3234 2987 
Q 3044 3053 2816 3053 
Q 2278 3053 1993 2715 
Q 1709 2378 1709 1741 
L 1709 0 
L 1131 0 
L 1131 3500 
L 1709 3500 
L 1709 2816 
Q 1853 3188 2151 3386 
Q 2450 3584 2859 3584 
Q 3072 3584 3256 3531 
Q 3441 3478 3609 3366 
L 3609 2778 
z
" transform="scale(0.015625)"/>
      <path id="DejaVuSansMono-2e" d="M 1528 953 
L 2316 953 
L 2316 0 
L 1528 0 
L 1528 953 
z
" transform="scale(0.015625)"/>
      <path id="DejaVuSansMono-6f" d="M 1925 3097 
Q 1488 3097 1263 2756 
Q 1038 2416 1038 1747 
Q 1038 1081 1263 739 
Q 1488 397 1925 397 
Q 2366 397 2591 739 
Q 2816 1081 2816 1747 
Q 2816 2416 2591 2756 
Q 2366 3097 1925 3097 
z
M 1925 3584 
Q 2653 3584 3039 3112 
Q 3425 2641 3425 1747 
Q 3425 850 3040 379 
Q 2656 -91 1925 -91 
Q 1197 -91 812 379 
Q 428 850 428 1747 
Q 428 2641 812 3112 
Q 1197 3584 1925 3584 
z
" transform="scale(0.015625)"/>
      <path id="DejaVuSansMono-75" d="M 609 1325 
L 609 3494 
L 1184 3494 
L 1184 1325 
Q 1184 853 1351 631 
Q 1519 409 1869 409 
Q 2275 409 2490 695 
Q 2706 981 2706 1516 
L 2706 3494 
L 3284 3494 
L 3284 0 
L 2706 0 
L 2706 525 
Q 2553 222 2289 65 
Q 2025 -91 1672 -91 
Q 1134 -91 871 261 
Q 609 613 609 1325 
z
" transform="scale(0.015625)"/>
     </defs>
     <use xlink:href="#DejaVuSansMono-62"/>
     <use xlink:href="#DejaVuSansMono-61" x="60.205078"/>
     <use xlink:href="#DejaVuSansMono-73" x="120.410156"/>
     <use xlink:href="#DejaVuSansMono-65" x="180.615234"/>
     <use xlink:href="#DejaVuSansMono-20" x="240.820312"/>
     <use xlink:href="#DejaVuSansMono-3a" x="301.025391"/>
     <use xlink:href="#DejaVuSansMono-20" x="361.230469"/>
     <use xlink:href="#DejaVuSansMono-31" x="421.435547"/>
     <use xlink:href="#DejaVuSansMono-32" x="481.640625"/>
     <use xlink:href="#DejaVuSansMono-20" x="541.845703"/>
     <use xlink:href="#DejaVuSansMono-20" x="602.050781"/>
     <use xlink:href="#DejaVuSansMono-20" x="662.255859"/>
     <use xlink:href="#DejaVuSansMono-7c" x="722.460938"/>
     <use xlink:href="#DejaVuSansMono-20" x="782.666016"/>
     <use xlink:href="#DejaVuSansMono-20" x="842.871094"/>
     <use xlink:href="#DejaVuSansMono-20" x="903.076172"/>
     <use xlink:href="#DejaVuSansMono-65" x="963.28125"/>
     <use xlink:href="#DejaVuSansMono-6d" x="1023.486328"/>
     <use xlink:href="#DejaVuSansMono-62" x="1083.691406"/>
     <use xlink:href="#DejaVuSansMono-20" x="1143.896484"/>
     <use xlink:href="#DejaVuSansMono-3a" x="1204.101562"/>
     <use xlink:href="#DejaVuSansMono-20" x="1264.306641"/>
     <use xlink:href="#DejaVuSansMono-36" x="1324.511719"/>
     <use xlink:href="#DejaVuSansMono-34" x="1384.716797"/>
     <use xlink:href="#DejaVuSansMono-20" x="1444.921875"/>
     <use xlink:href="#DejaVuSansMono-20" x="1505.126953"/>
     <use xlink:href="#DejaVuSansMono-20" x="1565.332031"/>
     <use xlink:href="#DejaVuSansMono-7c" x="1625.537109"/>
     <use xlink:href="#DejaVuSansMono-20" x="1685.742188"/>
     <use xlink:href="#DejaVuSansMono-20" x="1745.947266"/>
     <use xlink:href="#DejaVuSansMono-20" x="1806.152344"/>
     <use xlink:href="#DejaVuSansMono-68" x="1866.357422"/>
     <use xlink:href="#DejaVuSansMono-65" x="1926.5625"/>
     <use xlink:href="#DejaVuSansMono-61" x="1986.767578"/>
     <use xlink:href="#DejaVuSansMono-64" x="2046.972656"/>
     <use xlink:href="#DejaVuSansMono-73" x="2107.177734"/>
     <use xlink:href="#DejaVuSansMono-20" x="2167.382812"/>
     <use xlink:href="#DejaVuSansMono-3a" x="2227.587891"/>
     <use xlink:href="#DejaVuSansMono-20" x="2287.792969"/>
     <use xlink:href="#DejaVuSansMono-34" x="2347.998047"/>
     <use xlink:href="#DejaVuSansMono-20" x="2408.203125"/>
     <use xlink:href="#DejaVuSansMono-20" x="2468.408203"/>
     <use xlink:href="#DejaVuSansMono-20" x="2528.613281"/>
     <use xlink:href="#DejaVuSansMono-7c" x="2588.818359"/>
     <use xlink:href="#DejaVuSansMono-20" x="2649.023438"/>
     <use xlink:href="#DejaVuSansMono-20" x="2709.228516"/>
     <use xlink:href="#DejaVuSansMono-20" x="2769.433594"/>
     <use xlink:href="#DejaVuSansMono-64" x="2829.638672"/>
     <use xlink:href="#DejaVuSansMono-65" x="2889.84375"/>
     <use xlink:href="#DejaVuSansMono-70" x="2950.048828"/>
     <use xlink:href="#DejaVuSansMono-74" x="3010.253906"/>
     <use xlink:href="#DejaVuSansMono-68" x="3070.458984"/>
     <use xlink:href="#DejaVuSansMono-20" x="3130.664062"/>
     <use xlink:href="#DejaVuSansMono-3a" x="3190.869141"/>
     <use xlink:href="#DejaVuSansMono-20" x="3251.074219"/>
     <use xlink:href="#DejaVuSansMono-33" x="3311.279297"/>
     <use xlink:href="#DejaVuSansMono-20" x="3371.484375"/>
     <use xlink:href="#DejaVuSansMono-20" x="3431.689453"/>
     <use xlink:href="#DejaVuSansMono-20" x="3491.894531"/>
     <use xlink:href="#DejaVuSansMono-7c" x="3552.099609"/>
     <use xlink:href="#DejaVuSansMono-20" x="3612.304688"/>
     <use xlink:href="#DejaVuSansMono-20" x="3672.509766"/>
     <use xlink:href="#DejaVuSansMono-20" x="3732.714844"/>
     <use xlink:href="#DejaVuSansMono-6c" x="3792.919922"/>
     <use xlink:href="#DejaVuSansMono-72" x="3853.125"/>
     <use xlink:href="#DejaVuSansMono-20" x="3913.330078"/>
     <use xlink:href="#DejaVuSansMono-3a" x="3973.535156"/>
     <use xlink:href="#DejaVuSansMono-20" x="4033.740234"/>
     <use xlink:href="#DejaVuSansMono-30" x="4093.945312"/>
     <use xlink:href="#DejaVuSansMono-2e" x="4154.150391"/>
     <use xlink:href="#DejaVuSansMono-30" x="4214.355469"/>
     <use xlink:href="#DejaVuSansMono-30" x="4274.560547"/>
     <use xlink:href="#DejaVuSansMono-30" x="4334.765625"/>
     <use xlink:href="#DejaVuSansMono-33" x="4394.970703"/>
     <use xlink:href="#DejaVuSansMono-20" x="4455.175781"/>
     <use xlink:href="#DejaVuSansMono-20" x="4515.380859"/>
     <use xlink:href="#DejaVuSansMono-20" x="4575.585938"/>
     <use xlink:href="#DejaVuSansMono-7c" x="4635.791016"/>
     <use xlink:href="#DejaVuSansMono-20" x="4695.996094"/>
     <use xlink:href="#DejaVuSansMono-20" x="4756.201172"/>
     <use xlink:href="#DejaVuSansMono-20" x="4816.40625"/>
     <use xlink:href="#DejaVuSansMono-6c" x="4876.611328"/>
     <use xlink:href="#DejaVuSansMono-32" x="4936.816406"/>
     <use xlink:href="#DejaVuSansMono-20" x="4997.021484"/>
     <use xlink:href="#DejaVuSansMono-3a" x="5057.226562"/>
     <use xlink:href="#DejaVuSansMono-20" x="5117.431641"/>
     <use xlink:href="#DejaVuSansMono-30" x="5177.636719"/>
     <use xlink:href="#DejaVuSansMono-2e" x="5237.841797"/>
     <use xlink:href="#DejaVuSansMono-30" x="5298.046875"/>
     <use xlink:href="#DejaVuSansMono-20" x="5358.251953"/>
     <use xlink:href="#DejaVuSansMono-20" x="5418.457031"/>
     <use xlink:href="#DejaVuSansMono-20" x="5478.662109"/>
     <use xlink:href="#DejaVuSansMono-7c" x="5538.867188"/>
     <use xlink:href="#DejaVuSansMono-20" x="5599.072266"/>
     <use xlink:href="#DejaVuSansMono-20" x="5659.277344"/>
     <use xlink:href="#DejaVuSansMono-20" x="5719.482422"/>
     <use xlink:href="#DejaVuSansMono-64" x="5779.6875"/>
     <use xlink:href="#DejaVuSansMono-72" x="5839.892578"/>
     <use xlink:href="#DejaVuSansMono-6f" x="5900.097656"/>
     <use xlink:href="#DejaVuSansMono-70" x="5960.302734"/>
     <use xlink:href="#DejaVuSansMono-6f" x="6020.507812"/>
     <use xlink:href="#DejaVuSansMono-75" x="6080.712891"/>
     <use xlink:href="#DejaVuSansMono-74" x="6140.917969"/>
     <use xlink:href="#DejaVuSansMono-20" x="6201.123047"/>
     <use xlink:href="#DejaVuSansMono-3a" x="6261.328125"/>
     <use xlink:href="#DejaVuSansMono-20" x="6321.533203"/>
     <use xlink:href="#DejaVuSansMono-30" x="6381.738281"/>
     <use xlink:href="#DejaVuSansMono-2e" x="6441.943359"/>
     <use xlink:href="#DejaVuSansMono-30" x="6502.148438"/>
    </g>
   </g>
   <g id="text_16">
    <!-- train loss -->
    <g transform="translate(833.783898 119.838437) rotate(-270) scale(0.1 -0.1)">
     <defs>
      <path id="DejaVuSansMono-69" d="M 800 3500 
L 2272 3500 
L 2272 447 
L 3413 447 
L 3413 0 
L 556 0 
L 556 447 
L 1697 447 
L 1697 3053 
L 800 3053 
L 800 3500 
z
M 1697 4863 
L 2272 4863 
L 2272 4134 
L 1697 4134 
L 1697 4863 
z
" transform="scale(0.015625)"/>
      <path id="DejaVuSansMono-6e" d="M 3284 2169 
L 3284 0 
L 2706 0 
L 2706 2169 
Q 2706 2641 2540 2862 
Q 2375 3084 2022 3084 
Q 1619 3084 1401 2798 
Q 1184 2513 1184 1978 
L 1184 0 
L 609 0 
L 609 3500 
L 1184 3500 
L 1184 2975 
Q 1338 3275 1600 3429 
Q 1863 3584 2222 3584 
Q 2756 3584 3020 3232 
Q 3284 2881 3284 2169 
z
" transform="scale(0.015625)"/>
     </defs>
     <use xlink:href="#DejaVuSansMono-74"/>
     <use xlink:href="#DejaVuSansMono-72" x="60.205078"/>
     <use xlink:href="#DejaVuSansMono-61" x="120.410156"/>
     <use xlink:href="#DejaVuSansMono-69" x="180.615234"/>
     <use xlink:href="#DejaVuSansMono-6e" x="240.820312"/>
     <use xlink:href="#DejaVuSansMono-20" x="301.025391"/>
     <use xlink:href="#DejaVuSansMono-6c" x="361.230469"/>
     <use xlink:href="#DejaVuSansMono-6f" x="421.435547"/>
     <use xlink:href="#DejaVuSansMono-73" x="481.640625"/>
     <use xlink:href="#DejaVuSansMono-73" x="541.845703"/>
    </g>
   </g>
  </g>
 </g>
 <defs>
  <clipPath id="p75e485dc2e">
   <rect x="36.36" y="20.965263" width="816.84" height="236.453684"/>
  </clipPath>
 </defs>
</svg>
