<?xml version="1.0" encoding="utf-8" standalone="no"?>
<!DOCTYPE svg PUBLIC "-//W3C//DTD SVG 1.1//EN"
  "http://www.w3.org/Graphics/SVG/1.1/DTD/svg11.dtd">
<svg xmlns:xlink="http://www.w3.org/1999/xlink" width="864pt" height="432pt" viewBox="0 0 864 432" xmlns="http://www.w3.org/2000/svg" version="1.1">
 <metadata>
  <rdf:RDF xmlns:dc="http://purl.org/dc/elements/1.1/" xmlns:cc="http://creativecommons.org/ns#" xmlns:rdf="http://www.w3.org/1999/02/22-rdf-syntax-ns#">
   <cc:Work>
    <dc:type rdf:resource="http://purl.org/dc/dcmitype/StillImage"/>
    <dc:date>2024-09-24T22:16:53.528044</dc:date>
    <dc:format>image/svg+xml</dc:format>
    <dc:creator>
     <cc:Agent>
      <dc:title>Matplotlib v3.9.2, https://matplotlib.org/</dc:title>
     </cc:Agent>
    </dc:creator>
   </cc:Work>
  </rdf:RDF>
 </metadata>
 <defs>
  <style type="text/css">*{stroke-linejoin: round; stroke-linecap: butt}</style>
 </defs>
 <g id="figure_1">
  <g id="patch_1">
   <path d="M 0 432 
L 864 432 
L 864 0 
L 0 0 
z
" style="fill: #ffffff"/>
  </g>
  <g id="axes_1">
   <g id="patch_2">
    <path d="M 41.92 404.12 
L 853.2 404.12 
L 853.2 10.8 
L 41.92 10.8 
z
" style="fill: #ffffff"/>
   </g>
   <g id="matplotlib.axis_1">
    <g id="xtick_1">
     <g id="line2d_1">
      <defs>
       <path id="m6c31dd0f16" d="M 0 0 
L 0 3.5 
" style="stroke: #000000; stroke-width: 0.8"/>
      </defs>
      <g>
       <use xlink:href="#m6c31dd0f16" x="199.048644" y="404.12" style="stroke: #000000; stroke-width: 0.8"/>
      </g>
     </g>
     <g id="text_1">
      <!-- 200 -->
      <g transform="translate(190.018175 418.771563) scale(0.1 -0.1)">
       <defs>
        <path id="DejaVuSansMono-32" d="M 1166 531 
L 3309 531 
L 3309 0 
L 475 0 
L 475 531 
Q 1059 1147 1496 1619 
Q 1934 2091 2100 2284 
Q 2413 2666 2522 2902 
Q 2631 3138 2631 3384 
Q 2631 3775 2401 3997 
Q 2172 4219 1772 4219 
Q 1488 4219 1175 4116 
Q 863 4013 513 3803 
L 513 4441 
Q 834 4594 1145 4672 
Q 1456 4750 1759 4750 
Q 2444 4750 2861 4386 
Q 3278 4022 3278 3431 
Q 3278 3131 3139 2831 
Q 3000 2531 2688 2169 
Q 2513 1966 2180 1606 
Q 1847 1247 1166 531 
z
" transform="scale(0.015625)"/>
        <path id="DejaVuSansMono-30" d="M 1509 2344 
Q 1509 2516 1629 2641 
Q 1750 2766 1919 2766 
Q 2094 2766 2219 2641 
Q 2344 2516 2344 2344 
Q 2344 2169 2220 2047 
Q 2097 1925 1919 1925 
Q 1744 1925 1626 2044 
Q 1509 2163 1509 2344 
z
M 1925 4250 
Q 1484 4250 1267 3775 
Q 1050 3300 1050 2328 
Q 1050 1359 1267 884 
Q 1484 409 1925 409 
Q 2369 409 2586 884 
Q 2803 1359 2803 2328 
Q 2803 3300 2586 3775 
Q 2369 4250 1925 4250 
z
M 1925 4750 
Q 2672 4750 3055 4137 
Q 3438 3525 3438 2328 
Q 3438 1134 3055 521 
Q 2672 -91 1925 -91 
Q 1178 -91 797 521 
Q 416 1134 416 2328 
Q 416 3525 797 4137 
Q 1178 4750 1925 4750 
z
" transform="scale(0.015625)"/>
       </defs>
       <use xlink:href="#DejaVuSansMono-32"/>
       <use xlink:href="#DejaVuSansMono-30" x="60.205078"/>
       <use xlink:href="#DejaVuSansMono-30" x="120.410156"/>
      </g>
     </g>
    </g>
    <g id="xtick_2">
     <g id="line2d_2">
      <g>
       <use xlink:href="#m6c31dd0f16" x="364.447217" y="404.12" style="stroke: #000000; stroke-width: 0.8"/>
      </g>
     </g>
     <g id="text_2">
      <!-- 400 -->
      <g transform="translate(355.416748 418.771563) scale(0.1 -0.1)">
       <defs>
        <path id="DejaVuSansMono-34" d="M 2297 4091 
L 825 1625 
L 2297 1625 
L 2297 4091 
z
M 2194 4666 
L 2925 4666 
L 2925 1625 
L 3547 1625 
L 3547 1113 
L 2925 1113 
L 2925 0 
L 2297 0 
L 2297 1113 
L 319 1113 
L 319 1709 
L 2194 4666 
z
" transform="scale(0.015625)"/>
       </defs>
       <use xlink:href="#DejaVuSansMono-34"/>
       <use xlink:href="#DejaVuSansMono-30" x="60.205078"/>
       <use xlink:href="#DejaVuSansMono-30" x="120.410156"/>
      </g>
     </g>
    </g>
    <g id="xtick_3">
     <g id="line2d_3">
      <g>
       <use xlink:href="#m6c31dd0f16" x="529.84579" y="404.12" style="stroke: #000000; stroke-width: 0.8"/>
      </g>
     </g>
     <g id="text_3">
      <!-- 600 -->
      <g transform="translate(520.815321 418.771563) scale(0.1 -0.1)">
       <defs>
        <path id="DejaVuSansMono-36" d="M 3097 4563 
L 3097 3981 
Q 2900 4097 2678 4158 
Q 2456 4219 2216 4219 
Q 1616 4219 1306 3767 
Q 997 3316 997 2438 
Q 1147 2750 1412 2917 
Q 1678 3084 2022 3084 
Q 2697 3084 3067 2670 
Q 3438 2256 3438 1497 
Q 3438 741 3056 325 
Q 2675 -91 1984 -91 
Q 1172 -91 794 492 
Q 416 1075 416 2328 
Q 416 3509 870 4129 
Q 1325 4750 2188 4750 
Q 2419 4750 2650 4701 
Q 2881 4653 3097 4563 
z
M 1972 2591 
Q 1569 2591 1337 2300 
Q 1106 2009 1106 1497 
Q 1106 984 1337 693 
Q 1569 403 1972 403 
Q 2391 403 2603 679 
Q 2816 956 2816 1497 
Q 2816 2041 2603 2316 
Q 2391 2591 1972 2591 
z
" transform="scale(0.015625)"/>
       </defs>
       <use xlink:href="#DejaVuSansMono-36"/>
       <use xlink:href="#DejaVuSansMono-30" x="60.205078"/>
       <use xlink:href="#DejaVuSansMono-30" x="120.410156"/>
      </g>
     </g>
    </g>
    <g id="xtick_4">
     <g id="line2d_4">
      <g>
       <use xlink:href="#m6c31dd0f16" x="695.244363" y="404.12" style="stroke: #000000; stroke-width: 0.8"/>
      </g>
     </g>
     <g id="text_4">
      <!-- 800 -->
      <g transform="translate(686.213894 418.771563) scale(0.1 -0.1)">
       <defs>
        <path id="DejaVuSansMono-38" d="M 1925 2216 
Q 1503 2216 1273 1980 
Q 1044 1744 1044 1313 
Q 1044 881 1276 642 
Q 1509 403 1925 403 
Q 2350 403 2579 639 
Q 2809 875 2809 1313 
Q 2809 1741 2576 1978 
Q 2344 2216 1925 2216 
z
M 1375 2478 
Q 972 2581 745 2862 
Q 519 3144 519 3541 
Q 519 4097 897 4423 
Q 1275 4750 1925 4750 
Q 2578 4750 2956 4423 
Q 3334 4097 3334 3541 
Q 3334 3144 3107 2862 
Q 2881 2581 2478 2478 
Q 2947 2375 3195 2062 
Q 3444 1750 3444 1253 
Q 3444 622 3041 265 
Q 2638 -91 1925 -91 
Q 1213 -91 811 264 
Q 409 619 409 1247 
Q 409 1747 657 2061 
Q 906 2375 1375 2478 
z
M 1147 3481 
Q 1147 3106 1347 2909 
Q 1547 2713 1925 2713 
Q 2306 2713 2506 2909 
Q 2706 3106 2706 3481 
Q 2706 3863 2507 4063 
Q 2309 4263 1925 4263 
Q 1547 4263 1347 4061 
Q 1147 3859 1147 3481 
z
" transform="scale(0.015625)"/>
       </defs>
       <use xlink:href="#DejaVuSansMono-38"/>
       <use xlink:href="#DejaVuSansMono-30" x="60.205078"/>
       <use xlink:href="#DejaVuSansMono-30" x="120.410156"/>
      </g>
     </g>
    </g>
   </g>
   <g id="matplotlib.axis_2">
    <g id="ytick_1">
     <g id="line2d_5">
      <defs>
       <path id="m62cd72924f" d="M 0 0 
L -3.5 0 
" style="stroke: #000000; stroke-width: 0.8"/>
      </defs>
      <g>
       <use xlink:href="#m62cd72924f" x="41.92" y="401.41268" style="stroke: #000000; stroke-width: 0.8"/>
      </g>
     </g>
     <g id="text_5">
      <!-- 0.02 -->
      <g transform="translate(10.83875 405.238461) scale(0.1 -0.1)">
       <defs>
        <path id="DejaVuSansMono-2e" d="M 1528 953 
L 2316 953 
L 2316 0 
L 1528 0 
L 1528 953 
z
" transform="scale(0.015625)"/>
       </defs>
       <use xlink:href="#DejaVuSansMono-30"/>
       <use xlink:href="#DejaVuSansMono-2e" x="60.205078"/>
       <use xlink:href="#DejaVuSansMono-30" x="120.410156"/>
       <use xlink:href="#DejaVuSansMono-32" x="180.615234"/>
      </g>
     </g>
    </g>
    <g id="ytick_2">
     <g id="line2d_6">
      <g>
       <use xlink:href="#m62cd72924f" x="41.92" y="326.95448" style="stroke: #000000; stroke-width: 0.8"/>
      </g>
     </g>
     <g id="text_6">
      <!-- 0.03 -->
      <g transform="translate(10.83875 330.780262) scale(0.1 -0.1)">
       <defs>
        <path id="DejaVuSansMono-33" d="M 2425 2497 
Q 2884 2375 3128 2064 
Q 3372 1753 3372 1288 
Q 3372 644 2939 276 
Q 2506 -91 1741 -91 
Q 1419 -91 1084 -31 
Q 750 28 428 141 
L 428 769 
Q 747 603 1056 522 
Q 1366 441 1672 441 
Q 2191 441 2469 675 
Q 2747 909 2747 1350 
Q 2747 1756 2469 1995 
Q 2191 2234 1716 2234 
L 1234 2234 
L 1234 2753 
L 1716 2753 
Q 2150 2753 2394 2943 
Q 2638 3134 2638 3475 
Q 2638 3834 2411 4026 
Q 2184 4219 1766 4219 
Q 1488 4219 1191 4156 
Q 894 4094 569 3969 
L 569 4550 
Q 947 4650 1242 4700 
Q 1538 4750 1766 4750 
Q 2447 4750 2855 4408 
Q 3263 4066 3263 3500 
Q 3263 3116 3048 2859 
Q 2834 2603 2425 2497 
z
" transform="scale(0.015625)"/>
       </defs>
       <use xlink:href="#DejaVuSansMono-30"/>
       <use xlink:href="#DejaVuSansMono-2e" x="60.205078"/>
       <use xlink:href="#DejaVuSansMono-30" x="120.410156"/>
       <use xlink:href="#DejaVuSansMono-33" x="180.615234"/>
      </g>
     </g>
    </g>
    <g id="ytick_3">
     <g id="line2d_7">
      <g>
       <use xlink:href="#m62cd72924f" x="41.92" y="252.496281" style="stroke: #000000; stroke-width: 0.8"/>
      </g>
     </g>
     <g id="text_7">
      <!-- 0.04 -->
      <g transform="translate(10.83875 256.322062) scale(0.1 -0.1)">
       <use xlink:href="#DejaVuSansMono-30"/>
       <use xlink:href="#DejaVuSansMono-2e" x="60.205078"/>
       <use xlink:href="#DejaVuSansMono-30" x="120.410156"/>
       <use xlink:href="#DejaVuSansMono-34" x="180.615234"/>
      </g>
     </g>
    </g>
    <g id="ytick_4">
     <g id="line2d_8">
      <g>
       <use xlink:href="#m62cd72924f" x="41.92" y="178.038081" style="stroke: #000000; stroke-width: 0.8"/>
      </g>
     </g>
     <g id="text_8">
      <!-- 0.05 -->
      <g transform="translate(10.83875 181.863862) scale(0.1 -0.1)">
       <defs>
        <path id="DejaVuSansMono-35" d="M 647 4666 
L 3009 4666 
L 3009 4134 
L 1222 4134 
L 1222 2988 
Q 1356 3038 1492 3061 
Q 1628 3084 1766 3084 
Q 2491 3084 2916 2656 
Q 3341 2228 3341 1497 
Q 3341 759 2895 334 
Q 2450 -91 1678 -91 
Q 1306 -91 998 -41 
Q 691 9 447 109 
L 447 750 
Q 734 594 1025 517 
Q 1316 441 1619 441 
Q 2141 441 2423 716 
Q 2706 991 2706 1497 
Q 2706 1997 2414 2275 
Q 2122 2553 1600 2553 
Q 1347 2553 1106 2495 
Q 866 2438 647 2322 
L 647 4666 
z
" transform="scale(0.015625)"/>
       </defs>
       <use xlink:href="#DejaVuSansMono-30"/>
       <use xlink:href="#DejaVuSansMono-2e" x="60.205078"/>
       <use xlink:href="#DejaVuSansMono-30" x="120.410156"/>
       <use xlink:href="#DejaVuSansMono-35" x="180.615234"/>
      </g>
     </g>
    </g>
    <g id="ytick_5">
     <g id="line2d_9">
      <g>
       <use xlink:href="#m62cd72924f" x="41.92" y="103.579881" style="stroke: #000000; stroke-width: 0.8"/>
      </g>
     </g>
     <g id="text_9">
      <!-- 0.06 -->
      <g transform="translate(10.83875 107.405663) scale(0.1 -0.1)">
       <use xlink:href="#DejaVuSansMono-30"/>
       <use xlink:href="#DejaVuSansMono-2e" x="60.205078"/>
       <use xlink:href="#DejaVuSansMono-30" x="120.410156"/>
       <use xlink:href="#DejaVuSansMono-36" x="180.615234"/>
      </g>
     </g>
    </g>
    <g id="ytick_6">
     <g id="line2d_10">
      <g>
       <use xlink:href="#m62cd72924f" x="41.92" y="29.121682" style="stroke: #000000; stroke-width: 0.8"/>
      </g>
     </g>
     <g id="text_10">
      <!-- 0.07 -->
      <g transform="translate(10.83875 32.947463) scale(0.1 -0.1)">
       <defs>
        <path id="DejaVuSansMono-37" d="M 434 4666 
L 3372 4666 
L 3372 4397 
L 1703 0 
L 1044 0 
L 2669 4134 
L 434 4134 
L 434 4666 
z
" transform="scale(0.015625)"/>
       </defs>
       <use xlink:href="#DejaVuSansMono-30"/>
       <use xlink:href="#DejaVuSansMono-2e" x="60.205078"/>
       <use xlink:href="#DejaVuSansMono-30" x="120.410156"/>
       <use xlink:href="#DejaVuSansMono-37" x="180.615234"/>
      </g>
     </g>
    </g>
   </g>
   <g id="line2d_11">
    <path d="M 33.650071 30.720988 
L 34.477064 28.678182 
L 35.304057 51.494159 
L 36.13105 51.212332 
L 36.958043 57.424188 
L 37.785036 88.717576 
L 38.612029 105.792919 
L 39.439021 93.200921 
L 40.266014 103.17767 
L 41.093007 98.149668 
L 41.92 100.749145 
L 42.746993 107.246859 
L 43.573986 105.919334 
L 44.400979 111.471659 
L 45.227971 114.302353 
L 46.054964 114.164013 
L 46.881957 109.841248 
L 47.70895 142.30157 
L 48.535943 144.780518 
L 49.362936 149.115812 
L 50.189929 140.724058 
L 51.016922 138.944238 
L 51.843914 136.361872 
L 52.670907 135.561111 
L 53.4979 132.873503 
L 54.324893 145.034893 
L 55.151886 148.104302 
L 55.978879 130.209875 
L 56.805872 131.548622 
L 57.632864 133.532224 
L 58.459857 138.503345 
L 59.28685 140.891578 
L 60.113843 148.206111 
L 60.940836 141.889788 
L 61.767829 124.226609 
L 62.594822 119.951164 
L 63.421814 124.257858 
L 64.248807 143.268589 
L 65.0758 139.138932 
L 65.902793 116.180829 
L 66.729786 101.814591 
L 67.556779 104.427929 
L 68.383772 104.900276 
L 69.210765 113.705754 
L 70.037757 134.188235 
L 70.86475 135.96946 
L 71.691743 130.446986 
L 72.518736 131.836735 
L 73.345729 137.484839 
L 74.172722 160.575071 
L 74.999715 177.546589 
L 75.826707 178.132545 
L 76.6537 176.79395 
L 78.307686 176.503108 
L 79.134679 177.693366 
L 79.961672 187.287799 
L 80.788665 185.974698 
L 81.615657 185.732331 
L 82.44265 187.721791 
L 83.269643 188.884523 
L 84.096636 189.668061 
L 84.923629 189.150046 
L 85.750622 187.72852 
L 86.577615 190.330621 
L 87.404608 191.282226 
L 88.2316 191.26884 
L 89.058593 192.856199 
L 89.885586 193.740121 
L 90.712579 192.656886 
L 91.539572 195.358305 
L 92.366565 194.637032 
L 94.02055 200.171538 
L 94.847543 200.698912 
L 95.674536 202.6519 
L 96.501529 200.367653 
L 97.328522 199.989012 
L 98.155515 199.383415 
L 98.982508 200.744924 
L 99.809501 200.624775 
L 100.636493 201.250138 
L 101.463486 199.503808 
L 102.290479 199.853538 
L 103.117472 199.536037 
L 103.944465 197.560317 
L 105.598451 199.747058 
L 106.425443 200.586865 
L 107.252436 199.415657 
L 108.079429 199.441783 
L 108.906422 198.150964 
L 109.733415 200.507261 
L 111.387401 196.714715 
L 112.214393 199.14166 
L 113.041386 200.045692 
L 113.868379 200.239571 
L 114.695372 200.108637 
L 115.522365 201.502084 
L 117.176351 203.601872 
L 118.003344 203.127069 
L 119.657329 207.053477 
L 120.484322 207.372434 
L 121.311315 207.810925 
L 122.138308 207.662262 
L 122.965301 208.158797 
L 123.792294 207.867494 
L 124.619286 207.036135 
L 125.446279 207.511881 
L 127.100265 207.991726 
L 127.927258 202.913904 
L 128.754251 202.968764 
L 129.581244 203.670656 
L 130.408236 202.931753 
L 131.235229 203.12771 
L 132.889215 204.269386 
L 133.716208 204.244491 
L 134.543201 200.808444 
L 135.370194 201.212634 
L 136.197187 206.700807 
L 137.024179 206.898603 
L 137.851172 206.680231 
L 138.678165 207.668724 
L 139.505158 205.1795 
L 140.332151 202.198986 
L 141.159144 202.849366 
L 141.986137 202.790692 
L 142.813129 203.79602 
L 143.640122 202.531812 
L 144.467115 202.818799 
L 145.294108 202.172582 
L 146.948094 202.938918 
L 148.60208 208.032759 
L 150.256065 208.610996 
L 151.083058 211.647754 
L 151.910051 212.858813 
L 152.737044 212.48314 
L 153.564037 212.891826 
L 154.39103 212.233541 
L 155.218022 212.182073 
L 156.045015 212.018453 
L 156.872008 213.112892 
L 157.699001 212.803162 
L 158.525994 213.220717 
L 159.352987 212.985397 
L 160.17998 213.309117 
L 161.006972 213.392522 
L 161.833965 213.78385 
L 162.660958 209.416003 
L 163.487951 208.355874 
L 164.314944 208.10042 
L 165.141937 208.045635 
L 165.96893 206.364746 
L 166.795923 206.311676 
L 167.622915 205.636423 
L 168.449908 205.612235 
L 169.276901 206.158602 
L 170.103894 204.687267 
L 170.930887 209.769611 
L 171.75788 211.180748 
L 173.411865 211.331529 
L 174.238858 213.23519 
L 175.065851 213.395468 
L 175.892844 214.370364 
L 177.54683 214.501684 
L 178.373823 216.259736 
L 179.200815 215.031008 
L 180.027808 214.715279 
L 180.854801 215.138228 
L 181.681794 214.724319 
L 182.508787 214.944948 
L 183.33578 214.770613 
L 185.816758 214.593438 
L 186.643751 214.346496 
L 187.470744 215.716179 
L 188.297737 215.898475 
L 189.12473 215.946842 
L 189.951723 216.339651 
L 190.778716 216.0373 
L 192.432701 216.398059 
L 193.259694 216.034493 
L 194.91368 216.536362 
L 195.740673 216.194399 
L 196.567666 216.56146 
L 199.048644 215.768676 
L 199.875637 215.854855 
L 200.70263 215.779322 
L 201.529623 216.486803 
L 202.356616 216.516069 
L 203.183609 216.661835 
L 204.010601 217.313718 
L 204.837594 217.282502 
L 205.664587 217.869512 
L 206.49158 217.819279 
L 207.318573 218.72827 
L 208.145566 219.015182 
L 208.972559 218.818274 
L 210.626544 217.83205 
L 211.453537 217.638132 
L 212.28053 217.082043 
L 216.415494 215.398836 
L 217.242487 215.771386 
L 218.896473 216.988378 
L 219.723466 217.072122 
L 221.377452 216.780356 
L 222.204444 216.898203 
L 223.031437 217.864059 
L 223.85843 217.68528 
L 224.685423 216.952122 
L 225.512416 215.791554 
L 227.166402 215.572947 
L 227.993394 215.334382 
L 228.820387 215.375575 
L 229.64738 214.938047 
L 230.474373 215.056205 
L 231.301366 214.591868 
L 232.128359 214.368542 
L 232.955352 215.073538 
L 233.782345 216.01141 
L 234.609337 215.917576 
L 236.263323 216.19618 
L 237.917309 217.744795 
L 238.744302 217.822613 
L 239.571295 218.078392 
L 240.398287 218.456897 
L 241.22528 218.307687 
L 242.052273 218.441691 
L 242.879266 218.759159 
L 243.706259 218.736836 
L 244.533252 218.115561 
L 245.360245 217.209385 
L 246.187238 217.047582 
L 247.01423 217.036445 
L 248.668216 217.388696 
L 249.495209 217.945284 
L 251.149195 217.581399 
L 251.976188 217.290399 
L 252.80318 217.672871 
L 253.630173 218.355307 
L 255.284159 218.520117 
L 256.111152 218.372036 
L 256.938145 218.337921 
L 257.765138 218.089784 
L 259.419123 218.029174 
L 261.073109 218.606446 
L 262.727095 218.911909 
L 263.554088 218.436546 
L 264.381081 218.136656 
L 265.208073 218.018553 
L 266.035066 217.748398 
L 266.862059 217.849555 
L 267.689052 217.786476 
L 268.516045 217.478179 
L 269.343038 216.802263 
L 270.997023 216.908657 
L 271.824016 217.343739 
L 272.651009 216.652007 
L 273.478002 216.536962 
L 274.304995 216.854258 
L 275.131988 216.733226 
L 275.958981 216.827862 
L 276.785973 217.109906 
L 277.612966 217.984072 
L 279.266952 217.310057 
L 280.093945 217.227151 
L 280.920938 218.007253 
L 281.747931 218.369168 
L 282.574924 218.173392 
L 283.401916 218.180254 
L 284.228909 218.46323 
L 285.055902 218.531121 
L 285.882895 218.454107 
L 289.190866 219.502212 
L 290.017859 218.847615 
L 290.844852 218.920097 
L 291.671845 218.651276 
L 292.498838 218.584023 
L 294.979817 219.107147 
L 297.460795 219.154903 
L 298.287788 219.735967 
L 299.114781 219.048679 
L 299.941774 219.626436 
L 301.595759 219.654356 
L 302.422752 219.000761 
L 303.249745 219.135515 
L 304.903731 218.937239 
L 305.730724 218.230878 
L 306.557717 218.362602 
L 307.384709 219.1363 
L 309.038695 218.985825 
L 309.865688 218.913792 
L 310.692681 219.505917 
L 312.346667 219.360948 
L 313.17366 219.400367 
L 314.000652 220.143056 
L 314.827645 219.753264 
L 315.654638 219.967583 
L 316.481631 219.817472 
L 317.308624 219.830334 
L 318.135617 219.645908 
L 318.96261 219.238048 
L 319.789602 218.997524 
L 322.270581 218.937927 
L 323.097574 219.332079 
L 323.924567 219.010994 
L 324.75156 219.246441 
L 325.578552 219.190344 
L 326.405545 219.252063 
L 327.232538 219.546312 
L 328.059531 219.414591 
L 328.886524 219.647796 
L 329.713517 219.718001 
L 331.367503 220.089469 
L 332.194495 219.560223 
L 333.848481 219.343229 
L 334.675474 219.375866 
L 336.32946 219.987962 
L 337.156453 219.735573 
L 337.983445 219.612911 
L 338.810438 219.058681 
L 339.637431 218.730853 
L 340.464424 219.576058 
L 342.945403 219.679784 
L 343.772396 218.929592 
L 344.599388 218.981736 
L 345.426381 219.193975 
L 346.253374 218.727485 
L 347.080367 219.612814 
L 347.90736 219.809292 
L 348.734353 219.858238 
L 350.388338 220.193511 
L 351.215331 220.132743 
L 352.042324 220.567644 
L 352.869317 220.571125 
L 353.69631 219.941962 
L 354.523303 219.904838 
L 355.350296 218.892184 
L 357.004281 219.148366 
L 357.831274 219.155716 
L 358.658267 218.906661 
L 359.48526 219.102154 
L 360.312253 219.459925 
L 361.966239 219.830547 
L 362.793231 220.554441 
L 363.620224 221.577174 
L 366.101203 220.962146 
L 366.928196 221.130917 
L 369.409174 220.885903 
L 370.236167 220.595848 
L 371.06316 220.054516 
L 371.890153 219.670813 
L 372.717146 218.292426 
L 375.198124 218.203174 
L 376.025117 218.392349 
L 376.85211 218.039892 
L 377.679103 218.113506 
L 378.506096 218.753351 
L 380.160082 219.041816 
L 380.987074 220.587574 
L 382.64106 220.710039 
L 383.468053 219.265067 
L 384.295046 218.926968 
L 385.122039 219.246305 
L 385.949032 219.233216 
L 386.776024 219.089975 
L 387.603017 219.102379 
L 388.43001 218.812724 
L 390.910989 218.945108 
L 391.737982 220.59245 
L 392.564975 220.81721 
L 393.391967 220.730773 
L 395.045953 221.248275 
L 395.872946 221.347011 
L 396.699939 221.864025 
L 397.526932 221.888052 
L 398.353925 222.035301 
L 399.180917 221.942038 
L 400.00791 221.554898 
L 400.834903 221.574359 
L 401.661896 221.772191 
L 402.488889 221.364442 
L 404.142875 221.806832 
L 406.623853 221.811154 
L 408.277839 223.056486 
L 409.104832 223.212819 
L 409.931825 222.916676 
L 410.758818 223.25966 
L 411.58581 223.419064 
L 412.412803 223.083375 
L 413.239796 223.441171 
L 414.066789 224.119111 
L 414.893782 224.498748 
L 415.720775 225.198066 
L 416.547768 225.62534 
L 417.37476 226.536362 
L 418.201753 227.144017 
L 419.028746 226.986203 
L 419.855739 228.470125 
L 420.682732 230.542693 
L 421.509725 229.566385 
L 422.336718 230.787247 
L 423.16371 232.514368 
L 424.817696 235.495349 
L 425.644689 236.502049 
L 426.471682 237.751864 
L 427.298675 239.211615 
L 428.125668 237.376352 
L 428.952661 238.139009 
L 429.779653 239.360675 
L 430.606646 238.560444 
L 431.433639 237.975947 
L 432.260632 236.011658 
L 433.087625 235.248648 
L 433.914618 235.337207 
L 434.741611 234.517753 
L 435.568603 234.953659 
L 436.395596 236.211462 
L 437.222589 235.349805 
L 438.049582 236.081957 
L 438.876575 237.256077 
L 439.703568 238.770261 
L 440.530561 241.186416 
L 441.357554 242.145912 
L 442.184546 239.775883 
L 443.011539 235.062275 
L 443.838532 235.87589 
L 444.665525 237.389793 
L 445.492518 236.348099 
L 446.319511 237.155594 
L 447.146504 235.722466 
L 447.973496 234.026158 
L 448.800489 234.522921 
L 449.627482 234.130081 
L 450.454475 237.267885 
L 451.281468 242.934149 
L 452.108461 243.617632 
L 452.935454 244.664383 
L 455.416432 251.0486 
L 456.243425 253.613795 
L 457.070418 253.87257 
L 457.897411 248.161376 
L 459.551397 242.817983 
L 460.378389 241.212825 
L 461.205382 240.596426 
L 462.032375 241.147735 
L 462.859368 239.588394 
L 463.686361 239.601589 
L 464.513354 238.787273 
L 465.340347 237.706368 
L 466.167339 245.244945 
L 466.994332 249.721424 
L 467.821325 255.862471 
L 468.648318 258.186958 
L 469.475311 257.53455 
L 470.302304 257.338898 
L 471.129297 258.871802 
L 471.95629 257.978605 
L 472.783282 259.942206 
L 473.610275 262.961406 
L 474.437268 262.295823 
L 475.264261 265.111821 
L 476.091254 265.373663 
L 476.918247 268.400891 
L 478.572232 277.609979 
L 479.399225 279.155964 
L 481.053211 289.327282 
L 482.707197 294.623584 
L 483.53419 295.552277 
L 484.361182 299.895435 
L 485.188175 301.771185 
L 486.015168 304.01812 
L 486.842161 304.900716 
L 487.669154 308.423003 
L 488.496147 310.309781 
L 489.32314 309.329574 
L 490.150133 310.644337 
L 490.977125 315.104206 
L 491.804118 315.465136 
L 492.631111 311.978969 
L 493.458104 309.424495 
L 494.285097 309.424908 
L 495.939083 311.472822 
L 496.766075 309.841648 
L 497.593068 310.872912 
L 498.420061 307.912607 
L 500.074047 305.470439 
L 500.90104 307.296965 
L 501.728033 311.035741 
L 502.555025 309.553488 
L 503.382018 303.685936 
L 504.209011 301.497463 
L 505.036004 288.108768 
L 505.862997 284.603802 
L 507.516983 279.502871 
L 508.343976 282.720003 
L 509.170968 282.870401 
L 509.997961 277.951936 
L 510.824954 274.846627 
L 511.651947 272.320403 
L 512.47894 267.144924 
L 513.305933 281.709601 
L 514.132926 285.210137 
L 514.959918 286.905852 
L 515.786911 289.327104 
L 516.613904 285.279041 
L 517.440897 284.637154 
L 518.26789 286.718976 
L 519.094883 292.030146 
L 519.921876 300.281968 
L 520.748869 303.74003 
L 521.575861 302.914724 
L 522.402854 301.397155 
L 523.229847 303.485742 
L 524.05684 302.499118 
L 524.883833 303.077536 
L 525.710826 302.988364 
L 526.537819 301.061597 
L 527.364811 301.022603 
L 528.191804 301.162953 
L 529.018797 302.625057 
L 529.84579 305.055392 
L 530.672783 308.015444 
L 531.499776 312.119661 
L 532.326769 310.32162 
L 533.153761 312.424095 
L 533.980754 315.088883 
L 534.807747 315.968916 
L 535.63474 316.072925 
L 536.461733 313.388523 
L 537.288726 316.820429 
L 538.115719 316.551196 
L 538.942712 314.949725 
L 539.769704 311.221231 
L 540.596697 315.492622 
L 541.42369 317.642955 
L 542.250683 317.202959 
L 543.077676 312.718918 
L 543.904669 310.079707 
L 544.731662 311.253223 
L 545.558654 307.30131 
L 546.385647 304.831813 
L 547.21264 307.055648 
L 548.039633 308.726931 
L 548.866626 309.253093 
L 549.693619 309.016661 
L 550.520612 309.35823 
L 551.347604 316.718256 
L 553.828583 330.03125 
L 554.655576 334.283472 
L 555.482569 333.612971 
L 556.309562 335.859434 
L 557.136555 336.920058 
L 557.963547 335.419226 
L 558.79054 336.61704 
L 559.617533 338.970748 
L 560.444526 336.96167 
L 561.271519 333.074719 
L 562.925505 333.6464 
L 563.752497 332.09761 
L 564.57949 332.002445 
L 565.406483 330.50713 
L 566.233476 332.400293 
L 567.060469 333.905061 
L 567.887462 330.274866 
L 568.714455 332.467828 
L 569.541448 335.671873 
L 571.195433 336.33857 
L 572.022426 337.568652 
L 572.849419 338.53932 
L 573.676412 341.007255 
L 575.330398 341.210497 
L 576.15739 346.621319 
L 576.984383 346.563806 
L 577.811376 347.65583 
L 578.638369 347.39726 
L 579.465362 347.620219 
L 580.292355 348.833742 
L 581.94634 341.41938 
L 582.773333 340.283634 
L 583.600326 336.725496 
L 584.427319 331.024764 
L 585.254312 327.898781 
L 586.081305 327.852556 
L 586.908298 327.23541 
L 588.562283 323.019403 
L 589.389276 318.26948 
L 590.216269 319.430958 
L 591.043262 318.198567 
L 591.870255 320.323592 
L 592.697248 321.311584 
L 593.524241 321.505523 
L 594.351233 319.540036 
L 595.178226 319.360614 
L 596.005219 321.450129 
L 596.832212 322.118271 
L 597.659205 330.54009 
L 598.486198 330.881573 
L 599.313191 326.670614 
L 600.140183 324.988687 
L 601.794169 332.158183 
L 602.621162 334.496754 
L 603.448155 333.33851 
L 604.275148 331.867057 
L 605.102141 333.135218 
L 605.929134 331.70348 
L 606.756126 329.871185 
L 607.583119 335.131293 
L 608.410112 335.862734 
L 609.237105 334.774027 
L 610.064098 329.831941 
L 610.891091 327.439988 
L 611.718084 327.762006 
L 612.545076 328.28282 
L 613.372069 327.518131 
L 614.199062 325.459781 
L 615.026055 329.18221 
L 615.853048 327.544517 
L 616.680041 328.333856 
L 617.507034 329.447493 
L 619.161019 333.388598 
L 619.988012 332.906323 
L 620.815005 331.975961 
L 621.641998 331.999461 
L 622.468991 332.555004 
L 624.122977 329.166732 
L 624.949969 330.112529 
L 626.603955 328.83844 
L 627.430948 323.577269 
L 628.257941 324.11376 
L 629.084934 321.340437 
L 629.911927 320.394826 
L 630.738919 322.579275 
L 631.565912 322.333891 
L 632.392905 326.635663 
L 633.219898 323.619066 
L 634.046891 317.337088 
L 634.873884 318.981659 
L 635.700877 324.398377 
L 637.354862 327.70375 
L 638.181855 329.846577 
L 639.008848 330.051754 
L 639.835841 329.618909 
L 640.662834 329.859052 
L 641.489827 326.979512 
L 642.31682 332.854284 
L 643.143812 333.306165 
L 644.797798 333.494999 
L 645.624791 335.630343 
L 646.451784 336.214576 
L 647.278777 333.229026 
L 648.10577 336.249594 
L 648.932762 334.301412 
L 649.759755 339.416157 
L 650.586748 338.33418 
L 651.413741 339.056332 
L 652.240734 340.598365 
L 653.067727 342.742776 
L 653.89472 342.04533 
L 654.721713 340.559543 
L 655.548705 344.193524 
L 656.375698 344.642539 
L 657.202691 348.014018 
L 658.029684 347.503308 
L 658.856677 348.973779 
L 659.68367 348.915702 
L 660.510663 347.635107 
L 661.337655 346.146607 
L 662.164648 349.670708 
L 662.991641 352.561105 
L 663.818634 354.432344 
L 664.645627 349.609341 
L 665.47262 350.261441 
L 666.299613 353.165208 
L 667.126606 354.083991 
L 669.607584 355.570967 
L 670.434577 352.768975 
L 672.088563 351.686221 
L 672.915556 354.928934 
L 673.742548 351.100809 
L 674.569541 351.705388 
L 675.396534 354.266047 
L 676.223527 356.224999 
L 677.05052 355.875892 
L 677.877513 356.772024 
L 678.704506 359.369051 
L 679.531498 360.55483 
L 681.185484 359.111077 
L 682.012477 363.320535 
L 682.83947 362.312035 
L 683.666463 360.943681 
L 684.493456 360.752591 
L 685.320449 361.050741 
L 686.974434 357.944967 
L 687.801427 351.956195 
L 688.62842 349.483104 
L 689.455413 348.616886 
L 690.282406 338.498742 
L 691.109399 336.729934 
L 691.936391 333.160521 
L 692.763384 331.561193 
L 693.590377 331.340665 
L 694.41737 331.572305 
L 695.244363 333.290921 
L 696.071356 335.286631 
L 696.898349 332.79239 
L 697.725341 335.48733 
L 698.552334 346.58832 
L 699.379327 348.840151 
L 700.20632 351.952986 
L 701.860306 355.111642 
L 702.687299 356.015414 
L 704.341284 354.226737 
L 705.168277 360.275785 
L 705.99527 360.016751 
L 706.822263 358.354515 
L 707.649256 358.893037 
L 708.476249 356.644014 
L 709.303242 355.213498 
L 710.130234 354.781798 
L 710.957227 354.619208 
L 711.78422 353.493762 
L 712.611213 352.827091 
L 713.438206 352.736101 
L 714.265199 354.062876 
L 715.092192 353.317656 
L 715.919185 354.137432 
L 716.746177 357.402351 
L 717.57317 359.417294 
L 718.400163 355.649242 
L 720.054149 354.792675 
L 720.881142 356.963523 
L 721.708135 357.362211 
L 722.535127 356.057107 
L 723.36212 352.767125 
L 724.189113 350.100755 
L 725.016106 349.194933 
L 725.843099 348.969791 
L 726.670092 352.196761 
L 727.497085 352.914316 
L 728.324077 355.861469 
L 729.15107 359.651004 
L 729.978063 358.786322 
L 730.805056 360.846632 
L 731.632049 366.439036 
L 732.459042 367.976389 
L 733.286035 369.017172 
L 734.94002 367.150841 
L 735.767013 367.203468 
L 736.594006 366.443241 
L 737.420999 364.89943 
L 738.247992 367.04335 
L 740.72897 361.95933 
L 741.555963 358.475973 
L 743.209949 361.743617 
L 744.036942 360.322824 
L 745.690928 361.116434 
L 746.51792 359.421657 
L 747.344913 361.436953 
L 748.171906 362.61715 
L 748.998899 365.320554 
L 749.825892 368.522032 
L 750.652885 368.126906 
L 751.479878 368.622382 
L 752.306871 370.009611 
L 753.960856 371.304518 
L 754.787849 370.123833 
L 755.614842 370.424531 
L 757.268828 372.066051 
L 758.095821 373.598258 
L 758.922813 374.114415 
L 759.749806 374.28282 
L 760.576799 376.228922 
L 761.403792 377.413181 
L 762.230785 377.174081 
L 763.057778 378.015601 
L 763.884771 377.585579 
L 764.711764 374.033465 
L 765.538756 373.167004 
L 766.365749 373.176672 
L 767.192742 373.637385 
L 768.019735 373.531818 
L 769.673721 369.938187 
L 770.500714 367.679515 
L 771.327706 368.738651 
L 772.154699 366.673506 
L 772.981692 371.523381 
L 773.808685 372.487167 
L 774.635678 373.185458 
L 775.462671 370.264547 
L 776.289664 366.842996 
L 777.116656 368.509563 
L 778.770642 371.093886 
L 779.597635 371.48546 
L 780.424628 374.739884 
L 781.251621 373.453775 
L 782.078614 373.03813 
L 782.905607 370.053196 
L 783.732599 373.232991 
L 784.559592 374.34038 
L 786.213578 374.061465 
L 787.040571 375.752363 
L 787.867564 376.055042 
L 788.694557 374.095379 
L 789.521549 374.529018 
L 790.348542 375.270757 
L 791.175535 376.87899 
L 792.002528 376.345011 
L 792.829521 379.955718 
L 793.656514 380.002968 
L 795.310499 379.737177 
L 796.137492 378.960115 
L 796.964485 379.752409 
L 798.618471 379.85295 
L 799.445464 382.40322 
L 800.272457 383.454522 
L 801.09945 383.69415 
L 801.926442 385.005938 
L 802.753435 385.698218 
L 803.580428 384.09047 
L 804.407421 386.241818 
L 805.234414 385.811086 
L 806.061407 385.939584 
L 806.8884 382.776631 
L 807.715392 380.828557 
L 808.542385 380.911554 
L 809.369378 380.518251 
L 810.196371 378.942073 
L 811.023364 378.713512 
L 811.850357 380.958979 
L 812.67735 377.016843 
L 813.504343 372.417223 
L 814.331335 371.819481 
L 815.158328 375.176501 
L 815.985321 376.153563 
L 816.812314 375.86034 
L 817.639307 370.148593 
L 818.4663 371.574335 
L 819.293293 370.977762 
L 820.120285 370.707514 
L 820.947278 371.49526 
L 821.774271 376.380805 
L 822.601264 376.05092 
L 823.428257 374.720285 
L 824.25525 371.947226 
L 825.082243 372.337084 
L 825.909235 377.482024 
L 826.736228 375.698654 
L 827.563221 376.221153 
L 828.390214 376.506964 
L 829.217207 377.171182 
L 830.871193 376.828516 
L 831.698186 376.868522 
L 832.525178 379.305397 
L 833.352171 378.194273 
L 834.179164 379.044636 
L 835.006157 380.192489 
L 835.83315 378.095659 
L 836.660143 377.476317 
L 837.487136 379.722609 
L 838.314128 380.119172 
L 839.141121 380.991973 
L 839.968114 382.205901 
L 841.6221 381.4516 
L 842.449093 381.51445 
L 843.276086 381.219043 
L 844.103078 382.905997 
L 844.930071 381.571387 
L 845.757064 381.543989 
L 846.584057 382.834481 
L 847.41105 383.698483 
L 848.238043 381.509608 
L 849.065036 382.911319 
L 849.892029 383.519525 
L 850.719021 382.482694 
L 851.546014 383.801272 
L 852.373007 382.376735 
L 852.373007 382.376735 
" clip-path="url(#p678e1b486c)" style="fill: none; stroke-dasharray: 7.4,3.2; stroke-dashoffset: 0; stroke: #000000; stroke-width: 2"/>
   </g>
   <g id="patch_3">
    <path d="M 41.92 404.12 
L 41.92 10.8 
" style="fill: none; stroke: #000000; stroke-width: 0.8; stroke-linejoin: miter; stroke-linecap: square"/>
   </g>
   <g id="patch_4">
    <path d="M 853.2 404.12 
L 853.2 10.8 
" style="fill: none; stroke: #000000; stroke-width: 0.8; stroke-linejoin: miter; stroke-linecap: square"/>
   </g>
   <g id="patch_5">
    <path d="M 41.92 404.12 
L 853.2 404.12 
" style="fill: none; stroke: #000000; stroke-width: 0.8; stroke-linejoin: miter; stroke-linecap: square"/>
   </g>
   <g id="patch_6">
    <path d="M 41.92 10.8 
L 853.2 10.8 
" style="fill: none; stroke: #000000; stroke-width: 0.8; stroke-linejoin: miter; stroke-linecap: square"/>
   </g>
  </g>
 </g>
 <defs>
  <clipPath id="p678e1b486c">
   <rect x="41.92" y="10.8" width="811.28" height="393.32"/>
  </clipPath>
 </defs>
</svg>
