<?xml version="1.0" encoding="utf-8" standalone="no"?>
<!DOCTYPE svg PUBLIC "-//W3C//DTD SVG 1.1//EN"
  "http://www.w3.org/Graphics/SVG/1.1/DTD/svg11.dtd">
<svg xmlns:xlink="http://www.w3.org/1999/xlink" width="864pt" height="432pt" viewBox="0 0 864 432" xmlns="http://www.w3.org/2000/svg" version="1.1">
 <metadata>
  <rdf:RDF xmlns:dc="http://purl.org/dc/elements/1.1/" xmlns:cc="http://creativecommons.org/ns#" xmlns:rdf="http://www.w3.org/1999/02/22-rdf-syntax-ns#">
   <cc:Work>
    <dc:type rdf:resource="http://purl.org/dc/dcmitype/StillImage"/>
    <dc:date>2024-09-16T10:46:35.437139</dc:date>
    <dc:format>image/svg+xml</dc:format>
    <dc:creator>
     <cc:Agent>
      <dc:title>Matplotlib v3.9.2, https://matplotlib.org/</dc:title>
     </cc:Agent>
    </dc:creator>
   </cc:Work>
  </rdf:RDF>
 </metadata>
 <defs>
  <style type="text/css">*{stroke-linejoin: round; stroke-linecap: butt}</style>
 </defs>
 <g id="figure_1">
  <g id="patch_1">
   <path d="M 0 432 
L 864 432 
L 864 0 
L 0 0 
z
" style="fill: #ffffff"/>
  </g>
  <g id="axes_1">
   <g id="patch_2">
    <path d="M 41.92 404.12 
L 838.125 404.12 
L 838.125 10.8 
L 41.92 10.8 
z
" style="fill: #ffffff"/>
   </g>
   <g id="matplotlib.axis_1">
    <g id="xtick_1">
     <g id="line2d_1">
      <defs>
       <path id="m53feff0110" d="M 0 0 
L 0 3.5 
" style="stroke: #000000; stroke-width: 0.8"/>
      </defs>
      <g>
       <use xlink:href="#m53feff0110" x="200.523398" y="404.12" style="stroke: #000000; stroke-width: 0.8"/>
      </g>
     </g>
     <g id="text_1">
      <!-- 2000 -->
      <g transform="translate(188.482773 418.771563) scale(0.1 -0.1)">
       <defs>
        <path id="DejaVuSansMono-32" d="M 1166 531 
L 3309 531 
L 3309 0 
L 475 0 
L 475 531 
Q 1059 1147 1496 1619 
Q 1934 2091 2100 2284 
Q 2413 2666 2522 2902 
Q 2631 3138 2631 3384 
Q 2631 3775 2401 3997 
Q 2172 4219 1772 4219 
Q 1488 4219 1175 4116 
Q 863 4013 513 3803 
L 513 4441 
Q 834 4594 1145 4672 
Q 1456 4750 1759 4750 
Q 2444 4750 2861 4386 
Q 3278 4022 3278 3431 
Q 3278 3131 3139 2831 
Q 3000 2531 2688 2169 
Q 2513 1966 2180 1606 
Q 1847 1247 1166 531 
z
" transform="scale(0.015625)"/>
        <path id="DejaVuSansMono-30" d="M 1509 2344 
Q 1509 2516 1629 2641 
Q 1750 2766 1919 2766 
Q 2094 2766 2219 2641 
Q 2344 2516 2344 2344 
Q 2344 2169 2220 2047 
Q 2097 1925 1919 1925 
Q 1744 1925 1626 2044 
Q 1509 2163 1509 2344 
z
M 1925 4250 
Q 1484 4250 1267 3775 
Q 1050 3300 1050 2328 
Q 1050 1359 1267 884 
Q 1484 409 1925 409 
Q 2369 409 2586 884 
Q 2803 1359 2803 2328 
Q 2803 3300 2586 3775 
Q 2369 4250 1925 4250 
z
M 1925 4750 
Q 2672 4750 3055 4137 
Q 3438 3525 3438 2328 
Q 3438 1134 3055 521 
Q 2672 -91 1925 -91 
Q 1178 -91 797 521 
Q 416 1134 416 2328 
Q 416 3525 797 4137 
Q 1178 4750 1925 4750 
z
" transform="scale(0.015625)"/>
       </defs>
       <use xlink:href="#DejaVuSansMono-32"/>
       <use xlink:href="#DejaVuSansMono-30" x="60.205078"/>
       <use xlink:href="#DejaVuSansMono-30" x="120.410156"/>
       <use xlink:href="#DejaVuSansMono-30" x="180.615234"/>
      </g>
     </g>
    </g>
    <g id="xtick_2">
     <g id="line2d_2">
      <g>
       <use xlink:href="#m53feff0110" x="359.923799" y="404.12" style="stroke: #000000; stroke-width: 0.8"/>
      </g>
     </g>
     <g id="text_2">
      <!-- 4000 -->
      <g transform="translate(347.883174 418.771563) scale(0.1 -0.1)">
       <defs>
        <path id="DejaVuSansMono-34" d="M 2297 4091 
L 825 1625 
L 2297 1625 
L 2297 4091 
z
M 2194 4666 
L 2925 4666 
L 2925 1625 
L 3547 1625 
L 3547 1113 
L 2925 1113 
L 2925 0 
L 2297 0 
L 2297 1113 
L 319 1113 
L 319 1709 
L 2194 4666 
z
" transform="scale(0.015625)"/>
       </defs>
       <use xlink:href="#DejaVuSansMono-34"/>
       <use xlink:href="#DejaVuSansMono-30" x="60.205078"/>
       <use xlink:href="#DejaVuSansMono-30" x="120.410156"/>
       <use xlink:href="#DejaVuSansMono-30" x="180.615234"/>
      </g>
     </g>
    </g>
    <g id="xtick_3">
     <g id="line2d_3">
      <g>
       <use xlink:href="#m53feff0110" x="519.324199" y="404.12" style="stroke: #000000; stroke-width: 0.8"/>
      </g>
     </g>
     <g id="text_3">
      <!-- 6000 -->
      <g transform="translate(507.283574 418.771563) scale(0.1 -0.1)">
       <defs>
        <path id="DejaVuSansMono-36" d="M 3097 4563 
L 3097 3981 
Q 2900 4097 2678 4158 
Q 2456 4219 2216 4219 
Q 1616 4219 1306 3767 
Q 997 3316 997 2438 
Q 1147 2750 1412 2917 
Q 1678 3084 2022 3084 
Q 2697 3084 3067 2670 
Q 3438 2256 3438 1497 
Q 3438 741 3056 325 
Q 2675 -91 1984 -91 
Q 1172 -91 794 492 
Q 416 1075 416 2328 
Q 416 3509 870 4129 
Q 1325 4750 2188 4750 
Q 2419 4750 2650 4701 
Q 2881 4653 3097 4563 
z
M 1972 2591 
Q 1569 2591 1337 2300 
Q 1106 2009 1106 1497 
Q 1106 984 1337 693 
Q 1569 403 1972 403 
Q 2391 403 2603 679 
Q 2816 956 2816 1497 
Q 2816 2041 2603 2316 
Q 2391 2591 1972 2591 
z
" transform="scale(0.015625)"/>
       </defs>
       <use xlink:href="#DejaVuSansMono-36"/>
       <use xlink:href="#DejaVuSansMono-30" x="60.205078"/>
       <use xlink:href="#DejaVuSansMono-30" x="120.410156"/>
       <use xlink:href="#DejaVuSansMono-30" x="180.615234"/>
      </g>
     </g>
    </g>
    <g id="xtick_4">
     <g id="line2d_4">
      <g>
       <use xlink:href="#m53feff0110" x="678.7246" y="404.12" style="stroke: #000000; stroke-width: 0.8"/>
      </g>
     </g>
     <g id="text_4">
      <!-- 8000 -->
      <g transform="translate(666.683975 418.771563) scale(0.1 -0.1)">
       <defs>
        <path id="DejaVuSansMono-38" d="M 1925 2216 
Q 1503 2216 1273 1980 
Q 1044 1744 1044 1313 
Q 1044 881 1276 642 
Q 1509 403 1925 403 
Q 2350 403 2579 639 
Q 2809 875 2809 1313 
Q 2809 1741 2576 1978 
Q 2344 2216 1925 2216 
z
M 1375 2478 
Q 972 2581 745 2862 
Q 519 3144 519 3541 
Q 519 4097 897 4423 
Q 1275 4750 1925 4750 
Q 2578 4750 2956 4423 
Q 3334 4097 3334 3541 
Q 3334 3144 3107 2862 
Q 2881 2581 2478 2478 
Q 2947 2375 3195 2062 
Q 3444 1750 3444 1253 
Q 3444 622 3041 265 
Q 2638 -91 1925 -91 
Q 1213 -91 811 264 
Q 409 619 409 1247 
Q 409 1747 657 2061 
Q 906 2375 1375 2478 
z
M 1147 3481 
Q 1147 3106 1347 2909 
Q 1547 2713 1925 2713 
Q 2306 2713 2506 2909 
Q 2706 3106 2706 3481 
Q 2706 3863 2507 4063 
Q 2309 4263 1925 4263 
Q 1547 4263 1347 4061 
Q 1147 3859 1147 3481 
z
" transform="scale(0.015625)"/>
       </defs>
       <use xlink:href="#DejaVuSansMono-38"/>
       <use xlink:href="#DejaVuSansMono-30" x="60.205078"/>
       <use xlink:href="#DejaVuSansMono-30" x="120.410156"/>
       <use xlink:href="#DejaVuSansMono-30" x="180.615234"/>
      </g>
     </g>
    </g>
    <g id="xtick_5">
     <g id="line2d_5">
      <g>
       <use xlink:href="#m53feff0110" x="838.125" y="404.12" style="stroke: #000000; stroke-width: 0.8"/>
      </g>
     </g>
     <g id="text_5">
      <!-- 10000 -->
      <g transform="translate(823.074219 418.771563) scale(0.1 -0.1)">
       <defs>
        <path id="DejaVuSansMono-31" d="M 844 531 
L 1825 531 
L 1825 4097 
L 769 3859 
L 769 4434 
L 1819 4666 
L 2450 4666 
L 2450 531 
L 3419 531 
L 3419 0 
L 844 0 
L 844 531 
z
" transform="scale(0.015625)"/>
       </defs>
       <use xlink:href="#DejaVuSansMono-31"/>
       <use xlink:href="#DejaVuSansMono-30" x="60.205078"/>
       <use xlink:href="#DejaVuSansMono-30" x="120.410156"/>
       <use xlink:href="#DejaVuSansMono-30" x="180.615234"/>
       <use xlink:href="#DejaVuSansMono-30" x="240.820312"/>
      </g>
     </g>
    </g>
   </g>
   <g id="matplotlib.axis_2">
    <g id="ytick_1">
     <g id="line2d_6">
      <defs>
       <path id="m1314f28b0b" d="M 0 0 
L -3.5 0 
" style="stroke: #000000; stroke-width: 0.8"/>
      </defs>
      <g>
       <use xlink:href="#m1314f28b0b" x="41.92" y="386.241818" style="stroke: #000000; stroke-width: 0.8"/>
      </g>
     </g>
     <g id="text_6">
      <!-- 0.00 -->
      <g transform="translate(10.83875 390.067599) scale(0.1 -0.1)">
       <defs>
        <path id="DejaVuSansMono-2e" d="M 1528 953 
L 2316 953 
L 2316 0 
L 1528 0 
L 1528 953 
z
" transform="scale(0.015625)"/>
       </defs>
       <use xlink:href="#DejaVuSansMono-30"/>
       <use xlink:href="#DejaVuSansMono-2e" x="60.205078"/>
       <use xlink:href="#DejaVuSansMono-30" x="120.410156"/>
       <use xlink:href="#DejaVuSansMono-30" x="180.615234"/>
      </g>
     </g>
    </g>
    <g id="ytick_2">
     <g id="line2d_7">
      <g>
       <use xlink:href="#m1314f28b0b" x="41.92" y="338.376275" style="stroke: #000000; stroke-width: 0.8"/>
      </g>
     </g>
     <g id="text_7">
      <!-- 0.02 -->
      <g transform="translate(10.83875 342.202056) scale(0.1 -0.1)">
       <use xlink:href="#DejaVuSansMono-30"/>
       <use xlink:href="#DejaVuSansMono-2e" x="60.205078"/>
       <use xlink:href="#DejaVuSansMono-30" x="120.410156"/>
       <use xlink:href="#DejaVuSansMono-32" x="180.615234"/>
      </g>
     </g>
    </g>
    <g id="ytick_3">
     <g id="line2d_8">
      <g>
       <use xlink:href="#m1314f28b0b" x="41.92" y="290.510731" style="stroke: #000000; stroke-width: 0.8"/>
      </g>
     </g>
     <g id="text_8">
      <!-- 0.04 -->
      <g transform="translate(10.83875 294.336513) scale(0.1 -0.1)">
       <use xlink:href="#DejaVuSansMono-30"/>
       <use xlink:href="#DejaVuSansMono-2e" x="60.205078"/>
       <use xlink:href="#DejaVuSansMono-30" x="120.410156"/>
       <use xlink:href="#DejaVuSansMono-34" x="180.615234"/>
      </g>
     </g>
    </g>
    <g id="ytick_4">
     <g id="line2d_9">
      <g>
       <use xlink:href="#m1314f28b0b" x="41.92" y="242.645188" style="stroke: #000000; stroke-width: 0.8"/>
      </g>
     </g>
     <g id="text_9">
      <!-- 0.06 -->
      <g transform="translate(10.83875 246.470969) scale(0.1 -0.1)">
       <use xlink:href="#DejaVuSansMono-30"/>
       <use xlink:href="#DejaVuSansMono-2e" x="60.205078"/>
       <use xlink:href="#DejaVuSansMono-30" x="120.410156"/>
       <use xlink:href="#DejaVuSansMono-36" x="180.615234"/>
      </g>
     </g>
    </g>
    <g id="ytick_5">
     <g id="line2d_10">
      <g>
       <use xlink:href="#m1314f28b0b" x="41.92" y="194.779645" style="stroke: #000000; stroke-width: 0.8"/>
      </g>
     </g>
     <g id="text_10">
      <!-- 0.08 -->
      <g transform="translate(10.83875 198.605426) scale(0.1 -0.1)">
       <use xlink:href="#DejaVuSansMono-30"/>
       <use xlink:href="#DejaVuSansMono-2e" x="60.205078"/>
       <use xlink:href="#DejaVuSansMono-30" x="120.410156"/>
       <use xlink:href="#DejaVuSansMono-38" x="180.615234"/>
      </g>
     </g>
    </g>
    <g id="ytick_6">
     <g id="line2d_11">
      <g>
       <use xlink:href="#m1314f28b0b" x="41.92" y="146.914101" style="stroke: #000000; stroke-width: 0.8"/>
      </g>
     </g>
     <g id="text_11">
      <!-- 0.10 -->
      <g transform="translate(10.83875 150.739883) scale(0.1 -0.1)">
       <use xlink:href="#DejaVuSansMono-30"/>
       <use xlink:href="#DejaVuSansMono-2e" x="60.205078"/>
       <use xlink:href="#DejaVuSansMono-31" x="120.410156"/>
       <use xlink:href="#DejaVuSansMono-30" x="180.615234"/>
      </g>
     </g>
    </g>
    <g id="ytick_7">
     <g id="line2d_12">
      <g>
       <use xlink:href="#m1314f28b0b" x="41.92" y="99.048558" style="stroke: #000000; stroke-width: 0.8"/>
      </g>
     </g>
     <g id="text_12">
      <!-- 0.12 -->
      <g transform="translate(10.83875 102.874339) scale(0.1 -0.1)">
       <use xlink:href="#DejaVuSansMono-30"/>
       <use xlink:href="#DejaVuSansMono-2e" x="60.205078"/>
       <use xlink:href="#DejaVuSansMono-31" x="120.410156"/>
       <use xlink:href="#DejaVuSansMono-32" x="180.615234"/>
      </g>
     </g>
    </g>
    <g id="ytick_8">
     <g id="line2d_13">
      <g>
       <use xlink:href="#m1314f28b0b" x="41.92" y="51.183015" style="stroke: #000000; stroke-width: 0.8"/>
      </g>
     </g>
     <g id="text_13">
      <!-- 0.14 -->
      <g transform="translate(10.83875 55.008796) scale(0.1 -0.1)">
       <use xlink:href="#DejaVuSansMono-30"/>
       <use xlink:href="#DejaVuSansMono-2e" x="60.205078"/>
       <use xlink:href="#DejaVuSansMono-31" x="120.410156"/>
       <use xlink:href="#DejaVuSansMono-34" x="180.615234"/>
      </g>
     </g>
    </g>
   </g>
   <g id="line2d_14">
    <path d="M 41.8403 63.860099 
L 41.92 77.792296 
L 41.9997 65.110905 
L 42.0794 65.766497 
L 42.159101 80.517513 
L 42.318501 55.610242 
L 42.557602 80.256363 
L 42.637302 80.256363 
L 42.717002 78.536944 
L 42.876402 90.331017 
L 43.035803 97.081926 
L 43.274903 68.674083 
L 43.354604 68.800192 
L 43.514004 47.313933 
L 44.071905 113.221563 
L 44.311006 90.220671 
L 44.390706 90.220671 
L 44.470406 91.287761 
L 44.629807 82.633415 
L 44.789207 72.170852 
L 44.868907 58.071716 
L 45.028308 71.973633 
L 45.108008 71.973633 
L 45.267408 85.948975 
L 45.426809 69.330285 
L 45.506509 69.330285 
L 45.586209 83.334833 
L 45.665909 78.939018 
L 45.82531 81.054622 
L 45.90501 81.054622 
L 46.06441 108.296755 
L 46.144111 96.679949 
L 46.462911 133.634455 
L 46.622312 134.012793 
L 46.861412 141.565418 
L 46.941113 139.213759 
L 47.259913 178.973782 
L 47.339614 177.781522 
L 47.499014 199.26778 
L 47.817815 160.208608 
L 48.056915 160.208608 
L 48.136616 172.39983 
L 48.216316 172.100357 
L 48.375716 172.100357 
L 48.455416 175.345479 
L 48.614817 167.921303 
L 48.853917 205.810571 
L 49.172718 163.884545 
L 49.252418 163.884545 
L 49.332119 177.859887 
L 49.411819 176.531293 
L 49.571219 162.555951 
L 49.73062 166.951767 
L 49.89002 166.951767 
L 50.04942 163.36825 
L 50.129121 174.985056 
L 50.208821 161.712967 
L 50.288521 164.062196 
L 50.447921 160.993892 
L 50.527622 162.908514 
L 50.766722 142.395439 
L 50.846422 149.949916 
L 50.926123 147.2795 
L 51.085523 147.2795 
L 51.165223 161.354181 
L 51.244923 147.492131 
L 51.324624 161.467473 
L 51.484024 133.911675 
L 51.563724 134.454693 
L 51.643424 134.454693 
L 51.882525 157.148343 
L 52.121626 133.137924 
L 52.201326 147.113266 
L 52.360726 133.15039 
L 52.440426 133.15039 
L 52.679527 159.841454 
L 52.759227 158.556473 
L 52.838927 146.610826 
L 52.998328 160.933908 
L 53.078028 156.860245 
L 53.237428 164.581798 
L 53.317129 150.591868 
L 53.556229 178.542552 
L 53.635929 178.542552 
L 53.79533 164.56721 
L 53.87503 164.56721 
L 54.03443 153.253816 
L 54.114131 152.611326 
L 54.273531 165.883415 
L 54.512632 141.969803 
L 54.672032 144.433873 
L 54.751732 153.11533 
L 54.831432 142.538725 
L 54.990833 156.514067 
L 55.150233 156.514067 
L 55.548734 210.73671 
L 55.628434 210.73671 
L 55.787835 215.993743 
L 55.867535 215.993743 
L 56.106636 240.004162 
L 56.186336 240.004162 
L 56.345736 240.661242 
L 56.505137 226.6859 
L 56.584837 227.945519 
L 56.664537 214.233034 
L 56.744237 215.518014 
L 56.823937 226.794214 
L 56.903638 212.760337 
L 56.983338 226.387938 
L 57.063038 216.692804 
L 57.381839 236.936523 
L 57.541239 217.026485 
L 57.620939 217.026485 
L 57.78034 231.001827 
L 57.86004 218.800805 
L 57.93974 226.755468 
L 58.01944 225.720899 
L 58.099141 226.363389 
L 58.178841 225.703175 
L 58.258541 214.215445 
L 58.338241 219.103497 
L 58.417941 207.262545 
L 58.497642 220.300766 
L 58.657042 196.508871 
L 58.736742 201.802756 
L 58.896143 214.588892 
L 59.055543 206.374343 
L 59.135243 206.374343 
L 59.374344 180.471288 
L 59.454044 180.471288 
L 59.613444 170.744599 
L 59.852545 170.744599 
L 59.932245 169.433214 
L 60.011945 164.271244 
L 60.171346 142.699188 
L 60.330746 144.13882 
L 60.410446 153.053488 
L 60.569847 129.64333 
L 60.729247 143.355816 
L 60.808947 144.025264 
L 60.888648 158.059141 
L 60.968348 144.102665 
L 61.048048 157.871462 
L 61.127748 155.005262 
L 61.366849 155.005262 
L 61.526249 174.9153 
L 61.76535 174.9153 
L 61.92475 192.082385 
L 62.084151 165.620974 
L 62.163851 166.281188 
L 62.243551 167.36798 
L 62.482652 184.337146 
L 62.562352 183.945949 
L 62.721752 197.821578 
L 62.881153 199.010784 
L 63.040553 207.225333 
L 63.120253 207.225333 
L 63.199953 219.10919 
L 63.279654 206.166254 
L 63.359354 220.185451 
L 63.439054 206.215642 
L 63.598454 215.942331 
L 63.757855 201.972005 
L 63.837555 201.972005 
L 63.917255 191.709683 
L 63.996955 196.871653 
L 64.236056 229.654181 
L 64.315756 229.654181 
L 64.395456 228.614345 
L 64.554857 252.024503 
L 64.714257 238.049161 
L 64.793957 236.231482 
L 64.873658 231.648611 
L 65.033058 245.605087 
L 65.192458 248.471287 
L 65.351859 248.471287 
L 65.67066 246.210422 
L 65.75036 246.210422 
L 65.90976 247.521807 
L 65.98946 253.230146 
L 66.228561 277.667605 
L 66.467662 244.917322 
L 66.627062 259.298449 
L 66.786462 259.298449 
L 66.945863 258.638235 
L 67.184963 258.638235 
L 67.424064 281.411257 
L 67.503764 281.411257 
L 67.583464 280.134842 
L 67.663165 294.105169 
L 67.822565 280.213591 
L 67.902265 291.787298 
L 68.141366 263.664355 
L 68.221066 263.664355 
L 68.300766 249.68231 
L 68.380466 250.300423 
L 68.539867 250.300423 
L 68.619567 264.275765 
L 68.699267 250.300423 
L 68.778967 252.118102 
L 69.336869 204.35321 
L 69.65567 206.614076 
L 69.73537 206.614076 
L 69.97447 196.844883 
L 70.133871 196.844883 
L 70.213571 194.992023 
L 70.293271 208.967365 
L 70.372971 204.124266 
L 70.532372 213.92174 
L 70.771472 213.92174 
L 70.930873 202.208548 
L 71.010573 202.208548 
L 71.329374 173.096276 
L 71.488774 177.235999 
L 71.648175 175.853217 
L 71.727875 189.744794 
L 71.807575 189.106587 
L 71.887275 189.106587 
L 72.126376 217.885223 
L 72.206076 217.885223 
L 72.365476 237.349665 
L 72.445177 237.349665 
L 72.604577 223.541304 
L 72.763977 226.61803 
L 73.003078 256.848155 
L 73.162478 259.523312 
L 73.242179 270.66541 
L 73.401579 259.142223 
L 73.481279 259.142223 
L 73.72038 234.144503 
L 73.80008 238.62315 
L 73.95948 230.814912 
L 74.118881 230.814912 
L 74.278281 205.272184 
L 74.437682 221.213933 
L 74.597082 206.470057 
L 74.756482 206.470057 
L 74.836183 218.843463 
L 74.915883 218.183249 
L 74.995583 218.183249 
L 75.234684 241.739699 
L 75.872285 193.669868 
L 75.951985 193.669868 
L 76.111386 184.120632 
L 76.270786 184.120632 
L 76.430187 170.14529 
L 76.589587 171.785961 
L 76.748987 180.068973 
L 76.908388 177.549734 
L 76.988088 177.549734 
L 77.147488 171.874775 
L 77.227189 171.874775 
L 77.306889 183.397962 
L 77.466289 169.42262 
L 77.62569 167.819338 
L 77.78509 167.110019 
L 78.024191 183.908904 
L 78.183591 183.844018 
L 78.263291 197.81936 
L 78.342991 187.078799 
L 78.422692 188.885045 
L 78.502392 200.045405 
L 78.741492 182.104891 
L 78.821193 182.104891 
L 78.900893 182.765106 
L 79.139993 155.85779 
L 79.219694 155.85779 
L 79.458794 181.43733 
L 79.538494 181.43733 
L 79.697895 209.297334 
L 79.777595 198.519662 
L 79.857295 201.351943 
L 79.936995 201.351943 
L 80.096396 196.254344 
L 80.255796 196.254344 
L 80.494897 222.397375 
L 80.574597 222.397375 
L 80.654297 225.012979 
L 80.733997 211.037637 
L 80.813698 213.556876 
L 80.973098 213.556876 
L 81.132498 224.733063 
L 81.291899 224.094856 
L 81.451299 238.070198 
L 81.7701 258.438189 
L 81.8498 258.438189 
L 81.929501 263.154006 
L 82.088901 249.842824 
L 82.168601 252.869939 
L 82.328002 235.659817 
L 82.487402 235.659817 
L 82.567102 249.635159 
L 82.726503 229.203957 
L 82.885903 229.203957 
L 83.045303 256.111272 
L 83.125004 252.639161 
L 83.204704 252.639161 
L 83.364104 253.290393 
L 83.682905 253.290393 
L 83.762605 264.068064 
L 83.922006 250.092722 
L 84.001706 253.497025 
L 84.161106 240.151493 
L 84.639307 240.151493 
L 84.798708 254.126835 
L 84.958108 254.126835 
L 85.117509 256.92599 
L 85.276909 257.564197 
L 85.436309 257.564197 
L 85.51601 264.506528 
L 85.75511 237.034818 
L 85.83481 234.498895 
L 85.914511 220.523554 
L 85.994211 233.834735 
L 86.073911 220.573286 
L 86.472412 258.981987 
L 86.552112 245.172622 
L 86.791213 273.152512 
L 86.870913 273.152512 
L 87.030313 267.1926 
L 87.189714 270.664711 
L 87.428814 270.664711 
L 87.588215 256.768264 
L 87.747615 256.768264 
L 87.907016 270.743606 
L 87.986716 267.366399 
L 88.146116 281.34174 
L 88.385217 281.34174 
L 88.544617 268.025763 
L 88.704018 268.025763 
L 89.022818 226.154226 
L 89.261919 226.154226 
L 89.421319 207.435451 
L 89.50102 207.435451 
L 89.74012 234.907161 
L 89.81982 224.764413 
L 89.899521 238.739755 
L 89.979221 225.193978 
L 90.138621 238.455427 
L 90.457422 238.455427 
L 90.616822 252.264792 
L 90.855923 252.264792 
L 91.015323 244.249362 
L 91.095024 244.249362 
L 91.254424 230.526253 
L 91.413824 230.526253 
L 91.573225 244.422701 
L 91.732625 233.367142 
L 91.892026 233.367142 
L 92.051426 247.357072 
L 92.290527 247.357072 
L 92.370227 242.878424 
L 92.529627 256.194402 
L 92.689028 241.903732 
L 92.768728 241.903732 
L 93.007828 269.799927 
L 93.246929 269.799927 
L 93.406329 288.518701 
L 93.64543 288.518701 
L 93.72513 286.140289 
L 93.964231 312.364738 
L 94.123631 299.368985 
L 94.283032 299.368985 
L 94.442432 291.081816 
L 94.840933 291.081816 
L 94.920633 299.684495 
L 95.080034 286.981716 
L 95.159734 300.704825 
L 95.398834 272.963789 
L 95.558235 272.963789 
L 95.717635 271.326377 
L 95.877036 258.828152 
L 96.275537 258.828152 
L 96.434937 263.306799 
L 96.514637 263.306799 
L 96.753738 291.572812 
L 96.833438 291.572812 
L 96.992838 275.118141 
L 97.152239 275.118141 
L 97.391339 247.136022 
L 97.63044 247.136022 
L 97.78984 249.514434 
L 97.949241 249.514434 
L 98.108641 262.510187 
L 98.268042 249.042933 
L 98.427442 257.330102 
L 98.666543 257.330102 
L 98.825943 256.669887 
L 99.224444 288.316 
L 99.304144 274.340658 
L 99.383844 288.511023 
L 99.463545 284.501345 
L 99.543245 284.501345 
L 99.702645 297.194315 
L 99.782345 295.95178 
L 99.941746 282.032424 
L 100.021446 282.032424 
L 100.180846 268.145886 
L 100.260547 268.145886 
L 100.659048 249.862645 
L 100.818448 249.862645 
L 100.977848 266.317316 
L 101.137249 266.317316 
L 101.216949 280.351194 
L 101.296649 266.451374 
L 101.45605 280.399615 
L 102.093651 280.399615 
L 102.253052 293.866869 
L 102.651553 293.866869 
L 102.731253 294.527083 
L 102.890653 284.424808 
L 102.970353 284.424808 
L 103.129754 282.484313 
L 103.209454 282.484313 
L 103.368854 296.459655 
L 103.448555 300.469334 
L 103.528255 299.813641 
L 103.607955 299.813641 
L 103.687655 298.601856 
L 103.926756 316.414744 
L 104.006456 316.414744 
L 104.165856 330.301282 
L 104.245557 330.301282 
L 104.564357 348.584522 
L 104.644058 344.703532 
L 104.883158 316.813179 
L 105.201959 316.813179 
L 105.361359 330.712999 
L 105.44106 330.712999 
L 105.52076 328.210226 
L 105.68016 314.051323 
L 106.158361 314.051323 
L 106.317762 300.478408 
L 106.636563 300.478408 
L 106.716263 295.958914 
L 106.875663 306.061189 
L 106.955363 306.061189 
L 107.114764 308.001684 
L 107.274164 308.001684 
L 107.433565 306.672086 
L 107.672665 308.539564 
L 107.752365 299.151344 
L 107.832066 304.212018 
L 108.071166 280.716736 
L 108.549367 280.716736 
L 108.629068 284.597726 
L 108.708768 298.512737 
L 108.788468 289.472755 
L 108.947868 294.12364 
L 109.42607 294.12364 
L 109.50577 296.626413 
L 109.66517 303.142918 
L 110.143371 303.142918 
L 110.302772 302.740491 
L 110.462172 295.5512 
L 110.621573 295.5512 
L 110.780973 300.070694 
L 111.259174 300.070694 
L 111.418575 301.400292 
L 111.657675 301.400292 
L 111.817076 315.575066 
L 111.976476 315.555965 
L 112.056176 325.095006 
L 112.215577 318.796908 
L 112.693778 318.796908 
L 112.853178 337.161347 
L 113.012579 323.186006 
L 113.49078 323.186006 
L 113.65018 330.828403 
L 113.968981 330.828403 
L 114.128381 322.74983 
L 114.287782 336.725172 
L 114.447182 343.914463 
L 115.323884 343.914463 
L 115.562985 334.25915 
L 115.802086 334.25915 
L 115.961486 348.234492 
L 116.041186 348.234492 
L 116.200587 354.53259 
L 116.519387 354.53259 
L 116.758488 333.979188 
L 116.838188 333.979188 
L 116.997589 347.95453 
L 117.39609 347.95453 
L 117.55549 343.246444 
L 117.794591 343.246444 
L 117.953991 329.497286 
L 118.113391 337.575859 
L 119.308894 337.575859 
L 119.547995 347.231171 
L 120.504397 347.231171 
L 120.743498 367.784574 
L 121.3811 367.784574 
L 121.5405 372.49266 
L 121.6202 372.49266 
L 121.779601 368.485313 
L 121.939001 382.234471 
L 122.257802 382.234471 
L 122.417202 368.259129 
L 122.576603 361.245863 
L 123.373605 361.245863 
L 123.533005 360.581064 
L 124.090906 360.581064 
L 124.250307 349.817042 
L 124.887908 349.817042 
L 125.047309 348.540628 
L 125.206709 334.719579 
L 125.44581 334.719579 
L 125.60521 325.425299 
L 125.764611 329.432647 
L 125.924011 328.138983 
L 126.242812 328.138983 
L 126.322512 334.556608 
L 126.402212 320.581266 
L 126.561613 327.594532 
L 126.721013 327.594532 
L 126.880413 326.952042 
L 127.039814 321.971812 
L 127.358615 321.971812 
L 127.518015 322.636611 
L 127.757116 297.201063 
L 127.916516 297.201063 
L 128.075916 283.426806 
L 128.235317 280.810776 
L 128.315017 280.810776 
L 128.474417 276.41496 
L 128.872918 276.41496 
L 129.032319 277.691375 
L 129.112019 291.512423 
L 129.191719 288.473341 
L 129.43082 288.473341 
L 129.59022 297.767621 
L 129.66992 297.767621 
L 129.749621 295.359292 
L 129.909021 296.652955 
L 130.227822 296.652955 
L 130.546623 318.186014 
L 130.785723 294.242177 
L 130.865423 294.242177 
L 131.024824 299.222407 
L 131.503025 299.222407 
L 131.742126 324.657954 
L 131.901526 324.657954 
L 132.140627 351.812264 
L 132.300027 351.812264 
L 132.459427 356.208079 
L 132.539128 356.208079 
L 132.698528 354.367096 
L 133.017329 354.367096 
L 133.097029 341.340398 
L 133.176729 344.37948 
L 133.33613 334.45916 
L 133.41583 334.45916 
L 133.65493 311.423838 
L 133.734631 313.832167 
L 133.894031 299.827619 
L 134.292532 299.827619 
L 134.451932 290.064674 
L 134.531633 290.064674 
L 134.770733 314.651002 
L 134.850433 314.651002 
L 135.009834 312.196359 
L 135.488035 312.196359 
L 135.647435 298.262725 
L 136.524138 298.262725 
L 136.683538 300.103708 
L 137.002339 300.103708 
L 137.241439 323.050726 
L 137.40084 323.050726 
L 137.63994 346.086049 
L 137.719641 346.086049 
L 137.879041 360.090597 
L 138.277542 360.090597 
L 138.436942 369.853541 
L 138.835443 369.853541 
L 138.915144 372.308184 
L 139.074544 358.381787 
L 139.473045 358.381787 
L 139.632445 372.315421 
L 140.429447 372.315421 
L 140.588848 371.650622 
L 142.900154 371.650622 
L 143.059554 385.577019 
L 144.414457 385.577019 
L 144.573858 386.241818 
L 145.928761 386.241818 
L 146.088162 381.428523 
L 147.522765 381.428523 
L 147.682166 374.064594 
L 148.638568 374.064594 
L 148.797968 367.162352 
L 149.116769 367.162352 
L 149.27617 353.486484 
L 149.913771 353.486484 
L 150.073172 358.299779 
L 151.507775 358.299779 
L 151.667176 365.663708 
L 151.985976 365.663708 
L 152.145377 364.370045 
L 152.464178 364.370045 
L 152.623578 343.549841 
L 152.703278 350.452082 
L 153.101779 350.452082 
L 153.26118 364.127951 
L 154.934884 364.127951 
L 155.094284 350.175654 
L 155.970986 350.175654 
L 156.130387 351.469317 
L 156.449188 351.469317 
L 156.608588 372.289521 
L 156.767988 358.31418 
L 157.32589 358.31418 
L 157.48529 347.220878 
L 158.043192 347.220878 
L 158.202592 334.425139 
L 158.919894 334.425139 
L 159.079294 348.377436 
L 159.238695 334.402094 
L 160.593598 334.402094 
L 160.752998 348.377436 
L 160.912399 348.377436 
L 161.071799 339.58823 
L 161.3109 339.58823 
L 161.4703 350.681532 
L 162.028202 350.681532 
L 162.187602 363.47727 
L 163.064304 363.47727 
L 163.144005 377.452612 
L 163.303405 371.591525 
L 164.180107 371.591525 
L 164.339508 368.290453 
L 164.419208 368.290453 
L 164.578608 354.303768 
L 164.897409 354.303768 
L 165.056809 363.092974 
L 167.129015 363.092974 
L 167.288415 368.954061 
L 168.165117 368.954061 
L 168.244817 372.255133 
L 168.404218 361.501201 
L 168.483918 375.487886 
L 168.802719 355.214446 
L 171.671926 355.214446 
L 171.831326 352.727924 
L 172.229827 352.727924 
L 172.389228 363.481856 
L 172.468928 363.481856 
L 172.708029 383.755296 
L 172.787729 381.890405 
L 175.656936 381.890405 
L 175.816336 384.376927 
L 176.453938 384.376927 
L 176.613338 370.812849 
L 176.693039 370.812849 
L 176.852439 372.67774 
L 177.011839 372.67774 
L 177.17124 367.665641 
L 177.649441 367.665641 
L 177.808841 355.745105 
L 178.526143 355.745105 
L 178.685544 350.195476 
L 180.438948 350.195476 
L 180.598348 363.759554 
L 180.996849 363.759554 
L 181.15625 368.771653 
L 181.634451 368.771653 
L 181.793851 380.69219 
L 182.511153 380.69219 
L 182.670554 386.241818 
L 185.858562 386.241818 
L 186.017962 378.757954 
L 186.974364 378.757954 
L 187.133765 365.242978 
L 189.28567 365.242978 
L 189.445071 354.657328 
L 189.843572 354.657328 
L 190.002972 362.141193 
L 190.959374 362.141193 
L 191.118775 375.656169 
L 193.27068 375.656169 
L 193.430081 386.241818 
L 193.589481 372.637927 
L 197.17599 372.637927 
L 197.33539 368.475705 
L 197.415091 368.475705 
L 197.574491 382.079597 
L 200.842199 382.079597 
L 201.0016 381.469845 
L 201.161 381.469845 
L 201.3204 385.632066 
L 204.827209 385.632066 
L 204.98661 386.241818 
L 212.319028 386.241818 
L 212.478428 375.719652 
L 216.304038 375.719652 
L 216.463438 386.241818 
L 219.571746 386.241818 
L 219.731147 372.480475 
L 223.556756 372.480475 
L 223.716157 386.241818 
L 225.15076 386.241818 
L 225.310161 375.899678 
L 225.469561 371.136938 
L 226.107163 371.136938 
L 226.266563 361.825707 
L 227.940267 361.825707 
L 228.099668 347.981189 
L 229.13577 347.981189 
L 229.295171 358.323329 
L 229.454571 363.086069 
L 230.092173 363.086069 
L 230.251573 372.3973 
L 231.925277 372.3973 
L 232.084678 386.241818 
L 820.112755 386.241818 
L 820.272155 373.364285 
L 822.26466 373.364285 
L 822.424061 360.077765 
L 822.902262 360.077765 
L 823.061662 353.133542 
L 824.097765 353.133542 
L 824.177465 366.011074 
L 824.336865 350.022162 
L 824.416566 350.022162 
L 824.575966 335.985346 
L 824.974467 335.985346 
L 825.133867 321.599527 
L 826.24967 321.599527 
L 826.32937 334.886047 
L 826.568471 308.223116 
L 826.887272 308.223116 
L 827.046672 315.16734 
L 827.206073 315.16734 
L 827.365473 310.899075 
L 827.445173 310.899075 
L 827.604574 294.893561 
L 828.162475 294.893561 
L 828.242175 310.882473 
L 828.401576 299.705747 
L 828.560976 313.742563 
L 828.959477 313.742563 
L 829.118877 328.128382 
L 829.676779 328.128382 
L 829.836179 317.174077 
L 830.23468 317.174077 
L 830.31438 303.498208 
L 830.553481 330.16114 
L 831.191083 330.16114 
L 831.350483 334.429405 
L 831.430183 334.429405 
L 831.589584 350.434919 
L 831.908384 350.434919 
L 832.147485 320.029344 
L 832.227185 320.029344 
L 832.386586 331.20607 
L 832.625686 301.432184 
L 832.785087 301.432184 
L 833.103887 281.672476 
L 833.661789 281.672476 
L 833.821189 292.62678 
L 833.98059 277.309807 
L 834.13999 277.309807 
L 834.13999 277.309807 
" clip-path="url(#p1ae56c843f)" style="fill: none; stroke-dasharray: 7.4,3.2; stroke-dashoffset: 0; stroke: #000000; stroke-width: 2"/>
   </g>
   <g id="patch_3">
    <path d="M 41.92 404.12 
L 41.92 10.8 
" style="fill: none; stroke: #000000; stroke-width: 0.8; stroke-linejoin: miter; stroke-linecap: square"/>
   </g>
   <g id="patch_4">
    <path d="M 838.125 404.12 
L 838.125 10.8 
" style="fill: none; stroke: #000000; stroke-width: 0.8; stroke-linejoin: miter; stroke-linecap: square"/>
   </g>
   <g id="patch_5">
    <path d="M 41.92 404.12 
L 838.125 404.12 
" style="fill: none; stroke: #000000; stroke-width: 0.8; stroke-linejoin: miter; stroke-linecap: square"/>
   </g>
   <g id="patch_6">
    <path d="M 41.92 10.8 
L 838.125 10.8 
" style="fill: none; stroke: #000000; stroke-width: 0.8; stroke-linejoin: miter; stroke-linecap: square"/>
   </g>
  </g>
 </g>
 <defs>
  <clipPath id="p1ae56c843f">
   <rect x="41.92" y="10.8" width="796.205" height="393.32"/>
  </clipPath>
 </defs>
</svg>
