<?xml version="1.0" encoding="utf-8" standalone="no"?>
<!DOCTYPE svg PUBLIC "-//W3C//DTD SVG 1.1//EN"
  "http://www.w3.org/Graphics/SVG/1.1/DTD/svg11.dtd">
<svg xmlns:xlink="http://www.w3.org/1999/xlink" width="864pt" height="360pt" viewBox="0 0 864 360" xmlns="http://www.w3.org/2000/svg" version="1.1">
 <metadata>
  <rdf:RDF xmlns:dc="http://purl.org/dc/elements/1.1/" xmlns:cc="http://creativecommons.org/ns#" xmlns:rdf="http://www.w3.org/1999/02/22-rdf-syntax-ns#">
   <cc:Work>
    <dc:type rdf:resource="http://purl.org/dc/dcmitype/StillImage"/>
    <dc:date>2024-09-16T23:26:49.232592</dc:date>
    <dc:format>image/svg+xml</dc:format>
    <dc:creator>
     <cc:Agent>
      <dc:title>Matplotlib v3.9.2, https://matplotlib.org/</dc:title>
     </cc:Agent>
    </dc:creator>
   </cc:Work>
  </rdf:RDF>
 </metadata>
 <defs>
  <style type="text/css">*{stroke-linejoin: round; stroke-linecap: butt}</style>
 </defs>
 <g id="figure_1">
  <g id="patch_1">
   <path d="M 0 360 
L 864 360 
L 864 0 
L 0 0 
z
" style="fill: #ffffff"/>
  </g>
  <g id="axes_1">
   <g id="patch_2">
    <path d="M 36.36 328.931379 
L 853.2 328.931379 
L 853.2 19.095517 
L 36.36 19.095517 
z
" style="fill: #ffffff"/>
   </g>
   <g id="patch_3">
    <path d="M 51.930278 313.361102 
L 77.123515 313.361102 
L 77.123515 288.167864 
L 51.930278 288.167864 
z
" clip-path="url(#p0cb34ded9f)" style="stroke: #000000; stroke-linejoin: miter"/>
   </g>
   <g id="patch_4">
    <path d="M 80.329744 313.128532 
L 105.057842 313.128532 
L 105.057842 288.400434 
L 80.329744 288.400434 
z
" clip-path="url(#p0cb34ded9f)" style="stroke: #000000; stroke-linejoin: miter"/>
   </g>
   <g id="patch_5">
    <path d="M 108.540178 313.084994 
L 133.181201 313.084994 
L 133.181201 288.443971 
L 108.540178 288.443971 
z
" clip-path="url(#p0cb34ded9f)" style="stroke: #000000; stroke-linejoin: miter"/>
   </g>
   <g id="patch_6">
    <path d="M 136.751133 313.040935 
L 161.304039 313.040935 
L 161.304039 288.48803 
L 136.751133 288.48803 
z
" clip-path="url(#p0cb34ded9f)" style="stroke: #000000; stroke-linejoin: miter"/>
   </g>
   <g id="patch_7">
    <path d="M 164.949014 313.009952 
L 189.439952 313.009952 
L 189.439952 288.519014 
L 164.949014 288.519014 
z
" clip-path="url(#p0cb34ded9f)" style="stroke: #000000; stroke-linejoin: miter"/>
   </g>
   <g id="patch_8">
    <path d="M 193.191056 312.934806 
L 217.531703 312.934806 
L 217.531703 288.594159 
L 193.191056 288.594159 
z
" clip-path="url(#p0cb34ded9f)" style="stroke: #000000; stroke-linejoin: miter"/>
   </g>
   <g id="patch_9">
    <path d="M 221.46446 312.828299 
L 245.592092 312.828299 
L 245.592092 288.700667 
L 221.46446 288.700667 
z
" clip-path="url(#p0cb34ded9f)" style="stroke: #000000; stroke-linejoin: miter"/>
   </g>
   <g id="patch_10">
    <path d="M 251.222149 311.237506 
L 272.168196 311.237506 
L 272.168196 290.29146 
L 251.222149 290.29146 
z
" clip-path="url(#p0cb34ded9f)" style="stroke: #000000; stroke-linejoin: miter"/>
   </g>
   <g id="patch_11">
    <path d="M 284.402128 306.224424 
L 295.32201 306.224424 
L 295.32201 295.304542 
L 284.402128 295.304542 
z
" clip-path="url(#p0cb34ded9f)" style="stroke: #000000; stroke-linejoin: miter"/>
   </g>
   <g id="patch_12">
    <path d="M 313.910979 304.88247 
L 322.146952 304.88247 
L 322.146952 296.646496 
L 313.910979 296.646496 
z
" clip-path="url(#p0cb34ded9f)" style="stroke: #000000; stroke-linejoin: miter"/>
   </g>
   <g id="patch_13">
    <path d="M 342.589298 304.371047 
L 349.802426 304.371047 
L 349.802426 297.157919 
L 342.589298 297.157919 
z
" clip-path="url(#p0cb34ded9f)" style="stroke: #000000; stroke-linejoin: miter"/>
   </g>
   <g id="patch_14">
    <path d="M 370.846699 304.280543 
L 377.878818 304.280543 
L 377.878818 297.248423 
L 370.846699 297.248423 
z
" clip-path="url(#p0cb34ded9f)" style="stroke: #000000; stroke-linejoin: miter"/>
   </g>
   <g id="patch_15">
    <path d="M 399.122888 304.17125 
L 405.936423 304.17125 
L 405.936423 297.357715 
L 399.122888 297.357715 
z
" clip-path="url(#p0cb34ded9f)" style="stroke: #000000; stroke-linejoin: miter"/>
   </g>
   <g id="patch_16">
    <path d="M 427.40035 304.060684 
L 433.992753 304.060684 
L 433.992753 297.468281 
L 427.40035 297.468281 
z
" clip-path="url(#p0cb34ded9f)" style="stroke: #000000; stroke-linejoin: miter"/>
   </g>
   <g id="patch_17">
    <path d="M 455.519933 304.107998 
L 462.206964 304.107998 
L 462.206964 297.420967 
L 455.519933 297.420967 
z
" clip-path="url(#p0cb34ded9f)" style="stroke: #000000; stroke-linejoin: miter"/>
   </g>
   <g id="patch_18">
    <path d="M 483.811946 303.982881 
L 490.248743 303.982881 
L 490.248743 297.546084 
L 483.811946 297.546084 
z
" clip-path="url(#p0cb34ded9f)" style="stroke: #000000; stroke-linejoin: miter"/>
   </g>
   <g id="patch_19">
    <path d="M 512.058436 303.903288 
L 518.336046 303.903288 
L 518.336046 297.625678 
L 512.058436 297.625678 
z
" clip-path="url(#p0cb34ded9f)" style="stroke: #000000; stroke-linejoin: miter"/>
   </g>
   <g id="patch_20">
    <path d="M 540.344249 303.784371 
L 546.384026 303.784371 
L 546.384026 297.744594 
L 540.344249 297.744594 
z
" clip-path="url(#p0cb34ded9f)" style="stroke: #000000; stroke-linejoin: miter"/>
   </g>
   <g id="patch_21">
    <path d="M 568.572916 303.722601 
L 574.489153 303.722601 
L 574.489153 297.806365 
L 568.572916 297.806365 
z
" clip-path="url(#p0cb34ded9f)" style="stroke: #000000; stroke-linejoin: miter"/>
   </g>
   <g id="patch_22">
    <path d="M 596.852798 303.609616 
L 602.543064 303.609616 
L 602.543064 297.91935 
L 596.852798 297.91935 
z
" clip-path="url(#p0cb34ded9f)" style="stroke: #000000; stroke-linejoin: miter"/>
   </g>
   <g id="patch_23">
    <path d="M 625.154541 303.474769 
L 630.575114 303.474769 
L 630.575114 298.054196 
L 625.154541 298.054196 
z
" clip-path="url(#p0cb34ded9f)" style="stroke: #000000; stroke-linejoin: miter"/>
   </g>
   <g id="patch_24">
    <path d="M 653.399059 303.397148 
L 658.664389 303.397148 
L 658.664389 298.131818 
L 653.399059 298.131818 
z
" clip-path="url(#p0cb34ded9f)" style="stroke: #000000; stroke-linejoin: miter"/>
   </g>
   <g id="patch_25">
    <path d="M 681.65154 303.311564 
L 686.745701 303.311564 
L 686.745701 298.217402 
L 681.65154 298.217402 
z
" clip-path="url(#p0cb34ded9f)" style="stroke: #000000; stroke-linejoin: miter"/>
   </g>
   <g id="patch_26">
    <path d="M 709.855606 303.274394 
L 714.875429 303.274394 
L 714.875429 298.254571 
L 709.855606 298.254571 
z
" clip-path="url(#p0cb34ded9f)" style="stroke: #000000; stroke-linejoin: miter"/>
   </g>
   <g id="patch_27">
    <path d="M 738.120255 303.176642 
L 742.944573 303.176642 
L 742.944573 298.352324 
L 738.120255 298.352324 
z
" clip-path="url(#p0cb34ded9f)" style="stroke: #000000; stroke-linejoin: miter"/>
   </g>
   <g id="patch_28">
    <path d="M 766.268936 303.194857 
L 771.129685 303.194857 
L 771.129685 298.334108 
L 766.268936 298.334108 
z
" clip-path="url(#p0cb34ded9f)" style="stroke: #000000; stroke-linejoin: miter"/>
   </g>
   <g id="patch_29">
    <path d="M 794.545782 303.084908 
L 799.186632 303.084908 
L 799.186632 298.444058 
L 794.545782 298.444058 
z
" clip-path="url(#p0cb34ded9f)" style="stroke: #000000; stroke-linejoin: miter"/>
   </g>
   <g id="patch_30">
    <path d="M 52.982325 284.142158 
L 76.071468 284.142158 
L 76.071468 261.053014 
L 52.982325 261.053014 
z
" clip-path="url(#p0cb34ded9f)" style="stroke: #000000; stroke-linejoin: miter"/>
   </g>
   <g id="patch_31">
    <path d="M 81.590143 283.701236 
L 103.797443 283.701236 
L 103.797443 261.493936 
L 81.590143 261.493936 
z
" clip-path="url(#p0cb34ded9f)" style="stroke: #000000; stroke-linejoin: miter"/>
   </g>
   <g id="patch_32">
    <path d="M 109.802792 283.655484 
L 131.918588 283.655484 
L 131.918588 261.539688 
L 109.802792 261.539688 
z
" clip-path="url(#p0cb34ded9f)" style="stroke: #000000; stroke-linejoin: miter"/>
   </g>
   <g id="patch_33">
    <path d="M 138.040069 283.585103 
L 160.015103 283.585103 
L 160.015103 261.610069 
L 138.040069 261.610069 
z
" clip-path="url(#p0cb34ded9f)" style="stroke: #000000; stroke-linejoin: miter"/>
   </g>
   <g id="patch_34">
    <path d="M 166.289672 283.502397 
L 188.099294 283.502397 
L 188.099294 261.692775 
L 166.289672 261.692775 
z
" clip-path="url(#p0cb34ded9f)" style="stroke: #000000; stroke-linejoin: miter"/>
   </g>
   <g id="patch_35">
    <path d="M 195.104058 282.854907 
L 215.6187 282.854907 
L 215.6187 262.340265 
L 195.104058 262.340265 
z
" clip-path="url(#p0cb34ded9f)" style="stroke: #000000; stroke-linejoin: miter"/>
   </g>
   <g id="patch_36">
    <path d="M 227.440518 278.685344 
L 239.616034 278.685344 
L 239.616034 266.509828 
L 227.440518 266.509828 
z
" clip-path="url(#p0cb34ded9f)" style="stroke: #000000; stroke-linejoin: miter"/>
   </g>
   <g id="patch_37">
    <path d="M 258.446691 275.846068 
L 264.943654 275.846068 
L 264.943654 269.349104 
L 258.446691 269.349104 
z
" clip-path="url(#p0cb34ded9f)" style="stroke: #000000; stroke-linejoin: miter"/>
   </g>
   <g id="patch_38">
    <path d="M 286.588341 275.871314 
L 293.135797 275.871314 
L 293.135797 269.323858 
L 286.588341 269.323858 
z
" clip-path="url(#p0cb34ded9f)" style="stroke: #000000; stroke-linejoin: miter"/>
   </g>
   <g id="patch_39">
    <path d="M 315.131862 275.49469 
L 320.926069 275.49469 
L 320.926069 269.700482 
L 315.131862 269.700482 
z
" clip-path="url(#p0cb34ded9f)" style="stroke: #000000; stroke-linejoin: miter"/>
   </g>
   <g id="patch_40">
    <path d="M 343.38273 275.410718 
L 349.008994 275.410718 
L 349.008994 269.784454 
L 343.38273 269.784454 
z
" clip-path="url(#p0cb34ded9f)" style="stroke: #000000; stroke-linejoin: miter"/>
   </g>
   <g id="patch_41">
    <path d="M 371.535993 275.424351 
L 377.189524 275.424351 
L 377.189524 269.770821 
L 371.535993 269.770821 
z
" clip-path="url(#p0cb34ded9f)" style="stroke: #000000; stroke-linejoin: miter"/>
   </g>
   <g id="patch_42">
    <path d="M 399.797965 275.329277 
L 405.261346 275.329277 
L 405.261346 269.865896 
L 399.797965 269.865896 
z
" clip-path="url(#p0cb34ded9f)" style="stroke: #000000; stroke-linejoin: miter"/>
   </g>
   <g id="patch_43">
    <path d="M 427.968587 275.325551 
L 433.424517 275.325551 
L 433.424517 269.869621 
L 427.968587 269.869621 
z
" clip-path="url(#p0cb34ded9f)" style="stroke: #000000; stroke-linejoin: miter"/>
   </g>
   <g id="patch_44">
    <path d="M 456.199712 275.261323 
L 461.527185 275.261323 
L 461.527185 269.93385 
L 456.199712 269.93385 
z
" clip-path="url(#p0cb34ded9f)" style="stroke: #000000; stroke-linejoin: miter"/>
   </g>
   <g id="patch_45">
    <path d="M 484.356424 275.271507 
L 489.704265 275.271507 
L 489.704265 269.923666 
L 484.356424 269.923666 
z
" clip-path="url(#p0cb34ded9f)" style="stroke: #000000; stroke-linejoin: miter"/>
   </g>
   <g id="patch_46">
    <path d="M 512.619133 275.175694 
L 517.77535 275.175694 
L 517.77535 270.019478 
L 512.619133 270.019478 
z
" clip-path="url(#p0cb34ded9f)" style="stroke: #000000; stroke-linejoin: miter"/>
   </g>
   <g id="patch_47">
    <path d="M 540.936624 275.0251 
L 545.791652 275.0251 
L 545.791652 270.170072 
L 540.936624 270.170072 
z
" clip-path="url(#p0cb34ded9f)" style="stroke: #000000; stroke-linejoin: miter"/>
   </g>
   <g id="patch_48">
    <path d="M 569.101444 275.027177 
L 573.960625 275.027177 
L 573.960625 270.167996 
L 569.101444 270.167996 
z
" clip-path="url(#p0cb34ded9f)" style="stroke: #000000; stroke-linejoin: miter"/>
   </g>
   <g id="patch_49">
    <path d="M 597.316646 274.978871 
L 602.079216 274.978871 
L 602.079216 270.216301 
L 597.316646 270.216301 
z
" clip-path="url(#p0cb34ded9f)" style="stroke: #000000; stroke-linejoin: miter"/>
   </g>
   <g id="patch_50">
    <path d="M 625.54484 274.917574 
L 630.184816 274.917574 
L 630.184816 270.277598 
L 625.54484 270.277598 
z
" clip-path="url(#p0cb34ded9f)" style="stroke: #000000; stroke-linejoin: miter"/>
   </g>
   <g id="patch_51">
    <path d="M 653.806499 274.822811 
L 658.256949 274.822811 
L 658.256949 270.372361 
L 653.806499 270.372361 
z
" clip-path="url(#p0cb34ded9f)" style="stroke: #000000; stroke-linejoin: miter"/>
   </g>
   <g id="patch_52">
    <path d="M 682.005391 274.790816 
L 686.39185 274.790816 
L 686.39185 270.404357 
L 682.005391 270.404357 
z
" clip-path="url(#p0cb34ded9f)" style="stroke: #000000; stroke-linejoin: miter"/>
   </g>
   <g id="patch_53">
    <path d="M 710.289052 274.674052 
L 714.441983 274.674052 
L 714.441983 270.52112 
L 710.289052 270.52112 
z
" clip-path="url(#p0cb34ded9f)" style="stroke: #000000; stroke-linejoin: miter"/>
   </g>
   <g id="patch_54">
    <path d="M 738.45346 274.67654 
L 742.611368 274.67654 
L 742.611368 270.518632 
L 738.45346 270.518632 
z
" clip-path="url(#p0cb34ded9f)" style="stroke: #000000; stroke-linejoin: miter"/>
   </g>
   <g id="patch_55">
    <path d="M 766.616023 274.680874 
L 770.782598 274.680874 
L 770.782598 270.514299 
L 766.616023 270.514299 
z
" clip-path="url(#p0cb34ded9f)" style="stroke: #000000; stroke-linejoin: miter"/>
   </g>
   <g id="patch_56">
    <path d="M 794.920837 274.542956 
L 798.811576 274.542956 
L 798.811576 270.652217 
L 794.920837 270.652217 
z
" clip-path="url(#p0cb34ded9f)" style="stroke: #000000; stroke-linejoin: miter"/>
   </g>
   <g id="patch_57">
    <path d="M 54.282605 254.674981 
L 74.771188 254.674981 
L 74.771188 234.186399 
L 54.282605 234.186399 
z
" clip-path="url(#p0cb34ded9f)" style="stroke: #000000; stroke-linejoin: miter"/>
   </g>
   <g id="patch_58">
    <path d="M 82.654108 254.470375 
L 102.733479 254.470375 
L 102.733479 234.391004 
L 82.654108 234.391004 
z
" clip-path="url(#p0cb34ded9f)" style="stroke: #000000; stroke-linejoin: miter"/>
   </g>
   <g id="patch_59">
    <path d="M 110.88649 254.40489 
L 130.83489 254.40489 
L 130.83489 234.45649 
L 110.88649 234.45649 
z
" clip-path="url(#p0cb34ded9f)" style="stroke: #000000; stroke-linejoin: miter"/>
   </g>
   <g id="patch_60">
    <path d="M 139.110531 254.347745 
L 158.944641 254.347745 
L 158.944641 234.513635 
L 139.110531 234.513635 
z
" clip-path="url(#p0cb34ded9f)" style="stroke: #000000; stroke-linejoin: miter"/>
   </g>
   <g id="patch_61">
    <path d="M 167.315334 254.309838 
L 187.073631 254.309838 
L 187.073631 234.551541 
L 167.315334 234.551541 
z
" clip-path="url(#p0cb34ded9f)" style="stroke: #000000; stroke-linejoin: miter"/>
   </g>
   <g id="patch_62">
    <path d="M 195.499125 254.292944 
L 215.223633 254.292944 
L 215.223633 234.568436 
L 195.499125 234.568436 
z
" clip-path="url(#p0cb34ded9f)" style="stroke: #000000; stroke-linejoin: miter"/>
   </g>
   <g id="patch_63">
    <path d="M 223.661365 254.2976 
L 243.395186 254.2976 
L 243.395186 234.563779 
L 223.661365 234.563779 
z
" clip-path="url(#p0cb34ded9f)" style="stroke: #000000; stroke-linejoin: miter"/>
   </g>
   <g id="patch_64">
    <path d="M 251.89534 254.230522 
L 271.495005 254.230522 
L 271.495005 234.630857 
L 251.89534 234.630857 
z
" clip-path="url(#p0cb34ded9f)" style="stroke: #000000; stroke-linejoin: miter"/>
   </g>
   <g id="patch_65">
    <path d="M 280.181921 254.110838 
L 299.542217 254.110838 
L 299.542217 234.750542 
L 280.181921 234.750542 
z
" clip-path="url(#p0cb34ded9f)" style="stroke: #000000; stroke-linejoin: miter"/>
   </g>
   <g id="patch_66">
    <path d="M 308.60997 253.849686 
L 327.447961 253.849686 
L 327.447961 235.011694 
L 308.60997 235.011694 
z
" clip-path="url(#p0cb34ded9f)" style="stroke: #000000; stroke-linejoin: miter"/>
   </g>
   <g id="patch_67">
    <path d="M 337.258562 253.367989 
L 355.133162 253.367989 
L 355.133162 235.49339 
L 337.258562 235.49339 
z
" clip-path="url(#p0cb34ded9f)" style="stroke: #000000; stroke-linejoin: miter"/>
   </g>
   <g id="patch_68">
    <path d="M 366.041269 252.75218 
L 382.684249 252.75218 
L 382.684249 236.1092 
L 366.041269 236.1092 
z
" clip-path="url(#p0cb34ded9f)" style="stroke: #000000; stroke-linejoin: miter"/>
   </g>
   <g id="patch_69">
    <path d="M 394.850151 252.110194 
L 410.20916 252.110194 
L 410.20916 236.751185 
L 394.850151 236.751185 
z
" clip-path="url(#p0cb34ded9f)" style="stroke: #000000; stroke-linejoin: miter"/>
   </g>
   <g id="patch_70">
    <path d="M 423.564683 251.562559 
L 437.828421 251.562559 
L 437.828421 237.298821 
L 423.564683 237.298821 
z
" clip-path="url(#p0cb34ded9f)" style="stroke: #000000; stroke-linejoin: miter"/>
   </g>
   <g id="patch_71">
    <path d="M 452.265245 251.028892 
L 465.461651 251.028892 
L 465.461651 237.832487 
L 452.265245 237.832487 
z
" clip-path="url(#p0cb34ded9f)" style="stroke: #000000; stroke-linejoin: miter"/>
   </g>
   <g id="patch_72">
    <path d="M 480.845999 250.615035 
L 493.21469 250.615035 
L 493.21469 238.246344 
L 480.845999 238.246344 
z
" clip-path="url(#p0cb34ded9f)" style="stroke: #000000; stroke-linejoin: miter"/>
   </g>
   <g id="patch_73">
    <path d="M 509.502991 250.12494 
L 520.891492 250.12494 
L 520.891492 238.736439 
L 509.502991 238.736439 
z
" clip-path="url(#p0cb34ded9f)" style="stroke: #000000; stroke-linejoin: miter"/>
   </g>
   <g id="patch_74">
    <path d="M 538.029839 249.764989 
L 548.698437 249.764989 
L 548.698437 239.096391 
L 538.029839 239.096391 
z
" clip-path="url(#p0cb34ded9f)" style="stroke: #000000; stroke-linejoin: miter"/>
   </g>
   <g id="patch_75">
    <path d="M 566.518623 249.443101 
L 576.543446 249.443101 
L 576.543446 239.418278 
L 566.518623 239.418278 
z
" clip-path="url(#p0cb34ded9f)" style="stroke: #000000; stroke-linejoin: miter"/>
   </g>
   <g id="patch_76">
    <path d="M 594.956941 249.17168 
L 604.438921 249.17168 
L 604.438921 239.689699 
L 594.956941 239.689699 
z
" clip-path="url(#p0cb34ded9f)" style="stroke: #000000; stroke-linejoin: miter"/>
   </g>
   <g id="patch_77">
    <path d="M 623.325772 248.969745 
L 632.403883 248.969745 
L 632.403883 239.891634 
L 623.325772 239.891634 
z
" clip-path="url(#p0cb34ded9f)" style="stroke: #000000; stroke-linejoin: miter"/>
   </g>
   <g id="patch_78">
    <path d="M 651.852862 248.609551 
L 660.210586 248.609551 
L 660.210586 240.251828 
L 651.852862 240.251828 
z
" clip-path="url(#p0cb34ded9f)" style="stroke: #000000; stroke-linejoin: miter"/>
   </g>
   <g id="patch_79">
    <path d="M 680.086223 248.543087 
L 688.311018 248.543087 
L 688.311018 240.318292 
L 680.086223 240.318292 
z
" clip-path="url(#p0cb34ded9f)" style="stroke: #000000; stroke-linejoin: miter"/>
   </g>
   <g id="patch_80">
    <path d="M 708.399212 248.396995 
L 716.331823 248.396995 
L 716.331823 240.464384 
L 708.399212 240.464384 
z
" clip-path="url(#p0cb34ded9f)" style="stroke: #000000; stroke-linejoin: miter"/>
   </g>
   <g id="patch_81">
    <path d="M 736.799243 248.163861 
L 744.265585 248.163861 
L 744.265585 240.697518 
L 736.799243 240.697518 
z
" clip-path="url(#p0cb34ded9f)" style="stroke: #000000; stroke-linejoin: miter"/>
   </g>
   <g id="patch_82">
    <path d="M 764.944573 248.185427 
L 772.454047 248.185427 
L 772.454047 240.675953 
L 764.944573 240.675953 
z
" clip-path="url(#p0cb34ded9f)" style="stroke: #000000; stroke-linejoin: miter"/>
   </g>
   <g id="patch_83">
    <path d="M 793.329297 247.967599 
L 800.403117 247.967599 
L 800.403117 240.89378 
L 793.329297 240.89378 
z
" clip-path="url(#p0cb34ded9f)" style="stroke: #000000; stroke-linejoin: miter"/>
   </g>
   <g id="patch_84">
    <path d="M 54.372562 226.418127 
L 74.681231 226.418127 
L 74.681231 206.109459 
L 54.372562 206.109459 
z
" clip-path="url(#p0cb34ded9f)" style="stroke: #000000; stroke-linejoin: miter"/>
   </g>
   <g id="patch_85">
    <path d="M 82.952506 226.00508 
L 102.43508 226.00508 
L 102.43508 206.522506 
L 82.952506 206.522506 
z
" clip-path="url(#p0cb34ded9f)" style="stroke: #000000; stroke-linejoin: miter"/>
   </g>
   <g id="patch_86">
    <path d="M 111.147022 225.977461 
L 130.574357 225.977461 
L 130.574357 206.550126 
L 111.147022 206.550126 
z
" clip-path="url(#p0cb34ded9f)" style="stroke: #000000; stroke-linejoin: miter"/>
   </g>
   <g id="patch_87">
    <path d="M 139.377692 225.913688 
L 158.677481 225.913688 
L 158.677481 206.613899 
L 139.377692 206.613899 
z
" clip-path="url(#p0cb34ded9f)" style="stroke: #000000; stroke-linejoin: miter"/>
   </g>
   <g id="patch_88">
    <path d="M 167.542207 225.916069 
L 186.846759 225.916069 
L 186.846759 206.611517 
L 167.542207 206.611517 
z
" clip-path="url(#p0cb34ded9f)" style="stroke: #000000; stroke-linejoin: miter"/>
   </g>
   <g id="patch_89">
    <path d="M 195.740737 225.884436 
L 214.982022 225.884436 
L 214.982022 206.643151 
L 195.740737 206.643151 
z
" clip-path="url(#p0cb34ded9f)" style="stroke: #000000; stroke-linejoin: miter"/>
   </g>
   <g id="patch_90">
    <path d="M 223.890747 225.901322 
L 243.165805 225.901322 
L 243.165805 206.626264 
L 223.890747 206.626264 
z
" clip-path="url(#p0cb34ded9f)" style="stroke: #000000; stroke-linejoin: miter"/>
   </g>
   <g id="patch_91">
    <path d="M 252.064208 225.894757 
L 271.326137 225.894757 
L 271.326137 206.632829 
L 252.064208 206.632829 
z
" clip-path="url(#p0cb34ded9f)" style="stroke: #000000; stroke-linejoin: miter"/>
   </g>
   <g id="patch_92">
    <path d="M 280.295676 225.830186 
L 299.428462 225.830186 
L 299.428462 206.6974 
L 280.295676 206.6974 
z
" clip-path="url(#p0cb34ded9f)" style="stroke: #000000; stroke-linejoin: miter"/>
   </g>
   <g id="patch_93">
    <path d="M 308.639296 225.653462 
L 327.418635 225.653462 
L 327.418635 206.874124 
L 308.639296 206.874124 
z
" clip-path="url(#p0cb34ded9f)" style="stroke: #000000; stroke-linejoin: miter"/>
   </g>
   <g id="patch_94">
    <path d="M 337.134144 225.325511 
L 355.25758 225.325511 
L 355.25758 207.202075 
L 337.134144 207.202075 
z
" clip-path="url(#p0cb34ded9f)" style="stroke: #000000; stroke-linejoin: miter"/>
   </g>
   <g id="patch_95">
    <path d="M 365.780962 224.84559 
L 382.944555 224.84559 
L 382.944555 207.681997 
L 365.780962 207.681997 
z
" clip-path="url(#p0cb34ded9f)" style="stroke: #000000; stroke-linejoin: miter"/>
   </g>
   <g id="patch_96">
    <path d="M 394.485 224.308448 
L 410.57431 224.308448 
L 410.57431 208.219138 
L 394.485 208.219138 
z
" clip-path="url(#p0cb34ded9f)" style="stroke: #000000; stroke-linejoin: miter"/>
   </g>
   <g id="patch_97">
    <path d="M 423.121507 223.838838 
L 438.271597 223.838838 
L 438.271597 208.688748 
L 423.121507 208.688748 
z
" clip-path="url(#p0cb34ded9f)" style="stroke: #000000; stroke-linejoin: miter"/>
   </g>
   <g id="patch_98">
    <path d="M 451.78863 223.338611 
L 465.938266 223.338611 
L 465.938266 209.188975 
L 451.78863 209.188975 
z
" clip-path="url(#p0cb34ded9f)" style="stroke: #000000; stroke-linejoin: miter"/>
   </g>
   <g id="patch_99">
    <path d="M 480.412614 222.881524 
L 493.648075 222.881524 
L 493.648075 209.646062 
L 480.412614 209.646062 
z
" clip-path="url(#p0cb34ded9f)" style="stroke: #000000; stroke-linejoin: miter"/>
   </g>
   <g id="patch_100">
    <path d="M 509.069003 222.392032 
L 521.32548 222.392032 
L 521.32548 210.135554 
L 509.069003 210.135554 
z
" clip-path="url(#p0cb34ded9f)" style="stroke: #000000; stroke-linejoin: miter"/>
   </g>
   <g id="patch_101">
    <path d="M 537.641099 221.986832 
L 549.087177 221.986832 
L 549.087177 210.540754 
L 537.641099 210.540754 
z
" clip-path="url(#p0cb34ded9f)" style="stroke: #000000; stroke-linejoin: miter"/>
   </g>
   <g id="patch_102">
    <path d="M 566.094859 221.699969 
L 576.96721 221.699969 
L 576.96721 210.827618 
L 566.094859 210.827618 
z
" clip-path="url(#p0cb34ded9f)" style="stroke: #000000; stroke-linejoin: miter"/>
   </g>
   <g id="patch_103">
    <path d="M 594.587416 221.374308 
L 604.808446 221.374308 
L 604.808446 211.153278 
L 594.587416 211.153278 
z
" clip-path="url(#p0cb34ded9f)" style="stroke: #000000; stroke-linejoin: miter"/>
   </g>
   <g id="patch_104">
    <path d="M 622.897458 221.231162 
L 632.832197 221.231162 
L 632.832197 211.296424 
L 622.897458 211.296424 
z
" clip-path="url(#p0cb34ded9f)" style="stroke: #000000; stroke-linejoin: miter"/>
   </g>
   <g id="patch_105">
    <path d="M 651.451957 220.84356 
L 660.611491 220.84356 
L 660.611491 211.684026 
L 651.451957 211.684026 
z
" clip-path="url(#p0cb34ded9f)" style="stroke: #000000; stroke-linejoin: miter"/>
   </g>
   <g id="patch_106">
    <path d="M 679.753664 220.708749 
L 688.643577 220.708749 
L 688.643577 211.818837 
L 679.753664 211.818837 
z
" clip-path="url(#p0cb34ded9f)" style="stroke: #000000; stroke-linejoin: miter"/>
   </g>
   <g id="patch_107">
    <path d="M 708.09341 220.5359 
L 716.637624 220.5359 
L 716.637624 211.991686 
L 708.09341 211.991686 
z
" clip-path="url(#p0cb34ded9f)" style="stroke: #000000; stroke-linejoin: miter"/>
   </g>
   <g id="patch_108">
    <path d="M 736.421643 220.374564 
L 744.643184 220.374564 
L 744.643184 212.153022 
L 736.421643 212.153022 
z
" clip-path="url(#p0cb34ded9f)" style="stroke: #000000; stroke-linejoin: miter"/>
   </g>
   <g id="patch_109">
    <path d="M 764.637573 220.32553 
L 772.761048 220.32553 
L 772.761048 212.202056 
L 764.637573 212.202056 
z
" clip-path="url(#p0cb34ded9f)" style="stroke: #000000; stroke-linejoin: miter"/>
   </g>
   <g id="patch_110">
    <path d="M 792.976374 220.153626 
L 800.75604 220.153626 
L 800.75604 212.37396 
L 792.976374 212.37396 
z
" clip-path="url(#p0cb34ded9f)" style="stroke: #000000; stroke-linejoin: miter"/>
   </g>
   <g id="patch_111">
    <path d="M 54.853562 197.770232 
L 74.200232 197.770232 
L 74.200232 178.423562 
L 54.853562 178.423562 
z
" clip-path="url(#p0cb34ded9f)" style="stroke: #000000; stroke-linejoin: miter"/>
   </g>
   <g id="patch_112">
    <path d="M 83.325447 197.465242 
L 102.062139 197.465242 
L 102.062139 178.728551 
L 83.325447 178.728551 
z
" clip-path="url(#p0cb34ded9f)" style="stroke: #000000; stroke-linejoin: miter"/>
   </g>
   <g id="patch_113">
    <path d="M 111.528953 197.428633 
L 130.192426 197.428633 
L 130.192426 178.76516 
L 111.528953 178.76516 
z
" clip-path="url(#p0cb34ded9f)" style="stroke: #000000; stroke-linejoin: miter"/>
   </g>
   <g id="patch_114">
    <path d="M 139.724916 197.399566 
L 158.330256 197.399566 
L 158.330256 178.794227 
L 139.724916 178.794227 
z
" clip-path="url(#p0cb34ded9f)" style="stroke: #000000; stroke-linejoin: miter"/>
   </g>
   <g id="patch_115">
    <path d="M 167.928492 197.362887 
L 186.460473 197.362887 
L 186.460473 178.830906 
L 167.928492 178.830906 
z
" clip-path="url(#p0cb34ded9f)" style="stroke: #000000; stroke-linejoin: miter"/>
   </g>
   <g id="patch_116">
    <path d="M 196.163124 197.295152 
L 214.559635 197.295152 
L 214.559635 178.898641 
L 196.163124 178.898641 
z
" clip-path="url(#p0cb34ded9f)" style="stroke: #000000; stroke-linejoin: miter"/>
   </g>
   <g id="patch_117">
    <path d="M 224.462486 197.162686 
L 242.594065 197.162686 
L 242.594065 179.031107 
L 224.462486 179.031107 
z
" clip-path="url(#p0cb34ded9f)" style="stroke: #000000; stroke-linejoin: miter"/>
   </g>
   <g id="patch_118">
    <path d="M 252.738709 197.05336 
L 270.651636 197.05336 
L 270.651636 179.140433 
L 252.738709 179.140433 
z
" clip-path="url(#p0cb34ded9f)" style="stroke: #000000; stroke-linejoin: miter"/>
   </g>
   <g id="patch_119">
    <path d="M 280.967158 196.991807 
L 298.75698 196.991807 
L 298.75698 179.201986 
L 280.967158 179.201986 
z
" clip-path="url(#p0cb34ded9f)" style="stroke: #000000; stroke-linejoin: miter"/>
   </g>
   <g id="patch_120">
    <path d="M 309.5606 196.565262 
L 326.497331 196.565262 
L 326.497331 179.628531 
L 309.5606 179.628531 
z
" clip-path="url(#p0cb34ded9f)" style="stroke: #000000; stroke-linejoin: miter"/>
   </g>
   <g id="patch_121">
    <path d="M 338.319153 195.973606 
L 354.072571 195.973606 
L 354.072571 180.220188 
L 338.319153 180.220188 
z
" clip-path="url(#p0cb34ded9f)" style="stroke: #000000; stroke-linejoin: miter"/>
   </g>
   <g id="patch_122">
    <path d="M 367.022864 195.436791 
L 381.702653 195.436791 
L 381.702653 180.757002 
L 367.022864 180.757002 
z
" clip-path="url(#p0cb34ded9f)" style="stroke: #000000; stroke-linejoin: miter"/>
   </g>
   <g id="patch_123">
    <path d="M 395.683848 194.942704 
L 409.375463 194.942704 
L 409.375463 181.251089 
L 395.683848 181.251089 
z
" clip-path="url(#p0cb34ded9f)" style="stroke: #000000; stroke-linejoin: miter"/>
   </g>
   <g id="patch_124">
    <path d="M 424.2609 194.532548 
L 437.132203 194.532548 
L 437.132203 181.661245 
L 424.2609 181.661245 
z
" clip-path="url(#p0cb34ded9f)" style="stroke: #000000; stroke-linejoin: miter"/>
   </g>
   <g id="patch_125">
    <path d="M 452.920314 194.040031 
L 464.806583 194.040031 
L 464.806583 182.153762 
L 452.920314 182.153762 
z
" clip-path="url(#p0cb34ded9f)" style="stroke: #000000; stroke-linejoin: miter"/>
   </g>
   <g id="patch_126">
    <path d="M 481.46502 193.662221 
L 492.59567 193.662221 
L 492.59567 182.531572 
L 481.46502 182.531572 
z
" clip-path="url(#p0cb34ded9f)" style="stroke: #000000; stroke-linejoin: miter"/>
   </g>
   <g id="patch_127">
    <path d="M 510.01065 193.283488 
L 520.383832 193.283488 
L 520.383832 182.910306 
L 510.01065 182.910306 
z
" clip-path="url(#p0cb34ded9f)" style="stroke: #000000; stroke-linejoin: miter"/>
   </g>
   <g id="patch_128">
    <path d="M 538.55359 192.907444 
L 548.174686 192.907444 
L 548.174686 183.286349 
L 538.55359 183.286349 
z
" clip-path="url(#p0cb34ded9f)" style="stroke: #000000; stroke-linejoin: miter"/>
   </g>
   <g id="patch_129">
    <path d="M 566.896915 192.731016 
L 576.165154 192.731016 
L 576.165154 183.462777 
L 566.896915 183.462777 
z
" clip-path="url(#p0cb34ded9f)" style="stroke: #000000; stroke-linejoin: miter"/>
   </g>
   <g id="patch_130">
    <path d="M 595.27359 192.521238 
L 604.122272 192.521238 
L 604.122272 183.672556 
L 595.27359 183.672556 
z
" clip-path="url(#p0cb34ded9f)" style="stroke: #000000; stroke-linejoin: miter"/>
   </g>
   <g id="patch_131">
    <path d="M 623.61716 192.344564 
L 632.112495 192.344564 
L 632.112495 183.849229 
L 623.61716 183.849229 
z
" clip-path="url(#p0cb34ded9f)" style="stroke: #000000; stroke-linejoin: miter"/>
   </g>
   <g id="patch_132">
    <path d="M 652.064776 192.063844 
L 659.998672 192.063844 
L 659.998672 184.129949 
L 652.064776 184.129949 
z
" clip-path="url(#p0cb34ded9f)" style="stroke: #000000; stroke-linejoin: miter"/>
   </g>
   <g id="patch_133">
    <path d="M 680.349402 191.946116 
L 688.04784 191.946116 
L 688.04784 184.247677 
L 680.349402 184.247677 
z
" clip-path="url(#p0cb34ded9f)" style="stroke: #000000; stroke-linejoin: miter"/>
   </g>
   <g id="patch_134">
    <path d="M 708.604216 191.858197 
L 716.126818 191.858197 
L 716.126818 184.335596 
L 708.604216 184.335596 
z
" clip-path="url(#p0cb34ded9f)" style="stroke: #000000; stroke-linejoin: miter"/>
   </g>
   <g id="patch_135">
    <path d="M 736.934223 191.695087 
L 744.130604 191.695087 
L 744.130604 184.498706 
L 736.934223 184.498706 
z
" clip-path="url(#p0cb34ded9f)" style="stroke: #000000; stroke-linejoin: miter"/>
   </g>
   <g id="patch_136">
    <path d="M 765.130748 191.665459 
L 772.267873 191.665459 
L 772.267873 184.528334 
L 765.130748 184.528334 
z
" clip-path="url(#p0cb34ded9f)" style="stroke: #000000; stroke-linejoin: miter"/>
   </g>
   <g id="patch_137">
    <path d="M 793.575217 191.387886 
L 800.157197 191.387886 
L 800.157197 184.805907 
L 793.575217 184.805907 
z
" clip-path="url(#p0cb34ded9f)" style="stroke: #000000; stroke-linejoin: miter"/>
   </g>
   <g id="patch_138">
    <path d="M 53.570437 170.886459 
L 75.483356 170.886459 
L 75.483356 148.973541 
L 53.570437 148.973541 
z
" clip-path="url(#p0cb34ded9f)" style="stroke: #000000; stroke-linejoin: miter"/>
   </g>
   <g id="patch_139">
    <path d="M 83.315795 169.307999 
L 102.071792 169.307999 
L 102.071792 150.552001 
L 83.315795 150.552001 
z
" clip-path="url(#p0cb34ded9f)" style="stroke: #000000; stroke-linejoin: miter"/>
   </g>
   <g id="patch_140">
    <path d="M 111.596846 169.193844 
L 130.124534 169.193844 
L 130.124534 150.666156 
L 111.596846 150.666156 
z
" clip-path="url(#p0cb34ded9f)" style="stroke: #000000; stroke-linejoin: miter"/>
   </g>
   <g id="patch_141">
    <path d="M 139.799119 169.158467 
L 158.256053 169.158467 
L 158.256053 150.701533 
L 139.799119 150.701533 
z
" clip-path="url(#p0cb34ded9f)" style="stroke: #000000; stroke-linejoin: miter"/>
   </g>
   <g id="patch_142">
    <path d="M 168.059897 169.064586 
L 186.329068 169.064586 
L 186.329068 150.795414 
L 168.059897 150.795414 
z
" clip-path="url(#p0cb34ded9f)" style="stroke: #000000; stroke-linejoin: miter"/>
   </g>
   <g id="patch_143">
    <path d="M 196.271457 169.019922 
L 214.451302 169.019922 
L 214.451302 150.840078 
L 196.271457 150.840078 
z
" clip-path="url(#p0cb34ded9f)" style="stroke: #000000; stroke-linejoin: miter"/>
   </g>
   <g id="patch_144">
    <path d="M 224.342666 169.11561 
L 242.713886 169.11561 
L 242.713886 150.74439 
L 224.342666 150.74439 
z
" clip-path="url(#p0cb34ded9f)" style="stroke: #000000; stroke-linejoin: miter"/>
   </g>
   <g id="patch_145">
    <path d="M 252.588334 169.036839 
L 270.802011 169.036839 
L 270.802011 150.823161 
L 252.588334 150.823161 
z
" clip-path="url(#p0cb34ded9f)" style="stroke: #000000; stroke-linejoin: miter"/>
   </g>
   <g id="patch_146">
    <path d="M 280.973555 168.818514 
L 298.750583 168.818514 
L 298.750583 151.041486 
L 280.973555 151.041486 
z
" clip-path="url(#p0cb34ded9f)" style="stroke: #000000; stroke-linejoin: miter"/>
   </g>
   <g id="patch_147">
    <path d="M 309.492086 168.466879 
L 326.565845 168.466879 
L 326.565845 151.393121 
L 309.492086 151.393121 
z
" clip-path="url(#p0cb34ded9f)" style="stroke: #000000; stroke-linejoin: miter"/>
   </g>
   <g id="patch_148">
    <path d="M 338.029042 168.09682 
L 354.362682 168.09682 
L 354.362682 151.76318 
L 338.029042 151.76318 
z
" clip-path="url(#p0cb34ded9f)" style="stroke: #000000; stroke-linejoin: miter"/>
   </g>
   <g id="patch_149">
    <path d="M 366.634795 167.657964 
L 382.090722 167.657964 
L 382.090722 152.202036 
L 366.634795 152.202036 
z
" clip-path="url(#p0cb34ded9f)" style="stroke: #000000; stroke-linejoin: miter"/>
   </g>
   <g id="patch_150">
    <path d="M 395.205756 167.253899 
L 409.853554 167.253899 
L 409.853554 152.606101 
L 395.205756 152.606101 
z
" clip-path="url(#p0cb34ded9f)" style="stroke: #000000; stroke-linejoin: miter"/>
   </g>
   <g id="patch_151">
    <path d="M 423.818685 166.807866 
L 437.574418 166.807866 
L 437.574418 153.052134 
L 423.818685 153.052134 
z
" clip-path="url(#p0cb34ded9f)" style="stroke: #000000; stroke-linejoin: miter"/>
   </g>
   <g id="patch_152">
    <path d="M 452.403149 166.3903 
L 465.323748 166.3903 
L 465.323748 153.4697 
L 452.403149 153.4697 
z
" clip-path="url(#p0cb34ded9f)" style="stroke: #000000; stroke-linejoin: miter"/>
   </g>
   <g id="patch_153">
    <path d="M 480.912538 166.047807 
L 493.148151 166.047807 
L 493.148151 153.812193 
L 480.912538 153.812193 
z
" clip-path="url(#p0cb34ded9f)" style="stroke: #000000; stroke-linejoin: miter"/>
   </g>
   <g id="patch_154">
    <path d="M 509.43693 165.690311 
L 520.957553 165.690311 
L 520.957553 154.169689 
L 509.43693 154.169689 
z
" clip-path="url(#p0cb34ded9f)" style="stroke: #000000; stroke-linejoin: miter"/>
   </g>
   <g id="patch_155">
    <path d="M 537.928135 165.366003 
L 548.80014 165.366003 
L 548.80014 154.493997 
L 537.928135 154.493997 
z
" clip-path="url(#p0cb34ded9f)" style="stroke: #000000; stroke-linejoin: miter"/>
   </g>
   <g id="patch_156">
    <path d="M 566.320818 165.140217 
L 576.741251 165.140217 
L 576.741251 154.719783 
L 566.320818 154.719783 
z
" clip-path="url(#p0cb34ded9f)" style="stroke: #000000; stroke-linejoin: miter"/>
   </g>
   <g id="patch_157">
    <path d="M 594.699438 164.928493 
L 604.696424 164.928493 
L 604.696424 154.931507 
L 594.699438 154.931507 
z
" clip-path="url(#p0cb34ded9f)" style="stroke: #000000; stroke-linejoin: miter"/>
   </g>
   <g id="patch_158">
    <path d="M 623.135144 164.659684 
L 632.594511 164.659684 
L 632.594511 155.200316 
L 623.135144 155.200316 
z
" clip-path="url(#p0cb34ded9f)" style="stroke: #000000; stroke-linejoin: miter"/>
   </g>
   <g id="patch_159">
    <path d="M 651.590601 164.371123 
L 660.472848 164.371123 
L 660.472848 155.488877 
L 651.590601 155.488877 
z
" clip-path="url(#p0cb34ded9f)" style="stroke: #000000; stroke-linejoin: miter"/>
   </g>
   <g id="patch_160">
    <path d="M 679.962686 164.165935 
L 688.434555 164.165935 
L 688.434555 155.694065 
L 679.962686 155.694065 
z
" clip-path="url(#p0cb34ded9f)" style="stroke: #000000; stroke-linejoin: miter"/>
   </g>
   <g id="patch_161">
    <path d="M 708.311078 163.98444 
L 716.419957 163.98444 
L 716.419957 155.87556 
L 708.311078 155.87556 
z
" clip-path="url(#p0cb34ded9f)" style="stroke: #000000; stroke-linejoin: miter"/>
   </g>
   <g id="patch_162">
    <path d="M 736.619928 163.842486 
L 744.4449 163.842486 
L 744.4449 156.017514 
L 736.619928 156.017514 
z
" clip-path="url(#p0cb34ded9f)" style="stroke: #000000; stroke-linejoin: miter"/>
   </g>
   <g id="patch_163">
    <path d="M 764.809031 163.820279 
L 772.589589 163.820279 
L 772.589589 156.039721 
L 764.809031 156.039721 
z
" clip-path="url(#p0cb34ded9f)" style="stroke: #000000; stroke-linejoin: miter"/>
   </g>
   <g id="patch_164">
    <path d="M 793.173962 163.622244 
L 800.558451 163.622244 
L 800.558451 156.237756 
L 793.173962 156.237756 
z
" clip-path="url(#p0cb34ded9f)" style="stroke: #000000; stroke-linejoin: miter"/>
   </g>
   <g id="patch_165">
    <path d="M 54.337004 141.952996 
L 74.716789 141.952996 
L 74.716789 121.573211 
L 54.337004 121.573211 
z
" clip-path="url(#p0cb34ded9f)" style="stroke: #000000; stroke-linejoin: miter"/>
   </g>
   <g id="patch_166">
    <path d="M 83.34479 141.112107 
L 102.042797 141.112107 
L 102.042797 122.4141 
L 83.34479 122.4141 
z
" clip-path="url(#p0cb34ded9f)" style="stroke: #000000; stroke-linejoin: miter"/>
   </g>
   <g id="patch_167">
    <path d="M 111.670881 140.952912 
L 130.050499 140.952912 
L 130.050499 122.573295 
L 111.670881 122.573295 
z
" clip-path="url(#p0cb34ded9f)" style="stroke: #000000; stroke-linejoin: miter"/>
   </g>
   <g id="patch_168">
    <path d="M 139.954485 140.836204 
L 158.100687 140.836204 
L 158.100687 122.690003 
L 139.954485 122.690003 
z
" clip-path="url(#p0cb34ded9f)" style="stroke: #000000; stroke-linejoin: miter"/>
   </g>
   <g id="patch_169">
    <path d="M 168.19262 140.764966 
L 186.196345 140.764966 
L 186.196345 122.761241 
L 168.19262 122.761241 
z
" clip-path="url(#p0cb34ded9f)" style="stroke: #000000; stroke-linejoin: miter"/>
   </g>
   <g id="patch_170">
    <path d="M 196.443235 140.681248 
L 214.279524 140.681248 
L 214.279524 122.844959 
L 196.443235 122.844959 
z
" clip-path="url(#p0cb34ded9f)" style="stroke: #000000; stroke-linejoin: miter"/>
   </g>
   <g id="patch_171">
    <path d="M 224.600812 140.690568 
L 242.45574 140.690568 
L 242.45574 122.835639 
L 224.600812 122.835639 
z
" clip-path="url(#p0cb34ded9f)" style="stroke: #000000; stroke-linejoin: miter"/>
   </g>
   <g id="patch_172">
    <path d="M 253.103862 140.354414 
L 270.286483 140.354414 
L 270.286483 123.171793 
L 253.103862 123.171793 
z
" clip-path="url(#p0cb34ded9f)" style="stroke: #000000; stroke-linejoin: miter"/>
   </g>
   <g id="patch_173">
    <path d="M 281.664531 139.960642 
L 298.059607 139.960642 
L 298.059607 123.565565 
L 281.664531 123.565565 
z
" clip-path="url(#p0cb34ded9f)" style="stroke: #000000; stroke-linejoin: miter"/>
   </g>
   <g id="patch_174">
    <path d="M 310.41657 139.375499 
L 325.641361 139.375499 
L 325.641361 124.150708 
L 310.41657 124.150708 
z
" clip-path="url(#p0cb34ded9f)" style="stroke: #000000; stroke-linejoin: miter"/>
   </g>
   <g id="patch_175">
    <path d="M 339.236231 138.722734 
L 353.155493 138.722734 
L 353.155493 124.803473 
L 339.236231 124.803473 
z
" clip-path="url(#p0cb34ded9f)" style="stroke: #000000; stroke-linejoin: miter"/>
   </g>
   <g id="patch_176">
    <path d="M 367.828786 138.297076 
L 380.896731 138.297076 
L 380.896731 125.229131 
L 367.828786 125.229131 
z
" clip-path="url(#p0cb34ded9f)" style="stroke: #000000; stroke-linejoin: miter"/>
   </g>
   <g id="patch_177">
    <path d="M 396.402678 137.890081 
L 408.656633 137.890081 
L 408.656633 125.636126 
L 396.402678 125.636126 
z
" clip-path="url(#p0cb34ded9f)" style="stroke: #000000; stroke-linejoin: miter"/>
   </g>
   <g id="patch_178">
    <path d="M 424.872359 137.587296 
L 436.520744 137.587296 
L 436.520744 125.938911 
L 424.872359 125.938911 
z
" clip-path="url(#p0cb34ded9f)" style="stroke: #000000; stroke-linejoin: miter"/>
   </g>
   <g id="patch_179">
    <path d="M 453.395872 137.23068 
L 464.331025 137.23068 
L 464.331025 126.295527 
L 453.395872 126.295527 
z
" clip-path="url(#p0cb34ded9f)" style="stroke: #000000; stroke-linejoin: miter"/>
   </g>
   <g id="patch_180">
    <path d="M 481.859317 136.934131 
L 492.201372 136.934131 
L 492.201372 126.592076 
L 481.859317 126.592076 
z
" clip-path="url(#p0cb34ded9f)" style="stroke: #000000; stroke-linejoin: miter"/>
   </g>
   <g id="patch_181">
    <path d="M 510.398836 136.561509 
L 519.995647 136.561509 
L 519.995647 126.964698 
L 510.398836 126.964698 
z
" clip-path="url(#p0cb34ded9f)" style="stroke: #000000; stroke-linejoin: miter"/>
   </g>
   <g id="patch_182">
    <path d="M 538.808707 136.318534 
L 547.919569 136.318534 
L 547.919569 127.207673 
L 538.808707 127.207673 
z
" clip-path="url(#p0cb34ded9f)" style="stroke: #000000; stroke-linejoin: miter"/>
   </g>
   <g id="patch_183">
    <path d="M 567.117879 136.176258 
L 575.944189 136.176258 
L 575.944189 127.349948 
L 567.117879 127.349948 
z
" clip-path="url(#p0cb34ded9f)" style="stroke: #000000; stroke-linejoin: miter"/>
   </g>
   <g id="patch_184">
    <path d="M 595.466463 135.994572 
L 603.9294 135.994572 
L 603.9294 127.531635 
L 595.466463 127.531635 
z
" clip-path="url(#p0cb34ded9f)" style="stroke: #000000; stroke-linejoin: miter"/>
   </g>
   <g id="patch_185">
    <path d="M 623.913052 135.714879 
L 631.816603 135.714879 
L 631.816603 127.811328 
L 623.913052 127.811328 
z
" clip-path="url(#p0cb34ded9f)" style="stroke: #000000; stroke-linejoin: miter"/>
   </g>
   <g id="patch_186">
    <path d="M 652.228356 135.566472 
L 659.835092 135.566472 
L 659.835092 127.959735 
L 652.228356 127.959735 
z
" clip-path="url(#p0cb34ded9f)" style="stroke: #000000; stroke-linejoin: miter"/>
   </g>
   <g id="patch_187">
    <path d="M 680.500943 135.460781 
L 687.896298 135.460781 
L 687.896298 128.065426 
L 680.500943 128.065426 
z
" clip-path="url(#p0cb34ded9f)" style="stroke: #000000; stroke-linejoin: miter"/>
   </g>
   <g id="patch_188">
    <path d="M 708.821969 135.306652 
L 715.909066 135.306652 
L 715.909066 128.219555 
L 708.821969 128.219555 
z
" clip-path="url(#p0cb34ded9f)" style="stroke: #000000; stroke-linejoin: miter"/>
   </g>
   <g id="patch_189">
    <path d="M 737.067091 135.228426 
L 743.997736 135.228426 
L 743.997736 128.297781 
L 737.067091 128.297781 
z
" clip-path="url(#p0cb34ded9f)" style="stroke: #000000; stroke-linejoin: miter"/>
   </g>
   <g id="patch_190">
    <path d="M 765.299599 135.162814 
L 772.099021 135.162814 
L 772.099021 128.363393 
L 765.299599 128.363393 
z
" clip-path="url(#p0cb34ded9f)" style="stroke: #000000; stroke-linejoin: miter"/>
   </g>
   <g id="patch_191">
    <path d="M 793.588145 135.041166 
L 800.144269 135.041166 
L 800.144269 128.485041 
L 793.588145 128.485041 
z
" clip-path="url(#p0cb34ded9f)" style="stroke: #000000; stroke-linejoin: miter"/>
   </g>
   <g id="patch_192">
    <path d="M 56.324129 111.798974 
L 72.729664 111.798974 
L 72.729664 95.39344 
L 56.324129 95.39344 
z
" clip-path="url(#p0cb34ded9f)" style="stroke: #000000; stroke-linejoin: miter"/>
   </g>
   <g id="patch_193">
    <path d="M 83.652352 112.637648 
L 101.735235 112.637648 
L 101.735235 94.554765 
L 83.652352 94.554765 
z
" clip-path="url(#p0cb34ded9f)" style="stroke: #000000; stroke-linejoin: miter"/>
   </g>
   <g id="patch_194">
    <path d="M 111.759136 112.697761 
L 129.962243 112.697761 
L 129.962243 94.494653 
L 111.759136 94.494653 
z
" clip-path="url(#p0cb34ded9f)" style="stroke: #000000; stroke-linejoin: miter"/>
   </g>
   <g id="patch_195">
    <path d="M 139.974965 112.648828 
L 158.080207 112.648828 
L 158.080207 94.543586 
L 139.974965 94.543586 
z
" clip-path="url(#p0cb34ded9f)" style="stroke: #000000; stroke-linejoin: miter"/>
   </g>
   <g id="patch_196">
    <path d="M 168.209276 112.581413 
L 186.179689 112.581413 
L 186.179689 94.611 
L 168.209276 94.611 
z
" clip-path="url(#p0cb34ded9f)" style="stroke: #000000; stroke-linejoin: miter"/>
   </g>
   <g id="patch_197">
    <path d="M 196.393986 112.563601 
L 214.328773 112.563601 
L 214.328773 94.628813 
L 196.393986 94.628813 
z
" clip-path="url(#p0cb34ded9f)" style="stroke: #000000; stroke-linejoin: miter"/>
   </g>
   <g id="patch_198">
    <path d="M 224.569987 112.554496 
L 242.486565 112.554496 
L 242.486565 94.637918 
L 224.569987 94.637918 
z
" clip-path="url(#p0cb34ded9f)" style="stroke: #000000; stroke-linejoin: miter"/>
   </g>
   <g id="patch_199">
    <path d="M 252.779659 112.51172 
L 270.610685 112.51172 
L 270.610685 94.680694 
L 252.779659 94.680694 
z
" clip-path="url(#p0cb34ded9f)" style="stroke: #000000; stroke-linejoin: miter"/>
   </g>
   <g id="patch_200">
    <path d="M 281.123553 112.334723 
L 298.600585 112.334723 
L 298.600585 94.857691 
L 281.123553 94.857691 
z
" clip-path="url(#p0cb34ded9f)" style="stroke: #000000; stroke-linejoin: miter"/>
   </g>
   <g id="patch_201">
    <path d="M 309.63492 111.990253 
L 326.423012 111.990253 
L 326.423012 95.202161 
L 309.63492 95.202161 
z
" clip-path="url(#p0cb34ded9f)" style="stroke: #000000; stroke-linejoin: miter"/>
   </g>
   <g id="patch_202">
    <path d="M 338.434651 111.357418 
L 353.957074 111.357418 
L 353.957074 95.834995 
L 338.434651 95.834995 
z
" clip-path="url(#p0cb34ded9f)" style="stroke: #000000; stroke-linejoin: miter"/>
   </g>
   <g id="patch_203">
    <path d="M 367.182943 110.776022 
L 381.542574 110.776022 
L 381.542574 96.416392 
L 367.182943 96.416392 
z
" clip-path="url(#p0cb34ded9f)" style="stroke: #000000; stroke-linejoin: miter"/>
   </g>
   <g id="patch_204">
    <path d="M 395.813768 110.312094 
L 409.245543 110.312094 
L 409.245543 96.880319 
L 395.813768 96.880319 
z
" clip-path="url(#p0cb34ded9f)" style="stroke: #000000; stroke-linejoin: miter"/>
   </g>
   <g id="patch_205">
    <path d="M 424.440602 109.852156 
L 436.952501 109.852156 
L 436.952501 97.340258 
L 424.440602 97.340258 
z
" clip-path="url(#p0cb34ded9f)" style="stroke: #000000; stroke-linejoin: miter"/>
   </g>
   <g id="patch_206">
    <path d="M 452.98125 109.478406 
L 464.745647 109.478406 
L 464.745647 97.714008 
L 452.98125 97.714008 
z
" clip-path="url(#p0cb34ded9f)" style="stroke: #000000; stroke-linejoin: miter"/>
   </g>
   <g id="patch_207">
    <path d="M 481.491106 109.135445 
L 492.569583 109.135445 
L 492.569583 98.056968 
L 481.491106 98.056968 
z
" clip-path="url(#p0cb34ded9f)" style="stroke: #000000; stroke-linejoin: miter"/>
   </g>
   <g id="patch_208">
    <path d="M 510.085277 108.708171 
L 520.309206 108.708171 
L 520.309206 98.484242 
L 510.085277 98.484242 
z
" clip-path="url(#p0cb34ded9f)" style="stroke: #000000; stroke-linejoin: miter"/>
   </g>
   <g id="patch_209">
    <path d="M 538.500707 108.459637 
L 548.227568 108.459637 
L 548.227568 98.732776 
L 538.500707 98.732776 
z
" clip-path="url(#p0cb34ded9f)" style="stroke: #000000; stroke-linejoin: miter"/>
   </g>
   <g id="patch_210">
    <path d="M 566.841761 108.28548 
L 576.220308 108.28548 
L 576.220308 98.906934 
L 566.841761 98.906934 
z
" clip-path="url(#p0cb34ded9f)" style="stroke: #000000; stroke-linejoin: miter"/>
   </g>
   <g id="patch_211">
    <path d="M 595.246566 108.047572 
L 604.149296 108.047572 
L 604.149296 99.144842 
L 595.246566 99.144842 
z
" clip-path="url(#p0cb34ded9f)" style="stroke: #000000; stroke-linejoin: miter"/>
   </g>
   <g id="patch_212">
    <path d="M 623.62541 107.835624 
L 632.104245 107.835624 
L 632.104245 99.35679 
L 623.62541 99.35679 
z
" clip-path="url(#p0cb34ded9f)" style="stroke: #000000; stroke-linejoin: miter"/>
   </g>
   <g id="patch_213">
    <path d="M 651.88441 107.743521 
L 660.179038 107.743521 
L 660.179038 99.448893 
L 651.88441 99.448893 
z
" clip-path="url(#p0cb34ded9f)" style="stroke: #000000; stroke-linejoin: miter"/>
   </g>
   <g id="patch_214">
    <path d="M 680.294674 107.500153 
L 688.102567 107.500153 
L 688.102567 99.692261 
L 680.294674 99.692261 
z
" clip-path="url(#p0cb34ded9f)" style="stroke: #000000; stroke-linejoin: miter"/>
   </g>
   <g id="patch_215">
    <path d="M 708.630868 107.330856 
L 716.100167 107.330856 
L 716.100167 99.861557 
L 708.630868 99.861557 
z
" clip-path="url(#p0cb34ded9f)" style="stroke: #000000; stroke-linejoin: miter"/>
   </g>
   <g id="patch_216">
    <path d="M 736.850516 107.278104 
L 744.214311 107.278104 
L 744.214311 99.914309 
L 736.850516 99.914309 
z
" clip-path="url(#p0cb34ded9f)" style="stroke: #000000; stroke-linejoin: miter"/>
   </g>
   <g id="patch_217">
    <path d="M 765.070488 107.225029 
L 772.328132 107.225029 
L 772.328132 99.967385 
L 765.070488 99.967385 
z
" clip-path="url(#p0cb34ded9f)" style="stroke: #000000; stroke-linejoin: miter"/>
   </g>
   <g id="patch_218">
    <path d="M 793.390233 107.072181 
L 800.342181 107.072181 
L 800.342181 100.120233 
L 793.390233 100.120233 
z
" clip-path="url(#p0cb34ded9f)" style="stroke: #000000; stroke-linejoin: miter"/>
   </g>
   <g id="patch_219">
    <path d="M 54.187228 85.768979 
L 74.866565 85.768979 
L 74.866565 65.089642 
L 54.187228 65.089642 
z
" clip-path="url(#p0cb34ded9f)" style="stroke: #000000; stroke-linejoin: miter"/>
   </g>
   <g id="patch_220">
    <path d="M 82.726804 85.3963 
L 102.660782 85.3963 
L 102.660782 65.462321 
L 82.726804 65.462321 
z
" clip-path="url(#p0cb34ded9f)" style="stroke: #000000; stroke-linejoin: miter"/>
   </g>
   <g id="patch_221">
    <path d="M 110.979527 85.310473 
L 130.741852 85.310473 
L 130.741852 65.548148 
L 110.979527 65.548148 
z
" clip-path="url(#p0cb34ded9f)" style="stroke: #000000; stroke-linejoin: miter"/>
   </g>
   <g id="patch_222">
    <path d="M 139.204772 85.252124 
L 158.8504 85.252124 
L 158.8504 65.606496 
L 139.204772 65.606496 
z
" clip-path="url(#p0cb34ded9f)" style="stroke: #000000; stroke-linejoin: miter"/>
   </g>
   <g id="patch_223">
    <path d="M 167.430571 85.193222 
L 186.958394 85.193222 
L 186.958394 65.665399 
L 167.430571 65.665399 
z
" clip-path="url(#p0cb34ded9f)" style="stroke: #000000; stroke-linejoin: miter"/>
   </g>
   <g id="patch_224">
    <path d="M 195.794124 84.996565 
L 214.928634 84.996565 
L 214.928634 65.862055 
L 195.794124 65.862055 
z
" clip-path="url(#p0cb34ded9f)" style="stroke: #000000; stroke-linejoin: miter"/>
   </g>
   <g id="patch_225">
    <path d="M 224.573852 84.383734 
L 242.482699 84.383734 
L 242.482699 66.474887 
L 224.573852 66.474887 
z
" clip-path="url(#p0cb34ded9f)" style="stroke: #000000; stroke-linejoin: miter"/>
   </g>
   <g id="patch_226">
    <path d="M 253.903071 83.221411 
L 269.487274 83.221411 
L 269.487274 67.637209 
L 253.903071 67.637209 
z
" clip-path="url(#p0cb34ded9f)" style="stroke: #000000; stroke-linejoin: miter"/>
   </g>
   <g id="patch_227">
    <path d="M 283.444695 81.846684 
L 296.279443 81.846684 
L 296.279443 69.011937 
L 283.444695 69.011937 
z
" clip-path="url(#p0cb34ded9f)" style="stroke: #000000; stroke-linejoin: miter"/>
   </g>
   <g id="patch_228">
    <path d="M 312.274326 81.18395 
L 323.783605 81.18395 
L 323.783605 69.674671 
L 312.274326 69.674671 
z
" clip-path="url(#p0cb34ded9f)" style="stroke: #000000; stroke-linejoin: miter"/>
   </g>
   <g id="patch_229">
    <path d="M 341.347203 80.27797 
L 351.044521 80.27797 
L 351.044521 70.580651 
L 341.347203 70.580651 
z
" clip-path="url(#p0cb34ded9f)" style="stroke: #000000; stroke-linejoin: miter"/>
   </g>
   <g id="patch_230">
    <path d="M 370.184633 79.607436 
L 378.540884 79.607436 
L 378.540884 71.251185 
L 370.184633 71.251185 
z
" clip-path="url(#p0cb34ded9f)" style="stroke: #000000; stroke-linejoin: miter"/>
   </g>
   <g id="patch_231">
    <path d="M 398.795417 79.163548 
L 406.263893 79.163548 
L 406.263893 71.695073 
L 398.795417 71.695073 
z
" clip-path="url(#p0cb34ded9f)" style="stroke: #000000; stroke-linejoin: miter"/>
   </g>
   <g id="patch_232">
    <path d="M 427.171048 78.954815 
L 434.222056 78.954815 
L 434.222056 71.903806 
L 427.171048 71.903806 
z
" clip-path="url(#p0cb34ded9f)" style="stroke: #000000; stroke-linejoin: miter"/>
   </g>
   <g id="patch_233">
    <path d="M 455.577702 78.715057 
L 462.149195 78.715057 
L 462.149195 72.143564 
L 455.577702 72.143564 
z
" clip-path="url(#p0cb34ded9f)" style="stroke: #000000; stroke-linejoin: miter"/>
   </g>
   <g id="patch_234">
    <path d="M 483.89919 78.560465 
L 490.1615 78.560465 
L 490.1615 72.298155 
L 483.89919 72.298155 
z
" clip-path="url(#p0cb34ded9f)" style="stroke: #000000; stroke-linejoin: miter"/>
   </g>
   <g id="patch_235">
    <path d="M 512.247471 78.37908 
L 518.147012 78.37908 
L 518.147012 72.47954 
L 512.247471 72.47954 
z
" clip-path="url(#p0cb34ded9f)" style="stroke: #000000; stroke-linejoin: miter"/>
   </g>
   <g id="patch_236">
    <path d="M 540.582555 78.210893 
L 546.145721 78.210893 
L 546.145721 72.647728 
L 540.582555 72.647728 
z
" clip-path="url(#p0cb34ded9f)" style="stroke: #000000; stroke-linejoin: miter"/>
   </g>
   <g id="patch_237">
    <path d="M 568.833416 78.126929 
L 574.228653 78.126929 
L 574.228653 72.731692 
L 568.833416 72.731692 
z
" clip-path="url(#p0cb34ded9f)" style="stroke: #000000; stroke-linejoin: miter"/>
   </g>
   <g id="patch_238">
    <path d="M 597.069751 78.05749 
L 602.326111 78.05749 
L 602.326111 72.801131 
L 597.069751 72.801131 
z
" clip-path="url(#p0cb34ded9f)" style="stroke: #000000; stroke-linejoin: miter"/>
   </g>
   <g id="patch_239">
    <path d="M 625.286818 78.00732 
L 630.442837 78.00732 
L 630.442837 72.851301 
L 625.286818 72.851301 
z
" clip-path="url(#p0cb34ded9f)" style="stroke: #000000; stroke-linejoin: miter"/>
   </g>
   <g id="patch_240">
    <path d="M 653.652497 77.808538 
L 658.410951 77.808538 
L 658.410951 73.050083 
L 653.652497 73.050083 
z
" clip-path="url(#p0cb34ded9f)" style="stroke: #000000; stroke-linejoin: miter"/>
   </g>
   <g id="patch_241">
    <path d="M 681.843619 77.784312 
L 686.553623 77.784312 
L 686.553623 73.074308 
L 681.843619 73.074308 
z
" clip-path="url(#p0cb34ded9f)" style="stroke: #000000; stroke-linejoin: miter"/>
   </g>
   <g id="patch_242">
    <path d="M 710.088705 77.706123 
L 714.64233 77.706123 
L 714.64233 73.152498 
L 710.088705 73.152498 
z
" clip-path="url(#p0cb34ded9f)" style="stroke: #000000; stroke-linejoin: miter"/>
   </g>
   <g id="patch_243">
    <path d="M 738.410231 77.551493 
L 742.654596 77.551493 
L 742.654596 73.307128 
L 738.410231 73.307128 
z
" clip-path="url(#p0cb34ded9f)" style="stroke: #000000; stroke-linejoin: miter"/>
   </g>
   <g id="patch_244">
    <path d="M 766.49107 77.63755 
L 770.90755 77.63755 
L 770.90755 73.22107 
L 766.49107 73.22107 
z
" clip-path="url(#p0cb34ded9f)" style="stroke: #000000; stroke-linejoin: miter"/>
   </g>
   <g id="patch_245">
    <path d="M 794.76906 77.526457 
L 798.963354 77.526457 
L 798.963354 73.332164 
L 794.76906 73.332164 
z
" clip-path="url(#p0cb34ded9f)" style="stroke: #000000; stroke-linejoin: miter"/>
   </g>
   <g id="matplotlib.axis_1">
    <g id="xtick_1">
     <g id="line2d_1">
      <defs>
       <path id="mad82a3232e" d="M 0 0 
L 0 3.5 
" style="stroke: #000000; stroke-width: 0.8"/>
      </defs>
      <g>
       <use xlink:href="#mad82a3232e" x="64.526897" y="328.931379" style="stroke: #000000; stroke-width: 0.8"/>
      </g>
     </g>
     <g id="text_1">
      <!-- 1 -->
      <g transform="translate(61.51674 350.082942) scale(0.1 -0.1)">
       <defs>
        <path id="DejaVuSansMono-31" d="M 844 531 
L 1825 531 
L 1825 4097 
L 769 3859 
L 769 4434 
L 1819 4666 
L 2450 4666 
L 2450 531 
L 3419 531 
L 3419 0 
L 844 0 
L 844 531 
z
" transform="scale(0.015625)"/>
       </defs>
       <use xlink:href="#DejaVuSansMono-31"/>
      </g>
     </g>
    </g>
    <g id="xtick_2">
     <g id="line2d_2">
      <g>
       <use xlink:href="#mad82a3232e" x="796.866207" y="328.931379" style="stroke: #000000; stroke-width: 0.8"/>
      </g>
     </g>
     <g id="text_2">
      <!-- 10000 -->
      <g transform="translate(781.815426 350.082942) scale(0.1 -0.1)">
       <defs>
        <path id="DejaVuSansMono-30" d="M 1509 2344 
Q 1509 2516 1629 2641 
Q 1750 2766 1919 2766 
Q 2094 2766 2219 2641 
Q 2344 2516 2344 2344 
Q 2344 2169 2220 2047 
Q 2097 1925 1919 1925 
Q 1744 1925 1626 2044 
Q 1509 2163 1509 2344 
z
M 1925 4250 
Q 1484 4250 1267 3775 
Q 1050 3300 1050 2328 
Q 1050 1359 1267 884 
Q 1484 409 1925 409 
Q 2369 409 2586 884 
Q 2803 1359 2803 2328 
Q 2803 3300 2586 3775 
Q 2369 4250 1925 4250 
z
M 1925 4750 
Q 2672 4750 3055 4137 
Q 3438 3525 3438 2328 
Q 3438 1134 3055 521 
Q 2672 -91 1925 -91 
Q 1178 -91 797 521 
Q 416 1134 416 2328 
Q 416 3525 797 4137 
Q 1178 4750 1925 4750 
z
" transform="scale(0.015625)"/>
       </defs>
       <use xlink:href="#DejaVuSansMono-31"/>
       <use xlink:href="#DejaVuSansMono-30" x="60.205078"/>
       <use xlink:href="#DejaVuSansMono-30" x="120.410156"/>
       <use xlink:href="#DejaVuSansMono-30" x="180.615234"/>
       <use xlink:href="#DejaVuSansMono-30" x="240.820312"/>
      </g>
     </g>
    </g>
   </g>
   <g id="matplotlib.axis_2">
    <g id="ytick_1">
     <g id="line2d_3">
      <defs>
       <path id="m125899c43d" d="M 0 0 
L -3.5 0 
" style="stroke: #000000; stroke-width: 0.8"/>
      </defs>
      <g>
       <use xlink:href="#m125899c43d" x="36.36" y="300.764483" style="stroke: #000000; stroke-width: 0.8"/>
      </g>
     </g>
     <g id="text_3">
      <!-- 2 -->
      <g transform="translate(16.839687 304.590264) scale(0.1 -0.1)">
       <defs>
        <path id="DejaVuSansMono-32" d="M 1166 531 
L 3309 531 
L 3309 0 
L 475 0 
L 475 531 
Q 1059 1147 1496 1619 
Q 1934 2091 2100 2284 
Q 2413 2666 2522 2902 
Q 2631 3138 2631 3384 
Q 2631 3775 2401 3997 
Q 2172 4219 1772 4219 
Q 1488 4219 1175 4116 
Q 863 4013 513 3803 
L 513 4441 
Q 834 4594 1145 4672 
Q 1456 4750 1759 4750 
Q 2444 4750 2861 4386 
Q 3278 4022 3278 3431 
Q 3278 3131 3139 2831 
Q 3000 2531 2688 2169 
Q 2513 1966 2180 1606 
Q 1847 1247 1166 531 
z
" transform="scale(0.015625)"/>
       </defs>
       <use xlink:href="#DejaVuSansMono-32"/>
      </g>
     </g>
    </g>
    <g id="ytick_2">
     <g id="line2d_4">
      <g>
       <use xlink:href="#m125899c43d" x="36.36" y="272.597586" style="stroke: #000000; stroke-width: 0.8"/>
      </g>
     </g>
     <g id="text_4">
      <!-- 3 -->
      <g transform="translate(16.839687 276.423367) scale(0.1 -0.1)">
       <defs>
        <path id="DejaVuSansMono-33" d="M 2425 2497 
Q 2884 2375 3128 2064 
Q 3372 1753 3372 1288 
Q 3372 644 2939 276 
Q 2506 -91 1741 -91 
Q 1419 -91 1084 -31 
Q 750 28 428 141 
L 428 769 
Q 747 603 1056 522 
Q 1366 441 1672 441 
Q 2191 441 2469 675 
Q 2747 909 2747 1350 
Q 2747 1756 2469 1995 
Q 2191 2234 1716 2234 
L 1234 2234 
L 1234 2753 
L 1716 2753 
Q 2150 2753 2394 2943 
Q 2638 3134 2638 3475 
Q 2638 3834 2411 4026 
Q 2184 4219 1766 4219 
Q 1488 4219 1191 4156 
Q 894 4094 569 3969 
L 569 4550 
Q 947 4650 1242 4700 
Q 1538 4750 1766 4750 
Q 2447 4750 2855 4408 
Q 3263 4066 3263 3500 
Q 3263 3116 3048 2859 
Q 2834 2603 2425 2497 
z
" transform="scale(0.015625)"/>
       </defs>
       <use xlink:href="#DejaVuSansMono-33"/>
      </g>
     </g>
    </g>
    <g id="ytick_3">
     <g id="line2d_5">
      <g>
       <use xlink:href="#m125899c43d" x="36.36" y="244.43069" style="stroke: #000000; stroke-width: 0.8"/>
      </g>
     </g>
     <g id="text_5">
      <!-- 5 -->
      <g transform="translate(16.839687 248.256471) scale(0.1 -0.1)">
       <defs>
        <path id="DejaVuSansMono-35" d="M 647 4666 
L 3009 4666 
L 3009 4134 
L 1222 4134 
L 1222 2988 
Q 1356 3038 1492 3061 
Q 1628 3084 1766 3084 
Q 2491 3084 2916 2656 
Q 3341 2228 3341 1497 
Q 3341 759 2895 334 
Q 2450 -91 1678 -91 
Q 1306 -91 998 -41 
Q 691 9 447 109 
L 447 750 
Q 734 594 1025 517 
Q 1316 441 1619 441 
Q 2141 441 2423 716 
Q 2706 991 2706 1497 
Q 2706 1997 2414 2275 
Q 2122 2553 1600 2553 
Q 1347 2553 1106 2495 
Q 866 2438 647 2322 
L 647 4666 
z
" transform="scale(0.015625)"/>
       </defs>
       <use xlink:href="#DejaVuSansMono-35"/>
      </g>
     </g>
    </g>
    <g id="ytick_4">
     <g id="line2d_6">
      <g>
       <use xlink:href="#m125899c43d" x="36.36" y="216.263793" style="stroke: #000000; stroke-width: 0.8"/>
      </g>
     </g>
     <g id="text_6">
      <!-- 7 -->
      <g transform="translate(16.839687 220.089574) scale(0.1 -0.1)">
       <defs>
        <path id="DejaVuSansMono-37" d="M 434 4666 
L 3372 4666 
L 3372 4397 
L 1703 0 
L 1044 0 
L 2669 4134 
L 434 4134 
L 434 4666 
z
" transform="scale(0.015625)"/>
       </defs>
       <use xlink:href="#DejaVuSansMono-37"/>
      </g>
     </g>
    </g>
    <g id="ytick_5">
     <g id="line2d_7">
      <g>
       <use xlink:href="#m125899c43d" x="36.36" y="188.096897" style="stroke: #000000; stroke-width: 0.8"/>
      </g>
     </g>
     <g id="text_7">
      <!-- 11 -->
      <g transform="translate(10.819375 191.922678) scale(0.1 -0.1)">
       <use xlink:href="#DejaVuSansMono-31"/>
       <use xlink:href="#DejaVuSansMono-31" x="60.205078"/>
      </g>
     </g>
    </g>
    <g id="ytick_6">
     <g id="line2d_8">
      <g>
       <use xlink:href="#m125899c43d" x="36.36" y="159.93" style="stroke: #000000; stroke-width: 0.8"/>
      </g>
     </g>
     <g id="text_8">
      <!-- 13 -->
      <g transform="translate(10.819375 163.755781) scale(0.1 -0.1)">
       <use xlink:href="#DejaVuSansMono-31"/>
       <use xlink:href="#DejaVuSansMono-33" x="60.205078"/>
      </g>
     </g>
    </g>
    <g id="ytick_7">
     <g id="line2d_9">
      <g>
       <use xlink:href="#m125899c43d" x="36.36" y="131.763103" style="stroke: #000000; stroke-width: 0.8"/>
      </g>
     </g>
     <g id="text_9">
      <!-- 17 -->
      <g transform="translate(10.819375 135.588885) scale(0.1 -0.1)">
       <use xlink:href="#DejaVuSansMono-31"/>
       <use xlink:href="#DejaVuSansMono-37" x="60.205078"/>
      </g>
     </g>
    </g>
    <g id="ytick_8">
     <g id="line2d_10">
      <g>
       <use xlink:href="#m125899c43d" x="36.36" y="103.596207" style="stroke: #000000; stroke-width: 0.8"/>
      </g>
     </g>
     <g id="text_10">
      <!-- 19 -->
      <g transform="translate(10.819375 107.421988) scale(0.1 -0.1)">
       <defs>
        <path id="DejaVuSansMono-39" d="M 1863 2069 
Q 2266 2069 2495 2359 
Q 2725 2650 2725 3163 
Q 2725 3675 2495 3965 
Q 2266 4256 1863 4256 
Q 1444 4256 1231 3979 
Q 1019 3703 1019 3163 
Q 1019 2619 1230 2344 
Q 1441 2069 1863 2069 
z
M 738 97 
L 738 678 
Q 934 563 1156 502 
Q 1378 441 1619 441 
Q 2219 441 2526 892 
Q 2834 1344 2834 2222 
Q 2688 1909 2422 1742 
Q 2156 1575 1813 1575 
Q 1138 1575 767 1990 
Q 397 2406 397 3169 
Q 397 3922 776 4336 
Q 1156 4750 1850 4750 
Q 2663 4750 3041 4165 
Q 3419 3581 3419 2328 
Q 3419 1150 2964 529 
Q 2509 -91 1644 -91 
Q 1416 -91 1184 -42 
Q 953 6 738 97 
z
" transform="scale(0.015625)"/>
       </defs>
       <use xlink:href="#DejaVuSansMono-31"/>
       <use xlink:href="#DejaVuSansMono-39" x="60.205078"/>
      </g>
     </g>
    </g>
    <g id="ytick_9">
     <g id="line2d_11">
      <g>
       <use xlink:href="#m125899c43d" x="36.36" y="75.42931" style="stroke: #000000; stroke-width: 0.8"/>
      </g>
     </g>
     <g id="text_11">
      <!--  -->
      <g transform="translate(16.839687 79.255092) scale(0.1 -0.1)">
       <defs>
        <path id="DejaVuSansMono-2119" d="M 506 4353 
L 506 313 
L 1106 313 
L 1106 4353 
L 506 4353 
z
M 1406 4353 
L 1406 2284 
L 2306 2284 
Q 2378 2284 2447 2291 
L 2447 4347 
Q 2378 4353 2306 4353 
L 1406 4353 
z
M 206 4666 
L 2166 4666 
Q 2913 4666 3297 4323 
Q 3681 3981 3681 3322 
Q 3681 2656 3297 2315 
Q 2913 1975 2163 1975 
L 1406 1975 
L 1406 0 
L 206 0 
L 206 4666 
z
M 2759 4281 
L 2759 2359 
Q 2941 2428 3075 2556 
Q 3353 2825 3353 3322 
Q 3353 3816 3078 4084 
Q 2947 4213 2759 4281 
z
" transform="scale(0.015625)"/>
       </defs>
       <use xlink:href="#DejaVuSansMono-2119"/>
      </g>
     </g>
    </g>
   </g>
  </g>
 </g>
 <defs>
  <clipPath id="p0cb34ded9f">
   <rect x="36.36" y="19.095517" width="816.84" height="309.835862"/>
  </clipPath>
 </defs>
</svg>
