<?xml version="1.0" encoding="utf-8" standalone="no"?>
<!DOCTYPE svg PUBLIC "-//W3C//DTD SVG 1.1//EN"
  "http://www.w3.org/Graphics/SVG/1.1/DTD/svg11.dtd">
<svg xmlns:xlink="http://www.w3.org/1999/xlink" width="432pt" height="216pt" viewBox="0 0 432 216" xmlns="http://www.w3.org/2000/svg" version="1.1">
 <metadata>
  <rdf:RDF xmlns:dc="http://purl.org/dc/elements/1.1/" xmlns:cc="http://creativecommons.org/ns#" xmlns:rdf="http://www.w3.org/1999/02/22-rdf-syntax-ns#">
   <cc:Work>
    <dc:type rdf:resource="http://purl.org/dc/dcmitype/StillImage"/>
    <dc:date>2024-08-13T20:45:22.076620</dc:date>
    <dc:format>image/svg+xml</dc:format>
    <dc:creator>
     <cc:Agent>
      <dc:title>Matplotlib v3.9.1.post1, https://matplotlib.org/</dc:title>
     </cc:Agent>
    </dc:creator>
   </cc:Work>
  </rdf:RDF>
 </metadata>
 <defs>
  <style type="text/css">*{stroke-linejoin: round; stroke-linecap: butt}</style>
 </defs>
 <g id="figure_1">
  <g id="patch_1">
   <path d="M 0 216 
L 432 216 
L 432 0 
L 0 0 
z
" style="fill: #ffffff"/>
  </g>
  <g id="axes_1">
   <g id="patch_2">
    <path d="M 37.08 170.399655 
L 421.2 170.399655 
L 421.2 24.698966 
L 37.08 24.698966 
z
" style="fill: #ffffff"/>
   </g>
   <g id="patch_3">
    <path d="M 45.02731 162.452345 
L 55.623724 162.452345 
L 55.623724 151.855931 
L 45.02731 151.855931 
z
" clip-path="url(#pe083c0b15d)" style="stroke: #000000; stroke-linejoin: miter"/>
   </g>
   <g id="patch_4">
    <path d="M 58.47329 162.251882 
L 68.668777 162.251882 
L 68.668777 152.056394 
L 58.47329 152.056394 
z
" clip-path="url(#pe083c0b15d)" style="stroke: #000000; stroke-linejoin: miter"/>
   </g>
   <g id="patch_5">
    <path d="M 72.310175 161.660515 
L 81.322929 161.660515 
L 81.322929 152.647761 
L 72.310175 152.647761 
z
" clip-path="url(#pe083c0b15d)" style="stroke: #000000; stroke-linejoin: miter"/>
   </g>
   <g id="patch_6">
    <path d="M 86.549823 160.666383 
L 93.574315 160.666383 
L 93.574315 153.641893 
L 86.549823 153.641893 
z
" clip-path="url(#pe083c0b15d)" style="stroke: #000000; stroke-linejoin: miter"/>
   </g>
   <g id="patch_7">
    <path d="M 101.354387 159.107338 
L 105.260789 159.107338 
L 105.260789 155.200938 
L 101.354387 155.200938 
z
" clip-path="url(#pe083c0b15d)" style="stroke: #000000; stroke-linejoin: miter"/>
   </g>
   <g id="patch_8">
    <path d="M 115.10848 158.598758 
L 117.99772 158.598758 
L 117.99772 155.709518 
L 115.10848 155.709518 
z
" clip-path="url(#pe083c0b15d)" style="stroke: #000000; stroke-linejoin: miter"/>
   </g>
   <g id="patch_9">
    <path d="M 128.686457 158.266302 
L 130.910785 158.266302 
L 130.910785 156.041973 
L 128.686457 156.041973 
z
" clip-path="url(#pe083c0b15d)" style="stroke: #000000; stroke-linejoin: miter"/>
   </g>
   <g id="patch_10">
    <path d="M 142.119653 158.078622 
L 143.968623 158.078622 
L 143.968623 156.229654 
L 142.119653 156.229654 
z
" clip-path="url(#pe083c0b15d)" style="stroke: #000000; stroke-linejoin: miter"/>
   </g>
   <g id="patch_11">
    <path d="M 154.783129 158.660663 
L 157.796175 158.660663 
L 157.796175 155.647613 
L 154.783129 155.647613 
z
" clip-path="url(#pe083c0b15d)" style="stroke: #000000; stroke-linejoin: miter"/>
   </g>
   <g id="patch_12">
    <path d="M 168.237471 158.451839 
L 170.832874 158.451839 
L 170.832874 155.856437 
L 168.237471 155.856437 
z
" clip-path="url(#pe083c0b15d)" style="stroke: #000000; stroke-linejoin: miter"/>
   </g>
   <g id="patch_13">
    <path d="M 181.809927 158.124897 
L 183.751439 158.124897 
L 183.751439 156.183379 
L 181.809927 156.183379 
z
" clip-path="url(#pe083c0b15d)" style="stroke: #000000; stroke-linejoin: miter"/>
   </g>
   <g id="patch_14">
    <path d="M 195.1625 158.017847 
L 196.889914 158.017847 
L 196.889914 156.290429 
L 195.1625 156.290429 
z
" clip-path="url(#pe083c0b15d)" style="stroke: #000000; stroke-linejoin: miter"/>
   </g>
   <g id="patch_15">
    <path d="M 208.107062 158.318805 
L 210.436399 158.318805 
L 210.436399 155.98947 
L 208.107062 155.98947 
z
" clip-path="url(#pe083c0b15d)" style="stroke: #000000; stroke-linejoin: miter"/>
   </g>
   <g id="patch_16">
    <path d="M 221.765491 157.905891 
L 223.268992 157.905891 
L 223.268992 156.402385 
L 221.765491 156.402385 
z
" clip-path="url(#pe083c0b15d)" style="stroke: #000000; stroke-linejoin: miter"/>
   </g>
   <g id="patch_17">
    <path d="M 234.857758 158.059144 
L 236.667772 158.059144 
L 236.667772 156.249131 
L 234.857758 156.249131 
z
" clip-path="url(#pe083c0b15d)" style="stroke: #000000; stroke-linejoin: miter"/>
   </g>
   <g id="patch_18">
    <path d="M 248.449251 157.713166 
L 249.567301 157.713166 
L 249.567301 156.59511 
L 248.449251 156.59511 
z
" clip-path="url(#pe083c0b15d)" style="stroke: #000000; stroke-linejoin: miter"/>
   </g>
   <g id="patch_19">
    <path d="M 261.898634 157.509294 
L 262.608952 157.509294 
L 262.608952 156.798982 
L 261.898634 156.798982 
z
" clip-path="url(#pe083c0b15d)" style="stroke: #000000; stroke-linejoin: miter"/>
   </g>
   <g id="patch_20">
    <path d="M 274.880322 157.773128 
L 276.118299 157.773128 
L 276.118299 156.535148 
L 274.880322 156.535148 
z
" clip-path="url(#pe083c0b15d)" style="stroke: #000000; stroke-linejoin: miter"/>
   </g>
   <g id="patch_21">
    <path d="M 288.175886 157.723075 
L 289.313769 157.723075 
L 289.313769 156.585201 
L 288.175886 156.585201 
z
" clip-path="url(#pe083c0b15d)" style="stroke: #000000; stroke-linejoin: miter"/>
   </g>
   <g id="patch_22">
    <path d="M 301.63458 157.50991 
L 302.346135 157.50991 
L 302.346135 156.798366 
L 301.63458 156.798366 
z
" clip-path="url(#pe083c0b15d)" style="stroke: #000000; stroke-linejoin: miter"/>
   </g>
   <g id="patch_23">
    <path d="M 314.386391 158.003606 
L 316.085333 158.003606 
L 316.085333 156.30467 
L 314.386391 156.30467 
z
" clip-path="url(#pe083c0b15d)" style="stroke: #000000; stroke-linejoin: miter"/>
   </g>
   <g id="patch_24">
    <path d="M 328.014125 157.621384 
L 328.948608 157.621384 
L 328.948608 156.686892 
L 328.014125 156.686892 
z
" clip-path="url(#pe083c0b15d)" style="stroke: #000000; stroke-linejoin: miter"/>
   </g>
   <g id="patch_25">
    <path d="M 340.968072 157.912953 
L 342.485695 157.912953 
L 342.485695 156.395323 
L 340.968072 156.395323 
z
" clip-path="url(#pe083c0b15d)" style="stroke: #000000; stroke-linejoin: miter"/>
   </g>
   <g id="patch_26">
    <path d="M 354.284126 157.84243 
L 355.660701 157.84243 
L 355.660701 156.465846 
L 354.284126 156.465846 
z
" clip-path="url(#pe083c0b15d)" style="stroke: #000000; stroke-linejoin: miter"/>
   </g>
   <g id="patch_27">
    <path d="M 367.768841 157.603237 
L 368.667046 157.603237 
L 368.667046 156.705039 
L 367.768841 156.705039 
z
" clip-path="url(#pe083c0b15d)" style="stroke: #000000; stroke-linejoin: miter"/>
   </g>
   <g id="patch_28">
    <path d="M 380.741737 157.875857 
L 382.185185 157.875857 
L 382.185185 156.432418 
L 380.741737 156.432418 
z
" clip-path="url(#pe083c0b15d)" style="stroke: #000000; stroke-linejoin: miter"/>
   </g>
   <g id="patch_29">
    <path d="M 394.0826 157.780514 
L 395.335357 157.780514 
L 395.335357 156.527762 
L 394.0826 156.527762 
z
" clip-path="url(#pe083c0b15d)" style="stroke: #000000; stroke-linejoin: miter"/>
   </g>
   <g id="patch_30">
    <path d="M 45.060538 149.173601 
L 55.590497 149.173601 
L 55.590497 138.643641 
L 45.060538 138.643641 
z
" clip-path="url(#pe083c0b15d)" style="stroke: #000000; stroke-linejoin: miter"/>
   </g>
   <g id="patch_31">
    <path d="M 58.393303 149.086352 
L 68.748766 149.086352 
L 68.748766 138.730889 
L 58.393303 138.730889 
z
" clip-path="url(#pe083c0b15d)" style="stroke: #000000; stroke-linejoin: miter"/>
   </g>
   <g id="patch_32">
    <path d="M 71.675589 149.049584 
L 81.957515 149.049584 
L 81.957515 138.767658 
L 71.675589 138.767658 
z
" clip-path="url(#pe083c0b15d)" style="stroke: #000000; stroke-linejoin: miter"/>
   </g>
   <g id="patch_33">
    <path d="M 84.912627 149.058061 
L 95.211508 149.058061 
L 95.211508 138.759179 
L 84.912627 138.759179 
z
" clip-path="url(#pe083c0b15d)" style="stroke: #000000; stroke-linejoin: miter"/>
   </g>
   <g id="patch_34">
    <path d="M 98.105636 149.110571 
L 108.509533 149.110571 
L 108.509533 138.706671 
L 98.105636 138.706671 
z
" clip-path="url(#pe083c0b15d)" style="stroke: #000000; stroke-linejoin: miter"/>
   </g>
   <g id="patch_35">
    <path d="M 111.389299 149.072428 
L 121.716914 149.072428 
L 121.716914 138.744813 
L 111.389299 138.744813 
z
" clip-path="url(#pe083c0b15d)" style="stroke: #000000; stroke-linejoin: miter"/>
   </g>
   <g id="patch_36">
    <path d="M 124.66896 149.03828 
L 134.928281 149.03828 
L 134.928281 138.77896 
L 124.66896 138.77896 
z
" clip-path="url(#pe083c0b15d)" style="stroke: #000000; stroke-linejoin: miter"/>
   </g>
   <g id="patch_37">
    <path d="M 137.926345 149.026417 
L 148.161937 149.026417 
L 148.161937 138.790825 
L 137.926345 138.790825 
z
" clip-path="url(#pe083c0b15d)" style="stroke: #000000; stroke-linejoin: miter"/>
   </g>
   <g id="patch_38">
    <path d="M 151.179025 149.019251 
L 161.400286 149.019251 
L 161.400286 138.79799 
L 151.179025 138.79799 
z
" clip-path="url(#pe083c0b15d)" style="stroke: #000000; stroke-linejoin: miter"/>
   </g>
   <g id="patch_39">
    <path d="M 164.430832 149.012962 
L 174.639512 149.012962 
L 174.639512 138.804281 
L 164.430832 138.804281 
z
" clip-path="url(#pe083c0b15d)" style="stroke: #000000; stroke-linejoin: miter"/>
   </g>
   <g id="patch_40">
    <path d="M 177.672446 149.016864 
L 187.888933 149.016864 
L 187.888933 138.800378 
L 177.672446 138.800378 
z
" clip-path="url(#pe083c0b15d)" style="stroke: #000000; stroke-linejoin: miter"/>
   </g>
   <g id="patch_41">
    <path d="M 190.917269 149.017555 
L 201.135145 149.017555 
L 201.135145 138.799686 
L 190.917269 138.799686 
z
" clip-path="url(#pe083c0b15d)" style="stroke: #000000; stroke-linejoin: miter"/>
   </g>
   <g id="patch_42">
    <path d="M 204.151721 149.028624 
L 214.391728 149.028624 
L 214.391728 138.788617 
L 204.151721 138.788617 
z
" clip-path="url(#pe083c0b15d)" style="stroke: #000000; stroke-linejoin: miter"/>
   </g>
   <g id="patch_43">
    <path d="M 217.406295 149.019562 
L 227.628175 149.019562 
L 227.628175 138.797681 
L 217.406295 138.797681 
z
" clip-path="url(#pe083c0b15d)" style="stroke: #000000; stroke-linejoin: miter"/>
   </g>
   <g id="patch_44">
    <path d="M 230.655526 149.015853 
L 240.869991 149.015853 
L 240.869991 138.801388 
L 230.655526 138.801388 
z
" clip-path="url(#pe083c0b15d)" style="stroke: #000000; stroke-linejoin: miter"/>
   </g>
   <g id="patch_45">
    <path d="M 243.894841 149.022056 
L 254.121711 149.022056 
L 254.121711 138.795186 
L 243.894841 138.795186 
z
" clip-path="url(#pe083c0b15d)" style="stroke: #000000; stroke-linejoin: miter"/>
   </g>
   <g id="patch_46">
    <path d="M 257.154102 149.008309 
L 267.353472 149.008309 
L 267.353472 138.808932 
L 257.154102 138.808932 
z
" clip-path="url(#pe083c0b15d)" style="stroke: #000000; stroke-linejoin: miter"/>
   </g>
   <g id="patch_47">
    <path d="M 270.397863 149.010066 
L 280.600758 149.010066 
L 280.600758 138.807177 
L 270.397863 138.807177 
z
" clip-path="url(#pe083c0b15d)" style="stroke: #000000; stroke-linejoin: miter"/>
   </g>
   <g id="patch_48">
    <path d="M 283.633275 149.02017 
L 293.85638 149.02017 
L 293.85638 138.797071 
L 283.633275 138.797071 
z
" clip-path="url(#pe083c0b15d)" style="stroke: #000000; stroke-linejoin: miter"/>
   </g>
   <g id="patch_49">
    <path d="M 296.883769 149.015193 
L 307.096921 149.015193 
L 307.096921 138.802048 
L 296.883769 138.802048 
z
" clip-path="url(#pe083c0b15d)" style="stroke: #000000; stroke-linejoin: miter"/>
   </g>
   <g id="patch_50">
    <path d="M 310.131964 149.012522 
L 320.33976 149.012522 
L 320.33976 138.80472 
L 310.131964 138.80472 
z
" clip-path="url(#pe083c0b15d)" style="stroke: #000000; stroke-linejoin: miter"/>
   </g>
   <g id="patch_51">
    <path d="M 323.377103 149.012909 
L 333.585681 149.012909 
L 333.585681 138.804331 
L 323.377103 138.804331 
z
" clip-path="url(#pe083c0b15d)" style="stroke: #000000; stroke-linejoin: miter"/>
   </g>
   <g id="patch_52">
    <path d="M 336.635125 149.000398 
L 346.818693 149.000398 
L 346.818693 138.816843 
L 336.635125 138.816843 
z
" clip-path="url(#pe083c0b15d)" style="stroke: #000000; stroke-linejoin: miter"/>
   </g>
   <g id="patch_53">
    <path d="M 349.872028 149.009016 
L 360.072825 149.009016 
L 360.072825 138.808225 
L 349.872028 138.808225 
z
" clip-path="url(#pe083c0b15d)" style="stroke: #000000; stroke-linejoin: miter"/>
   </g>
   <g id="patch_54">
    <path d="M 363.122017 149.004541 
L 373.313845 149.004541 
L 373.313845 138.8127 
L 363.122017 138.8127 
z
" clip-path="url(#pe083c0b15d)" style="stroke: #000000; stroke-linejoin: miter"/>
   </g>
   <g id="patch_55">
    <path d="M 376.373572 148.998497 
L 386.553325 148.998497 
L 386.553325 138.818744 
L 376.373572 138.818744 
z
" clip-path="url(#pe083c0b15d)" style="stroke: #000000; stroke-linejoin: miter"/>
   </g>
   <g id="patch_56">
    <path d="M 389.622525 148.995072 
L 399.795431 148.995072 
L 399.795431 138.822171 
L 389.622525 138.822171 
z
" clip-path="url(#pe083c0b15d)" style="stroke: #000000; stroke-linejoin: miter"/>
   </g>
   <g id="patch_57">
    <path d="M 45.437112 135.551509 
L 55.213923 135.551509 
L 55.213923 125.7747 
L 45.437112 125.7747 
z
" clip-path="url(#pe083c0b15d)" style="stroke: #000000; stroke-linejoin: miter"/>
   </g>
   <g id="patch_58">
    <path d="M 59.007591 135.226548 
L 68.134479 135.226548 
L 68.134479 126.099662 
L 59.007591 126.099662 
z
" clip-path="url(#pe083c0b15d)" style="stroke: #000000; stroke-linejoin: miter"/>
   </g>
   <g id="patch_59">
    <path d="M 72.732546 134.747109 
L 80.900555 134.747109 
L 80.900555 126.5791 
L 72.732546 126.5791 
z
" clip-path="url(#pe083c0b15d)" style="stroke: #000000; stroke-linejoin: miter"/>
   </g>
   <g id="patch_60">
    <path d="M 86.75968 133.965494 
L 93.364461 133.965494 
L 93.364461 127.360715 
L 86.75968 127.360715 
z
" clip-path="url(#pe083c0b15d)" style="stroke: #000000; stroke-linejoin: miter"/>
   </g>
   <g id="patch_61">
    <path d="M 101.20155 132.769138 
L 105.413616 132.769138 
L 105.413616 128.557067 
L 101.20155 128.557067 
z
" clip-path="url(#pe083c0b15d)" style="stroke: #000000; stroke-linejoin: miter"/>
   </g>
   <g id="patch_62">
    <path d="M 115.193177 132.023031 
L 117.91303 132.023031 
L 117.91303 129.303177 
L 115.193177 129.303177 
z
" clip-path="url(#pe083c0b15d)" style="stroke: #000000; stroke-linejoin: miter"/>
   </g>
   <g id="patch_63">
    <path d="M 128.850849 131.610874 
L 130.746393 131.610874 
L 130.746393 129.715331 
L 128.850849 129.715331 
z
" clip-path="url(#pe083c0b15d)" style="stroke: #000000; stroke-linejoin: miter"/>
   </g>
   <g id="patch_64">
    <path d="M 142.079805 131.627439 
L 144.008477 131.627439 
L 144.008477 129.698768 
L 142.079805 129.698768 
z
" clip-path="url(#pe083c0b15d)" style="stroke: #000000; stroke-linejoin: miter"/>
   </g>
   <g id="patch_65">
    <path d="M 154.781993 132.170768 
L 157.797324 132.170768 
L 157.797324 129.155441 
L 154.781993 129.155441 
z
" clip-path="url(#pe083c0b15d)" style="stroke: #000000; stroke-linejoin: miter"/>
   </g>
   <g id="patch_66">
    <path d="M 168.719239 131.47904 
L 170.351118 131.47904 
L 170.351118 129.847164 
L 168.719239 129.847164 
z
" clip-path="url(#pe083c0b15d)" style="stroke: #000000; stroke-linejoin: miter"/>
   </g>
   <g id="patch_67">
    <path d="M 181.511713 131.932083 
L 184.049666 131.932083 
L 184.049666 129.394124 
L 181.511713 129.394124 
z
" clip-path="url(#pe083c0b15d)" style="stroke: #000000; stroke-linejoin: miter"/>
   </g>
   <g id="patch_68">
    <path d="M 194.870084 131.819222 
L 197.182317 131.819222 
L 197.182317 129.506987 
L 194.870084 129.506987 
z
" clip-path="url(#pe083c0b15d)" style="stroke: #000000; stroke-linejoin: miter"/>
   </g>
   <g id="patch_69">
    <path d="M 208.133412 131.801411 
L 210.410023 131.801411 
L 210.410023 129.524798 
L 208.133412 129.524798 
z
" clip-path="url(#pe083c0b15d)" style="stroke: #000000; stroke-linejoin: miter"/>
   </g>
   <g id="patch_70">
    <path d="M 221.578564 131.601782 
L 223.455919 131.601782 
L 223.455919 129.724423 
L 221.578564 129.724423 
z
" clip-path="url(#pe083c0b15d)" style="stroke: #000000; stroke-linejoin: miter"/>
   </g>
   <g id="patch_71">
    <path d="M 235.116055 131.309802 
L 236.409449 131.309802 
L 236.409449 130.016403 
L 235.116055 130.016403 
z
" clip-path="url(#pe083c0b15d)" style="stroke: #000000; stroke-linejoin: miter"/>
   </g>
   <g id="patch_72">
    <path d="M 248.524057 131.147324 
L 249.492495 131.147324 
L 249.492495 130.178881 
L 248.524057 130.178881 
z
" clip-path="url(#pe083c0b15d)" style="stroke: #000000; stroke-linejoin: miter"/>
   </g>
   <g id="patch_73">
    <path d="M 261.619494 131.297407 
L 262.888092 131.297407 
L 262.888092 130.028802 
L 261.619494 130.028802 
z
" clip-path="url(#pe083c0b15d)" style="stroke: #000000; stroke-linejoin: miter"/>
   </g>
   <g id="patch_74">
    <path d="M 274.707391 131.455034 
L 276.291255 131.455034 
L 276.291255 129.871171 
L 274.707391 129.871171 
z
" clip-path="url(#pe083c0b15d)" style="stroke: #000000; stroke-linejoin: miter"/>
   </g>
   <g id="patch_75">
    <path d="M 288.019049 131.388882 
L 289.470607 131.388882 
L 289.470607 129.937324 
L 288.019049 129.937324 
z
" clip-path="url(#pe083c0b15d)" style="stroke: #000000; stroke-linejoin: miter"/>
   </g>
   <g id="patch_76">
    <path d="M 301.154643 131.49881 
L 302.826047 131.49881 
L 302.826047 129.827398 
L 301.154643 129.827398 
z
" clip-path="url(#pe083c0b15d)" style="stroke: #000000; stroke-linejoin: miter"/>
   </g>
   <g id="patch_77">
    <path d="M 314.797863 131.10111 
L 315.673886 131.10111 
L 315.673886 130.225095 
L 314.797863 130.225095 
z
" clip-path="url(#pe083c0b15d)" style="stroke: #000000; stroke-linejoin: miter"/>
   </g>
   <g id="patch_78">
    <path d="M 327.565515 131.578969 
L 329.397243 131.578969 
L 329.397243 129.747236 
L 327.565515 129.747236 
z
" clip-path="url(#pe083c0b15d)" style="stroke: #000000; stroke-linejoin: miter"/>
   </g>
   <g id="patch_79">
    <path d="M 341.311281 131.07873 
L 342.142537 131.07873 
L 342.142537 130.247479 
L 341.311281 130.247479 
z
" clip-path="url(#pe083c0b15d)" style="stroke: #000000; stroke-linejoin: miter"/>
   </g>
   <g id="patch_80">
    <path d="M 354.474514 131.161014 
L 355.470338 131.161014 
L 355.470338 130.165195 
L 354.474514 130.165195 
z
" clip-path="url(#pe083c0b15d)" style="stroke: #000000; stroke-linejoin: miter"/>
   </g>
   <g id="patch_81">
    <path d="M 367.580298 131.300748 
L 368.85559 131.300748 
L 368.85559 130.025457 
L 367.580298 130.025457 
z
" clip-path="url(#pe083c0b15d)" style="stroke: #000000; stroke-linejoin: miter"/>
   </g>
   <g id="patch_82">
    <path d="M 380.84211 131.284434 
L 382.084761 131.284434 
L 382.084761 130.041771 
L 380.84211 130.041771 
z
" clip-path="url(#pe083c0b15d)" style="stroke: #000000; stroke-linejoin: miter"/>
   </g>
   <g id="patch_83">
    <path d="M 393.761977 131.610096 
L 395.655955 131.610096 
L 395.655955 129.716111 
L 393.761977 129.716111 
z
" clip-path="url(#pe083c0b15d)" style="stroke: #000000; stroke-linejoin: miter"/>
   </g>
   <g id="patch_84">
    <path d="M 45.745764 121.997339 
L 54.905271 121.997339 
L 54.905271 112.837831 
L 45.745764 112.837831 
z
" clip-path="url(#pe083c0b15d)" style="stroke: #000000; stroke-linejoin: miter"/>
   </g>
   <g id="patch_85">
    <path d="M 59.245044 121.743576 
L 67.897025 121.743576 
L 67.897025 113.091596 
L 59.245044 113.091596 
z
" clip-path="url(#pe083c0b15d)" style="stroke: #000000; stroke-linejoin: miter"/>
   </g>
   <g id="patch_86">
    <path d="M 72.540401 121.693737 
L 81.092703 121.693737 
L 81.092703 113.141435 
L 72.540401 113.141435 
z
" clip-path="url(#pe083c0b15d)" style="stroke: #000000; stroke-linejoin: miter"/>
   </g>
   <g id="patch_87">
    <path d="M 85.762505 121.71715 
L 94.36163 121.71715 
L 94.36163 113.118025 
L 85.762505 113.118025 
z
" clip-path="url(#pe083c0b15d)" style="stroke: #000000; stroke-linejoin: miter"/>
   </g>
   <g id="patch_88">
    <path d="M 98.978577 121.746595 
L 107.636592 121.746595 
L 107.636592 113.08858 
L 98.978577 113.08858 
z
" clip-path="url(#pe083c0b15d)" style="stroke: #000000; stroke-linejoin: miter"/>
   </g>
   <g id="patch_89">
    <path d="M 112.24062 121.73007 
L 120.865587 121.73007 
L 120.865587 113.105103 
L 112.24062 113.105103 
z
" clip-path="url(#pe083c0b15d)" style="stroke: #000000; stroke-linejoin: miter"/>
   </g>
   <g id="patch_90">
    <path d="M 125.525801 121.690402 
L 134.071434 121.690402 
L 134.071434 113.14477 
L 125.525801 113.14477 
z
" clip-path="url(#pe083c0b15d)" style="stroke: #000000; stroke-linejoin: miter"/>
   </g>
   <g id="patch_91">
    <path d="M 138.832861 121.628863 
L 147.255414 121.628863 
L 147.255414 113.206306 
L 138.832861 113.206306 
z
" clip-path="url(#pe083c0b15d)" style="stroke: #000000; stroke-linejoin: miter"/>
   </g>
   <g id="patch_92">
    <path d="M 152.065835 121.641406 
L 160.513475 121.641406 
L 160.513475 113.193769 
L 152.065835 113.193769 
z
" clip-path="url(#pe083c0b15d)" style="stroke: #000000; stroke-linejoin: miter"/>
   </g>
   <g id="patch_93">
    <path d="M 165.318843 121.633919 
L 173.751514 121.633919 
L 173.751514 113.201251 
L 165.318843 113.201251 
z
" clip-path="url(#pe083c0b15d)" style="stroke: #000000; stroke-linejoin: miter"/>
   </g>
   <g id="patch_94">
    <path d="M 178.581616 121.616654 
L 186.979751 121.616654 
L 186.979751 113.218515 
L 178.581616 113.218515 
z
" clip-path="url(#pe083c0b15d)" style="stroke: #000000; stroke-linejoin: miter"/>
   </g>
   <g id="patch_95">
    <path d="M 191.817823 121.625964 
L 200.234578 121.625964 
L 200.234578 113.209206 
L 191.817823 113.209206 
z
" clip-path="url(#pe083c0b15d)" style="stroke: #000000; stroke-linejoin: miter"/>
   </g>
   <g id="patch_96">
    <path d="M 205.088604 121.600703 
L 213.454844 121.600703 
L 213.454844 113.234466 
L 205.088604 113.234466 
z
" clip-path="url(#pe083c0b15d)" style="stroke: #000000; stroke-linejoin: miter"/>
   </g>
   <g id="patch_97">
    <path d="M 218.31362 121.621208 
L 226.720863 121.621208 
L 226.720863 113.213965 
L 218.31362 113.213965 
z
" clip-path="url(#pe083c0b15d)" style="stroke: #000000; stroke-linejoin: miter"/>
   </g>
   <g id="patch_98">
    <path d="M 231.567045 121.613303 
L 239.958473 121.613303 
L 239.958473 113.221869 
L 231.567045 113.221869 
z
" clip-path="url(#pe083c0b15d)" style="stroke: #000000; stroke-linejoin: miter"/>
   </g>
   <g id="patch_99">
    <path d="M 244.837131 121.588734 
L 253.179433 121.588734 
L 253.179433 113.246435 
L 244.837131 113.246435 
z
" clip-path="url(#pe083c0b15d)" style="stroke: #000000; stroke-linejoin: miter"/>
   </g>
   <g id="patch_100">
    <path d="M 258.095343 121.576042 
L 266.412243 121.576042 
L 266.412243 113.259133 
L 258.095343 113.259133 
z
" clip-path="url(#pe083c0b15d)" style="stroke: #000000; stroke-linejoin: miter"/>
   </g>
   <g id="patch_101">
    <path d="M 271.34417 121.572739 
L 279.654476 121.572739 
L 279.654476 113.262433 
L 271.34417 113.262433 
z
" clip-path="url(#pe083c0b15d)" style="stroke: #000000; stroke-linejoin: miter"/>
   </g>
   <g id="patch_102">
    <path d="M 284.548457 121.613948 
L 292.941173 121.613948 
L 292.941173 113.221225 
L 284.548457 113.221225 
z
" clip-path="url(#pe083c0b15d)" style="stroke: #000000; stroke-linejoin: miter"/>
   </g>
   <g id="patch_103">
    <path d="M 297.787607 121.620311 
L 306.193057 121.620311 
L 306.193057 113.214861 
L 297.787607 113.214861 
z
" clip-path="url(#pe083c0b15d)" style="stroke: #000000; stroke-linejoin: miter"/>
   </g>
   <g id="patch_104">
    <path d="M 311.086078 121.567358 
L 319.385621 121.567358 
L 319.385621 113.267814 
L 311.086078 113.267814 
z
" clip-path="url(#pe083c0b15d)" style="stroke: #000000; stroke-linejoin: miter"/>
   </g>
   <g id="patch_105">
    <path d="M 324.334601 121.564361 
L 332.628157 121.564361 
L 332.628157 113.270808 
L 324.334601 113.270808 
z
" clip-path="url(#pe083c0b15d)" style="stroke: #000000; stroke-linejoin: miter"/>
   </g>
   <g id="patch_106">
    <path d="M 337.604245 121.540231 
L 345.849548 121.540231 
L 345.849548 113.294938 
L 337.604245 113.294938 
z
" clip-path="url(#pe083c0b15d)" style="stroke: #000000; stroke-linejoin: miter"/>
   </g>
   <g id="patch_107">
    <path d="M 350.8533 121.536691 
L 359.091503 121.536691 
L 359.091503 113.298482 
L 350.8533 113.298482 
z
" clip-path="url(#pe083c0b15d)" style="stroke: #000000; stroke-linejoin: miter"/>
   </g>
   <g id="patch_108">
    <path d="M 364.10195 121.533564 
L 372.333912 121.533564 
L 372.333912 113.301611 
L 364.10195 113.301611 
z
" clip-path="url(#pe083c0b15d)" style="stroke: #000000; stroke-linejoin: miter"/>
   </g>
   <g id="patch_109">
    <path d="M 377.363964 121.517074 
L 385.562932 121.517074 
L 385.562932 113.318096 
L 377.363964 113.318096 
z
" clip-path="url(#pe083c0b15d)" style="stroke: #000000; stroke-linejoin: miter"/>
   </g>
   <g id="patch_110">
    <path d="M 390.637676 121.48887 
L 398.780255 121.48887 
L 398.780255 113.346303 
L 390.637676 113.346303 
z
" clip-path="url(#pe083c0b15d)" style="stroke: #000000; stroke-linejoin: miter"/>
   </g>
   <g id="patch_111">
    <path d="M 46.136589 108.360997 
L 54.514446 108.360997 
L 54.514446 99.983138 
L 46.136589 99.983138 
z
" clip-path="url(#pe083c0b15d)" style="stroke: #000000; stroke-linejoin: miter"/>
   </g>
   <g id="patch_112">
    <path d="M 59.852107 107.890995 
L 67.28996 107.890995 
L 67.28996 100.45314 
L 59.852107 100.45314 
z
" clip-path="url(#pe083c0b15d)" style="stroke: #000000; stroke-linejoin: miter"/>
   </g>
   <g id="patch_113">
    <path d="M 73.13595 107.852673 
L 80.497155 107.852673 
L 80.497155 100.491472 
L 73.13595 100.491472 
z
" clip-path="url(#pe083c0b15d)" style="stroke: #000000; stroke-linejoin: miter"/>
   </g>
   <g id="patch_114">
    <path d="M 86.354818 107.87932 
L 93.76932 107.87932 
L 93.76932 100.464818 
L 86.354818 100.464818 
z
" clip-path="url(#pe083c0b15d)" style="stroke: #000000; stroke-linejoin: miter"/>
   </g>
   <g id="patch_115">
    <path d="M 99.530661 107.948994 
L 107.084515 107.948994 
L 107.084515 100.395141 
L 99.530661 100.395141 
z
" clip-path="url(#pe083c0b15d)" style="stroke: #000000; stroke-linejoin: miter"/>
   </g>
   <g id="patch_116">
    <path d="M 112.827132 107.89804 
L 120.279075 107.89804 
L 120.279075 100.446098 
L 112.827132 100.446098 
z
" clip-path="url(#pe083c0b15d)" style="stroke: #000000; stroke-linejoin: miter"/>
   </g>
   <g id="patch_117">
    <path d="M 126.05907 107.911619 
L 133.538171 107.911619 
L 133.538171 100.432518 
L 126.05907 100.432518 
z
" clip-path="url(#pe083c0b15d)" style="stroke: #000000; stroke-linejoin: miter"/>
   </g>
   <g id="patch_118">
    <path d="M 139.322045 107.894165 
L 146.766237 107.894165 
L 146.766237 100.449976 
L 139.322045 100.449976 
z
" clip-path="url(#pe083c0b15d)" style="stroke: #000000; stroke-linejoin: miter"/>
   </g>
   <g id="patch_119">
    <path d="M 152.579499 107.882225 
L 159.999811 107.882225 
L 159.999811 100.461913 
L 152.579499 100.461913 
z
" clip-path="url(#pe083c0b15d)" style="stroke: #000000; stroke-linejoin: miter"/>
   </g>
   <g id="patch_120">
    <path d="M 165.871843 107.835405 
L 173.198515 107.835405 
L 173.198515 100.508733 
L 165.871843 100.508733 
z
" clip-path="url(#pe083c0b15d)" style="stroke: #000000; stroke-linejoin: miter"/>
   </g>
   <g id="patch_121">
    <path d="M 179.095835 107.85693 
L 186.465557 107.85693 
L 186.465557 100.487208 
L 179.095835 100.487208 
z
" clip-path="url(#pe083c0b15d)" style="stroke: #000000; stroke-linejoin: miter"/>
   </g>
   <g id="patch_122">
    <path d="M 192.351673 107.846609 
L 199.700754 107.846609 
L 199.700754 100.497529 
L 192.351673 100.497529 
z
" clip-path="url(#pe083c0b15d)" style="stroke: #000000; stroke-linejoin: miter"/>
   </g>
   <g id="patch_123">
    <path d="M 205.585114 107.858685 
L 212.958347 107.858685 
L 212.958347 100.485452 
L 205.585114 100.485452 
z
" clip-path="url(#pe083c0b15d)" style="stroke: #000000; stroke-linejoin: miter"/>
   </g>
   <g id="patch_124">
    <path d="M 218.855453 107.833851 
L 226.179017 107.833851 
L 226.179017 100.510287 
L 218.855453 100.510287 
z
" clip-path="url(#pe083c0b15d)" style="stroke: #000000; stroke-linejoin: miter"/>
   </g>
   <g id="patch_125">
    <path d="M 232.105126 107.829698 
L 239.420391 107.829698 
L 239.420391 100.514436 
L 232.105126 100.514436 
z
" clip-path="url(#pe083c0b15d)" style="stroke: #000000; stroke-linejoin: miter"/>
   </g>
   <g id="patch_126">
    <path d="M 245.362037 107.818314 
L 252.654527 107.818314 
L 252.654527 100.525824 
L 245.362037 100.525824 
z
" clip-path="url(#pe083c0b15d)" style="stroke: #000000; stroke-linejoin: miter"/>
   </g>
   <g id="patch_127">
    <path d="M 258.616157 107.809705 
L 265.891429 107.809705 
L 265.891429 100.534433 
L 258.616157 100.534433 
z
" clip-path="url(#pe083c0b15d)" style="stroke: #000000; stroke-linejoin: miter"/>
   </g>
   <g id="patch_128">
    <path d="M 271.862659 107.80872 
L 279.135961 107.80872 
L 279.135961 100.535418 
L 271.862659 100.535418 
z
" clip-path="url(#pe083c0b15d)" style="stroke: #000000; stroke-linejoin: miter"/>
   </g>
   <g id="patch_129">
    <path d="M 285.095242 107.821646 
L 292.394388 107.821646 
L 292.394388 100.522489 
L 285.095242 100.522489 
z
" clip-path="url(#pe083c0b15d)" style="stroke: #000000; stroke-linejoin: miter"/>
   </g>
   <g id="patch_130">
    <path d="M 298.381206 107.781208 
L 305.599484 107.781208 
L 305.599484 100.56293 
L 298.381206 100.56293 
z
" clip-path="url(#pe083c0b15d)" style="stroke: #000000; stroke-linejoin: miter"/>
   </g>
   <g id="patch_131">
    <path d="M 311.632458 107.77546 
L 318.839241 107.77546 
L 318.839241 100.568678 
L 311.632458 100.568678 
z
" clip-path="url(#pe083c0b15d)" style="stroke: #000000; stroke-linejoin: miter"/>
   </g>
   <g id="patch_132">
    <path d="M 324.854708 107.798738 
L 332.108051 107.798738 
L 332.108051 100.545397 
L 324.854708 100.545397 
z
" clip-path="url(#pe083c0b15d)" style="stroke: #000000; stroke-linejoin: miter"/>
   </g>
   <g id="patch_133">
    <path d="M 338.119804 107.779149 
L 345.333964 107.779149 
L 345.333964 100.564989 
L 338.119804 100.564989 
z
" clip-path="url(#pe083c0b15d)" style="stroke: #000000; stroke-linejoin: miter"/>
   </g>
   <g id="patch_134">
    <path d="M 351.37712 107.767369 
L 358.567708 107.767369 
L 358.567708 100.576769 
L 351.37712 100.576769 
z
" clip-path="url(#pe083c0b15d)" style="stroke: #000000; stroke-linejoin: miter"/>
   </g>
   <g id="patch_135">
    <path d="M 364.630873 107.75914 
L 371.805014 107.75914 
L 371.805014 100.584998 
L 364.630873 100.584998 
z
" clip-path="url(#pe083c0b15d)" style="stroke: #000000; stroke-linejoin: miter"/>
   </g>
   <g id="patch_136">
    <path d="M 377.894454 107.74106 
L 385.032443 107.74106 
L 385.032443 100.603074 
L 377.894454 100.603074 
z
" clip-path="url(#pe083c0b15d)" style="stroke: #000000; stroke-linejoin: miter"/>
   </g>
   <g id="patch_137">
    <path d="M 391.143963 107.737072 
L 398.273968 107.737072 
L 398.273968 100.607066 
L 391.143963 100.607066 
z
" clip-path="url(#pe083c0b15d)" style="stroke: #000000; stroke-linejoin: miter"/>
   </g>
   <g id="patch_138">
    <path d="M 46.041558 95.210512 
L 54.609476 95.210512 
L 54.609476 86.642591 
L 46.041558 86.642591 
z
" clip-path="url(#pe083c0b15d)" style="stroke: #000000; stroke-linejoin: miter"/>
   </g>
   <g id="patch_139">
    <path d="M 59.806948 94.69064 
L 67.335119 94.69064 
L 67.335119 87.16247 
L 59.806948 87.16247 
z
" clip-path="url(#pe083c0b15d)" style="stroke: #000000; stroke-linejoin: miter"/>
   </g>
   <g id="patch_140">
    <path d="M 73.059598 94.683503 
L 80.573506 94.683503 
L 80.573506 87.169594 
L 73.059598 87.169594 
z
" clip-path="url(#pe083c0b15d)" style="stroke: #000000; stroke-linejoin: miter"/>
   </g>
   <g id="patch_141">
    <path d="M 86.274173 94.714445 
L 93.849962 94.714445 
L 93.849962 87.138653 
L 86.274173 87.138653 
z
" clip-path="url(#pe083c0b15d)" style="stroke: #000000; stroke-linejoin: miter"/>
   </g>
   <g id="patch_142">
    <path d="M 99.495851 94.738287 
L 107.119322 94.738287 
L 107.119322 87.114816 
L 99.495851 87.114816 
z
" clip-path="url(#pe083c0b15d)" style="stroke: #000000; stroke-linejoin: miter"/>
   </g>
   <g id="patch_143">
    <path d="M 112.760474 94.719182 
L 120.345733 94.719182 
L 120.345733 87.133922 
L 112.760474 87.133922 
z
" clip-path="url(#pe083c0b15d)" style="stroke: #000000; stroke-linejoin: miter"/>
   </g>
   <g id="patch_144">
    <path d="M 126.070868 94.654304 
L 133.526373 94.654304 
L 133.526373 87.198799 
L 126.070868 87.198799 
z
" clip-path="url(#pe083c0b15d)" style="stroke: #000000; stroke-linejoin: miter"/>
   </g>
   <g id="patch_145">
    <path d="M 139.334127 94.636563 
L 146.754149 94.636563 
L 146.754149 87.216541 
L 139.334127 87.216541 
z
" clip-path="url(#pe083c0b15d)" style="stroke: #000000; stroke-linejoin: miter"/>
   </g>
   <g id="patch_146">
    <path d="M 152.614079 94.602128 
L 159.965238 94.602128 
L 159.965238 87.250969 
L 152.614079 87.250969 
z
" clip-path="url(#pe083c0b15d)" style="stroke: #000000; stroke-linejoin: miter"/>
   </g>
   <g id="patch_147">
    <path d="M 165.865931 94.595799 
L 173.204426 94.595799 
L 173.204426 87.257304 
L 165.865931 87.257304 
z
" clip-path="url(#pe083c0b15d)" style="stroke: #000000; stroke-linejoin: miter"/>
   </g>
   <g id="patch_148">
    <path d="M 179.106964 94.600277 
L 186.454428 94.600277 
L 186.454428 87.25282 
L 179.106964 87.25282 
z
" clip-path="url(#pe083c0b15d)" style="stroke: #000000; stroke-linejoin: miter"/>
   </g>
   <g id="patch_149">
    <path d="M 192.367021 94.585732 
L 199.685381 94.585732 
L 199.685381 87.267365 
L 192.367021 87.267365 
z
" clip-path="url(#pe083c0b15d)" style="stroke: #000000; stroke-linejoin: miter"/>
   </g>
   <g id="patch_150">
    <path d="M 205.607548 94.590734 
L 212.935913 94.590734 
L 212.935913 87.262369 
L 205.607548 87.262369 
z
" clip-path="url(#pe083c0b15d)" style="stroke: #000000; stroke-linejoin: miter"/>
   </g>
   <g id="patch_151">
    <path d="M 218.85971 94.584083 
L 226.174773 94.584083 
L 226.174773 87.269014 
L 218.85971 87.269014 
z
" clip-path="url(#pe083c0b15d)" style="stroke: #000000; stroke-linejoin: miter"/>
   </g>
   <g id="patch_152">
    <path d="M 232.099012 94.590298 
L 239.426505 94.590298 
L 239.426505 87.262805 
L 232.099012 87.262805 
z
" clip-path="url(#pe083c0b15d)" style="stroke: #000000; stroke-linejoin: miter"/>
   </g>
   <g id="patch_153">
    <path d="M 245.359991 94.574837 
L 252.656561 94.574837 
L 252.656561 87.278267 
L 245.359991 87.278267 
z
" clip-path="url(#pe083c0b15d)" style="stroke: #000000; stroke-linejoin: miter"/>
   </g>
   <g id="patch_154">
    <path d="M 258.605079 94.575272 
L 265.90252 94.575272 
L 265.90252 87.277831 
L 258.605079 87.277831 
z
" clip-path="url(#pe083c0b15d)" style="stroke: #000000; stroke-linejoin: miter"/>
   </g>
   <g id="patch_155">
    <path d="M 271.854272 94.57159 
L 279.144349 94.57159 
L 279.144349 87.281513 
L 271.854272 87.281513 
z
" clip-path="url(#pe083c0b15d)" style="stroke: #000000; stroke-linejoin: miter"/>
   </g>
   <g id="patch_156">
    <path d="M 285.095747 94.575639 
L 292.393908 94.575639 
L 292.393908 87.277471 
L 285.095747 87.277471 
z
" clip-path="url(#pe083c0b15d)" style="stroke: #000000; stroke-linejoin: miter"/>
   </g>
   <g id="patch_157">
    <path d="M 298.365745 94.551152 
L 305.614945 94.551152 
L 305.614945 87.301958 
L 298.365745 87.301958 
z
" clip-path="url(#pe083c0b15d)" style="stroke: #000000; stroke-linejoin: miter"/>
   </g>
   <g id="patch_158">
    <path d="M 311.628846 94.533575 
L 318.842879 94.533575 
L 318.842879 87.319529 
L 311.628846 87.319529 
z
" clip-path="url(#pe083c0b15d)" style="stroke: #000000; stroke-linejoin: miter"/>
   </g>
   <g id="patch_159">
    <path d="M 324.873327 94.53461 
L 332.089432 94.53461 
L 332.089432 87.318499 
L 324.873327 87.318499 
z
" clip-path="url(#pe083c0b15d)" style="stroke: #000000; stroke-linejoin: miter"/>
   </g>
   <g id="patch_160">
    <path d="M 338.14186 94.511595 
L 345.311934 94.511595 
L 345.311934 87.341508 
L 338.14186 87.341508 
z
" clip-path="url(#pe083c0b15d)" style="stroke: #000000; stroke-linejoin: miter"/>
   </g>
   <g id="patch_161">
    <path d="M 351.366206 94.532766 
L 358.578622 94.532766 
L 358.578622 87.320344 
L 351.366206 87.320344 
z
" clip-path="url(#pe083c0b15d)" style="stroke: #000000; stroke-linejoin: miter"/>
   </g>
   <g id="patch_162">
    <path d="M 364.624102 94.520381 
L 371.81176 94.520381 
L 371.81176 87.332723 
L 364.624102 87.332723 
z
" clip-path="url(#pe083c0b15d)" style="stroke: #000000; stroke-linejoin: miter"/>
   </g>
   <g id="patch_163">
    <path d="M 377.871666 94.518334 
L 385.055231 94.518334 
L 385.055231 87.334769 
L 377.871666 87.334769 
z
" clip-path="url(#pe083c0b15d)" style="stroke: #000000; stroke-linejoin: miter"/>
   </g>
   <g id="patch_164">
    <path d="M 391.159753 94.475765 
L 398.258178 94.475765 
L 398.258178 87.377339 
L 391.159753 87.377339 
z
" clip-path="url(#pe083c0b15d)" style="stroke: #000000; stroke-linejoin: miter"/>
   </g>
   <g id="patch_165">
    <path d="M 46.554885 81.451666 
L 54.09615 81.451666 
L 54.09615 73.910403 
L 46.554885 73.910403 
z
" clip-path="url(#pe083c0b15d)" style="stroke: #000000; stroke-linejoin: miter"/>
   </g>
   <g id="patch_166">
    <path d="M 60.41907 80.832999 
L 66.722999 80.832999 
L 66.722999 74.52907 
L 60.41907 74.52907 
z
" clip-path="url(#pe083c0b15d)" style="stroke: #000000; stroke-linejoin: miter"/>
   </g>
   <g id="patch_167">
    <path d="M 73.701662 80.795924 
L 79.931442 80.795924 
L 79.931442 74.566145 
L 73.701662 74.566145 
z
" clip-path="url(#pe083c0b15d)" style="stroke: #000000; stroke-linejoin: miter"/>
   </g>
   <g id="patch_168">
    <path d="M 86.912659 80.830447 
L 93.211479 80.830447 
L 93.211479 74.531628 
L 86.912659 74.531628 
z
" clip-path="url(#pe083c0b15d)" style="stroke: #000000; stroke-linejoin: miter"/>
   </g>
   <g id="patch_169">
    <path d="M 100.10571 80.882908 
L 106.509459 80.882908 
L 106.509459 74.479155 
L 100.10571 74.479155 
z
" clip-path="url(#pe083c0b15d)" style="stroke: #000000; stroke-linejoin: miter"/>
   </g>
   <g id="patch_170">
    <path d="M 113.367828 80.866309 
L 119.738385 80.866309 
L 119.738385 74.495753 
L 113.367828 74.495753 
z
" clip-path="url(#pe083c0b15d)" style="stroke: #000000; stroke-linejoin: miter"/>
   </g>
   <g id="patch_171">
    <path d="M 126.6473 80.832355 
L 132.949941 80.832355 
L 132.949941 74.529714 
L 126.6473 74.529714 
z
" clip-path="url(#pe083c0b15d)" style="stroke: #000000; stroke-linejoin: miter"/>
   </g>
   <g id="patch_172">
    <path d="M 139.915467 80.809706 
L 146.172809 80.809706 
L 146.172809 74.552363 
L 139.915467 74.552363 
z
" clip-path="url(#pe083c0b15d)" style="stroke: #000000; stroke-linejoin: miter"/>
   </g>
   <g id="patch_173">
    <path d="M 153.203743 80.766947 
L 159.375568 80.766947 
L 159.375568 74.595122 
L 153.203743 74.595122 
z
" clip-path="url(#pe083c0b15d)" style="stroke: #000000; stroke-linejoin: miter"/>
   </g>
   <g id="patch_174">
    <path d="M 166.466856 80.749357 
L 172.603501 80.749357 
L 172.603501 74.612718 
L 166.466856 74.612718 
z
" clip-path="url(#pe083c0b15d)" style="stroke: #000000; stroke-linejoin: miter"/>
   </g>
   <g id="patch_175">
    <path d="M 179.714433 80.747285 
L 185.846934 80.747285 
L 185.846934 74.614777 
L 179.714433 74.614777 
z
" clip-path="url(#pe083c0b15d)" style="stroke: #000000; stroke-linejoin: miter"/>
   </g>
   <g id="patch_176">
    <path d="M 192.97766 80.729582 
L 199.074754 80.729582 
L 199.074754 74.632487 
L 192.97766 74.632487 
z
" clip-path="url(#pe083c0b15d)" style="stroke: #000000; stroke-linejoin: miter"/>
   </g>
   <g id="patch_177">
    <path d="M 206.230263 80.722501 
L 212.313197 80.722501 
L 212.313197 74.639568 
L 206.230263 74.639568 
z
" clip-path="url(#pe083c0b15d)" style="stroke: #000000; stroke-linejoin: miter"/>
   </g>
   <g id="patch_178">
    <path d="M 219.485419 80.712857 
L 225.549064 80.712857 
L 225.549064 74.649212 
L 219.485419 74.649212 
z
" clip-path="url(#pe083c0b15d)" style="stroke: #000000; stroke-linejoin: miter"/>
   </g>
   <g id="patch_179">
    <path d="M 232.70782 80.735967 
L 238.817685 80.735967 
L 238.817685 74.626102 
L 232.70782 74.626102 
z
" clip-path="url(#pe083c0b15d)" style="stroke: #000000; stroke-linejoin: miter"/>
   </g>
   <g id="patch_180">
    <path d="M 246.000201 80.689109 
L 252.016363 80.689109 
L 252.016363 74.672954 
L 246.000201 74.672954 
z
" clip-path="url(#pe083c0b15d)" style="stroke: #000000; stroke-linejoin: miter"/>
   </g>
   <g id="patch_181">
    <path d="M 259.293518 80.64131 
L 265.214081 80.64131 
L 265.214081 74.720753 
L 259.293518 74.720753 
z
" clip-path="url(#pe083c0b15d)" style="stroke: #000000; stroke-linejoin: miter"/>
   </g>
   <g id="patch_182">
    <path d="M 272.535713 80.644626 
L 278.462883 80.644626 
L 278.462883 74.717443 
L 272.535713 74.717443 
z
" clip-path="url(#pe083c0b15d)" style="stroke: #000000; stroke-linejoin: miter"/>
   </g>
   <g id="patch_183">
    <path d="M 285.733077 80.692779 
L 291.756553 80.692779 
L 291.756553 74.66929 
L 285.733077 74.66929 
z
" clip-path="url(#pe083c0b15d)" style="stroke: #000000; stroke-linejoin: miter"/>
   </g>
   <g id="patch_184">
    <path d="M 299.012675 80.65871 
L 304.968014 80.65871 
L 304.968014 74.703365 
L 299.012675 74.703365 
z
" clip-path="url(#pe083c0b15d)" style="stroke: #000000; stroke-linejoin: miter"/>
   </g>
   <g id="patch_185">
    <path d="M 312.283002 80.633889 
L 318.188723 80.633889 
L 318.188723 74.728174 
L 312.283002 74.728174 
z
" clip-path="url(#pe083c0b15d)" style="stroke: #000000; stroke-linejoin: miter"/>
   </g>
   <g id="patch_186">
    <path d="M 325.619317 80.543103 
L 331.343442 80.543103 
L 331.343442 74.818966 
L 325.619317 74.818966 
z
" clip-path="url(#pe083c0b15d)" style="stroke: #000000; stroke-linejoin: miter"/>
   </g>
   <g id="patch_187">
    <path d="M 338.835377 80.572561 
L 344.618416 80.572561 
L 344.618416 74.789508 
L 338.835377 74.789508 
z
" clip-path="url(#pe083c0b15d)" style="stroke: #000000; stroke-linejoin: miter"/>
   </g>
   <g id="patch_188">
    <path d="M 352.058156 80.595286 
L 357.886646 80.595286 
L 357.886646 74.76679 
L 352.058156 74.76679 
z
" clip-path="url(#pe083c0b15d)" style="stroke: #000000; stroke-linejoin: miter"/>
   </g>
   <g id="patch_189">
    <path d="M 365.381309 80.51765 
L 371.054527 80.51765 
L 371.054527 74.844425 
L 365.381309 74.844425 
z
" clip-path="url(#pe083c0b15d)" style="stroke: #000000; stroke-linejoin: miter"/>
   </g>
   <g id="patch_190">
    <path d="M 378.696226 80.448263 
L 384.23067 80.448263 
L 384.23067 74.913813 
L 378.696226 74.913813 
z
" clip-path="url(#pe083c0b15d)" style="stroke: #000000; stroke-linejoin: miter"/>
   </g>
   <g id="patch_191">
    <path d="M 392.021805 80.368195 
L 397.396126 80.368195 
L 397.396126 74.993874 
L 392.021805 74.993874 
z
" clip-path="url(#pe083c0b15d)" style="stroke: #000000; stroke-linejoin: miter"/>
   </g>
   <g id="patch_192">
    <path d="M 46.51851 68.242522 
L 54.132525 68.242522 
L 54.132525 60.628506 
L 46.51851 60.628506 
z
" clip-path="url(#pe083c0b15d)" style="stroke: #000000; stroke-linejoin: miter"/>
   </g>
   <g id="patch_193">
    <path d="M 60.379219 67.627336 
L 66.76285 67.627336 
L 66.76285 61.243705 
L 60.379219 61.243705 
z
" clip-path="url(#pe083c0b15d)" style="stroke: #000000; stroke-linejoin: miter"/>
   </g>
   <g id="patch_194">
    <path d="M 73.631904 67.620167 
L 80.001201 67.620167 
L 80.001201 61.250868 
L 73.631904 61.250868 
z
" clip-path="url(#pe083c0b15d)" style="stroke: #000000; stroke-linejoin: miter"/>
   </g>
   <g id="patch_195">
    <path d="M 86.881392 67.616194 
L 93.242743 67.616194 
L 93.242743 61.25484 
L 86.881392 61.25484 
z
" clip-path="url(#pe083c0b15d)" style="stroke: #000000; stroke-linejoin: miter"/>
   </g>
   <g id="patch_196">
    <path d="M 100.091568 67.651532 
L 106.523601 67.651532 
L 106.523601 61.219496 
L 100.091568 61.219496 
z
" clip-path="url(#pe083c0b15d)" style="stroke: #000000; stroke-linejoin: miter"/>
   </g>
   <g id="patch_197">
    <path d="M 113.374372 67.614249 
L 119.731835 67.614249 
L 119.731835 61.256786 
L 113.374372 61.256786 
z
" clip-path="url(#pe083c0b15d)" style="stroke: #000000; stroke-linejoin: miter"/>
   </g>
   <g id="patch_198">
    <path d="M 126.60396 67.630178 
L 132.993275 67.630178 
L 132.993275 61.240863 
L 126.60396 61.240863 
z
" clip-path="url(#pe083c0b15d)" style="stroke: #000000; stroke-linejoin: miter"/>
   </g>
   <g id="patch_199">
    <path d="M 139.871394 67.608261 
L 146.216882 67.608261 
L 146.216882 61.262773 
L 139.871394 61.262773 
z
" clip-path="url(#pe083c0b15d)" style="stroke: #000000; stroke-linejoin: miter"/>
   </g>
   <g id="patch_200">
    <path d="M 153.170894 67.554279 
L 159.408423 67.554279 
L 159.408423 61.316756 
L 153.170894 61.316756 
z
" clip-path="url(#pe083c0b15d)" style="stroke: #000000; stroke-linejoin: miter"/>
   </g>
   <g id="patch_201">
    <path d="M 166.428076 67.54262 
L 172.642281 67.54262 
L 172.642281 61.328421 
L 166.428076 61.328421 
z
" clip-path="url(#pe083c0b15d)" style="stroke: #000000; stroke-linejoin: miter"/>
   </g>
   <g id="patch_202">
    <path d="M 179.650022 67.566184 
L 185.911357 67.566184 
L 185.911357 61.30485 
L 179.650022 61.30485 
z
" clip-path="url(#pe083c0b15d)" style="stroke: #000000; stroke-linejoin: miter"/>
   </g>
   <g id="patch_203">
    <path d="M 192.888782 67.572949 
L 199.163645 67.572949 
L 199.163645 61.298092 
L 192.888782 61.298092 
z
" clip-path="url(#pe083c0b15d)" style="stroke: #000000; stroke-linejoin: miter"/>
   </g>
   <g id="patch_204">
    <path d="M 206.153588 67.553647 
L 212.389848 67.553647 
L 212.389848 61.317381 
L 206.153588 61.317381 
z
" clip-path="url(#pe083c0b15d)" style="stroke: #000000; stroke-linejoin: miter"/>
   </g>
   <g id="patch_205">
    <path d="M 219.403324 67.549441 
L 225.631171 67.549441 
L 225.631171 61.3216 
L 219.403324 61.3216 
z
" clip-path="url(#pe083c0b15d)" style="stroke: #000000; stroke-linejoin: miter"/>
   </g>
   <g id="patch_206">
    <path d="M 232.662459 67.535811 
L 238.863046 67.535811 
L 238.863046 61.335217 
L 232.662459 61.335217 
z
" clip-path="url(#pe083c0b15d)" style="stroke: #000000; stroke-linejoin: miter"/>
   </g>
   <g id="patch_207">
    <path d="M 245.903605 67.540188 
L 252.112947 67.540188 
L 252.112947 61.33084 
L 245.903605 61.33084 
z
" clip-path="url(#pe083c0b15d)" style="stroke: #000000; stroke-linejoin: miter"/>
   </g>
   <g id="patch_208">
    <path d="M 259.169586 67.519724 
L 265.338 67.519724 
L 265.338 61.351317 
L 259.169586 61.351317 
z
" clip-path="url(#pe083c0b15d)" style="stroke: #000000; stroke-linejoin: miter"/>
   </g>
   <g id="patch_209">
    <path d="M 272.413613 67.521221 
L 278.585008 67.521221 
L 278.585008 61.34982 
L 272.413613 61.34982 
z
" clip-path="url(#pe083c0b15d)" style="stroke: #000000; stroke-linejoin: miter"/>
   </g>
   <g id="patch_210">
    <path d="M 285.649883 67.530449 
L 291.839746 67.530449 
L 291.839746 61.340586 
L 285.649883 61.340586 
z
" clip-path="url(#pe083c0b15d)" style="stroke: #000000; stroke-linejoin: miter"/>
   </g>
   <g id="patch_211">
    <path d="M 298.93029 67.495572 
L 305.0504 67.495572 
L 305.0504 61.375462 
L 298.93029 61.375462 
z
" clip-path="url(#pe083c0b15d)" style="stroke: #000000; stroke-linejoin: miter"/>
   </g>
   <g id="patch_212">
    <path d="M 312.197837 67.473548 
L 318.273887 67.473548 
L 318.273887 61.397492 
L 312.197837 61.397492 
z
" clip-path="url(#pe083c0b15d)" style="stroke: #000000; stroke-linejoin: miter"/>
   </g>
   <g id="patch_213">
    <path d="M 325.409678 67.507212 
L 331.553081 67.507212 
L 331.553081 61.363822 
L 325.409678 61.363822 
z
" clip-path="url(#pe083c0b15d)" style="stroke: #000000; stroke-linejoin: miter"/>
   </g>
   <g id="patch_214">
    <path d="M 338.692207 67.470201 
L 344.761587 67.470201 
L 344.761587 61.400834 
L 338.692207 61.400834 
z
" clip-path="url(#pe083c0b15d)" style="stroke: #000000; stroke-linejoin: miter"/>
   </g>
   <g id="patch_215">
    <path d="M 351.957025 67.450906 
L 357.987802 67.450906 
L 357.987802 61.420135 
L 351.957025 61.420135 
z
" clip-path="url(#pe083c0b15d)" style="stroke: #000000; stroke-linejoin: miter"/>
   </g>
   <g id="patch_216">
    <path d="M 365.256405 67.397056 
L 371.179482 67.397056 
L 371.179482 61.473979 
L 365.256405 61.473979 
z
" clip-path="url(#pe083c0b15d)" style="stroke: #000000; stroke-linejoin: miter"/>
   </g>
   <g id="patch_217">
    <path d="M 378.533856 67.36511 
L 384.393041 67.36511 
L 384.393041 61.505918 
L 378.533856 61.505918 
z
" clip-path="url(#pe083c0b15d)" style="stroke: #000000; stroke-linejoin: miter"/>
   </g>
   <g id="patch_218">
    <path d="M 391.804359 67.340117 
L 397.613572 67.340117 
L 397.613572 61.530911 
L 391.804359 61.530911 
z
" clip-path="url(#pe083c0b15d)" style="stroke: #000000; stroke-linejoin: miter"/>
   </g>
   <g id="patch_219">
    <path d="M 45.558496 55.957024 
L 55.092538 55.957024 
L 55.092538 46.422983 
L 45.558496 46.422983 
z
" clip-path="url(#pe083c0b15d)" style="stroke: #000000; stroke-linejoin: miter"/>
   </g>
   <g id="patch_220">
    <path d="M 59.104767 55.656271 
L 68.037302 55.656271 
L 68.037302 46.723736 
L 59.104767 46.723736 
z
" clip-path="url(#pe083c0b15d)" style="stroke: #000000; stroke-linejoin: miter"/>
   </g>
   <g id="patch_221">
    <path d="M 72.552047 55.454501 
L 81.081056 55.454501 
L 81.081056 46.925493 
L 72.552047 46.925493 
z
" clip-path="url(#pe083c0b15d)" style="stroke: #000000; stroke-linejoin: miter"/>
   </g>
   <g id="patch_222">
    <path d="M 86.089472 55.162597 
L 94.034666 55.162597 
L 94.034666 47.217403 
L 86.089472 47.217403 
z
" clip-path="url(#pe083c0b15d)" style="stroke: #000000; stroke-linejoin: miter"/>
   </g>
   <g id="patch_223">
    <path d="M 99.617834 54.879749 
L 106.997335 54.879749 
L 106.997335 47.500244 
L 99.617834 47.500244 
z
" clip-path="url(#pe083c0b15d)" style="stroke: #000000; stroke-linejoin: miter"/>
   </g>
   <g id="patch_224">
    <path d="M 112.982429 54.760675 
L 120.123772 54.760675 
L 120.123772 47.619325 
L 112.982429 47.619325 
z
" clip-path="url(#pe083c0b15d)" style="stroke: #000000; stroke-linejoin: miter"/>
   </g>
   <g id="patch_225">
    <path d="M 126.343838 54.644783 
L 133.253397 54.644783 
L 133.253397 47.735223 
L 126.343838 47.735223 
z
" clip-path="url(#pe083c0b15d)" style="stroke: #000000; stroke-linejoin: miter"/>
   </g>
   <g id="patch_226">
    <path d="M 139.562771 54.671367 
L 146.525499 54.671367 
L 146.525499 47.708646 
L 139.562771 47.708646 
z
" clip-path="url(#pe083c0b15d)" style="stroke: #000000; stroke-linejoin: miter"/>
   </g>
   <g id="patch_227">
    <path d="M 152.876128 54.603527 
L 159.703176 54.603527 
L 159.703176 47.776479 
L 152.876128 47.776479 
z
" clip-path="url(#pe083c0b15d)" style="stroke: #000000; stroke-linejoin: miter"/>
   </g>
   <g id="patch_228">
    <path d="M 166.038041 54.687138 
L 173.032317 54.687138 
L 173.032317 47.692868 
L 166.038041 47.692868 
z
" clip-path="url(#pe083c0b15d)" style="stroke: #000000; stroke-linejoin: miter"/>
   </g>
   <g id="patch_229">
    <path d="M 179.416105 54.554579 
L 186.145262 54.554579 
L 186.145262 47.825415 
L 179.416105 47.825415 
z
" clip-path="url(#pe083c0b15d)" style="stroke: #000000; stroke-linejoin: miter"/>
   </g>
   <g id="patch_230">
    <path d="M 192.568247 54.64796 
L 199.484167 54.64796 
L 199.484167 47.73204 
L 192.568247 47.73204 
z
" clip-path="url(#pe083c0b15d)" style="stroke: #000000; stroke-linejoin: miter"/>
   </g>
   <g id="patch_231">
    <path d="M 205.827849 54.633882 
L 212.715612 54.633882 
L 212.715612 47.746125 
L 205.827849 47.746125 
z
" clip-path="url(#pe083c0b15d)" style="stroke: #000000; stroke-linejoin: miter"/>
   </g>
   <g id="patch_232">
    <path d="M 219.134808 54.57244 
L 225.899688 54.57244 
L 225.899688 47.807566 
L 219.134808 47.807566 
z
" clip-path="url(#pe083c0b15d)" style="stroke: #000000; stroke-linejoin: miter"/>
   </g>
   <g id="patch_233">
    <path d="M 232.456091 54.496674 
L 239.069439 54.496674 
L 239.069439 47.883332 
L 232.456091 47.883332 
z
" clip-path="url(#pe083c0b15d)" style="stroke: #000000; stroke-linejoin: miter"/>
   </g>
   <g id="patch_234">
    <path d="M 245.677747 54.520523 
L 252.338793 54.520523 
L 252.338793 47.859471 
L 245.677747 47.859471 
z
" clip-path="url(#pe083c0b15d)" style="stroke: #000000; stroke-linejoin: miter"/>
   </g>
   <g id="patch_235">
    <path d="M 258.966591 54.477208 
L 265.540995 54.477208 
L 265.540995 47.902798 
L 258.966591 47.902798 
z
" clip-path="url(#pe083c0b15d)" style="stroke: #000000; stroke-linejoin: miter"/>
   </g>
   <g id="patch_236">
    <path d="M 272.149505 54.539793 
L 278.849091 54.539793 
L 278.849091 47.840207 
L 272.149505 47.840207 
z
" clip-path="url(#pe083c0b15d)" style="stroke: #000000; stroke-linejoin: miter"/>
   </g>
   <g id="patch_237">
    <path d="M 285.434004 54.500817 
L 292.055651 54.500817 
L 292.055651 47.879176 
L 285.434004 47.879176 
z
" clip-path="url(#pe083c0b15d)" style="stroke: #000000; stroke-linejoin: miter"/>
   </g>
   <g id="patch_238">
    <path d="M 298.675631 54.504714 
L 305.305059 54.504714 
L 305.305059 47.875286 
L 298.675631 47.875286 
z
" clip-path="url(#pe083c0b15d)" style="stroke: #000000; stroke-linejoin: miter"/>
   </g>
   <g id="patch_239">
    <path d="M 311.996005 54.429857 
L 318.47572 54.429857 
L 318.47572 47.950143 
L 311.996005 47.950143 
z
" clip-path="url(#pe083c0b15d)" style="stroke: #000000; stroke-linejoin: miter"/>
   </g>
   <g id="patch_240">
    <path d="M 325.242305 54.429074 
L 331.720454 54.429074 
L 331.720454 47.950926 
L 325.242305 47.950926 
z
" clip-path="url(#pe083c0b15d)" style="stroke: #000000; stroke-linejoin: miter"/>
   </g>
   <g id="patch_241">
    <path d="M 338.495022 54.421874 
L 344.958771 54.421874 
L 344.958771 47.958126 
L 338.495022 47.958126 
z
" clip-path="url(#pe083c0b15d)" style="stroke: #000000; stroke-linejoin: miter"/>
   </g>
   <g id="patch_242">
    <path d="M 351.739782 54.422619 
L 358.205021 54.422619 
L 358.205021 47.957381 
L 351.739782 47.957381 
z
" clip-path="url(#pe083c0b15d)" style="stroke: #000000; stroke-linejoin: miter"/>
   </g>
   <g id="patch_243">
    <path d="M 365.055532 54.352411 
L 371.380355 54.352411 
L 371.380355 48.027589 
L 365.055532 48.027589 
z
" clip-path="url(#pe083c0b15d)" style="stroke: #000000; stroke-linejoin: miter"/>
   </g>
   <g id="patch_244">
    <path d="M 378.291778 54.36167 
L 384.635119 54.36167 
L 384.635119 48.01833 
L 378.291778 48.01833 
z
" clip-path="url(#pe083c0b15d)" style="stroke: #000000; stroke-linejoin: miter"/>
   </g>
   <g id="patch_245">
    <path d="M 391.544773 54.35418 
L 397.873133 54.35418 
L 397.873133 48.02582 
L 391.544773 48.02582 
z
" clip-path="url(#pe083c0b15d)" style="stroke: #000000; stroke-linejoin: miter"/>
   </g>
   <g id="matplotlib.axis_1">
    <g id="xtick_1">
     <g id="line2d_1">
      <defs>
       <path id="m2163743363" d="M 0 0 
L 0 3.5 
" style="stroke: #000000; stroke-width: 0.8"/>
      </defs>
      <g>
       <use xlink:href="#m2163743363" x="50.325517" y="170.399655" style="stroke: #000000; stroke-width: 0.8"/>
      </g>
     </g>
     <g id="text_1">
      <!-- 1 -->
      <g transform="translate(47.144267 191.498093) scale(0.1 -0.1)">
       <defs>
        <path id="DejaVuSans-31" d="M 794 531 
L 1825 531 
L 1825 4091 
L 703 3866 
L 703 4441 
L 1819 4666 
L 2450 4666 
L 2450 531 
L 3481 531 
L 3481 0 
L 794 0 
L 794 531 
z
" transform="scale(0.015625)"/>
       </defs>
       <use xlink:href="#DejaVuSans-31"/>
      </g>
     </g>
    </g>
    <g id="xtick_2">
     <g id="line2d_2">
      <g>
       <use xlink:href="#m2163743363" x="394.708966" y="170.399655" style="stroke: #000000; stroke-width: 0.8"/>
      </g>
     </g>
     <g id="text_2">
      <!-- 1000 -->
      <g transform="translate(381.983966 191.498093) scale(0.1 -0.1)">
       <defs>
        <path id="DejaVuSans-30" d="M 2034 4250 
Q 1547 4250 1301 3770 
Q 1056 3291 1056 2328 
Q 1056 1369 1301 889 
Q 1547 409 2034 409 
Q 2525 409 2770 889 
Q 3016 1369 3016 2328 
Q 3016 3291 2770 3770 
Q 2525 4250 2034 4250 
z
M 2034 4750 
Q 2819 4750 3233 4129 
Q 3647 3509 3647 2328 
Q 3647 1150 3233 529 
Q 2819 -91 2034 -91 
Q 1250 -91 836 529 
Q 422 1150 422 2328 
Q 422 3509 836 4129 
Q 1250 4750 2034 4750 
z
" transform="scale(0.015625)"/>
       </defs>
       <use xlink:href="#DejaVuSans-31"/>
       <use xlink:href="#DejaVuSans-30" x="63.623047"/>
       <use xlink:href="#DejaVuSans-30" x="127.246094"/>
       <use xlink:href="#DejaVuSans-30" x="190.869141"/>
      </g>
     </g>
    </g>
    <g id="text_3">
     <!-- Epoch -->
     <g transform="translate(213.829062 205.176218) scale(0.1 -0.1)">
      <defs>
       <path id="DejaVuSans-45" d="M 628 4666 
L 3578 4666 
L 3578 4134 
L 1259 4134 
L 1259 2753 
L 3481 2753 
L 3481 2222 
L 1259 2222 
L 1259 531 
L 3634 531 
L 3634 0 
L 628 0 
L 628 4666 
z
" transform="scale(0.015625)"/>
       <path id="DejaVuSans-70" d="M 1159 525 
L 1159 -1331 
L 581 -1331 
L 581 3500 
L 1159 3500 
L 1159 2969 
Q 1341 3281 1617 3432 
Q 1894 3584 2278 3584 
Q 2916 3584 3314 3078 
Q 3713 2572 3713 1747 
Q 3713 922 3314 415 
Q 2916 -91 2278 -91 
Q 1894 -91 1617 61 
Q 1341 213 1159 525 
z
M 3116 1747 
Q 3116 2381 2855 2742 
Q 2594 3103 2138 3103 
Q 1681 3103 1420 2742 
Q 1159 2381 1159 1747 
Q 1159 1113 1420 752 
Q 1681 391 2138 391 
Q 2594 391 2855 752 
Q 3116 1113 3116 1747 
z
" transform="scale(0.015625)"/>
       <path id="DejaVuSans-6f" d="M 1959 3097 
Q 1497 3097 1228 2736 
Q 959 2375 959 1747 
Q 959 1119 1226 758 
Q 1494 397 1959 397 
Q 2419 397 2687 759 
Q 2956 1122 2956 1747 
Q 2956 2369 2687 2733 
Q 2419 3097 1959 3097 
z
M 1959 3584 
Q 2709 3584 3137 3096 
Q 3566 2609 3566 1747 
Q 3566 888 3137 398 
Q 2709 -91 1959 -91 
Q 1206 -91 779 398 
Q 353 888 353 1747 
Q 353 2609 779 3096 
Q 1206 3584 1959 3584 
z
" transform="scale(0.015625)"/>
       <path id="DejaVuSans-63" d="M 3122 3366 
L 3122 2828 
Q 2878 2963 2633 3030 
Q 2388 3097 2138 3097 
Q 1578 3097 1268 2742 
Q 959 2388 959 1747 
Q 959 1106 1268 751 
Q 1578 397 2138 397 
Q 2388 397 2633 464 
Q 2878 531 3122 666 
L 3122 134 
Q 2881 22 2623 -34 
Q 2366 -91 2075 -91 
Q 1284 -91 818 406 
Q 353 903 353 1747 
Q 353 2603 823 3093 
Q 1294 3584 2113 3584 
Q 2378 3584 2631 3529 
Q 2884 3475 3122 3366 
z
" transform="scale(0.015625)"/>
       <path id="DejaVuSans-68" d="M 3513 2113 
L 3513 0 
L 2938 0 
L 2938 2094 
Q 2938 2591 2744 2837 
Q 2550 3084 2163 3084 
Q 1697 3084 1428 2787 
Q 1159 2491 1159 1978 
L 1159 0 
L 581 0 
L 581 4863 
L 1159 4863 
L 1159 2956 
Q 1366 3272 1645 3428 
Q 1925 3584 2291 3584 
Q 2894 3584 3203 3211 
Q 3513 2838 3513 2113 
z
" transform="scale(0.015625)"/>
      </defs>
      <use xlink:href="#DejaVuSans-45"/>
      <use xlink:href="#DejaVuSans-70" x="63.183594"/>
      <use xlink:href="#DejaVuSans-6f" x="126.660156"/>
      <use xlink:href="#DejaVuSans-63" x="187.841797"/>
      <use xlink:href="#DejaVuSans-68" x="242.822266"/>
     </g>
    </g>
   </g>
   <g id="matplotlib.axis_2">
    <g id="ytick_1">
     <g id="line2d_3">
      <defs>
       <path id="m1a97ab3141" d="M 0 0 
L -3.5 0 
" style="stroke: #000000; stroke-width: 0.8"/>
      </defs>
      <g>
       <use xlink:href="#m1a97ab3141" x="37.08" y="157.154138" style="stroke: #000000; stroke-width: 0.8"/>
      </g>
     </g>
     <g id="text_4">
      <!-- 2 -->
      <g transform="translate(17.2175 160.953357) scale(0.1 -0.1)">
       <defs>
        <path id="DejaVuSans-32" d="M 1228 531 
L 3431 531 
L 3431 0 
L 469 0 
L 469 531 
Q 828 903 1448 1529 
Q 2069 2156 2228 2338 
Q 2531 2678 2651 2914 
Q 2772 3150 2772 3378 
Q 2772 3750 2511 3984 
Q 2250 4219 1831 4219 
Q 1534 4219 1204 4116 
Q 875 4013 500 3803 
L 500 4441 
Q 881 4594 1212 4672 
Q 1544 4750 1819 4750 
Q 2544 4750 2975 4387 
Q 3406 4025 3406 3419 
Q 3406 3131 3298 2873 
Q 3191 2616 2906 2266 
Q 2828 2175 2409 1742 
Q 1991 1309 1228 531 
z
" transform="scale(0.015625)"/>
       </defs>
       <use xlink:href="#DejaVuSans-32"/>
      </g>
     </g>
    </g>
    <g id="ytick_2">
     <g id="line2d_4">
      <g>
       <use xlink:href="#m1a97ab3141" x="37.08" y="143.908621" style="stroke: #000000; stroke-width: 0.8"/>
      </g>
     </g>
     <g id="text_5">
      <!-- 3 -->
      <g transform="translate(17.2175 147.707839) scale(0.1 -0.1)">
       <defs>
        <path id="DejaVuSans-33" d="M 2597 2516 
Q 3050 2419 3304 2112 
Q 3559 1806 3559 1356 
Q 3559 666 3084 287 
Q 2609 -91 1734 -91 
Q 1441 -91 1130 -33 
Q 819 25 488 141 
L 488 750 
Q 750 597 1062 519 
Q 1375 441 1716 441 
Q 2309 441 2620 675 
Q 2931 909 2931 1356 
Q 2931 1769 2642 2001 
Q 2353 2234 1838 2234 
L 1294 2234 
L 1294 2753 
L 1863 2753 
Q 2328 2753 2575 2939 
Q 2822 3125 2822 3475 
Q 2822 3834 2567 4026 
Q 2313 4219 1838 4219 
Q 1578 4219 1281 4162 
Q 984 4106 628 3988 
L 628 4550 
Q 988 4650 1302 4700 
Q 1616 4750 1894 4750 
Q 2613 4750 3031 4423 
Q 3450 4097 3450 3541 
Q 3450 3153 3228 2886 
Q 3006 2619 2597 2516 
z
" transform="scale(0.015625)"/>
       </defs>
       <use xlink:href="#DejaVuSans-33"/>
      </g>
     </g>
    </g>
    <g id="ytick_3">
     <g id="line2d_5">
      <g>
       <use xlink:href="#m1a97ab3141" x="37.08" y="130.663103" style="stroke: #000000; stroke-width: 0.8"/>
      </g>
     </g>
     <g id="text_6">
      <!-- 5 -->
      <g transform="translate(17.2175 134.462322) scale(0.1 -0.1)">
       <defs>
        <path id="DejaVuSans-35" d="M 691 4666 
L 3169 4666 
L 3169 4134 
L 1269 4134 
L 1269 2991 
Q 1406 3038 1543 3061 
Q 1681 3084 1819 3084 
Q 2600 3084 3056 2656 
Q 3513 2228 3513 1497 
Q 3513 744 3044 326 
Q 2575 -91 1722 -91 
Q 1428 -91 1123 -41 
Q 819 9 494 109 
L 494 744 
Q 775 591 1075 516 
Q 1375 441 1709 441 
Q 2250 441 2565 725 
Q 2881 1009 2881 1497 
Q 2881 1984 2565 2268 
Q 2250 2553 1709 2553 
Q 1456 2553 1204 2497 
Q 953 2441 691 2322 
L 691 4666 
z
" transform="scale(0.015625)"/>
       </defs>
       <use xlink:href="#DejaVuSans-35"/>
      </g>
     </g>
    </g>
    <g id="ytick_4">
     <g id="line2d_6">
      <g>
       <use xlink:href="#m1a97ab3141" x="37.08" y="117.417586" style="stroke: #000000; stroke-width: 0.8"/>
      </g>
     </g>
     <g id="text_7">
      <!-- 7 -->
      <g transform="translate(17.2175 121.216805) scale(0.1 -0.1)">
       <defs>
        <path id="DejaVuSans-37" d="M 525 4666 
L 3525 4666 
L 3525 4397 
L 1831 0 
L 1172 0 
L 2766 4134 
L 525 4134 
L 525 4666 
z
" transform="scale(0.015625)"/>
       </defs>
       <use xlink:href="#DejaVuSans-37"/>
      </g>
     </g>
    </g>
    <g id="ytick_5">
     <g id="line2d_7">
      <g>
       <use xlink:href="#m1a97ab3141" x="37.08" y="104.172069" style="stroke: #000000; stroke-width: 0.8"/>
      </g>
     </g>
     <g id="text_8">
      <!-- 11 -->
      <g transform="translate(10.855 107.971288) scale(0.1 -0.1)">
       <use xlink:href="#DejaVuSans-31"/>
       <use xlink:href="#DejaVuSans-31" x="63.623047"/>
      </g>
     </g>
    </g>
    <g id="ytick_6">
     <g id="line2d_8">
      <g>
       <use xlink:href="#m1a97ab3141" x="37.08" y="90.926552" style="stroke: #000000; stroke-width: 0.8"/>
      </g>
     </g>
     <g id="text_9">
      <!-- 13 -->
      <g transform="translate(10.855 94.72577) scale(0.1 -0.1)">
       <use xlink:href="#DejaVuSans-31"/>
       <use xlink:href="#DejaVuSans-33" x="63.623047"/>
      </g>
     </g>
    </g>
    <g id="ytick_7">
     <g id="line2d_9">
      <g>
       <use xlink:href="#m1a97ab3141" x="37.08" y="77.681034" style="stroke: #000000; stroke-width: 0.8"/>
      </g>
     </g>
     <g id="text_10">
      <!-- 17 -->
      <g transform="translate(10.855 81.480253) scale(0.1 -0.1)">
       <use xlink:href="#DejaVuSans-31"/>
       <use xlink:href="#DejaVuSans-37" x="63.623047"/>
      </g>
     </g>
    </g>
    <g id="ytick_8">
     <g id="line2d_10">
      <g>
       <use xlink:href="#m1a97ab3141" x="37.08" y="64.435517" style="stroke: #000000; stroke-width: 0.8"/>
      </g>
     </g>
     <g id="text_11">
      <!-- 19 -->
      <g transform="translate(10.855 68.234736) scale(0.1 -0.1)">
       <defs>
        <path id="DejaVuSans-39" d="M 703 97 
L 703 672 
Q 941 559 1184 500 
Q 1428 441 1663 441 
Q 2288 441 2617 861 
Q 2947 1281 2994 2138 
Q 2813 1869 2534 1725 
Q 2256 1581 1919 1581 
Q 1219 1581 811 2004 
Q 403 2428 403 3163 
Q 403 3881 828 4315 
Q 1253 4750 1959 4750 
Q 2769 4750 3195 4129 
Q 3622 3509 3622 2328 
Q 3622 1225 3098 567 
Q 2575 -91 1691 -91 
Q 1453 -91 1209 -44 
Q 966 3 703 97 
z
M 1959 2075 
Q 2384 2075 2632 2365 
Q 2881 2656 2881 3163 
Q 2881 3666 2632 3958 
Q 2384 4250 1959 4250 
Q 1534 4250 1286 3958 
Q 1038 3666 1038 3163 
Q 1038 2656 1286 2365 
Q 1534 2075 1959 2075 
z
" transform="scale(0.015625)"/>
       </defs>
       <use xlink:href="#DejaVuSans-31"/>
       <use xlink:href="#DejaVuSans-39" x="63.623047"/>
      </g>
     </g>
    </g>
    <g id="ytick_9">
     <g id="line2d_11">
      <g>
       <use xlink:href="#m1a97ab3141" x="37.08" y="51.19" style="stroke: #000000; stroke-width: 0.8"/>
      </g>
     </g>
     <g id="text_12">
      <!--  -->
      <g transform="translate(16.5675 54.989219) scale(0.1 -0.1)">
       <defs>
        <path id="DejaVuSans-2119" d="M 938 4353 
L 938 313 
L 1569 313 
L 1569 4353 
L 938 4353 
z
M 1881 4353 
L 1881 2284 
L 2825 2284 
Q 2900 2284 2972 2291 
L 2972 4347 
Q 2900 4353 2825 4353 
L 1881 4353 
z
M 625 4666 
L 2678 4666 
Q 3459 4666 3861 4323 
Q 4263 3981 4263 3322 
Q 4263 2656 3861 2315 
Q 3459 1975 2675 1975 
L 1881 1975 
L 1881 0 
L 625 0 
L 625 4666 
z
M 3300 4281 
L 3300 2359 
Q 3488 2428 3628 2556 
Q 3919 2825 3919 3322 
Q 3919 3816 3631 4084 
Q 3494 4213 3300 4281 
z
" transform="scale(0.015625)"/>
       </defs>
       <use xlink:href="#DejaVuSans-2119"/>
      </g>
     </g>
    </g>
   </g>
  </g>
 </g>
 <defs>
  <clipPath id="pe083c0b15d">
   <rect x="37.08" y="24.698966" width="384.12" height="145.70069"/>
  </clipPath>
 </defs>
</svg>
