<?xml version="1.0" encoding="utf-8" standalone="no"?>
<!DOCTYPE svg PUBLIC "-//W3C//DTD SVG 1.1//EN"
  "http://www.w3.org/Graphics/SVG/1.1/DTD/svg11.dtd">
<svg xmlns:xlink="http://www.w3.org/1999/xlink" width="864pt" height="432pt" viewBox="0 0 864 432" xmlns="http://www.w3.org/2000/svg" version="1.1">
 <metadata>
  <rdf:RDF xmlns:dc="http://purl.org/dc/elements/1.1/" xmlns:cc="http://creativecommons.org/ns#" xmlns:rdf="http://www.w3.org/1999/02/22-rdf-syntax-ns#">
   <cc:Work>
    <dc:type rdf:resource="http://purl.org/dc/dcmitype/StillImage"/>
    <dc:date>2024-08-13T22:16:01.742348</dc:date>
    <dc:format>image/svg+xml</dc:format>
    <dc:creator>
     <cc:Agent>
      <dc:title>Matplotlib v3.9.1.post1, https://matplotlib.org/</dc:title>
     </cc:Agent>
    </dc:creator>
   </cc:Work>
  </rdf:RDF>
 </metadata>
 <defs>
  <style type="text/css">*{stroke-linejoin: round; stroke-linecap: butt}</style>
 </defs>
 <g id="figure_1">
  <g id="patch_1">
   <path d="M 0 432 
L 864 432 
L 864 0 
L 0 0 
z
" style="fill: #ffffff"/>
  </g>
  <g id="axes_1">
   <g id="patch_2">
    <path d="M 37.08 368.71 
L 853.2 368.71 
L 853.2 59.147241 
L 37.08 59.147241 
z
" style="fill: #ffffff"/>
   </g>
   <g id="patch_3">
    <path d="M 52.569574 353.220426 
L 77.874564 353.220426 
L 77.874564 327.915436 
L 52.569574 327.915436 
z
" clip-path="url(#p2e244b4018)" style="stroke: #000000; stroke-linejoin: miter"/>
   </g>
   <g id="patch_4">
    <path d="M 82.661924 351.270145 
L 104.066352 351.270145 
L 104.066352 329.865717 
L 82.661924 329.865717 
z
" clip-path="url(#p2e244b4018)" style="stroke: #000000; stroke-linejoin: miter"/>
   </g>
   <g id="patch_5">
    <path d="M 118.181832 343.892306 
L 124.830582 343.892306 
L 124.830582 337.243556 
L 118.181832 337.243556 
z
" clip-path="url(#p2e244b4018)" style="stroke: #000000; stroke-linejoin: miter"/>
   </g>
   <g id="patch_6">
    <path d="M 149.586593 340.629613 
L 149.709958 340.629613 
L 149.709958 340.506249 
L 149.586593 340.506249 
z
" clip-path="url(#p2e244b4018)" style="stroke: #000000; stroke-linejoin: miter"/>
   </g>
   <g id="patch_7">
    <path d="M 177.788048 340.570228 
L 177.792642 340.570228 
L 177.792642 340.565634 
L 177.788048 340.565634 
z
" clip-path="url(#p2e244b4018)" style="stroke: #000000; stroke-linejoin: miter"/>
   </g>
   <g id="patch_8">
    <path d="M 205.931834 340.568511 
L 205.932994 340.568511 
L 205.932994 340.567351 
L 205.931834 340.567351 
z
" clip-path="url(#p2e244b4018)" style="stroke: #000000; stroke-linejoin: miter"/>
   </g>
   <g id="patch_9">
    <path d="M 234.073648 340.568766 
L 234.075317 340.568766 
L 234.075317 340.567097 
L 234.073648 340.567097 
z
" clip-path="url(#p2e244b4018)" style="stroke: #000000; stroke-linejoin: miter"/>
   </g>
   <g id="patch_10">
    <path d="M 262.215593 340.56889 
L 262.217511 340.56889 
L 262.217511 340.566972 
L 262.215593 340.566972 
z
" clip-path="url(#p2e244b4018)" style="stroke: #000000; stroke-linejoin: miter"/>
   </g>
   <g id="patch_11">
    <path d="M 290.357797 340.568754 
L 290.359444 340.568754 
L 290.359444 340.567108 
L 290.357797 340.567108 
z
" clip-path="url(#p2e244b4018)" style="stroke: #000000; stroke-linejoin: miter"/>
   </g>
   <g id="patch_12">
    <path d="M 318.50006 340.568561 
L 318.50132 340.568561 
L 318.50132 340.567301 
L 318.50006 340.567301 
z
" clip-path="url(#p2e244b4018)" style="stroke: #000000; stroke-linejoin: miter"/>
   </g>
   <g id="patch_13">
    <path d="M 346.642239 340.568451 
L 346.643278 340.568451 
L 346.643278 340.567411 
L 346.642239 340.567411 
z
" clip-path="url(#p2e244b4018)" style="stroke: #000000; stroke-linejoin: miter"/>
   </g>
   <g id="patch_14">
    <path d="M 374.784373 340.568385 
L 374.785282 340.568385 
L 374.785282 340.567477 
L 374.784373 340.567477 
z
" clip-path="url(#p2e244b4018)" style="stroke: #000000; stroke-linejoin: miter"/>
   </g>
   <g id="patch_15">
    <path d="M 402.926477 340.56835 
L 402.927316 340.56835 
L 402.927316 340.567512 
L 402.926477 340.567512 
z
" clip-path="url(#p2e244b4018)" style="stroke: #000000; stroke-linejoin: miter"/>
   </g>
   <g id="patch_16">
    <path d="M 431.068509 340.568388 
L 431.069422 340.568388 
L 431.069422 340.567474 
L 431.068509 340.567474 
z
" clip-path="url(#p2e244b4018)" style="stroke: #000000; stroke-linejoin: miter"/>
   </g>
   <g id="patch_17">
    <path d="M 459.210474 340.568492 
L 459.211595 340.568492 
L 459.211595 340.567371 
L 459.210474 340.567371 
z
" clip-path="url(#p2e244b4018)" style="stroke: #000000; stroke-linejoin: miter"/>
   </g>
   <g id="patch_18">
    <path d="M 487.352263 340.568772 
L 487.353944 340.568772 
L 487.353944 340.56709 
L 487.352263 340.56709 
z
" clip-path="url(#p2e244b4018)" style="stroke: #000000; stroke-linejoin: miter"/>
   </g>
   <g id="patch_19">
    <path d="M 515.493809 340.569294 
L 515.496535 340.569294 
L 515.496535 340.566568 
L 515.493809 340.566568 
z
" clip-path="url(#p2e244b4018)" style="stroke: #000000; stroke-linejoin: miter"/>
   </g>
   <g id="patch_20">
    <path d="M 543.634476 340.570696 
L 543.640007 340.570696 
L 543.640007 340.565166 
L 543.634476 340.565166 
z
" clip-path="url(#p2e244b4018)" style="stroke: #000000; stroke-linejoin: miter"/>
   </g>
   <g id="patch_21">
    <path d="M 571.773828 340.573414 
L 571.784793 340.573414 
L 571.784793 340.562448 
L 571.773828 340.562448 
z
" clip-path="url(#p2e244b4018)" style="stroke: #000000; stroke-linejoin: miter"/>
   </g>
   <g id="patch_22">
    <path d="M 599.904198 340.585112 
L 599.93856 340.585112 
L 599.93856 340.55075 
L 599.904198 340.55075 
z
" clip-path="url(#p2e244b4018)" style="stroke: #000000; stroke-linejoin: miter"/>
   </g>
   <g id="patch_23">
    <path d="M 628.024776 340.606603 
L 628.102121 340.606603 
L 628.102121 340.529259 
L 628.024776 340.529259 
z
" clip-path="url(#p2e244b4018)" style="stroke: #000000; stroke-linejoin: miter"/>
   </g>
   <g id="patch_24">
    <path d="M 656.088396 340.685052 
L 656.322638 340.685052 
L 656.322638 340.45081 
L 656.088396 340.45081 
z
" clip-path="url(#p2e244b4018)" style="stroke: #000000; stroke-linejoin: miter"/>
   </g>
   <g id="patch_25">
    <path d="M 684.157755 340.757763 
L 684.537418 340.757763 
L 684.537418 340.378099 
L 684.157755 340.378099 
z
" clip-path="url(#p2e244b4018)" style="stroke: #000000; stroke-linejoin: miter"/>
   </g>
   <g id="patch_26">
    <path d="M 712.254742 340.802844 
L 712.724568 340.802844 
L 712.724568 340.333018 
L 712.254742 340.333018 
z
" clip-path="url(#p2e244b4018)" style="stroke: #000000; stroke-linejoin: miter"/>
   </g>
   <g id="patch_27">
    <path d="M 740.424699 340.774956 
L 740.838749 340.774956 
L 740.838749 340.360906 
L 740.424699 340.360906 
z
" clip-path="url(#p2e244b4018)" style="stroke: #000000; stroke-linejoin: miter"/>
   </g>
   <g id="patch_28">
    <path d="M 768.619819 340.721905 
L 768.927768 340.721905 
L 768.927768 340.413957 
L 768.619819 340.413957 
z
" clip-path="url(#p2e244b4018)" style="stroke: #000000; stroke-linejoin: miter"/>
   </g>
   <g id="patch_29">
    <path d="M 796.766334 340.717459 
L 797.06539 340.717459 
L 797.06539 340.418403 
L 796.766334 340.418403 
z
" clip-path="url(#p2e244b4018)" style="stroke: #000000; stroke-linejoin: miter"/>
   </g>
   <g id="patch_30">
    <path d="M 52.558138 325.089793 
L 77.886 325.089793 
L 77.886 299.761931 
L 52.558138 299.761931 
z
" clip-path="url(#p2e244b4018)" style="stroke: #000000; stroke-linejoin: miter"/>
   </g>
   <g id="patch_31">
    <path d="M 80.700207 325.089793 
L 106.028069 325.089793 
L 106.028069 299.761931 
L 80.700207 299.761931 
z
" clip-path="url(#p2e244b4018)" style="stroke: #000000; stroke-linejoin: miter"/>
   </g>
   <g id="patch_32">
    <path d="M 108.842276 325.089793 
L 134.170138 325.089793 
L 134.170138 299.761931 
L 108.842276 299.761931 
z
" clip-path="url(#p2e244b4018)" style="stroke: #000000; stroke-linejoin: miter"/>
   </g>
   <g id="patch_33">
    <path d="M 136.984345 325.089793 
L 162.312207 325.089793 
L 162.312207 299.761931 
L 136.984345 299.761931 
z
" clip-path="url(#p2e244b4018)" style="stroke: #000000; stroke-linejoin: miter"/>
   </g>
   <g id="patch_34">
    <path d="M 165.126414 325.089793 
L 190.454276 325.089793 
L 190.454276 299.761931 
L 165.126414 299.761931 
z
" clip-path="url(#p2e244b4018)" style="stroke: #000000; stroke-linejoin: miter"/>
   </g>
   <g id="patch_35">
    <path d="M 193.268483 325.089793 
L 218.596345 325.089793 
L 218.596345 299.761931 
L 193.268483 299.761931 
z
" clip-path="url(#p2e244b4018)" style="stroke: #000000; stroke-linejoin: miter"/>
   </g>
   <g id="patch_36">
    <path d="M 221.410552 325.089793 
L 246.738414 325.089793 
L 246.738414 299.761931 
L 221.410552 299.761931 
z
" clip-path="url(#p2e244b4018)" style="stroke: #000000; stroke-linejoin: miter"/>
   </g>
   <g id="patch_37">
    <path d="M 249.552621 325.089793 
L 274.880483 325.089793 
L 274.880483 299.761931 
L 249.552621 299.761931 
z
" clip-path="url(#p2e244b4018)" style="stroke: #000000; stroke-linejoin: miter"/>
   </g>
   <g id="patch_38">
    <path d="M 277.69469 325.089793 
L 303.022552 325.089793 
L 303.022552 299.761931 
L 277.69469 299.761931 
z
" clip-path="url(#p2e244b4018)" style="stroke: #000000; stroke-linejoin: miter"/>
   </g>
   <g id="patch_39">
    <path d="M 305.836759 325.089793 
L 331.164621 325.089793 
L 331.164621 299.761931 
L 305.836759 299.761931 
z
" clip-path="url(#p2e244b4018)" style="stroke: #000000; stroke-linejoin: miter"/>
   </g>
   <g id="patch_40">
    <path d="M 333.978828 325.089793 
L 359.30669 325.089793 
L 359.30669 299.761931 
L 333.978828 299.761931 
z
" clip-path="url(#p2e244b4018)" style="stroke: #000000; stroke-linejoin: miter"/>
   </g>
   <g id="patch_41">
    <path d="M 362.161888 325.048801 
L 387.407767 325.048801 
L 387.407767 299.802923 
L 362.161888 299.802923 
z
" clip-path="url(#p2e244b4018)" style="stroke: #000000; stroke-linejoin: miter"/>
   </g>
   <g id="patch_42">
    <path d="M 390.421305 324.931454 
L 415.432488 324.931454 
L 415.432488 299.92027 
L 390.421305 299.92027 
z
" clip-path="url(#p2e244b4018)" style="stroke: #000000; stroke-linejoin: miter"/>
   </g>
   <g id="patch_43">
    <path d="M 418.69457 324.800257 
L 443.443361 324.800257 
L 443.443361 300.051467 
L 418.69457 300.051467 
z
" clip-path="url(#p2e244b4018)" style="stroke: #000000; stroke-linejoin: miter"/>
   </g>
   <g id="patch_44">
    <path d="M 447.001649 324.635247 
L 471.42042 324.635247 
L 471.42042 300.216477 
L 447.001649 300.216477 
z
" clip-path="url(#p2e244b4018)" style="stroke: #000000; stroke-linejoin: miter"/>
   </g>
   <g id="patch_45">
    <path d="M 475.333234 324.445731 
L 499.372973 324.445731 
L 499.372973 300.405993 
L 475.333234 300.405993 
z
" clip-path="url(#p2e244b4018)" style="stroke: #000000; stroke-linejoin: miter"/>
   </g>
   <g id="patch_46">
    <path d="M 503.729878 324.191157 
L 527.260467 324.191157 
L 527.260467 300.660567 
L 503.729878 300.660567 
z
" clip-path="url(#p2e244b4018)" style="stroke: #000000; stroke-linejoin: miter"/>
   </g>
   <g id="patch_47">
    <path d="M 532.140173 323.92293 
L 555.134309 323.92293 
L 555.134309 300.928794 
L 532.140173 300.928794 
z
" clip-path="url(#p2e244b4018)" style="stroke: #000000; stroke-linejoin: miter"/>
   </g>
   <g id="patch_48">
    <path d="M 560.652759 323.552413 
L 582.905861 323.552413 
L 582.905861 301.299311 
L 560.652759 301.299311 
z
" clip-path="url(#p2e244b4018)" style="stroke: #000000; stroke-linejoin: miter"/>
   </g>
   <g id="patch_49">
    <path d="M 589.09488 323.252362 
L 610.747879 323.252362 
L 610.747879 301.599362 
L 589.09488 301.599362 
z
" clip-path="url(#p2e244b4018)" style="stroke: #000000; stroke-linejoin: miter"/>
   </g>
   <g id="patch_50">
    <path d="M 617.767845 322.721465 
L 638.359051 322.721465 
L 638.359051 302.130259 
L 617.767845 302.130259 
z
" clip-path="url(#p2e244b4018)" style="stroke: #000000; stroke-linejoin: miter"/>
   </g>
   <g id="patch_51">
    <path d="M 646.210408 322.420971 
L 666.200626 322.420971 
L 666.200626 302.430753 
L 646.210408 302.430753 
z
" clip-path="url(#p2e244b4018)" style="stroke: #000000; stroke-linejoin: miter"/>
   </g>
   <g id="patch_52">
    <path d="M 674.92102 321.852428 
L 693.774152 321.852428 
L 693.774152 302.999296 
L 674.92102 302.999296 
z
" clip-path="url(#p2e244b4018)" style="stroke: #000000; stroke-linejoin: miter"/>
   </g>
   <g id="patch_53">
    <path d="M 703.337631 321.577887 
L 721.64168 321.577887 
L 721.64168 303.273838 
L 703.337631 303.273838 
z
" clip-path="url(#p2e244b4018)" style="stroke: #000000; stroke-linejoin: miter"/>
   </g>
   <g id="patch_54">
    <path d="M 731.913749 321.143837 
L 749.349699 321.143837 
L 749.349699 303.707887 
L 731.913749 303.707887 
z
" clip-path="url(#p2e244b4018)" style="stroke: #000000; stroke-linejoin: miter"/>
   </g>
   <g id="patch_55">
    <path d="M 760.582617 320.617039 
L 776.96497 320.617039 
L 776.96497 304.234686 
L 760.582617 304.234686 
z
" clip-path="url(#p2e244b4018)" style="stroke: #000000; stroke-linejoin: miter"/>
   </g>
   <g id="patch_56">
    <path d="M 789.143399 320.198325 
L 804.688325 320.198325 
L 804.688325 304.653399 
L 789.143399 304.653399 
z
" clip-path="url(#p2e244b4018)" style="stroke: #000000; stroke-linejoin: miter"/>
   </g>
   <g id="patch_57">
    <path d="M 52.558138 296.947724 
L 77.886 296.947724 
L 77.886 271.619862 
L 52.558138 271.619862 
z
" clip-path="url(#p2e244b4018)" style="stroke: #000000; stroke-linejoin: miter"/>
   </g>
   <g id="patch_58">
    <path d="M 80.700207 296.947724 
L 106.028069 296.947724 
L 106.028069 271.619862 
L 80.700207 271.619862 
z
" clip-path="url(#p2e244b4018)" style="stroke: #000000; stroke-linejoin: miter"/>
   </g>
   <g id="patch_59">
    <path d="M 108.842276 296.947724 
L 134.170138 296.947724 
L 134.170138 271.619862 
L 108.842276 271.619862 
z
" clip-path="url(#p2e244b4018)" style="stroke: #000000; stroke-linejoin: miter"/>
   </g>
   <g id="patch_60">
    <path d="M 136.984345 296.947724 
L 162.312207 296.947724 
L 162.312207 271.619862 
L 136.984345 271.619862 
z
" clip-path="url(#p2e244b4018)" style="stroke: #000000; stroke-linejoin: miter"/>
   </g>
   <g id="patch_61">
    <path d="M 165.126414 296.947724 
L 190.454276 296.947724 
L 190.454276 271.619862 
L 165.126414 271.619862 
z
" clip-path="url(#p2e244b4018)" style="stroke: #000000; stroke-linejoin: miter"/>
   </g>
   <g id="patch_62">
    <path d="M 193.268483 296.947724 
L 218.596345 296.947724 
L 218.596345 271.619862 
L 193.268483 271.619862 
z
" clip-path="url(#p2e244b4018)" style="stroke: #000000; stroke-linejoin: miter"/>
   </g>
   <g id="patch_63">
    <path d="M 221.410552 296.947724 
L 246.738414 296.947724 
L 246.738414 271.619862 
L 221.410552 271.619862 
z
" clip-path="url(#p2e244b4018)" style="stroke: #000000; stroke-linejoin: miter"/>
   </g>
   <g id="patch_64">
    <path d="M 249.552621 296.947724 
L 274.880483 296.947724 
L 274.880483 271.619862 
L 249.552621 271.619862 
z
" clip-path="url(#p2e244b4018)" style="stroke: #000000; stroke-linejoin: miter"/>
   </g>
   <g id="patch_65">
    <path d="M 277.69469 296.947724 
L 303.022552 296.947724 
L 303.022552 271.619862 
L 277.69469 271.619862 
z
" clip-path="url(#p2e244b4018)" style="stroke: #000000; stroke-linejoin: miter"/>
   </g>
   <g id="patch_66">
    <path d="M 305.836759 296.947724 
L 331.164621 296.947724 
L 331.164621 271.619862 
L 305.836759 271.619862 
z
" clip-path="url(#p2e244b4018)" style="stroke: #000000; stroke-linejoin: miter"/>
   </g>
   <g id="patch_67">
    <path d="M 333.978828 296.947724 
L 359.30669 296.947724 
L 359.30669 271.619862 
L 333.978828 271.619862 
z
" clip-path="url(#p2e244b4018)" style="stroke: #000000; stroke-linejoin: miter"/>
   </g>
   <g id="patch_68">
    <path d="M 362.120897 296.947724 
L 387.448759 296.947724 
L 387.448759 271.619862 
L 362.120897 271.619862 
z
" clip-path="url(#p2e244b4018)" style="stroke: #000000; stroke-linejoin: miter"/>
   </g>
   <g id="patch_69">
    <path d="M 390.289066 296.921623 
L 415.564727 296.921623 
L 415.564727 271.645963 
L 390.289066 271.645963 
z
" clip-path="url(#p2e244b4018)" style="stroke: #000000; stroke-linejoin: miter"/>
   </g>
   <g id="patch_70">
    <path d="M 418.467153 296.885606 
L 443.670778 296.885606 
L 443.670778 271.681981 
L 418.467153 271.681981 
z
" clip-path="url(#p2e244b4018)" style="stroke: #000000; stroke-linejoin: miter"/>
   </g>
   <g id="patch_71">
    <path d="M 446.65582 296.839007 
L 471.766249 296.839007 
L 471.766249 271.728579 
L 446.65582 271.728579 
z
" clip-path="url(#p2e244b4018)" style="stroke: #000000; stroke-linejoin: miter"/>
   </g>
   <g id="patch_72">
    <path d="M 474.819506 296.817391 
L 499.886701 296.817391 
L 499.886701 271.750195 
L 474.819506 271.750195 
z
" clip-path="url(#p2e244b4018)" style="stroke: #000000; stroke-linejoin: miter"/>
   </g>
   <g id="patch_73">
    <path d="M 502.995582 296.783383 
L 527.994763 296.783383 
L 527.994763 271.784203 
L 502.995582 271.784203 
z
" clip-path="url(#p2e244b4018)" style="stroke: #000000; stroke-linejoin: miter"/>
   </g>
   <g id="patch_74">
    <path d="M 531.155567 296.765468 
L 556.118916 296.765468 
L 556.118916 271.802118 
L 531.155567 271.802118 
z
" clip-path="url(#p2e244b4018)" style="stroke: #000000; stroke-linejoin: miter"/>
   </g>
   <g id="patch_75">
    <path d="M 559.337938 296.725165 
L 584.220682 296.725165 
L 584.220682 271.842421 
L 559.337938 271.842421 
z
" clip-path="url(#p2e244b4018)" style="stroke: #000000; stroke-linejoin: miter"/>
   </g>
   <g id="patch_76">
    <path d="M 587.493274 296.711898 
L 612.349485 296.711898 
L 612.349485 271.855688 
L 587.493274 271.855688 
z
" clip-path="url(#p2e244b4018)" style="stroke: #000000; stroke-linejoin: miter"/>
   </g>
   <g id="patch_77">
    <path d="M 615.693868 296.653373 
L 640.433028 296.653373 
L 640.433028 271.914213 
L 615.693868 271.914213 
z
" clip-path="url(#p2e244b4018)" style="stroke: #000000; stroke-linejoin: miter"/>
   </g>
   <g id="patch_78">
    <path d="M 643.871702 296.617609 
L 668.539333 296.617609 
L 668.539333 271.949978 
L 643.871702 271.949978 
z
" clip-path="url(#p2e244b4018)" style="stroke: #000000; stroke-linejoin: miter"/>
   </g>
   <g id="patch_79">
    <path d="M 672.062706 296.568673 
L 696.632466 296.568673 
L 696.632466 271.998913 
L 672.062706 271.998913 
z
" clip-path="url(#p2e244b4018)" style="stroke: #000000; stroke-linejoin: miter"/>
   </g>
   <g id="patch_80">
    <path d="M 700.25034 296.523108 
L 724.72897 296.523108 
L 724.72897 272.044478 
L 700.25034 272.044478 
z
" clip-path="url(#p2e244b4018)" style="stroke: #000000; stroke-linejoin: miter"/>
   </g>
   <g id="patch_81">
    <path d="M 728.450311 296.465206 
L 752.813137 296.465206 
L 752.813137 272.10238 
L 728.450311 272.10238 
z
" clip-path="url(#p2e244b4018)" style="stroke: #000000; stroke-linejoin: miter"/>
   </g>
   <g id="patch_82">
    <path d="M 756.647019 296.410567 
L 780.900567 296.410567 
L 780.900567 272.157019 
L 756.647019 272.157019 
z
" clip-path="url(#p2e244b4018)" style="stroke: #000000; stroke-linejoin: miter"/>
   </g>
   <g id="patch_83">
    <path d="M 784.853981 296.345675 
L 808.977744 296.345675 
L 808.977744 272.221912 
L 784.853981 272.221912 
z
" clip-path="url(#p2e244b4018)" style="stroke: #000000; stroke-linejoin: miter"/>
   </g>
   <g id="patch_84">
    <path d="M 52.558138 268.805655 
L 77.886 268.805655 
L 77.886 243.477793 
L 52.558138 243.477793 
z
" clip-path="url(#p2e244b4018)" style="stroke: #000000; stroke-linejoin: miter"/>
   </g>
   <g id="patch_85">
    <path d="M 80.700207 268.805655 
L 106.028069 268.805655 
L 106.028069 243.477793 
L 80.700207 243.477793 
z
" clip-path="url(#p2e244b4018)" style="stroke: #000000; stroke-linejoin: miter"/>
   </g>
   <g id="patch_86">
    <path d="M 108.842276 268.805655 
L 134.170138 268.805655 
L 134.170138 243.477793 
L 108.842276 243.477793 
z
" clip-path="url(#p2e244b4018)" style="stroke: #000000; stroke-linejoin: miter"/>
   </g>
   <g id="patch_87">
    <path d="M 136.984345 268.805655 
L 162.312207 268.805655 
L 162.312207 243.477793 
L 136.984345 243.477793 
z
" clip-path="url(#p2e244b4018)" style="stroke: #000000; stroke-linejoin: miter"/>
   </g>
   <g id="patch_88">
    <path d="M 165.126414 268.805655 
L 190.454276 268.805655 
L 190.454276 243.477793 
L 165.126414 243.477793 
z
" clip-path="url(#p2e244b4018)" style="stroke: #000000; stroke-linejoin: miter"/>
   </g>
   <g id="patch_89">
    <path d="M 193.268483 268.805655 
L 218.596345 268.805655 
L 218.596345 243.477793 
L 193.268483 243.477793 
z
" clip-path="url(#p2e244b4018)" style="stroke: #000000; stroke-linejoin: miter"/>
   </g>
   <g id="patch_90">
    <path d="M 221.480703 268.735504 
L 246.668263 268.735504 
L 246.668263 243.547944 
L 221.480703 243.547944 
z
" clip-path="url(#p2e244b4018)" style="stroke: #000000; stroke-linejoin: miter"/>
   </g>
   <g id="patch_91">
    <path d="M 249.850643 268.507633 
L 274.582461 268.507633 
L 274.582461 243.775815 
L 249.850643 243.775815 
z
" clip-path="url(#p2e244b4018)" style="stroke: #000000; stroke-linejoin: miter"/>
   </g>
   <g id="patch_92">
    <path d="M 278.175739 268.324606 
L 302.541502 268.324606 
L 302.541502 243.958843 
L 278.175739 243.958843 
z
" clip-path="url(#p2e244b4018)" style="stroke: #000000; stroke-linejoin: miter"/>
   </g>
   <g id="patch_93">
    <path d="M 306.482536 268.159878 
L 330.518843 268.159878 
L 330.518843 244.123571 
L 306.482536 244.123571 
z
" clip-path="url(#p2e244b4018)" style="stroke: #000000; stroke-linejoin: miter"/>
   </g>
   <g id="patch_94">
    <path d="M 334.780335 268.004148 
L 358.505182 268.004148 
L 358.505182 244.2793 
L 334.780335 244.2793 
z
" clip-path="url(#p2e244b4018)" style="stroke: #000000; stroke-linejoin: miter"/>
   </g>
   <g id="patch_95">
    <path d="M 363.08367 267.842882 
L 386.485985 267.842882 
L 386.485985 244.440566 
L 363.08367 244.440566 
z
" clip-path="url(#p2e244b4018)" style="stroke: #000000; stroke-linejoin: miter"/>
   </g>
   <g id="patch_96">
    <path d="M 391.371136 267.697485 
L 414.482658 267.697485 
L 414.482658 244.585963 
L 391.371136 244.585963 
z
" clip-path="url(#p2e244b4018)" style="stroke: #000000; stroke-linejoin: miter"/>
   </g>
   <g id="patch_97">
    <path d="M 419.636499 267.574191 
L 442.501432 267.574191 
L 442.501432 244.709258 
L 419.636499 244.709258 
z
" clip-path="url(#p2e244b4018)" style="stroke: #000000; stroke-linejoin: miter"/>
   </g>
   <g id="patch_98">
    <path d="M 447.909028 267.443731 
L 470.513041 267.443731 
L 470.513041 244.839717 
L 447.909028 244.839717 
z
" clip-path="url(#p2e244b4018)" style="stroke: #000000; stroke-linejoin: miter"/>
   </g>
   <g id="patch_99">
    <path d="M 476.147576 267.347251 
L 498.55863 267.347251 
L 498.55863 244.936197 
L 476.147576 244.936197 
z
" clip-path="url(#p2e244b4018)" style="stroke: #000000; stroke-linejoin: miter"/>
   </g>
   <g id="patch_100">
    <path d="M 504.404218 267.232678 
L 526.586126 267.232678 
L 526.586126 245.05077 
L 504.404218 245.05077 
z
" clip-path="url(#p2e244b4018)" style="stroke: #000000; stroke-linejoin: miter"/>
   </g>
   <g id="patch_101">
    <path d="M 532.61881 267.160156 
L 554.655673 267.160156 
L 554.655673 245.123292 
L 532.61881 245.123292 
z
" clip-path="url(#p2e244b4018)" style="stroke: #000000; stroke-linejoin: miter"/>
   </g>
   <g id="patch_102">
    <path d="M 560.852244 267.068791 
L 582.706377 267.068791 
L 582.706377 245.214658 
L 560.852244 245.214658 
z
" clip-path="url(#p2e244b4018)" style="stroke: #000000; stroke-linejoin: miter"/>
   </g>
   <g id="patch_103">
    <path d="M 588.986376 267.076727 
L 610.856382 267.076727 
L 610.856382 245.206721 
L 588.986376 245.206721 
z
" clip-path="url(#p2e244b4018)" style="stroke: #000000; stroke-linejoin: miter"/>
   </g>
   <g id="patch_104">
    <path d="M 617.288536 266.916636 
L 638.83836 266.916636 
L 638.83836 245.366812 
L 617.288536 245.366812 
z
" clip-path="url(#p2e244b4018)" style="stroke: #000000; stroke-linejoin: miter"/>
   </g>
   <g id="patch_105">
    <path d="M 645.393636 266.953605 
L 667.017398 266.953605 
L 667.017398 245.329843 
L 645.393636 245.329843 
z
" clip-path="url(#p2e244b4018)" style="stroke: #000000; stroke-linejoin: miter"/>
   </g>
   <g id="patch_106">
    <path d="M 673.681437 266.807874 
L 695.013736 266.807874 
L 695.013736 245.475574 
L 673.681437 245.475574 
z
" clip-path="url(#p2e244b4018)" style="stroke: #000000; stroke-linejoin: miter"/>
   </g>
   <g id="patch_107">
    <path d="M 701.824172 266.807207 
L 723.155138 266.807207 
L 723.155138 245.476241 
L 701.824172 245.476241 
z
" clip-path="url(#p2e244b4018)" style="stroke: #000000; stroke-linejoin: miter"/>
   </g>
   <g id="patch_108">
    <path d="M 730.024003 266.749445 
L 751.239445 266.749445 
L 751.239445 245.534003 
L 730.024003 245.534003 
z
" clip-path="url(#p2e244b4018)" style="stroke: #000000; stroke-linejoin: miter"/>
   </g>
   <g id="patch_109">
    <path d="M 758.290576 266.624941 
L 779.25701 266.624941 
L 779.25701 245.658507 
L 758.290576 245.658507 
z
" clip-path="url(#p2e244b4018)" style="stroke: #000000; stroke-linejoin: miter"/>
   </g>
   <g id="patch_110">
    <path d="M 786.495347 266.562239 
L 807.336377 266.562239 
L 807.336377 245.721209 
L 786.495347 245.721209 
z
" clip-path="url(#p2e244b4018)" style="stroke: #000000; stroke-linejoin: miter"/>
   </g>
   <g id="patch_111">
    <path d="M 52.558138 240.663586 
L 77.886 240.663586 
L 77.886 215.335724 
L 52.558138 215.335724 
z
" clip-path="url(#p2e244b4018)" style="stroke: #000000; stroke-linejoin: miter"/>
   </g>
   <g id="patch_112">
    <path d="M 80.700207 240.663586 
L 106.028069 240.663586 
L 106.028069 215.335724 
L 80.700207 215.335724 
z
" clip-path="url(#p2e244b4018)" style="stroke: #000000; stroke-linejoin: miter"/>
   </g>
   <g id="patch_113">
    <path d="M 108.842276 240.663586 
L 134.170138 240.663586 
L 134.170138 215.335724 
L 108.842276 215.335724 
z
" clip-path="url(#p2e244b4018)" style="stroke: #000000; stroke-linejoin: miter"/>
   </g>
   <g id="patch_114">
    <path d="M 136.984345 240.663586 
L 162.312207 240.663586 
L 162.312207 215.335724 
L 136.984345 215.335724 
z
" clip-path="url(#p2e244b4018)" style="stroke: #000000; stroke-linejoin: miter"/>
   </g>
   <g id="patch_115">
    <path d="M 165.126414 240.663586 
L 190.454276 240.663586 
L 190.454276 215.335724 
L 165.126414 215.335724 
z
" clip-path="url(#p2e244b4018)" style="stroke: #000000; stroke-linejoin: miter"/>
   </g>
   <g id="patch_116">
    <path d="M 193.268483 240.663586 
L 218.596345 240.663586 
L 218.596345 215.335724 
L 193.268483 215.335724 
z
" clip-path="url(#p2e244b4018)" style="stroke: #000000; stroke-linejoin: miter"/>
   </g>
   <g id="patch_117">
    <path d="M 221.438624 240.635514 
L 246.710341 240.635514 
L 246.710341 215.363797 
L 221.438624 215.363797 
z
" clip-path="url(#p2e244b4018)" style="stroke: #000000; stroke-linejoin: miter"/>
   </g>
   <g id="patch_118">
    <path d="M 249.750707 240.4655 
L 274.682397 240.4655 
L 274.682397 215.53381 
L 249.750707 215.53381 
z
" clip-path="url(#p2e244b4018)" style="stroke: #000000; stroke-linejoin: miter"/>
   </g>
   <g id="patch_119">
    <path d="M 278.028718 240.329558 
L 302.688524 240.329558 
L 302.688524 215.669752 
L 278.028718 215.669752 
z
" clip-path="url(#p2e244b4018)" style="stroke: #000000; stroke-linejoin: miter"/>
   </g>
   <g id="patch_120">
    <path d="M 306.274344 240.226001 
L 330.727035 240.226001 
L 330.727035 215.77331 
L 306.274344 215.77331 
z
" clip-path="url(#p2e244b4018)" style="stroke: #000000; stroke-linejoin: miter"/>
   </g>
   <g id="patch_121">
    <path d="M 334.483561 240.158853 
L 358.801956 240.158853 
L 358.801956 215.840458 
L 334.483561 215.840458 
z
" clip-path="url(#p2e244b4018)" style="stroke: #000000; stroke-linejoin: miter"/>
   </g>
   <g id="patch_122">
    <path d="M 362.675856 240.108627 
L 386.8938 240.108627 
L 386.8938 215.890683 
L 362.675856 215.890683 
z
" clip-path="url(#p2e244b4018)" style="stroke: #000000; stroke-linejoin: miter"/>
   </g>
   <g id="patch_123">
    <path d="M 390.850147 240.076404 
L 415.003646 240.076404 
L 415.003646 215.922906 
L 390.850147 215.922906 
z
" clip-path="url(#p2e244b4018)" style="stroke: #000000; stroke-linejoin: miter"/>
   </g>
   <g id="patch_124">
    <path d="M 419.014662 240.053959 
L 443.123269 240.053959 
L 443.123269 215.945351 
L 419.014662 215.945351 
z
" clip-path="url(#p2e244b4018)" style="stroke: #000000; stroke-linejoin: miter"/>
   </g>
   <g id="patch_125">
    <path d="M 447.1991 240.01159 
L 471.222969 240.01159 
L 471.222969 215.987721 
L 447.1991 215.987721 
z
" clip-path="url(#p2e244b4018)" style="stroke: #000000; stroke-linejoin: miter"/>
   </g>
   <g id="patch_126">
    <path d="M 475.367538 239.985221 
L 499.338669 239.985221 
L 499.338669 216.014089 
L 475.367538 216.014089 
z
" clip-path="url(#p2e244b4018)" style="stroke: #000000; stroke-linejoin: miter"/>
   </g>
   <g id="patch_127">
    <path d="M 503.557636 239.937191 
L 527.432708 239.937191 
L 527.432708 216.062119 
L 503.557636 216.062119 
z
" clip-path="url(#p2e244b4018)" style="stroke: #000000; stroke-linejoin: miter"/>
   </g>
   <g id="patch_128">
    <path d="M 531.737589 239.899307 
L 555.536893 239.899307 
L 555.536893 216.100003 
L 531.737589 216.100003 
z
" clip-path="url(#p2e244b4018)" style="stroke: #000000; stroke-linejoin: miter"/>
   </g>
   <g id="patch_129">
    <path d="M 559.938589 239.840377 
L 583.620032 239.840377 
L 583.620032 216.158934 
L 559.938589 216.158934 
z
" clip-path="url(#p2e244b4018)" style="stroke: #000000; stroke-linejoin: miter"/>
   </g>
   <g id="patch_130">
    <path d="M 588.088458 239.832577 
L 611.754301 239.832577 
L 611.754301 216.166733 
L 588.088458 216.166733 
z
" clip-path="url(#p2e244b4018)" style="stroke: #000000; stroke-linejoin: miter"/>
   </g>
   <g id="patch_131">
    <path d="M 616.308714 239.754389 
L 639.818182 239.754389 
L 639.818182 216.244921 
L 616.308714 216.244921 
z
" clip-path="url(#p2e244b4018)" style="stroke: #000000; stroke-linejoin: miter"/>
   </g>
   <g id="patch_132">
    <path d="M 644.463083 239.74209 
L 667.947952 239.74209 
L 667.947952 216.257221 
L 644.463083 216.257221 
z
" clip-path="url(#p2e244b4018)" style="stroke: #000000; stroke-linejoin: miter"/>
   </g>
   <g id="patch_133">
    <path d="M 672.66303 239.684211 
L 696.032142 239.684211 
L 696.032142 216.315099 
L 672.66303 216.315099 
z
" clip-path="url(#p2e244b4018)" style="stroke: #000000; stroke-linejoin: miter"/>
   </g>
   <g id="patch_134">
    <path d="M 700.825226 239.664085 
L 724.154085 239.664085 
L 724.154085 216.335226 
L 700.825226 216.335226 
z
" clip-path="url(#p2e244b4018)" style="stroke: #000000; stroke-linejoin: miter"/>
   </g>
   <g id="patch_135">
    <path d="M 729.01042 239.62096 
L 752.253029 239.62096 
L 752.253029 216.378351 
L 729.01042 216.378351 
z
" clip-path="url(#p2e244b4018)" style="stroke: #000000; stroke-linejoin: miter"/>
   </g>
   <g id="patch_136">
    <path d="M 757.220221 239.553227 
L 780.327365 239.553227 
L 780.327365 216.446083 
L 757.220221 216.446083 
z
" clip-path="url(#p2e244b4018)" style="stroke: #000000; stroke-linejoin: miter"/>
   </g>
   <g id="patch_137">
    <path d="M 785.423187 239.49233 
L 808.408537 239.49233 
L 808.408537 216.50698 
L 785.423187 216.50698 
z
" clip-path="url(#p2e244b4018)" style="stroke: #000000; stroke-linejoin: miter"/>
   </g>
   <g id="patch_138">
    <path d="M 52.558138 212.521517 
L 77.886 212.521517 
L 77.886 187.193655 
L 52.558138 187.193655 
z
" clip-path="url(#p2e244b4018)" style="stroke: #000000; stroke-linejoin: miter"/>
   </g>
   <g id="patch_139">
    <path d="M 80.700207 212.521517 
L 106.028069 212.521517 
L 106.028069 187.193655 
L 80.700207 187.193655 
z
" clip-path="url(#p2e244b4018)" style="stroke: #000000; stroke-linejoin: miter"/>
   </g>
   <g id="patch_140">
    <path d="M 108.842276 212.521517 
L 134.170138 212.521517 
L 134.170138 187.193655 
L 108.842276 187.193655 
z
" clip-path="url(#p2e244b4018)" style="stroke: #000000; stroke-linejoin: miter"/>
   </g>
   <g id="patch_141">
    <path d="M 136.984345 212.521517 
L 162.312207 212.521517 
L 162.312207 187.193655 
L 136.984345 187.193655 
z
" clip-path="url(#p2e244b4018)" style="stroke: #000000; stroke-linejoin: miter"/>
   </g>
   <g id="patch_142">
    <path d="M 165.126414 212.521517 
L 190.454276 212.521517 
L 190.454276 187.193655 
L 165.126414 187.193655 
z
" clip-path="url(#p2e244b4018)" style="stroke: #000000; stroke-linejoin: miter"/>
   </g>
   <g id="patch_143">
    <path d="M 193.268483 212.521517 
L 218.596345 212.521517 
L 218.596345 187.193655 
L 193.268483 187.193655 
z
" clip-path="url(#p2e244b4018)" style="stroke: #000000; stroke-linejoin: miter"/>
   </g>
   <g id="patch_144">
    <path d="M 221.410552 212.521517 
L 246.738414 212.521517 
L 246.738414 187.193655 
L 221.410552 187.193655 
z
" clip-path="url(#p2e244b4018)" style="stroke: #000000; stroke-linejoin: miter"/>
   </g>
   <g id="patch_145">
    <path d="M 249.552621 212.521517 
L 274.880483 212.521517 
L 274.880483 187.193655 
L 249.552621 187.193655 
z
" clip-path="url(#p2e244b4018)" style="stroke: #000000; stroke-linejoin: miter"/>
   </g>
   <g id="patch_146">
    <path d="M 277.69469 212.521517 
L 303.022552 212.521517 
L 303.022552 187.193655 
L 277.69469 187.193655 
z
" clip-path="url(#p2e244b4018)" style="stroke: #000000; stroke-linejoin: miter"/>
   </g>
   <g id="patch_147">
    <path d="M 305.88204 212.476236 
L 331.119339 212.476236 
L 331.119339 187.238937 
L 305.88204 187.238937 
z
" clip-path="url(#p2e244b4018)" style="stroke: #000000; stroke-linejoin: miter"/>
   </g>
   <g id="patch_148">
    <path d="M 334.096591 212.403754 
L 359.188926 212.403754 
L 359.188926 187.311419 
L 334.096591 187.311419 
z
" clip-path="url(#p2e244b4018)" style="stroke: #000000; stroke-linejoin: miter"/>
   </g>
   <g id="patch_149">
    <path d="M 362.307552 212.334862 
L 387.262103 212.334862 
L 387.262103 187.38031 
L 362.307552 187.38031 
z
" clip-path="url(#p2e244b4018)" style="stroke: #000000; stroke-linejoin: miter"/>
   </g>
   <g id="patch_150">
    <path d="M 390.510252 212.274231 
L 415.343541 212.274231 
L 415.343541 187.440942 
L 390.510252 187.440942 
z
" clip-path="url(#p2e244b4018)" style="stroke: #000000; stroke-linejoin: miter"/>
   </g>
   <g id="patch_151">
    <path d="M 418.710586 212.215965 
L 443.427345 212.215965 
L 443.427345 187.499207 
L 418.710586 187.499207 
z
" clip-path="url(#p2e244b4018)" style="stroke: #000000; stroke-linejoin: miter"/>
   </g>
   <g id="patch_152">
    <path d="M 446.909226 212.159394 
L 471.512843 212.159394 
L 471.512843 187.555778 
L 446.909226 187.555778 
z
" clip-path="url(#p2e244b4018)" style="stroke: #000000; stroke-linejoin: miter"/>
   </g>
   <g id="patch_153">
    <path d="M 475.111245 212.099445 
L 499.594962 212.099445 
L 499.594962 187.615727 
L 475.111245 187.615727 
z
" clip-path="url(#p2e244b4018)" style="stroke: #000000; stroke-linejoin: miter"/>
   </g>
   <g id="patch_154">
    <path d="M 503.309521 212.043238 
L 527.680824 212.043238 
L 527.680824 187.671935 
L 503.309521 187.671935 
z
" clip-path="url(#p2e244b4018)" style="stroke: #000000; stroke-linejoin: miter"/>
   </g>
   <g id="patch_155">
    <path d="M 531.505152 211.989676 
L 555.769331 211.989676 
L 555.769331 187.725496 
L 531.505152 187.725496 
z
" clip-path="url(#p2e244b4018)" style="stroke: #000000; stroke-linejoin: miter"/>
   </g>
   <g id="patch_156">
    <path d="M 559.697506 211.939391 
L 583.861115 211.939391 
L 583.861115 187.775781 
L 559.697506 187.775781 
z
" clip-path="url(#p2e244b4018)" style="stroke: #000000; stroke-linejoin: miter"/>
   </g>
   <g id="patch_157">
    <path d="M 587.898464 211.880502 
L 611.944295 211.880502 
L 611.944295 187.834671 
L 587.898464 187.834671 
z
" clip-path="url(#p2e244b4018)" style="stroke: #000000; stroke-linejoin: miter"/>
   </g>
   <g id="patch_158">
    <path d="M 616.094276 211.826759 
L 640.032621 211.826759 
L 640.032621 187.888414 
L 616.094276 187.888414 
z
" clip-path="url(#p2e244b4018)" style="stroke: #000000; stroke-linejoin: miter"/>
   </g>
   <g id="patch_159">
    <path d="M 644.296995 211.766108 
L 668.114039 211.766108 
L 668.114039 187.949064 
L 644.296995 187.949064 
z
" clip-path="url(#p2e244b4018)" style="stroke: #000000; stroke-linejoin: miter"/>
   </g>
   <g id="patch_160">
    <path d="M 672.51417 211.691003 
L 696.181003 211.691003 
L 696.181003 188.02417 
L 672.51417 188.02417 
z
" clip-path="url(#p2e244b4018)" style="stroke: #000000; stroke-linejoin: miter"/>
   </g>
   <g id="patch_161">
    <path d="M 700.731507 211.615735 
L 724.247804 211.615735 
L 724.247804 188.099438 
L 700.731507 188.099438 
z
" clip-path="url(#p2e244b4018)" style="stroke: #000000; stroke-linejoin: miter"/>
   </g>
   <g id="patch_162">
    <path d="M 728.948154 211.541157 
L 752.315295 211.541157 
L 752.315295 188.174016 
L 728.948154 188.174016 
z
" clip-path="url(#p2e244b4018)" style="stroke: #000000; stroke-linejoin: miter"/>
   </g>
   <g id="patch_163">
    <path d="M 757.193793 211.437586 
L 780.353793 211.437586 
L 780.353793 188.277586 
L 757.193793 188.277586 
z
" clip-path="url(#p2e244b4018)" style="stroke: #000000; stroke-linejoin: miter"/>
   </g>
   <g id="patch_164">
    <path d="M 785.421367 211.352081 
L 808.410357 211.352081 
L 808.410357 188.363091 
L 785.421367 188.363091 
z
" clip-path="url(#p2e244b4018)" style="stroke: #000000; stroke-linejoin: miter"/>
   </g>
   <g id="patch_165">
    <path d="M 52.558138 184.379448 
L 77.886 184.379448 
L 77.886 159.051586 
L 52.558138 159.051586 
z
" clip-path="url(#p2e244b4018)" style="stroke: #000000; stroke-linejoin: miter"/>
   </g>
   <g id="patch_166">
    <path d="M 80.700207 184.379448 
L 106.028069 184.379448 
L 106.028069 159.051586 
L 80.700207 159.051586 
z
" clip-path="url(#p2e244b4018)" style="stroke: #000000; stroke-linejoin: miter"/>
   </g>
   <g id="patch_167">
    <path d="M 108.842276 184.379448 
L 134.170138 184.379448 
L 134.170138 159.051586 
L 108.842276 159.051586 
z
" clip-path="url(#p2e244b4018)" style="stroke: #000000; stroke-linejoin: miter"/>
   </g>
   <g id="patch_168">
    <path d="M 136.984345 184.379448 
L 162.312207 184.379448 
L 162.312207 159.051586 
L 136.984345 159.051586 
z
" clip-path="url(#p2e244b4018)" style="stroke: #000000; stroke-linejoin: miter"/>
   </g>
   <g id="patch_169">
    <path d="M 165.126414 184.379448 
L 190.454276 184.379448 
L 190.454276 159.051586 
L 165.126414 159.051586 
z
" clip-path="url(#p2e244b4018)" style="stroke: #000000; stroke-linejoin: miter"/>
   </g>
   <g id="patch_170">
    <path d="M 193.268483 184.379448 
L 218.596345 184.379448 
L 218.596345 159.051586 
L 193.268483 159.051586 
z
" clip-path="url(#p2e244b4018)" style="stroke: #000000; stroke-linejoin: miter"/>
   </g>
   <g id="patch_171">
    <path d="M 221.410552 184.379448 
L 246.738414 184.379448 
L 246.738414 159.051586 
L 221.410552 159.051586 
z
" clip-path="url(#p2e244b4018)" style="stroke: #000000; stroke-linejoin: miter"/>
   </g>
   <g id="patch_172">
    <path d="M 249.58862 184.343449 
L 274.844484 184.343449 
L 274.844484 159.087585 
L 249.58862 159.087585 
z
" clip-path="url(#p2e244b4018)" style="stroke: #000000; stroke-linejoin: miter"/>
   </g>
   <g id="patch_173">
    <path d="M 277.800848 184.27329 
L 302.916393 184.27329 
L 302.916393 159.157745 
L 277.800848 159.157745 
z
" clip-path="url(#p2e244b4018)" style="stroke: #000000; stroke-linejoin: miter"/>
   </g>
   <g id="patch_174">
    <path d="M 306.011029 184.205178 
L 330.99035 184.205178 
L 330.99035 159.225856 
L 306.011029 159.225856 
z
" clip-path="url(#p2e244b4018)" style="stroke: #000000; stroke-linejoin: miter"/>
   </g>
   <g id="patch_175">
    <path d="M 334.231743 184.126532 
L 359.053774 184.126532 
L 359.053774 159.304502 
L 334.231743 159.304502 
z
" clip-path="url(#p2e244b4018)" style="stroke: #000000; stroke-linejoin: miter"/>
   </g>
   <g id="patch_176">
    <path d="M 362.468165 184.03218 
L 387.10149 184.03218 
L 387.10149 159.398855 
L 362.468165 159.398855 
z
" clip-path="url(#p2e244b4018)" style="stroke: #000000; stroke-linejoin: miter"/>
   </g>
   <g id="patch_177">
    <path d="M 390.702543 183.939871 
L 415.15125 183.939871 
L 415.15125 159.491164 
L 390.702543 159.491164 
z
" clip-path="url(#p2e244b4018)" style="stroke: #000000; stroke-linejoin: miter"/>
   </g>
   <g id="patch_178">
    <path d="M 418.929488 183.854995 
L 443.208443 183.854995 
L 443.208443 159.576039 
L 418.929488 159.576039 
z
" clip-path="url(#p2e244b4018)" style="stroke: #000000; stroke-linejoin: miter"/>
   </g>
   <g id="patch_179">
    <path d="M 447.148516 183.778035 
L 471.273553 183.778035 
L 471.273553 159.652999 
L 447.148516 159.652999 
z
" clip-path="url(#p2e244b4018)" style="stroke: #000000; stroke-linejoin: miter"/>
   </g>
   <g id="patch_180">
    <path d="M 475.35968 183.708941 
L 499.346527 183.708941 
L 499.346527 159.722094 
L 475.35968 159.722094 
z
" clip-path="url(#p2e244b4018)" style="stroke: #000000; stroke-linejoin: miter"/>
   </g>
   <g id="patch_181">
    <path d="M 503.58367 183.62702 
L 527.406675 183.62702 
L 527.406675 159.804014 
L 503.58367 159.804014 
z
" clip-path="url(#p2e244b4018)" style="stroke: #000000; stroke-linejoin: miter"/>
   </g>
   <g id="patch_182">
    <path d="M 531.806682 183.546076 
L 555.4678 183.546076 
L 555.4678 159.884958 
L 531.806682 159.884958 
z
" clip-path="url(#p2e244b4018)" style="stroke: #000000; stroke-linejoin: miter"/>
   </g>
   <g id="patch_183">
    <path d="M 560.017593 183.477234 
L 583.541027 183.477234 
L 583.541027 159.9538 
L 560.017593 159.9538 
z
" clip-path="url(#p2e244b4018)" style="stroke: #000000; stroke-linejoin: miter"/>
   </g>
   <g id="patch_184">
    <path d="M 588.211361 183.425536 
L 611.631398 183.425536 
L 611.631398 160.005498 
L 588.211361 160.005498 
z
" clip-path="url(#p2e244b4018)" style="stroke: #000000; stroke-linejoin: miter"/>
   </g>
   <g id="patch_185">
    <path d="M 616.407963 183.371002 
L 639.718933 183.371002 
L 639.718933 160.060032 
L 616.407963 160.060032 
z
" clip-path="url(#p2e244b4018)" style="stroke: #000000; stroke-linejoin: miter"/>
   </g>
   <g id="patch_186">
    <path d="M 644.57609 183.344945 
L 667.834945 183.344945 
L 667.834945 160.08609 
L 644.57609 160.08609 
z
" clip-path="url(#p2e244b4018)" style="stroke: #000000; stroke-linejoin: miter"/>
   </g>
   <g id="patch_187">
    <path d="M 672.77058 183.292523 
L 695.924592 183.292523 
L 695.924592 160.138511 
L 672.77058 160.138511 
z
" clip-path="url(#p2e244b4018)" style="stroke: #000000; stroke-linejoin: miter"/>
   </g>
   <g id="patch_188">
    <path d="M 700.949035 183.256137 
L 724.030275 183.256137 
L 724.030275 160.174897 
L 700.949035 160.174897 
z
" clip-path="url(#p2e244b4018)" style="stroke: #000000; stroke-linejoin: miter"/>
   </g>
   <g id="patch_189">
    <path d="M 729.140474 183.206767 
L 752.122974 183.206767 
L 752.122974 160.224267 
L 729.140474 160.224267 
z
" clip-path="url(#p2e244b4018)" style="stroke: #000000; stroke-linejoin: miter"/>
   </g>
   <g id="patch_190">
    <path d="M 757.339909 183.149401 
L 780.207677 183.149401 
L 780.207677 160.281633 
L 757.339909 160.281633 
z
" clip-path="url(#p2e244b4018)" style="stroke: #000000; stroke-linejoin: miter"/>
   </g>
   <g id="patch_191">
    <path d="M 785.545852 183.085527 
L 808.285872 183.085527 
L 808.285872 160.345507 
L 785.545852 160.345507 
z
" clip-path="url(#p2e244b4018)" style="stroke: #000000; stroke-linejoin: miter"/>
   </g>
   <g id="patch_192">
    <path d="M 52.558138 156.237379 
L 77.886 156.237379 
L 77.886 130.909517 
L 52.558138 130.909517 
z
" clip-path="url(#p2e244b4018)" style="stroke: #000000; stroke-linejoin: miter"/>
   </g>
   <g id="patch_193">
    <path d="M 80.700207 156.237379 
L 106.028069 156.237379 
L 106.028069 130.909517 
L 80.700207 130.909517 
z
" clip-path="url(#p2e244b4018)" style="stroke: #000000; stroke-linejoin: miter"/>
   </g>
   <g id="patch_194">
    <path d="M 108.842276 156.237379 
L 134.170138 156.237379 
L 134.170138 130.909517 
L 108.842276 130.909517 
z
" clip-path="url(#p2e244b4018)" style="stroke: #000000; stroke-linejoin: miter"/>
   </g>
   <g id="patch_195">
    <path d="M 136.984345 156.237379 
L 162.312207 156.237379 
L 162.312207 130.909517 
L 136.984345 130.909517 
z
" clip-path="url(#p2e244b4018)" style="stroke: #000000; stroke-linejoin: miter"/>
   </g>
   <g id="patch_196">
    <path d="M 165.126414 156.237379 
L 190.454276 156.237379 
L 190.454276 130.909517 
L 165.126414 130.909517 
z
" clip-path="url(#p2e244b4018)" style="stroke: #000000; stroke-linejoin: miter"/>
   </g>
   <g id="patch_197">
    <path d="M 193.268483 156.237379 
L 218.596345 156.237379 
L 218.596345 130.909517 
L 193.268483 130.909517 
z
" clip-path="url(#p2e244b4018)" style="stroke: #000000; stroke-linejoin: miter"/>
   </g>
   <g id="patch_198">
    <path d="M 221.410552 156.237379 
L 246.738414 156.237379 
L 246.738414 130.909517 
L 221.410552 130.909517 
z
" clip-path="url(#p2e244b4018)" style="stroke: #000000; stroke-linejoin: miter"/>
   </g>
   <g id="patch_199">
    <path d="M 249.583489 156.206511 
L 274.849614 156.206511 
L 274.849614 130.940386 
L 249.583489 130.940386 
z
" clip-path="url(#p2e244b4018)" style="stroke: #000000; stroke-linejoin: miter"/>
   </g>
   <g id="patch_200">
    <path d="M 277.75582 156.176249 
L 302.961421 156.176249 
L 302.961421 130.970648 
L 277.75582 130.970648 
z
" clip-path="url(#p2e244b4018)" style="stroke: #000000; stroke-linejoin: miter"/>
   </g>
   <g id="patch_201">
    <path d="M 305.920789 156.153349 
L 331.08059 156.153349 
L 331.08059 130.993548 
L 305.920789 130.993548 
z
" clip-path="url(#p2e244b4018)" style="stroke: #000000; stroke-linejoin: miter"/>
   </g>
   <g id="patch_202">
    <path d="M 334.078124 156.138083 
L 359.207393 156.138083 
L 359.207393 131.008814 
L 334.078124 131.008814 
z
" clip-path="url(#p2e244b4018)" style="stroke: #000000; stroke-linejoin: miter"/>
   </g>
   <g id="patch_203">
    <path d="M 362.232833 156.125443 
L 387.336822 156.125443 
L 387.336822 131.021454 
L 362.232833 131.021454 
z
" clip-path="url(#p2e244b4018)" style="stroke: #000000; stroke-linejoin: miter"/>
   </g>
   <g id="patch_204">
    <path d="M 390.389856 156.110489 
L 415.463937 156.110489 
L 415.463937 131.036408 
L 390.389856 131.036408 
z
" clip-path="url(#p2e244b4018)" style="stroke: #000000; stroke-linejoin: miter"/>
   </g>
   <g id="patch_205">
    <path d="M 418.549636 156.092778 
L 443.588295 156.092778 
L 443.588295 131.054119 
L 418.549636 131.054119 
z
" clip-path="url(#p2e244b4018)" style="stroke: #000000; stroke-linejoin: miter"/>
   </g>
   <g id="patch_206">
    <path d="M 446.714384 156.070099 
L 471.707685 156.070099 
L 471.707685 131.076798 
L 446.714384 131.076798 
z
" clip-path="url(#p2e244b4018)" style="stroke: #000000; stroke-linejoin: miter"/>
   </g>
   <g id="patch_207">
    <path d="M 474.895581 156.030971 
L 499.810626 156.030971 
L 499.810626 131.115926 
L 474.895581 131.115926 
z
" clip-path="url(#p2e244b4018)" style="stroke: #000000; stroke-linejoin: miter"/>
   </g>
   <g id="patch_208">
    <path d="M 503.061817 156.006804 
L 527.928528 156.006804 
L 527.928528 131.140093 
L 503.061817 131.140093 
z
" clip-path="url(#p2e244b4018)" style="stroke: #000000; stroke-linejoin: miter"/>
   </g>
   <g id="patch_209">
    <path d="M 531.255625 155.955065 
L 556.018858 155.955065 
L 556.018858 131.191832 
L 531.255625 131.191832 
z
" clip-path="url(#p2e244b4018)" style="stroke: #000000; stroke-linejoin: miter"/>
   </g>
   <g id="patch_210">
    <path d="M 559.441379 155.91138 
L 584.117242 155.91138 
L 584.117242 131.235517 
L 559.441379 131.235517 
z
" clip-path="url(#p2e244b4018)" style="stroke: #000000; stroke-linejoin: miter"/>
   </g>
   <g id="patch_211">
    <path d="M 587.641374 155.853454 
L 612.201385 155.853454 
L 612.201385 131.293443 
L 587.641374 131.293443 
z
" clip-path="url(#p2e244b4018)" style="stroke: #000000; stroke-linejoin: miter"/>
   </g>
   <g id="patch_212">
    <path d="M 615.853509 155.783388 
L 640.273388 155.783388 
L 640.273388 131.363509 
L 615.853509 131.363509 
z
" clip-path="url(#p2e244b4018)" style="stroke: #000000; stroke-linejoin: miter"/>
   </g>
   <g id="patch_213">
    <path d="M 644.05266 155.726306 
L 668.358375 155.726306 
L 668.358375 131.420591 
L 644.05266 131.420591 
z
" clip-path="url(#p2e244b4018)" style="stroke: #000000; stroke-linejoin: miter"/>
   </g>
   <g id="patch_214">
    <path d="M 672.263233 155.657802 
L 696.43194 155.657802 
L 696.43194 131.489095 
L 672.263233 131.489095 
z
" clip-path="url(#p2e244b4018)" style="stroke: #000000; stroke-linejoin: miter"/>
   </g>
   <g id="patch_215">
    <path d="M 700.475581 155.587522 
L 724.503729 155.587522 
L 724.503729 131.559374 
L 700.475581 131.559374 
z
" clip-path="url(#p2e244b4018)" style="stroke: #000000; stroke-linejoin: miter"/>
   </g>
   <g id="patch_216">
    <path d="M 728.703025 155.502148 
L 752.560424 155.502148 
L 752.560424 131.644749 
L 728.703025 131.644749 
z
" clip-path="url(#p2e244b4018)" style="stroke: #000000; stroke-linejoin: miter"/>
   </g>
   <g id="patch_217">
    <path d="M 756.945786 155.401455 
L 780.6018 155.401455 
L 780.6018 131.745441 
L 756.945786 131.745441 
z
" clip-path="url(#p2e244b4018)" style="stroke: #000000; stroke-linejoin: miter"/>
   </g>
   <g id="patch_218">
    <path d="M 785.182624 155.306686 
L 808.6491 155.306686 
L 808.6491 131.84021 
L 785.182624 131.84021 
z
" clip-path="url(#p2e244b4018)" style="stroke: #000000; stroke-linejoin: miter"/>
   </g>
   <g id="patch_219">
    <path d="M 52.558138 128.09531 
L 77.886 128.09531 
L 77.886 102.767448 
L 52.558138 102.767448 
z
" clip-path="url(#p2e244b4018)" style="stroke: #000000; stroke-linejoin: miter"/>
   </g>
   <g id="patch_220">
    <path d="M 80.799606 127.995911 
L 105.928669 127.995911 
L 105.928669 102.866848 
L 80.799606 102.866848 
z
" clip-path="url(#p2e244b4018)" style="stroke: #000000; stroke-linejoin: miter"/>
   </g>
   <g id="patch_221">
    <path d="M 110.698073 126.239513 
L 132.314341 126.239513 
L 132.314341 104.623245 
L 110.698073 104.623245 
z
" clip-path="url(#p2e244b4018)" style="stroke: #000000; stroke-linejoin: miter"/>
   </g>
   <g id="patch_222">
    <path d="M 139.314357 125.765298 
L 159.982195 125.765298 
L 159.982195 105.09746 
L 139.314357 105.09746 
z
" clip-path="url(#p2e244b4018)" style="stroke: #000000; stroke-linejoin: miter"/>
   </g>
   <g id="patch_223">
    <path d="M 167.635092 125.586632 
L 187.945598 125.586632 
L 187.945598 105.276127 
L 167.635092 105.276127 
z
" clip-path="url(#p2e244b4018)" style="stroke: #000000; stroke-linejoin: miter"/>
   </g>
   <g id="patch_224">
    <path d="M 195.996279 125.367514 
L 215.868549 125.367514 
L 215.868549 105.495244 
L 195.996279 105.495244 
z
" clip-path="url(#p2e244b4018)" style="stroke: #000000; stroke-linejoin: miter"/>
   </g>
   <g id="patch_225">
    <path d="M 224.352106 125.153756 
L 243.79686 125.153756 
L 243.79686 105.709003 
L 224.352106 105.709003 
z
" clip-path="url(#p2e244b4018)" style="stroke: #000000; stroke-linejoin: miter"/>
   </g>
   <g id="patch_226">
    <path d="M 252.633329 125.014602 
L 271.799774 125.014602 
L 271.799774 105.848157 
L 252.633329 105.848157 
z
" clip-path="url(#p2e244b4018)" style="stroke: #000000; stroke-linejoin: miter"/>
   </g>
   <g id="patch_227">
    <path d="M 280.952819 124.837181 
L 299.764422 124.837181 
L 299.764422 106.025578 
L 280.952819 106.025578 
z
" clip-path="url(#p2e244b4018)" style="stroke: #000000; stroke-linejoin: miter"/>
   </g>
   <g id="patch_228">
    <path d="M 309.262842 124.669227 
L 327.738537 124.669227 
L 327.738537 106.193532 
L 309.262842 106.193532 
z
" clip-path="url(#p2e244b4018)" style="stroke: #000000; stroke-linejoin: miter"/>
   </g>
   <g id="patch_229">
    <path d="M 337.568566 124.505572 
L 355.716951 124.505572 
L 355.716951 106.357187 
L 337.568566 106.357187 
z
" clip-path="url(#p2e244b4018)" style="stroke: #000000; stroke-linejoin: miter"/>
   </g>
   <g id="patch_230">
    <path d="M 365.851726 124.364481 
L 383.717929 124.364481 
L 383.717929 106.498278 
L 365.851726 106.498278 
z
" clip-path="url(#p2e244b4018)" style="stroke: #000000; stroke-linejoin: miter"/>
   </g>
   <g id="patch_231">
    <path d="M 394.173772 124.184504 
L 411.680022 124.184504 
L 411.680022 106.678254 
L 394.173772 106.678254 
z
" clip-path="url(#p2e244b4018)" style="stroke: #000000; stroke-linejoin: miter"/>
   </g>
   <g id="patch_232">
    <path d="M 422.507949 123.992396 
L 439.629982 123.992396 
L 439.629982 106.870363 
L 422.507949 106.870363 
z
" clip-path="url(#p2e244b4018)" style="stroke: #000000; stroke-linejoin: miter"/>
   </g>
   <g id="patch_233">
    <path d="M 450.7824 123.860014 
L 467.639669 123.860014 
L 467.639669 107.002744 
L 450.7824 107.002744 
z
" clip-path="url(#p2e244b4018)" style="stroke: #000000; stroke-linejoin: miter"/>
   </g>
   <g id="patch_234">
    <path d="M 479.13958 123.644903 
L 495.566627 123.644903 
L 495.566627 107.217856 
L 479.13958 107.217856 
z
" clip-path="url(#p2e244b4018)" style="stroke: #000000; stroke-linejoin: miter"/>
   </g>
   <g id="patch_235">
    <path d="M 507.476895 123.449656 
L 523.513449 123.449656 
L 523.513449 107.413102 
L 507.476895 107.413102 
z
" clip-path="url(#p2e244b4018)" style="stroke: #000000; stroke-linejoin: miter"/>
   </g>
   <g id="patch_236">
    <path d="M 535.83762 123.231001 
L 551.436863 123.231001 
L 551.436863 107.631758 
L 535.83762 107.631758 
z
" clip-path="url(#p2e244b4018)" style="stroke: #000000; stroke-linejoin: miter"/>
   </g>
   <g id="patch_237">
    <path d="M 564.183308 123.027381 
L 579.375313 123.027381 
L 579.375313 107.835377 
L 564.183308 107.835377 
z
" clip-path="url(#p2e244b4018)" style="stroke: #000000; stroke-linejoin: miter"/>
   </g>
   <g id="patch_238">
    <path d="M 592.444349 122.90841 
L 607.39841 122.90841 
L 607.39841 107.954349 
L 592.444349 107.954349 
z
" clip-path="url(#p2e244b4018)" style="stroke: #000000; stroke-linejoin: miter"/>
   </g>
   <g id="patch_239">
    <path d="M 621.016728 122.4781 
L 635.110169 122.4781 
L 635.110169 108.384659 
L 621.016728 108.384659 
z
" clip-path="url(#p2e244b4018)" style="stroke: #000000; stroke-linejoin: miter"/>
   </g>
   <g id="patch_240">
    <path d="M 649.136749 122.500148 
L 663.274286 122.500148 
L 663.274286 108.362611 
L 649.136749 108.362611 
z
" clip-path="url(#p2e244b4018)" style="stroke: #000000; stroke-linejoin: miter"/>
   </g>
   <g id="patch_241">
    <path d="M 677.765829 122.013136 
L 690.929343 122.013136 
L 690.929343 108.849623 
L 677.765829 108.849623 
z
" clip-path="url(#p2e244b4018)" style="stroke: #000000; stroke-linejoin: miter"/>
   </g>
   <g id="patch_242">
    <path d="M 705.892124 122.028911 
L 719.087187 122.028911 
L 719.087187 108.833848 
L 705.892124 108.833848 
z
" clip-path="url(#p2e244b4018)" style="stroke: #000000; stroke-linejoin: miter"/>
   </g>
   <g id="patch_243">
    <path d="M 734.209888 121.853216 
L 747.053561 121.853216 
L 747.053561 109.009543 
L 734.209888 109.009543 
z
" clip-path="url(#p2e244b4018)" style="stroke: #000000; stroke-linejoin: miter"/>
   </g>
   <g id="patch_244">
    <path d="M 762.848444 121.356728 
L 774.699142 121.356728 
L 774.699142 109.50603 
L 762.848444 109.50603 
z
" clip-path="url(#p2e244b4018)" style="stroke: #000000; stroke-linejoin: miter"/>
   </g>
   <g id="patch_245">
    <path d="M 791.175444 121.171798 
L 802.65628 121.171798 
L 802.65628 109.690961 
L 791.175444 109.690961 
z
" clip-path="url(#p2e244b4018)" style="stroke: #000000; stroke-linejoin: miter"/>
   </g>
   <g id="matplotlib.axis_1">
    <g id="xtick_1">
     <g id="line2d_1">
      <defs>
       <path id="m75b6d844b4" d="M 0 0 
L 0 3.5 
" style="stroke: #000000; stroke-width: 0.8"/>
      </defs>
      <g>
       <use xlink:href="#m75b6d844b4" x="65.222069" y="368.71" style="stroke: #000000; stroke-width: 0.8"/>
      </g>
     </g>
     <g id="text_1">
      <!-- 1 -->
      <g transform="translate(62.040819 389.808437) scale(0.1 -0.1)">
       <defs>
        <path id="DejaVuSans-31" d="M 794 531 
L 1825 531 
L 1825 4091 
L 703 3866 
L 703 4441 
L 1819 4666 
L 2450 4666 
L 2450 531 
L 3481 531 
L 3481 0 
L 794 0 
L 794 531 
z
" transform="scale(0.015625)"/>
       </defs>
       <use xlink:href="#DejaVuSans-31"/>
      </g>
     </g>
    </g>
    <g id="xtick_2">
     <g id="line2d_2">
      <g>
       <use xlink:href="#m75b6d844b4" x="796.915862" y="368.71" style="stroke: #000000; stroke-width: 0.8"/>
      </g>
     </g>
     <g id="text_2">
      <!-- 1000 -->
      <g transform="translate(784.190862 389.808437) scale(0.1 -0.1)">
       <defs>
        <path id="DejaVuSans-30" d="M 2034 4250 
Q 1547 4250 1301 3770 
Q 1056 3291 1056 2328 
Q 1056 1369 1301 889 
Q 1547 409 2034 409 
Q 2525 409 2770 889 
Q 3016 1369 3016 2328 
Q 3016 3291 2770 3770 
Q 2525 4250 2034 4250 
z
M 2034 4750 
Q 2819 4750 3233 4129 
Q 3647 3509 3647 2328 
Q 3647 1150 3233 529 
Q 2819 -91 2034 -91 
Q 1250 -91 836 529 
Q 422 1150 422 2328 
Q 422 3509 836 4129 
Q 1250 4750 2034 4750 
z
" transform="scale(0.015625)"/>
       </defs>
       <use xlink:href="#DejaVuSans-31"/>
       <use xlink:href="#DejaVuSans-30" x="63.623047"/>
       <use xlink:href="#DejaVuSans-30" x="127.246094"/>
       <use xlink:href="#DejaVuSans-30" x="190.869141"/>
      </g>
     </g>
    </g>
    <g id="text_3">
     <!-- Epoch -->
     <g transform="translate(429.829062 403.486562) scale(0.1 -0.1)">
      <defs>
       <path id="DejaVuSans-45" d="M 628 4666 
L 3578 4666 
L 3578 4134 
L 1259 4134 
L 1259 2753 
L 3481 2753 
L 3481 2222 
L 1259 2222 
L 1259 531 
L 3634 531 
L 3634 0 
L 628 0 
L 628 4666 
z
" transform="scale(0.015625)"/>
       <path id="DejaVuSans-70" d="M 1159 525 
L 1159 -1331 
L 581 -1331 
L 581 3500 
L 1159 3500 
L 1159 2969 
Q 1341 3281 1617 3432 
Q 1894 3584 2278 3584 
Q 2916 3584 3314 3078 
Q 3713 2572 3713 1747 
Q 3713 922 3314 415 
Q 2916 -91 2278 -91 
Q 1894 -91 1617 61 
Q 1341 213 1159 525 
z
M 3116 1747 
Q 3116 2381 2855 2742 
Q 2594 3103 2138 3103 
Q 1681 3103 1420 2742 
Q 1159 2381 1159 1747 
Q 1159 1113 1420 752 
Q 1681 391 2138 391 
Q 2594 391 2855 752 
Q 3116 1113 3116 1747 
z
" transform="scale(0.015625)"/>
       <path id="DejaVuSans-6f" d="M 1959 3097 
Q 1497 3097 1228 2736 
Q 959 2375 959 1747 
Q 959 1119 1226 758 
Q 1494 397 1959 397 
Q 2419 397 2687 759 
Q 2956 1122 2956 1747 
Q 2956 2369 2687 2733 
Q 2419 3097 1959 3097 
z
M 1959 3584 
Q 2709 3584 3137 3096 
Q 3566 2609 3566 1747 
Q 3566 888 3137 398 
Q 2709 -91 1959 -91 
Q 1206 -91 779 398 
Q 353 888 353 1747 
Q 353 2609 779 3096 
Q 1206 3584 1959 3584 
z
" transform="scale(0.015625)"/>
       <path id="DejaVuSans-63" d="M 3122 3366 
L 3122 2828 
Q 2878 2963 2633 3030 
Q 2388 3097 2138 3097 
Q 1578 3097 1268 2742 
Q 959 2388 959 1747 
Q 959 1106 1268 751 
Q 1578 397 2138 397 
Q 2388 397 2633 464 
Q 2878 531 3122 666 
L 3122 134 
Q 2881 22 2623 -34 
Q 2366 -91 2075 -91 
Q 1284 -91 818 406 
Q 353 903 353 1747 
Q 353 2603 823 3093 
Q 1294 3584 2113 3584 
Q 2378 3584 2631 3529 
Q 2884 3475 3122 3366 
z
" transform="scale(0.015625)"/>
       <path id="DejaVuSans-68" d="M 3513 2113 
L 3513 0 
L 2938 0 
L 2938 2094 
Q 2938 2591 2744 2837 
Q 2550 3084 2163 3084 
Q 1697 3084 1428 2787 
Q 1159 2491 1159 1978 
L 1159 0 
L 581 0 
L 581 4863 
L 1159 4863 
L 1159 2956 
Q 1366 3272 1645 3428 
Q 1925 3584 2291 3584 
Q 2894 3584 3203 3211 
Q 3513 2838 3513 2113 
z
" transform="scale(0.015625)"/>
      </defs>
      <use xlink:href="#DejaVuSans-45"/>
      <use xlink:href="#DejaVuSans-70" x="63.183594"/>
      <use xlink:href="#DejaVuSans-6f" x="126.660156"/>
      <use xlink:href="#DejaVuSans-63" x="187.841797"/>
      <use xlink:href="#DejaVuSans-68" x="242.822266"/>
     </g>
    </g>
   </g>
   <g id="matplotlib.axis_2">
    <g id="ytick_1">
     <g id="line2d_3">
      <defs>
       <path id="m5483a6047f" d="M 0 0 
L -3.5 0 
" style="stroke: #000000; stroke-width: 0.8"/>
      </defs>
      <g>
       <use xlink:href="#m5483a6047f" x="37.08" y="340.567931" style="stroke: #000000; stroke-width: 0.8"/>
      </g>
     </g>
     <g id="text_4">
      <!-- 2 -->
      <g transform="translate(17.2175 344.36715) scale(0.1 -0.1)">
       <defs>
        <path id="DejaVuSans-32" d="M 1228 531 
L 3431 531 
L 3431 0 
L 469 0 
L 469 531 
Q 828 903 1448 1529 
Q 2069 2156 2228 2338 
Q 2531 2678 2651 2914 
Q 2772 3150 2772 3378 
Q 2772 3750 2511 3984 
Q 2250 4219 1831 4219 
Q 1534 4219 1204 4116 
Q 875 4013 500 3803 
L 500 4441 
Q 881 4594 1212 4672 
Q 1544 4750 1819 4750 
Q 2544 4750 2975 4387 
Q 3406 4025 3406 3419 
Q 3406 3131 3298 2873 
Q 3191 2616 2906 2266 
Q 2828 2175 2409 1742 
Q 1991 1309 1228 531 
z
" transform="scale(0.015625)"/>
       </defs>
       <use xlink:href="#DejaVuSans-32"/>
      </g>
     </g>
    </g>
    <g id="ytick_2">
     <g id="line2d_4">
      <g>
       <use xlink:href="#m5483a6047f" x="37.08" y="312.425862" style="stroke: #000000; stroke-width: 0.8"/>
      </g>
     </g>
     <g id="text_5">
      <!-- 3 -->
      <g transform="translate(17.2175 316.225081) scale(0.1 -0.1)">
       <defs>
        <path id="DejaVuSans-33" d="M 2597 2516 
Q 3050 2419 3304 2112 
Q 3559 1806 3559 1356 
Q 3559 666 3084 287 
Q 2609 -91 1734 -91 
Q 1441 -91 1130 -33 
Q 819 25 488 141 
L 488 750 
Q 750 597 1062 519 
Q 1375 441 1716 441 
Q 2309 441 2620 675 
Q 2931 909 2931 1356 
Q 2931 1769 2642 2001 
Q 2353 2234 1838 2234 
L 1294 2234 
L 1294 2753 
L 1863 2753 
Q 2328 2753 2575 2939 
Q 2822 3125 2822 3475 
Q 2822 3834 2567 4026 
Q 2313 4219 1838 4219 
Q 1578 4219 1281 4162 
Q 984 4106 628 3988 
L 628 4550 
Q 988 4650 1302 4700 
Q 1616 4750 1894 4750 
Q 2613 4750 3031 4423 
Q 3450 4097 3450 3541 
Q 3450 3153 3228 2886 
Q 3006 2619 2597 2516 
z
" transform="scale(0.015625)"/>
       </defs>
       <use xlink:href="#DejaVuSans-33"/>
      </g>
     </g>
    </g>
    <g id="ytick_3">
     <g id="line2d_5">
      <g>
       <use xlink:href="#m5483a6047f" x="37.08" y="284.283793" style="stroke: #000000; stroke-width: 0.8"/>
      </g>
     </g>
     <g id="text_6">
      <!-- 5 -->
      <g transform="translate(17.2175 288.083012) scale(0.1 -0.1)">
       <defs>
        <path id="DejaVuSans-35" d="M 691 4666 
L 3169 4666 
L 3169 4134 
L 1269 4134 
L 1269 2991 
Q 1406 3038 1543 3061 
Q 1681 3084 1819 3084 
Q 2600 3084 3056 2656 
Q 3513 2228 3513 1497 
Q 3513 744 3044 326 
Q 2575 -91 1722 -91 
Q 1428 -91 1123 -41 
Q 819 9 494 109 
L 494 744 
Q 775 591 1075 516 
Q 1375 441 1709 441 
Q 2250 441 2565 725 
Q 2881 1009 2881 1497 
Q 2881 1984 2565 2268 
Q 2250 2553 1709 2553 
Q 1456 2553 1204 2497 
Q 953 2441 691 2322 
L 691 4666 
z
" transform="scale(0.015625)"/>
       </defs>
       <use xlink:href="#DejaVuSans-35"/>
      </g>
     </g>
    </g>
    <g id="ytick_4">
     <g id="line2d_6">
      <g>
       <use xlink:href="#m5483a6047f" x="37.08" y="256.141724" style="stroke: #000000; stroke-width: 0.8"/>
      </g>
     </g>
     <g id="text_7">
      <!-- 7 -->
      <g transform="translate(17.2175 259.940943) scale(0.1 -0.1)">
       <defs>
        <path id="DejaVuSans-37" d="M 525 4666 
L 3525 4666 
L 3525 4397 
L 1831 0 
L 1172 0 
L 2766 4134 
L 525 4134 
L 525 4666 
z
" transform="scale(0.015625)"/>
       </defs>
       <use xlink:href="#DejaVuSans-37"/>
      </g>
     </g>
    </g>
    <g id="ytick_5">
     <g id="line2d_7">
      <g>
       <use xlink:href="#m5483a6047f" x="37.08" y="227.999655" style="stroke: #000000; stroke-width: 0.8"/>
      </g>
     </g>
     <g id="text_8">
      <!-- 11 -->
      <g transform="translate(10.855 231.798874) scale(0.1 -0.1)">
       <use xlink:href="#DejaVuSans-31"/>
       <use xlink:href="#DejaVuSans-31" x="63.623047"/>
      </g>
     </g>
    </g>
    <g id="ytick_6">
     <g id="line2d_8">
      <g>
       <use xlink:href="#m5483a6047f" x="37.08" y="199.857586" style="stroke: #000000; stroke-width: 0.8"/>
      </g>
     </g>
     <g id="text_9">
      <!-- 13 -->
      <g transform="translate(10.855 203.656805) scale(0.1 -0.1)">
       <use xlink:href="#DejaVuSans-31"/>
       <use xlink:href="#DejaVuSans-33" x="63.623047"/>
      </g>
     </g>
    </g>
    <g id="ytick_7">
     <g id="line2d_9">
      <g>
       <use xlink:href="#m5483a6047f" x="37.08" y="171.715517" style="stroke: #000000; stroke-width: 0.8"/>
      </g>
     </g>
     <g id="text_10">
      <!-- 17 -->
      <g transform="translate(10.855 175.514736) scale(0.1 -0.1)">
       <use xlink:href="#DejaVuSans-31"/>
       <use xlink:href="#DejaVuSans-37" x="63.623047"/>
      </g>
     </g>
    </g>
    <g id="ytick_8">
     <g id="line2d_10">
      <g>
       <use xlink:href="#m5483a6047f" x="37.08" y="143.573448" style="stroke: #000000; stroke-width: 0.8"/>
      </g>
     </g>
     <g id="text_11">
      <!-- 19 -->
      <g transform="translate(10.855 147.372667) scale(0.1 -0.1)">
       <defs>
        <path id="DejaVuSans-39" d="M 703 97 
L 703 672 
Q 941 559 1184 500 
Q 1428 441 1663 441 
Q 2288 441 2617 861 
Q 2947 1281 2994 2138 
Q 2813 1869 2534 1725 
Q 2256 1581 1919 1581 
Q 1219 1581 811 2004 
Q 403 2428 403 3163 
Q 403 3881 828 4315 
Q 1253 4750 1959 4750 
Q 2769 4750 3195 4129 
Q 3622 3509 3622 2328 
Q 3622 1225 3098 567 
Q 2575 -91 1691 -91 
Q 1453 -91 1209 -44 
Q 966 3 703 97 
z
M 1959 2075 
Q 2384 2075 2632 2365 
Q 2881 2656 2881 3163 
Q 2881 3666 2632 3958 
Q 2384 4250 1959 4250 
Q 1534 4250 1286 3958 
Q 1038 3666 1038 3163 
Q 1038 2656 1286 2365 
Q 1534 2075 1959 2075 
z
" transform="scale(0.015625)"/>
       </defs>
       <use xlink:href="#DejaVuSans-31"/>
       <use xlink:href="#DejaVuSans-39" x="63.623047"/>
      </g>
     </g>
    </g>
    <g id="ytick_9">
     <g id="line2d_11">
      <g>
       <use xlink:href="#m5483a6047f" x="37.08" y="115.431379" style="stroke: #000000; stroke-width: 0.8"/>
      </g>
     </g>
     <g id="text_12">
      <!--  -->
      <g transform="translate(16.5675 119.230598) scale(0.1 -0.1)">
       <defs>
        <path id="DejaVuSans-2119" d="M 938 4353 
L 938 313 
L 1569 313 
L 1569 4353 
L 938 4353 
z
M 1881 4353 
L 1881 2284 
L 2825 2284 
Q 2900 2284 2972 2291 
L 2972 4347 
Q 2900 4353 2825 4353 
L 1881 4353 
z
M 625 4666 
L 2678 4666 
Q 3459 4666 3861 4323 
Q 4263 3981 4263 3322 
Q 4263 2656 3861 2315 
Q 3459 1975 2675 1975 
L 1881 1975 
L 1881 0 
L 625 0 
L 625 4666 
z
M 3300 4281 
L 3300 2359 
Q 3488 2428 3628 2556 
Q 3919 2825 3919 3322 
Q 3919 3816 3631 4084 
Q 3494 4213 3300 4281 
z
" transform="scale(0.015625)"/>
       </defs>
       <use xlink:href="#DejaVuSans-2119"/>
      </g>
     </g>
    </g>
   </g>
  </g>
 </g>
 <defs>
  <clipPath id="p2e244b4018">
   <rect x="37.08" y="59.147241" width="816.12" height="309.562759"/>
  </clipPath>
 </defs>
</svg>
