<?xml version="1.0" encoding="utf-8" standalone="no"?>
<!DOCTYPE svg PUBLIC "-//W3C//DTD SVG 1.1//EN"
  "http://www.w3.org/Graphics/SVG/1.1/DTD/svg11.dtd">
<svg xmlns:xlink="http://www.w3.org/1999/xlink" width="432pt" height="216pt" viewBox="0 0 432 216" xmlns="http://www.w3.org/2000/svg" version="1.1">
 <metadata>
  <rdf:RDF xmlns:dc="http://purl.org/dc/elements/1.1/" xmlns:cc="http://creativecommons.org/ns#" xmlns:rdf="http://www.w3.org/1999/02/22-rdf-syntax-ns#">
   <cc:Work>
    <dc:type rdf:resource="http://purl.org/dc/dcmitype/StillImage"/>
    <dc:date>2024-08-13T20:39:56.162842</dc:date>
    <dc:format>image/svg+xml</dc:format>
    <dc:creator>
     <cc:Agent>
      <dc:title>Matplotlib v3.9.1.post1, https://matplotlib.org/</dc:title>
     </cc:Agent>
    </dc:creator>
   </cc:Work>
  </rdf:RDF>
 </metadata>
 <defs>
  <style type="text/css">*{stroke-linejoin: round; stroke-linecap: butt}</style>
 </defs>
 <g id="figure_1">
  <g id="patch_1">
   <path d="M 0 216 
L 432 216 
L 432 0 
L 0 0 
z
" style="fill: #ffffff"/>
  </g>
  <g id="axes_1">
   <g id="patch_2">
    <path d="M 37.08 170.399655 
L 421.2 170.399655 
L 421.2 24.698966 
L 37.08 24.698966 
z
" style="fill: #ffffff"/>
   </g>
   <g id="patch_3">
    <path d="M 45.045756 162.433899 
L 55.605278 162.433899 
L 55.605278 151.874377 
L 45.045756 151.874377 
z
" clip-path="url(#pc80e06c9d8)" style="stroke: #000000; stroke-linejoin: miter"/>
   </g>
   <g id="patch_4">
    <path d="M 58.272828 162.452345 
L 68.869243 162.452345 
L 68.869243 151.855931 
L 58.272828 151.855931 
z
" clip-path="url(#pc80e06c9d8)" style="stroke: #000000; stroke-linejoin: miter"/>
   </g>
   <g id="patch_5">
    <path d="M 71.557512 162.413178 
L 82.075595 162.413178 
L 82.075595 151.895097 
L 71.557512 151.895097 
z
" clip-path="url(#pc80e06c9d8)" style="stroke: #000000; stroke-linejoin: miter"/>
   </g>
   <g id="patch_6">
    <path d="M 84.841118 162.375088 
L 95.283017 162.375088 
L 95.283017 151.933188 
L 84.841118 151.933188 
z
" clip-path="url(#pc80e06c9d8)" style="stroke: #000000; stroke-linejoin: miter"/>
   </g>
   <g id="patch_7">
    <path d="M 98.150735 162.31099 
L 108.464437 162.31099 
L 108.464437 151.997286 
L 98.150735 151.997286 
z
" clip-path="url(#pc80e06c9d8)" style="stroke: #000000; stroke-linejoin: miter"/>
   </g>
   <g id="patch_8">
    <path d="M 111.571186 162.136058 
L 121.535028 162.136058 
L 121.535028 152.172218 
L 111.571186 152.172218 
z
" clip-path="url(#pc80e06c9d8)" style="stroke: #000000; stroke-linejoin: miter"/>
   </g>
   <g id="patch_9">
    <path d="M 125.270782 161.681978 
L 134.326466 161.681978 
L 134.326466 152.626297 
L 125.270782 152.626297 
z
" clip-path="url(#pc80e06c9d8)" style="stroke: #000000; stroke-linejoin: miter"/>
   </g>
   <g id="patch_10">
    <path d="M 139.575093 160.623183 
L 146.513182 160.623183 
L 146.513182 153.685093 
L 139.575093 153.685093 
z
" clip-path="url(#pc80e06c9d8)" style="stroke: #000000; stroke-linejoin: miter"/>
   </g>
   <g id="patch_11">
    <path d="M 154.659861 158.783933 
L 157.919449 158.783933 
L 157.919449 155.524343 
L 154.659861 155.524343 
z
" clip-path="url(#pc80e06c9d8)" style="stroke: #000000; stroke-linejoin: miter"/>
   </g>
   <g id="patch_12">
    <path d="M 168.753864 157.935451 
L 170.316494 157.935451 
L 170.316494 156.372825 
L 168.753864 156.372825 
z
" clip-path="url(#pc80e06c9d8)" style="stroke: #000000; stroke-linejoin: miter"/>
   </g>
   <g id="patch_13">
    <path d="M 181.567496 158.367334 
L 183.993884 158.367334 
L 183.993884 155.940942 
L 181.567496 155.940942 
z
" clip-path="url(#pc80e06c9d8)" style="stroke: #000000; stroke-linejoin: miter"/>
   </g>
   <g id="patch_14">
    <path d="M 195.573429 157.606913 
L 196.478985 157.606913 
L 196.478985 156.701363 
L 195.573429 156.701363 
z
" clip-path="url(#pc80e06c9d8)" style="stroke: #000000; stroke-linejoin: miter"/>
   </g>
   <g id="patch_15">
    <path d="M 208.697819 157.728048 
L 209.845642 157.728048 
L 209.845642 156.580228 
L 208.697819 156.580228 
z
" clip-path="url(#pc80e06c9d8)" style="stroke: #000000; stroke-linejoin: miter"/>
   </g>
   <g id="patch_16">
    <path d="M 221.79793 157.873449 
L 223.236553 157.873449 
L 223.236553 156.434827 
L 221.79793 156.434827 
z
" clip-path="url(#pc80e06c9d8)" style="stroke: #000000; stroke-linejoin: miter"/>
   </g>
   <g id="patch_17">
    <path d="M 235.337657 157.579238 
L 236.18786 157.579238 
L 236.18786 156.729038 
L 235.337657 156.729038 
z
" clip-path="url(#pc80e06c9d8)" style="stroke: #000000; stroke-linejoin: miter"/>
   </g>
   <g id="patch_18">
    <path d="M 248.757002 157.405408 
L 249.259537 157.405408 
L 249.259537 156.902868 
L 248.757002 156.902868 
z
" clip-path="url(#pc80e06c9d8)" style="stroke: #000000; stroke-linejoin: miter"/>
   </g>
   <g id="patch_19">
    <path d="M 261.890285 157.517644 
L 262.617289 157.517644 
L 262.617289 156.790632 
L 261.890285 156.790632 
z
" clip-path="url(#pc80e06c9d8)" style="stroke: #000000; stroke-linejoin: miter"/>
   </g>
   <g id="patch_20">
    <path d="M 275.215547 157.437898 
L 275.783074 157.437898 
L 275.783074 156.870378 
L 275.215547 156.870378 
z
" clip-path="url(#pc80e06c9d8)" style="stroke: #000000; stroke-linejoin: miter"/>
   </g>
   <g id="patch_21">
    <path d="M 288.436558 157.462407 
L 289.053097 157.462407 
L 289.053097 156.845869 
L 288.436558 156.845869 
z
" clip-path="url(#pc80e06c9d8)" style="stroke: #000000; stroke-linejoin: miter"/>
   </g>
   <g id="patch_22">
    <path d="M 301.463215 157.681262 
L 302.517474 157.681262 
L 302.517474 156.627014 
L 301.463215 156.627014 
z
" clip-path="url(#pc80e06c9d8)" style="stroke: #000000; stroke-linejoin: miter"/>
   </g>
   <g id="patch_23">
    <path d="M 315.021221 157.368788 
L 315.450529 157.368788 
L 315.450529 156.939488 
L 315.021221 156.939488 
z
" clip-path="url(#pc80e06c9d8)" style="stroke: #000000; stroke-linejoin: miter"/>
   </g>
   <g id="patch_24">
    <path d="M 328.175561 157.459961 
L 328.787198 157.459961 
L 328.787198 156.848315 
L 328.175561 156.848315 
z
" clip-path="url(#pc80e06c9d8)" style="stroke: #000000; stroke-linejoin: miter"/>
   </g>
   <g id="patch_25">
    <path d="M 341.214471 157.66656 
L 342.239323 157.66656 
L 342.239323 156.641715 
L 341.214471 156.641715 
z
" clip-path="url(#pc80e06c9d8)" style="stroke: #000000; stroke-linejoin: miter"/>
   </g>
   <g id="patch_26">
    <path d="M 354.704592 157.42197 
L 355.240261 157.42197 
L 355.240261 156.886306 
L 354.704592 156.886306 
z
" clip-path="url(#pc80e06c9d8)" style="stroke: #000000; stroke-linejoin: miter"/>
   </g>
   <g id="patch_27">
    <path d="M 367.845163 157.526918 
L 368.590724 157.526918 
L 368.590724 156.781358 
L 367.845163 156.781358 
z
" clip-path="url(#pc80e06c9d8)" style="stroke: #000000; stroke-linejoin: miter"/>
   </g>
   <g id="patch_28">
    <path d="M 381.151541 157.466049 
L 381.775355 157.466049 
L 381.775355 156.842227 
L 381.151541 156.842227 
z
" clip-path="url(#pc80e06c9d8)" style="stroke: #000000; stroke-linejoin: miter"/>
   </g>
   <g id="patch_29">
    <path d="M 394.448293 157.414804 
L 394.969638 157.414804 
L 394.969638 156.893472 
L 394.448293 156.893472 
z
" clip-path="url(#pc80e06c9d8)" style="stroke: #000000; stroke-linejoin: miter"/>
   </g>
   <g id="patch_30">
    <path d="M 45.10137 149.132768 
L 55.549664 149.132768 
L 55.549664 138.684473 
L 45.10137 138.684473 
z
" clip-path="url(#pc80e06c9d8)" style="stroke: #000000; stroke-linejoin: miter"/>
   </g>
   <g id="patch_31">
    <path d="M 58.330526 149.149129 
L 68.811543 149.149129 
L 68.811543 138.668112 
L 58.330526 138.668112 
z
" clip-path="url(#pc80e06c9d8)" style="stroke: #000000; stroke-linejoin: miter"/>
   </g>
   <g id="patch_32">
    <path d="M 71.620231 149.104941 
L 82.012874 149.104941 
L 82.012874 138.712298 
L 71.620231 138.712298 
z
" clip-path="url(#pc80e06c9d8)" style="stroke: #000000; stroke-linejoin: miter"/>
   </g>
   <g id="patch_33">
    <path d="M 84.949935 149.020755 
L 95.174203 149.020755 
L 95.174203 138.796487 
L 84.949935 138.796487 
z
" clip-path="url(#pc80e06c9d8)" style="stroke: #000000; stroke-linejoin: miter"/>
   </g>
   <g id="patch_34">
    <path d="M 98.188757 149.02745 
L 108.426415 149.02745 
L 108.426415 138.789792 
L 98.188757 138.789792 
z
" clip-path="url(#pc80e06c9d8)" style="stroke: #000000; stroke-linejoin: miter"/>
   </g>
   <g id="patch_35">
    <path d="M 111.442827 149.018901 
L 121.663387 149.018901 
L 121.663387 138.798341 
L 111.442827 138.798341 
z
" clip-path="url(#pc80e06c9d8)" style="stroke: #000000; stroke-linejoin: miter"/>
   </g>
   <g id="patch_36">
    <path d="M 124.696011 149.01123 
L 134.90123 149.01123 
L 134.90123 138.806011 
L 124.696011 138.806011 
z
" clip-path="url(#pc80e06c9d8)" style="stroke: #000000; stroke-linejoin: miter"/>
   </g>
   <g id="patch_37">
    <path d="M 137.941573 149.011186 
L 148.146703 149.011186 
L 148.146703 138.806056 
L 137.941573 138.806056 
z
" clip-path="url(#pc80e06c9d8)" style="stroke: #000000; stroke-linejoin: miter"/>
   </g>
   <g id="patch_38">
    <path d="M 151.153079 149.0452 
L 161.426232 149.0452 
L 161.426232 138.772041 
L 151.153079 138.772041 
z
" clip-path="url(#pc80e06c9d8)" style="stroke: #000000; stroke-linejoin: miter"/>
   </g>
   <g id="patch_39">
    <path d="M 164.380936 149.062861 
L 174.689421 149.062861 
L 174.689421 138.754382 
L 164.380936 138.754382 
z
" clip-path="url(#pc80e06c9d8)" style="stroke: #000000; stroke-linejoin: miter"/>
   </g>
   <g id="patch_40">
    <path d="M 177.631797 149.057517 
L 187.929595 149.057517 
L 187.929595 138.759725 
L 177.631797 138.759725 
z
" clip-path="url(#pc80e06c9d8)" style="stroke: #000000; stroke-linejoin: miter"/>
   </g>
   <g id="patch_41">
    <path d="M 190.860804 149.074029 
L 201.191622 149.074029 
L 201.191622 138.743212 
L 190.860804 138.743212 
z
" clip-path="url(#pc80e06c9d8)" style="stroke: #000000; stroke-linejoin: miter"/>
   </g>
   <g id="patch_42">
    <path d="M 204.123855 149.056496 
L 214.419606 149.056496 
L 214.419606 138.760745 
L 204.123855 138.760745 
z
" clip-path="url(#pc80e06c9d8)" style="stroke: #000000; stroke-linejoin: miter"/>
   </g>
   <g id="patch_43">
    <path d="M 217.40603 149.019828 
L 227.62844 149.019828 
L 227.62844 138.797415 
L 217.40603 138.797415 
z
" clip-path="url(#pc80e06c9d8)" style="stroke: #000000; stroke-linejoin: miter"/>
   </g>
   <g id="patch_44">
    <path d="M 230.653429 149.017952 
L 240.872088 149.017952 
L 240.872088 138.799291 
L 230.653429 138.799291 
z
" clip-path="url(#pc80e06c9d8)" style="stroke: #000000; stroke-linejoin: miter"/>
   </g>
   <g id="patch_45">
    <path d="M 243.904795 149.012097 
L 254.111744 149.012097 
L 254.111744 138.805146 
L 243.904795 138.805146 
z
" clip-path="url(#pc80e06c9d8)" style="stroke: #000000; stroke-linejoin: miter"/>
   </g>
   <g id="patch_46">
    <path d="M 257.141697 149.02071 
L 267.365876 149.02071 
L 267.365876 138.796531 
L 257.141697 138.796531 
z
" clip-path="url(#pc80e06c9d8)" style="stroke: #000000; stroke-linejoin: miter"/>
   </g>
   <g id="patch_47">
    <path d="M 270.392583 149.015359 
L 280.606063 149.015359 
L 280.606063 138.801884 
L 270.392583 138.801884 
z
" clip-path="url(#pc80e06c9d8)" style="stroke: #000000; stroke-linejoin: miter"/>
   </g>
   <g id="patch_48">
    <path d="M 283.640374 149.013079 
L 293.849281 149.013079 
L 293.849281 138.804164 
L 283.640374 138.804164 
z
" clip-path="url(#pc80e06c9d8)" style="stroke: #000000; stroke-linejoin: miter"/>
   </g>
   <g id="patch_49">
    <path d="M 296.888948 149.010025 
L 307.091767 149.010025 
L 307.091767 138.807215 
L 296.888948 138.807215 
z
" clip-path="url(#pc80e06c9d8)" style="stroke: #000000; stroke-linejoin: miter"/>
   </g>
   <g id="patch_50">
    <path d="M 310.135324 149.009165 
L 320.3364 149.009165 
L 320.3364 138.808077 
L 310.135324 138.808077 
z
" clip-path="url(#pc80e06c9d8)" style="stroke: #000000; stroke-linejoin: miter"/>
   </g>
   <g id="patch_51">
    <path d="M 323.383216 149.006776 
L 333.579517 149.006776 
L 333.579517 138.810467 
L 323.383216 138.810467 
z
" clip-path="url(#pc80e06c9d8)" style="stroke: #000000; stroke-linejoin: miter"/>
   </g>
   <g id="patch_52">
    <path d="M 336.630831 149.004674 
L 346.822937 149.004674 
L 346.822937 138.812567 
L 336.630831 138.812567 
z
" clip-path="url(#pc80e06c9d8)" style="stroke: #000000; stroke-linejoin: miter"/>
   </g>
   <g id="patch_53">
    <path d="M 349.877005 149.004038 
L 360.067848 149.004038 
L 360.067848 138.813202 
L 349.877005 138.813202 
z
" clip-path="url(#pc80e06c9d8)" style="stroke: #000000; stroke-linejoin: miter"/>
   </g>
   <g id="patch_54">
    <path d="M 363.122699 149.003845 
L 373.313138 149.003845 
L 373.313138 138.813398 
L 363.122699 138.813398 
z
" clip-path="url(#pc80e06c9d8)" style="stroke: #000000; stroke-linejoin: miter"/>
   </g>
   <g id="patch_55">
    <path d="M 376.37049 149.001587 
L 386.556432 149.001587 
L 386.556432 138.815653 
L 376.37049 138.815653 
z
" clip-path="url(#pc80e06c9d8)" style="stroke: #000000; stroke-linejoin: miter"/>
   </g>
   <g id="patch_56">
    <path d="M 389.616159 149.001425 
L 399.801773 149.001425 
L 399.801773 138.815817 
L 389.616159 138.815817 
z
" clip-path="url(#pc80e06c9d8)" style="stroke: #000000; stroke-linejoin: miter"/>
   </g>
   <g id="patch_57">
    <path d="M 45.303637 135.684984 
L 55.347397 135.684984 
L 55.347397 125.641225 
L 45.303637 125.641225 
z
" clip-path="url(#pc80e06c9d8)" style="stroke: #000000; stroke-linejoin: miter"/>
   </g>
   <g id="patch_58">
    <path d="M 58.649526 135.584612 
L 68.492543 135.584612 
L 68.492543 125.741595 
L 58.649526 125.741595 
z
" clip-path="url(#pc80e06c9d8)" style="stroke: #000000; stroke-linejoin: miter"/>
   </g>
   <g id="patch_59">
    <path d="M 72.149667 135.329988 
L 81.483436 135.329988 
L 81.483436 125.996219 
L 72.149667 125.996219 
z
" clip-path="url(#pc80e06c9d8)" style="stroke: #000000; stroke-linejoin: miter"/>
   </g>
   <g id="patch_60">
    <path d="M 85.527466 135.197708 
L 94.596675 135.197708 
L 94.596675 126.128501 
L 85.527466 126.128501 
z
" clip-path="url(#pc80e06c9d8)" style="stroke: #000000; stroke-linejoin: miter"/>
   </g>
   <g id="patch_61">
    <path d="M 98.826779 135.14391 
L 107.78839 135.14391 
L 107.78839 126.182297 
L 98.826779 126.182297 
z
" clip-path="url(#pc80e06c9d8)" style="stroke: #000000; stroke-linejoin: miter"/>
   </g>
   <g id="patch_62">
    <path d="M 112.162271 135.053936 
L 120.943936 135.053936 
L 120.943936 126.272271 
L 112.162271 126.272271 
z
" clip-path="url(#pc80e06c9d8)" style="stroke: #000000; stroke-linejoin: miter"/>
   </g>
   <g id="patch_63">
    <path d="M 125.61029 134.851434 
L 133.986951 134.851434 
L 133.986951 126.474773 
L 125.61029 126.474773 
z
" clip-path="url(#pc80e06c9d8)" style="stroke: #000000; stroke-linejoin: miter"/>
   </g>
   <g id="patch_64">
    <path d="M 139.161777 134.545462 
L 146.926492 134.545462 
L 146.926492 126.780746 
L 139.161777 126.780746 
z
" clip-path="url(#pc80e06c9d8)" style="stroke: #000000; stroke-linejoin: miter"/>
   </g>
   <g id="patch_65">
    <path d="M 153.09797 133.854789 
L 159.481335 133.854789 
L 159.481335 127.471418 
L 153.09797 127.471418 
z
" clip-path="url(#pc80e06c9d8)" style="stroke: #000000; stroke-linejoin: miter"/>
   </g>
   <g id="patch_66">
    <path d="M 167.615779 132.5825 
L 171.454566 132.5825 
L 171.454566 128.743707 
L 167.615779 128.743707 
z
" clip-path="url(#pc80e06c9d8)" style="stroke: #000000; stroke-linejoin: miter"/>
   </g>
   <g id="patch_67">
    <path d="M 181.855049 131.588743 
L 183.706331 131.588743 
L 183.706331 129.737462 
L 181.855049 129.737462 
z
" clip-path="url(#pc80e06c9d8)" style="stroke: #000000; stroke-linejoin: miter"/>
   </g>
   <g id="patch_68">
    <path d="M 194.677624 132.011683 
L 197.37479 132.011683 
L 197.37479 129.314524 
L 194.677624 129.314524 
z
" clip-path="url(#pc80e06c9d8)" style="stroke: #000000; stroke-linejoin: miter"/>
   </g>
   <g id="patch_69">
    <path d="M 208.256674 131.678152 
L 210.286774 131.678152 
L 210.286774 129.648054 
L 208.256674 129.648054 
z
" clip-path="url(#pc80e06c9d8)" style="stroke: #000000; stroke-linejoin: miter"/>
   </g>
   <g id="patch_70">
    <path d="M 221.739823 131.440525 
L 223.294672 131.440525 
L 223.294672 129.885682 
L 221.739823 129.885682 
z
" clip-path="url(#pc80e06c9d8)" style="stroke: #000000; stroke-linejoin: miter"/>
   </g>
   <g id="patch_71">
    <path d="M 235.053515 131.372344 
L 236.47199 131.372344 
L 236.47199 129.953863 
L 235.053515 129.953863 
z
" clip-path="url(#pc80e06c9d8)" style="stroke: #000000; stroke-linejoin: miter"/>
   </g>
   <g id="patch_72">
    <path d="M 248.567498 131.103881 
L 249.449054 131.103881 
L 249.449054 130.222326 
L 248.567498 130.222326 
z
" clip-path="url(#pc80e06c9d8)" style="stroke: #000000; stroke-linejoin: miter"/>
   </g>
   <g id="patch_73">
    <path d="M 261.955364 130.961529 
L 262.552209 130.961529 
L 262.552209 130.364678 
L 261.955364 130.364678 
z
" clip-path="url(#pc80e06c9d8)" style="stroke: #000000; stroke-linejoin: miter"/>
   </g>
   <g id="patch_74">
    <path d="M 275.227421 130.934983 
L 275.771174 130.934983 
L 275.771174 130.391224 
L 275.227421 130.391224 
z
" clip-path="url(#pc80e06c9d8)" style="stroke: #000000; stroke-linejoin: miter"/>
   </g>
   <g id="patch_75">
    <path d="M 288.440828 130.967109 
L 289.048852 130.967109 
L 289.048852 130.359098 
L 288.440828 130.359098 
z
" clip-path="url(#pc80e06c9d8)" style="stroke: #000000; stroke-linejoin: miter"/>
   </g>
   <g id="patch_76">
    <path d="M 301.632584 131.020861 
L 302.348106 131.020861 
L 302.348106 130.305346 
L 301.632584 130.305346 
z
" clip-path="url(#pc80e06c9d8)" style="stroke: #000000; stroke-linejoin: miter"/>
   </g>
   <g id="patch_77">
    <path d="M 314.931534 130.967439 
L 315.540215 130.967439 
L 315.540215 130.358766 
L 314.931534 130.358766 
z
" clip-path="url(#pc80e06c9d8)" style="stroke: #000000; stroke-linejoin: miter"/>
   </g>
   <g id="patch_78">
    <path d="M 328.213734 130.930753 
L 328.749024 130.930753 
L 328.749024 130.395452 
L 328.213734 130.395452 
z
" clip-path="url(#pc80e06c9d8)" style="stroke: #000000; stroke-linejoin: miter"/>
   </g>
   <g id="patch_79">
    <path d="M 341.284173 131.105838 
L 342.169645 131.105838 
L 342.169645 130.220368 
L 341.284173 130.220368 
z
" clip-path="url(#pc80e06c9d8)" style="stroke: #000000; stroke-linejoin: miter"/>
   </g>
   <g id="patch_80">
    <path d="M 354.660406 130.975124 
L 355.284447 130.975124 
L 355.284447 130.351083 
L 354.660406 130.351083 
z
" clip-path="url(#pc80e06c9d8)" style="stroke: #000000; stroke-linejoin: miter"/>
   </g>
   <g id="patch_81">
    <path d="M 367.7792 131.101837 
L 368.656663 131.101837 
L 368.656663 130.224369 
L 367.7792 130.224369 
z
" clip-path="url(#pc80e06c9d8)" style="stroke: #000000; stroke-linejoin: miter"/>
   </g>
   <g id="patch_82">
    <path d="M 381.127439 130.999119 
L 381.799482 130.999119 
L 381.799482 130.327088 
L 381.127439 130.327088 
z
" clip-path="url(#pc80e06c9d8)" style="stroke: #000000; stroke-linejoin: miter"/>
   </g>
   <g id="patch_83">
    <path d="M 394.371214 131.000857 
L 395.046718 131.000857 
L 395.046718 130.325351 
L 394.371214 130.325351 
z
" clip-path="url(#pc80e06c9d8)" style="stroke: #000000; stroke-linejoin: miter"/>
   </g>
   <g id="patch_84">
    <path d="M 45.245971 122.497133 
L 55.405063 122.497133 
L 55.405063 112.338043 
L 45.245971 112.338043 
z
" clip-path="url(#pc80e06c9d8)" style="stroke: #000000; stroke-linejoin: miter"/>
   </g>
   <g id="patch_85">
    <path d="M 59.184343 121.804276 
L 67.957726 121.804276 
L 67.957726 113.030893 
L 59.184343 113.030893 
z
" clip-path="url(#pc80e06c9d8)" style="stroke: #000000; stroke-linejoin: miter"/>
   </g>
   <g id="patch_86">
    <path d="M 72.519012 121.715126 
L 81.114092 121.715126 
L 81.114092 113.120046 
L 72.519012 113.120046 
z
" clip-path="url(#pc80e06c9d8)" style="stroke: #000000; stroke-linejoin: miter"/>
   </g>
   <g id="patch_87">
    <path d="M 85.812789 121.666866 
L 94.311352 121.666866 
L 94.311352 113.168303 
L 85.812789 113.168303 
z
" clip-path="url(#pc80e06c9d8)" style="stroke: #000000; stroke-linejoin: miter"/>
   </g>
   <g id="patch_88">
    <path d="M 99.076569 121.648603 
L 107.5386 121.648603 
L 107.5386 113.186569 
L 99.076569 113.186569 
z
" clip-path="url(#pc80e06c9d8)" style="stroke: #000000; stroke-linejoin: miter"/>
   </g>
   <g id="patch_89">
    <path d="M 112.324831 121.645856 
L 120.78137 121.645856 
L 120.78137 113.189313 
L 112.324831 113.189313 
z
" clip-path="url(#pc80e06c9d8)" style="stroke: #000000; stroke-linejoin: miter"/>
   </g>
   <g id="patch_90">
    <path d="M 125.565693 121.650514 
L 134.031548 121.650514 
L 134.031548 113.184655 
L 125.565693 113.184655 
z
" clip-path="url(#pc80e06c9d8)" style="stroke: #000000; stroke-linejoin: miter"/>
   </g>
   <g id="patch_91">
    <path d="M 138.798389 121.663335 
L 147.289887 121.663335 
L 147.289887 113.171834 
L 138.798389 113.171834 
z
" clip-path="url(#pc80e06c9d8)" style="stroke: #000000; stroke-linejoin: miter"/>
   </g>
   <g id="patch_92">
    <path d="M 152.050134 121.657111 
L 160.529177 121.657111 
L 160.529177 113.178062 
L 152.050134 113.178062 
z
" clip-path="url(#pc80e06c9d8)" style="stroke: #000000; stroke-linejoin: miter"/>
   </g>
   <g id="patch_93">
    <path d="M 165.253966 121.698793 
L 173.816379 121.698793 
L 173.816379 113.136379 
L 165.253966 113.136379 
z
" clip-path="url(#pc80e06c9d8)" style="stroke: #000000; stroke-linejoin: miter"/>
   </g>
   <g id="patch_94">
    <path d="M 178.488051 121.710228 
L 187.073328 121.710228 
L 187.073328 113.124944 
L 178.488051 113.124944 
z
" clip-path="url(#pc80e06c9d8)" style="stroke: #000000; stroke-linejoin: miter"/>
   </g>
   <g id="patch_95">
    <path d="M 191.739985 121.703805 
L 200.312416 121.703805 
L 200.312416 113.131371 
L 191.739985 113.131371 
z
" clip-path="url(#pc80e06c9d8)" style="stroke: #000000; stroke-linejoin: miter"/>
   </g>
   <g id="patch_96">
    <path d="M 205.033895 121.655412 
L 213.509553 121.655412 
L 213.509553 113.179761 
L 205.033895 113.179761 
z
" clip-path="url(#pc80e06c9d8)" style="stroke: #000000; stroke-linejoin: miter"/>
   </g>
   <g id="patch_97">
    <path d="M 218.32725 121.607581 
L 226.707246 121.607581 
L 226.707246 113.227591 
L 218.32725 113.227591 
z
" clip-path="url(#pc80e06c9d8)" style="stroke: #000000; stroke-linejoin: miter"/>
   </g>
   <g id="patch_98">
    <path d="M 231.571213 121.609125 
L 239.954291 121.609125 
L 239.954291 113.226047 
L 231.571213 113.226047 
z
" clip-path="url(#pc80e06c9d8)" style="stroke: #000000; stroke-linejoin: miter"/>
   </g>
   <g id="patch_99">
    <path d="M 244.818688 121.60718 
L 253.197876 121.60718 
L 253.197876 113.227992 
L 244.818688 113.227992 
z
" clip-path="url(#pc80e06c9d8)" style="stroke: #000000; stroke-linejoin: miter"/>
   </g>
   <g id="patch_100">
    <path d="M 258.094257 121.577126 
L 266.413329 121.577126 
L 266.413329 113.258044 
L 258.094257 113.258044 
z
" clip-path="url(#pc80e06c9d8)" style="stroke: #000000; stroke-linejoin: miter"/>
   </g>
   <g id="patch_101">
    <path d="M 271.354427 121.562473 
L 279.644194 121.562473 
L 279.644194 113.2727 
L 271.354427 113.2727 
z
" clip-path="url(#pc80e06c9d8)" style="stroke: #000000; stroke-linejoin: miter"/>
   </g>
   <g id="patch_102">
    <path d="M 284.594285 121.568129 
L 292.89537 121.568129 
L 292.89537 113.267047 
L 284.594285 113.267047 
z
" clip-path="url(#pc80e06c9d8)" style="stroke: #000000; stroke-linejoin: miter"/>
   </g>
   <g id="patch_103">
    <path d="M 297.84579 121.562138 
L 306.1349 121.562138 
L 306.1349 113.273035 
L 297.84579 113.273035 
z
" clip-path="url(#pc80e06c9d8)" style="stroke: #000000; stroke-linejoin: miter"/>
   </g>
   <g id="patch_104">
    <path d="M 311.114979 121.538462 
L 319.356719 121.538462 
L 319.356719 113.29671 
L 311.114979 113.29671 
z
" clip-path="url(#pc80e06c9d8)" style="stroke: #000000; stroke-linejoin: miter"/>
   </g>
   <g id="patch_105">
    <path d="M 324.376413 121.522553 
L 332.586346 121.522553 
L 332.586346 113.312617 
L 324.376413 113.312617 
z
" clip-path="url(#pc80e06c9d8)" style="stroke: #000000; stroke-linejoin: miter"/>
   </g>
   <g id="patch_106">
    <path d="M 337.630772 121.513701 
L 345.822995 121.513701 
L 345.822995 113.321472 
L 337.630772 113.321472 
z
" clip-path="url(#pc80e06c9d8)" style="stroke: #000000; stroke-linejoin: miter"/>
   </g>
   <g id="patch_107">
    <path d="M 350.881317 121.50868 
L 359.06351 121.50868 
L 359.06351 113.326496 
L 350.881317 113.326496 
z
" clip-path="url(#pc80e06c9d8)" style="stroke: #000000; stroke-linejoin: miter"/>
   </g>
   <g id="patch_108">
    <path d="M 364.150658 121.484846 
L 372.285179 121.484846 
L 372.285179 113.350323 
L 364.150658 113.350323 
z
" clip-path="url(#pc80e06c9d8)" style="stroke: #000000; stroke-linejoin: miter"/>
   </g>
   <g id="patch_109">
    <path d="M 377.40853 121.472499 
L 385.518367 121.472499 
L 385.518367 113.362671 
L 377.40853 113.362671 
z
" clip-path="url(#pc80e06c9d8)" style="stroke: #000000; stroke-linejoin: miter"/>
   </g>
   <g id="patch_110">
    <path d="M 390.667285 121.459257 
L 398.750621 121.459257 
L 398.750621 113.375915 
L 390.667285 113.375915 
z
" clip-path="url(#pc80e06c9d8)" style="stroke: #000000; stroke-linejoin: miter"/>
   </g>
   <g id="patch_111">
    <path d="M 45.274914 109.222673 
L 55.376121 109.222673 
L 55.376121 99.121465 
L 45.274914 99.121465 
z
" clip-path="url(#pc80e06c9d8)" style="stroke: #000000; stroke-linejoin: miter"/>
   </g>
   <g id="patch_112">
    <path d="M 59.747318 107.995786 
L 67.394751 107.995786 
L 67.394751 100.348352 
L 59.747318 100.348352 
z
" clip-path="url(#pc80e06c9d8)" style="stroke: #000000; stroke-linejoin: miter"/>
   </g>
   <g id="patch_113">
    <path d="M 73.144099 107.844522 
L 80.489008 107.844522 
L 80.489008 100.499613 
L 73.144099 100.499613 
z
" clip-path="url(#pc80e06c9d8)" style="stroke: #000000; stroke-linejoin: miter"/>
   </g>
   <g id="patch_114">
    <path d="M 86.341356 107.892782 
L 93.782779 107.892782 
L 93.782779 100.451359 
L 86.341356 100.451359 
z
" clip-path="url(#pc80e06c9d8)" style="stroke: #000000; stroke-linejoin: miter"/>
   </g>
   <g id="patch_115">
    <path d="M 99.655092 107.824564 
L 106.960078 107.824564 
L 106.960078 100.519578 
L 99.655092 100.519578 
z
" clip-path="url(#pc80e06c9d8)" style="stroke: #000000; stroke-linejoin: miter"/>
   </g>
   <g id="patch_116">
    <path d="M 112.911608 107.813564 
L 120.194599 107.813564 
L 120.194599 100.530574 
L 112.911608 100.530574 
z
" clip-path="url(#pc80e06c9d8)" style="stroke: #000000; stroke-linejoin: miter"/>
   </g>
   <g id="patch_117">
    <path d="M 126.14899 107.821696 
L 133.448245 107.821696 
L 133.448245 100.522439 
L 126.14899 100.522439 
z
" clip-path="url(#pc80e06c9d8)" style="stroke: #000000; stroke-linejoin: miter"/>
   </g>
   <g id="patch_118">
    <path d="M 139.39584 107.820367 
L 146.692436 107.820367 
L 146.692436 100.523771 
L 139.39584 100.523771 
z
" clip-path="url(#pc80e06c9d8)" style="stroke: #000000; stroke-linejoin: miter"/>
   </g>
   <g id="patch_119">
    <path d="M 152.641478 107.82025 
L 159.937839 107.82025 
L 159.937839 100.523891 
L 152.641478 100.523891 
z
" clip-path="url(#pc80e06c9d8)" style="stroke: #000000; stroke-linejoin: miter"/>
   </g>
   <g id="patch_120">
    <path d="M 165.8498 107.857435 
L 173.220532 107.857435 
L 173.220532 100.486697 
L 165.8498 100.486697 
z
" clip-path="url(#pc80e06c9d8)" style="stroke: #000000; stroke-linejoin: miter"/>
   </g>
   <g id="patch_121">
    <path d="M 179.103768 107.848997 
L 186.457624 107.848997 
L 186.457624 100.495141 
L 179.103768 100.495141 
z
" clip-path="url(#pc80e06c9d8)" style="stroke: #000000; stroke-linejoin: miter"/>
   </g>
   <g id="patch_122">
    <path d="M 192.312539 107.885743 
L 199.739887 107.885743 
L 199.739887 100.458395 
L 192.312539 100.458395 
z
" clip-path="url(#pc80e06c9d8)" style="stroke: #000000; stroke-linejoin: miter"/>
   </g>
   <g id="patch_123">
    <path d="M 205.625006 107.818784 
L 212.918443 107.818784 
L 212.918443 100.52535 
L 205.625006 100.52535 
z
" clip-path="url(#pc80e06c9d8)" style="stroke: #000000; stroke-linejoin: miter"/>
   </g>
   <g id="patch_124">
    <path d="M 218.875626 107.813691 
L 226.158869 107.813691 
L 226.158869 100.530447 
L 218.875626 100.530447 
z
" clip-path="url(#pc80e06c9d8)" style="stroke: #000000; stroke-linejoin: miter"/>
   </g>
   <g id="patch_125">
    <path d="M 232.120954 107.813871 
L 239.404551 107.813871 
L 239.404551 100.53027 
L 232.120954 100.53027 
z
" clip-path="url(#pc80e06c9d8)" style="stroke: #000000; stroke-linejoin: miter"/>
   </g>
   <g id="patch_126">
    <path d="M 245.358614 107.821731 
L 252.657938 107.821731 
L 252.657938 100.522407 
L 245.358614 100.522407 
z
" clip-path="url(#pc80e06c9d8)" style="stroke: #000000; stroke-linejoin: miter"/>
   </g>
   <g id="patch_127">
    <path d="M 258.624064 107.801798 
L 265.883522 107.801798 
L 265.883522 100.54234 
L 258.624064 100.54234 
z
" clip-path="url(#pc80e06c9d8)" style="stroke: #000000; stroke-linejoin: miter"/>
   </g>
   <g id="patch_128">
    <path d="M 271.885094 107.786289 
L 279.113527 107.786289 
L 279.113527 100.557846 
L 271.885094 100.557846 
z
" clip-path="url(#pc80e06c9d8)" style="stroke: #000000; stroke-linejoin: miter"/>
   </g>
   <g id="patch_129">
    <path d="M 285.121187 107.7957 
L 292.368442 107.7957 
L 292.368442 100.548441 
L 285.121187 100.548441 
z
" clip-path="url(#pc80e06c9d8)" style="stroke: #000000; stroke-linejoin: miter"/>
   </g>
   <g id="patch_130">
    <path d="M 298.365669 107.796748 
L 305.615021 107.796748 
L 305.615021 100.547393 
L 298.365669 100.547393 
z
" clip-path="url(#pc80e06c9d8)" style="stroke: #000000; stroke-linejoin: miter"/>
   </g>
   <g id="patch_131">
    <path d="M 311.61682 107.791105 
L 318.854904 107.791105 
L 318.854904 100.553033 
L 311.61682 100.553033 
z
" clip-path="url(#pc80e06c9d8)" style="stroke: #000000; stroke-linejoin: miter"/>
   </g>
   <g id="patch_132">
    <path d="M 324.878607 107.774841 
L 332.084152 107.774841 
L 332.084152 100.569297 
L 324.878607 100.569297 
z
" clip-path="url(#pc80e06c9d8)" style="stroke: #000000; stroke-linejoin: miter"/>
   </g>
   <g id="patch_133">
    <path d="M 338.125388 107.773572 
L 345.328406 107.773572 
L 345.328406 100.570566 
L 338.125388 100.570566 
z
" clip-path="url(#pc80e06c9d8)" style="stroke: #000000; stroke-linejoin: miter"/>
   </g>
   <g id="patch_134">
    <path d="M 351.376008 107.768478 
L 358.56882 107.768478 
L 358.56882 100.575663 
L 351.376008 100.575663 
z
" clip-path="url(#pc80e06c9d8)" style="stroke: #000000; stroke-linejoin: miter"/>
   </g>
   <g id="patch_135">
    <path d="M 364.627993 107.762017 
L 371.807894 107.762017 
L 371.807894 100.582124 
L 364.627993 100.582124 
z
" clip-path="url(#pc80e06c9d8)" style="stroke: #000000; stroke-linejoin: miter"/>
   </g>
   <g id="patch_136">
    <path d="M 377.883666 107.751864 
L 385.043256 107.751864 
L 385.043256 100.592274 
L 377.883666 100.592274 
z
" clip-path="url(#pc80e06c9d8)" style="stroke: #000000; stroke-linejoin: miter"/>
   </g>
   <g id="patch_137">
    <path d="M 391.131204 107.749843 
L 398.286752 107.749843 
L 398.286752 100.594295 
L 391.131204 100.594295 
z
" clip-path="url(#pc80e06c9d8)" style="stroke: #000000; stroke-linejoin: miter"/>
   </g>
   <g id="patch_138">
    <path d="M 45.436467 95.8156 
L 55.214567 95.8156 
L 55.214567 86.037497 
L 45.436467 86.037497 
z
" clip-path="url(#pc80e06c9d8)" style="stroke: #000000; stroke-linejoin: miter"/>
   </g>
   <g id="patch_139">
    <path d="M 59.680334 94.817249 
L 67.461735 94.817249 
L 67.461735 87.035848 
L 59.680334 87.035848 
z
" clip-path="url(#pc80e06c9d8)" style="stroke: #000000; stroke-linejoin: miter"/>
   </g>
   <g id="patch_140">
    <path d="M 73.032881 94.710226 
L 80.600222 94.710226 
L 80.600222 87.142884 
L 73.032881 87.142884 
z
" clip-path="url(#pc80e06c9d8)" style="stroke: #000000; stroke-linejoin: miter"/>
   </g>
   <g id="patch_141">
    <path d="M 86.36001 94.628611 
L 93.764128 94.628611 
L 93.764128 87.224493 
L 86.36001 87.224493 
z
" clip-path="url(#pc80e06c9d8)" style="stroke: #000000; stroke-linejoin: miter"/>
   </g>
   <g id="patch_142">
    <path d="M 99.619024 94.615114 
L 106.996148 94.615114 
L 106.996148 87.23799 
L 99.619024 87.23799 
z
" clip-path="url(#pc80e06c9d8)" style="stroke: #000000; stroke-linejoin: miter"/>
   </g>
   <g id="patch_143">
    <path d="M 112.854474 94.625181 
L 120.251733 94.625181 
L 120.251733 87.227922 
L 112.854474 87.227922 
z
" clip-path="url(#pc80e06c9d8)" style="stroke: #000000; stroke-linejoin: miter"/>
   </g>
   <g id="patch_144">
    <path d="M 126.094894 94.630278 
L 133.502341 94.630278 
L 133.502341 87.222832 
L 126.094894 87.222832 
z
" clip-path="url(#pc80e06c9d8)" style="stroke: #000000; stroke-linejoin: miter"/>
   </g>
   <g id="patch_145">
    <path d="M 139.336786 94.633904 
L 146.751496 94.633904 
L 146.751496 87.219194 
L 139.336786 87.219194 
z
" clip-path="url(#pc80e06c9d8)" style="stroke: #000000; stroke-linejoin: miter"/>
   </g>
   <g id="patch_146">
    <path d="M 152.571964 94.644243 
L 160.007352 94.644243 
L 160.007352 87.208861 
L 152.571964 87.208861 
z
" clip-path="url(#pc80e06c9d8)" style="stroke: #000000; stroke-linejoin: miter"/>
   </g>
   <g id="patch_147">
    <path d="M 165.775247 94.686478 
L 173.295086 94.686478 
L 173.295086 87.166632 
L 165.775247 87.166632 
z
" clip-path="url(#pc80e06c9d8)" style="stroke: #000000; stroke-linejoin: miter"/>
   </g>
   <g id="patch_148">
    <path d="M 179.051939 94.655302 
L 186.509427 94.655302 
L 186.509427 87.197808 
L 179.051939 87.197808 
z
" clip-path="url(#pc80e06c9d8)" style="stroke: #000000; stroke-linejoin: miter"/>
   </g>
   <g id="patch_149">
    <path d="M 192.281212 94.671547 
L 199.771202 94.671547 
L 199.771202 87.181551 
L 192.281212 87.181551 
z
" clip-path="url(#pc80e06c9d8)" style="stroke: #000000; stroke-linejoin: miter"/>
   </g>
   <g id="patch_150">
    <path d="M 205.573808 94.624461 
L 212.969627 94.624461 
L 212.969627 87.228642 
L 205.573808 87.228642 
z
" clip-path="url(#pc80e06c9d8)" style="stroke: #000000; stroke-linejoin: miter"/>
   </g>
   <g id="patch_151">
    <path d="M 218.856615 94.587184 
L 226.17788 94.587184 
L 226.17788 87.265919 
L 218.856615 87.265919 
z
" clip-path="url(#pc80e06c9d8)" style="stroke: #000000; stroke-linejoin: miter"/>
   </g>
   <g id="patch_152">
    <path d="M 232.112579 94.576725 
L 239.412926 94.576725 
L 239.412926 87.276378 
L 232.112579 87.276378 
z
" clip-path="url(#pc80e06c9d8)" style="stroke: #000000; stroke-linejoin: miter"/>
   </g>
   <g id="patch_153">
    <path d="M 245.356744 94.578089 
L 252.65982 94.578089 
L 252.65982 87.275014 
L 245.356744 87.275014 
z
" clip-path="url(#pc80e06c9d8)" style="stroke: #000000; stroke-linejoin: miter"/>
   </g>
   <g id="patch_154">
    <path d="M 258.619428 94.560916 
L 265.888145 94.560916 
L 265.888145 87.292193 
L 258.619428 87.292193 
z
" clip-path="url(#pc80e06c9d8)" style="stroke: #000000; stroke-linejoin: miter"/>
   </g>
   <g id="patch_155">
    <path d="M 271.90245 94.523419 
L 279.096196 94.523419 
L 279.096196 87.329685 
L 271.90245 87.329685 
z
" clip-path="url(#pc80e06c9d8)" style="stroke: #000000; stroke-linejoin: miter"/>
   </g>
   <g id="patch_156">
    <path d="M 285.127807 94.543579 
L 292.361849 94.543579 
L 292.361849 87.309524 
L 285.127807 87.309524 
z
" clip-path="url(#pc80e06c9d8)" style="stroke: #000000; stroke-linejoin: miter"/>
   </g>
   <g id="patch_157">
    <path d="M 298.368448 94.548461 
L 305.612267 94.548461 
L 305.612267 87.304648 
L 298.368448 87.304648 
z
" clip-path="url(#pc80e06c9d8)" style="stroke: #000000; stroke-linejoin: miter"/>
   </g>
   <g id="patch_158">
    <path d="M 311.624323 94.538103 
L 318.847426 94.538103 
L 318.847426 87.315007 
L 311.624323 87.315007 
z
" clip-path="url(#pc80e06c9d8)" style="stroke: #000000; stroke-linejoin: miter"/>
   </g>
   <g id="patch_159">
    <path d="M 324.907635 94.500283 
L 332.055098 94.500283 
L 332.055098 87.352814 
L 324.907635 87.352814 
z
" clip-path="url(#pc80e06c9d8)" style="stroke: #000000; stroke-linejoin: miter"/>
   </g>
   <g id="patch_160">
    <path d="M 338.165456 94.487992 
L 345.288337 94.487992 
L 345.288337 87.365117 
L 338.165456 87.365117 
z
" clip-path="url(#pc80e06c9d8)" style="stroke: #000000; stroke-linejoin: miter"/>
   </g>
   <g id="patch_161">
    <path d="M 351.421508 94.477457 
L 358.523319 94.477457 
L 358.523319 87.375646 
L 351.421508 87.375646 
z
" clip-path="url(#pc80e06c9d8)" style="stroke: #000000; stroke-linejoin: miter"/>
   </g>
   <g id="patch_162">
    <path d="M 364.662276 94.482201 
L 371.773586 94.482201 
L 371.773586 87.370897 
L 364.662276 87.370897 
z
" clip-path="url(#pc80e06c9d8)" style="stroke: #000000; stroke-linejoin: miter"/>
   </g>
   <g id="patch_163">
    <path d="M 377.933057 94.456956 
L 384.993865 94.456956 
L 384.993865 87.396154 
L 377.933057 87.396154 
z
" clip-path="url(#pc80e06c9d8)" style="stroke: #000000; stroke-linejoin: miter"/>
   </g>
   <g id="patch_164">
    <path d="M 391.185067 94.450457 
L 398.232889 94.450457 
L 398.232889 87.402647 
L 391.185067 87.402647 
z
" clip-path="url(#pc80e06c9d8)" style="stroke: #000000; stroke-linejoin: miter"/>
   </g>
   <g id="patch_165">
    <path d="M 45.234118 82.772433 
L 55.416917 82.772433 
L 55.416917 72.589636 
L 45.234118 72.589636 
z
" clip-path="url(#pc80e06c9d8)" style="stroke: #000000; stroke-linejoin: miter"/>
   </g>
   <g id="patch_166">
    <path d="M 60.122722 81.129344 
L 67.019347 81.129344 
L 67.019347 74.232719 
L 60.122722 74.232719 
z
" clip-path="url(#pc80e06c9d8)" style="stroke: #000000; stroke-linejoin: miter"/>
   </g>
   <g id="patch_167">
    <path d="M 73.650468 80.847122 
L 79.982636 80.847122 
L 79.982636 74.514954 
L 73.650468 74.514954 
z
" clip-path="url(#pc80e06c9d8)" style="stroke: #000000; stroke-linejoin: miter"/>
   </g>
   <g id="patch_168">
    <path d="M 86.84247 80.900637 
L 93.281668 80.900637 
L 93.281668 74.461439 
L 86.84247 74.461439 
z
" clip-path="url(#pc80e06c9d8)" style="stroke: #000000; stroke-linejoin: miter"/>
   </g>
   <g id="patch_169">
    <path d="M 100.213706 80.774918 
L 106.401469 80.774918 
L 106.401469 74.587158 
L 100.213706 74.587158 
z
" clip-path="url(#pc80e06c9d8)" style="stroke: #000000; stroke-linejoin: miter"/>
   </g>
   <g id="patch_170">
    <path d="M 113.434809 80.799329 
L 119.671404 80.799329 
L 119.671404 74.562734 
L 113.434809 74.562734 
z
" clip-path="url(#pc80e06c9d8)" style="stroke: #000000; stroke-linejoin: miter"/>
   </g>
   <g id="patch_171">
    <path d="M 126.664909 80.814746 
L 132.932332 80.814746 
L 132.932332 74.547323 
L 126.664909 74.547323 
z
" clip-path="url(#pc80e06c9d8)" style="stroke: #000000; stroke-linejoin: miter"/>
   </g>
   <g id="patch_172">
    <path d="M 139.863278 80.861895 
L 146.224992 80.861895 
L 146.224992 74.500181 
L 139.863278 74.500181 
z
" clip-path="url(#pc80e06c9d8)" style="stroke: #000000; stroke-linejoin: miter"/>
   </g>
   <g id="patch_173">
    <path d="M 153.155982 80.814708 
L 159.423329 80.814708 
L 159.423329 74.547361 
L 153.155982 74.547361 
z
" clip-path="url(#pc80e06c9d8)" style="stroke: #000000; stroke-linejoin: miter"/>
   </g>
   <g id="patch_174">
    <path d="M 166.422948 80.793253 
L 172.647384 80.793253 
L 172.647384 74.568816 
L 166.422948 74.568816 
z
" clip-path="url(#pc80e06c9d8)" style="stroke: #000000; stroke-linejoin: miter"/>
   </g>
   <g id="patch_175">
    <path d="M 179.737903 80.723821 
L 185.823477 80.723821 
L 185.823477 74.638247 
L 179.737903 74.638247 
z
" clip-path="url(#pc80e06c9d8)" style="stroke: #000000; stroke-linejoin: miter"/>
   </g>
   <g id="patch_176">
    <path d="M 192.904584 80.802651 
L 199.147817 80.802651 
L 199.147817 74.559418 
L 192.904584 74.559418 
z
" clip-path="url(#pc80e06c9d8)" style="stroke: #000000; stroke-linejoin: miter"/>
   </g>
   <g id="patch_177">
    <path d="M 206.229442 80.723316 
L 212.314006 80.723316 
L 212.314006 74.638759 
L 206.229442 74.638759 
z
" clip-path="url(#pc80e06c9d8)" style="stroke: #000000; stroke-linejoin: miter"/>
   </g>
   <g id="patch_178">
    <path d="M 219.487819 80.710457 
L 225.546664 80.710457 
L 225.546664 74.651612 
L 219.487819 74.651612 
z
" clip-path="url(#pc80e06c9d8)" style="stroke: #000000; stroke-linejoin: miter"/>
   </g>
   <g id="patch_179">
    <path d="M 232.726048 80.717746 
L 238.79947 80.717746 
L 238.79947 74.64433 
L 232.726048 74.64433 
z
" clip-path="url(#pc80e06c9d8)" style="stroke: #000000; stroke-linejoin: miter"/>
   </g>
   <g id="patch_180">
    <path d="M 245.979586 80.709718 
L 252.036953 80.709718 
L 252.036953 74.652351 
L 245.979586 74.652351 
z
" clip-path="url(#pc80e06c9d8)" style="stroke: #000000; stroke-linejoin: miter"/>
   </g>
   <g id="patch_181">
    <path d="M 259.261281 80.67354 
L 265.246292 80.67354 
L 265.246292 74.688529 
L 259.261281 74.688529 
z
" clip-path="url(#pc80e06c9d8)" style="stroke: #000000; stroke-linejoin: miter"/>
   </g>
   <g id="patch_182">
    <path d="M 272.522424 80.657908 
L 278.476171 80.657908 
L 278.476171 74.704161 
L 272.522424 74.704161 
z
" clip-path="url(#pc80e06c9d8)" style="stroke: #000000; stroke-linejoin: miter"/>
   </g>
   <g id="patch_183">
    <path d="M 285.801694 80.624168 
L 291.687961 80.624168 
L 291.687961 74.737901 
L 285.801694 74.737901 
z
" clip-path="url(#pc80e06c9d8)" style="stroke: #000000; stroke-linejoin: miter"/>
   </g>
   <g id="patch_184">
    <path d="M 299.055396 80.615989 
L 304.925293 80.615989 
L 304.925293 74.74608 
L 299.055396 74.74608 
z
" clip-path="url(#pc80e06c9d8)" style="stroke: #000000; stroke-linejoin: miter"/>
   </g>
   <g id="patch_185">
    <path d="M 312.323222 80.593688 
L 318.148528 80.593688 
L 318.148528 74.768388 
L 312.323222 74.768388 
z
" clip-path="url(#pc80e06c9d8)" style="stroke: #000000; stroke-linejoin: miter"/>
   </g>
   <g id="patch_186">
    <path d="M 325.593674 80.568746 
L 331.369084 80.568746 
L 331.369084 74.793323 
L 325.593674 74.793323 
z
" clip-path="url(#pc80e06c9d8)" style="stroke: #000000; stroke-linejoin: miter"/>
   </g>
   <g id="patch_187">
    <path d="M 338.870241 80.537684 
L 344.583552 80.537684 
L 344.583552 74.824385 
L 338.870241 74.824385 
z
" clip-path="url(#pc80e06c9d8)" style="stroke: #000000; stroke-linejoin: miter"/>
   </g>
   <g id="patch_188">
    <path d="M 352.160323 80.493125 
L 357.784504 80.493125 
L 357.784504 74.868938 
L 352.160323 74.868938 
z
" clip-path="url(#pc80e06c9d8)" style="stroke: #000000; stroke-linejoin: miter"/>
   </g>
   <g id="patch_189">
    <path d="M 365.404274 80.494691 
L 371.031588 80.494691 
L 371.031588 74.867378 
L 365.404274 74.867378 
z
" clip-path="url(#pc80e06c9d8)" style="stroke: #000000; stroke-linejoin: miter"/>
   </g>
   <g id="patch_190">
    <path d="M 378.728589 80.415893 
L 384.198307 80.415893 
L 384.198307 74.946176 
L 378.728589 74.946176 
z
" clip-path="url(#pc80e06c9d8)" style="stroke: #000000; stroke-linejoin: miter"/>
   </g>
   <g id="patch_191">
    <path d="M 391.992271 80.397722 
L 397.42566 80.397722 
L 397.42566 74.964347 
L 391.992271 74.964347 
z
" clip-path="url(#pc80e06c9d8)" style="stroke: #000000; stroke-linejoin: miter"/>
   </g>
   <g id="patch_192">
    <path d="M 45.483599 69.277436 
L 55.167436 69.277436 
L 55.167436 59.593599 
L 45.483599 59.593599 
z
" clip-path="url(#pc80e06c9d8)" style="stroke: #000000; stroke-linejoin: miter"/>
   </g>
   <g id="patch_193">
    <path d="M 60.25566 67.750888 
L 66.886409 67.750888 
L 66.886409 61.12014 
L 60.25566 61.12014 
z
" clip-path="url(#pc80e06c9d8)" style="stroke: #000000; stroke-linejoin: miter"/>
   </g>
   <g id="patch_194">
    <path d="M 73.662599 67.589471 
L 79.970503 67.589471 
L 79.970503 61.281569 
L 73.662599 61.281569 
z
" clip-path="url(#pc80e06c9d8)" style="stroke: #000000; stroke-linejoin: miter"/>
   </g>
   <g id="patch_195">
    <path d="M 86.900883 67.596703 
L 93.223252 67.596703 
L 93.223252 61.274331 
L 86.900883 61.274331 
z
" clip-path="url(#pc80e06c9d8)" style="stroke: #000000; stroke-linejoin: miter"/>
   </g>
   <g id="patch_196">
    <path d="M 100.184078 67.559028 
L 106.431097 67.559028 
L 106.431097 61.312012 
L 100.184078 61.312012 
z
" clip-path="url(#pc80e06c9d8)" style="stroke: #000000; stroke-linejoin: miter"/>
   </g>
   <g id="patch_197">
    <path d="M 113.443683 67.544938 
L 119.662517 67.544938 
L 119.662517 61.326103 
L 113.443683 61.326103 
z
" clip-path="url(#pc80e06c9d8)" style="stroke: #000000; stroke-linejoin: miter"/>
   </g>
   <g id="patch_198">
    <path d="M 126.687893 67.546245 
L 132.909355 67.546245 
L 132.909355 61.324783 
L 126.687893 61.324783 
z
" clip-path="url(#pc80e06c9d8)" style="stroke: #000000; stroke-linejoin: miter"/>
   </g>
   <g id="patch_199">
    <path d="M 139.939088 67.540567 
L 146.149188 67.540567 
L 146.149188 61.330468 
L 139.939088 61.330468 
z
" clip-path="url(#pc80e06c9d8)" style="stroke: #000000; stroke-linejoin: miter"/>
   </g>
   <g id="patch_200">
    <path d="M 153.196846 67.528327 
L 159.382465 67.528327 
L 159.382465 61.342702 
L 153.196846 61.342702 
z
" clip-path="url(#pc80e06c9d8)" style="stroke: #000000; stroke-linejoin: miter"/>
   </g>
   <g id="patch_201">
    <path d="M 166.433698 67.536998 
L 172.63666 67.536998 
L 172.63666 61.334042 
L 166.433698 61.334042 
z
" clip-path="url(#pc80e06c9d8)" style="stroke: #000000; stroke-linejoin: miter"/>
   </g>
   <g id="patch_202">
    <path d="M 179.702483 67.513724 
L 185.858897 67.513724 
L 185.858897 61.35731 
L 179.702483 61.35731 
z
" clip-path="url(#pc80e06c9d8)" style="stroke: #000000; stroke-linejoin: miter"/>
   </g>
   <g id="patch_203">
    <path d="M 192.926235 67.535483 
L 199.126166 67.535483 
L 199.126166 61.335546 
L 192.926235 61.335546 
z
" clip-path="url(#pc80e06c9d8)" style="stroke: #000000; stroke-linejoin: miter"/>
   </g>
   <g id="patch_204">
    <path d="M 206.197661 67.509587 
L 212.3458 67.509587 
L 212.3458 61.361454 
L 206.197661 61.361454 
z
" clip-path="url(#pc80e06c9d8)" style="stroke: #000000; stroke-linejoin: miter"/>
   </g>
   <g id="patch_205">
    <path d="M 219.447763 67.505002 
L 225.586732 67.505002 
L 225.586732 61.366039 
L 219.447763 61.366039 
z
" clip-path="url(#pc80e06c9d8)" style="stroke: #000000; stroke-linejoin: miter"/>
   </g>
   <g id="patch_206">
    <path d="M 232.664088 67.534194 
L 238.861442 67.534194 
L 238.861442 61.33684 
L 232.664088 61.33684 
z
" clip-path="url(#pc80e06c9d8)" style="stroke: #000000; stroke-linejoin: miter"/>
   </g>
   <g id="patch_207">
    <path d="M 245.919395 67.524404 
L 252.097169 67.524404 
L 252.097169 61.34663 
L 245.919395 61.34663 
z
" clip-path="url(#pc80e06c9d8)" style="stroke: #000000; stroke-linejoin: miter"/>
   </g>
   <g id="patch_208">
    <path d="M 259.180424 67.50888 
L 265.327162 67.50888 
L 265.327162 61.362148 
L 259.180424 61.362148 
z
" clip-path="url(#pc80e06c9d8)" style="stroke: #000000; stroke-linejoin: miter"/>
   </g>
   <g id="patch_209">
    <path d="M 272.439205 67.495629 
L 278.559441 67.495629 
L 278.559441 61.375406 
L 272.439205 61.375406 
z
" clip-path="url(#pc80e06c9d8)" style="stroke: #000000; stroke-linejoin: miter"/>
   </g>
   <g id="patch_210">
    <path d="M 285.685253 67.495105 
L 291.804428 67.495105 
L 291.804428 61.375936 
L 285.685253 61.375936 
z
" clip-path="url(#pc80e06c9d8)" style="stroke: #000000; stroke-linejoin: miter"/>
   </g>
   <g id="patch_211">
    <path d="M 298.919502 67.506366 
L 305.061213 67.506366 
L 305.061213 61.364662 
L 298.919502 61.364662 
z
" clip-path="url(#pc80e06c9d8)" style="stroke: #000000; stroke-linejoin: miter"/>
   </g>
   <g id="patch_212">
    <path d="M 312.180759 67.490614 
L 318.29094 67.490614 
L 318.29094 61.380427 
L 312.180759 61.380427 
z
" clip-path="url(#pc80e06c9d8)" style="stroke: #000000; stroke-linejoin: miter"/>
   </g>
   <g id="patch_213">
    <path d="M 325.44583 67.47106 
L 331.516928 67.47106 
L 331.516928 61.399968 
L 325.44583 61.399968 
z
" clip-path="url(#pc80e06c9d8)" style="stroke: #000000; stroke-linejoin: miter"/>
   </g>
   <g id="patch_214">
    <path d="M 338.697032 67.465388 
L 344.756761 67.465388 
L 344.756761 61.405646 
L 338.697032 61.405646 
z
" clip-path="url(#pc80e06c9d8)" style="stroke: #000000; stroke-linejoin: miter"/>
   </g>
   <g id="patch_215">
    <path d="M 351.949143 67.458782 
L 357.995659 67.458782 
L 357.995659 61.412253 
L 351.949143 61.412253 
z
" clip-path="url(#pc80e06c9d8)" style="stroke: #000000; stroke-linejoin: miter"/>
   </g>
   <g id="patch_216">
    <path d="M 365.197136 67.456318 
L 371.238726 67.456318 
L 371.238726 61.414716 
L 365.197136 61.414716 
z
" clip-path="url(#pc80e06c9d8)" style="stroke: #000000; stroke-linejoin: miter"/>
   </g>
   <g id="patch_217">
    <path d="M 378.463597 67.435362 
L 384.463299 67.435362 
L 384.463299 61.435666 
L 378.463597 61.435666 
z
" clip-path="url(#pc80e06c9d8)" style="stroke: #000000; stroke-linejoin: miter"/>
   </g>
   <g id="patch_218">
    <path d="M 391.728315 67.416155 
L 397.689591 67.416155 
L 397.689591 61.454879 
L 391.728315 61.454879 
z
" clip-path="url(#pc80e06c9d8)" style="stroke: #000000; stroke-linejoin: miter"/>
   </g>
   <g id="patch_219">
    <path d="M 45.179765 56.335754 
L 55.47127 56.335754 
L 55.47127 46.044253 
L 45.179765 46.044253 
z
" clip-path="url(#pc80e06c9d8)" style="stroke: #000000; stroke-linejoin: miter"/>
   </g>
   <g id="patch_220">
    <path d="M 58.962764 55.798272 
L 68.179304 55.798272 
L 68.179304 46.581728 
L 58.962764 46.581728 
z
" clip-path="url(#pc80e06c9d8)" style="stroke: #000000; stroke-linejoin: miter"/>
   </g>
   <g id="patch_221">
    <path d="M 72.269982 55.736572 
L 81.36312 55.736572 
L 81.36312 46.643435 
L 72.269982 46.643435 
z
" clip-path="url(#pc80e06c9d8)" style="stroke: #000000; stroke-linejoin: miter"/>
   </g>
   <g id="patch_222">
    <path d="M 85.60195 55.650119 
L 94.522188 55.650119 
L 94.522188 46.729875 
L 85.60195 46.729875 
z
" clip-path="url(#pc80e06c9d8)" style="stroke: #000000; stroke-linejoin: miter"/>
   </g>
   <g id="patch_223">
    <path d="M 98.880187 55.617402 
L 107.734988 55.617402 
L 107.734988 46.762604 
L 98.880187 46.762604 
z
" clip-path="url(#pc80e06c9d8)" style="stroke: #000000; stroke-linejoin: miter"/>
   </g>
   <g id="patch_224">
    <path d="M 112.161355 55.581749 
L 120.944858 55.581749 
L 120.944858 46.798251 
L 112.161355 46.798251 
z
" clip-path="url(#pc80e06c9d8)" style="stroke: #000000; stroke-linejoin: miter"/>
   </g>
   <g id="patch_225">
    <path d="M 125.484059 55.504561 
L 134.113182 55.504561 
L 134.113182 46.875432 
L 125.484059 46.875432 
z
" clip-path="url(#pc80e06c9d8)" style="stroke: #000000; stroke-linejoin: miter"/>
   </g>
   <g id="patch_226">
    <path d="M 139.008388 55.22575 
L 147.079894 55.22575 
L 147.079894 47.154244 
L 139.008388 47.154244 
z
" clip-path="url(#pc80e06c9d8)" style="stroke: #000000; stroke-linejoin: miter"/>
   </g>
   <g id="patch_227">
    <path d="M 152.609525 54.87013 
L 159.969785 54.87013 
L 159.969785 47.50987 
L 152.609525 47.50987 
z
" clip-path="url(#pc80e06c9d8)" style="stroke: #000000; stroke-linejoin: miter"/>
   </g>
   <g id="patch_228">
    <path d="M 166.033531 54.691641 
L 173.036814 54.691641 
L 173.036814 47.688359 
L 166.033531 47.688359 
z
" clip-path="url(#pc80e06c9d8)" style="stroke: #000000; stroke-linejoin: miter"/>
   </g>
   <g id="patch_229">
    <path d="M 179.367775 54.602915 
L 186.193604 54.602915 
L 186.193604 47.777085 
L 179.367775 47.777085 
z
" clip-path="url(#pc80e06c9d8)" style="stroke: #000000; stroke-linejoin: miter"/>
   </g>
   <g id="patch_230">
    <path d="M 192.651504 54.564709 
L 199.400923 54.564709 
L 199.400923 47.815297 
L 192.651504 47.815297 
z
" clip-path="url(#pc80e06c9d8)" style="stroke: #000000; stroke-linejoin: miter"/>
   </g>
   <g id="patch_231">
    <path d="M 205.924761 54.536963 
L 212.618688 54.536963 
L 212.618688 47.843037 
L 205.924761 47.843037 
z
" clip-path="url(#pc80e06c9d8)" style="stroke: #000000; stroke-linejoin: miter"/>
   </g>
   <g id="patch_232">
    <path d="M 219.180346 54.526896 
L 225.854137 54.526896 
L 225.854137 47.853104 
L 219.180346 47.853104 
z
" clip-path="url(#pc80e06c9d8)" style="stroke: #000000; stroke-linejoin: miter"/>
   </g>
   <g id="patch_233">
    <path d="M 232.441994 54.510771 
L 239.083536 54.510771 
L 239.083536 47.869235 
L 232.441994 47.869235 
z
" clip-path="url(#pc80e06c9d8)" style="stroke: #000000; stroke-linejoin: miter"/>
   </g>
   <g id="patch_234">
    <path d="M 245.714708 54.483568 
L 252.301844 54.483568 
L 252.301844 47.896432 
L 245.714708 47.896432 
z
" clip-path="url(#pc80e06c9d8)" style="stroke: #000000; stroke-linejoin: miter"/>
   </g>
   <g id="patch_235">
    <path d="M 258.965922 54.477871 
L 265.541652 54.477871 
L 265.541652 47.902129 
L 258.965922 47.902129 
z
" clip-path="url(#pc80e06c9d8)" style="stroke: #000000; stroke-linejoin: miter"/>
   </g>
   <g id="patch_236">
    <path d="M 272.233962 54.455342 
L 278.764634 54.455342 
L 278.764634 47.924664 
L 272.233962 47.924664 
z
" clip-path="url(#pc80e06c9d8)" style="stroke: #000000; stroke-linejoin: miter"/>
   </g>
   <g id="patch_237">
    <path d="M 285.489989 54.444845 
L 291.999666 54.444845 
L 291.999666 47.935161 
L 285.489989 47.935161 
z
" clip-path="url(#pc80e06c9d8)" style="stroke: #000000; stroke-linejoin: miter"/>
   </g>
   <g id="patch_238">
    <path d="M 298.75357 54.426775 
L 305.22712 54.426775 
L 305.22712 47.953225 
L 298.75357 47.953225 
z
" clip-path="url(#pc80e06c9d8)" style="stroke: #000000; stroke-linejoin: miter"/>
   </g>
   <g id="patch_239">
    <path d="M 312.015281 54.410581 
L 318.456443 54.410581 
L 318.456443 47.969419 
L 312.015281 47.969419 
z
" clip-path="url(#pc80e06c9d8)" style="stroke: #000000; stroke-linejoin: miter"/>
   </g>
   <g id="patch_240">
    <path d="M 325.2849 54.386479 
L 331.677859 54.386479 
L 331.677859 47.993521 
L 325.2849 47.993521 
z
" clip-path="url(#pc80e06c9d8)" style="stroke: #000000; stroke-linejoin: miter"/>
   </g>
   <g id="patch_241">
    <path d="M 338.547698 54.369193 
L 344.90607 54.369193 
L 344.90607 48.010814 
L 338.547698 48.010814 
z
" clip-path="url(#pc80e06c9d8)" style="stroke: #000000; stroke-linejoin: miter"/>
   </g>
   <g id="patch_242">
    <path d="M 351.807388 54.35502 
L 358.13744 54.35502 
L 358.13744 48.024974 
L 351.807388 48.024974 
z
" clip-path="url(#pc80e06c9d8)" style="stroke: #000000; stroke-linejoin: miter"/>
   </g>
   <g id="patch_243">
    <path d="M 365.045048 54.362877 
L 371.390789 54.362877 
L 371.390789 48.01713 
L 365.045048 48.01713 
z
" clip-path="url(#pc80e06c9d8)" style="stroke: #000000; stroke-linejoin: miter"/>
   </g>
   <g id="patch_244">
    <path d="M 378.329926 54.323528 
L 384.596996 54.323528 
L 384.596996 48.056465 
L 378.329926 48.056465 
z
" clip-path="url(#pc80e06c9d8)" style="stroke: #000000; stroke-linejoin: miter"/>
   </g>
   <g id="patch_245">
    <path d="M 391.642064 54.256908 
L 397.775867 54.256908 
L 397.775867 48.123099 
L 391.642064 48.123099 
z
" clip-path="url(#pc80e06c9d8)" style="stroke: #000000; stroke-linejoin: miter"/>
   </g>
   <g id="matplotlib.axis_1">
    <g id="xtick_1">
     <g id="line2d_1">
      <defs>
       <path id="mc200e0e663" d="M 0 0 
L 0 3.5 
" style="stroke: #000000; stroke-width: 0.8"/>
      </defs>
      <g>
       <use xlink:href="#mc200e0e663" x="50.325517" y="170.399655" style="stroke: #000000; stroke-width: 0.8"/>
      </g>
     </g>
     <g id="text_1">
      <!-- 1 -->
      <g transform="translate(47.144267 191.498093) scale(0.1 -0.1)">
       <defs>
        <path id="DejaVuSans-31" d="M 794 531 
L 1825 531 
L 1825 4091 
L 703 3866 
L 703 4441 
L 1819 4666 
L 2450 4666 
L 2450 531 
L 3481 531 
L 3481 0 
L 794 0 
L 794 531 
z
" transform="scale(0.015625)"/>
       </defs>
       <use xlink:href="#DejaVuSans-31"/>
      </g>
     </g>
    </g>
    <g id="xtick_2">
     <g id="line2d_2">
      <g>
       <use xlink:href="#mc200e0e663" x="394.708966" y="170.399655" style="stroke: #000000; stroke-width: 0.8"/>
      </g>
     </g>
     <g id="text_2">
      <!-- 500 -->
      <g transform="translate(385.165216 191.498093) scale(0.1 -0.1)">
       <defs>
        <path id="DejaVuSans-35" d="M 691 4666 
L 3169 4666 
L 3169 4134 
L 1269 4134 
L 1269 2991 
Q 1406 3038 1543 3061 
Q 1681 3084 1819 3084 
Q 2600 3084 3056 2656 
Q 3513 2228 3513 1497 
Q 3513 744 3044 326 
Q 2575 -91 1722 -91 
Q 1428 -91 1123 -41 
Q 819 9 494 109 
L 494 744 
Q 775 591 1075 516 
Q 1375 441 1709 441 
Q 2250 441 2565 725 
Q 2881 1009 2881 1497 
Q 2881 1984 2565 2268 
Q 2250 2553 1709 2553 
Q 1456 2553 1204 2497 
Q 953 2441 691 2322 
L 691 4666 
z
" transform="scale(0.015625)"/>
        <path id="DejaVuSans-30" d="M 2034 4250 
Q 1547 4250 1301 3770 
Q 1056 3291 1056 2328 
Q 1056 1369 1301 889 
Q 1547 409 2034 409 
Q 2525 409 2770 889 
Q 3016 1369 3016 2328 
Q 3016 3291 2770 3770 
Q 2525 4250 2034 4250 
z
M 2034 4750 
Q 2819 4750 3233 4129 
Q 3647 3509 3647 2328 
Q 3647 1150 3233 529 
Q 2819 -91 2034 -91 
Q 1250 -91 836 529 
Q 422 1150 422 2328 
Q 422 3509 836 4129 
Q 1250 4750 2034 4750 
z
" transform="scale(0.015625)"/>
       </defs>
       <use xlink:href="#DejaVuSans-35"/>
       <use xlink:href="#DejaVuSans-30" x="63.623047"/>
       <use xlink:href="#DejaVuSans-30" x="127.246094"/>
      </g>
     </g>
    </g>
    <g id="text_3">
     <!-- Epoch -->
     <g transform="translate(213.829062 205.176218) scale(0.1 -0.1)">
      <defs>
       <path id="DejaVuSans-45" d="M 628 4666 
L 3578 4666 
L 3578 4134 
L 1259 4134 
L 1259 2753 
L 3481 2753 
L 3481 2222 
L 1259 2222 
L 1259 531 
L 3634 531 
L 3634 0 
L 628 0 
L 628 4666 
z
" transform="scale(0.015625)"/>
       <path id="DejaVuSans-70" d="M 1159 525 
L 1159 -1331 
L 581 -1331 
L 581 3500 
L 1159 3500 
L 1159 2969 
Q 1341 3281 1617 3432 
Q 1894 3584 2278 3584 
Q 2916 3584 3314 3078 
Q 3713 2572 3713 1747 
Q 3713 922 3314 415 
Q 2916 -91 2278 -91 
Q 1894 -91 1617 61 
Q 1341 213 1159 525 
z
M 3116 1747 
Q 3116 2381 2855 2742 
Q 2594 3103 2138 3103 
Q 1681 3103 1420 2742 
Q 1159 2381 1159 1747 
Q 1159 1113 1420 752 
Q 1681 391 2138 391 
Q 2594 391 2855 752 
Q 3116 1113 3116 1747 
z
" transform="scale(0.015625)"/>
       <path id="DejaVuSans-6f" d="M 1959 3097 
Q 1497 3097 1228 2736 
Q 959 2375 959 1747 
Q 959 1119 1226 758 
Q 1494 397 1959 397 
Q 2419 397 2687 759 
Q 2956 1122 2956 1747 
Q 2956 2369 2687 2733 
Q 2419 3097 1959 3097 
z
M 1959 3584 
Q 2709 3584 3137 3096 
Q 3566 2609 3566 1747 
Q 3566 888 3137 398 
Q 2709 -91 1959 -91 
Q 1206 -91 779 398 
Q 353 888 353 1747 
Q 353 2609 779 3096 
Q 1206 3584 1959 3584 
z
" transform="scale(0.015625)"/>
       <path id="DejaVuSans-63" d="M 3122 3366 
L 3122 2828 
Q 2878 2963 2633 3030 
Q 2388 3097 2138 3097 
Q 1578 3097 1268 2742 
Q 959 2388 959 1747 
Q 959 1106 1268 751 
Q 1578 397 2138 397 
Q 2388 397 2633 464 
Q 2878 531 3122 666 
L 3122 134 
Q 2881 22 2623 -34 
Q 2366 -91 2075 -91 
Q 1284 -91 818 406 
Q 353 903 353 1747 
Q 353 2603 823 3093 
Q 1294 3584 2113 3584 
Q 2378 3584 2631 3529 
Q 2884 3475 3122 3366 
z
" transform="scale(0.015625)"/>
       <path id="DejaVuSans-68" d="M 3513 2113 
L 3513 0 
L 2938 0 
L 2938 2094 
Q 2938 2591 2744 2837 
Q 2550 3084 2163 3084 
Q 1697 3084 1428 2787 
Q 1159 2491 1159 1978 
L 1159 0 
L 581 0 
L 581 4863 
L 1159 4863 
L 1159 2956 
Q 1366 3272 1645 3428 
Q 1925 3584 2291 3584 
Q 2894 3584 3203 3211 
Q 3513 2838 3513 2113 
z
" transform="scale(0.015625)"/>
      </defs>
      <use xlink:href="#DejaVuSans-45"/>
      <use xlink:href="#DejaVuSans-70" x="63.183594"/>
      <use xlink:href="#DejaVuSans-6f" x="126.660156"/>
      <use xlink:href="#DejaVuSans-63" x="187.841797"/>
      <use xlink:href="#DejaVuSans-68" x="242.822266"/>
     </g>
    </g>
   </g>
   <g id="matplotlib.axis_2">
    <g id="ytick_1">
     <g id="line2d_3">
      <defs>
       <path id="mee8e6ea15b" d="M 0 0 
L -3.5 0 
" style="stroke: #000000; stroke-width: 0.8"/>
      </defs>
      <g>
       <use xlink:href="#mee8e6ea15b" x="37.08" y="157.154138" style="stroke: #000000; stroke-width: 0.8"/>
      </g>
     </g>
     <g id="text_4">
      <!-- 2 -->
      <g transform="translate(17.2175 160.953357) scale(0.1 -0.1)">
       <defs>
        <path id="DejaVuSans-32" d="M 1228 531 
L 3431 531 
L 3431 0 
L 469 0 
L 469 531 
Q 828 903 1448 1529 
Q 2069 2156 2228 2338 
Q 2531 2678 2651 2914 
Q 2772 3150 2772 3378 
Q 2772 3750 2511 3984 
Q 2250 4219 1831 4219 
Q 1534 4219 1204 4116 
Q 875 4013 500 3803 
L 500 4441 
Q 881 4594 1212 4672 
Q 1544 4750 1819 4750 
Q 2544 4750 2975 4387 
Q 3406 4025 3406 3419 
Q 3406 3131 3298 2873 
Q 3191 2616 2906 2266 
Q 2828 2175 2409 1742 
Q 1991 1309 1228 531 
z
" transform="scale(0.015625)"/>
       </defs>
       <use xlink:href="#DejaVuSans-32"/>
      </g>
     </g>
    </g>
    <g id="ytick_2">
     <g id="line2d_4">
      <g>
       <use xlink:href="#mee8e6ea15b" x="37.08" y="143.908621" style="stroke: #000000; stroke-width: 0.8"/>
      </g>
     </g>
     <g id="text_5">
      <!-- 3 -->
      <g transform="translate(17.2175 147.707839) scale(0.1 -0.1)">
       <defs>
        <path id="DejaVuSans-33" d="M 2597 2516 
Q 3050 2419 3304 2112 
Q 3559 1806 3559 1356 
Q 3559 666 3084 287 
Q 2609 -91 1734 -91 
Q 1441 -91 1130 -33 
Q 819 25 488 141 
L 488 750 
Q 750 597 1062 519 
Q 1375 441 1716 441 
Q 2309 441 2620 675 
Q 2931 909 2931 1356 
Q 2931 1769 2642 2001 
Q 2353 2234 1838 2234 
L 1294 2234 
L 1294 2753 
L 1863 2753 
Q 2328 2753 2575 2939 
Q 2822 3125 2822 3475 
Q 2822 3834 2567 4026 
Q 2313 4219 1838 4219 
Q 1578 4219 1281 4162 
Q 984 4106 628 3988 
L 628 4550 
Q 988 4650 1302 4700 
Q 1616 4750 1894 4750 
Q 2613 4750 3031 4423 
Q 3450 4097 3450 3541 
Q 3450 3153 3228 2886 
Q 3006 2619 2597 2516 
z
" transform="scale(0.015625)"/>
       </defs>
       <use xlink:href="#DejaVuSans-33"/>
      </g>
     </g>
    </g>
    <g id="ytick_3">
     <g id="line2d_5">
      <g>
       <use xlink:href="#mee8e6ea15b" x="37.08" y="130.663103" style="stroke: #000000; stroke-width: 0.8"/>
      </g>
     </g>
     <g id="text_6">
      <!-- 5 -->
      <g transform="translate(17.2175 134.462322) scale(0.1 -0.1)">
       <use xlink:href="#DejaVuSans-35"/>
      </g>
     </g>
    </g>
    <g id="ytick_4">
     <g id="line2d_6">
      <g>
       <use xlink:href="#mee8e6ea15b" x="37.08" y="117.417586" style="stroke: #000000; stroke-width: 0.8"/>
      </g>
     </g>
     <g id="text_7">
      <!-- 7 -->
      <g transform="translate(17.2175 121.216805) scale(0.1 -0.1)">
       <defs>
        <path id="DejaVuSans-37" d="M 525 4666 
L 3525 4666 
L 3525 4397 
L 1831 0 
L 1172 0 
L 2766 4134 
L 525 4134 
L 525 4666 
z
" transform="scale(0.015625)"/>
       </defs>
       <use xlink:href="#DejaVuSans-37"/>
      </g>
     </g>
    </g>
    <g id="ytick_5">
     <g id="line2d_7">
      <g>
       <use xlink:href="#mee8e6ea15b" x="37.08" y="104.172069" style="stroke: #000000; stroke-width: 0.8"/>
      </g>
     </g>
     <g id="text_8">
      <!-- 11 -->
      <g transform="translate(10.855 107.971288) scale(0.1 -0.1)">
       <use xlink:href="#DejaVuSans-31"/>
       <use xlink:href="#DejaVuSans-31" x="63.623047"/>
      </g>
     </g>
    </g>
    <g id="ytick_6">
     <g id="line2d_8">
      <g>
       <use xlink:href="#mee8e6ea15b" x="37.08" y="90.926552" style="stroke: #000000; stroke-width: 0.8"/>
      </g>
     </g>
     <g id="text_9">
      <!-- 13 -->
      <g transform="translate(10.855 94.72577) scale(0.1 -0.1)">
       <use xlink:href="#DejaVuSans-31"/>
       <use xlink:href="#DejaVuSans-33" x="63.623047"/>
      </g>
     </g>
    </g>
    <g id="ytick_7">
     <g id="line2d_9">
      <g>
       <use xlink:href="#mee8e6ea15b" x="37.08" y="77.681034" style="stroke: #000000; stroke-width: 0.8"/>
      </g>
     </g>
     <g id="text_10">
      <!-- 17 -->
      <g transform="translate(10.855 81.480253) scale(0.1 -0.1)">
       <use xlink:href="#DejaVuSans-31"/>
       <use xlink:href="#DejaVuSans-37" x="63.623047"/>
      </g>
     </g>
    </g>
    <g id="ytick_8">
     <g id="line2d_10">
      <g>
       <use xlink:href="#mee8e6ea15b" x="37.08" y="64.435517" style="stroke: #000000; stroke-width: 0.8"/>
      </g>
     </g>
     <g id="text_11">
      <!-- 19 -->
      <g transform="translate(10.855 68.234736) scale(0.1 -0.1)">
       <defs>
        <path id="DejaVuSans-39" d="M 703 97 
L 703 672 
Q 941 559 1184 500 
Q 1428 441 1663 441 
Q 2288 441 2617 861 
Q 2947 1281 2994 2138 
Q 2813 1869 2534 1725 
Q 2256 1581 1919 1581 
Q 1219 1581 811 2004 
Q 403 2428 403 3163 
Q 403 3881 828 4315 
Q 1253 4750 1959 4750 
Q 2769 4750 3195 4129 
Q 3622 3509 3622 2328 
Q 3622 1225 3098 567 
Q 2575 -91 1691 -91 
Q 1453 -91 1209 -44 
Q 966 3 703 97 
z
M 1959 2075 
Q 2384 2075 2632 2365 
Q 2881 2656 2881 3163 
Q 2881 3666 2632 3958 
Q 2384 4250 1959 4250 
Q 1534 4250 1286 3958 
Q 1038 3666 1038 3163 
Q 1038 2656 1286 2365 
Q 1534 2075 1959 2075 
z
" transform="scale(0.015625)"/>
       </defs>
       <use xlink:href="#DejaVuSans-31"/>
       <use xlink:href="#DejaVuSans-39" x="63.623047"/>
      </g>
     </g>
    </g>
    <g id="ytick_9">
     <g id="line2d_11">
      <g>
       <use xlink:href="#mee8e6ea15b" x="37.08" y="51.19" style="stroke: #000000; stroke-width: 0.8"/>
      </g>
     </g>
     <g id="text_12">
      <!--  -->
      <g transform="translate(16.5675 54.989219) scale(0.1 -0.1)">
       <defs>
        <path id="DejaVuSans-2119" d="M 938 4353 
L 938 313 
L 1569 313 
L 1569 4353 
L 938 4353 
z
M 1881 4353 
L 1881 2284 
L 2825 2284 
Q 2900 2284 2972 2291 
L 2972 4347 
Q 2900 4353 2825 4353 
L 1881 4353 
z
M 625 4666 
L 2678 4666 
Q 3459 4666 3861 4323 
Q 4263 3981 4263 3322 
Q 4263 2656 3861 2315 
Q 3459 1975 2675 1975 
L 1881 1975 
L 1881 0 
L 625 0 
L 625 4666 
z
M 3300 4281 
L 3300 2359 
Q 3488 2428 3628 2556 
Q 3919 2825 3919 3322 
Q 3919 3816 3631 4084 
Q 3494 4213 3300 4281 
z
" transform="scale(0.015625)"/>
       </defs>
       <use xlink:href="#DejaVuSans-2119"/>
      </g>
     </g>
    </g>
   </g>
  </g>
 </g>
 <defs>
  <clipPath id="pc80e06c9d8">
   <rect x="37.08" y="24.698966" width="384.12" height="145.70069"/>
  </clipPath>
 </defs>
</svg>
