<?xml version="1.0" encoding="utf-8" standalone="no"?>
<!DOCTYPE svg PUBLIC "-//W3C//DTD SVG 1.1//EN"
  "http://www.w3.org/Graphics/SVG/1.1/DTD/svg11.dtd">
<svg xmlns:xlink="http://www.w3.org/1999/xlink" width="432pt" height="216pt" viewBox="0 0 432 216" xmlns="http://www.w3.org/2000/svg" version="1.1">
 <metadata>
  <rdf:RDF xmlns:dc="http://purl.org/dc/elements/1.1/" xmlns:cc="http://creativecommons.org/ns#" xmlns:rdf="http://www.w3.org/1999/02/22-rdf-syntax-ns#">
   <cc:Work>
    <dc:type rdf:resource="http://purl.org/dc/dcmitype/StillImage"/>
    <dc:date>2024-08-13T20:44:47.085134</dc:date>
    <dc:format>image/svg+xml</dc:format>
    <dc:creator>
     <cc:Agent>
      <dc:title>Matplotlib v3.9.1.post1, https://matplotlib.org/</dc:title>
     </cc:Agent>
    </dc:creator>
   </cc:Work>
  </rdf:RDF>
 </metadata>
 <defs>
  <style type="text/css">*{stroke-linejoin: round; stroke-linecap: butt}</style>
 </defs>
 <g id="figure_1">
  <g id="patch_1">
   <path d="M 0 216 
L 432 216 
L 432 0 
L 0 0 
z
" style="fill: #ffffff"/>
  </g>
  <g id="axes_1">
   <g id="patch_2">
    <path d="M 37.08 170.399655 
L 421.2 170.399655 
L 421.2 24.698966 
L 37.08 24.698966 
z
" style="fill: #ffffff"/>
   </g>
   <g id="patch_3">
    <path d="M 45.02731 162.452345 
L 55.623724 162.452345 
L 55.623724 151.855931 
L 45.02731 151.855931 
z
" clip-path="url(#pf4e0fed74c)" style="stroke: #000000; stroke-linejoin: miter"/>
   </g>
   <g id="patch_4">
    <path d="M 58.477075 162.248098 
L 68.664994 162.248098 
L 68.664994 152.060178 
L 58.477075 152.060178 
z
" clip-path="url(#pf4e0fed74c)" style="stroke: #000000; stroke-linejoin: miter"/>
   </g>
   <g id="patch_5">
    <path d="M 72.314018 161.656672 
L 81.319085 161.656672 
L 81.319085 152.651604 
L 72.314018 152.651604 
z
" clip-path="url(#pf4e0fed74c)" style="stroke: #000000; stroke-linejoin: miter"/>
   </g>
   <g id="patch_6">
    <path d="M 86.558767 160.657442 
L 93.565374 160.657442 
L 93.565374 153.650834 
L 86.558767 153.650834 
z
" clip-path="url(#pf4e0fed74c)" style="stroke: #000000; stroke-linejoin: miter"/>
   </g>
   <g id="patch_7">
    <path d="M 101.356938 159.104787 
L 105.258237 159.104787 
L 105.258237 155.203489 
L 101.356938 155.203489 
z
" clip-path="url(#pf4e0fed74c)" style="stroke: #000000; stroke-linejoin: miter"/>
   </g>
   <g id="patch_8">
    <path d="M 115.132525 158.574716 
L 117.973682 158.574716 
L 117.973682 155.733559 
L 115.132525 155.733559 
z
" clip-path="url(#pf4e0fed74c)" style="stroke: #000000; stroke-linejoin: miter"/>
   </g>
   <g id="patch_9">
    <path d="M 128.6828 158.269957 
L 130.914441 158.269957 
L 130.914441 156.038318 
L 128.6828 156.038318 
z
" clip-path="url(#pf4e0fed74c)" style="stroke: #000000; stroke-linejoin: miter"/>
   </g>
   <g id="patch_10">
    <path d="M 142.111821 158.086456 
L 143.976455 158.086456 
L 143.976455 156.22182 
L 142.111821 156.22182 
z
" clip-path="url(#pf4e0fed74c)" style="stroke: #000000; stroke-linejoin: miter"/>
   </g>
   <g id="patch_11">
    <path d="M 154.767624 158.676169 
L 157.811687 158.676169 
L 157.811687 155.632107 
L 154.767624 155.632107 
z
" clip-path="url(#pf4e0fed74c)" style="stroke: #000000; stroke-linejoin: miter"/>
   </g>
   <g id="patch_12">
    <path d="M 168.285877 158.403436 
L 170.784468 158.403436 
L 170.784468 155.90484 
L 168.285877 155.90484 
z
" clip-path="url(#pf4e0fed74c)" style="stroke: #000000; stroke-linejoin: miter"/>
   </g>
   <g id="patch_13">
    <path d="M 181.940731 157.994101 
L 183.620661 157.994101 
L 183.620661 156.314175 
L 181.940731 156.314175 
z
" clip-path="url(#pf4e0fed74c)" style="stroke: #000000; stroke-linejoin: miter"/>
   </g>
   <g id="patch_14">
    <path d="M 195.25849 157.921849 
L 196.793911 157.921849 
L 196.793911 156.386427 
L 195.25849 156.386427 
z
" clip-path="url(#pf4e0fed74c)" style="stroke: #000000; stroke-linejoin: miter"/>
   </g>
   <g id="patch_15">
    <path d="M 208.121892 158.303973 
L 210.421556 158.303973 
L 210.421556 156.004303 
L 208.121892 156.004303 
z
" clip-path="url(#pf4e0fed74c)" style="stroke: #000000; stroke-linejoin: miter"/>
   </g>
   <g id="patch_16">
    <path d="M 221.837986 157.833388 
L 223.196484 157.833388 
L 223.196484 156.474888 
L 221.837986 156.474888 
z
" clip-path="url(#pf4e0fed74c)" style="stroke: #000000; stroke-linejoin: miter"/>
   </g>
   <g id="patch_17">
    <path d="M 234.77243 158.144463 
L 236.753075 158.144463 
L 236.753075 156.163813 
L 234.77243 156.163813 
z
" clip-path="url(#pf4e0fed74c)" style="stroke: #000000; stroke-linejoin: miter"/>
   </g>
   <g id="patch_18">
    <path d="M 248.508949 157.653465 
L 249.507603 157.653465 
L 249.507603 156.654811 
L 248.508949 156.654811 
z
" clip-path="url(#pf4e0fed74c)" style="stroke: #000000; stroke-linejoin: miter"/>
   </g>
   <g id="patch_19">
    <path d="M 261.700099 157.707834 
L 262.8075 157.707834 
L 262.8075 156.600442 
L 261.700099 156.600442 
z
" clip-path="url(#pf4e0fed74c)" style="stroke: #000000; stroke-linejoin: miter"/>
   </g>
   <g id="patch_20">
    <path d="M 274.89745 157.756002 
L 276.10117 157.756002 
L 276.10117 156.552274 
L 274.89745 156.552274 
z
" clip-path="url(#pf4e0fed74c)" style="stroke: #000000; stroke-linejoin: miter"/>
   </g>
   <g id="patch_21">
    <path d="M 288.243038 157.655927 
L 289.246618 157.655927 
L 289.246618 156.652349 
L 288.243038 156.652349 
z
" clip-path="url(#pf4e0fed74c)" style="stroke: #000000; stroke-linejoin: miter"/>
   </g>
   <g id="patch_22">
    <path d="M 301.310218 157.834264 
L 302.670472 157.834264 
L 302.670472 156.474012 
L 301.310218 156.474012 
z
" clip-path="url(#pf4e0fed74c)" style="stroke: #000000; stroke-linejoin: miter"/>
   </g>
   <g id="patch_23">
    <path d="M 314.461248 157.928743 
L 316.010451 157.928743 
L 316.010451 156.379533 
L 314.461248 156.379533 
z
" clip-path="url(#pf4e0fed74c)" style="stroke: #000000; stroke-linejoin: miter"/>
   </g>
   <g id="patch_24">
    <path d="M 328.128671 157.506851 
L 328.834087 157.506851 
L 328.834087 156.801425 
L 328.128671 156.801425 
z
" clip-path="url(#pf4e0fed74c)" style="stroke: #000000; stroke-linejoin: miter"/>
   </g>
   <g id="patch_25">
    <path d="M 341.126426 157.754612 
L 342.327367 157.754612 
L 342.327367 156.553664 
L 341.126426 156.553664 
z
" clip-path="url(#pf4e0fed74c)" style="stroke: #000000; stroke-linejoin: miter"/>
   </g>
   <g id="patch_26">
    <path d="M 353.738428 158.388127 
L 356.2064 158.388127 
L 356.2064 155.920149 
L 353.738428 155.920149 
z
" clip-path="url(#pf4e0fed74c)" style="stroke: #000000; stroke-linejoin: miter"/>
   </g>
   <g id="patch_27">
    <path d="M 367.455722 157.916357 
L 368.980166 157.916357 
L 368.980166 156.391919 
L 367.455722 156.391919 
z
" clip-path="url(#pf4e0fed74c)" style="stroke: #000000; stroke-linejoin: miter"/>
   </g>
   <g id="patch_28">
    <path d="M 380.33749 158.280108 
L 382.589431 158.280108 
L 382.589431 156.028168 
L 380.33749 156.028168 
z
" clip-path="url(#pf4e0fed74c)" style="stroke: #000000; stroke-linejoin: miter"/>
   </g>
   <g id="patch_29">
    <path d="M 393.923842 157.939252 
L 395.494064 157.939252 
L 395.494064 156.369024 
L 393.923842 156.369024 
z
" clip-path="url(#pf4e0fed74c)" style="stroke: #000000; stroke-linejoin: miter"/>
   </g>
   <g id="patch_30">
    <path d="M 45.060258 149.17388 
L 55.590777 149.17388 
L 55.590777 138.643361 
L 45.060258 138.643361 
z
" clip-path="url(#pf4e0fed74c)" style="stroke: #000000; stroke-linejoin: miter"/>
   </g>
   <g id="patch_31">
    <path d="M 58.392387 149.087268 
L 68.749682 149.087268 
L 68.749682 138.729974 
L 58.392387 138.729974 
z
" clip-path="url(#pf4e0fed74c)" style="stroke: #000000; stroke-linejoin: miter"/>
   </g>
   <g id="patch_32">
    <path d="M 71.674798 149.050375 
L 81.958304 149.050375 
L 81.958304 138.766868 
L 71.674798 138.766868 
z
" clip-path="url(#pf4e0fed74c)" style="stroke: #000000; stroke-linejoin: miter"/>
   </g>
   <g id="patch_33">
    <path d="M 84.911051 149.059638 
L 95.213084 149.059638 
L 95.213084 138.757603 
L 84.911051 138.757603 
z
" clip-path="url(#pf4e0fed74c)" style="stroke: #000000; stroke-linejoin: miter"/>
   </g>
   <g id="patch_34">
    <path d="M 98.101534 149.114673 
L 108.513638 149.114673 
L 108.513638 138.702569 
L 98.101534 138.702569 
z
" clip-path="url(#pf4e0fed74c)" style="stroke: #000000; stroke-linejoin: miter"/>
   </g>
   <g id="patch_35">
    <path d="M 111.385882 149.075841 
L 121.720325 149.075841 
L 121.720325 138.741401 
L 111.385882 138.741401 
z
" clip-path="url(#pf4e0fed74c)" style="stroke: #000000; stroke-linejoin: miter"/>
   </g>
   <g id="patch_36">
    <path d="M 124.668032 149.039213 
L 134.929216 149.039213 
L 134.929216 138.778028 
L 124.668032 138.778028 
z
" clip-path="url(#pf4e0fed74c)" style="stroke: #000000; stroke-linejoin: miter"/>
   </g>
   <g id="patch_37">
    <path d="M 137.926004 149.026755 
L 148.162272 149.026755 
L 148.162272 138.790487 
L 137.926004 138.790487 
z
" clip-path="url(#pf4e0fed74c)" style="stroke: #000000; stroke-linejoin: miter"/>
   </g>
   <g id="patch_38">
    <path d="M 151.178886 149.019392 
L 161.400425 149.019392 
L 161.400425 138.797851 
L 151.178886 138.797851 
z
" clip-path="url(#pf4e0fed74c)" style="stroke: #000000; stroke-linejoin: miter"/>
   </g>
   <g id="patch_39">
    <path d="M 164.430555 149.013237 
L 174.63979 149.013237 
L 174.63979 138.804003 
L 164.430555 138.804003 
z
" clip-path="url(#pf4e0fed74c)" style="stroke: #000000; stroke-linejoin: miter"/>
   </g>
   <g id="patch_40">
    <path d="M 177.673255 149.01606 
L 187.888137 149.01606 
L 187.888137 138.801181 
L 177.673255 138.801181 
z
" clip-path="url(#pf4e0fed74c)" style="stroke: #000000; stroke-linejoin: miter"/>
   </g>
   <g id="patch_41">
    <path d="M 190.917863 149.016967 
L 201.134551 149.016967 
L 201.134551 138.800276 
L 190.917863 138.800276 
z
" clip-path="url(#pf4e0fed74c)" style="stroke: #000000; stroke-linejoin: miter"/>
   </g>
   <g id="patch_42">
    <path d="M 204.149763 149.030584 
L 214.393686 149.030584 
L 214.393686 138.786659 
L 204.149763 138.786659 
z
" clip-path="url(#pf4e0fed74c)" style="stroke: #000000; stroke-linejoin: miter"/>
   </g>
   <g id="patch_43">
    <path d="M 217.405575 149.02029 
L 227.62892 149.02029 
L 227.62892 138.796951 
L 217.405575 138.796951 
z
" clip-path="url(#pf4e0fed74c)" style="stroke: #000000; stroke-linejoin: miter"/>
   </g>
   <g id="patch_44">
    <path d="M 230.655324 149.016053 
L 240.870193 149.016053 
L 240.870193 138.801189 
L 230.655324 138.801189 
z
" clip-path="url(#pf4e0fed74c)" style="stroke: #000000; stroke-linejoin: miter"/>
   </g>
   <g id="patch_45">
    <path d="M 243.891342 149.025561 
L 254.125222 149.025561 
L 254.125222 138.79168 
L 243.891342 138.79168 
z
" clip-path="url(#pf4e0fed74c)" style="stroke: #000000; stroke-linejoin: miter"/>
   </g>
   <g id="patch_46">
    <path d="M 257.151866 149.01055 
L 267.35572 149.01055 
L 267.35572 138.806692 
L 257.151866 138.806692 
z
" clip-path="url(#pf4e0fed74c)" style="stroke: #000000; stroke-linejoin: miter"/>
   </g>
   <g id="patch_47">
    <path d="M 270.401198 149.006735 
L 280.597423 149.006735 
L 280.597423 138.810508 
L 270.401198 138.810508 
z
" clip-path="url(#pf4e0fed74c)" style="stroke: #000000; stroke-linejoin: miter"/>
   </g>
   <g id="patch_48">
    <path d="M 283.630066 149.023372 
L 293.859564 149.023372 
L 293.859564 138.793869 
L 283.630066 138.793869 
z
" clip-path="url(#pf4e0fed74c)" style="stroke: #000000; stroke-linejoin: miter"/>
   </g>
   <g id="patch_49">
    <path d="M 296.879727 149.019232 
L 307.100938 149.019232 
L 307.100938 138.798009 
L 296.879727 138.798009 
z
" clip-path="url(#pf4e0fed74c)" style="stroke: #000000; stroke-linejoin: miter"/>
   </g>
   <g id="patch_50">
    <path d="M 310.127745 149.016735 
L 320.343979 149.016735 
L 320.343979 138.800507 
L 310.127745 138.800507 
z
" clip-path="url(#pf4e0fed74c)" style="stroke: #000000; stroke-linejoin: miter"/>
   </g>
   <g id="patch_51">
    <path d="M 323.378138 149.011857 
L 333.58462 149.011857 
L 333.58462 138.805386 
L 323.378138 138.805386 
z
" clip-path="url(#pf4e0fed74c)" style="stroke: #000000; stroke-linejoin: miter"/>
   </g>
   <g id="patch_52">
    <path d="M 336.631487 149.004028 
L 346.822306 149.004028 
L 346.822306 138.813212 
L 336.631487 138.813212 
z
" clip-path="url(#pf4e0fed74c)" style="stroke: #000000; stroke-linejoin: miter"/>
   </g>
   <g id="patch_53">
    <path d="M 349.876272 149.004756 
L 360.06853 149.004756 
L 360.06853 138.812485 
L 349.876272 138.812485 
z
" clip-path="url(#pf4e0fed74c)" style="stroke: #000000; stroke-linejoin: miter"/>
   </g>
   <g id="patch_54">
    <path d="M 363.132122 148.994426 
L 373.30374 148.994426 
L 373.30374 138.822815 
L 363.132122 138.822815 
z
" clip-path="url(#pf4e0fed74c)" style="stroke: #000000; stroke-linejoin: miter"/>
   </g>
   <g id="patch_55">
    <path d="M 376.369631 149.002441 
L 386.557266 149.002441 
L 386.557266 138.8148 
L 376.369631 138.8148 
z
" clip-path="url(#pf4e0fed74c)" style="stroke: #000000; stroke-linejoin: miter"/>
   </g>
   <g id="patch_56">
    <path d="M 389.61866 148.998934 
L 399.799297 148.998934 
L 399.799297 138.818308 
L 389.61866 138.818308 
z
" clip-path="url(#pf4e0fed74c)" style="stroke: #000000; stroke-linejoin: miter"/>
   </g>
   <g id="patch_57">
    <path d="M 45.437799 135.550822 
L 55.213236 135.550822 
L 55.213236 125.775385 
L 45.437799 125.775385 
z
" clip-path="url(#pf4e0fed74c)" style="stroke: #000000; stroke-linejoin: miter"/>
   </g>
   <g id="patch_58">
    <path d="M 59.009067 135.22507 
L 68.133001 135.22507 
L 68.133001 126.101134 
L 59.009067 126.101134 
z
" clip-path="url(#pf4e0fed74c)" style="stroke: #000000; stroke-linejoin: miter"/>
   </g>
   <g id="patch_59">
    <path d="M 72.742911 134.736744 
L 80.890191 134.736744 
L 80.890191 126.589464 
L 72.742911 126.589464 
z
" clip-path="url(#pf4e0fed74c)" style="stroke: #000000; stroke-linejoin: miter"/>
   </g>
   <g id="patch_60">
    <path d="M 86.781404 133.943768 
L 93.342734 133.943768 
L 93.342734 127.382439 
L 86.781404 127.382439 
z
" clip-path="url(#pf4e0fed74c)" style="stroke: #000000; stroke-linejoin: miter"/>
   </g>
   <g id="patch_61">
    <path d="M 101.221123 132.749565 
L 105.394049 132.749565 
L 105.394049 128.57664 
L 101.221123 128.57664 
z
" clip-path="url(#pf4e0fed74c)" style="stroke: #000000; stroke-linejoin: miter"/>
   </g>
   <g id="patch_62">
    <path d="M 115.172448 132.043759 
L 117.933759 132.043759 
L 117.933759 129.282448 
L 115.172448 129.282448 
z
" clip-path="url(#pf4e0fed74c)" style="stroke: #000000; stroke-linejoin: miter"/>
   </g>
   <g id="patch_63">
    <path d="M 128.850665 131.611057 
L 130.74657 131.611057 
L 130.74657 129.715151 
L 128.850665 129.715151 
z
" clip-path="url(#pf4e0fed74c)" style="stroke: #000000; stroke-linejoin: miter"/>
   </g>
   <g id="patch_64">
    <path d="M 142.06975 131.637491 
L 144.018526 131.637491 
L 144.018526 129.688716 
L 142.06975 129.688716 
z
" clip-path="url(#pf4e0fed74c)" style="stroke: #000000; stroke-linejoin: miter"/>
   </g>
   <g id="patch_65">
    <path d="M 154.843485 132.109271 
L 157.735819 132.109271 
L 157.735819 129.216933 
L 154.843485 129.216933 
z
" clip-path="url(#pf4e0fed74c)" style="stroke: #000000; stroke-linejoin: miter"/>
   </g>
   <g id="patch_66">
    <path d="M 168.725442 131.472833 
L 170.344903 131.472833 
L 170.344903 129.853376 
L 168.725442 129.853376 
z
" clip-path="url(#pf4e0fed74c)" style="stroke: #000000; stroke-linejoin: miter"/>
   </g>
   <g id="patch_67">
    <path d="M 181.621838 131.821958 
L 183.939554 131.821958 
L 183.939554 129.504249 
L 181.621838 129.504249 
z
" clip-path="url(#pf4e0fed74c)" style="stroke: #000000; stroke-linejoin: miter"/>
   </g>
   <g id="patch_68">
    <path d="M 194.98319 131.706122 
L 197.069224 131.706122 
L 197.069224 129.620087 
L 194.98319 129.620087 
z
" clip-path="url(#pf4e0fed74c)" style="stroke: #000000; stroke-linejoin: miter"/>
   </g>
   <g id="patch_69">
    <path d="M 208.222922 131.711904 
L 210.320526 131.711904 
L 210.320526 129.614304 
L 208.222922 129.614304 
z
" clip-path="url(#pf4e0fed74c)" style="stroke: #000000; stroke-linejoin: miter"/>
   </g>
   <g id="patch_70">
    <path d="M 221.625454 131.554897 
L 223.409042 131.554897 
L 223.409042 129.77131 
L 221.625454 129.77131 
z
" clip-path="url(#pf4e0fed74c)" style="stroke: #000000; stroke-linejoin: miter"/>
   </g>
   <g id="patch_71">
    <path d="M 235.092181 131.333676 
L 236.433324 131.333676 
L 236.433324 129.992532 
L 235.092181 129.992532 
z
" clip-path="url(#pf4e0fed74c)" style="stroke: #000000; stroke-linejoin: miter"/>
   </g>
   <g id="patch_72">
    <path d="M 248.22727 131.444114 
L 249.789294 131.444114 
L 249.789294 129.882091 
L 248.22727 129.882091 
z
" clip-path="url(#pf4e0fed74c)" style="stroke: #000000; stroke-linejoin: miter"/>
   </g>
   <g id="patch_73">
    <path d="M 261.67006 131.24684 
L 262.837539 131.24684 
L 262.837539 130.079367 
L 261.67006 130.079367 
z
" clip-path="url(#pf4e0fed74c)" style="stroke: #000000; stroke-linejoin: miter"/>
   </g>
   <g id="patch_74">
    <path d="M 274.872818 131.289604 
L 276.125828 131.289604 
L 276.125828 130.036605 
L 274.872818 130.036605 
z
" clip-path="url(#pf4e0fed74c)" style="stroke: #000000; stroke-linejoin: miter"/>
   </g>
   <g id="patch_75">
    <path d="M 287.620108 131.787817 
L 289.869548 131.787817 
L 289.869548 129.53839 
L 287.620108 129.53839 
z
" clip-path="url(#pf4e0fed74c)" style="stroke: #000000; stroke-linejoin: miter"/>
   </g>
   <g id="patch_76">
    <path d="M 301.033983 131.61947 
L 302.946707 131.61947 
L 302.946707 129.706735 
L 301.033983 129.706735 
z
" clip-path="url(#pf4e0fed74c)" style="stroke: #000000; stroke-linejoin: miter"/>
   </g>
   <g id="patch_77">
    <path d="M 314.490756 131.408216 
L 315.980968 131.408216 
L 315.980968 129.917991 
L 314.490756 129.917991 
z
" clip-path="url(#pf4e0fed74c)" style="stroke: #000000; stroke-linejoin: miter"/>
   </g>
   <g id="patch_78">
    <path d="M 327.759996 131.384487 
L 329.202762 131.384487 
L 329.202762 129.94172 
L 327.759996 129.94172 
z
" clip-path="url(#pf4e0fed74c)" style="stroke: #000000; stroke-linejoin: miter"/>
   </g>
   <g id="patch_79">
    <path d="M 341.129129 131.260866 
L 342.324664 131.260866 
L 342.324664 130.065343 
L 341.129129 130.065343 
z
" clip-path="url(#pf4e0fed74c)" style="stroke: #000000; stroke-linejoin: miter"/>
   </g>
   <g id="patch_80">
    <path d="M 354.098892 131.536628 
L 355.845936 131.536628 
L 355.845936 129.789578 
L 354.098892 129.789578 
z
" clip-path="url(#pf4e0fed74c)" style="stroke: #000000; stroke-linejoin: miter"/>
   </g>
   <g id="patch_81">
    <path d="M 367.375383 131.505657 
L 369.060479 131.505657 
L 369.060479 129.820552 
L 367.375383 129.820552 
z
" clip-path="url(#pf4e0fed74c)" style="stroke: #000000; stroke-linejoin: miter"/>
   </g>
   <g id="patch_82">
    <path d="M 380.925127 131.201419 
L 382.001744 131.201419 
L 382.001744 130.124788 
L 380.925127 130.124788 
z
" clip-path="url(#pf4e0fed74c)" style="stroke: #000000; stroke-linejoin: miter"/>
   </g>
   <g id="patch_83">
    <path d="M 393.4961 131.875969 
L 395.921831 131.875969 
L 395.921831 129.450238 
L 393.4961 129.450238 
z
" clip-path="url(#pf4e0fed74c)" style="stroke: #000000; stroke-linejoin: miter"/>
   </g>
   <g id="patch_84">
    <path d="M 45.74586 121.997244 
L 54.905175 121.997244 
L 54.905175 112.837928 
L 45.74586 112.837928 
z
" clip-path="url(#pf4e0fed74c)" style="stroke: #000000; stroke-linejoin: miter"/>
   </g>
   <g id="patch_85">
    <path d="M 59.244893 121.743728 
L 67.897176 121.743728 
L 67.897176 113.091445 
L 59.244893 113.091445 
z
" clip-path="url(#pf4e0fed74c)" style="stroke: #000000; stroke-linejoin: miter"/>
   </g>
   <g id="patch_86">
    <path d="M 72.540156 121.69398 
L 81.092946 121.69398 
L 81.092946 113.141189 
L 72.540156 113.141189 
z
" clip-path="url(#pf4e0fed74c)" style="stroke: #000000; stroke-linejoin: miter"/>
   </g>
   <g id="patch_87">
    <path d="M 85.762236 121.717419 
L 94.361905 121.717419 
L 94.361905 113.11775 
L 85.762236 113.11775 
z
" clip-path="url(#pf4e0fed74c)" style="stroke: #000000; stroke-linejoin: miter"/>
   </g>
   <g id="patch_88">
    <path d="M 98.978088 121.747085 
L 107.637085 121.747085 
L 107.637085 113.088091 
L 98.978088 113.088091 
z
" clip-path="url(#pf4e0fed74c)" style="stroke: #000000; stroke-linejoin: miter"/>
   </g>
   <g id="patch_89">
    <path d="M 112.239502 121.731191 
L 120.866711 121.731191 
L 120.866711 113.103985 
L 112.239502 113.103985 
z
" clip-path="url(#pf4e0fed74c)" style="stroke: #000000; stroke-linejoin: miter"/>
   </g>
   <g id="patch_90">
    <path d="M 125.525852 121.690358 
L 134.071396 121.690358 
L 134.071396 113.144814 
L 125.525852 113.144814 
z
" clip-path="url(#pf4e0fed74c)" style="stroke: #000000; stroke-linejoin: miter"/>
   </g>
   <g id="patch_91">
    <path d="M 138.835047 121.626674 
L 147.253223 121.626674 
L 147.253223 113.208495 
L 138.835047 113.208495 
z
" clip-path="url(#pf4e0fed74c)" style="stroke: #000000; stroke-linejoin: miter"/>
   </g>
   <g id="patch_92">
    <path d="M 152.06802 121.639224 
L 160.51129 121.639224 
L 160.51129 113.195948 
L 152.06802 113.195948 
z
" clip-path="url(#pf4e0fed74c)" style="stroke: #000000; stroke-linejoin: miter"/>
   </g>
   <g id="patch_93">
    <path d="M 165.319967 121.632788 
L 173.750377 121.632788 
L 173.750377 113.202381 
L 165.319967 113.202381 
z
" clip-path="url(#pf4e0fed74c)" style="stroke: #000000; stroke-linejoin: miter"/>
   </g>
   <g id="patch_94">
    <path d="M 178.583889 121.61438 
L 186.977477 121.61438 
L 186.977477 113.220789 
L 178.583889 113.220789 
z
" clip-path="url(#pf4e0fed74c)" style="stroke: #000000; stroke-linejoin: miter"/>
   </g>
   <g id="patch_95">
    <path d="M 191.825187 121.618606 
L 200.227226 121.618606 
L 200.227226 113.21657 
L 191.825187 113.21657 
z
" clip-path="url(#pf4e0fed74c)" style="stroke: #000000; stroke-linejoin: miter"/>
   </g>
   <g id="patch_96">
    <path d="M 205.093973 121.595338 
L 213.449476 121.595338 
L 213.449476 113.239835 
L 205.093973 113.239835 
z
" clip-path="url(#pf4e0fed74c)" style="stroke: #000000; stroke-linejoin: miter"/>
   </g>
   <g id="patch_97">
    <path d="M 218.315792 121.619029 
L 226.718678 121.619029 
L 226.718678 113.21614 
L 218.315792 113.21614 
z
" clip-path="url(#pf4e0fed74c)" style="stroke: #000000; stroke-linejoin: miter"/>
   </g>
   <g id="patch_98">
    <path d="M 231.577024 121.603324 
L 239.948506 121.603324 
L 239.948506 113.231848 
L 231.577024 113.231848 
z
" clip-path="url(#pf4e0fed74c)" style="stroke: #000000; stroke-linejoin: miter"/>
   </g>
   <g id="patch_99">
    <path d="M 244.837068 121.588797 
L 253.179497 121.588797 
L 253.179497 113.246375 
L 244.837068 113.246375 
z
" clip-path="url(#pf4e0fed74c)" style="stroke: #000000; stroke-linejoin: miter"/>
   </g>
   <g id="patch_100">
    <path d="M 258.088648 121.582728 
L 266.418938 121.582728 
L 266.418938 113.252445 
L 258.088648 113.252445 
z
" clip-path="url(#pf4e0fed74c)" style="stroke: #000000; stroke-linejoin: miter"/>
   </g>
   <g id="patch_101">
    <path d="M 271.341164 121.575733 
L 279.657457 121.575733 
L 279.657457 113.259439 
L 271.341164 113.259439 
z
" clip-path="url(#pf4e0fed74c)" style="stroke: #000000; stroke-linejoin: miter"/>
   </g>
   <g id="patch_102">
    <path d="M 284.55121 121.61121 
L 292.93847 121.61121 
L 292.93847 113.22396 
L 284.55121 113.22396 
z
" clip-path="url(#pf4e0fed74c)" style="stroke: #000000; stroke-linejoin: miter"/>
   </g>
   <g id="patch_103">
    <path d="M 297.781443 121.626488 
L 306.199247 121.626488 
L 306.199247 113.208684 
L 297.781443 113.208684 
z
" clip-path="url(#pf4e0fed74c)" style="stroke: #000000; stroke-linejoin: miter"/>
   </g>
   <g id="patch_104">
    <path d="M 311.065437 121.588011 
L 319.406287 121.588011 
L 319.406287 113.247161 
L 311.065437 113.247161 
z
" clip-path="url(#pf4e0fed74c)" style="stroke: #000000; stroke-linejoin: miter"/>
   </g>
   <g id="patch_105">
    <path d="M 324.327805 121.57116 
L 332.634953 121.57116 
L 332.634953 113.264009 
L 324.327805 113.264009 
z
" clip-path="url(#pf4e0fed74c)" style="stroke: #000000; stroke-linejoin: miter"/>
   </g>
   <g id="patch_106">
    <path d="M 337.608667 121.535829 
L 345.845152 121.535829 
L 345.845152 113.299347 
L 337.608667 113.299347 
z
" clip-path="url(#pf4e0fed74c)" style="stroke: #000000; stroke-linejoin: miter"/>
   </g>
   <g id="patch_107">
    <path d="M 350.845139 121.544857 
L 359.099688 121.544857 
L 359.099688 113.290312 
L 350.845139 113.290312 
z
" clip-path="url(#pf4e0fed74c)" style="stroke: #000000; stroke-linejoin: miter"/>
   </g>
   <g id="patch_108">
    <path d="M 364.08424 121.551268 
L 372.351597 121.551268 
L 372.351597 113.283901 
L 364.08424 113.283901 
z
" clip-path="url(#pf4e0fed74c)" style="stroke: #000000; stroke-linejoin: miter"/>
   </g>
   <g id="patch_109">
    <path d="M 377.34729 121.533757 
L 385.579632 121.533757 
L 385.579632 113.301415 
L 377.34729 113.301415 
z
" clip-path="url(#pf4e0fed74c)" style="stroke: #000000; stroke-linejoin: miter"/>
   </g>
   <g id="patch_110">
    <path d="M 390.591115 121.535428 
L 398.826791 121.535428 
L 398.826791 113.299745 
L 390.591115 113.299745 
z
" clip-path="url(#pf4e0fed74c)" style="stroke: #000000; stroke-linejoin: miter"/>
   </g>
   <g id="patch_111">
    <path d="M 46.137215 108.360371 
L 54.513819 108.360371 
L 54.513819 99.98377 
L 46.137215 99.98377 
z
" clip-path="url(#pf4e0fed74c)" style="stroke: #000000; stroke-linejoin: miter"/>
   </g>
   <g id="patch_112">
    <path d="M 59.852382 107.890723 
L 67.289689 107.890723 
L 67.289689 100.453418 
L 59.852382 100.453418 
z
" clip-path="url(#pf4e0fed74c)" style="stroke: #000000; stroke-linejoin: miter"/>
   </g>
   <g id="patch_113">
    <path d="M 73.135173 107.853446 
L 80.497929 107.853446 
L 80.497929 100.490688 
L 73.135173 100.490688 
z
" clip-path="url(#pf4e0fed74c)" style="stroke: #000000; stroke-linejoin: miter"/>
   </g>
   <g id="patch_114">
    <path d="M 86.353347 107.880791 
L 93.770794 107.880791 
L 93.770794 100.46334 
L 86.353347 100.46334 
z
" clip-path="url(#pf4e0fed74c)" style="stroke: #000000; stroke-linejoin: miter"/>
   </g>
   <g id="patch_115">
    <path d="M 99.528864 107.950791 
L 107.086308 107.950791 
L 107.086308 100.393347 
L 99.528864 100.393347 
z
" clip-path="url(#pf4e0fed74c)" style="stroke: #000000; stroke-linejoin: miter"/>
   </g>
   <g id="patch_116">
    <path d="M 112.829337 107.895839 
L 120.276877 107.895839 
L 120.276877 100.448302 
L 112.829337 100.448302 
z
" clip-path="url(#pf4e0fed74c)" style="stroke: #000000; stroke-linejoin: miter"/>
   </g>
   <g id="patch_117">
    <path d="M 126.058079 107.912611 
L 133.539169 107.912611 
L 133.539169 100.431521 
L 126.058079 100.431521 
z
" clip-path="url(#pf4e0fed74c)" style="stroke: #000000; stroke-linejoin: miter"/>
   </g>
   <g id="patch_118">
    <path d="M 139.320523 107.895681 
L 146.767747 107.895681 
L 146.767747 100.448454 
L 139.320523 100.448454 
z
" clip-path="url(#pf4e0fed74c)" style="stroke: #000000; stroke-linejoin: miter"/>
   </g>
   <g id="patch_119">
    <path d="M 152.577175 107.884546 
L 160.002136 107.884546 
L 160.002136 100.459589 
L 152.577175 100.459589 
z
" clip-path="url(#pf4e0fed74c)" style="stroke: #000000; stroke-linejoin: miter"/>
   </g>
   <g id="patch_120">
    <path d="M 165.871805 107.835433 
L 173.19854 107.835433 
L 173.19854 100.508701 
L 165.871805 100.508701 
z
" clip-path="url(#pf4e0fed74c)" style="stroke: #000000; stroke-linejoin: miter"/>
   </g>
   <g id="patch_121">
    <path d="M 179.098614 107.854138 
L 186.462752 107.854138 
L 186.462752 100.49 
L 179.098614 100.49 
z
" clip-path="url(#pf4e0fed74c)" style="stroke: #000000; stroke-linejoin: miter"/>
   </g>
   <g id="patch_122">
    <path d="M 192.354098 107.844181 
L 199.698328 107.844181 
L 199.698328 100.499954 
L 192.354098 100.499954 
z
" clip-path="url(#pf4e0fed74c)" style="stroke: #000000; stroke-linejoin: miter"/>
   </g>
   <g id="patch_123">
    <path d="M 205.589548 107.854252 
L 212.953913 107.854252 
L 212.953913 100.489886 
L 205.589548 100.489886 
z
" clip-path="url(#pf4e0fed74c)" style="stroke: #000000; stroke-linejoin: miter"/>
   </g>
   <g id="patch_124">
    <path d="M 218.853887 107.83543 
L 226.180609 107.83543 
L 226.180609 100.508708 
L 218.853887 100.508708 
z
" clip-path="url(#pf4e0fed74c)" style="stroke: #000000; stroke-linejoin: miter"/>
   </g>
   <g id="patch_125">
    <path d="M 232.10865 107.826174 
L 239.416867 107.826174 
L 239.416867 100.517961 
L 232.10865 100.517961 
z
" clip-path="url(#pf4e0fed74c)" style="stroke: #000000; stroke-linejoin: miter"/>
   </g>
   <g id="patch_126">
    <path d="M 245.356315 107.824027 
L 252.660237 107.824027 
L 252.660237 100.520108 
L 245.356315 100.520108 
z
" clip-path="url(#pf4e0fed74c)" style="stroke: #000000; stroke-linejoin: miter"/>
   </g>
   <g id="patch_127">
    <path d="M 258.606026 107.81983 
L 265.901535 107.81983 
L 265.901535 100.524308 
L 258.606026 100.524308 
z
" clip-path="url(#pf4e0fed74c)" style="stroke: #000000; stroke-linejoin: miter"/>
   </g>
   <g id="patch_128">
    <path d="M 271.854903 107.816482 
L 279.143717 107.816482 
L 279.143717 100.527656 
L 271.854903 100.527656 
z
" clip-path="url(#pf4e0fed74c)" style="stroke: #000000; stroke-linejoin: miter"/>
   </g>
   <g id="patch_129">
    <path d="M 285.078845 107.838051 
L 292.41081 107.838051 
L 292.41081 100.506087 
L 285.078845 100.506087 
z
" clip-path="url(#pf4e0fed74c)" style="stroke: #000000; stroke-linejoin: miter"/>
   </g>
   <g id="patch_130">
    <path d="M 298.379362 107.783042 
L 305.601303 107.783042 
L 305.601303 100.561099 
L 298.379362 100.561099 
z
" clip-path="url(#pf4e0fed74c)" style="stroke: #000000; stroke-linejoin: miter"/>
   </g>
   <g id="patch_131">
    <path d="M 311.617275 107.790653 
L 318.854449 107.790653 
L 318.854449 100.553482 
L 311.617275 100.553482 
z
" clip-path="url(#pf4e0fed74c)" style="stroke: #000000; stroke-linejoin: miter"/>
   </g>
   <g id="patch_132">
    <path d="M 324.856628 107.796824 
L 332.106131 107.796824 
L 332.106131 100.547311 
L 324.856628 100.547311 
z
" clip-path="url(#pf4e0fed74c)" style="stroke: #000000; stroke-linejoin: miter"/>
   </g>
   <g id="patch_133">
    <path d="M 338.109421 107.789548 
L 345.344372 107.789548 
L 345.344372 100.554587 
L 338.109421 100.554587 
z
" clip-path="url(#pf4e0fed74c)" style="stroke: #000000; stroke-linejoin: miter"/>
   </g>
   <g id="patch_134">
    <path d="M 351.372092 107.772391 
L 358.572735 107.772391 
L 358.572735 100.571747 
L 351.372092 100.571747 
z
" clip-path="url(#pf4e0fed74c)" style="stroke: #000000; stroke-linejoin: miter"/>
   </g>
   <g id="patch_135">
    <path d="M 364.609449 107.780541 
L 371.826388 107.780541 
L 371.826388 100.563593 
L 364.609449 100.563593 
z
" clip-path="url(#pf4e0fed74c)" style="stroke: #000000; stroke-linejoin: miter"/>
   </g>
   <g id="patch_136">
    <path d="M 377.868154 107.767373 
L 385.058768 107.767373 
L 385.058768 100.576762 
L 377.868154 100.576762 
z
" clip-path="url(#pf4e0fed74c)" style="stroke: #000000; stroke-linejoin: miter"/>
   </g>
   <g id="patch_137">
    <path d="M 391.131002 107.750023 
L 398.286903 107.750023 
L 398.286903 100.594112 
L 391.131002 100.594112 
z
" clip-path="url(#pf4e0fed74c)" style="stroke: #000000; stroke-linejoin: miter"/>
   </g>
   <g id="patch_138">
    <path d="M 46.042317 95.209754 
L 54.608718 95.209754 
L 54.608718 86.643355 
L 46.042317 86.643355 
z
" clip-path="url(#pf4e0fed74c)" style="stroke: #000000; stroke-linejoin: miter"/>
   </g>
   <g id="patch_139">
    <path d="M 59.806527 94.691057 
L 67.335542 94.691057 
L 67.335542 87.162041 
L 59.806527 87.162041 
z
" clip-path="url(#pf4e0fed74c)" style="stroke: #000000; stroke-linejoin: miter"/>
   </g>
   <g id="patch_140">
    <path d="M 73.05787 94.685233 
L 80.575233 94.685233 
L 80.575233 87.16787 
L 73.05787 87.16787 
z
" clip-path="url(#pf4e0fed74c)" style="stroke: #000000; stroke-linejoin: miter"/>
   </g>
   <g id="patch_141">
    <path d="M 86.27315 94.715468 
L 93.850988 94.715468 
L 93.850988 87.137629 
L 86.27315 87.137629 
z
" clip-path="url(#pf4e0fed74c)" style="stroke: #000000; stroke-linejoin: miter"/>
   </g>
   <g id="patch_142">
    <path d="M 99.49527 94.738868 
L 107.119903 94.738868 
L 107.119903 87.114235 
L 99.49527 87.114235 
z
" clip-path="url(#pf4e0fed74c)" style="stroke: #000000; stroke-linejoin: miter"/>
   </g>
   <g id="patch_143">
    <path d="M 112.760802 94.718853 
L 120.345405 94.718853 
L 120.345405 87.13425 
L 112.760802 87.13425 
z
" clip-path="url(#pf4e0fed74c)" style="stroke: #000000; stroke-linejoin: miter"/>
   </g>
   <g id="patch_144">
    <path d="M 126.071677 94.653496 
L 133.525565 94.653496 
L 133.525565 87.199608 
L 126.071677 87.199608 
z
" clip-path="url(#pf4e0fed74c)" style="stroke: #000000; stroke-linejoin: miter"/>
   </g>
   <g id="patch_145">
    <path d="M 139.335946 94.634744 
L 146.752323 94.634744 
L 146.752323 87.218366 
L 139.335946 87.218366 
z
" clip-path="url(#pf4e0fed74c)" style="stroke: #000000; stroke-linejoin: miter"/>
   </g>
   <g id="patch_146">
    <path d="M 152.612873 94.603334 
L 159.966438 94.603334 
L 159.966438 87.249763 
L 152.612873 87.249763 
z
" clip-path="url(#pf4e0fed74c)" style="stroke: #000000; stroke-linejoin: miter"/>
   </g>
   <g id="patch_147">
    <path d="M 165.866386 94.595338 
L 173.203959 94.595338 
L 173.203959 87.257759 
L 165.866386 87.257759 
z
" clip-path="url(#pf4e0fed74c)" style="stroke: #000000; stroke-linejoin: miter"/>
   </g>
   <g id="patch_148">
    <path d="M 179.109933 94.597309 
L 186.451447 94.597309 
L 186.451447 87.255795 
L 179.109933 87.255795 
z
" clip-path="url(#pf4e0fed74c)" style="stroke: #000000; stroke-linejoin: miter"/>
   </g>
   <g id="patch_149">
    <path d="M 192.370936 94.581822 
L 199.681477 94.581822 
L 199.681477 87.271281 
L 192.370936 87.271281 
z
" clip-path="url(#pf4e0fed74c)" style="stroke: #000000; stroke-linejoin: miter"/>
   </g>
   <g id="patch_150">
    <path d="M 205.609974 94.588302 
L 212.933487 94.588302 
L 212.933487 87.264795 
L 205.609974 87.264795 
z
" clip-path="url(#pf4e0fed74c)" style="stroke: #000000; stroke-linejoin: miter"/>
   </g>
   <g id="patch_151">
    <path d="M 218.862236 94.581557 
L 226.172247 94.581557 
L 226.172247 87.271547 
L 218.862236 87.271547 
z
" clip-path="url(#pf4e0fed74c)" style="stroke: #000000; stroke-linejoin: miter"/>
   </g>
   <g id="patch_152">
    <path d="M 232.099593 94.589711 
L 239.425911 94.589711 
L 239.425911 87.263393 
L 232.099593 87.263393 
z
" clip-path="url(#pf4e0fed74c)" style="stroke: #000000; stroke-linejoin: miter"/>
   </g>
   <g id="patch_153">
    <path d="M 245.354787 94.580041 
L 252.661765 94.580041 
L 252.661765 87.273062 
L 245.354787 87.273062 
z
" clip-path="url(#pf4e0fed74c)" style="stroke: #000000; stroke-linejoin: miter"/>
   </g>
   <g id="patch_154">
    <path d="M 258.597234 94.583111 
L 265.910352 94.583111 
L 265.910352 87.269993 
L 258.597234 87.269993 
z
" clip-path="url(#pf4e0fed74c)" style="stroke: #000000; stroke-linejoin: miter"/>
   </g>
   <g id="patch_155">
    <path d="M 271.845758 94.580104 
L 279.152863 94.580104 
L 279.152863 87.272999 
L 271.845758 87.272999 
z
" clip-path="url(#pf4e0fed74c)" style="stroke: #000000; stroke-linejoin: miter"/>
   </g>
   <g id="patch_156">
    <path d="M 285.096808 94.574578 
L 292.392873 94.574578 
L 292.392873 87.278519 
L 285.096808 87.278519 
z
" clip-path="url(#pf4e0fed74c)" style="stroke: #000000; stroke-linejoin: miter"/>
   </g>
   <g id="patch_157">
    <path d="M 298.364456 94.552447 
L 305.616259 94.552447 
L 305.616259 87.300657 
L 298.364456 87.300657 
z
" clip-path="url(#pf4e0fed74c)" style="stroke: #000000; stroke-linejoin: miter"/>
   </g>
   <g id="patch_158">
    <path d="M 311.620483 94.541918 
L 318.851216 94.541918 
L 318.851216 87.311186 
L 311.620483 87.311186 
z
" clip-path="url(#pf4e0fed74c)" style="stroke: #000000; stroke-linejoin: miter"/>
   </g>
   <g id="patch_159">
    <path d="M 324.873074 94.534857 
L 332.089684 94.534857 
L 332.089684 87.318247 
L 324.873074 87.318247 
z
" clip-path="url(#pf4e0fed74c)" style="stroke: #000000; stroke-linejoin: miter"/>
   </g>
   <g id="patch_160">
    <path d="M 338.126322 94.527126 
L 345.327471 94.527126 
L 345.327471 87.325984 
L 338.126322 87.325984 
z
" clip-path="url(#pf4e0fed74c)" style="stroke: #000000; stroke-linejoin: miter"/>
   </g>
   <g id="patch_161">
    <path d="M 351.389474 94.509492 
L 358.555354 94.509492 
L 358.555354 87.343605 
L 351.389474 87.343605 
z
" clip-path="url(#pf4e0fed74c)" style="stroke: #000000; stroke-linejoin: miter"/>
   </g>
   <g id="patch_162">
    <path d="M 364.602704 94.541779 
L 371.833158 94.541779 
L 371.833158 87.311324 
L 364.602704 87.311324 
z
" clip-path="url(#pf4e0fed74c)" style="stroke: #000000; stroke-linejoin: miter"/>
   </g>
   <g id="patch_163">
    <path d="M 377.875506 94.514494 
L 385.051391 94.514494 
L 385.051391 87.338609 
L 377.875506 87.338609 
z
" clip-path="url(#pf4e0fed74c)" style="stroke: #000000; stroke-linejoin: miter"/>
   </g>
   <g id="patch_164">
    <path d="M 391.126051 94.509479 
L 398.291906 94.509479 
L 398.291906 87.343624 
L 391.126051 87.343624 
z
" clip-path="url(#pf4e0fed74c)" style="stroke: #000000; stroke-linejoin: miter"/>
   </g>
   <g id="patch_165">
    <path d="M 46.555545 81.451009 
L 54.09549 81.451009 
L 54.09549 73.911066 
L 46.555545 73.911066 
z
" clip-path="url(#pf4e0fed74c)" style="stroke: #000000; stroke-linejoin: miter"/>
   </g>
   <g id="patch_166">
    <path d="M 60.41939 80.832677 
L 66.72268 80.832677 
L 66.72268 74.529386 
L 60.41939 74.529386 
z
" clip-path="url(#pf4e0fed74c)" style="stroke: #000000; stroke-linejoin: miter"/>
   </g>
   <g id="patch_167">
    <path d="M 73.701899 80.795684 
L 79.931205 80.795684 
L 79.931205 74.566378 
L 73.701899 74.566378 
z
" clip-path="url(#pf4e0fed74c)" style="stroke: #000000; stroke-linejoin: miter"/>
   </g>
   <g id="patch_168">
    <path d="M 86.912047 80.83106 
L 93.212095 80.83106 
L 93.212095 74.531015 
L 86.912047 74.531015 
z
" clip-path="url(#pf4e0fed74c)" style="stroke: #000000; stroke-linejoin: miter"/>
   </g>
   <g id="patch_169">
    <path d="M 100.106032 80.882586 
L 106.509137 80.882586 
L 106.509137 74.479477 
L 100.106032 74.479477 
z
" clip-path="url(#pf4e0fed74c)" style="stroke: #000000; stroke-linejoin: miter"/>
   </g>
   <g id="patch_170">
    <path d="M 113.366976 80.867162 
L 119.739231 80.867162 
L 119.739231 74.494907 
L 113.366976 74.494907 
z
" clip-path="url(#pf4e0fed74c)" style="stroke: #000000; stroke-linejoin: miter"/>
   </g>
   <g id="patch_171">
    <path d="M 126.645481 80.834174 
L 132.951766 80.834174 
L 132.951766 74.527889 
L 126.645481 74.527889 
z
" clip-path="url(#pf4e0fed74c)" style="stroke: #000000; stroke-linejoin: miter"/>
   </g>
   <g id="patch_172">
    <path d="M 139.919572 80.8056 
L 146.168704 80.8056 
L 146.168704 74.556468 
L 139.919572 74.556468 
z
" clip-path="url(#pf4e0fed74c)" style="stroke: #000000; stroke-linejoin: miter"/>
   </g>
   <g id="patch_173">
    <path d="M 153.202878 80.767812 
L 159.376426 80.767812 
L 159.376426 74.594257 
L 153.202878 74.594257 
z
" clip-path="url(#pf4e0fed74c)" style="stroke: #000000; stroke-linejoin: miter"/>
   </g>
   <g id="patch_174">
    <path d="M 166.468296 80.747911 
L 172.602048 80.747911 
L 172.602048 74.614152 
L 166.468296 74.614152 
z
" clip-path="url(#pf4e0fed74c)" style="stroke: #000000; stroke-linejoin: miter"/>
   </g>
   <g id="patch_175">
    <path d="M 179.720938 80.740792 
L 185.840454 80.740792 
L 185.840454 74.621276 
L 179.720938 74.621276 
z
" clip-path="url(#pf4e0fed74c)" style="stroke: #000000; stroke-linejoin: miter"/>
   </g>
   <g id="patch_176">
    <path d="M 192.982927 80.724314 
L 199.069487 80.724314 
L 199.069487 74.637755 
L 192.982927 74.637755 
z
" clip-path="url(#pf4e0fed74c)" style="stroke: #000000; stroke-linejoin: miter"/>
   </g>
   <g id="patch_177">
    <path d="M 206.233611 80.719141 
L 212.309825 80.719141 
L 212.309825 74.642921 
L 206.233611 74.642921 
z
" clip-path="url(#pf4e0fed74c)" style="stroke: #000000; stroke-linejoin: miter"/>
   </g>
   <g id="patch_178">
    <path d="M 219.485419 80.712851 
L 225.549051 80.712851 
L 225.549051 74.649212 
L 219.485419 74.649212 
z
" clip-path="url(#pf4e0fed74c)" style="stroke: #000000; stroke-linejoin: miter"/>
   </g>
   <g id="patch_179">
    <path d="M 232.715803 80.72799 
L 238.809714 80.72799 
L 238.809714 74.634073 
L 232.715803 74.634073 
z
" clip-path="url(#pf4e0fed74c)" style="stroke: #000000; stroke-linejoin: miter"/>
   </g>
   <g id="patch_180">
    <path d="M 245.995111 80.6942 
L 252.021441 80.6942 
L 252.021441 74.667876 
L 245.995111 74.667876 
z
" clip-path="url(#pf4e0fed74c)" style="stroke: #000000; stroke-linejoin: miter"/>
   </g>
   <g id="patch_181">
    <path d="M 259.288579 80.646249 
L 265.219008 80.646249 
L 265.219008 74.71582 
L 259.288579 74.71582 
z
" clip-path="url(#pf4e0fed74c)" style="stroke: #000000; stroke-linejoin: miter"/>
   </g>
   <g id="patch_182">
    <path d="M 272.530862 80.649476 
L 278.467759 80.649476 
L 278.467759 74.712593 
L 272.530862 74.712593 
z
" clip-path="url(#pf4e0fed74c)" style="stroke: #000000; stroke-linejoin: miter"/>
   </g>
   <g id="patch_183">
    <path d="M 285.754526 80.671342 
L 291.735129 80.671342 
L 291.735129 74.690733 
L 285.754526 74.690733 
z
" clip-path="url(#pf4e0fed74c)" style="stroke: #000000; stroke-linejoin: miter"/>
   </g>
   <g id="patch_184">
    <path d="M 299.010073 80.661312 
L 304.970642 80.661312 
L 304.970642 74.70075 
L 299.010073 74.70075 
z
" clip-path="url(#pf4e0fed74c)" style="stroke: #000000; stroke-linejoin: miter"/>
   </g>
   <g id="patch_185">
    <path d="M 312.28568 80.631223 
L 318.18607 80.631223 
L 318.18607 74.730839 
L 312.28568 74.730839 
z
" clip-path="url(#pf4e0fed74c)" style="stroke: #000000; stroke-linejoin: miter"/>
   </g>
   <g id="patch_186">
    <path d="M 325.544359 80.618055 
L 331.418399 80.618055 
L 331.418399 74.744014 
L 325.544359 74.744014 
z
" clip-path="url(#pf4e0fed74c)" style="stroke: #000000; stroke-linejoin: miter"/>
   </g>
   <g id="patch_187">
    <path d="M 338.841895 80.566036 
L 344.611898 80.566036 
L 344.611898 74.796039 
L 338.841895 74.796039 
z
" clip-path="url(#pf4e0fed74c)" style="stroke: #000000; stroke-linejoin: miter"/>
   </g>
   <g id="patch_188">
    <path d="M 352.043276 80.610185 
L 357.901577 80.610185 
L 357.901577 74.75189 
L 352.043276 74.75189 
z
" clip-path="url(#pf4e0fed74c)" style="stroke: #000000; stroke-linejoin: miter"/>
   </g>
   <g id="patch_189">
    <path d="M 365.383937 80.515022 
L 371.051925 80.515022 
L 371.051925 74.847047 
L 365.383937 74.847047 
z
" clip-path="url(#pf4e0fed74c)" style="stroke: #000000; stroke-linejoin: miter"/>
   </g>
   <g id="patch_190">
    <path d="M 378.666617 80.477866 
L 384.260279 80.477866 
L 384.260279 74.884197 
L 378.666617 74.884197 
z
" clip-path="url(#pf4e0fed74c)" style="stroke: #000000; stroke-linejoin: miter"/>
   </g>
   <g id="patch_191">
    <path d="M 391.950283 80.43973 
L 397.467674 80.43973 
L 397.467674 74.922345 
L 391.950283 74.922345 
z
" clip-path="url(#pf4e0fed74c)" style="stroke: #000000; stroke-linejoin: miter"/>
   </g>
   <g id="patch_192">
    <path d="M 46.519525 68.241512 
L 54.13151 68.241512 
L 54.13151 60.629529 
L 46.519525 60.629529 
z
" clip-path="url(#pf4e0fed74c)" style="stroke: #000000; stroke-linejoin: miter"/>
   </g>
   <g id="patch_193">
    <path d="M 60.379267 67.627285 
L 66.762802 67.627285 
L 66.762802 61.243749 
L 60.379267 61.243749 
z
" clip-path="url(#pf4e0fed74c)" style="stroke: #000000; stroke-linejoin: miter"/>
   </g>
   <g id="patch_194">
    <path d="M 73.63143 67.620641 
L 80.001672 67.620641 
L 80.001672 61.2504 
L 73.63143 61.2504 
z
" clip-path="url(#pf4e0fed74c)" style="stroke: #000000; stroke-linejoin: miter"/>
   </g>
   <g id="patch_195">
    <path d="M 86.879977 67.617609 
L 93.244164 67.617609 
L 93.244164 61.253426 
L 86.879977 61.253426 
z
" clip-path="url(#pf4e0fed74c)" style="stroke: #000000; stroke-linejoin: miter"/>
   </g>
   <g id="patch_196">
    <path d="M 100.088852 67.654248 
L 106.526317 67.654248 
L 106.526317 61.21678 
L 100.088852 61.21678 
z
" clip-path="url(#pf4e0fed74c)" style="stroke: #000000; stroke-linejoin: miter"/>
   </g>
   <g id="patch_197">
    <path d="M 113.374473 67.614148 
L 119.731734 67.614148 
L 119.731734 61.256887 
L 113.374473 61.256887 
z
" clip-path="url(#pf4e0fed74c)" style="stroke: #000000; stroke-linejoin: miter"/>
   </g>
   <g id="patch_198">
    <path d="M 126.602192 67.631946 
L 132.99505 67.631946 
L 132.99505 61.239088 
L 126.602192 61.239088 
z
" clip-path="url(#pf4e0fed74c)" style="stroke: #000000; stroke-linejoin: miter"/>
   </g>
   <g id="patch_199">
    <path d="M 139.871223 67.608432 
L 146.217046 67.608432 
L 146.217046 61.262609 
L 139.871223 61.262609 
z
" clip-path="url(#pf4e0fed74c)" style="stroke: #000000; stroke-linejoin: miter"/>
   </g>
   <g id="patch_200">
    <path d="M 153.170331 67.554841 
L 159.408979 67.554841 
L 159.408979 61.316193 
L 153.170331 61.316193 
z
" clip-path="url(#pf4e0fed74c)" style="stroke: #000000; stroke-linejoin: miter"/>
   </g>
   <g id="patch_201">
    <path d="M 166.427824 67.542866 
L 172.642521 67.542866 
L 172.642521 61.328169 
L 166.427824 61.328169 
z
" clip-path="url(#pf4e0fed74c)" style="stroke: #000000; stroke-linejoin: miter"/>
   </g>
   <g id="patch_202">
    <path d="M 179.65241 67.563797 
L 185.908969 67.563797 
L 185.908969 61.307244 
L 179.65241 61.307244 
z
" clip-path="url(#pf4e0fed74c)" style="stroke: #000000; stroke-linejoin: miter"/>
   </g>
   <g id="patch_203">
    <path d="M 192.893784 67.56794 
L 199.15863 67.56794 
L 199.15863 61.303094 
L 192.893784 61.303094 
z
" clip-path="url(#pf4e0fed74c)" style="stroke: #000000; stroke-linejoin: miter"/>
   </g>
   <g id="patch_204">
    <path d="M 206.158274 67.548973 
L 212.385187 67.548973 
L 212.385187 61.322067 
L 206.158274 61.322067 
z
" clip-path="url(#pf4e0fed74c)" style="stroke: #000000; stroke-linejoin: miter"/>
   </g>
   <g id="patch_205">
    <path d="M 219.401417 67.551348 
L 225.633079 67.551348 
L 225.633079 61.319686 
L 219.401417 61.319686 
z
" clip-path="url(#pf4e0fed74c)" style="stroke: #000000; stroke-linejoin: miter"/>
   </g>
   <g id="patch_206">
    <path d="M 232.668598 67.529678 
L 238.85692 67.529678 
L 238.85692 61.341356 
L 232.668598 61.341356 
z
" clip-path="url(#pf4e0fed74c)" style="stroke: #000000; stroke-linejoin: miter"/>
   </g>
   <g id="patch_207">
    <path d="M 245.901407 67.54238 
L 252.115132 67.54238 
L 252.115132 61.328649 
L 245.901407 61.328649 
z
" clip-path="url(#pf4e0fed74c)" style="stroke: #000000; stroke-linejoin: miter"/>
   </g>
   <g id="patch_208">
    <path d="M 259.161944 67.527367 
L 265.345655 67.527367 
L 265.345655 61.343662 
L 259.161944 61.343662 
z
" clip-path="url(#pf4e0fed74c)" style="stroke: #000000; stroke-linejoin: miter"/>
   </g>
   <g id="patch_209">
    <path d="M 272.405478 67.52935 
L 278.593143 67.52935 
L 278.593143 61.341685 
L 272.405478 61.341685 
z
" clip-path="url(#pf4e0fed74c)" style="stroke: #000000; stroke-linejoin: miter"/>
   </g>
   <g id="patch_210">
    <path d="M 285.650667 67.529685 
L 291.839014 67.529685 
L 291.839014 61.341344 
L 285.650667 61.341344 
z
" clip-path="url(#pf4e0fed74c)" style="stroke: #000000; stroke-linejoin: miter"/>
   </g>
   <g id="patch_211">
    <path d="M 298.933145 67.492711 
L 305.04752 67.492711 
L 305.04752 61.378324 
L 298.933145 61.378324 
z
" clip-path="url(#pf4e0fed74c)" style="stroke: #000000; stroke-linejoin: miter"/>
   </g>
   <g id="patch_212">
    <path d="M 312.180304 67.491088 
L 318.291445 67.491088 
L 318.291445 61.379947 
L 312.180304 61.379947 
z
" clip-path="url(#pf4e0fed74c)" style="stroke: #000000; stroke-linejoin: miter"/>
   </g>
   <g id="patch_213">
    <path d="M 325.445199 67.471698 
L 331.51756 67.471698 
L 331.51756 61.399343 
L 325.445199 61.399343 
z
" clip-path="url(#pf4e0fed74c)" style="stroke: #000000; stroke-linejoin: miter"/>
   </g>
   <g id="patch_214">
    <path d="M 338.711407 67.450994 
L 344.742361 67.450994 
L 344.742361 61.42004 
L 338.711407 61.42004 
z
" clip-path="url(#pf4e0fed74c)" style="stroke: #000000; stroke-linejoin: miter"/>
   </g>
   <g id="patch_215">
    <path d="M 351.983173 67.424764 
L 357.961679 67.424764 
L 357.961679 61.446271 
L 351.983173 61.446271 
z
" clip-path="url(#pf4e0fed74c)" style="stroke: #000000; stroke-linejoin: miter"/>
   </g>
   <g id="patch_216">
    <path d="M 365.22048 67.432981 
L 371.215407 67.432981 
L 371.215407 61.438054 
L 365.22048 61.438054 
z
" clip-path="url(#pf4e0fed74c)" style="stroke: #000000; stroke-linejoin: miter"/>
   </g>
   <g id="patch_217">
    <path d="M 378.486132 67.412839 
L 384.440789 67.412839 
L 384.440789 61.458195 
L 378.486132 61.458195 
z
" clip-path="url(#pf4e0fed74c)" style="stroke: #000000; stroke-linejoin: miter"/>
   </g>
   <g id="patch_218">
    <path d="M 391.759693 67.384784 
L 397.658213 67.384784 
L 397.658213 61.486251 
L 391.759693 61.486251 
z
" clip-path="url(#pf4e0fed74c)" style="stroke: #000000; stroke-linejoin: miter"/>
   </g>
   <g id="patch_219">
    <path d="M 45.558847 55.95667 
L 55.092187 55.95667 
L 55.092187 46.423324 
L 45.558847 46.423324 
z
" clip-path="url(#pf4e0fed74c)" style="stroke: #000000; stroke-linejoin: miter"/>
   </g>
   <g id="patch_220">
    <path d="M 59.105561 55.655475 
L 68.036506 55.655475 
L 68.036506 46.724532 
L 59.105561 46.724532 
z
" clip-path="url(#pf4e0fed74c)" style="stroke: #000000; stroke-linejoin: miter"/>
   </g>
   <g id="patch_221">
    <path d="M 72.554081 55.452474 
L 81.079022 55.452474 
L 81.079022 46.927539 
L 72.554081 46.927539 
z
" clip-path="url(#pf4e0fed74c)" style="stroke: #000000; stroke-linejoin: miter"/>
   </g>
   <g id="patch_222">
    <path d="M 86.094197 55.157872 
L 94.029944 55.157872 
L 94.029944 47.222128 
L 86.094197 47.222128 
z
" clip-path="url(#pf4e0fed74c)" style="stroke: #000000; stroke-linejoin: miter"/>
   </g>
   <g id="patch_223">
    <path d="M 99.617442 54.880147 
L 106.997733 54.880147 
L 106.997733 47.499853 
L 99.617442 47.499853 
z
" clip-path="url(#pf4e0fed74c)" style="stroke: #000000; stroke-linejoin: miter"/>
   </g>
   <g id="patch_224">
    <path d="M 112.987109 54.755994 
L 120.119098 54.755994 
L 120.119098 47.623999 
L 112.987109 47.623999 
z
" clip-path="url(#pf4e0fed74c)" style="stroke: #000000; stroke-linejoin: miter"/>
   </g>
   <g id="patch_225">
    <path d="M 126.340358 54.648263 
L 133.256884 54.648263 
L 133.256884 47.731737 
L 126.340358 47.731737 
z
" clip-path="url(#pf4e0fed74c)" style="stroke: #000000; stroke-linejoin: miter"/>
   </g>
   <g id="patch_226">
    <path d="M 139.562057 54.672081 
L 146.526225 54.672081 
L 146.526225 47.707913 
L 139.562057 47.707913 
z
" clip-path="url(#pf4e0fed74c)" style="stroke: #000000; stroke-linejoin: miter"/>
   </g>
   <g id="patch_227">
    <path d="M 152.877896 54.601759 
L 159.701408 54.601759 
L 159.701408 47.778248 
L 152.877896 47.778248 
z
" clip-path="url(#pf4e0fed74c)" style="stroke: #000000; stroke-linejoin: miter"/>
   </g>
   <g id="patch_228">
    <path d="M 166.037611 54.687561 
L 173.032733 54.687561 
L 173.032733 47.692439 
L 166.037611 47.692439 
z
" clip-path="url(#pf4e0fed74c)" style="stroke: #000000; stroke-linejoin: miter"/>
   </g>
   <g id="patch_229">
    <path d="M 179.419642 54.551042 
L 186.141725 54.551042 
L 186.141725 47.828952 
L 179.419642 47.828952 
z
" clip-path="url(#pf4e0fed74c)" style="stroke: #000000; stroke-linejoin: miter"/>
   </g>
   <g id="patch_230">
    <path d="M 192.593662 54.622538 
L 199.458739 54.622538 
L 199.458739 47.757455 
L 192.593662 47.757455 
z
" clip-path="url(#pf4e0fed74c)" style="stroke: #000000; stroke-linejoin: miter"/>
   </g>
   <g id="patch_231">
    <path d="M 205.828607 54.633117 
L 212.714842 54.633117 
L 212.714842 47.746883 
L 205.828607 47.746883 
z
" clip-path="url(#pf4e0fed74c)" style="stroke: #000000; stroke-linejoin: miter"/>
   </g>
   <g id="patch_232">
    <path d="M 219.138913 54.568328 
L 225.89557 54.568328 
L 225.89557 47.811672 
L 219.138913 47.811672 
z
" clip-path="url(#pf4e0fed74c)" style="stroke: #000000; stroke-linejoin: miter"/>
   </g>
   <g id="patch_233">
    <path d="M 232.464327 54.488438 
L 239.061203 54.488438 
L 239.061203 47.891568 
L 232.464327 47.891568 
z
" clip-path="url(#pf4e0fed74c)" style="stroke: #000000; stroke-linejoin: miter"/>
   </g>
   <g id="patch_234">
    <path d="M 245.666226 54.53205 
L 252.350325 54.53205 
L 252.350325 47.84795 
L 245.666226 47.84795 
z
" clip-path="url(#pf4e0fed74c)" style="stroke: #000000; stroke-linejoin: miter"/>
   </g>
   <g id="patch_235">
    <path d="M 258.959164 54.484629 
L 265.548423 54.484629 
L 265.548423 47.895371 
L 258.959164 47.895371 
z
" clip-path="url(#pf4e0fed74c)" style="stroke: #000000; stroke-linejoin: miter"/>
   </g>
   <g id="patch_236">
    <path d="M 272.157109 54.532195 
L 278.841512 54.532195 
L 278.841512 47.847799 
L 272.157109 47.847799 
z
" clip-path="url(#pf4e0fed74c)" style="stroke: #000000; stroke-linejoin: miter"/>
   </g>
   <g id="patch_237">
    <path d="M 285.465811 54.469023 
L 292.023869 54.469023 
L 292.023869 47.910971 
L 285.465811 47.910971 
z
" clip-path="url(#pf4e0fed74c)" style="stroke: #000000; stroke-linejoin: miter"/>
   </g>
   <g id="patch_238">
    <path d="M 298.627907 54.552425 
L 305.352757 54.552425 
L 305.352757 47.827575 
L 298.627907 47.827575 
z
" clip-path="url(#pf4e0fed74c)" style="stroke: #000000; stroke-linejoin: miter"/>
   </g>
   <g id="patch_239">
    <path d="M 311.953814 54.472048 
L 318.51791 54.472048 
L 318.51791 47.907952 
L 311.953814 47.907952 
z
" clip-path="url(#pf4e0fed74c)" style="stroke: #000000; stroke-linejoin: miter"/>
   </g>
   <g id="patch_240">
    <path d="M 325.239172 54.432213 
L 331.723612 54.432213 
L 331.723612 47.94778 
L 325.239172 47.94778 
z
" clip-path="url(#pf4e0fed74c)" style="stroke: #000000; stroke-linejoin: miter"/>
   </g>
   <g id="patch_241">
    <path d="M 338.501869 54.415021 
L 344.951924 54.415021 
L 344.951924 47.964972 
L 338.501869 47.964972 
z
" clip-path="url(#pf4e0fed74c)" style="stroke: #000000; stroke-linejoin: miter"/>
   </g>
   <g id="patch_242">
    <path d="M 351.71899 54.44343 
L 358.225863 54.44343 
L 358.225863 47.936563 
L 351.71899 47.936563 
z
" clip-path="url(#pf4e0fed74c)" style="stroke: #000000; stroke-linejoin: miter"/>
   </g>
   <g id="patch_243">
    <path d="M 364.991463 54.416455 
L 371.444373 54.416455 
L 371.444373 47.963545 
L 364.991463 47.963545 
z
" clip-path="url(#pf4e0fed74c)" style="stroke: #000000; stroke-linejoin: miter"/>
   </g>
   <g id="patch_244">
    <path d="M 378.198807 54.454629 
L 384.728064 54.454629 
L 384.728064 47.925371 
L 378.198807 47.925371 
z
" clip-path="url(#pf4e0fed74c)" style="stroke: #000000; stroke-linejoin: miter"/>
   </g>
   <g id="patch_245">
    <path d="M 391.511854 54.387124 
L 397.906102 54.387124 
L 397.906102 47.992876 
L 391.511854 47.992876 
z
" clip-path="url(#pf4e0fed74c)" style="stroke: #000000; stroke-linejoin: miter"/>
   </g>
   <g id="matplotlib.axis_1">
    <g id="xtick_1">
     <g id="line2d_1">
      <defs>
       <path id="m7b0b5ac617" d="M 0 0 
L 0 3.5 
" style="stroke: #000000; stroke-width: 0.8"/>
      </defs>
      <g>
       <use xlink:href="#m7b0b5ac617" x="50.325517" y="170.399655" style="stroke: #000000; stroke-width: 0.8"/>
      </g>
     </g>
     <g id="text_1">
      <!-- 1 -->
      <g transform="translate(47.144267 191.498093) scale(0.1 -0.1)">
       <defs>
        <path id="DejaVuSans-31" d="M 794 531 
L 1825 531 
L 1825 4091 
L 703 3866 
L 703 4441 
L 1819 4666 
L 2450 4666 
L 2450 531 
L 3481 531 
L 3481 0 
L 794 0 
L 794 531 
z
" transform="scale(0.015625)"/>
       </defs>
       <use xlink:href="#DejaVuSans-31"/>
      </g>
     </g>
    </g>
    <g id="xtick_2">
     <g id="line2d_2">
      <g>
       <use xlink:href="#m7b0b5ac617" x="394.708966" y="170.399655" style="stroke: #000000; stroke-width: 0.8"/>
      </g>
     </g>
     <g id="text_2">
      <!-- 1000 -->
      <g transform="translate(381.983966 191.498093) scale(0.1 -0.1)">
       <defs>
        <path id="DejaVuSans-30" d="M 2034 4250 
Q 1547 4250 1301 3770 
Q 1056 3291 1056 2328 
Q 1056 1369 1301 889 
Q 1547 409 2034 409 
Q 2525 409 2770 889 
Q 3016 1369 3016 2328 
Q 3016 3291 2770 3770 
Q 2525 4250 2034 4250 
z
M 2034 4750 
Q 2819 4750 3233 4129 
Q 3647 3509 3647 2328 
Q 3647 1150 3233 529 
Q 2819 -91 2034 -91 
Q 1250 -91 836 529 
Q 422 1150 422 2328 
Q 422 3509 836 4129 
Q 1250 4750 2034 4750 
z
" transform="scale(0.015625)"/>
       </defs>
       <use xlink:href="#DejaVuSans-31"/>
       <use xlink:href="#DejaVuSans-30" x="63.623047"/>
       <use xlink:href="#DejaVuSans-30" x="127.246094"/>
       <use xlink:href="#DejaVuSans-30" x="190.869141"/>
      </g>
     </g>
    </g>
    <g id="text_3">
     <!-- Epoch -->
     <g transform="translate(213.829062 205.176218) scale(0.1 -0.1)">
      <defs>
       <path id="DejaVuSans-45" d="M 628 4666 
L 3578 4666 
L 3578 4134 
L 1259 4134 
L 1259 2753 
L 3481 2753 
L 3481 2222 
L 1259 2222 
L 1259 531 
L 3634 531 
L 3634 0 
L 628 0 
L 628 4666 
z
" transform="scale(0.015625)"/>
       <path id="DejaVuSans-70" d="M 1159 525 
L 1159 -1331 
L 581 -1331 
L 581 3500 
L 1159 3500 
L 1159 2969 
Q 1341 3281 1617 3432 
Q 1894 3584 2278 3584 
Q 2916 3584 3314 3078 
Q 3713 2572 3713 1747 
Q 3713 922 3314 415 
Q 2916 -91 2278 -91 
Q 1894 -91 1617 61 
Q 1341 213 1159 525 
z
M 3116 1747 
Q 3116 2381 2855 2742 
Q 2594 3103 2138 3103 
Q 1681 3103 1420 2742 
Q 1159 2381 1159 1747 
Q 1159 1113 1420 752 
Q 1681 391 2138 391 
Q 2594 391 2855 752 
Q 3116 1113 3116 1747 
z
" transform="scale(0.015625)"/>
       <path id="DejaVuSans-6f" d="M 1959 3097 
Q 1497 3097 1228 2736 
Q 959 2375 959 1747 
Q 959 1119 1226 758 
Q 1494 397 1959 397 
Q 2419 397 2687 759 
Q 2956 1122 2956 1747 
Q 2956 2369 2687 2733 
Q 2419 3097 1959 3097 
z
M 1959 3584 
Q 2709 3584 3137 3096 
Q 3566 2609 3566 1747 
Q 3566 888 3137 398 
Q 2709 -91 1959 -91 
Q 1206 -91 779 398 
Q 353 888 353 1747 
Q 353 2609 779 3096 
Q 1206 3584 1959 3584 
z
" transform="scale(0.015625)"/>
       <path id="DejaVuSans-63" d="M 3122 3366 
L 3122 2828 
Q 2878 2963 2633 3030 
Q 2388 3097 2138 3097 
Q 1578 3097 1268 2742 
Q 959 2388 959 1747 
Q 959 1106 1268 751 
Q 1578 397 2138 397 
Q 2388 397 2633 464 
Q 2878 531 3122 666 
L 3122 134 
Q 2881 22 2623 -34 
Q 2366 -91 2075 -91 
Q 1284 -91 818 406 
Q 353 903 353 1747 
Q 353 2603 823 3093 
Q 1294 3584 2113 3584 
Q 2378 3584 2631 3529 
Q 2884 3475 3122 3366 
z
" transform="scale(0.015625)"/>
       <path id="DejaVuSans-68" d="M 3513 2113 
L 3513 0 
L 2938 0 
L 2938 2094 
Q 2938 2591 2744 2837 
Q 2550 3084 2163 3084 
Q 1697 3084 1428 2787 
Q 1159 2491 1159 1978 
L 1159 0 
L 581 0 
L 581 4863 
L 1159 4863 
L 1159 2956 
Q 1366 3272 1645 3428 
Q 1925 3584 2291 3584 
Q 2894 3584 3203 3211 
Q 3513 2838 3513 2113 
z
" transform="scale(0.015625)"/>
      </defs>
      <use xlink:href="#DejaVuSans-45"/>
      <use xlink:href="#DejaVuSans-70" x="63.183594"/>
      <use xlink:href="#DejaVuSans-6f" x="126.660156"/>
      <use xlink:href="#DejaVuSans-63" x="187.841797"/>
      <use xlink:href="#DejaVuSans-68" x="242.822266"/>
     </g>
    </g>
   </g>
   <g id="matplotlib.axis_2">
    <g id="ytick_1">
     <g id="line2d_3">
      <defs>
       <path id="m13aee6532e" d="M 0 0 
L -3.5 0 
" style="stroke: #000000; stroke-width: 0.8"/>
      </defs>
      <g>
       <use xlink:href="#m13aee6532e" x="37.08" y="157.154138" style="stroke: #000000; stroke-width: 0.8"/>
      </g>
     </g>
     <g id="text_4">
      <!-- 2 -->
      <g transform="translate(17.2175 160.953357) scale(0.1 -0.1)">
       <defs>
        <path id="DejaVuSans-32" d="M 1228 531 
L 3431 531 
L 3431 0 
L 469 0 
L 469 531 
Q 828 903 1448 1529 
Q 2069 2156 2228 2338 
Q 2531 2678 2651 2914 
Q 2772 3150 2772 3378 
Q 2772 3750 2511 3984 
Q 2250 4219 1831 4219 
Q 1534 4219 1204 4116 
Q 875 4013 500 3803 
L 500 4441 
Q 881 4594 1212 4672 
Q 1544 4750 1819 4750 
Q 2544 4750 2975 4387 
Q 3406 4025 3406 3419 
Q 3406 3131 3298 2873 
Q 3191 2616 2906 2266 
Q 2828 2175 2409 1742 
Q 1991 1309 1228 531 
z
" transform="scale(0.015625)"/>
       </defs>
       <use xlink:href="#DejaVuSans-32"/>
      </g>
     </g>
    </g>
    <g id="ytick_2">
     <g id="line2d_4">
      <g>
       <use xlink:href="#m13aee6532e" x="37.08" y="143.908621" style="stroke: #000000; stroke-width: 0.8"/>
      </g>
     </g>
     <g id="text_5">
      <!-- 3 -->
      <g transform="translate(17.2175 147.707839) scale(0.1 -0.1)">
       <defs>
        <path id="DejaVuSans-33" d="M 2597 2516 
Q 3050 2419 3304 2112 
Q 3559 1806 3559 1356 
Q 3559 666 3084 287 
Q 2609 -91 1734 -91 
Q 1441 -91 1130 -33 
Q 819 25 488 141 
L 488 750 
Q 750 597 1062 519 
Q 1375 441 1716 441 
Q 2309 441 2620 675 
Q 2931 909 2931 1356 
Q 2931 1769 2642 2001 
Q 2353 2234 1838 2234 
L 1294 2234 
L 1294 2753 
L 1863 2753 
Q 2328 2753 2575 2939 
Q 2822 3125 2822 3475 
Q 2822 3834 2567 4026 
Q 2313 4219 1838 4219 
Q 1578 4219 1281 4162 
Q 984 4106 628 3988 
L 628 4550 
Q 988 4650 1302 4700 
Q 1616 4750 1894 4750 
Q 2613 4750 3031 4423 
Q 3450 4097 3450 3541 
Q 3450 3153 3228 2886 
Q 3006 2619 2597 2516 
z
" transform="scale(0.015625)"/>
       </defs>
       <use xlink:href="#DejaVuSans-33"/>
      </g>
     </g>
    </g>
    <g id="ytick_3">
     <g id="line2d_5">
      <g>
       <use xlink:href="#m13aee6532e" x="37.08" y="130.663103" style="stroke: #000000; stroke-width: 0.8"/>
      </g>
     </g>
     <g id="text_6">
      <!-- 5 -->
      <g transform="translate(17.2175 134.462322) scale(0.1 -0.1)">
       <defs>
        <path id="DejaVuSans-35" d="M 691 4666 
L 3169 4666 
L 3169 4134 
L 1269 4134 
L 1269 2991 
Q 1406 3038 1543 3061 
Q 1681 3084 1819 3084 
Q 2600 3084 3056 2656 
Q 3513 2228 3513 1497 
Q 3513 744 3044 326 
Q 2575 -91 1722 -91 
Q 1428 -91 1123 -41 
Q 819 9 494 109 
L 494 744 
Q 775 591 1075 516 
Q 1375 441 1709 441 
Q 2250 441 2565 725 
Q 2881 1009 2881 1497 
Q 2881 1984 2565 2268 
Q 2250 2553 1709 2553 
Q 1456 2553 1204 2497 
Q 953 2441 691 2322 
L 691 4666 
z
" transform="scale(0.015625)"/>
       </defs>
       <use xlink:href="#DejaVuSans-35"/>
      </g>
     </g>
    </g>
    <g id="ytick_4">
     <g id="line2d_6">
      <g>
       <use xlink:href="#m13aee6532e" x="37.08" y="117.417586" style="stroke: #000000; stroke-width: 0.8"/>
      </g>
     </g>
     <g id="text_7">
      <!-- 7 -->
      <g transform="translate(17.2175 121.216805) scale(0.1 -0.1)">
       <defs>
        <path id="DejaVuSans-37" d="M 525 4666 
L 3525 4666 
L 3525 4397 
L 1831 0 
L 1172 0 
L 2766 4134 
L 525 4134 
L 525 4666 
z
" transform="scale(0.015625)"/>
       </defs>
       <use xlink:href="#DejaVuSans-37"/>
      </g>
     </g>
    </g>
    <g id="ytick_5">
     <g id="line2d_7">
      <g>
       <use xlink:href="#m13aee6532e" x="37.08" y="104.172069" style="stroke: #000000; stroke-width: 0.8"/>
      </g>
     </g>
     <g id="text_8">
      <!-- 11 -->
      <g transform="translate(10.855 107.971288) scale(0.1 -0.1)">
       <use xlink:href="#DejaVuSans-31"/>
       <use xlink:href="#DejaVuSans-31" x="63.623047"/>
      </g>
     </g>
    </g>
    <g id="ytick_6">
     <g id="line2d_8">
      <g>
       <use xlink:href="#m13aee6532e" x="37.08" y="90.926552" style="stroke: #000000; stroke-width: 0.8"/>
      </g>
     </g>
     <g id="text_9">
      <!-- 13 -->
      <g transform="translate(10.855 94.72577) scale(0.1 -0.1)">
       <use xlink:href="#DejaVuSans-31"/>
       <use xlink:href="#DejaVuSans-33" x="63.623047"/>
      </g>
     </g>
    </g>
    <g id="ytick_7">
     <g id="line2d_9">
      <g>
       <use xlink:href="#m13aee6532e" x="37.08" y="77.681034" style="stroke: #000000; stroke-width: 0.8"/>
      </g>
     </g>
     <g id="text_10">
      <!-- 17 -->
      <g transform="translate(10.855 81.480253) scale(0.1 -0.1)">
       <use xlink:href="#DejaVuSans-31"/>
       <use xlink:href="#DejaVuSans-37" x="63.623047"/>
      </g>
     </g>
    </g>
    <g id="ytick_8">
     <g id="line2d_10">
      <g>
       <use xlink:href="#m13aee6532e" x="37.08" y="64.435517" style="stroke: #000000; stroke-width: 0.8"/>
      </g>
     </g>
     <g id="text_11">
      <!-- 19 -->
      <g transform="translate(10.855 68.234736) scale(0.1 -0.1)">
       <defs>
        <path id="DejaVuSans-39" d="M 703 97 
L 703 672 
Q 941 559 1184 500 
Q 1428 441 1663 441 
Q 2288 441 2617 861 
Q 2947 1281 2994 2138 
Q 2813 1869 2534 1725 
Q 2256 1581 1919 1581 
Q 1219 1581 811 2004 
Q 403 2428 403 3163 
Q 403 3881 828 4315 
Q 1253 4750 1959 4750 
Q 2769 4750 3195 4129 
Q 3622 3509 3622 2328 
Q 3622 1225 3098 567 
Q 2575 -91 1691 -91 
Q 1453 -91 1209 -44 
Q 966 3 703 97 
z
M 1959 2075 
Q 2384 2075 2632 2365 
Q 2881 2656 2881 3163 
Q 2881 3666 2632 3958 
Q 2384 4250 1959 4250 
Q 1534 4250 1286 3958 
Q 1038 3666 1038 3163 
Q 1038 2656 1286 2365 
Q 1534 2075 1959 2075 
z
" transform="scale(0.015625)"/>
       </defs>
       <use xlink:href="#DejaVuSans-31"/>
       <use xlink:href="#DejaVuSans-39" x="63.623047"/>
      </g>
     </g>
    </g>
    <g id="ytick_9">
     <g id="line2d_11">
      <g>
       <use xlink:href="#m13aee6532e" x="37.08" y="51.19" style="stroke: #000000; stroke-width: 0.8"/>
      </g>
     </g>
     <g id="text_12">
      <!--  -->
      <g transform="translate(16.5675 54.989219) scale(0.1 -0.1)">
       <defs>
        <path id="DejaVuSans-2119" d="M 938 4353 
L 938 313 
L 1569 313 
L 1569 4353 
L 938 4353 
z
M 1881 4353 
L 1881 2284 
L 2825 2284 
Q 2900 2284 2972 2291 
L 2972 4347 
Q 2900 4353 2825 4353 
L 1881 4353 
z
M 625 4666 
L 2678 4666 
Q 3459 4666 3861 4323 
Q 4263 3981 4263 3322 
Q 4263 2656 3861 2315 
Q 3459 1975 2675 1975 
L 1881 1975 
L 1881 0 
L 625 0 
L 625 4666 
z
M 3300 4281 
L 3300 2359 
Q 3488 2428 3628 2556 
Q 3919 2825 3919 3322 
Q 3919 3816 3631 4084 
Q 3494 4213 3300 4281 
z
" transform="scale(0.015625)"/>
       </defs>
       <use xlink:href="#DejaVuSans-2119"/>
      </g>
     </g>
    </g>
   </g>
  </g>
 </g>
 <defs>
  <clipPath id="pf4e0fed74c">
   <rect x="37.08" y="24.698966" width="384.12" height="145.70069"/>
  </clipPath>
 </defs>
</svg>
