<?xml version="1.0" encoding="utf-8" standalone="no"?>
<!DOCTYPE svg PUBLIC "-//W3C//DTD SVG 1.1//EN"
  "http://www.w3.org/Graphics/SVG/1.1/DTD/svg11.dtd">
<svg xmlns:xlink="http://www.w3.org/1999/xlink" width="864pt" height="432pt" viewBox="0 0 864 432" xmlns="http://www.w3.org/2000/svg" version="1.1">
 <metadata>
  <rdf:RDF xmlns:dc="http://purl.org/dc/elements/1.1/" xmlns:cc="http://creativecommons.org/ns#" xmlns:rdf="http://www.w3.org/1999/02/22-rdf-syntax-ns#">
   <cc:Work>
    <dc:type rdf:resource="http://purl.org/dc/dcmitype/StillImage"/>
    <dc:date>2024-09-18T20:42:15.436538</dc:date>
    <dc:format>image/svg+xml</dc:format>
    <dc:creator>
     <cc:Agent>
      <dc:title>Matplotlib v3.9.2, https://matplotlib.org/</dc:title>
     </cc:Agent>
    </dc:creator>
   </cc:Work>
  </rdf:RDF>
 </metadata>
 <defs>
  <style type="text/css">*{stroke-linejoin: round; stroke-linecap: butt}</style>
 </defs>
 <g id="figure_1">
  <g id="patch_1">
   <path d="M 0 432 
L 864 432 
L 864 0 
L 0 0 
z
" style="fill: #ffffff"/>
  </g>
  <g id="axes_1">
   <g id="patch_2">
    <path d="M 41.92 404.12 
L 853.2 404.12 
L 853.2 10.8 
L 41.92 10.8 
z
" style="fill: #ffffff"/>
   </g>
   <g id="matplotlib.axis_1">
    <g id="xtick_1">
     <g id="line2d_1">
      <defs>
       <path id="m4f93f8ad82" d="M 0 0 
L 0 3.5 
" style="stroke: #000000; stroke-width: 0.8"/>
      </defs>
      <g>
       <use xlink:href="#m4f93f8ad82" x="175.27364" y="404.12" style="stroke: #000000; stroke-width: 0.8"/>
      </g>
     </g>
     <g id="text_1">
      <!-- 500 -->
      <g transform="translate(166.243171 418.771563) scale(0.1 -0.1)">
       <defs>
        <path id="DejaVuSansMono-35" d="M 647 4666 
L 3009 4666 
L 3009 4134 
L 1222 4134 
L 1222 2988 
Q 1356 3038 1492 3061 
Q 1628 3084 1766 3084 
Q 2491 3084 2916 2656 
Q 3341 2228 3341 1497 
Q 3341 759 2895 334 
Q 2450 -91 1678 -91 
Q 1306 -91 998 -41 
Q 691 9 447 109 
L 447 750 
Q 734 594 1025 517 
Q 1316 441 1619 441 
Q 2141 441 2423 716 
Q 2706 991 2706 1497 
Q 2706 1997 2414 2275 
Q 2122 2553 1600 2553 
Q 1347 2553 1106 2495 
Q 866 2438 647 2322 
L 647 4666 
z
" transform="scale(0.015625)"/>
        <path id="DejaVuSansMono-30" d="M 1509 2344 
Q 1509 2516 1629 2641 
Q 1750 2766 1919 2766 
Q 2094 2766 2219 2641 
Q 2344 2516 2344 2344 
Q 2344 2169 2220 2047 
Q 2097 1925 1919 1925 
Q 1744 1925 1626 2044 
Q 1509 2163 1509 2344 
z
M 1925 4250 
Q 1484 4250 1267 3775 
Q 1050 3300 1050 2328 
Q 1050 1359 1267 884 
Q 1484 409 1925 409 
Q 2369 409 2586 884 
Q 2803 1359 2803 2328 
Q 2803 3300 2586 3775 
Q 2369 4250 1925 4250 
z
M 1925 4750 
Q 2672 4750 3055 4137 
Q 3438 3525 3438 2328 
Q 3438 1134 3055 521 
Q 2672 -91 1925 -91 
Q 1178 -91 797 521 
Q 416 1134 416 2328 
Q 416 3525 797 4137 
Q 1178 4750 1925 4750 
z
" transform="scale(0.015625)"/>
       </defs>
       <use xlink:href="#DejaVuSansMono-35"/>
       <use xlink:href="#DejaVuSansMono-30" x="60.205078"/>
       <use xlink:href="#DejaVuSansMono-30" x="120.410156"/>
      </g>
     </g>
    </g>
    <g id="xtick_2">
     <g id="line2d_2">
      <g>
       <use xlink:href="#m4f93f8ad82" x="311.348782" y="404.12" style="stroke: #000000; stroke-width: 0.8"/>
      </g>
     </g>
     <g id="text_2">
      <!-- 1000 -->
      <g transform="translate(299.308157 418.771563) scale(0.1 -0.1)">
       <defs>
        <path id="DejaVuSansMono-31" d="M 844 531 
L 1825 531 
L 1825 4097 
L 769 3859 
L 769 4434 
L 1819 4666 
L 2450 4666 
L 2450 531 
L 3419 531 
L 3419 0 
L 844 0 
L 844 531 
z
" transform="scale(0.015625)"/>
       </defs>
       <use xlink:href="#DejaVuSansMono-31"/>
       <use xlink:href="#DejaVuSansMono-30" x="60.205078"/>
       <use xlink:href="#DejaVuSansMono-30" x="120.410156"/>
       <use xlink:href="#DejaVuSansMono-30" x="180.615234"/>
      </g>
     </g>
    </g>
    <g id="xtick_3">
     <g id="line2d_3">
      <g>
       <use xlink:href="#m4f93f8ad82" x="447.423925" y="404.12" style="stroke: #000000; stroke-width: 0.8"/>
      </g>
     </g>
     <g id="text_3">
      <!-- 1500 -->
      <g transform="translate(435.3833 418.771563) scale(0.1 -0.1)">
       <use xlink:href="#DejaVuSansMono-31"/>
       <use xlink:href="#DejaVuSansMono-35" x="60.205078"/>
       <use xlink:href="#DejaVuSansMono-30" x="120.410156"/>
       <use xlink:href="#DejaVuSansMono-30" x="180.615234"/>
      </g>
     </g>
    </g>
    <g id="xtick_4">
     <g id="line2d_4">
      <g>
       <use xlink:href="#m4f93f8ad82" x="583.499067" y="404.12" style="stroke: #000000; stroke-width: 0.8"/>
      </g>
     </g>
     <g id="text_4">
      <!-- 2000 -->
      <g transform="translate(571.458442 418.771563) scale(0.1 -0.1)">
       <defs>
        <path id="DejaVuSansMono-32" d="M 1166 531 
L 3309 531 
L 3309 0 
L 475 0 
L 475 531 
Q 1059 1147 1496 1619 
Q 1934 2091 2100 2284 
Q 2413 2666 2522 2902 
Q 2631 3138 2631 3384 
Q 2631 3775 2401 3997 
Q 2172 4219 1772 4219 
Q 1488 4219 1175 4116 
Q 863 4013 513 3803 
L 513 4441 
Q 834 4594 1145 4672 
Q 1456 4750 1759 4750 
Q 2444 4750 2861 4386 
Q 3278 4022 3278 3431 
Q 3278 3131 3139 2831 
Q 3000 2531 2688 2169 
Q 2513 1966 2180 1606 
Q 1847 1247 1166 531 
z
" transform="scale(0.015625)"/>
       </defs>
       <use xlink:href="#DejaVuSansMono-32"/>
       <use xlink:href="#DejaVuSansMono-30" x="60.205078"/>
       <use xlink:href="#DejaVuSansMono-30" x="120.410156"/>
       <use xlink:href="#DejaVuSansMono-30" x="180.615234"/>
      </g>
     </g>
    </g>
    <g id="xtick_5">
     <g id="line2d_5">
      <g>
       <use xlink:href="#m4f93f8ad82" x="719.57421" y="404.12" style="stroke: #000000; stroke-width: 0.8"/>
      </g>
     </g>
     <g id="text_5">
      <!-- 2500 -->
      <g transform="translate(707.533585 418.771563) scale(0.1 -0.1)">
       <use xlink:href="#DejaVuSansMono-32"/>
       <use xlink:href="#DejaVuSansMono-35" x="60.205078"/>
       <use xlink:href="#DejaVuSansMono-30" x="120.410156"/>
       <use xlink:href="#DejaVuSansMono-30" x="180.615234"/>
      </g>
     </g>
    </g>
   </g>
   <g id="matplotlib.axis_2">
    <g id="ytick_1">
     <g id="line2d_6">
      <defs>
       <path id="m7bae13699a" d="M 0 0 
L -3.5 0 
" style="stroke: #000000; stroke-width: 0.8"/>
      </defs>
      <g>
       <use xlink:href="#m7bae13699a" x="41.92" y="386.390914" style="stroke: #000000; stroke-width: 0.8"/>
      </g>
     </g>
     <g id="text_6">
      <!-- 0.00 -->
      <g transform="translate(10.83875 390.216696) scale(0.1 -0.1)">
       <defs>
        <path id="DejaVuSansMono-2e" d="M 1528 953 
L 2316 953 
L 2316 0 
L 1528 0 
L 1528 953 
z
" transform="scale(0.015625)"/>
       </defs>
       <use xlink:href="#DejaVuSansMono-30"/>
       <use xlink:href="#DejaVuSansMono-2e" x="60.205078"/>
       <use xlink:href="#DejaVuSansMono-30" x="120.410156"/>
       <use xlink:href="#DejaVuSansMono-30" x="180.615234"/>
      </g>
     </g>
    </g>
    <g id="ytick_2">
     <g id="line2d_7">
      <g>
       <use xlink:href="#m7bae13699a" x="41.92" y="327.651808" style="stroke: #000000; stroke-width: 0.8"/>
      </g>
     </g>
     <g id="text_7">
      <!-- 0.02 -->
      <g transform="translate(10.83875 331.47759) scale(0.1 -0.1)">
       <use xlink:href="#DejaVuSansMono-30"/>
       <use xlink:href="#DejaVuSansMono-2e" x="60.205078"/>
       <use xlink:href="#DejaVuSansMono-30" x="120.410156"/>
       <use xlink:href="#DejaVuSansMono-32" x="180.615234"/>
      </g>
     </g>
    </g>
    <g id="ytick_3">
     <g id="line2d_8">
      <g>
       <use xlink:href="#m7bae13699a" x="41.92" y="268.912702" style="stroke: #000000; stroke-width: 0.8"/>
      </g>
     </g>
     <g id="text_8">
      <!-- 0.04 -->
      <g transform="translate(10.83875 272.738483) scale(0.1 -0.1)">
       <defs>
        <path id="DejaVuSansMono-34" d="M 2297 4091 
L 825 1625 
L 2297 1625 
L 2297 4091 
z
M 2194 4666 
L 2925 4666 
L 2925 1625 
L 3547 1625 
L 3547 1113 
L 2925 1113 
L 2925 0 
L 2297 0 
L 2297 1113 
L 319 1113 
L 319 1709 
L 2194 4666 
z
" transform="scale(0.015625)"/>
       </defs>
       <use xlink:href="#DejaVuSansMono-30"/>
       <use xlink:href="#DejaVuSansMono-2e" x="60.205078"/>
       <use xlink:href="#DejaVuSansMono-30" x="120.410156"/>
       <use xlink:href="#DejaVuSansMono-34" x="180.615234"/>
      </g>
     </g>
    </g>
    <g id="ytick_4">
     <g id="line2d_9">
      <g>
       <use xlink:href="#m7bae13699a" x="41.92" y="210.173596" style="stroke: #000000; stroke-width: 0.8"/>
      </g>
     </g>
     <g id="text_9">
      <!-- 0.06 -->
      <g transform="translate(10.83875 213.999377) scale(0.1 -0.1)">
       <defs>
        <path id="DejaVuSansMono-36" d="M 3097 4563 
L 3097 3981 
Q 2900 4097 2678 4158 
Q 2456 4219 2216 4219 
Q 1616 4219 1306 3767 
Q 997 3316 997 2438 
Q 1147 2750 1412 2917 
Q 1678 3084 2022 3084 
Q 2697 3084 3067 2670 
Q 3438 2256 3438 1497 
Q 3438 741 3056 325 
Q 2675 -91 1984 -91 
Q 1172 -91 794 492 
Q 416 1075 416 2328 
Q 416 3509 870 4129 
Q 1325 4750 2188 4750 
Q 2419 4750 2650 4701 
Q 2881 4653 3097 4563 
z
M 1972 2591 
Q 1569 2591 1337 2300 
Q 1106 2009 1106 1497 
Q 1106 984 1337 693 
Q 1569 403 1972 403 
Q 2391 403 2603 679 
Q 2816 956 2816 1497 
Q 2816 2041 2603 2316 
Q 2391 2591 1972 2591 
z
" transform="scale(0.015625)"/>
       </defs>
       <use xlink:href="#DejaVuSansMono-30"/>
       <use xlink:href="#DejaVuSansMono-2e" x="60.205078"/>
       <use xlink:href="#DejaVuSansMono-30" x="120.410156"/>
       <use xlink:href="#DejaVuSansMono-36" x="180.615234"/>
      </g>
     </g>
    </g>
    <g id="ytick_5">
     <g id="line2d_10">
      <g>
       <use xlink:href="#m7bae13699a" x="41.92" y="151.43449" style="stroke: #000000; stroke-width: 0.8"/>
      </g>
     </g>
     <g id="text_10">
      <!-- 0.08 -->
      <g transform="translate(10.83875 155.260271) scale(0.1 -0.1)">
       <defs>
        <path id="DejaVuSansMono-38" d="M 1925 2216 
Q 1503 2216 1273 1980 
Q 1044 1744 1044 1313 
Q 1044 881 1276 642 
Q 1509 403 1925 403 
Q 2350 403 2579 639 
Q 2809 875 2809 1313 
Q 2809 1741 2576 1978 
Q 2344 2216 1925 2216 
z
M 1375 2478 
Q 972 2581 745 2862 
Q 519 3144 519 3541 
Q 519 4097 897 4423 
Q 1275 4750 1925 4750 
Q 2578 4750 2956 4423 
Q 3334 4097 3334 3541 
Q 3334 3144 3107 2862 
Q 2881 2581 2478 2478 
Q 2947 2375 3195 2062 
Q 3444 1750 3444 1253 
Q 3444 622 3041 265 
Q 2638 -91 1925 -91 
Q 1213 -91 811 264 
Q 409 619 409 1247 
Q 409 1747 657 2061 
Q 906 2375 1375 2478 
z
M 1147 3481 
Q 1147 3106 1347 2909 
Q 1547 2713 1925 2713 
Q 2306 2713 2506 2909 
Q 2706 3106 2706 3481 
Q 2706 3863 2507 4063 
Q 2309 4263 1925 4263 
Q 1547 4263 1347 4061 
Q 1147 3859 1147 3481 
z
" transform="scale(0.015625)"/>
       </defs>
       <use xlink:href="#DejaVuSansMono-30"/>
       <use xlink:href="#DejaVuSansMono-2e" x="60.205078"/>
       <use xlink:href="#DejaVuSansMono-30" x="120.410156"/>
       <use xlink:href="#DejaVuSansMono-38" x="180.615234"/>
      </g>
     </g>
    </g>
    <g id="ytick_6">
     <g id="line2d_11">
      <g>
       <use xlink:href="#m7bae13699a" x="41.92" y="92.695384" style="stroke: #000000; stroke-width: 0.8"/>
      </g>
     </g>
     <g id="text_11">
      <!-- 0.10 -->
      <g transform="translate(10.83875 96.521165) scale(0.1 -0.1)">
       <use xlink:href="#DejaVuSansMono-30"/>
       <use xlink:href="#DejaVuSansMono-2e" x="60.205078"/>
       <use xlink:href="#DejaVuSansMono-31" x="120.410156"/>
       <use xlink:href="#DejaVuSansMono-30" x="180.615234"/>
      </g>
     </g>
    </g>
    <g id="ytick_7">
     <g id="line2d_12">
      <g>
       <use xlink:href="#m7bae13699a" x="41.92" y="33.956277" style="stroke: #000000; stroke-width: 0.8"/>
      </g>
     </g>
     <g id="text_12">
      <!-- 0.12 -->
      <g transform="translate(10.83875 37.782059) scale(0.1 -0.1)">
       <use xlink:href="#DejaVuSansMono-30"/>
       <use xlink:href="#DejaVuSansMono-2e" x="60.205078"/>
       <use xlink:href="#DejaVuSansMono-31" x="120.410156"/>
       <use xlink:href="#DejaVuSansMono-32" x="180.615234"/>
      </g>
     </g>
    </g>
   </g>
   <g id="line2d_13">
    <path d="M 41.64785 87.983278 
L 42.19215 99.687653 
L 42.464301 70.939325 
L 42.736451 69.557548 
L 43.008601 66.858897 
L 43.280751 65.356937 
L 43.552902 88.636535 
L 43.825052 72.962406 
L 44.097202 70.54676 
L 44.369353 39.639381 
L 44.641503 56.809228 
L 44.913653 51.543004 
L 45.185803 78.292083 
L 45.730104 90.982929 
L 46.002254 82.981991 
L 46.274405 90.18373 
L 46.818705 110.598053 
L 47.090855 139.696519 
L 47.907306 158.930081 
L 48.179457 160.607408 
L 48.451607 160.346574 
L 48.723757 167.273596 
L 48.995907 162.032849 
L 49.268058 168.572219 
L 49.540208 170.160464 
L 50.084509 131.167412 
L 50.356659 131.349755 
L 50.628809 126.186987 
L 50.900959 125.718121 
L 51.17311 124.228058 
L 51.71741 136.271956 
L 51.989561 130.547531 
L 52.261711 130.437469 
L 52.533861 146.75174 
L 52.806011 144.026133 
L 53.078162 144.696298 
L 53.350312 143.807945 
L 53.622462 144.015492 
L 53.894613 144.435095 
L 54.166763 144.480612 
L 54.438913 143.757058 
L 54.711063 139.756664 
L 54.983214 140.510955 
L 55.255364 138.40776 
L 55.527514 159.8159 
L 55.799665 157.261349 
L 56.071815 157.478342 
L 56.343965 152.186075 
L 56.616115 149.205078 
L 56.888266 151.519102 
L 57.160416 151.878133 
L 57.432566 159.15816 
L 57.704717 154.190967 
L 57.976867 163.202787 
L 58.249017 154.612084 
L 58.521167 154.12099 
L 58.793318 158.131354 
L 59.065468 134.131428 
L 59.337618 140.197628 
L 60.154069 92.199646 
L 60.426219 97.099412 
L 60.69837 97.521936 
L 60.97052 105.315529 
L 61.514821 113.234516 
L 61.786971 142.9683 
L 62.059121 142.32461 
L 62.603422 169.630715 
L 62.875572 184.790464 
L 63.147722 180.947016 
L 63.692023 178.506247 
L 64.236323 145.432869 
L 64.780624 101.065616 
L 65.052774 101.673334 
L 65.324925 99.14044 
L 65.869225 108.983928 
L 66.141375 109.103992 
L 66.413526 110.194146 
L 66.685676 117.970417 
L 66.957826 118.853407 
L 67.229977 121.771987 
L 67.774277 109.921542 
L 68.046427 112.607048 
L 68.318578 114.158892 
L 68.590728 111.149261 
L 68.862878 111.390858 
L 69.135029 111.00245 
L 69.407179 111.698062 
L 69.679329 110.621801 
L 69.951479 123.314827 
L 70.22363 148.992017 
L 70.49578 137.54201 
L 70.76793 140.757666 
L 71.040081 132.353247 
L 71.312231 134.775768 
L 71.584381 131.358661 
L 71.856531 131.878691 
L 72.128682 136.879692 
L 72.672982 167.021633 
L 72.945133 151.745931 
L 73.217283 145.371551 
L 73.489433 98.598571 
L 73.761583 104.593834 
L 74.033734 76.610012 
L 74.305884 71.412699 
L 74.578034 72.968975 
L 74.850185 70.669955 
L 75.122335 60.238561 
L 75.394485 28.678182 
L 75.938786 52.142163 
L 76.210936 79.812507 
L 76.483086 83.939336 
L 76.755236 111.962651 
L 77.027387 80.911825 
L 77.571687 81.680777 
L 77.843838 89.94968 
L 78.115988 118.871087 
L 78.388138 122.105361 
L 78.932439 154.678846 
L 79.204589 144.904307 
L 79.476739 142.277175 
L 79.74889 182.156266 
L 80.02104 181.5619 
L 80.29319 180.001738 
L 80.837491 186.39829 
L 81.381791 184.133178 
L 81.926092 172.347667 
L 82.198242 170.380819 
L 82.742543 163.939296 
L 83.014693 165.877352 
L 83.286843 165.945353 
L 83.558994 159.414919 
L 83.831144 158.658873 
L 84.103294 158.696013 
L 84.375444 166.009682 
L 84.647595 178.157146 
L 84.919745 178.358248 
L 85.191895 183.6103 
L 85.464046 186.418914 
L 86.008346 172.906081 
L 86.280496 167.453936 
L 86.552647 143.677419 
L 86.824797 130.146813 
L 87.096947 126.203319 
L 87.369098 129.736524 
L 87.641248 135.590297 
L 87.913398 135.723029 
L 88.185548 136.636505 
L 88.457699 146.522843 
L 88.729849 149.847151 
L 89.001999 155.896905 
L 89.5463 195.379033 
L 89.81845 197.374238 
L 90.362751 196.12111 
L 90.634901 190.441441 
L 91.179202 187.632977 
L 91.451352 187.401837 
L 91.723502 193.897153 
L 91.995652 191.735084 
L 92.267803 191.433019 
L 92.539953 190.829981 
L 92.812103 187.84998 
L 93.084254 186.9393 
L 93.356404 192.606261 
L 93.628554 192.47729 
L 93.900704 191.208621 
L 94.172855 186.493069 
L 94.445005 172.757821 
L 94.717155 173.202017 
L 94.989306 172.263307 
L 95.261456 166.097187 
L 95.533606 162.608016 
L 95.805756 155.931393 
L 96.077907 156.597641 
L 96.350057 155.743444 
L 96.622207 156.291335 
L 96.894358 163.277377 
L 97.166508 175.44637 
L 97.438658 177.711425 
L 97.710808 171.745145 
L 98.255109 184.411617 
L 98.527259 190.4332 
L 98.79941 183.715463 
L 99.07156 181.008779 
L 99.34371 175.713533 
L 99.61586 176.420945 
L 99.888011 178.490066 
L 100.160161 179.366902 
L 100.704462 177.77193 
L 100.976612 180.531501 
L 101.520912 171.1063 
L 101.793063 176.894411 
L 102.065213 185.057476 
L 102.609514 168.904882 
L 102.881664 168.798305 
L 103.153814 176.739913 
L 103.698115 142.753162 
L 103.970265 147.334058 
L 104.242415 130.573582 
L 104.514566 129.269051 
L 104.786716 130.682321 
L 105.058866 130.574644 
L 105.875317 118.983796 
L 106.147467 140.650689 
L 106.419618 131.055601 
L 106.691768 131.902498 
L 106.963918 158.844679 
L 107.236068 153.685813 
L 107.508219 144.268993 
L 107.780369 152.529021 
L 108.052519 151.455265 
L 108.59682 158.86889 
L 108.86897 158.998521 
L 109.14112 162.055199 
L 109.413271 150.067231 
L 109.685421 149.880533 
L 110.229722 163.623715 
L 110.501872 165.647617 
L 110.774022 163.993051 
L 111.046172 159.618988 
L 111.318323 159.870243 
L 111.590473 154.83525 
L 111.862623 177.497533 
L 112.134774 184.544076 
L 112.406924 185.760448 
L 112.679074 178.098692 
L 112.951224 181.056505 
L 113.223375 149.535236 
L 113.495525 160.092496 
L 113.767675 165.304569 
L 114.039826 155.824545 
L 114.311976 158.184534 
L 114.584126 158.242982 
L 114.856276 164.799394 
L 115.128427 162.706857 
L 115.400577 157.296619 
L 115.672727 155.689593 
L 115.944878 179.406423 
L 116.217028 180.320982 
L 116.489178 175.162874 
L 116.761328 180.815414 
L 117.033479 165.624875 
L 117.305629 166.877098 
L 117.577779 167.351362 
L 117.84993 169.070585 
L 118.12208 182.419993 
L 118.39423 180.684448 
L 118.66638 187.478389 
L 118.938531 189.012987 
L 119.210681 184.876716 
L 119.482831 187.124107 
L 119.754982 198.233194 
L 120.299282 179.409466 
L 120.571432 180.134198 
L 120.843583 177.0943 
L 121.115733 179.235812 
L 121.387883 178.996933 
L 121.660034 177.350544 
L 121.932184 185.414547 
L 122.476484 192.290979 
L 123.020785 209.672139 
L 123.292935 205.026121 
L 123.565086 209.038422 
L 123.837236 208.904827 
L 124.109386 210.215726 
L 124.381536 213.325888 
L 124.653687 212.622874 
L 124.925837 205.92812 
L 125.470138 203.821062 
L 125.742288 205.874388 
L 126.014438 210.096709 
L 126.286588 209.136853 
L 126.558739 197.712825 
L 126.830889 193.148772 
L 127.103039 192.426244 
L 127.37519 189.452052 
L 127.64734 196.196185 
L 127.91949 200.150076 
L 128.19164 200.339585 
L 128.463791 194.876655 
L 128.735941 194.836447 
L 129.008091 192.710106 
L 129.280242 204.38617 
L 129.552392 209.144547 
L 129.824542 207.744622 
L 130.096692 213.526516 
L 130.368843 213.594249 
L 130.640993 213.147462 
L 130.913143 211.635236 
L 131.185294 217.559658 
L 131.457444 215.817804 
L 131.729594 195.624085 
L 132.001744 194.134793 
L 132.273895 182.191073 
L 132.546045 185.155989 
L 132.818195 183.472678 
L 133.090346 183.417533 
L 133.362496 183.807881 
L 133.634646 184.966615 
L 133.906796 172.125908 
L 134.178947 177.236383 
L 134.451097 188.836161 
L 134.723247 192.65025 
L 134.995398 158.825372 
L 135.267548 158.047602 
L 135.539698 140.583976 
L 135.811848 139.263596 
L 136.083999 139.81345 
L 136.356149 115.185955 
L 136.628299 126.958384 
L 136.90045 110.404824 
L 137.1726 113.020811 
L 137.44475 104.136497 
L 137.7169 148.060634 
L 137.989051 148.578563 
L 138.261201 157.716916 
L 138.533351 147.105315 
L 138.805502 147.669559 
L 139.077652 156.882262 
L 139.621952 128.665567 
L 140.166253 145.573382 
L 140.438403 147.411025 
L 140.710554 138.770898 
L 140.982704 136.457338 
L 141.254854 148.809307 
L 141.527004 147.299734 
L 142.071305 175.619545 
L 142.343455 203.452292 
L 142.615606 204.283705 
L 142.887756 202.369403 
L 143.159906 195.751244 
L 143.704207 207.92015 
L 144.248507 202.774033 
L 144.792808 211.255939 
L 145.337108 201.014263 
L 146.69786 223.961334 
L 146.97001 229.960745 
L 147.24216 228.987928 
L 147.514311 229.325063 
L 148.058611 238.878371 
L 148.330761 230.352527 
L 148.602912 234.375391 
L 148.875062 234.910578 
L 149.147212 235.025862 
L 149.419363 230.959989 
L 149.691513 200.626805 
L 149.963663 195.728486 
L 150.235813 195.841493 
L 150.780114 178.116926 
L 151.052264 183.717882 
L 151.324415 185.37012 
L 151.868715 183.631699 
L 152.140865 178.555927 
L 152.413016 209.526625 
L 152.685166 198.8871 
L 152.957316 198.674933 
L 153.229467 205.938129 
L 153.501617 217.136139 
L 154.045917 215.858113 
L 154.318068 216.712093 
L 154.590218 219.015104 
L 154.862368 226.831437 
L 155.134519 225.937196 
L 155.406669 242.837899 
L 155.678819 242.51312 
L 155.950969 243.47017 
L 156.22312 245.058131 
L 156.49527 250.093505 
L 156.76742 251.495439 
L 157.039571 253.53798 
L 157.311721 232.425542 
L 157.583871 232.311695 
L 157.856021 231.506463 
L 158.128172 232.656349 
L 158.400322 232.389196 
L 158.672472 232.558097 
L 158.944623 233.156702 
L 159.216773 233.363371 
L 159.488923 232.391785 
L 159.761073 233.804861 
L 160.033224 255.208293 
L 160.305374 259.401069 
L 160.577524 256.830604 
L 160.849675 258.038929 
L 161.393975 263.847677 
L 161.666125 261.969515 
L 161.938276 261.742574 
L 162.210426 264.819042 
L 162.482576 259.553478 
L 163.026877 255.723202 
L 163.299027 256.204461 
L 163.571177 257.01782 
L 163.843328 259.200616 
L 164.115478 258.004405 
L 164.387628 258.85192 
L 164.659779 261.992249 
L 164.931929 260.4292 
L 165.204079 266.630591 
L 165.476229 268.260087 
L 166.02053 275.711283 
L 166.564831 273.024855 
L 167.109131 277.197541 
L 167.381281 275.160093 
L 167.653432 278.297176 
L 167.925582 278.609638 
L 168.197732 274.479371 
L 168.469883 274.744645 
L 168.742033 275.904039 
L 169.014183 278.757145 
L 169.286333 279.208669 
L 169.558484 269.988785 
L 169.830634 269.109606 
L 170.102784 272.007316 
L 170.374935 270.691539 
L 170.647085 256.106974 
L 170.919235 263.114735 
L 171.191385 259.204967 
L 171.463536 262.443032 
L 171.735686 258.409929 
L 172.007836 260.930024 
L 172.279987 270.67161 
L 172.552137 273.65424 
L 172.824287 273.841316 
L 173.096437 277.273244 
L 173.368588 295.194581 
L 173.640738 292.613575 
L 173.912888 292.151755 
L 174.185039 290.999945 
L 174.457189 295.484918 
L 174.729339 293.6222 
L 175.001489 295.637124 
L 175.27364 296.769268 
L 175.54579 296.292306 
L 175.81794 296.902949 
L 176.090091 287.034993 
L 176.634391 298.23911 
L 177.450842 305.63613 
L 177.722992 305.813724 
L 177.995143 305.575479 
L 178.267293 306.393673 
L 178.539443 303.556126 
L 178.811593 314.155372 
L 179.083744 309.711016 
L 179.355894 313.00053 
L 179.628044 312.094775 
L 179.900195 311.81421 
L 180.172345 310.717266 
L 180.444495 310.552883 
L 180.988796 314.92193 
L 181.260946 318.420154 
L 181.533096 318.452396 
L 181.805247 323.44963 
L 182.077397 321.74608 
L 182.621697 323.734608 
L 182.893848 324.583768 
L 183.165998 326.597992 
L 183.438148 327.585923 
L 183.710299 327.362606 
L 183.982449 321.10214 
L 184.254599 312.224329 
L 184.526749 307.037284 
L 184.7989 308.49052 
L 185.07105 308.846301 
L 185.887501 310.913549 
L 186.159651 304.056386 
L 186.431801 305.149566 
L 187.248252 324.490915 
L 187.520403 324.869886 
L 187.792553 326.598538 
L 188.064703 323.975002 
L 188.336853 325.834422 
L 188.609004 326.560269 
L 188.881154 334.213627 
L 189.153304 333.015397 
L 189.425455 335.752574 
L 189.697605 336.023018 
L 189.969755 339.339273 
L 190.514056 340.021858 
L 190.786206 343.256298 
L 191.058356 342.645496 
L 191.330507 342.415658 
L 191.602657 342.755197 
L 191.874807 345.626025 
L 192.419108 345.648647 
L 192.691258 346.268372 
L 192.963408 347.916849 
L 193.235559 348.19192 
L 193.507709 348.842908 
L 193.779859 353.198348 
L 194.052009 352.701759 
L 194.32416 353.261198 
L 194.59631 352.922872 
L 194.86846 352.003633 
L 195.140611 354.919448 
L 195.684911 356.312816 
L 195.957061 357.222853 
L 196.229212 358.968535 
L 196.501362 358.726774 
L 196.773512 360.109912 
L 197.045663 360.817739 
L 197.317813 362.289982 
L 197.589963 362.890722 
L 197.862113 363.170331 
L 198.134264 363.163035 
L 198.406414 361.496374 
L 198.678564 362.021869 
L 198.950715 361.210979 
L 199.222865 359.811678 
L 199.495015 359.883454 
L 199.767165 359.214268 
L 200.039316 357.727414 
L 200.311466 359.034107 
L 200.855767 360.073814 
L 201.127917 361.721282 
L 201.400067 355.064347 
L 201.672217 355.029746 
L 202.216518 357.581626 
L 202.488668 357.327203 
L 202.760819 356.229345 
L 203.305119 356.445335 
L 203.577269 356.346174 
L 203.84942 356.996647 
L 204.12157 364.489724 
L 204.39372 365.204035 
L 204.665871 355.734402 
L 204.938021 355.150836 
L 205.210171 356.535369 
L 205.482321 358.785037 
L 205.754472 358.637007 
L 206.026622 358.191673 
L 206.298772 358.576746 
L 206.843073 357.314612 
L 207.115223 358.051081 
L 207.387373 366.878115 
L 207.659524 363.773042 
L 207.931674 363.819297 
L 208.203824 364.493636 
L 208.475975 364.121264 
L 208.748125 364.977663 
L 209.020275 364.359849 
L 209.292425 365.156591 
L 209.564576 362.347887 
L 209.836726 361.427868 
L 210.108876 362.936675 
L 210.381027 366.965892 
L 210.653177 367.225374 
L 210.925327 366.556429 
L 211.197477 356.286514 
L 211.469628 355.564265 
L 211.741778 356.838591 
L 212.013928 356.695997 
L 212.286078 359.303812 
L 212.558229 360.331764 
L 212.830379 360.380062 
L 213.102529 360.633991 
L 213.37468 359.512928 
L 213.64683 359.93369 
L 213.91898 370.958408 
L 214.19113 371.772122 
L 214.463281 367.848831 
L 215.007581 368.589691 
L 215.279732 368.623828 
L 215.551882 368.180991 
L 215.824032 367.371495 
L 216.096182 364.814375 
L 216.640483 366.004853 
L 216.912633 366.015518 
L 217.184784 369.493136 
L 217.456934 369.126957 
L 217.729084 369.178687 
L 218.001234 366.805522 
L 218.273385 367.076945 
L 218.545535 368.152195 
L 218.817685 370.610266 
L 219.089836 369.540353 
L 219.361986 369.364952 
L 219.634136 369.798209 
L 219.906286 369.429042 
L 220.178437 369.879161 
L 220.450587 369.45561 
L 220.722737 371.826818 
L 220.994888 371.599363 
L 221.267038 371.520169 
L 221.811338 374.028553 
L 222.083489 374.409116 
L 222.355639 374.047224 
L 222.627789 374.312077 
L 222.89994 372.595731 
L 223.17209 371.611268 
L 223.44424 371.678354 
L 223.71639 371.951078 
L 223.988541 371.741346 
L 224.532841 372.205428 
L 224.804992 369.950021 
L 225.077142 369.843611 
L 225.349292 370.285157 
L 225.893593 374.037586 
L 226.165743 374.488051 
L 226.710044 374.860921 
L 226.982194 374.515332 
L 227.254344 373.638126 
L 227.526494 375.790634 
L 227.798645 375.45157 
L 228.070795 373.412234 
L 228.615096 372.91512 
L 228.887246 371.848166 
L 229.703697 372.486115 
L 229.975847 372.915529 
L 230.247997 370.879201 
L 230.520148 371.833613 
L 230.792298 373.653164 
L 231.064448 372.873353 
L 231.336598 373.140201 
L 231.608749 373.812787 
L 231.880899 373.483015 
L 232.4252 368.85056 
L 232.69735 369.397949 
L 232.9695 371.259686 
L 233.24165 370.510338 
L 233.513801 371.012363 
L 233.785951 371.887573 
L 234.058101 371.449785 
L 234.602402 371.712656 
L 234.874552 373.251926 
L 235.146702 375.839838 
L 235.418853 375.656911 
L 235.963153 376.593493 
L 236.235304 376.686806 
L 236.507454 376.4413 
L 237.596055 376.468007 
L 237.868205 376.751557 
L 238.140356 375.269866 
L 238.412506 375.240568 
L 238.684656 375.539485 
L 238.956806 373.594742 
L 239.228957 373.608299 
L 239.501107 374.096167 
L 239.773257 373.931135 
L 240.045408 373.045493 
L 240.317558 373.599945 
L 240.589708 373.607388 
L 240.861858 374.747822 
L 241.134009 374.693721 
L 241.406159 374.326022 
L 241.678309 376.297865 
L 241.95046 376.71109 
L 242.22261 376.287349 
L 242.49476 375.403694 
L 242.76691 376.513939 
L 243.039061 375.105578 
L 243.311211 374.65311 
L 243.583361 375.241089 
L 243.855512 375.423542 
L 244.127662 376.15886 
L 244.399812 375.704022 
L 244.671962 375.792168 
L 244.944113 376.328373 
L 245.216263 378.096425 
L 245.488413 378.232313 
L 245.760564 379.301155 
L 246.032714 379.826196 
L 246.304864 379.410252 
L 246.577014 379.275827 
L 246.849165 378.639145 
L 247.121315 378.785725 
L 247.393465 378.703315 
L 247.665616 373.832738 
L 247.937766 373.746692 
L 248.209916 373.258576 
L 248.482066 373.244122 
L 248.754217 372.35564 
L 249.026367 372.138225 
L 249.298517 371.183558 
L 249.842818 371.706314 
L 250.114968 371.062306 
L 250.387118 376.278077 
L 250.659269 375.855959 
L 250.931419 375.759803 
L 251.203569 375.786273 
L 251.47572 376.364937 
L 252.29217 378.59958 
L 252.564321 378.178721 
L 252.836471 379.185973 
L 253.108621 379.022551 
L 253.380772 379.49737 
L 253.925072 379.087237 
L 254.197222 379.429906 
L 254.741523 379.396605 
L 255.013673 378.679809 
L 255.557974 378.153834 
L 255.830124 377.543507 
L 256.102274 377.221668 
L 256.374425 377.800191 
L 256.646575 377.409439 
L 256.918725 377.307768 
L 257.463026 377.81534 
L 257.735176 378.173174 
L 258.007326 378.133009 
L 258.279477 378.277721 
L 258.823777 378.716866 
L 259.095928 378.867878 
L 259.368078 379.872618 
L 259.912378 379.539645 
L 260.456679 378.781477 
L 260.728829 379.536388 
L 261.27313 377.013256 
L 261.54528 374.448362 
L 262.089581 371.845883 
L 262.633881 372.057023 
L 262.906032 371.921574 
L 263.178182 372.574997 
L 263.450332 372.609788 
L 263.722482 373.55941 
L 263.994633 375.152572 
L 264.266783 377.893689 
L 264.538933 378.832648 
L 264.811084 380.242467 
L 265.083234 380.553302 
L 265.355384 380.490132 
L 265.627534 381.182475 
L 266.171835 380.942807 
L 266.443985 381.134821 
L 266.988286 380.437031 
L 267.260436 380.807301 
L 267.532586 379.552873 
L 267.804737 379.149372 
L 268.076887 378.330404 
L 268.621188 377.568815 
L 268.893338 377.867563 
L 269.165488 377.417545 
L 269.437638 377.503216 
L 269.709789 377.932818 
L 269.981939 377.231232 
L 270.254089 378.559216 
L 270.52624 378.941092 
L 270.79839 379.727058 
L 271.07054 379.881071 
L 271.34269 380.325789 
L 271.614841 380.119067 
L 271.886991 380.497335 
L 272.431292 380.056342 
L 272.703442 380.785349 
L 272.975592 380.468226 
L 273.247742 380.522589 
L 274.064193 379.539078 
L 274.336344 379.619185 
L 275.152794 380.768779 
L 275.424945 379.592382 
L 275.969245 379.441909 
L 276.241396 379.967482 
L 276.785696 380.436482 
L 277.602147 380.409612 
L 277.874297 380.353123 
L 278.146448 381.639654 
L 278.418598 382.003439 
L 278.690748 382.127339 
L 278.962898 382.035709 
L 279.235049 381.270233 
L 279.507199 380.977003 
L 279.779349 380.928212 
L 280.051499 380.633324 
L 280.32365 380.759949 
L 280.5958 380.642731 
L 281.140101 380.702028 
L 281.412251 380.235192 
L 281.684401 380.282864 
L 281.956551 381.318157 
L 282.500852 381.890274 
L 283.045153 381.840273 
L 283.861603 380.233201 
L 284.133754 380.787053 
L 284.678054 380.883197 
L 284.950205 381.05633 
L 285.222355 380.825204 
L 285.494505 381.147599 
L 285.766655 381.103522 
L 286.583106 382.31395 
L 286.855257 381.819278 
L 287.127407 381.744116 
L 287.399557 381.14157 
L 287.671707 380.986047 
L 287.943858 381.115238 
L 289.032459 380.501944 
L 289.304609 380.63694 
L 289.576759 381.050752 
L 289.84891 380.863665 
L 290.39321 381.299825 
L 290.937511 381.000563 
L 291.209661 381.077193 
L 291.481811 381.460859 
L 291.753962 380.994164 
L 292.026112 381.061838 
L 292.298262 380.425122 
L 292.570413 380.778556 
L 292.842563 380.614061 
L 293.114713 379.687487 
L 293.386863 380.141756 
L 293.659014 380.064599 
L 293.931164 380.185161 
L 294.203314 380.532503 
L 294.475465 381.080089 
L 294.747615 381.232504 
L 295.019765 382.03439 
L 295.291915 381.381282 
L 295.564066 381.886666 
L 296.108366 381.485765 
L 296.380517 381.716045 
L 297.196967 380.570511 
L 297.469118 377.379449 
L 297.741268 377.049311 
L 298.013418 377.800569 
L 298.285569 376.480231 
L 298.557719 377.435882 
L 298.829869 377.570614 
L 299.102019 377.564194 
L 300.190621 379.511039 
L 300.462771 379.413168 
L 300.734921 379.104447 
L 301.007071 380.123354 
L 301.279222 380.228969 
L 301.551372 378.865608 
L 301.823522 378.544463 
L 302.095673 378.57497 
L 302.639973 378.323462 
L 302.912123 380.743982 
L 303.184274 381.168817 
L 303.456424 381.263196 
L 304.000725 381.597568 
L 304.272875 382.740782 
L 304.545025 383.310606 
L 304.817175 383.281917 
L 305.089326 382.803137 
L 305.361476 382.662384 
L 305.905777 382.66786 
L 306.722227 381.943807 
L 306.994378 382.088913 
L 307.266528 382.028377 
L 307.538678 381.27319 
L 307.810829 381.717474 
L 308.89943 382.23466 
L 309.17158 382.56461 
L 309.715881 382.730494 
L 309.988031 382.574493 
L 310.260181 383.372359 
L 310.532331 383.647773 
L 311.893083 383.166385 
L 312.165233 383.131126 
L 312.709534 382.098191 
L 312.981684 381.999015 
L 313.253834 381.75781 
L 313.525985 381.965783 
L 314.070285 381.841503 
L 314.886736 380.74617 
L 315.158886 379.818051 
L 315.431037 380.311462 
L 315.703187 380.034191 
L 315.975337 380.026445 
L 316.247487 379.716003 
L 316.519638 379.806905 
L 316.791788 376.335456 
L 317.063938 376.665212 
L 317.336089 376.718395 
L 317.608239 377.480853 
L 317.880389 378.977369 
L 318.69684 379.701926 
L 318.96899 376.115653 
L 319.241141 376.184029 
L 319.513291 379.4563 
L 319.785441 379.81393 
L 320.057591 379.987039 
L 320.329742 379.862251 
L 320.874042 379.424655 
L 321.146193 378.826211 
L 321.418343 378.674043 
L 321.690493 381.757886 
L 321.962643 379.94 
L 322.234794 380.197325 
L 322.506944 379.79415 
L 322.779094 379.666551 
L 323.051245 379.750988 
L 323.595545 380.083643 
L 323.867695 380.872317 
L 324.139846 379.810998 
L 324.411996 380.446821 
L 324.684146 382.177674 
L 324.956297 382.22391 
L 325.228447 382.768016 
L 325.500597 382.895716 
L 326.317048 382.558855 
L 326.589198 382.532923 
L 326.861349 383.752178 
L 327.133499 383.342201 
L 327.405649 383.325468 
L 327.94995 382.245166 
L 328.2221 382.143199 
L 329.038551 382.624626 
L 329.310701 382.616499 
L 329.582851 382.306464 
L 329.855002 382.785295 
L 330.127152 382.727162 
L 330.399302 383.454231 
L 330.943603 383.845815 
L 331.487903 383.760883 
L 332.032204 383.524471 
L 332.304354 382.528408 
L 332.576505 382.532327 
L 332.848655 382.659518 
L 333.392955 382.622136 
L 333.665106 382.376845 
L 333.937256 382.315976 
L 334.753707 382.737412 
L 335.025857 383.665773 
L 335.298007 383.738499 
L 335.570158 383.687978 
L 335.842308 383.227323 
L 336.114458 383.124809 
L 336.386609 383.393881 
L 337.203059 383.392988 
L 337.47521 383.206315 
L 337.74736 383.421084 
L 338.01951 382.903277 
L 338.291661 383.005795 
L 338.563811 383.337941 
L 338.835961 383.453273 
L 339.108111 382.931987 
L 339.380262 383.03463 
L 339.652412 382.987956 
L 339.924562 382.812406 
L 340.468863 382.867601 
L 340.741013 383.560117 
L 341.013163 383.363933 
L 341.557464 383.491344 
L 341.829614 383.616534 
L 342.373915 383.68438 
L 342.918215 383.750517 
L 343.190366 383.710659 
L 343.462516 383.436348 
L 344.006817 383.658688 
L 344.278967 383.643046 
L 344.551117 384.04652 
L 344.823267 383.785253 
L 345.095418 383.041221 
L 345.639718 383.345791 
L 346.184019 383.716797 
L 346.456169 382.676191 
L 347.27262 382.651409 
L 347.54477 382.880198 
L 347.81692 383.41622 
L 348.361221 383.204845 
L 348.633371 382.906249 
L 348.905522 382.409052 
L 349.177672 383.457647 
L 349.721972 383.501728 
L 349.994123 383.540525 
L 350.266273 383.466395 
L 350.810574 383.76521 
L 351.082724 383.841287 
L 351.627024 384.491196 
L 352.715626 384.149885 
L 353.259926 383.367344 
L 353.532076 383.364121 
L 353.804227 383.071725 
L 354.076377 382.181783 
L 354.348527 382.075698 
L 354.620678 382.224546 
L 355.164978 382.253232 
L 355.709279 382.957409 
L 355.981429 383.461117 
L 356.253579 383.390002 
L 356.52573 383.565286 
L 356.79788 384.331151 
L 357.07003 384.583805 
L 357.614331 384.7081 
L 357.886481 383.27442 
L 359.519383 383.329868 
L 359.791533 382.8539 
L 360.063683 382.611832 
L 360.335834 382.656365 
L 360.607984 384.09361 
L 361.424435 384.136425 
L 361.696585 383.977635 
L 362.240886 383.938409 
L 362.785186 384.541863 
L 363.057336 384.360862 
L 363.329487 384.364845 
L 363.601637 384.115186 
L 363.873787 384.25345 
L 364.690238 384.375204 
L 366.05099 383.274434 
L 366.32314 383.357537 
L 366.59529 383.266674 
L 367.139591 383.328564 
L 367.411741 383.20589 
L 367.683891 382.479021 
L 368.500342 383.654468 
L 368.772492 383.643544 
L 369.044643 383.772506 
L 369.861094 383.587279 
L 370.133244 383.628659 
L 370.405394 384.660249 
L 370.949695 384.58107 
L 372.038296 384.673175 
L 372.310446 384.742868 
L 372.854747 385.053592 
L 374.215498 384.892326 
L 374.487648 384.942987 
L 374.759799 384.765207 
L 375.031949 384.770133 
L 375.304099 384.334 
L 375.8484 384.333585 
L 376.12055 383.783922 
L 376.664851 383.95663 
L 376.937001 383.512454 
L 377.481302 383.415262 
L 378.025602 383.354004 
L 378.297752 383.063483 
L 378.569903 382.416158 
L 378.842053 382.985737 
L 379.114203 382.546001 
L 379.386354 382.544128 
L 379.658504 382.940198 
L 380.202804 382.957476 
L 380.474955 382.745539 
L 381.291406 384.269452 
L 381.563556 384.136547 
L 381.835706 384.489882 
L 382.652157 384.422778 
L 382.924307 384.191146 
L 383.196458 384.458333 
L 383.740758 384.189864 
L 384.012908 384.204881 
L 384.557209 384.377126 
L 384.829359 384.383229 
L 385.64581 384.940778 
L 385.91796 384.861172 
L 386.462261 385.075317 
L 386.734411 384.876393 
L 387.006562 384.933739 
L 387.823012 384.534355 
L 388.639463 384.684244 
L 389.455914 384.437532 
L 390.272365 384.40961 
L 390.544515 383.832889 
L 390.816666 383.788822 
L 391.088816 383.932233 
L 391.360966 383.862847 
L 392.177417 384.188452 
L 392.449567 384.011889 
L 392.721718 383.690328 
L 392.993868 383.959836 
L 393.266018 384.635988 
L 393.810319 384.422702 
L 394.082469 384.488951 
L 394.354619 384.201171 
L 394.62677 384.116475 
L 394.89892 384.263076 
L 395.17107 384.191158 
L 395.44322 384.509748 
L 396.531822 384.619 
L 396.803972 384.494797 
L 397.348272 384.737872 
L 397.620423 384.641839 
L 398.164723 384.725125 
L 398.709024 384.465554 
L 398.981174 384.522974 
L 399.253324 384.442045 
L 399.797625 384.593449 
L 400.069775 384.526575 
L 400.341926 384.302903 
L 400.614076 384.408734 
L 400.886226 384.146074 
L 401.158376 384.256025 
L 401.430527 383.43567 
L 401.702677 383.391031 
L 401.974827 383.546535 
L 402.519128 383.410869 
L 402.791278 383.250379 
L 403.335579 383.282391 
L 403.607729 383.451589 
L 403.879879 383.404998 
L 404.15203 384.264203 
L 404.42418 384.321918 
L 404.69633 384.049488 
L 405.240631 384.158341 
L 405.512781 384.325869 
L 405.784931 384.707765 
L 406.873532 384.937441 
L 407.145683 384.419977 
L 407.417833 384.666207 
L 408.234284 384.707877 
L 408.506434 384.60624 
L 409.050735 384.537907 
L 409.322885 384.017899 
L 409.595035 383.755872 
L 410.139336 383.838356 
L 410.411486 383.718412 
L 410.683636 383.789401 
L 411.500087 383.494997 
L 411.772238 383.540808 
L 412.044388 384.151006 
L 412.316538 384.368439 
L 412.588688 384.82819 
L 413.132989 384.93804 
L 413.405139 384.89617 
L 414.22159 385.205467 
L 414.49374 385.279346 
L 414.765891 385.082936 
L 415.038041 385.150611 
L 415.582341 384.693147 
L 415.854492 384.786417 
L 416.126642 384.381307 
L 416.670943 384.156369 
L 417.487393 384.335143 
L 417.759544 384.182382 
L 418.575995 384.356433 
L 418.848145 384.777663 
L 419.664596 384.792473 
L 419.936746 384.722435 
L 420.208896 384.767602 
L 420.481047 384.266344 
L 421.297497 384.36646 
L 421.569648 384.340641 
L 421.841798 384.506984 
L 422.113948 383.906002 
L 422.930399 383.803821 
L 423.202549 384.454707 
L 424.563301 384.401298 
L 424.835451 385.026344 
L 425.107601 384.831191 
L 425.651902 384.826301 
L 425.924052 384.244989 
L 426.196203 384.385716 
L 426.468353 384.294858 
L 426.740503 384.446694 
L 427.556954 384.390468 
L 427.829104 384.61331 
L 428.373405 384.376101 
L 428.645555 384.940948 
L 428.917705 384.821262 
L 429.189856 384.944449 
L 430.006307 384.843268 
L 430.278457 384.972464 
L 430.550607 384.967244 
L 431.094908 385.152629 
L 431.911359 384.989925 
L 433.816411 385.261429 
L 434.360711 385.330876 
L 435.721463 385.149731 
L 436.537913 384.78842 
L 438.442965 385.19159 
L 438.715116 385.196229 
L 439.259416 385.514065 
L 440.075867 385.243977 
L 441.164468 385.346556 
L 441.436619 385.429061 
L 441.708769 385.295525 
L 443.613821 385.361936 
L 444.158121 385.205707 
L 445.791023 384.962209 
L 446.335324 384.729727 
L 447.151775 384.590458 
L 448.512526 384.904806 
L 448.784676 385.124894 
L 449.328977 384.87402 
L 449.873277 385.167302 
L 450.145428 385.176617 
L 450.417578 384.952594 
L 451.506179 384.762503 
L 451.778329 384.926381 
L 452.05048 384.810241 
L 452.32263 384.868701 
L 452.866931 384.622199 
L 454.499832 384.743579 
L 454.771983 385.004534 
L 455.044133 384.990198 
L 455.860584 385.385535 
L 456.404884 385.230928 
L 457.493485 385.386304 
L 457.765636 385.237086 
L 458.037786 384.91881 
L 458.309936 384.988921 
L 458.582087 384.89421 
L 458.854237 385.023396 
L 459.398537 384.792229 
L 460.487139 384.663562 
L 461.031439 384.282098 
L 461.84789 384.525993 
L 462.392191 384.524428 
L 463.208641 384.755449 
L 463.480792 385.24482 
L 463.752942 385.428346 
L 464.297243 385.468269 
L 464.569393 385.485622 
L 464.841543 385.317072 
L 467.018745 385.104298 
L 467.563046 384.948378 
L 467.835196 384.690596 
L 468.379497 384.775092 
L 468.651647 384.680862 
L 469.740248 384.872962 
L 470.012399 384.983058 
L 470.556699 385.511336 
L 470.828849 385.473578 
L 471.101 385.307007 
L 471.917451 385.474939 
L 472.733901 385.281351 
L 473.550352 385.264783 
L 473.822503 385.001151 
L 474.094653 384.986789 
L 474.366803 384.589795 
L 474.911104 384.683546 
L 475.183254 384.755996 
L 475.999705 384.554893 
L 476.271855 384.56282 
L 476.544005 384.967339 
L 476.816156 384.988418 
L 477.088306 385.24531 
L 477.360456 385.236227 
L 477.632607 385.108772 
L 477.904757 385.117782 
L 478.176907 384.258238 
L 479.265508 384.459009 
L 479.537659 384.380697 
L 479.809809 384.503583 
L 480.62626 384.564401 
L 480.89841 385.469683 
L 481.44271 384.952521 
L 481.987011 384.977283 
L 482.259161 385.011278 
L 482.803462 384.921555 
L 483.075612 384.956374 
L 483.347762 384.598711 
L 483.619913 384.58432 
L 484.164213 385.154572 
L 484.436364 384.638107 
L 484.980664 384.666777 
L 485.252814 384.77101 
L 485.797115 384.645102 
L 486.069265 384.981663 
L 486.885716 385.031901 
L 487.157866 385.561032 
L 487.702167 385.566866 
L 488.246468 385.4877 
L 488.518618 385.537742 
L 489.607219 385.292228 
L 489.879369 385.345345 
L 490.15152 385.271351 
L 490.42367 385.316029 
L 490.69582 384.92677 
L 491.240121 384.834436 
L 492.056572 385.14854 
L 493.145173 384.882972 
L 493.417323 385.264348 
L 493.689473 385.426327 
L 494.233774 385.392 
L 495.050225 385.314583 
L 495.322375 384.518511 
L 495.594525 384.739535 
L 496.683126 384.791845 
L 497.227427 384.793761 
L 497.771728 384.69753 
L 498.043878 385.308281 
L 498.588178 385.362095 
L 499.132479 385.066474 
L 499.94893 385.073339 
L 500.49323 385.268979 
L 500.765381 385.489476 
L 501.037531 385.475233 
L 501.309681 385.340878 
L 501.853982 385.538715 
L 502.670433 385.443651 
L 503.214733 385.380382 
L 503.759034 385.237462 
L 504.031184 385.365988 
L 504.575485 385.375134 
L 505.391936 385.555018 
L 505.664086 385.453403 
L 506.480537 385.57388 
L 506.752687 385.460179 
L 507.569138 385.513333 
L 508.113438 385.283753 
L 508.385589 385.153265 
L 509.20204 385.260028 
L 509.74634 385.329547 
L 510.01849 385.27376 
L 510.290641 384.666752 
L 510.834941 384.811016 
L 511.379242 384.996707 
L 511.651392 384.99093 
L 511.923542 384.830225 
L 512.739993 384.819569 
L 513.012144 385.402395 
L 513.284294 385.420842 
L 513.556444 385.243906 
L 514.372895 385.294036 
L 514.645045 384.980682 
L 515.733646 385.06704 
L 516.005797 385.035524 
L 516.277947 385.275567 
L 517.094398 385.297604 
L 517.366548 385.682494 
L 517.638698 385.403189 
L 518.99945 385.266522 
L 519.54375 385.260606 
L 519.815901 384.971805 
L 520.360201 385.085547 
L 520.632352 384.941476 
L 521.448802 385.162421 
L 522.265253 385.124644 
L 523.081704 385.396629 
L 523.353854 385.562093 
L 524.714606 385.595087 
L 524.986756 385.333267 
L 525.258906 385.542601 
L 525.803207 385.582998 
L 526.347508 385.211932 
L 526.891808 385.093844 
L 527.436109 384.822134 
L 527.708259 384.985757 
L 529.341161 385.042778 
L 530.429762 385.559149 
L 530.974062 385.592973 
L 531.246213 385.51837 
L 531.790513 385.649098 
L 533.695565 385.665333 
L 534.239866 385.879733 
L 535.872768 385.720257 
L 536.417068 385.729647 
L 536.689218 385.609454 
L 537.233519 385.749917 
L 538.59427 385.834924 
L 539.138571 385.826425 
L 539.682872 385.876039 
L 540.227172 385.856982 
L 541.043623 385.785765 
L 542.132224 385.792545 
L 542.676525 385.636994 
L 543.492976 385.648607 
L 543.765126 385.497576 
L 544.037276 385.497815 
L 544.853727 384.973737 
L 545.670178 385.050516 
L 546.214478 385.13753 
L 546.486629 385.327407 
L 546.758779 385.283694 
L 547.030929 385.402353 
L 547.57523 385.824232 
L 548.391681 385.894978 
L 548.935981 385.788403 
L 549.480282 385.670269 
L 550.024582 385.677623 
L 551.113183 385.572545 
L 551.657484 385.690483 
L 551.929634 385.492662 
L 553.018235 385.461076 
L 553.834686 385.355463 
L 554.378987 385.304508 
L 554.651137 385.597419 
L 555.467588 385.578001 
L 555.739738 385.600342 
L 556.011889 385.364022 
L 556.284039 385.43008 
L 556.828339 385.27576 
L 557.37264 384.744512 
L 557.64479 384.687989 
L 557.916941 384.79823 
L 558.461241 384.772137 
L 558.733391 384.984964 
L 559.005542 384.831906 
L 560.366293 385.745973 
L 560.910594 385.776413 
L 561.454894 385.667925 
L 561.727045 385.854869 
L 561.999195 385.655944 
L 563.359946 385.566811 
L 563.632097 385.383924 
L 564.176397 385.450759 
L 564.448547 385.326452 
L 564.720698 385.504789 
L 565.264998 385.438091 
L 565.809299 385.439126 
L 566.081449 385.275552 
L 566.353599 385.48308 
L 567.714351 385.557883 
L 567.986501 385.70542 
L 568.258651 385.440369 
L 568.530802 385.349108 
L 568.802952 385.506775 
L 570.163703 385.43661 
L 570.708004 385.17886 
L 570.980154 385.434107 
L 571.252305 385.085676 
L 571.524455 385.087682 
L 571.796605 384.901942 
L 572.613056 384.957474 
L 573.157357 385.194566 
L 573.701657 385.366927 
L 573.973807 385.844666 
L 574.245958 385.864362 
L 574.518108 386.074599 
L 575.878859 385.982799 
L 576.15101 385.903746 
L 576.42316 385.662927 
L 577.239611 385.600571 
L 577.511761 385.411841 
L 578.056062 385.438921 
L 578.872513 385.483675 
L 579.144663 385.655704 
L 579.961114 385.502989 
L 580.505414 385.708843 
L 582.410466 385.763025 
L 582.954767 385.620691 
L 583.771218 385.591467 
L 584.043368 385.469058 
L 585.404119 385.688925 
L 585.94842 385.709754 
L 586.22057 385.749348 
L 586.492721 385.491701 
L 586.764871 385.657817 
L 588.942073 385.532 
L 589.214223 385.77634 
L 590.030674 385.773026 
L 590.302825 385.880442 
L 590.847125 385.799546 
L 591.663576 385.882188 
L 592.480027 385.737563 
L 592.752177 385.511663 
L 593.024327 385.487273 
L 593.296478 385.583441 
L 594.385079 385.515266 
L 595.20153 385.679417 
L 595.47368 385.037525 
L 597.923033 384.940833 
L 598.195183 385.745508 
L 599.283784 385.671453 
L 600.100235 385.627924 
L 600.916686 385.761642 
L 602.005287 385.863708 
L 604.454639 386.100095 
L 604.99894 385.884573 
L 605.543241 385.904792 
L 606.359691 385.753157 
L 606.903992 385.666706 
L 607.176142 385.476576 
L 607.720443 385.525053 
L 607.992593 385.522288 
L 608.264743 385.401139 
L 608.809044 385.493819 
L 609.081194 385.226453 
L 609.353345 385.262705 
L 609.625495 385.178203 
L 610.169795 385.494424 
L 610.441946 385.563689 
L 610.714096 385.225781 
L 610.986246 385.364767 
L 611.530547 385.344203 
L 611.802697 385.599208 
L 612.074847 385.604147 
L 612.346998 385.742031 
L 612.619148 385.749958 
L 612.891298 385.274353 
L 613.163449 385.279445 
L 613.435599 385.62547 
L 614.25205 385.617325 
L 614.79635 385.489749 
L 615.340651 385.487509 
L 615.612801 385.904756 
L 616.157102 385.824582 
L 616.429252 385.59723 
L 616.973552 385.556613 
L 617.245703 385.713694 
L 618.878604 385.665261 
L 619.150755 385.880181 
L 619.695055 385.907715 
L 620.239356 385.775494 
L 622.416558 385.78709 
L 622.960859 385.929957 
L 623.233009 385.793372 
L 624.59376 385.740176 
L 624.865911 385.655589 
L 625.410211 385.638867 
L 625.682362 385.646311 
L 625.954512 385.843544 
L 630.036766 385.862499 
L 631.669668 385.75862 
L 633.30257 386.021025 
L 634.935471 385.869844 
L 637.656974 385.885488 
L 639.562026 385.931419 
L 640.106327 385.839192 
L 642.555679 385.89653 
L 643.37213 386.069426 
L 649.087286 386.055898 
L 649.359436 385.804249 
L 651.808789 385.580565 
L 652.080939 385.866482 
L 653.985991 385.986514 
L 654.258142 385.869165 
L 655.074592 385.851193 
L 655.346743 385.579127 
L 656.163194 385.519119 
L 656.707494 385.464038 
L 657.251795 385.60271 
L 657.796095 385.422699 
L 658.068246 385.74591 
L 658.340396 385.760803 
L 658.612546 385.916072 
L 659.428997 385.789867 
L 659.973298 385.703585 
L 660.789748 385.883457 
L 661.061899 385.567072 
L 661.87835 385.631633 
L 662.966951 385.691778 
L 663.511251 385.604038 
L 663.783402 385.915018 
L 665.688454 386.000358 
L 666.232754 386.041275 
L 667.865656 386.024489 
L 668.409956 385.947911 
L 668.682107 385.420366 
L 670.587159 385.354326 
L 671.131459 385.444914 
L 671.40361 385.958604 
L 671.94791 386.088606 
L 673.580812 385.97524 
L 674.125112 385.847887 
L 676.302315 385.762707 
L 676.846615 385.856528 
L 677.390916 385.839078 
L 677.663066 385.661321 
L 678.751667 385.656376 
L 680.656719 385.942834 
L 680.92887 386.06071 
L 683.106072 385.995401 
L 683.378222 385.807458 
L 683.922523 385.857969 
L 684.194673 385.662045 
L 685.283274 385.548084 
L 685.827575 385.48989 
L 686.099725 385.677685 
L 686.644025 385.665703 
L 686.916176 385.850766 
L 688.004777 385.875531 
L 688.276927 386.097545 
L 692.631332 386.005725 
L 692.903482 385.819555 
L 693.447783 385.828639 
L 694.264233 385.864784 
L 694.808534 385.795466 
L 696.169285 386.023955 
L 696.441436 385.53677 
L 698.346488 385.576154 
L 698.890788 385.601635 
L 699.162939 386.098002 
L 700.52369 385.975703 
L 701.067991 385.904133 
L 701.612291 385.909728 
L 702.428742 385.900527 
L 702.700892 385.917341 
L 702.973043 386.09074 
L 705.966696 386.142333 
L 708.960349 386.009508 
L 710.593251 386.114135 
L 710.865401 385.92429 
L 711.954002 385.893308 
L 713.314753 385.618162 
L 713.586904 385.81692 
L 715.219805 385.804006 
L 715.491956 385.573534 
L 716.308407 385.773361 
L 717.941308 385.792445 
L 718.213459 386.018598 
L 718.485609 385.911412 
L 722.567863 386.021917 
L 723.384314 385.937008 
L 724.200765 385.956962 
L 726.105817 386.019352 
L 726.377967 386.069341 
L 726.922268 385.941058 
L 729.09947 385.932361 
L 729.37162 386.018755 
L 729.915921 385.706514 
L 730.460221 385.741159 
L 731.276672 385.617768 
L 732.365273 385.739711 
L 732.637424 385.926148 
L 732.909574 385.879542 
L 733.453875 386.009166 
L 734.814626 385.875239 
L 735.358927 385.957534 
L 737.808279 386.100966 
L 738.080429 385.973157 
L 739.169031 385.918366 
L 739.985481 385.717042 
L 741.346233 385.9432 
L 741.890533 385.962518 
L 742.706984 386.140391 
L 744.067736 386.076391 
L 744.339886 385.969316 
L 744.884187 386.005819 
L 748.694291 386.108311 
L 749.782892 386.097852 
L 750.327192 385.93839 
L 751.143643 385.952375 
L 753.865146 385.638201 
L 754.409446 385.652829 
L 754.953747 385.5765 
L 755.498048 385.966879 
L 757.130949 386.045545 
L 757.67525 386.151186 
L 758.763851 386.183651 
L 759.308152 386.091501 
L 761.757504 386.10671 
L 762.846105 386.137742 
L 765.023308 386.117948 
L 765.567608 386.084724 
L 769.649862 386.078345 
L 770.194163 385.966972 
L 772.371365 386.008196 
L 772.643516 386.126596 
L 774.276417 386.122076 
L 774.820718 386.21103 
L 775.365018 386.121379 
L 776.99792 386.133079 
L 777.542221 386.043379 
L 778.086521 386.122075 
L 779.447273 386.064687 
L 779.719423 385.842011 
L 780.263724 385.896458 
L 781.624475 385.840819 
L 782.168776 385.854846 
L 782.440926 386.09277 
L 783.801677 385.919429 
L 784.073828 385.985918 
L 784.345978 385.842392 
L 785.97888 385.876317 
L 786.25103 386.010244 
L 786.79533 386.035018 
L 787.067481 386.168939 
L 788.972533 386.084764 
L 789.788984 386.063062 
L 795.77629 386.020422 
L 797.681342 385.947822 
L 798.225642 386.001565 
L 798.497793 386.110431 
L 800.947145 385.887138 
L 802.580047 386.000118 
L 803.124348 385.936553 
L 803.668648 386.016101 
L 804.485099 386.025903 
L 807.478752 386.120717 
L 808.839504 385.827967 
L 809.655954 385.880441 
L 810.200255 385.935547 
L 811.288856 386.128365 
L 813.193908 386.093397 
L 815.643261 385.882411 
L 818.909064 386.038755 
L 819.725515 385.899864 
L 820.814116 385.910206 
L 821.358417 385.860836 
L 825.168521 386.099639 
L 825.712821 386.022918 
L 827.890023 385.982957 
L 828.434324 386.068231 
L 828.706474 385.914016 
L 828.978625 385.913933 
L 829.522925 386.076371 
L 831.155827 385.998628 
L 831.427977 386.140869 
L 832.516578 386.015087 
L 833.87733 386.064444 
L 837.415283 386.03181 
L 839.320335 385.983563 
L 842.041838 386.081537 
L 843.130439 386.073502 
L 844.491191 386.187496 
L 845.035491 386.073769 
L 845.579792 385.982061 
L 847.212694 385.97177 
L 847.756994 386.102664 
L 848.301295 386.181148 
L 848.573445 386.019411 
L 851.022798 386.04148 
L 851.294948 386.171298 
L 852.92785 386.055649 
L 852.92785 386.055649 
" clip-path="url(#p6e4d1a08de)" style="fill: none; stroke-dasharray: 7.4,3.2; stroke-dashoffset: 0; stroke: #000000; stroke-width: 2"/>
   </g>
   <g id="patch_3">
    <path d="M 41.92 404.12 
L 41.92 10.8 
" style="fill: none; stroke: #000000; stroke-width: 0.8; stroke-linejoin: miter; stroke-linecap: square"/>
   </g>
   <g id="patch_4">
    <path d="M 853.2 404.12 
L 853.2 10.8 
" style="fill: none; stroke: #000000; stroke-width: 0.8; stroke-linejoin: miter; stroke-linecap: square"/>
   </g>
   <g id="patch_5">
    <path d="M 41.92 404.12 
L 853.2 404.12 
" style="fill: none; stroke: #000000; stroke-width: 0.8; stroke-linejoin: miter; stroke-linecap: square"/>
   </g>
   <g id="patch_6">
    <path d="M 41.92 10.8 
L 853.2 10.8 
" style="fill: none; stroke: #000000; stroke-width: 0.8; stroke-linejoin: miter; stroke-linecap: square"/>
   </g>
  </g>
 </g>
 <defs>
  <clipPath id="p6e4d1a08de">
   <rect x="41.92" y="10.8" width="811.28" height="393.32"/>
  </clipPath>
 </defs>
</svg>
