<?xml version="1.0" encoding="utf-8" standalone="no"?>
<!DOCTYPE svg PUBLIC "-//W3C//DTD SVG 1.1//EN"
  "http://www.w3.org/Graphics/SVG/1.1/DTD/svg11.dtd">
<svg xmlns:xlink="http://www.w3.org/1999/xlink" width="864pt" height="432pt" viewBox="0 0 864 432" xmlns="http://www.w3.org/2000/svg" version="1.1">
 <metadata>
  <rdf:RDF xmlns:dc="http://purl.org/dc/elements/1.1/" xmlns:cc="http://creativecommons.org/ns#" xmlns:rdf="http://www.w3.org/1999/02/22-rdf-syntax-ns#">
   <cc:Work>
    <dc:type rdf:resource="http://purl.org/dc/dcmitype/StillImage"/>
    <dc:date>2024-09-18T23:02:54.963795</dc:date>
    <dc:format>image/svg+xml</dc:format>
    <dc:creator>
     <cc:Agent>
      <dc:title>Matplotlib v3.9.2, https://matplotlib.org/</dc:title>
     </cc:Agent>
    </dc:creator>
   </cc:Work>
  </rdf:RDF>
 </metadata>
 <defs>
  <style type="text/css">*{stroke-linejoin: round; stroke-linecap: butt}</style>
 </defs>
 <g id="figure_1">
  <g id="patch_1">
   <path d="M 0 432 
L 864 432 
L 864 0 
L 0 0 
z
" style="fill: #ffffff"/>
  </g>
  <g id="axes_1">
   <g id="patch_2">
    <path d="M 41.92 404.12 
L 853.2 404.12 
L 853.2 10.8 
L 41.92 10.8 
z
" style="fill: #ffffff"/>
   </g>
   <g id="matplotlib.axis_1">
    <g id="xtick_1">
     <g id="line2d_1">
      <defs>
       <path id="mc2058b0002" d="M 0 0 
L 0 3.5 
" style="stroke: #000000; stroke-width: 0.8"/>
      </defs>
      <g>
       <use xlink:href="#mc2058b0002" x="199.048644" y="404.12" style="stroke: #000000; stroke-width: 0.8"/>
      </g>
     </g>
     <g id="text_1">
      <!-- 200 -->
      <g transform="translate(190.018175 418.771563) scale(0.1 -0.1)">
       <defs>
        <path id="DejaVuSansMono-32" d="M 1166 531 
L 3309 531 
L 3309 0 
L 475 0 
L 475 531 
Q 1059 1147 1496 1619 
Q 1934 2091 2100 2284 
Q 2413 2666 2522 2902 
Q 2631 3138 2631 3384 
Q 2631 3775 2401 3997 
Q 2172 4219 1772 4219 
Q 1488 4219 1175 4116 
Q 863 4013 513 3803 
L 513 4441 
Q 834 4594 1145 4672 
Q 1456 4750 1759 4750 
Q 2444 4750 2861 4386 
Q 3278 4022 3278 3431 
Q 3278 3131 3139 2831 
Q 3000 2531 2688 2169 
Q 2513 1966 2180 1606 
Q 1847 1247 1166 531 
z
" transform="scale(0.015625)"/>
        <path id="DejaVuSansMono-30" d="M 1509 2344 
Q 1509 2516 1629 2641 
Q 1750 2766 1919 2766 
Q 2094 2766 2219 2641 
Q 2344 2516 2344 2344 
Q 2344 2169 2220 2047 
Q 2097 1925 1919 1925 
Q 1744 1925 1626 2044 
Q 1509 2163 1509 2344 
z
M 1925 4250 
Q 1484 4250 1267 3775 
Q 1050 3300 1050 2328 
Q 1050 1359 1267 884 
Q 1484 409 1925 409 
Q 2369 409 2586 884 
Q 2803 1359 2803 2328 
Q 2803 3300 2586 3775 
Q 2369 4250 1925 4250 
z
M 1925 4750 
Q 2672 4750 3055 4137 
Q 3438 3525 3438 2328 
Q 3438 1134 3055 521 
Q 2672 -91 1925 -91 
Q 1178 -91 797 521 
Q 416 1134 416 2328 
Q 416 3525 797 4137 
Q 1178 4750 1925 4750 
z
" transform="scale(0.015625)"/>
       </defs>
       <use xlink:href="#DejaVuSansMono-32"/>
       <use xlink:href="#DejaVuSansMono-30" x="60.205078"/>
       <use xlink:href="#DejaVuSansMono-30" x="120.410156"/>
      </g>
     </g>
    </g>
    <g id="xtick_2">
     <g id="line2d_2">
      <g>
       <use xlink:href="#mc2058b0002" x="364.447217" y="404.12" style="stroke: #000000; stroke-width: 0.8"/>
      </g>
     </g>
     <g id="text_2">
      <!-- 400 -->
      <g transform="translate(355.416748 418.771563) scale(0.1 -0.1)">
       <defs>
        <path id="DejaVuSansMono-34" d="M 2297 4091 
L 825 1625 
L 2297 1625 
L 2297 4091 
z
M 2194 4666 
L 2925 4666 
L 2925 1625 
L 3547 1625 
L 3547 1113 
L 2925 1113 
L 2925 0 
L 2297 0 
L 2297 1113 
L 319 1113 
L 319 1709 
L 2194 4666 
z
" transform="scale(0.015625)"/>
       </defs>
       <use xlink:href="#DejaVuSansMono-34"/>
       <use xlink:href="#DejaVuSansMono-30" x="60.205078"/>
       <use xlink:href="#DejaVuSansMono-30" x="120.410156"/>
      </g>
     </g>
    </g>
    <g id="xtick_3">
     <g id="line2d_3">
      <g>
       <use xlink:href="#mc2058b0002" x="529.84579" y="404.12" style="stroke: #000000; stroke-width: 0.8"/>
      </g>
     </g>
     <g id="text_3">
      <!-- 600 -->
      <g transform="translate(520.815321 418.771563) scale(0.1 -0.1)">
       <defs>
        <path id="DejaVuSansMono-36" d="M 3097 4563 
L 3097 3981 
Q 2900 4097 2678 4158 
Q 2456 4219 2216 4219 
Q 1616 4219 1306 3767 
Q 997 3316 997 2438 
Q 1147 2750 1412 2917 
Q 1678 3084 2022 3084 
Q 2697 3084 3067 2670 
Q 3438 2256 3438 1497 
Q 3438 741 3056 325 
Q 2675 -91 1984 -91 
Q 1172 -91 794 492 
Q 416 1075 416 2328 
Q 416 3509 870 4129 
Q 1325 4750 2188 4750 
Q 2419 4750 2650 4701 
Q 2881 4653 3097 4563 
z
M 1972 2591 
Q 1569 2591 1337 2300 
Q 1106 2009 1106 1497 
Q 1106 984 1337 693 
Q 1569 403 1972 403 
Q 2391 403 2603 679 
Q 2816 956 2816 1497 
Q 2816 2041 2603 2316 
Q 2391 2591 1972 2591 
z
" transform="scale(0.015625)"/>
       </defs>
       <use xlink:href="#DejaVuSansMono-36"/>
       <use xlink:href="#DejaVuSansMono-30" x="60.205078"/>
       <use xlink:href="#DejaVuSansMono-30" x="120.410156"/>
      </g>
     </g>
    </g>
    <g id="xtick_4">
     <g id="line2d_4">
      <g>
       <use xlink:href="#mc2058b0002" x="695.244363" y="404.12" style="stroke: #000000; stroke-width: 0.8"/>
      </g>
     </g>
     <g id="text_4">
      <!-- 800 -->
      <g transform="translate(686.213894 418.771563) scale(0.1 -0.1)">
       <defs>
        <path id="DejaVuSansMono-38" d="M 1925 2216 
Q 1503 2216 1273 1980 
Q 1044 1744 1044 1313 
Q 1044 881 1276 642 
Q 1509 403 1925 403 
Q 2350 403 2579 639 
Q 2809 875 2809 1313 
Q 2809 1741 2576 1978 
Q 2344 2216 1925 2216 
z
M 1375 2478 
Q 972 2581 745 2862 
Q 519 3144 519 3541 
Q 519 4097 897 4423 
Q 1275 4750 1925 4750 
Q 2578 4750 2956 4423 
Q 3334 4097 3334 3541 
Q 3334 3144 3107 2862 
Q 2881 2581 2478 2478 
Q 2947 2375 3195 2062 
Q 3444 1750 3444 1253 
Q 3444 622 3041 265 
Q 2638 -91 1925 -91 
Q 1213 -91 811 264 
Q 409 619 409 1247 
Q 409 1747 657 2061 
Q 906 2375 1375 2478 
z
M 1147 3481 
Q 1147 3106 1347 2909 
Q 1547 2713 1925 2713 
Q 2306 2713 2506 2909 
Q 2706 3106 2706 3481 
Q 2706 3863 2507 4063 
Q 2309 4263 1925 4263 
Q 1547 4263 1347 4061 
Q 1147 3859 1147 3481 
z
" transform="scale(0.015625)"/>
       </defs>
       <use xlink:href="#DejaVuSansMono-38"/>
       <use xlink:href="#DejaVuSansMono-30" x="60.205078"/>
       <use xlink:href="#DejaVuSansMono-30" x="120.410156"/>
      </g>
     </g>
    </g>
   </g>
   <g id="matplotlib.axis_2">
    <g id="ytick_1">
     <g id="line2d_5">
      <defs>
       <path id="m4d4c1fdfb8" d="M 0 0 
L -3.5 0 
" style="stroke: #000000; stroke-width: 0.8"/>
      </defs>
      <g>
       <use xlink:href="#m4d4c1fdfb8" x="41.92" y="379.638431" style="stroke: #000000; stroke-width: 0.8"/>
      </g>
     </g>
     <g id="text_5">
      <!-- 0.04 -->
      <g transform="translate(10.83875 383.464212) scale(0.1 -0.1)">
       <defs>
        <path id="DejaVuSansMono-2e" d="M 1528 953 
L 2316 953 
L 2316 0 
L 1528 0 
L 1528 953 
z
" transform="scale(0.015625)"/>
       </defs>
       <use xlink:href="#DejaVuSansMono-30"/>
       <use xlink:href="#DejaVuSansMono-2e" x="60.205078"/>
       <use xlink:href="#DejaVuSansMono-30" x="120.410156"/>
       <use xlink:href="#DejaVuSansMono-34" x="180.615234"/>
      </g>
     </g>
    </g>
    <g id="ytick_2">
     <g id="line2d_6">
      <g>
       <use xlink:href="#m4d4c1fdfb8" x="41.92" y="316.632748" style="stroke: #000000; stroke-width: 0.8"/>
      </g>
     </g>
     <g id="text_6">
      <!-- 0.05 -->
      <g transform="translate(10.83875 320.458529) scale(0.1 -0.1)">
       <defs>
        <path id="DejaVuSansMono-35" d="M 647 4666 
L 3009 4666 
L 3009 4134 
L 1222 4134 
L 1222 2988 
Q 1356 3038 1492 3061 
Q 1628 3084 1766 3084 
Q 2491 3084 2916 2656 
Q 3341 2228 3341 1497 
Q 3341 759 2895 334 
Q 2450 -91 1678 -91 
Q 1306 -91 998 -41 
Q 691 9 447 109 
L 447 750 
Q 734 594 1025 517 
Q 1316 441 1619 441 
Q 2141 441 2423 716 
Q 2706 991 2706 1497 
Q 2706 1997 2414 2275 
Q 2122 2553 1600 2553 
Q 1347 2553 1106 2495 
Q 866 2438 647 2322 
L 647 4666 
z
" transform="scale(0.015625)"/>
       </defs>
       <use xlink:href="#DejaVuSansMono-30"/>
       <use xlink:href="#DejaVuSansMono-2e" x="60.205078"/>
       <use xlink:href="#DejaVuSansMono-30" x="120.410156"/>
       <use xlink:href="#DejaVuSansMono-35" x="180.615234"/>
      </g>
     </g>
    </g>
    <g id="ytick_3">
     <g id="line2d_7">
      <g>
       <use xlink:href="#m4d4c1fdfb8" x="41.92" y="253.627064" style="stroke: #000000; stroke-width: 0.8"/>
      </g>
     </g>
     <g id="text_7">
      <!-- 0.06 -->
      <g transform="translate(10.83875 257.452846) scale(0.1 -0.1)">
       <use xlink:href="#DejaVuSansMono-30"/>
       <use xlink:href="#DejaVuSansMono-2e" x="60.205078"/>
       <use xlink:href="#DejaVuSansMono-30" x="120.410156"/>
       <use xlink:href="#DejaVuSansMono-36" x="180.615234"/>
      </g>
     </g>
    </g>
    <g id="ytick_4">
     <g id="line2d_8">
      <g>
       <use xlink:href="#m4d4c1fdfb8" x="41.92" y="190.621381" style="stroke: #000000; stroke-width: 0.8"/>
      </g>
     </g>
     <g id="text_8">
      <!-- 0.07 -->
      <g transform="translate(10.83875 194.447162) scale(0.1 -0.1)">
       <defs>
        <path id="DejaVuSansMono-37" d="M 434 4666 
L 3372 4666 
L 3372 4397 
L 1703 0 
L 1044 0 
L 2669 4134 
L 434 4134 
L 434 4666 
z
" transform="scale(0.015625)"/>
       </defs>
       <use xlink:href="#DejaVuSansMono-30"/>
       <use xlink:href="#DejaVuSansMono-2e" x="60.205078"/>
       <use xlink:href="#DejaVuSansMono-30" x="120.410156"/>
       <use xlink:href="#DejaVuSansMono-37" x="180.615234"/>
      </g>
     </g>
    </g>
    <g id="ytick_5">
     <g id="line2d_9">
      <g>
       <use xlink:href="#m4d4c1fdfb8" x="41.92" y="127.615698" style="stroke: #000000; stroke-width: 0.8"/>
      </g>
     </g>
     <g id="text_9">
      <!-- 0.08 -->
      <g transform="translate(10.83875 131.441479) scale(0.1 -0.1)">
       <use xlink:href="#DejaVuSansMono-30"/>
       <use xlink:href="#DejaVuSansMono-2e" x="60.205078"/>
       <use xlink:href="#DejaVuSansMono-30" x="120.410156"/>
       <use xlink:href="#DejaVuSansMono-38" x="180.615234"/>
      </g>
     </g>
    </g>
    <g id="ytick_6">
     <g id="line2d_10">
      <g>
       <use xlink:href="#m4d4c1fdfb8" x="41.92" y="64.610014" style="stroke: #000000; stroke-width: 0.8"/>
      </g>
     </g>
     <g id="text_10">
      <!-- 0.09 -->
      <g transform="translate(10.83875 68.435796) scale(0.1 -0.1)">
       <defs>
        <path id="DejaVuSansMono-39" d="M 1863 2069 
Q 2266 2069 2495 2359 
Q 2725 2650 2725 3163 
Q 2725 3675 2495 3965 
Q 2266 4256 1863 4256 
Q 1444 4256 1231 3979 
Q 1019 3703 1019 3163 
Q 1019 2619 1230 2344 
Q 1441 2069 1863 2069 
z
M 738 97 
L 738 678 
Q 934 563 1156 502 
Q 1378 441 1619 441 
Q 2219 441 2526 892 
Q 2834 1344 2834 2222 
Q 2688 1909 2422 1742 
Q 2156 1575 1813 1575 
Q 1138 1575 767 1990 
Q 397 2406 397 3169 
Q 397 3922 776 4336 
Q 1156 4750 1850 4750 
Q 2663 4750 3041 4165 
Q 3419 3581 3419 2328 
Q 3419 1150 2964 529 
Q 2509 -91 1644 -91 
Q 1416 -91 1184 -42 
Q 953 6 738 97 
z
" transform="scale(0.015625)"/>
       </defs>
       <use xlink:href="#DejaVuSansMono-30"/>
       <use xlink:href="#DejaVuSansMono-2e" x="60.205078"/>
       <use xlink:href="#DejaVuSansMono-30" x="120.410156"/>
       <use xlink:href="#DejaVuSansMono-39" x="180.615234"/>
      </g>
     </g>
    </g>
   </g>
   <g id="line2d_11">
    <path d="M 33.650071 174.758231 
L 34.477064 197.474398 
L 35.304057 261.716056 
L 36.13105 288.377309 
L 36.958043 290.481665 
L 37.785036 295.169774 
L 38.612029 271.88453 
L 39.439021 272.051963 
L 40.266014 276.772618 
L 41.093007 213.502218 
L 41.92 214.024068 
L 42.746993 215.964164 
L 43.573986 229.763449 
L 44.400979 190.722403 
L 45.227971 190.880387 
L 46.054964 190.910641 
L 46.881957 216.774797 
L 47.70895 162.598517 
L 48.535943 155.085431 
L 49.362936 220.087233 
L 50.189929 207.690639 
L 51.016922 152.445133 
L 51.843914 113.830802 
L 52.670907 154.026911 
L 53.4979 124.112941 
L 54.324893 124.456847 
L 55.151886 122.159685 
L 55.978879 145.667699 
L 56.805872 152.954654 
L 57.632864 153.311866 
L 58.459857 86.03857 
L 59.28685 139.676967 
L 60.113843 143.644834 
L 60.940836 128.72419 
L 61.767829 124.468029 
L 62.594822 77.827209 
L 63.421814 51.60207 
L 64.248807 72.220519 
L 65.0758 65.773612 
L 65.902793 28.678182 
L 66.729786 108.406415 
L 67.556779 89.163807 
L 68.383772 133.420808 
L 69.210765 148.427688 
L 70.037757 180.867996 
L 70.86475 223.366239 
L 71.691743 256.696523 
L 72.518736 250.895358 
L 73.345729 248.688418 
L 74.172722 285.321778 
L 74.999715 255.537764 
L 75.826707 262.262976 
L 76.6537 260.068602 
L 77.480693 259.088294 
L 78.307686 260.670621 
L 79.134679 253.936549 
L 79.961672 241.702053 
L 80.788665 258.191736 
L 81.615657 269.777829 
L 82.44265 267.913541 
L 83.269643 296.220701 
L 84.096636 310.970829 
L 84.923629 313.332139 
L 85.750622 314.153785 
L 86.577615 304.973572 
L 87.404608 281.773001 
L 88.2316 251.074687 
L 89.058593 212.980988 
L 89.885586 210.251507 
L 90.712579 212.625245 
L 91.539572 189.52975 
L 92.366565 179.871595 
L 93.193558 172.226605 
L 94.02055 170.683496 
L 94.847543 178.872012 
L 95.674536 213.208712 
L 96.501529 256.200839 
L 97.328522 274.002433 
L 98.155515 259.66314 
L 98.982508 230.470916 
L 99.809501 249.090934 
L 100.636493 242.180624 
L 101.463486 249.549235 
L 102.290479 244.303909 
L 103.117472 233.792142 
L 103.944465 201.528802 
L 104.771458 200.984652 
L 105.598451 221.238594 
L 106.425443 170.670321 
L 107.252436 198.866804 
L 108.079429 203.746318 
L 108.906422 214.42043 
L 109.733415 202.594312 
L 110.560408 200.721034 
L 111.387401 205.013342 
L 112.214393 234.744792 
L 113.041386 222.327001 
L 113.868379 213.143107 
L 114.695372 280.381914 
L 115.522365 281.160347 
L 116.349358 272.934051 
L 117.176351 278.111148 
L 118.003344 285.821452 
L 118.830336 294.863672 
L 119.657329 299.439841 
L 120.484322 292.340792 
L 121.311315 304.358902 
L 122.138308 305.43381 
L 122.965301 305.513291 
L 123.792294 288.195854 
L 124.619286 296.305745 
L 125.446279 294.991309 
L 126.273272 296.892008 
L 127.100265 296.765359 
L 127.927258 284.003893 
L 128.754251 291.700666 
L 129.581244 290.491084 
L 130.408236 293.858556 
L 131.235229 281.564558 
L 132.062222 297.763928 
L 132.889215 297.858091 
L 133.716208 297.229708 
L 134.543201 296.935904 
L 135.370194 293.761513 
L 136.197187 291.166046 
L 137.024179 293.169237 
L 137.851172 294.806408 
L 138.678165 299.822974 
L 139.505158 307.261789 
L 140.332151 308.640089 
L 141.159144 308.965239 
L 141.986137 307.610873 
L 142.813129 302.077998 
L 143.640122 297.476227 
L 144.467115 314.192088 
L 145.294108 311.087785 
L 146.121101 308.814296 
L 146.948094 300.673336 
L 147.775087 306.81041 
L 148.60208 302.1878 
L 149.429072 302.031293 
L 150.256065 303.824556 
L 151.083058 311.919928 
L 151.910051 316.659634 
L 153.564037 318.65586 
L 154.39103 318.454545 
L 155.218022 323.894201 
L 156.045015 321.932934 
L 156.872008 326.512119 
L 157.699001 327.386942 
L 158.525994 323.333904 
L 159.352987 323.448353 
L 160.17998 326.553248 
L 161.006972 325.948175 
L 161.833965 327.553838 
L 162.660958 330.523246 
L 163.487951 331.606136 
L 164.314944 333.298071 
L 165.141937 331.530175 
L 165.96893 331.576621 
L 166.795923 334.54578 
L 167.622915 329.007824 
L 168.449908 328.117169 
L 169.276901 327.582241 
L 170.103894 326.733933 
L 170.930887 321.698393 
L 171.75788 322.896516 
L 172.584873 323.176993 
L 173.411865 323.889424 
L 174.238858 323.463807 
L 175.065851 325.118321 
L 175.892844 322.420809 
L 176.719837 313.732846 
L 177.54683 315.247275 
L 178.373823 316.441383 
L 179.200815 313.918625 
L 180.027808 313.538103 
L 180.854801 313.004992 
L 181.681794 313.972731 
L 182.508787 311.764054 
L 183.33578 313.093634 
L 184.989766 329.200174 
L 186.643751 329.115107 
L 187.470744 336.683153 
L 188.297737 335.641063 
L 189.12473 334.807876 
L 189.951723 332.297103 
L 190.778716 333.953363 
L 191.605708 333.91878 
L 192.432701 333.641218 
L 193.259694 335.021006 
L 194.086687 331.736175 
L 194.91368 331.441409 
L 195.740673 330.360837 
L 197.394659 333.006316 
L 198.221651 335.579211 
L 199.048644 335.439349 
L 199.875637 333.970337 
L 200.70263 334.180973 
L 201.529623 334.261909 
L 202.356616 337.718694 
L 203.183609 336.995748 
L 204.010601 337.525853 
L 204.837594 335.95409 
L 205.664587 335.455521 
L 206.49158 332.92417 
L 208.145566 335.191507 
L 208.972559 335.299601 
L 209.799551 333.758134 
L 210.626544 333.907009 
L 211.453537 335.037671 
L 212.28053 335.009475 
L 213.107523 336.916746 
L 213.934516 335.636493 
L 214.761509 335.236906 
L 215.588502 334.087005 
L 216.415494 334.78658 
L 217.242487 334.018468 
L 218.06948 335.35696 
L 218.896473 335.374979 
L 219.723466 334.81849 
L 220.550459 334.987888 
L 221.377452 334.527899 
L 222.204444 336.419573 
L 223.031437 338.955722 
L 223.85843 340.168841 
L 224.685423 339.506777 
L 225.512416 340.082605 
L 226.339409 340.115556 
L 227.166402 337.543987 
L 227.993394 333.32717 
L 228.820387 333.811009 
L 229.64738 330.996871 
L 230.474373 330.732972 
L 231.301366 322.606113 
L 232.128359 321.648375 
L 232.955352 321.329309 
L 233.782345 321.612227 
L 234.609337 321.130313 
L 235.43633 323.572043 
L 236.263323 326.396642 
L 237.090316 324.494793 
L 237.917309 326.518881 
L 238.744302 324.95192 
L 239.571295 331.787031 
L 240.398287 330.230024 
L 241.22528 330.706363 
L 242.052273 330.31888 
L 242.879266 328.981996 
L 243.706259 328.883397 
L 244.533252 330.420359 
L 245.360245 332.336621 
L 246.187238 332.768041 
L 247.01423 334.00754 
L 247.841223 334.956847 
L 248.668216 336.227814 
L 249.495209 336.653006 
L 250.322202 335.896332 
L 251.149195 336.840677 
L 251.976188 337.069965 
L 252.80318 336.404824 
L 253.630173 336.440233 
L 254.457166 337.209449 
L 255.284159 337.749609 
L 256.111152 337.891106 
L 256.938145 337.723117 
L 257.765138 336.879848 
L 259.419123 339.281714 
L 260.246116 337.927719 
L 261.073109 338.561188 
L 261.900102 338.313987 
L 262.727095 337.640333 
L 263.554088 337.67342 
L 264.381081 333.224448 
L 265.208073 331.047713 
L 266.035066 331.321315 
L 267.689052 330.942481 
L 268.516045 332.26509 
L 269.343038 332.456983 
L 270.170031 330.480086 
L 270.997023 331.261852 
L 271.824016 328.592686 
L 272.651009 333.266969 
L 273.478002 334.097013 
L 274.304995 334.690883 
L 275.131988 334.529988 
L 275.958981 333.800282 
L 276.785973 333.832445 
L 277.612966 332.561311 
L 278.439959 334.59473 
L 279.266952 333.862526 
L 280.093945 336.236879 
L 280.920938 336.666662 
L 281.747931 339.196091 
L 282.574924 339.130835 
L 283.401916 339.367815 
L 284.228909 340.191831 
L 285.055902 337.03483 
L 285.882895 337.444989 
L 286.709888 336.968369 
L 287.536881 337.587621 
L 288.363874 337.531193 
L 289.190866 337.111021 
L 290.844852 337.425926 
L 291.671845 336.982893 
L 292.498838 336.950688 
L 293.325831 339.983464 
L 294.152824 340.941059 
L 294.979817 341.329002 
L 295.806809 340.990067 
L 296.633802 341.335565 
L 297.460795 341.414304 
L 298.287788 339.838342 
L 299.114781 339.798664 
L 300.768767 338.618184 
L 301.595759 338.278674 
L 302.422752 336.969096 
L 303.249745 336.521111 
L 304.076738 334.864278 
L 304.903731 334.523409 
L 305.730724 334.827472 
L 307.384709 334.657452 
L 308.211702 335.679479 
L 309.038695 336.479548 
L 309.865688 336.991148 
L 310.692681 337.352967 
L 311.519674 338.048581 
L 312.346667 340.241943 
L 313.17366 340.581218 
L 314.000652 340.597134 
L 314.827645 342.320523 
L 315.654638 341.988101 
L 317.308624 341.643388 
L 318.135617 341.104598 
L 318.96261 341.74248 
L 319.789602 341.117113 
L 320.616595 340.872994 
L 321.443588 338.92646 
L 322.270581 338.045133 
L 323.097574 338.061626 
L 323.924567 338.45337 
L 324.75156 338.360049 
L 325.578552 338.480765 
L 327.232538 339.037966 
L 328.059531 339.645918 
L 328.886524 339.867365 
L 329.713517 341.547878 
L 330.54051 342.452538 
L 332.194495 341.867711 
L 333.021488 342.218633 
L 334.675474 342.19473 
L 335.502467 341.801168 
L 336.32946 341.571446 
L 337.156453 341.144554 
L 337.983445 341.427451 
L 338.810438 341.081672 
L 339.637431 341.097109 
L 340.464424 340.205105 
L 342.11841 340.078615 
L 343.772396 340.593771 
L 344.599388 340.877294 
L 345.426381 340.289614 
L 346.253374 340.291134 
L 347.90736 340.977824 
L 348.734353 342.043764 
L 349.561346 341.940264 
L 350.388338 341.587134 
L 351.215331 341.497151 
L 352.042324 341.688953 
L 352.869317 341.601226 
L 353.69631 341.942053 
L 354.523303 341.934298 
L 355.350296 341.617745 
L 356.177288 340.530351 
L 357.004281 340.588445 
L 357.831274 338.95809 
L 359.48526 339.248648 
L 360.312253 339.453042 
L 361.139246 339.437051 
L 361.966239 340.268022 
L 362.793231 337.810865 
L 363.620224 338.160033 
L 364.447217 339.13572 
L 365.27421 338.572365 
L 366.101203 340.258453 
L 366.928196 340.325525 
L 368.582181 340.192958 
L 370.236167 340.005452 
L 371.06316 342.375826 
L 372.717146 341.995061 
L 373.544139 342.42382 
L 376.025117 342.934184 
L 376.85211 342.75473 
L 377.679103 342.961805 
L 379.333089 343.089173 
L 381.814067 343.923383 
L 383.468053 343.880623 
L 384.295046 343.382253 
L 385.122039 343.506643 
L 385.949032 343.284216 
L 388.43001 343.205854 
L 389.257003 343.111637 
L 391.737982 343.584875 
L 392.564975 343.989572 
L 393.391967 344.032194 
L 394.21896 344.417009 
L 395.045953 344.587552 
L 395.872946 344.628479 
L 397.526932 345.084978 
L 400.00791 345.04844 
L 400.834903 345.251691 
L 404.969867 345.367025 
L 405.79686 344.877913 
L 407.450846 345.153618 
L 408.277839 345.426469 
L 409.104832 345.497477 
L 409.931825 345.775766 
L 411.58581 345.980803 
L 413.239796 346.405866 
L 414.066789 346.936368 
L 414.893782 347.06694 
L 416.547768 346.849526 
L 417.37476 346.999992 
L 418.201753 346.999835 
L 419.855739 347.19653 
L 420.682732 347.146306 
L 423.16371 347.396598 
L 423.990703 347.382196 
L 424.817696 347.127594 
L 425.644689 347.066911 
L 428.952661 347.635183 
L 429.779653 347.310801 
L 437.222589 348.545631 
L 438.049582 349.080156 
L 438.876575 349.10578 
L 439.703568 348.589032 
L 441.357554 348.223859 
L 442.184546 347.707022 
L 443.011539 347.777345 
L 443.838532 347.735064 
L 445.492518 347.423905 
L 446.319511 347.357251 
L 447.146504 347.463746 
L 447.973496 348.093646 
L 448.800489 348.573084 
L 449.627482 349.372406 
L 450.454475 349.980657 
L 452.108461 349.866841 
L 452.935454 350.217225 
L 453.762446 350.389032 
L 454.589439 350.181474 
L 456.243425 350.352336 
L 457.070418 350.241901 
L 457.897411 350.01381 
L 461.205382 350.180568 
L 462.032375 350.015265 
L 462.859368 350.342633 
L 463.686361 349.840288 
L 465.340347 349.509984 
L 466.994332 349.176436 
L 468.648318 348.360179 
L 469.475311 348.213506 
L 472.783282 348.63195 
L 473.610275 348.639803 
L 474.437268 349.054187 
L 475.264261 348.845669 
L 476.091254 349.347453 
L 476.918247 349.054495 
L 481.053211 349.209214 
L 481.880204 349.394554 
L 482.707197 349.417258 
L 483.53419 349.664609 
L 484.361182 349.690653 
L 485.188175 350.323891 
L 486.015168 350.612898 
L 487.669154 350.725922 
L 488.496147 350.943364 
L 490.150133 351.111701 
L 490.977125 351.324517 
L 492.631111 350.453782 
L 493.458104 350.626384 
L 494.285097 350.537698 
L 495.939083 350.675968 
L 496.766075 350.394219 
L 497.593068 350.406739 
L 499.247054 350.032254 
L 500.074047 350.449159 
L 500.90104 350.378479 
L 501.728033 349.833836 
L 502.555025 349.428714 
L 504.209011 348.353766 
L 506.68999 348.112313 
L 508.343976 348.258343 
L 509.170968 348.832509 
L 513.305933 350.891844 
L 514.132926 350.926084 
L 514.959918 351.139806 
L 515.786911 350.955076 
L 516.613904 350.556885 
L 518.26789 350.244659 
L 519.094883 350.238131 
L 519.921876 349.839009 
L 520.748869 349.954869 
L 524.05684 349.471955 
L 524.883833 349.864323 
L 526.537819 350.235207 
L 527.364811 350.165767 
L 528.191804 350.483483 
L 529.018797 350.60879 
L 529.84579 350.524244 
L 530.672783 350.887295 
L 531.499776 351.073724 
L 532.326769 351.487589 
L 534.807747 351.836427 
L 535.63474 351.844071 
L 536.461733 352.019689 
L 537.288726 351.920797 
L 538.115719 352.042959 
L 539.769704 351.812765 
L 541.42369 352.106853 
L 543.077676 352.191751 
L 543.904669 352.541161 
L 544.731662 352.583556 
L 548.866626 353.645472 
L 549.693619 353.816985 
L 552.174597 353.799107 
L 553.828583 354.156556 
L 554.655576 353.843324 
L 555.482569 353.812305 
L 557.136555 354.01338 
L 562.098512 354.299591 
L 562.925505 354.742746 
L 563.752497 354.91735 
L 564.57949 354.759661 
L 565.406483 354.957343 
L 566.233476 354.976143 
L 567.060469 355.227586 
L 568.714455 355.099474 
L 569.541448 354.810031 
L 570.36844 354.660375 
L 571.195433 354.687757 
L 572.022426 354.227308 
L 572.849419 354.418096 
L 574.503405 354.23637 
L 575.330398 354.171282 
L 576.15739 354.342802 
L 576.984383 354.226275 
L 577.811376 353.968277 
L 579.465362 353.927385 
L 580.292355 354.495434 
L 581.119348 353.645739 
L 582.773333 353.927747 
L 584.427319 354.227017 
L 585.254312 354.258757 
L 586.081305 355.007123 
L 587.735291 355.307445 
L 588.562283 355.309381 
L 589.389276 356.271382 
L 591.043262 355.922315 
L 591.870255 355.335482 
L 592.697248 355.498068 
L 593.524241 355.776252 
L 596.005219 355.857203 
L 599.313191 355.46592 
L 600.140183 356.129089 
L 602.621162 355.993581 
L 603.448155 355.817599 
L 604.275148 355.786791 
L 606.756126 356.361604 
L 609.237105 356.182874 
L 611.718084 356.661079 
L 613.372069 356.891263 
L 615.026055 356.863536 
L 615.853048 357.206442 
L 616.680041 357.228531 
L 618.334027 356.936929 
L 619.988012 357.074357 
L 620.815005 356.953805 
L 622.468991 357.140811 
L 623.295984 357.181879 
L 624.122977 357.009787 
L 624.949969 357.122689 
L 626.603955 357.610013 
L 627.430948 357.649168 
L 628.257941 357.209045 
L 629.911927 356.678438 
L 630.738919 356.853415 
L 631.565912 357.143281 
L 632.392905 357.562873 
L 633.219898 357.648372 
L 634.046891 357.079929 
L 634.873884 357.301673 
L 635.700877 357.312831 
L 636.52787 357.84545 
L 638.181855 358.242615 
L 639.835841 357.746858 
L 640.662834 357.717097 
L 641.489827 357.823732 
L 642.31682 358.576074 
L 643.143812 358.299327 
L 644.797798 358.246385 
L 645.624791 358.784418 
L 646.451784 358.757968 
L 648.10577 359.497906 
L 649.759755 359.750691 
L 650.586748 359.689644 
L 652.240734 360.007414 
L 653.067727 360.333304 
L 653.89472 360.161737 
L 654.721713 360.577109 
L 658.029684 360.700862 
L 660.510663 361.257917 
L 661.337655 361.168157 
L 662.164648 361.529784 
L 663.818634 361.572436 
L 664.645627 361.826167 
L 665.47262 361.738795 
L 666.299613 362.080408 
L 667.126606 362.240676 
L 667.953598 362.273479 
L 668.780591 362.190888 
L 669.607584 362.403966 
L 671.26157 362.288285 
L 672.088563 360.437984 
L 672.915556 360.372374 
L 673.742548 360.443115 
L 674.569541 360.316909 
L 675.396534 360.35701 
L 676.223527 360.276289 
L 677.05052 360.467736 
L 678.704506 360.034799 
L 679.531498 360.12779 
L 680.358491 362.100173 
L 682.012477 362.07761 
L 682.83947 362.36457 
L 686.147441 362.685469 
L 686.974434 362.972407 
L 687.801427 362.982474 
L 688.62842 363.25395 
L 689.455413 363.141754 
L 690.282406 363.337358 
L 691.109399 363.134989 
L 691.936391 363.212823 
L 692.763384 363.412011 
L 693.590377 363.260113 
L 694.41737 363.569385 
L 696.071356 363.895772 
L 696.898349 363.767787 
L 697.725341 364.239466 
L 699.379327 364.741868 
L 700.20632 364.224956 
L 701.033313 364.352226 
L 701.860306 364.923528 
L 702.687299 365.127229 
L 703.514292 365.162192 
L 704.341284 364.994439 
L 705.168277 365.200549 
L 705.99527 364.966844 
L 706.822263 364.483065 
L 707.649256 364.285611 
L 708.476249 364.830353 
L 709.303242 364.892069 
L 710.957227 364.657291 
L 711.78422 364.663173 
L 713.438206 364.435408 
L 714.265199 364.608689 
L 715.092192 365.119221 
L 715.919185 365.144805 
L 716.746177 365.302202 
L 717.57317 365.151309 
L 718.400163 365.217125 
L 719.227156 364.961209 
L 720.054149 364.854705 
L 720.881142 365.303934 
L 721.708135 365.566082 
L 723.36212 365.74803 
L 724.189113 366.169394 
L 725.016106 366.231014 
L 725.843099 366.640335 
L 726.670092 366.866346 
L 727.497085 367.511869 
L 728.324077 367.15566 
L 729.15107 367.212113 
L 731.632049 367.934398 
L 732.459042 367.997116 
L 734.113028 368.380358 
L 734.94002 368.2273 
L 735.767013 368.192098 
L 736.594006 369.049888 
L 737.420999 369.290937 
L 738.247992 369.315298 
L 739.074985 369.58886 
L 739.901978 369.247057 
L 740.72897 369.086088 
L 741.555963 369.1525 
L 742.382956 368.137588 
L 743.209949 368.676809 
L 744.036942 368.809754 
L 744.863935 368.665651 
L 745.690928 368.288645 
L 746.51792 367.56027 
L 747.344913 367.196298 
L 748.171906 367.074287 
L 748.998899 367.3395 
L 749.825892 367.233151 
L 750.652885 367.95048 
L 751.479878 367.424377 
L 753.960856 367.546297 
L 754.787849 368.253717 
L 755.614842 368.525888 
L 756.441835 368.655154 
L 757.268828 368.629958 
L 759.749806 369.682835 
L 760.576799 369.763349 
L 761.403792 370.263145 
L 762.230785 370.594675 
L 763.057778 370.636379 
L 764.711764 371.130796 
L 766.365749 370.885404 
L 767.192742 371.119346 
L 770.500714 370.19236 
L 771.327706 370.469133 
L 772.981692 370.321951 
L 773.808685 370.767183 
L 774.635678 370.890997 
L 775.462671 370.569084 
L 776.289664 370.862787 
L 777.116656 369.722485 
L 777.943649 369.804734 
L 778.770642 369.691379 
L 779.597635 369.71734 
L 780.424628 369.618589 
L 781.251621 370.146657 
L 782.905607 370.576907 
L 783.732599 370.174632 
L 784.559592 370.45263 
L 785.386585 372.183412 
L 787.040571 373.18608 
L 788.694557 373.220278 
L 789.521549 372.33244 
L 791.175535 372.670069 
L 792.002528 373.846435 
L 792.829521 374.133913 
L 794.483507 374.193507 
L 795.310499 374.339159 
L 796.137492 374.69688 
L 796.964485 375.557308 
L 797.791478 376.764898 
L 798.618471 376.574408 
L 800.272457 376.660793 
L 801.09945 375.902444 
L 801.926442 374.740558 
L 802.753435 374.181922 
L 803.580428 373.997342 
L 804.407421 374.252188 
L 806.061407 373.975387 
L 806.8884 374.139459 
L 807.715392 374.126229 
L 808.542385 373.212614 
L 809.369378 372.968446 
L 810.196371 374.085541 
L 811.850357 374.862629 
L 812.67735 374.586344 
L 813.504343 374.439218 
L 814.331335 374.479263 
L 815.985321 373.637562 
L 816.812314 374.64307 
L 817.639307 374.634057 
L 819.293293 375.841644 
L 820.120285 376.157286 
L 820.947278 376.054316 
L 821.774271 375.828446 
L 822.601264 376.071183 
L 824.25525 377.32952 
L 825.082243 377.499951 
L 825.909235 378.968296 
L 826.736228 379.083924 
L 827.563221 378.632455 
L 828.390214 378.526343 
L 829.217207 379.085271 
L 830.871193 378.82755 
L 832.525178 379.988762 
L 834.179164 379.971067 
L 835.006157 380.389042 
L 836.660143 381.828264 
L 837.487136 382.250647 
L 838.314128 383.532443 
L 839.141121 383.605325 
L 839.968114 383.856551 
L 840.795107 383.459898 
L 842.449093 384.659136 
L 843.276086 383.928834 
L 844.103078 384.263157 
L 845.757064 384.517805 
L 846.584057 384.502854 
L 847.41105 385.112529 
L 848.238043 385.112426 
L 849.065036 385.861388 
L 849.892029 385.514058 
L 850.719021 385.410955 
L 851.546014 386.198358 
L 852.373007 386.241818 
L 852.373007 386.241818 
" clip-path="url(#pf2f3ebcbe3)" style="fill: none; stroke-dasharray: 7.4,3.2; stroke-dashoffset: 0; stroke: #000000; stroke-width: 2"/>
   </g>
   <g id="patch_3">
    <path d="M 41.92 404.12 
L 41.92 10.8 
" style="fill: none; stroke: #000000; stroke-width: 0.8; stroke-linejoin: miter; stroke-linecap: square"/>
   </g>
   <g id="patch_4">
    <path d="M 853.2 404.12 
L 853.2 10.8 
" style="fill: none; stroke: #000000; stroke-width: 0.8; stroke-linejoin: miter; stroke-linecap: square"/>
   </g>
   <g id="patch_5">
    <path d="M 41.92 404.12 
L 853.2 404.12 
" style="fill: none; stroke: #000000; stroke-width: 0.8; stroke-linejoin: miter; stroke-linecap: square"/>
   </g>
   <g id="patch_6">
    <path d="M 41.92 10.8 
L 853.2 10.8 
" style="fill: none; stroke: #000000; stroke-width: 0.8; stroke-linejoin: miter; stroke-linecap: square"/>
   </g>
  </g>
 </g>
 <defs>
  <clipPath id="pf2f3ebcbe3">
   <rect x="41.92" y="10.8" width="811.28" height="393.32"/>
  </clipPath>
 </defs>
</svg>
