<?xml version="1.0" encoding="utf-8" standalone="no"?>
<!DOCTYPE svg PUBLIC "-//W3C//DTD SVG 1.1//EN"
  "http://www.w3.org/Graphics/SVG/1.1/DTD/svg11.dtd">
<svg xmlns:xlink="http://www.w3.org/1999/xlink" width="864pt" height="432pt" viewBox="0 0 864 432" xmlns="http://www.w3.org/2000/svg" version="1.1">
 <metadata>
  <rdf:RDF xmlns:dc="http://purl.org/dc/elements/1.1/" xmlns:cc="http://creativecommons.org/ns#" xmlns:rdf="http://www.w3.org/1999/02/22-rdf-syntax-ns#">
   <cc:Work>
    <dc:type rdf:resource="http://purl.org/dc/dcmitype/StillImage"/>
    <dc:date>2024-09-16T11:12:43.352354</dc:date>
    <dc:format>image/svg+xml</dc:format>
    <dc:creator>
     <cc:Agent>
      <dc:title>Matplotlib v3.9.2, https://matplotlib.org/</dc:title>
     </cc:Agent>
    </dc:creator>
   </cc:Work>
  </rdf:RDF>
 </metadata>
 <defs>
  <style type="text/css">*{stroke-linejoin: round; stroke-linecap: butt}</style>
 </defs>
 <g id="figure_1">
  <g id="patch_1">
   <path d="M 0 432 
L 864 432 
L 864 0 
L 0 0 
z
" style="fill: #ffffff"/>
  </g>
  <g id="axes_1">
   <g id="patch_2">
    <path d="M 47.95 404.12 
L 853.2 404.12 
L 853.2 10.8 
L 47.95 10.8 
z
" style="fill: #ffffff"/>
   </g>
   <g id="matplotlib.axis_1">
    <g id="xtick_1">
     <g id="line2d_1">
      <defs>
       <path id="mda0f16967c" d="M 0 0 
L 0 3.5 
" style="stroke: #000000; stroke-width: 0.8"/>
      </defs>
      <g>
       <use xlink:href="#mda0f16967c" x="210.540329" y="404.12" style="stroke: #000000; stroke-width: 0.8"/>
      </g>
     </g>
     <g id="text_1">
      <!-- 200 -->
      <g transform="translate(201.509861 418.771563) scale(0.1 -0.1)">
       <defs>
        <path id="DejaVuSansMono-32" d="M 1166 531 
L 3309 531 
L 3309 0 
L 475 0 
L 475 531 
Q 1059 1147 1496 1619 
Q 1934 2091 2100 2284 
Q 2413 2666 2522 2902 
Q 2631 3138 2631 3384 
Q 2631 3775 2401 3997 
Q 2172 4219 1772 4219 
Q 1488 4219 1175 4116 
Q 863 4013 513 3803 
L 513 4441 
Q 834 4594 1145 4672 
Q 1456 4750 1759 4750 
Q 2444 4750 2861 4386 
Q 3278 4022 3278 3431 
Q 3278 3131 3139 2831 
Q 3000 2531 2688 2169 
Q 2513 1966 2180 1606 
Q 1847 1247 1166 531 
z
" transform="scale(0.015625)"/>
        <path id="DejaVuSansMono-30" d="M 1509 2344 
Q 1509 2516 1629 2641 
Q 1750 2766 1919 2766 
Q 2094 2766 2219 2641 
Q 2344 2516 2344 2344 
Q 2344 2169 2220 2047 
Q 2097 1925 1919 1925 
Q 1744 1925 1626 2044 
Q 1509 2163 1509 2344 
z
M 1925 4250 
Q 1484 4250 1267 3775 
Q 1050 3300 1050 2328 
Q 1050 1359 1267 884 
Q 1484 409 1925 409 
Q 2369 409 2586 884 
Q 2803 1359 2803 2328 
Q 2803 3300 2586 3775 
Q 2369 4250 1925 4250 
z
M 1925 4750 
Q 2672 4750 3055 4137 
Q 3438 3525 3438 2328 
Q 3438 1134 3055 521 
Q 2672 -91 1925 -91 
Q 1178 -91 797 521 
Q 416 1134 416 2328 
Q 416 3525 797 4137 
Q 1178 4750 1925 4750 
z
" transform="scale(0.015625)"/>
       </defs>
       <use xlink:href="#DejaVuSansMono-32"/>
       <use xlink:href="#DejaVuSansMono-30" x="60.205078"/>
       <use xlink:href="#DejaVuSansMono-30" x="120.410156"/>
      </g>
     </g>
    </g>
    <g id="xtick_2">
     <g id="line2d_2">
      <g>
       <use xlink:href="#mda0f16967c" x="381.688045" y="404.12" style="stroke: #000000; stroke-width: 0.8"/>
      </g>
     </g>
     <g id="text_2">
      <!-- 400 -->
      <g transform="translate(372.657576 418.771563) scale(0.1 -0.1)">
       <defs>
        <path id="DejaVuSansMono-34" d="M 2297 4091 
L 825 1625 
L 2297 1625 
L 2297 4091 
z
M 2194 4666 
L 2925 4666 
L 2925 1625 
L 3547 1625 
L 3547 1113 
L 2925 1113 
L 2925 0 
L 2297 0 
L 2297 1113 
L 319 1113 
L 319 1709 
L 2194 4666 
z
" transform="scale(0.015625)"/>
       </defs>
       <use xlink:href="#DejaVuSansMono-34"/>
       <use xlink:href="#DejaVuSansMono-30" x="60.205078"/>
       <use xlink:href="#DejaVuSansMono-30" x="120.410156"/>
      </g>
     </g>
    </g>
    <g id="xtick_3">
     <g id="line2d_3">
      <g>
       <use xlink:href="#mda0f16967c" x="552.83576" y="404.12" style="stroke: #000000; stroke-width: 0.8"/>
      </g>
     </g>
     <g id="text_3">
      <!-- 600 -->
      <g transform="translate(543.805291 418.771563) scale(0.1 -0.1)">
       <defs>
        <path id="DejaVuSansMono-36" d="M 3097 4563 
L 3097 3981 
Q 2900 4097 2678 4158 
Q 2456 4219 2216 4219 
Q 1616 4219 1306 3767 
Q 997 3316 997 2438 
Q 1147 2750 1412 2917 
Q 1678 3084 2022 3084 
Q 2697 3084 3067 2670 
Q 3438 2256 3438 1497 
Q 3438 741 3056 325 
Q 2675 -91 1984 -91 
Q 1172 -91 794 492 
Q 416 1075 416 2328 
Q 416 3509 870 4129 
Q 1325 4750 2188 4750 
Q 2419 4750 2650 4701 
Q 2881 4653 3097 4563 
z
M 1972 2591 
Q 1569 2591 1337 2300 
Q 1106 2009 1106 1497 
Q 1106 984 1337 693 
Q 1569 403 1972 403 
Q 2391 403 2603 679 
Q 2816 956 2816 1497 
Q 2816 2041 2603 2316 
Q 2391 2591 1972 2591 
z
" transform="scale(0.015625)"/>
       </defs>
       <use xlink:href="#DejaVuSansMono-36"/>
       <use xlink:href="#DejaVuSansMono-30" x="60.205078"/>
       <use xlink:href="#DejaVuSansMono-30" x="120.410156"/>
      </g>
     </g>
    </g>
    <g id="xtick_4">
     <g id="line2d_4">
      <g>
       <use xlink:href="#mda0f16967c" x="723.983475" y="404.12" style="stroke: #000000; stroke-width: 0.8"/>
      </g>
     </g>
     <g id="text_4">
      <!-- 800 -->
      <g transform="translate(714.953006 418.771563) scale(0.1 -0.1)">
       <defs>
        <path id="DejaVuSansMono-38" d="M 1925 2216 
Q 1503 2216 1273 1980 
Q 1044 1744 1044 1313 
Q 1044 881 1276 642 
Q 1509 403 1925 403 
Q 2350 403 2579 639 
Q 2809 875 2809 1313 
Q 2809 1741 2576 1978 
Q 2344 2216 1925 2216 
z
M 1375 2478 
Q 972 2581 745 2862 
Q 519 3144 519 3541 
Q 519 4097 897 4423 
Q 1275 4750 1925 4750 
Q 2578 4750 2956 4423 
Q 3334 4097 3334 3541 
Q 3334 3144 3107 2862 
Q 2881 2581 2478 2478 
Q 2947 2375 3195 2062 
Q 3444 1750 3444 1253 
Q 3444 622 3041 265 
Q 2638 -91 1925 -91 
Q 1213 -91 811 264 
Q 409 619 409 1247 
Q 409 1747 657 2061 
Q 906 2375 1375 2478 
z
M 1147 3481 
Q 1147 3106 1347 2909 
Q 1547 2713 1925 2713 
Q 2306 2713 2506 2909 
Q 2706 3106 2706 3481 
Q 2706 3863 2507 4063 
Q 2309 4263 1925 4263 
Q 1547 4263 1347 4061 
Q 1147 3859 1147 3481 
z
" transform="scale(0.015625)"/>
       </defs>
       <use xlink:href="#DejaVuSansMono-38"/>
       <use xlink:href="#DejaVuSansMono-30" x="60.205078"/>
       <use xlink:href="#DejaVuSansMono-30" x="120.410156"/>
      </g>
     </g>
    </g>
   </g>
   <g id="matplotlib.axis_2">
    <g id="ytick_1">
     <g id="line2d_5">
      <defs>
       <path id="m38119e7be1" d="M 0 0 
L -3.5 0 
" style="stroke: #000000; stroke-width: 0.8"/>
      </defs>
      <g>
       <use xlink:href="#m38119e7be1" x="47.95" y="381.679093" style="stroke: #000000; stroke-width: 0.8"/>
      </g>
     </g>
     <g id="text_5">
      <!-- 0.140 -->
      <g transform="translate(10.848438 385.504874) scale(0.1 -0.1)">
       <defs>
        <path id="DejaVuSansMono-2e" d="M 1528 953 
L 2316 953 
L 2316 0 
L 1528 0 
L 1528 953 
z
" transform="scale(0.015625)"/>
        <path id="DejaVuSansMono-31" d="M 844 531 
L 1825 531 
L 1825 4097 
L 769 3859 
L 769 4434 
L 1819 4666 
L 2450 4666 
L 2450 531 
L 3419 531 
L 3419 0 
L 844 0 
L 844 531 
z
" transform="scale(0.015625)"/>
       </defs>
       <use xlink:href="#DejaVuSansMono-30"/>
       <use xlink:href="#DejaVuSansMono-2e" x="60.205078"/>
       <use xlink:href="#DejaVuSansMono-31" x="120.410156"/>
       <use xlink:href="#DejaVuSansMono-34" x="180.615234"/>
       <use xlink:href="#DejaVuSansMono-30" x="240.820312"/>
      </g>
     </g>
    </g>
    <g id="ytick_2">
     <g id="line2d_6">
      <g>
       <use xlink:href="#m38119e7be1" x="47.95" y="335.233492" style="stroke: #000000; stroke-width: 0.8"/>
      </g>
     </g>
     <g id="text_6">
      <!-- 0.145 -->
      <g transform="translate(10.848438 339.059274) scale(0.1 -0.1)">
       <defs>
        <path id="DejaVuSansMono-35" d="M 647 4666 
L 3009 4666 
L 3009 4134 
L 1222 4134 
L 1222 2988 
Q 1356 3038 1492 3061 
Q 1628 3084 1766 3084 
Q 2491 3084 2916 2656 
Q 3341 2228 3341 1497 
Q 3341 759 2895 334 
Q 2450 -91 1678 -91 
Q 1306 -91 998 -41 
Q 691 9 447 109 
L 447 750 
Q 734 594 1025 517 
Q 1316 441 1619 441 
Q 2141 441 2423 716 
Q 2706 991 2706 1497 
Q 2706 1997 2414 2275 
Q 2122 2553 1600 2553 
Q 1347 2553 1106 2495 
Q 866 2438 647 2322 
L 647 4666 
z
" transform="scale(0.015625)"/>
       </defs>
       <use xlink:href="#DejaVuSansMono-30"/>
       <use xlink:href="#DejaVuSansMono-2e" x="60.205078"/>
       <use xlink:href="#DejaVuSansMono-31" x="120.410156"/>
       <use xlink:href="#DejaVuSansMono-34" x="180.615234"/>
       <use xlink:href="#DejaVuSansMono-35" x="240.820312"/>
      </g>
     </g>
    </g>
    <g id="ytick_3">
     <g id="line2d_7">
      <g>
       <use xlink:href="#m38119e7be1" x="47.95" y="288.787892" style="stroke: #000000; stroke-width: 0.8"/>
      </g>
     </g>
     <g id="text_7">
      <!-- 0.150 -->
      <g transform="translate(10.848438 292.613673) scale(0.1 -0.1)">
       <use xlink:href="#DejaVuSansMono-30"/>
       <use xlink:href="#DejaVuSansMono-2e" x="60.205078"/>
       <use xlink:href="#DejaVuSansMono-31" x="120.410156"/>
       <use xlink:href="#DejaVuSansMono-35" x="180.615234"/>
       <use xlink:href="#DejaVuSansMono-30" x="240.820312"/>
      </g>
     </g>
    </g>
    <g id="ytick_4">
     <g id="line2d_8">
      <g>
       <use xlink:href="#m38119e7be1" x="47.95" y="242.342291" style="stroke: #000000; stroke-width: 0.8"/>
      </g>
     </g>
     <g id="text_8">
      <!-- 0.155 -->
      <g transform="translate(10.848438 246.168072) scale(0.1 -0.1)">
       <use xlink:href="#DejaVuSansMono-30"/>
       <use xlink:href="#DejaVuSansMono-2e" x="60.205078"/>
       <use xlink:href="#DejaVuSansMono-31" x="120.410156"/>
       <use xlink:href="#DejaVuSansMono-35" x="180.615234"/>
       <use xlink:href="#DejaVuSansMono-35" x="240.820312"/>
      </g>
     </g>
    </g>
    <g id="ytick_5">
     <g id="line2d_9">
      <g>
       <use xlink:href="#m38119e7be1" x="47.95" y="195.896691" style="stroke: #000000; stroke-width: 0.8"/>
      </g>
     </g>
     <g id="text_9">
      <!-- 0.160 -->
      <g transform="translate(10.848438 199.722472) scale(0.1 -0.1)">
       <use xlink:href="#DejaVuSansMono-30"/>
       <use xlink:href="#DejaVuSansMono-2e" x="60.205078"/>
       <use xlink:href="#DejaVuSansMono-31" x="120.410156"/>
       <use xlink:href="#DejaVuSansMono-36" x="180.615234"/>
       <use xlink:href="#DejaVuSansMono-30" x="240.820312"/>
      </g>
     </g>
    </g>
    <g id="ytick_6">
     <g id="line2d_10">
      <g>
       <use xlink:href="#m38119e7be1" x="47.95" y="149.45109" style="stroke: #000000; stroke-width: 0.8"/>
      </g>
     </g>
     <g id="text_10">
      <!-- 0.165 -->
      <g transform="translate(10.848438 153.276871) scale(0.1 -0.1)">
       <use xlink:href="#DejaVuSansMono-30"/>
       <use xlink:href="#DejaVuSansMono-2e" x="60.205078"/>
       <use xlink:href="#DejaVuSansMono-31" x="120.410156"/>
       <use xlink:href="#DejaVuSansMono-36" x="180.615234"/>
       <use xlink:href="#DejaVuSansMono-35" x="240.820312"/>
      </g>
     </g>
    </g>
    <g id="ytick_7">
     <g id="line2d_11">
      <g>
       <use xlink:href="#m38119e7be1" x="47.95" y="103.00549" style="stroke: #000000; stroke-width: 0.8"/>
      </g>
     </g>
     <g id="text_11">
      <!-- 0.170 -->
      <g transform="translate(10.848438 106.831271) scale(0.1 -0.1)">
       <defs>
        <path id="DejaVuSansMono-37" d="M 434 4666 
L 3372 4666 
L 3372 4397 
L 1703 0 
L 1044 0 
L 2669 4134 
L 434 4134 
L 434 4666 
z
" transform="scale(0.015625)"/>
       </defs>
       <use xlink:href="#DejaVuSansMono-30"/>
       <use xlink:href="#DejaVuSansMono-2e" x="60.205078"/>
       <use xlink:href="#DejaVuSansMono-31" x="120.410156"/>
       <use xlink:href="#DejaVuSansMono-37" x="180.615234"/>
       <use xlink:href="#DejaVuSansMono-30" x="240.820312"/>
      </g>
     </g>
    </g>
    <g id="ytick_8">
     <g id="line2d_12">
      <g>
       <use xlink:href="#m38119e7be1" x="47.95" y="56.559889" style="stroke: #000000; stroke-width: 0.8"/>
      </g>
     </g>
     <g id="text_12">
      <!-- 0.175 -->
      <g transform="translate(10.848438 60.38567) scale(0.1 -0.1)">
       <use xlink:href="#DejaVuSansMono-30"/>
       <use xlink:href="#DejaVuSansMono-2e" x="60.205078"/>
       <use xlink:href="#DejaVuSansMono-31" x="120.410156"/>
       <use xlink:href="#DejaVuSansMono-37" x="180.615234"/>
       <use xlink:href="#DejaVuSansMono-35" x="240.820312"/>
      </g>
     </g>
    </g>
   </g>
   <g id="line2d_13">
    <path d="M 39.392614 115.897095 
L 40.248353 125.72565 
L 41.104091 154.453729 
L 41.95983 150.176333 
L 42.815569 156.939996 
L 43.671307 105.028231 
L 44.527046 122.681709 
L 45.382784 126.027825 
L 46.238523 94.818068 
L 47.094261 114.47779 
L 47.95 121.680032 
L 48.805739 130.567076 
L 49.661477 129.989228 
L 50.517216 116.294986 
L 51.372954 128.635701 
L 52.228693 138.025394 
L 53.084431 135.608546 
L 53.94017 115.548875 
L 54.795909 111.391578 
L 55.651647 111.760771 
L 56.507386 116.646031 
L 57.363124 116.775428 
L 58.218863 131.070284 
L 59.074601 158.976373 
L 59.93034 154.324592 
L 60.786079 152.972279 
L 61.641817 170.283901 
L 62.497556 171.535031 
L 63.353294 173.47334 
L 64.209033 172.335095 
L 65.064772 173.345081 
L 65.92051 165.471467 
L 66.776249 151.553466 
L 67.631987 152.137338 
L 68.487726 141.740332 
L 69.343464 134.131919 
L 70.199203 109.443262 
L 71.054942 104.55818 
L 71.91068 90.145716 
L 72.766419 81.48646 
L 73.622157 92.020927 
L 74.477896 90.074785 
L 75.333634 90.066473 
L 76.189373 90.396139 
L 77.045112 90.17138 
L 77.90085 92.027403 
L 78.756589 92.425141 
L 79.612327 86.360905 
L 80.468066 85.303654 
L 81.323804 93.593235 
L 82.179543 99.574384 
L 83.035282 98.953279 
L 83.89102 98.979526 
L 84.746759 98.573837 
L 85.602497 105.915539 
L 86.458236 178.420985 
L 87.313974 147.040962 
L 88.169713 154.7526 
L 89.025452 182.266432 
L 89.88119 177.690819 
L 90.736929 174.381004 
L 91.592667 177.058652 
L 92.448406 182.97539 
L 93.304145 193.279213 
L 94.159883 178.382409 
L 95.015622 150.860551 
L 95.87136 152.353485 
L 96.727099 178.493866 
L 98.438576 169.805541 
L 99.294315 184.059627 
L 100.150053 172.508607 
L 101.005792 139.590329 
L 101.86153 139.748496 
L 102.717269 150.049888 
L 103.573007 148.461797 
L 104.428746 151.733656 
L 105.284485 151.322295 
L 106.140223 135.010106 
L 106.995962 136.633262 
L 107.8517 144.119365 
L 108.707439 131.322768 
L 109.563177 149.201985 
L 110.418916 144.649616 
L 111.274655 164.184371 
L 112.130393 151.93552 
L 112.986132 177.820236 
L 113.84187 179.679523 
L 115.553348 207.157046 
L 116.409086 207.899645 
L 117.264825 214.436865 
L 118.120563 209.372671 
L 118.976302 195.061846 
L 119.83204 194.918552 
L 120.687779 196.953225 
L 121.543518 198.138867 
L 122.399256 223.632799 
L 123.254995 212.353693 
L 124.110733 209.170711 
L 124.966472 209.618354 
L 125.82221 207.667132 
L 126.677949 209.656674 
L 127.533688 214.311449 
L 128.389426 214.088408 
L 129.245165 214.624403 
L 130.100903 241.617196 
L 130.956642 241.210871 
L 131.81238 226.803311 
L 132.668119 223.841331 
L 133.523858 231.257832 
L 134.379596 214.284385 
L 135.235335 208.161949 
L 136.091073 217.394365 
L 136.946812 230.932963 
L 137.80255 247.59244 
L 138.658289 235.101452 
L 139.514028 245.378184 
L 140.369766 254.124721 
L 141.225505 259.205908 
L 142.081243 250.987879 
L 142.936982 262.494659 
L 143.792721 258.574803 
L 144.648459 255.418983 
L 145.504198 256.715176 
L 146.359936 258.37058 
L 147.215675 255.143104 
L 148.071413 244.325058 
L 148.927152 257.876596 
L 149.782891 237.589404 
L 150.638629 189.716726 
L 151.494368 215.447486 
L 152.350106 218.117615 
L 153.205845 209.156606 
L 154.061583 209.480434 
L 154.917322 219.536869 
L 155.773061 213.877608 
L 156.628799 215.62949 
L 157.484538 216.35665 
L 158.340276 206.738836 
L 159.196015 220.733122 
L 160.051753 218.391841 
L 160.907492 223.47038 
L 161.763231 237.05988 
L 162.618969 229.931102 
L 163.474708 228.693718 
L 164.330446 228.064127 
L 165.186185 227.777697 
L 166.041923 234.863482 
L 166.897662 199.810209 
L 167.753401 201.77859 
L 168.609139 202.907655 
L 169.464878 203.411131 
L 170.320616 198.325707 
L 171.176355 182.444272 
L 172.032094 182.525341 
L 172.887832 187.32212 
L 173.743571 179.531132 
L 174.599309 194.562365 
L 175.455048 201.455435 
L 176.310786 203.064359 
L 177.166525 220.277975 
L 178.022264 221.366881 
L 178.878002 208.858031 
L 179.733741 212.954794 
L 180.589479 223.59648 
L 181.445218 236.044169 
L 182.300956 235.103113 
L 183.156695 231.061017 
L 184.012434 231.312921 
L 184.868172 234.24846 
L 185.723911 224.440367 
L 186.579649 261.250973 
L 187.435388 246.377089 
L 188.291126 244.595897 
L 189.146865 210.396044 
L 190.002604 189.832599 
L 190.858342 200.930815 
L 191.714081 196.818376 
L 192.569819 198.127479 
L 193.425558 253.554965 
L 194.281296 251.922761 
L 195.137035 244.832314 
L 195.992774 255.073339 
L 196.848512 253.029068 
L 198.559989 264.781031 
L 199.415728 265.50284 
L 200.271467 245.545377 
L 201.127205 244.199698 
L 201.982944 242.632348 
L 202.838682 243.986871 
L 203.694421 210.67093 
L 204.550159 211.374591 
L 206.261637 200.04025 
L 207.117375 197.266256 
L 207.973114 150.195723 
L 208.828852 140.684519 
L 209.684591 180.80719 
L 210.540329 166.410102 
L 211.396068 165.205151 
L 212.251807 155.07214 
L 213.107545 160.194256 
L 213.963284 173.800389 
L 214.819022 173.845407 
L 215.674761 173.311981 
L 216.530499 180.785867 
L 217.386238 158.934104 
L 218.241977 159.696975 
L 219.097715 155.529288 
L 219.953454 155.637262 
L 220.809192 159.451911 
L 221.664931 169.495703 
L 222.52067 169.101195 
L 223.376408 159.583056 
L 224.232147 145.933962 
L 225.087885 145.817978 
L 225.943624 134.303797 
L 226.799362 130.892905 
L 227.655101 135.70209 
L 228.51084 147.533424 
L 229.366578 148.370339 
L 230.222317 163.277355 
L 231.078055 164.677574 
L 232.789532 215.632511 
L 233.645271 213.657025 
L 234.50101 219.532643 
L 235.356748 239.418858 
L 236.212487 213.30238 
L 237.068225 206.237767 
L 237.923964 211.456708 
L 238.779702 196.275905 
L 239.635441 191.218447 
L 240.49118 193.682933 
L 241.346918 193.456181 
L 242.202657 192.97184 
L 243.058395 202.905435 
L 243.914134 205.550156 
L 244.769872 207.458825 
L 245.625611 204.28424 
L 246.48135 221.993954 
L 247.337088 221.44825 
L 248.192827 232.777181 
L 249.048565 239.902879 
L 249.904304 240.157788 
L 250.760043 260.867548 
L 251.615781 274.834965 
L 252.47152 275.337558 
L 253.327258 284.225803 
L 254.182997 284.131991 
L 255.038735 284.15171 
L 255.894474 278.511443 
L 256.750213 280.74436 
L 257.605951 275.475813 
L 258.46169 274.579857 
L 259.317428 275.030209 
L 260.173167 304.497843 
L 261.028905 304.356106 
L 261.884644 310.556792 
L 262.740383 309.233442 
L 263.596121 310.561738 
L 264.45186 310.356266 
L 265.307598 305.173724 
L 266.163337 309.862909 
L 267.019075 325.194618 
L 267.874814 324.469753 
L 268.730553 332.528051 
L 269.586291 333.992667 
L 270.44203 331.219333 
L 271.297768 330.444426 
L 272.153507 325.524298 
L 273.009245 270.468292 
L 273.864984 235.773092 
L 274.720723 234.844003 
L 275.576461 228.908453 
L 276.4322 226.752881 
L 277.287938 228.217099 
L 278.143677 223.938696 
L 278.999416 245.722308 
L 279.855154 251.865307 
L 280.710893 242.255557 
L 281.566631 254.467063 
L 282.42237 227.448 
L 283.278108 227.603386 
L 284.133847 226.591813 
L 284.989586 227.703975 
L 285.845324 237.809439 
L 286.701063 250.541195 
L 287.556801 248.148692 
L 288.41254 251.136738 
L 289.268278 267.06978 
L 290.124017 261.082274 
L 290.979756 259.377806 
L 291.835494 250.813866 
L 292.691233 247.415488 
L 293.546971 271.971437 
L 294.40271 272.057946 
L 295.258448 264.374267 
L 296.114187 270.544706 
L 296.969926 273.917119 
L 297.825664 273.720914 
L 298.681403 279.178793 
L 299.537141 272.672785 
L 300.39288 277.705578 
L 301.248618 279.31779 
L 302.104357 279.18662 
L 302.960096 276.825056 
L 303.815834 272.971098 
L 304.671573 271.379552 
L 306.38305 270.138039 
L 307.238789 268.438933 
L 308.950266 278.862152 
L 309.806004 275.105469 
L 310.661743 275.580657 
L 311.517481 282.554279 
L 312.37322 275.924813 
L 313.228959 279.179673 
L 314.084697 228.058181 
L 314.940436 232.83434 
L 315.796174 288.848494 
L 316.651913 320.675865 
L 317.507651 292.716853 
L 318.36339 294.981181 
L 319.219129 298.126222 
L 320.074867 289.300129 
L 321.786344 288.207237 
L 322.642083 290.83683 
L 323.497821 299.685584 
L 324.35356 305.451539 
L 325.209299 339.793322 
L 326.065037 322.463445 
L 326.920776 323.416963 
L 327.776514 323.281463 
L 328.632253 314.662903 
L 329.487991 313.717576 
L 330.34373 316.929818 
L 331.199469 314.083182 
L 332.055207 313.664499 
L 332.910946 320.445248 
L 333.766684 324.14409 
L 334.622423 329.438424 
L 335.478162 336.138924 
L 336.3339 338.811084 
L 337.189639 335.19833 
L 338.045377 321.060916 
L 338.901116 320.090637 
L 339.756854 319.774766 
L 340.612593 326.439736 
L 341.468332 283.233985 
L 342.32407 264.253972 
L 343.179809 238.256561 
L 344.035547 232.728664 
L 344.891286 221.433446 
L 345.747024 220.744428 
L 346.602763 224.846673 
L 347.458502 225.774776 
L 348.31424 223.267958 
L 349.169979 223.803586 
L 350.025717 225.092153 
L 350.881456 224.51857 
L 351.737194 219.733764 
L 352.592933 181.845209 
L 354.30441 167.243553 
L 355.160149 174.245533 
L 356.015887 171.716134 
L 356.871626 223.704532 
L 357.727365 223.834924 
L 358.583103 191.573664 
L 359.438842 194.144325 
L 360.29458 229.659551 
L 361.150319 230.839842 
L 362.006057 231.270065 
L 362.861796 235.33048 
L 363.717535 226.205268 
L 364.573273 230.651685 
L 365.429012 228.366491 
L 366.28475 232.233629 
L 367.140489 231.363474 
L 367.996227 225.191276 
L 368.851966 171.062622 
L 369.707705 139.200527 
L 370.563443 138.096389 
L 371.419182 131.869146 
L 372.27492 121.027625 
L 373.130659 121.221015 
L 373.986397 114.587807 
L 374.842136 82.341711 
L 375.697875 67.643558 
L 376.553613 66.318181 
L 377.409352 50.939136 
L 378.26509 50.169137 
L 379.120829 49.78471 
L 379.976567 28.678182 
L 380.832306 49.921412 
L 381.688045 50.85766 
L 382.543783 50.140679 
L 383.399522 55.297289 
L 384.25526 98.60216 
L 385.110999 112.455877 
L 385.966738 137.195447 
L 386.822476 124.325425 
L 387.678215 133.561292 
L 388.533953 132.615959 
L 389.389692 123.977645 
L 390.24543 121.570982 
L 391.101169 123.274345 
L 391.956908 109.109982 
L 392.812646 112.291157 
L 393.668385 110.723542 
L 394.524123 115.120779 
L 395.379862 157.150814 
L 396.2356 158.095248 
L 397.091339 147.909959 
L 397.947078 148.76307 
L 398.802816 144.582873 
L 399.658555 136.911241 
L 400.514293 137.042839 
L 401.370032 169.882373 
L 402.22577 137.494917 
L 403.081509 116.334115 
L 403.937248 118.38133 
L 404.792986 119.057132 
L 405.648725 123.747725 
L 406.504463 136.213539 
L 407.360202 134.047445 
L 408.21594 135.724495 
L 409.071679 120.829876 
L 409.927418 118.099703 
L 410.783156 110.444704 
L 411.638895 182.332458 
L 412.494633 213.142874 
L 413.350372 206.567497 
L 414.206111 220.573344 
L 415.061849 229.893187 
L 415.917588 218.999035 
L 416.773326 229.650942 
L 417.629065 234.664278 
L 418.484803 240.982517 
L 419.340542 242.541535 
L 420.196281 254.638317 
L 421.052019 256.425531 
L 421.907758 250.570164 
L 422.763496 273.172536 
L 423.619235 273.668139 
L 424.474973 269.749226 
L 426.186451 267.7381 
L 427.042189 267.892625 
L 427.897928 274.210267 
L 428.753666 274.234155 
L 429.609405 292.257355 
L 430.465143 292.456965 
L 431.320882 296.702792 
L 432.176621 303.380848 
L 433.032359 306.292492 
L 433.888098 302.934217 
L 434.743836 316.56858 
L 435.599575 313.981087 
L 436.455313 315.390663 
L 437.311052 313.830662 
L 438.166791 257.881356 
L 439.022529 265.737996 
L 439.878268 283.812016 
L 440.734006 284.311839 
L 441.589745 290.307704 
L 442.445484 284.370714 
L 443.301222 271.420856 
L 444.156961 263.330088 
L 445.012699 296.48407 
L 445.868438 318.762093 
L 446.724176 316.956195 
L 447.579915 316.753266 
L 448.435654 316.414989 
L 449.291392 287.773579 
L 450.147131 289.705298 
L 451.002869 290.321385 
L 451.858608 260.155811 
L 452.714346 264.554037 
L 453.570085 278.00038 
L 454.425824 275.97418 
L 455.281562 267.095846 
L 456.137301 274.675889 
L 456.993039 275.442247 
L 457.848778 275.34578 
L 458.704516 285.454673 
L 459.560255 285.508542 
L 460.415994 302.759387 
L 461.271732 302.404299 
L 462.127471 302.546303 
L 462.983209 308.350807 
L 463.838948 275.763511 
L 464.694687 281.485208 
L 465.550425 284.127659 
L 466.406164 285.112224 
L 467.261902 261.932439 
L 468.117641 263.91353 
L 468.973379 253.441373 
L 469.829118 253.367852 
L 470.684857 232.896475 
L 471.540595 231.102832 
L 473.252072 226.209773 
L 474.107811 225.457599 
L 474.963549 227.368146 
L 475.819288 219.343203 
L 476.675027 207.129928 
L 477.530765 207.688499 
L 478.386504 193.750923 
L 479.242242 190.815365 
L 480.097981 190.467422 
L 480.953719 246.203217 
L 481.809458 246.162461 
L 482.665197 247.01165 
L 484.376674 238.053263 
L 486.088151 263.99012 
L 486.943889 273.789612 
L 488.655367 272.684007 
L 489.511105 272.470233 
L 490.366844 247.481611 
L 491.222582 244.76188 
L 492.078321 274.81596 
L 493.789798 256.884845 
L 494.645537 292.617192 
L 495.501275 265.949037 
L 496.357014 261.965117 
L 497.212752 256.410943 
L 498.068491 265.755297 
L 498.92423 266.184224 
L 499.779968 260.981484 
L 500.635707 263.314134 
L 501.491445 236.626681 
L 502.347184 236.641478 
L 503.202922 226.545707 
L 504.058661 233.46952 
L 504.9144 233.169942 
L 505.770138 230.333499 
L 506.625877 262.808518 
L 507.481615 261.33429 
L 509.193092 261.660683 
L 510.048831 288.93698 
L 510.90457 263.027494 
L 511.760308 271.261271 
L 512.616047 269.150804 
L 513.471785 293.313633 
L 514.327524 291.525923 
L 515.183262 292.599445 
L 516.039001 278.227138 
L 516.89474 278.392493 
L 517.750478 277.084842 
L 518.606217 256.720127 
L 519.461955 275.475567 
L 520.317694 275.320585 
L 521.173433 263.104999 
L 522.029171 266.7504 
L 522.88491 267.791095 
L 523.740648 265.137832 
L 525.452125 261.302958 
L 526.307864 265.258475 
L 527.163603 263.547938 
L 528.019341 263.989109 
L 528.87508 242.71567 
L 529.730818 242.504089 
L 530.586557 242.635563 
L 531.442295 241.290222 
L 532.298034 240.769264 
L 533.153773 257.988392 
L 534.009511 260.807056 
L 534.86525 257.538565 
L 535.720988 268.463043 
L 536.576727 277.380849 
L 537.432465 281.766155 
L 538.288204 307.166926 
L 539.143943 302.357547 
L 539.999681 310.312318 
L 540.85542 301.832746 
L 541.711158 301.129767 
L 542.566897 306.325967 
L 543.422635 293.047772 
L 544.278374 320.360408 
L 545.134113 312.950947 
L 545.989851 306.816522 
L 546.84559 308.025827 
L 547.701328 307.321541 
L 548.557067 282.532749 
L 549.412806 271.869139 
L 550.268544 273.525217 
L 551.980021 264.56314 
L 552.83576 263.971949 
L 553.691498 284.896687 
L 555.402976 287.601544 
L 556.258714 284.123805 
L 557.114453 282.741412 
L 557.970191 283.292737 
L 558.82593 299.768291 
L 559.681668 280.703243 
L 560.537407 281.609473 
L 561.393146 304.161233 
L 562.248884 296.219573 
L 563.104623 270.300778 
L 563.960361 293.355867 
L 564.8161 292.322255 
L 565.671838 293.603926 
L 566.527577 294.53122 
L 567.383316 296.594877 
L 568.239054 297.304729 
L 569.094793 285.831018 
L 569.950531 283.567353 
L 570.80627 282.914563 
L 571.662009 302.925768 
L 572.517747 296.201013 
L 573.373486 296.221128 
L 574.229224 298.905347 
L 575.084963 295.235489 
L 575.940701 301.899842 
L 576.79644 302.312136 
L 577.652179 304.188105 
L 578.507917 303.634423 
L 579.363656 297.614705 
L 580.219394 297.802617 
L 581.075133 298.623855 
L 581.930871 285.504273 
L 582.78661 283.256096 
L 583.642349 283.726628 
L 584.498087 274.846644 
L 585.353826 272.449087 
L 586.209564 286.258621 
L 587.065303 281.152122 
L 587.921041 283.011096 
L 588.77678 308.744493 
L 589.632519 309.015305 
L 590.488257 309.91456 
L 591.343996 338.374971 
L 592.199734 337.877361 
L 593.055473 335.099308 
L 593.911211 333.513498 
L 594.76695 334.433528 
L 595.622689 334.757419 
L 596.478427 339.512422 
L 597.334166 334.337706 
L 598.189904 322.006483 
L 599.045643 313.432725 
L 599.901382 320.110248 
L 600.75712 322.028236 
L 601.612859 324.459957 
L 602.468597 343.136941 
L 603.324336 336.970126 
L 604.180074 337.804542 
L 605.035813 345.435825 
L 605.891552 367.0346 
L 606.74729 348.40129 
L 608.458767 346.147258 
L 609.314506 347.210536 
L 610.170244 343.898117 
L 611.025983 342.952689 
L 612.73746 360.31889 
L 613.593199 360.072 
L 614.448937 351.410412 
L 615.304676 357.947385 
L 616.160414 358.691411 
L 617.016153 356.201105 
L 617.871892 362.808544 
L 618.72763 363.859506 
L 619.583369 362.431194 
L 621.294846 360.436316 
L 622.150584 366.265083 
L 623.006323 336.775593 
L 623.862062 336.366543 
L 624.7178 358.57959 
L 625.573539 358.742717 
L 626.429277 364.941089 
L 628.140755 367.411898 
L 628.996493 361.723124 
L 629.852232 366.105609 
L 630.70797 369.389445 
L 631.563709 368.80701 
L 632.419447 361.644783 
L 633.275186 357.592041 
L 634.130925 340.099583 
L 634.986663 346.959325 
L 635.842402 349.281677 
L 636.69814 354.991522 
L 637.553879 356.42175 
L 638.409617 355.436548 
L 639.265356 352.443826 
L 640.121095 359.410691 
L 641.832572 386.241818 
L 642.68831 385.524038 
L 643.544049 385.607501 
L 644.399787 384.162857 
L 646.111265 372.652082 
L 646.967003 351.402088 
L 647.822742 343.527919 
L 648.67848 346.624173 
L 649.534219 369.958608 
L 650.389957 372.114331 
L 651.245696 373.283755 
L 652.101435 372.483697 
L 652.957173 367.529222 
L 653.812912 368.19148 
L 654.66865 370.112247 
L 655.524389 369.906499 
L 656.380128 369.857075 
L 657.235866 380.174328 
L 658.091605 354.449144 
L 658.947343 354.470096 
L 659.803082 348.701775 
L 660.65882 348.027614 
L 661.514559 346.700208 
L 662.370298 343.808414 
L 663.226036 319.738478 
L 664.081775 312.587933 
L 664.937513 312.294758 
L 665.793252 341.444582 
L 666.64899 334.94446 
L 667.504729 334.638703 
L 668.360468 337.28743 
L 669.216206 337.449095 
L 670.071945 344.983118 
L 670.927683 345.526831 
L 671.783422 349.255481 
L 672.63916 349.772279 
L 673.494899 350.504345 
L 674.350638 351.734142 
L 675.206376 357.065437 
L 676.062115 339.399972 
L 676.917853 356.754731 
L 677.773592 361.204014 
L 678.62933 361.450116 
L 680.340808 359.109436 
L 681.196546 359.126559 
L 682.052285 359.434657 
L 682.908023 339.250923 
L 683.763762 338.905431 
L 684.619501 332.20994 
L 685.475239 328.242312 
L 686.330978 309.46806 
L 687.186716 307.831198 
L 688.042455 313.33001 
L 688.898193 315.040206 
L 689.753932 341.138358 
L 690.609671 342.238513 
L 692.321148 345.077687 
L 693.176886 345.345223 
L 694.032625 339.053485 
L 694.888363 340.004366 
L 695.744102 346.669649 
L 696.599841 330.629037 
L 697.455579 330.244255 
L 698.311318 324.234252 
L 699.167056 324.735542 
L 700.022795 323.402593 
L 700.878533 348.189563 
L 701.734272 341.314334 
L 702.590011 338.606259 
L 703.445749 327.60289 
L 704.301488 325.20413 
L 705.157226 303.818174 
L 706.012965 329.455818 
L 706.868704 334.193618 
L 707.724442 299.783589 
L 708.580181 304.785221 
L 709.435919 312.072526 
L 710.291658 303.445315 
L 711.147396 297.421678 
L 712.003135 299.594512 
L 713.714612 298.922455 
L 714.570351 296.898109 
L 715.426089 283.894037 
L 716.281828 282.796585 
L 717.137566 283.000188 
L 717.993305 277.933577 
L 718.849044 299.146967 
L 719.704782 298.742322 
L 720.560521 290.88436 
L 721.416259 280.515416 
L 722.271998 282.109587 
L 723.127736 285.051087 
L 723.983475 268.465335 
L 724.839214 271.401206 
L 725.694952 290.444712 
L 726.550691 291.175081 
L 727.406429 297.941308 
L 728.262168 301.153247 
L 729.117906 318.834052 
L 729.973645 315.770467 
L 730.829384 298.469619 
L 731.685122 308.923392 
L 732.540861 308.451937 
L 733.396599 308.231317 
L 734.252338 306.900273 
L 735.108077 306.668389 
L 735.963815 290.798979 
L 736.819554 295.848454 
L 737.675292 278.929426 
L 738.531031 240.071328 
L 739.386769 254.541168 
L 740.242508 255.588671 
L 741.098247 261.837011 
L 741.953985 251.416455 
L 742.809724 235.74897 
L 743.665462 237.088796 
L 744.521201 239.601992 
L 745.376939 248.426304 
L 746.232678 215.0944 
L 747.088417 216.493866 
L 747.944155 236.174862 
L 748.799894 233.024633 
L 749.655632 236.783569 
L 750.511371 267.092727 
L 751.367109 267.092089 
L 752.222848 266.979546 
L 753.078587 271.229966 
L 753.934325 277.176173 
L 754.790064 277.52664 
L 755.645802 277.160093 
L 756.501541 228.570949 
L 757.357279 218.667447 
L 758.213018 231.490884 
L 759.068757 229.725797 
L 759.924495 213.905057 
L 760.780234 221.108346 
L 761.635972 204.723683 
L 762.491711 203.077248 
L 763.34745 206.287861 
L 764.203188 217.183724 
L 765.058927 193.12916 
L 765.914665 189.460327 
L 766.770404 204.517497 
L 767.626142 197.641818 
L 768.481881 198.065642 
L 769.33762 180.172448 
L 770.193358 178.688006 
L 771.049097 180.031964 
L 771.904835 180.415269 
L 772.760574 184.003627 
L 773.616312 202.963966 
L 774.472051 201.787063 
L 775.32779 201.35236 
L 776.183528 208.222733 
L 777.039267 209.664964 
L 777.895005 208.354182 
L 778.750744 222.930178 
L 779.606482 218.112411 
L 780.462221 235.349083 
L 781.31796 273.523659 
L 782.173698 274.253657 
L 783.885175 275.506239 
L 784.740914 282.46662 
L 785.596652 299.573132 
L 786.452391 297.657318 
L 787.30813 295.024846 
L 788.163868 290.876851 
L 789.019607 332.482083 
L 789.875345 328.679498 
L 790.731084 333.029837 
L 791.586823 334.145818 
L 792.442561 325.223541 
L 793.2983 328.375799 
L 794.154038 291.691875 
L 795.009777 290.893269 
L 795.865515 293.714756 
L 796.721254 293.197631 
L 797.576993 275.172879 
L 798.432731 275.208444 
L 799.28847 318.362177 
L 800.144208 331.636417 
L 800.999947 317.2225 
L 801.855685 315.501241 
L 802.711424 330.927016 
L 803.567163 305.042438 
L 804.422901 307.290358 
L 805.27864 307.773237 
L 806.134378 310.147649 
L 806.990117 309.575837 
L 807.845855 329.732354 
L 809.557333 335.743969 
L 810.413071 340.507858 
L 811.26881 320.569039 
L 812.124548 333.881729 
L 812.980287 333.343283 
L 813.836026 307.405022 
L 814.691764 307.547675 
L 815.547503 308.781451 
L 816.403241 301.898268 
L 817.25898 300.808182 
L 818.114718 299.150652 
L 818.970457 299.560516 
L 819.826196 293.875501 
L 820.681934 272.143265 
L 821.537673 272.765479 
L 822.393411 278.82416 
L 823.24915 275.562092 
L 824.104888 277.782711 
L 824.960627 277.548128 
L 825.816366 259.8943 
L 826.672104 259.352172 
L 827.527843 259.81229 
L 828.383581 256.737085 
L 829.23932 258.300497 
L 830.095058 264.206205 
L 830.950797 256.302086 
L 831.806536 258.537215 
L 832.662274 264.807022 
L 833.518013 259.180336 
L 834.373751 259.428648 
L 835.22949 268.636015 
L 836.085228 259.405759 
L 836.940967 296.164367 
L 839.508183 280.871833 
L 840.363921 296.486996 
L 841.21966 280.160538 
L 842.075399 283.47698 
L 842.931137 264.003059 
L 844.642614 244.097955 
L 845.498353 243.994617 
L 846.354091 261.471201 
L 847.20983 255.720418 
L 848.065569 257.528188 
L 848.921307 259.050297 
L 849.777046 235.861728 
L 850.632784 216.439456 
L 851.488523 190.420217 
L 852.344261 189.937699 
L 852.344261 189.937699 
" clip-path="url(#p6f756825eb)" style="fill: none; stroke-dasharray: 7.4,3.2; stroke-dashoffset: 0; stroke: #000000; stroke-width: 2"/>
   </g>
   <g id="patch_3">
    <path d="M 47.95 404.12 
L 47.95 10.8 
" style="fill: none; stroke: #000000; stroke-width: 0.8; stroke-linejoin: miter; stroke-linecap: square"/>
   </g>
   <g id="patch_4">
    <path d="M 853.2 404.12 
L 853.2 10.8 
" style="fill: none; stroke: #000000; stroke-width: 0.8; stroke-linejoin: miter; stroke-linecap: square"/>
   </g>
   <g id="patch_5">
    <path d="M 47.95 404.12 
L 853.2 404.12 
" style="fill: none; stroke: #000000; stroke-width: 0.8; stroke-linejoin: miter; stroke-linecap: square"/>
   </g>
   <g id="patch_6">
    <path d="M 47.95 10.8 
L 853.2 10.8 
" style="fill: none; stroke: #000000; stroke-width: 0.8; stroke-linejoin: miter; stroke-linecap: square"/>
   </g>
  </g>
 </g>
 <defs>
  <clipPath id="p6f756825eb">
   <rect x="47.95" y="10.8" width="805.25" height="393.32"/>
  </clipPath>
 </defs>
</svg>
