<?xml version="1.0" encoding="utf-8" standalone="no"?>
<!DOCTYPE svg PUBLIC "-//W3C//DTD SVG 1.1//EN"
  "http://www.w3.org/Graphics/SVG/1.1/DTD/svg11.dtd">
<svg xmlns:xlink="http://www.w3.org/1999/xlink" width="720pt" height="720pt" viewBox="0 0 720 720" xmlns="http://www.w3.org/2000/svg" version="1.1">
 <metadata>
  <rdf:RDF xmlns:dc="http://purl.org/dc/elements/1.1/" xmlns:cc="http://creativecommons.org/ns#" xmlns:rdf="http://www.w3.org/1999/02/22-rdf-syntax-ns#">
   <cc:Work>
    <dc:type rdf:resource="http://purl.org/dc/dcmitype/StillImage"/>
    <dc:date>2024-08-11T21:43:12.203449</dc:date>
    <dc:format>image/svg+xml</dc:format>
    <dc:creator>
     <cc:Agent>
      <dc:title>Matplotlib v3.9.1.post1, https://matplotlib.org/</dc:title>
     </cc:Agent>
    </dc:creator>
   </cc:Work>
  </rdf:RDF>
 </metadata>
 <defs>
  <style type="text/css">*{stroke-linejoin: round; stroke-linecap: butt}</style>
 </defs>
 <g id="figure_1">
  <g id="patch_1">
   <path d="M 0 720 
L 720 720 
L 720 0 
L 0 0 
z
" style="fill: #ffffff"/>
  </g>
  <g id="axes_1">
   <g id="patch_2">
    <path d="M 646.2 363.6 
C 646.2 327.19843 639.029684 291.150818 625.099406 257.520153 
C 611.169128 223.889487 590.749797 193.329798 565.01 167.59 
C 539.270202 141.850203 508.710513 121.430872 475.079847 107.500594 
C 441.449182 93.570316 405.40157 86.4 369 86.4 
C 332.59843 86.4 296.550818 93.570316 262.920153 107.500594 
C 229.289487 121.430872 198.729798 141.850203 172.99 167.59 
C 147.250203 193.329798 126.830872 223.889487 112.900594 257.520153 
C 98.970316 291.150818 91.8 327.19843 91.8 363.6 
C 91.8 400.00157 98.970316 436.049182 112.900594 469.679847 
C 126.830872 503.310513 147.250203 533.870202 172.99 559.61 
C 198.729798 585.349797 229.289487 605.769128 262.920153 619.699406 
C 296.550818 633.629684 332.59843 640.8 369 640.8 
C 405.40157 640.8 441.449182 633.629684 475.079847 619.699406 
C 508.710513 605.769128 539.270202 585.349797 565.01 559.61 
C 590.749797 533.870202 611.169128 503.310513 625.099406 469.679847 
C 639.029684 436.049182 646.2 400.00157 646.2 363.6 
M 369 363.6 
C 369 363.6 369 363.6 369 363.6 
C 369 363.6 369 363.6 369 363.6 
C 369 363.6 369 363.6 369 363.6 
C 369 363.6 369 363.6 369 363.6 
C 369 363.6 369 363.6 369 363.6 
C 369 363.6 369 363.6 369 363.6 
C 369 363.6 369 363.6 369 363.6 
C 369 363.6 369 363.6 369 363.6 
C 369 363.6 369 363.6 369 363.6 
C 369 363.6 369 363.6 369 363.6 
C 369 363.6 369 363.6 369 363.6 
C 369 363.6 369 363.6 369 363.6 
C 369 363.6 369 363.6 369 363.6 
C 369 363.6 369 363.6 369 363.6 
C 369 363.6 369 363.6 369 363.6 
C 369 363.6 369 363.6 369 363.6 
z
" style="fill: #ffffff"/>
   </g>
   <g id="matplotlib.axis_1"/>
   <g id="matplotlib.axis_2"/>
   <g id="line2d_1">
    <defs>
     <path id="m873bf175e2" d="M 0 1 
C 0.265203 1 0.51958 0.894634 0.707107 0.707107 
C 0.894634 0.51958 1 0.265203 1 0 
C 1 -0.265203 0.894634 -0.51958 0.707107 -0.707107 
C 0.51958 -0.894634 0.265203 -1 0 -1 
C -0.265203 -1 -0.51958 -0.894634 -0.707107 -0.707107 
C -0.894634 -0.51958 -1 -0.265203 -1 0 
C -1 0.265203 -0.894634 0.51958 -0.707107 0.707107 
C -0.51958 0.894634 -0.265203 1 0 1 
z
" style="stroke: #000000"/>
    </defs>
    <g clip-path="url(#p0e39ea53fe)">
     <use xlink:href="#m873bf175e2" x="368.784774" y="363.129722" style="stroke: #000000"/>
     <use xlink:href="#m873bf175e2" x="368.231981" y="363.490522" style="stroke: #000000"/>
     <use xlink:href="#m873bf175e2" x="369.366767" y="364.839861" style="stroke: #000000"/>
     <use xlink:href="#m873bf175e2" x="370.364683" y="362.41075" style="stroke: #000000"/>
     <use xlink:href="#m873bf175e2" x="369.012589" y="366.444508" style="stroke: #000000"/>
     <use xlink:href="#m873bf175e2" x="372.050586" y="362.187514" style="stroke: #000000"/>
     <use xlink:href="#m873bf175e2" x="367.790354" y="367.8264" style="stroke: #000000"/>
     <use xlink:href="#m873bf175e2" x="373.857791" y="362.86361" style="stroke: #000000"/>
     <use xlink:href="#m873bf175e2" x="365.830887" y="368.633036" style="stroke: #000000"/>
     <use xlink:href="#m873bf175e2" x="363.390144" y="368.576743" style="stroke: #000000"/>
     <use xlink:href="#m873bf175e2" x="376.332958" y="366.838935" style="stroke: #000000"/>
     <use xlink:href="#m873bf175e2" x="376.323469" y="369.757362" style="stroke: #000000"/>
     <use xlink:href="#m873bf175e2" x="358.531873" y="365.281775" style="stroke: #000000"/>
     <use xlink:href="#m873bf175e2" x="375.172609" y="372.84896" style="stroke: #000000"/>
     <use xlink:href="#m873bf175e2" x="356.939229" y="362.098102" style="stroke: #000000"/>
     <use xlink:href="#m873bf175e2" x="356.414484" y="358.173652" style="stroke: #000000"/>
     <use xlink:href="#m873bf175e2" x="357.235587" y="353.885253" style="stroke: #000000"/>
     <use xlink:href="#m873bf175e2" x="364.928642" y="378.839777" style="stroke: #000000"/>
     <use xlink:href="#m873bf175e2" x="360.02922" y="378.422575" style="stroke: #000000"/>
     <use xlink:href="#m873bf175e2" x="363.326286" y="346.138461" style="stroke: #000000"/>
     <use xlink:href="#m873bf175e2" x="355.102615" y="376.375677" style="stroke: #000000"/>
     <use xlink:href="#m873bf175e2" x="350.696265" y="372.67275" style="stroke: #000000"/>
     <use xlink:href="#m873bf175e2" x="374.355958" y="342.815689" style="stroke: #000000"/>
     <use xlink:href="#m873bf175e2" x="380.741663" y="343.805606" style="stroke: #000000"/>
     <use xlink:href="#m873bf175e2" x="345.793939" y="354.078059" style="stroke: #000000"/>
     <use xlink:href="#m873bf175e2" x="392.297391" y="351.793986" style="stroke: #000000"/>
     <use xlink:href="#m873bf175e2" x="348.165126" y="347.006575" style="stroke: #000000"/>
     <use xlink:href="#m873bf175e2" x="396.193093" y="358.487168" style="stroke: #000000"/>
     <use xlink:href="#m873bf175e2" x="352.736177" y="340.57867" style="stroke: #000000"/>
     <use xlink:href="#m873bf175e2" x="398.082825" y="366.439766" style="stroke: #000000"/>
     <use xlink:href="#m873bf175e2" x="376.631011" y="331.657411" style="stroke: #000000"/>
     <use xlink:href="#m873bf175e2" x="388.790561" y="391.093741" style="stroke: #000000"/>
     <use xlink:href="#m873bf175e2" x="380.83861" y="396.990835" style="stroke: #000000"/>
     <use xlink:href="#m873bf175e2" x="394.806923" y="338.579687" style="stroke: #000000"/>
     <use xlink:href="#m873bf175e2" x="360.379143" y="401.153727" style="stroke: #000000"/>
     <use xlink:href="#m873bf175e2" x="407.241561" y="355.706509" style="stroke: #000000"/>
     <use xlink:href="#m873bf175e2" x="409.470622" y="366.829614" style="stroke: #000000"/>
     <use xlink:href="#m873bf175e2" x="408.406844" y="378.559764" style="stroke: #000000"/>
     <use xlink:href="#m873bf175e2" x="331.010452" y="384.136741" style="stroke: #000000"/>
     <use xlink:href="#m873bf175e2" x="325.268584" y="373.030986" style="stroke: #000000"/>
     <use xlink:href="#m873bf175e2" x="322.827551" y="360.326387" style="stroke: #000000"/>
     <use xlink:href="#m873bf175e2" x="385.419259" y="407.431115" style="stroke: #000000"/>
     <use xlink:href="#m873bf175e2" x="329.299452" y="334.216585" style="stroke: #000000"/>
     <use xlink:href="#m873bf175e2" x="358.696218" y="412.433467" style="stroke: #000000"/>
     <use xlink:href="#m873bf175e2" x="338.151342" y="323.059225" style="stroke: #000000"/>
     <use xlink:href="#m873bf175e2" x="344.73003" y="408.977576" style="stroke: #000000"/>
     <use xlink:href="#m873bf175e2" x="321.468073" y="390.393224" style="stroke: #000000"/>
     <use xlink:href="#m873bf175e2" x="311.414718" y="360.540591" style="stroke: #000000"/>
     <use xlink:href="#m873bf175e2" x="409.672313" y="321.273231" style="stroke: #000000"/>
     <use xlink:href="#m873bf175e2" x="313.098501" y="344.060268" style="stroke: #000000"/>
     <use xlink:href="#m873bf175e2" x="421.223924" y="333.549743" style="stroke: #000000"/>
     <use xlink:href="#m873bf175e2" x="429.047845" y="348.971569" style="stroke: #000000"/>
     <use xlink:href="#m873bf175e2" x="330.389263" y="314.680252" style="stroke: #000000"/>
     <use xlink:href="#m873bf175e2" x="430.459116" y="384.473735" style="stroke: #000000"/>
     <use xlink:href="#m873bf175e2" x="423.449978" y="401.704571" style="stroke: #000000"/>
     <use xlink:href="#m873bf175e2" x="411.606249" y="416.610407" style="stroke: #000000"/>
     <use xlink:href="#m873bf175e2" x="395.692701" y="427.836652" style="stroke: #000000"/>
     <use xlink:href="#m873bf175e2" x="416.653828" y="312.217308" style="stroke: #000000"/>
     <use xlink:href="#m873bf175e2" x="430.443823" y="326.781573" style="stroke: #000000"/>
     <use xlink:href="#m873bf175e2" x="356.524325" y="435.185986" style="stroke: #000000"/>
     <use xlink:href="#m873bf175e2" x="439.784913" y="345.022528" style="stroke: #000000"/>
     <use xlink:href="#m873bf175e2" x="317.97134" y="419.607845" style="stroke: #000000"/>
     <use xlink:href="#m873bf175e2" x="419.821876" y="424.58898" style="stroke: #000000"/>
     <use xlink:href="#m873bf175e2" x="288.589778" y="362.178786" style="stroke: #000000"/>
     <use xlink:href="#m873bf175e2" x="401.377035" y="437.78225" style="stroke: #000000"/>
     <use xlink:href="#m873bf175e2" x="290.707731" y="339.30774" style="stroke: #000000"/>
     <use xlink:href="#m873bf175e2" x="332.694877" y="441.11377" style="stroke: #000000"/>
     <use xlink:href="#m873bf175e2" x="311.457862" y="429.047441" style="stroke: #000000"/>
     <use xlink:href="#m873bf175e2" x="382.053358" y="274.822344" style="stroke: #000000"/>
     <use xlink:href="#m873bf175e2" x="282.346008" y="388.819682" style="stroke: #000000"/>
     <use xlink:href="#m873bf175e2" x="406.984936" y="280.594789" style="stroke: #000000"/>
     <use xlink:href="#m873bf175e2" x="429.679084" y="293.340184" style="stroke: #000000"/>
     <use xlink:href="#m873bf175e2" x="288.913304" y="312.679469" style="stroke: #000000"/>
     <use xlink:href="#m873bf175e2" x="305.30656" y="291.164981" style="stroke: #000000"/>
     <use xlink:href="#m873bf175e2" x="327.424735" y="274.848069" style="stroke: #000000"/>
     <use xlink:href="#m873bf175e2" x="464.338795" y="390.428058" style="stroke: #000000"/>
     <use xlink:href="#m873bf175e2" x="454.36194" y="416.819507" style="stroke: #000000"/>
     <use xlink:href="#m873bf175e2" x="410.060407" y="269.506939" style="stroke: #000000"/>
     <use xlink:href="#m873bf175e2" x="413.818053" y="457.110723" style="stroke: #000000"/>
     <use xlink:href="#m873bf175e2" x="456.710179" y="304.497028" style="stroke: #000000"/>
     <use xlink:href="#m873bf175e2" x="326.544902" y="463.286974" style="stroke: #000000"/>
     <use xlink:href="#m873bf175e2" x="477.82967" y="360.706145" style="stroke: #000000"/>
     <use xlink:href="#m873bf175e2" x="277.126813" y="426.697775" style="stroke: #000000"/>
     <use xlink:href="#m873bf175e2" x="465.051034" y="421.147924" style="stroke: #000000"/>
     <use xlink:href="#m873bf175e2" x="446.200702" y="446.831515" style="stroke: #000000"/>
     <use xlink:href="#m873bf175e2" x="254.514708" y="367.658582" style="stroke: #000000"/>
     <use xlink:href="#m873bf175e2" x="256.436403" y="335.127486" style="stroke: #000000"/>
     <use xlink:href="#m873bf175e2" x="356.998397" y="481.166532" style="stroke: #000000"/>
     <use xlink:href="#m873bf175e2" x="287.160019" y="276.918425" style="stroke: #000000"/>
     <use xlink:href="#m873bf175e2" x="324.043922" y="474.568493" style="stroke: #000000"/>
     <use xlink:href="#m873bf175e2" x="313.93235" y="256.122704" style="stroke: #000000"/>
     <use xlink:href="#m873bf175e2" x="380.488155" y="240.267294" style="stroke: #000000"/>
     <use xlink:href="#m873bf175e2" x="243.24241" y="370.288891" style="stroke: #000000"/>
     <use xlink:href="#m873bf175e2" x="446.772058" y="263.236566" style="stroke: #000000"/>
     <use xlink:href="#m873bf175e2" x="256.586552" y="300.242708" style="stroke: #000000"/>
     <use xlink:href="#m873bf175e2" x="491.400655" y="319.588319" style="stroke: #000000"/>
     <use xlink:href="#m873bf175e2" x="500.371602" y="355.445811" style="stroke: #000000"/>
     <use xlink:href="#m873bf175e2" x="486.950473" y="428.709134" style="stroke: #000000"/>
     <use xlink:href="#m873bf175e2" x="379.157696" y="228.737251" style="stroke: #000000"/>
     <use xlink:href="#m873bf175e2" x="480.704088" y="279.373824" style="stroke: #000000"/>
     <use xlink:href="#m873bf175e2" x="501.239571" y="313.389628" style="stroke: #000000"/>
     <use xlink:href="#m873bf175e2" x="283.827922" y="479.756609" style="stroke: #000000"/>
     <use xlink:href="#m873bf175e2" x="253.533799" y="452.276771" style="stroke: #000000"/>
     <use xlink:href="#m873bf175e2" x="231.909527" y="417.045326" style="stroke: #000000"/>
     <use xlink:href="#m873bf175e2" x="475.018808" y="466.374893" style="stroke: #000000"/>
     <use xlink:href="#m873bf175e2" x="442.847119" y="493.252908" style="stroke: #000000"/>
     <use xlink:href="#m873bf175e2" x="234.206759" y="293.797183" style="stroke: #000000"/>
     <use xlink:href="#m873bf175e2" x="257.955975" y="257.844045" style="stroke: #000000"/>
     <use xlink:href="#m873bf175e2" x="291.148869" y="229.687493" style="stroke: #000000"/>
     <use xlink:href="#m873bf175e2" x="279.33281" y="490.539528" style="stroke: #000000"/>
     <use xlink:href="#m873bf175e2" x="246.221734" y="461.395841" style="stroke: #000000"/>
     <use xlink:href="#m873bf175e2" x="222.350893" y="423.783582" style="stroke: #000000"/>
     <use xlink:href="#m873bf175e2" x="419.63745" y="212.296074" style="stroke: #000000"/>
     <use xlink:href="#m873bf175e2" x="209.832843" y="380.574994" style="stroke: #000000"/>
     <use xlink:href="#m873bf175e2" x="222.797445" y="291.141658" style="stroke: #000000"/>
     <use xlink:href="#m873bf175e2" x="533.6621" y="344.563474" style="stroke: #000000"/>
     <use xlink:href="#m873bf175e2" x="282.898713" y="221.352717" style="stroke: #000000"/>
     <use xlink:href="#m873bf175e2" x="533.952455" y="391.590407" style="stroke: #000000"/>
     <use xlink:href="#m873bf175e2" x="520.957735" y="437.242483" style="stroke: #000000"/>
     <use xlink:href="#m873bf175e2" x="495.480014" y="477.808505" style="stroke: #000000"/>
     <use xlink:href="#m873bf175e2" x="420.370675" y="200.571262" style="stroke: #000000"/>
     <use xlink:href="#m873bf175e2" x="502.201212" y="251.594542" style="stroke: #000000"/>
     <use xlink:href="#m873bf175e2" x="366.686217" y="538.652949" style="stroke: #000000"/>
     <use xlink:href="#m873bf175e2" x="317.412684" y="532.51804" style="stroke: #000000"/>
     <use xlink:href="#m873bf175e2" x="545.671817" y="390.370691" style="stroke: #000000"/>
     <use xlink:href="#m873bf175e2" x="203.839822" y="438.31653" style="stroke: #000000"/>
     <use xlink:href="#m873bf175e2" x="468.070083" y="517.872055" style="stroke: #000000"/>
     <use xlink:href="#m873bf175e2" x="199.589665" y="286.985355" style="stroke: #000000"/>
     <use xlink:href="#m873bf175e2" x="317.280754" y="544.343874" style="stroke: #000000"/>
     <use xlink:href="#m873bf175e2" x="268.011431" y="524.006754" style="stroke: #000000"/>
     <use xlink:href="#m873bf175e2" x="226.053046" y="490.429769" style="stroke: #000000"/>
     <use xlink:href="#m873bf175e2" x="366.437484" y="171.481635" style="stroke: #000000"/>
     <use xlink:href="#m873bf175e2" x="177.256416" y="394.41675" style="stroke: #000000"/>
     <use xlink:href="#m873bf175e2" x="174.743146" y="339.421559" style="stroke: #000000"/>
     <use xlink:href="#m873bf175e2" x="515.040683" y="231.696696" style="stroke: #000000"/>
     <use xlink:href="#m873bf175e2" x="215.6562" y="236.988224" style="stroke: #000000"/>
     <use xlink:href="#m873bf175e2" x="566.072083" y="330.134839" style="stroke: #000000"/>
     <use xlink:href="#m873bf175e2" x="362.683896" y="160.184438" style="stroke: #000000"/>
     <use xlink:href="#m873bf175e2" x="486.435492" y="532.969197" style="stroke: #000000"/>
     <use xlink:href="#m873bf175e2" x="377.343237" y="572.636233" style="stroke: #000000"/>
     <use xlink:href="#m873bf175e2" x="556.065418" y="268.789939" style="stroke: #000000"/>
     <use xlink:href="#m873bf175e2" x="262.317994" y="547.155717" style="stroke: #000000"/>
     <use xlink:href="#m873bf175e2" x="580.816864" y="384.269773" style="stroke: #000000"/>
     <use xlink:href="#m873bf175e2" x="214.155376" y="511.106318" style="stroke: #000000"/>
     <use xlink:href="#m873bf175e2" x="568.045422" y="443.207587" style="stroke: #000000"/>
     <use xlink:href="#m873bf175e2" x="156.141394" y="405.588915" style="stroke: #000000"/>
     <use xlink:href="#m873bf175e2" x="381.69723" y="583.815064" style="stroke: #000000"/>
     <use xlink:href="#m873bf175e2" x="193.220787" y="228.637192" style="stroke: #000000"/>
     <use xlink:href="#m873bf175e2" x="319.312944" y="580.104016" style="stroke: #000000"/>
     <use xlink:href="#m873bf175e2" x="237.015099" y="183.646158" style="stroke: #000000"/>
     <use xlink:href="#m873bf175e2" x="169.504504" y="471.460661" style="stroke: #000000"/>
     <use xlink:href="#m873bf175e2" x="417.99218" y="141.108701" style="stroke: #000000"/>
     <use xlink:href="#m873bf175e2" x="145.795735" y="411.749646" style="stroke: #000000"/>
     <use xlink:href="#m873bf175e2" x="478.95211" y="162.297958" style="stroke: #000000"/>
     <use xlink:href="#m873bf175e2" x="226.959649" y="176.956365" style="stroke: #000000"/>
     <use xlink:href="#m873bf175e2" x="604.128535" y="378.165885" style="stroke: #000000"/>
     <use xlink:href="#m873bf175e2" x="349.02579" y="126.792875" style="stroke: #000000"/>
     <use xlink:href="#m873bf175e2" x="516.172065" y="553.475596" style="stroke: #000000"/>
     <use xlink:href="#m873bf175e2" x="536.874742" y="188.87542" style="stroke: #000000"/>
     <use xlink:href="#m873bf175e2" x="391.597803" y="605.885537" style="stroke: #000000"/>
     <use xlink:href="#m873bf175e2" x="322.706096" y="604.073139" style="stroke: #000000"/>
     <use xlink:href="#m873bf175e2" x="256.650706" y="582.940879" style="stroke: #000000"/>
     <use xlink:href="#m873bf175e2" x="573.88463" y="506.961655" style="stroke: #000000"/>
     <use xlink:href="#m873bf175e2" x="125.579247" y="425.203541" style="stroke: #000000"/>
     <use xlink:href="#m873bf175e2" x="116.511045" y="354.679577" style="stroke: #000000"/>
     <use xlink:href="#m873bf175e2" x="127.586581" y="283.999686" style="stroke: #000000"/>
     <use xlink:href="#m873bf175e2" x="325.017377" y="616.064262" style="stroke: #000000"/>
     <use xlink:href="#m873bf175e2" x="255.54398" y="595.112511" style="stroke: #000000"/>
     <use xlink:href="#m873bf175e2" x="146.388839" y="499.704001" style="stroke: #000000"/>
     <use xlink:href="#m873bf175e2" x="411.67302" y="105.143246" style="stroke: #000000"/>
     <use xlink:href="#m873bf175e2" x="482.860614" y="125.961764" style="stroke: #000000"/>
     <use xlink:href="#m873bf175e2" x="105.016321" y="358.950129" style="stroke: #000000"/>
    </g>
   </g>
   <g id="patch_3">
    <path d="M 646.2 363.6 
C 646.2 327.19843 639.029684 291.150818 625.099406 257.520153 
C 611.169128 223.889487 590.749797 193.329798 565.01 167.59 
C 539.270202 141.850203 508.710513 121.430872 475.079847 107.500594 
C 441.449182 93.570316 405.40157 86.4 369 86.4 
C 332.59843 86.4 296.550818 93.570316 262.920153 107.500594 
C 229.289487 121.430872 198.729798 141.850203 172.99 167.59 
C 147.250203 193.329798 126.830872 223.889487 112.900594 257.520153 
C 98.970316 291.150818 91.8 327.19843 91.8 363.6 
C 91.8 400.00157 98.970316 436.049182 112.900594 469.679847 
C 126.830872 503.310513 147.250203 533.870202 172.99 559.61 
C 198.729798 585.349797 229.289487 605.769128 262.920153 619.699406 
C 296.550818 633.629684 332.59843 640.8 369 640.8 
C 405.40157 640.8 441.449182 633.629684 475.079847 619.699406 
C 508.710513 605.769128 539.270202 585.349797 565.01 559.61 
C 590.749797 533.870202 611.169128 503.310513 625.099406 469.679847 
C 639.029684 436.049182 646.2 400.00157 646.2 363.6 
" style="fill: none; stroke: #000000; stroke-width: 0.8; stroke-linejoin: miter; stroke-linecap: square"/>
   </g>
  </g>
 </g>
 <defs>
  <clipPath id="p0e39ea53fe">
   <path d="M 646.2 363.6 
C 646.2 327.19843 639.029684 291.150818 625.099406 257.520153 
C 611.169128 223.889487 590.749797 193.329798 565.01 167.59 
C 539.270202 141.850203 508.710513 121.430872 475.079847 107.500594 
C 441.449182 93.570316 405.40157 86.4 369 86.4 
C 332.59843 86.4 296.550818 93.570316 262.920153 107.500594 
C 229.289487 121.430872 198.729798 141.850203 172.99 167.59 
C 147.250203 193.329798 126.830872 223.889487 112.900594 257.520153 
C 98.970316 291.150818 91.8 327.19843 91.8 363.6 
C 91.8 400.00157 98.970316 436.049182 112.900594 469.679847 
C 126.830872 503.310513 147.250203 533.870202 172.99 559.61 
C 198.729798 585.349797 229.289487 605.769128 262.920153 619.699406 
C 296.550818 633.629684 332.59843 640.8 369 640.8 
C 405.40157 640.8 441.449182 633.629684 475.079847 619.699406 
C 508.710513 605.769128 539.270202 585.349797 565.01 559.61 
C 590.749797 533.870202 611.169128 503.310513 625.099406 469.679847 
C 639.029684 436.049182 646.2 400.00157 646.2 363.6 
M 369 363.6 
C 369 363.6 369 363.6 369 363.6 
C 369 363.6 369 363.6 369 363.6 
C 369 363.6 369 363.6 369 363.6 
C 369 363.6 369 363.6 369 363.6 
C 369 363.6 369 363.6 369 363.6 
C 369 363.6 369 363.6 369 363.6 
C 369 363.6 369 363.6 369 363.6 
C 369 363.6 369 363.6 369 363.6 
C 369 363.6 369 363.6 369 363.6 
C 369 363.6 369 363.6 369 363.6 
C 369 363.6 369 363.6 369 363.6 
C 369 363.6 369 363.6 369 363.6 
C 369 363.6 369 363.6 369 363.6 
C 369 363.6 369 363.6 369 363.6 
C 369 363.6 369 363.6 369 363.6 
C 369 363.6 369 363.6 369 363.6 
z
"/>
  </clipPath>
 </defs>
</svg>
