<?xml version="1.0" encoding="utf-8" standalone="no"?>
<!DOCTYPE svg PUBLIC "-//W3C//DTD SVG 1.1//EN"
  "http://www.w3.org/Graphics/SVG/1.1/DTD/svg11.dtd">
<svg xmlns:xlink="http://www.w3.org/1999/xlink" width="432pt" height="216pt" viewBox="0 0 432 216" xmlns="http://www.w3.org/2000/svg" version="1.1">
 <metadata>
  <rdf:RDF xmlns:dc="http://purl.org/dc/elements/1.1/" xmlns:cc="http://creativecommons.org/ns#" xmlns:rdf="http://www.w3.org/1999/02/22-rdf-syntax-ns#">
   <cc:Work>
    <dc:type rdf:resource="http://purl.org/dc/dcmitype/StillImage"/>
    <dc:date>2024-08-13T20:36:44.248711</dc:date>
    <dc:format>image/svg+xml</dc:format>
    <dc:creator>
     <cc:Agent>
      <dc:title>Matplotlib v3.9.1.post1, https://matplotlib.org/</dc:title>
     </cc:Agent>
    </dc:creator>
   </cc:Work>
  </rdf:RDF>
 </metadata>
 <defs>
  <style type="text/css">*{stroke-linejoin: round; stroke-linecap: butt}</style>
 </defs>
 <g id="figure_1">
  <g id="patch_1">
   <path d="M 0 216 
L 432 216 
L 432 0 
L 0 0 
z
" style="fill: #ffffff"/>
  </g>
  <g id="axes_1">
   <g id="patch_2">
    <path d="M 37.08 170.399655 
L 421.2 170.399655 
L 421.2 24.698966 
L 37.08 24.698966 
z
" style="fill: #ffffff"/>
   </g>
   <g id="patch_3">
    <path d="M 45.169174 162.310481 
L 55.481861 162.310481 
L 55.481861 151.997794 
L 45.169174 151.997794 
z
" clip-path="url(#pd8c022b80a)" style="stroke: #000000; stroke-linejoin: miter"/>
   </g>
   <g id="patch_4">
    <path d="M 58.730578 161.994594 
L 68.411491 161.994594 
L 68.411491 152.313682 
L 58.730578 152.313682 
z
" clip-path="url(#pd8c022b80a)" style="stroke: #000000; stroke-linejoin: miter"/>
   </g>
   <g id="patch_5">
    <path d="M 72.616387 161.354303 
L 81.016715 161.354303 
L 81.016715 152.953973 
L 72.616387 152.953973 
z
" clip-path="url(#pd8c022b80a)" style="stroke: #000000; stroke-linejoin: miter"/>
   </g>
   <g id="patch_6">
    <path d="M 86.862321 160.353887 
L 93.26182 160.353887 
L 93.26182 153.954389 
L 86.862321 153.954389 
z
" clip-path="url(#pd8c022b80a)" style="stroke: #000000; stroke-linejoin: miter"/>
   </g>
   <g id="patch_7">
    <path d="M 101.998371 158.463354 
L 104.616802 158.463354 
L 104.616802 155.844922 
L 101.998371 155.844922 
z
" clip-path="url(#pd8c022b80a)" style="stroke: #000000; stroke-linejoin: miter"/>
   </g>
   <g id="patch_8">
    <path d="M 116.275246 157.431994 
L 116.830961 157.431994 
L 116.830961 156.876281 
L 116.275246 156.876281 
z
" clip-path="url(#pd8c022b80a)" style="stroke: #000000; stroke-linejoin: miter"/>
   </g>
   <g id="patch_9">
    <path d="M 129.639774 157.312983 
L 129.957467 157.312983 
L 129.957467 156.995293 
L 129.639774 156.995293 
z
" clip-path="url(#pd8c022b80a)" style="stroke: #000000; stroke-linejoin: miter"/>
   </g>
   <g id="patch_10">
    <path d="M 143.019929 157.178347 
L 143.068347 157.178347 
L 143.068347 157.129929 
L 143.019929 157.129929 
z
" clip-path="url(#pd8c022b80a)" style="stroke: #000000; stroke-linejoin: miter"/>
   </g>
   <g id="patch_11">
    <path d="M 156.274971 157.168822 
L 156.304333 157.168822 
L 156.304333 157.139454 
L 156.274971 157.139454 
z
" clip-path="url(#pd8c022b80a)" style="stroke: #000000; stroke-linejoin: miter"/>
   </g>
   <g id="patch_12">
    <path d="M 169.451132 157.238176 
L 169.619213 157.238176 
L 169.619213 157.070099 
L 169.451132 157.070099 
z
" clip-path="url(#pd8c022b80a)" style="stroke: #000000; stroke-linejoin: miter"/>
   </g>
   <g id="patch_13">
    <path d="M 182.56692 157.367911 
L 182.994459 157.367911 
L 182.994459 156.940365 
L 182.56692 156.940365 
z
" clip-path="url(#pd8c022b80a)" style="stroke: #000000; stroke-linejoin: miter"/>
   </g>
   <g id="patch_14">
    <path d="M 195.712001 157.468347 
L 196.340413 157.468347 
L 196.340413 156.839929 
L 195.712001 156.839929 
z
" clip-path="url(#pd8c022b80a)" style="stroke: #000000; stroke-linejoin: miter"/>
   </g>
   <g id="patch_15">
    <path d="M 208.862286 157.563579 
L 209.681175 157.563579 
L 209.681175 156.744697 
L 208.862286 156.744697 
z
" clip-path="url(#pd8c022b80a)" style="stroke: #000000; stroke-linejoin: miter"/>
   </g>
   <g id="patch_16">
    <path d="M 222.220189 157.451195 
L 222.814306 157.451195 
L 222.814306 156.857081 
L 222.220189 156.857081 
z
" clip-path="url(#pd8c022b80a)" style="stroke: #000000; stroke-linejoin: miter"/>
   </g>
   <g id="patch_17">
    <path d="M 235.317206 157.59969 
L 236.208311 157.59969 
L 236.208311 156.708585 
L 235.317206 156.708585 
z
" clip-path="url(#pd8c022b80a)" style="stroke: #000000; stroke-linejoin: miter"/>
   </g>
   <g id="patch_18">
    <path d="M 248.746947 157.41547 
L 249.269617 157.41547 
L 249.269617 156.892806 
L 248.746947 156.892806 
z
" clip-path="url(#pd8c022b80a)" style="stroke: #000000; stroke-linejoin: miter"/>
   </g>
   <g id="patch_19">
    <path d="M 261.904154 157.50378 
L 262.603444 157.50378 
L 262.603444 156.804496 
L 261.904154 156.804496 
z
" clip-path="url(#pd8c022b80a)" style="stroke: #000000; stroke-linejoin: miter"/>
   </g>
   <g id="patch_20">
    <path d="M 275.119545 157.533912 
L 275.879101 157.533912 
L 275.879101 156.774363 
L 275.119545 156.774363 
z
" clip-path="url(#pd8c022b80a)" style="stroke: #000000; stroke-linejoin: miter"/>
   </g>
   <g id="patch_21">
    <path d="M 288.372161 157.526816 
L 289.117519 157.526816 
L 289.117519 156.781459 
L 288.372161 156.781459 
z
" clip-path="url(#pd8c022b80a)" style="stroke: #000000; stroke-linejoin: miter"/>
   </g>
   <g id="patch_22">
    <path d="M 301.570056 157.574435 
L 302.410659 157.574435 
L 302.410659 156.733841 
L 301.570056 156.733841 
z
" clip-path="url(#pd8c022b80a)" style="stroke: #000000; stroke-linejoin: miter"/>
   </g>
   <g id="patch_23">
    <path d="M 314.744759 157.645235 
L 315.72694 157.645235 
L 315.72694 156.663041 
L 314.744759 156.663041 
z
" clip-path="url(#pd8c022b80a)" style="stroke: #000000; stroke-linejoin: miter"/>
   </g>
   <g id="patch_24">
    <path d="M 328.301627 157.333888 
L 328.661131 157.333888 
L 328.661131 156.974388 
L 328.301627 156.974388 
z
" clip-path="url(#pd8c022b80a)" style="stroke: #000000; stroke-linejoin: miter"/>
   </g>
   <g id="patch_25">
    <path d="M 341.145197 157.73583 
L 342.308571 157.73583 
L 342.308571 156.572445 
L 341.145197 156.572445 
z
" clip-path="url(#pd8c022b80a)" style="stroke: #000000; stroke-linejoin: miter"/>
   </g>
   <g id="patch_26">
    <path d="M 354.170288 157.956272 
L 355.774565 157.956272 
L 355.774565 156.352004 
L 354.170288 156.352004 
z
" clip-path="url(#pd8c022b80a)" style="stroke: #000000; stroke-linejoin: miter"/>
   </g>
   <g id="patch_27">
    <path d="M 368.108943 157.263124 
L 368.326919 157.263124 
L 368.326919 157.045152 
L 368.108943 157.045152 
z
" clip-path="url(#pd8c022b80a)" style="stroke: #000000; stroke-linejoin: miter"/>
   </g>
   <g id="patch_28">
    <path d="M 380.812147 157.805445 
L 382.11475 157.805445 
L 382.11475 156.50283 
L 380.812147 156.50283 
z
" clip-path="url(#pd8c022b80a)" style="stroke: #000000; stroke-linejoin: miter"/>
   </g>
   <g id="patch_29">
    <path d="M 393.896077 157.967025 
L 395.521854 157.967025 
L 395.521854 156.341251 
L 393.896077 156.341251 
z
" clip-path="url(#pd8c022b80a)" style="stroke: #000000; stroke-linejoin: miter"/>
   </g>
   <g id="patch_30">
    <path d="M 45.02731 149.206827 
L 55.623724 149.206827 
L 55.623724 138.610413 
L 45.02731 138.610413 
z
" clip-path="url(#pd8c022b80a)" style="stroke: #000000; stroke-linejoin: miter"/>
   </g>
   <g id="patch_31">
    <path d="M 58.372989 149.106666 
L 68.769081 149.106666 
L 68.769081 138.710574 
L 58.372989 138.710574 
z
" clip-path="url(#pd8c022b80a)" style="stroke: #000000; stroke-linejoin: miter"/>
   </g>
   <g id="patch_32">
    <path d="M 71.685377 149.039796 
L 81.947728 149.039796 
L 81.947728 138.777444 
L 71.685377 138.777444 
z
" clip-path="url(#pd8c022b80a)" style="stroke: #000000; stroke-linejoin: miter"/>
   </g>
   <g id="patch_33">
    <path d="M 84.94847 149.02222 
L 95.175668 149.02222 
L 95.175668 138.795022 
L 84.94847 138.795022 
z
" clip-path="url(#pd8c022b80a)" style="stroke: #000000; stroke-linejoin: miter"/>
   </g>
   <g id="patch_34">
    <path d="M 98.207503 149.008704 
L 108.407669 149.008704 
L 108.407669 138.808538 
L 98.207503 138.808538 
z
" clip-path="url(#pd8c022b80a)" style="stroke: #000000; stroke-linejoin: miter"/>
   </g>
   <g id="patch_35">
    <path d="M 111.456564 149.00516 
L 121.649643 149.00516 
L 121.649643 138.812081 
L 111.456564 138.812081 
z
" clip-path="url(#pd8c022b80a)" style="stroke: #000000; stroke-linejoin: miter"/>
   </g>
   <g id="patch_36">
    <path d="M 124.710481 148.99676 
L 134.88676 148.99676 
L 134.88676 138.820481 
L 124.710481 138.820481 
z
" clip-path="url(#pd8c022b80a)" style="stroke: #000000; stroke-linejoin: miter"/>
   </g>
   <g id="patch_37">
    <path d="M 137.948388 149.004369 
L 148.139888 149.004369 
L 148.139888 138.81287 
L 137.948388 138.81287 
z
" clip-path="url(#pd8c022b80a)" style="stroke: #000000; stroke-linejoin: miter"/>
   </g>
   <g id="patch_38">
    <path d="M 151.196337 149.001941 
L 161.38298 149.001941 
L 161.38298 138.815301 
L 151.196337 138.815301 
z
" clip-path="url(#pd8c022b80a)" style="stroke: #000000; stroke-linejoin: miter"/>
   </g>
   <g id="patch_39">
    <path d="M 164.446041 148.997755 
L 174.624304 148.997755 
L 174.624304 138.819486 
L 164.446041 138.819486 
z
" clip-path="url(#pd8c022b80a)" style="stroke: #000000; stroke-linejoin: miter"/>
   </g>
   <g id="patch_40">
    <path d="M 177.743665 148.94564 
L 187.817702 148.94564 
L 187.817702 138.871599 
L 177.743665 138.871599 
z
" clip-path="url(#pd8c022b80a)" style="stroke: #000000; stroke-linejoin: miter"/>
   </g>
   <g id="patch_41">
    <path d="M 191.065429 148.869393 
L 200.986973 148.869393 
L 200.986973 138.947849 
L 191.065429 138.947849 
z
" clip-path="url(#pd8c022b80a)" style="stroke: #000000; stroke-linejoin: miter"/>
   </g>
   <g id="patch_42">
    <path d="M 204.396666 148.783674 
L 214.14677 148.783674 
L 214.14677 139.033566 
L 204.396666 139.033566 
z
" clip-path="url(#pd8c022b80a)" style="stroke: #000000; stroke-linejoin: miter"/>
   </g>
   <g id="patch_43">
    <path d="M 217.764069 148.661797 
L 227.270414 148.661797 
L 227.270414 139.155445 
L 217.764069 139.155445 
z
" clip-path="url(#pd8c022b80a)" style="stroke: #000000; stroke-linejoin: miter"/>
   </g>
   <g id="patch_44">
    <path d="M 231.188529 148.482848 
L 240.336988 148.482848 
L 240.336988 139.334395 
L 231.188529 139.334395 
z
" clip-path="url(#pd8c022b80a)" style="stroke: #000000; stroke-linejoin: miter"/>
   </g>
   <g id="patch_45">
    <path d="M 244.620936 148.295958 
L 253.395616 148.295958 
L 253.395616 139.521284 
L 244.620936 139.521284 
z
" clip-path="url(#pd8c022b80a)" style="stroke: #000000; stroke-linejoin: miter"/>
   </g>
   <g id="patch_46">
    <path d="M 258.12806 148.034359 
L 266.379526 148.034359 
L 266.379526 139.782884 
L 258.12806 139.782884 
z
" clip-path="url(#pd8c022b80a)" style="stroke: #000000; stroke-linejoin: miter"/>
   </g>
   <g id="patch_47">
    <path d="M 271.697459 147.710465 
L 279.301161 147.710465 
L 279.301161 140.106776 
L 271.697459 140.106776 
z
" clip-path="url(#pd8c022b80a)" style="stroke: #000000; stroke-linejoin: miter"/>
   </g>
   <g id="patch_48">
    <path d="M 285.365842 147.2876 
L 292.123788 147.2876 
L 292.123788 140.529642 
L 285.365842 140.529642 
z
" clip-path="url(#pd8c022b80a)" style="stroke: #000000; stroke-linejoin: miter"/>
   </g>
   <g id="patch_49">
    <path d="M 299.170928 146.728037 
L 304.809762 146.728037 
L 304.809762 141.089205 
L 299.170928 141.089205 
z
" clip-path="url(#pd8c022b80a)" style="stroke: #000000; stroke-linejoin: miter"/>
   </g>
   <g id="patch_50">
    <path d="M 312.772665 146.371823 
L 317.699059 146.371823 
L 317.699059 141.445419 
L 312.772665 141.445419 
z
" clip-path="url(#pd8c022b80a)" style="stroke: #000000; stroke-linejoin: miter"/>
   </g>
   <g id="patch_51">
    <path d="M 326.299192 146.090812 
L 330.663567 146.090812 
L 330.663567 141.72643 
L 326.299192 141.72643 
z
" clip-path="url(#pd8c022b80a)" style="stroke: #000000; stroke-linejoin: miter"/>
   </g>
   <g id="patch_52">
    <path d="M 339.678936 145.956578 
L 343.774858 145.956578 
L 343.774858 141.860663 
L 339.678936 141.860663 
z
" clip-path="url(#pd8c022b80a)" style="stroke: #000000; stroke-linejoin: miter"/>
   </g>
   <g id="patch_53">
    <path d="M 353.281759 145.599278 
L 356.663069 145.599278 
L 356.663069 142.217963 
L 353.281759 142.217963 
z
" clip-path="url(#pd8c022b80a)" style="stroke: #000000; stroke-linejoin: miter"/>
   </g>
   <g id="patch_54">
    <path d="M 366.977503 145.149043 
L 369.458359 145.149043 
L 369.458359 142.668197 
L 366.977503 142.668197 
z
" clip-path="url(#pd8c022b80a)" style="stroke: #000000; stroke-linejoin: miter"/>
   </g>
   <g id="patch_55">
    <path d="M 380.112213 145.259855 
L 382.814684 145.259855 
L 382.814684 142.557387 
L 380.112213 142.557387 
z
" clip-path="url(#pd8c022b80a)" style="stroke: #000000; stroke-linejoin: miter"/>
   </g>
   <g id="patch_56">
    <path d="M 393.131493 145.48609 
L 396.286438 145.48609 
L 396.286438 142.331151 
L 393.131493 142.331151 
z
" clip-path="url(#pd8c022b80a)" style="stroke: #000000; stroke-linejoin: miter"/>
   </g>
   <g id="patch_57">
    <path d="M 45.504079 135.484542 
L 55.146955 135.484542 
L 55.146955 125.841668 
L 45.504079 125.841668 
z
" clip-path="url(#pd8c022b80a)" style="stroke: #000000; stroke-linejoin: miter"/>
   </g>
   <g id="patch_58">
    <path d="M 59.318377 134.915761 
L 67.82369 134.915761 
L 67.82369 126.410448 
L 59.318377 126.410448 
z
" clip-path="url(#pd8c022b80a)" style="stroke: #000000; stroke-linejoin: miter"/>
   </g>
   <g id="patch_59">
    <path d="M 73.151005 134.32865 
L 80.482098 134.32865 
L 80.482098 126.997557 
L 73.151005 126.997557 
z
" clip-path="url(#pd8c022b80a)" style="stroke: #000000; stroke-linejoin: miter"/>
   </g>
   <g id="patch_60">
    <path d="M 87.265948 133.459224 
L 92.85819 133.459224 
L 92.85819 127.866983 
L 87.265948 127.866983 
z
" clip-path="url(#pd8c022b80a)" style="stroke: #000000; stroke-linejoin: miter"/>
   </g>
   <g id="patch_61">
    <path d="M 101.963857 132.006832 
L 104.651318 132.006832 
L 104.651318 129.319375 
L 101.963857 129.319375 
z
" clip-path="url(#pd8c022b80a)" style="stroke: #000000; stroke-linejoin: miter"/>
   </g>
   <g id="patch_62">
    <path d="M 116.358572 130.857635 
L 116.747635 130.857635 
L 116.747635 130.468572 
L 116.358572 130.468572 
z
" clip-path="url(#pd8c022b80a)" style="stroke: #000000; stroke-linejoin: miter"/>
   </g>
   <g id="patch_63">
    <path d="M 129.646823 130.814898 
L 129.950412 130.814898 
L 129.950412 130.511309 
L 129.646823 130.511309 
z
" clip-path="url(#pd8c022b80a)" style="stroke: #000000; stroke-linejoin: miter"/>
   </g>
   <g id="patch_64">
    <path d="M 142.942394 130.764844 
L 143.145875 130.764844 
L 143.145875 130.561363 
L 142.942394 130.561363 
z
" clip-path="url(#pd8c022b80a)" style="stroke: #000000; stroke-linejoin: miter"/>
   </g>
   <g id="patch_65">
    <path d="M 156.14202 130.810739 
L 156.437297 130.810739 
L 156.437297 130.515468 
L 156.14202 130.515468 
z
" clip-path="url(#pd8c022b80a)" style="stroke: #000000; stroke-linejoin: miter"/>
   </g>
   <g id="patch_66">
    <path d="M 169.269725 130.92855 
L 169.800619 130.92855 
L 169.800619 130.397656 
L 169.269725 130.397656 
z
" clip-path="url(#pd8c022b80a)" style="stroke: #000000; stroke-linejoin: miter"/>
   </g>
   <g id="patch_67">
    <path d="M 182.542313 130.901485 
L 183.019079 130.901485 
L 183.019079 130.42472 
L 182.542313 130.42472 
z
" clip-path="url(#pd8c022b80a)" style="stroke: #000000; stroke-linejoin: miter"/>
   </g>
   <g id="patch_68">
    <path d="M 195.707832 130.981475 
L 196.344582 130.981475 
L 196.344582 130.344732 
L 195.707832 130.344732 
z
" clip-path="url(#pd8c022b80a)" style="stroke: #000000; stroke-linejoin: miter"/>
   </g>
   <g id="patch_69">
    <path d="M 208.953526 130.981303 
L 209.589922 130.981303 
L 209.589922 130.344906 
L 208.953526 130.344906 
z
" clip-path="url(#pd8c022b80a)" style="stroke: #000000; stroke-linejoin: miter"/>
   </g>
   <g id="patch_70">
    <path d="M 222.241045 130.939305 
L 222.793451 130.939305 
L 222.793451 130.3869 
L 222.241045 130.3869 
z
" clip-path="url(#pd8c022b80a)" style="stroke: #000000; stroke-linejoin: miter"/>
   </g>
   <g id="patch_71">
    <path d="M 235.609609 130.81625 
L 235.915895 130.81625 
L 235.915895 130.509957 
L 235.609609 130.509957 
z
" clip-path="url(#pd8c022b80a)" style="stroke: #000000; stroke-linejoin: miter"/>
   </g>
   <g id="patch_72">
    <path d="M 248.690609 130.980774 
L 249.325956 130.980774 
L 249.325956 130.345433 
L 248.690609 130.345433 
z
" clip-path="url(#pd8c022b80a)" style="stroke: #000000; stroke-linejoin: miter"/>
   </g>
   <g id="patch_73">
    <path d="M 262.095073 130.821822 
L 262.4125 130.821822 
L 262.4125 130.504387 
L 262.095073 130.504387 
z
" clip-path="url(#pd8c022b80a)" style="stroke: #000000; stroke-linejoin: miter"/>
   </g>
   <g id="patch_74">
    <path d="M 275.031904 131.130503 
L 275.966691 131.130503 
L 275.966691 130.195704 
L 275.031904 130.195704 
z
" clip-path="url(#pd8c022b80a)" style="stroke: #000000; stroke-linejoin: miter"/>
   </g>
   <g id="patch_75">
    <path d="M 288.514977 130.892951 
L 288.974678 130.892951 
L 288.974678 130.433256 
L 288.514977 130.433256 
z
" clip-path="url(#pd8c022b80a)" style="stroke: #000000; stroke-linejoin: miter"/>
   </g>
   <g id="patch_76">
    <path d="M 301.771535 130.88192 
L 302.209155 130.88192 
L 302.209155 130.444287 
L 301.771535 130.444287 
z
" clip-path="url(#pd8c022b80a)" style="stroke: #000000; stroke-linejoin: miter"/>
   </g>
   <g id="patch_77">
    <path d="M 315.039992 130.858969 
L 315.431732 130.858969 
L 315.431732 130.467239 
L 315.039992 130.467239 
z
" clip-path="url(#pd8c022b80a)" style="stroke: #000000; stroke-linejoin: miter"/>
   </g>
   <g id="patch_78">
    <path d="M 328.301551 130.842939 
L 328.661232 130.842939 
L 328.661232 130.483266 
L 328.301551 130.483266 
z
" clip-path="url(#pd8c022b80a)" style="stroke: #000000; stroke-linejoin: miter"/>
   </g>
   <g id="patch_79">
    <path d="M 341.484894 130.905099 
L 341.968899 130.905099 
L 341.968899 130.421108 
L 341.484894 130.421108 
z
" clip-path="url(#pd8c022b80a)" style="stroke: #000000; stroke-linejoin: miter"/>
   </g>
   <g id="patch_80">
    <path d="M 354.921229 130.714293 
L 355.023598 130.714293 
L 355.023598 130.611916 
L 354.921229 130.611916 
z
" clip-path="url(#pd8c022b80a)" style="stroke: #000000; stroke-linejoin: miter"/>
   </g>
   <g id="patch_81">
    <path d="M 368.210049 130.670975 
L 368.225788 130.670975 
L 368.225788 130.655234 
L 368.210049 130.655234 
z
" clip-path="url(#pd8c022b80a)" style="stroke: #000000; stroke-linejoin: miter"/>
   </g>
   <g id="patch_82">
    <path d="M 381.369669 130.756886 
L 381.557228 130.756886 
L 381.557228 130.569321 
L 381.369669 130.569321 
z
" clip-path="url(#pd8c022b80a)" style="stroke: #000000; stroke-linejoin: miter"/>
   </g>
   <g id="patch_83">
    <path d="M 394.23153 131.140541 
L 395.186401 131.140541 
L 395.186401 130.185665 
L 394.23153 130.185665 
z
" clip-path="url(#pd8c022b80a)" style="stroke: #000000; stroke-linejoin: miter"/>
   </g>
   <g id="patch_84">
    <path d="M 45.660514 122.082588 
L 54.99052 122.082588 
L 54.99052 112.752584 
L 45.660514 112.752584 
z
" clip-path="url(#pd8c022b80a)" style="stroke: #000000; stroke-linejoin: miter"/>
   </g>
   <g id="patch_85">
    <path d="M 59.219706 121.768913 
L 67.922361 121.768913 
L 67.922361 113.066257 
L 59.219706 113.066257 
z
" clip-path="url(#pd8c022b80a)" style="stroke: #000000; stroke-linejoin: miter"/>
   </g>
   <g id="patch_86">
    <path d="M 72.531552 121.702586 
L 81.101551 121.702586 
L 81.101551 113.132587 
L 72.531552 113.132587 
z
" clip-path="url(#pd8c022b80a)" style="stroke: #000000; stroke-linejoin: miter"/>
   </g>
   <g id="patch_87">
    <path d="M 85.796952 121.682703 
L 94.327186 121.682703 
L 94.327186 113.152469 
L 85.796952 113.152469 
z
" clip-path="url(#pd8c022b80a)" style="stroke: #000000; stroke-linejoin: miter"/>
   </g>
   <g id="patch_88">
    <path d="M 99.107925 121.617248 
L 107.507248 121.617248 
L 107.507248 113.217925 
L 99.107925 113.217925 
z
" clip-path="url(#pd8c022b80a)" style="stroke: #000000; stroke-linejoin: miter"/>
   </g>
   <g id="patch_89">
    <path d="M 112.384327 121.586363 
L 120.72188 121.586363 
L 120.72188 113.24881 
L 112.384327 113.24881 
z
" clip-path="url(#pd8c022b80a)" style="stroke: #000000; stroke-linejoin: miter"/>
   </g>
   <g id="patch_90">
    <path d="M 125.667361 121.548843 
L 133.929874 121.548843 
L 133.929874 113.28633 
L 125.667361 113.28633 
z
" clip-path="url(#pd8c022b80a)" style="stroke: #000000; stroke-linejoin: miter"/>
   </g>
   <g id="patch_91">
    <path d="M 138.962585 121.499139 
L 147.125691 121.499139 
L 147.125691 113.336033 
L 138.962585 113.336033 
z
" clip-path="url(#pd8c022b80a)" style="stroke: #000000; stroke-linejoin: miter"/>
   </g>
   <g id="patch_92">
    <path d="M 152.247886 121.459355 
L 160.331424 121.459355 
L 160.331424 113.375814 
L 152.247886 113.375814 
z
" clip-path="url(#pd8c022b80a)" style="stroke: #000000; stroke-linejoin: miter"/>
   </g>
   <g id="patch_93">
    <path d="M 165.552192 121.400566 
L 173.518152 121.400566 
L 173.518152 113.434606 
L 165.552192 113.434606 
z
" clip-path="url(#pd8c022b80a)" style="stroke: #000000; stroke-linejoin: miter"/>
   </g>
   <g id="patch_94">
    <path d="M 178.858393 121.339879 
L 186.702973 121.339879 
L 186.702973 113.495293 
L 178.858393 113.495293 
z
" clip-path="url(#pd8c022b80a)" style="stroke: #000000; stroke-linejoin: miter"/>
   </g>
   <g id="patch_95">
    <path d="M 192.172085 121.271714 
L 199.880341 121.271714 
L 199.880341 113.563461 
L 192.172085 113.563461 
z
" clip-path="url(#pd8c022b80a)" style="stroke: #000000; stroke-linejoin: miter"/>
   </g>
   <g id="patch_96">
    <path d="M 205.493975 121.195329 
L 213.049461 121.195329 
L 213.049461 113.639843 
L 205.493975 113.639843 
z
" clip-path="url(#pd8c022b80a)" style="stroke: #000000; stroke-linejoin: miter"/>
   </g>
   <g id="patch_97">
    <path d="M 218.793266 121.141562 
L 226.241217 121.141562 
L 226.241217 113.693611 
L 218.793266 113.693611 
z
" clip-path="url(#pd8c022b80a)" style="stroke: #000000; stroke-linejoin: miter"/>
   </g>
   <g id="patch_98">
    <path d="M 232.204047 120.976301 
L 239.321471 120.976301 
L 239.321471 113.858871 
L 232.204047 113.858871 
z
" clip-path="url(#pd8c022b80a)" style="stroke: #000000; stroke-linejoin: miter"/>
   </g>
   <g id="patch_99">
    <path d="M 245.525519 120.900339 
L 252.491032 120.900339 
L 252.491032 113.93483 
L 245.525519 113.93483 
z
" clip-path="url(#pd8c022b80a)" style="stroke: #000000; stroke-linejoin: miter"/>
   </g>
   <g id="patch_100">
    <path d="M 258.969888 120.701488 
L 265.537685 120.701488 
L 265.537685 114.133684 
L 258.969888 114.133684 
z
" clip-path="url(#pd8c022b80a)" style="stroke: #000000; stroke-linejoin: miter"/>
   </g>
   <g id="patch_101">
    <path d="M 272.335851 120.581049 
L 278.66277 120.581049 
L 278.66277 114.25412 
L 272.335851 114.25412 
z
" clip-path="url(#pd8c022b80a)" style="stroke: #000000; stroke-linejoin: miter"/>
   </g>
   <g id="patch_102">
    <path d="M 285.54082 120.621591 
L 291.948836 120.621591 
L 291.948836 114.213581 
L 285.54082 114.213581 
z
" clip-path="url(#pd8c022b80a)" style="stroke: #000000; stroke-linejoin: miter"/>
   </g>
   <g id="patch_103">
    <path d="M 299.247351 120.160593 
L 304.733364 120.160593 
L 304.733364 114.674583 
L 299.247351 114.674583 
z
" clip-path="url(#pd8c022b80a)" style="stroke: #000000; stroke-linejoin: miter"/>
   </g>
   <g id="patch_104">
    <path d="M 312.752403 119.901035 
L 317.719295 119.901035 
L 317.719295 114.934137 
L 312.752403 114.934137 
z
" clip-path="url(#pd8c022b80a)" style="stroke: #000000; stroke-linejoin: miter"/>
   </g>
   <g id="patch_105">
    <path d="M 325.593977 120.304988 
L 331.368781 120.304988 
L 331.368781 114.530187 
L 325.593977 114.530187 
z
" clip-path="url(#pd8c022b80a)" style="stroke: #000000; stroke-linejoin: miter"/>
   </g>
   <g id="patch_106">
    <path d="M 339.415232 119.729248 
L 344.038561 119.729248 
L 344.038561 115.105928 
L 339.415232 115.105928 
z
" clip-path="url(#pd8c022b80a)" style="stroke: #000000; stroke-linejoin: miter"/>
   </g>
   <g id="patch_107">
    <path d="M 352.868468 119.521522 
L 357.076334 119.521522 
L 357.076334 115.313647 
L 352.868468 115.313647 
z
" clip-path="url(#pd8c022b80a)" style="stroke: #000000; stroke-linejoin: miter"/>
   </g>
   <g id="patch_108">
    <path d="M 365.962453 119.673071 
L 370.473434 119.673071 
L 370.473434 115.162099 
L 365.962453 115.162099 
z
" clip-path="url(#pd8c022b80a)" style="stroke: #000000; stroke-linejoin: miter"/>
   </g>
   <g id="patch_109">
    <path d="M 379.407251 119.47378 
L 383.519645 119.47378 
L 383.519645 115.361392 
L 379.407251 115.361392 
z
" clip-path="url(#pd8c022b80a)" style="stroke: #000000; stroke-linejoin: miter"/>
   </g>
   <g id="patch_110">
    <path d="M 392.890274 119.236275 
L 396.527657 119.236275 
L 396.527657 115.598894 
L 392.890274 115.598894 
z
" clip-path="url(#pd8c022b80a)" style="stroke: #000000; stroke-linejoin: miter"/>
   </g>
   <g id="patch_111">
    <path d="M 45.942599 108.554988 
L 54.708436 108.554988 
L 54.708436 99.78915 
L 45.942599 99.78915 
z
" clip-path="url(#pd8c022b80a)" style="stroke: #000000; stroke-linejoin: miter"/>
   </g>
   <g id="patch_112">
    <path d="M 59.859003 107.884101 
L 67.283066 107.884101 
L 67.283066 100.460037 
L 59.859003 100.460037 
z
" clip-path="url(#pd8c022b80a)" style="stroke: #000000; stroke-linejoin: miter"/>
   </g>
   <g id="patch_113">
    <path d="M 73.167973 107.820648 
L 80.465127 107.820648 
L 80.465127 100.523493 
L 73.167973 100.523493 
z
" clip-path="url(#pd8c022b80a)" style="stroke: #000000; stroke-linejoin: miter"/>
   </g>
   <g id="patch_114">
    <path d="M 86.438413 107.795725 
L 93.685725 107.795725 
L 93.685725 100.548416 
L 86.438413 100.548416 
z
" clip-path="url(#pd8c022b80a)" style="stroke: #000000; stroke-linejoin: miter"/>
   </g>
   <g id="patch_115">
    <path d="M 99.709084 107.770572 
L 106.906089 107.770572 
L 106.906089 100.573566 
L 99.709084 100.573566 
z
" clip-path="url(#pd8c022b80a)" style="stroke: #000000; stroke-linejoin: miter"/>
   </g>
   <g id="patch_116">
    <path d="M 112.951601 107.773569 
L 120.1546 107.773569 
L 120.1546 100.570566 
L 112.951601 100.570566 
z
" clip-path="url(#pd8c022b80a)" style="stroke: #000000; stroke-linejoin: miter"/>
   </g>
   <g id="patch_117">
    <path d="M 126.210539 107.760153 
L 133.386708 107.760153 
L 133.386708 100.583988 
L 126.210539 100.583988 
z
" clip-path="url(#pd8c022b80a)" style="stroke: #000000; stroke-linejoin: miter"/>
   </g>
   <g id="patch_118">
    <path d="M 139.480872 107.735335 
L 146.607404 107.735335 
L 146.607404 100.608803 
L 139.480872 100.608803 
z
" clip-path="url(#pd8c022b80a)" style="stroke: #000000; stroke-linejoin: miter"/>
   </g>
   <g id="patch_119">
    <path d="M 152.756346 107.705381 
L 159.822965 107.705381 
L 159.822965 100.63876 
L 152.756346 100.63876 
z
" clip-path="url(#pd8c022b80a)" style="stroke: #000000; stroke-linejoin: miter"/>
   </g>
   <g id="patch_120">
    <path d="M 166.04111 107.666131 
L 173.029234 107.666131 
L 173.029234 100.678007 
L 166.04111 100.678007 
z
" clip-path="url(#pd8c022b80a)" style="stroke: #000000; stroke-linejoin: miter"/>
   </g>
   <g id="patch_121">
    <path d="M 179.362103 107.590652 
L 186.199276 107.590652 
L 186.199276 100.753483 
L 179.362103 100.753483 
z
" clip-path="url(#pd8c022b80a)" style="stroke: #000000; stroke-linejoin: miter"/>
   </g>
   <g id="patch_122">
    <path d="M 192.708802 107.489467 
L 199.343599 107.489467 
L 199.343599 100.854671 
L 192.708802 100.854671 
z
" clip-path="url(#pd8c022b80a)" style="stroke: #000000; stroke-linejoin: miter"/>
   </g>
   <g id="patch_123">
    <path d="M 206.071127 107.372666 
L 212.472322 107.372666 
L 212.472322 100.971472 
L 206.071127 100.971472 
z
" clip-path="url(#pd8c022b80a)" style="stroke: #000000; stroke-linejoin: miter"/>
   </g>
   <g id="patch_124">
    <path d="M 219.379185 107.310126 
L 225.655298 107.310126 
L 225.655298 101.034012 
L 219.379185 101.034012 
z
" clip-path="url(#pd8c022b80a)" style="stroke: #000000; stroke-linejoin: miter"/>
   </g>
   <g id="patch_125">
    <path d="M 232.703424 107.231397 
L 238.822081 107.231397 
L 238.822081 101.11274 
L 232.703424 101.11274 
z
" clip-path="url(#pd8c022b80a)" style="stroke: #000000; stroke-linejoin: miter"/>
   </g>
   <g id="patch_126">
    <path d="M 246.068906 107.111435 
L 251.947645 107.111435 
L 251.947645 101.232699 
L 246.068906 101.232699 
z
" clip-path="url(#pd8c022b80a)" style="stroke: #000000; stroke-linejoin: miter"/>
   </g>
   <g id="patch_127">
    <path d="M 259.529242 106.896627 
L 264.978344 106.896627 
L 264.978344 101.447511 
L 259.529242 101.447511 
z
" clip-path="url(#pd8c022b80a)" style="stroke: #000000; stroke-linejoin: miter"/>
   </g>
   <g id="patch_128">
    <path d="M 272.938266 106.733122 
L 278.060379 106.733122 
L 278.060379 101.611019 
L 272.938266 101.611019 
z
" clip-path="url(#pd8c022b80a)" style="stroke: #000000; stroke-linejoin: miter"/>
   </g>
   <g id="patch_129">
    <path d="M 286.314625 106.602272 
L 291.17503 106.602272 
L 291.17503 101.741866 
L 286.314625 101.741866 
z
" clip-path="url(#pd8c022b80a)" style="stroke: #000000; stroke-linejoin: miter"/>
   </g>
   <g id="patch_130">
    <path d="M 299.624186 106.538231 
L 304.356504 106.538231 
L 304.356504 101.805904 
L 299.624186 101.805904 
z
" clip-path="url(#pd8c022b80a)" style="stroke: #000000; stroke-linejoin: miter"/>
   </g>
   <g id="patch_131">
    <path d="M 313.159302 106.248622 
L 317.312422 106.248622 
L 317.312422 102.095516 
L 313.159302 102.095516 
z
" clip-path="url(#pd8c022b80a)" style="stroke: #000000; stroke-linejoin: miter"/>
   </g>
   <g id="patch_132">
    <path d="M 326.63707 106.016391 
L 330.325714 106.016391 
L 330.325714 102.327747 
L 326.63707 102.327747 
z
" clip-path="url(#pd8c022b80a)" style="stroke: #000000; stroke-linejoin: miter"/>
   </g>
   <g id="patch_133">
    <path d="M 339.89287 106.006099 
L 343.560924 106.006099 
L 343.560924 102.338042 
L 339.89287 102.338042 
z
" clip-path="url(#pd8c022b80a)" style="stroke: #000000; stroke-linejoin: miter"/>
   </g>
   <g id="patch_134">
    <path d="M 353.42023 105.724259 
L 356.524623 105.724259 
L 356.524623 102.619879 
L 353.42023 102.619879 
z
" clip-path="url(#pd8c022b80a)" style="stroke: #000000; stroke-linejoin: miter"/>
   </g>
   <g id="patch_135">
    <path d="M 366.895446 105.494564 
L 369.540441 105.494564 
L 369.540441 102.849571 
L 366.895446 102.849571 
z
" clip-path="url(#pd8c022b80a)" style="stroke: #000000; stroke-linejoin: miter"/>
   </g>
   <g id="patch_136">
    <path d="M 380.397972 105.237545 
L 382.528925 105.237545 
L 382.528925 103.106593 
L 380.397972 103.106593 
z
" clip-path="url(#pd8c022b80a)" style="stroke: #000000; stroke-linejoin: miter"/>
   </g>
   <g id="patch_137">
    <path d="M 393.634849 105.246179 
L 395.783082 105.246179 
L 395.783082 103.097959 
L 393.634849 103.097959 
z
" clip-path="url(#pd8c022b80a)" style="stroke: #000000; stroke-linejoin: miter"/>
   </g>
   <g id="patch_138">
    <path d="M 46.094788 95.157281 
L 54.556247 95.157281 
L 54.556247 86.695822 
L 46.094788 86.695822 
z
" clip-path="url(#pd8c022b80a)" style="stroke: #000000; stroke-linejoin: miter"/>
   </g>
   <g id="patch_139">
    <path d="M 59.805636 94.691947 
L 67.336433 94.691947 
L 67.336433 87.16115 
L 59.805636 87.16115 
z
" clip-path="url(#pd8c022b80a)" style="stroke: #000000; stroke-linejoin: miter"/>
   </g>
   <g id="patch_140">
    <path d="M 73.10733 94.635773 
L 80.525773 94.635773 
L 80.525773 87.21733 
L 73.10733 87.21733 
z
" clip-path="url(#pd8c022b80a)" style="stroke: #000000; stroke-linejoin: miter"/>
   </g>
   <g id="patch_141">
    <path d="M 86.386035 94.602589 
L 93.738106 94.602589 
L 93.738106 87.250521 
L 86.386035 87.250521 
z
" clip-path="url(#pd8c022b80a)" style="stroke: #000000; stroke-linejoin: miter"/>
   </g>
   <g id="patch_142">
    <path d="M 99.664938 94.569197 
L 106.950231 94.569197 
L 106.950231 87.283901 
L 99.664938 87.283901 
z
" clip-path="url(#pd8c022b80a)" style="stroke: #000000; stroke-linejoin: miter"/>
   </g>
   <g id="patch_143">
    <path d="M 112.942051 94.537604 
L 120.164156 94.537604 
L 120.164156 87.315499 
L 112.942051 87.315499 
z
" clip-path="url(#pd8c022b80a)" style="stroke: #000000; stroke-linejoin: miter"/>
   </g>
   <g id="patch_144">
    <path d="M 126.19077 94.534402 
L 133.406471 94.534402 
L 133.406471 87.318701 
L 126.19077 87.318701 
z
" clip-path="url(#pd8c022b80a)" style="stroke: #000000; stroke-linejoin: miter"/>
   </g>
   <g id="patch_145">
    <path d="M 139.457699 94.512991 
L 146.630577 94.512991 
L 146.630577 87.340113 
L 139.457699 87.340113 
z
" clip-path="url(#pd8c022b80a)" style="stroke: #000000; stroke-linejoin: miter"/>
   </g>
   <g id="patch_146">
    <path d="M 152.765087 94.45112 
L 159.814223 94.45112 
L 159.814223 87.401984 
L 152.765087 87.401984 
z
" clip-path="url(#pd8c022b80a)" style="stroke: #000000; stroke-linejoin: miter"/>
   </g>
   <g id="patch_147">
    <path d="M 166.066033 94.395685 
L 173.004299 94.395685 
L 173.004299 87.457419 
L 166.066033 87.457419 
z
" clip-path="url(#pd8c022b80a)" style="stroke: #000000; stroke-linejoin: miter"/>
   </g>
   <g id="patch_148">
    <path d="M 179.37471 94.332538 
L 186.186682 94.332538 
L 186.186682 87.520566 
L 179.37471 87.520566 
z
" clip-path="url(#pd8c022b80a)" style="stroke: #000000; stroke-linejoin: miter"/>
   </g>
   <g id="patch_149">
    <path d="M 192.753494 94.199265 
L 199.29892 94.199265 
L 199.29892 87.653845 
L 192.753494 87.653845 
z
" clip-path="url(#pd8c022b80a)" style="stroke: #000000; stroke-linejoin: miter"/>
   </g>
   <g id="patch_150">
    <path d="M 206.093649 94.10462 
L 212.449786 94.10462 
L 212.449786 87.748477 
L 206.093649 87.748477 
z
" clip-path="url(#pd8c022b80a)" style="stroke: #000000; stroke-linejoin: miter"/>
   </g>
   <g id="patch_151">
    <path d="M 219.448458 93.995335 
L 225.586025 93.995335 
L 225.586025 87.857768 
L 219.448458 87.857768 
z
" clip-path="url(#pd8c022b80a)" style="stroke: #000000; stroke-linejoin: miter"/>
   </g>
   <g id="patch_152">
    <path d="M 232.850851 93.83846 
L 238.674666 93.83846 
L 238.674666 88.014638 
L 232.850851 88.014638 
z
" clip-path="url(#pd8c022b80a)" style="stroke: #000000; stroke-linejoin: miter"/>
   </g>
   <g id="patch_153">
    <path d="M 246.254659 93.680163 
L 251.761881 93.680163 
L 251.761881 88.172934 
L 246.254659 88.172934 
z
" clip-path="url(#pd8c022b80a)" style="stroke: #000000; stroke-linejoin: miter"/>
   </g>
   <g id="patch_154">
    <path d="M 259.706505 93.473846 
L 264.801093 93.473846 
L 264.801093 88.379258 
L 259.706505 88.379258 
z
" clip-path="url(#pd8c022b80a)" style="stroke: #000000; stroke-linejoin: miter"/>
   </g>
   <g id="patch_155">
    <path d="M 273.114128 93.311728 
L 277.884468 93.311728 
L 277.884468 88.541376 
L 273.114128 88.541376 
z
" clip-path="url(#pd8c022b80a)" style="stroke: #000000; stroke-linejoin: miter"/>
   </g>
   <g id="patch_156">
    <path d="M 286.541797 93.129595 
L 290.947883 93.129595 
L 290.947883 88.723509 
L 286.541797 88.723509 
z
" clip-path="url(#pd8c022b80a)" style="stroke: #000000; stroke-linejoin: miter"/>
   </g>
   <g id="patch_157">
    <path d="M 299.998646 92.918263 
L 303.982069 92.918263 
L 303.982069 88.934841 
L 299.998646 88.934841 
z
" clip-path="url(#pd8c022b80a)" style="stroke: #000000; stroke-linejoin: miter"/>
   </g>
   <g id="patch_158">
    <path d="M 313.482149 92.680259 
L 316.98955 92.680259 
L 316.98955 89.172851 
L 313.482149 89.172851 
z
" clip-path="url(#pd8c022b80a)" style="stroke: #000000; stroke-linejoin: miter"/>
   </g>
   <g id="patch_159">
    <path d="M 326.641542 92.766383 
L 330.321217 92.766383 
L 330.321217 89.08672 
L 326.641542 89.08672 
z
" clip-path="url(#pd8c022b80a)" style="stroke: #000000; stroke-linejoin: miter"/>
   </g>
   <g id="patch_160">
    <path d="M 340.014565 92.638895 
L 343.439253 92.638895 
L 343.439253 89.214214 
L 340.014565 89.214214 
z
" clip-path="url(#pd8c022b80a)" style="stroke: #000000; stroke-linejoin: miter"/>
   </g>
   <g id="patch_161">
    <path d="M 353.479524 92.419448 
L 356.465303 92.419448 
L 356.465303 89.433662 
L 353.479524 89.433662 
z
" clip-path="url(#pd8c022b80a)" style="stroke: #000000; stroke-linejoin: miter"/>
   </g>
   <g id="patch_162">
    <path d="M 366.762988 92.381495 
L 369.672874 92.381495 
L 369.672874 89.471602 
L 366.762988 89.471602 
z
" clip-path="url(#pd8c022b80a)" style="stroke: #000000; stroke-linejoin: miter"/>
   </g>
   <g id="patch_163">
    <path d="M 379.948933 92.441067 
L 382.977964 92.441067 
L 382.977964 89.412036 
L 379.948933 89.412036 
z
" clip-path="url(#pd8c022b80a)" style="stroke: #000000; stroke-linejoin: miter"/>
   </g>
   <g id="patch_164">
    <path d="M 393.223605 92.411919 
L 396.194327 92.411919 
L 396.194327 89.441191 
L 393.223605 89.441191 
z
" clip-path="url(#pd8c022b80a)" style="stroke: #000000; stroke-linejoin: miter"/>
   </g>
   <g id="patch_165">
    <path d="M 46.399227 81.607323 
L 54.251808 81.607323 
L 54.251808 73.75474 
L 46.399227 73.75474 
z
" clip-path="url(#pd8c022b80a)" style="stroke: #000000; stroke-linejoin: miter"/>
   </g>
   <g id="patch_166">
    <path d="M 60.447377 80.804691 
L 66.694693 80.804691 
L 66.694693 74.557378 
L 60.447377 74.557378 
z
" clip-path="url(#pd8c022b80a)" style="stroke: #000000; stroke-linejoin: miter"/>
   </g>
   <g id="patch_167">
    <path d="M 73.754623 80.742965 
L 79.878479 80.742965 
L 79.878479 74.61911 
L 73.754623 74.61911 
z
" clip-path="url(#pd8c022b80a)" style="stroke: #000000; stroke-linejoin: miter"/>
   </g>
   <g id="patch_168">
    <path d="M 87.05756 80.68554 
L 93.066578 80.68554 
L 93.066578 74.676522 
L 87.05756 74.676522 
z
" clip-path="url(#pd8c022b80a)" style="stroke: #000000; stroke-linejoin: miter"/>
   </g>
   <g id="patch_169">
    <path d="M 100.344747 80.643874 
L 106.270426 80.643874 
L 106.270426 74.718195 
L 100.344747 74.718195 
z
" clip-path="url(#pd8c022b80a)" style="stroke: #000000; stroke-linejoin: miter"/>
   </g>
   <g id="patch_170">
    <path d="M 113.626795 80.607343 
L 119.479418 80.607343 
L 119.479418 74.75472 
L 113.626795 74.75472 
z
" clip-path="url(#pd8c022b80a)" style="stroke: #000000; stroke-linejoin: miter"/>
   </g>
   <g id="patch_171">
    <path d="M 126.9058 80.573855 
L 132.691435 80.573855 
L 132.691435 74.78822 
L 126.9058 74.78822 
z
" clip-path="url(#pd8c022b80a)" style="stroke: #000000; stroke-linejoin: miter"/>
   </g>
   <g id="patch_172">
    <path d="M 140.220432 80.50474 
L 145.867837 80.50474 
L 145.867837 74.857335 
L 140.220432 74.857335 
z
" clip-path="url(#pd8c022b80a)" style="stroke: #000000; stroke-linejoin: miter"/>
   </g>
   <g id="patch_173">
    <path d="M 153.57898 80.39171 
L 159.000337 80.39171 
L 159.000337 74.970359 
L 153.57898 74.970359 
z
" clip-path="url(#pd8c022b80a)" style="stroke: #000000; stroke-linejoin: miter"/>
   </g>
   <g id="patch_174">
    <path d="M 166.936498 80.279715 
L 172.133859 80.279715 
L 172.133859 75.082354 
L 166.936498 75.082354 
z
" clip-path="url(#pd8c022b80a)" style="stroke: #000000; stroke-linejoin: miter"/>
   </g>
   <g id="patch_175">
    <path d="M 180.292987 80.168737 
L 185.268393 80.168737 
L 185.268393 75.193331 
L 180.292987 75.193331 
z
" clip-path="url(#pd8c022b80a)" style="stroke: #000000; stroke-linejoin: miter"/>
   </g>
   <g id="patch_176">
    <path d="M 193.639382 80.067859 
L 198.413031 80.067859 
L 198.413031 75.294204 
L 193.639382 75.294204 
z
" clip-path="url(#pd8c022b80a)" style="stroke: #000000; stroke-linejoin: miter"/>
   </g>
   <g id="patch_177">
    <path d="M 207.029573 79.923186 
L 211.513875 79.923186 
L 211.513875 75.438877 
L 207.029573 75.438877 
z
" clip-path="url(#pd8c022b80a)" style="stroke: #000000; stroke-linejoin: miter"/>
   </g>
   <g id="patch_178">
    <path d="M 220.421216 79.77706 
L 224.613267 79.77706 
L 224.613267 75.585009 
L 220.421216 75.585009 
z
" clip-path="url(#pd8c022b80a)" style="stroke: #000000; stroke-linejoin: miter"/>
   </g>
   <g id="patch_179">
    <path d="M 233.857349 79.586444 
L 237.668168 79.586444 
L 237.668168 75.775618 
L 233.857349 75.775618 
z
" clip-path="url(#pd8c022b80a)" style="stroke: #000000; stroke-linejoin: miter"/>
   </g>
   <g id="patch_180">
    <path d="M 247.238482 79.450834 
L 250.778082 79.450834 
L 250.778082 75.911241 
L 247.238482 75.911241 
z
" clip-path="url(#pd8c022b80a)" style="stroke: #000000; stroke-linejoin: miter"/>
   </g>
   <g id="patch_181">
    <path d="M 260.682131 79.252703 
L 263.825455 79.252703 
L 263.825455 76.109372 
L 260.682131 76.109372 
z
" clip-path="url(#pd8c022b80a)" style="stroke: #000000; stroke-linejoin: miter"/>
   </g>
   <g id="patch_182">
    <path d="M 274.02115 79.159183 
L 276.977446 79.159183 
L 276.977446 76.202886 
L 274.02115 76.202886 
z
" clip-path="url(#pd8c022b80a)" style="stroke: #000000; stroke-linejoin: miter"/>
   </g>
   <g id="patch_183">
    <path d="M 287.580747 78.845103 
L 289.908883 78.845103 
L 289.908883 76.516966 
L 287.580747 76.516966 
z
" clip-path="url(#pd8c022b80a)" style="stroke: #000000; stroke-linejoin: miter"/>
   </g>
   <g id="patch_184">
    <path d="M 300.952356 78.719017 
L 303.028334 78.719017 
L 303.028334 76.643052 
L 300.952356 76.643052 
z
" clip-path="url(#pd8c022b80a)" style="stroke: #000000; stroke-linejoin: miter"/>
   </g>
   <g id="patch_185">
    <path d="M 314.43985 78.477041 
L 316.031874 78.477041 
L 316.031874 76.885022 
L 314.43985 76.885022 
z
" clip-path="url(#pd8c022b80a)" style="stroke: #000000; stroke-linejoin: miter"/>
   </g>
   <g id="patch_186">
    <path d="M 327.556724 78.605703 
L 329.40606 78.605703 
L 329.40606 76.756372 
L 327.556724 76.756372 
z
" clip-path="url(#pd8c022b80a)" style="stroke: #000000; stroke-linejoin: miter"/>
   </g>
   <g id="patch_187">
    <path d="M 340.75957 78.648361 
L 342.694223 78.648361 
L 342.694223 76.713714 
L 340.75957 76.713714 
z
" clip-path="url(#pd8c022b80a)" style="stroke: #000000; stroke-linejoin: miter"/>
   </g>
   <g id="patch_188">
    <path d="M 354.381544 78.271911 
L 355.563309 78.271911 
L 355.563309 77.090158 
L 354.381544 77.090158 
z
" clip-path="url(#pd8c022b80a)" style="stroke: #000000; stroke-linejoin: miter"/>
   </g>
   <g id="patch_189">
    <path d="M 367.579514 78.319445 
L 368.856348 78.319445 
L 368.856348 77.042624 
L 367.579514 77.042624 
z
" clip-path="url(#pd8c022b80a)" style="stroke: #000000; stroke-linejoin: miter"/>
   </g>
   <g id="patch_190">
    <path d="M 380.838396 78.306099 
L 382.088526 78.306099 
L 382.088526 77.055976 
L 380.838396 77.055976 
z
" clip-path="url(#pd8c022b80a)" style="stroke: #000000; stroke-linejoin: miter"/>
   </g>
   <g id="patch_191">
    <path d="M 394.193862 78.196126 
L 395.224044 78.196126 
L 395.224044 77.165937 
L 394.193862 77.165937 
z
" clip-path="url(#pd8c022b80a)" style="stroke: #000000; stroke-linejoin: miter"/>
   </g>
   <g id="patch_192">
    <path d="M 46.024544 68.736493 
L 54.626491 68.736493 
L 54.626491 60.134548 
L 46.024544 60.134548 
z
" clip-path="url(#pd8c022b80a)" style="stroke: #000000; stroke-linejoin: miter"/>
   </g>
   <g id="patch_193">
    <path d="M 60.386022 67.620533 
L 66.756047 67.620533 
L 66.756047 61.250508 
L 60.386022 61.250508 
z
" clip-path="url(#pd8c022b80a)" style="stroke: #000000; stroke-linejoin: miter"/>
   </g>
   <g id="patch_194">
    <path d="M 73.732553 67.519516 
L 79.90055 67.519516 
L 79.90055 61.351519 
L 73.732553 61.351519 
z
" clip-path="url(#pd8c022b80a)" style="stroke: #000000; stroke-linejoin: miter"/>
   </g>
   <g id="patch_195">
    <path d="M 86.962511 67.535072 
L 93.161624 67.535072 
L 93.161624 61.335956 
L 86.962511 61.335956 
z
" clip-path="url(#pd8c022b80a)" style="stroke: #000000; stroke-linejoin: miter"/>
   </g>
   <g id="patch_196">
    <path d="M 100.245103 67.497997 
L 106.370066 67.497997 
L 106.370066 61.373031 
L 100.245103 61.373031 
z
" clip-path="url(#pd8c022b80a)" style="stroke: #000000; stroke-linejoin: miter"/>
   </g>
   <g id="patch_197">
    <path d="M 113.516493 67.472127 
L 119.58972 67.472127 
L 119.58972 61.398901 
L 113.516493 61.398901 
z
" clip-path="url(#pd8c022b80a)" style="stroke: #000000; stroke-linejoin: miter"/>
   </g>
   <g id="patch_198">
    <path d="M 126.779575 67.454563 
L 132.817672 67.454563 
L 132.817672 61.416466 
L 126.779575 61.416466 
z
" clip-path="url(#pd8c022b80a)" style="stroke: #000000; stroke-linejoin: miter"/>
   </g>
   <g id="patch_199">
    <path d="M 140.090943 67.388712 
L 145.997327 67.388712 
L 145.997327 61.482328 
L 140.090943 61.482328 
z
" clip-path="url(#pd8c022b80a)" style="stroke: #000000; stroke-linejoin: miter"/>
   </g>
   <g id="patch_200">
    <path d="M 153.400081 67.325092 
L 159.17923 67.325092 
L 159.17923 61.545943 
L 153.400081 61.545943 
z
" clip-path="url(#pd8c022b80a)" style="stroke: #000000; stroke-linejoin: miter"/>
   </g>
   <g id="patch_201">
    <path d="M 166.735853 67.234843 
L 172.334505 67.234843 
L 172.334505 61.636191 
L 166.735853 61.636191 
z
" clip-path="url(#pd8c022b80a)" style="stroke: #000000; stroke-linejoin: miter"/>
   </g>
   <g id="patch_202">
    <path d="M 180.107727 67.10848 
L 185.453652 67.10848 
L 185.453652 61.762548 
L 180.107727 61.762548 
z
" clip-path="url(#pd8c022b80a)" style="stroke: #000000; stroke-linejoin: miter"/>
   </g>
   <g id="patch_203">
    <path d="M 193.524015 66.937709 
L 198.528399 66.937709 
L 198.528399 61.933319 
L 193.524015 61.933319 
z
" clip-path="url(#pd8c022b80a)" style="stroke: #000000; stroke-linejoin: miter"/>
   </g>
   <g id="patch_204">
    <path d="M 206.995189 66.712053 
L 211.54826 66.712053 
L 211.54826 62.158988 
L 206.995189 62.158988 
z
" clip-path="url(#pd8c022b80a)" style="stroke: #000000; stroke-linejoin: miter"/>
   </g>
   <g id="patch_205">
    <path d="M 220.395801 66.556958 
L 224.638682 66.556958 
L 224.638682 62.314076 
L 220.395801 62.314076 
z
" clip-path="url(#pd8c022b80a)" style="stroke: #000000; stroke-linejoin: miter"/>
   </g>
   <g id="patch_206">
    <path d="M 233.788644 66.409638 
L 237.736886 66.409638 
L 237.736886 62.461396 
L 233.788644 62.461396 
z
" clip-path="url(#pd8c022b80a)" style="stroke: #000000; stroke-linejoin: miter"/>
   </g>
   <g id="patch_207">
    <path d="M 247.21169 66.232103 
L 250.804862 66.232103 
L 250.804862 62.638925 
L 247.21169 62.638925 
z
" clip-path="url(#pd8c022b80a)" style="stroke: #000000; stroke-linejoin: miter"/>
   </g>
   <g id="patch_208">
    <path d="M 260.599543 66.089767 
L 263.908043 66.089767 
L 263.908043 62.781261 
L 260.599543 62.781261 
z
" clip-path="url(#pd8c022b80a)" style="stroke: #000000; stroke-linejoin: miter"/>
   </g>
   <g id="patch_209">
    <path d="M 273.890258 66.044576 
L 277.108363 66.044576 
L 277.108363 62.826458 
L 273.890258 62.826458 
z
" clip-path="url(#pd8c022b80a)" style="stroke: #000000; stroke-linejoin: miter"/>
   </g>
   <g id="patch_210">
    <path d="M 287.359309 65.821023 
L 290.130321 65.821023 
L 290.130321 63.050005 
L 287.359309 63.050005 
z
" clip-path="url(#pd8c022b80a)" style="stroke: #000000; stroke-linejoin: miter"/>
   </g>
   <g id="patch_211">
    <path d="M 300.645501 65.780361 
L 303.335188 65.780361 
L 303.335188 63.09068 
L 300.645501 63.09068 
z
" clip-path="url(#pd8c022b80a)" style="stroke: #000000; stroke-linejoin: miter"/>
   </g>
   <g id="patch_212">
    <path d="M 313.952081 65.719298 
L 316.519643 65.719298 
L 316.519643 63.151736 
L 313.952081 63.151736 
z
" clip-path="url(#pd8c022b80a)" style="stroke: #000000; stroke-linejoin: miter"/>
   </g>
   <g id="patch_213">
    <path d="M 327.502533 65.414377 
L 329.460251 65.414377 
L 329.460251 63.456664 
L 327.502533 63.456664 
z
" clip-path="url(#pd8c022b80a)" style="stroke: #000000; stroke-linejoin: miter"/>
   </g>
   <g id="patch_214">
    <path d="M 340.723645 65.438781 
L 342.730173 65.438781 
L 342.730173 63.432259 
L 340.723645 63.432259 
z
" clip-path="url(#pd8c022b80a)" style="stroke: #000000; stroke-linejoin: miter"/>
   </g>
   <g id="patch_215">
    <path d="M 354.152022 65.255909 
L 355.792806 65.255909 
L 355.792806 63.615132 
L 354.152022 63.615132 
z
" clip-path="url(#pd8c022b80a)" style="stroke: #000000; stroke-linejoin: miter"/>
   </g>
   <g id="patch_216">
    <path d="M 367.554857 65.098585 
L 368.881005 65.098585 
L 368.881005 63.772443 
L 367.554857 63.772443 
z
" clip-path="url(#pd8c022b80a)" style="stroke: #000000; stroke-linejoin: miter"/>
   </g>
   <g id="patch_217">
    <path d="M 380.772811 65.126161 
L 382.154085 65.126161 
L 382.154085 63.74488 
L 380.772811 63.74488 
z
" clip-path="url(#pd8c022b80a)" style="stroke: #000000; stroke-linejoin: miter"/>
   </g>
   <g id="patch_218">
    <path d="M 393.991018 65.153464 
L 395.426913 65.153464 
L 395.426913 63.717576 
L 393.991018 63.717576 
z
" clip-path="url(#pd8c022b80a)" style="stroke: #000000; stroke-linejoin: miter"/>
   </g>
   <g id="patch_219">
    <path d="M 45.420361 56.095154 
L 55.230673 56.095154 
L 55.230673 46.28484 
L 45.420361 46.28484 
z
" clip-path="url(#pd8c022b80a)" style="stroke: #000000; stroke-linejoin: miter"/>
   </g>
   <g id="patch_220">
    <path d="M 59.141216 55.619815 
L 68.000853 55.619815 
L 68.000853 46.760179 
L 59.141216 46.760179 
z
" clip-path="url(#pd8c022b80a)" style="stroke: #000000; stroke-linejoin: miter"/>
   </g>
   <g id="patch_221">
    <path d="M 72.604219 55.402331 
L 81.028883 55.402331 
L 81.028883 46.977662 
L 72.604219 46.977662 
z
" clip-path="url(#pd8c022b80a)" style="stroke: #000000; stroke-linejoin: miter"/>
   </g>
   <g id="patch_222">
    <path d="M 86.169309 55.082757 
L 93.954829 55.082757 
L 93.954829 47.297237 
L 86.169309 47.297237 
z
" clip-path="url(#pd8c022b80a)" style="stroke: #000000; stroke-linejoin: miter"/>
   </g>
   <g id="patch_223">
    <path d="M 99.800678 54.696909 
L 106.814495 54.696909 
L 106.814495 47.683091 
L 99.800678 47.683091 
z
" clip-path="url(#pd8c022b80a)" style="stroke: #000000; stroke-linejoin: miter"/>
   </g>
   <g id="patch_224">
    <path d="M 113.267493 54.47561 
L 119.838707 54.47561 
L 119.838707 47.90439 
L 113.267493 47.90439 
z
" clip-path="url(#pd8c022b80a)" style="stroke: #000000; stroke-linejoin: miter"/>
   </g>
   <g id="patch_225">
    <path d="M 126.507313 54.481307 
L 133.089928 54.481307 
L 133.089928 47.898693 
L 126.507313 47.898693 
z
" clip-path="url(#pd8c022b80a)" style="stroke: #000000; stroke-linejoin: miter"/>
   </g>
   <g id="patch_226">
    <path d="M 139.800592 54.433546 
L 146.287684 54.433546 
L 146.287684 47.946454 
L 139.800592 47.946454 
z
" clip-path="url(#pd8c022b80a)" style="stroke: #000000; stroke-linejoin: miter"/>
   </g>
   <g id="patch_227">
    <path d="M 153.033578 54.446077 
L 159.545732 54.446077 
L 159.545732 47.933923 
L 153.033578 47.933923 
z
" clip-path="url(#pd8c022b80a)" style="stroke: #000000; stroke-linejoin: miter"/>
   </g>
   <g id="patch_228">
    <path d="M 166.400337 54.324829 
L 172.669996 54.324829 
L 172.669996 48.055164 
L 166.400337 48.055164 
z
" clip-path="url(#pd8c022b80a)" style="stroke: #000000; stroke-linejoin: miter"/>
   </g>
   <g id="patch_229">
    <path d="M 179.759781 54.210909 
L 185.801586 54.210909 
L 185.801586 48.169104 
L 179.759781 48.169104 
z
" clip-path="url(#pd8c022b80a)" style="stroke: #000000; stroke-linejoin: miter"/>
   </g>
   <g id="patch_230">
    <path d="M 193.145866 54.070347 
L 198.90656 54.070347 
L 198.90656 48.309659 
L 193.145866 48.309659 
z
" clip-path="url(#pd8c022b80a)" style="stroke: #000000; stroke-linejoin: miter"/>
   </g>
   <g id="patch_231">
    <path d="M 206.54044 53.921278 
L 212.002996 53.921278 
L 212.002996 48.458716 
L 206.54044 48.458716 
z
" clip-path="url(#pd8c022b80a)" style="stroke: #000000; stroke-linejoin: miter"/>
   </g>
   <g id="patch_232">
    <path d="M 220.000485 53.706763 
L 225.03401 53.706763 
L 225.03401 48.673244 
L 220.000485 48.673244 
z
" clip-path="url(#pd8c022b80a)" style="stroke: #000000; stroke-linejoin: miter"/>
   </g>
   <g id="patch_233">
    <path d="M 233.523929 53.428835 
L 238.0016 53.428835 
L 238.0016 48.951171 
L 233.523929 48.951171 
z
" clip-path="url(#pd8c022b80a)" style="stroke: #000000; stroke-linejoin: miter"/>
   </g>
   <g id="patch_234">
    <path d="M 246.906516 53.291767 
L 251.110049 53.291767 
L 251.110049 49.08824 
L 246.906516 49.08824 
z
" clip-path="url(#pd8c022b80a)" style="stroke: #000000; stroke-linejoin: miter"/>
   </g>
   <g id="patch_235">
    <path d="M 260.545428 52.898365 
L 263.962158 52.898365 
L 263.962158 49.481635 
L 260.545428 49.481635 
z
" clip-path="url(#pd8c022b80a)" style="stroke: #000000; stroke-linejoin: miter"/>
   </g>
   <g id="patch_236">
    <path d="M 274.086002 52.603315 
L 276.912619 52.603315 
L 276.912619 49.776691 
L 274.086002 49.776691 
z
" clip-path="url(#pd8c022b80a)" style="stroke: #000000; stroke-linejoin: miter"/>
   </g>
   <g id="patch_237">
    <path d="M 287.602878 52.33195 
L 289.886777 52.33195 
L 289.886777 50.04805 
L 287.602878 50.04805 
z
" clip-path="url(#pd8c022b80a)" style="stroke: #000000; stroke-linejoin: miter"/>
   </g>
   <g id="patch_238">
    <path d="M 301.039693 52.140659 
L 302.941022 52.140659 
L 302.941022 50.239335 
L 301.039693 50.239335 
z
" clip-path="url(#pd8c022b80a)" style="stroke: #000000; stroke-linejoin: miter"/>
   </g>
   <g id="patch_239">
    <path d="M 314.283719 52.142155 
L 316.18803 52.142155 
L 316.18803 50.237845 
L 314.283719 50.237845 
z
" clip-path="url(#pd8c022b80a)" style="stroke: #000000; stroke-linejoin: miter"/>
   </g>
   <g id="patch_240">
    <path d="M 326.806338 52.865035 
L 330.156396 52.865035 
L 330.156396 49.514971 
L 326.806338 49.514971 
z
" clip-path="url(#pd8c022b80a)" style="stroke: #000000; stroke-linejoin: miter"/>
   </g>
   <g id="patch_241">
    <path d="M 340.156826 52.760071 
L 343.296967 52.760071 
L 343.296967 49.619929 
L 340.156826 49.619929 
z
" clip-path="url(#pd8c022b80a)" style="stroke: #000000; stroke-linejoin: miter"/>
   </g>
   <g id="patch_242">
    <path d="M 354.155761 52.006659 
L 355.789092 52.006659 
L 355.789092 50.373334 
L 354.155761 50.373334 
z
" clip-path="url(#pd8c022b80a)" style="stroke: #000000; stroke-linejoin: miter"/>
   </g>
   <g id="patch_243">
    <path d="M 367.689311 51.718614 
L 368.746551 51.718614 
L 368.746551 50.66138 
L 367.689311 50.66138 
z
" clip-path="url(#pd8c022b80a)" style="stroke: #000000; stroke-linejoin: miter"/>
   </g>
   <g id="patch_244">
    <path d="M 380.39297 52.260485 
L 382.533952 52.260485 
L 382.533952 50.119509 
L 380.39297 50.119509 
z
" clip-path="url(#pd8c022b80a)" style="stroke: #000000; stroke-linejoin: miter"/>
   </g>
   <g id="patch_245">
    <path d="M 393.658193 52.240779 
L 395.759764 52.240779 
L 395.759764 50.139215 
L 393.658193 50.139215 
z
" clip-path="url(#pd8c022b80a)" style="stroke: #000000; stroke-linejoin: miter"/>
   </g>
   <g id="matplotlib.axis_1">
    <g id="xtick_1">
     <g id="line2d_1">
      <defs>
       <path id="m99b012d24f" d="M 0 0 
L 0 3.5 
" style="stroke: #000000; stroke-width: 0.8"/>
      </defs>
      <g>
       <use xlink:href="#m99b012d24f" x="50.325517" y="170.399655" style="stroke: #000000; stroke-width: 0.8"/>
      </g>
     </g>
     <g id="text_1">
      <!-- 1 -->
      <g transform="translate(47.144267 191.498093) scale(0.1 -0.1)">
       <defs>
        <path id="DejaVuSans-31" d="M 794 531 
L 1825 531 
L 1825 4091 
L 703 3866 
L 703 4441 
L 1819 4666 
L 2450 4666 
L 2450 531 
L 3481 531 
L 3481 0 
L 794 0 
L 794 531 
z
" transform="scale(0.015625)"/>
       </defs>
       <use xlink:href="#DejaVuSans-31"/>
      </g>
     </g>
    </g>
    <g id="xtick_2">
     <g id="line2d_2">
      <g>
       <use xlink:href="#m99b012d24f" x="394.708966" y="170.399655" style="stroke: #000000; stroke-width: 0.8"/>
      </g>
     </g>
     <g id="text_2">
      <!-- 200 -->
      <g transform="translate(385.165216 191.498093) scale(0.1 -0.1)">
       <defs>
        <path id="DejaVuSans-32" d="M 1228 531 
L 3431 531 
L 3431 0 
L 469 0 
L 469 531 
Q 828 903 1448 1529 
Q 2069 2156 2228 2338 
Q 2531 2678 2651 2914 
Q 2772 3150 2772 3378 
Q 2772 3750 2511 3984 
Q 2250 4219 1831 4219 
Q 1534 4219 1204 4116 
Q 875 4013 500 3803 
L 500 4441 
Q 881 4594 1212 4672 
Q 1544 4750 1819 4750 
Q 2544 4750 2975 4387 
Q 3406 4025 3406 3419 
Q 3406 3131 3298 2873 
Q 3191 2616 2906 2266 
Q 2828 2175 2409 1742 
Q 1991 1309 1228 531 
z
" transform="scale(0.015625)"/>
        <path id="DejaVuSans-30" d="M 2034 4250 
Q 1547 4250 1301 3770 
Q 1056 3291 1056 2328 
Q 1056 1369 1301 889 
Q 1547 409 2034 409 
Q 2525 409 2770 889 
Q 3016 1369 3016 2328 
Q 3016 3291 2770 3770 
Q 2525 4250 2034 4250 
z
M 2034 4750 
Q 2819 4750 3233 4129 
Q 3647 3509 3647 2328 
Q 3647 1150 3233 529 
Q 2819 -91 2034 -91 
Q 1250 -91 836 529 
Q 422 1150 422 2328 
Q 422 3509 836 4129 
Q 1250 4750 2034 4750 
z
" transform="scale(0.015625)"/>
       </defs>
       <use xlink:href="#DejaVuSans-32"/>
       <use xlink:href="#DejaVuSans-30" x="63.623047"/>
       <use xlink:href="#DejaVuSans-30" x="127.246094"/>
      </g>
     </g>
    </g>
    <g id="text_3">
     <!-- Epoch -->
     <g transform="translate(213.829062 205.176218) scale(0.1 -0.1)">
      <defs>
       <path id="DejaVuSans-45" d="M 628 4666 
L 3578 4666 
L 3578 4134 
L 1259 4134 
L 1259 2753 
L 3481 2753 
L 3481 2222 
L 1259 2222 
L 1259 531 
L 3634 531 
L 3634 0 
L 628 0 
L 628 4666 
z
" transform="scale(0.015625)"/>
       <path id="DejaVuSans-70" d="M 1159 525 
L 1159 -1331 
L 581 -1331 
L 581 3500 
L 1159 3500 
L 1159 2969 
Q 1341 3281 1617 3432 
Q 1894 3584 2278 3584 
Q 2916 3584 3314 3078 
Q 3713 2572 3713 1747 
Q 3713 922 3314 415 
Q 2916 -91 2278 -91 
Q 1894 -91 1617 61 
Q 1341 213 1159 525 
z
M 3116 1747 
Q 3116 2381 2855 2742 
Q 2594 3103 2138 3103 
Q 1681 3103 1420 2742 
Q 1159 2381 1159 1747 
Q 1159 1113 1420 752 
Q 1681 391 2138 391 
Q 2594 391 2855 752 
Q 3116 1113 3116 1747 
z
" transform="scale(0.015625)"/>
       <path id="DejaVuSans-6f" d="M 1959 3097 
Q 1497 3097 1228 2736 
Q 959 2375 959 1747 
Q 959 1119 1226 758 
Q 1494 397 1959 397 
Q 2419 397 2687 759 
Q 2956 1122 2956 1747 
Q 2956 2369 2687 2733 
Q 2419 3097 1959 3097 
z
M 1959 3584 
Q 2709 3584 3137 3096 
Q 3566 2609 3566 1747 
Q 3566 888 3137 398 
Q 2709 -91 1959 -91 
Q 1206 -91 779 398 
Q 353 888 353 1747 
Q 353 2609 779 3096 
Q 1206 3584 1959 3584 
z
" transform="scale(0.015625)"/>
       <path id="DejaVuSans-63" d="M 3122 3366 
L 3122 2828 
Q 2878 2963 2633 3030 
Q 2388 3097 2138 3097 
Q 1578 3097 1268 2742 
Q 959 2388 959 1747 
Q 959 1106 1268 751 
Q 1578 397 2138 397 
Q 2388 397 2633 464 
Q 2878 531 3122 666 
L 3122 134 
Q 2881 22 2623 -34 
Q 2366 -91 2075 -91 
Q 1284 -91 818 406 
Q 353 903 353 1747 
Q 353 2603 823 3093 
Q 1294 3584 2113 3584 
Q 2378 3584 2631 3529 
Q 2884 3475 3122 3366 
z
" transform="scale(0.015625)"/>
       <path id="DejaVuSans-68" d="M 3513 2113 
L 3513 0 
L 2938 0 
L 2938 2094 
Q 2938 2591 2744 2837 
Q 2550 3084 2163 3084 
Q 1697 3084 1428 2787 
Q 1159 2491 1159 1978 
L 1159 0 
L 581 0 
L 581 4863 
L 1159 4863 
L 1159 2956 
Q 1366 3272 1645 3428 
Q 1925 3584 2291 3584 
Q 2894 3584 3203 3211 
Q 3513 2838 3513 2113 
z
" transform="scale(0.015625)"/>
      </defs>
      <use xlink:href="#DejaVuSans-45"/>
      <use xlink:href="#DejaVuSans-70" x="63.183594"/>
      <use xlink:href="#DejaVuSans-6f" x="126.660156"/>
      <use xlink:href="#DejaVuSans-63" x="187.841797"/>
      <use xlink:href="#DejaVuSans-68" x="242.822266"/>
     </g>
    </g>
   </g>
   <g id="matplotlib.axis_2">
    <g id="ytick_1">
     <g id="line2d_3">
      <defs>
       <path id="m75a72e0ec4" d="M 0 0 
L -3.5 0 
" style="stroke: #000000; stroke-width: 0.8"/>
      </defs>
      <g>
       <use xlink:href="#m75a72e0ec4" x="37.08" y="157.154138" style="stroke: #000000; stroke-width: 0.8"/>
      </g>
     </g>
     <g id="text_4">
      <!-- 2 -->
      <g transform="translate(17.2175 160.953357) scale(0.1 -0.1)">
       <use xlink:href="#DejaVuSans-32"/>
      </g>
     </g>
    </g>
    <g id="ytick_2">
     <g id="line2d_4">
      <g>
       <use xlink:href="#m75a72e0ec4" x="37.08" y="143.908621" style="stroke: #000000; stroke-width: 0.8"/>
      </g>
     </g>
     <g id="text_5">
      <!-- 3 -->
      <g transform="translate(17.2175 147.707839) scale(0.1 -0.1)">
       <defs>
        <path id="DejaVuSans-33" d="M 2597 2516 
Q 3050 2419 3304 2112 
Q 3559 1806 3559 1356 
Q 3559 666 3084 287 
Q 2609 -91 1734 -91 
Q 1441 -91 1130 -33 
Q 819 25 488 141 
L 488 750 
Q 750 597 1062 519 
Q 1375 441 1716 441 
Q 2309 441 2620 675 
Q 2931 909 2931 1356 
Q 2931 1769 2642 2001 
Q 2353 2234 1838 2234 
L 1294 2234 
L 1294 2753 
L 1863 2753 
Q 2328 2753 2575 2939 
Q 2822 3125 2822 3475 
Q 2822 3834 2567 4026 
Q 2313 4219 1838 4219 
Q 1578 4219 1281 4162 
Q 984 4106 628 3988 
L 628 4550 
Q 988 4650 1302 4700 
Q 1616 4750 1894 4750 
Q 2613 4750 3031 4423 
Q 3450 4097 3450 3541 
Q 3450 3153 3228 2886 
Q 3006 2619 2597 2516 
z
" transform="scale(0.015625)"/>
       </defs>
       <use xlink:href="#DejaVuSans-33"/>
      </g>
     </g>
    </g>
    <g id="ytick_3">
     <g id="line2d_5">
      <g>
       <use xlink:href="#m75a72e0ec4" x="37.08" y="130.663103" style="stroke: #000000; stroke-width: 0.8"/>
      </g>
     </g>
     <g id="text_6">
      <!-- 5 -->
      <g transform="translate(17.2175 134.462322) scale(0.1 -0.1)">
       <defs>
        <path id="DejaVuSans-35" d="M 691 4666 
L 3169 4666 
L 3169 4134 
L 1269 4134 
L 1269 2991 
Q 1406 3038 1543 3061 
Q 1681 3084 1819 3084 
Q 2600 3084 3056 2656 
Q 3513 2228 3513 1497 
Q 3513 744 3044 326 
Q 2575 -91 1722 -91 
Q 1428 -91 1123 -41 
Q 819 9 494 109 
L 494 744 
Q 775 591 1075 516 
Q 1375 441 1709 441 
Q 2250 441 2565 725 
Q 2881 1009 2881 1497 
Q 2881 1984 2565 2268 
Q 2250 2553 1709 2553 
Q 1456 2553 1204 2497 
Q 953 2441 691 2322 
L 691 4666 
z
" transform="scale(0.015625)"/>
       </defs>
       <use xlink:href="#DejaVuSans-35"/>
      </g>
     </g>
    </g>
    <g id="ytick_4">
     <g id="line2d_6">
      <g>
       <use xlink:href="#m75a72e0ec4" x="37.08" y="117.417586" style="stroke: #000000; stroke-width: 0.8"/>
      </g>
     </g>
     <g id="text_7">
      <!-- 7 -->
      <g transform="translate(17.2175 121.216805) scale(0.1 -0.1)">
       <defs>
        <path id="DejaVuSans-37" d="M 525 4666 
L 3525 4666 
L 3525 4397 
L 1831 0 
L 1172 0 
L 2766 4134 
L 525 4134 
L 525 4666 
z
" transform="scale(0.015625)"/>
       </defs>
       <use xlink:href="#DejaVuSans-37"/>
      </g>
     </g>
    </g>
    <g id="ytick_5">
     <g id="line2d_7">
      <g>
       <use xlink:href="#m75a72e0ec4" x="37.08" y="104.172069" style="stroke: #000000; stroke-width: 0.8"/>
      </g>
     </g>
     <g id="text_8">
      <!-- 11 -->
      <g transform="translate(10.855 107.971288) scale(0.1 -0.1)">
       <use xlink:href="#DejaVuSans-31"/>
       <use xlink:href="#DejaVuSans-31" x="63.623047"/>
      </g>
     </g>
    </g>
    <g id="ytick_6">
     <g id="line2d_8">
      <g>
       <use xlink:href="#m75a72e0ec4" x="37.08" y="90.926552" style="stroke: #000000; stroke-width: 0.8"/>
      </g>
     </g>
     <g id="text_9">
      <!-- 13 -->
      <g transform="translate(10.855 94.72577) scale(0.1 -0.1)">
       <use xlink:href="#DejaVuSans-31"/>
       <use xlink:href="#DejaVuSans-33" x="63.623047"/>
      </g>
     </g>
    </g>
    <g id="ytick_7">
     <g id="line2d_9">
      <g>
       <use xlink:href="#m75a72e0ec4" x="37.08" y="77.681034" style="stroke: #000000; stroke-width: 0.8"/>
      </g>
     </g>
     <g id="text_10">
      <!-- 17 -->
      <g transform="translate(10.855 81.480253) scale(0.1 -0.1)">
       <use xlink:href="#DejaVuSans-31"/>
       <use xlink:href="#DejaVuSans-37" x="63.623047"/>
      </g>
     </g>
    </g>
    <g id="ytick_8">
     <g id="line2d_10">
      <g>
       <use xlink:href="#m75a72e0ec4" x="37.08" y="64.435517" style="stroke: #000000; stroke-width: 0.8"/>
      </g>
     </g>
     <g id="text_11">
      <!-- 19 -->
      <g transform="translate(10.855 68.234736) scale(0.1 -0.1)">
       <defs>
        <path id="DejaVuSans-39" d="M 703 97 
L 703 672 
Q 941 559 1184 500 
Q 1428 441 1663 441 
Q 2288 441 2617 861 
Q 2947 1281 2994 2138 
Q 2813 1869 2534 1725 
Q 2256 1581 1919 1581 
Q 1219 1581 811 2004 
Q 403 2428 403 3163 
Q 403 3881 828 4315 
Q 1253 4750 1959 4750 
Q 2769 4750 3195 4129 
Q 3622 3509 3622 2328 
Q 3622 1225 3098 567 
Q 2575 -91 1691 -91 
Q 1453 -91 1209 -44 
Q 966 3 703 97 
z
M 1959 2075 
Q 2384 2075 2632 2365 
Q 2881 2656 2881 3163 
Q 2881 3666 2632 3958 
Q 2384 4250 1959 4250 
Q 1534 4250 1286 3958 
Q 1038 3666 1038 3163 
Q 1038 2656 1286 2365 
Q 1534 2075 1959 2075 
z
" transform="scale(0.015625)"/>
       </defs>
       <use xlink:href="#DejaVuSans-31"/>
       <use xlink:href="#DejaVuSans-39" x="63.623047"/>
      </g>
     </g>
    </g>
    <g id="ytick_9">
     <g id="line2d_11">
      <g>
       <use xlink:href="#m75a72e0ec4" x="37.08" y="51.19" style="stroke: #000000; stroke-width: 0.8"/>
      </g>
     </g>
     <g id="text_12">
      <!--  -->
      <g transform="translate(16.5675 54.989219) scale(0.1 -0.1)">
       <defs>
        <path id="DejaVuSans-2119" d="M 938 4353 
L 938 313 
L 1569 313 
L 1569 4353 
L 938 4353 
z
M 1881 4353 
L 1881 2284 
L 2825 2284 
Q 2900 2284 2972 2291 
L 2972 4347 
Q 2900 4353 2825 4353 
L 1881 4353 
z
M 625 4666 
L 2678 4666 
Q 3459 4666 3861 4323 
Q 4263 3981 4263 3322 
Q 4263 2656 3861 2315 
Q 3459 1975 2675 1975 
L 1881 1975 
L 1881 0 
L 625 0 
L 625 4666 
z
M 3300 4281 
L 3300 2359 
Q 3488 2428 3628 2556 
Q 3919 2825 3919 3322 
Q 3919 3816 3631 4084 
Q 3494 4213 3300 4281 
z
" transform="scale(0.015625)"/>
       </defs>
       <use xlink:href="#DejaVuSans-2119"/>
      </g>
     </g>
    </g>
   </g>
  </g>
 </g>
 <defs>
  <clipPath id="pd8c022b80a">
   <rect x="37.08" y="24.698966" width="384.12" height="145.70069"/>
  </clipPath>
 </defs>
</svg>
