<?xml version="1.0" encoding="utf-8" standalone="no"?>
<!DOCTYPE svg PUBLIC "-//W3C//DTD SVG 1.1//EN"
  "http://www.w3.org/Graphics/SVG/1.1/DTD/svg11.dtd">
<svg xmlns:xlink="http://www.w3.org/1999/xlink" width="864pt" height="360pt" viewBox="0 0 864 360" xmlns="http://www.w3.org/2000/svg" version="1.1">
 <metadata>
  <rdf:RDF xmlns:dc="http://purl.org/dc/elements/1.1/" xmlns:cc="http://creativecommons.org/ns#" xmlns:rdf="http://www.w3.org/1999/02/22-rdf-syntax-ns#">
   <cc:Work>
    <dc:type rdf:resource="http://purl.org/dc/dcmitype/StillImage"/>
    <dc:date>2024-09-16T23:43:32.360273</dc:date>
    <dc:format>image/svg+xml</dc:format>
    <dc:creator>
     <cc:Agent>
      <dc:title>Matplotlib v3.9.2, https://matplotlib.org/</dc:title>
     </cc:Agent>
    </dc:creator>
   </cc:Work>
  </rdf:RDF>
 </metadata>
 <defs>
  <style type="text/css">*{stroke-linejoin: round; stroke-linecap: butt}</style>
 </defs>
 <g id="figure_1">
  <g id="patch_1">
   <path d="M 0 360 
L 864 360 
L 864 0 
L 0 0 
z
" style="fill: #ffffff"/>
  </g>
  <g id="axes_1">
   <g id="patch_2">
    <path d="M 36.36 328.931379 
L 853.2 328.931379 
L 853.2 19.095517 
L 36.36 19.095517 
z
" style="fill: #ffffff"/>
   </g>
   <g id="patch_3">
    <path d="M 57.917104 307.374275 
L 71.136689 307.374275 
L 71.136689 294.15469 
L 57.917104 294.15469 
z
" clip-path="url(#p9c4be2dea2)" style="stroke: #000000; stroke-linejoin: miter"/>
   </g>
   <g id="patch_4">
    <path d="M 86.157268 307.301008 
L 99.230319 307.301008 
L 99.230319 294.227957 
L 86.157268 294.227957 
z
" clip-path="url(#p9c4be2dea2)" style="stroke: #000000; stroke-linejoin: miter"/>
   </g>
   <g id="patch_5">
    <path d="M 114.095425 307.529747 
L 127.625954 307.529747 
L 127.625954 293.999218 
L 114.095425 293.999218 
z
" clip-path="url(#p9c4be2dea2)" style="stroke: #000000; stroke-linejoin: miter"/>
   </g>
   <g id="patch_6">
    <path d="M 142.403107 307.388962 
L 155.652066 307.388962 
L 155.652066 294.140003 
L 142.403107 294.140003 
z
" clip-path="url(#p9c4be2dea2)" style="stroke: #000000; stroke-linejoin: miter"/>
   </g>
   <g id="patch_7">
    <path d="M 170.509474 307.449492 
L 183.879492 307.449492 
L 183.879492 294.079474 
L 170.509474 294.079474 
z
" clip-path="url(#p9c4be2dea2)" style="stroke: #000000; stroke-linejoin: miter"/>
   </g>
   <g id="patch_8">
    <path d="M 198.771154 307.354708 
L 211.951605 307.354708 
L 211.951605 294.174258 
L 198.771154 294.174258 
z
" clip-path="url(#p9c4be2dea2)" style="stroke: #000000; stroke-linejoin: miter"/>
   </g>
   <g id="patch_9">
    <path d="M 226.99416 307.298599 
L 240.062392 307.298599 
L 240.062392 294.230367 
L 226.99416 294.230367 
z
" clip-path="url(#p9c4be2dea2)" style="stroke: #000000; stroke-linejoin: miter"/>
   </g>
   <g id="patch_10">
    <path d="M 255.124008 307.335647 
L 268.266337 307.335647 
L 268.266337 294.193318 
L 255.124008 294.193318 
z
" clip-path="url(#p9c4be2dea2)" style="stroke: #000000; stroke-linejoin: miter"/>
   </g>
   <g id="patch_11">
    <path d="M 283.306026 307.320526 
L 296.418112 307.320526 
L 296.418112 294.20844 
L 283.306026 294.20844 
z
" clip-path="url(#p9c4be2dea2)" style="stroke: #000000; stroke-linejoin: miter"/>
   </g>
   <g id="patch_12">
    <path d="M 311.477987 307.315461 
L 324.579944 307.315461 
L 324.579944 294.213504 
L 311.477987 294.213504 
z
" clip-path="url(#p9c4be2dea2)" style="stroke: #000000; stroke-linejoin: miter"/>
   </g>
   <g id="patch_13">
    <path d="M 339.50569 307.454655 
L 352.886034 307.454655 
L 352.886034 294.074311 
L 339.50569 294.074311 
z
" clip-path="url(#p9c4be2dea2)" style="stroke: #000000; stroke-linejoin: miter"/>
   </g>
   <g id="patch_14">
    <path d="M 367.985062 307.142179 
L 380.740455 307.142179 
L 380.740455 294.386786 
L 367.985062 294.386786 
z
" clip-path="url(#p9c4be2dea2)" style="stroke: #000000; stroke-linejoin: miter"/>
   </g>
   <g id="patch_15">
    <path d="M 395.743276 307.550862 
L 409.316035 307.550862 
L 409.316035 293.978103 
L 395.743276 293.978103 
z
" clip-path="url(#p9c4be2dea2)" style="stroke: #000000; stroke-linejoin: miter"/>
   </g>
   <g id="patch_16">
    <path d="M 423.905203 307.555832 
L 437.487901 307.555832 
L 437.487901 293.973134 
L 423.905203 293.973134 
z
" clip-path="url(#p9c4be2dea2)" style="stroke: #000000; stroke-linejoin: miter"/>
   </g>
   <g id="patch_17">
    <path d="M 452.355085 307.272846 
L 465.371812 307.272846 
L 465.371812 294.256119 
L 452.355085 294.256119 
z
" clip-path="url(#p9c4be2dea2)" style="stroke: #000000; stroke-linejoin: miter"/>
   </g>
   <g id="patch_18">
    <path d="M 480.58786 307.206968 
L 493.47283 307.206968 
L 493.47283 294.321998 
L 480.58786 294.321998 
z
" clip-path="url(#p9c4be2dea2)" style="stroke: #000000; stroke-linejoin: miter"/>
   </g>
   <g id="patch_19">
    <path d="M 508.55447 307.407254 
L 521.840013 307.407254 
L 521.840013 294.121712 
L 508.55447 294.121712 
z
" clip-path="url(#p9c4be2dea2)" style="stroke: #000000; stroke-linejoin: miter"/>
   </g>
   <g id="patch_20">
    <path d="M 536.663995 307.464626 
L 550.064281 307.464626 
L 550.064281 294.064339 
L 536.663995 294.064339 
z
" clip-path="url(#p9c4be2dea2)" style="stroke: #000000; stroke-linejoin: miter"/>
   </g>
   <g id="patch_21">
    <path d="M 565.135982 307.159535 
L 577.926087 307.159535 
L 577.926087 294.36943 
L 565.135982 294.36943 
z
" clip-path="url(#p9c4be2dea2)" style="stroke: #000000; stroke-linejoin: miter"/>
   </g>
   <g id="patch_22">
    <path d="M 593.226832 307.235581 
L 606.16903 307.235581 
L 606.16903 294.293384 
L 593.226832 294.293384 
z
" clip-path="url(#p9c4be2dea2)" style="stroke: #000000; stroke-linejoin: miter"/>
   </g>
   <g id="patch_23">
    <path d="M 621.288398 307.340912 
L 634.441257 307.340912 
L 634.441257 294.188053 
L 621.288398 294.188053 
z
" clip-path="url(#p9c4be2dea2)" style="stroke: #000000; stroke-linejoin: miter"/>
   </g>
   <g id="patch_24">
    <path d="M 649.431385 307.364822 
L 662.632063 307.364822 
L 662.632063 294.164144 
L 649.431385 294.164144 
z
" clip-path="url(#p9c4be2dea2)" style="stroke: #000000; stroke-linejoin: miter"/>
   </g>
   <g id="patch_25">
    <path d="M 677.788124 307.174979 
L 690.609117 307.174979 
L 690.609117 294.353986 
L 677.788124 294.353986 
z
" clip-path="url(#p9c4be2dea2)" style="stroke: #000000; stroke-linejoin: miter"/>
   </g>
   <g id="patch_26">
    <path d="M 705.759599 307.370401 
L 718.971435 307.370401 
L 718.971435 294.158565 
L 705.759599 294.158565 
z
" clip-path="url(#p9c4be2dea2)" style="stroke: #000000; stroke-linejoin: miter"/>
   </g>
   <g id="patch_27">
    <path d="M 734.025179 307.271717 
L 747.039648 307.271717 
L 747.039648 294.257248 
L 734.025179 294.257248 
z
" clip-path="url(#p9c4be2dea2)" style="stroke: #000000; stroke-linejoin: miter"/>
   </g>
   <g id="patch_28">
    <path d="M 762.126104 307.337689 
L 775.272517 307.337689 
L 775.272517 294.191276 
L 762.126104 294.191276 
z
" clip-path="url(#p9c4be2dea2)" style="stroke: #000000; stroke-linejoin: miter"/>
   </g>
   <g id="patch_29">
    <path d="M 790.407912 307.222778 
L 803.324502 307.222778 
L 803.324502 294.306188 
L 790.407912 294.306188 
z
" clip-path="url(#p9c4be2dea2)" style="stroke: #000000; stroke-linejoin: miter"/>
   </g>
   <g id="patch_30">
    <path d="M 58.506058 278.618425 
L 70.547735 278.618425 
L 70.547735 266.576748 
L 58.506058 266.576748 
z
" clip-path="url(#p9c4be2dea2)" style="stroke: #000000; stroke-linejoin: miter"/>
   </g>
   <g id="patch_31">
    <path d="M 86.8521 278.439279 
L 98.535486 278.439279 
L 98.535486 266.755893 
L 86.8521 266.755893 
z
" clip-path="url(#p9c4be2dea2)" style="stroke: #000000; stroke-linejoin: miter"/>
   </g>
   <g id="patch_32">
    <path d="M 115.001448 278.456828 
L 126.719931 278.456828 
L 126.719931 266.738345 
L 115.001448 266.738345 
z
" clip-path="url(#p9c4be2dea2)" style="stroke: #000000; stroke-linejoin: miter"/>
   </g>
   <g id="patch_33">
    <path d="M 143.172942 278.452231 
L 154.882231 278.452231 
L 154.882231 266.742942 
L 143.172942 266.742942 
z
" clip-path="url(#p9c4be2dea2)" style="stroke: #000000; stroke-linejoin: miter"/>
   </g>
   <g id="patch_34">
    <path d="M 171.385353 278.406716 
L 183.003613 278.406716 
L 183.003613 266.788456 
L 171.385353 266.788456 
z
" clip-path="url(#p9c4be2dea2)" style="stroke: #000000; stroke-linejoin: miter"/>
   </g>
   <g id="patch_35">
    <path d="M 199.513567 278.445399 
L 211.209192 278.445399 
L 211.209192 266.749773 
L 199.513567 266.749773 
z
" clip-path="url(#p9c4be2dea2)" style="stroke: #000000; stroke-linejoin: miter"/>
   </g>
   <g id="patch_36">
    <path d="M 227.682445 278.443417 
L 239.374106 278.443417 
L 239.374106 266.751756 
L 227.682445 266.751756 
z
" clip-path="url(#p9c4be2dea2)" style="stroke: #000000; stroke-linejoin: miter"/>
   </g>
   <g id="patch_37">
    <path d="M 255.763697 278.529062 
L 267.626648 278.529062 
L 267.626648 266.666111 
L 255.763697 266.666111 
z
" clip-path="url(#p9c4be2dea2)" style="stroke: #000000; stroke-linejoin: miter"/>
   </g>
   <g id="patch_38">
    <path d="M 284.075194 278.384461 
L 295.648944 278.384461 
L 295.648944 266.810712 
L 284.075194 266.810712 
z
" clip-path="url(#p9c4be2dea2)" style="stroke: #000000; stroke-linejoin: miter"/>
   </g>
   <g id="patch_39">
    <path d="M 312.170713 278.455839 
L 323.887218 278.455839 
L 323.887218 266.739333 
L 312.170713 266.739333 
z
" clip-path="url(#p9c4be2dea2)" style="stroke: #000000; stroke-linejoin: miter"/>
   </g>
   <g id="patch_40">
    <path d="M 340.407641 278.385808 
L 351.984084 278.385808 
L 351.984084 266.809365 
L 340.407641 266.809365 
z
" clip-path="url(#p9c4be2dea2)" style="stroke: #000000; stroke-linejoin: miter"/>
   </g>
   <g id="patch_41">
    <path d="M 368.531624 278.428721 
L 380.193893 278.428721 
L 380.193893 266.766451 
L 368.531624 266.766451 
z
" clip-path="url(#p9c4be2dea2)" style="stroke: #000000; stroke-linejoin: miter"/>
   </g>
   <g id="patch_42">
    <path d="M 396.760114 278.367127 
L 408.299196 278.367127 
L 408.299196 266.828045 
L 396.760114 266.828045 
z
" clip-path="url(#p9c4be2dea2)" style="stroke: #000000; stroke-linejoin: miter"/>
   </g>
   <g id="patch_43">
    <path d="M 424.904531 278.389607 
L 436.488572 278.389607 
L 436.488572 266.805566 
L 424.904531 266.805566 
z
" clip-path="url(#p9c4be2dea2)" style="stroke: #000000; stroke-linejoin: miter"/>
   </g>
   <g id="patch_44">
    <path d="M 453.059352 278.401682 
L 464.667544 278.401682 
L 464.667544 266.79349 
L 453.059352 266.79349 
z
" clip-path="url(#p9c4be2dea2)" style="stroke: #000000; stroke-linejoin: miter"/>
   </g>
   <g id="patch_45">
    <path d="M 481.217132 278.410799 
L 492.843558 278.410799 
L 492.843558 266.784373 
L 481.217132 266.784373 
z
" clip-path="url(#p9c4be2dea2)" style="stroke: #000000; stroke-linejoin: miter"/>
   </g>
   <g id="patch_46">
    <path d="M 509.463551 278.331276 
L 520.930932 278.331276 
L 520.930932 266.863896 
L 509.463551 266.863896 
z
" clip-path="url(#p9c4be2dea2)" style="stroke: #000000; stroke-linejoin: miter"/>
   </g>
   <g id="patch_47">
    <path d="M 537.549065 278.412659 
L 549.179211 278.412659 
L 549.179211 266.782514 
L 537.549065 266.782514 
z
" clip-path="url(#p9c4be2dea2)" style="stroke: #000000; stroke-linejoin: miter"/>
   </g>
   <g id="patch_48">
    <path d="M 565.801043 278.327577 
L 577.261026 278.327577 
L 577.261026 266.867595 
L 565.801043 266.867595 
z
" clip-path="url(#p9c4be2dea2)" style="stroke: #000000; stroke-linejoin: miter"/>
   </g>
   <g id="patch_49">
    <path d="M 593.873937 278.42158 
L 605.521925 278.42158 
L 605.521925 266.773592 
L 593.873937 266.773592 
z
" clip-path="url(#p9c4be2dea2)" style="stroke: #000000; stroke-linejoin: miter"/>
   </g>
   <g id="patch_50">
    <path d="M 622.098847 278.363567 
L 633.630808 278.363567 
L 633.630808 266.831606 
L 622.098847 266.831606 
z
" clip-path="url(#p9c4be2dea2)" style="stroke: #000000; stroke-linejoin: miter"/>
   </g>
   <g id="patch_51">
    <path d="M 650.289258 278.340052 
L 661.77419 278.340052 
L 661.77419 266.85512 
L 650.289258 266.85512 
z
" clip-path="url(#p9c4be2dea2)" style="stroke: #000000; stroke-linejoin: miter"/>
   </g>
   <g id="patch_52">
    <path d="M 678.394805 278.401402 
L 690.002437 278.401402 
L 690.002437 266.79377 
L 678.394805 266.79377 
z
" clip-path="url(#p9c4be2dea2)" style="stroke: #000000; stroke-linejoin: miter"/>
   </g>
   <g id="patch_53">
    <path d="M 706.575691 278.387412 
L 718.155343 278.387412 
L 718.155343 266.80776 
L 706.575691 266.80776 
z
" clip-path="url(#p9c4be2dea2)" style="stroke: #000000; stroke-linejoin: miter"/>
   </g>
   <g id="patch_54">
    <path d="M 734.775272 278.354728 
L 746.289555 278.354728 
L 746.289555 266.840445 
L 734.775272 266.840445 
z
" clip-path="url(#p9c4be2dea2)" style="stroke: #000000; stroke-linejoin: miter"/>
   </g>
   <g id="patch_55">
    <path d="M 762.967566 278.329331 
L 774.431055 278.329331 
L 774.431055 266.865842 
L 762.967566 266.865842 
z
" clip-path="url(#p9c4be2dea2)" style="stroke: #000000; stroke-linejoin: miter"/>
   </g>
   <g id="patch_56">
    <path d="M 791.072798 278.390995 
L 802.659616 278.390995 
L 802.659616 266.804177 
L 791.072798 266.804177 
z
" clip-path="url(#p9c4be2dea2)" style="stroke: #000000; stroke-linejoin: miter"/>
   </g>
   <g id="patch_57">
    <path d="M 58.980943 249.976643 
L 70.07285 249.976643 
L 70.07285 238.884737 
L 58.980943 238.884737 
z
" clip-path="url(#p9c4be2dea2)" style="stroke: #000000; stroke-linejoin: miter"/>
   </g>
   <g id="patch_58">
    <path d="M 87.234392 249.890091 
L 98.153195 249.890091 
L 98.153195 238.971288 
L 87.234392 238.971288 
z
" clip-path="url(#p9c4be2dea2)" style="stroke: #000000; stroke-linejoin: miter"/>
   </g>
   <g id="patch_59">
    <path d="M 115.639879 249.651501 
L 126.081501 249.651501 
L 126.081501 239.209879 
L 115.639879 239.209879 
z
" clip-path="url(#p9c4be2dea2)" style="stroke: #000000; stroke-linejoin: miter"/>
   </g>
   <g id="patch_60">
    <path d="M 143.612933 249.845343 
L 154.442239 249.845343 
L 154.442239 239.016037 
L 143.612933 239.016037 
z
" clip-path="url(#p9c4be2dea2)" style="stroke: #000000; stroke-linejoin: miter"/>
   </g>
   <g id="patch_61">
    <path d="M 171.929122 249.696051 
L 182.459844 249.696051 
L 182.459844 239.165329 
L 171.929122 239.165329 
z
" clip-path="url(#p9c4be2dea2)" style="stroke: #000000; stroke-linejoin: miter"/>
   </g>
   <g id="patch_62">
    <path d="M 200.064426 249.727643 
L 210.658333 249.727643 
L 210.658333 239.133736 
L 200.064426 239.133736 
z
" clip-path="url(#p9c4be2dea2)" style="stroke: #000000; stroke-linejoin: miter"/>
   </g>
   <g id="patch_63">
    <path d="M 228.186566 249.772399 
L 238.869985 249.772399 
L 238.869985 239.08898 
L 228.186566 239.08898 
z
" clip-path="url(#p9c4be2dea2)" style="stroke: #000000; stroke-linejoin: miter"/>
   </g>
   <g id="patch_64">
    <path d="M 256.317436 249.808426 
L 267.072909 249.808426 
L 267.072909 239.052953 
L 256.317436 239.052953 
z
" clip-path="url(#p9c4be2dea2)" style="stroke: #000000; stroke-linejoin: miter"/>
   </g>
   <g id="patch_65">
    <path d="M 284.657137 249.635622 
L 295.067001 249.635622 
L 295.067001 239.225758 
L 284.657137 239.225758 
z
" clip-path="url(#p9c4be2dea2)" style="stroke: #000000; stroke-linejoin: miter"/>
   </g>
   <g id="patch_66">
    <path d="M 312.700442 249.759213 
L 323.357489 249.759213 
L 323.357489 239.102166 
L 312.700442 239.102166 
z
" clip-path="url(#p9c4be2dea2)" style="stroke: #000000; stroke-linejoin: miter"/>
   </g>
   <g id="patch_67">
    <path d="M 340.527699 250.098852 
L 351.864025 250.098852 
L 351.864025 238.762527 
L 340.527699 238.762527 
z
" clip-path="url(#p9c4be2dea2)" style="stroke: #000000; stroke-linejoin: miter"/>
   </g>
   <g id="patch_68">
    <path d="M 369.149941 249.643507 
L 379.575576 249.643507 
L 379.575576 239.217872 
L 369.149941 239.217872 
z
" clip-path="url(#p9c4be2dea2)" style="stroke: #000000; stroke-linejoin: miter"/>
   </g>
   <g id="patch_69">
    <path d="M 397.298949 249.661396 
L 407.760362 249.661396 
L 407.760362 239.199983 
L 397.298949 239.199983 
z
" clip-path="url(#p9c4be2dea2)" style="stroke: #000000; stroke-linejoin: miter"/>
   </g>
   <g id="patch_70">
    <path d="M 425.386141 249.7411 
L 436.006962 249.7411 
L 436.006962 239.120279 
L 425.386141 239.120279 
z
" clip-path="url(#p9c4be2dea2)" style="stroke: #000000; stroke-linejoin: miter"/>
   </g>
   <g id="patch_71">
    <path d="M 453.438065 249.856073 
L 464.288832 249.856073 
L 464.288832 239.005306 
L 453.438065 239.005306 
z
" clip-path="url(#p9c4be2dea2)" style="stroke: #000000; stroke-linejoin: miter"/>
   </g>
   <g id="patch_72">
    <path d="M 481.844753 249.616282 
L 492.215937 249.616282 
L 492.215937 239.245098 
L 481.844753 239.245098 
z
" clip-path="url(#p9c4be2dea2)" style="stroke: #000000; stroke-linejoin: miter"/>
   </g>
   <g id="patch_73">
    <path d="M 509.914331 249.7136 
L 520.480152 249.7136 
L 520.480152 239.147779 
L 509.914331 239.147779 
z
" clip-path="url(#p9c4be2dea2)" style="stroke: #000000; stroke-linejoin: miter"/>
   </g>
   <g id="patch_74">
    <path d="M 538.089452 249.705376 
L 548.638824 249.705376 
L 548.638824 239.156003 
L 538.089452 239.156003 
z
" clip-path="url(#p9c4be2dea2)" style="stroke: #000000; stroke-linejoin: miter"/>
   </g>
   <g id="patch_75">
    <path d="M 566.315613 249.646111 
L 576.746456 249.646111 
L 576.746456 239.215268 
L 566.315613 239.215268 
z
" clip-path="url(#p9c4be2dea2)" style="stroke: #000000; stroke-linejoin: miter"/>
   </g>
   <g id="patch_76">
    <path d="M 594.267737 249.860884 
L 605.128125 249.860884 
L 605.128125 239.000496 
L 594.267737 239.000496 
z
" clip-path="url(#p9c4be2dea2)" style="stroke: #000000; stroke-linejoin: miter"/>
   </g>
   <g id="patch_77">
    <path d="M 622.691591 249.603926 
L 633.038064 249.603926 
L 633.038064 239.257453 
L 622.691591 239.257453 
z
" clip-path="url(#p9c4be2dea2)" style="stroke: #000000; stroke-linejoin: miter"/>
   </g>
   <g id="patch_78">
    <path d="M 650.710001 249.752413 
L 661.353447 249.752413 
L 661.353447 239.108967 
L 650.710001 239.108967 
z
" clip-path="url(#p9c4be2dea2)" style="stroke: #000000; stroke-linejoin: miter"/>
   </g>
   <g id="patch_79">
    <path d="M 678.920217 249.709093 
L 689.477024 249.709093 
L 689.477024 239.152286 
L 678.920217 239.152286 
z
" clip-path="url(#p9c4be2dea2)" style="stroke: #000000; stroke-linejoin: miter"/>
   </g>
   <g id="patch_80">
    <path d="M 707.119757 249.67645 
L 717.611278 249.67645 
L 717.611278 239.184929 
L 707.119757 239.184929 
z
" clip-path="url(#p9c4be2dea2)" style="stroke: #000000; stroke-linejoin: miter"/>
   </g>
   <g id="patch_81">
    <path d="M 735.269809 249.693295 
L 745.795019 249.693295 
L 745.795019 239.168085 
L 735.269809 239.168085 
z
" clip-path="url(#p9c4be2dea2)" style="stroke: #000000; stroke-linejoin: miter"/>
   </g>
   <g id="patch_82">
    <path d="M 763.435677 249.694323 
L 773.962944 249.694323 
L 773.962944 239.167056 
L 763.435677 239.167056 
z
" clip-path="url(#p9c4be2dea2)" style="stroke: #000000; stroke-linejoin: miter"/>
   </g>
   <g id="patch_83">
    <path d="M 791.607369 249.689527 
L 802.125045 249.689527 
L 802.125045 239.171852 
L 791.607369 239.171852 
z
" clip-path="url(#p9c4be2dea2)" style="stroke: #000000; stroke-linejoin: miter"/>
   </g>
   <g id="patch_84">
    <path d="M 59.26282 221.527869 
L 69.790973 221.527869 
L 69.790973 210.999717 
L 59.26282 210.999717 
z
" clip-path="url(#p9c4be2dea2)" style="stroke: #000000; stroke-linejoin: miter"/>
   </g>
   <g id="patch_85">
    <path d="M 87.363477 221.594109 
L 98.024109 221.594109 
L 98.024109 210.933477 
L 87.363477 210.933477 
z
" clip-path="url(#p9c4be2dea2)" style="stroke: #000000; stroke-linejoin: miter"/>
   </g>
   <g id="patch_86">
    <path d="M 115.533199 221.591283 
L 126.18818 221.591283 
L 126.18818 210.936303 
L 115.533199 210.936303 
z
" clip-path="url(#p9c4be2dea2)" style="stroke: #000000; stroke-linejoin: miter"/>
   </g>
   <g id="patch_87">
    <path d="M 143.731589 221.55979 
L 154.323583 221.55979 
L 154.323583 210.967796 
L 143.731589 210.967796 
z
" clip-path="url(#p9c4be2dea2)" style="stroke: #000000; stroke-linejoin: miter"/>
   </g>
   <g id="patch_88">
    <path d="M 171.899641 221.558635 
L 182.489325 221.558635 
L 182.489325 210.968951 
L 171.899641 210.968951 
z
" clip-path="url(#p9c4be2dea2)" style="stroke: #000000; stroke-linejoin: miter"/>
   </g>
   <g id="patch_89">
    <path d="M 200.245641 221.379531 
L 210.477117 221.379531 
L 210.477117 211.148055 
L 200.245641 211.148055 
z
" clip-path="url(#p9c4be2dea2)" style="stroke: #000000; stroke-linejoin: miter"/>
   </g>
   <g id="patch_90">
    <path d="M 228.31012 221.481949 
L 238.746432 221.481949 
L 238.746432 211.045637 
L 228.31012 211.045637 
z
" clip-path="url(#p9c4be2dea2)" style="stroke: #000000; stroke-linejoin: miter"/>
   </g>
   <g id="patch_91">
    <path d="M 256.517807 221.441159 
L 266.872538 221.441159 
L 266.872538 211.086428 
L 256.517807 211.086428 
z
" clip-path="url(#p9c4be2dea2)" style="stroke: #000000; stroke-linejoin: miter"/>
   </g>
   <g id="patch_92">
    <path d="M 284.516731 221.609131 
L 295.207407 221.609131 
L 295.207407 210.918455 
L 284.516731 210.918455 
z
" clip-path="url(#p9c4be2dea2)" style="stroke: #000000; stroke-linejoin: miter"/>
   </g>
   <g id="patch_93">
    <path d="M 312.828779 221.46398 
L 323.229152 221.46398 
L 323.229152 211.063606 
L 312.828779 211.063606 
z
" clip-path="url(#p9c4be2dea2)" style="stroke: #000000; stroke-linejoin: miter"/>
   </g>
   <g id="patch_94">
    <path d="M 341.097593 221.362062 
L 351.294131 221.362062 
L 351.294131 211.165524 
L 341.097593 211.165524 
z
" clip-path="url(#p9c4be2dea2)" style="stroke: #000000; stroke-linejoin: miter"/>
   </g>
   <g id="patch_95">
    <path d="M 369.040738 221.585813 
L 379.684779 221.585813 
L 379.684779 210.941773 
L 369.040738 210.941773 
z
" clip-path="url(#p9c4be2dea2)" style="stroke: #000000; stroke-linejoin: miter"/>
   </g>
   <g id="patch_96">
    <path d="M 397.348077 221.445372 
L 407.711234 221.445372 
L 407.711234 211.082214 
L 397.348077 211.082214 
z
" clip-path="url(#p9c4be2dea2)" style="stroke: #000000; stroke-linejoin: miter"/>
   </g>
   <g id="patch_97">
    <path d="M 425.496025 221.46432 
L 435.897079 221.46432 
L 435.897079 211.063266 
L 425.496025 211.063266 
z
" clip-path="url(#p9c4be2dea2)" style="stroke: #000000; stroke-linejoin: miter"/>
   </g>
   <g id="patch_98">
    <path d="M 453.676739 221.450502 
L 464.050157 221.450502 
L 464.050157 211.077084 
L 453.676739 211.077084 
z
" clip-path="url(#p9c4be2dea2)" style="stroke: #000000; stroke-linejoin: miter"/>
   </g>
   <g id="patch_99">
    <path d="M 482.112314 221.181824 
L 491.948375 221.181824 
L 491.948375 211.345763 
L 482.112314 211.345763 
z
" clip-path="url(#p9c4be2dea2)" style="stroke: #000000; stroke-linejoin: miter"/>
   </g>
   <g id="patch_100">
    <path d="M 509.620005 221.841029 
L 520.774477 221.841029 
L 520.774477 210.686557 
L 509.620005 210.686557 
z
" clip-path="url(#p9c4be2dea2)" style="stroke: #000000; stroke-linejoin: miter"/>
   </g>
   <g id="patch_101">
    <path d="M 538.250103 221.377828 
L 548.478173 221.377828 
L 548.478173 211.149758 
L 538.250103 211.149758 
z
" clip-path="url(#p9c4be2dea2)" style="stroke: #000000; stroke-linejoin: miter"/>
   </g>
   <g id="patch_102">
    <path d="M 566.541436 221.253391 
L 576.520633 221.253391 
L 576.520633 211.274195 
L 566.541436 211.274195 
z
" clip-path="url(#p9c4be2dea2)" style="stroke: #000000; stroke-linejoin: miter"/>
   </g>
   <g id="patch_103">
    <path d="M 594.641012 221.320712 
L 604.75485 221.320712 
L 604.75485 211.206874 
L 594.641012 211.206874 
z
" clip-path="url(#p9c4be2dea2)" style="stroke: #000000; stroke-linejoin: miter"/>
   </g>
   <g id="patch_104">
    <path d="M 622.489051 221.639569 
L 633.240604 221.639569 
L 633.240604 210.888017 
L 622.489051 210.888017 
z
" clip-path="url(#p9c4be2dea2)" style="stroke: #000000; stroke-linejoin: miter"/>
   </g>
   <g id="patch_105">
    <path d="M 650.933382 221.362135 
L 661.130066 221.362135 
L 661.130066 211.165451 
L 650.933382 211.165451 
z
" clip-path="url(#p9c4be2dea2)" style="stroke: #000000; stroke-linejoin: miter"/>
   </g>
   <g id="patch_106">
    <path d="M 679.035059 221.427355 
L 689.362182 221.427355 
L 689.362182 211.100231 
L 679.035059 211.100231 
z
" clip-path="url(#p9c4be2dea2)" style="stroke: #000000; stroke-linejoin: miter"/>
   </g>
   <g id="patch_107">
    <path d="M 707.200626 221.428684 
L 717.530408 221.428684 
L 717.530408 211.098902 
L 707.200626 211.098902 
z
" clip-path="url(#p9c4be2dea2)" style="stroke: #000000; stroke-linejoin: miter"/>
   </g>
   <g id="patch_108">
    <path d="M 735.409126 221.387081 
L 745.655701 221.387081 
L 745.655701 211.140505 
L 735.409126 211.140505 
z
" clip-path="url(#p9c4be2dea2)" style="stroke: #000000; stroke-linejoin: miter"/>
   </g>
   <g id="patch_109">
    <path d="M 763.43037 221.532734 
L 773.968251 221.532734 
L 773.968251 210.994852 
L 763.43037 210.994852 
z
" clip-path="url(#p9c4be2dea2)" style="stroke: #000000; stroke-linejoin: miter"/>
   </g>
   <g id="patch_110">
    <path d="M 791.951175 221.178825 
L 801.781239 221.178825 
L 801.781239 211.348761 
L 791.951175 211.348761 
z
" clip-path="url(#p9c4be2dea2)" style="stroke: #000000; stroke-linejoin: miter"/>
   </g>
   <g id="patch_111">
    <path d="M 58.631933 193.99186 
L 70.42186 193.99186 
L 70.42186 182.201933 
L 58.631933 182.201933 
z
" clip-path="url(#p9c4be2dea2)" style="stroke: #000000; stroke-linejoin: miter"/>
   </g>
   <g id="patch_112">
    <path d="M 87.551852 193.238837 
L 97.835734 193.238837 
L 97.835734 182.954956 
L 87.551852 182.954956 
z
" clip-path="url(#p9c4be2dea2)" style="stroke: #000000; stroke-linejoin: miter"/>
   </g>
   <g id="patch_113">
    <path d="M 115.579919 193.377667 
L 126.14146 193.377667 
L 126.14146 182.816126 
L 115.579919 182.816126 
z
" clip-path="url(#p9c4be2dea2)" style="stroke: #000000; stroke-linejoin: miter"/>
   </g>
   <g id="patch_114">
    <path d="M 143.763749 193.360734 
L 154.291424 193.360734 
L 154.291424 182.833059 
L 143.763749 182.833059 
z
" clip-path="url(#p9c4be2dea2)" style="stroke: #000000; stroke-linejoin: miter"/>
   </g>
   <g id="patch_115">
    <path d="M 171.661089 193.630291 
L 182.727877 193.630291 
L 182.727877 182.563502 
L 171.661089 182.563502 
z
" clip-path="url(#p9c4be2dea2)" style="stroke: #000000; stroke-linejoin: miter"/>
   </g>
   <g id="patch_116">
    <path d="M 200.687214 192.771062 
L 210.035545 192.771062 
L 210.035545 183.422731 
L 200.687214 183.422731 
z
" clip-path="url(#p9c4be2dea2)" style="stroke: #000000; stroke-linejoin: miter"/>
   </g>
   <g id="patch_117">
    <path d="M 228.464721 193.160451 
L 238.59183 193.160451 
L 238.59183 183.033342 
L 228.464721 183.033342 
z
" clip-path="url(#p9c4be2dea2)" style="stroke: #000000; stroke-linejoin: miter"/>
   </g>
   <g id="patch_118">
    <path d="M 256.387216 193.404853 
L 267.003129 193.404853 
L 267.003129 182.78894 
L 256.387216 182.78894 
z
" clip-path="url(#p9c4be2dea2)" style="stroke: #000000; stroke-linejoin: miter"/>
   </g>
   <g id="patch_119">
    <path d="M 285.060288 192.898678 
L 294.66385 192.898678 
L 294.66385 183.295115 
L 285.060288 183.295115 
z
" clip-path="url(#p9c4be2dea2)" style="stroke: #000000; stroke-linejoin: miter"/>
   </g>
   <g id="patch_120">
    <path d="M 312.9717 193.154162 
L 323.086231 193.154162 
L 323.086231 183.039631 
L 312.9717 183.039631 
z
" clip-path="url(#p9c4be2dea2)" style="stroke: #000000; stroke-linejoin: miter"/>
   </g>
   <g id="patch_121">
    <path d="M 341.075859 193.216899 
L 351.315865 193.216899 
L 351.315865 182.976894 
L 341.075859 182.976894 
z
" clip-path="url(#p9c4be2dea2)" style="stroke: #000000; stroke-linejoin: miter"/>
   </g>
   <g id="patch_122">
    <path d="M 369.266209 193.193446 
L 379.459308 193.193446 
L 379.459308 183.000347 
L 369.266209 183.000347 
z
" clip-path="url(#p9c4be2dea2)" style="stroke: #000000; stroke-linejoin: miter"/>
   </g>
   <g id="patch_123">
    <path d="M 397.544559 193.081993 
L 407.514752 193.081993 
L 407.514752 183.1118 
L 397.544559 183.1118 
z
" clip-path="url(#p9c4be2dea2)" style="stroke: #000000; stroke-linejoin: miter"/>
   </g>
   <g id="patch_124">
    <path d="M 425.657216 193.136232 
L 435.735887 193.136232 
L 435.735887 183.057561 
L 425.657216 183.057561 
z
" clip-path="url(#p9c4be2dea2)" style="stroke: #000000; stroke-linejoin: miter"/>
   </g>
   <g id="patch_125">
    <path d="M 453.748481 193.211864 
L 463.978415 193.211864 
L 463.978415 182.981929 
L 453.748481 182.981929 
z
" clip-path="url(#p9c4be2dea2)" style="stroke: #000000; stroke-linejoin: miter"/>
   </g>
   <g id="patch_126">
    <path d="M 481.935855 193.191386 
L 492.124834 193.191386 
L 492.124834 183.002407 
L 481.935855 183.002407 
z
" clip-path="url(#p9c4be2dea2)" style="stroke: #000000; stroke-linejoin: miter"/>
   </g>
   <g id="patch_127">
    <path d="M 510.319003 192.975135 
L 520.07548 192.975135 
L 520.07548 183.218658 
L 510.319003 183.218658 
z
" clip-path="url(#p9c4be2dea2)" style="stroke: #000000; stroke-linejoin: miter"/>
   </g>
   <g id="patch_128">
    <path d="M 538.136623 193.324412 
L 548.591653 193.324412 
L 548.591653 182.869381 
L 538.136623 182.869381 
z
" clip-path="url(#p9c4be2dea2)" style="stroke: #000000; stroke-linejoin: miter"/>
   </g>
   <g id="patch_129">
    <path d="M 566.437983 193.189948 
L 576.624086 193.189948 
L 576.624086 183.003845 
L 566.437983 183.003845 
z
" clip-path="url(#p9c4be2dea2)" style="stroke: #000000; stroke-linejoin: miter"/>
   </g>
   <g id="patch_130">
    <path d="M 594.867518 192.92731 
L 604.528344 192.92731 
L 604.528344 183.266483 
L 594.867518 183.266483 
z
" clip-path="url(#p9c4be2dea2)" style="stroke: #000000; stroke-linejoin: miter"/>
   </g>
   <g id="patch_131">
    <path d="M 622.921035 193.040689 
L 632.80862 193.040689 
L 632.80862 183.153104 
L 622.921035 183.153104 
z
" clip-path="url(#p9c4be2dea2)" style="stroke: #000000; stroke-linejoin: miter"/>
   </g>
   <g id="patch_132">
    <path d="M 651.090521 193.0381 
L 660.972927 193.0381 
L 660.972927 183.155693 
L 651.090521 183.155693 
z
" clip-path="url(#p9c4be2dea2)" style="stroke: #000000; stroke-linejoin: miter"/>
   </g>
   <g id="patch_133">
    <path d="M 679.138997 193.156521 
L 689.258245 193.156521 
L 689.258245 183.037272 
L 679.138997 183.037272 
z
" clip-path="url(#p9c4be2dea2)" style="stroke: #000000; stroke-linejoin: miter"/>
   </g>
   <g id="patch_134">
    <path d="M 707.157469 193.304945 
L 717.573566 193.304945 
L 717.573566 182.888848 
L 707.157469 182.888848 
z
" clip-path="url(#p9c4be2dea2)" style="stroke: #000000; stroke-linejoin: miter"/>
   </g>
   <g id="patch_135">
    <path d="M 735.705514 192.923796 
L 745.359313 192.923796 
L 745.359313 183.269997 
L 735.705514 183.269997 
z
" clip-path="url(#p9c4be2dea2)" style="stroke: #000000; stroke-linejoin: miter"/>
   </g>
   <g id="patch_136">
    <path d="M 763.823142 192.973065 
L 773.575479 192.973065 
L 773.575479 183.220728 
L 763.823142 183.220728 
z
" clip-path="url(#p9c4be2dea2)" style="stroke: #000000; stroke-linejoin: miter"/>
   </g>
   <g id="patch_137">
    <path d="M 791.846881 193.116222 
L 801.885533 193.116222 
L 801.885533 183.077571 
L 791.846881 183.077571 
z
" clip-path="url(#p9c4be2dea2)" style="stroke: #000000; stroke-linejoin: miter"/>
   </g>
   <g id="patch_138">
    <path d="M 59.286608 165.170288 
L 69.767185 165.170288 
L 69.767185 154.689712 
L 59.286608 154.689712 
z
" clip-path="url(#p9c4be2dea2)" style="stroke: #000000; stroke-linejoin: miter"/>
   </g>
   <g id="patch_139">
    <path d="M 87.364544 165.259249 
L 98.023042 165.259249 
L 98.023042 154.600751 
L 87.364544 154.600751 
z
" clip-path="url(#p9c4be2dea2)" style="stroke: #000000; stroke-linejoin: miter"/>
   </g>
   <g id="patch_140">
    <path d="M 115.901455 164.889234 
L 125.819924 164.889234 
L 125.819924 154.970766 
L 115.901455 154.970766 
z
" clip-path="url(#p9c4be2dea2)" style="stroke: #000000; stroke-linejoin: miter"/>
   </g>
   <g id="patch_141">
    <path d="M 144.122068 164.835519 
L 153.933105 164.835519 
L 153.933105 155.024481 
L 144.122068 155.024481 
z
" clip-path="url(#p9c4be2dea2)" style="stroke: #000000; stroke-linejoin: miter"/>
   </g>
   <g id="patch_142">
    <path d="M 172.064081 165.060401 
L 182.324884 165.060401 
L 182.324884 154.799599 
L 172.064081 154.799599 
z
" clip-path="url(#p9c4be2dea2)" style="stroke: #000000; stroke-linejoin: miter"/>
   </g>
   <g id="patch_143">
    <path d="M 200.529712 164.761668 
L 210.193047 164.761668 
L 210.193047 155.098332 
L 200.529712 155.098332 
z
" clip-path="url(#p9c4be2dea2)" style="stroke: #000000; stroke-linejoin: miter"/>
   </g>
   <g id="patch_144">
    <path d="M 228.640716 164.81756 
L 238.415836 164.81756 
L 238.415836 155.04244 
L 228.640716 155.04244 
z
" clip-path="url(#p9c4be2dea2)" style="stroke: #000000; stroke-linejoin: miter"/>
   </g>
   <g id="patch_145">
    <path d="M 256.701162 164.924011 
L 266.689183 164.924011 
L 266.689183 154.935989 
L 256.701162 154.935989 
z
" clip-path="url(#p9c4be2dea2)" style="stroke: #000000; stroke-linejoin: miter"/>
   </g>
   <g id="patch_146">
    <path d="M 284.68423 165.107839 
L 295.039908 165.107839 
L 295.039908 154.752161 
L 284.68423 154.752161 
z
" clip-path="url(#p9c4be2dea2)" style="stroke: #000000; stroke-linejoin: miter"/>
   </g>
   <g id="patch_147">
    <path d="M 313.304263 164.654702 
L 322.753668 164.654702 
L 322.753668 155.205298 
L 313.304263 155.205298 
z
" clip-path="url(#p9c4be2dea2)" style="stroke: #000000; stroke-linejoin: miter"/>
   </g>
   <g id="patch_148">
    <path d="M 341.188497 164.937365 
L 351.203227 164.937365 
L 351.203227 154.922635 
L 341.188497 154.922635 
z
" clip-path="url(#p9c4be2dea2)" style="stroke: #000000; stroke-linejoin: miter"/>
   </g>
   <g id="patch_149">
    <path d="M 369.484397 164.808361 
L 379.24112 164.808361 
L 379.24112 155.051639 
L 369.484397 155.051639 
z
" clip-path="url(#p9c4be2dea2)" style="stroke: #000000; stroke-linejoin: miter"/>
   </g>
   <g id="patch_150">
    <path d="M 397.52014 164.939515 
L 407.53917 164.939515 
L 407.53917 154.920485 
L 397.52014 154.920485 
z
" clip-path="url(#p9c4be2dea2)" style="stroke: #000000; stroke-linejoin: miter"/>
   </g>
   <g id="patch_151">
    <path d="M 425.874076 164.752476 
L 435.519027 164.752476 
L 435.519027 155.107524 
L 425.874076 155.107524 
z
" clip-path="url(#p9c4be2dea2)" style="stroke: #000000; stroke-linejoin: miter"/>
   </g>
   <g id="patch_152">
    <path d="M 453.516273 165.277175 
L 464.210623 165.277175 
L 464.210623 154.582825 
L 453.516273 154.582825 
z
" clip-path="url(#p9c4be2dea2)" style="stroke: #000000; stroke-linejoin: miter"/>
   </g>
   <g id="patch_153">
    <path d="M 482.277249 164.683096 
L 491.783441 164.683096 
L 491.783441 155.176904 
L 482.277249 155.176904 
z
" clip-path="url(#p9c4be2dea2)" style="stroke: #000000; stroke-linejoin: miter"/>
   </g>
   <g id="patch_154">
    <path d="M 510.230723 164.896519 
L 520.16376 164.896519 
L 520.16376 154.963481 
L 510.230723 154.963481 
z
" clip-path="url(#p9c4be2dea2)" style="stroke: #000000; stroke-linejoin: miter"/>
   </g>
   <g id="patch_155">
    <path d="M 538.473275 164.820863 
L 548.255001 164.820863 
L 548.255001 155.039137 
L 538.473275 155.039137 
z
" clip-path="url(#p9c4be2dea2)" style="stroke: #000000; stroke-linejoin: miter"/>
   </g>
   <g id="patch_156">
    <path d="M 566.471317 164.989718 
L 576.590752 164.989718 
L 576.590752 154.870282 
L 566.471317 154.870282 
z
" clip-path="url(#p9c4be2dea2)" style="stroke: #000000; stroke-linejoin: miter"/>
   </g>
   <g id="patch_157">
    <path d="M 594.964119 164.663812 
L 604.431743 164.663812 
L 604.431743 155.196188 
L 594.964119 155.196188 
z
" clip-path="url(#p9c4be2dea2)" style="stroke: #000000; stroke-linejoin: miter"/>
   </g>
   <g id="patch_158">
    <path d="M 622.928724 164.866104 
L 632.800932 164.866104 
L 632.800932 154.993896 
L 622.928724 154.993896 
z
" clip-path="url(#p9c4be2dea2)" style="stroke: #000000; stroke-linejoin: miter"/>
   </g>
   <g id="patch_159">
    <path d="M 651.211102 164.750622 
L 660.852347 164.750622 
L 660.852347 155.109378 
L 651.211102 155.109378 
z
" clip-path="url(#p9c4be2dea2)" style="stroke: #000000; stroke-linejoin: miter"/>
   </g>
   <g id="patch_160">
    <path d="M 678.951557 165.177064 
L 689.445685 165.177064 
L 689.445685 154.682936 
L 678.951557 154.682936 
z
" clip-path="url(#p9c4be2dea2)" style="stroke: #000000; stroke-linejoin: miter"/>
   </g>
   <g id="patch_161">
    <path d="M 707.61735 164.678167 
L 717.113684 164.678167 
L 717.113684 155.181833 
L 707.61735 155.181833 
z
" clip-path="url(#p9c4be2dea2)" style="stroke: #000000; stroke-linejoin: miter"/>
   </g>
   <g id="patch_162">
    <path d="M 735.656639 164.805775 
L 745.408189 164.805775 
L 745.408189 155.054225 
L 735.656639 155.054225 
z
" clip-path="url(#p9c4be2dea2)" style="stroke: #000000; stroke-linejoin: miter"/>
   </g>
   <g id="patch_163">
    <path d="M 763.605373 165.023937 
L 773.793247 165.023937 
L 773.793247 154.836063 
L 763.605373 154.836063 
z
" clip-path="url(#p9c4be2dea2)" style="stroke: #000000; stroke-linejoin: miter"/>
   </g>
   <g id="patch_164">
    <path d="M 792.09474 164.701467 
L 801.637673 164.701467 
L 801.637673 155.158533 
L 792.09474 155.158533 
z
" clip-path="url(#p9c4be2dea2)" style="stroke: #000000; stroke-linejoin: miter"/>
   </g>
   <g id="patch_165">
    <path d="M 58.153908 138.136092 
L 70.899885 138.136092 
L 70.899885 125.390115 
L 58.153908 125.390115 
z
" clip-path="url(#p9c4be2dea2)" style="stroke: #000000; stroke-linejoin: miter"/>
   </g>
   <g id="patch_166">
    <path d="M 86.277825 138.179071 
L 99.109761 138.179071 
L 99.109761 125.347136 
L 86.277825 125.347136 
z
" clip-path="url(#p9c4be2dea2)" style="stroke: #000000; stroke-linejoin: miter"/>
   </g>
   <g id="patch_167">
    <path d="M 115.78691 136.836883 
L 125.934469 136.836883 
L 125.934469 126.689324 
L 115.78691 126.689324 
z
" clip-path="url(#p9c4be2dea2)" style="stroke: #000000; stroke-linejoin: miter"/>
   </g>
   <g id="patch_168">
    <path d="M 143.999986 136.790703 
L 154.055186 136.790703 
L 154.055186 126.735503 
L 143.999986 126.735503 
z
" clip-path="url(#p9c4be2dea2)" style="stroke: #000000; stroke-linejoin: miter"/>
   </g>
   <g id="patch_169">
    <path d="M 172.325827 136.631759 
L 182.063139 136.631759 
L 182.063139 126.894447 
L 172.325827 126.894447 
z
" clip-path="url(#p9c4be2dea2)" style="stroke: #000000; stroke-linejoin: miter"/>
   </g>
   <g id="patch_170">
    <path d="M 200.328315 136.796167 
L 210.394443 136.796167 
L 210.394443 126.73004 
L 200.328315 126.73004 
z
" clip-path="url(#p9c4be2dea2)" style="stroke: #000000; stroke-linejoin: miter"/>
   </g>
   <g id="patch_171">
    <path d="M 228.66525 136.626129 
L 238.391301 136.626129 
L 238.391301 126.900078 
L 228.66525 126.900078 
z
" clip-path="url(#p9c4be2dea2)" style="stroke: #000000; stroke-linejoin: miter"/>
   </g>
   <g id="patch_172">
    <path d="M 257.027558 136.430718 
L 266.362787 136.430718 
L 266.362787 127.095489 
L 257.027558 127.095489 
z
" clip-path="url(#p9c4be2dea2)" style="stroke: #000000; stroke-linejoin: miter"/>
   </g>
   <g id="patch_173">
    <path d="M 285.092812 136.532361 
L 294.631326 136.532361 
L 294.631326 126.993846 
L 285.092812 126.993846 
z
" clip-path="url(#p9c4be2dea2)" style="stroke: #000000; stroke-linejoin: miter"/>
   </g>
   <g id="patch_174">
    <path d="M 313.249801 136.542268 
L 322.80813 136.542268 
L 322.80813 126.983939 
L 313.249801 126.983939 
z
" clip-path="url(#p9c4be2dea2)" style="stroke: #000000; stroke-linejoin: miter"/>
   </g>
   <g id="patch_175">
    <path d="M 340.938569 137.020397 
L 351.453156 137.020397 
L 351.453156 126.50581 
L 340.938569 126.50581 
z
" clip-path="url(#p9c4be2dea2)" style="stroke: #000000; stroke-linejoin: miter"/>
   </g>
   <g id="patch_176">
    <path d="M 369.663237 136.462625 
L 379.06228 136.462625 
L 379.06228 127.063582 
L 369.663237 127.063582 
z
" clip-path="url(#p9c4be2dea2)" style="stroke: #000000; stroke-linejoin: miter"/>
   </g>
   <g id="patch_177">
    <path d="M 397.671622 136.621137 
L 407.387688 136.621137 
L 407.387688 126.90507 
L 397.671622 126.90507 
z
" clip-path="url(#p9c4be2dea2)" style="stroke: #000000; stroke-linejoin: miter"/>
   </g>
   <g id="patch_178">
    <path d="M 425.736752 136.722903 
L 435.656351 136.722903 
L 435.656351 126.803304 
L 425.736752 126.803304 
z
" clip-path="url(#p9c4be2dea2)" style="stroke: #000000; stroke-linejoin: miter"/>
   </g>
   <g id="patch_179">
    <path d="M 454.077037 136.549515 
L 463.64986 136.549515 
L 463.64986 126.976692 
L 454.077037 126.976692 
z
" clip-path="url(#p9c4be2dea2)" style="stroke: #000000; stroke-linejoin: miter"/>
   </g>
   <g id="patch_180">
    <path d="M 482.15323 136.640218 
L 491.907459 136.640218 
L 491.907459 126.885989 
L 482.15323 126.885989 
z
" clip-path="url(#p9c4be2dea2)" style="stroke: #000000; stroke-linejoin: miter"/>
   </g>
   <g id="patch_181">
    <path d="M 510.149731 136.810614 
L 520.244752 136.810614 
L 520.244752 126.715593 
L 510.149731 126.715593 
z
" clip-path="url(#p9c4be2dea2)" style="stroke: #000000; stroke-linejoin: miter"/>
   </g>
   <g id="patch_182">
    <path d="M 538.743359 136.383882 
L 547.984917 136.383882 
L 547.984917 127.142325 
L 538.743359 127.142325 
z
" clip-path="url(#p9c4be2dea2)" style="stroke: #000000; stroke-linejoin: miter"/>
   </g>
   <g id="patch_183">
    <path d="M 567.107576 136.186562 
L 575.954493 136.186562 
L 575.954493 127.339645 
L 567.107576 127.339645 
z
" clip-path="url(#p9c4be2dea2)" style="stroke: #000000; stroke-linejoin: miter"/>
   </g>
   <g id="patch_184">
    <path d="M 594.64183 136.819205 
L 604.754032 136.819205 
L 604.754032 126.707002 
L 594.64183 126.707002 
z
" clip-path="url(#p9c4be2dea2)" style="stroke: #000000; stroke-linejoin: miter"/>
   </g>
   <g id="patch_185">
    <path d="M 622.922116 136.705815 
L 632.807539 136.705815 
L 632.807539 126.820392 
L 622.922116 126.820392 
z
" clip-path="url(#p9c4be2dea2)" style="stroke: #000000; stroke-linejoin: miter"/>
   </g>
   <g id="patch_186">
    <path d="M 651.300597 136.49423 
L 660.762851 136.49423 
L 660.762851 127.031977 
L 651.300597 127.031977 
z
" clip-path="url(#p9c4be2dea2)" style="stroke: #000000; stroke-linejoin: miter"/>
   </g>
   <g id="patch_187">
    <path d="M 679.331505 136.630219 
L 689.065736 136.630219 
L 689.065736 126.895988 
L 679.331505 126.895988 
z
" clip-path="url(#p9c4be2dea2)" style="stroke: #000000; stroke-linejoin: miter"/>
   </g>
   <g id="patch_188">
    <path d="M 707.694515 136.434106 
L 717.03652 136.434106 
L 717.03652 127.092101 
L 707.694515 127.092101 
z
" clip-path="url(#p9c4be2dea2)" style="stroke: #000000; stroke-linejoin: miter"/>
   </g>
   <g id="patch_189">
    <path d="M 735.6691 136.626417 
L 745.395728 136.626417 
L 745.395728 126.89979 
L 735.6691 126.89979 
z
" clip-path="url(#p9c4be2dea2)" style="stroke: #000000; stroke-linejoin: miter"/>
   </g>
   <g id="patch_190">
    <path d="M 763.991292 136.471122 
L 773.407329 136.471122 
L 773.407329 127.055085 
L 763.991292 127.055085 
z
" clip-path="url(#p9c4be2dea2)" style="stroke: #000000; stroke-linejoin: miter"/>
   </g>
   <g id="patch_191">
    <path d="M 792.151944 136.477366 
L 801.580469 136.477366 
L 801.580469 127.048841 
L 792.151944 127.048841 
z
" clip-path="url(#p9c4be2dea2)" style="stroke: #000000; stroke-linejoin: miter"/>
   </g>
   <g id="patch_192">
    <path d="M 57.992401 110.130702 
L 71.061392 110.130702 
L 71.061392 97.061712 
L 57.992401 97.061712 
z
" clip-path="url(#p9c4be2dea2)" style="stroke: #000000; stroke-linejoin: miter"/>
   </g>
   <g id="patch_193">
    <path d="M 87.754822 108.535178 
L 97.632764 108.535178 
L 97.632764 98.657236 
L 87.754822 98.657236 
z
" clip-path="url(#p9c4be2dea2)" style="stroke: #000000; stroke-linejoin: miter"/>
   </g>
   <g id="patch_194">
    <path d="M 116.192521 108.264375 
L 125.528858 108.264375 
L 125.528858 98.928038 
L 116.192521 98.928038 
z
" clip-path="url(#p9c4be2dea2)" style="stroke: #000000; stroke-linejoin: miter"/>
   </g>
   <g id="patch_195">
    <path d="M 143.958645 108.665148 
L 154.096527 108.665148 
L 154.096527 98.527266 
L 143.958645 98.527266 
z
" clip-path="url(#p9c4be2dea2)" style="stroke: #000000; stroke-linejoin: miter"/>
   </g>
   <g id="patch_196">
    <path d="M 172.452402 108.338288 
L 181.936564 108.338288 
L 181.936564 98.854126 
L 172.452402 98.854126 
z
" clip-path="url(#p9c4be2dea2)" style="stroke: #000000; stroke-linejoin: miter"/>
   </g>
   <g id="patch_197">
    <path d="M 200.455485 108.502101 
L 210.267273 108.502101 
L 210.267273 98.690313 
L 200.455485 98.690313 
z
" clip-path="url(#p9c4be2dea2)" style="stroke: #000000; stroke-linejoin: miter"/>
   </g>
   <g id="patch_198">
    <path d="M 228.831723 108.29276 
L 238.224829 108.29276 
L 238.224829 98.899654 
L 228.831723 98.899654 
z
" clip-path="url(#p9c4be2dea2)" style="stroke: #000000; stroke-linejoin: miter"/>
   </g>
   <g id="patch_199">
    <path d="M 256.559765 108.731614 
L 266.83058 108.731614 
L 266.83058 98.460799 
L 256.559765 98.460799 
z
" clip-path="url(#p9c4be2dea2)" style="stroke: #000000; stroke-linejoin: miter"/>
   </g>
   <g id="patch_200">
    <path d="M 284.975698 108.482578 
L 294.74844 108.482578 
L 294.74844 98.709836 
L 284.975698 98.709836 
z
" clip-path="url(#p9c4be2dea2)" style="stroke: #000000; stroke-linejoin: miter"/>
   </g>
   <g id="patch_201">
    <path d="M 313.329687 108.295486 
L 322.728244 108.295486 
L 322.728244 98.896928 
L 313.329687 98.896928 
z
" clip-path="url(#p9c4be2dea2)" style="stroke: #000000; stroke-linejoin: miter"/>
   </g>
   <g id="patch_202">
    <path d="M 341.331739 108.46033 
L 351.059985 108.46033 
L 351.059985 98.732084 
L 341.331739 98.732084 
z
" clip-path="url(#p9c4be2dea2)" style="stroke: #000000; stroke-linejoin: miter"/>
   </g>
   <g id="patch_203">
    <path d="M 369.300967 108.657998 
L 379.42455 108.657998 
L 379.42455 98.534415 
L 369.300967 98.534415 
z
" clip-path="url(#p9c4be2dea2)" style="stroke: #000000; stroke-linejoin: miter"/>
   </g>
   <g id="patch_204">
    <path d="M 397.559681 108.566181 
L 407.49963 108.566181 
L 407.49963 98.626232 
L 397.559681 98.626232 
z
" clip-path="url(#p9c4be2dea2)" style="stroke: #000000; stroke-linejoin: miter"/>
   </g>
   <g id="patch_205">
    <path d="M 425.966953 108.325805 
L 435.42615 108.325805 
L 435.42615 98.866609 
L 425.966953 98.866609 
z
" clip-path="url(#p9c4be2dea2)" style="stroke: #000000; stroke-linejoin: miter"/>
   </g>
   <g id="patch_206">
    <path d="M 454.171604 108.288051 
L 463.555292 108.288051 
L 463.555292 98.904363 
L 454.171604 98.904363 
z
" clip-path="url(#p9c4be2dea2)" style="stroke: #000000; stroke-linejoin: miter"/>
   </g>
   <g id="patch_207">
    <path d="M 482.203631 108.422921 
L 491.857059 108.422921 
L 491.857059 98.769493 
L 482.203631 98.769493 
z
" clip-path="url(#p9c4be2dea2)" style="stroke: #000000; stroke-linejoin: miter"/>
   </g>
   <g id="patch_208">
    <path d="M 510.376282 108.417166 
L 520.0182 108.417166 
L 520.0182 98.775248 
L 510.376282 98.775248 
z
" clip-path="url(#p9c4be2dea2)" style="stroke: #000000; stroke-linejoin: miter"/>
   </g>
   <g id="patch_209">
    <path d="M 538.535705 108.424639 
L 548.192571 108.424639 
L 548.192571 98.767774 
L 538.535705 98.767774 
z
" clip-path="url(#p9c4be2dea2)" style="stroke: #000000; stroke-linejoin: miter"/>
   </g>
   <g id="patch_210">
    <path d="M 566.531841 108.595401 
L 576.530228 108.595401 
L 576.530228 98.597013 
L 566.531841 98.597013 
z
" clip-path="url(#p9c4be2dea2)" style="stroke: #000000; stroke-linejoin: miter"/>
   </g>
   <g id="patch_211">
    <path d="M 594.778605 108.515533 
L 604.617257 108.515533 
L 604.617257 98.676881 
L 594.778605 98.676881 
z
" clip-path="url(#p9c4be2dea2)" style="stroke: #000000; stroke-linejoin: miter"/>
   </g>
   <g id="patch_212">
    <path d="M 623.230865 108.230169 
L 632.49879 108.230169 
L 632.49879 98.962245 
L 623.230865 98.962245 
z
" clip-path="url(#p9c4be2dea2)" style="stroke: #000000; stroke-linejoin: miter"/>
   </g>
   <g id="patch_213">
    <path d="M 651.181384 108.446547 
L 660.882064 108.446547 
L 660.882064 98.745867 
L 651.181384 98.745867 
z
" clip-path="url(#p9c4be2dea2)" style="stroke: #000000; stroke-linejoin: miter"/>
   </g>
   <g id="patch_214">
    <path d="M 679.330151 108.464676 
L 689.06709 108.464676 
L 689.06709 98.727738 
L 679.330151 98.727738 
z
" clip-path="url(#p9c4be2dea2)" style="stroke: #000000; stroke-linejoin: miter"/>
   </g>
   <g id="patch_215">
    <path d="M 707.333713 108.628011 
L 717.397321 108.628011 
L 717.397321 98.564403 
L 707.333713 98.564403 
z
" clip-path="url(#p9c4be2dea2)" style="stroke: #000000; stroke-linejoin: miter"/>
   </g>
   <g id="patch_216">
    <path d="M 735.497371 108.631249 
L 745.567456 108.631249 
L 745.567456 98.561164 
L 735.497371 98.561164 
z
" clip-path="url(#p9c4be2dea2)" style="stroke: #000000; stroke-linejoin: miter"/>
   </g>
   <g id="patch_217">
    <path d="M 764.066767 108.22875 
L 773.331854 108.22875 
L 773.331854 98.963664 
L 764.066767 98.963664 
z
" clip-path="url(#p9c4be2dea2)" style="stroke: #000000; stroke-linejoin: miter"/>
   </g>
   <g id="patch_218">
    <path d="M 792.201765 108.260649 
L 801.530649 108.260649 
L 801.530649 98.931765 
L 792.201765 98.931765 
z
" clip-path="url(#p9c4be2dea2)" style="stroke: #000000; stroke-linejoin: miter"/>
   </g>
   <g id="patch_219">
    <path d="M 59.02504 80.931167 
L 70.028753 80.931167 
L 70.028753 69.927454 
L 59.02504 69.927454 
z
" clip-path="url(#p9c4be2dea2)" style="stroke: #000000; stroke-linejoin: miter"/>
   </g>
   <g id="patch_220">
    <path d="M 87.417496 80.705608 
L 97.970091 80.705608 
L 97.970091 70.153013 
L 87.417496 70.153013 
z
" clip-path="url(#p9c4be2dea2)" style="stroke: #000000; stroke-linejoin: miter"/>
   </g>
   <g id="patch_221">
    <path d="M 115.573357 80.716643 
L 126.148023 80.716643 
L 126.148023 70.141977 
L 115.573357 70.141977 
z
" clip-path="url(#p9c4be2dea2)" style="stroke: #000000; stroke-linejoin: miter"/>
   </g>
   <g id="patch_222">
    <path d="M 143.60632 80.850576 
L 154.448852 80.850576 
L 154.448852 70.008045 
L 143.60632 70.008045 
z
" clip-path="url(#p9c4be2dea2)" style="stroke: #000000; stroke-linejoin: miter"/>
   </g>
   <g id="patch_223">
    <path d="M 171.747928 80.875865 
L 182.641038 80.875865 
L 182.641038 69.982755 
L 171.747928 69.982755 
z
" clip-path="url(#p9c4be2dea2)" style="stroke: #000000; stroke-linejoin: miter"/>
   </g>
   <g id="patch_224">
    <path d="M 200.078799 80.71189 
L 210.643959 80.71189 
L 210.643959 70.14673 
L 200.078799 70.14673 
z
" clip-path="url(#p9c4be2dea2)" style="stroke: #000000; stroke-linejoin: miter"/>
   </g>
   <g id="patch_225">
    <path d="M 228.257338 80.700248 
L 238.799214 80.700248 
L 238.799214 70.158373 
L 228.257338 70.158373 
z
" clip-path="url(#p9c4be2dea2)" style="stroke: #000000; stroke-linejoin: miter"/>
   </g>
   <g id="patch_226">
    <path d="M 256.43258 80.691902 
L 266.957764 80.691902 
L 266.957764 70.166718 
L 256.43258 70.166718 
z
" clip-path="url(#p9c4be2dea2)" style="stroke: #000000; stroke-linejoin: miter"/>
   </g>
   <g id="patch_227">
    <path d="M 284.536084 80.755296 
L 295.188054 80.755296 
L 295.188054 70.103325 
L 284.536084 70.103325 
z
" clip-path="url(#p9c4be2dea2)" style="stroke: #000000; stroke-linejoin: miter"/>
   </g>
   <g id="patch_228">
    <path d="M 312.837495 80.620781 
L 323.220436 80.620781 
L 323.220436 70.23784 
L 312.837495 70.23784 
z
" clip-path="url(#p9c4be2dea2)" style="stroke: #000000; stroke-linejoin: miter"/>
   </g>
   <g id="patch_229">
    <path d="M 340.938663 80.686509 
L 351.453061 80.686509 
L 351.453061 70.172112 
L 340.938663 70.172112 
z
" clip-path="url(#p9c4be2dea2)" style="stroke: #000000; stroke-linejoin: miter"/>
   </g>
   <g id="patch_230">
    <path d="M 369.143889 80.64818 
L 379.581628 80.64818 
L 379.581628 70.210441 
L 369.143889 70.210441 
z
" clip-path="url(#p9c4be2dea2)" style="stroke: #000000; stroke-linejoin: miter"/>
   </g>
   <g id="patch_231">
    <path d="M 397.293521 80.665445 
L 407.765789 80.665445 
L 407.765789 70.193176 
L 397.293521 70.193176 
z
" clip-path="url(#p9c4be2dea2)" style="stroke: #000000; stroke-linejoin: miter"/>
   </g>
   <g id="patch_232">
    <path d="M 425.470808 80.655054 
L 435.922295 80.655054 
L 435.922295 70.203567 
L 425.470808 70.203567 
z
" clip-path="url(#p9c4be2dea2)" style="stroke: #000000; stroke-linejoin: miter"/>
   </g>
   <g id="patch_233">
    <path d="M 453.32218 80.970579 
L 464.404717 80.970579 
L 464.404717 69.888042 
L 453.32218 69.888042 
z
" clip-path="url(#p9c4be2dea2)" style="stroke: #000000; stroke-linejoin: miter"/>
   </g>
   <g id="patch_234">
    <path d="M 481.965529 80.494126 
L 492.095161 80.494126 
L 492.095161 70.364494 
L 481.965529 70.364494 
z
" clip-path="url(#p9c4be2dea2)" style="stroke: #000000; stroke-linejoin: miter"/>
   </g>
   <g id="patch_235">
    <path d="M 510.002281 80.624271 
L 520.392202 80.624271 
L 520.392202 70.23435 
L 510.002281 70.23435 
z
" clip-path="url(#p9c4be2dea2)" style="stroke: #000000; stroke-linejoin: miter"/>
   </g>
   <g id="patch_236">
    <path d="M 538.132585 80.660864 
L 548.595691 80.660864 
L 548.595691 70.197757 
L 538.132585 70.197757 
z
" clip-path="url(#p9c4be2dea2)" style="stroke: #000000; stroke-linejoin: miter"/>
   </g>
   <g id="patch_237">
    <path d="M 566.270134 80.690211 
L 576.791935 80.690211 
L 576.791935 70.16841 
L 566.270134 70.16841 
z
" clip-path="url(#p9c4be2dea2)" style="stroke: #000000; stroke-linejoin: miter"/>
   </g>
   <g id="patch_238">
    <path d="M 594.452599 80.674643 
L 604.943263 80.674643 
L 604.943263 70.183978 
L 594.452599 70.183978 
z
" clip-path="url(#p9c4be2dea2)" style="stroke: #000000; stroke-linejoin: miter"/>
   </g>
   <g id="patch_239">
    <path d="M 622.691521 80.602617 
L 633.038134 80.602617 
L 633.038134 70.256004 
L 622.691521 70.256004 
z
" clip-path="url(#p9c4be2dea2)" style="stroke: #000000; stroke-linejoin: miter"/>
   </g>
   <g id="patch_240">
    <path d="M 650.704226 80.756808 
L 661.359222 80.756808 
L 661.359222 70.101812 
L 650.704226 70.101812 
z
" clip-path="url(#p9c4be2dea2)" style="stroke: #000000; stroke-linejoin: miter"/>
   </g>
   <g id="patch_241">
    <path d="M 678.999661 80.62827 
L 689.39758 80.62827 
L 689.39758 70.230351 
L 678.999661 70.230351 
z
" clip-path="url(#p9c4be2dea2)" style="stroke: #000000; stroke-linejoin: miter"/>
   </g>
   <g id="patch_242">
    <path d="M 707.151437 80.64339 
L 717.579597 80.64339 
L 717.579597 70.21523 
L 707.151437 70.21523 
z
" clip-path="url(#p9c4be2dea2)" style="stroke: #000000; stroke-linejoin: miter"/>
   </g>
   <g id="patch_243">
    <path d="M 735.350294 80.61143 
L 745.714534 80.61143 
L 745.714534 70.24719 
L 735.350294 70.24719 
z
" clip-path="url(#p9c4be2dea2)" style="stroke: #000000; stroke-linejoin: miter"/>
   </g>
   <g id="patch_244">
    <path d="M 763.489731 80.63889 
L 773.90889 80.63889 
L 773.90889 70.219731 
L 763.489731 70.219731 
z
" clip-path="url(#p9c4be2dea2)" style="stroke: #000000; stroke-linejoin: miter"/>
   </g>
   <g id="patch_245">
    <path d="M 791.514255 80.781262 
L 802.218159 80.781262 
L 802.218159 70.077358 
L 791.514255 70.077358 
z
" clip-path="url(#p9c4be2dea2)" style="stroke: #000000; stroke-linejoin: miter"/>
   </g>
   <g id="matplotlib.axis_1">
    <g id="xtick_1">
     <g id="line2d_1">
      <defs>
       <path id="mf06b648416" d="M 0 0 
L 0 3.5 
" style="stroke: #000000; stroke-width: 0.8"/>
      </defs>
      <g>
       <use xlink:href="#mf06b648416" x="64.526897" y="328.931379" style="stroke: #000000; stroke-width: 0.8"/>
      </g>
     </g>
     <g id="text_1">
      <!-- 1 -->
      <g transform="translate(61.51674 350.082942) scale(0.1 -0.1)">
       <defs>
        <path id="DejaVuSansMono-31" d="M 844 531 
L 1825 531 
L 1825 4097 
L 769 3859 
L 769 4434 
L 1819 4666 
L 2450 4666 
L 2450 531 
L 3419 531 
L 3419 0 
L 844 0 
L 844 531 
z
" transform="scale(0.015625)"/>
       </defs>
       <use xlink:href="#DejaVuSansMono-31"/>
      </g>
     </g>
    </g>
    <g id="xtick_2">
     <g id="line2d_2">
      <g>
       <use xlink:href="#mf06b648416" x="796.866207" y="328.931379" style="stroke: #000000; stroke-width: 0.8"/>
      </g>
     </g>
     <g id="text_2">
      <!-- 500 -->
      <g transform="translate(787.835738 350.082942) scale(0.1 -0.1)">
       <defs>
        <path id="DejaVuSansMono-35" d="M 647 4666 
L 3009 4666 
L 3009 4134 
L 1222 4134 
L 1222 2988 
Q 1356 3038 1492 3061 
Q 1628 3084 1766 3084 
Q 2491 3084 2916 2656 
Q 3341 2228 3341 1497 
Q 3341 759 2895 334 
Q 2450 -91 1678 -91 
Q 1306 -91 998 -41 
Q 691 9 447 109 
L 447 750 
Q 734 594 1025 517 
Q 1316 441 1619 441 
Q 2141 441 2423 716 
Q 2706 991 2706 1497 
Q 2706 1997 2414 2275 
Q 2122 2553 1600 2553 
Q 1347 2553 1106 2495 
Q 866 2438 647 2322 
L 647 4666 
z
" transform="scale(0.015625)"/>
        <path id="DejaVuSansMono-30" d="M 1509 2344 
Q 1509 2516 1629 2641 
Q 1750 2766 1919 2766 
Q 2094 2766 2219 2641 
Q 2344 2516 2344 2344 
Q 2344 2169 2220 2047 
Q 2097 1925 1919 1925 
Q 1744 1925 1626 2044 
Q 1509 2163 1509 2344 
z
M 1925 4250 
Q 1484 4250 1267 3775 
Q 1050 3300 1050 2328 
Q 1050 1359 1267 884 
Q 1484 409 1925 409 
Q 2369 409 2586 884 
Q 2803 1359 2803 2328 
Q 2803 3300 2586 3775 
Q 2369 4250 1925 4250 
z
M 1925 4750 
Q 2672 4750 3055 4137 
Q 3438 3525 3438 2328 
Q 3438 1134 3055 521 
Q 2672 -91 1925 -91 
Q 1178 -91 797 521 
Q 416 1134 416 2328 
Q 416 3525 797 4137 
Q 1178 4750 1925 4750 
z
" transform="scale(0.015625)"/>
       </defs>
       <use xlink:href="#DejaVuSansMono-35"/>
       <use xlink:href="#DejaVuSansMono-30" x="60.205078"/>
       <use xlink:href="#DejaVuSansMono-30" x="120.410156"/>
      </g>
     </g>
    </g>
   </g>
   <g id="matplotlib.axis_2">
    <g id="ytick_1">
     <g id="line2d_3">
      <defs>
       <path id="m2705f9502e" d="M 0 0 
L -3.5 0 
" style="stroke: #000000; stroke-width: 0.8"/>
      </defs>
      <g>
       <use xlink:href="#m2705f9502e" x="36.36" y="300.764483" style="stroke: #000000; stroke-width: 0.8"/>
      </g>
     </g>
     <g id="text_3">
      <!-- 2 -->
      <g transform="translate(16.839687 304.590264) scale(0.1 -0.1)">
       <defs>
        <path id="DejaVuSansMono-32" d="M 1166 531 
L 3309 531 
L 3309 0 
L 475 0 
L 475 531 
Q 1059 1147 1496 1619 
Q 1934 2091 2100 2284 
Q 2413 2666 2522 2902 
Q 2631 3138 2631 3384 
Q 2631 3775 2401 3997 
Q 2172 4219 1772 4219 
Q 1488 4219 1175 4116 
Q 863 4013 513 3803 
L 513 4441 
Q 834 4594 1145 4672 
Q 1456 4750 1759 4750 
Q 2444 4750 2861 4386 
Q 3278 4022 3278 3431 
Q 3278 3131 3139 2831 
Q 3000 2531 2688 2169 
Q 2513 1966 2180 1606 
Q 1847 1247 1166 531 
z
" transform="scale(0.015625)"/>
       </defs>
       <use xlink:href="#DejaVuSansMono-32"/>
      </g>
     </g>
    </g>
    <g id="ytick_2">
     <g id="line2d_4">
      <g>
       <use xlink:href="#m2705f9502e" x="36.36" y="272.597586" style="stroke: #000000; stroke-width: 0.8"/>
      </g>
     </g>
     <g id="text_4">
      <!-- 3 -->
      <g transform="translate(16.839687 276.423367) scale(0.1 -0.1)">
       <defs>
        <path id="DejaVuSansMono-33" d="M 2425 2497 
Q 2884 2375 3128 2064 
Q 3372 1753 3372 1288 
Q 3372 644 2939 276 
Q 2506 -91 1741 -91 
Q 1419 -91 1084 -31 
Q 750 28 428 141 
L 428 769 
Q 747 603 1056 522 
Q 1366 441 1672 441 
Q 2191 441 2469 675 
Q 2747 909 2747 1350 
Q 2747 1756 2469 1995 
Q 2191 2234 1716 2234 
L 1234 2234 
L 1234 2753 
L 1716 2753 
Q 2150 2753 2394 2943 
Q 2638 3134 2638 3475 
Q 2638 3834 2411 4026 
Q 2184 4219 1766 4219 
Q 1488 4219 1191 4156 
Q 894 4094 569 3969 
L 569 4550 
Q 947 4650 1242 4700 
Q 1538 4750 1766 4750 
Q 2447 4750 2855 4408 
Q 3263 4066 3263 3500 
Q 3263 3116 3048 2859 
Q 2834 2603 2425 2497 
z
" transform="scale(0.015625)"/>
       </defs>
       <use xlink:href="#DejaVuSansMono-33"/>
      </g>
     </g>
    </g>
    <g id="ytick_3">
     <g id="line2d_5">
      <g>
       <use xlink:href="#m2705f9502e" x="36.36" y="244.43069" style="stroke: #000000; stroke-width: 0.8"/>
      </g>
     </g>
     <g id="text_5">
      <!-- 5 -->
      <g transform="translate(16.839687 248.256471) scale(0.1 -0.1)">
       <use xlink:href="#DejaVuSansMono-35"/>
      </g>
     </g>
    </g>
    <g id="ytick_4">
     <g id="line2d_6">
      <g>
       <use xlink:href="#m2705f9502e" x="36.36" y="216.263793" style="stroke: #000000; stroke-width: 0.8"/>
      </g>
     </g>
     <g id="text_6">
      <!-- 7 -->
      <g transform="translate(16.839687 220.089574) scale(0.1 -0.1)">
       <defs>
        <path id="DejaVuSansMono-37" d="M 434 4666 
L 3372 4666 
L 3372 4397 
L 1703 0 
L 1044 0 
L 2669 4134 
L 434 4134 
L 434 4666 
z
" transform="scale(0.015625)"/>
       </defs>
       <use xlink:href="#DejaVuSansMono-37"/>
      </g>
     </g>
    </g>
    <g id="ytick_5">
     <g id="line2d_7">
      <g>
       <use xlink:href="#m2705f9502e" x="36.36" y="188.096897" style="stroke: #000000; stroke-width: 0.8"/>
      </g>
     </g>
     <g id="text_7">
      <!-- 11 -->
      <g transform="translate(10.819375 191.922678) scale(0.1 -0.1)">
       <use xlink:href="#DejaVuSansMono-31"/>
       <use xlink:href="#DejaVuSansMono-31" x="60.205078"/>
      </g>
     </g>
    </g>
    <g id="ytick_6">
     <g id="line2d_8">
      <g>
       <use xlink:href="#m2705f9502e" x="36.36" y="159.93" style="stroke: #000000; stroke-width: 0.8"/>
      </g>
     </g>
     <g id="text_8">
      <!-- 13 -->
      <g transform="translate(10.819375 163.755781) scale(0.1 -0.1)">
       <use xlink:href="#DejaVuSansMono-31"/>
       <use xlink:href="#DejaVuSansMono-33" x="60.205078"/>
      </g>
     </g>
    </g>
    <g id="ytick_7">
     <g id="line2d_9">
      <g>
       <use xlink:href="#m2705f9502e" x="36.36" y="131.763103" style="stroke: #000000; stroke-width: 0.8"/>
      </g>
     </g>
     <g id="text_9">
      <!-- 17 -->
      <g transform="translate(10.819375 135.588885) scale(0.1 -0.1)">
       <use xlink:href="#DejaVuSansMono-31"/>
       <use xlink:href="#DejaVuSansMono-37" x="60.205078"/>
      </g>
     </g>
    </g>
    <g id="ytick_8">
     <g id="line2d_10">
      <g>
       <use xlink:href="#m2705f9502e" x="36.36" y="103.596207" style="stroke: #000000; stroke-width: 0.8"/>
      </g>
     </g>
     <g id="text_10">
      <!-- 19 -->
      <g transform="translate(10.819375 107.421988) scale(0.1 -0.1)">
       <defs>
        <path id="DejaVuSansMono-39" d="M 1863 2069 
Q 2266 2069 2495 2359 
Q 2725 2650 2725 3163 
Q 2725 3675 2495 3965 
Q 2266 4256 1863 4256 
Q 1444 4256 1231 3979 
Q 1019 3703 1019 3163 
Q 1019 2619 1230 2344 
Q 1441 2069 1863 2069 
z
M 738 97 
L 738 678 
Q 934 563 1156 502 
Q 1378 441 1619 441 
Q 2219 441 2526 892 
Q 2834 1344 2834 2222 
Q 2688 1909 2422 1742 
Q 2156 1575 1813 1575 
Q 1138 1575 767 1990 
Q 397 2406 397 3169 
Q 397 3922 776 4336 
Q 1156 4750 1850 4750 
Q 2663 4750 3041 4165 
Q 3419 3581 3419 2328 
Q 3419 1150 2964 529 
Q 2509 -91 1644 -91 
Q 1416 -91 1184 -42 
Q 953 6 738 97 
z
" transform="scale(0.015625)"/>
       </defs>
       <use xlink:href="#DejaVuSansMono-31"/>
       <use xlink:href="#DejaVuSansMono-39" x="60.205078"/>
      </g>
     </g>
    </g>
    <g id="ytick_9">
     <g id="line2d_11">
      <g>
       <use xlink:href="#m2705f9502e" x="36.36" y="75.42931" style="stroke: #000000; stroke-width: 0.8"/>
      </g>
     </g>
     <g id="text_11">
      <!--  -->
      <g transform="translate(16.839687 79.255092) scale(0.1 -0.1)">
       <defs>
        <path id="DejaVuSansMono-2119" d="M 506 4353 
L 506 313 
L 1106 313 
L 1106 4353 
L 506 4353 
z
M 1406 4353 
L 1406 2284 
L 2306 2284 
Q 2378 2284 2447 2291 
L 2447 4347 
Q 2378 4353 2306 4353 
L 1406 4353 
z
M 206 4666 
L 2166 4666 
Q 2913 4666 3297 4323 
Q 3681 3981 3681 3322 
Q 3681 2656 3297 2315 
Q 2913 1975 2163 1975 
L 1406 1975 
L 1406 0 
L 206 0 
L 206 4666 
z
M 2759 4281 
L 2759 2359 
Q 2941 2428 3075 2556 
Q 3353 2825 3353 3322 
Q 3353 3816 3078 4084 
Q 2947 4213 2759 4281 
z
" transform="scale(0.015625)"/>
       </defs>
       <use xlink:href="#DejaVuSansMono-2119"/>
      </g>
     </g>
    </g>
   </g>
  </g>
 </g>
 <defs>
  <clipPath id="p9c4be2dea2">
   <rect x="36.36" y="19.095517" width="816.84" height="309.835862"/>
  </clipPath>
 </defs>
</svg>
