<?xml version="1.0" encoding="utf-8" standalone="no"?>
<!DOCTYPE svg PUBLIC "-//W3C//DTD SVG 1.1//EN"
  "http://www.w3.org/Graphics/SVG/1.1/DTD/svg11.dtd">
<svg xmlns:xlink="http://www.w3.org/1999/xlink" width="864pt" height="432pt" viewBox="0 0 864 432" xmlns="http://www.w3.org/2000/svg" version="1.1">
 <metadata>
  <rdf:RDF xmlns:dc="http://purl.org/dc/elements/1.1/" xmlns:cc="http://creativecommons.org/ns#" xmlns:rdf="http://www.w3.org/1999/02/22-rdf-syntax-ns#">
   <cc:Work>
    <dc:type rdf:resource="http://purl.org/dc/dcmitype/StillImage"/>
    <dc:date>2024-09-16T23:43:32.710767</dc:date>
    <dc:format>image/svg+xml</dc:format>
    <dc:creator>
     <cc:Agent>
      <dc:title>Matplotlib v3.9.2, https://matplotlib.org/</dc:title>
     </cc:Agent>
    </dc:creator>
   </cc:Work>
  </rdf:RDF>
 </metadata>
 <defs>
  <style type="text/css">*{stroke-linejoin: round; stroke-linecap: butt}</style>
 </defs>
 <g id="figure_1">
  <g id="patch_1">
   <path d="M 0 432 
L 864 432 
L 864 0 
L 0 0 
z
" style="fill: #ffffff"/>
  </g>
  <g id="axes_1">
   <g id="patch_2">
    <path d="M 41.92 404.12 
L 853.2 404.12 
L 853.2 14.342629 
L 41.92 14.342629 
z
" style="fill: #ffffff"/>
   </g>
   <g id="matplotlib.axis_1">
    <g id="xtick_1">
     <g id="line2d_1">
      <defs>
       <path id="mca773c1807" d="M 0 0 
L 0 3.5 
" style="stroke: #000000; stroke-width: 0.8"/>
      </defs>
      <g>
       <use xlink:href="#mca773c1807" x="193.718753" y="404.12" style="stroke: #000000; stroke-width: 0.8"/>
      </g>
     </g>
     <g id="text_1">
      <!-- 100 -->
      <g transform="translate(184.688284 418.771563) scale(0.1 -0.1)">
       <defs>
        <path id="DejaVuSansMono-31" d="M 844 531 
L 1825 531 
L 1825 4097 
L 769 3859 
L 769 4434 
L 1819 4666 
L 2450 4666 
L 2450 531 
L 3419 531 
L 3419 0 
L 844 0 
L 844 531 
z
" transform="scale(0.015625)"/>
        <path id="DejaVuSansMono-30" d="M 1509 2344 
Q 1509 2516 1629 2641 
Q 1750 2766 1919 2766 
Q 2094 2766 2219 2641 
Q 2344 2516 2344 2344 
Q 2344 2169 2220 2047 
Q 2097 1925 1919 1925 
Q 1744 1925 1626 2044 
Q 1509 2163 1509 2344 
z
M 1925 4250 
Q 1484 4250 1267 3775 
Q 1050 3300 1050 2328 
Q 1050 1359 1267 884 
Q 1484 409 1925 409 
Q 2369 409 2586 884 
Q 2803 1359 2803 2328 
Q 2803 3300 2586 3775 
Q 2369 4250 1925 4250 
z
M 1925 4750 
Q 2672 4750 3055 4137 
Q 3438 3525 3438 2328 
Q 3438 1134 3055 521 
Q 2672 -91 1925 -91 
Q 1178 -91 797 521 
Q 416 1134 416 2328 
Q 416 3525 797 4137 
Q 1178 4750 1925 4750 
z
" transform="scale(0.015625)"/>
       </defs>
       <use xlink:href="#DejaVuSansMono-31"/>
       <use xlink:href="#DejaVuSansMono-30" x="60.205078"/>
       <use xlink:href="#DejaVuSansMono-30" x="120.410156"/>
      </g>
     </g>
    </g>
    <g id="xtick_2">
     <g id="line2d_2">
      <g>
       <use xlink:href="#mca773c1807" x="362.384033" y="404.12" style="stroke: #000000; stroke-width: 0.8"/>
      </g>
     </g>
     <g id="text_2">
      <!-- 200 -->
      <g transform="translate(353.353565 418.771563) scale(0.1 -0.1)">
       <defs>
        <path id="DejaVuSansMono-32" d="M 1166 531 
L 3309 531 
L 3309 0 
L 475 0 
L 475 531 
Q 1059 1147 1496 1619 
Q 1934 2091 2100 2284 
Q 2413 2666 2522 2902 
Q 2631 3138 2631 3384 
Q 2631 3775 2401 3997 
Q 2172 4219 1772 4219 
Q 1488 4219 1175 4116 
Q 863 4013 513 3803 
L 513 4441 
Q 834 4594 1145 4672 
Q 1456 4750 1759 4750 
Q 2444 4750 2861 4386 
Q 3278 4022 3278 3431 
Q 3278 3131 3139 2831 
Q 3000 2531 2688 2169 
Q 2513 1966 2180 1606 
Q 1847 1247 1166 531 
z
" transform="scale(0.015625)"/>
       </defs>
       <use xlink:href="#DejaVuSansMono-32"/>
       <use xlink:href="#DejaVuSansMono-30" x="60.205078"/>
       <use xlink:href="#DejaVuSansMono-30" x="120.410156"/>
      </g>
     </g>
    </g>
    <g id="xtick_3">
     <g id="line2d_3">
      <g>
       <use xlink:href="#mca773c1807" x="531.049314" y="404.12" style="stroke: #000000; stroke-width: 0.8"/>
      </g>
     </g>
     <g id="text_3">
      <!-- 300 -->
      <g transform="translate(522.018845 418.771563) scale(0.1 -0.1)">
       <defs>
        <path id="DejaVuSansMono-33" d="M 2425 2497 
Q 2884 2375 3128 2064 
Q 3372 1753 3372 1288 
Q 3372 644 2939 276 
Q 2506 -91 1741 -91 
Q 1419 -91 1084 -31 
Q 750 28 428 141 
L 428 769 
Q 747 603 1056 522 
Q 1366 441 1672 441 
Q 2191 441 2469 675 
Q 2747 909 2747 1350 
Q 2747 1756 2469 1995 
Q 2191 2234 1716 2234 
L 1234 2234 
L 1234 2753 
L 1716 2753 
Q 2150 2753 2394 2943 
Q 2638 3134 2638 3475 
Q 2638 3834 2411 4026 
Q 2184 4219 1766 4219 
Q 1488 4219 1191 4156 
Q 894 4094 569 3969 
L 569 4550 
Q 947 4650 1242 4700 
Q 1538 4750 1766 4750 
Q 2447 4750 2855 4408 
Q 3263 4066 3263 3500 
Q 3263 3116 3048 2859 
Q 2834 2603 2425 2497 
z
" transform="scale(0.015625)"/>
       </defs>
       <use xlink:href="#DejaVuSansMono-33"/>
       <use xlink:href="#DejaVuSansMono-30" x="60.205078"/>
       <use xlink:href="#DejaVuSansMono-30" x="120.410156"/>
      </g>
     </g>
    </g>
    <g id="xtick_4">
     <g id="line2d_4">
      <g>
       <use xlink:href="#mca773c1807" x="699.714595" y="404.12" style="stroke: #000000; stroke-width: 0.8"/>
      </g>
     </g>
     <g id="text_4">
      <!-- 400 -->
      <g transform="translate(690.684126 418.771563) scale(0.1 -0.1)">
       <defs>
        <path id="DejaVuSansMono-34" d="M 2297 4091 
L 825 1625 
L 2297 1625 
L 2297 4091 
z
M 2194 4666 
L 2925 4666 
L 2925 1625 
L 3547 1625 
L 3547 1113 
L 2925 1113 
L 2925 0 
L 2297 0 
L 2297 1113 
L 319 1113 
L 319 1709 
L 2194 4666 
z
" transform="scale(0.015625)"/>
       </defs>
       <use xlink:href="#DejaVuSansMono-34"/>
       <use xlink:href="#DejaVuSansMono-30" x="60.205078"/>
       <use xlink:href="#DejaVuSansMono-30" x="120.410156"/>
      </g>
     </g>
    </g>
   </g>
   <g id="matplotlib.axis_2">
    <g id="ytick_1">
     <g id="line2d_5">
      <defs>
       <path id="me885fe3430" d="M 0 0 
L -3.5 0 
" style="stroke: #000000; stroke-width: 0.8"/>
      </defs>
      <g>
       <use xlink:href="#me885fe3430" x="41.92" y="386.402847" style="stroke: #000000; stroke-width: 0.8"/>
      </g>
     </g>
     <g id="text_5">
      <!-- 0.00 -->
      <g transform="translate(10.83875 390.228628) scale(0.1 -0.1)">
       <defs>
        <path id="DejaVuSansMono-2e" d="M 1528 953 
L 2316 953 
L 2316 0 
L 1528 0 
L 1528 953 
z
" transform="scale(0.015625)"/>
       </defs>
       <use xlink:href="#DejaVuSansMono-30"/>
       <use xlink:href="#DejaVuSansMono-2e" x="60.205078"/>
       <use xlink:href="#DejaVuSansMono-30" x="120.410156"/>
       <use xlink:href="#DejaVuSansMono-30" x="180.615234"/>
      </g>
     </g>
    </g>
    <g id="ytick_2">
     <g id="line2d_6">
      <g>
       <use xlink:href="#me885fe3430" x="41.92" y="333.321253" style="stroke: #000000; stroke-width: 0.8"/>
      </g>
     </g>
     <g id="text_6">
      <!-- 0.02 -->
      <g transform="translate(10.83875 337.147034) scale(0.1 -0.1)">
       <use xlink:href="#DejaVuSansMono-30"/>
       <use xlink:href="#DejaVuSansMono-2e" x="60.205078"/>
       <use xlink:href="#DejaVuSansMono-30" x="120.410156"/>
       <use xlink:href="#DejaVuSansMono-32" x="180.615234"/>
      </g>
     </g>
    </g>
    <g id="ytick_3">
     <g id="line2d_7">
      <g>
       <use xlink:href="#me885fe3430" x="41.92" y="280.23966" style="stroke: #000000; stroke-width: 0.8"/>
      </g>
     </g>
     <g id="text_7">
      <!-- 0.04 -->
      <g transform="translate(10.83875 284.065441) scale(0.1 -0.1)">
       <use xlink:href="#DejaVuSansMono-30"/>
       <use xlink:href="#DejaVuSansMono-2e" x="60.205078"/>
       <use xlink:href="#DejaVuSansMono-30" x="120.410156"/>
       <use xlink:href="#DejaVuSansMono-34" x="180.615234"/>
      </g>
     </g>
    </g>
    <g id="ytick_4">
     <g id="line2d_8">
      <g>
       <use xlink:href="#me885fe3430" x="41.92" y="227.158066" style="stroke: #000000; stroke-width: 0.8"/>
      </g>
     </g>
     <g id="text_8">
      <!-- 0.06 -->
      <g transform="translate(10.83875 230.983847) scale(0.1 -0.1)">
       <defs>
        <path id="DejaVuSansMono-36" d="M 3097 4563 
L 3097 3981 
Q 2900 4097 2678 4158 
Q 2456 4219 2216 4219 
Q 1616 4219 1306 3767 
Q 997 3316 997 2438 
Q 1147 2750 1412 2917 
Q 1678 3084 2022 3084 
Q 2697 3084 3067 2670 
Q 3438 2256 3438 1497 
Q 3438 741 3056 325 
Q 2675 -91 1984 -91 
Q 1172 -91 794 492 
Q 416 1075 416 2328 
Q 416 3509 870 4129 
Q 1325 4750 2188 4750 
Q 2419 4750 2650 4701 
Q 2881 4653 3097 4563 
z
M 1972 2591 
Q 1569 2591 1337 2300 
Q 1106 2009 1106 1497 
Q 1106 984 1337 693 
Q 1569 403 1972 403 
Q 2391 403 2603 679 
Q 2816 956 2816 1497 
Q 2816 2041 2603 2316 
Q 2391 2591 1972 2591 
z
" transform="scale(0.015625)"/>
       </defs>
       <use xlink:href="#DejaVuSansMono-30"/>
       <use xlink:href="#DejaVuSansMono-2e" x="60.205078"/>
       <use xlink:href="#DejaVuSansMono-30" x="120.410156"/>
       <use xlink:href="#DejaVuSansMono-36" x="180.615234"/>
      </g>
     </g>
    </g>
    <g id="ytick_5">
     <g id="line2d_9">
      <g>
       <use xlink:href="#me885fe3430" x="41.92" y="174.076472" style="stroke: #000000; stroke-width: 0.8"/>
      </g>
     </g>
     <g id="text_9">
      <!-- 0.08 -->
      <g transform="translate(10.83875 177.902254) scale(0.1 -0.1)">
       <defs>
        <path id="DejaVuSansMono-38" d="M 1925 2216 
Q 1503 2216 1273 1980 
Q 1044 1744 1044 1313 
Q 1044 881 1276 642 
Q 1509 403 1925 403 
Q 2350 403 2579 639 
Q 2809 875 2809 1313 
Q 2809 1741 2576 1978 
Q 2344 2216 1925 2216 
z
M 1375 2478 
Q 972 2581 745 2862 
Q 519 3144 519 3541 
Q 519 4097 897 4423 
Q 1275 4750 1925 4750 
Q 2578 4750 2956 4423 
Q 3334 4097 3334 3541 
Q 3334 3144 3107 2862 
Q 2881 2581 2478 2478 
Q 2947 2375 3195 2062 
Q 3444 1750 3444 1253 
Q 3444 622 3041 265 
Q 2638 -91 1925 -91 
Q 1213 -91 811 264 
Q 409 619 409 1247 
Q 409 1747 657 2061 
Q 906 2375 1375 2478 
z
M 1147 3481 
Q 1147 3106 1347 2909 
Q 1547 2713 1925 2713 
Q 2306 2713 2506 2909 
Q 2706 3106 2706 3481 
Q 2706 3863 2507 4063 
Q 2309 4263 1925 4263 
Q 1547 4263 1347 4061 
Q 1147 3859 1147 3481 
z
" transform="scale(0.015625)"/>
       </defs>
       <use xlink:href="#DejaVuSansMono-30"/>
       <use xlink:href="#DejaVuSansMono-2e" x="60.205078"/>
       <use xlink:href="#DejaVuSansMono-30" x="120.410156"/>
       <use xlink:href="#DejaVuSansMono-38" x="180.615234"/>
      </g>
     </g>
    </g>
    <g id="ytick_6">
     <g id="line2d_10">
      <g>
       <use xlink:href="#me885fe3430" x="41.92" y="120.994879" style="stroke: #000000; stroke-width: 0.8"/>
      </g>
     </g>
     <g id="text_10">
      <!-- 0.10 -->
      <g transform="translate(10.83875 124.82066) scale(0.1 -0.1)">
       <use xlink:href="#DejaVuSansMono-30"/>
       <use xlink:href="#DejaVuSansMono-2e" x="60.205078"/>
       <use xlink:href="#DejaVuSansMono-31" x="120.410156"/>
       <use xlink:href="#DejaVuSansMono-30" x="180.615234"/>
      </g>
     </g>
    </g>
    <g id="ytick_7">
     <g id="line2d_11">
      <g>
       <use xlink:href="#me885fe3430" x="41.92" y="67.913285" style="stroke: #000000; stroke-width: 0.8"/>
      </g>
     </g>
     <g id="text_11">
      <!-- 0.12 -->
      <g transform="translate(10.83875 71.739066) scale(0.1 -0.1)">
       <use xlink:href="#DejaVuSansMono-30"/>
       <use xlink:href="#DejaVuSansMono-2e" x="60.205078"/>
       <use xlink:href="#DejaVuSansMono-31" x="120.410156"/>
       <use xlink:href="#DejaVuSansMono-32" x="180.615234"/>
      </g>
     </g>
    </g>
    <g id="ytick_8">
     <g id="line2d_12">
      <g>
       <use xlink:href="#me885fe3430" x="41.92" y="14.831692" style="stroke: #000000; stroke-width: 0.8"/>
      </g>
     </g>
     <g id="text_12">
      <!-- 0.14 -->
      <g transform="translate(10.83875 18.657473) scale(0.1 -0.1)">
       <use xlink:href="#DejaVuSansMono-30"/>
       <use xlink:href="#DejaVuSansMono-2e" x="60.205078"/>
       <use xlink:href="#DejaVuSansMono-31" x="120.410156"/>
       <use xlink:href="#DejaVuSansMono-34" x="180.615234"/>
      </g>
     </g>
    </g>
   </g>
   <g id="line2d_13">
    <path d="M 25.053472 66.271053 
L 26.740125 147.556097 
L 28.426778 73.285551 
L 30.11343 102.383311 
L 31.800083 102.383311 
L 33.486736 186.25444 
L 35.173389 150.866713 
L 36.860042 98.964711 
L 38.546694 98.964711 
L 40.233347 172.565244 
L 43.606653 172.565244 
L 45.293306 246.835789 
L 46.979958 299.113118 
L 50.353264 299.113118 
L 52.039917 334.500845 
L 53.72657 386.402847 
L 55.413222 307.100222 
L 57.099875 260.38842 
L 60.473181 260.38842 
L 62.159834 231.951853 
L 65.533139 231.951853 
L 67.219792 164.393462 
L 68.906445 102.95643 
L 70.593098 32.059782 
L 72.279751 84.553522 
L 73.966403 131.265325 
L 77.339709 92.687062 
L 79.026362 121.123628 
L 82.399667 121.123628 
L 84.08632 188.682019 
L 85.772973 244.087053 
L 87.459626 314.9837 
L 89.146279 341.792586 
L 90.832931 341.792586 
L 92.519584 307.445674 
L 94.206237 327.289258 
L 100.952848 327.289258 
L 102.639501 333.321256 
L 106.012807 333.321256 
L 107.699459 245.648959 
L 109.386112 291.925217 
L 111.072765 291.925217 
L 112.759418 208.745806 
L 114.446071 208.745806 
L 116.132723 173.650539 
L 117.819376 95.196609 
L 119.506029 88.391276 
L 121.192682 43.1279 
L 122.879335 43.1279 
L 124.565988 130.800197 
L 126.25264 137.60553 
L 127.939293 137.60553 
L 129.625946 220.784941 
L 131.312599 220.784941 
L 132.999252 183.335369 
L 134.685904 261.789299 
L 136.372557 185.415221 
L 138.05921 230.678597 
L 141.432516 230.678597 
L 143.119168 213.369384 
L 144.805821 133.995033 
L 146.492474 133.995033 
L 148.179127 88.819206 
L 149.86578 161.364045 
L 151.552432 161.364045 
L 153.239085 244.543456 
L 158.299044 244.543456 
L 159.985696 187.716368 
L 161.672349 267.090719 
L 163.359002 267.090719 
L 165.045655 312.266546 
L 170.105613 312.266546 
L 171.792266 301.858391 
L 175.165572 301.858391 
L 176.852225 294.688094 
L 178.538877 294.688094 
L 180.22553 236.469568 
L 181.912183 152.596059 
L 185.285489 152.596059 
L 186.972141 145.790726 
L 188.658794 156.198881 
L 192.0321 142.840265 
L 193.718753 224.146863 
L 195.405405 224.146863 
L 197.092058 282.365389 
L 198.778711 366.238898 
L 200.465364 343.888753 
L 202.152017 275.149994 
L 203.838669 281.955327 
L 205.525322 281.955327 
L 207.211975 288.76066 
L 208.898628 210.673589 
L 215.645239 210.673589 
L 217.331892 233.023734 
L 219.018545 301.762493 
L 222.39185 301.762493 
L 224.078503 295.367121 
L 225.765156 380.007475 
L 227.451809 323.134338 
L 230.825114 158.340331 
L 239.258378 158.340331 
L 240.945031 164.735703 
L 242.631684 164.735703 
L 244.318337 221.608839 
L 247.691642 386.402847 
L 251.064948 386.402847 
L 252.751601 335.44452 
L 254.438254 323.380524 
L 257.811559 323.380524 
L 259.498212 239.933477 
L 267.931476 239.933477 
L 269.618129 285.058662 
L 271.304782 297.122659 
L 272.991435 297.122659 
L 274.678087 217.409691 
L 276.36474 300.856737 
L 281.424699 300.856737 
L 283.111351 294.221538 
L 284.798004 294.221538 
L 286.484657 300.05468 
L 288.17131 246.203792 
L 289.857963 246.203792 
L 291.544615 325.916761 
L 294.917921 325.916761 
L 296.604574 313.278286 
L 298.291227 313.278286 
L 299.977879 319.913485 
L 301.664532 265.669521 
L 303.351185 265.669521 
L 305.037838 319.520409 
L 311.784449 319.520409 
L 313.471102 332.158883 
L 316.844407 332.158883 
L 318.53106 301.195955 
L 330.33763 301.195955 
L 332.024283 226.399164 
L 333.710936 226.399164 
L 335.397588 311.606056 
L 345.517505 311.606056 
L 347.204158 234.964184 
L 348.890811 309.760975 
L 362.384033 309.760975 
L 364.070686 386.402847 
L 365.757339 386.402847 
L 367.443992 354.553891 
L 382.623867 354.553891 
L 384.31052 386.402847 
L 385.997173 386.402847 
L 387.683825 365.586537 
L 389.370478 359.033254 
L 391.057131 312.538428 
L 399.490395 312.538428 
L 401.177048 300.335764 
L 402.863701 300.335764 
L 404.550353 298.564161 
L 406.237006 305.117444 
L 407.923659 351.612269 
L 416.356923 351.612269 
L 418.043576 363.814933 
L 419.730229 363.814933 
L 421.416881 379.597514 
L 423.103534 379.597514 
L 424.790187 355.740618 
L 426.47684 265.474967 
L 433.223451 265.474967 
L 434.910104 206.495418 
L 436.596757 206.495418 
L 438.28341 213.300751 
L 439.970062 213.300751 
L 441.656715 219.658222 
L 443.343368 309.923872 
L 450.089979 309.923872 
L 451.776632 368.903421 
L 453.463285 281.59817 
L 456.83659 281.59817 
L 458.523243 299.097595 
L 463.583202 53.199923 
L 468.64316 53.199923 
L 470.329813 140.505174 
L 475.389771 140.505174 
L 480.44973 386.402847 
L 509.122827 386.402847 
L 510.80948 299.542061 
L 512.496133 299.542061 
L 514.182786 248.641903 
L 525.989356 248.641903 
L 527.676008 335.502689 
L 529.362661 335.502689 
L 531.049314 386.402847 
L 532.735967 386.402847 
L 534.42262 379.767648 
L 547.915842 379.767648 
L 549.602495 289.937264 
L 551.289148 296.572463 
L 552.9758 296.572463 
L 554.662453 290.01918 
L 558.035759 290.01918 
L 561.409064 151.665228 
L 564.78237 151.665228 
L 566.469023 241.495612 
L 569.842328 241.495612 
L 571.528981 192.755562 
L 574.902287 192.755562 
L 576.58894 254.775124 
L 578.275593 324.390325 
L 579.962245 256.887722 
L 585.022204 256.887722 
L 586.708857 179.061321 
L 588.395509 195.749857 
L 591.768815 195.749857 
L 593.455468 202.469045 
L 595.142121 196.571091 
L 596.828773 257.268362 
L 601.888732 257.268362 
L 603.575385 277.486831 
L 605.262037 316.091629 
L 610.321996 316.091629 
L 612.008649 321.989583 
L 615.381954 322.075727 
L 618.75526 322.075727 
L 620.441913 356.852863 
L 628.875177 356.852863 
L 630.56183 363.572052 
L 632.248482 322.029936 
L 635.621788 322.029936 
L 637.308441 344.86073 
L 638.995094 292.64933 
L 647.428358 292.64933 
L 649.11501 334.191446 
L 652.488316 334.191446 
L 654.174969 322.395538 
L 655.861622 327.135601 
L 657.548274 243.784334 
L 659.234927 243.784334 
L 660.92158 236.89062 
L 664.294886 236.89062 
L 665.981538 152.817286 
L 667.668191 102.66145 
L 669.354844 102.66145 
L 671.041497 114.457358 
L 672.72815 161.928696 
L 674.414802 245.279962 
L 676.101455 245.279962 
L 677.788108 252.173676 
L 681.161414 252.173676 
L 682.848067 336.24701 
L 684.534719 386.402847 
L 698.027942 386.402847 
L 701.401247 227.937876 
L 703.0879 227.937876 
L 704.774553 178.173878 
L 706.461206 178.173878 
L 708.147859 135.519023 
L 714.89447 135.519023 
L 718.267775 293.983993 
L 719.954428 293.983993 
L 721.641081 343.747991 
L 723.327734 343.747991 
L 725.014387 386.402847 
L 730.074345 386.402847 
L 731.760998 379.849564 
L 733.447651 308.453271 
L 735.134304 308.453271 
L 736.820956 284.861454 
L 743.567568 284.861454 
L 746.940873 117.887267 
L 748.627526 124.44055 
L 750.314179 195.836842 
L 752.000832 195.836842 
L 753.687484 219.42866 
L 760.434096 219.42866 
L 763.807401 386.402847 
L 765.494054 379.849564 
L 770.554012 379.849564 
L 772.240665 354.268072 
L 780.673929 354.268072 
L 782.360582 360.821355 
L 785.733888 360.821355 
L 787.420541 273.563941 
L 789.107193 256.21179 
L 792.480499 256.21179 
L 794.167152 238.319118 
L 802.600416 238.319118 
L 804.287069 325.576532 
L 805.973721 368.510175 
L 809.347027 368.510175 
L 811.03368 386.402847 
L 812.720333 386.402847 
L 816.093638 218.943467 
L 817.780291 218.943467 
L 819.466944 190.404975 
L 829.586861 190.404975 
L 832.960166 357.864355 
L 834.646819 357.864355 
L 836.333472 356.91307 
L 851.513347 356.91307 
L 851.513347 356.91307 
" clip-path="url(#p41c3df738a)" style="fill: none; stroke-dasharray: 7.4,3.2; stroke-dashoffset: 0; stroke: #000000; stroke-width: 2"/>
   </g>
   <g id="patch_3">
    <path d="M 41.92 404.12 
L 41.92 14.342629 
" style="fill: none; stroke: #000000; stroke-width: 0.8; stroke-linejoin: miter; stroke-linecap: square"/>
   </g>
   <g id="patch_4">
    <path d="M 853.2 404.12 
L 853.2 14.342629 
" style="fill: none; stroke: #000000; stroke-width: 0.8; stroke-linejoin: miter; stroke-linecap: square"/>
   </g>
   <g id="patch_5">
    <path d="M 41.92 404.12 
L 853.2 404.12 
" style="fill: none; stroke: #000000; stroke-width: 0.8; stroke-linejoin: miter; stroke-linecap: square"/>
   </g>
   <g id="patch_6">
    <path d="M 41.92 14.342629 
L 853.2 14.342629 
" style="fill: none; stroke: #000000; stroke-width: 0.8; stroke-linejoin: miter; stroke-linecap: square"/>
   </g>
  </g>
 </g>
 <defs>
  <clipPath id="p41c3df738a">
   <rect x="41.92" y="14.342629" width="811.28" height="389.777371"/>
  </clipPath>
 </defs>
</svg>
