<?xml version="1.0" encoding="utf-8" standalone="no"?>
<!DOCTYPE svg PUBLIC "-//W3C//DTD SVG 1.1//EN"
  "http://www.w3.org/Graphics/SVG/1.1/DTD/svg11.dtd">
<svg xmlns:xlink="http://www.w3.org/1999/xlink" width="720pt" height="720pt" viewBox="0 0 720 720" xmlns="http://www.w3.org/2000/svg" version="1.1">
 <metadata>
  <rdf:RDF xmlns:dc="http://purl.org/dc/elements/1.1/" xmlns:cc="http://creativecommons.org/ns#" xmlns:rdf="http://www.w3.org/1999/02/22-rdf-syntax-ns#">
   <cc:Work>
    <dc:type rdf:resource="http://purl.org/dc/dcmitype/StillImage"/>
    <dc:date>2024-09-04T22:34:01.465386</dc:date>
    <dc:format>image/svg+xml</dc:format>
    <dc:creator>
     <cc:Agent>
      <dc:title>Matplotlib v3.9.2, https://matplotlib.org/</dc:title>
     </cc:Agent>
    </dc:creator>
   </cc:Work>
  </rdf:RDF>
 </metadata>
 <defs>
  <style type="text/css">*{stroke-linejoin: round; stroke-linecap: butt}</style>
 </defs>
 <g id="figure_1">
  <g id="patch_1">
   <path d="M 0 720 
L 720 720 
L 720 0 
L 0 0 
z
" style="fill: #ffffff"/>
  </g>
  <g id="axes_1">
   <g id="patch_2">
    <path d="M 709.2 360 
C 709.2 314.143476 700.167265 268.732849 682.618733 226.366945 
C 665.070201 184.001042 639.347147 145.503771 606.921688 113.078312 
C 574.496229 80.652853 535.998958 54.929799 493.633055 37.381267 
C 451.267151 19.832735 405.856524 10.8 360 10.8 
C 314.143476 10.8 268.732849 19.832735 226.366945 37.381267 
C 184.001042 54.929799 145.503771 80.652853 113.078312 113.078312 
C 80.652853 145.503771 54.929799 184.001042 37.381267 226.366945 
C 19.832735 268.732849 10.8 314.143476 10.8 360 
C 10.8 405.856524 19.832735 451.267151 37.381267 493.633055 
C 54.929799 535.998958 80.652853 574.496229 113.078312 606.921688 
C 145.503771 639.347147 184.001042 665.070201 226.366945 682.618733 
C 268.732849 700.167265 314.143476 709.2 360 709.2 
C 405.856524 709.2 451.267151 700.167265 493.633055 682.618733 
C 535.998958 665.070201 574.496229 639.347147 606.921688 606.921688 
C 639.347147 574.496229 665.070201 535.998958 682.618733 493.633055 
C 700.167265 451.267151 709.2 405.856524 709.2 360 
M 360 360 
C 360 360 360 360 360 360 
C 360 360 360 360 360 360 
C 360 360 360 360 360 360 
C 360 360 360 360 360 360 
C 360 360 360 360 360 360 
C 360 360 360 360 360 360 
C 360 360 360 360 360 360 
C 360 360 360 360 360 360 
C 360 360 360 360 360 360 
C 360 360 360 360 360 360 
C 360 360 360 360 360 360 
C 360 360 360 360 360 360 
C 360 360 360 360 360 360 
C 360 360 360 360 360 360 
C 360 360 360 360 360 360 
C 360 360 360 360 360 360 
z
" style="fill: #ffffff"/>
   </g>
   <g id="matplotlib.axis_1"/>
   <g id="matplotlib.axis_2"/>
   <g id="line2d_1">
    <path d="M 360 360 
L 360 360 
" clip-path="url(#p553a4c2337)" style="fill: none; stroke: #000000; stroke-linecap: square"/>
   </g>
   <g id="line2d_2">
    <defs>
     <path id="m37c96b769c" d="M 0 1 
C 0.265203 1 0.51958 0.894634 0.707107 0.707107 
C 0.894634 0.51958 1 0.265203 1 0 
C 1 -0.265203 0.894634 -0.51958 0.707107 -0.707107 
C 0.51958 -0.894634 0.265203 -1 0 -1 
C -0.265203 -1 -0.51958 -0.894634 -0.707107 -0.707107 
C -0.894634 -0.51958 -1 -0.265203 -1 0 
C -1 0.265203 -0.894634 0.51958 -0.707107 0.707107 
C -0.51958 0.894634 -0.265203 1 0 1 
z
" style="stroke: #000000"/>
    </defs>
    <g clip-path="url(#p553a4c2337)">
     <use xlink:href="#m37c96b769c" x="359.860133" y="359.694385" style="stroke: #000000"/>
     <use xlink:href="#m37c96b769c" x="359.500895" y="359.928854" style="stroke: #000000"/>
     <use xlink:href="#m37c96b769c" x="360.238347" y="360.805737" style="stroke: #000000"/>
     <use xlink:href="#m37c96b769c" x="360.886854" y="359.227153" style="stroke: #000000"/>
     <use xlink:href="#m37c96b769c" x="360.008181" y="361.848535" style="stroke: #000000"/>
     <use xlink:href="#m37c96b769c" x="361.982456" y="359.082081" style="stroke: #000000"/>
     <use xlink:href="#m37c96b769c" x="359.213898" y="362.746572" style="stroke: #000000"/>
     <use xlink:href="#m37c96b769c" x="363.156889" y="359.521449" style="stroke: #000000"/>
     <use xlink:href="#m37c96b769c" x="357.940517" y="363.270774" style="stroke: #000000"/>
     <use xlink:href="#m37c96b769c" x="356.354374" y="363.234191" style="stroke: #000000"/>
     <use xlink:href="#m37c96b769c" x="364.765403" y="362.104857" style="stroke: #000000"/>
     <use xlink:href="#m37c96b769c" x="364.759237" y="364.001429" style="stroke: #000000"/>
     <use xlink:href="#m37c96b769c" x="353.197173" y="361.09292" style="stroke: #000000"/>
     <use xlink:href="#m37c96b769c" x="364.011338" y="366.010538" style="stroke: #000000"/>
     <use xlink:href="#m37c96b769c" x="352.162176" y="359.023975" style="stroke: #000000"/>
     <use xlink:href="#m37c96b769c" x="351.821165" y="356.473628" style="stroke: #000000"/>
     <use xlink:href="#m37c96b769c" x="352.354767" y="353.686765" style="stroke: #000000"/>
     <use xlink:href="#m37c96b769c" x="357.354183" y="369.903736" style="stroke: #000000"/>
     <use xlink:href="#m37c96b769c" x="354.17024" y="369.632613" style="stroke: #000000"/>
     <use xlink:href="#m37c96b769c" x="356.312875" y="348.652428" style="stroke: #000000"/>
     <use xlink:href="#m37c96b769c" x="350.968632" y="368.302413" style="stroke: #000000"/>
     <use xlink:href="#m37c96b769c" x="348.105117" y="365.896026" style="stroke: #000000"/>
     <use xlink:href="#m37c96b769c" x="363.480628" y="346.493088" style="stroke: #000000"/>
     <use xlink:href="#m37c96b769c" x="367.630448" y="347.136396" style="stroke: #000000"/>
     <use xlink:href="#m37c96b769c" x="344.919287" y="353.812062" style="stroke: #000000"/>
     <use xlink:href="#m37c96b769c" x="375.140065" y="352.327733" style="stroke: #000000"/>
     <use xlink:href="#m37c96b769c" x="346.460229" y="349.216581" style="stroke: #000000"/>
     <use xlink:href="#m37c96b769c" x="377.671729" y="356.67737" style="stroke: #000000"/>
     <use xlink:href="#m37c96b769c" x="349.430776" y="345.039337" style="stroke: #000000"/>
     <use xlink:href="#m37c96b769c" x="378.899792" y="361.845453" style="stroke: #000000"/>
     <use xlink:href="#m37c96b769c" x="364.959096" y="339.241759" style="stroke: #000000"/>
     <use xlink:href="#m37c96b769c" x="372.861113" y="377.867109" style="stroke: #000000"/>
     <use xlink:href="#m37c96b769c" x="367.693451" y="381.6994" style="stroke: #000000"/>
     <use xlink:href="#m37c96b769c" x="376.770912" y="343.740276" style="stroke: #000000"/>
     <use xlink:href="#m37c96b769c" x="354.397642" y="384.404701" style="stroke: #000000"/>
     <use xlink:href="#m37c96b769c" x="384.851697" y="354.870328" style="stroke: #000000"/>
     <use xlink:href="#m37c96b769c" x="386.300277" y="362.0988" style="stroke: #000000"/>
     <use xlink:href="#m37c96b769c" x="385.608969" y="369.721767" style="stroke: #000000"/>
     <use xlink:href="#m37c96b769c" x="335.312076" y="373.346026" style="stroke: #000000"/>
     <use xlink:href="#m37c96b769c" x="331.580661" y="366.12883" style="stroke: #000000"/>
     <use xlink:href="#m37c96b769c" x="329.994328" y="357.872607" style="stroke: #000000"/>
     <use xlink:href="#m37c96b769c" x="370.670236" y="388.48413" style="stroke: #000000"/>
     <use xlink:href="#m37c96b769c" x="334.200164" y="340.904866" style="stroke: #000000"/>
     <use xlink:href="#m37c96b769c" x="353.303975" y="391.734964" style="stroke: #000000"/>
     <use xlink:href="#m37c96b769c" x="339.952662" y="333.654133" style="stroke: #000000"/>
     <use xlink:href="#m37c96b769c" x="344.227894" y="389.489115" style="stroke: #000000"/>
     <use xlink:href="#m37c96b769c" x="329.110857" y="377.41187" style="stroke: #000000"/>
     <use xlink:href="#m37c96b769c" x="322.577573" y="358.01181" style="stroke: #000000"/>
     <use xlink:href="#m37c96b769c" x="386.431348" y="332.493486" style="stroke: #000000"/>
     <use xlink:href="#m37c96b769c" x="323.671799" y="347.301891" style="stroke: #000000"/>
     <use xlink:href="#m37c96b769c" x="393.938289" y="340.471511" style="stroke: #000000"/>
     <use xlink:href="#m37c96b769c" x="399.02275" y="350.493554" style="stroke: #000000"/>
     <use xlink:href="#m37c96b769c" x="334.90839" y="328.208966" style="stroke: #000000"/>
     <use xlink:href="#m37c96b769c" x="399.93988" y="373.565025" style="stroke: #000000"/>
     <use xlink:href="#m37c96b769c" x="395.384915" y="384.762673" style="stroke: #000000"/>
     <use xlink:href="#m37c96b769c" x="387.688138" y="394.449394" style="stroke: #000000"/>
     <use xlink:href="#m37c96b769c" x="377.346544" y="401.744892" style="stroke: #000000"/>
     <use xlink:href="#m37c96b769c" x="390.968362" y="326.608395" style="stroke: #000000"/>
     <use xlink:href="#m37c96b769c" x="399.929942" y="336.073142" style="stroke: #000000"/>
     <use xlink:href="#m37c96b769c" x="351.892546" y="406.520937" style="stroke: #000000"/>
     <use xlink:href="#m37c96b769c" x="406.000351" y="347.927226" style="stroke: #000000"/>
     <use xlink:href="#m37c96b769c" x="326.838466" y="396.397312" style="stroke: #000000"/>
     <use xlink:href="#m37c96b769c" x="393.027153" y="399.634357" style="stroke: #000000"/>
     <use xlink:href="#m37c96b769c" x="307.744536" y="359.076408" style="stroke: #000000"/>
     <use xlink:href="#m37c96b769c" x="381.040571" y="408.208148" style="stroke: #000000"/>
     <use xlink:href="#m37c96b769c" x="309.120911" y="344.213409" style="stroke: #000000"/>
     <use xlink:href="#m37c96b769c" x="336.406718" y="410.373173" style="stroke: #000000"/>
     <use xlink:href="#m37c96b769c" x="322.605611" y="402.531737" style="stroke: #000000"/>
     <use xlink:href="#m37c96b769c" x="368.482867" y="302.306868" style="stroke: #000000"/>
     <use xlink:href="#m37c96b769c" x="303.686954" y="376.389286" style="stroke: #000000"/>
     <use xlink:href="#m37c96b769c" x="384.684926" y="306.058155" style="stroke: #000000"/>
     <use xlink:href="#m37c96b769c" x="399.432967" y="314.340889" style="stroke: #000000"/>
     <use xlink:href="#m37c96b769c" x="307.954783" y="326.908735" style="stroke: #000000"/>
     <use xlink:href="#m37c96b769c" x="318.60812" y="312.927309" style="stroke: #000000"/>
     <use xlink:href="#m37c96b769c" x="332.981859" y="302.323585" style="stroke: #000000"/>
     <use xlink:href="#m37c96b769c" x="421.956961" y="377.434507" style="stroke: #000000"/>
     <use xlink:href="#m37c96b769c" x="415.473392" y="394.58528" style="stroke: #000000"/>
     <use xlink:href="#m37c96b769c" x="386.683555" y="298.852594" style="stroke: #000000"/>
     <use xlink:href="#m37c96b769c" x="389.125503" y="420.768968" style="stroke: #000000"/>
     <use xlink:href="#m37c96b769c" x="416.999421" y="321.591286" style="stroke: #000000"/>
     <use xlink:href="#m37c96b769c" x="332.41009" y="424.782672" style="stroke: #000000"/>
     <use xlink:href="#m37c96b769c" x="430.724153" y="358.119396" style="stroke: #000000"/>
     <use xlink:href="#m37c96b769c" x="300.295203" y="401.00478" style="stroke: #000000"/>
     <use xlink:href="#m37c96b769c" x="422.419817" y="397.398149" style="stroke: #000000"/>
     <use xlink:href="#m37c96b769c" x="410.169722" y="414.088912" style="stroke: #000000"/>
     <use xlink:href="#m37c96b769c" x="285.600479" y="362.637514" style="stroke: #000000"/>
     <use xlink:href="#m37c96b769c" x="286.849314" y="341.496825" style="stroke: #000000"/>
     <use xlink:href="#m37c96b769c" x="352.200627" y="436.401899" style="stroke: #000000"/>
     <use xlink:href="#m37c96b769c" x="306.815391" y="303.669029" style="stroke: #000000"/>
     <use xlink:href="#m37c96b769c" x="330.7848" y="432.114091" style="stroke: #000000"/>
     <use xlink:href="#m37c96b769c" x="324.213684" y="290.154702" style="stroke: #000000"/>
     <use xlink:href="#m37c96b769c" x="367.465703" y="279.85089" style="stroke: #000000"/>
     <use xlink:href="#m37c96b769c" x="278.275052" y="364.346849" style="stroke: #000000"/>
     <use xlink:href="#m37c96b769c" x="410.541024" y="294.777723" style="stroke: #000000"/>
     <use xlink:href="#m37c96b769c" x="286.94689" y="318.82657" style="stroke: #000000"/>
     <use xlink:href="#m37c96b769c" x="439.543406" y="331.398527" style="stroke: #000000"/>
     <use xlink:href="#m37c96b769c" x="445.373275" y="354.700911" style="stroke: #000000"/>
     <use xlink:href="#m37c96b769c" x="436.651407" y="402.311884" style="stroke: #000000"/>
     <use xlink:href="#m37c96b769c" x="366.60109" y="272.357965" style="stroke: #000000"/>
     <use xlink:href="#m37c96b769c" x="432.592125" y="305.264697" style="stroke: #000000"/>
     <use xlink:href="#m37c96b769c" x="445.937334" y="327.37024" style="stroke: #000000"/>
     <use xlink:href="#m37c96b769c" x="304.649992" y="435.485645" style="stroke: #000000"/>
     <use xlink:href="#m37c96b769c" x="284.963024" y="417.627571" style="stroke: #000000"/>
     <use xlink:href="#m37c96b769c" x="270.910254" y="394.732031" style="stroke: #000000"/>
     <use xlink:href="#m37c96b769c" x="428.897484" y="426.78939" style="stroke: #000000"/>
     <use xlink:href="#m37c96b769c" x="407.990359" y="444.256362" style="stroke: #000000"/>
     <use xlink:href="#m37c96b769c" x="272.403135" y="314.637875" style="stroke: #000000"/>
     <use xlink:href="#m37c96b769c" x="287.836824" y="291.273334" style="stroke: #000000"/>
     <use xlink:href="#m37c96b769c" x="309.407589" y="272.97549" style="stroke: #000000"/>
     <use xlink:href="#m37c96b769c" x="301.728795" y="442.493043" style="stroke: #000000"/>
     <use xlink:href="#m37c96b769c" x="280.211199" y="423.553698" style="stroke: #000000"/>
     <use xlink:href="#m37c96b769c" x="264.698471" y="399.11096" style="stroke: #000000"/>
     <use xlink:href="#m37c96b769c" x="392.907302" y="261.673486" style="stroke: #000000"/>
     <use xlink:href="#m37c96b769c" x="256.563479" y="371.031386" style="stroke: #000000"/>
     <use xlink:href="#m37c96b769c" x="264.988668" y="312.912153" style="stroke: #000000"/>
     <use xlink:href="#m37c96b769c" x="467.00747" y="347.628905" style="stroke: #000000"/>
     <use xlink:href="#m37c96b769c" x="304.046135" y="267.559045" style="stroke: #000000"/>
     <use xlink:href="#m37c96b769c" x="467.19616" y="378.189873" style="stroke: #000000"/>
     <use xlink:href="#m37c96b769c" x="458.751399" y="407.857374" style="stroke: #000000"/>
     <use xlink:href="#m37c96b769c" x="442.194422" y="434.219648" style="stroke: #000000"/>
     <use xlink:href="#m37c96b769c" x="393.383796" y="254.053989" style="stroke: #000000"/>
     <use xlink:href="#m37c96b769c" x="446.562267" y="287.212026" style="stroke: #000000"/>
     <use xlink:href="#m37c96b769c" x="358.496363" y="473.760077" style="stroke: #000000"/>
     <use xlink:href="#m37c96b769c" x="326.475418" y="469.773239" style="stroke: #000000"/>
     <use xlink:href="#m37c96b769c" x="474.812116" y="377.397227" style="stroke: #000000"/>
     <use xlink:href="#m37c96b769c" x="252.668849" y="408.555355" style="stroke: #000000"/>
     <use xlink:href="#m37c96b769c" x="424.381779" y="460.255385" style="stroke: #000000"/>
     <use xlink:href="#m37c96b769c" x="249.906838" y="310.211134" style="stroke: #000000"/>
     <use xlink:href="#m37c96b769c" x="326.389681" y="477.458386" style="stroke: #000000"/>
     <use xlink:href="#m37c96b769c" x="294.371472" y="464.242086" style="stroke: #000000"/>
     <use xlink:href="#m37c96b769c" x="267.104356" y="442.421715" style="stroke: #000000"/>
     <use xlink:href="#m37c96b769c" x="358.334721" y="235.149776" style="stroke: #000000"/>
     <use xlink:href="#m37c96b769c" x="235.393331" y="380.026602" style="stroke: #000000"/>
     <use xlink:href="#m37c96b769c" x="233.760055" y="344.287375" style="stroke: #000000"/>
     <use xlink:href="#m37c96b769c" x="454.906138" y="274.281193" style="stroke: #000000"/>
     <use xlink:href="#m37c96b769c" x="260.347852" y="277.71995" style="stroke: #000000"/>
     <use xlink:href="#m37c96b769c" x="488.069452" y="338.252299" style="stroke: #000000"/>
     <use xlink:href="#m37c96b769c" x="355.895411" y="227.808169" style="stroke: #000000"/>
     <use xlink:href="#m37c96b769c" x="436.316741" y="470.066428" style="stroke: #000000"/>
     <use xlink:href="#m37c96b769c" x="365.421944" y="495.844486" style="stroke: #000000"/>
     <use xlink:href="#m37c96b769c" x="481.566511" y="298.386643" style="stroke: #000000"/>
     <use xlink:href="#m37c96b769c" x="290.671529" y="479.285694" style="stroke: #000000"/>
     <use xlink:href="#m37c96b769c" x="497.65151" y="373.432479" style="stroke: #000000"/>
     <use xlink:href="#m37c96b769c" x="259.372525" y="455.858597" style="stroke: #000000"/>
     <use xlink:href="#m37c96b769c" x="489.351848" y="411.733863" style="stroke: #000000"/>
     <use xlink:href="#m37c96b769c" x="221.671503" y="387.286957" style="stroke: #000000"/>
     <use xlink:href="#m37c96b769c" x="368.251434" y="503.109172" style="stroke: #000000"/>
     <use xlink:href="#m37c96b769c" x="245.767953" y="272.292941" style="stroke: #000000"/>
     <use xlink:href="#m37c96b769c" x="327.710322" y="500.697506" style="stroke: #000000"/>
     <use xlink:href="#m37c96b769c" x="274.228166" y="243.055025" style="stroke: #000000"/>
     <use xlink:href="#m37c96b769c" x="230.355666" y="430.094432" style="stroke: #000000"/>
     <use xlink:href="#m37c96b769c" x="391.838105" y="215.411592" style="stroke: #000000"/>
     <use xlink:href="#m37c96b769c" x="214.948263" y="391.290575" style="stroke: #000000"/>
     <use xlink:href="#m37c96b769c" x="431.453583" y="229.181663" style="stroke: #000000"/>
     <use xlink:href="#m37c96b769c" x="267.693522" y="238.707589" style="stroke: #000000"/>
     <use xlink:href="#m37c96b769c" x="512.800855" y="369.4658" style="stroke: #000000"/>
     <use xlink:href="#m37c96b769c" x="347.019541" y="206.108295" style="stroke: #000000"/>
     <use xlink:href="#m37c96b769c" x="455.641378" y="483.392736" style="stroke: #000000"/>
     <use xlink:href="#m37c96b769c" x="469.09524" y="246.453317" style="stroke: #000000"/>
     <use xlink:href="#m37c96b769c" x="374.68543" y="517.451911" style="stroke: #000000"/>
     <use xlink:href="#m37c96b769c" x="329.915399" y="516.274104" style="stroke: #000000"/>
     <use xlink:href="#m37c96b769c" x="286.988581" y="502.541073" style="stroke: #000000"/>
     <use xlink:href="#m37c96b769c" x="493.146521" y="453.165142" style="stroke: #000000"/>
     <use xlink:href="#m37c96b769c" x="201.810357" y="400.033736" style="stroke: #000000"/>
     <use xlink:href="#m37c96b769c" x="195.917286" y="354.202965" style="stroke: #000000"/>
     <use xlink:href="#m37c96b769c" x="203.114845" y="308.270864" style="stroke: #000000"/>
     <use xlink:href="#m37c96b769c" x="331.41741" y="524.066666" style="stroke: #000000"/>
     <use xlink:href="#m37c96b769c" x="286.269362" y="510.450941" style="stroke: #000000"/>
     <use xlink:href="#m37c96b769c" x="215.333698" y="448.448676" style="stroke: #000000"/>
     <use xlink:href="#m37c96b769c" x="387.731529" y="192.039047" style="stroke: #000000"/>
     <use xlink:href="#m37c96b769c" x="433.993567" y="205.568189" style="stroke: #000000"/>
     <use xlink:href="#m37c96b769c" x="188.447314" y="356.97823" style="stroke: #000000"/>
     <use xlink:href="#m37c96b769c" x="507.014825" y="268.317945" style="stroke: #000000"/>
     <use xlink:href="#m37c96b769c" x="215.173589" y="264.287686" style="stroke: #000000"/>
     <use xlink:href="#m37c96b769c" x="247.033128" y="226.864306" style="stroke: #000000"/>
     <use xlink:href="#m37c96b769c" x="528.825307" y="410.737684" style="stroke: #000000"/>
     <use xlink:href="#m37c96b769c" x="335.83354" y="185.040317" style="stroke: #000000"/>
     <use xlink:href="#m37c96b769c" x="476.557714" y="494.928334" style="stroke: #000000"/>
     <use xlink:href="#m37c96b769c" x="434.324702" y="197.558743" style="stroke: #000000"/>
     <use xlink:href="#m37c96b769c" x="477.411976" y="224.033061" style="stroke: #000000"/>
     <use xlink:href="#m37c96b769c" x="542.66331" y="358.366607" style="stroke: #000000"/>
     <use xlink:href="#m37c96b769c" x="241.404635" y="499.820338" style="stroke: #000000"/>
     <use xlink:href="#m37c96b769c" x="536.8149" y="409.743691" style="stroke: #000000"/>
     <use xlink:href="#m37c96b769c" x="206.219187" y="461.670031" style="stroke: #000000"/>
     <use xlink:href="#m37c96b769c" x="182.973075" y="414.950716" style="stroke: #000000"/>
     <use xlink:href="#m37c96b769c" x="173.661783" y="363.315919" style="stroke: #000000"/>
     <use xlink:href="#m37c96b769c" x="390.612093" y="545.199189" style="stroke: #000000"/>
     <use xlink:href="#m37c96b769c" x="337.52522" y="547.377378" style="stroke: #000000"/>
     <use xlink:href="#m37c96b769c" x="285.669214" y="534.562088" style="stroke: #000000"/>
     <use xlink:href="#m37c96b769c" x="434.201036" y="181.372574" style="stroke: #000000"/>
     <use xlink:href="#m37c96b769c" x="166.360126" y="366.876355" style="stroke: #000000"/>
     <use xlink:href="#m37c96b769c" x="520.113552" y="247.922373" style="stroke: #000000"/>
     <use xlink:href="#m37c96b769c" x="224.895546" y="216.920147" style="stroke: #000000"/>
     <use xlink:href="#m37c96b769c" x="552.83356" y="406.952118" style="stroke: #000000"/>
     <use xlink:href="#m37c96b769c" x="532.907913" y="459.465488" style="stroke: #000000"/>
     <use xlink:href="#m37c96b769c" x="498.927555" y="504.543917" style="stroke: #000000"/>
     <use xlink:href="#m37c96b769c" x="483.615167" y="200.456998" style="stroke: #000000"/>
     <use xlink:href="#m37c96b769c" x="551.817217" y="291.015102" style="stroke: #000000"/>
     <use xlink:href="#m37c96b769c" x="286.58655" y="550.886688" style="stroke: #000000"/>
     <use xlink:href="#m37c96b769c" x="235.563406" y="523.573356" style="stroke: #000000"/>
     <use xlink:href="#m37c96b769c" x="194.004355" y="482.888708" style="stroke: #000000"/>
     <use xlink:href="#m37c96b769c" x="541.115206" y="459.962074" style="stroke: #000000"/>
     <use xlink:href="#m37c96b769c" x="506.681959" y="507.301486" style="stroke: #000000"/>
     <use xlink:href="#m37c96b769c" x="405.174183" y="564.975853" style="stroke: #000000"/>
     <use xlink:href="#m37c96b769c" x="209.388157" y="211.406053" style="stroke: #000000"/>
     <use xlink:href="#m37c96b769c" x="372.314218" y="145.753441" style="stroke: #000000"/>
     <use xlink:href="#m37c96b769c" x="159.748494" y="438.082841" style="stroke: #000000"/>
     <use xlink:href="#m37c96b769c" x="432.02438" y="156.777224" style="stroke: #000000"/>
     <use xlink:href="#m37c96b769c" x="486.528223" y="184.177845" style="stroke: #000000"/>
     <use xlink:href="#m37c96b769c" x="147.141289" y="318.051059" style="stroke: #000000"/>
     <use xlink:href="#m37c96b769c" x="166.445178" y="259.782238" style="stroke: #000000"/>
     <use xlink:href="#m37c96b769c" x="562.985016" y="278.774196" style="stroke: #000000"/>
     <use xlink:href="#m37c96b769c" x="201.426615" y="208.99633" style="stroke: #000000"/>
     <use xlink:href="#m37c96b769c" x="578.599447" y="338.628446" style="stroke: #000000"/>
     <use xlink:href="#m37c96b769c" x="557.732335" y="460.171412" style="stroke: #000000"/>
     <use xlink:href="#m37c96b769c" x="368.813265" y="138.180645" style="stroke: #000000"/>
     <use xlink:href="#m37c96b769c" x="430.761949" y="148.522016" style="stroke: #000000"/>
     <use xlink:href="#m37c96b769c" x="183.658885" y="505.653675" style="stroke: #000000"/>
     <use xlink:href="#m37c96b769c" x="149.058749" y="450.979214" style="stroke: #000000"/>
     <use xlink:href="#m37c96b769c" x="131.038918" y="388.540003" style="stroke: #000000"/>
     <use xlink:href="#m37c96b769c" x="421.908764" y="583.667649" style="stroke: #000000"/>
     <use xlink:href="#m37c96b769c" x="231.251316" y="556.715181" style="stroke: #000000"/>
     <use xlink:href="#m37c96b769c" x="361.019379" y="123.219404" style="stroke: #000000"/>
     <use xlink:href="#m37c96b769c" x="123.253588" y="326.281743" style="stroke: #000000"/>
     <use xlink:href="#m37c96b769c" x="540.772564" y="202.42776" style="stroke: #000000"/>
     <use xlink:href="#m37c96b769c" x="141.185789" y="261.058686" style="stroke: #000000"/>
     <use xlink:href="#m37c96b769c" x="578.515499" y="258.790708" style="stroke: #000000"/>
     <use xlink:href="#m37c96b769c" x="599.088428" y="323.72722" style="stroke: #000000"/>
     <use xlink:href="#m37c96b769c" x="288.932945" y="127.447876" style="stroke: #000000"/>
     <use xlink:href="#m37c96b769c" x="583.063478" y="458.494008" style="stroke: #000000"/>
     <use xlink:href="#m37c96b769c" x="356.728684" y="115.844913" style="stroke: #000000"/>
     <use xlink:href="#m37c96b769c" x="425.348434" y="123.683655" style="stroke: #000000"/>
     <use xlink:href="#m37c96b769c" x="543.441953" y="194.29595" style="stroke: #000000"/>
     <use xlink:href="#m37c96b769c" x="295.792037" y="600.457461" style="stroke: #000000"/>
     <use xlink:href="#m37c96b769c" x="605.698645" y="318.262236" style="stroke: #000000"/>
     <use xlink:href="#m37c96b769c" x="230.639916" y="573.802094" style="stroke: #000000"/>
     <use xlink:href="#m37c96b769c" x="608.576367" y="388.692265" style="stroke: #000000"/>
     <use xlink:href="#m37c96b769c" x="175.310451" y="529.823685" style="stroke: #000000"/>
     <use xlink:href="#m37c96b769c" x="134.311858" y="471.902443" style="stroke: #000000"/>
     <use xlink:href="#m37c96b769c" x="107.503078" y="333.117681" style="stroke: #000000"/>
     <use xlink:href="#m37c96b769c" x="159.776196" y="200.576108" style="stroke: #000000"/>
     <use xlink:href="#m37c96b769c" x="230.729747" y="582.451639" style="stroke: #000000"/>
     <use xlink:href="#m37c96b769c" x="129.762691" y="479.281438" style="stroke: #000000"/>
     <use xlink:href="#m37c96b769c" x="104.614668" y="410.393819" style="stroke: #000000"/>
     <use xlink:href="#m37c96b769c" x="489.125408" y="133.199986" style="stroke: #000000"/>
     <use xlink:href="#m37c96b769c" x="548.077659" y="177.61106" style="stroke: #000000"/>
     <use xlink:href="#m37c96b769c" x="151.120299" y="199.642743" style="stroke: #000000"/>
     <use xlink:href="#m37c96b769c" x="618.549963" y="306.599855" style="stroke: #000000"/>
     <use xlink:href="#m37c96b769c" x="269.088495" y="110.708148" style="stroke: #000000"/>
     <use xlink:href="#m37c96b769c" x="608.716891" y="454.38447" style="stroke: #000000"/>
     <use xlink:href="#m37c96b769c" x="488.634472" y="124.460244" style="stroke: #000000"/>
     <use xlink:href="#m37c96b769c" x="454.411856" y="611.939404" style="stroke: #000000"/>
     <use xlink:href="#m37c96b769c" x="380.331596" y="629.290305" style="stroke: #000000"/>
     <use xlink:href="#m37c96b769c" x="596.69827" y="229.285745" style="stroke: #000000"/>
     <use xlink:href="#m37c96b769c" x="304.069862" y="625.232116" style="stroke: #000000"/>
     <use xlink:href="#m37c96b769c" x="231.712146" y="599.929426" style="stroke: #000000"/>
     <use xlink:href="#m37c96b769c" x="631.889253" y="376.826705" style="stroke: #000000"/>
     <use xlink:href="#m37c96b769c" x="617.30723" y="452.467572" style="stroke: #000000"/>
     <use xlink:href="#m37c96b769c" x="92.160356" y="422.777147" style="stroke: #000000"/>
     <use xlink:href="#m37c96b769c" x="307.376376" y="633.4416" style="stroke: #000000"/>
     <use xlink:href="#m37c96b769c" x="232.60892" y="608.744096" style="stroke: #000000"/>
     <use xlink:href="#m37c96b769c" x="254.765702" y="100.377151" style="stroke: #000000"/>
     <use xlink:href="#m37c96b769c" x="167.48784" y="563.974931" style="stroke: #000000"/>
     <use xlink:href="#m37c96b769c" x="89.794663" y="270.924299" style="stroke: #000000"/>
     <use xlink:href="#m37c96b769c" x="604.607272" y="213.386107" style="stroke: #000000"/>
     <use xlink:href="#m37c96b769c" x="124.614735" y="198.401917" style="stroke: #000000"/>
     <use xlink:href="#m37c96b769c" x="647.097759" y="367.582163" style="stroke: #000000"/>
     <use xlink:href="#m37c96b769c" x="599.872756" y="521.573724" style="stroke: #000000"/>
     <use xlink:href="#m37c96b769c" x="407.151014" y="74.314312" style="stroke: #000000"/>
     <use xlink:href="#m37c96b769c" x="476.52838" y="626.90199" style="stroke: #000000"/>
     <use xlink:href="#m37c96b769c" x="608.247514" y="205.165966" style="stroke: #000000"/>
     <use xlink:href="#m37c96b769c" x="642.593471" y="280.423863" style="stroke: #000000"/>
     <use xlink:href="#m37c96b769c" x="654.580923" y="362.563126" style="stroke: #000000"/>
     <use xlink:href="#m37c96b769c" x="643.097326" y="445.061661" style="stroke: #000000"/>
     <use xlink:href="#m37c96b769c" x="484.312891" y="631.520465" style="stroke: #000000"/>
     <use xlink:href="#m37c96b769c" x="403.641376" y="656.43838" style="stroke: #000000"/>
     <use xlink:href="#m37c96b769c" x="106.561493" y="198.902247" style="stroke: #000000"/>
     <use xlink:href="#m37c96b769c" x="318.935953" y="657.824253" style="stroke: #000000"/>
     <use xlink:href="#m37c96b769c" x="164.239166" y="590.824294" style="stroke: #000000"/>
     <use xlink:href="#m37c96b769c" x="398.898846" y="58.157161" style="stroke: #000000"/>
     <use xlink:href="#m37c96b769c" x="556.076321" y="124.611334" style="stroke: #000000"/>
     <use xlink:href="#m37c96b769c" x="97.439994" y="199.558332" style="stroke: #000000"/>
     <use xlink:href="#m37c96b769c" x="660.235617" y="438.738677" style="stroke: #000000"/>
     <use xlink:href="#m37c96b769c" x="479.954897" y="71.178137" style="stroke: #000000"/>
     <use xlink:href="#m37c96b769c" x="556.509959" y="115.413054" style="stroke: #000000"/>
     <use xlink:href="#m37c96b769c" x="416.777915" y="669.253074" style="stroke: #000000"/>
     <use xlink:href="#m37c96b769c" x="617.850409" y="179.484544" style="stroke: #000000"/>
     <use xlink:href="#m37c96b769c" x="328.004087" y="673.803343" style="stroke: #000000"/>
     <use xlink:href="#m37c96b769c" x="658.973797" y="258.397387" style="stroke: #000000"/>
     <use xlink:href="#m37c96b769c" x="163.372658" y="609.219235" style="stroke: #000000"/>
     <use xlink:href="#m37c96b769c" x="58.447406" y="465.465479" style="stroke: #000000"/>
     <use xlink:href="#m37c96b769c" x="39.982599" y="377.060027" style="stroke: #000000"/>
     <use xlink:href="#m37c96b769c" x="46.980198" y="286.732912" style="stroke: #000000"/>
     <use xlink:href="#m37c96b769c" x="206.903338" y="73.879539" style="stroke: #000000"/>
     <use xlink:href="#m37c96b769c" x="163.338615" y="618.546033" style="stroke: #000000"/>
     <use xlink:href="#m37c96b769c" x="474.841149" y="53.263371" style="stroke: #000000"/>
     <use xlink:href="#m37c96b769c" x="32.959137" y="383.246547" style="stroke: #000000"/>
     <use xlink:href="#m37c96b769c" x="690.507626" y="333.564858" style="stroke: #000000"/>
     <use xlink:href="#m37c96b769c" x="685.717511" y="427.170365" style="stroke: #000000"/>
    </g>
   </g>
  </g>
 </g>
 <defs>
  <clipPath id="p553a4c2337">
   <path d="M 709.2 360 
C 709.2 314.143476 700.167265 268.732849 682.618733 226.366945 
C 665.070201 184.001042 639.347147 145.503771 606.921688 113.078312 
C 574.496229 80.652853 535.998958 54.929799 493.633055 37.381267 
C 451.267151 19.832735 405.856524 10.8 360 10.8 
C 314.143476 10.8 268.732849 19.832735 226.366945 37.381267 
C 184.001042 54.929799 145.503771 80.652853 113.078312 113.078312 
C 80.652853 145.503771 54.929799 184.001042 37.381267 226.366945 
C 19.832735 268.732849 10.8 314.143476 10.8 360 
C 10.8 405.856524 19.832735 451.267151 37.381267 493.633055 
C 54.929799 535.998958 80.652853 574.496229 113.078312 606.921688 
C 145.503771 639.347147 184.001042 665.070201 226.366945 682.618733 
C 268.732849 700.167265 314.143476 709.2 360 709.2 
C 405.856524 709.2 451.267151 700.167265 493.633055 682.618733 
C 535.998958 665.070201 574.496229 639.347147 606.921688 606.921688 
C 639.347147 574.496229 665.070201 535.998958 682.618733 493.633055 
C 700.167265 451.267151 709.2 405.856524 709.2 360 
M 360 360 
C 360 360 360 360 360 360 
C 360 360 360 360 360 360 
C 360 360 360 360 360 360 
C 360 360 360 360 360 360 
C 360 360 360 360 360 360 
C 360 360 360 360 360 360 
C 360 360 360 360 360 360 
C 360 360 360 360 360 360 
C 360 360 360 360 360 360 
C 360 360 360 360 360 360 
C 360 360 360 360 360 360 
C 360 360 360 360 360 360 
C 360 360 360 360 360 360 
C 360 360 360 360 360 360 
C 360 360 360 360 360 360 
C 360 360 360 360 360 360 
z
"/>
  </clipPath>
 </defs>
</svg>
