<?xml version="1.0" encoding="utf-8" standalone="no"?>
<!DOCTYPE svg PUBLIC "-//W3C//DTD SVG 1.1//EN"
  "http://www.w3.org/Graphics/SVG/1.1/DTD/svg11.dtd">
<svg xmlns:xlink="http://www.w3.org/1999/xlink" width="864pt" height="432pt" viewBox="0 0 864 432" xmlns="http://www.w3.org/2000/svg" version="1.1">
 <metadata>
  <rdf:RDF xmlns:dc="http://purl.org/dc/elements/1.1/" xmlns:cc="http://creativecommons.org/ns#" xmlns:rdf="http://www.w3.org/1999/02/22-rdf-syntax-ns#">
   <cc:Work>
    <dc:type rdf:resource="http://purl.org/dc/dcmitype/StillImage"/>
    <dc:date>2024-09-16T23:46:49.013078</dc:date>
    <dc:format>image/svg+xml</dc:format>
    <dc:creator>
     <cc:Agent>
      <dc:title>Matplotlib v3.9.2, https://matplotlib.org/</dc:title>
     </cc:Agent>
    </dc:creator>
   </cc:Work>
  </rdf:RDF>
 </metadata>
 <defs>
  <style type="text/css">*{stroke-linejoin: round; stroke-linecap: butt}</style>
 </defs>
 <g id="figure_1">
  <g id="patch_1">
   <path d="M 0 432 
L 864 432 
L 864 0 
L 0 0 
z
" style="fill: #ffffff"/>
  </g>
  <g id="axes_1">
   <g id="patch_2">
    <path d="M 41.92 404.12 
L 853.2 404.12 
L 853.2 10.8 
L 41.92 10.8 
z
" style="fill: #ffffff"/>
   </g>
   <g id="matplotlib.axis_1">
    <g id="xtick_1">
     <g id="line2d_1">
      <defs>
       <path id="me591578f85" d="M 0 0 
L 0 3.5 
" style="stroke: #000000; stroke-width: 0.8"/>
      </defs>
      <g>
       <use xlink:href="#me591578f85" x="199.048644" y="404.12" style="stroke: #000000; stroke-width: 0.8"/>
      </g>
     </g>
     <g id="text_1">
      <!-- 200 -->
      <g transform="translate(190.018175 418.771563) scale(0.1 -0.1)">
       <defs>
        <path id="DejaVuSansMono-32" d="M 1166 531 
L 3309 531 
L 3309 0 
L 475 0 
L 475 531 
Q 1059 1147 1496 1619 
Q 1934 2091 2100 2284 
Q 2413 2666 2522 2902 
Q 2631 3138 2631 3384 
Q 2631 3775 2401 3997 
Q 2172 4219 1772 4219 
Q 1488 4219 1175 4116 
Q 863 4013 513 3803 
L 513 4441 
Q 834 4594 1145 4672 
Q 1456 4750 1759 4750 
Q 2444 4750 2861 4386 
Q 3278 4022 3278 3431 
Q 3278 3131 3139 2831 
Q 3000 2531 2688 2169 
Q 2513 1966 2180 1606 
Q 1847 1247 1166 531 
z
" transform="scale(0.015625)"/>
        <path id="DejaVuSansMono-30" d="M 1509 2344 
Q 1509 2516 1629 2641 
Q 1750 2766 1919 2766 
Q 2094 2766 2219 2641 
Q 2344 2516 2344 2344 
Q 2344 2169 2220 2047 
Q 2097 1925 1919 1925 
Q 1744 1925 1626 2044 
Q 1509 2163 1509 2344 
z
M 1925 4250 
Q 1484 4250 1267 3775 
Q 1050 3300 1050 2328 
Q 1050 1359 1267 884 
Q 1484 409 1925 409 
Q 2369 409 2586 884 
Q 2803 1359 2803 2328 
Q 2803 3300 2586 3775 
Q 2369 4250 1925 4250 
z
M 1925 4750 
Q 2672 4750 3055 4137 
Q 3438 3525 3438 2328 
Q 3438 1134 3055 521 
Q 2672 -91 1925 -91 
Q 1178 -91 797 521 
Q 416 1134 416 2328 
Q 416 3525 797 4137 
Q 1178 4750 1925 4750 
z
" transform="scale(0.015625)"/>
       </defs>
       <use xlink:href="#DejaVuSansMono-32"/>
       <use xlink:href="#DejaVuSansMono-30" x="60.205078"/>
       <use xlink:href="#DejaVuSansMono-30" x="120.410156"/>
      </g>
     </g>
    </g>
    <g id="xtick_2">
     <g id="line2d_2">
      <g>
       <use xlink:href="#me591578f85" x="364.447217" y="404.12" style="stroke: #000000; stroke-width: 0.8"/>
      </g>
     </g>
     <g id="text_2">
      <!-- 400 -->
      <g transform="translate(355.416748 418.771563) scale(0.1 -0.1)">
       <defs>
        <path id="DejaVuSansMono-34" d="M 2297 4091 
L 825 1625 
L 2297 1625 
L 2297 4091 
z
M 2194 4666 
L 2925 4666 
L 2925 1625 
L 3547 1625 
L 3547 1113 
L 2925 1113 
L 2925 0 
L 2297 0 
L 2297 1113 
L 319 1113 
L 319 1709 
L 2194 4666 
z
" transform="scale(0.015625)"/>
       </defs>
       <use xlink:href="#DejaVuSansMono-34"/>
       <use xlink:href="#DejaVuSansMono-30" x="60.205078"/>
       <use xlink:href="#DejaVuSansMono-30" x="120.410156"/>
      </g>
     </g>
    </g>
    <g id="xtick_3">
     <g id="line2d_3">
      <g>
       <use xlink:href="#me591578f85" x="529.84579" y="404.12" style="stroke: #000000; stroke-width: 0.8"/>
      </g>
     </g>
     <g id="text_3">
      <!-- 600 -->
      <g transform="translate(520.815321 418.771563) scale(0.1 -0.1)">
       <defs>
        <path id="DejaVuSansMono-36" d="M 3097 4563 
L 3097 3981 
Q 2900 4097 2678 4158 
Q 2456 4219 2216 4219 
Q 1616 4219 1306 3767 
Q 997 3316 997 2438 
Q 1147 2750 1412 2917 
Q 1678 3084 2022 3084 
Q 2697 3084 3067 2670 
Q 3438 2256 3438 1497 
Q 3438 741 3056 325 
Q 2675 -91 1984 -91 
Q 1172 -91 794 492 
Q 416 1075 416 2328 
Q 416 3509 870 4129 
Q 1325 4750 2188 4750 
Q 2419 4750 2650 4701 
Q 2881 4653 3097 4563 
z
M 1972 2591 
Q 1569 2591 1337 2300 
Q 1106 2009 1106 1497 
Q 1106 984 1337 693 
Q 1569 403 1972 403 
Q 2391 403 2603 679 
Q 2816 956 2816 1497 
Q 2816 2041 2603 2316 
Q 2391 2591 1972 2591 
z
" transform="scale(0.015625)"/>
       </defs>
       <use xlink:href="#DejaVuSansMono-36"/>
       <use xlink:href="#DejaVuSansMono-30" x="60.205078"/>
       <use xlink:href="#DejaVuSansMono-30" x="120.410156"/>
      </g>
     </g>
    </g>
    <g id="xtick_4">
     <g id="line2d_4">
      <g>
       <use xlink:href="#me591578f85" x="695.244363" y="404.12" style="stroke: #000000; stroke-width: 0.8"/>
      </g>
     </g>
     <g id="text_4">
      <!-- 800 -->
      <g transform="translate(686.213894 418.771563) scale(0.1 -0.1)">
       <defs>
        <path id="DejaVuSansMono-38" d="M 1925 2216 
Q 1503 2216 1273 1980 
Q 1044 1744 1044 1313 
Q 1044 881 1276 642 
Q 1509 403 1925 403 
Q 2350 403 2579 639 
Q 2809 875 2809 1313 
Q 2809 1741 2576 1978 
Q 2344 2216 1925 2216 
z
M 1375 2478 
Q 972 2581 745 2862 
Q 519 3144 519 3541 
Q 519 4097 897 4423 
Q 1275 4750 1925 4750 
Q 2578 4750 2956 4423 
Q 3334 4097 3334 3541 
Q 3334 3144 3107 2862 
Q 2881 2581 2478 2478 
Q 2947 2375 3195 2062 
Q 3444 1750 3444 1253 
Q 3444 622 3041 265 
Q 2638 -91 1925 -91 
Q 1213 -91 811 264 
Q 409 619 409 1247 
Q 409 1747 657 2061 
Q 906 2375 1375 2478 
z
M 1147 3481 
Q 1147 3106 1347 2909 
Q 1547 2713 1925 2713 
Q 2306 2713 2506 2909 
Q 2706 3106 2706 3481 
Q 2706 3863 2507 4063 
Q 2309 4263 1925 4263 
Q 1547 4263 1347 4061 
Q 1147 3859 1147 3481 
z
" transform="scale(0.015625)"/>
       </defs>
       <use xlink:href="#DejaVuSansMono-38"/>
       <use xlink:href="#DejaVuSansMono-30" x="60.205078"/>
       <use xlink:href="#DejaVuSansMono-30" x="120.410156"/>
      </g>
     </g>
    </g>
   </g>
   <g id="matplotlib.axis_2">
    <g id="ytick_1">
     <g id="line2d_5">
      <defs>
       <path id="m65f5707427" d="M 0 0 
L -3.5 0 
" style="stroke: #000000; stroke-width: 0.8"/>
      </defs>
      <g>
       <use xlink:href="#m65f5707427" x="41.92" y="386.241818" style="stroke: #000000; stroke-width: 0.8"/>
      </g>
     </g>
     <g id="text_5">
      <!-- 0.00 -->
      <g transform="translate(10.83875 390.067599) scale(0.1 -0.1)">
       <defs>
        <path id="DejaVuSansMono-2e" d="M 1528 953 
L 2316 953 
L 2316 0 
L 1528 0 
L 1528 953 
z
" transform="scale(0.015625)"/>
       </defs>
       <use xlink:href="#DejaVuSansMono-30"/>
       <use xlink:href="#DejaVuSansMono-2e" x="60.205078"/>
       <use xlink:href="#DejaVuSansMono-30" x="120.410156"/>
       <use xlink:href="#DejaVuSansMono-30" x="180.615234"/>
      </g>
     </g>
    </g>
    <g id="ytick_2">
     <g id="line2d_6">
      <g>
       <use xlink:href="#m65f5707427" x="41.92" y="315.54748" style="stroke: #000000; stroke-width: 0.8"/>
      </g>
     </g>
     <g id="text_6">
      <!-- 0.05 -->
      <g transform="translate(10.83875 319.373261) scale(0.1 -0.1)">
       <defs>
        <path id="DejaVuSansMono-35" d="M 647 4666 
L 3009 4666 
L 3009 4134 
L 1222 4134 
L 1222 2988 
Q 1356 3038 1492 3061 
Q 1628 3084 1766 3084 
Q 2491 3084 2916 2656 
Q 3341 2228 3341 1497 
Q 3341 759 2895 334 
Q 2450 -91 1678 -91 
Q 1306 -91 998 -41 
Q 691 9 447 109 
L 447 750 
Q 734 594 1025 517 
Q 1316 441 1619 441 
Q 2141 441 2423 716 
Q 2706 991 2706 1497 
Q 2706 1997 2414 2275 
Q 2122 2553 1600 2553 
Q 1347 2553 1106 2495 
Q 866 2438 647 2322 
L 647 4666 
z
" transform="scale(0.015625)"/>
       </defs>
       <use xlink:href="#DejaVuSansMono-30"/>
       <use xlink:href="#DejaVuSansMono-2e" x="60.205078"/>
       <use xlink:href="#DejaVuSansMono-30" x="120.410156"/>
       <use xlink:href="#DejaVuSansMono-35" x="180.615234"/>
      </g>
     </g>
    </g>
    <g id="ytick_3">
     <g id="line2d_7">
      <g>
       <use xlink:href="#m65f5707427" x="41.92" y="244.853142" style="stroke: #000000; stroke-width: 0.8"/>
      </g>
     </g>
     <g id="text_7">
      <!-- 0.10 -->
      <g transform="translate(10.83875 248.678923) scale(0.1 -0.1)">
       <defs>
        <path id="DejaVuSansMono-31" d="M 844 531 
L 1825 531 
L 1825 4097 
L 769 3859 
L 769 4434 
L 1819 4666 
L 2450 4666 
L 2450 531 
L 3419 531 
L 3419 0 
L 844 0 
L 844 531 
z
" transform="scale(0.015625)"/>
       </defs>
       <use xlink:href="#DejaVuSansMono-30"/>
       <use xlink:href="#DejaVuSansMono-2e" x="60.205078"/>
       <use xlink:href="#DejaVuSansMono-31" x="120.410156"/>
       <use xlink:href="#DejaVuSansMono-30" x="180.615234"/>
      </g>
     </g>
    </g>
    <g id="ytick_4">
     <g id="line2d_8">
      <g>
       <use xlink:href="#m65f5707427" x="41.92" y="174.158803" style="stroke: #000000; stroke-width: 0.8"/>
      </g>
     </g>
     <g id="text_8">
      <!-- 0.15 -->
      <g transform="translate(10.83875 177.984585) scale(0.1 -0.1)">
       <use xlink:href="#DejaVuSansMono-30"/>
       <use xlink:href="#DejaVuSansMono-2e" x="60.205078"/>
       <use xlink:href="#DejaVuSansMono-31" x="120.410156"/>
       <use xlink:href="#DejaVuSansMono-35" x="180.615234"/>
      </g>
     </g>
    </g>
    <g id="ytick_5">
     <g id="line2d_9">
      <g>
       <use xlink:href="#m65f5707427" x="41.92" y="103.464465" style="stroke: #000000; stroke-width: 0.8"/>
      </g>
     </g>
     <g id="text_9">
      <!-- 0.20 -->
      <g transform="translate(10.83875 107.290247) scale(0.1 -0.1)">
       <use xlink:href="#DejaVuSansMono-30"/>
       <use xlink:href="#DejaVuSansMono-2e" x="60.205078"/>
       <use xlink:href="#DejaVuSansMono-32" x="120.410156"/>
       <use xlink:href="#DejaVuSansMono-30" x="180.615234"/>
      </g>
     </g>
    </g>
    <g id="ytick_6">
     <g id="line2d_10">
      <g>
       <use xlink:href="#m65f5707427" x="41.92" y="32.770127" style="stroke: #000000; stroke-width: 0.8"/>
      </g>
     </g>
     <g id="text_10">
      <!-- 0.25 -->
      <g transform="translate(10.83875 36.595908) scale(0.1 -0.1)">
       <use xlink:href="#DejaVuSansMono-30"/>
       <use xlink:href="#DejaVuSansMono-2e" x="60.205078"/>
       <use xlink:href="#DejaVuSansMono-32" x="120.410156"/>
       <use xlink:href="#DejaVuSansMono-35" x="180.615234"/>
      </g>
     </g>
    </g>
   </g>
   <g id="line2d_11">
    <path d="M 33.650071 30.367448 
L 34.477064 32.901401 
L 35.304057 33.452116 
L 36.13105 28.678182 
L 36.958043 33.494083 
L 37.785036 36.239914 
L 38.612029 77.066942 
L 39.439021 109.500794 
L 40.266014 118.942727 
L 41.093007 112.552279 
L 41.92 153.833647 
L 42.746993 176.936406 
L 43.573986 186.933865 
L 45.227971 262.302342 
L 46.054964 288.586301 
L 46.881957 288.586301 
L 48.535943 305.977453 
L 49.362936 270.941919 
L 50.189929 270.941919 
L 51.016922 279.16219 
L 51.843914 309.095828 
L 53.4979 309.095828 
L 54.324893 321.390496 
L 55.151886 315.881846 
L 55.978879 315.881846 
L 56.805872 335.681836 
L 57.632864 377.107818 
L 58.459857 369.381662 
L 59.28685 369.381662 
L 60.113843 328.551043 
L 60.940836 328.551043 
L 62.594822 258.876128 
L 63.421814 264.384777 
L 64.248807 246.795756 
L 65.0758 250.421106 
L 65.902793 250.421106 
L 66.729786 256.155873 
L 67.556779 248.635199 
L 68.383772 273.432052 
L 69.210765 263.149239 
L 70.037757 296.631396 
L 70.86475 325.43594 
L 71.691743 325.43594 
L 72.518736 319.271664 
L 74.172722 319.271664 
L 74.999715 321.263054 
L 75.826707 328.783727 
L 76.6537 344.817494 
L 77.480693 355.100306 
L 78.307686 357.050495 
L 79.134679 362.488521 
L 79.961672 362.488521 
L 80.788665 386.241818 
L 81.615657 386.241818 
L 82.44265 344.96045 
L 87.404608 344.96045 
L 88.2316 342.982987 
L 89.058593 342.982987 
L 89.885586 334.516599 
L 90.712579 375.797967 
L 91.539572 366.961174 
L 93.193558 366.961174 
L 94.02055 353.869631 
L 94.847543 329.948887 
L 95.674536 329.948887 
L 96.501529 331.926351 
L 97.328522 331.926351 
L 98.155515 340.392738 
L 98.982508 338.54452 
L 99.809501 347.381313 
L 101.463486 347.381313 
L 102.290479 360.472856 
L 103.117472 384.3936 
L 103.944465 384.3936 
L 104.771458 344.397794 
L 106.425443 344.397794 
L 107.252436 346.246012 
L 112.214393 346.246012 
L 113.041386 386.241818 
L 115.522365 386.241818 
L 116.349358 374.79996 
L 117.176351 374.79996 
L 118.003344 360.332283 
L 118.830336 337.248418 
L 119.657329 337.248418 
L 120.484322 302.00869 
L 123.792294 302.00869 
L 124.619286 313.450548 
L 125.446279 313.450548 
L 126.273272 322.186252 
L 127.100265 345.270117 
L 127.927258 345.270117 
L 128.754251 380.509845 
L 129.581244 376.582382 
L 133.716208 376.582382 
L 134.543201 382.314355 
L 137.024179 382.314355 
L 137.851172 386.241818 
L 140.332151 386.241818 
L 141.159144 345.456623 
L 144.467115 345.456623 
L 145.294108 303.291008 
L 146.121101 303.291008 
L 146.948094 263.680175 
L 148.60208 263.680175 
L 149.429072 284.828053 
L 152.737044 284.828053 
L 153.564037 326.993667 
L 154.39103 326.993667 
L 155.218022 366.604501 
L 156.045015 354.427486 
L 156.872008 354.427486 
L 157.699001 374.064804 
L 159.352987 374.064804 
L 160.17998 331.802821 
L 163.487951 331.802821 
L 164.314944 335.462445 
L 167.622915 335.462445 
L 168.449908 377.724428 
L 169.276901 338.517264 
L 170.930887 338.517264 
L 171.75788 297.789923 
L 172.584873 306.307313 
L 173.411865 304.357125 
L 175.065851 304.357125 
L 175.892844 261.886762 
L 176.719837 261.886762 
L 177.54683 301.093926 
L 179.200815 301.093926 
L 180.027808 341.821267 
L 180.854801 341.821267 
L 181.681794 343.771455 
L 183.33578 343.771455 
L 184.162773 386.241818 
L 185.816758 386.241818 
L 186.643751 372.181065 
L 194.086687 372.181065 
L 194.91368 351.574403 
L 195.740673 316.307385 
L 198.221651 316.307385 
L 199.048644 275.550468 
L 202.356616 275.550468 
L 204.010601 345.484902 
L 206.49158 345.484902 
L 207.318573 386.241818 
L 209.799551 386.241818 
L 210.626544 373.388303 
L 211.453537 332.106935 
L 212.28053 332.106935 
L 213.107523 330.282565 
L 215.588502 330.282565 
L 216.415494 290.306597 
L 218.06948 290.306597 
L 218.896473 303.160112 
L 219.723466 344.44148 
L 220.550459 323.054954 
L 221.377452 324.879324 
L 223.85843 324.879324 
L 224.685423 364.855293 
L 227.993394 364.855293 
L 228.820387 386.241818 
L 229.64738 386.241818 
L 230.474373 380.586271 
L 232.128359 380.586271 
L 232.955352 338.039956 
L 237.917309 338.039956 
L 238.744302 343.695503 
L 240.398287 343.695503 
L 241.22528 386.241818 
L 242.879266 386.241818 
L 243.706259 348.84435 
L 244.533252 348.84435 
L 245.360245 306.670476 
L 251.149195 306.670476 
L 251.976188 344.067944 
L 252.80318 340.34719 
L 253.630173 382.521064 
L 260.246116 382.521064 
L 261.073109 386.241818 
L 261.900102 374.317472 
L 266.862059 374.317472 
L 267.689052 334.708586 
L 268.516045 334.708586 
L 269.343038 303.837696 
L 270.170031 313.838387 
L 272.651009 313.838387 
L 273.478002 301.230479 
L 275.131988 301.230479 
L 275.958981 340.839366 
L 276.785973 340.839366 
L 277.612966 371.710255 
L 278.439959 373.633911 
L 279.266952 353.639553 
L 280.920938 353.639553 
L 281.747931 366.247461 
L 286.709888 366.247461 
L 287.536881 386.241818 
L 288.363874 384.236305 
L 289.190866 384.236305 
L 290.017859 376.794796 
L 293.325831 376.794796 
L 294.152824 334.448185 
L 295.806809 334.448185 
L 296.633802 336.453698 
L 297.460795 336.453698 
L 298.287788 343.895208 
L 299.114781 311.159899 
L 301.595759 311.159899 
L 302.422752 353.506509 
L 306.557717 353.506509 
L 307.384709 386.241818 
L 308.211702 386.241818 
L 309.038695 350.267185 
L 312.346667 350.267185 
L 313.17366 322.566545 
L 316.481631 322.566545 
L 317.308624 358.541178 
L 318.135617 349.648809 
L 320.616595 349.648809 
L 321.443588 375.464267 
L 325.578552 375.464267 
L 326.405545 384.356636 
L 328.886524 384.356636 
L 329.713517 386.241818 
L 331.367503 386.241818 
L 332.194495 374.598044 
L 333.021488 344.487492 
L 335.502467 344.487492 
L 336.32946 308.216762 
L 337.156453 304.395446 
L 339.637431 304.395446 
L 340.464424 314.089031 
L 341.291417 344.199584 
L 342.11841 338.581491 
L 343.772396 338.581491 
L 344.599388 374.852221 
L 345.426381 378.673537 
L 346.253374 338.721506 
L 347.90736 338.721506 
L 348.734353 340.671695 
L 350.388338 282.760081 
L 351.215331 282.760081 
L 352.042324 240.385433 
L 353.69631 240.385433 
L 354.523303 280.337463 
L 355.350296 280.337463 
L 356.177288 246.84042 
L 357.004281 241.331771 
L 357.831274 270.270975 
L 358.658267 304.861477 
L 359.48526 279.987544 
L 360.312253 322.362192 
L 361.139246 309.209757 
L 361.966239 305.584407 
L 363.620224 305.584407 
L 364.447217 339.081449 
L 365.27421 344.590099 
L 366.101203 344.590099 
L 366.928196 305.488623 
L 367.755189 330.362557 
L 368.582181 330.362557 
L 369.409174 343.514992 
L 370.236167 347.140342 
L 372.717146 347.140342 
L 373.544139 343.319027 
L 374.371131 343.319027 
L 375.198124 382.420503 
L 377.679103 382.420503 
L 378.506096 341.268656 
L 380.987074 341.268656 
L 381.814067 345.089972 
L 383.468053 345.089972 
L 384.295046 343.12624 
L 385.122039 343.12624 
L 385.949032 341.148776 
L 386.776024 382.300623 
L 387.603017 382.300623 
L 388.43001 343.20698 
L 391.737982 343.20698 
L 392.564975 345.170711 
L 393.391967 345.170711 
L 394.21896 347.148175 
L 395.045953 347.148175 
L 395.872946 304.42976 
L 396.699939 343.523402 
L 397.526932 343.523402 
L 398.353925 301.545032 
L 403.315882 301.545032 
L 404.142875 344.263448 
L 405.79686 344.263448 
L 406.623853 386.241818 
L 415.720775 386.241818 
L 416.547768 378.991117 
L 423.990703 378.991117 
L 424.817696 384.250428 
L 431.433639 384.250428 
L 432.260632 361.322534 
L 433.087625 363.313924 
L 433.914618 363.313924 
L 434.741611 349.253171 
L 435.568603 315.777968 
L 436.395596 315.777968 
L 437.222589 305.039587 
L 439.703568 305.039587 
L 440.530561 327.967481 
L 441.357554 327.967481 
L 442.184546 302.382861 
L 443.011539 316.443614 
L 443.838532 340.677726 
L 444.665525 340.677726 
L 445.492518 307.801296 
L 449.627482 307.801296 
L 450.454475 333.385916 
L 451.281468 333.385916 
L 452.108461 342.627007 
L 452.935454 342.627007 
L 453.762446 386.241818 
L 462.032375 386.241818 
L 462.859368 350.894649 
L 463.686361 348.930918 
L 465.340347 337.346219 
L 470.302304 337.346219 
L 471.129297 372.693388 
L 472.783282 376.726999 
L 473.610275 382.420503 
L 479.399225 382.420503 
L 480.226218 342.341821 
L 481.053211 346.163136 
L 485.188175 346.163136 
L 486.015168 337.270767 
L 487.669154 337.270767 
L 488.496147 373.528133 
L 490.977125 373.528133 
L 491.804118 347.167531 
L 492.631111 347.167531 
L 493.458104 309.509529 
L 494.285097 302.243191 
L 495.11209 287.945459 
L 495.939083 287.945459 
L 496.766075 291.766775 
L 499.247054 291.766775 
L 500.074047 318.127377 
L 500.90104 318.127377 
L 501.728033 355.785379 
L 503.382018 386.241818 
L 505.036004 386.241818 
L 505.862997 384.29163 
L 509.997961 384.29163 
L 510.824954 382.354799 
L 513.305933 382.354799 
L 514.132926 384.304987 
L 514.959918 384.304987 
L 515.786911 358.349577 
L 518.26789 358.349577 
L 519.094883 360.286408 
L 523.229847 360.286408 
L 524.05684 386.241818 
L 524.883833 386.241818 
L 525.710826 368.893513 
L 529.018797 368.893513 
L 529.84579 366.943325 
L 531.499776 366.943325 
L 532.326769 328.346976 
L 533.153761 281.217415 
L 533.980754 289.502344 
L 535.63474 289.502344 
L 536.461733 261.753164 
L 537.288726 261.753164 
L 538.115719 263.703352 
L 539.769704 263.703352 
L 540.596697 302.299701 
L 541.42369 349.429262 
L 542.250683 358.492638 
L 543.077676 337.251146 
L 543.904669 337.251146 
L 544.731662 365.000327 
L 550.520612 365.000327 
L 551.347604 346.747772 
L 552.174597 342.900461 
L 554.655576 342.900461 
L 555.482569 333.598574 
L 556.309562 329.949834 
L 558.79054 329.949834 
L 559.617533 369.44388 
L 560.444526 373.291192 
L 561.271519 373.291192 
L 562.098512 359.744971 
L 562.925505 359.744971 
L 563.752497 369.046857 
L 564.57949 372.695597 
L 566.233476 372.695597 
L 567.060469 342.666142 
L 568.714455 342.666142 
L 569.541448 337.048049 
L 570.36844 350.59427 
L 574.503405 350.59427 
L 575.330398 380.623725 
L 576.15739 366.562972 
L 576.984383 366.562972 
L 577.811376 354.41495 
L 578.638369 350.487487 
L 579.465362 350.487487 
L 580.292355 324.094934 
L 583.600326 324.094934 
L 584.427319 336.150174 
L 585.254312 336.150174 
L 586.081305 313.877018 
L 586.908298 308.502594 
L 587.735291 308.502594 
L 588.562283 334.895147 
L 591.870255 334.895147 
L 592.697248 336.90066 
L 593.524241 336.90066 
L 594.351233 374.934418 
L 595.178226 378.691651 
L 601.794169 378.691651 
L 602.621162 380.697164 
L 603.448155 345.368397 
L 604.275148 343.390933 
L 605.102141 343.390933 
L 606.756126 339.46328 
L 610.891091 339.46328 
L 611.718084 370.973212 
L 612.545076 372.950676 
L 613.372069 372.950676 
L 615.026055 376.878329 
L 615.853048 376.878329 
L 616.680041 366.532815 
L 619.161019 366.532815 
L 619.988012 375.896305 
L 623.295984 375.896305 
L 624.122977 334.094434 
L 624.949969 335.318097 
L 625.776962 321.690272 
L 629.084934 321.690272 
L 629.911927 278.829378 
L 630.738919 269.992586 
L 631.565912 254.106217 
L 632.392905 295.908088 
L 634.046891 312.92579 
L 634.873884 312.92579 
L 635.700877 297.039421 
L 637.354862 297.039421 
L 638.181855 339.900315 
L 639.008848 348.737107 
L 639.835841 364.623476 
L 640.662834 362.659744 
L 641.489827 362.659744 
L 642.31682 366.400328 
L 643.143812 366.400328 
L 643.970805 382.286697 
L 648.10577 382.286697 
L 648.932762 384.250428 
L 649.759755 384.250428 
L 650.586748 386.241818 
L 651.413741 384.304987 
L 652.240734 384.304987 
L 653.067727 380.509318 
L 655.548705 380.509318 
L 657.202691 357.152872 
L 658.029684 357.152872 
L 658.856677 313.770456 
L 659.68367 315.707287 
L 660.510663 315.707287 
L 661.337655 319.502956 
L 663.818634 319.502956 
L 665.47262 342.859402 
L 666.299613 342.859402 
L 667.126606 386.241818 
L 670.434577 386.241818 
L 671.26157 382.314355 
L 672.915556 382.314355 
L 673.742548 378.712096 
L 678.704506 378.712096 
L 679.531498 382.639559 
L 681.185484 382.639559 
L 682.012477 386.241818 
L 682.83947 386.241818 
L 685.320449 262.935941 
L 686.147441 249.308116 
L 686.974434 249.308116 
L 687.801427 234.713156 
L 688.62842 209.544492 
L 689.455413 172.820156 
L 691.109399 172.820156 
L 691.936391 211.495745 
L 692.763384 256.372453 
L 693.590377 294.134643 
L 694.41737 307.762468 
L 695.244363 307.762468 
L 696.071356 322.357428 
L 696.898349 347.526092 
L 697.725341 384.250428 
L 698.552334 370.11156 
L 699.379327 370.11156 
L 700.20632 372.10295 
L 701.033313 348.223973 
L 703.514292 348.223973 
L 704.341284 338.982882 
L 705.168277 338.982882 
L 705.99527 316.989087 
L 706.822263 331.127955 
L 707.649256 321.826068 
L 708.476249 321.826068 
L 709.303242 303.87408 
L 710.130234 303.87408 
L 710.957227 300.026769 
L 711.78422 292.486039 
L 712.611213 301.72713 
L 713.438206 301.72713 
L 714.265199 323.720925 
L 715.092192 321.743461 
L 715.919185 331.045348 
L 716.746177 331.045348 
L 717.57317 372.876314 
L 718.400163 362.000262 
L 719.227156 365.847573 
L 720.054149 373.388302 
L 720.881142 373.388302 
L 721.708135 361.318537 
L 722.535127 361.318537 
L 723.36212 363.296001 
L 724.189113 336.922982 
L 725.016106 327.681892 
L 725.843099 327.681892 
L 726.670092 334.736629 
L 727.497085 334.736629 
L 728.324077 332.731116 
L 729.15107 313.340667 
L 729.978063 325.410432 
L 730.805056 325.410432 
L 731.632049 300.821095 
L 732.459042 327.194113 
L 733.286035 328.894474 
L 734.113028 328.894474 
L 734.94002 332.71579 
L 735.767013 332.71579 
L 736.594006 334.721303 
L 737.420999 348.53062 
L 738.247992 318.575393 
L 739.074985 311.182521 
L 739.901978 321.544067 
L 740.72897 319.566603 
L 741.555963 321.413828 
L 742.382956 321.413828 
L 743.209949 300.243331 
L 744.036942 298.265867 
L 744.863935 298.265867 
L 745.690928 297.996433 
L 746.51792 327.95166 
L 747.344913 321.878944 
L 748.171906 336.106735 
L 748.998899 336.106735 
L 749.825892 300.680492 
L 750.652885 300.680492 
L 751.479878 307.308153 
L 752.306871 309.285617 
L 753.133863 309.285617 
L 753.960856 311.390787 
L 754.787849 311.390787 
L 755.614842 324.856376 
L 756.441835 324.856376 
L 757.268828 326.83384 
L 758.095821 367.953586 
L 758.922813 367.953586 
L 759.749806 382.496423 
L 760.576799 382.496423 
L 761.403792 337.542077 
L 762.230785 321.199465 
L 763.057778 321.199465 
L 763.884771 315.505962 
L 764.711764 313.514572 
L 765.538756 313.514572 
L 767.192742 305.738328 
L 768.019735 305.738328 
L 768.846728 264.11742 
L 769.673721 293.949981 
L 770.500714 308.306015 
L 771.327706 306.314625 
L 772.154699 312.008128 
L 772.981692 284.233481 
L 773.808685 280.412165 
L 774.635678 284.233481 
L 775.462671 258.552354 
L 776.289664 258.552354 
L 777.116656 300.173262 
L 777.943649 311.394669 
L 778.770642 291.850456 
L 779.597635 293.841846 
L 780.424628 257.185523 
L 781.251621 286.95156 
L 782.078614 290.772876 
L 782.905607 282.098723 
L 783.732599 307.939109 
L 784.559592 305.933596 
L 785.386585 300.388942 
L 786.213578 302.311856 
L 787.040571 327.588043 
L 787.867564 327.588043 
L 788.694557 364.244366 
L 789.521549 362.266902 
L 790.348542 362.266902 
L 791.175535 370.941054 
L 792.002528 374.736723 
L 792.829521 367.378747 
L 793.656514 367.267854 
L 794.483507 369.245318 
L 795.310499 369.245318 
L 796.137492 352.899806 
L 796.964485 350.922342 
L 797.791478 338.4396 
L 798.618471 330.171256 
L 799.445464 330.171256 
L 800.272457 328.221068 
L 801.09945 328.031268 
L 801.926442 331.695425 
L 802.753435 331.695425 
L 803.580428 322.454334 
L 804.407421 307.508909 
L 805.234414 286.803698 
L 806.061407 255.389612 
L 806.8884 263.657955 
L 807.715392 261.652442 
L 808.542385 261.704796 
L 809.369378 260.240786 
L 810.196371 262.232176 
L 811.023364 252.991085 
L 811.850357 262.232176 
L 812.67735 293.523113 
L 813.504343 316.205788 
L 814.331335 362.08008 
L 815.158328 343.537302 
L 815.985321 345.542815 
L 816.812314 336.564597 
L 817.639307 338.400814 
L 818.4663 338.400814 
L 819.293293 347.641904 
L 820.120285 340.050566 
L 821.774271 340.050566 
L 822.601264 327.361839 
L 823.428257 325.706234 
L 824.25525 294.437586 
L 825.082243 276.486818 
L 825.909235 241.068788 
L 826.736228 195.035264 
L 827.563221 155.287447 
L 828.390214 162.878786 
L 829.217207 150.734973 
L 830.0442 125.53699 
L 830.871193 138.225717 
L 831.698186 122.613869 
L 832.525178 137.050533 
L 833.352171 165.877353 
L 834.179164 178.312218 
L 835.006157 224.345742 
L 835.83315 253.217506 
L 836.660143 247.672852 
L 837.487136 259.816665 
L 838.314128 275.833565 
L 839.141121 275.833565 
L 839.968114 304.346315 
L 840.795107 319.254646 
L 841.6221 279.346552 
L 842.449093 309.560611 
L 843.276086 309.560611 
L 844.103078 320.436663 
L 844.930071 325.981317 
L 845.757064 315.443031 
L 846.584057 317.182604 
L 847.41105 317.182604 
L 848.238043 324.480084 
L 849.065036 322.530077 
L 849.892029 338.625341 
L 850.719021 306.941219 
L 851.546014 263.669239 
L 852.373007 261.758582 
L 852.373007 261.758582 
" clip-path="url(#p0c79ea3b07)" style="fill: none; stroke-dasharray: 7.4,3.2; stroke-dashoffset: 0; stroke: #000000; stroke-width: 2"/>
   </g>
   <g id="patch_3">
    <path d="M 41.92 404.12 
L 41.92 10.8 
" style="fill: none; stroke: #000000; stroke-width: 0.8; stroke-linejoin: miter; stroke-linecap: square"/>
   </g>
   <g id="patch_4">
    <path d="M 853.2 404.12 
L 853.2 10.8 
" style="fill: none; stroke: #000000; stroke-width: 0.8; stroke-linejoin: miter; stroke-linecap: square"/>
   </g>
   <g id="patch_5">
    <path d="M 41.92 404.12 
L 853.2 404.12 
" style="fill: none; stroke: #000000; stroke-width: 0.8; stroke-linejoin: miter; stroke-linecap: square"/>
   </g>
   <g id="patch_6">
    <path d="M 41.92 10.8 
L 853.2 10.8 
" style="fill: none; stroke: #000000; stroke-width: 0.8; stroke-linejoin: miter; stroke-linecap: square"/>
   </g>
  </g>
 </g>
 <defs>
  <clipPath id="p0c79ea3b07">
   <rect x="41.92" y="10.8" width="811.28" height="393.32"/>
  </clipPath>
 </defs>
</svg>
