<?xml version="1.0" encoding="utf-8" standalone="no"?>
<!DOCTYPE svg PUBLIC "-//W3C//DTD SVG 1.1//EN"
  "http://www.w3.org/Graphics/SVG/1.1/DTD/svg11.dtd">
<svg xmlns:xlink="http://www.w3.org/1999/xlink" width="864pt" height="432pt" viewBox="0 0 864 432" xmlns="http://www.w3.org/2000/svg" version="1.1">
 <metadata>
  <rdf:RDF xmlns:dc="http://purl.org/dc/elements/1.1/" xmlns:cc="http://creativecommons.org/ns#" xmlns:rdf="http://www.w3.org/1999/02/22-rdf-syntax-ns#">
   <cc:Work>
    <dc:type rdf:resource="http://purl.org/dc/dcmitype/StillImage"/>
    <dc:date>2024-09-19T08:31:11.258076</dc:date>
    <dc:format>image/svg+xml</dc:format>
    <dc:creator>
     <cc:Agent>
      <dc:title>Matplotlib v3.9.2, https://matplotlib.org/</dc:title>
     </cc:Agent>
    </dc:creator>
   </cc:Work>
  </rdf:RDF>
 </metadata>
 <defs>
  <style type="text/css">*{stroke-linejoin: round; stroke-linecap: butt}</style>
 </defs>
 <g id="figure_1">
  <g id="patch_1">
   <path d="M 0 432 
L 864 432 
L 864 0 
L 0 0 
z
" style="fill: #ffffff"/>
  </g>
  <g id="axes_1">
   <g id="patch_2">
    <path d="M 35.89 404.12 
L 853.2 404.12 
L 853.2 10.8 
L 35.89 10.8 
z
" style="fill: #ffffff"/>
   </g>
   <g id="matplotlib.axis_1">
    <g id="xtick_1">
     <g id="line2d_1">
      <defs>
       <path id="m84f5cbf716" d="M 0 0 
L 0 3.5 
" style="stroke: #000000; stroke-width: 0.8"/>
      </defs>
      <g>
       <use xlink:href="#m84f5cbf716" x="194.186534" y="404.12" style="stroke: #000000; stroke-width: 0.8"/>
      </g>
     </g>
     <g id="text_1">
      <!-- 200 -->
      <g transform="translate(185.156065 418.771563) scale(0.1 -0.1)">
       <defs>
        <path id="DejaVuSansMono-32" d="M 1166 531 
L 3309 531 
L 3309 0 
L 475 0 
L 475 531 
Q 1059 1147 1496 1619 
Q 1934 2091 2100 2284 
Q 2413 2666 2522 2902 
Q 2631 3138 2631 3384 
Q 2631 3775 2401 3997 
Q 2172 4219 1772 4219 
Q 1488 4219 1175 4116 
Q 863 4013 513 3803 
L 513 4441 
Q 834 4594 1145 4672 
Q 1456 4750 1759 4750 
Q 2444 4750 2861 4386 
Q 3278 4022 3278 3431 
Q 3278 3131 3139 2831 
Q 3000 2531 2688 2169 
Q 2513 1966 2180 1606 
Q 1847 1247 1166 531 
z
" transform="scale(0.015625)"/>
        <path id="DejaVuSansMono-30" d="M 1509 2344 
Q 1509 2516 1629 2641 
Q 1750 2766 1919 2766 
Q 2094 2766 2219 2641 
Q 2344 2516 2344 2344 
Q 2344 2169 2220 2047 
Q 2097 1925 1919 1925 
Q 1744 1925 1626 2044 
Q 1509 2163 1509 2344 
z
M 1925 4250 
Q 1484 4250 1267 3775 
Q 1050 3300 1050 2328 
Q 1050 1359 1267 884 
Q 1484 409 1925 409 
Q 2369 409 2586 884 
Q 2803 1359 2803 2328 
Q 2803 3300 2586 3775 
Q 2369 4250 1925 4250 
z
M 1925 4750 
Q 2672 4750 3055 4137 
Q 3438 3525 3438 2328 
Q 3438 1134 3055 521 
Q 2672 -91 1925 -91 
Q 1178 -91 797 521 
Q 416 1134 416 2328 
Q 416 3525 797 4137 
Q 1178 4750 1925 4750 
z
" transform="scale(0.015625)"/>
       </defs>
       <use xlink:href="#DejaVuSansMono-32"/>
       <use xlink:href="#DejaVuSansMono-30" x="60.205078"/>
       <use xlink:href="#DejaVuSansMono-30" x="120.410156"/>
      </g>
     </g>
    </g>
    <g id="xtick_2">
     <g id="line2d_2">
      <g>
       <use xlink:href="#m84f5cbf716" x="360.814465" y="404.12" style="stroke: #000000; stroke-width: 0.8"/>
      </g>
     </g>
     <g id="text_2">
      <!-- 400 -->
      <g transform="translate(351.783996 418.771563) scale(0.1 -0.1)">
       <defs>
        <path id="DejaVuSansMono-34" d="M 2297 4091 
L 825 1625 
L 2297 1625 
L 2297 4091 
z
M 2194 4666 
L 2925 4666 
L 2925 1625 
L 3547 1625 
L 3547 1113 
L 2925 1113 
L 2925 0 
L 2297 0 
L 2297 1113 
L 319 1113 
L 319 1709 
L 2194 4666 
z
" transform="scale(0.015625)"/>
       </defs>
       <use xlink:href="#DejaVuSansMono-34"/>
       <use xlink:href="#DejaVuSansMono-30" x="60.205078"/>
       <use xlink:href="#DejaVuSansMono-30" x="120.410156"/>
      </g>
     </g>
    </g>
    <g id="xtick_3">
     <g id="line2d_3">
      <g>
       <use xlink:href="#m84f5cbf716" x="527.442396" y="404.12" style="stroke: #000000; stroke-width: 0.8"/>
      </g>
     </g>
     <g id="text_3">
      <!-- 600 -->
      <g transform="translate(518.411927 418.771563) scale(0.1 -0.1)">
       <defs>
        <path id="DejaVuSansMono-36" d="M 3097 4563 
L 3097 3981 
Q 2900 4097 2678 4158 
Q 2456 4219 2216 4219 
Q 1616 4219 1306 3767 
Q 997 3316 997 2438 
Q 1147 2750 1412 2917 
Q 1678 3084 2022 3084 
Q 2697 3084 3067 2670 
Q 3438 2256 3438 1497 
Q 3438 741 3056 325 
Q 2675 -91 1984 -91 
Q 1172 -91 794 492 
Q 416 1075 416 2328 
Q 416 3509 870 4129 
Q 1325 4750 2188 4750 
Q 2419 4750 2650 4701 
Q 2881 4653 3097 4563 
z
M 1972 2591 
Q 1569 2591 1337 2300 
Q 1106 2009 1106 1497 
Q 1106 984 1337 693 
Q 1569 403 1972 403 
Q 2391 403 2603 679 
Q 2816 956 2816 1497 
Q 2816 2041 2603 2316 
Q 2391 2591 1972 2591 
z
" transform="scale(0.015625)"/>
       </defs>
       <use xlink:href="#DejaVuSansMono-36"/>
       <use xlink:href="#DejaVuSansMono-30" x="60.205078"/>
       <use xlink:href="#DejaVuSansMono-30" x="120.410156"/>
      </g>
     </g>
    </g>
    <g id="xtick_4">
     <g id="line2d_4">
      <g>
       <use xlink:href="#m84f5cbf716" x="694.070326" y="404.12" style="stroke: #000000; stroke-width: 0.8"/>
      </g>
     </g>
     <g id="text_4">
      <!-- 800 -->
      <g transform="translate(685.039857 418.771563) scale(0.1 -0.1)">
       <defs>
        <path id="DejaVuSansMono-38" d="M 1925 2216 
Q 1503 2216 1273 1980 
Q 1044 1744 1044 1313 
Q 1044 881 1276 642 
Q 1509 403 1925 403 
Q 2350 403 2579 639 
Q 2809 875 2809 1313 
Q 2809 1741 2576 1978 
Q 2344 2216 1925 2216 
z
M 1375 2478 
Q 972 2581 745 2862 
Q 519 3144 519 3541 
Q 519 4097 897 4423 
Q 1275 4750 1925 4750 
Q 2578 4750 2956 4423 
Q 3334 4097 3334 3541 
Q 3334 3144 3107 2862 
Q 2881 2581 2478 2478 
Q 2947 2375 3195 2062 
Q 3444 1750 3444 1253 
Q 3444 622 3041 265 
Q 2638 -91 1925 -91 
Q 1213 -91 811 264 
Q 409 619 409 1247 
Q 409 1747 657 2061 
Q 906 2375 1375 2478 
z
M 1147 3481 
Q 1147 3106 1347 2909 
Q 1547 2713 1925 2713 
Q 2306 2713 2506 2909 
Q 2706 3106 2706 3481 
Q 2706 3863 2507 4063 
Q 2309 4263 1925 4263 
Q 1547 4263 1347 4061 
Q 1147 3859 1147 3481 
z
" transform="scale(0.015625)"/>
       </defs>
       <use xlink:href="#DejaVuSansMono-38"/>
       <use xlink:href="#DejaVuSansMono-30" x="60.205078"/>
       <use xlink:href="#DejaVuSansMono-30" x="120.410156"/>
      </g>
     </g>
    </g>
   </g>
   <g id="matplotlib.axis_2">
    <g id="ytick_1">
     <g id="line2d_5">
      <defs>
       <path id="maf8892b96c" d="M 0 0 
L -3.5 0 
" style="stroke: #000000; stroke-width: 0.8"/>
      </defs>
      <g>
       <use xlink:href="#maf8892b96c" x="35.89" y="387.87924" style="stroke: #000000; stroke-width: 0.8"/>
      </g>
     </g>
     <g id="text_5">
      <!-- 0.0 -->
      <g transform="translate(10.829063 391.705021) scale(0.1 -0.1)">
       <defs>
        <path id="DejaVuSansMono-2e" d="M 1528 953 
L 2316 953 
L 2316 0 
L 1528 0 
L 1528 953 
z
" transform="scale(0.015625)"/>
       </defs>
       <use xlink:href="#DejaVuSansMono-30"/>
       <use xlink:href="#DejaVuSansMono-2e" x="60.205078"/>
       <use xlink:href="#DejaVuSansMono-30" x="120.410156"/>
      </g>
     </g>
    </g>
    <g id="ytick_2">
     <g id="line2d_6">
      <g>
       <use xlink:href="#maf8892b96c" x="35.89" y="315.832697" style="stroke: #000000; stroke-width: 0.8"/>
      </g>
     </g>
     <g id="text_6">
      <!-- 0.2 -->
      <g transform="translate(10.829063 319.658478) scale(0.1 -0.1)">
       <use xlink:href="#DejaVuSansMono-30"/>
       <use xlink:href="#DejaVuSansMono-2e" x="60.205078"/>
       <use xlink:href="#DejaVuSansMono-32" x="120.410156"/>
      </g>
     </g>
    </g>
    <g id="ytick_3">
     <g id="line2d_7">
      <g>
       <use xlink:href="#maf8892b96c" x="35.89" y="243.786154" style="stroke: #000000; stroke-width: 0.8"/>
      </g>
     </g>
     <g id="text_7">
      <!-- 0.4 -->
      <g transform="translate(10.829063 247.611935) scale(0.1 -0.1)">
       <use xlink:href="#DejaVuSansMono-30"/>
       <use xlink:href="#DejaVuSansMono-2e" x="60.205078"/>
       <use xlink:href="#DejaVuSansMono-34" x="120.410156"/>
      </g>
     </g>
    </g>
    <g id="ytick_4">
     <g id="line2d_8">
      <g>
       <use xlink:href="#maf8892b96c" x="35.89" y="171.739611" style="stroke: #000000; stroke-width: 0.8"/>
      </g>
     </g>
     <g id="text_8">
      <!-- 0.6 -->
      <g transform="translate(10.829063 175.565392) scale(0.1 -0.1)">
       <use xlink:href="#DejaVuSansMono-30"/>
       <use xlink:href="#DejaVuSansMono-2e" x="60.205078"/>
       <use xlink:href="#DejaVuSansMono-36" x="120.410156"/>
      </g>
     </g>
    </g>
    <g id="ytick_5">
     <g id="line2d_9">
      <g>
       <use xlink:href="#maf8892b96c" x="35.89" y="99.693068" style="stroke: #000000; stroke-width: 0.8"/>
      </g>
     </g>
     <g id="text_9">
      <!-- 0.8 -->
      <g transform="translate(10.829063 103.51885) scale(0.1 -0.1)">
       <use xlink:href="#DejaVuSansMono-30"/>
       <use xlink:href="#DejaVuSansMono-2e" x="60.205078"/>
       <use xlink:href="#DejaVuSansMono-38" x="120.410156"/>
      </g>
     </g>
    </g>
    <g id="ytick_6">
     <g id="line2d_10">
      <g>
       <use xlink:href="#maf8892b96c" x="35.89" y="27.646526" style="stroke: #000000; stroke-width: 0.8"/>
      </g>
     </g>
     <g id="text_10">
      <!-- 1.0 -->
      <g transform="translate(10.829063 31.472307) scale(0.1 -0.1)">
       <defs>
        <path id="DejaVuSansMono-31" d="M 844 531 
L 1825 531 
L 1825 4097 
L 769 3859 
L 769 4434 
L 1819 4666 
L 2450 4666 
L 2450 531 
L 3419 531 
L 3419 0 
L 844 0 
L 844 531 
z
" transform="scale(0.015625)"/>
       </defs>
       <use xlink:href="#DejaVuSansMono-31"/>
       <use xlink:href="#DejaVuSansMono-2e" x="60.205078"/>
       <use xlink:href="#DejaVuSansMono-30" x="120.410156"/>
      </g>
     </g>
    </g>
   </g>
   <g id="line2d_11">
    <path d="M 27.558603 351.137799 
L 28.391743 350.420954 
L 29.224883 350.485168 
L 30.058022 343.595376 
L 30.891162 341.994341 
L 31.724302 336.252684 
L 32.557441 333.33413 
L 33.390581 338.748032 
L 34.223721 331.552939 
L 35.05686 322.285542 
L 35.89 317.211841 
L 36.72314 318.564866 
L 37.556279 315.797288 
L 38.389419 316.23042 
L 39.222559 314.804289 
L 40.055698 319.239485 
L 40.888838 327.774791 
L 41.721978 326.991676 
L 42.555117 336.816205 
L 43.388257 335.811907 
L 44.221397 330.809168 
L 45.054536 334.534739 
L 45.887676 343.632767 
L 46.720815 342.331255 
L 47.553955 345.358421 
L 48.387095 340.101436 
L 49.220234 341.634341 
L 50.053374 342.417456 
L 50.886514 341.004779 
L 52.552793 361.352913 
L 53.385933 366.038867 
L 54.219072 360.973095 
L 55.052212 371.810178 
L 55.885352 364.680573 
L 56.718491 370.966297 
L 57.551631 370.966297 
L 59.21791 364.706123 
L 60.05105 353.413112 
L 61.717329 353.413112 
L 62.550469 358.478885 
L 63.383609 349.523947 
L 64.216748 345.509099 
L 65.049888 337.199926 
L 65.883028 337.199926 
L 66.716167 339.597579 
L 67.549307 344.054066 
L 69.215586 344.152594 
L 70.048726 344.152594 
L 71.715005 340.005735 
L 73.381284 362.764249 
L 74.214424 352.471886 
L 75.047564 351.689562 
L 75.880703 351.689562 
L 76.713843 359.220662 
L 78.380122 359.220662 
L 79.213262 361.382059 
L 80.046402 372.322459 
L 80.879541 371.503748 
L 81.712681 371.503748 
L 82.545821 372.439417 
L 83.37896 363.026143 
L 84.2121 359.312403 
L 85.04524 362.975787 
L 85.878379 362.975787 
L 86.711519 359.045975 
L 87.544659 359.045975 
L 88.377798 356.721893 
L 89.210938 357.540604 
L 90.044077 346.781653 
L 90.877217 350.850527 
L 91.710357 350.181614 
L 92.543496 353.895353 
L 93.376636 341.714822 
L 94.209776 341.714822 
L 95.042915 335.049554 
L 95.876055 335.049554 
L 96.709195 337.373636 
L 97.542334 326.175786 
L 98.375474 336.934737 
L 99.208614 335.731877 
L 100.041753 340.210445 
L 100.874893 340.210445 
L 101.708033 352.390977 
L 102.541172 352.390977 
L 103.374312 362.986056 
L 104.207452 362.167345 
L 105.040591 362.167345 
L 105.873731 373.365195 
L 106.706871 372.546484 
L 108.37315 386.241818 
L 109.20629 386.241818 
L 110.039429 382.675158 
L 110.872569 382.675158 
L 111.705708 372.142038 
L 112.538848 366.695832 
L 113.371988 357.933414 
L 114.205127 357.933414 
L 115.038267 358.752125 
L 115.871407 357.942613 
L 116.704546 349.881462 
L 117.537686 339.401964 
L 118.370826 342.968624 
L 119.203965 337.426583 
L 120.037105 334.680536 
L 120.870245 336.275769 
L 121.703384 345.038186 
L 122.536524 342.663026 
L 124.202803 342.653827 
L 125.035943 350.714978 
L 126.702222 344.913671 
L 127.535362 338.99024 
L 128.368502 352.269407 
L 129.201641 355.320067 
L 130.034781 346.023739 
L 130.86792 343.3047 
L 131.70106 341.703665 
L 132.5342 330.274464 
L 133.367339 330.274464 
L 134.200479 339.689468 
L 135.033619 341.904296 
L 135.866758 346.653565 
L 136.699898 344.252013 
L 137.533038 343.469485 
L 138.366177 352.765813 
L 139.199317 353.449 
L 140.032457 344.757672 
L 140.865596 347.633677 
L 141.698736 340.429022 
L 142.531876 336.04545 
L 143.365015 334.514817 
L 144.198155 329.004939 
L 145.031295 324.515082 
L 145.864434 324.56729 
L 146.697574 310.602321 
L 147.530714 310.463026 
L 148.363853 319.936678 
L 149.196993 326.367911 
L 150.030133 321.984659 
L 150.863272 324.658452 
L 151.696412 320.274474 
L 152.529551 321.014875 
L 153.362691 322.65289 
L 154.195831 309.966432 
L 155.02897 308.35377 
L 155.86211 306.233102 
L 156.69525 301.401103 
L 157.528389 302.722755 
L 158.361529 300.398226 
L 160.027808 287.674126 
L 160.860948 284.710911 
L 161.694088 275.141333 
L 162.527227 275.025716 
L 163.360367 278.595589 
L 165.026646 267.07774 
L 165.859786 259.547996 
L 166.692926 263.607914 
L 167.526065 268.396916 
L 168.359205 270.853049 
L 169.192345 282.203168 
L 170.025484 281.015797 
L 170.858624 283.482964 
L 171.691764 287.942988 
L 172.524903 282.884491 
L 173.358043 286.116119 
L 174.191182 278.335917 
L 175.024322 277.149045 
L 175.857462 277.358705 
L 176.690601 274.791089 
L 177.523741 260.034852 
L 178.356881 258.891255 
L 179.19002 256.890861 
L 180.02316 248.741304 
L 180.8563 250.558798 
L 181.689439 246.892862 
L 182.522579 245.122727 
L 183.355719 237.569462 
L 184.188858 227.464688 
L 185.021998 221.874092 
L 185.855138 221.821583 
L 186.688277 225.927723 
L 187.521417 222.04823 
L 189.187696 217.316526 
L 190.020836 210.517046 
L 191.687115 207.646455 
L 192.520255 204.698772 
L 193.353394 204.248877 
L 194.186534 201.410012 
L 195.019674 201.511949 
L 195.852813 199.852497 
L 196.685953 197.556253 
L 197.519093 193.977471 
L 198.352232 199.047836 
L 199.185372 203.221547 
L 200.018512 202.07601 
L 201.684791 198.363709 
L 202.517931 199.422961 
L 203.35107 192.681688 
L 204.18421 192.93198 
L 205.01735 189.963432 
L 205.850489 188.829307 
L 206.683629 183.498347 
L 207.516769 176.903756 
L 208.349908 175.995801 
L 210.016188 173.097083 
L 210.849327 167.99401 
L 211.682467 165.654177 
L 212.515607 161.204916 
L 213.348746 160.155027 
L 214.181886 158.6059 
L 215.015025 152.362076 
L 215.848165 149.293696 
L 216.681305 146.706568 
L 217.514444 146.741722 
L 218.347584 145.022834 
L 219.180724 145.220231 
L 220.013863 143.753763 
L 220.847003 143.367842 
L 221.680143 141.201228 
L 222.513282 139.905539 
L 223.346422 140.504777 
L 224.179562 141.79132 
L 225.012701 138.983005 
L 225.845841 141.40915 
L 226.678981 139.1957 
L 228.34526 131.995186 
L 229.1784 128.594966 
L 230.011539 129.383396 
L 230.844679 128.902419 
L 231.677819 124.739802 
L 232.510958 122.62155 
L 233.344098 123.602048 
L 234.177238 118.105348 
L 235.010377 117.37266 
L 235.843517 119.106019 
L 236.676656 117.065814 
L 237.509796 115.852365 
L 238.342936 112.063958 
L 239.176075 107.476885 
L 240.009215 106.733873 
L 241.675494 102.13679 
L 242.508634 99.401889 
L 243.341774 97.928436 
L 244.174913 95.805637 
L 245.008053 96.086809 
L 245.841193 96.982917 
L 247.507472 101.243879 
L 248.340612 102.729226 
L 249.173751 101.300428 
L 250.006891 99.432556 
L 250.840031 96.485606 
L 251.67317 94.277048 
L 252.50631 93.429441 
L 253.33945 89.942418 
L 254.172589 91.117457 
L 255.005729 86.689692 
L 255.838869 85.186168 
L 256.672008 86.517554 
L 257.505148 83.78576 
L 258.338287 83.227577 
L 259.171427 83.974048 
L 260.004567 84.465953 
L 260.837706 81.890353 
L 261.670846 84.884278 
L 262.503986 79.27782 
L 263.337125 79.233129 
L 264.170265 76.212642 
L 265.003405 69.571109 
L 265.836544 73.357027 
L 266.669684 71.499234 
L 267.502824 71.640045 
L 268.335963 67.249778 
L 269.169103 67.379429 
L 270.002243 64.012208 
L 270.835382 64.68652 
L 271.668522 65.049704 
L 272.501662 66.205533 
L 273.334801 66.996012 
L 274.167941 62.533766 
L 275.001081 63.753566 
L 275.83422 62.215624 
L 276.66736 62.981529 
L 277.500499 61.28415 
L 278.333639 62.54092 
L 279.166779 61.690366 
L 279.999918 62.016651 
L 281.666198 62.19123 
L 282.499337 63.693701 
L 283.332477 61.817417 
L 284.165617 60.421303 
L 284.998756 59.90365 
L 285.831896 59.083093 
L 286.665036 57.65717 
L 287.498175 58.973365 
L 288.331315 57.571948 
L 289.164455 56.415465 
L 289.997594 56.415465 
L 290.830734 56.867874 
L 291.663874 59.596875 
L 292.497013 60.700351 
L 293.330153 59.687371 
L 294.163293 62.097906 
L 294.996432 62.344367 
L 295.829572 60.513766 
L 296.662712 58.189894 
L 297.495851 56.962484 
L 298.328991 56.418595 
L 299.16213 56.345465 
L 299.99527 55.782812 
L 300.82841 54.242688 
L 301.661549 56.522751 
L 302.494689 57.130065 
L 303.327829 56.438549 
L 304.160968 56.087167 
L 304.994108 57.892846 
L 305.827248 57.565042 
L 306.660387 55.550462 
L 307.493527 53.953479 
L 308.326667 51.480595 
L 309.159806 52.654979 
L 309.992946 50.770471 
L 310.826086 47.377066 
L 311.659225 45.673005 
L 312.492365 45.607012 
L 313.325505 42.95387 
L 314.158644 45.845683 
L 314.991784 47.192305 
L 316.658063 47.461202 
L 317.491203 46.300309 
L 318.324343 47.617407 
L 319.990622 48.468909 
L 320.823761 49.609898 
L 321.656901 50.445186 
L 322.490041 45.968009 
L 323.32318 45.6139 
L 324.98946 44.553839 
L 325.822599 45.898602 
L 326.655739 43.786109 
L 327.488879 42.955742 
L 328.322018 43.071137 
L 329.155158 42.137696 
L 329.988298 42.68 
L 330.821437 43.480391 
L 331.654577 42.869942 
L 332.487717 41.355372 
L 333.320856 40.999996 
L 334.153996 39.506743 
L 335.820275 42.30923 
L 336.653415 42.516894 
L 337.486555 41.744724 
L 338.319694 42.326617 
L 339.152834 43.490457 
L 339.985973 42.921669 
L 340.819113 43.368782 
L 341.652253 44.142009 
L 342.485392 44.318414 
L 343.318532 44.084813 
L 344.984811 42.555053 
L 345.817951 41.99001 
L 347.48423 42.432481 
L 348.31737 42.418033 
L 349.15051 42.798833 
L 349.983649 41.422221 
L 350.816789 42.159339 
L 351.649929 41.546554 
L 352.483068 42.53221 
L 353.316208 43.835723 
L 354.149348 44.591043 
L 355.815627 42.420592 
L 356.648767 42.212406 
L 357.481906 43.973401 
L 358.315046 43.758076 
L 359.148186 42.785013 
L 359.981325 42.38934 
L 360.814465 42.979827 
L 361.647604 41.481775 
L 362.480744 40.515875 
L 363.313884 41.62569 
L 364.147023 42.39786 
L 364.980163 42.807217 
L 365.813303 41.940164 
L 366.646442 42.731586 
L 367.479582 42.926124 
L 368.312722 44.888651 
L 369.145861 42.701985 
L 369.979001 43.088911 
L 370.812141 44.243006 
L 371.64528 42.124772 
L 372.47842 42.148698 
L 373.31156 42.787575 
L 374.144699 41.08433 
L 374.977839 41.08433 
L 375.810979 41.736178 
L 376.644118 40.954298 
L 377.477258 41.537534 
L 378.310398 41.859766 
L 379.143537 41.689164 
L 379.976677 42.684093 
L 380.809817 42.452619 
L 381.642956 44.541364 
L 382.476096 44.330784 
L 383.309235 44.330784 
L 384.142375 43.0957 
L 384.975515 42.591035 
L 385.808654 42.407866 
L 387.474934 40.729068 
L 388.308073 42.734551 
L 389.141213 41.794372 
L 389.974353 39.254276 
L 390.807492 39.677871 
L 391.640632 42.125021 
L 393.306911 43.810638 
L 394.140051 43.602542 
L 394.973191 45.652021 
L 395.80633 45.237961 
L 396.63947 44.197036 
L 397.47261 44.572592 
L 398.305749 44.375866 
L 399.138889 44.743461 
L 399.972029 41.504889 
L 400.805168 41.33979 
L 401.638308 40.58418 
L 402.471448 40.385234 
L 403.304587 38.967176 
L 404.137727 38.758962 
L 404.970866 37.204192 
L 405.804006 36.840265 
L 406.637146 36.641318 
L 407.470285 36.080193 
L 408.303425 36.080193 
L 409.136565 35.670841 
L 409.969704 36.553991 
L 411.635984 40.738666 
L 412.469123 44.116283 
L 413.302263 45.647645 
L 414.135403 45.235949 
L 414.968542 46.066316 
L 415.801682 46.505257 
L 416.634822 47.587991 
L 417.467961 48.939357 
L 418.301101 47.443396 
L 421.63366 39.17338 
L 422.466799 39.166404 
L 424.133078 37.267048 
L 424.966218 36.781196 
L 425.799358 37.256896 
L 426.632497 36.83813 
L 427.465637 37.016248 
L 428.298777 37.016248 
L 429.131916 35.989377 
L 430.798196 35.993975 
L 431.631335 36.973077 
L 432.464475 38.16005 
L 433.297615 38.381876 
L 434.130754 36.545611 
L 434.963894 36.74682 
L 435.797034 38.376429 
L 436.630173 38.555326 
L 437.463313 39.369329 
L 438.296453 39.369329 
L 439.129592 38.751788 
L 439.962732 38.600807 
L 440.795872 37.418646 
L 441.629011 37.256357 
L 442.462151 36.652694 
L 443.295291 38.391474 
L 444.12843 35.755628 
L 444.96157 34.362464 
L 445.794709 34.175535 
L 446.627849 34.379042 
L 447.460989 34.996583 
L 448.294128 34.573112 
L 449.127268 35.160477 
L 449.960408 35.295477 
L 450.793547 35.899141 
L 451.626687 34.94296 
L 452.459827 37.267042 
L 453.292966 37.884583 
L 454.126106 37.861054 
L 454.959246 38.28945 
L 456.625525 37.880093 
L 458.291804 37.893583 
L 459.124944 37.28992 
L 459.958084 36.514297 
L 460.791223 34.396062 
L 461.624363 33.984369 
L 462.457503 33.785474 
L 464.123782 34.155171 
L 465.790061 34.204517 
L 466.623201 33.198476 
L 467.45634 34.193405 
L 468.28948 33.575864 
L 469.12262 34.179528 
L 469.955759 33.973681 
L 470.788899 34.664925 
L 471.622039 34.711997 
L 472.455178 35.387979 
L 473.288318 35.165345 
L 474.121458 35.707649 
L 474.954597 35.499423 
L 475.787737 35.882086 
L 476.620877 38.780511 
L 477.454016 38.780511 
L 478.287156 39.590022 
L 479.120296 39.663506 
L 480.786575 37.943558 
L 481.619715 38.144768 
L 482.452854 36.970683 
L 483.285994 36.970683 
L 484.119134 35.387242 
L 484.952273 32.694666 
L 485.785413 32.694666 
L 486.618552 32.495719 
L 487.451692 32.113055 
L 488.284832 33.14939 
L 489.117971 33.144684 
L 489.951111 33.734896 
L 490.784251 33.531388 
L 491.61739 34.141953 
L 492.45053 34.35018 
L 493.28367 36.109238 
L 494.116809 36.137477 
L 494.949949 35.936268 
L 495.783089 35.144846 
L 496.616228 35.503698 
L 497.449368 37.059249 
L 499.115647 36.670231 
L 499.948787 39.093205 
L 500.781927 39.69449 
L 501.615066 39.50122 
L 502.448206 40.056633 
L 503.281346 41.43849 
L 504.114485 41.43849 
L 504.947625 39.837456 
L 506.613904 37.896078 
L 507.447044 40.066156 
L 508.280183 37.657298 
L 509.113323 38.700411 
L 509.946463 36.928775 
L 511.612742 36.143801 
L 512.445882 35.940294 
L 513.279021 36.146141 
L 514.112161 35.914517 
L 514.945301 37.686153 
L 515.77844 35.925431 
L 516.61158 36.693915 
L 517.44472 35.650801 
L 518.277859 36.060156 
L 519.110999 35.259766 
L 520.777278 35.584772 
L 521.610418 35.797798 
L 522.443558 35.194134 
L 523.276697 33.836559 
L 524.109837 34.044745 
L 524.942977 32.857429 
L 525.776116 33.631358 
L 526.609256 33.222003 
L 527.442396 33.222003 
L 528.275535 32.322611 
L 529.108675 32.53323 
L 529.941814 33.342421 
L 532.441233 32.720174 
L 533.274373 32.720174 
L 534.107513 31.550795 
L 534.940652 31.964857 
L 535.773792 32.568521 
L 537.440071 32.156692 
L 538.273211 31.337982 
L 539.106351 31.969971 
L 539.93949 31.97235 
L 540.77263 31.768843 
L 541.60577 32.805178 
L 542.438909 32.596964 
L 543.272049 32.182902 
L 544.105189 31.998071 
L 544.938328 31.998071 
L 545.771468 32.649786 
L 546.604608 32.446279 
L 547.437747 32.020137 
L 549.104027 31.606063 
L 549.937166 30.773235 
L 550.770306 30.567388 
L 551.603445 32.24289 
L 552.436585 31.824057 
L 553.269725 31.824057 
L 554.102864 31.368845 
L 555.769144 31.373603 
L 556.602283 31.579451 
L 557.435423 32.780228 
L 558.268563 33.180384 
L 559.101702 33.790949 
L 559.934842 33.316224 
L 560.767982 33.727917 
L 561.601121 33.929127 
L 563.267401 33.929127 
L 564.93368 33.515053 
L 565.76682 32.520124 
L 566.599959 32.997159 
L 567.433099 32.386594 
L 568.266239 31.394044 
L 569.099378 30.776503 
L 569.932518 30.374165 
L 570.765657 30.172955 
L 571.598797 30.575294 
L 572.431937 31.384805 
L 574.098216 32.620458 
L 574.931356 31.747973 
L 575.764495 31.747973 
L 576.597635 32.740523 
L 577.430775 32.740523 
L 579.097054 32.328789 
L 579.930194 34.149243 
L 580.763333 33.950296 
L 581.596473 34.324545 
L 582.429613 33.720881 
L 583.262752 35.472154 
L 584.095892 36.67293 
L 584.929032 36.082719 
L 585.762171 36.288566 
L 586.595311 37.489343 
L 587.428451 37.69285 
L 588.26159 35.872396 
L 589.92787 35.502699 
L 590.761009 35.710913 
L 591.594149 33.954934 
L 592.427288 33.163512 
L 593.260428 33.753724 
L 594.093568 33.961938 
L 595.759847 34.052415 
L 596.592987 33.44185 
L 598.259266 33.018132 
L 599.092406 32.604071 
L 599.925545 33.004227 
L 600.758685 32.80072 
L 601.591825 31.599943 
L 602.424964 31.595237 
L 603.258104 30.514538 
L 604.091244 30.938227 
L 604.924383 31.775978 
L 606.590663 31.769002 
L 607.423802 32.183063 
L 608.256942 31.782907 
L 609.090082 31.991121 
L 609.923221 32.800632 
L 610.756361 33.001842 
L 611.589501 33.001842 
L 612.42264 32.573446 
L 613.25578 31.735695 
L 614.088919 32.34856 
L 614.922059 32.14735 
L 615.755199 32.142643 
L 617.421478 32.93825 
L 619.087757 34.197884 
L 619.920897 34.406098 
L 620.754037 34.202591 
L 621.587176 35.040342 
L 622.420316 34.22163 
L 623.253456 34.226336 
L 624.086595 34.022829 
L 624.919735 33.627379 
L 625.752875 33.428432 
L 626.586014 32.241116 
L 627.419154 31.368631 
L 628.252294 31.373442 
L 629.085433 31.785136 
L 629.918573 31.557949 
L 630.751713 31.763797 
L 631.584852 31.349736 
L 632.417992 31.143888 
L 634.084271 30.325109 
L 634.917411 30.325109 
L 636.58369 29.492174 
L 637.41683 29.880872 
L 638.249969 29.880872 
L 639.083109 29.675024 
L 639.916249 30.084379 
L 641.582528 30.496074 
L 642.415668 30.496074 
L 643.248807 31.546851 
L 644.081947 31.546851 
L 644.915087 31.956206 
L 645.748226 30.949968 
L 646.581366 30.748758 
L 647.414506 31.558269 
L 649.080785 31.151293 
L 649.913925 31.354801 
L 651.580204 30.898567 
L 652.413344 31.312628 
L 654.079623 31.722065 
L 654.912762 31.518558 
L 655.745902 30.917273 
L 656.579042 30.709046 
L 657.412181 31.118401 
L 658.245321 30.914894 
L 659.078461 31.123121 
L 659.9116 30.116883 
L 660.74474 29.702821 
L 661.57788 29.092256 
L 663.244159 28.678182 
L 664.077299 29.523265 
L 664.910438 29.523265 
L 666.576718 29.11391 
L 667.409857 29.315039 
L 668.242997 30.515815 
L 669.076137 30.721663 
L 669.909276 31.531174 
L 670.742416 31.531174 
L 671.575556 31.940529 
L 672.408695 31.511899 
L 673.241835 31.511899 
L 674.908114 32.332948 
L 675.741254 32.534157 
L 676.574393 31.742736 
L 677.407533 32.543126 
L 678.240673 31.941841 
L 679.073812 34.111919 
L 679.906952 33.702564 
L 680.740092 33.077883 
L 681.573231 33.487238 
L 682.406371 33.494378 
L 683.239511 33.29087 
L 684.07265 34.638092 
L 684.90579 34.839302 
L 685.73893 34.038911 
L 686.572069 34.036532 
L 687.405209 32.685167 
L 688.238349 33.295732 
L 689.071488 34.313339 
L 689.904628 34.313339 
L 690.737768 34.49817 
L 691.570907 35.101834 
L 692.404047 33.144048 
L 693.237187 32.739331 
L 694.070326 32.947545 
L 694.903466 32.741697 
L 695.736606 32.128833 
L 696.569745 31.726495 
L 698.236024 31.33588 
L 699.069164 32.262431 
L 699.902304 31.661146 
L 700.735443 31.661146 
L 701.568583 31.874172 
L 702.401723 31.46011 
L 703.234862 31.46011 
L 704.068002 31.871803 
L 704.901142 31.869424 
L 706.567421 31.443641 
L 707.400561 30.526291 
L 708.2337 31.335672 
L 709.06684 31.745027 
L 709.89998 31.532001 
L 710.733119 32.585311 
L 712.399399 32.592451 
L 713.232538 32.997168 
L 714.065678 33.234209 
L 714.898818 34.627373 
L 715.731957 34.014509 
L 716.565097 33.202749 
L 717.398236 33.202749 
L 718.231376 34.014509 
L 719.064516 32.961199 
L 719.897655 33.77071 
L 721.563935 33.77071 
L 722.397074 33.13133 
L 723.230214 32.755774 
L 724.063354 33.160491 
L 725.729633 32.751136 
L 726.562773 32.344093 
L 727.395912 32.549941 
L 728.229052 31.948656 
L 729.062192 31.532203 
L 729.895331 30.921638 
L 731.561611 30.533555 
L 732.39475 30.128838 
L 733.22789 30.966589 
L 734.06103 31.179614 
L 734.894169 30.978405 
L 736.560449 31.387747 
L 737.393588 31.387747 
L 738.226728 32.971187 
L 739.059867 33.603176 
L 739.893007 32.971273 
L 740.726147 33.184299 
L 741.559286 32.552395 
L 742.392426 32.943034 
L 744.891845 31.710262 
L 745.724985 31.707883 
L 746.558124 30.543316 
L 747.391264 30.320682 
L 748.224404 30.323061 
L 749.890683 29.906567 
L 750.723823 29.097055 
L 751.556962 29.305282 
L 754.056381 29.305282 
L 754.889521 29.092256 
L 755.722661 29.501613 
L 757.38894 32.061764 
L 759.888359 32.061764 
L 760.721498 32.267612 
L 761.554638 33.115218 
L 762.387778 32.909371 
L 763.220917 32.91175 
L 764.054057 32.093037 
L 765.720336 29.116433 
L 766.553476 29.954184 
L 767.386616 30.578864 
L 769.052895 31.392896 
L 769.886035 30.751137 
L 770.719174 31.361702 
L 771.552314 31.359323 
L 772.385454 32.752487 
L 773.218593 33.561998 
L 774.884873 33.985784 
L 775.718012 33.971669 
L 776.551152 33.354128 
L 777.384292 34.136727 
L 778.217431 34.340234 
L 779.050571 33.729669 
L 779.88371 33.523822 
L 780.71685 32.130658 
L 781.54999 31.529373 
L 782.383129 31.945826 
L 783.216269 31.711228 
L 784.049409 31.100664 
L 784.882548 31.306511 
L 785.715688 30.327409 
L 786.548828 29.918054 
L 788.215107 29.918054 
L 789.048247 30.528619 
L 789.881386 30.52624 
L 790.714526 30.310914 
L 791.547666 29.901557 
L 792.380805 30.533546 
L 794.047085 30.119485 
L 794.880224 30.325333 
L 795.713364 30.325333 
L 796.546504 30.53118 
L 797.379643 30.334677 
L 798.212783 30.542891 
L 799.045923 30.341763 
L 799.879062 29.932408 
L 800.712202 29.300419 
L 801.545341 30.353729 
L 802.378481 30.147881 
L 803.211621 32.112111 
L 804.04476 32.317958 
L 804.8779 32.112111 
L 805.71104 32.107404 
L 806.544179 32.502854 
L 807.377319 34.066264 
L 808.210459 34.475619 
L 809.043598 36.059059 
L 809.876738 35.415104 
L 810.709878 35.620952 
L 811.543017 33.450874 
L 814.042436 34.693342 
L 814.875576 33.883831 
L 815.708716 32.318042 
L 816.541855 32.32756 
L 817.374995 31.158182 
L 818.208135 30.954674 
L 819.041274 31.162888 
L 819.874414 31.572243 
L 820.707554 31.77119 
L 822.373833 30.933439 
L 823.206972 31.141666 
L 824.040112 31.560498 
L 824.873252 31.141625 
L 825.706391 30.93579 
L 826.539531 30.93579 
L 827.372671 30.521728 
L 828.20581 30.521728 
L 829.03895 29.712217 
L 829.87209 29.712217 
L 830.705229 30.121574 
L 831.538369 31.184757 
L 832.371509 30.765924 
L 835.704067 30.763545 
L 836.537207 30.35419 
L 837.370347 30.35419 
L 838.203486 30.763545 
L 839.036626 30.150681 
L 839.869766 28.879271 
L 842.369185 29.51117 
L 843.202324 29.305323 
L 844.035464 29.719384 
L 844.868603 29.719384 
L 845.701743 30.128739 
L 846.534883 29.719384 
L 847.368022 29.719384 
L 848.201162 29.925232 
L 849.034302 29.714585 
L 850.700581 29.709774 
L 851.533721 30.119128 
L 852.36686 31.098231 
L 852.36686 31.098231 
" clip-path="url(#p264f037e86)" style="fill: none; stroke-dasharray: 7.4,3.2; stroke-dashoffset: 0; stroke: #000000; stroke-width: 2"/>
   </g>
   <g id="patch_3">
    <path d="M 35.89 404.12 
L 35.89 10.8 
" style="fill: none; stroke: #000000; stroke-width: 0.8; stroke-linejoin: miter; stroke-linecap: square"/>
   </g>
   <g id="patch_4">
    <path d="M 853.2 404.12 
L 853.2 10.8 
" style="fill: none; stroke: #000000; stroke-width: 0.8; stroke-linejoin: miter; stroke-linecap: square"/>
   </g>
   <g id="patch_5">
    <path d="M 35.89 404.12 
L 853.2 404.12 
" style="fill: none; stroke: #000000; stroke-width: 0.8; stroke-linejoin: miter; stroke-linecap: square"/>
   </g>
   <g id="patch_6">
    <path d="M 35.89 10.8 
L 853.2 10.8 
" style="fill: none; stroke: #000000; stroke-width: 0.8; stroke-linejoin: miter; stroke-linecap: square"/>
   </g>
  </g>
 </g>
 <defs>
  <clipPath id="p264f037e86">
   <rect x="35.89" y="10.8" width="817.31" height="393.32"/>
  </clipPath>
 </defs>
</svg>
