<?xml version="1.0" encoding="utf-8" standalone="no"?>
<!DOCTYPE svg PUBLIC "-//W3C//DTD SVG 1.1//EN"
  "http://www.w3.org/Graphics/SVG/1.1/DTD/svg11.dtd">
<svg xmlns:xlink="http://www.w3.org/1999/xlink" width="864pt" height="432pt" viewBox="0 0 864 432" xmlns="http://www.w3.org/2000/svg" version="1.1">
 <metadata>
  <rdf:RDF xmlns:dc="http://purl.org/dc/elements/1.1/" xmlns:cc="http://creativecommons.org/ns#" xmlns:rdf="http://www.w3.org/1999/02/22-rdf-syntax-ns#">
   <cc:Work>
    <dc:type rdf:resource="http://purl.org/dc/dcmitype/StillImage"/>
    <dc:date>2024-09-18T11:31:30.619638</dc:date>
    <dc:format>image/svg+xml</dc:format>
    <dc:creator>
     <cc:Agent>
      <dc:title>Matplotlib v3.9.2, https://matplotlib.org/</dc:title>
     </cc:Agent>
    </dc:creator>
   </cc:Work>
  </rdf:RDF>
 </metadata>
 <defs>
  <style type="text/css">*{stroke-linejoin: round; stroke-linecap: butt}</style>
 </defs>
 <g id="figure_1">
  <g id="patch_1">
   <path d="M 0 432 
L 864 432 
L 864 0 
L 0 0 
z
" style="fill: #ffffff"/>
  </g>
  <g id="axes_1">
   <g id="patch_2">
    <path d="M 35.89 404.12 
L 853.2 404.12 
L 853.2 10.8 
L 35.89 10.8 
z
" style="fill: #ffffff"/>
   </g>
   <g id="matplotlib.axis_1">
    <g id="xtick_1">
     <g id="line2d_1">
      <defs>
       <path id="m8ec3d3d40c" d="M 0 0 
L 0 3.5 
" style="stroke: #000000; stroke-width: 0.8"/>
      </defs>
      <g>
       <use xlink:href="#m8ec3d3d40c" x="188.817027" y="404.12" style="stroke: #000000; stroke-width: 0.8"/>
      </g>
     </g>
     <g id="text_1">
      <!-- 100 -->
      <g transform="translate(179.786558 418.771563) scale(0.1 -0.1)">
       <defs>
        <path id="DejaVuSansMono-31" d="M 844 531 
L 1825 531 
L 1825 4097 
L 769 3859 
L 769 4434 
L 1819 4666 
L 2450 4666 
L 2450 531 
L 3419 531 
L 3419 0 
L 844 0 
L 844 531 
z
" transform="scale(0.015625)"/>
        <path id="DejaVuSansMono-30" d="M 1509 2344 
Q 1509 2516 1629 2641 
Q 1750 2766 1919 2766 
Q 2094 2766 2219 2641 
Q 2344 2516 2344 2344 
Q 2344 2169 2220 2047 
Q 2097 1925 1919 1925 
Q 1744 1925 1626 2044 
Q 1509 2163 1509 2344 
z
M 1925 4250 
Q 1484 4250 1267 3775 
Q 1050 3300 1050 2328 
Q 1050 1359 1267 884 
Q 1484 409 1925 409 
Q 2369 409 2586 884 
Q 2803 1359 2803 2328 
Q 2803 3300 2586 3775 
Q 2369 4250 1925 4250 
z
M 1925 4750 
Q 2672 4750 3055 4137 
Q 3438 3525 3438 2328 
Q 3438 1134 3055 521 
Q 2672 -91 1925 -91 
Q 1178 -91 797 521 
Q 416 1134 416 2328 
Q 416 3525 797 4137 
Q 1178 4750 1925 4750 
z
" transform="scale(0.015625)"/>
       </defs>
       <use xlink:href="#DejaVuSansMono-31"/>
       <use xlink:href="#DejaVuSansMono-30" x="60.205078"/>
       <use xlink:href="#DejaVuSansMono-30" x="120.410156"/>
      </g>
     </g>
    </g>
    <g id="xtick_2">
     <g id="line2d_2">
      <g>
       <use xlink:href="#m8ec3d3d40c" x="358.735946" y="404.12" style="stroke: #000000; stroke-width: 0.8"/>
      </g>
     </g>
     <g id="text_2">
      <!-- 200 -->
      <g transform="translate(349.705477 418.771563) scale(0.1 -0.1)">
       <defs>
        <path id="DejaVuSansMono-32" d="M 1166 531 
L 3309 531 
L 3309 0 
L 475 0 
L 475 531 
Q 1059 1147 1496 1619 
Q 1934 2091 2100 2284 
Q 2413 2666 2522 2902 
Q 2631 3138 2631 3384 
Q 2631 3775 2401 3997 
Q 2172 4219 1772 4219 
Q 1488 4219 1175 4116 
Q 863 4013 513 3803 
L 513 4441 
Q 834 4594 1145 4672 
Q 1456 4750 1759 4750 
Q 2444 4750 2861 4386 
Q 3278 4022 3278 3431 
Q 3278 3131 3139 2831 
Q 3000 2531 2688 2169 
Q 2513 1966 2180 1606 
Q 1847 1247 1166 531 
z
" transform="scale(0.015625)"/>
       </defs>
       <use xlink:href="#DejaVuSansMono-32"/>
       <use xlink:href="#DejaVuSansMono-30" x="60.205078"/>
       <use xlink:href="#DejaVuSansMono-30" x="120.410156"/>
      </g>
     </g>
    </g>
    <g id="xtick_3">
     <g id="line2d_3">
      <g>
       <use xlink:href="#m8ec3d3d40c" x="528.654865" y="404.12" style="stroke: #000000; stroke-width: 0.8"/>
      </g>
     </g>
     <g id="text_3">
      <!-- 300 -->
      <g transform="translate(519.624396 418.771563) scale(0.1 -0.1)">
       <defs>
        <path id="DejaVuSansMono-33" d="M 2425 2497 
Q 2884 2375 3128 2064 
Q 3372 1753 3372 1288 
Q 3372 644 2939 276 
Q 2506 -91 1741 -91 
Q 1419 -91 1084 -31 
Q 750 28 428 141 
L 428 769 
Q 747 603 1056 522 
Q 1366 441 1672 441 
Q 2191 441 2469 675 
Q 2747 909 2747 1350 
Q 2747 1756 2469 1995 
Q 2191 2234 1716 2234 
L 1234 2234 
L 1234 2753 
L 1716 2753 
Q 2150 2753 2394 2943 
Q 2638 3134 2638 3475 
Q 2638 3834 2411 4026 
Q 2184 4219 1766 4219 
Q 1488 4219 1191 4156 
Q 894 4094 569 3969 
L 569 4550 
Q 947 4650 1242 4700 
Q 1538 4750 1766 4750 
Q 2447 4750 2855 4408 
Q 3263 4066 3263 3500 
Q 3263 3116 3048 2859 
Q 2834 2603 2425 2497 
z
" transform="scale(0.015625)"/>
       </defs>
       <use xlink:href="#DejaVuSansMono-33"/>
       <use xlink:href="#DejaVuSansMono-30" x="60.205078"/>
       <use xlink:href="#DejaVuSansMono-30" x="120.410156"/>
      </g>
     </g>
    </g>
    <g id="xtick_4">
     <g id="line2d_4">
      <g>
       <use xlink:href="#m8ec3d3d40c" x="698.573784" y="404.12" style="stroke: #000000; stroke-width: 0.8"/>
      </g>
     </g>
     <g id="text_4">
      <!-- 400 -->
      <g transform="translate(689.543315 418.771563) scale(0.1 -0.1)">
       <defs>
        <path id="DejaVuSansMono-34" d="M 2297 4091 
L 825 1625 
L 2297 1625 
L 2297 4091 
z
M 2194 4666 
L 2925 4666 
L 2925 1625 
L 3547 1625 
L 3547 1113 
L 2925 1113 
L 2925 0 
L 2297 0 
L 2297 1113 
L 319 1113 
L 319 1709 
L 2194 4666 
z
" transform="scale(0.015625)"/>
       </defs>
       <use xlink:href="#DejaVuSansMono-34"/>
       <use xlink:href="#DejaVuSansMono-30" x="60.205078"/>
       <use xlink:href="#DejaVuSansMono-30" x="120.410156"/>
      </g>
     </g>
    </g>
   </g>
   <g id="matplotlib.axis_2">
    <g id="ytick_1">
     <g id="line2d_5">
      <defs>
       <path id="me64f237353" d="M 0 0 
L -3.5 0 
" style="stroke: #000000; stroke-width: 0.8"/>
      </defs>
      <g>
       <use xlink:href="#me64f237353" x="35.89" y="386.241818" style="stroke: #000000; stroke-width: 0.8"/>
      </g>
     </g>
     <g id="text_5">
      <!-- 0.0 -->
      <g transform="translate(10.829063 390.067599) scale(0.1 -0.1)">
       <defs>
        <path id="DejaVuSansMono-2e" d="M 1528 953 
L 2316 953 
L 2316 0 
L 1528 0 
L 1528 953 
z
" transform="scale(0.015625)"/>
       </defs>
       <use xlink:href="#DejaVuSansMono-30"/>
       <use xlink:href="#DejaVuSansMono-2e" x="60.205078"/>
       <use xlink:href="#DejaVuSansMono-30" x="120.410156"/>
      </g>
     </g>
    </g>
    <g id="ytick_2">
     <g id="line2d_6">
      <g>
       <use xlink:href="#me64f237353" x="35.89" y="330.228796" style="stroke: #000000; stroke-width: 0.8"/>
      </g>
     </g>
     <g id="text_6">
      <!-- 0.1 -->
      <g transform="translate(10.829063 334.054577) scale(0.1 -0.1)">
       <use xlink:href="#DejaVuSansMono-30"/>
       <use xlink:href="#DejaVuSansMono-2e" x="60.205078"/>
       <use xlink:href="#DejaVuSansMono-31" x="120.410156"/>
      </g>
     </g>
    </g>
    <g id="ytick_3">
     <g id="line2d_7">
      <g>
       <use xlink:href="#me64f237353" x="35.89" y="274.215774" style="stroke: #000000; stroke-width: 0.8"/>
      </g>
     </g>
     <g id="text_7">
      <!-- 0.2 -->
      <g transform="translate(10.829063 278.041555) scale(0.1 -0.1)">
       <use xlink:href="#DejaVuSansMono-30"/>
       <use xlink:href="#DejaVuSansMono-2e" x="60.205078"/>
       <use xlink:href="#DejaVuSansMono-32" x="120.410156"/>
      </g>
     </g>
    </g>
    <g id="ytick_4">
     <g id="line2d_8">
      <g>
       <use xlink:href="#me64f237353" x="35.89" y="218.202752" style="stroke: #000000; stroke-width: 0.8"/>
      </g>
     </g>
     <g id="text_8">
      <!-- 0.3 -->
      <g transform="translate(10.829063 222.028533) scale(0.1 -0.1)">
       <use xlink:href="#DejaVuSansMono-30"/>
       <use xlink:href="#DejaVuSansMono-2e" x="60.205078"/>
       <use xlink:href="#DejaVuSansMono-33" x="120.410156"/>
      </g>
     </g>
    </g>
    <g id="ytick_5">
     <g id="line2d_9">
      <g>
       <use xlink:href="#me64f237353" x="35.89" y="162.18973" style="stroke: #000000; stroke-width: 0.8"/>
      </g>
     </g>
     <g id="text_9">
      <!-- 0.4 -->
      <g transform="translate(10.829063 166.015511) scale(0.1 -0.1)">
       <use xlink:href="#DejaVuSansMono-30"/>
       <use xlink:href="#DejaVuSansMono-2e" x="60.205078"/>
       <use xlink:href="#DejaVuSansMono-34" x="120.410156"/>
      </g>
     </g>
    </g>
    <g id="ytick_6">
     <g id="line2d_10">
      <g>
       <use xlink:href="#me64f237353" x="35.89" y="106.176707" style="stroke: #000000; stroke-width: 0.8"/>
      </g>
     </g>
     <g id="text_10">
      <!-- 0.5 -->
      <g transform="translate(10.829063 110.002489) scale(0.1 -0.1)">
       <defs>
        <path id="DejaVuSansMono-35" d="M 647 4666 
L 3009 4666 
L 3009 4134 
L 1222 4134 
L 1222 2988 
Q 1356 3038 1492 3061 
Q 1628 3084 1766 3084 
Q 2491 3084 2916 2656 
Q 3341 2228 3341 1497 
Q 3341 759 2895 334 
Q 2450 -91 1678 -91 
Q 1306 -91 998 -41 
Q 691 9 447 109 
L 447 750 
Q 734 594 1025 517 
Q 1316 441 1619 441 
Q 2141 441 2423 716 
Q 2706 991 2706 1497 
Q 2706 1997 2414 2275 
Q 2122 2553 1600 2553 
Q 1347 2553 1106 2495 
Q 866 2438 647 2322 
L 647 4666 
z
" transform="scale(0.015625)"/>
       </defs>
       <use xlink:href="#DejaVuSansMono-30"/>
       <use xlink:href="#DejaVuSansMono-2e" x="60.205078"/>
       <use xlink:href="#DejaVuSansMono-35" x="120.410156"/>
      </g>
     </g>
    </g>
    <g id="ytick_7">
     <g id="line2d_11">
      <g>
       <use xlink:href="#me64f237353" x="35.89" y="50.163685" style="stroke: #000000; stroke-width: 0.8"/>
      </g>
     </g>
     <g id="text_11">
      <!-- 0.6 -->
      <g transform="translate(10.829063 53.989466) scale(0.1 -0.1)">
       <defs>
        <path id="DejaVuSansMono-36" d="M 3097 4563 
L 3097 3981 
Q 2900 4097 2678 4158 
Q 2456 4219 2216 4219 
Q 1616 4219 1306 3767 
Q 997 3316 997 2438 
Q 1147 2750 1412 2917 
Q 1678 3084 2022 3084 
Q 2697 3084 3067 2670 
Q 3438 2256 3438 1497 
Q 3438 741 3056 325 
Q 2675 -91 1984 -91 
Q 1172 -91 794 492 
Q 416 1075 416 2328 
Q 416 3509 870 4129 
Q 1325 4750 2188 4750 
Q 2419 4750 2650 4701 
Q 2881 4653 3097 4563 
z
M 1972 2591 
Q 1569 2591 1337 2300 
Q 1106 2009 1106 1497 
Q 1106 984 1337 693 
Q 1569 403 1972 403 
Q 2391 403 2603 679 
Q 2816 956 2816 1497 
Q 2816 2041 2603 2316 
Q 2391 2591 1972 2591 
z
" transform="scale(0.015625)"/>
       </defs>
       <use xlink:href="#DejaVuSansMono-30"/>
       <use xlink:href="#DejaVuSansMono-2e" x="60.205078"/>
       <use xlink:href="#DejaVuSansMono-36" x="120.410156"/>
      </g>
     </g>
    </g>
   </g>
   <g id="line2d_12">
    <path d="M 18.898108 380.857555 
L 20.597297 381.528369 
L 23.995676 381.528369 
L 25.694865 385.809619 
L 27.394054 386.241818 
L 253.386216 386.151475 
L 256.784595 385.880589 
L 260.182973 385.429454 
L 261.882162 384.892158 
L 265.280541 383.3802 
L 270.378108 380.394701 
L 273.776486 377.548183 
L 277.174865 374.305332 
L 278.874054 372.961274 
L 282.272432 370.716259 
L 287.37 367.866549 
L 289.069189 367.077166 
L 290.768378 366.449162 
L 292.467568 365.687389 
L 294.166757 365.235407 
L 297.565135 363.644491 
L 299.264324 361.225093 
L 300.963514 360.104442 
L 302.662703 352.755619 
L 304.361892 353.203588 
L 306.061081 342.114145 
L 307.76027 338.901114 
L 309.459459 334.061223 
L 311.158649 316.141657 
L 312.857838 318.236558 
L 314.557027 319.38694 
L 316.256216 306.655065 
L 317.955405 287.595105 
L 319.654595 276.63915 
L 321.353784 256.493051 
L 323.052973 248.781345 
L 324.752162 235.086016 
L 326.451351 228.593087 
L 328.150541 229.750712 
L 331.548919 187.312647 
L 333.248108 182.010273 
L 334.947297 182.113689 
L 336.646486 182.516951 
L 338.345676 183.712392 
L 340.044865 183.109164 
L 341.744054 179.81411 
L 343.443243 171.09539 
L 345.142432 167.860437 
L 346.841622 168.733417 
L 348.540811 169.30619 
L 350.24 169.263193 
L 351.939189 168.491788 
L 353.638378 165.546199 
L 355.337568 163.323617 
L 357.036757 162.277963 
L 358.735946 162.345262 
L 360.435135 163.049206 
L 362.134324 162.979988 
L 363.833514 161.425623 
L 365.532703 160.213729 
L 367.231892 159.615 
L 368.931081 159.42742 
L 374.028649 160.605802 
L 375.727838 160.048327 
L 377.427027 158.707772 
L 379.126216 157.752684 
L 380.825405 157.580427 
L 385.922973 157.534073 
L 387.622162 156.761483 
L 389.321351 155.676728 
L 391.020541 154.746831 
L 392.71973 154.23435 
L 396.118108 153.82722 
L 399.516486 152.993097 
L 404.614054 151.692635 
L 408.012432 151.229379 
L 409.711622 151.246561 
L 413.11 150.966031 
L 414.809189 150.747295 
L 416.508378 150.360851 
L 418.207568 150.182326 
L 419.906757 149.83782 
L 421.605946 149.252299 
L 423.305135 148.820558 
L 425.004324 148.240902 
L 426.703514 147.313556 
L 430.101892 146.06673 
L 433.50027 144.737811 
L 438.597838 142.32761 
L 443.695405 138.820376 
L 447.093784 135.318033 
L 448.792973 133.435053 
L 450.492162 131.86088 
L 455.58973 126.06989 
L 457.288919 124.807069 
L 458.988108 126.460235 
L 460.687297 127.138395 
L 462.386486 130.505221 
L 464.085676 134.527774 
L 465.784865 139.963588 
L 467.484054 143.458466 
L 470.882432 151.258049 
L 472.581622 156.885523 
L 474.280811 161.328942 
L 475.98 161.042197 
L 477.679189 161.960158 
L 479.378378 160.144082 
L 481.077568 158.80269 
L 482.776757 156.833981 
L 484.475946 154.576492 
L 486.175135 151.410281 
L 487.874324 148.484706 
L 489.573514 143.138069 
L 491.272703 138.490909 
L 494.671081 132.692684 
L 496.37027 130.157703 
L 498.069459 126.249629 
L 499.768649 121.798544 
L 501.467838 119.363621 
L 503.167027 117.83208 
L 504.866216 115.932605 
L 506.565405 114.883332 
L 508.264595 114.11921 
L 509.963784 113.537394 
L 511.662973 112.7846 
L 513.362162 112.425983 
L 515.061351 111.828334 
L 520.158919 108.432893 
L 521.858108 107.098837 
L 523.557297 105.599988 
L 525.256486 103.778578 
L 528.654865 98.858592 
L 532.053243 93.240119 
L 535.451622 88.808086 
L 540.549189 83.17796 
L 542.248378 81.621655 
L 545.646757 80.524716 
L 547.345946 80.059377 
L 549.045135 79.982525 
L 550.744324 79.445228 
L 554.142703 78.80434 
L 557.541081 78.198398 
L 559.24027 77.666954 
L 564.337838 75.543988 
L 566.037027 74.955023 
L 567.736216 74.605982 
L 572.833784 72.899311 
L 583.028919 70.688543 
L 584.728108 70.251856 
L 586.427297 69.680762 
L 588.126486 68.979395 
L 589.825676 68.400051 
L 593.224054 66.878721 
L 596.622432 65.253106 
L 600.020811 63.695118 
L 605.118378 61.487024 
L 606.817568 60.642479 
L 615.313514 57.494923 
L 617.012703 56.761765 
L 620.411081 55.959578 
L 622.11027 56.174513 
L 623.809459 59.307913 
L 625.508649 64.733698 
L 627.207838 79.889639 
L 628.907027 83.906526 
L 630.606216 87.364265 
L 632.305405 92.16941 
L 635.703784 100.101863 
L 637.402973 108.038211 
L 639.102162 112.585246 
L 640.801351 112.556588 
L 642.500541 109.988415 
L 644.19973 97.897405 
L 645.898919 97.045098 
L 647.598108 97.010026 
L 649.297297 95.815572 
L 650.996486 95.15318 
L 652.695676 93.819678 
L 654.394865 88.594173 
L 656.094054 86.388907 
L 659.492432 85.556331 
L 661.191622 84.934404 
L 662.890811 84.158982 
L 666.289189 82.347768 
L 667.988378 81.980695 
L 673.085946 81.661188 
L 676.484324 81.296926 
L 679.882703 81.198026 
L 683.281081 81.177299 
L 686.679459 80.778973 
L 690.077838 79.925885 
L 691.777027 79.246923 
L 695.175405 78.36135 
L 700.272973 77.516595 
L 707.06973 76.090199 
L 713.866486 75.595153 
L 717.264865 74.983458 
L 722.362432 74.001054 
L 727.46 73.415831 
L 729.159189 73.057439 
L 734.256757 71.562334 
L 735.955946 71.213917 
L 741.053514 70.464664 
L 742.752703 70.120337 
L 747.85027 68.79621 
L 754.647027 67.067247 
L 759.744595 65.727343 
L 771.638919 63.480377 
L 775.037297 62.562906 
L 778.435676 61.413477 
L 781.834054 60.202407 
L 790.33 57.86661 
L 797.126757 56.209889 
L 800.525135 55.000044 
L 805.622703 53.014306 
L 827.712162 42.66646 
L 831.110541 40.92677 
L 836.208108 37.991738 
L 839.606486 35.834806 
L 844.704054 32.173671 
L 846.403243 30.778902 
L 848.102432 29.938737 
L 849.801622 28.678182 
L 851.500811 32.906004 
L 851.500811 32.906004 
" clip-path="url(#pc1b32f7909)" style="fill: none; stroke-dasharray: 7.4,3.2; stroke-dashoffset: 0; stroke: #000000; stroke-width: 2"/>
   </g>
   <g id="patch_3">
    <path d="M 35.89 404.12 
L 35.89 10.8 
" style="fill: none; stroke: #000000; stroke-width: 0.8; stroke-linejoin: miter; stroke-linecap: square"/>
   </g>
   <g id="patch_4">
    <path d="M 853.2 404.12 
L 853.2 10.8 
" style="fill: none; stroke: #000000; stroke-width: 0.8; stroke-linejoin: miter; stroke-linecap: square"/>
   </g>
   <g id="patch_5">
    <path d="M 35.89 404.12 
L 853.2 404.12 
" style="fill: none; stroke: #000000; stroke-width: 0.8; stroke-linejoin: miter; stroke-linecap: square"/>
   </g>
   <g id="patch_6">
    <path d="M 35.89 10.8 
L 853.2 10.8 
" style="fill: none; stroke: #000000; stroke-width: 0.8; stroke-linejoin: miter; stroke-linecap: square"/>
   </g>
  </g>
 </g>
 <defs>
  <clipPath id="pc1b32f7909">
   <rect x="35.89" y="10.8" width="817.31" height="393.32"/>
  </clipPath>
 </defs>
</svg>
