<?xml version="1.0" encoding="utf-8" standalone="no"?>
<!DOCTYPE svg PUBLIC "-//W3C//DTD SVG 1.1//EN"
  "http://www.w3.org/Graphics/SVG/1.1/DTD/svg11.dtd">
<svg xmlns:xlink="http://www.w3.org/1999/xlink" width="864pt" height="432pt" viewBox="0 0 864 432" xmlns="http://www.w3.org/2000/svg" version="1.1">
 <metadata>
  <rdf:RDF xmlns:dc="http://purl.org/dc/elements/1.1/" xmlns:cc="http://creativecommons.org/ns#" xmlns:rdf="http://www.w3.org/1999/02/22-rdf-syntax-ns#">
   <cc:Work>
    <dc:type rdf:resource="http://purl.org/dc/dcmitype/StillImage"/>
    <dc:date>2024-09-18T11:31:30.651831</dc:date>
    <dc:format>image/svg+xml</dc:format>
    <dc:creator>
     <cc:Agent>
      <dc:title>Matplotlib v3.9.2, https://matplotlib.org/</dc:title>
     </cc:Agent>
    </dc:creator>
   </cc:Work>
  </rdf:RDF>
 </metadata>
 <defs>
  <style type="text/css">*{stroke-linejoin: round; stroke-linecap: butt}</style>
 </defs>
 <g id="figure_1">
  <g id="patch_1">
   <path d="M 0 432 
L 864 432 
L 864 0 
L 0 0 
z
" style="fill: #ffffff"/>
  </g>
  <g id="axes_1">
   <g id="patch_2">
    <path d="M 41.92 404.12 
L 853.2 404.12 
L 853.2 10.8 
L 41.92 10.8 
z
" style="fill: #ffffff"/>
   </g>
   <g id="matplotlib.axis_1">
    <g id="xtick_1">
     <g id="line2d_1">
      <defs>
       <path id="macb615df56" d="M 0 0 
L 0 3.5 
" style="stroke: #000000; stroke-width: 0.8"/>
      </defs>
      <g>
       <use xlink:href="#macb615df56" x="193.718753" y="404.12" style="stroke: #000000; stroke-width: 0.8"/>
      </g>
     </g>
     <g id="text_1">
      <!-- 100 -->
      <g transform="translate(184.688284 418.771563) scale(0.1 -0.1)">
       <defs>
        <path id="DejaVuSansMono-31" d="M 844 531 
L 1825 531 
L 1825 4097 
L 769 3859 
L 769 4434 
L 1819 4666 
L 2450 4666 
L 2450 531 
L 3419 531 
L 3419 0 
L 844 0 
L 844 531 
z
" transform="scale(0.015625)"/>
        <path id="DejaVuSansMono-30" d="M 1509 2344 
Q 1509 2516 1629 2641 
Q 1750 2766 1919 2766 
Q 2094 2766 2219 2641 
Q 2344 2516 2344 2344 
Q 2344 2169 2220 2047 
Q 2097 1925 1919 1925 
Q 1744 1925 1626 2044 
Q 1509 2163 1509 2344 
z
M 1925 4250 
Q 1484 4250 1267 3775 
Q 1050 3300 1050 2328 
Q 1050 1359 1267 884 
Q 1484 409 1925 409 
Q 2369 409 2586 884 
Q 2803 1359 2803 2328 
Q 2803 3300 2586 3775 
Q 2369 4250 1925 4250 
z
M 1925 4750 
Q 2672 4750 3055 4137 
Q 3438 3525 3438 2328 
Q 3438 1134 3055 521 
Q 2672 -91 1925 -91 
Q 1178 -91 797 521 
Q 416 1134 416 2328 
Q 416 3525 797 4137 
Q 1178 4750 1925 4750 
z
" transform="scale(0.015625)"/>
       </defs>
       <use xlink:href="#DejaVuSansMono-31"/>
       <use xlink:href="#DejaVuSansMono-30" x="60.205078"/>
       <use xlink:href="#DejaVuSansMono-30" x="120.410156"/>
      </g>
     </g>
    </g>
    <g id="xtick_2">
     <g id="line2d_2">
      <g>
       <use xlink:href="#macb615df56" x="362.384033" y="404.12" style="stroke: #000000; stroke-width: 0.8"/>
      </g>
     </g>
     <g id="text_2">
      <!-- 200 -->
      <g transform="translate(353.353565 418.771563) scale(0.1 -0.1)">
       <defs>
        <path id="DejaVuSansMono-32" d="M 1166 531 
L 3309 531 
L 3309 0 
L 475 0 
L 475 531 
Q 1059 1147 1496 1619 
Q 1934 2091 2100 2284 
Q 2413 2666 2522 2902 
Q 2631 3138 2631 3384 
Q 2631 3775 2401 3997 
Q 2172 4219 1772 4219 
Q 1488 4219 1175 4116 
Q 863 4013 513 3803 
L 513 4441 
Q 834 4594 1145 4672 
Q 1456 4750 1759 4750 
Q 2444 4750 2861 4386 
Q 3278 4022 3278 3431 
Q 3278 3131 3139 2831 
Q 3000 2531 2688 2169 
Q 2513 1966 2180 1606 
Q 1847 1247 1166 531 
z
" transform="scale(0.015625)"/>
       </defs>
       <use xlink:href="#DejaVuSansMono-32"/>
       <use xlink:href="#DejaVuSansMono-30" x="60.205078"/>
       <use xlink:href="#DejaVuSansMono-30" x="120.410156"/>
      </g>
     </g>
    </g>
    <g id="xtick_3">
     <g id="line2d_3">
      <g>
       <use xlink:href="#macb615df56" x="531.049314" y="404.12" style="stroke: #000000; stroke-width: 0.8"/>
      </g>
     </g>
     <g id="text_3">
      <!-- 300 -->
      <g transform="translate(522.018845 418.771563) scale(0.1 -0.1)">
       <defs>
        <path id="DejaVuSansMono-33" d="M 2425 2497 
Q 2884 2375 3128 2064 
Q 3372 1753 3372 1288 
Q 3372 644 2939 276 
Q 2506 -91 1741 -91 
Q 1419 -91 1084 -31 
Q 750 28 428 141 
L 428 769 
Q 747 603 1056 522 
Q 1366 441 1672 441 
Q 2191 441 2469 675 
Q 2747 909 2747 1350 
Q 2747 1756 2469 1995 
Q 2191 2234 1716 2234 
L 1234 2234 
L 1234 2753 
L 1716 2753 
Q 2150 2753 2394 2943 
Q 2638 3134 2638 3475 
Q 2638 3834 2411 4026 
Q 2184 4219 1766 4219 
Q 1488 4219 1191 4156 
Q 894 4094 569 3969 
L 569 4550 
Q 947 4650 1242 4700 
Q 1538 4750 1766 4750 
Q 2447 4750 2855 4408 
Q 3263 4066 3263 3500 
Q 3263 3116 3048 2859 
Q 2834 2603 2425 2497 
z
" transform="scale(0.015625)"/>
       </defs>
       <use xlink:href="#DejaVuSansMono-33"/>
       <use xlink:href="#DejaVuSansMono-30" x="60.205078"/>
       <use xlink:href="#DejaVuSansMono-30" x="120.410156"/>
      </g>
     </g>
    </g>
    <g id="xtick_4">
     <g id="line2d_4">
      <g>
       <use xlink:href="#macb615df56" x="699.714595" y="404.12" style="stroke: #000000; stroke-width: 0.8"/>
      </g>
     </g>
     <g id="text_4">
      <!-- 400 -->
      <g transform="translate(690.684126 418.771563) scale(0.1 -0.1)">
       <defs>
        <path id="DejaVuSansMono-34" d="M 2297 4091 
L 825 1625 
L 2297 1625 
L 2297 4091 
z
M 2194 4666 
L 2925 4666 
L 2925 1625 
L 3547 1625 
L 3547 1113 
L 2925 1113 
L 2925 0 
L 2297 0 
L 2297 1113 
L 319 1113 
L 319 1709 
L 2194 4666 
z
" transform="scale(0.015625)"/>
       </defs>
       <use xlink:href="#DejaVuSansMono-34"/>
       <use xlink:href="#DejaVuSansMono-30" x="60.205078"/>
       <use xlink:href="#DejaVuSansMono-30" x="120.410156"/>
      </g>
     </g>
    </g>
   </g>
   <g id="matplotlib.axis_2">
    <g id="ytick_1">
     <g id="line2d_5">
      <defs>
       <path id="ma35f42d672" d="M 0 0 
L -3.5 0 
" style="stroke: #000000; stroke-width: 0.8"/>
      </defs>
      <g>
       <use xlink:href="#ma35f42d672" x="41.92" y="368.334495" style="stroke: #000000; stroke-width: 0.8"/>
      </g>
     </g>
     <g id="text_5">
      <!-- 0.06 -->
      <g transform="translate(10.83875 372.160276) scale(0.1 -0.1)">
       <defs>
        <path id="DejaVuSansMono-2e" d="M 1528 953 
L 2316 953 
L 2316 0 
L 1528 0 
L 1528 953 
z
" transform="scale(0.015625)"/>
        <path id="DejaVuSansMono-36" d="M 3097 4563 
L 3097 3981 
Q 2900 4097 2678 4158 
Q 2456 4219 2216 4219 
Q 1616 4219 1306 3767 
Q 997 3316 997 2438 
Q 1147 2750 1412 2917 
Q 1678 3084 2022 3084 
Q 2697 3084 3067 2670 
Q 3438 2256 3438 1497 
Q 3438 741 3056 325 
Q 2675 -91 1984 -91 
Q 1172 -91 794 492 
Q 416 1075 416 2328 
Q 416 3509 870 4129 
Q 1325 4750 2188 4750 
Q 2419 4750 2650 4701 
Q 2881 4653 3097 4563 
z
M 1972 2591 
Q 1569 2591 1337 2300 
Q 1106 2009 1106 1497 
Q 1106 984 1337 693 
Q 1569 403 1972 403 
Q 2391 403 2603 679 
Q 2816 956 2816 1497 
Q 2816 2041 2603 2316 
Q 2391 2591 1972 2591 
z
" transform="scale(0.015625)"/>
       </defs>
       <use xlink:href="#DejaVuSansMono-30"/>
       <use xlink:href="#DejaVuSansMono-2e" x="60.205078"/>
       <use xlink:href="#DejaVuSansMono-30" x="120.410156"/>
       <use xlink:href="#DejaVuSansMono-36" x="180.615234"/>
      </g>
     </g>
    </g>
    <g id="ytick_2">
     <g id="line2d_6">
      <g>
       <use xlink:href="#ma35f42d672" x="41.92" y="319.023166" style="stroke: #000000; stroke-width: 0.8"/>
      </g>
     </g>
     <g id="text_6">
      <!-- 0.07 -->
      <g transform="translate(10.83875 322.848947) scale(0.1 -0.1)">
       <defs>
        <path id="DejaVuSansMono-37" d="M 434 4666 
L 3372 4666 
L 3372 4397 
L 1703 0 
L 1044 0 
L 2669 4134 
L 434 4134 
L 434 4666 
z
" transform="scale(0.015625)"/>
       </defs>
       <use xlink:href="#DejaVuSansMono-30"/>
       <use xlink:href="#DejaVuSansMono-2e" x="60.205078"/>
       <use xlink:href="#DejaVuSansMono-30" x="120.410156"/>
       <use xlink:href="#DejaVuSansMono-37" x="180.615234"/>
      </g>
     </g>
    </g>
    <g id="ytick_3">
     <g id="line2d_7">
      <g>
       <use xlink:href="#ma35f42d672" x="41.92" y="269.711836" style="stroke: #000000; stroke-width: 0.8"/>
      </g>
     </g>
     <g id="text_7">
      <!-- 0.08 -->
      <g transform="translate(10.83875 273.537617) scale(0.1 -0.1)">
       <defs>
        <path id="DejaVuSansMono-38" d="M 1925 2216 
Q 1503 2216 1273 1980 
Q 1044 1744 1044 1313 
Q 1044 881 1276 642 
Q 1509 403 1925 403 
Q 2350 403 2579 639 
Q 2809 875 2809 1313 
Q 2809 1741 2576 1978 
Q 2344 2216 1925 2216 
z
M 1375 2478 
Q 972 2581 745 2862 
Q 519 3144 519 3541 
Q 519 4097 897 4423 
Q 1275 4750 1925 4750 
Q 2578 4750 2956 4423 
Q 3334 4097 3334 3541 
Q 3334 3144 3107 2862 
Q 2881 2581 2478 2478 
Q 2947 2375 3195 2062 
Q 3444 1750 3444 1253 
Q 3444 622 3041 265 
Q 2638 -91 1925 -91 
Q 1213 -91 811 264 
Q 409 619 409 1247 
Q 409 1747 657 2061 
Q 906 2375 1375 2478 
z
M 1147 3481 
Q 1147 3106 1347 2909 
Q 1547 2713 1925 2713 
Q 2306 2713 2506 2909 
Q 2706 3106 2706 3481 
Q 2706 3863 2507 4063 
Q 2309 4263 1925 4263 
Q 1547 4263 1347 4061 
Q 1147 3859 1147 3481 
z
" transform="scale(0.015625)"/>
       </defs>
       <use xlink:href="#DejaVuSansMono-30"/>
       <use xlink:href="#DejaVuSansMono-2e" x="60.205078"/>
       <use xlink:href="#DejaVuSansMono-30" x="120.410156"/>
       <use xlink:href="#DejaVuSansMono-38" x="180.615234"/>
      </g>
     </g>
    </g>
    <g id="ytick_4">
     <g id="line2d_8">
      <g>
       <use xlink:href="#ma35f42d672" x="41.92" y="220.400507" style="stroke: #000000; stroke-width: 0.8"/>
      </g>
     </g>
     <g id="text_8">
      <!-- 0.09 -->
      <g transform="translate(10.83875 224.226288) scale(0.1 -0.1)">
       <defs>
        <path id="DejaVuSansMono-39" d="M 1863 2069 
Q 2266 2069 2495 2359 
Q 2725 2650 2725 3163 
Q 2725 3675 2495 3965 
Q 2266 4256 1863 4256 
Q 1444 4256 1231 3979 
Q 1019 3703 1019 3163 
Q 1019 2619 1230 2344 
Q 1441 2069 1863 2069 
z
M 738 97 
L 738 678 
Q 934 563 1156 502 
Q 1378 441 1619 441 
Q 2219 441 2526 892 
Q 2834 1344 2834 2222 
Q 2688 1909 2422 1742 
Q 2156 1575 1813 1575 
Q 1138 1575 767 1990 
Q 397 2406 397 3169 
Q 397 3922 776 4336 
Q 1156 4750 1850 4750 
Q 2663 4750 3041 4165 
Q 3419 3581 3419 2328 
Q 3419 1150 2964 529 
Q 2509 -91 1644 -91 
Q 1416 -91 1184 -42 
Q 953 6 738 97 
z
" transform="scale(0.015625)"/>
       </defs>
       <use xlink:href="#DejaVuSansMono-30"/>
       <use xlink:href="#DejaVuSansMono-2e" x="60.205078"/>
       <use xlink:href="#DejaVuSansMono-30" x="120.410156"/>
       <use xlink:href="#DejaVuSansMono-39" x="180.615234"/>
      </g>
     </g>
    </g>
    <g id="ytick_5">
     <g id="line2d_9">
      <g>
       <use xlink:href="#ma35f42d672" x="41.92" y="171.089177" style="stroke: #000000; stroke-width: 0.8"/>
      </g>
     </g>
     <g id="text_9">
      <!-- 0.10 -->
      <g transform="translate(10.83875 174.914958) scale(0.1 -0.1)">
       <use xlink:href="#DejaVuSansMono-30"/>
       <use xlink:href="#DejaVuSansMono-2e" x="60.205078"/>
       <use xlink:href="#DejaVuSansMono-31" x="120.410156"/>
       <use xlink:href="#DejaVuSansMono-30" x="180.615234"/>
      </g>
     </g>
    </g>
    <g id="ytick_6">
     <g id="line2d_10">
      <g>
       <use xlink:href="#ma35f42d672" x="41.92" y="121.777848" style="stroke: #000000; stroke-width: 0.8"/>
      </g>
     </g>
     <g id="text_10">
      <!-- 0.11 -->
      <g transform="translate(10.83875 125.603629) scale(0.1 -0.1)">
       <use xlink:href="#DejaVuSansMono-30"/>
       <use xlink:href="#DejaVuSansMono-2e" x="60.205078"/>
       <use xlink:href="#DejaVuSansMono-31" x="120.410156"/>
       <use xlink:href="#DejaVuSansMono-31" x="180.615234"/>
      </g>
     </g>
    </g>
    <g id="ytick_7">
     <g id="line2d_11">
      <g>
       <use xlink:href="#ma35f42d672" x="41.92" y="72.466518" style="stroke: #000000; stroke-width: 0.8"/>
      </g>
     </g>
     <g id="text_11">
      <!-- 0.12 -->
      <g transform="translate(10.83875 76.292299) scale(0.1 -0.1)">
       <use xlink:href="#DejaVuSansMono-30"/>
       <use xlink:href="#DejaVuSansMono-2e" x="60.205078"/>
       <use xlink:href="#DejaVuSansMono-31" x="120.410156"/>
       <use xlink:href="#DejaVuSansMono-32" x="180.615234"/>
      </g>
     </g>
    </g>
    <g id="ytick_8">
     <g id="line2d_12">
      <g>
       <use xlink:href="#ma35f42d672" x="41.92" y="23.155189" style="stroke: #000000; stroke-width: 0.8"/>
      </g>
     </g>
     <g id="text_12">
      <!-- 0.13 -->
      <g transform="translate(10.83875 26.98097) scale(0.1 -0.1)">
       <use xlink:href="#DejaVuSansMono-30"/>
       <use xlink:href="#DejaVuSansMono-2e" x="60.205078"/>
       <use xlink:href="#DejaVuSansMono-31" x="120.410156"/>
       <use xlink:href="#DejaVuSansMono-33" x="180.615234"/>
      </g>
     </g>
    </g>
   </g>
   <g id="line2d_13">
    <path d="M 25.053472 32.443927 
L 26.740125 39.776101 
L 28.426778 28.678182 
L 30.11343 29.186602 
L 31.800083 46.538613 
L 33.486736 61.37657 
L 35.173389 67.024231 
L 36.860042 66.146984 
L 38.546694 62.049588 
L 41.92 51.418445 
L 43.606653 46.696157 
L 45.293306 42.752381 
L 46.979958 39.568117 
L 48.666611 37.157582 
L 50.353264 35.653388 
L 52.039917 35.220663 
L 53.72657 35.98686 
L 55.413222 37.975204 
L 57.099875 41.07583 
L 58.786528 45.026748 
L 62.159834 53.726274 
L 63.846486 57.429936 
L 65.533139 60.087279 
L 67.219792 61.425776 
L 68.906445 61.385898 
L 70.593098 60.110895 
L 72.279751 57.904493 
L 77.339709 49.626108 
L 79.026362 47.488006 
L 80.713015 46.062028 
L 82.399667 45.441261 
L 84.08632 45.612711 
L 85.772973 46.474649 
L 87.459626 47.845433 
L 92.519584 52.642314 
L 94.206237 53.7574 
L 95.89289 54.407276 
L 97.579543 54.55943 
L 99.266195 54.263024 
L 100.952848 53.633216 
L 106.012807 51.222802 
L 107.699459 50.674835 
L 109.386112 50.374208 
L 111.072765 50.320145 
L 112.759418 50.472546 
L 121.192682 51.88252 
L 124.565988 52.008255 
L 132.999252 52.107805 
L 138.05921 52.181042 
L 148.179127 51.850803 
L 165.045655 52.326818 
L 178.538877 52.659706 
L 186.972141 52.500087 
L 192.0321 52.832876 
L 197.092058 53.16813 
L 203.838669 53.343456 
L 213.958586 53.409676 
L 227.451809 54.45259 
L 239.258378 55.045159 
L 246.00499 55.696898 
L 251.064948 56.368406 
L 256.124906 56.949784 
L 257.811559 57.228411 
L 262.871518 57.748393 
L 264.55817 58.112217 
L 269.618129 58.692371 
L 272.991435 59.316753 
L 276.36474 59.697723 
L 279.738046 60.436417 
L 283.111351 60.677008 
L 286.484657 61.462372 
L 288.17131 61.660664 
L 293.231268 62.947899 
L 294.917921 63.783237 
L 296.604574 63.926316 
L 303.351185 67.996903 
L 305.037838 71.199827 
L 306.724491 69.478505 
L 308.411143 77.097573 
L 310.097796 73.656666 
L 311.784449 79.076275 
L 313.471102 88.508221 
L 315.157755 77.805894 
L 316.844407 92.240063 
L 318.53106 104.756208 
L 320.217713 110.543193 
L 321.904366 113.277278 
L 323.591019 127.121684 
L 325.277672 128.035727 
L 326.964324 139.90233 
L 328.650977 150.021027 
L 330.33763 161.038265 
L 332.024283 189.747321 
L 333.710936 188.813799 
L 335.397588 186.358236 
L 337.084241 192.445588 
L 338.770894 202.858544 
L 340.457547 209.0475 
L 342.1442 218.760343 
L 343.830852 227.405002 
L 345.517505 227.211442 
L 347.204158 222.628494 
L 348.890811 220.624719 
L 350.577464 224.309553 
L 352.264116 230.920744 
L 353.950769 235.158758 
L 355.637422 234.640491 
L 357.324075 231.168003 
L 359.010728 228.021434 
L 360.69738 227.267441 
L 362.384033 228.651419 
L 364.070686 230.324241 
L 365.757339 230.644582 
L 367.443992 229.348464 
L 369.130644 227.480194 
L 370.817297 226.598711 
L 372.50395 227.642095 
L 375.877256 232.747319 
L 377.563909 234.114153 
L 379.250561 233.952076 
L 380.937214 232.91357 
L 382.623867 232.114498 
L 384.31052 232.345429 
L 387.683825 234.851709 
L 389.370478 235.425724 
L 391.057131 234.939238 
L 392.743784 233.884166 
L 394.430437 233.100983 
L 396.117089 233.131632 
L 399.490395 234.65813 
L 401.177048 235.127522 
L 404.550353 235.350169 
L 406.237006 235.699215 
L 411.296965 237.508808 
L 423.103534 239.888365 
L 424.790187 240.403809 
L 428.163493 241.676201 
L 431.536798 242.664068 
L 433.223451 243.380494 
L 438.28341 246.4113 
L 439.970062 247.220906 
L 441.656715 248.226731 
L 445.030021 250.608202 
L 446.716674 252.021773 
L 450.089979 255.551024 
L 451.776632 256.993635 
L 453.463285 258.793749 
L 458.523243 265.400852 
L 460.209896 265.203702 
L 461.896549 266.943975 
L 463.583202 258.587286 
L 465.269854 262.09679 
L 466.956507 262.714926 
L 468.64316 260.560772 
L 470.329813 251.400844 
L 472.016466 241.328602 
L 473.703119 237.684983 
L 475.389771 236.837484 
L 477.076424 237.899422 
L 478.763077 232.58138 
L 480.44973 235.469382 
L 482.136383 229.181545 
L 483.823035 228.859094 
L 485.509688 232.440222 
L 487.196341 241.177965 
L 488.882994 248.157289 
L 490.569647 248.414266 
L 492.256299 247.584788 
L 493.942952 248.970168 
L 497.316258 259.951652 
L 499.002911 262.202306 
L 500.689563 263.147221 
L 502.376216 263.867556 
L 504.062869 264.925909 
L 505.749522 269.433816 
L 507.436175 272.718318 
L 509.122827 275.151893 
L 510.80948 273.74524 
L 512.496133 275.617192 
L 514.182786 279.181125 
L 515.869439 279.802663 
L 517.556091 277.954927 
L 519.242744 277.484727 
L 520.929397 278.67668 
L 522.61605 277.859014 
L 525.989356 281.349784 
L 527.676008 284.067299 
L 529.362661 281.101269 
L 531.049314 278.744182 
L 532.735967 282.940004 
L 534.42262 289.13134 
L 536.109272 292.491339 
L 537.795925 293.885015 
L 539.482578 296.48209 
L 541.169231 299.743618 
L 542.855884 302.644126 
L 544.542536 306.307235 
L 546.229189 311.663836 
L 547.915842 315.796877 
L 551.289148 319.234367 
L 552.9758 322.199195 
L 554.662453 326.063745 
L 556.349106 328.645771 
L 558.035759 329.058642 
L 559.722412 328.963563 
L 561.409064 330.011213 
L 564.78237 334.898496 
L 566.469023 335.978723 
L 569.842328 335.711856 
L 571.528981 336.074724 
L 573.215634 337.193091 
L 574.902287 338.746619 
L 576.58894 340.0794 
L 578.275593 340.9002 
L 581.648898 341.842234 
L 583.335551 342.733116 
L 585.022204 343.766004 
L 586.708857 344.491986 
L 593.455468 346.543691 
L 596.828773 346.856809 
L 598.515426 347.443728 
L 600.202079 348.46156 
L 601.888732 349.171435 
L 605.262037 349.489044 
L 608.635343 351.010108 
L 610.321996 351.460909 
L 612.008649 352.038786 
L 613.695301 352.951998 
L 615.381954 353.553469 
L 617.068607 354.285772 
L 618.75526 354.63934 
L 620.441913 355.463597 
L 622.128565 355.072311 
L 623.815218 355.901515 
L 625.501871 351.969548 
L 627.188524 336.283805 
L 628.875177 330.726153 
L 630.56183 322.794804 
L 632.248482 305.914397 
L 633.935135 281.819745 
L 635.621788 266.912494 
L 637.308441 263.301265 
L 638.995094 262.829225 
L 640.681746 258.422864 
L 642.368399 253.09873 
L 644.055052 256.033649 
L 645.741705 251.251545 
L 647.428358 253.894654 
L 649.11501 269.237997 
L 650.801663 292.160074 
L 652.488316 305.007796 
L 654.174969 304.145083 
L 655.861622 299.66875 
L 657.548274 297.564907 
L 659.234927 302.435312 
L 660.92158 312.570835 
L 662.608233 321.35479 
L 664.294886 325.167411 
L 665.981538 324.772675 
L 667.668191 322.360744 
L 669.354844 320.223259 
L 671.041497 320.16877 
L 672.72815 322.446263 
L 674.414802 325.804843 
L 676.101455 328.687389 
L 677.788108 330.280064 
L 679.474761 330.637884 
L 681.161414 330.245536 
L 682.848067 329.711684 
L 684.534719 329.598555 
L 686.221372 330.206033 
L 687.908025 331.433763 
L 689.594678 332.885199 
L 691.281331 334.121317 
L 692.967983 334.871025 
L 694.654636 335.07671 
L 696.341289 334.847975 
L 698.027942 334.442768 
L 699.714595 334.211847 
L 701.401247 334.435692 
L 703.0879 335.151034 
L 706.461206 337.004576 
L 708.147859 337.524859 
L 709.834511 337.59134 
L 713.207817 336.953316 
L 714.89447 336.905826 
L 716.581123 337.439483 
L 718.267775 338.510107 
L 719.954428 339.749785 
L 721.641081 340.697606 
L 723.327734 341.057038 
L 725.014387 340.836702 
L 726.70104 340.337313 
L 728.387692 340.01796 
L 730.074345 340.283199 
L 731.760998 341.212569 
L 733.447651 342.471976 
L 735.134304 343.520244 
L 736.820956 343.946128 
L 738.507609 343.715453 
L 740.194262 343.178832 
L 741.880915 342.853174 
L 743.567568 343.094665 
L 745.25422 343.877013 
L 746.940873 344.814686 
L 748.627526 345.459712 
L 750.314179 345.62114 
L 752.000832 345.499042 
L 753.687484 345.532527 
L 755.374137 346.050018 
L 758.747443 347.968398 
L 760.434096 348.526439 
L 762.120748 348.543328 
L 763.807401 348.302374 
L 765.494054 348.261574 
L 767.180707 348.697926 
L 770.554012 350.243025 
L 772.240665 350.656219 
L 775.613971 350.827905 
L 777.300624 351.109644 
L 784.047235 353.126339 
L 789.107193 354.475238 
L 795.853805 356.334283 
L 799.22711 357.418515 
L 802.600416 358.542062 
L 805.973721 359.527444 
L 811.03368 361.525567 
L 812.720333 362.203689 
L 817.780291 364.5235 
L 821.153597 365.930293 
L 834.646819 373.032852 
L 841.39343 377.344382 
L 843.080083 378.572671 
L 844.766736 379.662601 
L 846.453389 381.527394 
L 848.140042 381.108026 
L 849.826694 386.241818 
L 851.513347 363.462683 
L 851.513347 363.462683 
" clip-path="url(#p4886d87dcc)" style="fill: none; stroke-dasharray: 7.4,3.2; stroke-dashoffset: 0; stroke: #000000; stroke-width: 2"/>
   </g>
   <g id="patch_3">
    <path d="M 41.92 404.12 
L 41.92 10.8 
" style="fill: none; stroke: #000000; stroke-width: 0.8; stroke-linejoin: miter; stroke-linecap: square"/>
   </g>
   <g id="patch_4">
    <path d="M 853.2 404.12 
L 853.2 10.8 
" style="fill: none; stroke: #000000; stroke-width: 0.8; stroke-linejoin: miter; stroke-linecap: square"/>
   </g>
   <g id="patch_5">
    <path d="M 41.92 404.12 
L 853.2 404.12 
" style="fill: none; stroke: #000000; stroke-width: 0.8; stroke-linejoin: miter; stroke-linecap: square"/>
   </g>
   <g id="patch_6">
    <path d="M 41.92 10.8 
L 853.2 10.8 
" style="fill: none; stroke: #000000; stroke-width: 0.8; stroke-linejoin: miter; stroke-linecap: square"/>
   </g>
  </g>
 </g>
 <defs>
  <clipPath id="p4886d87dcc">
   <rect x="41.92" y="10.8" width="811.28" height="393.32"/>
  </clipPath>
 </defs>
</svg>
