<?xml version="1.0" encoding="utf-8" standalone="no"?>
<!DOCTYPE svg PUBLIC "-//W3C//DTD SVG 1.1//EN"
  "http://www.w3.org/Graphics/SVG/1.1/DTD/svg11.dtd">
<svg xmlns:xlink="http://www.w3.org/1999/xlink" width="864pt" height="432pt" viewBox="0 0 864 432" xmlns="http://www.w3.org/2000/svg" version="1.1">
 <metadata>
  <rdf:RDF xmlns:dc="http://purl.org/dc/elements/1.1/" xmlns:cc="http://creativecommons.org/ns#" xmlns:rdf="http://www.w3.org/1999/02/22-rdf-syntax-ns#">
   <cc:Work>
    <dc:type rdf:resource="http://purl.org/dc/dcmitype/StillImage"/>
    <dc:date>2024-09-18T11:36:13.411593</dc:date>
    <dc:format>image/svg+xml</dc:format>
    <dc:creator>
     <cc:Agent>
      <dc:title>Matplotlib v3.9.2, https://matplotlib.org/</dc:title>
     </cc:Agent>
    </dc:creator>
   </cc:Work>
  </rdf:RDF>
 </metadata>
 <defs>
  <style type="text/css">*{stroke-linejoin: round; stroke-linecap: butt}</style>
 </defs>
 <g id="figure_1">
  <g id="patch_1">
   <path d="M 0 432 
L 864 432 
L 864 0 
L 0 0 
z
" style="fill: #ffffff"/>
  </g>
  <g id="axes_1">
   <g id="patch_2">
    <path d="M 41.92 404.12 
L 853.2 404.12 
L 853.2 10.8 
L 41.92 10.8 
z
" style="fill: #ffffff"/>
   </g>
   <g id="matplotlib.axis_1">
    <g id="xtick_1">
     <g id="line2d_1">
      <defs>
       <path id="m28829a0e00" d="M 0 0 
L 0 3.5 
" style="stroke: #000000; stroke-width: 0.8"/>
      </defs>
      <g>
       <use xlink:href="#m28829a0e00" x="199.048644" y="404.12" style="stroke: #000000; stroke-width: 0.8"/>
      </g>
     </g>
     <g id="text_1">
      <!-- 200 -->
      <g transform="translate(190.018175 418.771563) scale(0.1 -0.1)">
       <defs>
        <path id="DejaVuSansMono-32" d="M 1166 531 
L 3309 531 
L 3309 0 
L 475 0 
L 475 531 
Q 1059 1147 1496 1619 
Q 1934 2091 2100 2284 
Q 2413 2666 2522 2902 
Q 2631 3138 2631 3384 
Q 2631 3775 2401 3997 
Q 2172 4219 1772 4219 
Q 1488 4219 1175 4116 
Q 863 4013 513 3803 
L 513 4441 
Q 834 4594 1145 4672 
Q 1456 4750 1759 4750 
Q 2444 4750 2861 4386 
Q 3278 4022 3278 3431 
Q 3278 3131 3139 2831 
Q 3000 2531 2688 2169 
Q 2513 1966 2180 1606 
Q 1847 1247 1166 531 
z
" transform="scale(0.015625)"/>
        <path id="DejaVuSansMono-30" d="M 1509 2344 
Q 1509 2516 1629 2641 
Q 1750 2766 1919 2766 
Q 2094 2766 2219 2641 
Q 2344 2516 2344 2344 
Q 2344 2169 2220 2047 
Q 2097 1925 1919 1925 
Q 1744 1925 1626 2044 
Q 1509 2163 1509 2344 
z
M 1925 4250 
Q 1484 4250 1267 3775 
Q 1050 3300 1050 2328 
Q 1050 1359 1267 884 
Q 1484 409 1925 409 
Q 2369 409 2586 884 
Q 2803 1359 2803 2328 
Q 2803 3300 2586 3775 
Q 2369 4250 1925 4250 
z
M 1925 4750 
Q 2672 4750 3055 4137 
Q 3438 3525 3438 2328 
Q 3438 1134 3055 521 
Q 2672 -91 1925 -91 
Q 1178 -91 797 521 
Q 416 1134 416 2328 
Q 416 3525 797 4137 
Q 1178 4750 1925 4750 
z
" transform="scale(0.015625)"/>
       </defs>
       <use xlink:href="#DejaVuSansMono-32"/>
       <use xlink:href="#DejaVuSansMono-30" x="60.205078"/>
       <use xlink:href="#DejaVuSansMono-30" x="120.410156"/>
      </g>
     </g>
    </g>
    <g id="xtick_2">
     <g id="line2d_2">
      <g>
       <use xlink:href="#m28829a0e00" x="364.447217" y="404.12" style="stroke: #000000; stroke-width: 0.8"/>
      </g>
     </g>
     <g id="text_2">
      <!-- 400 -->
      <g transform="translate(355.416748 418.771563) scale(0.1 -0.1)">
       <defs>
        <path id="DejaVuSansMono-34" d="M 2297 4091 
L 825 1625 
L 2297 1625 
L 2297 4091 
z
M 2194 4666 
L 2925 4666 
L 2925 1625 
L 3547 1625 
L 3547 1113 
L 2925 1113 
L 2925 0 
L 2297 0 
L 2297 1113 
L 319 1113 
L 319 1709 
L 2194 4666 
z
" transform="scale(0.015625)"/>
       </defs>
       <use xlink:href="#DejaVuSansMono-34"/>
       <use xlink:href="#DejaVuSansMono-30" x="60.205078"/>
       <use xlink:href="#DejaVuSansMono-30" x="120.410156"/>
      </g>
     </g>
    </g>
    <g id="xtick_3">
     <g id="line2d_3">
      <g>
       <use xlink:href="#m28829a0e00" x="529.84579" y="404.12" style="stroke: #000000; stroke-width: 0.8"/>
      </g>
     </g>
     <g id="text_3">
      <!-- 600 -->
      <g transform="translate(520.815321 418.771563) scale(0.1 -0.1)">
       <defs>
        <path id="DejaVuSansMono-36" d="M 3097 4563 
L 3097 3981 
Q 2900 4097 2678 4158 
Q 2456 4219 2216 4219 
Q 1616 4219 1306 3767 
Q 997 3316 997 2438 
Q 1147 2750 1412 2917 
Q 1678 3084 2022 3084 
Q 2697 3084 3067 2670 
Q 3438 2256 3438 1497 
Q 3438 741 3056 325 
Q 2675 -91 1984 -91 
Q 1172 -91 794 492 
Q 416 1075 416 2328 
Q 416 3509 870 4129 
Q 1325 4750 2188 4750 
Q 2419 4750 2650 4701 
Q 2881 4653 3097 4563 
z
M 1972 2591 
Q 1569 2591 1337 2300 
Q 1106 2009 1106 1497 
Q 1106 984 1337 693 
Q 1569 403 1972 403 
Q 2391 403 2603 679 
Q 2816 956 2816 1497 
Q 2816 2041 2603 2316 
Q 2391 2591 1972 2591 
z
" transform="scale(0.015625)"/>
       </defs>
       <use xlink:href="#DejaVuSansMono-36"/>
       <use xlink:href="#DejaVuSansMono-30" x="60.205078"/>
       <use xlink:href="#DejaVuSansMono-30" x="120.410156"/>
      </g>
     </g>
    </g>
    <g id="xtick_4">
     <g id="line2d_4">
      <g>
       <use xlink:href="#m28829a0e00" x="695.244363" y="404.12" style="stroke: #000000; stroke-width: 0.8"/>
      </g>
     </g>
     <g id="text_4">
      <!-- 800 -->
      <g transform="translate(686.213894 418.771563) scale(0.1 -0.1)">
       <defs>
        <path id="DejaVuSansMono-38" d="M 1925 2216 
Q 1503 2216 1273 1980 
Q 1044 1744 1044 1313 
Q 1044 881 1276 642 
Q 1509 403 1925 403 
Q 2350 403 2579 639 
Q 2809 875 2809 1313 
Q 2809 1741 2576 1978 
Q 2344 2216 1925 2216 
z
M 1375 2478 
Q 972 2581 745 2862 
Q 519 3144 519 3541 
Q 519 4097 897 4423 
Q 1275 4750 1925 4750 
Q 2578 4750 2956 4423 
Q 3334 4097 3334 3541 
Q 3334 3144 3107 2862 
Q 2881 2581 2478 2478 
Q 2947 2375 3195 2062 
Q 3444 1750 3444 1253 
Q 3444 622 3041 265 
Q 2638 -91 1925 -91 
Q 1213 -91 811 264 
Q 409 619 409 1247 
Q 409 1747 657 2061 
Q 906 2375 1375 2478 
z
M 1147 3481 
Q 1147 3106 1347 2909 
Q 1547 2713 1925 2713 
Q 2306 2713 2506 2909 
Q 2706 3106 2706 3481 
Q 2706 3863 2507 4063 
Q 2309 4263 1925 4263 
Q 1547 4263 1347 4061 
Q 1147 3859 1147 3481 
z
" transform="scale(0.015625)"/>
       </defs>
       <use xlink:href="#DejaVuSansMono-38"/>
       <use xlink:href="#DejaVuSansMono-30" x="60.205078"/>
       <use xlink:href="#DejaVuSansMono-30" x="120.410156"/>
      </g>
     </g>
    </g>
   </g>
   <g id="matplotlib.axis_2">
    <g id="ytick_1">
     <g id="line2d_5">
      <defs>
       <path id="m9b68a9610d" d="M 0 0 
L -3.5 0 
" style="stroke: #000000; stroke-width: 0.8"/>
      </defs>
      <g>
       <use xlink:href="#m9b68a9610d" x="41.92" y="389.968062" style="stroke: #000000; stroke-width: 0.8"/>
      </g>
     </g>
     <g id="text_5">
      <!-- 0.06 -->
      <g transform="translate(10.83875 393.793844) scale(0.1 -0.1)">
       <defs>
        <path id="DejaVuSansMono-2e" d="M 1528 953 
L 2316 953 
L 2316 0 
L 1528 0 
L 1528 953 
z
" transform="scale(0.015625)"/>
       </defs>
       <use xlink:href="#DejaVuSansMono-30"/>
       <use xlink:href="#DejaVuSansMono-2e" x="60.205078"/>
       <use xlink:href="#DejaVuSansMono-30" x="120.410156"/>
       <use xlink:href="#DejaVuSansMono-36" x="180.615234"/>
      </g>
     </g>
    </g>
    <g id="ytick_2">
     <g id="line2d_6">
      <g>
       <use xlink:href="#m9b68a9610d" x="41.92" y="342.383103" style="stroke: #000000; stroke-width: 0.8"/>
      </g>
     </g>
     <g id="text_6">
      <!-- 0.07 -->
      <g transform="translate(10.83875 346.208884) scale(0.1 -0.1)">
       <defs>
        <path id="DejaVuSansMono-37" d="M 434 4666 
L 3372 4666 
L 3372 4397 
L 1703 0 
L 1044 0 
L 2669 4134 
L 434 4134 
L 434 4666 
z
" transform="scale(0.015625)"/>
       </defs>
       <use xlink:href="#DejaVuSansMono-30"/>
       <use xlink:href="#DejaVuSansMono-2e" x="60.205078"/>
       <use xlink:href="#DejaVuSansMono-30" x="120.410156"/>
       <use xlink:href="#DejaVuSansMono-37" x="180.615234"/>
      </g>
     </g>
    </g>
    <g id="ytick_3">
     <g id="line2d_7">
      <g>
       <use xlink:href="#m9b68a9610d" x="41.92" y="294.798143" style="stroke: #000000; stroke-width: 0.8"/>
      </g>
     </g>
     <g id="text_7">
      <!-- 0.08 -->
      <g transform="translate(10.83875 298.623924) scale(0.1 -0.1)">
       <use xlink:href="#DejaVuSansMono-30"/>
       <use xlink:href="#DejaVuSansMono-2e" x="60.205078"/>
       <use xlink:href="#DejaVuSansMono-30" x="120.410156"/>
       <use xlink:href="#DejaVuSansMono-38" x="180.615234"/>
      </g>
     </g>
    </g>
    <g id="ytick_4">
     <g id="line2d_8">
      <g>
       <use xlink:href="#m9b68a9610d" x="41.92" y="247.213184" style="stroke: #000000; stroke-width: 0.8"/>
      </g>
     </g>
     <g id="text_8">
      <!-- 0.09 -->
      <g transform="translate(10.83875 251.038965) scale(0.1 -0.1)">
       <defs>
        <path id="DejaVuSansMono-39" d="M 1863 2069 
Q 2266 2069 2495 2359 
Q 2725 2650 2725 3163 
Q 2725 3675 2495 3965 
Q 2266 4256 1863 4256 
Q 1444 4256 1231 3979 
Q 1019 3703 1019 3163 
Q 1019 2619 1230 2344 
Q 1441 2069 1863 2069 
z
M 738 97 
L 738 678 
Q 934 563 1156 502 
Q 1378 441 1619 441 
Q 2219 441 2526 892 
Q 2834 1344 2834 2222 
Q 2688 1909 2422 1742 
Q 2156 1575 1813 1575 
Q 1138 1575 767 1990 
Q 397 2406 397 3169 
Q 397 3922 776 4336 
Q 1156 4750 1850 4750 
Q 2663 4750 3041 4165 
Q 3419 3581 3419 2328 
Q 3419 1150 2964 529 
Q 2509 -91 1644 -91 
Q 1416 -91 1184 -42 
Q 953 6 738 97 
z
" transform="scale(0.015625)"/>
       </defs>
       <use xlink:href="#DejaVuSansMono-30"/>
       <use xlink:href="#DejaVuSansMono-2e" x="60.205078"/>
       <use xlink:href="#DejaVuSansMono-30" x="120.410156"/>
       <use xlink:href="#DejaVuSansMono-39" x="180.615234"/>
      </g>
     </g>
    </g>
    <g id="ytick_5">
     <g id="line2d_9">
      <g>
       <use xlink:href="#m9b68a9610d" x="41.92" y="199.628224" style="stroke: #000000; stroke-width: 0.8"/>
      </g>
     </g>
     <g id="text_9">
      <!-- 0.10 -->
      <g transform="translate(10.83875 203.454005) scale(0.1 -0.1)">
       <defs>
        <path id="DejaVuSansMono-31" d="M 844 531 
L 1825 531 
L 1825 4097 
L 769 3859 
L 769 4434 
L 1819 4666 
L 2450 4666 
L 2450 531 
L 3419 531 
L 3419 0 
L 844 0 
L 844 531 
z
" transform="scale(0.015625)"/>
       </defs>
       <use xlink:href="#DejaVuSansMono-30"/>
       <use xlink:href="#DejaVuSansMono-2e" x="60.205078"/>
       <use xlink:href="#DejaVuSansMono-31" x="120.410156"/>
       <use xlink:href="#DejaVuSansMono-30" x="180.615234"/>
      </g>
     </g>
    </g>
    <g id="ytick_6">
     <g id="line2d_10">
      <g>
       <use xlink:href="#m9b68a9610d" x="41.92" y="152.043264" style="stroke: #000000; stroke-width: 0.8"/>
      </g>
     </g>
     <g id="text_10">
      <!-- 0.11 -->
      <g transform="translate(10.83875 155.869046) scale(0.1 -0.1)">
       <use xlink:href="#DejaVuSansMono-30"/>
       <use xlink:href="#DejaVuSansMono-2e" x="60.205078"/>
       <use xlink:href="#DejaVuSansMono-31" x="120.410156"/>
       <use xlink:href="#DejaVuSansMono-31" x="180.615234"/>
      </g>
     </g>
    </g>
    <g id="ytick_7">
     <g id="line2d_11">
      <g>
       <use xlink:href="#m9b68a9610d" x="41.92" y="104.458305" style="stroke: #000000; stroke-width: 0.8"/>
      </g>
     </g>
     <g id="text_11">
      <!-- 0.12 -->
      <g transform="translate(10.83875 108.284086) scale(0.1 -0.1)">
       <use xlink:href="#DejaVuSansMono-30"/>
       <use xlink:href="#DejaVuSansMono-2e" x="60.205078"/>
       <use xlink:href="#DejaVuSansMono-31" x="120.410156"/>
       <use xlink:href="#DejaVuSansMono-32" x="180.615234"/>
      </g>
     </g>
    </g>
    <g id="ytick_8">
     <g id="line2d_12">
      <g>
       <use xlink:href="#m9b68a9610d" x="41.92" y="56.873345" style="stroke: #000000; stroke-width: 0.8"/>
      </g>
     </g>
     <g id="text_12">
      <!-- 0.13 -->
      <g transform="translate(10.83875 60.699127) scale(0.1 -0.1)">
       <defs>
        <path id="DejaVuSansMono-33" d="M 2425 2497 
Q 2884 2375 3128 2064 
Q 3372 1753 3372 1288 
Q 3372 644 2939 276 
Q 2506 -91 1741 -91 
Q 1419 -91 1084 -31 
Q 750 28 428 141 
L 428 769 
Q 747 603 1056 522 
Q 1366 441 1672 441 
Q 2191 441 2469 675 
Q 2747 909 2747 1350 
Q 2747 1756 2469 1995 
Q 2191 2234 1716 2234 
L 1234 2234 
L 1234 2753 
L 1716 2753 
Q 2150 2753 2394 2943 
Q 2638 3134 2638 3475 
Q 2638 3834 2411 4026 
Q 2184 4219 1766 4219 
Q 1488 4219 1191 4156 
Q 894 4094 569 3969 
L 569 4550 
Q 947 4650 1242 4700 
Q 1538 4750 1766 4750 
Q 2447 4750 2855 4408 
Q 3263 4066 3263 3500 
Q 3263 3116 3048 2859 
Q 2834 2603 2425 2497 
z
" transform="scale(0.015625)"/>
       </defs>
       <use xlink:href="#DejaVuSansMono-30"/>
       <use xlink:href="#DejaVuSansMono-2e" x="60.205078"/>
       <use xlink:href="#DejaVuSansMono-31" x="120.410156"/>
       <use xlink:href="#DejaVuSansMono-33" x="180.615234"/>
      </g>
     </g>
    </g>
   </g>
   <g id="line2d_13">
    <path d="M 33.650071 36.258986 
L 34.477064 38.359552 
L 35.304057 28.678182 
L 36.13105 64.737612 
L 36.958043 54.489457 
L 37.785036 70.238778 
L 38.612029 76.301623 
L 39.439021 76.032488 
L 40.266014 78.088777 
L 41.093007 77.726938 
L 41.92 77.020887 
L 42.746993 78.613511 
L 43.573986 75.903827 
L 44.400979 77.432337 
L 45.227971 75.045855 
L 46.054964 75.960748 
L 46.881957 74.512899 
L 47.70895 75.00598 
L 48.535943 74.737657 
L 49.362936 75.171247 
L 51.016922 75.61777 
L 51.843914 76.131719 
L 52.670907 76.405534 
L 53.4979 77.144861 
L 54.324893 77.285612 
L 55.151886 78.084785 
L 55.978879 78.14646 
L 56.805872 78.902635 
L 57.632864 78.76411 
L 58.459857 79.537519 
L 59.28685 79.272539 
L 60.113843 80.040825 
L 60.940836 79.720793 
L 61.767829 80.416597 
L 62.594822 79.98483 
L 63.421814 80.752279 
L 64.248807 80.165253 
L 65.0758 80.844001 
L 65.902793 80.208361 
L 66.729786 80.853506 
L 67.556779 80.178193 
L 68.383772 80.745837 
L 69.210765 80.108928 
L 70.037757 80.623203 
L 70.86475 80.115735 
L 71.691743 80.536693 
L 72.518736 80.221858 
L 73.345729 80.625312 
L 74.172722 80.39858 
L 74.999715 80.803966 
L 75.826707 80.699513 
L 76.6537 81.111795 
L 77.480693 81.047391 
L 78.307686 81.388557 
L 79.134679 81.377736 
L 79.961672 81.673426 
L 80.788665 81.693712 
L 81.615657 81.891465 
L 85.750622 82.186255 
L 86.577615 82.151556 
L 87.404608 82.22927 
L 88.2316 82.133227 
L 89.058593 82.209459 
L 89.885586 82.108994 
L 90.712579 82.229487 
L 91.539572 82.129036 
L 92.366565 82.265809 
L 93.193558 82.155821 
L 94.02055 82.318213 
L 94.847543 82.186513 
L 95.674536 82.398802 
L 96.501529 82.28216 
L 97.328522 82.547317 
L 98.155515 82.460116 
L 98.982508 82.735249 
L 99.809501 82.676698 
L 100.636493 82.984435 
L 101.463486 82.940433 
L 102.290479 83.256254 
L 103.117472 83.193164 
L 103.944465 83.470943 
L 104.771458 83.393813 
L 105.598451 83.626516 
L 106.425443 83.539428 
L 107.252436 83.709251 
L 108.079429 83.578147 
L 108.906422 83.692917 
L 109.733415 83.543147 
L 110.560408 83.615848 
L 111.387401 83.496983 
L 112.214393 83.553234 
L 113.868379 83.519766 
L 116.349358 83.521159 
L 117.176351 83.294121 
L 118.003344 83.491431 
L 118.830336 83.052424 
L 119.657329 83.367649 
L 120.484322 82.795435 
L 121.311315 83.126862 
L 122.138308 82.603242 
L 122.965301 82.963893 
L 123.792294 82.614782 
L 124.619286 82.952374 
L 125.446279 82.850558 
L 126.273272 83.145401 
L 127.927258 83.517766 
L 128.754251 83.86431 
L 129.581244 84.056873 
L 130.408236 84.423697 
L 131.235229 84.523534 
L 132.062222 84.820103 
L 132.889215 84.826165 
L 133.716208 85.026556 
L 134.543201 84.93834 
L 135.370194 85.091174 
L 136.197187 84.960045 
L 137.024179 85.078609 
L 137.851172 84.863303 
L 138.678165 84.967721 
L 139.505158 84.712083 
L 140.332151 84.853195 
L 141.159144 84.454874 
L 141.986137 84.747636 
L 142.813129 84.067108 
L 143.640122 84.977393 
L 144.467115 83.350815 
L 145.294108 85.333254 
L 146.121101 83.372041 
L 146.948094 85.796579 
L 147.775087 83.533919 
L 148.60208 86.047732 
L 149.429072 83.902898 
L 150.256065 86.320107 
L 151.083058 84.451315 
L 151.910051 86.29357 
L 152.737044 85.398726 
L 153.564037 86.164941 
L 154.39103 85.610891 
L 155.218022 85.918621 
L 156.045015 85.73239 
L 156.872008 85.916118 
L 157.699001 85.770716 
L 158.525994 85.936482 
L 159.352987 85.827725 
L 160.17998 85.970603 
L 161.006972 85.880118 
L 161.833965 86.02552 
L 162.660958 85.972928 
L 163.487951 86.123595 
L 164.314944 86.063133 
L 165.141937 86.266732 
L 165.96893 86.200427 
L 166.795923 86.433123 
L 167.622915 86.312091 
L 168.449908 86.629138 
L 169.276901 86.306986 
L 170.103894 86.731454 
L 170.930887 86.238869 
L 171.75788 86.86198 
L 172.584873 86.207535 
L 173.411865 86.936482 
L 174.238858 86.192694 
L 175.065851 86.994813 
L 175.892844 86.273334 
L 176.719837 87.096608 
L 177.54683 86.550027 
L 178.373823 87.315952 
L 179.200815 86.940995 
L 180.027808 87.551413 
L 180.854801 87.328105 
L 181.681794 87.855215 
L 182.508787 87.742408 
L 183.33578 88.205797 
L 184.989766 88.552178 
L 185.816758 89.037594 
L 186.643751 88.622578 
L 187.470744 89.816349 
L 188.297737 88.924582 
L 189.12473 90.555347 
L 189.951723 89.405343 
L 190.778716 91.299684 
L 191.605708 89.965006 
L 192.432701 91.68254 
L 193.259694 90.549841 
L 194.086687 91.789166 
L 194.91368 91.405201 
L 196.567666 91.950778 
L 197.394659 91.591647 
L 198.221651 92.256756 
L 199.048644 91.473317 
L 199.875637 92.38647 
L 200.70263 91.450134 
L 201.529623 92.361188 
L 202.356616 91.421268 
L 203.183609 92.321774 
L 204.010601 91.299797 
L 204.837594 92.30549 
L 205.664587 91.323349 
L 206.49158 92.17472 
L 207.318573 91.48546 
L 208.145566 92.063818 
L 208.972559 91.826683 
L 209.799551 92.022092 
L 210.626544 92.478266 
L 211.453537 91.721241 
L 212.28053 93.49193 
L 213.107523 91.723797 
L 213.934516 94.129243 
L 214.761509 92.035349 
L 215.588502 94.62984 
L 216.415494 92.322072 
L 217.242487 94.900858 
L 218.06948 92.787318 
L 218.896473 94.846773 
L 219.723466 93.509504 
L 220.550459 94.562911 
L 221.377452 94.032798 
L 222.204444 94.575245 
L 223.031437 94.451189 
L 224.685423 94.875778 
L 225.512416 95.113483 
L 226.339409 95.063458 
L 227.166402 95.764148 
L 227.993394 95.971601 
L 228.820387 96.2981 
L 229.64738 96.860163 
L 230.474373 96.823724 
L 231.301366 97.351269 
L 232.128359 97.347929 
L 232.955352 97.890684 
L 233.782345 97.816984 
L 234.609337 98.524459 
L 235.43633 98.300063 
L 237.090316 99.101363 
L 237.917309 98.993244 
L 238.744302 100.009903 
L 239.571295 99.755978 
L 240.398287 100.710433 
L 241.22528 100.579355 
L 242.052273 101.190517 
L 242.879266 101.31865 
L 245.360245 102.018209 
L 248.668216 103.006186 
L 249.495209 103.010316 
L 250.322202 103.969133 
L 251.149195 103.442059 
L 251.976188 105.015314 
L 252.80318 103.893142 
L 253.630173 105.996967 
L 254.457166 103.925039 
L 255.284159 106.663504 
L 256.111152 104.117581 
L 256.938145 106.837957 
L 257.765138 104.047446 
L 258.59213 106.351665 
L 259.419123 104.321194 
L 261.073109 105.102548 
L 261.900102 106.515163 
L 262.727095 106.975471 
L 263.554088 109.20194 
L 264.381081 110.13696 
L 265.208073 111.317035 
L 266.035066 110.542013 
L 266.862059 112.073022 
L 267.689052 113.191149 
L 268.516045 116.627361 
L 269.343038 116.6663 
L 270.170031 120.034232 
L 270.997023 120.840914 
L 271.824016 123.757409 
L 272.651009 123.977976 
L 273.478002 128.570456 
L 274.304995 130.706334 
L 275.131988 135.59326 
L 275.958981 136.099568 
L 276.785973 141.160833 
L 277.612966 142.346113 
L 278.439959 146.039643 
L 279.266952 149.082122 
L 280.093945 151.54088 
L 280.920938 157.575139 
L 281.747931 159.818885 
L 282.574924 166.616388 
L 283.401916 169.010567 
L 284.228909 175.407428 
L 285.055902 177.63584 
L 285.882895 182.980233 
L 286.709888 185.5091 
L 287.536881 189.614416 
L 288.363874 192.664553 
L 289.190866 194.994586 
L 290.844852 200.497676 
L 291.671845 202.876614 
L 292.498838 206.359692 
L 293.325831 208.312757 
L 294.152824 212.434124 
L 294.979817 214.009435 
L 295.806809 218.714037 
L 296.633802 219.853968 
L 297.460795 225.162124 
L 298.287788 225.786068 
L 299.114781 232.344338 
L 299.941774 231.145139 
L 300.768767 238.943454 
L 301.595759 236.343404 
L 302.422752 243.156712 
L 303.249745 240.615976 
L 304.076738 246.180451 
L 304.903731 243.91243 
L 305.730724 248.232215 
L 306.557717 246.385113 
L 307.384709 248.440257 
L 309.038695 248.231953 
L 309.865688 249.391334 
L 310.692681 249.252239 
L 311.519674 249.949061 
L 312.346667 250.319593 
L 313.17366 250.22969 
L 314.000652 251.088294 
L 314.827645 250.467725 
L 315.654638 251.503263 
L 316.481631 250.734403 
L 317.308624 251.542152 
L 318.135617 250.723718 
L 318.96261 251.269369 
L 319.789602 250.748627 
L 321.443588 250.905701 
L 322.270581 250.548644 
L 323.097574 250.81601 
L 323.924567 250.443595 
L 324.75156 250.560947 
L 325.578552 250.282041 
L 326.405545 250.481988 
L 327.232538 250.399016 
L 328.059531 250.653562 
L 328.886524 250.714294 
L 329.713517 250.941899 
L 331.367503 251.150692 
L 332.194495 251.393964 
L 333.021488 251.47105 
L 333.848481 251.872289 
L 334.675474 251.90208 
L 335.502467 252.289751 
L 339.637431 252.592248 
L 340.464424 252.302688 
L 341.291417 252.501398 
L 342.11841 252.005704 
L 342.945403 252.240414 
L 343.772396 251.696389 
L 344.599388 251.8873 
L 345.426381 251.405376 
L 346.253374 251.765627 
L 347.080367 251.221805 
L 347.90736 251.742688 
L 348.734353 250.773186 
L 349.561346 251.660752 
L 350.388338 250.426312 
L 351.215331 251.601211 
L 352.042324 250.344967 
L 352.869317 251.554972 
L 353.69631 250.419852 
L 354.523303 251.443102 
L 355.350296 250.567282 
L 356.177288 251.475996 
L 357.004281 251.184181 
L 357.831274 251.758376 
L 358.658267 251.810841 
L 359.48526 252.108434 
L 360.312253 252.248642 
L 361.139246 252.533398 
L 361.966239 252.640018 
L 362.793231 252.930882 
L 363.620224 253.002952 
L 364.447217 253.32904 
L 365.27421 253.372286 
L 366.101203 253.691393 
L 366.928196 253.735692 
L 367.755189 254.035083 
L 368.582181 254.037253 
L 369.409174 254.344111 
L 370.236167 254.365649 
L 371.06316 254.678356 
L 371.890153 254.648256 
L 372.717146 254.962605 
L 373.544139 254.910457 
L 374.371131 255.27861 
L 375.198124 255.160199 
L 376.025117 255.632692 
L 376.85211 255.50117 
L 377.679103 255.973482 
L 378.506096 255.7501 
L 379.333089 256.282974 
L 380.160082 256.026662 
L 380.987074 256.591416 
L 381.814067 256.29796 
L 382.64106 256.846657 
L 383.468053 256.53306 
L 384.295046 257.011644 
L 385.122039 256.66455 
L 385.949032 257.188862 
L 386.776024 256.869404 
L 387.603017 257.387494 
L 388.43001 257.059758 
L 389.257003 257.573377 
L 390.083996 257.243467 
L 390.910989 257.732911 
L 391.737982 257.372142 
L 392.564975 257.934039 
L 393.391967 257.502803 
L 394.21896 258.035879 
L 395.045953 257.669779 
L 395.872946 258.242141 
L 396.699939 257.829965 
L 397.526932 258.46648 
L 398.353925 257.995987 
L 399.180917 258.670473 
L 400.00791 258.236826 
L 400.834903 258.776043 
L 401.661896 258.473103 
L 402.488889 259.052935 
L 403.315882 258.65024 
L 404.142875 259.110696 
L 404.969867 258.807146 
L 405.79686 259.172882 
L 406.623853 258.950379 
L 407.450846 259.2559 
L 408.277839 259.084794 
L 409.104832 259.417313 
L 409.931825 259.215582 
L 410.758818 259.50817 
L 411.58581 259.405868 
L 412.412803 259.773444 
L 413.239796 259.633533 
L 414.066789 260.015046 
L 414.893782 259.944036 
L 415.720775 260.266039 
L 416.547768 260.251106 
L 417.37476 260.54313 
L 418.201753 260.529112 
L 419.028746 260.806373 
L 420.682732 261.040526 
L 422.336718 261.294972 
L 423.990703 261.572669 
L 425.644689 261.803539 
L 426.471682 261.993989 
L 428.125668 262.213478 
L 428.952661 262.294412 
L 429.779653 262.591519 
L 430.606646 262.566982 
L 431.433639 263.044712 
L 432.260632 262.748685 
L 433.087625 263.584793 
L 433.914618 262.909318 
L 434.741611 264.265466 
L 435.568603 263.089479 
L 436.395596 264.881429 
L 437.222589 263.414354 
L 438.049582 265.529098 
L 438.876575 263.778058 
L 439.703568 266.233334 
L 440.530561 264.057187 
L 441.357554 267.148971 
L 442.184546 264.734013 
L 443.011539 267.935377 
L 443.838532 265.684573 
L 444.665525 268.735837 
L 445.492518 266.539436 
L 446.319511 269.31373 
L 447.146504 267.631888 
L 447.973496 269.837539 
L 448.800489 268.838121 
L 449.627482 270.139734 
L 450.454475 269.747848 
L 451.281468 270.377298 
L 452.108461 270.363258 
L 453.762446 270.935241 
L 455.416432 271.188302 
L 458.724404 271.723782 
L 459.551397 271.677139 
L 460.378389 271.876735 
L 461.205382 271.910133 
L 462.032375 272.11208 
L 462.859368 271.986776 
L 463.686361 272.325102 
L 464.513354 272.212126 
L 465.340347 272.622997 
L 466.167339 272.498158 
L 466.994332 273.04827 
L 467.821325 273.075739 
L 468.648318 273.675542 
L 469.475311 273.614814 
L 470.302304 274.406212 
L 471.129297 274.49547 
L 471.95629 275.490758 
L 472.783282 275.47542 
L 473.610275 276.540491 
L 474.437268 276.516542 
L 475.264261 277.543526 
L 476.091254 277.616106 
L 476.918247 278.50749 
L 477.74524 278.79069 
L 479.399225 279.858632 
L 480.226218 280.045129 
L 481.053211 280.865226 
L 481.880204 280.806636 
L 482.707197 281.853515 
L 483.53419 281.723192 
L 484.361182 282.819713 
L 485.188175 282.728601 
L 486.015168 283.767036 
L 486.842161 283.823365 
L 487.669154 284.793757 
L 488.496147 285.143137 
L 490.150133 286.643443 
L 490.977125 286.967897 
L 491.804118 288.673124 
L 492.631111 288.132482 
L 493.458104 290.976744 
L 494.285097 289.314596 
L 495.11209 293.484243 
L 495.939083 290.664355 
L 496.766075 295.551458 
L 497.593068 292.133342 
L 498.420061 297.048839 
L 499.247054 293.593326 
L 500.074047 297.886841 
L 500.90104 295.135911 
L 501.728033 298.471502 
L 502.555025 296.727556 
L 503.382018 298.850582 
L 504.209011 298.226039 
L 505.036004 299.521353 
L 505.862997 299.68686 
L 506.68999 300.670441 
L 507.516983 301.235926 
L 509.170968 302.775113 
L 509.997961 303.339197 
L 510.824954 304.198017 
L 511.651947 304.625747 
L 512.47894 305.54198 
L 513.305933 305.962324 
L 514.132926 306.830341 
L 514.959918 307.197739 
L 515.786911 307.982539 
L 516.613904 308.230944 
L 517.440897 309.016581 
L 518.26789 309.22519 
L 519.094883 310.045688 
L 519.921876 310.162635 
L 520.748869 310.924514 
L 521.575861 310.937391 
L 522.402854 311.599926 
L 523.229847 311.569071 
L 524.05684 312.148683 
L 524.883833 312.161007 
L 525.710826 312.6699 
L 526.537819 312.793278 
L 527.364811 313.181591 
L 529.018797 313.765826 
L 532.326769 315.118032 
L 535.63474 316.773164 
L 538.115719 318.119279 
L 541.42369 320.203632 
L 542.250683 320.519023 
L 543.077676 321.135894 
L 543.904669 321.359925 
L 544.731662 322.094934 
L 545.558654 322.335114 
L 546.385647 323.158271 
L 547.21264 323.430611 
L 548.039633 324.32959 
L 548.866626 324.56755 
L 549.693619 325.568581 
L 550.520612 325.777063 
L 551.347604 326.90288 
L 552.174597 327.034572 
L 553.00159 328.153064 
L 553.828583 328.278776 
L 554.655576 329.414268 
L 555.482569 329.50912 
L 556.309562 330.6046 
L 557.136555 330.757823 
L 557.963547 331.770912 
L 558.79054 331.938139 
L 559.617533 332.847406 
L 560.444526 332.992468 
L 561.271519 333.909226 
L 562.098512 333.899012 
L 562.925505 334.779288 
L 563.752497 334.536247 
L 564.57949 335.404494 
L 565.406483 334.962813 
L 566.233476 335.748546 
L 567.060469 335.267349 
L 567.887462 335.896717 
L 568.714455 335.484867 
L 569.541448 335.986457 
L 570.36844 335.70157 
L 571.195433 336.075867 
L 572.022426 336.026225 
L 572.849419 336.308535 
L 573.676412 336.446286 
L 576.15739 337.222769 
L 579.465362 338.636742 
L 580.292355 339.222083 
L 581.119348 339.471999 
L 581.94634 340.177259 
L 582.773333 340.436956 
L 583.600326 341.269324 
L 584.427319 341.532191 
L 585.254312 342.363591 
L 586.081305 342.606916 
L 586.908298 343.370635 
L 587.735291 343.607958 
L 588.562283 344.38249 
L 589.389276 344.642349 
L 590.216269 345.36842 
L 591.043262 345.636038 
L 591.870255 346.258921 
L 592.697248 346.516332 
L 593.524241 347.090556 
L 594.351233 347.361332 
L 595.178226 347.821161 
L 600.140183 349.208673 
L 602.621162 349.642873 
L 605.102141 349.979132 
L 607.583119 350.399902 
L 608.410112 350.433959 
L 609.237105 350.633219 
L 610.064098 350.653477 
L 610.891091 350.842884 
L 611.718084 350.869041 
L 612.545076 351.059815 
L 613.372069 351.056848 
L 614.199062 351.192303 
L 615.026055 351.20668 
L 615.853048 351.34606 
L 617.507034 351.473753 
L 632.392905 352.503913 
L 633.219898 352.713383 
L 634.046891 352.649042 
L 634.873884 352.783638 
L 635.700877 352.736816 
L 639.008848 352.967497 
L 639.835841 353.554204 
L 640.662834 353.58968 
L 643.143812 354.535058 
L 643.970805 354.612349 
L 644.797798 354.957251 
L 645.624791 354.994864 
L 646.451784 355.157036 
L 647.278777 355.175629 
L 648.10577 355.023307 
L 649.759755 355.115188 
L 650.586748 355.019958 
L 653.89472 355.631427 
L 654.721713 356.077908 
L 655.548705 356.27954 
L 656.375698 356.673408 
L 657.202691 356.814415 
L 658.029684 357.13433 
L 658.856677 357.238312 
L 659.68367 357.487554 
L 662.164648 357.645553 
L 665.47262 357.537241 
L 666.299613 357.766965 
L 667.126606 357.694612 
L 667.953598 358.435807 
L 668.780591 358.555297 
L 669.607584 359.443919 
L 670.434577 359.264983 
L 671.26157 359.918371 
L 672.088563 359.956051 
L 673.742548 360.428567 
L 674.569541 360.465875 
L 675.396534 360.752362 
L 676.223527 360.251326 
L 677.05052 360.325323 
L 677.877513 360.103738 
L 678.704506 360.334353 
L 679.531498 360.872016 
L 682.012477 361.219015 
L 682.83947 361.777061 
L 683.666463 361.463359 
L 684.493456 361.91342 
L 686.147441 362.580857 
L 686.974434 361.876015 
L 687.801427 362.379094 
L 688.62842 362.104246 
L 689.455413 362.965685 
L 690.282406 362.662724 
L 691.109399 362.678451 
L 691.936391 363.18418 
L 693.590377 363.185015 
L 694.41737 362.706623 
L 695.244363 363.99944 
L 696.071356 362.869865 
L 696.898349 363.599402 
L 697.725341 362.844663 
L 698.552334 363.55601 
L 699.379327 363.420145 
L 701.033313 363.776815 
L 701.860306 363.806564 
L 702.687299 364.24226 
L 703.514292 364.094303 
L 704.341284 364.639966 
L 705.168277 364.528017 
L 705.99527 365.304581 
L 706.822263 365.044391 
L 707.649256 366.584405 
L 708.476249 366.109982 
L 709.303242 367.823502 
L 710.130234 367.179977 
L 710.957227 368.838413 
L 711.78422 368.250334 
L 712.611213 370.041483 
L 713.438206 369.125117 
L 714.265199 370.315272 
L 715.092192 369.639417 
L 715.919185 369.569648 
L 717.57317 370.134471 
L 718.400163 370.032897 
L 719.227156 369.730276 
L 720.054149 370.120788 
L 720.881142 368.846346 
L 721.708135 369.893844 
L 722.535127 368.672072 
L 723.36212 369.65522 
L 724.189113 369.05993 
L 725.016106 369.293631 
L 725.843099 368.284354 
L 726.670092 369.097199 
L 727.497085 369.108952 
L 728.324077 368.12318 
L 729.15107 370.648502 
L 729.978063 368.433244 
L 730.805056 372.75804 
L 731.632049 369.235473 
L 732.459042 374.03327 
L 733.286035 370.113458 
L 734.113028 374.932188 
L 734.94002 370.742521 
L 735.767013 375.100043 
L 736.594006 372.195305 
L 737.420999 374.683634 
L 738.247992 372.633071 
L 739.074985 373.557087 
L 739.901978 372.815692 
L 740.72897 373.030126 
L 741.555963 372.827995 
L 742.382956 372.762404 
L 743.209949 372.870622 
L 744.036942 372.733593 
L 744.863935 372.974269 
L 745.690928 372.864827 
L 746.51792 373.200264 
L 747.344913 373.065697 
L 748.171906 373.41228 
L 748.998899 373.340751 
L 749.825892 373.67567 
L 750.652885 373.58721 
L 751.479878 373.919675 
L 752.306871 373.887863 
L 753.133863 374.262185 
L 753.960856 373.775674 
L 754.787849 375.203945 
L 758.095821 376.723896 
L 758.922813 376.086038 
L 759.749806 376.3559 
L 760.576799 375.89438 
L 761.403792 376.055903 
L 762.230785 376.596236 
L 763.057778 375.594386 
L 763.884771 375.654835 
L 764.711764 376.095274 
L 765.538756 375.570056 
L 766.365749 375.818224 
L 767.192742 376.387445 
L 768.019735 376.573605 
L 768.846728 377.145627 
L 769.673721 377.334601 
L 770.500714 377.252966 
L 771.327706 377.948536 
L 772.154699 377.070772 
L 772.981692 377.422708 
L 773.808685 376.473821 
L 774.635678 377.02958 
L 775.462671 377.406123 
L 776.289664 378.149418 
L 777.943649 377.89122 
L 778.770642 378.164762 
L 779.597635 377.284347 
L 780.424628 378.264934 
L 781.251621 377.423153 
L 782.078614 379.155168 
L 782.905607 378.113603 
L 783.732599 378.225299 
L 784.559592 377.493474 
L 785.386585 377.348364 
L 786.213578 378.064232 
L 787.040571 377.372134 
L 787.867564 378.739688 
L 788.694557 377.540317 
L 789.521549 379.445715 
L 790.348542 378.391745 
L 791.175535 380.007143 
L 792.002528 379.536489 
L 792.829521 379.765185 
L 793.656514 380.749851 
L 794.483507 380.091635 
L 795.310499 381.300487 
L 796.137492 380.458182 
L 796.964485 381.814447 
L 797.791478 380.470115 
L 798.618471 381.505599 
L 799.445464 380.549732 
L 801.09945 381.45534 
L 801.926442 380.802789 
L 802.753435 381.717973 
L 803.580428 380.993786 
L 804.407421 381.887127 
L 805.234414 380.977601 
L 806.061407 382.103542 
L 806.8884 381.694892 
L 807.715392 382.694009 
L 808.542385 382.441034 
L 809.369378 383.027194 
L 810.196371 383.225706 
L 811.023364 384.029612 
L 811.850357 384.592262 
L 812.67735 384.529388 
L 813.504343 384.70187 
L 814.331335 385.422969 
L 815.158328 384.781883 
L 816.812314 383.795415 
L 817.639307 384.406595 
L 818.4663 383.18378 
L 819.293293 382.91115 
L 820.120285 382.165618 
L 820.947278 381.920297 
L 821.774271 382.590572 
L 822.601264 381.25262 
L 823.428257 382.483679 
L 824.25525 382.094963 
L 825.082243 383.186381 
L 825.909235 381.821476 
L 826.736228 383.366893 
L 827.563221 382.514476 
L 828.390214 383.312548 
L 831.698186 383.15789 
L 832.525178 383.414057 
L 833.352171 383.370697 
L 834.179164 383.691782 
L 835.006157 383.74548 
L 835.83315 384.065906 
L 836.660143 384.197915 
L 838.314128 384.643648 
L 839.141121 385.331124 
L 839.968114 384.686409 
L 840.795107 386.037065 
L 841.6221 385.420386 
L 842.449093 386.076986 
L 843.276086 385.86558 
L 844.103078 386.103211 
L 845.757064 385.765547 
L 846.584057 385.889071 
L 847.41105 385.24444 
L 848.238043 386.241818 
L 849.065036 385.023088 
L 849.892029 385.759308 
L 850.719021 385.199907 
L 851.546014 385.484326 
L 852.373007 386.006522 
L 852.373007 386.006522 
" clip-path="url(#p18d9198b40)" style="fill: none; stroke-dasharray: 7.4,3.2; stroke-dashoffset: 0; stroke: #000000; stroke-width: 2"/>
   </g>
   <g id="patch_3">
    <path d="M 41.92 404.12 
L 41.92 10.8 
" style="fill: none; stroke: #000000; stroke-width: 0.8; stroke-linejoin: miter; stroke-linecap: square"/>
   </g>
   <g id="patch_4">
    <path d="M 853.2 404.12 
L 853.2 10.8 
" style="fill: none; stroke: #000000; stroke-width: 0.8; stroke-linejoin: miter; stroke-linecap: square"/>
   </g>
   <g id="patch_5">
    <path d="M 41.92 404.12 
L 853.2 404.12 
" style="fill: none; stroke: #000000; stroke-width: 0.8; stroke-linejoin: miter; stroke-linecap: square"/>
   </g>
   <g id="patch_6">
    <path d="M 41.92 10.8 
L 853.2 10.8 
" style="fill: none; stroke: #000000; stroke-width: 0.8; stroke-linejoin: miter; stroke-linecap: square"/>
   </g>
  </g>
 </g>
 <defs>
  <clipPath id="p18d9198b40">
   <rect x="41.92" y="10.8" width="811.28" height="393.32"/>
  </clipPath>
 </defs>
</svg>
