<?xml version="1.0" encoding="utf-8" standalone="no"?>
<!DOCTYPE svg PUBLIC "-//W3C//DTD SVG 1.1//EN"
  "http://www.w3.org/Graphics/SVG/1.1/DTD/svg11.dtd">
<svg xmlns:xlink="http://www.w3.org/1999/xlink" width="864pt" height="432pt" viewBox="0 0 864 432" xmlns="http://www.w3.org/2000/svg" version="1.1">
 <metadata>
  <rdf:RDF xmlns:dc="http://purl.org/dc/elements/1.1/" xmlns:cc="http://creativecommons.org/ns#" xmlns:rdf="http://www.w3.org/1999/02/22-rdf-syntax-ns#">
   <cc:Work>
    <dc:type rdf:resource="http://purl.org/dc/dcmitype/StillImage"/>
    <dc:date>2024-09-18T11:36:13.379034</dc:date>
    <dc:format>image/svg+xml</dc:format>
    <dc:creator>
     <cc:Agent>
      <dc:title>Matplotlib v3.9.2, https://matplotlib.org/</dc:title>
     </cc:Agent>
    </dc:creator>
   </cc:Work>
  </rdf:RDF>
 </metadata>
 <defs>
  <style type="text/css">*{stroke-linejoin: round; stroke-linecap: butt}</style>
 </defs>
 <g id="figure_1">
  <g id="patch_1">
   <path d="M 0 432 
L 864 432 
L 864 0 
L 0 0 
z
" style="fill: #ffffff"/>
  </g>
  <g id="axes_1">
   <g id="patch_2">
    <path d="M 35.89 404.12 
L 853.2 404.12 
L 853.2 10.8 
L 35.89 10.8 
z
" style="fill: #ffffff"/>
   </g>
   <g id="matplotlib.axis_1">
    <g id="xtick_1">
     <g id="line2d_1">
      <defs>
       <path id="m393c37779a" d="M 0 0 
L 0 3.5 
" style="stroke: #000000; stroke-width: 0.8"/>
      </defs>
      <g>
       <use xlink:href="#m393c37779a" x="194.186534" y="404.12" style="stroke: #000000; stroke-width: 0.8"/>
      </g>
     </g>
     <g id="text_1">
      <!-- 200 -->
      <g transform="translate(185.156065 418.771563) scale(0.1 -0.1)">
       <defs>
        <path id="DejaVuSansMono-32" d="M 1166 531 
L 3309 531 
L 3309 0 
L 475 0 
L 475 531 
Q 1059 1147 1496 1619 
Q 1934 2091 2100 2284 
Q 2413 2666 2522 2902 
Q 2631 3138 2631 3384 
Q 2631 3775 2401 3997 
Q 2172 4219 1772 4219 
Q 1488 4219 1175 4116 
Q 863 4013 513 3803 
L 513 4441 
Q 834 4594 1145 4672 
Q 1456 4750 1759 4750 
Q 2444 4750 2861 4386 
Q 3278 4022 3278 3431 
Q 3278 3131 3139 2831 
Q 3000 2531 2688 2169 
Q 2513 1966 2180 1606 
Q 1847 1247 1166 531 
z
" transform="scale(0.015625)"/>
        <path id="DejaVuSansMono-30" d="M 1509 2344 
Q 1509 2516 1629 2641 
Q 1750 2766 1919 2766 
Q 2094 2766 2219 2641 
Q 2344 2516 2344 2344 
Q 2344 2169 2220 2047 
Q 2097 1925 1919 1925 
Q 1744 1925 1626 2044 
Q 1509 2163 1509 2344 
z
M 1925 4250 
Q 1484 4250 1267 3775 
Q 1050 3300 1050 2328 
Q 1050 1359 1267 884 
Q 1484 409 1925 409 
Q 2369 409 2586 884 
Q 2803 1359 2803 2328 
Q 2803 3300 2586 3775 
Q 2369 4250 1925 4250 
z
M 1925 4750 
Q 2672 4750 3055 4137 
Q 3438 3525 3438 2328 
Q 3438 1134 3055 521 
Q 2672 -91 1925 -91 
Q 1178 -91 797 521 
Q 416 1134 416 2328 
Q 416 3525 797 4137 
Q 1178 4750 1925 4750 
z
" transform="scale(0.015625)"/>
       </defs>
       <use xlink:href="#DejaVuSansMono-32"/>
       <use xlink:href="#DejaVuSansMono-30" x="60.205078"/>
       <use xlink:href="#DejaVuSansMono-30" x="120.410156"/>
      </g>
     </g>
    </g>
    <g id="xtick_2">
     <g id="line2d_2">
      <g>
       <use xlink:href="#m393c37779a" x="360.814465" y="404.12" style="stroke: #000000; stroke-width: 0.8"/>
      </g>
     </g>
     <g id="text_2">
      <!-- 400 -->
      <g transform="translate(351.783996 418.771563) scale(0.1 -0.1)">
       <defs>
        <path id="DejaVuSansMono-34" d="M 2297 4091 
L 825 1625 
L 2297 1625 
L 2297 4091 
z
M 2194 4666 
L 2925 4666 
L 2925 1625 
L 3547 1625 
L 3547 1113 
L 2925 1113 
L 2925 0 
L 2297 0 
L 2297 1113 
L 319 1113 
L 319 1709 
L 2194 4666 
z
" transform="scale(0.015625)"/>
       </defs>
       <use xlink:href="#DejaVuSansMono-34"/>
       <use xlink:href="#DejaVuSansMono-30" x="60.205078"/>
       <use xlink:href="#DejaVuSansMono-30" x="120.410156"/>
      </g>
     </g>
    </g>
    <g id="xtick_3">
     <g id="line2d_3">
      <g>
       <use xlink:href="#m393c37779a" x="527.442396" y="404.12" style="stroke: #000000; stroke-width: 0.8"/>
      </g>
     </g>
     <g id="text_3">
      <!-- 600 -->
      <g transform="translate(518.411927 418.771563) scale(0.1 -0.1)">
       <defs>
        <path id="DejaVuSansMono-36" d="M 3097 4563 
L 3097 3981 
Q 2900 4097 2678 4158 
Q 2456 4219 2216 4219 
Q 1616 4219 1306 3767 
Q 997 3316 997 2438 
Q 1147 2750 1412 2917 
Q 1678 3084 2022 3084 
Q 2697 3084 3067 2670 
Q 3438 2256 3438 1497 
Q 3438 741 3056 325 
Q 2675 -91 1984 -91 
Q 1172 -91 794 492 
Q 416 1075 416 2328 
Q 416 3509 870 4129 
Q 1325 4750 2188 4750 
Q 2419 4750 2650 4701 
Q 2881 4653 3097 4563 
z
M 1972 2591 
Q 1569 2591 1337 2300 
Q 1106 2009 1106 1497 
Q 1106 984 1337 693 
Q 1569 403 1972 403 
Q 2391 403 2603 679 
Q 2816 956 2816 1497 
Q 2816 2041 2603 2316 
Q 2391 2591 1972 2591 
z
" transform="scale(0.015625)"/>
       </defs>
       <use xlink:href="#DejaVuSansMono-36"/>
       <use xlink:href="#DejaVuSansMono-30" x="60.205078"/>
       <use xlink:href="#DejaVuSansMono-30" x="120.410156"/>
      </g>
     </g>
    </g>
    <g id="xtick_4">
     <g id="line2d_4">
      <g>
       <use xlink:href="#m393c37779a" x="694.070326" y="404.12" style="stroke: #000000; stroke-width: 0.8"/>
      </g>
     </g>
     <g id="text_4">
      <!-- 800 -->
      <g transform="translate(685.039857 418.771563) scale(0.1 -0.1)">
       <defs>
        <path id="DejaVuSansMono-38" d="M 1925 2216 
Q 1503 2216 1273 1980 
Q 1044 1744 1044 1313 
Q 1044 881 1276 642 
Q 1509 403 1925 403 
Q 2350 403 2579 639 
Q 2809 875 2809 1313 
Q 2809 1741 2576 1978 
Q 2344 2216 1925 2216 
z
M 1375 2478 
Q 972 2581 745 2862 
Q 519 3144 519 3541 
Q 519 4097 897 4423 
Q 1275 4750 1925 4750 
Q 2578 4750 2956 4423 
Q 3334 4097 3334 3541 
Q 3334 3144 3107 2862 
Q 2881 2581 2478 2478 
Q 2947 2375 3195 2062 
Q 3444 1750 3444 1253 
Q 3444 622 3041 265 
Q 2638 -91 1925 -91 
Q 1213 -91 811 264 
Q 409 619 409 1247 
Q 409 1747 657 2061 
Q 906 2375 1375 2478 
z
M 1147 3481 
Q 1147 3106 1347 2909 
Q 1547 2713 1925 2713 
Q 2306 2713 2506 2909 
Q 2706 3106 2706 3481 
Q 2706 3863 2507 4063 
Q 2309 4263 1925 4263 
Q 1547 4263 1347 4061 
Q 1147 3859 1147 3481 
z
" transform="scale(0.015625)"/>
       </defs>
       <use xlink:href="#DejaVuSansMono-38"/>
       <use xlink:href="#DejaVuSansMono-30" x="60.205078"/>
       <use xlink:href="#DejaVuSansMono-30" x="120.410156"/>
      </g>
     </g>
    </g>
   </g>
   <g id="matplotlib.axis_2">
    <g id="ytick_1">
     <g id="line2d_5">
      <defs>
       <path id="m4a20383bf2" d="M 0 0 
L -3.5 0 
" style="stroke: #000000; stroke-width: 0.8"/>
      </defs>
      <g>
       <use xlink:href="#m4a20383bf2" x="35.89" y="386.241818" style="stroke: #000000; stroke-width: 0.8"/>
      </g>
     </g>
     <g id="text_5">
      <!-- 0.0 -->
      <g transform="translate(10.829063 390.067599) scale(0.1 -0.1)">
       <defs>
        <path id="DejaVuSansMono-2e" d="M 1528 953 
L 2316 953 
L 2316 0 
L 1528 0 
L 1528 953 
z
" transform="scale(0.015625)"/>
       </defs>
       <use xlink:href="#DejaVuSansMono-30"/>
       <use xlink:href="#DejaVuSansMono-2e" x="60.205078"/>
       <use xlink:href="#DejaVuSansMono-30" x="120.410156"/>
      </g>
     </g>
    </g>
    <g id="ytick_2">
     <g id="line2d_6">
      <g>
       <use xlink:href="#m4a20383bf2" x="35.89" y="327.542631" style="stroke: #000000; stroke-width: 0.8"/>
      </g>
     </g>
     <g id="text_6">
      <!-- 0.1 -->
      <g transform="translate(10.829063 331.368412) scale(0.1 -0.1)">
       <defs>
        <path id="DejaVuSansMono-31" d="M 844 531 
L 1825 531 
L 1825 4097 
L 769 3859 
L 769 4434 
L 1819 4666 
L 2450 4666 
L 2450 531 
L 3419 531 
L 3419 0 
L 844 0 
L 844 531 
z
" transform="scale(0.015625)"/>
       </defs>
       <use xlink:href="#DejaVuSansMono-30"/>
       <use xlink:href="#DejaVuSansMono-2e" x="60.205078"/>
       <use xlink:href="#DejaVuSansMono-31" x="120.410156"/>
      </g>
     </g>
    </g>
    <g id="ytick_3">
     <g id="line2d_7">
      <g>
       <use xlink:href="#m4a20383bf2" x="35.89" y="268.843443" style="stroke: #000000; stroke-width: 0.8"/>
      </g>
     </g>
     <g id="text_7">
      <!-- 0.2 -->
      <g transform="translate(10.829063 272.669225) scale(0.1 -0.1)">
       <use xlink:href="#DejaVuSansMono-30"/>
       <use xlink:href="#DejaVuSansMono-2e" x="60.205078"/>
       <use xlink:href="#DejaVuSansMono-32" x="120.410156"/>
      </g>
     </g>
    </g>
    <g id="ytick_4">
     <g id="line2d_8">
      <g>
       <use xlink:href="#m4a20383bf2" x="35.89" y="210.144256" style="stroke: #000000; stroke-width: 0.8"/>
      </g>
     </g>
     <g id="text_8">
      <!-- 0.3 -->
      <g transform="translate(10.829063 213.970037) scale(0.1 -0.1)">
       <defs>
        <path id="DejaVuSansMono-33" d="M 2425 2497 
Q 2884 2375 3128 2064 
Q 3372 1753 3372 1288 
Q 3372 644 2939 276 
Q 2506 -91 1741 -91 
Q 1419 -91 1084 -31 
Q 750 28 428 141 
L 428 769 
Q 747 603 1056 522 
Q 1366 441 1672 441 
Q 2191 441 2469 675 
Q 2747 909 2747 1350 
Q 2747 1756 2469 1995 
Q 2191 2234 1716 2234 
L 1234 2234 
L 1234 2753 
L 1716 2753 
Q 2150 2753 2394 2943 
Q 2638 3134 2638 3475 
Q 2638 3834 2411 4026 
Q 2184 4219 1766 4219 
Q 1488 4219 1191 4156 
Q 894 4094 569 3969 
L 569 4550 
Q 947 4650 1242 4700 
Q 1538 4750 1766 4750 
Q 2447 4750 2855 4408 
Q 3263 4066 3263 3500 
Q 3263 3116 3048 2859 
Q 2834 2603 2425 2497 
z
" transform="scale(0.015625)"/>
       </defs>
       <use xlink:href="#DejaVuSansMono-30"/>
       <use xlink:href="#DejaVuSansMono-2e" x="60.205078"/>
       <use xlink:href="#DejaVuSansMono-33" x="120.410156"/>
      </g>
     </g>
    </g>
    <g id="ytick_5">
     <g id="line2d_9">
      <g>
       <use xlink:href="#m4a20383bf2" x="35.89" y="151.445068" style="stroke: #000000; stroke-width: 0.8"/>
      </g>
     </g>
     <g id="text_9">
      <!-- 0.4 -->
      <g transform="translate(10.829063 155.27085) scale(0.1 -0.1)">
       <use xlink:href="#DejaVuSansMono-30"/>
       <use xlink:href="#DejaVuSansMono-2e" x="60.205078"/>
       <use xlink:href="#DejaVuSansMono-34" x="120.410156"/>
      </g>
     </g>
    </g>
    <g id="ytick_6">
     <g id="line2d_10">
      <g>
       <use xlink:href="#m4a20383bf2" x="35.89" y="92.745881" style="stroke: #000000; stroke-width: 0.8"/>
      </g>
     </g>
     <g id="text_10">
      <!-- 0.5 -->
      <g transform="translate(10.829063 96.571662) scale(0.1 -0.1)">
       <defs>
        <path id="DejaVuSansMono-35" d="M 647 4666 
L 3009 4666 
L 3009 4134 
L 1222 4134 
L 1222 2988 
Q 1356 3038 1492 3061 
Q 1628 3084 1766 3084 
Q 2491 3084 2916 2656 
Q 3341 2228 3341 1497 
Q 3341 759 2895 334 
Q 2450 -91 1678 -91 
Q 1306 -91 998 -41 
Q 691 9 447 109 
L 447 750 
Q 734 594 1025 517 
Q 1316 441 1619 441 
Q 2141 441 2423 716 
Q 2706 991 2706 1497 
Q 2706 1997 2414 2275 
Q 2122 2553 1600 2553 
Q 1347 2553 1106 2495 
Q 866 2438 647 2322 
L 647 4666 
z
" transform="scale(0.015625)"/>
       </defs>
       <use xlink:href="#DejaVuSansMono-30"/>
       <use xlink:href="#DejaVuSansMono-2e" x="60.205078"/>
       <use xlink:href="#DejaVuSansMono-35" x="120.410156"/>
      </g>
     </g>
    </g>
    <g id="ytick_7">
     <g id="line2d_11">
      <g>
       <use xlink:href="#m4a20383bf2" x="35.89" y="34.046693" style="stroke: #000000; stroke-width: 0.8"/>
      </g>
     </g>
     <g id="text_11">
      <!-- 0.6 -->
      <g transform="translate(10.829063 37.872475) scale(0.1 -0.1)">
       <use xlink:href="#DejaVuSansMono-30"/>
       <use xlink:href="#DejaVuSansMono-2e" x="60.205078"/>
       <use xlink:href="#DejaVuSansMono-36" x="120.410156"/>
      </g>
     </g>
    </g>
   </g>
   <g id="line2d_12">
    <path d="M 27.558603 368.333087 
L 28.391743 369.036071 
L 29.224883 369.036071 
L 30.058022 381.728907 
L 30.891162 381.728907 
L 31.724302 386.241818 
L 180.02316 386.147447 
L 182.522579 385.958779 
L 185.021998 385.864483 
L 186.688277 385.770263 
L 189.187696 385.676647 
L 190.020836 385.582427 
L 190.853976 385.304401 
L 191.687115 385.210181 
L 192.520255 384.476432 
L 193.353394 384.382211 
L 194.186534 383.471465 
L 195.019674 383.37732 
L 195.852813 382.384443 
L 196.685953 382.290675 
L 197.519093 381.034153 
L 198.352232 380.940385 
L 199.185372 379.447907 
L 200.018512 379.448133 
L 200.851651 378.347303 
L 201.684791 378.253685 
L 202.517931 377.240593 
L 203.35107 376.961452 
L 205.01735 375.369409 
L 205.850489 375.107973 
L 206.683629 374.02679 
L 207.516769 374.705823 
L 208.349908 372.443121 
L 209.183048 373.187075 
L 210.016188 370.565525 
L 210.849327 371.311465 
L 211.682467 368.514077 
L 212.515607 369.275665 
L 213.348746 366.738198 
L 214.181886 366.908498 
L 215.015025 364.49362 
L 215.848165 363.981921 
L 216.681305 362.649422 
L 218.347584 360.861332 
L 219.180724 359.421566 
L 220.847003 356.872216 
L 221.680143 354.802154 
L 222.513282 354.201247 
L 223.346422 352.169553 
L 224.179562 351.236809 
L 225.012701 349.13876 
L 225.845841 348.163029 
L 226.678981 345.672395 
L 227.51212 344.886218 
L 228.34526 342.30863 
L 229.1784 341.117322 
L 230.011539 338.922668 
L 230.844679 337.288435 
L 231.677819 334.78281 
L 232.510958 333.565369 
L 233.344098 330.568163 
L 234.177238 329.884382 
L 235.010377 326.702918 
L 235.843517 326.347641 
L 236.676656 323.814817 
L 237.509796 323.292799 
L 238.342936 321.326052 
L 239.176075 320.507021 
L 240.009215 318.646722 
L 240.842355 317.588752 
L 241.675494 316.316117 
L 244.174913 311.605252 
L 245.841193 307.982744 
L 246.674332 305.557092 
L 247.507472 303.825255 
L 248.340612 301.254244 
L 249.173751 299.97668 
L 250.840031 294.660707 
L 251.67317 292.611872 
L 252.50631 289.816802 
L 255.005729 282.925558 
L 255.838869 280.868982 
L 256.672008 279.218204 
L 257.505148 275.668565 
L 259.171427 271.026966 
L 260.004567 268.963617 
L 260.837706 264.079277 
L 263.337125 253.431971 
L 265.003405 245.065867 
L 266.669684 237.278823 
L 268.335963 227.985015 
L 269.169103 226.049621 
L 271.668522 216.261453 
L 272.501662 211.642021 
L 273.334801 208.460569 
L 274.167941 203.938262 
L 275.001081 202.026211 
L 275.83422 197.875925 
L 276.66736 196.514646 
L 277.500499 192.494792 
L 278.333639 191.099902 
L 279.166779 187.313148 
L 279.999918 186.315077 
L 280.833058 183.946035 
L 281.666198 183.623238 
L 282.499337 181.840078 
L 283.332477 180.977674 
L 284.998756 178.500051 
L 286.665036 177.073916 
L 288.331315 175.952146 
L 290.830734 173.517624 
L 291.663874 173.050718 
L 292.497013 171.742326 
L 293.330153 171.174954 
L 294.163293 169.403491 
L 294.996432 169.249679 
L 295.829572 166.973769 
L 296.662712 168.917344 
L 297.495851 166.626429 
L 298.328991 168.518242 
L 299.16213 166.436694 
L 299.99527 168.098125 
L 300.82841 166.701768 
L 301.661549 168.469293 
L 302.494689 167.43166 
L 303.327829 168.324833 
L 304.160968 167.735045 
L 304.994108 166.896188 
L 305.827248 166.665703 
L 306.660387 165.49052 
L 307.493527 165.106324 
L 308.326667 164.929601 
L 309.159806 164.3185 
L 309.992946 164.819461 
L 310.826086 164.505406 
L 311.659225 165.470449 
L 312.492365 165.31087 
L 313.325505 165.78495 
L 314.158644 165.49323 
L 314.991784 166.018804 
L 315.824924 166.129186 
L 316.658063 166.024552 
L 317.491203 166.199505 
L 318.324343 165.738338 
L 319.157482 165.734638 
L 319.990622 164.951211 
L 320.823761 164.932577 
L 321.656901 164.424267 
L 322.490041 164.509007 
L 323.32318 164.340761 
L 324.15632 164.014991 
L 324.98946 164.193854 
L 325.822599 163.901242 
L 326.655739 164.037294 
L 327.488879 164.007645 
L 328.322018 164.392575 
L 329.155158 164.436593 
L 329.988298 164.960677 
L 330.821437 165.079281 
L 332.487717 166.051306 
L 333.320856 165.697987 
L 334.153996 166.178653 
L 334.987136 165.192777 
L 335.820275 165.365267 
L 336.653415 163.988275 
L 337.486555 164.085631 
L 338.319694 162.671545 
L 339.152834 162.820877 
L 339.985973 161.204866 
L 340.819113 161.198705 
L 341.652253 160.006415 
L 342.485392 159.907628 
L 343.318532 159.012523 
L 344.151672 158.814792 
L 344.984811 158.314835 
L 345.817951 158.421109 
L 346.651091 157.655495 
L 347.48423 157.644707 
L 348.31737 157.022532 
L 349.15051 156.968803 
L 349.983649 156.452677 
L 350.816789 156.549908 
L 351.649929 156.257341 
L 352.483068 156.536485 
L 354.149348 156.340772 
L 358.315046 155.879219 
L 359.148186 155.483751 
L 359.981325 155.32795 
L 361.647604 154.535388 
L 364.980163 153.819692 
L 366.646442 153.706132 
L 367.479582 153.882979 
L 372.47842 154.026283 
L 373.31156 153.846806 
L 374.144699 153.925316 
L 374.977839 153.723615 
L 375.810979 153.719119 
L 376.644118 153.46037 
L 377.477258 153.55038 
L 378.310398 153.282994 
L 379.143537 153.32695 
L 379.976677 153.076293 
L 380.809817 153.292857 
L 381.642956 153.081438 
L 382.476096 153.210535 
L 383.309235 153.05307 
L 384.142375 153.179665 
L 384.975515 152.88645 
L 385.808654 153.086048 
L 386.641794 152.830368 
L 387.474934 153.186348 
L 388.308073 152.922266 
L 389.141213 153.292934 
L 389.974353 152.98161 
L 390.807492 153.36573 
L 391.640632 152.991177 
L 392.473772 153.495187 
L 393.306911 153.399792 
L 394.140051 153.772835 
L 394.973191 153.736238 
L 395.80633 154.1872 
L 396.63947 154.084357 
L 397.47261 154.452468 
L 398.305749 154.362253 
L 399.138889 154.60234 
L 402.471448 154.073236 
L 408.303425 151.67908 
L 409.136565 151.619556 
L 409.969704 151.418747 
L 410.802844 151.469755 
L 411.635984 151.345996 
L 412.469123 151.493134 
L 413.302263 151.423175 
L 414.135403 151.752284 
L 416.634822 151.810465 
L 419.96738 150.984513 
L 420.80052 150.49916 
L 421.63366 150.325825 
L 422.466799 149.48158 
L 423.299939 149.2425 
L 424.133078 148.610088 
L 425.799358 147.937287 
L 426.632497 147.717428 
L 427.465637 147.127691 
L 428.298777 146.825437 
L 429.131916 145.856839 
L 429.965056 145.489746 
L 430.798196 144.667695 
L 431.631335 144.389224 
L 432.464475 143.364582 
L 433.297615 143.128109 
L 434.130754 141.672462 
L 434.963894 141.597834 
L 435.797034 140.205069 
L 436.630173 140.051215 
L 437.463313 139.226068 
L 438.296453 139.435029 
L 439.129592 138.530756 
L 439.962732 139.07262 
L 440.795872 138.254126 
L 441.629011 138.85119 
L 442.462151 138.206191 
L 443.295291 138.445108 
L 444.12843 137.978545 
L 444.96157 138.40979 
L 445.794709 137.990768 
L 446.627849 137.990973 
L 447.460989 137.67078 
L 448.294128 137.158769 
L 449.127268 136.913148 
L 449.960408 136.219921 
L 450.793547 135.987898 
L 451.626687 135.543614 
L 452.459827 135.402688 
L 455.792385 133.667113 
L 457.458665 132.653261 
L 459.124944 131.656668 
L 460.791223 130.330154 
L 461.624363 129.377801 
L 462.457503 128.887776 
L 463.290642 128.037551 
L 464.123782 127.540322 
L 464.956922 126.766657 
L 465.790061 126.397865 
L 466.623201 125.706738 
L 467.45634 125.574825 
L 468.28948 125.041944 
L 470.788899 123.986691 
L 471.622039 123.369205 
L 473.288318 122.948939 
L 474.954597 122.253401 
L 475.787737 121.918708 
L 476.620877 121.449152 
L 477.454016 121.195813 
L 479.120296 120.329837 
L 479.953435 120.162802 
L 483.285994 118.295788 
L 484.119134 117.511019 
L 484.952273 117.316773 
L 485.785413 116.634778 
L 486.618552 116.486865 
L 487.451692 115.756695 
L 488.284832 115.253995 
L 489.117971 114.505365 
L 489.951111 113.580191 
L 492.45053 111.521223 
L 493.28367 110.294319 
L 494.116809 109.401322 
L 494.949949 108.151417 
L 495.783089 107.570032 
L 496.616228 106.338696 
L 497.449368 105.84658 
L 498.282508 105.12268 
L 499.115647 104.634407 
L 500.781927 103.322859 
L 501.615066 102.661047 
L 502.448206 102.347927 
L 504.947625 100.550542 
L 508.280183 97.598998 
L 510.779602 95.252638 
L 512.445882 93.845832 
L 513.279021 93.607415 
L 514.112161 92.879398 
L 514.945301 92.592492 
L 515.77844 92.049125 
L 516.61158 91.880946 
L 517.44472 91.497368 
L 518.277859 91.549891 
L 519.110999 91.313488 
L 519.944139 91.44739 
L 520.777278 91.23643 
L 523.276697 90.941059 
L 524.109837 90.795525 
L 524.942977 90.774907 
L 527.442396 90.34192 
L 528.275535 90.045337 
L 529.108675 89.894394 
L 529.941814 89.563815 
L 530.774954 89.710405 
L 531.608094 89.433403 
L 532.441233 89.33329 
L 533.274373 88.954631 
L 534.107513 88.821535 
L 534.940652 88.374798 
L 535.773792 88.161214 
L 536.606932 87.606684 
L 537.440071 87.327579 
L 539.93949 85.599028 
L 541.60577 84.566629 
L 545.771468 81.727359 
L 546.604608 81.042022 
L 547.437747 80.517406 
L 548.270887 79.707562 
L 549.104027 79.124433 
L 551.603445 76.912667 
L 554.102864 75.037267 
L 555.769144 74.090626 
L 558.268563 73.1042 
L 563.267401 72.709129 
L 564.10054 72.760868 
L 564.93368 72.582901 
L 565.76682 72.738484 
L 566.599959 72.572115 
L 567.433099 72.743014 
L 568.266239 72.619701 
L 569.099378 73.052653 
L 569.932518 72.994522 
L 570.765657 73.294868 
L 571.598797 73.341573 
L 573.265076 73.728789 
L 574.098216 73.793225 
L 574.931356 73.996842 
L 575.764495 73.891862 
L 576.597635 74.051226 
L 577.430775 73.74636 
L 578.263914 73.939392 
L 579.097054 73.714535 
L 579.930194 73.818063 
L 580.763333 73.558946 
L 581.596473 73.603583 
L 582.429613 73.450244 
L 584.929032 73.457857 
L 590.761009 72.448592 
L 594.926707 71.147066 
L 597.426126 70.672269 
L 602.424964 69.621431 
L 603.258104 69.568166 
L 604.091244 69.175635 
L 604.924383 69.119554 
L 605.757523 68.816437 
L 606.590663 68.753176 
L 610.756361 67.766145 
L 614.922059 67.417055 
L 616.588338 67.480991 
L 617.421478 67.715441 
L 618.254618 67.703535 
L 619.087757 67.900077 
L 622.420316 67.724752 
L 623.253456 67.640106 
L 624.919735 67.224183 
L 626.586014 66.65754 
L 628.252294 66.118149 
L 632.417992 64.881826 
L 633.251131 65.003229 
L 634.084271 64.620774 
L 634.917411 64.732213 
L 635.75055 64.338041 
L 636.58369 64.3527 
L 637.41683 63.877452 
L 638.249969 63.79477 
L 639.083109 63.428595 
L 639.916249 63.433776 
L 643.248807 62.73887 
L 644.081947 62.798093 
L 644.915087 62.66901 
L 645.748226 63.090486 
L 646.581366 62.941513 
L 647.414506 63.269629 
L 648.247645 63.049964 
L 649.913925 63.124295 
L 650.747064 62.982291 
L 651.580204 62.97014 
L 652.413344 62.69623 
L 653.246483 62.747571 
L 654.079623 62.194017 
L 654.912762 62.212193 
L 655.745902 62.037284 
L 659.078461 61.718048 
L 661.57788 61.484045 
L 662.411019 61.587048 
L 664.910438 61.32797 
L 665.743578 61.389687 
L 666.576718 61.119486 
L 667.409857 61.218924 
L 668.242997 60.913036 
L 669.076137 61.004864 
L 669.909276 60.723638 
L 671.575556 60.423159 
L 673.241835 60.097626 
L 674.074975 59.86921 
L 674.908114 59.891959 
L 675.741254 59.700858 
L 676.574393 59.73335 
L 677.407533 59.383857 
L 678.240673 59.307595 
L 679.073812 59.025481 
L 682.406371 58.770482 
L 683.239511 58.582459 
L 684.07265 58.582858 
L 684.90579 58.452922 
L 686.572069 57.934412 
L 687.405209 57.888812 
L 688.238349 57.551652 
L 693.237187 57.157554 
L 696.569745 57.375102 
L 699.069164 56.734199 
L 699.902304 56.619265 
L 700.735443 56.219995 
L 704.068002 55.211787 
L 705.734281 54.255101 
L 708.2337 53.406673 
L 709.06684 53.242456 
L 712.399399 52.098524 
L 713.232538 52.125527 
L 714.065678 52.275574 
L 714.898818 52.002959 
L 715.731957 51.968724 
L 716.565097 51.542395 
L 717.398236 51.700052 
L 718.231376 51.518988 
L 719.064516 51.677219 
L 719.897655 51.531006 
L 721.563935 51.465017 
L 722.397074 51.244428 
L 723.230214 51.369315 
L 724.063354 50.943095 
L 724.896493 51.077419 
L 725.729633 50.538955 
L 726.562773 50.481922 
L 727.395912 49.997822 
L 728.229052 49.732452 
L 729.895331 48.881239 
L 730.728471 48.902319 
L 731.561611 48.457793 
L 732.39475 48.802406 
L 733.22789 48.312176 
L 734.06103 48.539073 
L 734.894169 48.01347 
L 735.727309 48.379929 
L 736.560449 48.058713 
L 737.393588 48.447497 
L 738.226728 48.113737 
L 739.059867 48.094242 
L 739.893007 47.708464 
L 740.726147 47.593576 
L 741.559286 47.353971 
L 749.057543 46.341777 
L 751.556962 46.189491 
L 752.390102 46.041956 
L 754.056381 45.2308 
L 755.722661 45.150504 
L 758.22208 44.521066 
L 759.055219 44.32332 
L 759.888359 43.914881 
L 761.554638 43.667285 
L 762.387778 43.784909 
L 764.054057 43.57926 
L 764.887197 43.934166 
L 767.386616 43.993326 
L 768.219755 43.887114 
L 769.886035 43.937388 
L 770.719174 43.939274 
L 771.552314 43.56149 
L 772.385454 43.34758 
L 774.051733 42.649024 
L 774.884873 42.385369 
L 775.718012 41.95403 
L 776.551152 42.093714 
L 777.384292 41.708534 
L 778.217431 41.822834 
L 779.050571 41.48396 
L 781.54999 41.300199 
L 782.383129 41.108076 
L 783.216269 41.400781 
L 784.882548 41.302088 
L 787.381967 40.703425 
L 789.881386 39.584474 
L 790.714526 38.985598 
L 791.547666 38.59532 
L 792.380805 38.513043 
L 793.213945 38.225555 
L 796.546504 38.166738 
L 797.379643 38.330122 
L 798.212783 38.127492 
L 799.045923 38.647017 
L 799.879062 38.13852 
L 800.712202 37.993599 
L 801.545341 37.414532 
L 802.378481 37.150059 
L 803.211621 36.506342 
L 804.04476 36.396555 
L 804.8779 35.976254 
L 806.544179 35.281687 
L 807.377319 34.846349 
L 808.210459 34.815203 
L 809.043598 34.504959 
L 809.876738 34.485139 
L 810.709878 34.157026 
L 811.543017 34.222491 
L 812.376157 33.910851 
L 813.209297 34.223356 
L 814.042436 33.833679 
L 814.875576 34.176542 
L 815.708716 33.968643 
L 816.541855 34.266757 
L 817.374995 33.936168 
L 818.208135 34.232379 
L 819.041274 34.187098 
L 819.874414 34.345738 
L 820.707554 34.357746 
L 821.540693 33.960589 
L 822.373833 34.395025 
L 823.206972 33.881028 
L 824.040112 34.104069 
L 824.873252 33.530128 
L 825.706391 33.791096 
L 826.539531 33.231853 
L 827.372671 33.42822 
L 828.20581 33.025553 
L 829.03895 33.001863 
L 830.705229 32.508072 
L 833.204648 32.148597 
L 835.704067 32.141795 
L 836.537207 32.078825 
L 838.203486 32.209895 
L 839.036626 31.900956 
L 839.869766 31.857596 
L 840.702905 31.282986 
L 841.536045 31.205633 
L 842.369185 30.540192 
L 843.202324 30.39258 
L 844.035464 29.817719 
L 844.868603 29.632314 
L 845.701743 29.23515 
L 846.534883 28.977611 
L 847.368022 29.013204 
L 848.201162 28.75993 
L 849.034302 28.925819 
L 849.867441 28.785107 
L 850.700581 28.965915 
L 851.533721 28.916838 
L 852.36686 28.678182 
L 852.36686 28.678182 
" clip-path="url(#pb5ef188e33)" style="fill: none; stroke-dasharray: 7.4,3.2; stroke-dashoffset: 0; stroke: #000000; stroke-width: 2"/>
   </g>
   <g id="patch_3">
    <path d="M 35.89 404.12 
L 35.89 10.8 
" style="fill: none; stroke: #000000; stroke-width: 0.8; stroke-linejoin: miter; stroke-linecap: square"/>
   </g>
   <g id="patch_4">
    <path d="M 853.2 404.12 
L 853.2 10.8 
" style="fill: none; stroke: #000000; stroke-width: 0.8; stroke-linejoin: miter; stroke-linecap: square"/>
   </g>
   <g id="patch_5">
    <path d="M 35.89 404.12 
L 853.2 404.12 
" style="fill: none; stroke: #000000; stroke-width: 0.8; stroke-linejoin: miter; stroke-linecap: square"/>
   </g>
   <g id="patch_6">
    <path d="M 35.89 10.8 
L 853.2 10.8 
" style="fill: none; stroke: #000000; stroke-width: 0.8; stroke-linejoin: miter; stroke-linecap: square"/>
   </g>
  </g>
 </g>
 <defs>
  <clipPath id="pb5ef188e33">
   <rect x="35.89" y="10.8" width="817.31" height="393.32"/>
  </clipPath>
 </defs>
</svg>
