<?xml version="1.0" encoding="utf-8" standalone="no"?>
<!DOCTYPE svg PUBLIC "-//W3C//DTD SVG 1.1//EN"
  "http://www.w3.org/Graphics/SVG/1.1/DTD/svg11.dtd">
<svg xmlns:xlink="http://www.w3.org/1999/xlink" width="864pt" height="432pt" viewBox="0 0 864 432" xmlns="http://www.w3.org/2000/svg" version="1.1">
 <metadata>
  <rdf:RDF xmlns:dc="http://purl.org/dc/elements/1.1/" xmlns:cc="http://creativecommons.org/ns#" xmlns:rdf="http://www.w3.org/1999/02/22-rdf-syntax-ns#">
   <cc:Work>
    <dc:type rdf:resource="http://purl.org/dc/dcmitype/StillImage"/>
    <dc:date>2024-09-24T22:15:37.698070</dc:date>
    <dc:format>image/svg+xml</dc:format>
    <dc:creator>
     <cc:Agent>
      <dc:title>Matplotlib v3.9.2, https://matplotlib.org/</dc:title>
     </cc:Agent>
    </dc:creator>
   </cc:Work>
  </rdf:RDF>
 </metadata>
 <defs>
  <style type="text/css">*{stroke-linejoin: round; stroke-linecap: butt}</style>
 </defs>
 <g id="figure_1">
  <g id="patch_1">
   <path d="M 0 432 
L 864 432 
L 864 0 
L 0 0 
z
" style="fill: #ffffff"/>
  </g>
  <g id="axes_1">
   <g id="patch_2">
    <path d="M 35.89 404.12 
L 853.2 404.12 
L 853.2 10.8 
L 35.89 10.8 
z
" style="fill: #ffffff"/>
   </g>
   <g id="matplotlib.axis_1">
    <g id="xtick_1">
     <g id="line2d_1">
      <defs>
       <path id="m178ee565f5" d="M 0 0 
L 0 3.5 
" style="stroke: #000000; stroke-width: 0.8"/>
      </defs>
      <g>
       <use xlink:href="#m178ee565f5" x="194.186534" y="404.12" style="stroke: #000000; stroke-width: 0.8"/>
      </g>
     </g>
     <g id="text_1">
      <!-- 200 -->
      <g transform="translate(185.156065 418.771563) scale(0.1 -0.1)">
       <defs>
        <path id="DejaVuSansMono-32" d="M 1166 531 
L 3309 531 
L 3309 0 
L 475 0 
L 475 531 
Q 1059 1147 1496 1619 
Q 1934 2091 2100 2284 
Q 2413 2666 2522 2902 
Q 2631 3138 2631 3384 
Q 2631 3775 2401 3997 
Q 2172 4219 1772 4219 
Q 1488 4219 1175 4116 
Q 863 4013 513 3803 
L 513 4441 
Q 834 4594 1145 4672 
Q 1456 4750 1759 4750 
Q 2444 4750 2861 4386 
Q 3278 4022 3278 3431 
Q 3278 3131 3139 2831 
Q 3000 2531 2688 2169 
Q 2513 1966 2180 1606 
Q 1847 1247 1166 531 
z
" transform="scale(0.015625)"/>
        <path id="DejaVuSansMono-30" d="M 1509 2344 
Q 1509 2516 1629 2641 
Q 1750 2766 1919 2766 
Q 2094 2766 2219 2641 
Q 2344 2516 2344 2344 
Q 2344 2169 2220 2047 
Q 2097 1925 1919 1925 
Q 1744 1925 1626 2044 
Q 1509 2163 1509 2344 
z
M 1925 4250 
Q 1484 4250 1267 3775 
Q 1050 3300 1050 2328 
Q 1050 1359 1267 884 
Q 1484 409 1925 409 
Q 2369 409 2586 884 
Q 2803 1359 2803 2328 
Q 2803 3300 2586 3775 
Q 2369 4250 1925 4250 
z
M 1925 4750 
Q 2672 4750 3055 4137 
Q 3438 3525 3438 2328 
Q 3438 1134 3055 521 
Q 2672 -91 1925 -91 
Q 1178 -91 797 521 
Q 416 1134 416 2328 
Q 416 3525 797 4137 
Q 1178 4750 1925 4750 
z
" transform="scale(0.015625)"/>
       </defs>
       <use xlink:href="#DejaVuSansMono-32"/>
       <use xlink:href="#DejaVuSansMono-30" x="60.205078"/>
       <use xlink:href="#DejaVuSansMono-30" x="120.410156"/>
      </g>
     </g>
    </g>
    <g id="xtick_2">
     <g id="line2d_2">
      <g>
       <use xlink:href="#m178ee565f5" x="360.814465" y="404.12" style="stroke: #000000; stroke-width: 0.8"/>
      </g>
     </g>
     <g id="text_2">
      <!-- 400 -->
      <g transform="translate(351.783996 418.771563) scale(0.1 -0.1)">
       <defs>
        <path id="DejaVuSansMono-34" d="M 2297 4091 
L 825 1625 
L 2297 1625 
L 2297 4091 
z
M 2194 4666 
L 2925 4666 
L 2925 1625 
L 3547 1625 
L 3547 1113 
L 2925 1113 
L 2925 0 
L 2297 0 
L 2297 1113 
L 319 1113 
L 319 1709 
L 2194 4666 
z
" transform="scale(0.015625)"/>
       </defs>
       <use xlink:href="#DejaVuSansMono-34"/>
       <use xlink:href="#DejaVuSansMono-30" x="60.205078"/>
       <use xlink:href="#DejaVuSansMono-30" x="120.410156"/>
      </g>
     </g>
    </g>
    <g id="xtick_3">
     <g id="line2d_3">
      <g>
       <use xlink:href="#m178ee565f5" x="527.442396" y="404.12" style="stroke: #000000; stroke-width: 0.8"/>
      </g>
     </g>
     <g id="text_3">
      <!-- 600 -->
      <g transform="translate(518.411927 418.771563) scale(0.1 -0.1)">
       <defs>
        <path id="DejaVuSansMono-36" d="M 3097 4563 
L 3097 3981 
Q 2900 4097 2678 4158 
Q 2456 4219 2216 4219 
Q 1616 4219 1306 3767 
Q 997 3316 997 2438 
Q 1147 2750 1412 2917 
Q 1678 3084 2022 3084 
Q 2697 3084 3067 2670 
Q 3438 2256 3438 1497 
Q 3438 741 3056 325 
Q 2675 -91 1984 -91 
Q 1172 -91 794 492 
Q 416 1075 416 2328 
Q 416 3509 870 4129 
Q 1325 4750 2188 4750 
Q 2419 4750 2650 4701 
Q 2881 4653 3097 4563 
z
M 1972 2591 
Q 1569 2591 1337 2300 
Q 1106 2009 1106 1497 
Q 1106 984 1337 693 
Q 1569 403 1972 403 
Q 2391 403 2603 679 
Q 2816 956 2816 1497 
Q 2816 2041 2603 2316 
Q 2391 2591 1972 2591 
z
" transform="scale(0.015625)"/>
       </defs>
       <use xlink:href="#DejaVuSansMono-36"/>
       <use xlink:href="#DejaVuSansMono-30" x="60.205078"/>
       <use xlink:href="#DejaVuSansMono-30" x="120.410156"/>
      </g>
     </g>
    </g>
    <g id="xtick_4">
     <g id="line2d_4">
      <g>
       <use xlink:href="#m178ee565f5" x="694.070326" y="404.12" style="stroke: #000000; stroke-width: 0.8"/>
      </g>
     </g>
     <g id="text_4">
      <!-- 800 -->
      <g transform="translate(685.039857 418.771563) scale(0.1 -0.1)">
       <defs>
        <path id="DejaVuSansMono-38" d="M 1925 2216 
Q 1503 2216 1273 1980 
Q 1044 1744 1044 1313 
Q 1044 881 1276 642 
Q 1509 403 1925 403 
Q 2350 403 2579 639 
Q 2809 875 2809 1313 
Q 2809 1741 2576 1978 
Q 2344 2216 1925 2216 
z
M 1375 2478 
Q 972 2581 745 2862 
Q 519 3144 519 3541 
Q 519 4097 897 4423 
Q 1275 4750 1925 4750 
Q 2578 4750 2956 4423 
Q 3334 4097 3334 3541 
Q 3334 3144 3107 2862 
Q 2881 2581 2478 2478 
Q 2947 2375 3195 2062 
Q 3444 1750 3444 1253 
Q 3444 622 3041 265 
Q 2638 -91 1925 -91 
Q 1213 -91 811 264 
Q 409 619 409 1247 
Q 409 1747 657 2061 
Q 906 2375 1375 2478 
z
M 1147 3481 
Q 1147 3106 1347 2909 
Q 1547 2713 1925 2713 
Q 2306 2713 2506 2909 
Q 2706 3106 2706 3481 
Q 2706 3863 2507 4063 
Q 2309 4263 1925 4263 
Q 1547 4263 1347 4061 
Q 1147 3859 1147 3481 
z
" transform="scale(0.015625)"/>
       </defs>
       <use xlink:href="#DejaVuSansMono-38"/>
       <use xlink:href="#DejaVuSansMono-30" x="60.205078"/>
       <use xlink:href="#DejaVuSansMono-30" x="120.410156"/>
      </g>
     </g>
    </g>
   </g>
   <g id="matplotlib.axis_2">
    <g id="ytick_1">
     <g id="line2d_5">
      <defs>
       <path id="m45d5a551ef" d="M 0 0 
L -3.5 0 
" style="stroke: #000000; stroke-width: 0.8"/>
      </defs>
      <g>
       <use xlink:href="#m45d5a551ef" x="35.89" y="389.7465" style="stroke: #000000; stroke-width: 0.8"/>
      </g>
     </g>
     <g id="text_5">
      <!-- 0.0 -->
      <g transform="translate(10.829063 393.572281) scale(0.1 -0.1)">
       <defs>
        <path id="DejaVuSansMono-2e" d="M 1528 953 
L 2316 953 
L 2316 0 
L 1528 0 
L 1528 953 
z
" transform="scale(0.015625)"/>
       </defs>
       <use xlink:href="#DejaVuSansMono-30"/>
       <use xlink:href="#DejaVuSansMono-2e" x="60.205078"/>
       <use xlink:href="#DejaVuSansMono-30" x="120.410156"/>
      </g>
     </g>
    </g>
    <g id="ytick_2">
     <g id="line2d_6">
      <g>
       <use xlink:href="#m45d5a551ef" x="35.89" y="317.532836" style="stroke: #000000; stroke-width: 0.8"/>
      </g>
     </g>
     <g id="text_6">
      <!-- 0.2 -->
      <g transform="translate(10.829063 321.358618) scale(0.1 -0.1)">
       <use xlink:href="#DejaVuSansMono-30"/>
       <use xlink:href="#DejaVuSansMono-2e" x="60.205078"/>
       <use xlink:href="#DejaVuSansMono-32" x="120.410156"/>
      </g>
     </g>
    </g>
    <g id="ytick_3">
     <g id="line2d_7">
      <g>
       <use xlink:href="#m45d5a551ef" x="35.89" y="245.319173" style="stroke: #000000; stroke-width: 0.8"/>
      </g>
     </g>
     <g id="text_7">
      <!-- 0.4 -->
      <g transform="translate(10.829063 249.144954) scale(0.1 -0.1)">
       <use xlink:href="#DejaVuSansMono-30"/>
       <use xlink:href="#DejaVuSansMono-2e" x="60.205078"/>
       <use xlink:href="#DejaVuSansMono-34" x="120.410156"/>
      </g>
     </g>
    </g>
    <g id="ytick_4">
     <g id="line2d_8">
      <g>
       <use xlink:href="#m45d5a551ef" x="35.89" y="173.105509" style="stroke: #000000; stroke-width: 0.8"/>
      </g>
     </g>
     <g id="text_8">
      <!-- 0.6 -->
      <g transform="translate(10.829063 176.93129) scale(0.1 -0.1)">
       <use xlink:href="#DejaVuSansMono-30"/>
       <use xlink:href="#DejaVuSansMono-2e" x="60.205078"/>
       <use xlink:href="#DejaVuSansMono-36" x="120.410156"/>
      </g>
     </g>
    </g>
    <g id="ytick_5">
     <g id="line2d_9">
      <g>
       <use xlink:href="#m45d5a551ef" x="35.89" y="100.891845" style="stroke: #000000; stroke-width: 0.8"/>
      </g>
     </g>
     <g id="text_9">
      <!-- 0.8 -->
      <g transform="translate(10.829063 104.717627) scale(0.1 -0.1)">
       <use xlink:href="#DejaVuSansMono-30"/>
       <use xlink:href="#DejaVuSansMono-2e" x="60.205078"/>
       <use xlink:href="#DejaVuSansMono-38" x="120.410156"/>
      </g>
     </g>
    </g>
    <g id="ytick_6">
     <g id="line2d_10">
      <g>
       <use xlink:href="#m45d5a551ef" x="35.89" y="28.678182" style="stroke: #000000; stroke-width: 0.8"/>
      </g>
     </g>
     <g id="text_10">
      <!-- 1.0 -->
      <g transform="translate(10.829063 32.503963) scale(0.1 -0.1)">
       <defs>
        <path id="DejaVuSansMono-31" d="M 844 531 
L 1825 531 
L 1825 4097 
L 769 3859 
L 769 4434 
L 1819 4666 
L 2450 4666 
L 2450 531 
L 3419 531 
L 3419 0 
L 844 0 
L 844 531 
z
" transform="scale(0.015625)"/>
       </defs>
       <use xlink:href="#DejaVuSansMono-31"/>
       <use xlink:href="#DejaVuSansMono-2e" x="60.205078"/>
       <use xlink:href="#DejaVuSansMono-30" x="120.410156"/>
      </g>
     </g>
    </g>
   </g>
   <g id="line2d_11">
    <path d="M 27.558603 356.783375 
L 28.391743 356.856107 
L 29.224883 349.261221 
L 30.058022 342.794173 
L 30.891162 347.859845 
L 31.724302 355.37671 
L 32.557441 361.325661 
L 33.390581 361.325661 
L 34.223721 361.135875 
L 35.89 354.044315 
L 36.72314 354.111158 
L 37.556279 354.902643 
L 38.389419 359.6113 
L 39.222559 361.833672 
L 41.721978 361.833672 
L 42.555117 362.023458 
L 43.388257 365.506863 
L 44.221397 371.940927 
L 45.054536 377.353998 
L 45.887676 380.46393 
L 46.720815 379.246392 
L 47.553955 376.21608 
L 48.387095 374.660457 
L 50.053374 374.566673 
L 51.719653 374.566673 
L 52.552793 375.112368 
L 53.385933 377.184386 
L 55.052212 384.153422 
L 55.885352 386.241818 
L 56.718491 385.958668 
L 57.551631 384.665394 
L 58.384771 383.851974 
L 59.21791 383.297195 
L 62.550469 381.881485 
L 63.383609 382.138332 
L 64.216748 382.536639 
L 65.049888 383.312144 
L 65.883028 383.40195 
L 66.716167 382.76083 
L 67.549307 381.95789 
L 69.215586 379.722328 
L 70.881865 377.8142 
L 75.880703 372.906528 
L 76.713843 372.335584 
L 77.546983 371.451293 
L 79.213262 369.012186 
L 80.879541 366.139708 
L 82.545821 363.641705 
L 83.37896 362.606863 
L 85.04524 361.097165 
L 86.711519 359.852379 
L 88.377798 357.413836 
L 89.210938 355.903481 
L 90.877217 353.943099 
L 92.543496 352.186684 
L 94.209776 349.342621 
L 95.042915 347.792026 
L 95.876055 346.556117 
L 96.709195 345.83719 
L 98.375474 344.921162 
L 99.208614 344.360383 
L 100.041753 343.530926 
L 101.708033 341.281491 
L 102.541172 340.413864 
L 103.374312 339.835426 
L 104.207452 339.53299 
L 105.873731 337.876805 
L 106.706871 336.898705 
L 107.54001 336.194533 
L 108.37315 335.747495 
L 109.20629 335.628992 
L 110.039429 335.13631 
L 111.705708 333.186798 
L 112.538848 332.563401 
L 114.205127 331.90825 
L 115.038267 331.332581 
L 117.537686 328.691678 
L 118.370826 328.186898 
L 120.037105 327.754345 
L 120.870245 326.995789 
L 121.703384 326.904868 
L 122.536524 325.420214 
L 123.369664 327.676332 
L 124.202803 324.832989 
L 125.035943 326.24438 
L 125.869083 328.614249 
L 126.702222 326.915105 
L 127.535362 324.717284 
L 128.368502 325.633697 
L 129.201641 329.275675 
L 130.034781 330.169356 
L 130.86792 329.720148 
L 131.70106 325.137007 
L 132.5342 327.371753 
L 133.367339 326.747861 
L 134.200479 324.698539 
L 135.033619 325.409688 
L 135.866758 325.687993 
L 136.699898 323.426037 
L 137.533038 319.487617 
L 138.366177 317.283264 
L 139.199317 316.89379 
L 140.032457 316.052313 
L 140.865596 313.720141 
L 142.531876 307.350486 
L 144.198155 302.857335 
L 145.031295 299.609744 
L 146.697574 291.87969 
L 148.363853 285.951752 
L 149.196993 283.521564 
L 150.030133 279.393241 
L 150.863272 276.210895 
L 152.529551 267.64901 
L 153.362691 264.751488 
L 155.86211 250.517807 
L 156.69525 249.214114 
L 157.528389 245.059984 
L 158.361529 240.286469 
L 159.194669 234.422363 
L 161.694088 221.145676 
L 164.193507 213.26401 
L 165.026646 207.215157 
L 165.859786 203.096521 
L 166.692926 200.713962 
L 169.192345 195.84049 
L 170.858624 190.637086 
L 171.691764 187.310183 
L 173.358043 183.17356 
L 175.024322 179.801808 
L 175.857462 177.298875 
L 177.523741 173.3051 
L 178.356881 171.411334 
L 181.689439 162.442212 
L 183.355719 159.627422 
L 184.188858 159.744199 
L 185.855138 155.225282 
L 186.688277 155.166701 
L 187.521417 153.234605 
L 190.020836 150.624952 
L 191.687115 144.367454 
L 192.520255 140.528575 
L 194.186534 136.310489 
L 195.019674 132.465842 
L 195.852813 130.145234 
L 196.685953 127.408997 
L 197.519093 125.061844 
L 198.352232 121.939055 
L 199.185372 119.921659 
L 200.018512 118.61756 
L 201.684791 114.194307 
L 202.517931 112.446955 
L 203.35107 110.206524 
L 204.18421 109.212883 
L 205.01735 107.447089 
L 205.850489 104.630218 
L 206.683629 103.303732 
L 207.516769 101.722397 
L 210.016188 96.136159 
L 210.849327 95.345066 
L 211.682467 92.791391 
L 212.515607 91.416854 
L 213.348746 88.857167 
L 214.181886 89.786586 
L 215.015025 87.538171 
L 215.848165 89.190729 
L 216.681305 88.845559 
L 217.514444 92.262258 
L 218.347584 92.464466 
L 219.180724 92.080878 
L 220.013863 94.995654 
L 220.847003 95.519665 
L 221.680143 95.346648 
L 222.513282 93.074558 
L 223.346422 93.678402 
L 224.179562 90.653285 
L 225.012701 88.858106 
L 225.845841 84.580746 
L 226.678981 82.683112 
L 228.34526 75.963904 
L 229.1784 73.78007 
L 230.011539 72.360729 
L 230.844679 69.29226 
L 231.677819 66.867088 
L 232.510958 64.820916 
L 233.344098 62.431357 
L 234.177238 59.065384 
L 235.010377 57.191369 
L 235.843517 56.447697 
L 236.676656 54.031678 
L 237.509796 51.098475 
L 238.342936 49.785419 
L 239.176075 48.892227 
L 240.009215 47.383555 
L 240.842355 45.492401 
L 243.341774 41.965872 
L 244.174913 40.508317 
L 245.008053 39.785617 
L 246.674332 37.948882 
L 250.006891 34.768646 
L 251.67317 34.100471 
L 253.33945 32.777775 
L 254.172589 32.496691 
L 255.005729 31.962706 
L 255.838869 31.659323 
L 256.672008 31.565738 
L 257.505148 31.822109 
L 258.338287 31.729832 
L 259.171427 32.006794 
L 260.004567 31.960766 
L 260.837706 32.174288 
L 261.670846 32.572067 
L 264.170265 32.971495 
L 265.003405 33.158729 
L 265.836544 32.879237 
L 266.669684 32.948119 
L 267.502824 32.554476 
L 270.002243 32.015383 
L 270.835382 32.547279 
L 271.668522 32.710635 
L 273.334801 32.265728 
L 274.167941 32.241837 
L 277.500499 31.769885 
L 278.333639 31.415889 
L 279.166779 30.62389 
L 279.999918 30.129252 
L 282.499337 29.653973 
L 284.165617 29.32116 
L 285.831896 29.083429 
L 289.164455 29.154772 
L 290.830734 29.083369 
L 294.163293 29.035645 
L 296.662712 28.773642 
L 303.327829 28.678182 
L 852.36686 28.678182 
L 852.36686 28.678182 
" clip-path="url(#pb492e123c2)" style="fill: none; stroke-dasharray: 7.4,3.2; stroke-dashoffset: 0; stroke: #000000; stroke-width: 2"/>
   </g>
   <g id="patch_3">
    <path d="M 35.89 404.12 
L 35.89 10.8 
" style="fill: none; stroke: #000000; stroke-width: 0.8; stroke-linejoin: miter; stroke-linecap: square"/>
   </g>
   <g id="patch_4">
    <path d="M 853.2 404.12 
L 853.2 10.8 
" style="fill: none; stroke: #000000; stroke-width: 0.8; stroke-linejoin: miter; stroke-linecap: square"/>
   </g>
   <g id="patch_5">
    <path d="M 35.89 404.12 
L 853.2 404.12 
" style="fill: none; stroke: #000000; stroke-width: 0.8; stroke-linejoin: miter; stroke-linecap: square"/>
   </g>
   <g id="patch_6">
    <path d="M 35.89 10.8 
L 853.2 10.8 
" style="fill: none; stroke: #000000; stroke-width: 0.8; stroke-linejoin: miter; stroke-linecap: square"/>
   </g>
  </g>
 </g>
 <defs>
  <clipPath id="pb492e123c2">
   <rect x="35.89" y="10.8" width="817.31" height="393.32"/>
  </clipPath>
 </defs>
</svg>
