<?xml version="1.0" encoding="utf-8" standalone="no"?>
<!DOCTYPE svg PUBLIC "-//W3C//DTD SVG 1.1//EN"
  "http://www.w3.org/Graphics/SVG/1.1/DTD/svg11.dtd">
<svg xmlns:xlink="http://www.w3.org/1999/xlink" width="864pt" height="432pt" viewBox="0 0 864 432" xmlns="http://www.w3.org/2000/svg" version="1.1">
 <metadata>
  <rdf:RDF xmlns:dc="http://purl.org/dc/elements/1.1/" xmlns:cc="http://creativecommons.org/ns#" xmlns:rdf="http://www.w3.org/1999/02/22-rdf-syntax-ns#">
   <cc:Work>
    <dc:type rdf:resource="http://purl.org/dc/dcmitype/StillImage"/>
    <dc:date>2024-09-18T11:30:43.784833</dc:date>
    <dc:format>image/svg+xml</dc:format>
    <dc:creator>
     <cc:Agent>
      <dc:title>Matplotlib v3.9.2, https://matplotlib.org/</dc:title>
     </cc:Agent>
    </dc:creator>
   </cc:Work>
  </rdf:RDF>
 </metadata>
 <defs>
  <style type="text/css">*{stroke-linejoin: round; stroke-linecap: butt}</style>
 </defs>
 <g id="figure_1">
  <g id="patch_1">
   <path d="M 0 432 
L 864 432 
L 864 0 
L 0 0 
z
" style="fill: #ffffff"/>
  </g>
  <g id="axes_1">
   <g id="patch_2">
    <path d="M 35.89 404.12 
L 853.2 404.12 
L 853.2 10.8 
L 35.89 10.8 
z
" style="fill: #ffffff"/>
   </g>
   <g id="matplotlib.axis_1">
    <g id="xtick_1">
     <g id="line2d_1">
      <defs>
       <path id="mcf3be8b5d1" d="M 0 0 
L 0 3.5 
" style="stroke: #000000; stroke-width: 0.8"/>
      </defs>
      <g>
       <use xlink:href="#mcf3be8b5d1" x="188.817027" y="404.12" style="stroke: #000000; stroke-width: 0.8"/>
      </g>
     </g>
     <g id="text_1">
      <!-- 100 -->
      <g transform="translate(179.786558 418.771563) scale(0.1 -0.1)">
       <defs>
        <path id="DejaVuSansMono-31" d="M 844 531 
L 1825 531 
L 1825 4097 
L 769 3859 
L 769 4434 
L 1819 4666 
L 2450 4666 
L 2450 531 
L 3419 531 
L 3419 0 
L 844 0 
L 844 531 
z
" transform="scale(0.015625)"/>
        <path id="DejaVuSansMono-30" d="M 1509 2344 
Q 1509 2516 1629 2641 
Q 1750 2766 1919 2766 
Q 2094 2766 2219 2641 
Q 2344 2516 2344 2344 
Q 2344 2169 2220 2047 
Q 2097 1925 1919 1925 
Q 1744 1925 1626 2044 
Q 1509 2163 1509 2344 
z
M 1925 4250 
Q 1484 4250 1267 3775 
Q 1050 3300 1050 2328 
Q 1050 1359 1267 884 
Q 1484 409 1925 409 
Q 2369 409 2586 884 
Q 2803 1359 2803 2328 
Q 2803 3300 2586 3775 
Q 2369 4250 1925 4250 
z
M 1925 4750 
Q 2672 4750 3055 4137 
Q 3438 3525 3438 2328 
Q 3438 1134 3055 521 
Q 2672 -91 1925 -91 
Q 1178 -91 797 521 
Q 416 1134 416 2328 
Q 416 3525 797 4137 
Q 1178 4750 1925 4750 
z
" transform="scale(0.015625)"/>
       </defs>
       <use xlink:href="#DejaVuSansMono-31"/>
       <use xlink:href="#DejaVuSansMono-30" x="60.205078"/>
       <use xlink:href="#DejaVuSansMono-30" x="120.410156"/>
      </g>
     </g>
    </g>
    <g id="xtick_2">
     <g id="line2d_2">
      <g>
       <use xlink:href="#mcf3be8b5d1" x="358.735946" y="404.12" style="stroke: #000000; stroke-width: 0.8"/>
      </g>
     </g>
     <g id="text_2">
      <!-- 200 -->
      <g transform="translate(349.705477 418.771563) scale(0.1 -0.1)">
       <defs>
        <path id="DejaVuSansMono-32" d="M 1166 531 
L 3309 531 
L 3309 0 
L 475 0 
L 475 531 
Q 1059 1147 1496 1619 
Q 1934 2091 2100 2284 
Q 2413 2666 2522 2902 
Q 2631 3138 2631 3384 
Q 2631 3775 2401 3997 
Q 2172 4219 1772 4219 
Q 1488 4219 1175 4116 
Q 863 4013 513 3803 
L 513 4441 
Q 834 4594 1145 4672 
Q 1456 4750 1759 4750 
Q 2444 4750 2861 4386 
Q 3278 4022 3278 3431 
Q 3278 3131 3139 2831 
Q 3000 2531 2688 2169 
Q 2513 1966 2180 1606 
Q 1847 1247 1166 531 
z
" transform="scale(0.015625)"/>
       </defs>
       <use xlink:href="#DejaVuSansMono-32"/>
       <use xlink:href="#DejaVuSansMono-30" x="60.205078"/>
       <use xlink:href="#DejaVuSansMono-30" x="120.410156"/>
      </g>
     </g>
    </g>
    <g id="xtick_3">
     <g id="line2d_3">
      <g>
       <use xlink:href="#mcf3be8b5d1" x="528.654865" y="404.12" style="stroke: #000000; stroke-width: 0.8"/>
      </g>
     </g>
     <g id="text_3">
      <!-- 300 -->
      <g transform="translate(519.624396 418.771563) scale(0.1 -0.1)">
       <defs>
        <path id="DejaVuSansMono-33" d="M 2425 2497 
Q 2884 2375 3128 2064 
Q 3372 1753 3372 1288 
Q 3372 644 2939 276 
Q 2506 -91 1741 -91 
Q 1419 -91 1084 -31 
Q 750 28 428 141 
L 428 769 
Q 747 603 1056 522 
Q 1366 441 1672 441 
Q 2191 441 2469 675 
Q 2747 909 2747 1350 
Q 2747 1756 2469 1995 
Q 2191 2234 1716 2234 
L 1234 2234 
L 1234 2753 
L 1716 2753 
Q 2150 2753 2394 2943 
Q 2638 3134 2638 3475 
Q 2638 3834 2411 4026 
Q 2184 4219 1766 4219 
Q 1488 4219 1191 4156 
Q 894 4094 569 3969 
L 569 4550 
Q 947 4650 1242 4700 
Q 1538 4750 1766 4750 
Q 2447 4750 2855 4408 
Q 3263 4066 3263 3500 
Q 3263 3116 3048 2859 
Q 2834 2603 2425 2497 
z
" transform="scale(0.015625)"/>
       </defs>
       <use xlink:href="#DejaVuSansMono-33"/>
       <use xlink:href="#DejaVuSansMono-30" x="60.205078"/>
       <use xlink:href="#DejaVuSansMono-30" x="120.410156"/>
      </g>
     </g>
    </g>
    <g id="xtick_4">
     <g id="line2d_4">
      <g>
       <use xlink:href="#mcf3be8b5d1" x="698.573784" y="404.12" style="stroke: #000000; stroke-width: 0.8"/>
      </g>
     </g>
     <g id="text_4">
      <!-- 400 -->
      <g transform="translate(689.543315 418.771563) scale(0.1 -0.1)">
       <defs>
        <path id="DejaVuSansMono-34" d="M 2297 4091 
L 825 1625 
L 2297 1625 
L 2297 4091 
z
M 2194 4666 
L 2925 4666 
L 2925 1625 
L 3547 1625 
L 3547 1113 
L 2925 1113 
L 2925 0 
L 2297 0 
L 2297 1113 
L 319 1113 
L 319 1709 
L 2194 4666 
z
" transform="scale(0.015625)"/>
       </defs>
       <use xlink:href="#DejaVuSansMono-34"/>
       <use xlink:href="#DejaVuSansMono-30" x="60.205078"/>
       <use xlink:href="#DejaVuSansMono-30" x="120.410156"/>
      </g>
     </g>
    </g>
   </g>
   <g id="matplotlib.axis_2">
    <g id="ytick_1">
     <g id="line2d_5">
      <defs>
       <path id="m79d3455f2e" d="M 0 0 
L -3.5 0 
" style="stroke: #000000; stroke-width: 0.8"/>
      </defs>
      <g>
       <use xlink:href="#m79d3455f2e" x="35.89" y="386.241818" style="stroke: #000000; stroke-width: 0.8"/>
      </g>
     </g>
     <g id="text_5">
      <!-- 0.0 -->
      <g transform="translate(10.829063 390.067599) scale(0.1 -0.1)">
       <defs>
        <path id="DejaVuSansMono-2e" d="M 1528 953 
L 2316 953 
L 2316 0 
L 1528 0 
L 1528 953 
z
" transform="scale(0.015625)"/>
       </defs>
       <use xlink:href="#DejaVuSansMono-30"/>
       <use xlink:href="#DejaVuSansMono-2e" x="60.205078"/>
       <use xlink:href="#DejaVuSansMono-30" x="120.410156"/>
      </g>
     </g>
    </g>
    <g id="ytick_2">
     <g id="line2d_6">
      <g>
       <use xlink:href="#m79d3455f2e" x="35.89" y="322.005732" style="stroke: #000000; stroke-width: 0.8"/>
      </g>
     </g>
     <g id="text_6">
      <!-- 0.1 -->
      <g transform="translate(10.829063 325.831513) scale(0.1 -0.1)">
       <use xlink:href="#DejaVuSansMono-30"/>
       <use xlink:href="#DejaVuSansMono-2e" x="60.205078"/>
       <use xlink:href="#DejaVuSansMono-31" x="120.410156"/>
      </g>
     </g>
    </g>
    <g id="ytick_3">
     <g id="line2d_7">
      <g>
       <use xlink:href="#m79d3455f2e" x="35.89" y="257.769645" style="stroke: #000000; stroke-width: 0.8"/>
      </g>
     </g>
     <g id="text_7">
      <!-- 0.2 -->
      <g transform="translate(10.829063 261.595426) scale(0.1 -0.1)">
       <use xlink:href="#DejaVuSansMono-30"/>
       <use xlink:href="#DejaVuSansMono-2e" x="60.205078"/>
       <use xlink:href="#DejaVuSansMono-32" x="120.410156"/>
      </g>
     </g>
    </g>
    <g id="ytick_4">
     <g id="line2d_8">
      <g>
       <use xlink:href="#m79d3455f2e" x="35.89" y="193.533559" style="stroke: #000000; stroke-width: 0.8"/>
      </g>
     </g>
     <g id="text_8">
      <!-- 0.3 -->
      <g transform="translate(10.829063 197.35934) scale(0.1 -0.1)">
       <use xlink:href="#DejaVuSansMono-30"/>
       <use xlink:href="#DejaVuSansMono-2e" x="60.205078"/>
       <use xlink:href="#DejaVuSansMono-33" x="120.410156"/>
      </g>
     </g>
    </g>
    <g id="ytick_5">
     <g id="line2d_9">
      <g>
       <use xlink:href="#m79d3455f2e" x="35.89" y="129.297472" style="stroke: #000000; stroke-width: 0.8"/>
      </g>
     </g>
     <g id="text_9">
      <!-- 0.4 -->
      <g transform="translate(10.829063 133.123254) scale(0.1 -0.1)">
       <use xlink:href="#DejaVuSansMono-30"/>
       <use xlink:href="#DejaVuSansMono-2e" x="60.205078"/>
       <use xlink:href="#DejaVuSansMono-34" x="120.410156"/>
      </g>
     </g>
    </g>
    <g id="ytick_6">
     <g id="line2d_10">
      <g>
       <use xlink:href="#m79d3455f2e" x="35.89" y="65.061386" style="stroke: #000000; stroke-width: 0.8"/>
      </g>
     </g>
     <g id="text_10">
      <!-- 0.5 -->
      <g transform="translate(10.829063 68.887167) scale(0.1 -0.1)">
       <defs>
        <path id="DejaVuSansMono-35" d="M 647 4666 
L 3009 4666 
L 3009 4134 
L 1222 4134 
L 1222 2988 
Q 1356 3038 1492 3061 
Q 1628 3084 1766 3084 
Q 2491 3084 2916 2656 
Q 3341 2228 3341 1497 
Q 3341 759 2895 334 
Q 2450 -91 1678 -91 
Q 1306 -91 998 -41 
Q 691 9 447 109 
L 447 750 
Q 734 594 1025 517 
Q 1316 441 1619 441 
Q 2141 441 2423 716 
Q 2706 991 2706 1497 
Q 2706 1997 2414 2275 
Q 2122 2553 1600 2553 
Q 1347 2553 1106 2495 
Q 866 2438 647 2322 
L 647 4666 
z
" transform="scale(0.015625)"/>
       </defs>
       <use xlink:href="#DejaVuSansMono-30"/>
       <use xlink:href="#DejaVuSansMono-2e" x="60.205078"/>
       <use xlink:href="#DejaVuSansMono-35" x="120.410156"/>
      </g>
     </g>
    </g>
   </g>
   <g id="line2d_11">
    <path d="M 18.898108 383.950029 
L 20.597297 384.719323 
L 29.093243 384.822763 
L 32.491622 385.932984 
L 35.89 386.241818 
L 392.71973 386.241818 
L 396.118108 385.725118 
L 399.516486 384.797231 
L 404.614054 383.149327 
L 408.012432 381.711588 
L 409.711622 380.792471 
L 416.508378 377.884684 
L 418.207568 376.993546 
L 423.305135 373.760789 
L 431.801081 366.854394 
L 438.597838 362.303628 
L 443.695405 358.768459 
L 447.093784 356.227499 
L 448.792973 354.472566 
L 450.492162 353.286591 
L 452.191351 351.102974 
L 453.890541 350.063029 
L 455.58973 346.164846 
L 457.288919 345.881539 
L 458.988108 340.437339 
L 460.687297 341.035249 
L 462.386486 335.117375 
L 464.085676 334.472826 
L 467.484054 326.701038 
L 469.183243 324.442186 
L 470.882432 317.742023 
L 472.581622 320.684318 
L 474.280811 306.053146 
L 475.98 314.501354 
L 477.679189 303.713908 
L 479.378378 294.75071 
L 481.077568 296.527102 
L 482.776757 303.854825 
L 484.475946 299.727469 
L 486.175135 289.741122 
L 489.573514 293.70618 
L 491.272703 307.540188 
L 492.971892 293.568054 
L 494.671081 293.076222 
L 496.37027 302.139708 
L 498.069459 294.970209 
L 499.768649 283.613376 
L 501.467838 283.268341 
L 503.167027 281.134616 
L 504.866216 269.395584 
L 506.565405 260.550218 
L 508.264595 247.50861 
L 509.963784 241.112476 
L 511.662973 237.201085 
L 513.362162 227.685208 
L 515.061351 216.555767 
L 516.760541 212.636673 
L 518.45973 206.538587 
L 520.158919 204.445123 
L 521.858108 205.792287 
L 523.557297 197.538166 
L 525.256486 195.047467 
L 526.955676 194.075609 
L 528.654865 191.872009 
L 532.053243 195.173893 
L 533.752432 189.48843 
L 535.451622 187.704147 
L 537.150811 187.72021 
L 538.85 192.671673 
L 540.549189 201.619374 
L 542.248378 214.324686 
L 543.947568 222.883195 
L 545.646757 225.88353 
L 547.345946 225.726196 
L 549.045135 227.576805 
L 550.744324 231.641993 
L 552.443514 240.017771 
L 554.142703 260.560392 
L 555.841892 274.24872 
L 557.541081 283.607648 
L 559.24027 287.101318 
L 560.939459 293.560101 
L 564.337838 310.850845 
L 566.037027 318.85652 
L 567.736216 325.927341 
L 569.435405 324.700469 
L 571.134595 311.022227 
L 574.532973 279.19301 
L 576.232162 266.174512 
L 577.931351 257.814942 
L 579.630541 253.792734 
L 581.32973 253.407908 
L 583.028919 255.685853 
L 584.728108 261.884837 
L 586.427297 270.710093 
L 588.126486 281.765717 
L 593.224054 319.281882 
L 594.923243 328.52883 
L 596.622432 333.314447 
L 598.321622 333.371234 
L 600.020811 329.975945 
L 601.72 323.644012 
L 603.419189 317.916162 
L 605.118378 312.772088 
L 606.817568 309.331915 
L 608.516757 307.972063 
L 610.215946 308.046655 
L 611.915135 309.232129 
L 615.313514 314.751426 
L 617.012703 316.275838 
L 618.711892 316.338252 
L 620.411081 313.598519 
L 622.11027 308.849912 
L 623.809459 302.423625 
L 625.508649 295.050959 
L 627.207838 288.855376 
L 628.907027 283.825184 
L 630.606216 280.117812 
L 632.305405 278.689053 
L 634.004595 280.063134 
L 635.703784 282.747848 
L 639.102162 290.21504 
L 640.801351 292.564884 
L 642.500541 293.093861 
L 644.19973 291.125801 
L 645.898919 288.711474 
L 647.598108 286.102522 
L 649.297297 283.834014 
L 650.996486 282.118405 
L 652.695676 281.708749 
L 654.394865 281.983096 
L 656.094054 282.783618 
L 659.492432 286.418806 
L 661.191622 287.745168 
L 662.890811 287.656882 
L 664.59 286.089431 
L 666.289189 282.925064 
L 667.988378 278.658447 
L 673.085946 263.284743 
L 676.484324 253.685384 
L 683.281081 238.062333 
L 693.476216 216.648659 
L 695.175405 213.226823 
L 696.874595 210.252587 
L 698.573784 207.043413 
L 701.972162 199.570157 
L 703.671351 195.545615 
L 705.370541 191.185978 
L 707.06973 186.283528 
L 710.468108 175.534858 
L 715.565676 157.819859 
L 718.964054 144.681497 
L 722.362432 130.817004 
L 725.760811 116.122368 
L 730.858378 95.73157 
L 732.557568 90.012779 
L 735.955946 80.171658 
L 737.655135 75.596763 
L 739.354324 71.453531 
L 742.752703 64.357928 
L 744.451892 61.226785 
L 747.85027 56.143187 
L 749.549459 53.687334 
L 752.947838 49.424884 
L 754.647027 47.539227 
L 756.346216 45.871155 
L 758.045405 44.502293 
L 761.443784 42.427173 
L 764.842162 40.745735 
L 766.541351 39.98281 
L 771.638919 38.172706 
L 780.134865 35.986961 
L 781.834054 35.715398 
L 785.232432 35.408178 
L 788.630811 35.047178 
L 792.029189 34.910063 
L 809.021081 34.846053 
L 812.419459 34.617759 
L 819.216216 33.740795 
L 827.712162 32.348084 
L 832.80973 31.696048 
L 841.305676 30.55805 
L 851.500811 28.678182 
L 851.500811 28.678182 
" clip-path="url(#p783287333f)" style="fill: none; stroke-dasharray: 7.4,3.2; stroke-dashoffset: 0; stroke: #000000; stroke-width: 2"/>
   </g>
   <g id="patch_3">
    <path d="M 35.89 404.12 
L 35.89 10.8 
" style="fill: none; stroke: #000000; stroke-width: 0.8; stroke-linejoin: miter; stroke-linecap: square"/>
   </g>
   <g id="patch_4">
    <path d="M 853.2 404.12 
L 853.2 10.8 
" style="fill: none; stroke: #000000; stroke-width: 0.8; stroke-linejoin: miter; stroke-linecap: square"/>
   </g>
   <g id="patch_5">
    <path d="M 35.89 404.12 
L 853.2 404.12 
" style="fill: none; stroke: #000000; stroke-width: 0.8; stroke-linejoin: miter; stroke-linecap: square"/>
   </g>
   <g id="patch_6">
    <path d="M 35.89 10.8 
L 853.2 10.8 
" style="fill: none; stroke: #000000; stroke-width: 0.8; stroke-linejoin: miter; stroke-linecap: square"/>
   </g>
  </g>
 </g>
 <defs>
  <clipPath id="p783287333f">
   <rect x="35.89" y="10.8" width="817.31" height="393.32"/>
  </clipPath>
 </defs>
</svg>
