<?xml version="1.0" encoding="utf-8" standalone="no"?>
<!DOCTYPE svg PUBLIC "-//W3C//DTD SVG 1.1//EN"
  "http://www.w3.org/Graphics/SVG/1.1/DTD/svg11.dtd">
<svg xmlns:xlink="http://www.w3.org/1999/xlink" width="864pt" height="432pt" viewBox="0 0 864 432" xmlns="http://www.w3.org/2000/svg" version="1.1">
 <metadata>
  <rdf:RDF xmlns:dc="http://purl.org/dc/elements/1.1/" xmlns:cc="http://creativecommons.org/ns#" xmlns:rdf="http://www.w3.org/1999/02/22-rdf-syntax-ns#">
   <cc:Work>
    <dc:type rdf:resource="http://purl.org/dc/dcmitype/StillImage"/>
    <dc:date>2024-09-18T11:30:43.816914</dc:date>
    <dc:format>image/svg+xml</dc:format>
    <dc:creator>
     <cc:Agent>
      <dc:title>Matplotlib v3.9.2, https://matplotlib.org/</dc:title>
     </cc:Agent>
    </dc:creator>
   </cc:Work>
  </rdf:RDF>
 </metadata>
 <defs>
  <style type="text/css">*{stroke-linejoin: round; stroke-linecap: butt}</style>
 </defs>
 <g id="figure_1">
  <g id="patch_1">
   <path d="M 0 432 
L 864 432 
L 864 0 
L 0 0 
z
" style="fill: #ffffff"/>
  </g>
  <g id="axes_1">
   <g id="patch_2">
    <path d="M 41.92 404.12 
L 853.2 404.12 
L 853.2 10.8 
L 41.92 10.8 
z
" style="fill: #ffffff"/>
   </g>
   <g id="matplotlib.axis_1">
    <g id="xtick_1">
     <g id="line2d_1">
      <defs>
       <path id="mc11625df60" d="M 0 0 
L 0 3.5 
" style="stroke: #000000; stroke-width: 0.8"/>
      </defs>
      <g>
       <use xlink:href="#mc11625df60" x="193.718753" y="404.12" style="stroke: #000000; stroke-width: 0.8"/>
      </g>
     </g>
     <g id="text_1">
      <!-- 100 -->
      <g transform="translate(184.688284 418.771563) scale(0.1 -0.1)">
       <defs>
        <path id="DejaVuSansMono-31" d="M 844 531 
L 1825 531 
L 1825 4097 
L 769 3859 
L 769 4434 
L 1819 4666 
L 2450 4666 
L 2450 531 
L 3419 531 
L 3419 0 
L 844 0 
L 844 531 
z
" transform="scale(0.015625)"/>
        <path id="DejaVuSansMono-30" d="M 1509 2344 
Q 1509 2516 1629 2641 
Q 1750 2766 1919 2766 
Q 2094 2766 2219 2641 
Q 2344 2516 2344 2344 
Q 2344 2169 2220 2047 
Q 2097 1925 1919 1925 
Q 1744 1925 1626 2044 
Q 1509 2163 1509 2344 
z
M 1925 4250 
Q 1484 4250 1267 3775 
Q 1050 3300 1050 2328 
Q 1050 1359 1267 884 
Q 1484 409 1925 409 
Q 2369 409 2586 884 
Q 2803 1359 2803 2328 
Q 2803 3300 2586 3775 
Q 2369 4250 1925 4250 
z
M 1925 4750 
Q 2672 4750 3055 4137 
Q 3438 3525 3438 2328 
Q 3438 1134 3055 521 
Q 2672 -91 1925 -91 
Q 1178 -91 797 521 
Q 416 1134 416 2328 
Q 416 3525 797 4137 
Q 1178 4750 1925 4750 
z
" transform="scale(0.015625)"/>
       </defs>
       <use xlink:href="#DejaVuSansMono-31"/>
       <use xlink:href="#DejaVuSansMono-30" x="60.205078"/>
       <use xlink:href="#DejaVuSansMono-30" x="120.410156"/>
      </g>
     </g>
    </g>
    <g id="xtick_2">
     <g id="line2d_2">
      <g>
       <use xlink:href="#mc11625df60" x="362.384033" y="404.12" style="stroke: #000000; stroke-width: 0.8"/>
      </g>
     </g>
     <g id="text_2">
      <!-- 200 -->
      <g transform="translate(353.353565 418.771563) scale(0.1 -0.1)">
       <defs>
        <path id="DejaVuSansMono-32" d="M 1166 531 
L 3309 531 
L 3309 0 
L 475 0 
L 475 531 
Q 1059 1147 1496 1619 
Q 1934 2091 2100 2284 
Q 2413 2666 2522 2902 
Q 2631 3138 2631 3384 
Q 2631 3775 2401 3997 
Q 2172 4219 1772 4219 
Q 1488 4219 1175 4116 
Q 863 4013 513 3803 
L 513 4441 
Q 834 4594 1145 4672 
Q 1456 4750 1759 4750 
Q 2444 4750 2861 4386 
Q 3278 4022 3278 3431 
Q 3278 3131 3139 2831 
Q 3000 2531 2688 2169 
Q 2513 1966 2180 1606 
Q 1847 1247 1166 531 
z
" transform="scale(0.015625)"/>
       </defs>
       <use xlink:href="#DejaVuSansMono-32"/>
       <use xlink:href="#DejaVuSansMono-30" x="60.205078"/>
       <use xlink:href="#DejaVuSansMono-30" x="120.410156"/>
      </g>
     </g>
    </g>
    <g id="xtick_3">
     <g id="line2d_3">
      <g>
       <use xlink:href="#mc11625df60" x="531.049314" y="404.12" style="stroke: #000000; stroke-width: 0.8"/>
      </g>
     </g>
     <g id="text_3">
      <!-- 300 -->
      <g transform="translate(522.018845 418.771563) scale(0.1 -0.1)">
       <defs>
        <path id="DejaVuSansMono-33" d="M 2425 2497 
Q 2884 2375 3128 2064 
Q 3372 1753 3372 1288 
Q 3372 644 2939 276 
Q 2506 -91 1741 -91 
Q 1419 -91 1084 -31 
Q 750 28 428 141 
L 428 769 
Q 747 603 1056 522 
Q 1366 441 1672 441 
Q 2191 441 2469 675 
Q 2747 909 2747 1350 
Q 2747 1756 2469 1995 
Q 2191 2234 1716 2234 
L 1234 2234 
L 1234 2753 
L 1716 2753 
Q 2150 2753 2394 2943 
Q 2638 3134 2638 3475 
Q 2638 3834 2411 4026 
Q 2184 4219 1766 4219 
Q 1488 4219 1191 4156 
Q 894 4094 569 3969 
L 569 4550 
Q 947 4650 1242 4700 
Q 1538 4750 1766 4750 
Q 2447 4750 2855 4408 
Q 3263 4066 3263 3500 
Q 3263 3116 3048 2859 
Q 2834 2603 2425 2497 
z
" transform="scale(0.015625)"/>
       </defs>
       <use xlink:href="#DejaVuSansMono-33"/>
       <use xlink:href="#DejaVuSansMono-30" x="60.205078"/>
       <use xlink:href="#DejaVuSansMono-30" x="120.410156"/>
      </g>
     </g>
    </g>
    <g id="xtick_4">
     <g id="line2d_4">
      <g>
       <use xlink:href="#mc11625df60" x="699.714595" y="404.12" style="stroke: #000000; stroke-width: 0.8"/>
      </g>
     </g>
     <g id="text_4">
      <!-- 400 -->
      <g transform="translate(690.684126 418.771563) scale(0.1 -0.1)">
       <defs>
        <path id="DejaVuSansMono-34" d="M 2297 4091 
L 825 1625 
L 2297 1625 
L 2297 4091 
z
M 2194 4666 
L 2925 4666 
L 2925 1625 
L 3547 1625 
L 3547 1113 
L 2925 1113 
L 2925 0 
L 2297 0 
L 2297 1113 
L 319 1113 
L 319 1709 
L 2194 4666 
z
" transform="scale(0.015625)"/>
       </defs>
       <use xlink:href="#DejaVuSansMono-34"/>
       <use xlink:href="#DejaVuSansMono-30" x="60.205078"/>
       <use xlink:href="#DejaVuSansMono-30" x="120.410156"/>
      </g>
     </g>
    </g>
   </g>
   <g id="matplotlib.axis_2">
    <g id="ytick_1">
     <g id="line2d_5">
      <defs>
       <path id="mee680cade5" d="M 0 0 
L -3.5 0 
" style="stroke: #000000; stroke-width: 0.8"/>
      </defs>
      <g>
       <use xlink:href="#mee680cade5" x="41.92" y="365.202214" style="stroke: #000000; stroke-width: 0.8"/>
      </g>
     </g>
     <g id="text_5">
      <!-- 0.07 -->
      <g transform="translate(10.83875 369.027996) scale(0.1 -0.1)">
       <defs>
        <path id="DejaVuSansMono-2e" d="M 1528 953 
L 2316 953 
L 2316 0 
L 1528 0 
L 1528 953 
z
" transform="scale(0.015625)"/>
        <path id="DejaVuSansMono-37" d="M 434 4666 
L 3372 4666 
L 3372 4397 
L 1703 0 
L 1044 0 
L 2669 4134 
L 434 4134 
L 434 4666 
z
" transform="scale(0.015625)"/>
       </defs>
       <use xlink:href="#DejaVuSansMono-30"/>
       <use xlink:href="#DejaVuSansMono-2e" x="60.205078"/>
       <use xlink:href="#DejaVuSansMono-30" x="120.410156"/>
       <use xlink:href="#DejaVuSansMono-37" x="180.615234"/>
      </g>
     </g>
    </g>
    <g id="ytick_2">
     <g id="line2d_6">
      <g>
       <use xlink:href="#mee680cade5" x="41.92" y="313.565613" style="stroke: #000000; stroke-width: 0.8"/>
      </g>
     </g>
     <g id="text_6">
      <!-- 0.08 -->
      <g transform="translate(10.83875 317.391394) scale(0.1 -0.1)">
       <defs>
        <path id="DejaVuSansMono-38" d="M 1925 2216 
Q 1503 2216 1273 1980 
Q 1044 1744 1044 1313 
Q 1044 881 1276 642 
Q 1509 403 1925 403 
Q 2350 403 2579 639 
Q 2809 875 2809 1313 
Q 2809 1741 2576 1978 
Q 2344 2216 1925 2216 
z
M 1375 2478 
Q 972 2581 745 2862 
Q 519 3144 519 3541 
Q 519 4097 897 4423 
Q 1275 4750 1925 4750 
Q 2578 4750 2956 4423 
Q 3334 4097 3334 3541 
Q 3334 3144 3107 2862 
Q 2881 2581 2478 2478 
Q 2947 2375 3195 2062 
Q 3444 1750 3444 1253 
Q 3444 622 3041 265 
Q 2638 -91 1925 -91 
Q 1213 -91 811 264 
Q 409 619 409 1247 
Q 409 1747 657 2061 
Q 906 2375 1375 2478 
z
M 1147 3481 
Q 1147 3106 1347 2909 
Q 1547 2713 1925 2713 
Q 2306 2713 2506 2909 
Q 2706 3106 2706 3481 
Q 2706 3863 2507 4063 
Q 2309 4263 1925 4263 
Q 1547 4263 1347 4061 
Q 1147 3859 1147 3481 
z
" transform="scale(0.015625)"/>
       </defs>
       <use xlink:href="#DejaVuSansMono-30"/>
       <use xlink:href="#DejaVuSansMono-2e" x="60.205078"/>
       <use xlink:href="#DejaVuSansMono-30" x="120.410156"/>
       <use xlink:href="#DejaVuSansMono-38" x="180.615234"/>
      </g>
     </g>
    </g>
    <g id="ytick_3">
     <g id="line2d_7">
      <g>
       <use xlink:href="#mee680cade5" x="41.92" y="261.929011" style="stroke: #000000; stroke-width: 0.8"/>
      </g>
     </g>
     <g id="text_7">
      <!-- 0.09 -->
      <g transform="translate(10.83875 265.754792) scale(0.1 -0.1)">
       <defs>
        <path id="DejaVuSansMono-39" d="M 1863 2069 
Q 2266 2069 2495 2359 
Q 2725 2650 2725 3163 
Q 2725 3675 2495 3965 
Q 2266 4256 1863 4256 
Q 1444 4256 1231 3979 
Q 1019 3703 1019 3163 
Q 1019 2619 1230 2344 
Q 1441 2069 1863 2069 
z
M 738 97 
L 738 678 
Q 934 563 1156 502 
Q 1378 441 1619 441 
Q 2219 441 2526 892 
Q 2834 1344 2834 2222 
Q 2688 1909 2422 1742 
Q 2156 1575 1813 1575 
Q 1138 1575 767 1990 
Q 397 2406 397 3169 
Q 397 3922 776 4336 
Q 1156 4750 1850 4750 
Q 2663 4750 3041 4165 
Q 3419 3581 3419 2328 
Q 3419 1150 2964 529 
Q 2509 -91 1644 -91 
Q 1416 -91 1184 -42 
Q 953 6 738 97 
z
" transform="scale(0.015625)"/>
       </defs>
       <use xlink:href="#DejaVuSansMono-30"/>
       <use xlink:href="#DejaVuSansMono-2e" x="60.205078"/>
       <use xlink:href="#DejaVuSansMono-30" x="120.410156"/>
       <use xlink:href="#DejaVuSansMono-39" x="180.615234"/>
      </g>
     </g>
    </g>
    <g id="ytick_4">
     <g id="line2d_8">
      <g>
       <use xlink:href="#mee680cade5" x="41.92" y="210.292409" style="stroke: #000000; stroke-width: 0.8"/>
      </g>
     </g>
     <g id="text_8">
      <!-- 0.10 -->
      <g transform="translate(10.83875 214.11819) scale(0.1 -0.1)">
       <use xlink:href="#DejaVuSansMono-30"/>
       <use xlink:href="#DejaVuSansMono-2e" x="60.205078"/>
       <use xlink:href="#DejaVuSansMono-31" x="120.410156"/>
       <use xlink:href="#DejaVuSansMono-30" x="180.615234"/>
      </g>
     </g>
    </g>
    <g id="ytick_5">
     <g id="line2d_9">
      <g>
       <use xlink:href="#mee680cade5" x="41.92" y="158.655807" style="stroke: #000000; stroke-width: 0.8"/>
      </g>
     </g>
     <g id="text_9">
      <!-- 0.11 -->
      <g transform="translate(10.83875 162.481588) scale(0.1 -0.1)">
       <use xlink:href="#DejaVuSansMono-30"/>
       <use xlink:href="#DejaVuSansMono-2e" x="60.205078"/>
       <use xlink:href="#DejaVuSansMono-31" x="120.410156"/>
       <use xlink:href="#DejaVuSansMono-31" x="180.615234"/>
      </g>
     </g>
    </g>
    <g id="ytick_6">
     <g id="line2d_10">
      <g>
       <use xlink:href="#mee680cade5" x="41.92" y="107.019205" style="stroke: #000000; stroke-width: 0.8"/>
      </g>
     </g>
     <g id="text_10">
      <!-- 0.12 -->
      <g transform="translate(10.83875 110.844987) scale(0.1 -0.1)">
       <use xlink:href="#DejaVuSansMono-30"/>
       <use xlink:href="#DejaVuSansMono-2e" x="60.205078"/>
       <use xlink:href="#DejaVuSansMono-31" x="120.410156"/>
       <use xlink:href="#DejaVuSansMono-32" x="180.615234"/>
      </g>
     </g>
    </g>
    <g id="ytick_7">
     <g id="line2d_11">
      <g>
       <use xlink:href="#mee680cade5" x="41.92" y="55.382604" style="stroke: #000000; stroke-width: 0.8"/>
      </g>
     </g>
     <g id="text_11">
      <!-- 0.13 -->
      <g transform="translate(10.83875 59.208385) scale(0.1 -0.1)">
       <use xlink:href="#DejaVuSansMono-30"/>
       <use xlink:href="#DejaVuSansMono-2e" x="60.205078"/>
       <use xlink:href="#DejaVuSansMono-31" x="120.410156"/>
       <use xlink:href="#DejaVuSansMono-33" x="180.615234"/>
      </g>
     </g>
    </g>
   </g>
   <g id="line2d_12">
    <path d="M 25.053472 70.037215 
L 26.740125 73.342459 
L 28.426778 68.607058 
L 30.11343 62.813916 
L 31.800083 59.526676 
L 33.486736 60.900875 
L 35.173389 67.649272 
L 36.860042 78.290366 
L 38.546694 89.734684 
L 40.233347 99.05104 
L 41.92 104.658503 
L 43.606653 106.298314 
L 45.293306 104.551339 
L 46.979958 100.377202 
L 48.666611 94.800027 
L 52.039917 83.014383 
L 53.72657 78.165712 
L 55.413222 74.601368 
L 57.099875 72.511382 
L 58.786528 71.895679 
L 60.473181 72.588126 
L 62.159834 74.289712 
L 63.846486 76.62851 
L 67.219792 81.710978 
L 68.906445 83.836643 
L 70.593098 85.431427 
L 72.279751 86.440177 
L 73.966403 86.902779 
L 75.653056 86.928202 
L 77.339709 86.665063 
L 82.399667 85.585985 
L 84.08632 85.463709 
L 85.772973 85.524653 
L 89.146279 86.059252 
L 92.519584 86.646034 
L 94.206237 86.747509 
L 95.89289 86.646065 
L 97.579543 86.333263 
L 99.266195 85.832027 
L 106.012807 83.336654 
L 107.699459 82.971148 
L 109.386112 82.826793 
L 111.072765 82.919376 
L 112.759418 83.233175 
L 114.446071 83.725932 
L 121.192682 86.158852 
L 122.879335 86.570402 
L 124.565988 86.823792 
L 126.25264 86.910743 
L 127.939293 86.840762 
L 131.312599 86.339257 
L 138.05921 85.010486 
L 141.432516 84.72007 
L 144.805821 84.847271 
L 148.179127 85.350104 
L 156.612391 86.952435 
L 159.985696 87.156538 
L 163.359002 86.966682 
L 173.478919 85.832996 
L 176.852225 85.950921 
L 181.912183 86.550854 
L 185.285489 86.923493 
L 188.658794 87.080567 
L 192.0321 87.00822 
L 198.778711 86.723837 
L 202.152017 86.757608 
L 215.645239 87.195461 
L 224.078503 87.322227 
L 235.885073 87.611665 
L 244.318337 87.686298 
L 284.798004 88.956875 
L 293.231268 89.193102 
L 310.097796 89.845357 
L 316.844407 90.185733 
L 343.830852 91.580945 
L 353.950769 92.013862 
L 370.817297 93.190783 
L 379.250561 93.658998 
L 385.997173 94.242306 
L 389.370478 94.636774 
L 392.743784 94.839558 
L 396.117089 95.229413 
L 406.237006 95.866109 
L 409.610312 96.326068 
L 414.67027 96.686303 
L 416.356923 96.937612 
L 426.47684 97.832842 
L 436.596757 99.14143 
L 448.403326 101.117474 
L 450.089979 101.492863 
L 451.776632 101.676253 
L 453.463285 102.421818 
L 455.149938 102.241402 
L 456.83659 103.617675 
L 458.523243 102.449699 
L 460.209896 104.976042 
L 461.896549 102.409065 
L 463.583202 105.932316 
L 465.269854 103.446427 
L 466.956507 106.094054 
L 468.64316 105.915912 
L 470.329813 106.469024 
L 472.016466 108.64555 
L 473.703119 106.462599 
L 475.389771 113.573162 
L 477.076424 97.595415 
L 478.763077 112.242895 
L 480.44973 104.646196 
L 482.136383 94.136981 
L 483.823035 98.403655 
L 485.509688 108.494985 
L 487.196341 106.022118 
L 488.882994 95.456303 
L 492.256299 100.82213 
L 493.942952 120.675697 
L 495.629605 106.796169 
L 497.316258 110.000416 
L 499.002911 127.162509 
L 500.689563 125.686686 
L 502.376216 120.838073 
L 504.062869 128.995259 
L 505.749522 136.436022 
L 507.436175 131.193764 
L 509.122827 133.892813 
L 510.80948 135.304037 
L 512.496133 134.265117 
L 514.182786 142.441793 
L 515.869439 142.903287 
L 517.556091 136.982144 
L 519.242744 142.275627 
L 520.929397 143.767501 
L 522.61605 146.238702 
L 524.302703 158.630726 
L 525.989356 155.815134 
L 527.676008 153.499765 
L 529.362661 158.981366 
L 531.049314 159.862974 
L 534.42262 175.647194 
L 536.109272 171.939203 
L 537.795925 168.538166 
L 539.482578 158.323041 
L 541.169231 119.407412 
L 542.855884 109.707377 
L 546.229189 118.279959 
L 547.915842 106.876383 
L 551.289148 53.503539 
L 552.9758 35.236838 
L 554.662453 28.678182 
L 556.349106 42.040416 
L 558.035759 78.323183 
L 559.722412 85.525618 
L 561.409064 80.262062 
L 563.095717 76.997336 
L 564.78237 83.433866 
L 566.469023 101.45658 
L 568.155676 123.251019 
L 569.842328 137.193649 
L 571.528981 139.987428 
L 573.215634 135.849416 
L 574.902287 129.524783 
L 576.58894 123.980507 
L 578.275593 120.563034 
L 579.962245 119.258663 
L 581.648898 119.491974 
L 583.335551 120.938685 
L 585.022204 123.800872 
L 586.708857 128.495489 
L 588.395509 135.08658 
L 593.455468 159.309731 
L 595.142121 166.227002 
L 596.828773 171.717983 
L 598.515426 175.629693 
L 600.202079 178.049911 
L 601.888732 179.255982 
L 603.575385 179.642851 
L 606.94869 179.695246 
L 608.635343 180.093746 
L 610.321996 181.025733 
L 612.008649 182.521777 
L 613.695301 184.477037 
L 617.068607 188.811469 
L 618.75526 190.601834 
L 620.441913 191.807974 
L 622.128565 192.32194 
L 623.815218 192.188703 
L 625.501871 191.592822 
L 628.875177 190.114598 
L 630.56183 189.758556 
L 632.248482 189.88745 
L 633.935135 190.548338 
L 635.621788 191.685824 
L 640.681746 196.147369 
L 642.368399 197.226343 
L 644.055052 197.836113 
L 645.741705 197.973693 
L 647.428358 197.74286 
L 650.801663 196.917002 
L 652.488316 196.701315 
L 654.174969 196.798442 
L 655.861622 197.252854 
L 657.548274 198.028632 
L 662.608233 200.997771 
L 664.294886 201.700602 
L 665.981538 202.109062 
L 667.668191 202.245746 
L 674.414802 202.069959 
L 676.101455 202.30709 
L 677.788108 202.703643 
L 681.161414 203.794666 
L 692.967983 208.110151 
L 696.341289 209.560501 
L 699.714595 211.30136 
L 703.0879 213.430507 
L 706.461206 215.939114 
L 709.834511 218.758785 
L 711.521164 220.300361 
L 713.207817 221.995242 
L 714.89447 223.928585 
L 716.581123 226.162977 
L 718.267775 228.721252 
L 719.954428 231.598881 
L 721.641081 234.771758 
L 725.014387 241.796925 
L 728.387692 249.696885 
L 730.074345 254.10765 
L 733.447651 263.861497 
L 738.507609 279.651223 
L 741.880915 291.020024 
L 745.25422 303.249865 
L 748.627526 315.774838 
L 752.000832 327.286771 
L 753.687484 332.682279 
L 755.374137 337.549598 
L 757.06079 341.839294 
L 758.747443 345.714348 
L 760.434096 349.23129 
L 762.120748 352.255657 
L 763.807401 354.840362 
L 765.494054 357.122587 
L 767.180707 359.084407 
L 768.86736 360.711253 
L 775.613971 366.288435 
L 777.300624 367.500465 
L 778.987277 368.486763 
L 785.733888 371.882245 
L 789.107193 373.610011 
L 790.793846 374.279921 
L 794.167152 375.246356 
L 797.540457 376.226456 
L 800.913763 377.333269 
L 804.287069 378.125386 
L 807.660374 378.671638 
L 811.03368 379.471234 
L 814.406985 380.283753 
L 821.153597 381.460827 
L 824.526902 382.253352 
L 827.900208 382.768211 
L 831.273514 383.291688 
L 836.333472 384.231077 
L 843.080083 385.110718 
L 846.453389 385.668008 
L 851.513347 386.241818 
L 851.513347 386.241818 
" clip-path="url(#pba38c66cab)" style="fill: none; stroke-dasharray: 7.4,3.2; stroke-dashoffset: 0; stroke: #000000; stroke-width: 2"/>
   </g>
   <g id="patch_3">
    <path d="M 41.92 404.12 
L 41.92 10.8 
" style="fill: none; stroke: #000000; stroke-width: 0.8; stroke-linejoin: miter; stroke-linecap: square"/>
   </g>
   <g id="patch_4">
    <path d="M 853.2 404.12 
L 853.2 10.8 
" style="fill: none; stroke: #000000; stroke-width: 0.8; stroke-linejoin: miter; stroke-linecap: square"/>
   </g>
   <g id="patch_5">
    <path d="M 41.92 404.12 
L 853.2 404.12 
" style="fill: none; stroke: #000000; stroke-width: 0.8; stroke-linejoin: miter; stroke-linecap: square"/>
   </g>
   <g id="patch_6">
    <path d="M 41.92 10.8 
L 853.2 10.8 
" style="fill: none; stroke: #000000; stroke-width: 0.8; stroke-linejoin: miter; stroke-linecap: square"/>
   </g>
  </g>
 </g>
 <defs>
  <clipPath id="pba38c66cab">
   <rect x="41.92" y="10.8" width="811.28" height="393.32"/>
  </clipPath>
 </defs>
</svg>
