<?xml version="1.0" encoding="utf-8" standalone="no"?>
<!DOCTYPE svg PUBLIC "-//W3C//DTD SVG 1.1//EN"
  "http://www.w3.org/Graphics/SVG/1.1/DTD/svg11.dtd">
<svg xmlns:xlink="http://www.w3.org/1999/xlink" width="864pt" height="360pt" viewBox="0 0 864 360" xmlns="http://www.w3.org/2000/svg" version="1.1">
 <metadata>
  <rdf:RDF xmlns:dc="http://purl.org/dc/elements/1.1/" xmlns:cc="http://creativecommons.org/ns#" xmlns:rdf="http://www.w3.org/1999/02/22-rdf-syntax-ns#">
   <cc:Work>
    <dc:type rdf:resource="http://purl.org/dc/dcmitype/StillImage"/>
    <dc:date>2024-09-16T23:26:49.069127</dc:date>
    <dc:format>image/svg+xml</dc:format>
    <dc:creator>
     <cc:Agent>
      <dc:title>Matplotlib v3.9.2, https://matplotlib.org/</dc:title>
     </cc:Agent>
    </dc:creator>
   </cc:Work>
  </rdf:RDF>
 </metadata>
 <defs>
  <style type="text/css">*{stroke-linejoin: round; stroke-linecap: butt}</style>
 </defs>
 <g id="figure_1">
  <g id="patch_1">
   <path d="M 0 360 
L 864 360 
L 864 0 
L 0 0 
z
" style="fill: #ffffff"/>
  </g>
  <g id="axes_1">
   <g id="patch_2">
    <path d="M 36.36 328.931379 
L 853.2 328.931379 
L 853.2 19.095517 
L 36.36 19.095517 
z
" style="fill: #ffffff"/>
   </g>
   <g id="patch_3">
    <path d="M 60.6475 304.64388 
L 68.406293 304.64388 
L 68.406293 296.885086 
L 60.6475 296.885086 
z
" clip-path="url(#pf336707dcc)" style="stroke: #000000; stroke-linejoin: miter"/>
   </g>
   <g id="patch_4">
    <path d="M 91.050755 302.407521 
L 94.336831 302.407521 
L 94.336831 299.121444 
L 91.050755 299.121444 
z
" clip-path="url(#pf336707dcc)" style="stroke: #000000; stroke-linejoin: miter"/>
   </g>
   <g id="patch_5">
    <path d="M 119.607603 302.017569 
L 122.113776 302.017569 
L 122.113776 299.511396 
L 119.607603 299.511396 
z
" clip-path="url(#pf336707dcc)" style="stroke: #000000; stroke-linejoin: miter"/>
   </g>
   <g id="patch_6">
    <path d="M 148.070616 301.721453 
L 149.984556 301.721453 
L 149.984556 299.807513 
L 148.070616 299.807513 
z
" clip-path="url(#pf336707dcc)" style="stroke: #000000; stroke-linejoin: miter"/>
   </g>
   <g id="patch_7">
    <path d="M 176.528129 301.430837 
L 177.860837 301.430837 
L 177.860837 300.098129 
L 176.528129 300.098129 
z
" clip-path="url(#pf336707dcc)" style="stroke: #000000; stroke-linejoin: miter"/>
   </g>
   <g id="patch_8">
    <path d="M 203.474571 302.651291 
L 207.248187 302.651291 
L 207.248187 298.877675 
L 203.474571 298.877675 
z
" clip-path="url(#pf336707dcc)" style="stroke: #000000; stroke-linejoin: miter"/>
   </g>
   <g id="patch_9">
    <path d="M 230.266443 304.026315 
L 236.790108 304.026315 
L 236.790108 297.50265 
L 230.266443 297.50265 
z
" clip-path="url(#pf336707dcc)" style="stroke: #000000; stroke-linejoin: miter"/>
   </g>
   <g id="patch_10">
    <path d="M 252.92498 309.534675 
L 270.465365 309.534675 
L 270.465365 291.99429 
L 252.92498 291.99429 
z
" clip-path="url(#pf336707dcc)" style="stroke: #000000; stroke-linejoin: miter"/>
   </g>
   <g id="patch_11">
    <path d="M 277.555939 313.070613 
L 302.168199 313.070613 
L 302.168199 288.458353 
L 277.555939 288.458353 
z
" clip-path="url(#pf336707dcc)" style="stroke: #000000; stroke-linejoin: miter"/>
   </g>
   <g id="patch_12">
    <path d="M 305.53782 313.255628 
L 330.520111 313.255628 
L 330.520111 288.273338 
L 305.53782 288.273338 
z
" clip-path="url(#pf336707dcc)" style="stroke: #000000; stroke-linejoin: miter"/>
   </g>
   <g id="patch_13">
    <path d="M 333.66034 313.300005 
L 358.731384 313.300005 
L 358.731384 288.228961 
L 333.66034 288.228961 
z
" clip-path="url(#pf336707dcc)" style="stroke: #000000; stroke-linejoin: miter"/>
   </g>
   <g id="patch_14">
    <path d="M 361.827687 313.299555 
L 386.897831 313.299555 
L 386.897831 288.229411 
L 361.827687 288.229411 
z
" clip-path="url(#pf336707dcc)" style="stroke: #000000; stroke-linejoin: miter"/>
   </g>
   <g id="patch_15">
    <path d="M 389.987706 313.306432 
L 415.071604 313.306432 
L 415.071604 288.222534 
L 389.987706 288.222534 
z
" clip-path="url(#pf336707dcc)" style="stroke: #000000; stroke-linejoin: miter"/>
   </g>
   <g id="patch_16">
    <path d="M 418.152184 313.308851 
L 443.24092 313.308851 
L 443.24092 288.220115 
L 418.152184 288.220115 
z
" clip-path="url(#pf336707dcc)" style="stroke: #000000; stroke-linejoin: miter"/>
   </g>
   <g id="patch_17">
    <path d="M 446.330242 313.297689 
L 471.396654 313.297689 
L 471.396654 288.231277 
L 446.330242 288.231277 
z
" clip-path="url(#pf336707dcc)" style="stroke: #000000; stroke-linejoin: miter"/>
   </g>
   <g id="patch_18">
    <path d="M 474.486934 313.307894 
L 499.573756 313.307894 
L 499.573756 288.221072 
L 474.486934 288.221072 
z
" clip-path="url(#pf336707dcc)" style="stroke: #000000; stroke-linejoin: miter"/>
   </g>
   <g id="patch_19">
    <path d="M 502.65226 313.309464 
L 527.742223 313.309464 
L 527.742223 288.219501 
L 502.65226 288.219501 
z
" clip-path="url(#pf336707dcc)" style="stroke: #000000; stroke-linejoin: miter"/>
   </g>
   <g id="patch_20">
    <path d="M 530.813784 313.314837 
L 555.914492 313.314837 
L 555.914492 288.214129 
L 530.813784 288.214129 
z
" clip-path="url(#pf336707dcc)" style="stroke: #000000; stroke-linejoin: miter"/>
   </g>
   <g id="patch_21">
    <path d="M 558.973716 313.321802 
L 584.088353 313.321802 
L 584.088353 288.207164 
L 558.973716 288.207164 
z
" clip-path="url(#pf336707dcc)" style="stroke: #000000; stroke-linejoin: miter"/>
   </g>
   <g id="patch_22">
    <path d="M 587.133631 313.328783 
L 612.262232 313.328783 
L 612.262232 288.200182 
L 587.133631 288.200182 
z
" clip-path="url(#pf336707dcc)" style="stroke: #000000; stroke-linejoin: miter"/>
   </g>
   <g id="patch_23">
    <path d="M 615.293998 313.335312 
L 640.435657 313.335312 
L 640.435657 288.193653 
L 615.293998 288.193653 
z
" clip-path="url(#pf336707dcc)" style="stroke: #000000; stroke-linejoin: miter"/>
   </g>
   <g id="patch_24">
    <path d="M 643.453383 313.342824 
L 668.610065 313.342824 
L 668.610065 288.186142 
L 643.453383 288.186142 
z
" clip-path="url(#pf336707dcc)" style="stroke: #000000; stroke-linejoin: miter"/>
   </g>
   <g id="patch_25">
    <path d="M 671.614173 313.348931 
L 696.783069 313.348931 
L 696.783069 288.180035 
L 671.614173 288.180035 
z
" clip-path="url(#pf336707dcc)" style="stroke: #000000; stroke-linejoin: miter"/>
   </g>
   <g id="patch_26">
    <path d="M 699.781593 313.348407 
L 724.949441 313.348407 
L 724.949441 288.180559 
L 699.781593 288.180559 
z
" clip-path="url(#pf336707dcc)" style="stroke: #000000; stroke-linejoin: miter"/>
   </g>
   <g id="patch_27">
    <path d="M 727.942546 313.35435 
L 753.122281 313.35435 
L 753.122281 288.174615 
L 727.942546 288.174615 
z
" clip-path="url(#pf336707dcc)" style="stroke: #000000; stroke-linejoin: miter"/>
   </g>
   <g id="patch_28">
    <path d="M 756.109453 313.35434 
L 781.289168 313.35434 
L 781.289168 288.174626 
L 756.109453 288.174626 
z
" clip-path="url(#pf336707dcc)" style="stroke: #000000; stroke-linejoin: miter"/>
   </g>
   <g id="patch_29">
    <path d="M 784.27002 313.360669 
L 809.462394 313.360669 
L 809.462394 288.168296 
L 784.27002 288.168296 
z
" clip-path="url(#pf336707dcc)" style="stroke: #000000; stroke-linejoin: miter"/>
   </g>
   <g id="patch_30">
    <path d="M 60.2494 276.875083 
L 68.804393 276.875083 
L 68.804393 268.32009 
L 60.2494 268.32009 
z
" clip-path="url(#pf336707dcc)" style="stroke: #000000; stroke-linejoin: miter"/>
   </g>
   <g id="patch_31">
    <path d="M 90.003103 275.288277 
L 95.384483 275.288277 
L 95.384483 269.906896 
L 90.003103 269.906896 
z
" clip-path="url(#pf336707dcc)" style="stroke: #000000; stroke-linejoin: miter"/>
   </g>
   <g id="patch_32">
    <path d="M 118.762565 274.695711 
L 122.958814 274.695711 
L 122.958814 270.499462 
L 118.762565 270.499462 
z
" clip-path="url(#pf336707dcc)" style="stroke: #000000; stroke-linejoin: miter"/>
   </g>
   <g id="patch_33">
    <path d="M 146.905775 274.719397 
L 151.149397 274.719397 
L 151.149397 270.475775 
L 146.905775 270.475775 
z
" clip-path="url(#pf336707dcc)" style="stroke: #000000; stroke-linejoin: miter"/>
   </g>
   <g id="patch_34">
    <path d="M 175.232908 274.559161 
L 179.156058 274.559161 
L 179.156058 270.636011 
L 175.232908 270.636011 
z
" clip-path="url(#pf336707dcc)" style="stroke: #000000; stroke-linejoin: miter"/>
   </g>
   <g id="patch_35">
    <path d="M 199.063229 278.895736 
L 211.659529 278.895736 
L 211.659529 266.299436 
L 199.063229 266.299436 
z
" clip-path="url(#pf336707dcc)" style="stroke: #000000; stroke-linejoin: miter"/>
   </g>
   <g id="patch_36">
    <path d="M 221.856094 284.269768 
L 245.200458 284.269768 
L 245.200458 260.925404 
L 221.856094 260.925404 
z
" clip-path="url(#pf336707dcc)" style="stroke: #000000; stroke-linejoin: miter"/>
   </g>
   <g id="patch_37">
    <path d="M 249.162952 285.129807 
L 274.227393 285.129807 
L 274.227393 260.065366 
L 249.162952 260.065366 
z
" clip-path="url(#pf336707dcc)" style="stroke: #000000; stroke-linejoin: miter"/>
   </g>
   <g id="patch_38">
    <path d="M 277.326019 285.133636 
L 302.398119 285.133636 
L 302.398119 260.061536 
L 277.326019 260.061536 
z
" clip-path="url(#pf336707dcc)" style="stroke: #000000; stroke-linejoin: miter"/>
   </g>
   <g id="patch_39">
    <path d="M 305.463253 285.163299 
L 330.594678 285.163299 
L 330.594678 260.031874 
L 305.463253 260.031874 
z
" clip-path="url(#pf336707dcc)" style="stroke: #000000; stroke-linejoin: miter"/>
   </g>
   <g id="patch_40">
    <path d="M 333.628221 285.165227 
L 358.763503 285.165227 
L 358.763503 260.029946 
L 333.628221 260.029946 
z
" clip-path="url(#pf336707dcc)" style="stroke: #000000; stroke-linejoin: miter"/>
   </g>
   <g id="patch_41">
    <path d="M 361.80336 285.156985 
L 386.922158 285.156985 
L 386.922158 260.038187 
L 361.80336 260.038187 
z
" clip-path="url(#pf336707dcc)" style="stroke: #000000; stroke-linejoin: miter"/>
   </g>
   <g id="patch_42">
    <path d="M 389.963268 285.163974 
L 415.096043 285.163974 
L 415.096043 260.031199 
L 389.963268 260.031199 
z
" clip-path="url(#pf336707dcc)" style="stroke: #000000; stroke-linejoin: miter"/>
   </g>
   <g id="patch_43">
    <path d="M 418.137079 285.157059 
L 443.256025 285.157059 
L 443.256025 260.038113 
L 418.137079 260.038113 
z
" clip-path="url(#pf336707dcc)" style="stroke: #000000; stroke-linejoin: miter"/>
   </g>
   <g id="patch_44">
    <path d="M 446.303892 285.157142 
L 471.423004 285.157142 
L 471.423004 260.03803 
L 446.303892 260.03803 
z
" clip-path="url(#pf336707dcc)" style="stroke: #000000; stroke-linejoin: miter"/>
   </g>
   <g id="patch_45">
    <path d="M 474.471899 285.156032 
L 499.58879 285.156032 
L 499.58879 260.039141 
L 474.471899 260.039141 
z
" clip-path="url(#pf336707dcc)" style="stroke: #000000; stroke-linejoin: miter"/>
   </g>
   <g id="patch_46">
    <path d="M 502.632415 285.162413 
L 527.762068 285.162413 
L 527.762068 260.032759 
L 502.632415 260.032759 
z
" clip-path="url(#pf336707dcc)" style="stroke: #000000; stroke-linejoin: miter"/>
   </g>
   <g id="patch_47">
    <path d="M 530.791588 285.170136 
L 555.936688 285.170136 
L 555.936688 260.025037 
L 530.791588 260.025037 
z
" clip-path="url(#pf336707dcc)" style="stroke: #000000; stroke-linejoin: miter"/>
   </g>
   <g id="patch_48">
    <path d="M 558.961951 285.16667 
L 584.100118 285.16667 
L 584.100118 260.028503 
L 558.961951 260.028503 
z
" clip-path="url(#pf336707dcc)" style="stroke: #000000; stroke-linejoin: miter"/>
   </g>
   <g id="patch_49">
    <path d="M 587.125098 285.170419 
L 612.270764 285.170419 
L 612.270764 260.024754 
L 587.125098 260.024754 
z
" clip-path="url(#pf336707dcc)" style="stroke: #000000; stroke-linejoin: miter"/>
   </g>
   <g id="patch_50">
    <path d="M 615.288796 285.173618 
L 640.440859 285.173618 
L 640.440859 260.021555 
L 615.288796 260.021555 
z
" clip-path="url(#pf336707dcc)" style="stroke: #000000; stroke-linejoin: miter"/>
   </g>
   <g id="patch_51">
    <path d="M 643.448532 285.180778 
L 668.614916 285.180778 
L 668.614916 260.014394 
L 643.448532 260.014394 
z
" clip-path="url(#pf336707dcc)" style="stroke: #000000; stroke-linejoin: miter"/>
   </g>
   <g id="patch_52">
    <path d="M 671.615006 285.181201 
L 696.782236 285.181201 
L 696.782236 260.013971 
L 671.615006 260.013971 
z
" clip-path="url(#pf336707dcc)" style="stroke: #000000; stroke-linejoin: miter"/>
   </g>
   <g id="patch_53">
    <path d="M 699.776043 285.187061 
L 724.954992 285.187061 
L 724.954992 260.008112 
L 699.776043 260.008112 
z
" clip-path="url(#pf336707dcc)" style="stroke: #000000; stroke-linejoin: miter"/>
   </g>
   <g id="patch_54">
    <path d="M 727.940855 285.189145 
L 753.123973 285.189145 
L 753.123973 260.006027 
L 727.940855 260.006027 
z
" clip-path="url(#pf336707dcc)" style="stroke: #000000; stroke-linejoin: miter"/>
   </g>
   <g id="patch_55">
    <path d="M 756.110602 285.186294 
L 781.288018 285.186294 
L 781.288018 260.008878 
L 756.110602 260.008878 
z
" clip-path="url(#pf336707dcc)" style="stroke: #000000; stroke-linejoin: miter"/>
   </g>
   <g id="patch_56">
    <path d="M 784.269588 285.194205 
L 809.462826 285.194205 
L 809.462826 260.000967 
L 784.269588 260.000967 
z
" clip-path="url(#pf336707dcc)" style="stroke: #000000; stroke-linejoin: miter"/>
   </g>
   <g id="patch_57">
    <path d="M 61.204689 247.752897 
L 67.849104 247.752897 
L 67.849104 241.108482 
L 61.204689 241.108482 
z
" clip-path="url(#pf336707dcc)" style="stroke: #000000; stroke-linejoin: miter"/>
   </g>
   <g id="patch_58">
    <path d="M 90.571325 246.553158 
L 94.816261 246.553158 
L 94.816261 242.308222 
L 90.571325 242.308222 
z
" clip-path="url(#pf336707dcc)" style="stroke: #000000; stroke-linejoin: miter"/>
   </g>
   <g id="patch_59">
    <path d="M 119.050943 246.240436 
L 122.670436 246.240436 
L 122.670436 242.620943 
L 119.050943 242.620943 
z
" clip-path="url(#pf336707dcc)" style="stroke: #000000; stroke-linejoin: miter"/>
   </g>
   <g id="patch_60">
    <path d="M 147.404057 246.054219 
L 150.651115 246.054219 
L 150.651115 242.80716 
L 147.404057 242.80716 
z
" clip-path="url(#pf336707dcc)" style="stroke: #000000; stroke-linejoin: miter"/>
   </g>
   <g id="patch_61">
    <path d="M 175.450538 246.174634 
L 178.938428 246.174634 
L 178.938428 242.686745 
L 175.450538 242.686745 
z
" clip-path="url(#pf336707dcc)" style="stroke: #000000; stroke-linejoin: miter"/>
   </g>
   <g id="patch_62">
    <path d="M 202.168472 247.623597 
L 208.554286 247.623597 
L 208.554286 241.237783 
L 202.168472 241.237783 
z
" clip-path="url(#pf336707dcc)" style="stroke: #000000; stroke-linejoin: miter"/>
   </g>
   <g id="patch_63">
    <path d="M 229.577805 248.381161 
L 237.478747 248.381161 
L 237.478747 240.480219 
L 229.577805 240.480219 
z
" clip-path="url(#pf336707dcc)" style="stroke: #000000; stroke-linejoin: miter"/>
   </g>
   <g id="patch_64">
    <path d="M 256.848029 249.277833 
L 266.542316 249.277833 
L 266.542316 239.583546 
L 256.848029 239.583546 
z
" clip-path="url(#pf336707dcc)" style="stroke: #000000; stroke-linejoin: miter"/>
   </g>
   <g id="patch_65">
    <path d="M 284.345808 249.946951 
L 295.37833 249.946951 
L 295.37833 238.914428 
L 284.345808 238.914428 
z
" clip-path="url(#pf336707dcc)" style="stroke: #000000; stroke-linejoin: miter"/>
   </g>
   <g id="patch_66">
    <path d="M 310.947463 251.512192 
L 325.110468 251.512192 
L 325.110468 237.349187 
L 310.947463 237.349187 
z
" clip-path="url(#pf336707dcc)" style="stroke: #000000; stroke-linejoin: miter"/>
   </g>
   <g id="patch_67">
    <path d="M 337.597099 253.029453 
L 354.794625 253.029453 
L 354.794625 235.831926 
L 337.597099 235.831926 
z
" clip-path="url(#pf336707dcc)" style="stroke: #000000; stroke-linejoin: miter"/>
   </g>
   <g id="patch_68">
    <path d="M 364.769508 254.02394 
L 383.956009 254.02394 
L 383.956009 234.837439 
L 364.769508 234.837439 
z
" clip-path="url(#pf336707dcc)" style="stroke: #000000; stroke-linejoin: miter"/>
   </g>
   <g id="patch_69">
    <path d="M 392.265652 254.694693 
L 412.793659 254.694693 
L 412.793659 234.166686 
L 392.265652 234.166686 
z
" clip-path="url(#pf336707dcc)" style="stroke: #000000; stroke-linejoin: miter"/>
   </g>
   <g id="patch_70">
    <path d="M 419.969801 255.157441 
L 441.423303 255.157441 
L 441.423303 233.703939 
L 419.969801 233.703939 
z
" clip-path="url(#pf336707dcc)" style="stroke: #000000; stroke-linejoin: miter"/>
   </g>
   <g id="patch_71">
    <path d="M 447.807238 255.4869 
L 469.919658 255.4869 
L 469.919658 233.37448 
L 447.807238 233.37448 
z
" clip-path="url(#pf336707dcc)" style="stroke: #000000; stroke-linejoin: miter"/>
   </g>
   <g id="patch_72">
    <path d="M 475.732884 255.72815 
L 498.327805 255.72815 
L 498.327805 233.133229 
L 475.732884 233.133229 
z
" clip-path="url(#pf336707dcc)" style="stroke: #000000; stroke-linejoin: miter"/>
   </g>
   <g id="patch_73">
    <path d="M 503.638725 255.989206 
L 526.755758 255.989206 
L 526.755758 232.872173 
L 503.638725 232.872173 
z
" clip-path="url(#pf336707dcc)" style="stroke: #000000; stroke-linejoin: miter"/>
   </g>
   <g id="patch_74">
    <path d="M 531.645366 256.149461 
L 555.082909 256.149461 
L 555.082909 232.711918 
L 531.645366 232.711918 
z
" clip-path="url(#pf336707dcc)" style="stroke: #000000; stroke-linejoin: miter"/>
   </g>
   <g id="patch_75">
    <path d="M 559.666907 256.294818 
L 583.395162 256.294818 
L 583.395162 232.566562 
L 559.666907 232.566562 
z
" clip-path="url(#pf336707dcc)" style="stroke: #000000; stroke-linejoin: miter"/>
   </g>
   <g id="patch_76">
    <path d="M 587.744947 256.383674 
L 611.650915 256.383674 
L 611.650915 232.477705 
L 587.744947 232.477705 
z
" clip-path="url(#pf336707dcc)" style="stroke: #000000; stroke-linejoin: miter"/>
   </g>
   <g id="patch_77">
    <path d="M 615.837587 256.457931 
L 639.892069 256.457931 
L 639.892069 232.403449 
L 615.837587 232.403449 
z
" clip-path="url(#pf336707dcc)" style="stroke: #000000; stroke-linejoin: miter"/>
   </g>
   <g id="patch_78">
    <path d="M 643.88971 256.572704 
L 668.173738 256.572704 
L 668.173738 232.288676 
L 643.88971 232.288676 
z
" clip-path="url(#pf336707dcc)" style="stroke: #000000; stroke-linejoin: miter"/>
   </g>
   <g id="patch_79">
    <path d="M 672.041835 256.587475 
L 696.355406 256.587475 
L 696.355406 232.273904 
L 672.041835 232.273904 
z
" clip-path="url(#pf336707dcc)" style="stroke: #000000; stroke-linejoin: miter"/>
   </g>
   <g id="patch_80">
    <path d="M 700.171382 256.624824 
L 724.559652 256.624824 
L 724.559652 232.236555 
L 700.171382 232.236555 
z
" clip-path="url(#pf336707dcc)" style="stroke: #000000; stroke-linejoin: miter"/>
   </g>
   <g id="patch_81">
    <path d="M 728.277495 256.685608 
L 752.787332 256.685608 
L 752.787332 232.175771 
L 728.277495 232.175771 
z
" clip-path="url(#pf336707dcc)" style="stroke: #000000; stroke-linejoin: miter"/>
   </g>
   <g id="patch_82">
    <path d="M 756.451059 256.678941 
L 780.947562 256.678941 
L 780.947562 232.182438 
L 756.451059 232.182438 
z
" clip-path="url(#pf336707dcc)" style="stroke: #000000; stroke-linejoin: miter"/>
   </g>
   <g id="patch_83">
    <path d="M 784.566367 256.73053 
L 809.166047 256.73053 
L 809.166047 232.130849 
L 784.566367 232.130849 
z
" clip-path="url(#pf336707dcc)" style="stroke: #000000; stroke-linejoin: miter"/>
   </g>
   <g id="patch_84">
    <path d="M 61.051903 219.738786 
L 68.00189 219.738786 
L 68.00189 212.7888 
L 61.051903 212.7888 
z
" clip-path="url(#pf336707dcc)" style="stroke: #000000; stroke-linejoin: miter"/>
   </g>
   <g id="patch_85">
    <path d="M 90.315627 218.641959 
L 95.071959 218.641959 
L 95.071959 213.885627 
L 90.315627 213.885627 
z
" clip-path="url(#pf336707dcc)" style="stroke: #000000; stroke-linejoin: miter"/>
   </g>
   <g id="patch_86">
    <path d="M 118.868203 218.256279 
L 122.853176 218.256279 
L 122.853176 214.271307 
L 118.868203 214.271307 
z
" clip-path="url(#pf336707dcc)" style="stroke: #000000; stroke-linejoin: miter"/>
   </g>
   <g id="patch_87">
    <path d="M 147.037486 218.253893 
L 151.017686 218.253893 
L 151.017686 214.273693 
L 147.037486 214.273693 
z
" clip-path="url(#pf336707dcc)" style="stroke: #000000; stroke-linejoin: miter"/>
   </g>
   <g id="patch_88">
    <path d="M 174.679551 218.778725 
L 179.709414 218.778725 
L 179.709414 213.748862 
L 174.679551 213.748862 
z
" clip-path="url(#pf336707dcc)" style="stroke: #000000; stroke-linejoin: miter"/>
   </g>
   <g id="patch_89">
    <path d="M 201.764698 219.860475 
L 208.958061 219.860475 
L 208.958061 212.667112 
L 201.764698 212.667112 
z
" clip-path="url(#pf336707dcc)" style="stroke: #000000; stroke-linejoin: miter"/>
   </g>
   <g id="patch_90">
    <path d="M 229.34566 220.446409 
L 237.710892 220.446409 
L 237.710892 212.081177 
L 229.34566 212.081177 
z
" clip-path="url(#pf336707dcc)" style="stroke: #000000; stroke-linejoin: miter"/>
   </g>
   <g id="patch_91">
    <path d="M 256.482277 221.476689 
L 266.908068 221.476689 
L 266.908068 211.050897 
L 256.482277 211.050897 
z
" clip-path="url(#pf336707dcc)" style="stroke: #000000; stroke-linejoin: miter"/>
   </g>
   <g id="patch_92">
    <path d="M 285.446097 220.679765 
L 294.278041 220.679765 
L 294.278041 211.847821 
L 285.446097 211.847821 
z
" clip-path="url(#pf336707dcc)" style="stroke: #000000; stroke-linejoin: miter"/>
   </g>
   <g id="patch_93">
    <path d="M 313.099663 221.193096 
L 322.958268 221.193096 
L 322.958268 211.33449 
L 313.099663 211.33449 
z
" clip-path="url(#pf336707dcc)" style="stroke: #000000; stroke-linejoin: miter"/>
   </g>
   <g id="patch_94">
    <path d="M 339.322731 223.136924 
L 353.068993 223.136924 
L 353.068993 209.390662 
L 339.322731 209.390662 
z
" clip-path="url(#pf336707dcc)" style="stroke: #000000; stroke-linejoin: miter"/>
   </g>
   <g id="patch_95">
    <path d="M 365.992078 224.634474 
L 382.73344 224.634474 
L 382.73344 207.893112 
L 365.992078 207.893112 
z
" clip-path="url(#pf336707dcc)" style="stroke: #000000; stroke-linejoin: miter"/>
   </g>
   <g id="patch_96">
    <path d="M 393.296447 225.497001 
L 411.762863 225.497001 
L 411.762863 207.030585 
L 393.296447 207.030585 
z
" clip-path="url(#pf336707dcc)" style="stroke: #000000; stroke-linejoin: miter"/>
   </g>
   <g id="patch_97">
    <path d="M 420.964815 225.99553 
L 440.428288 225.99553 
L 440.428288 206.532057 
L 420.964815 206.532057 
z
" clip-path="url(#pf336707dcc)" style="stroke: #000000; stroke-linejoin: miter"/>
   </g>
   <g id="patch_98">
    <path d="M 448.617226 226.510015 
L 469.10967 226.510015 
L 469.10967 206.017571 
L 448.617226 206.017571 
z
" clip-path="url(#pf336707dcc)" style="stroke: #000000; stroke-linejoin: miter"/>
   </g>
   <g id="patch_99">
    <path d="M 476.386192 226.907946 
L 497.674498 226.907946 
L 497.674498 205.61964 
L 476.386192 205.61964 
z
" clip-path="url(#pf336707dcc)" style="stroke: #000000; stroke-linejoin: miter"/>
   </g>
   <g id="patch_100">
    <path d="M 504.228018 227.233017 
L 526.166465 227.233017 
L 526.166465 205.294569 
L 504.228018 205.294569 
z
" clip-path="url(#pf336707dcc)" style="stroke: #000000; stroke-linejoin: miter"/>
   </g>
   <g id="patch_101">
    <path d="M 532.133199 227.494732 
L 554.595077 227.494732 
L 554.595077 205.032854 
L 532.133199 205.032854 
z
" clip-path="url(#pf336707dcc)" style="stroke: #000000; stroke-linejoin: miter"/>
   </g>
   <g id="patch_102">
    <path d="M 560.138997 227.655831 
L 582.923072 227.655831 
L 582.923072 204.871756 
L 560.138997 204.871756 
z
" clip-path="url(#pf336707dcc)" style="stroke: #000000; stroke-linejoin: miter"/>
   </g>
   <g id="patch_103">
    <path d="M 588.144033 227.817691 
L 611.251829 227.817691 
L 611.251829 204.709895 
L 588.144033 204.709895 
z
" clip-path="url(#pf336707dcc)" style="stroke: #000000; stroke-linejoin: miter"/>
   </g>
   <g id="patch_104">
    <path d="M 616.241691 227.88693 
L 639.487964 227.88693 
L 639.487964 204.640656 
L 616.241691 204.640656 
z
" clip-path="url(#pf336707dcc)" style="stroke: #000000; stroke-linejoin: miter"/>
   </g>
   <g id="patch_105">
    <path d="M 644.208558 228.08696 
L 667.854891 228.08696 
L 667.854891 204.440626 
L 644.208558 204.440626 
z
" clip-path="url(#pf336707dcc)" style="stroke: #000000; stroke-linejoin: miter"/>
   </g>
   <g id="patch_106">
    <path d="M 672.334909 228.127505 
L 696.062332 228.127505 
L 696.062332 204.400082 
L 672.334909 204.400082 
z
" clip-path="url(#pf336707dcc)" style="stroke: #000000; stroke-linejoin: miter"/>
   </g>
   <g id="patch_107">
    <path d="M 700.440899 228.188411 
L 724.290135 228.188411 
L 724.290135 204.339175 
L 700.440899 204.339175 
z
" clip-path="url(#pf336707dcc)" style="stroke: #000000; stroke-linejoin: miter"/>
   </g>
   <g id="patch_108">
    <path d="M 728.555864 228.240343 
L 752.508964 228.240343 
L 752.508964 204.287243 
L 728.555864 204.287243 
z
" clip-path="url(#pf336707dcc)" style="stroke: #000000; stroke-linejoin: miter"/>
   </g>
   <g id="patch_109">
    <path d="M 756.699643 228.26346 
L 780.698977 228.26346 
L 780.698977 204.264126 
L 756.699643 204.264126 
z
" clip-path="url(#pf336707dcc)" style="stroke: #000000; stroke-linejoin: miter"/>
   </g>
   <g id="patch_110">
    <path d="M 784.78946 228.34054 
L 808.942954 228.34054 
L 808.942954 204.187046 
L 784.78946 204.187046 
z
" clip-path="url(#pf336707dcc)" style="stroke: #000000; stroke-linejoin: miter"/>
   </g>
   <g id="patch_111">
    <path d="M 61.90295 190.720843 
L 67.150843 190.720843 
L 67.150843 185.47295 
L 61.90295 185.47295 
z
" clip-path="url(#pf336707dcc)" style="stroke: #000000; stroke-linejoin: miter"/>
   </g>
   <g id="patch_112">
    <path d="M 90.854974 189.935716 
L 94.532612 189.935716 
L 94.532612 186.258077 
L 90.854974 186.258077 
z
" clip-path="url(#pf336707dcc)" style="stroke: #000000; stroke-linejoin: miter"/>
   </g>
   <g id="patch_113">
    <path d="M 119.168322 189.789265 
L 122.553058 189.789265 
L 122.553058 186.404528 
L 119.168322 186.404528 
z
" clip-path="url(#pf336707dcc)" style="stroke: #000000; stroke-linejoin: miter"/>
   </g>
   <g id="patch_114">
    <path d="M 147.18742 189.937063 
L 150.867753 189.937063 
L 150.867753 186.25673 
L 147.18742 186.25673 
z
" clip-path="url(#pf336707dcc)" style="stroke: #000000; stroke-linejoin: miter"/>
   </g>
   <g id="patch_115">
    <path d="M 174.843553 190.447826 
L 179.545412 190.447826 
L 179.545412 185.745967 
L 174.843553 185.745967 
z
" clip-path="url(#pf336707dcc)" style="stroke: #000000; stroke-linejoin: miter"/>
   </g>
   <g id="patch_116">
    <path d="M 201.934347 191.523929 
L 208.788412 191.523929 
L 208.788412 184.669864 
L 201.934347 184.669864 
z
" clip-path="url(#pf336707dcc)" style="stroke: #000000; stroke-linejoin: miter"/>
   </g>
   <g id="patch_117">
    <path d="M 229.061986 192.563187 
L 237.994566 192.563187 
L 237.994566 183.630606 
L 229.061986 183.630606 
z
" clip-path="url(#pf336707dcc)" style="stroke: #000000; stroke-linejoin: miter"/>
   </g>
   <g id="patch_118">
    <path d="M 256.067154 193.724915 
L 267.323191 193.724915 
L 267.323191 182.468878 
L 256.067154 182.468878 
z
" clip-path="url(#pf336707dcc)" style="stroke: #000000; stroke-linejoin: miter"/>
   </g>
   <g id="patch_119">
    <path d="M 283.536931 194.422034 
L 296.187206 194.422034 
L 296.187206 181.771759 
L 283.536931 181.771759 
z
" clip-path="url(#pf336707dcc)" style="stroke: #000000; stroke-linejoin: miter"/>
   </g>
   <g id="patch_120">
    <path d="M 310.631839 195.494023 
L 325.426092 195.494023 
L 325.426092 180.69977 
L 310.631839 180.69977 
z
" clip-path="url(#pf336707dcc)" style="stroke: #000000; stroke-linejoin: miter"/>
   </g>
   <g id="patch_121">
    <path d="M 337.789567 196.503192 
L 354.602157 196.503192 
L 354.602157 179.690601 
L 337.789567 179.690601 
z
" clip-path="url(#pf336707dcc)" style="stroke: #000000; stroke-linejoin: miter"/>
   </g>
   <g id="patch_122">
    <path d="M 365.204229 197.255426 
L 383.521288 197.255426 
L 383.521288 178.938367 
L 365.204229 178.938367 
z
" clip-path="url(#pf336707dcc)" style="stroke: #000000; stroke-linejoin: miter"/>
   </g>
   <g id="patch_123">
    <path d="M 392.90957 197.716982 
L 412.14974 197.716982 
L 412.14974 178.476811 
L 392.90957 178.476811 
z
" clip-path="url(#pf336707dcc)" style="stroke: #000000; stroke-linejoin: miter"/>
   </g>
   <g id="patch_124">
    <path d="M 420.672729 198.120719 
L 440.720374 198.120719 
L 440.720374 178.073074 
L 420.672729 178.073074 
z
" clip-path="url(#pf336707dcc)" style="stroke: #000000; stroke-linejoin: miter"/>
   </g>
   <g id="patch_125">
    <path d="M 448.456681 198.503664 
L 469.270215 198.503664 
L 469.270215 177.69013 
L 448.456681 177.69013 
z
" clip-path="url(#pf336707dcc)" style="stroke: #000000; stroke-linejoin: miter"/>
   </g>
   <g id="patch_126">
    <path d="M 476.278276 198.848965 
L 497.782413 198.848965 
L 497.782413 177.344828 
L 476.278276 177.344828 
z
" clip-path="url(#pf336707dcc)" style="stroke: #000000; stroke-linejoin: miter"/>
   </g>
   <g id="patch_127">
    <path d="M 504.187737 199.106401 
L 526.206746 199.106401 
L 526.206746 177.087392 
L 504.187737 177.087392 
z
" clip-path="url(#pf336707dcc)" style="stroke: #000000; stroke-linejoin: miter"/>
   </g>
   <g id="patch_128">
    <path d="M 532.116931 199.344103 
L 554.611345 199.344103 
L 554.611345 176.84969 
L 532.116931 176.84969 
z
" clip-path="url(#pf336707dcc)" style="stroke: #000000; stroke-linejoin: miter"/>
   </g>
   <g id="patch_129">
    <path d="M 560.162333 199.465598 
L 582.899736 199.465598 
L 582.899736 176.728195 
L 560.162333 176.728195 
z
" clip-path="url(#pf336707dcc)" style="stroke: #000000; stroke-linejoin: miter"/>
   </g>
   <g id="patch_130">
    <path d="M 588.210527 199.5843 
L 611.185335 199.5843 
L 611.185335 176.609493 
L 588.210527 176.609493 
z
" clip-path="url(#pf336707dcc)" style="stroke: #000000; stroke-linejoin: miter"/>
   </g>
   <g id="patch_131">
    <path d="M 616.308508 199.653216 
L 639.421147 199.653216 
L 639.421147 176.540577 
L 616.308508 176.540577 
z
" clip-path="url(#pf336707dcc)" style="stroke: #000000; stroke-linejoin: miter"/>
   </g>
   <g id="patch_132">
    <path d="M 644.306444 199.822176 
L 667.757004 199.822176 
L 667.757004 176.371617 
L 644.306444 176.371617 
z
" clip-path="url(#pf336707dcc)" style="stroke: #000000; stroke-linejoin: miter"/>
   </g>
   <g id="patch_133">
    <path d="M 672.406702 199.888815 
L 695.990539 199.888815 
L 695.990539 176.304978 
L 672.406702 176.304978 
z
" clip-path="url(#pf336707dcc)" style="stroke: #000000; stroke-linejoin: miter"/>
   </g>
   <g id="patch_134">
    <path d="M 700.545277 199.917137 
L 724.185758 199.917137 
L 724.185758 176.276656 
L 700.545277 176.276656 
z
" clip-path="url(#pf336707dcc)" style="stroke: #000000; stroke-linejoin: miter"/>
   </g>
   <g id="patch_135">
    <path d="M 728.648737 199.980573 
L 752.416091 199.980573 
L 752.416091 176.21322 
L 728.648737 176.21322 
z
" clip-path="url(#pf336707dcc)" style="stroke: #000000; stroke-linejoin: miter"/>
   </g>
   <g id="patch_136">
    <path d="M 756.793745 200.002462 
L 780.604875 200.002462 
L 780.604875 176.191331 
L 756.793745 176.191331 
z
" clip-path="url(#pf336707dcc)" style="stroke: #000000; stroke-linejoin: miter"/>
   </g>
   <g id="patch_137">
    <path d="M 784.844117 200.118987 
L 808.888297 200.118987 
L 808.888297 176.074806 
L 784.844117 176.074806 
z
" clip-path="url(#pf336707dcc)" style="stroke: #000000; stroke-linejoin: miter"/>
   </g>
   <g id="patch_138">
    <path d="M 61.178421 163.278476 
L 67.875372 163.278476 
L 67.875372 156.581524 
L 61.178421 156.581524 
z
" clip-path="url(#pf336707dcc)" style="stroke: #000000; stroke-linejoin: miter"/>
   </g>
   <g id="patch_139">
    <path d="M 90.584907 162.038886 
L 94.802679 162.038886 
L 94.802679 157.821114 
L 90.584907 157.821114 
z
" clip-path="url(#pf336707dcc)" style="stroke: #000000; stroke-linejoin: miter"/>
   </g>
   <g id="patch_140">
    <path d="M 118.962301 161.828389 
L 122.759079 161.828389 
L 122.759079 158.031611 
L 118.962301 158.031611 
z
" clip-path="url(#pf336707dcc)" style="stroke: #000000; stroke-linejoin: miter"/>
   </g>
   <g id="patch_141">
    <path d="M 147.261283 161.696303 
L 150.793889 161.696303 
L 150.793889 158.163697 
L 147.261283 158.163697 
z
" clip-path="url(#pf336707dcc)" style="stroke: #000000; stroke-linejoin: miter"/>
   </g>
   <g id="patch_142">
    <path d="M 174.616766 162.507717 
L 179.7722 162.507717 
L 179.7722 157.352283 
L 174.616766 157.352283 
z
" clip-path="url(#pf336707dcc)" style="stroke: #000000; stroke-linejoin: miter"/>
   </g>
   <g id="patch_143">
    <path d="M 200.645066 164.646313 
L 210.077693 164.646313 
L 210.077693 155.213687 
L 200.645066 155.213687 
z
" clip-path="url(#pf336707dcc)" style="stroke: #000000; stroke-linejoin: miter"/>
   </g>
   <g id="patch_144">
    <path d="M 229.0005 164.457776 
L 238.056052 164.457776 
L 238.056052 155.402224 
L 229.0005 155.402224 
z
" clip-path="url(#pf336707dcc)" style="stroke: #000000; stroke-linejoin: miter"/>
   </g>
   <g id="patch_145">
    <path d="M 256.755661 164.869511 
L 266.634684 164.869511 
L 266.634684 154.990489 
L 256.755661 154.990489 
z
" clip-path="url(#pf336707dcc)" style="stroke: #000000; stroke-linejoin: miter"/>
   </g>
   <g id="patch_146">
    <path d="M 284.071635 165.720434 
L 295.652503 165.720434 
L 295.652503 154.139566 
L 284.071635 154.139566 
z
" clip-path="url(#pf336707dcc)" style="stroke: #000000; stroke-linejoin: miter"/>
   </g>
   <g id="patch_147">
    <path d="M 311.183967 166.774998 
L 324.873964 166.774998 
L 324.873964 153.085002 
L 311.183967 153.085002 
z
" clip-path="url(#pf336707dcc)" style="stroke: #000000; stroke-linejoin: miter"/>
   </g>
   <g id="patch_148">
    <path d="M 338.441817 167.684045 
L 353.949907 167.684045 
L 353.949907 152.175955 
L 338.441817 152.175955 
z
" clip-path="url(#pf336707dcc)" style="stroke: #000000; stroke-linejoin: miter"/>
   </g>
   <g id="patch_149">
    <path d="M 365.94248 168.350278 
L 382.783037 168.350278 
L 382.783037 151.509722 
L 365.94248 151.509722 
z
" clip-path="url(#pf336707dcc)" style="stroke: #000000; stroke-linejoin: miter"/>
   </g>
   <g id="patch_150">
    <path d="M 393.582083 168.877572 
L 411.477227 168.877572 
L 411.477227 150.982428 
L 393.582083 150.982428 
z
" clip-path="url(#pf336707dcc)" style="stroke: #000000; stroke-linejoin: miter"/>
   </g>
   <g id="patch_151">
    <path d="M 421.196241 169.430311 
L 440.196862 169.430311 
L 440.196862 150.429689 
L 421.196241 150.429689 
z
" clip-path="url(#pf336707dcc)" style="stroke: #000000; stroke-linejoin: miter"/>
   </g>
   <g id="patch_152">
    <path d="M 448.98698 169.806468 
L 468.739917 169.806468 
L 468.739917 150.053532 
L 448.98698 150.053532 
z
" clip-path="url(#pf336707dcc)" style="stroke: #000000; stroke-linejoin: miter"/>
   </g>
   <g id="patch_153">
    <path d="M 476.839717 170.120627 
L 497.220972 170.120627 
L 497.220972 149.739373 
L 476.839717 149.739373 
z
" clip-path="url(#pf336707dcc)" style="stroke: #000000; stroke-linejoin: miter"/>
   </g>
   <g id="patch_154">
    <path d="M 504.725549 170.401693 
L 525.668934 170.401693 
L 525.668934 149.458307 
L 504.725549 149.458307 
z
" clip-path="url(#pf336707dcc)" style="stroke: #000000; stroke-linejoin: miter"/>
   </g>
   <g id="patch_155">
    <path d="M 532.62555 170.668588 
L 554.102726 170.668588 
L 554.102726 149.191412 
L 532.62555 149.191412 
z
" clip-path="url(#pf336707dcc)" style="stroke: #000000; stroke-linejoin: miter"/>
   </g>
   <g id="patch_156">
    <path d="M 560.62308 170.837954 
L 582.438989 170.837954 
L 582.438989 149.022046 
L 560.62308 149.022046 
z
" clip-path="url(#pf336707dcc)" style="stroke: #000000; stroke-linejoin: miter"/>
   </g>
   <g id="patch_157">
    <path d="M 588.624063 171.003868 
L 610.771799 171.003868 
L 610.771799 148.856132 
L 588.624063 148.856132 
z
" clip-path="url(#pf336707dcc)" style="stroke: #000000; stroke-linejoin: miter"/>
   </g>
   <g id="patch_158">
    <path d="M 616.64723 171.147598 
L 639.082425 171.147598 
L 639.082425 148.712402 
L 616.64723 148.712402 
z
" clip-path="url(#pf336707dcc)" style="stroke: #000000; stroke-linejoin: miter"/>
   </g>
   <g id="patch_159">
    <path d="M 644.635537 171.326187 
L 667.427911 171.326187 
L 667.427911 148.533813 
L 644.635537 148.533813 
z
" clip-path="url(#pf336707dcc)" style="stroke: #000000; stroke-linejoin: miter"/>
   </g>
   <g id="patch_160">
    <path d="M 672.699467 171.429153 
L 695.697774 171.429153 
L 695.697774 148.430847 
L 672.699467 148.430847 
z
" clip-path="url(#pf336707dcc)" style="stroke: #000000; stroke-linejoin: miter"/>
   </g>
   <g id="patch_161">
    <path d="M 700.734566 171.560951 
L 723.996468 171.560951 
L 723.996468 148.299049 
L 700.734566 148.299049 
z
" clip-path="url(#pf336707dcc)" style="stroke: #000000; stroke-linejoin: miter"/>
   </g>
   <g id="patch_162">
    <path d="M 728.836386 171.626028 
L 752.228442 171.626028 
L 752.228442 148.233972 
L 728.836386 148.233972 
z
" clip-path="url(#pf336707dcc)" style="stroke: #000000; stroke-linejoin: miter"/>
   </g>
   <g id="patch_163">
    <path d="M 756.993387 171.635923 
L 780.405233 171.635923 
L 780.405233 148.224077 
L 756.993387 148.224077 
z
" clip-path="url(#pf336707dcc)" style="stroke: #000000; stroke-linejoin: miter"/>
   </g>
   <g id="patch_164">
    <path d="M 785.062117 171.73409 
L 808.670297 171.73409 
L 808.670297 148.12591 
L 785.062117 148.12591 
z
" clip-path="url(#pf336707dcc)" style="stroke: #000000; stroke-linejoin: miter"/>
   </g>
   <g id="patch_165">
    <path d="M 61.743837 134.546163 
L 67.309956 134.546163 
L 67.309956 128.980044 
L 61.743837 128.980044 
z
" clip-path="url(#pf336707dcc)" style="stroke: #000000; stroke-linejoin: miter"/>
   </g>
   <g id="patch_166">
    <path d="M 90.209262 134.247634 
L 95.178324 134.247634 
L 95.178324 129.278573 
L 90.209262 129.278573 
z
" clip-path="url(#pf336707dcc)" style="stroke: #000000; stroke-linejoin: miter"/>
   </g>
   <g id="patch_167">
    <path d="M 118.410122 134.213671 
L 123.311257 134.213671 
L 123.311257 129.312536 
L 118.410122 129.312536 
z
" clip-path="url(#pf336707dcc)" style="stroke: #000000; stroke-linejoin: miter"/>
   </g>
   <g id="patch_168">
    <path d="M 146.379388 134.411302 
L 151.675785 134.411302 
L 151.675785 129.114905 
L 146.379388 129.114905 
z
" clip-path="url(#pf336707dcc)" style="stroke: #000000; stroke-linejoin: miter"/>
   </g>
   <g id="patch_169">
    <path d="M 173.667632 135.289954 
L 180.721334 135.289954 
L 180.721334 128.236252 
L 173.667632 128.236252 
z
" clip-path="url(#pf336707dcc)" style="stroke: #000000; stroke-linejoin: miter"/>
   </g>
   <g id="patch_170">
    <path d="M 200.504204 136.620278 
L 210.218554 136.620278 
L 210.218554 126.905928 
L 200.504204 126.905928 
z
" clip-path="url(#pf336707dcc)" style="stroke: #000000; stroke-linejoin: miter"/>
   </g>
   <g id="patch_171">
    <path d="M 228.141226 137.150154 
L 238.915326 137.150154 
L 238.915326 126.376053 
L 228.141226 126.376053 
z
" clip-path="url(#pf336707dcc)" style="stroke: #000000; stroke-linejoin: miter"/>
   </g>
   <g id="patch_172">
    <path d="M 255.437433 138.020842 
L 267.952911 138.020842 
L 267.952911 125.505364 
L 255.437433 125.505364 
z
" clip-path="url(#pf336707dcc)" style="stroke: #000000; stroke-linejoin: miter"/>
   </g>
   <g id="patch_173">
    <path d="M 282.677926 138.947246 
L 297.046211 138.947246 
L 297.046211 124.578961 
L 282.677926 124.578961 
z
" clip-path="url(#pf336707dcc)" style="stroke: #000000; stroke-linejoin: miter"/>
   </g>
   <g id="patch_174">
    <path d="M 310.119361 139.672708 
L 325.93857 139.672708 
L 325.93857 123.853499 
L 310.119361 123.853499 
z
" clip-path="url(#pf336707dcc)" style="stroke: #000000; stroke-linejoin: miter"/>
   </g>
   <g id="patch_175">
    <path d="M 337.487288 140.471678 
L 354.904437 140.471678 
L 354.904437 123.054529 
L 337.487288 123.054529 
z
" clip-path="url(#pf336707dcc)" style="stroke: #000000; stroke-linejoin: miter"/>
   </g>
   <g id="patch_176">
    <path d="M 365.207194 140.918668 
L 383.518323 140.918668 
L 383.518323 122.607539 
L 365.207194 122.607539 
z
" clip-path="url(#pf336707dcc)" style="stroke: #000000; stroke-linejoin: miter"/>
   </g>
   <g id="patch_177">
    <path d="M 393.004222 141.288537 
L 412.055089 141.288537 
L 412.055089 122.23767 
L 393.004222 122.23767 
z
" clip-path="url(#pf336707dcc)" style="stroke: #000000; stroke-linejoin: miter"/>
   </g>
   <g id="patch_178">
    <path d="M 420.953388 141.506267 
L 440.439715 141.506267 
L 440.439715 122.01994 
L 420.953388 122.01994 
z
" clip-path="url(#pf336707dcc)" style="stroke: #000000; stroke-linejoin: miter"/>
   </g>
   <g id="patch_179">
    <path d="M 448.826327 141.800224 
L 468.900569 141.800224 
L 468.900569 121.725983 
L 448.826327 121.725983 
z
" clip-path="url(#pf336707dcc)" style="stroke: #000000; stroke-linejoin: miter"/>
   </g>
   <g id="patch_180">
    <path d="M 476.79967 141.993778 
L 497.261019 141.993778 
L 497.261019 121.532429 
L 476.79967 121.532429 
z
" clip-path="url(#pf336707dcc)" style="stroke: #000000; stroke-linejoin: miter"/>
   </g>
   <g id="patch_181">
    <path d="M 504.621186 142.339159 
L 525.773297 142.339159 
L 525.773297 121.187048 
L 504.621186 121.187048 
z
" clip-path="url(#pf336707dcc)" style="stroke: #000000; stroke-linejoin: miter"/>
   </g>
   <g id="patch_182">
    <path d="M 532.609821 142.517421 
L 554.118455 142.517421 
L 554.118455 121.008786 
L 532.609821 121.008786 
z
" clip-path="url(#pf336707dcc)" style="stroke: #000000; stroke-linejoin: miter"/>
   </g>
   <g id="patch_183">
    <path d="M 560.662082 142.632055 
L 582.399987 142.632055 
L 582.399987 120.894151 
L 560.662082 120.894151 
z
" clip-path="url(#pf336707dcc)" style="stroke: #000000; stroke-linejoin: miter"/>
   </g>
   <g id="patch_184">
    <path d="M 588.676581 142.784454 
L 610.719282 142.784454 
L 610.719282 120.741753 
L 588.676581 120.741753 
z
" clip-path="url(#pf336707dcc)" style="stroke: #000000; stroke-linejoin: miter"/>
   </g>
   <g id="patch_185">
    <path d="M 616.663607 142.964324 
L 639.066048 142.964324 
L 639.066048 120.561883 
L 616.663607 120.561883 
z
" clip-path="url(#pf336707dcc)" style="stroke: #000000; stroke-linejoin: miter"/>
   </g>
   <g id="patch_186">
    <path d="M 644.722085 143.072742 
L 667.341363 143.072742 
L 667.341363 120.453464 
L 644.722085 120.453464 
z
" clip-path="url(#pf336707dcc)" style="stroke: #000000; stroke-linejoin: miter"/>
   </g>
   <g id="patch_187">
    <path d="M 672.835227 143.126497 
L 695.562014 143.126497 
L 695.562014 120.39971 
L 672.835227 120.39971 
z
" clip-path="url(#pf336707dcc)" style="stroke: #000000; stroke-linejoin: miter"/>
   </g>
   <g id="patch_188">
    <path d="M 700.876635 143.251986 
L 723.8544 143.251986 
L 723.8544 120.274221 
L 700.876635 120.274221 
z
" clip-path="url(#pf336707dcc)" style="stroke: #000000; stroke-linejoin: miter"/>
   </g>
   <g id="patch_189">
    <path d="M 728.994617 143.3009 
L 752.070211 143.3009 
L 752.070211 120.225307 
L 728.994617 120.225307 
z
" clip-path="url(#pf336707dcc)" style="stroke: #000000; stroke-linejoin: miter"/>
   </g>
   <g id="patch_190">
    <path d="M 757.134044 143.32837 
L 780.264577 143.32837 
L 780.264577 120.197837 
L 757.134044 120.197837 
z
" clip-path="url(#pf336707dcc)" style="stroke: #000000; stroke-linejoin: miter"/>
   </g>
   <g id="patch_191">
    <path d="M 785.242828 143.386483 
L 808.489586 143.386483 
L 808.489586 120.139724 
L 785.242828 120.139724 
z
" clip-path="url(#pf336707dcc)" style="stroke: #000000; stroke-linejoin: miter"/>
   </g>
   <g id="patch_192">
    <path d="M 63.205961 104.917142 
L 65.847832 104.917142 
L 65.847832 102.275272 
L 63.205961 102.275272 
z
" clip-path="url(#pf336707dcc)" style="stroke: #000000; stroke-linejoin: miter"/>
   </g>
   <g id="patch_193">
    <path d="M 91.173725 105.116275 
L 94.213861 105.116275 
L 94.213861 102.076139 
L 91.173725 102.076139 
z
" clip-path="url(#pf336707dcc)" style="stroke: #000000; stroke-linejoin: miter"/>
   </g>
   <g id="patch_194">
    <path d="M 119.405557 105.051339 
L 122.315822 105.051339 
L 122.315822 102.141075 
L 119.405557 102.141075 
z
" clip-path="url(#pf336707dcc)" style="stroke: #000000; stroke-linejoin: miter"/>
   </g>
   <g id="patch_195">
    <path d="M 147.525746 105.098047 
L 150.529426 105.098047 
L 150.529426 102.094367 
L 147.525746 102.094367 
z
" clip-path="url(#pf336707dcc)" style="stroke: #000000; stroke-linejoin: miter"/>
   </g>
   <g id="patch_196">
    <path d="M 175.464386 105.326303 
L 178.924579 105.326303 
L 178.924579 101.86611 
L 175.464386 101.86611 
z
" clip-path="url(#pf336707dcc)" style="stroke: #000000; stroke-linejoin: miter"/>
   </g>
   <g id="patch_197">
    <path d="M 202.65017 106.307417 
L 208.072589 106.307417 
L 208.072589 100.884997 
L 202.65017 100.884997 
z
" clip-path="url(#pf336707dcc)" style="stroke: #000000; stroke-linejoin: miter"/>
   </g>
   <g id="patch_198">
    <path d="M 229.780383 107.344099 
L 237.276168 107.344099 
L 237.276168 99.848314 
L 229.780383 99.848314 
z
" clip-path="url(#pf336707dcc)" style="stroke: #000000; stroke-linejoin: miter"/>
   </g>
   <g id="patch_199">
    <path d="M 257.043478 108.247901 
L 266.346867 108.247901 
L 266.346867 98.944513 
L 257.043478 98.944513 
z
" clip-path="url(#pf336707dcc)" style="stroke: #000000; stroke-linejoin: miter"/>
   </g>
   <g id="patch_200">
    <path d="M 284.506593 108.951683 
L 295.217545 108.951683 
L 295.217545 98.24073 
L 284.506593 98.24073 
z
" clip-path="url(#pf336707dcc)" style="stroke: #000000; stroke-linejoin: miter"/>
   </g>
   <g id="patch_201">
    <path d="M 311.459757 110.165415 
L 324.598174 110.165415 
L 324.598174 97.026999 
L 311.459757 97.026999 
z
" clip-path="url(#pf336707dcc)" style="stroke: #000000; stroke-linejoin: miter"/>
   </g>
   <g id="patch_202">
    <path d="M 338.401335 111.390734 
L 353.990389 111.390734 
L 353.990389 95.80168 
L 338.401335 95.80168 
z
" clip-path="url(#pf336707dcc)" style="stroke: #000000; stroke-linejoin: miter"/>
   </g>
   <g id="patch_203">
    <path d="M 365.903427 112.055539 
L 382.82209 112.055539 
L 382.82209 95.136875 
L 365.903427 95.136875 
z
" clip-path="url(#pf336707dcc)" style="stroke: #000000; stroke-linejoin: miter"/>
   </g>
   <g id="patch_204">
    <path d="M 393.701317 112.424545 
L 411.357993 112.424545 
L 411.357993 94.767869 
L 393.701317 94.767869 
z
" clip-path="url(#pf336707dcc)" style="stroke: #000000; stroke-linejoin: miter"/>
   </g>
   <g id="patch_205">
    <path d="M 421.460673 112.832086 
L 439.932431 112.832086 
L 439.932431 94.360328 
L 421.460673 94.360328 
z
" clip-path="url(#pf336707dcc)" style="stroke: #000000; stroke-linejoin: miter"/>
   </g>
   <g id="patch_206">
    <path d="M 449.27635 113.183305 
L 468.450547 113.183305 
L 468.450547 94.009108 
L 449.27635 94.009108 
z
" clip-path="url(#pf336707dcc)" style="stroke: #000000; stroke-linejoin: miter"/>
   </g>
   <g id="patch_207">
    <path d="M 477.179343 113.447208 
L 496.881346 113.447208 
L 496.881346 93.745206 
L 477.179343 93.745206 
z
" clip-path="url(#pf336707dcc)" style="stroke: #000000; stroke-linejoin: miter"/>
   </g>
   <g id="patch_208">
    <path d="M 504.956038 113.837411 
L 525.438445 113.837411 
L 525.438445 93.355003 
L 504.956038 93.355003 
z
" clip-path="url(#pf336707dcc)" style="stroke: #000000; stroke-linejoin: miter"/>
   </g>
   <g id="patch_209">
    <path d="M 532.925985 114.03436 
L 553.802291 114.03436 
L 553.802291 93.158054 
L 532.925985 93.158054 
z
" clip-path="url(#pf336707dcc)" style="stroke: #000000; stroke-linejoin: miter"/>
   </g>
   <g id="patch_210">
    <path d="M 560.994841 114.1324 
L 582.067228 114.1324 
L 582.067228 93.060013 
L 560.994841 93.060013 
z
" clip-path="url(#pf336707dcc)" style="stroke: #000000; stroke-linejoin: miter"/>
   </g>
   <g id="patch_211">
    <path d="M 588.936228 114.35791 
L 610.459634 114.35791 
L 610.459634 92.834504 
L 588.936228 92.834504 
z
" clip-path="url(#pf336707dcc)" style="stroke: #000000; stroke-linejoin: miter"/>
   </g>
   <g id="patch_212">
    <path d="M 616.948999 114.512036 
L 638.780656 114.512036 
L 638.780656 92.680378 
L 616.948999 92.680378 
z
" clip-path="url(#pf336707dcc)" style="stroke: #000000; stroke-linejoin: miter"/>
   </g>
   <g id="patch_213">
    <path d="M 645.030576 114.597355 
L 667.032873 114.597355 
L 667.032873 92.595058 
L 645.030576 92.595058 
z
" clip-path="url(#pf336707dcc)" style="stroke: #000000; stroke-linejoin: miter"/>
   </g>
   <g id="patch_214">
    <path d="M 673.01165 114.783178 
L 695.385592 114.783178 
L 695.385592 92.409236 
L 673.01165 92.409236 
z
" clip-path="url(#pf336707dcc)" style="stroke: #000000; stroke-linejoin: miter"/>
   </g>
   <g id="patch_215">
    <path d="M 701.096078 114.865646 
L 723.634956 114.865646 
L 723.634956 92.326768 
L 701.096078 92.326768 
z
" clip-path="url(#pf336707dcc)" style="stroke: #000000; stroke-linejoin: miter"/>
   </g>
   <g id="patch_216">
    <path d="M 729.218114 114.910506 
L 751.846713 114.910506 
L 751.846713 92.281907 
L 729.218114 92.281907 
z
" clip-path="url(#pf336707dcc)" style="stroke: #000000; stroke-linejoin: miter"/>
   </g>
   <g id="patch_217">
    <path d="M 757.351213 114.944304 
L 780.047407 114.944304 
L 780.047407 92.24811 
L 757.351213 92.24811 
z
" clip-path="url(#pf336707dcc)" style="stroke: #000000; stroke-linejoin: miter"/>
   </g>
   <g id="patch_218">
    <path d="M 785.416813 115.045601 
L 808.315601 115.045601 
L 808.315601 92.146813 
L 785.416813 92.146813 
z
" clip-path="url(#pf336707dcc)" style="stroke: #000000; stroke-linejoin: miter"/>
   </g>
   <g id="patch_219">
    <path d="M 60.511053 79.445153 
L 68.54274 79.445153 
L 68.54274 71.413467 
L 60.511053 71.413467 
z
" clip-path="url(#pf336707dcc)" style="stroke: #000000; stroke-linejoin: miter"/>
   </g>
   <g id="patch_220">
    <path d="M 89.831725 78.291378 
L 95.555861 78.291378 
L 95.555861 72.567242 
L 89.831725 72.567242 
z
" clip-path="url(#pf336707dcc)" style="stroke: #000000; stroke-linejoin: miter"/>
   </g>
   <g id="patch_221">
    <path d="M 118.395927 77.894073 
L 123.325452 77.894073 
L 123.325452 72.964548 
L 118.395927 72.964548 
z
" clip-path="url(#pf336707dcc)" style="stroke: #000000; stroke-linejoin: miter"/>
   </g>
   <g id="patch_222">
    <path d="M 146.229207 78.22769 
L 151.825966 78.22769 
L 151.825966 72.630931 
L 146.229207 72.630931 
z
" clip-path="url(#pf336707dcc)" style="stroke: #000000; stroke-linejoin: miter"/>
   </g>
   <g id="patch_223">
    <path d="M 173.461534 79.162259 
L 180.927431 79.162259 
L 180.927431 71.696362 
L 173.461534 71.696362 
z
" clip-path="url(#pf336707dcc)" style="stroke: #000000; stroke-linejoin: miter"/>
   </g>
   <g id="patch_224">
    <path d="M 199.901089 80.889601 
L 210.82167 80.889601 
L 210.82167 69.96902 
L 199.901089 69.96902 
z
" clip-path="url(#pf336707dcc)" style="stroke: #000000; stroke-linejoin: miter"/>
   </g>
   <g id="patch_225">
    <path d="M 225.530503 83.427083 
L 241.526049 83.427083 
L 241.526049 67.431537 
L 225.530503 67.431537 
z
" clip-path="url(#pf336707dcc)" style="stroke: #000000; stroke-linejoin: miter"/>
   </g>
   <g id="patch_226">
    <path d="M 251.798479 85.326004 
L 271.591866 85.326004 
L 271.591866 65.532617 
L 251.798479 65.532617 
z
" clip-path="url(#pf336707dcc)" style="stroke: #000000; stroke-linejoin: miter"/>
   </g>
   <g id="patch_227">
    <path d="M 278.714472 86.576907 
L 301.009666 86.576907 
L 301.009666 64.281713 
L 278.714472 64.281713 
z
" clip-path="url(#pf336707dcc)" style="stroke: #000000; stroke-linejoin: miter"/>
   </g>
   <g id="patch_228">
    <path d="M 306.559545 86.898731 
L 329.498386 86.898731 
L 329.498386 63.95989 
L 306.559545 63.95989 
z
" clip-path="url(#pf336707dcc)" style="stroke: #000000; stroke-linejoin: miter"/>
   </g>
   <g id="patch_229">
    <path d="M 334.317916 87.307256 
L 358.073808 87.307256 
L 358.073808 63.551364 
L 334.317916 63.551364 
z
" clip-path="url(#pf336707dcc)" style="stroke: #000000; stroke-linejoin: miter"/>
   </g>
   <g id="patch_230">
    <path d="M 362.23081 87.561259 
L 386.494707 87.561259 
L 386.494707 63.297362 
L 362.23081 63.297362 
z
" clip-path="url(#pf336707dcc)" style="stroke: #000000; stroke-linejoin: miter"/>
   </g>
   <g id="patch_231">
    <path d="M 390.262803 87.696162 
L 414.796507 87.696162 
L 414.796507 63.162458 
L 390.262803 63.162458 
z
" clip-path="url(#pf336707dcc)" style="stroke: #000000; stroke-linejoin: miter"/>
   </g>
   <g id="patch_232">
    <path d="M 418.390223 87.735639 
L 443.00288 87.735639 
L 443.00288 63.122982 
L 418.390223 63.122982 
z
" clip-path="url(#pf336707dcc)" style="stroke: #000000; stroke-linejoin: miter"/>
   </g>
   <g id="patch_233">
    <path d="M 446.507421 87.785338 
L 471.219476 87.785338 
L 471.219476 63.073283 
L 446.507421 63.073283 
z
" clip-path="url(#pf336707dcc)" style="stroke: #000000; stroke-linejoin: miter"/>
   </g>
   <g id="patch_234">
    <path d="M 474.639684 87.819971 
L 499.421006 87.819971 
L 499.421006 63.038649 
L 474.639684 63.038649 
z
" clip-path="url(#pf336707dcc)" style="stroke: #000000; stroke-linejoin: miter"/>
   </g>
   <g id="patch_235">
    <path d="M 502.77441 87.852142 
L 527.620073 87.852142 
L 527.620073 63.006479 
L 502.77441 63.006479 
z
" clip-path="url(#pf336707dcc)" style="stroke: #000000; stroke-linejoin: miter"/>
   </g>
   <g id="patch_236">
    <path d="M 530.91231 87.881138 
L 555.815965 87.881138 
L 555.815965 62.977483 
L 530.91231 62.977483 
z
" clip-path="url(#pf336707dcc)" style="stroke: #000000; stroke-linejoin: miter"/>
   </g>
   <g id="patch_237">
    <path d="M 559.073025 87.88732 
L 583.989044 87.88732 
L 583.989044 62.9713 
L 559.073025 62.9713 
z
" clip-path="url(#pf336707dcc)" style="stroke: #000000; stroke-linejoin: miter"/>
   </g>
   <g id="patch_238">
    <path d="M 587.23542 87.891821 
L 612.160442 87.891821 
L 612.160442 62.966799 
L 587.23542 62.966799 
z
" clip-path="url(#pf336707dcc)" style="stroke: #000000; stroke-linejoin: miter"/>
   </g>
   <g id="patch_239">
    <path d="M 615.395989 87.898149 
L 640.333666 87.898149 
L 640.333666 62.960472 
L 615.395989 62.960472 
z
" clip-path="url(#pf336707dcc)" style="stroke: #000000; stroke-linejoin: miter"/>
   </g>
   <g id="patch_240">
    <path d="M 643.529302 87.931732 
L 668.534146 87.931732 
L 668.534146 62.926888 
L 643.529302 62.926888 
z
" clip-path="url(#pf336707dcc)" style="stroke: #000000; stroke-linejoin: miter"/>
   </g>
   <g id="patch_241">
    <path d="M 671.695627 87.932304 
L 696.701614 87.932304 
L 696.701614 62.926317 
L 671.695627 62.926317 
z
" clip-path="url(#pf336707dcc)" style="stroke: #000000; stroke-linejoin: miter"/>
   </g>
   <g id="patch_242">
    <path d="M 699.852374 87.942454 
L 724.878661 87.942454 
L 724.878661 62.916167 
L 699.852374 62.916167 
z
" clip-path="url(#pf336707dcc)" style="stroke: #000000; stroke-linejoin: miter"/>
   </g>
   <g id="patch_243">
    <path d="M 728.000876 87.960848 
L 753.063952 87.960848 
L 753.063952 62.897772 
L 728.000876 62.897772 
z
" clip-path="url(#pf336707dcc)" style="stroke: #000000; stroke-linejoin: miter"/>
   </g>
   <g id="patch_244">
    <path d="M 756.183287 87.945334 
L 781.215334 87.945334 
L 781.215334 62.913287 
L 756.183287 62.913287 
z
" clip-path="url(#pf336707dcc)" style="stroke: #000000; stroke-linejoin: miter"/>
   </g>
   <g id="patch_245">
    <path d="M 784.329589 87.965929 
L 809.402825 87.965929 
L 809.402825 62.892692 
L 784.329589 62.892692 
z
" clip-path="url(#pf336707dcc)" style="stroke: #000000; stroke-linejoin: miter"/>
   </g>
   <g id="matplotlib.axis_1">
    <g id="xtick_1">
     <g id="line2d_1">
      <defs>
       <path id="m786bc85f63" d="M 0 0 
L 0 3.5 
" style="stroke: #000000; stroke-width: 0.8"/>
      </defs>
      <g>
       <use xlink:href="#m786bc85f63" x="64.526897" y="328.931379" style="stroke: #000000; stroke-width: 0.8"/>
      </g>
     </g>
     <g id="text_1">
      <!-- 1 -->
      <g transform="translate(61.51674 350.082942) scale(0.1 -0.1)">
       <defs>
        <path id="DejaVuSansMono-31" d="M 844 531 
L 1825 531 
L 1825 4097 
L 769 3859 
L 769 4434 
L 1819 4666 
L 2450 4666 
L 2450 531 
L 3419 531 
L 3419 0 
L 844 0 
L 844 531 
z
" transform="scale(0.015625)"/>
       </defs>
       <use xlink:href="#DejaVuSansMono-31"/>
      </g>
     </g>
    </g>
    <g id="xtick_2">
     <g id="line2d_2">
      <g>
       <use xlink:href="#m786bc85f63" x="796.866207" y="328.931379" style="stroke: #000000; stroke-width: 0.8"/>
      </g>
     </g>
     <g id="text_2">
      <!-- 10000 -->
      <g transform="translate(781.815426 350.082942) scale(0.1 -0.1)">
       <defs>
        <path id="DejaVuSansMono-30" d="M 1509 2344 
Q 1509 2516 1629 2641 
Q 1750 2766 1919 2766 
Q 2094 2766 2219 2641 
Q 2344 2516 2344 2344 
Q 2344 2169 2220 2047 
Q 2097 1925 1919 1925 
Q 1744 1925 1626 2044 
Q 1509 2163 1509 2344 
z
M 1925 4250 
Q 1484 4250 1267 3775 
Q 1050 3300 1050 2328 
Q 1050 1359 1267 884 
Q 1484 409 1925 409 
Q 2369 409 2586 884 
Q 2803 1359 2803 2328 
Q 2803 3300 2586 3775 
Q 2369 4250 1925 4250 
z
M 1925 4750 
Q 2672 4750 3055 4137 
Q 3438 3525 3438 2328 
Q 3438 1134 3055 521 
Q 2672 -91 1925 -91 
Q 1178 -91 797 521 
Q 416 1134 416 2328 
Q 416 3525 797 4137 
Q 1178 4750 1925 4750 
z
" transform="scale(0.015625)"/>
       </defs>
       <use xlink:href="#DejaVuSansMono-31"/>
       <use xlink:href="#DejaVuSansMono-30" x="60.205078"/>
       <use xlink:href="#DejaVuSansMono-30" x="120.410156"/>
       <use xlink:href="#DejaVuSansMono-30" x="180.615234"/>
       <use xlink:href="#DejaVuSansMono-30" x="240.820312"/>
      </g>
     </g>
    </g>
   </g>
   <g id="matplotlib.axis_2">
    <g id="ytick_1">
     <g id="line2d_3">
      <defs>
       <path id="mf2ead2521a" d="M 0 0 
L -3.5 0 
" style="stroke: #000000; stroke-width: 0.8"/>
      </defs>
      <g>
       <use xlink:href="#mf2ead2521a" x="36.36" y="300.764483" style="stroke: #000000; stroke-width: 0.8"/>
      </g>
     </g>
     <g id="text_3">
      <!-- 2 -->
      <g transform="translate(16.839687 304.590264) scale(0.1 -0.1)">
       <defs>
        <path id="DejaVuSansMono-32" d="M 1166 531 
L 3309 531 
L 3309 0 
L 475 0 
L 475 531 
Q 1059 1147 1496 1619 
Q 1934 2091 2100 2284 
Q 2413 2666 2522 2902 
Q 2631 3138 2631 3384 
Q 2631 3775 2401 3997 
Q 2172 4219 1772 4219 
Q 1488 4219 1175 4116 
Q 863 4013 513 3803 
L 513 4441 
Q 834 4594 1145 4672 
Q 1456 4750 1759 4750 
Q 2444 4750 2861 4386 
Q 3278 4022 3278 3431 
Q 3278 3131 3139 2831 
Q 3000 2531 2688 2169 
Q 2513 1966 2180 1606 
Q 1847 1247 1166 531 
z
" transform="scale(0.015625)"/>
       </defs>
       <use xlink:href="#DejaVuSansMono-32"/>
      </g>
     </g>
    </g>
    <g id="ytick_2">
     <g id="line2d_4">
      <g>
       <use xlink:href="#mf2ead2521a" x="36.36" y="272.597586" style="stroke: #000000; stroke-width: 0.8"/>
      </g>
     </g>
     <g id="text_4">
      <!-- 3 -->
      <g transform="translate(16.839687 276.423367) scale(0.1 -0.1)">
       <defs>
        <path id="DejaVuSansMono-33" d="M 2425 2497 
Q 2884 2375 3128 2064 
Q 3372 1753 3372 1288 
Q 3372 644 2939 276 
Q 2506 -91 1741 -91 
Q 1419 -91 1084 -31 
Q 750 28 428 141 
L 428 769 
Q 747 603 1056 522 
Q 1366 441 1672 441 
Q 2191 441 2469 675 
Q 2747 909 2747 1350 
Q 2747 1756 2469 1995 
Q 2191 2234 1716 2234 
L 1234 2234 
L 1234 2753 
L 1716 2753 
Q 2150 2753 2394 2943 
Q 2638 3134 2638 3475 
Q 2638 3834 2411 4026 
Q 2184 4219 1766 4219 
Q 1488 4219 1191 4156 
Q 894 4094 569 3969 
L 569 4550 
Q 947 4650 1242 4700 
Q 1538 4750 1766 4750 
Q 2447 4750 2855 4408 
Q 3263 4066 3263 3500 
Q 3263 3116 3048 2859 
Q 2834 2603 2425 2497 
z
" transform="scale(0.015625)"/>
       </defs>
       <use xlink:href="#DejaVuSansMono-33"/>
      </g>
     </g>
    </g>
    <g id="ytick_3">
     <g id="line2d_5">
      <g>
       <use xlink:href="#mf2ead2521a" x="36.36" y="244.43069" style="stroke: #000000; stroke-width: 0.8"/>
      </g>
     </g>
     <g id="text_5">
      <!-- 5 -->
      <g transform="translate(16.839687 248.256471) scale(0.1 -0.1)">
       <defs>
        <path id="DejaVuSansMono-35" d="M 647 4666 
L 3009 4666 
L 3009 4134 
L 1222 4134 
L 1222 2988 
Q 1356 3038 1492 3061 
Q 1628 3084 1766 3084 
Q 2491 3084 2916 2656 
Q 3341 2228 3341 1497 
Q 3341 759 2895 334 
Q 2450 -91 1678 -91 
Q 1306 -91 998 -41 
Q 691 9 447 109 
L 447 750 
Q 734 594 1025 517 
Q 1316 441 1619 441 
Q 2141 441 2423 716 
Q 2706 991 2706 1497 
Q 2706 1997 2414 2275 
Q 2122 2553 1600 2553 
Q 1347 2553 1106 2495 
Q 866 2438 647 2322 
L 647 4666 
z
" transform="scale(0.015625)"/>
       </defs>
       <use xlink:href="#DejaVuSansMono-35"/>
      </g>
     </g>
    </g>
    <g id="ytick_4">
     <g id="line2d_6">
      <g>
       <use xlink:href="#mf2ead2521a" x="36.36" y="216.263793" style="stroke: #000000; stroke-width: 0.8"/>
      </g>
     </g>
     <g id="text_6">
      <!-- 7 -->
      <g transform="translate(16.839687 220.089574) scale(0.1 -0.1)">
       <defs>
        <path id="DejaVuSansMono-37" d="M 434 4666 
L 3372 4666 
L 3372 4397 
L 1703 0 
L 1044 0 
L 2669 4134 
L 434 4134 
L 434 4666 
z
" transform="scale(0.015625)"/>
       </defs>
       <use xlink:href="#DejaVuSansMono-37"/>
      </g>
     </g>
    </g>
    <g id="ytick_5">
     <g id="line2d_7">
      <g>
       <use xlink:href="#mf2ead2521a" x="36.36" y="188.096897" style="stroke: #000000; stroke-width: 0.8"/>
      </g>
     </g>
     <g id="text_7">
      <!-- 11 -->
      <g transform="translate(10.819375 191.922678) scale(0.1 -0.1)">
       <use xlink:href="#DejaVuSansMono-31"/>
       <use xlink:href="#DejaVuSansMono-31" x="60.205078"/>
      </g>
     </g>
    </g>
    <g id="ytick_6">
     <g id="line2d_8">
      <g>
       <use xlink:href="#mf2ead2521a" x="36.36" y="159.93" style="stroke: #000000; stroke-width: 0.8"/>
      </g>
     </g>
     <g id="text_8">
      <!-- 13 -->
      <g transform="translate(10.819375 163.755781) scale(0.1 -0.1)">
       <use xlink:href="#DejaVuSansMono-31"/>
       <use xlink:href="#DejaVuSansMono-33" x="60.205078"/>
      </g>
     </g>
    </g>
    <g id="ytick_7">
     <g id="line2d_9">
      <g>
       <use xlink:href="#mf2ead2521a" x="36.36" y="131.763103" style="stroke: #000000; stroke-width: 0.8"/>
      </g>
     </g>
     <g id="text_9">
      <!-- 17 -->
      <g transform="translate(10.819375 135.588885) scale(0.1 -0.1)">
       <use xlink:href="#DejaVuSansMono-31"/>
       <use xlink:href="#DejaVuSansMono-37" x="60.205078"/>
      </g>
     </g>
    </g>
    <g id="ytick_8">
     <g id="line2d_10">
      <g>
       <use xlink:href="#mf2ead2521a" x="36.36" y="103.596207" style="stroke: #000000; stroke-width: 0.8"/>
      </g>
     </g>
     <g id="text_10">
      <!-- 19 -->
      <g transform="translate(10.819375 107.421988) scale(0.1 -0.1)">
       <defs>
        <path id="DejaVuSansMono-39" d="M 1863 2069 
Q 2266 2069 2495 2359 
Q 2725 2650 2725 3163 
Q 2725 3675 2495 3965 
Q 2266 4256 1863 4256 
Q 1444 4256 1231 3979 
Q 1019 3703 1019 3163 
Q 1019 2619 1230 2344 
Q 1441 2069 1863 2069 
z
M 738 97 
L 738 678 
Q 934 563 1156 502 
Q 1378 441 1619 441 
Q 2219 441 2526 892 
Q 2834 1344 2834 2222 
Q 2688 1909 2422 1742 
Q 2156 1575 1813 1575 
Q 1138 1575 767 1990 
Q 397 2406 397 3169 
Q 397 3922 776 4336 
Q 1156 4750 1850 4750 
Q 2663 4750 3041 4165 
Q 3419 3581 3419 2328 
Q 3419 1150 2964 529 
Q 2509 -91 1644 -91 
Q 1416 -91 1184 -42 
Q 953 6 738 97 
z
" transform="scale(0.015625)"/>
       </defs>
       <use xlink:href="#DejaVuSansMono-31"/>
       <use xlink:href="#DejaVuSansMono-39" x="60.205078"/>
      </g>
     </g>
    </g>
    <g id="ytick_9">
     <g id="line2d_11">
      <g>
       <use xlink:href="#mf2ead2521a" x="36.36" y="75.42931" style="stroke: #000000; stroke-width: 0.8"/>
      </g>
     </g>
     <g id="text_11">
      <!--  -->
      <g transform="translate(16.839687 79.255092) scale(0.1 -0.1)">
       <defs>
        <path id="DejaVuSansMono-2119" d="M 506 4353 
L 506 313 
L 1106 313 
L 1106 4353 
L 506 4353 
z
M 1406 4353 
L 1406 2284 
L 2306 2284 
Q 2378 2284 2447 2291 
L 2447 4347 
Q 2378 4353 2306 4353 
L 1406 4353 
z
M 206 4666 
L 2166 4666 
Q 2913 4666 3297 4323 
Q 3681 3981 3681 3322 
Q 3681 2656 3297 2315 
Q 2913 1975 2163 1975 
L 1406 1975 
L 1406 0 
L 206 0 
L 206 4666 
z
M 2759 4281 
L 2759 2359 
Q 2941 2428 3075 2556 
Q 3353 2825 3353 3322 
Q 3353 3816 3078 4084 
Q 2947 4213 2759 4281 
z
" transform="scale(0.015625)"/>
       </defs>
       <use xlink:href="#DejaVuSansMono-2119"/>
      </g>
     </g>
    </g>
   </g>
  </g>
 </g>
 <defs>
  <clipPath id="pf336707dcc">
   <rect x="36.36" y="19.095517" width="816.84" height="309.835862"/>
  </clipPath>
 </defs>
</svg>
