<?xml version="1.0" encoding="utf-8" standalone="no"?>
<!DOCTYPE svg PUBLIC "-//W3C//DTD SVG 1.1//EN"
  "http://www.w3.org/Graphics/SVG/1.1/DTD/svg11.dtd">
<svg xmlns:xlink="http://www.w3.org/1999/xlink" width="864pt" height="432pt" viewBox="0 0 864 432" xmlns="http://www.w3.org/2000/svg" version="1.1">
 <metadata>
  <rdf:RDF xmlns:dc="http://purl.org/dc/elements/1.1/" xmlns:cc="http://creativecommons.org/ns#" xmlns:rdf="http://www.w3.org/1999/02/22-rdf-syntax-ns#">
   <cc:Work>
    <dc:type rdf:resource="http://purl.org/dc/dcmitype/StillImage"/>
    <dc:date>2024-09-18T12:49:23.813676</dc:date>
    <dc:format>image/svg+xml</dc:format>
    <dc:creator>
     <cc:Agent>
      <dc:title>Matplotlib v3.9.2, https://matplotlib.org/</dc:title>
     </cc:Agent>
    </dc:creator>
   </cc:Work>
  </rdf:RDF>
 </metadata>
 <defs>
  <style type="text/css">*{stroke-linejoin: round; stroke-linecap: butt}</style>
 </defs>
 <g id="figure_1">
  <g id="patch_1">
   <path d="M 0 432 
L 864 432 
L 864 0 
L 0 0 
z
" style="fill: #ffffff"/>
  </g>
  <g id="axes_1">
   <g id="patch_2">
    <path d="M 35.89 404.12 
L 853.2 404.12 
L 853.2 10.8 
L 35.89 10.8 
z
" style="fill: #ffffff"/>
   </g>
   <g id="matplotlib.axis_1">
    <g id="xtick_1">
     <g id="line2d_1">
      <defs>
       <path id="mfa353ac70b" d="M 0 0 
L 0 3.5 
" style="stroke: #000000; stroke-width: 0.8"/>
      </defs>
      <g>
       <use xlink:href="#mfa353ac70b" x="194.186534" y="404.12" style="stroke: #000000; stroke-width: 0.8"/>
      </g>
     </g>
     <g id="text_1">
      <!-- 200 -->
      <g transform="translate(185.156065 418.771563) scale(0.1 -0.1)">
       <defs>
        <path id="DejaVuSansMono-32" d="M 1166 531 
L 3309 531 
L 3309 0 
L 475 0 
L 475 531 
Q 1059 1147 1496 1619 
Q 1934 2091 2100 2284 
Q 2413 2666 2522 2902 
Q 2631 3138 2631 3384 
Q 2631 3775 2401 3997 
Q 2172 4219 1772 4219 
Q 1488 4219 1175 4116 
Q 863 4013 513 3803 
L 513 4441 
Q 834 4594 1145 4672 
Q 1456 4750 1759 4750 
Q 2444 4750 2861 4386 
Q 3278 4022 3278 3431 
Q 3278 3131 3139 2831 
Q 3000 2531 2688 2169 
Q 2513 1966 2180 1606 
Q 1847 1247 1166 531 
z
" transform="scale(0.015625)"/>
        <path id="DejaVuSansMono-30" d="M 1509 2344 
Q 1509 2516 1629 2641 
Q 1750 2766 1919 2766 
Q 2094 2766 2219 2641 
Q 2344 2516 2344 2344 
Q 2344 2169 2220 2047 
Q 2097 1925 1919 1925 
Q 1744 1925 1626 2044 
Q 1509 2163 1509 2344 
z
M 1925 4250 
Q 1484 4250 1267 3775 
Q 1050 3300 1050 2328 
Q 1050 1359 1267 884 
Q 1484 409 1925 409 
Q 2369 409 2586 884 
Q 2803 1359 2803 2328 
Q 2803 3300 2586 3775 
Q 2369 4250 1925 4250 
z
M 1925 4750 
Q 2672 4750 3055 4137 
Q 3438 3525 3438 2328 
Q 3438 1134 3055 521 
Q 2672 -91 1925 -91 
Q 1178 -91 797 521 
Q 416 1134 416 2328 
Q 416 3525 797 4137 
Q 1178 4750 1925 4750 
z
" transform="scale(0.015625)"/>
       </defs>
       <use xlink:href="#DejaVuSansMono-32"/>
       <use xlink:href="#DejaVuSansMono-30" x="60.205078"/>
       <use xlink:href="#DejaVuSansMono-30" x="120.410156"/>
      </g>
     </g>
    </g>
    <g id="xtick_2">
     <g id="line2d_2">
      <g>
       <use xlink:href="#mfa353ac70b" x="360.814465" y="404.12" style="stroke: #000000; stroke-width: 0.8"/>
      </g>
     </g>
     <g id="text_2">
      <!-- 400 -->
      <g transform="translate(351.783996 418.771563) scale(0.1 -0.1)">
       <defs>
        <path id="DejaVuSansMono-34" d="M 2297 4091 
L 825 1625 
L 2297 1625 
L 2297 4091 
z
M 2194 4666 
L 2925 4666 
L 2925 1625 
L 3547 1625 
L 3547 1113 
L 2925 1113 
L 2925 0 
L 2297 0 
L 2297 1113 
L 319 1113 
L 319 1709 
L 2194 4666 
z
" transform="scale(0.015625)"/>
       </defs>
       <use xlink:href="#DejaVuSansMono-34"/>
       <use xlink:href="#DejaVuSansMono-30" x="60.205078"/>
       <use xlink:href="#DejaVuSansMono-30" x="120.410156"/>
      </g>
     </g>
    </g>
    <g id="xtick_3">
     <g id="line2d_3">
      <g>
       <use xlink:href="#mfa353ac70b" x="527.442396" y="404.12" style="stroke: #000000; stroke-width: 0.8"/>
      </g>
     </g>
     <g id="text_3">
      <!-- 600 -->
      <g transform="translate(518.411927 418.771563) scale(0.1 -0.1)">
       <defs>
        <path id="DejaVuSansMono-36" d="M 3097 4563 
L 3097 3981 
Q 2900 4097 2678 4158 
Q 2456 4219 2216 4219 
Q 1616 4219 1306 3767 
Q 997 3316 997 2438 
Q 1147 2750 1412 2917 
Q 1678 3084 2022 3084 
Q 2697 3084 3067 2670 
Q 3438 2256 3438 1497 
Q 3438 741 3056 325 
Q 2675 -91 1984 -91 
Q 1172 -91 794 492 
Q 416 1075 416 2328 
Q 416 3509 870 4129 
Q 1325 4750 2188 4750 
Q 2419 4750 2650 4701 
Q 2881 4653 3097 4563 
z
M 1972 2591 
Q 1569 2591 1337 2300 
Q 1106 2009 1106 1497 
Q 1106 984 1337 693 
Q 1569 403 1972 403 
Q 2391 403 2603 679 
Q 2816 956 2816 1497 
Q 2816 2041 2603 2316 
Q 2391 2591 1972 2591 
z
" transform="scale(0.015625)"/>
       </defs>
       <use xlink:href="#DejaVuSansMono-36"/>
       <use xlink:href="#DejaVuSansMono-30" x="60.205078"/>
       <use xlink:href="#DejaVuSansMono-30" x="120.410156"/>
      </g>
     </g>
    </g>
    <g id="xtick_4">
     <g id="line2d_4">
      <g>
       <use xlink:href="#mfa353ac70b" x="694.070326" y="404.12" style="stroke: #000000; stroke-width: 0.8"/>
      </g>
     </g>
     <g id="text_4">
      <!-- 800 -->
      <g transform="translate(685.039857 418.771563) scale(0.1 -0.1)">
       <defs>
        <path id="DejaVuSansMono-38" d="M 1925 2216 
Q 1503 2216 1273 1980 
Q 1044 1744 1044 1313 
Q 1044 881 1276 642 
Q 1509 403 1925 403 
Q 2350 403 2579 639 
Q 2809 875 2809 1313 
Q 2809 1741 2576 1978 
Q 2344 2216 1925 2216 
z
M 1375 2478 
Q 972 2581 745 2862 
Q 519 3144 519 3541 
Q 519 4097 897 4423 
Q 1275 4750 1925 4750 
Q 2578 4750 2956 4423 
Q 3334 4097 3334 3541 
Q 3334 3144 3107 2862 
Q 2881 2581 2478 2478 
Q 2947 2375 3195 2062 
Q 3444 1750 3444 1253 
Q 3444 622 3041 265 
Q 2638 -91 1925 -91 
Q 1213 -91 811 264 
Q 409 619 409 1247 
Q 409 1747 657 2061 
Q 906 2375 1375 2478 
z
M 1147 3481 
Q 1147 3106 1347 2909 
Q 1547 2713 1925 2713 
Q 2306 2713 2506 2909 
Q 2706 3106 2706 3481 
Q 2706 3863 2507 4063 
Q 2309 4263 1925 4263 
Q 1547 4263 1347 4061 
Q 1147 3859 1147 3481 
z
" transform="scale(0.015625)"/>
       </defs>
       <use xlink:href="#DejaVuSansMono-38"/>
       <use xlink:href="#DejaVuSansMono-30" x="60.205078"/>
       <use xlink:href="#DejaVuSansMono-30" x="120.410156"/>
      </g>
     </g>
    </g>
   </g>
   <g id="matplotlib.axis_2">
    <g id="ytick_1">
     <g id="line2d_5">
      <defs>
       <path id="m367b023a53" d="M 0 0 
L -3.5 0 
" style="stroke: #000000; stroke-width: 0.8"/>
      </defs>
      <g>
       <use xlink:href="#m367b023a53" x="35.89" y="386.241818" style="stroke: #000000; stroke-width: 0.8"/>
      </g>
     </g>
     <g id="text_5">
      <!-- 0.0 -->
      <g transform="translate(10.829063 390.067599) scale(0.1 -0.1)">
       <defs>
        <path id="DejaVuSansMono-2e" d="M 1528 953 
L 2316 953 
L 2316 0 
L 1528 0 
L 1528 953 
z
" transform="scale(0.015625)"/>
       </defs>
       <use xlink:href="#DejaVuSansMono-30"/>
       <use xlink:href="#DejaVuSansMono-2e" x="60.205078"/>
       <use xlink:href="#DejaVuSansMono-30" x="120.410156"/>
      </g>
     </g>
    </g>
    <g id="ytick_2">
     <g id="line2d_6">
      <g>
       <use xlink:href="#m367b023a53" x="35.89" y="314.729091" style="stroke: #000000; stroke-width: 0.8"/>
      </g>
     </g>
     <g id="text_6">
      <!-- 0.2 -->
      <g transform="translate(10.829063 318.554872) scale(0.1 -0.1)">
       <use xlink:href="#DejaVuSansMono-30"/>
       <use xlink:href="#DejaVuSansMono-2e" x="60.205078"/>
       <use xlink:href="#DejaVuSansMono-32" x="120.410156"/>
      </g>
     </g>
    </g>
    <g id="ytick_3">
     <g id="line2d_7">
      <g>
       <use xlink:href="#m367b023a53" x="35.89" y="243.216364" style="stroke: #000000; stroke-width: 0.8"/>
      </g>
     </g>
     <g id="text_7">
      <!-- 0.4 -->
      <g transform="translate(10.829063 247.042145) scale(0.1 -0.1)">
       <use xlink:href="#DejaVuSansMono-30"/>
       <use xlink:href="#DejaVuSansMono-2e" x="60.205078"/>
       <use xlink:href="#DejaVuSansMono-34" x="120.410156"/>
      </g>
     </g>
    </g>
    <g id="ytick_4">
     <g id="line2d_8">
      <g>
       <use xlink:href="#m367b023a53" x="35.89" y="171.703636" style="stroke: #000000; stroke-width: 0.8"/>
      </g>
     </g>
     <g id="text_8">
      <!-- 0.6 -->
      <g transform="translate(10.829063 175.529418) scale(0.1 -0.1)">
       <use xlink:href="#DejaVuSansMono-30"/>
       <use xlink:href="#DejaVuSansMono-2e" x="60.205078"/>
       <use xlink:href="#DejaVuSansMono-36" x="120.410156"/>
      </g>
     </g>
    </g>
    <g id="ytick_5">
     <g id="line2d_9">
      <g>
       <use xlink:href="#m367b023a53" x="35.89" y="100.190909" style="stroke: #000000; stroke-width: 0.8"/>
      </g>
     </g>
     <g id="text_9">
      <!-- 0.8 -->
      <g transform="translate(10.829063 104.01669) scale(0.1 -0.1)">
       <use xlink:href="#DejaVuSansMono-30"/>
       <use xlink:href="#DejaVuSansMono-2e" x="60.205078"/>
       <use xlink:href="#DejaVuSansMono-38" x="120.410156"/>
      </g>
     </g>
    </g>
    <g id="ytick_6">
     <g id="line2d_10">
      <g>
       <use xlink:href="#m367b023a53" x="35.89" y="28.678182" style="stroke: #000000; stroke-width: 0.8"/>
      </g>
     </g>
     <g id="text_10">
      <!-- 1.0 -->
      <g transform="translate(10.829063 32.503963) scale(0.1 -0.1)">
       <defs>
        <path id="DejaVuSansMono-31" d="M 844 531 
L 1825 531 
L 1825 4097 
L 769 3859 
L 769 4434 
L 1819 4666 
L 2450 4666 
L 2450 531 
L 3419 531 
L 3419 0 
L 844 0 
L 844 531 
z
" transform="scale(0.015625)"/>
       </defs>
       <use xlink:href="#DejaVuSansMono-31"/>
       <use xlink:href="#DejaVuSansMono-2e" x="60.205078"/>
       <use xlink:href="#DejaVuSansMono-30" x="120.410156"/>
      </g>
     </g>
    </g>
   </g>
   <g id="line2d_11">
    <path d="M 27.558603 365.296461 
L 28.391743 375.736276 
L 29.224883 375.736276 
L 30.058022 386.241818 
L 90.044077 386.241818 
L 90.877217 385.248586 
L 91.710357 385.248586 
L 92.543496 383.328781 
L 93.376636 383.328781 
L 94.209776 380.991764 
L 95.042915 379.991586 
L 97.542334 372.934205 
L 98.375474 368.464659 
L 99.208614 368.471509 
L 100.041753 361.907539 
L 100.874893 363.323733 
L 101.708033 355.342402 
L 102.541172 357.679419 
L 103.374312 350.04875 
L 104.207452 352.385768 
L 105.040591 345.165591 
L 105.873731 347.533562 
L 106.706871 343.949872 
L 107.54001 344.936255 
L 108.37315 343.936379 
L 109.20629 344.43999 
L 110.039429 345.627611 
L 110.872569 345.120429 
L 111.705708 348.368597 
L 112.538848 347.375365 
L 113.371988 352.427014 
L 114.205127 350.13494 
L 115.038267 355.154302 
L 115.871407 352.505682 
L 116.704546 357.437158 
L 117.537686 354.475092 
L 118.370826 358.587074 
L 119.203965 354.69962 
L 120.037105 357.833471 
L 120.870245 354.432066 
L 121.703384 356.368188 
L 122.536524 355.995192 
L 123.369664 353.412883 
L 124.202803 353.769428 
L 125.035943 349.900642 
L 125.869083 352.362618 
L 126.702222 347.450073 
L 127.535362 351.3411 
L 128.368502 346.203636 
L 129.201641 350.094662 
L 130.034781 346.445017 
L 131.70106 350.972081 
L 132.5342 351.442175 
L 133.367339 355.665856 
L 134.200479 351.113416 
L 135.033619 356.444627 
L 135.866758 351.536464 
L 136.699898 356.290385 
L 137.533038 351.822523 
L 138.366177 355.532987 
L 139.199317 351.038396 
L 140.032457 351.779757 
L 140.865596 348.708761 
L 141.698736 348.075835 
L 142.531876 348.209499 
L 143.365015 346.794763 
L 144.198155 347.019085 
L 145.031295 344.857306 
L 145.864434 344.80356 
L 146.697574 342.275009 
L 147.530714 342.328182 
L 148.363853 337.860548 
L 149.196993 338.258438 
L 150.030133 335.240324 
L 150.863272 334.019207 
L 151.696412 329.751146 
L 152.529551 329.232795 
L 153.362691 327.558456 
L 154.195831 325.112196 
L 155.02897 321.751464 
L 155.86211 322.096259 
L 156.69525 318.446721 
L 157.528389 316.11194 
L 158.361529 311.955327 
L 159.194669 311.341329 
L 160.027808 310.267564 
L 160.860948 307.336563 
L 161.694088 307.030162 
L 163.360367 304.185379 
L 164.193507 300.413391 
L 165.026646 303.377702 
L 165.859786 301.774465 
L 166.692926 303.749904 
L 167.526065 299.633949 
L 168.359205 301.426222 
L 170.025484 298.812596 
L 170.858624 298.439104 
L 171.691764 298.344146 
L 172.524903 297.089655 
L 173.358043 293.322759 
L 174.191182 292.337114 
L 175.024322 288.222406 
L 175.857462 289.970819 
L 176.690601 281.409644 
L 177.523741 285.106775 
L 178.356881 277.479037 
L 179.19002 279.479136 
L 180.02316 274.224369 
L 180.8563 276.385467 
L 181.689439 273.838013 
L 182.522579 272.988268 
L 183.355719 271.836185 
L 184.188858 268.236693 
L 185.021998 269.772681 
L 185.855138 264.245128 
L 186.688277 264.593743 
L 187.521417 260.475324 
L 188.354557 259.307333 
L 189.187696 255.076941 
L 190.853976 250.217566 
L 191.687115 246.315804 
L 192.520255 244.674426 
L 193.353394 240.702753 
L 194.186534 238.984064 
L 195.019674 236.268388 
L 195.852813 231.595305 
L 196.685953 229.705399 
L 197.519093 225.007182 
L 198.352232 222.98715 
L 199.185372 217.851103 
L 200.018512 216.371907 
L 200.851651 213.131164 
L 201.684791 211.305079 
L 202.517931 206.198684 
L 203.35107 204.331153 
L 204.18421 201.075089 
L 205.01735 199.517857 
L 205.850489 195.558458 
L 206.683629 193.905419 
L 207.516769 191.014159 
L 208.349908 189.205846 
L 209.183048 186.114819 
L 210.016188 185.669255 
L 210.849327 182.813356 
L 211.682467 181.351592 
L 212.515607 180.47041 
L 213.348746 178.075781 
L 214.181886 177.795296 
L 215.015025 176.032298 
L 215.848165 175.709975 
L 216.681305 173.511917 
L 217.514444 172.370128 
L 218.347584 169.397416 
L 219.180724 167.235182 
L 220.847003 161.228314 
L 221.680143 159.818026 
L 222.513282 156.614558 
L 223.346422 155.202469 
L 224.179562 151.570964 
L 225.012701 150.787901 
L 225.845841 147.481046 
L 226.678981 146.923602 
L 227.51212 145.358684 
L 228.34526 145.309846 
L 229.1784 144.181846 
L 230.011539 141.893997 
L 230.844679 140.977165 
L 231.677819 137.510987 
L 232.510958 136.931599 
L 233.344098 133.473666 
L 234.177238 132.810655 
L 235.010377 129.08173 
L 235.843517 128.411875 
L 236.676656 123.863346 
L 238.342936 120.017075 
L 239.176075 119.184359 
L 240.009215 119.184359 
L 240.842355 118.759122 
L 241.675494 119.154538 
L 242.508634 118.449405 
L 243.341774 119.151834 
L 244.174913 118.101665 
L 245.008053 119.732377 
L 245.841193 118.406721 
L 246.674332 119.115117 
L 247.507472 117.05065 
L 248.340612 116.093866 
L 249.173751 113.612853 
L 250.006891 112.766461 
L 250.840031 110.965205 
L 251.67317 110.576787 
L 252.50631 108.590503 
L 253.33945 109.243898 
L 254.172589 107.395552 
L 255.005729 107.905892 
L 255.838869 105.938403 
L 256.672008 106.64267 
L 257.505148 105.026279 
L 258.338287 104.25335 
L 259.171427 102.835544 
L 260.004567 101.671385 
L 260.837706 100.216704 
L 261.670846 97.920713 
L 262.503986 96.697423 
L 263.337125 93.551185 
L 264.170265 92.450006 
L 265.003405 89.098508 
L 265.836544 87.786051 
L 266.669684 84.860701 
L 267.502824 84.812542 
L 268.335963 82.034346 
L 269.169103 82.627043 
L 270.002243 79.933396 
L 270.835382 80.363473 
L 271.668522 78.807385 
L 272.501662 79.04305 
L 273.334801 77.790881 
L 274.167941 77.875911 
L 275.001081 76.998228 
L 275.83422 76.582137 
L 276.66736 75.437063 
L 277.500499 73.349534 
L 278.333639 73.590719 
L 279.166779 71.713697 
L 279.999918 72.016368 
L 280.833058 69.837706 
L 281.666198 70.166298 
L 282.499337 68.072377 
L 283.332477 68.657154 
L 284.165617 65.478811 
L 284.998756 65.933354 
L 288.331315 58.820202 
L 290.830734 54.744406 
L 291.663874 53.728358 
L 293.330153 53.933294 
L 294.163293 53.629051 
L 294.996432 54.478458 
L 297.495851 53.533882 
L 298.328991 52.624618 
L 299.16213 52.937048 
L 299.99527 51.004665 
L 300.82841 51.174193 
L 301.661549 49.237466 
L 302.494689 50.373931 
L 303.327829 48.771433 
L 304.160968 49.949023 
L 304.994108 48.726607 
L 305.827248 49.71661 
L 306.660387 48.93309 
L 307.493527 49.137758 
L 308.326667 48.913917 
L 309.992946 47.503917 
L 310.826086 45.690852 
L 311.659225 46.090086 
L 312.492365 44.242304 
L 313.325505 45.242344 
L 314.158644 43.478826 
L 314.991784 44.147737 
L 315.824924 43.240632 
L 316.658063 43.934035 
L 317.491203 42.851997 
L 318.324343 43.676644 
L 320.823761 41.479748 
L 321.656901 40.193514 
L 322.490041 40.06446 
L 324.15632 38.944028 
L 324.98946 37.617109 
L 325.822599 37.353687 
L 326.655739 35.789502 
L 327.488879 36.165801 
L 328.322018 35.676938 
L 329.155158 36.444958 
L 329.988298 36.564416 
L 330.821437 36.818009 
L 331.654577 36.459627 
L 333.320856 36.464058 
L 334.153996 36.215796 
L 334.987136 36.2131 
L 336.653415 35.087399 
L 337.486555 34.319379 
L 338.319694 33.213647 
L 339.152834 32.956482 
L 339.985973 32.090493 
L 340.819113 31.8378 
L 341.652253 31.461435 
L 342.485392 31.709697 
L 343.318532 31.330653 
L 344.151672 31.949168 
L 344.984811 31.695578 
L 345.817951 32.435222 
L 346.651091 32.436136 
L 347.48423 32.682658 
L 348.31737 32.555412 
L 349.15051 32.803674 
L 349.983649 32.676428 
L 350.816789 32.302712 
L 351.649929 32.687189 
L 352.483068 32.194127 
L 353.316208 32.321373 
L 354.149348 31.328138 
L 354.982487 31.199978 
L 355.815627 30.449846 
L 356.648767 30.703436 
L 357.481906 30.32972 
L 358.315046 30.32972 
L 359.148186 30.203376 
L 360.814465 29.439855 
L 361.647604 29.312609 
L 364.147023 29.312609 
L 365.813303 28.805428 
L 366.646442 28.932674 
L 367.479582 28.805428 
L 374.144699 28.805428 
L 374.977839 28.678182 
L 380.809817 28.678182 
L 381.642956 28.805428 
L 386.641794 28.805428 
L 387.474934 28.932674 
L 389.141213 28.932674 
L 389.974353 28.805428 
L 394.973191 28.805428 
L 395.80633 28.678182 
L 403.304587 28.678182 
L 404.137727 28.805428 
L 405.804006 29.316257 
L 406.637146 29.444418 
L 407.470285 29.698008 
L 411.635984 29.698008 
L 412.469123 29.570762 
L 414.135403 29.059933 
L 414.968542 29.059018 
L 415.801682 28.805428 
L 417.467961 28.805428 
L 418.301101 28.932674 
L 422.466799 28.932674 
L 423.299939 28.805428 
L 425.799358 28.805428 
L 426.632497 28.678182 
L 448.294128 28.678182 
L 449.127268 28.805428 
L 449.960408 28.805428 
L 450.793547 28.932674 
L 451.626687 28.932674 
L 452.459827 29.05992 
L 456.625525 29.05992 
L 457.458665 28.932674 
L 458.291804 28.932674 
L 459.124944 28.805428 
L 459.958084 28.805428 
L 460.791223 28.678182 
L 462.457503 28.678182 
L 463.290642 28.805428 
L 470.788899 28.805428 
L 471.622039 28.678182 
L 481.619715 28.678182 
L 482.452854 28.806342 
L 489.951111 28.806342 
L 490.784251 28.678182 
L 498.282508 28.678182 
L 499.115647 29.057226 
L 499.948787 29.057226 
L 500.781927 29.184472 
L 504.114485 29.184472 
L 504.947625 29.311718 
L 506.613904 29.311718 
L 507.447044 28.932674 
L 508.280183 28.932674 
L 509.113323 28.805428 
L 512.445882 28.805428 
L 513.279021 28.678182 
L 521.610418 28.678182 
L 522.443558 28.805428 
L 523.276697 28.805428 
L 524.109837 28.932674 
L 529.941814 28.932674 
L 530.774954 28.805428 
L 531.608094 28.805428 
L 532.441233 28.678182 
L 549.104027 28.678182 
L 549.937166 28.805428 
L 557.435423 28.805428 
L 558.268563 28.678182 
L 569.099378 28.678182 
L 569.932518 28.805428 
L 574.098216 28.805428 
L 574.931356 28.932674 
L 575.764495 28.932674 
L 576.597635 29.05992 
L 577.430775 29.05992 
L 578.263914 28.932674 
L 582.429613 28.932674 
L 583.262752 28.805428 
L 584.095892 28.805428 
L 584.929032 28.678182 
L 596.592987 28.678182 
L 597.426126 28.805428 
L 600.758685 28.805428 
L 601.591825 28.933588 
L 603.258104 28.933588 
L 604.091244 29.060834 
L 604.924383 29.060834 
L 605.757523 28.933588 
L 609.090082 28.933588 
L 609.923221 28.805428 
L 611.589501 28.805428 
L 612.42264 28.678182 
L 615.755199 28.678182 
L 616.588338 28.805428 
L 624.086595 28.805428 
L 624.919735 28.678182 
L 636.58369 28.678182 
L 637.41683 28.805428 
L 639.083109 28.805428 
L 640.749388 29.060834 
L 647.414506 29.060834 
L 649.080785 28.805428 
L 653.246483 28.805428 
L 654.079623 28.678182 
L 666.576718 28.678182 
L 667.409857 28.805428 
L 671.575556 28.805428 
L 673.241835 29.060834 
L 674.908114 29.060834 
L 675.741254 29.187179 
L 679.906952 29.187179 
L 681.573231 28.931772 
L 683.239511 28.931772 
L 684.07265 28.678182 
L 697.402885 28.678182 
L 698.236024 28.806342 
L 706.567421 28.805428 
L 707.400561 28.932674 
L 714.065678 28.932674 
L 715.731957 28.678182 
L 745.724985 28.678182 
L 746.558124 28.805428 
L 754.056381 28.805428 
L 754.889521 28.678182 
L 776.551152 28.678182 
L 777.384292 28.805428 
L 784.882548 28.805428 
L 785.715688 28.678182 
L 786.548828 28.678182 
L 787.381967 28.806342 
L 794.880224 28.806342 
L 795.713364 28.678182 
L 797.379643 28.933588 
L 798.212783 28.933588 
L 799.045923 29.060834 
L 799.879062 29.060834 
L 800.712202 29.18808 
L 804.04476 29.18808 
L 805.71104 28.932674 
L 806.544179 28.932674 
L 807.377319 28.805428 
L 808.210459 28.805428 
L 809.043598 28.678182 
L 821.540693 28.678182 
L 822.373833 28.805428 
L 829.87209 28.805428 
L 830.705229 28.678182 
L 831.538369 28.805428 
L 839.036626 28.805428 
L 839.869766 28.678182 
L 841.536045 28.678182 
L 843.202324 28.933588 
L 847.368022 28.933588 
L 848.201162 29.060834 
L 849.867441 29.060834 
L 851.533721 28.805428 
L 852.36686 28.805428 
L 852.36686 28.805428 
" clip-path="url(#pf92bf1fb03)" style="fill: none; stroke-dasharray: 7.4,3.2; stroke-dashoffset: 0; stroke: #000000; stroke-width: 2"/>
   </g>
   <g id="patch_3">
    <path d="M 35.89 404.12 
L 35.89 10.8 
" style="fill: none; stroke: #000000; stroke-width: 0.8; stroke-linejoin: miter; stroke-linecap: square"/>
   </g>
   <g id="patch_4">
    <path d="M 853.2 404.12 
L 853.2 10.8 
" style="fill: none; stroke: #000000; stroke-width: 0.8; stroke-linejoin: miter; stroke-linecap: square"/>
   </g>
   <g id="patch_5">
    <path d="M 35.89 404.12 
L 853.2 404.12 
" style="fill: none; stroke: #000000; stroke-width: 0.8; stroke-linejoin: miter; stroke-linecap: square"/>
   </g>
   <g id="patch_6">
    <path d="M 35.89 10.8 
L 853.2 10.8 
" style="fill: none; stroke: #000000; stroke-width: 0.8; stroke-linejoin: miter; stroke-linecap: square"/>
   </g>
  </g>
 </g>
 <defs>
  <clipPath id="pf92bf1fb03">
   <rect x="35.89" y="10.8" width="817.31" height="393.32"/>
  </clipPath>
 </defs>
</svg>
