<?xml version="1.0" encoding="utf-8" standalone="no"?>
<!DOCTYPE svg PUBLIC "-//W3C//DTD SVG 1.1//EN"
  "http://www.w3.org/Graphics/SVG/1.1/DTD/svg11.dtd">
<svg xmlns:xlink="http://www.w3.org/1999/xlink" width="864pt" height="432pt" viewBox="0 0 864 432" xmlns="http://www.w3.org/2000/svg" version="1.1">
 <metadata>
  <rdf:RDF xmlns:dc="http://purl.org/dc/elements/1.1/" xmlns:cc="http://creativecommons.org/ns#" xmlns:rdf="http://www.w3.org/1999/02/22-rdf-syntax-ns#">
   <cc:Work>
    <dc:type rdf:resource="http://purl.org/dc/dcmitype/StillImage"/>
    <dc:date>2024-09-18T22:38:38.121058</dc:date>
    <dc:format>image/svg+xml</dc:format>
    <dc:creator>
     <cc:Agent>
      <dc:title>Matplotlib v3.9.2, https://matplotlib.org/</dc:title>
     </cc:Agent>
    </dc:creator>
   </cc:Work>
  </rdf:RDF>
 </metadata>
 <defs>
  <style type="text/css">*{stroke-linejoin: round; stroke-linecap: butt}</style>
 </defs>
 <g id="figure_1">
  <g id="patch_1">
   <path d="M 0 432 
L 864 432 
L 864 0 
L 0 0 
z
" style="fill: #ffffff"/>
  </g>
  <g id="axes_1">
   <g id="patch_2">
    <path d="M 35.89 404.12 
L 853.2 404.12 
L 853.2 10.8 
L 35.89 10.8 
z
" style="fill: #ffffff"/>
   </g>
   <g id="matplotlib.axis_1">
    <g id="xtick_1">
     <g id="line2d_1">
      <defs>
       <path id="mb9ce928dba" d="M 0 0 
L 0 3.5 
" style="stroke: #000000; stroke-width: 0.8"/>
      </defs>
      <g>
       <use xlink:href="#mb9ce928dba" x="198.33467" y="404.12" style="stroke: #000000; stroke-width: 0.8"/>
      </g>
     </g>
     <g id="text_1">
      <!-- 1000 -->
      <g transform="translate(186.294045 418.771563) scale(0.1 -0.1)">
       <defs>
        <path id="DejaVuSansMono-31" d="M 844 531 
L 1825 531 
L 1825 4097 
L 769 3859 
L 769 4434 
L 1819 4666 
L 2450 4666 
L 2450 531 
L 3419 531 
L 3419 0 
L 844 0 
L 844 531 
z
" transform="scale(0.015625)"/>
        <path id="DejaVuSansMono-30" d="M 1509 2344 
Q 1509 2516 1629 2641 
Q 1750 2766 1919 2766 
Q 2094 2766 2219 2641 
Q 2344 2516 2344 2344 
Q 2344 2169 2220 2047 
Q 2097 1925 1919 1925 
Q 1744 1925 1626 2044 
Q 1509 2163 1509 2344 
z
M 1925 4250 
Q 1484 4250 1267 3775 
Q 1050 3300 1050 2328 
Q 1050 1359 1267 884 
Q 1484 409 1925 409 
Q 2369 409 2586 884 
Q 2803 1359 2803 2328 
Q 2803 3300 2586 3775 
Q 2369 4250 1925 4250 
z
M 1925 4750 
Q 2672 4750 3055 4137 
Q 3438 3525 3438 2328 
Q 3438 1134 3055 521 
Q 2672 -91 1925 -91 
Q 1178 -91 797 521 
Q 416 1134 416 2328 
Q 416 3525 797 4137 
Q 1178 4750 1925 4750 
z
" transform="scale(0.015625)"/>
       </defs>
       <use xlink:href="#DejaVuSansMono-31"/>
       <use xlink:href="#DejaVuSansMono-30" x="60.205078"/>
       <use xlink:href="#DejaVuSansMono-30" x="120.410156"/>
       <use xlink:href="#DejaVuSansMono-30" x="180.615234"/>
      </g>
     </g>
    </g>
    <g id="xtick_2">
     <g id="line2d_2">
      <g>
       <use xlink:href="#mb9ce928dba" x="362.420195" y="404.12" style="stroke: #000000; stroke-width: 0.8"/>
      </g>
     </g>
     <g id="text_2">
      <!-- 2000 -->
      <g transform="translate(350.37957 418.771563) scale(0.1 -0.1)">
       <defs>
        <path id="DejaVuSansMono-32" d="M 1166 531 
L 3309 531 
L 3309 0 
L 475 0 
L 475 531 
Q 1059 1147 1496 1619 
Q 1934 2091 2100 2284 
Q 2413 2666 2522 2902 
Q 2631 3138 2631 3384 
Q 2631 3775 2401 3997 
Q 2172 4219 1772 4219 
Q 1488 4219 1175 4116 
Q 863 4013 513 3803 
L 513 4441 
Q 834 4594 1145 4672 
Q 1456 4750 1759 4750 
Q 2444 4750 2861 4386 
Q 3278 4022 3278 3431 
Q 3278 3131 3139 2831 
Q 3000 2531 2688 2169 
Q 2513 1966 2180 1606 
Q 1847 1247 1166 531 
z
" transform="scale(0.015625)"/>
       </defs>
       <use xlink:href="#DejaVuSansMono-32"/>
       <use xlink:href="#DejaVuSansMono-30" x="60.205078"/>
       <use xlink:href="#DejaVuSansMono-30" x="120.410156"/>
       <use xlink:href="#DejaVuSansMono-30" x="180.615234"/>
      </g>
     </g>
    </g>
    <g id="xtick_3">
     <g id="line2d_3">
      <g>
       <use xlink:href="#mb9ce928dba" x="526.50572" y="404.12" style="stroke: #000000; stroke-width: 0.8"/>
      </g>
     </g>
     <g id="text_3">
      <!-- 3000 -->
      <g transform="translate(514.465095 418.771563) scale(0.1 -0.1)">
       <defs>
        <path id="DejaVuSansMono-33" d="M 2425 2497 
Q 2884 2375 3128 2064 
Q 3372 1753 3372 1288 
Q 3372 644 2939 276 
Q 2506 -91 1741 -91 
Q 1419 -91 1084 -31 
Q 750 28 428 141 
L 428 769 
Q 747 603 1056 522 
Q 1366 441 1672 441 
Q 2191 441 2469 675 
Q 2747 909 2747 1350 
Q 2747 1756 2469 1995 
Q 2191 2234 1716 2234 
L 1234 2234 
L 1234 2753 
L 1716 2753 
Q 2150 2753 2394 2943 
Q 2638 3134 2638 3475 
Q 2638 3834 2411 4026 
Q 2184 4219 1766 4219 
Q 1488 4219 1191 4156 
Q 894 4094 569 3969 
L 569 4550 
Q 947 4650 1242 4700 
Q 1538 4750 1766 4750 
Q 2447 4750 2855 4408 
Q 3263 4066 3263 3500 
Q 3263 3116 3048 2859 
Q 2834 2603 2425 2497 
z
" transform="scale(0.015625)"/>
       </defs>
       <use xlink:href="#DejaVuSansMono-33"/>
       <use xlink:href="#DejaVuSansMono-30" x="60.205078"/>
       <use xlink:href="#DejaVuSansMono-30" x="120.410156"/>
       <use xlink:href="#DejaVuSansMono-30" x="180.615234"/>
      </g>
     </g>
    </g>
    <g id="xtick_4">
     <g id="line2d_4">
      <g>
       <use xlink:href="#mb9ce928dba" x="690.591245" y="404.12" style="stroke: #000000; stroke-width: 0.8"/>
      </g>
     </g>
     <g id="text_4">
      <!-- 4000 -->
      <g transform="translate(678.55062 418.771563) scale(0.1 -0.1)">
       <defs>
        <path id="DejaVuSansMono-34" d="M 2297 4091 
L 825 1625 
L 2297 1625 
L 2297 4091 
z
M 2194 4666 
L 2925 4666 
L 2925 1625 
L 3547 1625 
L 3547 1113 
L 2925 1113 
L 2925 0 
L 2297 0 
L 2297 1113 
L 319 1113 
L 319 1709 
L 2194 4666 
z
" transform="scale(0.015625)"/>
       </defs>
       <use xlink:href="#DejaVuSansMono-34"/>
       <use xlink:href="#DejaVuSansMono-30" x="60.205078"/>
       <use xlink:href="#DejaVuSansMono-30" x="120.410156"/>
       <use xlink:href="#DejaVuSansMono-30" x="180.615234"/>
      </g>
     </g>
    </g>
   </g>
   <g id="matplotlib.axis_2">
    <g id="ytick_1">
     <g id="line2d_5">
      <defs>
       <path id="mb390cfd3af" d="M 0 0 
L -3.5 0 
" style="stroke: #000000; stroke-width: 0.8"/>
      </defs>
      <g>
       <use xlink:href="#mb390cfd3af" x="35.89" y="386.241818" style="stroke: #000000; stroke-width: 0.8"/>
      </g>
     </g>
     <g id="text_5">
      <!-- 0.0 -->
      <g transform="translate(10.829063 390.067599) scale(0.1 -0.1)">
       <defs>
        <path id="DejaVuSansMono-2e" d="M 1528 953 
L 2316 953 
L 2316 0 
L 1528 0 
L 1528 953 
z
" transform="scale(0.015625)"/>
       </defs>
       <use xlink:href="#DejaVuSansMono-30"/>
       <use xlink:href="#DejaVuSansMono-2e" x="60.205078"/>
       <use xlink:href="#DejaVuSansMono-30" x="120.410156"/>
      </g>
     </g>
    </g>
    <g id="ytick_2">
     <g id="line2d_6">
      <g>
       <use xlink:href="#mb390cfd3af" x="35.89" y="314.729091" style="stroke: #000000; stroke-width: 0.8"/>
      </g>
     </g>
     <g id="text_6">
      <!-- 0.2 -->
      <g transform="translate(10.829063 318.554872) scale(0.1 -0.1)">
       <use xlink:href="#DejaVuSansMono-30"/>
       <use xlink:href="#DejaVuSansMono-2e" x="60.205078"/>
       <use xlink:href="#DejaVuSansMono-32" x="120.410156"/>
      </g>
     </g>
    </g>
    <g id="ytick_3">
     <g id="line2d_7">
      <g>
       <use xlink:href="#mb390cfd3af" x="35.89" y="243.216364" style="stroke: #000000; stroke-width: 0.8"/>
      </g>
     </g>
     <g id="text_7">
      <!-- 0.4 -->
      <g transform="translate(10.829063 247.042145) scale(0.1 -0.1)">
       <use xlink:href="#DejaVuSansMono-30"/>
       <use xlink:href="#DejaVuSansMono-2e" x="60.205078"/>
       <use xlink:href="#DejaVuSansMono-34" x="120.410156"/>
      </g>
     </g>
    </g>
    <g id="ytick_4">
     <g id="line2d_8">
      <g>
       <use xlink:href="#mb390cfd3af" x="35.89" y="171.703636" style="stroke: #000000; stroke-width: 0.8"/>
      </g>
     </g>
     <g id="text_8">
      <!-- 0.6 -->
      <g transform="translate(10.829063 175.529418) scale(0.1 -0.1)">
       <defs>
        <path id="DejaVuSansMono-36" d="M 3097 4563 
L 3097 3981 
Q 2900 4097 2678 4158 
Q 2456 4219 2216 4219 
Q 1616 4219 1306 3767 
Q 997 3316 997 2438 
Q 1147 2750 1412 2917 
Q 1678 3084 2022 3084 
Q 2697 3084 3067 2670 
Q 3438 2256 3438 1497 
Q 3438 741 3056 325 
Q 2675 -91 1984 -91 
Q 1172 -91 794 492 
Q 416 1075 416 2328 
Q 416 3509 870 4129 
Q 1325 4750 2188 4750 
Q 2419 4750 2650 4701 
Q 2881 4653 3097 4563 
z
M 1972 2591 
Q 1569 2591 1337 2300 
Q 1106 2009 1106 1497 
Q 1106 984 1337 693 
Q 1569 403 1972 403 
Q 2391 403 2603 679 
Q 2816 956 2816 1497 
Q 2816 2041 2603 2316 
Q 2391 2591 1972 2591 
z
" transform="scale(0.015625)"/>
       </defs>
       <use xlink:href="#DejaVuSansMono-30"/>
       <use xlink:href="#DejaVuSansMono-2e" x="60.205078"/>
       <use xlink:href="#DejaVuSansMono-36" x="120.410156"/>
      </g>
     </g>
    </g>
    <g id="ytick_5">
     <g id="line2d_9">
      <g>
       <use xlink:href="#mb390cfd3af" x="35.89" y="100.190909" style="stroke: #000000; stroke-width: 0.8"/>
      </g>
     </g>
     <g id="text_9">
      <!-- 0.8 -->
      <g transform="translate(10.829063 104.01669) scale(0.1 -0.1)">
       <defs>
        <path id="DejaVuSansMono-38" d="M 1925 2216 
Q 1503 2216 1273 1980 
Q 1044 1744 1044 1313 
Q 1044 881 1276 642 
Q 1509 403 1925 403 
Q 2350 403 2579 639 
Q 2809 875 2809 1313 
Q 2809 1741 2576 1978 
Q 2344 2216 1925 2216 
z
M 1375 2478 
Q 972 2581 745 2862 
Q 519 3144 519 3541 
Q 519 4097 897 4423 
Q 1275 4750 1925 4750 
Q 2578 4750 2956 4423 
Q 3334 4097 3334 3541 
Q 3334 3144 3107 2862 
Q 2881 2581 2478 2478 
Q 2947 2375 3195 2062 
Q 3444 1750 3444 1253 
Q 3444 622 3041 265 
Q 2638 -91 1925 -91 
Q 1213 -91 811 264 
Q 409 619 409 1247 
Q 409 1747 657 2061 
Q 906 2375 1375 2478 
z
M 1147 3481 
Q 1147 3106 1347 2909 
Q 1547 2713 1925 2713 
Q 2306 2713 2506 2909 
Q 2706 3106 2706 3481 
Q 2706 3863 2507 4063 
Q 2309 4263 1925 4263 
Q 1547 4263 1347 4061 
Q 1147 3859 1147 3481 
z
" transform="scale(0.015625)"/>
       </defs>
       <use xlink:href="#DejaVuSansMono-30"/>
       <use xlink:href="#DejaVuSansMono-2e" x="60.205078"/>
       <use xlink:href="#DejaVuSansMono-38" x="120.410156"/>
      </g>
     </g>
    </g>
    <g id="ytick_6">
     <g id="line2d_10">
      <g>
       <use xlink:href="#mb390cfd3af" x="35.89" y="28.678182" style="stroke: #000000; stroke-width: 0.8"/>
      </g>
     </g>
     <g id="text_10">
      <!-- 1.0 -->
      <g transform="translate(10.829063 32.503963) scale(0.1 -0.1)">
       <use xlink:href="#DejaVuSansMono-31"/>
       <use xlink:href="#DejaVuSansMono-2e" x="60.205078"/>
       <use xlink:href="#DejaVuSansMono-30" x="120.410156"/>
      </g>
     </g>
    </g>
   </g>
   <g id="line2d_11">
    <path d="M 35.725914 346.497145 
L 35.89 351.26466 
L 36.054086 351.26466 
L 36.218171 341.016497 
L 36.546342 341.016497 
L 36.710428 331.268424 
L 36.874513 333.757141 
L 37.202684 353.682041 
L 37.36677 354.182179 
L 37.694941 333.685854 
L 38.187197 333.685854 
L 38.351283 343.934017 
L 38.515368 341.4453 
L 38.679454 341.4453 
L 39.007625 327.639401 
L 39.17171 327.751272 
L 39.499882 348.247597 
L 39.663967 339.369042 
L 39.992138 339.369042 
L 40.156224 342.54174 
L 40.484395 342.54174 
L 40.64848 339.655182 
L 40.812566 349.791474 
L 40.976651 349.791474 
L 41.140737 341.347802 
L 41.304822 350.226357 
L 41.468908 339.978195 
L 41.632993 339.978195 
L 41.797079 347.053659 
L 41.961164 336.805496 
L 42.289335 336.805496 
L 42.453421 326.838229 
L 42.617507 326.838229 
L 42.781592 335.2819 
L 42.945678 335.2819 
L 43.109763 345.530063 
L 43.273849 338.863622 
L 43.437934 338.863622 
L 44.094276 379.575378 
L 44.258362 379.575378 
L 44.422447 369.327215 
L 44.586533 369.327215 
L 44.750618 368.820033 
L 44.914704 375.486473 
L 45.078789 375.486473 
L 45.242875 365.205574 
L 45.571046 365.205574 
L 45.899217 344.709249 
L 46.063303 354.957411 
L 46.227388 354.957411 
L 46.391474 345.216431 
L 46.719645 345.216431 
L 46.88373 355.497331 
L 47.047816 345.249168 
L 47.211901 345.249168 
L 47.540072 365.745493 
L 47.868243 365.745493 
L 48.032329 375.993656 
L 48.524585 375.993656 
L 48.688671 386.241818 
L 49.180928 386.241818 
L 49.345013 375.993656 
L 49.509099 375.993656 
L 49.673184 365.745493 
L 49.83727 365.745493 
L 50.001355 355.497331 
L 50.329526 355.497331 
L 50.657697 335.001005 
L 51.478125 335.001005 
L 51.64221 345.249168 
L 51.970381 345.249168 
L 52.298552 365.745493 
L 52.462638 365.745493 
L 52.626724 375.993656 
L 52.790809 375.993656 
L 52.954895 386.241818 
L 53.11898 386.241818 
L 53.283066 375.993656 
L 53.775322 375.993656 
L 53.939408 365.745493 
L 54.431664 365.745493 
L 54.59575 356.502352 
L 54.759835 356.502352 
L 54.923921 366.750515 
L 55.088006 356.502352 
L 55.252092 356.502352 
L 55.416177 354.632739 
L 55.580263 364.880901 
L 56.07252 334.136413 
L 56.236605 333.131392 
L 56.400691 322.883229 
L 56.564776 322.883229 
L 56.728862 333.131392 
L 56.892947 333.131392 
L 57.057033 324.752843 
L 57.221118 324.752843 
L 57.549289 345.249168 
L 57.713375 345.658332 
L 58.041546 366.154657 
L 58.697888 366.154657 
L 58.861973 355.906494 
L 59.026059 355.906494 
L 59.190145 345.658332 
L 59.35423 345.249168 
L 59.518316 345.249168 
L 59.682401 336.253857 
L 60.174658 336.253857 
L 60.502829 356.750182 
L 60.831 356.750182 
L 60.995085 366.998345 
L 61.159171 356.750182 
L 61.323256 355.23814 
L 61.487342 344.936097 
L 61.815513 344.936097 
L 61.979598 334.687934 
L 62.30777 334.687934 
L 62.471855 344.936097 
L 62.635941 334.687934 
L 62.964112 355.443449 
L 63.128197 356.479055 
L 63.292283 356.479055 
L 63.456368 346.230892 
L 63.620454 356.479055 
L 64.11271 356.479055 
L 64.276796 366.727217 
L 64.604967 366.727217 
L 64.769052 365.745493 
L 64.933138 365.745493 
L 65.097223 375.993656 
L 65.425394 375.993656 
L 65.58948 365.745493 
L 65.753566 365.745493 
L 65.917651 355.497331 
L 66.245822 355.497331 
L 66.409908 365.745493 
L 67.06625 365.745493 
L 67.230335 375.993656 
L 67.394421 375.993656 
L 67.558506 386.241818 
L 68.378934 386.241818 
L 68.543019 375.993656 
L 69.527533 375.993656 
L 69.691618 365.416512 
L 71.168388 365.416512 
L 71.332473 375.993656 
L 71.496559 375.993656 
L 71.660644 365.745493 
L 72.152901 365.745493 
L 72.316987 365.238311 
L 72.645158 365.238311 
L 72.809243 354.990148 
L 73.137414 354.990148 
L 73.465585 375.486473 
L 73.793756 375.486473 
L 73.957842 365.745493 
L 74.121927 365.745493 
L 74.286013 355.497331 
L 74.450098 365.745493 
L 74.614184 355.20195 
L 74.778269 355.20195 
L 74.942355 350.879752 
L 75.434612 350.879752 
L 75.598697 361.127914 
L 75.762783 361.127914 
L 75.926868 371.376077 
L 76.090954 371.376077 
L 76.255039 379.627546 
L 76.419125 369.357899 
L 76.58321 373.680097 
L 77.239552 373.680097 
L 77.403638 363.431935 
L 77.567723 363.431935 
L 77.731809 360.831472 
L 77.895894 363.123546 
L 78.05998 373.393193 
L 78.224065 373.393193 
L 78.552236 352.786427 
L 78.880408 352.786427 
L 79.044493 363.034589 
L 79.208579 363.034589 
L 79.372664 365.635052 
L 79.864921 365.635052 
L 80.193092 386.241818 
L 82.81846 386.241818 
L 82.982546 380.869971 
L 84.459315 380.869971 
L 84.623401 386.241818 
L 84.951572 386.241818 
L 85.115657 375.993656 
L 85.279743 375.993656 
L 85.443829 365.745493 
L 85.607914 365.745493 
L 85.772 363.96878 
L 86.592427 363.96878 
L 86.756513 374.216942 
L 86.920598 374.216942 
L 87.084684 384.465105 
L 87.248769 384.465105 
L 87.412855 386.241818 
L 137.294854 386.241818 
L 137.45894 385.72361 
L 138.93571 385.72361 
L 139.099795 386.241818 
L 140.904736 386.241818 
L 141.068822 385.72361 
L 141.725164 385.72361 
L 141.889249 385.205402 
L 142.381506 385.205402 
L 142.545591 384.687194 
L 143.366019 384.687194 
L 143.530104 385.205402 
L 143.69419 384.687194 
L 144.022361 384.687194 
L 144.350532 385.72361 
L 144.514618 385.72361 
L 144.678703 385.205402 
L 145.17096 385.205402 
L 145.335045 385.72361 
L 145.991387 385.72361 
L 146.155473 385.205402 
L 147.468157 385.205402 
L 147.632243 384.687194 
L 147.796328 385.205402 
L 148.288585 385.205402 
L 148.616756 384.168986 
L 149.273098 384.168986 
L 149.437183 383.650777 
L 149.601269 384.168986 
L 150.093525 384.168986 
L 150.257611 384.687194 
L 150.585782 384.687194 
L 150.749867 383.154778 
L 151.078039 384.191194 
L 151.242124 384.191194 
L 151.40621 382.658779 
L 151.570295 382.658779 
L 151.734381 383.176987 
L 151.898466 381.644571 
L 152.062552 381.644571 
L 152.226637 378.535322 
L 152.390723 379.54953 
L 152.554808 379.54953 
L 152.718894 377.603605 
L 152.882979 377.603605 
L 153.047065 379.136021 
L 153.21115 377.603605 
L 153.375236 377.603605 
L 153.539321 379.136021 
L 153.703407 378.107061 
L 153.867492 381.21631 
L 154.031578 381.734518 
L 154.195664 381.734518 
L 154.359749 383.680442 
L 154.523835 382.148027 
L 154.852006 382.148027 
L 155.016091 380.615611 
L 155.180177 380.615611 
L 155.344262 381.644571 
L 155.508348 381.126363 
L 155.836519 381.126363 
L 156.000604 379.593948 
L 156.16469 381.126363 
L 156.328775 379.593948 
L 156.821032 382.140571 
L 156.985117 382.140571 
L 157.149203 382.658779 
L 157.477374 379.593948 
L 157.64146 380.608155 
L 157.805545 379.075739 
L 157.969631 380.089947 
L 158.133716 380.089947 
L 158.297802 379.571739 
L 158.625973 379.571739 
L 158.790058 377.122673 
L 158.954144 377.122673 
L 159.118229 378.13688 
L 159.282315 375.40451 
L 159.4464 376.936926 
L 159.610486 375.933586 
L 159.774571 376.451794 
L 159.938657 376.451794 
L 160.266828 373.489124 
L 160.430913 375.93819 
L 160.759085 368.473432 
L 160.92317 369.258055 
L 161.415427 359.857374 
L 161.579512 358.843166 
L 161.743598 359.244461 
L 161.907683 360.776876 
L 162.071769 359.244461 
L 162.235854 360.890875 
L 162.564025 365.784715 
L 162.728111 364.002936 
L 163.056282 369.536777 
L 163.220367 370.040232 
L 163.384453 364.399612 
L 163.548538 363.370652 
L 163.712624 361.089055 
L 163.876709 361.940032 
L 164.040795 356.904952 
L 164.204881 356.401496 
L 164.368966 360.010518 
L 164.533052 355.184506 
L 164.697137 355.68082 
L 164.861223 351.500244 
L 165.025308 354.330215 
L 165.353479 349.298579 
L 165.517565 349.298579 
L 165.68165 354.333659 
L 166.009821 353.397583 
L 166.173907 353.549561 
L 166.337992 349.519876 
L 166.666163 355.046966 
L 166.830249 353.780666 
L 166.994334 354.99021 
L 167.486591 342.418417 
L 167.650677 342.418417 
L 167.814762 340.388132 
L 167.978848 341.118293 
L 168.307019 333.487768 
L 168.471104 334.156393 
L 168.63519 332.724707 
L 168.963361 333.905164 
L 169.127446 336.789502 
L 169.291532 333.559678 
L 169.455617 334.647814 
L 169.619703 334.235487 
L 169.783788 335.387914 
L 170.111959 334.612849 
L 170.276045 334.597714 
L 170.932387 331.950461 
L 171.096473 332.100703 
L 171.260558 334.344436 
L 171.424644 334.809559 
L 171.588729 334.587543 
L 171.9169 335.509976 
L 172.080986 335.876196 
L 172.245071 335.899298 
L 172.409157 335.359077 
L 172.737328 336.167832 
L 173.065499 332.889262 
L 173.229584 332.514041 
L 173.557755 335.773659 
L 173.721841 335.732498 
L 174.542269 347.409294 
L 174.87044 349.817423 
L 175.034525 348.191935 
L 175.198611 349.185167 
L 175.362696 351.175542 
L 175.854953 349.633533 
L 176.019038 350.904233 
L 176.183124 350.924501 
L 176.347209 350.601366 
L 176.67538 353.498816 
L 176.839466 352.290917 
L 177.003551 352.663054 
L 177.659894 347.976629 
L 177.823979 345.444589 
L 178.316236 346.971226 
L 178.644407 342.354469 
L 178.808492 341.496272 
L 178.972578 341.343651 
L 179.136663 342.530627 
L 179.300749 342.663947 
L 179.62892 344.333463 
L 179.793005 343.905304 
L 179.957091 342.332349 
L 180.121176 343.672136 
L 180.285262 346.172581 
L 180.449348 346.202371 
L 180.613433 346.711861 
L 180.777519 346.737805 
L 180.941604 344.97702 
L 181.10569 346.017872 
L 181.269775 343.369253 
L 181.433861 343.392577 
L 181.597946 344.226839 
L 181.762032 343.713287 
L 181.926117 341.810091 
L 182.090203 341.925685 
L 182.254288 337.997853 
L 182.418374 338.455104 
L 182.582459 339.258913 
L 182.746545 338.948378 
L 182.91063 341.596997 
L 183.074716 342.001831 
L 183.238801 341.641603 
L 183.566972 336.389025 
L 183.731058 337.051553 
L 183.895144 340.88543 
L 184.059229 341.267255 
L 184.223315 343.063306 
L 184.551486 342.9396 
L 184.715571 342.126122 
L 184.879657 342.385968 
L 185.371913 352.150466 
L 185.535999 352.626245 
L 185.700084 352.626245 
L 185.86417 352.198087 
L 186.192341 352.098226 
L 186.356426 349.513732 
L 186.684597 348.94584 
L 186.848683 348.94584 
L 187.012769 348.080821 
L 187.34094 344.552053 
L 187.505025 344.06224 
L 187.669111 344.035583 
L 187.833196 343.386162 
L 187.997282 344.55203 
L 188.325453 338.324558 
L 188.489538 337.919724 
L 188.653624 335.930434 
L 188.817709 335.521495 
L 189.309966 332.473896 
L 189.474051 331.985906 
L 189.638137 332.574861 
L 189.802222 336.483335 
L 189.966308 336.783389 
L 190.130393 333.617317 
L 190.294479 334.461714 
L 190.458565 333.802323 
L 190.62265 333.867709 
L 190.786736 330.827321 
L 190.950821 330.763491 
L 191.114907 330.235778 
L 191.278992 330.588699 
L 191.443078 328.675332 
L 191.607163 325.197528 
L 191.771249 325.914125 
L 192.09942 322.433806 
L 192.263505 323.322806 
L 192.427591 325.342254 
L 192.591676 324.24262 
L 192.755762 324.276006 
L 192.919847 322.921028 
L 193.083933 323.903943 
L 193.248018 327.116731 
L 193.412104 326.866829 
L 193.57619 328.385268 
L 193.740275 328.385268 
L 193.904361 327.225385 
L 194.232532 322.13089 
L 194.560703 320.278018 
L 194.724788 320.165577 
L 194.888874 319.466628 
L 195.217045 319.523629 
L 195.38113 318.653263 
L 195.873387 324.830194 
L 196.037472 324.779629 
L 196.365643 324.351176 
L 196.693814 323.707019 
L 196.8579 322.99408 
L 197.021986 324.117851 
L 197.186071 320.836031 
L 197.350157 320.508643 
L 197.514242 321.331273 
L 198.006499 319.734646 
L 198.170584 316.643375 
L 198.662841 315.614257 
L 198.826926 315.958029 
L 198.991012 315.727781 
L 199.155097 314.297527 
L 199.319183 314.222474 
L 199.483268 314.347806 
L 199.647354 314.117247 
L 199.811439 317.045118 
L 200.139611 315.646616 
L 201.452295 307.265205 
L 201.61638 306.797801 
L 201.944551 304.083807 
L 202.108637 304.792292 
L 202.436808 303.616495 
L 202.600893 303.102857 
L 202.929064 303.203426 
L 203.257235 303.004779 
L 203.585407 305.386071 
L 203.749492 304.738154 
L 203.913578 305.433326 
L 204.241749 305.600955 
L 204.405834 305.394668 
L 204.56992 305.799142 
L 204.898091 304.850484 
L 205.062176 304.953665 
L 205.226262 304.851827 
L 205.554433 303.733431 
L 205.718518 303.611037 
L 205.882604 303.304276 
L 206.046689 303.393966 
L 206.210775 302.597408 
L 206.37486 302.544662 
L 206.538946 302.859282 
L 206.703032 302.56687 
L 206.867117 302.57771 
L 207.031203 303.111834 
L 207.195288 302.923014 
L 207.359374 302.923014 
L 207.523459 302.569865 
L 207.85163 301.405257 
L 208.015716 300.845151 
L 208.179801 300.983143 
L 208.343887 300.722609 
L 208.507972 299.86617 
L 208.672058 300.125753 
L 209.000229 298.821413 
L 209.164314 298.669083 
L 209.3284 299.157485 
L 209.492485 297.662444 
L 209.656571 298.301425 
L 209.984742 295.838071 
L 210.312913 291.897517 
L 210.476999 291.17853 
L 210.641084 291.105952 
L 210.80517 290.888824 
L 211.297426 287.847239 
L 211.461512 288.112662 
L 211.625597 288.000159 
L 211.789683 290.648779 
L 212.117854 290.090304 
L 212.446025 288.878755 
L 212.774196 281.704838 
L 212.938281 280.892193 
L 213.102367 278.970747 
L 213.266453 278.616775 
L 213.594624 277.084942 
L 213.758709 276.786184 
L 213.922795 274.327708 
L 214.08688 274.008614 
L 214.415051 278.076171 
L 214.579137 277.132756 
L 214.743222 277.865372 
L 215.071393 274.966076 
L 215.235479 275.207772 
L 215.399564 271.690716 
L 215.56365 272.634594 
L 215.727735 271.877039 
L 215.891821 269.705223 
L 216.219992 272.057578 
L 216.384077 271.700874 
L 216.712249 270.349426 
L 216.876334 267.578591 
L 217.04042 270.081441 
L 217.368591 266.359158 
L 217.860847 260.977306 
L 218.024933 257.217619 
L 218.353104 257.039453 
L 218.517189 259.194069 
L 218.681275 258.702205 
L 218.84536 260.178875 
L 219.009446 257.276055 
L 219.173531 259.249421 
L 219.337617 259.698715 
L 219.501702 257.093039 
L 219.665788 259.221048 
L 219.993959 255.126578 
L 220.32213 247.850916 
L 220.486216 245.029351 
L 220.650301 246.472728 
L 220.814387 243.714397 
L 220.978472 243.193232 
L 221.142558 243.415865 
L 221.306643 243.106404 
L 221.470729 242.171873 
L 221.634814 242.716691 
L 221.962985 248.140666 
L 222.127071 249.617212 
L 222.291156 247.371358 
L 222.455242 248.381161 
L 223.603841 226.692497 
L 223.767926 222.466329 
L 223.932012 224.31489 
L 224.096097 221.790515 
L 224.424268 220.066769 
L 224.752439 223.690196 
L 224.916525 224.362136 
L 225.736952 213.032817 
L 225.901038 216.07461 
L 226.065123 216.724898 
L 226.721466 210.100765 
L 226.885551 210.801958 
L 227.049637 210.057795 
L 227.213722 211.428145 
L 227.377808 211.512865 
L 227.705979 207.509526 
L 228.03415 204.2133 
L 228.198235 204.72552 
L 228.362321 204.558021 
L 228.690492 200.080946 
L 228.854577 196.477118 
L 229.018663 197.477901 
L 229.182748 195.632873 
L 229.346834 191.683758 
L 229.510919 191.596609 
L 229.839091 185.19107 
L 230.167262 179.856405 
L 230.331347 179.811777 
L 230.495433 178.890327 
L 230.659518 173.814349 
L 230.987689 174.006854 
L 231.31586 171.621238 
L 231.644031 172.070345 
L 231.972202 168.29966 
L 232.136288 166.92859 
L 233.284887 149.426752 
L 233.448972 149.909293 
L 233.777143 144.097956 
L 233.941229 143.476762 
L 234.761656 130.056587 
L 235.089827 126.787398 
L 235.253913 127.779955 
L 235.417998 125.743224 
L 235.582084 125.792306 
L 235.746169 124.739793 
L 235.910255 125.108454 
L 236.07434 125.082058 
L 236.238426 123.69265 
L 236.402512 123.668957 
L 236.566597 126.163787 
L 236.730683 125.606948 
L 236.894768 121.506668 
L 237.058854 120.733018 
L 237.222939 119.165753 
L 237.387025 118.875494 
L 237.55111 119.03881 
L 237.715196 118.694554 
L 237.879281 119.711384 
L 238.043367 118.601514 
L 238.371538 111.085119 
L 238.535623 113.488103 
L 238.699709 112.809184 
L 239.02788 108.817425 
L 239.684222 98.944868 
L 239.848308 101.744704 
L 240.012393 100.927118 
L 240.668735 95.353922 
L 240.832821 94.767032 
L 241.160992 91.782492 
L 241.325077 91.465441 
L 241.489163 88.529318 
L 241.653248 88.27517 
L 241.817334 87.760789 
L 241.981419 87.827723 
L 242.473676 86.662795 
L 242.965933 84.314267 
L 244.114531 71.08817 
L 244.278617 68.60317 
L 244.442702 68.029125 
L 244.606788 71.639809 
L 244.770873 70.11311 
L 245.099044 69.209132 
L 245.591301 71.508034 
L 245.755386 70.556533 
L 245.919472 72.909285 
L 246.083558 70.500436 
L 246.247643 65.674617 
L 246.411729 65.252528 
L 247.068071 59.141497 
L 247.232156 56.168585 
L 247.396242 56.150474 
L 247.560327 53.217889 
L 247.724413 55.308902 
L 247.888498 55.624911 
L 248.052584 55.073287 
L 248.380755 52.013268 
L 248.708926 50.827023 
L 248.873011 50.848713 
L 249.201182 48.897795 
L 249.365268 47.996719 
L 249.529354 47.923658 
L 249.693439 46.689511 
L 249.857525 48.225883 
L 250.02161 46.814873 
L 250.185696 47.633135 
L 250.349781 47.307061 
L 250.677952 45.820121 
L 250.842038 45.759457 
L 251.170209 42.538229 
L 251.334294 42.667242 
L 251.49838 41.123306 
L 251.662465 43.963537 
L 251.990636 41.364699 
L 252.154722 41.511714 
L 252.482893 43.097768 
L 252.646979 43.208885 
L 252.811064 42.991319 
L 252.97515 43.229481 
L 253.139235 44.179526 
L 253.303321 40.808627 
L 253.467406 40.920635 
L 253.795577 39.712023 
L 254.123748 37.786027 
L 254.287834 36.53619 
L 254.451919 36.491108 
L 254.78009 35.368984 
L 255.272347 37.096168 
L 255.436432 36.829443 
L 255.600518 37.595581 
L 255.764603 36.945483 
L 255.928689 38.304116 
L 256.25686 37.951433 
L 256.420946 37.106042 
L 256.585031 37.113284 
L 256.749117 35.362974 
L 256.913202 35.365834 
L 257.077288 35.493983 
L 257.241373 34.857864 
L 257.405459 35.724533 
L 257.569544 35.156562 
L 257.73363 35.259092 
L 257.897715 34.996186 
L 258.061801 35.355674 
L 258.225886 34.974859 
L 258.718143 38.380521 
L 258.882228 38.249549 
L 259.2104 36.720549 
L 259.374485 36.210689 
L 259.538571 36.343579 
L 259.702656 35.843693 
L 259.866742 35.71738 
L 260.030827 35.345889 
L 260.194913 33.644284 
L 260.358998 33.459633 
L 260.687169 34.966624 
L 260.851255 35.225645 
L 261.01534 35.22846 
L 261.507597 34.846792 
L 262.49211 31.66126 
L 262.820281 31.918478 
L 262.984367 32.547157 
L 263.148452 32.549973 
L 263.640709 34.208001 
L 263.96888 34.211781 
L 264.461136 33.443902 
L 264.789307 32.421352 
L 265.117478 32.661852 
L 265.281564 31.919725 
L 265.609735 31.658735 
L 265.773821 31.783076 
L 266.430163 31.392996 
L 266.758334 30.630518 
L 267.25059 30.619169 
L 267.414676 30.362891 
L 267.742847 30.754884 
L 268.071018 30.754884 
L 268.235103 30.625803 
L 268.399189 30.753953 
L 268.563274 30.369496 
L 268.891445 30.497624 
L 269.219617 30.495706 
L 269.383702 30.236602 
L 269.547788 31.120945 
L 269.875959 31.511014 
L 270.040044 31.253783 
L 270.20413 31.253783 
L 270.368215 30.994679 
L 270.532301 31.254725 
L 270.860472 30.993731 
L 271.024557 31.256643 
L 271.188643 30.242277 
L 271.352728 30.24323 
L 271.680899 29.723138 
L 272.00907 30.494849 
L 272.173156 30.492034 
L 272.501327 30.621104 
L 272.665413 30.358191 
L 272.993584 30.358191 
L 273.157669 30.617295 
L 273.321755 30.617295 
L 273.814011 29.847458 
L 274.142182 29.847458 
L 274.634439 30.108456 
L 275.290781 29.720271 
L 275.454866 29.980317 
L 275.783038 29.851247 
L 275.947123 29.851247 
L 276.43938 29.459273 
L 276.603465 29.590248 
L 276.767551 29.460225 
L 276.931636 29.590248 
L 277.095722 29.200179 
L 277.423893 29.459283 
L 277.587978 29.32926 
L 278.080235 29.978444 
L 278.408406 29.978444 
L 278.572491 29.848421 
L 278.736577 29.979397 
L 280.049261 29.070156 
L 280.377432 29.069204 
L 280.705603 29.198274 
L 281.361945 29.198274 
L 281.690116 29.068251 
L 281.854202 29.068251 
L 282.346459 28.809158 
L 282.510544 28.809158 
L 282.838715 28.939181 
L 283.166886 28.939181 
L 283.330972 29.198285 
L 283.659143 29.198285 
L 283.823228 29.067309 
L 283.987314 29.328303 
L 284.151399 29.328303 
L 284.47957 29.19828 
L 284.807741 29.19828 
L 284.971827 28.939176 
L 285.464084 28.939176 
L 285.792255 28.808205 
L 286.448597 28.808205 
L 286.776768 28.938228 
L 287.104939 28.938228 
L 287.43311 28.808205 
L 288.089452 28.808205 
L 288.417623 28.678182 
L 289.073965 28.678182 
L 289.238051 28.937286 
L 290.058478 28.937286 
L 290.550735 29.198285 
L 290.71482 29.198285 
L 290.878906 28.939181 
L 292.027505 28.940133 
L 292.355676 28.809158 
L 292.519761 28.809158 
L 292.847932 28.940133 
L 293.176103 28.940133 
L 293.340189 29.199237 
L 293.504274 29.068262 
L 293.996531 29.328308 
L 294.160616 29.328308 
L 294.488787 29.197332 
L 294.816958 29.197332 
L 294.981044 28.938228 
L 295.145129 28.938228 
L 295.637386 28.678182 
L 297.114156 28.678182 
L 297.442327 28.808205 
L 298.755011 28.808205 
L 299.083182 28.678182 
L 299.411353 28.678182 
L 299.90361 28.939181 
L 301.052208 28.939181 
L 301.544465 28.678182 
L 302.200807 28.678182 
L 302.528978 28.808205 
L 303.841662 28.808205 
L 304.169833 28.678182 
L 304.333919 28.678182 
L 304.66209 28.808205 
L 305.318432 28.808205 
L 305.646603 28.939181 
L 305.974774 28.939181 
L 306.302945 28.809158 
L 306.959287 28.809158 
L 307.287458 28.678182 
L 323.696011 28.678182 
L 324.024182 28.809158 
L 324.680524 28.809158 
L 325.008695 28.939181 
L 325.336866 28.939181 
L 325.665037 28.808205 
L 325.993208 28.938228 
L 326.321379 28.938228 
L 326.64955 28.808205 
L 327.305892 28.808205 
L 327.634063 28.678182 
L 330.751688 28.678182 
L 331.079859 28.809158 
L 331.572116 28.809158 
L 331.900287 28.939181 
L 332.064373 28.939181 
L 332.392544 29.069204 
L 332.720715 28.938228 
L 333.212971 28.938228 
L 333.377057 28.808205 
L 333.705228 28.939181 
L 334.033399 28.809158 
L 334.36157 28.939181 
L 335.017912 28.939181 
L 335.346083 28.808205 
L 335.674254 28.939181 
L 336.002425 28.809158 
L 336.986938 28.809158 
L 337.315109 28.678182 
L 341.089076 28.678182 
L 341.417248 28.808205 
L 342.729932 28.808205 
L 343.058103 28.678182 
L 427.562148 28.678182 
L 427.890319 28.809158 
L 429.203003 28.809158 
L 429.367089 28.678182 
L 429.531174 28.937286 
L 431.007944 28.937286 
L 431.17203 28.678182 
L 433.797398 28.678182 
L 434.125569 28.808205 
L 434.617826 28.808205 
L 434.945997 28.938228 
L 435.438253 28.938228 
L 435.766424 28.808205 
L 436.258681 28.808205 
L 436.586852 28.678182 
L 437.079109 28.678182 
L 437.40728 28.809158 
L 437.899536 28.809158 
L 438.227707 28.939181 
L 438.391793 28.939181 
L 438.719964 29.069204 
L 439.048135 28.938228 
L 439.376306 29.069204 
L 439.540391 29.069204 
L 439.868563 28.939181 
L 440.032648 29.069204 
L 440.196734 28.939181 
L 440.68899 29.200179 
L 440.853076 29.069204 
L 441.017161 29.332116 
L 441.509418 29.332116 
L 441.837589 29.202093 
L 442.001674 29.202093 
L 442.329845 29.071117 
L 442.493931 29.071117 
L 442.658016 28.808205 
L 443.150273 28.808205 
L 443.314359 29.195459 
L 443.478444 29.195459 
L 443.806615 29.065435 
L 444.791128 29.065435 
L 444.955214 28.678182 
L 445.119299 28.678182 
L 445.283385 28.939176 
L 445.611556 28.939176 
L 445.939727 29.069199 
L 446.103812 29.58368 
L 446.431984 29.713703 
L 447.416497 29.715621 
L 447.580582 29.845644 
L 447.744668 29.331163 
L 448.072839 29.20114 
L 448.236924 29.20114 
L 448.40101 29.331163 
L 448.565095 29.068251 
L 448.893266 29.068251 
L 449.221437 28.938228 
L 449.549609 28.938228 
L 449.87778 29.068251 
L 450.205951 28.938228 
L 450.698207 28.938228 
L 451.026378 28.808205 
L 452.831319 28.808205 
L 453.15949 28.678182 
L 455.128516 28.678182 
L 455.456687 28.808205 
L 456.769372 28.808205 
L 457.097543 28.678182 
L 461.691937 28.678182 
L 462.020108 28.808205 
L 462.184194 28.808205 
L 462.512365 28.938228 
L 463.332793 28.938228 
L 463.660964 28.808205 
L 463.825049 28.808205 
L 464.15322 28.678182 
L 525.193036 28.678182 
L 525.521207 28.809158 
L 526.833891 28.809158 
L 527.162062 28.678182 
L 530.936029 28.678182 
L 531.2642 28.808205 
L 532.576884 28.808205 
L 532.905055 28.678182 
L 565.558075 28.678182 
L 565.72216 28.941094 
L 566.050331 28.941094 
L 566.542588 29.589325 
L 566.870759 29.980343 
L 567.19893 30.502332 
L 567.363015 30.370395 
L 567.691187 30.501371 
L 567.855272 30.242267 
L 568.019358 30.499497 
L 568.183443 30.240393 
L 568.347529 30.876576 
L 568.511614 30.615582 
L 568.6757 30.613691 
L 569.003871 30.221721 
L 569.332042 30.221721 
L 569.496127 30.480825 
L 569.660213 30.093572 
L 569.824298 30.093572 
L 569.988384 29.327366 
L 570.808811 29.844642 
L 570.972897 29.844642 
L 571.136983 29.585538 
L 571.629239 29.585538 
L 571.793325 29.455515 
L 571.95741 29.068262 
L 572.121496 29.068262 
L 572.613752 28.808205 
L 572.777838 28.808205 
L 573.106009 28.938228 
L 573.270094 28.938228 
L 573.762351 29.199227 
L 574.090522 29.069204 
L 575.075035 29.720282 
L 575.239121 29.589306 
L 575.895463 30.112265 
L 576.387719 29.853161 
L 576.551805 29.853161 
L 577.044061 30.115116 
L 577.208147 30.7513 
L 577.536318 30.488387 
L 577.700404 30.61841 
L 577.864489 30.488387 
L 578.028575 30.621277 
L 578.19266 31.009459 
L 578.356746 30.746547 
L 578.520831 30.87657 
L 578.684917 30.615575 
L 578.849002 29.979392 
L 579.013088 29.849369 
L 579.177173 29.979392 
L 579.341259 29.849369 
L 579.505344 30.108473 
L 579.66943 30.104665 
L 579.833515 29.716482 
L 579.997601 29.846505 
L 580.161686 29.716482 
L 580.325772 29.979394 
L 580.818029 29.719348 
L 580.982114 29.719348 
L 581.310285 29.331163 
L 581.966627 28.938228 
L 582.130713 28.938228 
L 582.622969 29.200179 
L 582.787055 29.200179 
L 582.95114 29.070156 
L 583.279311 29.200179 
L 583.443397 29.200179 
L 584.099739 28.808205 
L 584.591996 28.808205 
L 584.920167 28.678182 
L 587.545535 28.678182 
L 587.873706 28.808205 
L 589.18639 28.808205 
L 589.514561 28.678182 
L 593.616699 28.678182 
L 594.108956 28.939181 
L 595.257555 28.939181 
L 595.749811 28.678182 
L 596.734324 28.678182 
L 597.062495 28.808205 
L 598.37518 28.808205 
L 598.703351 28.678182 
L 600.672377 28.678182 
L 601.000548 28.808205 
L 601.164634 28.808205 
L 601.492805 28.939181 
L 602.313232 28.939181 
L 602.641403 28.809158 
L 602.805489 28.809158 
L 603.13366 28.678182 
L 611.009765 28.678182 
L 611.337936 28.809158 
L 611.830193 28.809158 
L 612.158364 28.939181 
L 612.322449 28.939181 
L 612.65062 29.465982 
L 612.814706 29.465982 
L 613.306962 29.72698 
L 613.471048 30.241461 
L 613.799219 30.111438 
L 614.291476 30.616394 
L 615.440074 29.840915 
L 615.60416 29.710892 
L 615.932331 28.809158 
L 616.588673 28.809158 
L 616.916844 28.678182 
L 620.198555 28.678182 
L 620.526726 28.809158 
L 621.018982 28.809158 
L 621.347153 29.198285 
L 621.675324 29.328308 
L 622.167581 29.328308 
L 622.659837 29.721243 
L 622.823923 29.462139 
L 622.988008 29.462139 
L 623.152094 29.332116 
L 623.480265 29.462139 
L 623.972522 29.20114 
L 624.136607 29.20114 
L 624.300693 28.938228 
L 624.464778 29.197332 
L 624.957035 28.937286 
L 625.449291 28.937286 
L 625.777462 29.067309 
L 625.941548 29.067309 
L 626.105633 28.808205 
L 627.090147 28.808205 
L 627.418318 28.678182 
L 627.582403 28.678182 
L 627.910574 28.808205 
L 629.223258 28.808205 
L 629.551429 28.678182 
L 630.043686 28.678182 
L 630.371857 28.808205 
L 631.028199 28.808205 
L 631.35637 28.939181 
L 632.669054 28.939181 
L 632.83314 28.808205 
L 633.325397 29.199227 
L 633.653568 29.069204 
L 634.473995 29.069204 
L 635.130337 28.678182 
L 639.232475 28.678182 
L 639.560646 28.809158 
L 640.709245 28.809158 
L 640.873331 28.939181 
L 641.201502 28.808205 
L 642.3501 28.808205 
L 642.678271 28.678182 
L 647.272666 28.678182 
L 647.600837 28.809158 
L 648.913521 28.809158 
L 649.241692 28.678182 
L 756.38954 28.678182 
L 756.717711 28.809158 
L 758.030396 28.809158 
L 758.358567 28.678182 
L 853.035914 28.678182 
L 853.035914 28.678182 
" clip-path="url(#p3488877602)" style="fill: none; stroke-dasharray: 7.4,3.2; stroke-dashoffset: 0; stroke: #000000; stroke-width: 2"/>
   </g>
   <g id="patch_3">
    <path d="M 35.89 404.12 
L 35.89 10.8 
" style="fill: none; stroke: #000000; stroke-width: 0.8; stroke-linejoin: miter; stroke-linecap: square"/>
   </g>
   <g id="patch_4">
    <path d="M 853.2 404.12 
L 853.2 10.8 
" style="fill: none; stroke: #000000; stroke-width: 0.8; stroke-linejoin: miter; stroke-linecap: square"/>
   </g>
   <g id="patch_5">
    <path d="M 35.89 404.12 
L 853.2 404.12 
" style="fill: none; stroke: #000000; stroke-width: 0.8; stroke-linejoin: miter; stroke-linecap: square"/>
   </g>
   <g id="patch_6">
    <path d="M 35.89 10.8 
L 853.2 10.8 
" style="fill: none; stroke: #000000; stroke-width: 0.8; stroke-linejoin: miter; stroke-linecap: square"/>
   </g>
  </g>
 </g>
 <defs>
  <clipPath id="p3488877602">
   <rect x="35.89" y="10.8" width="817.31" height="393.32"/>
  </clipPath>
 </defs>
</svg>
