<?xml version="1.0" encoding="utf-8" standalone="no"?>
<!DOCTYPE svg PUBLIC "-//W3C//DTD SVG 1.1//EN"
  "http://www.w3.org/Graphics/SVG/1.1/DTD/svg11.dtd">
<svg xmlns:xlink="http://www.w3.org/1999/xlink" width="864pt" height="360pt" viewBox="0 0 864 360" xmlns="http://www.w3.org/2000/svg" version="1.1">
 <metadata>
  <rdf:RDF xmlns:dc="http://purl.org/dc/elements/1.1/" xmlns:cc="http://creativecommons.org/ns#" xmlns:rdf="http://www.w3.org/1999/02/22-rdf-syntax-ns#">
   <cc:Work>
    <dc:type rdf:resource="http://purl.org/dc/dcmitype/StillImage"/>
    <dc:date>2024-09-16T23:42:38.144738</dc:date>
    <dc:format>image/svg+xml</dc:format>
    <dc:creator>
     <cc:Agent>
      <dc:title>Matplotlib v3.9.2, https://matplotlib.org/</dc:title>
     </cc:Agent>
    </dc:creator>
   </cc:Work>
  </rdf:RDF>
 </metadata>
 <defs>
  <style type="text/css">*{stroke-linejoin: round; stroke-linecap: butt}</style>
 </defs>
 <g id="figure_1">
  <g id="patch_1">
   <path d="M 0 360 
L 864 360 
L 864 0 
L 0 0 
z
" style="fill: #ffffff"/>
  </g>
  <g id="axes_1">
   <g id="patch_2">
    <path d="M 36.36 328.931379 
L 853.2 328.931379 
L 853.2 19.095517 
L 36.36 19.095517 
z
" style="fill: #ffffff"/>
   </g>
   <g id="patch_3">
    <path d="M 63.322434 301.968945 
L 65.731359 301.968945 
L 65.731359 299.56002 
L 63.322434 299.56002 
z
" clip-path="url(#pb44b176d11)" style="stroke: #000000; stroke-linejoin: miter"/>
   </g>
   <g id="patch_4">
    <path d="M 91.134584 302.323691 
L 94.253002 302.323691 
L 94.253002 299.205274 
L 91.134584 299.205274 
z
" clip-path="url(#pb44b176d11)" style="stroke: #000000; stroke-linejoin: miter"/>
   </g>
   <g id="patch_5">
    <path d="M 120.187292 301.43788 
L 121.534087 301.43788 
L 121.534087 300.091085 
L 120.187292 300.091085 
z
" clip-path="url(#pb44b176d11)" style="stroke: #000000; stroke-linejoin: miter"/>
   </g>
   <g id="patch_6">
    <path d="M 148.557833 301.234236 
L 149.497339 301.234236 
L 149.497339 300.294729 
L 148.557833 300.294729 
z
" clip-path="url(#pb44b176d11)" style="stroke: #000000; stroke-linejoin: miter"/>
   </g>
   <g id="patch_7">
    <path d="M 176.955108 301.003858 
L 177.433858 301.003858 
L 177.433858 300.525108 
L 176.955108 300.525108 
z
" clip-path="url(#pb44b176d11)" style="stroke: #000000; stroke-linejoin: miter"/>
   </g>
   <g id="patch_8">
    <path d="M 204.919585 301.206277 
L 205.803173 301.206277 
L 205.803173 300.322689 
L 204.919585 300.322689 
z
" clip-path="url(#pb44b176d11)" style="stroke: #000000; stroke-linejoin: miter"/>
   </g>
   <g id="patch_9">
    <path d="M 233.154124 301.138635 
L 233.902428 301.138635 
L 233.902428 300.390331 
L 233.154124 300.390331 
z
" clip-path="url(#pb44b176d11)" style="stroke: #000000; stroke-linejoin: miter"/>
   </g>
   <g id="patch_10">
    <path d="M 260.91008 301.549576 
L 262.480265 301.549576 
L 262.480265 299.97939 
L 260.91008 299.97939 
z
" clip-path="url(#pb44b176d11)" style="stroke: #000000; stroke-linejoin: miter"/>
   </g>
   <g id="patch_11">
    <path d="M 289.862069 300.764483 
L 289.862069 300.764483 
L 289.862069 300.764483 
L 289.862069 300.764483 
z
" clip-path="url(#pb44b176d11)" style="stroke: #000000; stroke-linejoin: miter"/>
   </g>
   <g id="patch_12">
    <path d="M 318.014203 300.779245 
L 318.043728 300.779245 
L 318.043728 300.74972 
L 318.014203 300.74972 
z
" clip-path="url(#pb44b176d11)" style="stroke: #000000; stroke-linejoin: miter"/>
   </g>
   <g id="patch_13">
    <path d="M 345.682278 301.278067 
L 346.709447 301.278067 
L 346.709447 300.250898 
L 345.682278 300.250898 
z
" clip-path="url(#pb44b176d11)" style="stroke: #000000; stroke-linejoin: miter"/>
   </g>
   <g id="patch_14">
    <path d="M 373.554897 301.572344 
L 375.17062 301.572344 
L 375.17062 299.956621 
L 373.554897 299.956621 
z
" clip-path="url(#pb44b176d11)" style="stroke: #000000; stroke-linejoin: miter"/>
   </g>
   <g id="patch_15">
    <path d="M 402.507406 300.786731 
L 402.551904 300.786731 
L 402.551904 300.742234 
L 402.507406 300.742234 
z
" clip-path="url(#pb44b176d11)" style="stroke: #000000; stroke-linejoin: miter"/>
   </g>
   <g id="patch_16">
    <path d="M 430.364568 301.096466 
L 431.028535 301.096466 
L 431.028535 300.432499 
L 430.364568 300.432499 
z
" clip-path="url(#pb44b176d11)" style="stroke: #000000; stroke-linejoin: miter"/>
   </g>
   <g id="patch_17">
    <path d="M 457.06347 302.564461 
L 460.663426 302.564461 
L 460.663426 298.964505 
L 457.06347 298.964505 
z
" clip-path="url(#pb44b176d11)" style="stroke: #000000; stroke-linejoin: miter"/>
   </g>
   <g id="patch_18">
    <path d="M 487.022785 300.772042 
L 487.037904 300.772042 
L 487.037904 300.756923 
L 487.022785 300.756923 
z
" clip-path="url(#pb44b176d11)" style="stroke: #000000; stroke-linejoin: miter"/>
   </g>
   <g id="patch_19">
    <path d="M 515.197241 300.764483 
L 515.197241 300.764483 
L 515.197241 300.764483 
L 515.197241 300.764483 
z
" clip-path="url(#pb44b176d11)" style="stroke: #000000; stroke-linejoin: miter"/>
   </g>
   <g id="patch_20">
    <path d="M 542.843388 301.285233 
L 543.884888 301.285233 
L 543.884888 300.243733 
L 542.843388 300.243733 
z
" clip-path="url(#pb44b176d11)" style="stroke: #000000; stroke-linejoin: miter"/>
   </g>
   <g id="patch_21">
    <path d="M 571.523511 300.772006 
L 571.538558 300.772006 
L 571.538558 300.75696 
L 571.523511 300.75696 
z
" clip-path="url(#pb44b176d11)" style="stroke: #000000; stroke-linejoin: miter"/>
   </g>
   <g id="patch_22">
    <path d="M 599.190527 301.271887 
L 600.205335 301.271887 
L 600.205335 300.257079 
L 599.190527 300.257079 
z
" clip-path="url(#pb44b176d11)" style="stroke: #000000; stroke-linejoin: miter"/>
   </g>
   <g id="patch_23">
    <path d="M 627.857231 300.772079 
L 627.872424 300.772079 
L 627.872424 300.756887 
L 627.857231 300.756887 
z
" clip-path="url(#pb44b176d11)" style="stroke: #000000; stroke-linejoin: miter"/>
   </g>
   <g id="patch_24">
    <path d="M 655.941312 300.854895 
L 656.122136 300.854895 
L 656.122136 300.67407 
L 655.941312 300.67407 
z
" clip-path="url(#pb44b176d11)" style="stroke: #000000; stroke-linejoin: miter"/>
   </g>
   <g id="patch_25">
    <path d="M 684.017957 300.945147 
L 684.379285 300.945147 
L 684.379285 300.583819 
L 684.017957 300.583819 
z
" clip-path="url(#pb44b176d11)" style="stroke: #000000; stroke-linejoin: miter"/>
   </g>
   <g id="patch_26">
    <path d="M 712.365517 300.764483 
L 712.365517 300.764483 
L 712.365517 300.764483 
L 712.365517 300.764483 
z
" clip-path="url(#pb44b176d11)" style="stroke: #000000; stroke-linejoin: miter"/>
   </g>
   <g id="patch_27">
    <path d="M 740.517439 300.779457 
L 740.547388 300.779457 
L 740.547388 300.749508 
L 740.517439 300.749508 
z
" clip-path="url(#pb44b176d11)" style="stroke: #000000; stroke-linejoin: miter"/>
   </g>
   <g id="patch_28">
    <path d="M 768.69931 300.764483 
L 768.69931 300.764483 
L 768.69931 300.764483 
L 768.69931 300.764483 
z
" clip-path="url(#pb44b176d11)" style="stroke: #000000; stroke-linejoin: miter"/>
   </g>
   <g id="patch_29">
    <path d="M 796.858611 300.772079 
L 796.873803 300.772079 
L 796.873803 300.756887 
L 796.858611 300.756887 
z
" clip-path="url(#pb44b176d11)" style="stroke: #000000; stroke-linejoin: miter"/>
   </g>
   <g id="patch_30">
    <path d="M 62.702718 274.421765 
L 66.351075 274.421765 
L 66.351075 270.773408 
L 62.702718 270.773408 
z
" clip-path="url(#pb44b176d11)" style="stroke: #000000; stroke-linejoin: miter"/>
   </g>
   <g id="patch_31">
    <path d="M 91.700528 273.590852 
L 93.687058 273.590852 
L 93.687058 271.604321 
L 91.700528 271.604321 
z
" clip-path="url(#pb44b176d11)" style="stroke: #000000; stroke-linejoin: miter"/>
   </g>
   <g id="patch_32">
    <path d="M 120.517557 272.940719 
L 121.203822 272.940719 
L 121.203822 272.254454 
L 120.517557 272.254454 
z
" clip-path="url(#pb44b176d11)" style="stroke: #000000; stroke-linejoin: miter"/>
   </g>
   <g id="patch_33">
    <path d="M 147.655038 273.970134 
L 150.400134 273.970134 
L 150.400134 271.225038 
L 147.655038 271.225038 
z
" clip-path="url(#pb44b176d11)" style="stroke: #000000; stroke-linejoin: miter"/>
   </g>
   <g id="patch_34">
    <path d="M 177.014707 272.777362 
L 177.374259 272.777362 
L 177.374259 272.41781 
L 177.014707 272.41781 
z
" clip-path="url(#pb44b176d11)" style="stroke: #000000; stroke-linejoin: miter"/>
   </g>
   <g id="patch_35">
    <path d="M 204.921153 273.037812 
L 205.801605 273.037812 
L 205.801605 272.15736 
L 204.921153 272.15736 
z
" clip-path="url(#pb44b176d11)" style="stroke: #000000; stroke-linejoin: miter"/>
   </g>
   <g id="patch_36">
    <path d="M 232.957992 273.16787 
L 234.098559 273.16787 
L 234.098559 272.027303 
L 232.957992 272.027303 
z
" clip-path="url(#pb44b176d11)" style="stroke: #000000; stroke-linejoin: miter"/>
   </g>
   <g id="patch_37">
    <path d="M 261.057294 273.235465 
L 262.333051 273.235465 
L 262.333051 271.959707 
L 261.057294 271.959707 
z
" clip-path="url(#pb44b176d11)" style="stroke: #000000; stroke-linejoin: miter"/>
   </g>
   <g id="patch_38">
    <path d="M 288.85773 273.601925 
L 290.866407 273.601925 
L 290.866407 271.593248 
L 288.85773 271.593248 
z
" clip-path="url(#pb44b176d11)" style="stroke: #000000; stroke-linejoin: miter"/>
   </g>
   <g id="patch_39">
    <path d="M 317.356227 273.270325 
L 318.701704 273.270325 
L 318.701704 271.924848 
L 317.356227 271.924848 
z
" clip-path="url(#pb44b176d11)" style="stroke: #000000; stroke-linejoin: miter"/>
   </g>
   <g id="patch_40">
    <path d="M 345.093608 273.69984 
L 347.298116 273.69984 
L 347.298116 271.495332 
L 345.093608 271.495332 
z
" clip-path="url(#pb44b176d11)" style="stroke: #000000; stroke-linejoin: miter"/>
   </g>
   <g id="patch_41">
    <path d="M 374.241671 272.718674 
L 374.483846 272.718674 
L 374.483846 272.476498 
L 374.241671 272.476498 
z
" clip-path="url(#pb44b176d11)" style="stroke: #000000; stroke-linejoin: miter"/>
   </g>
   <g id="patch_42">
    <path d="M 401.974287 273.152954 
L 403.085023 273.152954 
L 403.085023 272.042218 
L 401.974287 272.042218 
z
" clip-path="url(#pb44b176d11)" style="stroke: #000000; stroke-linejoin: miter"/>
   </g>
   <g id="patch_43">
    <path d="M 430.207734 273.086404 
L 431.185369 273.086404 
L 431.185369 272.108769 
L 430.207734 272.108769 
z
" clip-path="url(#pb44b176d11)" style="stroke: #000000; stroke-linejoin: miter"/>
   </g>
   <g id="patch_44">
    <path d="M 458.490297 272.970737 
L 459.236599 272.970737 
L 459.236599 272.224435 
L 458.490297 272.224435 
z
" clip-path="url(#pb44b176d11)" style="stroke: #000000; stroke-linejoin: miter"/>
   </g>
   <g id="patch_45">
    <path d="M 486.888088 272.739843 
L 487.172602 272.739843 
L 487.172602 272.455329 
L 486.888088 272.455329 
z
" clip-path="url(#pb44b176d11)" style="stroke: #000000; stroke-linejoin: miter"/>
   </g>
   <g id="patch_46">
    <path d="M 515.197241 272.597586 
L 515.197241 272.597586 
L 515.197241 272.597586 
L 515.197241 272.597586 
z
" clip-path="url(#pb44b176d11)" style="stroke: #000000; stroke-linejoin: miter"/>
   </g>
   <g id="patch_47">
    <path d="M 542.927693 273.034031 
L 543.800582 273.034031 
L 543.800582 272.161142 
L 542.927693 272.161142 
z
" clip-path="url(#pb44b176d11)" style="stroke: #000000; stroke-linejoin: miter"/>
   </g>
   <g id="patch_48">
    <path d="M 571.405848 272.722772 
L 571.656221 272.722772 
L 571.656221 272.4724 
L 571.405848 272.4724 
z
" clip-path="url(#pb44b176d11)" style="stroke: #000000; stroke-linejoin: miter"/>
   </g>
   <g id="patch_49">
    <path d="M 599.346081 272.949437 
L 600.049781 272.949437 
L 600.049781 272.245736 
L 599.346081 272.245736 
z
" clip-path="url(#pb44b176d11)" style="stroke: #000000; stroke-linejoin: miter"/>
   </g>
   <g id="patch_50">
    <path d="M 627.35146 273.110954 
L 628.378195 273.110954 
L 628.378195 272.084219 
L 627.35146 272.084219 
z
" clip-path="url(#pb44b176d11)" style="stroke: #000000; stroke-linejoin: miter"/>
   </g>
   <g id="patch_51">
    <path d="M 655.653746 272.975564 
L 656.409702 272.975564 
L 656.409702 272.219609 
L 655.653746 272.219609 
z
" clip-path="url(#pb44b176d11)" style="stroke: #000000; stroke-linejoin: miter"/>
   </g>
   <g id="patch_52">
    <path d="M 684.03619 272.760017 
L 684.361052 272.760017 
L 684.361052 272.435155 
L 684.03619 272.435155 
z
" clip-path="url(#pb44b176d11)" style="stroke: #000000; stroke-linejoin: miter"/>
   </g>
   <g id="patch_53">
    <path d="M 712.2671 272.696003 
L 712.463934 272.696003 
L 712.463934 272.499169 
L 712.2671 272.499169 
z
" clip-path="url(#pb44b176d11)" style="stroke: #000000; stroke-linejoin: miter"/>
   </g>
   <g id="patch_54">
    <path d="M 740.228215 272.901785 
L 740.836612 272.901785 
L 740.836612 272.293388 
L 740.228215 272.293388 
z
" clip-path="url(#pb44b176d11)" style="stroke: #000000; stroke-linejoin: miter"/>
   </g>
   <g id="patch_55">
    <path d="M 768.360837 272.93606 
L 769.037784 272.93606 
L 769.037784 272.259113 
L 768.360837 272.259113 
z
" clip-path="url(#pb44b176d11)" style="stroke: #000000; stroke-linejoin: miter"/>
   </g>
   <g id="patch_56">
    <path d="M 796.801452 272.662341 
L 796.930961 272.662341 
L 796.930961 272.532832 
L 796.801452 272.532832 
z
" clip-path="url(#pb44b176d11)" style="stroke: #000000; stroke-linejoin: miter"/>
   </g>
   <g id="patch_57">
    <path d="M 62.840232 246.117354 
L 66.213561 246.117354 
L 66.213561 242.744025 
L 62.840232 242.744025 
z
" clip-path="url(#pb44b176d11)" style="stroke: #000000; stroke-linejoin: miter"/>
   </g>
   <g id="patch_58">
    <path d="M 91.139272 245.985211 
L 94.248314 245.985211 
L 94.248314 242.876169 
L 91.139272 242.876169 
z
" clip-path="url(#pb44b176d11)" style="stroke: #000000; stroke-linejoin: miter"/>
   </g>
   <g id="patch_59">
    <path d="M 120.522878 244.768502 
L 121.198502 244.768502 
L 121.198502 244.092878 
L 120.522878 244.092878 
z
" clip-path="url(#pb44b176d11)" style="stroke: #000000; stroke-linejoin: miter"/>
   </g>
   <g id="patch_60">
    <path d="M 147.810862 245.647414 
L 150.244311 245.647414 
L 150.244311 243.213965 
L 147.810862 243.213965 
z
" clip-path="url(#pb44b176d11)" style="stroke: #000000; stroke-linejoin: miter"/>
   </g>
   <g id="patch_61">
    <path d="M 176.594029 245.031144 
L 177.794937 245.031144 
L 177.794937 243.830236 
L 176.594029 243.830236 
z
" clip-path="url(#pb44b176d11)" style="stroke: #000000; stroke-linejoin: miter"/>
   </g>
   <g id="patch_62">
    <path d="M 204.53649 245.255579 
L 206.186268 245.255579 
L 206.186268 243.605801 
L 204.53649 243.605801 
z
" clip-path="url(#pb44b176d11)" style="stroke: #000000; stroke-linejoin: miter"/>
   </g>
   <g id="patch_63">
    <path d="M 232.431076 245.52789 
L 234.625476 245.52789 
L 234.625476 243.333489 
L 232.431076 243.333489 
z
" clip-path="url(#pb44b176d11)" style="stroke: #000000; stroke-linejoin: miter"/>
   </g>
   <g id="patch_64">
    <path d="M 261.075915 245.049947 
L 262.31443 245.049947 
L 262.31443 243.811432 
L 261.075915 243.811432 
z
" clip-path="url(#pb44b176d11)" style="stroke: #000000; stroke-linejoin: miter"/>
   </g>
   <g id="patch_65">
    <path d="M 289.575676 244.717082 
L 290.148462 244.717082 
L 290.148462 244.144297 
L 289.575676 244.144297 
z
" clip-path="url(#pb44b176d11)" style="stroke: #000000; stroke-linejoin: miter"/>
   </g>
   <g id="patch_66">
    <path d="M 317.269548 245.190107 
L 318.788383 245.190107 
L 318.788383 243.671272 
L 317.269548 243.671272 
z
" clip-path="url(#pb44b176d11)" style="stroke: #000000; stroke-linejoin: miter"/>
   </g>
   <g id="patch_67">
    <path d="M 344.857768 245.768784 
L 347.533956 245.768784 
L 347.533956 243.092595 
L 344.857768 243.092595 
z
" clip-path="url(#pb44b176d11)" style="stroke: #000000; stroke-linejoin: miter"/>
   </g>
   <g id="patch_68">
    <path d="M 373.957997 244.835452 
L 374.767521 244.835452 
L 374.767521 244.025928 
L 373.957997 244.025928 
z
" clip-path="url(#pb44b176d11)" style="stroke: #000000; stroke-linejoin: miter"/>
   </g>
   <g id="patch_69">
    <path d="M 402.198902 244.761443 
L 402.860409 244.761443 
L 402.860409 244.099936 
L 402.198902 244.099936 
z
" clip-path="url(#pb44b176d11)" style="stroke: #000000; stroke-linejoin: miter"/>
   </g>
   <g id="patch_70">
    <path d="M 429.804136 245.323105 
L 431.588968 245.323105 
L 431.588968 243.538274 
L 429.804136 243.538274 
z
" clip-path="url(#pb44b176d11)" style="stroke: #000000; stroke-linejoin: miter"/>
   </g>
   <g id="patch_71">
    <path d="M 457.784497 245.509641 
L 459.942399 245.509641 
L 459.942399 243.351739 
L 457.784497 243.351739 
z
" clip-path="url(#pb44b176d11)" style="stroke: #000000; stroke-linejoin: miter"/>
   </g>
   <g id="patch_72">
    <path d="M 486.980404 244.480631 
L 487.080286 244.480631 
L 487.080286 244.380748 
L 486.980404 244.380748 
z
" clip-path="url(#pb44b176d11)" style="stroke: #000000; stroke-linejoin: miter"/>
   </g>
   <g id="patch_73">
    <path d="M 514.617515 245.010416 
L 515.776968 245.010416 
L 515.776968 243.850963 
L 514.617515 243.850963 
z
" clip-path="url(#pb44b176d11)" style="stroke: #000000; stroke-linejoin: miter"/>
   </g>
   <g id="patch_74">
    <path d="M 542.826606 244.968222 
L 543.90167 244.968222 
L 543.90167 243.893158 
L 542.826606 243.893158 
z
" clip-path="url(#pb44b176d11)" style="stroke: #000000; stroke-linejoin: miter"/>
   </g>
   <g id="patch_75">
    <path d="M 571.076648 244.885076 
L 571.985421 244.885076 
L 571.985421 243.976303 
L 571.076648 243.976303 
z
" clip-path="url(#pb44b176d11)" style="stroke: #000000; stroke-linejoin: miter"/>
   </g>
   <g id="patch_76">
    <path d="M 598.531374 245.597247 
L 600.864488 245.597247 
L 600.864488 243.264133 
L 598.531374 243.264133 
z
" clip-path="url(#pb44b176d11)" style="stroke: #000000; stroke-linejoin: miter"/>
   </g>
   <g id="patch_77">
    <path d="M 627.572593 244.722924 
L 628.157062 244.722924 
L 628.157062 244.138455 
L 627.572593 244.138455 
z
" clip-path="url(#pb44b176d11)" style="stroke: #000000; stroke-linejoin: miter"/>
   </g>
   <g id="patch_78">
    <path d="M 655.280174 245.18224 
L 656.783274 245.18224 
L 656.783274 243.67914 
L 655.280174 243.67914 
z
" clip-path="url(#pb44b176d11)" style="stroke: #000000; stroke-linejoin: miter"/>
   </g>
   <g id="patch_79">
    <path d="M 683.664054 244.965256 
L 684.733187 244.965256 
L 684.733187 243.896123 
L 683.664054 243.896123 
z
" clip-path="url(#pb44b176d11)" style="stroke: #000000; stroke-linejoin: miter"/>
   </g>
   <g id="patch_80">
    <path d="M 712.030118 244.766088 
L 712.700916 244.766088 
L 712.700916 244.095291 
L 712.030118 244.095291 
z
" clip-path="url(#pb44b176d11)" style="stroke: #000000; stroke-linejoin: miter"/>
   </g>
   <g id="patch_81">
    <path d="M 739.850257 245.112846 
L 741.21457 245.112846 
L 741.21457 243.748533 
L 739.850257 243.748533 
z
" clip-path="url(#pb44b176d11)" style="stroke: #000000; stroke-linejoin: miter"/>
   </g>
   <g id="patch_82">
    <path d="M 768.147854 244.982146 
L 769.250767 244.982146 
L 769.250767 243.879233 
L 768.147854 243.879233 
z
" clip-path="url(#pb44b176d11)" style="stroke: #000000; stroke-linejoin: miter"/>
   </g>
   <g id="patch_83">
    <path d="M 796.07896 245.217937 
L 797.653454 245.217937 
L 797.653454 243.643442 
L 796.07896 243.643442 
z
" clip-path="url(#pb44b176d11)" style="stroke: #000000; stroke-linejoin: miter"/>
   </g>
   <g id="patch_84">
    <path d="M 63.620656 217.170034 
L 65.433137 217.170034 
L 65.433137 215.357552 
L 63.620656 215.357552 
z
" clip-path="url(#pb44b176d11)" style="stroke: #000000; stroke-linejoin: miter"/>
   </g>
   <g id="patch_85">
    <path d="M 91.967548 216.990038 
L 93.420038 216.990038 
L 93.420038 215.537548 
L 91.967548 215.537548 
z
" clip-path="url(#pb44b176d11)" style="stroke: #000000; stroke-linejoin: miter"/>
   </g>
   <g id="patch_86">
    <path d="M 119.959803 217.164679 
L 121.761576 217.164679 
L 121.761576 215.362907 
L 119.959803 215.362907 
z
" clip-path="url(#pb44b176d11)" style="stroke: #000000; stroke-linejoin: miter"/>
   </g>
   <g id="patch_87">
    <path d="M 148.153547 217.137832 
L 149.901625 217.137832 
L 149.901625 215.389754 
L 148.153547 215.389754 
z
" clip-path="url(#pb44b176d11)" style="stroke: #000000; stroke-linejoin: miter"/>
   </g>
   <g id="patch_88">
    <path d="M 176.242277 217.215998 
L 178.146688 217.215998 
L 178.146688 215.311588 
L 176.242277 215.311588 
z
" clip-path="url(#pb44b176d11)" style="stroke: #000000; stroke-linejoin: miter"/>
   </g>
   <g id="patch_89">
    <path d="M 204.757831 216.867341 
L 205.964927 216.867341 
L 205.964927 215.660245 
L 204.757831 215.660245 
z
" clip-path="url(#pb44b176d11)" style="stroke: #000000; stroke-linejoin: miter"/>
   </g>
   <g id="patch_90">
    <path d="M 233.001811 216.790258 
L 234.05474 216.790258 
L 234.05474 215.737329 
L 233.001811 215.737329 
z
" clip-path="url(#pb44b176d11)" style="stroke: #000000; stroke-linejoin: miter"/>
   </g>
   <g id="patch_91">
    <path d="M 261.114072 216.844894 
L 262.276273 216.844894 
L 262.276273 215.682692 
L 261.114072 215.682692 
z
" clip-path="url(#pb44b176d11)" style="stroke: #000000; stroke-linejoin: miter"/>
   </g>
   <g id="patch_92">
    <path d="M 288.849257 217.276605 
L 290.874881 217.276605 
L 290.874881 215.250981 
L 288.849257 215.250981 
z
" clip-path="url(#pb44b176d11)" style="stroke: #000000; stroke-linejoin: miter"/>
   </g>
   <g id="patch_93">
    <path d="M 317.28505 217.007709 
L 318.772881 217.007709 
L 318.772881 215.519877 
L 317.28505 215.519877 
z
" clip-path="url(#pb44b176d11)" style="stroke: #000000; stroke-linejoin: miter"/>
   </g>
   <g id="patch_94">
    <path d="M 345.618138 216.841518 
L 346.773587 216.841518 
L 346.773587 215.686069 
L 345.618138 215.686069 
z
" clip-path="url(#pb44b176d11)" style="stroke: #000000; stroke-linejoin: miter"/>
   </g>
   <g id="patch_95">
    <path d="M 373.381326 217.245226 
L 375.344192 217.245226 
L 375.344192 215.28236 
L 373.381326 215.28236 
z
" clip-path="url(#pb44b176d11)" style="stroke: #000000; stroke-linejoin: miter"/>
   </g>
   <g id="patch_96">
    <path d="M 402.049697 216.743752 
L 403.009614 216.743752 
L 403.009614 215.783835 
L 402.049697 215.783835 
z
" clip-path="url(#pb44b176d11)" style="stroke: #000000; stroke-linejoin: miter"/>
   </g>
   <g id="patch_97">
    <path d="M 429.989409 216.970936 
L 431.403694 216.970936 
L 431.403694 215.55665 
L 429.989409 215.55665 
z
" clip-path="url(#pb44b176d11)" style="stroke: #000000; stroke-linejoin: miter"/>
   </g>
   <g id="patch_98">
    <path d="M 458.266705 216.860537 
L 459.460192 216.860537 
L 459.460192 215.66705 
L 458.266705 215.66705 
z
" clip-path="url(#pb44b176d11)" style="stroke: #000000; stroke-linejoin: miter"/>
   </g>
   <g id="patch_99">
    <path d="M 486.980668 216.31347 
L 487.080022 216.31347 
L 487.080022 216.214116 
L 486.980668 216.214116 
z
" clip-path="url(#pb44b176d11)" style="stroke: #000000; stroke-linejoin: miter"/>
   </g>
   <g id="patch_100">
    <path d="M 513.773976 217.687058 
L 516.620507 217.687058 
L 516.620507 214.840528 
L 513.773976 214.840528 
z
" clip-path="url(#pb44b176d11)" style="stroke: #000000; stroke-linejoin: miter"/>
   </g>
   <g id="patch_101">
    <path d="M 542.857254 216.770677 
L 543.871022 216.770677 
L 543.871022 215.756909 
L 542.857254 215.756909 
z
" clip-path="url(#pb44b176d11)" style="stroke: #000000; stroke-linejoin: miter"/>
   </g>
   <g id="patch_102">
    <path d="M 571.440056 216.354771 
L 571.622013 216.354771 
L 571.622013 216.172815 
L 571.440056 216.172815 
z
" clip-path="url(#pb44b176d11)" style="stroke: #000000; stroke-linejoin: miter"/>
   </g>
   <g id="patch_103">
    <path d="M 599.260618 216.701106 
L 600.135244 216.701106 
L 600.135244 215.82648 
L 599.260618 215.82648 
z
" clip-path="url(#pb44b176d11)" style="stroke: #000000; stroke-linejoin: miter"/>
   </g>
   <g id="patch_104">
    <path d="M 626.839125 217.289496 
L 628.89053 217.289496 
L 628.89053 215.23809 
L 626.839125 215.23809 
z
" clip-path="url(#pb44b176d11)" style="stroke: #000000; stroke-linejoin: miter"/>
   </g>
   <g id="patch_105">
    <path d="M 655.763054 216.532463 
L 656.300394 216.532463 
L 656.300394 215.995123 
L 655.763054 215.995123 
z
" clip-path="url(#pb44b176d11)" style="stroke: #000000; stroke-linejoin: miter"/>
   </g>
   <g id="patch_106">
    <path d="M 683.684334 216.77808 
L 684.712908 216.77808 
L 684.712908 215.749506 
L 683.684334 215.749506 
z
" clip-path="url(#pb44b176d11)" style="stroke: #000000; stroke-linejoin: miter"/>
   </g>
   <g id="patch_107">
    <path d="M 711.817094 216.812216 
L 712.91394 216.812216 
L 712.91394 215.71537 
L 711.817094 215.71537 
z
" clip-path="url(#pb44b176d11)" style="stroke: #000000; stroke-linejoin: miter"/>
   </g>
   <g id="patch_108">
    <path d="M 740.014121 216.782086 
L 741.050707 216.782086 
L 741.050707 215.7455 
L 740.014121 215.7455 
z
" clip-path="url(#pb44b176d11)" style="stroke: #000000; stroke-linejoin: miter"/>
   </g>
   <g id="patch_109">
    <path d="M 767.697189 217.265914 
L 769.701431 217.265914 
L 769.701431 215.261672 
L 767.697189 215.261672 
z
" clip-path="url(#pb44b176d11)" style="stroke: #000000; stroke-linejoin: miter"/>
   </g>
   <g id="patch_110">
    <path d="M 796.729268 216.400732 
L 797.003145 216.400732 
L 797.003145 216.126855 
L 796.729268 216.126855 
z
" clip-path="url(#pb44b176d11)" style="stroke: #000000; stroke-linejoin: miter"/>
   </g>
   <g id="patch_111">
    <path d="M 63.515983 189.107811 
L 65.537811 189.107811 
L 65.537811 187.085983 
L 63.515983 187.085983 
z
" clip-path="url(#pb44b176d11)" style="stroke: #000000; stroke-linejoin: miter"/>
   </g>
   <g id="patch_112">
    <path d="M 91.971715 188.818975 
L 93.415871 188.818975 
L 93.415871 187.374818 
L 91.971715 187.374818 
z
" clip-path="url(#pb44b176d11)" style="stroke: #000000; stroke-linejoin: miter"/>
   </g>
   <g id="patch_113">
    <path d="M 120.122518 188.835069 
L 121.598862 188.835069 
L 121.598862 187.358725 
L 120.122518 187.358725 
z
" clip-path="url(#pb44b176d11)" style="stroke: #000000; stroke-linejoin: miter"/>
   </g>
   <g id="patch_114">
    <path d="M 148.090856 189.033626 
L 149.964316 189.033626 
L 149.964316 187.160167 
L 148.090856 187.160167 
z
" clip-path="url(#pb44b176d11)" style="stroke: #000000; stroke-linejoin: miter"/>
   </g>
   <g id="patch_115">
    <path d="M 176.20603 189.085349 
L 178.182935 189.085349 
L 178.182935 187.108444 
L 176.20603 187.108444 
z
" clip-path="url(#pb44b176d11)" style="stroke: #000000; stroke-linejoin: miter"/>
   </g>
   <g id="patch_116">
    <path d="M 205.021185 188.437091 
L 205.701574 188.437091 
L 205.701574 187.756702 
L 205.021185 187.756702 
z
" clip-path="url(#pb44b176d11)" style="stroke: #000000; stroke-linejoin: miter"/>
   </g>
   <g id="patch_117">
    <path d="M 232.657991 188.967181 
L 234.398561 188.967181 
L 234.398561 187.226612 
L 232.657991 187.226612 
z
" clip-path="url(#pb44b176d11)" style="stroke: #000000; stroke-linejoin: miter"/>
   </g>
   <g id="patch_118">
    <path d="M 260.653159 189.13891 
L 262.737185 189.13891 
L 262.737185 187.054884 
L 260.653159 187.054884 
z
" clip-path="url(#pb44b176d11)" style="stroke: #000000; stroke-linejoin: miter"/>
   </g>
   <g id="patch_119">
    <path d="M 289.389916 188.56905 
L 290.334222 188.56905 
L 290.334222 187.624743 
L 289.389916 187.624743 
z
" clip-path="url(#pb44b176d11)" style="stroke: #000000; stroke-linejoin: miter"/>
   </g>
   <g id="patch_120">
    <path d="M 317.485643 188.640219 
L 318.572288 188.640219 
L 318.572288 187.553574 
L 317.485643 187.553574 
z
" clip-path="url(#pb44b176d11)" style="stroke: #000000; stroke-linejoin: miter"/>
   </g>
   <g id="patch_121">
    <path d="M 345.461892 188.830867 
L 346.929832 188.830867 
L 346.929832 187.362926 
L 345.461892 187.362926 
z
" clip-path="url(#pb44b176d11)" style="stroke: #000000; stroke-linejoin: miter"/>
   </g>
   <g id="patch_122">
    <path d="M 373.784241 188.675414 
L 374.941276 188.675414 
L 374.941276 187.518379 
L 373.784241 187.518379 
z
" clip-path="url(#pb44b176d11)" style="stroke: #000000; stroke-linejoin: miter"/>
   </g>
   <g id="patch_123">
    <path d="M 402.133846 188.492706 
L 402.925464 188.492706 
L 402.925464 187.701087 
L 402.133846 187.701087 
z
" clip-path="url(#pb44b176d11)" style="stroke: #000000; stroke-linejoin: miter"/>
   </g>
   <g id="patch_124">
    <path d="M 429.887771 188.905678 
L 431.505333 188.905678 
L 431.505333 187.288115 
L 429.887771 187.288115 
z
" clip-path="url(#pb44b176d11)" style="stroke: #000000; stroke-linejoin: miter"/>
   </g>
   <g id="patch_125">
    <path d="M 458.10306 188.857285 
L 459.623837 188.857285 
L 459.623837 187.336508 
L 458.10306 187.336508 
z
" clip-path="url(#pb44b176d11)" style="stroke: #000000; stroke-linejoin: miter"/>
   </g>
   <g id="patch_126">
    <path d="M 486.009647 189.117594 
L 488.051043 189.117594 
L 488.051043 187.076199 
L 486.009647 187.076199 
z
" clip-path="url(#pb44b176d11)" style="stroke: #000000; stroke-linejoin: miter"/>
   </g>
   <g id="patch_127">
    <path d="M 514.801623 188.492515 
L 515.59286 188.492515 
L 515.59286 187.701278 
L 514.801623 187.701278 
z
" clip-path="url(#pb44b176d11)" style="stroke: #000000; stroke-linejoin: miter"/>
   </g>
   <g id="patch_128">
    <path d="M 542.296866 189.164168 
L 544.43141 189.164168 
L 544.43141 187.029625 
L 542.296866 187.029625 
z
" clip-path="url(#pb44b176d11)" style="stroke: #000000; stroke-linejoin: miter"/>
   </g>
   <g id="patch_129">
    <path d="M 570.708555 188.919377 
L 572.353514 188.919377 
L 572.353514 187.274417 
L 570.708555 187.274417 
z
" clip-path="url(#pb44b176d11)" style="stroke: #000000; stroke-linejoin: miter"/>
   </g>
   <g id="patch_130">
    <path d="M 599.380604 188.414224 
L 600.015258 188.414224 
L 600.015258 187.77957 
L 599.380604 187.77957 
z
" clip-path="url(#pb44b176d11)" style="stroke: #000000; stroke-linejoin: miter"/>
   </g>
   <g id="patch_131">
    <path d="M 627.246449 188.715275 
L 628.483206 188.715275 
L 628.483206 187.478518 
L 627.246449 187.478518 
z
" clip-path="url(#pb44b176d11)" style="stroke: #000000; stroke-linejoin: miter"/>
   </g>
   <g id="patch_132">
    <path d="M 655.402677 188.725943 
L 656.660771 188.725943 
L 656.660771 187.46785 
L 655.402677 187.46785 
z
" clip-path="url(#pb44b176d11)" style="stroke: #000000; stroke-linejoin: miter"/>
   </g>
   <g id="patch_133">
    <path d="M 683.450073 188.845445 
L 684.947169 188.845445 
L 684.947169 187.348348 
L 683.450073 187.348348 
z
" clip-path="url(#pb44b176d11)" style="stroke: #000000; stroke-linejoin: miter"/>
   </g>
   <g id="patch_134">
    <path d="M 711.568223 188.894191 
L 713.162811 188.894191 
L 713.162811 187.299602 
L 711.568223 187.299602 
z
" clip-path="url(#pb44b176d11)" style="stroke: #000000; stroke-linejoin: miter"/>
   </g>
   <g id="patch_135">
    <path d="M 740.347821 188.281489 
L 740.717006 188.281489 
L 740.717006 187.912304 
L 740.347821 187.912304 
z
" clip-path="url(#pb44b176d11)" style="stroke: #000000; stroke-linejoin: miter"/>
   </g>
   <g id="patch_136">
    <path d="M 768.141481 188.654726 
L 769.25714 188.654726 
L 769.25714 187.539067 
L 768.141481 187.539067 
z
" clip-path="url(#pb44b176d11)" style="stroke: #000000; stroke-linejoin: miter"/>
   </g>
   <g id="patch_137">
    <path d="M 796.396096 188.567007 
L 797.336318 188.567007 
L 797.336318 187.626786 
L 796.396096 187.626786 
z
" clip-path="url(#pb44b176d11)" style="stroke: #000000; stroke-linejoin: miter"/>
   </g>
   <g id="patch_138">
    <path d="M 63.904967 160.551929 
L 65.148826 160.551929 
L 65.148826 159.308071 
L 63.904967 159.308071 
z
" clip-path="url(#pb44b176d11)" style="stroke: #000000; stroke-linejoin: miter"/>
   </g>
   <g id="patch_139">
    <path d="M 91.916448 160.707345 
L 93.471138 160.707345 
L 93.471138 159.152655 
L 91.916448 159.152655 
z
" clip-path="url(#pb44b176d11)" style="stroke: #000000; stroke-linejoin: miter"/>
   </g>
   <g id="patch_140">
    <path d="M 120.604165 160.186524 
L 121.117214 160.186524 
L 121.117214 159.673476 
L 120.604165 159.673476 
z
" clip-path="url(#pb44b176d11)" style="stroke: #000000; stroke-linejoin: miter"/>
   </g>
   <g id="patch_141">
    <path d="M 148.775502 160.182084 
L 149.27967 160.182084 
L 149.27967 159.677916 
L 148.775502 159.677916 
z
" clip-path="url(#pb44b176d11)" style="stroke: #000000; stroke-linejoin: miter"/>
   </g>
   <g id="patch_142">
    <path d="M 176.931107 160.193376 
L 177.457858 160.193376 
L 177.457858 159.666624 
L 176.931107 159.666624 
z
" clip-path="url(#pb44b176d11)" style="stroke: #000000; stroke-linejoin: miter"/>
   </g>
   <g id="patch_143">
    <path d="M 205.203072 160.088307 
L 205.519687 160.088307 
L 205.519687 159.771693 
L 205.203072 159.771693 
z
" clip-path="url(#pb44b176d11)" style="stroke: #000000; stroke-linejoin: miter"/>
   </g>
   <g id="patch_144">
    <path d="M 233.038059 160.420217 
L 234.018492 160.420217 
L 234.018492 159.439783 
L 233.038059 159.439783 
z
" clip-path="url(#pb44b176d11)" style="stroke: #000000; stroke-linejoin: miter"/>
   </g>
   <g id="patch_145">
    <path d="M 261.092869 160.532304 
L 262.297476 160.532304 
L 262.297476 159.327696 
L 261.092869 159.327696 
z
" clip-path="url(#pb44b176d11)" style="stroke: #000000; stroke-linejoin: miter"/>
   </g>
   <g id="patch_146">
    <path d="M 289.421238 160.370831 
L 290.3029 160.370831 
L 290.3029 159.489169 
L 289.421238 159.489169 
z
" clip-path="url(#pb44b176d11)" style="stroke: #000000; stroke-linejoin: miter"/>
   </g>
   <g id="patch_147">
    <path d="M 317.886656 160.072309 
L 318.171275 160.072309 
L 318.171275 159.787691 
L 317.886656 159.787691 
z
" clip-path="url(#pb44b176d11)" style="stroke: #000000; stroke-linejoin: miter"/>
   </g>
   <g id="patch_148">
    <path d="M 345.898992 160.22687 
L 346.492732 160.22687 
L 346.492732 159.63313 
L 345.898992 159.63313 
z
" clip-path="url(#pb44b176d11)" style="stroke: #000000; stroke-linejoin: miter"/>
   </g>
   <g id="patch_149">
    <path d="M 374.249743 160.043015 
L 374.475774 160.043015 
L 374.475774 159.816985 
L 374.249743 159.816985 
z
" clip-path="url(#pb44b176d11)" style="stroke: #000000; stroke-linejoin: miter"/>
   </g>
   <g id="patch_150">
    <path d="M 402.130813 160.328842 
L 402.928498 160.328842 
L 402.928498 159.531158 
L 402.130813 159.531158 
z
" clip-path="url(#pb44b176d11)" style="stroke: #000000; stroke-linejoin: miter"/>
   </g>
   <g id="patch_151">
    <path d="M 430.539102 160.087449 
L 430.854001 160.087449 
L 430.854001 159.772551 
L 430.539102 159.772551 
z
" clip-path="url(#pb44b176d11)" style="stroke: #000000; stroke-linejoin: miter"/>
   </g>
   <g id="patch_152">
    <path d="M 458.29163 160.501818 
L 459.435266 160.501818 
L 459.435266 159.358182 
L 458.29163 159.358182 
z
" clip-path="url(#pb44b176d11)" style="stroke: #000000; stroke-linejoin: miter"/>
   </g>
   <g id="patch_153">
    <path d="M 486.995571 159.964774 
L 487.065119 159.964774 
L 487.065119 159.895226 
L 486.995571 159.895226 
z
" clip-path="url(#pb44b176d11)" style="stroke: #000000; stroke-linejoin: miter"/>
   </g>
   <g id="patch_154">
    <path d="M 514.830797 160.296445 
L 515.563686 160.296445 
L 515.563686 159.563555 
L 514.830797 159.563555 
z
" clip-path="url(#pb44b176d11)" style="stroke: #000000; stroke-linejoin: miter"/>
   </g>
   <g id="patch_155">
    <path d="M 543.173089 160.121049 
L 543.555187 160.121049 
L 543.555187 159.738951 
L 543.173089 159.738951 
z
" clip-path="url(#pb44b176d11)" style="stroke: #000000; stroke-linejoin: miter"/>
   </g>
   <g id="patch_156">
    <path d="M 571.178195 160.282839 
L 571.883874 160.282839 
L 571.883874 159.577161 
L 571.178195 159.577161 
z
" clip-path="url(#pb44b176d11)" style="stroke: #000000; stroke-linejoin: miter"/>
   </g>
   <g id="patch_157">
    <path d="M 599.577397 160.050534 
L 599.818465 160.050534 
L 599.818465 159.809466 
L 599.577397 159.809466 
z
" clip-path="url(#pb44b176d11)" style="stroke: #000000; stroke-linejoin: miter"/>
   </g>
   <g id="patch_158">
    <path d="M 627.618815 160.176012 
L 628.11084 160.176012 
L 628.11084 159.683988 
L 627.618815 159.683988 
z
" clip-path="url(#pb44b176d11)" style="stroke: #000000; stroke-linejoin: miter"/>
   </g>
   <g id="patch_159">
    <path d="M 655.947077 160.014647 
L 656.116371 160.014647 
L 656.116371 159.845353 
L 655.947077 159.845353 
z
" clip-path="url(#pb44b176d11)" style="stroke: #000000; stroke-linejoin: miter"/>
   </g>
   <g id="patch_160">
    <path d="M 683.293292 160.835329 
L 685.10395 160.835329 
L 685.10395 159.024671 
L 683.293292 159.024671 
z
" clip-path="url(#pb44b176d11)" style="stroke: #000000; stroke-linejoin: miter"/>
   </g>
   <g id="patch_161">
    <path d="M 712.112764 160.182754 
L 712.618271 160.182754 
L 712.618271 159.677246 
L 712.112764 159.677246 
z
" clip-path="url(#pb44b176d11)" style="stroke: #000000; stroke-linejoin: miter"/>
   </g>
   <g id="patch_162">
    <path d="M 740.15704 160.305374 
L 740.907788 160.305374 
L 740.907788 159.554626 
L 740.15704 159.554626 
z
" clip-path="url(#pb44b176d11)" style="stroke: #000000; stroke-linejoin: miter"/>
   </g>
   <g id="patch_163">
    <path d="M 768.093531 160.535779 
L 769.30509 160.535779 
L 769.30509 159.324221 
L 768.093531 159.324221 
z
" clip-path="url(#pb44b176d11)" style="stroke: #000000; stroke-linejoin: miter"/>
   </g>
   <g id="patch_164">
    <path d="M 796.734761 160.061445 
L 796.997652 160.061445 
L 796.997652 159.798555 
L 796.734761 159.798555 
z
" clip-path="url(#pb44b176d11)" style="stroke: #000000; stroke-linejoin: miter"/>
   </g>
   <g id="patch_165">
    <path d="M 63.406775 132.883225 
L 65.647018 132.883225 
L 65.647018 130.642982 
L 63.406775 130.642982 
z
" clip-path="url(#pb44b176d11)" style="stroke: #000000; stroke-linejoin: miter"/>
   </g>
   <g id="patch_166">
    <path d="M 91.711875 132.745021 
L 93.675711 132.745021 
L 93.675711 130.781186 
L 91.711875 130.781186 
z
" clip-path="url(#pb44b176d11)" style="stroke: #000000; stroke-linejoin: miter"/>
   </g>
   <g id="patch_167">
    <path d="M 120.149546 132.474247 
L 121.571834 132.474247 
L 121.571834 131.05196 
L 120.149546 131.05196 
z
" clip-path="url(#pb44b176d11)" style="stroke: #000000; stroke-linejoin: miter"/>
   </g>
   <g id="patch_168">
    <path d="M 148.589734 132.200956 
L 149.465439 132.200956 
L 149.465439 131.325251 
L 148.589734 131.325251 
z
" clip-path="url(#pb44b176d11)" style="stroke: #000000; stroke-linejoin: miter"/>
   </g>
   <g id="patch_169">
    <path d="M 176.619649 132.337937 
L 177.769316 132.337937 
L 177.769316 131.18827 
L 176.619649 131.18827 
z
" clip-path="url(#pb44b176d11)" style="stroke: #000000; stroke-linejoin: miter"/>
   </g>
   <g id="patch_170">
    <path d="M 204.824485 132.299998 
L 205.898274 132.299998 
L 205.898274 131.226209 
L 204.824485 131.226209 
z
" clip-path="url(#pb44b176d11)" style="stroke: #000000; stroke-linejoin: miter"/>
   </g>
   <g id="patch_171">
    <path d="M 232.970845 132.320534 
L 234.085706 132.320534 
L 234.085706 131.205673 
L 232.970845 131.205673 
z
" clip-path="url(#pb44b176d11)" style="stroke: #000000; stroke-linejoin: miter"/>
   </g>
   <g id="patch_172">
    <path d="M 261.296281 132.161995 
L 262.094064 132.161995 
L 262.094064 131.364212 
L 261.296281 131.364212 
z
" clip-path="url(#pb44b176d11)" style="stroke: #000000; stroke-linejoin: miter"/>
   </g>
   <g id="patch_173">
    <path d="M 289.396681 132.228492 
L 290.327457 132.228492 
L 290.327457 131.297715 
L 289.396681 131.297715 
z
" clip-path="url(#pb44b176d11)" style="stroke: #000000; stroke-linejoin: miter"/>
   </g>
   <g id="patch_174">
    <path d="M 317.667499 132.12457 
L 318.390432 132.12457 
L 318.390432 131.401637 
L 317.667499 131.401637 
z
" clip-path="url(#pb44b176d11)" style="stroke: #000000; stroke-linejoin: miter"/>
   </g>
   <g id="patch_175">
    <path d="M 345.526869 132.432096 
L 346.864855 132.432096 
L 346.864855 131.094111 
L 345.526869 131.094111 
z
" clip-path="url(#pb44b176d11)" style="stroke: #000000; stroke-linejoin: miter"/>
   </g>
   <g id="patch_176">
    <path d="M 374.015223 132.110639 
L 374.710295 132.110639 
L 374.710295 131.415567 
L 374.015223 131.415567 
z
" clip-path="url(#pb44b176d11)" style="stroke: #000000; stroke-linejoin: miter"/>
   </g>
   <g id="patch_177">
    <path d="M 401.959348 132.333411 
L 403.099963 132.333411 
L 403.099963 131.192796 
L 401.959348 131.192796 
z
" clip-path="url(#pb44b176d11)" style="stroke: #000000; stroke-linejoin: miter"/>
   </g>
   <g id="patch_178">
    <path d="M 430.179946 132.279709 
L 431.213157 132.279709 
L 431.213157 131.246498 
L 430.179946 131.246498 
z
" clip-path="url(#pb44b176d11)" style="stroke: #000000; stroke-linejoin: miter"/>
   </g>
   <g id="patch_179">
    <path d="M 458.582079 132.044473 
L 459.144818 132.044473 
L 459.144818 131.481734 
L 458.582079 131.481734 
z
" clip-path="url(#pb44b176d11)" style="stroke: #000000; stroke-linejoin: miter"/>
   </g>
   <g id="patch_180">
    <path d="M 486.489558 132.303891 
L 487.571132 132.303891 
L 487.571132 131.222316 
L 486.489558 131.222316 
z
" clip-path="url(#pb44b176d11)" style="stroke: #000000; stroke-linejoin: miter"/>
   </g>
   <g id="patch_181">
    <path d="M 514.480414 132.479931 
L 515.914069 132.479931 
L 515.914069 131.046276 
L 514.480414 131.046276 
z
" clip-path="url(#pb44b176d11)" style="stroke: #000000; stroke-linejoin: miter"/>
   </g>
   <g id="patch_182">
    <path d="M 542.991301 132.13594 
L 543.736975 132.13594 
L 543.736975 131.390267 
L 542.991301 131.390267 
z
" clip-path="url(#pb44b176d11)" style="stroke: #000000; stroke-linejoin: miter"/>
   </g>
   <g id="patch_183">
    <path d="M 571.301728 131.99241 
L 571.760341 131.99241 
L 571.760341 131.533797 
L 571.301728 131.533797 
z
" clip-path="url(#pb44b176d11)" style="stroke: #000000; stroke-linejoin: miter"/>
   </g>
   <g id="patch_184">
    <path d="M 599.083344 132.377691 
L 600.312518 132.377691 
L 600.312518 131.148516 
L 599.083344 131.148516 
z
" clip-path="url(#pb44b176d11)" style="stroke: #000000; stroke-linejoin: miter"/>
   </g>
   <g id="patch_185">
    <path d="M 627.404859 132.223072 
L 628.324796 132.223072 
L 628.324796 131.303135 
L 627.404859 131.303135 
z
" clip-path="url(#pb44b176d11)" style="stroke: #000000; stroke-linejoin: miter"/>
   </g>
   <g id="patch_186">
    <path d="M 655.576305 132.218523 
L 656.487144 132.218523 
L 656.487144 131.307684 
L 655.576305 131.307684 
z
" clip-path="url(#pb44b176d11)" style="stroke: #000000; stroke-linejoin: miter"/>
   </g>
   <g id="patch_187">
    <path d="M 683.834334 132.12739 
L 684.562908 132.12739 
L 684.562908 131.398817 
L 683.834334 131.398817 
z
" clip-path="url(#pb44b176d11)" style="stroke: #000000; stroke-linejoin: miter"/>
   </g>
   <g id="patch_188">
    <path d="M 712.007476 132.121145 
L 712.723559 132.121145 
L 712.723559 131.405062 
L 712.007476 131.405062 
z
" clip-path="url(#pb44b176d11)" style="stroke: #000000; stroke-linejoin: miter"/>
   </g>
   <g id="patch_189">
    <path d="M 740.029104 132.266413 
L 741.035724 132.266413 
L 741.035724 131.259794 
L 740.029104 131.259794 
z
" clip-path="url(#pb44b176d11)" style="stroke: #000000; stroke-linejoin: miter"/>
   </g>
   <g id="patch_190">
    <path d="M 768.032983 132.429431 
L 769.365638 132.429431 
L 769.365638 131.096776 
L 768.032983 131.096776 
z
" clip-path="url(#pb44b176d11)" style="stroke: #000000; stroke-linejoin: miter"/>
   </g>
   <g id="patch_191">
    <path d="M 796.544343 132.084967 
L 797.18807 132.084967 
L 797.18807 131.44124 
L 796.544343 131.44124 
z
" clip-path="url(#pb44b176d11)" style="stroke: #000000; stroke-linejoin: miter"/>
   </g>
   <g id="patch_192">
    <path d="M 63.422237 104.700866 
L 65.631556 104.700866 
L 65.631556 102.491548 
L 63.422237 102.491548 
z
" clip-path="url(#pb44b176d11)" style="stroke: #000000; stroke-linejoin: miter"/>
   </g>
   <g id="patch_193">
    <path d="M 92.257263 104.032737 
L 93.130324 104.032737 
L 93.130324 103.159676 
L 92.257263 103.159676 
z
" clip-path="url(#pb44b176d11)" style="stroke: #000000; stroke-linejoin: miter"/>
   </g>
   <g id="patch_194">
    <path d="M 120.629328 103.827569 
L 121.092051 103.827569 
L 121.092051 103.364845 
L 120.629328 103.364845 
z
" clip-path="url(#pb44b176d11)" style="stroke: #000000; stroke-linejoin: miter"/>
   </g>
   <g id="patch_195">
    <path d="M 148.488252 104.135541 
L 149.566921 104.135541 
L 149.566921 103.056872 
L 148.488252 103.056872 
z
" clip-path="url(#pb44b176d11)" style="stroke: #000000; stroke-linejoin: miter"/>
   </g>
   <g id="patch_196">
    <path d="M 176.970178 103.820512 
L 177.418787 103.820512 
L 177.418787 103.371902 
L 176.970178 103.371902 
z
" clip-path="url(#pb44b176d11)" style="stroke: #000000; stroke-linejoin: miter"/>
   </g>
   <g id="patch_197">
    <path d="M 204.99774 103.959846 
L 205.725018 103.959846 
L 205.725018 103.232568 
L 204.99774 103.232568 
z
" clip-path="url(#pb44b176d11)" style="stroke: #000000; stroke-linejoin: miter"/>
   </g>
   <g id="patch_198">
    <path d="M 233.417157 103.707326 
L 233.639395 103.707326 
L 233.639395 103.485088 
L 233.417157 103.485088 
z
" clip-path="url(#pb44b176d11)" style="stroke: #000000; stroke-linejoin: miter"/>
   </g>
   <g id="patch_199">
    <path d="M 261.293426 103.997953 
L 262.096918 103.997953 
L 262.096918 103.194461 
L 261.293426 103.194461 
z
" clip-path="url(#pb44b176d11)" style="stroke: #000000; stroke-linejoin: miter"/>
   </g>
   <g id="patch_200">
    <path d="M 289.3728 104.085476 
L 290.351338 104.085476 
L 290.351338 103.106938 
L 289.3728 103.106938 
z
" clip-path="url(#pb44b176d11)" style="stroke: #000000; stroke-linejoin: miter"/>
   </g>
   <g id="patch_201">
    <path d="M 317.828916 103.796257 
L 318.229015 103.796257 
L 318.229015 103.396157 
L 317.828916 103.396157 
z
" clip-path="url(#pb44b176d11)" style="stroke: #000000; stroke-linejoin: miter"/>
   </g>
   <g id="patch_202">
    <path d="M 345.94454 103.847529 
L 346.447184 103.847529 
L 346.447184 103.344885 
L 345.94454 103.344885 
z
" clip-path="url(#pb44b176d11)" style="stroke: #000000; stroke-linejoin: miter"/>
   </g>
   <g id="patch_203">
    <path d="M 373.849901 104.109064 
L 374.875616 104.109064 
L 374.875616 103.08335 
L 373.849901 103.08335 
z
" clip-path="url(#pb44b176d11)" style="stroke: #000000; stroke-linejoin: miter"/>
   </g>
   <g id="patch_204">
    <path d="M 402.197312 103.92855 
L 402.861998 103.92855 
L 402.861998 103.263864 
L 402.197312 103.263864 
z
" clip-path="url(#pb44b176d11)" style="stroke: #000000; stroke-linejoin: miter"/>
   </g>
   <g id="patch_205">
    <path d="M 430.560651 103.732108 
L 430.832453 103.732108 
L 430.832453 103.460306 
L 430.560651 103.460306 
z
" clip-path="url(#pb44b176d11)" style="stroke: #000000; stroke-linejoin: miter"/>
   </g>
   <g id="patch_206">
    <path d="M 458.748635 103.71102 
L 458.978261 103.71102 
L 458.978261 103.481394 
L 458.748635 103.481394 
z
" clip-path="url(#pb44b176d11)" style="stroke: #000000; stroke-linejoin: miter"/>
   </g>
   <g id="patch_207">
    <path d="M 486.651583 103.974969 
L 487.409107 103.974969 
L 487.409107 103.217445 
L 486.651583 103.217445 
z
" clip-path="url(#pb44b176d11)" style="stroke: #000000; stroke-linejoin: miter"/>
   </g>
   <g id="patch_208">
    <path d="M 514.920685 103.872764 
L 515.473798 103.872764 
L 515.473798 103.31965 
L 514.920685 103.31965 
z
" clip-path="url(#pb44b176d11)" style="stroke: #000000; stroke-linejoin: miter"/>
   </g>
   <g id="patch_209">
    <path d="M 543.113177 103.847168 
L 543.615099 103.847168 
L 543.615099 103.345246 
L 543.113177 103.345246 
z
" clip-path="url(#pb44b176d11)" style="stroke: #000000; stroke-linejoin: miter"/>
   </g>
   <g id="patch_210">
    <path d="M 571.079181 104.04806 
L 571.982888 104.04806 
L 571.982888 103.144354 
L 571.079181 103.144354 
z
" clip-path="url(#pb44b176d11)" style="stroke: #000000; stroke-linejoin: miter"/>
   </g>
   <g id="patch_211">
    <path d="M 599.292531 104.001607 
L 600.103331 104.001607 
L 600.103331 103.190807 
L 599.292531 103.190807 
z
" clip-path="url(#pb44b176d11)" style="stroke: #000000; stroke-linejoin: miter"/>
   </g>
   <g id="patch_212">
    <path d="M 627.864828 103.596207 
L 627.864828 103.596207 
L 627.864828 103.596207 
L 627.864828 103.596207 
z
" clip-path="url(#pb44b176d11)" style="stroke: #000000; stroke-linejoin: miter"/>
   </g>
   <g id="patch_213">
    <path d="M 655.757826 103.870105 
L 656.305622 103.870105 
L 656.305622 103.322309 
L 655.757826 103.322309 
z
" clip-path="url(#pb44b176d11)" style="stroke: #000000; stroke-linejoin: miter"/>
   </g>
   <g id="patch_214">
    <path d="M 683.93787 103.856957 
L 684.459371 103.856957 
L 684.459371 103.335457 
L 683.93787 103.335457 
z
" clip-path="url(#pb44b176d11)" style="stroke: #000000; stroke-linejoin: miter"/>
   </g>
   <g id="patch_215">
    <path d="M 712.04592 103.915804 
L 712.685115 103.915804 
L 712.685115 103.27661 
L 712.04592 103.27661 
z
" clip-path="url(#pb44b176d11)" style="stroke: #000000; stroke-linejoin: miter"/>
   </g>
   <g id="patch_216">
    <path d="M 740.229592 103.899029 
L 740.835236 103.899029 
L 740.835236 103.293385 
L 740.229592 103.293385 
z
" clip-path="url(#pb44b176d11)" style="stroke: #000000; stroke-linejoin: miter"/>
   </g>
   <g id="patch_217">
    <path d="M 768.484782 103.810736 
L 768.913839 103.810736 
L 768.913839 103.381678 
L 768.484782 103.381678 
z
" clip-path="url(#pb44b176d11)" style="stroke: #000000; stroke-linejoin: miter"/>
   </g>
   <g id="patch_218">
    <path d="M 796.706889 103.755525 
L 797.025525 103.755525 
L 797.025525 103.436889 
L 796.706889 103.436889 
z
" clip-path="url(#pb44b176d11)" style="stroke: #000000; stroke-linejoin: miter"/>
   </g>
   <g id="patch_219">
    <path d="M 62.952773 77.003434 
L 66.10102 77.003434 
L 66.10102 73.855186 
L 62.952773 73.855186 
z
" clip-path="url(#pb44b176d11)" style="stroke: #000000; stroke-linejoin: miter"/>
   </g>
   <g id="patch_220">
    <path d="M 91.858203 76.264901 
L 93.529384 76.264901 
L 93.529384 74.59372 
L 91.858203 74.59372 
z
" clip-path="url(#pb44b176d11)" style="stroke: #000000; stroke-linejoin: miter"/>
   </g>
   <g id="patch_221">
    <path d="M 120.284665 76.005335 
L 121.436715 76.005335 
L 121.436715 74.853285 
L 120.284665 74.853285 
z
" clip-path="url(#pb44b176d11)" style="stroke: #000000; stroke-linejoin: miter"/>
   </g>
   <g id="patch_222">
    <path d="M 148.015623 76.441273 
L 150.039549 76.441273 
L 150.039549 74.417347 
L 148.015623 74.417347 
z
" clip-path="url(#pb44b176d11)" style="stroke: #000000; stroke-linejoin: miter"/>
   </g>
   <g id="patch_223">
    <path d="M 176.098665 76.525128 
L 178.290301 76.525128 
L 178.290301 74.333492 
L 176.098665 74.333492 
z
" clip-path="url(#pb44b176d11)" style="stroke: #000000; stroke-linejoin: miter"/>
   </g>
   <g id="patch_224">
    <path d="M 204.632001 76.158689 
L 206.090758 76.158689 
L 206.090758 74.699932 
L 204.632001 74.699932 
z
" clip-path="url(#pb44b176d11)" style="stroke: #000000; stroke-linejoin: miter"/>
   </g>
   <g id="patch_225">
    <path d="M 232.990913 75.966673 
L 234.065639 75.966673 
L 234.065639 74.891948 
L 232.990913 74.891948 
z
" clip-path="url(#pb44b176d11)" style="stroke: #000000; stroke-linejoin: miter"/>
   </g>
   <g id="patch_226">
    <path d="M 261.022852 76.101631 
L 262.367493 76.101631 
L 262.367493 74.75699 
L 261.022852 74.75699 
z
" clip-path="url(#pb44b176d11)" style="stroke: #000000; stroke-linejoin: miter"/>
   </g>
   <g id="patch_227">
    <path d="M 289.178095 76.113284 
L 290.546043 76.113284 
L 290.546043 74.745337 
L 289.178095 74.745337 
z
" clip-path="url(#pb44b176d11)" style="stroke: #000000; stroke-linejoin: miter"/>
   </g>
   <g id="patch_228">
    <path d="M 317.653487 75.804788 
L 318.404444 75.804788 
L 318.404444 75.053832 
L 317.653487 75.053832 
z
" clip-path="url(#pb44b176d11)" style="stroke: #000000; stroke-linejoin: miter"/>
   </g>
   <g id="patch_229">
    <path d="M 345.724177 75.900996 
L 346.667548 75.900996 
L 346.667548 74.957625 
L 345.724177 74.957625 
z
" clip-path="url(#pb44b176d11)" style="stroke: #000000; stroke-linejoin: miter"/>
   </g>
   <g id="patch_230">
    <path d="M 374.042931 75.749138 
L 374.682586 75.749138 
L 374.682586 75.109483 
L 374.042931 75.109483 
z
" clip-path="url(#pb44b176d11)" style="stroke: #000000; stroke-linejoin: miter"/>
   </g>
   <g id="patch_231">
    <path d="M 402.275932 75.683033 
L 402.783378 75.683033 
L 402.783378 75.175587 
L 402.275932 75.175587 
z
" clip-path="url(#pb44b176d11)" style="stroke: #000000; stroke-linejoin: miter"/>
   </g>
   <g id="patch_232">
    <path d="M 430.273472 75.85239 
L 431.119631 75.85239 
L 431.119631 75.006231 
L 430.273472 75.006231 
z
" clip-path="url(#pb44b176d11)" style="stroke: #000000; stroke-linejoin: miter"/>
   </g>
   <g id="patch_233">
    <path d="M 457.65572 76.637039 
L 460.071177 76.637039 
L 460.071177 74.221582 
L 457.65572 74.221582 
z
" clip-path="url(#pb44b176d11)" style="stroke: #000000; stroke-linejoin: miter"/>
   </g>
   <g id="patch_234">
    <path d="M 487.030345 75.42931 
L 487.030345 75.42931 
L 487.030345 75.42931 
L 487.030345 75.42931 
z
" clip-path="url(#pb44b176d11)" style="stroke: #000000; stroke-linejoin: miter"/>
   </g>
   <g id="patch_235">
    <path d="M 514.791127 75.835425 
L 515.603356 75.835425 
L 515.603356 75.023196 
L 514.791127 75.023196 
z
" clip-path="url(#pb44b176d11)" style="stroke: #000000; stroke-linejoin: miter"/>
   </g>
   <g id="patch_236">
    <path d="M 543.060442 75.733007 
L 543.667834 75.733007 
L 543.667834 75.125614 
L 543.060442 75.125614 
z
" clip-path="url(#pb44b176d11)" style="stroke: #000000; stroke-linejoin: miter"/>
   </g>
   <g id="patch_237">
    <path d="M 570.741365 76.218979 
L 572.320704 76.218979 
L 572.320704 74.639641 
L 570.741365 74.639641 
z
" clip-path="url(#pb44b176d11)" style="stroke: #000000; stroke-linejoin: miter"/>
   </g>
   <g id="patch_238">
    <path d="M 599.127613 75.999629 
L 600.268249 75.999629 
L 600.268249 74.858992 
L 599.127613 74.858992 
z
" clip-path="url(#pb44b176d11)" style="stroke: #000000; stroke-linejoin: miter"/>
   </g>
   <g id="patch_239">
    <path d="M 627.521141 75.772997 
L 628.208514 75.772997 
L 628.208514 75.085624 
L 627.521141 75.085624 
z
" clip-path="url(#pb44b176d11)" style="stroke: #000000; stroke-linejoin: miter"/>
   </g>
   <g id="patch_240">
    <path d="M 655.195264 76.26577 
L 656.868184 76.26577 
L 656.868184 74.59285 
L 655.195264 74.59285 
z
" clip-path="url(#pb44b176d11)" style="stroke: #000000; stroke-linejoin: miter"/>
   </g>
   <g id="patch_241">
    <path d="M 683.584769 76.043162 
L 684.812473 76.043162 
L 684.812473 74.815458 
L 683.584769 74.815458 
z
" clip-path="url(#pb44b176d11)" style="stroke: #000000; stroke-linejoin: miter"/>
   </g>
   <g id="patch_242">
    <path d="M 711.940432 75.854396 
L 712.790603 75.854396 
L 712.790603 75.004225 
L 711.940432 75.004225 
z
" clip-path="url(#pb44b176d11)" style="stroke: #000000; stroke-linejoin: miter"/>
   </g>
   <g id="patch_243">
    <path d="M 740.020861 75.940863 
L 741.043967 75.940863 
L 741.043967 74.917757 
L 740.020861 74.917757 
z
" clip-path="url(#pb44b176d11)" style="stroke: #000000; stroke-linejoin: miter"/>
   </g>
   <g id="patch_244">
    <path d="M 768.187351 75.94127 
L 769.21127 75.94127 
L 769.21127 74.917351 
L 768.187351 74.917351 
z
" clip-path="url(#pb44b176d11)" style="stroke: #000000; stroke-linejoin: miter"/>
   </g>
   <g id="patch_245">
    <path d="M 796.288412 76.007106 
L 797.444002 76.007106 
L 797.444002 74.851515 
L 796.288412 74.851515 
z
" clip-path="url(#pb44b176d11)" style="stroke: #000000; stroke-linejoin: miter"/>
   </g>
   <g id="matplotlib.axis_1">
    <g id="xtick_1">
     <g id="line2d_1">
      <defs>
       <path id="m7880477aa6" d="M 0 0 
L 0 3.5 
" style="stroke: #000000; stroke-width: 0.8"/>
      </defs>
      <g>
       <use xlink:href="#m7880477aa6" x="64.526897" y="328.931379" style="stroke: #000000; stroke-width: 0.8"/>
      </g>
     </g>
     <g id="text_1">
      <!-- 1 -->
      <g transform="translate(61.51674 350.082942) scale(0.1 -0.1)">
       <defs>
        <path id="DejaVuSansMono-31" d="M 844 531 
L 1825 531 
L 1825 4097 
L 769 3859 
L 769 4434 
L 1819 4666 
L 2450 4666 
L 2450 531 
L 3419 531 
L 3419 0 
L 844 0 
L 844 531 
z
" transform="scale(0.015625)"/>
       </defs>
       <use xlink:href="#DejaVuSansMono-31"/>
      </g>
     </g>
    </g>
    <g id="xtick_2">
     <g id="line2d_2">
      <g>
       <use xlink:href="#m7880477aa6" x="796.866207" y="328.931379" style="stroke: #000000; stroke-width: 0.8"/>
      </g>
     </g>
     <g id="text_2">
      <!-- 500 -->
      <g transform="translate(787.835738 350.082942) scale(0.1 -0.1)">
       <defs>
        <path id="DejaVuSansMono-35" d="M 647 4666 
L 3009 4666 
L 3009 4134 
L 1222 4134 
L 1222 2988 
Q 1356 3038 1492 3061 
Q 1628 3084 1766 3084 
Q 2491 3084 2916 2656 
Q 3341 2228 3341 1497 
Q 3341 759 2895 334 
Q 2450 -91 1678 -91 
Q 1306 -91 998 -41 
Q 691 9 447 109 
L 447 750 
Q 734 594 1025 517 
Q 1316 441 1619 441 
Q 2141 441 2423 716 
Q 2706 991 2706 1497 
Q 2706 1997 2414 2275 
Q 2122 2553 1600 2553 
Q 1347 2553 1106 2495 
Q 866 2438 647 2322 
L 647 4666 
z
" transform="scale(0.015625)"/>
        <path id="DejaVuSansMono-30" d="M 1509 2344 
Q 1509 2516 1629 2641 
Q 1750 2766 1919 2766 
Q 2094 2766 2219 2641 
Q 2344 2516 2344 2344 
Q 2344 2169 2220 2047 
Q 2097 1925 1919 1925 
Q 1744 1925 1626 2044 
Q 1509 2163 1509 2344 
z
M 1925 4250 
Q 1484 4250 1267 3775 
Q 1050 3300 1050 2328 
Q 1050 1359 1267 884 
Q 1484 409 1925 409 
Q 2369 409 2586 884 
Q 2803 1359 2803 2328 
Q 2803 3300 2586 3775 
Q 2369 4250 1925 4250 
z
M 1925 4750 
Q 2672 4750 3055 4137 
Q 3438 3525 3438 2328 
Q 3438 1134 3055 521 
Q 2672 -91 1925 -91 
Q 1178 -91 797 521 
Q 416 1134 416 2328 
Q 416 3525 797 4137 
Q 1178 4750 1925 4750 
z
" transform="scale(0.015625)"/>
       </defs>
       <use xlink:href="#DejaVuSansMono-35"/>
       <use xlink:href="#DejaVuSansMono-30" x="60.205078"/>
       <use xlink:href="#DejaVuSansMono-30" x="120.410156"/>
      </g>
     </g>
    </g>
   </g>
   <g id="matplotlib.axis_2">
    <g id="ytick_1">
     <g id="line2d_3">
      <defs>
       <path id="mbaec2bccac" d="M 0 0 
L -3.5 0 
" style="stroke: #000000; stroke-width: 0.8"/>
      </defs>
      <g>
       <use xlink:href="#mbaec2bccac" x="36.36" y="300.764483" style="stroke: #000000; stroke-width: 0.8"/>
      </g>
     </g>
     <g id="text_3">
      <!-- 2 -->
      <g transform="translate(16.839687 304.590264) scale(0.1 -0.1)">
       <defs>
        <path id="DejaVuSansMono-32" d="M 1166 531 
L 3309 531 
L 3309 0 
L 475 0 
L 475 531 
Q 1059 1147 1496 1619 
Q 1934 2091 2100 2284 
Q 2413 2666 2522 2902 
Q 2631 3138 2631 3384 
Q 2631 3775 2401 3997 
Q 2172 4219 1772 4219 
Q 1488 4219 1175 4116 
Q 863 4013 513 3803 
L 513 4441 
Q 834 4594 1145 4672 
Q 1456 4750 1759 4750 
Q 2444 4750 2861 4386 
Q 3278 4022 3278 3431 
Q 3278 3131 3139 2831 
Q 3000 2531 2688 2169 
Q 2513 1966 2180 1606 
Q 1847 1247 1166 531 
z
" transform="scale(0.015625)"/>
       </defs>
       <use xlink:href="#DejaVuSansMono-32"/>
      </g>
     </g>
    </g>
    <g id="ytick_2">
     <g id="line2d_4">
      <g>
       <use xlink:href="#mbaec2bccac" x="36.36" y="272.597586" style="stroke: #000000; stroke-width: 0.8"/>
      </g>
     </g>
     <g id="text_4">
      <!-- 3 -->
      <g transform="translate(16.839687 276.423367) scale(0.1 -0.1)">
       <defs>
        <path id="DejaVuSansMono-33" d="M 2425 2497 
Q 2884 2375 3128 2064 
Q 3372 1753 3372 1288 
Q 3372 644 2939 276 
Q 2506 -91 1741 -91 
Q 1419 -91 1084 -31 
Q 750 28 428 141 
L 428 769 
Q 747 603 1056 522 
Q 1366 441 1672 441 
Q 2191 441 2469 675 
Q 2747 909 2747 1350 
Q 2747 1756 2469 1995 
Q 2191 2234 1716 2234 
L 1234 2234 
L 1234 2753 
L 1716 2753 
Q 2150 2753 2394 2943 
Q 2638 3134 2638 3475 
Q 2638 3834 2411 4026 
Q 2184 4219 1766 4219 
Q 1488 4219 1191 4156 
Q 894 4094 569 3969 
L 569 4550 
Q 947 4650 1242 4700 
Q 1538 4750 1766 4750 
Q 2447 4750 2855 4408 
Q 3263 4066 3263 3500 
Q 3263 3116 3048 2859 
Q 2834 2603 2425 2497 
z
" transform="scale(0.015625)"/>
       </defs>
       <use xlink:href="#DejaVuSansMono-33"/>
      </g>
     </g>
    </g>
    <g id="ytick_3">
     <g id="line2d_5">
      <g>
       <use xlink:href="#mbaec2bccac" x="36.36" y="244.43069" style="stroke: #000000; stroke-width: 0.8"/>
      </g>
     </g>
     <g id="text_5">
      <!-- 5 -->
      <g transform="translate(16.839687 248.256471) scale(0.1 -0.1)">
       <use xlink:href="#DejaVuSansMono-35"/>
      </g>
     </g>
    </g>
    <g id="ytick_4">
     <g id="line2d_6">
      <g>
       <use xlink:href="#mbaec2bccac" x="36.36" y="216.263793" style="stroke: #000000; stroke-width: 0.8"/>
      </g>
     </g>
     <g id="text_6">
      <!-- 7 -->
      <g transform="translate(16.839687 220.089574) scale(0.1 -0.1)">
       <defs>
        <path id="DejaVuSansMono-37" d="M 434 4666 
L 3372 4666 
L 3372 4397 
L 1703 0 
L 1044 0 
L 2669 4134 
L 434 4134 
L 434 4666 
z
" transform="scale(0.015625)"/>
       </defs>
       <use xlink:href="#DejaVuSansMono-37"/>
      </g>
     </g>
    </g>
    <g id="ytick_5">
     <g id="line2d_7">
      <g>
       <use xlink:href="#mbaec2bccac" x="36.36" y="188.096897" style="stroke: #000000; stroke-width: 0.8"/>
      </g>
     </g>
     <g id="text_7">
      <!-- 11 -->
      <g transform="translate(10.819375 191.922678) scale(0.1 -0.1)">
       <use xlink:href="#DejaVuSansMono-31"/>
       <use xlink:href="#DejaVuSansMono-31" x="60.205078"/>
      </g>
     </g>
    </g>
    <g id="ytick_6">
     <g id="line2d_8">
      <g>
       <use xlink:href="#mbaec2bccac" x="36.36" y="159.93" style="stroke: #000000; stroke-width: 0.8"/>
      </g>
     </g>
     <g id="text_8">
      <!-- 13 -->
      <g transform="translate(10.819375 163.755781) scale(0.1 -0.1)">
       <use xlink:href="#DejaVuSansMono-31"/>
       <use xlink:href="#DejaVuSansMono-33" x="60.205078"/>
      </g>
     </g>
    </g>
    <g id="ytick_7">
     <g id="line2d_9">
      <g>
       <use xlink:href="#mbaec2bccac" x="36.36" y="131.763103" style="stroke: #000000; stroke-width: 0.8"/>
      </g>
     </g>
     <g id="text_9">
      <!-- 17 -->
      <g transform="translate(10.819375 135.588885) scale(0.1 -0.1)">
       <use xlink:href="#DejaVuSansMono-31"/>
       <use xlink:href="#DejaVuSansMono-37" x="60.205078"/>
      </g>
     </g>
    </g>
    <g id="ytick_8">
     <g id="line2d_10">
      <g>
       <use xlink:href="#mbaec2bccac" x="36.36" y="103.596207" style="stroke: #000000; stroke-width: 0.8"/>
      </g>
     </g>
     <g id="text_10">
      <!-- 19 -->
      <g transform="translate(10.819375 107.421988) scale(0.1 -0.1)">
       <defs>
        <path id="DejaVuSansMono-39" d="M 1863 2069 
Q 2266 2069 2495 2359 
Q 2725 2650 2725 3163 
Q 2725 3675 2495 3965 
Q 2266 4256 1863 4256 
Q 1444 4256 1231 3979 
Q 1019 3703 1019 3163 
Q 1019 2619 1230 2344 
Q 1441 2069 1863 2069 
z
M 738 97 
L 738 678 
Q 934 563 1156 502 
Q 1378 441 1619 441 
Q 2219 441 2526 892 
Q 2834 1344 2834 2222 
Q 2688 1909 2422 1742 
Q 2156 1575 1813 1575 
Q 1138 1575 767 1990 
Q 397 2406 397 3169 
Q 397 3922 776 4336 
Q 1156 4750 1850 4750 
Q 2663 4750 3041 4165 
Q 3419 3581 3419 2328 
Q 3419 1150 2964 529 
Q 2509 -91 1644 -91 
Q 1416 -91 1184 -42 
Q 953 6 738 97 
z
" transform="scale(0.015625)"/>
       </defs>
       <use xlink:href="#DejaVuSansMono-31"/>
       <use xlink:href="#DejaVuSansMono-39" x="60.205078"/>
      </g>
     </g>
    </g>
    <g id="ytick_9">
     <g id="line2d_11">
      <g>
       <use xlink:href="#mbaec2bccac" x="36.36" y="75.42931" style="stroke: #000000; stroke-width: 0.8"/>
      </g>
     </g>
     <g id="text_11">
      <!--  -->
      <g transform="translate(16.839687 79.255092) scale(0.1 -0.1)">
       <defs>
        <path id="DejaVuSansMono-2119" d="M 506 4353 
L 506 313 
L 1106 313 
L 1106 4353 
L 506 4353 
z
M 1406 4353 
L 1406 2284 
L 2306 2284 
Q 2378 2284 2447 2291 
L 2447 4347 
Q 2378 4353 2306 4353 
L 1406 4353 
z
M 206 4666 
L 2166 4666 
Q 2913 4666 3297 4323 
Q 3681 3981 3681 3322 
Q 3681 2656 3297 2315 
Q 2913 1975 2163 1975 
L 1406 1975 
L 1406 0 
L 206 0 
L 206 4666 
z
M 2759 4281 
L 2759 2359 
Q 2941 2428 3075 2556 
Q 3353 2825 3353 3322 
Q 3353 3816 3078 4084 
Q 2947 4213 2759 4281 
z
" transform="scale(0.015625)"/>
       </defs>
       <use xlink:href="#DejaVuSansMono-2119"/>
      </g>
     </g>
    </g>
   </g>
  </g>
 </g>
 <defs>
  <clipPath id="pb44b176d11">
   <rect x="36.36" y="19.095517" width="816.84" height="309.835862"/>
  </clipPath>
 </defs>
</svg>
