<?xml version="1.0" encoding="utf-8" standalone="no"?>
<!DOCTYPE svg PUBLIC "-//W3C//DTD SVG 1.1//EN"
  "http://www.w3.org/Graphics/SVG/1.1/DTD/svg11.dtd">
<svg xmlns:xlink="http://www.w3.org/1999/xlink" width="864pt" height="432pt" viewBox="0 0 864 432" xmlns="http://www.w3.org/2000/svg" version="1.1">
 <metadata>
  <rdf:RDF xmlns:dc="http://purl.org/dc/elements/1.1/" xmlns:cc="http://creativecommons.org/ns#" xmlns:rdf="http://www.w3.org/1999/02/22-rdf-syntax-ns#">
   <cc:Work>
    <dc:type rdf:resource="http://purl.org/dc/dcmitype/StillImage"/>
    <dc:date>2024-09-16T23:43:32.790141</dc:date>
    <dc:format>image/svg+xml</dc:format>
    <dc:creator>
     <cc:Agent>
      <dc:title>Matplotlib v3.9.2, https://matplotlib.org/</dc:title>
     </cc:Agent>
    </dc:creator>
   </cc:Work>
  </rdf:RDF>
 </metadata>
 <defs>
  <style type="text/css">*{stroke-linejoin: round; stroke-linecap: butt}</style>
 </defs>
 <g id="figure_1">
  <g id="patch_1">
   <path d="M 0 432 
L 864 432 
L 864 0 
L 0 0 
z
" style="fill: #ffffff"/>
  </g>
  <g id="axes_1">
   <g id="patch_2">
    <path d="M 47.95 404.12 
L 853.2 404.12 
L 853.2 10.8 
L 47.95 10.8 
z
" style="fill: #ffffff"/>
   </g>
   <g id="matplotlib.axis_1">
    <g id="xtick_1">
     <g id="line2d_1">
      <defs>
       <path id="m549328cb97" d="M 0 0 
L 0 3.5 
" style="stroke: #000000; stroke-width: 0.8"/>
      </defs>
      <g>
       <use xlink:href="#m549328cb97" x="198.620478" y="404.12" style="stroke: #000000; stroke-width: 0.8"/>
      </g>
     </g>
     <g id="text_1">
      <!-- 100 -->
      <g transform="translate(189.590009 418.771563) scale(0.1 -0.1)">
       <defs>
        <path id="DejaVuSansMono-31" d="M 844 531 
L 1825 531 
L 1825 4097 
L 769 3859 
L 769 4434 
L 1819 4666 
L 2450 4666 
L 2450 531 
L 3419 531 
L 3419 0 
L 844 0 
L 844 531 
z
" transform="scale(0.015625)"/>
        <path id="DejaVuSansMono-30" d="M 1509 2344 
Q 1509 2516 1629 2641 
Q 1750 2766 1919 2766 
Q 2094 2766 2219 2641 
Q 2344 2516 2344 2344 
Q 2344 2169 2220 2047 
Q 2097 1925 1919 1925 
Q 1744 1925 1626 2044 
Q 1509 2163 1509 2344 
z
M 1925 4250 
Q 1484 4250 1267 3775 
Q 1050 3300 1050 2328 
Q 1050 1359 1267 884 
Q 1484 409 1925 409 
Q 2369 409 2586 884 
Q 2803 1359 2803 2328 
Q 2803 3300 2586 3775 
Q 2369 4250 1925 4250 
z
M 1925 4750 
Q 2672 4750 3055 4137 
Q 3438 3525 3438 2328 
Q 3438 1134 3055 521 
Q 2672 -91 1925 -91 
Q 1178 -91 797 521 
Q 416 1134 416 2328 
Q 416 3525 797 4137 
Q 1178 4750 1925 4750 
z
" transform="scale(0.015625)"/>
       </defs>
       <use xlink:href="#DejaVuSansMono-31"/>
       <use xlink:href="#DejaVuSansMono-30" x="60.205078"/>
       <use xlink:href="#DejaVuSansMono-30" x="120.410156"/>
      </g>
     </g>
    </g>
    <g id="xtick_2">
     <g id="line2d_2">
      <g>
       <use xlink:href="#m549328cb97" x="366.032121" y="404.12" style="stroke: #000000; stroke-width: 0.8"/>
      </g>
     </g>
     <g id="text_2">
      <!-- 200 -->
      <g transform="translate(357.001652 418.771563) scale(0.1 -0.1)">
       <defs>
        <path id="DejaVuSansMono-32" d="M 1166 531 
L 3309 531 
L 3309 0 
L 475 0 
L 475 531 
Q 1059 1147 1496 1619 
Q 1934 2091 2100 2284 
Q 2413 2666 2522 2902 
Q 2631 3138 2631 3384 
Q 2631 3775 2401 3997 
Q 2172 4219 1772 4219 
Q 1488 4219 1175 4116 
Q 863 4013 513 3803 
L 513 4441 
Q 834 4594 1145 4672 
Q 1456 4750 1759 4750 
Q 2444 4750 2861 4386 
Q 3278 4022 3278 3431 
Q 3278 3131 3139 2831 
Q 3000 2531 2688 2169 
Q 2513 1966 2180 1606 
Q 1847 1247 1166 531 
z
" transform="scale(0.015625)"/>
       </defs>
       <use xlink:href="#DejaVuSansMono-32"/>
       <use xlink:href="#DejaVuSansMono-30" x="60.205078"/>
       <use xlink:href="#DejaVuSansMono-30" x="120.410156"/>
      </g>
     </g>
    </g>
    <g id="xtick_3">
     <g id="line2d_3">
      <g>
       <use xlink:href="#m549328cb97" x="533.443763" y="404.12" style="stroke: #000000; stroke-width: 0.8"/>
      </g>
     </g>
     <g id="text_3">
      <!-- 300 -->
      <g transform="translate(524.413294 418.771563) scale(0.1 -0.1)">
       <defs>
        <path id="DejaVuSansMono-33" d="M 2425 2497 
Q 2884 2375 3128 2064 
Q 3372 1753 3372 1288 
Q 3372 644 2939 276 
Q 2506 -91 1741 -91 
Q 1419 -91 1084 -31 
Q 750 28 428 141 
L 428 769 
Q 747 603 1056 522 
Q 1366 441 1672 441 
Q 2191 441 2469 675 
Q 2747 909 2747 1350 
Q 2747 1756 2469 1995 
Q 2191 2234 1716 2234 
L 1234 2234 
L 1234 2753 
L 1716 2753 
Q 2150 2753 2394 2943 
Q 2638 3134 2638 3475 
Q 2638 3834 2411 4026 
Q 2184 4219 1766 4219 
Q 1488 4219 1191 4156 
Q 894 4094 569 3969 
L 569 4550 
Q 947 4650 1242 4700 
Q 1538 4750 1766 4750 
Q 2447 4750 2855 4408 
Q 3263 4066 3263 3500 
Q 3263 3116 3048 2859 
Q 2834 2603 2425 2497 
z
" transform="scale(0.015625)"/>
       </defs>
       <use xlink:href="#DejaVuSansMono-33"/>
       <use xlink:href="#DejaVuSansMono-30" x="60.205078"/>
       <use xlink:href="#DejaVuSansMono-30" x="120.410156"/>
      </g>
     </g>
    </g>
    <g id="xtick_4">
     <g id="line2d_4">
      <g>
       <use xlink:href="#m549328cb97" x="700.855405" y="404.12" style="stroke: #000000; stroke-width: 0.8"/>
      </g>
     </g>
     <g id="text_4">
      <!-- 400 -->
      <g transform="translate(691.824937 418.771563) scale(0.1 -0.1)">
       <defs>
        <path id="DejaVuSansMono-34" d="M 2297 4091 
L 825 1625 
L 2297 1625 
L 2297 4091 
z
M 2194 4666 
L 2925 4666 
L 2925 1625 
L 3547 1625 
L 3547 1113 
L 2925 1113 
L 2925 0 
L 2297 0 
L 2297 1113 
L 319 1113 
L 319 1709 
L 2194 4666 
z
" transform="scale(0.015625)"/>
       </defs>
       <use xlink:href="#DejaVuSansMono-34"/>
       <use xlink:href="#DejaVuSansMono-30" x="60.205078"/>
       <use xlink:href="#DejaVuSansMono-30" x="120.410156"/>
      </g>
     </g>
    </g>
   </g>
   <g id="matplotlib.axis_2">
    <g id="ytick_1">
     <g id="line2d_5">
      <defs>
       <path id="m7aa7aaa233" d="M 0 0 
L -3.5 0 
" style="stroke: #000000; stroke-width: 0.8"/>
      </defs>
      <g>
       <use xlink:href="#m7aa7aaa233" x="47.95" y="396.229301" style="stroke: #000000; stroke-width: 0.8"/>
      </g>
     </g>
     <g id="text_5">
      <!-- 0.125 -->
      <g transform="translate(10.848438 400.055082) scale(0.1 -0.1)">
       <defs>
        <path id="DejaVuSansMono-2e" d="M 1528 953 
L 2316 953 
L 2316 0 
L 1528 0 
L 1528 953 
z
" transform="scale(0.015625)"/>
        <path id="DejaVuSansMono-35" d="M 647 4666 
L 3009 4666 
L 3009 4134 
L 1222 4134 
L 1222 2988 
Q 1356 3038 1492 3061 
Q 1628 3084 1766 3084 
Q 2491 3084 2916 2656 
Q 3341 2228 3341 1497 
Q 3341 759 2895 334 
Q 2450 -91 1678 -91 
Q 1306 -91 998 -41 
Q 691 9 447 109 
L 447 750 
Q 734 594 1025 517 
Q 1316 441 1619 441 
Q 2141 441 2423 716 
Q 2706 991 2706 1497 
Q 2706 1997 2414 2275 
Q 2122 2553 1600 2553 
Q 1347 2553 1106 2495 
Q 866 2438 647 2322 
L 647 4666 
z
" transform="scale(0.015625)"/>
       </defs>
       <use xlink:href="#DejaVuSansMono-30"/>
       <use xlink:href="#DejaVuSansMono-2e" x="60.205078"/>
       <use xlink:href="#DejaVuSansMono-31" x="120.410156"/>
       <use xlink:href="#DejaVuSansMono-32" x="180.615234"/>
       <use xlink:href="#DejaVuSansMono-35" x="240.820312"/>
      </g>
     </g>
    </g>
    <g id="ytick_2">
     <g id="line2d_6">
      <g>
       <use xlink:href="#m7aa7aaa233" x="47.95" y="352.278976" style="stroke: #000000; stroke-width: 0.8"/>
      </g>
     </g>
     <g id="text_6">
      <!-- 0.130 -->
      <g transform="translate(10.848438 356.104758) scale(0.1 -0.1)">
       <use xlink:href="#DejaVuSansMono-30"/>
       <use xlink:href="#DejaVuSansMono-2e" x="60.205078"/>
       <use xlink:href="#DejaVuSansMono-31" x="120.410156"/>
       <use xlink:href="#DejaVuSansMono-33" x="180.615234"/>
       <use xlink:href="#DejaVuSansMono-30" x="240.820312"/>
      </g>
     </g>
    </g>
    <g id="ytick_3">
     <g id="line2d_7">
      <g>
       <use xlink:href="#m7aa7aaa233" x="47.95" y="308.328652" style="stroke: #000000; stroke-width: 0.8"/>
      </g>
     </g>
     <g id="text_7">
      <!-- 0.135 -->
      <g transform="translate(10.848438 312.154434) scale(0.1 -0.1)">
       <use xlink:href="#DejaVuSansMono-30"/>
       <use xlink:href="#DejaVuSansMono-2e" x="60.205078"/>
       <use xlink:href="#DejaVuSansMono-31" x="120.410156"/>
       <use xlink:href="#DejaVuSansMono-33" x="180.615234"/>
       <use xlink:href="#DejaVuSansMono-35" x="240.820312"/>
      </g>
     </g>
    </g>
    <g id="ytick_4">
     <g id="line2d_8">
      <g>
       <use xlink:href="#m7aa7aaa233" x="47.95" y="264.378328" style="stroke: #000000; stroke-width: 0.8"/>
      </g>
     </g>
     <g id="text_8">
      <!-- 0.140 -->
      <g transform="translate(10.848438 268.204109) scale(0.1 -0.1)">
       <use xlink:href="#DejaVuSansMono-30"/>
       <use xlink:href="#DejaVuSansMono-2e" x="60.205078"/>
       <use xlink:href="#DejaVuSansMono-31" x="120.410156"/>
       <use xlink:href="#DejaVuSansMono-34" x="180.615234"/>
       <use xlink:href="#DejaVuSansMono-30" x="240.820312"/>
      </g>
     </g>
    </g>
    <g id="ytick_5">
     <g id="line2d_9">
      <g>
       <use xlink:href="#m7aa7aaa233" x="47.95" y="220.428004" style="stroke: #000000; stroke-width: 0.8"/>
      </g>
     </g>
     <g id="text_9">
      <!-- 0.145 -->
      <g transform="translate(10.848438 224.253785) scale(0.1 -0.1)">
       <use xlink:href="#DejaVuSansMono-30"/>
       <use xlink:href="#DejaVuSansMono-2e" x="60.205078"/>
       <use xlink:href="#DejaVuSansMono-31" x="120.410156"/>
       <use xlink:href="#DejaVuSansMono-34" x="180.615234"/>
       <use xlink:href="#DejaVuSansMono-35" x="240.820312"/>
      </g>
     </g>
    </g>
    <g id="ytick_6">
     <g id="line2d_10">
      <g>
       <use xlink:href="#m7aa7aaa233" x="47.95" y="176.47768" style="stroke: #000000; stroke-width: 0.8"/>
      </g>
     </g>
     <g id="text_10">
      <!-- 0.150 -->
      <g transform="translate(10.848438 180.303461) scale(0.1 -0.1)">
       <use xlink:href="#DejaVuSansMono-30"/>
       <use xlink:href="#DejaVuSansMono-2e" x="60.205078"/>
       <use xlink:href="#DejaVuSansMono-31" x="120.410156"/>
       <use xlink:href="#DejaVuSansMono-35" x="180.615234"/>
       <use xlink:href="#DejaVuSansMono-30" x="240.820312"/>
      </g>
     </g>
    </g>
    <g id="ytick_7">
     <g id="line2d_11">
      <g>
       <use xlink:href="#m7aa7aaa233" x="47.95" y="132.527356" style="stroke: #000000; stroke-width: 0.8"/>
      </g>
     </g>
     <g id="text_11">
      <!-- 0.155 -->
      <g transform="translate(10.848438 136.353137) scale(0.1 -0.1)">
       <use xlink:href="#DejaVuSansMono-30"/>
       <use xlink:href="#DejaVuSansMono-2e" x="60.205078"/>
       <use xlink:href="#DejaVuSansMono-31" x="120.410156"/>
       <use xlink:href="#DejaVuSansMono-35" x="180.615234"/>
       <use xlink:href="#DejaVuSansMono-35" x="240.820312"/>
      </g>
     </g>
    </g>
    <g id="ytick_8">
     <g id="line2d_12">
      <g>
       <use xlink:href="#m7aa7aaa233" x="47.95" y="88.577032" style="stroke: #000000; stroke-width: 0.8"/>
      </g>
     </g>
     <g id="text_12">
      <!-- 0.160 -->
      <g transform="translate(10.848438 92.402813) scale(0.1 -0.1)">
       <defs>
        <path id="DejaVuSansMono-36" d="M 3097 4563 
L 3097 3981 
Q 2900 4097 2678 4158 
Q 2456 4219 2216 4219 
Q 1616 4219 1306 3767 
Q 997 3316 997 2438 
Q 1147 2750 1412 2917 
Q 1678 3084 2022 3084 
Q 2697 3084 3067 2670 
Q 3438 2256 3438 1497 
Q 3438 741 3056 325 
Q 2675 -91 1984 -91 
Q 1172 -91 794 492 
Q 416 1075 416 2328 
Q 416 3509 870 4129 
Q 1325 4750 2188 4750 
Q 2419 4750 2650 4701 
Q 2881 4653 3097 4563 
z
M 1972 2591 
Q 1569 2591 1337 2300 
Q 1106 2009 1106 1497 
Q 1106 984 1337 693 
Q 1569 403 1972 403 
Q 2391 403 2603 679 
Q 2816 956 2816 1497 
Q 2816 2041 2603 2316 
Q 2391 2591 1972 2591 
z
" transform="scale(0.015625)"/>
       </defs>
       <use xlink:href="#DejaVuSansMono-30"/>
       <use xlink:href="#DejaVuSansMono-2e" x="60.205078"/>
       <use xlink:href="#DejaVuSansMono-31" x="120.410156"/>
       <use xlink:href="#DejaVuSansMono-36" x="180.615234"/>
       <use xlink:href="#DejaVuSansMono-30" x="240.820312"/>
      </g>
     </g>
    </g>
    <g id="ytick_9">
     <g id="line2d_13">
      <g>
       <use xlink:href="#m7aa7aaa233" x="47.95" y="44.626707" style="stroke: #000000; stroke-width: 0.8"/>
      </g>
     </g>
     <g id="text_13">
      <!-- 0.165 -->
      <g transform="translate(10.848438 48.452489) scale(0.1 -0.1)">
       <use xlink:href="#DejaVuSansMono-30"/>
       <use xlink:href="#DejaVuSansMono-2e" x="60.205078"/>
       <use xlink:href="#DejaVuSansMono-31" x="120.410156"/>
       <use xlink:href="#DejaVuSansMono-36" x="180.615234"/>
       <use xlink:href="#DejaVuSansMono-35" x="240.820312"/>
      </g>
     </g>
    </g>
   </g>
   <g id="line2d_14">
    <path d="M 31.208836 105.77197 
L 32.882952 168.361972 
L 34.557069 133.652246 
L 36.231185 169.865608 
L 37.905301 172.483287 
L 39.579418 272.131983 
L 41.253534 246.331507 
L 42.927651 210.373954 
L 44.601767 206.23996 
L 46.275884 243.250938 
L 47.95 240.581534 
L 49.624116 235.52405 
L 51.298233 268.455182 
L 52.972349 288.203626 
L 54.646466 287.072766 
L 56.320582 284.500106 
L 57.994699 311.213815 
L 59.668815 343.668263 
L 61.342931 287.005533 
L 63.017048 262.242593 
L 66.365281 272.601633 
L 68.039397 257.181141 
L 69.713514 258.742749 
L 71.38763 259.186792 
L 73.061746 229.23667 
L 74.735863 194.121594 
L 76.409979 152.926404 
L 78.084096 189.929248 
L 79.758212 203.17131 
L 81.432328 182.519914 
L 83.106445 158.990787 
L 84.780561 169.410602 
L 86.454678 174.05671 
L 88.128794 160.49572 
L 89.802911 188.594081 
L 91.477027 206.678253 
L 93.151143 254.17584 
L 94.82526 279.786024 
L 96.499376 291.353374 
L 98.173493 280.221239 
L 99.847609 293.424203 
L 101.521726 304.412074 
L 103.195842 294.725589 
L 104.869958 305.804232 
L 106.544075 312.780054 
L 108.218191 330.082458 
L 109.892308 328.957839 
L 111.566424 324.620024 
L 113.240541 279.234792 
L 114.914657 295.801496 
L 116.588773 294.308823 
L 118.26289 170.447509 
L 119.937006 177.546246 
L 121.611123 153.623439 
L 123.285239 109.266745 
L 124.959356 97.009852 
L 126.633472 71.928377 
L 128.307588 58.620929 
L 129.981705 105.04371 
L 131.655821 114.84969 
L 133.329938 116.919601 
L 135.004054 240.648977 
L 136.67817 243.04396 
L 138.352287 227.426628 
L 140.026403 258.347223 
L 141.70052 185.320876 
L 143.374636 188.510344 
L 145.048753 198.998087 
L 148.396985 165.854253 
L 150.071102 118.407388 
L 151.745218 115.961231 
L 153.419335 94.392829 
L 155.093451 136.023941 
L 156.767568 149.248019 
L 158.441684 234.030146 
L 160.1158 250.070603 
L 161.789917 255.055667 
L 163.464033 253.147401 
L 165.13815 225.403477 
L 166.812266 269.270965 
L 168.486383 271.275333 
L 170.160499 292.449558 
L 173.508732 296.139758 
L 175.182848 296.226953 
L 176.856965 281.032261 
L 178.531081 280.997118 
L 180.205198 299.455192 
L 181.879314 291.390121 
L 183.55343 303.084616 
L 185.227547 274.510449 
L 186.901663 213.783944 
L 188.57578 212.724796 
L 190.249896 213.447195 
L 191.924012 190.258884 
L 193.598129 211.64767 
L 196.946362 173.353238 
L 198.620478 219.542018 
L 200.294595 208.671913 
L 201.968711 236.11239 
L 203.642827 288.96519 
L 205.316944 266.001526 
L 206.99106 223.430912 
L 208.665177 242.612819 
L 210.339293 230.988072 
L 212.01341 240.629814 
L 213.687526 198.932059 
L 215.361642 211.432761 
L 217.035759 225.858267 
L 218.709875 229.214168 
L 220.383992 233.620906 
L 222.058108 257.96816 
L 223.732225 296.223979 
L 225.406341 289.352524 
L 227.080457 284.583305 
L 228.754574 281.165051 
L 230.42869 341.741555 
L 232.102807 309.011428 
L 233.776923 234.402719 
L 235.45104 178.66964 
L 237.125156 179.918896 
L 238.799272 180.164802 
L 240.473389 179.697588 
L 242.147505 179.091966 
L 243.821622 197.003163 
L 245.495738 207.557562 
L 247.169854 205.112898 
L 248.843971 238.621753 
L 250.518087 311.239239 
L 252.192204 362.770442 
L 253.86632 365.679687 
L 255.540437 364.202705 
L 257.214553 338.415957 
L 258.888669 330.323066 
L 260.562786 316.390912 
L 262.236902 314.633236 
L 263.911019 258.294437 
L 265.585135 258.128653 
L 267.259252 252.898888 
L 268.933368 238.562902 
L 270.607484 238.576053 
L 272.281601 236.851109 
L 273.955717 244.136181 
L 275.629834 260.347137 
L 277.30395 253.707467 
L 278.978067 214.949868 
L 280.652183 268.272174 
L 282.326299 267.010776 
L 284.000416 256.986527 
L 285.674532 267.003088 
L 287.348649 247.691535 
L 289.022765 241.501435 
L 290.696881 252.703698 
L 292.370998 219.337653 
L 294.045114 229.316923 
L 295.719231 272.117601 
L 297.393347 272.404989 
L 299.067464 272.505439 
L 300.74158 270.507594 
L 302.415696 275.312964 
L 304.089813 294.820623 
L 305.763929 270.289155 
L 307.438046 283.32961 
L 309.112162 321.879536 
L 310.786279 325.414247 
L 312.460395 327.626929 
L 314.134511 331.98371 
L 315.808628 322.90366 
L 317.482744 338.53739 
L 319.156861 340.220393 
L 320.830977 329.635672 
L 322.505094 296.365021 
L 324.17921 271.486175 
L 325.853326 269.980588 
L 327.527443 260.098363 
L 330.875676 260.73432 
L 332.549792 266.825214 
L 334.223909 259.180387 
L 335.898025 223.877234 
L 337.572141 232.293139 
L 339.246258 298.919763 
L 340.920374 306.622837 
L 342.594491 289.154714 
L 344.268607 302.804628 
L 345.942723 292.809798 
L 347.61684 293.663697 
L 349.290956 282.389354 
L 350.965073 256.642319 
L 352.639189 294.932115 
L 354.313306 275.163853 
L 355.987422 258.929019 
L 357.661538 275.380347 
L 359.335655 273.086234 
L 361.009771 274.115583 
L 362.683888 284.878087 
L 364.358004 286.356752 
L 366.032121 292.784964 
L 367.706237 326.81332 
L 369.380353 304.281557 
L 371.05447 297.504304 
L 372.728586 309.142293 
L 374.402703 293.242033 
L 376.076819 312.254999 
L 377.750936 304.075437 
L 379.425052 300.736282 
L 381.099168 293.548223 
L 382.773285 293.832088 
L 384.447401 292.538979 
L 386.121518 303.455885 
L 387.795634 324.84179 
L 389.469751 329.976723 
L 391.143867 314.940022 
L 392.817983 296.648453 
L 394.4921 275.426473 
L 396.166216 258.86176 
L 397.840333 251.218531 
L 399.514449 255.88688 
L 401.188565 250.244809 
L 402.862682 261.309332 
L 404.536798 242.722883 
L 406.210915 235.63997 
L 407.885031 240.611136 
L 409.559148 254.060176 
L 411.233264 284.803421 
L 412.90738 302.386612 
L 414.581497 317.146823 
L 416.255613 301.944482 
L 417.92973 308.097408 
L 419.603846 307.101237 
L 421.277963 329.468499 
L 422.952079 333.850743 
L 424.626195 345.517129 
L 426.300312 334.869366 
L 427.974428 307.15507 
L 429.648545 257.503514 
L 431.322661 250.764232 
L 432.996778 263.954766 
L 434.670894 250.715756 
L 436.34501 251.499304 
L 438.019127 222.982822 
L 439.693243 225.805337 
L 441.36736 225.355741 
L 443.041476 231.976339 
L 444.715593 233.7553 
L 446.389709 279.441921 
L 448.063825 270.647503 
L 449.737942 267.504625 
L 451.412058 266.923745 
L 453.086175 265.196654 
L 454.760291 294.786247 
L 456.434407 251.016779 
L 458.108524 256.364729 
L 459.78264 260.118599 
L 461.456757 265.968446 
L 463.130873 130.452954 
L 464.80499 71.297371 
L 466.479106 37.382576 
L 468.153222 41.195768 
L 469.827339 28.678182 
L 471.501455 32.149275 
L 473.175572 76.42157 
L 474.849688 84.856521 
L 476.523805 89.978133 
L 478.197921 110.456227 
L 479.872037 252.014772 
L 481.546154 315.45004 
L 483.22027 359.431143 
L 484.894387 372.187929 
L 486.568503 386.241818 
L 488.24262 383.843587 
L 489.916736 378.816118 
L 491.590852 378.660865 
L 493.264969 381.291046 
L 496.613202 354.637005 
L 498.287318 366.694425 
L 499.961435 352.613802 
L 501.635551 353.511279 
L 503.309667 350.18386 
L 504.983784 352.39273 
L 506.6579 356.89929 
L 508.332017 356.268297 
L 510.006133 350.768244 
L 511.680249 350.87709 
L 513.354366 322.050284 
L 515.028482 305.12241 
L 516.702599 286.205454 
L 518.376715 285.530398 
L 520.050832 279.294795 
L 523.399064 237.737623 
L 525.073181 236.034658 
L 526.747297 241.064393 
L 528.421414 253.560315 
L 530.09553 281.613383 
L 531.769647 282.453568 
L 533.443763 309.304953 
L 535.117879 304.443563 
L 536.791996 289.655741 
L 538.466112 307.506489 
L 540.140229 316.608204 
L 541.814345 320.078381 
L 543.488462 313.868666 
L 545.162578 299.520748 
L 546.836694 313.863145 
L 548.510811 325.596096 
L 550.184927 317.343041 
L 551.859044 286.793754 
L 553.53316 293.823777 
L 555.207277 279.33039 
L 556.881393 267.443653 
L 558.555509 251.456008 
L 560.229626 254.829952 
L 561.903742 236.299629 
L 563.577859 201.530391 
L 565.251975 189.193573 
L 566.926091 201.539088 
L 568.600208 237.026999 
L 570.274324 234.218702 
L 571.948441 241.782975 
L 573.622557 230.976919 
L 575.296674 246.959541 
L 576.97079 249.885872 
L 578.644906 266.651879 
L 580.319023 288.576015 
L 581.993139 268.030034 
L 583.667256 266.051299 
L 585.341372 266.449898 
L 587.015489 287.896257 
L 588.689605 255.517857 
L 590.363721 256.636523 
L 592.037838 244.539383 
L 593.711954 241.556415 
L 595.386071 251.784394 
L 597.060187 239.318401 
L 598.734304 255.650044 
L 600.40842 257.027479 
L 602.082536 255.407884 
L 603.756653 244.302057 
L 605.430769 258.156395 
L 607.104886 292.4706 
L 608.779002 297.275681 
L 610.453119 299.308472 
L 612.127235 306.729051 
L 613.801351 327.201407 
L 615.475468 326.859478 
L 617.149584 320.315688 
L 618.823701 322.594024 
L 620.497817 332.138551 
L 622.171933 335.335813 
L 623.84605 335.050193 
L 625.520166 338.363191 
L 627.194283 337.145109 
L 628.868399 330.205366 
L 630.542516 316.927847 
L 632.216632 332.620297 
L 633.890748 313.534937 
L 635.564865 310.855886 
L 637.238981 305.240104 
L 638.913098 320.550165 
L 640.587214 291.775301 
L 642.261331 293.120108 
L 643.935447 287.252106 
L 645.609563 272.821801 
L 647.28368 290.146014 
L 648.957796 294.95968 
L 650.631913 303.514021 
L 652.306029 304.867945 
L 653.980146 309.090469 
L 655.654262 290.29141 
L 657.328378 289.862365 
L 659.002495 210.478065 
L 660.676611 212.370495 
L 662.350728 213.892377 
L 664.024844 209.731558 
L 665.69896 207.329679 
L 667.373077 181.769399 
L 669.047193 150.654715 
L 670.72131 143.940673 
L 672.395426 161.771722 
L 674.069543 191.305785 
L 675.743659 270.152495 
L 677.417775 273.758984 
L 679.091892 285.915388 
L 680.766008 286.750176 
L 682.440125 274.820975 
L 684.114241 317.447289 
L 685.788358 348.378035 
L 687.462474 351.55806 
L 689.13659 359.744446 
L 690.810707 353.752227 
L 692.484823 357.218808 
L 694.15894 359.469114 
L 695.833056 364.130443 
L 697.507173 357.998957 
L 699.181289 358.410438 
L 700.855405 322.334621 
L 702.529522 273.824849 
L 704.203638 279.158744 
L 705.877755 250.287287 
L 707.551871 255.266443 
L 709.225988 224.744617 
L 710.900104 226.265648 
L 712.57422 228.827403 
L 714.248337 234.632625 
L 715.922453 249.246129 
L 717.59657 283.993355 
L 719.270686 332.519578 
L 720.944802 320.210961 
L 722.618919 342.879364 
L 724.293035 341.913384 
L 725.967152 373.218916 
L 727.641268 356.114995 
L 729.315385 343.521996 
L 730.989501 333.795862 
L 732.663617 312.441386 
L 734.337734 280.490879 
L 736.01185 261.604991 
L 737.685967 250.580012 
L 739.360083 252.741572 
L 741.0342 243.296238 
L 742.708316 224.946965 
L 744.382432 240.898347 
L 746.056549 208.36062 
L 747.730665 161.727286 
L 749.404782 181.711551 
L 751.078898 215.890772 
L 752.753015 235.154897 
L 754.427131 249.179289 
L 756.101247 252.706927 
L 757.775364 262.792921 
L 759.44948 279.049171 
L 761.123597 277.206534 
L 762.797713 323.187825 
L 764.47183 383.406074 
L 766.145946 367.626835 
L 767.820062 369.824591 
L 769.494179 365.663942 
L 771.168295 376.380766 
L 774.516528 345.638884 
L 776.190644 347.777862 
L 777.864761 341.051141 
L 779.538877 336.744683 
L 781.212994 336.321336 
L 782.88711 352.009915 
L 784.561227 348.193337 
L 786.235343 352.314573 
L 787.909459 315.826116 
L 789.583576 300.347979 
L 791.257692 310.871716 
L 792.931809 293.716548 
L 794.605925 280.316915 
L 796.280042 273.376287 
L 797.954158 254.392497 
L 799.628274 255.275579 
L 801.302391 237.838682 
L 802.976507 239.897991 
L 804.650624 271.03595 
L 806.32474 283.480187 
L 807.998857 289.591468 
L 809.672973 292.090608 
L 811.347089 290.132817 
L 813.021206 283.401172 
L 814.695322 212.714559 
L 816.369439 162.271563 
L 818.043555 179.075292 
L 819.717672 159.29813 
L 821.391788 154.240371 
L 823.065904 161.063573 
L 824.740021 152.586623 
L 826.414137 153.992389 
L 828.088254 166.468389 
L 829.76237 184.632283 
L 831.436486 275.006446 
L 833.110603 313.979274 
L 834.784719 299.76188 
L 836.458836 294.530766 
L 838.132952 305.184182 
L 839.807069 308.484382 
L 841.481185 317.623035 
L 843.155301 330.42962 
L 844.829418 341.896926 
L 846.503534 335.339952 
L 848.177651 322.890817 
L 849.851767 323.001156 
L 851.525884 336.056909 
L 851.525884 336.056909 
" clip-path="url(#pb8eb57fa4a)" style="fill: none; stroke-dasharray: 7.4,3.2; stroke-dashoffset: 0; stroke: #000000; stroke-width: 2"/>
   </g>
   <g id="patch_3">
    <path d="M 47.95 404.12 
L 47.95 10.8 
" style="fill: none; stroke: #000000; stroke-width: 0.8; stroke-linejoin: miter; stroke-linecap: square"/>
   </g>
   <g id="patch_4">
    <path d="M 853.2 404.12 
L 853.2 10.8 
" style="fill: none; stroke: #000000; stroke-width: 0.8; stroke-linejoin: miter; stroke-linecap: square"/>
   </g>
   <g id="patch_5">
    <path d="M 47.95 404.12 
L 853.2 404.12 
" style="fill: none; stroke: #000000; stroke-width: 0.8; stroke-linejoin: miter; stroke-linecap: square"/>
   </g>
   <g id="patch_6">
    <path d="M 47.95 10.8 
L 853.2 10.8 
" style="fill: none; stroke: #000000; stroke-width: 0.8; stroke-linejoin: miter; stroke-linecap: square"/>
   </g>
  </g>
 </g>
 <defs>
  <clipPath id="pb8eb57fa4a">
   <rect x="47.95" y="10.8" width="805.25" height="393.32"/>
  </clipPath>
 </defs>
</svg>
