<?xml version="1.0" encoding="utf-8" standalone="no"?>
<!DOCTYPE svg PUBLIC "-//W3C//DTD SVG 1.1//EN"
  "http://www.w3.org/Graphics/SVG/1.1/DTD/svg11.dtd">
<svg xmlns:xlink="http://www.w3.org/1999/xlink" width="864pt" height="432pt" viewBox="0 0 864 432" xmlns="http://www.w3.org/2000/svg" version="1.1">
 <metadata>
  <rdf:RDF xmlns:dc="http://purl.org/dc/elements/1.1/" xmlns:cc="http://creativecommons.org/ns#" xmlns:rdf="http://www.w3.org/1999/02/22-rdf-syntax-ns#">
   <cc:Work>
    <dc:type rdf:resource="http://purl.org/dc/dcmitype/StillImage"/>
    <dc:date>2024-09-19T08:32:10.220058</dc:date>
    <dc:format>image/svg+xml</dc:format>
    <dc:creator>
     <cc:Agent>
      <dc:title>Matplotlib v3.9.2, https://matplotlib.org/</dc:title>
     </cc:Agent>
    </dc:creator>
   </cc:Work>
  </rdf:RDF>
 </metadata>
 <defs>
  <style type="text/css">*{stroke-linejoin: round; stroke-linecap: butt}</style>
 </defs>
 <g id="figure_1">
  <g id="patch_1">
   <path d="M 0 432 
L 864 432 
L 864 0 
L 0 0 
z
" style="fill: #ffffff"/>
  </g>
  <g id="axes_1">
   <g id="patch_2">
    <path d="M 35.89 404.12 
L 853.2 404.12 
L 853.2 10.8 
L 35.89 10.8 
z
" style="fill: #ffffff"/>
   </g>
   <g id="matplotlib.axis_1">
    <g id="xtick_1">
     <g id="line2d_1">
      <defs>
       <path id="m8827a54969" d="M 0 0 
L 0 3.5 
" style="stroke: #000000; stroke-width: 0.8"/>
      </defs>
      <g>
       <use xlink:href="#m8827a54969" x="194.186534" y="404.12" style="stroke: #000000; stroke-width: 0.8"/>
      </g>
     </g>
     <g id="text_1">
      <!-- 200 -->
      <g transform="translate(185.156065 418.771563) scale(0.1 -0.1)">
       <defs>
        <path id="DejaVuSansMono-32" d="M 1166 531 
L 3309 531 
L 3309 0 
L 475 0 
L 475 531 
Q 1059 1147 1496 1619 
Q 1934 2091 2100 2284 
Q 2413 2666 2522 2902 
Q 2631 3138 2631 3384 
Q 2631 3775 2401 3997 
Q 2172 4219 1772 4219 
Q 1488 4219 1175 4116 
Q 863 4013 513 3803 
L 513 4441 
Q 834 4594 1145 4672 
Q 1456 4750 1759 4750 
Q 2444 4750 2861 4386 
Q 3278 4022 3278 3431 
Q 3278 3131 3139 2831 
Q 3000 2531 2688 2169 
Q 2513 1966 2180 1606 
Q 1847 1247 1166 531 
z
" transform="scale(0.015625)"/>
        <path id="DejaVuSansMono-30" d="M 1509 2344 
Q 1509 2516 1629 2641 
Q 1750 2766 1919 2766 
Q 2094 2766 2219 2641 
Q 2344 2516 2344 2344 
Q 2344 2169 2220 2047 
Q 2097 1925 1919 1925 
Q 1744 1925 1626 2044 
Q 1509 2163 1509 2344 
z
M 1925 4250 
Q 1484 4250 1267 3775 
Q 1050 3300 1050 2328 
Q 1050 1359 1267 884 
Q 1484 409 1925 409 
Q 2369 409 2586 884 
Q 2803 1359 2803 2328 
Q 2803 3300 2586 3775 
Q 2369 4250 1925 4250 
z
M 1925 4750 
Q 2672 4750 3055 4137 
Q 3438 3525 3438 2328 
Q 3438 1134 3055 521 
Q 2672 -91 1925 -91 
Q 1178 -91 797 521 
Q 416 1134 416 2328 
Q 416 3525 797 4137 
Q 1178 4750 1925 4750 
z
" transform="scale(0.015625)"/>
       </defs>
       <use xlink:href="#DejaVuSansMono-32"/>
       <use xlink:href="#DejaVuSansMono-30" x="60.205078"/>
       <use xlink:href="#DejaVuSansMono-30" x="120.410156"/>
      </g>
     </g>
    </g>
    <g id="xtick_2">
     <g id="line2d_2">
      <g>
       <use xlink:href="#m8827a54969" x="360.814465" y="404.12" style="stroke: #000000; stroke-width: 0.8"/>
      </g>
     </g>
     <g id="text_2">
      <!-- 400 -->
      <g transform="translate(351.783996 418.771563) scale(0.1 -0.1)">
       <defs>
        <path id="DejaVuSansMono-34" d="M 2297 4091 
L 825 1625 
L 2297 1625 
L 2297 4091 
z
M 2194 4666 
L 2925 4666 
L 2925 1625 
L 3547 1625 
L 3547 1113 
L 2925 1113 
L 2925 0 
L 2297 0 
L 2297 1113 
L 319 1113 
L 319 1709 
L 2194 4666 
z
" transform="scale(0.015625)"/>
       </defs>
       <use xlink:href="#DejaVuSansMono-34"/>
       <use xlink:href="#DejaVuSansMono-30" x="60.205078"/>
       <use xlink:href="#DejaVuSansMono-30" x="120.410156"/>
      </g>
     </g>
    </g>
    <g id="xtick_3">
     <g id="line2d_3">
      <g>
       <use xlink:href="#m8827a54969" x="527.442396" y="404.12" style="stroke: #000000; stroke-width: 0.8"/>
      </g>
     </g>
     <g id="text_3">
      <!-- 600 -->
      <g transform="translate(518.411927 418.771563) scale(0.1 -0.1)">
       <defs>
        <path id="DejaVuSansMono-36" d="M 3097 4563 
L 3097 3981 
Q 2900 4097 2678 4158 
Q 2456 4219 2216 4219 
Q 1616 4219 1306 3767 
Q 997 3316 997 2438 
Q 1147 2750 1412 2917 
Q 1678 3084 2022 3084 
Q 2697 3084 3067 2670 
Q 3438 2256 3438 1497 
Q 3438 741 3056 325 
Q 2675 -91 1984 -91 
Q 1172 -91 794 492 
Q 416 1075 416 2328 
Q 416 3509 870 4129 
Q 1325 4750 2188 4750 
Q 2419 4750 2650 4701 
Q 2881 4653 3097 4563 
z
M 1972 2591 
Q 1569 2591 1337 2300 
Q 1106 2009 1106 1497 
Q 1106 984 1337 693 
Q 1569 403 1972 403 
Q 2391 403 2603 679 
Q 2816 956 2816 1497 
Q 2816 2041 2603 2316 
Q 2391 2591 1972 2591 
z
" transform="scale(0.015625)"/>
       </defs>
       <use xlink:href="#DejaVuSansMono-36"/>
       <use xlink:href="#DejaVuSansMono-30" x="60.205078"/>
       <use xlink:href="#DejaVuSansMono-30" x="120.410156"/>
      </g>
     </g>
    </g>
    <g id="xtick_4">
     <g id="line2d_4">
      <g>
       <use xlink:href="#m8827a54969" x="694.070326" y="404.12" style="stroke: #000000; stroke-width: 0.8"/>
      </g>
     </g>
     <g id="text_4">
      <!-- 800 -->
      <g transform="translate(685.039857 418.771563) scale(0.1 -0.1)">
       <defs>
        <path id="DejaVuSansMono-38" d="M 1925 2216 
Q 1503 2216 1273 1980 
Q 1044 1744 1044 1313 
Q 1044 881 1276 642 
Q 1509 403 1925 403 
Q 2350 403 2579 639 
Q 2809 875 2809 1313 
Q 2809 1741 2576 1978 
Q 2344 2216 1925 2216 
z
M 1375 2478 
Q 972 2581 745 2862 
Q 519 3144 519 3541 
Q 519 4097 897 4423 
Q 1275 4750 1925 4750 
Q 2578 4750 2956 4423 
Q 3334 4097 3334 3541 
Q 3334 3144 3107 2862 
Q 2881 2581 2478 2478 
Q 2947 2375 3195 2062 
Q 3444 1750 3444 1253 
Q 3444 622 3041 265 
Q 2638 -91 1925 -91 
Q 1213 -91 811 264 
Q 409 619 409 1247 
Q 409 1747 657 2061 
Q 906 2375 1375 2478 
z
M 1147 3481 
Q 1147 3106 1347 2909 
Q 1547 2713 1925 2713 
Q 2306 2713 2506 2909 
Q 2706 3106 2706 3481 
Q 2706 3863 2507 4063 
Q 2309 4263 1925 4263 
Q 1547 4263 1347 4061 
Q 1147 3859 1147 3481 
z
" transform="scale(0.015625)"/>
       </defs>
       <use xlink:href="#DejaVuSansMono-38"/>
       <use xlink:href="#DejaVuSansMono-30" x="60.205078"/>
       <use xlink:href="#DejaVuSansMono-30" x="120.410156"/>
      </g>
     </g>
    </g>
   </g>
   <g id="matplotlib.axis_2">
    <g id="ytick_1">
     <g id="line2d_5">
      <defs>
       <path id="m75ffc8cec1" d="M 0 0 
L -3.5 0 
" style="stroke: #000000; stroke-width: 0.8"/>
      </defs>
      <g>
       <use xlink:href="#m75ffc8cec1" x="35.89" y="393.076753" style="stroke: #000000; stroke-width: 0.8"/>
      </g>
     </g>
     <g id="text_5">
      <!-- 0.0 -->
      <g transform="translate(10.829063 396.902534) scale(0.1 -0.1)">
       <defs>
        <path id="DejaVuSansMono-2e" d="M 1528 953 
L 2316 953 
L 2316 0 
L 1528 0 
L 1528 953 
z
" transform="scale(0.015625)"/>
       </defs>
       <use xlink:href="#DejaVuSansMono-30"/>
       <use xlink:href="#DejaVuSansMono-2e" x="60.205078"/>
       <use xlink:href="#DejaVuSansMono-30" x="120.410156"/>
      </g>
     </g>
    </g>
    <g id="ytick_2">
     <g id="line2d_6">
      <g>
       <use xlink:href="#m75ffc8cec1" x="35.89" y="319.135189" style="stroke: #000000; stroke-width: 0.8"/>
      </g>
     </g>
     <g id="text_6">
      <!-- 0.2 -->
      <g transform="translate(10.829063 322.96097) scale(0.1 -0.1)">
       <use xlink:href="#DejaVuSansMono-30"/>
       <use xlink:href="#DejaVuSansMono-2e" x="60.205078"/>
       <use xlink:href="#DejaVuSansMono-32" x="120.410156"/>
      </g>
     </g>
    </g>
    <g id="ytick_3">
     <g id="line2d_7">
      <g>
       <use xlink:href="#m75ffc8cec1" x="35.89" y="245.193624" style="stroke: #000000; stroke-width: 0.8"/>
      </g>
     </g>
     <g id="text_7">
      <!-- 0.4 -->
      <g transform="translate(10.829063 249.019405) scale(0.1 -0.1)">
       <use xlink:href="#DejaVuSansMono-30"/>
       <use xlink:href="#DejaVuSansMono-2e" x="60.205078"/>
       <use xlink:href="#DejaVuSansMono-34" x="120.410156"/>
      </g>
     </g>
    </g>
    <g id="ytick_4">
     <g id="line2d_8">
      <g>
       <use xlink:href="#m75ffc8cec1" x="35.89" y="171.25206" style="stroke: #000000; stroke-width: 0.8"/>
      </g>
     </g>
     <g id="text_8">
      <!-- 0.6 -->
      <g transform="translate(10.829063 175.077841) scale(0.1 -0.1)">
       <use xlink:href="#DejaVuSansMono-30"/>
       <use xlink:href="#DejaVuSansMono-2e" x="60.205078"/>
       <use xlink:href="#DejaVuSansMono-36" x="120.410156"/>
      </g>
     </g>
    </g>
    <g id="ytick_5">
     <g id="line2d_9">
      <g>
       <use xlink:href="#m75ffc8cec1" x="35.89" y="97.310496" style="stroke: #000000; stroke-width: 0.8"/>
      </g>
     </g>
     <g id="text_9">
      <!-- 0.8 -->
      <g transform="translate(10.829063 101.136277) scale(0.1 -0.1)">
       <use xlink:href="#DejaVuSansMono-30"/>
       <use xlink:href="#DejaVuSansMono-2e" x="60.205078"/>
       <use xlink:href="#DejaVuSansMono-38" x="120.410156"/>
      </g>
     </g>
    </g>
    <g id="ytick_6">
     <g id="line2d_10">
      <g>
       <use xlink:href="#m75ffc8cec1" x="35.89" y="23.368931" style="stroke: #000000; stroke-width: 0.8"/>
      </g>
     </g>
     <g id="text_10">
      <!-- 1.0 -->
      <g transform="translate(10.829063 27.194712) scale(0.1 -0.1)">
       <defs>
        <path id="DejaVuSansMono-31" d="M 844 531 
L 1825 531 
L 1825 4097 
L 769 3859 
L 769 4434 
L 1819 4666 
L 2450 4666 
L 2450 531 
L 3419 531 
L 3419 0 
L 844 0 
L 844 531 
z
" transform="scale(0.015625)"/>
       </defs>
       <use xlink:href="#DejaVuSansMono-31"/>
       <use xlink:href="#DejaVuSansMono-2e" x="60.205078"/>
       <use xlink:href="#DejaVuSansMono-30" x="120.410156"/>
      </g>
     </g>
    </g>
   </g>
   <g id="line2d_11">
    <path d="M 27.558603 339.382631 
L 28.391743 338.762576 
L 30.058022 334.206022 
L 30.891162 335.670211 
L 31.724302 333.069714 
L 32.557441 332.215315 
L 33.390581 340.823437 
L 34.223721 351.531216 
L 35.05686 348.48208 
L 35.89 344.837073 
L 36.72314 344.467293 
L 37.556279 344.305372 
L 38.389419 351.700754 
L 39.222559 341.995924 
L 40.055698 349.429203 
L 40.888838 359.67853 
L 41.721978 351.430068 
L 42.555117 339.887154 
L 43.388257 332.247459 
L 44.221397 330.415313 
L 45.054536 337.863059 
L 45.887676 343.076888 
L 46.720815 338.944668 
L 47.553955 347.845786 
L 48.387095 343.151083 
L 49.220234 343.151083 
L 50.053374 351.399545 
L 50.886514 355.693287 
L 51.719653 364.808893 
L 52.552793 370.286046 
L 53.385933 361.951173 
L 54.219072 361.951173 
L 55.052212 367.577161 
L 55.885352 358.869719 
L 56.718491 363.564421 
L 57.551631 354.286583 
L 58.384771 346.420459 
L 59.21791 353.669631 
L 60.05105 355.242856 
L 60.88419 355.242856 
L 61.717329 358.447546 
L 62.550469 354.65567 
L 63.383609 343.828513 
L 64.216748 347.846866 
L 65.049888 347.099981 
L 65.883028 356.377819 
L 66.716167 364.243943 
L 67.549307 363.457331 
L 68.382446 352.737991 
L 69.215586 352.737991 
L 70.048726 360.712081 
L 70.881865 362.930731 
L 71.715005 362.88413 
L 72.548145 360.882855 
L 73.381284 361.629739 
L 74.214424 350.944543 
L 75.047564 350.944543 
L 75.880703 351.731155 
L 76.713843 362.450496 
L 77.546983 359.660248 
L 79.213262 359.693024 
L 80.046402 370.566783 
L 80.879541 369.505638 
L 81.712681 368.693093 
L 82.545821 379.378289 
L 83.37896 367.889361 
L 85.04524 367.889361 
L 85.878379 366.139337 
L 86.711519 362.747522 
L 87.544659 364.287971 
L 88.377798 364.287971 
L 89.210938 372.843193 
L 90.044077 363.937704 
L 90.877217 359.904528 
L 91.710357 371.393456 
L 92.543496 371.393456 
L 93.376636 360.453122 
L 94.209776 364.180849 
L 95.042915 357.580561 
L 96.709195 357.580561 
L 97.542334 346.841136 
L 98.375474 356.55917 
L 99.208614 352.684157 
L 100.041753 352.684157 
L 100.874893 345.157172 
L 101.708033 356.097506 
L 102.541172 349.39057 
L 103.374312 359.382673 
L 104.207452 352.547738 
L 105.040591 352.547738 
L 105.873731 363.287163 
L 106.706871 363.287163 
L 107.54001 371.195352 
L 108.37315 371.195352 
L 109.20629 378.722337 
L 110.039429 378.722337 
L 110.872569 386.241818 
L 111.705708 375.260398 
L 112.538848 375.256806 
L 113.371988 374.461736 
L 114.205127 366.468053 
L 116.704546 366.468053 
L 117.537686 355.376818 
L 118.370826 352.046117 
L 119.203965 350.065539 
L 120.037105 349.460241 
L 120.870245 356.298767 
L 121.703384 357.093837 
L 122.536524 365.08752 
L 124.202803 365.08752 
L 125.035943 363.530855 
L 125.869083 364.961384 
L 126.702222 368.292085 
L 127.535362 359.013379 
L 128.368502 370.600098 
L 129.201641 370.600098 
L 130.034781 363.297227 
L 131.70106 363.297227 
L 132.5342 352.144029 
L 133.367339 353.700694 
L 134.200479 363.3614 
L 135.033619 363.3614 
L 135.866758 373.04746 
L 137.533038 373.04746 
L 138.366177 369.961846 
L 139.199317 369.961846 
L 140.032457 367.765562 
L 140.865596 367.060206 
L 143.365015 367.060206 
L 144.198155 368.633431 
L 145.031295 359.265269 
L 145.864434 359.265269 
L 146.697574 358.374532 
L 147.530714 358.374532 
L 148.363853 360.570816 
L 149.196993 372.429369 
L 150.030133 362.27256 
L 151.696412 362.27256 
L 152.529551 360.097809 
L 153.362691 359.49359 
L 154.195831 358.653345 
L 155.02897 357.216501 
L 157.528389 357.216501 
L 158.361529 367.373309 
L 159.194669 361.211512 
L 160.027808 361.211512 
L 160.860948 352.468717 
L 161.694088 362.441098 
L 162.527227 360.200445 
L 163.360367 372.91651 
L 165.026646 372.91651 
L 165.859786 370.505372 
L 166.692926 368.862227 
L 167.526065 375.024024 
L 168.359205 375.024024 
L 169.192345 385.119998 
L 170.025484 377.47087 
L 170.858624 380.551769 
L 171.691764 379.720965 
L 172.524903 378.077819 
L 173.358043 377.256246 
L 174.191182 379.667383 
L 175.024322 381.310529 
L 175.857462 381.310529 
L 176.690601 380.506817 
L 177.523741 367.407852 
L 179.19002 354.086112 
L 180.8563 329.778282 
L 181.689439 330.599855 
L 182.522579 316.126186 
L 183.355719 315.322473 
L 184.188858 311.549944 
L 185.021998 310.01866 
L 185.855138 310.025463 
L 186.688277 323.189907 
L 187.521417 320.421289 
L 188.354557 327.261897 
L 189.187696 338.487378 
L 190.020836 335.340928 
L 190.853976 336.258643 
L 191.687115 333.087003 
L 192.520255 334.499695 
L 193.353394 335.227266 
L 194.186534 347.567777 
L 195.019674 345.285252 
L 195.852813 344.466409 
L 196.685953 346.893343 
L 197.519093 342.288923 
L 198.352232 345.435373 
L 199.185372 351.812534 
L 200.018512 355.787887 
L 200.851651 350.753567 
L 201.684791 349.923358 
L 202.517931 351.496583 
L 203.35107 351.65225 
L 204.18421 362.21533 
L 205.01735 366.066453 
L 205.850489 368.715939 
L 206.683629 353.864428 
L 207.516769 361.04322 
L 208.349908 346.670947 
L 209.183048 340.360417 
L 212.515607 286.939009 
L 213.348746 271.936372 
L 214.181886 261.731035 
L 215.015025 262.154923 
L 215.848165 255.432962 
L 216.681305 264.018504 
L 217.514444 275.388194 
L 218.347584 273.688778 
L 219.180724 278.412477 
L 220.013863 280.242401 
L 221.680143 308.621273 
L 222.513282 315.078822 
L 223.346422 317.327835 
L 224.179562 318.821604 
L 225.012701 322.965189 
L 225.845841 325.300186 
L 226.678981 342.386285 
L 227.51212 338.65414 
L 228.34526 342.045035 
L 229.1784 335.317439 
L 230.011539 334.477194 
L 230.844679 328.2548 
L 231.677819 329.057786 
L 232.510958 331.848344 
L 233.344098 329.558428 
L 234.177238 316.215589 
L 235.010377 299.115097 
L 235.843517 297.849302 
L 236.676656 292.901942 
L 238.342936 274.583596 
L 239.176075 273.3797 
L 240.009215 267.411007 
L 240.842355 259.629075 
L 241.675494 255.346407 
L 242.508634 255.52157 
L 243.341774 255.835329 
L 244.174913 256.556625 
L 245.008053 258.648712 
L 245.841193 264.796738 
L 246.674332 256.994402 
L 247.507472 255.944965 
L 248.340612 263.614685 
L 249.173751 256.864057 
L 250.006891 246.509987 
L 250.840031 242.995725 
L 251.67317 243.306348 
L 252.50631 239.9066 
L 253.33945 238.16566 
L 254.172589 231.815989 
L 255.005729 230.390761 
L 255.838869 227.037223 
L 256.672008 218.888772 
L 257.505148 217.203984 
L 258.338287 217.28839 
L 259.171427 220.526405 
L 260.004567 220.623056 
L 260.837706 230.171603 
L 261.670846 225.923985 
L 262.503986 226.063431 
L 263.337125 226.901019 
L 264.170265 226.906415 
L 265.003405 227.969375 
L 265.836544 230.881961 
L 266.669684 227.421228 
L 267.502824 219.140052 
L 269.169103 205.760421 
L 270.002243 202.025712 
L 270.835382 212.793901 
L 271.668522 214.131946 
L 272.501662 211.474777 
L 273.334801 210.57718 
L 274.167941 202.610055 
L 275.001081 205.097874 
L 275.83422 204.854825 
L 276.66736 208.699832 
L 277.500499 201.109884 
L 278.333639 198.797 
L 279.166779 181.328606 
L 279.999918 179.186473 
L 281.666198 178.560933 
L 282.499337 182.615104 
L 283.332477 177.301109 
L 284.165617 175.489055 
L 284.998756 170.04747 
L 285.831896 166.112689 
L 286.665036 165.79147 
L 287.498175 166.431656 
L 288.331315 159.610186 
L 289.164455 156.646424 
L 289.997594 150.478657 
L 290.830734 148.177562 
L 291.663874 147.621816 
L 292.497013 144.96695 
L 293.330153 145.644071 
L 294.163293 146.490694 
L 294.996432 150.87305 
L 295.829572 148.31852 
L 297.495851 147.03303 
L 298.328991 143.772269 
L 299.16213 139.455065 
L 299.99527 142.964293 
L 300.82841 139.433568 
L 301.661549 138.291404 
L 302.494689 136.536411 
L 303.327829 127.841481 
L 304.994108 126.29516 
L 305.827248 124.21658 
L 306.660387 125.96927 
L 307.493527 125.199478 
L 308.326667 118.021606 
L 309.159806 120.038195 
L 309.992946 115.347446 
L 310.826086 113.501515 
L 311.659225 110.827154 
L 312.492365 110.088986 
L 314.158644 106.610759 
L 314.991784 100.960864 
L 315.824924 100.903552 
L 316.658063 102.640681 
L 317.491203 103.414779 
L 318.324343 104.985524 
L 319.157482 104.579761 
L 319.990622 106.205273 
L 320.823761 102.824635 
L 321.656901 100.069048 
L 322.490041 99.617723 
L 323.32318 99.720511 
L 324.15632 97.434232 
L 325.822599 88.663584 
L 328.322018 77.613965 
L 329.155158 79.26706 
L 329.988298 79.0985 
L 330.821437 78.009856 
L 331.654577 80.511765 
L 332.487717 77.254388 
L 333.320856 76.427158 
L 334.153996 76.972947 
L 334.987136 76.627175 
L 335.820275 77.64586 
L 336.653415 76.945657 
L 337.486555 73.764331 
L 338.319694 72.660233 
L 339.152834 70.953384 
L 339.985973 69.567501 
L 340.819113 67.926158 
L 341.652253 67.625867 
L 342.485392 65.6481 
L 343.318532 68.112145 
L 344.151672 68.721065 
L 344.984811 70.98814 
L 345.817951 70.170816 
L 346.651091 71.325452 
L 347.48423 73.491334 
L 348.31737 71.866245 
L 349.15051 74.300249 
L 349.983649 75.036544 
L 350.816789 72.852142 
L 352.483068 65.463183 
L 353.316208 63.179087 
L 354.149348 62.400756 
L 354.982487 59.509185 
L 355.815627 55.845043 
L 357.481906 51.166143 
L 358.315046 50.340677 
L 359.148186 51.968362 
L 359.981325 50.986345 
L 360.814465 54.6236 
L 361.647604 55.535072 
L 362.480744 58.729144 
L 363.313884 59.959693 
L 364.147023 60.0897 
L 364.980163 59.306422 
L 365.813303 60.64712 
L 366.646442 62.92637 
L 367.479582 61.897993 
L 368.312722 62.648318 
L 369.145861 58.426215 
L 369.979001 56.30973 
L 370.812141 52.66022 
L 371.64528 51.234734 
L 372.47842 51.949772 
L 373.31156 51.511016 
L 374.144699 52.811085 
L 374.977839 51.040691 
L 375.810979 52.047541 
L 376.644118 53.379778 
L 377.477258 53.031243 
L 378.310398 53.78208 
L 379.143537 57.209677 
L 379.976677 57.915414 
L 380.809817 59.813583 
L 381.642956 64.353507 
L 382.476096 64.017105 
L 383.309235 62.01356 
L 384.142375 62.108834 
L 384.975515 59.117684 
L 385.808654 60.258935 
L 386.641794 59.849877 
L 387.474934 60.014634 
L 388.308073 59.669521 
L 389.141213 57.149709 
L 389.974353 53.391691 
L 390.807492 50.621307 
L 391.640632 49.297353 
L 392.473772 53.013546 
L 393.306911 54.929428 
L 394.140051 55.691287 
L 394.973191 55.928277 
L 395.80633 53.011668 
L 396.63947 53.637914 
L 397.47261 55.364277 
L 398.305749 54.169291 
L 399.138889 54.119297 
L 399.972029 55.748595 
L 400.805168 48.922535 
L 401.638308 51.274674 
L 402.471448 50.277862 
L 403.304587 51.808845 
L 404.970866 48.66592 
L 405.804006 48.378247 
L 406.637146 50.293442 
L 407.470285 51.7465 
L 408.303425 51.11784 
L 409.136565 54.880512 
L 409.969704 52.075956 
L 410.802844 55.381356 
L 411.635984 54.165882 
L 412.469123 56.575584 
L 413.302263 57.035193 
L 414.135403 54.761421 
L 414.968542 54.085469 
L 415.801682 51.338456 
L 416.634822 50.323973 
L 417.467961 46.556363 
L 418.301101 44.847593 
L 419.134241 39.10456 
L 419.96738 38.949365 
L 420.80052 39.633133 
L 421.63366 40.009064 
L 422.466799 38.930649 
L 423.299939 36.665745 
L 424.133078 36.879314 
L 424.966218 36.879314 
L 425.799358 38.91908 
L 427.465637 41.353911 
L 428.298777 42.905743 
L 429.131916 40.516478 
L 429.965056 39.774413 
L 430.798196 42.50401 
L 431.631335 43.902123 
L 432.464475 44.319869 
L 433.297615 45.900503 
L 434.130754 46.248778 
L 434.963894 44.635718 
L 435.797034 44.243604 
L 436.630173 41.555944 
L 437.463313 39.795429 
L 438.296453 39.220803 
L 439.129592 42.483095 
L 439.962732 43.100061 
L 440.795872 42.706462 
L 441.629011 41.839298 
L 442.462151 40.258665 
L 443.295291 40.265992 
L 444.12843 40.658106 
L 444.96157 40.428346 
L 445.794709 41.461051 
L 446.627849 43.683124 
L 447.460989 39.489254 
L 448.294128 37.884857 
L 449.127268 37.849041 
L 449.960408 37.333019 
L 450.793547 39.56667 
L 451.626687 40.763884 
L 452.459827 40.806379 
L 453.292966 39.994141 
L 454.126106 41.20828 
L 454.959246 38.757933 
L 455.792385 38.24458 
L 456.625525 40.347965 
L 457.458665 42.098006 
L 458.291804 41.957875 
L 459.124944 40.13501 
L 459.958084 39.329389 
L 460.791223 39.484342 
L 461.624363 39.904466 
L 462.457503 39.879911 
L 463.290642 40.877991 
L 464.123782 40.811871 
L 464.956922 41.322165 
L 465.790061 39.166043 
L 467.45634 40.047667 
L 469.12262 40.063643 
L 469.955759 41.97654 
L 470.788899 41.613117 
L 471.622039 41.654662 
L 472.455178 41.065101 
L 473.288318 38.04557 
L 474.121458 38.45165 
L 475.787737 37.013898 
L 476.620877 38.105951 
L 477.454016 39.594356 
L 478.287156 37.266166 
L 479.120296 37.605564 
L 479.953435 37.350783 
L 480.786575 37.360439 
L 481.619715 37.584099 
L 483.285994 36.34016 
L 484.119134 35.444726 
L 485.785413 31.437288 
L 486.618552 31.653446 
L 487.451692 31.273417 
L 488.284832 31.507194 
L 491.61739 36.268688 
L 492.45053 37.089941 
L 493.28367 38.578485 
L 494.116809 38.578485 
L 494.949949 39.367182 
L 495.783089 39.4503 
L 496.616228 40.161595 
L 497.449368 42.054507 
L 498.282508 41.475033 
L 499.115647 41.461188 
L 499.948787 40.483199 
L 501.615066 40.801207 
L 502.448206 40.830862 
L 504.114485 42.106929 
L 504.947625 41.086441 
L 505.780765 38.823775 
L 506.613904 39.640811 
L 507.447044 41.564494 
L 508.280183 41.14437 
L 509.113323 42.576551 
L 509.946463 41.802689 
L 510.779602 41.357741 
L 512.445882 38.813676 
L 513.279021 38.496364 
L 514.112161 37.867461 
L 514.945301 36.664991 
L 515.77844 35.707212 
L 516.61158 38.577683 
L 517.44472 37.324806 
L 518.277859 37.512794 
L 519.110999 37.507963 
L 519.944139 36.888421 
L 520.777278 36.688766 
L 521.610418 37.118013 
L 522.443558 37.317669 
L 523.276697 38.520139 
L 524.109837 38.002368 
L 524.942977 35.131897 
L 525.776116 35.131897 
L 526.609256 35.524625 
L 527.442396 36.198313 
L 528.275535 37.233257 
L 529.108675 37.040798 
L 529.941814 36.684041 
L 531.608094 34.919467 
L 532.441233 35.057209 
L 533.274373 37.634718 
L 534.107513 37.455413 
L 534.940652 37.07653 
L 535.773792 37.215081 
L 536.606932 37.025183 
L 537.440071 37.22931 
L 538.273211 36.35435 
L 539.106351 39.673275 
L 539.93949 39.233501 
L 540.77263 38.471573 
L 541.60577 36.96987 
L 542.438909 36.756446 
L 543.272049 36.940048 
L 544.105189 36.801497 
L 544.938328 37.05004 
L 545.771468 36.845913 
L 546.604608 37.845831 
L 547.437747 35.158261 
L 548.270887 40.351658 
L 549.104027 40.52771 
L 549.937166 40.264143 
L 550.770306 39.245486 
L 551.603445 39.869609 
L 552.436585 40.254632 
L 554.102864 44.394777 
L 554.936004 44.427089 
L 555.769144 43.584485 
L 556.602283 38.381432 
L 557.435423 38.680407 
L 558.268563 38.27885 
L 559.101702 40.635307 
L 560.767982 38.785476 
L 561.601121 35.707932 
L 562.434261 33.136448 
L 563.267401 32.09928 
L 564.10054 32.918282 
L 564.93368 33.15905 
L 565.76682 34.380858 
L 566.599959 34.87044 
L 567.433099 32.511542 
L 568.266239 32.089018 
L 569.099378 32.694754 
L 569.932518 35.203991 
L 570.765657 35.203991 
L 571.598797 35.648939 
L 572.431937 35.848594 
L 573.265076 35.627365 
L 574.098216 33.299175 
L 574.931356 33.023161 
L 575.764495 33.24179 
L 576.597635 34.233095 
L 577.430775 33.425687 
L 578.263914 30.916451 
L 579.097054 32.523424 
L 579.930194 33.083331 
L 580.763333 34.50633 
L 581.596473 34.690917 
L 582.429613 34.479668 
L 583.262752 35.930257 
L 584.095892 36.340612 
L 584.929032 36.145331 
L 586.595311 36.562994 
L 587.428451 34.958462 
L 588.26159 34.761015 
L 589.09473 32.739439 
L 589.92787 32.739439 
L 590.761009 33.570109 
L 591.594149 31.701772 
L 592.427288 33.614669 
L 593.260428 32.825972 
L 594.093568 34.051053 
L 594.926707 34.48579 
L 595.759847 35.304791 
L 596.592987 34.497383 
L 597.426126 34.512212 
L 598.259266 33.467838 
L 599.092406 34.261791 
L 599.925545 35.260256 
L 600.758685 33.551486 
L 601.591825 33.121637 
L 602.424964 32.523138 
L 603.258104 31.454617 
L 604.091244 32.644201 
L 604.924383 32.860359 
L 605.757523 32.423009 
L 606.590663 34.623654 
L 607.423802 33.818033 
L 608.256942 35.127132 
L 609.090082 34.923006 
L 609.923221 36.173863 
L 610.756361 35.969805 
L 611.589501 37.026113 
L 612.42264 35.653727 
L 613.25578 36.333003 
L 614.088919 36.755525 
L 614.922059 34.766143 
L 615.755199 34.965798 
L 616.588338 34.784752 
L 617.421478 35.234183 
L 618.254618 34.398687 
L 619.087757 33.969004 
L 619.920897 33.332818 
L 621.587176 32.447267 
L 622.420316 32.869791 
L 623.253456 34.476764 
L 624.086595 34.277108 
L 624.919735 31.735228 
L 625.752875 31.514071 
L 626.586014 31.73735 
L 627.419154 32.660397 
L 628.252294 32.881386 
L 629.085433 33.77682 
L 629.918573 33.543659 
L 631.584852 33.568366 
L 632.417992 37.180231 
L 633.251131 38.013342 
L 634.084271 37.369774 
L 634.917411 38.93101 
L 635.75055 39.951498 
L 636.58369 42.600981 
L 637.41683 41.491856 
L 638.249969 42.097592 
L 639.083109 41.227839 
L 639.916249 39.620866 
L 640.749388 34.976296 
L 642.415668 35.401789 
L 643.248807 34.633795 
L 644.081947 32.690259 
L 644.915087 31.646509 
L 645.748226 32.695614 
L 646.581366 33.088342 
L 647.414506 34.137447 
L 648.247645 34.776088 
L 649.080785 34.98735 
L 649.913925 34.809664 
L 650.747064 34.161052 
L 652.413344 35.405964 
L 653.246483 35.729281 
L 654.079623 35.562724 
L 654.912762 34.777881 
L 655.745902 34.59853 
L 656.579042 33.959889 
L 657.412181 35.530353 
L 658.245321 35.302079 
L 659.078461 36.747863 
L 659.9116 37.427736 
L 660.74474 36.587491 
L 661.57788 34.848135 
L 662.411019 35.572561 
L 663.244159 36.930579 
L 664.077299 38.962893 
L 664.910438 40.569866 
L 665.743578 39.001844 
L 666.576718 39.194302 
L 667.409857 37.95978 
L 668.242997 36.081899 
L 669.076137 36.295561 
L 669.909276 38.203332 
L 670.742416 37.011721 
L 671.575556 36.243265 
L 672.408695 34.174309 
L 673.241835 32.569778 
L 674.074975 33.400447 
L 674.908114 35.333313 
L 675.741254 36.203066 
L 676.574393 36.576566 
L 677.407533 36.367734 
L 678.240673 35.125087 
L 679.073812 36.029799 
L 679.906952 37.170151 
L 681.573231 38.786618 
L 682.406371 38.974605 
L 683.239511 38.921883 
L 684.07265 38.681114 
L 684.90579 38.091553 
L 685.73893 38.76041 
L 686.572069 37.684604 
L 687.405209 36.80188 
L 688.238349 35.071967 
L 689.071488 34.093978 
L 689.904628 33.664294 
L 690.737768 33.464639 
L 691.570907 32.176879 
L 692.404047 31.970417 
L 693.237187 32.362531 
L 694.070326 32.501082 
L 694.903466 33.706049 
L 695.736606 35.81058 
L 696.569745 35.81058 
L 697.402885 36.038854 
L 698.236024 36.506039 
L 699.069164 39.476539 
L 699.902304 38.72135 
L 700.735443 39.13194 
L 701.568583 40.153895 
L 702.401723 39.341657 
L 703.234862 39.021419 
L 704.068002 37.893365 
L 704.901142 38.097492 
L 705.734281 39.105981 
L 706.567421 38.223434 
L 707.400561 35.881836 
L 708.2337 37.021217 
L 709.06684 37.209204 
L 709.89998 36.187248 
L 710.733119 36.192079 
L 711.566259 35.718032 
L 713.232538 33.900942 
L 714.065678 33.504425 
L 714.898818 33.919788 
L 716.565097 32.155109 
L 717.398236 31.753553 
L 718.231376 30.734896 
L 719.064516 30.730066 
L 719.897655 31.131622 
L 720.730795 30.915464 
L 721.563935 31.736907 
L 722.397074 30.690198 
L 723.230214 34.213353 
L 724.063354 35.77459 
L 725.729633 36.726827 
L 726.562773 37.745484 
L 727.395912 38.358067 
L 728.229052 38.182014 
L 729.895331 38.590501 
L 730.728471 38.989422 
L 731.561611 35.264595 
L 732.39475 33.684259 
L 733.22789 33.167292 
L 734.06103 33.307423 
L 734.894169 32.500015 
L 735.727309 33.498672 
L 736.560449 33.732041 
L 737.393588 34.858772 
L 739.059867 33.650222 
L 739.893007 33.645392 
L 740.726147 33.4632 
L 741.559286 32.644199 
L 742.392426 32.045195 
L 743.225566 32.040364 
L 744.058705 31.748802 
L 744.891845 30.672829 
L 745.724985 29.332435 
L 746.558124 29.774331 
L 747.391264 30.96953 
L 748.224404 31.183192 
L 749.057543 31.996699 
L 749.890683 33.22878 
L 750.723823 33.0246 
L 751.556962 34.135814 
L 752.390102 33.245917 
L 753.223242 33.673325 
L 754.889521 35.059225 
L 755.722661 34.274383 
L 756.5558 35.302206 
L 758.22208 33.234547 
L 759.055219 33.241706 
L 759.888359 33.548696 
L 760.721498 32.912497 
L 761.554638 32.691508 
L 762.387778 33.131128 
L 763.220917 32.143697 
L 764.054057 35.619836 
L 764.887197 35.002601 
L 765.720336 36.96769 
L 766.553476 37.181352 
L 767.386616 37.616089 
L 768.219755 36.418874 
L 769.052895 37.650955 
L 769.886035 41.496693 
L 770.719174 40.425718 
L 771.552314 40.43516 
L 772.385454 36.543727 
L 773.218593 35.919476 
L 774.051733 34.578638 
L 774.884873 36.351238 
L 775.718012 35.70284 
L 776.551152 35.710341 
L 777.384292 35.510762 
L 778.217431 32.707022 
L 779.050571 33.528275 
L 779.88371 32.899291 
L 781.54999 32.479182 
L 782.383129 33.427248 
L 783.216269 32.053568 
L 784.049409 32.666151 
L 784.882548 32.65865 
L 785.715688 32.039068 
L 786.548828 31.823155 
L 787.381967 30.788211 
L 788.215107 31.001901 
L 789.048247 32.608874 
L 789.881386 33.028955 
L 790.714526 32.069221 
L 791.547666 31.876762 
L 792.380805 32.076418 
L 793.213945 32.503827 
L 794.047085 33.577009 
L 794.880224 32.542065 
L 795.713364 34.210673 
L 796.546504 34.426832 
L 799.045923 33.850453 
L 799.879062 35.505167 
L 800.712202 34.486511 
L 801.545341 34.059101 
L 802.378481 32.359296 
L 803.211621 33.216554 
L 804.04476 31.761636 
L 804.8779 31.334228 
L 805.71104 32.076294 
L 806.544179 32.081233 
L 807.377319 32.515842 
L 808.210459 30.647505 
L 809.043598 31.060425 
L 809.876738 30.633018 
L 810.709878 31.062909 
L 811.543017 30.864289 
L 812.376157 31.080447 
L 813.209297 31.078006 
L 814.042436 28.906498 
L 814.875576 29.532915 
L 815.708716 28.884684 
L 816.541855 28.678182 
L 817.374995 29.53039 
L 818.208135 31.51495 
L 819.041274 32.31742 
L 819.874414 34.200662 
L 820.707554 33.773255 
L 821.540693 33.982115 
L 822.373833 35.058088 
L 823.206972 35.058088 
L 824.040112 35.27171 
L 824.873252 35.27171 
L 825.706391 34.642781 
L 826.539531 34.262752 
L 827.372671 33.450514 
L 828.20581 31.127261 
L 829.03895 32.731793 
L 829.87209 32.311671 
L 830.705229 32.066367 
L 831.538369 31.658671 
L 832.371509 32.248233 
L 834.037788 32.229134 
L 834.870928 31.05201 
L 835.704067 31.712903 
L 836.537207 31.909636 
L 837.370347 30.091401 
L 838.203486 30.302663 
L 839.869766 29.469552 
L 840.702905 29.314599 
L 841.536045 29.950785 
L 842.369185 29.540103 
L 843.202324 29.748895 
L 844.035464 29.517783 
L 844.868603 30.123519 
L 845.701743 31.553327 
L 846.534883 31.553327 
L 847.368022 31.118418 
L 848.201162 31.73796 
L 849.034302 31.54412 
L 849.867441 30.917703 
L 850.700581 31.146193 
L 851.533721 30.922914 
L 852.36686 31.12932 
L 852.36686 31.12932 
" clip-path="url(#p2df3a82866)" style="fill: none; stroke-dasharray: 7.4,3.2; stroke-dashoffset: 0; stroke: #000000; stroke-width: 2"/>
   </g>
   <g id="patch_3">
    <path d="M 35.89 404.12 
L 35.89 10.8 
" style="fill: none; stroke: #000000; stroke-width: 0.8; stroke-linejoin: miter; stroke-linecap: square"/>
   </g>
   <g id="patch_4">
    <path d="M 853.2 404.12 
L 853.2 10.8 
" style="fill: none; stroke: #000000; stroke-width: 0.8; stroke-linejoin: miter; stroke-linecap: square"/>
   </g>
   <g id="patch_5">
    <path d="M 35.89 404.12 
L 853.2 404.12 
" style="fill: none; stroke: #000000; stroke-width: 0.8; stroke-linejoin: miter; stroke-linecap: square"/>
   </g>
   <g id="patch_6">
    <path d="M 35.89 10.8 
L 853.2 10.8 
" style="fill: none; stroke: #000000; stroke-width: 0.8; stroke-linejoin: miter; stroke-linecap: square"/>
   </g>
  </g>
 </g>
 <defs>
  <clipPath id="p2df3a82866">
   <rect x="35.89" y="10.8" width="817.31" height="393.32"/>
  </clipPath>
 </defs>
</svg>
