<?xml version="1.0" encoding="utf-8" standalone="no"?>
<!DOCTYPE svg PUBLIC "-//W3C//DTD SVG 1.1//EN"
  "http://www.w3.org/Graphics/SVG/1.1/DTD/svg11.dtd">
<svg xmlns:xlink="http://www.w3.org/1999/xlink" width="864pt" height="432pt" viewBox="0 0 864 432" xmlns="http://www.w3.org/2000/svg" version="1.1">
 <metadata>
  <rdf:RDF xmlns:dc="http://purl.org/dc/elements/1.1/" xmlns:cc="http://creativecommons.org/ns#" xmlns:rdf="http://www.w3.org/1999/02/22-rdf-syntax-ns#">
   <cc:Work>
    <dc:type rdf:resource="http://purl.org/dc/dcmitype/StillImage"/>
    <dc:date>2024-09-24T22:13:57.240399</dc:date>
    <dc:format>image/svg+xml</dc:format>
    <dc:creator>
     <cc:Agent>
      <dc:title>Matplotlib v3.9.2, https://matplotlib.org/</dc:title>
     </cc:Agent>
    </dc:creator>
   </cc:Work>
  </rdf:RDF>
 </metadata>
 <defs>
  <style type="text/css">*{stroke-linejoin: round; stroke-linecap: butt}</style>
 </defs>
 <g id="figure_1">
  <g id="patch_1">
   <path d="M 0 432 
L 864 432 
L 864 0 
L 0 0 
z
" style="fill: #ffffff"/>
  </g>
  <g id="axes_1">
   <g id="patch_2">
    <path d="M 47.95 404.12 
L 853.2 404.12 
L 853.2 10.8 
L 47.95 10.8 
z
" style="fill: #ffffff"/>
   </g>
   <g id="matplotlib.axis_1">
    <g id="xtick_1">
     <g id="line2d_1">
      <defs>
       <path id="m5788e86371" d="M 0 0 
L 0 3.5 
" style="stroke: #000000; stroke-width: 0.8"/>
      </defs>
      <g>
       <use xlink:href="#m5788e86371" x="203.910754" y="404.12" style="stroke: #000000; stroke-width: 0.8"/>
      </g>
     </g>
     <g id="text_1">
      <!-- 200 -->
      <g transform="translate(194.880286 418.771563) scale(0.1 -0.1)">
       <defs>
        <path id="DejaVuSansMono-32" d="M 1166 531 
L 3309 531 
L 3309 0 
L 475 0 
L 475 531 
Q 1059 1147 1496 1619 
Q 1934 2091 2100 2284 
Q 2413 2666 2522 2902 
Q 2631 3138 2631 3384 
Q 2631 3775 2401 3997 
Q 2172 4219 1772 4219 
Q 1488 4219 1175 4116 
Q 863 4013 513 3803 
L 513 4441 
Q 834 4594 1145 4672 
Q 1456 4750 1759 4750 
Q 2444 4750 2861 4386 
Q 3278 4022 3278 3431 
Q 3278 3131 3139 2831 
Q 3000 2531 2688 2169 
Q 2513 1966 2180 1606 
Q 1847 1247 1166 531 
z
" transform="scale(0.015625)"/>
        <path id="DejaVuSansMono-30" d="M 1509 2344 
Q 1509 2516 1629 2641 
Q 1750 2766 1919 2766 
Q 2094 2766 2219 2641 
Q 2344 2516 2344 2344 
Q 2344 2169 2220 2047 
Q 2097 1925 1919 1925 
Q 1744 1925 1626 2044 
Q 1509 2163 1509 2344 
z
M 1925 4250 
Q 1484 4250 1267 3775 
Q 1050 3300 1050 2328 
Q 1050 1359 1267 884 
Q 1484 409 1925 409 
Q 2369 409 2586 884 
Q 2803 1359 2803 2328 
Q 2803 3300 2586 3775 
Q 2369 4250 1925 4250 
z
M 1925 4750 
Q 2672 4750 3055 4137 
Q 3438 3525 3438 2328 
Q 3438 1134 3055 521 
Q 2672 -91 1925 -91 
Q 1178 -91 797 521 
Q 416 1134 416 2328 
Q 416 3525 797 4137 
Q 1178 4750 1925 4750 
z
" transform="scale(0.015625)"/>
       </defs>
       <use xlink:href="#DejaVuSansMono-32"/>
       <use xlink:href="#DejaVuSansMono-30" x="60.205078"/>
       <use xlink:href="#DejaVuSansMono-30" x="120.410156"/>
      </g>
     </g>
    </g>
    <g id="xtick_2">
     <g id="line2d_2">
      <g>
       <use xlink:href="#m5788e86371" x="368.079969" y="404.12" style="stroke: #000000; stroke-width: 0.8"/>
      </g>
     </g>
     <g id="text_2">
      <!-- 400 -->
      <g transform="translate(359.049501 418.771563) scale(0.1 -0.1)">
       <defs>
        <path id="DejaVuSansMono-34" d="M 2297 4091 
L 825 1625 
L 2297 1625 
L 2297 4091 
z
M 2194 4666 
L 2925 4666 
L 2925 1625 
L 3547 1625 
L 3547 1113 
L 2925 1113 
L 2925 0 
L 2297 0 
L 2297 1113 
L 319 1113 
L 319 1709 
L 2194 4666 
z
" transform="scale(0.015625)"/>
       </defs>
       <use xlink:href="#DejaVuSansMono-34"/>
       <use xlink:href="#DejaVuSansMono-30" x="60.205078"/>
       <use xlink:href="#DejaVuSansMono-30" x="120.410156"/>
      </g>
     </g>
    </g>
    <g id="xtick_3">
     <g id="line2d_3">
      <g>
       <use xlink:href="#m5788e86371" x="532.249185" y="404.12" style="stroke: #000000; stroke-width: 0.8"/>
      </g>
     </g>
     <g id="text_3">
      <!-- 600 -->
      <g transform="translate(523.218716 418.771563) scale(0.1 -0.1)">
       <defs>
        <path id="DejaVuSansMono-36" d="M 3097 4563 
L 3097 3981 
Q 2900 4097 2678 4158 
Q 2456 4219 2216 4219 
Q 1616 4219 1306 3767 
Q 997 3316 997 2438 
Q 1147 2750 1412 2917 
Q 1678 3084 2022 3084 
Q 2697 3084 3067 2670 
Q 3438 2256 3438 1497 
Q 3438 741 3056 325 
Q 2675 -91 1984 -91 
Q 1172 -91 794 492 
Q 416 1075 416 2328 
Q 416 3509 870 4129 
Q 1325 4750 2188 4750 
Q 2419 4750 2650 4701 
Q 2881 4653 3097 4563 
z
M 1972 2591 
Q 1569 2591 1337 2300 
Q 1106 2009 1106 1497 
Q 1106 984 1337 693 
Q 1569 403 1972 403 
Q 2391 403 2603 679 
Q 2816 956 2816 1497 
Q 2816 2041 2603 2316 
Q 2391 2591 1972 2591 
z
" transform="scale(0.015625)"/>
       </defs>
       <use xlink:href="#DejaVuSansMono-36"/>
       <use xlink:href="#DejaVuSansMono-30" x="60.205078"/>
       <use xlink:href="#DejaVuSansMono-30" x="120.410156"/>
      </g>
     </g>
    </g>
    <g id="xtick_4">
     <g id="line2d_4">
      <g>
       <use xlink:href="#m5788e86371" x="696.4184" y="404.12" style="stroke: #000000; stroke-width: 0.8"/>
      </g>
     </g>
     <g id="text_4">
      <!-- 800 -->
      <g transform="translate(687.387931 418.771563) scale(0.1 -0.1)">
       <defs>
        <path id="DejaVuSansMono-38" d="M 1925 2216 
Q 1503 2216 1273 1980 
Q 1044 1744 1044 1313 
Q 1044 881 1276 642 
Q 1509 403 1925 403 
Q 2350 403 2579 639 
Q 2809 875 2809 1313 
Q 2809 1741 2576 1978 
Q 2344 2216 1925 2216 
z
M 1375 2478 
Q 972 2581 745 2862 
Q 519 3144 519 3541 
Q 519 4097 897 4423 
Q 1275 4750 1925 4750 
Q 2578 4750 2956 4423 
Q 3334 4097 3334 3541 
Q 3334 3144 3107 2862 
Q 2881 2581 2478 2478 
Q 2947 2375 3195 2062 
Q 3444 1750 3444 1253 
Q 3444 622 3041 265 
Q 2638 -91 1925 -91 
Q 1213 -91 811 264 
Q 409 619 409 1247 
Q 409 1747 657 2061 
Q 906 2375 1375 2478 
z
M 1147 3481 
Q 1147 3106 1347 2909 
Q 1547 2713 1925 2713 
Q 2306 2713 2506 2909 
Q 2706 3106 2706 3481 
Q 2706 3863 2507 4063 
Q 2309 4263 1925 4263 
Q 1547 4263 1347 4061 
Q 1147 3859 1147 3481 
z
" transform="scale(0.015625)"/>
       </defs>
       <use xlink:href="#DejaVuSansMono-38"/>
       <use xlink:href="#DejaVuSansMono-30" x="60.205078"/>
       <use xlink:href="#DejaVuSansMono-30" x="120.410156"/>
      </g>
     </g>
    </g>
   </g>
   <g id="matplotlib.axis_2">
    <g id="ytick_1">
     <g id="line2d_5">
      <defs>
       <path id="m20fc62edd3" d="M 0 0 
L -3.5 0 
" style="stroke: #000000; stroke-width: 0.8"/>
      </defs>
      <g>
       <use xlink:href="#m20fc62edd3" x="47.95" y="386.241818" style="stroke: #000000; stroke-width: 0.8"/>
      </g>
     </g>
     <g id="text_5">
      <!-- 0.000 -->
      <g transform="translate(10.848438 390.067599) scale(0.1 -0.1)">
       <defs>
        <path id="DejaVuSansMono-2e" d="M 1528 953 
L 2316 953 
L 2316 0 
L 1528 0 
L 1528 953 
z
" transform="scale(0.015625)"/>
       </defs>
       <use xlink:href="#DejaVuSansMono-30"/>
       <use xlink:href="#DejaVuSansMono-2e" x="60.205078"/>
       <use xlink:href="#DejaVuSansMono-30" x="120.410156"/>
       <use xlink:href="#DejaVuSansMono-30" x="180.615234"/>
       <use xlink:href="#DejaVuSansMono-30" x="240.820312"/>
      </g>
     </g>
    </g>
    <g id="ytick_2">
     <g id="line2d_6">
      <g>
       <use xlink:href="#m20fc62edd3" x="47.95" y="339.227943" style="stroke: #000000; stroke-width: 0.8"/>
      </g>
     </g>
     <g id="text_6">
      <!-- 0.025 -->
      <g transform="translate(10.848438 343.053724) scale(0.1 -0.1)">
       <defs>
        <path id="DejaVuSansMono-35" d="M 647 4666 
L 3009 4666 
L 3009 4134 
L 1222 4134 
L 1222 2988 
Q 1356 3038 1492 3061 
Q 1628 3084 1766 3084 
Q 2491 3084 2916 2656 
Q 3341 2228 3341 1497 
Q 3341 759 2895 334 
Q 2450 -91 1678 -91 
Q 1306 -91 998 -41 
Q 691 9 447 109 
L 447 750 
Q 734 594 1025 517 
Q 1316 441 1619 441 
Q 2141 441 2423 716 
Q 2706 991 2706 1497 
Q 2706 1997 2414 2275 
Q 2122 2553 1600 2553 
Q 1347 2553 1106 2495 
Q 866 2438 647 2322 
L 647 4666 
z
" transform="scale(0.015625)"/>
       </defs>
       <use xlink:href="#DejaVuSansMono-30"/>
       <use xlink:href="#DejaVuSansMono-2e" x="60.205078"/>
       <use xlink:href="#DejaVuSansMono-30" x="120.410156"/>
       <use xlink:href="#DejaVuSansMono-32" x="180.615234"/>
       <use xlink:href="#DejaVuSansMono-35" x="240.820312"/>
      </g>
     </g>
    </g>
    <g id="ytick_3">
     <g id="line2d_7">
      <g>
       <use xlink:href="#m20fc62edd3" x="47.95" y="292.214068" style="stroke: #000000; stroke-width: 0.8"/>
      </g>
     </g>
     <g id="text_7">
      <!-- 0.050 -->
      <g transform="translate(10.848438 296.039849) scale(0.1 -0.1)">
       <use xlink:href="#DejaVuSansMono-30"/>
       <use xlink:href="#DejaVuSansMono-2e" x="60.205078"/>
       <use xlink:href="#DejaVuSansMono-30" x="120.410156"/>
       <use xlink:href="#DejaVuSansMono-35" x="180.615234"/>
       <use xlink:href="#DejaVuSansMono-30" x="240.820312"/>
      </g>
     </g>
    </g>
    <g id="ytick_4">
     <g id="line2d_8">
      <g>
       <use xlink:href="#m20fc62edd3" x="47.95" y="245.200193" style="stroke: #000000; stroke-width: 0.8"/>
      </g>
     </g>
     <g id="text_8">
      <!-- 0.075 -->
      <g transform="translate(10.848438 249.025974) scale(0.1 -0.1)">
       <defs>
        <path id="DejaVuSansMono-37" d="M 434 4666 
L 3372 4666 
L 3372 4397 
L 1703 0 
L 1044 0 
L 2669 4134 
L 434 4134 
L 434 4666 
z
" transform="scale(0.015625)"/>
       </defs>
       <use xlink:href="#DejaVuSansMono-30"/>
       <use xlink:href="#DejaVuSansMono-2e" x="60.205078"/>
       <use xlink:href="#DejaVuSansMono-30" x="120.410156"/>
       <use xlink:href="#DejaVuSansMono-37" x="180.615234"/>
       <use xlink:href="#DejaVuSansMono-35" x="240.820312"/>
      </g>
     </g>
    </g>
    <g id="ytick_5">
     <g id="line2d_9">
      <g>
       <use xlink:href="#m20fc62edd3" x="47.95" y="198.186318" style="stroke: #000000; stroke-width: 0.8"/>
      </g>
     </g>
     <g id="text_9">
      <!-- 0.100 -->
      <g transform="translate(10.848438 202.012099) scale(0.1 -0.1)">
       <defs>
        <path id="DejaVuSansMono-31" d="M 844 531 
L 1825 531 
L 1825 4097 
L 769 3859 
L 769 4434 
L 1819 4666 
L 2450 4666 
L 2450 531 
L 3419 531 
L 3419 0 
L 844 0 
L 844 531 
z
" transform="scale(0.015625)"/>
       </defs>
       <use xlink:href="#DejaVuSansMono-30"/>
       <use xlink:href="#DejaVuSansMono-2e" x="60.205078"/>
       <use xlink:href="#DejaVuSansMono-31" x="120.410156"/>
       <use xlink:href="#DejaVuSansMono-30" x="180.615234"/>
       <use xlink:href="#DejaVuSansMono-30" x="240.820312"/>
      </g>
     </g>
    </g>
    <g id="ytick_6">
     <g id="line2d_10">
      <g>
       <use xlink:href="#m20fc62edd3" x="47.95" y="151.172443" style="stroke: #000000; stroke-width: 0.8"/>
      </g>
     </g>
     <g id="text_10">
      <!-- 0.125 -->
      <g transform="translate(10.848438 154.998224) scale(0.1 -0.1)">
       <use xlink:href="#DejaVuSansMono-30"/>
       <use xlink:href="#DejaVuSansMono-2e" x="60.205078"/>
       <use xlink:href="#DejaVuSansMono-31" x="120.410156"/>
       <use xlink:href="#DejaVuSansMono-32" x="180.615234"/>
       <use xlink:href="#DejaVuSansMono-35" x="240.820312"/>
      </g>
     </g>
    </g>
    <g id="ytick_7">
     <g id="line2d_11">
      <g>
       <use xlink:href="#m20fc62edd3" x="47.95" y="104.158568" style="stroke: #000000; stroke-width: 0.8"/>
      </g>
     </g>
     <g id="text_11">
      <!-- 0.150 -->
      <g transform="translate(10.848438 107.984349) scale(0.1 -0.1)">
       <use xlink:href="#DejaVuSansMono-30"/>
       <use xlink:href="#DejaVuSansMono-2e" x="60.205078"/>
       <use xlink:href="#DejaVuSansMono-31" x="120.410156"/>
       <use xlink:href="#DejaVuSansMono-35" x="180.615234"/>
       <use xlink:href="#DejaVuSansMono-30" x="240.820312"/>
      </g>
     </g>
    </g>
    <g id="ytick_8">
     <g id="line2d_12">
      <g>
       <use xlink:href="#m20fc62edd3" x="47.95" y="57.144693" style="stroke: #000000; stroke-width: 0.8"/>
      </g>
     </g>
     <g id="text_12">
      <!-- 0.175 -->
      <g transform="translate(10.848438 60.970474) scale(0.1 -0.1)">
       <use xlink:href="#DejaVuSansMono-30"/>
       <use xlink:href="#DejaVuSansMono-2e" x="60.205078"/>
       <use xlink:href="#DejaVuSansMono-31" x="120.410156"/>
       <use xlink:href="#DejaVuSansMono-37" x="180.615234"/>
       <use xlink:href="#DejaVuSansMono-35" x="240.820312"/>
      </g>
     </g>
    </g>
   </g>
   <g id="line2d_13">
    <path d="M 39.741539 56.15662 
L 40.562385 39.095298 
L 41.383231 36.576928 
L 42.204077 53.358303 
L 43.024924 60.646346 
L 43.84577 38.82173 
L 44.666616 65.37496 
L 45.487462 68.356588 
L 46.308308 64.440126 
L 47.129154 64.88248 
L 47.95 99.399786 
L 48.770846 93.297633 
L 49.591692 101.874171 
L 50.412538 89.545483 
L 51.233384 94.216128 
L 52.05423 108.315096 
L 52.875076 83.428445 
L 53.695923 83.817466 
L 54.516769 91.329897 
L 55.337615 91.91271 
L 56.158461 67.489145 
L 57.800153 109.892536 
L 59.441845 134.709333 
L 60.262691 113.4016 
L 61.083537 118.412702 
L 61.904383 114.090454 
L 62.725229 106.693911 
L 63.546075 141.961321 
L 64.366922 165.95067 
L 65.187768 143.970983 
L 66.008614 154.144788 
L 66.82946 147.504601 
L 67.650306 160.253329 
L 68.471152 160.938991 
L 69.291998 154.647471 
L 70.112844 154.352725 
L 70.93369 188.432653 
L 71.754536 160.6725 
L 72.575382 166.397844 
L 73.396228 166.412679 
L 74.217074 127.748159 
L 75.03792 116.376297 
L 75.858767 86.7253 
L 76.679613 88.223674 
L 77.500459 97.438129 
L 78.321305 98.138822 
L 79.142151 66.640919 
L 79.962997 56.798545 
L 80.783843 44.558247 
L 81.604689 75.259977 
L 82.425535 75.592659 
L 83.246381 78.760575 
L 84.067227 84.143562 
L 84.888073 110.554747 
L 85.708919 119.970793 
L 86.529766 123.218935 
L 87.350612 136.308001 
L 88.171458 144.226205 
L 89.81315 100.762152 
L 90.633996 139.58055 
L 91.454842 136.732056 
L 92.275688 124.368561 
L 93.91738 87.280838 
L 94.738226 90.978599 
L 95.559072 74.817933 
L 96.379918 67.377571 
L 97.200765 80.138272 
L 98.021611 74.571435 
L 98.842457 50.148639 
L 99.663303 48.547876 
L 100.484149 53.65496 
L 101.304995 71.100202 
L 102.125841 75.156371 
L 102.946687 69.187807 
L 103.767533 70.334195 
L 104.588379 73.635212 
L 105.409225 58.803666 
L 106.230071 57.157677 
L 107.050917 73.560149 
L 107.871764 75.137306 
L 108.69261 84.395078 
L 109.513456 96.609882 
L 110.334302 91.036328 
L 111.155148 94.13476 
L 111.975994 125.728898 
L 113.617686 117.355705 
L 114.438532 127.392606 
L 115.259378 95.46538 
L 116.080224 115.798058 
L 116.90107 116.893045 
L 117.721916 77.847612 
L 118.542762 79.831495 
L 119.363609 74.582646 
L 120.184455 46.228646 
L 121.005301 85.06784 
L 121.826147 88.043584 
L 122.646993 77.169684 
L 123.467839 78.394764 
L 124.288685 57.234741 
L 125.109531 40.954005 
L 125.930377 73.067843 
L 126.751223 74.050657 
L 127.572069 79.760899 
L 128.392915 93.765697 
L 129.213761 80.006891 
L 130.034608 77.033958 
L 130.855454 93.734812 
L 131.6763 92.919844 
L 132.497146 125.463137 
L 133.317992 137.430462 
L 134.138838 105.227059 
L 134.959684 132.859859 
L 135.78053 154.132824 
L 136.601376 135.009963 
L 137.422222 111.279096 
L 138.243068 111.737499 
L 139.88476 131.477887 
L 140.705607 98.175209 
L 141.526453 94.637279 
L 142.347299 95.559134 
L 143.168145 67.002507 
L 143.988991 44.684075 
L 144.809837 46.894965 
L 145.630683 57.942716 
L 146.451529 60.13776 
L 147.272375 45.477065 
L 148.093221 51.127513 
L 148.914067 52.125384 
L 149.734913 47.771415 
L 150.555759 52.880726 
L 151.376606 53.78709 
L 152.197452 80.161321 
L 153.018298 81.416037 
L 153.839144 84.546882 
L 154.65999 83.210926 
L 155.480836 79.265911 
L 156.301682 77.598012 
L 157.122528 76.640305 
L 157.943374 74.2534 
L 158.76422 68.926643 
L 159.585066 86.162898 
L 160.405912 55.173565 
L 161.226758 81.271328 
L 162.047604 85.324535 
L 162.868451 110.034434 
L 163.689297 104.003554 
L 164.510143 92.440753 
L 165.330989 108.316812 
L 166.151835 145.049997 
L 166.972681 146.501005 
L 167.793527 127.889114 
L 168.614373 157.824165 
L 169.435219 136.660563 
L 170.256065 132.922591 
L 171.076911 112.663868 
L 171.897757 148.547624 
L 172.718603 152.061996 
L 173.53945 143.639752 
L 174.360296 121.746365 
L 175.181142 123.704498 
L 176.001988 128.556084 
L 176.822834 105.463323 
L 177.64368 104.545139 
L 178.464526 93.131672 
L 179.285372 97.566116 
L 180.106218 62.265222 
L 180.927064 60.894327 
L 181.74791 55.785623 
L 182.568756 42.231166 
L 183.389602 65.684592 
L 184.210449 62.249285 
L 185.031295 61.155188 
L 185.852141 60.576586 
L 186.672987 62.359013 
L 187.493833 57.518641 
L 188.314679 77.590651 
L 189.135525 110.099902 
L 189.956371 114.682467 
L 190.777217 112.61063 
L 191.598063 88.566449 
L 192.418909 86.34136 
L 193.239755 95.570457 
L 194.060601 87.697103 
L 194.881448 84.612912 
L 195.702294 80.96688 
L 196.52314 96.634318 
L 197.343986 78.267036 
L 198.164832 72.977451 
L 198.985678 84.144454 
L 199.806524 86.227038 
L 200.62737 89.422189 
L 201.448216 76.222078 
L 202.269062 80.17323 
L 203.089908 79.409809 
L 203.910754 87.965476 
L 204.7316 54.853394 
L 205.552446 64.980366 
L 206.373293 79.294526 
L 207.194139 67.581477 
L 208.014985 67.060929 
L 208.835831 80.344652 
L 209.656677 78.825485 
L 210.477523 80.087187 
L 211.298369 94.645331 
L 212.119215 124.008384 
L 212.940061 139.439671 
L 213.760907 115.690039 
L 214.581753 136.63446 
L 215.402599 140.156249 
L 216.223445 140.673914 
L 217.044292 157.236264 
L 217.865138 158.944634 
L 218.685984 189.444201 
L 219.50683 187.988386 
L 220.327676 149.890186 
L 221.148522 135.349702 
L 221.969368 139.084725 
L 222.790214 123.288873 
L 223.61106 120.388616 
L 224.431906 130.703762 
L 225.252752 104.325815 
L 226.073598 103.337098 
L 226.894444 68.01946 
L 227.715291 53.625228 
L 228.536137 68.227964 
L 229.356983 79.326468 
L 230.177829 86.972501 
L 230.998675 96.124686 
L 231.819521 110.327113 
L 232.640367 96.702767 
L 233.461213 98.362072 
L 234.282059 132.436085 
L 235.102905 137.116264 
L 235.923751 139.618574 
L 237.565443 129.66776 
L 238.38629 113.455218 
L 239.207136 85.141387 
L 240.027982 71.508517 
L 240.848828 72.519937 
L 241.669674 74.470412 
L 242.49052 79.018308 
L 243.311366 78.855405 
L 244.132212 115.082642 
L 244.953058 110.301143 
L 245.773904 107.728724 
L 246.59475 108.214375 
L 247.415596 106.64168 
L 248.236442 110.790662 
L 249.057288 113.818443 
L 249.878135 105.25081 
L 250.698981 65.673884 
L 251.519827 67.634719 
L 252.340673 33.997903 
L 253.161519 28.678182 
L 254.803211 87.440265 
L 255.624057 88.534609 
L 256.444903 110.811278 
L 257.265749 142.205877 
L 258.086595 147.517597 
L 258.907441 156.20541 
L 259.728287 171.762251 
L 261.36998 191.343711 
L 262.190826 163.600786 
L 263.011672 148.644028 
L 263.832518 186.415406 
L 264.653364 171.537592 
L 265.47421 165.552216 
L 266.295056 186.501215 
L 267.115902 194.31355 
L 267.936748 180.164117 
L 268.757594 190.237033 
L 269.57844 181.057087 
L 270.399286 177.699714 
L 271.220133 170.692145 
L 272.040979 141.71029 
L 272.861825 136.152594 
L 273.682671 122.430609 
L 274.503517 99.651427 
L 275.324363 122.728206 
L 276.145209 151.537912 
L 276.966055 135.727772 
L 277.786901 156.602693 
L 278.607747 185.829468 
L 279.428593 202.638848 
L 280.249439 193.724339 
L 281.070285 225.568304 
L 281.891131 247.175216 
L 282.711978 262.164281 
L 283.532824 261.669399 
L 284.35367 232.538053 
L 285.174516 231.957108 
L 285.995362 234.793999 
L 286.816208 221.718426 
L 287.637054 235.231395 
L 288.4579 273.116219 
L 289.278746 236.534257 
L 290.099592 233.695683 
L 290.920438 252.606292 
L 291.741284 253.101175 
L 292.56213 281.875086 
L 293.382977 290.736089 
L 294.203823 265.259304 
L 295.024669 282.077275 
L 295.845515 242.025803 
L 296.666361 228.900254 
L 297.487207 225.600773 
L 298.308053 221.75491 
L 299.128899 221.75491 
L 299.949745 187.689835 
L 300.770591 180.787465 
L 301.591437 180.28197 
L 302.412283 202.904725 
L 303.233129 202.904725 
L 304.053976 206.298525 
L 304.874822 202.256745 
L 305.695668 242.138189 
L 306.516514 248.822625 
L 307.33736 229.711834 
L 308.158206 254.479784 
L 308.979052 226.29129 
L 309.799898 234.645221 
L 310.620744 237.921982 
L 311.44159 237.921982 
L 312.262436 268.602341 
L 313.083282 286.266513 
L 313.904128 283.1397 
L 314.724975 282.646763 
L 315.545821 286.470836 
L 316.366667 295.767961 
L 317.187513 333.447469 
L 318.008359 347.510749 
L 318.829205 333.690645 
L 319.650051 307.888223 
L 320.470897 313.865537 
L 321.291743 300.258553 
L 322.112589 294.762734 
L 322.933435 295.255671 
L 323.754281 294.149397 
L 324.575127 294.149397 
L 325.395973 294.643629 
L 326.21682 270.576302 
L 327.037666 297.749459 
L 327.858512 312.715968 
L 328.679358 312.715968 
L 329.500204 326.322953 
L 330.32105 334.945584 
L 331.141896 334.945584 
L 331.962742 351.338578 
L 332.783588 312.418285 
L 333.604434 284.812195 
L 334.42528 308.879523 
L 335.246126 294.162137 
L 336.066972 266.131443 
L 336.887819 264.185202 
L 337.708665 247.774303 
L 338.529511 221.725057 
L 339.350357 221.725057 
L 340.171203 219.837423 
L 340.992049 258.757716 
L 341.812895 285.882846 
L 342.633741 275.985188 
L 343.454587 279.977678 
L 344.275433 294.933449 
L 345.096279 288.067719 
L 345.917125 304.478617 
L 346.737971 330.527864 
L 347.558818 326.113415 
L 348.379664 328.001049 
L 349.20051 328.001049 
L 350.021356 328.482009 
L 351.663048 349.104563 
L 352.483894 373.015399 
L 353.30474 381.82737 
L 354.125586 355.412226 
L 354.946432 355.412226 
L 355.767278 359.826674 
L 361.513201 359.826674 
L 362.334047 386.241818 
L 363.154893 386.241818 
L 363.975739 385.756514 
L 364.796585 385.756514 
L 365.617431 365.395619 
L 366.438277 364.007756 
L 367.259123 328.14619 
L 368.900815 328.14619 
L 369.721662 306.165679 
L 370.542508 302.337576 
L 372.1842 298.560825 
L 373.005046 298.560825 
L 373.825892 318.921719 
L 374.646738 320.309582 
L 375.467584 356.171149 
L 377.109276 356.171149 
L 377.930122 378.15166 
L 378.750968 381.979762 
L 379.571814 383.879312 
L 380.392661 386.241818 
L 381.213507 386.241818 
L 382.034353 383.509777 
L 382.855199 375.784254 
L 387.780275 375.784254 
L 388.601121 373.85548 
L 389.421967 373.85548 
L 390.242813 363.901919 
L 391.06366 342.654035 
L 391.884506 341.662965 
L 395.16789 341.662965 
L 395.988736 339.805627 
L 396.809582 341.734402 
L 397.630428 341.734402 
L 398.451274 354.420004 
L 399.27212 383.39341 
L 400.092966 384.38448 
L 400.913812 383.412617 
L 403.376351 383.412617 
L 404.197197 349.883445 
L 407.480581 349.883445 
L 408.301427 318.093365 
L 409.122273 319.065228 
L 411.584811 319.065228 
L 412.405657 354.451738 
L 415.689042 354.451738 
L 416.509888 348.678754 
L 418.972426 348.678754 
L 419.793272 308.833336 
L 421.434964 308.833336 
L 422.25581 307.844871 
L 423.897503 307.844871 
L 424.718349 345.407935 
L 427.180887 345.407935 
L 428.001733 385.253353 
L 428.822579 384.268769 
L 429.643425 384.268769 
L 430.464271 385.257234 
L 436.210194 385.257234 
L 437.03104 386.241818 
L 437.851886 386.241818 
L 438.672732 353.48927 
L 439.493578 353.48927 
L 440.314424 313.802502 
L 446.060347 313.802502 
L 446.881193 346.55505 
L 447.702039 346.55505 
L 448.522885 386.241818 
L 449.343731 385.267437 
L 456.731346 385.267437 
L 457.552192 386.241818 
L 461.656422 386.241818 
L 462.477268 384.315513 
L 466.581498 384.315513 
L 467.402345 345.434256 
L 469.044037 345.434256 
L 469.864883 308.827861 
L 470.685729 310.754166 
L 474.789959 310.754166 
L 475.610805 349.635423 
L 476.431651 349.635423 
L 477.252497 309.71126 
L 478.073344 346.317655 
L 482.177574 346.317655 
L 482.99842 307.683894 
L 484.640112 307.683894 
L 485.460958 343.172786 
L 490.386035 343.172786 
L 491.206881 381.806547 
L 492.848573 381.806547 
L 493.669419 386.241818 
L 494.490265 345.397896 
L 496.131957 345.397896 
L 496.952803 305.574378 
L 497.773649 305.574378 
L 498.594495 282.368131 
L 499.415341 282.368131 
L 500.236188 277.472012 
L 501.87788 277.472012 
L 502.698726 317.333921 
L 504.340418 317.333921 
L 505.161264 357.15744 
L 505.98211 357.15744 
L 506.802956 358.456872 
L 507.623802 358.456872 
L 508.444648 363.35299 
L 510.08634 363.35299 
L 510.907187 327.808705 
L 514.190571 327.808705 
L 515.011417 349.219331 
L 515.832263 349.219331 
L 516.653109 333.010826 
L 518.294801 333.010826 
L 519.115647 369.537125 
L 519.936493 369.537125 
L 522.399032 259.842259 
L 523.219878 260.338448 
L 524.040724 252.986484 
L 524.86157 269.194989 
L 528.144954 269.194989 
L 530.607492 378.889854 
L 531.428338 378.889854 
L 532.249185 386.241818 
L 534.711723 386.241818 
L 535.532569 382.979393 
L 536.353415 382.979393 
L 537.174261 376.791904 
L 538.815953 376.791904 
L 539.636799 337.009921 
L 541.278491 337.009921 
L 542.099337 323.301202 
L 542.920183 323.301202 
L 543.74103 326.563627 
L 544.561876 326.563627 
L 545.382722 332.751116 
L 547.024414 332.751116 
L 547.84526 372.5331 
L 548.666106 372.5331 
L 550.307798 322.560757 
L 551.128644 322.068465 
L 552.770336 322.068465 
L 553.591182 310.166219 
L 556.874567 310.166219 
L 557.695413 333.889179 
L 558.516259 371.235399 
L 559.337105 344.70697 
L 560.978797 344.70697 
L 561.799643 317.709601 
L 562.620489 277.886083 
L 563.441335 277.886083 
L 564.262181 238.062565 
L 565.903874 238.062565 
L 566.72472 240.674446 
L 567.545566 228.540794 
L 569.187258 228.540794 
L 570.008104 227.616891 
L 570.82895 267.440409 
L 572.470642 267.442892 
L 573.291488 227.710195 
L 574.93318 227.710195 
L 575.754027 266.864567 
L 576.574873 236.134094 
L 577.395719 196.077791 
L 578.216565 235.901309 
L 579.858257 235.901309 
L 580.679103 275.722344 
L 581.499949 274.682072 
L 582.320795 274.682072 
L 583.141641 241.397131 
L 583.962487 241.397131 
L 584.783333 263.751856 
L 585.604179 303.80816 
L 587.245872 231.015634 
L 588.066718 230.53033 
L 588.887564 223.227204 
L 589.70841 264.000173 
L 590.529256 264.000173 
L 591.350102 297.285114 
L 592.170948 297.285114 
L 592.991794 305.660862 
L 593.81264 305.660862 
L 594.633486 344.526954 
L 595.454332 342.706724 
L 596.275178 343.192029 
L 597.096024 311.367177 
L 602.841947 311.367177 
L 603.662793 347.11384 
L 604.483639 307.290322 
L 605.304485 306.628622 
L 606.125331 306.132433 
L 606.946177 266.308915 
L 607.767023 266.308915 
L 608.58787 237.509338 
L 609.408716 197.796441 
L 611.871254 197.796441 
L 613.512946 277.409637 
L 614.333792 238.082308 
L 615.154638 277.905826 
L 615.975484 277.905826 
L 616.79633 306.705403 
L 617.617176 346.4183 
L 618.438022 346.4183 
L 619.258869 322.184345 
L 620.079715 282.360827 
L 622.542253 282.360827 
L 623.363099 242.619196 
L 624.183945 227.215334 
L 625.004791 227.215334 
L 625.825637 187.391815 
L 626.646483 187.391815 
L 627.467329 180.820491 
L 628.288175 180.944292 
L 629.109021 150.224033 
L 630.750714 150.224033 
L 631.57156 189.965664 
L 632.392406 205.369526 
L 634.854944 205.269458 
L 635.67579 236.074737 
L 636.496636 235.950937 
L 637.317482 266.671196 
L 638.138328 266.671196 
L 638.959174 267.00554 
L 641.421713 267.00554 
L 642.242559 306.929126 
L 643.063405 306.929126 
L 643.884251 267.550916 
L 644.705097 307.374434 
L 645.525943 307.374434 
L 646.346789 267.550916 
L 647.167635 267.216571 
L 647.988481 227.393053 
L 648.809327 212.383929 
L 649.630173 191.601823 
L 651.271865 114.950771 
L 652.092712 154.328982 
L 653.734404 154.328982 
L 654.55525 194.1525 
L 655.376096 194.1525 
L 656.196942 233.976018 
L 657.017788 248.985142 
L 657.838634 230.414294 
L 658.65948 270.237812 
L 659.480326 267.241828 
L 660.301172 267.241828 
L 661.122018 227.41831 
L 662.76371 227.41831 
L 663.584557 267.241828 
L 665.226249 267.241828 
L 666.047095 266.765051 
L 667.688787 266.765051 
L 668.509633 265.791931 
L 669.330479 276.022959 
L 670.151325 272.432401 
L 671.793017 192.785365 
L 673.434709 192.785365 
L 674.255556 232.615096 
L 675.076402 232.615096 
L 675.897248 271.448848 
L 676.718094 232.59845 
L 677.53894 262.19094 
L 678.359786 265.781498 
L 679.180632 268.541732 
L 680.001478 269.387212 
L 681.64317 269.387212 
L 682.464016 229.745514 
L 683.284862 229.745514 
L 684.105708 190.911762 
L 684.926555 190.911762 
L 685.747401 167.505711 
L 686.568247 167.505711 
L 687.389093 164.998138 
L 688.209939 191.029728 
L 689.851631 191.029728 
L 690.672477 230.671425 
L 691.493323 230.671425 
L 693.135015 310.318462 
L 693.955861 333.724513 
L 694.776707 293.900995 
L 695.597554 293.681237 
L 696.4184 306.627686 
L 697.239246 266.804168 
L 698.060092 237.30798 
L 698.880938 237.30798 
L 699.701784 203.845253 
L 702.164322 203.845253 
L 702.985168 243.668772 
L 703.806014 243.635868 
L 704.62686 204.827656 
L 705.447706 204.827656 
L 706.268552 234.323844 
L 707.089399 234.323844 
L 707.910245 267.786571 
L 708.731091 267.786571 
L 710.372783 187.986218 
L 711.193629 187.986218 
L 713.656167 304.979894 
L 714.477013 299.218895 
L 715.297859 290.075865 
L 716.939551 211.7312 
L 717.760398 251.566008 
L 718.581244 251.708034 
L 719.40209 251.708034 
L 721.864628 132.907731 
L 722.685474 98.845212 
L 723.50632 107.988242 
L 724.327166 107.988242 
L 725.148012 146.509389 
L 725.968858 146.509389 
L 726.789704 150.090261 
L 727.61055 150.090261 
L 730.893935 310.175654 
L 731.714781 310.175654 
L 732.535627 349.999172 
L 733.356473 310.175654 
L 734.177319 310.175654 
L 734.998165 345.453913 
L 735.819011 345.453913 
L 737.460703 264.5198 
L 738.281549 264.5198 
L 739.102396 224.747142 
L 740.744088 224.747142 
L 741.564934 264.57066 
L 742.38578 264.57066 
L 743.206626 265.535048 
L 744.027472 265.535048 
L 745.669164 346.469161 
L 746.49001 337.992163 
L 747.310856 340.80993 
L 748.131702 340.80993 
L 748.952548 337.935197 
L 750.594241 258.422601 
L 753.056779 258.422601 
L 753.877625 227.392587 
L 754.698471 235.869585 
L 755.519317 272.824475 
L 756.340163 272.824475 
L 757.161009 275.699209 
L 757.981855 275.61612 
L 758.802701 281.895052 
L 759.623547 242.071534 
L 761.26524 242.071534 
L 762.086086 234.078737 
L 766.190316 234.078737 
L 767.011162 245.641989 
L 767.832008 285.465508 
L 768.652854 285.465508 
L 769.4737 256.204821 
L 770.294546 295.227631 
L 771.115392 295.227631 
L 771.936239 292.876937 
L 772.757085 292.876937 
L 773.577931 258.300124 
L 774.398777 298.123643 
L 775.219623 281.193894 
L 776.861315 281.193894 
L 777.682161 310.454581 
L 779.323853 310.454581 
L 780.144699 312.805275 
L 780.965545 312.805275 
L 781.786391 347.382088 
L 782.607238 347.382088 
L 783.428084 386.241818 
L 784.24893 386.241818 
L 785.069776 346.4183 
L 789.994852 346.4183 
L 790.815698 306.594782 
L 791.636544 306.594782 
L 792.45739 266.771264 
L 793.278236 266.793161 
L 794.099083 226.969642 
L 794.919929 226.969642 
L 795.740775 187.146124 
L 797.382467 187.146124 
L 798.203313 180.140564 
L 799.024159 180.140564 
L 799.845005 140.317046 
L 801.486697 219.942186 
L 803.128389 219.901648 
L 803.949235 259.725166 
L 805.590928 259.725166 
L 806.411774 226.907208 
L 807.23262 233.028187 
L 809.695158 233.028187 
L 810.516004 272.892242 
L 813.799388 272.892242 
L 814.620234 278.492426 
L 815.441081 276.348952 
L 816.261927 316.17247 
L 817.082773 276.348952 
L 819.545311 276.348952 
L 820.366157 256.109795 
L 822.007849 256.109795 
L 822.828695 285.300014 
L 823.649541 282.577655 
L 824.470387 282.577655 
L 825.291233 322.401173 
L 827.753772 322.401173 
L 828.574618 342.64033 
L 829.395464 303.052668 
L 830.21631 302.561662 
L 831.037156 307.594777 
L 831.858002 346.16315 
L 833.499694 346.16315 
L 836.783078 186.452207 
L 837.603925 226.039869 
L 838.424771 186.707357 
L 841.708155 186.707357 
L 844.170693 306.594782 
L 844.991539 306.594782 
L 845.812385 266.771264 
L 846.633231 266.771264 
L 847.454077 263.907474 
L 850.737462 263.907474 
L 851.558308 245.010487 
L 852.379154 245.010487 
L 852.379154 245.010487 
" clip-path="url(#p61ca948ad8)" style="fill: none; stroke-dasharray: 7.4,3.2; stroke-dashoffset: 0; stroke: #000000; stroke-width: 2"/>
   </g>
   <g id="patch_3">
    <path d="M 47.95 404.12 
L 47.95 10.8 
" style="fill: none; stroke: #000000; stroke-width: 0.8; stroke-linejoin: miter; stroke-linecap: square"/>
   </g>
   <g id="patch_4">
    <path d="M 853.2 404.12 
L 853.2 10.8 
" style="fill: none; stroke: #000000; stroke-width: 0.8; stroke-linejoin: miter; stroke-linecap: square"/>
   </g>
   <g id="patch_5">
    <path d="M 47.95 404.12 
L 853.2 404.12 
" style="fill: none; stroke: #000000; stroke-width: 0.8; stroke-linejoin: miter; stroke-linecap: square"/>
   </g>
   <g id="patch_6">
    <path d="M 47.95 10.8 
L 853.2 10.8 
" style="fill: none; stroke: #000000; stroke-width: 0.8; stroke-linejoin: miter; stroke-linecap: square"/>
   </g>
  </g>
 </g>
 <defs>
  <clipPath id="p61ca948ad8">
   <rect x="47.95" y="10.8" width="805.25" height="393.32"/>
  </clipPath>
 </defs>
</svg>
