<?xml version="1.0" encoding="utf-8" standalone="no"?>
<!DOCTYPE svg PUBLIC "-//W3C//DTD SVG 1.1//EN"
  "http://www.w3.org/Graphics/SVG/1.1/DTD/svg11.dtd">
<svg xmlns:xlink="http://www.w3.org/1999/xlink" width="864pt" height="432pt" viewBox="0 0 864 432" xmlns="http://www.w3.org/2000/svg" version="1.1">
 <metadata>
  <rdf:RDF xmlns:dc="http://purl.org/dc/elements/1.1/" xmlns:cc="http://creativecommons.org/ns#" xmlns:rdf="http://www.w3.org/1999/02/22-rdf-syntax-ns#">
   <cc:Work>
    <dc:type rdf:resource="http://purl.org/dc/dcmitype/StillImage"/>
    <dc:date>2024-09-24T22:13:57.184927</dc:date>
    <dc:format>image/svg+xml</dc:format>
    <dc:creator>
     <cc:Agent>
      <dc:title>Matplotlib v3.9.2, https://matplotlib.org/</dc:title>
     </cc:Agent>
    </dc:creator>
   </cc:Work>
  </rdf:RDF>
 </metadata>
 <defs>
  <style type="text/css">*{stroke-linejoin: round; stroke-linecap: butt}</style>
 </defs>
 <g id="figure_1">
  <g id="patch_1">
   <path d="M 0 432 
L 864 432 
L 864 0 
L 0 0 
z
" style="fill: #ffffff"/>
  </g>
  <g id="axes_1">
   <g id="patch_2">
    <path d="M 41.92 404.12 
L 853.2 404.12 
L 853.2 10.8 
L 41.92 10.8 
z
" style="fill: #ffffff"/>
   </g>
   <g id="matplotlib.axis_1">
    <g id="xtick_1">
     <g id="line2d_1">
      <defs>
       <path id="mf3e095d049" d="M 0 0 
L 0 3.5 
" style="stroke: #000000; stroke-width: 0.8"/>
      </defs>
      <g>
       <use xlink:href="#mf3e095d049" x="199.048644" y="404.12" style="stroke: #000000; stroke-width: 0.8"/>
      </g>
     </g>
     <g id="text_1">
      <!-- 200 -->
      <g transform="translate(190.018175 418.771563) scale(0.1 -0.1)">
       <defs>
        <path id="DejaVuSansMono-32" d="M 1166 531 
L 3309 531 
L 3309 0 
L 475 0 
L 475 531 
Q 1059 1147 1496 1619 
Q 1934 2091 2100 2284 
Q 2413 2666 2522 2902 
Q 2631 3138 2631 3384 
Q 2631 3775 2401 3997 
Q 2172 4219 1772 4219 
Q 1488 4219 1175 4116 
Q 863 4013 513 3803 
L 513 4441 
Q 834 4594 1145 4672 
Q 1456 4750 1759 4750 
Q 2444 4750 2861 4386 
Q 3278 4022 3278 3431 
Q 3278 3131 3139 2831 
Q 3000 2531 2688 2169 
Q 2513 1966 2180 1606 
Q 1847 1247 1166 531 
z
" transform="scale(0.015625)"/>
        <path id="DejaVuSansMono-30" d="M 1509 2344 
Q 1509 2516 1629 2641 
Q 1750 2766 1919 2766 
Q 2094 2766 2219 2641 
Q 2344 2516 2344 2344 
Q 2344 2169 2220 2047 
Q 2097 1925 1919 1925 
Q 1744 1925 1626 2044 
Q 1509 2163 1509 2344 
z
M 1925 4250 
Q 1484 4250 1267 3775 
Q 1050 3300 1050 2328 
Q 1050 1359 1267 884 
Q 1484 409 1925 409 
Q 2369 409 2586 884 
Q 2803 1359 2803 2328 
Q 2803 3300 2586 3775 
Q 2369 4250 1925 4250 
z
M 1925 4750 
Q 2672 4750 3055 4137 
Q 3438 3525 3438 2328 
Q 3438 1134 3055 521 
Q 2672 -91 1925 -91 
Q 1178 -91 797 521 
Q 416 1134 416 2328 
Q 416 3525 797 4137 
Q 1178 4750 1925 4750 
z
" transform="scale(0.015625)"/>
       </defs>
       <use xlink:href="#DejaVuSansMono-32"/>
       <use xlink:href="#DejaVuSansMono-30" x="60.205078"/>
       <use xlink:href="#DejaVuSansMono-30" x="120.410156"/>
      </g>
     </g>
    </g>
    <g id="xtick_2">
     <g id="line2d_2">
      <g>
       <use xlink:href="#mf3e095d049" x="364.447217" y="404.12" style="stroke: #000000; stroke-width: 0.8"/>
      </g>
     </g>
     <g id="text_2">
      <!-- 400 -->
      <g transform="translate(355.416748 418.771563) scale(0.1 -0.1)">
       <defs>
        <path id="DejaVuSansMono-34" d="M 2297 4091 
L 825 1625 
L 2297 1625 
L 2297 4091 
z
M 2194 4666 
L 2925 4666 
L 2925 1625 
L 3547 1625 
L 3547 1113 
L 2925 1113 
L 2925 0 
L 2297 0 
L 2297 1113 
L 319 1113 
L 319 1709 
L 2194 4666 
z
" transform="scale(0.015625)"/>
       </defs>
       <use xlink:href="#DejaVuSansMono-34"/>
       <use xlink:href="#DejaVuSansMono-30" x="60.205078"/>
       <use xlink:href="#DejaVuSansMono-30" x="120.410156"/>
      </g>
     </g>
    </g>
    <g id="xtick_3">
     <g id="line2d_3">
      <g>
       <use xlink:href="#mf3e095d049" x="529.84579" y="404.12" style="stroke: #000000; stroke-width: 0.8"/>
      </g>
     </g>
     <g id="text_3">
      <!-- 600 -->
      <g transform="translate(520.815321 418.771563) scale(0.1 -0.1)">
       <defs>
        <path id="DejaVuSansMono-36" d="M 3097 4563 
L 3097 3981 
Q 2900 4097 2678 4158 
Q 2456 4219 2216 4219 
Q 1616 4219 1306 3767 
Q 997 3316 997 2438 
Q 1147 2750 1412 2917 
Q 1678 3084 2022 3084 
Q 2697 3084 3067 2670 
Q 3438 2256 3438 1497 
Q 3438 741 3056 325 
Q 2675 -91 1984 -91 
Q 1172 -91 794 492 
Q 416 1075 416 2328 
Q 416 3509 870 4129 
Q 1325 4750 2188 4750 
Q 2419 4750 2650 4701 
Q 2881 4653 3097 4563 
z
M 1972 2591 
Q 1569 2591 1337 2300 
Q 1106 2009 1106 1497 
Q 1106 984 1337 693 
Q 1569 403 1972 403 
Q 2391 403 2603 679 
Q 2816 956 2816 1497 
Q 2816 2041 2603 2316 
Q 2391 2591 1972 2591 
z
" transform="scale(0.015625)"/>
       </defs>
       <use xlink:href="#DejaVuSansMono-36"/>
       <use xlink:href="#DejaVuSansMono-30" x="60.205078"/>
       <use xlink:href="#DejaVuSansMono-30" x="120.410156"/>
      </g>
     </g>
    </g>
    <g id="xtick_4">
     <g id="line2d_4">
      <g>
       <use xlink:href="#mf3e095d049" x="695.244363" y="404.12" style="stroke: #000000; stroke-width: 0.8"/>
      </g>
     </g>
     <g id="text_4">
      <!-- 800 -->
      <g transform="translate(686.213894 418.771563) scale(0.1 -0.1)">
       <defs>
        <path id="DejaVuSansMono-38" d="M 1925 2216 
Q 1503 2216 1273 1980 
Q 1044 1744 1044 1313 
Q 1044 881 1276 642 
Q 1509 403 1925 403 
Q 2350 403 2579 639 
Q 2809 875 2809 1313 
Q 2809 1741 2576 1978 
Q 2344 2216 1925 2216 
z
M 1375 2478 
Q 972 2581 745 2862 
Q 519 3144 519 3541 
Q 519 4097 897 4423 
Q 1275 4750 1925 4750 
Q 2578 4750 2956 4423 
Q 3334 4097 3334 3541 
Q 3334 3144 3107 2862 
Q 2881 2581 2478 2478 
Q 2947 2375 3195 2062 
Q 3444 1750 3444 1253 
Q 3444 622 3041 265 
Q 2638 -91 1925 -91 
Q 1213 -91 811 264 
Q 409 619 409 1247 
Q 409 1747 657 2061 
Q 906 2375 1375 2478 
z
M 1147 3481 
Q 1147 3106 1347 2909 
Q 1547 2713 1925 2713 
Q 2306 2713 2506 2909 
Q 2706 3106 2706 3481 
Q 2706 3863 2507 4063 
Q 2309 4263 1925 4263 
Q 1547 4263 1347 4061 
Q 1147 3859 1147 3481 
z
" transform="scale(0.015625)"/>
       </defs>
       <use xlink:href="#DejaVuSansMono-38"/>
       <use xlink:href="#DejaVuSansMono-30" x="60.205078"/>
       <use xlink:href="#DejaVuSansMono-30" x="120.410156"/>
      </g>
     </g>
    </g>
   </g>
   <g id="matplotlib.axis_2">
    <g id="ytick_1">
     <g id="line2d_5">
      <defs>
       <path id="m087d143052" d="M 0 0 
L -3.5 0 
" style="stroke: #000000; stroke-width: 0.8"/>
      </defs>
      <g>
       <use xlink:href="#m087d143052" x="41.92" y="382.781905" style="stroke: #000000; stroke-width: 0.8"/>
      </g>
     </g>
     <g id="text_5">
      <!-- 0.05 -->
      <g transform="translate(10.83875 386.607686) scale(0.1 -0.1)">
       <defs>
        <path id="DejaVuSansMono-2e" d="M 1528 953 
L 2316 953 
L 2316 0 
L 1528 0 
L 1528 953 
z
" transform="scale(0.015625)"/>
        <path id="DejaVuSansMono-35" d="M 647 4666 
L 3009 4666 
L 3009 4134 
L 1222 4134 
L 1222 2988 
Q 1356 3038 1492 3061 
Q 1628 3084 1766 3084 
Q 2491 3084 2916 2656 
Q 3341 2228 3341 1497 
Q 3341 759 2895 334 
Q 2450 -91 1678 -91 
Q 1306 -91 998 -41 
Q 691 9 447 109 
L 447 750 
Q 734 594 1025 517 
Q 1316 441 1619 441 
Q 2141 441 2423 716 
Q 2706 991 2706 1497 
Q 2706 1997 2414 2275 
Q 2122 2553 1600 2553 
Q 1347 2553 1106 2495 
Q 866 2438 647 2322 
L 647 4666 
z
" transform="scale(0.015625)"/>
       </defs>
       <use xlink:href="#DejaVuSansMono-30"/>
       <use xlink:href="#DejaVuSansMono-2e" x="60.205078"/>
       <use xlink:href="#DejaVuSansMono-30" x="120.410156"/>
       <use xlink:href="#DejaVuSansMono-35" x="180.615234"/>
      </g>
     </g>
    </g>
    <g id="ytick_2">
     <g id="line2d_6">
      <g>
       <use xlink:href="#m087d143052" x="41.92" y="337.468835" style="stroke: #000000; stroke-width: 0.8"/>
      </g>
     </g>
     <g id="text_6">
      <!-- 0.10 -->
      <g transform="translate(10.83875 341.294616) scale(0.1 -0.1)">
       <defs>
        <path id="DejaVuSansMono-31" d="M 844 531 
L 1825 531 
L 1825 4097 
L 769 3859 
L 769 4434 
L 1819 4666 
L 2450 4666 
L 2450 531 
L 3419 531 
L 3419 0 
L 844 0 
L 844 531 
z
" transform="scale(0.015625)"/>
       </defs>
       <use xlink:href="#DejaVuSansMono-30"/>
       <use xlink:href="#DejaVuSansMono-2e" x="60.205078"/>
       <use xlink:href="#DejaVuSansMono-31" x="120.410156"/>
       <use xlink:href="#DejaVuSansMono-30" x="180.615234"/>
      </g>
     </g>
    </g>
    <g id="ytick_3">
     <g id="line2d_7">
      <g>
       <use xlink:href="#m087d143052" x="41.92" y="292.155765" style="stroke: #000000; stroke-width: 0.8"/>
      </g>
     </g>
     <g id="text_7">
      <!-- 0.15 -->
      <g transform="translate(10.83875 295.981546) scale(0.1 -0.1)">
       <use xlink:href="#DejaVuSansMono-30"/>
       <use xlink:href="#DejaVuSansMono-2e" x="60.205078"/>
       <use xlink:href="#DejaVuSansMono-31" x="120.410156"/>
       <use xlink:href="#DejaVuSansMono-35" x="180.615234"/>
      </g>
     </g>
    </g>
    <g id="ytick_4">
     <g id="line2d_8">
      <g>
       <use xlink:href="#m087d143052" x="41.92" y="246.842695" style="stroke: #000000; stroke-width: 0.8"/>
      </g>
     </g>
     <g id="text_8">
      <!-- 0.20 -->
      <g transform="translate(10.83875 250.668476) scale(0.1 -0.1)">
       <use xlink:href="#DejaVuSansMono-30"/>
       <use xlink:href="#DejaVuSansMono-2e" x="60.205078"/>
       <use xlink:href="#DejaVuSansMono-32" x="120.410156"/>
       <use xlink:href="#DejaVuSansMono-30" x="180.615234"/>
      </g>
     </g>
    </g>
    <g id="ytick_5">
     <g id="line2d_9">
      <g>
       <use xlink:href="#m087d143052" x="41.92" y="201.529625" style="stroke: #000000; stroke-width: 0.8"/>
      </g>
     </g>
     <g id="text_9">
      <!-- 0.25 -->
      <g transform="translate(10.83875 205.355407) scale(0.1 -0.1)">
       <use xlink:href="#DejaVuSansMono-30"/>
       <use xlink:href="#DejaVuSansMono-2e" x="60.205078"/>
       <use xlink:href="#DejaVuSansMono-32" x="120.410156"/>
       <use xlink:href="#DejaVuSansMono-35" x="180.615234"/>
      </g>
     </g>
    </g>
    <g id="ytick_6">
     <g id="line2d_10">
      <g>
       <use xlink:href="#m087d143052" x="41.92" y="156.216556" style="stroke: #000000; stroke-width: 0.8"/>
      </g>
     </g>
     <g id="text_10">
      <!-- 0.30 -->
      <g transform="translate(10.83875 160.042337) scale(0.1 -0.1)">
       <defs>
        <path id="DejaVuSansMono-33" d="M 2425 2497 
Q 2884 2375 3128 2064 
Q 3372 1753 3372 1288 
Q 3372 644 2939 276 
Q 2506 -91 1741 -91 
Q 1419 -91 1084 -31 
Q 750 28 428 141 
L 428 769 
Q 747 603 1056 522 
Q 1366 441 1672 441 
Q 2191 441 2469 675 
Q 2747 909 2747 1350 
Q 2747 1756 2469 1995 
Q 2191 2234 1716 2234 
L 1234 2234 
L 1234 2753 
L 1716 2753 
Q 2150 2753 2394 2943 
Q 2638 3134 2638 3475 
Q 2638 3834 2411 4026 
Q 2184 4219 1766 4219 
Q 1488 4219 1191 4156 
Q 894 4094 569 3969 
L 569 4550 
Q 947 4650 1242 4700 
Q 1538 4750 1766 4750 
Q 2447 4750 2855 4408 
Q 3263 4066 3263 3500 
Q 3263 3116 3048 2859 
Q 2834 2603 2425 2497 
z
" transform="scale(0.015625)"/>
       </defs>
       <use xlink:href="#DejaVuSansMono-30"/>
       <use xlink:href="#DejaVuSansMono-2e" x="60.205078"/>
       <use xlink:href="#DejaVuSansMono-33" x="120.410156"/>
       <use xlink:href="#DejaVuSansMono-30" x="180.615234"/>
      </g>
     </g>
    </g>
    <g id="ytick_7">
     <g id="line2d_11">
      <g>
       <use xlink:href="#m087d143052" x="41.92" y="110.903486" style="stroke: #000000; stroke-width: 0.8"/>
      </g>
     </g>
     <g id="text_11">
      <!-- 0.35 -->
      <g transform="translate(10.83875 114.729267) scale(0.1 -0.1)">
       <use xlink:href="#DejaVuSansMono-30"/>
       <use xlink:href="#DejaVuSansMono-2e" x="60.205078"/>
       <use xlink:href="#DejaVuSansMono-33" x="120.410156"/>
       <use xlink:href="#DejaVuSansMono-35" x="180.615234"/>
      </g>
     </g>
    </g>
    <g id="ytick_8">
     <g id="line2d_12">
      <g>
       <use xlink:href="#m087d143052" x="41.92" y="65.590416" style="stroke: #000000; stroke-width: 0.8"/>
      </g>
     </g>
     <g id="text_12">
      <!-- 0.40 -->
      <g transform="translate(10.83875 69.416197) scale(0.1 -0.1)">
       <use xlink:href="#DejaVuSansMono-30"/>
       <use xlink:href="#DejaVuSansMono-2e" x="60.205078"/>
       <use xlink:href="#DejaVuSansMono-34" x="120.410156"/>
       <use xlink:href="#DejaVuSansMono-30" x="180.615234"/>
      </g>
     </g>
    </g>
    <g id="ytick_9">
     <g id="line2d_13">
      <g>
       <use xlink:href="#m087d143052" x="41.92" y="20.277346" style="stroke: #000000; stroke-width: 0.8"/>
      </g>
     </g>
     <g id="text_13">
      <!-- 0.45 -->
      <g transform="translate(10.83875 24.103127) scale(0.1 -0.1)">
       <use xlink:href="#DejaVuSansMono-30"/>
       <use xlink:href="#DejaVuSansMono-2e" x="60.205078"/>
       <use xlink:href="#DejaVuSansMono-34" x="120.410156"/>
       <use xlink:href="#DejaVuSansMono-35" x="180.615234"/>
      </g>
     </g>
    </g>
   </g>
   <g id="line2d_14">
    <path d="M 33.650071 127.859402 
L 34.477064 127.330036 
L 35.304057 28.678182 
L 36.13105 32.544516 
L 36.958043 63.392754 
L 37.785036 87.01673 
L 38.612029 104.980642 
L 39.439021 111.543282 
L 40.266014 105.216308 
L 41.093007 102.048936 
L 41.92 100.512122 
L 42.746993 60.308686 
L 43.573986 168.461392 
L 44.400979 171.917446 
L 45.227971 177.396645 
L 46.054964 173.285613 
L 47.70895 191.287333 
L 48.535943 190.065611 
L 50.189929 227.325948 
L 51.016922 275.487445 
L 51.843914 251.094941 
L 52.670907 239.621771 
L 53.4979 238.959865 
L 54.324893 232.070889 
L 55.151886 234.567164 
L 55.978879 222.275997 
L 56.805872 222.792271 
L 57.632864 218.455755 
L 58.459857 198.851331 
L 59.28685 174.872854 
L 60.113843 169.574891 
L 60.940836 181.319881 
L 61.767829 162.942438 
L 62.594822 155.082084 
L 63.421814 136.771003 
L 64.248807 140.331665 
L 65.0758 119.572963 
L 65.902793 125.797303 
L 66.729786 105.202183 
L 67.556779 97.218918 
L 68.383772 97.494968 
L 69.210765 89.259966 
L 70.037757 115.410749 
L 70.86475 129.163946 
L 71.691743 150.631703 
L 72.518736 154.68089 
L 73.345729 188.467713 
L 74.172722 138.732377 
L 74.999715 171.327947 
L 75.826707 190.817915 
L 76.6537 199.289778 
L 77.480693 200.630642 
L 79.134679 186.279951 
L 79.961672 178.927433 
L 80.788665 181.469737 
L 81.615657 173.49915 
L 82.44265 229.392939 
L 83.269643 230.938622 
L 84.096636 246.929483 
L 84.923629 255.809509 
L 85.750622 248.670313 
L 86.577615 234.47092 
L 87.404608 248.787544 
L 88.2316 252.322603 
L 89.058593 256.42554 
L 89.885586 261.443553 
L 90.712579 250.471753 
L 91.539572 254.544765 
L 92.366565 254.516305 
L 93.193558 269.720354 
L 94.02055 253.316697 
L 94.847543 275.387123 
L 95.674536 268.920252 
L 96.501529 276.06378 
L 97.328522 276.704586 
L 98.982508 284.909673 
L 99.809501 288.756131 
L 100.636493 280.00798 
L 101.463486 274.268204 
L 102.290479 307.185492 
L 103.117472 306.629592 
L 103.944465 290.364014 
L 104.771458 241.709778 
L 105.598451 241.40457 
L 106.425443 238.459522 
L 107.252436 211.585388 
L 108.079429 190.575571 
L 108.906422 203.038675 
L 109.733415 200.214575 
L 111.387401 195.848853 
L 112.214393 212.238111 
L 113.041386 258.547048 
L 113.868379 252.189217 
L 114.695372 256.291173 
L 116.349358 299.230757 
L 117.176351 273.98672 
L 118.003344 273.755656 
L 119.657329 260.399396 
L 120.484322 261.360747 
L 121.311315 263.473371 
L 122.138308 272.610121 
L 122.965301 274.783848 
L 123.792294 281.234104 
L 124.619286 276.905533 
L 125.446279 297.993577 
L 126.273272 302.116939 
L 127.100265 305.149613 
L 127.927258 314.935149 
L 128.754251 313.66838 
L 129.581244 306.364244 
L 130.408236 300.343287 
L 131.235229 296.512419 
L 132.062222 290.822403 
L 132.889215 286.244778 
L 133.716208 287.623415 
L 134.543201 295.176866 
L 135.370194 298.47124 
L 136.197187 298.407031 
L 137.851172 309.587502 
L 138.678165 317.064082 
L 139.505158 320.827905 
L 141.159144 346.924899 
L 141.986137 349.786628 
L 142.813129 348.541183 
L 143.640122 346.632006 
L 144.467115 344.159242 
L 145.294108 347.854923 
L 146.121101 350.26158 
L 146.948094 348.488164 
L 147.775087 348.627506 
L 149.429072 342.082926 
L 150.256065 339.932597 
L 151.083058 343.29267 
L 151.910051 339.36303 
L 152.737044 340.572616 
L 153.564037 337.303572 
L 154.39103 337.838276 
L 155.218022 333.439049 
L 156.045015 333.995482 
L 156.872008 335.487164 
L 157.699001 339.301664 
L 158.525994 340.831098 
L 159.352987 339.341926 
L 160.17998 350.98696 
L 161.006972 348.750942 
L 161.833965 349.77083 
L 162.660958 349.196127 
L 163.487951 353.57695 
L 164.314944 356.023847 
L 165.141937 356.566743 
L 165.96893 356.382487 
L 166.795923 349.538133 
L 167.622915 349.792663 
L 168.449908 350.957458 
L 170.103894 357.771483 
L 171.75788 361.110155 
L 173.411865 360.071278 
L 174.238858 360.533808 
L 175.065851 367.75657 
L 176.719837 365.968365 
L 177.54683 367.030283 
L 178.373823 366.693635 
L 179.200815 365.573063 
L 180.027808 366.447447 
L 180.854801 366.402038 
L 181.681794 366.760241 
L 182.508787 367.244909 
L 183.33578 368.05391 
L 184.162773 367.101082 
L 184.989766 368.134667 
L 185.816758 365.295456 
L 186.643751 365.238091 
L 187.470744 364.259075 
L 188.297737 365.468438 
L 189.12473 350.814098 
L 189.951723 350.45843 
L 190.778716 346.274673 
L 191.605708 344.099421 
L 192.432701 347.573841 
L 193.259694 346.593175 
L 194.086687 350.552981 
L 194.91368 350.928711 
L 195.740673 352.635063 
L 196.567666 350.68802 
L 197.394659 364.153853 
L 198.221651 364.750887 
L 199.048644 369.335453 
L 199.875637 372.483816 
L 200.70263 370.436984 
L 201.529623 371.869371 
L 202.356616 371.594838 
L 203.183609 369.96158 
L 204.837594 370.330761 
L 206.49158 372.536589 
L 207.318573 371.969745 
L 208.145566 372.627854 
L 208.972559 374.48492 
L 209.799551 373.511635 
L 210.626544 373.718534 
L 211.453537 375.858696 
L 213.107523 377.277837 
L 213.934516 377.320751 
L 214.761509 377.810058 
L 216.415494 377.532343 
L 217.242487 378.138849 
L 218.06948 379.042889 
L 218.896473 377.946735 
L 219.723466 378.135402 
L 220.550459 378.045322 
L 221.377452 378.236239 
L 222.204444 376.979358 
L 223.031437 376.60506 
L 223.85843 377.462303 
L 224.685423 376.72365 
L 225.512416 376.826686 
L 226.339409 376.790638 
L 227.166402 378.281846 
L 227.993394 378.172658 
L 228.820387 378.178757 
L 229.64738 378.696792 
L 230.474373 379.925809 
L 231.301366 379.983943 
L 232.128359 379.883385 
L 232.955352 380.758506 
L 233.782345 378.441697 
L 234.609337 377.800398 
L 235.43633 377.423103 
L 237.090316 377.632379 
L 237.917309 376.946308 
L 238.744302 377.521913 
L 239.571295 376.077959 
L 242.879266 375.813581 
L 244.533252 376.308909 
L 245.360245 375.930716 
L 246.187238 376.670757 
L 247.01423 376.8167 
L 247.841223 378.394898 
L 248.668216 377.833957 
L 249.495209 377.815152 
L 250.322202 380.169337 
L 251.149195 380.981571 
L 251.976188 381.34871 
L 253.630173 381.814176 
L 254.457166 382.59175 
L 255.284159 382.567623 
L 256.111152 382.77559 
L 256.938145 383.586763 
L 257.765138 383.869268 
L 258.59213 383.779075 
L 259.419123 384.142679 
L 261.073109 383.953833 
L 261.900102 384.200245 
L 262.727095 384.24705 
L 264.381081 384.520175 
L 265.208073 383.608589 
L 267.689052 383.339148 
L 268.516045 383.25179 
L 269.343038 383.370556 
L 270.170031 382.977769 
L 271.824016 383.374736 
L 272.651009 383.168973 
L 273.478002 384.268754 
L 274.304995 384.209246 
L 275.131988 384.384271 
L 275.958981 384.030013 
L 276.785973 384.241425 
L 277.612966 378.784603 
L 278.439959 379.142958 
L 279.266952 379.100179 
L 280.093945 378.936599 
L 281.747931 378.921526 
L 282.574924 379.101594 
L 283.401916 378.239914 
L 284.228909 378.296764 
L 285.055902 377.946766 
L 285.882895 383.499822 
L 286.709888 383.470558 
L 287.536881 383.277141 
L 289.190866 383.66741 
L 290.017859 382.923379 
L 290.844852 382.726532 
L 291.671845 382.819758 
L 292.498838 383.279323 
L 293.325831 382.528669 
L 297.460795 382.377839 
L 298.287788 383.075504 
L 299.941774 383.763962 
L 300.768767 383.689913 
L 301.595759 384.811037 
L 302.422752 384.28442 
L 303.249745 384.23464 
L 304.076738 384.536877 
L 304.903731 384.090439 
L 306.557717 384.092784 
L 307.384709 384.079669 
L 308.211702 384.534162 
L 309.038695 384.265248 
L 309.865688 384.236333 
L 310.692681 384.846474 
L 312.346667 384.772082 
L 313.17366 385.290868 
L 314.000652 385.476883 
L 315.654638 385.068006 
L 316.481631 385.087753 
L 317.308624 385.439578 
L 318.96261 385.245636 
L 321.443588 385.328329 
L 322.270581 385.153729 
L 323.097574 385.463575 
L 328.059531 385.74731 
L 328.886524 385.219985 
L 329.713517 385.026927 
L 330.54051 385.184785 
L 331.367503 385.034408 
L 332.194495 384.639796 
L 333.021488 384.605603 
L 333.848481 384.384859 
L 336.32946 384.36485 
L 337.156453 384.912 
L 337.983445 385.041932 
L 338.810438 384.834287 
L 339.637431 384.867307 
L 340.464424 385.198937 
L 341.291417 385.054684 
L 342.945403 385.401008 
L 346.253374 385.219717 
L 348.734353 385.722302 
L 349.561346 385.857523 
L 350.388338 385.685386 
L 351.215331 385.706442 
L 352.042324 384.581253 
L 352.869317 384.479972 
L 356.177288 384.725073 
L 359.48526 384.778671 
L 360.312253 385.933231 
L 361.139246 386.035753 
L 364.447217 385.091894 
L 365.27421 385.082709 
L 366.101203 384.81097 
L 367.755189 385.001266 
L 368.582181 384.892652 
L 369.409174 384.9315 
L 372.717146 385.774747 
L 373.544139 385.601719 
L 374.371131 385.878213 
L 376.85211 386.053673 
L 377.679103 386.108088 
L 380.160082 385.742526 
L 380.987074 384.315912 
L 381.814067 384.446934 
L 383.468053 384.300129 
L 384.295046 384.065565 
L 385.949032 383.937984 
L 387.603017 383.777493 
L 388.43001 383.880275 
L 389.257003 385.338874 
L 395.045953 385.725594 
L 395.872946 385.984711 
L 396.699939 386.014434 
L 399.180917 385.545518 
L 400.00791 385.613137 
L 401.661896 385.27871 
L 404.142875 385.258161 
L 404.969867 384.893573 
L 406.623853 385.150689 
L 408.277839 385.248833 
L 409.104832 385.624159 
L 409.931825 385.816097 
L 410.758818 385.811844 
L 412.412803 386.001747 
L 415.720775 386.110124 
L 416.547768 385.365669 
L 418.201753 385.355932 
L 420.682732 385.250581 
L 421.509725 385.632521 
L 422.336718 385.653267 
L 423.16371 385.003397 
L 423.990703 385.000571 
L 424.817696 385.543655 
L 425.644689 385.365103 
L 429.779653 385.358248 
L 430.606646 385.28713 
L 431.433639 385.900453 
L 432.260632 385.887373 
L 433.914618 386.241818 
L 434.741611 386.126101 
L 435.568603 385.877375 
L 436.395596 385.903027 
L 437.222589 385.490606 
L 439.703568 385.413875 
L 443.011539 385.449612 
L 443.838532 385.046441 
L 444.665525 385.0042 
L 445.492518 385.399379 
L 446.319511 385.258782 
L 447.146504 385.359305 
L 450.454475 385.085936 
L 451.281468 385.168853 
L 452.108461 385.809274 
L 452.935454 385.762269 
L 453.762446 385.477257 
L 454.589439 385.63478 
L 455.416432 385.45927 
L 456.243425 385.532109 
L 457.897411 385.430815 
L 458.724404 385.549006 
L 459.551397 385.322306 
L 461.205382 385.38218 
L 462.032375 385.551718 
L 462.859368 385.528735 
L 463.686361 385.670652 
L 464.513354 385.228061 
L 465.340347 384.606177 
L 466.167339 384.507269 
L 466.994332 384.113972 
L 468.648318 384.444077 
L 469.475311 384.348994 
L 471.95629 384.350641 
L 472.783282 384.690035 
L 473.610275 385.434885 
L 474.437268 384.873716 
L 475.264261 385.258558 
L 476.918247 385.167363 
L 477.74524 385.064216 
L 478.572232 385.21497 
L 479.399225 385.227532 
L 480.226218 384.954131 
L 481.880204 384.967916 
L 482.707197 385.44577 
L 484.361182 385.51981 
L 485.188175 385.13487 
L 486.015168 385.342788 
L 487.669154 385.374296 
L 488.496147 385.601317 
L 489.32314 385.668252 
L 490.150133 385.476712 
L 490.977125 385.640924 
L 491.804118 385.233734 
L 492.631111 385.147823 
L 493.458104 385.577391 
L 494.285097 384.967453 
L 495.11209 384.812124 
L 495.939083 384.486726 
L 497.593068 384.342424 
L 498.420061 384.530822 
L 499.247054 384.595464 
L 500.074047 384.779926 
L 500.90104 384.847999 
L 501.728033 384.149437 
L 502.555025 384.773702 
L 503.382018 384.964617 
L 505.036004 385.093727 
L 505.862997 385.264129 
L 507.516983 385.191777 
L 508.343976 385.051028 
L 509.170968 385.067199 
L 509.997961 385.806891 
L 512.47894 385.901841 
L 513.305933 385.424713 
L 514.132926 385.198104 
L 514.959918 382.379954 
L 515.786911 382.309856 
L 516.613904 382.637514 
L 517.440897 382.622293 
L 519.921876 381.435454 
L 520.748869 381.581041 
L 522.402854 382.152394 
L 523.229847 384.983623 
L 524.05684 385.142346 
L 525.710826 384.973476 
L 528.191804 386.073289 
L 529.018797 385.539225 
L 529.84579 385.807534 
L 530.672783 385.800717 
L 531.499776 385.537193 
L 533.153761 385.343465 
L 533.980754 385.459872 
L 534.807747 385.27762 
L 535.63474 384.896918 
L 536.461733 384.91512 
L 540.596697 384.447738 
L 543.077676 384.647765 
L 543.904669 385.026009 
L 544.731662 384.779147 
L 545.558654 385.245408 
L 546.385647 385.249867 
L 547.21264 385.134246 
L 548.039633 384.899676 
L 553.00159 384.292433 
L 553.828583 384.523306 
L 554.655576 378.087238 
L 557.136555 378.536765 
L 558.79054 378.733861 
L 559.617533 378.567847 
L 560.444526 378.050943 
L 561.271519 378.34267 
L 562.098512 377.626593 
L 562.925505 383.88625 
L 563.752497 383.803231 
L 564.57949 384.025487 
L 566.233476 383.794137 
L 567.060469 383.848974 
L 567.887462 383.486001 
L 568.714455 384.073502 
L 570.36844 384.089979 
L 571.195433 383.718051 
L 572.022426 383.812743 
L 572.849419 383.720564 
L 573.676412 384.098783 
L 574.503405 383.831798 
L 575.330398 383.172526 
L 576.15739 383.980922 
L 577.811376 383.95296 
L 578.638369 384.670355 
L 579.465362 384.755331 
L 581.94634 383.462508 
L 582.773333 383.625694 
L 583.600326 381.122009 
L 584.427319 380.242329 
L 585.254312 379.796439 
L 586.908298 379.598824 
L 588.562283 379.767561 
L 589.389276 380.360533 
L 590.216269 379.668673 
L 591.043262 379.501359 
L 591.870255 382.606778 
L 592.697248 383.497883 
L 593.524241 383.678584 
L 594.351233 383.315803 
L 595.178226 382.732624 
L 596.005219 381.215429 
L 596.832212 381.568989 
L 597.659205 381.547772 
L 598.486198 382.690064 
L 599.313191 382.05885 
L 600.967176 381.041034 
L 601.794169 381.306372 
L 602.621162 381.148954 
L 603.448155 381.335561 
L 604.275148 383.140966 
L 605.102141 380.950076 
L 605.929134 381.000706 
L 606.756126 380.715412 
L 607.583119 381.152597 
L 608.410112 381.427795 
L 609.237105 381.931791 
L 610.064098 381.241196 
L 610.891091 381.486911 
L 611.718084 381.946629 
L 612.545076 378.541376 
L 613.372069 380.883275 
L 614.199062 380.391584 
L 615.026055 380.648354 
L 615.853048 381.094025 
L 616.680041 380.950236 
L 617.507034 380.683903 
L 618.334027 379.761455 
L 619.161019 380.104322 
L 619.988012 380.136038 
L 620.815005 382.427802 
L 621.641998 381.680229 
L 622.468991 381.898025 
L 623.295984 381.909565 
L 624.122977 381.16928 
L 624.949969 381.480788 
L 625.776962 381.407933 
L 626.603955 382.407833 
L 627.430948 382.08878 
L 628.257941 382.098247 
L 629.084934 381.94552 
L 629.911927 382.680525 
L 630.738919 382.921764 
L 631.565912 382.718035 
L 632.392905 382.948979 
L 633.219898 383.028258 
L 634.046891 383.316975 
L 634.873884 373.569735 
L 635.700877 373.894396 
L 636.52787 373.900327 
L 637.354862 374.515891 
L 638.181855 374.168768 
L 639.008848 373.179029 
L 639.835841 372.755857 
L 640.662834 373.318944 
L 641.489827 370.772284 
L 642.31682 370.302087 
L 643.143812 380.603234 
L 643.970805 380.452434 
L 644.797798 379.760569 
L 645.624791 376.388015 
L 646.451784 375.39496 
L 647.278777 376.161696 
L 648.10577 376.463265 
L 648.932762 375.30356 
L 649.759755 377.37979 
L 652.240734 377.567127 
L 653.067727 378.114397 
L 653.89472 381.194998 
L 654.721713 382.236383 
L 655.548705 381.797223 
L 656.375698 381.640762 
L 657.202691 382.274313 
L 658.029684 381.8513 
L 658.856677 382.318346 
L 659.68367 381.193679 
L 660.510663 378.867254 
L 661.337655 378.609599 
L 662.164648 378.586721 
L 662.991641 378.722369 
L 663.818634 379.215403 
L 664.645627 378.998032 
L 665.47262 377.885651 
L 666.299613 377.300197 
L 667.126606 377.092803 
L 667.953598 377.957157 
L 668.780591 380.28583 
L 669.607584 379.449104 
L 670.434577 376.138902 
L 672.088563 376.43135 
L 672.915556 377.070966 
L 673.742548 378.680339 
L 674.569541 379.967168 
L 675.396534 379.434358 
L 676.223527 379.66726 
L 677.05052 379.688304 
L 677.877513 380.535979 
L 678.704506 384.508193 
L 680.358491 384.57179 
L 681.185484 384.182028 
L 682.012477 382.560689 
L 682.83947 379.675178 
L 685.320449 379.337381 
L 686.147441 378.962056 
L 686.974434 379.200829 
L 688.62842 379.167406 
L 689.455413 379.599749 
L 690.282406 376.172863 
L 691.109399 379.240057 
L 691.936391 380.000234 
L 692.763384 380.190106 
L 693.590377 378.599686 
L 694.41737 378.255802 
L 695.244363 376.85784 
L 696.071356 374.420459 
L 697.725341 373.601476 
L 698.552334 378.378581 
L 699.379327 378.008661 
L 700.20632 377.488093 
L 701.033313 377.532102 
L 701.860306 378.377036 
L 702.687299 378.389508 
L 703.514292 379.546735 
L 704.341284 381.262834 
L 705.168277 381.614585 
L 705.99527 381.688639 
L 706.822263 381.994293 
L 707.649256 381.882579 
L 709.303242 381.096136 
L 710.130234 380.901547 
L 710.957227 381.931721 
L 711.78422 382.196163 
L 712.611213 382.831437 
L 713.438206 382.699948 
L 714.265199 383.000822 
L 715.092192 380.650971 
L 715.919185 380.868682 
L 716.746177 381.408109 
L 717.57317 380.086038 
L 718.400163 381.229487 
L 719.227156 380.872646 
L 720.054149 379.303478 
L 720.881142 377.36482 
L 721.708135 376.224841 
L 722.535127 376.352815 
L 723.36212 363.890426 
L 724.189113 360.912256 
L 725.016106 360.309689 
L 725.843099 361.683321 
L 726.670092 361.65077 
L 727.497085 362.089635 
L 728.324077 363.423045 
L 729.15107 364.968397 
L 729.978063 366.223017 
L 730.805056 357.240526 
L 731.632049 372.052515 
L 732.459042 370.03749 
L 733.286035 371.039944 
L 734.113028 371.330239 
L 734.94002 371.35383 
L 735.767013 370.920722 
L 736.594006 364.791325 
L 737.420999 365.231876 
L 738.247992 364.642545 
L 739.074985 373.303174 
L 739.901978 370.414149 
L 740.72897 373.166715 
L 741.555963 369.543269 
L 743.209949 369.607838 
L 744.036942 369.953976 
L 744.863935 376.124459 
L 745.690928 376.018166 
L 746.51792 376.175955 
L 747.344913 376.488396 
L 748.171906 379.224438 
L 748.998899 381.1655 
L 749.825892 383.959277 
L 750.652885 382.799881 
L 751.479878 382.71679 
L 753.133863 382.791157 
L 753.960856 382.972679 
L 755.614842 382.915426 
L 756.441835 382.43397 
L 757.268828 381.148492 
L 758.922813 381.970436 
L 759.749806 379.740992 
L 760.576799 378.404483 
L 761.403792 378.144993 
L 762.230785 377.014332 
L 763.057778 377.44067 
L 763.884771 377.427502 
L 764.711764 377.965483 
L 765.538756 377.458665 
L 766.365749 377.585611 
L 767.192742 378.297145 
L 768.019735 378.10129 
L 768.846728 379.170933 
L 769.673721 379.616214 
L 770.500714 379.806778 
L 771.327706 379.685964 
L 772.154699 377.664464 
L 772.981692 377.4156 
L 773.808685 379.796558 
L 774.635678 379.328957 
L 775.462671 379.365861 
L 776.289664 381.780466 
L 777.116656 380.214531 
L 777.943649 380.265164 
L 778.770642 381.201488 
L 779.597635 380.868336 
L 780.424628 382.654206 
L 781.251621 382.273181 
L 782.078614 382.179297 
L 782.905607 382.855877 
L 783.732599 379.993709 
L 784.559592 378.770511 
L 785.386585 380.661462 
L 786.213578 380.350084 
L 787.040571 380.351965 
L 787.867564 380.788624 
L 788.694557 381.036549 
L 789.521549 381.545665 
L 790.348542 380.680228 
L 791.175535 380.32282 
L 792.002528 381.574292 
L 792.829521 382.451192 
L 793.656514 381.456333 
L 794.483507 381.792633 
L 795.310499 380.404578 
L 796.137492 380.490036 
L 796.964485 380.422893 
L 797.791478 380.512364 
L 798.618471 379.504654 
L 799.445464 378.699688 
L 800.272457 380.221031 
L 801.926442 381.069038 
L 802.753435 381.080235 
L 803.580428 382.235618 
L 805.234414 382.266254 
L 806.061407 381.709467 
L 806.8884 383.303491 
L 807.715392 383.253225 
L 808.542385 383.348609 
L 809.369378 382.730377 
L 810.196371 382.956636 
L 811.023364 382.948235 
L 811.850357 383.178235 
L 813.504343 383.122255 
L 814.331335 383.473284 
L 815.158328 383.37894 
L 815.985321 384.652103 
L 816.812314 383.191844 
L 817.639307 383.68587 
L 818.4663 384.01149 
L 819.293293 382.847246 
L 820.120285 382.626829 
L 820.947278 382.596417 
L 821.774271 380.38665 
L 822.601264 380.578186 
L 824.25525 380.480102 
L 825.082243 381.993353 
L 825.909235 382.015356 
L 826.736228 381.365618 
L 827.563221 379.974479 
L 828.390214 373.501626 
L 829.217207 373.018352 
L 830.0442 375.124213 
L 830.871193 374.597991 
L 831.698186 373.882111 
L 833.352171 373.611198 
L 834.179164 364.859078 
L 835.006157 364.805452 
L 835.83315 367.016639 
L 836.660143 372.04681 
L 837.487136 372.236695 
L 838.314128 368.551824 
L 839.141121 369.009528 
L 839.968114 369.853959 
L 840.795107 368.965519 
L 841.6221 369.119674 
L 842.449093 377.954598 
L 843.276086 378.683179 
L 844.103078 377.554554 
L 844.930071 378.378136 
L 845.757064 377.547817 
L 846.584057 377.999081 
L 848.238043 378.154932 
L 849.065036 379.213816 
L 849.892029 378.857218 
L 850.719021 378.841934 
L 851.546014 378.592005 
L 852.373007 379.37752 
L 852.373007 379.37752 
" clip-path="url(#pa2244536d4)" style="fill: none; stroke-dasharray: 7.4,3.2; stroke-dashoffset: 0; stroke: #000000; stroke-width: 2"/>
   </g>
   <g id="patch_3">
    <path d="M 41.92 404.12 
L 41.92 10.8 
" style="fill: none; stroke: #000000; stroke-width: 0.8; stroke-linejoin: miter; stroke-linecap: square"/>
   </g>
   <g id="patch_4">
    <path d="M 853.2 404.12 
L 853.2 10.8 
" style="fill: none; stroke: #000000; stroke-width: 0.8; stroke-linejoin: miter; stroke-linecap: square"/>
   </g>
   <g id="patch_5">
    <path d="M 41.92 404.12 
L 853.2 404.12 
" style="fill: none; stroke: #000000; stroke-width: 0.8; stroke-linejoin: miter; stroke-linecap: square"/>
   </g>
   <g id="patch_6">
    <path d="M 41.92 10.8 
L 853.2 10.8 
" style="fill: none; stroke: #000000; stroke-width: 0.8; stroke-linejoin: miter; stroke-linecap: square"/>
   </g>
  </g>
 </g>
 <defs>
  <clipPath id="pa2244536d4">
   <rect x="41.92" y="10.8" width="811.28" height="393.32"/>
  </clipPath>
 </defs>
</svg>
