<?xml version="1.0" encoding="utf-8" standalone="no"?>
<!DOCTYPE svg PUBLIC "-//W3C//DTD SVG 1.1//EN"
  "http://www.w3.org/Graphics/SVG/1.1/DTD/svg11.dtd">
<svg xmlns:xlink="http://www.w3.org/1999/xlink" width="864pt" height="432pt" viewBox="0 0 864 432" xmlns="http://www.w3.org/2000/svg" version="1.1">
 <metadata>
  <rdf:RDF xmlns:dc="http://purl.org/dc/elements/1.1/" xmlns:cc="http://creativecommons.org/ns#" xmlns:rdf="http://www.w3.org/1999/02/22-rdf-syntax-ns#">
   <cc:Work>
    <dc:type rdf:resource="http://purl.org/dc/dcmitype/StillImage"/>
    <dc:date>2024-09-16T10:57:59.880940</dc:date>
    <dc:format>image/svg+xml</dc:format>
    <dc:creator>
     <cc:Agent>
      <dc:title>Matplotlib v3.9.2, https://matplotlib.org/</dc:title>
     </cc:Agent>
    </dc:creator>
   </cc:Work>
  </rdf:RDF>
 </metadata>
 <defs>
  <style type="text/css">*{stroke-linejoin: round; stroke-linecap: butt}</style>
 </defs>
 <g id="figure_1">
  <g id="patch_1">
   <path d="M 0 432 
L 864 432 
L 864 0 
L 0 0 
z
" style="fill: #ffffff"/>
  </g>
  <g id="axes_1">
   <g id="patch_2">
    <path d="M 41.92 404.12 
L 841.14 404.12 
L 841.14 10.8 
L 41.92 10.8 
z
" style="fill: #ffffff"/>
   </g>
   <g id="matplotlib.axis_1">
    <g id="xtick_1">
     <g id="line2d_1">
      <defs>
       <path id="m19d6c6789e" d="M 0 0 
L 0 3.5 
" style="stroke: #000000; stroke-width: 0.8"/>
      </defs>
      <g>
       <use xlink:href="#m19d6c6789e" x="195.305657" y="404.12" style="stroke: #000000; stroke-width: 0.8"/>
      </g>
     </g>
     <g id="text_1">
      <!-- 200 -->
      <g transform="translate(186.275188 418.771563) scale(0.1 -0.1)">
       <defs>
        <path id="DejaVuSansMono-32" d="M 1166 531 
L 3309 531 
L 3309 0 
L 475 0 
L 475 531 
Q 1059 1147 1496 1619 
Q 1934 2091 2100 2284 
Q 2413 2666 2522 2902 
Q 2631 3138 2631 3384 
Q 2631 3775 2401 3997 
Q 2172 4219 1772 4219 
Q 1488 4219 1175 4116 
Q 863 4013 513 3803 
L 513 4441 
Q 834 4594 1145 4672 
Q 1456 4750 1759 4750 
Q 2444 4750 2861 4386 
Q 3278 4022 3278 3431 
Q 3278 3131 3139 2831 
Q 3000 2531 2688 2169 
Q 2513 1966 2180 1606 
Q 1847 1247 1166 531 
z
" transform="scale(0.015625)"/>
        <path id="DejaVuSansMono-30" d="M 1509 2344 
Q 1509 2516 1629 2641 
Q 1750 2766 1919 2766 
Q 2094 2766 2219 2641 
Q 2344 2516 2344 2344 
Q 2344 2169 2220 2047 
Q 2097 1925 1919 1925 
Q 1744 1925 1626 2044 
Q 1509 2163 1509 2344 
z
M 1925 4250 
Q 1484 4250 1267 3775 
Q 1050 3300 1050 2328 
Q 1050 1359 1267 884 
Q 1484 409 1925 409 
Q 2369 409 2586 884 
Q 2803 1359 2803 2328 
Q 2803 3300 2586 3775 
Q 2369 4250 1925 4250 
z
M 1925 4750 
Q 2672 4750 3055 4137 
Q 3438 3525 3438 2328 
Q 3438 1134 3055 521 
Q 2672 -91 1925 -91 
Q 1178 -91 797 521 
Q 416 1134 416 2328 
Q 416 3525 797 4137 
Q 1178 4750 1925 4750 
z
" transform="scale(0.015625)"/>
       </defs>
       <use xlink:href="#DejaVuSansMono-32"/>
       <use xlink:href="#DejaVuSansMono-30" x="60.205078"/>
       <use xlink:href="#DejaVuSansMono-30" x="120.410156"/>
      </g>
     </g>
    </g>
    <g id="xtick_2">
     <g id="line2d_2">
      <g>
       <use xlink:href="#m19d6c6789e" x="356.764242" y="404.12" style="stroke: #000000; stroke-width: 0.8"/>
      </g>
     </g>
     <g id="text_2">
      <!-- 400 -->
      <g transform="translate(347.733774 418.771563) scale(0.1 -0.1)">
       <defs>
        <path id="DejaVuSansMono-34" d="M 2297 4091 
L 825 1625 
L 2297 1625 
L 2297 4091 
z
M 2194 4666 
L 2925 4666 
L 2925 1625 
L 3547 1625 
L 3547 1113 
L 2925 1113 
L 2925 0 
L 2297 0 
L 2297 1113 
L 319 1113 
L 319 1709 
L 2194 4666 
z
" transform="scale(0.015625)"/>
       </defs>
       <use xlink:href="#DejaVuSansMono-34"/>
       <use xlink:href="#DejaVuSansMono-30" x="60.205078"/>
       <use xlink:href="#DejaVuSansMono-30" x="120.410156"/>
      </g>
     </g>
    </g>
    <g id="xtick_3">
     <g id="line2d_3">
      <g>
       <use xlink:href="#m19d6c6789e" x="518.222828" y="404.12" style="stroke: #000000; stroke-width: 0.8"/>
      </g>
     </g>
     <g id="text_3">
      <!-- 600 -->
      <g transform="translate(509.19236 418.771563) scale(0.1 -0.1)">
       <defs>
        <path id="DejaVuSansMono-36" d="M 3097 4563 
L 3097 3981 
Q 2900 4097 2678 4158 
Q 2456 4219 2216 4219 
Q 1616 4219 1306 3767 
Q 997 3316 997 2438 
Q 1147 2750 1412 2917 
Q 1678 3084 2022 3084 
Q 2697 3084 3067 2670 
Q 3438 2256 3438 1497 
Q 3438 741 3056 325 
Q 2675 -91 1984 -91 
Q 1172 -91 794 492 
Q 416 1075 416 2328 
Q 416 3509 870 4129 
Q 1325 4750 2188 4750 
Q 2419 4750 2650 4701 
Q 2881 4653 3097 4563 
z
M 1972 2591 
Q 1569 2591 1337 2300 
Q 1106 2009 1106 1497 
Q 1106 984 1337 693 
Q 1569 403 1972 403 
Q 2391 403 2603 679 
Q 2816 956 2816 1497 
Q 2816 2041 2603 2316 
Q 2391 2591 1972 2591 
z
" transform="scale(0.015625)"/>
       </defs>
       <use xlink:href="#DejaVuSansMono-36"/>
       <use xlink:href="#DejaVuSansMono-30" x="60.205078"/>
       <use xlink:href="#DejaVuSansMono-30" x="120.410156"/>
      </g>
     </g>
    </g>
    <g id="xtick_4">
     <g id="line2d_4">
      <g>
       <use xlink:href="#m19d6c6789e" x="679.681414" y="404.12" style="stroke: #000000; stroke-width: 0.8"/>
      </g>
     </g>
     <g id="text_4">
      <!-- 800 -->
      <g transform="translate(670.650945 418.771563) scale(0.1 -0.1)">
       <defs>
        <path id="DejaVuSansMono-38" d="M 1925 2216 
Q 1503 2216 1273 1980 
Q 1044 1744 1044 1313 
Q 1044 881 1276 642 
Q 1509 403 1925 403 
Q 2350 403 2579 639 
Q 2809 875 2809 1313 
Q 2809 1741 2576 1978 
Q 2344 2216 1925 2216 
z
M 1375 2478 
Q 972 2581 745 2862 
Q 519 3144 519 3541 
Q 519 4097 897 4423 
Q 1275 4750 1925 4750 
Q 2578 4750 2956 4423 
Q 3334 4097 3334 3541 
Q 3334 3144 3107 2862 
Q 2881 2581 2478 2478 
Q 2947 2375 3195 2062 
Q 3444 1750 3444 1253 
Q 3444 622 3041 265 
Q 2638 -91 1925 -91 
Q 1213 -91 811 264 
Q 409 619 409 1247 
Q 409 1747 657 2061 
Q 906 2375 1375 2478 
z
M 1147 3481 
Q 1147 3106 1347 2909 
Q 1547 2713 1925 2713 
Q 2306 2713 2506 2909 
Q 2706 3106 2706 3481 
Q 2706 3863 2507 4063 
Q 2309 4263 1925 4263 
Q 1547 4263 1347 4061 
Q 1147 3859 1147 3481 
z
" transform="scale(0.015625)"/>
       </defs>
       <use xlink:href="#DejaVuSansMono-38"/>
       <use xlink:href="#DejaVuSansMono-30" x="60.205078"/>
       <use xlink:href="#DejaVuSansMono-30" x="120.410156"/>
      </g>
     </g>
    </g>
    <g id="xtick_5">
     <g id="line2d_5">
      <g>
       <use xlink:href="#m19d6c6789e" x="841.14" y="404.12" style="stroke: #000000; stroke-width: 0.8"/>
      </g>
     </g>
     <g id="text_5">
      <!-- 1000 -->
      <g transform="translate(829.099375 418.771563) scale(0.1 -0.1)">
       <defs>
        <path id="DejaVuSansMono-31" d="M 844 531 
L 1825 531 
L 1825 4097 
L 769 3859 
L 769 4434 
L 1819 4666 
L 2450 4666 
L 2450 531 
L 3419 531 
L 3419 0 
L 844 0 
L 844 531 
z
" transform="scale(0.015625)"/>
       </defs>
       <use xlink:href="#DejaVuSansMono-31"/>
       <use xlink:href="#DejaVuSansMono-30" x="60.205078"/>
       <use xlink:href="#DejaVuSansMono-30" x="120.410156"/>
       <use xlink:href="#DejaVuSansMono-30" x="180.615234"/>
      </g>
     </g>
    </g>
   </g>
   <g id="matplotlib.axis_2">
    <g id="ytick_1">
     <g id="line2d_6">
      <defs>
       <path id="mf4f8a7266d" d="M 0 0 
L -3.5 0 
" style="stroke: #000000; stroke-width: 0.8"/>
      </defs>
      <g>
       <use xlink:href="#mf4f8a7266d" x="41.92" y="323.148877" style="stroke: #000000; stroke-width: 0.8"/>
      </g>
     </g>
     <g id="text_6">
      <!-- 0.14 -->
      <g transform="translate(10.83875 326.974659) scale(0.1 -0.1)">
       <defs>
        <path id="DejaVuSansMono-2e" d="M 1528 953 
L 2316 953 
L 2316 0 
L 1528 0 
L 1528 953 
z
" transform="scale(0.015625)"/>
       </defs>
       <use xlink:href="#DejaVuSansMono-30"/>
       <use xlink:href="#DejaVuSansMono-2e" x="60.205078"/>
       <use xlink:href="#DejaVuSansMono-31" x="120.410156"/>
       <use xlink:href="#DejaVuSansMono-34" x="180.615234"/>
      </g>
     </g>
    </g>
    <g id="ytick_2">
     <g id="line2d_7">
      <g>
       <use xlink:href="#mf4f8a7266d" x="41.92" y="237.612612" style="stroke: #000000; stroke-width: 0.8"/>
      </g>
     </g>
     <g id="text_7">
      <!-- 0.15 -->
      <g transform="translate(10.83875 241.438394) scale(0.1 -0.1)">
       <defs>
        <path id="DejaVuSansMono-35" d="M 647 4666 
L 3009 4666 
L 3009 4134 
L 1222 4134 
L 1222 2988 
Q 1356 3038 1492 3061 
Q 1628 3084 1766 3084 
Q 2491 3084 2916 2656 
Q 3341 2228 3341 1497 
Q 3341 759 2895 334 
Q 2450 -91 1678 -91 
Q 1306 -91 998 -41 
Q 691 9 447 109 
L 447 750 
Q 734 594 1025 517 
Q 1316 441 1619 441 
Q 2141 441 2423 716 
Q 2706 991 2706 1497 
Q 2706 1997 2414 2275 
Q 2122 2553 1600 2553 
Q 1347 2553 1106 2495 
Q 866 2438 647 2322 
L 647 4666 
z
" transform="scale(0.015625)"/>
       </defs>
       <use xlink:href="#DejaVuSansMono-30"/>
       <use xlink:href="#DejaVuSansMono-2e" x="60.205078"/>
       <use xlink:href="#DejaVuSansMono-31" x="120.410156"/>
       <use xlink:href="#DejaVuSansMono-35" x="180.615234"/>
      </g>
     </g>
    </g>
    <g id="ytick_3">
     <g id="line2d_8">
      <g>
       <use xlink:href="#mf4f8a7266d" x="41.92" y="152.076347" style="stroke: #000000; stroke-width: 0.8"/>
      </g>
     </g>
     <g id="text_8">
      <!-- 0.16 -->
      <g transform="translate(10.83875 155.902128) scale(0.1 -0.1)">
       <use xlink:href="#DejaVuSansMono-30"/>
       <use xlink:href="#DejaVuSansMono-2e" x="60.205078"/>
       <use xlink:href="#DejaVuSansMono-31" x="120.410156"/>
       <use xlink:href="#DejaVuSansMono-36" x="180.615234"/>
      </g>
     </g>
    </g>
    <g id="ytick_4">
     <g id="line2d_9">
      <g>
       <use xlink:href="#mf4f8a7266d" x="41.92" y="66.540082" style="stroke: #000000; stroke-width: 0.8"/>
      </g>
     </g>
     <g id="text_9">
      <!-- 0.17 -->
      <g transform="translate(10.83875 70.365863) scale(0.1 -0.1)">
       <defs>
        <path id="DejaVuSansMono-37" d="M 434 4666 
L 3372 4666 
L 3372 4397 
L 1703 0 
L 1044 0 
L 2669 4134 
L 434 4134 
L 434 4666 
z
" transform="scale(0.015625)"/>
       </defs>
       <use xlink:href="#DejaVuSansMono-30"/>
       <use xlink:href="#DejaVuSansMono-2e" x="60.205078"/>
       <use xlink:href="#DejaVuSansMono-31" x="120.410156"/>
       <use xlink:href="#DejaVuSansMono-37" x="180.615234"/>
      </g>
     </g>
    </g>
   </g>
   <g id="line2d_10">
    <path d="M 33.847071 67.498054 
L 34.654364 54.314566 
L 35.461657 87.339739 
L 36.268949 90.391534 
L 37.076242 95.489333 
L 38.690828 124.606431 
L 39.498121 128.766102 
L 40.305414 172.55942 
L 41.112707 186.377743 
L 41.92 182.320897 
L 42.727293 163.977499 
L 43.534586 178.7747 
L 44.341879 177.498344 
L 45.149172 152.996861 
L 45.956465 166.235846 
L 46.763758 192.165537 
L 47.571051 192.908544 
L 48.378343 185.983489 
L 49.185636 182.770984 
L 49.992929 190.381793 
L 50.800222 189.026808 
L 51.607515 165.700608 
L 52.414808 180.834547 
L 53.222101 175.492132 
L 54.029394 172.968677 
L 54.836687 179.185358 
L 55.64398 177.934407 
L 56.451273 164.673708 
L 57.258566 168.137758 
L 58.065859 162.384775 
L 58.873152 163.82788 
L 59.680444 184.748939 
L 60.487737 170.285857 
L 61.29503 169.524562 
L 62.102323 165.641317 
L 62.909616 168.740442 
L 63.716909 183.238483 
L 64.524202 192.754128 
L 65.331495 163.572449 
L 66.138788 150.063942 
L 66.946081 142.118997 
L 68.560667 130.841533 
L 69.36796 132.912711 
L 70.175253 126.489133 
L 70.982545 128.031399 
L 71.789838 126.366693 
L 72.597131 117.880939 
L 73.404424 118.86364 
L 74.211717 118.742999 
L 75.01901 129.136936 
L 75.826303 113.965583 
L 76.633596 110.185437 
L 77.440889 109.929893 
L 78.248182 121.66258 
L 79.055475 123.596658 
L 79.862768 109.180619 
L 80.670061 101.812107 
L 81.477354 58.243875 
L 82.284646 28.678182 
L 83.091939 45.999132 
L 83.899232 37.198276 
L 84.706525 42.341586 
L 85.513818 88.609298 
L 86.321111 85.842498 
L 87.128404 62.101006 
L 87.935697 58.106254 
L 88.74299 63.133115 
L 89.550283 63.498744 
L 90.357576 64.830089 
L 91.164869 62.242697 
L 91.972162 69.585443 
L 92.779455 54.946924 
L 93.586747 60.064124 
L 94.39404 56.539835 
L 95.201333 55.411209 
L 96.008626 56.405922 
L 96.815919 56.614337 
L 97.623212 47.002889 
L 98.430505 46.792648 
L 99.237798 30.053224 
L 100.045091 32.563284 
L 100.852384 50.185275 
L 101.659677 48.409627 
L 102.46697 49.833175 
L 103.274263 45.021567 
L 104.081556 43.489137 
L 104.888848 42.417577 
L 105.696141 69.489392 
L 106.503434 83.724096 
L 107.310727 101.22472 
L 108.11802 105.379311 
L 108.925313 113.747293 
L 109.732606 113.030862 
L 110.539899 119.669701 
L 111.347192 104.59145 
L 112.154485 106.529637 
L 112.961778 103.216487 
L 113.769071 103.660187 
L 114.576364 102.423573 
L 115.383657 103.889025 
L 116.190949 117.853042 
L 116.998242 104.463437 
L 117.805535 103.362362 
L 118.612828 103.479103 
L 119.420121 101.451703 
L 120.227414 116.446775 
L 121.034707 124.40414 
L 121.842 155.11094 
L 122.649293 159.998405 
L 123.456586 155.019073 
L 124.263879 166.082131 
L 125.071172 165.710576 
L 125.878465 170.236977 
L 126.685758 154.970837 
L 127.493051 180.320618 
L 128.300343 184.242874 
L 129.107636 191.021027 
L 129.914929 190.242288 
L 130.722222 197.015458 
L 131.529515 197.558609 
L 132.336808 213.75161 
L 133.144101 225.802313 
L 133.951394 225.652793 
L 134.758687 226.733398 
L 135.56598 223.424545 
L 136.373273 222.283971 
L 137.987859 242.158085 
L 138.795152 248.95076 
L 139.602444 260.638177 
L 140.409737 259.40325 
L 141.21703 254.06737 
L 142.024323 255.435369 
L 142.831616 257.995841 
L 143.638909 252.803604 
L 144.446202 254.844914 
L 145.253495 252.715123 
L 146.060788 251.456043 
L 146.868081 257.842589 
L 147.675374 257.902873 
L 148.482667 258.49453 
L 149.28996 260.012846 
L 150.097253 266.023439 
L 150.904545 266.821559 
L 151.711838 283.457659 
L 152.519131 286.139458 
L 153.326424 294.260124 
L 154.133717 300.772015 
L 154.94101 302.173717 
L 155.748303 301.913464 
L 156.555596 296.430536 
L 157.362889 312.68821 
L 158.170182 311.528433 
L 158.977475 312.030463 
L 159.784768 313.639524 
L 160.592061 299.653706 
L 161.399354 299.293899 
L 162.206646 309.657672 
L 163.013939 331.170332 
L 163.821232 323.54593 
L 164.628525 323.740802 
L 165.435818 318.569645 
L 166.243111 319.655073 
L 167.050404 323.260951 
L 167.857697 311.778756 
L 168.66499 311.560572 
L 169.472283 310.635645 
L 170.279576 314.229239 
L 171.086869 316.37879 
L 171.894162 306.67634 
L 172.701455 307.144379 
L 173.508747 309.90523 
L 174.31604 310.392198 
L 175.123333 310.608177 
L 175.930626 315.237238 
L 176.737919 305.447191 
L 177.545212 292.598736 
L 178.352505 293.666726 
L 179.159798 289.585398 
L 179.967091 279.734128 
L 180.774384 277.956493 
L 181.581677 281.884223 
L 182.38897 281.954769 
L 183.196263 271.979952 
L 184.003556 279.701544 
L 184.810848 279.770119 
L 185.618141 280.371466 
L 186.425434 283.387629 
L 187.232727 282.69023 
L 188.04002 256.897168 
L 188.847313 236.2667 
L 189.654606 199.222485 
L 190.461899 203.125837 
L 191.269192 201.015663 
L 192.076485 202.611386 
L 192.883778 199.657982 
L 193.691071 173.614587 
L 194.498364 173.02105 
L 195.305657 165.602125 
L 196.112949 162.868079 
L 196.920242 153.494486 
L 197.727535 154.314658 
L 198.534828 151.032358 
L 199.342121 144.232918 
L 200.149414 143.250774 
L 200.956707 152.26301 
L 201.764 153.804057 
L 202.571293 153.232095 
L 203.378586 154.935444 
L 204.185879 151.196349 
L 204.993172 152.485802 
L 205.800465 158.356952 
L 206.607758 157.782953 
L 207.415051 164.409104 
L 208.222343 146.830468 
L 209.029636 142.499523 
L 209.836929 143.31329 
L 210.644222 135.520583 
L 211.451515 136.104049 
L 212.258808 147.239889 
L 213.066101 147.174941 
L 213.873394 145.624432 
L 214.680687 145.907616 
L 215.48798 148.717982 
L 216.295273 147.174832 
L 217.102566 159.490338 
L 217.909859 181.857395 
L 218.717152 181.669181 
L 219.524444 181.029218 
L 220.331737 150.250765 
L 221.13903 146.461808 
L 221.946323 143.872232 
L 222.753616 142.580058 
L 223.560909 130.814754 
L 224.368202 127.668281 
L 225.175495 117.72866 
L 225.982788 118.80316 
L 226.790081 119.490803 
L 227.597374 121.984631 
L 228.404667 142.173397 
L 229.21196 150.257908 
L 230.019253 187.618442 
L 230.826545 183.382789 
L 232.441131 168.321695 
L 233.248424 165.407353 
L 234.055717 173.68148 
L 234.86301 173.845769 
L 235.670303 181.042295 
L 236.477596 184.139948 
L 237.284889 192.550048 
L 238.092182 191.117619 
L 238.899475 193.162892 
L 239.706768 199.724395 
L 240.514061 199.675206 
L 241.321354 203.432218 
L 242.128646 203.944206 
L 242.935939 187.885977 
L 243.743232 188.598707 
L 244.550525 202.927239 
L 245.357818 194.599599 
L 246.165111 194.452271 
L 246.972404 190.386184 
L 247.779697 195.620427 
L 248.58699 218.083242 
L 249.394283 221.141347 
L 250.201576 221.041808 
L 251.008869 228.975392 
L 251.816162 225.209298 
L 252.623455 226.399271 
L 253.430747 226.675418 
L 254.23804 227.163262 
L 255.045333 224.862731 
L 255.852626 206.909503 
L 256.659919 208.387988 
L 257.467212 211.854795 
L 258.274505 208.803829 
L 259.889091 197.2966 
L 260.696384 239.840515 
L 261.503677 247.02768 
L 262.31097 251.608253 
L 263.118263 234.74847 
L 263.925556 237.720765 
L 264.732848 238.462994 
L 265.540141 247.867411 
L 266.347434 244.619352 
L 267.154727 245.648747 
L 267.96202 242.113993 
L 268.769313 244.799864 
L 269.576606 258.234502 
L 270.383899 247.395393 
L 271.191192 253.79202 
L 271.998485 256.310329 
L 272.805778 259.360022 
L 273.613071 265.109045 
L 274.420364 284.929452 
L 275.227657 285.208123 
L 276.034949 285.108481 
L 276.842242 286.458507 
L 277.649535 281.741615 
L 278.456828 282.861381 
L 279.264121 287.162667 
L 280.071414 285.576425 
L 280.878707 285.815941 
L 281.686 280.713317 
L 282.493293 280.443133 
L 283.300586 295.05725 
L 284.915172 300.313575 
L 285.722465 307.793469 
L 286.529758 305.678739 
L 287.337051 302.958653 
L 288.144343 305.048246 
L 288.951636 312.028006 
L 289.758929 309.833601 
L 290.566222 310.229499 
L 291.373515 309.430747 
L 292.180808 313.109039 
L 292.988101 312.163763 
L 293.795394 309.202046 
L 294.602687 309.477516 
L 295.40998 311.84428 
L 296.217273 331.902084 
L 297.024566 330.105189 
L 297.831859 330.064283 
L 298.639152 331.773929 
L 299.446444 337.545308 
L 300.253737 346.556152 
L 301.06103 351.216284 
L 301.868323 344.866524 
L 302.675616 337.607543 
L 304.290202 374.085304 
L 305.097495 355.347738 
L 305.904788 351.601798 
L 306.712081 356.679425 
L 307.519374 356.636808 
L 309.13396 362.283832 
L 309.941253 359.435948 
L 310.748545 345.314996 
L 311.555838 344.155191 
L 312.363131 344.543176 
L 313.170424 347.366007 
L 313.977717 347.065548 
L 314.78501 345.351013 
L 315.592303 344.844544 
L 316.399596 342.766525 
L 317.206889 332.902335 
L 318.014182 337.797223 
L 318.821475 331.929282 
L 319.628768 330.421769 
L 320.436061 324.762364 
L 321.243354 324.392998 
L 322.050646 330.272457 
L 322.857939 329.840133 
L 323.665232 334.942188 
L 324.472525 315.444379 
L 325.279818 300.874717 
L 326.087111 299.885989 
L 326.894404 299.770764 
L 327.701697 307.378782 
L 328.50899 285.83502 
L 329.316283 279.732751 
L 330.123576 272.749904 
L 330.930869 253.535731 
L 332.545455 246.864016 
L 333.352747 246.803445 
L 334.16004 244.885825 
L 334.967333 237.717822 
L 335.774626 223.276105 
L 336.581919 218.176853 
L 337.389212 216.468676 
L 338.196505 216.45583 
L 339.003798 199.542226 
L 339.811091 199.486385 
L 340.618384 195.313174 
L 341.425677 191.798035 
L 342.23297 198.292904 
L 343.040263 201.555576 
L 343.847556 173.435395 
L 344.654848 164.713335 
L 345.462141 182.40116 
L 346.269434 186.585903 
L 347.076727 182.789886 
L 347.88402 172.411969 
L 348.691313 170.613575 
L 349.498606 162.983478 
L 350.305899 165.928413 
L 351.113192 189.845961 
L 351.920485 190.840969 
L 352.727778 179.608694 
L 353.535071 166.125822 
L 354.342364 166.630014 
L 355.149657 159.399328 
L 355.956949 160.210946 
L 356.764242 142.758945 
L 358.378828 152.760734 
L 359.186121 159.073641 
L 359.993414 150.629668 
L 360.800707 145.389335 
L 361.608 142.304892 
L 362.415293 132.352303 
L 363.222586 129.148039 
L 364.029879 119.179945 
L 364.837172 141.590971 
L 365.644465 156.266623 
L 366.451758 142.828696 
L 367.259051 141.643536 
L 368.066343 138.803511 
L 368.873636 155.009215 
L 369.680929 154.689696 
L 370.488222 156.961524 
L 371.295515 161.634252 
L 372.102808 155.197732 
L 372.910101 154.625413 
L 373.717394 156.519922 
L 374.524687 161.161352 
L 375.33198 168.804761 
L 376.139273 183.175318 
L 376.946566 188.271435 
L 377.753859 187.593358 
L 378.561152 173.050091 
L 379.368444 187.591194 
L 380.175737 187.532435 
L 380.98303 193.681833 
L 381.790323 197.836523 
L 382.597616 197.201399 
L 383.404909 200.202295 
L 384.212202 225.825848 
L 385.019495 230.701595 
L 385.826788 236.376813 
L 386.634081 236.141476 
L 387.441374 239.758854 
L 388.248667 248.418368 
L 389.05596 250.803294 
L 389.863253 247.684972 
L 390.670545 242.350242 
L 391.477838 228.560293 
L 392.285131 228.047843 
L 393.092424 246.167137 
L 393.899717 260.848716 
L 394.70701 259.800502 
L 395.514303 259.982603 
L 396.321596 248.334722 
L 397.128889 268.058359 
L 397.936182 271.068962 
L 398.743475 272.701616 
L 399.550768 270.944427 
L 400.358061 279.230927 
L 401.165354 281.473415 
L 401.972646 278.106979 
L 402.779939 275.494804 
L 403.587232 277.669399 
L 404.394525 282.610874 
L 406.009111 282.548752 
L 406.816404 298.052471 
L 407.623697 300.701026 
L 408.43099 300.996287 
L 410.045576 311.957668 
L 410.852869 320.205697 
L 411.660162 333.564421 
L 412.467455 343.349242 
L 413.274747 339.540264 
L 414.08204 339.80201 
L 414.889333 326.315784 
L 415.696626 319.025972 
L 416.503919 317.660443 
L 417.311212 318.298774 
L 418.118505 319.113176 
L 418.925798 333.712309 
L 419.733091 336.208168 
L 420.540384 336.222596 
L 421.347677 333.346005 
L 422.15497 332.681563 
L 422.962263 327.873563 
L 423.769556 325.412889 
L 424.576848 329.76134 
L 425.384141 333.050054 
L 426.191434 320.702371 
L 426.998727 320.459215 
L 427.80602 319.790085 
L 428.613313 307.642723 
L 429.420606 299.613195 
L 430.227899 309.900123 
L 431.035192 315.079096 
L 431.842485 329.821307 
L 432.649778 327.552796 
L 434.264364 317.381276 
L 435.071657 309.169447 
L 435.878949 319.570575 
L 436.686242 328.426519 
L 437.493535 328.341743 
L 438.300828 321.848596 
L 439.108121 313.600013 
L 439.915414 301.847769 
L 440.722707 285.617297 
L 441.53 290.531661 
L 442.337293 298.538548 
L 443.144586 311.304082 
L 443.951879 302.487075 
L 444.759172 298.208262 
L 445.566465 273.743378 
L 446.373758 267.509994 
L 447.181051 266.441514 
L 447.988343 266.967994 
L 448.795636 261.772476 
L 449.602929 254.438068 
L 450.410222 234.30157 
L 451.217515 232.459149 
L 452.024808 231.372393 
L 452.832101 232.564372 
L 453.639394 240.297801 
L 454.446687 233.366757 
L 455.25398 247.105548 
L 456.061273 241.307657 
L 456.868566 231.672067 
L 457.675859 226.418644 
L 458.483152 227.260641 
L 459.290444 227.124682 
L 460.097737 228.005012 
L 460.90503 227.098661 
L 461.712323 225.05945 
L 462.519616 223.949293 
L 463.326909 225.993872 
L 464.134202 223.90715 
L 464.941495 219.505125 
L 465.748788 218.693958 
L 466.556081 228.493177 
L 467.363374 228.3383 
L 468.170667 229.175977 
L 468.97796 242.183641 
L 469.785253 246.641998 
L 470.592545 240.54677 
L 471.399838 240.574945 
L 472.207131 238.598955 
L 473.014424 239.826074 
L 473.821717 243.500915 
L 474.62901 248.487224 
L 475.436303 257.347054 
L 476.243596 257.295391 
L 477.050889 259.929576 
L 477.858182 258.895743 
L 478.665475 260.953675 
L 479.472768 267.400289 
L 480.280061 277.370211 
L 481.087354 290.759003 
L 481.894646 294.715783 
L 483.509232 291.319999 
L 484.316525 290.389722 
L 485.123818 295.449669 
L 485.931111 319.984646 
L 486.738404 324.607741 
L 487.545697 324.811726 
L 488.35299 325.150856 
L 489.160283 330.778758 
L 489.967576 337.773109 
L 490.774869 353.114363 
L 491.582162 354.88043 
L 492.389455 354.673944 
L 493.196747 320.286605 
L 494.00404 320.293906 
L 494.811333 325.554548 
L 495.618626 325.510547 
L 497.233212 347.439834 
L 498.040505 349.761333 
L 498.847798 332.233319 
L 499.655091 321.733293 
L 500.462384 315.125214 
L 501.269677 315.67264 
L 502.07697 318.765764 
L 502.884263 317.043237 
L 503.691556 316.283816 
L 504.498848 321.664853 
L 505.306141 325.674177 
L 506.113434 322.972947 
L 506.920727 320.724273 
L 507.72802 316.714846 
L 508.535313 316.928742 
L 509.342606 313.7499 
L 510.149899 304.568516 
L 510.957192 311.589017 
L 511.764485 305.238065 
L 512.571778 307.295098 
L 513.379071 308.973558 
L 514.993657 292.994532 
L 515.800949 290.482431 
L 517.415535 290.833265 
L 518.222828 292.04619 
L 519.030121 294.765932 
L 519.837414 289.541886 
L 520.644707 275.366361 
L 521.452 267.118976 
L 522.259293 268.760224 
L 523.066586 269.875945 
L 523.873879 267.518357 
L 524.681172 273.062429 
L 525.488465 274.064586 
L 526.295758 273.896521 
L 527.103051 269.966811 
L 527.910343 266.854673 
L 528.717636 265.621587 
L 529.524929 265.6614 
L 530.332222 263.407654 
L 531.139515 255.743128 
L 531.946808 249.61164 
L 532.754101 250.925566 
L 533.561394 282.99462 
L 534.368687 272.13477 
L 535.17598 274.130255 
L 535.983273 267.405502 
L 536.790566 268.587337 
L 537.597859 259.637495 
L 538.405152 262.261108 
L 539.212444 282.24817 
L 540.019737 292.55387 
L 540.82703 284.789483 
L 541.634323 281.726399 
L 542.441616 281.290066 
L 543.248909 284.37118 
L 544.056202 288.61885 
L 544.863495 282.183335 
L 545.670788 270.594905 
L 546.478081 273.837909 
L 547.285374 278.501579 
L 548.092667 277.437906 
L 548.89996 274.842985 
L 549.707253 270.913775 
L 550.514545 283.356596 
L 551.321838 280.81331 
L 552.129131 287.257428 
L 552.936424 287.284597 
L 553.743717 284.013175 
L 555.358303 296.721451 
L 556.165596 298.830555 
L 556.972889 298.751207 
L 557.780182 296.128027 
L 558.587475 296.204665 
L 559.394768 298.569503 
L 560.202061 297.665719 
L 561.009354 313.778628 
L 561.816646 325.868047 
L 562.623939 325.384898 
L 563.431232 323.884893 
L 564.238525 327.904436 
L 565.045818 333.738075 
L 565.853111 332.374415 
L 566.660404 330.189997 
L 567.467697 329.317431 
L 568.27499 333.072751 
L 569.082283 334.160741 
L 569.889576 328.882558 
L 570.696869 330.744626 
L 571.504162 343.732132 
L 572.311455 339.830228 
L 573.118747 340.907056 
L 573.92604 333.954309 
L 574.733333 339.10873 
L 575.540626 338.301596 
L 576.347919 344.95029 
L 577.155212 344.202934 
L 577.962505 352.483724 
L 578.769798 352.055701 
L 580.384384 351.800426 
L 581.191677 347.135262 
L 581.99897 346.624144 
L 582.806263 347.260748 
L 583.613556 343.456403 
L 584.420848 338.647662 
L 585.228141 345.046678 
L 586.035434 358.339751 
L 586.842727 352.059312 
L 587.65002 352.199473 
L 588.457313 352.527731 
L 589.264606 355.04801 
L 590.071899 359.82947 
L 590.879192 351.051688 
L 591.686485 344.021562 
L 592.493778 343.345535 
L 593.301071 339.098602 
L 594.915657 344.342316 
L 595.722949 335.854444 
L 596.530242 335.393432 
L 597.337535 334.503406 
L 598.144828 336.076834 
L 598.952121 332.034408 
L 599.759414 333.403784 
L 600.566707 338.06688 
L 601.374 338.411052 
L 602.181293 331.71614 
L 602.988586 332.50433 
L 604.603172 322.532412 
L 605.410465 322.738071 
L 606.217758 325.433568 
L 607.025051 327.30438 
L 607.832343 333.822149 
L 608.639636 330.015361 
L 609.446929 324.414699 
L 610.254222 329.658134 
L 611.061515 328.366088 
L 611.868808 328.886838 
L 612.676101 339.083404 
L 613.483394 337.629381 
L 615.09798 349.035178 
L 615.905273 345.90827 
L 616.712566 345.146492 
L 617.519859 346.304828 
L 618.327152 340.440158 
L 619.134444 338.129647 
L 619.941737 324.900659 
L 620.74903 323.172348 
L 621.556323 339.721472 
L 622.363616 343.722934 
L 623.170909 344.389728 
L 623.978202 346.356555 
L 624.785495 349.32744 
L 625.592788 348.669879 
L 626.400081 345.900461 
L 627.207374 352.667571 
L 628.014667 345.231286 
L 628.82196 350.097916 
L 629.629253 347.529696 
L 630.436545 350.687717 
L 632.051131 368.080813 
L 632.858424 368.612174 
L 633.665717 372.192855 
L 634.47301 365.861428 
L 635.280303 366.000874 
L 636.087596 361.051512 
L 637.702182 362.73257 
L 638.509475 356.399848 
L 639.316768 360.319767 
L 640.124061 358.902948 
L 640.931354 361.508469 
L 641.738646 348.319171 
L 642.545939 353.082603 
L 643.353232 349.561251 
L 644.160525 342.053454 
L 644.967818 346.45631 
L 645.775111 344.912841 
L 646.582404 340.103358 
L 647.389697 336.454542 
L 648.19699 336.111006 
L 649.811576 344.333028 
L 650.618869 346.005907 
L 651.426162 348.559478 
L 652.233455 345.708179 
L 653.040747 345.656262 
L 653.84804 345.039037 
L 654.655333 344.991337 
L 655.462626 342.750306 
L 656.269919 333.186716 
L 657.077212 333.764232 
L 657.884505 332.972762 
L 658.691798 340.062078 
L 659.499091 332.690338 
L 660.306384 340.758761 
L 661.92097 344.976259 
L 662.728263 343.880104 
L 664.342848 327.509817 
L 665.150141 329.428301 
L 665.957434 329.896866 
L 666.764727 329.926974 
L 667.57202 328.819682 
L 668.379313 322.627399 
L 669.186606 309.488742 
L 669.993899 307.299563 
L 670.801192 304.541437 
L 671.608485 293.485978 
L 672.415778 287.425189 
L 673.223071 273.498636 
L 674.030364 273.208059 
L 674.837657 275.626804 
L 675.644949 275.074503 
L 676.452242 288.830242 
L 677.259535 284.597605 
L 678.066828 265.162038 
L 678.874121 272.544441 
L 680.488707 255.689104 
L 681.296 254.107836 
L 682.103293 261.595285 
L 683.717879 259.741446 
L 684.525172 271.542672 
L 685.332465 272.350372 
L 686.139758 273.688709 
L 686.947051 270.212587 
L 687.754343 272.736963 
L 688.561636 272.687811 
L 689.368929 271.527558 
L 690.176222 268.614379 
L 690.983515 268.994271 
L 691.790808 260.953746 
L 692.598101 257.200278 
L 693.405394 256.542011 
L 694.212687 255.196238 
L 695.01998 253.440524 
L 695.827273 255.151134 
L 696.634566 267.129667 
L 697.441859 256.665705 
L 698.249152 255.707901 
L 699.056444 251.950637 
L 699.863737 250.151442 
L 700.67103 255.478408 
L 701.478323 253.876499 
L 702.285616 251.675344 
L 703.092909 248.780429 
L 703.900202 256.101453 
L 704.707495 259.395707 
L 705.514788 257.894477 
L 706.322081 257.683401 
L 707.129374 251.011523 
L 707.936667 251.850764 
L 709.551253 276.88963 
L 710.358545 279.818158 
L 711.165838 282.211991 
L 711.973131 283.200224 
L 712.780424 286.180186 
L 713.587717 298.363964 
L 714.39501 297.752523 
L 715.202303 298.666026 
L 716.009596 293.797577 
L 716.816889 292.922938 
L 717.624182 294.279927 
L 718.431475 312.632555 
L 719.238768 309.329826 
L 720.046061 315.947546 
L 720.853354 324.867688 
L 721.660646 325.809791 
L 722.467939 325.324726 
L 723.275232 325.648902 
L 724.082525 327.485869 
L 724.889818 323.360407 
L 725.697111 322.847006 
L 726.504404 318.754528 
L 727.311697 328.981661 
L 728.11899 324.079451 
L 728.926283 324.209365 
L 729.733576 316.979831 
L 730.540869 321.302169 
L 731.348162 313.752216 
L 732.155455 303.386488 
L 732.962747 310.213814 
L 733.77004 308.877938 
L 734.577333 310.843034 
L 735.384626 316.173743 
L 736.191919 311.541531 
L 736.999212 313.234697 
L 737.806505 322.612738 
L 739.421091 324.729818 
L 740.228384 336.625611 
L 741.035677 336.389716 
L 741.84297 337.762411 
L 742.650263 335.306654 
L 743.457556 339.293074 
L 744.264848 340.761872 
L 745.879434 340.187336 
L 746.686727 337.697643 
L 747.49402 347.182525 
L 748.301313 339.476419 
L 749.108606 340.234874 
L 749.915899 340.788102 
L 750.723192 336.095999 
L 751.530485 336.520419 
L 752.337778 347.160508 
L 753.145071 350.941569 
L 753.952364 348.969279 
L 754.759657 350.155804 
L 755.566949 351.069603 
L 756.374242 355.800059 
L 757.181535 357.439869 
L 757.988828 358.259787 
L 758.796121 358.785969 
L 759.603414 357.586452 
L 760.410707 359.105502 
L 761.218 359.763408 
L 762.025293 356.113136 
L 762.832586 362.031737 
L 763.639879 364.710072 
L 764.447172 366.570995 
L 765.254465 367.491321 
L 766.061758 363.465337 
L 766.869051 367.725126 
L 767.676343 366.991945 
L 768.483636 372.577885 
L 769.290929 372.157894 
L 770.098222 378.99152 
L 770.905515 378.466316 
L 771.712808 382.739995 
L 772.520101 386.241818 
L 773.327394 385.891685 
L 774.134687 379.890786 
L 774.94198 375.376562 
L 775.749273 373.48115 
L 776.556566 377.450296 
L 777.363859 377.240942 
L 778.171152 377.497571 
L 778.978444 378.242997 
L 779.785737 378.724149 
L 780.59303 377.89243 
L 781.400323 372.026815 
L 782.207616 367.655579 
L 783.014909 372.601745 
L 783.822202 372.681757 
L 784.629495 372.565433 
L 785.436788 365.58837 
L 786.244081 367.44812 
L 787.051374 370.397714 
L 787.858667 362.681952 
L 788.66596 370.442701 
L 789.473253 370.422486 
L 790.280545 370.211527 
L 791.087838 369.513806 
L 791.895131 365.141159 
L 792.702424 357.083945 
L 793.509717 356.829034 
L 794.31701 360.046463 
L 795.124303 354.234052 
L 795.931596 356.888748 
L 796.738889 355.48294 
L 797.546182 356.352541 
L 798.353475 358.442974 
L 799.160768 357.986225 
L 799.968061 353.957068 
L 800.775354 347.242636 
L 800.775354 347.242636 
" clip-path="url(#pa5ca301b7b)" style="fill: none; stroke-dasharray: 7.4,3.2; stroke-dashoffset: 0; stroke: #000000; stroke-width: 2"/>
   </g>
   <g id="patch_3">
    <path d="M 41.92 404.12 
L 41.92 10.8 
" style="fill: none; stroke: #000000; stroke-width: 0.8; stroke-linejoin: miter; stroke-linecap: square"/>
   </g>
   <g id="patch_4">
    <path d="M 841.14 404.12 
L 841.14 10.8 
" style="fill: none; stroke: #000000; stroke-width: 0.8; stroke-linejoin: miter; stroke-linecap: square"/>
   </g>
   <g id="patch_5">
    <path d="M 41.92 404.12 
L 841.14 404.12 
" style="fill: none; stroke: #000000; stroke-width: 0.8; stroke-linejoin: miter; stroke-linecap: square"/>
   </g>
   <g id="patch_6">
    <path d="M 41.92 10.8 
L 841.14 10.8 
" style="fill: none; stroke: #000000; stroke-width: 0.8; stroke-linejoin: miter; stroke-linecap: square"/>
   </g>
  </g>
 </g>
 <defs>
  <clipPath id="pa5ca301b7b">
   <rect x="41.92" y="10.8" width="799.22" height="393.32"/>
  </clipPath>
 </defs>
</svg>
