<?xml version="1.0" encoding="utf-8" standalone="no"?>
<!DOCTYPE svg PUBLIC "-//W3C//DTD SVG 1.1//EN"
  "http://www.w3.org/Graphics/SVG/1.1/DTD/svg11.dtd">
<svg xmlns:xlink="http://www.w3.org/1999/xlink" width="864pt" height="432pt" viewBox="0 0 864 432" xmlns="http://www.w3.org/2000/svg" version="1.1">
 <metadata>
  <rdf:RDF xmlns:dc="http://purl.org/dc/elements/1.1/" xmlns:cc="http://creativecommons.org/ns#" xmlns:rdf="http://www.w3.org/1999/02/22-rdf-syntax-ns#">
   <cc:Work>
    <dc:type rdf:resource="http://purl.org/dc/dcmitype/StillImage"/>
    <dc:date>2024-09-19T17:13:56.114400</dc:date>
    <dc:format>image/svg+xml</dc:format>
    <dc:creator>
     <cc:Agent>
      <dc:title>Matplotlib v3.9.2, https://matplotlib.org/</dc:title>
     </cc:Agent>
    </dc:creator>
   </cc:Work>
  </rdf:RDF>
 </metadata>
 <defs>
  <style type="text/css">*{stroke-linejoin: round; stroke-linecap: butt}</style>
 </defs>
 <g id="figure_1">
  <g id="patch_1">
   <path d="M 0 432 
L 864 432 
L 864 0 
L 0 0 
z
" style="fill: #ffffff"/>
  </g>
  <g id="axes_1">
   <g id="patch_2">
    <path d="M 35.89 404.12 
L 853.2 404.12 
L 853.2 10.8 
L 35.89 10.8 
z
" style="fill: #ffffff"/>
   </g>
   <g id="matplotlib.axis_1">
    <g id="xtick_1">
     <g id="line2d_1">
      <defs>
       <path id="mf196f43450" d="M 0 0 
L 0 3.5 
" style="stroke: #000000; stroke-width: 0.8"/>
      </defs>
      <g>
       <use xlink:href="#mf196f43450" x="121.696824" y="404.12" style="stroke: #000000; stroke-width: 0.8"/>
      </g>
     </g>
     <g id="text_1">
      <!-- 50 -->
      <g transform="translate(115.676512 418.771563) scale(0.1 -0.1)">
       <defs>
        <path id="DejaVuSansMono-35" d="M 647 4666 
L 3009 4666 
L 3009 4134 
L 1222 4134 
L 1222 2988 
Q 1356 3038 1492 3061 
Q 1628 3084 1766 3084 
Q 2491 3084 2916 2656 
Q 3341 2228 3341 1497 
Q 3341 759 2895 334 
Q 2450 -91 1678 -91 
Q 1306 -91 998 -41 
Q 691 9 447 109 
L 447 750 
Q 734 594 1025 517 
Q 1316 441 1619 441 
Q 2141 441 2423 716 
Q 2706 991 2706 1497 
Q 2706 1997 2414 2275 
Q 2122 2553 1600 2553 
Q 1347 2553 1106 2495 
Q 866 2438 647 2322 
L 647 4666 
z
" transform="scale(0.015625)"/>
        <path id="DejaVuSansMono-30" d="M 1509 2344 
Q 1509 2516 1629 2641 
Q 1750 2766 1919 2766 
Q 2094 2766 2219 2641 
Q 2344 2516 2344 2344 
Q 2344 2169 2220 2047 
Q 2097 1925 1919 1925 
Q 1744 1925 1626 2044 
Q 1509 2163 1509 2344 
z
M 1925 4250 
Q 1484 4250 1267 3775 
Q 1050 3300 1050 2328 
Q 1050 1359 1267 884 
Q 1484 409 1925 409 
Q 2369 409 2586 884 
Q 2803 1359 2803 2328 
Q 2803 3300 2586 3775 
Q 2369 4250 1925 4250 
z
M 1925 4750 
Q 2672 4750 3055 4137 
Q 3438 3525 3438 2328 
Q 3438 1134 3055 521 
Q 2672 -91 1925 -91 
Q 1178 -91 797 521 
Q 416 1134 416 2328 
Q 416 3525 797 4137 
Q 1178 4750 1925 4750 
z
" transform="scale(0.015625)"/>
       </defs>
       <use xlink:href="#DejaVuSansMono-35"/>
       <use xlink:href="#DejaVuSansMono-30" x="60.205078"/>
      </g>
     </g>
    </g>
    <g id="xtick_2">
     <g id="line2d_2">
      <g>
       <use xlink:href="#mf196f43450" x="228.955354" y="404.12" style="stroke: #000000; stroke-width: 0.8"/>
      </g>
     </g>
     <g id="text_2">
      <!-- 100 -->
      <g transform="translate(219.924886 418.771563) scale(0.1 -0.1)">
       <defs>
        <path id="DejaVuSansMono-31" d="M 844 531 
L 1825 531 
L 1825 4097 
L 769 3859 
L 769 4434 
L 1819 4666 
L 2450 4666 
L 2450 531 
L 3419 531 
L 3419 0 
L 844 0 
L 844 531 
z
" transform="scale(0.015625)"/>
       </defs>
       <use xlink:href="#DejaVuSansMono-31"/>
       <use xlink:href="#DejaVuSansMono-30" x="60.205078"/>
       <use xlink:href="#DejaVuSansMono-30" x="120.410156"/>
      </g>
     </g>
    </g>
    <g id="xtick_3">
     <g id="line2d_3">
      <g>
       <use xlink:href="#mf196f43450" x="336.213885" y="404.12" style="stroke: #000000; stroke-width: 0.8"/>
      </g>
     </g>
     <g id="text_3">
      <!-- 150 -->
      <g transform="translate(327.183416 418.771563) scale(0.1 -0.1)">
       <use xlink:href="#DejaVuSansMono-31"/>
       <use xlink:href="#DejaVuSansMono-35" x="60.205078"/>
       <use xlink:href="#DejaVuSansMono-30" x="120.410156"/>
      </g>
     </g>
    </g>
    <g id="xtick_4">
     <g id="line2d_4">
      <g>
       <use xlink:href="#mf196f43450" x="443.472415" y="404.12" style="stroke: #000000; stroke-width: 0.8"/>
      </g>
     </g>
     <g id="text_4">
      <!-- 200 -->
      <g transform="translate(434.441946 418.771563) scale(0.1 -0.1)">
       <defs>
        <path id="DejaVuSansMono-32" d="M 1166 531 
L 3309 531 
L 3309 0 
L 475 0 
L 475 531 
Q 1059 1147 1496 1619 
Q 1934 2091 2100 2284 
Q 2413 2666 2522 2902 
Q 2631 3138 2631 3384 
Q 2631 3775 2401 3997 
Q 2172 4219 1772 4219 
Q 1488 4219 1175 4116 
Q 863 4013 513 3803 
L 513 4441 
Q 834 4594 1145 4672 
Q 1456 4750 1759 4750 
Q 2444 4750 2861 4386 
Q 3278 4022 3278 3431 
Q 3278 3131 3139 2831 
Q 3000 2531 2688 2169 
Q 2513 1966 2180 1606 
Q 1847 1247 1166 531 
z
" transform="scale(0.015625)"/>
       </defs>
       <use xlink:href="#DejaVuSansMono-32"/>
       <use xlink:href="#DejaVuSansMono-30" x="60.205078"/>
       <use xlink:href="#DejaVuSansMono-30" x="120.410156"/>
      </g>
     </g>
    </g>
    <g id="xtick_5">
     <g id="line2d_5">
      <g>
       <use xlink:href="#mf196f43450" x="550.730945" y="404.12" style="stroke: #000000; stroke-width: 0.8"/>
      </g>
     </g>
     <g id="text_5">
      <!-- 250 -->
      <g transform="translate(541.700476 418.771563) scale(0.1 -0.1)">
       <use xlink:href="#DejaVuSansMono-32"/>
       <use xlink:href="#DejaVuSansMono-35" x="60.205078"/>
       <use xlink:href="#DejaVuSansMono-30" x="120.410156"/>
      </g>
     </g>
    </g>
    <g id="xtick_6">
     <g id="line2d_6">
      <g>
       <use xlink:href="#mf196f43450" x="657.989475" y="404.12" style="stroke: #000000; stroke-width: 0.8"/>
      </g>
     </g>
     <g id="text_6">
      <!-- 300 -->
      <g transform="translate(648.959006 418.771563) scale(0.1 -0.1)">
       <defs>
        <path id="DejaVuSansMono-33" d="M 2425 2497 
Q 2884 2375 3128 2064 
Q 3372 1753 3372 1288 
Q 3372 644 2939 276 
Q 2506 -91 1741 -91 
Q 1419 -91 1084 -31 
Q 750 28 428 141 
L 428 769 
Q 747 603 1056 522 
Q 1366 441 1672 441 
Q 2191 441 2469 675 
Q 2747 909 2747 1350 
Q 2747 1756 2469 1995 
Q 2191 2234 1716 2234 
L 1234 2234 
L 1234 2753 
L 1716 2753 
Q 2150 2753 2394 2943 
Q 2638 3134 2638 3475 
Q 2638 3834 2411 4026 
Q 2184 4219 1766 4219 
Q 1488 4219 1191 4156 
Q 894 4094 569 3969 
L 569 4550 
Q 947 4650 1242 4700 
Q 1538 4750 1766 4750 
Q 2447 4750 2855 4408 
Q 3263 4066 3263 3500 
Q 3263 3116 3048 2859 
Q 2834 2603 2425 2497 
z
" transform="scale(0.015625)"/>
       </defs>
       <use xlink:href="#DejaVuSansMono-33"/>
       <use xlink:href="#DejaVuSansMono-30" x="60.205078"/>
       <use xlink:href="#DejaVuSansMono-30" x="120.410156"/>
      </g>
     </g>
    </g>
    <g id="xtick_7">
     <g id="line2d_7">
      <g>
       <use xlink:href="#mf196f43450" x="765.248005" y="404.12" style="stroke: #000000; stroke-width: 0.8"/>
      </g>
     </g>
     <g id="text_7">
      <!-- 350 -->
      <g transform="translate(756.217536 418.771563) scale(0.1 -0.1)">
       <use xlink:href="#DejaVuSansMono-33"/>
       <use xlink:href="#DejaVuSansMono-35" x="60.205078"/>
       <use xlink:href="#DejaVuSansMono-30" x="120.410156"/>
      </g>
     </g>
    </g>
   </g>
   <g id="matplotlib.axis_2">
    <g id="ytick_1">
     <g id="line2d_8">
      <defs>
       <path id="m702dd442e7" d="M 0 0 
L -3.5 0 
" style="stroke: #000000; stroke-width: 0.8"/>
      </defs>
      <g>
       <use xlink:href="#m702dd442e7" x="35.89" y="389.402537" style="stroke: #000000; stroke-width: 0.8"/>
      </g>
     </g>
     <g id="text_8">
      <!-- 0.0 -->
      <g transform="translate(10.829063 393.228318) scale(0.1 -0.1)">
       <defs>
        <path id="DejaVuSansMono-2e" d="M 1528 953 
L 2316 953 
L 2316 0 
L 1528 0 
L 1528 953 
z
" transform="scale(0.015625)"/>
       </defs>
       <use xlink:href="#DejaVuSansMono-30"/>
       <use xlink:href="#DejaVuSansMono-2e" x="60.205078"/>
       <use xlink:href="#DejaVuSansMono-30" x="120.410156"/>
      </g>
     </g>
    </g>
    <g id="ytick_2">
     <g id="line2d_9">
      <g>
       <use xlink:href="#m702dd442e7" x="35.89" y="333.036378" style="stroke: #000000; stroke-width: 0.8"/>
      </g>
     </g>
     <g id="text_9">
      <!-- 0.1 -->
      <g transform="translate(10.829063 336.862159) scale(0.1 -0.1)">
       <use xlink:href="#DejaVuSansMono-30"/>
       <use xlink:href="#DejaVuSansMono-2e" x="60.205078"/>
       <use xlink:href="#DejaVuSansMono-31" x="120.410156"/>
      </g>
     </g>
    </g>
    <g id="ytick_3">
     <g id="line2d_10">
      <g>
       <use xlink:href="#m702dd442e7" x="35.89" y="276.670219" style="stroke: #000000; stroke-width: 0.8"/>
      </g>
     </g>
     <g id="text_10">
      <!-- 0.2 -->
      <g transform="translate(10.829063 280.496001) scale(0.1 -0.1)">
       <use xlink:href="#DejaVuSansMono-30"/>
       <use xlink:href="#DejaVuSansMono-2e" x="60.205078"/>
       <use xlink:href="#DejaVuSansMono-32" x="120.410156"/>
      </g>
     </g>
    </g>
    <g id="ytick_4">
     <g id="line2d_11">
      <g>
       <use xlink:href="#m702dd442e7" x="35.89" y="220.304061" style="stroke: #000000; stroke-width: 0.8"/>
      </g>
     </g>
     <g id="text_11">
      <!-- 0.3 -->
      <g transform="translate(10.829063 224.129842) scale(0.1 -0.1)">
       <use xlink:href="#DejaVuSansMono-30"/>
       <use xlink:href="#DejaVuSansMono-2e" x="60.205078"/>
       <use xlink:href="#DejaVuSansMono-33" x="120.410156"/>
      </g>
     </g>
    </g>
    <g id="ytick_5">
     <g id="line2d_12">
      <g>
       <use xlink:href="#m702dd442e7" x="35.89" y="163.937902" style="stroke: #000000; stroke-width: 0.8"/>
      </g>
     </g>
     <g id="text_12">
      <!-- 0.4 -->
      <g transform="translate(10.829063 167.763683) scale(0.1 -0.1)">
       <defs>
        <path id="DejaVuSansMono-34" d="M 2297 4091 
L 825 1625 
L 2297 1625 
L 2297 4091 
z
M 2194 4666 
L 2925 4666 
L 2925 1625 
L 3547 1625 
L 3547 1113 
L 2925 1113 
L 2925 0 
L 2297 0 
L 2297 1113 
L 319 1113 
L 319 1709 
L 2194 4666 
z
" transform="scale(0.015625)"/>
       </defs>
       <use xlink:href="#DejaVuSansMono-30"/>
       <use xlink:href="#DejaVuSansMono-2e" x="60.205078"/>
       <use xlink:href="#DejaVuSansMono-34" x="120.410156"/>
      </g>
     </g>
    </g>
    <g id="ytick_6">
     <g id="line2d_13">
      <g>
       <use xlink:href="#m702dd442e7" x="35.89" y="107.571743" style="stroke: #000000; stroke-width: 0.8"/>
      </g>
     </g>
     <g id="text_13">
      <!-- 0.5 -->
      <g transform="translate(10.829063 111.397524) scale(0.1 -0.1)">
       <use xlink:href="#DejaVuSansMono-30"/>
       <use xlink:href="#DejaVuSansMono-2e" x="60.205078"/>
       <use xlink:href="#DejaVuSansMono-35" x="120.410156"/>
      </g>
     </g>
    </g>
    <g id="ytick_7">
     <g id="line2d_14">
      <g>
       <use xlink:href="#m702dd442e7" x="35.89" y="51.205584" style="stroke: #000000; stroke-width: 0.8"/>
      </g>
     </g>
     <g id="text_14">
      <!-- 0.6 -->
      <g transform="translate(10.829063 55.031366) scale(0.1 -0.1)">
       <defs>
        <path id="DejaVuSansMono-36" d="M 3097 4563 
L 3097 3981 
Q 2900 4097 2678 4158 
Q 2456 4219 2216 4219 
Q 1616 4219 1306 3767 
Q 997 3316 997 2438 
Q 1147 2750 1412 2917 
Q 1678 3084 2022 3084 
Q 2697 3084 3067 2670 
Q 3438 2256 3438 1497 
Q 3438 741 3056 325 
Q 2675 -91 1984 -91 
Q 1172 -91 794 492 
Q 416 1075 416 2328 
Q 416 3509 870 4129 
Q 1325 4750 2188 4750 
Q 2419 4750 2650 4701 
Q 2881 4653 3097 4563 
z
M 1972 2591 
Q 1569 2591 1337 2300 
Q 1106 2009 1106 1497 
Q 1106 984 1337 693 
Q 1569 403 1972 403 
Q 2391 403 2603 679 
Q 2816 956 2816 1497 
Q 2816 2041 2603 2316 
Q 2391 2591 1972 2591 
z
" transform="scale(0.015625)"/>
       </defs>
       <use xlink:href="#DejaVuSansMono-30"/>
       <use xlink:href="#DejaVuSansMono-2e" x="60.205078"/>
       <use xlink:href="#DejaVuSansMono-36" x="120.410156"/>
      </g>
     </g>
    </g>
   </g>
   <g id="line2d_15">
    <path d="M 14.438294 285.645958 
L 16.583465 282.282567 
L 18.728635 294.897125 
L 20.873806 299.594305 
L 23.018976 298.054029 
L 25.164147 298.054029 
L 27.309318 297.808949 
L 29.454488 312.124163 
L 31.599659 313.390818 
L 33.744829 317.00094 
L 35.89 316.934685 
L 38.035171 317.169887 
L 40.180341 303.814795 
L 42.325512 303.814795 
L 44.470682 320.18827 
L 46.615853 320.18827 
L 48.761024 327.613752 
L 53.051365 327.613752 
L 57.341706 353.509141 
L 61.632047 386.241818 
L 63.777218 386.241818 
L 65.922388 385.103108 
L 68.067559 385.103108 
L 70.21273 369.949681 
L 76.648241 320.714672 
L 78.793412 323.875391 
L 83.083753 323.875391 
L 85.228924 308.229268 
L 87.374094 309.367978 
L 89.519265 292.994503 
L 91.664436 294.318315 
L 93.809606 298.846726 
L 95.954777 315.334786 
L 98.099948 327.991811 
L 100.245118 327.991811 
L 102.390289 311.559643 
L 104.535459 300.949542 
L 106.68063 300.436733 
L 108.825801 283.526885 
L 110.970971 283.526885 
L 113.116142 294.957941 
L 115.261312 302.338358 
L 117.406483 302.338358 
L 119.551654 294.076999 
L 121.696824 277.835901 
L 123.841995 278.270577 
L 125.987165 272.507203 
L 128.132336 272.670333 
L 130.277507 273.206707 
L 132.422677 289.580181 
L 134.567848 289.528038 
L 136.713018 293.992684 
L 138.858189 293.992684 
L 141.00336 289.597018 
L 143.14853 291.465868 
L 147.438871 291.358744 
L 151.729213 323.728021 
L 153.874383 323.728021 
L 156.019554 326.178724 
L 158.164724 310.448632 
L 162.455066 310.366214 
L 164.600236 308.364988 
L 166.745407 309.066574 
L 171.035748 309.066574 
L 173.180919 306.789153 
L 177.47126 306.789153 
L 179.61643 322.519245 
L 181.761601 322.519245 
L 186.051942 355.348612 
L 188.197113 354.933073 
L 190.342283 371.306548 
L 192.487454 371.306548 
L 194.632625 373.583968 
L 196.777795 358.62423 
L 201.068136 358.62423 
L 203.213307 340.546888 
L 207.503648 340.546888 
L 209.648819 356.365457 
L 211.79399 356.365457 
L 213.93916 339.991982 
L 216.084331 339.991982 
L 218.229501 354.95172 
L 222.519843 354.95172 
L 224.665013 356.655588 
L 228.955354 356.655588 
L 233.245696 323.853785 
L 235.390866 340.227259 
L 239.681207 340.227259 
L 243.971549 307.48031 
L 246.116719 323.853785 
L 250.40706 323.853785 
L 252.552231 340.227259 
L 254.697402 342.161433 
L 263.278084 342.205444 
L 265.423255 358.578918 
L 267.568425 342.205444 
L 274.003937 342.205444 
L 276.149108 356.699598 
L 278.294278 340.326123 
L 282.584619 340.326123 
L 284.72979 342.168957 
L 286.874961 342.168957 
L 289.020131 358.542432 
L 291.165302 358.542432 
L 293.310472 356.16912 
L 295.455643 339.795645 
L 297.600814 339.795645 
L 299.745984 340.246475 
L 304.036325 306.2761 
L 306.181496 320.76273 
L 312.617008 320.76273 
L 314.762178 308.232446 
L 316.907349 324.605921 
L 319.05252 324.605921 
L 323.342861 357.139419 
L 325.488031 374.498941 
L 327.633202 370.323671 
L 329.778373 354.396809 
L 334.068714 354.396809 
L 336.213885 368.075053 
L 338.359055 368.075053 
L 340.504226 363.975697 
L 344.794567 363.975697 
L 346.939738 347.602222 
L 349.084908 351.777493 
L 351.230079 367.704354 
L 355.52042 367.704354 
L 357.665591 368.929705 
L 359.810761 352.556231 
L 361.955932 354.231237 
L 364.101102 337.857762 
L 366.246273 337.857762 
L 368.391444 354.231237 
L 379.117297 354.231237 
L 381.262467 370.604711 
L 383.407638 373.029062 
L 385.552808 372.914477 
L 398.423832 372.914477 
L 400.569003 357.514966 
L 404.859344 357.514966 
L 407.004514 357.629552 
L 417.730367 357.629552 
L 419.875538 355.230992 
L 422.020709 370.630502 
L 424.165879 370.630502 
L 426.31105 369.363847 
L 428.45622 385.737322 
L 430.601391 385.737322 
L 432.746562 370.437935 
L 441.327244 370.463183 
L 443.472415 354.089708 
L 449.907927 354.117547 
L 452.053097 348.365898 
L 454.198268 362.398629 
L 458.488609 362.398629 
L 460.63378 361.11758 
L 462.77895 353.334828 
L 464.924121 360.484749 
L 467.069291 345.753848 
L 469.214462 345.711615 
L 471.359633 342.035562 
L 473.504803 331.079014 
L 475.649974 321.562578 
L 477.795144 315.751634 
L 479.940315 304.911988 
L 482.085486 301.291632 
L 484.230656 301.402242 
L 486.375827 302.405731 
L 488.520997 314.631469 
L 490.666168 306.983227 
L 492.811339 309.378231 
L 494.956509 309.712953 
L 497.10168 319.214996 
L 499.24685 325.02594 
L 501.392021 335.865585 
L 503.537192 327.91155 
L 505.682362 337.957004 
L 507.827533 331.599616 
L 509.972703 316.908322 
L 512.117874 323.413263 
L 514.263045 308.314403 
L 516.408215 310.721041 
L 520.698556 280.530538 
L 522.843727 262.636519 
L 524.988898 254.124395 
L 527.134068 235.185366 
L 529.279239 232.419386 
L 531.424409 232.951066 
L 533.56958 228.402284 
L 535.714751 240.035568 
L 537.859921 252.721356 
L 540.005092 257.17122 
L 542.150262 267.367893 
L 544.295433 269.522668 
L 546.440604 279.775778 
L 548.585774 297.433758 
L 550.730945 299.440817 
L 552.876115 316.105593 
L 555.021286 308.730977 
L 557.166457 308.576196 
L 559.311627 293.365343 
L 561.456798 293.131547 
L 563.601969 281.659478 
L 565.747139 281.885099 
L 567.89231 280.11586 
L 570.03748 273.176844 
L 572.182651 273.279121 
L 574.327822 268.323854 
L 576.472992 277.770198 
L 578.618163 266.868009 
L 580.763333 267.846288 
L 582.908504 280.003695 
L 585.053675 277.323819 
L 587.198845 292.837441 
L 589.344016 289.616516 
L 591.489186 284.70272 
L 593.634357 285.568975 
L 595.779528 279.137139 
L 597.924698 267.128696 
L 600.069869 272.579323 
L 602.215039 270.615066 
L 604.36021 265.659799 
L 606.505381 275.694565 
L 608.650551 268.574629 
L 610.795722 266.721885 
L 612.940892 268.910862 
L 615.086063 274.076068 
L 617.231234 269.089696 
L 619.376404 268.199703 
L 621.521575 260.400857 
L 623.666745 264.87116 
L 625.811916 248.17585 
L 627.957087 237.450359 
L 630.102257 224.196984 
L 632.247428 224.661398 
L 634.392598 217.454468 
L 636.537769 208.554106 
L 638.68294 204.55427 
L 640.82811 204.354833 
L 642.973281 202.163974 
L 645.118451 197.214188 
L 647.263622 200.384056 
L 649.408793 201.776361 
L 651.553963 203.360951 
L 653.699134 200.357113 
L 655.844304 199.588818 
L 657.989475 197.113695 
L 660.134646 197.387444 
L 662.279816 203.883424 
L 664.424987 208.56883 
L 666.570157 212.29784 
L 668.715328 210.716018 
L 670.860499 210.121181 
L 673.005669 207.358134 
L 675.15084 206.426463 
L 677.29601 202.022645 
L 679.441181 203.984424 
L 681.586352 203.416396 
L 683.731522 192.559565 
L 685.876693 187.982826 
L 688.021864 181.444697 
L 690.167034 180.740749 
L 692.312205 178.669468 
L 694.457375 176.959012 
L 696.602546 174.348959 
L 698.747717 174.291369 
L 700.892887 167.427121 
L 703.038058 165.379991 
L 705.183228 163.638729 
L 707.328399 159.591928 
L 709.47357 156.0776 
L 713.763911 150.853199 
L 715.909081 150.090504 
L 718.054252 150.643117 
L 720.199423 148.137954 
L 722.344593 150.874308 
L 724.489764 151.228899 
L 726.634934 149.422864 
L 728.780105 148.741515 
L 730.925276 147.205761 
L 733.070446 143.778368 
L 735.215617 141.09755 
L 737.360787 140.173512 
L 739.505958 140.509024 
L 741.651129 142.370785 
L 743.796299 140.958099 
L 745.94147 137.014019 
L 748.08664 137.465761 
L 750.231811 136.66053 
L 752.376982 136.002077 
L 754.522152 136.490093 
L 756.667323 135.3882 
L 758.812493 132.372552 
L 760.957664 128.863269 
L 763.102835 125.58036 
L 765.248005 123.989777 
L 767.393176 123.421749 
L 769.538346 121.070129 
L 771.683517 117.392509 
L 773.828688 115.263801 
L 775.973858 113.433731 
L 778.119029 112.194915 
L 780.264199 111.529091 
L 782.40937 107.867654 
L 784.554541 105.334573 
L 786.699711 103.361018 
L 788.844882 99.015078 
L 793.135223 93.840636 
L 795.280394 92.325038 
L 797.425564 91.496123 
L 799.570735 87.436754 
L 801.715906 84.711172 
L 803.861076 83.235982 
L 806.006247 82.909088 
L 808.151417 77.901412 
L 810.296588 76.807784 
L 812.441759 72.807753 
L 814.586929 71.774089 
L 816.7321 67.616691 
L 818.87727 62.467376 
L 821.022441 58.401022 
L 823.167612 55.247138 
L 825.312782 51.318406 
L 827.457953 46.25736 
L 829.603123 44.848846 
L 831.748294 41.475601 
L 833.893465 40.236536 
L 836.038635 37.307364 
L 838.183806 34.567501 
L 840.328976 33.499961 
L 842.474147 34.47899 
L 844.619318 33.513679 
L 846.764488 33.032706 
L 848.909659 32.118368 
L 851.054829 28.678182 
L 851.054829 28.678182 
" clip-path="url(#pde6fa1a9c2)" style="fill: none; stroke-dasharray: 7.4,3.2; stroke-dashoffset: 0; stroke: #000000; stroke-width: 2"/>
   </g>
   <g id="patch_3">
    <path d="M 35.89 404.12 
L 35.89 10.8 
" style="fill: none; stroke: #000000; stroke-width: 0.8; stroke-linejoin: miter; stroke-linecap: square"/>
   </g>
   <g id="patch_4">
    <path d="M 853.2 404.12 
L 853.2 10.8 
" style="fill: none; stroke: #000000; stroke-width: 0.8; stroke-linejoin: miter; stroke-linecap: square"/>
   </g>
   <g id="patch_5">
    <path d="M 35.89 404.12 
L 853.2 404.12 
" style="fill: none; stroke: #000000; stroke-width: 0.8; stroke-linejoin: miter; stroke-linecap: square"/>
   </g>
   <g id="patch_6">
    <path d="M 35.89 10.8 
L 853.2 10.8 
" style="fill: none; stroke: #000000; stroke-width: 0.8; stroke-linejoin: miter; stroke-linecap: square"/>
   </g>
  </g>
 </g>
 <defs>
  <clipPath id="pde6fa1a9c2">
   <rect x="35.89" y="10.8" width="817.31" height="393.32"/>
  </clipPath>
 </defs>
</svg>
