<?xml version="1.0" encoding="utf-8" standalone="no"?>
<!DOCTYPE svg PUBLIC "-//W3C//DTD SVG 1.1//EN"
  "http://www.w3.org/Graphics/SVG/1.1/DTD/svg11.dtd">
<svg xmlns:xlink="http://www.w3.org/1999/xlink" width="864pt" height="432pt" viewBox="0 0 864 432" xmlns="http://www.w3.org/2000/svg" version="1.1">
 <metadata>
  <rdf:RDF xmlns:dc="http://purl.org/dc/elements/1.1/" xmlns:cc="http://creativecommons.org/ns#" xmlns:rdf="http://www.w3.org/1999/02/22-rdf-syntax-ns#">
   <cc:Work>
    <dc:type rdf:resource="http://purl.org/dc/dcmitype/StillImage"/>
    <dc:date>2024-09-18T14:08:46.075944</dc:date>
    <dc:format>image/svg+xml</dc:format>
    <dc:creator>
     <cc:Agent>
      <dc:title>Matplotlib v3.9.2, https://matplotlib.org/</dc:title>
     </cc:Agent>
    </dc:creator>
   </cc:Work>
  </rdf:RDF>
 </metadata>
 <defs>
  <style type="text/css">*{stroke-linejoin: round; stroke-linecap: butt}</style>
 </defs>
 <g id="figure_1">
  <g id="patch_1">
   <path d="M 0 432 
L 864 432 
L 864 0 
L 0 0 
z
" style="fill: #ffffff"/>
  </g>
  <g id="axes_1">
   <g id="patch_2">
    <path d="M 41.92 404.12 
L 853.2 404.12 
L 853.2 10.8 
L 41.92 10.8 
z
" style="fill: #ffffff"/>
   </g>
   <g id="matplotlib.axis_1">
    <g id="xtick_1">
     <g id="line2d_1">
      <defs>
       <path id="m8a6e9e3693" d="M 0 0 
L 0 3.5 
" style="stroke: #000000; stroke-width: 0.8"/>
      </defs>
      <g>
       <use xlink:href="#m8a6e9e3693" x="199.048644" y="404.12" style="stroke: #000000; stroke-width: 0.8"/>
      </g>
     </g>
     <g id="text_1">
      <!-- 200 -->
      <g transform="translate(190.018175 418.771563) scale(0.1 -0.1)">
       <defs>
        <path id="DejaVuSansMono-32" d="M 1166 531 
L 3309 531 
L 3309 0 
L 475 0 
L 475 531 
Q 1059 1147 1496 1619 
Q 1934 2091 2100 2284 
Q 2413 2666 2522 2902 
Q 2631 3138 2631 3384 
Q 2631 3775 2401 3997 
Q 2172 4219 1772 4219 
Q 1488 4219 1175 4116 
Q 863 4013 513 3803 
L 513 4441 
Q 834 4594 1145 4672 
Q 1456 4750 1759 4750 
Q 2444 4750 2861 4386 
Q 3278 4022 3278 3431 
Q 3278 3131 3139 2831 
Q 3000 2531 2688 2169 
Q 2513 1966 2180 1606 
Q 1847 1247 1166 531 
z
" transform="scale(0.015625)"/>
        <path id="DejaVuSansMono-30" d="M 1509 2344 
Q 1509 2516 1629 2641 
Q 1750 2766 1919 2766 
Q 2094 2766 2219 2641 
Q 2344 2516 2344 2344 
Q 2344 2169 2220 2047 
Q 2097 1925 1919 1925 
Q 1744 1925 1626 2044 
Q 1509 2163 1509 2344 
z
M 1925 4250 
Q 1484 4250 1267 3775 
Q 1050 3300 1050 2328 
Q 1050 1359 1267 884 
Q 1484 409 1925 409 
Q 2369 409 2586 884 
Q 2803 1359 2803 2328 
Q 2803 3300 2586 3775 
Q 2369 4250 1925 4250 
z
M 1925 4750 
Q 2672 4750 3055 4137 
Q 3438 3525 3438 2328 
Q 3438 1134 3055 521 
Q 2672 -91 1925 -91 
Q 1178 -91 797 521 
Q 416 1134 416 2328 
Q 416 3525 797 4137 
Q 1178 4750 1925 4750 
z
" transform="scale(0.015625)"/>
       </defs>
       <use xlink:href="#DejaVuSansMono-32"/>
       <use xlink:href="#DejaVuSansMono-30" x="60.205078"/>
       <use xlink:href="#DejaVuSansMono-30" x="120.410156"/>
      </g>
     </g>
    </g>
    <g id="xtick_2">
     <g id="line2d_2">
      <g>
       <use xlink:href="#m8a6e9e3693" x="364.447217" y="404.12" style="stroke: #000000; stroke-width: 0.8"/>
      </g>
     </g>
     <g id="text_2">
      <!-- 400 -->
      <g transform="translate(355.416748 418.771563) scale(0.1 -0.1)">
       <defs>
        <path id="DejaVuSansMono-34" d="M 2297 4091 
L 825 1625 
L 2297 1625 
L 2297 4091 
z
M 2194 4666 
L 2925 4666 
L 2925 1625 
L 3547 1625 
L 3547 1113 
L 2925 1113 
L 2925 0 
L 2297 0 
L 2297 1113 
L 319 1113 
L 319 1709 
L 2194 4666 
z
" transform="scale(0.015625)"/>
       </defs>
       <use xlink:href="#DejaVuSansMono-34"/>
       <use xlink:href="#DejaVuSansMono-30" x="60.205078"/>
       <use xlink:href="#DejaVuSansMono-30" x="120.410156"/>
      </g>
     </g>
    </g>
    <g id="xtick_3">
     <g id="line2d_3">
      <g>
       <use xlink:href="#m8a6e9e3693" x="529.84579" y="404.12" style="stroke: #000000; stroke-width: 0.8"/>
      </g>
     </g>
     <g id="text_3">
      <!-- 600 -->
      <g transform="translate(520.815321 418.771563) scale(0.1 -0.1)">
       <defs>
        <path id="DejaVuSansMono-36" d="M 3097 4563 
L 3097 3981 
Q 2900 4097 2678 4158 
Q 2456 4219 2216 4219 
Q 1616 4219 1306 3767 
Q 997 3316 997 2438 
Q 1147 2750 1412 2917 
Q 1678 3084 2022 3084 
Q 2697 3084 3067 2670 
Q 3438 2256 3438 1497 
Q 3438 741 3056 325 
Q 2675 -91 1984 -91 
Q 1172 -91 794 492 
Q 416 1075 416 2328 
Q 416 3509 870 4129 
Q 1325 4750 2188 4750 
Q 2419 4750 2650 4701 
Q 2881 4653 3097 4563 
z
M 1972 2591 
Q 1569 2591 1337 2300 
Q 1106 2009 1106 1497 
Q 1106 984 1337 693 
Q 1569 403 1972 403 
Q 2391 403 2603 679 
Q 2816 956 2816 1497 
Q 2816 2041 2603 2316 
Q 2391 2591 1972 2591 
z
" transform="scale(0.015625)"/>
       </defs>
       <use xlink:href="#DejaVuSansMono-36"/>
       <use xlink:href="#DejaVuSansMono-30" x="60.205078"/>
       <use xlink:href="#DejaVuSansMono-30" x="120.410156"/>
      </g>
     </g>
    </g>
    <g id="xtick_4">
     <g id="line2d_4">
      <g>
       <use xlink:href="#m8a6e9e3693" x="695.244363" y="404.12" style="stroke: #000000; stroke-width: 0.8"/>
      </g>
     </g>
     <g id="text_4">
      <!-- 800 -->
      <g transform="translate(686.213894 418.771563) scale(0.1 -0.1)">
       <defs>
        <path id="DejaVuSansMono-38" d="M 1925 2216 
Q 1503 2216 1273 1980 
Q 1044 1744 1044 1313 
Q 1044 881 1276 642 
Q 1509 403 1925 403 
Q 2350 403 2579 639 
Q 2809 875 2809 1313 
Q 2809 1741 2576 1978 
Q 2344 2216 1925 2216 
z
M 1375 2478 
Q 972 2581 745 2862 
Q 519 3144 519 3541 
Q 519 4097 897 4423 
Q 1275 4750 1925 4750 
Q 2578 4750 2956 4423 
Q 3334 4097 3334 3541 
Q 3334 3144 3107 2862 
Q 2881 2581 2478 2478 
Q 2947 2375 3195 2062 
Q 3444 1750 3444 1253 
Q 3444 622 3041 265 
Q 2638 -91 1925 -91 
Q 1213 -91 811 264 
Q 409 619 409 1247 
Q 409 1747 657 2061 
Q 906 2375 1375 2478 
z
M 1147 3481 
Q 1147 3106 1347 2909 
Q 1547 2713 1925 2713 
Q 2306 2713 2506 2909 
Q 2706 3106 2706 3481 
Q 2706 3863 2507 4063 
Q 2309 4263 1925 4263 
Q 1547 4263 1347 4061 
Q 1147 3859 1147 3481 
z
" transform="scale(0.015625)"/>
       </defs>
       <use xlink:href="#DejaVuSansMono-38"/>
       <use xlink:href="#DejaVuSansMono-30" x="60.205078"/>
       <use xlink:href="#DejaVuSansMono-30" x="120.410156"/>
      </g>
     </g>
    </g>
   </g>
   <g id="matplotlib.axis_2">
    <g id="ytick_1">
     <g id="line2d_5">
      <defs>
       <path id="mdea6bf47c0" d="M 0 0 
L -3.5 0 
" style="stroke: #000000; stroke-width: 0.8"/>
      </defs>
      <g>
       <use xlink:href="#mdea6bf47c0" x="41.92" y="393.977474" style="stroke: #000000; stroke-width: 0.8"/>
      </g>
     </g>
     <g id="text_5">
      <!-- 0.25 -->
      <g transform="translate(10.83875 397.803255) scale(0.1 -0.1)">
       <defs>
        <path id="DejaVuSansMono-2e" d="M 1528 953 
L 2316 953 
L 2316 0 
L 1528 0 
L 1528 953 
z
" transform="scale(0.015625)"/>
        <path id="DejaVuSansMono-35" d="M 647 4666 
L 3009 4666 
L 3009 4134 
L 1222 4134 
L 1222 2988 
Q 1356 3038 1492 3061 
Q 1628 3084 1766 3084 
Q 2491 3084 2916 2656 
Q 3341 2228 3341 1497 
Q 3341 759 2895 334 
Q 2450 -91 1678 -91 
Q 1306 -91 998 -41 
Q 691 9 447 109 
L 447 750 
Q 734 594 1025 517 
Q 1316 441 1619 441 
Q 2141 441 2423 716 
Q 2706 991 2706 1497 
Q 2706 1997 2414 2275 
Q 2122 2553 1600 2553 
Q 1347 2553 1106 2495 
Q 866 2438 647 2322 
L 647 4666 
z
" transform="scale(0.015625)"/>
       </defs>
       <use xlink:href="#DejaVuSansMono-30"/>
       <use xlink:href="#DejaVuSansMono-2e" x="60.205078"/>
       <use xlink:href="#DejaVuSansMono-32" x="120.410156"/>
       <use xlink:href="#DejaVuSansMono-35" x="180.615234"/>
      </g>
     </g>
    </g>
    <g id="ytick_2">
     <g id="line2d_6">
      <g>
       <use xlink:href="#mdea6bf47c0" x="41.92" y="345.465276" style="stroke: #000000; stroke-width: 0.8"/>
      </g>
     </g>
     <g id="text_6">
      <!-- 0.50 -->
      <g transform="translate(10.83875 349.291057) scale(0.1 -0.1)">
       <use xlink:href="#DejaVuSansMono-30"/>
       <use xlink:href="#DejaVuSansMono-2e" x="60.205078"/>
       <use xlink:href="#DejaVuSansMono-35" x="120.410156"/>
       <use xlink:href="#DejaVuSansMono-30" x="180.615234"/>
      </g>
     </g>
    </g>
    <g id="ytick_3">
     <g id="line2d_7">
      <g>
       <use xlink:href="#mdea6bf47c0" x="41.92" y="296.953078" style="stroke: #000000; stroke-width: 0.8"/>
      </g>
     </g>
     <g id="text_7">
      <!-- 0.75 -->
      <g transform="translate(10.83875 300.778859) scale(0.1 -0.1)">
       <defs>
        <path id="DejaVuSansMono-37" d="M 434 4666 
L 3372 4666 
L 3372 4397 
L 1703 0 
L 1044 0 
L 2669 4134 
L 434 4134 
L 434 4666 
z
" transform="scale(0.015625)"/>
       </defs>
       <use xlink:href="#DejaVuSansMono-30"/>
       <use xlink:href="#DejaVuSansMono-2e" x="60.205078"/>
       <use xlink:href="#DejaVuSansMono-37" x="120.410156"/>
       <use xlink:href="#DejaVuSansMono-35" x="180.615234"/>
      </g>
     </g>
    </g>
    <g id="ytick_4">
     <g id="line2d_8">
      <g>
       <use xlink:href="#mdea6bf47c0" x="41.92" y="248.44088" style="stroke: #000000; stroke-width: 0.8"/>
      </g>
     </g>
     <g id="text_8">
      <!-- 1.00 -->
      <g transform="translate(10.83875 252.266661) scale(0.1 -0.1)">
       <defs>
        <path id="DejaVuSansMono-31" d="M 844 531 
L 1825 531 
L 1825 4097 
L 769 3859 
L 769 4434 
L 1819 4666 
L 2450 4666 
L 2450 531 
L 3419 531 
L 3419 0 
L 844 0 
L 844 531 
z
" transform="scale(0.015625)"/>
       </defs>
       <use xlink:href="#DejaVuSansMono-31"/>
       <use xlink:href="#DejaVuSansMono-2e" x="60.205078"/>
       <use xlink:href="#DejaVuSansMono-30" x="120.410156"/>
       <use xlink:href="#DejaVuSansMono-30" x="180.615234"/>
      </g>
     </g>
    </g>
    <g id="ytick_5">
     <g id="line2d_9">
      <g>
       <use xlink:href="#mdea6bf47c0" x="41.92" y="199.928682" style="stroke: #000000; stroke-width: 0.8"/>
      </g>
     </g>
     <g id="text_9">
      <!-- 1.25 -->
      <g transform="translate(10.83875 203.754463) scale(0.1 -0.1)">
       <use xlink:href="#DejaVuSansMono-31"/>
       <use xlink:href="#DejaVuSansMono-2e" x="60.205078"/>
       <use xlink:href="#DejaVuSansMono-32" x="120.410156"/>
       <use xlink:href="#DejaVuSansMono-35" x="180.615234"/>
      </g>
     </g>
    </g>
    <g id="ytick_6">
     <g id="line2d_10">
      <g>
       <use xlink:href="#mdea6bf47c0" x="41.92" y="151.416484" style="stroke: #000000; stroke-width: 0.8"/>
      </g>
     </g>
     <g id="text_10">
      <!-- 1.50 -->
      <g transform="translate(10.83875 155.242266) scale(0.1 -0.1)">
       <use xlink:href="#DejaVuSansMono-31"/>
       <use xlink:href="#DejaVuSansMono-2e" x="60.205078"/>
       <use xlink:href="#DejaVuSansMono-35" x="120.410156"/>
       <use xlink:href="#DejaVuSansMono-30" x="180.615234"/>
      </g>
     </g>
    </g>
    <g id="ytick_7">
     <g id="line2d_11">
      <g>
       <use xlink:href="#mdea6bf47c0" x="41.92" y="102.904287" style="stroke: #000000; stroke-width: 0.8"/>
      </g>
     </g>
     <g id="text_11">
      <!-- 1.75 -->
      <g transform="translate(10.83875 106.730068) scale(0.1 -0.1)">
       <use xlink:href="#DejaVuSansMono-31"/>
       <use xlink:href="#DejaVuSansMono-2e" x="60.205078"/>
       <use xlink:href="#DejaVuSansMono-37" x="120.410156"/>
       <use xlink:href="#DejaVuSansMono-35" x="180.615234"/>
      </g>
     </g>
    </g>
    <g id="ytick_8">
     <g id="line2d_12">
      <g>
       <use xlink:href="#mdea6bf47c0" x="41.92" y="54.392089" style="stroke: #000000; stroke-width: 0.8"/>
      </g>
     </g>
     <g id="text_12">
      <!-- 2.00 -->
      <g transform="translate(10.83875 58.21787) scale(0.1 -0.1)">
       <use xlink:href="#DejaVuSansMono-32"/>
       <use xlink:href="#DejaVuSansMono-2e" x="60.205078"/>
       <use xlink:href="#DejaVuSansMono-30" x="120.410156"/>
       <use xlink:href="#DejaVuSansMono-30" x="180.615234"/>
      </g>
     </g>
    </g>
   </g>
   <g id="line2d_13">
    <path d="M 33.650071 175.04382 
L 34.477064 177.038285 
L 35.304057 163.328214 
L 36.13105 153.679878 
L 36.958043 149.661786 
L 37.785036 186.001516 
L 38.612029 200.002914 
L 39.439021 200.626974 
L 40.266014 209.374352 
L 41.093007 211.664059 
L 41.92 200.278803 
L 42.746993 209.526092 
L 43.573986 233.583074 
L 44.400979 229.431095 
L 45.227971 231.515563 
L 46.054964 232.283853 
L 46.881957 220.821455 
L 47.70895 230.277439 
L 48.535943 232.249829 
L 49.362936 232.406653 
L 50.189929 227.473131 
L 51.016922 197.917815 
L 51.843914 191.822684 
L 52.670907 199.601498 
L 53.4979 178.652104 
L 54.324893 179.968797 
L 55.151886 184.085984 
L 55.978879 185.91107 
L 56.805872 180.80303 
L 57.632864 173.546263 
L 58.459857 182.407885 
L 59.28685 201.630645 
L 60.113843 203.75867 
L 60.940836 198.835106 
L 61.767829 213.860713 
L 62.594822 208.279864 
L 63.421814 223.016254 
L 64.248807 218.752076 
L 65.0758 223.820854 
L 65.902793 228.073492 
L 66.729786 236.719865 
L 67.556779 228.169198 
L 68.383772 221.979876 
L 69.210765 227.228215 
L 70.037757 222.049956 
L 70.86475 208.058576 
L 71.691743 199.965791 
L 72.518736 209.381371 
L 73.345729 205.987133 
L 74.172722 193.158729 
L 74.999715 195.630828 
L 75.826707 200.072643 
L 76.6537 182.004448 
L 77.480693 152.618707 
L 78.307686 152.741379 
L 79.134679 167.162404 
L 79.961672 160.706881 
L 80.788665 149.341051 
L 81.615657 151.331825 
L 82.44265 151.505636 
L 83.269643 141.666657 
L 84.096636 159.736903 
L 84.923629 165.106816 
L 85.750622 191.157743 
L 86.577615 204.676405 
L 87.404608 197.735229 
L 88.2316 161.211139 
L 89.058593 166.833316 
L 89.885586 144.587152 
L 90.712579 145.343145 
L 91.539572 141.914828 
L 92.366565 136.378196 
L 93.193558 144.732444 
L 94.02055 158.88215 
L 94.847543 136.141701 
L 95.674536 141.235725 
L 96.501529 187.759386 
L 97.328522 195.986125 
L 98.155515 220.289056 
L 98.982508 227.224812 
L 99.809501 220.088188 
L 100.636493 216.806128 
L 101.463486 233.422894 
L 103.117472 221.807369 
L 104.771458 233.690114 
L 105.598451 232.801615 
L 106.425443 237.949929 
L 107.252436 246.696217 
L 108.079429 258.84197 
L 108.906422 252.593138 
L 109.733415 244.745475 
L 110.560408 241.278591 
L 111.387401 271.445665 
L 112.214393 254.779921 
L 113.041386 229.184309 
L 113.868379 227.013584 
L 114.695372 219.122054 
L 115.522365 205.656456 
L 116.349358 204.717232 
L 117.176351 216.911879 
L 118.003344 221.967208 
L 118.830336 223.04237 
L 119.657329 222.939429 
L 120.484322 228.203137 
L 121.311315 254.405639 
L 122.138308 243.003766 
L 122.965301 215.423039 
L 123.792294 222.230218 
L 124.619286 230.830061 
L 125.446279 232.168946 
L 126.273272 226.668338 
L 127.100265 182.612223 
L 127.927258 173.224815 
L 128.754251 177.277353 
L 129.581244 163.57836 
L 130.408236 173.451788 
L 131.235229 196.448798 
L 132.062222 196.30854 
L 132.889215 163.494238 
L 133.716208 156.550308 
L 134.543201 152.271334 
L 135.370194 181.726425 
L 136.197187 192.241008 
L 137.024179 192.543411 
L 137.851172 197.447159 
L 138.678165 186.124897 
L 139.505158 191.378514 
L 140.332151 175.679795 
L 141.159144 199.109974 
L 141.986137 205.006075 
L 142.813129 202.430314 
L 143.640122 219.451422 
L 144.467115 213.156077 
L 145.294108 209.028323 
L 146.948094 216.589511 
L 147.775087 210.922287 
L 148.60208 221.993025 
L 149.429072 236.311258 
L 150.256065 201.307478 
L 151.083058 206.352566 
L 151.910051 194.814163 
L 152.737044 185.055123 
L 153.564037 194.852661 
L 155.218022 173.815513 
L 156.045015 187.012163 
L 156.872008 193.247388 
L 157.699001 186.266961 
L 158.525994 210.954487 
L 159.352987 213.324936 
L 160.17998 229.909265 
L 161.006972 241.386068 
L 161.833965 243.365817 
L 162.660958 254.28793 
L 163.487951 276.566617 
L 164.314944 271.062273 
L 165.141937 280.045785 
L 165.96893 283.485513 
L 166.795923 292.033194 
L 167.622915 265.298194 
L 168.449908 252.376526 
L 169.276901 242.210342 
L 170.103894 239.369116 
L 170.930887 223.368891 
L 171.75788 195.068988 
L 172.584873 188.686646 
L 173.411865 185.565331 
L 174.238858 165.414748 
L 175.065851 167.860349 
L 175.892844 177.804321 
L 176.719837 181.207704 
L 177.54683 181.072483 
L 178.373823 186.368933 
L 179.200815 203.498518 
L 180.027808 225.157734 
L 180.854801 232.756508 
L 181.681794 234.669652 
L 182.508787 249.087804 
L 183.33578 248.595073 
L 184.162773 247.762625 
L 184.989766 253.642218 
L 185.816758 244.295458 
L 186.643751 241.30377 
L 187.470744 232.61474 
L 188.297737 236.705833 
L 189.12473 216.777313 
L 189.951723 203.043074 
L 190.778716 182.061625 
L 191.605708 168.751541 
L 192.432701 179.112104 
L 193.259694 174.896585 
L 194.086687 202.091363 
L 194.91368 202.0392 
L 195.740673 205.917786 
L 196.567666 205.635915 
L 197.394659 209.3742 
L 198.221651 211.060717 
L 199.048644 238.808989 
L 199.875637 245.455546 
L 200.70263 256.0045 
L 201.529623 238.601468 
L 202.356616 210.220509 
L 204.010601 214.461803 
L 204.837594 190.265067 
L 205.664587 158.605988 
L 206.49158 161.438298 
L 207.318573 153.576874 
L 208.145566 115.377752 
L 208.972559 106.509539 
L 209.799551 128.789671 
L 210.626544 133.717933 
L 211.453537 133.326681 
L 212.28053 136.961297 
L 213.107523 155.270484 
L 213.934516 205.691985 
L 214.761509 210.688968 
L 215.588502 209.81677 
L 216.415494 250.620588 
L 217.242487 241.635669 
L 218.06948 246.479057 
L 218.896473 268.798253 
L 219.723466 267.368239 
L 220.550459 244.22413 
L 221.377452 230.222068 
L 222.204444 229.730421 
L 223.031437 238.033755 
L 223.85843 235.395068 
L 224.685423 231.900247 
L 225.512416 243.452408 
L 226.339409 239.708682 
L 227.166402 237.038732 
L 227.993394 179.653899 
L 228.820387 202.243085 
L 229.64738 173.91686 
L 230.474373 168.496204 
L 231.301366 160.996756 
L 232.128359 141.924937 
L 232.955352 142.096293 
L 233.782345 152.719091 
L 234.609337 152.456711 
L 235.43633 151.726777 
L 236.263323 202.344788 
L 237.090316 204.182018 
L 237.917309 226.417463 
L 238.744302 194.145699 
L 239.571295 199.497573 
L 240.398287 222.082184 
L 241.22528 183.238662 
L 242.052273 179.047039 
L 242.879266 176.413362 
L 243.706259 179.405064 
L 244.533252 149.0663 
L 245.360245 113.474964 
L 246.187238 104.501511 
L 247.01423 142.139585 
L 247.841223 130.400281 
L 248.668216 94.684519 
L 249.495209 141.320418 
L 250.322202 134.570386 
L 251.149195 139.010539 
L 251.976188 113.308109 
L 252.80318 150.79261 
L 253.630173 183.14717 
L 254.457166 223.250001 
L 255.284159 214.26064 
L 256.111152 179.845748 
L 256.938145 227.24252 
L 257.765138 220.936108 
L 258.59213 226.443585 
L 259.419123 223.59388 
L 260.246116 240.524117 
L 261.073109 244.100018 
L 261.900102 249.083408 
L 262.727095 245.118053 
L 263.554088 242.557042 
L 264.381081 272.55023 
L 265.208073 271.869085 
L 266.035066 282.180708 
L 266.862059 274.225733 
L 267.689052 285.922075 
L 268.516045 286.308119 
L 269.343038 255.845904 
L 270.170031 210.459982 
L 270.997023 209.521629 
L 271.824016 205.962671 
L 272.651009 204.573593 
L 273.478002 199.924176 
L 274.304995 183.587405 
L 275.131988 190.345983 
L 275.958981 181.036328 
L 276.785973 182.585011 
L 277.612966 200.721586 
L 278.439959 244.951803 
L 279.266952 222.774195 
L 280.093945 238.905399 
L 280.920938 246.958451 
L 281.747931 240.935912 
L 282.574924 245.114154 
L 283.401916 230.174197 
L 284.228909 229.450067 
L 285.055902 231.774757 
L 285.882895 248.518493 
L 286.709888 248.23272 
L 287.536881 271.534548 
L 288.363874 251.212556 
L 289.190866 267.641761 
L 290.017859 270.293428 
L 290.844852 281.000095 
L 291.671845 293.877947 
L 292.498838 304.115227 
L 293.325831 285.167474 
L 294.152824 280.429373 
L 294.979817 274.219204 
L 295.806809 277.451719 
L 296.633802 271.674435 
L 297.460795 257.312292 
L 298.287788 248.805023 
L 299.114781 249.46843 
L 299.941774 183.81253 
L 301.595759 165.347727 
L 302.422752 126.082008 
L 303.249745 130.372455 
L 304.076738 133.723845 
L 304.903731 115.159265 
L 305.730724 125.245413 
L 306.557717 109.024725 
L 307.384709 109.504043 
L 308.211702 172.473861 
L 309.038695 179.947627 
L 309.865688 196.738135 
L 310.692681 230.219739 
L 312.346667 210.890172 
L 313.17366 256.379974 
L 314.000652 246.983907 
L 314.827645 280.061156 
L 315.654638 277.39696 
L 316.481631 291.242437 
L 317.308624 273.283649 
L 318.135617 272.855112 
L 318.96261 269.68255 
L 319.789602 282.301993 
L 320.616595 280.065953 
L 321.443588 277.218967 
L 322.270581 243.794372 
L 323.924567 216.728871 
L 324.75156 208.21266 
L 325.578552 211.171739 
L 326.405545 222.189499 
L 327.232538 225.101984 
L 328.059531 220.06537 
L 328.886524 226.90311 
L 329.713517 219.517341 
L 330.54051 264.299821 
L 331.367503 249.682348 
L 332.194495 239.198806 
L 333.021488 249.345615 
L 333.848481 255.231765 
L 334.675474 225.390143 
L 335.502467 220.459361 
L 336.32946 221.019062 
L 337.156453 192.115048 
L 337.983445 195.05744 
L 338.810438 192.371214 
L 339.637431 164.306305 
L 340.464424 174.959246 
L 341.291417 154.734184 
L 342.11841 153.778754 
L 342.945403 185.66531 
L 343.772396 199.885836 
L 344.599388 209.249712 
L 345.426381 238.334959 
L 346.253374 237.617349 
L 347.080367 233.19953 
L 347.90736 226.26302 
L 348.734353 222.507434 
L 349.561346 223.539022 
L 350.388338 225.827029 
L 351.215331 223.840331 
L 352.042324 225.14708 
L 352.869317 219.088503 
L 353.69631 209.704003 
L 354.523303 211.963917 
L 355.350296 220.278813 
L 356.177288 269.928074 
L 357.004281 249.370983 
L 357.831274 262.229333 
L 358.658267 220.911675 
L 359.48526 189.696784 
L 360.312253 185.662466 
L 361.139246 99.068741 
L 361.966239 105.96288 
L 362.793231 116.910687 
L 363.620224 77.607186 
L 364.447217 81.914742 
L 365.27421 114.253802 
L 366.101203 81.707623 
L 366.928196 124.720782 
L 367.755189 133.104345 
L 368.582181 111.060538 
L 369.409174 138.205797 
L 370.236167 122.071837 
L 371.06316 117.810774 
L 371.890153 121.648521 
L 372.717146 120.776171 
L 373.544139 110.077248 
L 374.371131 120.828565 
L 375.198124 123.463906 
L 376.025117 150.264336 
L 376.85211 151.405428 
L 377.679103 206.410652 
L 378.506096 211.716794 
L 379.333089 211.318385 
L 380.160082 241.433359 
L 380.987074 247.084691 
L 381.814067 253.544213 
L 382.64106 274.898066 
L 383.468053 280.806107 
L 384.295046 272.950286 
L 385.122039 301.098424 
L 385.949032 278.825499 
L 386.776024 290.22747 
L 387.603017 272.89379 
L 388.43001 262.223965 
L 389.257003 264.2965 
L 390.083996 265.80061 
L 390.910989 263.615136 
L 391.737982 254.419248 
L 392.564975 262.708975 
L 393.391967 259.12602 
L 394.21896 237.129098 
L 395.045953 241.935615 
L 395.872946 232.174306 
L 396.699939 225.617635 
L 397.526932 221.893643 
L 398.353925 225.294289 
L 399.180917 235.66307 
L 400.00791 237.066595 
L 400.834903 227.656859 
L 401.661896 222.159383 
L 402.488889 271.63972 
L 403.315882 256.045915 
L 404.142875 282.007851 
L 404.969867 270.358898 
L 405.79686 272.396348 
L 406.623853 283.571822 
L 407.450846 260.982744 
L 408.277839 212.052431 
L 409.104832 178.814349 
L 409.931825 181.693513 
L 410.758818 180.738215 
L 411.58581 192.932522 
L 412.412803 189.351118 
L 413.239796 221.246291 
L 414.066789 223.730224 
L 414.893782 190.589819 
L 415.720775 211.608361 
L 416.547768 237.660873 
L 417.37476 286.291391 
L 418.201753 263.559782 
L 419.028746 251.033874 
L 419.855739 214.52797 
L 420.682732 206.096529 
L 421.509725 186.928151 
L 422.336718 141.701108 
L 423.16371 170.59167 
L 423.990703 170.419474 
L 424.817696 194.037608 
L 425.644689 177.45948 
L 426.471682 191.162711 
L 427.298675 207.135365 
L 428.125668 210.551898 
L 428.952661 216.973233 
L 429.779653 231.981868 
L 430.606646 279.107912 
L 431.433639 282.079049 
L 432.260632 256.835157 
L 433.087625 219.850098 
L 433.914618 237.02636 
L 434.741611 174.353158 
L 435.568603 168.995442 
L 436.395596 170.439622 
L 437.222589 171.12181 
L 438.049582 162.459367 
L 438.876575 134.358135 
L 439.703568 117.200945 
L 440.530561 140.424218 
L 441.357554 177.499503 
L 442.184546 73.159862 
L 443.011539 152.107692 
L 443.838532 154.509852 
L 444.665525 179.042206 
L 445.492518 185.560058 
L 446.319511 157.662002 
L 447.146504 187.917038 
L 447.973496 186.485779 
L 448.800489 131.528758 
L 449.627482 107.65634 
L 450.454475 175.162826 
L 451.281468 172.558124 
L 452.108461 160.349699 
L 452.935454 145.932459 
L 453.762446 149.813795 
L 454.589439 190.946488 
L 455.416432 188.384393 
L 456.243425 196.895295 
L 457.070418 252.220321 
L 457.897411 280.008652 
L 458.724404 288.570876 
L 459.551397 285.779433 
L 460.378389 299.09159 
L 461.205382 222.158956 
L 462.032375 217.804933 
L 462.859368 220.090471 
L 463.686361 216.35603 
L 464.513354 227.655508 
L 465.340347 197.918519 
L 466.167339 188.927096 
L 466.994332 205.683196 
L 467.821325 205.739887 
L 468.648318 199.964016 
L 469.475311 302.708203 
L 470.302304 306.460448 
L 471.129297 305.839756 
L 471.95629 290.589525 
L 472.783282 249.614391 
L 473.610275 235.651547 
L 474.437268 235.544061 
L 475.264261 241.173701 
L 476.091254 240.703865 
L 476.918247 248.518093 
L 477.74524 249.831388 
L 478.572232 239.979821 
L 479.399225 237.952619 
L 480.226218 234.258511 
L 481.053211 262.686905 
L 481.880204 302.899466 
L 482.707197 293.492086 
L 483.53419 288.693341 
L 484.361182 289.370161 
L 485.188175 268.884088 
L 486.015168 267.276429 
L 486.842161 281.417205 
L 487.669154 224.046312 
L 488.496147 243.611862 
L 489.32314 216.369865 
L 490.150133 209.931778 
L 490.977125 226.997989 
L 491.804118 238.441024 
L 492.631111 181.327252 
L 493.458104 182.179589 
L 495.11209 164.480952 
L 495.939083 223.845689 
L 496.766075 216.559569 
L 497.593068 167.711007 
L 498.420061 179.662235 
L 499.247054 164.317225 
L 500.074047 159.79197 
L 500.90104 211.842576 
L 501.728033 228.652039 
L 502.555025 207.593263 
L 503.382018 215.253724 
L 504.209011 205.864021 
L 505.036004 216.424362 
L 505.862997 253.51597 
L 506.68999 249.876286 
L 507.516983 247.794574 
L 508.343976 228.631697 
L 509.170968 238.605483 
L 509.997961 241.63584 
L 510.824954 228.733264 
L 511.651947 212.233831 
L 512.47894 213.979527 
L 513.305933 196.264616 
L 514.132926 247.277642 
L 514.959918 197.886754 
L 515.786911 192.217588 
L 516.613904 198.254478 
L 517.440897 165.778409 
L 518.26789 166.841974 
L 519.094883 205.715992 
L 519.921876 216.132216 
L 520.748869 196.48598 
L 521.575861 206.287786 
L 522.402854 157.283055 
L 523.229847 199.329543 
L 524.05684 184.65724 
L 524.883833 172.366803 
L 525.710826 167.899788 
L 526.537819 168.286396 
L 528.191804 163.38578 
L 529.018797 188.488974 
L 529.84579 179.556781 
L 530.672783 176.443189 
L 531.499776 186.072648 
L 532.326769 221.767988 
L 533.153761 249.274552 
L 533.980754 241.013845 
L 534.807747 227.959557 
L 535.63474 232.51423 
L 536.461733 237.772787 
L 537.288726 235.831136 
L 538.115719 252.215335 
L 538.942712 304.346009 
L 539.769704 308.142344 
L 540.596697 299.532638 
L 541.42369 292.947492 
L 542.250683 336.889255 
L 543.077676 320.973289 
L 543.904669 291.309529 
L 544.731662 293.356648 
L 545.558654 290.507389 
L 546.385647 259.294578 
L 547.21264 242.048965 
L 548.039633 240.532097 
L 548.866626 229.631838 
L 549.693619 238.426489 
L 550.520612 222.876452 
L 551.347604 250.857925 
L 552.174597 262.345124 
L 553.00159 262.79633 
L 553.828583 273.469655 
L 554.655576 306.153179 
L 555.482569 326.930388 
L 556.309562 314.301028 
L 557.136555 337.728088 
L 557.963547 336.838043 
L 558.79054 355.174576 
L 559.617533 316.921142 
L 560.444526 337.779476 
L 561.271519 324.750354 
L 562.098512 315.175076 
L 562.925505 316.991839 
L 563.752497 312.931568 
L 564.57949 317.232512 
L 565.406483 316.753129 
L 566.233476 296.846012 
L 567.060469 292.938376 
L 567.887462 323.987839 
L 568.714455 325.753135 
L 569.541448 335.86072 
L 570.36844 342.628424 
L 571.195433 339.043264 
L 572.022426 338.258275 
L 572.849419 348.781888 
L 573.676412 336.347294 
L 574.503405 331.609589 
L 575.330398 306.824122 
L 576.15739 316.694345 
L 576.984383 295.259946 
L 577.811376 161.185095 
L 578.638369 157.51769 
L 579.465362 139.768994 
L 580.292355 137.001178 
L 581.119348 135.040024 
L 581.94634 149.74278 
L 582.773333 151.707289 
L 583.600326 178.474683 
L 584.427319 175.998752 
L 585.254312 193.873507 
L 586.081305 329.354974 
L 586.908298 306.130902 
L 587.735291 286.874809 
L 588.562283 292.682429 
L 589.389276 291.642694 
L 590.216269 287.259831 
L 591.043262 276.172939 
L 591.870255 270.19003 
L 592.697248 209.971211 
L 593.524241 175.998525 
L 594.351233 162.87461 
L 595.178226 188.310242 
L 596.005219 225.991607 
L 596.832212 195.40035 
L 597.659205 194.636159 
L 598.486198 198.323165 
L 599.313191 231.5363 
L 600.140183 189.826084 
L 600.967176 250.716515 
L 601.794169 270.718215 
L 602.621162 249.381097 
L 603.448155 252.293971 
L 604.275148 251.260842 
L 605.102141 208.552881 
L 605.929134 202.241784 
L 606.756126 186.93456 
L 607.583119 188.206217 
L 608.410112 227.886552 
L 609.237105 224.192921 
L 610.064098 225.012255 
L 610.891091 258.841001 
L 611.718084 252.393801 
L 612.545076 254.588952 
L 613.372069 329.460585 
L 615.026055 340.933155 
L 615.853048 316.906263 
L 616.680041 317.386919 
L 617.507034 300.631158 
L 618.334027 307.837652 
L 619.161019 299.601829 
L 619.988012 297.477684 
L 620.815005 292.730014 
L 621.641998 269.237481 
L 622.468991 271.631323 
L 623.295984 227.092245 
L 624.122977 250.393866 
L 624.949969 251.321937 
L 625.776962 249.397097 
L 626.603955 254.575594 
L 627.430948 262.467415 
L 628.257941 239.075038 
L 629.084934 236.987515 
L 629.911927 177.592227 
L 630.738919 169.792729 
L 631.565912 211.352622 
L 632.392905 205.644332 
L 633.219898 203.695096 
L 634.046891 225.183177 
L 634.873884 184.041243 
L 635.700877 187.460734 
L 636.52787 218.232392 
L 637.354862 214.323807 
L 638.181855 287.070254 
L 639.008848 243.129953 
L 639.835841 241.273931 
L 640.662834 246.678373 
L 641.489827 252.998202 
L 642.31682 251.269576 
L 643.143812 256.259605 
L 643.970805 246.728582 
L 644.797798 231.5385 
L 645.624791 242.648557 
L 646.451784 241.061943 
L 647.278777 274.961674 
L 648.10577 281.081167 
L 648.932762 278.0471 
L 649.759755 270.912078 
L 651.413741 280.41689 
L 652.240734 287.332638 
L 653.067727 295.411306 
L 653.89472 263.291799 
L 654.721713 267.951532 
L 655.548705 289.007595 
L 656.375698 283.730466 
L 657.202691 265.820494 
L 658.029684 271.363943 
L 658.856677 221.21901 
L 659.68367 147.553805 
L 660.510663 108.977861 
L 661.337655 116.987551 
L 662.164648 147.310082 
L 662.991641 151.349783 
L 663.818634 144.387066 
L 664.645627 159.619911 
L 665.47262 146.993767 
L 666.299613 143.927079 
L 667.126606 190.063714 
L 667.953598 288.384716 
L 668.780591 327.508454 
L 669.607584 325.319317 
L 670.434577 325.619648 
L 671.26157 328.812835 
L 672.088563 328.966776 
L 672.915556 296.920111 
L 673.742548 328.409372 
L 674.569541 320.977205 
L 675.396534 295.715428 
L 676.223527 299.483416 
L 677.05052 265.31114 
L 677.877513 268.324422 
L 678.704506 265.968087 
L 679.531498 208.555194 
L 680.358491 211.852386 
L 681.185484 186.294853 
L 682.012477 183.802888 
L 682.83947 187.098958 
L 683.666463 214.333969 
L 684.493456 213.49855 
L 685.320449 239.329646 
L 686.147441 186.24329 
L 686.974434 188.546027 
L 687.801427 237.355284 
L 688.62842 240.221647 
L 689.455413 296.494605 
L 690.282406 290.132714 
L 691.109399 269.850086 
L 691.936391 273.063138 
L 692.763384 254.558769 
L 693.590377 254.662124 
L 694.41737 300.766975 
L 695.244363 299.239262 
L 696.071356 303.271029 
L 696.898349 291.138795 
L 697.725341 283.893154 
L 698.552334 286.719278 
L 699.379327 313.303369 
L 700.20632 301.082235 
L 701.033313 272.362341 
L 701.860306 275.99 
L 702.687299 282.459787 
L 703.514292 284.631909 
L 704.341284 287.579539 
L 705.168277 298.823095 
L 705.99527 291.995373 
L 706.822263 296.653909 
L 707.649256 288.909069 
L 708.476249 289.806878 
L 709.303242 327.60633 
L 710.130234 334.632399 
L 711.78422 311.474992 
L 712.611213 273.513886 
L 713.438206 270.915754 
L 714.265199 278.293504 
L 715.092192 243.410992 
L 715.919185 252.098569 
L 716.746177 258.921056 
L 717.57317 262.443604 
L 718.400163 238.23872 
L 719.227156 231.968903 
L 720.054149 243.401601 
L 720.881142 268.695132 
L 721.708135 237.328116 
L 722.535127 239.378336 
L 723.36212 278.397678 
L 724.189113 240.306985 
L 725.016106 242.912523 
L 725.843099 257.493003 
L 726.670092 278.847944 
L 727.497085 277.218001 
L 728.324077 276.756688 
L 729.15107 289.391074 
L 729.978063 271.124671 
L 730.805056 267.424426 
L 731.632049 252.374035 
L 732.459042 294.252241 
L 733.286035 287.511981 
L 734.113028 272.042687 
L 734.94002 272.311804 
L 735.767013 277.595734 
L 736.594006 273.552405 
L 737.420999 258.288792 
L 738.247992 233.267468 
L 739.074985 237.466404 
L 739.901978 209.724888 
L 740.72897 192.336211 
L 741.555963 190.152151 
L 742.382956 202.986567 
L 743.209949 202.447095 
L 744.036942 208.931995 
L 744.863935 149.383294 
L 745.690928 121.858915 
L 746.51792 181.997275 
L 747.344913 162.767197 
L 748.171906 195.50518 
L 748.998899 209.428578 
L 749.825892 160.678639 
L 750.652885 162.614242 
L 751.479878 165.008021 
L 752.306871 161.348459 
L 753.133863 209.830418 
L 753.960856 251.044126 
L 754.787849 269.196994 
L 755.614842 272.890825 
L 756.441835 272.204054 
L 757.268828 207.723422 
L 758.095821 249.183198 
L 758.922813 242.92909 
L 759.749806 199.977686 
L 760.576799 209.680921 
L 761.403792 170.338511 
L 762.230785 168.251866 
L 763.057778 111.402956 
L 763.884771 113.798843 
L 764.711764 109.109736 
L 765.538756 156.587786 
L 766.365749 169.572743 
L 767.192742 175.288396 
L 768.019735 214.885541 
L 768.846728 214.635635 
L 769.673721 269.107329 
L 770.500714 264.501974 
L 771.327706 320.009313 
L 772.981692 338.244405 
L 773.808685 356.07464 
L 774.635678 354.48075 
L 775.462671 355.538908 
L 777.116656 324.120382 
L 777.943649 282.33819 
L 778.770642 293.355321 
L 779.597635 277.229213 
L 780.424628 281.281496 
L 781.251621 264.033849 
L 782.078614 216.792909 
L 782.905607 199.877832 
L 783.732599 189.068262 
L 784.559592 192.948122 
L 785.386585 112.125411 
L 786.213578 147.794054 
L 787.040571 144.959597 
L 787.867564 161.669524 
L 788.694557 165.792387 
L 789.521549 186.352141 
L 790.348542 237.169954 
L 791.175535 170.963776 
L 792.002528 181.557903 
L 792.829521 194.041529 
L 793.656514 285.956064 
L 794.483507 279.590301 
L 795.310499 282.234199 
L 796.137492 275.00516 
L 796.964485 273.203926 
L 797.791478 277.324938 
L 798.618471 218.533097 
L 799.445464 284.504451 
L 800.272457 285.087247 
L 801.09945 285.070048 
L 801.926442 292.032562 
L 802.753435 297.332198 
L 803.580428 297.13495 
L 804.407421 305.371373 
L 805.234414 303.573885 
L 806.061407 303.841639 
L 806.8884 363.283954 
L 807.715392 386.241818 
L 808.542385 375.148399 
L 809.369378 336.085108 
L 810.196371 334.066768 
L 811.023364 339.883627 
L 811.850357 334.485219 
L 812.67735 327.222378 
L 813.504343 321.919387 
L 814.331335 309.200249 
L 815.158328 306.562132 
L 815.985321 261.404294 
L 816.812314 271.291483 
L 817.639307 309.685255 
L 818.4663 272.589242 
L 819.293293 272.646845 
L 820.120285 269.943794 
L 820.947278 271.367576 
L 821.774271 250.277272 
L 822.601264 261.68565 
L 823.428257 257.460842 
L 824.25525 290.781011 
L 825.082243 280.180223 
L 825.909235 262.794024 
L 826.736228 292.178925 
L 827.563221 227.387855 
L 828.390214 221.215461 
L 829.217207 226.413553 
L 830.0442 250.014827 
L 830.871193 248.495197 
L 831.698186 168.250994 
L 832.525178 71.584006 
L 833.352171 74.505396 
L 834.179164 35.565515 
L 835.006157 32.40039 
L 835.83315 98.323019 
L 836.660143 105.521691 
L 837.487136 95.055813 
L 838.314128 67.166027 
L 839.141121 28.678182 
L 839.968114 105.274196 
L 840.795107 204.93519 
L 841.6221 210.256816 
L 842.449093 266.594136 
L 843.276086 265.988231 
L 844.103078 254.609277 
L 844.930071 180.576245 
L 845.757064 189.718362 
L 846.584057 213.33489 
L 847.41105 242.383486 
L 848.238043 201.820382 
L 849.065036 201.266839 
L 849.892029 205.166666 
L 850.719021 209.970197 
L 852.373007 235.396834 
L 852.373007 235.396834 
" clip-path="url(#pa28aa951ed)" style="fill: none; stroke-dasharray: 7.4,3.2; stroke-dashoffset: 0; stroke: #000000; stroke-width: 2"/>
   </g>
   <g id="patch_3">
    <path d="M 41.92 404.12 
L 41.92 10.8 
" style="fill: none; stroke: #000000; stroke-width: 0.8; stroke-linejoin: miter; stroke-linecap: square"/>
   </g>
   <g id="patch_4">
    <path d="M 853.2 404.12 
L 853.2 10.8 
" style="fill: none; stroke: #000000; stroke-width: 0.8; stroke-linejoin: miter; stroke-linecap: square"/>
   </g>
   <g id="patch_5">
    <path d="M 41.92 404.12 
L 853.2 404.12 
" style="fill: none; stroke: #000000; stroke-width: 0.8; stroke-linejoin: miter; stroke-linecap: square"/>
   </g>
   <g id="patch_6">
    <path d="M 41.92 10.8 
L 853.2 10.8 
" style="fill: none; stroke: #000000; stroke-width: 0.8; stroke-linejoin: miter; stroke-linecap: square"/>
   </g>
  </g>
 </g>
 <defs>
  <clipPath id="pa28aa951ed">
   <rect x="41.92" y="10.8" width="811.28" height="393.32"/>
  </clipPath>
 </defs>
</svg>
