<?xml version="1.0" encoding="utf-8" standalone="no"?>
<!DOCTYPE svg PUBLIC "-//W3C//DTD SVG 1.1//EN"
  "http://www.w3.org/Graphics/SVG/1.1/DTD/svg11.dtd">
<svg xmlns:xlink="http://www.w3.org/1999/xlink" width="864pt" height="432pt" viewBox="0 0 864 432" xmlns="http://www.w3.org/2000/svg" version="1.1">
 <metadata>
  <rdf:RDF xmlns:dc="http://purl.org/dc/elements/1.1/" xmlns:cc="http://creativecommons.org/ns#" xmlns:rdf="http://www.w3.org/1999/02/22-rdf-syntax-ns#">
   <cc:Work>
    <dc:type rdf:resource="http://purl.org/dc/dcmitype/StillImage"/>
    <dc:date>2024-09-18T14:08:46.039395</dc:date>
    <dc:format>image/svg+xml</dc:format>
    <dc:creator>
     <cc:Agent>
      <dc:title>Matplotlib v3.9.2, https://matplotlib.org/</dc:title>
     </cc:Agent>
    </dc:creator>
   </cc:Work>
  </rdf:RDF>
 </metadata>
 <defs>
  <style type="text/css">*{stroke-linejoin: round; stroke-linecap: butt}</style>
 </defs>
 <g id="figure_1">
  <g id="patch_1">
   <path d="M 0 432 
L 864 432 
L 864 0 
L 0 0 
z
" style="fill: #ffffff"/>
  </g>
  <g id="axes_1">
   <g id="patch_2">
    <path d="M 41.92 404.12 
L 853.2 404.12 
L 853.2 10.8 
L 41.92 10.8 
z
" style="fill: #ffffff"/>
   </g>
   <g id="matplotlib.axis_1">
    <g id="xtick_1">
     <g id="line2d_1">
      <defs>
       <path id="m74b69a7238" d="M 0 0 
L 0 3.5 
" style="stroke: #000000; stroke-width: 0.8"/>
      </defs>
      <g>
       <use xlink:href="#m74b69a7238" x="199.048644" y="404.12" style="stroke: #000000; stroke-width: 0.8"/>
      </g>
     </g>
     <g id="text_1">
      <!-- 200 -->
      <g transform="translate(190.018175 418.771563) scale(0.1 -0.1)">
       <defs>
        <path id="DejaVuSansMono-32" d="M 1166 531 
L 3309 531 
L 3309 0 
L 475 0 
L 475 531 
Q 1059 1147 1496 1619 
Q 1934 2091 2100 2284 
Q 2413 2666 2522 2902 
Q 2631 3138 2631 3384 
Q 2631 3775 2401 3997 
Q 2172 4219 1772 4219 
Q 1488 4219 1175 4116 
Q 863 4013 513 3803 
L 513 4441 
Q 834 4594 1145 4672 
Q 1456 4750 1759 4750 
Q 2444 4750 2861 4386 
Q 3278 4022 3278 3431 
Q 3278 3131 3139 2831 
Q 3000 2531 2688 2169 
Q 2513 1966 2180 1606 
Q 1847 1247 1166 531 
z
" transform="scale(0.015625)"/>
        <path id="DejaVuSansMono-30" d="M 1509 2344 
Q 1509 2516 1629 2641 
Q 1750 2766 1919 2766 
Q 2094 2766 2219 2641 
Q 2344 2516 2344 2344 
Q 2344 2169 2220 2047 
Q 2097 1925 1919 1925 
Q 1744 1925 1626 2044 
Q 1509 2163 1509 2344 
z
M 1925 4250 
Q 1484 4250 1267 3775 
Q 1050 3300 1050 2328 
Q 1050 1359 1267 884 
Q 1484 409 1925 409 
Q 2369 409 2586 884 
Q 2803 1359 2803 2328 
Q 2803 3300 2586 3775 
Q 2369 4250 1925 4250 
z
M 1925 4750 
Q 2672 4750 3055 4137 
Q 3438 3525 3438 2328 
Q 3438 1134 3055 521 
Q 2672 -91 1925 -91 
Q 1178 -91 797 521 
Q 416 1134 416 2328 
Q 416 3525 797 4137 
Q 1178 4750 1925 4750 
z
" transform="scale(0.015625)"/>
       </defs>
       <use xlink:href="#DejaVuSansMono-32"/>
       <use xlink:href="#DejaVuSansMono-30" x="60.205078"/>
       <use xlink:href="#DejaVuSansMono-30" x="120.410156"/>
      </g>
     </g>
    </g>
    <g id="xtick_2">
     <g id="line2d_2">
      <g>
       <use xlink:href="#m74b69a7238" x="364.447217" y="404.12" style="stroke: #000000; stroke-width: 0.8"/>
      </g>
     </g>
     <g id="text_2">
      <!-- 400 -->
      <g transform="translate(355.416748 418.771563) scale(0.1 -0.1)">
       <defs>
        <path id="DejaVuSansMono-34" d="M 2297 4091 
L 825 1625 
L 2297 1625 
L 2297 4091 
z
M 2194 4666 
L 2925 4666 
L 2925 1625 
L 3547 1625 
L 3547 1113 
L 2925 1113 
L 2925 0 
L 2297 0 
L 2297 1113 
L 319 1113 
L 319 1709 
L 2194 4666 
z
" transform="scale(0.015625)"/>
       </defs>
       <use xlink:href="#DejaVuSansMono-34"/>
       <use xlink:href="#DejaVuSansMono-30" x="60.205078"/>
       <use xlink:href="#DejaVuSansMono-30" x="120.410156"/>
      </g>
     </g>
    </g>
    <g id="xtick_3">
     <g id="line2d_3">
      <g>
       <use xlink:href="#m74b69a7238" x="529.84579" y="404.12" style="stroke: #000000; stroke-width: 0.8"/>
      </g>
     </g>
     <g id="text_3">
      <!-- 600 -->
      <g transform="translate(520.815321 418.771563) scale(0.1 -0.1)">
       <defs>
        <path id="DejaVuSansMono-36" d="M 3097 4563 
L 3097 3981 
Q 2900 4097 2678 4158 
Q 2456 4219 2216 4219 
Q 1616 4219 1306 3767 
Q 997 3316 997 2438 
Q 1147 2750 1412 2917 
Q 1678 3084 2022 3084 
Q 2697 3084 3067 2670 
Q 3438 2256 3438 1497 
Q 3438 741 3056 325 
Q 2675 -91 1984 -91 
Q 1172 -91 794 492 
Q 416 1075 416 2328 
Q 416 3509 870 4129 
Q 1325 4750 2188 4750 
Q 2419 4750 2650 4701 
Q 2881 4653 3097 4563 
z
M 1972 2591 
Q 1569 2591 1337 2300 
Q 1106 2009 1106 1497 
Q 1106 984 1337 693 
Q 1569 403 1972 403 
Q 2391 403 2603 679 
Q 2816 956 2816 1497 
Q 2816 2041 2603 2316 
Q 2391 2591 1972 2591 
z
" transform="scale(0.015625)"/>
       </defs>
       <use xlink:href="#DejaVuSansMono-36"/>
       <use xlink:href="#DejaVuSansMono-30" x="60.205078"/>
       <use xlink:href="#DejaVuSansMono-30" x="120.410156"/>
      </g>
     </g>
    </g>
    <g id="xtick_4">
     <g id="line2d_4">
      <g>
       <use xlink:href="#m74b69a7238" x="695.244363" y="404.12" style="stroke: #000000; stroke-width: 0.8"/>
      </g>
     </g>
     <g id="text_4">
      <!-- 800 -->
      <g transform="translate(686.213894 418.771563) scale(0.1 -0.1)">
       <defs>
        <path id="DejaVuSansMono-38" d="M 1925 2216 
Q 1503 2216 1273 1980 
Q 1044 1744 1044 1313 
Q 1044 881 1276 642 
Q 1509 403 1925 403 
Q 2350 403 2579 639 
Q 2809 875 2809 1313 
Q 2809 1741 2576 1978 
Q 2344 2216 1925 2216 
z
M 1375 2478 
Q 972 2581 745 2862 
Q 519 3144 519 3541 
Q 519 4097 897 4423 
Q 1275 4750 1925 4750 
Q 2578 4750 2956 4423 
Q 3334 4097 3334 3541 
Q 3334 3144 3107 2862 
Q 2881 2581 2478 2478 
Q 2947 2375 3195 2062 
Q 3444 1750 3444 1253 
Q 3444 622 3041 265 
Q 2638 -91 1925 -91 
Q 1213 -91 811 264 
Q 409 619 409 1247 
Q 409 1747 657 2061 
Q 906 2375 1375 2478 
z
M 1147 3481 
Q 1147 3106 1347 2909 
Q 1547 2713 1925 2713 
Q 2306 2713 2506 2909 
Q 2706 3106 2706 3481 
Q 2706 3863 2507 4063 
Q 2309 4263 1925 4263 
Q 1547 4263 1347 4061 
Q 1147 3859 1147 3481 
z
" transform="scale(0.015625)"/>
       </defs>
       <use xlink:href="#DejaVuSansMono-38"/>
       <use xlink:href="#DejaVuSansMono-30" x="60.205078"/>
       <use xlink:href="#DejaVuSansMono-30" x="120.410156"/>
      </g>
     </g>
    </g>
   </g>
   <g id="matplotlib.axis_2">
    <g id="ytick_1">
     <g id="line2d_5">
      <defs>
       <path id="m80030fb1e2" d="M 0 0 
L -3.5 0 
" style="stroke: #000000; stroke-width: 0.8"/>
      </defs>
      <g>
       <use xlink:href="#m80030fb1e2" x="41.92" y="387.820777" style="stroke: #000000; stroke-width: 0.8"/>
      </g>
     </g>
     <g id="text_5">
      <!-- 0.05 -->
      <g transform="translate(10.83875 391.646559) scale(0.1 -0.1)">
       <defs>
        <path id="DejaVuSansMono-2e" d="M 1528 953 
L 2316 953 
L 2316 0 
L 1528 0 
L 1528 953 
z
" transform="scale(0.015625)"/>
        <path id="DejaVuSansMono-35" d="M 647 4666 
L 3009 4666 
L 3009 4134 
L 1222 4134 
L 1222 2988 
Q 1356 3038 1492 3061 
Q 1628 3084 1766 3084 
Q 2491 3084 2916 2656 
Q 3341 2228 3341 1497 
Q 3341 759 2895 334 
Q 2450 -91 1678 -91 
Q 1306 -91 998 -41 
Q 691 9 447 109 
L 447 750 
Q 734 594 1025 517 
Q 1316 441 1619 441 
Q 2141 441 2423 716 
Q 2706 991 2706 1497 
Q 2706 1997 2414 2275 
Q 2122 2553 1600 2553 
Q 1347 2553 1106 2495 
Q 866 2438 647 2322 
L 647 4666 
z
" transform="scale(0.015625)"/>
       </defs>
       <use xlink:href="#DejaVuSansMono-30"/>
       <use xlink:href="#DejaVuSansMono-2e" x="60.205078"/>
       <use xlink:href="#DejaVuSansMono-30" x="120.410156"/>
       <use xlink:href="#DejaVuSansMono-35" x="180.615234"/>
      </g>
     </g>
    </g>
    <g id="ytick_2">
     <g id="line2d_6">
      <g>
       <use xlink:href="#m80030fb1e2" x="41.92" y="309.378253" style="stroke: #000000; stroke-width: 0.8"/>
      </g>
     </g>
     <g id="text_6">
      <!-- 0.10 -->
      <g transform="translate(10.83875 313.204035) scale(0.1 -0.1)">
       <defs>
        <path id="DejaVuSansMono-31" d="M 844 531 
L 1825 531 
L 1825 4097 
L 769 3859 
L 769 4434 
L 1819 4666 
L 2450 4666 
L 2450 531 
L 3419 531 
L 3419 0 
L 844 0 
L 844 531 
z
" transform="scale(0.015625)"/>
       </defs>
       <use xlink:href="#DejaVuSansMono-30"/>
       <use xlink:href="#DejaVuSansMono-2e" x="60.205078"/>
       <use xlink:href="#DejaVuSansMono-31" x="120.410156"/>
       <use xlink:href="#DejaVuSansMono-30" x="180.615234"/>
      </g>
     </g>
    </g>
    <g id="ytick_3">
     <g id="line2d_7">
      <g>
       <use xlink:href="#m80030fb1e2" x="41.92" y="230.935729" style="stroke: #000000; stroke-width: 0.8"/>
      </g>
     </g>
     <g id="text_7">
      <!-- 0.15 -->
      <g transform="translate(10.83875 234.76151) scale(0.1 -0.1)">
       <use xlink:href="#DejaVuSansMono-30"/>
       <use xlink:href="#DejaVuSansMono-2e" x="60.205078"/>
       <use xlink:href="#DejaVuSansMono-31" x="120.410156"/>
       <use xlink:href="#DejaVuSansMono-35" x="180.615234"/>
      </g>
     </g>
    </g>
    <g id="ytick_4">
     <g id="line2d_8">
      <g>
       <use xlink:href="#m80030fb1e2" x="41.92" y="152.493205" style="stroke: #000000; stroke-width: 0.8"/>
      </g>
     </g>
     <g id="text_8">
      <!-- 0.20 -->
      <g transform="translate(10.83875 156.318986) scale(0.1 -0.1)">
       <use xlink:href="#DejaVuSansMono-30"/>
       <use xlink:href="#DejaVuSansMono-2e" x="60.205078"/>
       <use xlink:href="#DejaVuSansMono-32" x="120.410156"/>
       <use xlink:href="#DejaVuSansMono-30" x="180.615234"/>
      </g>
     </g>
    </g>
    <g id="ytick_5">
     <g id="line2d_9">
      <g>
       <use xlink:href="#m80030fb1e2" x="41.92" y="74.050681" style="stroke: #000000; stroke-width: 0.8"/>
      </g>
     </g>
     <g id="text_9">
      <!-- 0.25 -->
      <g transform="translate(10.83875 77.876462) scale(0.1 -0.1)">
       <use xlink:href="#DejaVuSansMono-30"/>
       <use xlink:href="#DejaVuSansMono-2e" x="60.205078"/>
       <use xlink:href="#DejaVuSansMono-32" x="120.410156"/>
       <use xlink:href="#DejaVuSansMono-35" x="180.615234"/>
      </g>
     </g>
    </g>
   </g>
   <g id="line2d_10">
    <path d="M 33.650071 74.56312 
L 34.477064 79.163663 
L 35.304057 73.210166 
L 36.13105 64.96577 
L 36.958043 41.238736 
L 37.785036 46.648566 
L 38.612029 49.382751 
L 39.439021 48.840533 
L 40.266014 51.104916 
L 41.093007 55.753776 
L 41.92 51.750463 
L 42.746993 59.240066 
L 43.573986 68.63669 
L 44.400979 74.699795 
L 45.227971 85.624257 
L 46.881957 76.480841 
L 47.70895 72.406768 
L 48.535943 73.274086 
L 49.362936 69.660689 
L 50.189929 68.478334 
L 51.016922 56.347132 
L 51.843914 51.767154 
L 52.670907 55.060639 
L 53.4979 49.476853 
L 54.324893 49.832442 
L 55.151886 54.874788 
L 55.978879 62.695118 
L 56.805872 64.87246 
L 57.632864 65.745491 
L 58.459857 75.916048 
L 59.28685 78.145162 
L 60.113843 81.694186 
L 60.940836 73.450851 
L 61.767829 75.149524 
L 62.594822 71.422549 
L 64.248807 74.382193 
L 65.0758 73.583826 
L 65.902793 79.182569 
L 66.729786 74.083499 
L 67.556779 74.905996 
L 68.383772 72.067219 
L 69.210765 71.225907 
L 70.037757 66.062581 
L 70.86475 66.787023 
L 71.691743 60.107027 
L 72.518736 62.356539 
L 73.345729 59.878171 
L 74.172722 51.585051 
L 74.999715 53.741454 
L 75.826707 52.70161 
L 76.6537 49.007139 
L 77.480693 46.513983 
L 78.307686 46.494897 
L 79.134679 51.882967 
L 79.961672 53.875551 
L 80.788665 43.001241 
L 81.615657 47.792158 
L 82.44265 43.658818 
L 83.269643 38.277163 
L 84.096636 45.210744 
L 84.923629 42.708055 
L 85.750622 54.960077 
L 86.577615 61.308082 
L 88.2316 51.395409 
L 89.058593 60.283435 
L 89.885586 55.883674 
L 90.712579 60.802902 
L 91.539572 64.0228 
L 92.366565 63.413515 
L 93.193558 66.925256 
L 94.02055 62.925727 
L 94.847543 55.352647 
L 95.674536 60.008939 
L 96.501529 69.743893 
L 97.328522 74.002551 
L 98.155515 82.973713 
L 98.982508 80.946745 
L 99.809501 75.429918 
L 100.636493 68.89304 
L 101.463486 75.909727 
L 102.290479 80.782868 
L 103.117472 80.562463 
L 103.944465 85.881723 
L 104.771458 82.908239 
L 105.598451 83.157873 
L 106.425443 81.325854 
L 107.252436 93.667638 
L 108.079429 102.273463 
L 108.906422 99.771591 
L 109.733415 94.730077 
L 110.560408 87.718625 
L 111.387401 99.756347 
L 112.214393 88.975012 
L 113.041386 89.371166 
L 113.868379 82.417534 
L 114.695372 83.624034 
L 115.522365 77.134559 
L 116.349358 76.209833 
L 117.176351 95.277566 
L 118.003344 102.186458 
L 118.830336 98.256887 
L 119.657329 92.36904 
L 120.484322 92.760083 
L 121.311315 95.786192 
L 122.138308 94.204093 
L 122.965301 83.594419 
L 124.619286 73.773852 
L 125.446279 60.731415 
L 126.273272 61.977439 
L 127.927258 61.608965 
L 128.754251 64.162795 
L 129.581244 62.392606 
L 130.408236 59.263216 
L 132.062222 69.797867 
L 132.889215 71.969449 
L 133.716208 70.504537 
L 134.543201 67.020922 
L 135.370194 68.494423 
L 136.197187 63.769975 
L 137.024179 61.242304 
L 137.851172 57.564086 
L 138.678165 62.172526 
L 139.505158 62.844913 
L 140.332151 58.290237 
L 141.159144 65.150814 
L 141.986137 67.934433 
L 142.813129 60.533446 
L 143.640122 72.579193 
L 144.467115 82.197113 
L 145.294108 79.533543 
L 146.121101 86.562009 
L 147.775087 85.155859 
L 148.60208 83.279061 
L 149.429072 80.871006 
L 150.256065 76.018868 
L 151.083058 72.852546 
L 152.737044 51.448886 
L 153.564037 50.115932 
L 154.39103 42.703692 
L 155.218022 46.409506 
L 156.045015 46.311686 
L 156.872008 60.730183 
L 157.699001 60.525518 
L 158.525994 60.146921 
L 159.352987 76.014435 
L 160.17998 82.014299 
L 161.006972 84.745375 
L 161.833965 94.318176 
L 162.660958 98.739503 
L 163.487951 107.405933 
L 164.314944 110.552996 
L 165.141937 100.528299 
L 165.96893 106.131259 
L 166.795923 108.263029 
L 167.622915 93.041431 
L 168.449908 84.073339 
L 169.276901 83.017649 
L 170.103894 88.047834 
L 170.930887 82.648529 
L 171.75788 70.79018 
L 172.584873 66.770505 
L 173.411865 78.770366 
L 174.238858 67.340544 
L 175.065851 71.458551 
L 175.892844 70.954425 
L 176.719837 74.723362 
L 177.54683 70.502585 
L 178.373823 84.312613 
L 179.200815 94.130768 
L 180.027808 92.729953 
L 180.854801 98.284841 
L 181.681794 91.271451 
L 182.508787 98.93807 
L 183.33578 96.721703 
L 184.162773 102.052888 
L 184.989766 124.646466 
L 185.816758 124.618853 
L 186.643751 107.359399 
L 187.470744 98.464537 
L 188.297737 106.982284 
L 189.12473 101.248659 
L 189.951723 91.565516 
L 190.778716 83.247716 
L 191.605708 76.350735 
L 192.432701 81.834574 
L 193.259694 60.699138 
L 194.086687 80.909463 
L 194.91368 83.112548 
L 195.740673 96.476279 
L 196.567666 100.245291 
L 197.394659 100.379227 
L 198.221651 108.175657 
L 199.048644 112.999845 
L 199.875637 114.49389 
L 200.70263 105.339281 
L 201.529623 101.893367 
L 202.356616 87.480565 
L 203.183609 82.621575 
L 204.010601 82.47239 
L 204.837594 67.735134 
L 205.664587 62.966589 
L 206.49158 60.77065 
L 207.318573 57.416058 
L 208.145566 57.258511 
L 208.972559 54.731991 
L 209.799551 50.322808 
L 210.626544 47.323244 
L 212.28053 38.319973 
L 213.107523 43.527158 
L 213.934516 53.929418 
L 214.761509 56.752083 
L 215.588502 60.544195 
L 216.415494 69.279378 
L 217.242487 70.641998 
L 218.06948 78.791107 
L 218.896473 94.167128 
L 219.723466 98.693779 
L 220.550459 90.611767 
L 221.377452 89.341974 
L 222.204444 94.018222 
L 223.031437 87.211179 
L 224.685423 81.783863 
L 225.512416 89.185938 
L 226.339409 124.410129 
L 227.166402 118.268072 
L 227.993394 110.627204 
L 228.820387 116.870219 
L 229.64738 116.595892 
L 230.474373 104.083081 
L 231.301366 131.492881 
L 232.128359 126.120869 
L 232.955352 125.350401 
L 233.782345 129.477688 
L 234.609337 115.892816 
L 235.43633 122.435478 
L 236.263323 125.738713 
L 237.090316 126.629927 
L 237.917309 125.990921 
L 238.744302 123.916595 
L 239.571295 105.859998 
L 240.398287 113.610789 
L 241.22528 108.826441 
L 242.052273 103.219549 
L 242.879266 79.273094 
L 243.706259 78.817858 
L 244.533252 76.304171 
L 245.360245 67.94036 
L 246.187238 64.043279 
L 247.01423 78.857764 
L 247.841223 78.53351 
L 248.668216 73.270626 
L 249.495209 83.929844 
L 250.322202 87.32245 
L 251.149195 89.933624 
L 251.976188 73.895479 
L 252.80318 79.702444 
L 253.630173 82.899175 
L 254.457166 96.336597 
L 255.284159 86.053336 
L 256.111152 72.627753 
L 256.938145 99.205395 
L 257.765138 89.798805 
L 258.59213 99.640898 
L 260.246116 110.374308 
L 261.073109 113.572318 
L 261.900102 110.928764 
L 262.727095 140.78541 
L 263.554088 139.607394 
L 264.381081 143.671513 
L 265.208073 132.92791 
L 266.035066 154.078413 
L 266.862059 142.943115 
L 267.689052 144.478614 
L 268.516045 141.483466 
L 269.343038 131.280215 
L 270.170031 128.088744 
L 270.997023 87.512824 
L 271.824016 82.336825 
L 272.651009 80.213883 
L 273.478002 72.751073 
L 274.304995 53.035918 
L 275.131988 47.228228 
L 275.958981 77.044491 
L 276.785973 73.957074 
L 277.612966 79.921621 
L 278.439959 100.079707 
L 279.266952 99.531056 
L 280.093945 110.728693 
L 280.920938 125.018238 
L 281.747931 135.645658 
L 282.574924 138.312277 
L 283.401916 136.33616 
L 284.228909 104.009495 
L 285.055902 108.805237 
L 285.882895 117.671751 
L 286.709888 105.1913 
L 287.536881 113.595315 
L 288.363874 104.634638 
L 289.190866 97.426647 
L 290.017859 86.649208 
L 290.844852 84.133057 
L 291.671845 86.771856 
L 292.498838 91.89126 
L 293.325831 86.918736 
L 294.152824 84.277819 
L 294.979817 78.200626 
L 295.806809 90.828349 
L 296.633802 89.193954 
L 297.460795 81.755123 
L 298.287788 71.540969 
L 299.114781 93.414233 
L 299.941774 90.671155 
L 300.768767 82.91406 
L 301.595759 81.272095 
L 302.422752 69.378852 
L 303.249745 78.299044 
L 304.076738 71.328348 
L 304.903731 71.186825 
L 305.730724 81.606104 
L 306.557717 80.727897 
L 307.384709 74.388091 
L 308.211702 76.360902 
L 309.038695 76.655356 
L 309.865688 79.587779 
L 310.692681 81.849851 
L 311.519674 70.066159 
L 313.17366 132.289571 
L 314.000652 130.314796 
L 314.827645 166.907716 
L 315.654638 146.589821 
L 316.481631 149.411335 
L 317.308624 146.451308 
L 318.135617 145.034746 
L 318.96261 144.761194 
L 319.789602 159.041213 
L 320.616595 118.39084 
L 321.443588 97.742569 
L 322.270581 89.067237 
L 323.097574 61.287087 
L 323.924567 62.08716 
L 324.75156 64.87834 
L 325.578552 102.451728 
L 326.405545 121.208421 
L 327.232538 123.68259 
L 328.059531 116.579336 
L 328.886524 151.81988 
L 329.713517 145.81477 
L 330.54051 164.546832 
L 331.367503 155.874661 
L 332.194495 155.796327 
L 333.021488 159.242141 
L 333.848481 119.092148 
L 334.675474 101.946753 
L 335.502467 99.774961 
L 336.32946 101.282567 
L 337.156453 59.570787 
L 337.983445 63.51412 
L 338.810438 49.05609 
L 340.464424 54.007817 
L 341.291417 42.599603 
L 342.11841 45.744366 
L 342.945403 50.194591 
L 344.599388 99.305563 
L 345.426381 113.214739 
L 346.253374 104.91739 
L 347.080367 117.902322 
L 347.90736 116.20483 
L 348.734353 116.002889 
L 349.561346 115.171812 
L 350.388338 122.266928 
L 351.215331 119.794335 
L 352.042324 113.347453 
L 352.869317 88.620576 
L 353.69631 78.387916 
L 354.523303 97.708729 
L 355.350296 86.5192 
L 356.177288 93.460416 
L 357.004281 92.030122 
L 357.831274 122.461823 
L 358.658267 109.399915 
L 359.48526 105.792546 
L 360.312253 89.418147 
L 361.139246 83.549299 
L 361.966239 82.510529 
L 362.793231 66.78593 
L 363.620224 59.907914 
L 364.447217 55.168806 
L 365.27421 58.052248 
L 366.101203 28.678182 
L 366.928196 63.717205 
L 367.755189 62.374811 
L 368.582181 58.891633 
L 369.409174 59.759703 
L 370.236167 59.711091 
L 371.06316 60.699528 
L 371.890153 59.969859 
L 372.717146 101.505402 
L 373.544139 102.316622 
L 374.371131 100.505098 
L 375.198124 80.689721 
L 376.025117 86.442354 
L 376.85211 86.857574 
L 377.679103 94.611472 
L 378.506096 100.855041 
L 379.333089 124.708908 
L 380.160082 129.462178 
L 380.987074 91.292719 
L 381.814067 91.654129 
L 382.64106 103.803916 
L 383.468053 124.618283 
L 384.295046 120.89187 
L 385.122039 159.651437 
L 385.949032 151.822456 
L 386.776024 156.773286 
L 387.603017 133.189085 
L 388.43001 132.501509 
L 389.257003 141.127607 
L 390.083996 138.057003 
L 390.910989 170.020061 
L 391.737982 135.152971 
L 392.564975 154.003388 
L 393.391967 115.151829 
L 394.21896 114.358843 
L 395.045953 105.816587 
L 395.872946 103.613539 
L 396.699939 100.834352 
L 397.526932 92.757396 
L 398.353925 137.331982 
L 399.180917 135.722904 
L 400.00791 137.442151 
L 400.834903 117.112745 
L 401.661896 139.581407 
L 402.488889 146.480026 
L 403.315882 188.360356 
L 404.142875 190.520651 
L 404.969867 191.019433 
L 405.79686 230.803681 
L 407.450846 150.777841 
L 408.277839 147.016688 
L 409.104832 146.579329 
L 409.931825 128.4777 
L 410.758818 127.878611 
L 411.58581 95.697065 
L 412.412803 91.345555 
L 413.239796 134.004693 
L 414.066789 98.631862 
L 414.893782 91.782361 
L 415.720775 102.437659 
L 416.547768 106.384946 
L 417.37476 132.150772 
L 419.028746 120.995352 
L 419.855739 107.171663 
L 420.682732 108.151698 
L 421.509725 65.196426 
L 422.336718 55.279117 
L 423.16371 84.244437 
L 423.990703 91.629282 
L 424.817696 116.487994 
L 425.644689 91.758309 
L 426.471682 90.299901 
L 427.298675 95.613889 
L 428.125668 96.311802 
L 428.952661 94.722423 
L 429.779653 133.693432 
L 430.606646 151.399389 
L 431.433639 157.335845 
L 432.260632 139.372282 
L 433.087625 110.863644 
L 433.914618 129.857854 
L 434.741611 129.762127 
L 435.568603 123.826138 
L 436.395596 124.652642 
L 437.222589 145.398083 
L 438.049582 103.765934 
L 438.876575 86.137306 
L 439.703568 58.828966 
L 440.530561 86.136436 
L 441.357554 87.800726 
L 442.184546 68.08732 
L 443.011539 77.727736 
L 443.838532 82.825387 
L 444.665525 85.929931 
L 445.492518 82.954624 
L 446.319511 85.668844 
L 447.146504 121.830596 
L 447.973496 119.168891 
L 448.800489 91.363944 
L 449.627482 88.999436 
L 450.454475 88.240769 
L 451.281468 95.469827 
L 452.108461 92.672682 
L 452.935454 91.604704 
L 453.762446 104.816941 
L 454.589439 107.454244 
L 455.416432 84.248565 
L 456.243425 79.022145 
L 457.070418 79.328542 
L 457.897411 95.344051 
L 458.724404 97.436818 
L 459.551397 105.443093 
L 460.378389 137.825585 
L 461.205382 134.087225 
L 462.032375 122.059373 
L 462.859368 162.103461 
L 463.686361 192.134879 
L 464.513354 200.192282 
L 465.340347 199.671572 
L 466.167339 184.829006 
L 466.994332 181.587909 
L 467.821325 190.062936 
L 468.648318 161.290148 
L 469.475311 176.796911 
L 470.302304 182.391789 
L 471.95629 105.100596 
L 472.783282 96.863994 
L 473.610275 98.630244 
L 474.437268 136.137776 
L 475.264261 167.469567 
L 476.091254 180.020371 
L 476.918247 219.67536 
L 477.74524 208.997652 
L 478.572232 229.55028 
L 479.399225 228.803496 
L 480.226218 225.805335 
L 481.053211 271.525067 
L 481.880204 282.798366 
L 482.707197 252.447771 
L 483.53419 251.322462 
L 484.361182 219.787779 
L 485.188175 180.082304 
L 486.015168 189.279295 
L 486.842161 177.7999 
L 487.669154 172.053163 
L 488.496147 207.674746 
L 489.32314 162.399194 
L 490.150133 195.427626 
L 491.804118 203.515493 
L 492.631111 189.148593 
L 493.458104 185.753778 
L 494.285097 217.910343 
L 495.11209 221.594208 
L 495.939083 258.822427 
L 496.766075 228.101902 
L 497.593068 227.542081 
L 498.420061 195.855938 
L 499.247054 190.97591 
L 500.074047 173.468529 
L 500.90104 171.751887 
L 501.728033 203.471915 
L 502.555025 158.385788 
L 503.382018 150.579489 
L 504.209011 156.367237 
L 505.036004 173.604469 
L 505.862997 173.633985 
L 506.68999 165.73503 
L 507.516983 161.716577 
L 508.343976 146.533747 
L 509.170968 160.723682 
L 509.997961 140.374379 
L 510.824954 139.65465 
L 511.651947 111.474603 
L 512.47894 72.430263 
L 513.305933 51.031956 
L 514.132926 58.881753 
L 514.959918 53.353985 
L 515.786911 50.154841 
L 516.613904 60.079028 
L 518.26789 35.508581 
L 519.921876 125.096313 
L 520.748869 121.279437 
L 521.575861 121.479629 
L 522.402854 113.486092 
L 523.229847 115.083396 
L 524.05684 117.266087 
L 524.883833 107.044205 
L 525.710826 108.710609 
L 526.537819 148.510307 
L 527.364811 113.035325 
L 528.191804 113.035325 
L 529.018797 115.271046 
L 529.84579 120.955337 
L 530.672783 121.548742 
L 531.499776 139.325351 
L 532.326769 183.044243 
L 533.153761 198.738096 
L 533.980754 197.38881 
L 534.807747 158.898034 
L 535.63474 194.373016 
L 536.461733 164.788977 
L 537.288726 207.520311 
L 538.115719 204.940245 
L 538.942712 221.771884 
L 539.769704 221.150748 
L 540.596697 221.150748 
L 541.42369 213.981269 
L 542.250683 247.273134 
L 543.077676 244.498243 
L 543.904669 199.057963 
L 544.731662 200.040974 
L 545.558654 157.65671 
L 546.385647 153.747988 
L 547.21264 182.27254 
L 548.039633 186.066971 
L 548.866626 140.621684 
L 549.693619 154.575137 
L 550.520612 121.700303 
L 551.347604 151.061873 
L 552.174597 196.502153 
L 553.00159 217.931295 
L 553.828583 254.54065 
L 554.655576 261.940524 
L 555.482569 224.216258 
L 556.309562 246.781916 
L 557.136555 292.227203 
L 557.963547 301.555531 
L 558.79054 331.327599 
L 560.444526 267.496298 
L 561.271519 235.984198 
L 562.098512 235.606752 
L 562.925505 242.377596 
L 563.752497 245.704604 
L 564.57949 245.704604 
L 565.406483 209.367259 
L 566.233476 179.945637 
L 567.060469 166.080009 
L 567.887462 212.086385 
L 568.714455 227.516419 
L 569.541448 266.200406 
L 570.36844 260.013488 
L 572.022426 324.005976 
L 572.849419 322.092744 
L 573.676412 356.310021 
L 574.503405 353.690887 
L 575.330398 339.625333 
L 576.984383 282.473631 
L 577.811376 236.667775 
L 578.638369 216.907805 
L 579.465362 171.142443 
L 580.292355 165.573992 
L 581.119348 165.308266 
L 581.94634 150.07084 
L 582.773333 155.618133 
L 583.600326 198.896767 
L 584.427319 187.636912 
L 585.254312 226.185301 
L 586.081305 244.340918 
L 586.908298 231.941857 
L 587.735291 232.782641 
L 588.562283 236.583257 
L 589.389276 194.99042 
L 590.216269 212.347914 
L 591.043262 207.428644 
L 591.870255 205.294154 
L 592.697248 200.486021 
L 593.524241 162.333094 
L 594.351233 189.983333 
L 595.178226 207.821432 
L 596.005219 210.808947 
L 596.832212 170.182137 
L 597.659205 184.208143 
L 598.486198 145.899004 
L 599.313191 154.490266 
L 600.140183 112.987855 
L 601.794169 204.186006 
L 602.621162 158.564624 
L 603.448155 145.349879 
L 604.275148 185.236157 
L 605.102141 184.003905 
L 605.929134 213.749695 
L 606.756126 252.058834 
L 607.583119 252.768316 
L 608.410112 296.405218 
L 609.237105 278.38971 
L 610.064098 244.489927 
L 610.891091 280.603124 
L 611.718084 281.921577 
L 612.545076 275.671567 
L 613.372069 282.517056 
L 614.199062 247.871606 
L 615.026055 220.217293 
L 615.853048 213.367755 
L 616.680041 211.158106 
L 617.507034 183.915058 
L 618.334027 217.814841 
L 619.161019 214.317012 
L 619.988012 212.424324 
L 620.815005 175.605599 
L 621.641998 168.890571 
L 622.468991 188.322925 
L 623.295984 169.83458 
L 624.122977 213.189229 
L 624.949969 193.357177 
L 625.776962 192.809877 
L 626.603955 192.809877 
L 627.430948 164.153469 
L 628.257941 158.556728 
L 629.084934 161.495907 
L 629.911927 161.519626 
L 630.738919 176.732722 
L 631.565912 222.875381 
L 632.392905 177.955306 
L 633.219898 197.847896 
L 634.046891 200.616119 
L 634.873884 154.994736 
L 635.700877 155.242316 
L 637.354862 235.033903 
L 638.181855 280.685579 
L 639.835841 189.491598 
L 640.662834 195.036605 
L 641.489827 194.991518 
L 642.31682 236.030616 
L 643.143812 235.702403 
L 643.970805 277.117245 
L 644.797798 285.551924 
L 645.624791 285.551924 
L 646.451784 241.962736 
L 648.10577 333.156717 
L 648.932762 336.641275 
L 650.586748 261.156009 
L 651.413741 262.748764 
L 653.067727 262.748764 
L 653.89472 216.942908 
L 654.721713 256.112798 
L 655.548705 256.112798 
L 656.375698 210.306942 
L 657.202691 204.950682 
L 658.029684 203.169671 
L 658.856677 196.333122 
L 659.68367 194.884107 
L 660.510663 149.244822 
L 661.337655 110.456463 
L 662.164648 156.262319 
L 662.991641 125.731976 
L 663.818634 125.731976 
L 664.645627 147.835775 
L 665.47262 143.834378 
L 666.299613 140.468154 
L 667.953598 227.675588 
L 669.607584 256.483822 
L 670.434577 213.594384 
L 671.26157 236.475944 
L 672.088563 236.475944 
L 672.915556 214.372145 
L 673.742548 255.518743 
L 674.569541 256.742135 
L 676.223527 175.885233 
L 677.05052 160.40984 
L 677.877513 151.512739 
L 678.704506 150.423614 
L 679.531498 116.965558 
L 680.358491 75.05602 
L 681.185484 75.753278 
L 682.012477 79.854848 
L 682.83947 124.487382 
L 683.666463 133.483748 
L 685.320449 221.115702 
L 686.147441 209.578759 
L 686.974434 209.370057 
L 687.801427 212.23987 
L 688.62842 233.2314 
L 689.455413 266.000725 
L 691.109399 175.910929 
L 691.936391 187.790493 
L 693.590377 101.770431 
L 694.41737 104.996328 
L 696.071356 189.660958 
L 697.725341 138.076124 
L 698.552334 145.010294 
L 699.379327 144.984335 
L 700.20632 167.639214 
L 701.033313 169.204977 
L 701.860306 163.501606 
L 702.687299 173.677937 
L 703.514292 146.611507 
L 704.341284 107.884855 
L 705.168277 117.604762 
L 705.99527 111.07934 
L 706.822263 145.879989 
L 707.649256 189.977324 
L 708.476249 145.153023 
L 709.303242 143.491533 
L 710.130234 169.79848 
L 710.957227 155.500193 
L 711.78422 182.566623 
L 712.611213 177.281053 
L 713.438206 177.998961 
L 714.265199 185.333254 
L 715.092192 141.681502 
L 715.919185 141.590672 
L 716.746177 186.414974 
L 717.57317 191.00906 
L 718.400163 164.718108 
L 719.227156 165.620047 
L 720.881142 165.58434 
L 721.708135 155.536268 
L 722.535127 185.986449 
L 723.36212 229.638202 
L 724.189113 186.057666 
L 725.016106 180.100006 
L 725.843099 188.743737 
L 726.670092 230.489425 
L 727.497085 230.675053 
L 728.324077 226.626407 
L 729.15107 272.853296 
L 729.978063 272.901108 
L 730.805056 239.429444 
L 731.632049 241.578554 
L 732.459042 287.38441 
L 733.286035 293.34207 
L 734.113028 283.807728 
L 734.94002 287.963623 
L 735.767013 329.159241 
L 736.594006 302.131617 
L 738.247992 302.131617 
L 739.074985 298.541504 
L 740.72897 206.907822 
L 741.555963 206.907822 
L 742.382956 206.184549 
L 743.209949 201.944412 
L 744.036942 206.184549 
L 744.863935 191.407151 
L 745.690928 144.922692 
L 746.51792 190.728548 
L 747.344913 189.324119 
L 748.171906 190.601971 
L 748.998899 195.403783 
L 749.825892 149.52064 
L 750.652885 151.387989 
L 751.479878 148.415021 
L 753.133863 148.462833 
L 753.960856 152.307931 
L 754.787849 116.448491 
L 755.614842 116.021703 
L 756.441835 160.571677 
L 757.268828 155.769866 
L 758.095821 201.653009 
L 758.922813 235.885951 
L 760.576799 155.786234 
L 761.403792 155.786234 
L 762.230785 154.301681 
L 763.057778 144.355264 
L 763.884771 190.587908 
L 764.711764 144.782052 
L 765.538756 182.384768 
L 766.365749 142.932338 
L 767.192742 115.678844 
L 768.019735 145.256017 
L 768.846728 182.332612 
L 769.673721 190.681483 
L 770.500714 234.805398 
L 771.327706 256.142944 
L 772.154699 212.521247 
L 772.981692 258.327103 
L 773.808685 264.50592 
L 774.635678 303.95835 
L 775.462671 338.032934 
L 776.289664 354.842047 
L 777.116656 314.232111 
L 777.943649 305.88324 
L 778.770642 269.232032 
L 779.597635 293.700342 
L 780.424628 328.557511 
L 782.905607 193.116454 
L 784.559592 193.116454 
L 785.386585 191.770474 
L 786.213578 237.57633 
L 787.040571 272.017888 
L 787.867564 230.274641 
L 788.694557 234.650776 
L 789.521549 241.57808 
L 790.348542 242.885632 
L 791.175535 242.885632 
L 792.002528 217.784022 
L 792.829521 171.338955 
L 793.656514 214.950614 
L 794.483507 168.532791 
L 795.310499 154.155476 
L 796.137492 195.898724 
L 796.964485 200.287117 
L 797.791478 211.219122 
L 798.618471 209.807905 
L 799.445464 210.04005 
L 800.272457 197.665605 
L 801.09945 239.841692 
L 801.926442 223.101485 
L 802.753435 224.274615 
L 803.580428 229.588402 
L 804.407421 214.405977 
L 805.234414 214.405977 
L 806.061407 214.536582 
L 807.715392 303.810166 
L 808.542385 341.28622 
L 809.369378 299.749345 
L 810.196371 316.605801 
L 811.023364 359.786217 
L 811.850357 371.059393 
L 812.67735 386.241818 
L 813.504343 338.815453 
L 814.331335 325.085488 
L 815.158328 299.983881 
L 815.985321 257.034717 
L 816.812314 257.034717 
L 817.639307 302.840573 
L 818.4663 259.310407 
L 819.293293 261.374684 
L 820.120285 255.564126 
L 820.947278 210.318283 
L 821.774271 211.938792 
L 822.601264 227.045425 
L 823.428257 211.304069 
L 824.25525 210.267969 
L 825.082243 210.267969 
L 825.909235 164.634739 
L 826.736228 210.242852 
L 827.563221 164.24514 
L 828.390214 170.055698 
L 829.217207 178.570515 
L 830.0442 220.018454 
L 830.871193 242.376986 
L 831.698186 237.414093 
L 832.525178 237.755338 
L 834.179164 237.658245 
L 835.006157 191.597072 
L 835.83315 214.31149 
L 836.660143 169.534925 
L 837.487136 206.265951 
L 839.141121 122.803908 
L 839.968114 121.472282 
L 840.795107 167.32595 
L 841.6221 167.32595 
L 843.276086 259.117446 
L 844.103078 282.40074 
L 844.930071 281.323637 
L 845.757064 276.995773 
L 847.41105 368.944288 
L 848.238043 370.275914 
L 849.065036 370.275914 
L 849.892029 346.046561 
L 850.719021 346.046561 
L 852.373007 256.636041 
L 852.373007 256.636041 
" clip-path="url(#pd8fe5f3a9e)" style="fill: none; stroke-dasharray: 7.4,3.2; stroke-dashoffset: 0; stroke: #000000; stroke-width: 2"/>
   </g>
   <g id="patch_3">
    <path d="M 41.92 404.12 
L 41.92 10.8 
" style="fill: none; stroke: #000000; stroke-width: 0.8; stroke-linejoin: miter; stroke-linecap: square"/>
   </g>
   <g id="patch_4">
    <path d="M 853.2 404.12 
L 853.2 10.8 
" style="fill: none; stroke: #000000; stroke-width: 0.8; stroke-linejoin: miter; stroke-linecap: square"/>
   </g>
   <g id="patch_5">
    <path d="M 41.92 404.12 
L 853.2 404.12 
" style="fill: none; stroke: #000000; stroke-width: 0.8; stroke-linejoin: miter; stroke-linecap: square"/>
   </g>
   <g id="patch_6">
    <path d="M 41.92 10.8 
L 853.2 10.8 
" style="fill: none; stroke: #000000; stroke-width: 0.8; stroke-linejoin: miter; stroke-linecap: square"/>
   </g>
  </g>
 </g>
 <defs>
  <clipPath id="pd8fe5f3a9e">
   <rect x="41.92" y="10.8" width="811.28" height="393.32"/>
  </clipPath>
 </defs>
</svg>
