<?xml version="1.0" encoding="utf-8" standalone="no"?>
<!DOCTYPE svg PUBLIC "-//W3C//DTD SVG 1.1//EN"
  "http://www.w3.org/Graphics/SVG/1.1/DTD/svg11.dtd">
<svg xmlns:xlink="http://www.w3.org/1999/xlink" width="864pt" height="432pt" viewBox="0 0 864 432" xmlns="http://www.w3.org/2000/svg" version="1.1">
 <metadata>
  <rdf:RDF xmlns:dc="http://purl.org/dc/elements/1.1/" xmlns:cc="http://creativecommons.org/ns#" xmlns:rdf="http://www.w3.org/1999/02/22-rdf-syntax-ns#">
   <cc:Work>
    <dc:type rdf:resource="http://purl.org/dc/dcmitype/StillImage"/>
    <dc:date>2024-09-17T13:44:16.145607</dc:date>
    <dc:format>image/svg+xml</dc:format>
    <dc:creator>
     <cc:Agent>
      <dc:title>Matplotlib v3.9.2, https://matplotlib.org/</dc:title>
     </cc:Agent>
    </dc:creator>
   </cc:Work>
  </rdf:RDF>
 </metadata>
 <defs>
  <style type="text/css">*{stroke-linejoin: round; stroke-linecap: butt}</style>
 </defs>
 <g id="figure_1">
  <g id="patch_1">
   <path d="M 0 432 
L 864 432 
L 864 0 
L 0 0 
z
" style="fill: #ffffff"/>
  </g>
  <g id="axes_1">
   <g id="patch_2">
    <path d="M 41.92 404.12 
L 853.2 404.12 
L 853.2 10.8 
L 41.92 10.8 
z
" style="fill: #ffffff"/>
   </g>
   <g id="matplotlib.axis_1">
    <g id="xtick_1">
     <g id="line2d_1">
      <defs>
       <path id="m1eae1cc1ba" d="M 0 0 
L 0 3.5 
" style="stroke: #000000; stroke-width: 0.8"/>
      </defs>
      <g>
       <use xlink:href="#m1eae1cc1ba" x="203.672049" y="404.12" style="stroke: #000000; stroke-width: 0.8"/>
      </g>
     </g>
     <g id="text_1">
      <!-- 2000 -->
      <g transform="translate(191.631424 418.771563) scale(0.1 -0.1)">
       <defs>
        <path id="DejaVuSansMono-32" d="M 1166 531 
L 3309 531 
L 3309 0 
L 475 0 
L 475 531 
Q 1059 1147 1496 1619 
Q 1934 2091 2100 2284 
Q 2413 2666 2522 2902 
Q 2631 3138 2631 3384 
Q 2631 3775 2401 3997 
Q 2172 4219 1772 4219 
Q 1488 4219 1175 4116 
Q 863 4013 513 3803 
L 513 4441 
Q 834 4594 1145 4672 
Q 1456 4750 1759 4750 
Q 2444 4750 2861 4386 
Q 3278 4022 3278 3431 
Q 3278 3131 3139 2831 
Q 3000 2531 2688 2169 
Q 2513 1966 2180 1606 
Q 1847 1247 1166 531 
z
" transform="scale(0.015625)"/>
        <path id="DejaVuSansMono-30" d="M 1509 2344 
Q 1509 2516 1629 2641 
Q 1750 2766 1919 2766 
Q 2094 2766 2219 2641 
Q 2344 2516 2344 2344 
Q 2344 2169 2220 2047 
Q 2097 1925 1919 1925 
Q 1744 1925 1626 2044 
Q 1509 2163 1509 2344 
z
M 1925 4250 
Q 1484 4250 1267 3775 
Q 1050 3300 1050 2328 
Q 1050 1359 1267 884 
Q 1484 409 1925 409 
Q 2369 409 2586 884 
Q 2803 1359 2803 2328 
Q 2803 3300 2586 3775 
Q 2369 4250 1925 4250 
z
M 1925 4750 
Q 2672 4750 3055 4137 
Q 3438 3525 3438 2328 
Q 3438 1134 3055 521 
Q 2672 -91 1925 -91 
Q 1178 -91 797 521 
Q 416 1134 416 2328 
Q 416 3525 797 4137 
Q 1178 4750 1925 4750 
z
" transform="scale(0.015625)"/>
       </defs>
       <use xlink:href="#DejaVuSansMono-32"/>
       <use xlink:href="#DejaVuSansMono-30" x="60.205078"/>
       <use xlink:href="#DejaVuSansMono-30" x="120.410156"/>
       <use xlink:href="#DejaVuSansMono-30" x="180.615234"/>
      </g>
     </g>
    </g>
    <g id="xtick_2">
     <g id="line2d_2">
      <g>
       <use xlink:href="#m1eae1cc1ba" x="366.236922" y="404.12" style="stroke: #000000; stroke-width: 0.8"/>
      </g>
     </g>
     <g id="text_2">
      <!-- 4000 -->
      <g transform="translate(354.196297 418.771563) scale(0.1 -0.1)">
       <defs>
        <path id="DejaVuSansMono-34" d="M 2297 4091 
L 825 1625 
L 2297 1625 
L 2297 4091 
z
M 2194 4666 
L 2925 4666 
L 2925 1625 
L 3547 1625 
L 3547 1113 
L 2925 1113 
L 2925 0 
L 2297 0 
L 2297 1113 
L 319 1113 
L 319 1709 
L 2194 4666 
z
" transform="scale(0.015625)"/>
       </defs>
       <use xlink:href="#DejaVuSansMono-34"/>
       <use xlink:href="#DejaVuSansMono-30" x="60.205078"/>
       <use xlink:href="#DejaVuSansMono-30" x="120.410156"/>
       <use xlink:href="#DejaVuSansMono-30" x="180.615234"/>
      </g>
     </g>
    </g>
    <g id="xtick_3">
     <g id="line2d_3">
      <g>
       <use xlink:href="#m1eae1cc1ba" x="528.801795" y="404.12" style="stroke: #000000; stroke-width: 0.8"/>
      </g>
     </g>
     <g id="text_3">
      <!-- 6000 -->
      <g transform="translate(516.76117 418.771563) scale(0.1 -0.1)">
       <defs>
        <path id="DejaVuSansMono-36" d="M 3097 4563 
L 3097 3981 
Q 2900 4097 2678 4158 
Q 2456 4219 2216 4219 
Q 1616 4219 1306 3767 
Q 997 3316 997 2438 
Q 1147 2750 1412 2917 
Q 1678 3084 2022 3084 
Q 2697 3084 3067 2670 
Q 3438 2256 3438 1497 
Q 3438 741 3056 325 
Q 2675 -91 1984 -91 
Q 1172 -91 794 492 
Q 416 1075 416 2328 
Q 416 3509 870 4129 
Q 1325 4750 2188 4750 
Q 2419 4750 2650 4701 
Q 2881 4653 3097 4563 
z
M 1972 2591 
Q 1569 2591 1337 2300 
Q 1106 2009 1106 1497 
Q 1106 984 1337 693 
Q 1569 403 1972 403 
Q 2391 403 2603 679 
Q 2816 956 2816 1497 
Q 2816 2041 2603 2316 
Q 2391 2591 1972 2591 
z
" transform="scale(0.015625)"/>
       </defs>
       <use xlink:href="#DejaVuSansMono-36"/>
       <use xlink:href="#DejaVuSansMono-30" x="60.205078"/>
       <use xlink:href="#DejaVuSansMono-30" x="120.410156"/>
       <use xlink:href="#DejaVuSansMono-30" x="180.615234"/>
      </g>
     </g>
    </g>
    <g id="xtick_4">
     <g id="line2d_4">
      <g>
       <use xlink:href="#m1eae1cc1ba" x="691.366669" y="404.12" style="stroke: #000000; stroke-width: 0.8"/>
      </g>
     </g>
     <g id="text_4">
      <!-- 8000 -->
      <g transform="translate(679.326044 418.771563) scale(0.1 -0.1)">
       <defs>
        <path id="DejaVuSansMono-38" d="M 1925 2216 
Q 1503 2216 1273 1980 
Q 1044 1744 1044 1313 
Q 1044 881 1276 642 
Q 1509 403 1925 403 
Q 2350 403 2579 639 
Q 2809 875 2809 1313 
Q 2809 1741 2576 1978 
Q 2344 2216 1925 2216 
z
M 1375 2478 
Q 972 2581 745 2862 
Q 519 3144 519 3541 
Q 519 4097 897 4423 
Q 1275 4750 1925 4750 
Q 2578 4750 2956 4423 
Q 3334 4097 3334 3541 
Q 3334 3144 3107 2862 
Q 2881 2581 2478 2478 
Q 2947 2375 3195 2062 
Q 3444 1750 3444 1253 
Q 3444 622 3041 265 
Q 2638 -91 1925 -91 
Q 1213 -91 811 264 
Q 409 619 409 1247 
Q 409 1747 657 2061 
Q 906 2375 1375 2478 
z
M 1147 3481 
Q 1147 3106 1347 2909 
Q 1547 2713 1925 2713 
Q 2306 2713 2506 2909 
Q 2706 3106 2706 3481 
Q 2706 3863 2507 4063 
Q 2309 4263 1925 4263 
Q 1547 4263 1347 4061 
Q 1147 3859 1147 3481 
z
" transform="scale(0.015625)"/>
       </defs>
       <use xlink:href="#DejaVuSansMono-38"/>
       <use xlink:href="#DejaVuSansMono-30" x="60.205078"/>
       <use xlink:href="#DejaVuSansMono-30" x="120.410156"/>
       <use xlink:href="#DejaVuSansMono-30" x="180.615234"/>
      </g>
     </g>
    </g>
   </g>
   <g id="matplotlib.axis_2">
    <g id="ytick_1">
     <g id="line2d_5">
      <defs>
       <path id="ma34132d814" d="M 0 0 
L -3.5 0 
" style="stroke: #000000; stroke-width: 0.8"/>
      </defs>
      <g>
       <use xlink:href="#ma34132d814" x="41.92" y="386.245503" style="stroke: #000000; stroke-width: 0.8"/>
      </g>
     </g>
     <g id="text_5">
      <!-- 0.00 -->
      <g transform="translate(10.83875 390.071284) scale(0.1 -0.1)">
       <defs>
        <path id="DejaVuSansMono-2e" d="M 1528 953 
L 2316 953 
L 2316 0 
L 1528 0 
L 1528 953 
z
" transform="scale(0.015625)"/>
       </defs>
       <use xlink:href="#DejaVuSansMono-30"/>
       <use xlink:href="#DejaVuSansMono-2e" x="60.205078"/>
       <use xlink:href="#DejaVuSansMono-30" x="120.410156"/>
       <use xlink:href="#DejaVuSansMono-30" x="180.615234"/>
      </g>
     </g>
    </g>
    <g id="ytick_2">
     <g id="line2d_6">
      <g>
       <use xlink:href="#ma34132d814" x="41.92" y="340.579753" style="stroke: #000000; stroke-width: 0.8"/>
      </g>
     </g>
     <g id="text_6">
      <!-- 0.02 -->
      <g transform="translate(10.83875 344.405534) scale(0.1 -0.1)">
       <use xlink:href="#DejaVuSansMono-30"/>
       <use xlink:href="#DejaVuSansMono-2e" x="60.205078"/>
       <use xlink:href="#DejaVuSansMono-30" x="120.410156"/>
       <use xlink:href="#DejaVuSansMono-32" x="180.615234"/>
      </g>
     </g>
    </g>
    <g id="ytick_3">
     <g id="line2d_7">
      <g>
       <use xlink:href="#ma34132d814" x="41.92" y="294.914003" style="stroke: #000000; stroke-width: 0.8"/>
      </g>
     </g>
     <g id="text_7">
      <!-- 0.04 -->
      <g transform="translate(10.83875 298.739784) scale(0.1 -0.1)">
       <use xlink:href="#DejaVuSansMono-30"/>
       <use xlink:href="#DejaVuSansMono-2e" x="60.205078"/>
       <use xlink:href="#DejaVuSansMono-30" x="120.410156"/>
       <use xlink:href="#DejaVuSansMono-34" x="180.615234"/>
      </g>
     </g>
    </g>
    <g id="ytick_4">
     <g id="line2d_8">
      <g>
       <use xlink:href="#ma34132d814" x="41.92" y="249.248252" style="stroke: #000000; stroke-width: 0.8"/>
      </g>
     </g>
     <g id="text_8">
      <!-- 0.06 -->
      <g transform="translate(10.83875 253.074034) scale(0.1 -0.1)">
       <use xlink:href="#DejaVuSansMono-30"/>
       <use xlink:href="#DejaVuSansMono-2e" x="60.205078"/>
       <use xlink:href="#DejaVuSansMono-30" x="120.410156"/>
       <use xlink:href="#DejaVuSansMono-36" x="180.615234"/>
      </g>
     </g>
    </g>
    <g id="ytick_5">
     <g id="line2d_9">
      <g>
       <use xlink:href="#ma34132d814" x="41.92" y="203.582502" style="stroke: #000000; stroke-width: 0.8"/>
      </g>
     </g>
     <g id="text_9">
      <!-- 0.08 -->
      <g transform="translate(10.83875 207.408284) scale(0.1 -0.1)">
       <use xlink:href="#DejaVuSansMono-30"/>
       <use xlink:href="#DejaVuSansMono-2e" x="60.205078"/>
       <use xlink:href="#DejaVuSansMono-30" x="120.410156"/>
       <use xlink:href="#DejaVuSansMono-38" x="180.615234"/>
      </g>
     </g>
    </g>
    <g id="ytick_6">
     <g id="line2d_10">
      <g>
       <use xlink:href="#ma34132d814" x="41.92" y="157.916752" style="stroke: #000000; stroke-width: 0.8"/>
      </g>
     </g>
     <g id="text_10">
      <!-- 0.10 -->
      <g transform="translate(10.83875 161.742534) scale(0.1 -0.1)">
       <defs>
        <path id="DejaVuSansMono-31" d="M 844 531 
L 1825 531 
L 1825 4097 
L 769 3859 
L 769 4434 
L 1819 4666 
L 2450 4666 
L 2450 531 
L 3419 531 
L 3419 0 
L 844 0 
L 844 531 
z
" transform="scale(0.015625)"/>
       </defs>
       <use xlink:href="#DejaVuSansMono-30"/>
       <use xlink:href="#DejaVuSansMono-2e" x="60.205078"/>
       <use xlink:href="#DejaVuSansMono-31" x="120.410156"/>
       <use xlink:href="#DejaVuSansMono-30" x="180.615234"/>
      </g>
     </g>
    </g>
    <g id="ytick_7">
     <g id="line2d_11">
      <g>
       <use xlink:href="#ma34132d814" x="41.92" y="112.251002" style="stroke: #000000; stroke-width: 0.8"/>
      </g>
     </g>
     <g id="text_11">
      <!-- 0.12 -->
      <g transform="translate(10.83875 116.076784) scale(0.1 -0.1)">
       <use xlink:href="#DejaVuSansMono-30"/>
       <use xlink:href="#DejaVuSansMono-2e" x="60.205078"/>
       <use xlink:href="#DejaVuSansMono-31" x="120.410156"/>
       <use xlink:href="#DejaVuSansMono-32" x="180.615234"/>
      </g>
     </g>
    </g>
    <g id="ytick_8">
     <g id="line2d_12">
      <g>
       <use xlink:href="#ma34132d814" x="41.92" y="66.585252" style="stroke: #000000; stroke-width: 0.8"/>
      </g>
     </g>
     <g id="text_12">
      <!-- 0.14 -->
      <g transform="translate(10.83875 70.411033) scale(0.1 -0.1)">
       <use xlink:href="#DejaVuSansMono-30"/>
       <use xlink:href="#DejaVuSansMono-2e" x="60.205078"/>
       <use xlink:href="#DejaVuSansMono-31" x="120.410156"/>
       <use xlink:href="#DejaVuSansMono-34" x="180.615234"/>
      </g>
     </g>
    </g>
    <g id="ytick_9">
     <g id="line2d_13">
      <g>
       <use xlink:href="#ma34132d814" x="41.92" y="20.919502" style="stroke: #000000; stroke-width: 0.8"/>
      </g>
     </g>
     <g id="text_13">
      <!-- 0.16 -->
      <g transform="translate(10.83875 24.745283) scale(0.1 -0.1)">
       <use xlink:href="#DejaVuSansMono-30"/>
       <use xlink:href="#DejaVuSansMono-2e" x="60.205078"/>
       <use xlink:href="#DejaVuSansMono-31" x="120.410156"/>
       <use xlink:href="#DejaVuSansMono-36" x="180.615234"/>
      </g>
     </g>
    </g>
   </g>
   <g id="line2d_14">
    <path d="M 41.838718 99.128108 
L 42.082565 88.677944 
L 42.163847 88.104782 
L 42.326412 83.934054 
L 42.407695 85.490819 
L 42.488977 89.582513 
L 42.570259 87.701323 
L 42.651542 80.413205 
L 42.732824 82.749839 
L 42.895389 80.088919 
L 42.976672 75.666834 
L 43.057954 75.833666 
L 43.139237 75.721048 
L 43.220519 73.999125 
L 43.383084 66.045371 
L 43.464366 73.923227 
L 43.545649 73.583079 
L 43.708214 79.849906 
L 43.789496 79.942794 
L 43.870778 79.682306 
L 43.952061 81.296176 
L 44.033343 78.195282 
L 44.195908 87.50996 
L 44.277191 81.848468 
L 44.358473 84.092255 
L 44.439756 82.822823 
L 44.521038 83.849081 
L 44.683603 89.570304 
L 44.764885 89.93401 
L 44.846168 93.456565 
L 44.92745 92.424434 
L 45.008733 93.879928 
L 45.090015 97.695992 
L 45.57771 81.847199 
L 45.658992 79.689709 
L 45.821557 72.522018 
L 45.902839 73.459461 
L 45.984122 77.110153 
L 46.065404 75.990523 
L 46.634381 90.69522 
L 46.796946 91.267061 
L 46.959511 94.104406 
L 47.040794 93.862736 
L 47.284641 85.217468 
L 47.365923 88.078509 
L 47.447206 87.307836 
L 47.609771 82.538534 
L 47.691053 83.606396 
L 47.853618 77.529188 
L 47.9349 77.523598 
L 48.016183 77.208124 
L 48.178748 83.933572 
L 48.26003 84.738606 
L 48.422595 89.70458 
L 48.503877 87.503046 
L 48.747725 95.287489 
L 48.829007 96.656107 
L 49.072854 87.783614 
L 49.154137 86.694558 
L 49.235419 82.672634 
L 49.316702 84.486924 
L 49.397984 84.157616 
L 49.560549 82.068645 
L 49.641831 83.23605 
L 49.723114 87.244644 
L 49.804396 84.592294 
L 49.885679 85.655536 
L 50.048244 90.557918 
L 50.129526 90.122715 
L 50.210809 90.505875 
L 50.292091 91.929567 
L 50.454656 89.508598 
L 50.535938 89.970483 
L 50.617221 93.971581 
L 50.861068 90.671443 
L 50.94235 90.034827 
L 51.023633 87.012409 
L 51.104915 87.683661 
L 51.26748 89.424844 
L 51.430045 86.437358 
L 51.511328 89.326485 
L 51.59261 88.863339 
L 51.673892 87.48369 
L 51.836457 90.140946 
L 51.999022 88.101883 
L 52.405434 92.350327 
L 52.486717 92.284509 
L 52.567999 90.702433 
L 52.649282 90.809111 
L 52.730564 90.838715 
L 52.811847 94.722026 
L 53.055694 85.581932 
L 53.136976 83.725685 
L 53.218259 84.257624 
L 53.543388 89.86279 
L 53.624671 86.999622 
L 53.787236 92.87511 
L 53.868518 92.18575 
L 54.112365 94.817621 
L 54.193648 92.806205 
L 54.27493 95.328244 
L 54.356213 93.449731 
L 54.437495 95.21514 
L 54.518778 94.198074 
L 54.60006 89.61094 
L 54.762625 92.845774 
L 54.843907 92.84851 
L 54.92519 90.397301 
L 55.006472 91.60753 
L 55.087755 90.131963 
L 55.412884 96.939047 
L 55.494167 96.360438 
L 55.656732 86.074746 
L 55.738014 89.337934 
L 55.900579 92.537391 
L 55.981862 92.297239 
L 56.063144 92.258249 
L 56.144426 92.040488 
L 56.469556 100.260515 
L 56.713403 91.721613 
L 56.794686 93.170054 
L 56.875968 92.450325 
L 57.119816 95.917569 
L 57.282381 102.280362 
L 57.444945 94.545228 
L 57.60751 99.079702 
L 57.851358 97.495524 
L 57.93264 98.17173 
L 58.095205 92.844553 
L 58.339052 105.953237 
L 58.420335 105.643972 
L 58.501617 107.786931 
L 58.664182 103.422033 
L 58.745464 103.09387 
L 58.826747 107.36366 
L 58.908029 106.623894 
L 59.070594 110.728803 
L 59.151877 110.96887 
L 59.314441 98.422776 
L 59.558289 109.000765 
L 59.639571 106.040783 
L 59.720854 108.937806 
L 59.802136 108.299964 
L 59.883418 105.472117 
L 59.964701 106.64851 
L 60.127266 121.778632 
L 60.371113 115.465201 
L 61.346502 155.436591 
L 61.671632 159.738128 
L 62.321892 189.989124 
L 62.403174 188.610516 
L 62.647021 200.091234 
L 62.728304 201.122865 
L 62.890869 210.403328 
L 62.972151 208.97938 
L 63.215998 224.912615 
L 63.297281 221.106721 
L 63.541128 234.661966 
L 63.703693 226.468226 
L 63.94754 236.194681 
L 64.028823 233.542314 
L 64.191388 243.127085 
L 64.27267 235.001568 
L 64.353953 237.521771 
L 64.5978 254.860532 
L 64.679082 254.778342 
L 64.760365 257.265178 
L 64.841647 264.139798 
L 65.004212 256.494919 
L 65.166777 268.911914 
L 65.248059 269.111335 
L 65.410624 263.565448 
L 65.491907 263.674081 
L 65.654471 268.629882 
L 65.898319 282.706574 
L 66.060884 279.515538 
L 66.467296 292.707235 
L 66.548578 292.990527 
L 66.711143 287.497166 
L 66.873708 293.23957 
L 67.117555 304.561082 
L 67.198838 302.95342 
L 67.361403 297.280077 
L 67.686532 309.164134 
L 67.767815 309.500179 
L 67.849097 308.522002 
L 67.93038 309.10701 
L 68.011662 311.517463 
L 68.174227 318.000336 
L 68.255509 318.92913 
L 68.336792 318.497879 
L 68.418074 318.553135 
L 68.499357 316.94223 
L 68.661922 320.407811 
L 68.743204 320.229103 
L 68.905769 315.81641 
L 69.312181 327.450716 
L 69.393464 327.216911 
L 69.556028 328.057223 
L 69.799876 334.571394 
L 70.043723 328.820887 
L 70.125006 328.399385 
L 70.28757 330.958148 
L 70.368853 329.972277 
L 70.450135 330.062861 
L 70.531418 330.866097 
L 70.6127 329.582721 
L 70.856547 336.297732 
L 71.100395 334.495283 
L 71.181677 336.568016 
L 71.26296 336.506024 
L 71.344242 335.533411 
L 71.506807 339.292058 
L 71.588089 338.544565 
L 71.669372 338.876268 
L 71.750654 338.58167 
L 71.831937 337.869042 
L 71.994502 332.879121 
L 72.075784 333.385195 
L 72.238349 337.402653 
L 72.400914 336.946092 
L 72.482196 333.582567 
L 72.563479 334.405339 
L 72.644761 332.859867 
L 72.807326 337.715947 
L 72.888608 337.654676 
L 73.051173 334.126315 
L 73.132456 335.076121 
L 73.213738 335.335725 
L 73.538868 342.406298 
L 73.62015 341.726877 
L 73.782715 343.77999 
L 73.94528 345.981069 
L 74.026562 346.501813 
L 74.107845 346.402552 
L 74.27041 345.932364 
L 74.351692 346.463513 
L 74.514257 349.116316 
L 74.758104 350.19685 
L 74.839387 350.729648 
L 75.083234 354.783669 
L 75.245799 354.844717 
L 75.327081 354.425308 
L 75.489646 352.097544 
L 75.570929 352.426837 
L 75.733494 349.696778 
L 75.896059 350.288252 
L 75.977341 350.179887 
L 76.058623 349.61448 
L 76.139906 348.161482 
L 76.221188 349.044638 
L 76.383753 348.56788 
L 76.546318 352.350177 
L 76.790165 354.244201 
L 76.95273 356.869659 
L 77.115295 354.053819 
L 77.440425 350.527634 
L 77.521707 352.199226 
L 77.60299 352.189625 
L 77.684272 352.320755 
L 77.765555 353.094009 
L 77.928119 357.421285 
L 78.009402 356.763121 
L 78.090684 356.894116 
L 78.171967 354.084328 
L 78.253249 354.488848 
L 78.578379 352.012193 
L 78.659661 352.941736 
L 78.740944 352.572138 
L 78.984791 358.24851 
L 79.228638 352.758361 
L 79.391203 354.236848 
L 79.472486 353.493348 
L 79.553768 355.502431 
L 79.635051 353.500831 
L 79.96018 357.564781 
L 80.041463 358.146485 
L 80.28531 357.762168 
L 80.366593 357.616945 
L 80.447875 360.126201 
L 80.61044 357.992901 
L 80.854287 360.036405 
L 80.93557 359.888807 
L 81.016852 359.091231 
L 81.260699 360.266827 
L 81.585829 365.314081 
L 81.992241 370.071166 
L 82.073524 370.246787 
L 82.154806 370.197839 
L 82.236089 370.161709 
L 82.317371 367.636809 
L 82.398653 367.959303 
L 82.479936 367.585272 
L 82.561218 366.650299 
L 82.642501 367.518912 
L 83.048913 357.957497 
L 83.130195 360.026065 
L 83.211478 358.889044 
L 83.29276 359.115546 
L 83.374043 359.985394 
L 83.455325 358.912411 
L 83.536608 362.29145 
L 83.61789 362.273209 
L 83.861737 367.154254 
L 83.94302 367.148783 
L 84.024302 367.935241 
L 84.105585 367.917272 
L 84.511997 369.117745 
L 84.593279 368.906467 
L 84.755844 370.564665 
L 84.918409 369.737382 
L 84.999691 369.930388 
L 85.162256 370.719873 
L 85.406104 370.833318 
L 85.487386 368.635818 
L 85.568668 368.740331 
L 85.731233 370.007657 
L 85.812516 368.967444 
L 85.893798 368.988705 
L 86.056363 368.116691 
L 86.137646 366.387397 
L 86.218928 366.797963 
L 86.381493 370.08583 
L 86.462775 369.543827 
L 86.544058 369.568796 
L 86.62534 369.467107 
L 86.95047 372.601368 
L 87.031752 372.201054 
L 87.194317 370.519107 
L 87.2756 370.604369 
L 87.356882 370.511956 
L 87.438165 371.452921 
L 87.519447 371.281188 
L 87.600729 370.97194 
L 87.682012 370.217342 
L 87.763294 370.260144 
L 87.844577 370.246022 
L 88.007142 371.831418 
L 88.088424 371.352819 
L 88.169706 372.150456 
L 88.250989 371.707093 
L 88.494836 373.029002 
L 88.576119 373.351624 
L 88.657401 373.235471 
L 88.819966 371.10779 
L 88.901248 371.81262 
L 88.982531 369.668386 
L 89.063813 370.268056 
L 89.145096 369.905219 
L 89.226378 370.108042 
L 89.388943 369.093239 
L 89.714073 371.85516 
L 89.876638 373.788456 
L 89.95792 373.924333 
L 90.039202 373.530712 
L 90.201767 374.887936 
L 90.28305 374.416742 
L 90.445615 375.061991 
L 90.689462 374.205799 
L 90.770744 374.427277 
L 90.933309 375.742597 
L 91.502286 377.754087 
L 91.746134 376.473297 
L 91.827416 376.266633 
L 91.908699 376.346504 
L 91.989981 376.405576 
L 92.152546 374.7491 
L 92.233828 374.876598 
L 92.477676 375.803118 
L 92.802805 374.579117 
L 93.209218 376.012209 
L 93.2905 375.682854 
L 93.778195 377.110125 
L 94.022042 377.519742 
L 94.509736 378.790877 
L 94.753584 378.586941 
L 94.834866 378.694446 
L 94.997431 379.325201 
L 95.159996 377.92288 
L 95.322561 378.246944 
L 95.403843 378.138051 
L 95.647691 377.276824 
L 95.728973 377.284767 
L 95.810255 377.441488 
L 95.891538 378.152155 
L 96.135385 377.026506 
L 96.541797 375.5648 
L 96.62308 375.602904 
L 96.704362 376.222717 
L 96.785645 376.090842 
L 96.94821 376.707003 
L 97.192057 378.341419 
L 97.273339 378.780776 
L 97.354622 378.749168 
L 97.517187 378.200825 
L 97.598469 378.544365 
L 97.842316 377.654718 
L 98.086164 378.342575 
L 98.330011 379.429217 
L 98.573858 380.931927 
L 98.655141 380.98845 
L 98.736423 380.737029 
L 98.817706 379.599223 
L 98.898988 379.736551 
L 98.980271 379.688574 
L 99.061553 379.914947 
L 99.142835 379.804711 
L 99.3054 380.078006 
L 99.386683 379.998979 
L 99.467965 379.478005 
L 99.549248 379.801514 
L 99.63053 380.701096 
L 99.711812 380.498952 
L 99.95566 380.191096 
L 100.118225 379.071677 
L 100.28079 377.77311 
L 100.362072 377.670069 
L 100.524637 377.914039 
L 100.605919 377.939499 
L 100.687202 377.750185 
L 100.931049 378.639119 
L 101.093614 380.417119 
L 101.256179 379.113106 
L 101.337461 379.08317 
L 101.418744 378.917148 
L 101.500026 379.149187 
L 101.581308 378.577647 
L 101.662591 378.653481 
L 101.825156 378.625737 
L 101.906438 378.777373 
L 101.987721 380.048016 
L 102.069003 379.862169 
L 102.150286 380.133597 
L 102.31285 379.459419 
L 102.394133 379.887511 
L 102.475415 379.767984 
L 102.556698 380.0472 
L 102.719263 379.196592 
L 102.800545 379.343024 
L 102.96311 379.440702 
L 103.125675 380.379881 
L 103.206957 380.359922 
L 103.450805 380.958044 
L 103.613369 380.293791 
L 103.694652 380.667267 
L 103.775934 380.597806 
L 103.857217 380.537992 
L 104.019782 380.704232 
L 104.182346 380.683764 
L 104.263629 380.847577 
L 104.344911 381.509459 
L 104.426194 381.485539 
L 104.751324 380.304882 
L 104.832606 380.397127 
L 105.239018 379.462573 
L 105.564148 380.374991 
L 105.64543 380.259793 
L 105.726713 380.424518 
L 105.889278 380.114465 
L 105.97056 380.713981 
L 106.133125 380.282346 
L 106.214407 380.427379 
L 106.458255 380.200394 
L 106.539537 380.207776 
L 106.945949 381.858799 
L 107.027232 381.834539 
L 107.108514 381.769796 
L 107.271079 382.025705 
L 107.433644 381.14604 
L 107.514926 381.016299 
L 107.921339 379.360677 
L 108.083903 378.831349 
L 108.246468 379.594201 
L 108.490316 377.236039 
L 108.571598 377.415558 
L 108.97801 378.38166 
L 109.059293 378.013519 
L 109.221858 378.716874 
L 109.30314 380.647132 
L 109.384422 380.387152 
L 109.465705 380.929415 
L 109.546987 380.77609 
L 109.709552 380.676911 
L 109.790835 380.719414 
L 110.034682 381.073326 
L 110.115964 380.86211 
L 110.197247 381.277085 
L 110.278529 381.203769 
L 110.847506 381.814333 
L 110.928789 382.240212 
L 111.010071 382.124169 
L 111.091354 382.453665 
L 111.253918 382.306602 
L 111.497766 382.663916 
L 111.579048 382.310331 
L 111.660331 382.335828 
L 111.741613 382.325069 
L 111.904178 382.039899 
L 111.98546 382.192355 
L 112.31059 381.561947 
L 112.391873 381.942751 
L 112.473155 381.837373 
L 112.63572 380.996468 
L 112.798285 381.054094 
L 113.204697 380.593126 
L 113.285979 380.328769 
L 113.448544 381.41143 
L 113.529827 381.307453 
L 114.017521 382.54819 
L 114.180086 382.703398 
L 114.261369 382.846921 
L 114.342651 382.794022 
L 114.505216 382.575625 
L 114.749063 382.706412 
L 114.830346 382.465564 
L 114.911628 382.822333 
L 114.992911 382.609228 
L 115.31804 383.002718 
L 115.561888 382.547752 
L 115.805735 383.203412 
L 115.9683 383.233016 
L 116.130865 383.123133 
L 116.374712 383.731011 
L 116.455994 383.643131 
L 116.699842 383.057401 
L 116.862407 383.052362 
L 116.943689 382.898554 
L 117.106254 383.018744 
L 117.268819 383.132546 
L 117.431384 383.773001 
L 117.675231 382.983713 
L 117.756513 383.264373 
L 117.919078 382.780661 
L 118.081643 382.691962 
L 118.244208 382.334947 
L 118.32549 382.346157 
L 118.488055 382.702746 
L 118.569338 382.681798 
L 118.65062 383.074154 
L 118.731903 382.909332 
L 118.894467 382.438507 
L 119.057032 382.363972 
L 119.219597 382.591562 
L 119.30088 382.400331 
L 119.382162 382.438835 
L 119.626009 382.603176 
L 119.707292 382.545909 
L 119.788574 382.802294 
L 119.869857 382.440739 
L 119.951139 382.566533 
L 120.032422 382.545907 
L 120.113704 382.793259 
L 120.276269 382.368391 
L 120.438834 382.913262 
L 120.520116 382.837541 
L 120.601399 382.733466 
L 120.763964 383.106388 
L 120.926528 382.451827 
L 121.007811 382.802241 
L 121.089093 382.780064 
L 121.251658 382.213185 
L 121.332941 382.442559 
L 121.414223 382.403382 
L 121.576788 381.977742 
L 121.820635 382.391383 
L 121.901918 381.906858 
L 122.064483 382.480927 
L 122.145765 382.455726 
L 122.30833 382.715204 
L 122.470895 383.20535 
L 122.552177 383.276397 
L 122.63346 382.8375 
L 122.714742 383.467521 
L 122.796024 383.281426 
L 122.958589 383.157376 
L 123.283719 382.670921 
L 123.365002 382.655282 
L 123.446284 383.068512 
L 123.527566 382.996336 
L 123.771414 383.482667 
L 124.015261 383.874115 
L 124.096543 383.636136 
L 124.177826 383.728818 
L 124.259108 383.746138 
L 124.502956 383.529232 
L 124.584238 383.598992 
L 124.66552 383.374462 
L 124.828085 383.580897 
L 124.99065 383.106597 
L 125.397062 383.276588 
L 125.64091 383.205306 
L 125.722192 383.652979 
L 125.803475 383.413746 
L 125.884757 383.443141 
L 126.047322 383.425971 
L 126.128604 383.338244 
L 126.209887 382.952713 
L 126.372452 383.224349 
L 126.453734 382.987738 
L 126.535017 383.216539 
L 126.778864 382.571251 
L 126.941429 382.319181 
L 127.022711 382.696757 
L 127.185276 381.578856 
L 127.266558 381.717174 
L 127.347841 381.268099 
L 127.429123 381.867711 
L 127.510406 381.625689 
L 127.591688 380.473537 
L 127.672971 380.540262 
L 127.754253 380.557428 
L 127.835536 380.445123 
L 127.916818 381.284983 
L 127.9981 381.1519 
L 128.079383 381.190946 
L 128.160665 381.556381 
L 128.241948 381.248152 
L 128.32323 381.64821 
L 128.485795 383.037359 
L 128.97349 384.199801 
L 129.217337 383.546221 
L 129.298619 383.556414 
L 129.461184 383.08729 
L 129.705032 382.529685 
L 129.786314 382.217739 
L 129.867596 382.974137 
L 129.948879 382.897215 
L 130.192726 383.293723 
L 130.274009 383.199561 
L 130.355291 382.898091 
L 130.436573 383.012583 
L 130.599138 383.560468 
L 130.680421 383.471154 
L 130.842986 383.683556 
L 131.005551 383.736496 
L 131.249398 384.293641 
L 131.574528 383.78925 
L 131.737092 383.922974 
L 132.224787 383.203797 
L 132.30607 383.37692 
L 132.468634 383.542497 
L 132.549917 383.452878 
L 132.631199 383.542535 
L 132.793764 383.347639 
L 132.875047 383.397382 
L 133.037611 383.806936 
L 133.200176 383.556375 
L 133.362741 383.48807 
L 133.525306 383.676823 
L 133.850436 382.991259 
L 133.931718 383.070578 
L 134.013001 382.92719 
L 134.094283 382.977142 
L 134.256848 382.638795 
L 134.33813 382.791356 
L 135.069672 384.311811 
L 135.150955 384.147303 
L 135.232237 384.298934 
L 135.394802 384.221319 
L 135.638649 384.234456 
L 135.719932 384.325637 
L 136.045062 383.935924 
L 136.288909 384.260247 
L 136.532756 383.702957 
L 136.857886 384.410141 
L 136.939168 384.343528 
L 137.101733 384.214117 
L 137.264298 384.553512 
L 137.345581 384.474439 
L 137.426863 384.449699 
L 137.508145 384.184799 
L 137.589428 384.228316 
L 137.751993 384.184662 
L 138.239687 384.187347 
L 138.32097 384.453654 
L 138.402252 384.373021 
L 138.727382 384.741097 
L 138.889947 384.528136 
L 139.052512 384.66391 
L 139.296359 384.529183 
L 139.458924 384.543238 
L 139.540206 384.503715 
L 139.702771 384.823062 
L 140.027901 384.894358 
L 140.109183 385.006189 
L 140.190466 384.93512 
L 140.596878 384.928529 
L 140.840725 384.86579 
L 140.922008 384.840594 
L 141.084573 384.922672 
L 141.247138 384.38422 
L 141.65355 384.476453 
L 141.897397 384.501736 
L 142.059962 384.998312 
L 142.222527 384.989055 
L 142.466374 384.881454 
L 142.710221 384.693987 
L 142.954069 384.829551 
L 143.035351 384.893037 
L 143.197916 384.627114 
L 143.279198 384.712297 
L 143.523046 384.844168 
L 143.685611 384.829026 
L 143.848176 384.615399 
L 144.01074 384.790384 
L 144.173305 384.653774 
L 144.33587 384.666478 
L 144.498435 384.427358 
L 144.661 384.666496 
L 145.148695 384.647818 
L 145.392542 384.69199 
L 145.555107 384.653214 
L 145.717672 384.623633 
L 145.880236 384.267913 
L 146.042801 384.351325 
L 146.286649 384.573582 
L 146.449214 384.542164 
L 146.530496 384.694085 
L 146.693061 385.147285 
L 146.855626 384.900708 
L 147.262038 384.806962 
L 147.34332 384.618571 
L 147.505885 383.664388 
L 147.66845 383.863682 
L 147.912297 383.779383 
L 147.99358 383.038845 
L 148.074862 383.111374 
L 148.156145 383.232376 
L 148.31871 384.088395 
L 148.399992 384.101291 
L 148.481274 383.839594 
L 148.562557 383.924323 
L 148.725122 383.962896 
L 148.806404 384.720393 
L 148.887687 384.58341 
L 149.050251 384.566873 
L 149.212816 384.529718 
L 149.375381 384.820365 
L 149.619229 384.766893 
L 149.700511 384.906214 
L 149.781793 384.755921 
L 149.944358 384.981061 
L 150.106923 384.65427 
L 150.269488 384.591692 
L 150.35077 384.541743 
L 150.432053 384.660118 
L 150.513335 384.568369 
L 150.594618 384.647805 
L 150.757183 384.604574 
L 151.00103 384.788646 
L 151.163595 384.875658 
L 151.244877 384.408635 
L 151.32616 384.438058 
L 151.488725 384.516075 
L 151.732572 384.205202 
L 151.976419 383.519335 
L 152.138984 383.93451 
L 152.464114 383.912308 
L 152.789244 384.789226 
L 153.114373 384.900867 
L 153.276938 384.854714 
L 153.68335 385.015759 
L 154.089763 385.100265 
L 154.414892 384.870027 
L 154.577457 384.925272 
L 154.740022 384.993501 
L 154.902587 385.001662 
L 155.065152 384.961692 
L 155.146434 384.940526 
L 155.471564 384.301421 
L 155.715411 384.352151 
L 155.877976 384.501256 
L 155.959259 384.340275 
L 156.040541 384.530687 
L 156.121823 384.310677 
L 156.284388 384.64362 
L 156.528236 384.404407 
L 156.609518 384.374201 
L 156.772083 384.6978 
L 156.853365 384.455677 
L 156.934648 384.683836 
L 157.01593 384.626918 
L 157.422342 384.632039 
L 157.584907 384.591876 
L 157.66619 384.896926 
L 157.747472 384.805448 
L 158.153884 384.908467 
L 158.235167 385.02725 
L 158.479014 384.876207 
L 158.560297 384.986178 
L 158.722861 384.701094 
L 158.885426 384.675979 
L 158.966709 384.080657 
L 159.047991 384.191049 
L 159.129274 384.254808 
L 159.291838 384.232453 
L 159.373121 384.225006 
L 159.535686 384.492672 
L 159.698251 384.24963 
L 159.779533 384.854934 
L 159.860816 384.825424 
L 160.34851 384.997207 
L 160.592357 385.337996 
L 161.811594 385.241398 
L 162.055441 385.305781 
L 162.136724 385.162114 
L 162.218006 385.208521 
L 162.380571 385.294314 
L 162.868266 385.222951 
L 163.030831 385.322756 
L 163.193395 385.242429 
L 163.437243 385.046756 
L 163.843655 384.998315 
L 164.00622 385.118821 
L 164.33135 385.390543 
L 164.575197 385.304621 
L 164.900327 385.169961 
L 165.306739 384.663883 
L 165.469304 384.812689 
L 165.631869 384.731665 
L 166.36341 385.299838 
L 166.525975 385.20463 
L 166.851105 385.270983 
L 167.01367 385.139267 
L 167.3388 385.066365 
L 167.501365 384.541414 
L 167.582647 384.58282 
L 167.663929 384.45077 
L 167.745212 384.519575 
L 167.989059 384.485075 
L 168.070342 384.475965 
L 168.151624 384.598173 
L 168.314189 385.178084 
L 168.395471 385.157078 
L 168.558036 385.306277 
L 169.370861 385.104266 
L 169.777273 385.226928 
L 169.939838 385.211778 
L 170.102403 385.080011 
L 170.34625 384.652832 
L 170.67138 384.520904 
L 170.752662 384.411148 
L 170.915227 383.933985 
L 171.077792 384.253322 
L 171.484204 384.469035 
L 171.565486 384.430394 
L 171.728051 384.936586 
L 172.459593 384.954416 
L 172.866005 385.144333 
L 172.947288 385.080943 
L 173.191135 385.288182 
L 173.3537 385.274539 
L 173.516265 385.278131 
L 173.760112 384.929086 
L 173.922677 384.963576 
L 174.00396 384.931773 
L 174.247807 385.131651 
L 174.329089 384.813713 
L 174.410372 384.933314 
L 174.572937 384.897782 
L 174.898066 384.763576 
L 175.060631 384.466556 
L 175.304479 384.939344 
L 175.710891 384.751744 
L 175.873456 385.002157 
L 176.604997 385.333096 
L 176.767562 385.011725 
L 176.930127 385.100191 
L 177.092692 385.04745 
L 177.336539 385.123657 
L 177.417822 384.968099 
L 177.580387 385.29024 
L 177.824234 385.270302 
L 177.986799 385.005687 
L 178.637058 385.134246 
L 178.799623 385.395743 
L 178.962188 385.335802 
L 179.124753 384.920574 
L 179.287318 384.991844 
L 179.775013 384.663755 
L 179.937577 385.101881 
L 180.262707 385.141619 
L 180.425272 385.276826 
L 180.506554 385.487903 
L 180.587837 385.454325 
L 180.912967 385.348727 
L 181.075532 384.558198 
L 181.156814 384.581886 
L 181.563226 384.601815 
L 181.725791 384.692473 
L 181.888356 385.332062 
L 182.050921 385.235149 
L 182.213486 385.353926 
L 182.619898 385.203016 
L 182.782463 385.414818 
L 182.863745 385.37364 
L 183.02631 385.055927 
L 183.676569 385.17819 
L 183.839134 385.4829 
L 184.001699 385.36825 
L 184.326829 385.505342 
L 184.651959 385.44929 
L 184.814524 385.499175 
L 185.139653 385.463896 
L 185.383501 385.48849 
L 185.546066 385.37842 
L 185.952478 385.467096 
L 186.440172 385.654927 
L 186.602737 385.291635 
L 186.846585 385.291317 
L 187.171714 385.22454 
L 187.252997 385.200402 
L 187.415562 385.504818 
L 187.578126 385.432784 
L 188.065821 385.500984 
L 188.228386 385.40494 
L 188.472233 385.459552 
L 188.878645 385.403606 
L 189.04121 385.537498 
L 189.36634 385.644394 
L 189.772752 385.68457 
L 190.0166 385.560171 
L 190.991989 385.457686 
L 191.154554 384.91608 
L 191.317119 385.080824 
L 191.479683 385.085279 
L 191.723531 384.9262 
L 191.804813 384.810493 
L 191.967378 385.290279 
L 192.292508 385.28489 
L 192.861485 385.495677 
L 193.593027 385.309843 
L 193.836874 385.518956 
L 193.999439 385.470483 
L 194.730981 385.789735 
L 194.974828 385.651037 
L 195.787653 385.560032 
L 196.437912 385.725788 
L 196.600477 385.619536 
L 196.844324 385.625018 
L 199.120232 385.662133 
L 199.282797 385.629521 
L 199.445362 385.601636 
L 199.607927 385.655866 
L 199.851774 385.612682 
L 199.933057 385.374599 
L 200.014339 385.475338 
L 200.664599 385.414595 
L 200.827164 385.675434 
L 200.989728 385.558634 
L 201.639988 385.490183 
L 201.883835 385.567149 
L 202.127683 385.64386 
L 202.69666 385.693575 
L 203.346919 385.663477 
L 203.509484 385.531381 
L 203.753331 385.514598 
L 204.159744 384.819462 
L 204.322308 384.949494 
L 204.728721 384.473142 
L 204.891285 385.018025 
L 205.297698 385.124554 
L 205.37898 384.93538 
L 205.541545 385.283136 
L 205.70411 385.33864 
L 206.02924 384.967032 
L 206.435652 385.061506 
L 206.598217 385.032633 
L 207.004629 385.280553 
L 207.167194 385.243829 
L 207.329759 385.279703 
L 207.654888 385.507053 
L 207.817453 385.542069 
L 208.0613 385.665578 
L 208.467713 385.755632 
L 208.955407 385.84414 
L 209.443102 385.755894 
L 210.174644 385.742651 
L 210.987468 385.81364 
L 211.881575 385.848309 
L 212.775682 385.812026 
L 212.856964 385.771797 
L 213.019529 385.876444 
L 213.100812 385.885494 
L 213.344659 385.68724 
L 213.669789 385.634899 
L 213.913636 385.606261 
L 214.157483 385.753177 
L 214.482613 385.732122 
L 215.37672 385.838817 
L 215.783132 385.733707 
L 215.945697 385.313601 
L 216.595956 385.252046 
L 216.758521 385.643172 
L 217.002369 385.595907 
L 217.73391 385.791498 
L 218.221605 385.845855 
L 218.465452 385.759169 
L 219.440842 385.641933 
L 219.603406 385.432138 
L 219.847254 385.510221 
L 220.009819 385.46058 
L 220.172384 385.566199 
L 220.253666 385.498212 
L 220.416231 385.664056 
L 220.497513 385.698561 
L 220.660078 385.536914 
L 221.472903 385.75479 
L 221.71675 385.766321 
L 221.879315 385.794948 
L 221.960597 385.412091 
L 222.04188 385.432202 
L 222.529574 385.345291 
L 222.692139 385.267141 
L 222.773422 385.639583 
L 222.854704 385.61631 
L 223.261116 385.63634 
L 223.423681 385.637749 
L 223.586246 385.684452 
L 223.748811 385.569528 
L 224.317788 385.589333 
L 224.39907 385.515729 
L 224.480353 385.625575 
L 224.561635 385.558403 
L 224.7242 385.530112 
L 225.699589 385.803683 
L 226.512414 385.605766 
L 226.593696 385.465749 
L 226.674978 385.514005 
L 227.000108 385.57465 
L 227.162673 385.593106 
L 227.487803 385.792225 
L 227.650368 385.722219 
L 228.788322 385.901788 
L 229.519864 385.814559 
L 229.763711 385.840526 
L 230.657818 385.644689 
L 231.06423 385.797286 
L 231.226795 385.761192 
L 231.38936 385.803268 
L 231.71449 385.61756 
L 232.446031 385.705158 
L 232.608596 385.803081 
L 232.771161 385.777042 
L 232.933726 385.81188 
L 233.665268 385.741413 
L 233.909115 385.527999 
L 234.152963 385.599723 
L 234.39681 385.589338 
L 234.478092 385.604416 
L 234.72194 385.936774 
L 234.965787 385.727892 
L 235.128352 385.793836 
L 235.453482 385.741034 
L 235.616046 385.537674 
L 235.697329 385.487592 
L 235.859894 385.588263 
L 236.185024 385.521776 
L 236.266306 385.46019 
L 236.428871 385.744647 
L 236.672718 385.819688 
L 236.997848 385.844532 
L 237.241695 385.865838 
L 237.810672 385.895665 
L 238.217084 385.947895 
L 238.786062 385.91085 
L 240.574275 385.890177 
L 240.899405 385.929267 
L 240.980687 385.826809 
L 241.143252 385.490526 
L 241.793512 385.421643 
L 241.956077 385.751009 
L 242.687618 385.848291 
L 243.337878 385.89112 
L 243.663008 385.900855 
L 244.557115 385.920526 
L 245.288656 385.973887 
L 246.264046 385.89076 
L 247.564565 385.944784 
L 247.889694 385.852418 
L 248.296107 385.831143 
L 248.539954 385.819262 
L 249.027649 385.953666 
L 249.840473 385.856671 
L 250.003038 385.719162 
L 250.246885 385.871697 
L 251.140992 385.720564 
L 251.303557 385.683406 
L 251.384839 385.546711 
L 251.547404 385.703676 
L 251.872534 385.804284 
L 251.953816 385.810992 
L 252.116381 385.603419 
L 252.278946 385.740993 
L 252.847923 385.727136 
L 253.010488 385.776278 
L 253.335618 385.782751 
L 253.660747 385.809702 
L 254.961266 385.915807 
L 255.855373 385.871586 
L 256.343068 385.888331 
L 258.293846 385.970748 
L 258.456411 386.040328 
L 258.618976 385.961267 
L 259.025388 385.856445 
L 259.675648 385.854648 
L 259.919495 385.898233 
L 261.138732 385.983062 
L 261.626426 386.041882 
L 262.601815 385.986698 
L 262.76438 385.77727 
L 263.41464 385.706058 
L 263.577205 385.924409 
L 265.365418 385.806703 
L 266.584655 386.058892 
L 266.74722 385.99958 
L 267.397479 385.925447 
L 267.803891 385.974642 
L 268.047739 386.008352 
L 268.210304 385.054893 
L 268.291586 385.088957 
L 268.454151 384.702351 
L 268.616716 384.562086 
L 268.860563 383.769312 
L 268.941846 384.657313 
L 269.023128 384.645991 
L 269.10441 384.621538 
L 269.185693 384.886833 
L 269.348258 384.497248 
L 269.42954 384.476463 
L 269.673387 385.165649 
L 269.998517 385.261372 
L 270.242364 385.848794 
L 270.486212 385.892756 
L 270.648777 385.843261 
L 270.973906 385.926393 
L 271.380319 385.983341 
L 272.355708 385.997889 
L 272.518273 385.890252 
L 273.737509 385.750666 
L 274.062639 385.782214 
L 274.550334 385.928804 
L 274.956746 385.935241 
L 275.363158 385.992702 
L 276.0947 385.934967 
L 276.41983 385.925298 
L 277.151372 385.97115 
L 277.313936 385.872457 
L 278.126761 385.889794 
L 278.289326 385.710789 
L 278.695738 385.774547 
L 279.42728 385.887304 
L 279.75241 385.697775 
L 280.158822 385.831718 
L 280.483952 385.872512 
L 280.727799 385.981022 
L 281.865753 385.942807 
L 282.1096 385.796447 
L 282.353448 385.86934 
L 282.75986 385.964615 
L 282.922425 386.072239 
L 284.060379 386.035678 
L 285.604745 386.014803 
L 286.011157 386.034107 
L 286.498852 385.939975 
L 287.067829 385.955698 
L 287.555523 386.029436 
L 287.799371 386.039345 
L 287.961936 385.920135 
L 288.124501 385.830929 
L 288.612195 385.741298 
L 288.77476 385.854729 
L 290.156561 385.994576 
L 290.481691 386.067568 
L 291.213233 386.048712 
L 292.838882 385.982652 
L 293.001447 385.867368 
L 293.489141 385.922539 
L 294.464531 385.994021 
L 294.708378 386.044733 
L 295.358637 386.081477 
L 296.252744 386.136036 
L 299.178912 386.017041 
L 301.210973 386.066293 
L 301.373538 386.047331 
L 301.698667 386.002859 
L 302.267645 386.006443 
L 302.430209 385.926177 
L 302.755339 385.906439 
L 304.624835 385.809202 
L 304.7874 385.654317 
L 304.949965 385.784845 
L 305.11253 385.825416 
L 305.193812 385.251801 
L 305.275095 385.272336 
L 305.43766 385.052407 
L 305.844072 384.200275 
L 305.925354 384.177448 
L 306.006637 384.575453 
L 306.087919 384.330871 
L 306.169201 384.390764 
L 306.331766 384.820691 
L 306.575614 385.51514 
L 306.656896 385.483425 
L 306.738179 385.475991 
L 307.063308 385.820558 
L 308.851522 385.883922 
L 309.014087 385.204673 
L 309.095369 384.843885 
L 309.257934 382.514304 
L 309.664346 381.171948 
L 309.745629 381.794963 
L 309.826911 381.384639 
L 309.908194 381.553293 
L 309.989476 383.817006 
L 310.070758 383.786922 
L 310.152041 383.809323 
L 310.233323 383.401532 
L 310.314606 383.473383 
L 310.395888 383.454964 
L 310.721018 382.915962 
L 310.883583 382.986718 
L 310.964865 382.80533 
L 311.289995 384.272289 
L 311.371277 384.292767 
L 311.533842 385.074484 
L 311.696407 385.085375 
L 311.77769 385.310451 
L 311.940254 384.126685 
L 312.021537 384.233335 
L 312.265384 383.932874 
L 312.427949 384.038482 
L 312.509232 383.910189 
L 312.590514 383.977061 
L 312.671796 384.975702 
L 312.753079 384.937388 
L 312.915644 383.231391 
L 312.996926 383.421231 
L 313.078209 383.35119 
L 313.240773 383.184817 
L 313.322056 382.344103 
L 313.403338 382.404393 
L 313.565903 382.227436 
L 313.728468 383.30211 
L 313.809751 383.176307 
L 314.053598 383.195544 
L 314.13488 383.802922 
L 314.297445 383.386133 
L 314.378728 383.671186 
L 314.46001 384.367555 
L 314.541292 384.329289 
L 314.622575 384.401911 
L 314.866422 384.04534 
L 315.028987 384.767464 
L 315.11027 384.664759 
L 315.272834 384.692694 
L 315.435399 384.272909 
L 315.516682 383.757212 
L 315.597964 383.99865 
L 315.679247 383.9241 
L 315.923094 382.530137 
L 316.085659 382.438467 
L 316.248224 383.028394 
L 316.329506 383.813956 
L 316.410788 383.667019 
L 316.492071 383.763289 
L 316.735918 385.079629 
L 316.898483 385.260014 
L 317.14233 384.967645 
L 317.304895 385.197988 
L 317.46746 385.308999 
L 317.630025 385.549558 
L 317.711307 385.489789 
L 317.955155 385.69916 
L 318.524132 385.585457 
L 318.849262 385.731711 
L 318.930544 385.771608 
L 319.093109 385.352491 
L 319.174391 385.404903 
L 319.418239 385.173068 
L 319.743368 385.18756 
L 319.905933 385.748812 
L 319.987216 385.716406 
L 320.231063 385.969359 
L 320.47491 385.928997 
L 320.80004 385.946553 
L 320.962605 385.665547 
L 321.206452 385.653037 
L 321.612864 385.519763 
L 321.694147 385.786252 
L 321.775429 385.729454 
L 321.937994 385.683969 
L 322.181841 385.752187 
L 322.994666 386.043646 
L 324.13262 386.018128 
L 324.376467 386.075259 
L 324.782879 386.057353 
L 325.026727 385.998882 
L 325.189292 385.852386 
L 325.839551 385.936447 
L 326.002116 386.086707 
L 326.489811 386.130227 
L 330.228803 386.041878 
L 334.049077 386.092121 
L 334.211642 385.955637 
L 334.861902 385.831295 
L 335.024466 385.975077 
L 335.105749 385.984755 
L 335.268314 385.857722 
L 335.512161 385.883846 
L 335.674726 385.796101 
L 335.918573 385.805197 
L 336.081138 385.91081 
L 336.324985 385.814915 
L 336.48755 385.876577 
L 336.731398 385.805921 
L 337.625504 385.961618 
L 337.869352 385.929456 
L 338.113199 385.903643 
L 338.438329 385.949407 
L 338.682176 386.046015 
L 338.844741 385.984402 
L 339.169871 386.041745 
L 339.576283 386.119906 
L 339.738848 385.961005 
L 340.389107 385.91348 
L 340.551672 386.05917 
L 341.364497 386.10657 
L 342.258603 386.14011 
L 342.746298 386.14526 
L 342.908863 386.060448 
L 346.241443 386.100286 
L 346.566572 386.145215 
L 347.216832 386.137633 
L 347.704527 386.136779 
L 350.305565 386.122146 
L 350.955824 386.124059 
L 357.702266 386.168835 
L 358.677656 386.094528 
L 358.84022 386.119657 
L 359.49048 386.096324 
L 362.010235 386.133471 
L 362.579213 386.134855 
L 365.993075 386.119269 
L 369.000525 386.144705 
L 370.951303 386.179926 
L 371.113868 386.099176 
L 373.633624 386.142385 
L 373.796189 385.763228 
L 374.446448 385.777957 
L 374.609013 386.157965 
L 391.271913 386.148106 
L 391.434478 385.871491 
L 391.84089 385.837313 
L 392.084737 385.098406 
L 392.247302 385.358977 
L 392.653714 385.230995 
L 392.897561 385.957868 
L 394.279363 386.181077 
L 395.742447 386.105304 
L 395.986294 386.107823 
L 397.85579 386.041486 
L 398.018355 386.134352 
L 406.796858 386.112692 
L 410.942262 386.135124 
L 411.267392 386.171643 
L 413.380735 386.155647 
L 413.787148 386.112054 
L 414.19356 386.122538 
L 414.681254 386.169222 
L 415.656644 386.171217 
L 415.737926 386.076891 
L 415.900491 385.734177 
L 416.55075 385.773384 
L 416.632033 386.119237 
L 416.713315 386.095074 
L 416.87588 385.944438 
L 417.038445 385.926015 
L 417.282292 385.407522 
L 417.688705 385.252079 
L 417.851269 384.874469 
L 418.095117 385.266025 
L 418.338964 385.102024 
L 418.420246 385.2059 
L 418.501529 384.764045 
L 418.582811 385.077899 
L 418.826659 384.622426 
L 419.070506 384.488889 
L 419.802048 385.736277 
L 419.88333 385.738037 
L 420.045895 385.679144 
L 420.289743 385.766968 
L 420.371025 385.587153 
L 420.452307 385.624896 
L 420.85872 385.740383 
L 421.102567 385.644035 
L 421.265132 385.697274 
L 421.427697 385.50092 
L 422.077956 385.812664 
L 422.159239 385.999098 
L 422.321803 385.907189 
L 422.484368 385.868159 
L 422.728216 385.827932 
L 422.89078 385.529132 
L 423.21591 385.586101 
L 423.378475 385.688724 
L 423.54104 385.719688 
L 423.622322 386.03922 
L 423.703605 385.997676 
L 424.028735 385.97249 
L 424.110017 385.923182 
L 424.272582 385.727866 
L 424.922841 385.564688 
L 425.085406 385.72085 
L 425.329254 385.877637 
L 425.491818 385.934095 
L 425.573101 385.986575 
L 425.735666 385.823703 
L 425.898231 385.781553 
L 426.385925 385.797819 
L 426.54849 385.965413 
L 427.523879 385.980433 
L 427.686444 385.748651 
L 427.849009 385.662857 
L 427.930292 385.718711 
L 428.092856 384.499285 
L 428.336704 384.437006 
L 428.417986 384.623974 
L 428.499269 384.567982 
L 428.661833 384.493663 
L 428.743116 384.482882 
L 428.905681 385.652093 
L 429.068246 385.376255 
L 429.149528 385.36481 
L 429.312093 384.8323 
L 429.393375 384.854492 
L 429.718505 384.548913 
L 429.88107 384.89423 
L 429.962352 384.946177 
L 430.124917 385.562347 
L 430.450047 385.920853 
L 430.612612 386.012321 
L 430.856459 385.362324 
L 431.425436 385.366183 
L 431.669284 386.023524 
L 434.676734 386.080789 
L 435.570841 386.088044 
L 435.733405 385.665742 
L 436.139818 385.427342 
L 436.383665 385.497027 
L 436.464947 385.892355 
L 436.54623 385.769962 
L 436.790077 385.903442 
L 437.765466 386.021665 
L 438.578291 386.177312 
L 438.740856 385.93092 
L 439.309833 385.886918 
L 439.391115 385.870218 
L 439.55368 386.116717 
L 440.529069 385.968933 
L 440.691634 385.969666 
L 440.854199 385.871443 
L 441.016764 385.726969 
L 441.667023 385.910669 
L 441.829588 386.046361 
L 442.073436 386.032451 
L 443.861649 386.174879 
L 444.186779 386.143579 
L 447.763206 386.191304 
L 447.925771 385.882763 
L 448.332183 385.803177 
L 448.57603 385.621432 
L 448.657313 385.907267 
L 448.738595 385.882299 
L 449.145008 385.887393 
L 449.55142 386.115804 
L 458.817617 386.215779 
L 459.305312 386.195095 
L 462.394045 386.181469 
L 462.55661 385.970166 
L 463.531999 385.856243 
L 463.775846 385.828706 
L 464.019693 385.887163 
L 464.263541 386.063987 
L 464.995083 386.156485 
L 465.23893 386.138185 
L 472.716914 386.213789 
L 477.350013 386.213503 
L 477.512578 385.783472 
L 477.675143 385.750232 
L 477.91899 385.219081 
L 478.162837 385.122078 
L 478.325402 385.446949 
L 478.487967 385.422758 
L 478.813097 385.881625 
L 478.894379 385.893772 
L 479.219509 385.440248 
L 479.544639 385.515306 
L 479.707204 385.463883 
L 479.869769 386.031193 
L 480.032333 385.879707 
L 480.682593 385.993991 
L 480.845158 386.144918 
L 483.446196 386.149157 
L 483.690043 386.202813 
L 487.103905 386.203668 
L 488.729554 386.103214 
L 488.810837 385.921432 
L 488.892119 385.985503 
L 489.542379 385.985255 
L 489.704943 386.137463 
L 489.867508 385.700777 
L 490.192638 385.606485 
L 490.355203 385.141099 
L 490.517768 385.16102 
L 490.680333 385.597879 
L 490.92418 385.495772 
L 491.005462 385.355593 
L 491.168027 385.819448 
L 491.737004 385.894613 
L 491.899569 386.110447 
L 492.549829 386.146344 
L 492.712394 385.705235 
L 492.874958 385.617938 
L 493.118806 384.993796 
L 493.362653 384.966529 
L 493.525218 385.358973 
L 493.6065 385.15529 
L 493.687783 385.226866 
L 493.769065 385.41801 
L 493.850348 385.300292 
L 493.93163 385.56983 
L 494.012913 385.540919 
L 494.175477 385.431896 
L 494.338042 384.717614 
L 494.419325 384.860607 
L 494.58189 384.72251 
L 494.663172 384.750863 
L 494.825737 384.429092 
L 494.988302 384.474803 
L 495.150867 385.188853 
L 495.475996 385.406805 
L 495.638561 385.711684 
L 495.801126 385.707496 
L 496.207538 385.806739 
L 496.451386 384.940901 
L 496.613951 382.892146 
L 496.857798 382.511269 
L 497.020363 381.176999 
L 497.26421 382.036083 
L 497.426775 383.883121 
L 497.58934 384.198436 
L 497.670622 384.113415 
L 497.833187 385.536833 
L 497.914469 385.5356 
L 498.077034 385.272513 
L 498.239599 385.24951 
L 498.564729 384.795281 
L 498.727294 384.815771 
L 498.971141 385.258618 
L 499.052424 385.18245 
L 499.458836 385.885788 
L 499.702683 385.873674 
L 499.783966 385.85992 
L 499.94653 386.054186 
L 500.190378 385.955543 
L 500.352943 385.585563 
L 500.59679 385.527197 
L 501.003202 385.671497 
L 501.165767 386.071989 
L 501.490897 386.153513 
L 503.848087 386.115014 
L 504.091935 386.180042 
L 505.636301 386.092084 
L 505.798866 386.079139 
L 508.156057 386.144431 
L 508.399904 386.196378 
L 517.015842 386.17717 
L 517.422254 386.214406 
L 519.454315 386.211185 
L 525.306651 386.169289 
L 525.875628 386.126612 
L 526.525887 386.199685 
L 528.395383 386.216759 
L 531.158986 386.197641 
L 531.484116 386.143892 
L 535.141825 386.203969 
L 535.30439 385.968499 
L 535.95465 385.963513 
L 536.117215 386.202957 
L 541.319291 386.165237 
L 541.64442 386.210094 
L 544.814435 386.175553 
L 545.220848 386.218426 
L 577.408693 386.000449 
L 577.733822 385.808537 
L 577.815105 385.992277 
L 577.896387 385.910419 
L 578.302799 385.99987 
L 578.871776 386.181592 
L 580.822555 386.147445 
L 580.98512 386.031434 
L 581.635379 386.080749 
L 581.797944 386.165929 
L 585.455654 386.184096 
L 585.699501 386.115883 
L 586.349761 386.173624 
L 588.381821 386.1832 
L 589.275928 386.223023 
L 592.689791 386.230629 
L 603.419072 386.166348 
L 603.581637 385.991894 
L 604.231897 385.986705 
L 604.313179 386.178911 
L 604.475744 385.903421 
L 604.800874 385.792157 
L 604.963439 384.703548 
L 605.126003 384.710302 
L 605.207286 384.882651 
L 605.369851 384.514528 
L 605.451133 384.521532 
L 605.532416 384.270337 
L 605.613698 382.293831 
L 605.69498 383.32276 
L 605.857545 382.509086 
L 605.938828 382.37629 
L 606.02011 381.980338 
L 606.101393 382.325595 
L 606.263958 381.949584 
L 606.34524 382.12709 
L 606.426522 383.714882 
L 606.507805 383.177897 
L 606.589087 383.329229 
L 606.67037 383.174441 
L 606.751652 382.588592 
L 606.832935 382.948381 
L 606.995499 382.576776 
L 607.076782 382.666779 
L 607.239347 381.785885 
L 607.320629 382.171831 
L 607.483194 382.365182 
L 607.645759 382.163386 
L 607.808324 382.523188 
L 607.889606 382.584185 
L 607.970889 382.789286 
L 608.133454 383.795815 
L 608.296018 384.361212 
L 608.458583 385.324648 
L 608.621148 385.365532 
L 609.190125 385.800771 
L 609.35269 385.251163 
L 609.433973 385.21102 
L 609.596537 383.454503 
L 609.921667 383.356396 
L 610.00295 383.348711 
L 610.165514 383.97074 
L 610.246797 383.928958 
L 610.409362 385.629444 
L 610.571927 385.691321 
L 610.653209 385.494636 
L 610.734492 385.538296 
L 610.897056 385.474943 
L 610.978339 385.49809 
L 611.059621 384.923247 
L 611.140904 385.022311 
L 611.222186 385.050124 
L 611.384751 384.844069 
L 611.466033 384.95369 
L 611.628598 384.353068 
L 611.791163 384.34766 
L 611.872446 384.952235 
L 611.953728 384.849932 
L 612.035011 384.818556 
L 612.278858 385.090163 
L 612.522705 385.737893 
L 612.68527 385.815649 
L 612.929117 385.981474 
L 613.172965 385.930238 
L 613.416812 385.918928 
L 614.067071 386.065442 
L 614.310919 386.131164 
L 614.717331 386.160761 
L 614.879896 385.950451 
L 614.961178 385.956983 
L 615.123743 385.824481 
L 615.448873 385.734013 
L 615.530155 385.650369 
L 615.611438 385.851538 
L 615.69272 385.777867 
L 616.099132 385.81443 
L 616.261697 385.470416 
L 616.586827 385.546623 
L 616.911957 385.345548 
L 616.993239 385.683428 
L 617.074522 385.65912 
L 617.399651 385.658185 
L 617.643499 386.002932 
L 617.887346 386.050384 
L 618.131193 386.073888 
L 618.70017 385.995784 
L 618.862735 385.565527 
L 619.106583 385.491126 
L 619.269147 385.064429 
L 619.35043 385.059962 
L 619.512995 384.880774 
L 619.67556 385.337108 
L 619.919407 385.406961 
L 620.081972 385.901563 
L 620.163254 385.923287 
L 620.325819 386.114827 
L 623.495834 386.087187 
L 623.658399 386.1604 
L 623.820964 386.045939 
L 624.633788 386.023302 
L 624.796353 385.893555 
L 625.202765 385.902298 
L 625.36533 385.717308 
L 625.527895 385.942964 
L 625.609177 385.872583 
L 626.01559 385.883578 
L 626.178154 386.081259 
L 626.909696 386.18338 
L 627.397391 386.204787 
L 628.291498 386.18549 
L 633.818704 386.197179 
L 633.981268 386.023048 
L 634.631528 385.98743 
L 634.71281 386.163927 
L 634.794093 386.103159 
L 635.03794 386.096988 
L 635.200505 385.613938 
L 635.525635 385.618346 
L 635.769482 385.683583 
L 635.850764 385.686583 
L 636.013329 386.16925 
L 636.907436 386.210117 
L 641.459253 386.22333 
L 642.109512 386.21521 
L 644.141573 386.219344 
L 644.304138 386.04291 
L 644.954397 386.048366 
L 645.116962 386.212862 
L 664.05577 386.207257 
L 664.462182 386.217233 
L 672.346578 386.228472 
L 679.336868 386.228702 
L 680.556105 386.214656 
L 680.718669 386.067034 
L 682.100471 386.0402 
L 682.181753 385.853924 
L 682.263036 385.925642 
L 682.506883 385.991328 
L 682.669448 385.925553 
L 682.75073 385.859331 
L 682.913295 385.457651 
L 682.994578 385.610557 
L 683.07586 385.555992 
L 683.238425 385.248687 
L 683.482272 385.295795 
L 683.563555 385.346626 
L 683.72612 385.717106 
L 683.888685 385.760088 
L 684.051249 386.028896 
L 684.295097 385.93661 
L 684.620226 385.975558 
L 684.864074 385.994299 
L 685.514333 385.507557 
L 685.676898 385.384519 
L 685.920745 385.597539 
L 686.08331 385.782016 
L 686.245875 385.870089 
L 686.489722 386.16861 
L 686.652287 386.084286 
L 688.765631 386.182762 
L 689.253325 385.191859 
L 689.41589 385.089149 
L 689.578455 384.889671 
L 689.822302 385.332635 
L 689.903585 385.317033 
L 689.984867 385.765378 
L 690.06615 385.735064 
L 690.147432 385.521283 
L 690.228715 385.598528 
L 690.472562 385.78498 
L 690.553844 385.779244 
L 690.716409 385.637276 
L 690.878974 385.675879 
L 691.041539 385.875175 
L 691.366669 385.880742 
L 691.529234 386.03945 
L 691.610516 386.039746 
L 691.691798 385.497373 
L 691.773081 385.527803 
L 691.935646 385.511566 
L 692.179493 385.460057 
L 692.42334 385.423661 
L 692.504623 385.960486 
L 692.585905 385.943461 
L 692.911035 386.014228 
L 693.0736 385.139647 
L 693.480012 384.993334 
L 693.723859 384.779155 
L 693.886424 385.680484 
L 693.967707 385.363361 
L 694.048989 385.409189 
L 694.699249 385.67429 
L 694.861813 386.011776 
L 695.75592 386.105538 
L 696.40618 386.164455 
L 697.056439 386.124986 
L 697.219004 385.987648 
L 698.356958 385.675758 
L 698.519523 385.710863 
L 699.007218 386.199798 
L 700.714149 386.079909 
L 708.354698 386.206369 
L 710.468041 386.190719 
L 710.955736 386.216615 
L 719.409109 386.230297 
L 722.09143 386.227626 
L 722.660407 386.227661 
L 722.822972 385.982606 
L 723.554514 385.945422 
L 723.717078 385.187642 
L 724.286056 385.234099 
L 724.367338 385.439584 
L 724.529903 386.203091 
L 737.047398 386.223857 
L 737.45381 386.216438 
L 742.818451 386.145285 
L 747.695397 386.236393 
L 752.978756 386.231711 
L 761.350847 386.240337 
L 776.957074 386.10941 
L 777.200922 386.015284 
L 777.444769 386.022124 
L 777.607334 385.852628 
L 777.769899 385.885387 
L 777.851181 385.932319 
L 778.095029 385.750448 
L 778.257593 385.737838 
L 778.420158 385.857221 
L 778.664006 385.188053 
L 778.82657 385.230406 
L 778.989135 384.274327 
L 779.1517 384.215252 
L 779.232983 384.236386 
L 779.395548 384.82506 
L 779.47683 384.761347 
L 779.639395 384.843053 
L 779.720677 385.335214 
L 779.80196 385.298259 
L 779.964525 385.392899 
L 780.289654 385.255168 
L 780.452219 384.517251 
L 780.533502 384.993761 
L 780.614784 384.972425 
L 780.777349 384.293827 
L 780.858631 384.332521 
L 780.939914 384.165532 
L 781.021196 383.653601 
L 781.102479 383.805678 
L 781.265044 384.521944 
L 781.346326 384.571123 
L 781.427608 384.328109 
L 781.590173 384.657635 
L 781.671456 384.639371 
L 781.752738 384.321939 
L 781.834021 384.806399 
L 781.915303 383.28524 
L 781.996586 383.323334 
L 782.15915 383.297118 
L 782.240433 382.774777 
L 782.321715 383.107603 
L 782.402998 383.036955 
L 782.48428 383.049127 
L 782.646845 383.445848 
L 782.728127 384.957516 
L 782.80941 384.905633 
L 782.971975 384.818073 
L 783.053257 385.599407 
L 783.13454 385.585592 
L 783.297104 384.601415 
L 783.378387 384.578739 
L 783.540952 384.26916 
L 783.703517 384.318896 
L 783.866082 383.821368 
L 783.947364 383.814455 
L 784.109929 384.686228 
L 784.191211 384.768021 
L 784.353776 385.108602 
L 784.516341 385.003115 
L 784.678906 385.563304 
L 784.760188 385.588647 
L 784.922753 385.753036 
L 785.166601 385.671354 
L 785.329165 385.826518 
L 785.654295 385.814323 
L 786.060707 385.858685 
L 786.304555 385.871074 
L 786.710967 385.973527 
L 787.117379 386.122546 
L 788.011486 386.073398 
L 788.417898 385.859675 
L 788.580463 385.952773 
L 789.962264 385.983062 
L 790.206112 386.159414 
L 790.531241 386.12988 
L 791.669195 386.147705 
L 791.83176 386.022014 
L 792.48202 386.090996 
L 792.644585 386.225518 
L 794.757928 386.161058 
L 794.920493 385.614343 
L 795.570752 385.513786 
L 795.733317 385.773487 
L 796.221012 385.369368 
L 796.302294 385.390511 
L 796.383577 385.268468 
L 796.464859 385.498877 
L 796.546142 385.461944 
L 796.789989 385.883574 
L 796.871271 385.814196 
L 797.277684 385.874611 
L 797.684096 386.010922 
L 797.846661 385.770344 
L 798.415638 385.748246 
L 798.49692 385.757545 
L 798.578203 386.019897 
L 798.659485 385.942198 
L 798.82205 385.944664 
L 798.984615 385.461071 
L 799.553592 385.47449 
L 799.634874 385.459959 
L 799.716157 385.899722 
L 799.797439 385.876746 
L 800.203851 385.84238 
L 800.447699 386.006474 
L 800.772828 386.068559 
L 801.179241 385.927121 
L 801.585653 385.916135 
L 801.910782 386.120576 
L 802.15463 386.080126 
L 802.886172 386.157772 
L 803.373866 386.070751 
L 803.617714 386.028 
L 803.780279 385.924845 
L 804.267973 386.023991 
L 804.349256 385.580497 
L 804.430538 385.620642 
L 804.593103 385.736108 
L 804.83695 385.695258 
L 804.999515 385.047535 
L 805.080798 385.018917 
L 805.243362 385.44785 
L 805.649775 385.403716 
L 805.812339 386.028704 
L 806.137469 386.047942 
L 808.088248 386.148457 
L 809.470049 386.215634 
L 818.654964 386.201755 
L 819.142659 386.024936 
L 819.549071 386.072432 
L 819.792919 386.198463 
L 821.256002 386.202843 
L 821.987544 386.186726 
L 823.531911 386.223313 
L 824.5073 386.185163 
L 825.889101 386.120449 
L 826.214231 386.215038 
L 830.603483 386.226115 
L 839.86968 386.197778 
L 840.357375 386.226654 
L 846.372275 386.216109 
L 847.022535 386.210329 
L 847.1851 386.149148 
L 853.118718 386.233106 
L 853.118718 386.233106 
" clip-path="url(#p24ef04f554)" style="fill: none; stroke-dasharray: 7.4,3.2; stroke-dashoffset: 0; stroke: #000000; stroke-width: 2"/>
   </g>
   <g id="patch_3">
    <path d="M 41.92 404.12 
L 41.92 10.8 
" style="fill: none; stroke: #000000; stroke-width: 0.8; stroke-linejoin: miter; stroke-linecap: square"/>
   </g>
   <g id="patch_4">
    <path d="M 853.2 404.12 
L 853.2 10.8 
" style="fill: none; stroke: #000000; stroke-width: 0.8; stroke-linejoin: miter; stroke-linecap: square"/>
   </g>
   <g id="patch_5">
    <path d="M 41.92 404.12 
L 853.2 404.12 
" style="fill: none; stroke: #000000; stroke-width: 0.8; stroke-linejoin: miter; stroke-linecap: square"/>
   </g>
   <g id="patch_6">
    <path d="M 41.92 10.8 
L 853.2 10.8 
" style="fill: none; stroke: #000000; stroke-width: 0.8; stroke-linejoin: miter; stroke-linecap: square"/>
   </g>
  </g>
 </g>
 <defs>
  <clipPath id="p24ef04f554">
   <rect x="41.92" y="10.8" width="811.28" height="393.32"/>
  </clipPath>
 </defs>
</svg>
