<?xml version="1.0" encoding="utf-8" standalone="no"?>
<!DOCTYPE svg PUBLIC "-//W3C//DTD SVG 1.1//EN"
  "http://www.w3.org/Graphics/SVG/1.1/DTD/svg11.dtd">
<svg xmlns:xlink="http://www.w3.org/1999/xlink" width="864pt" height="432pt" viewBox="0 0 864 432" xmlns="http://www.w3.org/2000/svg" version="1.1">
 <metadata>
  <rdf:RDF xmlns:dc="http://purl.org/dc/elements/1.1/" xmlns:cc="http://creativecommons.org/ns#" xmlns:rdf="http://www.w3.org/1999/02/22-rdf-syntax-ns#">
   <cc:Work>
    <dc:type rdf:resource="http://purl.org/dc/dcmitype/StillImage"/>
    <dc:date>2024-09-19T15:49:56.430122</dc:date>
    <dc:format>image/svg+xml</dc:format>
    <dc:creator>
     <cc:Agent>
      <dc:title>Matplotlib v3.9.2, https://matplotlib.org/</dc:title>
     </cc:Agent>
    </dc:creator>
   </cc:Work>
  </rdf:RDF>
 </metadata>
 <defs>
  <style type="text/css">*{stroke-linejoin: round; stroke-linecap: butt}</style>
 </defs>
 <g id="figure_1">
  <g id="patch_1">
   <path d="M 0 432 
L 864 432 
L 864 0 
L 0 0 
z
" style="fill: #ffffff"/>
  </g>
  <g id="axes_1">
   <g id="patch_2">
    <path d="M 35.89 404.12 
L 853.2 404.12 
L 853.2 10.8 
L 35.89 10.8 
z
" style="fill: #ffffff"/>
   </g>
   <g id="matplotlib.axis_1">
    <g id="xtick_1">
     <g id="line2d_1">
      <defs>
       <path id="m2eddb55f00" d="M 0 0 
L 0 3.5 
" style="stroke: #000000; stroke-width: 0.8"/>
      </defs>
      <g>
       <use xlink:href="#m2eddb55f00" x="194.186534" y="404.12" style="stroke: #000000; stroke-width: 0.8"/>
      </g>
     </g>
     <g id="text_1">
      <!-- 200 -->
      <g transform="translate(185.156065 418.771563) scale(0.1 -0.1)">
       <defs>
        <path id="DejaVuSansMono-32" d="M 1166 531 
L 3309 531 
L 3309 0 
L 475 0 
L 475 531 
Q 1059 1147 1496 1619 
Q 1934 2091 2100 2284 
Q 2413 2666 2522 2902 
Q 2631 3138 2631 3384 
Q 2631 3775 2401 3997 
Q 2172 4219 1772 4219 
Q 1488 4219 1175 4116 
Q 863 4013 513 3803 
L 513 4441 
Q 834 4594 1145 4672 
Q 1456 4750 1759 4750 
Q 2444 4750 2861 4386 
Q 3278 4022 3278 3431 
Q 3278 3131 3139 2831 
Q 3000 2531 2688 2169 
Q 2513 1966 2180 1606 
Q 1847 1247 1166 531 
z
" transform="scale(0.015625)"/>
        <path id="DejaVuSansMono-30" d="M 1509 2344 
Q 1509 2516 1629 2641 
Q 1750 2766 1919 2766 
Q 2094 2766 2219 2641 
Q 2344 2516 2344 2344 
Q 2344 2169 2220 2047 
Q 2097 1925 1919 1925 
Q 1744 1925 1626 2044 
Q 1509 2163 1509 2344 
z
M 1925 4250 
Q 1484 4250 1267 3775 
Q 1050 3300 1050 2328 
Q 1050 1359 1267 884 
Q 1484 409 1925 409 
Q 2369 409 2586 884 
Q 2803 1359 2803 2328 
Q 2803 3300 2586 3775 
Q 2369 4250 1925 4250 
z
M 1925 4750 
Q 2672 4750 3055 4137 
Q 3438 3525 3438 2328 
Q 3438 1134 3055 521 
Q 2672 -91 1925 -91 
Q 1178 -91 797 521 
Q 416 1134 416 2328 
Q 416 3525 797 4137 
Q 1178 4750 1925 4750 
z
" transform="scale(0.015625)"/>
       </defs>
       <use xlink:href="#DejaVuSansMono-32"/>
       <use xlink:href="#DejaVuSansMono-30" x="60.205078"/>
       <use xlink:href="#DejaVuSansMono-30" x="120.410156"/>
      </g>
     </g>
    </g>
    <g id="xtick_2">
     <g id="line2d_2">
      <g>
       <use xlink:href="#m2eddb55f00" x="360.814465" y="404.12" style="stroke: #000000; stroke-width: 0.8"/>
      </g>
     </g>
     <g id="text_2">
      <!-- 400 -->
      <g transform="translate(351.783996 418.771563) scale(0.1 -0.1)">
       <defs>
        <path id="DejaVuSansMono-34" d="M 2297 4091 
L 825 1625 
L 2297 1625 
L 2297 4091 
z
M 2194 4666 
L 2925 4666 
L 2925 1625 
L 3547 1625 
L 3547 1113 
L 2925 1113 
L 2925 0 
L 2297 0 
L 2297 1113 
L 319 1113 
L 319 1709 
L 2194 4666 
z
" transform="scale(0.015625)"/>
       </defs>
       <use xlink:href="#DejaVuSansMono-34"/>
       <use xlink:href="#DejaVuSansMono-30" x="60.205078"/>
       <use xlink:href="#DejaVuSansMono-30" x="120.410156"/>
      </g>
     </g>
    </g>
    <g id="xtick_3">
     <g id="line2d_3">
      <g>
       <use xlink:href="#m2eddb55f00" x="527.442396" y="404.12" style="stroke: #000000; stroke-width: 0.8"/>
      </g>
     </g>
     <g id="text_3">
      <!-- 600 -->
      <g transform="translate(518.411927 418.771563) scale(0.1 -0.1)">
       <defs>
        <path id="DejaVuSansMono-36" d="M 3097 4563 
L 3097 3981 
Q 2900 4097 2678 4158 
Q 2456 4219 2216 4219 
Q 1616 4219 1306 3767 
Q 997 3316 997 2438 
Q 1147 2750 1412 2917 
Q 1678 3084 2022 3084 
Q 2697 3084 3067 2670 
Q 3438 2256 3438 1497 
Q 3438 741 3056 325 
Q 2675 -91 1984 -91 
Q 1172 -91 794 492 
Q 416 1075 416 2328 
Q 416 3509 870 4129 
Q 1325 4750 2188 4750 
Q 2419 4750 2650 4701 
Q 2881 4653 3097 4563 
z
M 1972 2591 
Q 1569 2591 1337 2300 
Q 1106 2009 1106 1497 
Q 1106 984 1337 693 
Q 1569 403 1972 403 
Q 2391 403 2603 679 
Q 2816 956 2816 1497 
Q 2816 2041 2603 2316 
Q 2391 2591 1972 2591 
z
" transform="scale(0.015625)"/>
       </defs>
       <use xlink:href="#DejaVuSansMono-36"/>
       <use xlink:href="#DejaVuSansMono-30" x="60.205078"/>
       <use xlink:href="#DejaVuSansMono-30" x="120.410156"/>
      </g>
     </g>
    </g>
    <g id="xtick_4">
     <g id="line2d_4">
      <g>
       <use xlink:href="#m2eddb55f00" x="694.070326" y="404.12" style="stroke: #000000; stroke-width: 0.8"/>
      </g>
     </g>
     <g id="text_4">
      <!-- 800 -->
      <g transform="translate(685.039857 418.771563) scale(0.1 -0.1)">
       <defs>
        <path id="DejaVuSansMono-38" d="M 1925 2216 
Q 1503 2216 1273 1980 
Q 1044 1744 1044 1313 
Q 1044 881 1276 642 
Q 1509 403 1925 403 
Q 2350 403 2579 639 
Q 2809 875 2809 1313 
Q 2809 1741 2576 1978 
Q 2344 2216 1925 2216 
z
M 1375 2478 
Q 972 2581 745 2862 
Q 519 3144 519 3541 
Q 519 4097 897 4423 
Q 1275 4750 1925 4750 
Q 2578 4750 2956 4423 
Q 3334 4097 3334 3541 
Q 3334 3144 3107 2862 
Q 2881 2581 2478 2478 
Q 2947 2375 3195 2062 
Q 3444 1750 3444 1253 
Q 3444 622 3041 265 
Q 2638 -91 1925 -91 
Q 1213 -91 811 264 
Q 409 619 409 1247 
Q 409 1747 657 2061 
Q 906 2375 1375 2478 
z
M 1147 3481 
Q 1147 3106 1347 2909 
Q 1547 2713 1925 2713 
Q 2306 2713 2506 2909 
Q 2706 3106 2706 3481 
Q 2706 3863 2507 4063 
Q 2309 4263 1925 4263 
Q 1547 4263 1347 4061 
Q 1147 3859 1147 3481 
z
" transform="scale(0.015625)"/>
       </defs>
       <use xlink:href="#DejaVuSansMono-38"/>
       <use xlink:href="#DejaVuSansMono-30" x="60.205078"/>
       <use xlink:href="#DejaVuSansMono-30" x="120.410156"/>
      </g>
     </g>
    </g>
   </g>
   <g id="matplotlib.axis_2">
    <g id="ytick_1">
     <g id="line2d_5">
      <defs>
       <path id="mcdaed4243c" d="M 0 0 
L -3.5 0 
" style="stroke: #000000; stroke-width: 0.8"/>
      </defs>
      <g>
       <use xlink:href="#mcdaed4243c" x="35.89" y="395.9012" style="stroke: #000000; stroke-width: 0.8"/>
      </g>
     </g>
     <g id="text_5">
      <!-- 0.0 -->
      <g transform="translate(10.829063 399.726981) scale(0.1 -0.1)">
       <defs>
        <path id="DejaVuSansMono-2e" d="M 1528 953 
L 2316 953 
L 2316 0 
L 1528 0 
L 1528 953 
z
" transform="scale(0.015625)"/>
       </defs>
       <use xlink:href="#DejaVuSansMono-30"/>
       <use xlink:href="#DejaVuSansMono-2e" x="60.205078"/>
       <use xlink:href="#DejaVuSansMono-30" x="120.410156"/>
      </g>
     </g>
    </g>
    <g id="ytick_2">
     <g id="line2d_6">
      <g>
       <use xlink:href="#mcdaed4243c" x="35.89" y="322.456596" style="stroke: #000000; stroke-width: 0.8"/>
      </g>
     </g>
     <g id="text_6">
      <!-- 0.2 -->
      <g transform="translate(10.829063 326.282377) scale(0.1 -0.1)">
       <use xlink:href="#DejaVuSansMono-30"/>
       <use xlink:href="#DejaVuSansMono-2e" x="60.205078"/>
       <use xlink:href="#DejaVuSansMono-32" x="120.410156"/>
      </g>
     </g>
    </g>
    <g id="ytick_3">
     <g id="line2d_7">
      <g>
       <use xlink:href="#mcdaed4243c" x="35.89" y="249.011992" style="stroke: #000000; stroke-width: 0.8"/>
      </g>
     </g>
     <g id="text_7">
      <!-- 0.4 -->
      <g transform="translate(10.829063 252.837774) scale(0.1 -0.1)">
       <use xlink:href="#DejaVuSansMono-30"/>
       <use xlink:href="#DejaVuSansMono-2e" x="60.205078"/>
       <use xlink:href="#DejaVuSansMono-34" x="120.410156"/>
      </g>
     </g>
    </g>
    <g id="ytick_4">
     <g id="line2d_8">
      <g>
       <use xlink:href="#mcdaed4243c" x="35.89" y="175.567389" style="stroke: #000000; stroke-width: 0.8"/>
      </g>
     </g>
     <g id="text_8">
      <!-- 0.6 -->
      <g transform="translate(10.829063 179.39317) scale(0.1 -0.1)">
       <use xlink:href="#DejaVuSansMono-30"/>
       <use xlink:href="#DejaVuSansMono-2e" x="60.205078"/>
       <use xlink:href="#DejaVuSansMono-36" x="120.410156"/>
      </g>
     </g>
    </g>
    <g id="ytick_5">
     <g id="line2d_9">
      <g>
       <use xlink:href="#mcdaed4243c" x="35.89" y="102.122785" style="stroke: #000000; stroke-width: 0.8"/>
      </g>
     </g>
     <g id="text_9">
      <!-- 0.8 -->
      <g transform="translate(10.829063 105.948567) scale(0.1 -0.1)">
       <use xlink:href="#DejaVuSansMono-30"/>
       <use xlink:href="#DejaVuSansMono-2e" x="60.205078"/>
       <use xlink:href="#DejaVuSansMono-38" x="120.410156"/>
      </g>
     </g>
    </g>
    <g id="ytick_6">
     <g id="line2d_10">
      <g>
       <use xlink:href="#mcdaed4243c" x="35.89" y="28.678182" style="stroke: #000000; stroke-width: 0.8"/>
      </g>
     </g>
     <g id="text_10">
      <!-- 1.0 -->
      <g transform="translate(10.829063 32.503963) scale(0.1 -0.1)">
       <defs>
        <path id="DejaVuSansMono-31" d="M 844 531 
L 1825 531 
L 1825 4097 
L 769 3859 
L 769 4434 
L 1819 4666 
L 2450 4666 
L 2450 531 
L 3419 531 
L 3419 0 
L 844 0 
L 844 531 
z
" transform="scale(0.015625)"/>
       </defs>
       <use xlink:href="#DejaVuSansMono-31"/>
       <use xlink:href="#DejaVuSansMono-2e" x="60.205078"/>
       <use xlink:href="#DejaVuSansMono-30" x="120.410156"/>
      </g>
     </g>
    </g>
   </g>
   <g id="line2d_11">
    <path d="M 27.558603 345.332221 
L 28.391743 343.082763 
L 29.224883 352.786583 
L 30.058022 353.830334 
L 30.891162 346.266126 
L 31.724302 343.724762 
L 32.557441 333.822564 
L 33.390581 332.9501 
L 34.223721 335.068694 
L 35.05686 332.870201 
L 35.89 332.044981 
L 36.72314 343.511017 
L 37.556279 341.860577 
L 38.389419 337.907013 
L 40.888838 368.583251 
L 41.721978 361.808423 
L 42.555117 361.808423 
L 43.388257 372.048296 
L 44.221397 372.873516 
L 45.054536 362.206271 
L 45.887676 362.065379 
L 46.720815 372.91515 
L 47.553955 372.91515 
L 48.387095 362.30943 
L 49.220234 357.824264 
L 50.053374 368.351736 
L 50.886514 368.351736 
L 52.552793 348.28852 
L 53.385933 352.184278 
L 54.219072 353.975609 
L 55.052212 353.975609 
L 55.885352 343.308363 
L 56.718491 353.914083 
L 57.551631 358.399249 
L 59.21791 338.236527 
L 60.05105 337.8604 
L 60.88419 337.270702 
L 61.717329 333.374944 
L 63.383609 333.374944 
L 64.216748 339.896124 
L 65.883028 318.424418 
L 66.716167 329.091664 
L 67.549307 336.972974 
L 70.048726 368.66926 
L 71.715005 368.66926 
L 72.548145 372.815327 
L 73.381284 383.482573 
L 74.214424 383.619787 
L 75.047564 383.619787 
L 75.880703 385.233954 
L 76.713843 374.566708 
L 77.546983 374.566708 
L 78.380122 363.80651 
L 79.213262 363.80651 
L 80.046402 361.273938 
L 81.712681 361.273938 
L 82.545821 371.941184 
L 83.37896 371.941184 
L 84.2121 361.220243 
L 85.04524 371.887489 
L 85.878379 371.887489 
L 86.711519 382.647686 
L 87.544659 382.647686 
L 88.377798 374.513013 
L 91.710357 374.513013 
L 92.543496 385.233954 
L 97.542334 385.233954 
L 98.375474 376.620081 
L 100.874893 344.353582 
L 101.708033 344.353582 
L 102.541172 333.686336 
L 105.873731 333.650599 
L 106.706871 331.826284 
L 108.37315 331.733333 
L 109.20629 331.998094 
L 110.039429 331.998094 
L 110.872569 332.822249 
L 112.538848 332.822249 
L 113.371988 343.525232 
L 114.205127 332.959517 
L 115.038267 332.853678 
L 115.871407 343.613876 
L 118.370826 343.613876 
L 119.203965 342.78972 
L 120.037105 342.78972 
L 120.870245 334.343591 
L 121.703384 334.343591 
L 122.536524 344.909305 
L 123.369664 344.786086 
L 124.202803 344.786086 
L 125.869083 366.120578 
L 126.702222 366.120578 
L 127.535362 376.787824 
L 128.368502 365.191307 
L 129.201641 373.637437 
L 130.86792 373.637437 
L 131.70106 384.304683 
L 133.367339 361.891004 
L 135.866758 361.891004 
L 136.699898 362.496691 
L 138.366177 362.496691 
L 139.199317 352.099815 
L 140.032457 352.099815 
L 141.698736 374.513493 
L 143.365015 353.049262 
L 144.198155 345.066153 
L 145.031295 350.991838 
L 146.697574 350.991838 
L 147.530714 361.388714 
L 149.196993 361.388714 
L 150.030133 350.075278 
L 151.696412 371.539509 
L 152.529551 379.522618 
L 153.362691 384.587764 
L 154.195831 384.587764 
L 155.02897 373.677514 
L 157.528389 373.677514 
L 158.361529 383.492081 
L 162.527227 383.492081 
L 163.360367 386.241818 
L 165.026646 386.241818 
L 165.859786 384.695616 
L 166.692926 386.194485 
L 170.858624 386.194485 
L 171.691764 384.511906 
L 173.358043 384.511906 
L 174.191182 386.058108 
L 175.024322 386.058108 
L 175.857462 375.331662 
L 179.19002 375.331662 
L 180.02316 385.174754 
L 180.8563 384.349534 
L 183.355719 384.349534 
L 184.188858 383.479462 
L 186.688277 383.479462 
L 187.521417 380.35416 
L 188.354557 369.666789 
L 189.187696 365.10158 
L 190.020836 365.10158 
L 191.687115 342.845513 
L 192.520255 343.756945 
L 193.353394 342.922348 
L 194.186534 342.922348 
L 195.019674 334.70477 
L 195.852813 337.830072 
L 196.685953 347.692223 
L 197.519093 342.497988 
L 198.352232 342.497988 
L 199.185372 340.518527 
L 200.018512 352.071611 
L 200.851651 361.177242 
L 201.684791 362.01184 
L 202.517931 362.01184 
L 203.35107 370.229418 
L 204.18421 370.229418 
L 205.01735 369.458016 
L 205.850489 369.339697 
L 206.683629 358.564518 
L 207.516769 360.361647 
L 208.349908 354.759939 
L 209.183048 354.742771 
L 210.016188 353.092331 
L 210.849327 352.257733 
L 212.515607 352.257733 
L 213.348746 343.094954 
L 214.181886 342.557986 
L 215.015025 341.815377 
L 215.848165 352.700693 
L 216.681305 358.3024 
L 218.347584 361.549462 
L 219.180724 362.38406 
L 220.013863 358.818788 
L 220.847003 350.382584 
L 221.680143 361.141984 
L 222.513282 362.861338 
L 223.346422 372.153533 
L 224.179562 365.307002 
L 225.012701 356.632443 
L 226.678981 354.963248 
L 227.51212 343.718141 
L 228.34526 347.283413 
L 229.1784 342.392976 
L 230.011539 341.558378 
L 230.844679 351.078974 
L 231.677819 348.195379 
L 232.510958 349.951689 
L 233.344098 355.46734 
L 234.177238 345.809851 
L 235.010377 338.775384 
L 235.843517 346.827247 
L 236.676656 345.195145 
L 237.509796 352.022265 
L 238.342936 347.313874 
L 240.009215 329.084499 
L 240.842355 327.436682 
L 241.675494 319.467619 
L 242.508634 316.766065 
L 243.341774 311.4151 
L 244.174913 302.820938 
L 245.008053 296.972572 
L 245.841193 292.654673 
L 246.674332 291.452748 
L 247.507472 288.393224 
L 248.340612 290.041106 
L 249.173751 283.748648 
L 250.840031 288.98579 
L 251.67317 296.210343 
L 252.50631 299.837236 
L 253.33945 300.117254 
L 254.172589 300.976085 
L 255.005729 295.382305 
L 255.838869 293.571906 
L 256.672008 291.042688 
L 257.505148 289.731929 
L 259.171427 276.949289 
L 260.837706 257.052017 
L 261.670846 251.00836 
L 262.503986 243.886811 
L 263.337125 239.238317 
L 264.170265 236.947264 
L 265.003405 239.395416 
L 265.836544 237.473937 
L 266.669684 235.134231 
L 267.502824 234.155524 
L 268.335963 232.009975 
L 269.169103 234.893763 
L 270.002243 233.055498 
L 270.835382 229.368542 
L 271.668522 232.879655 
L 272.501662 231.21046 
L 273.334801 228.385668 
L 274.167941 224.695241 
L 275.001081 220.340653 
L 275.83422 218.34376 
L 276.66736 215.512012 
L 278.333639 203.707908 
L 279.166779 203.68045 
L 279.999918 195.963552 
L 280.833058 193.447049 
L 281.666198 188.823205 
L 282.499337 187.420132 
L 283.332477 186.769086 
L 284.165617 183.749696 
L 284.998756 182.940739 
L 285.831896 181.673154 
L 287.498175 188.173712 
L 289.164455 179.642601 
L 289.997594 173.603004 
L 291.663874 167.782941 
L 292.497013 166.052215 
L 293.330153 163.326277 
L 294.163293 159.056456 
L 294.996432 152.539732 
L 295.829572 143.282418 
L 296.662712 141.763213 
L 297.495851 139.115465 
L 298.328991 137.365191 
L 299.16213 133.491532 
L 299.99527 131.97944 
L 300.82841 128.724589 
L 302.494689 124.868694 
L 304.160968 119.950709 
L 305.827248 116.22286 
L 306.660387 112.873535 
L 307.493527 111.686763 
L 309.159806 103.983022 
L 309.992946 100.499854 
L 310.826086 97.568679 
L 311.659225 92.935114 
L 312.492365 93.064156 
L 313.325505 90.746132 
L 314.158644 91.682662 
L 314.991784 93.372915 
L 315.824924 92.011957 
L 316.658063 92.584625 
L 317.491203 94.739349 
L 318.324343 92.760378 
L 319.157482 91.612012 
L 319.990622 91.317294 
L 320.823761 88.606073 
L 321.656901 91.557236 
L 323.32318 85.293023 
L 324.15632 84.775793 
L 325.822599 81.268398 
L 326.655739 80.288766 
L 328.322018 77.030764 
L 329.155158 75.1517 
L 329.988298 69.011745 
L 330.821437 66.907193 
L 331.654577 66.548489 
L 332.487717 64.977481 
L 333.320856 63.163578 
L 334.153996 63.279835 
L 335.820275 61.595444 
L 336.653415 59.380448 
L 337.486555 58.455273 
L 339.152834 55.416872 
L 339.985973 52.397955 
L 340.819113 50.280979 
L 341.652253 49.162199 
L 342.485392 44.877963 
L 343.318532 42.900327 
L 344.151672 41.375337 
L 344.984811 40.535971 
L 345.817951 40.289527 
L 346.651091 40.280148 
L 347.48423 41.579626 
L 348.31737 41.1407 
L 349.15051 42.618937 
L 350.816789 45.858885 
L 351.649929 47.437363 
L 352.483068 47.654511 
L 353.316208 47.444669 
L 354.149348 45.973393 
L 354.982487 46.00218 
L 355.815627 44.447457 
L 356.648767 44.242343 
L 357.481906 41.984538 
L 358.315046 38.835536 
L 359.148186 36.54348 
L 359.981325 35.585057 
L 360.814465 35.348938 
L 361.647604 35.55878 
L 362.480744 36.36556 
L 363.313884 35.721394 
L 364.147023 35.947526 
L 365.813303 35.527883 
L 366.646442 36.560279 
L 367.479582 36.801921 
L 368.312722 36.181865 
L 369.145861 35.979058 
L 369.979001 35.981483 
L 370.812141 34.967248 
L 371.64528 35.981483 
L 372.47842 35.146886 
L 373.31156 35.962808 
L 374.144699 35.550238 
L 374.977839 34.510563 
L 375.810979 33.856352 
L 376.644118 34.859251 
L 377.477258 36.232615 
L 378.310398 36.23019 
L 379.143537 37.826363 
L 379.976677 37.019583 
L 380.809817 37.436884 
L 381.642956 36.828419 
L 382.476096 37.899585 
L 383.309235 37.479903 
L 384.142375 37.68736 
L 384.975515 36.479429 
L 385.808654 34.90095 
L 386.641794 34.90095 
L 387.474934 33.094936 
L 388.308073 33.703401 
L 389.141213 33.894566 
L 389.974353 33.689535 
L 390.807492 33.045328 
L 391.640632 33.045328 
L 392.473772 32.62803 
L 393.306911 32.415762 
L 394.140051 31.998464 
L 394.973191 32.652676 
L 395.80633 34.836166 
L 396.63947 34.439926 
L 397.47261 34.248761 
L 398.305749 34.871093 
L 399.138889 34.651589 
L 399.972029 35.708034 
L 400.805168 36.125332 
L 402.471448 36.125332 
L 403.304587 35.678577 
L 404.137727 33.495087 
L 404.970866 33.282861 
L 405.804006 33.282861 
L 406.637146 32.875263 
L 407.470285 32.880061 
L 408.303425 32.031073 
L 409.136565 32.243299 
L 410.802844 33.903118 
L 412.469123 34.761923 
L 413.302263 34.974149 
L 414.135403 34.351817 
L 414.968542 34.547228 
L 415.801682 35.931147 
L 416.634822 36.539613 
L 417.467961 36.54689 
L 418.301101 35.922133 
L 419.134241 35.726438 
L 419.96738 35.084697 
L 420.80052 35.4972 
L 421.63366 35.079943 
L 422.466799 35.079943 
L 423.299939 35.321585 
L 424.133078 33.51557 
L 425.799358 32.699648 
L 426.632497 32.489806 
L 427.465637 33.666296 
L 428.298777 34.279249 
L 429.131916 34.067063 
L 429.965056 34.680015 
L 430.798196 34.889844 
L 431.631335 34.235632 
L 432.464475 34.662634 
L 433.297615 34.452833 
L 434.963894 34.455259 
L 435.797034 32.861511 
L 436.630173 32.248558 
L 437.463313 32.65191 
L 438.296453 32.036532 
L 439.129592 31.824278 
L 439.962732 32.031734 
L 441.629011 31.177731 
L 443.295291 31.602307 
L 444.12843 31.39004 
L 444.96157 31.595071 
L 445.794709 30.779149 
L 446.627849 30.986605 
L 447.460989 30.776763 
L 448.294128 30.359465 
L 449.127268 31.213472 
L 449.960408 31.423314 
L 450.793547 30.996313 
L 451.626687 30.786471 
L 452.459827 31.62107 
L 453.292966 31.203771 
L 454.126106 31.206196 
L 454.959246 30.788898 
L 455.792385 30.788898 
L 456.625525 30.99874 
L 457.458665 30.354575 
L 458.291804 30.144733 
L 459.124944 30.354575 
L 459.958084 31.179795 
L 460.791223 30.555038 
L 461.624363 30.76488 
L 463.290642 30.762455 
L 464.123782 31.189456 
L 465.790061 31.194307 
L 466.623201 31.611605 
L 467.45634 31.611605 
L 468.28948 31.208482 
L 470.788899 30.578955 
L 471.622039 30.578955 
L 472.455178 30.151954 
L 473.288318 29.939686 
L 474.121458 29.937261 
L 474.954597 29.519962 
L 475.787737 29.519962 
L 476.620877 29.097866 
L 477.454016 29.097866 
L 478.287156 29.310133 
L 481.619715 29.310133 
L 482.452854 29.527293 
L 484.119134 29.529718 
L 484.952273 29.73956 
L 486.618552 29.737135 
L 487.451692 30.359548 
L 489.117971 30.359548 
L 489.951111 31.184768 
L 490.784251 30.967608 
L 491.61739 30.967608 
L 492.45053 30.755341 
L 493.28367 31.370719 
L 494.116809 31.580561 
L 494.949949 32.014972 
L 495.783089 31.602401 
L 497.449368 31.602401 
L 498.282508 31.19448 
L 499.115647 30.984637 
L 499.948787 31.62144 
L 500.781927 31.833707 
L 501.615066 31.220754 
L 502.448206 31.010912 
L 503.281346 30.578927 
L 504.114485 30.369084 
L 505.780765 30.369084 
L 506.613904 30.161628 
L 507.447044 30.784041 
L 508.280183 30.147239 
L 509.946463 30.142388 
L 510.779602 30.352231 
L 511.612742 30.139963 
L 512.445882 30.784216 
L 514.945301 30.784216 
L 515.77844 30.161803 
L 517.44472 30.161803 
L 519.110999 29.742119 
L 519.944139 29.742119 
L 520.777278 29.310133 
L 522.443558 29.732243 
L 523.276697 29.734668 
L 524.942977 30.156778 
L 528.275535 30.156778 
L 529.941814 29.732243 
L 530.774954 29.732243 
L 532.441233 29.307708 
L 533.274373 29.515165 
L 534.107513 29.305322 
L 534.940652 29.305322 
L 535.773792 29.515165 
L 536.606932 30.601622 
L 538.273211 30.601622 
L 539.106351 30.39178 
L 539.93949 30.601622 
L 540.77263 30.601622 
L 541.60577 30.184324 
L 544.105189 30.184324 
L 544.938328 29.307708 
L 545.771468 29.930121 
L 547.437747 29.930121 
L 548.270887 30.137577 
L 549.937166 30.137577 
L 550.770306 30.554876 
L 552.436585 30.972174 
L 553.269725 31.626386 
L 554.102864 31.213816 
L 554.936004 31.423658 
L 555.769144 31.840956 
L 557.435423 33.071835 
L 558.268563 33.071835 
L 559.101702 32.654536 
L 559.934842 32.444694 
L 560.767982 32.027396 
L 561.601121 31.163341 
L 562.434261 30.953499 
L 563.267401 30.955925 
L 564.10054 30.750893 
L 564.93368 29.725129 
L 565.76682 29.102717 
L 567.433099 29.524826 
L 568.266239 29.942125 
L 569.099378 30.776724 
L 569.932518 30.776724 
L 570.765657 31.194022 
L 571.598797 30.981755 
L 572.431937 31.196489 
L 573.265076 31.196489 
L 574.098216 31.406331 
L 575.764495 30.984222 
L 576.597635 30.566923 
L 577.430775 29.732324 
L 578.263914 29.944591 
L 579.097054 29.737135 
L 579.930194 29.737135 
L 581.596473 30.552652 
L 584.095892 30.552652 
L 585.762171 30.972336 
L 586.595311 30.760069 
L 588.26159 30.762494 
L 589.09473 29.937274 
L 589.92787 29.519976 
L 591.594149 29.522401 
L 592.427288 29.734668 
L 593.260428 29.524826 
L 594.093568 29.524826 
L 594.926707 29.737093 
L 595.759847 30.147239 
L 596.592987 30.357081 
L 598.259266 30.357081 
L 599.092406 30.144814 
L 601.591825 30.144814 
L 602.424964 29.934971 
L 603.258104 29.934971 
L 604.091244 29.312559 
L 608.256942 29.314984 
L 609.090082 29.102717 
L 609.923221 29.102717 
L 610.756361 29.312559 
L 611.589501 29.100291 
L 617.421478 29.097866 
L 618.254618 29.720279 
L 619.087757 29.510437 
L 619.920897 29.720279 
L 622.420316 29.722704 
L 623.253456 30.809162 
L 624.086595 31.019004 
L 624.919735 31.019004 
L 625.752875 31.436303 
L 626.586014 30.81389 
L 630.751713 30.811465 
L 631.584852 29.725007 
L 633.251131 29.727432 
L 634.084271 29.310133 
L 636.58369 29.310133 
L 637.41683 29.519976 
L 640.749388 29.519976 
L 642.415668 30.364276 
L 644.081947 30.364276 
L 646.581366 29.734749 
L 648.247645 29.734749 
L 649.913925 29.315025 
L 650.747064 28.888024 
L 651.580204 29.305322 
L 653.246483 29.725007 
L 654.912762 29.725007 
L 655.745902 29.937274 
L 656.579042 30.364276 
L 657.412181 30.364276 
L 658.245321 30.154433 
L 659.078461 30.154433 
L 661.57788 29.529718 
L 663.244159 29.529718 
L 664.077299 29.317451 
L 664.910438 28.890449 
L 666.576718 28.890449 
L 667.409857 29.100291 
L 668.242997 28.888024 
L 671.575556 28.888024 
L 672.408695 29.100291 
L 673.241835 29.100291 
L 674.908114 29.519976 
L 675.741254 29.310133 
L 678.240673 29.310133 
L 679.073812 29.519976 
L 681.573231 29.51755 
L 683.239511 29.097866 
L 686.572069 29.097866 
L 687.405209 28.888024 
L 688.238349 28.888024 
L 689.071488 28.678182 
L 689.904628 28.678182 
L 690.737768 28.890449 
L 693.237187 28.890449 
L 694.070326 29.100291 
L 694.903466 29.100291 
L 695.736606 29.310133 
L 698.236024 29.310133 
L 699.069164 29.097866 
L 699.902304 29.097866 
L 701.568583 29.51755 
L 702.401723 29.307708 
L 703.234862 29.51755 
L 704.068002 29.307708 
L 708.2337 29.307708 
L 709.89998 28.888024 
L 710.733119 28.888024 
L 711.566259 28.678182 
L 717.398236 28.678182 
L 718.231376 29.09548 
L 719.064516 29.09548 
L 719.897655 29.305322 
L 720.730795 29.305322 
L 721.563935 29.515165 
L 727.395912 29.524868 
L 728.229052 29.315025 
L 729.062192 29.315025 
L 729.895331 29.105183 
L 734.06103 29.105183 
L 734.894169 28.678182 
L 737.393588 28.678182 
L 739.059867 29.102717 
L 740.726147 29.102717 
L 741.559286 29.312559 
L 746.558124 29.310133 
L 747.391264 29.515165 
L 748.224404 30.159417 
L 749.057543 30.159417 
L 749.890683 30.366874 
L 750.723823 30.996398 
L 751.556962 31.208665 
L 753.223242 31.208665 
L 754.056381 31.418508 
L 754.889521 31.208665 
L 755.722661 30.791367 
L 756.5558 30.147114 
L 757.38894 30.356956 
L 758.22208 29.939658 
L 759.055219 29.310133 
L 765.720336 29.312559 
L 766.553476 29.73956 
L 767.386616 29.73956 
L 768.219755 30.949916 
L 769.052895 30.949916 
L 769.886035 31.159758 
L 771.552314 31.157333 
L 773.218593 31.581868 
L 774.051733 31.581868 
L 774.884873 31.154866 
L 775.718012 31.154866 
L 776.551152 29.94451 
L 777.384292 29.94451 
L 778.217431 29.734668 
L 779.88371 29.737093 
L 780.71685 29.524826 
L 781.54999 29.522401 
L 782.383129 29.310133 
L 783.216269 29.519976 
L 784.882548 29.519976 
L 785.715688 29.732243 
L 786.548828 29.732243 
L 787.381967 29.519976 
L 790.714526 29.522401 
L 791.547666 29.312559 
L 792.380805 29.312559 
L 793.213945 29.102717 
L 794.880224 29.100291 
L 795.713364 29.312559 
L 796.546504 29.312559 
L 797.379643 29.524826 
L 798.212783 29.312559 
L 799.045923 29.522401 
L 799.879062 30.347621 
L 801.545341 30.347621 
L 802.378481 30.137779 
L 803.211621 30.137779 
L 804.04476 29.925511 
L 804.8779 30.135354 
L 805.71104 29.923086 
L 806.544179 30.350088 
L 807.377319 30.140246 
L 808.210459 29.315025 
L 809.043598 29.315025 
L 809.876738 29.527293 
L 811.543017 29.527293 
L 812.376157 29.737135 
L 813.209297 29.527293 
L 814.042436 29.737135 
L 814.875576 29.310133 
L 815.708716 29.310133 
L 816.541855 29.727432 
L 817.374995 30.349845 
L 819.041274 30.34742 
L 819.874414 30.557262 
L 821.540693 30.559687 
L 822.373833 30.349845 
L 824.040112 30.349845 
L 824.873252 30.142388 
L 825.706391 29.729818 
L 826.539531 29.519976 
L 827.372671 29.519976 
L 829.03895 29.097866 
L 829.87209 29.097866 
L 830.705229 29.307708 
L 831.538369 29.307708 
L 832.371509 29.51755 
L 833.204648 29.307708 
L 836.537207 29.307708 
L 838.203486 29.727393 
L 839.036626 29.51755 
L 844.868603 29.519976 
L 846.534883 29.100291 
L 847.368022 29.527293 
L 848.201162 29.737135 
L 849.034302 29.524868 
L 849.867441 29.73471 
L 850.700581 29.524868 
L 851.533721 29.524868 
L 852.36686 29.73471 
L 852.36686 29.73471 
" clip-path="url(#pe2ec2550ea)" style="fill: none; stroke-dasharray: 7.4,3.2; stroke-dashoffset: 0; stroke: #000000; stroke-width: 2"/>
   </g>
   <g id="patch_3">
    <path d="M 35.89 404.12 
L 35.89 10.8 
" style="fill: none; stroke: #000000; stroke-width: 0.8; stroke-linejoin: miter; stroke-linecap: square"/>
   </g>
   <g id="patch_4">
    <path d="M 853.2 404.12 
L 853.2 10.8 
" style="fill: none; stroke: #000000; stroke-width: 0.8; stroke-linejoin: miter; stroke-linecap: square"/>
   </g>
   <g id="patch_5">
    <path d="M 35.89 404.12 
L 853.2 404.12 
" style="fill: none; stroke: #000000; stroke-width: 0.8; stroke-linejoin: miter; stroke-linecap: square"/>
   </g>
   <g id="patch_6">
    <path d="M 35.89 10.8 
L 853.2 10.8 
" style="fill: none; stroke: #000000; stroke-width: 0.8; stroke-linejoin: miter; stroke-linecap: square"/>
   </g>
  </g>
 </g>
 <defs>
  <clipPath id="pe2ec2550ea">
   <rect x="35.89" y="10.8" width="817.31" height="393.32"/>
  </clipPath>
 </defs>
</svg>
