<?xml version="1.0" encoding="utf-8" standalone="no"?>
<!DOCTYPE svg PUBLIC "-//W3C//DTD SVG 1.1//EN"
  "http://www.w3.org/Graphics/SVG/1.1/DTD/svg11.dtd">
<svg xmlns:xlink="http://www.w3.org/1999/xlink" width="864pt" height="432pt" viewBox="0 0 864 432" xmlns="http://www.w3.org/2000/svg" version="1.1">
 <metadata>
  <rdf:RDF xmlns:dc="http://purl.org/dc/elements/1.1/" xmlns:cc="http://creativecommons.org/ns#" xmlns:rdf="http://www.w3.org/1999/02/22-rdf-syntax-ns#">
   <cc:Work>
    <dc:type rdf:resource="http://purl.org/dc/dcmitype/StillImage"/>
    <dc:date>2024-09-19T15:49:56.471464</dc:date>
    <dc:format>image/svg+xml</dc:format>
    <dc:creator>
     <cc:Agent>
      <dc:title>Matplotlib v3.9.2, https://matplotlib.org/</dc:title>
     </cc:Agent>
    </dc:creator>
   </cc:Work>
  </rdf:RDF>
 </metadata>
 <defs>
  <style type="text/css">*{stroke-linejoin: round; stroke-linecap: butt}</style>
 </defs>
 <g id="figure_1">
  <g id="patch_1">
   <path d="M 0 432 
L 864 432 
L 864 0 
L 0 0 
z
" style="fill: #ffffff"/>
  </g>
  <g id="axes_1">
   <g id="patch_2">
    <path d="M 41.92 404.12 
L 853.2 404.12 
L 853.2 12.69846 
L 41.92 12.69846 
z
" style="fill: #ffffff"/>
   </g>
   <g id="matplotlib.axis_1">
    <g id="xtick_1">
     <g id="line2d_1">
      <defs>
       <path id="me1897817d2" d="M 0 0 
L 0 3.5 
" style="stroke: #000000; stroke-width: 0.8"/>
      </defs>
      <g>
       <use xlink:href="#me1897817d2" x="199.048644" y="404.12" style="stroke: #000000; stroke-width: 0.8"/>
      </g>
     </g>
     <g id="text_1">
      <!-- 200 -->
      <g transform="translate(190.018175 418.771563) scale(0.1 -0.1)">
       <defs>
        <path id="DejaVuSansMono-32" d="M 1166 531 
L 3309 531 
L 3309 0 
L 475 0 
L 475 531 
Q 1059 1147 1496 1619 
Q 1934 2091 2100 2284 
Q 2413 2666 2522 2902 
Q 2631 3138 2631 3384 
Q 2631 3775 2401 3997 
Q 2172 4219 1772 4219 
Q 1488 4219 1175 4116 
Q 863 4013 513 3803 
L 513 4441 
Q 834 4594 1145 4672 
Q 1456 4750 1759 4750 
Q 2444 4750 2861 4386 
Q 3278 4022 3278 3431 
Q 3278 3131 3139 2831 
Q 3000 2531 2688 2169 
Q 2513 1966 2180 1606 
Q 1847 1247 1166 531 
z
" transform="scale(0.015625)"/>
        <path id="DejaVuSansMono-30" d="M 1509 2344 
Q 1509 2516 1629 2641 
Q 1750 2766 1919 2766 
Q 2094 2766 2219 2641 
Q 2344 2516 2344 2344 
Q 2344 2169 2220 2047 
Q 2097 1925 1919 1925 
Q 1744 1925 1626 2044 
Q 1509 2163 1509 2344 
z
M 1925 4250 
Q 1484 4250 1267 3775 
Q 1050 3300 1050 2328 
Q 1050 1359 1267 884 
Q 1484 409 1925 409 
Q 2369 409 2586 884 
Q 2803 1359 2803 2328 
Q 2803 3300 2586 3775 
Q 2369 4250 1925 4250 
z
M 1925 4750 
Q 2672 4750 3055 4137 
Q 3438 3525 3438 2328 
Q 3438 1134 3055 521 
Q 2672 -91 1925 -91 
Q 1178 -91 797 521 
Q 416 1134 416 2328 
Q 416 3525 797 4137 
Q 1178 4750 1925 4750 
z
" transform="scale(0.015625)"/>
       </defs>
       <use xlink:href="#DejaVuSansMono-32"/>
       <use xlink:href="#DejaVuSansMono-30" x="60.205078"/>
       <use xlink:href="#DejaVuSansMono-30" x="120.410156"/>
      </g>
     </g>
    </g>
    <g id="xtick_2">
     <g id="line2d_2">
      <g>
       <use xlink:href="#me1897817d2" x="364.447217" y="404.12" style="stroke: #000000; stroke-width: 0.8"/>
      </g>
     </g>
     <g id="text_2">
      <!-- 400 -->
      <g transform="translate(355.416748 418.771563) scale(0.1 -0.1)">
       <defs>
        <path id="DejaVuSansMono-34" d="M 2297 4091 
L 825 1625 
L 2297 1625 
L 2297 4091 
z
M 2194 4666 
L 2925 4666 
L 2925 1625 
L 3547 1625 
L 3547 1113 
L 2925 1113 
L 2925 0 
L 2297 0 
L 2297 1113 
L 319 1113 
L 319 1709 
L 2194 4666 
z
" transform="scale(0.015625)"/>
       </defs>
       <use xlink:href="#DejaVuSansMono-34"/>
       <use xlink:href="#DejaVuSansMono-30" x="60.205078"/>
       <use xlink:href="#DejaVuSansMono-30" x="120.410156"/>
      </g>
     </g>
    </g>
    <g id="xtick_3">
     <g id="line2d_3">
      <g>
       <use xlink:href="#me1897817d2" x="529.84579" y="404.12" style="stroke: #000000; stroke-width: 0.8"/>
      </g>
     </g>
     <g id="text_3">
      <!-- 600 -->
      <g transform="translate(520.815321 418.771563) scale(0.1 -0.1)">
       <defs>
        <path id="DejaVuSansMono-36" d="M 3097 4563 
L 3097 3981 
Q 2900 4097 2678 4158 
Q 2456 4219 2216 4219 
Q 1616 4219 1306 3767 
Q 997 3316 997 2438 
Q 1147 2750 1412 2917 
Q 1678 3084 2022 3084 
Q 2697 3084 3067 2670 
Q 3438 2256 3438 1497 
Q 3438 741 3056 325 
Q 2675 -91 1984 -91 
Q 1172 -91 794 492 
Q 416 1075 416 2328 
Q 416 3509 870 4129 
Q 1325 4750 2188 4750 
Q 2419 4750 2650 4701 
Q 2881 4653 3097 4563 
z
M 1972 2591 
Q 1569 2591 1337 2300 
Q 1106 2009 1106 1497 
Q 1106 984 1337 693 
Q 1569 403 1972 403 
Q 2391 403 2603 679 
Q 2816 956 2816 1497 
Q 2816 2041 2603 2316 
Q 2391 2591 1972 2591 
z
" transform="scale(0.015625)"/>
       </defs>
       <use xlink:href="#DejaVuSansMono-36"/>
       <use xlink:href="#DejaVuSansMono-30" x="60.205078"/>
       <use xlink:href="#DejaVuSansMono-30" x="120.410156"/>
      </g>
     </g>
    </g>
    <g id="xtick_4">
     <g id="line2d_4">
      <g>
       <use xlink:href="#me1897817d2" x="695.244363" y="404.12" style="stroke: #000000; stroke-width: 0.8"/>
      </g>
     </g>
     <g id="text_4">
      <!-- 800 -->
      <g transform="translate(686.213894 418.771563) scale(0.1 -0.1)">
       <defs>
        <path id="DejaVuSansMono-38" d="M 1925 2216 
Q 1503 2216 1273 1980 
Q 1044 1744 1044 1313 
Q 1044 881 1276 642 
Q 1509 403 1925 403 
Q 2350 403 2579 639 
Q 2809 875 2809 1313 
Q 2809 1741 2576 1978 
Q 2344 2216 1925 2216 
z
M 1375 2478 
Q 972 2581 745 2862 
Q 519 3144 519 3541 
Q 519 4097 897 4423 
Q 1275 4750 1925 4750 
Q 2578 4750 2956 4423 
Q 3334 4097 3334 3541 
Q 3334 3144 3107 2862 
Q 2881 2581 2478 2478 
Q 2947 2375 3195 2062 
Q 3444 1750 3444 1253 
Q 3444 622 3041 265 
Q 2638 -91 1925 -91 
Q 1213 -91 811 264 
Q 409 619 409 1247 
Q 409 1747 657 2061 
Q 906 2375 1375 2478 
z
M 1147 3481 
Q 1147 3106 1347 2909 
Q 1547 2713 1925 2713 
Q 2306 2713 2506 2909 
Q 2706 3106 2706 3481 
Q 2706 3863 2507 4063 
Q 2309 4263 1925 4263 
Q 1547 4263 1347 4061 
Q 1147 3859 1147 3481 
z
" transform="scale(0.015625)"/>
       </defs>
       <use xlink:href="#DejaVuSansMono-38"/>
       <use xlink:href="#DejaVuSansMono-30" x="60.205078"/>
       <use xlink:href="#DejaVuSansMono-30" x="120.410156"/>
      </g>
     </g>
    </g>
   </g>
   <g id="matplotlib.axis_2">
    <g id="ytick_1">
     <g id="line2d_5">
      <defs>
       <path id="mc23b73dca8" d="M 0 0 
L -3.5 0 
" style="stroke: #000000; stroke-width: 0.8"/>
      </defs>
      <g>
       <use xlink:href="#mc23b73dca8" x="41.92" y="386.8886" style="stroke: #000000; stroke-width: 0.8"/>
      </g>
     </g>
     <g id="text_5">
      <!-- 0.00 -->
      <g transform="translate(10.83875 390.714382) scale(0.1 -0.1)">
       <defs>
        <path id="DejaVuSansMono-2e" d="M 1528 953 
L 2316 953 
L 2316 0 
L 1528 0 
L 1528 953 
z
" transform="scale(0.015625)"/>
       </defs>
       <use xlink:href="#DejaVuSansMono-30"/>
       <use xlink:href="#DejaVuSansMono-2e" x="60.205078"/>
       <use xlink:href="#DejaVuSansMono-30" x="120.410156"/>
       <use xlink:href="#DejaVuSansMono-30" x="180.615234"/>
      </g>
     </g>
    </g>
    <g id="ytick_2">
     <g id="line2d_6">
      <g>
       <use xlink:href="#mc23b73dca8" x="41.92" y="312.53574" style="stroke: #000000; stroke-width: 0.8"/>
      </g>
     </g>
     <g id="text_6">
      <!-- 0.02 -->
      <g transform="translate(10.83875 316.361521) scale(0.1 -0.1)">
       <use xlink:href="#DejaVuSansMono-30"/>
       <use xlink:href="#DejaVuSansMono-2e" x="60.205078"/>
       <use xlink:href="#DejaVuSansMono-30" x="120.410156"/>
       <use xlink:href="#DejaVuSansMono-32" x="180.615234"/>
      </g>
     </g>
    </g>
    <g id="ytick_3">
     <g id="line2d_7">
      <g>
       <use xlink:href="#mc23b73dca8" x="41.92" y="238.18288" style="stroke: #000000; stroke-width: 0.8"/>
      </g>
     </g>
     <g id="text_7">
      <!-- 0.04 -->
      <g transform="translate(10.83875 242.008661) scale(0.1 -0.1)">
       <use xlink:href="#DejaVuSansMono-30"/>
       <use xlink:href="#DejaVuSansMono-2e" x="60.205078"/>
       <use xlink:href="#DejaVuSansMono-30" x="120.410156"/>
       <use xlink:href="#DejaVuSansMono-34" x="180.615234"/>
      </g>
     </g>
    </g>
    <g id="ytick_4">
     <g id="line2d_8">
      <g>
       <use xlink:href="#mc23b73dca8" x="41.92" y="163.83002" style="stroke: #000000; stroke-width: 0.8"/>
      </g>
     </g>
     <g id="text_8">
      <!-- 0.06 -->
      <g transform="translate(10.83875 167.655801) scale(0.1 -0.1)">
       <use xlink:href="#DejaVuSansMono-30"/>
       <use xlink:href="#DejaVuSansMono-2e" x="60.205078"/>
       <use xlink:href="#DejaVuSansMono-30" x="120.410156"/>
       <use xlink:href="#DejaVuSansMono-36" x="180.615234"/>
      </g>
     </g>
    </g>
    <g id="ytick_5">
     <g id="line2d_9">
      <g>
       <use xlink:href="#mc23b73dca8" x="41.92" y="89.47716" style="stroke: #000000; stroke-width: 0.8"/>
      </g>
     </g>
     <g id="text_9">
      <!-- 0.08 -->
      <g transform="translate(10.83875 93.302941) scale(0.1 -0.1)">
       <use xlink:href="#DejaVuSansMono-30"/>
       <use xlink:href="#DejaVuSansMono-2e" x="60.205078"/>
       <use xlink:href="#DejaVuSansMono-30" x="120.410156"/>
       <use xlink:href="#DejaVuSansMono-38" x="180.615234"/>
      </g>
     </g>
    </g>
    <g id="ytick_6">
     <g id="line2d_10">
      <g>
       <use xlink:href="#mc23b73dca8" x="41.92" y="15.124299" style="stroke: #000000; stroke-width: 0.8"/>
      </g>
     </g>
     <g id="text_10">
      <!-- 0.10 -->
      <g transform="translate(10.83875 18.950081) scale(0.1 -0.1)">
       <defs>
        <path id="DejaVuSansMono-31" d="M 844 531 
L 1825 531 
L 1825 4097 
L 769 3859 
L 769 4434 
L 1819 4666 
L 2450 4666 
L 2450 531 
L 3419 531 
L 3419 0 
L 844 0 
L 844 531 
z
" transform="scale(0.015625)"/>
       </defs>
       <use xlink:href="#DejaVuSansMono-30"/>
       <use xlink:href="#DejaVuSansMono-2e" x="60.205078"/>
       <use xlink:href="#DejaVuSansMono-31" x="120.410156"/>
       <use xlink:href="#DejaVuSansMono-30" x="180.615234"/>
      </g>
     </g>
    </g>
   </g>
   <g id="line2d_11">
    <path d="M 33.650071 76.611339 
L 34.477064 85.91121 
L 35.304057 84.006693 
L 36.13105 90.675981 
L 36.958043 88.015303 
L 37.785036 87.178911 
L 38.612029 41.260016 
L 39.439021 45.618695 
L 40.266014 38.329105 
L 41.093007 38.172556 
L 41.92 50.863397 
L 42.746993 57.215567 
L 43.573986 74.752031 
L 44.400979 73.510334 
L 45.227971 83.79381 
L 46.054964 88.593003 
L 46.881957 121.179042 
L 47.70895 113.603406 
L 48.535943 119.931062 
L 49.362936 104.613053 
L 50.189929 102.140413 
L 51.016922 93.000573 
L 51.843914 93.735988 
L 52.670907 78.577207 
L 53.4979 76.379536 
L 54.324893 75.465293 
L 55.151886 95.639956 
L 55.978879 104.545333 
L 56.805872 107.991146 
L 57.632864 123.450441 
L 58.459857 123.925436 
L 59.28685 133.425089 
L 60.113843 125.927593 
L 60.940836 137.018059 
L 61.767829 124.01911 
L 63.421814 110.844757 
L 64.248807 74.006828 
L 65.0758 71.432185 
L 65.902793 71.143752 
L 66.729786 70.702818 
L 67.556779 58.735885 
L 69.210765 73.394347 
L 70.037757 89.977781 
L 70.86475 30.490348 
L 71.691743 31.65283 
L 72.518736 61.356713 
L 73.345729 64.198187 
L 74.172722 55.32121 
L 74.999715 55.522775 
L 75.826707 65.901091 
L 76.6537 54.454642 
L 77.480693 51.730265 
L 78.307686 51.907134 
L 79.134679 119.217306 
L 79.961672 71.858978 
L 80.788665 75.270933 
L 81.615657 74.895326 
L 83.269643 80.762316 
L 84.096636 78.079917 
L 84.923629 90.574305 
L 85.750622 92.445855 
L 86.577615 90.912901 
L 87.404608 86.823721 
L 88.2316 133.141872 
L 89.058593 137.434301 
L 89.885586 133.357889 
L 90.712579 141.761793 
L 91.539572 132.997361 
L 92.366565 134.93007 
L 93.193558 132.789723 
L 94.02055 121.610424 
L 94.847543 113.684808 
L 96.501529 123.060886 
L 97.328522 123.053703 
L 98.155515 120.259294 
L 98.982508 118.930005 
L 99.809501 119.099246 
L 100.636493 122.397456 
L 101.463486 121.890544 
L 102.290479 111.036566 
L 103.117472 120.262127 
L 103.944465 119.197194 
L 104.771458 108.03288 
L 105.598451 67.497311 
L 106.425443 72.053155 
L 107.252436 48.670302 
L 108.079429 39.52802 
L 109.733415 37.597289 
L 110.560408 56.850402 
L 111.387401 56.670547 
L 112.214393 53.986982 
L 113.041386 63.661947 
L 113.868379 94.280898 
L 114.695372 76.575921 
L 115.522365 101.941447 
L 116.349358 117.896735 
L 117.176351 118.604653 
L 118.003344 121.890075 
L 118.830336 125.748365 
L 119.657329 122.522733 
L 120.484322 124.006201 
L 121.311315 127.044409 
L 122.138308 105.31632 
L 122.965301 118.136573 
L 123.792294 118.22665 
L 124.619286 111.229164 
L 125.446279 111.677291 
L 126.273272 110.393547 
L 127.100265 104.456987 
L 127.927258 105.711406 
L 128.754251 92.183477 
L 129.581244 81.529802 
L 130.408236 113.281181 
L 131.235229 112.224388 
L 132.062222 112.443441 
L 132.889215 115.71843 
L 133.716208 113.099832 
L 134.543201 96.809765 
L 135.370194 99.048798 
L 136.197187 101.757879 
L 137.024179 103.569278 
L 137.851172 112.513779 
L 138.678165 107.951312 
L 139.505158 116.81344 
L 140.332151 116.951224 
L 141.159144 121.565652 
L 141.986137 119.86918 
L 142.813129 136.424122 
L 143.640122 139.642272 
L 144.467115 135.706979 
L 145.294108 146.722372 
L 146.121101 148.425063 
L 146.948094 149.0143 
L 147.775087 139.165518 
L 148.60208 135.524171 
L 149.429072 135.150578 
L 150.256065 137.976636 
L 151.083058 136.96213 
L 151.910051 132.741826 
L 152.737044 135.486622 
L 153.564037 137.53131 
L 154.39103 133.685005 
L 155.218022 135.315661 
L 156.045015 127.961536 
L 156.872008 131.969185 
L 157.699001 132.763634 
L 158.525994 132.303291 
L 159.352987 127.141762 
L 160.17998 128.792787 
L 161.006972 121.558495 
L 161.833965 122.458524 
L 162.660958 126.554379 
L 163.487951 128.258605 
L 164.314944 145.414509 
L 165.141937 145.362876 
L 165.96893 145.950466 
L 166.795923 140.271943 
L 167.622915 146.674584 
L 168.449908 148.377695 
L 169.276901 154.76936 
L 170.103894 150.901463 
L 170.930887 150.416768 
L 171.75788 151.172856 
L 172.584873 150.936082 
L 173.411865 150.178412 
L 174.238858 147.192143 
L 175.065851 152.607806 
L 175.892844 148.904176 
L 176.719837 148.68183 
L 177.54683 149.833797 
L 178.373823 153.655655 
L 179.200815 154.472866 
L 180.027808 145.059722 
L 180.854801 140.560142 
L 181.681794 141.030955 
L 182.508787 129.924559 
L 183.33578 126.363824 
L 184.162773 128.930803 
L 184.989766 130.676468 
L 185.816758 131.094832 
L 186.643751 131.810314 
L 187.470744 129.331838 
L 188.297737 137.118127 
L 189.12473 140.055769 
L 189.951723 139.385277 
L 190.778716 153.87814 
L 191.605708 159.642135 
L 192.432701 160.646076 
L 193.259694 156.737222 
L 194.086687 156.302781 
L 194.91368 151.926757 
L 195.740673 146.046937 
L 196.567666 146.122283 
L 197.394659 125.869195 
L 198.221651 126.851602 
L 199.048644 126.908905 
L 199.875637 125.55744 
L 200.70263 127.039082 
L 201.529623 131.135985 
L 202.356616 129.899234 
L 203.183609 134.408113 
L 204.010601 140.522762 
L 204.837594 142.351623 
L 205.664587 164.752201 
L 206.49158 163.748873 
L 207.318573 163.865382 
L 208.145566 165.784848 
L 208.972559 165.709012 
L 209.799551 165.976143 
L 210.626544 151.604187 
L 211.453537 144.633551 
L 212.28053 139.287115 
L 213.107523 138.177056 
L 213.934516 137.956385 
L 214.761509 139.83396 
L 215.588502 139.903082 
L 216.415494 138.848325 
L 217.242487 138.852579 
L 218.06948 137.760983 
L 218.896473 151.708319 
L 219.723466 155.573093 
L 220.550459 163.694234 
L 221.377452 164.900767 
L 222.204444 163.835148 
L 223.031437 162.350345 
L 223.85843 158.614217 
L 224.685423 158.640694 
L 225.512416 158.120107 
L 226.339409 157.303866 
L 227.166402 159.4867 
L 227.993394 163.172341 
L 228.820387 162.622378 
L 229.64738 162.451481 
L 230.474373 164.282924 
L 231.301366 162.807118 
L 232.128359 165.940508 
L 232.955352 166.337569 
L 233.782345 166.334848 
L 234.609337 165.789256 
L 235.43633 166.65499 
L 236.263323 166.004113 
L 237.090316 165.866618 
L 237.917309 165.441486 
L 238.744302 165.612939 
L 239.571295 169.15526 
L 241.22528 171.126039 
L 242.879266 174.791513 
L 243.706259 175.81039 
L 244.533252 175.380795 
L 245.360245 176.969644 
L 246.187238 178.180504 
L 247.01423 178.393488 
L 247.841223 177.808895 
L 249.495209 178.945779 
L 250.322202 179.055399 
L 251.149195 181.122231 
L 251.976188 181.539064 
L 252.80318 183.490633 
L 253.630173 183.526753 
L 256.111152 186.466162 
L 256.938145 185.958945 
L 259.419123 187.951528 
L 260.246116 187.282226 
L 261.073109 188.090423 
L 261.900102 189.352101 
L 262.727095 189.448499 
L 263.554088 190.716211 
L 264.381081 192.546765 
L 265.208073 194.811503 
L 267.689052 198.371447 
L 268.516045 201.372161 
L 269.343038 202.257717 
L 270.170031 203.475389 
L 270.997023 204.171196 
L 271.824016 204.640715 
L 272.651009 205.595959 
L 273.478002 203.713254 
L 274.304995 204.493699 
L 275.131988 206.72137 
L 275.958981 207.063764 
L 276.785973 207.595944 
L 278.439959 209.701728 
L 279.266952 213.029747 
L 280.920938 216.055776 
L 281.747931 219.361421 
L 282.574924 221.32769 
L 283.401916 221.152677 
L 285.055902 224.219513 
L 285.882895 224.801887 
L 286.709888 227.068934 
L 287.536881 228.224132 
L 288.363874 230.886852 
L 289.190866 232.122991 
L 290.017859 235.006404 
L 290.844852 235.324321 
L 291.671845 236.120077 
L 293.325831 240.755825 
L 294.152824 244.645903 
L 296.633802 249.447473 
L 297.460795 251.802685 
L 299.114781 255.732422 
L 299.941774 259.838112 
L 300.768767 262.189124 
L 301.595759 263.946165 
L 302.422752 264.717927 
L 303.249745 267.54166 
L 304.076738 268.829037 
L 305.730724 272.403479 
L 306.557717 274.753003 
L 307.384709 277.837879 
L 308.211702 279.878821 
L 309.865688 283.471155 
L 310.692681 285.750621 
L 311.519674 287.625069 
L 312.346667 289.797363 
L 313.17366 291.041948 
L 315.654638 299.10161 
L 316.481631 300.853926 
L 317.308624 303.206945 
L 318.135617 304.657361 
L 318.96261 307.062058 
L 319.789602 308.588837 
L 320.616595 311.342346 
L 321.443588 313.458451 
L 322.270581 314.548672 
L 323.924567 318.07003 
L 324.75156 319.345376 
L 325.578552 319.869618 
L 326.405545 322.875352 
L 327.232538 325.299465 
L 328.059531 326.810523 
L 328.886524 328.68656 
L 329.713517 330.017251 
L 333.021488 336.793572 
L 333.848481 339.308247 
L 335.502467 341.973266 
L 336.32946 342.917733 
L 337.156453 344.311891 
L 337.983445 344.670775 
L 339.637431 348.375935 
L 340.464424 350.360666 
L 341.291417 351.700231 
L 342.11841 354.074328 
L 343.772396 357.204515 
L 344.599388 359.165262 
L 345.426381 359.86574 
L 346.253374 362.803849 
L 347.90736 363.947834 
L 348.734353 364.231598 
L 349.561346 364.356056 
L 350.388338 364.889104 
L 351.215331 364.310897 
L 352.042324 364.989364 
L 352.869317 364.52487 
L 353.69631 363.485165 
L 354.523303 363.208203 
L 355.350296 363.78268 
L 356.177288 363.764164 
L 357.004281 364.278882 
L 357.831274 366.354619 
L 358.658267 365.970154 
L 359.48526 367.878851 
L 360.312253 368.259687 
L 361.139246 369.710609 
L 361.966239 371.869753 
L 362.793231 373.276065 
L 363.620224 373.285094 
L 364.447217 373.984461 
L 365.27421 374.479971 
L 366.101203 374.315662 
L 366.928196 375.137118 
L 367.755189 374.300857 
L 368.582181 374.276823 
L 369.409174 374.693953 
L 371.06316 373.930392 
L 372.717146 375.281564 
L 374.371131 375.462163 
L 375.198124 375.295637 
L 376.025117 376.162259 
L 376.85211 375.766578 
L 377.679103 375.685978 
L 378.506096 376.72096 
L 379.333089 377.440546 
L 380.160082 376.99534 
L 380.987074 376.286798 
L 381.814067 376.513535 
L 382.64106 376.320298 
L 383.468053 376.503934 
L 384.295046 376.215705 
L 385.122039 376.616909 
L 385.949032 375.49988 
L 386.776024 375.555722 
L 387.603017 375.395926 
L 389.257003 376.455491 
L 390.083996 376.575114 
L 390.910989 377.36415 
L 391.737982 377.185769 
L 393.391967 377.698656 
L 394.21896 378.576793 
L 395.045953 378.954377 
L 395.872946 378.962306 
L 396.699939 379.29798 
L 397.526932 379.227472 
L 398.353925 378.214459 
L 399.180917 376.532522 
L 400.00791 376.851382 
L 400.834903 377.029394 
L 401.661896 376.781114 
L 402.488889 377.343832 
L 403.315882 376.302862 
L 404.142875 376.622238 
L 404.969867 376.722532 
L 405.79686 377.001705 
L 406.623853 378.016344 
L 407.450846 379.666506 
L 408.277839 379.755387 
L 409.104832 379.317404 
L 409.931825 379.531993 
L 410.758818 378.62625 
L 411.58581 379.526111 
L 412.412803 379.517168 
L 413.239796 379.085859 
L 414.066789 378.868428 
L 414.893782 378.324106 
L 415.720775 378.059211 
L 416.547768 377.935775 
L 417.37476 378.601324 
L 419.028746 378.741265 
L 420.682732 378.627054 
L 421.509725 379.086478 
L 422.336718 379.080501 
L 423.16371 379.846372 
L 423.990703 379.90031 
L 424.817696 380.18322 
L 425.644689 379.987969 
L 426.471682 379.032531 
L 427.298675 380.173471 
L 428.125668 379.743184 
L 428.952661 379.948154 
L 429.779653 379.960528 
L 430.606646 379.471342 
L 431.433639 379.243872 
L 432.260632 379.294012 
L 433.087625 379.164237 
L 433.914618 379.42741 
L 434.741611 380.742303 
L 435.568603 380.467905 
L 436.395596 381.2173 
L 437.222589 380.923655 
L 438.049582 380.784267 
L 438.876575 381.345112 
L 439.703568 381.38083 
L 440.530561 381.10187 
L 441.357554 381.376528 
L 442.184546 381.499618 
L 443.011539 381.284819 
L 443.838532 381.676226 
L 444.665525 381.865475 
L 445.492518 381.831698 
L 446.319511 382.061229 
L 447.146504 382.53785 
L 447.973496 382.694925 
L 448.800489 383.26602 
L 449.627482 383.404822 
L 450.454475 383.412514 
L 451.281468 383.750619 
L 452.108461 383.344915 
L 452.935454 383.252526 
L 453.762446 383.910001 
L 454.589439 384.026509 
L 455.416432 383.556636 
L 456.243425 383.696896 
L 457.897411 383.518271 
L 458.724404 383.599034 
L 459.551397 383.406632 
L 460.378389 383.749551 
L 461.205382 383.759584 
L 462.032375 383.63034 
L 462.859368 383.310895 
L 463.686361 383.761689 
L 464.513354 383.683066 
L 466.167339 383.873091 
L 467.821325 383.389649 
L 468.648318 383.363257 
L 469.475311 383.125666 
L 471.129297 383.213638 
L 474.437268 383.837574 
L 476.091254 384.47766 
L 476.918247 384.488839 
L 477.74524 384.926176 
L 478.572232 384.974298 
L 479.399225 385.299627 
L 480.226218 385.290354 
L 481.053211 385.126546 
L 481.880204 385.137233 
L 482.707197 385.014241 
L 484.361182 385.186775 
L 485.188175 384.712298 
L 487.669154 384.501184 
L 488.496147 384.339826 
L 489.32314 384.400065 
L 490.150133 383.774454 
L 490.977125 383.506726 
L 491.804118 383.447605 
L 492.631111 382.998278 
L 493.458104 383.475865 
L 494.285097 383.397425 
L 495.11209 383.608043 
L 495.939083 383.135159 
L 496.766075 383.138133 
L 497.593068 382.672101 
L 498.420061 383.275909 
L 499.247054 383.684809 
L 500.074047 383.694262 
L 500.90104 383.902718 
L 501.728033 383.940751 
L 503.382018 383.229665 
L 505.862997 383.845551 
L 506.68999 383.90944 
L 507.516983 383.846485 
L 508.343976 383.939519 
L 509.170968 384.14621 
L 509.997961 383.968708 
L 510.824954 384.436271 
L 512.47894 384.990699 
L 513.305933 384.893582 
L 514.132926 385.13716 
L 514.959918 384.689791 
L 517.440897 384.534783 
L 518.26789 384.802781 
L 519.921876 384.824786 
L 522.402854 385.222195 
L 523.229847 385.596335 
L 524.05684 385.407768 
L 524.883833 385.455961 
L 525.710826 385.226589 
L 529.018797 384.966025 
L 529.84579 384.96511 
L 530.672783 384.851888 
L 531.499776 384.937769 
L 532.326769 385.19843 
L 533.153761 385.168824 
L 533.980754 385.404158 
L 534.807747 385.507588 
L 535.63474 385.330934 
L 537.288726 385.471732 
L 538.115719 385.330015 
L 538.942712 384.010709 
L 543.077676 383.927222 
L 543.904669 384.224653 
L 546.385647 384.464712 
L 547.21264 385.775487 
L 548.039633 385.441214 
L 549.693619 385.441214 
L 552.174597 385.02891 
L 553.00159 384.797628 
L 554.655576 384.600248 
L 555.482569 383.337663 
L 556.309562 383.521137 
L 557.963547 383.282563 
L 558.79054 382.816943 
L 559.617533 382.503717 
L 561.271519 382.743752 
L 562.925505 382.906594 
L 563.752497 384.168841 
L 564.57949 384.291251 
L 565.406483 384.226879 
L 566.233476 383.97581 
L 567.060469 384.64816 
L 567.887462 384.914455 
L 570.36844 384.572475 
L 571.195433 383.646598 
L 572.022426 383.616364 
L 572.849419 383.346535 
L 573.676412 383.562096 
L 574.503405 383.347248 
L 576.15739 383.352476 
L 576.984383 383.527193 
L 577.811376 383.582002 
L 578.638369 383.834817 
L 579.465362 384.732978 
L 580.292355 384.653862 
L 581.119348 384.864663 
L 582.773333 384.981952 
L 583.600326 384.631327 
L 584.427319 384.537739 
L 586.081305 384.56517 
L 587.735291 384.396994 
L 588.562283 384.526631 
L 590.216269 384.403073 
L 591.870255 385.215663 
L 592.697248 385.021369 
L 593.524241 385.050295 
L 594.351233 384.879832 
L 595.178226 384.942188 
L 596.005219 384.885127 
L 596.832212 384.640208 
L 598.486198 384.388099 
L 600.140183 384.482718 
L 600.967176 384.801011 
L 601.794169 384.588335 
L 604.275148 384.810311 
L 605.929134 385.345252 
L 607.583119 385.248209 
L 611.718084 385.774198 
L 616.680041 385.935666 
L 619.161019 385.976665 
L 619.988012 385.630263 
L 624.122977 385.52245 
L 624.949969 384.283531 
L 626.603955 384.256378 
L 627.430948 383.983547 
L 628.257941 384.238401 
L 630.738919 384.179766 
L 632.392905 384.390585 
L 633.219898 385.727815 
L 634.046891 385.422225 
L 634.873884 385.431674 
L 635.700877 385.736315 
L 637.354862 385.96795 
L 638.181855 385.63701 
L 642.31682 385.402622 
L 643.143812 384.873045 
L 643.970805 384.557602 
L 645.624791 384.518857 
L 646.451784 384.836531 
L 647.278777 384.842043 
L 648.932762 384.969493 
L 649.759755 384.989596 
L 650.586748 385.468584 
L 652.240734 386.142688 
L 653.89472 385.94547 
L 655.548705 385.939393 
L 656.375698 385.971345 
L 657.202691 385.859696 
L 658.029684 385.145537 
L 658.856677 384.955474 
L 660.510663 385.038467 
L 662.164648 385.137149 
L 662.991641 385.255358 
L 665.47262 385.323257 
L 666.299613 386.012649 
L 667.953598 386.194625 
L 668.780591 386.145474 
L 670.434577 386.286838 
L 672.088563 386.25827 
L 672.915556 386.263269 
L 673.742548 386.095452 
L 677.05052 386.207477 
L 680.358491 386.174631 
L 684.493456 386.243257 
L 686.147441 386.14753 
L 691.109399 386.268526 
L 691.936391 386.074462 
L 694.41737 385.997584 
L 695.244363 385.723319 
L 696.898349 385.701687 
L 699.379327 385.702617 
L 700.20632 385.837162 
L 702.687299 385.792085 
L 703.514292 386.058608 
L 704.341284 385.739549 
L 705.168277 385.80141 
L 706.822263 385.699232 
L 709.303242 385.677609 
L 710.130234 385.787582 
L 711.78422 385.766452 
L 712.611213 386.113825 
L 715.092192 386.236171 
L 715.919185 385.885864 
L 718.400163 385.895546 
L 719.227156 385.760013 
L 720.054149 385.781497 
L 720.881142 385.689236 
L 721.708135 385.718108 
L 723.36212 385.57807 
L 724.189113 385.958479 
L 726.670092 385.922477 
L 727.497085 385.792366 
L 734.94002 385.913169 
L 735.767013 386.248253 
L 737.420999 386.166239 
L 738.247992 386.176304 
L 739.074985 385.90464 
L 739.901978 385.76099 
L 741.555963 385.790323 
L 742.382956 385.27746 
L 744.036942 385.230374 
L 746.51792 385.132204 
L 747.344913 385.329348 
L 748.171906 385.378188 
L 748.998899 384.431055 
L 749.825892 384.369396 
L 750.652885 384.689935 
L 751.479878 384.345795 
L 753.133863 384.142199 
L 755.614842 384.005035 
L 756.441835 384.20765 
L 757.268828 385.201351 
L 758.095821 385.230659 
L 758.922813 385.401407 
L 759.749806 385.772902 
L 760.576799 385.792402 
L 762.230785 386.020131 
L 763.884771 385.913313 
L 766.365749 385.851988 
L 767.192742 385.619004 
L 768.019735 385.619594 
L 768.846728 384.997521 
L 771.327706 385.034469 
L 772.154699 385.086125 
L 773.808685 384.791236 
L 774.635678 384.76618 
L 775.462671 385.072083 
L 776.289664 385.054078 
L 777.116656 385.728631 
L 777.943649 385.665709 
L 778.770642 385.802934 
L 779.597635 385.681409 
L 780.424628 385.696221 
L 781.251621 385.888452 
L 785.386585 385.884881 
L 787.040571 385.746679 
L 787.867564 385.915701 
L 789.521549 385.888532 
L 791.175535 385.907649 
L 792.002528 386.007597 
L 792.829521 385.985147 
L 793.656514 386.181224 
L 794.483507 386.138208 
L 795.310499 386.23037 
L 796.137492 385.55295 
L 796.964485 385.589726 
L 797.791478 385.310388 
L 798.618471 385.342493 
L 799.445464 385.23861 
L 800.272457 384.730322 
L 803.580428 384.604359 
L 804.407421 385.253916 
L 805.234414 385.202608 
L 806.061407 385.439429 
L 806.8884 385.265832 
L 807.715392 385.353652 
L 808.542385 385.76168 
L 809.369378 385.807275 
L 810.196371 385.606708 
L 813.504343 385.733999 
L 814.331335 385.664367 
L 815.158328 385.921352 
L 816.812314 385.772142 
L 817.639307 385.499677 
L 818.4663 385.62978 
L 819.293293 385.615451 
L 820.120285 385.384015 
L 820.947278 384.89826 
L 825.082243 384.843748 
L 826.736228 385.126688 
L 827.563221 385.127615 
L 828.390214 385.291863 
L 829.217207 385.605792 
L 836.660143 385.39929 
L 837.487136 385.61152 
L 838.314128 385.620947 
L 839.141121 385.78544 
L 841.6221 385.688242 
L 844.103078 385.829318 
L 846.584057 386.028349 
L 847.41105 385.52876 
L 848.238043 385.471787 
L 849.065036 385.725785 
L 849.892029 385.505954 
L 852.373007 385.420791 
L 852.373007 385.420791 
" clip-path="url(#p60e638dbf9)" style="fill: none; stroke-dasharray: 7.4,3.2; stroke-dashoffset: 0; stroke: #000000; stroke-width: 2"/>
   </g>
   <g id="patch_3">
    <path d="M 41.92 404.12 
L 41.92 12.69846 
" style="fill: none; stroke: #000000; stroke-width: 0.8; stroke-linejoin: miter; stroke-linecap: square"/>
   </g>
   <g id="patch_4">
    <path d="M 853.2 404.12 
L 853.2 12.69846 
" style="fill: none; stroke: #000000; stroke-width: 0.8; stroke-linejoin: miter; stroke-linecap: square"/>
   </g>
   <g id="patch_5">
    <path d="M 41.92 404.12 
L 853.2 404.12 
" style="fill: none; stroke: #000000; stroke-width: 0.8; stroke-linejoin: miter; stroke-linecap: square"/>
   </g>
   <g id="patch_6">
    <path d="M 41.92 12.69846 
L 853.2 12.69846 
" style="fill: none; stroke: #000000; stroke-width: 0.8; stroke-linejoin: miter; stroke-linecap: square"/>
   </g>
  </g>
 </g>
 <defs>
  <clipPath id="p60e638dbf9">
   <rect x="41.92" y="12.69846" width="811.28" height="391.42154"/>
  </clipPath>
 </defs>
</svg>
