<?xml version="1.0" encoding="utf-8" standalone="no"?>
<!DOCTYPE svg PUBLIC "-//W3C//DTD SVG 1.1//EN"
  "http://www.w3.org/Graphics/SVG/1.1/DTD/svg11.dtd">
<svg xmlns:xlink="http://www.w3.org/1999/xlink" width="864pt" height="432pt" viewBox="0 0 864 432" xmlns="http://www.w3.org/2000/svg" version="1.1">
 <metadata>
  <rdf:RDF xmlns:dc="http://purl.org/dc/elements/1.1/" xmlns:cc="http://creativecommons.org/ns#" xmlns:rdf="http://www.w3.org/1999/02/22-rdf-syntax-ns#">
   <cc:Work>
    <dc:type rdf:resource="http://purl.org/dc/dcmitype/StillImage"/>
    <dc:date>2024-09-16T18:01:10.525467</dc:date>
    <dc:format>image/svg+xml</dc:format>
    <dc:creator>
     <cc:Agent>
      <dc:title>Matplotlib v3.9.2, https://matplotlib.org/</dc:title>
     </cc:Agent>
    </dc:creator>
   </cc:Work>
  </rdf:RDF>
 </metadata>
 <defs>
  <style type="text/css">*{stroke-linejoin: round; stroke-linecap: butt}</style>
 </defs>
 <g id="figure_1">
  <g id="patch_1">
   <path d="M 0 432 
L 864 432 
L 864 0 
L 0 0 
z
" style="fill: #ffffff"/>
  </g>
  <g id="axes_1">
   <g id="patch_2">
    <path d="M 41.92 404.12 
L 853.2 404.12 
L 853.2 10.8 
L 41.92 10.8 
z
" style="fill: #ffffff"/>
   </g>
   <g id="matplotlib.axis_1">
    <g id="xtick_1">
     <g id="line2d_1">
      <defs>
       <path id="m583bc12da7" d="M 0 0 
L 0 3.5 
" style="stroke: #000000; stroke-width: 0.8"/>
      </defs>
      <g>
       <use xlink:href="#m583bc12da7" x="140.20733" y="404.12" style="stroke: #000000; stroke-width: 0.8"/>
      </g>
     </g>
     <g id="text_1">
      <!-- 250 -->
      <g transform="translate(131.176861 418.771563) scale(0.1 -0.1)">
       <defs>
        <path id="DejaVuSansMono-32" d="M 1166 531 
L 3309 531 
L 3309 0 
L 475 0 
L 475 531 
Q 1059 1147 1496 1619 
Q 1934 2091 2100 2284 
Q 2413 2666 2522 2902 
Q 2631 3138 2631 3384 
Q 2631 3775 2401 3997 
Q 2172 4219 1772 4219 
Q 1488 4219 1175 4116 
Q 863 4013 513 3803 
L 513 4441 
Q 834 4594 1145 4672 
Q 1456 4750 1759 4750 
Q 2444 4750 2861 4386 
Q 3278 4022 3278 3431 
Q 3278 3131 3139 2831 
Q 3000 2531 2688 2169 
Q 2513 1966 2180 1606 
Q 1847 1247 1166 531 
z
" transform="scale(0.015625)"/>
        <path id="DejaVuSansMono-35" d="M 647 4666 
L 3009 4666 
L 3009 4134 
L 1222 4134 
L 1222 2988 
Q 1356 3038 1492 3061 
Q 1628 3084 1766 3084 
Q 2491 3084 2916 2656 
Q 3341 2228 3341 1497 
Q 3341 759 2895 334 
Q 2450 -91 1678 -91 
Q 1306 -91 998 -41 
Q 691 9 447 109 
L 447 750 
Q 734 594 1025 517 
Q 1316 441 1619 441 
Q 2141 441 2423 716 
Q 2706 991 2706 1497 
Q 2706 1997 2414 2275 
Q 2122 2553 1600 2553 
Q 1347 2553 1106 2495 
Q 866 2438 647 2322 
L 647 4666 
z
" transform="scale(0.015625)"/>
        <path id="DejaVuSansMono-30" d="M 1509 2344 
Q 1509 2516 1629 2641 
Q 1750 2766 1919 2766 
Q 2094 2766 2219 2641 
Q 2344 2516 2344 2344 
Q 2344 2169 2220 2047 
Q 2097 1925 1919 1925 
Q 1744 1925 1626 2044 
Q 1509 2163 1509 2344 
z
M 1925 4250 
Q 1484 4250 1267 3775 
Q 1050 3300 1050 2328 
Q 1050 1359 1267 884 
Q 1484 409 1925 409 
Q 2369 409 2586 884 
Q 2803 1359 2803 2328 
Q 2803 3300 2586 3775 
Q 2369 4250 1925 4250 
z
M 1925 4750 
Q 2672 4750 3055 4137 
Q 3438 3525 3438 2328 
Q 3438 1134 3055 521 
Q 2672 -91 1925 -91 
Q 1178 -91 797 521 
Q 416 1134 416 2328 
Q 416 3525 797 4137 
Q 1178 4750 1925 4750 
z
" transform="scale(0.015625)"/>
       </defs>
       <use xlink:href="#DejaVuSansMono-32"/>
       <use xlink:href="#DejaVuSansMono-35" x="60.205078"/>
       <use xlink:href="#DejaVuSansMono-30" x="120.410156"/>
      </g>
     </g>
    </g>
    <g id="xtick_2">
     <g id="line2d_2">
      <g>
       <use xlink:href="#m583bc12da7" x="242.589965" y="404.12" style="stroke: #000000; stroke-width: 0.8"/>
      </g>
     </g>
     <g id="text_2">
      <!-- 500 -->
      <g transform="translate(233.559496 418.771563) scale(0.1 -0.1)">
       <use xlink:href="#DejaVuSansMono-35"/>
       <use xlink:href="#DejaVuSansMono-30" x="60.205078"/>
       <use xlink:href="#DejaVuSansMono-30" x="120.410156"/>
      </g>
     </g>
    </g>
    <g id="xtick_3">
     <g id="line2d_3">
      <g>
       <use xlink:href="#m583bc12da7" x="344.9726" y="404.12" style="stroke: #000000; stroke-width: 0.8"/>
      </g>
     </g>
     <g id="text_3">
      <!-- 750 -->
      <g transform="translate(335.942131 418.771563) scale(0.1 -0.1)">
       <defs>
        <path id="DejaVuSansMono-37" d="M 434 4666 
L 3372 4666 
L 3372 4397 
L 1703 0 
L 1044 0 
L 2669 4134 
L 434 4134 
L 434 4666 
z
" transform="scale(0.015625)"/>
       </defs>
       <use xlink:href="#DejaVuSansMono-37"/>
       <use xlink:href="#DejaVuSansMono-35" x="60.205078"/>
       <use xlink:href="#DejaVuSansMono-30" x="120.410156"/>
      </g>
     </g>
    </g>
    <g id="xtick_4">
     <g id="line2d_4">
      <g>
       <use xlink:href="#m583bc12da7" x="447.355235" y="404.12" style="stroke: #000000; stroke-width: 0.8"/>
      </g>
     </g>
     <g id="text_4">
      <!-- 1000 -->
      <g transform="translate(435.31461 418.771563) scale(0.1 -0.1)">
       <defs>
        <path id="DejaVuSansMono-31" d="M 844 531 
L 1825 531 
L 1825 4097 
L 769 3859 
L 769 4434 
L 1819 4666 
L 2450 4666 
L 2450 531 
L 3419 531 
L 3419 0 
L 844 0 
L 844 531 
z
" transform="scale(0.015625)"/>
       </defs>
       <use xlink:href="#DejaVuSansMono-31"/>
       <use xlink:href="#DejaVuSansMono-30" x="60.205078"/>
       <use xlink:href="#DejaVuSansMono-30" x="120.410156"/>
       <use xlink:href="#DejaVuSansMono-30" x="180.615234"/>
      </g>
     </g>
    </g>
    <g id="xtick_5">
     <g id="line2d_5">
      <g>
       <use xlink:href="#m583bc12da7" x="549.73787" y="404.12" style="stroke: #000000; stroke-width: 0.8"/>
      </g>
     </g>
     <g id="text_5">
      <!-- 1250 -->
      <g transform="translate(537.697245 418.771563) scale(0.1 -0.1)">
       <use xlink:href="#DejaVuSansMono-31"/>
       <use xlink:href="#DejaVuSansMono-32" x="60.205078"/>
       <use xlink:href="#DejaVuSansMono-35" x="120.410156"/>
       <use xlink:href="#DejaVuSansMono-30" x="180.615234"/>
      </g>
     </g>
    </g>
    <g id="xtick_6">
     <g id="line2d_6">
      <g>
       <use xlink:href="#m583bc12da7" x="652.120505" y="404.12" style="stroke: #000000; stroke-width: 0.8"/>
      </g>
     </g>
     <g id="text_6">
      <!-- 1500 -->
      <g transform="translate(640.07988 418.771563) scale(0.1 -0.1)">
       <use xlink:href="#DejaVuSansMono-31"/>
       <use xlink:href="#DejaVuSansMono-35" x="60.205078"/>
       <use xlink:href="#DejaVuSansMono-30" x="120.410156"/>
       <use xlink:href="#DejaVuSansMono-30" x="180.615234"/>
      </g>
     </g>
    </g>
    <g id="xtick_7">
     <g id="line2d_7">
      <g>
       <use xlink:href="#m583bc12da7" x="754.50314" y="404.12" style="stroke: #000000; stroke-width: 0.8"/>
      </g>
     </g>
     <g id="text_7">
      <!-- 1750 -->
      <g transform="translate(742.462515 418.771563) scale(0.1 -0.1)">
       <use xlink:href="#DejaVuSansMono-31"/>
       <use xlink:href="#DejaVuSansMono-37" x="60.205078"/>
       <use xlink:href="#DejaVuSansMono-35" x="120.410156"/>
       <use xlink:href="#DejaVuSansMono-30" x="180.615234"/>
      </g>
     </g>
    </g>
   </g>
   <g id="matplotlib.axis_2">
    <g id="ytick_1">
     <g id="line2d_8">
      <defs>
       <path id="m62ca0ef36c" d="M 0 0 
L -3.5 0 
" style="stroke: #000000; stroke-width: 0.8"/>
      </defs>
      <g>
       <use xlink:href="#m62ca0ef36c" x="41.92" y="386.241818" style="stroke: #000000; stroke-width: 0.8"/>
      </g>
     </g>
     <g id="text_8">
      <!-- 0.00 -->
      <g transform="translate(10.83875 390.067599) scale(0.1 -0.1)">
       <defs>
        <path id="DejaVuSansMono-2e" d="M 1528 953 
L 2316 953 
L 2316 0 
L 1528 0 
L 1528 953 
z
" transform="scale(0.015625)"/>
       </defs>
       <use xlink:href="#DejaVuSansMono-30"/>
       <use xlink:href="#DejaVuSansMono-2e" x="60.205078"/>
       <use xlink:href="#DejaVuSansMono-30" x="120.410156"/>
       <use xlink:href="#DejaVuSansMono-30" x="180.615234"/>
      </g>
     </g>
    </g>
    <g id="ytick_2">
     <g id="line2d_9">
      <g>
       <use xlink:href="#m62ca0ef36c" x="41.92" y="318.113372" style="stroke: #000000; stroke-width: 0.8"/>
      </g>
     </g>
     <g id="text_9">
      <!-- 0.05 -->
      <g transform="translate(10.83875 321.939153) scale(0.1 -0.1)">
       <use xlink:href="#DejaVuSansMono-30"/>
       <use xlink:href="#DejaVuSansMono-2e" x="60.205078"/>
       <use xlink:href="#DejaVuSansMono-30" x="120.410156"/>
       <use xlink:href="#DejaVuSansMono-35" x="180.615234"/>
      </g>
     </g>
    </g>
    <g id="ytick_3">
     <g id="line2d_10">
      <g>
       <use xlink:href="#m62ca0ef36c" x="41.92" y="249.984926" style="stroke: #000000; stroke-width: 0.8"/>
      </g>
     </g>
     <g id="text_10">
      <!-- 0.10 -->
      <g transform="translate(10.83875 253.810707) scale(0.1 -0.1)">
       <use xlink:href="#DejaVuSansMono-30"/>
       <use xlink:href="#DejaVuSansMono-2e" x="60.205078"/>
       <use xlink:href="#DejaVuSansMono-31" x="120.410156"/>
       <use xlink:href="#DejaVuSansMono-30" x="180.615234"/>
      </g>
     </g>
    </g>
    <g id="ytick_4">
     <g id="line2d_11">
      <g>
       <use xlink:href="#m62ca0ef36c" x="41.92" y="181.856479" style="stroke: #000000; stroke-width: 0.8"/>
      </g>
     </g>
     <g id="text_11">
      <!-- 0.15 -->
      <g transform="translate(10.83875 185.68226) scale(0.1 -0.1)">
       <use xlink:href="#DejaVuSansMono-30"/>
       <use xlink:href="#DejaVuSansMono-2e" x="60.205078"/>
       <use xlink:href="#DejaVuSansMono-31" x="120.410156"/>
       <use xlink:href="#DejaVuSansMono-35" x="180.615234"/>
      </g>
     </g>
    </g>
    <g id="ytick_5">
     <g id="line2d_12">
      <g>
       <use xlink:href="#m62ca0ef36c" x="41.92" y="113.728033" style="stroke: #000000; stroke-width: 0.8"/>
      </g>
     </g>
     <g id="text_12">
      <!-- 0.20 -->
      <g transform="translate(10.83875 117.553814) scale(0.1 -0.1)">
       <use xlink:href="#DejaVuSansMono-30"/>
       <use xlink:href="#DejaVuSansMono-2e" x="60.205078"/>
       <use xlink:href="#DejaVuSansMono-32" x="120.410156"/>
       <use xlink:href="#DejaVuSansMono-30" x="180.615234"/>
      </g>
     </g>
    </g>
    <g id="ytick_6">
     <g id="line2d_13">
      <g>
       <use xlink:href="#m62ca0ef36c" x="41.92" y="45.599587" style="stroke: #000000; stroke-width: 0.8"/>
      </g>
     </g>
     <g id="text_13">
      <!-- 0.25 -->
      <g transform="translate(10.83875 49.425368) scale(0.1 -0.1)">
       <use xlink:href="#DejaVuSansMono-30"/>
       <use xlink:href="#DejaVuSansMono-2e" x="60.205078"/>
       <use xlink:href="#DejaVuSansMono-32" x="120.410156"/>
       <use xlink:href="#DejaVuSansMono-35" x="180.615234"/>
      </g>
     </g>
    </g>
   </g>
   <g id="line2d_14">
    <path d="M 41.510469 97.350638 
L 41.92 105.909825 
L 42.329531 105.262721 
L 42.739061 124.784479 
L 43.148592 85.001443 
L 43.558122 67.284301 
L 43.967653 28.678182 
L 44.377183 68.384072 
L 44.786714 82.888312 
L 45.196244 81.037725 
L 45.605775 120.820762 
L 46.015305 108.514583 
L 46.424836 108.556108 
L 46.834366 119.530665 
L 47.653428 199.096738 
L 48.062958 207.0225 
L 48.472489 170.337954 
L 48.882019 182.724505 
L 49.29155 204.151909 
L 49.70108 172.001408 
L 50.110611 174.333635 
L 50.520141 193.750873 
L 51.339202 122.58317 
L 51.748733 83.511914 
L 52.158264 77.81861 
L 52.567794 114.503156 
L 52.977325 124.438554 
L 53.386855 143.903825 
L 53.796386 176.054327 
L 54.205916 174.399546 
L 54.615447 194.765344 
L 55.024977 197.327959 
L 55.434508 197.559366 
L 55.844038 222.160864 
L 56.253569 258.534525 
L 57.482161 258.534525 
L 57.891691 252.857155 
L 58.301222 290.95048 
L 58.710752 290.95048 
L 59.120283 327.543959 
L 59.529813 337.530922 
L 59.939344 352.00068 
L 60.348874 320.46524 
L 60.758405 303.573889 
L 61.577466 303.573889 
L 61.986996 298.724976 
L 62.396527 259.898109 
L 62.806058 250.279975 
L 63.215588 248.533092 
L 63.625119 277.09686 
L 64.034649 243.619952 
L 64.44418 275.155392 
L 64.85371 292.046743 
L 65.672771 231.373361 
L 66.082302 224.417627 
L 66.491832 223.419932 
L 66.901363 231.233339 
L 67.310893 232.980222 
L 67.720424 232.980222 
L 68.129955 258.535217 
L 68.539485 258.535217 
L 68.949016 218.867531 
L 69.768077 279.540914 
L 70.177607 276.669203 
L 70.587138 285.556208 
L 70.996668 287.360936 
L 71.406199 259.92031 
L 71.815729 259.92031 
L 72.22526 257.872205 
L 72.634791 218.089169 
L 73.044321 257.756855 
L 73.453852 218.569911 
L 73.863382 218.569911 
L 74.682443 263.63231 
L 75.091974 234.673078 
L 75.501504 262.113703 
L 75.911035 262.113703 
L 76.320565 266.909408 
L 76.730096 306.692445 
L 77.139626 283.56397 
L 77.549157 322.750913 
L 77.958688 320.921962 
L 78.368218 320.921962 
L 78.777749 327.150847 
L 79.187279 339.218728 
L 79.59681 299.99326 
L 80.00634 276.762575 
L 80.415871 281.936887 
L 80.825401 242.471358 
L 81.234932 228.10503 
L 81.644462 197.007361 
L 82.053993 191.77637 
L 82.463523 169.152584 
L 82.873054 130.849033 
L 83.282585 147.740384 
L 83.692115 186.965852 
L 84.101646 210.196537 
L 84.511176 186.259515 
L 84.920707 205.157968 
L 85.739768 273.75044 
L 86.149298 243.6217 
L 86.558829 242.20015 
L 86.968359 280.503701 
L 87.37789 241.934466 
L 87.78742 216.584344 
L 88.196951 216.584344 
L 89.016012 261.088442 
L 89.835073 203.851146 
L 90.244604 215.939875 
L 90.654134 239.985212 
L 91.063665 206.762773 
L 91.473195 205.583394 
L 91.882726 230.933516 
L 92.292256 230.933516 
L 92.701787 191.216081 
L 93.111318 191.216081 
L 94.339909 273.553331 
L 94.74944 273.553331 
L 95.568501 346.524383 
L 95.978031 346.524383 
L 96.387562 306.984287 
L 96.797092 346.701721 
L 97.206623 346.701721 
L 97.616153 325.739122 
L 98.435215 325.739122 
L 98.844745 287.345145 
L 99.663806 287.345145 
L 100.073337 250.470344 
L 100.482867 290.010441 
L 101.301928 290.010441 
L 101.711459 310.973041 
L 102.120989 310.973041 
L 102.53052 301.466745 
L 102.94005 301.686112 
L 103.759112 239.331267 
L 104.168642 276.206068 
L 104.578173 237.686943 
L 106.216295 237.686943 
L 106.625825 247.193238 
L 107.444886 320.471316 
L 107.854417 347.722693 
L 108.263948 343.963882 
L 108.673478 382.483007 
L 109.083009 342.699971 
L 109.492539 342.699971 
L 109.90207 330.851545 
L 110.3116 324.12281 
L 110.721131 320.389744 
L 111.130661 280.24962 
L 111.540192 280.24962 
L 111.949722 248.50044 
L 112.359253 252.259251 
L 112.768783 252.259251 
L 113.178314 270.115892 
L 113.587845 260.08471 
L 113.997375 262.08324 
L 114.406906 268.811975 
L 114.816436 272.545041 
L 115.225967 312.685166 
L 115.635497 312.685166 
L 116.045028 344.434345 
L 116.454558 336.692476 
L 116.864089 336.692476 
L 117.273619 358.618871 
L 117.68315 342.307053 
L 118.09268 320.020887 
L 118.502211 320.020887 
L 119.730803 209.390945 
L 120.140333 209.390945 
L 120.549864 215.429604 
L 121.368925 146.334062 
L 121.778455 145.589849 
L 122.187986 177.72591 
L 122.597516 177.72591 
L 123.416577 248.881174 
L 123.826108 258.456218 
L 124.235639 258.456218 
L 124.645169 260.159429 
L 125.46423 327.401135 
L 125.873761 354.488349 
L 126.692822 354.488349 
L 127.102352 330.341561 
L 127.511883 290.851176 
L 127.921413 320.750809 
L 128.330944 312.874689 
L 128.740475 312.874689 
L 129.150005 314.728524 
L 129.559536 314.728524 
L 129.969066 302.112145 
L 130.378597 280.946026 
L 130.788127 280.946026 
L 131.197658 305.092815 
L 131.607188 307.757014 
L 132.016719 307.757014 
L 132.426249 275.710732 
L 133.654841 275.710732 
L 134.064372 288.327111 
L 134.473902 309.49323 
L 134.883433 269.710194 
L 135.292963 269.710194 
L 135.702494 291.312144 
L 136.112024 286.558996 
L 136.521555 326.481398 
L 137.750146 326.481398 
L 138.159677 295.435525 
L 138.569207 295.435525 
L 138.978738 335.218561 
L 139.388269 335.218561 
L 139.797799 350.442797 
L 140.20733 355.195944 
L 141.435921 355.195944 
L 141.845452 347.497815 
L 142.254982 378.543689 
L 145.531227 378.543689 
L 145.940757 349.327599 
L 146.350288 347.473764 
L 146.759818 310.295372 
L 149.217002 310.295372 
L 149.626532 287.585889 
L 150.036063 285.279037 
L 150.445593 287.132872 
L 150.855124 284.528228 
L 151.264654 284.528228 
L 151.674185 244.443533 
L 153.312307 244.443533 
L 153.721837 237.481027 
L 154.131368 276.702098 
L 154.540899 266.919552 
L 154.950429 306.702589 
L 155.35996 274.449671 
L 155.76949 310.948658 
L 156.179021 310.948658 
L 156.588551 293.646195 
L 156.998082 293.646195 
L 157.407612 255.628441 
L 157.817143 281.567364 
L 158.226673 281.567364 
L 158.636204 291.34991 
L 159.045734 291.34991 
L 159.455265 323.602828 
L 159.864796 327.188535 
L 160.274326 327.188535 
L 160.683857 344.490999 
L 161.093387 317.509436 
L 161.502918 355.52719 
L 161.912448 359.260255 
L 163.960101 359.260255 
L 164.369631 343.538306 
L 164.779162 303.422063 
L 165.188693 330.403626 
L 165.598223 308.280734 
L 166.007754 270.548058 
L 166.417284 270.548058 
L 166.826815 230.681881 
L 168.055406 230.681881 
L 168.464937 243.018566 
L 168.874467 283.134809 
L 169.283998 243.754203 
L 169.693529 241.247568 
L 170.103059 241.863668 
L 170.51259 241.863668 
L 170.92212 281.729845 
L 172.150712 281.729845 
L 172.560242 285.115109 
L 172.969773 285.115109 
L 173.788834 339.03214 
L 174.198364 336.23363 
L 175.017426 336.23363 
L 175.426956 321.093975 
L 176.246017 321.093975 
L 176.655548 313.125736 
L 177.065078 313.125736 
L 177.474609 323.218839 
L 177.884139 285.975292 
L 178.29367 325.890376 
L 179.112731 325.890376 
L 179.522261 322.449545 
L 180.341323 322.449545 
L 180.750853 330.417785 
L 181.569914 330.417785 
L 181.979445 363.928267 
L 183.208036 363.928267 
L 183.617567 382.508753 
L 184.027097 363.898055 
L 184.846159 363.898055 
L 185.255689 338.563857 
L 185.66522 323.990927 
L 186.07475 327.723992 
L 187.303342 327.723992 
L 187.712872 297.607916 
L 188.122403 316.218614 
L 188.941464 316.218614 
L 189.350994 341.552811 
L 189.760525 356.125741 
L 190.579586 356.125741 
L 190.989117 354.321014 
L 191.398647 354.321014 
L 191.808178 347.634584 
L 192.217708 307.851547 
L 192.627239 307.851547 
L 193.036769 292.498657 
L 194.674891 292.498657 
L 195.084422 286.144289 
L 195.493953 286.144289 
L 196.313014 357.6202 
L 196.722544 357.6202 
L 197.132075 357.297519 
L 197.541605 357.297519 
L 197.951136 353.639616 
L 198.360666 339.296785 
L 198.770197 339.296785 
L 199.179727 347.45588 
L 199.998788 347.45588 
L 200.408319 352.565513 
L 200.81785 352.565513 
L 201.22738 333.665046 
L 201.636911 294.734507 
L 202.046441 298.39241 
L 202.455972 312.735241 
L 203.275033 312.735241 
L 203.684563 286.25271 
L 204.094094 246.42157 
L 204.913155 246.42157 
L 205.322686 241.732178 
L 205.732216 240.71305 
L 206.141747 240.71305 
L 206.551277 209.081985 
L 206.960808 207.20258 
L 207.370338 207.20258 
L 207.779869 233.68511 
L 208.189399 273.516251 
L 209.00846 273.516251 
L 209.827521 346.124953 
L 210.237052 346.124953 
L 210.646583 349.432955 
L 211.056113 351.31236 
L 211.465644 311.027713 
L 212.694235 311.027713 
L 213.103766 307.216331 
L 213.513296 313.822726 
L 214.332357 313.822726 
L 214.741888 342.145789 
L 215.151418 342.145789 
L 215.560949 380.563904 
L 215.97048 340.45365 
L 216.789541 340.45365 
L 217.199071 335.956685 
L 219.246724 335.956685 
L 219.656254 337.823218 
L 220.065785 377.933471 
L 220.884846 377.933471 
L 221.294377 386.241818 
L 221.703907 386.241818 
L 222.113438 352.177595 
L 223.342029 352.177595 
L 223.75156 312.394558 
L 224.16109 312.394558 
L 224.570621 273.464016 
L 225.799213 273.464016 
L 226.208743 307.528239 
L 227.437335 307.528239 
L 227.846865 317.341728 
L 228.256396 317.341728 
L 228.665926 316.773082 
L 231.53264 316.773082 
L 231.942171 346.74263 
L 232.351701 330.553692 
L 232.761232 370.05288 
L 236.037476 370.05288 
L 236.447007 379.714542 
L 236.856537 366.088853 
L 237.675598 293.302522 
L 240.132781 293.302522 
L 240.542312 275.441404 
L 240.951843 289.067093 
L 241.770904 361.853423 
L 242.180434 322.161198 
L 242.589965 316.747017 
L 242.999495 316.747017 
L 243.409026 302.699915 
L 243.818556 264.896935 
L 244.228087 264.896935 
L 244.637617 289.28533 
L 245.866209 289.28533 
L 246.27574 328.977555 
L 246.68527 334.391736 
L 247.094801 294.6087 
L 247.504331 308.655802 
L 247.913862 346.458782 
L 250.371045 346.458782 
L 250.780575 321.286826 
L 251.190106 361.069863 
L 251.599637 361.069863 
L 252.009167 322.245981 
L 253.647289 322.245981 
L 254.05682 301.853792 
L 254.46635 301.853792 
L 254.875881 327.025747 
L 255.694942 327.025747 
L 256.104472 362.263922 
L 256.514003 362.263922 
L 256.923534 326.607912 
L 257.742595 326.607912 
L 258.152125 347.000102 
L 259.790247 347.000102 
L 260.199778 350.585809 
L 260.609308 345.345159 
L 261.018839 357.925404 
L 264.295083 357.925404 
L 264.704614 363.166054 
L 265.114144 386.241818 
L 265.523675 386.241818 
L 265.933205 346.452516 
L 267.161797 346.452516 
L 267.571328 308.300586 
L 269.61898 308.300586 
L 270.028511 307.93994 
L 271.257102 307.93994 
L 271.666633 336.854115 
L 272.076164 336.854115 
L 272.485694 297.63086 
L 272.895225 297.63086 
L 273.304755 258.179349 
L 273.714286 258.179349 
L 274.123816 298.329297 
L 275.352408 298.329297 
L 275.761938 307.567052 
L 276.171469 307.567052 
L 276.580999 346.790307 
L 276.99053 346.790307 
L 277.400061 386.241818 
L 279.447713 386.241818 
L 280.266774 307.749437 
L 281.904897 307.749437 
L 282.314427 288.513169 
L 283.543019 288.513169 
L 284.36208 367.00555 
L 286.000202 367.00555 
L 286.409732 386.241818 
L 286.819263 361.823018 
L 288.457385 361.823018 
L 288.866916 322.039982 
L 289.685977 322.039982 
L 290.505038 291.17436 
L 290.914568 315.593159 
L 292.552691 315.593159 
L 292.962221 355.376196 
L 293.781282 355.376196 
L 294.600343 386.241818 
L 297.057527 386.241818 
L 297.467057 346.458782 
L 301.152832 346.458782 
L 301.562362 386.241818 
L 301.971893 382.898091 
L 303.200485 382.898091 
L 303.610015 379.33582 
L 305.657668 379.33582 
L 306.067198 345.321956 
L 306.476729 345.321956 
L 306.886259 305.622421 
L 307.29579 305.622421 
L 307.705321 309.184693 
L 308.933912 309.184693 
L 309.343443 298.770153 
L 309.752973 298.770153 
L 310.162504 336.127744 
L 310.572034 336.127744 
L 310.981565 375.827278 
L 312.210156 375.827278 
L 312.619687 368.839745 
L 313.029218 368.839745 
L 313.438748 379.254285 
L 316.305462 379.254285 
L 316.714992 347.31128 
L 320.400767 347.31128 
L 320.810298 386.241818 
L 321.219828 350.011656 
L 322.857951 350.011656 
L 323.267481 348.1192 
L 324.905603 348.1192 
L 325.315134 384.349361 
L 326.953256 384.349361 
L 327.362786 386.241818 
L 332.277153 386.241818 
L 332.686683 355.459529 
L 333.915275 355.459529 
L 334.324806 338.427418 
L 336.372458 338.427418 
L 336.781989 369.209707 
L 338.010581 369.209707 
L 338.420111 386.241818 
L 339.648703 386.241818 
L 340.058233 377.672203 
L 340.877294 377.672203 
L 341.286825 353.101287 
L 342.105886 353.101287 
L 342.515416 347.991653 
L 343.744008 347.991653 
L 344.153539 356.561269 
L 344.9726 356.561269 
L 345.38213 381.132185 
L 345.791661 344.077813 
L 346.201191 344.077813 
L 346.610722 349.187446 
L 347.020252 326.702808 
L 347.429783 323.093354 
L 348.248844 323.093354 
L 348.658375 286.610783 
L 349.067905 279.245545 
L 349.477436 239.379368 
L 349.886966 276.433741 
L 350.706027 276.433741 
L 351.115558 298.918378 
L 351.525088 302.527833 
L 351.934619 300.686523 
L 352.344149 300.686523 
L 352.75368 337.169095 
L 353.16321 344.534332 
L 353.572741 384.400509 
L 353.982272 384.400509 
L 354.391802 346.192394 
L 354.801333 344.363443 
L 355.620394 344.363443 
L 356.029924 346.204752 
L 356.439455 327.961152 
L 357.668046 327.961152 
L 358.077577 295.641458 
L 358.487108 333.849573 
L 358.896638 335.678525 
L 360.12523 335.678525 
L 360.53476 353.922125 
L 360.944291 353.922125 
L 361.353821 346.091269 
L 361.763352 346.091269 
L 362.172882 378.410962 
L 365.039596 378.410962 
L 365.449127 375.020662 
L 367.496779 375.020662 
L 367.90631 362.112115 
L 368.31584 362.112115 
L 368.725371 358.429496 
L 369.134902 358.429496 
L 369.544432 331.910432 
L 370.773024 331.910432 
L 371.182554 330.031026 
L 371.592085 330.031026 
L 372.001615 342.939573 
L 372.411146 342.939573 
L 372.820676 346.622192 
L 373.230207 346.622192 
L 373.639738 384.362413 
L 374.049268 380.752959 
L 374.458799 380.752959 
L 374.868329 377.143505 
L 375.27786 379.02291 
L 377.735043 379.02291 
L 378.144573 382.632364 
L 378.554104 382.632364 
L 378.963635 363.532337 
L 379.373165 363.532337 
L 379.782696 361.626647 
L 381.011287 361.626647 
L 381.420818 353.658407 
L 382.649409 353.658407 
L 383.05894 364.806697 
L 383.46847 364.806697 
L 383.878001 366.712388 
L 384.287532 366.712388 
L 384.697062 363.029769 
L 385.106593 363.029769 
L 385.516123 370.998008 
L 386.744715 370.998008 
L 387.154245 382.559199 
L 388.382837 382.559199 
L 388.792367 386.241818 
L 390.84002 386.241818 
L 391.249551 379.513083 
L 394.935326 379.513083 
L 395.344856 386.241818 
L 399.440162 386.241818 
L 399.849692 348.665819 
L 401.897345 348.665819 
L 402.306875 326.570106 
L 403.535467 326.570106 
L 403.944997 364.146105 
L 404.764059 364.146105 
L 405.173589 324.380148 
L 405.58312 299.873512 
L 405.99265 299.873512 
L 406.402181 321.969225 
L 408.859364 321.969225 
L 409.268894 361.735182 
L 409.678425 386.241818 
L 410.087956 347.896303 
L 410.497486 347.896303 
L 410.907017 308.231995 
L 411.316547 299.974002 
L 413.77373 299.974002 
L 414.183261 338.319517 
L 414.592792 338.319517 
L 415.002322 377.983824 
L 415.411853 386.241818 
L 419.916689 386.241818 
L 420.326219 368.074232 
L 420.73575 327.889422 
L 421.14528 327.889422 
L 421.554811 324.231519 
L 422.373872 324.231519 
L 422.783402 300.08473 
L 423.602463 300.08473 
L 424.011994 262.50971 
L 424.421524 280.677297 
L 424.831055 320.862106 
L 425.240586 320.862106 
L 425.650116 324.520009 
L 426.059647 324.520009 
L 426.469177 287.693819 
L 426.878708 311.840608 
L 427.697769 311.840608 
L 428.107299 349.415629 
L 428.92636 349.415629 
L 429.335891 318.295227 
L 430.154952 318.295227 
L 430.564483 355.121417 
L 433.021666 355.121417 
L 433.431196 386.241818 
L 435.88838 386.241818 
L 436.29791 349.12707 
L 439.983685 349.12707 
L 440.393216 386.241818 
L 441.212277 386.241818 
L 441.621807 382.770305 
L 443.66946 382.770305 
L 444.07899 369.395396 
L 445.307582 369.395396 
L 445.717113 372.866909 
L 447.764765 372.866909 
L 448.174296 386.241818 
L 448.993357 386.241818 
L 449.402887 384.375286 
L 453.088662 384.375286 
L 453.498193 386.241818 
L 457.593498 386.241818 
L 458.003029 377.563035 
L 461.688804 377.563035 
L 462.098334 386.241818 
L 462.507865 386.241818 
L 462.917395 360.020558 
L 463.326926 360.020558 
L 463.736456 333.70888 
L 466.60317 333.70888 
L 467.012701 359.93014 
L 467.422231 359.93014 
L 467.831762 386.241818 
L 475.203311 386.241818 
L 475.612842 346.319416 
L 478.070025 346.319416 
L 478.479556 322.245759 
L 478.889086 322.245759 
L 479.298617 287.533928 
L 479.708147 327.456331 
L 482.165331 327.456331 
L 482.574861 351.529987 
L 482.984392 351.529987 
L 483.393922 386.241818 
L 483.803453 386.241818 
L 484.212983 346.458782 
L 487.898758 346.458782 
L 488.308289 386.241818 
L 489.12735 386.241818 
L 489.53688 351.440273 
L 489.946411 346.26596 
L 490.355941 329.749973 
L 491.175003 329.749973 
L 491.584533 327.857516 
L 493.222655 327.857516 
L 493.632186 362.659062 
L 494.041716 367.833374 
L 494.451247 384.349361 
L 495.270308 384.349361 
L 495.679838 386.241818 
L 496.089369 386.241818 
L 496.4989 346.953022 
L 500.184674 346.953022 
L 500.594205 386.241818 
L 503.460919 386.241818 
L 503.870449 384.375286 
L 507.556224 384.375286 
L 507.965755 386.241818 
L 510.013407 386.241818 
L 510.422938 372.691408 
L 511.241999 372.691408 
L 511.65153 334.653026 
L 512.06106 332.77362 
L 514.108713 332.77362 
L 514.518243 346.32403 
L 515.337304 346.32403 
L 515.746835 384.362413 
L 516.156365 386.241818 
L 518.204018 386.241818 
L 518.613549 382.792277 
L 521.070732 382.792277 
L 521.480262 380.873166 
L 522.299324 380.873166 
L 522.708854 384.322707 
L 523.118385 376.71059 
L 523.527915 376.71059 
L 523.937446 348.883479 
L 525.166037 348.883479 
L 525.575568 350.80259 
L 526.80416 350.80259 
L 527.21369 358.414707 
L 527.623221 358.414707 
L 528.032751 386.241818 
L 541.137728 386.241818 
L 541.547259 346.543298 
L 543.185381 346.543298 
L 543.594912 319.478575 
L 545.233034 319.478575 
L 545.642564 359.177095 
L 547.280687 359.177095 
L 547.690217 386.241818 
L 557.109419 386.241818 
L 557.51895 384.400509 
L 558.747542 384.400509 
L 559.157072 364.835416 
L 560.385664 364.835416 
L 560.795194 325.039754 
L 561.204725 323.107033 
L 561.614255 324.948342 
L 562.842847 324.948342 
L 563.252378 344.513435 
L 564.480969 344.513435 
L 564.8905 384.309096 
L 565.30003 386.241818 
L 569.395336 386.241818 
L 569.804866 371.328129 
L 571.033458 371.328129 
L 571.442988 344.860964 
L 571.852519 344.860964 
L 572.262049 304.797077 
L 573.490641 304.797077 
L 573.900172 319.710766 
L 574.309702 317.818309 
L 575.128763 317.818309 
L 575.538294 344.285474 
L 575.947824 344.285474 
L 576.357355 384.349361 
L 577.995477 384.349361 
L 578.405008 386.241818 
L 595.19576 386.241818 
L 595.60529 356.513042 
L 598.062473 356.513042 
L 598.472004 337.964983 
L 598.881535 334.206172 
L 599.291065 334.206172 
L 599.700596 363.934949 
L 602.157779 363.934949 
L 602.567309 382.483007 
L 602.97684 386.241818 
L 606.662615 386.241818 
L 607.072145 346.458782 
L 610.75792 346.458782 
L 611.167451 386.241818 
L 611.576981 386.241818 
L 611.986512 350.310371 
L 612.805573 350.310371 
L 613.215103 323.275275 
L 615.262756 323.275275 
L 615.672287 321.342553 
L 616.081817 357.274 
L 616.900878 357.274 
L 617.310409 384.309096 
L 619.358062 384.309096 
L 619.767592 386.241818 
L 632.872569 386.241818 
L 633.2821 384.400509 
L 635.329753 384.400509 
L 635.739283 375.884453 
L 636.148814 336.294072 
L 636.967875 336.294072 
L 637.377405 338.135381 
L 639.015528 338.135381 
L 639.425058 297.70911 
L 639.834589 306.225166 
L 640.244119 345.815547 
L 643.110833 345.815547 
L 643.520363 386.241818 
L 654.577688 386.241818 
L 654.987219 384.375286 
L 656.625341 384.375286 
L 657.034871 364.145003 
L 658.672993 364.145003 
L 659.082524 366.011536 
L 660.720646 366.011536 
L 661.130177 386.241818 
L 663.177829 386.241818 
L 663.58736 345.056829 
L 665.225482 345.056829 
L 665.635013 305.273792 
L 666.044543 305.273792 
L 666.454074 301.734652 
L 666.863604 299.80193 
L 667.273135 299.80193 
L 667.682665 340.98692 
L 669.320787 340.98692 
L 669.730318 380.769957 
L 670.139849 380.769957 
L 670.549379 384.309096 
L 670.95891 386.241818 
L 675.054215 386.241818 
L 675.463746 384.400509 
L 679.14952 384.400509 
L 679.559051 386.241818 
L 680.787643 386.241818 
L 681.197173 345.899898 
L 684.882948 345.899898 
L 685.292479 386.241818 
L 687.749662 386.241818 
L 688.159192 358.017176 
L 688.568723 356.111485 
L 691.844967 356.111485 
L 692.254498 384.336127 
L 692.664028 360.968362 
L 696.349803 360.968362 
L 696.759334 386.241818 
L 705.359475 386.241818 
L 705.769006 377.63612 
L 706.588067 377.63612 
L 706.997597 373.953501 
L 707.816658 373.953501 
L 708.226189 337.009845 
L 709.45478 337.009845 
L 709.864311 345.615544 
L 710.683372 345.615544 
L 711.092903 349.298163 
L 711.911964 349.298163 
L 712.321494 386.241818 
L 720.921636 386.241818 
L 721.331166 346.747068 
L 721.740697 346.747068 
L 722.150227 307.326833 
L 725.016941 307.326833 
L 725.426471 346.821583 
L 725.836002 346.821583 
L 726.245533 386.241818 
L 726.655063 386.241818 
L 727.064594 348.553742 
L 730.750369 348.553742 
L 731.159899 386.241818 
L 745.493468 386.241818 
L 745.902998 372.146276 
L 747.950651 372.146276 
L 748.360182 332.36324 
L 749.588773 332.36324 
L 749.998304 346.458782 
L 750.407834 346.458782 
L 750.817365 331.062523 
L 752.045957 331.062523 
L 752.455487 370.845559 
L 754.50314 370.845559 
L 754.91267 386.241818 
L 759.007976 386.241818 
L 759.417506 358.990439 
L 762.28422 358.990439 
L 762.693751 320.59935 
L 763.103281 320.59935 
L 763.512812 347.850729 
L 766.379525 347.850729 
L 766.789056 386.241818 
L 780.303564 386.241818 
L 780.713094 354.378669 
L 784.398869 354.378669 
L 784.8084 386.241818 
L 786.856052 386.241818 
L 787.265583 382.583915 
L 788.494175 382.583915 
L 788.903705 364.416329 
L 790.541827 364.416329 
L 790.951358 362.510638 
L 791.360888 366.168541 
L 792.58948 366.168541 
L 792.999011 384.336127 
L 794.227602 384.336127 
L 794.637133 361.536169 
L 795.046663 363.441859 
L 796.275255 363.441859 
L 796.684785 342.331636 
L 798.322908 342.331636 
L 798.732438 365.131595 
L 800.37056 365.131595 
L 800.780091 386.241818 
L 802.008682 386.241818 
L 802.418213 384.336127 
L 806.103988 384.336127 
L 806.513518 386.241818 
L 815.932721 386.241818 
L 816.342251 346.676853 
L 820.028026 346.676853 
L 820.437557 386.241818 
L 822.075679 386.241818 
L 822.485209 350.489284 
L 826.170984 350.489284 
L 826.580515 386.241818 
L 827.399576 386.241818 
L 827.809107 345.785493 
L 828.218637 345.785493 
L 828.628168 312.59471 
L 830.26629 312.59471 
L 830.67582 307.452941 
L 831.494881 307.452941 
L 831.904412 347.909265 
L 832.313942 347.909265 
L 832.723473 381.100049 
L 834.361595 381.100049 
L 834.771126 386.241818 
L 845.41892 386.241818 
L 845.82845 379.254285 
L 847.466572 379.254285 
L 847.876103 337.74834 
L 848.285634 337.74834 
L 848.695164 325.146547 
L 849.514225 325.146547 
L 849.923756 330.241623 
L 851.561878 330.241623 
L 851.971408 371.747568 
L 852.380939 371.747568 
L 852.790469 384.349361 
L 852.790469 384.349361 
" clip-path="url(#p7fab9aa189)" style="fill: none; stroke-dasharray: 7.4,3.2; stroke-dashoffset: 0; stroke: #000000; stroke-width: 2"/>
   </g>
   <g id="patch_3">
    <path d="M 41.92 404.12 
L 41.92 10.8 
" style="fill: none; stroke: #000000; stroke-width: 0.8; stroke-linejoin: miter; stroke-linecap: square"/>
   </g>
   <g id="patch_4">
    <path d="M 853.2 404.12 
L 853.2 10.8 
" style="fill: none; stroke: #000000; stroke-width: 0.8; stroke-linejoin: miter; stroke-linecap: square"/>
   </g>
   <g id="patch_5">
    <path d="M 41.92 404.12 
L 853.2 404.12 
" style="fill: none; stroke: #000000; stroke-width: 0.8; stroke-linejoin: miter; stroke-linecap: square"/>
   </g>
   <g id="patch_6">
    <path d="M 41.92 10.8 
L 853.2 10.8 
" style="fill: none; stroke: #000000; stroke-width: 0.8; stroke-linejoin: miter; stroke-linecap: square"/>
   </g>
  </g>
 </g>
 <defs>
  <clipPath id="p7fab9aa189">
   <rect x="41.92" y="10.8" width="811.28" height="393.32"/>
  </clipPath>
 </defs>
</svg>
