<?xml version="1.0" encoding="utf-8" standalone="no"?>
<!DOCTYPE svg PUBLIC "-//W3C//DTD SVG 1.1//EN"
  "http://www.w3.org/Graphics/SVG/1.1/DTD/svg11.dtd">
<svg xmlns:xlink="http://www.w3.org/1999/xlink" width="864pt" height="432pt" viewBox="0 0 864 432" xmlns="http://www.w3.org/2000/svg" version="1.1">
 <metadata>
  <rdf:RDF xmlns:dc="http://purl.org/dc/elements/1.1/" xmlns:cc="http://creativecommons.org/ns#" xmlns:rdf="http://www.w3.org/1999/02/22-rdf-syntax-ns#">
   <cc:Work>
    <dc:type rdf:resource="http://purl.org/dc/dcmitype/StillImage"/>
    <dc:date>2024-09-16T10:57:59.802366</dc:date>
    <dc:format>image/svg+xml</dc:format>
    <dc:creator>
     <cc:Agent>
      <dc:title>Matplotlib v3.9.2, https://matplotlib.org/</dc:title>
     </cc:Agent>
    </dc:creator>
   </cc:Work>
  </rdf:RDF>
 </metadata>
 <defs>
  <style type="text/css">*{stroke-linejoin: round; stroke-linecap: butt}</style>
 </defs>
 <g id="figure_1">
  <g id="patch_1">
   <path d="M 0 432 
L 864 432 
L 864 0 
L 0 0 
z
" style="fill: #ffffff"/>
  </g>
  <g id="axes_1">
   <g id="patch_2">
    <path d="M 41.92 404.12 
L 841.14 404.12 
L 841.14 10.8 
L 41.92 10.8 
z
" style="fill: #ffffff"/>
   </g>
   <g id="matplotlib.axis_1">
    <g id="xtick_1">
     <g id="line2d_1">
      <defs>
       <path id="m9ef01b0b70" d="M 0 0 
L 0 3.5 
" style="stroke: #000000; stroke-width: 0.8"/>
      </defs>
      <g>
       <use xlink:href="#m9ef01b0b70" x="195.305657" y="404.12" style="stroke: #000000; stroke-width: 0.8"/>
      </g>
     </g>
     <g id="text_1">
      <!-- 200 -->
      <g transform="translate(186.275188 418.771563) scale(0.1 -0.1)">
       <defs>
        <path id="DejaVuSansMono-32" d="M 1166 531 
L 3309 531 
L 3309 0 
L 475 0 
L 475 531 
Q 1059 1147 1496 1619 
Q 1934 2091 2100 2284 
Q 2413 2666 2522 2902 
Q 2631 3138 2631 3384 
Q 2631 3775 2401 3997 
Q 2172 4219 1772 4219 
Q 1488 4219 1175 4116 
Q 863 4013 513 3803 
L 513 4441 
Q 834 4594 1145 4672 
Q 1456 4750 1759 4750 
Q 2444 4750 2861 4386 
Q 3278 4022 3278 3431 
Q 3278 3131 3139 2831 
Q 3000 2531 2688 2169 
Q 2513 1966 2180 1606 
Q 1847 1247 1166 531 
z
" transform="scale(0.015625)"/>
        <path id="DejaVuSansMono-30" d="M 1509 2344 
Q 1509 2516 1629 2641 
Q 1750 2766 1919 2766 
Q 2094 2766 2219 2641 
Q 2344 2516 2344 2344 
Q 2344 2169 2220 2047 
Q 2097 1925 1919 1925 
Q 1744 1925 1626 2044 
Q 1509 2163 1509 2344 
z
M 1925 4250 
Q 1484 4250 1267 3775 
Q 1050 3300 1050 2328 
Q 1050 1359 1267 884 
Q 1484 409 1925 409 
Q 2369 409 2586 884 
Q 2803 1359 2803 2328 
Q 2803 3300 2586 3775 
Q 2369 4250 1925 4250 
z
M 1925 4750 
Q 2672 4750 3055 4137 
Q 3438 3525 3438 2328 
Q 3438 1134 3055 521 
Q 2672 -91 1925 -91 
Q 1178 -91 797 521 
Q 416 1134 416 2328 
Q 416 3525 797 4137 
Q 1178 4750 1925 4750 
z
" transform="scale(0.015625)"/>
       </defs>
       <use xlink:href="#DejaVuSansMono-32"/>
       <use xlink:href="#DejaVuSansMono-30" x="60.205078"/>
       <use xlink:href="#DejaVuSansMono-30" x="120.410156"/>
      </g>
     </g>
    </g>
    <g id="xtick_2">
     <g id="line2d_2">
      <g>
       <use xlink:href="#m9ef01b0b70" x="356.764242" y="404.12" style="stroke: #000000; stroke-width: 0.8"/>
      </g>
     </g>
     <g id="text_2">
      <!-- 400 -->
      <g transform="translate(347.733774 418.771563) scale(0.1 -0.1)">
       <defs>
        <path id="DejaVuSansMono-34" d="M 2297 4091 
L 825 1625 
L 2297 1625 
L 2297 4091 
z
M 2194 4666 
L 2925 4666 
L 2925 1625 
L 3547 1625 
L 3547 1113 
L 2925 1113 
L 2925 0 
L 2297 0 
L 2297 1113 
L 319 1113 
L 319 1709 
L 2194 4666 
z
" transform="scale(0.015625)"/>
       </defs>
       <use xlink:href="#DejaVuSansMono-34"/>
       <use xlink:href="#DejaVuSansMono-30" x="60.205078"/>
       <use xlink:href="#DejaVuSansMono-30" x="120.410156"/>
      </g>
     </g>
    </g>
    <g id="xtick_3">
     <g id="line2d_3">
      <g>
       <use xlink:href="#m9ef01b0b70" x="518.222828" y="404.12" style="stroke: #000000; stroke-width: 0.8"/>
      </g>
     </g>
     <g id="text_3">
      <!-- 600 -->
      <g transform="translate(509.19236 418.771563) scale(0.1 -0.1)">
       <defs>
        <path id="DejaVuSansMono-36" d="M 3097 4563 
L 3097 3981 
Q 2900 4097 2678 4158 
Q 2456 4219 2216 4219 
Q 1616 4219 1306 3767 
Q 997 3316 997 2438 
Q 1147 2750 1412 2917 
Q 1678 3084 2022 3084 
Q 2697 3084 3067 2670 
Q 3438 2256 3438 1497 
Q 3438 741 3056 325 
Q 2675 -91 1984 -91 
Q 1172 -91 794 492 
Q 416 1075 416 2328 
Q 416 3509 870 4129 
Q 1325 4750 2188 4750 
Q 2419 4750 2650 4701 
Q 2881 4653 3097 4563 
z
M 1972 2591 
Q 1569 2591 1337 2300 
Q 1106 2009 1106 1497 
Q 1106 984 1337 693 
Q 1569 403 1972 403 
Q 2391 403 2603 679 
Q 2816 956 2816 1497 
Q 2816 2041 2603 2316 
Q 2391 2591 1972 2591 
z
" transform="scale(0.015625)"/>
       </defs>
       <use xlink:href="#DejaVuSansMono-36"/>
       <use xlink:href="#DejaVuSansMono-30" x="60.205078"/>
       <use xlink:href="#DejaVuSansMono-30" x="120.410156"/>
      </g>
     </g>
    </g>
    <g id="xtick_4">
     <g id="line2d_4">
      <g>
       <use xlink:href="#m9ef01b0b70" x="679.681414" y="404.12" style="stroke: #000000; stroke-width: 0.8"/>
      </g>
     </g>
     <g id="text_4">
      <!-- 800 -->
      <g transform="translate(670.650945 418.771563) scale(0.1 -0.1)">
       <defs>
        <path id="DejaVuSansMono-38" d="M 1925 2216 
Q 1503 2216 1273 1980 
Q 1044 1744 1044 1313 
Q 1044 881 1276 642 
Q 1509 403 1925 403 
Q 2350 403 2579 639 
Q 2809 875 2809 1313 
Q 2809 1741 2576 1978 
Q 2344 2216 1925 2216 
z
M 1375 2478 
Q 972 2581 745 2862 
Q 519 3144 519 3541 
Q 519 4097 897 4423 
Q 1275 4750 1925 4750 
Q 2578 4750 2956 4423 
Q 3334 4097 3334 3541 
Q 3334 3144 3107 2862 
Q 2881 2581 2478 2478 
Q 2947 2375 3195 2062 
Q 3444 1750 3444 1253 
Q 3444 622 3041 265 
Q 2638 -91 1925 -91 
Q 1213 -91 811 264 
Q 409 619 409 1247 
Q 409 1747 657 2061 
Q 906 2375 1375 2478 
z
M 1147 3481 
Q 1147 3106 1347 2909 
Q 1547 2713 1925 2713 
Q 2306 2713 2506 2909 
Q 2706 3106 2706 3481 
Q 2706 3863 2507 4063 
Q 2309 4263 1925 4263 
Q 1547 4263 1347 4061 
Q 1147 3859 1147 3481 
z
" transform="scale(0.015625)"/>
       </defs>
       <use xlink:href="#DejaVuSansMono-38"/>
       <use xlink:href="#DejaVuSansMono-30" x="60.205078"/>
       <use xlink:href="#DejaVuSansMono-30" x="120.410156"/>
      </g>
     </g>
    </g>
    <g id="xtick_5">
     <g id="line2d_5">
      <g>
       <use xlink:href="#m9ef01b0b70" x="841.14" y="404.12" style="stroke: #000000; stroke-width: 0.8"/>
      </g>
     </g>
     <g id="text_5">
      <!-- 1000 -->
      <g transform="translate(829.099375 418.771563) scale(0.1 -0.1)">
       <defs>
        <path id="DejaVuSansMono-31" d="M 844 531 
L 1825 531 
L 1825 4097 
L 769 3859 
L 769 4434 
L 1819 4666 
L 2450 4666 
L 2450 531 
L 3419 531 
L 3419 0 
L 844 0 
L 844 531 
z
" transform="scale(0.015625)"/>
       </defs>
       <use xlink:href="#DejaVuSansMono-31"/>
       <use xlink:href="#DejaVuSansMono-30" x="60.205078"/>
       <use xlink:href="#DejaVuSansMono-30" x="120.410156"/>
       <use xlink:href="#DejaVuSansMono-30" x="180.615234"/>
      </g>
     </g>
    </g>
   </g>
   <g id="matplotlib.axis_2">
    <g id="ytick_1">
     <g id="line2d_6">
      <defs>
       <path id="m1e40750f9c" d="M 0 0 
L -3.5 0 
" style="stroke: #000000; stroke-width: 0.8"/>
      </defs>
      <g>
       <use xlink:href="#m1e40750f9c" x="41.92" y="370.45104" style="stroke: #000000; stroke-width: 0.8"/>
      </g>
     </g>
     <g id="text_6">
      <!-- 0.02 -->
      <g transform="translate(10.83875 374.276821) scale(0.1 -0.1)">
       <defs>
        <path id="DejaVuSansMono-2e" d="M 1528 953 
L 2316 953 
L 2316 0 
L 1528 0 
L 1528 953 
z
" transform="scale(0.015625)"/>
       </defs>
       <use xlink:href="#DejaVuSansMono-30"/>
       <use xlink:href="#DejaVuSansMono-2e" x="60.205078"/>
       <use xlink:href="#DejaVuSansMono-30" x="120.410156"/>
       <use xlink:href="#DejaVuSansMono-32" x="180.615234"/>
      </g>
     </g>
    </g>
    <g id="ytick_2">
     <g id="line2d_7">
      <g>
       <use xlink:href="#m1e40750f9c" x="41.92" y="314.380207" style="stroke: #000000; stroke-width: 0.8"/>
      </g>
     </g>
     <g id="text_7">
      <!-- 0.04 -->
      <g transform="translate(10.83875 318.205989) scale(0.1 -0.1)">
       <use xlink:href="#DejaVuSansMono-30"/>
       <use xlink:href="#DejaVuSansMono-2e" x="60.205078"/>
       <use xlink:href="#DejaVuSansMono-30" x="120.410156"/>
       <use xlink:href="#DejaVuSansMono-34" x="180.615234"/>
      </g>
     </g>
    </g>
    <g id="ytick_3">
     <g id="line2d_8">
      <g>
       <use xlink:href="#m1e40750f9c" x="41.92" y="258.309375" style="stroke: #000000; stroke-width: 0.8"/>
      </g>
     </g>
     <g id="text_8">
      <!-- 0.06 -->
      <g transform="translate(10.83875 262.135157) scale(0.1 -0.1)">
       <use xlink:href="#DejaVuSansMono-30"/>
       <use xlink:href="#DejaVuSansMono-2e" x="60.205078"/>
       <use xlink:href="#DejaVuSansMono-30" x="120.410156"/>
       <use xlink:href="#DejaVuSansMono-36" x="180.615234"/>
      </g>
     </g>
    </g>
    <g id="ytick_4">
     <g id="line2d_9">
      <g>
       <use xlink:href="#m1e40750f9c" x="41.92" y="202.238543" style="stroke: #000000; stroke-width: 0.8"/>
      </g>
     </g>
     <g id="text_9">
      <!-- 0.08 -->
      <g transform="translate(10.83875 206.064325) scale(0.1 -0.1)">
       <use xlink:href="#DejaVuSansMono-30"/>
       <use xlink:href="#DejaVuSansMono-2e" x="60.205078"/>
       <use xlink:href="#DejaVuSansMono-30" x="120.410156"/>
       <use xlink:href="#DejaVuSansMono-38" x="180.615234"/>
      </g>
     </g>
    </g>
    <g id="ytick_5">
     <g id="line2d_10">
      <g>
       <use xlink:href="#m1e40750f9c" x="41.92" y="146.167711" style="stroke: #000000; stroke-width: 0.8"/>
      </g>
     </g>
     <g id="text_10">
      <!-- 0.10 -->
      <g transform="translate(10.83875 149.993493) scale(0.1 -0.1)">
       <use xlink:href="#DejaVuSansMono-30"/>
       <use xlink:href="#DejaVuSansMono-2e" x="60.205078"/>
       <use xlink:href="#DejaVuSansMono-31" x="120.410156"/>
       <use xlink:href="#DejaVuSansMono-30" x="180.615234"/>
      </g>
     </g>
    </g>
    <g id="ytick_6">
     <g id="line2d_11">
      <g>
       <use xlink:href="#m1e40750f9c" x="41.92" y="90.096879" style="stroke: #000000; stroke-width: 0.8"/>
      </g>
     </g>
     <g id="text_11">
      <!-- 0.12 -->
      <g transform="translate(10.83875 93.92266) scale(0.1 -0.1)">
       <use xlink:href="#DejaVuSansMono-30"/>
       <use xlink:href="#DejaVuSansMono-2e" x="60.205078"/>
       <use xlink:href="#DejaVuSansMono-31" x="120.410156"/>
       <use xlink:href="#DejaVuSansMono-32" x="180.615234"/>
      </g>
     </g>
    </g>
    <g id="ytick_7">
     <g id="line2d_12">
      <g>
       <use xlink:href="#m1e40750f9c" x="41.92" y="34.026047" style="stroke: #000000; stroke-width: 0.8"/>
      </g>
     </g>
     <g id="text_12">
      <!-- 0.14 -->
      <g transform="translate(10.83875 37.851828) scale(0.1 -0.1)">
       <use xlink:href="#DejaVuSansMono-30"/>
       <use xlink:href="#DejaVuSansMono-2e" x="60.205078"/>
       <use xlink:href="#DejaVuSansMono-31" x="120.410156"/>
       <use xlink:href="#DejaVuSansMono-34" x="180.615234"/>
      </g>
     </g>
    </g>
   </g>
   <g id="line2d_13">
    <path d="M 33.847071 89.642275 
L 34.654364 74.156045 
L 35.461657 90.527092 
L 36.268949 90.527092 
L 37.076242 101.679302 
L 37.883535 101.416233 
L 38.690828 117.317803 
L 39.498121 123.979684 
L 41.112707 155.988366 
L 41.92 150.562156 
L 42.727293 134.24165 
L 43.534586 150.612697 
L 44.341879 146.81316 
L 45.149172 146.81316 
L 46.763758 179.445351 
L 47.571051 179.445351 
L 48.378343 164.174997 
L 49.185636 157.107245 
L 49.992929 157.849855 
L 50.800222 157.849855 
L 51.607515 141.478808 
L 52.414808 157.849855 
L 54.029394 157.849855 
L 54.836687 167.402664 
L 55.64398 168.752344 
L 56.451273 160.056709 
L 57.258566 158.541281 
L 58.065859 148.212444 
L 58.873152 152.803038 
L 59.680444 169.174085 
L 60.487737 155.624212 
L 61.29503 153.467641 
L 62.909616 153.467641 
L 64.524202 185.455904 
L 65.331495 169.084857 
L 66.138788 166.262247 
L 66.946081 165.744562 
L 67.753374 162.793466 
L 68.560667 148.560557 
L 69.36796 148.187626 
L 70.175253 137.214336 
L 70.982545 140.884718 
L 71.789838 131.556377 
L 73.404424 105.742243 
L 74.211717 105.742243 
L 75.01901 121.228473 
L 75.826303 105.005233 
L 77.440889 105.005233 
L 78.248182 121.639349 
L 79.055475 121.639349 
L 81.477354 73.855431 
L 82.284646 62.772879 
L 83.091939 79.093385 
L 83.899232 63.092853 
L 84.706525 68.995046 
L 85.513818 81.499139 
L 86.321111 81.499139 
L 87.128404 65.128092 
L 87.935697 63.612664 
L 88.74299 67.99868 
L 89.550283 75.066432 
L 90.357576 76.274339 
L 91.164869 75.484609 
L 91.972162 75.484609 
L 92.779455 59.177391 
L 93.586747 59.177391 
L 94.39404 50.511899 
L 95.201333 50.511899 
L 96.008626 55.880382 
L 96.815919 55.850992 
L 97.623212 43.743283 
L 98.430505 45.049229 
L 99.237798 28.678182 
L 100.045091 28.678182 
L 100.852384 45.049229 
L 101.659677 47.205799 
L 102.46697 47.205799 
L 103.274263 37.051239 
L 104.081556 37.051239 
L 104.888848 37.835446 
L 105.696141 53.453864 
L 106.503434 55.483905 
L 107.310727 71.854952 
L 108.11802 74.806048 
L 108.925313 89.812348 
L 109.732606 90.729858 
L 110.539899 101.703147 
L 111.347192 91.690648 
L 112.154485 102.504309 
L 112.961778 100.691049 
L 113.769071 104.451997 
L 115.383657 104.451997 
L 116.190949 120.675237 
L 116.998242 104.30419 
L 119.420121 104.30419 
L 121.034707 135.717061 
L 122.649293 136.067776 
L 123.456586 134.807757 
L 124.263879 150.808289 
L 125.071172 150.808289 
L 125.878465 154.675243 
L 126.685758 138.304196 
L 127.493051 154.675243 
L 128.300343 156.190671 
L 129.107636 167.075009 
L 129.914929 167.075009 
L 130.722222 181.564108 
L 131.529515 182.353838 
L 133.144101 215.032102 
L 133.951394 215.032102 
L 134.758687 216.871581 
L 135.56598 216.871581 
L 136.373273 211.836649 
L 137.180566 215.153037 
L 137.987859 228.776173 
L 138.795152 237.799065 
L 139.602444 254.170112 
L 142.831616 254.170112 
L 143.638909 248.993476 
L 145.253495 248.993476 
L 146.060788 249.746105 
L 146.868081 264.104199 
L 149.28996 264.104199 
L 150.097253 274.29048 
L 150.904545 274.29048 
L 151.711838 290.661526 
L 152.519131 290.661526 
L 153.326424 306.221182 
L 154.133717 314.527972 
L 156.555596 314.527972 
L 157.362889 330.899019 
L 159.784768 330.899019 
L 160.592061 314.527972 
L 161.399354 314.527972 
L 162.206646 330.68602 
L 163.013939 339.080464 
L 163.821232 323.969435 
L 166.243111 323.969435 
L 167.050404 323.814343 
L 167.857697 308.613952 
L 171.086869 308.613952 
L 171.894162 292.636781 
L 174.31604 292.636781 
L 175.123333 299.462796 
L 175.930626 299.462796 
L 176.737919 288.075307 
L 177.545212 284.75892 
L 179.159798 284.75892 
L 179.967091 268.387873 
L 180.774384 268.387873 
L 181.581677 263.171982 
L 182.38897 263.171982 
L 183.196263 247.785424 
L 184.003556 263.11662 
L 187.232727 263.11662 
L 189.654606 214.00348 
L 190.461899 219.219371 
L 192.883778 219.219371 
L 193.691071 202.848325 
L 194.498364 202.848325 
L 195.305657 191.461633 
L 196.112949 191.461633 
L 196.920242 175.090586 
L 197.727535 175.090586 
L 198.534828 174.394054 
L 199.342121 161.900011 
L 200.149414 161.900011 
L 200.956707 178.271057 
L 202.571293 178.271057 
L 203.378586 186.247661 
L 206.607758 186.247661 
L 207.415051 195.691169 
L 208.222343 194.520513 
L 209.836929 194.520513 
L 210.644222 185.248957 
L 211.451515 185.248957 
L 212.258808 201.226128 
L 216.295273 201.226128 
L 217.909859 234.019594 
L 220.331737 234.019594 
L 221.13903 221.749641 
L 221.946323 221.06334 
L 222.753616 221.06334 
L 223.560909 220.078851 
L 224.368202 220.078851 
L 225.175495 203.837646 
L 227.597374 203.837646 
L 228.404667 219.413362 
L 229.21196 220.226466 
L 230.019253 236.597512 
L 230.826545 234.412934 
L 231.633838 219.673447 
L 232.441131 211.906059 
L 234.86301 211.906059 
L 235.670303 223.292751 
L 236.477596 223.292751 
L 237.284889 232.457908 
L 238.092182 232.457908 
L 238.899475 233.15444 
L 239.706768 245.648483 
L 242.128646 245.648483 
L 242.935939 229.277436 
L 243.743232 220.11411 
L 244.550525 236.485157 
L 245.357818 223.082861 
L 246.972404 223.082861 
L 247.779697 230.165493 
L 248.58699 239.272302 
L 250.201576 239.272302 
L 251.008869 248.543857 
L 251.816162 242.578876 
L 255.045333 242.578876 
L 255.852626 226.207829 
L 257.467212 226.207829 
L 258.274505 225.429067 
L 259.081798 225.429067 
L 259.889091 208.986355 
L 260.696384 225.357401 
L 261.503677 237.627354 
L 262.31097 243.529547 
L 263.118263 227.340498 
L 264.732848 227.340498 
L 265.540141 243.581703 
L 267.96202 243.581703 
L 268.769313 244.377034 
L 269.576606 259.934977 
L 270.383899 244.123536 
L 271.191192 246.308113 
L 271.998485 261.047601 
L 272.805778 268.814989 
L 273.613071 268.814989 
L 274.420364 285.186036 
L 276.842242 285.186036 
L 277.649535 276.020879 
L 282.493293 276.020879 
L 283.300586 290.834402 
L 284.107879 299.997729 
L 284.915172 299.997729 
L 285.722465 313.400024 
L 288.144343 313.400024 
L 288.951636 320.664262 
L 291.373515 320.664262 
L 292.180808 326.629244 
L 295.40998 326.629244 
L 296.217273 343.00029 
L 297.831859 343.00029 
L 298.639152 343.779052 
L 299.446444 343.779052 
L 300.253737 360.221765 
L 301.868323 360.221765 
L 302.675616 352.274718 
L 304.290202 384.834813 
L 305.097495 368.463767 
L 309.941253 368.463767 
L 310.748545 367.904162 
L 316.399596 367.904162 
L 317.206889 353.153091 
L 318.014182 355.538215 
L 319.628768 355.538215 
L 320.436061 344.551363 
L 322.857939 344.551363 
L 323.665232 346.108886 
L 325.279818 313.366792 
L 327.701697 313.366792 
L 328.50899 296.995745 
L 329.316283 296.995745 
L 330.930869 265.057476 
L 333.352747 265.057476 
L 334.16004 262.322314 
L 334.967333 248.729384 
L 335.774626 232.448796 
L 338.196505 232.448796 
L 339.003798 216.077749 
L 339.811091 216.077749 
L 340.618384 206.95436 
L 342.23297 206.95436 
L 343.040263 214.901406 
L 343.847556 198.53036 
L 344.654848 186.504443 
L 345.462141 202.87549 
L 347.076727 202.87549 
L 347.88402 186.521498 
L 348.691313 186.521498 
L 349.498606 185.083784 
L 350.305899 185.083784 
L 351.113192 201.454831 
L 351.920485 201.454831 
L 353.535071 168.712737 
L 354.342364 168.712737 
L 355.149657 152.373437 
L 355.956949 152.373437 
L 356.764242 136.00239 
L 358.378828 164.739384 
L 359.186121 164.739384 
L 359.993414 148.782468 
L 360.800707 143.398273 
L 361.608 143.398273 
L 362.415293 127.378036 
L 363.222586 127.378036 
L 364.029879 110.989902 
L 365.644465 143.731995 
L 366.451758 127.572903 
L 368.066343 127.572903 
L 368.873636 143.94395 
L 369.680929 143.175857 
L 370.488222 145.839107 
L 371.295515 146.384208 
L 372.102808 130.926451 
L 373.717394 130.926451 
L 374.524687 133.661613 
L 375.33198 147.254543 
L 376.139273 163.535131 
L 377.753859 163.535131 
L 378.561152 147.164084 
L 379.368444 163.535131 
L 380.175737 163.535131 
L 380.98303 172.65852 
L 383.404909 172.65852 
L 384.212202 186.756425 
L 385.019495 198.782342 
L 387.441374 198.782342 
L 388.248667 215.136334 
L 389.05596 215.136334 
L 389.863253 199.987177 
L 390.670545 199.987177 
L 391.477838 183.61613 
L 392.285131 183.61613 
L 393.899717 216.358224 
L 394.70701 216.358224 
L 395.514303 217.861143 
L 396.321596 201.490096 
L 397.128889 217.861143 
L 399.550768 217.861143 
L 400.358061 233.818059 
L 401.165354 235.114326 
L 401.972646 230.777356 
L 402.779939 230.426546 
L 403.587232 230.426546 
L 404.394525 246.814681 
L 406.009111 246.814681 
L 406.816404 262.973773 
L 409.238283 262.973773 
L 410.045576 263.741866 
L 410.852869 276.645839 
L 412.467455 307.929541 
L 413.274747 307.166673 
L 414.08204 307.166673 
L 414.889333 290.795626 
L 415.696626 289.329722 
L 418.118505 289.329722 
L 418.925798 305.700769 
L 423.769556 305.700769 
L 424.576848 307.973911 
L 425.384141 307.973911 
L 426.191434 291.585776 
L 427.80602 291.585776 
L 428.613313 275.293721 
L 429.420606 266.597019 
L 430.227899 283.183889 
L 431.035192 283.183889 
L 431.842485 299.554936 
L 434.264364 299.554936 
L 435.071657 283.481296 
L 436.686242 314.688724 
L 437.493535 314.688724 
L 439.108121 285.600757 
L 440.722707 252.774321 
L 441.53 267.849101 
L 442.337293 272.186071 
L 443.144586 288.557118 
L 445.566465 240.668655 
L 447.988343 240.668655 
L 449.602929 215.985435 
L 450.410222 199.614388 
L 452.832101 199.614388 
L 453.639394 200.377257 
L 454.446687 189.16309 
L 455.25398 205.534137 
L 456.868566 174.386146 
L 463.326909 174.386146 
L 464.134202 172.890924 
L 465.748788 172.890924 
L 466.556081 189.279059 
L 468.170667 189.279059 
L 468.97796 205.571114 
L 469.785253 214.267816 
L 470.592545 213.478086 
L 474.62901 213.478086 
L 475.436303 229.551726 
L 477.858182 229.551726 
L 478.665475 233.863458 
L 481.087354 282.046229 
L 484.316525 282.102715 
L 485.931111 313.563645 
L 488.35299 313.563645 
L 489.967576 338.246865 
L 490.774869 354.617912 
L 492.389455 354.617912 
L 493.196747 338.246865 
L 494.00404 338.246865 
L 494.811333 349.461032 
L 495.618626 349.461032 
L 497.233212 382.074926 
L 498.040505 382.074926 
L 499.655091 350.368267 
L 500.462384 349.572936 
L 503.691556 349.572936 
L 504.498848 351.068158 
L 509.342606 351.068158 
L 510.149899 334.697111 
L 510.957192 335.486841 
L 513.379071 335.486841 
L 514.993657 308.910767 
L 518.222828 308.910767 
L 519.030121 318.330666 
L 519.837414 313.895686 
L 521.452 281.153592 
L 523.873879 281.153592 
L 524.681172 297.524639 
L 530.332222 297.524639 
L 531.139515 281.153592 
L 531.946808 277.394654 
L 532.754101 277.394654 
L 533.561394 293.765701 
L 534.368687 277.81779 
L 536.790566 277.81779 
L 537.597859 262.823918 
L 538.405152 262.823918 
L 540.019737 294.530578 
L 540.82703 278.954862 
L 544.863495 278.954862 
L 545.670788 262.583815 
L 548.89996 262.583815 
L 549.707253 257.867577 
L 550.514545 274.238624 
L 553.743717 274.238624 
L 555.358303 300.814698 
L 559.394768 300.814698 
L 560.202061 290.281099 
L 561.816646 323.023192 
L 569.082283 323.023192 
L 569.889576 322.270564 
L 570.696869 322.270564 
L 571.504162 338.64161 
L 572.311455 326.844958 
L 573.118747 326.844958 
L 573.92604 312.109622 
L 574.733333 328.057532 
L 577.155212 328.057532 
L 577.962505 343.051404 
L 585.228141 343.051404 
L 586.035434 359.422451 
L 586.842727 350.764454 
L 589.264606 350.764454 
L 590.071899 355.480692 
L 591.686485 325.962102 
L 594.915657 325.962102 
L 595.722949 310.053271 
L 599.759414 310.053271 
L 600.566707 325.021852 
L 609.446929 325.021852 
L 610.254222 325.774481 
L 611.868808 325.774481 
L 612.676101 341.330071 
L 613.483394 341.330071 
L 614.290687 356.065408 
L 619.134444 356.065408 
L 619.941737 339.496296 
L 620.74903 339.496296 
L 621.556323 355.867342 
L 626.400081 355.867342 
L 627.207374 364.525339 
L 628.014667 355.729914 
L 630.436545 355.729914 
L 632.051131 385.248505 
L 633.665717 385.248505 
L 634.47301 382.16769 
L 635.280303 382.16769 
L 636.087596 381.705473 
L 637.702182 381.705473 
L 638.509475 380.239569 
L 640.931354 380.239569 
L 641.738646 363.868523 
L 643.353232 363.868523 
L 644.160525 347.497476 
L 655.462626 347.497476 
L 656.269919 331.126429 
L 658.691798 331.126429 
L 659.499091 314.74753 
L 660.306384 331.316642 
L 662.728263 331.316642 
L 663.535556 318.856457 
L 664.342848 302.48541 
L 667.57202 302.48541 
L 668.379313 294.909788 
L 669.186606 278.45294 
L 670.801192 278.45294 
L 671.608485 262.885718 
L 672.415778 258.593214 
L 673.223071 242.222167 
L 674.030364 242.222167 
L 674.837657 245.302982 
L 675.644949 245.302982 
L 676.452242 261.674029 
L 677.259535 261.674029 
L 678.066828 245.302982 
L 678.874121 246.768886 
L 679.681414 242.392626 
L 680.488707 226.645073 
L 681.296 226.645073 
L 682.103293 240.78814 
L 683.717879 240.78814 
L 684.525172 257.159187 
L 686.139758 257.159187 
L 686.947051 241.18284 
L 695.827273 241.18284 
L 696.634566 257.553887 
L 697.441859 241.177645 
L 703.092909 241.185497 
L 703.900202 253.645682 
L 704.707495 267.900848 
L 706.322081 267.900848 
L 707.129374 251.919637 
L 707.936667 251.919637 
L 709.551253 284.747532 
L 711.165838 284.747532 
L 711.973131 283.7415 
L 712.780424 288.034004 
L 713.587717 304.405051 
L 717.624182 304.405051 
L 718.431475 320.776097 
L 719.238768 320.776097 
L 720.046061 325.152357 
L 720.853354 340.89991 
L 721.660646 340.89991 
L 722.467939 343.12789 
L 726.504404 343.12789 
L 727.311697 359.104237 
L 728.926283 359.104237 
L 729.733576 348.128669 
L 730.540869 348.128669 
L 731.348162 342.979307 
L 732.155455 326.60826 
L 736.999212 326.60826 
L 737.806505 342.984502 
L 739.421091 342.984502 
L 740.228384 359.355549 
L 744.264848 359.355549 
L 745.072141 350.358291 
L 746.686727 350.358291 
L 747.49402 366.339502 
L 748.301313 357.671548 
L 751.530485 357.671548 
L 752.337778 374.244802 
L 764.447172 374.244802 
L 765.254465 370.116888 
L 769.290929 370.116888 
L 770.098222 381.092456 
L 770.905515 381.092456 
L 771.712808 386.241818 
L 773.327394 386.241818 
L 774.134687 378.664678 
L 780.59303 378.664678 
L 781.400323 369.7104 
L 784.629495 369.7104 
L 785.436788 364.452491 
L 787.051374 364.452491 
L 787.858667 348.925183 
L 788.66596 357.593138 
L 799.160768 357.593138 
L 799.968061 347.105068 
L 800.775354 338.866088 
L 800.775354 338.866088 
" clip-path="url(#p79bd67dd02)" style="fill: none; stroke-dasharray: 7.4,3.2; stroke-dashoffset: 0; stroke: #000000; stroke-width: 2"/>
   </g>
   <g id="patch_3">
    <path d="M 41.92 404.12 
L 41.92 10.8 
" style="fill: none; stroke: #000000; stroke-width: 0.8; stroke-linejoin: miter; stroke-linecap: square"/>
   </g>
   <g id="patch_4">
    <path d="M 841.14 404.12 
L 841.14 10.8 
" style="fill: none; stroke: #000000; stroke-width: 0.8; stroke-linejoin: miter; stroke-linecap: square"/>
   </g>
   <g id="patch_5">
    <path d="M 41.92 404.12 
L 841.14 404.12 
" style="fill: none; stroke: #000000; stroke-width: 0.8; stroke-linejoin: miter; stroke-linecap: square"/>
   </g>
   <g id="patch_6">
    <path d="M 41.92 10.8 
L 841.14 10.8 
" style="fill: none; stroke: #000000; stroke-width: 0.8; stroke-linejoin: miter; stroke-linecap: square"/>
   </g>
  </g>
 </g>
 <defs>
  <clipPath id="p79bd67dd02">
   <rect x="41.92" y="10.8" width="799.22" height="393.32"/>
  </clipPath>
 </defs>
</svg>
