<?xml version="1.0" encoding="utf-8" standalone="no"?>
<!DOCTYPE svg PUBLIC "-//W3C//DTD SVG 1.1//EN"
  "http://www.w3.org/Graphics/SVG/1.1/DTD/svg11.dtd">
<svg xmlns:xlink="http://www.w3.org/1999/xlink" width="864pt" height="432pt" viewBox="0 0 864 432" xmlns="http://www.w3.org/2000/svg" version="1.1">
 <metadata>
  <rdf:RDF xmlns:dc="http://purl.org/dc/elements/1.1/" xmlns:cc="http://creativecommons.org/ns#" xmlns:rdf="http://www.w3.org/1999/02/22-rdf-syntax-ns#">
   <cc:Work>
    <dc:type rdf:resource="http://purl.org/dc/dcmitype/StillImage"/>
    <dc:date>2024-09-18T17:52:42.318627</dc:date>
    <dc:format>image/svg+xml</dc:format>
    <dc:creator>
     <cc:Agent>
      <dc:title>Matplotlib v3.9.2, https://matplotlib.org/</dc:title>
     </cc:Agent>
    </dc:creator>
   </cc:Work>
  </rdf:RDF>
 </metadata>
 <defs>
  <style type="text/css">*{stroke-linejoin: round; stroke-linecap: butt}</style>
 </defs>
 <g id="figure_1">
  <g id="patch_1">
   <path d="M 0 432 
L 864 432 
L 864 0 
L 0 0 
z
" style="fill: #ffffff"/>
  </g>
  <g id="axes_1">
   <g id="patch_2">
    <path d="M 35.89 404.12 
L 853.2 404.12 
L 853.2 10.8 
L 35.89 10.8 
z
" style="fill: #ffffff"/>
   </g>
   <g id="matplotlib.axis_1">
    <g id="xtick_1">
     <g id="line2d_1">
      <defs>
       <path id="me5d4200ec8" d="M 0 0 
L 0 3.5 
" style="stroke: #000000; stroke-width: 0.8"/>
      </defs>
      <g>
       <use xlink:href="#me5d4200ec8" x="194.186534" y="404.12" style="stroke: #000000; stroke-width: 0.8"/>
      </g>
     </g>
     <g id="text_1">
      <!-- 200 -->
      <g transform="translate(185.156065 418.771563) scale(0.1 -0.1)">
       <defs>
        <path id="DejaVuSansMono-32" d="M 1166 531 
L 3309 531 
L 3309 0 
L 475 0 
L 475 531 
Q 1059 1147 1496 1619 
Q 1934 2091 2100 2284 
Q 2413 2666 2522 2902 
Q 2631 3138 2631 3384 
Q 2631 3775 2401 3997 
Q 2172 4219 1772 4219 
Q 1488 4219 1175 4116 
Q 863 4013 513 3803 
L 513 4441 
Q 834 4594 1145 4672 
Q 1456 4750 1759 4750 
Q 2444 4750 2861 4386 
Q 3278 4022 3278 3431 
Q 3278 3131 3139 2831 
Q 3000 2531 2688 2169 
Q 2513 1966 2180 1606 
Q 1847 1247 1166 531 
z
" transform="scale(0.015625)"/>
        <path id="DejaVuSansMono-30" d="M 1509 2344 
Q 1509 2516 1629 2641 
Q 1750 2766 1919 2766 
Q 2094 2766 2219 2641 
Q 2344 2516 2344 2344 
Q 2344 2169 2220 2047 
Q 2097 1925 1919 1925 
Q 1744 1925 1626 2044 
Q 1509 2163 1509 2344 
z
M 1925 4250 
Q 1484 4250 1267 3775 
Q 1050 3300 1050 2328 
Q 1050 1359 1267 884 
Q 1484 409 1925 409 
Q 2369 409 2586 884 
Q 2803 1359 2803 2328 
Q 2803 3300 2586 3775 
Q 2369 4250 1925 4250 
z
M 1925 4750 
Q 2672 4750 3055 4137 
Q 3438 3525 3438 2328 
Q 3438 1134 3055 521 
Q 2672 -91 1925 -91 
Q 1178 -91 797 521 
Q 416 1134 416 2328 
Q 416 3525 797 4137 
Q 1178 4750 1925 4750 
z
" transform="scale(0.015625)"/>
       </defs>
       <use xlink:href="#DejaVuSansMono-32"/>
       <use xlink:href="#DejaVuSansMono-30" x="60.205078"/>
       <use xlink:href="#DejaVuSansMono-30" x="120.410156"/>
      </g>
     </g>
    </g>
    <g id="xtick_2">
     <g id="line2d_2">
      <g>
       <use xlink:href="#me5d4200ec8" x="360.814465" y="404.12" style="stroke: #000000; stroke-width: 0.8"/>
      </g>
     </g>
     <g id="text_2">
      <!-- 400 -->
      <g transform="translate(351.783996 418.771563) scale(0.1 -0.1)">
       <defs>
        <path id="DejaVuSansMono-34" d="M 2297 4091 
L 825 1625 
L 2297 1625 
L 2297 4091 
z
M 2194 4666 
L 2925 4666 
L 2925 1625 
L 3547 1625 
L 3547 1113 
L 2925 1113 
L 2925 0 
L 2297 0 
L 2297 1113 
L 319 1113 
L 319 1709 
L 2194 4666 
z
" transform="scale(0.015625)"/>
       </defs>
       <use xlink:href="#DejaVuSansMono-34"/>
       <use xlink:href="#DejaVuSansMono-30" x="60.205078"/>
       <use xlink:href="#DejaVuSansMono-30" x="120.410156"/>
      </g>
     </g>
    </g>
    <g id="xtick_3">
     <g id="line2d_3">
      <g>
       <use xlink:href="#me5d4200ec8" x="527.442396" y="404.12" style="stroke: #000000; stroke-width: 0.8"/>
      </g>
     </g>
     <g id="text_3">
      <!-- 600 -->
      <g transform="translate(518.411927 418.771563) scale(0.1 -0.1)">
       <defs>
        <path id="DejaVuSansMono-36" d="M 3097 4563 
L 3097 3981 
Q 2900 4097 2678 4158 
Q 2456 4219 2216 4219 
Q 1616 4219 1306 3767 
Q 997 3316 997 2438 
Q 1147 2750 1412 2917 
Q 1678 3084 2022 3084 
Q 2697 3084 3067 2670 
Q 3438 2256 3438 1497 
Q 3438 741 3056 325 
Q 2675 -91 1984 -91 
Q 1172 -91 794 492 
Q 416 1075 416 2328 
Q 416 3509 870 4129 
Q 1325 4750 2188 4750 
Q 2419 4750 2650 4701 
Q 2881 4653 3097 4563 
z
M 1972 2591 
Q 1569 2591 1337 2300 
Q 1106 2009 1106 1497 
Q 1106 984 1337 693 
Q 1569 403 1972 403 
Q 2391 403 2603 679 
Q 2816 956 2816 1497 
Q 2816 2041 2603 2316 
Q 2391 2591 1972 2591 
z
" transform="scale(0.015625)"/>
       </defs>
       <use xlink:href="#DejaVuSansMono-36"/>
       <use xlink:href="#DejaVuSansMono-30" x="60.205078"/>
       <use xlink:href="#DejaVuSansMono-30" x="120.410156"/>
      </g>
     </g>
    </g>
    <g id="xtick_4">
     <g id="line2d_4">
      <g>
       <use xlink:href="#me5d4200ec8" x="694.070326" y="404.12" style="stroke: #000000; stroke-width: 0.8"/>
      </g>
     </g>
     <g id="text_4">
      <!-- 800 -->
      <g transform="translate(685.039857 418.771563) scale(0.1 -0.1)">
       <defs>
        <path id="DejaVuSansMono-38" d="M 1925 2216 
Q 1503 2216 1273 1980 
Q 1044 1744 1044 1313 
Q 1044 881 1276 642 
Q 1509 403 1925 403 
Q 2350 403 2579 639 
Q 2809 875 2809 1313 
Q 2809 1741 2576 1978 
Q 2344 2216 1925 2216 
z
M 1375 2478 
Q 972 2581 745 2862 
Q 519 3144 519 3541 
Q 519 4097 897 4423 
Q 1275 4750 1925 4750 
Q 2578 4750 2956 4423 
Q 3334 4097 3334 3541 
Q 3334 3144 3107 2862 
Q 2881 2581 2478 2478 
Q 2947 2375 3195 2062 
Q 3444 1750 3444 1253 
Q 3444 622 3041 265 
Q 2638 -91 1925 -91 
Q 1213 -91 811 264 
Q 409 619 409 1247 
Q 409 1747 657 2061 
Q 906 2375 1375 2478 
z
M 1147 3481 
Q 1147 3106 1347 2909 
Q 1547 2713 1925 2713 
Q 2306 2713 2506 2909 
Q 2706 3106 2706 3481 
Q 2706 3863 2507 4063 
Q 2309 4263 1925 4263 
Q 1547 4263 1347 4061 
Q 1147 3859 1147 3481 
z
" transform="scale(0.015625)"/>
       </defs>
       <use xlink:href="#DejaVuSansMono-38"/>
       <use xlink:href="#DejaVuSansMono-30" x="60.205078"/>
       <use xlink:href="#DejaVuSansMono-30" x="120.410156"/>
      </g>
     </g>
    </g>
   </g>
   <g id="matplotlib.axis_2">
    <g id="ytick_1">
     <g id="line2d_5">
      <defs>
       <path id="mbc55010fa8" d="M 0 0 
L -3.5 0 
" style="stroke: #000000; stroke-width: 0.8"/>
      </defs>
      <g>
       <use xlink:href="#mbc55010fa8" x="35.89" y="358.191786" style="stroke: #000000; stroke-width: 0.8"/>
      </g>
     </g>
     <g id="text_5">
      <!-- 0.2 -->
      <g transform="translate(10.829063 362.017567) scale(0.1 -0.1)">
       <defs>
        <path id="DejaVuSansMono-2e" d="M 1528 953 
L 2316 953 
L 2316 0 
L 1528 0 
L 1528 953 
z
" transform="scale(0.015625)"/>
       </defs>
       <use xlink:href="#DejaVuSansMono-30"/>
       <use xlink:href="#DejaVuSansMono-2e" x="60.205078"/>
       <use xlink:href="#DejaVuSansMono-32" x="120.410156"/>
      </g>
     </g>
    </g>
    <g id="ytick_2">
     <g id="line2d_6">
      <g>
       <use xlink:href="#mbc55010fa8" x="35.89" y="274.224992" style="stroke: #000000; stroke-width: 0.8"/>
      </g>
     </g>
     <g id="text_6">
      <!-- 0.4 -->
      <g transform="translate(10.829063 278.050773) scale(0.1 -0.1)">
       <use xlink:href="#DejaVuSansMono-30"/>
       <use xlink:href="#DejaVuSansMono-2e" x="60.205078"/>
       <use xlink:href="#DejaVuSansMono-34" x="120.410156"/>
      </g>
     </g>
    </g>
    <g id="ytick_3">
     <g id="line2d_7">
      <g>
       <use xlink:href="#mbc55010fa8" x="35.89" y="190.258199" style="stroke: #000000; stroke-width: 0.8"/>
      </g>
     </g>
     <g id="text_7">
      <!-- 0.6 -->
      <g transform="translate(10.829063 194.08398) scale(0.1 -0.1)">
       <use xlink:href="#DejaVuSansMono-30"/>
       <use xlink:href="#DejaVuSansMono-2e" x="60.205078"/>
       <use xlink:href="#DejaVuSansMono-36" x="120.410156"/>
      </g>
     </g>
    </g>
    <g id="ytick_4">
     <g id="line2d_8">
      <g>
       <use xlink:href="#mbc55010fa8" x="35.89" y="106.291405" style="stroke: #000000; stroke-width: 0.8"/>
      </g>
     </g>
     <g id="text_8">
      <!-- 0.8 -->
      <g transform="translate(10.829063 110.117187) scale(0.1 -0.1)">
       <use xlink:href="#DejaVuSansMono-30"/>
       <use xlink:href="#DejaVuSansMono-2e" x="60.205078"/>
       <use xlink:href="#DejaVuSansMono-38" x="120.410156"/>
      </g>
     </g>
    </g>
    <g id="ytick_5">
     <g id="line2d_9">
      <g>
       <use xlink:href="#mbc55010fa8" x="35.89" y="22.324612" style="stroke: #000000; stroke-width: 0.8"/>
      </g>
     </g>
     <g id="text_9">
      <!-- 1.0 -->
      <g transform="translate(10.829063 26.150393) scale(0.1 -0.1)">
       <defs>
        <path id="DejaVuSansMono-31" d="M 844 531 
L 1825 531 
L 1825 4097 
L 769 3859 
L 769 4434 
L 1819 4666 
L 2450 4666 
L 2450 531 
L 3419 531 
L 3419 0 
L 844 0 
L 844 531 
z
" transform="scale(0.015625)"/>
       </defs>
       <use xlink:href="#DejaVuSansMono-31"/>
       <use xlink:href="#DejaVuSansMono-2e" x="60.205078"/>
       <use xlink:href="#DejaVuSansMono-30" x="120.410156"/>
      </g>
     </g>
    </g>
   </g>
   <g id="line2d_10">
    <path d="M 27.558603 359.422551 
L 29.224883 370.994344 
L 30.058022 378.975324 
L 30.891162 381.03958 
L 32.557441 386.069827 
L 33.390581 386.241818 
L 34.223721 381.5337 
L 35.05686 375.274709 
L 36.72314 354.4537 
L 37.556279 349.528415 
L 38.389419 339.966785 
L 39.222559 339.239771 
L 40.055698 334.023694 
L 40.888838 334.735167 
L 41.721978 335.843375 
L 42.555117 343.13588 
L 43.388257 343.126965 
L 45.054536 342.468427 
L 45.887676 340.567144 
L 46.720815 340.396987 
L 47.553955 342.099435 
L 48.387095 347.04814 
L 49.220234 342.106642 
L 50.053374 348.46762 
L 50.886514 346.65497 
L 51.719653 352.171545 
L 52.552793 352.041573 
L 53.385933 363.978518 
L 54.219072 365.506141 
L 55.052212 368.287651 
L 55.885352 372.438331 
L 56.718491 371.992793 
L 57.551631 373.941601 
L 58.384771 364.365908 
L 59.21791 357.321822 
L 60.05105 348.981329 
L 60.88419 352.453451 
L 61.717329 342.273693 
L 62.550469 341.30231 
L 63.383609 339.802313 
L 64.216748 336.719825 
L 65.049888 330.358277 
L 65.883028 329.690816 
L 66.716167 328.59504 
L 67.549307 332.16951 
L 68.382446 332.555814 
L 70.048726 330.684539 
L 70.881865 332.58357 
L 71.715005 330.720487 
L 72.548145 334.148418 
L 73.381284 334.109029 
L 74.214424 336.437976 
L 75.047564 336.149038 
L 75.880703 333.295684 
L 76.713843 346.40121 
L 77.546983 345.345119 
L 78.380122 343.806527 
L 79.213262 350.512225 
L 80.046402 350.88189 
L 80.879541 341.96052 
L 81.712681 342.769282 
L 82.545821 338.981872 
L 83.37896 340.475701 
L 84.2121 349.010819 
L 85.04524 334.86172 
L 85.878379 337.589357 
L 86.711519 339.304475 
L 87.544659 330.666459 
L 88.377798 334.753073 
L 89.210938 332.197455 
L 90.044077 333.738466 
L 90.877217 334.093761 
L 91.710357 333.519539 
L 92.543496 331.019399 
L 93.376636 330.976926 
L 94.209776 332.849945 
L 95.042915 335.772019 
L 95.876055 342.857098 
L 96.709195 344.00581 
L 98.375474 358.49926 
L 99.208614 357.149026 
L 100.041753 355.363408 
L 100.874893 346.11771 
L 101.708033 352.46623 
L 102.541172 353.012355 
L 103.374312 348.655848 
L 104.207452 340.088234 
L 105.040591 340.202612 
L 105.873731 342.350727 
L 106.706871 340.343265 
L 107.54001 339.717955 
L 108.37315 340.745278 
L 109.20629 345.697268 
L 110.039429 339.248099 
L 110.872569 330.596975 
L 111.705708 334.277252 
L 112.538848 330.630004 
L 113.371988 332.669256 
L 114.205127 324.908239 
L 115.038267 319.108814 
L 115.871407 321.956482 
L 116.704546 321.282125 
L 117.537686 318.470326 
L 118.370826 317.616639 
L 119.203965 318.651653 
L 120.037105 321.558808 
L 120.870245 320.67006 
L 121.703384 310.207216 
L 122.536524 309.585185 
L 123.369664 309.215835 
L 124.202803 304.229022 
L 125.035943 303.967814 
L 125.869083 311.624718 
L 126.702222 313.115832 
L 127.535362 311.65895 
L 128.368502 305.552577 
L 129.201641 304.906447 
L 130.034781 313.574368 
L 131.70106 310.625318 
L 132.5342 311.24573 
L 133.367339 314.076568 
L 134.200479 310.006019 
L 135.866758 311.837659 
L 136.699898 308.55662 
L 137.533038 325.012385 
L 138.366177 316.013513 
L 139.199317 317.594698 
L 140.032457 318.115551 
L 140.865596 317.348304 
L 141.698736 316.385996 
L 142.531876 309.496175 
L 143.365015 305.914834 
L 144.198155 304.629627 
L 145.031295 307.825339 
L 145.864434 291.343208 
L 146.697574 291.17618 
L 147.530714 288.573585 
L 148.363853 288.4552 
L 149.196993 289.477809 
L 150.030133 286.005559 
L 150.863272 284.512395 
L 151.696412 300.878805 
L 152.529551 311.149743 
L 153.362691 319.661966 
L 154.195831 319.818074 
L 155.02897 333.694564 
L 155.86211 343.055968 
L 156.69525 342.749418 
L 157.528389 341.432274 
L 158.361529 341.593652 
L 159.194669 348.015284 
L 160.027808 331.856727 
L 161.694088 306.771632 
L 162.527227 321.4213 
L 163.360367 320.287945 
L 164.193507 308.10739 
L 165.026646 308.263981 
L 165.859786 311.674358 
L 166.692926 308.196556 
L 167.526065 301.475668 
L 168.359205 300.112229 
L 169.192345 301.23984 
L 170.025484 302.980841 
L 170.858624 290.662731 
L 171.691764 288.017436 
L 172.524903 294.660722 
L 173.358043 294.060611 
L 174.191182 288.654304 
L 175.024322 288.899122 
L 175.857462 293.431406 
L 177.523741 294.192448 
L 179.19002 287.421842 
L 180.02316 271.947435 
L 180.8563 276.280651 
L 181.689439 272.814527 
L 182.522579 272.734312 
L 183.355719 275.999034 
L 185.021998 287.083051 
L 185.855138 284.275767 
L 186.688277 283.303029 
L 187.521417 280.761315 
L 188.354557 286.711186 
L 189.187696 289.071868 
L 190.020836 289.630359 
L 190.853976 289.425596 
L 191.687115 285.777503 
L 192.520255 275.00986 
L 193.353394 274.08644 
L 194.186534 275.510162 
L 195.019674 274.785279 
L 195.852813 279.712045 
L 196.685953 276.380706 
L 197.519093 262.997692 
L 198.352232 262.150055 
L 199.185372 262.544614 
L 200.018512 260.51663 
L 200.851651 259.048601 
L 201.684791 250.581545 
L 202.517931 249.1529 
L 203.35107 245.135539 
L 204.18421 250.455942 
L 205.01735 251.778507 
L 205.850489 256.886798 
L 206.683629 255.839151 
L 207.516769 252.978005 
L 208.349908 252.318531 
L 209.183048 254.770943 
L 210.016188 255.506423 
L 210.849327 255.714728 
L 211.682467 257.865025 
L 212.515607 259.577727 
L 213.348746 257.317627 
L 214.181886 248.069414 
L 215.015025 253.699145 
L 215.848165 254.675361 
L 216.681305 256.631821 
L 217.514444 253.664169 
L 218.347584 253.181602 
L 219.180724 253.4388 
L 220.013863 255.231483 
L 220.847003 245.021931 
L 221.680143 242.669885 
L 222.513282 244.761838 
L 223.346422 237.274642 
L 224.179562 237.865295 
L 225.012701 233.353076 
L 225.845841 230.714127 
L 226.678981 226.992194 
L 227.51212 232.065768 
L 228.34526 228.101507 
L 229.1784 222.737811 
L 230.011539 222.435213 
L 230.844679 229.124875 
L 231.677819 232.927596 
L 232.510958 227.026223 
L 233.344098 229.949526 
L 234.177238 230.238218 
L 235.010377 234.426632 
L 235.843517 223.789468 
L 236.676656 229.222852 
L 237.509796 232.835737 
L 238.342936 233.375816 
L 239.176075 224.994878 
L 240.009215 225.897993 
L 240.842355 224.735755 
L 241.675494 224.516352 
L 242.508634 223.544613 
L 243.341774 219.136458 
L 244.174913 217.923314 
L 245.008053 216.131939 
L 245.841193 208.804531 
L 246.674332 213.381094 
L 247.507472 212.15893 
L 248.340612 207.003131 
L 249.173751 222.965668 
L 250.006891 221.224446 
L 250.840031 220.293284 
L 252.50631 227.804056 
L 253.33945 223.120554 
L 254.172589 224.062767 
L 255.005729 217.507189 
L 255.838869 219.820866 
L 256.672008 219.711266 
L 257.505148 205.23213 
L 258.338287 203.670997 
L 259.171427 204.296025 
L 260.004567 198.702541 
L 260.837706 195.68698 
L 261.670846 197.818829 
L 262.503986 198.366651 
L 263.337125 196.520989 
L 265.003405 189.79694 
L 265.836544 189.821794 
L 266.669684 194.173733 
L 267.502824 192.385414 
L 268.335963 195.753316 
L 269.169103 192.379871 
L 270.002243 191.147524 
L 270.835382 197.163979 
L 271.668522 196.52471 
L 272.501662 193.683194 
L 273.334801 192.346203 
L 274.167941 193.245846 
L 275.001081 190.303082 
L 275.83422 191.91656 
L 276.66736 191.614032 
L 277.500499 197.35913 
L 278.333639 194.61825 
L 279.166779 191.087466 
L 279.999918 190.88659 
L 280.833058 192.794927 
L 281.666198 198.255231 
L 282.499337 195.824277 
L 283.332477 192.207135 
L 284.165617 193.628874 
L 284.998756 189.139946 
L 285.831896 181.865138 
L 286.665036 178.574137 
L 287.498175 172.922938 
L 288.331315 173.200274 
L 289.164455 174.029984 
L 289.997594 171.002394 
L 290.830734 172.541163 
L 291.663874 169.335702 
L 292.497013 168.219724 
L 293.330153 166.724507 
L 294.163293 166.055449 
L 294.996432 166.442203 
L 295.829572 167.831408 
L 296.662712 167.554069 
L 297.495851 163.505903 
L 298.328991 157.339773 
L 299.16213 154.535545 
L 299.99527 155.699729 
L 300.82841 150.987958 
L 301.661549 151.174247 
L 302.494689 157.093381 
L 303.327829 158.820397 
L 304.160968 155.021492 
L 304.994108 152.349822 
L 305.827248 151.982371 
L 306.660387 153.996915 
L 307.493527 153.329536 
L 308.326667 153.86927 
L 309.992946 151.218862 
L 310.826086 143.256358 
L 311.659225 142.791424 
L 312.492365 144.914737 
L 313.325505 141.867345 
L 314.158644 140.948004 
L 314.991784 143.668334 
L 315.824924 143.265592 
L 316.658063 140.112298 
L 317.491203 137.480679 
L 318.324343 139.882002 
L 319.157482 138.281986 
L 319.990622 134.045909 
L 320.823761 134.829142 
L 321.656901 131.321235 
L 322.490041 129.67215 
L 323.32318 122.946182 
L 324.15632 121.418654 
L 324.98946 123.254126 
L 325.822599 125.557668 
L 326.655739 123.533119 
L 327.488879 131.478044 
L 328.322018 135.213144 
L 329.155158 130.840466 
L 329.988298 135.581981 
L 330.821437 137.314687 
L 331.654577 137.355553 
L 332.487717 136.908997 
L 333.320856 137.029302 
L 334.153996 133.219613 
L 334.987136 129.985431 
L 335.820275 125.9758 
L 336.653415 119.957484 
L 337.486555 121.306369 
L 338.319694 119.384018 
L 339.152834 119.762562 
L 339.985973 121.093692 
L 340.819113 119.713595 
L 341.652253 117.20941 
L 342.485392 120.845055 
L 343.318532 122.439873 
L 344.151672 121.861837 
L 344.984811 124.836302 
L 345.817951 125.212739 
L 346.651091 124.243352 
L 347.48423 126.157714 
L 349.15051 127.590702 
L 349.983649 127.892129 
L 350.816789 126.785128 
L 352.483068 119.363378 
L 353.316208 118.904672 
L 354.149348 118.885819 
L 354.982487 119.456856 
L 355.815627 112.864148 
L 356.648767 110.938475 
L 357.481906 110.286696 
L 358.315046 111.679229 
L 359.148186 109.18592 
L 359.981325 110.517005 
L 360.814465 111.291051 
L 361.647604 107.713675 
L 363.313884 105.348084 
L 364.147023 111.29998 
L 364.980163 113.843165 
L 365.813303 110.825161 
L 366.646442 108.697591 
L 367.479582 108.064865 
L 368.312722 113.693398 
L 369.145861 112.152116 
L 370.812141 109.824006 
L 371.64528 112.318379 
L 372.47842 104.567598 
L 373.31156 98.371014 
L 374.144699 99.212648 
L 374.977839 97.601182 
L 375.810979 95.294582 
L 376.644118 89.795947 
L 377.477258 89.903017 
L 378.310398 92.661051 
L 379.143537 91.46099 
L 379.976677 89.34494 
L 380.809817 92.993763 
L 381.642956 92.104038 
L 382.476096 93.282986 
L 383.309235 92.142577 
L 384.142375 93.269225 
L 384.975515 91.316961 
L 385.808654 89.732303 
L 386.641794 89.020429 
L 387.474934 86.272867 
L 388.308073 87.969601 
L 389.141213 87.550268 
L 389.974353 89.480721 
L 390.807492 87.091915 
L 391.640632 89.907734 
L 392.473772 91.733221 
L 393.306911 90.170234 
L 394.140051 91.572354 
L 394.973191 91.865085 
L 395.80633 94.343853 
L 396.63947 92.92834 
L 397.47261 88.649169 
L 398.305749 87.418076 
L 399.138889 90.044 
L 399.972029 86.773346 
L 400.805168 87.103879 
L 401.638308 90.032919 
L 402.471448 91.126178 
L 403.304587 91.458855 
L 404.137727 90.329557 
L 404.970866 86.842735 
L 405.804006 88.871047 
L 406.637146 89.882863 
L 407.470285 84.949628 
L 409.969704 76.785615 
L 410.802844 76.859919 
L 411.635984 74.14838 
L 412.469123 73.533101 
L 413.302263 75.949014 
L 414.135403 75.707506 
L 414.968542 72.550064 
L 416.634822 82.326289 
L 417.467961 84.328894 
L 418.301101 85.908352 
L 419.134241 86.38787 
L 419.96738 87.887072 
L 420.80052 87.409778 
L 421.63366 84.895041 
L 422.466799 82.793638 
L 423.299939 83.491061 
L 424.133078 79.576523 
L 424.966218 75.111308 
L 425.799358 73.038799 
L 426.632497 72.60281 
L 427.465637 66.898256 
L 428.298777 63.554737 
L 429.131916 63.056471 
L 429.965056 64.749315 
L 430.798196 67.83599 
L 431.631335 67.161632 
L 433.297615 69.957049 
L 434.963894 68.587132 
L 435.797034 70.110123 
L 436.630173 69.753646 
L 437.463313 70.545132 
L 439.129592 63.857078 
L 439.962732 66.14584 
L 440.795872 64.410812 
L 441.629011 62.965581 
L 442.462151 63.028809 
L 443.295291 62.724677 
L 444.12843 62.743487 
L 445.794709 60.770616 
L 446.627849 60.14806 
L 447.460989 62.248436 
L 448.294128 60.655773 
L 449.127268 60.359403 
L 449.960408 63.530081 
L 450.793547 64.877514 
L 451.626687 65.38119 
L 452.459827 70.533353 
L 453.292966 74.955429 
L 454.126106 76.77711 
L 454.959246 77.51875 
L 455.792385 75.074808 
L 456.625525 74.602024 
L 457.458665 78.541165 
L 458.291804 75.749287 
L 459.124944 76.613079 
L 459.958084 75.608244 
L 460.791223 72.371988 
L 461.624363 70.360752 
L 462.457503 67.838225 
L 463.290642 68.373366 
L 464.123782 69.115277 
L 464.956922 69.433333 
L 465.790061 68.012249 
L 466.623201 67.720496 
L 467.45634 64.483445 
L 468.28948 63.745027 
L 469.12262 61.38596 
L 469.955759 61.257564 
L 470.788899 63.689707 
L 471.622039 64.337364 
L 472.455178 63.57303 
L 473.288318 65.160163 
L 474.121458 62.194319 
L 474.954597 62.886767 
L 475.787737 63.946626 
L 476.620877 62.26001 
L 477.454016 63.099677 
L 478.287156 63.409019 
L 479.120296 61.954969 
L 479.953435 60.93649 
L 481.619715 60.311389 
L 482.452854 60.789819 
L 483.285994 60.215507 
L 484.119134 57.037813 
L 484.952273 56.742399 
L 485.785413 55.022205 
L 486.618552 52.774062 
L 487.451692 55.075534 
L 488.284832 53.698928 
L 489.117971 51.908512 
L 489.951111 48.866108 
L 491.61739 47.788417 
L 492.45053 48.773871 
L 493.28367 50.347517 
L 494.949949 54.462953 
L 495.783089 50.507515 
L 496.616228 53.064095 
L 497.449368 54.733478 
L 498.282508 54.997919 
L 499.115647 53.789763 
L 499.948787 53.317156 
L 500.781927 54.555924 
L 501.615066 54.789186 
L 502.448206 53.885092 
L 503.281346 50.896947 
L 504.114485 50.492 
L 506.613904 51.927175 
L 507.447044 51.656002 
L 508.280183 52.981001 
L 509.113323 51.789595 
L 509.946463 51.435993 
L 510.779602 51.662931 
L 511.612742 52.292924 
L 512.445882 53.9948 
L 513.279021 51.033781 
L 514.112161 51.40461 
L 514.945301 51.264881 
L 515.77844 54.146881 
L 516.61158 56.130716 
L 517.44472 55.476697 
L 518.277859 55.692775 
L 519.110999 53.396125 
L 519.944139 53.301724 
L 520.777278 55.868163 
L 521.610418 57.681361 
L 522.443558 56.807269 
L 523.276697 55.469325 
L 524.109837 53.837902 
L 524.942977 49.466242 
L 525.776116 49.676687 
L 526.609256 50.234263 
L 527.442396 50.317242 
L 528.275535 50.28331 
L 529.108675 47.451037 
L 529.941814 47.065804 
L 530.774954 49.561028 
L 532.441233 50.318323 
L 533.274373 54.254139 
L 534.940652 53.89042 
L 535.773792 55.356441 
L 536.606932 55.405556 
L 537.440071 58.698859 
L 538.273211 57.761856 
L 539.106351 55.585444 
L 539.93949 56.806285 
L 540.77263 56.712988 
L 541.60577 54.784459 
L 542.438909 56.056094 
L 543.272049 56.235379 
L 544.105189 56.180403 
L 544.938328 54.749488 
L 545.771468 49.386655 
L 546.604608 50.100059 
L 547.437747 49.146942 
L 548.270887 50.482028 
L 549.937166 47.597623 
L 551.603445 46.271421 
L 552.436585 45.594055 
L 553.269725 45.730361 
L 554.102864 47.579921 
L 554.936004 47.931404 
L 555.769144 48.925014 
L 556.602283 45.831445 
L 557.435423 45.148476 
L 558.268563 45.701501 
L 559.101702 45.837689 
L 559.934842 45.405028 
L 560.767982 43.740028 
L 561.601121 44.372626 
L 562.434261 44.021666 
L 563.267401 43.228473 
L 564.10054 41.225533 
L 564.93368 41.735916 
L 565.76682 42.924656 
L 566.599959 41.913702 
L 567.433099 42.225504 
L 568.266239 43.806997 
L 569.099378 44.80878 
L 569.932518 46.132555 
L 570.765657 45.279745 
L 571.598797 44.606761 
L 573.265076 46.084051 
L 574.098216 47.067871 
L 574.931356 49.223886 
L 575.764495 49.150744 
L 576.597635 46.98001 
L 577.430775 45.850984 
L 579.097054 47.444494 
L 579.930194 46.448804 
L 580.763333 48.573837 
L 581.596473 46.986038 
L 582.429613 45.155493 
L 583.262752 42.585102 
L 584.095892 41.00146 
L 584.929032 40.434398 
L 585.762171 41.563423 
L 586.595311 40.132975 
L 587.428451 39.295227 
L 588.26159 39.452384 
L 589.09473 37.952036 
L 589.92787 38.947045 
L 590.761009 39.065179 
L 591.594149 39.668759 
L 592.427288 40.027534 
L 593.260428 41.443798 
L 594.093568 41.268522 
L 594.926707 41.922826 
L 596.592987 44.693121 
L 597.426126 42.980875 
L 598.259266 42.701562 
L 599.092406 42.241412 
L 599.925545 42.497193 
L 600.758685 41.635933 
L 601.591825 39.918709 
L 602.424964 40.626873 
L 603.258104 39.095546 
L 604.091244 38.296152 
L 604.924383 37.161702 
L 605.757523 38.135948 
L 606.590663 38.017882 
L 607.423802 38.162947 
L 608.256942 37.984067 
L 609.923221 40.901224 
L 610.756361 39.657871 
L 611.589501 40.626199 
L 612.42264 39.462393 
L 613.25578 39.21974 
L 614.088919 40.937041 
L 614.922059 44.079944 
L 615.755199 44.773411 
L 616.588338 44.978363 
L 617.421478 44.76683 
L 618.254618 45.12406 
L 619.087757 44.848063 
L 619.920897 44.025845 
L 620.754037 44.37428 
L 621.587176 44.937028 
L 622.420316 43.68554 
L 623.253456 39.516563 
L 624.919735 37.379736 
L 625.752875 36.925159 
L 626.586014 35.629356 
L 628.252294 36.430471 
L 629.085433 37.815575 
L 629.918573 37.504984 
L 630.751713 36.386952 
L 631.584852 37.594911 
L 632.417992 39.605536 
L 633.251131 40.474411 
L 634.084271 40.743014 
L 634.917411 41.793099 
L 635.75055 41.847053 
L 636.58369 42.139617 
L 637.41683 41.316443 
L 638.249969 41.162798 
L 639.916249 42.933092 
L 640.749388 40.903764 
L 641.582528 40.328954 
L 642.415668 39.358266 
L 643.248807 39.326815 
L 644.081947 40.143298 
L 644.915087 39.492555 
L 646.581366 39.344798 
L 647.414506 38.745031 
L 648.247645 37.784102 
L 649.080785 37.608816 
L 649.913925 39.681762 
L 650.747064 39.941984 
L 651.580204 40.081053 
L 654.912762 38.913008 
L 655.745902 38.471305 
L 656.579042 37.478689 
L 657.412181 37.601041 
L 658.245321 35.813733 
L 659.078461 36.868117 
L 660.74474 35.298833 
L 661.57788 35.855856 
L 662.411019 35.655221 
L 663.244159 36.077314 
L 664.077299 37.626273 
L 665.743578 37.375467 
L 666.576718 37.922851 
L 667.409857 38.203593 
L 669.076137 36.590372 
L 669.909276 36.818277 
L 670.742416 37.504829 
L 672.408695 36.449797 
L 673.241835 38.44721 
L 674.074975 38.572315 
L 674.908114 37.433963 
L 675.741254 35.953695 
L 676.574393 37.657123 
L 677.407533 41.079077 
L 678.240673 39.40418 
L 679.073812 39.0068 
L 679.906952 39.610876 
L 680.740092 39.26096 
L 681.573231 37.412916 
L 682.406371 38.129414 
L 683.239511 39.19144 
L 684.07265 38.760844 
L 684.90579 36.597186 
L 685.73893 33.324601 
L 686.572069 36.557636 
L 687.405209 35.666547 
L 688.238349 35.511741 
L 689.071488 36.122137 
L 689.904628 37.68064 
L 690.737768 36.496169 
L 691.570907 35.576923 
L 692.404047 35.714113 
L 693.237187 36.79625 
L 694.070326 37.392734 
L 694.903466 35.325414 
L 695.736606 37.333179 
L 696.569745 36.734526 
L 697.402885 35.727863 
L 698.236024 34.024436 
L 699.069164 34.474769 
L 699.902304 36.52061 
L 700.735443 37.658632 
L 701.568583 36.732527 
L 702.401723 36.933162 
L 703.234862 36.529664 
L 704.068002 35.114176 
L 704.901142 35.41187 
L 705.734281 35.07175 
L 706.567421 36.635769 
L 707.400561 37.189158 
L 708.2337 36.152234 
L 709.06684 36.148953 
L 709.89998 37.557044 
L 710.733119 38.071709 
L 711.566259 38.76983 
L 712.399399 40.698446 
L 713.232538 40.098725 
L 714.065678 40.9782 
L 714.898818 41.523757 
L 716.565097 39.06853 
L 718.231376 38.33022 
L 719.064516 37.040976 
L 719.897655 36.614716 
L 720.730795 34.81972 
L 721.563935 36.310531 
L 722.397074 37.262263 
L 723.230214 36.454825 
L 724.063354 37.045895 
L 724.896493 38.112333 
L 725.729633 40.223029 
L 726.562773 40.337234 
L 727.395912 40.160952 
L 728.229052 39.126873 
L 729.062192 38.588516 
L 729.895331 37.549117 
L 730.728471 35.569599 
L 731.561611 34.989726 
L 732.39475 34.723165 
L 733.22789 33.963175 
L 734.06103 31.103338 
L 735.727309 32.05227 
L 736.560449 35.363528 
L 737.393588 35.614619 
L 738.226728 35.163208 
L 739.059867 35.620085 
L 739.893007 34.589151 
L 740.726147 34.278165 
L 741.559286 34.122157 
L 742.392426 34.122157 
L 743.225566 33.414472 
L 744.058705 33.707822 
L 744.891845 30.545947 
L 745.724985 30.400775 
L 746.558124 32.149796 
L 747.391264 32.720705 
L 748.224404 34.036888 
L 749.057543 33.869607 
L 749.890683 34.450936 
L 751.556962 33.805683 
L 752.390102 34.029703 
L 753.223242 34.038522 
L 754.056381 33.750495 
L 754.889521 32.894655 
L 755.722661 32.331459 
L 757.38894 32.331459 
L 758.22208 31.739182 
L 759.055219 31.428225 
L 759.888359 32.506777 
L 760.721498 32.119472 
L 761.554638 32.56753 
L 762.387778 32.870664 
L 763.220917 33.809484 
L 764.054057 33.994052 
L 764.887197 33.737723 
L 765.720336 36.18957 
L 766.553476 35.589848 
L 767.386616 37.889266 
L 768.219755 36.804241 
L 769.052895 38.642948 
L 769.886035 38.773013 
L 770.719174 38.788558 
L 771.552314 39.044994 
L 772.385454 38.555096 
L 773.218593 38.275457 
L 774.051733 36.268558 
L 774.884873 37.324045 
L 775.718012 36.196466 
L 776.551152 35.900902 
L 777.384292 34.21584 
L 779.050571 33.605783 
L 779.88371 32.581591 
L 780.71685 33.017778 
L 781.54999 33.317404 
L 782.383129 35.005779 
L 783.216269 34.101853 
L 784.049409 33.523209 
L 784.882548 33.532028 
L 785.715688 34.412632 
L 786.548828 36.522037 
L 787.381967 37.672553 
L 788.215107 37.548148 
L 789.048247 38.256962 
L 789.881386 37.63623 
L 790.714526 35.800601 
L 791.547666 35.951068 
L 792.380805 36.671836 
L 793.213945 36.667391 
L 794.880224 33.381133 
L 795.713364 32.372438 
L 796.546504 32.758216 
L 797.379643 32.493357 
L 798.212783 32.92104 
L 799.045923 33.101614 
L 799.879062 33.399308 
L 800.712202 32.396301 
L 801.545341 32.396301 
L 803.211621 32.109125 
L 804.04476 32.122167 
L 804.8779 32.275745 
L 805.71104 30.936495 
L 806.544179 31.234249 
L 807.377319 30.605514 
L 808.210459 30.307821 
L 809.876738 31.173661 
L 810.709878 32.056967 
L 811.543017 32.074356 
L 812.376157 31.770124 
L 813.209297 30.901597 
L 814.042436 31.349757 
L 814.875576 30.914331 
L 815.708716 31.214182 
L 816.541855 30.913273 
L 817.374995 31.058445 
L 818.208135 30.918713 
L 819.041274 29.880495 
L 821.540693 28.678182 
L 822.373833 29.125317 
L 823.206972 29.148469 
L 824.040112 28.999085 
L 824.873252 29.458197 
L 825.706391 29.024998 
L 826.539531 29.16473 
L 827.372671 30.202948 
L 828.20581 30.186166 
L 829.03895 30.790202 
L 829.87209 31.106804 
L 831.538369 30.047756 
L 832.371509 31.367006 
L 833.204648 33.763157 
L 834.037788 33.609414 
L 834.870928 34.677842 
L 835.704067 34.82195 
L 837.370347 34.219003 
L 838.203486 34.202222 
L 839.036626 33.743111 
L 839.869766 34.330052 
L 840.702905 33.632607 
L 841.536045 30.776226 
L 842.369185 31.804012 
L 843.202324 30.30714 
L 844.035464 29.279725 
L 844.868603 29.128172 
L 845.701743 29.579593 
L 846.534883 29.579593 
L 847.368022 30.178196 
L 848.201162 30.071619 
L 849.034302 29.301566 
L 849.867441 31.001107 
L 850.700581 30.430198 
L 851.533721 30.117022 
L 852.36686 29.959891 
L 852.36686 29.959891 
" clip-path="url(#p9886c5d7e5)" style="fill: none; stroke-dasharray: 7.4,3.2; stroke-dashoffset: 0; stroke: #000000; stroke-width: 2"/>
   </g>
   <g id="patch_3">
    <path d="M 35.89 404.12 
L 35.89 10.8 
" style="fill: none; stroke: #000000; stroke-width: 0.8; stroke-linejoin: miter; stroke-linecap: square"/>
   </g>
   <g id="patch_4">
    <path d="M 853.2 404.12 
L 853.2 10.8 
" style="fill: none; stroke: #000000; stroke-width: 0.8; stroke-linejoin: miter; stroke-linecap: square"/>
   </g>
   <g id="patch_5">
    <path d="M 35.89 404.12 
L 853.2 404.12 
" style="fill: none; stroke: #000000; stroke-width: 0.8; stroke-linejoin: miter; stroke-linecap: square"/>
   </g>
   <g id="patch_6">
    <path d="M 35.89 10.8 
L 853.2 10.8 
" style="fill: none; stroke: #000000; stroke-width: 0.8; stroke-linejoin: miter; stroke-linecap: square"/>
   </g>
  </g>
 </g>
 <defs>
  <clipPath id="p9886c5d7e5">
   <rect x="35.89" y="10.8" width="817.31" height="393.32"/>
  </clipPath>
 </defs>
</svg>
