<?xml version="1.0" encoding="utf-8" standalone="no"?>
<!DOCTYPE svg PUBLIC "-//W3C//DTD SVG 1.1//EN"
  "http://www.w3.org/Graphics/SVG/1.1/DTD/svg11.dtd">
<svg xmlns:xlink="http://www.w3.org/1999/xlink" width="864pt" height="432pt" viewBox="0 0 864 432" xmlns="http://www.w3.org/2000/svg" version="1.1">
 <metadata>
  <rdf:RDF xmlns:dc="http://purl.org/dc/elements/1.1/" xmlns:cc="http://creativecommons.org/ns#" xmlns:rdf="http://www.w3.org/1999/02/22-rdf-syntax-ns#">
   <cc:Work>
    <dc:type rdf:resource="http://purl.org/dc/dcmitype/StillImage"/>
    <dc:date>2024-09-18T17:52:42.352358</dc:date>
    <dc:format>image/svg+xml</dc:format>
    <dc:creator>
     <cc:Agent>
      <dc:title>Matplotlib v3.9.2, https://matplotlib.org/</dc:title>
     </cc:Agent>
    </dc:creator>
   </cc:Work>
  </rdf:RDF>
 </metadata>
 <defs>
  <style type="text/css">*{stroke-linejoin: round; stroke-linecap: butt}</style>
 </defs>
 <g id="figure_1">
  <g id="patch_1">
   <path d="M 0 432 
L 864 432 
L 864 0 
L 0 0 
z
" style="fill: #ffffff"/>
  </g>
  <g id="axes_1">
   <g id="patch_2">
    <path d="M 41.92 404.12 
L 853.2 404.12 
L 853.2 10.8 
L 41.92 10.8 
z
" style="fill: #ffffff"/>
   </g>
   <g id="matplotlib.axis_1">
    <g id="xtick_1">
     <g id="line2d_1">
      <defs>
       <path id="m4e33a39910" d="M 0 0 
L 0 3.5 
" style="stroke: #000000; stroke-width: 0.8"/>
      </defs>
      <g>
       <use xlink:href="#m4e33a39910" x="199.048644" y="404.12" style="stroke: #000000; stroke-width: 0.8"/>
      </g>
     </g>
     <g id="text_1">
      <!-- 200 -->
      <g transform="translate(190.018175 418.771563) scale(0.1 -0.1)">
       <defs>
        <path id="DejaVuSansMono-32" d="M 1166 531 
L 3309 531 
L 3309 0 
L 475 0 
L 475 531 
Q 1059 1147 1496 1619 
Q 1934 2091 2100 2284 
Q 2413 2666 2522 2902 
Q 2631 3138 2631 3384 
Q 2631 3775 2401 3997 
Q 2172 4219 1772 4219 
Q 1488 4219 1175 4116 
Q 863 4013 513 3803 
L 513 4441 
Q 834 4594 1145 4672 
Q 1456 4750 1759 4750 
Q 2444 4750 2861 4386 
Q 3278 4022 3278 3431 
Q 3278 3131 3139 2831 
Q 3000 2531 2688 2169 
Q 2513 1966 2180 1606 
Q 1847 1247 1166 531 
z
" transform="scale(0.015625)"/>
        <path id="DejaVuSansMono-30" d="M 1509 2344 
Q 1509 2516 1629 2641 
Q 1750 2766 1919 2766 
Q 2094 2766 2219 2641 
Q 2344 2516 2344 2344 
Q 2344 2169 2220 2047 
Q 2097 1925 1919 1925 
Q 1744 1925 1626 2044 
Q 1509 2163 1509 2344 
z
M 1925 4250 
Q 1484 4250 1267 3775 
Q 1050 3300 1050 2328 
Q 1050 1359 1267 884 
Q 1484 409 1925 409 
Q 2369 409 2586 884 
Q 2803 1359 2803 2328 
Q 2803 3300 2586 3775 
Q 2369 4250 1925 4250 
z
M 1925 4750 
Q 2672 4750 3055 4137 
Q 3438 3525 3438 2328 
Q 3438 1134 3055 521 
Q 2672 -91 1925 -91 
Q 1178 -91 797 521 
Q 416 1134 416 2328 
Q 416 3525 797 4137 
Q 1178 4750 1925 4750 
z
" transform="scale(0.015625)"/>
       </defs>
       <use xlink:href="#DejaVuSansMono-32"/>
       <use xlink:href="#DejaVuSansMono-30" x="60.205078"/>
       <use xlink:href="#DejaVuSansMono-30" x="120.410156"/>
      </g>
     </g>
    </g>
    <g id="xtick_2">
     <g id="line2d_2">
      <g>
       <use xlink:href="#m4e33a39910" x="364.447217" y="404.12" style="stroke: #000000; stroke-width: 0.8"/>
      </g>
     </g>
     <g id="text_2">
      <!-- 400 -->
      <g transform="translate(355.416748 418.771563) scale(0.1 -0.1)">
       <defs>
        <path id="DejaVuSansMono-34" d="M 2297 4091 
L 825 1625 
L 2297 1625 
L 2297 4091 
z
M 2194 4666 
L 2925 4666 
L 2925 1625 
L 3547 1625 
L 3547 1113 
L 2925 1113 
L 2925 0 
L 2297 0 
L 2297 1113 
L 319 1113 
L 319 1709 
L 2194 4666 
z
" transform="scale(0.015625)"/>
       </defs>
       <use xlink:href="#DejaVuSansMono-34"/>
       <use xlink:href="#DejaVuSansMono-30" x="60.205078"/>
       <use xlink:href="#DejaVuSansMono-30" x="120.410156"/>
      </g>
     </g>
    </g>
    <g id="xtick_3">
     <g id="line2d_3">
      <g>
       <use xlink:href="#m4e33a39910" x="529.84579" y="404.12" style="stroke: #000000; stroke-width: 0.8"/>
      </g>
     </g>
     <g id="text_3">
      <!-- 600 -->
      <g transform="translate(520.815321 418.771563) scale(0.1 -0.1)">
       <defs>
        <path id="DejaVuSansMono-36" d="M 3097 4563 
L 3097 3981 
Q 2900 4097 2678 4158 
Q 2456 4219 2216 4219 
Q 1616 4219 1306 3767 
Q 997 3316 997 2438 
Q 1147 2750 1412 2917 
Q 1678 3084 2022 3084 
Q 2697 3084 3067 2670 
Q 3438 2256 3438 1497 
Q 3438 741 3056 325 
Q 2675 -91 1984 -91 
Q 1172 -91 794 492 
Q 416 1075 416 2328 
Q 416 3509 870 4129 
Q 1325 4750 2188 4750 
Q 2419 4750 2650 4701 
Q 2881 4653 3097 4563 
z
M 1972 2591 
Q 1569 2591 1337 2300 
Q 1106 2009 1106 1497 
Q 1106 984 1337 693 
Q 1569 403 1972 403 
Q 2391 403 2603 679 
Q 2816 956 2816 1497 
Q 2816 2041 2603 2316 
Q 2391 2591 1972 2591 
z
" transform="scale(0.015625)"/>
       </defs>
       <use xlink:href="#DejaVuSansMono-36"/>
       <use xlink:href="#DejaVuSansMono-30" x="60.205078"/>
       <use xlink:href="#DejaVuSansMono-30" x="120.410156"/>
      </g>
     </g>
    </g>
    <g id="xtick_4">
     <g id="line2d_4">
      <g>
       <use xlink:href="#m4e33a39910" x="695.244363" y="404.12" style="stroke: #000000; stroke-width: 0.8"/>
      </g>
     </g>
     <g id="text_4">
      <!-- 800 -->
      <g transform="translate(686.213894 418.771563) scale(0.1 -0.1)">
       <defs>
        <path id="DejaVuSansMono-38" d="M 1925 2216 
Q 1503 2216 1273 1980 
Q 1044 1744 1044 1313 
Q 1044 881 1276 642 
Q 1509 403 1925 403 
Q 2350 403 2579 639 
Q 2809 875 2809 1313 
Q 2809 1741 2576 1978 
Q 2344 2216 1925 2216 
z
M 1375 2478 
Q 972 2581 745 2862 
Q 519 3144 519 3541 
Q 519 4097 897 4423 
Q 1275 4750 1925 4750 
Q 2578 4750 2956 4423 
Q 3334 4097 3334 3541 
Q 3334 3144 3107 2862 
Q 2881 2581 2478 2478 
Q 2947 2375 3195 2062 
Q 3444 1750 3444 1253 
Q 3444 622 3041 265 
Q 2638 -91 1925 -91 
Q 1213 -91 811 264 
Q 409 619 409 1247 
Q 409 1747 657 2061 
Q 906 2375 1375 2478 
z
M 1147 3481 
Q 1147 3106 1347 2909 
Q 1547 2713 1925 2713 
Q 2306 2713 2506 2909 
Q 2706 3106 2706 3481 
Q 2706 3863 2507 4063 
Q 2309 4263 1925 4263 
Q 1547 4263 1347 4061 
Q 1147 3859 1147 3481 
z
" transform="scale(0.015625)"/>
       </defs>
       <use xlink:href="#DejaVuSansMono-38"/>
       <use xlink:href="#DejaVuSansMono-30" x="60.205078"/>
       <use xlink:href="#DejaVuSansMono-30" x="120.410156"/>
      </g>
     </g>
    </g>
   </g>
   <g id="matplotlib.axis_2">
    <g id="ytick_1">
     <g id="line2d_5">
      <defs>
       <path id="m0fd8b7d7f5" d="M 0 0 
L -3.5 0 
" style="stroke: #000000; stroke-width: 0.8"/>
      </defs>
      <g>
       <use xlink:href="#m0fd8b7d7f5" x="41.92" y="393.11349" style="stroke: #000000; stroke-width: 0.8"/>
      </g>
     </g>
     <g id="text_5">
      <!-- 0.00 -->
      <g transform="translate(10.83875 396.939271) scale(0.1 -0.1)">
       <defs>
        <path id="DejaVuSansMono-2e" d="M 1528 953 
L 2316 953 
L 2316 0 
L 1528 0 
L 1528 953 
z
" transform="scale(0.015625)"/>
       </defs>
       <use xlink:href="#DejaVuSansMono-30"/>
       <use xlink:href="#DejaVuSansMono-2e" x="60.205078"/>
       <use xlink:href="#DejaVuSansMono-30" x="120.410156"/>
       <use xlink:href="#DejaVuSansMono-30" x="180.615234"/>
      </g>
     </g>
    </g>
    <g id="ytick_2">
     <g id="line2d_6">
      <g>
       <use xlink:href="#m0fd8b7d7f5" x="41.92" y="327.676117" style="stroke: #000000; stroke-width: 0.8"/>
      </g>
     </g>
     <g id="text_6">
      <!-- 0.02 -->
      <g transform="translate(10.83875 331.501898) scale(0.1 -0.1)">
       <use xlink:href="#DejaVuSansMono-30"/>
       <use xlink:href="#DejaVuSansMono-2e" x="60.205078"/>
       <use xlink:href="#DejaVuSansMono-30" x="120.410156"/>
       <use xlink:href="#DejaVuSansMono-32" x="180.615234"/>
      </g>
     </g>
    </g>
    <g id="ytick_3">
     <g id="line2d_7">
      <g>
       <use xlink:href="#m0fd8b7d7f5" x="41.92" y="262.238743" style="stroke: #000000; stroke-width: 0.8"/>
      </g>
     </g>
     <g id="text_7">
      <!-- 0.04 -->
      <g transform="translate(10.83875 266.064525) scale(0.1 -0.1)">
       <use xlink:href="#DejaVuSansMono-30"/>
       <use xlink:href="#DejaVuSansMono-2e" x="60.205078"/>
       <use xlink:href="#DejaVuSansMono-30" x="120.410156"/>
       <use xlink:href="#DejaVuSansMono-34" x="180.615234"/>
      </g>
     </g>
    </g>
    <g id="ytick_4">
     <g id="line2d_8">
      <g>
       <use xlink:href="#m0fd8b7d7f5" x="41.92" y="196.80137" style="stroke: #000000; stroke-width: 0.8"/>
      </g>
     </g>
     <g id="text_8">
      <!-- 0.06 -->
      <g transform="translate(10.83875 200.627151) scale(0.1 -0.1)">
       <use xlink:href="#DejaVuSansMono-30"/>
       <use xlink:href="#DejaVuSansMono-2e" x="60.205078"/>
       <use xlink:href="#DejaVuSansMono-30" x="120.410156"/>
       <use xlink:href="#DejaVuSansMono-36" x="180.615234"/>
      </g>
     </g>
    </g>
    <g id="ytick_5">
     <g id="line2d_9">
      <g>
       <use xlink:href="#m0fd8b7d7f5" x="41.92" y="131.363997" style="stroke: #000000; stroke-width: 0.8"/>
      </g>
     </g>
     <g id="text_9">
      <!-- 0.08 -->
      <g transform="translate(10.83875 135.189778) scale(0.1 -0.1)">
       <use xlink:href="#DejaVuSansMono-30"/>
       <use xlink:href="#DejaVuSansMono-2e" x="60.205078"/>
       <use xlink:href="#DejaVuSansMono-30" x="120.410156"/>
       <use xlink:href="#DejaVuSansMono-38" x="180.615234"/>
      </g>
     </g>
    </g>
    <g id="ytick_6">
     <g id="line2d_10">
      <g>
       <use xlink:href="#m0fd8b7d7f5" x="41.92" y="65.926624" style="stroke: #000000; stroke-width: 0.8"/>
      </g>
     </g>
     <g id="text_10">
      <!-- 0.10 -->
      <g transform="translate(10.83875 69.752405) scale(0.1 -0.1)">
       <defs>
        <path id="DejaVuSansMono-31" d="M 844 531 
L 1825 531 
L 1825 4097 
L 769 3859 
L 769 4434 
L 1819 4666 
L 2450 4666 
L 2450 531 
L 3419 531 
L 3419 0 
L 844 0 
L 844 531 
z
" transform="scale(0.015625)"/>
       </defs>
       <use xlink:href="#DejaVuSansMono-30"/>
       <use xlink:href="#DejaVuSansMono-2e" x="60.205078"/>
       <use xlink:href="#DejaVuSansMono-31" x="120.410156"/>
       <use xlink:href="#DejaVuSansMono-30" x="180.615234"/>
      </g>
     </g>
    </g>
   </g>
   <g id="line2d_11">
    <path d="M 33.650071 41.806591 
L 34.477064 28.678182 
L 35.304057 31.14698 
L 36.13105 47.440606 
L 36.958043 55.233422 
L 37.785036 56.355373 
L 38.612029 69.404797 
L 39.439021 74.993291 
L 40.266014 67.19463 
L 41.093007 75.069089 
L 41.92 89.635572 
L 42.746993 107.190361 
L 44.400979 123.082778 
L 45.227971 126.763247 
L 46.054964 116.928114 
L 46.881957 116.830831 
L 47.70895 117.250641 
L 48.535943 128.072506 
L 49.362936 126.578289 
L 50.189929 130.184701 
L 51.016922 135.743186 
L 51.843914 136.811164 
L 52.670907 139.019971 
L 53.4979 140.505547 
L 54.324893 151.497498 
L 55.151886 154.066487 
L 55.978879 146.918416 
L 56.805872 150.014772 
L 58.459857 145.870291 
L 59.28685 138.234412 
L 60.113843 141.308967 
L 60.940836 140.024212 
L 61.767829 137.813759 
L 62.594822 140.254373 
L 63.421814 141.102219 
L 64.248807 145.999344 
L 65.0758 142.623117 
L 65.902793 146.67847 
L 66.729786 149.236338 
L 67.556779 163.095744 
L 69.210765 166.703023 
L 70.037757 169.400678 
L 70.86475 168.691973 
L 71.691743 169.256247 
L 72.518736 171.077626 
L 73.345729 177.054272 
L 74.172722 175.966256 
L 75.826707 177.22666 
L 76.6537 175.152761 
L 77.480693 175.86222 
L 78.307686 173.541141 
L 79.134679 175.121898 
L 79.961672 173.792958 
L 80.788665 177.609117 
L 81.615657 179.582709 
L 82.44265 173.303674 
L 83.269643 174.44825 
L 84.096636 174.651601 
L 84.923629 171.332148 
L 85.750622 159.907255 
L 86.577615 163.747225 
L 87.404608 162.473495 
L 88.2316 159.941423 
L 89.058593 158.289722 
L 89.885586 157.588328 
L 90.712579 167.660164 
L 91.539572 165.763574 
L 92.366565 164.706067 
L 93.193558 170.175016 
L 94.02055 182.441877 
L 94.847543 180.247346 
L 95.674536 182.092337 
L 96.501529 187.745414 
L 97.328522 174.564294 
L 98.155515 173.90435 
L 98.982508 173.533632 
L 99.809501 171.677741 
L 100.636493 171.328333 
L 101.463486 169.137282 
L 102.290479 168.799992 
L 103.117472 170.882939 
L 103.944465 170.645065 
L 104.771458 167.90926 
L 105.598451 177.994255 
L 106.425443 179.511313 
L 107.252436 175.101115 
L 108.079429 178.882914 
L 108.906422 178.89304 
L 110.560408 181.677849 
L 111.387401 175.951714 
L 112.214393 176.148312 
L 113.868379 182.369434 
L 114.695372 180.57776 
L 115.522365 185.837254 
L 116.349358 185.867147 
L 117.176351 186.286497 
L 118.003344 186.079025 
L 118.830336 183.327748 
L 119.657329 189.849226 
L 120.484322 192.331032 
L 121.311315 192.580891 
L 122.138308 194.824621 
L 123.792294 197.812757 
L 124.619286 195.74329 
L 125.446279 195.121352 
L 126.273272 198.014139 
L 127.100265 198.645892 
L 127.927258 196.289562 
L 128.754251 195.565174 
L 129.581244 193.863449 
L 130.408236 195.083434 
L 131.235229 192.740552 
L 132.062222 191.661983 
L 133.716208 199.44738 
L 134.543201 199.958166 
L 135.370194 201.603401 
L 136.197187 202.80429 
L 137.024179 202.596955 
L 137.851172 205.251465 
L 138.678165 203.998992 
L 139.505158 205.867785 
L 140.332151 207.018074 
L 141.159144 207.252617 
L 141.986137 204.801573 
L 142.813129 197.664499 
L 143.640122 197.07467 
L 144.467115 198.666878 
L 145.294108 198.881998 
L 146.121101 196.386206 
L 146.948094 197.710144 
L 147.775087 199.469594 
L 148.60208 199.887502 
L 149.429072 197.900621 
L 150.256065 199.773091 
L 151.083058 206.723084 
L 151.910051 209.667721 
L 152.737044 212.111356 
L 153.564037 208.001376 
L 154.39103 209.943649 
L 155.218022 208.754405 
L 156.045015 209.573339 
L 156.872008 191.71844 
L 157.699001 193.301709 
L 158.525994 189.797335 
L 159.352987 191.170711 
L 160.17998 181.591157 
L 161.006972 176.967083 
L 161.833965 181.930508 
L 163.487951 180.34586 
L 164.314944 179.427497 
L 165.141937 197.984404 
L 165.96893 198.083177 
L 166.795923 199.957838 
L 167.622915 194.095605 
L 168.449908 195.956989 
L 169.276901 200.268827 
L 170.103894 200.134576 
L 170.930887 201.36776 
L 172.584873 205.752704 
L 173.411865 204.191065 
L 174.238858 204.891703 
L 175.065851 191.98892 
L 175.892844 198.180778 
L 176.719837 200.619004 
L 177.54683 198.42687 
L 178.373823 197.872892 
L 179.200815 199.179603 
L 180.027808 200.72351 
L 180.854801 199.28933 
L 181.681794 201.429776 
L 182.508787 201.830195 
L 183.33578 217.280346 
L 184.162773 217.225662 
L 184.989766 224.460743 
L 185.816758 224.067841 
L 186.643751 226.944204 
L 187.470744 225.190014 
L 188.297737 220.069108 
L 189.12473 218.159346 
L 189.951723 217.230377 
L 191.605708 221.860238 
L 192.432701 221.68809 
L 193.259694 219.182659 
L 194.086687 216.013639 
L 194.91368 215.428917 
L 195.740673 215.749582 
L 196.567666 221.562139 
L 197.394659 222.699542 
L 198.221651 223.543972 
L 199.048644 218.462639 
L 199.875637 218.304114 
L 200.70263 218.993429 
L 201.529623 218.848057 
L 202.356616 225.018237 
L 203.183609 226.032582 
L 204.010601 225.487607 
L 204.837594 226.373797 
L 205.664587 230.142245 
L 206.49158 231.893357 
L 207.318573 235.899074 
L 208.145566 236.684966 
L 208.972559 234.173524 
L 209.799551 235.18731 
L 210.626544 233.75074 
L 211.453537 232.989052 
L 212.28053 235.391146 
L 213.107523 235.405466 
L 213.934516 234.24201 
L 214.761509 233.339036 
L 215.588502 233.850755 
L 216.415494 231.779325 
L 217.242487 230.228597 
L 218.06948 229.927526 
L 218.896473 234.149196 
L 219.723466 232.825423 
L 221.377452 233.711725 
L 222.204444 234.47933 
L 223.031437 234.793962 
L 223.85843 234.258336 
L 224.685423 233.495274 
L 225.512416 237.695106 
L 226.339409 240.525106 
L 227.166402 237.444714 
L 227.993394 240.415941 
L 228.820387 239.696352 
L 229.64738 240.906885 
L 230.474373 241.683074 
L 231.301366 244.016495 
L 232.128359 242.486459 
L 232.955352 245.573547 
L 233.782345 247.794055 
L 234.609337 246.639691 
L 235.43633 244.838288 
L 236.263323 244.650341 
L 237.090316 248.323054 
L 237.917309 246.889694 
L 238.744302 247.369753 
L 239.571295 245.430199 
L 240.398287 250.044088 
L 241.22528 239.803541 
L 242.052273 236.045412 
L 242.879266 236.365289 
L 243.706259 240.33285 
L 244.533252 240.225237 
L 245.360245 240.808568 
L 247.01423 243.648356 
L 247.841223 245.916091 
L 248.668216 245.870353 
L 250.322202 256.843783 
L 251.976188 257.723201 
L 252.80318 258.88395 
L 253.630173 252.420562 
L 254.457166 252.985099 
L 255.284159 252.61342 
L 256.938145 250.912374 
L 257.765138 256.873287 
L 258.59213 256.024536 
L 259.419123 257.865471 
L 261.073109 258.43678 
L 261.900102 264.703362 
L 263.554088 265.697871 
L 264.381081 266.821764 
L 265.208073 268.187534 
L 266.035066 266.894604 
L 266.862059 267.227107 
L 267.689052 267.31351 
L 268.516045 268.134372 
L 269.343038 269.565607 
L 270.170031 269.664054 
L 270.997023 266.580854 
L 271.824016 267.019028 
L 272.651009 265.788295 
L 273.478002 266.955957 
L 274.304995 267.865861 
L 275.131988 265.817313 
L 275.958981 266.560806 
L 276.785973 268.163412 
L 277.612966 269.089193 
L 278.439959 269.526741 
L 279.266952 271.791598 
L 280.093945 270.74685 
L 280.920938 271.782602 
L 281.747931 270.542106 
L 282.574924 271.559243 
L 283.401916 271.563036 
L 284.228909 271.812126 
L 285.055902 271.08982 
L 285.882895 264.842043 
L 286.709888 265.309576 
L 287.536881 267.589782 
L 288.363874 265.642793 
L 289.190866 268.788402 
L 290.017859 271.401275 
L 290.844852 273.320217 
L 291.671845 277.811307 
L 292.498838 277.846219 
L 293.325831 278.029892 
L 294.152824 283.634808 
L 294.979817 282.528305 
L 295.806809 284.469084 
L 296.633802 286.713841 
L 297.460795 286.687518 
L 298.287788 287.811328 
L 299.114781 287.746008 
L 299.941774 287.324985 
L 300.768767 287.711099 
L 301.595759 288.849973 
L 302.422752 291.376254 
L 303.249745 293.139417 
L 304.076738 292.479917 
L 304.903731 295.54147 
L 305.730724 296.059749 
L 306.557717 292.314079 
L 307.384709 291.933125 
L 308.211702 293.24525 
L 309.038695 295.166549 
L 309.865688 296.167834 
L 310.692681 295.498828 
L 311.519674 295.461066 
L 313.17366 294.533983 
L 314.000652 295.549184 
L 314.827645 300.595219 
L 315.654638 301.015154 
L 316.481631 301.840629 
L 317.308624 303.132647 
L 318.135617 303.732378 
L 318.96261 302.637374 
L 319.789602 303.917417 
L 320.616595 305.530632 
L 321.443588 308.128791 
L 322.270581 306.645857 
L 323.097574 307.279994 
L 323.924567 309.907089 
L 324.75156 306.970073 
L 326.405545 309.710038 
L 327.232538 313.242124 
L 328.059531 313.577911 
L 328.886524 312.929528 
L 329.713517 311.810264 
L 330.54051 313.332541 
L 331.367503 307.900633 
L 332.194495 305.864356 
L 333.021488 310.629505 
L 333.848481 308.816515 
L 334.675474 308.166139 
L 335.502467 308.343159 
L 336.32946 309.038857 
L 337.156453 308.978468 
L 337.983445 310.547877 
L 338.810438 310.748665 
L 340.464424 317.500091 
L 341.291417 316.578986 
L 342.11841 318.37945 
L 342.945403 318.641669 
L 343.772396 318.182979 
L 344.599388 319.5686 
L 345.426381 321.675987 
L 346.253374 318.602208 
L 347.90736 319.856168 
L 348.734353 318.745769 
L 349.561346 316.889588 
L 350.388338 317.248109 
L 351.215331 315.962537 
L 352.869317 314.274438 
L 353.69631 313.719266 
L 354.523303 314.55263 
L 355.350296 316.123922 
L 356.177288 318.711333 
L 357.004281 318.378544 
L 357.831274 319.541753 
L 358.658267 317.919999 
L 359.48526 321.720921 
L 360.312253 323.599098 
L 361.139246 324.777356 
L 361.966239 323.719142 
L 362.793231 326.997015 
L 363.620224 326.933832 
L 364.447217 326.69296 
L 365.27421 328.868641 
L 366.101203 329.777681 
L 366.928196 330.882884 
L 367.755189 327.196241 
L 368.582181 325.574159 
L 370.236167 327.849465 
L 371.06316 328.471751 
L 371.890153 324.841052 
L 372.717146 325.783878 
L 373.544139 325.696993 
L 374.371131 326.747779 
L 375.198124 325.993166 
L 376.85211 333.153456 
L 377.679103 332.312794 
L 378.506096 333.190732 
L 379.333089 334.45641 
L 380.160082 336.616041 
L 380.987074 336.352798 
L 381.814067 334.985945 
L 382.64106 335.162625 
L 383.468053 335.656892 
L 384.295046 335.644984 
L 385.122039 335.751034 
L 385.949032 335.375392 
L 386.776024 336.801303 
L 387.603017 335.832668 
L 388.43001 337.948795 
L 389.257003 338.709371 
L 390.910989 342.036544 
L 391.737982 341.772491 
L 392.564975 341.240814 
L 393.391967 339.848732 
L 394.21896 342.017108 
L 395.045953 340.433768 
L 395.872946 340.557517 
L 396.699939 341.290069 
L 397.526932 340.518176 
L 398.353925 340.395366 
L 399.180917 339.284731 
L 400.00791 340.705288 
L 400.834903 342.86624 
L 401.661896 344.044593 
L 402.488889 341.022116 
L 403.315882 343.188241 
L 404.142875 342.53489 
L 404.969867 342.217259 
L 405.79686 342.599722 
L 406.623853 341.467662 
L 407.450846 342.285357 
L 408.277839 344.447491 
L 409.104832 343.917956 
L 409.931825 342.724469 
L 410.758818 346.610232 
L 411.58581 347.745617 
L 412.412803 349.087883 
L 413.239796 350.088055 
L 414.066789 349.762611 
L 414.893782 351.661568 
L 415.720775 352.389648 
L 416.547768 349.226748 
L 417.37476 348.718287 
L 418.201753 351.576013 
L 419.028746 347.130078 
L 419.855739 344.884963 
L 420.682732 344.11123 
L 421.509725 343.497719 
L 422.336718 342.378692 
L 423.16371 341.974387 
L 423.990703 342.517298 
L 424.817696 345.096261 
L 425.644689 347.13066 
L 426.471682 346.687867 
L 427.298675 351.268689 
L 428.125668 353.403243 
L 428.952661 354.301053 
L 429.779653 354.919778 
L 430.606646 358.684361 
L 431.433639 360.564725 
L 432.260632 360.210698 
L 433.087625 360.207144 
L 433.914618 358.78106 
L 434.741611 359.571689 
L 435.568603 357.963383 
L 437.222589 357.776888 
L 438.049582 357.256589 
L 438.876575 356.188073 
L 439.703568 356.001406 
L 440.530561 355.310999 
L 441.357554 355.904709 
L 442.184546 356.982766 
L 443.011539 354.196449 
L 443.838532 356.165842 
L 444.665525 356.798488 
L 445.492518 356.684154 
L 447.146504 357.541193 
L 449.627482 360.555824 
L 450.454475 359.671031 
L 451.281468 362.230795 
L 452.108461 361.366392 
L 452.935454 359.950863 
L 454.589439 360.142956 
L 455.416432 357.530267 
L 456.243425 355.562357 
L 457.070418 354.764064 
L 457.897411 354.498819 
L 458.724404 354.758126 
L 459.551397 354.236508 
L 460.378389 352.219109 
L 461.205382 352.959828 
L 462.032375 352.540305 
L 462.859368 352.394468 
L 463.686361 353.775722 
L 464.513354 353.901711 
L 465.340347 355.32126 
L 466.167339 354.909751 
L 466.994332 355.800412 
L 467.821325 355.390758 
L 468.648318 357.328383 
L 469.475311 357.237329 
L 470.302304 359.358599 
L 471.129297 360.283356 
L 471.95629 362.326122 
L 472.783282 363.057788 
L 473.610275 361.466285 
L 474.437268 360.247328 
L 475.264261 361.035385 
L 476.091254 361.038633 
L 476.918247 361.158347 
L 477.74524 361.560022 
L 478.572232 360.327587 
L 479.399225 360.930359 
L 480.226218 360.465747 
L 481.053211 360.794442 
L 481.880204 361.929608 
L 482.707197 363.731317 
L 483.53419 363.365178 
L 484.361182 363.596652 
L 485.188175 363.557647 
L 486.015168 364.12278 
L 486.842161 365.987628 
L 487.669154 366.265775 
L 488.496147 366.410204 
L 489.32314 366.98509 
L 490.150133 365.52087 
L 490.977125 366.238643 
L 492.631111 368.234239 
L 493.458104 369.485625 
L 494.285097 370.02038 
L 495.11209 369.415481 
L 495.939083 369.038644 
L 496.766075 368.432002 
L 497.593068 367.310727 
L 498.420061 369.420706 
L 499.247054 367.747026 
L 500.074047 366.805931 
L 500.90104 367.164741 
L 501.728033 367.822202 
L 502.555025 367.655472 
L 503.382018 366.844919 
L 504.209011 366.633602 
L 505.036004 367.150782 
L 505.862997 369.154814 
L 507.516983 369.549436 
L 508.343976 368.390138 
L 509.997961 367.623217 
L 510.824954 367.463689 
L 511.651947 368.032571 
L 512.47894 367.988894 
L 513.305933 367.137161 
L 514.132926 366.909782 
L 514.959918 367.018449 
L 515.786911 367.908455 
L 516.613904 369.146699 
L 517.440897 368.998935 
L 519.094883 366.703338 
L 520.748869 367.628671 
L 521.575861 369.656104 
L 522.402854 369.988519 
L 523.229847 366.07053 
L 524.05684 365.922077 
L 524.883833 366.062234 
L 525.710826 366.958119 
L 526.537819 367.320583 
L 527.364811 368.853734 
L 528.191804 368.514867 
L 529.018797 368.544791 
L 530.672783 367.990413 
L 531.499776 370.905005 
L 532.326769 370.312456 
L 533.153761 369.284883 
L 533.980754 369.43225 
L 534.807747 369.137422 
L 535.63474 367.54061 
L 536.461733 368.151539 
L 538.115719 366.802234 
L 538.942712 366.811511 
L 539.769704 365.834049 
L 540.596697 367.13502 
L 541.42369 368.112898 
L 542.250683 367.421931 
L 543.904669 369.488792 
L 544.731662 368.875416 
L 545.558654 369.571462 
L 546.385647 369.443354 
L 547.21264 370.079569 
L 548.039633 372.506928 
L 548.866626 372.142612 
L 549.693619 372.627149 
L 550.520612 371.131709 
L 551.347604 370.811582 
L 553.00159 371.776887 
L 553.828583 371.757905 
L 555.482569 372.017884 
L 556.309562 371.33751 
L 557.136555 371.295269 
L 557.963547 371.077572 
L 558.79054 372.860949 
L 559.617533 374.197144 
L 560.444526 374.18366 
L 561.271519 374.617094 
L 562.098512 374.419469 
L 562.925505 375.731917 
L 564.57949 373.608804 
L 565.406483 373.475012 
L 566.233476 373.778916 
L 567.060469 374.496101 
L 567.887462 373.910382 
L 568.714455 374.201746 
L 569.541448 373.44607 
L 571.195433 373.098504 
L 572.022426 373.356198 
L 572.849419 374.67884 
L 574.503405 375.521302 
L 575.330398 374.20275 
L 576.984383 373.275015 
L 577.811376 373.396047 
L 578.638369 374.345968 
L 579.465362 374.20017 
L 580.292355 372.560614 
L 581.119348 372.901226 
L 581.94634 373.109115 
L 582.773333 371.404894 
L 583.600326 372.572711 
L 584.427319 373.238996 
L 585.254312 373.666142 
L 586.081305 373.96798 
L 587.735291 374.249306 
L 588.562283 376.229014 
L 589.389276 376.430509 
L 590.216269 376.298613 
L 591.043262 377.876985 
L 592.697248 377.819577 
L 593.524241 377.651985 
L 594.351233 378.085288 
L 595.178226 377.498035 
L 596.005219 376.090717 
L 596.832212 375.899116 
L 597.659205 375.474637 
L 599.313191 375.70726 
L 600.140183 376.025019 
L 600.967176 376.521226 
L 602.621162 376.630191 
L 603.448155 377.036547 
L 604.275148 378.027448 
L 605.102141 378.381552 
L 605.929134 377.448344 
L 606.756126 377.547334 
L 607.583119 376.461644 
L 608.410112 375.813889 
L 609.237105 375.492506 
L 610.064098 375.536285 
L 610.891091 375.313264 
L 611.718084 374.404548 
L 612.545076 375.109314 
L 613.372069 374.711505 
L 614.199062 376.345588 
L 615.026055 376.090322 
L 615.853048 376.34892 
L 616.680041 375.613172 
L 617.507034 375.453845 
L 618.334027 374.920869 
L 619.161019 375.047552 
L 619.988012 375.499637 
L 620.815005 375.057415 
L 621.641998 375.540146 
L 622.468991 374.71611 
L 623.295984 375.04953 
L 624.122977 375.179921 
L 624.949969 376.30375 
L 625.776962 376.511011 
L 626.603955 377.305237 
L 627.430948 377.529055 
L 628.257941 378.102836 
L 629.911927 378.480373 
L 630.738919 378.401181 
L 631.565912 378.682043 
L 632.392905 379.301231 
L 633.219898 378.73835 
L 634.873884 378.84831 
L 635.700877 378.566258 
L 636.52787 377.974675 
L 637.354862 377.727704 
L 638.181855 377.257404 
L 639.008848 377.776497 
L 639.835841 377.622142 
L 642.31682 378.349224 
L 643.143812 378.2177 
L 644.797798 377.184867 
L 647.278777 376.71267 
L 648.932762 376.653976 
L 649.759755 377.267464 
L 650.586748 377.344007 
L 651.413741 377.003237 
L 653.067727 378.640801 
L 653.89472 378.67858 
L 654.721713 379.24306 
L 656.375698 379.406784 
L 657.202691 379.837526 
L 658.029684 379.959541 
L 658.856677 379.858354 
L 659.68367 380.269868 
L 660.510663 379.798468 
L 661.337655 380.126083 
L 662.164648 380.577792 
L 662.991641 380.485901 
L 663.818634 380.734119 
L 664.645627 380.655904 
L 665.47262 379.478949 
L 666.299613 379.698152 
L 667.126606 379.669945 
L 667.953598 380.063779 
L 668.780591 379.535784 
L 669.607584 379.691034 
L 670.434577 380.217373 
L 672.088563 379.860564 
L 673.742548 380.590022 
L 674.569541 379.79602 
L 675.396534 379.950187 
L 676.223527 379.684877 
L 677.05052 380.682749 
L 677.877513 379.99624 
L 678.704506 376.241371 
L 679.531498 376.886891 
L 680.358491 376.784446 
L 681.185484 376.431223 
L 682.012477 376.929866 
L 682.83947 377.289145 
L 683.666463 377.089448 
L 684.493456 376.692722 
L 685.320449 376.952877 
L 686.147441 378.222959 
L 686.974434 381.755754 
L 687.801427 380.642997 
L 688.62842 381.099735 
L 689.455413 381.12631 
L 690.282406 380.508494 
L 691.109399 380.2189 
L 692.763384 381.910649 
L 693.590377 382.095554 
L 694.41737 381.181323 
L 695.244363 381.180712 
L 696.071356 381.911394 
L 696.898349 381.008512 
L 697.725341 381.368683 
L 698.552334 381.561879 
L 699.379327 382.350463 
L 700.20632 381.968965 
L 701.033313 380.016603 
L 701.860306 378.751227 
L 702.687299 379.434666 
L 703.514292 378.646561 
L 704.341284 378.819021 
L 705.168277 379.524538 
L 705.99527 379.494823 
L 706.822263 380.368816 
L 707.649256 378.41733 
L 708.476249 378.27904 
L 709.303242 379.839732 
L 710.130234 380.45955 
L 710.957227 379.049752 
L 711.78422 379.267858 
L 712.611213 378.943093 
L 713.438206 378.471954 
L 714.265199 378.688671 
L 715.092192 378.118018 
L 715.919185 379.085547 
L 717.57317 379.883307 
L 718.400163 379.867767 
L 719.227156 380.688731 
L 720.054149 381.009057 
L 721.708135 382.272701 
L 722.535127 381.846357 
L 723.36212 380.266393 
L 724.189113 380.918733 
L 725.016106 380.794546 
L 725.843099 380.189685 
L 726.670092 378.99921 
L 727.497085 379.391809 
L 728.324077 379.952821 
L 729.15107 380.226424 
L 729.978063 379.740308 
L 730.805056 379.886942 
L 731.632049 381.82705 
L 733.286035 382.02587 
L 734.113028 382.553269 
L 734.94002 384.126567 
L 735.767013 383.628938 
L 736.594006 383.442592 
L 737.420999 381.918207 
L 738.247992 382.145667 
L 739.074985 382.617013 
L 739.901978 382.285963 
L 740.72897 382.693332 
L 741.555963 382.275977 
L 743.209949 382.280348 
L 744.863935 381.564304 
L 745.690928 382.898969 
L 746.51792 383.343839 
L 747.344913 382.515846 
L 748.171906 382.504531 
L 748.998899 382.091284 
L 749.825892 382.68093 
L 750.652885 382.483696 
L 751.479878 382.704496 
L 752.306871 383.764847 
L 753.133863 383.079543 
L 754.787849 382.91564 
L 755.614842 383.317373 
L 756.441835 383.260576 
L 757.268828 383.007848 
L 758.095821 382.96627 
L 758.922813 383.359098 
L 759.749806 383.360079 
L 760.576799 382.425398 
L 761.403792 383.433074 
L 763.057778 383.536072 
L 764.711764 382.746687 
L 765.538756 382.861449 
L 766.365749 380.437024 
L 767.192742 380.697939 
L 768.019735 379.622924 
L 768.846728 380.58456 
L 769.673721 379.486752 
L 770.500714 379.481284 
L 771.327706 378.830546 
L 772.154699 378.457437 
L 772.981692 379.118624 
L 773.808685 378.552383 
L 774.635678 381.05002 
L 775.462671 380.316122 
L 776.289664 381.280363 
L 777.116656 381.499421 
L 777.943649 382.429219 
L 778.770642 382.40179 
L 779.597635 383.352308 
L 780.424628 383.949685 
L 782.078614 384.221973 
L 782.905607 382.983811 
L 783.732599 383.732567 
L 785.386585 383.541497 
L 786.213578 382.972362 
L 787.867564 380.378193 
L 788.694557 380.228687 
L 789.521549 379.332836 
L 791.175535 380.917595 
L 792.002528 380.788449 
L 793.656514 380.34764 
L 794.483507 381.137435 
L 796.137492 383.399555 
L 797.791478 384.341995 
L 798.618471 384.291192 
L 799.445464 383.800627 
L 801.09945 383.653287 
L 801.926442 383.892974 
L 802.753435 384.005955 
L 803.580428 384.273121 
L 804.407421 384.137801 
L 805.234414 383.796881 
L 806.061407 384.28066 
L 806.8884 383.948343 
L 807.715392 384.999708 
L 808.542385 385.154542 
L 809.369378 385.488793 
L 811.023364 384.871405 
L 811.850357 384.800636 
L 812.67735 384.980847 
L 813.504343 385.406448 
L 815.158328 385.540737 
L 815.985321 385.243942 
L 816.812314 385.181599 
L 817.639307 385.258425 
L 818.4663 385.51225 
L 819.293293 385.892955 
L 820.120285 385.432637 
L 820.947278 385.578817 
L 821.774271 385.481481 
L 822.601264 385.1143 
L 823.428257 384.991185 
L 824.25525 385.221252 
L 825.909235 384.548011 
L 827.563221 384.171433 
L 828.390214 384.47321 
L 829.217207 384.325983 
L 830.0442 384.36921 
L 830.871193 384.573352 
L 831.698186 385.071109 
L 833.352171 383.236443 
L 834.179164 383.684778 
L 835.006157 383.064648 
L 835.83315 382.800272 
L 836.660143 383.342172 
L 837.487136 383.656561 
L 838.314128 383.537715 
L 839.141121 383.816294 
L 839.968114 383.527488 
L 840.795107 383.550081 
L 841.6221 384.872049 
L 842.449093 384.538446 
L 843.276086 385.472636 
L 844.103078 385.899701 
L 844.930071 385.756892 
L 845.757064 385.432148 
L 846.584057 385.623513 
L 848.238043 385.300132 
L 849.065036 386.241818 
L 849.892029 385.104435 
L 850.719021 385.296451 
L 851.546014 385.218338 
L 852.373007 385.507815 
L 852.373007 385.507815 
" clip-path="url(#p80ffc4978a)" style="fill: none; stroke-dasharray: 7.4,3.2; stroke-dashoffset: 0; stroke: #000000; stroke-width: 2"/>
   </g>
   <g id="patch_3">
    <path d="M 41.92 404.12 
L 41.92 10.8 
" style="fill: none; stroke: #000000; stroke-width: 0.8; stroke-linejoin: miter; stroke-linecap: square"/>
   </g>
   <g id="patch_4">
    <path d="M 853.2 404.12 
L 853.2 10.8 
" style="fill: none; stroke: #000000; stroke-width: 0.8; stroke-linejoin: miter; stroke-linecap: square"/>
   </g>
   <g id="patch_5">
    <path d="M 41.92 404.12 
L 853.2 404.12 
" style="fill: none; stroke: #000000; stroke-width: 0.8; stroke-linejoin: miter; stroke-linecap: square"/>
   </g>
   <g id="patch_6">
    <path d="M 41.92 10.8 
L 853.2 10.8 
" style="fill: none; stroke: #000000; stroke-width: 0.8; stroke-linejoin: miter; stroke-linecap: square"/>
   </g>
  </g>
 </g>
 <defs>
  <clipPath id="p80ffc4978a">
   <rect x="41.92" y="10.8" width="811.28" height="393.32"/>
  </clipPath>
 </defs>
</svg>
