<?xml version="1.0" encoding="utf-8" standalone="no"?>
<!DOCTYPE svg PUBLIC "-//W3C//DTD SVG 1.1//EN"
  "http://www.w3.org/Graphics/SVG/1.1/DTD/svg11.dtd">
<svg xmlns:xlink="http://www.w3.org/1999/xlink" width="864pt" height="432pt" viewBox="0 0 864 432" xmlns="http://www.w3.org/2000/svg" version="1.1">
 <metadata>
  <rdf:RDF xmlns:dc="http://purl.org/dc/elements/1.1/" xmlns:cc="http://creativecommons.org/ns#" xmlns:rdf="http://www.w3.org/1999/02/22-rdf-syntax-ns#">
   <cc:Work>
    <dc:type rdf:resource="http://purl.org/dc/dcmitype/StillImage"/>
    <dc:date>2024-09-18T14:07:14.400532</dc:date>
    <dc:format>image/svg+xml</dc:format>
    <dc:creator>
     <cc:Agent>
      <dc:title>Matplotlib v3.9.2, https://matplotlib.org/</dc:title>
     </cc:Agent>
    </dc:creator>
   </cc:Work>
  </rdf:RDF>
 </metadata>
 <defs>
  <style type="text/css">*{stroke-linejoin: round; stroke-linecap: butt}</style>
 </defs>
 <g id="figure_1">
  <g id="patch_1">
   <path d="M 0 432 
L 864 432 
L 864 0 
L 0 0 
z
" style="fill: #ffffff"/>
  </g>
  <g id="axes_1">
   <g id="patch_2">
    <path d="M 35.89 404.12 
L 853.2 404.12 
L 853.2 10.8 
L 35.89 10.8 
z
" style="fill: #ffffff"/>
   </g>
   <g id="matplotlib.axis_1">
    <g id="xtick_1">
     <g id="line2d_1">
      <defs>
       <path id="mbdd3875d65" d="M 0 0 
L 0 3.5 
" style="stroke: #000000; stroke-width: 0.8"/>
      </defs>
      <g>
       <use xlink:href="#mbdd3875d65" x="194.186534" y="404.12" style="stroke: #000000; stroke-width: 0.8"/>
      </g>
     </g>
     <g id="text_1">
      <!-- 200 -->
      <g transform="translate(185.156065 418.771563) scale(0.1 -0.1)">
       <defs>
        <path id="DejaVuSansMono-32" d="M 1166 531 
L 3309 531 
L 3309 0 
L 475 0 
L 475 531 
Q 1059 1147 1496 1619 
Q 1934 2091 2100 2284 
Q 2413 2666 2522 2902 
Q 2631 3138 2631 3384 
Q 2631 3775 2401 3997 
Q 2172 4219 1772 4219 
Q 1488 4219 1175 4116 
Q 863 4013 513 3803 
L 513 4441 
Q 834 4594 1145 4672 
Q 1456 4750 1759 4750 
Q 2444 4750 2861 4386 
Q 3278 4022 3278 3431 
Q 3278 3131 3139 2831 
Q 3000 2531 2688 2169 
Q 2513 1966 2180 1606 
Q 1847 1247 1166 531 
z
" transform="scale(0.015625)"/>
        <path id="DejaVuSansMono-30" d="M 1509 2344 
Q 1509 2516 1629 2641 
Q 1750 2766 1919 2766 
Q 2094 2766 2219 2641 
Q 2344 2516 2344 2344 
Q 2344 2169 2220 2047 
Q 2097 1925 1919 1925 
Q 1744 1925 1626 2044 
Q 1509 2163 1509 2344 
z
M 1925 4250 
Q 1484 4250 1267 3775 
Q 1050 3300 1050 2328 
Q 1050 1359 1267 884 
Q 1484 409 1925 409 
Q 2369 409 2586 884 
Q 2803 1359 2803 2328 
Q 2803 3300 2586 3775 
Q 2369 4250 1925 4250 
z
M 1925 4750 
Q 2672 4750 3055 4137 
Q 3438 3525 3438 2328 
Q 3438 1134 3055 521 
Q 2672 -91 1925 -91 
Q 1178 -91 797 521 
Q 416 1134 416 2328 
Q 416 3525 797 4137 
Q 1178 4750 1925 4750 
z
" transform="scale(0.015625)"/>
       </defs>
       <use xlink:href="#DejaVuSansMono-32"/>
       <use xlink:href="#DejaVuSansMono-30" x="60.205078"/>
       <use xlink:href="#DejaVuSansMono-30" x="120.410156"/>
      </g>
     </g>
    </g>
    <g id="xtick_2">
     <g id="line2d_2">
      <g>
       <use xlink:href="#mbdd3875d65" x="360.814465" y="404.12" style="stroke: #000000; stroke-width: 0.8"/>
      </g>
     </g>
     <g id="text_2">
      <!-- 400 -->
      <g transform="translate(351.783996 418.771563) scale(0.1 -0.1)">
       <defs>
        <path id="DejaVuSansMono-34" d="M 2297 4091 
L 825 1625 
L 2297 1625 
L 2297 4091 
z
M 2194 4666 
L 2925 4666 
L 2925 1625 
L 3547 1625 
L 3547 1113 
L 2925 1113 
L 2925 0 
L 2297 0 
L 2297 1113 
L 319 1113 
L 319 1709 
L 2194 4666 
z
" transform="scale(0.015625)"/>
       </defs>
       <use xlink:href="#DejaVuSansMono-34"/>
       <use xlink:href="#DejaVuSansMono-30" x="60.205078"/>
       <use xlink:href="#DejaVuSansMono-30" x="120.410156"/>
      </g>
     </g>
    </g>
    <g id="xtick_3">
     <g id="line2d_3">
      <g>
       <use xlink:href="#mbdd3875d65" x="527.442396" y="404.12" style="stroke: #000000; stroke-width: 0.8"/>
      </g>
     </g>
     <g id="text_3">
      <!-- 600 -->
      <g transform="translate(518.411927 418.771563) scale(0.1 -0.1)">
       <defs>
        <path id="DejaVuSansMono-36" d="M 3097 4563 
L 3097 3981 
Q 2900 4097 2678 4158 
Q 2456 4219 2216 4219 
Q 1616 4219 1306 3767 
Q 997 3316 997 2438 
Q 1147 2750 1412 2917 
Q 1678 3084 2022 3084 
Q 2697 3084 3067 2670 
Q 3438 2256 3438 1497 
Q 3438 741 3056 325 
Q 2675 -91 1984 -91 
Q 1172 -91 794 492 
Q 416 1075 416 2328 
Q 416 3509 870 4129 
Q 1325 4750 2188 4750 
Q 2419 4750 2650 4701 
Q 2881 4653 3097 4563 
z
M 1972 2591 
Q 1569 2591 1337 2300 
Q 1106 2009 1106 1497 
Q 1106 984 1337 693 
Q 1569 403 1972 403 
Q 2391 403 2603 679 
Q 2816 956 2816 1497 
Q 2816 2041 2603 2316 
Q 2391 2591 1972 2591 
z
" transform="scale(0.015625)"/>
       </defs>
       <use xlink:href="#DejaVuSansMono-36"/>
       <use xlink:href="#DejaVuSansMono-30" x="60.205078"/>
       <use xlink:href="#DejaVuSansMono-30" x="120.410156"/>
      </g>
     </g>
    </g>
    <g id="xtick_4">
     <g id="line2d_4">
      <g>
       <use xlink:href="#mbdd3875d65" x="694.070326" y="404.12" style="stroke: #000000; stroke-width: 0.8"/>
      </g>
     </g>
     <g id="text_4">
      <!-- 800 -->
      <g transform="translate(685.039857 418.771563) scale(0.1 -0.1)">
       <defs>
        <path id="DejaVuSansMono-38" d="M 1925 2216 
Q 1503 2216 1273 1980 
Q 1044 1744 1044 1313 
Q 1044 881 1276 642 
Q 1509 403 1925 403 
Q 2350 403 2579 639 
Q 2809 875 2809 1313 
Q 2809 1741 2576 1978 
Q 2344 2216 1925 2216 
z
M 1375 2478 
Q 972 2581 745 2862 
Q 519 3144 519 3541 
Q 519 4097 897 4423 
Q 1275 4750 1925 4750 
Q 2578 4750 2956 4423 
Q 3334 4097 3334 3541 
Q 3334 3144 3107 2862 
Q 2881 2581 2478 2478 
Q 2947 2375 3195 2062 
Q 3444 1750 3444 1253 
Q 3444 622 3041 265 
Q 2638 -91 1925 -91 
Q 1213 -91 811 264 
Q 409 619 409 1247 
Q 409 1747 657 2061 
Q 906 2375 1375 2478 
z
M 1147 3481 
Q 1147 3106 1347 2909 
Q 1547 2713 1925 2713 
Q 2306 2713 2506 2909 
Q 2706 3106 2706 3481 
Q 2706 3863 2507 4063 
Q 2309 4263 1925 4263 
Q 1547 4263 1347 4061 
Q 1147 3859 1147 3481 
z
" transform="scale(0.015625)"/>
       </defs>
       <use xlink:href="#DejaVuSansMono-38"/>
       <use xlink:href="#DejaVuSansMono-30" x="60.205078"/>
       <use xlink:href="#DejaVuSansMono-30" x="120.410156"/>
      </g>
     </g>
    </g>
   </g>
   <g id="matplotlib.axis_2">
    <g id="ytick_1">
     <g id="line2d_5">
      <defs>
       <path id="m5b39c55f41" d="M 0 0 
L -3.5 0 
" style="stroke: #000000; stroke-width: 0.8"/>
      </defs>
      <g>
       <use xlink:href="#m5b39c55f41" x="35.89" y="373.510813" style="stroke: #000000; stroke-width: 0.8"/>
      </g>
     </g>
     <g id="text_5">
      <!-- 0.3 -->
      <g transform="translate(10.829063 377.336594) scale(0.1 -0.1)">
       <defs>
        <path id="DejaVuSansMono-2e" d="M 1528 953 
L 2316 953 
L 2316 0 
L 1528 0 
L 1528 953 
z
" transform="scale(0.015625)"/>
        <path id="DejaVuSansMono-33" d="M 2425 2497 
Q 2884 2375 3128 2064 
Q 3372 1753 3372 1288 
Q 3372 644 2939 276 
Q 2506 -91 1741 -91 
Q 1419 -91 1084 -31 
Q 750 28 428 141 
L 428 769 
Q 747 603 1056 522 
Q 1366 441 1672 441 
Q 2191 441 2469 675 
Q 2747 909 2747 1350 
Q 2747 1756 2469 1995 
Q 2191 2234 1716 2234 
L 1234 2234 
L 1234 2753 
L 1716 2753 
Q 2150 2753 2394 2943 
Q 2638 3134 2638 3475 
Q 2638 3834 2411 4026 
Q 2184 4219 1766 4219 
Q 1488 4219 1191 4156 
Q 894 4094 569 3969 
L 569 4550 
Q 947 4650 1242 4700 
Q 1538 4750 1766 4750 
Q 2447 4750 2855 4408 
Q 3263 4066 3263 3500 
Q 3263 3116 3048 2859 
Q 2834 2603 2425 2497 
z
" transform="scale(0.015625)"/>
       </defs>
       <use xlink:href="#DejaVuSansMono-30"/>
       <use xlink:href="#DejaVuSansMono-2e" x="60.205078"/>
       <use xlink:href="#DejaVuSansMono-33" x="120.410156"/>
      </g>
     </g>
    </g>
    <g id="ytick_2">
     <g id="line2d_6">
      <g>
       <use xlink:href="#m5b39c55f41" x="35.89" y="309.154864" style="stroke: #000000; stroke-width: 0.8"/>
      </g>
     </g>
     <g id="text_6">
      <!-- 0.4 -->
      <g transform="translate(10.829063 312.980645) scale(0.1 -0.1)">
       <use xlink:href="#DejaVuSansMono-30"/>
       <use xlink:href="#DejaVuSansMono-2e" x="60.205078"/>
       <use xlink:href="#DejaVuSansMono-34" x="120.410156"/>
      </g>
     </g>
    </g>
    <g id="ytick_3">
     <g id="line2d_7">
      <g>
       <use xlink:href="#m5b39c55f41" x="35.89" y="244.798916" style="stroke: #000000; stroke-width: 0.8"/>
      </g>
     </g>
     <g id="text_7">
      <!-- 0.5 -->
      <g transform="translate(10.829063 248.624697) scale(0.1 -0.1)">
       <defs>
        <path id="DejaVuSansMono-35" d="M 647 4666 
L 3009 4666 
L 3009 4134 
L 1222 4134 
L 1222 2988 
Q 1356 3038 1492 3061 
Q 1628 3084 1766 3084 
Q 2491 3084 2916 2656 
Q 3341 2228 3341 1497 
Q 3341 759 2895 334 
Q 2450 -91 1678 -91 
Q 1306 -91 998 -41 
Q 691 9 447 109 
L 447 750 
Q 734 594 1025 517 
Q 1316 441 1619 441 
Q 2141 441 2423 716 
Q 2706 991 2706 1497 
Q 2706 1997 2414 2275 
Q 2122 2553 1600 2553 
Q 1347 2553 1106 2495 
Q 866 2438 647 2322 
L 647 4666 
z
" transform="scale(0.015625)"/>
       </defs>
       <use xlink:href="#DejaVuSansMono-30"/>
       <use xlink:href="#DejaVuSansMono-2e" x="60.205078"/>
       <use xlink:href="#DejaVuSansMono-35" x="120.410156"/>
      </g>
     </g>
    </g>
    <g id="ytick_4">
     <g id="line2d_8">
      <g>
       <use xlink:href="#m5b39c55f41" x="35.89" y="180.442967" style="stroke: #000000; stroke-width: 0.8"/>
      </g>
     </g>
     <g id="text_8">
      <!-- 0.6 -->
      <g transform="translate(10.829063 184.268749) scale(0.1 -0.1)">
       <use xlink:href="#DejaVuSansMono-30"/>
       <use xlink:href="#DejaVuSansMono-2e" x="60.205078"/>
       <use xlink:href="#DejaVuSansMono-36" x="120.410156"/>
      </g>
     </g>
    </g>
    <g id="ytick_5">
     <g id="line2d_9">
      <g>
       <use xlink:href="#m5b39c55f41" x="35.89" y="116.087019" style="stroke: #000000; stroke-width: 0.8"/>
      </g>
     </g>
     <g id="text_9">
      <!-- 0.7 -->
      <g transform="translate(10.829063 119.9128) scale(0.1 -0.1)">
       <defs>
        <path id="DejaVuSansMono-37" d="M 434 4666 
L 3372 4666 
L 3372 4397 
L 1703 0 
L 1044 0 
L 2669 4134 
L 434 4134 
L 434 4666 
z
" transform="scale(0.015625)"/>
       </defs>
       <use xlink:href="#DejaVuSansMono-30"/>
       <use xlink:href="#DejaVuSansMono-2e" x="60.205078"/>
       <use xlink:href="#DejaVuSansMono-37" x="120.410156"/>
      </g>
     </g>
    </g>
    <g id="ytick_6">
     <g id="line2d_10">
      <g>
       <use xlink:href="#m5b39c55f41" x="35.89" y="51.73107" style="stroke: #000000; stroke-width: 0.8"/>
      </g>
     </g>
     <g id="text_10">
      <!-- 0.8 -->
      <g transform="translate(10.829063 55.556852) scale(0.1 -0.1)">
       <use xlink:href="#DejaVuSansMono-30"/>
       <use xlink:href="#DejaVuSansMono-2e" x="60.205078"/>
       <use xlink:href="#DejaVuSansMono-38" x="120.410156"/>
      </g>
     </g>
    </g>
   </g>
   <g id="line2d_11">
    <path d="M 27.558603 386.241818 
L 28.391743 385.815518 
L 29.224883 385.146379 
L 31.724302 381.503869 
L 32.557441 380.096242 
L 34.223721 377.856661 
L 35.05686 377.022225 
L 35.89 376.42039 
L 36.72314 375.609337 
L 37.556279 374.642073 
L 40.888838 371.747802 
L 41.721978 370.976927 
L 42.555117 370.384073 
L 44.221397 368.698189 
L 45.054536 368.100765 
L 46.720815 367.323429 
L 48.387095 366.904069 
L 50.053374 367.321396 
L 50.886514 367.257365 
L 52.552793 367.591703 
L 55.052212 367.512578 
L 55.885352 367.016067 
L 56.718491 366.037469 
L 57.551631 364.853891 
L 59.21791 361.654654 
L 62.550469 354.132323 
L 64.216748 350.772998 
L 66.716167 347.291211 
L 67.549307 346.348303 
L 69.215586 345.018944 
L 70.048726 344.359198 
L 71.715005 342.56863 
L 73.381284 341.423968 
L 74.214424 341.100785 
L 75.880703 340.114777 
L 76.713843 339.652338 
L 79.213262 338.861858 
L 80.879541 338.567323 
L 82.545821 338.131119 
L 85.878379 337.988273 
L 88.377798 337.488302 
L 89.210938 337.417098 
L 90.044077 337.052297 
L 90.877217 336.48732 
L 94.209776 333.567293 
L 96.709195 330.431245 
L 97.542334 329.277207 
L 100.874893 325.736816 
L 103.374312 322.821808 
L 105.040591 320.8689 
L 106.706871 318.626822 
L 108.37315 316.903613 
L 110.039429 315.334254 
L 114.205127 311.769647 
L 116.704546 308.821098 
L 118.370826 307.156273 
L 120.037105 305.781949 
L 120.870245 305.198655 
L 121.703384 304.408299 
L 122.536524 303.867332 
L 125.869083 303.205169 
L 127.535362 302.488927 
L 129.201641 301.814186 
L 135.033619 299.230184 
L 137.533038 296.947787 
L 139.199317 295.28784 
L 143.365015 290.197515 
L 145.031295 288.791396 
L 146.697574 287.395334 
L 148.363853 286.177236 
L 152.529551 283.581687 
L 155.86211 282.259221 
L 158.361529 281.382826 
L 159.194669 281.169373 
L 162.527227 279.555356 
L 167.526065 277.456838 
L 169.192345 277.071821 
L 171.691764 276.102081 
L 172.524903 275.70941 
L 174.191182 274.289372 
L 175.857462 272.46614 
L 177.523741 270.535342 
L 180.02316 267.814337 
L 180.8563 267.086758 
L 182.522579 266.166003 
L 185.021998 265.497089 
L 187.521417 264.821235 
L 190.853976 263.083783 
L 191.687115 262.50437 
L 193.353394 260.941638 
L 195.019674 259.26531 
L 195.852813 258.555917 
L 198.352232 257.013239 
L 201.684791 254.915056 
L 202.517931 254.358695 
L 204.18421 252.667326 
L 205.850489 250.800876 
L 207.516769 248.647758 
L 210.016188 245.249302 
L 211.682467 243.38692 
L 213.348746 241.920278 
L 216.681305 239.380362 
L 218.347584 238.54014 
L 222.513282 236.359826 
L 227.51212 233.532807 
L 229.1784 232.727039 
L 232.510958 231.476386 
L 235.010377 230.083957 
L 237.509796 228.68554 
L 240.009215 227.023182 
L 240.842355 226.571376 
L 241.675494 226.247433 
L 243.341774 225.270871 
L 245.841193 223.368465 
L 247.507472 222.24676 
L 249.173751 220.642669 
L 250.840031 218.777655 
L 254.172589 214.974309 
L 255.838869 212.674341 
L 258.338287 209.950632 
L 261.670846 206.674835 
L 262.503986 205.956851 
L 264.170265 204.947692 
L 265.836544 203.639722 
L 267.502824 202.982703 
L 272.501662 201.659827 
L 274.167941 201.585536 
L 275.83422 201.215283 
L 278.333639 200.769837 
L 281.666198 199.652731 
L 283.332477 199.278541 
L 286.665036 198.454349 
L 288.331315 198.228433 
L 289.997594 197.699223 
L 291.663874 197.16908 
L 293.330153 196.790276 
L 294.996432 196.487607 
L 296.662712 195.955286 
L 299.99527 194.957343 
L 301.661549 194.265819 
L 303.327829 193.498161 
L 306.660387 192.64897 
L 312.492365 191.479857 
L 314.158644 190.931885 
L 314.991784 190.619036 
L 317.491203 190.147149 
L 320.823761 188.646502 
L 325.822599 187.136579 
L 327.488879 186.412535 
L 330.821437 185.042435 
L 332.487717 184.153531 
L 333.320856 183.668203 
L 334.987136 183.098037 
L 337.486555 182.279848 
L 338.319694 181.95215 
L 340.819113 181.542371 
L 344.151672 181.130478 
L 346.651091 180.299232 
L 351.649929 177.38141 
L 353.316208 176.625769 
L 355.815627 175.778581 
L 357.481906 175.011199 
L 362.480744 172.53166 
L 363.313884 172.188036 
L 367.479582 171.236092 
L 374.144699 169.054071 
L 376.644118 168.087551 
L 380.809817 166.851566 
L 382.476096 166.5856 
L 384.975515 166.230056 
L 386.641794 165.78453 
L 388.308073 165.156637 
L 393.306911 163.000183 
L 394.973191 162.002638 
L 396.63947 161.365033 
L 399.138889 160.452181 
L 402.471448 158.705241 
L 404.137727 157.870274 
L 407.470285 155.728357 
L 409.969704 154.699182 
L 413.302263 154.040176 
L 417.467961 153.472307 
L 423.299939 152.045804 
L 424.133078 151.663118 
L 425.799358 150.604751 
L 429.131916 148.577674 
L 431.631335 146.92741 
L 432.464475 146.537581 
L 434.130754 146.047333 
L 435.797034 145.359423 
L 440.795872 142.276676 
L 443.295291 140.576626 
L 445.794709 139.164741 
L 448.294128 138.352828 
L 451.626687 137.640901 
L 455.792385 137.129405 
L 459.958084 135.482241 
L 461.624363 134.341049 
L 464.123782 132.782855 
L 469.12262 131.004863 
L 472.455178 130.477383 
L 479.953435 128.676053 
L 484.952273 128.143993 
L 493.28367 128.037055 
L 501.615066 125.784055 
L 504.114485 124.697816 
L 505.780765 123.71741 
L 509.113323 121.644325 
L 511.612742 120.435015 
L 514.112161 119.325458 
L 519.110999 116.759922 
L 521.610418 116.199331 
L 522.443558 116.086988 
L 529.108675 116.086988 
L 533.274373 114.955106 
L 536.606932 113.019746 
L 537.440071 112.449503 
L 541.60577 110.73017 
L 543.272049 110.499762 
L 547.437747 109.340165 
L 549.937166 107.821918 
L 555.769144 102.983861 
L 557.435423 101.910545 
L 559.101702 100.829213 
L 561.601121 99.502278 
L 562.434261 99.138515 
L 565.76682 97.313982 
L 568.266239 96.580754 
L 569.099378 96.213186 
L 570.765657 95.721813 
L 572.431937 95.475494 
L 576.597635 94.240617 
L 577.430775 94.116802 
L 579.097054 93.62025 
L 580.763333 92.873459 
L 585.762171 91.37598 
L 587.428451 91.12574 
L 597.426126 91.12574 
L 605.757523 89.867944 
L 614.088919 89.867944 
L 622.420316 88.603435 
L 626.586014 87.328838 
L 630.751713 85.41184 
L 634.917411 84.76944 
L 638.249969 84.76944 
L 644.081947 83.865219 
L 646.581366 83.088102 
L 647.414506 82.958237 
L 652.413344 80.608034 
L 655.745902 79.560691 
L 656.579042 79.560691 
L 658.245321 79.296719 
L 662.411019 77.97331 
L 664.910438 76.778979 
L 666.576718 76.246731 
L 669.909276 75.713017 
L 670.742416 75.310545 
L 673.241835 74.503415 
L 675.741254 73.289406 
L 678.240673 71.666274 
L 681.573231 70.578271 
L 683.239511 70.305522 
L 684.07265 70.032018 
L 685.73893 69.757758 
L 690.737768 68.107617 
L 691.570907 67.69394 
L 694.070326 66.864301 
L 697.402885 66.30969 
L 699.069164 65.753528 
L 704.901142 64.777534 
L 705.734281 64.497899 
L 711.566259 63.516454 
L 713.232538 62.954055 
L 714.898818 62.67207 
L 717.398236 61.395999 
L 719.897655 59.689747 
L 720.730795 59.261989 
L 723.230214 57.546116 
L 725.729633 56.683334 
L 729.062192 56.106536 
L 731.561611 56.106536 
L 734.894169 55.526454 
L 735.727309 55.235588 
L 738.226728 53.922946 
L 739.893007 52.752816 
L 742.392426 51.432682 
L 744.058705 50.252471 
L 744.891845 49.80736 
L 746.558124 48.616968 
L 750.723823 46.378579 
L 751.556962 46.079274 
L 753.223242 45.779106 
L 754.889521 45.779106 
L 757.38894 45.32623 
L 762.387778 43.509457 
L 763.220917 43.053943 
L 765.720336 42.140274 
L 766.553476 41.987555 
L 769.052895 41.068558 
L 770.719174 40.146873 
L 774.051733 38.914378 
L 774.884873 38.450835 
L 777.384292 37.521044 
L 782.383129 36.588526 
L 787.381967 36.588526 
L 795.713364 35.025123 
L 796.546504 35.025123 
L 804.8779 33.452475 
L 807.377319 33.452475 
L 814.042436 32.1869 
L 815.708716 31.552217 
L 822.373833 30.279062 
L 839.869766 30.279062 
L 848.201162 28.678182 
L 852.36686 28.678182 
L 852.36686 28.678182 
" clip-path="url(#p63c6574b65)" style="fill: none; stroke-dasharray: 7.4,3.2; stroke-dashoffset: 0; stroke: #000000; stroke-width: 2"/>
   </g>
   <g id="patch_3">
    <path d="M 35.89 404.12 
L 35.89 10.8 
" style="fill: none; stroke: #000000; stroke-width: 0.8; stroke-linejoin: miter; stroke-linecap: square"/>
   </g>
   <g id="patch_4">
    <path d="M 853.2 404.12 
L 853.2 10.8 
" style="fill: none; stroke: #000000; stroke-width: 0.8; stroke-linejoin: miter; stroke-linecap: square"/>
   </g>
   <g id="patch_5">
    <path d="M 35.89 404.12 
L 853.2 404.12 
" style="fill: none; stroke: #000000; stroke-width: 0.8; stroke-linejoin: miter; stroke-linecap: square"/>
   </g>
   <g id="patch_6">
    <path d="M 35.89 10.8 
L 853.2 10.8 
" style="fill: none; stroke: #000000; stroke-width: 0.8; stroke-linejoin: miter; stroke-linecap: square"/>
   </g>
  </g>
 </g>
 <defs>
  <clipPath id="p63c6574b65">
   <rect x="35.89" y="10.8" width="817.31" height="393.32"/>
  </clipPath>
 </defs>
</svg>
