<?xml version="1.0" encoding="utf-8" standalone="no"?>
<!DOCTYPE svg PUBLIC "-//W3C//DTD SVG 1.1//EN"
  "http://www.w3.org/Graphics/SVG/1.1/DTD/svg11.dtd">
<svg xmlns:xlink="http://www.w3.org/1999/xlink" width="864pt" height="432pt" viewBox="0 0 864 432" xmlns="http://www.w3.org/2000/svg" version="1.1">
 <metadata>
  <rdf:RDF xmlns:dc="http://purl.org/dc/elements/1.1/" xmlns:cc="http://creativecommons.org/ns#" xmlns:rdf="http://www.w3.org/1999/02/22-rdf-syntax-ns#">
   <cc:Work>
    <dc:type rdf:resource="http://purl.org/dc/dcmitype/StillImage"/>
    <dc:date>2024-09-24T22:20:09.928237</dc:date>
    <dc:format>image/svg+xml</dc:format>
    <dc:creator>
     <cc:Agent>
      <dc:title>Matplotlib v3.9.2, https://matplotlib.org/</dc:title>
     </cc:Agent>
    </dc:creator>
   </cc:Work>
  </rdf:RDF>
 </metadata>
 <defs>
  <style type="text/css">*{stroke-linejoin: round; stroke-linecap: butt}</style>
 </defs>
 <g id="figure_1">
  <g id="patch_1">
   <path d="M 0 432 
L 864 432 
L 864 0 
L 0 0 
z
" style="fill: #ffffff"/>
  </g>
  <g id="axes_1">
   <g id="patch_2">
    <path d="M 41.92 404.12 
L 853.2 404.12 
L 853.2 10.8 
L 41.92 10.8 
z
" style="fill: #ffffff"/>
   </g>
   <g id="matplotlib.axis_1">
    <g id="xtick_1">
     <g id="line2d_1">
      <defs>
       <path id="m260a573160" d="M 0 0 
L 0 3.5 
" style="stroke: #000000; stroke-width: 0.8"/>
      </defs>
      <g>
       <use xlink:href="#m260a573160" x="141.776117" y="404.12" style="stroke: #000000; stroke-width: 0.8"/>
      </g>
     </g>
     <g id="text_1">
      <!-- 500 -->
      <g transform="translate(132.745648 418.771563) scale(0.1 -0.1)">
       <defs>
        <path id="DejaVuSansMono-35" d="M 647 4666 
L 3009 4666 
L 3009 4134 
L 1222 4134 
L 1222 2988 
Q 1356 3038 1492 3061 
Q 1628 3084 1766 3084 
Q 2491 3084 2916 2656 
Q 3341 2228 3341 1497 
Q 3341 759 2895 334 
Q 2450 -91 1678 -91 
Q 1306 -91 998 -41 
Q 691 9 447 109 
L 447 750 
Q 734 594 1025 517 
Q 1316 441 1619 441 
Q 2141 441 2423 716 
Q 2706 991 2706 1497 
Q 2706 1997 2414 2275 
Q 2122 2553 1600 2553 
Q 1347 2553 1106 2495 
Q 866 2438 647 2322 
L 647 4666 
z
" transform="scale(0.015625)"/>
        <path id="DejaVuSansMono-30" d="M 1509 2344 
Q 1509 2516 1629 2641 
Q 1750 2766 1919 2766 
Q 2094 2766 2219 2641 
Q 2344 2516 2344 2344 
Q 2344 2169 2220 2047 
Q 2097 1925 1919 1925 
Q 1744 1925 1626 2044 
Q 1509 2163 1509 2344 
z
M 1925 4250 
Q 1484 4250 1267 3775 
Q 1050 3300 1050 2328 
Q 1050 1359 1267 884 
Q 1484 409 1925 409 
Q 2369 409 2586 884 
Q 2803 1359 2803 2328 
Q 2803 3300 2586 3775 
Q 2369 4250 1925 4250 
z
M 1925 4750 
Q 2672 4750 3055 4137 
Q 3438 3525 3438 2328 
Q 3438 1134 3055 521 
Q 2672 -91 1925 -91 
Q 1178 -91 797 521 
Q 416 1134 416 2328 
Q 416 3525 797 4137 
Q 1178 4750 1925 4750 
z
" transform="scale(0.015625)"/>
       </defs>
       <use xlink:href="#DejaVuSansMono-35"/>
       <use xlink:href="#DejaVuSansMono-30" x="60.205078"/>
       <use xlink:href="#DejaVuSansMono-30" x="120.410156"/>
      </g>
     </g>
    </g>
    <g id="xtick_2">
     <g id="line2d_2">
      <g>
       <use xlink:href="#m260a573160" x="243.670113" y="404.12" style="stroke: #000000; stroke-width: 0.8"/>
      </g>
     </g>
     <g id="text_2">
      <!-- 1000 -->
      <g transform="translate(231.629488 418.771563) scale(0.1 -0.1)">
       <defs>
        <path id="DejaVuSansMono-31" d="M 844 531 
L 1825 531 
L 1825 4097 
L 769 3859 
L 769 4434 
L 1819 4666 
L 2450 4666 
L 2450 531 
L 3419 531 
L 3419 0 
L 844 0 
L 844 531 
z
" transform="scale(0.015625)"/>
       </defs>
       <use xlink:href="#DejaVuSansMono-31"/>
       <use xlink:href="#DejaVuSansMono-30" x="60.205078"/>
       <use xlink:href="#DejaVuSansMono-30" x="120.410156"/>
       <use xlink:href="#DejaVuSansMono-30" x="180.615234"/>
      </g>
     </g>
    </g>
    <g id="xtick_3">
     <g id="line2d_3">
      <g>
       <use xlink:href="#m260a573160" x="345.56411" y="404.12" style="stroke: #000000; stroke-width: 0.8"/>
      </g>
     </g>
     <g id="text_3">
      <!-- 1500 -->
      <g transform="translate(333.523485 418.771563) scale(0.1 -0.1)">
       <use xlink:href="#DejaVuSansMono-31"/>
       <use xlink:href="#DejaVuSansMono-35" x="60.205078"/>
       <use xlink:href="#DejaVuSansMono-30" x="120.410156"/>
       <use xlink:href="#DejaVuSansMono-30" x="180.615234"/>
      </g>
     </g>
    </g>
    <g id="xtick_4">
     <g id="line2d_4">
      <g>
       <use xlink:href="#m260a573160" x="447.458106" y="404.12" style="stroke: #000000; stroke-width: 0.8"/>
      </g>
     </g>
     <g id="text_4">
      <!-- 2000 -->
      <g transform="translate(435.417481 418.771563) scale(0.1 -0.1)">
       <defs>
        <path id="DejaVuSansMono-32" d="M 1166 531 
L 3309 531 
L 3309 0 
L 475 0 
L 475 531 
Q 1059 1147 1496 1619 
Q 1934 2091 2100 2284 
Q 2413 2666 2522 2902 
Q 2631 3138 2631 3384 
Q 2631 3775 2401 3997 
Q 2172 4219 1772 4219 
Q 1488 4219 1175 4116 
Q 863 4013 513 3803 
L 513 4441 
Q 834 4594 1145 4672 
Q 1456 4750 1759 4750 
Q 2444 4750 2861 4386 
Q 3278 4022 3278 3431 
Q 3278 3131 3139 2831 
Q 3000 2531 2688 2169 
Q 2513 1966 2180 1606 
Q 1847 1247 1166 531 
z
" transform="scale(0.015625)"/>
       </defs>
       <use xlink:href="#DejaVuSansMono-32"/>
       <use xlink:href="#DejaVuSansMono-30" x="60.205078"/>
       <use xlink:href="#DejaVuSansMono-30" x="120.410156"/>
       <use xlink:href="#DejaVuSansMono-30" x="180.615234"/>
      </g>
     </g>
    </g>
    <g id="xtick_5">
     <g id="line2d_5">
      <g>
       <use xlink:href="#m260a573160" x="549.352102" y="404.12" style="stroke: #000000; stroke-width: 0.8"/>
      </g>
     </g>
     <g id="text_5">
      <!-- 2500 -->
      <g transform="translate(537.311477 418.771563) scale(0.1 -0.1)">
       <use xlink:href="#DejaVuSansMono-32"/>
       <use xlink:href="#DejaVuSansMono-35" x="60.205078"/>
       <use xlink:href="#DejaVuSansMono-30" x="120.410156"/>
       <use xlink:href="#DejaVuSansMono-30" x="180.615234"/>
      </g>
     </g>
    </g>
    <g id="xtick_6">
     <g id="line2d_6">
      <g>
       <use xlink:href="#m260a573160" x="651.246099" y="404.12" style="stroke: #000000; stroke-width: 0.8"/>
      </g>
     </g>
     <g id="text_6">
      <!-- 3000 -->
      <g transform="translate(639.205474 418.771563) scale(0.1 -0.1)">
       <defs>
        <path id="DejaVuSansMono-33" d="M 2425 2497 
Q 2884 2375 3128 2064 
Q 3372 1753 3372 1288 
Q 3372 644 2939 276 
Q 2506 -91 1741 -91 
Q 1419 -91 1084 -31 
Q 750 28 428 141 
L 428 769 
Q 747 603 1056 522 
Q 1366 441 1672 441 
Q 2191 441 2469 675 
Q 2747 909 2747 1350 
Q 2747 1756 2469 1995 
Q 2191 2234 1716 2234 
L 1234 2234 
L 1234 2753 
L 1716 2753 
Q 2150 2753 2394 2943 
Q 2638 3134 2638 3475 
Q 2638 3834 2411 4026 
Q 2184 4219 1766 4219 
Q 1488 4219 1191 4156 
Q 894 4094 569 3969 
L 569 4550 
Q 947 4650 1242 4700 
Q 1538 4750 1766 4750 
Q 2447 4750 2855 4408 
Q 3263 4066 3263 3500 
Q 3263 3116 3048 2859 
Q 2834 2603 2425 2497 
z
" transform="scale(0.015625)"/>
       </defs>
       <use xlink:href="#DejaVuSansMono-33"/>
       <use xlink:href="#DejaVuSansMono-30" x="60.205078"/>
       <use xlink:href="#DejaVuSansMono-30" x="120.410156"/>
       <use xlink:href="#DejaVuSansMono-30" x="180.615234"/>
      </g>
     </g>
    </g>
    <g id="xtick_7">
     <g id="line2d_7">
      <g>
       <use xlink:href="#m260a573160" x="753.140095" y="404.12" style="stroke: #000000; stroke-width: 0.8"/>
      </g>
     </g>
     <g id="text_7">
      <!-- 3500 -->
      <g transform="translate(741.09947 418.771563) scale(0.1 -0.1)">
       <use xlink:href="#DejaVuSansMono-33"/>
       <use xlink:href="#DejaVuSansMono-35" x="60.205078"/>
       <use xlink:href="#DejaVuSansMono-30" x="120.410156"/>
       <use xlink:href="#DejaVuSansMono-30" x="180.615234"/>
      </g>
     </g>
    </g>
   </g>
   <g id="matplotlib.axis_2">
    <g id="ytick_1">
     <g id="line2d_8">
      <defs>
       <path id="mb34eacabe6" d="M 0 0 
L -3.5 0 
" style="stroke: #000000; stroke-width: 0.8"/>
      </defs>
      <g>
       <use xlink:href="#mb34eacabe6" x="41.92" y="377.926139" style="stroke: #000000; stroke-width: 0.8"/>
      </g>
     </g>
     <g id="text_8">
      <!-- 0.02 -->
      <g transform="translate(10.83875 381.751921) scale(0.1 -0.1)">
       <defs>
        <path id="DejaVuSansMono-2e" d="M 1528 953 
L 2316 953 
L 2316 0 
L 1528 0 
L 1528 953 
z
" transform="scale(0.015625)"/>
       </defs>
       <use xlink:href="#DejaVuSansMono-30"/>
       <use xlink:href="#DejaVuSansMono-2e" x="60.205078"/>
       <use xlink:href="#DejaVuSansMono-30" x="120.410156"/>
       <use xlink:href="#DejaVuSansMono-32" x="180.615234"/>
      </g>
     </g>
    </g>
    <g id="ytick_2">
     <g id="line2d_9">
      <g>
       <use xlink:href="#mb34eacabe6" x="41.92" y="316.337901" style="stroke: #000000; stroke-width: 0.8"/>
      </g>
     </g>
     <g id="text_9">
      <!-- 0.03 -->
      <g transform="translate(10.83875 320.163682) scale(0.1 -0.1)">
       <use xlink:href="#DejaVuSansMono-30"/>
       <use xlink:href="#DejaVuSansMono-2e" x="60.205078"/>
       <use xlink:href="#DejaVuSansMono-30" x="120.410156"/>
       <use xlink:href="#DejaVuSansMono-33" x="180.615234"/>
      </g>
     </g>
    </g>
    <g id="ytick_3">
     <g id="line2d_10">
      <g>
       <use xlink:href="#mb34eacabe6" x="41.92" y="254.749662" style="stroke: #000000; stroke-width: 0.8"/>
      </g>
     </g>
     <g id="text_10">
      <!-- 0.04 -->
      <g transform="translate(10.83875 258.575444) scale(0.1 -0.1)">
       <defs>
        <path id="DejaVuSansMono-34" d="M 2297 4091 
L 825 1625 
L 2297 1625 
L 2297 4091 
z
M 2194 4666 
L 2925 4666 
L 2925 1625 
L 3547 1625 
L 3547 1113 
L 2925 1113 
L 2925 0 
L 2297 0 
L 2297 1113 
L 319 1113 
L 319 1709 
L 2194 4666 
z
" transform="scale(0.015625)"/>
       </defs>
       <use xlink:href="#DejaVuSansMono-30"/>
       <use xlink:href="#DejaVuSansMono-2e" x="60.205078"/>
       <use xlink:href="#DejaVuSansMono-30" x="120.410156"/>
       <use xlink:href="#DejaVuSansMono-34" x="180.615234"/>
      </g>
     </g>
    </g>
    <g id="ytick_4">
     <g id="line2d_11">
      <g>
       <use xlink:href="#mb34eacabe6" x="41.92" y="193.161424" style="stroke: #000000; stroke-width: 0.8"/>
      </g>
     </g>
     <g id="text_11">
      <!-- 0.05 -->
      <g transform="translate(10.83875 196.987205) scale(0.1 -0.1)">
       <use xlink:href="#DejaVuSansMono-30"/>
       <use xlink:href="#DejaVuSansMono-2e" x="60.205078"/>
       <use xlink:href="#DejaVuSansMono-30" x="120.410156"/>
       <use xlink:href="#DejaVuSansMono-35" x="180.615234"/>
      </g>
     </g>
    </g>
    <g id="ytick_5">
     <g id="line2d_12">
      <g>
       <use xlink:href="#mb34eacabe6" x="41.92" y="131.573186" style="stroke: #000000; stroke-width: 0.8"/>
      </g>
     </g>
     <g id="text_12">
      <!-- 0.06 -->
      <g transform="translate(10.83875 135.398967) scale(0.1 -0.1)">
       <defs>
        <path id="DejaVuSansMono-36" d="M 3097 4563 
L 3097 3981 
Q 2900 4097 2678 4158 
Q 2456 4219 2216 4219 
Q 1616 4219 1306 3767 
Q 997 3316 997 2438 
Q 1147 2750 1412 2917 
Q 1678 3084 2022 3084 
Q 2697 3084 3067 2670 
Q 3438 2256 3438 1497 
Q 3438 741 3056 325 
Q 2675 -91 1984 -91 
Q 1172 -91 794 492 
Q 416 1075 416 2328 
Q 416 3509 870 4129 
Q 1325 4750 2188 4750 
Q 2419 4750 2650 4701 
Q 2881 4653 3097 4563 
z
M 1972 2591 
Q 1569 2591 1337 2300 
Q 1106 2009 1106 1497 
Q 1106 984 1337 693 
Q 1569 403 1972 403 
Q 2391 403 2603 679 
Q 2816 956 2816 1497 
Q 2816 2041 2603 2316 
Q 2391 2591 1972 2591 
z
" transform="scale(0.015625)"/>
       </defs>
       <use xlink:href="#DejaVuSansMono-30"/>
       <use xlink:href="#DejaVuSansMono-2e" x="60.205078"/>
       <use xlink:href="#DejaVuSansMono-30" x="120.410156"/>
       <use xlink:href="#DejaVuSansMono-36" x="180.615234"/>
      </g>
     </g>
    </g>
    <g id="ytick_6">
     <g id="line2d_13">
      <g>
       <use xlink:href="#mb34eacabe6" x="41.92" y="69.984947" style="stroke: #000000; stroke-width: 0.8"/>
      </g>
     </g>
     <g id="text_13">
      <!-- 0.07 -->
      <g transform="translate(10.83875 73.810728) scale(0.1 -0.1)">
       <defs>
        <path id="DejaVuSansMono-37" d="M 434 4666 
L 3372 4666 
L 3372 4397 
L 1703 0 
L 1044 0 
L 2669 4134 
L 434 4134 
L 434 4666 
z
" transform="scale(0.015625)"/>
       </defs>
       <use xlink:href="#DejaVuSansMono-30"/>
       <use xlink:href="#DejaVuSansMono-2e" x="60.205078"/>
       <use xlink:href="#DejaVuSansMono-30" x="120.410156"/>
       <use xlink:href="#DejaVuSansMono-37" x="180.615234"/>
      </g>
     </g>
    </g>
   </g>
   <g id="line2d_14">
    <path d="M 41.716212 112.84617 
L 42.327576 132.123026 
L 42.531364 145.70159 
L 43.346516 154.001154 
L 43.550304 162.925625 
L 43.754092 162.549025 
L 43.95788 161.235738 
L 44.161668 155.942614 
L 44.569244 153.80215 
L 44.773032 151.830542 
L 44.97682 153.272981 
L 45.180608 156.510646 
L 45.384396 156.64613 
L 45.588184 157.266928 
L 45.99576 160.182002 
L 46.403336 172.56842 
L 46.607124 174.755092 
L 46.810912 179.103801 
L 47.0147 179.484352 
L 47.218488 178.624548 
L 47.422276 175.732176 
L 47.626064 178.350372 
L 47.829852 178.653666 
L 48.03364 178.651016 
L 48.237428 175.680936 
L 48.645004 179.792608 
L 48.848792 179.501151 
L 49.05258 179.508583 
L 49.256368 181.043267 
L 49.460156 184.41464 
L 49.663944 183.442893 
L 49.867732 183.815572 
L 50.07152 183.575357 
L 50.275308 182.948339 
L 50.479096 177.154013 
L 50.682884 174.572697 
L 50.886672 175.218943 
L 51.09046 176.734741 
L 51.294248 176.751093 
L 51.701824 179.302576 
L 51.905612 177.42112 
L 52.1094 177.702118 
L 52.720764 192.029768 
L 52.924552 192.711144 
L 53.12834 185.105425 
L 53.332128 183.39799 
L 53.535916 182.689188 
L 53.739704 183.913705 
L 53.943492 186.499978 
L 54.14728 187.557614 
L 54.351068 187.678533 
L 54.554856 188.751846 
L 54.758644 188.249878 
L 54.962432 187.258482 
L 55.16622 195.219893 
L 55.573796 199.63685 
L 55.777584 200.14667 
L 55.981372 197.038871 
L 56.18516 197.329846 
L 56.388948 197.989483 
L 56.592735 198.02881 
L 56.796523 197.032468 
L 57.000311 198.690569 
L 57.204099 198.08892 
L 57.407887 198.240468 
L 57.611675 197.977351 
L 57.815463 197.388444 
L 58.019251 200.73516 
L 58.223039 201.550463 
L 58.630615 192.961025 
L 59.038191 194.243325 
L 59.241979 194.896459 
L 59.445767 195.017743 
L 59.649555 195.474071 
L 60.057131 194.281418 
L 60.260919 194.954513 
L 60.668495 204.630955 
L 60.872283 206.775229 
L 61.076071 204.930988 
L 61.279859 205.219384 
L 61.483647 205.885704 
L 61.687435 205.965761 
L 61.891223 207.896084 
L 62.095011 207.777579 
L 62.298799 207.804907 
L 62.502587 207.678892 
L 62.706375 207.762509 
L 62.910163 208.042284 
L 63.113951 210.264385 
L 63.317739 209.829788 
L 63.521527 209.1319 
L 63.929103 208.844784 
L 64.132891 210.301766 
L 64.540467 211.214783 
L 64.744255 210.968337 
L 64.948043 209.606765 
L 65.355619 208.979636 
L 65.559407 208.026886 
L 65.763195 208.452826 
L 65.966983 208.394972 
L 66.374559 208.593738 
L 66.578347 208.738159 
L 66.782135 209.279651 
L 66.985923 211.001226 
L 67.189711 211.376403 
L 67.801075 214.549364 
L 68.004863 214.843549 
L 68.412439 214.518122 
L 68.820015 214.332629 
L 69.431379 214.676585 
L 69.635167 215.175086 
L 70.857895 215.749451 
L 71.061683 214.962235 
L 71.265471 213.614771 
L 71.469259 213.496629 
L 71.673047 212.848069 
L 71.876835 211.401678 
L 72.284411 211.754187 
L 72.488199 210.716172 
L 72.691987 211.169234 
L 72.895775 211.199741 
L 73.099563 211.765257 
L 73.303351 213.277467 
L 73.507139 213.241691 
L 73.710927 213.64112 
L 73.914715 215.135901 
L 74.118503 214.922006 
L 74.322291 214.935339 
L 74.526079 216.172918 
L 74.729867 215.097803 
L 74.933655 215.194046 
L 75.137443 215.731617 
L 75.341231 215.525347 
L 75.545019 215.605933 
L 75.748807 214.163068 
L 75.952595 213.677446 
L 76.156383 213.509255 
L 76.563959 213.522514 
L 76.767747 214.18266 
L 76.971535 213.957199 
L 77.175323 212.111281 
L 77.379111 212.445208 
L 77.582899 212.16804 
L 78.194263 213.71697 
L 78.601839 214.001333 
L 78.805627 214.530991 
L 79.009415 214.503115 
L 79.213203 216.405073 
L 79.416991 215.704315 
L 79.620779 215.833697 
L 79.824567 216.915628 
L 80.028355 216.347384 
L 80.232143 216.544585 
L 80.843507 216.561042 
L 81.047295 217.067486 
L 81.251083 216.977442 
L 81.454871 217.799591 
L 81.658659 217.636347 
L 81.862447 217.209462 
L 82.066235 217.163657 
L 82.270023 216.958486 
L 82.881387 217.418848 
L 83.085175 216.976375 
L 83.288963 216.907855 
L 83.696539 214.739065 
L 83.900327 214.934134 
L 84.307903 215.891244 
L 84.511691 215.95619 
L 84.715479 215.69659 
L 84.919267 214.260853 
L 85.326843 214.670375 
L 85.734418 217.934641 
L 86.141994 218.491613 
L 86.345782 217.485051 
L 86.753358 217.373775 
L 86.957146 218.626073 
L 87.160934 218.70255 
L 87.364722 217.859891 
L 87.56851 216.501261 
L 87.772298 216.203641 
L 88.179874 216.201849 
L 88.383662 216.695339 
L 88.58745 216.7419 
L 88.791238 217.076902 
L 89.198814 217.141811 
L 89.402602 217.729187 
L 89.60639 218.955395 
L 89.810178 219.189826 
L 90.013966 219.156019 
L 90.217754 219.281157 
L 90.421542 219.698851 
L 90.62533 219.830287 
L 90.829118 217.835576 
L 91.032906 217.863941 
L 91.236694 218.096174 
L 91.440482 218.534957 
L 91.848058 218.887905 
L 92.051846 219.118108 
L 92.255634 219.081976 
L 92.459422 219.28832 
L 92.66321 219.04559 
L 92.866998 221.17745 
L 93.274574 221.201229 
L 93.478362 221.122356 
L 93.68215 220.450702 
L 93.885938 220.376632 
L 94.089726 219.969342 
L 94.293514 219.873116 
L 94.497302 219.548453 
L 94.70109 219.756815 
L 94.904878 219.679723 
L 95.108666 219.036594 
L 95.312454 217.973817 
L 95.516242 218.175788 
L 95.72003 218.76764 
L 95.923818 218.904888 
L 96.127606 219.263963 
L 96.331394 218.808819 
L 96.535182 218.696805 
L 96.73897 218.118085 
L 96.942758 218.12514 
L 97.350334 219.838776 
L 97.554122 219.699606 
L 97.75791 219.933161 
L 97.961698 219.781876 
L 98.165486 219.982728 
L 98.369274 220.54156 
L 98.573062 220.73423 
L 98.77685 221.344639 
L 98.980638 221.523744 
L 99.79579 221.002057 
L 99.999578 220.264835 
L 100.203366 220.047878 
L 100.407154 220.012251 
L 100.81473 220.214681 
L 101.222306 219.987383 
L 101.426094 220.32742 
L 101.629882 220.227153 
L 101.83367 220.344607 
L 102.037458 221.148 
L 102.241246 221.084686 
L 102.445034 220.498748 
L 102.648822 220.573456 
L 102.85261 219.900391 
L 103.056398 219.813793 
L 103.260186 219.857101 
L 103.463974 219.5026 
L 103.667762 219.757182 
L 103.87155 219.695809 
L 104.075338 219.776843 
L 104.279126 220.055688 
L 104.482914 220.757123 
L 104.686702 220.755413 
L 105.094278 221.57916 
L 105.298066 221.826125 
L 105.501854 222.312385 
L 106.113218 222.223034 
L 106.520794 222.192604 
L 106.724582 222.400596 
L 106.92837 222.446918 
L 107.743522 221.669027 
L 108.151098 222.010445 
L 108.354886 222.000662 
L 108.558674 221.440269 
L 108.762462 221.283265 
L 109.373826 221.881249 
L 109.577614 221.868403 
L 109.781402 222.200534 
L 110.188978 222.154057 
L 110.392766 221.503293 
L 111.00413 221.6896 
L 111.207918 221.584623 
L 111.615494 222.000784 
L 112.02307 222.102818 
L 112.226858 222.039414 
L 112.634434 223.504295 
L 112.838222 223.701452 
L 113.04201 222.928085 
L 113.449586 222.9207 
L 113.653374 222.365462 
L 113.857162 222.277415 
L 114.06095 221.67708 
L 114.264738 221.619705 
L 114.468525 221.08575 
L 114.672313 220.96597 
L 114.876101 220.660485 
L 115.079889 221.375801 
L 115.487465 221.381562 
L 115.691253 221.789411 
L 115.895041 220.658751 
L 116.098829 221.10054 
L 116.302617 221.148952 
L 116.506405 220.595684 
L 116.710193 220.571671 
L 117.117769 220.879085 
L 117.321557 219.940147 
L 117.525345 219.907742 
L 117.729133 220.291968 
L 117.932921 221.365591 
L 118.340497 221.687359 
L 118.544285 222.879461 
L 118.951861 223.239436 
L 119.155649 222.939307 
L 119.359437 223.983445 
L 119.767013 223.871211 
L 119.970801 224.033499 
L 120.174589 223.788922 
L 120.989741 223.735835 
L 121.193529 223.980733 
L 122.008681 223.800953 
L 122.416257 223.927778 
L 122.823833 223.920947 
L 123.027621 223.693725 
L 123.231409 223.75341 
L 123.638985 224.237727 
L 124.046561 224.389475 
L 124.250349 224.671869 
L 124.657925 224.344503 
L 125.065501 223.870451 
L 125.473077 223.763455 
L 125.880653 223.343627 
L 126.288229 223.420671 
L 126.492017 223.547488 
L 126.695805 223.479392 
L 127.307169 224.358373 
L 127.510957 224.062146 
L 127.714745 224.341323 
L 128.122321 224.366068 
L 128.529897 224.336966 
L 128.733685 224.748248 
L 128.937473 224.607377 
L 129.345049 224.633202 
L 129.548837 224.933924 
L 129.752625 224.8412 
L 129.956413 224.948009 
L 130.160201 224.459746 
L 130.771565 224.253762 
L 131.179141 224.501434 
L 131.382929 223.448201 
L 131.586717 223.440125 
L 131.790505 223.820304 
L 131.994293 223.506679 
L 132.198081 224.134108 
L 132.401869 223.943721 
L 132.605657 224.133617 
L 132.809445 223.717366 
L 133.013233 223.877454 
L 133.217021 223.808697 
L 133.420809 224.86776 
L 133.624597 224.832952 
L 133.828385 224.628983 
L 134.032173 224.942521 
L 134.235961 224.68089 
L 134.439749 225.035198 
L 134.643537 224.866874 
L 134.847325 225.144758 
L 135.051113 223.599728 
L 135.254901 223.716182 
L 135.662477 223.264296 
L 135.866265 223.155252 
L 136.070053 223.271651 
L 136.273841 223.189057 
L 136.477629 222.714916 
L 136.885205 223.012687 
L 137.088993 224.459968 
L 137.496569 224.92956 
L 137.700357 224.626787 
L 137.904145 224.794781 
L 138.311721 223.75375 
L 138.515509 224.163448 
L 138.719297 224.072752 
L 138.923085 223.48739 
L 139.126873 223.65976 
L 139.942025 222.680182 
L 140.145813 222.783386 
L 140.349601 223.716921 
L 140.553389 223.636922 
L 140.757177 223.810947 
L 140.960965 224.278103 
L 141.164753 224.150471 
L 141.368541 223.843387 
L 141.572329 224.030908 
L 141.979905 225.23027 
L 142.183693 225.595034 
L 142.387481 225.024493 
L 142.591269 225.202543 
L 143.202633 225.20988 
L 143.40642 224.95581 
L 143.813996 225.119355 
L 144.017784 224.95171 
L 144.221572 223.793726 
L 144.42536 224.339731 
L 144.629148 223.999168 
L 145.036724 224.076774 
L 145.240512 224.111775 
L 145.4443 224.724361 
L 145.648088 224.936076 
L 145.851876 224.861189 
L 146.055664 224.527569 
L 146.259452 224.611411 
L 146.46324 223.489678 
L 147.48218 221.975932 
L 147.889756 221.91085 
L 148.093544 222.512023 
L 148.50112 224.384856 
L 148.704908 224.081324 
L 148.908696 222.774146 
L 149.112484 222.675313 
L 149.316272 222.771434 
L 149.723848 222.520245 
L 150.131424 221.607772 
L 150.335212 221.593632 
L 150.539 221.971008 
L 150.742788 222.784533 
L 150.946576 224.342998 
L 151.761728 225.104664 
L 152.169304 225.964762 
L 152.373092 226.160797 
L 152.57688 226.105596 
L 153.59582 226.866238 
L 153.799608 226.328826 
L 154.003396 226.468886 
L 154.410972 226.018303 
L 154.818548 226.274682 
L 155.022336 225.809018 
L 155.226124 226.118478 
L 155.6337 224.56217 
L 155.837488 224.763161 
L 156.041276 224.532284 
L 156.448852 222.407483 
L 156.856428 222.02791 
L 157.264004 222.627692 
L 157.467792 223.424723 
L 157.67158 223.420299 
L 158.079156 223.850213 
L 158.486732 226.164624 
L 158.894308 226.362312 
L 159.301884 226.014184 
L 159.505672 226.113596 
L 159.70946 225.460227 
L 160.524612 225.835107 
L 160.932188 225.609786 
L 161.135976 225.844917 
L 161.339764 225.232425 
L 161.543552 225.233797 
L 161.74734 226.336803 
L 161.951128 225.939286 
L 162.562492 225.723083 
L 162.76628 225.906472 
L 162.970068 225.691797 
L 163.173856 225.882508 
L 163.377644 226.697418 
L 163.581432 226.712109 
L 163.78522 226.531705 
L 164.192796 226.999452 
L 164.396584 226.954538 
L 164.600372 226.434838 
L 164.80416 226.330104 
L 165.007948 226.552914 
L 165.415524 226.072975 
L 165.8231 226.362484 
L 166.026888 226.255737 
L 166.230676 226.351037 
L 166.434464 226.32153 
L 166.84204 226.702998 
L 167.249616 226.870515 
L 167.657192 225.501392 
L 167.86098 225.638743 
L 168.268556 223.535473 
L 168.87992 224.20367 
L 169.083708 224.083575 
L 169.287496 224.097607 
L 169.491284 224.618126 
L 169.695072 224.609114 
L 169.89886 224.468719 
L 170.306436 226.260973 
L 170.9178 224.854359 
L 171.325376 224.770526 
L 171.529164 224.946635 
L 171.732952 225.877063 
L 171.93674 225.589126 
L 172.140528 225.548211 
L 172.548103 225.782383 
L 172.751891 226.490237 
L 172.955679 226.191096 
L 173.159467 226.243116 
L 173.770831 225.60495 
L 173.974619 226.04854 
L 174.382195 226.129246 
L 174.585983 225.834492 
L 174.789771 226.025911 
L 175.197347 226.876554 
L 175.401135 227.246548 
L 175.604923 227.221717 
L 175.808711 227.369552 
L 176.012499 226.907738 
L 176.216287 226.796066 
L 176.420075 226.525967 
L 176.623863 226.968279 
L 176.827651 227.061294 
L 177.235227 226.308218 
L 177.439015 226.112749 
L 178.050379 226.244619 
L 178.254167 226.096411 
L 178.457955 225.266872 
L 178.661743 225.59848 
L 178.865531 225.378462 
L 179.069319 225.826367 
L 179.273107 225.452447 
L 179.476895 225.407946 
L 179.680683 225.210018 
L 179.884471 224.832521 
L 180.292047 225.581919 
L 180.495835 226.885885 
L 180.903411 226.524166 
L 181.107199 226.41418 
L 181.310987 226.840237 
L 181.514775 226.820404 
L 181.922351 227.650442 
L 182.737503 227.188683 
L 182.941291 227.255255 
L 183.145079 227.448744 
L 183.348867 227.437545 
L 183.552655 227.820819 
L 183.756443 227.363433 
L 184.367807 227.436075 
L 184.775383 227.766948 
L 184.979171 227.62433 
L 185.182959 226.841352 
L 185.386747 226.826716 
L 185.590535 226.698121 
L 185.794323 226.903375 
L 185.998111 226.490903 
L 186.405687 226.728929 
L 186.609475 225.922069 
L 186.813263 225.855272 
L 187.017051 226.216763 
L 187.220839 225.823247 
L 187.424627 225.855031 
L 187.628415 224.606632 
L 187.832203 224.771719 
L 188.035991 225.095941 
L 188.443567 225.099394 
L 188.647355 225.693986 
L 188.851143 225.235267 
L 189.054931 225.264846 
L 189.258719 226.333481 
L 189.462507 225.680551 
L 189.666295 226.906045 
L 189.870083 224.99332 
L 190.073871 224.765604 
L 190.277659 223.901714 
L 190.481447 223.795378 
L 190.889023 224.277467 
L 191.092811 223.555092 
L 191.296599 223.600215 
L 191.500387 223.958189 
L 191.704175 223.974667 
L 191.907963 225.735227 
L 192.111751 226.01404 
L 192.315539 226.562979 
L 192.723115 226.7567 
L 192.926903 226.808256 
L 193.130691 227.396784 
L 193.334479 227.039298 
L 193.538267 227.361286 
L 193.742055 226.990876 
L 193.945843 227.014271 
L 194.149631 226.91472 
L 194.353419 227.222614 
L 194.557207 227.241255 
L 194.760995 226.420778 
L 195.168571 226.116503 
L 195.576147 226.264339 
L 195.779935 226.704451 
L 196.187511 227.093006 
L 196.391299 226.899144 
L 196.595087 226.105022 
L 196.798875 226.944216 
L 197.002663 227.157948 
L 197.206451 226.749369 
L 197.410239 227.036329 
L 197.614027 226.463522 
L 198.021603 225.934713 
L 198.225391 225.414012 
L 198.429179 225.373157 
L 198.632967 225.820134 
L 198.836755 225.675831 
L 199.040543 225.3299 
L 199.244331 225.853569 
L 199.448119 225.687028 
L 199.651907 226.064098 
L 200.874635 226.780265 
L 201.078423 227.25498 
L 201.28221 226.608614 
L 201.485998 226.510611 
L 202.097362 226.796341 
L 202.30115 226.87601 
L 202.504938 226.808666 
L 202.708726 227.153141 
L 202.912514 226.564698 
L 203.116302 226.62358 
L 203.32009 227.425007 
L 203.727666 226.84461 
L 203.931454 226.822733 
L 204.135242 226.598686 
L 204.542818 226.933157 
L 204.746606 226.687658 
L 204.950394 227.379331 
L 205.154182 227.372985 
L 205.35797 227.2115 
L 205.561758 227.999381 
L 205.765546 227.992067 
L 205.969334 227.803302 
L 206.173122 228.240115 
L 206.37691 227.264412 
L 207.192062 227.3196 
L 207.599638 227.23487 
L 208.007214 227.842313 
L 208.211002 227.597289 
L 208.41479 228.45819 
L 208.618578 227.860619 
L 208.822366 228.09539 
L 209.229942 227.927635 
L 209.43373 228.098061 
L 209.637518 227.976387 
L 209.841306 227.652635 
L 210.045094 227.680101 
L 210.45267 227.368295 
L 210.656458 227.893738 
L 210.860246 227.639179 
L 211.267822 227.679348 
L 211.675398 227.172549 
L 211.879186 227.181449 
L 212.082974 226.71174 
L 212.49055 227.085437 
L 213.101914 227.263487 
L 213.305702 227.006218 
L 213.50949 227.003722 
L 213.917066 227.322635 
L 214.120854 227.88942 
L 214.324642 228.026032 
L 214.52843 227.879169 
L 214.732218 227.877614 
L 215.139794 227.516376 
L 215.751158 228.241429 
L 215.954946 228.328091 
L 216.56631 228.146455 
L 216.770098 226.989178 
L 217.177674 227.072087 
L 217.789038 226.75712 
L 217.992826 226.823031 
L 218.196614 226.070944 
L 218.60419 226.331719 
L 218.807978 227.430765 
L 219.011766 227.381634 
L 219.215554 227.524432 
L 219.419342 227.530643 
L 219.62313 227.846842 
L 219.826918 227.528247 
L 220.030706 227.471933 
L 220.234494 228.283657 
L 221.049646 228.487523 
L 221.253434 227.726777 
L 221.457222 227.950684 
L 221.66101 227.899373 
L 222.068586 227.664166 
L 222.272374 227.03744 
L 222.67995 227.210105 
L 222.883738 225.539729 
L 223.087526 225.143065 
L 223.291314 225.547231 
L 223.495102 225.609605 
L 223.69889 225.268723 
L 223.902678 225.747119 
L 224.106466 225.722943 
L 224.310254 226.185813 
L 224.71783 225.976525 
L 224.921618 227.563635 
L 225.329194 228.374088 
L 225.532982 228.401278 
L 225.73677 228.609745 
L 225.940558 228.406326 
L 227.163286 228.779684 
L 227.367074 228.79005 
L 227.77465 228.337482 
L 227.978438 227.798964 
L 228.182226 227.686628 
L 228.386014 227.743057 
L 228.997378 226.788423 
L 229.201166 226.755231 
L 229.404954 226.504838 
L 229.608742 226.56272 
L 229.81253 227.025729 
L 230.016318 227.796793 
L 230.627681 227.652043 
L 231.035257 228.194935 
L 231.239045 227.802653 
L 231.442833 227.966659 
L 232.054197 227.593815 
L 232.257985 227.809937 
L 232.461773 227.655303 
L 232.665561 227.863978 
L 232.869349 227.42946 
L 233.073137 227.336541 
L 233.276925 227.437715 
L 233.480713 227.098492 
L 233.684501 227.289294 
L 233.888289 226.992104 
L 234.295865 226.944721 
L 234.499653 227.214281 
L 234.703441 226.93045 
L 235.314805 227.952434 
L 235.518593 228.294615 
L 235.926169 228.351466 
L 236.129957 228.520674 
L 236.537533 228.356651 
L 236.741321 228.73759 
L 237.352685 227.555123 
L 237.556473 227.69193 
L 237.760261 227.171526 
L 237.964049 227.522695 
L 238.167837 227.396479 
L 238.575413 227.494016 
L 238.779201 227.457729 
L 238.982989 227.832931 
L 239.186777 227.944932 
L 239.390565 228.257295 
L 239.594353 228.091024 
L 239.798141 228.502275 
L 240.409505 227.625147 
L 240.613293 226.698469 
L 240.817081 226.717469 
L 241.224657 226.971241 
L 241.428445 226.465837 
L 241.632233 226.609644 
L 241.836021 226.488723 
L 242.447385 227.116227 
L 242.651173 227.960042 
L 243.058749 227.563298 
L 243.262537 227.698205 
L 243.466325 228.100199 
L 244.077689 227.354811 
L 244.281477 227.65319 
L 244.485265 227.659926 
L 245.096629 228.335004 
L 245.504205 227.72878 
L 246.115569 228.864361 
L 247.134509 228.619342 
L 247.542085 229.004328 
L 247.745873 228.915938 
L 247.949661 228.409015 
L 248.153449 228.507995 
L 248.357237 228.350652 
L 248.561025 228.466394 
L 248.764813 227.980081 
L 248.968601 228.190376 
L 249.579965 228.109486 
L 249.783753 228.121741 
L 249.987541 228.330363 
L 250.395117 228.19058 
L 250.598905 228.125607 
L 250.802693 228.535509 
L 251.006481 228.217527 
L 251.210269 228.107364 
L 251.617845 227.650749 
L 251.821633 227.513621 
L 252.025421 227.559411 
L 252.229209 226.963537 
L 252.636785 226.986503 
L 253.044361 227.118779 
L 253.451937 226.804321 
L 254.063301 226.911618 
L 254.470877 226.27944 
L 254.674665 225.794263 
L 254.878453 225.776406 
L 255.082241 225.149096 
L 255.693605 226.195697 
L 256.101181 226.295292 
L 256.508757 227.664233 
L 256.916333 227.599799 
L 257.120121 228.306013 
L 257.323909 228.146976 
L 257.527697 228.391631 
L 257.731485 228.1445 
L 258.139061 227.342307 
L 258.342849 227.485006 
L 258.546637 227.475714 
L 258.750425 227.91068 
L 259.361788 228.206475 
L 259.565576 228.286015 
L 259.973152 228.080901 
L 260.380728 228.629246 
L 260.584516 228.04697 
L 260.992092 228.070591 
L 261.19588 227.80285 
L 261.603456 226.829104 
L 261.807244 226.950677 
L 262.011032 227.350482 
L 262.21482 227.308089 
L 262.418608 227.077586 
L 262.622396 227.614838 
L 263.029972 226.97711 
L 263.23376 227.061907 
L 263.437548 227.776853 
L 264.048912 228.351429 
L 264.2527 228.06597 
L 264.456488 228.151386 
L 264.660276 228.052949 
L 265.27164 228.778376 
L 265.679216 227.365861 
L 266.086792 227.028127 
L 266.494368 227.58459 
L 266.901944 227.535709 
L 267.30952 227.140648 
L 267.717096 228.573125 
L 267.920884 228.832006 
L 268.124672 228.777637 
L 268.532248 228.192489 
L 268.939824 228.473633 
L 269.143612 228.227361 
L 269.3474 228.451047 
L 269.958764 228.230238 
L 270.162552 228.396715 
L 270.570128 227.798514 
L 270.773916 227.73343 
L 270.977704 227.107587 
L 271.181492 227.524852 
L 271.38528 227.603229 
L 271.589068 227.338703 
L 271.792856 227.488847 
L 272.200432 226.966145 
L 272.40422 227.273424 
L 273.015584 226.729583 
L 273.219372 226.72711 
L 273.42316 226.300777 
L 273.626948 225.420489 
L 273.830736 225.346568 
L 274.034524 225.544707 
L 274.238312 225.377021 
L 274.645888 226.300578 
L 274.849676 226.487732 
L 275.053464 227.369174 
L 275.257252 227.06262 
L 275.46104 227.448356 
L 275.664828 228.412397 
L 276.683768 228.696872 
L 276.887556 228.327921 
L 277.702708 228.647764 
L 278.110284 228.504051 
L 278.314072 228.852828 
L 278.721648 228.608113 
L 279.129224 228.617192 
L 279.333012 228.812133 
L 279.5368 228.427243 
L 279.944376 228.378151 
L 280.148164 228.61959 
L 280.759528 228.591135 
L 280.963316 228.811543 
L 281.370892 228.779051 
L 281.57468 228.962373 
L 281.778468 228.992239 
L 282.186044 228.662533 
L 282.389832 228.69598 
L 282.797408 228.194944 
L 283.408772 228.253477 
L 283.61256 228.602233 
L 283.816348 228.504365 
L 284.020136 228.7877 
L 284.427712 228.873929 
L 284.6315 228.615249 
L 284.835288 228.97373 
L 285.039076 229.047177 
L 285.242864 228.320775 
L 285.446652 228.442154 
L 285.65044 228.360015 
L 285.854228 228.449304 
L 286.465592 228.063347 
L 286.66938 228.616593 
L 286.873168 228.648241 
L 287.076956 228.528853 
L 287.280744 228.934729 
L 287.68832 227.841966 
L 287.892108 227.847048 
L 288.095896 228.031995 
L 288.299683 227.933274 
L 288.503471 228.113497 
L 288.911047 227.949986 
L 289.318623 228.171092 
L 289.522411 228.48607 
L 289.726199 229.035386 
L 289.929987 229.239289 
L 290.133775 229.188552 
L 290.337563 229.287959 
L 290.541351 229.170261 
L 290.745139 229.303349 
L 290.948927 229.267059 
L 291.152715 229.385413 
L 291.356503 229.358867 
L 291.560291 229.446894 
L 291.764079 229.376619 
L 291.967867 228.523755 
L 292.375443 228.598314 
L 292.783019 228.661055 
L 292.986807 228.529748 
L 293.394383 228.611798 
L 293.801959 228.170945 
L 294.005747 228.537975 
L 294.209535 228.616683 
L 294.617111 227.221499 
L 294.820899 227.164794 
L 295.024687 227.354369 
L 295.228475 227.123769 
L 295.636051 227.628375 
L 295.839839 227.709808 
L 296.043627 227.980999 
L 296.247415 227.813395 
L 296.654991 229.156864 
L 297.266355 229.117774 
L 297.470143 228.811995 
L 298.081507 228.671008 
L 298.489083 228.75109 
L 298.896659 228.619372 
L 299.304235 228.205138 
L 299.508023 228.452722 
L 299.711811 228.424174 
L 299.915599 228.266222 
L 300.119387 228.498375 
L 300.323175 228.552239 
L 300.526963 228.270448 
L 300.934539 228.500332 
L 301.342115 228.679018 
L 301.545903 228.455439 
L 301.749691 228.564906 
L 301.953479 228.821216 
L 302.157267 228.585383 
L 302.361055 228.623756 
L 302.564843 228.834822 
L 302.768631 228.613856 
L 302.972419 228.705522 
L 303.176207 228.494029 
L 303.379995 228.710436 
L 303.991359 228.417378 
L 304.195147 228.545464 
L 304.398935 228.446314 
L 305.010299 228.552815 
L 305.214087 227.826018 
L 305.621663 227.716766 
L 305.825451 227.92855 
L 306.029239 227.818252 
L 306.233027 227.929482 
L 306.844391 227.748743 
L 307.048179 227.495124 
L 307.251967 228.562164 
L 307.455755 228.36024 
L 307.659543 228.707249 
L 307.863331 228.353487 
L 308.067119 228.561754 
L 308.270907 228.281725 
L 308.678483 228.436269 
L 308.882271 228.689503 
L 309.086059 228.620186 
L 309.697423 228.777635 
L 309.901211 228.946935 
L 310.512575 228.498825 
L 311.531515 228.325363 
L 311.735303 228.312726 
L 312.142879 228.517675 
L 312.346667 228.80014 
L 312.958031 228.452986 
L 313.365607 228.954455 
L 313.569395 229.022097 
L 313.773183 228.85704 
L 313.976971 228.864634 
L 314.180759 228.679637 
L 314.588335 228.936798 
L 314.792123 228.877971 
L 315.199699 228.979994 
L 315.607275 228.903985 
L 316.014851 229.2719 
L 316.218639 229.437065 
L 316.626215 229.263838 
L 317.237578 229.208276 
L 317.441366 229.286279 
L 318.05273 228.810148 
L 318.460306 228.966932 
L 318.664094 228.482971 
L 319.07167 228.778225 
L 319.479246 228.513843 
L 319.683034 228.263054 
L 319.886822 228.249042 
L 320.09061 227.820143 
L 320.294398 227.731788 
L 320.498186 226.90401 
L 320.701974 227.502521 
L 321.10955 227.343652 
L 321.517126 227.498637 
L 321.924702 227.564567 
L 322.12849 228.155692 
L 322.332278 227.882007 
L 322.536066 228.7184 
L 322.739854 228.245731 
L 322.943642 227.345937 
L 323.14743 227.061262 
L 323.555006 227.378246 
L 323.758794 227.734077 
L 323.962582 227.797323 
L 324.16637 227.684217 
L 324.370158 228.001258 
L 324.573946 227.966109 
L 324.777734 228.503872 
L 324.981522 229.553063 
L 325.18531 229.943234 
L 325.592886 229.43743 
L 325.796674 229.311937 
L 326.408038 229.579335 
L 326.815614 229.319579 
L 327.019402 229.349972 
L 327.22319 229.094998 
L 327.426978 229.181285 
L 327.834554 228.824612 
L 328.24213 228.808035 
L 328.649706 228.598599 
L 328.853494 228.630462 
L 329.26107 228.413764 
L 329.464858 228.333132 
L 329.872434 228.693082 
L 330.076222 228.73717 
L 330.483798 228.552964 
L 330.687586 228.106419 
L 330.891374 228.126157 
L 331.095162 228.285543 
L 331.29895 228.704017 
L 331.910314 228.919384 
L 332.114102 228.814742 
L 332.521678 229.064705 
L 332.725466 229.724133 
L 332.929254 229.850627 
L 333.33683 229.582111 
L 333.744406 229.621964 
L 334.35577 229.313958 
L 334.559558 229.13008 
L 334.763346 228.771734 
L 334.967134 228.658536 
L 335.170922 228.727469 
L 335.986074 227.862788 
L 336.189862 227.9744 
L 336.39365 227.936537 
L 336.801226 228.583254 
L 337.208802 228.394756 
L 337.41259 228.797286 
L 338.023954 229.254831 
L 338.227742 228.680624 
L 338.43153 228.705868 
L 338.635318 228.46399 
L 339.042894 228.48953 
L 339.246682 228.27093 
L 339.45047 227.738186 
L 339.654258 227.626782 
L 339.858046 227.227124 
L 340.061834 227.32984 
L 340.265622 227.99538 
L 340.46941 227.662145 
L 340.673198 227.852224 
L 340.876986 227.672965 
L 341.080774 227.87989 
L 341.284562 227.847404 
L 341.48835 228.447379 
L 341.692138 228.400551 
L 341.895926 228.728708 
L 342.303502 228.626204 
L 342.50729 228.852142 
L 342.711078 228.731039 
L 342.914866 228.896927 
L 343.118654 228.756975 
L 343.322442 229.097856 
L 343.52623 229.035053 
L 344.54517 228.086263 
L 344.748958 228.357814 
L 344.952746 228.220406 
L 345.156534 228.361834 
L 345.56411 228.218775 
L 345.971686 229.114109 
L 346.175473 229.288713 
L 346.379261 228.897645 
L 346.583049 229.086761 
L 346.990625 228.534559 
L 348.009565 228.204509 
L 348.417141 227.864485 
L 348.620929 227.271983 
L 349.028505 227.738315 
L 349.436081 227.336567 
L 350.251233 227.669164 
L 350.658809 228.591803 
L 350.862597 228.57544 
L 351.066385 228.721988 
L 351.270173 228.536562 
L 351.473961 228.716746 
L 351.677749 228.719731 
L 351.881537 228.29748 
L 352.085325 228.375304 
L 352.289113 228.080479 
L 352.492901 228.150489 
L 352.696689 228.031052 
L 352.900477 227.657203 
L 353.104265 227.617637 
L 353.308053 227.891701 
L 353.715629 227.49682 
L 353.919417 227.650912 
L 354.123205 227.607616 
L 354.326993 227.970833 
L 354.938357 227.500929 
L 355.142145 227.567033 
L 355.345933 227.826016 
L 355.549721 227.586709 
L 355.753509 227.893412 
L 355.957297 227.94188 
L 356.161085 228.154052 
L 356.364873 228.147747 
L 356.568661 228.345762 
L 356.976237 229.337243 
L 357.180025 229.246029 
L 357.383813 228.942589 
L 357.587601 229.289633 
L 357.791389 229.250659 
L 357.995177 229.450162 
L 358.402753 229.293644 
L 358.606541 229.344948 
L 358.810329 228.93404 
L 359.421693 228.833647 
L 359.625481 228.995391 
L 360.033057 228.702528 
L 360.236845 228.762784 
L 360.440633 228.584351 
L 360.644421 228.011213 
L 360.848209 228.207861 
L 361.255785 228.765778 
L 361.459573 228.925772 
L 361.867149 227.658587 
L 362.070937 227.440863 
L 362.274725 227.423061 
L 362.478513 227.518194 
L 362.682301 227.292481 
L 363.497453 227.137891 
L 364.108817 228.903824 
L 364.312605 228.886724 
L 364.516393 228.253085 
L 364.720181 228.811864 
L 365.127757 228.225048 
L 365.739121 228.266915 
L 365.942909 228.168111 
L 366.146697 227.936404 
L 366.350485 228.317982 
L 366.758061 229.341887 
L 367.165637 230.182013 
L 367.369425 229.709314 
L 367.777001 229.923266 
L 367.980789 229.835262 
L 368.184577 229.911799 
L 368.388365 229.801505 
L 368.592153 230.127125 
L 368.795941 229.788666 
L 368.999729 229.897429 
L 369.203517 229.679141 
L 369.407305 230.142885 
L 369.611093 229.931092 
L 369.814881 230.081463 
L 370.018669 230.083445 
L 370.222457 230.270586 
L 370.630033 229.552124 
L 370.833821 229.676136 
L 371.241397 229.458598 
L 372.056549 230.573081 
L 372.464125 230.38221 
L 373.075489 231.216749 
L 373.279277 231.375657 
L 373.483065 230.9546 
L 373.686853 230.954866 
L 374.094429 230.640367 
L 374.298217 229.728816 
L 374.502005 229.712632 
L 374.705793 229.436735 
L 375.113369 229.238472 
L 375.317156 228.956477 
L 375.520944 229.150631 
L 376.132308 228.875443 
L 376.539884 229.964743 
L 376.743672 230.506508 
L 376.94746 230.470638 
L 377.151248 230.2306 
L 377.355036 230.805644 
L 377.558824 231.046167 
L 377.762612 230.977045 
L 377.9664 231.088975 
L 378.373976 231.716123 
L 378.577764 231.191334 
L 378.781552 230.988563 
L 379.392916 231.281048 
L 379.596704 231.143114 
L 380.00428 231.570041 
L 380.208068 231.34517 
L 380.411856 231.542825 
L 380.615644 232.132714 
L 380.819432 231.916463 
L 381.430796 232.345048 
L 381.634584 231.863347 
L 381.838372 232.114745 
L 382.04216 231.871496 
L 382.245948 231.933911 
L 382.449736 231.624715 
L 382.653524 231.547717 
L 383.264888 232.103943 
L 383.468676 231.642335 
L 383.672464 232.276005 
L 383.876252 232.289 
L 384.691404 233.787945 
L 384.895192 233.948691 
L 385.09898 233.746778 
L 385.302768 233.72654 
L 385.710344 234.387034 
L 385.914132 234.374622 
L 386.11792 233.943394 
L 386.729284 234.37582 
L 386.933072 234.815218 
L 387.13686 234.905824 
L 387.544436 235.39428 
L 387.748224 234.834878 
L 387.952012 234.914804 
L 388.1558 235.418971 
L 388.359588 235.487572 
L 388.563376 235.316586 
L 388.767164 235.393461 
L 388.970952 234.69474 
L 389.378528 235.022537 
L 389.582316 235.209094 
L 389.786104 235.987096 
L 389.989892 236.265716 
L 390.19368 235.278163 
L 390.397468 235.206717 
L 390.601256 235.318828 
L 391.21262 236.636835 
L 391.416408 236.311101 
L 391.620196 235.494552 
L 391.823984 235.59729 
L 392.027772 235.100636 
L 392.23156 235.764848 
L 392.435348 235.90519 
L 392.639136 236.210452 
L 392.842924 235.979288 
L 393.2505 235.170676 
L 393.454288 235.620981 
L 393.861864 235.21762 
L 394.065652 235.351341 
L 394.473228 236.735386 
L 394.880804 236.516747 
L 395.084592 236.832728 
L 395.28838 236.934287 
L 395.492168 236.237684 
L 395.695956 237.569166 
L 396.103532 238.639962 
L 396.30732 238.485869 
L 396.511108 237.833253 
L 396.714896 238.423314 
L 396.918684 238.265041 
L 397.530048 239.608277 
L 397.733836 239.085702 
L 397.937624 238.904598 
L 398.141412 237.684518 
L 398.3452 238.167548 
L 398.548988 238.363576 
L 398.752776 237.939197 
L 398.956564 238.361771 
L 399.160352 237.653544 
L 399.567928 237.219802 
L 399.771716 237.609346 
L 399.975504 237.44807 
L 400.179292 238.470809 
L 400.586868 237.884314 
L 400.790656 238.108494 
L 400.994444 238.146984 
L 401.40202 240.089735 
L 401.605808 240.695475 
L 401.809596 240.808784 
L 402.217172 241.640115 
L 402.624748 241.702324 
L 402.828536 242.11034 
L 403.032324 242.858009 
L 403.236112 241.999891 
L 403.4399 241.666842 
L 403.847476 241.510572 
L 404.051264 241.065321 
L 404.255051 239.966919 
L 404.458839 240.089407 
L 404.662627 241.120066 
L 404.866415 241.259199 
L 405.070203 240.598411 
L 405.885355 242.975763 
L 406.496719 245.534093 
L 406.700507 245.798858 
L 406.904295 245.546822 
L 407.108083 245.650519 
L 407.311871 246.01833 
L 407.515659 246.022338 
L 407.719447 245.795111 
L 407.923235 244.525343 
L 408.127023 244.165395 
L 408.330811 244.968293 
L 408.534599 244.755456 
L 408.738387 244.885455 
L 408.942175 244.753724 
L 409.145963 245.049698 
L 409.349751 246.119964 
L 409.553539 246.28328 
L 409.757327 246.719524 
L 410.164903 249.966186 
L 410.368691 249.640621 
L 410.572479 250.257328 
L 410.776267 250.279448 
L 410.980055 250.663798 
L 411.183843 251.630193 
L 411.387631 250.184286 
L 411.591419 250.312083 
L 411.795207 250.84492 
L 411.998995 250.203666 
L 412.406571 247.62 
L 412.610359 247.924902 
L 413.017935 247.832938 
L 413.221723 246.226796 
L 413.629299 246.86418 
L 414.036875 247.059194 
L 414.240663 247.534536 
L 414.444451 249.034156 
L 414.648239 248.1788 
L 414.852027 245.942857 
L 415.055815 245.169651 
L 415.259603 241.635572 
L 415.463391 240.500576 
L 415.667179 240.191377 
L 415.870967 240.222832 
L 416.278543 237.403223 
L 416.482331 233.771832 
L 416.686119 233.092283 
L 416.889907 234.666042 
L 417.093695 230.549119 
L 417.501271 237.125027 
L 417.908847 234.487618 
L 418.316423 236.872686 
L 418.520211 239.962206 
L 418.723999 239.786031 
L 418.927787 240.470235 
L 419.131575 245.168919 
L 419.335363 245.163137 
L 419.539151 243.838247 
L 419.946727 246.461938 
L 420.150515 246.352374 
L 420.354303 247.412823 
L 420.558091 247.53315 
L 420.761879 248.675321 
L 420.965667 248.476734 
L 421.780819 252.732644 
L 421.984607 253.013405 
L 422.595971 254.454343 
L 422.799759 254.835834 
L 423.003547 254.891779 
L 423.207335 254.819726 
L 423.411123 255.004014 
L 424.022487 253.55826 
L 424.430063 252.224723 
L 424.633851 252.597168 
L 424.837639 252.268699 
L 425.041427 253.372648 
L 425.245215 251.251675 
L 425.449003 250.474729 
L 425.652791 250.696233 
L 425.856579 249.97908 
L 426.060367 250.055782 
L 426.467943 249.722478 
L 426.875519 250.224294 
L 427.079307 250.136052 
L 427.283095 251.250753 
L 427.486883 251.415291 
L 427.690671 251.90572 
L 427.894459 253.283185 
L 428.098247 253.567612 
L 428.302035 252.758082 
L 429.117187 255.461379 
L 429.320975 255.460576 
L 429.524763 256.190326 
L 429.728551 256.023286 
L 430.136127 256.653507 
L 430.339915 258.429595 
L 430.543703 258.664501 
L 430.747491 257.277111 
L 430.951279 256.964833 
L 431.155067 256.319403 
L 431.358855 256.963757 
L 431.562643 256.77466 
L 432.174007 257.416169 
L 432.377795 256.368665 
L 432.581583 256.681705 
L 432.785371 257.872295 
L 432.989159 257.60723 
L 433.396734 258.61697 
L 433.600522 258.461005 
L 434.008098 257.026512 
L 434.211886 256.349585 
L 434.415674 257.9768 
L 434.619462 256.751544 
L 434.82325 257.458126 
L 435.230826 254.813398 
L 435.638402 255.992237 
L 435.84219 256.759074 
L 436.045978 257.087704 
L 436.249766 257.662877 
L 436.453554 257.158056 
L 436.657342 257.30778 
L 436.86113 255.548596 
L 437.064918 257.654351 
L 437.268706 258.27015 
L 437.676282 257.572769 
L 437.88007 257.603378 
L 438.287646 258.464281 
L 438.491434 258.300025 
L 438.89901 260.334554 
L 439.102798 260.632394 
L 439.306586 260.005525 
L 439.510374 260.027074 
L 439.714162 260.338549 
L 439.91795 261.102461 
L 440.121738 260.063416 
L 440.325526 260.046638 
L 440.733102 259.356986 
L 440.93689 259.41225 
L 441.140678 259.049593 
L 441.344466 260.052685 
L 441.548254 259.777525 
L 441.95583 256.999788 
L 442.159618 256.943521 
L 442.363406 256.365421 
L 442.567194 257.526469 
L 442.97477 256.859876 
L 443.178558 257.761497 
L 443.382346 255.814708 
L 443.586134 254.983822 
L 443.789922 255.278385 
L 443.99371 255.350652 
L 444.197498 254.519105 
L 444.401286 254.871821 
L 444.808862 256.441148 
L 445.01265 256.452897 
L 445.216438 254.471642 
L 445.420226 256.873273 
L 445.827802 257.675407 
L 446.03159 259.102652 
L 446.235378 259.050717 
L 446.439166 260.043763 
L 446.846742 256.325515 
L 447.05053 257.079362 
L 447.254318 258.6224 
L 447.458106 258.300573 
L 448.06947 260.0246 
L 448.273258 261.510817 
L 448.477046 260.645295 
L 448.680834 261.816928 
L 448.884622 263.862156 
L 449.08841 263.342777 
L 449.292198 263.718477 
L 449.495986 263.469697 
L 449.699774 264.418579 
L 449.903562 264.422966 
L 450.10735 264.172745 
L 450.311138 264.353097 
L 450.922502 264.125668 
L 451.12629 264.603916 
L 451.330078 262.91415 
L 451.533866 263.169371 
L 451.737654 263.011898 
L 451.941442 261.883604 
L 452.14523 261.832823 
L 452.349018 261.379526 
L 452.756594 263.238116 
L 452.960382 262.997694 
L 453.571746 264.704502 
L 453.775534 264.854483 
L 453.979322 266.085422 
L 454.386898 267.069835 
L 454.794474 265.202198 
L 454.998262 262.550204 
L 455.20205 261.378789 
L 455.405838 262.911055 
L 455.813414 262.241349 
L 456.017202 262.128681 
L 456.22099 262.156584 
L 456.424778 262.398692 
L 456.832354 260.726572 
L 457.23993 263.988416 
L 457.443718 263.847667 
L 457.851294 262.385612 
L 458.055082 262.002019 
L 458.462658 257.882588 
L 458.666446 259.485869 
L 458.870234 258.912637 
L 459.074022 259.169449 
L 459.27781 258.987836 
L 459.481598 259.158987 
L 459.685386 259.69436 
L 459.889174 259.861404 
L 460.092962 259.504288 
L 460.29675 261.84616 
L 460.500538 262.698331 
L 460.704326 261.147263 
L 461.111902 262.693182 
L 461.519478 262.154618 
L 461.723266 262.409359 
L 461.927054 263.585392 
L 462.742205 265.102194 
L 462.945993 265.918805 
L 463.557357 263.820612 
L 463.761145 264.618139 
L 463.964933 263.295644 
L 464.168721 263.928566 
L 464.372509 263.905792 
L 464.576297 264.095481 
L 464.780085 265.524378 
L 465.187661 266.540682 
L 465.391449 263.964428 
L 465.595237 264.841748 
L 465.799025 263.889695 
L 466.002813 265.337259 
L 466.206601 264.829455 
L 466.410389 263.522259 
L 466.614177 263.607335 
L 467.021753 261.528738 
L 467.225541 262.169779 
L 467.429329 265.567012 
L 467.836905 265.961689 
L 468.040693 264.659214 
L 468.244481 264.507772 
L 468.448269 265.718656 
L 468.652057 265.402319 
L 468.855845 266.278957 
L 469.059633 266.426483 
L 469.263421 266.263858 
L 469.467209 265.455899 
L 469.670997 265.6053 
L 469.874785 265.933574 
L 470.282361 267.111238 
L 470.689937 268.034366 
L 471.097513 268.164423 
L 471.301301 266.376242 
L 471.505089 267.310277 
L 471.708877 267.132158 
L 471.912665 266.583317 
L 472.116453 266.613908 
L 472.320241 266.893072 
L 472.524029 266.416608 
L 473.135393 266.81873 
L 473.339181 268.701012 
L 473.542969 268.861598 
L 473.950545 270.57112 
L 474.358121 269.287721 
L 474.969485 269.984625 
L 475.173273 269.695354 
L 475.580849 269.561163 
L 475.988425 267.141622 
L 476.396001 268.598758 
L 476.599789 267.674194 
L 476.803577 267.278659 
L 477.007365 267.355315 
L 477.211153 267.879842 
L 477.414941 267.562716 
L 477.618729 266.569744 
L 477.822517 266.364568 
L 478.026305 266.843275 
L 478.230093 266.908533 
L 478.433881 266.389553 
L 478.841457 264.022565 
L 479.045245 263.753551 
L 479.249033 264.322151 
L 479.452821 263.768444 
L 479.656609 265.12681 
L 479.860397 265.578559 
L 480.064185 266.66679 
L 480.267973 266.57737 
L 480.471761 266.333675 
L 480.675549 269.128533 
L 480.879337 270.159974 
L 481.083125 270.4546 
L 481.286913 269.408119 
L 481.490701 270.251518 
L 481.694489 268.047531 
L 481.898277 267.726736 
L 482.102065 265.768267 
L 482.305853 266.190815 
L 482.713429 262.687364 
L 482.917217 262.112402 
L 483.121005 262.402012 
L 483.324793 261.409125 
L 483.528581 261.021524 
L 484.139945 264.669709 
L 484.343733 264.250925 
L 484.751309 267.981812 
L 484.955097 268.858085 
L 485.158885 269.043518 
L 485.362673 269.568541 
L 485.566461 268.695971 
L 485.770249 269.419265 
L 486.177825 269.250362 
L 486.585401 270.008213 
L 486.789189 268.550517 
L 487.196765 268.302058 
L 487.604341 270.421293 
L 488.011917 271.209061 
L 488.215705 271.878754 
L 488.419493 270.876857 
L 488.827069 272.616752 
L 489.030857 272.11461 
L 489.438433 272.206558 
L 489.642221 272.980967 
L 489.846009 272.057073 
L 490.049797 272.598301 
L 490.253585 271.641802 
L 490.457373 272.517434 
L 490.661161 271.56649 
L 490.864949 271.235017 
L 491.068736 272.283912 
L 491.272524 271.734592 
L 491.476312 272.893736 
L 491.6801 272.567694 
L 491.883888 272.604156 
L 492.087676 272.276662 
L 492.291464 272.951891 
L 492.495252 271.090795 
L 492.69904 270.967816 
L 492.902828 272.00473 
L 493.106616 271.379983 
L 493.310404 272.012342 
L 493.514192 271.200531 
L 493.921768 273.293153 
L 494.125556 273.213689 
L 494.329344 272.704467 
L 494.533132 274.311926 
L 494.73692 274.237596 
L 494.940708 272.906477 
L 495.144496 272.573038 
L 495.348284 272.846996 
L 495.552072 272.371361 
L 495.959648 270.39667 
L 496.163436 270.458707 
L 496.367224 269.950824 
L 496.7748 271.970757 
L 496.978588 273.575419 
L 497.182376 273.536831 
L 497.386164 273.709858 
L 497.589952 273.292194 
L 497.997528 275.464545 
L 498.201316 275.242478 
L 498.405104 276.527901 
L 499.016468 273.527403 
L 499.220256 274.027934 
L 499.424044 273.404399 
L 499.627832 275.149631 
L 500.035408 272.141936 
L 500.239196 272.461638 
L 500.442984 272.17129 
L 500.85056 274.065061 
L 501.054348 274.193441 
L 501.461924 273.407207 
L 501.665712 271.246299 
L 501.8695 270.863286 
L 502.073288 272.719607 
L 502.277076 273.057093 
L 502.480864 273.11269 
L 502.684652 273.426698 
L 502.88844 274.329597 
L 503.092228 273.510829 
L 503.499804 273.680562 
L 503.90738 276.981946 
L 504.111168 276.570199 
L 504.314956 275.871169 
L 504.518744 276.399601 
L 504.722532 276.376938 
L 504.92632 276.665956 
L 505.130108 277.52127 
L 505.333896 276.178633 
L 505.537684 276.958447 
L 505.94526 274.876923 
L 506.149048 274.097074 
L 506.352836 275.107279 
L 506.556624 274.775128 
L 506.760412 272.51263 
L 506.9642 272.081209 
L 507.167988 272.08363 
L 507.371776 274.625427 
L 507.575564 274.640319 
L 507.98314 276.331868 
L 508.390716 275.269352 
L 508.594504 274.821221 
L 508.798292 276.958661 
L 509.205868 277.653137 
L 509.409656 277.575735 
L 509.817232 276.356206 
L 510.02102 276.338356 
L 510.224808 277.542853 
L 510.428596 278.026364 
L 510.632384 277.204256 
L 511.03996 278.464574 
L 511.447536 275.814076 
L 511.651324 276.809235 
L 511.855112 275.381295 
L 512.0589 276.279284 
L 512.262688 276.538517 
L 512.466476 275.821067 
L 512.670264 277.157716 
L 513.07784 275.589495 
L 513.281628 277.24321 
L 513.485416 277.919542 
L 513.689204 277.900568 
L 513.892992 280.09932 
L 514.09678 278.283922 
L 514.300568 277.588063 
L 514.504356 278.294522 
L 514.708144 275.999955 
L 514.911932 275.605427 
L 515.11572 276.105522 
L 515.319508 275.627266 
L 515.727084 273.7623 
L 515.930872 272.455017 
L 516.542236 274.448345 
L 516.746024 276.338854 
L 516.949812 276.951714 
L 517.1536 276.402318 
L 517.357388 274.4687 
L 517.561176 275.692864 
L 517.764964 275.566423 
L 517.968752 277.278935 
L 518.17254 277.268679 
L 518.376328 276.180868 
L 518.580116 276.11249 
L 519.19148 274.853509 
L 519.395268 277.08044 
L 519.599056 276.57063 
L 519.802844 277.288931 
L 520.006631 275.899228 
L 520.210419 275.687429 
L 520.414207 276.433287 
L 520.617995 276.31391 
L 520.821783 276.52096 
L 521.025571 276.546682 
L 521.229359 277.429223 
L 521.433147 277.740065 
L 521.636935 277.151757 
L 521.840723 277.55044 
L 522.044511 278.769098 
L 522.248299 279.086003 
L 522.452087 279.092535 
L 522.859663 280.14112 
L 523.063451 280.159438 
L 523.267239 280.778224 
L 523.674815 278.635824 
L 523.878603 278.919049 
L 524.082391 279.40932 
L 524.286179 279.096406 
L 524.693755 276.852814 
L 524.897543 277.415152 
L 525.101331 277.533008 
L 525.305119 277.431697 
L 525.508907 278.408544 
L 525.712695 280.570648 
L 525.916483 280.842048 
L 526.120271 279.936277 
L 526.527847 283.326578 
L 526.731635 284.239076 
L 526.935423 284.050874 
L 527.342999 281.490688 
L 527.546787 281.219343 
L 527.954363 283.371116 
L 528.158151 283.908377 
L 528.565727 283.534161 
L 528.769515 282.998049 
L 528.973303 283.89565 
L 529.380879 287.905483 
L 529.584667 288.789617 
L 529.788455 288.090013 
L 529.992243 286.288111 
L 530.399819 287.598886 
L 530.603607 287.696189 
L 530.807395 288.947644 
L 531.011183 288.997433 
L 531.214971 288.328096 
L 531.418759 288.062432 
L 531.622547 288.271148 
L 531.826335 286.577877 
L 532.030123 287.019251 
L 532.437699 286.886746 
L 532.641487 287.694294 
L 532.845275 286.118336 
L 533.049063 286.397677 
L 533.252851 285.856527 
L 533.456639 284.512259 
L 533.864215 286.007793 
L 534.068003 286.087065 
L 534.271791 286.482767 
L 534.475579 285.530997 
L 534.679367 286.041299 
L 534.883155 287.338894 
L 535.086943 286.147748 
L 535.290731 287.395403 
L 535.494519 289.596236 
L 535.698307 286.87339 
L 536.105883 290.344992 
L 536.513459 288.215914 
L 536.717247 286.092819 
L 536.921035 285.295074 
L 537.124823 286.824585 
L 537.328611 287.107601 
L 537.532399 286.970689 
L 537.736187 289.264346 
L 537.939975 288.13745 
L 538.143763 285.519071 
L 538.347551 285.417308 
L 538.958915 291.243072 
L 539.162703 291.149475 
L 539.366491 289.874257 
L 539.570279 289.712146 
L 539.774067 289.76894 
L 540.385431 294.423788 
L 540.793007 293.241168 
L 540.996795 294.292634 
L 541.200583 294.572011 
L 541.608159 295.61883 
L 541.811947 295.542561 
L 542.015735 295.296755 
L 542.219523 296.055688 
L 542.423311 295.085421 
L 542.830887 291.830201 
L 543.238463 290.022302 
L 543.442251 291.251871 
L 543.646039 290.794813 
L 543.849827 292.193046 
L 544.053615 290.533765 
L 544.257403 290.46583 
L 544.461191 290.90674 
L 544.868767 298.053352 
L 545.072555 297.357958 
L 545.276343 297.968943 
L 545.480131 299.419832 
L 545.683919 299.612724 
L 545.887707 298.940668 
L 546.091495 301.852358 
L 546.295283 299.83901 
L 546.499071 301.915131 
L 546.702859 299.882749 
L 546.906647 299.456764 
L 547.314223 302.776365 
L 547.518011 300.76086 
L 547.721799 301.152121 
L 547.925587 300.957106 
L 548.129375 301.785028 
L 548.333163 305.036192 
L 548.536951 304.747727 
L 548.740739 307.171475 
L 548.944527 307.138322 
L 549.148314 306.037444 
L 549.352102 305.948241 
L 549.55589 307.542565 
L 549.759678 306.372704 
L 549.963466 307.059769 
L 550.167254 306.622679 
L 550.371042 305.551396 
L 550.57483 307.43467 
L 550.778618 307.701543 
L 551.59377 313.25859 
L 551.797558 316.803878 
L 552.001346 318.347496 
L 552.205134 318.776777 
L 552.408922 319.689655 
L 552.61271 319.262713 
L 553.020286 321.35945 
L 553.224074 321.562613 
L 553.427862 322.643606 
L 553.63165 322.692628 
L 553.835438 322.592554 
L 554.039226 322.897672 
L 554.243014 323.60733 
L 554.446802 324.985724 
L 554.65059 325.406327 
L 554.854378 325.037923 
L 555.058166 323.988779 
L 555.465742 325.312092 
L 555.66953 325.759173 
L 556.077106 327.926365 
L 556.280894 328.505233 
L 556.484682 324.466885 
L 556.68847 324.703551 
L 557.096046 326.683095 
L 557.299834 325.020923 
L 557.503622 326.127371 
L 557.911198 326.795852 
L 558.114986 326.640076 
L 558.318774 327.829194 
L 558.522562 333.544731 
L 558.930138 336.490297 
L 559.133926 336.820502 
L 559.337714 339.878641 
L 559.74529 330.295515 
L 559.949078 329.486401 
L 560.152866 331.276599 
L 560.356654 331.399212 
L 560.560442 331.328649 
L 560.76423 329.34576 
L 560.968018 328.828652 
L 561.171806 329.654184 
L 561.375594 329.565728 
L 561.78317 338.375421 
L 561.986958 338.9137 
L 562.190746 337.043034 
L 562.394534 336.660299 
L 562.598322 334.598185 
L 562.80211 336.920762 
L 563.005898 336.951842 
L 563.209686 336.677808 
L 563.413474 336.085754 
L 563.617262 337.203096 
L 563.82105 338.988565 
L 564.024838 338.80212 
L 564.636202 344.456267 
L 564.83999 344.267099 
L 565.451354 346.581369 
L 565.655142 346.324892 
L 565.85893 341.716119 
L 566.062718 341.46179 
L 566.266506 340.897219 
L 566.470294 339.896053 
L 566.87787 336.830893 
L 567.081658 338.170236 
L 567.285446 338.69991 
L 567.489234 339.601511 
L 567.693022 339.18848 
L 568.100598 344.008421 
L 568.304386 344.195004 
L 568.508174 343.695746 
L 568.711962 344.212664 
L 568.91575 345.948511 
L 569.119538 345.144232 
L 569.323326 344.934985 
L 569.527114 346.026586 
L 569.730902 344.707772 
L 569.93469 346.950167 
L 570.138478 346.615971 
L 570.342266 345.896517 
L 570.749842 349.441517 
L 570.95363 349.522887 
L 571.361206 350.06571 
L 571.564994 350.107871 
L 571.768782 351.441222 
L 571.97257 350.881786 
L 572.176358 351.688916 
L 572.583934 350.719136 
L 572.787722 351.586464 
L 572.99151 350.973817 
L 573.602874 347.181748 
L 573.806662 348.185287 
L 574.01045 347.011822 
L 574.214238 345.061889 
L 574.621814 347.794319 
L 574.825602 346.962981 
L 575.436966 349.29565 
L 575.640754 350.576886 
L 575.844542 350.342733 
L 576.04833 350.691458 
L 576.252118 353.53027 
L 576.455906 353.890328 
L 576.659694 351.882316 
L 576.863482 351.328393 
L 577.06727 352.03807 
L 577.271058 352.122265 
L 577.678634 350.146691 
L 577.882422 350.475304 
L 578.086209 351.488322 
L 578.289997 350.090935 
L 578.493785 350.350279 
L 578.697573 350.313046 
L 578.901361 350.733009 
L 579.105149 349.246194 
L 579.308937 349.499625 
L 579.512725 351.03754 
L 579.716513 350.29109 
L 579.920301 347.851249 
L 580.124089 347.316931 
L 580.531665 342.946091 
L 580.735453 342.251097 
L 580.939241 342.427819 
L 581.143029 343.267662 
L 581.346817 343.571181 
L 581.550605 342.383547 
L 581.754393 339.611994 
L 581.958181 340.657107 
L 582.161969 337.876838 
L 582.365757 340.574045 
L 582.569545 341.206896 
L 582.773333 344.589474 
L 582.977121 345.152908 
L 583.384697 343.511909 
L 583.588485 344.478177 
L 583.792273 348.49124 
L 583.996061 350.230743 
L 584.199849 354.928743 
L 585.015001 348.132342 
L 585.218789 347.130812 
L 585.422577 347.827457 
L 585.626365 349.015003 
L 585.830153 347.150744 
L 586.237729 345.145177 
L 586.645305 350.155268 
L 586.849093 350.132401 
L 587.052881 349.495472 
L 587.256669 349.466979 
L 587.460457 350.798256 
L 587.664245 349.460619 
L 587.868033 351.735373 
L 588.071821 352.491852 
L 588.275609 350.071594 
L 588.479397 350.289611 
L 588.683185 349.497794 
L 588.886973 351.059751 
L 589.090761 354.20091 
L 589.294549 354.886541 
L 589.498337 354.164809 
L 589.702125 354.152705 
L 589.905913 353.470114 
L 590.109701 354.293334 
L 590.313489 357.647431 
L 590.517277 358.240317 
L 590.721065 357.179881 
L 590.924853 357.444757 
L 591.128641 353.794674 
L 591.332429 355.192185 
L 591.536217 353.47977 
L 591.740005 354.660377 
L 591.943793 354.986817 
L 592.147581 353.307598 
L 592.555157 354.498563 
L 592.758945 356.040558 
L 592.962733 355.683943 
L 593.166521 358.117025 
L 593.370309 358.937624 
L 593.574097 361.178828 
L 593.981673 361.82077 
L 594.185461 363.051439 
L 594.796825 360.201656 
L 595.000613 361.384041 
L 595.204401 361.530479 
L 595.611977 359.247809 
L 595.815765 357.293537 
L 596.019553 357.608044 
L 596.223341 356.51514 
L 596.427129 357.055254 
L 596.630917 356.62659 
L 596.834705 357.030348 
L 597.038493 355.563844 
L 597.242281 351.532379 
L 597.446069 352.340703 
L 597.853645 354.479536 
L 598.057433 354.428898 
L 598.465009 356.680609 
L 598.668797 356.219626 
L 599.076373 358.640371 
L 599.280161 359.373541 
L 599.483949 359.231317 
L 599.687737 359.490906 
L 599.891525 359.158723 
L 600.095313 359.372442 
L 600.299101 360.372424 
L 600.502889 358.138395 
L 600.706677 359.224423 
L 600.910465 359.382014 
L 601.114253 359.229996 
L 601.318041 363.072062 
L 601.521829 362.395827 
L 601.725617 361.191685 
L 601.929405 362.185909 
L 602.336981 359.377796 
L 602.540769 360.810504 
L 602.744557 361.21754 
L 602.948345 355.368338 
L 603.152133 355.688016 
L 603.355921 355.434696 
L 603.559709 353.474413 
L 603.763497 353.037676 
L 603.967285 353.168707 
L 604.171073 354.311967 
L 604.374861 353.786754 
L 604.578649 353.844613 
L 604.782437 351.932559 
L 604.986225 356.960319 
L 605.190013 356.357265 
L 605.393801 356.85773 
L 605.597589 359.038055 
L 605.801377 356.827052 
L 606.208953 355.546212 
L 606.412741 357.219324 
L 606.616529 357.236477 
L 606.820317 359.31813 
L 607.227892 360.880508 
L 607.43168 360.412601 
L 607.635468 361.38983 
L 607.839256 364.045689 
L 608.043044 364.05587 
L 608.246832 364.89361 
L 608.45062 362.580375 
L 608.858196 362.843057 
L 609.265772 361.080432 
L 609.46956 361.628939 
L 609.673348 361.312558 
L 610.080924 363.274367 
L 610.284712 363.122011 
L 610.4885 364.773533 
L 610.692288 363.861214 
L 610.896076 364.245203 
L 611.303652 365.801481 
L 611.711228 363.175707 
L 611.915016 362.97628 
L 612.322592 363.18045 
L 612.52638 362.95184 
L 612.730168 364.467403 
L 612.933956 363.401745 
L 613.137744 360.44074 
L 613.54532 359.009908 
L 613.749108 361.496091 
L 613.952896 361.917709 
L 614.156684 361.837305 
L 614.360472 362.422649 
L 614.56426 362.285918 
L 614.768048 361.077739 
L 614.971836 362.416941 
L 615.175624 365.535339 
L 615.379412 364.717757 
L 615.5832 367.250591 
L 616.60214 360.241472 
L 616.805928 360.180588 
L 617.213504 357.865347 
L 617.417292 359.436075 
L 617.62108 357.915062 
L 617.824868 357.919661 
L 618.028656 358.834133 
L 618.232444 360.741032 
L 618.436232 360.299246 
L 618.64002 362.444594 
L 618.843808 362.062041 
L 619.251384 364.262898 
L 619.455172 363.822814 
L 619.65896 364.00902 
L 619.862748 364.767217 
L 620.270324 364.665837 
L 620.474112 364.567607 
L 620.6779 364.253038 
L 620.881688 365.357973 
L 621.085476 365.619105 
L 621.289264 364.915287 
L 621.493052 365.087055 
L 621.69684 364.345695 
L 621.900628 364.337057 
L 622.308204 365.811906 
L 622.71578 365.659768 
L 623.123356 364.347293 
L 623.530932 364.042829 
L 623.73472 366.287971 
L 624.142296 361.314266 
L 624.346084 360.775351 
L 624.549872 360.722064 
L 624.75366 361.057977 
L 624.957448 360.386871 
L 625.161236 360.429184 
L 625.365024 360.955225 
L 625.568812 360.690602 
L 625.7726 357.808439 
L 625.976388 357.896331 
L 626.383964 360.248848 
L 626.587752 359.763918 
L 626.79154 360.516182 
L 626.995328 362.990667 
L 627.199116 362.477569 
L 627.402904 362.80685 
L 627.606692 363.543959 
L 627.81048 363.78468 
L 628.014268 364.278063 
L 628.421844 362.688852 
L 628.625632 363.832737 
L 628.82942 364.124006 
L 629.033208 362.68302 
L 629.644572 364.528097 
L 629.84836 366.900784 
L 630.052148 366.456629 
L 630.255936 367.039496 
L 630.663512 364.407123 
L 630.8673 363.756368 
L 631.071088 363.953159 
L 631.274876 363.494113 
L 631.88624 358.729864 
L 632.090028 361.015218 
L 632.293816 361.62511 
L 632.497604 363.945294 
L 632.701392 362.091834 
L 632.90518 362.284858 
L 633.312756 358.220585 
L 633.516544 359.087489 
L 633.720332 358.319923 
L 633.92412 356.166653 
L 634.127908 355.361843 
L 634.535484 356.819881 
L 634.739272 359.981106 
L 634.94306 359.250416 
L 635.146848 361.600533 
L 635.350636 360.820057 
L 635.554424 358.420702 
L 635.961999 364.730804 
L 636.165787 361.935983 
L 636.573363 360.557216 
L 636.777151 359.15377 
L 636.980939 359.435066 
L 637.184727 360.189985 
L 637.388515 363.87503 
L 637.592303 363.624374 
L 637.999879 361.626133 
L 638.203667 364.239051 
L 638.407455 364.21511 
L 638.611243 362.731733 
L 638.815031 364.037478 
L 639.018819 364.336922 
L 639.222607 364.100547 
L 639.426395 364.071615 
L 640.037759 369.456436 
L 640.241547 370.547603 
L 640.445335 370.683483 
L 640.649123 371.04316 
L 640.852911 371.105169 
L 641.056699 370.934 
L 641.260487 371.443015 
L 641.464275 371.176823 
L 641.668063 371.85276 
L 642.075639 370.651995 
L 642.279427 370.65687 
L 642.483215 370.376829 
L 642.687003 370.33078 
L 642.890791 370.463975 
L 643.094579 370.164758 
L 643.298367 368.736359 
L 643.502155 368.47813 
L 643.705943 367.060253 
L 644.113519 366.468409 
L 644.317307 365.007383 
L 644.724883 366.879403 
L 644.928671 365.668927 
L 645.336247 367.40346 
L 645.540035 367.27202 
L 645.743823 368.639344 
L 645.947611 368.479654 
L 646.151399 369.109543 
L 646.355187 371.158456 
L 646.762763 371.562543 
L 646.966551 371.860431 
L 647.170339 371.647563 
L 647.577915 369.758157 
L 647.781703 370.085178 
L 648.393067 366.414561 
L 648.596855 365.664318 
L 648.800643 365.723227 
L 649.004431 366.684623 
L 649.412007 365.011062 
L 649.615795 367.025636 
L 649.819583 365.287929 
L 650.023371 366.996808 
L 650.227159 367.302197 
L 650.430947 369.50681 
L 650.634735 370.384113 
L 650.838523 370.148172 
L 651.246099 366.363863 
L 651.449887 368.551677 
L 651.653675 366.687209 
L 651.857463 366.74959 
L 652.061251 364.5929 
L 652.265039 364.194711 
L 652.468827 363.154055 
L 652.672615 363.519702 
L 652.876403 363.526927 
L 653.283979 365.149531 
L 653.487767 363.665965 
L 653.895343 364.994946 
L 654.099131 367.250234 
L 654.302919 367.453384 
L 654.506707 367.361592 
L 654.710495 366.130713 
L 654.914283 366.246031 
L 655.118071 366.769821 
L 655.525647 370.504517 
L 655.729435 371.424488 
L 656.137011 370.802988 
L 656.340799 371.653908 
L 656.544587 371.059589 
L 656.748375 371.801482 
L 656.952163 371.293586 
L 657.155951 371.252474 
L 657.359739 370.627795 
L 657.563527 367.276117 
L 657.767315 366.946649 
L 657.971103 364.269763 
L 658.378679 365.09679 
L 658.582467 364.844517 
L 658.990043 363.235738 
L 659.193831 363.621109 
L 659.601407 365.288513 
L 659.805195 365.09174 
L 660.008983 368.505553 
L 660.416559 367.347175 
L 660.620347 368.388271 
L 660.824135 368.352205 
L 661.027923 370.66698 
L 661.435499 368.780314 
L 661.639287 370.754767 
L 661.843075 370.495173 
L 662.046863 370.792732 
L 662.658227 369.63881 
L 662.862015 369.797858 
L 663.065803 368.928695 
L 663.269591 369.837224 
L 663.473379 370.016333 
L 663.880955 371.537401 
L 664.084743 371.629907 
L 664.288531 371.452007 
L 664.492319 371.618023 
L 664.899894 371.135424 
L 665.103682 370.421602 
L 665.511258 372.540983 
L 665.715046 372.72477 
L 665.918834 372.161095 
L 666.122622 372.343281 
L 666.32641 370.454353 
L 667.34535 367.613415 
L 667.549138 366.774814 
L 667.752926 366.513768 
L 667.956714 366.605806 
L 668.160502 367.078061 
L 668.36429 370.279863 
L 668.568078 371.539497 
L 668.975654 372.278866 
L 669.179442 372.095462 
L 669.38323 372.522228 
L 669.790806 372.307866 
L 669.994594 371.702013 
L 670.605958 368.908913 
L 670.809746 368.643793 
L 671.217322 370.949601 
L 671.42111 370.621951 
L 671.828686 370.94045 
L 672.032474 373.200077 
L 672.236262 373.589446 
L 672.44005 372.869018 
L 672.847626 375.74283 
L 673.051414 375.120543 
L 673.45899 371.585768 
L 673.866566 370.888475 
L 674.070354 369.73589 
L 674.274142 370.091592 
L 674.47793 370.902692 
L 674.681718 370.863372 
L 675.089294 368.466125 
L 675.700658 372.565034 
L 675.904446 373.014722 
L 676.108234 371.370737 
L 676.312022 371.561303 
L 676.51581 371.542758 
L 676.719598 370.631114 
L 676.923386 372.001283 
L 677.127174 372.400637 
L 677.330962 370.112159 
L 677.53475 369.106857 
L 677.738538 370.018136 
L 677.942326 369.542384 
L 678.146114 371.009788 
L 678.349902 371.022705 
L 678.55369 370.352528 
L 678.757478 371.141468 
L 678.961266 371.191536 
L 679.165054 371.767351 
L 679.57263 376.323939 
L 679.776418 375.453623 
L 679.980206 375.200655 
L 680.183994 375.385606 
L 680.387782 375.310526 
L 680.59157 376.142791 
L 680.795358 375.301101 
L 680.999146 373.572708 
L 681.202934 373.605689 
L 681.406722 373.132441 
L 681.61051 371.008512 
L 681.814298 371.327648 
L 682.018086 371.930663 
L 682.221874 371.308484 
L 682.833238 373.034466 
L 683.037026 374.282083 
L 683.240814 373.683863 
L 683.64839 376.036911 
L 683.852178 374.860278 
L 684.259754 375.738631 
L 684.463542 374.517618 
L 684.66733 374.074965 
L 684.871118 373.026916 
L 685.074906 373.088941 
L 685.278694 373.812871 
L 685.68627 371.299011 
L 685.890058 372.006937 
L 686.093846 370.592353 
L 686.297634 368.112386 
L 686.501422 367.761552 
L 686.70521 368.071608 
L 686.908998 367.356288 
L 687.112786 368.194895 
L 687.316574 367.258508 
L 687.520362 368.429215 
L 687.927938 369.119363 
L 688.539302 374.967303 
L 688.74309 374.297447 
L 688.946878 375.032805 
L 689.150666 371.165066 
L 689.354454 370.610748 
L 689.965818 371.007658 
L 690.169606 369.022325 
L 690.373394 369.464057 
L 690.577182 368.921944 
L 690.78097 369.129999 
L 690.984758 369.561474 
L 691.392334 371.617822 
L 691.596122 369.294874 
L 691.79991 368.665363 
L 692.003698 368.718601 
L 692.207486 369.455301 
L 692.615062 368.5497 
L 692.81885 368.952456 
L 693.022638 369.068887 
L 693.226426 370.205414 
L 693.430214 370.086727 
L 693.83779 373.061 
L 694.041577 372.164711 
L 694.245365 371.795048 
L 694.652941 372.252574 
L 694.856729 371.882621 
L 695.060517 372.634 
L 695.264305 374.804733 
L 695.468093 375.154334 
L 695.671881 374.738513 
L 695.875669 374.731724 
L 696.079457 375.602637 
L 696.487033 376.316185 
L 696.690821 376.095329 
L 696.894609 376.609017 
L 697.302185 374.335492 
L 697.709761 375.424742 
L 697.913549 375.43835 
L 698.117337 375.284439 
L 698.321125 376.125765 
L 698.524913 375.88538 
L 698.932489 373.760665 
L 699.136277 374.156624 
L 699.340065 374.166956 
L 699.543853 371.274298 
L 699.747641 371.484544 
L 699.951429 371.250288 
L 700.155217 370.389082 
L 700.359005 368.722236 
L 700.562793 368.377992 
L 700.766581 367.314595 
L 700.970369 365.490465 
L 701.174157 366.329531 
L 701.377945 366.045054 
L 701.581733 368.280483 
L 701.785521 365.754871 
L 701.989309 365.829897 
L 702.193097 367.051045 
L 702.600673 366.792755 
L 703.008249 371.742622 
L 703.212037 370.466621 
L 703.415825 371.07005 
L 703.619613 370.049661 
L 703.823401 371.185884 
L 704.230977 369.654255 
L 704.434765 371.727365 
L 704.638553 372.540215 
L 704.842341 371.925691 
L 705.046129 372.841065 
L 705.249917 372.766202 
L 705.453705 372.428367 
L 705.861281 374.620212 
L 706.065069 375.70511 
L 706.676433 371.51671 
L 706.880221 372.933439 
L 707.084009 372.719513 
L 707.287797 372.688143 
L 707.491585 373.305564 
L 707.899161 372.128077 
L 708.102949 372.241845 
L 708.306737 373.447084 
L 708.714313 374.001926 
L 708.918101 372.051105 
L 709.121889 371.26242 
L 709.325677 372.795547 
L 709.529465 372.290398 
L 709.937041 373.708972 
L 710.140829 373.726107 
L 710.344617 373.433924 
L 710.548405 372.772672 
L 710.752193 373.304037 
L 710.955981 374.389275 
L 711.159769 374.126573 
L 711.363557 373.661112 
L 711.567345 374.308302 
L 711.771133 373.470009 
L 711.974921 373.26287 
L 712.178709 372.660339 
L 712.586285 374.492601 
L 712.790073 374.187273 
L 712.993861 374.321233 
L 713.197649 375.309982 
L 713.401437 375.337313 
L 713.605225 374.140072 
L 714.216589 375.608725 
L 714.420377 376.241909 
L 714.624165 375.917259 
L 715.031741 376.880866 
L 715.235529 376.713316 
L 715.439317 377.068528 
L 715.643105 377.065566 
L 715.846893 377.263192 
L 716.050681 376.513024 
L 716.254469 376.475807 
L 716.662045 375.679883 
L 717.069621 375.870585 
L 717.273409 375.207688 
L 717.477197 375.472112 
L 718.088561 377.826719 
L 718.496137 378.30837 
L 718.699925 378.446416 
L 719.107501 379.474994 
L 719.311289 378.923684 
L 719.515077 377.692105 
L 719.718865 377.957181 
L 719.922653 375.91341 
L 720.330229 375.138172 
L 721.145381 370.611291 
L 721.349169 370.748138 
L 721.756745 369.498704 
L 722.164321 370.415036 
L 722.368109 368.800014 
L 722.571897 369.117246 
L 722.979472 371.653487 
L 723.590836 375.325396 
L 723.794624 375.510113 
L 723.998412 376.69351 
L 724.2022 376.841004 
L 724.609776 380.080576 
L 724.813564 378.550266 
L 725.22114 378.045521 
L 725.628716 378.96913 
L 726.24008 375.425052 
L 726.443868 373.534022 
L 726.647656 372.882004 
L 726.851444 373.081243 
L 727.25902 373.609158 
L 727.666596 371.272709 
L 728.074172 374.271083 
L 728.481748 377.357468 
L 728.685536 377.359959 
L 728.889324 378.446574 
L 729.093112 377.286374 
L 729.2969 377.178336 
L 729.704476 378.755427 
L 729.908264 378.41184 
L 730.112052 379.505822 
L 730.31584 379.255391 
L 730.723416 379.603723 
L 730.927204 380.372368 
L 731.130992 380.225092 
L 731.538568 379.367768 
L 731.742356 376.233002 
L 732.35372 375.320695 
L 732.761296 376.966971 
L 732.965084 376.888872 
L 733.168872 377.999099 
L 733.37266 378.345059 
L 733.576448 378.387363 
L 733.780236 381.904057 
L 734.187812 381.467513 
L 734.3916 382.271035 
L 734.595388 380.276078 
L 734.799176 379.992284 
L 735.002964 378.267465 
L 735.206752 378.056949 
L 735.41054 378.099235 
L 735.614328 378.269315 
L 735.818116 378.868235 
L 736.225692 378.072765 
L 736.42948 377.333531 
L 736.633268 377.408893 
L 736.837056 377.915455 
L 737.040844 379.016825 
L 737.44842 378.230464 
L 737.652208 378.277948 
L 737.855996 377.02867 
L 738.059784 377.05517 
L 738.46736 377.60277 
L 738.671148 379.517579 
L 739.4863 376.326827 
L 740.097664 377.740257 
L 740.301452 377.746847 
L 740.50524 377.90068 
L 740.912816 376.322824 
L 741.320392 372.986645 
L 741.52418 372.319144 
L 741.727968 370.065471 
L 741.931756 370.982753 
L 742.135544 371.254263 
L 742.339332 370.316853 
L 742.54312 368.768529 
L 742.746908 369.339535 
L 742.950696 369.500954 
L 743.56206 376.90795 
L 743.969636 373.399927 
L 744.377212 372.180953 
L 744.581 373.127421 
L 744.784788 373.172664 
L 744.988576 371.133615 
L 745.192364 371.665505 
L 745.396152 370.219313 
L 745.59994 370.575209 
L 745.803728 374.714315 
L 746.007516 374.78589 
L 746.211304 374.394273 
L 746.415092 376.338945 
L 746.822668 376.041697 
L 747.026456 378.4535 
L 747.230244 378.285377 
L 747.434032 379.543955 
L 747.63782 379.983605 
L 747.841608 380.001245 
L 748.045396 381.135464 
L 748.249184 381.222631 
L 748.452972 380.713358 
L 748.65676 381.138115 
L 749.064336 379.269664 
L 749.268124 378.066018 
L 749.471912 378.085809 
L 749.879488 377.627067 
L 750.083276 374.972798 
L 750.287064 375.261175 
L 750.490852 374.98658 
L 750.69464 373.024864 
L 750.898428 373.567186 
L 751.102216 375.115444 
L 751.71358 375.927673 
L 751.917367 375.49719 
L 752.121155 377.473293 
L 752.528731 378.855757 
L 752.732519 380.035862 
L 752.936307 380.19816 
L 753.140095 379.945086 
L 753.343883 381.053981 
L 753.547671 380.818328 
L 753.751459 379.983019 
L 753.955247 380.856071 
L 754.159035 380.970584 
L 754.362823 381.4818 
L 754.566611 379.956183 
L 754.770399 379.85453 
L 754.974187 380.422418 
L 755.177975 380.356809 
L 755.585551 381.079006 
L 755.789339 380.511121 
L 755.993127 380.37402 
L 756.196915 379.217329 
L 756.400703 376.990995 
L 756.808279 379.246009 
L 757.215855 378.480626 
L 757.623431 375.124395 
L 757.827219 376.32578 
L 758.031007 375.386588 
L 758.234795 375.50672 
L 758.438583 376.628812 
L 758.642371 372.106105 
L 759.049947 370.334192 
L 759.253735 370.348063 
L 759.457523 370.040549 
L 759.661311 370.182257 
L 759.865099 369.878722 
L 760.068887 370.41773 
L 760.272675 371.878117 
L 760.476463 372.333807 
L 760.680251 376.824414 
L 761.087827 379.036422 
L 761.291615 379.673593 
L 761.495403 378.207038 
L 761.699191 379.348512 
L 761.902979 378.818528 
L 762.106767 379.188284 
L 762.310555 379.247941 
L 762.514343 378.33906 
L 762.718131 378.106558 
L 762.921919 378.2893 
L 763.125707 377.656899 
L 763.329495 376.225112 
L 763.533283 379.1364 
L 763.737071 378.959221 
L 763.940859 379.476931 
L 764.144647 379.683296 
L 764.348435 377.911773 
L 764.756011 378.274948 
L 764.959799 378.033162 
L 765.163587 375.362884 
L 765.367375 376.780685 
L 765.571163 375.282412 
L 765.774951 375.040817 
L 765.978739 375.52089 
L 766.182527 373.51611 
L 766.590103 375.590409 
L 766.793891 375.445322 
L 766.997679 373.943034 
L 767.201467 377.916288 
L 767.405255 378.145664 
L 767.609043 379.243765 
L 767.812831 379.049061 
L 768.016619 379.178751 
L 768.220407 380.159373 
L 768.424195 380.010426 
L 768.831771 380.255649 
L 769.035559 382.28365 
L 769.239347 381.203432 
L 769.443135 378.453616 
L 769.850711 379.824016 
L 770.054499 379.278474 
L 770.462075 380.108596 
L 770.869651 379.911983 
L 771.073439 379.5561 
L 771.277227 380.103368 
L 771.481015 381.272665 
L 771.684803 381.593072 
L 772.092379 380.027847 
L 772.296167 380.843212 
L 772.499955 379.9651 
L 772.703743 379.716478 
L 772.907531 380.346514 
L 773.111319 380.063665 
L 773.315107 378.448215 
L 773.518895 379.169625 
L 773.722683 377.695046 
L 774.130259 379.798964 
L 774.334047 379.264501 
L 774.537835 379.802861 
L 774.741623 379.3773 
L 775.149199 377.569612 
L 775.556775 379.794899 
L 775.760563 379.148992 
L 775.964351 377.565603 
L 776.168139 378.057138 
L 776.575715 378.334471 
L 776.779503 379.202811 
L 776.983291 377.593712 
L 777.187079 378.940076 
L 777.594655 377.991061 
L 778.002231 381.129633 
L 778.206019 380.59148 
L 778.409807 379.659291 
L 778.613595 380.043747 
L 778.817383 379.554937 
L 779.021171 381.127447 
L 779.224959 380.869974 
L 779.428747 381.868772 
L 779.632535 380.90752 
L 779.836323 381.135154 
L 780.040111 380.760857 
L 780.243899 381.091389 
L 780.447687 381.839716 
L 780.651475 381.871591 
L 780.855262 381.565677 
L 781.05905 382.030745 
L 781.262838 381.803611 
L 781.466626 381.856537 
L 781.670414 382.612889 
L 781.874202 382.057436 
L 782.07799 381.868457 
L 782.281778 381.306773 
L 782.485566 381.794183 
L 782.689354 380.324584 
L 782.893142 380.304004 
L 783.09693 378.78766 
L 783.300718 378.555948 
L 783.504506 379.016502 
L 783.912082 377.461241 
L 784.319658 377.83033 
L 784.523446 377.528439 
L 784.727234 378.691916 
L 784.931022 377.991391 
L 785.13481 378.684275 
L 785.338598 378.798742 
L 785.542386 377.7489 
L 785.746174 377.48087 
L 785.949962 377.642647 
L 786.357538 373.626932 
L 786.765114 371.888898 
L 787.376478 373.735844 
L 787.580266 373.783151 
L 787.784054 373.391752 
L 787.987842 371.741831 
L 788.599206 375.950879 
L 788.802994 377.400451 
L 789.006782 376.49976 
L 789.21057 376.555033 
L 789.414358 377.078978 
L 789.618146 376.804901 
L 790.025722 380.424704 
L 790.22951 378.969366 
L 790.433298 379.133475 
L 790.637086 378.902772 
L 790.840874 377.151062 
L 791.044662 378.691657 
L 791.452238 377.335909 
L 791.656026 378.329443 
L 791.859814 376.557449 
L 792.063602 375.932343 
L 792.26739 377.764216 
L 792.471178 376.859019 
L 792.674966 376.920164 
L 792.878754 378.153121 
L 793.082542 376.582162 
L 793.28633 377.718393 
L 793.490118 375.984186 
L 793.693906 375.230022 
L 793.897694 375.754807 
L 794.712846 379.766771 
L 794.916634 379.087742 
L 795.120422 379.272065 
L 795.32421 378.75222 
L 795.527998 380.208041 
L 795.935574 381.233247 
L 796.139362 379.225135 
L 796.546938 378.912853 
L 796.750726 377.941576 
L 796.954514 379.096059 
L 797.158302 378.708692 
L 797.36209 378.578553 
L 797.565878 377.471486 
L 797.769666 377.261468 
L 797.973454 377.255826 
L 798.177242 378.926248 
L 798.38103 378.090193 
L 798.788606 377.542023 
L 798.992394 374.804006 
L 799.196182 376.108055 
L 799.39997 376.574821 
L 799.807546 378.05442 
L 800.011334 377.559069 
L 800.622698 379.857838 
L 800.826486 379.593029 
L 801.030274 382.271313 
L 801.234062 383.132418 
L 801.43785 382.978649 
L 801.845426 379.791854 
L 802.253002 377.417073 
L 802.45679 377.488713 
L 802.660578 377.112056 
L 802.864366 376.252196 
L 803.271942 376.372661 
L 803.47573 376.773356 
L 803.679518 378.326188 
L 803.883306 379.002897 
L 804.087094 380.78558 
L 804.290882 381.364041 
L 804.49467 381.364458 
L 804.698458 380.855212 
L 804.902246 382.175774 
L 805.106034 381.704503 
L 805.309822 380.219819 
L 805.51361 379.670232 
L 805.717398 380.834581 
L 805.921186 380.346148 
L 806.124974 380.65473 
L 806.328762 380.455306 
L 806.53255 378.90255 
L 806.736338 379.110824 
L 807.143914 380.296065 
L 807.347702 380.795213 
L 807.55149 380.956596 
L 807.755278 379.908084 
L 807.959066 379.969979 
L 808.162854 380.482329 
L 808.366642 380.523109 
L 808.774218 382.828642 
L 808.978006 382.522945 
L 809.181794 382.007071 
L 809.385582 382.929589 
L 809.58937 382.416675 
L 809.996945 383.847506 
L 810.200733 383.357781 
L 810.404521 383.196978 
L 810.608309 383.196813 
L 810.812097 382.462026 
L 811.219673 382.565372 
L 811.423461 382.754895 
L 811.627249 383.20164 
L 811.831037 383.360168 
L 812.034825 382.38881 
L 812.238613 382.043961 
L 812.442401 382.47109 
L 812.646189 381.60061 
L 813.053765 381.308277 
L 813.257553 381.742787 
L 813.868917 379.349477 
L 814.072705 379.647672 
L 814.276493 379.15599 
L 814.684069 380.151001 
L 814.887857 380.382529 
L 815.091645 379.823413 
L 815.295433 378.484375 
L 815.499221 378.967694 
L 815.703009 377.90857 
L 815.906797 378.912397 
L 816.110585 378.75217 
L 816.314373 380.604116 
L 816.925737 379.047422 
L 817.129525 379.637506 
L 817.537101 381.056569 
L 817.740889 381.052633 
L 817.944677 378.603763 
L 818.148465 379.056003 
L 818.352253 379.058638 
L 818.556041 378.387355 
L 818.759829 377.173237 
L 818.963617 376.887404 
L 819.167405 377.084292 
L 819.371193 378.076697 
L 819.574981 377.150558 
L 819.982557 381.868052 
L 820.186345 381.551714 
L 820.390133 380.742047 
L 820.593921 380.986212 
L 820.797709 383.164432 
L 821.001497 383.569294 
L 821.409073 382.306513 
L 821.612861 381.75599 
L 821.816649 381.6887 
L 822.020437 380.899546 
L 822.428013 380.908008 
L 822.835589 381.205308 
L 823.039377 381.728016 
L 823.243165 381.630051 
L 823.446953 381.939173 
L 823.650741 382.497804 
L 823.854529 380.212934 
L 824.262105 381.919518 
L 824.465893 378.598358 
L 824.669681 379.262818 
L 824.873469 378.422693 
L 825.077257 378.410712 
L 825.281045 378.739875 
L 825.484833 378.105368 
L 825.688621 378.415422 
L 825.892409 380.870592 
L 826.096197 380.587159 
L 826.299985 379.386236 
L 826.503773 382.315217 
L 826.707561 381.96544 
L 826.911349 382.596637 
L 827.115137 381.497982 
L 827.318925 381.314441 
L 827.522713 380.837797 
L 827.726501 380.846846 
L 827.930289 381.028924 
L 828.134077 379.822794 
L 828.337865 380.534625 
L 828.541653 380.543087 
L 828.949229 379.442681 
L 829.153017 382.083942 
L 829.356805 381.154275 
L 829.968169 382.200373 
L 830.171957 383.392404 
L 830.375745 383.453262 
L 830.579533 384.871561 
L 830.987109 385.537089 
L 831.190897 384.367431 
L 831.394685 384.463564 
L 832.006049 380.809602 
L 832.413625 374.890798 
L 832.821201 371.54736 
L 833.024989 368.336715 
L 833.228777 368.975465 
L 834.247717 378.32525 
L 834.451505 381.588167 
L 834.655293 381.416784 
L 834.859081 383.297274 
L 835.062869 386.241818 
L 835.470445 378.380574 
L 835.674233 377.886474 
L 835.878021 376.628525 
L 836.081809 374.066507 
L 836.285597 374.423568 
L 836.489385 373.870273 
L 836.693173 373.959381 
L 836.896961 374.643316 
L 837.100749 374.456562 
L 837.508325 380.842255 
L 837.712113 379.366559 
L 838.119689 381.550042 
L 838.323477 379.893849 
L 838.527265 379.171069 
L 838.731052 380.219895 
L 839.138628 378.585188 
L 839.342416 379.540131 
L 839.546204 379.27419 
L 839.749992 381.057278 
L 839.95378 380.164051 
L 840.361356 382.68766 
L 840.565144 380.022613 
L 840.768932 379.298395 
L 840.97272 380.299514 
L 841.176508 382.269016 
L 841.380296 381.390176 
L 841.584084 379.70963 
L 841.787872 379.180873 
L 841.99166 380.261952 
L 842.195448 379.841849 
L 842.399236 379.845045 
L 842.603024 383.047511 
L 843.0106 382.355128 
L 843.214388 382.027999 
L 843.418176 381.073103 
L 843.621964 382.834378 
L 844.02954 379.622188 
L 844.233328 380.063692 
L 844.437116 379.176425 
L 844.640904 379.48044 
L 845.04848 378.384161 
L 845.252268 377.149487 
L 845.456056 378.895323 
L 845.863632 378.686944 
L 846.06742 380.85045 
L 846.271208 380.978188 
L 846.882572 383.874542 
L 847.08636 382.532911 
L 847.290148 383.699878 
L 847.493936 382.76456 
L 847.697724 382.930381 
L 847.901512 383.690521 
L 848.1053 382.703165 
L 848.309088 382.580447 
L 848.512876 382.248978 
L 848.716664 381.471838 
L 848.920452 381.725368 
L 849.12424 383.96961 
L 849.328028 383.544839 
L 849.531816 383.702898 
L 849.735604 384.325681 
L 850.14318 386.06689 
L 850.346968 385.834179 
L 850.754544 385.020822 
L 850.958332 385.125289 
L 851.16212 384.275214 
L 851.365908 384.188036 
L 851.569696 384.335488 
L 851.773484 381.388056 
L 851.977272 380.551181 
L 852.18106 380.202356 
L 852.384848 379.395982 
L 852.588636 379.879794 
L 852.792424 379.761549 
L 852.996212 380.827253 
L 852.996212 380.827253 
" clip-path="url(#p34d1ddbe30)" style="fill: none; stroke-dasharray: 7.4,3.2; stroke-dashoffset: 0; stroke: #000000; stroke-width: 2"/>
   </g>
   <g id="patch_3">
    <path d="M 41.92 404.12 
L 41.92 10.8 
" style="fill: none; stroke: #000000; stroke-width: 0.8; stroke-linejoin: miter; stroke-linecap: square"/>
   </g>
   <g id="patch_4">
    <path d="M 853.2 404.12 
L 853.2 10.8 
" style="fill: none; stroke: #000000; stroke-width: 0.8; stroke-linejoin: miter; stroke-linecap: square"/>
   </g>
   <g id="patch_5">
    <path d="M 41.92 404.12 
L 853.2 404.12 
" style="fill: none; stroke: #000000; stroke-width: 0.8; stroke-linejoin: miter; stroke-linecap: square"/>
   </g>
   <g id="patch_6">
    <path d="M 41.92 10.8 
L 853.2 10.8 
" style="fill: none; stroke: #000000; stroke-width: 0.8; stroke-linejoin: miter; stroke-linecap: square"/>
   </g>
  </g>
 </g>
 <defs>
  <clipPath id="p34d1ddbe30">
   <rect x="41.92" y="10.8" width="811.28" height="393.32"/>
  </clipPath>
 </defs>
</svg>
