<?xml version="1.0" encoding="utf-8" standalone="no"?>
<!DOCTYPE svg PUBLIC "-//W3C//DTD SVG 1.1//EN"
  "http://www.w3.org/Graphics/SVG/1.1/DTD/svg11.dtd">
<svg xmlns:xlink="http://www.w3.org/1999/xlink" width="864pt" height="360pt" viewBox="0 0 864 360" xmlns="http://www.w3.org/2000/svg" version="1.1">
 <metadata>
  <rdf:RDF xmlns:dc="http://purl.org/dc/elements/1.1/" xmlns:cc="http://creativecommons.org/ns#" xmlns:rdf="http://www.w3.org/1999/02/22-rdf-syntax-ns#">
   <cc:Work>
    <dc:type rdf:resource="http://purl.org/dc/dcmitype/StillImage"/>
    <dc:date>2024-09-16T08:27:21.060784</dc:date>
    <dc:format>image/svg+xml</dc:format>
    <dc:creator>
     <cc:Agent>
      <dc:title>Matplotlib v3.9.2, https://matplotlib.org/</dc:title>
     </cc:Agent>
    </dc:creator>
   </cc:Work>
  </rdf:RDF>
 </metadata>
 <defs>
  <style type="text/css">*{stroke-linejoin: round; stroke-linecap: butt}</style>
 </defs>
 <g id="figure_1">
  <g id="patch_1">
   <path d="M 0 360 
L 864 360 
L 864 0 
L 0 0 
z
" style="fill: #ffffff"/>
  </g>
  <g id="axes_1">
   <g id="patch_2">
    <path d="M 68.775 325.62 
L 803.355 325.62 
L 803.355 10.8 
L 68.775 10.8 
z
" style="fill: #ffffff"/>
   </g>
   <g id="patch_3">
    <path d="M 106.867886 287.527114 
L 135.622114 287.527114 
L 135.622114 258.772886 
L 106.867886 258.772886 
z
" clip-path="url(#p44bef15dbc)" style="stroke: #000000; stroke-linejoin: miter"/>
   </g>
   <g id="patch_4">
    <path d="M 152.658515 294.206485 
L 194.771485 294.206485 
L 194.771485 252.093515 
L 152.658515 252.093515 
z
" clip-path="url(#p44bef15dbc)" style="stroke: #000000; stroke-linejoin: miter"/>
   </g>
   <g id="patch_5">
    <path d="M 203.09998 296.23502 
L 249.27002 296.23502 
L 249.27002 250.06498 
L 203.09998 250.06498 
z
" clip-path="url(#p44bef15dbc)" style="stroke: #000000; stroke-linejoin: miter"/>
   </g>
   <g id="patch_6">
    <path d="M 255.279264 296.525736 
L 302.030736 296.525736 
L 302.030736 249.774264 
L 255.279264 249.774264 
z
" clip-path="url(#p44bef15dbc)" style="stroke: #000000; stroke-linejoin: miter"/>
   </g>
   <g id="patch_7">
    <path d="M 307.670579 296.604421 
L 354.579421 296.604421 
L 354.579421 249.695579 
L 307.670579 249.695579 
z
" clip-path="url(#p44bef15dbc)" style="stroke: #000000; stroke-linejoin: miter"/>
   </g>
   <g id="patch_8">
    <path d="M 360.142557 296.602443 
L 407.047443 296.602443 
L 407.047443 249.697557 
L 360.142557 249.697557 
z
" clip-path="url(#p44bef15dbc)" style="stroke: #000000; stroke-linejoin: miter"/>
   </g>
   <g id="patch_9">
    <path d="M 412.599703 296.615297 
L 459.530297 296.615297 
L 459.530297 249.684703 
L 412.599703 249.684703 
z
" clip-path="url(#p44bef15dbc)" style="stroke: #000000; stroke-linejoin: miter"/>
   </g>
   <g id="patch_10">
    <path d="M 465.082557 296.602443 
L 511.987443 296.602443 
L 511.987443 249.697557 
L 465.082557 249.697557 
z
" clip-path="url(#p44bef15dbc)" style="stroke: #000000; stroke-linejoin: miter"/>
   </g>
   <g id="patch_11">
    <path d="M 517.539703 296.615297 
L 564.470297 296.615297 
L 564.470297 249.684703 
L 517.539703 249.684703 
z
" clip-path="url(#p44bef15dbc)" style="stroke: #000000; stroke-linejoin: miter"/>
   </g>
   <g id="patch_12">
    <path d="M 570.020579 296.604421 
L 616.929421 296.604421 
L 616.929421 249.695579 
L 570.020579 249.695579 
z
" clip-path="url(#p44bef15dbc)" style="stroke: #000000; stroke-linejoin: miter"/>
   </g>
   <g id="patch_13">
    <path d="M 622.479703 296.615297 
L 669.410297 296.615297 
L 669.410297 249.684703 
L 622.479703 249.684703 
z
" clip-path="url(#p44bef15dbc)" style="stroke: #000000; stroke-linejoin: miter"/>
   </g>
   <g id="patch_14">
    <path d="M 674.949703 296.615297 
L 721.880297 296.615297 
L 721.880297 249.684703 
L 674.949703 249.684703 
z
" clip-path="url(#p44bef15dbc)" style="stroke: #000000; stroke-linejoin: miter"/>
   </g>
   <g id="patch_15">
    <path d="M 105.536905 236.388095 
L 136.953095 236.388095 
L 136.953095 204.971905 
L 105.536905 204.971905 
z
" clip-path="url(#p44bef15dbc)" style="stroke: #000000; stroke-linejoin: miter"/>
   </g>
   <g id="patch_16">
    <path d="M 153.633995 240.761005 
L 193.796005 240.761005 
L 193.796005 200.598995 
L 153.633995 200.598995 
z
" clip-path="url(#p44bef15dbc)" style="stroke: #000000; stroke-linejoin: miter"/>
   </g>
   <g id="patch_17">
    <path d="M 203.020023 243.844977 
L 249.349977 243.844977 
L 249.349977 197.515023 
L 203.020023 197.515023 
z
" clip-path="url(#p44bef15dbc)" style="stroke: #000000; stroke-linejoin: miter"/>
   </g>
   <g id="patch_18">
    <path d="M 255.22211 244.11289 
L 302.08789 244.11289 
L 302.08789 197.24711 
L 255.22211 197.24711 
z
" clip-path="url(#p44bef15dbc)" style="stroke: #000000; stroke-linejoin: miter"/>
   </g>
   <g id="patch_19">
    <path d="M 307.659703 244.145297 
L 354.590297 244.145297 
L 354.590297 197.214703 
L 307.659703 197.214703 
z
" clip-path="url(#p44bef15dbc)" style="stroke: #000000; stroke-linejoin: miter"/>
   </g>
   <g id="patch_20">
    <path d="M 360.137143 244.137857 
L 407.052857 244.137857 
L 407.052857 197.222143 
L 360.137143 197.222143 
z
" clip-path="url(#p44bef15dbc)" style="stroke: #000000; stroke-linejoin: miter"/>
   </g>
   <g id="patch_21">
    <path d="M 412.599703 244.145297 
L 459.530297 244.145297 
L 459.530297 197.214703 
L 412.599703 197.214703 
z
" clip-path="url(#p44bef15dbc)" style="stroke: #000000; stroke-linejoin: miter"/>
   </g>
   <g id="patch_22">
    <path d="M 465.078019 244.136981 
L 511.991981 244.136981 
L 511.991981 197.223019 
L 465.078019 197.223019 
z
" clip-path="url(#p44bef15dbc)" style="stroke: #000000; stroke-linejoin: miter"/>
   </g>
   <g id="patch_23">
    <path d="M 517.539703 244.145297 
L 564.470297 244.145297 
L 564.470297 197.214703 
L 517.539703 197.214703 
z
" clip-path="url(#p44bef15dbc)" style="stroke: #000000; stroke-linejoin: miter"/>
   </g>
   <g id="patch_24">
    <path d="M 570.009703 244.145297 
L 616.940297 244.145297 
L 616.940297 197.214703 
L 570.009703 197.214703 
z
" clip-path="url(#p44bef15dbc)" style="stroke: #000000; stroke-linejoin: miter"/>
   </g>
   <g id="patch_25">
    <path d="M 622.487143 244.137857 
L 669.402857 244.137857 
L 669.402857 197.222143 
L 622.487143 197.222143 
z
" clip-path="url(#p44bef15dbc)" style="stroke: #000000; stroke-linejoin: miter"/>
   </g>
   <g id="patch_26">
    <path d="M 674.949703 244.145297 
L 721.880297 244.145297 
L 721.880297 197.214703 
L 674.949703 197.214703 
z
" clip-path="url(#p44bef15dbc)" style="stroke: #000000; stroke-linejoin: miter"/>
   </g>
   <g id="patch_27">
    <path d="M 107.942362 181.512638 
L 134.547638 181.512638 
L 134.547638 154.907362 
L 107.942362 154.907362 
z
" clip-path="url(#p44bef15dbc)" style="stroke: #000000; stroke-linejoin: miter"/>
   </g>
   <g id="patch_28">
    <path d="M 153.502215 188.422785 
L 193.927785 188.422785 
L 193.927785 147.997215 
L 153.502215 147.997215 
z
" clip-path="url(#p44bef15dbc)" style="stroke: #000000; stroke-linejoin: miter"/>
   </g>
   <g id="patch_29">
    <path d="M 203.042247 191.352753 
L 249.327753 191.352753 
L 249.327753 145.067247 
L 203.042247 145.067247 
z
" clip-path="url(#p44bef15dbc)" style="stroke: #000000; stroke-linejoin: miter"/>
   </g>
   <g id="patch_30">
    <path d="M 255.249464 191.615536 
L 302.060536 191.615536 
L 302.060536 144.804464 
L 255.249464 144.804464 
z
" clip-path="url(#p44bef15dbc)" style="stroke: #000000; stroke-linejoin: miter"/>
   </g>
   <g id="patch_31">
    <path d="M 307.747373 191.587627 
L 354.502627 191.587627 
L 354.502627 144.832373 
L 307.747373 144.832373 
z
" clip-path="url(#p44bef15dbc)" style="stroke: #000000; stroke-linejoin: miter"/>
   </g>
   <g id="patch_32">
    <path d="M 360.129703 191.675297 
L 407.060297 191.675297 
L 407.060297 144.744703 
L 360.129703 144.744703 
z
" clip-path="url(#p44bef15dbc)" style="stroke: #000000; stroke-linejoin: miter"/>
   </g>
   <g id="patch_33">
    <path d="M 412.599703 191.675297 
L 459.530297 191.675297 
L 459.530297 144.744703 
L 412.599703 144.744703 
z
" clip-path="url(#p44bef15dbc)" style="stroke: #000000; stroke-linejoin: miter"/>
   </g>
   <g id="patch_34">
    <path d="M 465.085414 191.659586 
L 511.984586 191.659586 
L 511.984586 144.760414 
L 465.085414 144.760414 
z
" clip-path="url(#p44bef15dbc)" style="stroke: #000000; stroke-linejoin: miter"/>
   </g>
   <g id="patch_35">
    <path d="M 517.555414 191.659586 
L 564.454586 191.659586 
L 564.454586 144.760414 
L 517.555414 144.760414 
z
" clip-path="url(#p44bef15dbc)" style="stroke: #000000; stroke-linejoin: miter"/>
   </g>
   <g id="patch_36">
    <path d="M 570.009703 191.675297 
L 616.940297 191.675297 
L 616.940297 144.744703 
L 570.009703 144.744703 
z
" clip-path="url(#p44bef15dbc)" style="stroke: #000000; stroke-linejoin: miter"/>
   </g>
   <g id="patch_37">
    <path d="M 622.479703 191.675297 
L 669.410297 191.675297 
L 669.410297 144.744703 
L 622.479703 144.744703 
z
" clip-path="url(#p44bef15dbc)" style="stroke: #000000; stroke-linejoin: miter"/>
   </g>
   <g id="patch_38">
    <path d="M 674.949703 191.675297 
L 721.880297 191.675297 
L 721.880297 144.744703 
L 674.949703 144.744703 
z
" clip-path="url(#p44bef15dbc)" style="stroke: #000000; stroke-linejoin: miter"/>
   </g>
   <g id="patch_39">
    <path d="M 107.983707 129.001293 
L 134.506293 129.001293 
L 134.506293 102.478707 
L 107.983707 102.478707 
z
" clip-path="url(#p44bef15dbc)" style="stroke: #000000; stroke-linejoin: miter"/>
   </g>
   <g id="patch_40">
    <path d="M 152.743655 136.711345 
L 194.686345 136.711345 
L 194.686345 94.768655 
L 152.743655 94.768655 
z
" clip-path="url(#p44bef15dbc)" style="stroke: #000000; stroke-linejoin: miter"/>
   </g>
   <g id="patch_41">
    <path d="M 203.092854 138.832146 
L 249.277146 138.832146 
L 249.277146 92.647854 
L 203.092854 92.647854 
z
" clip-path="url(#p44bef15dbc)" style="stroke: #000000; stroke-linejoin: miter"/>
   </g>
   <g id="patch_42">
    <path d="M 255.222347 139.172653 
L 302.087653 139.172653 
L 302.087653 92.307347 
L 255.222347 92.307347 
z
" clip-path="url(#p44bef15dbc)" style="stroke: #000000; stroke-linejoin: miter"/>
   </g>
   <g id="patch_43">
    <path d="M 307.692347 139.172653 
L 354.557653 139.172653 
L 354.557653 92.307347 
L 307.692347 92.307347 
z
" clip-path="url(#p44bef15dbc)" style="stroke: #000000; stroke-linejoin: miter"/>
   </g>
   <g id="patch_44">
    <path d="M 360.129703 139.205297 
L 407.060297 139.205297 
L 407.060297 92.274703 
L 360.129703 92.274703 
z
" clip-path="url(#p44bef15dbc)" style="stroke: #000000; stroke-linejoin: miter"/>
   </g>
   <g id="patch_45">
    <path d="M 412.599703 139.205297 
L 459.530297 139.205297 
L 459.530297 92.274703 
L 412.599703 92.274703 
z
" clip-path="url(#p44bef15dbc)" style="stroke: #000000; stroke-linejoin: miter"/>
   </g>
   <g id="patch_46">
    <path d="M 465.069703 139.205297 
L 512.000297 139.205297 
L 512.000297 92.274703 
L 465.069703 92.274703 
z
" clip-path="url(#p44bef15dbc)" style="stroke: #000000; stroke-linejoin: miter"/>
   </g>
   <g id="patch_47">
    <path d="M 517.539703 139.205297 
L 564.470297 139.205297 
L 564.470297 92.274703 
L 517.539703 92.274703 
z
" clip-path="url(#p44bef15dbc)" style="stroke: #000000; stroke-linejoin: miter"/>
   </g>
   <g id="patch_48">
    <path d="M 570.009703 139.205297 
L 616.940297 139.205297 
L 616.940297 92.274703 
L 570.009703 92.274703 
z
" clip-path="url(#p44bef15dbc)" style="stroke: #000000; stroke-linejoin: miter"/>
   </g>
   <g id="patch_49">
    <path d="M 622.479703 139.205297 
L 669.410297 139.205297 
L 669.410297 92.274703 
L 622.479703 92.274703 
z
" clip-path="url(#p44bef15dbc)" style="stroke: #000000; stroke-linejoin: miter"/>
   </g>
   <g id="patch_50">
    <path d="M 674.949703 139.205297 
L 721.880297 139.205297 
L 721.880297 92.274703 
L 674.949703 92.274703 
z
" clip-path="url(#p44bef15dbc)" style="stroke: #000000; stroke-linejoin: miter"/>
   </g>
   <g id="matplotlib.axis_1">
    <g id="xtick_1">
     <g id="line2d_1">
      <defs>
       <path id="me3b0b0ac96" d="M 0 0 
L 0 3.5 
" style="stroke: #000000; stroke-width: 0.8"/>
      </defs>
      <g>
       <use xlink:href="#me3b0b0ac96" x="121.245" y="325.62" style="stroke: #000000; stroke-width: 0.8"/>
      </g>
     </g>
     <g id="text_1">
      <!-- 1 -->
      <g transform="translate(118.234844 346.771563) scale(0.1 -0.1)">
       <defs>
        <path id="DejaVuSansMono-31" d="M 844 531 
L 1825 531 
L 1825 4097 
L 769 3859 
L 769 4434 
L 1819 4666 
L 2450 4666 
L 2450 531 
L 3419 531 
L 3419 0 
L 844 0 
L 844 531 
z
" transform="scale(0.015625)"/>
       </defs>
       <use xlink:href="#DejaVuSansMono-31"/>
      </g>
     </g>
    </g>
    <g id="xtick_2">
     <g id="line2d_2">
      <g>
       <use xlink:href="#me3b0b0ac96" x="698.415" y="325.62" style="stroke: #000000; stroke-width: 0.8"/>
      </g>
     </g>
     <g id="text_2">
      <!-- 1000 -->
      <g transform="translate(686.374375 346.771563) scale(0.1 -0.1)">
       <defs>
        <path id="DejaVuSansMono-30" d="M 1509 2344 
Q 1509 2516 1629 2641 
Q 1750 2766 1919 2766 
Q 2094 2766 2219 2641 
Q 2344 2516 2344 2344 
Q 2344 2169 2220 2047 
Q 2097 1925 1919 1925 
Q 1744 1925 1626 2044 
Q 1509 2163 1509 2344 
z
M 1925 4250 
Q 1484 4250 1267 3775 
Q 1050 3300 1050 2328 
Q 1050 1359 1267 884 
Q 1484 409 1925 409 
Q 2369 409 2586 884 
Q 2803 1359 2803 2328 
Q 2803 3300 2586 3775 
Q 2369 4250 1925 4250 
z
M 1925 4750 
Q 2672 4750 3055 4137 
Q 3438 3525 3438 2328 
Q 3438 1134 3055 521 
Q 2672 -91 1925 -91 
Q 1178 -91 797 521 
Q 416 1134 416 2328 
Q 416 3525 797 4137 
Q 1178 4750 1925 4750 
z
" transform="scale(0.015625)"/>
       </defs>
       <use xlink:href="#DejaVuSansMono-31"/>
       <use xlink:href="#DejaVuSansMono-30" x="60.205078"/>
       <use xlink:href="#DejaVuSansMono-30" x="120.410156"/>
       <use xlink:href="#DejaVuSansMono-30" x="180.615234"/>
      </g>
     </g>
    </g>
   </g>
   <g id="matplotlib.axis_2">
    <g id="ytick_1">
     <g id="line2d_3">
      <defs>
       <path id="m22dd050dab" d="M 0 0 
L -3.5 0 
" style="stroke: #000000; stroke-width: 0.8"/>
      </defs>
      <g>
       <use xlink:href="#m22dd050dab" x="68.775" y="273.15" style="stroke: #000000; stroke-width: 0.8"/>
      </g>
     </g>
     <g id="text_3">
      <!-- 2 -->
      <g transform="translate(49.254688 276.975781) scale(0.1 -0.1)">
       <defs>
        <path id="DejaVuSansMono-32" d="M 1166 531 
L 3309 531 
L 3309 0 
L 475 0 
L 475 531 
Q 1059 1147 1496 1619 
Q 1934 2091 2100 2284 
Q 2413 2666 2522 2902 
Q 2631 3138 2631 3384 
Q 2631 3775 2401 3997 
Q 2172 4219 1772 4219 
Q 1488 4219 1175 4116 
Q 863 4013 513 3803 
L 513 4441 
Q 834 4594 1145 4672 
Q 1456 4750 1759 4750 
Q 2444 4750 2861 4386 
Q 3278 4022 3278 3431 
Q 3278 3131 3139 2831 
Q 3000 2531 2688 2169 
Q 2513 1966 2180 1606 
Q 1847 1247 1166 531 
z
" transform="scale(0.015625)"/>
       </defs>
       <use xlink:href="#DejaVuSansMono-32"/>
      </g>
     </g>
    </g>
    <g id="ytick_2">
     <g id="line2d_4">
      <g>
       <use xlink:href="#m22dd050dab" x="68.775" y="220.68" style="stroke: #000000; stroke-width: 0.8"/>
      </g>
     </g>
     <g id="text_4">
      <!-- 3 -->
      <g transform="translate(49.254688 224.505781) scale(0.1 -0.1)">
       <defs>
        <path id="DejaVuSansMono-33" d="M 2425 2497 
Q 2884 2375 3128 2064 
Q 3372 1753 3372 1288 
Q 3372 644 2939 276 
Q 2506 -91 1741 -91 
Q 1419 -91 1084 -31 
Q 750 28 428 141 
L 428 769 
Q 747 603 1056 522 
Q 1366 441 1672 441 
Q 2191 441 2469 675 
Q 2747 909 2747 1350 
Q 2747 1756 2469 1995 
Q 2191 2234 1716 2234 
L 1234 2234 
L 1234 2753 
L 1716 2753 
Q 2150 2753 2394 2943 
Q 2638 3134 2638 3475 
Q 2638 3834 2411 4026 
Q 2184 4219 1766 4219 
Q 1488 4219 1191 4156 
Q 894 4094 569 3969 
L 569 4550 
Q 947 4650 1242 4700 
Q 1538 4750 1766 4750 
Q 2447 4750 2855 4408 
Q 3263 4066 3263 3500 
Q 3263 3116 3048 2859 
Q 2834 2603 2425 2497 
z
" transform="scale(0.015625)"/>
       </defs>
       <use xlink:href="#DejaVuSansMono-33"/>
      </g>
     </g>
    </g>
    <g id="ytick_3">
     <g id="line2d_5">
      <g>
       <use xlink:href="#m22dd050dab" x="68.775" y="168.21" style="stroke: #000000; stroke-width: 0.8"/>
      </g>
     </g>
     <g id="text_5">
      <!-- 5 -->
      <g transform="translate(49.254688 172.035781) scale(0.1 -0.1)">
       <defs>
        <path id="DejaVuSansMono-35" d="M 647 4666 
L 3009 4666 
L 3009 4134 
L 1222 4134 
L 1222 2988 
Q 1356 3038 1492 3061 
Q 1628 3084 1766 3084 
Q 2491 3084 2916 2656 
Q 3341 2228 3341 1497 
Q 3341 759 2895 334 
Q 2450 -91 1678 -91 
Q 1306 -91 998 -41 
Q 691 9 447 109 
L 447 750 
Q 734 594 1025 517 
Q 1316 441 1619 441 
Q 2141 441 2423 716 
Q 2706 991 2706 1497 
Q 2706 1997 2414 2275 
Q 2122 2553 1600 2553 
Q 1347 2553 1106 2495 
Q 866 2438 647 2322 
L 647 4666 
z
" transform="scale(0.015625)"/>
       </defs>
       <use xlink:href="#DejaVuSansMono-35"/>
      </g>
     </g>
    </g>
    <g id="ytick_4">
     <g id="line2d_6">
      <g>
       <use xlink:href="#m22dd050dab" x="68.775" y="115.74" style="stroke: #000000; stroke-width: 0.8"/>
      </g>
     </g>
     <g id="text_6">
      <!-- ℙ -->
      <g transform="translate(49.254688 119.565781) scale(0.1 -0.1)">
       <defs>
        <path id="DejaVuSansMono-2119" d="M 506 4353 
L 506 313 
L 1106 313 
L 1106 4353 
L 506 4353 
z
M 1406 4353 
L 1406 2284 
L 2306 2284 
Q 2378 2284 2447 2291 
L 2447 4347 
Q 2378 4353 2306 4353 
L 1406 4353 
z
M 206 4666 
L 2166 4666 
Q 2913 4666 3297 4323 
Q 3681 3981 3681 3322 
Q 3681 2656 3297 2315 
Q 2913 1975 2163 1975 
L 1406 1975 
L 1406 0 
L 206 0 
L 206 4666 
z
M 2759 4281 
L 2759 2359 
Q 2941 2428 3075 2556 
Q 3353 2825 3353 3322 
Q 3353 3816 3078 4084 
Q 2947 4213 2759 4281 
z
" transform="scale(0.015625)"/>
       </defs>
       <use xlink:href="#DejaVuSansMono-2119"/>
      </g>
     </g>
    </g>
   </g>
  </g>
 </g>
 <defs>
  <clipPath id="p44bef15dbc">
   <rect x="68.775" y="10.8" width="734.58" height="314.82"/>
  </clipPath>
 </defs>
</svg>
