<?xml version="1.0" encoding="utf-8" standalone="no"?>
<!DOCTYPE svg PUBLIC "-//W3C//DTD SVG 1.1//EN"
  "http://www.w3.org/Graphics/SVG/1.1/DTD/svg11.dtd">
<svg xmlns:xlink="http://www.w3.org/1999/xlink" width="864pt" height="432pt" viewBox="0 0 864 432" xmlns="http://www.w3.org/2000/svg" version="1.1">
 <metadata>
  <rdf:RDF xmlns:dc="http://purl.org/dc/elements/1.1/" xmlns:cc="http://creativecommons.org/ns#" xmlns:rdf="http://www.w3.org/1999/02/22-rdf-syntax-ns#">
   <cc:Work>
    <dc:type rdf:resource="http://purl.org/dc/dcmitype/StillImage"/>
    <dc:date>2024-09-16T08:27:21.502542</dc:date>
    <dc:format>image/svg+xml</dc:format>
    <dc:creator>
     <cc:Agent>
      <dc:title>Matplotlib v3.9.2, https://matplotlib.org/</dc:title>
     </cc:Agent>
    </dc:creator>
   </cc:Work>
  </rdf:RDF>
 </metadata>
 <defs>
  <style type="text/css">*{stroke-linejoin: round; stroke-linecap: butt}</style>
 </defs>
 <g id="figure_1">
  <g id="patch_1">
   <path d="M 0 432 
L 864 432 
L 864 0 
L 0 0 
z
" style="fill: #ffffff"/>
  </g>
  <g id="axes_1">
   <g id="patch_2">
    <path d="M 41.92 403.436 
L 844.932925 403.436 
L 844.932925 10.8 
L 41.92 10.8 
z
" style="fill: #ffffff"/>
   </g>
   <g id="matplotlib.axis_1">
    <g id="xtick_1">
     <g id="line2d_1">
      <defs>
       <path id="m70a701f776" d="M 0 0 
L 0 3.5 
" style="stroke: #000000; stroke-width: 0.8"/>
      </defs>
      <g>
       <use xlink:href="#m70a701f776" x="41.92" y="403.436" style="stroke: #000000; stroke-width: 0.8"/>
      </g>
     </g>
     <g id="text_1">
      <!-- $\mathdefault{10^{1}}$ -->
      <g transform="translate(33.57 418.087562) scale(0.1 -0.1)">
       <defs>
        <path id="DejaVuSansMono-31" d="M 844 531 
L 1825 531 
L 1825 4097 
L 769 3859 
L 769 4434 
L 1819 4666 
L 2450 4666 
L 2450 531 
L 3419 531 
L 3419 0 
L 844 0 
L 844 531 
z
" transform="scale(0.015625)"/>
        <path id="DejaVuSansMono-30" d="M 1509 2344 
Q 1509 2516 1629 2641 
Q 1750 2766 1919 2766 
Q 2094 2766 2219 2641 
Q 2344 2516 2344 2344 
Q 2344 2169 2220 2047 
Q 2097 1925 1919 1925 
Q 1744 1925 1626 2044 
Q 1509 2163 1509 2344 
z
M 1925 4250 
Q 1484 4250 1267 3775 
Q 1050 3300 1050 2328 
Q 1050 1359 1267 884 
Q 1484 409 1925 409 
Q 2369 409 2586 884 
Q 2803 1359 2803 2328 
Q 2803 3300 2586 3775 
Q 2369 4250 1925 4250 
z
M 1925 4750 
Q 2672 4750 3055 4137 
Q 3438 3525 3438 2328 
Q 3438 1134 3055 521 
Q 2672 -91 1925 -91 
Q 1178 -91 797 521 
Q 416 1134 416 2328 
Q 416 3525 797 4137 
Q 1178 4750 1925 4750 
z
" transform="scale(0.015625)"/>
       </defs>
       <use xlink:href="#DejaVuSansMono-31" transform="translate(0 0.684375)"/>
       <use xlink:href="#DejaVuSansMono-30" transform="translate(60.205078 0.684375)"/>
       <use xlink:href="#DejaVuSansMono-31" transform="translate(121.367188 38.965625) scale(0.7)"/>
      </g>
     </g>
    </g>
    <g id="xtick_2">
     <g id="line2d_2">
      <g>
       <use xlink:href="#m70a701f776" x="443.426463" y="403.436" style="stroke: #000000; stroke-width: 0.8"/>
      </g>
     </g>
     <g id="text_2">
      <!-- $\mathdefault{10^{2}}$ -->
      <g transform="translate(435.076463 418.087562) scale(0.1 -0.1)">
       <defs>
        <path id="DejaVuSansMono-32" d="M 1166 531 
L 3309 531 
L 3309 0 
L 475 0 
L 475 531 
Q 1059 1147 1496 1619 
Q 1934 2091 2100 2284 
Q 2413 2666 2522 2902 
Q 2631 3138 2631 3384 
Q 2631 3775 2401 3997 
Q 2172 4219 1772 4219 
Q 1488 4219 1175 4116 
Q 863 4013 513 3803 
L 513 4441 
Q 834 4594 1145 4672 
Q 1456 4750 1759 4750 
Q 2444 4750 2861 4386 
Q 3278 4022 3278 3431 
Q 3278 3131 3139 2831 
Q 3000 2531 2688 2169 
Q 2513 1966 2180 1606 
Q 1847 1247 1166 531 
z
" transform="scale(0.015625)"/>
       </defs>
       <use xlink:href="#DejaVuSansMono-31" transform="translate(0 0.765625)"/>
       <use xlink:href="#DejaVuSansMono-30" transform="translate(60.205078 0.765625)"/>
       <use xlink:href="#DejaVuSansMono-32" transform="translate(121.367188 39.046875) scale(0.7)"/>
      </g>
     </g>
    </g>
    <g id="xtick_3">
     <g id="line2d_3">
      <g>
       <use xlink:href="#m70a701f776" x="844.932925" y="403.436" style="stroke: #000000; stroke-width: 0.8"/>
      </g>
     </g>
     <g id="text_3">
      <!-- $\mathdefault{10^{3}}$ -->
      <g transform="translate(836.582925 418.087562) scale(0.1 -0.1)">
       <defs>
        <path id="DejaVuSansMono-33" d="M 2425 2497 
Q 2884 2375 3128 2064 
Q 3372 1753 3372 1288 
Q 3372 644 2939 276 
Q 2506 -91 1741 -91 
Q 1419 -91 1084 -31 
Q 750 28 428 141 
L 428 769 
Q 747 603 1056 522 
Q 1366 441 1672 441 
Q 2191 441 2469 675 
Q 2747 909 2747 1350 
Q 2747 1756 2469 1995 
Q 2191 2234 1716 2234 
L 1234 2234 
L 1234 2753 
L 1716 2753 
Q 2150 2753 2394 2943 
Q 2638 3134 2638 3475 
Q 2638 3834 2411 4026 
Q 2184 4219 1766 4219 
Q 1488 4219 1191 4156 
Q 894 4094 569 3969 
L 569 4550 
Q 947 4650 1242 4700 
Q 1538 4750 1766 4750 
Q 2447 4750 2855 4408 
Q 3263 4066 3263 3500 
Q 3263 3116 3048 2859 
Q 2834 2603 2425 2497 
z
" transform="scale(0.015625)"/>
       </defs>
       <use xlink:href="#DejaVuSansMono-31" transform="translate(0 0.765625)"/>
       <use xlink:href="#DejaVuSansMono-30" transform="translate(60.205078 0.765625)"/>
       <use xlink:href="#DejaVuSansMono-33" transform="translate(121.367188 39.046875) scale(0.7)"/>
      </g>
     </g>
    </g>
    <g id="xtick_4">
     <g id="line2d_4">
      <defs>
       <path id="m6f2af20f35" d="M 0 0 
L 0 2 
" style="stroke: #000000; stroke-width: 0.6"/>
      </defs>
      <g>
       <use xlink:href="#m6f2af20f35" x="162.785489" y="403.436" style="stroke: #000000; stroke-width: 0.6"/>
      </g>
     </g>
    </g>
    <g id="xtick_5">
     <g id="line2d_5">
      <g>
       <use xlink:href="#m6f2af20f35" x="233.487267" y="403.436" style="stroke: #000000; stroke-width: 0.6"/>
      </g>
     </g>
    </g>
    <g id="xtick_6">
     <g id="line2d_6">
      <g>
       <use xlink:href="#m6f2af20f35" x="283.650977" y="403.436" style="stroke: #000000; stroke-width: 0.6"/>
      </g>
     </g>
    </g>
    <g id="xtick_7">
     <g id="line2d_7">
      <g>
       <use xlink:href="#m6f2af20f35" x="322.560974" y="403.436" style="stroke: #000000; stroke-width: 0.6"/>
      </g>
     </g>
    </g>
    <g id="xtick_8">
     <g id="line2d_8">
      <g>
       <use xlink:href="#m6f2af20f35" x="354.352756" y="403.436" style="stroke: #000000; stroke-width: 0.6"/>
      </g>
     </g>
    </g>
    <g id="xtick_9">
     <g id="line2d_9">
      <g>
       <use xlink:href="#m6f2af20f35" x="381.232325" y="403.436" style="stroke: #000000; stroke-width: 0.6"/>
      </g>
     </g>
    </g>
    <g id="xtick_10">
     <g id="line2d_10">
      <g>
       <use xlink:href="#m6f2af20f35" x="404.516466" y="403.436" style="stroke: #000000; stroke-width: 0.6"/>
      </g>
     </g>
    </g>
    <g id="xtick_11">
     <g id="line2d_11">
      <g>
       <use xlink:href="#m6f2af20f35" x="425.054534" y="403.436" style="stroke: #000000; stroke-width: 0.6"/>
      </g>
     </g>
    </g>
    <g id="xtick_12">
     <g id="line2d_12">
      <g>
       <use xlink:href="#m6f2af20f35" x="564.291951" y="403.436" style="stroke: #000000; stroke-width: 0.6"/>
      </g>
     </g>
    </g>
    <g id="xtick_13">
     <g id="line2d_13">
      <g>
       <use xlink:href="#m6f2af20f35" x="634.99373" y="403.436" style="stroke: #000000; stroke-width: 0.6"/>
      </g>
     </g>
    </g>
    <g id="xtick_14">
     <g id="line2d_14">
      <g>
       <use xlink:href="#m6f2af20f35" x="685.15744" y="403.436" style="stroke: #000000; stroke-width: 0.6"/>
      </g>
     </g>
    </g>
    <g id="xtick_15">
     <g id="line2d_15">
      <g>
       <use xlink:href="#m6f2af20f35" x="724.067437" y="403.436" style="stroke: #000000; stroke-width: 0.6"/>
      </g>
     </g>
    </g>
    <g id="xtick_16">
     <g id="line2d_16">
      <g>
       <use xlink:href="#m6f2af20f35" x="755.859219" y="403.436" style="stroke: #000000; stroke-width: 0.6"/>
      </g>
     </g>
    </g>
    <g id="xtick_17">
     <g id="line2d_17">
      <g>
       <use xlink:href="#m6f2af20f35" x="782.738787" y="403.436" style="stroke: #000000; stroke-width: 0.6"/>
      </g>
     </g>
    </g>
    <g id="xtick_18">
     <g id="line2d_18">
      <g>
       <use xlink:href="#m6f2af20f35" x="806.022929" y="403.436" style="stroke: #000000; stroke-width: 0.6"/>
      </g>
     </g>
    </g>
    <g id="xtick_19">
     <g id="line2d_19">
      <g>
       <use xlink:href="#m6f2af20f35" x="826.560997" y="403.436" style="stroke: #000000; stroke-width: 0.6"/>
      </g>
     </g>
    </g>
   </g>
   <g id="matplotlib.axis_2">
    <g id="ytick_1">
     <g id="line2d_20">
      <defs>
       <path id="mf78efe6086" d="M 0 0 
L -3.5 0 
" style="stroke: #000000; stroke-width: 0.8"/>
      </defs>
      <g>
       <use xlink:href="#mf78efe6086" x="41.92" y="386.704793" style="stroke: #000000; stroke-width: 0.8"/>
      </g>
     </g>
     <g id="text_4">
      <!-- 0.00 -->
      <g transform="translate(10.83875 390.530574) scale(0.1 -0.1)">
       <defs>
        <path id="DejaVuSansMono-2e" d="M 1528 953 
L 2316 953 
L 2316 0 
L 1528 0 
L 1528 953 
z
" transform="scale(0.015625)"/>
       </defs>
       <use xlink:href="#DejaVuSansMono-30"/>
       <use xlink:href="#DejaVuSansMono-2e" x="60.205078"/>
       <use xlink:href="#DejaVuSansMono-30" x="120.410156"/>
       <use xlink:href="#DejaVuSansMono-30" x="180.615234"/>
      </g>
     </g>
    </g>
    <g id="ytick_2">
     <g id="line2d_21">
      <g>
       <use xlink:href="#mf78efe6086" x="41.92" y="320.258892" style="stroke: #000000; stroke-width: 0.8"/>
      </g>
     </g>
     <g id="text_5">
      <!-- 0.05 -->
      <g transform="translate(10.83875 324.084673) scale(0.1 -0.1)">
       <defs>
        <path id="DejaVuSansMono-35" d="M 647 4666 
L 3009 4666 
L 3009 4134 
L 1222 4134 
L 1222 2988 
Q 1356 3038 1492 3061 
Q 1628 3084 1766 3084 
Q 2491 3084 2916 2656 
Q 3341 2228 3341 1497 
Q 3341 759 2895 334 
Q 2450 -91 1678 -91 
Q 1306 -91 998 -41 
Q 691 9 447 109 
L 447 750 
Q 734 594 1025 517 
Q 1316 441 1619 441 
Q 2141 441 2423 716 
Q 2706 991 2706 1497 
Q 2706 1997 2414 2275 
Q 2122 2553 1600 2553 
Q 1347 2553 1106 2495 
Q 866 2438 647 2322 
L 647 4666 
z
" transform="scale(0.015625)"/>
       </defs>
       <use xlink:href="#DejaVuSansMono-30"/>
       <use xlink:href="#DejaVuSansMono-2e" x="60.205078"/>
       <use xlink:href="#DejaVuSansMono-30" x="120.410156"/>
       <use xlink:href="#DejaVuSansMono-35" x="180.615234"/>
      </g>
     </g>
    </g>
    <g id="ytick_3">
     <g id="line2d_22">
      <g>
       <use xlink:href="#mf78efe6086" x="41.92" y="253.812991" style="stroke: #000000; stroke-width: 0.8"/>
      </g>
     </g>
     <g id="text_6">
      <!-- 0.10 -->
      <g transform="translate(10.83875 257.638773) scale(0.1 -0.1)">
       <use xlink:href="#DejaVuSansMono-30"/>
       <use xlink:href="#DejaVuSansMono-2e" x="60.205078"/>
       <use xlink:href="#DejaVuSansMono-31" x="120.410156"/>
       <use xlink:href="#DejaVuSansMono-30" x="180.615234"/>
      </g>
     </g>
    </g>
    <g id="ytick_4">
     <g id="line2d_23">
      <g>
       <use xlink:href="#mf78efe6086" x="41.92" y="187.36709" style="stroke: #000000; stroke-width: 0.8"/>
      </g>
     </g>
     <g id="text_7">
      <!-- 0.15 -->
      <g transform="translate(10.83875 191.192872) scale(0.1 -0.1)">
       <use xlink:href="#DejaVuSansMono-30"/>
       <use xlink:href="#DejaVuSansMono-2e" x="60.205078"/>
       <use xlink:href="#DejaVuSansMono-31" x="120.410156"/>
       <use xlink:href="#DejaVuSansMono-35" x="180.615234"/>
      </g>
     </g>
    </g>
    <g id="ytick_5">
     <g id="line2d_24">
      <g>
       <use xlink:href="#mf78efe6086" x="41.92" y="120.921189" style="stroke: #000000; stroke-width: 0.8"/>
      </g>
     </g>
     <g id="text_8">
      <!-- 0.20 -->
      <g transform="translate(10.83875 124.746971) scale(0.1 -0.1)">
       <use xlink:href="#DejaVuSansMono-30"/>
       <use xlink:href="#DejaVuSansMono-2e" x="60.205078"/>
       <use xlink:href="#DejaVuSansMono-32" x="120.410156"/>
       <use xlink:href="#DejaVuSansMono-30" x="180.615234"/>
      </g>
     </g>
    </g>
    <g id="ytick_6">
     <g id="line2d_25">
      <g>
       <use xlink:href="#mf78efe6086" x="41.92" y="54.475288" style="stroke: #000000; stroke-width: 0.8"/>
      </g>
     </g>
     <g id="text_9">
      <!-- 0.25 -->
      <g transform="translate(10.83875 58.30107) scale(0.1 -0.1)">
       <use xlink:href="#DejaVuSansMono-30"/>
       <use xlink:href="#DejaVuSansMono-2e" x="60.205078"/>
       <use xlink:href="#DejaVuSansMono-32" x="120.410156"/>
       <use xlink:href="#DejaVuSansMono-35" x="180.615234"/>
      </g>
     </g>
    </g>
   </g>
   <g id="line2d_26">
    <path d="M -1 70.785366 
L 3.010003 70.717518 
L 23.548072 107.389713 
L 41.92 110.510882 
L 58.539431 120.033267 
L 73.711782 131.031112 
L 87.668992 138.512827 
L 100.591351 141.760933 
L 112.621779 112.154933 
L 123.875492 108.689937 
L 134.446731 111.824943 
L 144.413561 114.121563 
L 153.841372 126.803099 
L 162.785489 126.392343 
L 171.293129 124.001896 
L 179.404919 130.250879 
L 187.156064 132.820066 
L 194.577271 132.992019 
L 201.695485 163.49337 
L 208.534481 166.644894 
L 215.115339 164.60485 
L 221.456839 166.075311 
L 227.575784 146.636226 
L 233.487267 150.737008 
L 239.204896 155.936245 
L 244.740981 156.418125 
L 250.106698 155.856247 
L 255.31222 154.517233 
L 260.366836 155.962212 
L 270.056664 149.819576 
L 274.706861 151.485025 
L 279.23626 171.582982 
L 283.650977 171.783139 
L 287.956679 164.792138 
L 292.158618 164.676507 
L 296.261679 165.117072 
L 300.270408 161.594811 
L 304.189046 159.290009 
L 308.021553 166.672884 
L 311.771633 170.924338 
L 315.442759 160.711053 
L 319.038187 156.83275 
L 322.560974 150.623713 
L 326.013998 125.56555 
L 329.39997 126.360012 
L 332.721442 127.369575 
L 335.980828 133.04124 
L 339.180404 128.754988 
L 342.322328 127.967836 
L 345.408639 129.453451 
L 348.441273 143.180862 
L 351.422064 147.389597 
L 354.352756 153.610128 
L 357.235004 188.636158 
L 360.070384 190.19292 
L 362.860396 181.711576 
L 365.60647 177.045631 
L 368.309966 181.929302 
L 370.972187 183.060715 
L 373.594372 182.142495 
L 376.177709 179.598648 
L 378.723331 176.34526 
L 381.232325 175.863068 
L 383.705728 167.503327 
L 386.144538 169.286792 
L 388.549708 176.140197 
L 390.922153 178.190957 
L 393.262752 178.381448 
L 395.57235 174.662092 
L 400.101748 181.742589 
L 402.323078 184.719263 
L 404.516466 184.562129 
L 406.682606 194.75097 
L 408.822167 189.234447 
L 410.935794 189.842827 
L 413.024107 192.346065 
L 415.087705 199.300274 
L 417.127167 205.073447 
L 419.143052 208.774217 
L 421.135897 207.813693 
L 423.106223 209.410223 
L 425.054534 215.691318 
L 426.981317 218.895016 
L 428.887041 228.666632 
L 430.772163 235.245033 
L 432.637122 236.46467 
L 434.482346 237.909326 
L 436.308248 238.382651 
L 438.115228 241.790478 
L 439.903675 247.472903 
L 441.673965 254.996105 
L 443.426463 251.72221 
L 445.161522 255.937549 
L 446.879487 251.11221 
L 448.580691 254.762936 
L 450.265458 243.077672 
L 451.934103 243.992485 
L 453.586931 253.284793 
L 455.224239 237.850841 
L 456.846316 242.331088 
L 458.453443 240.073705 
L 460.045893 248.203019 
L 461.623931 247.824406 
L 463.187817 256.681004 
L 464.737801 257.420925 
L 466.274128 279.277896 
L 467.797038 282.9 
L 469.306762 282.644369 
L 470.803527 299.19018 
L 472.287553 291.984661 
L 473.759056 298.923486 
L 475.218245 296.742524 
L 476.665324 299.767977 
L 478.100493 297.536346 
L 479.523946 299.042634 
L 480.935873 291.595834 
L 482.336459 297.277503 
L 483.725885 298.773384 
L 485.104327 302.391267 
L 486.471958 314.405142 
L 487.828946 312.817977 
L 489.175455 317.88449 
L 491.837675 325.593835 
L 493.153697 324.060674 
L 494.459861 321.481194 
L 495.756313 318.104512 
L 497.043197 310.890021 
L 498.320654 301.188272 
L 499.58882 286.979532 
L 500.847829 282.920157 
L 502.097813 275.181018 
L 503.338901 265.050343 
L 504.571217 266.306471 
L 505.794886 271.931932 
L 507.010027 287.19192 
L 508.216758 289.575264 
L 509.415196 297.760105 
L 511.787642 319.046301 
L 512.961869 327.430498 
L 515.286864 341.542919 
L 516.437838 344.720567 
L 517.581266 343.021838 
L 519.845869 340.253191 
L 520.967237 340.358629 
L 522.081439 340.072043 
L 523.188567 345.423505 
L 524.28871 344.906337 
L 525.381955 339.920521 
L 526.468388 342.474737 
L 527.548095 341.417639 
L 528.621157 344.105088 
L 529.687656 342.840369 
L 530.747672 344.636874 
L 532.848565 346.42428 
L 533.889595 341.213598 
L 534.924447 339.879014 
L 535.953194 345.962414 
L 536.975907 345.260176 
L 539.003511 338.381877 
L 540.00854 334.004818 
L 541.00781 331.937149 
L 542.001385 323.1408 
L 542.989332 323.008684 
L 543.971712 327.386205 
L 544.948589 325.83411 
L 545.920023 322.952046 
L 546.886076 323.828774 
L 547.846806 326.293793 
L 548.802271 329.459616 
L 549.75253 336.08516 
L 550.697638 340.19211 
L 551.637651 348.448115 
L 552.572624 350.682724 
L 553.502611 350.379849 
L 554.427664 353.15799 
L 555.347835 359.490599 
L 556.263176 359.582505 
L 557.173737 361.144343 
L 558.079568 361.895775 
L 558.980717 364.406604 
L 559.877233 360.408239 
L 561.656555 358.629065 
L 562.539454 359.367437 
L 563.417904 360.578734 
L 564.291951 349.521449 
L 565.161639 348.694804 
L 566.027011 345.529866 
L 566.888109 344.849098 
L 567.744976 344.478171 
L 568.597653 348.592424 
L 569.44618 350.442783 
L 570.290598 348.610634 
L 571.130947 346.392738 
L 571.967265 348.637224 
L 572.799592 360.633943 
L 573.627964 359.638186 
L 574.45242 359.200337 
L 575.272996 358.976702 
L 576.089728 357.200623 
L 576.902653 356.809978 
L 577.711805 353.118875 
L 578.51722 352.742869 
L 579.318932 353.829386 
L 580.116975 352.737685 
L 580.911382 349.398727 
L 582.48942 355.518988 
L 583.273116 355.585215 
L 584.83002 353.582187 
L 585.603289 357.983862 
L 586.373145 361.468526 
L 587.139617 363.063987 
L 587.902734 364.034942 
L 588.662526 366.713683 
L 589.419022 367.16921 
L 590.922239 371.044372 
L 591.669015 374.516684 
L 592.412607 374.993218 
L 593.153042 374.242363 
L 593.890345 374.402223 
L 594.624545 372.3084 
L 596.808774 372.425386 
L 597.530812 371.727895 
L 598.249873 371.551407 
L 598.965981 366.036617 
L 599.67916 365.686839 
L 600.389435 366.940585 
L 601.096827 366.758554 
L 601.801362 364.888672 
L 602.503061 365.057852 
L 603.201948 365.549908 
L 603.898045 365.430646 
L 604.591374 365.821236 
L 605.281957 364.161212 
L 605.969816 368.516903 
L 606.654972 370.760817 
L 607.337447 370.272542 
L 608.017261 369.000173 
L 608.694435 372.610586 
L 609.368989 372.785919 
L 610.040944 371.358448 
L 610.710319 370.785959 
L 611.377134 370.861095 
L 612.04141 371.184203 
L 612.703164 372.416646 
L 613.362416 368.829661 
L 614.67349 367.631685 
L 615.325349 367.725739 
L 615.97478 362.018603 
L 616.621802 363.229809 
L 617.266431 363.792051 
L 617.908686 363.329083 
L 618.548584 363.362125 
L 619.186143 362.29754 
L 619.821378 364.321182 
L 620.454308 364.020426 
L 621.084949 365.450539 
L 621.713318 361.521204 
L 622.33943 367.061147 
L 622.963302 366.619984 
L 624.204389 366.657024 
L 627.269003 372.191803 
L 627.875515 377.282475 
L 628.479925 376.971932 
L 629.082247 378.641897 
L 629.682496 379.09125 
L 631.470942 379.471883 
L 632.063038 380.480771 
L 633.241232 379.697267 
L 633.827357 379.667967 
L 634.411519 380.426102 
L 634.99373 379.950229 
L 636.728789 380.804106 
L 638.446754 377.428809 
L 639.015669 377.742929 
L 640.147958 376.865965 
L 640.711358 376.927386 
L 641.272943 376.375694 
L 641.832726 376.627412 
L 642.390717 376.352178 
L 642.946928 376.884868 
L 643.50137 377.930292 
L 644.054056 378.508554 
L 645.154198 378.300336 
L 646.791506 378.889153 
L 647.333877 378.075147 
L 648.413584 378.379867 
L 648.95094 378.188039 
L 649.486646 379.577882 
L 650.020711 379.268328 
L 650.553145 379.755822 
L 651.083958 378.975663 
L 651.61316 378.763017 
L 652.140762 379.272173 
L 652.666771 380.069818 
L 653.191199 378.8852 
L 653.714054 379.057632 
L 654.755084 376.614243 
L 655.273278 376.964586 
L 655.789936 376.876658 
L 656.305068 377.444233 
L 656.818683 377.631066 
L 657.330789 376.63488 
L 657.841395 376.086372 
L 658.350511 377.427913 
L 658.858145 376.291641 
L 659.364305 376.485084 
L 659.869 376.344414 
L 660.372239 376.420114 
L 660.874029 376.625317 
L 661.37438 377.062005 
L 661.873298 376.495894 
L 662.370794 377.120197 
L 663.85482 377.845844 
L 664.346702 378.408316 
L 664.837201 379.329429 
L 665.326323 379.374314 
L 665.814077 379.306597 
L 666.300471 378.72347 
L 666.785512 379.541718 
L 667.269207 379.234662 
L 667.751564 379.524437 
L 668.232591 379.064538 
L 668.712294 379.785702 
L 669.190682 380.080072 
L 669.66776 379.946015 
L 670.618019 380.314563 
L 671.091213 380.773355 
L 671.563127 379.322994 
L 672.033767 378.972605 
L 672.50314 379.323749 
L 672.971253 379.077988 
L 673.438113 378.49205 
L 673.903726 378.469248 
L 674.3681 378.324885 
L 674.831239 378.010823 
L 675.293152 377.516835 
L 675.753845 377.631182 
L 676.213324 378.543305 
L 676.671595 379.02246 
L 677.128664 378.796699 
L 678.039225 379.810377 
L 678.492729 379.942313 
L 678.945056 380.997142 
L 679.846206 381.709519 
L 680.29504 381.704538 
L 680.742722 382.037181 
L 681.189258 381.815575 
L 681.634653 381.817779 
L 682.078913 378.902132 
L 682.522044 379.262833 
L 683.404942 376.356294 
L 683.844721 375.888948 
L 684.283393 376.124714 
L 684.720964 376.058109 
L 685.15744 376.316217 
L 685.592826 376.394268 
L 686.027128 375.687857 
L 686.46035 376.554913 
L 686.892499 376.456512 
L 687.753598 378.995172 
L 688.182557 378.98445 
L 688.610465 378.077152 
L 689.463141 377.633717 
L 689.887921 377.966746 
L 690.311669 378.814807 
L 690.734389 380.521824 
L 691.576768 380.974975 
L 691.996436 380.519174 
L 692.832754 381.909089 
L 693.249414 382.013393 
L 693.665081 382.343009 
L 694.079759 382.220967 
L 694.906168 381.597761 
L 695.317908 380.401069 
L 696.138484 380.010682 
L 696.547329 378.659796 
L 696.955217 378.39504 
L 697.362153 378.383303 
L 698.173187 377.943683 
L 698.577294 378.260896 
L 698.980466 378.732497 
L 699.382709 379.500098 
L 699.784026 379.75191 
L 700.583899 381.332023 
L 700.982464 380.895828 
L 701.380119 381.206384 
L 701.776871 381.344522 
L 702.172721 381.820971 
L 702.567675 381.31533 
L 702.961736 380.19211 
L 703.354909 380.637262 
L 703.747197 380.033439 
L 704.138605 379.921292 
L 704.529136 380.347104 
L 705.307584 380.396454 
L 705.695508 380.230491 
L 706.082572 380.335711 
L 706.468778 380.781088 
L 706.854131 382.440517 
L 707.238634 381.701639 
L 707.622291 380.319134 
L 708.005106 380.749309 
L 708.387082 380.137279 
L 708.768223 380.955991 
L 709.148533 380.661652 
L 710.284511 380.957257 
L 710.661532 380.674811 
L 711.037739 380.896424 
L 711.413137 382.80295 
L 711.787728 382.090049 
L 712.161516 382.469348 
L 712.534504 382.390509 
L 712.906696 381.710482 
L 713.278096 380.737841 
L 713.648706 379.316835 
L 714.01853 377.204302 
L 714.387572 377.233709 
L 714.755834 377.703987 
L 715.12332 377.473078 
L 715.490033 377.861531 
L 715.855977 377.379403 
L 716.221154 377.313873 
L 717.312119 379.970026 
L 717.674263 381.936831 
L 718.396301 381.433395 
L 719.115362 381.296137 
L 719.473784 381.990007 
L 719.83147 382.200232 
L 720.188424 382.021606 
L 720.544649 382.268935 
L 720.900148 379.762758 
L 721.254923 378.73164 
L 721.608978 378.451262 
L 721.962316 378.616261 
L 722.314939 378.460192 
L 722.66685 378.91404 
L 723.018053 378.277427 
L 723.36855 377.960462 
L 724.067437 378.264075 
L 724.415832 381.046594 
L 724.763533 381.960166 
L 725.110543 381.904056 
L 725.456863 381.107753 
L 726.147446 380.95124 
L 726.491714 381.415905 
L 727.178219 381.274919 
L 727.520461 380.445785 
L 727.862032 380.572912 
L 728.202936 380.84545 
L 728.543174 381.400817 
L 728.88275 382.371222 
L 729.221665 382.998092 
L 729.559923 382.659097 
L 729.897527 381.894232 
L 730.234478 382.191821 
L 730.570779 382.250987 
L 730.906432 381.161712 
L 731.241441 381.214475 
L 731.575808 380.865993 
L 732.242623 380.625845 
L 732.575077 380.610244 
L 732.906898 380.277666 
L 733.238089 381.285678 
L 733.89859 381.187712 
L 734.227905 383.091392 
L 734.556599 383.094316 
L 734.884674 383.255899 
L 735.212134 383.63169 
L 735.865213 383.792753 
L 736.515856 383.355839 
L 736.840269 382.683769 
L 737.48729 382.388705 
L 737.809903 381.013891 
L 738.13192 380.825482 
L 738.453343 381.031694 
L 738.774175 380.776429 
L 739.094417 380.749068 
L 739.414073 381.161586 
L 739.733143 381.086466 
L 740.051631 381.460718 
L 740.686867 381.84348 
L 741.003619 383.243515 
L 741.319797 383.544566 
L 741.635403 383.028647 
L 741.950438 383.080093 
L 742.264905 383.009014 
L 742.578807 383.150151 
L 742.892144 383.07955 
L 743.204919 383.456448 
L 743.517134 383.326469 
L 743.828791 383.026476 
L 744.450439 382.777661 
L 744.760433 382.386771 
L 745.069878 382.471305 
L 745.378775 382.142371 
L 745.687125 382.235922 
L 746.302194 381.574665 
L 746.915102 382.105129 
L 747.22075 381.705638 
L 747.525863 381.663569 
L 747.830443 381.093968 
L 748.134492 381.240442 
L 748.438012 381.653601 
L 748.741004 381.772339 
L 749.345414 382.328771 
L 749.646835 382.250115 
L 749.947736 381.931353 
L 750.547984 382.787266 
L 750.847336 383.75639 
L 751.146174 383.370848 
L 751.742318 383.105761 
L 752.039628 383.499195 
L 752.63273 383.080231 
L 752.928527 383.383121 
L 753.518619 383.313325 
L 754.106721 383.99439 
L 754.40003 383.709697 
L 754.692846 383.8463 
L 754.985171 383.601228 
L 755.277007 383.535928 
L 755.568356 383.779843 
L 756.149597 382.358534 
L 756.439492 381.618053 
L 756.728906 381.628861 
L 757.017841 381.221006 
L 757.306298 381.134773 
L 757.881783 381.355242 
L 758.168816 381.097184 
L 758.455376 381.240703 
L 759.027088 382.527769 
L 759.312243 383.172883 
L 759.596932 380.900661 
L 760.16492 381.865649 
L 760.448221 381.887856 
L 760.731063 382.056667 
L 761.013447 382.486761 
L 761.295375 382.399131 
L 761.576847 382.499789 
L 761.857866 382.482235 
L 762.138432 382.628756 
L 762.418548 384.998316 
L 763.256205 384.726192 
L 763.534533 384.761081 
L 763.812416 383.019395 
L 764.089858 383.001622 
L 764.366859 382.272001 
L 764.643421 382.228676 
L 764.919544 381.682625 
L 765.195231 381.635836 
L 765.470483 381.285489 
L 765.745301 381.16067 
L 766.019687 381.23755 
L 766.293642 380.945034 
L 766.567166 381.768296 
L 766.840263 381.612137 
L 767.112932 382.118485 
L 767.385176 382.142174 
L 767.656995 382.334528 
L 767.928391 381.940527 
L 768.199366 382.394381 
L 768.740055 382.11716 
L 769.009772 382.33845 
L 769.279072 383.303138 
L 769.816429 383.37537 
L 770.084487 381.288137 
L 770.619371 382.031541 
L 770.886199 381.146762 
L 771.15262 381.174933 
L 771.418633 380.715757 
L 771.684242 380.500808 
L 772.214249 380.476957 
L 772.478649 380.140164 
L 772.742649 382.005029 
L 773.269453 381.458875 
L 773.53226 382.105325 
L 773.794671 382.24828 
L 774.056687 382.861675 
L 774.579542 382.962593 
L 774.840383 382.77866 
L 775.360897 383.398697 
L 775.620573 383.443143 
L 776.138766 383.83464 
L 776.913181 384.1346 
L 777.170557 384.010804 
L 777.427553 384.391105 
L 777.684171 384.346399 
L 777.940412 384.417256 
L 778.706884 383.425619 
L 779.216 383.295584 
L 779.470001 383.255133 
L 779.723634 383.08907 
L 779.976897 383.074739 
L 780.229794 382.899026 
L 780.482324 382.92188 
L 780.734489 382.76734 
L 780.98629 383.312714 
L 781.237727 383.552121 
L 781.488803 383.152928 
L 781.739518 383.094351 
L 781.989872 382.710261 
L 782.239868 381.611542 
L 782.489506 381.576067 
L 782.738787 381.818858 
L 782.987712 381.783506 
L 783.236283 382.486317 
L 783.732363 381.883599 
L 784.227036 382.081699 
L 784.473847 382.493672 
L 784.720309 383.946289 
L 784.966423 383.706669 
L 785.457613 383.880499 
L 785.702689 383.424158 
L 786.435859 384.345145 
L 786.679566 384.143911 
L 786.922932 384.267906 
L 787.16596 384.212934 
L 787.651001 384.542228 
L 787.893016 384.525161 
L 788.134696 385.058403 
L 788.857732 384.780752 
L 789.09808 384.388384 
L 790.294873 384.046681 
L 790.771299 383.63702 
L 791.009025 382.687803 
L 791.246428 382.761494 
L 791.483507 383.3339 
L 792.192818 383.081901 
L 792.428616 382.868186 
L 792.664094 382.913596 
L 793.1341 381.409881 
L 793.368629 382.487596 
L 793.602843 382.325574 
L 794.070328 382.414494 
L 794.303602 382.547956 
L 794.769215 383.145692 
L 795.001556 383.245731 
L 795.233588 383.933057 
L 795.465312 385.066035 
L 795.696728 384.689496 
L 795.927837 384.807725 
L 796.158641 383.388026 
L 796.389139 382.999262 
L 796.619334 383.081328 
L 796.849224 382.732916 
L 797.078812 382.62036 
L 797.308098 382.665079 
L 797.765768 382.582606 
L 797.994153 382.975123 
L 798.450028 382.735015 
L 798.677519 383.13799 
L 798.904714 382.553101 
L 799.358218 382.612726 
L 799.810545 382.356964 
L 800.261702 382.341369 
L 800.486843 382.366042 
L 800.711695 383.889191 
L 800.936256 383.878959 
L 801.160529 384.340763 
L 801.384514 383.758588 
L 801.608211 383.624945 
L 801.831622 383.728972 
L 802.054746 384.097862 
L 802.277586 384.025278 
L 802.722413 384.323012 
L 802.944402 384.331219 
L 803.166108 383.85079 
L 803.387533 383.961657 
L 803.608677 384.616675 
L 804.050125 384.59683 
L 804.490459 383.981217 
L 804.71021 383.91909 
L 804.929683 383.667663 
L 805.148882 383.60532 
L 805.367804 384.044684 
L 805.804827 383.90835 
L 806.022929 383.911118 
L 806.240758 383.703515 
L 806.675601 384.322564 
L 806.892616 384.26812 
L 807.109362 384.488043 
L 807.325839 383.056556 
L 807.757988 382.827137 
L 807.973662 382.555783 
L 808.189069 382.594862 
L 808.40421 382.906408 
L 808.619086 383.018509 
L 809.262131 381.876369 
L 809.475953 383.177935 
L 809.689514 383.131017 
L 810.32863 383.986665 
L 810.541149 383.687888 
L 810.965412 383.46199 
L 811.177157 383.985097 
L 811.599878 384.054971 
L 812.021576 384.160687 
L 812.442256 384.091315 
L 812.652217 384.379401 
L 812.861924 384.132808 
L 813.07138 384.441362 
L 813.280585 384.479382 
L 813.489539 384.8749 
L 813.698243 385.029258 
L 814.114903 384.813262 
L 814.32286 383.998562 
L 814.530569 384.0932 
L 814.738031 383.973888 
L 815.358941 384.276733 
L 815.565421 384.333018 
L 816.183397 384.173806 
L 816.388903 385.05989 
L 817.208515 385.039018 
L 817.412817 384.848774 
L 817.616881 384.234964 
L 817.820705 384.125108 
L 818.227641 384.423048 
L 818.430754 383.332047 
L 819.038676 383.525347 
L 819.442783 382.742443 
L 819.644485 382.900821 
L 819.845955 382.91071 
L 820.248198 382.542064 
L 820.448971 383.653085 
L 820.849827 383.623043 
L 821.049909 383.057168 
L 821.249763 383.435458 
L 821.449387 383.328617 
L 821.648784 383.788807 
L 821.847952 383.915866 
L 822.245608 384.391191 
L 822.642359 384.424871 
L 822.840397 384.236994 
L 823.235798 385.069991 
L 823.433164 385.536073 
L 823.827225 385.51416 
L 824.220398 384.884649 
L 824.612686 384.669519 
L 824.808499 384.948055 
L 825.394625 384.792818 
L 825.589563 384.503086 
L 825.784283 384.467306 
L 825.978786 384.880033 
L 826.560997 384.993174 
L 826.754636 384.772939 
L 826.948061 384.785235 
L 827.141271 384.568864 
L 827.334267 384.595317 
L 827.52705 384.820076 
L 827.719619 384.787136 
L 827.911977 384.4091 
L 828.296057 384.422901 
L 828.48778 384.335759 
L 828.870594 384.558408 
L 829.25257 383.898061 
L 829.633712 383.83566 
L 829.82397 384.052839 
L 830.014022 384.019262 
L 830.393504 383.650875 
L 830.582936 383.715279 
L 830.772162 383.640935 
L 831.15 384.49758 
L 831.338612 384.517429 
L 831.527021 384.397937 
L 831.715226 384.549821 
L 831.903228 384.447093 
L 832.278625 384.850475 
L 833.213598 384.480241 
L 833.399993 384.671754 
L 833.957984 384.563955 
L 834.328988 384.679316 
L 834.514195 384.736122 
L 834.884019 385.176373 
L 835.988809 385.511454 
L 836.172262 385.122942 
L 837.086643 384.645405 
L 837.268945 384.422262 
L 837.451057 384.473675 
L 837.632978 384.310048 
L 837.814711 384.3548 
L 837.996254 384.799337 
L 838.358774 385.004869 
L 839.26179 384.822776 
L 839.441833 384.544425 
L 839.621691 383.934124 
L 839.801363 383.92609 
L 839.980851 383.778538 
L 840.518207 383.9816 
L 840.696959 384.074582 
L 841.053913 384.436112 
L 841.232116 384.690198 
L 841.410138 385.318943 
L 842.297529 384.960974 
L 842.651225 384.507166 
L 843.004205 384.632818 
L 843.180428 384.293322 
L 843.180428 384.293322 
" clip-path="url(#p1d13e2e9f5)" style="fill: none; stroke: #000000; stroke-width: 2; stroke-linecap: square"/>
   </g>
   <g id="line2d_27">
    <path d="M -1 123.166024 
L 3.010003 122.841242 
L 23.548072 122.385351 
L 41.92 119.479924 
L 58.539431 125.831833 
L 73.711782 129.67886 
L 87.668992 136.826488 
L 100.591351 136.240355 
L 112.621779 135.035955 
L 123.875492 138.728367 
L 134.446731 138.53556 
L 144.413561 141.10177 
L 153.841372 135.804489 
L 162.785489 143.611994 
L 171.293129 144.69827 
L 179.404919 148.148066 
L 187.156064 150.398597 
L 194.577271 148.714144 
L 201.695485 142.091529 
L 208.534481 139.116805 
L 215.115339 128.368179 
L 221.456839 126.258104 
L 227.575784 134.538049 
L 233.487267 136.130431 
L 239.204896 129.201818 
L 244.740981 111.691841 
L 250.106698 113.078656 
L 255.31222 116.759649 
L 260.366836 126.611465 
L 270.056664 142.170517 
L 274.706861 144.238569 
L 279.23626 138.345297 
L 283.650977 137.43654 
L 287.956679 144.410374 
L 292.158618 161.017261 
L 296.261679 158.287414 
L 300.270408 156.866234 
L 304.189046 156.22363 
L 308.021553 154.572603 
L 311.771633 159.107662 
L 315.442759 160.627878 
L 319.038187 165.6512 
L 322.560974 165.466065 
L 326.013998 166.329382 
L 329.39997 160.898387 
L 332.721442 163.711559 
L 335.980828 153.92284 
L 339.180404 156.584521 
L 342.322328 155.442511 
L 345.408639 151.926853 
L 348.441273 155.800387 
L 351.422064 153.395888 
L 354.352756 155.000886 
L 357.235004 153.977471 
L 362.860396 156.270815 
L 365.60647 161.103576 
L 368.309966 160.794114 
L 370.972187 162.620743 
L 373.594372 168.275142 
L 376.177709 164.390521 
L 378.723331 165.645468 
L 381.232325 162.500275 
L 383.705728 163.961333 
L 386.144538 172.284219 
L 388.549708 173.972833 
L 390.922153 176.165682 
L 395.57235 170.418841 
L 397.851755 170.095499 
L 400.101748 172.664315 
L 402.323078 174.773798 
L 404.516466 180.164946 
L 406.682606 181.504108 
L 408.822167 178.631048 
L 410.935794 179.60726 
L 413.024107 178.90323 
L 415.087705 182.199692 
L 417.127167 187.662758 
L 419.143052 184.676771 
L 421.135897 173.156926 
L 423.106223 176.65921 
L 425.054534 179.378027 
L 426.981317 179.539443 
L 428.887041 185.155579 
L 430.772163 177.953034 
L 432.637122 179.484747 
L 434.482346 174.278554 
L 436.308248 172.214401 
L 438.115228 176.996032 
L 439.903675 191.020482 
L 441.673965 190.110467 
L 443.426463 189.379776 
L 445.161522 192.920272 
L 446.879487 193.973511 
L 448.580691 203.041232 
L 450.265458 204.725519 
L 451.934103 211.910812 
L 453.586931 216.487083 
L 455.224239 220.262811 
L 456.846316 222.783581 
L 458.453443 228.684685 
L 460.045893 228.966349 
L 461.623931 229.435243 
L 463.187817 227.19556 
L 464.737801 226.303782 
L 466.274128 232.345989 
L 467.797038 235.329775 
L 469.306762 230.945031 
L 470.803527 232.135848 
L 472.287553 220.759868 
L 473.759056 217.453026 
L 475.218245 220.337336 
L 476.665324 225.512121 
L 478.100493 228.714234 
L 479.523946 232.976391 
L 480.935873 234.026136 
L 482.336459 231.289253 
L 483.725885 244.210634 
L 485.104327 243.506929 
L 486.471958 258.326674 
L 487.828946 260.904392 
L 489.175455 264.395945 
L 490.511646 262.256845 
L 491.837675 265.445415 
L 493.153697 267.869341 
L 494.459861 274.602641 
L 495.756313 279.369552 
L 497.043197 271.438285 
L 498.320654 273.407258 
L 499.58882 271.805881 
L 500.847829 262.385908 
L 502.097813 257.710241 
L 503.338901 262.659265 
L 504.571217 260.325843 
L 505.794886 259.578118 
L 507.010027 260.045902 
L 508.216758 262.064845 
L 509.415196 256.754521 
L 510.605454 260.189196 
L 511.787642 262.876018 
L 512.961869 273.51708 
L 514.128241 280.00363 
L 515.286864 274.816595 
L 516.437838 281.739455 
L 517.581266 285.923477 
L 518.717244 285.7179 
L 519.845869 283.937089 
L 520.967237 297.253849 
L 522.081439 301.092692 
L 523.188567 301.812129 
L 524.28871 308.27027 
L 525.381955 310.933748 
L 526.468388 317.260155 
L 527.548095 312.630809 
L 528.621157 312.51694 
L 529.687656 312.978181 
L 530.747672 318.507003 
L 531.801282 320.841996 
L 532.848565 320.011844 
L 533.889595 325.586158 
L 534.924447 324.259554 
L 535.953194 324.594704 
L 536.975907 325.235623 
L 537.992656 329.654009 
L 539.003511 327.692563 
L 540.00854 328.20373 
L 541.00781 330.31699 
L 542.001385 330.269857 
L 542.989332 328.644708 
L 543.971712 327.350537 
L 544.948589 327.820842 
L 545.920023 328.958737 
L 546.886076 328.533343 
L 547.846806 327.282938 
L 548.802271 333.171499 
L 549.75253 337.281791 
L 551.637651 341.996838 
L 552.572624 345.751521 
L 553.502611 348.260724 
L 554.427664 351.188475 
L 555.347835 351.884882 
L 556.263176 354.561592 
L 557.173737 356.269434 
L 558.079568 354.809518 
L 558.980717 345.745235 
L 559.877233 344.894562 
L 560.769164 345.425841 
L 561.656555 345.277082 
L 562.539454 345.579355 
L 563.417904 344.386527 
L 564.291951 339.571397 
L 565.161639 340.49677 
L 566.027011 342.345319 
L 566.888109 345.044034 
L 567.744976 352.162819 
L 568.597653 352.637807 
L 569.44618 351.04347 
L 570.290598 352.838076 
L 571.130947 352.381493 
L 571.967265 351.548573 
L 572.799592 358.806376 
L 573.627964 360.540519 
L 574.45242 362.990228 
L 575.272996 362.474093 
L 576.089728 366.293249 
L 576.902653 364.108718 
L 577.711805 366.685747 
L 578.51722 363.608059 
L 579.318932 364.272232 
L 580.116975 366.598976 
L 580.911382 366.580273 
L 581.702186 366.007794 
L 582.48942 365.167968 
L 583.273116 367.355542 
L 584.053305 362.646002 
L 584.83002 365.591436 
L 585.603289 363.886563 
L 586.373145 365.973931 
L 587.139617 366.399622 
L 587.902734 364.679683 
L 588.662526 365.357829 
L 589.419022 363.031763 
L 590.172251 361.859279 
L 590.922239 361.742065 
L 591.669015 366.527645 
L 592.412607 365.370231 
L 593.153042 361.91547 
L 593.890345 363.112912 
L 594.624545 359.913492 
L 595.355665 361.776792 
L 596.083733 360.984001 
L 596.808774 362.063783 
L 597.530812 363.81135 
L 598.249873 363.236085 
L 598.965981 362.497787 
L 599.67916 363.876266 
L 600.389435 366.830419 
L 601.096827 366.375256 
L 601.801362 369.96819 
L 603.201948 371.570193 
L 603.898045 373.529322 
L 605.281957 374.437892 
L 605.969816 375.376709 
L 606.654972 376.052301 
L 607.337447 378.427453 
L 608.017261 377.32667 
L 608.694435 377.050345 
L 609.368989 374.87541 
L 610.040944 374.789564 
L 611.377134 375.414108 
L 612.04141 374.995703 
L 612.703164 375.456896 
L 614.019186 375.408958 
L 615.325349 377.118043 
L 615.97478 379.261043 
L 616.621802 378.638963 
L 617.266431 378.394185 
L 617.908686 377.238929 
L 618.548584 378.001957 
L 619.186143 376.33011 
L 619.821378 376.406911 
L 620.454308 376.711998 
L 621.084949 377.875239 
L 621.713318 377.55022 
L 622.963302 377.531665 
L 623.58495 377.538406 
L 624.204389 378.883891 
L 624.821636 378.339649 
L 625.436706 379.926449 
L 626.660374 380.193631 
L 629.082247 377.701297 
L 629.682496 376.15928 
L 630.280685 375.358566 
L 630.876829 374.838908 
L 631.470942 372.643377 
L 632.063038 369.903017 
L 632.65313 368.427366 
L 633.827357 370.27677 
L 634.411519 370.270713 
L 634.99373 370.653822 
L 635.574003 371.730617 
L 636.152352 371.594059 
L 636.728789 372.81569 
L 637.303327 374.712763 
L 637.875978 377.186404 
L 638.446754 378.41907 
L 639.015669 378.043173 
L 639.582733 377.512427 
L 640.711358 378.988282 
L 641.272943 378.977195 
L 641.832726 379.209758 
L 642.390717 377.855996 
L 642.946928 377.791662 
L 643.50137 376.554059 
L 644.054056 376.48451 
L 644.604995 375.538191 
L 645.154198 376.100687 
L 646.247443 373.137869 
L 646.791506 373.203251 
L 647.333877 373.788008 
L 647.874566 374.557873 
L 648.413584 371.644768 
L 648.95094 372.724527 
L 649.486646 372.514303 
L 650.020711 373.797203 
L 650.553145 373.788315 
L 651.083958 374.454133 
L 651.61316 376.282503 
L 652.140762 375.842944 
L 652.666771 375.569823 
L 653.191199 374.739364 
L 653.714054 377.864602 
L 654.755084 376.579587 
L 655.789936 376.586368 
L 656.305068 376.211995 
L 656.818683 375.489937 
L 657.330789 374.982945 
L 657.841395 374.757538 
L 658.350511 376.178934 
L 658.858145 374.665568 
L 659.869 377.107938 
L 660.874029 376.103716 
L 661.37438 377.540713 
L 661.873298 378.23704 
L 662.370794 379.637962 
L 662.866874 380.162128 
L 663.361547 380.339844 
L 663.85482 381.430025 
L 664.837201 380.242278 
L 665.326323 380.603669 
L 665.814077 380.815795 
L 666.300471 380.843704 
L 666.785512 380.992688 
L 667.269207 381.353366 
L 667.751564 381.354069 
L 668.232591 381.113739 
L 669.190682 382.217859 
L 670.143537 381.879165 
L 670.618019 382.340925 
L 671.091213 381.820774 
L 672.033767 380.480653 
L 672.971253 377.039564 
L 673.438113 376.930971 
L 673.903726 376.685622 
L 674.3681 376.978135 
L 675.753845 376.630001 
L 676.671595 377.481975 
L 677.584539 381.354537 
L 678.039225 381.027514 
L 678.492729 381.36018 
L 678.945056 381.318178 
L 679.396213 381.071273 
L 679.846206 381.203055 
L 680.29504 379.800893 
L 680.742722 379.686294 
L 681.634653 378.910192 
L 682.078913 378.876373 
L 682.522044 379.48351 
L 682.964052 379.635217 
L 683.404942 380.0574 
L 683.844721 379.540982 
L 684.283393 379.587452 
L 684.720964 381.168996 
L 685.15744 381.434592 
L 685.592826 380.84003 
L 686.027128 381.171318 
L 686.892499 380.060592 
L 687.32358 379.526378 
L 687.753598 379.561523 
L 688.182557 380.538551 
L 688.610465 380.036592 
L 689.037324 378.876556 
L 689.463141 378.996498 
L 689.887921 380.165967 
L 690.311669 379.569169 
L 691.156087 380.608466 
L 691.996436 380.533756 
L 692.415096 380.12186 
L 692.832754 380.606306 
L 693.249414 381.983485 
L 693.665081 381.830939 
L 694.079759 381.436785 
L 694.493453 381.968993 
L 694.906168 381.587643 
L 695.317908 381.382694 
L 695.728679 382.031021 
L 696.138484 381.925214 
L 696.547329 381.54841 
L 696.955217 379.515325 
L 697.362153 379.850187 
L 698.173187 380.160151 
L 698.577294 379.663261 
L 699.382709 380.220692 
L 699.784026 378.657427 
L 700.184421 378.815534 
L 700.583899 379.357588 
L 700.982464 380.582782 
L 701.380119 379.626329 
L 701.776871 379.592425 
L 702.172721 379.188506 
L 702.567675 379.772658 
L 703.354909 378.983641 
L 703.747197 380.06641 
L 704.138605 380.06191 
L 704.918794 380.659252 
L 705.307584 381.49673 
L 705.695508 381.713483 
L 706.082572 381.653171 
L 706.468778 380.526141 
L 706.854131 380.485892 
L 707.238634 380.700331 
L 708.005106 380.798341 
L 708.387082 380.48929 
L 708.768223 381.170203 
L 709.528015 381.144192 
L 709.906673 381.369238 
L 710.661532 382.959784 
L 711.787728 383.092289 
L 712.161516 382.045155 
L 712.534504 381.921825 
L 713.278096 381.35134 
L 713.648706 381.956341 
L 714.01853 382.126505 
L 714.387572 381.544937 
L 714.755834 381.666987 
L 715.490033 381.401583 
L 715.855977 382.276118 
L 716.585568 381.559474 
L 716.949222 379.194125 
L 717.674263 379.30746 
L 718.035656 379.806266 
L 718.396301 379.68525 
L 718.756202 379.982223 
L 719.115362 380.088605 
L 719.83147 380.642779 
L 720.188424 380.750614 
L 720.544649 383.213805 
L 720.900148 382.865626 
L 721.254923 382.844108 
L 721.608978 383.032838 
L 722.314939 383.011588 
L 722.66685 382.815929 
L 723.018053 382.908765 
L 723.36855 382.081569 
L 723.718343 382.36495 
L 724.415832 381.621841 
L 724.763533 381.497172 
L 725.110543 380.276985 
L 725.456863 380.279841 
L 725.802496 379.967346 
L 726.147446 379.900848 
L 726.491714 380.201802 
L 726.835305 381.206239 
L 727.178219 380.911573 
L 727.520461 381.496563 
L 727.862032 381.193963 
L 728.202936 381.3098 
L 728.543174 382.411909 
L 729.559923 381.21564 
L 729.897527 380.818036 
L 730.234478 380.788401 
L 730.570779 381.35027 
L 730.906432 379.074166 
L 731.241441 379.742111 
L 731.575808 378.598744 
L 731.909534 378.670569 
L 732.575077 379.840419 
L 733.238089 381.053071 
L 733.568653 380.960485 
L 733.89859 380.582601 
L 734.227905 382.742879 
L 734.556599 383.026394 
L 734.884674 384.154489 
L 735.538979 384.199303 
L 735.865213 383.616224 
L 736.190838 383.541786 
L 736.515856 382.703983 
L 736.840269 382.859045 
L 737.16408 383.20222 
L 737.809903 382.920916 
L 738.13192 382.799858 
L 738.453343 381.521481 
L 739.094417 381.088596 
L 739.414073 380.804381 
L 739.733143 381.589395 
L 740.051631 381.059013 
L 740.686867 381.311135 
L 741.003619 380.966262 
L 741.319797 381.050504 
L 741.635403 382.126029 
L 741.950438 382.450226 
L 742.264905 383.398744 
L 742.578807 383.384914 
L 742.892144 383.239296 
L 743.204919 383.578522 
L 743.828791 383.047999 
L 744.139892 382.990181 
L 744.450439 383.091418 
L 744.760433 382.033649 
L 745.069878 381.882756 
L 745.378775 380.931472 
L 745.687125 381.333928 
L 746.302194 381.587081 
L 746.608918 381.203644 
L 746.915102 381.460987 
L 747.22075 382.057607 
L 747.525863 381.403575 
L 747.830443 382.681713 
L 748.134492 382.638597 
L 748.438012 383.593782 
L 749.043471 383.311574 
L 749.345414 383.048332 
L 749.646835 383.024042 
L 749.947736 382.34386 
L 750.248118 381.291046 
L 750.547984 381.946178 
L 751.146174 381.65856 
L 752.039628 381.84072 
L 752.336431 380.677971 
L 752.928527 381.539421 
L 753.223823 382.443036 
L 753.518619 381.785051 
L 753.812918 381.680021 
L 754.106721 380.905711 
L 754.692846 380.562668 
L 754.985171 380.735952 
L 755.277007 382.019925 
L 756.149597 382.724418 
L 756.439492 383.334669 
L 756.728906 383.612146 
L 757.017841 384.641936 
L 757.594278 384.711414 
L 757.881783 384.641153 
L 758.168816 384.794349 
L 758.741467 384.629229 
L 759.027088 384.185222 
L 759.312243 384.210687 
L 759.596932 383.769258 
L 759.881157 383.841613 
L 760.448221 384.148534 
L 761.013447 383.412637 
L 761.295375 382.949547 
L 761.576847 382.874023 
L 761.857866 383.368704 
L 762.138432 382.921989 
L 762.418548 383.094009 
L 762.698214 381.132322 
L 763.256205 380.553829 
L 763.534533 380.575867 
L 763.812416 381.114847 
L 764.089858 381.301091 
L 764.366859 381.246925 
L 764.643421 380.951182 
L 764.919544 381.223367 
L 765.195231 380.828239 
L 765.470483 382.850098 
L 766.019687 383.290989 
L 766.293642 380.792364 
L 766.567166 379.893606 
L 767.112932 380.345657 
L 767.385176 380.227499 
L 767.656995 380.328834 
L 768.199366 380.139815 
L 768.46992 378.317356 
L 768.740055 378.225521 
L 769.009772 380.689827 
L 769.279072 381.169091 
L 769.816429 381.012999 
L 770.084487 380.940785 
L 770.352134 379.779515 
L 770.619371 380.022202 
L 770.886199 380.091865 
L 771.15262 381.300781 
L 771.418633 380.315952 
L 772.214249 380.93034 
L 772.478649 380.684908 
L 772.742649 381.097615 
L 773.00625 382.255798 
L 773.269453 382.626672 
L 773.53226 382.626226 
L 773.794671 383.108011 
L 774.056687 384.43324 
L 774.579542 384.315225 
L 774.840383 384.481947 
L 775.100834 384.471804 
L 775.360897 384.291964 
L 775.620573 384.257343 
L 775.879862 383.936314 
L 776.397287 383.943686 
L 776.655425 383.799772 
L 776.913181 383.963723 
L 777.170557 383.962723 
L 777.427553 383.571601 
L 778.451768 384.566384 
L 778.961628 384.383641 
L 779.216 384.531585 
L 779.470001 384.107058 
L 779.723634 383.011853 
L 779.976897 383.537306 
L 780.229794 383.765677 
L 780.98629 383.803294 
L 781.488803 383.630966 
L 781.739518 383.587662 
L 781.989872 384.080763 
L 782.239868 385.102845 
L 782.987712 384.597672 
L 783.236283 384.018761 
L 783.732363 384.210047 
L 783.979875 383.177151 
L 784.227036 383.135517 
L 784.720309 382.478021 
L 784.966423 382.437447 
L 785.212191 382.585462 
L 785.457613 382.567715 
L 785.702689 382.938573 
L 785.947422 382.92853 
L 786.191812 383.053009 
L 786.435859 384.380715 
L 787.651001 384.855806 
L 788.617053 384.718373 
L 788.857732 384.571055 
L 789.09808 384.041383 
L 789.338096 383.900564 
L 789.817141 384.288426 
L 790.05617 383.680401 
L 790.533249 383.778942 
L 790.771299 383.576529 
L 791.009025 383.768424 
L 791.246428 382.928345 
L 791.483507 383.388106 
L 791.956702 383.693821 
L 792.192818 383.648083 
L 792.428616 384.213609 
L 792.899256 384.243801 
L 793.1341 384.554734 
L 793.368629 384.486327 
L 793.602843 385.262801 
L 794.303602 385.231978 
L 794.536564 385.256411 
L 795.465312 384.884104 
L 795.696728 384.89287 
L 795.927837 384.749285 
L 796.389139 383.925194 
L 796.619334 383.901408 
L 796.849224 383.174432 
L 797.308098 382.985958 
L 797.537083 383.179068 
L 797.994153 383.138828 
L 798.22224 383.333904 
L 798.677519 383.053515 
L 798.904714 382.390184 
L 799.131613 383.151451 
L 799.358218 383.190573 
L 799.810545 382.94843 
L 800.261702 383.024047 
L 800.486843 383.08026 
L 800.711695 383.280528 
L 800.936256 383.137947 
L 801.160529 383.867087 
L 801.831622 383.97748 
L 802.054746 384.02362 
L 802.500141 383.838315 
L 802.722413 383.916773 
L 802.944402 384.250427 
L 803.166108 385.1544 
L 803.387533 384.862577 
L 804.270431 384.778011 
L 804.490459 384.815918 
L 804.929683 384.329735 
L 806.240758 384.73554 
L 806.458315 384.320698 
L 806.675601 384.416165 
L 806.892616 384.77392 
L 807.109362 384.62474 
L 807.325839 384.292083 
L 807.542048 384.265658 
L 807.757988 383.85313 
L 808.189069 383.616132 
L 808.40421 383.75888 
L 808.619086 384.093147 
L 809.048046 383.722188 
L 809.262131 383.681701 
L 809.475953 383.963308 
L 809.689514 383.707098 
L 809.902813 383.671599 
L 810.541149 383.906649 
L 810.75341 383.906618 
L 811.177157 383.28484 
L 811.388646 383.651619 
L 811.599878 383.720668 
L 812.021576 384.232249 
L 812.232043 384.160785 
L 812.442256 384.405725 
L 812.652217 384.254436 
L 812.861924 381.372664 
L 813.280585 381.995272 
L 813.489539 382.022677 
L 813.698243 381.779034 
L 813.906697 381.051601 
L 814.32286 380.925545 
L 814.530569 380.618873 
L 814.738031 380.70389 
L 814.945247 383.619808 
L 815.152217 383.766686 
L 815.771657 383.733221 
L 815.977648 384.465419 
L 816.183397 384.756135 
L 816.388903 384.757652 
L 816.594168 385.04274 
L 817.208515 385.138249 
L 817.412817 384.929848 
L 817.616881 384.891803 
L 817.820705 385.048388 
L 818.227641 384.613783 
L 818.430754 384.713629 
L 818.83627 384.36897 
L 819.240846 384.370793 
L 819.442783 384.644836 
L 819.644485 384.689935 
L 819.845955 384.620816 
L 820.047192 384.936872 
L 820.849827 384.856154 
L 821.049909 384.831881 
L 821.249763 384.978035 
L 821.847952 384.954242 
L 822.046894 384.787593 
L 822.444097 384.837508 
L 822.642359 384.618416 
L 822.840397 384.851588 
L 823.03821 383.892595 
L 823.235798 383.832533 
L 823.827225 384.063161 
L 824.023922 384.326104 
L 824.416652 384.23149 
L 824.808499 383.434472 
L 825.004093 384.304698 
L 825.199468 384.376013 
L 825.589563 383.975551 
L 825.978786 383.671554 
L 826.173072 383.557834 
L 826.367143 383.688777 
L 826.560997 384.656355 
L 826.948061 384.996396 
L 827.141271 384.516125 
L 827.334267 384.768288 
L 827.52705 384.764099 
L 828.104123 385.217088 
L 828.296057 384.954641 
L 828.679292 384.703392 
L 828.870594 384.494006 
L 829.061687 384.994707 
L 829.25257 384.910397 
L 829.443245 385.027326 
L 829.633712 384.972237 
L 829.82397 385.086531 
L 830.014022 385.012602 
L 830.772162 385.556144 
L 830.961183 385.308166 
L 831.15 385.467936 
L 831.715226 385.379298 
L 831.903228 385.454465 
L 832.653216 385.112218 
L 832.840211 385.196789 
L 833.027004 384.763605 
L 833.399993 384.695078 
L 833.957984 383.827851 
L 834.328988 383.943067 
L 834.699205 384.0935 
L 834.884019 384.459703 
L 835.253061 384.512223 
L 835.805163 385.310641 
L 836.355522 385.069509 
L 836.53859 384.54598 
L 836.721465 384.482955 
L 837.086643 384.605912 
L 837.268945 384.508486 
L 837.814711 384.731346 
L 837.996254 384.570466 
L 838.177608 384.630235 
L 838.358774 385.185352 
L 838.720542 385.287527 
L 838.901144 385.034237 
L 839.08156 385.066335 
L 839.26179 384.816704 
L 839.801363 384.862226 
L 840.160154 384.777838 
L 840.518207 384.469411 
L 840.696959 384.708099 
L 840.875527 384.681653 
L 841.053913 384.891291 
L 841.410138 384.744011 
L 841.587978 385.275209 
L 842.120412 385.48001 
L 842.297529 385.216173 
L 842.474467 385.162822 
L 842.651225 385.277531 
L 842.827805 384.849029 
L 843.004205 385.010254 
L 843.180428 384.974217 
L 843.180428 384.974217 
" clip-path="url(#p1d13e2e9f5)" style="fill: none; stroke-dasharray: 7.4,3.2; stroke-dashoffset: 0; stroke: #000000; stroke-width: 2"/>
   </g>
   <g id="line2d_28">
    <path d="M -1 90.950654 
L 3.010003 89.745405 
L 23.548072 92.262208 
L 41.92 104.783287 
L 58.539431 97.718569 
L 73.711782 106.914891 
L 87.668992 123.864081 
L 100.591351 127.869701 
L 112.621779 140.937449 
L 123.875492 134.129811 
L 134.446731 146.544323 
L 144.413561 157.294016 
L 153.841372 139.4358 
L 162.785489 93.502067 
L 171.293129 101.209017 
L 179.404919 102.877851 
L 187.156064 106.850224 
L 194.577271 109.28093 
L 201.695485 109.221762 
L 208.534481 127.132171 
L 215.115339 119.463347 
L 221.456839 123.301827 
L 227.575784 136.84963 
L 233.487267 178.831492 
L 239.204896 182.055968 
L 244.740981 178.087305 
L 250.106698 179.675186 
L 255.31222 168.901138 
L 260.366836 157.563212 
L 265.279049 147.452171 
L 270.056664 161.173401 
L 274.706861 141.537956 
L 279.23626 139.712969 
L 283.650977 142.10759 
L 287.956679 134.715489 
L 292.158618 138.714232 
L 296.261679 141.664644 
L 300.270408 153.806659 
L 304.189046 168.727306 
L 308.021553 176.017452 
L 311.771633 172.16364 
L 315.442759 193.14352 
L 319.038187 195.280524 
L 322.560974 197.903624 
L 326.013998 199.809322 
L 329.39997 201.203137 
L 332.721442 199.454679 
L 335.980828 199.715465 
L 339.180404 198.757718 
L 342.322328 205.072026 
L 345.408639 212.8861 
L 348.441273 214.432923 
L 351.422064 221.315576 
L 354.352756 206.936485 
L 357.235004 203.741542 
L 360.070384 194.062008 
L 362.860396 193.617653 
L 365.60647 178.856384 
L 368.309966 170.647715 
L 370.972187 156.999151 
L 373.594372 145.976784 
L 376.177709 125.905968 
L 378.723331 121.081706 
L 381.232325 107.546917 
L 383.705728 80.393676 
L 386.144538 92.279842 
L 388.549708 74.346957 
L 390.922153 77.64225 
L 393.262752 84.514334 
L 395.57235 87.518922 
L 397.851755 91.844547 
L 400.101748 114.766365 
L 402.323078 109.952929 
L 404.516466 136.544106 
L 406.682606 172.46618 
L 408.822167 160.392422 
L 410.935794 181.256545 
L 413.024107 178.383057 
L 415.087705 178.708437 
L 417.127167 183.063344 
L 419.143052 192.871101 
L 421.135897 183.420661 
L 423.106223 192.161813 
L 425.054534 194.093754 
L 426.981317 198.23664 
L 428.887041 212.69538 
L 430.772163 214.693587 
L 432.637122 221.854928 
L 434.482346 224.166077 
L 436.308248 232.629784 
L 438.115228 234.005767 
L 439.903675 243.847743 
L 441.673965 247.721725 
L 443.426463 254.065655 
L 445.161522 257.544438 
L 446.879487 258.600979 
L 448.580691 258.080546 
L 450.265458 236.314623 
L 451.934103 226.106174 
L 453.586931 226.734202 
L 455.224239 221.710831 
L 456.846316 220.111362 
L 458.453443 223.357242 
L 460.045893 218.27406 
L 461.623931 214.329159 
L 463.187817 208.853267 
L 464.737801 189.445281 
L 466.274128 203.017897 
L 467.797038 215.42335 
L 469.306762 215.146398 
L 470.803527 216.788856 
L 472.287553 222.212733 
L 473.759056 215.418951 
L 475.218245 207.604086 
L 476.665324 205.997217 
L 478.100493 214.386248 
L 480.935873 258.220854 
L 482.336459 262.128021 
L 483.725885 264.1536 
L 485.104327 265.579475 
L 486.471958 265.356816 
L 487.828946 270.092316 
L 489.175455 287.320007 
L 490.511646 290.851532 
L 491.837675 292.861558 
L 493.153697 296.832604 
L 494.459861 296.521976 
L 495.756313 298.868669 
L 497.043197 302.786504 
L 498.320654 306.195391 
L 499.58882 304.219237 
L 500.847829 306.936896 
L 502.097813 303.359921 
L 503.338901 308.890044 
L 505.794886 313.230423 
L 507.010027 321.826407 
L 508.216758 323.656411 
L 509.415196 324.535197 
L 510.605454 325.130727 
L 511.787642 318.615045 
L 512.961869 316.767643 
L 514.128241 321.268997 
L 515.286864 322.585733 
L 516.437838 322.341795 
L 517.581266 314.95311 
L 518.717244 313.146971 
L 519.845869 309.583794 
L 520.967237 311.721717 
L 522.081439 314.911778 
L 524.28871 331.446777 
L 525.381955 333.997446 
L 526.468388 335.235569 
L 527.548095 336.026533 
L 528.621157 342.582833 
L 529.687656 341.913534 
L 530.747672 347.760531 
L 531.801282 345.314034 
L 532.848565 347.668968 
L 533.889595 351.544583 
L 534.924447 350.732653 
L 535.953194 351.076628 
L 536.975907 352.069161 
L 537.992656 352.23664 
L 539.003511 354.271879 
L 540.00854 355.698255 
L 541.00781 352.105126 
L 542.001385 353.959341 
L 542.989332 351.701038 
L 543.971712 350.503023 
L 545.920023 345.198704 
L 546.886076 344.76538 
L 547.846806 338.548414 
L 548.802271 336.23185 
L 550.697638 342.259576 
L 551.637651 344.130028 
L 552.572624 346.847501 
L 553.502611 346.646913 
L 554.427664 350.545768 
L 555.347835 353.599051 
L 556.263176 351.702443 
L 557.173737 358.462141 
L 558.079568 355.458796 
L 558.980717 356.772163 
L 559.877233 357.821829 
L 560.769164 356.142578 
L 561.656555 355.078391 
L 562.539454 358.127705 
L 563.417904 356.881858 
L 564.291951 355.986734 
L 565.161639 358.590075 
L 566.027011 359.040065 
L 566.888109 364.305143 
L 567.744976 363.414076 
L 568.597653 360.833005 
L 569.44618 361.130539 
L 570.290598 356.395342 
L 571.130947 350.985825 
L 571.967265 350.285161 
L 572.799592 349.888676 
L 573.627964 349.890798 
L 574.45242 350.258683 
L 575.272996 348.01312 
L 576.089728 348.278108 
L 576.902653 350.904883 
L 577.711805 351.734021 
L 579.318932 362.827944 
L 580.116975 364.86461 
L 580.911382 365.84306 
L 582.48942 365.708288 
L 583.273116 368.446943 
L 584.053305 368.54784 
L 584.83002 367.893994 
L 585.603289 368.959234 
L 587.139617 370.338292 
L 587.902734 369.672612 
L 588.662526 369.26479 
L 589.419022 369.839999 
L 590.922239 364.777208 
L 591.669015 365.044895 
L 592.412607 363.828433 
L 593.153042 364.33602 
L 593.890345 363.751695 
L 594.624545 359.51464 
L 595.355665 359.656043 
L 596.083733 360.003042 
L 596.808774 359.574209 
L 597.530812 355.829335 
L 598.249873 359.102881 
L 598.965981 359.165049 
L 599.67916 359.77476 
L 600.389435 359.802976 
L 601.096827 358.290416 
L 601.801362 361.655147 
L 602.503061 360.118452 
L 603.201948 360.355273 
L 603.898045 360.949102 
L 604.591374 366.633149 
L 605.281957 366.434803 
L 605.969816 367.330853 
L 606.654972 369.009753 
L 607.337447 366.451241 
L 608.017261 366.286538 
L 608.694435 367.209896 
L 609.368989 369.948663 
L 610.040944 370.16602 
L 610.710319 369.901819 
L 611.377134 370.454076 
L 612.04141 370.592536 
L 613.362416 368.616529 
L 614.019186 369.714134 
L 614.67349 371.816462 
L 615.325349 371.471534 
L 615.97478 370.838075 
L 616.621802 370.63109 
L 617.266431 372.108827 
L 617.908686 372.575671 
L 618.548584 372.687089 
L 619.186143 371.699327 
L 619.821378 371.618583 
L 620.454308 372.810566 
L 621.084949 372.310593 
L 622.33943 373.807662 
L 622.963302 373.73402 
L 623.58495 373.422336 
L 624.204389 373.299903 
L 624.821636 373.593474 
L 625.436706 375.837258 
L 626.049613 376.468283 
L 627.269003 374.055284 
L 627.875515 374.096572 
L 628.479925 374.541042 
L 629.082247 373.504562 
L 629.682496 373.65337 
L 630.280685 373.31177 
L 630.876829 373.67233 
L 631.470942 373.560766 
L 632.063038 373.809457 
L 632.65313 375.048864 
L 633.241232 376.714514 
L 634.411519 376.159661 
L 634.99373 378.164733 
L 635.574003 377.844832 
L 636.152352 378.158299 
L 636.728789 377.262613 
L 637.303327 377.527234 
L 637.875978 376.271225 
L 639.015669 376.77142 
L 639.582733 377.100515 
L 640.147958 375.920182 
L 640.711358 375.415373 
L 641.832726 376.349564 
L 642.390717 377.029389 
L 642.946928 376.570366 
L 643.50137 376.741942 
L 644.054056 377.142702 
L 644.604995 373.824071 
L 645.154198 371.659699 
L 645.701678 370.847884 
L 646.247443 370.956072 
L 647.333877 370.39339 
L 647.874566 368.822941 
L 648.413584 368.242987 
L 648.95094 369.52409 
L 649.486646 368.072555 
L 650.020711 369.266155 
L 650.553145 371.438224 
L 651.083958 372.29007 
L 651.61316 372.125553 
L 652.140762 372.463591 
L 652.666771 372.478659 
L 653.191199 374.012568 
L 653.714054 374.9152 
L 654.235346 375.045175 
L 654.755084 375.731167 
L 655.273278 378.255364 
L 655.789936 378.271027 
L 656.305068 379.034321 
L 656.818683 379.42175 
L 657.330789 379.341464 
L 657.841395 379.389396 
L 658.350511 378.609228 
L 659.364305 378.134914 
L 659.869 375.426524 
L 660.372239 374.47552 
L 661.37438 374.23521 
L 662.370794 370.893802 
L 662.866874 370.412434 
L 663.361547 370.615282 
L 663.85482 370.351756 
L 664.346702 370.386635 
L 664.837201 372.586218 
L 665.326323 372.607576 
L 665.814077 371.85202 
L 666.300471 372.401207 
L 666.785512 373.981048 
L 667.751564 375.35057 
L 668.232591 375.017938 
L 668.712294 374.117356 
L 669.190682 374.802467 
L 669.66776 375.94818 
L 670.143537 376.719394 
L 670.618019 377.707356 
L 671.091213 375.754824 
L 671.563127 375.341784 
L 672.033767 376.19236 
L 672.50314 374.968351 
L 672.971253 375.642349 
L 673.438113 375.031571 
L 673.903726 370.139501 
L 674.831239 369.218887 
L 675.293152 369.230726 
L 675.753845 370.213086 
L 676.213324 370.482809 
L 676.671595 370.259259 
L 677.128664 371.673892 
L 677.584539 371.36954 
L 678.492729 375.166534 
L 678.945056 374.839446 
L 679.396213 375.47875 
L 679.846206 373.264007 
L 680.29504 373.760337 
L 680.742722 373.294986 
L 681.189258 371.61792 
L 681.634653 371.429777 
L 682.078913 372.055139 
L 682.964052 372.961667 
L 683.404942 373.758697 
L 683.844721 373.733552 
L 684.283393 375.734254 
L 684.720964 376.108374 
L 685.15744 373.402679 
L 685.592826 375.182408 
L 686.46035 374.704315 
L 686.892499 374.268719 
L 687.32358 375.457233 
L 687.753598 374.501708 
L 688.182557 373.947408 
L 689.037324 374.89077 
L 689.463141 378.30788 
L 689.887921 379.066259 
L 690.734389 379.713193 
L 691.156087 379.927123 
L 691.576768 380.370263 
L 691.996436 381.470913 
L 692.415096 381.560395 
L 692.832754 381.212726 
L 693.665081 380.155985 
L 694.079759 380.078505 
L 694.906168 378.34103 
L 695.317908 377.679187 
L 695.728679 378.433563 
L 696.138484 377.941213 
L 696.547329 378.594657 
L 696.955217 378.31169 
L 697.362153 378.45647 
L 698.173187 378.368585 
L 698.577294 378.651441 
L 698.980466 379.421989 
L 699.382709 379.946652 
L 699.784026 378.894488 
L 700.184421 379.211186 
L 700.583899 379.20533 
L 700.982464 379.796663 
L 701.380119 379.906149 
L 701.776871 379.170221 
L 702.172721 378.966527 
L 702.567675 379.021156 
L 702.961736 377.998612 
L 703.354909 378.311111 
L 703.747197 379.009082 
L 704.138605 378.183602 
L 704.529136 377.995671 
L 704.918794 377.467345 
L 705.307584 377.731877 
L 705.695508 379.142155 
L 706.082572 379.561152 
L 706.468778 380.546142 
L 706.854131 380.799826 
L 707.238634 379.513799 
L 708.005106 380.807787 
L 708.387082 380.784411 
L 708.768223 380.876287 
L 709.148533 380.644689 
L 709.528015 380.082313 
L 710.284511 378.702073 
L 710.661532 379.159136 
L 711.037739 380.68853 
L 711.413137 380.364744 
L 711.787728 379.876848 
L 712.161516 379.872201 
L 712.534504 377.523739 
L 713.278096 377.990699 
L 713.648706 378.548399 
L 714.01853 378.484754 
L 714.387572 377.301763 
L 714.755834 377.177569 
L 715.12332 376.54672 
L 715.490033 377.315502 
L 715.855977 377.229048 
L 716.221154 380.003375 
L 716.585568 378.978214 
L 716.949222 378.395645 
L 717.312119 376.830591 
L 717.674263 377.362332 
L 718.035656 378.741452 
L 718.396301 378.352589 
L 718.756202 378.788108 
L 719.115362 379.040661 
L 719.473784 379.117222 
L 719.83147 379.058476 
L 720.188424 379.337631 
L 720.544649 379.886217 
L 720.900148 381.708304 
L 721.254923 381.726544 
L 721.608978 381.457804 
L 721.962316 381.632303 
L 722.314939 382.178962 
L 722.66685 382.081918 
L 723.018053 382.251389 
L 723.36855 382.271776 
L 723.718343 382.916351 
L 724.067437 383.067392 
L 724.415832 383.091106 
L 724.763533 383.275321 
L 725.110543 383.268456 
L 725.456863 383.449678 
L 725.802496 382.977205 
L 726.147446 382.845984 
L 726.491714 381.789278 
L 726.835305 381.655352 
L 727.178219 380.958165 
L 727.520461 381.144902 
L 728.202936 380.259303 
L 728.543174 380.414573 
L 728.88275 380.209953 
L 729.221665 380.52205 
L 729.559923 380.578125 
L 729.897527 381.089102 
L 730.234478 380.987625 
L 730.570779 381.415524 
L 730.906432 381.287274 
L 731.241441 381.684144 
L 731.575808 381.614937 
L 731.909534 381.675439 
L 732.242623 381.513162 
L 732.575077 381.045671 
L 733.89859 381.188935 
L 734.227905 380.630686 
L 734.556599 380.315621 
L 734.884674 379.790979 
L 735.212134 378.825242 
L 735.538979 378.367821 
L 735.865213 378.667743 
L 736.190838 377.14229 
L 736.840269 377.015746 
L 737.48729 377.409914 
L 737.809903 377.234209 
L 738.774175 380.050837 
L 739.414073 380.107584 
L 739.733143 380.631562 
L 740.051631 380.816859 
L 740.369538 380.707885 
L 740.686867 380.89128 
L 741.003619 380.539853 
L 741.635403 378.48741 
L 741.950438 378.141236 
L 742.264905 378.357507 
L 742.578807 379.747065 
L 742.892144 379.244423 
L 743.204919 379.375454 
L 743.517134 379.780317 
L 743.828791 379.810184 
L 744.139892 380.183664 
L 744.760433 382.17142 
L 745.378775 382.341902 
L 745.687125 382.466775 
L 745.994931 382.787964 
L 746.608918 382.041432 
L 746.915102 382.01906 
L 747.22075 382.529527 
L 747.525863 381.558108 
L 748.134492 381.223992 
L 748.438012 380.899731 
L 749.345414 380.620643 
L 749.646835 380.428606 
L 749.947736 380.667278 
L 750.248118 379.943115 
L 750.547984 380.646259 
L 750.847336 380.880603 
L 751.146174 380.857767 
L 751.444501 380.316444 
L 751.742318 377.442991 
L 752.039628 377.739668 
L 752.336431 377.456709 
L 752.928527 377.342246 
L 753.223823 377.091483 
L 753.518619 377.461325 
L 753.812918 377.217327 
L 754.106721 377.336253 
L 754.40003 377.951109 
L 754.692846 380.562763 
L 754.985171 380.077906 
L 755.277007 380.749304 
L 755.859219 379.155366 
L 756.149597 380.023636 
L 756.439492 379.902303 
L 757.306298 380.292716 
L 757.594278 380.254561 
L 757.881783 380.788195 
L 758.168816 379.831997 
L 758.455376 381.296869 
L 758.741467 381.781192 
L 759.027088 381.488145 
L 759.312243 380.445652 
L 759.596932 379.834648 
L 760.16492 380.043047 
L 760.448221 380.386939 
L 760.731063 380.184943 
L 761.013447 381.146759 
L 761.295375 380.77964 
L 761.576847 378.882907 
L 761.857866 378.571899 
L 762.138432 379.575008 
L 762.418548 379.882408 
L 762.977433 378.149483 
L 763.256205 378.162481 
L 763.812416 377.565072 
L 764.089858 376.800063 
L 764.366859 379.13862 
L 764.643421 379.219633 
L 764.919544 379.102179 
L 765.195231 379.570317 
L 765.745301 381.317374 
L 766.019687 381.092573 
L 766.567166 381.9487 
L 766.840263 382.957049 
L 767.112932 382.269941 
L 767.385176 382.943477 
L 767.656995 382.847089 
L 767.928391 382.341976 
L 769.009772 382.259334 
L 769.279072 381.90774 
L 769.547958 381.951199 
L 769.816429 382.734025 
L 770.084487 382.640441 
L 770.619371 383.61072 
L 771.15262 383.253471 
L 771.418633 383.424748 
L 771.684242 383.386715 
L 771.949447 383.594283 
L 772.214249 383.4867 
L 772.478649 382.953988 
L 773.00625 381.248073 
L 773.53226 381.30764 
L 773.794671 381.659391 
L 774.318311 380.961257 
L 774.579542 380.950419 
L 774.840383 380.136469 
L 775.100834 379.942773 
L 775.620573 381.564147 
L 775.879862 381.567214 
L 776.138766 380.780987 
L 776.397287 380.625409 
L 776.655425 380.757725 
L 777.170557 381.390261 
L 777.427553 381.639867 
L 777.684171 382.332013 
L 777.940412 382.131694 
L 778.196277 382.369504 
L 778.451768 382.227128 
L 778.706884 383.188745 
L 778.961628 381.372148 
L 779.216 381.829438 
L 779.470001 381.748728 
L 779.723634 380.960752 
L 779.976897 381.547373 
L 780.229794 381.499742 
L 780.482324 381.64198 
L 780.734489 381.43624 
L 780.98629 380.347899 
L 781.237727 380.370418 
L 781.488803 380.557712 
L 781.739518 380.473544 
L 781.989872 380.514446 
L 782.489506 380.833549 
L 782.738787 380.844647 
L 782.987712 380.460055 
L 783.236283 380.589709 
L 783.484499 381.717601 
L 783.732363 381.342856 
L 783.979875 383.016095 
L 784.227036 382.766223 
L 784.473847 382.33479 
L 784.720309 382.896521 
L 784.966423 382.923985 
L 785.212191 381.529657 
L 785.702689 381.968572 
L 785.947422 381.374712 
L 786.435859 381.625338 
L 786.679566 381.180366 
L 786.922932 381.638399 
L 787.16596 381.700231 
L 787.408649 381.629295 
L 787.651001 382.581815 
L 787.893016 382.678073 
L 788.134696 382.204561 
L 788.617053 382.553203 
L 788.857732 381.850843 
L 789.09808 382.507059 
L 789.338096 381.20895 
L 789.577783 380.986002 
L 789.817141 380.952702 
L 790.05617 381.268172 
L 790.294873 381.12604 
L 790.533249 381.499138 
L 790.771299 382.101468 
L 791.009025 381.459893 
L 791.483507 381.286676 
L 791.720265 382.190342 
L 792.428616 382.650243 
L 792.899256 382.555897 
L 793.1341 381.79666 
L 793.602843 382.865099 
L 793.836742 382.808404 
L 794.070328 383.250934 
L 794.303602 383.357158 
L 794.536564 383.193359 
L 795.001556 383.386755 
L 795.233588 383.263577 
L 795.465312 383.983831 
L 795.696728 384.137414 
L 795.927837 384.008588 
L 796.158641 383.681657 
L 796.389139 382.955046 
L 797.078812 382.676373 
L 797.308098 381.358462 
L 797.537083 381.43285 
L 797.994153 380.223411 
L 798.450028 380.356411 
L 798.677519 381.079543 
L 799.131613 378.088582 
L 799.358218 378.140091 
L 799.584528 377.436901 
L 800.036269 377.944714 
L 800.486843 378.518989 
L 800.936256 378.493248 
L 801.384514 381.164187 
L 801.608211 381.244502 
L 801.831622 383.090349 
L 802.054746 382.985178 
L 802.500141 383.144754 
L 802.722413 383.227023 
L 802.944402 383.773512 
L 803.166108 383.657484 
L 803.387533 383.962672 
L 803.608677 383.937683 
L 803.829541 383.764522 
L 804.050125 384.132672 
L 804.270431 384.149717 
L 804.490459 383.924661 
L 804.929683 384.199132 
L 805.586453 383.728045 
L 805.804827 383.898901 
L 806.022929 383.584434 
L 806.240758 383.626014 
L 806.458315 383.39458 
L 806.675601 383.564095 
L 806.892616 383.571517 
L 807.325839 383.303349 
L 807.542048 383.570691 
L 807.757988 384.050143 
L 807.973662 384.158488 
L 808.189069 384.435084 
L 808.40421 384.387965 
L 809.048046 384.819011 
L 809.262131 384.786967 
L 809.689514 384.208765 
L 809.902813 383.783101 
L 810.32863 383.807196 
L 810.75341 383.228419 
L 811.177157 383.002019 
L 811.388646 382.758203 
L 811.599878 383.124019 
L 811.810854 383.264006 
L 812.232043 383.166597 
L 812.652217 383.098296 
L 812.861924 383.510243 
L 813.280585 383.44709 
L 813.698243 382.969482 
L 813.906697 381.120663 
L 814.114903 381.563008 
L 814.32286 381.728973 
L 814.530569 381.726158 
L 814.738031 382.010173 
L 814.945247 381.415792 
L 815.358941 381.523969 
L 815.771657 381.979275 
L 815.977648 383.875676 
L 816.183397 383.888941 
L 816.799191 383.471582 
L 817.003973 383.630803 
L 817.412817 383.429379 
L 817.616881 383.969428 
L 817.820705 383.605727 
L 818.024292 383.623073 
L 818.227641 383.478029 
L 818.430754 380.682078 
L 818.83627 381.165449 
L 819.442783 381.893875 
L 819.644485 381.464853 
L 819.845955 381.86789 
L 820.047192 381.726717 
L 820.248198 381.878384 
L 820.448971 384.49985 
L 820.849827 384.192165 
L 821.049909 384.323522 
L 821.249763 384.295446 
L 821.449387 384.037698 
L 821.648784 384.33937 
L 821.847952 384.326701 
L 822.444097 383.66512 
L 822.840397 383.868678 
L 823.235798 383.792133 
L 823.630305 384.24057 
L 823.827225 384.325505 
L 824.023922 383.412582 
L 824.220398 383.650049 
L 824.808499 382.729176 
L 825.199468 382.819903 
L 825.784283 382.711462 
L 825.978786 383.926944 
L 826.173072 383.975319 
L 826.560997 385.114916 
L 826.948061 384.774692 
L 827.141271 384.483287 
L 827.52705 382.947964 
L 827.719619 382.859292 
L 827.911977 383.059908 
L 828.104123 383.014031 
L 828.296057 382.389174 
L 828.48778 382.564315 
L 828.870594 382.573258 
L 829.061687 382.672245 
L 829.443245 383.877398 
L 829.633712 383.900343 
L 830.014022 383.363021 
L 830.203866 383.995472 
L 830.393504 383.702961 
L 830.772162 383.971642 
L 830.961183 384.045575 
L 831.15 383.833063 
L 831.338612 383.91071 
L 831.527021 383.255388 
L 831.715226 383.37469 
L 831.903228 383.263878 
L 832.278625 382.705912 
L 832.653216 382.564833 
L 832.840211 382.262116 
L 833.027004 382.457477 
L 833.213598 382.004125 
L 833.399993 382.538142 
L 833.586188 382.131412 
L 833.772185 382.250729 
L 834.514195 383.25461 
L 834.884019 383.586519 
L 835.253061 384.214171 
L 835.437289 384.090382 
L 835.621323 384.40101 
L 836.355522 384.595645 
L 836.53859 384.625926 
L 836.721465 384.389512 
L 836.90415 384.481731 
L 837.086643 384.058787 
L 837.268945 384.701787 
L 837.814711 384.416922 
L 837.996254 384.009011 
L 838.177608 384.002481 
L 838.358774 382.903164 
L 838.539751 382.908047 
L 838.720542 382.554719 
L 838.901144 382.984259 
L 839.26179 383.094032 
L 839.441833 383.229532 
L 839.621691 383.203991 
L 839.801363 382.438038 
L 839.980851 382.303154 
L 840.160154 383.526651 
L 840.339272 383.699603 
L 840.518207 383.415758 
L 840.696959 383.388093 
L 840.875527 383.226446 
L 841.232116 383.116756 
L 841.410138 382.71878 
L 841.587978 383.694555 
L 841.943114 383.796062 
L 842.120412 383.577606 
L 842.297529 384.062846 
L 842.474467 383.921737 
L 842.651225 384.008214 
L 843.004205 383.940785 
L 843.180428 384.439875 
L 843.180428 384.439875 
" clip-path="url(#p1d13e2e9f5)" style="fill: none; stroke-dasharray: 7.4,3.2; stroke-dashoffset: 0; stroke: #000000; stroke-width: 2"/>
   </g>
   <g id="line2d_29">
    <path d="M -1 78.097115 
L 3.010003 78.767751 
L 23.548072 92.67489 
L 41.92 85.118385 
L 58.539431 89.875369 
L 73.711782 90.08374 
L 87.668992 118.960336 
L 100.591351 125.032214 
L 112.621779 122.111214 
L 123.875492 137.613047 
L 134.446731 136.230673 
L 144.413561 122.899063 
L 153.841372 123.950033 
L 162.785489 115.30626 
L 171.293129 125.302572 
L 179.404919 118.271408 
L 187.156064 128.17023 
L 194.577271 124.914467 
L 201.695485 123.655757 
L 208.534481 120.513707 
L 215.115339 120.135406 
L 221.456839 134.640477 
L 227.575784 137.521094 
L 233.487267 155.585309 
L 239.204896 143.141934 
L 244.740981 151.160784 
L 250.106698 131.98661 
L 255.31222 135.285468 
L 260.366836 139.981818 
L 265.279049 145.13327 
L 270.056664 138.77429 
L 274.706861 138.493446 
L 279.23626 137.138418 
L 283.650977 138.674169 
L 287.956679 151.482455 
L 292.158618 152.527571 
L 296.261679 171.880109 
L 300.270408 171.973066 
L 304.189046 161.727731 
L 308.021553 158.816525 
L 311.771633 169.579627 
L 315.442759 168.895005 
L 319.038187 170.930019 
L 322.560974 165.697083 
L 326.013998 165.418959 
L 329.39997 160.131574 
L 332.721442 151.604329 
L 335.980828 148.438282 
L 339.180404 149.568066 
L 342.322328 149.457713 
L 345.408639 127.304641 
L 348.441273 123.233403 
L 351.422064 119.921846 
L 354.352756 116.883949 
L 357.235004 107.873982 
L 360.070384 111.963394 
L 362.860396 121.155735 
L 365.60647 122.006198 
L 368.309966 130.069057 
L 370.972187 133.471134 
L 373.594372 144.14661 
L 376.177709 150.607295 
L 378.723331 155.380266 
L 381.232325 165.45661 
L 383.705728 177.834595 
L 388.549708 184.006926 
L 390.922153 141.422199 
L 393.262752 138.289947 
L 395.57235 127.132033 
L 397.851755 131.731846 
L 400.101748 126.677656 
L 402.323078 113.312131 
L 404.516466 113.795347 
L 406.682606 110.140141 
L 408.822167 109.179098 
L 410.935794 108.710719 
L 413.024107 150.822539 
L 415.087705 156.369764 
L 417.127167 163.748368 
L 419.143052 175.961152 
L 421.135897 183.347849 
L 423.106223 200.802393 
L 425.054534 203.754106 
L 426.981317 211.496885 
L 428.887041 217.702784 
L 430.772163 220.136444 
L 432.637122 221.113083 
L 434.482346 224.826884 
L 436.308248 231.160776 
L 438.115228 229.857787 
L 439.903675 235.02123 
L 441.673965 237.272008 
L 443.426463 240.833007 
L 445.161522 241.065396 
L 446.879487 243.943764 
L 448.580691 244.292324 
L 450.265458 252.507772 
L 451.934103 256.476501 
L 453.586931 254.773242 
L 455.224239 260.903663 
L 456.846316 266.042992 
L 458.453443 264.973595 
L 460.045893 264.337724 
L 461.623931 264.186019 
L 463.187817 262.871407 
L 464.737801 271.983092 
L 466.274128 272.578741 
L 467.797038 273.561315 
L 469.306762 276.909829 
L 472.287553 266.700947 
L 473.759056 272.793053 
L 475.218245 275.198907 
L 476.665324 270.766936 
L 478.100493 272.046485 
L 479.523946 270.151035 
L 480.935873 278.202904 
L 482.336459 274.802276 
L 483.725885 279.915838 
L 485.104327 287.677864 
L 486.471958 280.062929 
L 487.828946 284.928042 
L 489.175455 291.086804 
L 490.511646 292.722198 
L 491.837675 295.907996 
L 493.153697 301.376739 
L 494.459861 304.760874 
L 495.756313 314.109011 
L 497.043197 319.110018 
L 498.320654 322.552137 
L 499.58882 335.3382 
L 500.847829 336.218336 
L 502.097813 335.081559 
L 503.338901 348.233664 
L 504.571217 351.275179 
L 505.794886 348.486632 
L 507.010027 347.584554 
L 508.216758 347.640072 
L 509.415196 339.874647 
L 510.605454 334.485452 
L 511.787642 333.406784 
L 512.961869 329.763798 
L 514.128241 330.086933 
L 515.286864 325.625378 
L 516.437838 325.80169 
L 517.581266 327.066141 
L 518.717244 326.129537 
L 519.845869 323.14987 
L 520.967237 329.897649 
L 522.081439 334.062494 
L 523.188567 331.935108 
L 524.28871 331.010707 
L 525.381955 330.93232 
L 526.468388 332.226714 
L 527.548095 329.579723 
L 528.621157 328.301853 
L 529.687656 331.221769 
L 530.747672 336.099802 
L 531.801282 339.758237 
L 532.848565 339.817863 
L 534.924447 345.605888 
L 535.953194 346.5138 
L 536.975907 349.437598 
L 537.992656 354.176621 
L 539.003511 357.364937 
L 540.00854 357.476409 
L 541.00781 358.744295 
L 542.001385 358.351943 
L 543.971712 364.73267 
L 544.948589 366.961379 
L 545.920023 368.467785 
L 546.886076 370.728812 
L 547.846806 370.396939 
L 548.802271 370.992848 
L 549.75253 366.687938 
L 550.697638 365.294153 
L 551.637651 359.558704 
L 552.572624 357.485457 
L 553.502611 354.830928 
L 554.427664 348.512966 
L 555.347835 345.802108 
L 556.263176 341.400587 
L 557.173737 340.7517 
L 558.079568 335.951634 
L 558.980717 334.422934 
L 559.877233 335.770937 
L 560.769164 341.722456 
L 561.656555 338.271365 
L 562.539454 337.738512 
L 563.417904 343.255881 
L 564.291951 345.382481 
L 565.161639 349.870156 
L 566.027011 351.041617 
L 566.888109 355.958306 
L 567.744976 359.797169 
L 568.597653 359.088375 
L 569.44618 358.955649 
L 570.290598 361.399314 
L 571.130947 365.557813 
L 571.967265 366.571314 
L 572.799592 367.332861 
L 573.627964 362.571433 
L 574.45242 361.449778 
L 575.272996 362.33875 
L 576.089728 364.312454 
L 576.902653 365.325953 
L 577.711805 363.999713 
L 578.51722 367.173513 
L 579.318932 367.558427 
L 580.116975 366.570005 
L 580.911382 365.985248 
L 581.702186 370.449202 
L 582.48942 371.049479 
L 583.273116 368.894308 
L 584.053305 364.166037 
L 584.83002 363.496986 
L 585.603289 361.04948 
L 586.373145 360.565536 
L 587.139617 360.287279 
L 587.902734 360.583134 
L 588.662526 359.754964 
L 589.419022 357.96561 
L 590.172251 358.860961 
L 590.922239 359.98675 
L 591.669015 361.94267 
L 592.412607 359.59669 
L 593.153042 362.251043 
L 593.890345 362.092513 
L 595.355665 362.858608 
L 596.083733 364.190536 
L 596.808774 366.65916 
L 597.530812 367.161455 
L 598.249873 366.915724 
L 599.67916 373.278562 
L 600.389435 372.753312 
L 601.096827 373.217306 
L 602.503061 371.870806 
L 603.201948 370.678867 
L 603.898045 368.719028 
L 604.591374 367.951141 
L 605.281957 365.843791 
L 605.969816 364.750487 
L 606.654972 364.068118 
L 607.337447 366.470696 
L 608.017261 367.18872 
L 608.694435 368.299082 
L 609.368989 369.018069 
L 610.040944 369.344243 
L 610.710319 370.646799 
L 611.377134 369.365874 
L 612.04141 372.497241 
L 612.703164 372.532726 
L 613.362416 373.426908 
L 614.67349 373.372898 
L 615.97478 372.017828 
L 616.621802 373.474712 
L 617.266431 373.293894 
L 617.908686 373.553364 
L 619.186143 374.387233 
L 619.821378 374.36757 
L 620.454308 373.693306 
L 621.084949 372.234697 
L 621.713318 372.992509 
L 622.33943 371.440755 
L 622.963302 371.074518 
L 623.58495 371.29011 
L 624.204389 372.46711 
L 625.436706 371.967784 
L 626.049613 372.156897 
L 626.660374 373.355329 
L 627.269003 371.126726 
L 627.875515 369.752823 
L 628.479925 371.782209 
L 629.082247 372.363294 
L 629.682496 372.643371 
L 630.876829 371.393034 
L 631.470942 372.324784 
L 632.063038 372.039243 
L 632.65313 371.400954 
L 633.241232 374.632048 
L 633.827357 375.373747 
L 634.411519 375.42034 
L 634.99373 375.201447 
L 635.574003 374.089534 
L 636.152352 375.298762 
L 636.728789 375.65978 
L 637.875978 375.317774 
L 638.446754 375.85366 
L 639.015669 375.831055 
L 640.147958 378.031099 
L 640.711358 377.695027 
L 641.272943 378.268835 
L 641.832726 378.072888 
L 642.390717 378.230174 
L 643.50137 378.962612 
L 644.054056 379.351186 
L 644.604995 378.836722 
L 645.154198 378.612082 
L 645.701678 377.843191 
L 646.247443 378.16499 
L 646.791506 379.430481 
L 647.333877 378.789538 
L 647.874566 379.242124 
L 648.413584 379.294671 
L 648.95094 378.898309 
L 649.486646 379.031759 
L 650.020711 379.934904 
L 650.553145 377.757479 
L 651.083958 378.072003 
L 651.61316 377.479258 
L 652.140762 376.280012 
L 652.666771 377.221058 
L 653.191199 377.417452 
L 653.714054 377.106478 
L 654.235346 377.739633 
L 654.755084 377.746819 
L 655.273278 376.157115 
L 655.789936 378.589277 
L 656.305068 378.108253 
L 656.818683 378.71621 
L 657.330789 379.800102 
L 657.841395 379.980654 
L 658.350511 379.871773 
L 658.858145 379.339219 
L 659.364305 378.581222 
L 659.869 377.390171 
L 660.372239 378.607951 
L 660.874029 378.759812 
L 661.37438 379.387035 
L 661.873298 379.74824 
L 662.370794 378.828239 
L 662.866874 378.868835 
L 663.361547 378.463366 
L 664.346702 379.644899 
L 664.837201 380.646233 
L 665.326323 380.927771 
L 665.814077 380.050366 
L 666.785512 379.194147 
L 667.269207 379.57081 
L 667.751564 379.335049 
L 668.232591 378.968576 
L 668.712294 378.345169 
L 669.66776 378.251867 
L 670.143537 376.251283 
L 671.091213 376.235621 
L 671.563127 375.33869 
L 672.033767 375.692431 
L 672.50314 375.26411 
L 673.438113 376.919184 
L 673.903726 376.777412 
L 674.3681 374.714385 
L 674.831239 376.992777 
L 675.293152 377.612871 
L 675.753845 378.008223 
L 676.213324 379.206118 
L 676.671595 379.240782 
L 677.128664 379.581425 
L 677.584539 379.157244 
L 678.039225 379.073909 
L 678.492729 379.203736 
L 678.945056 380.266469 
L 679.396213 380.301673 
L 679.846206 380.13872 
L 680.29504 380.370076 
L 680.742722 380.290986 
L 681.189258 379.912154 
L 681.634653 379.725039 
L 682.078913 380.045053 
L 682.964052 379.00194 
L 683.404942 380.264879 
L 683.844721 380.015965 
L 684.283393 380.250092 
L 684.720964 379.138407 
L 685.15744 378.628268 
L 686.027128 379.235101 
L 686.46035 379.395226 
L 686.892499 379.024278 
L 687.32358 379.780559 
L 687.753598 379.361759 
L 688.182557 379.801336 
L 688.610465 379.868784 
L 689.463141 380.557405 
L 689.887921 378.853456 
L 690.311669 378.768789 
L 690.734389 376.74085 
L 691.156087 377.565943 
L 691.576768 377.611108 
L 691.996436 377.30609 
L 692.415096 377.163099 
L 692.832754 377.160082 
L 693.249414 377.931833 
L 693.665081 378.205102 
L 694.079759 379.408114 
L 694.493453 379.683048 
L 694.906168 381.682157 
L 695.317908 381.976208 
L 695.728679 381.673807 
L 696.138484 382.10454 
L 696.547329 381.563721 
L 696.955217 381.333278 
L 697.768141 381.479538 
L 698.173187 381.937818 
L 698.980466 382.225119 
L 699.382709 380.902104 
L 699.784026 380.903268 
L 700.184421 381.029182 
L 700.583899 381.666549 
L 700.982464 381.65349 
L 701.380119 381.278168 
L 701.776871 380.193102 
L 702.172721 380.418894 
L 702.567675 380.020556 
L 702.961736 379.970367 
L 703.354909 381.362564 
L 704.138605 381.474534 
L 704.918794 380.908628 
L 705.307584 381.313791 
L 705.695508 382.370298 
L 706.082572 381.731832 
L 706.468778 381.727766 
L 706.854131 381.026295 
L 707.238634 380.754279 
L 707.622291 380.903249 
L 708.005106 380.058219 
L 708.387082 380.242159 
L 709.148533 380.143776 
L 709.528015 379.530532 
L 709.906673 379.316648 
L 710.284511 379.479887 
L 711.037739 379.158181 
L 711.413137 379.236906 
L 711.787728 379.717571 
L 712.161516 379.940826 
L 712.534504 379.696453 
L 712.906696 380.014474 
L 713.278096 380.74446 
L 713.648706 381.015705 
L 714.01853 379.352638 
L 714.755834 379.890331 
L 715.490033 380.201747 
L 715.855977 380.004437 
L 716.221154 380.300324 
L 716.949222 379.964743 
L 717.312119 379.696635 
L 717.674263 381.028174 
L 718.035656 381.553065 
L 718.396301 381.066809 
L 720.188424 380.406898 
L 720.544649 380.598467 
L 720.900148 381.342902 
L 721.254923 381.367683 
L 721.608978 380.887941 
L 721.962316 381.303406 
L 722.314939 381.326318 
L 722.66685 379.670896 
L 723.018053 379.790035 
L 723.36855 380.248347 
L 724.415832 379.85531 
L 724.763533 380.077922 
L 725.110543 380.703095 
L 725.456863 380.6679 
L 725.802496 380.878244 
L 726.147446 382.102507 
L 726.835305 381.903609 
L 727.178219 382.152451 
L 727.520461 380.738101 
L 728.202936 381.252239 
L 728.543174 380.857081 
L 728.88275 381.200188 
L 729.221665 381.130304 
L 729.897527 381.722199 
L 730.234478 381.445018 
L 730.570779 381.333989 
L 730.906432 382.657811 
L 731.241441 382.378571 
L 731.575808 382.338536 
L 731.909534 381.139978 
L 732.242623 380.891071 
L 732.906898 381.289846 
L 733.238089 380.874512 
L 733.89859 381.356644 
L 734.227905 381.412985 
L 734.556599 381.959566 
L 734.884674 382.149219 
L 735.212134 383.611656 
L 735.538979 383.676513 
L 735.865213 383.533127 
L 736.840269 383.464811 
L 737.16408 382.721549 
L 737.48729 382.606783 
L 737.809903 381.888239 
L 738.13192 381.700229 
L 738.453343 380.327963 
L 739.414073 380.483845 
L 739.733143 380.790554 
L 740.051631 381.260529 
L 740.369538 382.008233 
L 740.686867 382.150486 
L 741.003619 382.649354 
L 741.319797 382.723432 
L 741.635403 384.058513 
L 742.264905 383.452794 
L 742.578807 383.747019 
L 743.204919 383.560745 
L 743.517134 383.460999 
L 744.139892 383.748979 
L 744.450439 383.755533 
L 745.069878 383.241385 
L 745.378775 383.548571 
L 745.687125 383.233419 
L 745.994931 383.303471 
L 746.608918 383.174784 
L 746.915102 382.908861 
L 747.22075 383.001055 
L 747.525863 382.466458 
L 747.830443 382.434661 
L 748.134492 382.942707 
L 748.438012 382.673146 
L 748.741004 382.769372 
L 749.043471 382.395098 
L 749.646835 382.634679 
L 749.947736 381.814068 
L 750.248118 381.775192 
L 750.547984 382.265421 
L 751.444501 382.591128 
L 751.742318 382.171566 
L 752.039628 382.435839 
L 752.336431 382.541604 
L 752.63273 382.151991 
L 752.928527 382.873748 
L 753.223823 382.774138 
L 753.518619 382.873833 
L 753.812918 383.261809 
L 754.106721 383.213039 
L 754.40003 383.47775 
L 754.692846 383.993557 
L 754.985171 384.126683 
L 755.277007 384.027489 
L 755.568356 384.51704 
L 756.439492 384.36527 
L 757.594278 383.504672 
L 757.881783 383.587176 
L 758.168816 382.123774 
L 758.455376 381.597583 
L 758.741467 381.659488 
L 759.312243 379.988046 
L 759.881157 380.172266 
L 760.16492 379.523908 
L 760.448221 379.250059 
L 760.731063 379.143668 
L 761.013447 380.587679 
L 761.295375 381.111146 
L 761.576847 381.089338 
L 762.138432 382.670516 
L 762.418548 382.2936 
L 762.698214 382.122545 
L 763.256205 383.059708 
L 763.812416 382.900723 
L 764.089858 382.4421 
L 764.366859 382.584483 
L 764.643421 382.261491 
L 764.919544 382.393587 
L 765.195231 382.68087 
L 765.470483 382.76113 
L 766.019687 382.050795 
L 766.567166 382.293271 
L 766.840263 382.689982 
L 767.112932 382.862215 
L 767.385176 383.249726 
L 767.656995 382.777329 
L 767.928391 383.053965 
L 768.199366 382.96677 
L 768.46992 383.622426 
L 769.009772 383.347904 
L 770.084487 383.584742 
L 770.352134 383.929912 
L 770.619371 383.292969 
L 771.15262 383.628749 
L 771.418633 384.156087 
L 771.684242 384.366989 
L 771.949447 384.294844 
L 772.478649 384.292749 
L 772.742649 384.169947 
L 773.00625 384.397635 
L 773.269453 384.996761 
L 773.53226 385.003173 
L 774.579542 383.746659 
L 775.100834 383.780502 
L 775.360897 383.721833 
L 775.620573 383.463797 
L 775.879862 382.783145 
L 776.138766 382.869191 
L 776.913181 382.721712 
L 777.170557 383.119716 
L 777.940412 383.020094 
L 778.196277 383.142777 
L 778.451768 383.661158 
L 778.706884 383.545066 
L 778.961628 384.015457 
L 779.470001 384.240253 
L 779.723634 384.200822 
L 780.734489 382.376344 
L 781.237727 381.960456 
L 781.488803 381.659957 
L 781.739518 381.75396 
L 781.989872 380.352465 
L 782.239868 380.314652 
L 782.738787 380.707553 
L 782.987712 381.655737 
L 783.236283 381.913576 
L 783.484499 381.177153 
L 783.732363 381.271079 
L 783.979875 381.593677 
L 784.227036 380.448962 
L 784.473847 381.926608 
L 784.720309 380.045306 
L 784.966423 380.397093 
L 785.212191 380.355815 
L 785.457613 380.47141 
L 785.702689 380.325049 
L 785.947422 381.362269 
L 786.191812 381.437256 
L 786.435859 380.838742 
L 786.679566 382.116083 
L 786.922932 381.868972 
L 787.16596 383.973927 
L 787.408649 383.333704 
L 787.651001 383.277368 
L 788.134696 382.715149 
L 788.376041 381.869403 
L 789.338096 382.463197 
L 789.577783 382.338851 
L 789.817141 382.625861 
L 790.05617 382.532449 
L 790.533249 383.232208 
L 790.771299 383.975704 
L 791.009025 383.923076 
L 791.246428 384.271481 
L 791.483507 384.161228 
L 791.956702 383.670037 
L 792.428616 384.268666 
L 792.664094 384.142135 
L 792.899256 382.957812 
L 793.1341 382.84213 
L 793.368629 382.93077 
L 793.836742 382.560015 
L 794.303602 382.922952 
L 794.536564 382.994392 
L 794.769215 382.903305 
L 795.001556 382.939899 
L 795.233588 383.956107 
L 795.465312 384.045104 
L 795.696728 384.000936 
L 795.927837 384.150986 
L 796.158641 383.543004 
L 796.389139 383.832065 
L 796.849224 383.801649 
L 797.078812 383.797781 
L 797.308098 383.927924 
L 797.537083 383.636033 
L 798.22224 383.441677 
L 798.450028 384.278913 
L 798.677519 384.266793 
L 798.904714 384.454749 
L 799.131613 384.13767 
L 799.584528 384.330002 
L 800.036269 384.891808 
L 800.261702 384.755261 
L 800.486843 384.83477 
L 800.711695 384.016423 
L 800.936256 383.929686 
L 801.160529 383.61824 
L 801.608211 383.428598 
L 801.831622 382.801012 
L 802.054746 382.88944 
L 802.277586 382.823698 
L 802.500141 382.626184 
L 802.722413 382.596081 
L 802.944402 383.435312 
L 803.166108 383.071546 
L 803.387533 383.339731 
L 803.608677 383.257387 
L 803.829541 383.332951 
L 804.050125 383.804287 
L 804.490459 383.671201 
L 804.929683 383.770163 
L 805.148882 383.624648 
L 805.804827 383.825547 
L 806.022929 383.468272 
L 806.240758 383.563511 
L 806.675601 383.234324 
L 807.542048 383.805592 
L 807.757988 383.682311 
L 807.973662 383.867559 
L 808.189069 384.296606 
L 808.40421 384.270929 
L 808.833698 384.819751 
L 809.048046 384.682039 
L 809.475953 384.70378 
L 810.115851 385.299838 
L 810.32863 385.075426 
L 810.541149 385.10135 
L 810.75341 384.875907 
L 811.388646 385.053103 
L 811.810854 384.942977 
L 812.021576 384.594834 
L 812.232043 384.48141 
L 812.442256 384.686487 
L 812.652217 384.311409 
L 812.861924 384.546991 
L 813.280585 384.290222 
L 813.698243 384.385727 
L 813.906697 384.067466 
L 814.114903 384.291913 
L 814.32286 384.123028 
L 814.530569 384.099517 
L 814.738031 384.470717 
L 815.358941 384.614655 
L 815.565421 384.509843 
L 815.771657 384.545129 
L 815.977648 385.033328 
L 816.388903 385.247384 
L 816.594168 384.978423 
L 817.208515 384.953957 
L 817.412817 384.727526 
L 817.616881 384.790665 
L 818.024292 384.233141 
L 818.227641 384.23166 
L 818.63363 384.598463 
L 819.240846 384.559123 
L 819.845955 384.929846 
L 820.649514 384.335359 
L 821.049909 384.225136 
L 821.249763 383.847274 
L 821.449387 383.863257 
L 821.648784 382.61281 
L 821.847952 382.579446 
L 822.046894 382.979733 
L 822.245608 383.054521 
L 822.444097 383.316714 
L 822.642359 383.356959 
L 822.840397 383.55769 
L 823.03821 383.465743 
L 823.235798 383.789624 
L 823.433164 383.874357 
L 823.630305 384.5259 
L 823.827225 383.81943 
L 824.416652 383.474914 
L 824.808499 382.311541 
L 825.199468 382.430752 
L 825.394625 382.365539 
L 825.784283 383.637838 
L 826.367143 382.908756 
L 826.754636 384.064167 
L 826.948061 384.016814 
L 827.911977 384.60806 
L 828.296057 385.187578 
L 828.48778 385.098693 
L 828.679292 385.132766 
L 828.870594 384.988727 
L 829.061687 384.111721 
L 829.443245 383.797594 
L 829.633712 383.408864 
L 830.393504 383.615391 
L 830.582936 383.41406 
L 830.772162 383.662194 
L 830.961183 384.43692 
L 831.15 384.533151 
L 831.338612 384.38551 
L 831.527021 384.919974 
L 832.466021 385.289157 
L 832.653216 385.169356 
L 832.840211 385.280012 
L 833.027004 385.199616 
L 833.213598 385.517194 
L 834.143585 385.356231 
L 834.514195 385.344514 
L 834.699205 385.128612 
L 834.884019 385.264511 
L 835.437289 384.927684 
L 835.621323 384.859507 
L 835.805163 384.98836 
L 836.172262 384.831118 
L 836.721465 384.62452 
L 837.086643 384.730803 
L 837.451057 384.905517 
L 837.814711 384.716619 
L 838.177608 384.251061 
L 838.539751 384.310488 
L 838.901144 384.05641 
L 839.441833 384.237268 
L 840.160154 385.182574 
L 840.518207 385.315848 
L 840.875527 385.359839 
L 841.232116 385.291389 
L 842.120412 385.043219 
L 842.297529 385.263531 
L 842.474467 385.300659 
L 842.651225 385.074782 
L 842.827805 385.074576 
L 843.004205 384.929547 
L 843.180428 384.966416 
L 843.180428 384.966416 
" clip-path="url(#p1d13e2e9f5)" style="fill: none; stroke-dasharray: 7.4,3.2; stroke-dashoffset: 0; stroke: #000000; stroke-width: 2"/>
   </g>
   <g id="patch_3">
    <path d="M 41.92 403.436 
L 41.92 10.8 
" style="fill: none; stroke: #000000; stroke-width: 0.8; stroke-linejoin: miter; stroke-linecap: square"/>
   </g>
   <g id="patch_4">
    <path d="M 844.932925 403.436 
L 844.932925 10.8 
" style="fill: none; stroke: #000000; stroke-width: 0.8; stroke-linejoin: miter; stroke-linecap: square"/>
   </g>
   <g id="patch_5">
    <path d="M 41.92 403.436 
L 844.932925 403.436 
" style="fill: none; stroke: #000000; stroke-width: 0.8; stroke-linejoin: miter; stroke-linecap: square"/>
   </g>
   <g id="patch_6">
    <path d="M 41.92 10.8 
L 844.932925 10.8 
" style="fill: none; stroke: #000000; stroke-width: 0.8; stroke-linejoin: miter; stroke-linecap: square"/>
   </g>
  </g>
 </g>
 <defs>
  <clipPath id="p1d13e2e9f5">
   <rect x="41.92" y="10.8" width="803.012925" height="392.636"/>
  </clipPath>
 </defs>
</svg>
