<?xml version="1.0" encoding="utf-8" standalone="no"?>
<!DOCTYPE svg PUBLIC "-//W3C//DTD SVG 1.1//EN"
  "http://www.w3.org/Graphics/SVG/1.1/DTD/svg11.dtd">
<svg xmlns:xlink="http://www.w3.org/1999/xlink" width="864pt" height="432pt" viewBox="0 0 864 432" xmlns="http://www.w3.org/2000/svg" version="1.1">
 <metadata>
  <rdf:RDF xmlns:dc="http://purl.org/dc/elements/1.1/" xmlns:cc="http://creativecommons.org/ns#" xmlns:rdf="http://www.w3.org/1999/02/22-rdf-syntax-ns#">
   <cc:Work>
    <dc:type rdf:resource="http://purl.org/dc/dcmitype/StillImage"/>
    <dc:date>2024-09-16T17:57:27.443134</dc:date>
    <dc:format>image/svg+xml</dc:format>
    <dc:creator>
     <cc:Agent>
      <dc:title>Matplotlib v3.9.2, https://matplotlib.org/</dc:title>
     </cc:Agent>
    </dc:creator>
   </cc:Work>
  </rdf:RDF>
 </metadata>
 <defs>
  <style type="text/css">*{stroke-linejoin: round; stroke-linecap: butt}</style>
 </defs>
 <g id="figure_1">
  <g id="patch_1">
   <path d="M 0 432 
L 864 432 
L 864 0 
L 0 0 
z
" style="fill: #ffffff"/>
  </g>
  <g id="axes_1">
   <g id="patch_2">
    <path d="M 41.92 404.12 
L 853.2 404.12 
L 853.2 10.8 
L 41.92 10.8 
z
" style="fill: #ffffff"/>
   </g>
   <g id="matplotlib.axis_1">
    <g id="xtick_1">
     <g id="line2d_1">
      <defs>
       <path id="mb0d07048c0" d="M 0 0 
L 0 3.5 
" style="stroke: #000000; stroke-width: 0.8"/>
      </defs>
      <g>
       <use xlink:href="#mb0d07048c0" x="127.093753" y="404.12" style="stroke: #000000; stroke-width: 0.8"/>
      </g>
     </g>
     <g id="text_1">
      <!-- 50 -->
      <g transform="translate(121.073441 418.771563) scale(0.1 -0.1)">
       <defs>
        <path id="DejaVuSansMono-35" d="M 647 4666 
L 3009 4666 
L 3009 4134 
L 1222 4134 
L 1222 2988 
Q 1356 3038 1492 3061 
Q 1628 3084 1766 3084 
Q 2491 3084 2916 2656 
Q 3341 2228 3341 1497 
Q 3341 759 2895 334 
Q 2450 -91 1678 -91 
Q 1306 -91 998 -41 
Q 691 9 447 109 
L 447 750 
Q 734 594 1025 517 
Q 1316 441 1619 441 
Q 2141 441 2423 716 
Q 2706 991 2706 1497 
Q 2706 1997 2414 2275 
Q 2122 2553 1600 2553 
Q 1347 2553 1106 2495 
Q 866 2438 647 2322 
L 647 4666 
z
" transform="scale(0.015625)"/>
        <path id="DejaVuSansMono-30" d="M 1509 2344 
Q 1509 2516 1629 2641 
Q 1750 2766 1919 2766 
Q 2094 2766 2219 2641 
Q 2344 2516 2344 2344 
Q 2344 2169 2220 2047 
Q 2097 1925 1919 1925 
Q 1744 1925 1626 2044 
Q 1509 2163 1509 2344 
z
M 1925 4250 
Q 1484 4250 1267 3775 
Q 1050 3300 1050 2328 
Q 1050 1359 1267 884 
Q 1484 409 1925 409 
Q 2369 409 2586 884 
Q 2803 1359 2803 2328 
Q 2803 3300 2586 3775 
Q 2369 4250 1925 4250 
z
M 1925 4750 
Q 2672 4750 3055 4137 
Q 3438 3525 3438 2328 
Q 3438 1134 3055 521 
Q 2672 -91 1925 -91 
Q 1178 -91 797 521 
Q 416 1134 416 2328 
Q 416 3525 797 4137 
Q 1178 4750 1925 4750 
z
" transform="scale(0.015625)"/>
       </defs>
       <use xlink:href="#DejaVuSansMono-35"/>
       <use xlink:href="#DejaVuSansMono-30" x="60.205078"/>
      </g>
     </g>
    </g>
    <g id="xtick_2">
     <g id="line2d_2">
      <g>
       <use xlink:href="#mb0d07048c0" x="233.560945" y="404.12" style="stroke: #000000; stroke-width: 0.8"/>
      </g>
     </g>
     <g id="text_2">
      <!-- 100 -->
      <g transform="translate(224.530476 418.771563) scale(0.1 -0.1)">
       <defs>
        <path id="DejaVuSansMono-31" d="M 844 531 
L 1825 531 
L 1825 4097 
L 769 3859 
L 769 4434 
L 1819 4666 
L 2450 4666 
L 2450 531 
L 3419 531 
L 3419 0 
L 844 0 
L 844 531 
z
" transform="scale(0.015625)"/>
       </defs>
       <use xlink:href="#DejaVuSansMono-31"/>
       <use xlink:href="#DejaVuSansMono-30" x="60.205078"/>
       <use xlink:href="#DejaVuSansMono-30" x="120.410156"/>
      </g>
     </g>
    </g>
    <g id="xtick_3">
     <g id="line2d_3">
      <g>
       <use xlink:href="#mb0d07048c0" x="340.028136" y="404.12" style="stroke: #000000; stroke-width: 0.8"/>
      </g>
     </g>
     <g id="text_3">
      <!-- 150 -->
      <g transform="translate(330.997668 418.771563) scale(0.1 -0.1)">
       <use xlink:href="#DejaVuSansMono-31"/>
       <use xlink:href="#DejaVuSansMono-35" x="60.205078"/>
       <use xlink:href="#DejaVuSansMono-30" x="120.410156"/>
      </g>
     </g>
    </g>
    <g id="xtick_4">
     <g id="line2d_4">
      <g>
       <use xlink:href="#mb0d07048c0" x="446.495328" y="404.12" style="stroke: #000000; stroke-width: 0.8"/>
      </g>
     </g>
     <g id="text_4">
      <!-- 200 -->
      <g transform="translate(437.464859 418.771563) scale(0.1 -0.1)">
       <defs>
        <path id="DejaVuSansMono-32" d="M 1166 531 
L 3309 531 
L 3309 0 
L 475 0 
L 475 531 
Q 1059 1147 1496 1619 
Q 1934 2091 2100 2284 
Q 2413 2666 2522 2902 
Q 2631 3138 2631 3384 
Q 2631 3775 2401 3997 
Q 2172 4219 1772 4219 
Q 1488 4219 1175 4116 
Q 863 4013 513 3803 
L 513 4441 
Q 834 4594 1145 4672 
Q 1456 4750 1759 4750 
Q 2444 4750 2861 4386 
Q 3278 4022 3278 3431 
Q 3278 3131 3139 2831 
Q 3000 2531 2688 2169 
Q 2513 1966 2180 1606 
Q 1847 1247 1166 531 
z
" transform="scale(0.015625)"/>
       </defs>
       <use xlink:href="#DejaVuSansMono-32"/>
       <use xlink:href="#DejaVuSansMono-30" x="60.205078"/>
       <use xlink:href="#DejaVuSansMono-30" x="120.410156"/>
      </g>
     </g>
    </g>
    <g id="xtick_5">
     <g id="line2d_5">
      <g>
       <use xlink:href="#mb0d07048c0" x="552.96252" y="404.12" style="stroke: #000000; stroke-width: 0.8"/>
      </g>
     </g>
     <g id="text_5">
      <!-- 250 -->
      <g transform="translate(543.932051 418.771563) scale(0.1 -0.1)">
       <use xlink:href="#DejaVuSansMono-32"/>
       <use xlink:href="#DejaVuSansMono-35" x="60.205078"/>
       <use xlink:href="#DejaVuSansMono-30" x="120.410156"/>
      </g>
     </g>
    </g>
    <g id="xtick_6">
     <g id="line2d_6">
      <g>
       <use xlink:href="#mb0d07048c0" x="659.429711" y="404.12" style="stroke: #000000; stroke-width: 0.8"/>
      </g>
     </g>
     <g id="text_6">
      <!-- 300 -->
      <g transform="translate(650.399243 418.771563) scale(0.1 -0.1)">
       <defs>
        <path id="DejaVuSansMono-33" d="M 2425 2497 
Q 2884 2375 3128 2064 
Q 3372 1753 3372 1288 
Q 3372 644 2939 276 
Q 2506 -91 1741 -91 
Q 1419 -91 1084 -31 
Q 750 28 428 141 
L 428 769 
Q 747 603 1056 522 
Q 1366 441 1672 441 
Q 2191 441 2469 675 
Q 2747 909 2747 1350 
Q 2747 1756 2469 1995 
Q 2191 2234 1716 2234 
L 1234 2234 
L 1234 2753 
L 1716 2753 
Q 2150 2753 2394 2943 
Q 2638 3134 2638 3475 
Q 2638 3834 2411 4026 
Q 2184 4219 1766 4219 
Q 1488 4219 1191 4156 
Q 894 4094 569 3969 
L 569 4550 
Q 947 4650 1242 4700 
Q 1538 4750 1766 4750 
Q 2447 4750 2855 4408 
Q 3263 4066 3263 3500 
Q 3263 3116 3048 2859 
Q 2834 2603 2425 2497 
z
" transform="scale(0.015625)"/>
       </defs>
       <use xlink:href="#DejaVuSansMono-33"/>
       <use xlink:href="#DejaVuSansMono-30" x="60.205078"/>
       <use xlink:href="#DejaVuSansMono-30" x="120.410156"/>
      </g>
     </g>
    </g>
    <g id="xtick_7">
     <g id="line2d_7">
      <g>
       <use xlink:href="#mb0d07048c0" x="765.896903" y="404.12" style="stroke: #000000; stroke-width: 0.8"/>
      </g>
     </g>
     <g id="text_7">
      <!-- 350 -->
      <g transform="translate(756.866434 418.771563) scale(0.1 -0.1)">
       <use xlink:href="#DejaVuSansMono-33"/>
       <use xlink:href="#DejaVuSansMono-35" x="60.205078"/>
       <use xlink:href="#DejaVuSansMono-30" x="120.410156"/>
      </g>
     </g>
    </g>
   </g>
   <g id="matplotlib.axis_2">
    <g id="ytick_1">
     <g id="line2d_8">
      <defs>
       <path id="m6016e16c1c" d="M 0 0 
L -3.5 0 
" style="stroke: #000000; stroke-width: 0.8"/>
      </defs>
      <g>
       <use xlink:href="#m6016e16c1c" x="41.92" y="397.760237" style="stroke: #000000; stroke-width: 0.8"/>
      </g>
     </g>
     <g id="text_8">
      <!-- 0.12 -->
      <g transform="translate(10.83875 401.586018) scale(0.1 -0.1)">
       <defs>
        <path id="DejaVuSansMono-2e" d="M 1528 953 
L 2316 953 
L 2316 0 
L 1528 0 
L 1528 953 
z
" transform="scale(0.015625)"/>
       </defs>
       <use xlink:href="#DejaVuSansMono-30"/>
       <use xlink:href="#DejaVuSansMono-2e" x="60.205078"/>
       <use xlink:href="#DejaVuSansMono-31" x="120.410156"/>
       <use xlink:href="#DejaVuSansMono-32" x="180.615234"/>
      </g>
     </g>
    </g>
    <g id="ytick_2">
     <g id="line2d_9">
      <g>
       <use xlink:href="#m6016e16c1c" x="41.92" y="336.048431" style="stroke: #000000; stroke-width: 0.8"/>
      </g>
     </g>
     <g id="text_9">
      <!-- 0.13 -->
      <g transform="translate(10.83875 339.874212) scale(0.1 -0.1)">
       <use xlink:href="#DejaVuSansMono-30"/>
       <use xlink:href="#DejaVuSansMono-2e" x="60.205078"/>
       <use xlink:href="#DejaVuSansMono-31" x="120.410156"/>
       <use xlink:href="#DejaVuSansMono-33" x="180.615234"/>
      </g>
     </g>
    </g>
    <g id="ytick_3">
     <g id="line2d_10">
      <g>
       <use xlink:href="#m6016e16c1c" x="41.92" y="274.336625" style="stroke: #000000; stroke-width: 0.8"/>
      </g>
     </g>
     <g id="text_10">
      <!-- 0.14 -->
      <g transform="translate(10.83875 278.162406) scale(0.1 -0.1)">
       <defs>
        <path id="DejaVuSansMono-34" d="M 2297 4091 
L 825 1625 
L 2297 1625 
L 2297 4091 
z
M 2194 4666 
L 2925 4666 
L 2925 1625 
L 3547 1625 
L 3547 1113 
L 2925 1113 
L 2925 0 
L 2297 0 
L 2297 1113 
L 319 1113 
L 319 1709 
L 2194 4666 
z
" transform="scale(0.015625)"/>
       </defs>
       <use xlink:href="#DejaVuSansMono-30"/>
       <use xlink:href="#DejaVuSansMono-2e" x="60.205078"/>
       <use xlink:href="#DejaVuSansMono-31" x="120.410156"/>
       <use xlink:href="#DejaVuSansMono-34" x="180.615234"/>
      </g>
     </g>
    </g>
    <g id="ytick_4">
     <g id="line2d_11">
      <g>
       <use xlink:href="#m6016e16c1c" x="41.92" y="212.624819" style="stroke: #000000; stroke-width: 0.8"/>
      </g>
     </g>
     <g id="text_11">
      <!-- 0.15 -->
      <g transform="translate(10.83875 216.4506) scale(0.1 -0.1)">
       <use xlink:href="#DejaVuSansMono-30"/>
       <use xlink:href="#DejaVuSansMono-2e" x="60.205078"/>
       <use xlink:href="#DejaVuSansMono-31" x="120.410156"/>
       <use xlink:href="#DejaVuSansMono-35" x="180.615234"/>
      </g>
     </g>
    </g>
    <g id="ytick_5">
     <g id="line2d_12">
      <g>
       <use xlink:href="#m6016e16c1c" x="41.92" y="150.913013" style="stroke: #000000; stroke-width: 0.8"/>
      </g>
     </g>
     <g id="text_12">
      <!-- 0.16 -->
      <g transform="translate(10.83875 154.738794) scale(0.1 -0.1)">
       <defs>
        <path id="DejaVuSansMono-36" d="M 3097 4563 
L 3097 3981 
Q 2900 4097 2678 4158 
Q 2456 4219 2216 4219 
Q 1616 4219 1306 3767 
Q 997 3316 997 2438 
Q 1147 2750 1412 2917 
Q 1678 3084 2022 3084 
Q 2697 3084 3067 2670 
Q 3438 2256 3438 1497 
Q 3438 741 3056 325 
Q 2675 -91 1984 -91 
Q 1172 -91 794 492 
Q 416 1075 416 2328 
Q 416 3509 870 4129 
Q 1325 4750 2188 4750 
Q 2419 4750 2650 4701 
Q 2881 4653 3097 4563 
z
M 1972 2591 
Q 1569 2591 1337 2300 
Q 1106 2009 1106 1497 
Q 1106 984 1337 693 
Q 1569 403 1972 403 
Q 2391 403 2603 679 
Q 2816 956 2816 1497 
Q 2816 2041 2603 2316 
Q 2391 2591 1972 2591 
z
" transform="scale(0.015625)"/>
       </defs>
       <use xlink:href="#DejaVuSansMono-30"/>
       <use xlink:href="#DejaVuSansMono-2e" x="60.205078"/>
       <use xlink:href="#DejaVuSansMono-31" x="120.410156"/>
       <use xlink:href="#DejaVuSansMono-36" x="180.615234"/>
      </g>
     </g>
    </g>
    <g id="ytick_6">
     <g id="line2d_13">
      <g>
       <use xlink:href="#m6016e16c1c" x="41.92" y="89.201207" style="stroke: #000000; stroke-width: 0.8"/>
      </g>
     </g>
     <g id="text_13">
      <!-- 0.17 -->
      <g transform="translate(10.83875 93.026988) scale(0.1 -0.1)">
       <defs>
        <path id="DejaVuSansMono-37" d="M 434 4666 
L 3372 4666 
L 3372 4397 
L 1703 0 
L 1044 0 
L 2669 4134 
L 434 4134 
L 434 4666 
z
" transform="scale(0.015625)"/>
       </defs>
       <use xlink:href="#DejaVuSansMono-30"/>
       <use xlink:href="#DejaVuSansMono-2e" x="60.205078"/>
       <use xlink:href="#DejaVuSansMono-31" x="120.410156"/>
       <use xlink:href="#DejaVuSansMono-37" x="180.615234"/>
      </g>
     </g>
    </g>
    <g id="ytick_7">
     <g id="line2d_14">
      <g>
       <use xlink:href="#m6016e16c1c" x="41.92" y="27.489401" style="stroke: #000000; stroke-width: 0.8"/>
      </g>
     </g>
     <g id="text_14">
      <!-- 0.18 -->
      <g transform="translate(10.83875 31.315182) scale(0.1 -0.1)">
       <defs>
        <path id="DejaVuSansMono-38" d="M 1925 2216 
Q 1503 2216 1273 1980 
Q 1044 1744 1044 1313 
Q 1044 881 1276 642 
Q 1509 403 1925 403 
Q 2350 403 2579 639 
Q 2809 875 2809 1313 
Q 2809 1741 2576 1978 
Q 2344 2216 1925 2216 
z
M 1375 2478 
Q 972 2581 745 2862 
Q 519 3144 519 3541 
Q 519 4097 897 4423 
Q 1275 4750 1925 4750 
Q 2578 4750 2956 4423 
Q 3334 4097 3334 3541 
Q 3334 3144 3107 2862 
Q 2881 2581 2478 2478 
Q 2947 2375 3195 2062 
Q 3444 1750 3444 1253 
Q 3444 622 3041 265 
Q 2638 -91 1925 -91 
Q 1213 -91 811 264 
Q 409 619 409 1247 
Q 409 1747 657 2061 
Q 906 2375 1375 2478 
z
M 1147 3481 
Q 1147 3106 1347 2909 
Q 1547 2713 1925 2713 
Q 2306 2713 2506 2909 
Q 2706 3106 2706 3481 
Q 2706 3863 2507 4063 
Q 2309 4263 1925 4263 
Q 1547 4263 1347 4061 
Q 1147 3859 1147 3481 
z
" transform="scale(0.015625)"/>
       </defs>
       <use xlink:href="#DejaVuSansMono-30"/>
       <use xlink:href="#DejaVuSansMono-2e" x="60.205078"/>
       <use xlink:href="#DejaVuSansMono-31" x="120.410156"/>
       <use xlink:href="#DejaVuSansMono-38" x="180.615234"/>
      </g>
     </g>
    </g>
   </g>
   <g id="line2d_15">
    <path d="M 20.626562 28.678182 
L 22.755906 174.694451 
L 24.885249 212.252799 
L 27.014593 231.919 
L 29.143937 291.268123 
L 31.273281 307.023631 
L 33.402625 278.810578 
L 35.531969 286.674189 
L 37.661312 263.565784 
L 39.790656 259.342104 
L 41.92 263.439333 
L 46.178688 152.663368 
L 48.308031 146.957743 
L 50.437375 146.909603 
L 52.566719 143.23728 
L 54.696063 218.332458 
L 56.825407 226.719125 
L 58.954751 251.219853 
L 61.084094 255.094125 
L 63.213438 255.135129 
L 65.342782 291.75302 
L 67.472126 341.624379 
L 69.60147 339.745847 
L 71.730814 339.127096 
L 73.860157 349.092126 
L 75.989501 335.768753 
L 78.118845 325.9038 
L 80.248189 321.346291 
L 82.377533 312.399519 
L 84.506877 311.630922 
L 86.63622 328.248686 
L 88.765564 313.203294 
L 90.894908 322.587721 
L 93.024252 303.46477 
L 95.153596 297.287903 
L 97.28294 313.485682 
L 99.412283 321.510799 
L 101.541627 319.257549 
L 103.670971 319.851872 
L 105.800315 295.292392 
L 107.929659 161.728692 
L 110.059003 183.716909 
L 112.188346 183.618358 
L 114.31769 174.820465 
L 118.576378 115.383119 
L 120.705722 88.976915 
L 122.835066 100.897013 
L 124.964409 97.38351 
L 127.093753 117.929337 
L 129.223097 253.316444 
L 131.352441 249.373456 
L 133.481785 240.377091 
L 135.611129 260.785827 
L 137.740472 300.440182 
L 141.99916 355.919617 
L 144.128504 354.255577 
L 146.257848 361.966032 
L 148.387192 338.51445 
L 150.516535 338.861099 
L 152.645879 329.278199 
L 154.775223 333.149235 
L 156.904567 310.720057 
L 159.033911 291.189876 
L 161.163255 282.001604 
L 163.292598 259.926533 
L 165.421942 254.185858 
L 167.551286 241.502024 
L 169.68063 253.52128 
L 171.809974 219.557248 
L 173.939318 178.690843 
L 176.068661 181.544573 
L 178.198005 208.346535 
L 180.327349 205.893598 
L 182.456693 208.036251 
L 184.586037 230.805272 
L 186.715381 233.12144 
L 188.844724 250.626546 
L 190.974068 265.273554 
L 193.103412 299.839832 
L 195.232756 352.443057 
L 197.3621 352.068352 
L 199.491444 356.892686 
L 201.620787 379.041664 
L 203.750131 385.82382 
L 205.879475 383.228294 
L 208.008819 383.353384 
L 210.138163 354.604768 
L 214.39685 329.008469 
L 216.526194 330.890711 
L 218.655538 330.910546 
L 220.784882 321.658051 
L 222.914226 308.615411 
L 225.04357 305.165197 
L 227.172913 294.40677 
L 229.302257 297.785592 
L 231.431601 295.444706 
L 233.560945 306.339217 
L 235.690289 253.556927 
L 237.819633 238.234135 
L 239.948976 229.835182 
L 242.07832 231.014513 
L 244.207664 239.804874 
L 246.337008 244.177185 
L 248.466352 257.246884 
L 250.595696 250.098226 
L 252.725039 259.954561 
L 254.854383 252.43707 
L 256.983727 312.63065 
L 259.113071 325.168032 
L 261.242415 336.717462 
L 263.371759 318.563134 
L 265.501102 322.035032 
L 267.630446 315.327564 
L 269.75979 303.776833 
L 271.889134 312.340004 
L 274.018478 326.849843 
L 276.147822 334.286108 
L 278.277165 322.290918 
L 280.406509 314.109685 
L 282.535853 308.238922 
L 284.665197 327.022802 
L 286.794541 321.221845 
L 288.923885 325.791308 
L 291.053228 338.160192 
L 293.182572 332.007464 
L 295.311916 327.721111 
L 297.44126 329.646302 
L 299.570604 339.232622 
L 301.699948 342.021627 
L 303.829291 339.314179 
L 305.958635 310.361077 
L 308.087979 303.335045 
L 310.217323 292.62547 
L 312.346667 283.705995 
L 314.47601 290.183467 
L 316.605354 277.434637 
L 318.734698 279.200005 
L 320.864042 266.931452 
L 322.993386 257.241458 
L 325.12273 255.377888 
L 327.252073 248.080203 
L 329.381417 242.546158 
L 331.510761 252.271482 
L 333.640105 243.225606 
L 335.769449 237.827645 
L 337.898793 259.495738 
L 340.028136 258.327815 
L 342.15748 278.382376 
L 344.286824 296.303477 
L 346.416168 306.434679 
L 348.545512 348.54786 
L 350.674856 367.790549 
L 352.804199 367.883638 
L 354.933543 385.774121 
L 357.062887 386.241818 
L 359.192231 376.864697 
L 361.321575 363.021528 
L 363.450919 360.963137 
L 365.580262 360.893948 
L 367.709606 350.315656 
L 369.83895 350.645003 
L 371.968294 338.191646 
L 374.097638 297.692852 
L 376.226982 266.069417 
L 378.356325 248.976557 
L 380.485669 250.151271 
L 382.615013 230.629955 
L 384.744357 227.77783 
L 386.873701 219.640115 
L 389.003045 203.212506 
L 391.132388 198.456253 
L 393.261732 201.493516 
L 395.391076 238.119233 
L 397.52042 262.462272 
L 399.649764 278.738556 
L 401.779108 288.775575 
L 403.908451 305.091797 
L 406.037795 309.694954 
L 408.167139 317.850508 
L 410.296483 310.485326 
L 412.425827 315.989315 
L 414.555171 322.99736 
L 416.684514 328.970987 
L 418.813858 335.896252 
L 420.943202 339.616215 
L 423.072546 334.44 
L 425.20189 345.791854 
L 427.331234 342.152423 
L 429.460577 333.876993 
L 431.589921 364.675356 
L 433.719265 362.598481 
L 435.848609 350.056694 
L 437.977953 346.764142 
L 440.107297 347.111756 
L 442.23664 333.871471 
L 444.365984 330.625813 
L 446.495328 328.476429 
L 448.624672 291.026246 
L 450.754016 291.771555 
L 452.88336 280.532009 
L 455.012703 272.708128 
L 457.142047 274.730784 
L 461.400735 252.353347 
L 463.530079 266.718776 
L 465.659423 274.126392 
L 467.788766 282.286043 
L 469.91811 322.35698 
L 472.047454 324.776904 
L 474.176798 337.495641 
L 476.306142 336.935205 
L 478.435486 343.645316 
L 480.564829 357.924278 
L 482.694173 366.284645 
L 484.823517 354.408319 
L 486.952861 351.896037 
L 489.082205 348.755634 
L 491.211549 343.058901 
L 493.340892 335.37412 
L 495.470236 335.619041 
L 497.59958 338.039516 
L 499.728924 317.640876 
L 501.858268 309.280482 
L 503.987612 279.491244 
L 506.116955 278.903726 
L 508.246299 276.377913 
L 510.375643 276.680675 
L 512.504987 271.035618 
L 514.634331 279.704145 
L 516.763675 281.244856 
L 518.893018 283.258207 
L 521.022362 285.427646 
L 523.151706 292.835487 
L 525.28105 325.327087 
L 527.410394 329.87084 
L 529.539738 328.530426 
L 531.669081 322.041418 
L 533.798425 323.185051 
L 535.927769 319.341263 
L 538.057113 306.677392 
L 540.186457 291.73193 
L 542.315801 302.155572 
L 544.445144 290.978373 
L 546.574488 267.858234 
L 548.703832 257.481886 
L 550.833176 264.390006 
L 552.96252 273.581023 
L 555.091864 285.163135 
L 557.221207 285.072354 
L 559.350551 291.528634 
L 561.479895 313.418043 
L 563.609239 314.874994 
L 565.738583 330.302011 
L 567.867927 331.51155 
L 569.99727 349.849563 
L 572.126614 343.68838 
L 574.255958 335.018193 
L 576.385302 333.544957 
L 578.514646 338.670466 
L 580.64399 339.840463 
L 582.773333 331.171416 
L 584.902677 343.005023 
L 587.032021 324.188692 
L 589.161365 341.674735 
L 591.290709 338.562011 
L 593.420052 343.047149 
L 595.549396 330.350441 
L 597.67874 298.98085 
L 599.808084 299.98655 
L 601.937428 285.861039 
L 604.066772 256.192588 
L 606.196115 252.616549 
L 608.325459 268.767977 
L 610.454803 271.560826 
L 614.713491 227.727588 
L 616.842835 249.001924 
L 618.972178 275.272535 
L 621.101522 261.714044 
L 623.230866 273.942127 
L 625.36021 309.603649 
L 627.489554 312.981395 
L 629.618898 309.938941 
L 631.748241 309.6564 
L 633.877585 322.1132 
L 636.006929 329.852843 
L 638.136273 328.717257 
L 640.265617 325.687746 
L 642.394961 338.447303 
L 644.524304 343.902586 
L 646.653648 341.669585 
L 648.782992 340.145082 
L 650.912336 333.504077 
L 653.04168 322.778427 
L 655.171024 335.826943 
L 657.300367 344.460848 
L 659.429711 346.989502 
L 661.559055 333.483391 
L 663.688399 314.390482 
L 665.817743 313.527394 
L 667.947087 297.704628 
L 670.07643 283.217915 
L 672.205774 289.378359 
L 674.335118 293.166531 
L 676.464462 285.791597 
L 678.593806 286.22 
L 680.72315 269.648183 
L 682.852493 279.371281 
L 684.981837 300.951757 
L 687.111181 298.905191 
L 689.240525 312.463572 
L 691.369869 311.060425 
L 693.499213 295.232638 
L 695.628556 301.862139 
L 697.7579 306.459484 
L 699.887244 301.677359 
L 702.016588 318.215874 
L 704.145932 324.091616 
L 706.275276 313.095515 
L 708.404619 310.490885 
L 710.533963 299.412872 
L 712.663307 310.97918 
L 714.792651 331.503618 
L 716.921995 327.719309 
L 719.051339 324.378446 
L 721.180682 303.341519 
L 723.310026 295.50995 
L 725.43937 290.5869 
L 727.568714 297.859066 
L 729.698058 295.221267 
L 731.827402 309.391746 
L 736.086089 297.264007 
L 738.215433 294.427074 
L 740.344777 300.124593 
L 742.474121 332.4419 
L 744.603465 338.285655 
L 746.732808 344.967912 
L 748.862152 348.495398 
L 750.991496 346.25264 
L 753.12084 350.307329 
L 755.250184 361.034648 
L 757.379528 367.357488 
L 759.508871 342.256211 
L 761.638215 338.779142 
L 763.767559 334.800162 
L 765.896903 333.717005 
L 768.026247 327.405935 
L 770.155591 316.591422 
L 772.284934 325.008923 
L 774.414278 317.472667 
L 776.543622 305.080803 
L 778.672966 294.163918 
L 780.80231 319.03039 
L 782.931654 307.091993 
L 785.060997 301.993496 
L 787.190341 291.349524 
L 789.319685 301.203744 
L 791.449029 302.343267 
L 793.578373 291.322001 
L 795.707717 294.519206 
L 797.83706 302.285223 
L 799.966404 282.456225 
L 802.095748 277.257439 
L 804.225092 290.023244 
L 806.354436 297.927423 
L 808.48378 298.929018 
L 810.613123 299.500107 
L 812.742467 298.783508 
L 817.001155 302.613061 
L 819.130499 307.087731 
L 821.259843 337.465644 
L 823.389186 351.149543 
L 825.51853 320.996971 
L 827.647874 320.246568 
L 829.777218 333.126438 
L 831.906562 324.506268 
L 834.035906 332.126039 
L 836.165249 340.378457 
L 838.294593 336.295983 
L 842.553281 331.789883 
L 844.682625 326.424529 
L 846.811969 352.367974 
L 848.941312 351.314998 
L 851.070656 334.460456 
L 851.070656 334.460456 
" clip-path="url(#pbd1c95c3f5)" style="fill: none; stroke-dasharray: 7.4,3.2; stroke-dashoffset: 0; stroke: #000000; stroke-width: 2"/>
   </g>
   <g id="patch_3">
    <path d="M 41.92 404.12 
L 41.92 10.8 
" style="fill: none; stroke: #000000; stroke-width: 0.8; stroke-linejoin: miter; stroke-linecap: square"/>
   </g>
   <g id="patch_4">
    <path d="M 853.2 404.12 
L 853.2 10.8 
" style="fill: none; stroke: #000000; stroke-width: 0.8; stroke-linejoin: miter; stroke-linecap: square"/>
   </g>
   <g id="patch_5">
    <path d="M 41.92 404.12 
L 853.2 404.12 
" style="fill: none; stroke: #000000; stroke-width: 0.8; stroke-linejoin: miter; stroke-linecap: square"/>
   </g>
   <g id="patch_6">
    <path d="M 41.92 10.8 
L 853.2 10.8 
" style="fill: none; stroke: #000000; stroke-width: 0.8; stroke-linejoin: miter; stroke-linecap: square"/>
   </g>
  </g>
 </g>
 <defs>
  <clipPath id="pbd1c95c3f5">
   <rect x="41.92" y="10.8" width="811.28" height="393.32"/>
  </clipPath>
 </defs>
</svg>
