<?xml version="1.0" encoding="utf-8" standalone="no"?>
<!DOCTYPE svg PUBLIC "-//W3C//DTD SVG 1.1//EN"
  "http://www.w3.org/Graphics/SVG/1.1/DTD/svg11.dtd">
<svg xmlns:xlink="http://www.w3.org/1999/xlink" width="864pt" height="432pt" viewBox="0 0 864 432" xmlns="http://www.w3.org/2000/svg" version="1.1">
 <metadata>
  <rdf:RDF xmlns:dc="http://purl.org/dc/elements/1.1/" xmlns:cc="http://creativecommons.org/ns#" xmlns:rdf="http://www.w3.org/1999/02/22-rdf-syntax-ns#">
   <cc:Work>
    <dc:type rdf:resource="http://purl.org/dc/dcmitype/StillImage"/>
    <dc:date>2024-09-19T08:23:22.494557</dc:date>
    <dc:format>image/svg+xml</dc:format>
    <dc:creator>
     <cc:Agent>
      <dc:title>Matplotlib v3.9.2, https://matplotlib.org/</dc:title>
     </cc:Agent>
    </dc:creator>
   </cc:Work>
  </rdf:RDF>
 </metadata>
 <defs>
  <style type="text/css">*{stroke-linejoin: round; stroke-linecap: butt}</style>
 </defs>
 <g id="figure_1">
  <g id="patch_1">
   <path d="M 0 432 
L 864 432 
L 864 0 
L 0 0 
z
" style="fill: #ffffff"/>
  </g>
  <g id="axes_1">
   <g id="patch_2">
    <path d="M 41.92 404.12 
L 853.2 404.12 
L 853.2 10.8 
L 41.92 10.8 
z
" style="fill: #ffffff"/>
   </g>
   <g id="matplotlib.axis_1">
    <g id="xtick_1">
     <g id="line2d_1">
      <defs>
       <path id="m7ce46d6e7b" d="M 0 0 
L 0 3.5 
" style="stroke: #000000; stroke-width: 0.8"/>
      </defs>
      <g>
       <use xlink:href="#m7ce46d6e7b" x="199.048644" y="404.12" style="stroke: #000000; stroke-width: 0.8"/>
      </g>
     </g>
     <g id="text_1">
      <!-- 200 -->
      <g transform="translate(190.018175 418.771563) scale(0.1 -0.1)">
       <defs>
        <path id="DejaVuSansMono-32" d="M 1166 531 
L 3309 531 
L 3309 0 
L 475 0 
L 475 531 
Q 1059 1147 1496 1619 
Q 1934 2091 2100 2284 
Q 2413 2666 2522 2902 
Q 2631 3138 2631 3384 
Q 2631 3775 2401 3997 
Q 2172 4219 1772 4219 
Q 1488 4219 1175 4116 
Q 863 4013 513 3803 
L 513 4441 
Q 834 4594 1145 4672 
Q 1456 4750 1759 4750 
Q 2444 4750 2861 4386 
Q 3278 4022 3278 3431 
Q 3278 3131 3139 2831 
Q 3000 2531 2688 2169 
Q 2513 1966 2180 1606 
Q 1847 1247 1166 531 
z
" transform="scale(0.015625)"/>
        <path id="DejaVuSansMono-30" d="M 1509 2344 
Q 1509 2516 1629 2641 
Q 1750 2766 1919 2766 
Q 2094 2766 2219 2641 
Q 2344 2516 2344 2344 
Q 2344 2169 2220 2047 
Q 2097 1925 1919 1925 
Q 1744 1925 1626 2044 
Q 1509 2163 1509 2344 
z
M 1925 4250 
Q 1484 4250 1267 3775 
Q 1050 3300 1050 2328 
Q 1050 1359 1267 884 
Q 1484 409 1925 409 
Q 2369 409 2586 884 
Q 2803 1359 2803 2328 
Q 2803 3300 2586 3775 
Q 2369 4250 1925 4250 
z
M 1925 4750 
Q 2672 4750 3055 4137 
Q 3438 3525 3438 2328 
Q 3438 1134 3055 521 
Q 2672 -91 1925 -91 
Q 1178 -91 797 521 
Q 416 1134 416 2328 
Q 416 3525 797 4137 
Q 1178 4750 1925 4750 
z
" transform="scale(0.015625)"/>
       </defs>
       <use xlink:href="#DejaVuSansMono-32"/>
       <use xlink:href="#DejaVuSansMono-30" x="60.205078"/>
       <use xlink:href="#DejaVuSansMono-30" x="120.410156"/>
      </g>
     </g>
    </g>
    <g id="xtick_2">
     <g id="line2d_2">
      <g>
       <use xlink:href="#m7ce46d6e7b" x="364.447217" y="404.12" style="stroke: #000000; stroke-width: 0.8"/>
      </g>
     </g>
     <g id="text_2">
      <!-- 400 -->
      <g transform="translate(355.416748 418.771563) scale(0.1 -0.1)">
       <defs>
        <path id="DejaVuSansMono-34" d="M 2297 4091 
L 825 1625 
L 2297 1625 
L 2297 4091 
z
M 2194 4666 
L 2925 4666 
L 2925 1625 
L 3547 1625 
L 3547 1113 
L 2925 1113 
L 2925 0 
L 2297 0 
L 2297 1113 
L 319 1113 
L 319 1709 
L 2194 4666 
z
" transform="scale(0.015625)"/>
       </defs>
       <use xlink:href="#DejaVuSansMono-34"/>
       <use xlink:href="#DejaVuSansMono-30" x="60.205078"/>
       <use xlink:href="#DejaVuSansMono-30" x="120.410156"/>
      </g>
     </g>
    </g>
    <g id="xtick_3">
     <g id="line2d_3">
      <g>
       <use xlink:href="#m7ce46d6e7b" x="529.84579" y="404.12" style="stroke: #000000; stroke-width: 0.8"/>
      </g>
     </g>
     <g id="text_3">
      <!-- 600 -->
      <g transform="translate(520.815321 418.771563) scale(0.1 -0.1)">
       <defs>
        <path id="DejaVuSansMono-36" d="M 3097 4563 
L 3097 3981 
Q 2900 4097 2678 4158 
Q 2456 4219 2216 4219 
Q 1616 4219 1306 3767 
Q 997 3316 997 2438 
Q 1147 2750 1412 2917 
Q 1678 3084 2022 3084 
Q 2697 3084 3067 2670 
Q 3438 2256 3438 1497 
Q 3438 741 3056 325 
Q 2675 -91 1984 -91 
Q 1172 -91 794 492 
Q 416 1075 416 2328 
Q 416 3509 870 4129 
Q 1325 4750 2188 4750 
Q 2419 4750 2650 4701 
Q 2881 4653 3097 4563 
z
M 1972 2591 
Q 1569 2591 1337 2300 
Q 1106 2009 1106 1497 
Q 1106 984 1337 693 
Q 1569 403 1972 403 
Q 2391 403 2603 679 
Q 2816 956 2816 1497 
Q 2816 2041 2603 2316 
Q 2391 2591 1972 2591 
z
" transform="scale(0.015625)"/>
       </defs>
       <use xlink:href="#DejaVuSansMono-36"/>
       <use xlink:href="#DejaVuSansMono-30" x="60.205078"/>
       <use xlink:href="#DejaVuSansMono-30" x="120.410156"/>
      </g>
     </g>
    </g>
    <g id="xtick_4">
     <g id="line2d_4">
      <g>
       <use xlink:href="#m7ce46d6e7b" x="695.244363" y="404.12" style="stroke: #000000; stroke-width: 0.8"/>
      </g>
     </g>
     <g id="text_4">
      <!-- 800 -->
      <g transform="translate(686.213894 418.771563) scale(0.1 -0.1)">
       <defs>
        <path id="DejaVuSansMono-38" d="M 1925 2216 
Q 1503 2216 1273 1980 
Q 1044 1744 1044 1313 
Q 1044 881 1276 642 
Q 1509 403 1925 403 
Q 2350 403 2579 639 
Q 2809 875 2809 1313 
Q 2809 1741 2576 1978 
Q 2344 2216 1925 2216 
z
M 1375 2478 
Q 972 2581 745 2862 
Q 519 3144 519 3541 
Q 519 4097 897 4423 
Q 1275 4750 1925 4750 
Q 2578 4750 2956 4423 
Q 3334 4097 3334 3541 
Q 3334 3144 3107 2862 
Q 2881 2581 2478 2478 
Q 2947 2375 3195 2062 
Q 3444 1750 3444 1253 
Q 3444 622 3041 265 
Q 2638 -91 1925 -91 
Q 1213 -91 811 264 
Q 409 619 409 1247 
Q 409 1747 657 2061 
Q 906 2375 1375 2478 
z
M 1147 3481 
Q 1147 3106 1347 2909 
Q 1547 2713 1925 2713 
Q 2306 2713 2506 2909 
Q 2706 3106 2706 3481 
Q 2706 3863 2507 4063 
Q 2309 4263 1925 4263 
Q 1547 4263 1347 4061 
Q 1147 3859 1147 3481 
z
" transform="scale(0.015625)"/>
       </defs>
       <use xlink:href="#DejaVuSansMono-38"/>
       <use xlink:href="#DejaVuSansMono-30" x="60.205078"/>
       <use xlink:href="#DejaVuSansMono-30" x="120.410156"/>
      </g>
     </g>
    </g>
   </g>
   <g id="matplotlib.axis_2">
    <g id="ytick_1">
     <g id="line2d_5">
      <defs>
       <path id="md027b49adc" d="M 0 0 
L -3.5 0 
" style="stroke: #000000; stroke-width: 0.8"/>
      </defs>
      <g>
       <use xlink:href="#md027b49adc" x="41.92" y="386.246578" style="stroke: #000000; stroke-width: 0.8"/>
      </g>
     </g>
     <g id="text_5">
      <!-- 0.00 -->
      <g transform="translate(10.83875 390.072359) scale(0.1 -0.1)">
       <defs>
        <path id="DejaVuSansMono-2e" d="M 1528 953 
L 2316 953 
L 2316 0 
L 1528 0 
L 1528 953 
z
" transform="scale(0.015625)"/>
       </defs>
       <use xlink:href="#DejaVuSansMono-30"/>
       <use xlink:href="#DejaVuSansMono-2e" x="60.205078"/>
       <use xlink:href="#DejaVuSansMono-30" x="120.410156"/>
       <use xlink:href="#DejaVuSansMono-30" x="180.615234"/>
      </g>
     </g>
    </g>
    <g id="ytick_2">
     <g id="line2d_6">
      <g>
       <use xlink:href="#md027b49adc" x="41.92" y="340.965464" style="stroke: #000000; stroke-width: 0.8"/>
      </g>
     </g>
     <g id="text_6">
      <!-- 0.05 -->
      <g transform="translate(10.83875 344.791245) scale(0.1 -0.1)">
       <defs>
        <path id="DejaVuSansMono-35" d="M 647 4666 
L 3009 4666 
L 3009 4134 
L 1222 4134 
L 1222 2988 
Q 1356 3038 1492 3061 
Q 1628 3084 1766 3084 
Q 2491 3084 2916 2656 
Q 3341 2228 3341 1497 
Q 3341 759 2895 334 
Q 2450 -91 1678 -91 
Q 1306 -91 998 -41 
Q 691 9 447 109 
L 447 750 
Q 734 594 1025 517 
Q 1316 441 1619 441 
Q 2141 441 2423 716 
Q 2706 991 2706 1497 
Q 2706 1997 2414 2275 
Q 2122 2553 1600 2553 
Q 1347 2553 1106 2495 
Q 866 2438 647 2322 
L 647 4666 
z
" transform="scale(0.015625)"/>
       </defs>
       <use xlink:href="#DejaVuSansMono-30"/>
       <use xlink:href="#DejaVuSansMono-2e" x="60.205078"/>
       <use xlink:href="#DejaVuSansMono-30" x="120.410156"/>
       <use xlink:href="#DejaVuSansMono-35" x="180.615234"/>
      </g>
     </g>
    </g>
    <g id="ytick_3">
     <g id="line2d_7">
      <g>
       <use xlink:href="#md027b49adc" x="41.92" y="295.684351" style="stroke: #000000; stroke-width: 0.8"/>
      </g>
     </g>
     <g id="text_7">
      <!-- 0.10 -->
      <g transform="translate(10.83875 299.510132) scale(0.1 -0.1)">
       <defs>
        <path id="DejaVuSansMono-31" d="M 844 531 
L 1825 531 
L 1825 4097 
L 769 3859 
L 769 4434 
L 1819 4666 
L 2450 4666 
L 2450 531 
L 3419 531 
L 3419 0 
L 844 0 
L 844 531 
z
" transform="scale(0.015625)"/>
       </defs>
       <use xlink:href="#DejaVuSansMono-30"/>
       <use xlink:href="#DejaVuSansMono-2e" x="60.205078"/>
       <use xlink:href="#DejaVuSansMono-31" x="120.410156"/>
       <use xlink:href="#DejaVuSansMono-30" x="180.615234"/>
      </g>
     </g>
    </g>
    <g id="ytick_4">
     <g id="line2d_8">
      <g>
       <use xlink:href="#md027b49adc" x="41.92" y="250.403237" style="stroke: #000000; stroke-width: 0.8"/>
      </g>
     </g>
     <g id="text_8">
      <!-- 0.15 -->
      <g transform="translate(10.83875 254.229018) scale(0.1 -0.1)">
       <use xlink:href="#DejaVuSansMono-30"/>
       <use xlink:href="#DejaVuSansMono-2e" x="60.205078"/>
       <use xlink:href="#DejaVuSansMono-31" x="120.410156"/>
       <use xlink:href="#DejaVuSansMono-35" x="180.615234"/>
      </g>
     </g>
    </g>
    <g id="ytick_5">
     <g id="line2d_9">
      <g>
       <use xlink:href="#md027b49adc" x="41.92" y="205.122124" style="stroke: #000000; stroke-width: 0.8"/>
      </g>
     </g>
     <g id="text_9">
      <!-- 0.20 -->
      <g transform="translate(10.83875 208.947905) scale(0.1 -0.1)">
       <use xlink:href="#DejaVuSansMono-30"/>
       <use xlink:href="#DejaVuSansMono-2e" x="60.205078"/>
       <use xlink:href="#DejaVuSansMono-32" x="120.410156"/>
       <use xlink:href="#DejaVuSansMono-30" x="180.615234"/>
      </g>
     </g>
    </g>
    <g id="ytick_6">
     <g id="line2d_10">
      <g>
       <use xlink:href="#md027b49adc" x="41.92" y="159.84101" style="stroke: #000000; stroke-width: 0.8"/>
      </g>
     </g>
     <g id="text_10">
      <!-- 0.25 -->
      <g transform="translate(10.83875 163.666791) scale(0.1 -0.1)">
       <use xlink:href="#DejaVuSansMono-30"/>
       <use xlink:href="#DejaVuSansMono-2e" x="60.205078"/>
       <use xlink:href="#DejaVuSansMono-32" x="120.410156"/>
       <use xlink:href="#DejaVuSansMono-35" x="180.615234"/>
      </g>
     </g>
    </g>
    <g id="ytick_7">
     <g id="line2d_11">
      <g>
       <use xlink:href="#md027b49adc" x="41.92" y="114.559897" style="stroke: #000000; stroke-width: 0.8"/>
      </g>
     </g>
     <g id="text_11">
      <!-- 0.30 -->
      <g transform="translate(10.83875 118.385678) scale(0.1 -0.1)">
       <defs>
        <path id="DejaVuSansMono-33" d="M 2425 2497 
Q 2884 2375 3128 2064 
Q 3372 1753 3372 1288 
Q 3372 644 2939 276 
Q 2506 -91 1741 -91 
Q 1419 -91 1084 -31 
Q 750 28 428 141 
L 428 769 
Q 747 603 1056 522 
Q 1366 441 1672 441 
Q 2191 441 2469 675 
Q 2747 909 2747 1350 
Q 2747 1756 2469 1995 
Q 2191 2234 1716 2234 
L 1234 2234 
L 1234 2753 
L 1716 2753 
Q 2150 2753 2394 2943 
Q 2638 3134 2638 3475 
Q 2638 3834 2411 4026 
Q 2184 4219 1766 4219 
Q 1488 4219 1191 4156 
Q 894 4094 569 3969 
L 569 4550 
Q 947 4650 1242 4700 
Q 1538 4750 1766 4750 
Q 2447 4750 2855 4408 
Q 3263 4066 3263 3500 
Q 3263 3116 3048 2859 
Q 2834 2603 2425 2497 
z
" transform="scale(0.015625)"/>
       </defs>
       <use xlink:href="#DejaVuSansMono-30"/>
       <use xlink:href="#DejaVuSansMono-2e" x="60.205078"/>
       <use xlink:href="#DejaVuSansMono-33" x="120.410156"/>
       <use xlink:href="#DejaVuSansMono-30" x="180.615234"/>
      </g>
     </g>
    </g>
    <g id="ytick_8">
     <g id="line2d_12">
      <g>
       <use xlink:href="#md027b49adc" x="41.92" y="69.278783" style="stroke: #000000; stroke-width: 0.8"/>
      </g>
     </g>
     <g id="text_12">
      <!-- 0.35 -->
      <g transform="translate(10.83875 73.104564) scale(0.1 -0.1)">
       <use xlink:href="#DejaVuSansMono-30"/>
       <use xlink:href="#DejaVuSansMono-2e" x="60.205078"/>
       <use xlink:href="#DejaVuSansMono-33" x="120.410156"/>
       <use xlink:href="#DejaVuSansMono-35" x="180.615234"/>
      </g>
     </g>
    </g>
    <g id="ytick_9">
     <g id="line2d_13">
      <g>
       <use xlink:href="#md027b49adc" x="41.92" y="23.99767" style="stroke: #000000; stroke-width: 0.8"/>
      </g>
     </g>
     <g id="text_13">
      <!-- 0.40 -->
      <g transform="translate(10.83875 27.823451) scale(0.1 -0.1)">
       <use xlink:href="#DejaVuSansMono-30"/>
       <use xlink:href="#DejaVuSansMono-2e" x="60.205078"/>
       <use xlink:href="#DejaVuSansMono-34" x="120.410156"/>
       <use xlink:href="#DejaVuSansMono-30" x="180.615234"/>
      </g>
     </g>
    </g>
   </g>
   <g id="line2d_14">
    <path d="M 33.650071 28.678182 
L 34.477064 40.976719 
L 36.13105 216.398884 
L 36.958043 271.079892 
L 37.785036 303.409154 
L 38.612029 309.272899 
L 39.439021 310.238659 
L 40.266014 308.600266 
L 41.093007 307.771249 
L 41.92 316.710498 
L 42.746993 317.965541 
L 43.573986 320.198691 
L 44.400979 316.209331 
L 45.227971 317.880148 
L 46.054964 320.5924 
L 46.881957 315.516729 
L 47.70895 315.88877 
L 48.535943 309.402456 
L 49.362936 309.432536 
L 50.189929 300.818318 
L 51.016922 299.661868 
L 51.843914 295.250792 
L 52.670907 297.270786 
L 53.4979 292.712944 
L 54.324893 292.740928 
L 55.151886 297.901669 
L 55.978879 296.624289 
L 56.805872 304.519257 
L 57.632864 300.184236 
L 58.459857 308.957342 
L 59.28685 310.04595 
L 60.113843 309.031594 
L 60.940836 310.455306 
L 61.767829 313.485257 
L 62.594822 312.211309 
L 63.421814 312.591174 
L 64.248807 314.053772 
L 65.0758 313.477241 
L 65.902793 319.271491 
L 66.729786 315.970084 
L 67.556779 315.372096 
L 68.383772 318.91754 
L 69.210765 319.372852 
L 70.037757 320.180828 
L 70.86475 318.801423 
L 71.691743 315.491924 
L 72.518736 310.822945 
L 73.345729 300.325664 
L 74.172722 298.677387 
L 74.999715 301.06604 
L 76.6537 296.862889 
L 77.480693 295.864691 
L 78.307686 296.87489 
L 79.134679 300.351962 
L 79.961672 300.713847 
L 80.788665 303.33192 
L 81.615657 314.985152 
L 82.44265 315.967032 
L 83.269643 316.730862 
L 84.096636 319.644417 
L 85.750622 322.327175 
L 86.577615 322.70421 
L 87.404608 319.846749 
L 88.2316 322.627668 
L 89.058593 324.735461 
L 89.885586 325.014141 
L 91.539572 326.071919 
L 92.366565 319.581129 
L 93.193558 320.146958 
L 94.847543 319.985156 
L 95.674536 322.869467 
L 98.155515 322.562522 
L 98.982508 322.93647 
L 99.809501 323.143194 
L 100.636493 329.570111 
L 101.463486 331.568824 
L 102.290479 331.470556 
L 103.117472 329.409536 
L 103.944465 329.336446 
L 104.771458 329.649566 
L 105.598451 329.018533 
L 106.425443 329.271922 
L 107.252436 328.759838 
L 108.079429 328.570739 
L 108.906422 323.274078 
L 109.733415 322.674391 
L 110.560408 320.441317 
L 111.387401 317.448184 
L 112.214393 317.536893 
L 113.041386 311.887295 
L 113.868379 312.455886 
L 114.695372 312.094113 
L 115.522365 312.491806 
L 116.349358 312.648882 
L 117.176351 317.819786 
L 118.830336 319.005999 
L 119.657329 323.652997 
L 120.484322 323.673995 
L 121.311315 329.491934 
L 122.138308 329.413798 
L 122.965301 328.632114 
L 123.792294 328.748981 
L 124.619286 327.683126 
L 125.446279 327.886732 
L 126.273272 326.350504 
L 127.100265 326.611256 
L 127.927258 325.674797 
L 128.754251 325.335615 
L 129.581244 324.531796 
L 130.408236 324.850037 
L 131.235229 325.844328 
L 132.062222 325.807853 
L 132.889215 327.031641 
L 133.716208 326.00406 
L 134.543201 326.930454 
L 136.197187 329.738003 
L 137.024179 329.882416 
L 137.851172 330.249948 
L 138.678165 329.582587 
L 139.505158 329.760751 
L 140.332151 329.480855 
L 141.159144 328.238169 
L 141.986137 329.257291 
L 142.813129 329.903016 
L 143.640122 330.012019 
L 145.294108 330.053448 
L 146.121101 330.353322 
L 146.948094 330.813944 
L 147.775087 330.537656 
L 148.60208 330.914923 
L 149.429072 332.158996 
L 150.256065 331.662136 
L 151.083058 330.934804 
L 151.910051 330.807548 
L 154.39103 331.17451 
L 155.218022 331.086879 
L 156.045015 328.147189 
L 156.872008 328.126086 
L 158.525994 326.624199 
L 159.352987 327.407726 
L 160.17998 327.574373 
L 161.833965 327.496294 
L 163.487951 327.526217 
L 164.314944 330.200929 
L 165.141937 330.046779 
L 165.96893 329.591939 
L 166.795923 330.591324 
L 167.622915 330.408196 
L 168.449908 330.4315 
L 170.103894 329.097594 
L 170.930887 329.100794 
L 171.75788 328.790359 
L 172.584873 328.298839 
L 173.411865 328.408906 
L 174.238858 329.532399 
L 175.065851 329.617882 
L 175.892844 328.968857 
L 176.719837 328.981853 
L 177.54683 329.49313 
L 178.373823 328.764158 
L 179.200815 328.559347 
L 180.027808 328.973967 
L 180.854801 330.007862 
L 182.508787 329.803638 
L 183.33578 330.104059 
L 184.162773 330.832798 
L 184.989766 330.768584 
L 185.816758 330.213986 
L 186.643751 331.578091 
L 187.470744 331.482679 
L 188.297737 331.71765 
L 189.12473 330.886331 
L 190.778716 331.212882 
L 191.605708 330.882296 
L 192.432701 330.886568 
L 193.259694 330.316181 
L 194.086687 331.061491 
L 195.740673 331.19536 
L 196.567666 330.956398 
L 197.394659 331.602637 
L 198.221651 330.817806 
L 199.048644 330.748638 
L 199.875637 331.051934 
L 200.70263 331.068727 
L 201.529623 331.365617 
L 205.664587 331.973846 
L 206.49158 332.795357 
L 207.318573 332.887349 
L 208.145566 332.842817 
L 208.972559 332.332269 
L 209.799551 332.704637 
L 211.453537 332.226158 
L 212.28053 332.379684 
L 213.107523 329.68109 
L 216.415494 329.978985 
L 217.242487 330.203407 
L 218.06948 330.232567 
L 219.723466 330.912726 
L 220.550459 330.943152 
L 221.377452 333.836799 
L 222.204444 333.913583 
L 223.85843 333.867806 
L 224.685423 333.889541 
L 225.512416 334.363417 
L 227.166402 334.433048 
L 227.993394 334.250314 
L 228.820387 333.682806 
L 229.64738 333.619145 
L 230.474373 333.290102 
L 231.301366 333.160503 
L 232.955352 333.321971 
L 234.609337 333.289594 
L 235.43633 333.292061 
L 236.263323 333.450046 
L 237.090316 334.05559 
L 237.917309 334.198342 
L 238.744302 334.615452 
L 239.571295 334.492663 
L 240.398287 333.963039 
L 242.879266 334.14594 
L 243.706259 334.312232 
L 244.533252 334.195402 
L 245.360245 334.292042 
L 246.187238 334.251696 
L 247.01423 333.405511 
L 247.841223 333.538855 
L 248.668216 334.068812 
L 251.149195 334.320426 
L 251.976188 333.96141 
L 252.80318 334.396844 
L 253.630173 334.477073 
L 254.457166 334.672169 
L 255.284159 335.694921 
L 256.111152 336.110318 
L 256.938145 336.030249 
L 258.59213 336.18815 
L 259.419123 336.201246 
L 260.246116 336.749786 
L 261.900102 336.937781 
L 262.727095 336.689584 
L 263.554088 336.823727 
L 265.208073 337.557799 
L 266.035066 337.580214 
L 266.862059 337.877185 
L 268.516045 338.056343 
L 269.343038 338.243016 
L 270.170031 337.839994 
L 270.997023 338.35944 
L 273.478002 338.679024 
L 275.131988 338.965172 
L 276.785973 339.266877 
L 277.612966 339.305902 
L 278.439959 340.052468 
L 280.093945 340.388804 
L 280.920938 340.616552 
L 281.747931 340.433516 
L 283.401916 340.45419 
L 284.228909 340.848268 
L 285.055902 340.951998 
L 286.709888 341.476607 
L 287.536881 341.695203 
L 289.190866 341.746572 
L 291.671845 343.202728 
L 292.498838 343.386549 
L 293.325831 343.832217 
L 295.806809 344.132623 
L 297.460795 345.186138 
L 302.422752 347.075219 
L 303.249745 347.461465 
L 304.076738 347.978714 
L 304.903731 348.157285 
L 306.557717 348.979616 
L 309.038695 349.33885 
L 315.654638 352.611589 
L 317.308624 353.833002 
L 318.96261 354.76696 
L 321.443588 356.730679 
L 323.097574 357.880765 
L 323.924567 358.745112 
L 324.75156 358.960143 
L 325.578552 359.849638 
L 326.405545 360.561527 
L 327.232538 360.973807 
L 332.194495 364.6844 
L 333.021488 365.657276 
L 334.675474 366.491383 
L 335.502467 367.312127 
L 337.983445 369.229008 
L 340.464424 370.713011 
L 341.291417 371.260675 
L 342.11841 371.567084 
L 342.945403 372.074616 
L 348.734353 374.406376 
L 349.561346 374.464792 
L 350.388338 375.063869 
L 352.869317 376.012229 
L 355.350296 376.692788 
L 356.177288 377.035033 
L 357.004281 377.231716 
L 357.831274 377.703148 
L 359.48526 378.259691 
L 361.139246 378.822727 
L 361.966239 378.88402 
L 363.620224 379.470927 
L 364.447217 379.681023 
L 365.27421 379.747612 
L 367.755189 380.57261 
L 369.409174 380.934441 
L 370.236167 381.36412 
L 372.717146 381.97885 
L 373.544139 382.383018 
L 374.371131 382.494385 
L 375.198124 382.479217 
L 378.506096 382.941969 
L 379.333089 383.114305 
L 382.64106 383.299074 
L 385.122039 383.659037 
L 385.949032 383.584433 
L 389.257003 384.074559 
L 391.737982 384.480234 
L 396.699939 385.010224 
L 400.834903 385.194916 
L 402.488889 385.398897 
L 407.450846 385.470124 
L 409.104832 385.501013 
L 410.758818 385.489154 
L 412.412803 385.555756 
L 420.682732 385.622703 
L 428.125668 385.969297 
L 439.703568 385.977335 
L 444.665525 386.072145 
L 469.475311 386.127255 
L 472.783282 386.180049 
L 529.018797 386.230623 
L 696.071356 386.090362 
L 701.033313 386.13467 
L 703.514292 386.184743 
L 744.036942 386.163875 
L 749.825892 386.22449 
L 763.057778 386.163622 
L 765.538756 386.119666 
L 786.213578 386.17988 
L 797.791478 386.179918 
L 802.753435 386.202643 
L 810.196371 386.140623 
L 811.850357 386.049025 
L 822.601264 386.087629 
L 824.25525 386.008931 
L 828.390214 386.079069 
L 831.698186 386.208309 
L 837.487136 386.235351 
L 841.6221 386.209964 
L 852.373007 386.15361 
L 852.373007 386.15361 
" clip-path="url(#pd5280ab221)" style="fill: none; stroke-dasharray: 7.4,3.2; stroke-dashoffset: 0; stroke: #000000; stroke-width: 2"/>
   </g>
   <g id="patch_3">
    <path d="M 41.92 404.12 
L 41.92 10.8 
" style="fill: none; stroke: #000000; stroke-width: 0.8; stroke-linejoin: miter; stroke-linecap: square"/>
   </g>
   <g id="patch_4">
    <path d="M 853.2 404.12 
L 853.2 10.8 
" style="fill: none; stroke: #000000; stroke-width: 0.8; stroke-linejoin: miter; stroke-linecap: square"/>
   </g>
   <g id="patch_5">
    <path d="M 41.92 404.12 
L 853.2 404.12 
" style="fill: none; stroke: #000000; stroke-width: 0.8; stroke-linejoin: miter; stroke-linecap: square"/>
   </g>
   <g id="patch_6">
    <path d="M 41.92 10.8 
L 853.2 10.8 
" style="fill: none; stroke: #000000; stroke-width: 0.8; stroke-linejoin: miter; stroke-linecap: square"/>
   </g>
  </g>
 </g>
 <defs>
  <clipPath id="pd5280ab221">
   <rect x="41.92" y="10.8" width="811.28" height="393.32"/>
  </clipPath>
 </defs>
</svg>
