<?xml version="1.0" encoding="utf-8" standalone="no"?>
<!DOCTYPE svg PUBLIC "-//W3C//DTD SVG 1.1//EN"
  "http://www.w3.org/Graphics/SVG/1.1/DTD/svg11.dtd">
<svg xmlns:xlink="http://www.w3.org/1999/xlink" width="864pt" height="432pt" viewBox="0 0 864 432" xmlns="http://www.w3.org/2000/svg" version="1.1">
 <metadata>
  <rdf:RDF xmlns:dc="http://purl.org/dc/elements/1.1/" xmlns:cc="http://creativecommons.org/ns#" xmlns:rdf="http://www.w3.org/1999/02/22-rdf-syntax-ns#">
   <cc:Work>
    <dc:type rdf:resource="http://purl.org/dc/dcmitype/StillImage"/>
    <dc:date>2024-09-24T13:15:03.504413</dc:date>
    <dc:format>image/svg+xml</dc:format>
    <dc:creator>
     <cc:Agent>
      <dc:title>Matplotlib v3.9.2, https://matplotlib.org/</dc:title>
     </cc:Agent>
    </dc:creator>
   </cc:Work>
  </rdf:RDF>
 </metadata>
 <defs>
  <style type="text/css">*{stroke-linejoin: round; stroke-linecap: butt}</style>
 </defs>
 <g id="figure_1">
  <g id="patch_1">
   <path d="M 0 432 
L 864 432 
L 864 0 
L 0 0 
z
" style="fill: #ffffff"/>
  </g>
  <g id="axes_1">
   <g id="patch_2">
    <path d="M 47.95 404.12 
L 853.2 404.12 
L 853.2 10.8 
L 47.95 10.8 
z
" style="fill: #ffffff"/>
   </g>
   <g id="matplotlib.axis_1">
    <g id="xtick_1">
     <g id="line2d_1">
      <defs>
       <path id="mf5bcef588d" d="M 0 0 
L 0 3.5 
" style="stroke: #000000; stroke-width: 0.8"/>
      </defs>
      <g>
       <use xlink:href="#mf5bcef588d" x="132.490682" y="404.12" style="stroke: #000000; stroke-width: 0.8"/>
      </g>
     </g>
     <g id="text_1">
      <!-- 50 -->
      <g transform="translate(126.47037 418.771563) scale(0.1 -0.1)">
       <defs>
        <path id="DejaVuSansMono-35" d="M 647 4666 
L 3009 4666 
L 3009 4134 
L 1222 4134 
L 1222 2988 
Q 1356 3038 1492 3061 
Q 1628 3084 1766 3084 
Q 2491 3084 2916 2656 
Q 3341 2228 3341 1497 
Q 3341 759 2895 334 
Q 2450 -91 1678 -91 
Q 1306 -91 998 -41 
Q 691 9 447 109 
L 447 750 
Q 734 594 1025 517 
Q 1316 441 1619 441 
Q 2141 441 2423 716 
Q 2706 991 2706 1497 
Q 2706 1997 2414 2275 
Q 2122 2553 1600 2553 
Q 1347 2553 1106 2495 
Q 866 2438 647 2322 
L 647 4666 
z
" transform="scale(0.015625)"/>
        <path id="DejaVuSansMono-30" d="M 1509 2344 
Q 1509 2516 1629 2641 
Q 1750 2766 1919 2766 
Q 2094 2766 2219 2641 
Q 2344 2516 2344 2344 
Q 2344 2169 2220 2047 
Q 2097 1925 1919 1925 
Q 1744 1925 1626 2044 
Q 1509 2163 1509 2344 
z
M 1925 4250 
Q 1484 4250 1267 3775 
Q 1050 3300 1050 2328 
Q 1050 1359 1267 884 
Q 1484 409 1925 409 
Q 2369 409 2586 884 
Q 2803 1359 2803 2328 
Q 2803 3300 2586 3775 
Q 2369 4250 1925 4250 
z
M 1925 4750 
Q 2672 4750 3055 4137 
Q 3438 3525 3438 2328 
Q 3438 1134 3055 521 
Q 2672 -91 1925 -91 
Q 1178 -91 797 521 
Q 416 1134 416 2328 
Q 416 3525 797 4137 
Q 1178 4750 1925 4750 
z
" transform="scale(0.015625)"/>
       </defs>
       <use xlink:href="#DejaVuSansMono-35"/>
       <use xlink:href="#DejaVuSansMono-30" x="60.205078"/>
      </g>
     </g>
    </g>
    <g id="xtick_2">
     <g id="line2d_2">
      <g>
       <use xlink:href="#mf5bcef588d" x="238.166535" y="404.12" style="stroke: #000000; stroke-width: 0.8"/>
      </g>
     </g>
     <g id="text_2">
      <!-- 100 -->
      <g transform="translate(229.136067 418.771563) scale(0.1 -0.1)">
       <defs>
        <path id="DejaVuSansMono-31" d="M 844 531 
L 1825 531 
L 1825 4097 
L 769 3859 
L 769 4434 
L 1819 4666 
L 2450 4666 
L 2450 531 
L 3419 531 
L 3419 0 
L 844 0 
L 844 531 
z
" transform="scale(0.015625)"/>
       </defs>
       <use xlink:href="#DejaVuSansMono-31"/>
       <use xlink:href="#DejaVuSansMono-30" x="60.205078"/>
       <use xlink:href="#DejaVuSansMono-30" x="120.410156"/>
      </g>
     </g>
    </g>
    <g id="xtick_3">
     <g id="line2d_3">
      <g>
       <use xlink:href="#mf5bcef588d" x="343.842388" y="404.12" style="stroke: #000000; stroke-width: 0.8"/>
      </g>
     </g>
     <g id="text_3">
      <!-- 150 -->
      <g transform="translate(334.81192 418.771563) scale(0.1 -0.1)">
       <use xlink:href="#DejaVuSansMono-31"/>
       <use xlink:href="#DejaVuSansMono-35" x="60.205078"/>
       <use xlink:href="#DejaVuSansMono-30" x="120.410156"/>
      </g>
     </g>
    </g>
    <g id="xtick_4">
     <g id="line2d_4">
      <g>
       <use xlink:href="#mf5bcef588d" x="449.518241" y="404.12" style="stroke: #000000; stroke-width: 0.8"/>
      </g>
     </g>
     <g id="text_4">
      <!-- 200 -->
      <g transform="translate(440.487773 418.771563) scale(0.1 -0.1)">
       <defs>
        <path id="DejaVuSansMono-32" d="M 1166 531 
L 3309 531 
L 3309 0 
L 475 0 
L 475 531 
Q 1059 1147 1496 1619 
Q 1934 2091 2100 2284 
Q 2413 2666 2522 2902 
Q 2631 3138 2631 3384 
Q 2631 3775 2401 3997 
Q 2172 4219 1772 4219 
Q 1488 4219 1175 4116 
Q 863 4013 513 3803 
L 513 4441 
Q 834 4594 1145 4672 
Q 1456 4750 1759 4750 
Q 2444 4750 2861 4386 
Q 3278 4022 3278 3431 
Q 3278 3131 3139 2831 
Q 3000 2531 2688 2169 
Q 2513 1966 2180 1606 
Q 1847 1247 1166 531 
z
" transform="scale(0.015625)"/>
       </defs>
       <use xlink:href="#DejaVuSansMono-32"/>
       <use xlink:href="#DejaVuSansMono-30" x="60.205078"/>
       <use xlink:href="#DejaVuSansMono-30" x="120.410156"/>
      </g>
     </g>
    </g>
    <g id="xtick_5">
     <g id="line2d_5">
      <g>
       <use xlink:href="#mf5bcef588d" x="555.194094" y="404.12" style="stroke: #000000; stroke-width: 0.8"/>
      </g>
     </g>
     <g id="text_5">
      <!-- 250 -->
      <g transform="translate(546.163626 418.771563) scale(0.1 -0.1)">
       <use xlink:href="#DejaVuSansMono-32"/>
       <use xlink:href="#DejaVuSansMono-35" x="60.205078"/>
       <use xlink:href="#DejaVuSansMono-30" x="120.410156"/>
      </g>
     </g>
    </g>
    <g id="xtick_6">
     <g id="line2d_6">
      <g>
       <use xlink:href="#mf5bcef588d" x="660.869948" y="404.12" style="stroke: #000000; stroke-width: 0.8"/>
      </g>
     </g>
     <g id="text_6">
      <!-- 300 -->
      <g transform="translate(651.839479 418.771563) scale(0.1 -0.1)">
       <defs>
        <path id="DejaVuSansMono-33" d="M 2425 2497 
Q 2884 2375 3128 2064 
Q 3372 1753 3372 1288 
Q 3372 644 2939 276 
Q 2506 -91 1741 -91 
Q 1419 -91 1084 -31 
Q 750 28 428 141 
L 428 769 
Q 747 603 1056 522 
Q 1366 441 1672 441 
Q 2191 441 2469 675 
Q 2747 909 2747 1350 
Q 2747 1756 2469 1995 
Q 2191 2234 1716 2234 
L 1234 2234 
L 1234 2753 
L 1716 2753 
Q 2150 2753 2394 2943 
Q 2638 3134 2638 3475 
Q 2638 3834 2411 4026 
Q 2184 4219 1766 4219 
Q 1488 4219 1191 4156 
Q 894 4094 569 3969 
L 569 4550 
Q 947 4650 1242 4700 
Q 1538 4750 1766 4750 
Q 2447 4750 2855 4408 
Q 3263 4066 3263 3500 
Q 3263 3116 3048 2859 
Q 2834 2603 2425 2497 
z
" transform="scale(0.015625)"/>
       </defs>
       <use xlink:href="#DejaVuSansMono-33"/>
       <use xlink:href="#DejaVuSansMono-30" x="60.205078"/>
       <use xlink:href="#DejaVuSansMono-30" x="120.410156"/>
      </g>
     </g>
    </g>
    <g id="xtick_7">
     <g id="line2d_7">
      <g>
       <use xlink:href="#mf5bcef588d" x="766.545801" y="404.12" style="stroke: #000000; stroke-width: 0.8"/>
      </g>
     </g>
     <g id="text_7">
      <!-- 350 -->
      <g transform="translate(757.515332 418.771563) scale(0.1 -0.1)">
       <use xlink:href="#DejaVuSansMono-33"/>
       <use xlink:href="#DejaVuSansMono-35" x="60.205078"/>
       <use xlink:href="#DejaVuSansMono-30" x="120.410156"/>
      </g>
     </g>
    </g>
   </g>
   <g id="matplotlib.axis_2">
    <g id="ytick_1">
     <g id="line2d_8">
      <defs>
       <path id="md563af82ee" d="M 0 0 
L -3.5 0 
" style="stroke: #000000; stroke-width: 0.8"/>
      </defs>
      <g>
       <use xlink:href="#md563af82ee" x="47.95" y="368.041469" style="stroke: #000000; stroke-width: 0.8"/>
      </g>
     </g>
     <g id="text_8">
      <!-- 0.060 -->
      <g transform="translate(10.848438 371.867251) scale(0.1 -0.1)">
       <defs>
        <path id="DejaVuSansMono-2e" d="M 1528 953 
L 2316 953 
L 2316 0 
L 1528 0 
L 1528 953 
z
" transform="scale(0.015625)"/>
        <path id="DejaVuSansMono-36" d="M 3097 4563 
L 3097 3981 
Q 2900 4097 2678 4158 
Q 2456 4219 2216 4219 
Q 1616 4219 1306 3767 
Q 997 3316 997 2438 
Q 1147 2750 1412 2917 
Q 1678 3084 2022 3084 
Q 2697 3084 3067 2670 
Q 3438 2256 3438 1497 
Q 3438 741 3056 325 
Q 2675 -91 1984 -91 
Q 1172 -91 794 492 
Q 416 1075 416 2328 
Q 416 3509 870 4129 
Q 1325 4750 2188 4750 
Q 2419 4750 2650 4701 
Q 2881 4653 3097 4563 
z
M 1972 2591 
Q 1569 2591 1337 2300 
Q 1106 2009 1106 1497 
Q 1106 984 1337 693 
Q 1569 403 1972 403 
Q 2391 403 2603 679 
Q 2816 956 2816 1497 
Q 2816 2041 2603 2316 
Q 2391 2591 1972 2591 
z
" transform="scale(0.015625)"/>
       </defs>
       <use xlink:href="#DejaVuSansMono-30"/>
       <use xlink:href="#DejaVuSansMono-2e" x="60.205078"/>
       <use xlink:href="#DejaVuSansMono-30" x="120.410156"/>
       <use xlink:href="#DejaVuSansMono-36" x="180.615234"/>
       <use xlink:href="#DejaVuSansMono-30" x="240.820312"/>
      </g>
     </g>
    </g>
    <g id="ytick_2">
     <g id="line2d_9">
      <g>
       <use xlink:href="#md563af82ee" x="47.95" y="282.052533" style="stroke: #000000; stroke-width: 0.8"/>
      </g>
     </g>
     <g id="text_9">
      <!-- 0.065 -->
      <g transform="translate(10.848438 285.878314) scale(0.1 -0.1)">
       <use xlink:href="#DejaVuSansMono-30"/>
       <use xlink:href="#DejaVuSansMono-2e" x="60.205078"/>
       <use xlink:href="#DejaVuSansMono-30" x="120.410156"/>
       <use xlink:href="#DejaVuSansMono-36" x="180.615234"/>
       <use xlink:href="#DejaVuSansMono-35" x="240.820312"/>
      </g>
     </g>
    </g>
    <g id="ytick_3">
     <g id="line2d_10">
      <g>
       <use xlink:href="#md563af82ee" x="47.95" y="196.063597" style="stroke: #000000; stroke-width: 0.8"/>
      </g>
     </g>
     <g id="text_10">
      <!-- 0.070 -->
      <g transform="translate(10.848438 199.889378) scale(0.1 -0.1)">
       <defs>
        <path id="DejaVuSansMono-37" d="M 434 4666 
L 3372 4666 
L 3372 4397 
L 1703 0 
L 1044 0 
L 2669 4134 
L 434 4134 
L 434 4666 
z
" transform="scale(0.015625)"/>
       </defs>
       <use xlink:href="#DejaVuSansMono-30"/>
       <use xlink:href="#DejaVuSansMono-2e" x="60.205078"/>
       <use xlink:href="#DejaVuSansMono-30" x="120.410156"/>
       <use xlink:href="#DejaVuSansMono-37" x="180.615234"/>
       <use xlink:href="#DejaVuSansMono-30" x="240.820312"/>
      </g>
     </g>
    </g>
    <g id="ytick_4">
     <g id="line2d_11">
      <g>
       <use xlink:href="#md563af82ee" x="47.95" y="110.074661" style="stroke: #000000; stroke-width: 0.8"/>
      </g>
     </g>
     <g id="text_11">
      <!-- 0.075 -->
      <g transform="translate(10.848438 113.900442) scale(0.1 -0.1)">
       <use xlink:href="#DejaVuSansMono-30"/>
       <use xlink:href="#DejaVuSansMono-2e" x="60.205078"/>
       <use xlink:href="#DejaVuSansMono-30" x="120.410156"/>
       <use xlink:href="#DejaVuSansMono-37" x="180.615234"/>
       <use xlink:href="#DejaVuSansMono-35" x="240.820312"/>
      </g>
     </g>
    </g>
    <g id="ytick_5">
     <g id="line2d_12">
      <g>
       <use xlink:href="#md563af82ee" x="47.95" y="24.085725" style="stroke: #000000; stroke-width: 0.8"/>
      </g>
     </g>
     <g id="text_12">
      <!-- 0.080 -->
      <g transform="translate(10.848438 27.911506) scale(0.1 -0.1)">
       <defs>
        <path id="DejaVuSansMono-38" d="M 1925 2216 
Q 1503 2216 1273 1980 
Q 1044 1744 1044 1313 
Q 1044 881 1276 642 
Q 1509 403 1925 403 
Q 2350 403 2579 639 
Q 2809 875 2809 1313 
Q 2809 1741 2576 1978 
Q 2344 2216 1925 2216 
z
M 1375 2478 
Q 972 2581 745 2862 
Q 519 3144 519 3541 
Q 519 4097 897 4423 
Q 1275 4750 1925 4750 
Q 2578 4750 2956 4423 
Q 3334 4097 3334 3541 
Q 3334 3144 3107 2862 
Q 2881 2581 2478 2478 
Q 2947 2375 3195 2062 
Q 3444 1750 3444 1253 
Q 3444 622 3041 265 
Q 2638 -91 1925 -91 
Q 1213 -91 811 264 
Q 409 619 409 1247 
Q 409 1747 657 2061 
Q 906 2375 1375 2478 
z
M 1147 3481 
Q 1147 3106 1347 2909 
Q 1547 2713 1925 2713 
Q 2306 2713 2506 2909 
Q 2706 3106 2706 3481 
Q 2706 3863 2507 4063 
Q 2309 4263 1925 4263 
Q 1547 4263 1347 4061 
Q 1147 3859 1147 3481 
z
" transform="scale(0.015625)"/>
       </defs>
       <use xlink:href="#DejaVuSansMono-30"/>
       <use xlink:href="#DejaVuSansMono-2e" x="60.205078"/>
       <use xlink:href="#DejaVuSansMono-30" x="120.410156"/>
       <use xlink:href="#DejaVuSansMono-38" x="180.615234"/>
       <use xlink:href="#DejaVuSansMono-30" x="240.820312"/>
      </g>
     </g>
    </g>
   </g>
   <g id="line2d_13">
    <path d="M 26.814829 112.27003 
L 28.928346 96.155961 
L 31.041864 86.865078 
L 33.155381 71.574612 
L 35.268898 59.714371 
L 37.382415 61.737957 
L 39.495932 48.957076 
L 41.609449 28.678182 
L 43.722966 148.622747 
L 45.836483 167.593808 
L 47.95 160.666315 
L 50.063517 188.409659 
L 52.177034 176.069006 
L 54.290551 184.208187 
L 56.404068 216.465764 
L 58.517585 242.089132 
L 60.631102 262.449943 
L 62.744619 252.863302 
L 64.858136 197.313047 
L 66.971654 188.26531 
L 69.085171 190.54018 
L 71.198688 186.311204 
L 73.312205 188.974612 
L 75.425722 201.884248 
L 77.539239 205.661412 
L 79.652756 203.398005 
L 81.766273 195.905693 
L 83.87979 223.150693 
L 85.993307 282.902695 
L 88.106824 299.941619 
L 90.220341 308.179949 
L 92.333858 277.872597 
L 94.447375 294.815625 
L 96.560892 296.518257 
L 98.674409 295.247339 
L 100.787927 275.813094 
L 102.901444 286.046848 
L 105.014961 289.116401 
L 107.128478 265.425395 
L 109.241995 261.791721 
L 111.355512 263.790347 
L 113.469029 297.542908 
L 115.582546 267.644443 
L 117.696063 264.417868 
L 119.80958 259.543888 
L 121.923097 281.894893 
L 124.036614 296.441607 
L 126.150131 298.565536 
L 128.263648 282.034187 
L 130.377165 256.227639 
L 132.490682 246.866872 
L 134.604199 231.41877 
L 136.717717 257.668462 
L 138.831234 258.570509 
L 140.944751 264.51254 
L 143.058268 258.128352 
L 145.171785 249.34334 
L 147.285302 248.917642 
L 149.398819 280.767325 
L 151.512336 308.37197 
L 153.625853 317.502943 
L 155.73937 322.58327 
L 157.852887 324.103157 
L 159.966404 315.756868 
L 162.079921 300.98048 
L 164.193438 308.66817 
L 166.306955 308.245893 
L 168.420472 309.437701 
L 170.53399 309.634309 
L 172.647507 311.78817 
L 174.761024 298.239077 
L 176.874541 308.295007 
L 178.988058 297.614221 
L 181.101575 309.850317 
L 183.215092 326.12124 
L 185.328609 326.325716 
L 187.442126 328.95563 
L 189.555643 325.053197 
L 191.66916 333.959654 
L 193.782677 337.51375 
L 195.896194 351.762458 
L 198.009711 353.491972 
L 200.123228 360.537469 
L 202.236745 355.279178 
L 204.350262 352.103921 
L 206.46378 351.973154 
L 208.577297 357.519925 
L 210.690814 360.253218 
L 212.804331 360.017548 
L 214.917848 354.077773 
L 217.031365 351.571225 
L 219.144882 350.705267 
L 221.258399 356.572795 
L 223.371916 361.16565 
L 225.485433 364.473032 
L 227.59895 363.219649 
L 229.712467 361.360074 
L 231.825984 362.899527 
L 233.939501 353.452289 
L 236.053018 358.87962 
L 238.166535 353.742178 
L 240.280052 356.538064 
L 242.39357 358.026136 
L 244.507087 358.464647 
L 246.620604 357.48046 
L 248.734121 354.34422 
L 250.847638 356.865797 
L 252.961155 355.898505 
L 255.074672 367.512282 
L 257.188189 368.76396 
L 259.301706 372.82134 
L 261.415223 368.044997 
L 263.52874 366.767051 
L 265.642257 365.010981 
L 267.755774 364.620187 
L 269.869291 370.176389 
L 271.982808 369.402565 
L 274.096325 370.036704 
L 276.209843 369.584245 
L 278.32336 368.511627 
L 280.436877 371.314406 
L 282.550394 376.598132 
L 284.663911 373.336801 
L 286.777428 374.205534 
L 288.890945 372.174816 
L 291.004462 370.455124 
L 293.117979 371.370593 
L 295.231496 369.651688 
L 297.345013 369.938317 
L 299.45853 370.783351 
L 301.572047 366.608902 
L 303.685564 363.372622 
L 305.799081 351.276127 
L 307.912598 350.639957 
L 310.026115 344.125906 
L 312.139633 346.374079 
L 314.25315 347.648469 
L 316.366667 349.87468 
L 318.480184 348.949953 
L 320.593701 348.810204 
L 322.707218 353.226326 
L 324.820735 356.54793 
L 326.934252 373.042242 
L 329.047769 374.727338 
L 331.161286 384.736378 
L 333.274803 384.64794 
L 335.38832 384.06918 
L 337.501837 382.829245 
L 339.615354 379.062991 
L 341.728871 378.71532 
L 343.842388 377.19765 
L 348.069423 376.740469 
L 350.18294 374.708669 
L 352.296457 373.881561 
L 356.523491 370.9727 
L 358.637008 371.795561 
L 360.750525 376.441707 
L 362.864042 376.567547 
L 364.977559 377.984665 
L 367.091076 377.958212 
L 369.204593 376.688165 
L 371.31811 378.363331 
L 373.431627 378.960651 
L 375.545144 377.811691 
L 377.658661 379.743528 
L 379.772178 378.457093 
L 381.885696 377.605556 
L 383.999213 378.16386 
L 386.11273 375.963173 
L 388.226247 372.48176 
L 390.339764 370.971367 
L 392.453281 371.651545 
L 394.566798 371.617423 
L 396.680315 374.109748 
L 398.793832 373.431146 
L 400.907349 374.828788 
L 403.020866 375.104454 
L 405.134383 374.632391 
L 407.2479 371.430982 
L 409.361417 375.312229 
L 411.474934 377.784226 
L 413.588451 377.014585 
L 415.701969 377.433396 
L 417.815486 377.409377 
L 419.929003 378.114086 
L 422.04252 378.062397 
L 424.156037 378.662004 
L 426.269554 377.903768 
L 428.383071 383.027391 
L 430.496588 382.432832 
L 434.723622 383.848489 
L 436.837139 382.919637 
L 438.950656 382.953945 
L 443.17769 381.1309 
L 445.291207 379.148847 
L 447.404724 378.880542 
L 449.518241 378.844614 
L 453.745276 379.239002 
L 455.858793 379.209474 
L 457.97231 377.383366 
L 460.085827 377.094835 
L 462.199344 378.383647 
L 464.312861 379.436449 
L 466.426378 381.565708 
L 468.539895 382.344503 
L 470.653412 381.093779 
L 472.766929 381.179872 
L 474.880446 380.807593 
L 476.993963 379.704723 
L 479.10748 382.464833 
L 483.334514 381.468455 
L 485.448031 381.15923 
L 489.675066 380.699167 
L 491.788583 381.824678 
L 493.9021 380.40947 
L 496.015617 380.865849 
L 498.129134 382.040269 
L 500.242651 381.947623 
L 502.356168 382.603801 
L 506.583202 383.240458 
L 508.696719 383.010676 
L 510.810236 383.507155 
L 512.923753 381.852009 
L 515.03727 383.013443 
L 517.150787 382.237095 
L 519.264304 381.813966 
L 525.604856 381.926987 
L 527.718373 381.740719 
L 529.83189 382.221527 
L 531.945407 382.068894 
L 534.058924 382.96761 
L 536.172441 382.319062 
L 538.285958 382.853437 
L 540.399475 383.263073 
L 544.626509 383.485045 
L 550.96706 382.710075 
L 553.080577 382.813965 
L 557.307612 384.878145 
L 559.421129 384.965762 
L 561.534646 383.469688 
L 565.76168 383.114284 
L 569.988714 383.819288 
L 572.102231 383.857766 
L 574.215748 384.076189 
L 580.556299 383.902773 
L 582.669816 385.421065 
L 584.783333 385.430336 
L 586.89685 385.666121 
L 589.010367 385.506883 
L 593.237402 385.4276 
L 597.464436 385.08435 
L 599.577953 384.997091 
L 601.69147 384.195648 
L 603.804987 384.084877 
L 605.918504 383.379265 
L 608.032021 381.877123 
L 610.145538 382.125638 
L 612.259055 381.828907 
L 614.372572 381.823346 
L 616.486089 382.237742 
L 618.599606 382.211949 
L 620.713123 382.370258 
L 622.82664 383.429909 
L 624.940157 383.459175 
L 627.053675 383.848887 
L 629.167192 384.890183 
L 633.394226 385.171224 
L 637.62126 384.65928 
L 639.734777 382.954246 
L 641.848294 381.551504 
L 646.075328 381.479634 
L 648.188845 380.371183 
L 650.302362 380.868373 
L 652.415879 380.157706 
L 654.529396 379.89641 
L 656.642913 377.450886 
L 658.75643 377.801639 
L 660.869948 379.69114 
L 662.983465 380.326753 
L 667.210499 380.088726 
L 669.324016 381.310914 
L 671.437533 381.04555 
L 673.55105 381.196337 
L 675.664567 381.748599 
L 677.778084 384.326101 
L 679.891601 384.308354 
L 682.005118 384.43716 
L 684.118635 385.198779 
L 688.345669 385.438677 
L 690.459186 384.958753 
L 692.572703 385.119606 
L 694.68622 385.517294 
L 696.799738 385.443585 
L 698.913255 385.608839 
L 705.253806 385.50612 
L 709.48084 385.749145 
L 711.594357 386.085316 
L 713.707874 386.241818 
L 715.821391 386.158935 
L 717.934908 385.769294 
L 722.161942 385.697276 
L 724.275459 382.039757 
L 728.502493 381.689209 
L 730.61601 381.394208 
L 732.729528 381.648463 
L 736.956562 381.650782 
L 739.070079 381.798289 
L 741.183596 381.718879 
L 743.297113 381.769517 
L 745.41063 385.034109 
L 747.524147 384.922146 
L 749.637664 383.850258 
L 751.751181 383.668936 
L 760.205249 383.890517 
L 764.432283 383.259729 
L 766.545801 382.388338 
L 768.659318 381.923924 
L 770.772835 383.069508 
L 774.999869 383.19383 
L 777.113386 383.100452 
L 781.34042 383.226465 
L 783.453937 383.706389 
L 785.567454 384.031496 
L 787.680971 385.223881 
L 789.794488 385.191912 
L 791.908005 384.945338 
L 794.021522 385.014658 
L 796.135039 384.813373 
L 798.248556 384.952122 
L 800.362073 384.67693 
L 804.589108 384.785741 
L 806.702625 384.68713 
L 808.816142 383.012989 
L 810.929659 383.667975 
L 817.27021 383.803758 
L 819.383727 383.534159 
L 821.497244 383.698778 
L 823.610761 383.563597 
L 825.724278 383.135548 
L 827.837795 382.919259 
L 829.951312 384.40243 
L 832.064829 384.509767 
L 834.178346 384.478041 
L 838.405381 384.893751 
L 840.518898 385.110092 
L 844.745932 385.117998 
L 851.086483 385.854375 
L 851.086483 385.854375 
" clip-path="url(#p68ba185f12)" style="fill: none; stroke-dasharray: 7.4,3.2; stroke-dashoffset: 0; stroke: #000000; stroke-width: 2"/>
   </g>
   <g id="patch_3">
    <path d="M 47.95 404.12 
L 47.95 10.8 
" style="fill: none; stroke: #000000; stroke-width: 0.8; stroke-linejoin: miter; stroke-linecap: square"/>
   </g>
   <g id="patch_4">
    <path d="M 853.2 404.12 
L 853.2 10.8 
" style="fill: none; stroke: #000000; stroke-width: 0.8; stroke-linejoin: miter; stroke-linecap: square"/>
   </g>
   <g id="patch_5">
    <path d="M 47.95 404.12 
L 853.2 404.12 
" style="fill: none; stroke: #000000; stroke-width: 0.8; stroke-linejoin: miter; stroke-linecap: square"/>
   </g>
   <g id="patch_6">
    <path d="M 47.95 10.8 
L 853.2 10.8 
" style="fill: none; stroke: #000000; stroke-width: 0.8; stroke-linejoin: miter; stroke-linecap: square"/>
   </g>
  </g>
 </g>
 <defs>
  <clipPath id="p68ba185f12">
   <rect x="47.95" y="10.8" width="805.25" height="393.32"/>
  </clipPath>
 </defs>
</svg>
