<?xml version="1.0" encoding="utf-8" standalone="no"?>
<!DOCTYPE svg PUBLIC "-//W3C//DTD SVG 1.1//EN"
  "http://www.w3.org/Graphics/SVG/1.1/DTD/svg11.dtd">
<svg xmlns:xlink="http://www.w3.org/1999/xlink" width="864pt" height="432pt" viewBox="0 0 864 432" xmlns="http://www.w3.org/2000/svg" version="1.1">
 <metadata>
  <rdf:RDF xmlns:dc="http://purl.org/dc/elements/1.1/" xmlns:cc="http://creativecommons.org/ns#" xmlns:rdf="http://www.w3.org/1999/02/22-rdf-syntax-ns#">
   <cc:Work>
    <dc:type rdf:resource="http://purl.org/dc/dcmitype/StillImage"/>
    <dc:date>2024-09-19T08:29:48.926034</dc:date>
    <dc:format>image/svg+xml</dc:format>
    <dc:creator>
     <cc:Agent>
      <dc:title>Matplotlib v3.9.2, https://matplotlib.org/</dc:title>
     </cc:Agent>
    </dc:creator>
   </cc:Work>
  </rdf:RDF>
 </metadata>
 <defs>
  <style type="text/css">*{stroke-linejoin: round; stroke-linecap: butt}</style>
 </defs>
 <g id="figure_1">
  <g id="patch_1">
   <path d="M 0 432 
L 864 432 
L 864 0 
L 0 0 
z
" style="fill: #ffffff"/>
  </g>
  <g id="axes_1">
   <g id="patch_2">
    <path d="M 41.92 404.12 
L 853.2 404.12 
L 853.2 10.8 
L 41.92 10.8 
z
" style="fill: #ffffff"/>
   </g>
   <g id="matplotlib.axis_1">
    <g id="xtick_1">
     <g id="line2d_1">
      <defs>
       <path id="m5bc18c46f4" d="M 0 0 
L 0 3.5 
" style="stroke: #000000; stroke-width: 0.8"/>
      </defs>
      <g>
       <use xlink:href="#m5bc18c46f4" x="203.166175" y="404.12" style="stroke: #000000; stroke-width: 0.8"/>
      </g>
     </g>
     <g id="text_1">
      <!-- 1000 -->
      <g transform="translate(191.12555 418.771563) scale(0.1 -0.1)">
       <defs>
        <path id="DejaVuSansMono-31" d="M 844 531 
L 1825 531 
L 1825 4097 
L 769 3859 
L 769 4434 
L 1819 4666 
L 2450 4666 
L 2450 531 
L 3419 531 
L 3419 0 
L 844 0 
L 844 531 
z
" transform="scale(0.015625)"/>
        <path id="DejaVuSansMono-30" d="M 1509 2344 
Q 1509 2516 1629 2641 
Q 1750 2766 1919 2766 
Q 2094 2766 2219 2641 
Q 2344 2516 2344 2344 
Q 2344 2169 2220 2047 
Q 2097 1925 1919 1925 
Q 1744 1925 1626 2044 
Q 1509 2163 1509 2344 
z
M 1925 4250 
Q 1484 4250 1267 3775 
Q 1050 3300 1050 2328 
Q 1050 1359 1267 884 
Q 1484 409 1925 409 
Q 2369 409 2586 884 
Q 2803 1359 2803 2328 
Q 2803 3300 2586 3775 
Q 2369 4250 1925 4250 
z
M 1925 4750 
Q 2672 4750 3055 4137 
Q 3438 3525 3438 2328 
Q 3438 1134 3055 521 
Q 2672 -91 1925 -91 
Q 1178 -91 797 521 
Q 416 1134 416 2328 
Q 416 3525 797 4137 
Q 1178 4750 1925 4750 
z
" transform="scale(0.015625)"/>
       </defs>
       <use xlink:href="#DejaVuSansMono-31"/>
       <use xlink:href="#DejaVuSansMono-30" x="60.205078"/>
       <use xlink:href="#DejaVuSansMono-30" x="120.410156"/>
       <use xlink:href="#DejaVuSansMono-30" x="180.615234"/>
      </g>
     </g>
    </g>
    <g id="xtick_2">
     <g id="line2d_2">
      <g>
       <use xlink:href="#m5bc18c46f4" x="366.0411" y="404.12" style="stroke: #000000; stroke-width: 0.8"/>
      </g>
     </g>
     <g id="text_2">
      <!-- 2000 -->
      <g transform="translate(354.000475 418.771563) scale(0.1 -0.1)">
       <defs>
        <path id="DejaVuSansMono-32" d="M 1166 531 
L 3309 531 
L 3309 0 
L 475 0 
L 475 531 
Q 1059 1147 1496 1619 
Q 1934 2091 2100 2284 
Q 2413 2666 2522 2902 
Q 2631 3138 2631 3384 
Q 2631 3775 2401 3997 
Q 2172 4219 1772 4219 
Q 1488 4219 1175 4116 
Q 863 4013 513 3803 
L 513 4441 
Q 834 4594 1145 4672 
Q 1456 4750 1759 4750 
Q 2444 4750 2861 4386 
Q 3278 4022 3278 3431 
Q 3278 3131 3139 2831 
Q 3000 2531 2688 2169 
Q 2513 1966 2180 1606 
Q 1847 1247 1166 531 
z
" transform="scale(0.015625)"/>
       </defs>
       <use xlink:href="#DejaVuSansMono-32"/>
       <use xlink:href="#DejaVuSansMono-30" x="60.205078"/>
       <use xlink:href="#DejaVuSansMono-30" x="120.410156"/>
       <use xlink:href="#DejaVuSansMono-30" x="180.615234"/>
      </g>
     </g>
    </g>
    <g id="xtick_3">
     <g id="line2d_3">
      <g>
       <use xlink:href="#m5bc18c46f4" x="528.916025" y="404.12" style="stroke: #000000; stroke-width: 0.8"/>
      </g>
     </g>
     <g id="text_3">
      <!-- 3000 -->
      <g transform="translate(516.8754 418.771563) scale(0.1 -0.1)">
       <defs>
        <path id="DejaVuSansMono-33" d="M 2425 2497 
Q 2884 2375 3128 2064 
Q 3372 1753 3372 1288 
Q 3372 644 2939 276 
Q 2506 -91 1741 -91 
Q 1419 -91 1084 -31 
Q 750 28 428 141 
L 428 769 
Q 747 603 1056 522 
Q 1366 441 1672 441 
Q 2191 441 2469 675 
Q 2747 909 2747 1350 
Q 2747 1756 2469 1995 
Q 2191 2234 1716 2234 
L 1234 2234 
L 1234 2753 
L 1716 2753 
Q 2150 2753 2394 2943 
Q 2638 3134 2638 3475 
Q 2638 3834 2411 4026 
Q 2184 4219 1766 4219 
Q 1488 4219 1191 4156 
Q 894 4094 569 3969 
L 569 4550 
Q 947 4650 1242 4700 
Q 1538 4750 1766 4750 
Q 2447 4750 2855 4408 
Q 3263 4066 3263 3500 
Q 3263 3116 3048 2859 
Q 2834 2603 2425 2497 
z
" transform="scale(0.015625)"/>
       </defs>
       <use xlink:href="#DejaVuSansMono-33"/>
       <use xlink:href="#DejaVuSansMono-30" x="60.205078"/>
       <use xlink:href="#DejaVuSansMono-30" x="120.410156"/>
       <use xlink:href="#DejaVuSansMono-30" x="180.615234"/>
      </g>
     </g>
    </g>
    <g id="xtick_4">
     <g id="line2d_4">
      <g>
       <use xlink:href="#m5bc18c46f4" x="691.79095" y="404.12" style="stroke: #000000; stroke-width: 0.8"/>
      </g>
     </g>
     <g id="text_4">
      <!-- 4000 -->
      <g transform="translate(679.750325 418.771563) scale(0.1 -0.1)">
       <defs>
        <path id="DejaVuSansMono-34" d="M 2297 4091 
L 825 1625 
L 2297 1625 
L 2297 4091 
z
M 2194 4666 
L 2925 4666 
L 2925 1625 
L 3547 1625 
L 3547 1113 
L 2925 1113 
L 2925 0 
L 2297 0 
L 2297 1113 
L 319 1113 
L 319 1709 
L 2194 4666 
z
" transform="scale(0.015625)"/>
       </defs>
       <use xlink:href="#DejaVuSansMono-34"/>
       <use xlink:href="#DejaVuSansMono-30" x="60.205078"/>
       <use xlink:href="#DejaVuSansMono-30" x="120.410156"/>
       <use xlink:href="#DejaVuSansMono-30" x="180.615234"/>
      </g>
     </g>
    </g>
   </g>
   <g id="matplotlib.axis_2">
    <g id="ytick_1">
     <g id="line2d_5">
      <defs>
       <path id="m5f78f7e94b" d="M 0 0 
L -3.5 0 
" style="stroke: #000000; stroke-width: 0.8"/>
      </defs>
      <g>
       <use xlink:href="#m5f78f7e94b" x="41.92" y="386.242654" style="stroke: #000000; stroke-width: 0.8"/>
      </g>
     </g>
     <g id="text_5">
      <!-- 0.00 -->
      <g transform="translate(10.83875 390.068435) scale(0.1 -0.1)">
       <defs>
        <path id="DejaVuSansMono-2e" d="M 1528 953 
L 2316 953 
L 2316 0 
L 1528 0 
L 1528 953 
z
" transform="scale(0.015625)"/>
       </defs>
       <use xlink:href="#DejaVuSansMono-30"/>
       <use xlink:href="#DejaVuSansMono-2e" x="60.205078"/>
       <use xlink:href="#DejaVuSansMono-30" x="120.410156"/>
       <use xlink:href="#DejaVuSansMono-30" x="180.615234"/>
      </g>
     </g>
    </g>
    <g id="ytick_2">
     <g id="line2d_6">
      <g>
       <use xlink:href="#m5f78f7e94b" x="41.92" y="321.976269" style="stroke: #000000; stroke-width: 0.8"/>
      </g>
     </g>
     <g id="text_6">
      <!-- 0.02 -->
      <g transform="translate(10.83875 325.80205) scale(0.1 -0.1)">
       <use xlink:href="#DejaVuSansMono-30"/>
       <use xlink:href="#DejaVuSansMono-2e" x="60.205078"/>
       <use xlink:href="#DejaVuSansMono-30" x="120.410156"/>
       <use xlink:href="#DejaVuSansMono-32" x="180.615234"/>
      </g>
     </g>
    </g>
    <g id="ytick_3">
     <g id="line2d_7">
      <g>
       <use xlink:href="#m5f78f7e94b" x="41.92" y="257.709885" style="stroke: #000000; stroke-width: 0.8"/>
      </g>
     </g>
     <g id="text_7">
      <!-- 0.04 -->
      <g transform="translate(10.83875 261.535666) scale(0.1 -0.1)">
       <use xlink:href="#DejaVuSansMono-30"/>
       <use xlink:href="#DejaVuSansMono-2e" x="60.205078"/>
       <use xlink:href="#DejaVuSansMono-30" x="120.410156"/>
       <use xlink:href="#DejaVuSansMono-34" x="180.615234"/>
      </g>
     </g>
    </g>
    <g id="ytick_4">
     <g id="line2d_8">
      <g>
       <use xlink:href="#m5f78f7e94b" x="41.92" y="193.4435" style="stroke: #000000; stroke-width: 0.8"/>
      </g>
     </g>
     <g id="text_8">
      <!-- 0.06 -->
      <g transform="translate(10.83875 197.269282) scale(0.1 -0.1)">
       <defs>
        <path id="DejaVuSansMono-36" d="M 3097 4563 
L 3097 3981 
Q 2900 4097 2678 4158 
Q 2456 4219 2216 4219 
Q 1616 4219 1306 3767 
Q 997 3316 997 2438 
Q 1147 2750 1412 2917 
Q 1678 3084 2022 3084 
Q 2697 3084 3067 2670 
Q 3438 2256 3438 1497 
Q 3438 741 3056 325 
Q 2675 -91 1984 -91 
Q 1172 -91 794 492 
Q 416 1075 416 2328 
Q 416 3509 870 4129 
Q 1325 4750 2188 4750 
Q 2419 4750 2650 4701 
Q 2881 4653 3097 4563 
z
M 1972 2591 
Q 1569 2591 1337 2300 
Q 1106 2009 1106 1497 
Q 1106 984 1337 693 
Q 1569 403 1972 403 
Q 2391 403 2603 679 
Q 2816 956 2816 1497 
Q 2816 2041 2603 2316 
Q 2391 2591 1972 2591 
z
" transform="scale(0.015625)"/>
       </defs>
       <use xlink:href="#DejaVuSansMono-30"/>
       <use xlink:href="#DejaVuSansMono-2e" x="60.205078"/>
       <use xlink:href="#DejaVuSansMono-30" x="120.410156"/>
       <use xlink:href="#DejaVuSansMono-36" x="180.615234"/>
      </g>
     </g>
    </g>
    <g id="ytick_5">
     <g id="line2d_9">
      <g>
       <use xlink:href="#m5f78f7e94b" x="41.92" y="129.177116" style="stroke: #000000; stroke-width: 0.8"/>
      </g>
     </g>
     <g id="text_9">
      <!-- 0.08 -->
      <g transform="translate(10.83875 133.002897) scale(0.1 -0.1)">
       <defs>
        <path id="DejaVuSansMono-38" d="M 1925 2216 
Q 1503 2216 1273 1980 
Q 1044 1744 1044 1313 
Q 1044 881 1276 642 
Q 1509 403 1925 403 
Q 2350 403 2579 639 
Q 2809 875 2809 1313 
Q 2809 1741 2576 1978 
Q 2344 2216 1925 2216 
z
M 1375 2478 
Q 972 2581 745 2862 
Q 519 3144 519 3541 
Q 519 4097 897 4423 
Q 1275 4750 1925 4750 
Q 2578 4750 2956 4423 
Q 3334 4097 3334 3541 
Q 3334 3144 3107 2862 
Q 2881 2581 2478 2478 
Q 2947 2375 3195 2062 
Q 3444 1750 3444 1253 
Q 3444 622 3041 265 
Q 2638 -91 1925 -91 
Q 1213 -91 811 264 
Q 409 619 409 1247 
Q 409 1747 657 2061 
Q 906 2375 1375 2478 
z
M 1147 3481 
Q 1147 3106 1347 2909 
Q 1547 2713 1925 2713 
Q 2306 2713 2506 2909 
Q 2706 3106 2706 3481 
Q 2706 3863 2507 4063 
Q 2309 4263 1925 4263 
Q 1547 4263 1347 4061 
Q 1147 3859 1147 3481 
z
" transform="scale(0.015625)"/>
       </defs>
       <use xlink:href="#DejaVuSansMono-30"/>
       <use xlink:href="#DejaVuSansMono-2e" x="60.205078"/>
       <use xlink:href="#DejaVuSansMono-30" x="120.410156"/>
       <use xlink:href="#DejaVuSansMono-38" x="180.615234"/>
      </g>
     </g>
    </g>
    <g id="ytick_6">
     <g id="line2d_10">
      <g>
       <use xlink:href="#m5f78f7e94b" x="41.92" y="64.910731" style="stroke: #000000; stroke-width: 0.8"/>
      </g>
     </g>
     <g id="text_10">
      <!-- 0.10 -->
      <g transform="translate(10.83875 68.736513) scale(0.1 -0.1)">
       <use xlink:href="#DejaVuSansMono-30"/>
       <use xlink:href="#DejaVuSansMono-2e" x="60.205078"/>
       <use xlink:href="#DejaVuSansMono-31" x="120.410156"/>
       <use xlink:href="#DejaVuSansMono-30" x="180.615234"/>
      </g>
     </g>
    </g>
   </g>
   <g id="line2d_11">
    <path d="M 41.757125 85.240285 
L 42.082875 102.153179 
L 42.24575 115.383144 
L 42.408625 115.780555 
L 42.5715 130.427383 
L 42.89725 178.557172 
L 43.060124 190.051983 
L 43.222999 193.484809 
L 43.385874 189.277186 
L 43.548749 175.707797 
L 43.874499 176.972002 
L 44.037374 170.890232 
L 44.200249 170.436741 
L 44.525999 162.8757 
L 44.688874 148.01259 
L 44.851749 147.989359 
L 45.014624 141.510473 
L 45.177498 155.608005 
L 45.503248 143.29737 
L 45.666123 149.92337 
L 45.828998 148.440105 
L 45.991873 149.565806 
L 46.154748 149.612762 
L 46.317623 161.992038 
L 46.480498 161.824837 
L 46.643373 174.929933 
L 46.806248 173.248677 
L 46.969123 183.041333 
L 47.131998 179.299301 
L 47.294873 179.960805 
L 47.457747 182.16216 
L 47.946372 198.749098 
L 48.109247 200.798143 
L 48.272122 195.133081 
L 48.597872 179.741561 
L 48.760747 184.261323 
L 48.923622 180.014497 
L 49.086497 179.47856 
L 49.249372 180.341233 
L 49.412247 173.066948 
L 49.575121 171.074709 
L 49.737996 172.254819 
L 49.900871 175.18672 
L 50.063746 187.611458 
L 50.226621 184.516901 
L 50.552371 190.253076 
L 50.715246 188.767407 
L 50.878121 184.169593 
L 51.203871 194.948139 
L 51.692495 191.441756 
L 51.85537 195.540797 
L 52.18112 196.810484 
L 52.343995 200.540598 
L 52.50687 201.099993 
L 52.669745 195.897742 
L 52.83262 196.110578 
L 52.995495 193.798974 
L 53.321245 199.215566 
L 53.48412 204.209001 
L 53.646995 200.473018 
L 53.80987 201.429155 
L 53.972744 201.31451 
L 54.135619 202.954308 
L 54.298494 201.695025 
L 54.461369 201.583522 
L 54.624244 198.572737 
L 54.787119 202.547059 
L 54.949994 201.667931 
L 55.112869 196.466195 
L 55.275744 199.741414 
L 55.601494 201.286973 
L 55.764369 197.007785 
L 55.927244 201.168877 
L 56.090118 195.687669 
L 56.252993 202.647546 
L 56.578743 204.156001 
L 56.741618 211.639846 
L 56.904493 213.324292 
L 57.230243 205.981579 
L 57.555993 219.196314 
L 57.718868 225.099705 
L 57.881743 226.889689 
L 58.044618 226.837919 
L 58.207492 226.990352 
L 58.370367 226.130651 
L 58.533242 227.241257 
L 58.696117 235.690438 
L 58.858992 222.556775 
L 59.184742 221.75832 
L 59.673367 227.972663 
L 59.836242 231.896349 
L 59.999117 231.54622 
L 60.324866 236.800911 
L 60.487741 258.052831 
L 60.650616 262.429047 
L 60.813491 254.509847 
L 61.302116 258.88784 
L 61.464991 261.623753 
L 61.790741 269.072741 
L 61.953616 270.505828 
L 62.116491 269.842212 
L 62.279366 271.938913 
L 62.442241 286.07482 
L 62.76799 290.920549 
L 62.930865 293.760201 
L 63.09374 293.676513 
L 63.256615 296.400608 
L 63.41949 292.242137 
L 63.582365 293.9003 
L 63.908115 299.093098 
L 64.885364 312.877347 
L 65.048239 320.960556 
L 65.536864 328.146694 
L 65.699739 328.113188 
L 65.862614 328.120456 
L 66.025489 323.888076 
L 66.514114 329.314881 
L 66.839863 332.727972 
L 67.002738 332.949069 
L 67.328488 336.699744 
L 67.817113 349.092435 
L 67.979988 348.614111 
L 68.142863 351.05792 
L 68.305738 347.728882 
L 68.468613 348.631837 
L 68.957238 353.340268 
L 69.120112 353.233007 
L 69.282987 352.080766 
L 69.771612 357.297158 
L 69.934487 362.002361 
L 70.097362 362.741729 
L 70.260237 364.592858 
L 70.423112 364.711754 
L 70.585987 365.381131 
L 71.074612 369.80036 
L 71.400361 370.485924 
L 71.563236 370.407273 
L 71.726111 371.001088 
L 71.888986 370.64658 
L 72.377611 371.877163 
L 72.540486 370.533764 
L 72.866236 370.835947 
L 73.191986 371.99528 
L 73.35486 371.389266 
L 73.843485 373.818032 
L 74.00636 374.399885 
L 74.169235 376.031571 
L 74.33211 376.474763 
L 74.494985 376.446355 
L 74.65786 376.713408 
L 74.820735 376.026913 
L 74.98361 377.039608 
L 75.30936 376.330126 
L 75.797984 375.708627 
L 75.960859 375.834915 
L 76.123734 376.152425 
L 76.286609 376.100937 
L 76.449484 377.475433 
L 76.612359 377.137594 
L 77.100984 377.660135 
L 77.263859 377.472095 
L 77.426734 377.550462 
L 77.589609 377.289129 
L 77.752483 377.36079 
L 78.078233 376.882955 
L 78.241108 377.513741 
L 78.403983 377.257575 
L 78.566858 377.310942 
L 78.892608 376.704488 
L 79.055483 376.746783 
L 79.218358 376.6089 
L 79.706983 377.436753 
L 79.869857 377.417516 
L 80.032732 378.049335 
L 80.195607 377.930961 
L 80.847107 379.357298 
L 81.172857 378.791141 
L 81.335732 379.17663 
L 81.987231 378.522182 
L 82.312981 379.124046 
L 82.475856 379.082064 
L 82.801606 379.529958 
L 82.964481 379.371325 
L 83.453106 380.238223 
L 83.941731 379.24647 
L 84.104606 379.59384 
L 84.26748 379.636158 
L 84.430355 379.88963 
L 84.756105 379.249263 
L 84.91898 379.192562 
L 85.57048 380.587298 
L 85.733355 380.574509 
L 86.059105 380.171969 
L 86.384854 381.034416 
L 86.547729 381.259332 
L 86.710604 381.272824 
L 87.036354 381.057766 
L 87.362104 381.048567 
L 87.850729 381.968399 
L 88.176479 382.374411 
L 88.339354 382.557185 
L 88.502228 382.501465 
L 88.990853 383.022111 
L 89.153728 383.18794 
L 89.316603 383.009538 
L 89.479478 383.089833 
L 89.805228 382.655189 
L 89.968103 382.618799 
L 90.130978 383.027505 
L 90.456728 382.527714 
L 90.619602 382.272822 
L 91.271102 383.014224 
L 91.433977 382.814241 
L 91.596852 382.824649 
L 91.759727 382.721167 
L 92.085477 383.350093 
L 92.248352 383.642804 
L 92.899851 383.293214 
L 93.062726 383.682521 
L 93.225601 383.283571 
L 93.877101 383.523574 
L 94.202851 383.405742 
L 94.365726 383.674875 
L 94.691476 383.52242 
L 95.017225 384.121665 
L 95.342975 384.161493 
L 95.8316 384.689983 
L 95.994475 384.488001 
L 96.4831 384.632958 
L 96.645975 384.433806 
L 96.971725 384.540045 
L 97.460349 384.445195 
L 97.786099 384.793322 
L 98.111849 384.908071 
L 98.274724 385.129151 
L 98.437599 382.953637 
L 98.926224 382.621755 
L 99.089099 382.551531 
L 99.251973 382.144565 
L 99.414848 382.111147 
L 99.740598 381.782356 
L 99.903473 381.795254 
L 100.066348 383.940468 
L 100.229223 383.981527 
L 101.043598 384.89071 
L 101.206473 384.832623 
L 101.532222 384.944106 
L 102.509472 385.087776 
L 102.672347 385.17011 
L 102.835222 385.408979 
L 103.323847 385.464477 
L 103.649596 385.581604 
L 104.138221 385.672042 
L 104.301096 385.654277 
L 104.463971 385.47871 
L 104.626846 385.597994 
L 105.115471 385.598359 
L 107.06997 385.686222 
L 108.210094 385.563147 
L 108.861594 385.687617 
L 109.350219 385.828796 
L 109.675969 385.777884 
L 110.001719 385.78714 
L 110.978968 385.711211 
L 111.141843 385.767151 
L 111.793343 385.574195 
L 111.956218 385.60434 
L 112.119093 385.353566 
L 112.444842 385.30625 
L 112.770592 385.21572 
L 113.422092 385.334037 
L 113.584967 385.261769 
L 113.747842 385.478269 
L 114.073592 385.551301 
L 114.236467 385.623661 
L 114.562216 385.584815 
L 114.725091 385.586319 
L 114.887966 385.449903 
L 115.539466 385.607563 
L 116.028091 385.664021 
L 116.67959 385.542411 
L 117.00534 385.211879 
L 117.493965 385.151951 
L 117.819715 384.631905 
L 118.145465 384.690338 
L 118.63409 385.230607 
L 119.122714 385.335339 
L 119.448464 385.821578 
L 119.774214 385.63585 
L 120.099964 385.057211 
L 120.262839 385.05569 
L 120.588589 384.523485 
L 120.751464 384.117546 
L 121.402963 384.327161 
L 121.728713 384.8819 
L 121.891588 384.822754 
L 122.217338 385.288664 
L 122.380213 385.746112 
L 123.194587 385.628519 
L 123.357462 385.267392 
L 123.846087 385.319904 
L 124.171837 385.367228 
L 124.497587 385.064831 
L 124.823337 385.115039 
L 124.986212 385.428792 
L 125.311961 385.355483 
L 125.474836 385.373813 
L 125.800586 385.246854 
L 126.126336 385.582174 
L 127.59221 385.83461 
L 128.732335 385.758456 
L 129.383835 385.721218 
L 129.872459 385.722072 
L 130.035334 385.450592 
L 130.361084 385.461308 
L 130.686834 385.353152 
L 131.012584 385.545465 
L 131.338334 385.522032 
L 131.501209 385.365147 
L 131.664084 385.61208 
L 131.989833 385.518113 
L 132.315583 385.562681 
L 132.478458 385.552579 
L 132.641333 385.358047 
L 134.432957 385.812652 
L 135.573082 385.501916 
L 135.735957 385.497241 
L 135.898832 385.373876 
L 136.713206 385.658751 
L 137.364706 385.544698 
L 137.690456 385.672069 
L 138.667705 385.723443 
L 138.83058 385.235796 
L 139.15633 385.188704 
L 139.48208 384.815159 
L 140.296455 384.892155 
L 140.459329 385.359325 
L 140.785079 385.400015 
L 141.110829 385.811183 
L 141.436579 385.872187 
L 141.599454 385.366863 
L 141.925204 385.436345 
L 142.250954 385.488481 
L 142.576703 385.410514 
L 142.739578 385.156627 
L 143.065328 385.185225 
L 143.228203 385.653256 
L 144.205453 385.468357 
L 144.368328 385.71992 
L 145.019827 385.791701 
L 145.345577 385.830116 
L 145.508452 385.210204 
L 146.159952 385.335111 
L 146.485702 385.279392 
L 146.648577 384.655016 
L 146.974326 384.623273 
L 147.137201 385.346837 
L 148.114451 385.294492 
L 148.277326 385.90458 
L 148.440201 385.930613 
L 148.603076 385.623996 
L 150.06895 385.734386 
L 150.231825 386.04337 
L 153.489323 385.994732 
L 153.652198 385.854524 
L 153.977948 385.804927 
L 154.792323 385.805901 
L 155.118073 385.813626 
L 155.280948 385.924075 
L 155.443823 385.89229 
L 155.769572 386.021811 
L 155.932447 386.015721 
L 156.258197 385.772281 
L 157.235447 385.830568 
L 157.398322 385.709186 
L 157.561197 385.743873 
L 157.886946 385.918028 
L 158.701321 385.83939 
L 158.864196 385.799319 
L 159.027071 385.909532 
L 159.352821 385.820414 
L 160.33007 385.791842 
L 160.492945 385.775362 
L 160.818695 385.515123 
L 162.284569 385.704544 
L 162.447444 385.906878 
L 163.261819 385.831724 
L 163.587569 385.905562 
L 163.913319 386.053924 
L 165.216318 386.05467 
L 165.867818 386.04669 
L 167.496567 385.960881 
L 168.310942 385.894601 
L 168.636691 385.923473 
L 168.799566 385.667075 
L 169.613941 385.789971 
L 169.939691 385.759906 
L 170.265441 385.632926 
L 170.428316 385.868552 
L 170.91694 385.784943 
L 171.24269 385.647373 
L 171.89419 385.656971 
L 172.057065 385.275064 
L 172.54569 385.303388 
L 172.871439 385.393122 
L 173.360064 385.274941 
L 173.522939 385.086551 
L 173.685814 385.50781 
L 174.011564 385.475114 
L 174.337314 385.540152 
L 174.663064 385.49883 
L 175.151688 385.875046 
L 175.314563 385.220098 
L 175.640313 385.285068 
L 176.780438 385.116428 
L 176.943313 385.740578 
L 177.431937 385.6544 
L 178.083437 385.933221 
L 178.246312 385.485611 
L 178.734937 385.60079 
L 179.060687 385.279407 
L 179.386436 385.252339 
L 179.549311 385.096124 
L 179.712186 385.100775 
L 179.875061 385.544828 
L 180.363686 385.588261 
L 180.689436 385.953731 
L 181.992435 385.957652 
L 182.318185 385.743386 
L 183.13256 385.735203 
L 183.45831 385.863533 
L 183.621185 385.838675 
L 183.946934 386.029356 
L 184.761309 386.050837 
L 185.249934 386.043385 
L 185.738559 386.018697 
L 185.901433 385.914454 
L 187.855933 386.17247 
L 195.022429 386.023161 
L 195.673929 386.084189 
L 195.999679 386.027361 
L 197.628428 386.12723 
L 198.117053 386.029396 
L 198.279928 385.624031 
L 198.768552 385.552461 
L 198.931427 385.275446 
L 199.257177 385.225913 
L 199.582927 385.045151 
L 199.745802 384.983182 
L 199.908677 385.384129 
L 200.397302 385.365803 
L 200.560177 385.611482 
L 200.885927 385.610658 
L 201.211676 385.900676 
L 201.537426 385.931927 
L 202.351801 385.976562 
L 202.677551 386.039721 
L 202.840426 386.029691 
L 203.003301 385.857663 
L 203.6548 385.86463 
L 204.794925 385.917201 
L 205.120675 385.966725 
L 205.935049 385.861654 
L 206.260799 385.941915 
L 206.749424 385.901551 
L 207.400924 385.981437 
L 207.563798 384.630168 
L 207.889548 384.64659 
L 208.052423 384.296492 
L 209.029673 384.217089 
L 209.192548 384.965423 
L 209.355423 384.956939 
L 209.518298 384.799073 
L 209.681172 385.220594 
L 210.658422 385.277908 
L 210.821297 385.941879 
L 210.984172 385.813301 
L 211.147047 385.969066 
L 211.472797 385.893781 
L 212.450046 385.91048 
L 212.612921 386.051616 
L 213.101546 386.088573 
L 213.590171 386.096126 
L 213.91592 386.052388 
L 216.359044 386.008975 
L 216.521919 385.967682 
L 216.684794 385.790492 
L 217.987794 385.71202 
L 218.150669 385.46522 
L 218.476418 385.623591 
L 219.127918 385.680019 
L 219.616543 385.729726 
L 219.779418 386.016437 
L 219.942293 386.057607 
L 220.105168 385.909932 
L 221.571042 385.963204 
L 221.896792 386.11098 
L 223.362666 386.043495 
L 223.851291 385.733297 
L 224.014166 385.316112 
L 224.991415 385.461923 
L 225.48004 385.73428 
L 225.642915 386.142061 
L 226.13154 386.122572 
L 226.45729 385.979557 
L 227.108789 385.926668 
L 227.271664 385.554789 
L 227.760289 385.564162 
L 227.923164 385.68702 
L 228.248914 385.671222 
L 228.737539 385.689241 
L 228.900414 386.041294 
L 230.854913 386.030336 
L 231.343537 385.887337 
L 232.483662 385.923178 
L 232.646537 386.022954 
L 232.809412 385.97117 
L 232.972287 386.090713 
L 233.135162 385.936569 
L 233.623786 385.95095 
L 233.949536 385.888414 
L 234.763911 386.057028 
L 235.089661 385.771868 
L 235.74116 385.804616 
L 236.229785 385.783429 
L 236.39266 385.478585 
L 236.71841 385.72474 
L 237.858534 385.801704 
L 238.021409 386.111345 
L 238.510034 386.033254 
L 239.324409 386.010832 
L 240.301658 386.065994 
L 240.953158 386.011144 
L 241.116033 386.017378 
L 241.278908 385.845867 
L 242.744782 385.951584 
L 242.907657 386.114828 
L 243.070532 385.983448 
L 244.047782 386.055665 
L 244.536406 385.99264 
L 244.862156 386.118909 
L 249.422654 386.133798 
L 250.074154 386.151184 
L 253.168777 385.945177 
L 253.494527 385.922661 
L 254.308902 386.066538 
L 254.634652 385.906777 
L 254.797527 385.995793 
L 254.960402 385.456586 
L 255.123276 385.453315 
L 255.286151 384.548081 
L 256.263401 384.56839 
L 256.426276 384.287593 
L 256.589151 384.876737 
L 256.752026 384.84412 
L 256.914901 385.233274 
L 257.403525 385.17544 
L 257.729275 385.142255 
L 257.89215 385.188592 
L 258.055025 384.584548 
L 258.380775 384.602523 
L 258.54365 385.080087 
L 259.032275 384.94666 
L 259.19515 384.272505 
L 259.520899 384.19231 
L 259.683774 385.055091 
L 260.009524 384.960978 
L 260.498149 384.994593 
L 260.661024 385.061009 
L 260.823899 385.728451 
L 262.941273 386.027141 
L 263.592773 385.941352 
L 264.081397 385.953874 
L 264.407147 386.034849 
L 264.570022 386.001467 
L 264.732897 385.809287 
L 266.035896 385.829162 
L 266.198771 385.845701 
L 266.524521 386.152409 
L 266.687396 386.149329 
L 266.850271 385.976468 
L 267.501771 385.94321 
L 267.990396 385.915588 
L 268.316145 385.797526 
L 268.967645 385.871929 
L 269.619145 385.847962 
L 272.062269 386.155846 
L 272.388018 386.071017 
L 273.202393 386.112931 
L 274.505392 385.973884 
L 274.994017 385.904421 
L 275.645517 385.952584 
L 275.971267 386.063128 
L 276.459892 386.104994 
L 277.762891 386.160194 
L 278.088641 386.03765 
L 279.39164 386.018139 
L 279.71739 386.142645 
L 280.206015 386.096129 
L 280.857515 386.132785 
L 281.509014 386.144037 
L 281.671889 385.363794 
L 282.160514 385.334191 
L 282.323389 384.851541 
L 283.137764 384.864134 
L 283.300638 385.5699 
L 283.789263 385.564116 
L 283.952138 386.05391 
L 285.418012 386.038031 
L 285.580887 385.996878 
L 285.743762 385.530642 
L 286.721012 385.560938 
L 287.209637 385.707865 
L 287.698261 384.282264 
L 288.186886 384.233957 
L 288.349761 384.088386 
L 288.675511 381.576772 
L 288.838386 381.563806 
L 289.164136 383.334234 
L 289.65276 383.269964 
L 289.97851 383.464932 
L 290.30426 385.915217 
L 290.63001 385.995534 
L 290.95576 386.008268 
L 291.118635 385.479343 
L 291.933009 385.481779 
L 292.095884 384.533888 
L 292.584509 384.564254 
L 292.747384 385.115748 
L 293.398884 385.086375 
L 293.561759 384.997685 
L 293.724634 385.823771 
L 294.050383 385.798142 
L 294.701883 385.707811 
L 295.027633 385.72475 
L 295.679133 386.019931 
L 297.796507 386.147083 
L 297.959382 385.896774 
L 298.610881 385.868068 
L 299.425256 385.897362 
L 299.588131 386.151651 
L 300.239631 386.204401 
L 301.054005 386.165137 
L 301.379755 385.707618 
L 302.031255 385.68193 
L 302.357005 385.578089 
L 302.51988 385.595901 
L 302.682754 385.426788 
L 303.008504 385.886923 
L 303.660004 385.943826 
L 303.985754 386.03494 
L 304.474379 386.00464 
L 304.800128 385.871802 
L 305.125878 385.785973 
L 305.777378 385.782377 
L 306.103128 385.984229 
L 306.428878 386.118339 
L 306.591753 386.187847 
L 306.917503 386.061938 
L 309.360626 385.93797 
L 309.523501 385.655921 
L 309.849251 385.634031 
L 310.175001 385.72346 
L 310.663626 385.691283 
L 310.826501 385.827252 
L 310.989376 385.747199 
L 311.152251 386.034354 
L 312.618125 386.044151 
L 312.781 385.542108 
L 313.432499 385.538714 
L 314.246874 385.430622 
L 314.409749 385.930297 
L 315.224124 385.977171 
L 315.549874 385.995484 
L 315.712748 385.74209 
L 317.178623 385.8859 
L 317.341498 386.152847 
L 317.992997 386.178941 
L 318.644497 386.125121 
L 319.133122 386.100184 
L 319.458872 386.018308 
L 321.739121 386.140373 
L 322.064871 386.188959 
L 323.856495 386.047131 
L 324.01937 385.975358 
L 324.345119 386.07254 
L 324.670869 386.006133 
L 324.996619 385.899221 
L 326.136744 385.997067 
L 326.788243 386.092877 
L 328.742742 386.088119 
L 328.905617 385.792588 
L 330.208617 385.517109 
L 330.371492 385.512472 
L 330.534367 385.802178 
L 331.837366 386.067325 
L 332.814616 386.024981 
L 333.140365 385.901258 
L 336.234989 385.99054 
L 336.560739 386.127295 
L 343.564361 386.156618 
L 343.89011 386.044207 
L 345.681735 386.110524 
L 346.007484 386.185691 
L 349.590733 386.101838 
L 349.916483 386.116176 
L 351.382357 386.093317 
L 351.545232 386.135996 
L 351.708107 385.8339 
L 352.685356 385.800415 
L 352.848231 385.27676 
L 353.173981 385.310643 
L 353.336856 385.611227 
L 353.825481 385.597172 
L 354.151231 385.495187 
L 354.314106 385.462545 
L 354.476981 385.924203 
L 358.385979 386.031545 
L 358.711729 386.178045 
L 362.946477 386.085791 
L 363.435101 386.005305 
L 365.226726 386.110059 
L 365.878225 386.020842 
L 366.36685 386.003951 
L 366.855475 385.925623 
L 367.3441 386.023275 
L 367.995599 386.032789 
L 369.135724 386.150327 
L 369.461474 386.099496 
L 371.090223 386.174366 
L 372.067472 386.145874 
L 372.230347 385.960974 
L 372.393222 385.56319 
L 373.859097 385.612258 
L 374.021971 385.749924 
L 374.510596 385.675178 
L 375.487846 385.793931 
L 375.813596 386.111565 
L 377.93097 386.190035 
L 378.25672 386.072947 
L 378.419594 386.078604 
L 378.745344 385.952498 
L 380.048344 386.0132 
L 380.211219 386.142495 
L 381.025593 386.113717 
L 382.328593 386.168663 
L 383.305842 386.094402 
L 386.074716 386.184612 
L 386.400466 386.186252 
L 386.563341 385.910042 
L 388.029215 385.876599 
L 388.19209 386.078622 
L 388.51784 386.016385 
L 392.752588 386.179123 
L 392.915463 386.11107 
L 393.078338 385.637962 
L 393.566962 385.691817 
L 394.381337 385.539768 
L 394.544212 385.26146 
L 394.707087 385.733882 
L 395.521462 385.093057 
L 396.010086 385.170279 
L 396.172961 385.516341 
L 396.335836 385.516051 
L 397.313086 386.195557 
L 398.12746 386.090032 
L 399.593335 386.047753 
L 401.059209 386.087013 
L 402.525083 386.126066 
L 403.502333 385.883496 
L 404.316707 385.895436 
L 404.968207 385.889886 
L 405.131082 385.938607 
L 405.456832 385.738708 
L 405.782582 385.740684 
L 406.108332 385.827129 
L 406.922706 386.010318 
L 407.248456 386.10007 
L 407.737081 386.120596 
L 407.899956 385.902643 
L 409.36583 385.900886 
L 409.528705 386.164054 
L 409.69158 386.095177 
L 409.854455 385.691898 
L 411.320329 385.74776 
L 411.483204 386.152661 
L 412.786204 386.097275 
L 412.949078 385.931559 
L 414.414953 385.918093 
L 414.577828 386.083636 
L 415.229327 386.186491 
L 415.880827 386.198928 
L 416.043702 385.753595 
L 416.369452 385.594144 
L 417.509576 385.543376 
L 417.672451 386.006827 
L 417.998201 386.156443 
L 419.464075 386.158296 
L 419.62695 384.896571 
L 419.9527 384.890253 
L 420.115575 384.732525 
L 420.6042 384.759482 
L 420.767075 384.255598 
L 421.092825 384.257114 
L 421.2557 385.527551 
L 421.58145 385.450639 
L 421.744324 385.646232 
L 422.232949 385.632807 
L 422.395824 386.135491 
L 423.535949 386.081922 
L 423.861698 385.975463 
L 426.304822 385.975656 
L 426.467697 386.087306 
L 426.630572 385.941991 
L 427.770697 385.983145 
L 428.096446 385.968789 
L 428.422196 386.111023 
L 433.471319 386.203167 
L 434.285694 386.1814 
L 434.611443 386.049414 
L 435.262943 385.98524 
L 435.425818 385.678839 
L 436.891692 385.91013 
L 437.054567 386.220081 
L 437.380317 386.22304 
L 437.706067 386.105977 
L 438.357567 386.074796 
L 438.520442 385.676676 
L 439.497691 385.501042 
L 439.823441 385.02127 
L 439.986316 385.029279 
L 440.149191 385.433016 
L 440.800691 385.525129 
L 441.12644 385.62279 
L 441.289315 385.428739 
L 441.45219 385.544556 
L 442.266565 385.459188 
L 442.75519 385.514611 
L 442.918065 386.061676 
L 446.827063 385.973401 
L 446.989938 386.142562 
L 447.967187 386.141487 
L 448.130062 385.95776 
L 449.921686 386.107124 
L 450.247436 386.184617 
L 451.224686 386.218351 
L 453.01631 386.213127 
L 453.179185 386.034005 
L 454.645059 385.97628 
L 454.807934 386.155024 
L 455.459434 386.133757 
L 455.622309 385.942104 
L 455.948059 385.931341 
L 456.110934 385.599204 
L 456.925308 385.556717 
L 457.088183 385.581245 
L 457.251058 385.783696 
L 457.576808 385.139471 
L 457.739683 385.538096 
L 458.879807 385.483438 
L 459.205557 386.093242 
L 460.508557 385.974882 
L 460.997181 385.803065 
L 461.811556 385.781691 
L 461.974431 385.283431 
L 462.625931 385.616593 
L 462.95168 385.686739 
L 463.440305 385.720121 
L 463.60318 386.217944 
L 467.023554 386.066712 
L 467.186428 385.698894 
L 468.326553 385.758333 
L 468.489428 385.833445 
L 468.652303 385.651221 
L 468.815178 386.023739 
L 470.118177 385.919778 
L 470.281052 386.105114 
L 471.421176 386.110266 
L 471.746926 386.218098 
L 472.887051 386.168192 
L 473.049926 385.58466 
L 474.5158 385.468087 
L 474.678675 386.048785 
L 476.470299 386.137129 
L 476.633174 386.202301 
L 476.796049 385.783197 
L 477.773299 385.694477 
L 478.261923 385.654254 
L 478.424798 385.463672 
L 479.890673 385.477166 
L 480.053547 386.083962 
L 484.288296 385.969649 
L 485.265545 385.964192 
L 485.591295 386.081901 
L 485.75417 386.031684 
L 486.07992 386.138899 
L 492.920667 386.181424 
L 497.31829 386.202364 
L 497.644039 386.055884 
L 499.109914 386.145437 
L 499.435664 386.181236 
L 499.761413 386.049081 
L 500.412913 385.99383 
L 501.064413 385.913003 
L 501.390163 386.069321 
L 502.204537 386.182218 
L 502.693162 386.227739 
L 504.159036 386.140539 
L 504.973411 385.93677 
L 505.950661 386.027175 
L 506.113535 386.204565 
L 507.742285 386.17211 
L 508.719534 386.148347 
L 515.071656 386.119877 
L 515.397406 386.157205 
L 516.211781 386.114361 
L 516.537531 386.03776 
L 517.677655 386.083557 
L 518.980654 386.157886 
L 519.143529 385.776757 
L 520.609404 385.709656 
L 520.772279 386.088391 
L 521.423778 385.9977 
L 521.749528 385.908708 
L 522.563903 386.024848 
L 523.215403 386.172314 
L 528.4274 386.061338 
L 528.590275 385.905118 
L 529.40465 385.997785 
L 529.7304 386.025492 
L 530.056149 385.892156 
L 530.219024 386.060682 
L 535.431022 386.024793 
L 535.756772 386.007583 
L 536.082522 386.128047 
L 537.385521 386.152376 
L 539.828645 386.195388 
L 540.31727 386.149131 
L 546.017892 386.18509 
L 546.343642 386.070106 
L 547.646641 386.114355 
L 547.972391 386.226553 
L 549.92689 386.197353 
L 550.089765 385.603622 
L 551.555639 385.575375 
L 551.718514 386.170777 
L 552.695764 385.993127 
L 553.021514 385.888286 
L 555.790387 386.137601 
L 556.279012 386.089192 
L 556.604762 386.153123 
L 557.907761 386.117356 
L 559.210761 386.04919 
L 559.699386 386.022024 
L 564.259884 386.117152 
L 564.911383 386.01795 
L 565.237133 386.125443 
L 567.843132 386.203492 
L 568.006007 385.065406 
L 568.168882 385.094659 
L 568.331757 384.913307 
L 569.146131 384.89623 
L 569.471881 384.579021 
L 569.634756 385.677659 
L 569.797631 385.662309 
L 569.960506 385.841117 
L 570.612006 385.838867 
L 570.774881 385.511085 
L 570.937755 385.434324 
L 571.42638 385.545198 
L 572.240755 385.529313 
L 572.566505 386.053395 
L 572.72938 386.20161 
L 573.706629 386.192398 
L 575.498253 386.16356 
L 575.661128 385.474168 
L 577.127003 385.412239 
L 577.289878 386.157286 
L 580.221626 385.920236 
L 580.384501 386.097271 
L 580.547376 385.417424 
L 580.710251 385.415859 
L 581.036001 385.296869 
L 581.361751 385.407056 
L 581.850375 385.396732 
L 582.01325 385.142409 
L 582.176125 385.825524 
L 583.479125 385.847285 
L 583.642 386.109448 
L 584.293499 386.111384 
L 584.456374 385.889606 
L 585.922249 385.894295 
L 586.085123 386.153267 
L 588.528247 385.90964 
L 588.853997 386.010328 
L 589.016872 386.011692 
L 589.179747 386.130239 
L 589.505497 386.022685 
L 592.111496 386.143166 
L 592.437246 386.17916 
L 596.346244 386.19677 
L 596.509119 385.803242 
L 597.486368 385.741161 
L 597.812118 385.646791 
L 597.974993 385.65352 
L 598.137868 386.023859 
L 598.952243 385.948602 
L 600.418117 386.221945 
L 601.232491 386.231818 
L 601.395366 386.028027 
L 602.861241 385.968281 
L 603.024116 386.173555 
L 608.724738 386.091783 
L 610.027737 385.945722 
L 610.353487 386.014381 
L 610.842112 386.193639 
L 611.167862 386.072973 
L 611.330737 386.048032 
L 611.493612 385.827757 
L 612.470861 385.801801 
L 612.633736 385.922487 
L 612.959486 385.902924 
L 613.122361 386.124558 
L 614.588235 386.207322 
L 615.565485 386.190428 
L 617.357109 386.17889 
L 617.519984 385.963499 
L 618.171484 386.013091 
L 618.985858 386.0142 
L 619.311608 385.740208 
L 620.288858 385.724845 
L 620.451733 385.725679 
L 620.614608 385.452889 
L 620.777482 385.882905 
L 621.103232 385.89596 
L 621.428982 385.793823 
L 622.080482 385.74962 
L 622.243357 386.010621 
L 622.569107 386.022093 
L 622.731982 385.835175 
L 622.894856 385.878599 
L 623.383481 385.59876 
L 624.197856 385.63515 
L 624.523606 385.921717 
L 625.01223 386.211734 
L 625.826605 386.214025 
L 626.31523 385.982817 
L 627.618229 386.076428 
L 627.943979 386.215331 
L 632.504477 386.047468 
L 632.830227 386.167724 
L 634.296101 386.163277 
L 635.436226 386.131191 
L 635.92485 386.118767 
L 637.064975 386.120073 
L 637.22785 386.126893 
L 637.5536 385.628653 
L 638.856599 385.61684 
L 639.019474 386.079242 
L 639.345224 386.184699 
L 640.322473 386.126208 
L 640.648223 385.552845 
L 641.951223 385.595565 
L 642.114098 386.068194 
L 642.439847 386.167335 
L 644.068597 386.210034 
L 645.534471 386.215599 
L 650.909344 386.2066 
L 651.072218 386.035283 
L 651.397968 385.926214 
L 651.886593 385.783691 
L 652.863843 385.834057 
L 653.352467 386.083858 
L 659.37884 386.139297 
L 659.704589 386.061901 
L 660.030339 386.038768 
L 661.007589 385.865187 
L 661.333339 385.951098 
L 662.147713 386.040195 
L 662.310588 386.199593 
L 662.636338 386.169325 
L 662.799213 385.030091 
L 664.265087 385.06965 
L 664.427962 386.212921 
L 668.011211 386.129708 
L 668.174086 385.731906 
L 669.477085 385.642264 
L 669.63996 385.623651 
L 669.802835 386.027438 
L 670.942959 386.003342 
L 671.105834 386.174021 
L 671.594459 386.131195 
L 672.408834 386.116456 
L 673.386083 385.86191 
L 674.363333 385.986762 
L 674.526208 386.218886 
L 674.851957 386.223885 
L 675.177707 386.106148 
L 677.620831 386.153039 
L 677.783706 385.681641 
L 678.272331 385.649269 
L 678.598081 385.718606 
L 679.24958 385.720812 
L 679.412455 386.193028 
L 682.344204 386.228062 
L 683.321454 386.213691 
L 683.647203 386.098957 
L 684.787328 386.040785 
L 684.950203 385.957295 
L 685.275953 386.059796 
L 687.556202 386.011494 
L 688.533451 386.207726 
L 690.48795 386.162763 
L 692.116699 386.198753 
L 692.279574 385.9884 
L 692.931074 385.970028 
L 693.745449 385.966572 
L 693.908324 386.160774 
L 696.188573 386.129387 
L 696.514322 386.071602 
L 697.002947 386.065563 
L 697.165822 385.795812 
L 697.817322 385.788793 
L 698.143072 385.947139 
L 700.260446 385.901835 
L 700.586196 386.144244 
L 703.355069 386.195758 
L 703.680819 386.088461 
L 704.006569 385.988118 
L 704.495194 385.943908 
L 704.658069 385.50209 
L 704.983819 385.521164 
L 705.309568 384.891476 
L 705.798193 385.001832 
L 706.123943 385.04606 
L 706.286818 385.477434 
L 706.612568 385.475554 
L 706.938318 386.166683 
L 709.055692 386.09372 
L 709.218567 385.908015 
L 710.195816 385.992197 
L 710.358691 385.734367 
L 710.684441 385.736129 
L 710.847316 385.914291 
L 711.173066 385.819501 
L 711.66169 385.801566 
L 711.824565 385.567505 
L 711.98744 385.820434 
L 713.29044 385.848778 
L 713.453315 386.081747 
L 717.525188 386.217273 
L 721.597061 386.192 
L 721.759936 385.975822 
L 723.22581 385.972431 
L 723.388685 386.188934 
L 733.649805 386.05788 
L 733.81268 386.216537 
L 740.816302 386.118431 
L 741.630677 386.013517 
L 741.956426 386.08978 
L 742.119301 386.092815 
L 742.445051 385.974101 
L 743.259426 386.077785 
L 743.748051 386.085389 
L 744.0738 386.204253 
L 745.539675 386.140342 
L 745.865425 385.965012 
L 747.168424 385.959224 
L 747.331299 386.123667 
L 747.982799 386.0831 
L 748.960048 386.162229 
L 749.122923 386.208164 
L 749.611548 385.797559 
L 750.914547 385.917095 
L 751.240297 386.150744 
L 754.009171 386.135085 
L 756.778045 386.061613 
L 757.103794 386.030603 
L 757.429544 386.125754 
L 758.243919 386.189394 
L 758.406794 386.050479 
L 759.058294 386.088055 
L 759.546918 386.088228 
L 759.872668 385.802497 
L 760.198418 385.950551 
L 761.175668 385.951895 
L 761.664292 386.224876 
L 762.315792 386.214555 
L 762.478667 385.966594 
L 763.944541 385.984959 
L 764.107416 386.231872 
L 766.87629 386.215117 
L 767.364915 386.173396 
L 781.372158 386.194615 
L 781.535033 385.977938 
L 782.023658 386.00151 
L 782.349408 385.860013 
L 783.000907 385.860787 
L 783.163782 386.07634 
L 785.118281 386.070649 
L 785.281156 385.445657 
L 786.747031 385.549233 
L 786.909906 386.22967 
L 790.656029 386.218671 
L 791.307529 386.195426 
L 791.470404 385.58762 
L 792.610528 385.594984 
L 792.936278 385.597717 
L 793.099153 386.187488 
L 794.402152 386.206699 
L 794.565027 386.078422 
L 794.727902 385.740359 
L 796.030901 385.743538 
L 796.193776 385.871929 
L 796.356651 386.228361 
L 802.708773 386.177578 
L 802.871648 385.827858 
L 803.523148 385.826934 
L 803.686023 385.452276 
L 804.337523 385.37503 
L 804.500398 385.717317 
L 805.151897 385.750699 
L 805.314772 386.123641 
L 806.617772 386.135852 
L 806.780646 385.968315 
L 808.246521 386.026926 
L 808.409396 386.19559 
L 819.81064 386.17148 
L 820.13639 385.996685 
L 820.78789 386.031985 
L 821.43939 385.994719 
L 821.76514 386.173785 
L 822.090889 386.174964 
L 822.416639 386.049482 
L 823.719639 386.05405 
L 824.045388 386.181526 
L 827.954387 386.147379 
L 828.280137 386.062004 
L 829.583136 386.141533 
L 829.908886 386.217388 
L 837.889757 386.171182 
L 838.052632 385.752836 
L 839.518506 385.731445 
L 839.681381 386.151081 
L 840.332881 386.133553 
L 841.473005 386.07322 
L 842.93888 386.024597 
L 843.101755 385.712555 
L 844.567629 385.775282 
L 844.730504 386.220572 
L 848.639502 386.163604 
L 849.453877 386.090146 
L 849.616752 385.987913 
L 850.268251 386.046849 
L 851.082626 386.076304 
L 851.408376 386.18029 
L 852.22275 386.207874 
L 853.037125 386.214647 
L 853.037125 386.214647 
" clip-path="url(#p32cc0a99b1)" style="fill: none; stroke-dasharray: 7.4,3.2; stroke-dashoffset: 0; stroke: #000000; stroke-width: 2"/>
   </g>
   <g id="patch_3">
    <path d="M 41.92 404.12 
L 41.92 10.8 
" style="fill: none; stroke: #000000; stroke-width: 0.8; stroke-linejoin: miter; stroke-linecap: square"/>
   </g>
   <g id="patch_4">
    <path d="M 853.2 404.12 
L 853.2 10.8 
" style="fill: none; stroke: #000000; stroke-width: 0.8; stroke-linejoin: miter; stroke-linecap: square"/>
   </g>
   <g id="patch_5">
    <path d="M 41.92 404.12 
L 853.2 404.12 
" style="fill: none; stroke: #000000; stroke-width: 0.8; stroke-linejoin: miter; stroke-linecap: square"/>
   </g>
   <g id="patch_6">
    <path d="M 41.92 10.8 
L 853.2 10.8 
" style="fill: none; stroke: #000000; stroke-width: 0.8; stroke-linejoin: miter; stroke-linecap: square"/>
   </g>
  </g>
 </g>
 <defs>
  <clipPath id="p32cc0a99b1">
   <rect x="41.92" y="10.8" width="811.28" height="393.32"/>
  </clipPath>
 </defs>
</svg>
