<?xml version="1.0" encoding="utf-8" standalone="no"?>
<!DOCTYPE svg PUBLIC "-//W3C//DTD SVG 1.1//EN"
  "http://www.w3.org/Graphics/SVG/1.1/DTD/svg11.dtd">
<svg xmlns:xlink="http://www.w3.org/1999/xlink" width="864pt" height="432pt" viewBox="0 0 864 432" xmlns="http://www.w3.org/2000/svg" version="1.1">
 <metadata>
  <rdf:RDF xmlns:dc="http://purl.org/dc/elements/1.1/" xmlns:cc="http://creativecommons.org/ns#" xmlns:rdf="http://www.w3.org/1999/02/22-rdf-syntax-ns#">
   <cc:Work>
    <dc:type rdf:resource="http://purl.org/dc/dcmitype/StillImage"/>
    <dc:date>2024-09-16T18:02:23.199835</dc:date>
    <dc:format>image/svg+xml</dc:format>
    <dc:creator>
     <cc:Agent>
      <dc:title>Matplotlib v3.9.2, https://matplotlib.org/</dc:title>
     </cc:Agent>
    </dc:creator>
   </cc:Work>
  </rdf:RDF>
 </metadata>
 <defs>
  <style type="text/css">*{stroke-linejoin: round; stroke-linecap: butt}</style>
 </defs>
 <g id="figure_1">
  <g id="patch_1">
   <path d="M 0 432 
L 864 432 
L 864 0 
L 0 0 
z
" style="fill: #ffffff"/>
  </g>
  <g id="axes_1">
   <g id="patch_2">
    <path d="M 35.89 404.12 
L 853.2 404.12 
L 853.2 10.8 
L 35.89 10.8 
z
" style="fill: #ffffff"/>
   </g>
   <g id="matplotlib.axis_1">
    <g id="xtick_1">
     <g id="line2d_1">
      <defs>
       <path id="m8887345de7" d="M 0 0 
L 0 3.5 
" style="stroke: #000000; stroke-width: 0.8"/>
      </defs>
      <g>
       <use xlink:href="#m8887345de7" x="194.186534" y="404.12" style="stroke: #000000; stroke-width: 0.8"/>
      </g>
     </g>
     <g id="text_1">
      <!-- 200 -->
      <g transform="translate(185.156065 418.771563) scale(0.1 -0.1)">
       <defs>
        <path id="DejaVuSansMono-32" d="M 1166 531 
L 3309 531 
L 3309 0 
L 475 0 
L 475 531 
Q 1059 1147 1496 1619 
Q 1934 2091 2100 2284 
Q 2413 2666 2522 2902 
Q 2631 3138 2631 3384 
Q 2631 3775 2401 3997 
Q 2172 4219 1772 4219 
Q 1488 4219 1175 4116 
Q 863 4013 513 3803 
L 513 4441 
Q 834 4594 1145 4672 
Q 1456 4750 1759 4750 
Q 2444 4750 2861 4386 
Q 3278 4022 3278 3431 
Q 3278 3131 3139 2831 
Q 3000 2531 2688 2169 
Q 2513 1966 2180 1606 
Q 1847 1247 1166 531 
z
" transform="scale(0.015625)"/>
        <path id="DejaVuSansMono-30" d="M 1509 2344 
Q 1509 2516 1629 2641 
Q 1750 2766 1919 2766 
Q 2094 2766 2219 2641 
Q 2344 2516 2344 2344 
Q 2344 2169 2220 2047 
Q 2097 1925 1919 1925 
Q 1744 1925 1626 2044 
Q 1509 2163 1509 2344 
z
M 1925 4250 
Q 1484 4250 1267 3775 
Q 1050 3300 1050 2328 
Q 1050 1359 1267 884 
Q 1484 409 1925 409 
Q 2369 409 2586 884 
Q 2803 1359 2803 2328 
Q 2803 3300 2586 3775 
Q 2369 4250 1925 4250 
z
M 1925 4750 
Q 2672 4750 3055 4137 
Q 3438 3525 3438 2328 
Q 3438 1134 3055 521 
Q 2672 -91 1925 -91 
Q 1178 -91 797 521 
Q 416 1134 416 2328 
Q 416 3525 797 4137 
Q 1178 4750 1925 4750 
z
" transform="scale(0.015625)"/>
       </defs>
       <use xlink:href="#DejaVuSansMono-32"/>
       <use xlink:href="#DejaVuSansMono-30" x="60.205078"/>
       <use xlink:href="#DejaVuSansMono-30" x="120.410156"/>
      </g>
     </g>
    </g>
    <g id="xtick_2">
     <g id="line2d_2">
      <g>
       <use xlink:href="#m8887345de7" x="360.814465" y="404.12" style="stroke: #000000; stroke-width: 0.8"/>
      </g>
     </g>
     <g id="text_2">
      <!-- 400 -->
      <g transform="translate(351.783996 418.771563) scale(0.1 -0.1)">
       <defs>
        <path id="DejaVuSansMono-34" d="M 2297 4091 
L 825 1625 
L 2297 1625 
L 2297 4091 
z
M 2194 4666 
L 2925 4666 
L 2925 1625 
L 3547 1625 
L 3547 1113 
L 2925 1113 
L 2925 0 
L 2297 0 
L 2297 1113 
L 319 1113 
L 319 1709 
L 2194 4666 
z
" transform="scale(0.015625)"/>
       </defs>
       <use xlink:href="#DejaVuSansMono-34"/>
       <use xlink:href="#DejaVuSansMono-30" x="60.205078"/>
       <use xlink:href="#DejaVuSansMono-30" x="120.410156"/>
      </g>
     </g>
    </g>
    <g id="xtick_3">
     <g id="line2d_3">
      <g>
       <use xlink:href="#m8887345de7" x="527.442396" y="404.12" style="stroke: #000000; stroke-width: 0.8"/>
      </g>
     </g>
     <g id="text_3">
      <!-- 600 -->
      <g transform="translate(518.411927 418.771563) scale(0.1 -0.1)">
       <defs>
        <path id="DejaVuSansMono-36" d="M 3097 4563 
L 3097 3981 
Q 2900 4097 2678 4158 
Q 2456 4219 2216 4219 
Q 1616 4219 1306 3767 
Q 997 3316 997 2438 
Q 1147 2750 1412 2917 
Q 1678 3084 2022 3084 
Q 2697 3084 3067 2670 
Q 3438 2256 3438 1497 
Q 3438 741 3056 325 
Q 2675 -91 1984 -91 
Q 1172 -91 794 492 
Q 416 1075 416 2328 
Q 416 3509 870 4129 
Q 1325 4750 2188 4750 
Q 2419 4750 2650 4701 
Q 2881 4653 3097 4563 
z
M 1972 2591 
Q 1569 2591 1337 2300 
Q 1106 2009 1106 1497 
Q 1106 984 1337 693 
Q 1569 403 1972 403 
Q 2391 403 2603 679 
Q 2816 956 2816 1497 
Q 2816 2041 2603 2316 
Q 2391 2591 1972 2591 
z
" transform="scale(0.015625)"/>
       </defs>
       <use xlink:href="#DejaVuSansMono-36"/>
       <use xlink:href="#DejaVuSansMono-30" x="60.205078"/>
       <use xlink:href="#DejaVuSansMono-30" x="120.410156"/>
      </g>
     </g>
    </g>
    <g id="xtick_4">
     <g id="line2d_4">
      <g>
       <use xlink:href="#m8887345de7" x="694.070326" y="404.12" style="stroke: #000000; stroke-width: 0.8"/>
      </g>
     </g>
     <g id="text_4">
      <!-- 800 -->
      <g transform="translate(685.039857 418.771563) scale(0.1 -0.1)">
       <defs>
        <path id="DejaVuSansMono-38" d="M 1925 2216 
Q 1503 2216 1273 1980 
Q 1044 1744 1044 1313 
Q 1044 881 1276 642 
Q 1509 403 1925 403 
Q 2350 403 2579 639 
Q 2809 875 2809 1313 
Q 2809 1741 2576 1978 
Q 2344 2216 1925 2216 
z
M 1375 2478 
Q 972 2581 745 2862 
Q 519 3144 519 3541 
Q 519 4097 897 4423 
Q 1275 4750 1925 4750 
Q 2578 4750 2956 4423 
Q 3334 4097 3334 3541 
Q 3334 3144 3107 2862 
Q 2881 2581 2478 2478 
Q 2947 2375 3195 2062 
Q 3444 1750 3444 1253 
Q 3444 622 3041 265 
Q 2638 -91 1925 -91 
Q 1213 -91 811 264 
Q 409 619 409 1247 
Q 409 1747 657 2061 
Q 906 2375 1375 2478 
z
M 1147 3481 
Q 1147 3106 1347 2909 
Q 1547 2713 1925 2713 
Q 2306 2713 2506 2909 
Q 2706 3106 2706 3481 
Q 2706 3863 2507 4063 
Q 2309 4263 1925 4263 
Q 1547 4263 1347 4061 
Q 1147 3859 1147 3481 
z
" transform="scale(0.015625)"/>
       </defs>
       <use xlink:href="#DejaVuSansMono-38"/>
       <use xlink:href="#DejaVuSansMono-30" x="60.205078"/>
       <use xlink:href="#DejaVuSansMono-30" x="120.410156"/>
      </g>
     </g>
    </g>
   </g>
   <g id="matplotlib.axis_2">
    <g id="ytick_1">
     <g id="line2d_5">
      <defs>
       <path id="ma72eeb67ed" d="M 0 0 
L -3.5 0 
" style="stroke: #000000; stroke-width: 0.8"/>
      </defs>
      <g>
       <use xlink:href="#ma72eeb67ed" x="35.89" y="386.241818" style="stroke: #000000; stroke-width: 0.8"/>
      </g>
     </g>
     <g id="text_5">
      <!-- 0.0 -->
      <g transform="translate(10.829063 390.067599) scale(0.1 -0.1)">
       <defs>
        <path id="DejaVuSansMono-2e" d="M 1528 953 
L 2316 953 
L 2316 0 
L 1528 0 
L 1528 953 
z
" transform="scale(0.015625)"/>
       </defs>
       <use xlink:href="#DejaVuSansMono-30"/>
       <use xlink:href="#DejaVuSansMono-2e" x="60.205078"/>
       <use xlink:href="#DejaVuSansMono-30" x="120.410156"/>
      </g>
     </g>
    </g>
    <g id="ytick_2">
     <g id="line2d_6">
      <g>
       <use xlink:href="#ma72eeb67ed" x="35.89" y="314.270775" style="stroke: #000000; stroke-width: 0.8"/>
      </g>
     </g>
     <g id="text_6">
      <!-- 0.2 -->
      <g transform="translate(10.829063 318.096556) scale(0.1 -0.1)">
       <use xlink:href="#DejaVuSansMono-30"/>
       <use xlink:href="#DejaVuSansMono-2e" x="60.205078"/>
       <use xlink:href="#DejaVuSansMono-32" x="120.410156"/>
      </g>
     </g>
    </g>
    <g id="ytick_3">
     <g id="line2d_7">
      <g>
       <use xlink:href="#ma72eeb67ed" x="35.89" y="242.299731" style="stroke: #000000; stroke-width: 0.8"/>
      </g>
     </g>
     <g id="text_7">
      <!-- 0.4 -->
      <g transform="translate(10.829063 246.125512) scale(0.1 -0.1)">
       <use xlink:href="#DejaVuSansMono-30"/>
       <use xlink:href="#DejaVuSansMono-2e" x="60.205078"/>
       <use xlink:href="#DejaVuSansMono-34" x="120.410156"/>
      </g>
     </g>
    </g>
    <g id="ytick_4">
     <g id="line2d_8">
      <g>
       <use xlink:href="#ma72eeb67ed" x="35.89" y="170.328688" style="stroke: #000000; stroke-width: 0.8"/>
      </g>
     </g>
     <g id="text_8">
      <!-- 0.6 -->
      <g transform="translate(10.829063 174.154469) scale(0.1 -0.1)">
       <use xlink:href="#DejaVuSansMono-30"/>
       <use xlink:href="#DejaVuSansMono-2e" x="60.205078"/>
       <use xlink:href="#DejaVuSansMono-36" x="120.410156"/>
      </g>
     </g>
    </g>
    <g id="ytick_5">
     <g id="line2d_9">
      <g>
       <use xlink:href="#ma72eeb67ed" x="35.89" y="98.357644" style="stroke: #000000; stroke-width: 0.8"/>
      </g>
     </g>
     <g id="text_9">
      <!-- 0.8 -->
      <g transform="translate(10.829063 102.183425) scale(0.1 -0.1)">
       <use xlink:href="#DejaVuSansMono-30"/>
       <use xlink:href="#DejaVuSansMono-2e" x="60.205078"/>
       <use xlink:href="#DejaVuSansMono-38" x="120.410156"/>
      </g>
     </g>
    </g>
    <g id="ytick_6">
     <g id="line2d_10">
      <g>
       <use xlink:href="#ma72eeb67ed" x="35.89" y="26.3866" style="stroke: #000000; stroke-width: 0.8"/>
      </g>
     </g>
     <g id="text_10">
      <!-- 1.0 -->
      <g transform="translate(10.829063 30.212382) scale(0.1 -0.1)">
       <defs>
        <path id="DejaVuSansMono-31" d="M 844 531 
L 1825 531 
L 1825 4097 
L 769 3859 
L 769 4434 
L 1819 4666 
L 2450 4666 
L 2450 531 
L 3419 531 
L 3419 0 
L 844 0 
L 844 531 
z
" transform="scale(0.015625)"/>
       </defs>
       <use xlink:href="#DejaVuSansMono-31"/>
       <use xlink:href="#DejaVuSansMono-2e" x="60.205078"/>
       <use xlink:href="#DejaVuSansMono-30" x="120.410156"/>
      </g>
     </g>
    </g>
   </g>
   <g id="line2d_11">
    <path d="M 27.558603 283.000054 
L 28.391743 282.943132 
L 30.058022 283.362194 
L 30.891162 283.759472 
L 33.390581 284.211938 
L 34.223721 285.165168 
L 35.05686 286.785305 
L 35.89 289.20763 
L 36.72314 293.459067 
L 37.556279 298.405433 
L 38.389419 304.558747 
L 39.222559 312.323355 
L 40.055698 321.178854 
L 42.555117 351.076702 
L 44.221397 367.774309 
L 45.054536 373.815674 
L 45.887676 378.956462 
L 46.720815 382.72458 
L 47.553955 384.866575 
L 48.387095 386.241818 
L 60.88419 386.241818 
L 61.717329 385.765189 
L 64.216748 382.955013 
L 67.549307 377.383061 
L 69.215586 375.507575 
L 70.048726 375.043406 
L 71.715005 375.959279 
L 72.548145 376.893968 
L 75.880703 382.46592 
L 78.380122 385.282204 
L 80.046402 386.241818 
L 315.824924 386.241818 
L 324.15632 381.278298 
L 349.983649 381.278298 
L 358.315046 376.382771 
L 368.312722 376.409598 
L 374.977839 372.612442 
L 376.644118 370.70662 
L 383.309235 366.946323 
L 403.304587 367.462513 
L 424.133078 367.668646 
L 424.966218 367.668646 
L 429.131916 365.52352 
L 431.631335 364.305751 
L 432.464475 363.480918 
L 433.297615 362.228375 
L 439.129592 356.531789 
L 439.962732 355.305524 
L 440.795872 354.498169 
L 442.462151 353.78092 
L 444.12843 352.224203 
L 450.793547 342.745086 
L 452.459827 341.402657 
L 454.959246 340.785181 
L 456.625525 340.428921 
L 459.958084 338.133845 
L 461.624363 336.926056 
L 464.123782 333.886289 
L 464.956922 333.232288 
L 466.623201 332.704143 
L 469.955759 330.140974 
L 470.788899 328.798723 
L 471.622039 327.115357 
L 474.954597 319.2768 
L 476.620877 316.122077 
L 478.287156 312.285009 
L 482.452854 299.521024 
L 484.119134 293.898454 
L 486.618552 284.768033 
L 487.451692 282.897753 
L 489.117971 280.337361 
L 489.951111 278.8399 
L 491.61739 275.457043 
L 495.783089 264.371157 
L 497.449368 260.201731 
L 498.282508 258.383427 
L 499.948787 255.508959 
L 500.781927 254.317365 
L 502.448206 253.040171 
L 503.281346 252.65883 
L 504.947625 251.126635 
L 506.613904 248.549852 
L 507.447044 246.955543 
L 509.946463 241.296861 
L 510.779602 238.808139 
L 518.277859 211.372635 
L 519.944139 206.641547 
L 524.109837 194.346036 
L 524.942977 191.227712 
L 527.442396 183.236442 
L 528.275535 180.030332 
L 530.774954 172.613937 
L 534.107513 164.288961 
L 534.940652 161.829344 
L 535.773792 159.022925 
L 536.606932 156.778287 
L 538.273211 151.239286 
L 540.77263 141.554259 
L 544.938328 128.802297 
L 546.604608 125.182653 
L 547.437747 123.940837 
L 548.270887 122.498558 
L 549.104027 121.283258 
L 549.937166 119.5064 
L 551.603445 116.757553 
L 552.436585 115.479432 
L 554.936004 110.884164 
L 558.268563 106.688205 
L 559.101702 106.358911 
L 559.934842 105.271625 
L 560.767982 105.045125 
L 561.601121 104.119453 
L 562.434261 103.934496 
L 563.267401 102.599966 
L 565.76682 100.345955 
L 566.599959 99.989275 
L 567.433099 98.646518 
L 568.266239 98.247692 
L 569.099378 96.807372 
L 569.932518 96.278616 
L 570.765657 94.953295 
L 571.598797 94.75952 
L 572.431937 93.666357 
L 573.265076 93.131433 
L 574.098216 92.344441 
L 574.931356 90.999265 
L 575.764495 90.545746 
L 576.597635 89.408072 
L 577.430775 89.055765 
L 578.263914 87.882663 
L 579.097054 87.207808 
L 579.930194 86.118205 
L 580.763333 85.49493 
L 582.429613 83.875126 
L 583.262752 84.084372 
L 584.095892 83.290861 
L 584.929032 83.299721 
L 585.762171 82.301442 
L 586.595311 82.657181 
L 587.428451 81.512711 
L 588.26159 81.690039 
L 589.09473 80.702821 
L 589.92787 79.973144 
L 590.761009 80.060914 
L 591.594149 79.077203 
L 592.427288 79.346118 
L 593.260428 78.168231 
L 594.093568 78.35836 
L 594.926707 77.137907 
L 595.759847 77.311114 
L 596.592987 76.844731 
L 597.426126 76.874813 
L 598.259266 77.34986 
L 599.092406 76.016439 
L 599.925545 76.688687 
L 600.758685 75.649755 
L 601.591825 75.788711 
L 602.424964 75.503689 
L 603.258104 74.804528 
L 604.091244 75.185733 
L 604.924383 73.486754 
L 605.757523 74.556935 
L 606.590663 72.669692 
L 607.423802 73.62657 
L 608.256942 72.164912 
L 609.090082 71.668682 
L 609.923221 71.372822 
L 610.756361 69.864442 
L 611.589501 71.044564 
L 612.42264 69.038873 
L 613.25578 70.642845 
L 614.088919 68.189062 
L 614.922059 68.809707 
L 615.755199 67.724591 
L 616.588338 67.099935 
L 617.421478 67.200437 
L 618.254618 65.958801 
L 619.087757 66.88096 
L 619.920897 65.181981 
L 620.754037 65.810687 
L 621.587176 64.520031 
L 623.253456 64.418243 
L 624.086595 63.363405 
L 624.919735 63.988061 
L 625.752875 62.738395 
L 626.586014 63.576728 
L 627.419154 62.65457 
L 628.252294 62.65457 
L 629.085433 62.343269 
L 629.918573 61.817662 
L 630.751713 62.236779 
L 631.584852 61.181941 
L 632.417992 62.236779 
L 633.251131 61.072615 
L 634.084271 62.018848 
L 634.917411 60.854684 
L 635.75055 61.168001 
L 636.58369 61.062201 
L 637.41683 60.52971 
L 638.249969 61.055316 
L 639.083109 59.875853 
L 639.916249 60.930691 
L 640.749388 59.875853 
L 641.582528 60.52116 
L 642.415668 60.211854 
L 644.081947 60.211854 
L 644.915087 59.451507 
L 645.748226 59.878883 
L 646.581366 59.246089 
L 647.414506 59.68486 
L 648.247645 59.060203 
L 649.080785 58.730038 
L 649.913925 58.835154 
L 650.747064 57.870245 
L 651.580204 58.409753 
L 652.413344 57.669059 
L 653.246483 58.322916 
L 654.079623 58.110626 
L 654.912762 57.340155 
L 655.745902 57.767532 
L 656.579042 56.783383 
L 657.412181 57.859081 
L 658.245321 56.322624 
L 659.078461 57.077982 
L 659.9116 56.093833 
L 660.74474 56.093833 
L 661.57788 55.770141 
L 662.411019 54.892483 
L 663.244159 55.555055 
L 664.077299 54.352074 
L 664.910438 55.229733 
L 665.743578 53.357362 
L 666.576718 54.682904 
L 667.409857 53.366128 
L 668.242997 54.136599 
L 669.076137 53.2472 
L 669.909276 53.2472 
L 670.742416 52.905806 
L 671.575556 52.130202 
L 672.408695 52.130202 
L 673.241835 51.025716 
L 674.074975 51.37176 
L 674.908114 50.046218 
L 675.741254 50.160013 
L 676.574393 48.699741 
L 677.407533 49.480536 
L 678.240673 48.000489 
L 679.073812 49.641382 
L 679.906952 48.708971 
L 680.740092 50.225268 
L 681.573231 49.526016 
L 682.406371 49.41145 
L 683.239511 49.752844 
L 684.07265 48.939797 
L 684.90579 50.29217 
L 685.73893 48.812123 
L 686.572069 49.165331 
L 687.405209 47.737404 
L 688.238349 47.737404 
L 689.071488 46.318039 
L 689.904628 46.318039 
L 690.737768 45.8519 
L 691.570907 45.835801 
L 692.404047 45.596245 
L 693.237187 44.578316 
L 694.070326 44.685887 
L 694.903466 44.33268 
L 695.736606 44.105751 
L 696.569745 44.225115 
L 697.402885 43.186359 
L 698.236024 43.410901 
L 699.902304 42.824321 
L 700.735443 42.815703 
L 701.568583 42.234783 
L 702.401723 42.117015 
L 703.234862 41.868841 
L 704.068002 41.287922 
L 704.901142 41.039748 
L 705.734281 41.276095 
L 706.567421 40.683155 
L 707.400561 40.919502 
L 708.2337 39.859325 
L 709.06684 39.978723 
L 710.733119 39.502769 
L 711.566259 39.740746 
L 712.399399 39.382545 
L 713.232538 39.620522 
L 714.065678 39.144553 
L 714.898818 39.502754 
L 715.731957 38.783823 
L 716.565097 39.26308 
L 717.398236 38.780496 
L 718.231376 39.018473 
L 719.064516 38.898249 
L 719.897655 38.540048 
L 720.730795 38.898249 
L 721.563935 38.418992 
L 722.397074 38.777193 
L 723.230214 38.17603 
L 724.063354 38.777193 
L 724.896493 38.418992 
L 725.729633 38.782178 
L 726.562773 38.423977 
L 727.395912 38.423977 
L 728.229052 38.544201 
L 729.062192 38.064943 
L 729.895331 38.544201 
L 730.728471 37.943038 
L 731.561611 38.306224 
L 732.39475 37.948023 
L 733.22789 38.068247 
L 734.06103 37.826966 
L 735.727309 37.826966 
L 736.560449 37.585686 
L 737.393588 37.706742 
L 738.226728 36.982824 
L 739.059867 37.34601 
L 739.893007 36.860069 
L 740.726147 36.980293 
L 741.559286 36.494352 
L 742.392426 36.735633 
L 743.225566 36.369916 
L 744.058705 36.49014 
L 744.891845 36.245479 
L 746.558124 36.245479 
L 747.391264 36.004199 
L 748.224404 36.126954 
L 749.057543 35.641013 
L 749.890683 36.00673 
L 750.723823 35.520789 
L 751.556962 35.886506 
L 752.390102 35.400565 
L 753.223242 35.52332 
L 754.056381 35.280358 
L 755.722661 35.280358 
L 756.5558 35.157603 
L 757.38894 35.52332 
L 758.22208 35.157603 
L 759.055219 35.280358 
L 759.888359 34.914641 
L 760.721498 34.914641 
L 762.387778 34.669131 
L 763.220917 34.669131 
L 764.054057 34.42447 
L 764.887197 34.547225 
L 765.720336 34.057896 
L 766.553476 34.302556 
L 767.386616 34.056188 
L 768.219755 34.421905 
L 769.052895 34.298292 
L 769.886035 34.542953 
L 770.719174 34.542953 
L 771.552314 34.41934 
L 772.385454 34.41934 
L 773.218593 34.172972 
L 774.051733 34.41934 
L 774.884873 34.051066 
L 775.718012 34.174679 
L 776.551152 33.685349 
L 777.384292 33.685349 
L 778.217431 33.317076 
L 779.050571 33.193463 
L 779.88371 33.439831 
L 780.71685 33.316218 
L 781.54999 33.439831 
L 782.383129 33.193463 
L 783.216269 33.193463 
L 784.049409 33.06985 
L 784.882548 33.06985 
L 785.715688 33.193463 
L 787.381967 33.193463 
L 788.215107 32.947095 
L 789.048247 32.947095 
L 789.881386 32.823482 
L 793.213945 32.823482 
L 794.047085 32.699869 
L 794.880224 32.699869 
L 795.713364 32.575381 
L 796.546504 32.575381 
L 797.379643 32.450892 
L 798.212783 32.450892 
L 799.045923 32.201039 
L 799.879062 32.201039 
L 800.712202 31.951186 
L 801.545341 31.951186 
L 802.378481 31.826697 
L 803.211621 31.826697 
L 804.04476 31.951186 
L 804.8779 31.826697 
L 805.71104 31.951186 
L 806.544179 31.701332 
L 807.377319 31.951186 
L 808.210459 31.826697 
L 809.043598 32.076551 
L 809.876738 31.952063 
L 810.709878 32.076551 
L 811.543017 32.076551 
L 812.376157 31.952063 
L 813.209297 32.076551 
L 814.042436 31.826697 
L 814.875576 32.076551 
L 815.708716 31.826697 
L 816.541855 31.951186 
L 817.374995 31.701332 
L 818.208135 31.82582 
L 819.041274 31.575967 
L 820.707554 31.575967 
L 821.540693 31.451479 
L 822.373833 31.701332 
L 823.206972 31.451479 
L 824.040112 31.701332 
L 824.873252 31.325221 
L 825.706391 31.575074 
L 826.539531 31.071809 
L 827.372671 31.321663 
L 828.20581 30.818397 
L 829.03895 30.942885 
L 830.705229 30.693032 
L 831.538369 30.818397 
L 832.371509 30.442286 
L 833.204648 30.693909 
L 834.037788 30.190644 
L 834.870928 30.693909 
L 835.704067 30.190644 
L 836.537207 30.569421 
L 837.370347 30.066156 
L 838.203486 30.191521 
L 839.869766 29.433967 
L 840.702905 29.306812 
L 841.536045 28.928035 
L 842.369185 29.181447 
L 843.202324 28.678182 
L 844.035464 29.056959 
L 844.868603 28.678182 
L 845.701743 29.056959 
L 846.534883 28.678182 
L 847.368022 29.056959 
L 848.201162 29.056959 
L 849.034302 29.435736 
L 849.867441 29.435736 
L 850.700581 29.561102 
L 851.533721 29.561102 
L 852.36686 29.309479 
L 852.36686 29.309479 
" clip-path="url(#pe6e3dffa42)" style="fill: none; stroke-dasharray: 7.4,3.2; stroke-dashoffset: 0; stroke: #000000; stroke-width: 2"/>
   </g>
   <g id="patch_3">
    <path d="M 35.89 404.12 
L 35.89 10.8 
" style="fill: none; stroke: #000000; stroke-width: 0.8; stroke-linejoin: miter; stroke-linecap: square"/>
   </g>
   <g id="patch_4">
    <path d="M 853.2 404.12 
L 853.2 10.8 
" style="fill: none; stroke: #000000; stroke-width: 0.8; stroke-linejoin: miter; stroke-linecap: square"/>
   </g>
   <g id="patch_5">
    <path d="M 35.89 404.12 
L 853.2 404.12 
" style="fill: none; stroke: #000000; stroke-width: 0.8; stroke-linejoin: miter; stroke-linecap: square"/>
   </g>
   <g id="patch_6">
    <path d="M 35.89 10.8 
L 853.2 10.8 
" style="fill: none; stroke: #000000; stroke-width: 0.8; stroke-linejoin: miter; stroke-linecap: square"/>
   </g>
  </g>
 </g>
 <defs>
  <clipPath id="pe6e3dffa42">
   <rect x="35.89" y="10.8" width="817.31" height="393.32"/>
  </clipPath>
 </defs>
</svg>
