<?xml version="1.0" encoding="utf-8" standalone="no"?>
<!DOCTYPE svg PUBLIC "-//W3C//DTD SVG 1.1//EN"
  "http://www.w3.org/Graphics/SVG/1.1/DTD/svg11.dtd">
<svg xmlns:xlink="http://www.w3.org/1999/xlink" width="864pt" height="432pt" viewBox="0 0 864 432" xmlns="http://www.w3.org/2000/svg" version="1.1">
 <metadata>
  <rdf:RDF xmlns:dc="http://purl.org/dc/elements/1.1/" xmlns:cc="http://creativecommons.org/ns#" xmlns:rdf="http://www.w3.org/1999/02/22-rdf-syntax-ns#">
   <cc:Work>
    <dc:type rdf:resource="http://purl.org/dc/dcmitype/StillImage"/>
    <dc:date>2024-09-16T18:02:23.280742</dc:date>
    <dc:format>image/svg+xml</dc:format>
    <dc:creator>
     <cc:Agent>
      <dc:title>Matplotlib v3.9.2, https://matplotlib.org/</dc:title>
     </cc:Agent>
    </dc:creator>
   </cc:Work>
  </rdf:RDF>
 </metadata>
 <defs>
  <style type="text/css">*{stroke-linejoin: round; stroke-linecap: butt}</style>
 </defs>
 <g id="figure_1">
  <g id="patch_1">
   <path d="M 0 432 
L 864 432 
L 864 0 
L 0 0 
z
" style="fill: #ffffff"/>
  </g>
  <g id="axes_1">
   <g id="patch_2">
    <path d="M 41.92 404.12 
L 853.2 404.12 
L 853.2 10.8 
L 41.92 10.8 
z
" style="fill: #ffffff"/>
   </g>
   <g id="matplotlib.axis_1">
    <g id="xtick_1">
     <g id="line2d_1">
      <defs>
       <path id="m2ebdb3c95c" d="M 0 0 
L 0 3.5 
" style="stroke: #000000; stroke-width: 0.8"/>
      </defs>
      <g>
       <use xlink:href="#m2ebdb3c95c" x="199.048644" y="404.12" style="stroke: #000000; stroke-width: 0.8"/>
      </g>
     </g>
     <g id="text_1">
      <!-- 200 -->
      <g transform="translate(190.018175 418.771563) scale(0.1 -0.1)">
       <defs>
        <path id="DejaVuSansMono-32" d="M 1166 531 
L 3309 531 
L 3309 0 
L 475 0 
L 475 531 
Q 1059 1147 1496 1619 
Q 1934 2091 2100 2284 
Q 2413 2666 2522 2902 
Q 2631 3138 2631 3384 
Q 2631 3775 2401 3997 
Q 2172 4219 1772 4219 
Q 1488 4219 1175 4116 
Q 863 4013 513 3803 
L 513 4441 
Q 834 4594 1145 4672 
Q 1456 4750 1759 4750 
Q 2444 4750 2861 4386 
Q 3278 4022 3278 3431 
Q 3278 3131 3139 2831 
Q 3000 2531 2688 2169 
Q 2513 1966 2180 1606 
Q 1847 1247 1166 531 
z
" transform="scale(0.015625)"/>
        <path id="DejaVuSansMono-30" d="M 1509 2344 
Q 1509 2516 1629 2641 
Q 1750 2766 1919 2766 
Q 2094 2766 2219 2641 
Q 2344 2516 2344 2344 
Q 2344 2169 2220 2047 
Q 2097 1925 1919 1925 
Q 1744 1925 1626 2044 
Q 1509 2163 1509 2344 
z
M 1925 4250 
Q 1484 4250 1267 3775 
Q 1050 3300 1050 2328 
Q 1050 1359 1267 884 
Q 1484 409 1925 409 
Q 2369 409 2586 884 
Q 2803 1359 2803 2328 
Q 2803 3300 2586 3775 
Q 2369 4250 1925 4250 
z
M 1925 4750 
Q 2672 4750 3055 4137 
Q 3438 3525 3438 2328 
Q 3438 1134 3055 521 
Q 2672 -91 1925 -91 
Q 1178 -91 797 521 
Q 416 1134 416 2328 
Q 416 3525 797 4137 
Q 1178 4750 1925 4750 
z
" transform="scale(0.015625)"/>
       </defs>
       <use xlink:href="#DejaVuSansMono-32"/>
       <use xlink:href="#DejaVuSansMono-30" x="60.205078"/>
       <use xlink:href="#DejaVuSansMono-30" x="120.410156"/>
      </g>
     </g>
    </g>
    <g id="xtick_2">
     <g id="line2d_2">
      <g>
       <use xlink:href="#m2ebdb3c95c" x="364.447217" y="404.12" style="stroke: #000000; stroke-width: 0.8"/>
      </g>
     </g>
     <g id="text_2">
      <!-- 400 -->
      <g transform="translate(355.416748 418.771563) scale(0.1 -0.1)">
       <defs>
        <path id="DejaVuSansMono-34" d="M 2297 4091 
L 825 1625 
L 2297 1625 
L 2297 4091 
z
M 2194 4666 
L 2925 4666 
L 2925 1625 
L 3547 1625 
L 3547 1113 
L 2925 1113 
L 2925 0 
L 2297 0 
L 2297 1113 
L 319 1113 
L 319 1709 
L 2194 4666 
z
" transform="scale(0.015625)"/>
       </defs>
       <use xlink:href="#DejaVuSansMono-34"/>
       <use xlink:href="#DejaVuSansMono-30" x="60.205078"/>
       <use xlink:href="#DejaVuSansMono-30" x="120.410156"/>
      </g>
     </g>
    </g>
    <g id="xtick_3">
     <g id="line2d_3">
      <g>
       <use xlink:href="#m2ebdb3c95c" x="529.84579" y="404.12" style="stroke: #000000; stroke-width: 0.8"/>
      </g>
     </g>
     <g id="text_3">
      <!-- 600 -->
      <g transform="translate(520.815321 418.771563) scale(0.1 -0.1)">
       <defs>
        <path id="DejaVuSansMono-36" d="M 3097 4563 
L 3097 3981 
Q 2900 4097 2678 4158 
Q 2456 4219 2216 4219 
Q 1616 4219 1306 3767 
Q 997 3316 997 2438 
Q 1147 2750 1412 2917 
Q 1678 3084 2022 3084 
Q 2697 3084 3067 2670 
Q 3438 2256 3438 1497 
Q 3438 741 3056 325 
Q 2675 -91 1984 -91 
Q 1172 -91 794 492 
Q 416 1075 416 2328 
Q 416 3509 870 4129 
Q 1325 4750 2188 4750 
Q 2419 4750 2650 4701 
Q 2881 4653 3097 4563 
z
M 1972 2591 
Q 1569 2591 1337 2300 
Q 1106 2009 1106 1497 
Q 1106 984 1337 693 
Q 1569 403 1972 403 
Q 2391 403 2603 679 
Q 2816 956 2816 1497 
Q 2816 2041 2603 2316 
Q 2391 2591 1972 2591 
z
" transform="scale(0.015625)"/>
       </defs>
       <use xlink:href="#DejaVuSansMono-36"/>
       <use xlink:href="#DejaVuSansMono-30" x="60.205078"/>
       <use xlink:href="#DejaVuSansMono-30" x="120.410156"/>
      </g>
     </g>
    </g>
    <g id="xtick_4">
     <g id="line2d_4">
      <g>
       <use xlink:href="#m2ebdb3c95c" x="695.244363" y="404.12" style="stroke: #000000; stroke-width: 0.8"/>
      </g>
     </g>
     <g id="text_4">
      <!-- 800 -->
      <g transform="translate(686.213894 418.771563) scale(0.1 -0.1)">
       <defs>
        <path id="DejaVuSansMono-38" d="M 1925 2216 
Q 1503 2216 1273 1980 
Q 1044 1744 1044 1313 
Q 1044 881 1276 642 
Q 1509 403 1925 403 
Q 2350 403 2579 639 
Q 2809 875 2809 1313 
Q 2809 1741 2576 1978 
Q 2344 2216 1925 2216 
z
M 1375 2478 
Q 972 2581 745 2862 
Q 519 3144 519 3541 
Q 519 4097 897 4423 
Q 1275 4750 1925 4750 
Q 2578 4750 2956 4423 
Q 3334 4097 3334 3541 
Q 3334 3144 3107 2862 
Q 2881 2581 2478 2478 
Q 2947 2375 3195 2062 
Q 3444 1750 3444 1253 
Q 3444 622 3041 265 
Q 2638 -91 1925 -91 
Q 1213 -91 811 264 
Q 409 619 409 1247 
Q 409 1747 657 2061 
Q 906 2375 1375 2478 
z
M 1147 3481 
Q 1147 3106 1347 2909 
Q 1547 2713 1925 2713 
Q 2306 2713 2506 2909 
Q 2706 3106 2706 3481 
Q 2706 3863 2507 4063 
Q 2309 4263 1925 4263 
Q 1547 4263 1347 4061 
Q 1147 3859 1147 3481 
z
" transform="scale(0.015625)"/>
       </defs>
       <use xlink:href="#DejaVuSansMono-38"/>
       <use xlink:href="#DejaVuSansMono-30" x="60.205078"/>
       <use xlink:href="#DejaVuSansMono-30" x="120.410156"/>
      </g>
     </g>
    </g>
   </g>
   <g id="matplotlib.axis_2">
    <g id="ytick_1">
     <g id="line2d_5">
      <defs>
       <path id="m49f6fb6cf6" d="M 0 0 
L -3.5 0 
" style="stroke: #000000; stroke-width: 0.8"/>
      </defs>
      <g>
       <use xlink:href="#m49f6fb6cf6" x="41.92" y="336.759322" style="stroke: #000000; stroke-width: 0.8"/>
      </g>
     </g>
     <g id="text_5">
      <!-- 0.05 -->
      <g transform="translate(10.83875 340.585103) scale(0.1 -0.1)">
       <defs>
        <path id="DejaVuSansMono-2e" d="M 1528 953 
L 2316 953 
L 2316 0 
L 1528 0 
L 1528 953 
z
" transform="scale(0.015625)"/>
        <path id="DejaVuSansMono-35" d="M 647 4666 
L 3009 4666 
L 3009 4134 
L 1222 4134 
L 1222 2988 
Q 1356 3038 1492 3061 
Q 1628 3084 1766 3084 
Q 2491 3084 2916 2656 
Q 3341 2228 3341 1497 
Q 3341 759 2895 334 
Q 2450 -91 1678 -91 
Q 1306 -91 998 -41 
Q 691 9 447 109 
L 447 750 
Q 734 594 1025 517 
Q 1316 441 1619 441 
Q 2141 441 2423 716 
Q 2706 991 2706 1497 
Q 2706 1997 2414 2275 
Q 2122 2553 1600 2553 
Q 1347 2553 1106 2495 
Q 866 2438 647 2322 
L 647 4666 
z
" transform="scale(0.015625)"/>
       </defs>
       <use xlink:href="#DejaVuSansMono-30"/>
       <use xlink:href="#DejaVuSansMono-2e" x="60.205078"/>
       <use xlink:href="#DejaVuSansMono-30" x="120.410156"/>
       <use xlink:href="#DejaVuSansMono-35" x="180.615234"/>
      </g>
     </g>
    </g>
    <g id="ytick_2">
     <g id="line2d_6">
      <g>
       <use xlink:href="#m49f6fb6cf6" x="41.92" y="259.317197" style="stroke: #000000; stroke-width: 0.8"/>
      </g>
     </g>
     <g id="text_6">
      <!-- 0.10 -->
      <g transform="translate(10.83875 263.142978) scale(0.1 -0.1)">
       <defs>
        <path id="DejaVuSansMono-31" d="M 844 531 
L 1825 531 
L 1825 4097 
L 769 3859 
L 769 4434 
L 1819 4666 
L 2450 4666 
L 2450 531 
L 3419 531 
L 3419 0 
L 844 0 
L 844 531 
z
" transform="scale(0.015625)"/>
       </defs>
       <use xlink:href="#DejaVuSansMono-30"/>
       <use xlink:href="#DejaVuSansMono-2e" x="60.205078"/>
       <use xlink:href="#DejaVuSansMono-31" x="120.410156"/>
       <use xlink:href="#DejaVuSansMono-30" x="180.615234"/>
      </g>
     </g>
    </g>
    <g id="ytick_3">
     <g id="line2d_7">
      <g>
       <use xlink:href="#m49f6fb6cf6" x="41.92" y="181.875072" style="stroke: #000000; stroke-width: 0.8"/>
      </g>
     </g>
     <g id="text_7">
      <!-- 0.15 -->
      <g transform="translate(10.83875 185.700853) scale(0.1 -0.1)">
       <use xlink:href="#DejaVuSansMono-30"/>
       <use xlink:href="#DejaVuSansMono-2e" x="60.205078"/>
       <use xlink:href="#DejaVuSansMono-31" x="120.410156"/>
       <use xlink:href="#DejaVuSansMono-35" x="180.615234"/>
      </g>
     </g>
    </g>
    <g id="ytick_4">
     <g id="line2d_8">
      <g>
       <use xlink:href="#m49f6fb6cf6" x="41.92" y="104.432947" style="stroke: #000000; stroke-width: 0.8"/>
      </g>
     </g>
     <g id="text_8">
      <!-- 0.20 -->
      <g transform="translate(10.83875 108.258728) scale(0.1 -0.1)">
       <use xlink:href="#DejaVuSansMono-30"/>
       <use xlink:href="#DejaVuSansMono-2e" x="60.205078"/>
       <use xlink:href="#DejaVuSansMono-32" x="120.410156"/>
       <use xlink:href="#DejaVuSansMono-30" x="180.615234"/>
      </g>
     </g>
    </g>
    <g id="ytick_5">
     <g id="line2d_9">
      <g>
       <use xlink:href="#m49f6fb6cf6" x="41.92" y="26.990822" style="stroke: #000000; stroke-width: 0.8"/>
      </g>
     </g>
     <g id="text_9">
      <!-- 0.25 -->
      <g transform="translate(10.83875 30.816603) scale(0.1 -0.1)">
       <use xlink:href="#DejaVuSansMono-30"/>
       <use xlink:href="#DejaVuSansMono-2e" x="60.205078"/>
       <use xlink:href="#DejaVuSansMono-32" x="120.410156"/>
       <use xlink:href="#DejaVuSansMono-35" x="180.615234"/>
      </g>
     </g>
    </g>
   </g>
   <g id="line2d_10">
    <path d="M 33.650071 29.126673 
L 34.477064 28.678182 
L 35.304057 29.952953 
L 36.13105 33.100976 
L 36.958043 38.188293 
L 37.785036 45.194638 
L 38.612029 53.998343 
L 40.266014 76.097376 
L 42.746993 115.522441 
L 45.227971 153.745458 
L 46.881957 174.828377 
L 47.70895 183.632254 
L 48.535943 191.242443 
L 49.362936 197.6943 
L 50.189929 203.062456 
L 51.016922 207.447402 
L 51.843914 210.958896 
L 52.670907 213.711548 
L 53.4979 215.815921 
L 54.324893 217.372777 
L 55.151886 218.469257 
L 55.978879 219.179027 
L 56.805872 219.561171 
L 57.632864 219.661378 
L 58.459857 219.51336 
L 59.28685 219.142921 
L 60.113843 218.571368 
L 60.940836 217.81401 
L 62.594822 215.799151 
L 64.248807 213.226559 
L 66.729786 208.721038 
L 69.210765 204.149313 
L 70.86475 201.48756 
L 72.518736 199.386479 
L 73.345729 198.59136 
L 74.172722 197.979097 
L 74.999715 197.552042 
L 75.826707 197.30657 
L 76.6537 197.233881 
L 77.480693 197.320582 
L 78.307686 197.549709 
L 79.961672 198.356284 
L 81.615657 199.48228 
L 86.577615 203.192994 
L 88.2316 204.169132 
L 89.885586 204.920697 
L 91.539572 205.442308 
L 93.193558 205.754552 
L 95.674536 205.912575 
L 98.982508 205.797918 
L 103.117472 205.650036 
L 105.598451 205.738892 
L 108.906422 206.110418 
L 120.484322 207.831047 
L 124.619286 208.00863 
L 134.543201 208.252214 
L 141.159144 208.761321 
L 148.60208 209.279861 
L 158.525994 209.690238 
L 170.103894 209.999447 
L 181.681794 210.307466 
L 196.567666 210.832365 
L 210.626544 211.18869 
L 221.377452 211.439715 
L 237.090316 211.707617 
L 251.149195 212.132669 
L 279.266952 212.778282 
L 356.177288 215.140601 
L 369.409174 215.524539 
L 380.987074 216.114639 
L 389.257003 216.603326 
L 395.872946 216.921584 
L 418.201753 218.662144 
L 443.011539 221.382692 
L 448.800489 222.164096 
L 455.416432 223.363858 
L 467.821325 225.702644 
L 471.95629 226.862228 
L 489.32314 232.4807 
L 491.804118 233.71988 
L 495.939083 236.11676 
L 498.420061 237.577549 
L 500.90104 238.952019 
L 505.862997 242.251253 
L 509.997961 245.704382 
L 512.47894 248.004753 
L 519.921876 255.513181 
L 523.229847 259.262804 
L 529.018797 266.884361 
L 538.115719 280.652118 
L 547.21264 295.397098 
L 550.520612 300.523621 
L 553.828583 304.97693 
L 554.655576 305.926638 
L 556.309562 308.105688 
L 562.098512 314.990179 
L 562.925505 315.759845 
L 563.752497 316.848135 
L 564.57949 317.351757 
L 565.406483 318.487841 
L 566.233476 318.963123 
L 567.887462 320.694676 
L 568.714455 321.227929 
L 569.541448 322.291362 
L 570.36844 322.574285 
L 571.195433 323.799012 
L 572.022426 323.915187 
L 572.849419 325.177152 
L 573.676412 325.428741 
L 574.503405 326.357569 
L 576.15739 327.444684 
L 576.984383 328.378093 
L 577.811376 328.533204 
L 578.638369 329.689045 
L 579.465362 329.694501 
L 580.292355 330.870048 
L 581.119348 330.927878 
L 581.94634 331.772461 
L 582.773333 332.251614 
L 583.600326 332.576886 
L 584.427319 333.546474 
L 585.254312 333.628382 
L 586.081305 334.652489 
L 586.908298 334.508186 
L 587.735291 335.692499 
L 588.562283 335.308343 
L 589.389276 336.509442 
L 590.216269 336.418995 
L 591.043262 337.254218 
L 591.870255 337.805567 
L 592.697248 337.85407 
L 593.524241 338.878141 
L 594.351233 338.602274 
L 595.178226 339.798067 
L 596.005219 339.495219 
L 596.832212 340.696528 
L 597.659205 340.738046 
L 599.313191 341.901309 
L 600.140183 341.825073 
L 600.967176 342.814796 
L 601.794169 342.616868 
L 602.621162 343.632608 
L 603.448155 343.667118 
L 605.102141 344.774697 
L 605.929134 344.682445 
L 606.756126 345.771844 
L 607.583119 345.205116 
L 608.410112 346.449967 
L 609.237105 346.126501 
L 610.064098 346.930956 
L 611.718084 347.418523 
L 612.545076 348.262939 
L 613.372069 347.939559 
L 614.199062 349.138334 
L 615.026055 348.463827 
L 615.853048 349.757772 
L 616.680041 349.594288 
L 618.334027 350.645294 
L 619.161019 350.532706 
L 619.988012 351.415691 
L 620.815005 350.965208 
L 621.641998 352.008511 
L 622.468991 351.808666 
L 623.295984 352.608191 
L 624.122977 352.7966 
L 624.949969 352.862971 
L 625.776962 353.658795 
L 626.603955 353.266695 
L 627.430948 354.341453 
L 628.257941 354.010869 
L 629.084934 354.878562 
L 629.911927 354.911364 
L 630.738919 355.230365 
L 631.565912 355.818387 
L 632.392905 355.608416 
L 633.219898 356.627536 
L 634.046891 355.974545 
L 634.873884 357.198305 
L 635.700877 356.532232 
L 636.52787 357.467115 
L 637.354862 357.371727 
L 638.181855 357.680777 
L 639.008848 358.247046 
L 639.835841 357.853299 
L 640.662834 358.94885 
L 641.489827 358.23847 
L 642.31682 359.42833 
L 643.143812 359.092177 
L 643.970805 359.800288 
L 644.797798 360.001163 
L 645.624791 360.044454 
L 646.451784 360.655709 
L 647.278777 360.383489 
L 648.10577 361.21242 
L 648.932762 361.047685 
L 649.759755 361.641374 
L 650.586748 361.860936 
L 651.413741 361.744607 
L 652.240734 362.460848 
L 653.067727 362.107326 
L 653.89472 362.932426 
L 654.721713 362.822314 
L 656.375698 363.574435 
L 657.202691 363.352602 
L 658.029684 364.147022 
L 658.856677 363.65525 
L 659.68367 364.699621 
L 660.510663 364.202505 
L 661.337655 364.925498 
L 662.164648 364.849701 
L 662.991641 364.99686 
L 663.818634 365.512815 
L 664.645627 365.245296 
L 665.47262 366.030187 
L 666.299613 365.506272 
L 667.126606 366.454935 
L 667.953598 365.858873 
L 668.780591 366.697835 
L 669.607584 366.334165 
L 670.434577 366.914701 
L 671.26157 366.897368 
L 672.088563 367.087925 
L 672.915556 367.39503 
L 673.742548 367.313528 
L 674.569541 367.898409 
L 675.396534 367.654373 
L 676.223527 368.26658 
L 677.05052 368.041796 
L 677.877513 368.710195 
L 678.704506 368.245713 
L 679.531498 369.041823 
L 680.358491 368.351291 
L 681.185484 369.145272 
L 682.012477 368.459404 
L 682.83947 369.044059 
L 683.666463 369.064679 
L 684.493456 368.89801 
L 685.320449 369.639265 
L 686.147441 368.951544 
L 686.974434 369.850022 
L 687.801427 369.530127 
L 688.62842 370.073617 
L 689.455413 370.025428 
L 690.282406 370.557366 
L 691.109399 370.439819 
L 691.936391 370.891012 
L 693.590377 370.962028 
L 694.41737 371.428604 
L 695.244363 371.141787 
L 696.071356 371.589819 
L 697.725341 371.626733 
L 698.552334 372.126535 
L 699.379327 371.892088 
L 701.033313 372.391822 
L 701.860306 372.279225 
L 702.687299 372.583037 
L 703.514292 372.735759 
L 704.341284 372.670262 
L 705.168277 373.055908 
L 706.822263 373.071259 
L 707.649256 373.510311 
L 708.476249 373.216276 
L 709.303242 373.709721 
L 710.130234 373.576752 
L 711.78422 373.979711 
L 712.611213 373.839272 
L 713.438206 374.255212 
L 714.265199 374.03642 
L 715.092192 374.55061 
L 715.919185 374.124618 
L 716.746177 374.763805 
L 717.57317 374.331281 
L 718.400163 374.844393 
L 719.227156 374.683704 
L 720.881142 375.119233 
L 721.708135 374.87512 
L 722.535127 375.49337 
L 723.36212 374.955409 
L 724.189113 375.779681 
L 725.016106 375.187745 
L 725.843099 375.946834 
L 726.670092 375.650754 
L 727.497085 376.007562 
L 728.324077 376.100674 
L 729.15107 376.008794 
L 729.978063 376.532402 
L 730.805056 376.05737 
L 731.632049 376.822296 
L 732.459042 376.298648 
L 733.286035 376.937999 
L 734.113028 376.633022 
L 734.94002 376.910255 
L 735.767013 376.997986 
L 736.594006 376.923945 
L 737.420999 377.316272 
L 738.247992 376.984208 
L 739.074985 377.55384 
L 739.901978 377.109998 
L 740.72897 377.740714 
L 741.555963 377.302547 
L 742.382956 377.859626 
L 743.209949 377.442944 
L 744.036942 377.903007 
L 744.863935 377.57629 
L 745.690928 377.907855 
L 746.51792 377.831425 
L 747.344913 377.922788 
L 748.171906 378.208678 
L 748.998899 377.9037 
L 749.825892 378.558813 
L 750.652885 377.961161 
L 751.479878 378.795305 
L 752.306871 378.147629 
L 753.133863 378.900744 
L 753.960856 378.541596 
L 754.787849 378.900488 
L 755.614842 378.948536 
L 756.441835 378.830909 
L 757.268828 379.296036 
L 758.095821 378.850166 
L 758.922813 379.540112 
L 759.749806 379.08444 
L 760.576799 379.645533 
L 761.403792 379.462921 
L 763.057778 379.816886 
L 763.884771 379.67689 
L 764.711764 380.119996 
L 765.538756 379.738932 
L 766.365749 380.378095 
L 767.192742 379.794486 
L 768.019735 380.48338 
L 768.846728 379.870168 
L 769.673721 380.422334 
L 770.500714 380.089377 
L 772.154699 380.461506 
L 772.981692 380.206122 
L 773.808685 380.763594 
L 774.635678 380.255245 
L 775.462671 380.979776 
L 776.289664 380.451759 
L 777.116656 381.211831 
L 777.943649 380.886809 
L 778.770642 381.233355 
L 779.597635 381.351997 
L 780.424628 381.088849 
L 781.251621 381.639895 
L 782.078614 381.159547 
L 782.905607 381.718742 
L 783.732599 381.467042 
L 785.386585 381.79989 
L 786.213578 381.574139 
L 787.040571 382.002298 
L 787.867564 381.592462 
L 788.694557 382.146741 
L 789.521549 381.79071 
L 790.348542 382.204916 
L 791.175535 382.050825 
L 792.829521 382.342709 
L 793.656514 382.2104 
L 794.483507 382.564227 
L 795.310499 382.276636 
L 796.137492 382.80952 
L 796.964485 382.383475 
L 797.791478 382.906659 
L 798.618471 382.476192 
L 799.445464 382.894088 
L 800.272457 382.588962 
L 801.09945 382.910678 
L 801.926442 382.750889 
L 803.580428 383.044553 
L 804.407421 382.85095 
L 805.234414 383.337219 
L 806.061407 382.870459 
L 806.8884 383.621869 
L 807.715392 383.027372 
L 808.542385 383.735848 
L 809.369378 383.236206 
L 810.196371 383.710031 
L 811.023364 383.562954 
L 811.850357 383.644541 
L 812.67735 383.882248 
L 813.504343 383.610437 
L 814.331335 384.124626 
L 815.158328 383.611917 
L 815.985321 384.239193 
L 816.812314 383.761375 
L 817.639307 384.261404 
L 818.4663 384.023989 
L 819.293293 384.230689 
L 820.947278 384.213542 
L 821.774271 384.490546 
L 822.601264 384.246807 
L 823.428257 384.757079 
L 824.25525 384.331086 
L 825.082243 384.915815 
L 825.909235 384.441255 
L 826.736228 384.921139 
L 827.563221 384.553046 
L 828.390214 384.913932 
L 829.217207 384.718205 
L 830.0442 384.899988 
L 830.871193 384.95906 
L 831.698186 384.82261 
L 832.525178 385.249862 
L 833.352171 384.845711 
L 834.179164 385.47997 
L 835.006157 385.003709 
L 835.83315 385.588397 
L 836.660143 385.222846 
L 837.487136 385.630281 
L 838.314128 385.419324 
L 839.141121 385.610769 
L 839.968114 385.683942 
L 840.795107 385.59192 
L 841.6221 385.895537 
L 842.449093 385.623914 
L 843.276086 386.047148 
L 844.103078 385.720069 
L 844.930071 386.144047 
L 845.757064 385.795258 
L 846.584057 386.207573 
L 847.41105 385.843525 
L 848.238043 386.214901 
L 849.065036 385.87098 
L 849.892029 386.183617 
L 850.719021 386.020734 
L 852.373007 386.241818 
L 852.373007 386.241818 
" clip-path="url(#p4f2a12318e)" style="fill: none; stroke-dasharray: 7.4,3.2; stroke-dashoffset: 0; stroke: #000000; stroke-width: 2"/>
   </g>
   <g id="patch_3">
    <path d="M 41.92 404.12 
L 41.92 10.8 
" style="fill: none; stroke: #000000; stroke-width: 0.8; stroke-linejoin: miter; stroke-linecap: square"/>
   </g>
   <g id="patch_4">
    <path d="M 853.2 404.12 
L 853.2 10.8 
" style="fill: none; stroke: #000000; stroke-width: 0.8; stroke-linejoin: miter; stroke-linecap: square"/>
   </g>
   <g id="patch_5">
    <path d="M 41.92 404.12 
L 853.2 404.12 
" style="fill: none; stroke: #000000; stroke-width: 0.8; stroke-linejoin: miter; stroke-linecap: square"/>
   </g>
   <g id="patch_6">
    <path d="M 41.92 10.8 
L 853.2 10.8 
" style="fill: none; stroke: #000000; stroke-width: 0.8; stroke-linejoin: miter; stroke-linecap: square"/>
   </g>
  </g>
 </g>
 <defs>
  <clipPath id="p4f2a12318e">
   <rect x="41.92" y="10.8" width="811.28" height="393.32"/>
  </clipPath>
 </defs>
</svg>
