<?xml version="1.0" encoding="utf-8" standalone="no"?>
<!DOCTYPE svg PUBLIC "-//W3C//DTD SVG 1.1//EN"
  "http://www.w3.org/Graphics/SVG/1.1/DTD/svg11.dtd">
<svg xmlns:xlink="http://www.w3.org/1999/xlink" width="864pt" height="432pt" viewBox="0 0 864 432" xmlns="http://www.w3.org/2000/svg" version="1.1">
 <metadata>
  <rdf:RDF xmlns:dc="http://purl.org/dc/elements/1.1/" xmlns:cc="http://creativecommons.org/ns#" xmlns:rdf="http://www.w3.org/1999/02/22-rdf-syntax-ns#">
   <cc:Work>
    <dc:type rdf:resource="http://purl.org/dc/dcmitype/StillImage"/>
    <dc:date>2024-09-19T09:34:45.046765</dc:date>
    <dc:format>image/svg+xml</dc:format>
    <dc:creator>
     <cc:Agent>
      <dc:title>Matplotlib v3.9.2, https://matplotlib.org/</dc:title>
     </cc:Agent>
    </dc:creator>
   </cc:Work>
  </rdf:RDF>
 </metadata>
 <defs>
  <style type="text/css">*{stroke-linejoin: round; stroke-linecap: butt}</style>
 </defs>
 <g id="figure_1">
  <g id="patch_1">
   <path d="M 0 432 
L 864 432 
L 864 0 
L 0 0 
z
" style="fill: #ffffff"/>
  </g>
  <g id="axes_1">
   <g id="patch_2">
    <path d="M 41.92 404.12 
L 853.2 404.12 
L 853.2 10.8 
L 41.92 10.8 
z
" style="fill: #ffffff"/>
   </g>
   <g id="matplotlib.axis_1">
    <g id="xtick_1">
     <g id="line2d_1">
      <defs>
       <path id="mbfda03729d" d="M 0 0 
L 0 3.5 
" style="stroke: #000000; stroke-width: 0.8"/>
      </defs>
      <g>
       <use xlink:href="#mbfda03729d" x="199.048644" y="404.12" style="stroke: #000000; stroke-width: 0.8"/>
      </g>
     </g>
     <g id="text_1">
      <!-- 200 -->
      <g transform="translate(190.018175 418.771563) scale(0.1 -0.1)">
       <defs>
        <path id="DejaVuSansMono-32" d="M 1166 531 
L 3309 531 
L 3309 0 
L 475 0 
L 475 531 
Q 1059 1147 1496 1619 
Q 1934 2091 2100 2284 
Q 2413 2666 2522 2902 
Q 2631 3138 2631 3384 
Q 2631 3775 2401 3997 
Q 2172 4219 1772 4219 
Q 1488 4219 1175 4116 
Q 863 4013 513 3803 
L 513 4441 
Q 834 4594 1145 4672 
Q 1456 4750 1759 4750 
Q 2444 4750 2861 4386 
Q 3278 4022 3278 3431 
Q 3278 3131 3139 2831 
Q 3000 2531 2688 2169 
Q 2513 1966 2180 1606 
Q 1847 1247 1166 531 
z
" transform="scale(0.015625)"/>
        <path id="DejaVuSansMono-30" d="M 1509 2344 
Q 1509 2516 1629 2641 
Q 1750 2766 1919 2766 
Q 2094 2766 2219 2641 
Q 2344 2516 2344 2344 
Q 2344 2169 2220 2047 
Q 2097 1925 1919 1925 
Q 1744 1925 1626 2044 
Q 1509 2163 1509 2344 
z
M 1925 4250 
Q 1484 4250 1267 3775 
Q 1050 3300 1050 2328 
Q 1050 1359 1267 884 
Q 1484 409 1925 409 
Q 2369 409 2586 884 
Q 2803 1359 2803 2328 
Q 2803 3300 2586 3775 
Q 2369 4250 1925 4250 
z
M 1925 4750 
Q 2672 4750 3055 4137 
Q 3438 3525 3438 2328 
Q 3438 1134 3055 521 
Q 2672 -91 1925 -91 
Q 1178 -91 797 521 
Q 416 1134 416 2328 
Q 416 3525 797 4137 
Q 1178 4750 1925 4750 
z
" transform="scale(0.015625)"/>
       </defs>
       <use xlink:href="#DejaVuSansMono-32"/>
       <use xlink:href="#DejaVuSansMono-30" x="60.205078"/>
       <use xlink:href="#DejaVuSansMono-30" x="120.410156"/>
      </g>
     </g>
    </g>
    <g id="xtick_2">
     <g id="line2d_2">
      <g>
       <use xlink:href="#mbfda03729d" x="364.447217" y="404.12" style="stroke: #000000; stroke-width: 0.8"/>
      </g>
     </g>
     <g id="text_2">
      <!-- 400 -->
      <g transform="translate(355.416748 418.771563) scale(0.1 -0.1)">
       <defs>
        <path id="DejaVuSansMono-34" d="M 2297 4091 
L 825 1625 
L 2297 1625 
L 2297 4091 
z
M 2194 4666 
L 2925 4666 
L 2925 1625 
L 3547 1625 
L 3547 1113 
L 2925 1113 
L 2925 0 
L 2297 0 
L 2297 1113 
L 319 1113 
L 319 1709 
L 2194 4666 
z
" transform="scale(0.015625)"/>
       </defs>
       <use xlink:href="#DejaVuSansMono-34"/>
       <use xlink:href="#DejaVuSansMono-30" x="60.205078"/>
       <use xlink:href="#DejaVuSansMono-30" x="120.410156"/>
      </g>
     </g>
    </g>
    <g id="xtick_3">
     <g id="line2d_3">
      <g>
       <use xlink:href="#mbfda03729d" x="529.84579" y="404.12" style="stroke: #000000; stroke-width: 0.8"/>
      </g>
     </g>
     <g id="text_3">
      <!-- 600 -->
      <g transform="translate(520.815321 418.771563) scale(0.1 -0.1)">
       <defs>
        <path id="DejaVuSansMono-36" d="M 3097 4563 
L 3097 3981 
Q 2900 4097 2678 4158 
Q 2456 4219 2216 4219 
Q 1616 4219 1306 3767 
Q 997 3316 997 2438 
Q 1147 2750 1412 2917 
Q 1678 3084 2022 3084 
Q 2697 3084 3067 2670 
Q 3438 2256 3438 1497 
Q 3438 741 3056 325 
Q 2675 -91 1984 -91 
Q 1172 -91 794 492 
Q 416 1075 416 2328 
Q 416 3509 870 4129 
Q 1325 4750 2188 4750 
Q 2419 4750 2650 4701 
Q 2881 4653 3097 4563 
z
M 1972 2591 
Q 1569 2591 1337 2300 
Q 1106 2009 1106 1497 
Q 1106 984 1337 693 
Q 1569 403 1972 403 
Q 2391 403 2603 679 
Q 2816 956 2816 1497 
Q 2816 2041 2603 2316 
Q 2391 2591 1972 2591 
z
" transform="scale(0.015625)"/>
       </defs>
       <use xlink:href="#DejaVuSansMono-36"/>
       <use xlink:href="#DejaVuSansMono-30" x="60.205078"/>
       <use xlink:href="#DejaVuSansMono-30" x="120.410156"/>
      </g>
     </g>
    </g>
    <g id="xtick_4">
     <g id="line2d_4">
      <g>
       <use xlink:href="#mbfda03729d" x="695.244363" y="404.12" style="stroke: #000000; stroke-width: 0.8"/>
      </g>
     </g>
     <g id="text_4">
      <!-- 800 -->
      <g transform="translate(686.213894 418.771563) scale(0.1 -0.1)">
       <defs>
        <path id="DejaVuSansMono-38" d="M 1925 2216 
Q 1503 2216 1273 1980 
Q 1044 1744 1044 1313 
Q 1044 881 1276 642 
Q 1509 403 1925 403 
Q 2350 403 2579 639 
Q 2809 875 2809 1313 
Q 2809 1741 2576 1978 
Q 2344 2216 1925 2216 
z
M 1375 2478 
Q 972 2581 745 2862 
Q 519 3144 519 3541 
Q 519 4097 897 4423 
Q 1275 4750 1925 4750 
Q 2578 4750 2956 4423 
Q 3334 4097 3334 3541 
Q 3334 3144 3107 2862 
Q 2881 2581 2478 2478 
Q 2947 2375 3195 2062 
Q 3444 1750 3444 1253 
Q 3444 622 3041 265 
Q 2638 -91 1925 -91 
Q 1213 -91 811 264 
Q 409 619 409 1247 
Q 409 1747 657 2061 
Q 906 2375 1375 2478 
z
M 1147 3481 
Q 1147 3106 1347 2909 
Q 1547 2713 1925 2713 
Q 2306 2713 2506 2909 
Q 2706 3106 2706 3481 
Q 2706 3863 2507 4063 
Q 2309 4263 1925 4263 
Q 1547 4263 1347 4061 
Q 1147 3859 1147 3481 
z
" transform="scale(0.015625)"/>
       </defs>
       <use xlink:href="#DejaVuSansMono-38"/>
       <use xlink:href="#DejaVuSansMono-30" x="60.205078"/>
       <use xlink:href="#DejaVuSansMono-30" x="120.410156"/>
      </g>
     </g>
    </g>
   </g>
   <g id="matplotlib.axis_2">
    <g id="ytick_1">
     <g id="line2d_5">
      <defs>
       <path id="mae2bb1ae72" d="M 0 0 
L -3.5 0 
" style="stroke: #000000; stroke-width: 0.8"/>
      </defs>
      <g>
       <use xlink:href="#mae2bb1ae72" x="41.92" y="393.109365" style="stroke: #000000; stroke-width: 0.8"/>
      </g>
     </g>
     <g id="text_5">
      <!-- 0.00 -->
      <g transform="translate(10.83875 396.935147) scale(0.1 -0.1)">
       <defs>
        <path id="DejaVuSansMono-2e" d="M 1528 953 
L 2316 953 
L 2316 0 
L 1528 0 
L 1528 953 
z
" transform="scale(0.015625)"/>
       </defs>
       <use xlink:href="#DejaVuSansMono-30"/>
       <use xlink:href="#DejaVuSansMono-2e" x="60.205078"/>
       <use xlink:href="#DejaVuSansMono-30" x="120.410156"/>
       <use xlink:href="#DejaVuSansMono-30" x="180.615234"/>
      </g>
     </g>
    </g>
    <g id="ytick_2">
     <g id="line2d_6">
      <g>
       <use xlink:href="#mae2bb1ae72" x="41.92" y="334.414044" style="stroke: #000000; stroke-width: 0.8"/>
      </g>
     </g>
     <g id="text_6">
      <!-- 0.02 -->
      <g transform="translate(10.83875 338.239825) scale(0.1 -0.1)">
       <use xlink:href="#DejaVuSansMono-30"/>
       <use xlink:href="#DejaVuSansMono-2e" x="60.205078"/>
       <use xlink:href="#DejaVuSansMono-30" x="120.410156"/>
       <use xlink:href="#DejaVuSansMono-32" x="180.615234"/>
      </g>
     </g>
    </g>
    <g id="ytick_3">
     <g id="line2d_7">
      <g>
       <use xlink:href="#mae2bb1ae72" x="41.92" y="275.718722" style="stroke: #000000; stroke-width: 0.8"/>
      </g>
     </g>
     <g id="text_7">
      <!-- 0.04 -->
      <g transform="translate(10.83875 279.544503) scale(0.1 -0.1)">
       <use xlink:href="#DejaVuSansMono-30"/>
       <use xlink:href="#DejaVuSansMono-2e" x="60.205078"/>
       <use xlink:href="#DejaVuSansMono-30" x="120.410156"/>
       <use xlink:href="#DejaVuSansMono-34" x="180.615234"/>
      </g>
     </g>
    </g>
    <g id="ytick_4">
     <g id="line2d_8">
      <g>
       <use xlink:href="#mae2bb1ae72" x="41.92" y="217.0234" style="stroke: #000000; stroke-width: 0.8"/>
      </g>
     </g>
     <g id="text_8">
      <!-- 0.06 -->
      <g transform="translate(10.83875 220.849181) scale(0.1 -0.1)">
       <use xlink:href="#DejaVuSansMono-30"/>
       <use xlink:href="#DejaVuSansMono-2e" x="60.205078"/>
       <use xlink:href="#DejaVuSansMono-30" x="120.410156"/>
       <use xlink:href="#DejaVuSansMono-36" x="180.615234"/>
      </g>
     </g>
    </g>
    <g id="ytick_5">
     <g id="line2d_9">
      <g>
       <use xlink:href="#mae2bb1ae72" x="41.92" y="158.328078" style="stroke: #000000; stroke-width: 0.8"/>
      </g>
     </g>
     <g id="text_9">
      <!-- 0.08 -->
      <g transform="translate(10.83875 162.153859) scale(0.1 -0.1)">
       <use xlink:href="#DejaVuSansMono-30"/>
       <use xlink:href="#DejaVuSansMono-2e" x="60.205078"/>
       <use xlink:href="#DejaVuSansMono-30" x="120.410156"/>
       <use xlink:href="#DejaVuSansMono-38" x="180.615234"/>
      </g>
     </g>
    </g>
    <g id="ytick_6">
     <g id="line2d_10">
      <g>
       <use xlink:href="#mae2bb1ae72" x="41.92" y="99.632756" style="stroke: #000000; stroke-width: 0.8"/>
      </g>
     </g>
     <g id="text_10">
      <!-- 0.10 -->
      <g transform="translate(10.83875 103.458537) scale(0.1 -0.1)">
       <defs>
        <path id="DejaVuSansMono-31" d="M 844 531 
L 1825 531 
L 1825 4097 
L 769 3859 
L 769 4434 
L 1819 4666 
L 2450 4666 
L 2450 531 
L 3419 531 
L 3419 0 
L 844 0 
L 844 531 
z
" transform="scale(0.015625)"/>
       </defs>
       <use xlink:href="#DejaVuSansMono-30"/>
       <use xlink:href="#DejaVuSansMono-2e" x="60.205078"/>
       <use xlink:href="#DejaVuSansMono-31" x="120.410156"/>
       <use xlink:href="#DejaVuSansMono-30" x="180.615234"/>
      </g>
     </g>
    </g>
    <g id="ytick_7">
     <g id="line2d_11">
      <g>
       <use xlink:href="#mae2bb1ae72" x="41.92" y="40.937434" style="stroke: #000000; stroke-width: 0.8"/>
      </g>
     </g>
     <g id="text_11">
      <!-- 0.12 -->
      <g transform="translate(10.83875 44.763216) scale(0.1 -0.1)">
       <use xlink:href="#DejaVuSansMono-30"/>
       <use xlink:href="#DejaVuSansMono-2e" x="60.205078"/>
       <use xlink:href="#DejaVuSansMono-31" x="120.410156"/>
       <use xlink:href="#DejaVuSansMono-32" x="180.615234"/>
      </g>
     </g>
    </g>
   </g>
   <g id="line2d_12">
    <path d="M 33.650071 96.100401 
L 34.477064 74.396671 
L 35.304057 78.990012 
L 36.13105 82.95235 
L 36.958043 75.173306 
L 37.785036 37.471504 
L 38.612029 34.769938 
L 39.439021 28.678182 
L 40.266014 59.263029 
L 41.093007 53.127027 
L 41.92 57.261739 
L 42.746993 83.080898 
L 44.400979 93.82404 
L 45.227971 95.299768 
L 46.054964 128.235575 
L 46.881957 128.088581 
L 47.70895 144.038366 
L 48.535943 120.336845 
L 49.362936 133.580289 
L 50.189929 131.033154 
L 51.016922 128.864819 
L 51.843914 115.884478 
L 52.670907 111.107904 
L 53.4979 104.88529 
L 54.324893 109.875205 
L 55.151886 117.207887 
L 55.978879 116.13467 
L 56.805872 141.069231 
L 57.632864 133.517222 
L 58.459857 139.642103 
L 59.28685 144.800531 
L 60.113843 159.009565 
L 60.940836 147.309486 
L 61.767829 161.905325 
L 62.594822 163.634281 
L 63.421814 161.91952 
L 64.248807 139.853374 
L 65.0758 133.222575 
L 65.902793 135.083391 
L 66.729786 138.170541 
L 67.556779 122.792395 
L 68.383772 117.190225 
L 69.210765 137.450678 
L 70.037757 115.913805 
L 70.86475 114.889064 
L 71.691743 95.09102 
L 72.518736 115.624773 
L 73.345729 125.584683 
L 74.172722 118.278295 
L 74.999715 113.995211 
L 75.826707 124.8928 
L 76.6537 137.396908 
L 77.480693 134.209703 
L 78.307686 150.980194 
L 79.134679 143.092762 
L 79.961672 165.10573 
L 80.788665 165.789856 
L 81.615657 155.962712 
L 82.44265 168.697298 
L 83.269643 172.944649 
L 84.096636 156.603071 
L 84.923629 146.694768 
L 85.750622 131.808808 
L 86.577615 134.876174 
L 87.404608 110.931736 
L 88.2316 111.30336 
L 89.058593 112.381954 
L 89.885586 120.346242 
L 90.712579 96.530538 
L 91.539572 98.044407 
L 92.366565 110.592242 
L 93.193558 118.434742 
L 94.02055 114.063432 
L 94.847543 112.42903 
L 95.674536 144.531178 
L 96.501529 144.733091 
L 97.328522 142.041827 
L 98.155515 143.776342 
L 98.982508 168.041591 
L 99.809501 158.392776 
L 100.636493 155.311027 
L 101.463486 155.715777 
L 102.290479 173.644405 
L 103.117472 175.496783 
L 103.944465 173.603072 
L 104.771458 173.461024 
L 105.598451 172.919677 
L 106.425443 172.803697 
L 107.252436 172.486741 
L 108.079429 176.912726 
L 108.906422 176.136087 
L 109.733415 178.215693 
L 110.560408 176.356968 
L 111.387401 161.031628 
L 112.214393 164.070346 
L 113.041386 154.461971 
L 113.868379 151.859105 
L 114.695372 152.3168 
L 115.522365 141.043491 
L 116.349358 142.477335 
L 117.176351 157.887504 
L 118.003344 154.809707 
L 118.830336 160.61654 
L 119.657329 164.734072 
L 120.484322 161.543262 
L 121.311315 166.005529 
L 122.138308 171.862199 
L 122.965301 172.349037 
L 123.792294 183.103538 
L 124.619286 185.486214 
L 125.446279 185.731942 
L 126.273272 188.66347 
L 127.100265 176.664285 
L 127.927258 190.06525 
L 128.754251 192.374918 
L 129.581244 198.042494 
L 130.408236 189.047493 
L 131.235229 181.822323 
L 132.062222 181.923282 
L 132.889215 181.206193 
L 133.716208 176.921303 
L 134.543201 176.140699 
L 135.370194 190.399833 
L 136.197187 186.034201 
L 137.024179 186.155359 
L 137.851172 175.764234 
L 138.678165 185.542274 
L 139.505158 192.876169 
L 140.332151 190.291008 
L 141.159144 191.147259 
L 141.986137 180.732312 
L 142.813129 181.747024 
L 143.640122 178.408678 
L 144.467115 182.504038 
L 145.294108 180.017204 
L 146.121101 185.377277 
L 146.948094 184.438094 
L 147.775087 172.330971 
L 148.60208 175.174839 
L 149.429072 176.581295 
L 150.256065 187.815657 
L 151.083058 186.280799 
L 151.910051 190.011451 
L 152.737044 183.290443 
L 153.564037 186.327092 
L 154.39103 191.614647 
L 155.218022 187.306905 
L 156.045015 197.647388 
L 156.872008 194.542131 
L 157.699001 194.060269 
L 158.525994 190.687535 
L 159.352987 188.140877 
L 160.17998 183.180356 
L 161.006972 189.513446 
L 161.833965 170.831151 
L 162.660958 170.43466 
L 163.487951 171.898304 
L 164.314944 155.946735 
L 165.141937 151.324255 
L 165.96893 149.748772 
L 166.795923 156.365351 
L 168.449908 166.062423 
L 169.276901 161.205346 
L 170.103894 180.169141 
L 170.930887 172.187476 
L 171.75788 174.992556 
L 172.584873 192.178615 
L 173.411865 189.466952 
L 174.238858 190.535393 
L 175.065851 189.329273 
L 175.892844 176.837794 
L 176.719837 175.894084 
L 177.54683 181.205162 
L 178.373823 180.95507 
L 179.200815 182.754666 
L 180.027808 182.106805 
L 180.854801 176.169684 
L 181.681794 186.524747 
L 182.508787 186.429912 
L 183.33578 187.71642 
L 184.162773 196.050309 
L 184.989766 197.16935 
L 185.816758 197.28739 
L 186.643751 192.759676 
L 187.470744 199.363652 
L 188.297737 198.48181 
L 189.12473 204.948456 
L 189.951723 205.581353 
L 190.778716 195.576167 
L 191.605708 195.475434 
L 192.432701 196.461309 
L 193.259694 193.485468 
L 194.086687 183.928594 
L 194.91368 184.450226 
L 195.740673 182.54077 
L 196.567666 185.521493 
L 197.394659 174.895842 
L 198.221651 170.075671 
L 199.048644 179.440147 
L 199.875637 173.090137 
L 200.70263 175.111628 
L 201.529623 177.834524 
L 202.356616 170.179417 
L 203.183609 173.966066 
L 204.010601 174.22458 
L 204.837594 173.379138 
L 205.664587 181.938982 
L 206.49158 187.417577 
L 207.318573 187.189516 
L 208.145566 184.85325 
L 208.972559 185.409028 
L 209.799551 185.074898 
L 210.626544 201.7413 
L 211.453537 202.163086 
L 212.28053 199.747209 
L 213.107523 199.11138 
L 213.934516 199.398759 
L 214.761509 198.71671 
L 215.588502 197.769109 
L 216.415494 203.918978 
L 217.242487 202.892768 
L 218.06948 202.545336 
L 218.896473 200.884449 
L 219.723466 200.155142 
L 220.550459 203.138743 
L 221.377452 203.182651 
L 222.204444 204.634069 
L 223.031437 205.346058 
L 223.85843 208.006516 
L 224.685423 209.661759 
L 225.512416 210.517023 
L 226.339409 211.079099 
L 227.166402 212.939276 
L 227.993394 210.334544 
L 228.820387 211.42498 
L 230.474373 211.726835 
L 231.301366 209.941485 
L 232.128359 209.753645 
L 232.955352 207.683513 
L 233.782345 205.9501 
L 234.609337 206.178133 
L 235.43633 206.184865 
L 236.263323 208.253291 
L 237.090316 201.8544 
L 237.917309 203.059308 
L 238.744302 203.389149 
L 239.571295 204.676136 
L 240.398287 204.948467 
L 242.052273 209.836605 
L 242.879266 210.200115 
L 243.706259 210.410744 
L 244.533252 211.692354 
L 245.360245 216.628512 
L 246.187238 214.218526 
L 247.01423 214.247578 
L 247.841223 214.687527 
L 248.668216 214.954086 
L 249.495209 215.397003 
L 250.322202 214.281545 
L 251.149195 214.083041 
L 251.976188 213.398571 
L 252.80318 213.275379 
L 253.630173 213.655719 
L 254.457166 216.540485 
L 255.284159 216.688975 
L 256.111152 216.638471 
L 256.938145 216.091408 
L 257.765138 216.609056 
L 258.59213 217.298549 
L 259.419123 216.129476 
L 260.246116 216.931356 
L 261.073109 216.988097 
L 261.900102 217.688968 
L 262.727095 217.701821 
L 263.554088 217.552767 
L 264.381081 217.212571 
L 265.208073 217.705902 
L 266.035066 217.198208 
L 266.862059 217.019372 
L 267.689052 213.545555 
L 268.516045 213.465686 
L 269.343038 213.59441 
L 270.170031 213.909353 
L 270.997023 213.421279 
L 271.824016 213.412523 
L 272.651009 213.150841 
L 273.478002 211.997 
L 274.304995 212.644833 
L 275.131988 212.726016 
L 275.958981 217.501844 
L 276.785973 217.824144 
L 277.612966 217.738163 
L 280.093945 218.013565 
L 280.920938 218.673825 
L 281.747931 219.612686 
L 282.574924 218.80914 
L 283.401916 219.544744 
L 284.228909 219.166887 
L 285.055902 218.937716 
L 285.882895 218.548901 
L 286.709888 218.341771 
L 288.363874 218.476738 
L 289.190866 217.193228 
L 290.017859 217.352016 
L 290.844852 217.927653 
L 291.671845 217.637534 
L 292.498838 217.884727 
L 293.325831 216.773527 
L 294.152824 217.284528 
L 294.979817 217.376065 
L 295.806809 217.059174 
L 296.633802 217.173398 
L 297.460795 218.68621 
L 299.114781 218.35402 
L 299.941774 217.940141 
L 300.768767 218.259711 
L 301.595759 220.003412 
L 303.249745 219.990827 
L 304.076738 220.446655 
L 305.730724 220.217237 
L 306.557717 220.655845 
L 307.384709 220.877937 
L 308.211702 221.551119 
L 309.038695 221.499036 
L 309.865688 220.606616 
L 310.692681 220.868455 
L 311.519674 220.693615 
L 312.346667 220.778948 
L 314.000652 221.759312 
L 314.827645 221.19643 
L 315.654638 221.387868 
L 316.481631 221.153807 
L 317.308624 221.221738 
L 318.135617 221.660835 
L 318.96261 221.269909 
L 320.616595 219.578746 
L 321.443588 219.556865 
L 322.270581 218.926161 
L 324.75156 219.230401 
L 325.578552 218.671966 
L 326.405545 218.985708 
L 327.232538 219.765357 
L 328.059531 221.254559 
L 328.886524 221.597204 
L 329.713517 221.733363 
L 330.54051 221.403822 
L 331.367503 221.741926 
L 332.194495 221.940145 
L 333.021488 220.488698 
L 333.848481 221.30633 
L 335.502467 220.026735 
L 336.32946 220.537863 
L 337.156453 219.988921 
L 337.983445 219.185899 
L 338.810438 220.579733 
L 339.637431 220.800429 
L 340.464424 220.600819 
L 341.291417 222.583786 
L 342.11841 223.489506 
L 342.945403 224.7811 
L 343.772396 225.849675 
L 344.599388 226.178417 
L 345.426381 228.711486 
L 346.253374 230.022523 
L 347.90736 230.787423 
L 349.561346 234.13287 
L 350.388338 233.432573 
L 351.215331 233.750027 
L 352.042324 234.402513 
L 352.869317 234.520672 
L 353.69631 235.654671 
L 354.523303 238.179621 
L 355.350296 241.347309 
L 356.177288 244.005408 
L 357.004281 243.586441 
L 357.831274 244.271768 
L 358.658267 248.322263 
L 359.48526 251.288302 
L 360.312253 251.745466 
L 361.139246 253.402271 
L 361.966239 254.545129 
L 362.793231 256.020948 
L 363.620224 256.503112 
L 364.447217 259.000514 
L 365.27421 262.303812 
L 366.101203 266.072982 
L 366.928196 264.092713 
L 367.755189 264.549663 
L 368.582181 268.163673 
L 370.236167 272.341175 
L 371.06316 273.436419 
L 371.890153 274.877519 
L 372.717146 274.573495 
L 373.544139 277.229092 
L 374.371131 275.474621 
L 376.025117 279.840116 
L 376.85211 279.676991 
L 378.506096 284.692513 
L 379.333089 286.010974 
L 380.160082 286.718994 
L 380.987074 288.666311 
L 381.814067 289.585329 
L 382.64106 290.854916 
L 383.468053 291.597725 
L 384.295046 293.425438 
L 385.122039 293.880025 
L 386.776024 293.921681 
L 387.603017 294.798239 
L 388.43001 295.482781 
L 389.257003 295.666516 
L 390.083996 295.966385 
L 390.910989 294.761403 
L 391.737982 298.077244 
L 392.564975 298.360806 
L 393.391967 301.907755 
L 394.21896 304.430302 
L 395.045953 304.507273 
L 395.872946 305.591553 
L 396.699939 304.777012 
L 397.526932 308.044492 
L 398.353925 307.638832 
L 399.180917 311.746023 
L 400.00791 310.111393 
L 400.834903 311.747769 
L 401.661896 313.085465 
L 402.488889 310.289962 
L 403.315882 311.235499 
L 404.142875 310.670869 
L 404.969867 312.688346 
L 405.79686 312.638963 
L 407.450846 315.980586 
L 408.277839 319.295765 
L 409.931825 316.820223 
L 410.758818 320.443354 
L 411.58581 320.67452 
L 412.412803 323.467673 
L 413.239796 325.515718 
L 414.066789 324.769945 
L 414.893782 326.121141 
L 415.720775 325.755536 
L 416.547768 325.625306 
L 417.37476 329.410761 
L 418.201753 332.344602 
L 419.028746 333.127792 
L 419.855739 335.545134 
L 420.682732 335.370829 
L 421.509725 336.117911 
L 422.336718 335.862134 
L 423.16371 335.865846 
L 423.990703 336.37647 
L 424.817696 337.805235 
L 425.644689 335.518494 
L 426.471682 334.803247 
L 427.298675 335.673626 
L 428.125668 335.862971 
L 428.952661 337.103727 
L 429.779653 339.436902 
L 430.606646 340.664856 
L 431.433639 341.494844 
L 432.260632 343.571019 
L 433.087625 344.337347 
L 433.914618 346.264037 
L 434.741611 347.11876 
L 435.568603 347.700943 
L 436.395596 346.184088 
L 437.222589 346.783509 
L 438.049582 345.701863 
L 438.876575 347.253151 
L 439.703568 345.118333 
L 440.530561 345.611664 
L 441.357554 346.306824 
L 442.184546 346.262302 
L 443.011539 344.959412 
L 443.838532 345.793286 
L 444.665525 348.738794 
L 445.492518 348.709636 
L 446.319511 349.184936 
L 447.146504 350.100861 
L 447.973496 353.298921 
L 448.800489 352.751023 
L 449.627482 352.366151 
L 450.454475 353.03383 
L 451.281468 354.258982 
L 452.108461 354.889781 
L 452.935454 355.070487 
L 453.762446 354.514608 
L 454.589439 355.589082 
L 456.243425 358.214596 
L 458.724404 363.835709 
L 459.551397 366.399905 
L 460.378389 366.772992 
L 461.205382 367.760674 
L 462.032375 369.763641 
L 462.859368 370.290975 
L 463.686361 369.237622 
L 464.513354 368.801856 
L 466.994332 366.582559 
L 467.821325 364.313518 
L 468.648318 364.612431 
L 469.475311 363.510552 
L 471.129297 363.507014 
L 471.95629 364.953337 
L 472.783282 365.993504 
L 473.610275 365.689164 
L 474.437268 367.121251 
L 475.264261 367.616485 
L 476.091254 369.444949 
L 476.918247 369.593325 
L 477.74524 370.947718 
L 478.572232 371.828868 
L 479.399225 371.945479 
L 480.226218 370.547805 
L 481.053211 371.071407 
L 481.880204 372.695865 
L 482.707197 372.857967 
L 484.361182 373.876912 
L 485.188175 373.795752 
L 486.015168 372.437749 
L 486.842161 372.502948 
L 487.669154 373.310248 
L 488.496147 374.897553 
L 489.32314 375.137221 
L 490.150133 373.059465 
L 490.977125 371.386487 
L 491.804118 371.959907 
L 492.631111 372.162543 
L 493.458104 372.987547 
L 494.285097 374.384482 
L 495.939083 373.13539 
L 496.766075 372.859359 
L 497.593068 371.832333 
L 499.247054 373.153778 
L 500.074047 372.442411 
L 500.90104 372.572407 
L 501.728033 372.014397 
L 502.555025 371.848974 
L 503.382018 373.03699 
L 504.209011 373.663029 
L 505.036004 373.698554 
L 505.862997 374.246384 
L 506.68999 376.149028 
L 507.516983 375.158379 
L 508.343976 375.255057 
L 509.170968 374.506317 
L 509.997961 372.955721 
L 510.824954 373.227713 
L 511.651947 373.036011 
L 512.47894 371.867439 
L 513.305933 372.617224 
L 514.132926 372.892067 
L 514.959918 372.384031 
L 515.786911 374.212844 
L 516.613904 374.827893 
L 517.440897 374.20105 
L 518.26789 376.304804 
L 519.921876 375.89133 
L 520.748869 377.386593 
L 521.575861 377.467407 
L 522.402854 377.096877 
L 523.229847 377.201083 
L 524.05684 376.894012 
L 524.883833 375.36964 
L 525.710826 376.449271 
L 526.537819 376.2285 
L 527.364811 376.743838 
L 528.191804 376.911948 
L 529.018797 376.790551 
L 529.84579 376.363411 
L 530.672783 376.200946 
L 532.326769 376.914463 
L 533.153761 378.432186 
L 533.980754 378.801163 
L 536.461733 375.126488 
L 537.288726 373.469777 
L 538.942712 373.107822 
L 539.769704 371.127995 
L 540.596697 370.296405 
L 541.42369 370.107925 
L 542.250683 368.536132 
L 543.077676 369.390223 
L 543.904669 370.066871 
L 544.731662 371.05391 
L 545.558654 372.433941 
L 546.385647 372.447714 
L 547.21264 372.761914 
L 548.039633 374.580132 
L 548.866626 375.447466 
L 549.693619 373.389286 
L 550.520612 375.207343 
L 552.174597 376.389557 
L 553.00159 376.059394 
L 553.828583 376.48207 
L 554.655576 377.046084 
L 555.482569 377.376962 
L 556.309562 376.548766 
L 557.136555 376.851686 
L 557.963547 378.917282 
L 558.79054 378.15394 
L 561.271519 377.530086 
L 562.098512 376.577824 
L 562.925505 376.77747 
L 563.752497 377.308324 
L 564.57949 378.020867 
L 565.406483 377.262405 
L 566.233476 376.984068 
L 567.060469 377.045617 
L 567.887462 376.724687 
L 568.714455 377.341365 
L 569.541448 378.680284 
L 570.36844 378.389813 
L 571.195433 375.761458 
L 572.022426 375.217971 
L 572.849419 374.880959 
L 574.503405 377.005214 
L 575.330398 377.814502 
L 576.15739 378.468044 
L 576.984383 377.567347 
L 577.811376 377.517338 
L 578.638369 378.479045 
L 579.465362 381.018612 
L 580.292355 381.650856 
L 581.119348 382.56769 
L 582.773333 381.716403 
L 583.600326 381.69477 
L 584.427319 381.429415 
L 586.081305 381.249934 
L 586.908298 380.705957 
L 587.735291 380.554435 
L 588.562283 380.549358 
L 589.389276 379.387268 
L 590.216269 377.986526 
L 591.043262 377.880486 
L 591.870255 377.90794 
L 592.697248 378.325801 
L 593.524241 379.028562 
L 594.351233 378.23703 
L 595.178226 378.792174 
L 596.005219 378.931056 
L 596.832212 378.731239 
L 597.659205 378.127131 
L 598.486198 379.182069 
L 599.313191 379.14549 
L 600.140183 379.430106 
L 600.967176 379.153196 
L 601.794169 379.532292 
L 602.621162 379.502274 
L 603.448155 379.593729 
L 605.102141 380.141393 
L 605.929134 381.807239 
L 606.756126 382.341668 
L 607.583119 382.399335 
L 608.410112 381.447234 
L 609.237105 381.871346 
L 610.064098 381.811917 
L 610.891091 382.639449 
L 611.718084 383.006036 
L 612.545076 382.992368 
L 613.372069 383.250616 
L 614.199062 383.093651 
L 615.026055 381.526696 
L 615.853048 381.533418 
L 616.680041 382.021605 
L 617.507034 381.564173 
L 618.334027 381.432882 
L 619.161019 381.029806 
L 619.988012 378.939031 
L 620.815005 378.782802 
L 621.641998 378.384562 
L 622.468991 378.717588 
L 623.295984 378.227399 
L 624.122977 378.653005 
L 624.949969 378.824302 
L 625.776962 378.538949 
L 626.603955 377.954487 
L 627.430948 377.635998 
L 628.257941 378.209467 
L 629.084934 377.82105 
L 629.911927 377.850585 
L 630.738919 377.655875 
L 631.565912 379.845175 
L 632.392905 379.661677 
L 633.219898 378.548406 
L 634.046891 379.102368 
L 634.873884 379.305596 
L 635.700877 379.908809 
L 636.52787 380.861182 
L 637.354862 380.990113 
L 639.008848 381.484076 
L 639.835841 381.582339 
L 640.662834 381.916444 
L 641.489827 383.262646 
L 642.31682 383.198719 
L 643.143812 383.749673 
L 643.970805 383.246124 
L 646.451784 382.16365 
L 647.278777 382.074465 
L 648.10577 381.818936 
L 648.932762 381.097403 
L 649.759755 379.155981 
L 650.586748 379.011999 
L 651.413741 378.754707 
L 652.240734 379.634178 
L 653.067727 380.284354 
L 653.89472 380.07495 
L 654.721713 379.653499 
L 655.548705 378.827811 
L 657.202691 379.370293 
L 658.029684 379.795921 
L 658.856677 379.520352 
L 659.68367 379.589687 
L 660.510663 379.173354 
L 661.337655 379.207967 
L 662.164648 380.01064 
L 662.991641 380.10271 
L 663.818634 380.863604 
L 664.645627 380.251039 
L 665.47262 380.506631 
L 666.299613 380.385106 
L 667.126606 380.53686 
L 667.953598 380.297471 
L 668.780591 380.868589 
L 669.607584 380.999941 
L 670.434577 379.993729 
L 671.26157 380.88575 
L 672.088563 380.996544 
L 672.915556 381.310848 
L 673.742548 380.936339 
L 674.569541 382.409082 
L 675.396534 382.739173 
L 676.223527 382.822139 
L 677.05052 382.162533 
L 677.877513 381.240113 
L 678.704506 382.038399 
L 679.531498 381.651882 
L 680.358491 380.138028 
L 681.185484 378.8746 
L 682.012477 378.630079 
L 682.83947 378.114985 
L 683.666463 377.905282 
L 684.493456 378.300077 
L 685.320449 378.172366 
L 686.147441 379.378703 
L 686.974434 379.413936 
L 687.801427 378.906632 
L 688.62842 379.136158 
L 689.455413 379.767728 
L 690.282406 380.091159 
L 691.109399 380.555201 
L 691.936391 380.423991 
L 692.763384 380.538285 
L 693.590377 381.105853 
L 694.41737 380.868447 
L 695.244363 381.340995 
L 696.898349 381.556365 
L 698.552334 382.606746 
L 699.379327 381.304247 
L 700.20632 381.695237 
L 701.033313 380.604907 
L 702.687299 377.684847 
L 703.514292 376.502587 
L 704.341284 376.777902 
L 705.168277 377.940911 
L 705.99527 377.755572 
L 706.822263 377.803193 
L 707.649256 379.329543 
L 708.476249 378.315607 
L 709.303242 378.667328 
L 711.78422 381.485375 
L 712.611213 381.109258 
L 713.438206 381.186788 
L 714.265199 379.85815 
L 715.092192 379.304311 
L 715.919185 379.440244 
L 716.746177 380.617785 
L 717.57317 381.440595 
L 718.400163 382.060791 
L 720.054149 381.70935 
L 720.881142 382.734465 
L 721.708135 382.332404 
L 722.535127 384.131922 
L 723.36212 384.429454 
L 724.189113 384.200935 
L 725.016106 384.271715 
L 726.670092 384.136584 
L 728.324077 385.021232 
L 729.15107 384.848121 
L 729.978063 385.178465 
L 730.805056 385.32989 
L 731.632049 379.605371 
L 732.459042 378.516385 
L 733.286035 378.389957 
L 734.113028 378.112401 
L 734.94002 376.834902 
L 736.594006 376.834568 
L 737.420999 375.961513 
L 738.247992 376.154394 
L 739.074985 375.974725 
L 739.901978 379.644674 
L 740.72897 380.099386 
L 741.555963 379.513506 
L 742.382956 379.898043 
L 743.209949 380.947583 
L 744.036942 380.409815 
L 744.863935 380.288977 
L 745.690928 380.729076 
L 747.344913 378.853074 
L 748.171906 379.996014 
L 749.825892 380.972791 
L 750.652885 380.515295 
L 751.479878 380.616613 
L 752.306871 381.396473 
L 753.960856 381.941206 
L 754.787849 382.668734 
L 756.441835 385.106396 
L 758.095821 385.015806 
L 758.922813 384.640352 
L 759.749806 384.777635 
L 760.576799 384.425397 
L 761.403792 383.044843 
L 762.230785 381.881136 
L 763.057778 381.953746 
L 763.884771 381.808418 
L 764.711764 380.637024 
L 765.538756 381.298469 
L 766.365749 380.683206 
L 767.192742 381.3258 
L 768.019735 381.026925 
L 768.846728 381.118883 
L 769.673721 382.162108 
L 770.500714 382.124086 
L 771.327706 382.516192 
L 772.154699 382.145388 
L 772.981692 383.030284 
L 773.808685 382.397079 
L 774.635678 383.231348 
L 775.462671 383.033316 
L 776.289664 383.121383 
L 777.943649 383.017299 
L 778.770642 384.223922 
L 779.597635 383.83048 
L 780.424628 384.183167 
L 781.251621 383.53855 
L 782.078614 383.874906 
L 782.905607 383.670113 
L 783.732599 383.343264 
L 784.559592 383.753094 
L 785.386585 383.71468 
L 786.213578 384.112573 
L 787.867564 384.232163 
L 788.694557 383.848079 
L 789.521549 384.055811 
L 790.348542 384.120678 
L 791.175535 383.374204 
L 792.002528 383.976084 
L 792.829521 383.684581 
L 793.656514 383.713993 
L 794.483507 382.754189 
L 796.137492 382.457117 
L 796.964485 382.891164 
L 798.618471 382.968675 
L 799.445464 383.725021 
L 800.272457 383.420211 
L 801.09945 382.370662 
L 801.926442 382.222278 
L 802.753435 382.687223 
L 803.580428 382.419151 
L 804.407421 382.880247 
L 805.234414 382.694798 
L 806.061407 382.382809 
L 806.8884 382.205762 
L 807.715392 382.414073 
L 808.542385 382.825576 
L 809.369378 383.66073 
L 811.023364 384.012822 
L 811.850357 384.888087 
L 812.67735 384.555816 
L 813.504343 384.947072 
L 814.331335 385.556653 
L 815.158328 385.611814 
L 815.985321 384.873399 
L 816.812314 384.710761 
L 817.639307 384.981906 
L 818.4663 385.46204 
L 819.293293 384.873631 
L 820.120285 384.053831 
L 821.774271 383.652695 
L 822.601264 383.595558 
L 823.428257 382.649852 
L 824.25525 383.054828 
L 825.082243 382.005465 
L 825.909235 382.021938 
L 826.736228 381.727106 
L 827.563221 382.441032 
L 828.390214 382.817565 
L 829.217207 383.487452 
L 830.0442 383.551294 
L 830.871193 383.300578 
L 831.698186 384.268757 
L 832.525178 384.760194 
L 833.352171 385.751985 
L 834.179164 385.896924 
L 835.006157 386.241818 
L 835.83315 384.724881 
L 836.660143 384.753796 
L 837.487136 384.996091 
L 838.314128 384.865398 
L 839.141121 385.377136 
L 839.968114 384.568415 
L 840.795107 384.454598 
L 841.6221 383.747356 
L 842.449093 382.345441 
L 843.276086 381.998962 
L 844.103078 382.377855 
L 844.930071 382.158491 
L 845.757064 381.672741 
L 846.584057 381.900579 
L 847.41105 381.639784 
L 848.238043 382.174154 
L 849.065036 381.976717 
L 849.892029 382.397961 
L 850.719021 383.660172 
L 851.546014 383.264266 
L 852.373007 383.923733 
L 852.373007 383.923733 
" clip-path="url(#p4b6a2663d7)" style="fill: none; stroke-dasharray: 7.4,3.2; stroke-dashoffset: 0; stroke: #000000; stroke-width: 2"/>
   </g>
   <g id="patch_3">
    <path d="M 41.92 404.12 
L 41.92 10.8 
" style="fill: none; stroke: #000000; stroke-width: 0.8; stroke-linejoin: miter; stroke-linecap: square"/>
   </g>
   <g id="patch_4">
    <path d="M 853.2 404.12 
L 853.2 10.8 
" style="fill: none; stroke: #000000; stroke-width: 0.8; stroke-linejoin: miter; stroke-linecap: square"/>
   </g>
   <g id="patch_5">
    <path d="M 41.92 404.12 
L 853.2 404.12 
" style="fill: none; stroke: #000000; stroke-width: 0.8; stroke-linejoin: miter; stroke-linecap: square"/>
   </g>
   <g id="patch_6">
    <path d="M 41.92 10.8 
L 853.2 10.8 
" style="fill: none; stroke: #000000; stroke-width: 0.8; stroke-linejoin: miter; stroke-linecap: square"/>
   </g>
  </g>
 </g>
 <defs>
  <clipPath id="p4b6a2663d7">
   <rect x="41.92" y="10.8" width="811.28" height="393.32"/>
  </clipPath>
 </defs>
</svg>
