<?xml version="1.0" encoding="utf-8" standalone="no"?>
<!DOCTYPE svg PUBLIC "-//W3C//DTD SVG 1.1//EN"
  "http://www.w3.org/Graphics/SVG/1.1/DTD/svg11.dtd">
<svg xmlns:xlink="http://www.w3.org/1999/xlink" width="864pt" height="432pt" viewBox="0 0 864 432" xmlns="http://www.w3.org/2000/svg" version="1.1">
 <metadata>
  <rdf:RDF xmlns:dc="http://purl.org/dc/elements/1.1/" xmlns:cc="http://creativecommons.org/ns#" xmlns:rdf="http://www.w3.org/1999/02/22-rdf-syntax-ns#">
   <cc:Work>
    <dc:type rdf:resource="http://purl.org/dc/dcmitype/StillImage"/>
    <dc:date>2024-09-24T22:18:13.497716</dc:date>
    <dc:format>image/svg+xml</dc:format>
    <dc:creator>
     <cc:Agent>
      <dc:title>Matplotlib v3.9.2, https://matplotlib.org/</dc:title>
     </cc:Agent>
    </dc:creator>
   </cc:Work>
  </rdf:RDF>
 </metadata>
 <defs>
  <style type="text/css">*{stroke-linejoin: round; stroke-linecap: butt}</style>
 </defs>
 <g id="figure_1">
  <g id="patch_1">
   <path d="M 0 432 
L 864 432 
L 864 0 
L 0 0 
z
" style="fill: #ffffff"/>
  </g>
  <g id="axes_1">
   <g id="patch_2">
    <path d="M 35.89 404.12 
L 853.2 404.12 
L 853.2 10.8 
L 35.89 10.8 
z
" style="fill: #ffffff"/>
   </g>
   <g id="matplotlib.axis_1">
    <g id="xtick_1">
     <g id="line2d_1">
      <defs>
       <path id="m1ab949e985" d="M 0 0 
L 0 3.5 
" style="stroke: #000000; stroke-width: 0.8"/>
      </defs>
      <g>
       <use xlink:href="#m1ab949e985" x="136.488317" y="404.12" style="stroke: #000000; stroke-width: 0.8"/>
      </g>
     </g>
     <g id="text_1">
      <!-- 500 -->
      <g transform="translate(127.457848 418.771563) scale(0.1 -0.1)">
       <defs>
        <path id="DejaVuSansMono-35" d="M 647 4666 
L 3009 4666 
L 3009 4134 
L 1222 4134 
L 1222 2988 
Q 1356 3038 1492 3061 
Q 1628 3084 1766 3084 
Q 2491 3084 2916 2656 
Q 3341 2228 3341 1497 
Q 3341 759 2895 334 
Q 2450 -91 1678 -91 
Q 1306 -91 998 -41 
Q 691 9 447 109 
L 447 750 
Q 734 594 1025 517 
Q 1316 441 1619 441 
Q 2141 441 2423 716 
Q 2706 991 2706 1497 
Q 2706 1997 2414 2275 
Q 2122 2553 1600 2553 
Q 1347 2553 1106 2495 
Q 866 2438 647 2322 
L 647 4666 
z
" transform="scale(0.015625)"/>
        <path id="DejaVuSansMono-30" d="M 1509 2344 
Q 1509 2516 1629 2641 
Q 1750 2766 1919 2766 
Q 2094 2766 2219 2641 
Q 2344 2516 2344 2344 
Q 2344 2169 2220 2047 
Q 2097 1925 1919 1925 
Q 1744 1925 1626 2044 
Q 1509 2163 1509 2344 
z
M 1925 4250 
Q 1484 4250 1267 3775 
Q 1050 3300 1050 2328 
Q 1050 1359 1267 884 
Q 1484 409 1925 409 
Q 2369 409 2586 884 
Q 2803 1359 2803 2328 
Q 2803 3300 2586 3775 
Q 2369 4250 1925 4250 
z
M 1925 4750 
Q 2672 4750 3055 4137 
Q 3438 3525 3438 2328 
Q 3438 1134 3055 521 
Q 2672 -91 1925 -91 
Q 1178 -91 797 521 
Q 416 1134 416 2328 
Q 416 3525 797 4137 
Q 1178 4750 1925 4750 
z
" transform="scale(0.015625)"/>
       </defs>
       <use xlink:href="#DejaVuSansMono-35"/>
       <use xlink:href="#DejaVuSansMono-30" x="60.205078"/>
       <use xlink:href="#DejaVuSansMono-30" x="120.410156"/>
      </g>
     </g>
    </g>
    <g id="xtick_2">
     <g id="line2d_2">
      <g>
       <use xlink:href="#m1ab949e985" x="239.139661" y="404.12" style="stroke: #000000; stroke-width: 0.8"/>
      </g>
     </g>
     <g id="text_2">
      <!-- 1000 -->
      <g transform="translate(227.099036 418.771563) scale(0.1 -0.1)">
       <defs>
        <path id="DejaVuSansMono-31" d="M 844 531 
L 1825 531 
L 1825 4097 
L 769 3859 
L 769 4434 
L 1819 4666 
L 2450 4666 
L 2450 531 
L 3419 531 
L 3419 0 
L 844 0 
L 844 531 
z
" transform="scale(0.015625)"/>
       </defs>
       <use xlink:href="#DejaVuSansMono-31"/>
       <use xlink:href="#DejaVuSansMono-30" x="60.205078"/>
       <use xlink:href="#DejaVuSansMono-30" x="120.410156"/>
       <use xlink:href="#DejaVuSansMono-30" x="180.615234"/>
      </g>
     </g>
    </g>
    <g id="xtick_3">
     <g id="line2d_3">
      <g>
       <use xlink:href="#m1ab949e985" x="341.791005" y="404.12" style="stroke: #000000; stroke-width: 0.8"/>
      </g>
     </g>
     <g id="text_3">
      <!-- 1500 -->
      <g transform="translate(329.75038 418.771563) scale(0.1 -0.1)">
       <use xlink:href="#DejaVuSansMono-31"/>
       <use xlink:href="#DejaVuSansMono-35" x="60.205078"/>
       <use xlink:href="#DejaVuSansMono-30" x="120.410156"/>
       <use xlink:href="#DejaVuSansMono-30" x="180.615234"/>
      </g>
     </g>
    </g>
    <g id="xtick_4">
     <g id="line2d_4">
      <g>
       <use xlink:href="#m1ab949e985" x="444.442349" y="404.12" style="stroke: #000000; stroke-width: 0.8"/>
      </g>
     </g>
     <g id="text_4">
      <!-- 2000 -->
      <g transform="translate(432.401724 418.771563) scale(0.1 -0.1)">
       <defs>
        <path id="DejaVuSansMono-32" d="M 1166 531 
L 3309 531 
L 3309 0 
L 475 0 
L 475 531 
Q 1059 1147 1496 1619 
Q 1934 2091 2100 2284 
Q 2413 2666 2522 2902 
Q 2631 3138 2631 3384 
Q 2631 3775 2401 3997 
Q 2172 4219 1772 4219 
Q 1488 4219 1175 4116 
Q 863 4013 513 3803 
L 513 4441 
Q 834 4594 1145 4672 
Q 1456 4750 1759 4750 
Q 2444 4750 2861 4386 
Q 3278 4022 3278 3431 
Q 3278 3131 3139 2831 
Q 3000 2531 2688 2169 
Q 2513 1966 2180 1606 
Q 1847 1247 1166 531 
z
" transform="scale(0.015625)"/>
       </defs>
       <use xlink:href="#DejaVuSansMono-32"/>
       <use xlink:href="#DejaVuSansMono-30" x="60.205078"/>
       <use xlink:href="#DejaVuSansMono-30" x="120.410156"/>
       <use xlink:href="#DejaVuSansMono-30" x="180.615234"/>
      </g>
     </g>
    </g>
    <g id="xtick_5">
     <g id="line2d_5">
      <g>
       <use xlink:href="#m1ab949e985" x="547.093693" y="404.12" style="stroke: #000000; stroke-width: 0.8"/>
      </g>
     </g>
     <g id="text_5">
      <!-- 2500 -->
      <g transform="translate(535.053068 418.771563) scale(0.1 -0.1)">
       <use xlink:href="#DejaVuSansMono-32"/>
       <use xlink:href="#DejaVuSansMono-35" x="60.205078"/>
       <use xlink:href="#DejaVuSansMono-30" x="120.410156"/>
       <use xlink:href="#DejaVuSansMono-30" x="180.615234"/>
      </g>
     </g>
    </g>
    <g id="xtick_6">
     <g id="line2d_6">
      <g>
       <use xlink:href="#m1ab949e985" x="649.745036" y="404.12" style="stroke: #000000; stroke-width: 0.8"/>
      </g>
     </g>
     <g id="text_6">
      <!-- 3000 -->
      <g transform="translate(637.704411 418.771563) scale(0.1 -0.1)">
       <defs>
        <path id="DejaVuSansMono-33" d="M 2425 2497 
Q 2884 2375 3128 2064 
Q 3372 1753 3372 1288 
Q 3372 644 2939 276 
Q 2506 -91 1741 -91 
Q 1419 -91 1084 -31 
Q 750 28 428 141 
L 428 769 
Q 747 603 1056 522 
Q 1366 441 1672 441 
Q 2191 441 2469 675 
Q 2747 909 2747 1350 
Q 2747 1756 2469 1995 
Q 2191 2234 1716 2234 
L 1234 2234 
L 1234 2753 
L 1716 2753 
Q 2150 2753 2394 2943 
Q 2638 3134 2638 3475 
Q 2638 3834 2411 4026 
Q 2184 4219 1766 4219 
Q 1488 4219 1191 4156 
Q 894 4094 569 3969 
L 569 4550 
Q 947 4650 1242 4700 
Q 1538 4750 1766 4750 
Q 2447 4750 2855 4408 
Q 3263 4066 3263 3500 
Q 3263 3116 3048 2859 
Q 2834 2603 2425 2497 
z
" transform="scale(0.015625)"/>
       </defs>
       <use xlink:href="#DejaVuSansMono-33"/>
       <use xlink:href="#DejaVuSansMono-30" x="60.205078"/>
       <use xlink:href="#DejaVuSansMono-30" x="120.410156"/>
       <use xlink:href="#DejaVuSansMono-30" x="180.615234"/>
      </g>
     </g>
    </g>
    <g id="xtick_7">
     <g id="line2d_7">
      <g>
       <use xlink:href="#m1ab949e985" x="752.39638" y="404.12" style="stroke: #000000; stroke-width: 0.8"/>
      </g>
     </g>
     <g id="text_7">
      <!-- 3500 -->
      <g transform="translate(740.355755 418.771563) scale(0.1 -0.1)">
       <use xlink:href="#DejaVuSansMono-33"/>
       <use xlink:href="#DejaVuSansMono-35" x="60.205078"/>
       <use xlink:href="#DejaVuSansMono-30" x="120.410156"/>
       <use xlink:href="#DejaVuSansMono-30" x="180.615234"/>
      </g>
     </g>
    </g>
   </g>
   <g id="matplotlib.axis_2">
    <g id="ytick_1">
     <g id="line2d_8">
      <defs>
       <path id="m397a8759cb" d="M 0 0 
L -3.5 0 
" style="stroke: #000000; stroke-width: 0.8"/>
      </defs>
      <g>
       <use xlink:href="#m397a8759cb" x="35.89" y="400.469342" style="stroke: #000000; stroke-width: 0.8"/>
      </g>
     </g>
     <g id="text_8">
      <!-- 0.0 -->
      <g transform="translate(10.829063 404.295123) scale(0.1 -0.1)">
       <defs>
        <path id="DejaVuSansMono-2e" d="M 1528 953 
L 2316 953 
L 2316 0 
L 1528 0 
L 1528 953 
z
" transform="scale(0.015625)"/>
       </defs>
       <use xlink:href="#DejaVuSansMono-30"/>
       <use xlink:href="#DejaVuSansMono-2e" x="60.205078"/>
       <use xlink:href="#DejaVuSansMono-30" x="120.410156"/>
      </g>
     </g>
    </g>
    <g id="ytick_2">
     <g id="line2d_9">
      <g>
       <use xlink:href="#m397a8759cb" x="35.89" y="324.800091" style="stroke: #000000; stroke-width: 0.8"/>
      </g>
     </g>
     <g id="text_9">
      <!-- 0.2 -->
      <g transform="translate(10.829063 328.625872) scale(0.1 -0.1)">
       <use xlink:href="#DejaVuSansMono-30"/>
       <use xlink:href="#DejaVuSansMono-2e" x="60.205078"/>
       <use xlink:href="#DejaVuSansMono-32" x="120.410156"/>
      </g>
     </g>
    </g>
    <g id="ytick_3">
     <g id="line2d_10">
      <g>
       <use xlink:href="#m397a8759cb" x="35.89" y="249.13084" style="stroke: #000000; stroke-width: 0.8"/>
      </g>
     </g>
     <g id="text_10">
      <!-- 0.4 -->
      <g transform="translate(10.829063 252.956621) scale(0.1 -0.1)">
       <defs>
        <path id="DejaVuSansMono-34" d="M 2297 4091 
L 825 1625 
L 2297 1625 
L 2297 4091 
z
M 2194 4666 
L 2925 4666 
L 2925 1625 
L 3547 1625 
L 3547 1113 
L 2925 1113 
L 2925 0 
L 2297 0 
L 2297 1113 
L 319 1113 
L 319 1709 
L 2194 4666 
z
" transform="scale(0.015625)"/>
       </defs>
       <use xlink:href="#DejaVuSansMono-30"/>
       <use xlink:href="#DejaVuSansMono-2e" x="60.205078"/>
       <use xlink:href="#DejaVuSansMono-34" x="120.410156"/>
      </g>
     </g>
    </g>
    <g id="ytick_4">
     <g id="line2d_11">
      <g>
       <use xlink:href="#m397a8759cb" x="35.89" y="173.461589" style="stroke: #000000; stroke-width: 0.8"/>
      </g>
     </g>
     <g id="text_11">
      <!-- 0.6 -->
      <g transform="translate(10.829063 177.28737) scale(0.1 -0.1)">
       <defs>
        <path id="DejaVuSansMono-36" d="M 3097 4563 
L 3097 3981 
Q 2900 4097 2678 4158 
Q 2456 4219 2216 4219 
Q 1616 4219 1306 3767 
Q 997 3316 997 2438 
Q 1147 2750 1412 2917 
Q 1678 3084 2022 3084 
Q 2697 3084 3067 2670 
Q 3438 2256 3438 1497 
Q 3438 741 3056 325 
Q 2675 -91 1984 -91 
Q 1172 -91 794 492 
Q 416 1075 416 2328 
Q 416 3509 870 4129 
Q 1325 4750 2188 4750 
Q 2419 4750 2650 4701 
Q 2881 4653 3097 4563 
z
M 1972 2591 
Q 1569 2591 1337 2300 
Q 1106 2009 1106 1497 
Q 1106 984 1337 693 
Q 1569 403 1972 403 
Q 2391 403 2603 679 
Q 2816 956 2816 1497 
Q 2816 2041 2603 2316 
Q 2391 2591 1972 2591 
z
" transform="scale(0.015625)"/>
       </defs>
       <use xlink:href="#DejaVuSansMono-30"/>
       <use xlink:href="#DejaVuSansMono-2e" x="60.205078"/>
       <use xlink:href="#DejaVuSansMono-36" x="120.410156"/>
      </g>
     </g>
    </g>
    <g id="ytick_5">
     <g id="line2d_12">
      <g>
       <use xlink:href="#m397a8759cb" x="35.89" y="97.792338" style="stroke: #000000; stroke-width: 0.8"/>
      </g>
     </g>
     <g id="text_12">
      <!-- 0.8 -->
      <g transform="translate(10.829063 101.618119) scale(0.1 -0.1)">
       <defs>
        <path id="DejaVuSansMono-38" d="M 1925 2216 
Q 1503 2216 1273 1980 
Q 1044 1744 1044 1313 
Q 1044 881 1276 642 
Q 1509 403 1925 403 
Q 2350 403 2579 639 
Q 2809 875 2809 1313 
Q 2809 1741 2576 1978 
Q 2344 2216 1925 2216 
z
M 1375 2478 
Q 972 2581 745 2862 
Q 519 3144 519 3541 
Q 519 4097 897 4423 
Q 1275 4750 1925 4750 
Q 2578 4750 2956 4423 
Q 3334 4097 3334 3541 
Q 3334 3144 3107 2862 
Q 2881 2581 2478 2478 
Q 2947 2375 3195 2062 
Q 3444 1750 3444 1253 
Q 3444 622 3041 265 
Q 2638 -91 1925 -91 
Q 1213 -91 811 264 
Q 409 619 409 1247 
Q 409 1747 657 2061 
Q 906 2375 1375 2478 
z
M 1147 3481 
Q 1147 3106 1347 2909 
Q 1547 2713 1925 2713 
Q 2306 2713 2506 2909 
Q 2706 3106 2706 3481 
Q 2706 3863 2507 4063 
Q 2309 4263 1925 4263 
Q 1547 4263 1347 4061 
Q 1147 3859 1147 3481 
z
" transform="scale(0.015625)"/>
       </defs>
       <use xlink:href="#DejaVuSansMono-30"/>
       <use xlink:href="#DejaVuSansMono-2e" x="60.205078"/>
       <use xlink:href="#DejaVuSansMono-38" x="120.410156"/>
      </g>
     </g>
    </g>
    <g id="ytick_6">
     <g id="line2d_13">
      <g>
       <use xlink:href="#m397a8759cb" x="35.89" y="22.123086" style="stroke: #000000; stroke-width: 0.8"/>
      </g>
     </g>
     <g id="text_13">
      <!-- 1.0 -->
      <g transform="translate(10.829063 25.948868) scale(0.1 -0.1)">
       <use xlink:href="#DejaVuSansMono-31"/>
       <use xlink:href="#DejaVuSansMono-2e" x="60.205078"/>
       <use xlink:href="#DejaVuSansMono-30" x="120.410156"/>
      </g>
     </g>
    </g>
   </g>
   <g id="line2d_14">
    <path d="M 35.684697 344.393293 
L 36.300605 365.367015 
L 36.505908 362.016274 
L 36.711211 360.855342 
L 36.916513 358.328795 
L 37.121816 357.689991 
L 37.532422 355.52942 
L 37.737724 355.812154 
L 37.943027 354.178387 
L 38.14833 350.708967 
L 38.353632 350.51036 
L 38.558935 357.799912 
L 39.380146 367.744028 
L 39.996054 359.167067 
L 40.406659 350.164646 
L 40.611962 342.997687 
L 40.817265 341.55112 
L 41.022567 346.878021 
L 41.22787 349.284495 
L 41.433173 355.747448 
L 42.049081 361.502824 
L 42.254383 361.908784 
L 42.459686 361.225483 
L 42.664989 361.24474 
L 42.870291 361.79788 
L 43.075594 358.234292 
L 43.280897 358.20135 
L 43.486199 356.892193 
L 43.691502 351.080331 
L 44.102108 347.895445 
L 44.30741 350.247446 
L 44.512713 348.901626 
L 45.128621 363.771492 
L 45.333924 363.227102 
L 45.539226 362.336572 
L 45.744529 364.785389 
L 45.949832 370.403162 
L 46.155134 368.259726 
L 46.360437 368.993111 
L 46.56574 372.05996 
L 46.771042 371.668889 
L 47.181648 361.219586 
L 47.592253 362.487868 
L 47.797556 365.612174 
L 48.002859 366.585691 
L 48.208161 366.896885 
L 48.413464 366.337197 
L 48.824069 367.228976 
L 49.029372 366.512828 
L 49.234675 371.602645 
L 49.439977 370.512007 
L 49.64528 370.337912 
L 50.055885 362.148841 
L 50.261188 368.840645 
L 50.466491 369.971962 
L 50.671794 370.023958 
L 50.877096 371.417747 
L 51.082399 369.371477 
L 51.287702 364.308391 
L 51.493004 364.645448 
L 51.698307 366.154847 
L 51.90361 372.098974 
L 52.108912 374.498365 
L 52.314215 374.970409 
L 52.72482 381.306335 
L 52.930123 377.823538 
L 53.340728 376.688044 
L 53.546031 374.951633 
L 53.751334 368.013216 
L 53.956637 368.208744 
L 54.367242 354.472379 
L 54.572545 354.472379 
L 54.777847 355.246489 
L 54.98315 358.922998 
L 55.393755 372.983049 
L 55.599058 375.329586 
L 55.804361 379.914935 
L 56.009663 379.721655 
L 56.420269 386.241818 
L 56.830874 374.72698 
L 57.036177 374.257998 
L 57.24148 373.233951 
L 57.446782 373.714696 
L 57.652085 369.398216 
L 57.857388 369.419938 
L 58.06269 369.613218 
L 58.267993 370.26505 
L 58.678598 379.56448 
L 59.089204 376.533611 
L 59.294506 376.961274 
L 59.499809 376.861314 
L 59.705112 382.136846 
L 59.910414 384.272926 
L 60.115717 383.975406 
L 60.32102 384.817104 
L 60.526323 381.758969 
L 60.936928 373.85146 
L 61.142231 372.49127 
L 61.552836 365.225068 
L 61.758139 364.029807 
L 61.963441 364.323858 
L 62.168744 363.390214 
L 62.374047 366.982819 
L 62.579349 364.043737 
L 62.784652 364.57281 
L 62.989955 373.268005 
L 63.195257 373.348961 
L 63.40056 375.271565 
L 63.605863 375.577919 
L 64.016468 361.764033 
L 64.221771 360.559673 
L 64.427074 351.391314 
L 64.837679 361.667751 
L 65.042982 359.359198 
L 65.248284 361.629982 
L 65.65889 354.024596 
L 65.864192 357.658352 
L 66.069495 357.698591 
L 66.274798 357.469137 
L 66.4801 361.734234 
L 66.890706 355.951404 
L 67.096009 357.506092 
L 67.301311 358.089667 
L 67.711917 369.888724 
L 67.917219 372.177212 
L 68.122522 379.058158 
L 68.327825 381.427554 
L 68.533127 382.340298 
L 68.73843 381.633674 
L 68.943733 385.098199 
L 69.354338 377.044365 
L 69.559641 377.452079 
L 69.764943 371.762614 
L 69.970246 371.079612 
L 70.380852 364.616375 
L 70.586154 360.860977 
L 70.791457 361.509246 
L 70.99676 361.425696 
L 71.202062 366.576991 
L 71.407365 366.715389 
L 71.612668 364.101062 
L 71.81797 370.045957 
L 72.023273 369.096128 
L 72.228576 366.659074 
L 72.433878 366.409796 
L 72.639181 373.58028 
L 72.844484 372.860013 
L 73.049786 369.283334 
L 73.255089 368.396373 
L 73.460392 363.990513 
L 73.665695 363.09118 
L 73.870997 356.705567 
L 74.281603 351.433525 
L 74.486905 348.214181 
L 74.692208 341.296051 
L 74.897511 340.785095 
L 75.102813 339.533286 
L 75.308116 339.215254 
L 75.924024 352.542998 
L 76.129327 353.888248 
L 76.334629 358.320931 
L 76.745235 372.328433 
L 77.15584 378.371768 
L 77.361143 377.772227 
L 77.566446 374.394172 
L 77.977051 361.164269 
L 78.182354 358.661672 
L 78.592959 348.805976 
L 78.798262 348.664858 
L 79.003564 343.166899 
L 79.208867 344.355868 
L 79.41417 342.319743 
L 79.824775 355.000556 
L 80.235381 369.489694 
L 80.440683 373.501259 
L 80.645986 374.366789 
L 80.851289 371.39399 
L 81.056591 375.904133 
L 81.467197 367.649087 
L 81.877802 355.186329 
L 82.288407 347.826462 
L 82.49371 349.331822 
L 82.699013 348.519442 
L 82.904315 350.096461 
L 83.109618 347.109261 
L 83.314921 346.535515 
L 83.725526 358.420873 
L 83.930829 359.820323 
L 84.136132 356.735517 
L 84.546737 359.147527 
L 84.75204 357.99407 
L 85.983856 336.264109 
L 86.394461 333.068763 
L 86.599764 329.672442 
L 86.805067 334.632725 
L 87.010369 336.247955 
L 87.215672 340.543491 
L 87.626277 352.183921 
L 87.83158 357.150038 
L 88.242185 359.225372 
L 88.447488 355.92894 
L 88.652791 356.892661 
L 89.063396 348.20123 
L 89.268699 346.12595 
L 89.474002 337.486611 
L 89.679304 337.18514 
L 89.884607 333.053871 
L 90.500515 350.436013 
L 90.705818 348.963201 
L 91.116423 348.223457 
L 91.321726 348.578132 
L 91.527028 349.627638 
L 91.937634 347.521184 
L 92.142936 342.796543 
L 92.348239 341.760003 
L 92.553542 339.398177 
L 92.758845 340.225281 
L 92.964147 342.634973 
L 93.16945 347.203715 
L 93.374753 348.523453 
L 93.990661 356.621373 
L 94.401266 351.998334 
L 94.606569 353.36942 
L 94.811871 353.39826 
L 95.017174 355.93179 
L 95.427779 348.410048 
L 95.633082 346.38639 
L 95.838385 341.197866 
L 96.043688 341.143897 
L 96.659596 348.364434 
L 96.864898 352.89474 
L 97.070201 353.393207 
L 97.275504 355.101275 
L 97.480806 359.612118 
L 97.686109 359.828699 
L 97.891412 360.888871 
L 98.712622 348.086726 
L 98.917925 343.707433 
L 99.533833 347.634222 
L 99.739136 351.540411 
L 99.944439 352.098105 
L 100.149741 351.924837 
L 100.355044 357.685643 
L 100.560347 354.799038 
L 100.765649 359.043854 
L 100.970952 359.795308 
L 101.176255 352.999056 
L 101.58686 348.651094 
L 101.997465 346.517321 
L 102.202768 346.174484 
L 102.408071 343.530328 
L 102.613374 345.542466 
L 102.818676 340.321516 
L 103.229282 344.077197 
L 103.434584 343.522783 
L 103.84519 345.794865 
L 104.255795 355.677921 
L 104.461098 354.779768 
L 104.6664 356.137241 
L 104.871703 354.993729 
L 105.077006 350.121041 
L 105.487611 357.79695 
L 105.692914 355.993736 
L 106.514125 343.364106 
L 106.719427 342.933513 
L 106.92473 346.703771 
L 107.130033 348.089097 
L 107.335335 346.260423 
L 107.540638 340.859383 
L 107.745941 341.061671 
L 107.951243 341.454575 
L 108.156546 342.093928 
L 108.361849 347.174221 
L 108.772454 349.32505 
L 108.977757 347.83719 
L 109.18306 347.697194 
L 109.388362 344.952329 
L 109.593665 345.667325 
L 109.798968 342.757728 
L 110.00427 344.148079 
L 110.209573 341.351765 
L 110.414876 340.989696 
L 110.620178 341.173976 
L 110.825481 336.669321 
L 111.030784 335.759587 
L 111.236086 335.430735 
L 111.441389 336.343517 
L 111.646692 341.464866 
L 111.851994 341.960295 
L 112.057297 340.811947 
L 112.2626 343.224292 
L 112.467903 341.2499 
L 112.878508 344.531179 
L 113.494416 356.198527 
L 113.699719 353.688383 
L 114.110324 355.757188 
L 114.315627 354.885565 
L 115.34214 343.622744 
L 115.547443 342.386826 
L 115.752746 346.593943 
L 115.958048 347.712372 
L 116.163351 347.091081 
L 116.368654 344.405515 
L 116.573956 344.079474 
L 116.779259 347.85665 
L 117.805772 334.274468 
L 118.42168 345.461255 
L 118.626983 352.748816 
L 118.832286 354.518146 
L 119.242891 366.06163 
L 119.448194 365.562879 
L 119.653497 365.743728 
L 119.858799 362.140636 
L 120.064102 355.56683 
L 120.269405 353.947606 
L 120.885313 340.48924 
L 121.295918 337.546764 
L 121.501221 339.074986 
L 121.706523 338.124175 
L 122.117129 341.517135 
L 122.322432 341.013796 
L 122.527734 341.29576 
L 122.733037 341.315665 
L 123.143642 338.301401 
L 123.554248 339.760708 
L 123.75955 338.130443 
L 123.964853 338.195248 
L 124.170156 336.221964 
L 124.580761 337.35256 
L 124.991366 333.47959 
L 125.196669 338.170456 
L 125.607275 339.228855 
L 125.812577 338.006008 
L 126.01788 335.321546 
L 126.223183 335.512216 
L 126.633788 329.588036 
L 126.839091 329.773183 
L 127.044393 327.144364 
L 127.249696 322.916261 
L 127.454999 321.267872 
L 127.865604 326.555578 
L 128.892118 350.802682 
L 129.09742 355.999482 
L 129.508026 350.019231 
L 129.713328 342.64031 
L 129.918631 340.170013 
L 130.329236 330.495345 
L 130.945144 316.346395 
L 131.150447 313.456371 
L 131.35575 313.21998 
L 131.561052 309.889987 
L 131.766355 308.546889 
L 131.971658 305.90081 
L 132.176961 306.084498 
L 132.382263 302.483995 
L 132.587566 308.14447 
L 132.792869 306.438593 
L 132.998171 307.430166 
L 133.203474 304.258788 
L 133.408777 305.662183 
L 133.614079 305.606623 
L 134.024685 316.473666 
L 134.229987 325.313717 
L 134.43529 324.782965 
L 134.640593 319.967793 
L 134.845896 319.097172 
L 135.051198 316.963292 
L 135.461804 315.153627 
L 135.667106 313.04718 
L 136.077712 302.374059 
L 136.283014 292.870041 
L 136.488317 295.501192 
L 136.69362 301.936769 
L 136.898922 302.536226 
L 137.104225 300.671896 
L 137.309528 300.905277 
L 137.51483 301.477294 
L 137.720133 302.602539 
L 137.925436 300.285228 
L 138.130739 299.494734 
L 138.336041 307.162796 
L 138.541344 309.626547 
L 138.746647 308.5863 
L 138.951949 309.167747 
L 139.157252 310.436075 
L 139.362555 310.402029 
L 139.77316 303.983503 
L 140.183765 302.314827 
L 140.799673 277.286363 
L 141.004976 276.094604 
L 141.415582 271.520779 
L 141.620884 270.965763 
L 142.03149 273.106688 
L 142.442095 281.749643 
L 142.647398 284.507705 
L 142.8527 283.979405 
L 143.058003 281.118735 
L 143.263306 281.341414 
L 143.468608 282.186001 
L 143.673911 282.251794 
L 143.879214 282.481374 
L 144.084516 285.991164 
L 144.289819 286.22334 
L 144.495122 283.628868 
L 144.700425 277.847218 
L 144.905727 280.652858 
L 145.316333 276.646089 
L 145.726938 271.526094 
L 146.137543 260.344839 
L 146.548149 248.487873 
L 146.753451 246.332985 
L 146.958754 239.674304 
L 147.164057 237.948462 
L 147.369359 241.041543 
L 147.574662 238.225077 
L 147.779965 238.848353 
L 147.985268 238.758274 
L 148.19057 237.638 
L 149.011781 230.566033 
L 149.217084 230.136087 
L 149.422386 224.227124 
L 149.832992 233.496287 
L 150.038294 232.774518 
L 150.243597 230.408739 
L 150.654202 232.079415 
L 150.859505 233.282587 
L 151.064808 233.366318 
L 151.270111 238.481519 
L 151.680716 240.441255 
L 151.886019 237.053961 
L 152.091321 236.37692 
L 152.296624 236.15718 
L 152.501927 236.747636 
L 152.707229 236.685347 
L 152.912532 235.529753 
L 153.117835 236.916548 
L 153.323137 234.244845 
L 153.52844 234.230478 
L 153.733743 226.068726 
L 153.939045 224.258336 
L 154.144348 225.851768 
L 154.349651 225.386267 
L 154.554954 222.806833 
L 154.760256 225.966564 
L 154.965559 226.44452 
L 155.170862 224.505654 
L 155.376164 221.483853 
L 155.581467 221.049924 
L 155.78677 221.277354 
L 155.992072 227.065022 
L 156.197375 226.848093 
L 156.402678 234.434198 
L 156.60798 236.360879 
L 156.813283 235.489586 
L 157.018586 233.63578 
L 157.223888 233.843035 
L 157.429191 232.791382 
L 157.634494 241.266425 
L 157.839797 241.370075 
L 158.045099 242.582837 
L 158.250402 247.07208 
L 158.455705 242.011558 
L 158.661007 241.732136 
L 158.86631 239.680941 
L 159.276915 245.03821 
L 159.482218 247.351269 
L 159.687521 239.038044 
L 159.892823 242.467116 
L 160.303429 230.80591 
L 161.94585 210.292175 
L 162.151153 210.556149 
L 162.356456 217.544235 
L 162.561758 217.346744 
L 162.767061 217.325243 
L 162.972364 219.617741 
L 163.177666 219.007405 
L 163.382969 224.584662 
L 163.588272 224.275429 
L 163.793574 224.919872 
L 164.20418 221.294344 
L 164.409483 212.99826 
L 164.614785 212.473593 
L 164.820088 212.371411 
L 165.025391 209.737396 
L 165.230693 208.884054 
L 165.435996 202.032483 
L 165.641299 203.015812 
L 165.846601 202.815077 
L 166.462509 205.591376 
L 166.667812 204.861181 
L 166.873115 205.338901 
L 167.078417 204.834884 
L 167.28372 204.653679 
L 167.489023 207.184284 
L 167.694326 212.052172 
L 167.899628 212.007018 
L 168.104931 212.89196 
L 168.310234 212.56675 
L 168.515536 208.567543 
L 168.720839 208.545809 
L 168.926142 206.962525 
L 169.131444 207.672471 
L 169.336747 206.928297 
L 169.54205 208.271239 
L 169.747352 204.177072 
L 169.952655 203.906324 
L 170.157958 202.612957 
L 170.36326 202.289262 
L 170.568563 202.915064 
L 170.773866 202.592318 
L 170.979169 202.694665 
L 171.184471 203.170346 
L 171.389774 206.43423 
L 171.800379 200.381718 
L 172.005682 200.003812 
L 172.210985 200.130807 
L 172.62159 202.389327 
L 173.032195 203.370243 
L 173.237498 201.905847 
L 173.442801 198.13269 
L 173.648103 197.685477 
L 173.853406 198.588596 
L 174.058709 198.940113 
L 174.264012 201.587357 
L 174.469314 199.531019 
L 174.674617 198.826913 
L 174.87992 198.93344 
L 175.290525 197.750255 
L 175.495828 197.656179 
L 175.70113 197.417729 
L 175.906433 197.422911 
L 176.111736 197.620733 
L 176.317038 194.576811 
L 176.522341 195.397539 
L 176.727644 194.711277 
L 176.932946 194.483634 
L 177.138249 194.72713 
L 177.343552 194.719627 
L 178.164763 199.891404 
L 178.370065 199.860572 
L 178.575368 200.645582 
L 178.780671 200.293016 
L 178.985973 199.375011 
L 179.396579 199.920547 
L 180.012487 205.414231 
L 180.21779 204.411813 
L 180.423092 204.495381 
L 180.833698 203.748706 
L 181.039 203.808426 
L 181.244303 204.135168 
L 181.449606 204.928089 
L 181.654908 204.046464 
L 181.860211 201.659833 
L 182.065514 196.672559 
L 182.270816 196.699395 
L 182.476119 195.904959 
L 182.886724 198.326674 
L 183.092027 198.855157 
L 183.707935 193.611201 
L 184.118541 196.753282 
L 184.323843 198.076301 
L 184.529146 202.426833 
L 184.734449 200.799242 
L 184.939751 200.339232 
L 185.145054 199.565424 
L 185.350357 200.540506 
L 185.760962 200.613179 
L 185.966265 200.870167 
L 186.171567 199.73533 
L 186.37687 197.492757 
L 186.582173 194.015477 
L 186.787476 193.796094 
L 186.992778 193.840466 
L 187.198081 194.325039 
L 187.403384 194.025909 
L 187.608686 194.162725 
L 187.813989 194.085137 
L 188.019292 190.669099 
L 188.224594 190.462812 
L 188.429897 190.825706 
L 188.6352 189.418182 
L 188.840502 189.051071 
L 189.045805 189.536436 
L 189.45641 188.414807 
L 189.867016 187.336236 
L 190.072319 187.487838 
L 190.277621 187.818644 
L 190.893529 186.828771 
L 191.098832 190.858536 
L 191.304135 189.660429 
L 191.509437 190.380866 
L 191.71474 190.536002 
L 191.920043 191.802261 
L 192.125345 192.227064 
L 192.330648 192.352163 
L 192.535951 191.772904 
L 192.741253 191.624963 
L 192.946556 191.777518 
L 193.151859 185.63733 
L 193.357162 187.460258 
L 193.767767 189.077445 
L 193.97307 187.408397 
L 194.178372 187.987286 
L 194.383675 187.497258 
L 194.79428 187.254217 
L 194.999583 186.581258 
L 195.204886 187.599663 
L 195.615491 184.316606 
L 195.820794 183.476137 
L 196.436702 191.902362 
L 196.642005 192.222393 
L 196.847307 192.12798 
L 197.05261 191.17825 
L 197.257913 189.583177 
L 197.463215 189.653417 
L 197.873821 188.144345 
L 198.079123 186.335232 
L 198.284426 181.119165 
L 198.489729 178.869379 
L 198.900334 181.694592 
L 199.105637 183.617954 
L 199.310939 183.971622 
L 199.516242 182.912826 
L 199.926848 182.999271 
L 200.337453 180.60417 
L 200.542756 180.442482 
L 200.953361 174.923035 
L 201.158664 174.267417 
L 201.363966 174.638964 
L 201.569269 176.493617 
L 201.774572 176.572972 
L 201.979874 180.208558 
L 202.185177 179.245919 
L 202.39048 179.067057 
L 202.595782 179.133732 
L 202.801085 180.715835 
L 203.006388 180.903164 
L 203.211691 178.93251 
L 203.416993 178.301938 
L 203.622296 177.21007 
L 203.827599 177.171223 
L 204.032901 173.371228 
L 204.443507 175.189073 
L 204.648809 175.465677 
L 205.059415 175.417939 
L 205.47002 177.052578 
L 205.675323 177.237254 
L 205.880625 179.53198 
L 206.085928 180.34744 
L 206.496534 179.463977 
L 206.701836 180.541741 
L 207.112442 180.16925 
L 207.317744 180.589155 
L 207.523047 179.764018 
L 207.72835 179.464755 
L 207.933652 177.085072 
L 208.54956 174.374887 
L 208.754863 172.095724 
L 209.165468 170.983109 
L 209.370771 172.365734 
L 209.576074 171.878723 
L 210.191982 171.524881 
L 210.397285 174.517544 
L 210.80789 176.207715 
L 211.013193 175.074836 
L 211.218495 176.169647 
L 211.423798 176.404017 
L 211.629101 177.65985 
L 211.834403 177.904972 
L 212.039706 179.122141 
L 212.245009 179.047894 
L 212.450311 176.113717 
L 212.655614 177.276464 
L 212.860917 177.327869 
L 213.06622 179.105884 
L 213.271522 178.716527 
L 213.476825 176.411276 
L 213.682128 176.603031 
L 213.88743 176.190322 
L 214.092733 174.79086 
L 214.298036 175.493988 
L 214.708641 175.623732 
L 215.324549 173.320432 
L 215.529852 173.027259 
L 215.735154 171.471883 
L 216.14576 172.508185 
L 216.351063 171.865839 
L 216.556365 171.96091 
L 216.761668 170.878852 
L 216.966971 171.991287 
L 217.582879 172.555238 
L 217.788181 173.023958 
L 218.198787 170.12154 
L 218.404089 171.95069 
L 218.609392 172.093823 
L 219.019997 170.907086 
L 219.2253 171.222363 
L 219.430603 172.597089 
L 219.841208 170.366347 
L 220.046511 172.770925 
L 220.251814 173.034325 
L 220.662419 169.713858 
L 220.867722 169.589612 
L 221.278327 167.417842 
L 221.48363 165.310414 
L 221.688932 165.746135 
L 221.894235 166.977108 
L 222.099538 165.789641 
L 222.30484 167.139955 
L 222.510143 165.944656 
L 222.715446 165.640458 
L 222.920749 168.041939 
L 223.126051 168.877736 
L 223.331354 167.892666 
L 223.536657 169.938567 
L 223.741959 169.536517 
L 224.152565 167.218933 
L 224.357867 167.361294 
L 224.768473 170.437072 
L 225.179078 166.949338 
L 225.384381 166.780475 
L 225.589683 164.245096 
L 225.794986 165.454273 
L 226.000289 164.984931 
L 226.616197 159.819327 
L 226.8215 159.364497 
L 227.437408 161.701761 
L 227.848013 160.506699 
L 228.258618 161.324139 
L 228.463921 161.689509 
L 228.874527 159.938443 
L 229.079829 159.25442 
L 229.285132 159.077246 
L 229.695737 160.823092 
L 230.106343 157.114293 
L 230.311645 157.616139 
L 230.516948 157.146276 
L 230.927553 158.632099 
L 231.338159 155.999734 
L 231.748764 153.970761 
L 232.15937 155.938201 
L 232.364672 154.854977 
L 232.569975 155.12416 
L 232.775278 153.740714 
L 232.98058 153.981299 
L 233.185883 153.08741 
L 233.391186 151.239256 
L 233.596488 151.634561 
L 233.801791 151.010206 
L 234.212396 148.0635 
L 234.417699 148.707102 
L 234.623002 147.391046 
L 234.828304 146.907172 
L 235.033607 144.61268 
L 235.23891 145.014238 
L 235.444213 147.193883 
L 235.854818 144.147379 
L 236.265423 147.769945 
L 236.470726 146.840008 
L 236.676029 147.198398 
L 236.881331 148.813075 
L 237.086634 147.504578 
L 237.291937 146.987125 
L 237.497239 145.368835 
L 237.702542 145.930024 
L 237.907845 145.536885 
L 238.113147 144.284752 
L 238.31845 142.322212 
L 238.523753 143.687687 
L 238.934358 141.176726 
L 239.139661 143.523661 
L 239.344964 143.137602 
L 239.550266 143.222345 
L 239.755569 141.813425 
L 239.960872 145.172209 
L 240.166174 146.65325 
L 240.371477 146.754015 
L 240.57678 144.581314 
L 240.782082 144.787876 
L 240.987385 144.432695 
L 241.192688 143.448439 
L 241.39799 143.9939 
L 241.603293 143.73269 
L 241.808596 144.600992 
L 242.219201 140.976039 
L 242.424504 141.541253 
L 242.835109 145.871012 
L 243.040412 145.524173 
L 243.245715 144.005318 
L 243.65632 139.476023 
L 243.861623 137.764767 
L 244.066925 137.688681 
L 244.272228 138.059752 
L 244.888136 130.102478 
L 245.298742 129.2898 
L 245.504044 129.687721 
L 245.91465 134.590512 
L 246.119952 134.173257 
L 246.325255 133.270093 
L 246.530558 133.63284 
L 246.73586 134.244974 
L 246.941163 134.033787 
L 247.146466 136.031631 
L 247.351768 135.492091 
L 247.557071 137.286264 
L 248.172979 132.003079 
L 248.378282 131.75753 
L 248.583585 132.365688 
L 249.199493 128.835037 
L 249.404795 130.134868 
L 249.610098 127.799164 
L 249.815401 128.26557 
L 250.020703 129.513165 
L 250.226006 132.133089 
L 250.431309 132.265586 
L 250.636611 130.340598 
L 250.841914 132.298878 
L 251.047217 131.671209 
L 251.457822 128.042167 
L 251.663125 128.075813 
L 251.868428 125.887251 
L 252.07373 125.861121 
L 252.279033 124.412721 
L 252.689638 125.974899 
L 252.894941 124.21308 
L 253.100244 124.175575 
L 253.305546 126.087711 
L 253.510849 125.973816 
L 253.716152 125.563626 
L 253.921454 127.363845 
L 254.126757 125.544723 
L 254.33206 122.601921 
L 254.537362 122.768741 
L 254.742665 123.10935 
L 254.947968 122.760005 
L 255.153271 125.051472 
L 255.358573 124.591482 
L 255.563876 124.556214 
L 255.769179 125.210368 
L 255.974481 123.734866 
L 256.179784 123.451555 
L 256.385087 125.325275 
L 256.590389 122.591608 
L 256.795692 123.793891 
L 257.000995 125.878553 
L 257.206297 124.537959 
L 257.4116 126.524559 
L 257.616903 126.065888 
L 258.027508 129.502483 
L 258.232811 129.500311 
L 258.438114 130.699886 
L 258.643416 130.087206 
L 259.66993 118.690529 
L 259.875232 118.56166 
L 260.080535 118.935122 
L 260.285838 121.107029 
L 260.49114 118.605173 
L 260.696443 119.954632 
L 260.901746 119.861536 
L 261.107048 122.423417 
L 261.312351 121.438268 
L 261.517654 121.120048 
L 261.722957 121.21125 
L 261.928259 117.825673 
L 262.133562 116.577663 
L 262.338865 113.291264 
L 262.544167 114.934878 
L 262.74947 113.021651 
L 262.954773 114.146685 
L 263.160075 110.768241 
L 263.365378 110.711939 
L 263.570681 112.275664 
L 263.981286 111.542746 
L 264.186589 109.290916 
L 264.597194 107.452142 
L 264.802497 107.296387 
L 265.0078 105.725155 
L 265.213102 108.083767 
L 265.418405 108.308665 
L 265.623708 105.538551 
L 265.82901 105.853652 
L 266.034313 107.406405 
L 266.239616 106.332373 
L 266.444918 107.27281 
L 266.650221 106.082917 
L 266.855524 105.651641 
L 267.060826 105.623278 
L 267.266129 103.559758 
L 267.471432 104.531428 
L 267.882037 108.23691 
L 268.08734 106.363286 
L 268.292643 108.739231 
L 268.497945 107.884301 
L 268.703248 105.54418 
L 268.908551 106.852625 
L 269.113853 107.271236 
L 269.319156 108.32773 
L 269.729761 106.169294 
L 269.935064 106.094007 
L 270.550972 108.122974 
L 270.756275 111.093735 
L 270.961577 109.341749 
L 271.16688 109.074955 
L 271.782788 105.414894 
L 271.988091 105.734604 
L 272.398696 107.711873 
L 272.603999 107.031104 
L 272.809302 105.571674 
L 273.014604 106.303104 
L 273.219907 107.523189 
L 273.42521 106.965052 
L 273.835815 109.245316 
L 274.24642 104.611627 
L 274.451723 102.365625 
L 274.862329 101.758006 
L 275.067631 101.003779 
L 275.272934 100.725107 
L 275.683539 106.034871 
L 275.888842 104.498659 
L 276.094145 104.019823 
L 276.299447 104.211447 
L 276.50475 102.550804 
L 276.915355 103.469851 
L 277.120658 104.255038 
L 277.941869 97.164161 
L 278.147172 97.471412 
L 278.352474 97.277361 
L 278.557777 98.211235 
L 279.173685 93.005953 
L 279.378988 94.625482 
L 279.58429 94.247441 
L 279.789593 93.018906 
L 279.994896 93.236857 
L 280.200198 92.524329 
L 280.405501 92.293033 
L 281.021409 96.172454 
L 281.432015 103.885718 
L 281.84262 105.406272 
L 282.047923 103.183331 
L 282.458528 101.715508 
L 282.869133 97.614939 
L 283.074436 96.836814 
L 283.485041 89.621003 
L 283.690344 89.321595 
L 284.306252 94.024845 
L 284.511555 93.436177 
L 284.716858 92.253031 
L 284.92216 91.825937 
L 285.332766 92.122915 
L 285.538068 90.161487 
L 285.743371 91.354808 
L 285.948674 90.666415 
L 286.359279 95.218971 
L 286.769884 97.389172 
L 286.975187 97.130462 
L 287.18049 96.525193 
L 287.591095 99.357273 
L 288.207003 93.142534 
L 288.412306 92.091655 
L 288.617609 92.601368 
L 288.822911 94.201754 
L 289.233517 103.800463 
L 289.438819 104.245222 
L 289.644122 104.976411 
L 289.849425 105.168849 
L 290.054727 105.187751 
L 290.875938 95.452081 
L 291.081241 88.779827 
L 291.697149 80.413145 
L 291.902452 80.583661 
L 292.313057 83.973899 
L 293.134268 89.480272 
L 293.33957 87.812476 
L 293.544873 88.656398 
L 293.750176 86.923584 
L 293.955479 86.264196 
L 294.160781 84.475041 
L 294.366084 85.341823 
L 294.571387 84.975529 
L 294.776689 86.816153 
L 295.392597 87.884313 
L 295.5979 87.606374 
L 295.803203 89.963149 
L 296.419111 92.870303 
L 296.624413 95.139361 
L 296.829716 93.891831 
L 297.035019 94.492451 
L 297.240322 93.077323 
L 297.650927 92.725129 
L 298.061532 89.031284 
L 298.266835 87.747797 
L 298.472138 85.741728 
L 298.67744 84.976228 
L 298.882743 87.158112 
L 299.088046 87.590827 
L 299.293348 87.243581 
L 299.498651 87.602418 
L 299.703954 86.063522 
L 299.909256 86.692944 
L 300.114559 86.674204 
L 300.319862 87.45031 
L 300.730467 84.226563 
L 300.93577 79.665467 
L 301.141073 78.484961 
L 301.756981 86.013323 
L 301.962283 87.05538 
L 302.167586 85.804193 
L 302.372889 85.594239 
L 302.783494 84.268849 
L 302.988797 86.045689 
L 303.194099 85.666373 
L 303.399402 83.917724 
L 303.604705 83.360895 
L 303.810008 80.337292 
L 304.01531 80.357676 
L 304.220613 82.167497 
L 304.631218 81.300845 
L 304.836521 82.296801 
L 305.041824 84.631815 
L 305.247126 83.527535 
L 305.452429 83.048125 
L 305.657732 81.878179 
L 305.863034 81.467287 
L 306.068337 79.918845 
L 306.478942 83.892147 
L 306.684245 83.955919 
L 306.889548 83.517161 
L 307.094851 80.136487 
L 307.710759 78.048715 
L 307.916061 78.575071 
L 308.121364 77.895286 
L 308.326667 75.383072 
L 308.531969 74.575847 
L 308.737272 77.840671 
L 309.147877 81.039477 
L 309.35318 83.454602 
L 309.558483 84.451556 
L 309.763785 86.353357 
L 309.969088 86.866079 
L 310.174391 88.960573 
L 310.379694 87.679687 
L 310.995602 80.114096 
L 311.406207 77.706629 
L 311.61151 79.478953 
L 311.816812 79.068769 
L 312.022115 80.090236 
L 312.227418 78.997171 
L 312.43272 81.098088 
L 313.048628 83.582467 
L 313.459234 80.708987 
L 313.869839 75.077936 
L 314.485747 72.302127 
L 314.69105 75.103822 
L 314.896353 73.036852 
L 315.101655 72.950073 
L 315.306958 73.076526 
L 315.512261 72.273575 
L 315.717563 72.28912 
L 315.922866 74.80644 
L 316.128169 73.492111 
L 316.333471 74.630513 
L 316.538774 74.132547 
L 316.744077 71.024113 
L 316.94938 70.70606 
L 317.154682 70.745766 
L 317.359985 70.285733 
L 317.565288 71.041004 
L 317.975893 73.902455 
L 318.181196 73.913825 
L 318.386498 73.696145 
L 318.591801 72.37182 
L 318.797104 72.3368 
L 319.002406 72.728124 
L 319.207709 71.945036 
L 319.618314 72.778573 
L 319.823617 72.695055 
L 320.02892 70.202862 
L 320.850131 79.071793 
L 321.260736 82.884499 
L 321.466039 82.97865 
L 321.671341 81.986878 
L 322.081947 79.398591 
L 322.492552 73.0298 
L 322.697855 72.305715 
L 323.10846 68.026484 
L 323.313763 68.027803 
L 323.519066 67.158998 
L 324.134974 70.130745 
L 324.340276 72.615294 
L 324.750882 73.050261 
L 324.956184 73.005495 
L 325.161487 72.291905 
L 325.36679 70.555603 
L 325.572092 70.67199 
L 325.777395 71.445834 
L 325.982698 72.937392 
L 326.188001 72.336579 
L 326.393303 71.378809 
L 326.598606 71.134555 
L 326.803909 72.567422 
L 327.214514 80.736576 
L 327.625119 79.663209 
L 328.035725 75.072059 
L 328.856935 71.301249 
L 329.267541 64.46052 
L 329.472844 64.932693 
L 329.678146 64.418345 
L 329.883449 67.653959 
L 330.294054 69.241655 
L 330.499357 68.805021 
L 330.70466 69.717086 
L 330.909962 68.065933 
L 331.320568 69.141361 
L 331.52587 67.788492 
L 331.731173 69.367214 
L 331.936476 66.827712 
L 332.141778 66.649483 
L 332.347081 66.155021 
L 332.552384 66.362641 
L 332.757687 65.38002 
L 332.962989 67.725502 
L 333.168292 66.904068 
L 333.373595 65.205792 
L 333.578897 65.201945 
L 333.7842 63.572535 
L 333.989503 64.387545 
L 334.194805 64.216512 
L 334.400108 63.794081 
L 334.605411 63.897336 
L 334.810713 65.113612 
L 335.016016 64.564501 
L 335.221319 65.474539 
L 335.426621 68.623205 
L 335.837227 70.763687 
L 336.247832 69.302045 
L 336.658438 71.12889 
L 336.86374 70.225316 
L 337.069043 71.182508 
L 337.479648 68.320441 
L 337.684951 68.11571 
L 337.890254 66.945346 
L 338.300859 70.334283 
L 338.506162 68.767133 
L 338.711464 69.25849 
L 338.916767 69.002664 
L 339.12207 67.123356 
L 339.327373 69.048464 
L 339.532675 69.000901 
L 339.943281 71.215455 
L 340.148583 69.735989 
L 340.353886 70.386782 
L 340.559189 70.278703 
L 340.969794 68.641895 
L 341.175097 71.255389 
L 341.380399 70.57073 
L 341.585702 70.456549 
L 341.791005 69.484466 
L 342.20161 70.444534 
L 342.406913 67.832156 
L 342.612216 67.802118 
L 343.228124 62.98661 
L 343.433426 62.775412 
L 343.638729 63.535096 
L 343.844032 63.143763 
L 344.254637 64.504136 
L 344.870545 68.808711 
L 345.075848 69.630201 
L 346.307664 58.636212 
L 346.512967 58.071219 
L 346.923572 60.803709 
L 347.744783 63.381186 
L 347.950085 63.567858 
L 348.360691 64.308013 
L 348.565993 64.597198 
L 348.771296 60.776555 
L 349.592507 68.199037 
L 349.79781 68.226058 
L 350.003112 70.166408 
L 350.208415 70.739506 
L 350.413718 70.750224 
L 350.61902 70.085884 
L 350.824323 70.191063 
L 351.645534 65.740188 
L 351.850836 69.540459 
L 352.056139 71.196609 
L 352.466745 71.065501 
L 352.87735 69.917332 
L 353.082653 67.683381 
L 353.287955 67.099671 
L 353.493258 64.847744 
L 353.698561 64.446279 
L 354.109166 57.410415 
L 354.314469 58.704831 
L 354.519771 58.628856 
L 354.725074 58.198178 
L 355.135679 59.900504 
L 355.340982 61.045963 
L 355.546285 61.460756 
L 355.751588 61.429949 
L 355.95689 61.099344 
L 356.162193 62.144174 
L 356.367496 60.192224 
L 356.572798 60.552042 
L 356.778101 60.668681 
L 356.983404 60.328059 
L 357.394009 57.822691 
L 357.599312 58.185447 
L 357.804614 58.206634 
L 358.009917 58.075145 
L 358.831128 62.909377 
L 359.036431 63.563375 
L 359.447036 65.471459 
L 359.652339 65.609116 
L 360.062944 62.250523 
L 360.473549 58.719494 
L 360.678852 58.031581 
L 360.884155 57.866993 
L 361.089457 57.865006 
L 361.705365 60.436681 
L 362.115971 67.266498 
L 362.321274 67.218518 
L 362.731879 64.92028 
L 363.142484 63.594771 
L 363.758392 59.324585 
L 364.168998 52.585862 
L 364.3743 52.192657 
L 364.579603 52.276279 
L 364.990208 52.784919 
L 365.606117 55.305998 
L 365.811419 54.00343 
L 366.016722 54.723923 
L 366.222025 54.950772 
L 366.427327 56.091438 
L 366.63263 59.45726 
L 366.837933 60.46932 
L 367.043235 62.057866 
L 367.248538 61.552708 
L 367.453841 60.442684 
L 367.659143 60.114104 
L 368.069749 60.728334 
L 368.275051 62.980562 
L 368.480354 62.498472 
L 368.685657 60.60589 
L 368.89096 60.439604 
L 369.096262 58.873532 
L 369.506868 60.474022 
L 369.71217 60.264604 
L 369.917473 61.078784 
L 370.122776 61.265695 
L 370.328078 59.205445 
L 370.533381 58.924274 
L 370.738684 58.16783 
L 370.943986 58.819504 
L 371.149289 60.008269 
L 371.354592 63.650204 
L 371.559894 63.090431 
L 371.9705 64.395555 
L 372.175803 63.546813 
L 372.381105 63.358459 
L 372.586408 65.169065 
L 372.791711 65.4693 
L 373.202316 62.731144 
L 373.407619 57.829563 
L 373.612921 59.150476 
L 374.023527 57.151888 
L 374.228829 58.875133 
L 374.434132 59.623438 
L 374.639435 58.316062 
L 375.05004 59.454956 
L 375.665948 63.358195 
L 376.076554 63.457565 
L 376.281856 61.395035 
L 376.692462 59.71222 
L 376.897764 58.522076 
L 377.103067 58.1025 
L 377.30837 59.045588 
L 377.513672 60.963594 
L 377.924278 60.341678 
L 378.129581 59.49253 
L 378.540186 58.769472 
L 379.156094 60.577942 
L 379.566699 58.330964 
L 379.772002 57.456712 
L 380.182607 59.812566 
L 380.593213 63.530608 
L 380.798515 63.565962 
L 381.414424 61.077861 
L 381.619726 60.226962 
L 382.030332 57.391479 
L 382.235634 57.084266 
L 382.440937 55.524158 
L 382.64624 55.784341 
L 382.851542 55.830546 
L 383.056845 55.014492 
L 383.262148 55.558914 
L 383.46745 55.032928 
L 383.672753 53.677953 
L 383.878056 53.79535 
L 384.288661 56.059806 
L 384.493964 55.951801 
L 384.699267 57.03779 
L 384.904569 56.433889 
L 385.315175 62.830103 
L 385.72578 62.182978 
L 386.136385 61.153739 
L 386.341688 59.599583 
L 386.546991 59.067129 
L 386.752293 59.574892 
L 386.957596 59.475182 
L 387.368201 53.773676 
L 387.98411 57.944729 
L 388.600018 57.482741 
L 388.80532 55.52797 
L 389.010623 55.152447 
L 389.215926 55.496583 
L 389.626531 52.581658 
L 389.831834 52.474513 
L 390.242439 56.776356 
L 390.447742 57.103843 
L 390.653044 58.357662 
L 390.858347 57.211822 
L 391.06365 56.724286 
L 391.268953 56.58892 
L 391.474255 57.095278 
L 391.679558 57.137209 
L 391.884861 56.702447 
L 392.090163 54.358377 
L 392.295466 53.393404 
L 392.706071 60.174118 
L 392.911374 60.270208 
L 393.116677 60.053027 
L 393.321979 61.385604 
L 393.527282 61.650964 
L 393.732585 61.59952 
L 393.937887 62.130253 
L 394.348493 59.644027 
L 394.553796 55.625918 
L 394.759098 54.694162 
L 394.964401 55.680761 
L 395.375006 59.94479 
L 395.580309 59.417122 
L 395.785612 59.794302 
L 395.990914 59.844814 
L 396.40152 58.946018 
L 396.606822 58.680273 
L 396.812125 55.915783 
L 397.017428 57.07235 
L 397.22273 56.900611 
L 397.428033 56.875931 
L 397.838639 63.407445 
L 398.043941 64.434029 
L 398.249244 66.046395 
L 398.454547 66.136511 
L 398.659849 65.370885 
L 398.865152 65.519281 
L 399.070455 63.224983 
L 399.275757 62.701676 
L 399.48106 60.657083 
L 399.891665 53.653039 
L 400.096968 53.449444 
L 400.302271 56.582531 
L 400.507573 57.425574 
L 400.918179 60.452873 
L 401.123482 61.679257 
L 401.328784 61.717961 
L 401.73939 60.211859 
L 401.944692 60.29681 
L 402.149995 59.045144 
L 402.355298 54.519002 
L 402.5606 53.32645 
L 402.765903 53.336546 
L 402.971206 52.274604 
L 403.176508 53.350776 
L 403.381811 52.591252 
L 403.587114 53.045489 
L 403.792416 53.018687 
L 403.997719 54.170027 
L 404.203022 53.407589 
L 404.408325 53.430479 
L 404.613627 53.303245 
L 404.81893 51.711642 
L 405.024233 51.648314 
L 405.229535 50.227923 
L 405.434838 50.605159 
L 405.640141 50.208402 
L 405.845443 50.993642 
L 406.050746 49.510386 
L 406.256049 50.520039 
L 406.461351 50.253683 
L 406.666654 52.199986 
L 406.871957 52.814626 
L 407.077259 51.848485 
L 407.282562 51.664089 
L 407.693168 53.258629 
L 407.89847 53.550846 
L 408.103773 55.096423 
L 408.309076 54.160104 
L 408.514378 54.201204 
L 408.924984 51.867496 
L 409.130286 51.664086 
L 409.335589 51.266031 
L 409.540892 49.46528 
L 409.951497 50.06495 
L 410.1568 49.71189 
L 410.362102 49.753849 
L 410.567405 49.568099 
L 410.978011 49.704703 
L 411.388616 51.454676 
L 411.593919 51.028174 
L 411.799221 50.230205 
L 412.004524 50.876132 
L 412.209827 50.419599 
L 412.415129 51.37811 
L 412.620432 52.892867 
L 412.825735 52.063867 
L 413.031037 52.87864 
L 413.441643 53.317517 
L 413.646945 53.104925 
L 413.852248 53.589489 
L 414.057551 51.049325 
L 414.468156 50.829999 
L 414.673459 50.885883 
L 414.878762 51.198655 
L 415.084064 50.839491 
L 415.289367 51.994694 
L 415.49467 50.545459 
L 415.905275 53.006286 
L 416.110578 55.030026 
L 416.31588 55.356071 
L 416.521183 56.528018 
L 416.726486 55.318327 
L 417.137091 57.73517 
L 417.342394 55.233059 
L 417.547697 54.847041 
L 417.752999 55.662217 
L 417.958302 54.766003 
L 418.163605 52.949712 
L 418.368907 52.626413 
L 418.57421 51.085326 
L 418.984815 53.174538 
L 419.190118 52.345166 
L 419.600723 54.549144 
L 419.806026 53.379258 
L 420.011329 53.400675 
L 420.216631 53.17705 
L 420.421934 53.892814 
L 420.627237 53.680283 
L 420.83254 52.632547 
L 421.037842 50.578497 
L 421.243145 50.626366 
L 421.448448 53.20063 
L 421.65375 53.379402 
L 421.859053 54.786513 
L 422.064356 53.426902 
L 422.474961 52.825547 
L 422.680264 52.886699 
L 423.090869 52.311071 
L 423.296172 51.651809 
L 423.501475 48.515031 
L 423.706777 48.73124 
L 423.91208 47.376935 
L 424.117383 47.576899 
L 424.322685 50.211266 
L 424.733291 50.439491 
L 425.143896 55.801739 
L 425.554501 54.063182 
L 425.759804 52.558196 
L 426.170409 53.400373 
L 426.375712 52.389639 
L 426.581015 52.23193 
L 426.786318 52.958166 
L 426.99162 52.819152 
L 427.812831 57.114417 
L 428.018134 55.279117 
L 428.223436 55.678111 
L 429.044647 49.677556 
L 429.24995 46.255753 
L 429.455252 47.183514 
L 429.660555 46.933337 
L 429.865858 49.493541 
L 430.276463 50.918539 
L 430.481766 51.298588 
L 430.687069 53.573394 
L 430.892371 54.245591 
L 431.097674 54.322719 
L 431.713582 49.990571 
L 431.918885 48.105609 
L 432.124187 47.712783 
L 432.32949 45.848136 
L 432.534793 45.600873 
L 432.740095 45.81499 
L 432.945398 47.503465 
L 433.150701 48.253083 
L 433.356004 50.849167 
L 433.561306 51.498552 
L 433.766609 52.79343 
L 434.177214 54.130001 
L 434.382517 53.948015 
L 434.58782 54.229255 
L 434.998425 50.740013 
L 435.203728 50.624097 
L 435.40903 48.541488 
L 435.614333 47.720403 
L 436.024938 45.60336 
L 436.230241 44.792929 
L 436.435544 45.317193 
L 436.640847 45.176421 
L 436.846149 46.386667 
L 437.051452 45.811352 
L 437.256755 44.338764 
L 437.66736 44.422176 
L 437.872663 46.461382 
L 438.077965 46.879165 
L 438.283268 46.537435 
L 438.488571 48.443005 
L 438.693873 49.148837 
L 438.899176 49.058109 
L 439.104479 50.301444 
L 439.309781 52.718803 
L 439.515084 51.540889 
L 439.720387 52.767167 
L 439.92569 50.65969 
L 440.130992 49.760669 
L 440.336295 52.028173 
L 440.541598 50.508126 
L 440.7469 50.49694 
L 441.157506 52.687232 
L 441.362808 51.160358 
L 441.568111 54.773797 
L 441.773414 53.87089 
L 441.978716 54.85455 
L 442.184019 54.804947 
L 442.389322 53.437262 
L 442.594624 53.95807 
L 442.799927 53.67384 
L 443.210533 50.486143 
L 443.415835 49.376277 
L 443.621138 49.814699 
L 443.826441 51.25973 
L 444.031743 53.919936 
L 444.237046 54.558446 
L 444.442349 54.254147 
L 444.647651 54.421464 
L 444.852954 54.166202 
L 445.058257 54.582973 
L 445.263559 53.79432 
L 445.468862 53.77891 
L 445.674165 49.861709 
L 445.879467 49.109433 
L 446.08477 45.837622 
L 446.290073 45.951522 
L 446.495376 45.780911 
L 446.700678 46.832811 
L 446.905981 47.069939 
L 447.111284 47.091753 
L 447.316586 47.418026 
L 447.521889 49.855395 
L 448.137797 52.075486 
L 448.3431 52.267353 
L 448.548402 53.694627 
L 448.959008 51.593122 
L 449.16431 51.149685 
L 449.369613 51.595301 
L 449.574916 49.958679 
L 449.780219 49.408252 
L 449.985521 48.504558 
L 450.396127 48.686666 
L 450.601429 47.401746 
L 450.806732 47.681117 
L 451.012035 48.300438 
L 451.627943 46.639786 
L 451.833245 48.357091 
L 452.038548 48.005566 
L 452.243851 48.197984 
L 452.449153 48.712478 
L 452.654456 49.74081 
L 452.859759 49.585428 
L 453.475667 50.954353 
L 453.68097 50.523835 
L 453.886272 49.576773 
L 454.091575 49.302692 
L 454.50218 46.282546 
L 454.707483 46.493688 
L 455.323391 49.67724 
L 455.528694 49.115984 
L 455.733996 49.656155 
L 455.939299 48.733157 
L 456.144602 48.688168 
L 456.349905 48.148914 
L 456.555207 48.367201 
L 456.76051 47.103838 
L 456.965813 47.135292 
L 457.171115 44.940078 
L 457.581721 46.04977 
L 457.787023 47.794601 
L 457.992326 47.638137 
L 458.197629 47.827869 
L 458.402931 48.172638 
L 458.608234 49.23786 
L 458.813537 48.841407 
L 459.018839 47.172139 
L 459.429445 46.647519 
L 459.634748 45.850628 
L 459.84005 43.875217 
L 460.250656 45.645157 
L 460.455958 46.142774 
L 460.866564 50.072782 
L 461.071866 50.250011 
L 461.277169 50.674648 
L 461.482472 50.075533 
L 461.687774 50.221132 
L 461.893077 50.218415 
L 462.09838 48.793315 
L 462.508985 49.1495 
L 462.714288 46.495966 
L 463.124893 47.342578 
L 463.330196 46.937969 
L 463.535499 47.630907 
L 463.740801 49.412399 
L 463.946104 49.315943 
L 464.151407 50.530947 
L 464.562012 48.558307 
L 464.767315 48.390104 
L 464.972617 48.660734 
L 465.383223 51.069411 
L 465.588525 51.266516 
L 465.793828 51.027225 
L 465.999131 52.53905 
L 466.204434 52.401873 
L 466.409736 52.474346 
L 466.615039 53.154916 
L 466.820342 53.021763 
L 467.230947 47.681638 
L 467.846855 44.287363 
L 468.052158 45.18748 
L 468.462763 45.850359 
L 468.873369 45.043444 
L 469.078671 45.119351 
L 469.283974 45.997738 
L 469.489277 45.652421 
L 470.105185 43.497379 
L 470.51579 45.43251 
L 470.721093 45.791135 
L 471.131698 49.150941 
L 471.337001 49.22694 
L 471.542303 50.010815 
L 471.747606 50.304851 
L 471.952909 49.311167 
L 472.363514 46.327229 
L 472.568817 44.886731 
L 472.77412 45.774801 
L 472.979422 45.930777 
L 473.184725 47.11036 
L 473.800633 51.770927 
L 474.005936 52.72775 
L 474.211238 52.820239 
L 474.416541 51.426494 
L 474.827146 54.143042 
L 475.032449 53.175749 
L 475.443055 48.061713 
L 475.648357 47.040532 
L 475.85366 46.696868 
L 476.058963 46.902708 
L 476.264265 46.628479 
L 476.469568 46.882599 
L 476.674871 46.289079 
L 477.085476 43.204479 
L 477.290779 43.409468 
L 477.496081 43.845768 
L 477.701384 43.335928 
L 477.906687 43.38069 
L 478.111989 42.680841 
L 478.317292 44.283561 
L 478.522595 44.122387 
L 478.727898 44.952905 
L 478.9332 44.821914 
L 479.138503 46.532984 
L 479.343806 46.663799 
L 479.754411 45.36533 
L 479.959714 45.258927 
L 480.165016 46.414845 
L 480.370319 46.467989 
L 480.575622 48.742545 
L 480.780924 48.057341 
L 480.986227 50.855371 
L 481.19153 50.531022 
L 481.602135 49.570355 
L 481.807438 51.343384 
L 482.012741 51.185841 
L 482.218043 50.608167 
L 482.628649 47.199106 
L 482.833951 46.756707 
L 483.244557 42.979676 
L 483.449859 45.295063 
L 483.655162 45.98335 
L 483.860465 43.661112 
L 484.065767 43.257157 
L 484.476373 44.287331 
L 484.681675 44.021962 
L 484.886978 44.345847 
L 485.092281 45.130674 
L 485.502886 47.918951 
L 485.708189 48.041063 
L 485.913492 48.410928 
L 486.118794 50.284585 
L 486.324097 49.21504 
L 486.5294 48.939929 
L 486.734702 49.759072 
L 487.145308 49.16847 
L 487.35061 48.655435 
L 487.555913 45.631996 
L 487.761216 45.148967 
L 487.966518 45.204773 
L 488.171821 43.617505 
L 488.787729 44.843272 
L 488.993032 44.45516 
L 489.403637 46.576553 
L 489.60894 48.418528 
L 489.814243 48.744534 
L 490.224848 47.064989 
L 490.430151 47.785315 
L 490.635453 47.232247 
L 490.840756 45.198612 
L 491.046059 45.629001 
L 491.251361 45.141408 
L 491.661967 42.344255 
L 491.86727 43.564435 
L 492.072572 43.950514 
L 492.277875 45.853519 
L 492.483178 45.800654 
L 492.893783 47.988242 
L 493.099086 47.497931 
L 493.304388 45.777156 
L 493.509691 45.554325 
L 493.714994 44.990374 
L 493.920296 42.859124 
L 494.125599 42.761166 
L 494.94681 38.583708 
L 495.152113 37.928303 
L 495.357415 38.180418 
L 495.973323 42.392476 
L 496.178626 44.861625 
L 496.589231 45.872601 
L 496.794534 45.964901 
L 496.999837 45.656051 
L 497.205139 46.030681 
L 497.410442 46.132308 
L 497.615745 45.215978 
L 498.02635 41.946775 
L 498.231653 40.583471 
L 498.436956 41.140973 
L 498.642258 43.666041 
L 498.847561 44.20057 
L 499.052864 45.952561 
L 499.258166 45.537579 
L 499.463469 45.491498 
L 499.874074 46.418697 
L 500.079377 46.147791 
L 500.28468 44.897269 
L 500.489982 44.972378 
L 500.695285 43.519707 
L 500.900588 44.715698 
L 501.10589 44.213131 
L 501.311193 47.04129 
L 501.516496 47.64669 
L 501.927101 45.954032 
L 502.132404 45.623233 
L 502.337707 45.756648 
L 502.953615 42.177593 
L 503.158917 43.471247 
L 503.36422 42.813471 
L 503.569523 45.994734 
L 503.980128 47.825068 
L 504.596036 50.126223 
L 504.801339 50.242973 
L 505.006642 49.578024 
L 505.417247 46.445429 
L 505.62255 42.589254 
L 505.827852 42.336813 
L 506.033155 42.451973 
L 506.238458 43.655036 
L 506.44376 43.114924 
L 506.649063 43.046459 
L 507.059668 44.895253 
L 507.264971 44.936429 
L 507.470274 44.253579 
L 507.675576 45.184044 
L 507.880879 44.818798 
L 508.086182 44.896969 
L 508.291485 42.876817 
L 508.496787 42.147967 
L 508.907393 39.906548 
L 509.112695 41.099664 
L 509.317998 41.039497 
L 509.523301 42.28265 
L 509.933906 41.392813 
L 510.139209 40.94773 
L 510.549814 42.605506 
L 510.755117 42.940484 
L 510.960419 42.468176 
L 511.165722 40.619607 
L 511.371025 40.803826 
L 511.576328 40.384347 
L 511.78163 40.70014 
L 512.192236 42.078284 
L 512.397538 42.044139 
L 512.602841 41.811684 
L 512.808144 41.358258 
L 513.013446 42.156812 
L 513.629354 41.234806 
L 513.834657 42.084558 
L 514.03996 41.40357 
L 514.245262 41.758792 
L 514.450565 41.76908 
L 514.861171 43.396728 
L 515.066473 43.146457 
L 515.271776 43.733738 
L 515.477079 42.833537 
L 515.682381 42.471135 
L 515.887684 40.397176 
L 516.092987 40.209924 
L 516.298289 40.524281 
L 516.708895 39.22662 
L 517.324803 42.346233 
L 517.530106 44.836081 
L 517.735408 45.189158 
L 517.940711 45.981048 
L 518.146014 46.062376 
L 518.351316 44.809268 
L 518.556619 45.572914 
L 518.761922 44.953543 
L 519.583132 39.515873 
L 519.788435 42.190248 
L 519.993738 42.000307 
L 520.19904 42.708597 
L 520.404343 42.558273 
L 520.609646 42.756883 
L 520.814949 42.499031 
L 521.225554 44.190569 
L 521.430857 43.984135 
L 521.636159 44.560954 
L 521.841462 42.035667 
L 522.046765 41.908701 
L 522.252067 42.695057 
L 522.662673 42.842382 
L 522.867975 43.517228 
L 523.073278 43.477175 
L 523.278581 42.496818 
L 523.483883 43.431403 
L 523.689186 43.20924 
L 523.894489 43.481289 
L 524.099792 43.401976 
L 524.305094 42.247628 
L 524.510397 42.544336 
L 524.7157 41.59733 
L 524.921002 42.726387 
L 525.126305 42.358065 
L 525.331608 42.519437 
L 525.742213 41.015742 
L 525.947516 40.599523 
L 526.152818 40.812564 
L 526.358121 39.803825 
L 526.768726 41.27476 
L 526.974029 41.307349 
L 527.179332 41.858886 
L 527.589937 43.545296 
L 527.79524 44.233346 
L 528.000543 44.082352 
L 528.205845 43.663624 
L 528.411148 44.235252 
L 528.821753 44.09043 
L 529.232359 41.930662 
L 529.437661 41.365919 
L 529.642964 40.265143 
L 529.848267 40.466643 
L 530.464175 44.457455 
L 530.669478 45.239231 
L 530.87478 46.486711 
L 531.285386 46.010509 
L 531.490688 45.513898 
L 531.695991 46.624747 
L 531.901294 46.235703 
L 532.106596 46.303119 
L 532.311899 46.730807 
L 532.517202 45.951774 
L 532.722504 47.961128 
L 532.927807 46.189973 
L 533.13311 46.986166 
L 533.338412 48.4209 
L 533.543715 48.696133 
L 534.364926 44.463991 
L 534.570229 44.681479 
L 534.775531 42.397201 
L 534.980834 43.82781 
L 535.391439 45.042918 
L 535.802045 47.357047 
L 536.21265 47.775661 
L 536.417953 47.385631 
L 536.623255 47.885011 
L 536.828558 46.411981 
L 537.239164 45.397349 
L 537.444466 43.68981 
L 537.649769 43.560615 
L 537.855072 43.048385 
L 538.060374 44.200775 
L 538.47098 43.543295 
L 538.676282 42.210094 
L 538.881585 42.579042 
L 539.497493 40.422045 
L 539.702796 38.737663 
L 539.908098 38.949622 
L 540.113401 38.443832 
L 540.318704 41.949975 
L 540.729309 44.089303 
L 540.934612 46.717922 
L 541.345217 46.088642 
L 541.55052 46.977177 
L 541.755823 47.067147 
L 541.961125 46.901856 
L 542.166428 45.975049 
L 542.371731 42.08587 
L 542.577033 42.918934 
L 542.782336 45.280378 
L 542.987639 43.927935 
L 543.192941 45.034459 
L 543.398244 45.347226 
L 543.603547 47.707351 
L 544.014152 49.362534 
L 544.219455 49.705042 
L 544.424758 52.243767 
L 544.835363 47.700064 
L 545.040666 47.115425 
L 545.245968 46.910286 
L 545.451271 47.941164 
L 545.656574 46.125103 
L 546.067179 48.491553 
L 546.272482 50.017712 
L 546.477784 48.499687 
L 546.683087 50.205105 
L 547.504298 47.086088 
L 547.914903 43.291207 
L 548.325509 38.671132 
L 548.736114 35.590921 
L 548.941417 36.548082 
L 549.146719 36.356385 
L 549.352022 37.518929 
L 549.557325 37.800697 
L 549.762627 38.325001 
L 549.96793 39.32072 
L 550.173233 39.437127 
L 550.583838 40.904334 
L 550.789141 40.781487 
L 550.994444 39.361217 
L 551.199746 39.234179 
L 551.405049 38.391419 
L 551.610352 38.052235 
L 552.020957 36.616092 
L 552.431562 36.274653 
L 552.636865 35.689386 
L 552.842168 37.489468 
L 553.04747 37.813883 
L 553.252773 37.830417 
L 553.663379 37.044733 
L 553.868681 37.966196 
L 554.073984 37.635773 
L 554.279287 37.98354 
L 554.484589 37.755655 
L 554.689892 39.602896 
L 554.895195 39.007014 
L 555.3058 39.913457 
L 555.511103 39.619394 
L 555.921708 39.99334 
L 556.127011 41.508501 
L 556.332313 41.877369 
L 556.537616 41.061561 
L 556.948222 38.415194 
L 557.153524 38.07917 
L 557.358827 37.372317 
L 557.56413 37.753003 
L 557.769432 37.531082 
L 558.180038 35.331104 
L 558.38534 35.033223 
L 559.001248 37.419922 
L 559.206551 36.881321 
L 559.411854 37.375765 
L 559.617156 36.549947 
L 560.027762 37.789787 
L 560.233065 37.342351 
L 561.054275 39.526921 
L 561.259578 41.034834 
L 561.464881 40.357844 
L 561.670183 40.898893 
L 562.286091 38.917292 
L 562.491394 39.24591 
L 563.107302 36.623592 
L 563.517908 39.567964 
L 563.928513 42.834205 
L 564.133816 43.760691 
L 564.339118 44.081405 
L 564.749724 42.508457 
L 564.955026 41.912249 
L 565.160329 41.749021 
L 565.365632 40.14348 
L 565.570934 39.913324 
L 565.776237 40.111387 
L 566.392145 43.886939 
L 566.802751 44.869761 
L 567.213356 45.106889 
L 567.418659 44.69927 
L 567.829264 42.945684 
L 568.034567 40.55012 
L 568.239869 40.470388 
L 568.445172 40.590503 
L 568.650475 40.515121 
L 569.06108 42.803251 
L 569.266383 42.370683 
L 569.471686 42.462475 
L 569.676988 42.772419 
L 570.087594 42.293837 
L 570.292896 41.33135 
L 570.703502 40.252562 
L 570.908804 39.184461 
L 571.114107 39.608017 
L 571.31941 38.744374 
L 571.524712 38.38726 
L 571.730015 38.275515 
L 571.935318 37.545724 
L 572.14062 38.673633 
L 572.345923 38.684546 
L 572.551226 38.232909 
L 572.756529 38.868787 
L 572.961831 40.022238 
L 573.167134 39.154459 
L 573.577739 45.006435 
L 573.783042 45.089191 
L 573.988345 45.692129 
L 574.193647 44.725143 
L 574.39895 44.318096 
L 574.604253 44.256655 
L 574.809555 43.975356 
L 575.014858 43.079289 
L 575.220161 42.882383 
L 575.836069 37.634675 
L 576.041372 37.382278 
L 576.451977 38.903347 
L 576.65728 38.962683 
L 576.862582 39.898226 
L 577.067885 40.207532 
L 577.273188 39.888723 
L 577.47849 39.264772 
L 577.683793 39.883843 
L 577.889096 41.048615 
L 578.094398 40.631219 
L 578.299701 41.96827 
L 579.120912 39.842205 
L 579.531517 41.18755 
L 579.73682 40.75728 
L 579.942123 40.788123 
L 580.147425 41.422811 
L 580.352728 40.149555 
L 580.968636 42.963482 
L 581.173939 42.818928 
L 581.379241 41.94242 
L 581.584544 41.604506 
L 581.789847 41.496777 
L 581.995149 39.967398 
L 582.405755 39.274487 
L 582.611058 38.543585 
L 582.81636 38.871033 
L 583.021663 37.644264 
L 583.432268 40.778165 
L 583.637571 40.851727 
L 583.842874 41.716083 
L 584.048176 43.982969 
L 584.253479 44.145827 
L 584.869387 41.713131 
L 585.07469 41.472352 
L 585.690598 38.079064 
L 586.101203 37.163808 
L 586.306506 36.282487 
L 586.717111 37.628719 
L 586.922414 38.152297 
L 587.127717 37.630147 
L 587.538322 38.643494 
L 587.948927 38.116971 
L 588.15423 37.070185 
L 588.359533 37.960914 
L 588.564835 37.369861 
L 588.770138 37.118927 
L 588.975441 36.272802 
L 589.180744 36.070339 
L 589.386046 35.349319 
L 589.591349 35.712037 
L 589.796652 35.677531 
L 590.001954 37.050802 
L 590.207257 36.929201 
L 590.617862 35.843319 
L 591.028468 36.665127 
L 591.23377 37.776306 
L 591.439073 38.190661 
L 591.644376 37.937082 
L 591.849678 38.101437 
L 592.054981 37.089353 
L 592.260284 37.021851 
L 592.465587 37.905463 
L 592.670889 38.217526 
L 593.081495 37.893721 
L 593.286797 36.804317 
L 593.4921 38.533408 
L 593.697403 38.907652 
L 593.902705 39.853097 
L 594.108008 39.928831 
L 594.313311 40.91107 
L 594.518613 40.136529 
L 594.723916 40.153776 
L 594.929219 39.248973 
L 595.134521 39.555087 
L 595.339824 40.065182 
L 595.545127 37.771673 
L 595.955732 35.314047 
L 596.57164 39.312333 
L 596.776943 39.336647 
L 596.982246 39.860674 
L 597.187548 40.050794 
L 597.392851 40.666683 
L 597.598154 40.915919 
L 597.803456 41.492481 
L 598.008759 41.369565 
L 598.419364 36.879133 
L 598.624667 36.451073 
L 599.035273 36.726218 
L 599.240575 35.937411 
L 599.445878 34.567151 
L 599.651181 35.738401 
L 599.856483 36.069491 
L 600.061786 38.015596 
L 600.267089 37.920117 
L 600.472391 39.873524 
L 600.677694 38.243774 
L 600.882997 37.991976 
L 601.088299 37.05453 
L 601.498905 39.967289 
L 601.704207 39.025921 
L 601.90951 38.677325 
L 602.320116 40.673487 
L 602.525418 40.104254 
L 603.141326 45.34441 
L 603.346629 45.344899 
L 603.551932 44.704646 
L 603.757234 44.714386 
L 603.962537 44.098305 
L 604.16784 41.688967 
L 604.373142 41.352866 
L 604.783748 38.320664 
L 604.98905 36.145581 
L 605.194353 35.879195 
L 605.399656 35.00567 
L 605.810261 37.38267 
L 606.015564 39.62816 
L 606.220867 39.557672 
L 606.426169 38.922382 
L 606.836775 39.453911 
L 607.042077 39.897929 
L 607.24738 39.782676 
L 607.657985 38.050747 
L 607.863288 36.613582 
L 608.068591 34.003797 
L 608.273893 33.752009 
L 608.479196 34.295199 
L 608.889802 36.936292 
L 609.095104 36.717628 
L 609.300407 37.763993 
L 609.50571 37.74767 
L 609.711012 37.90406 
L 610.121618 39.377003 
L 610.32692 39.772682 
L 610.532223 39.886779 
L 610.942828 37.686667 
L 611.353434 37.928377 
L 611.764039 39.45211 
L 611.969342 38.839109 
L 612.174645 39.183297 
L 612.379947 39.063976 
L 612.58525 38.50742 
L 612.790553 38.630299 
L 613.406461 36.641322 
L 613.611763 35.297305 
L 613.817066 35.839898 
L 614.022369 35.961329 
L 614.227671 35.276375 
L 614.638277 35.193251 
L 614.84358 34.581579 
L 615.048882 34.593581 
L 615.254185 35.590885 
L 615.66479 34.890698 
L 616.075396 33.583362 
L 616.280698 34.070637 
L 616.486001 33.596225 
L 616.896606 34.122674 
L 617.101909 34.747576 
L 617.307212 33.789266 
L 617.512514 34.441663 
L 617.92312 36.984817 
L 618.333725 36.274412 
L 618.539028 36.764048 
L 618.744331 36.870084 
L 618.949633 36.220041 
L 619.360239 35.851701 
L 619.770844 35.507484 
L 619.976147 33.495536 
L 620.592055 32.965101 
L 621.00266 33.745203 
L 621.207963 33.373577 
L 621.413266 33.518809 
L 621.618568 33.176193 
L 621.823871 32.470269 
L 622.234476 33.642624 
L 622.645082 34.587628 
L 622.850384 33.800144 
L 623.055687 33.786528 
L 623.26099 33.909698 
L 623.466292 33.581842 
L 623.671595 33.611328 
L 623.876898 34.835118 
L 624.0822 35.04262 
L 624.287503 34.683475 
L 624.492806 34.692457 
L 624.698109 34.067834 
L 624.903411 33.989504 
L 625.314017 33.202871 
L 625.519319 34.064613 
L 625.724622 34.196089 
L 626.135227 32.1126 
L 626.34053 32.360205 
L 626.545833 32.385411 
L 626.751135 33.108953 
L 627.367043 36.799909 
L 627.572346 36.138893 
L 627.777649 35.88578 
L 628.188254 36.414437 
L 628.393557 36.678405 
L 628.804162 35.978026 
L 629.009465 35.411635 
L 629.214768 33.918152 
L 629.625373 33.478993 
L 630.035978 35.53337 
L 630.241281 35.186743 
L 630.446584 35.28745 
L 630.651886 35.228102 
L 630.857189 37.120808 
L 631.062492 36.453516 
L 631.6784 38.278322 
L 631.883703 37.641215 
L 632.089005 35.968967 
L 632.499611 35.348969 
L 632.704913 35.347513 
L 632.910216 33.732211 
L 633.115519 33.920886 
L 633.320821 34.369165 
L 633.526124 34.402638 
L 633.731427 35.830349 
L 633.936729 36.291102 
L 634.142032 38.864171 
L 634.75794 40.924784 
L 634.963243 40.615679 
L 635.168546 40.882617 
L 635.579151 38.581304 
L 635.784454 36.677744 
L 635.989756 36.833708 
L 636.195059 35.640426 
L 636.400362 36.670591 
L 636.810967 36.280304 
L 637.01627 36.875103 
L 637.221572 36.367142 
L 637.632178 37.850445 
L 637.837481 39.384463 
L 638.042783 39.865784 
L 638.453389 37.432276 
L 638.658691 37.769091 
L 638.863994 37.829998 
L 639.069297 39.428995 
L 639.274599 39.699257 
L 639.685205 42.463068 
L 640.301113 43.906751 
L 640.711718 43.983357 
L 640.917021 43.546123 
L 641.738232 37.383723 
L 641.943534 37.516525 
L 642.970048 41.965287 
L 643.17535 42.161164 
L 643.585956 43.246084 
L 643.791258 42.939147 
L 644.201864 38.932406 
L 644.612469 37.623014 
L 644.817772 36.420886 
L 645.023075 36.227361 
L 645.228377 36.225985 
L 645.43368 37.774366 
L 645.638983 37.343882 
L 645.844285 38.191462 
L 646.049588 38.256944 
L 646.254891 39.601789 
L 646.665496 39.203898 
L 646.870799 38.948848 
L 647.281404 38.193487 
L 647.486707 37.777413 
L 647.69201 38.863138 
L 647.897312 38.768233 
L 648.102615 38.963405 
L 648.307918 37.643387 
L 648.718523 38.303153 
L 648.923826 38.610828 
L 649.129128 38.531387 
L 649.539734 36.497527 
L 649.745036 35.898513 
L 650.360944 36.300215 
L 650.566247 36.058484 
L 650.77155 36.361232 
L 651.182155 35.843077 
L 651.387458 37.729101 
L 651.592761 37.410602 
L 651.798063 38.465459 
L 652.208669 38.146873 
L 652.619274 37.144191 
L 652.824577 36.700629 
L 653.235182 37.10948 
L 653.85109 35.014716 
L 654.056393 34.617731 
L 654.261696 34.752465 
L 654.466998 34.66171 
L 654.672301 35.993918 
L 654.877604 35.986929 
L 655.082906 35.793309 
L 655.288209 35.777122 
L 655.493512 35.080101 
L 655.698814 35.402589 
L 655.904117 35.140008 
L 656.314722 36.029959 
L 656.520025 36.073027 
L 656.725328 34.700291 
L 657.341236 34.253252 
L 657.546539 34.342967 
L 658.162447 38.53877 
L 658.573052 40.588951 
L 658.778355 40.824025 
L 658.983657 40.488569 
L 659.18896 41.837879 
L 659.599565 41.683223 
L 660.010171 39.304438 
L 660.215473 39.525902 
L 660.626079 37.462136 
L 661.036684 38.988662 
L 661.241987 38.021915 
L 661.44729 37.788289 
L 661.652592 38.353052 
L 661.857895 38.424736 
L 662.2685 36.250296 
L 662.473803 35.09813 
L 662.679106 35.432269 
L 662.884408 34.872785 
L 663.089711 34.789506 
L 663.500317 35.556316 
L 663.910922 33.740009 
L 664.116225 33.85353 
L 664.321527 33.243116 
L 664.52683 34.094961 
L 664.732133 33.904022 
L 664.937435 33.879658 
L 665.348041 32.651691 
L 665.553343 32.632703 
L 666.374554 36.340507 
L 666.579857 36.394472 
L 666.78516 36.895467 
L 667.195765 36.497982 
L 667.60637 36.415133 
L 667.811673 37.579968 
L 668.222278 35.244699 
L 668.427581 35.305948 
L 668.632884 36.274863 
L 668.838186 36.645688 
L 669.248792 38.462653 
L 669.454094 38.827214 
L 669.659397 39.822342 
L 669.8647 38.858544 
L 670.070003 40.058642 
L 670.480608 40.742024 
L 670.891213 38.593667 
L 671.507121 37.472832 
L 671.712424 37.34615 
L 672.123029 35.855555 
L 672.328332 36.521178 
L 672.533635 35.185464 
L 672.738937 35.228215 
L 672.94424 36.085379 
L 673.354846 34.673374 
L 673.560148 34.253568 
L 673.765451 33.274776 
L 673.970754 33.665038 
L 674.176056 33.323205 
L 674.381359 32.709839 
L 674.586662 32.862021 
L 674.791964 32.816477 
L 674.997267 31.563336 
L 675.407872 33.316487 
L 675.818478 34.557215 
L 676.229083 37.344671 
L 676.434386 37.392942 
L 676.639689 38.471818 
L 676.844991 38.910924 
L 677.050294 38.762817 
L 677.255597 37.597281 
L 677.460899 38.74259 
L 678.28211 34.460658 
L 678.487413 35.390689 
L 678.898018 35.731992 
L 679.308623 39.453208 
L 679.513926 38.592451 
L 679.719229 39.680131 
L 679.924532 39.453695 
L 680.129834 39.511122 
L 680.335137 40.005374 
L 680.54044 38.580057 
L 680.951045 37.315298 
L 681.36165 34.27464 
L 681.566953 34.15045 
L 681.772256 35.215065 
L 681.977558 35.180868 
L 682.182861 35.838123 
L 682.388164 35.375841 
L 682.593466 35.982516 
L 682.798769 35.579772 
L 683.004072 35.988796 
L 683.209375 35.783542 
L 683.414677 35.777602 
L 683.61998 35.06307 
L 683.825283 33.029651 
L 684.030585 32.956186 
L 684.646493 31.719152 
L 685.057099 32.720217 
L 685.262401 33.808231 
L 685.467704 33.086077 
L 685.673007 32.981223 
L 685.878309 32.645068 
L 686.083612 33.258774 
L 686.494218 32.258166 
L 686.69952 33.174971 
L 686.904823 32.384096 
L 687.315428 29.974433 
L 687.726034 31.919127 
L 688.547244 34.781408 
L 688.752547 34.262726 
L 688.95785 35.421399 
L 689.163152 35.519443 
L 689.368455 35.416273 
L 689.779061 34.270616 
L 689.984363 34.724856 
L 690.189666 34.179458 
L 690.600271 34.710998 
L 690.805574 34.556288 
L 691.010877 33.875179 
L 691.421482 35.618776 
L 691.626785 35.976837 
L 691.832087 36.767694 
L 692.242693 36.64244 
L 692.653298 35.102688 
L 692.858601 37.227754 
L 693.269206 37.327695 
L 693.679812 36.707226 
L 694.090417 35.072341 
L 694.29572 34.950848 
L 694.501022 35.90188 
L 694.706325 36.185141 
L 694.911628 34.896692 
L 695.11693 34.750752 
L 695.322233 35.543298 
L 695.527536 35.413847 
L 695.732838 35.073198 
L 696.143444 36.163036 
L 696.348747 36.137973 
L 696.554049 35.363323 
L 696.759352 35.531036 
L 696.964655 35.132597 
L 697.169957 35.200161 
L 697.37526 34.138527 
L 697.580563 34.342408 
L 697.785865 34.311815 
L 697.991168 33.882781 
L 698.401773 32.394037 
L 698.607076 32.610447 
L 698.812379 32.120376 
L 699.017681 32.092241 
L 699.63359 33.563968 
L 699.838892 34.449792 
L 700.044195 34.036558 
L 700.249498 34.622458 
L 700.4548 34.626395 
L 700.865406 35.972133 
L 701.070708 36.000268 
L 701.276011 35.861666 
L 701.481314 36.560866 
L 701.686616 36.565967 
L 701.891919 36.163248 
L 702.097222 36.690102 
L 702.302524 36.517662 
L 702.71313 37.649128 
L 702.918433 36.97653 
L 703.123735 37.950701 
L 703.534341 37.047539 
L 703.739643 37.322427 
L 704.355551 39.765862 
L 704.766157 38.55167 
L 704.971459 38.091862 
L 705.176762 36.410865 
L 705.382065 36.31085 
L 705.587367 35.614931 
L 705.79267 35.571209 
L 705.997973 34.808212 
L 706.203276 34.78779 
L 706.408578 33.732545 
L 706.613881 33.702189 
L 706.819184 33.541085 
L 707.024486 34.210136 
L 707.229789 34.381922 
L 707.435092 34.890601 
L 707.640394 37.233108 
L 707.845697 37.006631 
L 708.051 36.516165 
L 708.256302 35.593386 
L 708.461605 35.910686 
L 708.666908 37.77461 
L 708.87221 37.739222 
L 709.077513 38.353846 
L 709.282816 38.305429 
L 709.488119 37.794818 
L 709.693421 35.283598 
L 710.104027 35.378403 
L 710.309329 35.102341 
L 710.514632 35.490525 
L 710.925237 33.86428 
L 711.13054 34.11757 
L 711.335843 34.846335 
L 711.746448 41.315093 
L 711.951751 42.904573 
L 712.362356 43.86835 
L 712.567659 43.554221 
L 713.38887 40.906305 
L 713.799475 34.351027 
L 714.004778 32.46715 
L 714.21008 32.890718 
L 714.620686 33.045198 
L 715.031291 35.080272 
L 715.236594 34.569972 
L 715.441897 35.203485 
L 715.647199 35.406987 
L 715.852502 34.678732 
L 716.263107 35.7141 
L 716.46841 35.140678 
L 716.673713 34.902684 
L 716.879015 34.345658 
L 717.084318 34.242229 
L 717.289621 34.840305 
L 717.494923 34.464712 
L 717.700226 34.814373 
L 717.905529 35.433802 
L 718.316134 33.306776 
L 718.521437 33.379123 
L 718.72674 32.978014 
L 718.932042 33.2461 
L 719.137345 32.699806 
L 719.342648 32.56576 
L 719.54795 33.010214 
L 719.753253 32.854776 
L 720.369161 35.996396 
L 720.779766 38.166437 
L 721.190372 37.806662 
L 721.395674 37.27064 
L 721.600977 38.965829 
L 721.80628 38.723927 
L 722.216885 36.524489 
L 722.422188 35.156718 
L 722.627491 35.200197 
L 723.448701 39.748958 
L 723.654004 37.61409 
L 723.859307 37.260438 
L 724.064609 37.816178 
L 724.475215 36.927857 
L 724.680517 36.818662 
L 724.88582 35.8885 
L 725.091123 34.156731 
L 725.296426 33.822946 
L 725.501728 32.484602 
L 725.707031 32.922547 
L 725.912334 34.951931 
L 726.117636 35.060519 
L 726.322939 35.401491 
L 726.528242 36.13542 
L 726.733544 35.752173 
L 726.938847 34.437405 
L 727.14415 34.563534 
L 727.349452 34.526144 
L 727.554755 34.91736 
L 727.760058 34.547937 
L 727.96536 33.232858 
L 728.375966 32.871716 
L 728.581269 32.478121 
L 728.786571 32.652767 
L 728.991874 33.290102 
L 729.197177 33.496673 
L 729.813085 33.10324 
L 730.018387 32.28912 
L 730.22369 32.63786 
L 730.634295 32.009325 
L 731.044901 31.056965 
L 731.250203 30.749426 
L 731.455506 31.517891 
L 731.660809 31.52988 
L 731.866112 33.408617 
L 732.071414 34.075296 
L 732.276717 33.382591 
L 732.892625 34.996995 
L 733.097928 34.763768 
L 733.30323 34.939489 
L 733.508533 34.117077 
L 733.713836 34.10643 
L 733.919138 32.523086 
L 734.124441 32.886846 
L 734.329744 32.743912 
L 734.535046 33.249198 
L 734.740349 32.352522 
L 734.945652 32.342431 
L 735.150955 33.051149 
L 735.56156 36.472499 
L 735.766863 38.034397 
L 735.972165 38.318468 
L 736.177468 37.670549 
L 736.382771 38.134872 
L 736.588073 38.31393 
L 736.998679 39.331964 
L 737.203981 38.795739 
L 737.409284 36.340015 
L 737.614587 35.753903 
L 737.819889 34.735554 
L 738.230495 36.889455 
L 738.435798 36.537014 
L 738.6411 35.785206 
L 738.846403 36.134944 
L 739.051706 35.000689 
L 739.462311 35.311528 
L 739.872916 33.668067 
L 740.283522 30.650033 
L 740.488824 31.547373 
L 740.694127 31.568609 
L 740.89943 31.852874 
L 741.104732 32.910793 
L 741.310035 32.725483 
L 742.131246 34.906285 
L 742.747154 33.666833 
L 742.952457 33.504882 
L 743.157759 33.044724 
L 743.363062 33.281997 
L 743.773667 32.424192 
L 743.97897 32.295982 
L 744.184273 31.979162 
L 744.389575 33.01707 
L 744.594878 32.660829 
L 744.800181 33.985484 
L 745.210786 34.929959 
L 745.621392 35.141986 
L 745.826694 34.798308 
L 746.031997 35.578579 
L 746.647905 35.577404 
L 747.05851 33.927128 
L 747.674418 33.21099 
L 747.879721 33.301941 
L 748.085024 32.77402 
L 748.290327 33.27497 
L 748.700932 32.814436 
L 748.906235 33.749745 
L 749.111537 33.623837 
L 749.31684 34.023963 
L 749.727445 34.154257 
L 749.932748 34.675828 
L 750.138051 34.627038 
L 750.343353 34.399233 
L 750.548656 33.969384 
L 750.753959 33.874649 
L 750.959261 32.352443 
L 751.164564 32.796416 
L 751.369867 32.35296 
L 751.57517 32.543664 
L 751.780472 32.255158 
L 751.985775 31.645759 
L 752.191078 31.878641 
L 752.39638 31.723608 
L 752.601683 32.388487 
L 752.806986 32.329295 
L 753.012288 33.661732 
L 753.628196 32.236772 
L 754.038802 32.278313 
L 754.449407 31.171647 
L 754.65471 31.403681 
L 754.860013 31.839221 
L 755.065315 31.026219 
L 755.270618 31.434919 
L 756.297131 35.293942 
L 756.502434 36.28647 
L 756.707737 36.3763 
L 756.913039 37.966304 
L 757.118342 37.961652 
L 757.323645 37.413849 
L 757.73425 38.014579 
L 757.939553 37.730028 
L 758.350158 36.003561 
L 758.760764 37.102244 
L 758.966066 36.863859 
L 759.376672 37.542614 
L 759.581974 38.874774 
L 759.787277 38.482162 
L 759.99258 38.48941 
L 760.403185 38.685766 
L 761.019093 34.405252 
L 761.224396 35.323584 
L 761.429699 35.12231 
L 761.635001 32.930207 
L 761.840304 33.405327 
L 762.045607 33.309496 
L 762.866817 36.149796 
L 763.07212 35.755234 
L 763.277423 34.323334 
L 763.482725 33.849175 
L 763.688028 34.398493 
L 763.893331 34.571733 
L 764.098634 34.924281 
L 764.509239 33.82604 
L 764.714542 34.275713 
L 764.919844 33.961816 
L 765.125147 34.147649 
L 765.33045 33.996784 
L 765.535752 35.593467 
L 765.741055 36.268709 
L 766.15166 34.591076 
L 766.356963 35.15127 
L 766.767568 33.643299 
L 766.972871 34.026089 
L 767.178174 34.922914 
L 767.383477 35.306722 
L 767.588779 34.652616 
L 767.999385 34.784885 
L 768.204687 35.694379 
L 768.40999 34.529615 
L 768.615293 34.839707 
L 769.025898 34.173337 
L 769.231201 33.301837 
L 769.436503 33.756449 
L 769.641806 33.588233 
L 769.847109 32.640736 
L 770.463017 32.981234 
L 770.873622 34.14907 
L 771.078925 34.127567 
L 771.284228 35.023107 
L 771.48953 34.309192 
L 771.694833 34.547189 
L 771.900136 34.48 
L 772.105438 34.554096 
L 772.310741 33.439664 
L 772.516044 33.290909 
L 772.721346 32.602074 
L 772.926649 32.604958 
L 773.131952 32.416261 
L 773.337254 31.678975 
L 773.953163 34.814465 
L 774.158465 34.653324 
L 774.363768 34.851143 
L 774.774373 35.762112 
L 774.979676 35.417972 
L 775.184979 35.68061 
L 775.390281 35.259175 
L 776.006189 31.996261 
L 776.211492 31.632411 
L 776.622097 35.08807 
L 776.8274 34.858219 
L 777.032703 35.370513 
L 777.238006 35.502678 
L 777.648611 36.385023 
L 777.853914 35.881626 
L 778.059216 36.876953 
L 778.264519 37.250973 
L 778.675124 34.2421 
L 779.08573 35.137367 
L 779.496335 37.593778 
L 779.701638 37.898553 
L 779.90694 38.629124 
L 780.112243 37.499526 
L 780.317546 38.205071 
L 780.522849 38.061377 
L 780.933454 36.599517 
L 781.138757 35.855093 
L 781.549362 32.668719 
L 781.754665 32.09114 
L 781.959967 32.830504 
L 782.16527 33.135529 
L 782.370573 32.96612 
L 782.575875 32.963233 
L 782.781178 33.823065 
L 783.191783 33.663597 
L 783.602389 33.080403 
L 783.807692 33.31791 
L 784.218297 31.49608 
L 784.4236 31.193835 
L 784.628902 31.920108 
L 784.834205 32.181147 
L 785.24481 35.720841 
L 785.450113 36.87751 
L 785.860718 36.974193 
L 786.271324 38.190133 
L 786.681929 36.482931 
L 786.887232 35.439585 
L 787.092535 33.278698 
L 787.297837 32.362481 
L 787.50314 31.978107 
L 787.708443 32.605466 
L 787.913745 32.350037 
L 788.119048 31.740379 
L 788.324351 31.930792 
L 788.529653 32.672377 
L 788.940259 36.415702 
L 789.350864 35.709798 
L 789.761469 34.778156 
L 789.966772 34.641692 
L 790.377378 34.553402 
L 790.58268 34.065664 
L 790.993286 31.726055 
L 791.198588 33.885014 
L 791.403891 37.479155 
L 791.609194 38.60061 
L 791.814496 38.869218 
L 792.430404 38.906946 
L 792.635707 38.734016 
L 792.84101 38.388676 
L 793.046312 38.359761 
L 793.251615 36.180407 
L 793.456918 32.710604 
L 793.662221 32.203384 
L 793.867523 32.283854 
L 794.072826 34.109815 
L 794.278129 34.19051 
L 794.894037 36.798844 
L 795.099339 36.501128 
L 795.304642 38.016613 
L 795.715247 37.159781 
L 795.92055 36.664703 
L 796.125853 35.781104 
L 796.331155 36.130055 
L 796.536458 35.823704 
L 796.947064 37.900357 
L 797.152366 38.022889 
L 797.357669 37.181536 
L 797.973577 37.034865 
L 798.384182 35.279618 
L 798.589485 34.84102 
L 799.00009 31.154903 
L 799.205393 31.407201 
L 799.410696 30.730097 
L 799.615998 32.573664 
L 799.821301 32.915623 
L 800.026604 33.663128 
L 800.231907 35.010677 
L 800.437209 34.40547 
L 800.847815 35.741302 
L 801.053117 35.967497 
L 801.25842 35.280211 
L 801.463723 36.005326 
L 801.669025 34.471033 
L 801.874328 34.538155 
L 802.284933 32.467921 
L 802.490236 32.987546 
L 802.695539 32.743422 
L 803.106144 33.407614 
L 803.51675 34.824178 
L 803.722052 35.080831 
L 803.927355 34.43865 
L 804.33796 34.632665 
L 804.543263 34.333782 
L 804.953868 33.041119 
L 805.159171 34.565297 
L 805.569776 32.643376 
L 806.185685 37.214449 
L 806.59629 36.973201 
L 806.801593 36.45405 
L 807.006895 36.664764 
L 807.212198 34.666803 
L 807.417501 34.424776 
L 807.622803 34.462223 
L 808.033409 30.652061 
L 808.238711 29.864753 
L 808.854619 34.527856 
L 809.059922 36.080729 
L 809.265225 36.6424 
L 809.67583 38.150195 
L 809.881133 37.707308 
L 810.086436 37.686678 
L 810.291738 37.173582 
L 810.702344 33.934195 
L 810.907646 33.304415 
L 811.112949 31.198544 
L 811.728857 30.171292 
L 812.550068 35.730175 
L 812.960673 35.999501 
L 813.371279 36.556969 
L 813.781884 36.212425 
L 814.397792 33.204793 
L 814.603095 31.095839 
L 815.0137 30.663952 
L 815.629608 29.180313 
L 816.245516 30.798804 
L 816.450819 30.144061 
L 816.861424 31.10875 
L 817.27203 30.672483 
L 817.682635 30.883147 
L 818.298543 29.079122 
L 818.709148 31.017304 
L 818.914451 30.818094 
L 819.325057 31.480698 
L 819.735662 31.185173 
L 819.940965 31.445364 
L 820.146267 31.33943 
L 820.35157 31.558141 
L 820.967478 30.224289 
L 821.172781 31.084816 
L 821.788689 30.954578 
L 821.993991 32.655198 
L 822.199294 32.6662 
L 822.6099 31.733199 
L 822.815202 32.359527 
L 823.020505 32.071207 
L 823.225808 30.435208 
L 823.841716 30.947486 
L 824.047018 28.7105 
L 824.252321 28.678182 
L 824.662926 29.473686 
L 824.868229 28.800978 
L 825.278834 29.819468 
L 825.484137 29.873697 
L 825.68944 29.728792 
L 825.894743 29.734951 
L 826.100045 30.59889 
L 826.305348 32.287054 
L 826.921256 33.879967 
L 827.331861 33.252053 
L 827.537164 33.03813 
L 827.742467 33.530982 
L 827.947769 33.578015 
L 828.153072 33.202619 
L 828.563677 31.310768 
L 828.974283 32.354883 
L 829.179586 34.322396 
L 829.384888 34.982156 
L 829.590191 35.119482 
L 829.795494 34.969586 
L 830.206099 34.039703 
L 830.411402 33.486545 
L 830.616704 33.419776 
L 831.02731 30.568035 
L 831.232612 29.268358 
L 831.437915 29.40627 
L 831.643218 31.392306 
L 831.84852 31.222455 
L 832.464429 33.975221 
L 832.875034 35.171742 
L 833.080337 35.243646 
L 833.285639 34.785271 
L 833.490942 33.93993 
L 833.696245 31.864542 
L 833.901547 31.960779 
L 834.312153 31.60032 
L 834.722758 30.484893 
L 834.928061 30.787783 
L 835.133363 31.392541 
L 835.338666 31.314498 
L 835.543969 31.434729 
L 835.749272 32.586193 
L 835.954574 32.568427 
L 836.159877 32.337995 
L 836.36518 32.490281 
L 836.570482 33.363495 
L 836.775785 33.718687 
L 837.18639 34.843999 
L 837.391693 34.900866 
L 837.596996 35.264673 
L 837.802298 34.156543 
L 838.007601 34.193516 
L 838.212904 33.932355 
L 838.623509 32.773993 
L 838.828812 32.480455 
L 839.034115 31.30573 
L 839.239417 31.326781 
L 839.855325 33.918822 
L 840.265931 34.642104 
L 840.471233 35.920243 
L 840.676536 36.45946 
L 841.087141 35.958573 
L 841.703049 33.434761 
L 841.908352 32.900936 
L 842.113655 33.188364 
L 842.52426 32.244843 
L 842.729563 31.165926 
L 842.934866 30.850329 
L 843.140168 31.110351 
L 843.550774 30.839103 
L 843.756076 30.118766 
L 843.961379 30.256666 
L 844.166682 29.445567 
L 844.371984 30.782231 
L 844.577287 30.165084 
L 844.987892 31.538934 
L 845.193195 32.018178 
L 845.809103 35.286358 
L 846.014406 35.218975 
L 846.219709 35.881444 
L 846.425011 34.382829 
L 846.630314 34.283392 
L 846.835617 33.728287 
L 847.040919 34.519654 
L 847.246222 34.786137 
L 847.86213 32.720817 
L 848.067433 32.773382 
L 848.272735 32.090897 
L 848.478038 32.263844 
L 848.683341 33.534406 
L 848.888644 33.830404 
L 849.093946 33.208969 
L 849.299249 33.559101 
L 849.504552 35.772221 
L 849.709854 35.841821 
L 850.12046 36.218352 
L 850.325762 36.226062 
L 850.531065 36.885321 
L 850.736368 35.764892 
L 850.94167 35.969258 
L 851.146973 35.709103 
L 851.352276 34.685184 
L 851.557578 32.401614 
L 851.968184 33.143853 
L 852.173487 33.642518 
L 852.378789 34.96808 
L 852.584092 35.357311 
L 852.789395 35.481192 
L 852.994697 34.783979 
L 852.994697 34.783979 
" clip-path="url(#p098892eb20)" style="fill: none; stroke-dasharray: 7.4,3.2; stroke-dashoffset: 0; stroke: #000000; stroke-width: 2"/>
   </g>
   <g id="patch_3">
    <path d="M 35.89 404.12 
L 35.89 10.8 
" style="fill: none; stroke: #000000; stroke-width: 0.8; stroke-linejoin: miter; stroke-linecap: square"/>
   </g>
   <g id="patch_4">
    <path d="M 853.2 404.12 
L 853.2 10.8 
" style="fill: none; stroke: #000000; stroke-width: 0.8; stroke-linejoin: miter; stroke-linecap: square"/>
   </g>
   <g id="patch_5">
    <path d="M 35.89 404.12 
L 853.2 404.12 
" style="fill: none; stroke: #000000; stroke-width: 0.8; stroke-linejoin: miter; stroke-linecap: square"/>
   </g>
   <g id="patch_6">
    <path d="M 35.89 10.8 
L 853.2 10.8 
" style="fill: none; stroke: #000000; stroke-width: 0.8; stroke-linejoin: miter; stroke-linecap: square"/>
   </g>
  </g>
 </g>
 <defs>
  <clipPath id="p098892eb20">
   <rect x="35.89" y="10.8" width="817.31" height="393.32"/>
  </clipPath>
 </defs>
</svg>
