<?xml version="1.0" encoding="utf-8" standalone="no"?>
<!DOCTYPE svg PUBLIC "-//W3C//DTD SVG 1.1//EN"
  "http://www.w3.org/Graphics/SVG/1.1/DTD/svg11.dtd">
<svg xmlns:xlink="http://www.w3.org/1999/xlink" width="864pt" height="432pt" viewBox="0 0 864 432" xmlns="http://www.w3.org/2000/svg" version="1.1">
 <metadata>
  <rdf:RDF xmlns:dc="http://purl.org/dc/elements/1.1/" xmlns:cc="http://creativecommons.org/ns#" xmlns:rdf="http://www.w3.org/1999/02/22-rdf-syntax-ns#">
   <cc:Work>
    <dc:type rdf:resource="http://purl.org/dc/dcmitype/StillImage"/>
    <dc:date>2024-09-18T08:37:21.476788</dc:date>
    <dc:format>image/svg+xml</dc:format>
    <dc:creator>
     <cc:Agent>
      <dc:title>Matplotlib v3.9.2, https://matplotlib.org/</dc:title>
     </cc:Agent>
    </dc:creator>
   </cc:Work>
  </rdf:RDF>
 </metadata>
 <defs>
  <style type="text/css">*{stroke-linejoin: round; stroke-linecap: butt}</style>
 </defs>
 <g id="figure_1">
  <g id="patch_1">
   <path d="M 0 432 
L 864 432 
L 864 0 
L 0 0 
z
" style="fill: #ffffff"/>
  </g>
  <g id="axes_1">
   <g id="patch_2">
    <path d="M 41.92 404.12 
L 853.2 404.12 
L 853.2 10.8 
L 41.92 10.8 
z
" style="fill: #ffffff"/>
   </g>
   <g id="matplotlib.axis_1">
    <g id="xtick_1">
     <g id="line2d_1">
      <defs>
       <path id="m4f78a03659" d="M 0 0 
L 0 3.5 
" style="stroke: #000000; stroke-width: 0.8"/>
      </defs>
      <g>
       <use xlink:href="#m4f78a03659" x="203.672049" y="404.12" style="stroke: #000000; stroke-width: 0.8"/>
      </g>
     </g>
     <g id="text_1">
      <!-- 2000 -->
      <g transform="translate(191.631424 418.771563) scale(0.1 -0.1)">
       <defs>
        <path id="DejaVuSansMono-32" d="M 1166 531 
L 3309 531 
L 3309 0 
L 475 0 
L 475 531 
Q 1059 1147 1496 1619 
Q 1934 2091 2100 2284 
Q 2413 2666 2522 2902 
Q 2631 3138 2631 3384 
Q 2631 3775 2401 3997 
Q 2172 4219 1772 4219 
Q 1488 4219 1175 4116 
Q 863 4013 513 3803 
L 513 4441 
Q 834 4594 1145 4672 
Q 1456 4750 1759 4750 
Q 2444 4750 2861 4386 
Q 3278 4022 3278 3431 
Q 3278 3131 3139 2831 
Q 3000 2531 2688 2169 
Q 2513 1966 2180 1606 
Q 1847 1247 1166 531 
z
" transform="scale(0.015625)"/>
        <path id="DejaVuSansMono-30" d="M 1509 2344 
Q 1509 2516 1629 2641 
Q 1750 2766 1919 2766 
Q 2094 2766 2219 2641 
Q 2344 2516 2344 2344 
Q 2344 2169 2220 2047 
Q 2097 1925 1919 1925 
Q 1744 1925 1626 2044 
Q 1509 2163 1509 2344 
z
M 1925 4250 
Q 1484 4250 1267 3775 
Q 1050 3300 1050 2328 
Q 1050 1359 1267 884 
Q 1484 409 1925 409 
Q 2369 409 2586 884 
Q 2803 1359 2803 2328 
Q 2803 3300 2586 3775 
Q 2369 4250 1925 4250 
z
M 1925 4750 
Q 2672 4750 3055 4137 
Q 3438 3525 3438 2328 
Q 3438 1134 3055 521 
Q 2672 -91 1925 -91 
Q 1178 -91 797 521 
Q 416 1134 416 2328 
Q 416 3525 797 4137 
Q 1178 4750 1925 4750 
z
" transform="scale(0.015625)"/>
       </defs>
       <use xlink:href="#DejaVuSansMono-32"/>
       <use xlink:href="#DejaVuSansMono-30" x="60.205078"/>
       <use xlink:href="#DejaVuSansMono-30" x="120.410156"/>
       <use xlink:href="#DejaVuSansMono-30" x="180.615234"/>
      </g>
     </g>
    </g>
    <g id="xtick_2">
     <g id="line2d_2">
      <g>
       <use xlink:href="#m4f78a03659" x="366.236922" y="404.12" style="stroke: #000000; stroke-width: 0.8"/>
      </g>
     </g>
     <g id="text_2">
      <!-- 4000 -->
      <g transform="translate(354.196297 418.771563) scale(0.1 -0.1)">
       <defs>
        <path id="DejaVuSansMono-34" d="M 2297 4091 
L 825 1625 
L 2297 1625 
L 2297 4091 
z
M 2194 4666 
L 2925 4666 
L 2925 1625 
L 3547 1625 
L 3547 1113 
L 2925 1113 
L 2925 0 
L 2297 0 
L 2297 1113 
L 319 1113 
L 319 1709 
L 2194 4666 
z
" transform="scale(0.015625)"/>
       </defs>
       <use xlink:href="#DejaVuSansMono-34"/>
       <use xlink:href="#DejaVuSansMono-30" x="60.205078"/>
       <use xlink:href="#DejaVuSansMono-30" x="120.410156"/>
       <use xlink:href="#DejaVuSansMono-30" x="180.615234"/>
      </g>
     </g>
    </g>
    <g id="xtick_3">
     <g id="line2d_3">
      <g>
       <use xlink:href="#m4f78a03659" x="528.801795" y="404.12" style="stroke: #000000; stroke-width: 0.8"/>
      </g>
     </g>
     <g id="text_3">
      <!-- 6000 -->
      <g transform="translate(516.76117 418.771563) scale(0.1 -0.1)">
       <defs>
        <path id="DejaVuSansMono-36" d="M 3097 4563 
L 3097 3981 
Q 2900 4097 2678 4158 
Q 2456 4219 2216 4219 
Q 1616 4219 1306 3767 
Q 997 3316 997 2438 
Q 1147 2750 1412 2917 
Q 1678 3084 2022 3084 
Q 2697 3084 3067 2670 
Q 3438 2256 3438 1497 
Q 3438 741 3056 325 
Q 2675 -91 1984 -91 
Q 1172 -91 794 492 
Q 416 1075 416 2328 
Q 416 3509 870 4129 
Q 1325 4750 2188 4750 
Q 2419 4750 2650 4701 
Q 2881 4653 3097 4563 
z
M 1972 2591 
Q 1569 2591 1337 2300 
Q 1106 2009 1106 1497 
Q 1106 984 1337 693 
Q 1569 403 1972 403 
Q 2391 403 2603 679 
Q 2816 956 2816 1497 
Q 2816 2041 2603 2316 
Q 2391 2591 1972 2591 
z
" transform="scale(0.015625)"/>
       </defs>
       <use xlink:href="#DejaVuSansMono-36"/>
       <use xlink:href="#DejaVuSansMono-30" x="60.205078"/>
       <use xlink:href="#DejaVuSansMono-30" x="120.410156"/>
       <use xlink:href="#DejaVuSansMono-30" x="180.615234"/>
      </g>
     </g>
    </g>
    <g id="xtick_4">
     <g id="line2d_4">
      <g>
       <use xlink:href="#m4f78a03659" x="691.366669" y="404.12" style="stroke: #000000; stroke-width: 0.8"/>
      </g>
     </g>
     <g id="text_4">
      <!-- 8000 -->
      <g transform="translate(679.326044 418.771563) scale(0.1 -0.1)">
       <defs>
        <path id="DejaVuSansMono-38" d="M 1925 2216 
Q 1503 2216 1273 1980 
Q 1044 1744 1044 1313 
Q 1044 881 1276 642 
Q 1509 403 1925 403 
Q 2350 403 2579 639 
Q 2809 875 2809 1313 
Q 2809 1741 2576 1978 
Q 2344 2216 1925 2216 
z
M 1375 2478 
Q 972 2581 745 2862 
Q 519 3144 519 3541 
Q 519 4097 897 4423 
Q 1275 4750 1925 4750 
Q 2578 4750 2956 4423 
Q 3334 4097 3334 3541 
Q 3334 3144 3107 2862 
Q 2881 2581 2478 2478 
Q 2947 2375 3195 2062 
Q 3444 1750 3444 1253 
Q 3444 622 3041 265 
Q 2638 -91 1925 -91 
Q 1213 -91 811 264 
Q 409 619 409 1247 
Q 409 1747 657 2061 
Q 906 2375 1375 2478 
z
M 1147 3481 
Q 1147 3106 1347 2909 
Q 1547 2713 1925 2713 
Q 2306 2713 2506 2909 
Q 2706 3106 2706 3481 
Q 2706 3863 2507 4063 
Q 2309 4263 1925 4263 
Q 1547 4263 1347 4061 
Q 1147 3859 1147 3481 
z
" transform="scale(0.015625)"/>
       </defs>
       <use xlink:href="#DejaVuSansMono-38"/>
       <use xlink:href="#DejaVuSansMono-30" x="60.205078"/>
       <use xlink:href="#DejaVuSansMono-30" x="120.410156"/>
       <use xlink:href="#DejaVuSansMono-30" x="180.615234"/>
      </g>
     </g>
    </g>
   </g>
   <g id="matplotlib.axis_2">
    <g id="ytick_1">
     <g id="line2d_5">
      <defs>
       <path id="m405e2f0f8f" d="M 0 0 
L -3.5 0 
" style="stroke: #000000; stroke-width: 0.8"/>
      </defs>
      <g>
       <use xlink:href="#m405e2f0f8f" x="41.92" y="386.246196" style="stroke: #000000; stroke-width: 0.8"/>
      </g>
     </g>
     <g id="text_5">
      <!-- 0.00 -->
      <g transform="translate(10.83875 390.071978) scale(0.1 -0.1)">
       <defs>
        <path id="DejaVuSansMono-2e" d="M 1528 953 
L 2316 953 
L 2316 0 
L 1528 0 
L 1528 953 
z
" transform="scale(0.015625)"/>
       </defs>
       <use xlink:href="#DejaVuSansMono-30"/>
       <use xlink:href="#DejaVuSansMono-2e" x="60.205078"/>
       <use xlink:href="#DejaVuSansMono-30" x="120.410156"/>
       <use xlink:href="#DejaVuSansMono-30" x="180.615234"/>
      </g>
     </g>
    </g>
    <g id="ytick_2">
     <g id="line2d_6">
      <g>
       <use xlink:href="#m405e2f0f8f" x="41.92" y="339.061225" style="stroke: #000000; stroke-width: 0.8"/>
      </g>
     </g>
     <g id="text_6">
      <!-- 0.02 -->
      <g transform="translate(10.83875 342.887006) scale(0.1 -0.1)">
       <use xlink:href="#DejaVuSansMono-30"/>
       <use xlink:href="#DejaVuSansMono-2e" x="60.205078"/>
       <use xlink:href="#DejaVuSansMono-30" x="120.410156"/>
       <use xlink:href="#DejaVuSansMono-32" x="180.615234"/>
      </g>
     </g>
    </g>
    <g id="ytick_3">
     <g id="line2d_7">
      <g>
       <use xlink:href="#m405e2f0f8f" x="41.92" y="291.876253" style="stroke: #000000; stroke-width: 0.8"/>
      </g>
     </g>
     <g id="text_7">
      <!-- 0.04 -->
      <g transform="translate(10.83875 295.702034) scale(0.1 -0.1)">
       <use xlink:href="#DejaVuSansMono-30"/>
       <use xlink:href="#DejaVuSansMono-2e" x="60.205078"/>
       <use xlink:href="#DejaVuSansMono-30" x="120.410156"/>
       <use xlink:href="#DejaVuSansMono-34" x="180.615234"/>
      </g>
     </g>
    </g>
    <g id="ytick_4">
     <g id="line2d_8">
      <g>
       <use xlink:href="#m405e2f0f8f" x="41.92" y="244.691281" style="stroke: #000000; stroke-width: 0.8"/>
      </g>
     </g>
     <g id="text_8">
      <!-- 0.06 -->
      <g transform="translate(10.83875 248.517062) scale(0.1 -0.1)">
       <use xlink:href="#DejaVuSansMono-30"/>
       <use xlink:href="#DejaVuSansMono-2e" x="60.205078"/>
       <use xlink:href="#DejaVuSansMono-30" x="120.410156"/>
       <use xlink:href="#DejaVuSansMono-36" x="180.615234"/>
      </g>
     </g>
    </g>
    <g id="ytick_5">
     <g id="line2d_9">
      <g>
       <use xlink:href="#m405e2f0f8f" x="41.92" y="197.506309" style="stroke: #000000; stroke-width: 0.8"/>
      </g>
     </g>
     <g id="text_9">
      <!-- 0.08 -->
      <g transform="translate(10.83875 201.33209) scale(0.1 -0.1)">
       <use xlink:href="#DejaVuSansMono-30"/>
       <use xlink:href="#DejaVuSansMono-2e" x="60.205078"/>
       <use xlink:href="#DejaVuSansMono-30" x="120.410156"/>
       <use xlink:href="#DejaVuSansMono-38" x="180.615234"/>
      </g>
     </g>
    </g>
    <g id="ytick_6">
     <g id="line2d_10">
      <g>
       <use xlink:href="#m405e2f0f8f" x="41.92" y="150.321337" style="stroke: #000000; stroke-width: 0.8"/>
      </g>
     </g>
     <g id="text_10">
      <!-- 0.10 -->
      <g transform="translate(10.83875 154.147118) scale(0.1 -0.1)">
       <defs>
        <path id="DejaVuSansMono-31" d="M 844 531 
L 1825 531 
L 1825 4097 
L 769 3859 
L 769 4434 
L 1819 4666 
L 2450 4666 
L 2450 531 
L 3419 531 
L 3419 0 
L 844 0 
L 844 531 
z
" transform="scale(0.015625)"/>
       </defs>
       <use xlink:href="#DejaVuSansMono-30"/>
       <use xlink:href="#DejaVuSansMono-2e" x="60.205078"/>
       <use xlink:href="#DejaVuSansMono-31" x="120.410156"/>
       <use xlink:href="#DejaVuSansMono-30" x="180.615234"/>
      </g>
     </g>
    </g>
    <g id="ytick_7">
     <g id="line2d_11">
      <g>
       <use xlink:href="#m405e2f0f8f" x="41.92" y="103.136365" style="stroke: #000000; stroke-width: 0.8"/>
      </g>
     </g>
     <g id="text_11">
      <!-- 0.12 -->
      <g transform="translate(10.83875 106.962147) scale(0.1 -0.1)">
       <use xlink:href="#DejaVuSansMono-30"/>
       <use xlink:href="#DejaVuSansMono-2e" x="60.205078"/>
       <use xlink:href="#DejaVuSansMono-31" x="120.410156"/>
       <use xlink:href="#DejaVuSansMono-32" x="180.615234"/>
      </g>
     </g>
    </g>
    <g id="ytick_8">
     <g id="line2d_12">
      <g>
       <use xlink:href="#m405e2f0f8f" x="41.92" y="55.951393" style="stroke: #000000; stroke-width: 0.8"/>
      </g>
     </g>
     <g id="text_12">
      <!-- 0.14 -->
      <g transform="translate(10.83875 59.777175) scale(0.1 -0.1)">
       <use xlink:href="#DejaVuSansMono-30"/>
       <use xlink:href="#DejaVuSansMono-2e" x="60.205078"/>
       <use xlink:href="#DejaVuSansMono-31" x="120.410156"/>
       <use xlink:href="#DejaVuSansMono-34" x="180.615234"/>
      </g>
     </g>
    </g>
   </g>
   <g id="line2d_13">
    <path d="M 41.838718 95.98518 
L 42.001282 93.036608 
L 42.24513 74.691127 
L 42.570259 70.039517 
L 42.814107 53.823942 
L 43.057954 63.119595 
L 43.139237 64.12092 
L 43.220519 63.414169 
L 43.789496 81.621587 
L 43.870778 82.558071 
L 44.195908 76.247854 
L 44.358473 78.217381 
L 44.439756 75.393033 
L 44.521038 76.801646 
L 44.60232 73.550429 
L 44.683603 74.371853 
L 44.764885 75.332995 
L 44.846168 75.018121 
L 44.92745 75.316837 
L 45.090015 72.203557 
L 45.171297 72.632868 
L 45.57771 85.197206 
L 45.658992 85.332495 
L 45.740275 80.149527 
L 45.821557 84.209585 
L 45.902839 82.369027 
L 46.227969 64.650025 
L 46.390534 53.564081 
L 46.471816 55.47026 
L 46.796946 71.382014 
L 47.040794 82.940679 
L 47.122076 85.934792 
L 47.203358 93.613025 
L 47.284641 90.999569 
L 47.447206 85.188902 
L 47.691053 67.929756 
L 47.9349 59.054113 
L 48.016183 57.97138 
L 48.26003 68.318928 
L 48.503877 85.909828 
L 48.58516 89.619364 
L 48.666442 88.441755 
L 49.235419 66.83352 
L 49.804396 83.817179 
L 49.966961 83.35758 
L 50.048244 83.593069 
L 50.210809 79.57617 
L 50.292091 79.981901 
L 50.373373 79.711744 
L 50.617221 75.70339 
L 50.779786 80.322582 
L 50.861068 80.418437 
L 50.94235 80.284245 
L 51.104915 72.742583 
L 51.186198 74.006873 
L 51.348763 77.01764 
L 51.430045 74.361839 
L 51.836457 83.388812 
L 51.999022 89.270617 
L 52.080305 86.968193 
L 52.161587 87.314254 
L 52.242869 88.768206 
L 52.405434 81.647579 
L 52.486717 74.915227 
L 52.567999 75.235723 
L 52.649282 73.484393 
L 52.730564 73.822103 
L 52.893129 74.210965 
L 53.136976 72.206336 
L 53.299541 81.902298 
L 53.380824 81.41126 
L 53.462106 81.168377 
L 53.624671 77.602689 
L 53.949801 87.88663 
L 54.031083 85.567253 
L 54.193648 83.426147 
L 54.437495 76.872753 
L 54.518778 77.115994 
L 54.60006 78.278106 
L 54.681343 78.086871 
L 54.762625 78.2582 
L 55.006472 85.55436 
L 55.087755 86.148679 
L 55.169037 85.404334 
L 55.494167 78.328168 
L 55.656732 79.683615 
L 55.738014 77.8738 
L 55.981862 86.068218 
L 56.144426 79.380041 
L 56.225709 79.390584 
L 56.550839 84.552373 
L 56.632121 81.287683 
L 56.713403 82.348689 
L 56.794686 80.468139 
L 57.038533 92.731085 
L 57.282381 83.634138 
L 57.363663 84.235147 
L 57.444945 86.240362 
L 57.526228 86.083859 
L 57.60751 86.277 
L 57.688793 87.603752 
L 57.851358 83.055692 
L 58.095205 91.900537 
L 58.176487 89.082368 
L 58.420335 93.531719 
L 58.501617 92.880262 
L 58.5829 97.734492 
L 58.664182 96.234203 
L 58.745464 95.094625 
L 58.908029 98.382889 
L 58.989312 99.837681 
L 59.070594 92.469294 
L 59.151877 92.948149 
L 59.395724 106.006421 
L 59.558289 109.773613 
L 59.720854 107.595923 
L 59.802136 110.742627 
L 59.964701 123.830195 
L 60.045983 122.53856 
L 60.127266 124.500805 
L 60.208548 121.168269 
L 60.371113 127.245922 
L 60.61496 141.621133 
L 60.696243 136.468424 
L 60.777525 138.898238 
L 60.94009 145.983684 
L 61.021373 144.690493 
L 61.346502 155.004973 
L 61.427785 153.470282 
L 61.59035 163.614738 
L 61.671632 162.133341 
L 61.915479 176.518763 
L 61.996762 177.215444 
L 62.159327 187.376347 
L 62.321892 195.54491 
L 62.403174 194.208563 
L 62.647021 210.908808 
L 62.809586 213.878219 
L 62.890869 213.254043 
L 63.053434 219.221389 
L 63.215998 228.633271 
L 63.378563 223.531549 
L 63.784975 242.924911 
L 63.866258 243.104574 
L 64.191388 256.692491 
L 64.353953 258.966146 
L 64.435235 255.998515 
L 64.5978 262.09567 
L 64.679082 262.026382 
L 64.760365 262.840048 
L 64.841647 261.561475 
L 65.329342 280.418491 
L 65.410624 276.449063 
L 65.735754 290.386939 
L 65.898319 289.03839 
L 65.979601 294.113497 
L 66.060884 293.874685 
L 66.142166 295.765291 
L 66.304731 300.969195 
L 66.386013 299.143937 
L 66.467296 299.434502 
L 66.548578 299.967888 
L 66.873708 305.479951 
L 67.117555 303.74279 
L 67.361403 309.440153 
L 67.523968 307.135537 
L 67.60525 308.033273 
L 67.849097 316.486186 
L 68.092945 313.381562 
L 68.174227 314.581395 
L 68.418074 323.1486 
L 68.499357 322.245779 
L 68.661922 321.127494 
L 68.824487 324.340972 
L 68.905769 323.768522 
L 68.987051 325.756615 
L 69.149616 322.629652 
L 69.312181 318.097343 
L 69.393464 318.553653 
L 69.718593 327.973795 
L 69.799876 321.766042 
L 69.881158 322.699296 
L 70.043723 324.327084 
L 70.28757 329.40791 
L 70.368853 329.812583 
L 70.531418 329.373862 
L 70.6127 334.243099 
L 70.693983 332.488163 
L 71.019112 339.490372 
L 71.26296 332.076776 
L 71.506807 339.501132 
L 71.588089 339.444942 
L 71.750654 338.784533 
L 71.831937 338.824685 
L 71.913219 339.693333 
L 72.157066 344.864725 
L 72.238349 344.729169 
L 72.400914 346.175057 
L 72.563479 343.776095 
L 72.644761 344.684419 
L 72.888608 350.871179 
L 72.969891 351.010603 
L 73.213738 345.801818 
L 73.376303 348.638756 
L 73.457585 348.132347 
L 73.62015 346.194229 
L 73.701433 346.936719 
L 73.782715 345.350134 
L 73.863998 345.828914 
L 74.189127 348.22168 
L 74.27041 347.263105 
L 74.432975 348.654188 
L 74.514257 348.219138 
L 75.083234 355.862869 
L 75.327081 357.832538 
L 75.408364 356.263304 
L 75.570929 357.790633 
L 75.652211 357.420498 
L 75.814776 357.687325 
L 75.896059 357.629841 
L 76.058623 355.032261 
L 76.139906 355.001222 
L 76.221188 357.857552 
L 76.302471 357.505981 
L 76.465036 358.035 
L 76.546318 357.08196 
L 76.871448 361.924955 
L 76.95273 361.140954 
L 77.034013 361.244858 
L 77.115295 360.710329 
L 77.196577 360.747241 
L 77.27786 361.438188 
L 77.359142 363.506303 
L 77.440425 363.429148 
L 77.521707 362.683282 
L 77.60299 360.16471 
L 77.684272 360.354755 
L 77.928119 363.25619 
L 78.090684 359.007345 
L 78.334532 355.893772 
L 78.415814 357.021893 
L 78.578379 354.537037 
L 78.659661 355.009146 
L 78.740944 354.552689 
L 78.822226 358.72256 
L 78.984791 354.992809 
L 79.066074 355.861855 
L 79.147356 355.70946 
L 79.309921 356.652068 
L 79.391203 356.812295 
L 79.472486 355.760767 
L 79.553768 355.876982 
L 79.635051 355.221837 
L 79.797615 360.445108 
L 79.878898 360.764836 
L 80.041463 363.602067 
L 80.122745 363.700118 
L 80.447875 366.149564 
L 80.529157 365.064116 
L 80.691722 366.222666 
L 80.773005 363.886163 
L 80.854287 364.197581 
L 81.098134 366.720112 
L 81.260699 364.350303 
L 81.341982 365.585193 
L 81.423264 365.570081 
L 81.504547 363.91234 
L 81.585829 366.587165 
L 81.667112 366.349339 
L 81.748394 365.685629 
L 82.073524 369.031981 
L 82.154806 368.703237 
L 82.236089 368.448728 
L 82.317371 369.953761 
L 82.479936 366.909691 
L 82.561218 367.216797 
L 82.642501 365.627718 
L 82.723783 365.669252 
L 83.048913 367.145589 
L 83.130195 367.179258 
L 83.29276 365.0332 
L 83.374043 365.1041 
L 83.455325 366.021611 
L 83.780455 364.419799 
L 83.94302 365.195784 
L 84.105585 370.254439 
L 84.268149 370.223945 
L 84.430714 366.635963 
L 84.511997 366.877942 
L 84.674562 368.418528 
L 84.837127 369.548358 
L 84.918409 369.12332 
L 84.999691 369.231065 
L 85.080974 368.899704 
L 85.162256 372.595038 
L 85.406104 369.92755 
L 85.487386 369.910905 
L 85.568668 369.400764 
L 85.975081 371.562449 
L 86.218928 373.58657 
L 86.381493 373.070915 
L 86.544058 370.748621 
L 87.194317 374.605881 
L 87.356882 376.664298 
L 87.438165 376.55397 
L 87.519447 376.930211 
L 87.844577 375.839456 
L 87.925859 375.592649 
L 88.007142 375.746925 
L 88.088424 375.192396 
L 88.169706 373.1066 
L 88.250989 373.126286 
L 88.413554 372.531192 
L 88.494836 372.324681 
L 88.657401 369.641186 
L 88.819966 369.484328 
L 88.901248 369.554317 
L 88.982531 372.232206 
L 89.063813 371.701847 
L 89.145096 370.592243 
L 89.226378 370.91773 
L 89.307661 371.282928 
L 89.388943 373.384915 
L 89.470225 372.850685 
L 89.714073 374.050836 
L 89.876638 371.236364 
L 90.039202 372.864883 
L 90.120485 372.280414 
L 90.28305 373.389325 
L 90.526897 372.094877 
L 90.689462 374.586408 
L 90.770744 374.176007 
L 90.852027 373.927057 
L 91.095874 374.73757 
L 91.177157 374.481442 
L 91.258439 374.929835 
L 91.339721 373.474907 
L 91.421004 374.094347 
L 91.664851 373.305041 
L 91.827416 373.828852 
L 91.989981 373.186038 
L 92.071263 373.240454 
L 92.152546 374.946788 
L 92.233828 374.23605 
L 92.558958 376.204876 
L 92.802805 377.605383 
L 92.884088 377.161698 
L 93.046653 376.213298 
L 93.2905 375.093298 
L 93.453065 373.948807 
L 94.184607 378.126667 
L 94.347172 377.115069 
L 94.591019 376.666404 
L 94.672301 376.816039 
L 94.834866 376.624541 
L 94.916149 376.24002 
L 94.997431 376.459481 
L 95.078714 377.62785 
L 95.322561 376.859775 
L 95.403843 377.167658 
L 95.485126 376.951732 
L 95.647691 377.59677 
L 95.728973 376.578202 
L 95.810255 376.747899 
L 95.891538 376.623416 
L 96.135385 377.138484 
L 96.379233 375.122469 
L 96.460515 374.950028 
L 96.541797 375.731442 
L 96.704362 373.3643 
L 96.785645 373.490013 
L 97.029492 369.848237 
L 97.110774 369.932178 
L 97.273339 371.74415 
L 97.598469 374.961827 
L 97.842316 380.027375 
L 98.330011 376.716331 
L 98.411293 376.885559 
L 98.492576 376.923995 
L 98.573858 376.408312 
L 98.655141 376.586151 
L 99.061553 379.545345 
L 99.224118 379.934622 
L 99.3054 378.625907 
L 99.467965 379.359337 
L 99.549248 378.902227 
L 99.711812 376.900947 
L 99.874377 376.578927 
L 99.95566 376.581514 
L 100.036942 376.360584 
L 100.118225 377.158857 
L 100.28079 376.571987 
L 100.362072 376.877671 
L 100.443354 378.742249 
L 100.524637 378.031362 
L 100.605919 378.085817 
L 100.687202 378.283343 
L 100.849767 377.559535 
L 101.012331 378.186914 
L 101.093614 377.939949 
L 101.174896 377.983218 
L 101.337461 379.284312 
L 101.418744 378.876802 
L 101.581308 379.213382 
L 101.662591 379.705812 
L 101.743873 379.465419 
L 101.906438 380.176154 
L 101.987721 380.177241 
L 102.556698 381.216644 
L 102.96311 380.830712 
L 103.125675 381.034785 
L 103.206957 380.948917 
L 103.28824 381.280581 
L 103.369522 381.152546 
L 103.694652 381.428092 
L 103.938499 381.58167 
L 104.019782 381.612653 
L 104.182346 381.770149 
L 104.263629 381.794702 
L 104.426194 382.07646 
L 104.670041 381.766585 
L 104.832606 381.970534 
L 104.913888 381.742059 
L 105.076453 382.16374 
L 105.320301 382.266638 
L 105.564148 381.287539 
L 105.64543 381.309162 
L 105.889278 380.27127 
L 105.97056 380.225561 
L 106.133125 379.456343 
L 106.214407 380.239116 
L 106.458255 377.357568 
L 106.539537 378.045634 
L 106.62082 377.951213 
L 106.702102 378.176125 
L 106.783384 377.760458 
L 106.864667 377.788491 
L 107.027232 377.410047 
L 107.108514 379.354763 
L 107.189797 379.131876 
L 107.352361 380.192554 
L 107.596209 380.773305 
L 107.840056 381.853935 
L 108.002621 382.282226 
L 108.083903 382.518397 
L 108.165186 382.184383 
L 108.246468 382.320897 
L 108.327751 382.2647 
L 108.409033 382.178632 
L 108.571598 382.342339 
L 108.734163 382.300124 
L 108.815445 382.374229 
L 108.97801 382.914914 
L 109.059293 382.56373 
L 109.221858 382.967663 
L 109.62827 381.112621 
L 109.709552 381.069718 
L 109.872117 381.333862 
L 109.953399 381.228854 
L 110.034682 381.20559 
L 110.197247 381.75695 
L 110.278529 381.569251 
L 110.359812 381.797426 
L 110.441094 381.753527 
L 110.522377 381.71571 
L 110.603659 380.969861 
L 110.684941 381.074629 
L 110.847506 381.033983 
L 110.928789 381.113444 
L 111.091354 382.139994 
L 111.172636 381.407368 
L 111.253918 381.448485 
L 111.335201 381.242855 
L 111.416483 381.632303 
L 111.497766 381.606867 
L 111.579048 381.674975 
L 111.904178 381.074286 
L 112.066743 382.069181 
L 112.391873 382.741542 
L 112.473155 382.221615 
L 112.554437 382.508215 
L 112.63572 382.370358 
L 112.717002 382.475329 
L 112.798285 382.321182 
L 113.204697 380.393576 
L 113.285979 380.944947 
L 113.367262 380.79266 
L 113.529827 381.100405 
L 113.611109 381.043069 
L 114.017521 382.78554 
L 114.261369 382.944293 
L 114.342651 382.684363 
L 114.505216 382.879566 
L 114.667781 382.428735 
L 114.749063 382.545303 
L 115.074193 381.824491 
L 115.155475 382.078532 
L 115.31804 381.679564 
L 115.480605 381.988124 
L 115.561888 381.889528 
L 115.64317 381.75225 
L 115.805735 381.16781 
L 115.887017 381.196095 
L 115.9683 381.002517 
L 116.049582 381.416931 
L 116.130865 381.371359 
L 116.29343 380.926464 
L 116.374712 380.879867 
L 116.455994 381.082874 
L 116.537277 381.635806 
L 116.618559 381.360314 
L 116.781124 381.879496 
L 116.862407 381.794652 
L 116.943689 381.963877 
L 117.106254 382.766808 
L 117.350101 383.369771 
L 117.431384 383.821901 
L 117.593949 383.349702 
L 117.756513 383.366335 
L 117.919078 383.274664 
L 118.081643 382.951411 
L 118.162926 382.95113 
L 118.244208 382.822501 
L 118.406773 383.048995 
L 118.488055 382.941015 
L 118.569338 383.051031 
L 118.65062 382.943987 
L 118.731903 383.019633 
L 118.894467 383.27617 
L 119.138315 383.315175 
L 119.30088 383.519211 
L 119.382162 382.791817 
L 119.463445 382.892259 
L 119.544727 382.878387 
L 119.626009 382.668594 
L 119.788574 381.83973 
L 120.032422 381.955939 
L 120.113704 381.882925 
L 120.194986 382.259748 
L 120.276269 382.187212 
L 120.357551 382.097335 
L 120.438834 382.270154 
L 120.601399 383.200617 
L 120.682681 382.898701 
L 120.763964 382.954191 
L 120.845246 382.739482 
L 121.170376 383.420475 
L 121.332941 383.147867 
L 121.495505 383.201074 
L 121.576788 383.006934 
L 121.65807 383.225215 
L 121.9832 381.720612 
L 122.064483 381.88294 
L 122.227047 381.550079 
L 122.877307 383.804132 
L 122.958589 383.797003 
L 123.121154 383.286078 
L 123.527566 383.610994 
L 123.690131 383.344545 
L 123.933979 383.994982 
L 124.177826 383.460453 
L 124.584238 383.509859 
L 124.746803 383.670485 
L 124.99065 384.303436 
L 125.153215 383.791041 
L 125.234498 383.817816 
L 125.397062 383.725756 
L 125.64091 383.733632 
L 125.803475 383.305862 
L 126.047322 383.979012 
L 126.128604 383.97829 
L 126.209887 383.861343 
L 126.372452 383.464353 
L 126.453734 383.404332 
L 126.616299 383.781332 
L 126.697581 383.932563 
L 126.778864 383.873111 
L 126.860146 383.81103 
L 127.022711 384.072997 
L 127.185276 384.418122 
L 127.347841 383.850881 
L 127.591688 383.741545 
L 127.672971 383.602607 
L 127.9981 382.542082 
L 128.160665 382.973832 
L 128.241948 383.021475 
L 128.32323 382.799079 
L 128.404513 382.012791 
L 128.485795 382.162812 
L 128.729642 382.986636 
L 128.97349 383.084294 
L 129.054772 382.993616 
L 129.136055 383.181272 
L 129.217337 383.947086 
L 129.461184 383.196159 
L 129.623749 383.307069 
L 129.705032 383.345754 
L 129.786314 383.198047 
L 129.948879 383.371484 
L 130.030161 383.256824 
L 130.192726 383.901832 
L 130.517856 384.000137 
L 130.842986 384.407956 
L 131.005551 384.348444 
L 131.168115 384.517858 
L 131.411963 384.39847 
L 131.493245 384.360066 
L 131.65581 384.075472 
L 131.899657 384.141382 
L 132.062222 384.220857 
L 132.224787 384.281826 
L 132.30607 384.280285 
L 132.387352 384.439035 
L 132.468634 384.391006 
L 132.712482 384.418657 
L 132.956329 384.312685 
L 133.281459 384.697291 
L 133.362741 384.700823 
L 133.444024 384.520685 
L 133.525306 384.590453 
L 133.850436 384.810366 
L 134.175566 384.570578 
L 134.33813 384.591328 
L 134.500695 384.513755 
L 134.66326 384.165814 
L 135.31352 384.51876 
L 135.476085 384.781072 
L 135.719932 384.750975 
L 135.963779 384.569756 
L 136.126344 384.326027 
L 136.288909 382.915899 
L 136.776604 382.826151 
L 136.939168 383.073647 
L 137.020451 384.421128 
L 137.101733 384.366274 
L 137.589428 384.367396 
L 137.67071 384.025064 
L 137.751993 384.065011 
L 137.914558 383.872499 
L 138.077123 382.467149 
L 138.32097 382.717771 
L 138.402252 382.60612 
L 138.564817 382.910701 
L 138.727382 383.277041 
L 138.889947 384.703708 
L 139.133794 384.7293 
L 139.296359 384.844279 
L 139.458924 384.821003 
L 139.540206 384.800153 
L 139.784054 384.369925 
L 140.027901 384.196594 
L 140.271748 384.254451 
L 140.353031 384.204624 
L 140.678161 384.606414 
L 141.00329 384.494432 
L 141.165855 384.398019 
L 141.490985 384.628533 
L 141.572267 383.868581 
L 141.65355 383.890838 
L 141.734832 383.748387 
L 141.816115 383.797543 
L 141.978679 383.854931 
L 142.141244 382.737095 
L 142.303809 382.526639 
L 142.385092 383.223301 
L 142.466374 383.192154 
L 142.628939 383.452396 
L 142.791504 383.515021 
L 142.954069 384.62122 
L 143.197916 384.885454 
L 143.360481 384.847977 
L 143.441763 384.566552 
L 143.523046 384.597332 
L 143.848176 384.637889 
L 144.173305 384.644073 
L 144.33587 384.910634 
L 144.823565 384.598655 
L 145.229977 384.770496 
L 145.392542 384.978691 
L 145.473824 384.98172 
L 145.636389 384.554019 
L 145.798954 384.452568 
L 145.961519 384.544406 
L 146.286649 384.443284 
L 146.449214 384.930296 
L 146.530496 384.958943 
L 146.693061 384.640463 
L 146.774343 384.671166 
L 146.936908 384.103639 
L 147.180755 384.187476 
L 147.587168 384.080149 
L 147.66845 384.56868 
L 147.749732 384.416561 
L 147.99358 384.043962 
L 148.156145 383.831599 
L 148.31871 384.088931 
L 148.887687 384.653007 
L 148.968969 384.827126 
L 149.131534 384.599763 
L 149.456664 384.546349 
L 149.619229 384.16871 
L 149.781793 384.151286 
L 149.863076 384.45628 
L 149.944358 384.411281 
L 150.106923 384.484761 
L 150.432053 384.945781 
L 150.513335 384.981495 
L 150.757183 384.711924 
L 151.244877 384.690181 
L 151.407442 384.386336 
L 151.488725 384.339368 
L 151.570007 384.505714 
L 151.651289 384.419928 
L 151.813854 384.392632 
L 151.895137 384.426093 
L 152.057702 384.019263 
L 152.301549 384.526846 
L 152.707961 384.729007 
L 152.789244 385.020159 
L 152.951808 384.615421 
L 153.602068 384.78846 
L 153.68335 385.203829 
L 153.764633 385.122887 
L 153.927198 384.638765 
L 154.089763 384.546285 
L 154.496175 384.028922 
L 154.577457 384.107267 
L 154.65874 384.384547 
L 154.821304 384.006231 
L 155.634129 385.276453 
L 155.796694 385.173738 
L 155.959259 385.218219 
L 156.203106 385.099543 
L 156.365671 385.076556 
L 156.446953 384.841686 
L 156.528236 384.926287 
L 156.772083 384.746144 
L 156.934648 384.833162 
L 157.178495 384.836009 
L 157.422342 385.167756 
L 157.584907 385.189375 
L 157.828755 384.940032 
L 157.99132 385.071217 
L 158.072602 384.948781 
L 158.235167 384.517591 
L 158.397732 384.589563 
L 158.641579 384.769866 
L 158.804144 384.761484 
L 159.129274 385.269428 
L 159.210556 385.223848 
L 159.454403 385.371385 
L 159.535686 385.363793 
L 159.698251 385.150686 
L 159.860816 385.234637 
L 160.34851 384.938569 
L 160.511075 385.11908 
L 160.67364 385.073059 
L 160.836205 385.039057 
L 160.917487 384.990199 
L 161.080052 385.075637 
L 161.405182 385.035792 
L 161.567747 384.825117 
L 161.892876 384.782969 
L 162.136724 384.511043 
L 162.218006 384.580119 
L 162.461854 384.943075 
L 162.949548 385.162934 
L 163.030831 385.183898 
L 163.193395 384.978091 
L 163.437243 384.961562 
L 163.599808 384.997622 
L 163.843655 384.905572 
L 163.924937 385.025195 
L 164.00622 384.942632 
L 164.168785 385.021873 
L 164.737762 385.222993 
L 164.981609 385.378652 
L 165.144174 385.354124 
L 165.469304 385.432996 
L 165.713151 385.358941 
L 166.282128 385.154548 
L 166.444693 385.170579 
L 166.607258 385.160989 
L 167.176235 385.427989 
L 167.420082 385.237221 
L 167.989059 385.082622 
L 168.151624 385.386087 
L 168.476754 385.371162 
L 168.639319 385.349336 
L 168.801884 385.321149 
L 168.964448 385.328159 
L 169.289578 385.124662 
L 170.102403 385.427893 
L 170.264967 384.838632 
L 170.427532 384.81208 
L 170.915227 384.318872 
L 170.996509 384.733448 
L 171.077792 384.703834 
L 171.321639 384.648228 
L 171.565486 385.011539 
L 171.728051 385.026705 
L 171.971899 385.217075 
L 172.703441 384.955685 
L 172.866005 384.225966 
L 173.109853 384.25113 
L 173.434982 384.563472 
L 173.516265 384.546232 
L 173.67883 385.374446 
L 173.760112 385.51815 
L 173.841395 385.441865 
L 174.247807 385.384689 
L 174.329089 385.385584 
L 174.735501 383.967335 
L 174.898066 383.930805 
L 174.979349 383.970445 
L 175.141914 383.533686 
L 175.385761 384.574578 
L 175.467043 384.42442 
L 175.710891 384.606441 
L 175.792173 384.545362 
L 176.03602 384.967945 
L 176.117303 385.002387 
L 176.36115 385.386871 
L 176.604997 385.468075 
L 176.68628 385.38579 
L 176.848845 385.127472 
L 177.01141 385.065484 
L 177.173975 385.020751 
L 177.417822 385.044703 
L 177.905516 385.477718 
L 178.149364 385.266528 
L 178.718341 385.11257 
L 178.962188 385.339191 
L 179.775013 385.62623 
L 179.937577 385.570809 
L 180.100142 385.376793 
L 180.34399 385.32924 
L 180.669119 385.335102 
L 180.831684 385.528576 
L 180.994249 385.189085 
L 181.238096 385.159261 
L 181.400661 384.168948 
L 181.644509 384.02251 
L 181.807073 384.22816 
L 182.050921 384.305065 
L 182.132203 385.27774 
L 182.213486 385.040005 
L 182.538615 385.299729 
L 182.70118 385.245217 
L 182.945028 384.968073 
L 183.107592 385.111574 
L 183.757852 385.364 
L 184.001699 385.476505 
L 184.245547 385.475223 
L 184.651959 385.465703 
L 185.383501 385.475312 
L 185.952478 385.726998 
L 186.277607 385.709522 
L 187.415562 385.547637 
L 187.740691 385.656901 
L 188.065821 385.696687 
L 188.228386 385.590746 
L 188.390951 385.591693 
L 188.797363 385.502524 
L 189.772752 385.682523 
L 190.0166 385.675252 
L 190.097882 385.691473 
L 190.260447 385.405187 
L 190.585577 385.359479 
L 190.748141 384.672231 
L 190.910706 384.629482 
L 190.991989 384.901727 
L 191.235836 384.640817 
L 191.398401 384.630257 
L 191.479683 385.336462 
L 191.560966 385.268099 
L 191.804813 385.262322 
L 191.967378 385.54107 
L 192.129943 385.313543 
L 192.292508 385.316109 
L 192.455073 385.23973 
L 192.780202 385.127042 
L 192.942767 385.345705 
L 193.105332 385.35619 
L 193.267897 385.535672 
L 193.430462 385.532819 
L 193.674309 385.666707 
L 193.755592 385.659293 
L 193.918156 385.476469 
L 194.243286 385.425949 
L 194.405851 385.42775 
L 194.568416 385.308136 
L 194.730981 385.496144 
L 195.056111 385.417704 
L 195.299958 385.561564 
L 195.787653 385.733503 
L 196.35663 385.65963 
L 196.600477 385.619513 
L 196.681759 385.60221 
L 196.763042 385.243224 
L 196.844324 385.265841 
L 196.925607 385.284051 
L 197.250736 384.776682 
L 197.413301 384.621955 
L 197.494584 384.658308 
L 197.575866 384.989692 
L 197.657149 384.932905 
L 197.738431 384.949249 
L 198.226126 385.650217 
L 198.388691 385.584471 
L 198.876385 385.614242 
L 199.36408 385.620482 
L 199.607927 385.620152 
L 200.014339 385.403003 
L 200.420751 385.449611 
L 200.583316 385.327414 
L 200.745881 385.583345 
L 201.233576 385.463199 
L 201.477423 385.524377 
L 201.639988 385.511116 
L 201.883835 385.558789 
L 202.0464 385.390272 
L 202.534095 385.449551 
L 202.69666 385.368854 
L 202.859225 385.512733 
L 203.021789 385.456212 
L 203.184354 385.51206 
L 203.346919 385.493126 
L 203.509484 385.595816 
L 203.672049 385.602097 
L 203.834614 385.735314 
L 203.997179 385.700156 
L 204.241026 385.809536 
L 204.403591 385.734543 
L 204.566156 385.544208 
L 205.216415 385.663732 
L 205.37898 385.787492 
L 208.142583 385.608917 
L 208.305148 385.456461 
L 208.38643 385.460952 
L 208.467713 385.320921 
L 208.630278 385.434236 
L 208.874125 385.44347 
L 209.199255 384.835539 
L 209.280537 384.986245 
L 209.686949 385.032326 
L 209.768232 385.086422 
L 210.012079 385.686245 
L 210.824903 385.757378 
L 210.906186 385.70609 
L 211.068751 385.411737 
L 211.39388 385.389101 
L 211.475163 384.990624 
L 211.556445 385.020826 
L 211.71901 385.088347 
L 211.800293 385.371403 
L 211.881575 385.323002 
L 212.04414 385.196627 
L 212.206705 384.746276 
L 212.287987 385.175187 
L 212.36927 385.156783 
L 212.856964 385.270009 
L 213.019529 385.691157 
L 213.425941 385.760234 
L 214.970308 385.709677 
L 215.214155 385.47172 
L 216.189544 385.67638 
L 216.352109 385.596832 
L 217.246216 385.8911 
L 218.628017 385.705078 
L 219.115712 385.666326 
L 219.278277 385.631742 
L 219.440842 385.80581 
L 219.603406 385.812471 
L 219.765971 385.795314 
L 220.822643 385.85011 
L 221.635467 385.826187 
L 222.448292 385.926543 
L 223.830093 385.871212 
L 224.07394 385.822485 
L 226.674978 385.850578 
L 227.243956 385.601973 
L 227.650368 385.688102 
L 227.73165 385.627346 
L 227.894215 385.864712 
L 228.38191 385.820117 
L 228.544475 385.762654 
L 229.194734 385.75372 
L 229.357299 385.733634 
L 229.519864 385.521407 
L 230.007558 385.363147 
L 230.170123 385.346749 
L 230.332688 385.144448 
L 230.576535 385.152548 
L 230.982948 385.4601 
L 231.145512 385.893918 
L 231.470642 386.017195 
L 231.71449 385.829841 
L 232.120902 385.753169 
L 232.283467 385.658575 
L 232.527314 385.77649 
L 233.015009 385.804545 
L 235.859894 385.812433 
L 236.185024 385.753424 
L 236.672718 385.920213 
L 237.07913 386.012863 
L 238.704779 385.954142 
L 238.867344 385.799388 
L 239.273756 385.737544 
L 239.517603 385.732986 
L 239.680168 385.87601 
L 239.842733 385.562162 
L 240.167863 385.42674 
L 240.330428 385.159987 
L 240.492993 384.740988 
L 240.655558 384.907657 
L 240.818122 384.896794 
L 241.143252 385.200392 
L 241.224535 385.592395 
L 241.305817 385.535201 
L 241.468382 385.742119 
L 241.712229 385.769613 
L 243.500443 385.632962 
L 243.74429 385.588942 
L 244.06942 385.729214 
L 244.800962 385.655328 
L 244.963527 385.447567 
L 245.207374 385.447197 
L 245.288656 385.638814 
L 245.369939 385.574556 
L 245.613786 385.631295 
L 245.776351 385.765118 
L 247.564565 385.64939 
L 247.808412 385.901794 
L 247.889694 385.922335 
L 247.970977 385.815982 
L 248.052259 385.880924 
L 248.458671 385.857574 
L 248.621236 385.742842 
L 249.190213 385.823291 
L 249.596626 385.950706 
L 250.003038 385.906526 
L 250.328168 385.928459 
L 251.303557 385.908612 
L 251.466122 385.570388 
L 251.953816 385.51912 
L 252.116381 385.249992 
L 252.278946 385.546895 
L 252.604076 385.513813 
L 253.09177 385.753261 
L 253.823312 385.688708 
L 255.123831 385.938776 
L 256.993327 385.968707 
L 257.968717 386.022573 
L 258.537694 385.958259 
L 259.838213 385.858757 
L 260.163342 385.881137 
L 260.325907 385.679413 
L 260.569755 385.602601 
L 260.732319 385.653765 
L 260.976167 385.655865 
L 261.138732 385.863396 
L 261.301296 385.919795 
L 261.463861 385.702739 
L 261.707709 385.711236 
L 262.114121 385.57068 
L 262.195403 385.789925 
L 262.357968 385.362038 
L 262.601815 385.416208 
L 262.683098 384.718008 
L 262.76438 384.730755 
L 263.41464 384.738121 
L 263.495922 385.340028 
L 263.577205 385.28497 
L 263.821052 385.345258 
L 263.983617 385.595125 
L 264.471311 385.610353 
L 264.959006 385.615049 
L 265.202853 385.755328 
L 265.365418 385.606259 
L 265.690548 385.729198 
L 266.015678 385.781746 
L 266.178243 385.939735 
L 266.909785 385.794184 
L 267.234914 385.707323 
L 267.316197 385.725267 
L 267.478762 385.537451 
L 267.803891 385.72333 
L 268.129021 385.766027 
L 268.291586 385.914109 
L 269.10441 385.856515 
L 269.348258 385.857716 
L 269.673387 385.943678 
L 270.323647 385.977581 
L 270.730059 386.016948 
L 271.786731 385.920539 
L 272.193143 385.855826 
L 274.062639 385.661798 
L 274.225204 385.631015 
L 274.469051 385.786094 
L 274.631616 385.784727 
L 274.794181 385.878487 
L 275.119311 385.866316 
L 275.281876 385.697732 
L 275.525723 385.701983 
L 275.850853 385.711299 
L 276.338547 385.956804 
L 276.663677 385.993513 
L 277.070089 385.935631 
L 277.232654 385.945814 
L 277.395219 385.720369 
L 278.045478 385.779811 
L 278.208043 385.981683 
L 278.695738 385.920598 
L 279.183433 386.006758 
L 279.345997 386.077153 
L 279.914974 386.003401 
L 281.703188 386.048779 
L 281.947035 386.097626 
L 282.1096 385.979863 
L 282.922425 385.955918 
L 283.084989 385.589491 
L 283.735249 385.692402 
L 283.816531 386.017212 
L 283.897814 385.93091 
L 284.060379 385.919169 
L 284.222944 385.760563 
L 284.548073 385.652618 
L 284.629356 385.502129 
L 284.710638 385.554321 
L 285.360898 385.67462 
L 285.523463 385.883373 
L 285.686027 385.956936 
L 285.929875 386.053089 
L 286.986546 386.081489 
L 287.880653 385.929278 
L 288.124501 385.922976 
L 289.506302 386.10781 
L 293.082729 386.032612 
L 293.895554 386.044814 
L 297.065569 386.041958 
L 297.471981 385.954399 
L 297.878393 385.965776 
L 298.284805 386.058926 
L 299.097629 385.959644 
L 299.341477 385.915149 
L 301.12969 385.770699 
L 301.292255 385.943927 
L 301.536103 385.863185 
L 301.861232 385.938308 
L 302.023797 385.865901 
L 305.681507 386.050143 
L 306.331766 385.960726 
L 307.876133 386.059295 
L 308.11998 386.078436 
L 308.526392 386.074633 
L 308.688957 386.046008 
L 309.257934 386.052993 
L 309.826911 386.051828 
L 310.314606 386.060347 
L 310.477171 385.968892 
L 310.964865 385.94252 
L 311.12743 385.880236 
L 311.289995 386.030101 
L 312.671796 386.019041 
L 312.834361 386.065102 
L 313.565903 386.072204 
L 313.891033 386.115354 
L 314.947705 386.097499 
L 315.11027 386.142593 
L 315.435399 385.944025 
L 321.937994 385.966482 
L 322.344406 385.95011 
L 322.750819 386.045348 
L 322.994666 386.091826 
L 323.644925 385.95259 
L 324.376467 385.92705 
L 325.189292 386.120639 
L 327.14007 386.094111 
L 327.383917 386.139026 
L 327.871612 386.111896 
L 328.847001 386.049464 
L 329.009566 385.990299 
L 329.415978 386.045592 
L 329.578543 385.981249 
L 331.204192 386.009155 
L 331.366757 386.105899 
L 332.260864 386.01439 
L 332.585993 386.030426 
L 336.48755 385.93647 
L 336.893963 385.885485 
L 337.13781 385.983661 
L 337.869352 386.122322 
L 338.763459 386.10476 
L 339.901413 386.055497 
L 340.063978 385.961512 
L 341.445779 386.051655 
L 341.852191 386.035701 
L 342.014756 385.981799 
L 342.339886 386.019603 
L 342.502451 385.98346 
L 344.290664 386.117482 
L 346.566572 386.008764 
L 346.729137 385.375549 
L 346.972985 385.339205 
L 347.13555 384.918219 
L 347.379397 384.888816 
L 347.541962 385.575457 
L 347.785809 385.622786 
L 347.948374 386.035868 
L 348.273504 386.00001 
L 348.842481 385.966996 
L 348.923763 385.184632 
L 349.005046 385.223135 
L 349.655305 385.118467 
L 349.81787 385.635914 
L 349.899152 385.63292 
L 350.143 384.568693 
L 350.305565 384.603516 
L 350.386847 384.574982 
L 350.468129 384.356497 
L 350.549412 384.61872 
L 350.630694 384.548794 
L 350.711977 384.062102 
L 350.874542 384.714284 
L 351.199671 384.589214 
L 351.280954 384.822825 
L 351.362236 384.753874 
L 351.443519 384.283606 
L 351.606084 384.748392 
L 351.687366 384.506243 
L 351.768648 384.883791 
L 351.931213 384.385709 
L 352.175061 384.283956 
L 352.256343 384.602507 
L 352.337625 384.580718 
L 352.418908 384.505216 
L 352.50019 384.646683 
L 352.581473 384.359968 
L 352.662755 384.84413 
L 352.744038 384.751721 
L 352.906603 384.786431 
L 353.556862 385.723842 
L 353.638144 385.565044 
L 354.207122 385.648544 
L 354.369686 385.600754 
L 354.450969 385.770999 
L 354.694816 385.526028 
L 354.938663 385.585792 
L 355.345076 385.811466 
L 355.588923 385.948455 
L 356.80816 386.022094 
L 356.889442 386.044339 
L 356.970724 385.833296 
L 357.052007 385.874685 
L 357.377137 385.791566 
L 357.539701 385.6022 
L 357.702266 385.482916 
L 357.864831 385.576083 
L 358.189961 385.542225 
L 358.352526 385.682168 
L 358.515091 385.720595 
L 358.758938 385.892824 
L 358.921503 385.914605 
L 359.16535 385.986012 
L 359.327915 386.059301 
L 360.953564 386.076498 
L 361.278694 386.11324 
L 361.766388 386.139078 
L 363.229472 386.162007 
L 366.643334 386.027112 
L 367.456159 385.99796 
L 367.618724 385.893441 
L 368.594113 385.776117 
L 368.756678 385.842057 
L 369.000525 385.817637 
L 369.16309 386.03214 
L 369.569502 386.087062 
L 373.064647 386.052549 
L 373.145929 385.768557 
L 373.227212 385.841992 
L 373.877471 385.780163 
L 374.040036 386.040004 
L 374.365166 385.957805 
L 375.340555 386.117313 
L 379.404677 386.146692 
L 379.729807 386.15588 
L 379.892372 386.049241 
L 390.459088 386.137027 
L 391.597042 386.112947 
L 392.328584 386.17208 
L 392.897561 386.174738 
L 394.19808 386.177841 
L 399.156309 386.047133 
L 399.318874 385.942271 
L 399.562721 385.995195 
L 400.294263 385.915529 
L 400.456828 385.339456 
L 400.700675 385.329104 
L 400.86324 385.456344 
L 401.107087 385.412459 
L 401.269652 385.963811 
L 402.082477 386.009622 
L 402.326324 385.925056 
L 404.927362 386.137585 
L 409.316614 386.140825 
L 409.885591 386.059768 
L 411.18611 386.090274 
L 411.267392 386.173691 
L 411.429957 385.982179 
L 411.755087 385.906451 
L 412.080216 385.847287 
L 412.242781 386.020214 
L 412.567911 386.070144 
L 412.730476 386.085221 
L 413.462018 385.966096 
L 413.949712 386.119857 
L 414.681254 386.132408 
L 433.21365 386.181324 
L 433.376215 385.916213 
L 433.53878 385.825706 
L 433.701345 385.1183 
L 434.026474 385.106819 
L 434.107757 385.352953 
L 434.270322 385.143253 
L 434.351604 385.22334 
L 434.432886 385.898982 
L 434.514169 385.69569 
L 434.920581 385.631626 
L 435.001864 385.84718 
L 435.083146 385.791894 
L 435.245711 385.780785 
L 435.408276 385.990183 
L 437.928031 386.171426 
L 438.334443 386.167908 
L 438.497008 385.782684 
L 438.740856 385.520499 
L 438.90342 383.361924 
L 439.309833 383.31969 
L 439.472398 383.164808 
L 439.55368 383.322445 
L 439.634962 385.27333 
L 439.716245 384.772818 
L 439.87881 384.638794 
L 439.960092 384.599309 
L 440.203939 384.927877 
L 440.366504 384.775965 
L 440.447787 384.80703 
L 440.610352 385.087796 
L 440.691634 385.231668 
L 440.772917 385.060068 
L 440.854199 385.115336 
L 441.016764 385.112871 
L 441.179329 383.945798 
L 441.341894 383.661867 
L 441.504458 382.894009 
L 441.585741 383.091788 
L 441.667023 383.03843 
L 441.829588 383.128134 
L 441.992153 384.296467 
L 442.154718 384.719174 
L 442.236 385.405697 
L 442.398565 385.096106 
L 442.56113 384.748681 
L 442.642413 384.508482 
L 442.804977 384.697032 
L 442.88626 384.293252 
L 442.967542 384.313154 
L 443.048825 384.108492 
L 443.373955 384.69026 
L 443.536519 384.539217 
L 443.617802 384.509133 
L 443.699084 384.894023 
L 443.780367 384.596098 
L 443.861649 384.730337 
L 444.105496 384.222538 
L 444.186779 384.169292 
L 444.349344 384.536375 
L 444.511909 384.569147 
L 444.837038 385.75909 
L 444.918321 385.581215 
L 444.999603 385.625733 
L 445.243451 385.591887 
L 445.324733 384.937734 
L 445.406015 385.018465 
L 445.487298 385.031083 
L 445.731145 384.702035 
L 445.89371 383.243636 
L 445.974992 383.069788 
L 446.056275 381.629809 
L 446.137557 382.244332 
L 446.21884 382.039219 
L 446.54397 380.528593 
L 446.706534 381.376576 
L 446.787817 381.475958 
L 446.950382 382.619368 
L 447.275511 383.703074 
L 447.438076 385.172771 
L 447.600641 384.680216 
L 447.681924 384.978914 
L 447.763206 384.912476 
L 448.007053 384.744944 
L 448.250901 384.966379 
L 448.413466 385.58527 
L 448.57603 385.693014 
L 448.738595 385.021581 
L 449.063725 385.054029 
L 449.307572 384.515894 
L 449.388855 384.516884 
L 449.55142 385.134603 
L 449.795267 384.892358 
L 449.876549 384.593099 
L 450.120397 385.077706 
L 450.201679 385.070065 
L 450.445527 385.20557 
L 450.608091 385.39282 
L 450.770656 385.68309 
L 450.933221 385.491244 
L 451.420916 385.6534 
L 451.502198 385.66595 
L 451.664763 385.484893 
L 452.152458 385.656618 
L 452.315023 385.688701 
L 452.55887 386.089323 
L 453.209129 385.975157 
L 453.371694 385.863272 
L 453.696824 385.817038 
L 453.859389 385.894629 
L 454.021954 385.886049 
L 454.184519 385.956329 
L 454.590931 386.007858 
L 454.916061 385.975603 
L 455.078625 386.022577 
L 455.322473 385.910608 
L 458.086076 386.171321 
L 459.142747 386.194999 
L 460.199419 386.18695 
L 460.361984 386.08959 
L 474.098716 386.139457 
L 474.505128 386.117824 
L 474.748975 386.170531 
L 475.561799 386.1252 
L 476.618471 386.183229 
L 477.024883 386.167948 
L 479.382074 386.192216 
L 479.544639 386.060427 
L 480.194898 386.076638 
L 480.357463 386.226653 
L 481.657982 386.202614 
L 483.446196 386.123019 
L 483.690043 386.035305 
L 484.25902 386.079543 
L 484.502867 386.18649 
L 503.360393 386.212969 
L 503.848087 386.170748 
L 506.042713 386.162078 
L 506.28656 386.124025 
L 506.774255 386.15548 
L 509.212728 386.171817 
L 510.025553 386.162408 
L 514.008392 386.150595 
L 514.252239 386.215582 
L 517.503537 386.153879 
L 517.909949 386.125651 
L 518.072514 386.145409 
L 518.235079 385.696807 
L 518.478926 385.61927 
L 518.885338 385.566808 
L 519.047903 385.983075 
L 520.185857 386.117245 
L 520.754834 386.073911 
L 520.917399 385.747996 
L 521.567659 385.802736 
L 521.730223 386.139495 
L 524.249979 386.208042 
L 526.363322 386.150098 
L 526.688452 386.035802 
L 527.257429 386.069778 
L 527.582559 386.062181 
L 528.476666 386.086436 
L 528.96436 386.205077 
L 531.321551 386.211548 
L 535.141825 386.226787 
L 555.787564 386.11642 
L 556.681671 385.375824 
L 556.925518 385.46368 
L 557.006801 385.181215 
L 557.088083 385.357997 
L 557.169366 385.287096 
L 557.331931 385.059269 
L 557.494496 385.188717 
L 557.738343 385.126836 
L 557.900908 385.296534 
L 558.063473 385.424882 
L 558.388602 384.43646 
L 558.551167 384.383139 
L 558.713732 384.590056 
L 558.876297 384.435144 
L 559.038862 385.534931 
L 559.526556 384.203349 
L 559.851686 384.432753 
L 560.176816 385.320307 
L 560.258098 384.689366 
L 560.339381 384.824004 
L 560.420663 384.519719 
L 560.583228 383.39693 
L 560.664511 383.079951 
L 560.98964 380.085283 
L 561.070923 380.417916 
L 561.233488 378.934253 
L 561.477335 379.239745 
L 561.558617 379.591777 
L 561.721182 381.802832 
L 561.802465 381.740852 
L 561.883747 381.761424 
L 561.96503 383.017456 
L 562.046312 382.444456 
L 562.208877 383.429769 
L 562.290159 383.223564 
L 562.452724 383.730954 
L 562.696571 384.275786 
L 562.777854 384.079534 
L 562.859136 384.946282 
L 562.940419 384.850261 
L 563.021701 384.87487 
L 563.184266 385.301547 
L 563.265549 385.249535 
L 563.428113 385.384 
L 563.509396 385.344948 
L 563.671961 385.784924 
L 563.834526 385.874374 
L 564.32222 385.872004 
L 564.484785 385.74433 
L 564.97248 385.649433 
L 565.541457 385.824854 
L 565.704022 386.029348 
L 566.272999 386.113113 
L 568.792754 386.139177 
L 568.955319 386.189645 
L 569.199166 386.130217 
L 571.556357 386.188337 
L 572.125334 386.184296 
L 594.152874 386.224561 
L 595.209546 386.229619 
L 595.372111 385.998908 
L 596.022371 385.950551 
L 596.184935 386.170715 
L 605.126003 386.221682 
L 608.864995 386.22855 
L 611.953728 386.21516 
L 612.116293 386.009139 
L 612.766552 386.007813 
L 612.929117 386.207908 
L 613.741942 386.200234 
L 620.407101 386.183695 
L 623.820964 386.18627 
L 624.227376 386.22855 
L 631.217666 386.216605 
L 632.111772 386.195541 
L 632.274337 385.797619 
L 632.762032 385.720605 
L 632.924597 385.635097 
L 633.087162 386.013951 
L 633.493574 386.034023 
L 633.818704 386.194084 
L 634.306398 386.167168 
L 636.257177 386.225185 
L 638.126673 386.149173 
L 638.37052 386.058698 
L 639.264627 386.168541 
L 640.158734 386.129728 
L 640.402581 385.924722 
L 641.05284 386.07696 
L 641.215405 386.194089 
L 643.491313 386.209867 
L 653.895465 386.035285 
L 654.220595 385.968075 
L 655.521114 386.19874 
L 656.496503 386.205884 
L 657.71574 386.216382 
L 660.154213 386.227014 
L 664.462182 386.120082 
L 664.949877 385.972818 
L 665.437571 386.048256 
L 665.600136 386.215502 
L 665.681419 386.21707 
L 665.843984 386.033028 
L 666.494243 386.018264 
L 666.575525 386.189938 
L 666.656808 386.148327 
L 667.06322 386.083166 
L 673.484533 386.208828 
L 675.110181 386.117944 
L 675.354029 386.160574 
L 675.516594 385.971167 
L 676.166853 385.966645 
L 676.248135 386.060677 
L 676.491983 385.831457 
L 676.979677 385.827135 
L 677.06096 385.859783 
L 677.223525 386.014471 
L 677.467372 386.044702 
L 677.792502 386.014001 
L 677.955067 385.938322 
L 678.280196 386.007275 
L 678.605326 386.030137 
L 678.849173 386.128034 
L 680.718669 386.11058 
L 680.881234 385.95216 
L 681.043799 385.966909 
L 681.125082 385.770983 
L 681.206364 384.805568 
L 681.287647 384.84311 
L 681.856624 384.817484 
L 681.937906 385.001765 
L 682.100471 385.982559 
L 682.425601 385.997423 
L 682.506883 386.074783 
L 682.588166 385.985457 
L 682.75073 385.709545 
L 683.319707 385.664478 
L 683.40099 385.756589 
L 683.563555 386.046935 
L 683.888685 386.092874 
L 684.051249 386.076668 
L 684.213814 386.175554 
L 687.139982 386.160643 
L 687.302547 386.106165 
L 687.546394 386.159522 
L 689.578455 386.187344 
L 690.391279 386.162298 
L 690.797692 386.165418 
L 691.447951 386.119383 
L 691.529234 386.114464 
L 691.691798 385.72475 
L 691.773081 385.699728 
L 691.935646 385.128991 
L 692.016928 385.16852 
L 692.179493 384.279371 
L 692.342058 384.232669 
L 692.504623 384.603694 
L 692.585905 384.624796 
L 692.667188 384.421536 
L 692.992317 385.2174 
L 693.154882 384.432776 
L 693.39873 384.406989 
L 693.480012 384.950466 
L 693.561294 384.934139 
L 693.805142 385.22796 
L 693.967707 386.039061 
L 694.536684 386.082077 
L 695.105661 386.168898 
L 696.731309 386.175815 
L 708.517263 386.219691 
L 712.174972 386.23117 
L 712.337537 385.6598 
L 712.987797 385.63361 
L 713.150362 386.13492 
L 713.556774 386.112527 
L 715.507552 386.200427 
L 715.995247 386.222877 
L 724.936315 386.179585 
L 725.09888 385.75583 
L 725.749139 385.792166 
L 725.911704 386.096949 
L 726.887093 386.056248 
L 727.049658 385.954564 
L 727.374788 385.988698 
L 727.537353 385.915553 
L 727.699918 386.035363 
L 727.862483 385.712089 
L 728.187612 385.726651 
L 728.350177 385.678268 
L 728.512742 385.666992 
L 728.675307 386.081815 
L 729.244284 386.176298 
L 737.941505 386.214085 
L 739.567154 386.221479 
L 739.729718 386.031485 
L 740.379978 386.034512 
L 740.542543 386.233452 
L 743.79384 386.190576 
L 744.037688 386.101304 
L 744.281535 386.118466 
L 744.525382 385.99964 
L 745.094359 386.000282 
L 745.338207 386.11322 
L 746.476161 386.18538 
L 748.833351 386.066857 
L 748.995916 385.977235 
L 749.646176 386.027142 
L 749.808741 385.519072 
L 750.215153 385.503945 
L 750.377718 385.312296 
L 750.459 385.279574 
L 750.621565 384.771916 
L 750.865412 384.719865 
L 751.027977 384.715141 
L 751.10926 384.916933 
L 751.271824 384.684423 
L 751.434389 385.782296 
L 751.596954 385.823994 
L 751.922084 385.710193 
L 752.165931 385.89501 
L 753.303885 385.843688 
L 753.385168 385.098934 
L 753.46645 385.120467 
L 754.035427 385.232781 
L 754.11671 385.213174 
L 754.197992 385.981479 
L 754.279275 385.723971 
L 754.441839 385.561789 
L 754.523122 385.553042 
L 754.685687 385.442837 
L 754.766969 385.386804 
L 754.929534 385.53245 
L 755.010817 385.53788 
L 755.173381 385.949823 
L 755.335946 385.824838 
L 755.579794 386.030569 
L 755.742358 385.850021 
L 756.392618 385.86393 
L 756.555183 386.030444 
L 756.961595 386.103513 
L 757.205442 386.158334 
L 758.668526 386.203025 
L 759.156221 386.215375 
L 760.45674 386.165171 
L 762.326236 386.115845 
L 762.570083 386.202298 
L 763.46419 386.222176 
L 800.041286 386.213175 
L 800.610264 386.161373 
L 800.772828 386.161262 
L 800.935393 385.859163 
L 801.423088 385.671301 
L 801.585653 385.046349 
L 801.748218 385.285886 
L 801.8295 385.307014 
L 802.073347 384.883291 
L 802.235912 385.003087 
L 802.398477 385.603305 
L 802.47976 385.660788 
L 802.642324 385.078695 
L 802.804889 385.149591 
L 802.967454 384.367681 
L 803.292584 384.37462 
L 803.373866 384.93013 
L 803.455149 384.822229 
L 803.536431 384.946578 
L 803.617714 384.849352 
L 803.780279 385.590005 
L 804.267973 385.515728 
L 804.349256 385.227953 
L 804.430538 385.364908 
L 804.51182 385.142357 
L 804.593103 385.217844 
L 804.674385 385.06785 
L 804.83695 383.902774 
L 804.999515 383.786416 
L 805.16208 384.194033 
L 805.243362 383.985201 
L 805.48721 384.48584 
L 805.568492 385.692666 
L 805.649775 385.674742 
L 805.731057 385.788054 
L 805.893622 385.455356 
L 805.974904 385.514605 
L 806.056187 385.715365 
L 806.137469 385.654218 
L 806.543881 384.745483 
L 806.706446 384.945099 
L 806.869011 384.888018 
L 806.950294 384.943596 
L 807.437988 385.962337 
L 807.763118 385.935001 
L 807.925683 385.81701 
L 808.250813 385.887552 
L 808.413377 385.66046 
L 808.575942 385.738335 
L 808.657225 385.856909 
L 808.901072 385.486556 
L 809.063637 385.413793 
L 809.307484 385.700582 
L 809.470049 385.695733 
L 809.632614 386.036334 
L 810.851851 386.153982 
L 811.014415 386.068851 
L 811.258263 385.9966 
L 811.50211 385.784961 
L 812.071087 385.966535 
L 812.558782 386.084538 
L 812.883911 385.826876 
L 812.965194 385.907787 
L 813.127759 385.781925 
L 813.534171 385.865734 
L 813.859301 386.184992 
L 815.078537 386.03099 
L 815.322385 385.914916 
L 815.484949 386.055315 
L 815.810079 386.016335 
L 816.053926 386.102797 
L 816.704186 386.184497 
L 821.743697 386.153437 
L 821.987544 386.206615 
L 823.206781 386.219762 
L 825.157559 386.225649 
L 825.563972 386.180587 
L 825.726536 386.105926 
L 826.376796 386.153753 
L 826.539361 385.88757 
L 827.18962 385.870553 
L 827.352185 386.056191 
L 828.002445 385.90927 
L 828.16501 386.057753 
L 828.896551 386.177524 
L 829.140399 382.792122 
L 829.302964 382.764823 
L 829.709376 381.685434 
L 829.953223 384.760156 
L 830.115788 384.55591 
L 830.278353 385.322245 
L 830.440918 384.81527 
L 830.5222 384.811521 
L 830.684765 385.055973 
L 830.84733 384.969354 
L 830.928612 385.098221 
L 831.091177 384.899356 
L 831.17246 385.46875 
L 831.253742 385.452883 
L 831.416307 385.667304 
L 831.741437 385.720767 
L 831.904002 385.956704 
L 832.798108 386.087098 
L 833.52965 385.971093 
L 833.85478 386.040233 
L 835.480429 386.185439 
L 835.724276 386.143398 
L 836.049406 386.097866 
L 836.780948 386.147093 
L 837.024795 386.203329 
L 837.675055 386.182795 
L 843.364825 386.204669 
L 845.315604 386.236885 
L 853.118718 386.236677 
L 853.118718 386.236677 
" clip-path="url(#p182947be80)" style="fill: none; stroke-dasharray: 7.4,3.2; stroke-dashoffset: 0; stroke: #000000; stroke-width: 2"/>
   </g>
   <g id="patch_3">
    <path d="M 41.92 404.12 
L 41.92 10.8 
" style="fill: none; stroke: #000000; stroke-width: 0.8; stroke-linejoin: miter; stroke-linecap: square"/>
   </g>
   <g id="patch_4">
    <path d="M 853.2 404.12 
L 853.2 10.8 
" style="fill: none; stroke: #000000; stroke-width: 0.8; stroke-linejoin: miter; stroke-linecap: square"/>
   </g>
   <g id="patch_5">
    <path d="M 41.92 404.12 
L 853.2 404.12 
" style="fill: none; stroke: #000000; stroke-width: 0.8; stroke-linejoin: miter; stroke-linecap: square"/>
   </g>
   <g id="patch_6">
    <path d="M 41.92 10.8 
L 853.2 10.8 
" style="fill: none; stroke: #000000; stroke-width: 0.8; stroke-linejoin: miter; stroke-linecap: square"/>
   </g>
  </g>
 </g>
 <defs>
  <clipPath id="p182947be80">
   <rect x="41.92" y="10.8" width="811.28" height="393.32"/>
  </clipPath>
 </defs>
</svg>
