<?xml version="1.0" encoding="utf-8" standalone="no"?>
<!DOCTYPE svg PUBLIC "-//W3C//DTD SVG 1.1//EN"
  "http://www.w3.org/Graphics/SVG/1.1/DTD/svg11.dtd">
<svg xmlns:xlink="http://www.w3.org/1999/xlink" width="864pt" height="432pt" viewBox="0 0 864 432" xmlns="http://www.w3.org/2000/svg" version="1.1">
 <metadata>
  <rdf:RDF xmlns:dc="http://purl.org/dc/elements/1.1/" xmlns:cc="http://creativecommons.org/ns#" xmlns:rdf="http://www.w3.org/1999/02/22-rdf-syntax-ns#">
   <cc:Work>
    <dc:type rdf:resource="http://purl.org/dc/dcmitype/StillImage"/>
    <dc:date>2024-09-16T08:38:37.079213</dc:date>
    <dc:format>image/svg+xml</dc:format>
    <dc:creator>
     <cc:Agent>
      <dc:title>Matplotlib v3.9.2, https://matplotlib.org/</dc:title>
     </cc:Agent>
    </dc:creator>
   </cc:Work>
  </rdf:RDF>
 </metadata>
 <defs>
  <style type="text/css">*{stroke-linejoin: round; stroke-linecap: butt}</style>
 </defs>
 <g id="figure_1">
  <g id="patch_1">
   <path d="M 0 432 
L 864 432 
L 864 0 
L 0 0 
z
" style="fill: #ffffff"/>
  </g>
  <g id="axes_1">
   <g id="patch_2">
    <path d="M 41.92 403.436 
L 853.2 403.436 
L 853.2 10.8 
L 41.92 10.8 
z
" style="fill: #ffffff"/>
   </g>
   <g id="matplotlib.axis_1">
    <g id="xtick_1">
     <g id="line2d_1">
      <defs>
       <path id="m40d3c34f3d" d="M 0 0 
L 0 3.5 
" style="stroke: #000000; stroke-width: 0.8"/>
      </defs>
      <g>
       <use xlink:href="#m40d3c34f3d" x="41.92" y="403.436" style="stroke: #000000; stroke-width: 0.8"/>
      </g>
     </g>
     <g id="text_1">
      <!-- $\mathdefault{10^{1}}$ -->
      <g transform="translate(33.57 418.087562) scale(0.1 -0.1)">
       <defs>
        <path id="DejaVuSansMono-31" d="M 844 531 
L 1825 531 
L 1825 4097 
L 769 3859 
L 769 4434 
L 1819 4666 
L 2450 4666 
L 2450 531 
L 3419 531 
L 3419 0 
L 844 0 
L 844 531 
z
" transform="scale(0.015625)"/>
        <path id="DejaVuSansMono-30" d="M 1509 2344 
Q 1509 2516 1629 2641 
Q 1750 2766 1919 2766 
Q 2094 2766 2219 2641 
Q 2344 2516 2344 2344 
Q 2344 2169 2220 2047 
Q 2097 1925 1919 1925 
Q 1744 1925 1626 2044 
Q 1509 2163 1509 2344 
z
M 1925 4250 
Q 1484 4250 1267 3775 
Q 1050 3300 1050 2328 
Q 1050 1359 1267 884 
Q 1484 409 1925 409 
Q 2369 409 2586 884 
Q 2803 1359 2803 2328 
Q 2803 3300 2586 3775 
Q 2369 4250 1925 4250 
z
M 1925 4750 
Q 2672 4750 3055 4137 
Q 3438 3525 3438 2328 
Q 3438 1134 3055 521 
Q 2672 -91 1925 -91 
Q 1178 -91 797 521 
Q 416 1134 416 2328 
Q 416 3525 797 4137 
Q 1178 4750 1925 4750 
z
" transform="scale(0.015625)"/>
       </defs>
       <use xlink:href="#DejaVuSansMono-31" transform="translate(0 0.684375)"/>
       <use xlink:href="#DejaVuSansMono-30" transform="translate(60.205078 0.684375)"/>
       <use xlink:href="#DejaVuSansMono-31" transform="translate(121.367188 38.965625) scale(0.7)"/>
      </g>
     </g>
    </g>
    <g id="xtick_2">
     <g id="line2d_2">
      <g>
       <use xlink:href="#m40d3c34f3d" x="394.492544" y="403.436" style="stroke: #000000; stroke-width: 0.8"/>
      </g>
     </g>
     <g id="text_2">
      <!-- $\mathdefault{10^{2}}$ -->
      <g transform="translate(386.142544 418.087562) scale(0.1 -0.1)">
       <defs>
        <path id="DejaVuSansMono-32" d="M 1166 531 
L 3309 531 
L 3309 0 
L 475 0 
L 475 531 
Q 1059 1147 1496 1619 
Q 1934 2091 2100 2284 
Q 2413 2666 2522 2902 
Q 2631 3138 2631 3384 
Q 2631 3775 2401 3997 
Q 2172 4219 1772 4219 
Q 1488 4219 1175 4116 
Q 863 4013 513 3803 
L 513 4441 
Q 834 4594 1145 4672 
Q 1456 4750 1759 4750 
Q 2444 4750 2861 4386 
Q 3278 4022 3278 3431 
Q 3278 3131 3139 2831 
Q 3000 2531 2688 2169 
Q 2513 1966 2180 1606 
Q 1847 1247 1166 531 
z
" transform="scale(0.015625)"/>
       </defs>
       <use xlink:href="#DejaVuSansMono-31" transform="translate(0 0.765625)"/>
       <use xlink:href="#DejaVuSansMono-30" transform="translate(60.205078 0.765625)"/>
       <use xlink:href="#DejaVuSansMono-32" transform="translate(121.367188 39.046875) scale(0.7)"/>
      </g>
     </g>
    </g>
    <g id="xtick_3">
     <g id="line2d_3">
      <g>
       <use xlink:href="#m40d3c34f3d" x="747.065089" y="403.436" style="stroke: #000000; stroke-width: 0.8"/>
      </g>
     </g>
     <g id="text_3">
      <!-- $\mathdefault{10^{3}}$ -->
      <g transform="translate(738.715089 418.087562) scale(0.1 -0.1)">
       <defs>
        <path id="DejaVuSansMono-33" d="M 2425 2497 
Q 2884 2375 3128 2064 
Q 3372 1753 3372 1288 
Q 3372 644 2939 276 
Q 2506 -91 1741 -91 
Q 1419 -91 1084 -31 
Q 750 28 428 141 
L 428 769 
Q 747 603 1056 522 
Q 1366 441 1672 441 
Q 2191 441 2469 675 
Q 2747 909 2747 1350 
Q 2747 1756 2469 1995 
Q 2191 2234 1716 2234 
L 1234 2234 
L 1234 2753 
L 1716 2753 
Q 2150 2753 2394 2943 
Q 2638 3134 2638 3475 
Q 2638 3834 2411 4026 
Q 2184 4219 1766 4219 
Q 1488 4219 1191 4156 
Q 894 4094 569 3969 
L 569 4550 
Q 947 4650 1242 4700 
Q 1538 4750 1766 4750 
Q 2447 4750 2855 4408 
Q 3263 4066 3263 3500 
Q 3263 3116 3048 2859 
Q 2834 2603 2425 2497 
z
" transform="scale(0.015625)"/>
       </defs>
       <use xlink:href="#DejaVuSansMono-31" transform="translate(0 0.765625)"/>
       <use xlink:href="#DejaVuSansMono-30" transform="translate(60.205078 0.765625)"/>
       <use xlink:href="#DejaVuSansMono-33" transform="translate(121.367188 39.046875) scale(0.7)"/>
      </g>
     </g>
    </g>
    <g id="xtick_4">
     <g id="line2d_4">
      <defs>
       <path id="m68c1df6521" d="M 0 0 
L 0 2 
" style="stroke: #000000; stroke-width: 0.6"/>
      </defs>
      <g>
       <use xlink:href="#m68c1df6521" x="148.054911" y="403.436" style="stroke: #000000; stroke-width: 0.6"/>
      </g>
     </g>
    </g>
    <g id="xtick_5">
     <g id="line2d_5">
      <g>
       <use xlink:href="#m68c1df6521" x="210.139855" y="403.436" style="stroke: #000000; stroke-width: 0.6"/>
      </g>
     </g>
    </g>
    <g id="xtick_6">
     <g id="line2d_6">
      <g>
       <use xlink:href="#m68c1df6521" x="254.189823" y="403.436" style="stroke: #000000; stroke-width: 0.6"/>
      </g>
     </g>
    </g>
    <g id="xtick_7">
     <g id="line2d_7">
      <g>
       <use xlink:href="#m68c1df6521" x="288.357633" y="403.436" style="stroke: #000000; stroke-width: 0.6"/>
      </g>
     </g>
    </g>
    <g id="xtick_8">
     <g id="line2d_8">
      <g>
       <use xlink:href="#m68c1df6521" x="316.274766" y="403.436" style="stroke: #000000; stroke-width: 0.6"/>
      </g>
     </g>
    </g>
    <g id="xtick_9">
     <g id="line2d_9">
      <g>
       <use xlink:href="#m68c1df6521" x="339.878366" y="403.436" style="stroke: #000000; stroke-width: 0.6"/>
      </g>
     </g>
    </g>
    <g id="xtick_10">
     <g id="line2d_10">
      <g>
       <use xlink:href="#m68c1df6521" x="360.324734" y="403.436" style="stroke: #000000; stroke-width: 0.6"/>
      </g>
     </g>
    </g>
    <g id="xtick_11">
     <g id="line2d_11">
      <g>
       <use xlink:href="#m68c1df6521" x="378.359709" y="403.436" style="stroke: #000000; stroke-width: 0.6"/>
      </g>
     </g>
    </g>
    <g id="xtick_12">
     <g id="line2d_12">
      <g>
       <use xlink:href="#m68c1df6521" x="500.627456" y="403.436" style="stroke: #000000; stroke-width: 0.6"/>
      </g>
     </g>
    </g>
    <g id="xtick_13">
     <g id="line2d_13">
      <g>
       <use xlink:href="#m68c1df6521" x="562.712399" y="403.436" style="stroke: #000000; stroke-width: 0.6"/>
      </g>
     </g>
    </g>
    <g id="xtick_14">
     <g id="line2d_14">
      <g>
       <use xlink:href="#m68c1df6521" x="606.762367" y="403.436" style="stroke: #000000; stroke-width: 0.6"/>
      </g>
     </g>
    </g>
    <g id="xtick_15">
     <g id="line2d_15">
      <g>
       <use xlink:href="#m68c1df6521" x="640.930177" y="403.436" style="stroke: #000000; stroke-width: 0.6"/>
      </g>
     </g>
    </g>
    <g id="xtick_16">
     <g id="line2d_16">
      <g>
       <use xlink:href="#m68c1df6521" x="668.84731" y="403.436" style="stroke: #000000; stroke-width: 0.6"/>
      </g>
     </g>
    </g>
    <g id="xtick_17">
     <g id="line2d_17">
      <g>
       <use xlink:href="#m68c1df6521" x="692.45091" y="403.436" style="stroke: #000000; stroke-width: 0.6"/>
      </g>
     </g>
    </g>
    <g id="xtick_18">
     <g id="line2d_18">
      <g>
       <use xlink:href="#m68c1df6521" x="712.897279" y="403.436" style="stroke: #000000; stroke-width: 0.6"/>
      </g>
     </g>
    </g>
    <g id="xtick_19">
     <g id="line2d_19">
      <g>
       <use xlink:href="#m68c1df6521" x="730.932254" y="403.436" style="stroke: #000000; stroke-width: 0.6"/>
      </g>
     </g>
    </g>
    <g id="xtick_20">
     <g id="line2d_20">
      <g>
       <use xlink:href="#m68c1df6521" x="853.2" y="403.436" style="stroke: #000000; stroke-width: 0.6"/>
      </g>
     </g>
    </g>
   </g>
   <g id="matplotlib.axis_2">
    <g id="ytick_1">
     <g id="line2d_21">
      <defs>
       <path id="m8dea023b94" d="M 0 0 
L -3.5 0 
" style="stroke: #000000; stroke-width: 0.8"/>
      </defs>
      <g>
       <use xlink:href="#m8dea023b94" x="41.92" y="336.117828" style="stroke: #000000; stroke-width: 0.8"/>
      </g>
     </g>
     <g id="text_4">
      <!-- 0.90 -->
      <g transform="translate(10.83875 339.943609) scale(0.1 -0.1)">
       <defs>
        <path id="DejaVuSansMono-2e" d="M 1528 953 
L 2316 953 
L 2316 0 
L 1528 0 
L 1528 953 
z
" transform="scale(0.015625)"/>
        <path id="DejaVuSansMono-39" d="M 1863 2069 
Q 2266 2069 2495 2359 
Q 2725 2650 2725 3163 
Q 2725 3675 2495 3965 
Q 2266 4256 1863 4256 
Q 1444 4256 1231 3979 
Q 1019 3703 1019 3163 
Q 1019 2619 1230 2344 
Q 1441 2069 1863 2069 
z
M 738 97 
L 738 678 
Q 934 563 1156 502 
Q 1378 441 1619 441 
Q 2219 441 2526 892 
Q 2834 1344 2834 2222 
Q 2688 1909 2422 1742 
Q 2156 1575 1813 1575 
Q 1138 1575 767 1990 
Q 397 2406 397 3169 
Q 397 3922 776 4336 
Q 1156 4750 1850 4750 
Q 2663 4750 3041 4165 
Q 3419 3581 3419 2328 
Q 3419 1150 2964 529 
Q 2509 -91 1644 -91 
Q 1416 -91 1184 -42 
Q 953 6 738 97 
z
" transform="scale(0.015625)"/>
       </defs>
       <use xlink:href="#DejaVuSansMono-30"/>
       <use xlink:href="#DejaVuSansMono-2e" x="60.205078"/>
       <use xlink:href="#DejaVuSansMono-39" x="120.410156"/>
       <use xlink:href="#DejaVuSansMono-30" x="180.615234"/>
      </g>
     </g>
    </g>
    <g id="ytick_2">
     <g id="line2d_22">
      <g>
       <use xlink:href="#m8dea023b94" x="41.92" y="249.259203" style="stroke: #000000; stroke-width: 0.8"/>
      </g>
     </g>
     <g id="text_5">
      <!-- 0.95 -->
      <g transform="translate(10.83875 253.084985) scale(0.1 -0.1)">
       <defs>
        <path id="DejaVuSansMono-35" d="M 647 4666 
L 3009 4666 
L 3009 4134 
L 1222 4134 
L 1222 2988 
Q 1356 3038 1492 3061 
Q 1628 3084 1766 3084 
Q 2491 3084 2916 2656 
Q 3341 2228 3341 1497 
Q 3341 759 2895 334 
Q 2450 -91 1678 -91 
Q 1306 -91 998 -41 
Q 691 9 447 109 
L 447 750 
Q 734 594 1025 517 
Q 1316 441 1619 441 
Q 2141 441 2423 716 
Q 2706 991 2706 1497 
Q 2706 1997 2414 2275 
Q 2122 2553 1600 2553 
Q 1347 2553 1106 2495 
Q 866 2438 647 2322 
L 647 4666 
z
" transform="scale(0.015625)"/>
       </defs>
       <use xlink:href="#DejaVuSansMono-30"/>
       <use xlink:href="#DejaVuSansMono-2e" x="60.205078"/>
       <use xlink:href="#DejaVuSansMono-39" x="120.410156"/>
       <use xlink:href="#DejaVuSansMono-35" x="180.615234"/>
      </g>
     </g>
    </g>
    <g id="ytick_3">
     <g id="line2d_23">
      <g>
       <use xlink:href="#m8dea023b94" x="41.92" y="162.400579" style="stroke: #000000; stroke-width: 0.8"/>
      </g>
     </g>
     <g id="text_6">
      <!-- 1.00 -->
      <g transform="translate(10.83875 166.22636) scale(0.1 -0.1)">
       <use xlink:href="#DejaVuSansMono-31"/>
       <use xlink:href="#DejaVuSansMono-2e" x="60.205078"/>
       <use xlink:href="#DejaVuSansMono-30" x="120.410156"/>
       <use xlink:href="#DejaVuSansMono-30" x="180.615234"/>
      </g>
     </g>
    </g>
    <g id="ytick_4">
     <g id="line2d_24">
      <g>
       <use xlink:href="#m8dea023b94" x="41.92" y="75.541954" style="stroke: #000000; stroke-width: 0.8"/>
      </g>
     </g>
     <g id="text_7">
      <!-- 1.05 -->
      <g transform="translate(10.83875 79.367735) scale(0.1 -0.1)">
       <use xlink:href="#DejaVuSansMono-31"/>
       <use xlink:href="#DejaVuSansMono-2e" x="60.205078"/>
       <use xlink:href="#DejaVuSansMono-30" x="120.410156"/>
       <use xlink:href="#DejaVuSansMono-35" x="180.615234"/>
      </g>
     </g>
    </g>
   </g>
   <g id="line2d_25">
    <path d="M 25.787165 56.028543 
L 41.92 56.104523 
L 56.513924 56.328325 
L 69.837133 77.278369 
L 82.093298 76.955316 
L 93.440733 77.701637 
L 104.004943 80.139337 
L 113.887102 87.361261 
L 123.169963 82.534995 
L 131.922077 84.734786 
L 140.200866 88.627969 
L 148.054911 86.992214 
L 155.525677 107.960451 
L 162.648836 107.774473 
L 169.455303 107.937857 
L 175.972045 129.228466 
L 182.222721 135.897064 
L 188.228209 124.21795 
L 194.00702 122.471582 
L 199.575645 123.600999 
L 204.948839 126.108099 
L 210.139855 132.621068 
L 215.160643 133.722715 
L 220.022013 126.364636 
L 224.733779 126.528998 
L 229.304874 138.81187 
L 233.743455 138.621533 
L 238.056988 142.726802 
L 242.252328 137.8013 
L 250.313152 171.890024 
L 254.189823 179.084113 
L 257.970763 175.872653 
L 261.660588 164.186697 
L 265.263585 139.159714 
L 268.783747 133.893916 
L 272.224798 143.616391 
L 275.590215 144.104496 
L 278.883252 151.487151 
L 282.106956 167.996114 
L 285.264188 166.816385 
L 288.357633 170.443997 
L 291.389817 172.590701 
L 297.279786 162.837237 
L 300.141931 164.757812 
L 302.951557 170.753074 
L 305.710556 165.589837 
L 308.420721 156.930697 
L 311.08375 151.564355 
L 313.701255 153.483569 
L 316.274766 153.222968 
L 318.805738 155.093725 
L 321.295554 149.077809 
L 323.745531 153.071949 
L 326.156925 149.403585 
L 328.53093 161.456383 
L 330.86869 159.255627 
L 333.171295 165.861952 
L 335.439785 165.439445 
L 337.675158 163.496919 
L 339.878366 160.587855 
L 342.050322 157.491349 
L 344.1919 156.846643 
L 346.303937 158.18231 
L 348.387239 149.469214 
L 350.442576 147.468369 
L 352.470689 163.055316 
L 354.47229 165.264611 
L 356.448064 164.155512 
L 358.398667 157.388639 
L 360.324734 156.602979 
L 362.226875 155.496613 
L 364.105675 161.977621 
L 365.961701 160.533342 
L 367.795499 142.740115 
L 369.607595 145.098736 
L 371.398497 144.536658 
L 373.168693 139.206233 
L 374.918659 136.73687 
L 376.64885 133.635324 
L 378.359709 129.466754 
L 380.051664 129.175915 
L 381.725126 142.584751 
L 383.380497 149.748831 
L 385.018163 154.659254 
L 386.638499 155.033983 
L 388.241868 146.866823 
L 389.828621 143.023998 
L 391.399099 141.918583 
L 394.492544 143.316299 
L 396.016142 143.083802 
L 397.524729 155.156789 
L 399.018597 154.065251 
L 400.498032 154.680835 
L 401.963309 151.616927 
L 404.852458 167.511364 
L 406.276843 166.849641 
L 407.6881 169.330039 
L 409.086469 164.419647 
L 410.472182 162.38695 
L 411.845468 165.050279 
L 413.206546 160.728842 
L 414.555632 168.843607 
L 415.892936 153.882825 
L 418.533007 158.37889 
L 419.836166 153.140651 
L 421.128329 153.476844 
L 422.409678 153.082858 
L 423.680393 157.097272 
L 424.940649 152.151232 
L 426.190618 151.933548 
L 427.430465 155.304139 
L 428.660354 147.330341 
L 429.880443 150.92799 
L 431.090886 153.618861 
L 432.291836 155.542493 
L 433.48344 160.849005 
L 434.665842 158.445647 
L 435.839183 153.922298 
L 437.003602 160.39558 
L 438.159232 161.463991 
L 439.306206 173.702634 
L 440.444653 172.510762 
L 441.574697 171.686064 
L 442.696462 177.858955 
L 443.81007 164.543242 
L 444.915636 158.742253 
L 446.013278 162.426402 
L 447.103106 163.96798 
L 448.185233 153.091356 
L 449.259766 171.315124 
L 450.326811 166.998503 
L 451.386471 166.312449 
L 452.438849 172.142569 
L 453.484043 176.905296 
L 454.52215 176.31378 
L 455.553268 161.839883 
L 456.577487 161.244378 
L 457.594902 160.911902 
L 458.605601 160.398279 
L 459.609672 149.551158 
L 460.607202 144.526213 
L 461.598275 148.508444 
L 462.582975 148.701648 
L 463.561383 141.005222 
L 464.533579 137.782328 
L 465.499641 145.755692 
L 466.459646 149.343595 
L 467.41367 143.571055 
L 468.361786 139.664965 
L 469.304068 130.782808 
L 470.240586 129.943116 
L 471.171412 145.311767 
L 472.096613 137.386492 
L 473.016257 137.518329 
L 473.930411 142.77744 
L 474.83914 143.392988 
L 475.742507 143.321497 
L 476.640576 141.75793 
L 477.533408 133.57851 
L 478.421064 134.692514 
L 479.303605 134.54804 
L 480.181087 144.699141 
L 481.05357 142.133844 
L 481.92111 140.671165 
L 482.783762 140.475848 
L 483.641581 136.663758 
L 484.494621 129.156863 
L 485.342935 132.3675 
L 487.025593 123.362942 
L 487.860038 128.937884 
L 488.68996 133.24863 
L 489.515409 127.209957 
L 490.336431 132.691338 
L 491.153075 144.154272 
L 491.965386 152.863389 
L 492.773411 144.756062 
L 493.577194 148.981845 
L 494.376779 156.986597 
L 495.172211 156.544937 
L 495.963532 162.91052 
L 496.750785 163.727658 
L 497.534011 167.330212 
L 498.313251 165.560156 
L 499.088545 157.627374 
L 499.859934 176.536559 
L 500.627456 175.906489 
L 501.39115 167.609148 
L 502.151053 168.05752 
L 502.907205 178.210721 
L 503.65964 174.852213 
L 504.408396 167.740842 
L 505.153509 150.113832 
L 505.895013 136.910588 
L 506.632944 143.666465 
L 508.098221 143.890911 
L 508.825635 147.011564 
L 509.549609 143.772799 
L 510.270177 155.837202 
L 510.987369 154.769109 
L 511.701218 154.383976 
L 512.411754 151.151004 
L 513.119009 154.631688 
L 513.823011 154.912097 
L 514.523792 149.806222 
L 515.22138 153.466062 
L 515.915804 155.019104 
L 516.607094 164.497939 
L 517.295276 162.506607 
L 517.980379 166.959886 
L 518.662431 164.09801 
L 519.341458 165.651049 
L 520.017487 165.03936 
L 520.690544 156.052388 
L 521.360656 155.570186 
L 522.027848 166.116229 
L 522.692145 165.145454 
L 523.353573 163.916811 
L 524.012156 168.643206 
L 524.667918 164.51295 
L 525.320885 164.728292 
L 525.971078 172.642623 
L 526.618522 169.394845 
L 527.26324 173.947113 
L 527.905255 174.753099 
L 528.544589 184.022113 
L 529.181265 184.004107 
L 529.815304 185.278215 
L 530.446729 181.478532 
L 531.075561 180.233659 
L 531.701821 179.341567 
L 532.946708 174.477093 
L 533.565377 169.165084 
L 534.181556 167.624307 
L 534.795266 152.469031 
L 535.406525 160.28113 
L 536.015354 158.780839 
L 536.621772 163.228723 
L 537.82745 177.009613 
L 538.426748 194.349901 
L 539.023709 215.765619 
L 539.618351 211.522464 
L 540.210694 210.314976 
L 540.800753 204.353324 
L 541.388548 196.819042 
L 541.974095 204.851534 
L 542.557411 204.556963 
L 543.138513 206.948881 
L 543.717419 207.681547 
L 544.294144 205.006168 
L 544.868705 196.256992 
L 545.441118 192.246443 
L 546.011399 191.767994 
L 546.579564 186.559582 
L 547.145629 173.061366 
L 547.709608 181.060848 
L 548.271518 181.762373 
L 548.831374 172.922203 
L 549.38919 173.237995 
L 549.944981 170.022909 
L 550.498762 165.717832 
L 551.050548 175.25177 
L 551.600352 168.045061 
L 552.148189 168.27308 
L 552.694073 169.99717 
L 553.238018 174.950274 
L 553.780037 169.701797 
L 554.320145 173.838341 
L 554.858354 169.858595 
L 555.92913 171.306924 
L 556.461722 168.328299 
L 556.992469 168.206449 
L 557.521383 166.580961 
L 558.048476 165.890351 
L 558.57376 161.780047 
L 559.097249 152.602188 
L 559.618954 153.546466 
L 560.138888 155.304832 
L 560.657062 157.858737 
L 561.173488 161.632811 
L 561.688179 175.908215 
L 562.201145 172.703579 
L 562.712399 187.669411 
L 563.221951 181.90947 
L 563.729813 179.029634 
L 564.235997 174.787085 
L 564.740512 176.968113 
L 565.243371 175.435479 
L 565.744583 172.338973 
L 566.244161 173.302656 
L 566.742113 178.787024 
L 567.238452 179.273091 
L 567.733187 183.846796 
L 568.226328 195.43261 
L 568.717887 183.284106 
L 569.207872 185.465878 
L 569.696295 183.883491 
L 570.183164 182.761592 
L 570.66849 196.738786 
L 571.152283 195.179658 
L 571.634552 184.93669 
L 572.115307 192.18785 
L 572.594557 196.649717 
L 573.072312 209.800429 
L 574.023373 209.630066 
L 574.496697 217.480332 
L 574.968563 213.280965 
L 575.438979 213.346785 
L 575.907955 218.586449 
L 576.375498 215.04141 
L 576.841618 225.535823 
L 577.306323 223.111594 
L 577.769623 224.680471 
L 578.231524 225.677333 
L 578.692037 231.12857 
L 579.151169 231.710793 
L 579.608928 234.317603 
L 580.065322 224.749327 
L 580.520361 226.509055 
L 580.974051 228.753136 
L 581.426401 228.990704 
L 581.877418 231.515492 
L 582.327111 231.699802 
L 582.775487 237.389486 
L 583.222554 250.933953 
L 583.66832 250.956616 
L 584.555976 250.194849 
L 584.997882 250.983853 
L 585.438516 250.145741 
L 585.877886 254.5981 
L 586.315999 249.548797 
L 586.752862 249.791754 
L 587.622866 257.522085 
L 588.056021 255.431553 
L 588.487955 256.495 
L 588.918673 260.967804 
L 589.348183 237.445335 
L 590.203606 228.145801 
L 590.629532 227.155027 
L 591.054277 222.891171 
L 591.477846 236.555575 
L 591.900248 236.029038 
L 592.321487 233.325135 
L 592.74157 232.494967 
L 593.160504 223.680325 
L 593.578295 236.397655 
L 593.994949 244.414605 
L 594.410473 235.777391 
L 594.824872 236.941935 
L 595.238152 235.33176 
L 595.65032 235.221395 
L 596.061382 235.34105 
L 596.471343 237.337274 
L 596.880209 234.091994 
L 597.287986 235.882744 
L 597.69468 236.440509 
L 598.504843 239.560018 
L 598.908322 236.669646 
L 599.310741 232.701673 
L 599.712105 231.506998 
L 600.11242 229.72132 
L 600.511691 224.102022 
L 600.909923 225.123231 
L 601.307123 234.526512 
L 601.703294 233.848791 
L 602.098444 234.397264 
L 602.492576 234.009612 
L 602.885697 232.207711 
L 603.27781 232.613874 
L 603.668922 231.518194 
L 604.059038 229.233749 
L 604.448162 231.685171 
L 604.8363 228.146221 
L 605.223457 226.00822 
L 605.609637 225.232288 
L 605.994845 225.277883 
L 606.379087 219.244331 
L 606.762367 224.463899 
L 607.14469 231.593175 
L 607.526061 231.799618 
L 607.906484 228.233324 
L 608.285965 226.433574 
L 608.664507 226.285851 
L 609.042116 223.117623 
L 609.418796 245.543789 
L 609.794552 251.335601 
L 610.169387 254.241716 
L 610.543308 254.780337 
L 610.916317 255.775077 
L 611.28842 257.254168 
L 611.659621 255.220358 
L 612.029924 247.187064 
L 612.399334 246.60978 
L 612.767855 253.975159 
L 613.135491 252.737255 
L 613.502246 250.279423 
L 613.868125 257.31448 
L 614.233132 256.812351 
L 614.597271 258.998634 
L 614.960546 256.88406 
L 615.322961 246.095826 
L 615.684521 244.167519 
L 616.045228 250.853218 
L 616.405088 252.838111 
L 617.12228 254.660964 
L 617.479621 253.294591 
L 617.836129 255.872118 
L 618.19181 259.661054 
L 618.546666 259.7868 
L 618.900701 260.996049 
L 619.25392 265.663183 
L 619.957923 266.33989 
L 620.308714 264.76032 
L 620.658703 265.140364 
L 621.007895 253.037055 
L 621.356292 255.212572 
L 621.703897 255.185596 
L 622.050716 251.578597 
L 622.396751 252.830063 
L 622.742005 245.814625 
L 623.086483 242.231899 
L 623.430187 241.009195 
L 623.773122 241.236484 
L 624.115291 240.411907 
L 624.456696 246.736567 
L 624.797342 247.201718 
L 625.137232 246.239358 
L 625.476369 246.232325 
L 625.814757 252.694201 
L 626.152398 256.549775 
L 626.489297 248.397172 
L 626.825455 251.993413 
L 627.160878 253.162723 
L 627.495567 245.036102 
L 627.829527 248.388985 
L 628.162759 248.305316 
L 628.495268 251.54114 
L 628.827057 251.498014 
L 629.158128 243.115693 
L 629.488484 254.128393 
L 630.4753 257.856517 
L 630.80283 267.413843 
L 631.129661 257.75571 
L 631.455796 251.588229 
L 631.781238 250.638277 
L 632.105989 251.418107 
L 632.430054 260.333271 
L 632.753434 259.163584 
L 633.076132 260.32936 
L 633.398152 260.442207 
L 633.719495 258.591128 
L 634.040166 258.299443 
L 634.360167 259.875549 
L 634.679501 262.672072 
L 635.316176 265.551633 
L 635.633524 254.672706 
L 635.950216 255.618755 
L 636.581641 251.118183 
L 636.896379 253.929882 
L 637.210472 252.846242 
L 637.523923 264.401795 
L 637.836732 265.409727 
L 638.148904 258.574406 
L 638.460441 261.991384 
L 638.771345 262.96839 
L 639.391267 273.172773 
L 639.700288 275.844631 
L 640.008688 275.67337 
L 640.316468 276.297668 
L 640.62363 274.134653 
L 640.930177 273.642565 
L 641.236112 272.781282 
L 641.541437 272.769545 
L 641.846154 262.495395 
L 642.150266 262.697921 
L 642.453775 270.354198 
L 642.756684 268.684685 
L 643.058994 268.578701 
L 643.360709 272.578738 
L 643.661831 272.599794 
L 643.962361 264.376124 
L 644.262303 265.257728 
L 644.561659 260.475626 
L 644.86043 269.842905 
L 645.15862 269.332534 
L 645.45623 270.421385 
L 646.04972 270.179639 
L 646.345605 270.168122 
L 646.935665 271.166466 
L 647.229844 270.410544 
L 647.523459 271.785436 
L 647.816513 274.102922 
L 648.109006 273.398332 
L 648.400942 272.317024 
L 648.692322 272.432224 
L 648.983149 268.057128 
L 649.273425 266.972471 
L 649.563151 267.007611 
L 649.85233 266.759257 
L 650.140964 265.970687 
L 650.429055 261.982469 
L 650.716605 268.250066 
L 651.003616 268.494165 
L 651.29009 268.460669 
L 651.576029 266.182876 
L 651.861435 265.38813 
L 652.14631 265.991147 
L 652.430657 266.021687 
L 652.714476 265.912418 
L 652.997769 272.887722 
L 653.28054 270.153867 
L 653.56279 269.755693 
L 653.84452 268.891319 
L 654.125733 261.903512 
L 654.40643 262.91061 
L 654.686614 262.392973 
L 654.966285 264.642511 
L 655.245447 264.54123 
L 655.524101 259.385126 
L 655.802249 258.443643 
L 656.079893 258.282747 
L 656.357033 268.596671 
L 656.633674 265.83264 
L 656.909815 259.278359 
L 657.185459 258.803708 
L 657.460608 254.696873 
L 657.735263 256.193652 
L 658.009427 252.830547 
L 658.283101 263.066156 
L 658.556286 263.099877 
L 658.828985 266.154917 
L 659.372929 269.359924 
L 659.644179 263.28259 
L 659.914949 262.583387 
L 660.185241 259.807521 
L 660.455056 259.717757 
L 660.724397 268.632212 
L 660.993265 272.25709 
L 661.261662 273.855026 
L 661.529589 270.859975 
L 661.797048 270.790326 
L 662.064041 270.49606 
L 662.330569 270.47706 
L 662.596634 265.625825 
L 662.862237 270.952066 
L 663.127381 273.137912 
L 663.392066 273.645917 
L 663.656294 272.928161 
L 663.920068 272.825959 
L 664.446255 278.992308 
L 664.708672 276.431304 
L 664.97064 278.639421 
L 665.23216 278.496078 
L 665.493235 276.864457 
L 665.753866 276.482397 
L 666.014053 269.563816 
L 666.533106 269.837914 
L 666.791973 271.820126 
L 667.050404 272.222191 
L 667.3084 267.00313 
L 667.565961 272.583007 
L 668.079788 268.160928 
L 668.336057 268.299609 
L 668.591897 270.917159 
L 668.84731 277.050719 
L 669.102299 278.363882 
L 669.356863 275.059276 
L 669.611004 264.810601 
L 669.864725 266.604819 
L 670.118026 271.684036 
L 670.370908 272.926041 
L 671.378282 285.160242 
L 671.629094 283.863419 
L 671.879495 285.133448 
L 672.129487 283.523201 
L 672.379072 272.034177 
L 672.628251 278.139917 
L 672.877025 279.006281 
L 673.125395 281.635374 
L 673.373363 281.839137 
L 673.868098 282.880208 
L 674.114868 282.378203 
L 674.36124 285.488408 
L 674.607216 284.21453 
L 674.852798 287.517326 
L 675.097987 280.534103 
L 675.342784 285.598982 
L 675.58719 277.162676 
L 676.074834 276.915222 
L 676.318076 277.028755 
L 676.803402 279.684626 
L 677.045489 270.834987 
L 677.287195 273.358597 
L 677.528519 273.276634 
L 677.769464 277.657974 
L 678.01003 275.181375 
L 678.250219 275.456369 
L 678.490031 282.093233 
L 678.968533 278.186157 
L 679.207224 279.81446 
L 679.445543 279.993851 
L 679.921073 288.026975 
L 680.158285 289.939667 
L 680.39513 288.559504 
L 680.867724 287.495633 
L 681.103475 287.87503 
L 681.338863 281.352734 
L 681.573891 285.041542 
L 681.808558 295.161653 
L 682.042866 295.377581 
L 682.276816 298.114889 
L 682.743647 299.961865 
L 682.976529 293.273281 
L 683.209058 293.605572 
L 683.441235 287.402284 
L 683.67306 288.51738 
L 683.904534 288.044261 
L 684.135659 289.512908 
L 684.366436 300.912721 
L 684.596865 301.110937 
L 684.826948 295.540788 
L 685.28608 290.923424 
L 685.515131 291.120393 
L 685.743839 294.382931 
L 685.972207 293.14455 
L 686.200234 292.801678 
L 686.427922 294.892852 
L 686.655272 288.81309 
L 686.882285 293.696116 
L 687.108962 291.635662 
L 687.335304 300.879323 
L 687.561312 301.484129 
L 687.786987 301.547295 
L 688.237341 301.484773 
L 688.462023 300.334412 
L 688.686375 308.700558 
L 688.910399 309.245466 
L 689.134095 307.823256 
L 689.357466 308.206204 
L 689.58051 311.275007 
L 689.803231 311.042868 
L 690.025628 306.236011 
L 690.247702 308.684467 
L 690.469455 308.872657 
L 690.690887 309.377507 
L 690.912 300.533891 
L 691.132793 302.990783 
L 691.353269 303.369838 
L 691.573428 301.363236 
L 691.79327 303.999326 
L 692.012798 302.956642 
L 692.232011 303.481719 
L 692.45091 303.451969 
L 692.669498 311.116125 
L 692.887773 310.894166 
L 693.105738 310.16873 
L 693.323393 308.030659 
L 693.540739 308.204765 
L 693.757777 308.149437 
L 693.974508 308.229817 
L 694.190933 313.600668 
L 694.407052 313.238395 
L 694.622866 317.223942 
L 694.838377 317.622566 
L 695.483095 308.212577 
L 695.697399 308.237438 
L 695.911404 312.429127 
L 696.12511 312.246067 
L 696.338518 314.598836 
L 696.551629 315.34086 
L 696.764444 314.800419 
L 696.976963 316.66668 
L 697.189188 316.503809 
L 697.40112 316.706234 
L 697.824104 327.805554 
L 698.035159 329.937526 
L 698.245923 329.231561 
L 698.666584 328.712155 
L 698.876482 327.466322 
L 699.086092 327.035524 
L 699.295416 328.27319 
L 699.504454 330.7802 
L 699.713207 330.001027 
L 699.921675 331.693837 
L 700.129861 327.514133 
L 700.337764 328.516952 
L 700.545384 325.36556 
L 700.752724 327.353069 
L 700.959783 324.203338 
L 701.166563 325.084214 
L 701.373064 324.186834 
L 701.579286 331.704608 
L 701.785232 331.296719 
L 701.9909 330.332242 
L 702.401411 333.383554 
L 702.606254 333.524645 
L 703.01512 333.075737 
L 703.219145 334.332667 
L 703.422898 334.396779 
L 703.62638 330.400901 
L 703.829592 332.25117 
L 704.032535 331.517101 
L 704.235209 331.789646 
L 704.437615 330.940863 
L 704.841627 325.234575 
L 705.043234 327.025933 
L 705.244575 325.617257 
L 705.847017 335.408775 
L 706.047305 331.166829 
L 706.447097 334.92892 
L 706.646602 334.973907 
L 706.845848 332.271439 
L 707.044835 332.501834 
L 707.243563 332.36029 
L 707.442034 330.823812 
L 707.640248 330.800768 
L 707.838206 331.991426 
L 708.035908 325.94286 
L 708.233355 325.540867 
L 708.430548 326.427917 
L 708.627488 325.823171 
L 708.824174 326.242323 
L 709.020608 328.39882 
L 709.21679 328.269773 
L 709.412722 325.762743 
L 709.803834 313.410984 
L 709.999016 313.414507 
L 710.19395 317.706491 
L 710.388635 314.499713 
L 710.971212 324.212841 
L 711.358368 323.837744 
L 711.55158 324.018601 
L 711.744548 318.576145 
L 711.937274 318.628776 
L 712.129757 316.160547 
L 712.321998 316.348139 
L 712.513999 317.619845 
L 712.705759 307.744442 
L 713.08856 302.409117 
L 713.279602 296.073228 
L 713.470406 300.743067 
L 713.851302 301.576443 
L 714.041396 296.699826 
L 714.231254 297.502444 
L 714.420876 300.000018 
L 714.610265 298.009813 
L 714.799419 298.179497 
L 714.98834 298.18849 
L 715.365483 295.995006 
L 715.553708 296.427328 
L 715.741701 299.050004 
L 715.929463 298.994918 
L 716.304299 299.639883 
L 716.491373 301.212687 
L 716.678219 299.776796 
L 716.864838 299.784969 
L 717.051229 301.562832 
L 717.237393 297.741135 
L 717.423332 297.406255 
L 717.609045 302.650542 
L 717.794533 302.945327 
L 717.979796 300.264305 
L 718.164836 300.451346 
L 718.349652 300.246988 
L 718.534246 300.451209 
L 718.718617 298.734028 
L 718.902766 300.893905 
L 719.270402 313.578572 
L 719.637158 307.815729 
L 719.820207 309.614979 
L 720.003037 309.786017 
L 720.185649 308.133201 
L 720.550221 309.115306 
L 720.732183 306.992992 
L 720.913928 307.962398 
L 721.276772 311.860701 
L 721.457873 312.739846 
L 721.638759 310.617956 
L 721.819432 310.659436 
L 721.999892 321.072277 
L 722.539999 329.880504 
L 722.719613 329.829512 
L 722.899016 330.036853 
L 723.078209 329.101572 
L 723.257192 332.356487 
L 723.435966 331.874072 
L 723.614532 333.25159 
L 723.79289 336.31951 
L 723.971041 333.71342 
L 724.148984 334.672764 
L 724.326721 336.354016 
L 724.504252 336.684496 
L 724.858697 335.743019 
L 725.035613 332.842733 
L 725.212324 327.632455 
L 725.741238 326.478304 
L 726.092834 326.570846 
L 726.26833 330.417119 
L 726.443626 330.303242 
L 726.61872 331.005974 
L 726.793615 330.873736 
L 726.96831 330.154325 
L 727.142806 330.674872 
L 727.491203 329.859627 
L 727.665105 328.827171 
L 727.838809 329.028742 
L 728.012316 328.18648 
L 728.185627 328.688705 
L 728.358742 330.426194 
L 728.531662 330.670392 
L 728.704387 333.114951 
L 728.876917 330.776319 
L 729.049252 332.993461 
L 729.221394 332.913471 
L 729.393343 331.367752 
L 729.565099 333.42676 
L 729.736662 331.815767 
L 729.908034 335.489976 
L 730.079214 334.856525 
L 730.421 339.590477 
L 730.591608 338.297976 
L 730.762025 333.76412 
L 730.932254 333.904284 
L 731.102293 332.944578 
L 731.272144 335.728613 
L 731.441806 335.509585 
L 731.611281 332.585251 
L 731.780568 333.022075 
L 731.949668 334.631264 
L 732.118582 334.274336 
L 732.28731 334.42239 
L 732.455851 335.187725 
L 732.79238 331.783819 
L 733.12817 329.821953 
L 733.463226 331.933051 
L 733.797549 339.263779 
L 733.964438 338.619062 
L 734.131145 338.962622 
L 734.297671 339.733605 
L 734.464015 339.799852 
L 734.796164 338.194459 
L 734.961968 335.734453 
L 735.127593 334.988277 
L 735.293039 332.983327 
L 735.458307 336.369876 
L 735.623396 336.612588 
L 735.788307 335.27364 
L 735.953042 335.857473 
L 736.117599 339.100617 
L 736.446183 338.039679 
L 736.610211 335.957607 
L 736.774064 329.595993 
L 736.937741 332.768075 
L 737.101244 332.454092 
L 737.264573 333.638172 
L 737.590708 333.72591 
L 737.753515 335.554277 
L 737.916149 334.786768 
L 738.078611 336.324483 
L 738.240901 335.956712 
L 738.403019 336.747111 
L 738.564965 333.492181 
L 738.72674 333.56044 
L 738.888345 333.889579 
L 739.049779 338.294005 
L 739.211043 336.325663 
L 739.372138 337.327835 
L 739.533063 336.34273 
L 739.693819 333.357424 
L 739.854407 336.343861 
L 740.014826 337.032224 
L 740.175078 336.495772 
L 740.335162 334.046401 
L 740.654829 333.170339 
L 740.814412 338.717004 
L 741.133081 341.223566 
L 741.292167 338.399695 
L 741.609844 339.260085 
L 741.768436 339.379763 
L 741.926863 337.252313 
L 742.401165 340.769328 
L 742.55894 340.637571 
L 742.874002 338.473374 
L 743.031291 341.398153 
L 743.188418 338.906101 
L 743.345384 339.484306 
L 743.658834 337.460275 
L 743.815319 339.316682 
L 743.971644 338.248439 
L 744.127809 338.265681 
L 744.283816 336.081484 
L 744.595353 339.087892 
L 744.750884 345.805839 
L 744.906257 345.711938 
L 745.061473 345.316438 
L 745.216531 345.90654 
L 745.371433 345.961579 
L 745.680767 344.383487 
L 745.8352 344.638564 
L 745.989477 344.321842 
L 746.143599 344.733167 
L 746.297567 341.505649 
L 746.451379 344.436921 
L 746.605037 344.613967 
L 746.758541 345.271212 
L 746.911892 345.200505 
L 747.065089 347.213107 
L 747.371023 346.566563 
L 747.523762 348.480296 
L 747.676348 348.643512 
L 747.828782 348.546238 
L 747.981065 348.182267 
L 748.133197 350.516258 
L 748.285177 350.90709 
L 748.437007 351.820414 
L 748.588686 351.128891 
L 748.740216 347.557651 
L 748.891595 347.683479 
L 749.042825 351.666826 
L 749.193906 349.017602 
L 749.344837 348.734721 
L 749.495621 348.793148 
L 749.646256 351.742053 
L 750.097273 345.980781 
L 750.247317 345.801977 
L 750.846029 352.455918 
L 750.995342 349.747975 
L 751.144509 350.837584 
L 751.442409 348.820082 
L 751.73973 347.942079 
L 751.888174 348.626992 
L 752.036475 348.650866 
L 752.184632 349.045864 
L 752.332646 348.313752 
L 752.480517 344.658799 
L 752.628245 344.165062 
L 752.775831 344.841064 
L 753.070576 343.340172 
L 753.217737 344.10475 
L 753.364756 345.799228 
L 753.658371 344.170146 
L 753.804968 347.224691 
L 753.951424 347.299825 
L 754.097741 342.588394 
L 754.243918 342.95865 
L 754.389955 342.227801 
L 754.535854 337.144592 
L 754.827234 337.954861 
L 754.972716 339.282404 
L 755.118061 339.363911 
L 755.263267 339.748021 
L 755.553268 341.046863 
L 755.698063 341.515838 
L 755.842721 337.521866 
L 755.987242 338.233948 
L 756.131627 341.686716 
L 756.275876 340.570483 
L 756.419989 340.59598 
L 756.707809 341.577159 
L 756.851517 338.5566 
L 756.99509 338.701139 
L 757.138528 340.359163 
L 757.281832 339.222667 
L 757.425002 340.684798 
L 757.568038 340.527919 
L 757.710941 340.939328 
L 757.85371 340.850809 
L 758.138851 341.075278 
L 758.281222 344.576531 
L 758.423461 344.211423 
L 758.707543 346.823061 
L 758.849387 348.349065 
L 758.9911 348.33497 
L 759.132681 350.25239 
L 759.274132 349.761575 
L 759.415452 348.486863 
L 759.556641 349.38646 
L 759.838631 354.180195 
L 759.979431 351.515414 
L 760.120102 351.152134 
L 760.260644 351.72466 
L 760.541341 343.445911 
L 760.961425 344.677416 
L 761.101197 344.137706 
L 761.240842 346.982868 
L 761.380359 347.123909 
L 761.519749 348.012036 
L 761.659013 351.930577 
L 761.79815 351.691309 
L 762.491945 349.23788 
L 762.630328 349.716699 
L 762.768585 347.744819 
L 762.906718 351.559464 
L 763.044726 348.525131 
L 763.182611 348.64098 
L 763.320371 348.606922 
L 763.59552 347.223187 
L 763.732909 347.356585 
L 763.870175 349.42832 
L 764.007318 349.149146 
L 764.144338 347.668613 
L 764.418012 351.052095 
L 764.554666 351.446749 
L 764.691197 350.807777 
L 764.827607 350.783672 
L 765.100064 348.220889 
L 765.372036 349.371182 
L 765.643526 348.004415 
L 765.77909 347.936656 
L 765.914535 346.280433 
L 766.04986 346.231382 
L 766.185066 346.79674 
L 766.320152 347.896088 
L 766.455119 347.904928 
L 766.724697 345.443752 
L 766.993802 348.588347 
L 767.128177 348.085692 
L 767.530596 357.352803 
L 767.798289 354.603851 
L 768.065514 356.434558 
L 768.332275 355.282815 
L 768.598571 353.471509 
L 768.997149 356.403446 
L 769.262292 355.474345 
L 769.394692 354.19144 
L 769.791206 358.350306 
L 769.923149 358.819663 
L 770.054979 359.779836 
L 770.186695 359.871296 
L 770.318299 362.309195 
L 770.449789 362.244982 
L 770.581166 362.989359 
L 770.712431 361.044146 
L 770.843583 361.851066 
L 771.367072 353.766321 
L 771.497665 353.849594 
L 771.758517 356.638643 
L 771.888777 354.924068 
L 772.018926 354.978234 
L 772.278893 355.977722 
L 772.408711 355.628197 
L 772.538419 357.235072 
L 772.926885 349.427647 
L 773.056155 349.378454 
L 773.314368 351.930127 
L 773.443311 352.350324 
L 773.572146 351.347692 
L 773.700873 351.890234 
L 773.958002 351.623291 
L 774.086405 346.337794 
L 774.2147 346.089393 
L 774.342888 347.046342 
L 774.470968 346.348469 
L 774.726808 347.355831 
L 774.854568 347.714033 
L 774.982222 349.601927 
L 775.109769 349.359485 
L 775.23721 349.553429 
L 775.364545 348.970298 
L 775.491774 349.036835 
L 775.872829 351.743246 
L 775.999636 351.307851 
L 776.126339 350.227959 
L 776.252937 350.927719 
L 776.379431 348.698677 
L 776.632104 348.868023 
L 776.758285 349.312515 
L 777.010335 348.906702 
L 777.136205 348.715532 
L 777.513194 353.263944 
L 777.764005 357.78248 
L 777.889257 357.767505 
L 778.014406 358.091703 
L 778.139454 357.103941 
L 778.264399 357.648648 
L 778.513984 356.129377 
L 778.638624 354.645088 
L 778.8876 355.150196 
L 779.011936 358.300636 
L 779.136172 358.319206 
L 779.260307 362.191577 
L 779.384341 362.167493 
L 779.508275 359.347039 
L 779.632109 359.080715 
L 779.755842 357.749372 
L 779.879476 359.221914 
L 780.00301 359.224966 
L 780.126444 359.025055 
L 780.249779 359.205811 
L 780.496151 365.193783 
L 780.619189 365.288062 
L 780.742128 359.171711 
L 780.864968 359.371139 
L 780.98771 358.592333 
L 781.110353 358.956527 
L 781.477695 356.449544 
L 781.844158 353.872063 
L 781.966118 353.968016 
L 782.08798 353.39951 
L 782.209746 353.439784 
L 782.331415 354.373783 
L 782.452987 354.338257 
L 782.574463 355.442407 
L 782.695842 354.185204 
L 782.817126 354.601372 
L 782.938313 354.555007 
L 783.059405 354.924559 
L 783.180401 354.370726 
L 783.301301 356.187962 
L 784.024706 356.597513 
L 784.144941 356.332229 
L 784.86438 361.809346 
L 784.983959 360.916094 
L 785.103444 361.11314 
L 785.222836 361.781221 
L 785.342135 358.441864 
L 785.461341 358.307063 
L 785.580455 361.23295 
L 785.93724 360.579652 
L 786.293196 361.469648 
L 786.411664 357.176223 
L 786.648326 358.20208 
L 786.76652 365.049211 
L 786.884623 364.40525 
L 787.002635 364.756884 
L 787.238386 363.90491 
L 787.356126 364.165474 
L 787.473775 364.765263 
L 787.708802 364.8423 
L 787.826181 366.229716 
L 787.943469 365.472202 
L 788.060668 365.888939 
L 788.177778 367.309885 
L 788.411728 366.560066 
L 788.645321 368.377339 
L 788.878558 365.945854 
L 788.995044 366.037146 
L 789.227749 364.006341 
L 789.34397 364.043156 
L 789.460102 361.844696 
L 789.576146 361.854328 
L 789.692103 360.760217 
L 789.807971 361.06062 
L 789.923752 361.008227 
L 790.155052 359.636511 
L 790.270571 356.885731 
L 790.386002 357.174558 
L 790.616605 356.818392 
L 790.731777 356.712793 
L 790.96186 355.319894 
L 791.076772 355.149912 
L 791.306338 357.917501 
L 791.420992 357.890896 
L 791.53556 358.413744 
L 791.650042 359.466873 
L 791.878751 359.382979 
L 792.107118 357.473517 
L 792.221174 361.403846 
L 792.335145 361.383534 
L 792.449032 361.200378 
L 792.676551 360.474212 
L 792.903732 358.209409 
L 793.130577 360.920552 
L 793.243874 361.275178 
L 793.357087 362.428159 
L 793.470216 362.421125 
L 793.583262 361.992253 
L 793.696224 362.31907 
L 793.809103 362.107502 
L 793.921899 361.301801 
L 794.034611 362.101272 
L 794.147241 361.932379 
L 794.259788 362.01869 
L 794.484635 363.404225 
L 794.709151 361.931168 
L 794.933339 362.76883 
L 795.04531 362.201851 
L 795.157199 363.959943 
L 795.269007 363.86446 
L 795.380733 364.947365 
L 795.60394 363.81675 
L 795.826823 364.552792 
L 795.938142 367.40266 
L 796.049381 367.348952 
L 796.160539 367.524603 
L 796.382614 366.284035 
L 796.604367 368.706239 
L 796.715123 368.722778 
L 796.825799 369.577212 
L 797.046911 369.243975 
L 797.157348 368.130579 
L 797.267705 368.698821 
L 797.377982 368.465993 
L 797.488181 367.228538 
L 797.598299 368.850282 
L 797.8183 368.482438 
L 797.928182 368.302438 
L 798.037985 368.542716 
L 798.147709 367.970019 
L 798.257355 368.377292 
L 798.476411 371.241131 
L 798.585822 371.070698 
L 798.913586 371.405643 
L 799.022685 371.112659 
L 799.24065 372.287412 
L 799.349516 371.00129 
L 799.458305 371.619243 
L 799.567016 371.317812 
L 799.675651 371.621889 
L 799.892689 370.610556 
L 800.001093 370.9872 
L 800.10942 373.246479 
L 800.21767 372.816005 
L 800.325844 372.970398 
L 800.433942 374.107918 
L 800.541963 373.030723 
L 800.649908 373.750811 
L 800.973288 368.848436 
L 801.08093 368.74877 
L 801.295987 369.410695 
L 801.403402 369.473479 
L 801.510742 368.118666 
L 801.618006 368.13267 
L 801.725196 367.655958 
L 801.93935 367.871974 
L 802.046315 367.871917 
L 802.153205 368.054839 
L 802.366762 368.036789 
L 802.473429 368.146861 
L 802.580022 369.194652 
L 802.68654 368.939143 
L 802.792985 369.035117 
L 802.899355 370.320696 
L 803.005652 370.205498 
L 803.111875 369.445383 
L 803.3241 370.192309 
L 803.430102 367.38244 
L 803.641887 368.710832 
L 803.747669 368.138839 
L 803.853379 368.43107 
L 803.959016 368.201175 
L 804.064579 367.597539 
L 804.170071 367.77494 
L 804.275489 365.630701 
L 804.486108 365.818671 
L 804.59131 365.826295 
L 804.801495 367.407247 
L 805.011393 367.225875 
L 805.116234 367.677679 
L 805.325701 366.856882 
L 805.534882 365.220384 
L 805.743777 365.79393 
L 805.848118 367.186854 
L 805.952388 366.819782 
L 806.056587 369.241995 
L 806.160715 365.757982 
L 806.368759 369.321027 
L 806.472675 368.545089 
L 806.680296 363.730325 
L 806.887635 362.658973 
L 806.9912 363.768651 
L 807.094695 363.701835 
L 807.301474 363.221204 
L 807.40476 363.196327 
L 807.611121 360.478915 
L 807.817205 358.176862 
L 808.228543 358.637124 
L 808.433798 360.282721 
L 808.536322 359.840427 
L 808.638778 362.443775 
L 808.741166 362.267663 
L 808.843484 361.672938 
L 809.047918 362.28816 
L 809.150032 362.579736 
L 809.252078 363.434164 
L 809.354056 360.873563 
L 809.455967 362.833565 
L 809.862931 362.199172 
L 809.964503 362.082908 
L 810.066008 362.360643 
L 810.167446 361.810519 
L 810.268817 361.948912 
L 810.471357 363.175937 
L 810.67363 365.326669 
L 810.976538 364.112683 
L 811.178145 363.167247 
L 811.379487 366.966915 
L 811.480058 366.147238 
L 811.580564 366.962111 
L 811.681004 370.91852 
L 811.781377 369.90706 
L 811.981928 371.062914 
L 812.082105 370.885438 
L 812.182216 371.734855 
L 812.282262 371.709059 
L 812.382243 371.825965 
L 812.482158 371.447829 
L 812.681794 374.393105 
L 812.881169 376.565213 
L 812.980759 376.162209 
L 813.080285 376.385989 
L 813.477742 374.822578 
L 813.676085 375.27752 
L 813.874171 375.376554 
L 813.973117 375.043524 
L 814.072 373.082821 
L 814.17082 373.172984 
L 814.269575 372.86708 
L 814.466895 373.848223 
L 814.56546 374.251191 
L 814.663961 374.19732 
L 814.762399 373.787854 
L 814.959085 374.291863 
L 815.253642 374.022988 
L 815.449699 373.975426 
L 815.547633 373.832595 
L 815.645505 372.452756 
L 815.743314 373.308271 
L 815.841061 373.171713 
L 815.938745 372.390073 
L 816.133927 373.705959 
L 816.328861 373.103542 
L 816.426235 373.78066 
L 816.523547 372.726931 
L 816.620797 372.800949 
L 816.815112 375.882506 
L 816.912177 376.183994 
L 817.106123 373.590477 
L 817.203004 374.083844 
L 817.299824 373.961212 
L 817.396582 374.219312 
L 817.686491 373.193737 
L 817.783006 373.240453 
L 817.87946 373.571764 
L 817.975853 372.931135 
L 818.168457 373.752152 
L 818.264668 373.415022 
L 818.360819 372.845846 
L 818.45691 372.897895 
L 818.55294 372.778649 
L 818.74482 371.237532 
L 818.84067 370.781299 
L 819.03219 373.03123 
L 819.12786 372.70739 
L 819.319022 373.085213 
L 819.509945 373.177677 
L 819.70063 372.869661 
L 819.795884 372.165081 
L 819.891079 372.201753 
L 819.986214 371.648391 
L 820.176307 369.251288 
L 820.271266 369.194502 
L 820.366165 369.341394 
L 820.555788 370.607951 
L 820.650511 370.616791 
L 820.745176 372.291955 
L 821.02882 370.786468 
L 821.311939 370.202925 
L 821.406196 370.2713 
L 821.688619 369.285379 
L 821.876612 371.592203 
L 821.970522 370.052518 
L 822.064375 370.217647 
L 822.15817 369.547062 
L 822.251907 370.095199 
L 822.345587 369.882207 
L 822.43921 370.132598 
L 822.532776 369.806605 
L 822.626285 370.014435 
L 822.813131 370.813589 
L 822.906468 370.906636 
L 822.999749 371.248192 
L 823.092973 372.250188 
L 823.279251 371.217124 
L 823.558243 374.342475 
L 823.743956 373.853723 
L 823.836728 372.594002 
L 824.022104 373.093232 
L 824.207255 372.560208 
L 824.392183 373.206483 
L 824.576888 373.281839 
L 824.853528 376.173055 
L 825.12967 376.810968 
L 825.221606 376.765438 
L 825.497085 376.967555 
L 825.588801 375.382 
L 825.772069 376.333226 
L 825.863621 376.578169 
L 826.046561 377.422616 
L 826.137948 377.555527 
L 826.229282 378.225327 
L 826.320561 376.997311 
L 826.411785 377.43034 
L 826.502955 377.255854 
L 826.594071 378.831062 
L 826.685133 378.635882 
L 826.776141 379.162719 
L 826.867094 378.890522 
L 827.048839 379.307137 
L 827.230369 377.764555 
L 827.321053 377.554473 
L 827.411684 377.646259 
L 827.683254 377.061847 
L 827.77367 377.423514 
L 827.954343 377.035547 
L 828.134803 376.27869 
L 828.224954 376.032883 
L 828.315051 376.268716 
L 828.495087 378.728903 
L 828.585025 378.585648 
L 828.764744 378.701433 
L 828.944252 378.317087 
L 829.12355 379.181329 
L 829.21312 379.316821 
L 829.302638 380.10685 
L 829.392103 380.070871 
L 829.481517 380.080095 
L 829.660187 379.91428 
L 829.838649 378.405244 
L 829.927802 378.224307 
L 830.016903 378.671962 
L 830.105952 380.717283 
L 830.19495 380.664805 
L 830.283896 379.346703 
L 830.37279 379.462597 
L 830.550424 379.48299 
L 830.639163 379.424874 
L 830.727852 379.00385 
L 830.816489 380.185026 
L 830.905074 379.805339 
L 830.993609 380.022563 
L 831.170524 379.59402 
L 831.258905 379.698441 
L 831.435515 376.183619 
L 831.523743 375.125031 
L 831.611921 375.655373 
L 831.788124 375.444512 
L 831.876149 375.41063 
L 832.403242 376.18409 
L 832.578537 376.793884 
L 832.753632 377.010735 
L 833.103222 377.410291 
L 833.364891 378.148404 
L 833.53909 378.083231 
L 833.886893 375.52313 
L 833.97372 375.201374 
L 834.060499 372.79477 
L 834.233908 374.168162 
L 834.320539 374.440466 
L 834.407121 374.294565 
L 834.493654 373.759144 
L 834.580138 373.847153 
L 834.75296 375.124922 
L 834.925587 375.479833 
L 835.011828 375.500537 
L 835.270259 376.351056 
L 835.528255 376.440798 
L 835.614157 376.144798 
L 835.785816 379.898306 
L 836.042945 382.199711 
L 836.299643 381.489925 
L 836.385114 381.261604 
L 836.555912 381.668013 
L 836.896937 381.881486 
L 836.982075 382.141201 
L 837.152208 381.993608 
L 837.237204 381.272445 
L 837.322153 381.334297 
L 837.49191 380.724493 
L 837.576717 380.612591 
L 837.661478 380.124331 
L 837.746192 380.140246 
L 837.830859 379.944805 
L 838.08458 381.931865 
L 838.16906 380.719416 
L 838.253493 381.140331 
L 838.422221 383.738594 
L 838.506515 383.410242 
L 838.590763 383.466305 
L 838.927291 384.074771 
L 839.346914 381.686813 
L 839.430701 381.454749 
L 840.015928 382.589387 
L 840.182726 381.263639 
L 840.266057 381.32817 
L 840.432582 382.065641 
L 840.598927 381.799544 
L 840.682032 381.76627 
L 840.848106 382.343331 
L 840.931075 382.13596 
L 841.014 382.351063 
L 841.262505 381.645914 
L 841.34525 381.545355 
L 841.593218 382.369297 
L 841.675785 382.145064 
L 841.840785 382.553843 
L 842.170254 381.540201 
L 842.25251 381.563822 
L 842.334722 383.028924 
L 842.41689 382.566333 
L 842.663131 382.921267 
L 842.745123 382.471728 
L 842.827071 382.792713 
L 842.990836 382.086792 
L 843.072653 382.061695 
L 843.236156 383.137751 
L 843.317842 379.953373 
L 843.399484 380.980543 
L 843.481083 380.972254 
L 843.64415 381.114528 
L 843.807044 380.612614 
L 843.969765 380.645326 
L 844.051061 380.201207 
L 844.294689 380.88418 
L 844.618925 379.339204 
L 844.699877 379.465584 
L 844.780786 379.474373 
L 844.861652 379.196638 
L 844.942476 379.231221 
L 845.345955 380.276799 
L 845.426523 379.974229 
L 845.587533 380.439704 
L 845.667975 379.444674 
L 845.748374 379.730544 
L 845.989318 380.122742 
L 846.069549 379.860523 
L 846.229885 380.597129 
L 846.309989 380.263193 
L 846.470073 380.850914 
L 846.62999 380.369967 
L 846.869553 381.003719 
L 846.949324 381.682519 
L 847.029053 381.612731 
L 847.188387 381.732334 
L 847.267992 381.402646 
L 847.347556 384.631729 
L 847.427078 384.586825 
L 847.506559 384.737791 
L 847.665398 384.3212 
L 847.744755 384.485078 
L 847.982582 383.827618 
L 848.061775 384.273761 
L 848.140927 383.31531 
L 848.378139 384.745751 
L 848.457128 384.268206 
L 848.614984 385.588909 
L 848.693851 385.017514 
L 848.851464 382.345317 
L 848.930209 382.20851 
L 849.244786 378.395814 
L 849.323329 377.971158 
L 849.323329 377.971158 
" clip-path="url(#pfbd9d6980d)" style="fill: none; stroke: #000000; stroke-width: 2; stroke-linecap: square"/>
   </g>
   <g id="patch_3">
    <path d="M 41.92 403.436 
L 41.92 10.8 
" style="fill: none; stroke: #000000; stroke-width: 0.8; stroke-linejoin: miter; stroke-linecap: square"/>
   </g>
   <g id="patch_4">
    <path d="M 853.2 403.436 
L 853.2 10.8 
" style="fill: none; stroke: #000000; stroke-width: 0.8; stroke-linejoin: miter; stroke-linecap: square"/>
   </g>
   <g id="patch_5">
    <path d="M 41.92 403.436 
L 853.2 403.436 
" style="fill: none; stroke: #000000; stroke-width: 0.8; stroke-linejoin: miter; stroke-linecap: square"/>
   </g>
   <g id="patch_6">
    <path d="M 41.92 10.8 
L 853.2 10.8 
" style="fill: none; stroke: #000000; stroke-width: 0.8; stroke-linejoin: miter; stroke-linecap: square"/>
   </g>
  </g>
 </g>
 <defs>
  <clipPath id="pfbd9d6980d">
   <rect x="41.92" y="10.8" width="811.28" height="392.636"/>
  </clipPath>
 </defs>
</svg>
