<?xml version="1.0" encoding="utf-8" standalone="no"?>
<!DOCTYPE svg PUBLIC "-//W3C//DTD SVG 1.1//EN"
  "http://www.w3.org/Graphics/SVG/1.1/DTD/svg11.dtd">
<svg xmlns:xlink="http://www.w3.org/1999/xlink" width="864pt" height="432pt" viewBox="0 0 864 432" xmlns="http://www.w3.org/2000/svg" version="1.1">
 <metadata>
  <rdf:RDF xmlns:dc="http://purl.org/dc/elements/1.1/" xmlns:cc="http://creativecommons.org/ns#" xmlns:rdf="http://www.w3.org/1999/02/22-rdf-syntax-ns#">
   <cc:Work>
    <dc:type rdf:resource="http://purl.org/dc/dcmitype/StillImage"/>
    <dc:date>2024-09-19T08:37:04.195911</dc:date>
    <dc:format>image/svg+xml</dc:format>
    <dc:creator>
     <cc:Agent>
      <dc:title>Matplotlib v3.9.2, https://matplotlib.org/</dc:title>
     </cc:Agent>
    </dc:creator>
   </cc:Work>
  </rdf:RDF>
 </metadata>
 <defs>
  <style type="text/css">*{stroke-linejoin: round; stroke-linecap: butt}</style>
 </defs>
 <g id="figure_1">
  <g id="patch_1">
   <path d="M 0 432 
L 864 432 
L 864 0 
L 0 0 
z
" style="fill: #ffffff"/>
  </g>
  <g id="axes_1">
   <g id="patch_2">
    <path d="M 41.92 404.12 
L 853.2 404.12 
L 853.2 10.8 
L 41.92 10.8 
z
" style="fill: #ffffff"/>
   </g>
   <g id="matplotlib.axis_1">
    <g id="xtick_1">
     <g id="line2d_1">
      <defs>
       <path id="mc0dfd11da7" d="M 0 0 
L 0 3.5 
" style="stroke: #000000; stroke-width: 0.8"/>
      </defs>
      <g>
       <use xlink:href="#mc0dfd11da7" x="140.20733" y="404.12" style="stroke: #000000; stroke-width: 0.8"/>
      </g>
     </g>
     <g id="text_1">
      <!-- 250 -->
      <g transform="translate(131.176861 418.771563) scale(0.1 -0.1)">
       <defs>
        <path id="DejaVuSansMono-32" d="M 1166 531 
L 3309 531 
L 3309 0 
L 475 0 
L 475 531 
Q 1059 1147 1496 1619 
Q 1934 2091 2100 2284 
Q 2413 2666 2522 2902 
Q 2631 3138 2631 3384 
Q 2631 3775 2401 3997 
Q 2172 4219 1772 4219 
Q 1488 4219 1175 4116 
Q 863 4013 513 3803 
L 513 4441 
Q 834 4594 1145 4672 
Q 1456 4750 1759 4750 
Q 2444 4750 2861 4386 
Q 3278 4022 3278 3431 
Q 3278 3131 3139 2831 
Q 3000 2531 2688 2169 
Q 2513 1966 2180 1606 
Q 1847 1247 1166 531 
z
" transform="scale(0.015625)"/>
        <path id="DejaVuSansMono-35" d="M 647 4666 
L 3009 4666 
L 3009 4134 
L 1222 4134 
L 1222 2988 
Q 1356 3038 1492 3061 
Q 1628 3084 1766 3084 
Q 2491 3084 2916 2656 
Q 3341 2228 3341 1497 
Q 3341 759 2895 334 
Q 2450 -91 1678 -91 
Q 1306 -91 998 -41 
Q 691 9 447 109 
L 447 750 
Q 734 594 1025 517 
Q 1316 441 1619 441 
Q 2141 441 2423 716 
Q 2706 991 2706 1497 
Q 2706 1997 2414 2275 
Q 2122 2553 1600 2553 
Q 1347 2553 1106 2495 
Q 866 2438 647 2322 
L 647 4666 
z
" transform="scale(0.015625)"/>
        <path id="DejaVuSansMono-30" d="M 1509 2344 
Q 1509 2516 1629 2641 
Q 1750 2766 1919 2766 
Q 2094 2766 2219 2641 
Q 2344 2516 2344 2344 
Q 2344 2169 2220 2047 
Q 2097 1925 1919 1925 
Q 1744 1925 1626 2044 
Q 1509 2163 1509 2344 
z
M 1925 4250 
Q 1484 4250 1267 3775 
Q 1050 3300 1050 2328 
Q 1050 1359 1267 884 
Q 1484 409 1925 409 
Q 2369 409 2586 884 
Q 2803 1359 2803 2328 
Q 2803 3300 2586 3775 
Q 2369 4250 1925 4250 
z
M 1925 4750 
Q 2672 4750 3055 4137 
Q 3438 3525 3438 2328 
Q 3438 1134 3055 521 
Q 2672 -91 1925 -91 
Q 1178 -91 797 521 
Q 416 1134 416 2328 
Q 416 3525 797 4137 
Q 1178 4750 1925 4750 
z
" transform="scale(0.015625)"/>
       </defs>
       <use xlink:href="#DejaVuSansMono-32"/>
       <use xlink:href="#DejaVuSansMono-35" x="60.205078"/>
       <use xlink:href="#DejaVuSansMono-30" x="120.410156"/>
      </g>
     </g>
    </g>
    <g id="xtick_2">
     <g id="line2d_2">
      <g>
       <use xlink:href="#mc0dfd11da7" x="242.589965" y="404.12" style="stroke: #000000; stroke-width: 0.8"/>
      </g>
     </g>
     <g id="text_2">
      <!-- 500 -->
      <g transform="translate(233.559496 418.771563) scale(0.1 -0.1)">
       <use xlink:href="#DejaVuSansMono-35"/>
       <use xlink:href="#DejaVuSansMono-30" x="60.205078"/>
       <use xlink:href="#DejaVuSansMono-30" x="120.410156"/>
      </g>
     </g>
    </g>
    <g id="xtick_3">
     <g id="line2d_3">
      <g>
       <use xlink:href="#mc0dfd11da7" x="344.9726" y="404.12" style="stroke: #000000; stroke-width: 0.8"/>
      </g>
     </g>
     <g id="text_3">
      <!-- 750 -->
      <g transform="translate(335.942131 418.771563) scale(0.1 -0.1)">
       <defs>
        <path id="DejaVuSansMono-37" d="M 434 4666 
L 3372 4666 
L 3372 4397 
L 1703 0 
L 1044 0 
L 2669 4134 
L 434 4134 
L 434 4666 
z
" transform="scale(0.015625)"/>
       </defs>
       <use xlink:href="#DejaVuSansMono-37"/>
       <use xlink:href="#DejaVuSansMono-35" x="60.205078"/>
       <use xlink:href="#DejaVuSansMono-30" x="120.410156"/>
      </g>
     </g>
    </g>
    <g id="xtick_4">
     <g id="line2d_4">
      <g>
       <use xlink:href="#mc0dfd11da7" x="447.355235" y="404.12" style="stroke: #000000; stroke-width: 0.8"/>
      </g>
     </g>
     <g id="text_4">
      <!-- 1000 -->
      <g transform="translate(435.31461 418.771563) scale(0.1 -0.1)">
       <defs>
        <path id="DejaVuSansMono-31" d="M 844 531 
L 1825 531 
L 1825 4097 
L 769 3859 
L 769 4434 
L 1819 4666 
L 2450 4666 
L 2450 531 
L 3419 531 
L 3419 0 
L 844 0 
L 844 531 
z
" transform="scale(0.015625)"/>
       </defs>
       <use xlink:href="#DejaVuSansMono-31"/>
       <use xlink:href="#DejaVuSansMono-30" x="60.205078"/>
       <use xlink:href="#DejaVuSansMono-30" x="120.410156"/>
       <use xlink:href="#DejaVuSansMono-30" x="180.615234"/>
      </g>
     </g>
    </g>
    <g id="xtick_5">
     <g id="line2d_5">
      <g>
       <use xlink:href="#mc0dfd11da7" x="549.73787" y="404.12" style="stroke: #000000; stroke-width: 0.8"/>
      </g>
     </g>
     <g id="text_5">
      <!-- 1250 -->
      <g transform="translate(537.697245 418.771563) scale(0.1 -0.1)">
       <use xlink:href="#DejaVuSansMono-31"/>
       <use xlink:href="#DejaVuSansMono-32" x="60.205078"/>
       <use xlink:href="#DejaVuSansMono-35" x="120.410156"/>
       <use xlink:href="#DejaVuSansMono-30" x="180.615234"/>
      </g>
     </g>
    </g>
    <g id="xtick_6">
     <g id="line2d_6">
      <g>
       <use xlink:href="#mc0dfd11da7" x="652.120505" y="404.12" style="stroke: #000000; stroke-width: 0.8"/>
      </g>
     </g>
     <g id="text_6">
      <!-- 1500 -->
      <g transform="translate(640.07988 418.771563) scale(0.1 -0.1)">
       <use xlink:href="#DejaVuSansMono-31"/>
       <use xlink:href="#DejaVuSansMono-35" x="60.205078"/>
       <use xlink:href="#DejaVuSansMono-30" x="120.410156"/>
       <use xlink:href="#DejaVuSansMono-30" x="180.615234"/>
      </g>
     </g>
    </g>
    <g id="xtick_7">
     <g id="line2d_7">
      <g>
       <use xlink:href="#mc0dfd11da7" x="754.50314" y="404.12" style="stroke: #000000; stroke-width: 0.8"/>
      </g>
     </g>
     <g id="text_7">
      <!-- 1750 -->
      <g transform="translate(742.462515 418.771563) scale(0.1 -0.1)">
       <use xlink:href="#DejaVuSansMono-31"/>
       <use xlink:href="#DejaVuSansMono-37" x="60.205078"/>
       <use xlink:href="#DejaVuSansMono-35" x="120.410156"/>
       <use xlink:href="#DejaVuSansMono-30" x="180.615234"/>
      </g>
     </g>
    </g>
   </g>
   <g id="matplotlib.axis_2">
    <g id="ytick_1">
     <g id="line2d_8">
      <defs>
       <path id="m1349ea7267" d="M 0 0 
L -3.5 0 
" style="stroke: #000000; stroke-width: 0.8"/>
      </defs>
      <g>
       <use xlink:href="#m1349ea7267" x="41.92" y="353.299758" style="stroke: #000000; stroke-width: 0.8"/>
      </g>
     </g>
     <g id="text_8">
      <!-- 0.02 -->
      <g transform="translate(10.83875 357.125539) scale(0.1 -0.1)">
       <defs>
        <path id="DejaVuSansMono-2e" d="M 1528 953 
L 2316 953 
L 2316 0 
L 1528 0 
L 1528 953 
z
" transform="scale(0.015625)"/>
       </defs>
       <use xlink:href="#DejaVuSansMono-30"/>
       <use xlink:href="#DejaVuSansMono-2e" x="60.205078"/>
       <use xlink:href="#DejaVuSansMono-30" x="120.410156"/>
       <use xlink:href="#DejaVuSansMono-32" x="180.615234"/>
      </g>
     </g>
    </g>
    <g id="ytick_2">
     <g id="line2d_9">
      <g>
       <use xlink:href="#m1349ea7267" x="41.92" y="280.272491" style="stroke: #000000; stroke-width: 0.8"/>
      </g>
     </g>
     <g id="text_9">
      <!-- 0.04 -->
      <g transform="translate(10.83875 284.098272) scale(0.1 -0.1)">
       <defs>
        <path id="DejaVuSansMono-34" d="M 2297 4091 
L 825 1625 
L 2297 1625 
L 2297 4091 
z
M 2194 4666 
L 2925 4666 
L 2925 1625 
L 3547 1625 
L 3547 1113 
L 2925 1113 
L 2925 0 
L 2297 0 
L 2297 1113 
L 319 1113 
L 319 1709 
L 2194 4666 
z
" transform="scale(0.015625)"/>
       </defs>
       <use xlink:href="#DejaVuSansMono-30"/>
       <use xlink:href="#DejaVuSansMono-2e" x="60.205078"/>
       <use xlink:href="#DejaVuSansMono-30" x="120.410156"/>
       <use xlink:href="#DejaVuSansMono-34" x="180.615234"/>
      </g>
     </g>
    </g>
    <g id="ytick_3">
     <g id="line2d_10">
      <g>
       <use xlink:href="#m1349ea7267" x="41.92" y="207.245224" style="stroke: #000000; stroke-width: 0.8"/>
      </g>
     </g>
     <g id="text_10">
      <!-- 0.06 -->
      <g transform="translate(10.83875 211.071005) scale(0.1 -0.1)">
       <defs>
        <path id="DejaVuSansMono-36" d="M 3097 4563 
L 3097 3981 
Q 2900 4097 2678 4158 
Q 2456 4219 2216 4219 
Q 1616 4219 1306 3767 
Q 997 3316 997 2438 
Q 1147 2750 1412 2917 
Q 1678 3084 2022 3084 
Q 2697 3084 3067 2670 
Q 3438 2256 3438 1497 
Q 3438 741 3056 325 
Q 2675 -91 1984 -91 
Q 1172 -91 794 492 
Q 416 1075 416 2328 
Q 416 3509 870 4129 
Q 1325 4750 2188 4750 
Q 2419 4750 2650 4701 
Q 2881 4653 3097 4563 
z
M 1972 2591 
Q 1569 2591 1337 2300 
Q 1106 2009 1106 1497 
Q 1106 984 1337 693 
Q 1569 403 1972 403 
Q 2391 403 2603 679 
Q 2816 956 2816 1497 
Q 2816 2041 2603 2316 
Q 2391 2591 1972 2591 
z
" transform="scale(0.015625)"/>
       </defs>
       <use xlink:href="#DejaVuSansMono-30"/>
       <use xlink:href="#DejaVuSansMono-2e" x="60.205078"/>
       <use xlink:href="#DejaVuSansMono-30" x="120.410156"/>
       <use xlink:href="#DejaVuSansMono-36" x="180.615234"/>
      </g>
     </g>
    </g>
    <g id="ytick_4">
     <g id="line2d_11">
      <g>
       <use xlink:href="#m1349ea7267" x="41.92" y="134.217957" style="stroke: #000000; stroke-width: 0.8"/>
      </g>
     </g>
     <g id="text_11">
      <!-- 0.08 -->
      <g transform="translate(10.83875 138.043738) scale(0.1 -0.1)">
       <defs>
        <path id="DejaVuSansMono-38" d="M 1925 2216 
Q 1503 2216 1273 1980 
Q 1044 1744 1044 1313 
Q 1044 881 1276 642 
Q 1509 403 1925 403 
Q 2350 403 2579 639 
Q 2809 875 2809 1313 
Q 2809 1741 2576 1978 
Q 2344 2216 1925 2216 
z
M 1375 2478 
Q 972 2581 745 2862 
Q 519 3144 519 3541 
Q 519 4097 897 4423 
Q 1275 4750 1925 4750 
Q 2578 4750 2956 4423 
Q 3334 4097 3334 3541 
Q 3334 3144 3107 2862 
Q 2881 2581 2478 2478 
Q 2947 2375 3195 2062 
Q 3444 1750 3444 1253 
Q 3444 622 3041 265 
Q 2638 -91 1925 -91 
Q 1213 -91 811 264 
Q 409 619 409 1247 
Q 409 1747 657 2061 
Q 906 2375 1375 2478 
z
M 1147 3481 
Q 1147 3106 1347 2909 
Q 1547 2713 1925 2713 
Q 2306 2713 2506 2909 
Q 2706 3106 2706 3481 
Q 2706 3863 2507 4063 
Q 2309 4263 1925 4263 
Q 1547 4263 1347 4061 
Q 1147 3859 1147 3481 
z
" transform="scale(0.015625)"/>
       </defs>
       <use xlink:href="#DejaVuSansMono-30"/>
       <use xlink:href="#DejaVuSansMono-2e" x="60.205078"/>
       <use xlink:href="#DejaVuSansMono-30" x="120.410156"/>
       <use xlink:href="#DejaVuSansMono-38" x="180.615234"/>
      </g>
     </g>
    </g>
    <g id="ytick_5">
     <g id="line2d_12">
      <g>
       <use xlink:href="#m1349ea7267" x="41.92" y="61.19069" style="stroke: #000000; stroke-width: 0.8"/>
      </g>
     </g>
     <g id="text_12">
      <!-- 0.10 -->
      <g transform="translate(10.83875 65.016471) scale(0.1 -0.1)">
       <use xlink:href="#DejaVuSansMono-30"/>
       <use xlink:href="#DejaVuSansMono-2e" x="60.205078"/>
       <use xlink:href="#DejaVuSansMono-31" x="120.410156"/>
       <use xlink:href="#DejaVuSansMono-30" x="180.615234"/>
      </g>
     </g>
    </g>
   </g>
   <g id="line2d_13">
    <path d="M 41.510469 56.663496 
L 41.92 58.168244 
L 42.329531 49.164666 
L 42.739061 50.763773 
L 43.148592 70.945104 
L 43.558122 82.443012 
L 43.967653 102.345826 
L 44.377183 107.391681 
L 44.786714 95.163991 
L 45.196244 103.813464 
L 45.605775 117.802516 
L 46.015305 115.984693 
L 46.424836 137.853623 
L 46.834366 136.880919 
L 47.243897 107.787287 
L 47.653428 101.049401 
L 48.062958 84.795227 
L 48.472489 84.140922 
L 48.882019 97.038519 
L 49.29155 54.15317 
L 49.70108 47.316553 
L 50.110611 30.125724 
L 50.520141 37.24529 
L 50.929672 28.678182 
L 51.339202 63.792035 
L 51.748733 63.06394 
L 52.158264 85.890432 
L 52.567794 87.412716 
L 52.977325 87.921929 
L 53.386855 131.372259 
L 53.796386 135.451517 
L 54.205916 151.926728 
L 54.615447 134.457781 
L 55.024977 142.688176 
L 55.434508 139.310229 
L 55.844038 141.184211 
L 56.253569 124.977844 
L 56.663099 127.179834 
L 57.07263 127.800974 
L 57.482161 123.037763 
L 57.891691 127.824256 
L 58.301222 129.504238 
L 58.710752 143.875071 
L 59.529813 141.884141 
L 59.939344 132.204032 
L 60.348874 146.508502 
L 60.758405 145.332475 
L 61.577466 151.239562 
L 61.986996 145.203355 
L 62.396527 113.775537 
L 62.806058 110.810369 
L 63.215588 92.68912 
L 63.625119 92.770993 
L 64.034649 105.594144 
L 65.263241 82.347423 
L 65.672771 85.919059 
L 66.082302 51.747536 
L 66.491832 78.504925 
L 66.901363 80.069885 
L 67.310893 99.17993 
L 67.720424 98.529921 
L 68.539485 108.04953 
L 68.949016 105.288088 
L 69.358546 110.288519 
L 69.768077 92.198531 
L 70.177607 130.476887 
L 70.996668 144.947051 
L 71.406199 153.737308 
L 71.815729 155.022758 
L 72.22526 105.359877 
L 72.634791 107.806386 
L 73.044321 104.35367 
L 73.453852 107.01892 
L 73.863382 122.736773 
L 74.272913 119.717701 
L 74.682443 112.051599 
L 75.091974 109.794667 
L 75.911035 60.150776 
L 76.320565 111.329692 
L 76.730096 107.737437 
L 77.139626 100.416101 
L 77.549157 95.791257 
L 77.958688 88.343805 
L 78.368218 92.380458 
L 78.777749 101.584455 
L 79.187279 104.162117 
L 79.59681 120.800613 
L 80.00634 151.981183 
L 80.415871 149.639935 
L 80.825401 152.55743 
L 81.234932 170.495822 
L 81.644462 176.037058 
L 82.053993 154.66687 
L 82.463523 155.361471 
L 82.873054 147.251845 
L 83.282585 136.023578 
L 83.692115 139.867409 
L 84.101646 138.860354 
L 84.511176 139.76109 
L 84.920707 135.776951 
L 85.330237 128.679668 
L 85.739768 128.831325 
L 86.149298 159.300757 
L 86.558829 147.025926 
L 86.968359 146.593881 
L 87.37789 157.732462 
L 87.78742 153.653321 
L 88.196951 154.577443 
L 88.606482 128.173338 
L 89.016012 131.019823 
L 89.425543 140.279507 
L 89.835073 140.587715 
L 90.244604 140.206664 
L 90.654134 152.782257 
L 91.063665 156.360188 
L 91.473195 154.528492 
L 91.882726 130.999118 
L 92.292256 130.654437 
L 92.701787 159.070951 
L 93.520848 127.446151 
L 93.930379 126.099923 
L 94.339909 126.889028 
L 94.74944 126.928937 
L 95.15897 119.231468 
L 95.568501 108.664849 
L 95.978031 128.576722 
L 96.387562 119.925364 
L 96.797092 120.419732 
L 97.616153 159.273383 
L 98.025684 155.68519 
L 98.435215 138.047449 
L 98.844745 136.774113 
L 99.663806 161.231904 
L 100.073337 167.327961 
L 100.482867 171.227385 
L 100.892398 151.763389 
L 101.301928 148.111307 
L 101.711459 142.051084 
L 102.120989 146.812012 
L 102.53052 164.382779 
L 102.94005 166.469013 
L 103.349581 160.444792 
L 103.759112 161.07908 
L 104.168642 162.764427 
L 104.578173 167.365968 
L 104.987703 186.647137 
L 105.397234 182.391788 
L 105.806764 187.69022 
L 106.216295 187.836422 
L 106.625825 181.801273 
L 107.035356 181.591524 
L 107.444886 187.145613 
L 107.854417 187.484759 
L 108.263948 188.878085 
L 108.673478 183.552783 
L 109.083009 172.105251 
L 109.492539 155.898048 
L 109.90207 148.290766 
L 110.3116 137.855872 
L 110.721131 142.661043 
L 111.540192 137.598659 
L 111.949722 137.905654 
L 112.359253 137.488275 
L 112.768783 141.45378 
L 113.178314 153.720832 
L 113.587845 169.798311 
L 114.406906 185.48547 
L 114.816436 185.764689 
L 115.225967 189.865586 
L 115.635497 191.259477 
L 116.045028 190.501174 
L 116.454558 190.673621 
L 116.864089 192.574208 
L 117.273619 189.39428 
L 117.68315 195.176775 
L 118.09268 188.323736 
L 118.502211 172.513835 
L 118.911742 172.933624 
L 119.321272 172.247398 
L 119.730803 173.933293 
L 120.140333 174.399288 
L 120.549864 171.917116 
L 120.959394 165.438678 
L 121.368925 168.130404 
L 121.778455 169.224142 
L 122.187986 175.020014 
L 122.597516 193.483415 
L 123.007047 186.059598 
L 123.416577 185.059013 
L 123.826108 181.883366 
L 124.235639 180.660093 
L 124.645169 180.571245 
L 125.0547 187.651449 
L 125.46423 187.798003 
L 125.873761 184.108945 
L 126.283291 182.889559 
L 126.692822 182.023789 
L 127.102352 187.779343 
L 127.511883 189.816113 
L 128.330944 191.594864 
L 128.740475 194.512736 
L 129.150005 193.739848 
L 129.559536 169.968047 
L 130.378597 174.160603 
L 130.788127 166.384572 
L 131.197658 167.064824 
L 131.607188 166.694437 
L 132.016719 168.612803 
L 132.426249 158.822882 
L 132.83578 159.19481 
L 133.24531 152.86625 
L 133.654841 177.059881 
L 134.064372 179.683276 
L 134.473902 178.527239 
L 134.883433 186.493614 
L 135.702494 184.375047 
L 136.112024 183.985382 
L 136.521555 191.656183 
L 136.931085 190.740927 
L 137.340616 196.297356 
L 137.750146 180.159277 
L 138.159677 180.856138 
L 138.569207 182.844309 
L 138.978738 183.652307 
L 139.388269 186.133214 
L 139.797799 185.985618 
L 140.20733 186.355847 
L 140.61686 189.121085 
L 141.026391 189.649298 
L 141.435921 177.586453 
L 141.845452 192.875061 
L 142.254982 190.533301 
L 142.664513 190.71498 
L 143.074043 190.541368 
L 143.483574 189.825335 
L 143.893104 188.407101 
L 144.302635 188.273602 
L 144.712166 183.809733 
L 145.121696 182.173654 
L 145.531227 194.129599 
L 145.940757 190.754868 
L 146.350288 193.493829 
L 146.759818 191.629404 
L 147.169349 188.984882 
L 147.98841 190.735784 
L 148.39794 188.571238 
L 148.807471 192.218621 
L 149.217002 194.298214 
L 149.626532 195.254286 
L 150.036063 194.993423 
L 150.445593 188.47913 
L 151.264654 190.116667 
L 151.674185 186.369563 
L 152.493246 189.736642 
L 152.902776 188.107702 
L 153.312307 188.037924 
L 153.721837 188.257876 
L 154.131368 192.14993 
L 154.540899 198.522006 
L 154.950429 196.367064 
L 155.35996 198.405948 
L 155.76949 202.09175 
L 156.179021 200.581159 
L 156.588551 201.0887 
L 156.998082 203.282993 
L 157.407612 199.742084 
L 157.817143 199.801646 
L 158.226673 198.969401 
L 158.636204 198.958081 
L 159.045734 202.331415 
L 159.455265 198.512618 
L 159.864796 199.153724 
L 160.274326 200.49064 
L 160.683857 200.573352 
L 161.093387 198.299518 
L 161.502918 200.658951 
L 161.912448 200.707274 
L 162.321979 201.740028 
L 162.731509 200.423729 
L 163.14104 197.523978 
L 163.55057 199.30363 
L 163.960101 198.543836 
L 164.369631 198.875176 
L 164.779162 198.726761 
L 165.188693 201.188743 
L 165.598223 202.006847 
L 166.007754 201.595875 
L 166.417284 201.00081 
L 166.826815 201.550078 
L 167.236345 203.979702 
L 167.645876 204.062317 
L 168.055406 204.566395 
L 168.464937 201.490455 
L 168.874467 201.144922 
L 169.693529 200.787221 
L 171.741181 204.555945 
L 172.150712 203.812022 
L 172.560242 206.411159 
L 172.969773 205.696772 
L 173.379303 205.695974 
L 173.788834 205.53318 
L 174.198364 205.037218 
L 175.017426 204.510121 
L 175.836487 204.317142 
L 176.246017 205.142679 
L 176.655548 204.979974 
L 177.065078 202.793724 
L 178.29367 204.116599 
L 178.7032 203.123491 
L 179.112731 203.653108 
L 179.522261 203.043617 
L 179.931792 203.47404 
L 180.341323 203.693973 
L 180.750853 204.322155 
L 181.160384 207.563466 
L 181.569914 206.353844 
L 181.979445 205.586278 
L 182.388975 205.266218 
L 182.798506 205.407113 
L 183.208036 205.24407 
L 183.617567 205.22691 
L 184.027097 205.045966 
L 184.436628 204.248587 
L 184.846159 204.347589 
L 185.255689 204.176166 
L 185.66522 205.148003 
L 186.07475 204.96662 
L 186.484281 205.231041 
L 186.893811 205.751488 
L 187.303342 205.670651 
L 187.712872 206.028193 
L 188.122403 206.836769 
L 188.531933 207.37583 
L 188.941464 207.18337 
L 189.350994 206.677707 
L 190.170056 206.883693 
L 190.579586 205.69817 
L 190.989117 205.652272 
L 191.808178 206.101115 
L 192.217708 206.465829 
L 192.627239 206.383229 
L 193.036769 205.075275 
L 193.4463 204.724272 
L 193.85583 203.96348 
L 194.265361 204.306037 
L 194.674891 205.501389 
L 195.084422 205.978732 
L 195.493953 205.796269 
L 195.903483 205.786096 
L 196.313014 205.924235 
L 196.722544 205.109807 
L 197.132075 206.637785 
L 197.541605 206.466046 
L 198.360666 208.119885 
L 198.770197 207.977074 
L 199.589258 208.382278 
L 199.998788 207.946326 
L 200.408319 207.941626 
L 200.81785 208.289789 
L 201.22738 208.261689 
L 201.636911 209.402932 
L 202.046441 207.37252 
L 202.455972 207.275952 
L 203.275033 206.339014 
L 203.684563 206.334634 
L 204.094094 205.439365 
L 204.503624 205.118993 
L 204.913155 205.774963 
L 205.322686 206.03777 
L 205.732216 205.179571 
L 206.141747 207.227333 
L 206.551277 207.276173 
L 207.370338 208.472879 
L 207.779869 207.767158 
L 208.189399 209.206293 
L 209.00846 209.085432 
L 209.417991 208.098274 
L 209.827521 209.00387 
L 210.237052 208.973509 
L 211.056113 209.110038 
L 211.465644 209.071375 
L 211.875174 209.715611 
L 212.284705 209.579881 
L 212.694235 209.231598 
L 213.103766 209.53085 
L 213.513296 210.352481 
L 213.922827 209.776051 
L 214.741888 209.536675 
L 215.151418 208.886063 
L 215.97048 208.416269 
L 216.38001 205.02978 
L 216.789541 205.724468 
L 217.199071 205.143669 
L 218.018132 205.611348 
L 218.837193 206.166146 
L 219.246724 206.840678 
L 220.065785 207.292146 
L 220.475315 209.672326 
L 220.884846 209.005692 
L 221.294377 209.382192 
L 221.703907 208.61758 
L 222.113438 209.114086 
L 222.932499 208.422699 
L 223.342029 208.028518 
L 224.16109 207.688789 
L 224.570621 208.616468 
L 224.980151 209.075109 
L 225.389682 209.070889 
L 225.799213 209.532601 
L 226.618274 209.012498 
L 227.437335 209.544848 
L 227.846865 209.99077 
L 228.256396 210.184283 
L 228.665926 209.885308 
L 229.075457 209.747355 
L 229.484987 209.749117 
L 231.12311 210.432626 
L 232.351701 209.967095 
L 233.170762 210.341513 
L 233.580293 210.318654 
L 233.989823 210.558164 
L 235.218415 210.635198 
L 235.627945 210.387062 
L 236.037476 210.78146 
L 236.447007 210.16131 
L 236.856537 210.516532 
L 237.266068 209.646529 
L 237.675598 209.546481 
L 238.085129 209.15295 
L 238.90419 209.073656 
L 239.31372 209.201127 
L 239.723251 209.629756 
L 240.132781 209.333972 
L 240.542312 210.237406 
L 240.951843 210.240666 
L 241.361373 210.899697 
L 241.770904 210.621519 
L 242.180434 210.555435 
L 242.589965 210.371457 
L 242.999495 210.593199 
L 243.409026 210.612387 
L 243.818556 210.842093 
L 244.228087 210.821811 
L 245.047148 210.502655 
L 245.456678 210.375669 
L 246.68527 211.487603 
L 247.094801 211.420249 
L 247.504331 210.954347 
L 247.913862 210.732968 
L 248.323392 210.667315 
L 248.732923 210.738107 
L 249.551984 211.37118 
L 249.961514 211.285992 
L 250.371045 210.958895 
L 250.780575 210.225177 
L 251.190106 210.139901 
L 252.009167 210.467868 
L 252.828228 210.388924 
L 253.237759 210.116298 
L 254.05682 210.061285 
L 254.46635 210.203511 
L 254.875881 210.923356 
L 255.285411 210.811646 
L 255.694942 210.901794 
L 256.104472 210.807625 
L 256.514003 210.91205 
L 256.923534 210.884126 
L 257.333064 210.473326 
L 258.561656 210.687499 
L 259.380717 210.423505 
L 260.199778 210.52516 
L 260.609308 210.456771 
L 261.018839 210.167691 
L 261.42837 210.470608 
L 261.8379 210.287303 
L 262.656961 210.291049 
L 263.066492 210.266615 
L 263.476022 210.518432 
L 263.885553 210.478616 
L 264.295083 209.984346 
L 265.114144 210.728557 
L 265.933205 211.090426 
L 266.342736 211.086014 
L 266.752267 211.270387 
L 267.571328 211.309187 
L 267.980858 211.187184 
L 268.390389 211.610062 
L 268.799919 211.080467 
L 269.20945 211.177732 
L 270.028511 210.916385 
L 270.438041 210.920578 
L 271.666633 210.553294 
L 272.076164 210.662834 
L 272.485694 210.545139 
L 273.714286 211.219565 
L 274.123816 211.309414 
L 274.533347 211.281823 
L 276.580999 211.822028 
L 277.809591 211.220609 
L 278.219122 211.508455 
L 278.628652 211.560734 
L 279.038183 211.779526 
L 279.447713 211.844565 
L 280.266774 211.702539 
L 282.723958 212.021615 
L 283.133488 211.905565 
L 283.543019 212.094502 
L 283.952549 212.501318 
L 284.36208 212.715113 
L 284.77161 212.644857 
L 285.181141 213.419128 
L 285.590671 213.369275 
L 286.000202 213.444642 
L 286.409732 212.919673 
L 286.819263 213.054741 
L 287.228794 213.502814 
L 287.638324 213.262129 
L 288.457385 213.253402 
L 288.866916 213.720271 
L 289.276446 212.962512 
L 289.685977 213.161842 
L 290.095507 212.974118 
L 290.505038 213.326693 
L 290.914568 213.471871 
L 291.324099 212.84039 
L 291.733629 213.137142 
L 292.14316 213.114635 
L 292.552691 212.633466 
L 292.962221 212.513352 
L 293.371752 212.630945 
L 293.781282 212.298166 
L 294.190813 212.499498 
L 295.009874 213.162467 
L 295.828935 213.349514 
L 296.238465 213.197728 
L 296.647996 213.391926 
L 297.467057 213.145122 
L 297.876588 213.43052 
L 298.695649 213.279842 
L 299.105179 212.91711 
L 299.92424 213.227849 
L 300.333771 212.947027 
L 301.152832 215.440823 
L 301.562362 216.266834 
L 302.381424 216.758555 
L 302.790954 216.869509 
L 303.610015 217.592933 
L 304.019546 217.658712 
L 304.429076 219.104425 
L 304.838607 219.146181 
L 305.248137 218.100787 
L 305.657668 217.526078 
L 306.067198 217.944293 
L 306.476729 220.28298 
L 307.29579 221.00371 
L 308.524382 224.553074 
L 308.933912 224.56497 
L 309.343443 226.146227 
L 310.162504 226.018647 
L 310.572034 225.544715 
L 310.981565 226.418849 
L 311.391095 228.202529 
L 312.210156 226.703674 
L 312.619687 227.081137 
L 313.029218 227.759366 
L 313.438748 228.168911 
L 313.848279 229.920356 
L 314.257809 232.894527 
L 314.66734 232.947745 
L 315.07687 235.469216 
L 315.486401 237.034511 
L 315.895931 240.887778 
L 316.714992 243.243963 
L 317.534054 245.800811 
L 317.943584 247.030063 
L 318.353115 245.698854 
L 318.762645 245.291882 
L 319.172176 243.950606 
L 319.581706 241.361047 
L 319.991237 241.465689 
L 320.400767 243.617776 
L 321.219828 243.239006 
L 321.629359 245.191136 
L 322.038889 245.658308 
L 322.44842 246.702753 
L 322.857951 246.892433 
L 323.267481 247.98595 
L 323.677012 251.985372 
L 324.086542 253.161179 
L 324.496073 253.774562 
L 324.905603 255.300535 
L 325.315134 257.732085 
L 325.724664 258.074553 
L 326.134195 261.110362 
L 326.543725 262.048698 
L 326.953256 265.438458 
L 327.362786 267.646313 
L 327.772317 267.874526 
L 328.181848 267.139724 
L 329.410439 272.777623 
L 329.81997 273.359859 
L 330.2295 273.390896 
L 330.639031 276.075973 
L 331.048561 274.613665 
L 331.458092 273.809315 
L 331.867622 275.201742 
L 332.277153 274.90772 
L 332.686683 275.104889 
L 333.096214 274.251229 
L 333.505745 273.954654 
L 333.915275 275.60437 
L 334.324806 275.51435 
L 334.734336 276.675699 
L 335.143867 278.219742 
L 335.553397 278.837567 
L 335.962928 277.18336 
L 336.372458 277.853406 
L 336.781989 277.545717 
L 337.191519 280.000925 
L 337.60105 278.313734 
L 338.010581 276.087873 
L 338.420111 277.961273 
L 338.829642 271.676805 
L 339.648703 277.649857 
L 340.058233 279.494133 
L 340.877294 284.937723 
L 341.286825 283.345633 
L 341.696355 285.942669 
L 342.105886 286.286179 
L 342.515416 283.217941 
L 342.924947 290.168076 
L 343.334478 290.189371 
L 343.744008 290.0517 
L 344.153539 290.674655 
L 344.563069 289.197587 
L 344.9726 288.740522 
L 345.38213 289.051273 
L 345.791661 285.957619 
L 346.201191 288.806038 
L 346.610722 288.028128 
L 347.020252 286.42016 
L 347.429783 286.872843 
L 348.248844 284.642422 
L 348.658375 287.751911 
L 349.067905 288.140551 
L 349.477436 289.682657 
L 349.886966 292.209064 
L 350.296497 291.875073 
L 350.706027 293.193638 
L 351.115558 289.385143 
L 351.525088 287.307516 
L 351.934619 289.333922 
L 352.344149 292.161702 
L 352.75368 288.065465 
L 353.982272 290.309358 
L 354.391802 290.649207 
L 354.801333 293.793565 
L 355.210863 299.915626 
L 355.620394 302.373255 
L 356.029924 301.238909 
L 356.439455 296.65467 
L 356.848985 298.832165 
L 357.258516 298.057287 
L 357.668046 296.56638 
L 358.077577 298.102397 
L 358.487108 297.768437 
L 358.896638 299.266169 
L 359.306169 299.054111 
L 359.715699 300.338456 
L 360.12523 303.109468 
L 360.53476 304.396487 
L 361.353821 309.198055 
L 361.763352 311.233364 
L 362.172882 312.430559 
L 362.582413 314.94104 
L 362.991943 315.690482 
L 363.401474 316.105826 
L 363.811005 316.252844 
L 364.220535 316.580871 
L 364.630066 319.579255 
L 365.039596 320.075272 
L 365.449127 320.248736 
L 365.858657 319.809102 
L 366.268188 319.882618 
L 366.677718 318.755511 
L 367.087249 310.95366 
L 367.496779 312.87385 
L 367.90631 313.724223 
L 368.31584 313.168962 
L 368.725371 314.655901 
L 369.134902 314.315315 
L 369.544432 313.346651 
L 369.953963 313.172716 
L 370.363493 313.777669 
L 370.773024 316.101994 
L 371.182554 325.097465 
L 371.592085 324.296016 
L 372.001615 324.920491 
L 372.411146 324.524992 
L 372.820676 324.971518 
L 373.230207 324.471554 
L 373.639738 326.772785 
L 374.049268 327.822388 
L 374.458799 329.23712 
L 374.868329 329.595227 
L 375.27786 328.719679 
L 375.68739 330.55747 
L 376.096921 329.112281 
L 376.506451 330.892035 
L 376.915982 330.406666 
L 377.325512 332.717802 
L 377.735043 331.968256 
L 378.144573 331.493527 
L 378.554104 326.11454 
L 378.963635 326.376906 
L 379.373165 327.38697 
L 379.782696 326.379315 
L 380.192226 328.46241 
L 380.601757 326.776269 
L 381.011287 328.078114 
L 381.420818 328.20136 
L 381.830348 329.651281 
L 382.239879 330.017963 
L 382.649409 334.155328 
L 383.46847 332.331514 
L 383.878001 333.923776 
L 384.697062 334.648146 
L 385.106593 334.754259 
L 385.516123 334.058204 
L 385.925654 327.881908 
L 386.335184 328.867306 
L 386.744715 327.050968 
L 387.563776 329.092047 
L 387.973306 327.377011 
L 388.382837 324.745743 
L 388.792367 324.115643 
L 389.201898 324.583628 
L 389.611429 323.189445 
L 390.020959 328.513964 
L 390.43049 325.347804 
L 390.84002 326.77596 
L 391.249551 326.217306 
L 391.659081 326.478277 
L 392.887673 331.289111 
L 393.297203 331.226398 
L 393.706734 332.377913 
L 394.116265 330.780843 
L 394.525795 334.973225 
L 395.344856 336.603177 
L 395.754387 332.317614 
L 396.163917 330.974281 
L 396.573448 331.442095 
L 396.982978 333.296525 
L 397.392509 332.602483 
L 397.802039 333.710196 
L 398.6211 335.022415 
L 399.030631 332.237955 
L 399.440162 330.534287 
L 399.849692 335.24009 
L 400.259223 337.372136 
L 400.668753 337.957159 
L 401.078284 334.638246 
L 401.487814 334.419143 
L 401.897345 334.034721 
L 402.306875 334.516173 
L 402.716406 333.268692 
L 403.125936 337.004167 
L 403.535467 338.63176 
L 403.944997 338.086684 
L 404.354528 334.54252 
L 404.764059 334.761509 
L 405.173589 337.672728 
L 405.58312 337.494686 
L 405.99265 335.823261 
L 406.402181 337.049728 
L 406.811711 336.238507 
L 407.630772 333.976613 
L 408.040303 334.921389 
L 408.449833 338.269912 
L 408.859364 336.779169 
L 409.268894 336.212615 
L 409.678425 333.408534 
L 410.087956 333.320523 
L 410.497486 332.517654 
L 411.726078 337.613019 
L 412.135608 337.61872 
L 412.545139 336.516305 
L 412.954669 337.052558 
L 413.3642 337.231834 
L 413.77373 340.405773 
L 414.183261 340.861706 
L 414.592792 340.622327 
L 415.002322 340.71545 
L 415.411853 339.818018 
L 415.821383 335.408093 
L 416.230914 333.852306 
L 417.049975 327.567621 
L 417.459505 328.775975 
L 417.869036 330.62604 
L 418.278566 331.101228 
L 418.688097 331.774953 
L 419.097627 330.651304 
L 419.507158 331.353788 
L 419.916689 334.989828 
L 420.326219 335.68605 
L 421.14528 342.771945 
L 421.554811 341.448247 
L 421.964341 340.548093 
L 422.373872 341.02112 
L 422.783402 340.255156 
L 423.192933 341.68509 
L 423.602463 342.369971 
L 424.011994 342.623877 
L 424.421524 343.080513 
L 424.831055 342.72964 
L 425.650116 344.416827 
L 426.059647 343.82618 
L 426.469177 344.417828 
L 426.878708 344.264379 
L 427.288238 344.871743 
L 427.697769 344.766421 
L 428.107299 344.210355 
L 428.51683 344.247166 
L 428.92636 345.213829 
L 429.335891 345.810888 
L 429.745422 345.563408 
L 430.564483 347.917863 
L 430.974013 347.661222 
L 431.383544 344.917559 
L 431.793074 344.171548 
L 432.612135 346.017249 
L 433.021666 345.651873 
L 433.431196 341.131383 
L 433.840727 341.487667 
L 434.659788 338.940543 
L 435.478849 342.32238 
L 435.88838 343.102998 
L 436.29791 343.556717 
L 436.707441 342.709088 
L 437.116971 340.30005 
L 437.526502 342.537811 
L 438.755093 344.364075 
L 439.164624 344.064577 
L 439.574154 344.150373 
L 439.983685 344.070934 
L 440.393216 345.408687 
L 440.802746 345.53067 
L 441.212277 347.559387 
L 442.031338 346.284978 
L 442.440868 346.388507 
L 442.850399 344.933161 
L 444.07899 346.812324 
L 444.488521 343.550297 
L 444.898051 345.12337 
L 445.307582 345.261206 
L 445.717113 348.929758 
L 446.126643 347.777434 
L 446.536174 348.363886 
L 446.945704 350.266242 
L 447.355235 350.028022 
L 447.764765 349.970723 
L 448.174296 348.282805 
L 448.583826 350.597052 
L 448.993357 348.613959 
L 449.402887 349.441667 
L 449.812418 346.886442 
L 450.221949 346.947768 
L 450.631479 347.28424 
L 451.45054 349.476983 
L 451.860071 349.827613 
L 452.269601 350.687064 
L 453.088662 351.628175 
L 453.498193 351.090357 
L 453.907723 349.168417 
L 454.317254 349.782577 
L 454.726784 349.689559 
L 455.136315 348.911517 
L 455.545846 347.833926 
L 455.955376 347.378455 
L 456.364907 347.66681 
L 456.774437 347.519896 
L 457.183968 348.190644 
L 457.593498 345.263414 
L 458.003029 348.252472 
L 458.412559 347.183513 
L 458.82209 346.940677 
L 459.23162 347.359271 
L 459.641151 346.88589 
L 460.050681 347.527839 
L 460.869743 348.130533 
L 461.279273 347.705155 
L 461.688804 351.800556 
L 462.098334 351.972921 
L 462.507865 353.273243 
L 462.917395 353.543723 
L 463.326926 353.196159 
L 463.736456 354.726749 
L 464.145987 354.108685 
L 464.555517 354.068597 
L 464.965048 353.462912 
L 465.374578 354.56413 
L 465.784109 354.737078 
L 466.19364 355.428372 
L 466.60317 353.739439 
L 467.012701 353.515127 
L 467.422231 352.932123 
L 467.831762 353.477976 
L 468.241292 354.600441 
L 468.650823 355.112137 
L 469.060353 355.877797 
L 469.469884 355.800714 
L 469.879414 345.739021 
L 470.288945 343.454044 
L 470.698476 345.805227 
L 471.108006 346.679188 
L 471.517537 346.024186 
L 471.927067 345.907347 
L 472.336598 345.414731 
L 473.155659 342.170216 
L 473.565189 342.558622 
L 473.97472 352.833329 
L 474.38425 355.673844 
L 474.793781 356.188047 
L 475.203311 355.579555 
L 475.612842 357.224124 
L 476.022373 356.688715 
L 476.431903 355.392481 
L 476.841434 357.041735 
L 477.250964 356.269452 
L 477.660495 353.70123 
L 478.479556 350.051278 
L 478.889086 349.564753 
L 479.298617 349.794449 
L 479.708147 348.613342 
L 480.117678 349.018736 
L 480.527208 350.867764 
L 480.936739 347.89522 
L 481.34627 348.120598 
L 481.7558 348.665984 
L 482.165331 350.469381 
L 482.574861 351.141675 
L 482.984392 349.586944 
L 483.393922 349.860864 
L 483.803453 345.531599 
L 484.212983 342.67043 
L 484.622514 342.300464 
L 485.032044 344.93685 
L 485.851106 346.234542 
L 486.260636 345.513553 
L 486.670167 346.628269 
L 487.079697 348.432062 
L 487.489228 349.044788 
L 487.898758 354.458704 
L 488.308289 356.621432 
L 489.12735 356.690264 
L 489.946411 358.879789 
L 490.355941 359.032095 
L 490.765472 359.491554 
L 491.175003 359.532238 
L 491.584533 359.312111 
L 491.994064 360.290207 
L 492.403594 360.481125 
L 492.813125 360.02419 
L 493.222655 355.761457 
L 493.632186 356.090846 
L 494.041716 355.860173 
L 494.451247 355.325517 
L 494.860777 354.342786 
L 495.270308 354.151415 
L 495.679838 354.310573 
L 496.089369 353.848641 
L 496.4989 349.832893 
L 496.90843 350.28715 
L 497.317961 353.311378 
L 497.727491 352.607736 
L 498.137022 351.436475 
L 498.546552 349.360255 
L 499.365613 348.372988 
L 500.184674 343.967314 
L 500.594205 347.544606 
L 501.003735 346.520655 
L 501.413266 347.665772 
L 501.822797 348.053775 
L 502.232327 346.29883 
L 502.641858 348.435223 
L 503.051388 348.440167 
L 503.460919 349.229463 
L 503.870449 349.74321 
L 504.27998 349.967416 
L 504.68951 349.309365 
L 505.099041 348.240957 
L 505.508571 347.875487 
L 505.918102 348.101162 
L 506.327633 349.504564 
L 506.737163 347.114256 
L 507.146694 346.725166 
L 507.556224 346.018441 
L 507.965755 347.099073 
L 508.375285 346.595993 
L 508.784816 347.1989 
L 509.194346 348.280625 
L 509.603877 343.433235 
L 510.013407 343.000979 
L 510.422938 344.145929 
L 510.832468 346.8835 
L 511.241999 347.831628 
L 512.06106 350.294286 
L 512.470591 352.702907 
L 512.880121 353.272843 
L 513.289652 355.222171 
L 513.699182 361.089987 
L 514.108713 361.378755 
L 514.518243 361.120143 
L 514.927774 361.291403 
L 516.156365 359.141066 
L 516.565896 355.959908 
L 516.975427 356.540696 
L 517.384957 356.169016 
L 517.794488 356.263967 
L 518.204018 354.816321 
L 518.613549 356.094673 
L 519.023079 356.149527 
L 519.43261 357.589903 
L 519.84214 358.198846 
L 520.251671 358.220133 
L 520.661201 362.350967 
L 521.070732 362.452759 
L 521.480262 362.892079 
L 521.889793 361.072875 
L 522.299324 363.271444 
L 522.708854 363.139097 
L 523.118385 362.317477 
L 523.527915 360.971274 
L 523.937446 360.808079 
L 524.346976 360.017637 
L 525.166037 358.001049 
L 525.575568 355.526043 
L 525.985098 358.303665 
L 526.80416 356.410899 
L 527.21369 356.085382 
L 527.623221 356.693171 
L 528.032751 356.393887 
L 528.442282 356.759953 
L 528.851812 357.339703 
L 529.261343 358.219488 
L 529.670873 360.150388 
L 530.080404 359.922674 
L 530.489934 360.505535 
L 530.899465 360.258519 
L 531.308995 362.332547 
L 532.128057 363.608178 
L 532.537587 364.234396 
L 532.947118 363.452479 
L 533.766179 359.71454 
L 534.175709 359.080021 
L 534.58524 358.883377 
L 534.99477 360.966159 
L 535.404301 361.30749 
L 535.813831 359.022175 
L 536.223362 360.326041 
L 536.632892 361.163987 
L 537.042423 362.665833 
L 537.451954 363.602661 
L 537.861484 366.258821 
L 538.271015 365.30585 
L 538.680545 365.537587 
L 539.090076 364.655148 
L 539.499606 364.295986 
L 539.909137 365.222155 
L 540.318667 364.577681 
L 541.137728 361.756931 
L 541.547259 362.467811 
L 541.95679 361.788373 
L 542.36632 362.022664 
L 542.775851 361.95548 
L 543.185381 361.758768 
L 543.594912 362.960491 
L 544.004442 365.042409 
L 544.413973 364.981422 
L 545.233034 366.839434 
L 545.642564 367.565225 
L 546.052095 367.892613 
L 546.871156 371.137096 
L 547.280687 370.895293 
L 547.690217 358.523249 
L 548.099748 358.717231 
L 548.509278 358.435952 
L 549.328339 359.70018 
L 549.73787 357.702396 
L 550.1474 357.779019 
L 550.556931 357.481644 
L 550.966461 357.46626 
L 551.375992 358.605656 
L 551.785522 370.008764 
L 552.195053 370.100663 
L 552.604584 369.611827 
L 553.014114 366.436671 
L 553.423645 365.632957 
L 553.833175 365.624445 
L 554.242706 365.337384 
L 554.652236 363.736672 
L 555.061767 363.251654 
L 555.471297 362.569719 
L 555.880828 359.011689 
L 556.290358 356.855264 
L 556.699889 358.102768 
L 557.109419 361.03117 
L 557.928481 357.713087 
L 558.338011 353.289864 
L 558.747542 354.144169 
L 559.566603 351.495233 
L 559.976133 354.65443 
L 560.385664 355.552701 
L 560.795194 356.163962 
L 561.204725 356.382998 
L 561.614255 358.373918 
L 562.433317 366.951453 
L 562.842847 366.498945 
L 563.252378 366.989866 
L 563.661908 368.176182 
L 564.071439 368.697316 
L 564.480969 369.895478 
L 564.8905 366.118269 
L 565.30003 365.981519 
L 565.709561 365.703825 
L 566.119091 365.213077 
L 566.938152 366.677368 
L 567.347683 367.727561 
L 567.757214 368.133411 
L 568.576275 365.957226 
L 568.985805 367.950652 
L 569.395336 367.273995 
L 569.804866 365.104277 
L 570.214397 364.546934 
L 571.033458 358.618554 
L 571.442988 358.359707 
L 571.852519 357.244347 
L 572.262049 357.880622 
L 572.67158 357.146192 
L 573.081111 357.957147 
L 573.490641 357.691716 
L 573.900172 359.702963 
L 574.309702 360.17839 
L 574.719233 363.28305 
L 575.128763 365.024186 
L 575.538294 363.226335 
L 575.947824 363.956824 
L 576.357355 363.902173 
L 576.766885 364.977425 
L 577.585946 365.424102 
L 577.995477 364.423689 
L 578.405008 364.003359 
L 578.814538 359.731493 
L 579.633599 360.116261 
L 580.04313 359.675872 
L 580.45266 358.171162 
L 580.862191 357.798571 
L 581.271721 356.556159 
L 581.681252 355.896482 
L 582.090782 356.690877 
L 582.500313 356.780971 
L 582.909844 359.049589 
L 583.319374 360.033724 
L 583.728905 361.670918 
L 584.138435 361.835266 
L 584.547966 359.759746 
L 584.957496 358.984034 
L 585.367027 359.47565 
L 585.776557 360.316161 
L 586.595618 359.588077 
L 587.005149 361.900528 
L 587.414679 361.234545 
L 587.82421 359.928318 
L 588.233741 356.90976 
L 588.643271 360.781363 
L 589.052802 362.129997 
L 589.462332 362.064036 
L 589.871863 361.745016 
L 590.281393 362.958016 
L 590.690924 363.118183 
L 591.100454 362.535687 
L 591.509985 362.318946 
L 591.919515 363.748842 
L 592.329046 366.176019 
L 592.738576 365.243927 
L 593.557638 364.901958 
L 593.967168 365.008036 
L 594.786229 364.462287 
L 595.60529 362.882772 
L 596.014821 363.251739 
L 596.833882 366.437361 
L 597.243412 366.588485 
L 597.652943 367.252692 
L 598.062473 367.684312 
L 598.472004 367.566803 
L 598.881535 368.556303 
L 599.291065 368.965486 
L 599.700596 370.666656 
L 600.519657 369.179468 
L 600.929187 368.854895 
L 601.338718 368.920045 
L 602.157779 369.497975 
L 602.567309 368.620632 
L 602.97684 368.391454 
L 603.386371 368.759267 
L 603.795901 367.478369 
L 604.205432 367.319866 
L 604.614962 367.765013 
L 605.024493 367.627878 
L 605.434023 366.093205 
L 606.253084 365.182932 
L 606.662615 365.580262 
L 607.072145 364.431651 
L 607.481676 364.343561 
L 607.891206 363.565461 
L 608.300737 365.069946 
L 608.710268 364.840216 
L 609.119798 362.433483 
L 609.529329 363.360296 
L 609.938859 363.68026 
L 610.34839 363.360191 
L 610.75792 364.183698 
L 611.167451 364.601569 
L 611.576981 365.348942 
L 611.986512 366.437881 
L 612.396042 363.921308 
L 612.805573 362.51916 
L 613.215103 365.7237 
L 613.624634 365.779077 
L 614.034165 364.398767 
L 614.443695 365.329521 
L 614.853226 365.224827 
L 615.262756 366.19479 
L 615.672287 366.296802 
L 616.081817 367.340341 
L 616.491348 367.743183 
L 616.900878 367.330762 
L 617.310409 360.230318 
L 617.719939 360.783762 
L 618.12947 361.86931 
L 618.539001 362.360812 
L 619.358062 360.375983 
L 619.767592 356.740275 
L 620.177123 356.526319 
L 620.586653 355.156318 
L 620.996184 355.770507 
L 621.405714 361.827856 
L 621.815245 361.232165 
L 622.224775 361.22018 
L 622.634306 359.519732 
L 623.453367 361.042872 
L 623.862898 364.454788 
L 624.272428 365.587073 
L 624.681959 368.830906 
L 625.091489 370.26201 
L 626.320081 370.952319 
L 626.729611 372.565988 
L 627.139142 372.282379 
L 627.548672 372.780551 
L 627.958203 373.686906 
L 628.367733 372.243075 
L 629.186795 371.251717 
L 630.005856 372.164201 
L 630.824917 370.977513 
L 631.234447 368.309402 
L 631.643978 368.185376 
L 632.053508 367.393561 
L 632.463039 367.654221 
L 632.872569 366.006222 
L 633.2821 365.64534 
L 633.69163 365.608405 
L 634.101161 364.824139 
L 634.510692 365.73405 
L 634.920222 365.83482 
L 635.329753 367.854206 
L 635.739283 367.963851 
L 636.148814 367.082806 
L 636.558344 365.55244 
L 636.967875 364.968861 
L 637.377405 364.907597 
L 637.786936 362.794821 
L 638.605997 363.029339 
L 639.015528 359.513816 
L 639.425058 361.072807 
L 639.834589 361.223139 
L 640.244119 362.200724 
L 641.06318 366.232246 
L 641.472711 367.245495 
L 641.882241 369.53455 
L 642.291772 370.324034 
L 642.701302 366.830617 
L 643.110833 370.061841 
L 643.520363 369.628908 
L 643.929894 369.382901 
L 644.339425 370.032465 
L 645.158486 367.6484 
L 646.387077 366.328662 
L 646.796608 369.912639 
L 647.206138 370.747229 
L 647.615669 370.588876 
L 648.025199 371.490857 
L 648.43473 371.22333 
L 648.84426 372.844252 
L 649.253791 373.573635 
L 649.663322 370.758697 
L 650.072852 371.14984 
L 650.482383 370.99635 
L 650.891913 371.011811 
L 651.301444 369.098345 
L 651.710974 369.229861 
L 652.120505 367.917181 
L 652.530035 365.065467 
L 652.939566 359.182081 
L 653.349096 360.509037 
L 653.758627 361.014427 
L 654.168157 359.348376 
L 654.577688 359.35134 
L 654.987219 358.279805 
L 655.396749 358.478045 
L 655.80628 357.685537 
L 656.21581 356.097986 
L 656.625341 357.063509 
L 657.034871 360.885296 
L 657.444402 359.39951 
L 657.853932 360.849806 
L 658.263463 361.849771 
L 658.672993 360.971322 
L 659.082524 358.814118 
L 659.492055 359.949902 
L 659.901585 358.893863 
L 661.130177 361.181727 
L 661.539707 361.572176 
L 661.949238 361.682123 
L 662.358768 361.337857 
L 662.768299 362.350612 
L 663.177829 362.884268 
L 663.58736 358.075841 
L 663.99689 358.022637 
L 664.406421 358.93691 
L 664.815952 359.336815 
L 665.225482 358.492906 
L 665.635013 357.35748 
L 666.044543 357.155583 
L 666.454074 356.090233 
L 666.863604 353.72434 
L 667.273135 354.198203 
L 667.682665 357.835036 
L 668.092196 358.331379 
L 668.501726 357.204897 
L 668.911257 356.691316 
L 669.320787 356.664139 
L 669.730318 357.486671 
L 670.139849 357.587454 
L 670.549379 358.187894 
L 670.95891 357.800333 
L 671.36844 358.265664 
L 671.777971 355.583346 
L 672.187501 353.910389 
L 672.597032 353.58377 
L 673.006562 353.84285 
L 673.416093 353.801642 
L 673.825623 350.999321 
L 674.235154 352.103679 
L 674.644685 352.642133 
L 675.054215 355.150181 
L 675.463746 354.871989 
L 676.282807 360.983457 
L 676.692337 362.516807 
L 677.101868 362.785029 
L 677.511398 363.338456 
L 677.920929 364.112884 
L 678.330459 363.256575 
L 678.73999 364.235536 
L 679.14952 363.969211 
L 679.559051 363.397202 
L 680.787643 362.555166 
L 681.197173 360.148395 
L 681.606704 361.654842 
L 682.016234 363.670803 
L 682.425765 364.143773 
L 682.835295 363.363402 
L 683.244826 364.694986 
L 683.654356 367.296346 
L 684.063887 368.074906 
L 684.473417 362.125423 
L 684.882948 362.033415 
L 685.292479 364.697317 
L 685.702009 363.259218 
L 686.11154 363.883338 
L 686.930601 366.330345 
L 687.749662 366.991817 
L 688.159192 368.219229 
L 688.568723 374.682389 
L 688.978253 375.193879 
L 689.387784 375.258888 
L 689.797314 376.01248 
L 691.025906 371.650092 
L 691.435437 371.165927 
L 691.844967 370.29379 
L 692.664028 365.595608 
L 693.073559 365.249432 
L 693.483089 365.555522 
L 693.89262 364.461511 
L 694.30215 366.720893 
L 694.711681 367.978941 
L 695.121212 366.94227 
L 695.530742 366.710266 
L 695.940273 367.664314 
L 696.349803 368.150805 
L 696.759334 369.328354 
L 697.168864 370.126802 
L 697.578395 369.738361 
L 697.987925 371.256612 
L 698.397456 370.995582 
L 698.806986 369.84312 
L 699.216517 370.765302 
L 699.626047 370.139842 
L 700.035578 368.663526 
L 700.445109 370.481048 
L 700.854639 371.286463 
L 701.26417 371.193244 
L 701.6737 371.535849 
L 702.083231 371.424347 
L 702.492761 371.190731 
L 702.902292 371.181872 
L 703.311822 372.425206 
L 703.721353 372.870661 
L 704.130883 373.976217 
L 704.540414 373.658377 
L 704.949944 372.780319 
L 705.359475 372.870509 
L 705.769006 371.898177 
L 706.588067 370.64675 
L 706.997597 370.671239 
L 707.407128 370.08824 
L 707.816658 370.483298 
L 708.226189 370.21808 
L 708.635719 370.388536 
L 709.04525 365.417671 
L 709.864311 362.971523 
L 710.273841 363.540933 
L 710.683372 363.857093 
L 711.092903 364.707156 
L 711.502433 364.56238 
L 711.911964 363.61519 
L 712.321494 363.724952 
L 712.731025 360.483476 
L 713.140555 365.640865 
L 713.550086 366.419743 
L 713.959616 368.180694 
L 714.369147 366.365906 
L 714.778677 367.553703 
L 715.188208 367.276433 
L 715.597739 367.728475 
L 716.007269 367.439716 
L 716.4168 367.346632 
L 716.82633 370.497613 
L 717.235861 371.451364 
L 717.645391 369.213005 
L 718.054922 370.049392 
L 718.464452 371.872854 
L 718.873983 370.04436 
L 719.283513 369.999306 
L 719.693044 369.785044 
L 720.102574 370.361834 
L 720.512105 370.743197 
L 720.921636 370.913242 
L 721.331166 370.134934 
L 721.740697 371.995616 
L 722.559758 371.837402 
L 722.969288 361.079539 
L 724.19788 362.244933 
L 724.60741 362.196209 
L 725.016941 361.774708 
L 725.426471 361.828703 
L 725.836002 362.881667 
L 726.245533 362.07239 
L 726.655063 363.100426 
L 727.064594 375.436016 
L 727.474124 376.324077 
L 727.883655 376.265172 
L 728.293185 376.920881 
L 728.702716 377.271977 
L 729.112246 378.085068 
L 729.521777 379.157685 
L 729.931307 379.320981 
L 730.340838 381.056697 
L 730.750369 380.794615 
L 731.159899 381.398645 
L 731.56943 380.818995 
L 731.97896 381.075689 
L 732.388491 379.348794 
L 732.798021 379.775129 
L 733.207552 378.463412 
L 733.617082 377.972522 
L 734.026613 377.947228 
L 734.436143 376.843745 
L 734.845674 377.055892 
L 735.255204 376.815135 
L 735.664735 377.013381 
L 736.074266 377.61751 
L 736.483796 377.109527 
L 736.893327 377.316964 
L 737.302857 378.439849 
L 737.712388 373.560736 
L 738.121918 374.138111 
L 738.531449 372.059311 
L 738.940979 372.183877 
L 739.35051 370.543838 
L 739.76004 370.544137 
L 740.169571 370.837788 
L 740.579101 372.612993 
L 741.398163 372.762137 
L 741.807693 378.269602 
L 742.217224 377.23535 
L 742.626754 380.103223 
L 743.036285 379.119856 
L 743.445815 380.471751 
L 743.855346 377.231335 
L 744.674407 377.405064 
L 745.083937 375.610249 
L 745.902998 375.078735 
L 746.312529 375.242916 
L 746.72206 374.899942 
L 747.541121 375.345248 
L 747.950651 379.14707 
L 748.360182 378.957344 
L 749.179243 381.71872 
L 749.588773 381.348439 
L 750.407834 381.176229 
L 750.817365 379.61867 
L 751.226896 379.708237 
L 751.636426 378.880663 
L 752.045957 379.15011 
L 752.455487 378.694942 
L 753.274548 375.170487 
L 754.50314 377.558078 
L 754.91267 377.943664 
L 755.322201 378.86112 
L 755.731731 380.116255 
L 756.141262 379.229604 
L 756.550793 379.503159 
L 757.369854 382.083973 
L 757.779384 382.867238 
L 758.188915 382.684352 
L 758.598445 383.441649 
L 759.007976 384.741499 
L 759.827037 383.969699 
L 760.236567 384.628379 
L 760.646098 383.804162 
L 761.055628 383.46873 
L 761.465159 383.91746 
L 761.87469 383.730853 
L 762.693751 382.275004 
L 763.103281 383.00797 
L 763.512812 382.384823 
L 763.922342 382.963609 
L 764.331873 383.17581 
L 764.741403 382.144619 
L 765.150934 381.614829 
L 765.969995 381.240311 
L 766.789056 381.899005 
L 767.198587 381.3981 
L 767.608117 381.626 
L 768.017648 381.522075 
L 768.427178 380.222822 
L 768.836709 382.307465 
L 769.246239 382.80375 
L 769.65577 382.888876 
L 770.0653 382.431138 
L 771.293892 382.122709 
L 771.703423 382.208418 
L 772.112953 381.267063 
L 772.522484 382.15981 
L 772.932014 380.232288 
L 773.341545 379.916898 
L 773.751075 378.615098 
L 774.979667 379.185718 
L 775.389197 378.860392 
L 775.798728 378.810735 
L 776.208258 380.052161 
L 777.02732 381.173893 
L 777.43685 382.438441 
L 777.846381 383.286381 
L 778.665442 384.329001 
L 779.074972 384.253652 
L 779.484503 382.780296 
L 779.894033 382.822351 
L 780.303564 381.172092 
L 780.713094 380.736218 
L 781.122625 382.133535 
L 781.532155 381.53044 
L 781.941686 380.622482 
L 782.351217 372.702055 
L 782.760747 370.137185 
L 783.170278 369.308435 
L 783.579808 371.448397 
L 783.989339 370.458352 
L 784.398869 372.13996 
L 785.21793 373.177104 
L 785.627461 373.327609 
L 786.036991 375.653594 
L 786.446522 383.763265 
L 786.856052 381.783538 
L 787.265583 382.372539 
L 787.675114 382.018614 
L 788.084644 378.133462 
L 788.494175 377.965302 
L 788.903705 375.82878 
L 789.313236 375.115591 
L 790.132297 373.306842 
L 790.541827 373.069772 
L 790.951358 373.871954 
L 791.360888 373.205555 
L 791.770419 371.083106 
L 792.17995 377.053231 
L 792.58948 377.215711 
L 792.999011 379.420691 
L 793.408541 378.494208 
L 793.818072 379.999675 
L 794.227602 379.825025 
L 794.637133 378.79019 
L 795.046663 381.231198 
L 795.456194 381.904363 
L 796.684785 379.693663 
L 797.094316 378.685062 
L 797.503847 379.670782 
L 797.913377 379.315112 
L 798.322908 379.644628 
L 798.732438 378.099886 
L 799.141969 378.677001 
L 799.551499 378.038409 
L 799.96103 379.478995 
L 800.37056 377.62184 
L 800.780091 370.774994 
L 801.189621 369.585624 
L 801.599152 369.138603 
L 802.008682 369.267664 
L 802.418213 368.649239 
L 802.827744 370.99243 
L 803.237274 371.69051 
L 803.646805 372.128897 
L 804.056335 372.270195 
L 804.465866 373.487343 
L 804.875396 381.107622 
L 805.694457 383.9037 
L 806.103988 383.975259 
L 806.923049 383.015813 
L 807.33258 383.254555 
L 807.74211 384.423907 
L 808.151641 386.241818 
L 808.561171 379.192186 
L 808.970702 379.595311 
L 809.380232 377.938061 
L 810.199293 376.36084 
L 810.608824 376.505036 
L 811.018354 376.948919 
L 811.837415 375.877441 
L 812.246946 373.584593 
L 812.656477 381.408692 
L 813.066007 380.961728 
L 813.475538 381.772565 
L 813.885068 380.926402 
L 814.294599 382.104072 
L 814.704129 383.695111 
L 815.11366 384.003557 
L 815.52319 383.977771 
L 815.932721 383.039773 
L 816.342251 385.124824 
L 816.751782 377.513404 
L 817.161312 376.304043 
L 817.570843 376.052736 
L 817.980374 375.958659 
L 818.389904 374.983794 
L 818.799435 374.418979 
L 819.208965 373.216283 
L 819.618496 373.126452 
L 820.028026 374.086929 
L 820.437557 372.119939 
L 820.847087 378.915095 
L 821.256618 379.355092 
L 822.075679 381.876835 
L 822.485209 381.973469 
L 822.89474 380.060263 
L 823.304271 380.9968 
L 823.713801 380.583134 
L 824.123332 379.054861 
L 824.942393 379.989542 
L 825.351923 380.1165 
L 825.761454 379.486502 
L 826.170984 378.480433 
L 826.580515 378.270738 
L 826.990045 379.490035 
L 827.809107 379.091786 
L 828.218637 379.429545 
L 828.628168 379.223199 
L 829.037698 378.482799 
L 829.447229 378.454759 
L 829.856759 378.169748 
L 830.67582 374.665705 
L 831.085351 372.682638 
L 831.904412 370.398893 
L 832.313942 367.951868 
L 833.133004 368.589583 
L 833.542534 368.057955 
L 833.952065 365.544803 
L 834.361595 367.628467 
L 834.771126 368.387482 
L 835.180656 370.335407 
L 835.590187 370.154808 
L 835.999717 371.550328 
L 836.409248 374.954606 
L 837.228309 374.629144 
L 837.637839 374.368766 
L 838.04737 376.484954 
L 838.456901 376.94259 
L 838.866431 378.366966 
L 839.275962 379.201801 
L 839.685492 381.252334 
L 840.095023 382.197622 
L 840.504553 381.88307 
L 840.914084 380.110621 
L 841.323614 380.611149 
L 842.142675 381.97645 
L 842.552206 381.85701 
L 843.371267 379.036325 
L 843.780798 378.553592 
L 844.599859 375.892091 
L 845.009389 375.875795 
L 845.82845 376.871503 
L 846.237981 376.477914 
L 846.647511 375.197873 
L 847.057042 375.600778 
L 847.466572 376.703443 
L 847.876103 376.833349 
L 848.285634 373.110642 
L 848.695164 375.133208 
L 849.104695 376.307431 
L 849.514225 375.005362 
L 849.923756 374.797496 
L 850.333286 375.692449 
L 851.152347 378.55826 
L 851.561878 375.743317 
L 851.971408 376.047055 
L 852.380939 380.490609 
L 852.790469 380.43891 
L 852.790469 380.43891 
" clip-path="url(#pc3916b6ada)" style="fill: none; stroke-dasharray: 7.4,3.2; stroke-dashoffset: 0; stroke: #000000; stroke-width: 2"/>
   </g>
   <g id="patch_3">
    <path d="M 41.92 404.12 
L 41.92 10.8 
" style="fill: none; stroke: #000000; stroke-width: 0.8; stroke-linejoin: miter; stroke-linecap: square"/>
   </g>
   <g id="patch_4">
    <path d="M 853.2 404.12 
L 853.2 10.8 
" style="fill: none; stroke: #000000; stroke-width: 0.8; stroke-linejoin: miter; stroke-linecap: square"/>
   </g>
   <g id="patch_5">
    <path d="M 41.92 404.12 
L 853.2 404.12 
" style="fill: none; stroke: #000000; stroke-width: 0.8; stroke-linejoin: miter; stroke-linecap: square"/>
   </g>
   <g id="patch_6">
    <path d="M 41.92 10.8 
L 853.2 10.8 
" style="fill: none; stroke: #000000; stroke-width: 0.8; stroke-linejoin: miter; stroke-linecap: square"/>
   </g>
  </g>
 </g>
 <defs>
  <clipPath id="pc3916b6ada">
   <rect x="41.92" y="10.8" width="811.28" height="393.32"/>
  </clipPath>
 </defs>
</svg>
