<?xml version="1.0" encoding="utf-8" standalone="no"?>
<!DOCTYPE svg PUBLIC "-//W3C//DTD SVG 1.1//EN"
  "http://www.w3.org/Graphics/SVG/1.1/DTD/svg11.dtd">
<svg xmlns:xlink="http://www.w3.org/1999/xlink" width="864pt" height="432pt" viewBox="0 0 864 432" xmlns="http://www.w3.org/2000/svg" version="1.1">
 <metadata>
  <rdf:RDF xmlns:dc="http://purl.org/dc/elements/1.1/" xmlns:cc="http://creativecommons.org/ns#" xmlns:rdf="http://www.w3.org/1999/02/22-rdf-syntax-ns#">
   <cc:Work>
    <dc:type rdf:resource="http://purl.org/dc/dcmitype/StillImage"/>
    <dc:date>2024-09-19T08:37:04.155637</dc:date>
    <dc:format>image/svg+xml</dc:format>
    <dc:creator>
     <cc:Agent>
      <dc:title>Matplotlib v3.9.2, https://matplotlib.org/</dc:title>
     </cc:Agent>
    </dc:creator>
   </cc:Work>
  </rdf:RDF>
 </metadata>
 <defs>
  <style type="text/css">*{stroke-linejoin: round; stroke-linecap: butt}</style>
 </defs>
 <g id="figure_1">
  <g id="patch_1">
   <path d="M 0 432 
L 864 432 
L 864 0 
L 0 0 
z
" style="fill: #ffffff"/>
  </g>
  <g id="axes_1">
   <g id="patch_2">
    <path d="M 35.89 404.12 
L 853.2 404.12 
L 853.2 13.161545 
L 35.89 13.161545 
z
" style="fill: #ffffff"/>
   </g>
   <g id="matplotlib.axis_1">
    <g id="xtick_1">
     <g id="line2d_1">
      <defs>
       <path id="mc5416977b3" d="M 0 0 
L 0 3.5 
" style="stroke: #000000; stroke-width: 0.8"/>
      </defs>
      <g>
       <use xlink:href="#mc5416977b3" x="134.90787" y="404.12" style="stroke: #000000; stroke-width: 0.8"/>
      </g>
     </g>
     <g id="text_1">
      <!-- 250 -->
      <g transform="translate(125.877401 418.771563) scale(0.1 -0.1)">
       <defs>
        <path id="DejaVuSansMono-32" d="M 1166 531 
L 3309 531 
L 3309 0 
L 475 0 
L 475 531 
Q 1059 1147 1496 1619 
Q 1934 2091 2100 2284 
Q 2413 2666 2522 2902 
Q 2631 3138 2631 3384 
Q 2631 3775 2401 3997 
Q 2172 4219 1772 4219 
Q 1488 4219 1175 4116 
Q 863 4013 513 3803 
L 513 4441 
Q 834 4594 1145 4672 
Q 1456 4750 1759 4750 
Q 2444 4750 2861 4386 
Q 3278 4022 3278 3431 
Q 3278 3131 3139 2831 
Q 3000 2531 2688 2169 
Q 2513 1966 2180 1606 
Q 1847 1247 1166 531 
z
" transform="scale(0.015625)"/>
        <path id="DejaVuSansMono-35" d="M 647 4666 
L 3009 4666 
L 3009 4134 
L 1222 4134 
L 1222 2988 
Q 1356 3038 1492 3061 
Q 1628 3084 1766 3084 
Q 2491 3084 2916 2656 
Q 3341 2228 3341 1497 
Q 3341 759 2895 334 
Q 2450 -91 1678 -91 
Q 1306 -91 998 -41 
Q 691 9 447 109 
L 447 750 
Q 734 594 1025 517 
Q 1316 441 1619 441 
Q 2141 441 2423 716 
Q 2706 991 2706 1497 
Q 2706 1997 2414 2275 
Q 2122 2553 1600 2553 
Q 1347 2553 1106 2495 
Q 866 2438 647 2322 
L 647 4666 
z
" transform="scale(0.015625)"/>
        <path id="DejaVuSansMono-30" d="M 1509 2344 
Q 1509 2516 1629 2641 
Q 1750 2766 1919 2766 
Q 2094 2766 2219 2641 
Q 2344 2516 2344 2344 
Q 2344 2169 2220 2047 
Q 2097 1925 1919 1925 
Q 1744 1925 1626 2044 
Q 1509 2163 1509 2344 
z
M 1925 4250 
Q 1484 4250 1267 3775 
Q 1050 3300 1050 2328 
Q 1050 1359 1267 884 
Q 1484 409 1925 409 
Q 2369 409 2586 884 
Q 2803 1359 2803 2328 
Q 2803 3300 2586 3775 
Q 2369 4250 1925 4250 
z
M 1925 4750 
Q 2672 4750 3055 4137 
Q 3438 3525 3438 2328 
Q 3438 1134 3055 521 
Q 2672 -91 1925 -91 
Q 1178 -91 797 521 
Q 416 1134 416 2328 
Q 416 3525 797 4137 
Q 1178 4750 1925 4750 
z
" transform="scale(0.015625)"/>
       </defs>
       <use xlink:href="#DejaVuSansMono-32"/>
       <use xlink:href="#DejaVuSansMono-35" x="60.205078"/>
       <use xlink:href="#DejaVuSansMono-30" x="120.410156"/>
      </g>
     </g>
    </g>
    <g id="xtick_2">
     <g id="line2d_2">
      <g>
       <use xlink:href="#mc5416977b3" x="238.051484" y="404.12" style="stroke: #000000; stroke-width: 0.8"/>
      </g>
     </g>
     <g id="text_2">
      <!-- 500 -->
      <g transform="translate(229.021015 418.771563) scale(0.1 -0.1)">
       <use xlink:href="#DejaVuSansMono-35"/>
       <use xlink:href="#DejaVuSansMono-30" x="60.205078"/>
       <use xlink:href="#DejaVuSansMono-30" x="120.410156"/>
      </g>
     </g>
    </g>
    <g id="xtick_3">
     <g id="line2d_3">
      <g>
       <use xlink:href="#mc5416977b3" x="341.195098" y="404.12" style="stroke: #000000; stroke-width: 0.8"/>
      </g>
     </g>
     <g id="text_3">
      <!-- 750 -->
      <g transform="translate(332.16463 418.771563) scale(0.1 -0.1)">
       <defs>
        <path id="DejaVuSansMono-37" d="M 434 4666 
L 3372 4666 
L 3372 4397 
L 1703 0 
L 1044 0 
L 2669 4134 
L 434 4134 
L 434 4666 
z
" transform="scale(0.015625)"/>
       </defs>
       <use xlink:href="#DejaVuSansMono-37"/>
       <use xlink:href="#DejaVuSansMono-35" x="60.205078"/>
       <use xlink:href="#DejaVuSansMono-30" x="120.410156"/>
      </g>
     </g>
    </g>
    <g id="xtick_4">
     <g id="line2d_4">
      <g>
       <use xlink:href="#mc5416977b3" x="444.338713" y="404.12" style="stroke: #000000; stroke-width: 0.8"/>
      </g>
     </g>
     <g id="text_4">
      <!-- 1000 -->
      <g transform="translate(432.298088 418.771563) scale(0.1 -0.1)">
       <defs>
        <path id="DejaVuSansMono-31" d="M 844 531 
L 1825 531 
L 1825 4097 
L 769 3859 
L 769 4434 
L 1819 4666 
L 2450 4666 
L 2450 531 
L 3419 531 
L 3419 0 
L 844 0 
L 844 531 
z
" transform="scale(0.015625)"/>
       </defs>
       <use xlink:href="#DejaVuSansMono-31"/>
       <use xlink:href="#DejaVuSansMono-30" x="60.205078"/>
       <use xlink:href="#DejaVuSansMono-30" x="120.410156"/>
       <use xlink:href="#DejaVuSansMono-30" x="180.615234"/>
      </g>
     </g>
    </g>
    <g id="xtick_5">
     <g id="line2d_5">
      <g>
       <use xlink:href="#mc5416977b3" x="547.482327" y="404.12" style="stroke: #000000; stroke-width: 0.8"/>
      </g>
     </g>
     <g id="text_5">
      <!-- 1250 -->
      <g transform="translate(535.441702 418.771563) scale(0.1 -0.1)">
       <use xlink:href="#DejaVuSansMono-31"/>
       <use xlink:href="#DejaVuSansMono-32" x="60.205078"/>
       <use xlink:href="#DejaVuSansMono-35" x="120.410156"/>
       <use xlink:href="#DejaVuSansMono-30" x="180.615234"/>
      </g>
     </g>
    </g>
    <g id="xtick_6">
     <g id="line2d_6">
      <g>
       <use xlink:href="#mc5416977b3" x="650.625941" y="404.12" style="stroke: #000000; stroke-width: 0.8"/>
      </g>
     </g>
     <g id="text_6">
      <!-- 1500 -->
      <g transform="translate(638.585316 418.771563) scale(0.1 -0.1)">
       <use xlink:href="#DejaVuSansMono-31"/>
       <use xlink:href="#DejaVuSansMono-35" x="60.205078"/>
       <use xlink:href="#DejaVuSansMono-30" x="120.410156"/>
       <use xlink:href="#DejaVuSansMono-30" x="180.615234"/>
      </g>
     </g>
    </g>
    <g id="xtick_7">
     <g id="line2d_7">
      <g>
       <use xlink:href="#mc5416977b3" x="753.769556" y="404.12" style="stroke: #000000; stroke-width: 0.8"/>
      </g>
     </g>
     <g id="text_7">
      <!-- 1750 -->
      <g transform="translate(741.728931 418.771563) scale(0.1 -0.1)">
       <use xlink:href="#DejaVuSansMono-31"/>
       <use xlink:href="#DejaVuSansMono-37" x="60.205078"/>
       <use xlink:href="#DejaVuSansMono-35" x="120.410156"/>
       <use xlink:href="#DejaVuSansMono-30" x="180.615234"/>
      </g>
     </g>
    </g>
   </g>
   <g id="matplotlib.axis_2">
    <g id="ytick_1">
     <g id="line2d_8">
      <defs>
       <path id="mc41774fcad" d="M 0 0 
L -3.5 0 
" style="stroke: #000000; stroke-width: 0.8"/>
      </defs>
      <g>
       <use xlink:href="#mc41774fcad" x="35.89" y="386.349161" style="stroke: #000000; stroke-width: 0.8"/>
      </g>
     </g>
     <g id="text_8">
      <!-- 0.0 -->
      <g transform="translate(10.829063 390.174942) scale(0.1 -0.1)">
       <defs>
        <path id="DejaVuSansMono-2e" d="M 1528 953 
L 2316 953 
L 2316 0 
L 1528 0 
L 1528 953 
z
" transform="scale(0.015625)"/>
       </defs>
       <use xlink:href="#DejaVuSansMono-30"/>
       <use xlink:href="#DejaVuSansMono-2e" x="60.205078"/>
       <use xlink:href="#DejaVuSansMono-30" x="120.410156"/>
      </g>
     </g>
    </g>
    <g id="ytick_2">
     <g id="line2d_9">
      <g>
       <use xlink:href="#mc41774fcad" x="35.89" y="312.087377" style="stroke: #000000; stroke-width: 0.8"/>
      </g>
     </g>
     <g id="text_9">
      <!-- 0.2 -->
      <g transform="translate(10.829063 315.913158) scale(0.1 -0.1)">
       <use xlink:href="#DejaVuSansMono-30"/>
       <use xlink:href="#DejaVuSansMono-2e" x="60.205078"/>
       <use xlink:href="#DejaVuSansMono-32" x="120.410156"/>
      </g>
     </g>
    </g>
    <g id="ytick_3">
     <g id="line2d_10">
      <g>
       <use xlink:href="#mc41774fcad" x="35.89" y="237.825593" style="stroke: #000000; stroke-width: 0.8"/>
      </g>
     </g>
     <g id="text_10">
      <!-- 0.4 -->
      <g transform="translate(10.829063 241.651374) scale(0.1 -0.1)">
       <defs>
        <path id="DejaVuSansMono-34" d="M 2297 4091 
L 825 1625 
L 2297 1625 
L 2297 4091 
z
M 2194 4666 
L 2925 4666 
L 2925 1625 
L 3547 1625 
L 3547 1113 
L 2925 1113 
L 2925 0 
L 2297 0 
L 2297 1113 
L 319 1113 
L 319 1709 
L 2194 4666 
z
" transform="scale(0.015625)"/>
       </defs>
       <use xlink:href="#DejaVuSansMono-30"/>
       <use xlink:href="#DejaVuSansMono-2e" x="60.205078"/>
       <use xlink:href="#DejaVuSansMono-34" x="120.410156"/>
      </g>
     </g>
    </g>
    <g id="ytick_4">
     <g id="line2d_11">
      <g>
       <use xlink:href="#mc41774fcad" x="35.89" y="163.563809" style="stroke: #000000; stroke-width: 0.8"/>
      </g>
     </g>
     <g id="text_11">
      <!-- 0.6 -->
      <g transform="translate(10.829063 167.38959) scale(0.1 -0.1)">
       <defs>
        <path id="DejaVuSansMono-36" d="M 3097 4563 
L 3097 3981 
Q 2900 4097 2678 4158 
Q 2456 4219 2216 4219 
Q 1616 4219 1306 3767 
Q 997 3316 997 2438 
Q 1147 2750 1412 2917 
Q 1678 3084 2022 3084 
Q 2697 3084 3067 2670 
Q 3438 2256 3438 1497 
Q 3438 741 3056 325 
Q 2675 -91 1984 -91 
Q 1172 -91 794 492 
Q 416 1075 416 2328 
Q 416 3509 870 4129 
Q 1325 4750 2188 4750 
Q 2419 4750 2650 4701 
Q 2881 4653 3097 4563 
z
M 1972 2591 
Q 1569 2591 1337 2300 
Q 1106 2009 1106 1497 
Q 1106 984 1337 693 
Q 1569 403 1972 403 
Q 2391 403 2603 679 
Q 2816 956 2816 1497 
Q 2816 2041 2603 2316 
Q 2391 2591 1972 2591 
z
" transform="scale(0.015625)"/>
       </defs>
       <use xlink:href="#DejaVuSansMono-30"/>
       <use xlink:href="#DejaVuSansMono-2e" x="60.205078"/>
       <use xlink:href="#DejaVuSansMono-36" x="120.410156"/>
      </g>
     </g>
    </g>
    <g id="ytick_5">
     <g id="line2d_12">
      <g>
       <use xlink:href="#mc41774fcad" x="35.89" y="89.302025" style="stroke: #000000; stroke-width: 0.8"/>
      </g>
     </g>
     <g id="text_12">
      <!-- 0.8 -->
      <g transform="translate(10.829063 93.127806) scale(0.1 -0.1)">
       <defs>
        <path id="DejaVuSansMono-38" d="M 1925 2216 
Q 1503 2216 1273 1980 
Q 1044 1744 1044 1313 
Q 1044 881 1276 642 
Q 1509 403 1925 403 
Q 2350 403 2579 639 
Q 2809 875 2809 1313 
Q 2809 1741 2576 1978 
Q 2344 2216 1925 2216 
z
M 1375 2478 
Q 972 2581 745 2862 
Q 519 3144 519 3541 
Q 519 4097 897 4423 
Q 1275 4750 1925 4750 
Q 2578 4750 2956 4423 
Q 3334 4097 3334 3541 
Q 3334 3144 3107 2862 
Q 2881 2581 2478 2478 
Q 2947 2375 3195 2062 
Q 3444 1750 3444 1253 
Q 3444 622 3041 265 
Q 2638 -91 1925 -91 
Q 1213 -91 811 264 
Q 409 619 409 1247 
Q 409 1747 657 2061 
Q 906 2375 1375 2478 
z
M 1147 3481 
Q 1147 3106 1347 2909 
Q 1547 2713 1925 2713 
Q 2306 2713 2506 2909 
Q 2706 3106 2706 3481 
Q 2706 3863 2507 4063 
Q 2309 4263 1925 4263 
Q 1547 4263 1347 4061 
Q 1147 3859 1147 3481 
z
" transform="scale(0.015625)"/>
       </defs>
       <use xlink:href="#DejaVuSansMono-30"/>
       <use xlink:href="#DejaVuSansMono-2e" x="60.205078"/>
       <use xlink:href="#DejaVuSansMono-38" x="120.410156"/>
      </g>
     </g>
    </g>
    <g id="ytick_6">
     <g id="line2d_13">
      <g>
       <use xlink:href="#mc41774fcad" x="35.89" y="15.040241" style="stroke: #000000; stroke-width: 0.8"/>
      </g>
     </g>
     <g id="text_13">
      <!-- 1.0 -->
      <g transform="translate(10.829063 18.866022) scale(0.1 -0.1)">
       <use xlink:href="#DejaVuSansMono-31"/>
       <use xlink:href="#DejaVuSansMono-2e" x="60.205078"/>
       <use xlink:href="#DejaVuSansMono-30" x="120.410156"/>
      </g>
     </g>
    </g>
   </g>
   <g id="line2d_14">
    <path d="M 35.477426 317.21315 
L 35.89 322.451806 
L 36.302574 332.629011 
L 36.715149 322.441474 
L 37.127723 325.975691 
L 37.540298 319.050959 
L 37.952872 322.284702 
L 38.365447 322.719737 
L 38.778021 324.22474 
L 39.190596 328.331382 
L 39.60317 326.716996 
L 40.015745 323.462858 
L 40.428319 315.603034 
L 40.840893 314.74651 
L 41.253468 312.176494 
L 42.078617 304.282319 
L 43.31634 326.114339 
L 43.728915 316.836998 
L 44.554064 330.883243 
L 44.966638 341.927304 
L 45.379213 348.055914 
L 45.791787 348.400168 
L 46.204361 359.197093 
L 46.616936 360.728264 
L 47.02951 350.176321 
L 47.442085 348.81372 
L 47.854659 358.880317 
L 48.679808 340.423972 
L 49.092383 340.423972 
L 49.917532 338.112344 
L 50.74268 338.112344 
L 51.155255 345.23682 
L 51.567829 337.46562 
L 51.980404 338.290751 
L 52.392978 342.852847 
L 52.805553 353.674917 
L 53.218127 353.674917 
L 53.630702 349.73991 
L 54.043276 361.563714 
L 54.455851 358.934979 
L 54.868425 350.321543 
L 55.280999 346.529114 
L 55.693574 350.114622 
L 56.106148 347.618428 
L 56.518723 351.440725 
L 57.343872 351.440725 
L 57.756446 357.853451 
L 58.169021 357.853451 
L 58.581595 360.482187 
L 59.819319 379.367618 
L 60.231893 381.863812 
L 60.644467 381.863812 
L 61.469616 361.82661 
L 61.882191 363.094777 
L 62.294765 361.768673 
L 62.70734 361.768673 
L 63.119914 364.264868 
L 63.532489 354.404383 
L 63.945063 351.602051 
L 64.770212 334.530732 
L 65.595361 351.252675 
L 66.42051 333.34349 
L 66.833084 333.34349 
L 67.245659 322.557555 
L 67.658233 324.429722 
L 68.070808 323.719672 
L 68.483382 323.685703 
L 68.895957 321.954929 
L 69.721106 307.149755 
L 70.13368 316.320097 
L 70.546254 322.20965 
L 70.958829 311.52816 
L 71.371403 313.139562 
L 71.783978 315.228582 
L 72.196552 318.740963 
L 73.434276 344.911522 
L 73.84685 345.148907 
L 74.259425 345.148907 
L 74.671999 346.308847 
L 75.084573 350.639 
L 75.497148 359.813532 
L 75.909722 359.575495 
L 77.147446 330.023207 
L 77.56002 330.023207 
L 77.972595 340.571757 
L 78.385169 340.571757 
L 78.797744 344.308199 
L 79.210318 340.142322 
L 79.622892 329.198481 
L 80.035467 331.742507 
L 80.448041 340.255121 
L 80.860616 337.41347 
L 81.27319 339.027078 
L 82.098339 319.294218 
L 82.923488 319.294218 
L 83.336063 329.811432 
L 84.161212 338.311041 
L 84.98636 343.361672 
L 85.398935 348.761837 
L 85.811509 356.648983 
L 86.224084 356.801987 
L 86.636658 356.801987 
L 87.049233 351.644919 
L 87.461807 340.858984 
L 88.286956 330.398148 
L 88.699531 328.912912 
L 89.112105 330.346274 
L 89.524679 323.429378 
L 89.937254 313.42991 
L 90.762403 313.457261 
L 91.174977 314.870038 
L 91.587552 325.655973 
L 92.000126 333.213135 
L 92.412701 328.061356 
L 92.825275 329.546592 
L 93.23785 325.139477 
L 94.062998 345.961213 
L 94.475573 346.27043 
L 94.888147 346.27043 
L 95.300722 350.014721 
L 95.713296 350.014721 
L 96.125871 353.243494 
L 96.538445 364.107718 
L 96.95102 364.107718 
L 97.363594 375.090094 
L 97.776169 375.090094 
L 98.188743 373.092948 
L 98.601318 383.623958 
L 99.013892 383.623958 
L 99.426466 382.807895 
L 101.901913 382.807895 
L 102.314488 383.57884 
L 102.727062 383.57884 
L 103.139637 377.470728 
L 103.552211 367.500857 
L 103.964785 367.500857 
L 104.37736 356.714922 
L 104.789934 356.714922 
L 105.202509 354.888812 
L 106.027658 354.888812 
L 106.440232 356.84307 
L 106.852807 356.017939 
L 107.265381 362.126051 
L 107.677956 372.911986 
L 108.09053 362.071759 
L 108.503104 367.372448 
L 108.915679 358.362746 
L 109.328253 360.188856 
L 109.740828 360.188856 
L 110.565977 356.040439 
L 110.978551 349.980371 
L 111.8037 349.980371 
L 112.216275 350.238767 
L 112.628849 344.888664 
L 113.041424 353.898366 
L 113.453998 351.292689 
L 113.866572 351.292689 
L 114.279147 353.213253 
L 115.104296 344.768416 
L 115.51687 333.982481 
L 115.929445 333.982481 
L 116.342019 340.078702 
L 116.754594 350.91405 
L 117.167168 350.91405 
L 117.579743 342.76802 
L 118.404891 342.76802 
L 118.817466 345.676195 
L 119.642615 367.608929 
L 120.055189 366.81891 
L 120.467764 361.090866 
L 120.880338 361.090866 
L 121.292913 354.953529 
L 121.705487 357.652754 
L 122.530636 357.652754 
L 122.94321 361.155668 
L 123.355785 358.526932 
L 123.768359 358.526932 
L 124.180934 348.531016 
L 124.593508 358.744671 
L 125.006083 348.973385 
L 125.418657 344.324787 
L 125.831232 345.487001 
L 126.243806 345.487001 
L 126.656381 344.652599 
L 127.068955 334.007993 
L 127.48153 336.636728 
L 127.894104 325.719611 
L 128.306678 336.505546 
L 128.719253 336.505546 
L 129.131827 346.276832 
L 129.544402 349.592648 
L 129.956976 345.956117 
L 130.369551 345.956117 
L 130.782125 343.07743 
L 131.1947 353.722036 
L 131.607274 353.722036 
L 132.019849 364.639154 
L 132.432423 353.853219 
L 133.257572 353.853219 
L 133.670146 361.323338 
L 134.082721 371.850137 
L 134.495295 371.850137 
L 134.90787 375.563226 
L 135.733019 375.563226 
L 136.145593 364.828105 
L 136.558168 375.61404 
L 137.795891 375.61404 
L 138.208465 372.467354 
L 138.62104 372.467354 
L 139.033614 370.325187 
L 139.446189 370.325187 
L 139.858763 360.924962 
L 140.271338 371.660083 
L 141.096487 371.660083 
L 141.921636 353.24467 
L 142.33421 356.391355 
L 142.746784 356.391355 
L 143.159359 358.533522 
L 143.571933 358.533522 
L 143.984508 367.933748 
L 145.222231 367.933748 
L 145.634806 367.447861 
L 146.04738 366.467612 
L 149.347976 366.467612 
L 149.76055 365.126053 
L 150.173125 374.534787 
L 150.585699 374.534787 
L 150.998274 362.395841 
L 151.823423 362.395841 
L 152.235997 354.924382 
L 152.648571 354.924382 
L 153.061146 350.081222 
L 153.47372 350.081222 
L 153.886295 361.895597 
L 154.298869 361.895597 
L 154.711444 359.622276 
L 155.124018 371.761222 
L 155.949167 371.761222 
L 156.361742 374.214993 
L 156.774316 374.214993 
L 157.18689 379.058153 
L 157.599465 373.117211 
L 158.424614 373.117211 
L 158.837188 375.390531 
L 159.249763 375.390531 
L 160.074912 370.311153 
L 160.487486 375.328841 
L 160.900061 365.848613 
L 161.312635 360.3662 
L 161.725209 364.791596 
L 162.137784 364.791596 
L 162.550358 356.540286 
L 162.962933 351.016681 
L 163.375507 340.488072 
L 164.200656 345.567449 
L 164.613231 345.567449 
L 165.025805 354.222546 
L 165.43838 359.70496 
L 165.850954 361.220507 
L 166.263529 361.220507 
L 166.676103 369.471817 
L 167.088677 374.995421 
L 167.501252 385.52403 
L 167.913826 379.444118 
L 168.738975 379.444118 
L 169.15155 380.269249 
L 169.564124 380.269249 
L 169.976699 378.167501 
L 171.214422 378.167501 
L 171.626996 375.797444 
L 172.039571 371.93005 
L 173.277294 371.93005 
L 173.689869 369.369299 
L 174.102443 371.471047 
L 175.340167 371.471047 
L 175.752741 373.841104 
L 176.165315 383.78841 
L 176.990464 383.78841 
L 177.403039 381.48572 
L 177.815613 380.103367 
L 179.878486 380.103367 
L 180.29106 379.259483 
L 181.116209 379.259483 
L 181.528783 381.562173 
L 181.941358 385.505277 
L 184.00423 385.505277 
L 184.416805 386.349161 
L 186.892251 386.349161 
L 187.304826 385.505277 
L 188.955124 385.505277 
L 189.367698 384.755158 
L 191.017996 384.755158 
L 191.43057 385.599042 
L 192.255719 385.599042 
L 192.668294 381.262588 
L 193.080868 381.262588 
L 193.493443 382.012707 
L 196.381464 382.012707 
L 196.794038 386.349161 
L 197.206613 374.192427 
L 198.856911 374.192427 
L 199.269485 367.916783 
L 200.919783 367.916783 
L 201.332357 380.073517 
L 202.982655 380.073517 
L 203.39523 386.349161 
L 211.234144 386.349161 
L 211.646719 375.758784 
L 215.359889 375.758784 
L 215.772463 386.349161 
L 231.450293 386.349161 
L 231.862867 382.74422 
L 235.576037 382.74422 
L 235.988612 386.349161 
L 299.937653 386.349161 
L 300.350227 380.848288 
L 302.000525 380.848288 
L 302.413099 367.995288 
L 304.063397 367.995288 
L 304.475972 365.24485 
L 304.888546 365.24485 
L 305.301121 364.419719 
L 306.12627 364.419719 
L 306.538844 377.27272 
L 306.951418 377.27272 
L 307.363993 361.128853 
L 307.776567 355.82444 
L 308.189142 337.760762 
L 308.601716 346.012072 
L 309.014291 346.012072 
L 309.426865 333.406881 
L 310.252014 298.422825 
L 310.664589 298.422825 
L 311.077163 278.800808 
L 311.489738 278.742103 
L 311.902312 263.610135 
L 312.314886 267.351898 
L 312.727461 247.313003 
L 313.140035 247.313003 
L 313.55261 242.086424 
L 313.965184 257.754639 
L 314.377759 262.630864 
L 314.790333 262.630864 
L 315.615482 298.455452 
L 316.028057 296.646015 
L 316.440631 291.321956 
L 316.853205 311.360851 
L 317.26578 311.360851 
L 317.678354 309.131625 
L 318.090929 290.25674 
L 318.503503 303.861954 
L 318.916078 303.861954 
L 319.741227 263.258605 
L 320.153801 264.023744 
L 320.566376 283.669719 
L 321.391524 243.484787 
L 321.804099 241.494061 
L 322.216673 238.03621 
L 322.629248 226.657388 
L 323.041822 204.884299 
L 323.454397 203.824859 
L 323.866971 200.591399 
L 324.279546 199.269707 
L 324.69212 174.62985 
L 325.517269 168.728431 
L 325.929844 170.322945 
L 326.342418 169.817111 
L 326.754992 156.868797 
L 327.167567 160.358589 
L 327.580141 162.702951 
L 327.992716 161.682875 
L 328.40529 162.643547 
L 328.817865 163.972529 
L 329.230439 163.776336 
L 329.643014 165.702503 
L 330.055588 163.059498 
L 330.468163 171.760338 
L 330.880737 170.989741 
L 331.293311 179.080244 
L 331.705886 177.122664 
L 332.11846 199.378134 
L 332.531035 199.466382 
L 332.943609 198.534775 
L 333.356184 195.54146 
L 333.768758 195.447894 
L 334.181333 208.662404 
L 334.593907 197.056636 
L 335.006482 222.154368 
L 335.419056 207.474796 
L 335.83163 202.162039 
L 336.244205 178.409776 
L 336.656779 172.994284 
L 337.069354 171.641687 
L 337.481928 191.532198 
L 337.894503 187.536948 
L 338.307077 176.092333 
L 338.719652 202.670233 
L 339.132226 176.578253 
L 339.544801 175.321473 
L 339.957375 175.545593 
L 340.36995 175.480125 
L 340.782524 178.993097 
L 341.195098 179.191289 
L 341.607673 160.117384 
L 342.020247 184.981821 
L 342.432822 180.230826 
L 342.845396 158.864277 
L 343.257971 160.511752 
L 343.670545 160.070166 
L 344.08312 165.402171 
L 344.495694 164.937871 
L 344.908269 161.141619 
L 345.320843 160.767294 
L 345.733417 161.217673 
L 346.145992 136.727083 
L 346.558566 137.80334 
L 346.971141 133.718669 
L 347.383715 144.276824 
L 347.79629 149.780383 
L 348.208864 145.708548 
L 348.621439 144.152743 
L 349.034013 171.604966 
L 349.859162 168.6747 
L 350.271736 169.79206 
L 350.684311 170.150814 
L 351.096885 169.334766 
L 351.50946 157.602422 
L 351.922034 152.12353 
L 352.334609 154.052771 
L 352.747183 181.504994 
L 353.159758 155.546231 
L 353.572332 156.540703 
L 353.984907 165.481087 
L 354.397481 162.669527 
L 354.810056 161.81178 
L 355.22263 160.090938 
L 355.635204 158.956937 
L 356.047779 157.346877 
L 356.460353 152.457249 
L 357.285502 148.177452 
L 357.698077 146.25238 
L 358.110651 135.481925 
L 358.523226 134.902315 
L 358.9358 132.497036 
L 359.348375 132.329021 
L 359.760949 135.171672 
L 360.173523 136.01312 
L 360.586098 135.418686 
L 360.998672 108.520813 
L 361.411247 107.253878 
L 361.823821 106.763197 
L 362.236396 108.541363 
L 362.64897 106.661931 
L 363.061545 107.717 
L 363.474119 120.900992 
L 363.886694 116.355583 
L 364.299268 114.611299 
L 365.124417 115.114395 
L 365.536991 114.932322 
L 365.949566 116.371365 
L 366.36214 114.454281 
L 366.774715 114.071933 
L 367.187289 111.973083 
L 367.599864 97.313665 
L 368.425013 95.341446 
L 368.837587 95.47456 
L 369.250162 94.667367 
L 369.662736 94.540864 
L 370.07531 92.253002 
L 370.487885 91.395918 
L 370.900459 89.732279 
L 371.313034 89.130699 
L 371.725608 88.749714 
L 372.138183 87.536904 
L 372.550757 87.444079 
L 372.963332 86.256625 
L 373.375906 87.063818 
L 373.788481 86.520245 
L 374.201055 86.288063 
L 374.613629 86.991521 
L 375.026204 117.681338 
L 375.438778 117.833998 
L 375.851353 117.399203 
L 376.263927 119.025162 
L 376.676502 118.439133 
L 377.089076 119.909663 
L 377.501651 118.883083 
L 378.3268 117.862838 
L 378.739374 116.629656 
L 379.151949 87.691966 
L 379.564523 87.90659 
L 379.977097 88.93621 
L 380.389672 88.083346 
L 380.802246 88.304192 
L 381.214821 86.750019 
L 382.03997 89.452371 
L 382.452544 119.899702 
L 382.865119 121.255248 
L 383.277693 121.902734 
L 383.690268 122.05744 
L 384.515416 121.189619 
L 384.927991 121.362481 
L 385.340565 122.034759 
L 385.75314 120.287636 
L 386.165714 119.639709 
L 386.578289 89.061327 
L 386.990863 108.887361 
L 387.403438 106.266567 
L 387.816012 107.126938 
L 388.228587 106.831389 
L 388.641161 105.950059 
L 389.053735 106.165356 
L 389.46631 104.752577 
L 389.878884 104.904055 
L 390.291459 104.443965 
L 390.704033 104.422015 
L 391.116608 82.490319 
L 391.529182 82.554116 
L 391.941757 80.323543 
L 392.354331 98.446078 
L 392.766906 99.639811 
L 393.17948 99.405863 
L 394.417203 97.638947 
L 394.829778 97.638947 
L 395.242352 97.125706 
L 395.654927 104.887784 
L 396.067501 105.735996 
L 396.480076 86.718694 
L 396.89265 84.865345 
L 397.305225 84.302754 
L 397.717799 87.273317 
L 398.130374 88.186944 
L 398.542948 88.086687 
L 398.955522 88.657664 
L 399.368097 89.640251 
L 399.780671 82.278043 
L 400.60582 81.652531 
L 401.018395 85.812857 
L 401.430969 86.000391 
L 401.843544 83.677539 
L 402.668693 85.847772 
L 403.493841 83.764767 
L 403.906416 84.214727 
L 404.31899 83.977074 
L 404.731565 84.280994 
L 405.144139 81.192269 
L 405.556714 81.829869 
L 405.969288 81.928742 
L 406.381863 85.417069 
L 406.794437 87.143636 
L 407.207012 86.55337 
L 407.619586 86.389338 
L 408.032161 84.67074 
L 408.444735 84.981406 
L 409.682458 82.932489 
L 410.095033 82.987828 
L 410.507607 77.962596 
L 411.745331 80.29299 
L 412.157905 80.904547 
L 412.57048 85.633035 
L 412.983054 87.918913 
L 413.395628 94.342825 
L 413.808203 96.013715 
L 414.633352 94.233474 
L 415.045926 90.492463 
L 415.458501 90.352922 
L 415.871075 94.971492 
L 416.28365 95.321025 
L 416.696224 89.837894 
L 417.108799 88.337856 
L 417.521373 82.078275 
L 417.933948 79.195743 
L 418.346522 79.545482 
L 418.759096 80.326183 
L 419.171671 80.845976 
L 419.584245 81.886311 
L 419.99682 76.563303 
L 420.409394 75.491704 
L 420.821969 75.679818 
L 421.234543 75.331455 
L 421.647118 75.842455 
L 422.059692 76.128802 
L 422.472267 75.991758 
L 422.884841 75.463586 
L 423.297415 74.065867 
L 423.70999 73.640677 
L 424.122564 73.964283 
L 424.535139 74.074791 
L 424.947713 75.455333 
L 425.360288 76.115319 
L 426.185437 75.094922 
L 427.010586 73.380102 
L 427.42316 73.611673 
L 427.835734 72.679493 
L 428.248309 72.996528 
L 428.660883 73.643791 
L 429.486032 70.928778 
L 429.898607 70.764447 
L 430.311181 76.124404 
L 431.13633 77.527065 
L 431.548905 77.98089 
L 431.961479 77.213153 
L 432.374054 76.813777 
L 432.786628 76.112736 
L 433.199202 75.789131 
L 433.611777 75.96497 
L 434.024351 76.967734 
L 434.436926 73.234998 
L 434.8495 72.318027 
L 435.262075 72.003993 
L 435.674649 71.550168 
L 436.499798 71.880814 
L 436.912373 71.41605 
L 437.324947 70.748291 
L 438.150096 71.183443 
L 438.56267 75.544336 
L 439.387819 76.209273 
L 439.800394 76.79313 
L 440.212968 77.069657 
L 440.625543 76.056011 
L 441.038117 76.464042 
L 441.450692 77.772442 
L 442.27584 74.614471 
L 442.688415 67.817054 
L 443.100989 68.180094 
L 443.513564 66.820337 
L 443.926138 66.820337 
L 444.338713 65.742599 
L 444.751287 66.079973 
L 445.163862 66.802041 
L 445.576436 66.324038 
L 445.989011 67.932579 
L 446.401585 67.599598 
L 446.81416 69.911103 
L 447.226734 68.879457 
L 447.639308 69.461601 
L 448.051883 68.139528 
L 448.464457 68.543616 
L 448.877032 68.658097 
L 449.289606 67.817496 
L 449.702181 67.324474 
L 450.114755 67.089701 
L 450.52733 67.306782 
L 450.939904 67.239274 
L 451.352479 68.357949 
L 452.177627 67.407895 
L 453.415351 68.140219 
L 453.827925 68.306273 
L 454.2405 67.895986 
L 454.653074 70.095876 
L 455.065649 67.85188 
L 455.478223 67.146951 
L 455.890798 67.287437 
L 456.715946 68.23294 
L 457.128521 66.912813 
L 457.95367 65.159353 
L 458.366244 65.56964 
L 458.778819 63.545586 
L 459.191393 63.561729 
L 460.016542 64.393064 
L 460.429117 64.755845 
L 460.841691 63.580855 
L 461.254266 64.512179 
L 461.66684 64.967966 
L 462.079414 65.649934 
L 462.491989 65.059579 
L 462.904563 64.123506 
L 463.317138 64.914556 
L 463.729712 65.967595 
L 464.142287 65.772041 
L 464.554861 66.105894 
L 464.967436 66.279106 
L 465.38001 65.855157 
L 465.792585 65.714671 
L 466.205159 64.591457 
L 466.617733 64.268095 
L 467.030308 80.454357 
L 467.442882 79.612959 
L 467.855457 76.942475 
L 468.268031 76.505431 
L 468.680606 76.505431 
L 469.09318 75.706586 
L 469.505755 75.599955 
L 469.918329 79.767864 
L 470.330904 80.72328 
L 470.743478 80.406138 
L 471.156052 64.11246 
L 471.568627 63.638606 
L 471.981201 64.197266 
L 472.393776 65.160249 
L 472.80635 64.062871 
L 473.218925 64.107407 
L 473.631499 64.370093 
L 474.044074 59.969397 
L 474.869223 62.847531 
L 475.281797 65.001894 
L 475.694372 65.913549 
L 476.106946 67.583891 
L 476.51952 66.744751 
L 476.932095 67.899125 
L 477.344669 67.768441 
L 477.757244 66.459754 
L 478.169818 67.361089 
L 478.582393 66.057448 
L 478.994967 65.493148 
L 479.407542 62.975579 
L 479.820116 63.195721 
L 480.232691 63.032013 
L 480.645265 63.203394 
L 481.057839 70.320919 
L 481.470414 72.468996 
L 481.882988 73.188534 
L 482.295563 72.830049 
L 482.708137 72.830049 
L 483.120712 73.203772 
L 483.533286 73.291859 
L 483.945861 72.259911 
L 484.77101 69.271308 
L 485.183584 60.536985 
L 485.596159 58.939147 
L 486.008733 58.238697 
L 486.421307 57.928636 
L 487.246456 55.907174 
L 487.659031 56.32673 
L 488.071605 55.82177 
L 488.48418 57.240022 
L 488.896754 57.709744 
L 489.309329 57.526912 
L 489.721903 57.892561 
L 490.547052 61.48566 
L 490.959626 60.719406 
L 491.784775 60.533001 
L 492.19735 61.573507 
L 492.609924 60.196758 
L 493.022499 60.468797 
L 493.435073 61.284858 
L 493.847648 61.753177 
L 494.260222 60.303885 
L 494.672797 63.167061 
L 495.085371 64.583886 
L 495.497945 65.168801 
L 497.148243 69.777412 
L 497.560818 70.537931 
L 497.973392 70.141762 
L 498.385967 72.088346 
L 498.798541 67.502238 
L 499.211116 66.7164 
L 499.62369 75.161984 
L 500.036265 74.855587 
L 500.448839 73.66816 
L 500.861413 71.962235 
L 501.273988 71.116999 
L 501.686562 70.931434 
L 502.099137 71.503198 
L 502.924286 70.119332 
L 503.33686 69.986243 
L 503.749435 61.591113 
L 504.162009 60.816978 
L 504.574584 60.985086 
L 504.987158 61.860615 
L 505.399732 62.13178 
L 505.812307 61.98944 
L 506.637456 60.949483 
L 507.05003 66.308349 
L 507.462605 65.074075 
L 507.875179 65.23227 
L 509.112903 65.064244 
L 509.938051 62.459905 
L 510.350626 62.476812 
L 510.7632 61.239114 
L 511.175775 55.701608 
L 511.588349 56.979279 
L 512.000924 56.510498 
L 512.413498 56.335173 
L 512.826073 57.011076 
L 513.238647 56.542837 
L 513.651222 58.206336 
L 514.063796 59.102122 
L 514.476371 58.681622 
L 514.888945 58.492625 
L 515.301519 57.838703 
L 515.714094 59.953256 
L 516.126668 59.351926 
L 516.539243 58.482668 
L 516.951817 56.854434 
L 518.602115 53.487507 
L 519.01469 54.130788 
L 519.427264 55.763114 
L 519.839838 52.75928 
L 520.252413 52.676759 
L 520.664987 53.693781 
L 521.077562 54.15378 
L 521.490136 53.851791 
L 521.902711 53.175454 
L 522.315285 54.403148 
L 522.72786 56.292808 
L 523.140434 57.179364 
L 523.553009 55.277643 
L 524.378157 57.373362 
L 524.790732 57.915881 
L 525.615881 59.830555 
L 526.028455 61.241301 
L 526.44103 60.373803 
L 526.853604 59.021552 
L 527.266179 58.898763 
L 527.678753 59.374597 
L 528.091328 59.541951 
L 528.503902 59.493097 
L 529.329051 55.820245 
L 529.741625 55.689997 
L 530.1542 54.205467 
L 530.566774 53.885187 
L 530.979349 54.499142 
L 531.391923 53.276211 
L 531.804498 53.588425 
L 532.629647 50.807033 
L 533.042221 51.543245 
L 533.454796 54.703838 
L 533.86737 53.442575 
L 534.279944 53.144188 
L 535.105093 51.47384 
L 535.517668 51.933005 
L 535.930242 51.333744 
L 536.755391 52.650152 
L 537.167966 51.946576 
L 537.58054 50.118098 
L 538.405689 52.205579 
L 538.818264 53.635167 
L 539.230838 52.560269 
L 539.643412 53.020319 
L 540.055987 54.522064 
L 540.468561 54.457678 
L 540.881136 55.462623 
L 541.29371 55.171455 
L 541.706285 53.95778 
L 542.531434 52.584083 
L 542.944008 50.887541 
L 543.356583 50.887541 
L 543.769157 50.160115 
L 544.181731 48.314623 
L 544.594306 47.55388 
L 545.00688 45.314819 
L 545.419455 66.033353 
L 545.832029 65.769346 
L 546.244604 66.30973 
L 546.657178 65.518952 
L 547.069753 65.785905 
L 547.894902 68.510976 
L 548.307476 67.745134 
L 548.72005 67.245714 
L 549.132625 67.321365 
L 549.545199 47.290621 
L 549.957774 47.479617 
L 550.370348 48.073965 
L 550.782923 54.743662 
L 551.195497 55.270041 
L 551.608072 55.615152 
L 552.020646 55.785 
L 552.433221 58.617063 
L 552.845795 59.148935 
L 553.25837 60.165366 
L 554.083518 63.744159 
L 554.496093 62.305928 
L 554.908667 55.471227 
L 555.321242 55.394499 
L 555.733816 55.668304 
L 556.146391 62.879598 
L 556.558965 60.65301 
L 557.384114 62.564854 
L 557.796689 62.065741 
L 558.209263 60.798113 
L 558.621837 60.376169 
L 559.034412 61.182125 
L 559.446986 59.978477 
L 559.859561 57.124165 
L 560.272135 48.006401 
L 560.68471 49.502694 
L 561.097284 50.166148 
L 561.922433 47.097207 
L 562.335008 46.466413 
L 562.747582 47.191855 
L 563.160156 46.742205 
L 563.985305 48.827867 
L 564.39788 49.174795 
L 565.223029 45.783896 
L 566.048178 44.902825 
L 566.460752 45.935036 
L 566.873327 45.374597 
L 567.285901 45.940673 
L 567.698476 47.126365 
L 568.11105 46.967225 
L 568.523624 47.994841 
L 568.936199 50.140628 
L 569.348773 50.274952 
L 569.761348 51.762683 
L 570.173922 52.645368 
L 570.586497 51.844845 
L 570.999071 52.523725 
L 571.411646 51.827985 
L 571.82422 50.873981 
L 572.236795 51.033122 
L 572.649369 49.561204 
L 573.061943 49.096688 
L 573.474518 49.64065 
L 574.299667 48.820171 
L 574.712241 48.78137 
L 575.124816 48.625277 
L 575.53739 49.049631 
L 575.949965 49.161691 
L 576.362539 49.769815 
L 576.775114 52.083717 
L 577.187688 51.33553 
L 578.012837 51.622419 
L 578.425411 53.459904 
L 579.25056 54.104409 
L 579.663135 55.002081 
L 580.075709 54.890021 
L 581.313433 53.079402 
L 581.726007 52.744721 
L 582.138582 52.969679 
L 582.551156 54.326098 
L 582.96373 54.51073 
L 583.376305 54.321942 
L 583.788879 53.57923 
L 584.201454 53.421988 
L 584.614028 53.610413 
L 585.026603 52.265091 
L 585.439177 52.421186 
L 585.851752 52.230263 
L 586.264326 53.881901 
L 586.676901 51.260797 
L 587.089475 50.121374 
L 587.914624 50.040861 
L 588.327198 49.606585 
L 589.152347 50.078586 
L 589.564922 50.734405 
L 589.977496 50.925329 
L 590.390071 48.388304 
L 590.802645 48.759626 
L 592.040369 49.39117 
L 592.452943 49.15888 
L 592.865517 48.73932 
L 593.278092 49.159019 
L 593.690666 49.743935 
L 594.103241 49.588975 
L 594.515815 49.200981 
L 594.92839 48.449947 
L 595.340964 49.022748 
L 595.753539 48.54431 
L 596.166113 48.576036 
L 596.578688 49.320616 
L 596.991262 49.700328 
L 597.403836 48.933063 
L 597.816411 47.463476 
L 598.228985 47.427512 
L 598.64156 47.198263 
L 599.054134 47.389186 
L 599.466709 46.423541 
L 599.879283 46.155887 
L 600.291858 45.018028 
L 600.704432 45.668723 
L 601.117007 45.668723 
L 601.942155 47.327901 
L 602.35473 46.542143 
L 602.767304 46.574033 
L 603.179879 46.223968 
L 603.592453 49.19335 
L 604.417602 50.687709 
L 604.830177 50.228301 
L 605.242751 50.879131 
L 605.655326 50.814745 
L 606.0679 51.40115 
L 606.480475 51.198999 
L 606.893049 51.591463 
L 607.305623 60.369676 
L 607.718198 58.365939 
L 608.130772 58.177151 
L 608.543347 58.287562 
L 608.955921 57.651595 
L 609.368496 57.842709 
L 610.193645 55.523823 
L 610.606219 58.261431 
L 611.018794 59.339707 
L 611.431368 49.732725 
L 612.256517 48.871628 
L 612.669091 48.175284 
L 613.081666 48.431538 
L 613.49424 47.016793 
L 613.906815 47.154083 
L 614.731964 45.916282 
L 615.144538 45.527907 
L 615.557113 55.746099 
L 615.969687 55.160166 
L 616.382261 55.450627 
L 616.794836 55.510881 
L 617.20741 56.077283 
L 617.619985 55.807849 
L 618.032559 58.489111 
L 618.445134 59.403147 
L 618.857708 59.985263 
L 619.270283 60.193033 
L 619.682857 50.376818 
L 620.095432 50.873906 
L 620.508006 51.06483 
L 620.920581 50.6026 
L 621.333155 48.843771 
L 621.745729 49.379051 
L 622.158304 46.89309 
L 622.570878 45.887597 
L 622.983453 43.681868 
L 623.396027 42.748232 
L 624.221176 44.553757 
L 624.633751 44.553757 
L 625.046325 44.755908 
L 625.4589 45.692081 
L 626.284048 44.238568 
L 626.696623 45.758137 
L 627.109197 45.560594 
L 627.521772 45.560594 
L 628.346921 43.873693 
L 628.759495 43.426515 
L 629.17207 43.888408 
L 629.584644 43.443726 
L 629.997219 43.443726 
L 630.409793 44.238548 
L 630.822367 43.871314 
L 631.234942 50.55128 
L 631.647516 51.290387 
L 632.060091 51.522678 
L 632.88524 51.585844 
L 633.710389 53.284468 
L 634.122963 52.933892 
L 634.535538 53.355832 
L 634.948112 52.43293 
L 635.360687 47.218456 
L 635.773261 46.258129 
L 636.185835 48.104464 
L 636.59841 48.140428 
L 637.010984 47.57537 
L 637.423559 49.475224 
L 637.836133 48.694049 
L 638.248708 48.872411 
L 638.661282 48.28706 
L 639.073857 48.087405 
L 639.486431 46.851345 
L 639.899006 46.084656 
L 640.31158 43.976251 
L 640.724154 43.940287 
L 641.136729 46.448132 
L 641.549303 44.126336 
L 641.961878 44.358803 
L 642.374452 45.11695 
L 642.787027 44.715303 
L 644.02475 47.541599 
L 644.437325 47.191023 
L 644.849899 47.381947 
L 645.262473 44.695741 
L 645.675048 43.910733 
L 646.087622 43.850479 
L 646.500197 42.471935 
L 646.912771 42.906217 
L 647.73792 39.658463 
L 648.150495 41.198413 
L 648.563069 41.349163 
L 648.975644 40.221731 
L 649.388218 40.428361 
L 650.213367 40.96084 
L 650.625941 42.154059 
L 651.038516 43.824786 
L 651.45109 50.761025 
L 651.863665 50.996598 
L 652.276239 49.920006 
L 652.688814 51.338871 
L 653.513963 52.974934 
L 653.926537 54.87439 
L 654.339112 55.247617 
L 654.751686 56.066049 
L 655.16426 55.890048 
L 655.576835 50.734613 
L 655.989409 51.420387 
L 656.401984 51.457467 
L 656.814558 50.93477 
L 657.227133 50.693678 
L 657.639707 53.162907 
L 658.052282 51.19421 
L 658.464856 51.994194 
L 658.877431 52.100194 
L 659.70258 50.099589 
L 660.115154 50.616768 
L 660.527728 50.497843 
L 660.940303 50.777024 
L 661.352877 50.742817 
L 661.765452 49.267722 
L 662.178026 51.993267 
L 662.590601 52.389901 
L 663.003175 52.217198 
L 663.41575 51.357484 
L 663.828324 52.561245 
L 664.240899 53.038199 
L 664.653473 52.834612 
L 665.066047 53.423991 
L 665.478622 56.060505 
L 665.891196 56.316757 
L 666.303771 54.070098 
L 666.716345 53.768201 
L 667.541494 55.331069 
L 667.954069 55.251543 
L 668.366643 54.70477 
L 668.779218 54.908358 
L 669.191792 54.236737 
L 669.604366 52.119537 
L 670.016941 51.232301 
L 670.429515 54.498239 
L 670.84209 55.514462 
L 671.254664 54.899881 
L 671.667239 55.295614 
L 672.079813 55.440292 
L 672.492388 58.413921 
L 672.904962 57.901631 
L 673.730111 57.589817 
L 674.142686 58.451286 
L 674.967834 52.425792 
L 675.380409 51.374849 
L 675.792983 51.059007 
L 676.205558 50.167445 
L 676.618132 48.986071 
L 677.443281 48.769085 
L 677.855856 49.081107 
L 678.26843 48.985892 
L 678.681005 50.395522 
L 679.093579 51.02214 
L 679.506153 51.02214 
L 680.331302 48.86991 
L 680.743877 46.913111 
L 681.156451 47.761819 
L 681.569026 47.532766 
L 681.9816 46.222266 
L 682.394175 44.349879 
L 682.806749 43.437963 
L 683.219324 50.825227 
L 683.631898 50.825227 
L 684.044472 51.849101 
L 684.457047 53.867553 
L 684.869621 53.44076 
L 685.282196 52.222295 
L 685.69477 51.685505 
L 686.107345 51.738137 
L 686.519919 51.940129 
L 686.932494 50.422122 
L 687.345068 42.024699 
L 688.170217 40.475 
L 688.582792 38.773169 
L 688.995366 39.540434 
L 689.40794 41.277552 
L 689.820515 40.861814 
L 690.645664 41.677769 
L 691.058238 47.591648 
L 691.883387 50.038968 
L 692.295962 50.383405 
L 692.708536 51.283544 
L 693.533685 48.260371 
L 693.946259 49.220663 
L 694.358834 49.422478 
L 694.771408 49.021201 
L 695.183983 45.23886 
L 696.009132 43.93317 
L 696.421706 43.795194 
L 696.834281 42.629834 
L 697.246855 43.074514 
L 697.65943 43.074514 
L 698.484578 44.166691 
L 698.897153 44.754527 
L 699.309727 42.622989 
L 699.722302 42.384395 
L 700.960025 42.379818 
L 701.785174 42.899768 
L 702.197749 41.915762 
L 703.022898 40.969009 
L 703.435472 41.353211 
L 703.848046 42.210652 
L 704.260621 42.445871 
L 704.673195 43.516243 
L 705.08577 43.963603 
L 705.498344 45.337639 
L 706.323493 44.890693 
L 706.736068 44.480218 
L 707.148642 44.751641 
L 707.561217 44.814799 
L 707.973791 47.6615 
L 708.79894 48.215391 
L 709.211514 48.006624 
L 709.624089 46.697273 
L 710.036663 46.420075 
L 710.449238 46.629021 
L 710.861812 47.831974 
L 711.274387 47.454623 
L 711.686961 49.899038 
L 712.099536 46.814317 
L 712.51211 46.644155 
L 712.924685 45.923138 
L 713.337259 46.942413 
L 713.749833 46.462323 
L 714.162408 46.462323 
L 714.987557 45.688841 
L 715.400131 45.592953 
L 715.812706 42.253818 
L 716.22528 41.398663 
L 716.637855 42.721639 
L 717.050429 41.473754 
L 717.463004 41.036922 
L 717.875578 42.019562 
L 718.288152 45.238261 
L 718.700727 46.069161 
L 719.113301 45.219265 
L 719.525876 45.044008 
L 719.93845 45.255634 
L 720.351025 45.044008 
L 720.763599 42.784995 
L 721.176174 42.784995 
L 721.588748 41.937332 
L 722.001323 75.848782 
L 722.413897 73.128571 
L 723.239046 72.753668 
L 723.65162 72.544722 
L 724.064195 72.932191 
L 724.476769 73.893184 
L 724.889344 74.373629 
L 725.301918 75.581402 
L 725.714493 75.139367 
L 726.127067 40.599004 
L 726.539642 39.205798 
L 726.952216 38.752985 
L 728.189939 36.549684 
L 729.015088 34.578784 
L 729.427663 32.696048 
L 729.840237 32.484292 
L 730.252812 31.683205 
L 730.665386 32.103938 
L 731.077961 32.200785 
L 731.490535 34.632786 
L 731.90311 34.402613 
L 732.315684 36.001972 
L 733.140833 36.462195 
L 733.553407 38.318738 
L 733.965982 38.088459 
L 734.378556 38.067158 
L 734.791131 37.604317 
L 735.61628 35.746211 
L 736.441429 35.199413 
L 736.854003 45.293389 
L 737.266577 45.293389 
L 737.679152 45.865549 
L 738.091726 46.077412 
L 738.504301 48.022358 
L 739.32945 48.441143 
L 739.742024 48.052753 
L 740.154599 48.052753 
L 740.567173 47.620999 
L 740.979748 37.708413 
L 741.392322 39.737752 
L 741.804897 37.539327 
L 742.217471 38.265438 
L 742.630045 37.027747 
L 743.04262 40.169889 
L 743.455194 40.421363 
L 743.867769 39.452511 
L 744.280343 41.124553 
L 745.105492 40.833394 
L 745.518067 38.573884 
L 745.930641 39.578251 
L 746.343216 39.498342 
L 746.75579 39.287026 
L 747.168364 35.516732 
L 747.993513 35.032199 
L 748.406088 33.590436 
L 748.818662 34.095135 
L 749.231237 33.817147 
L 750.056386 34.649409 
L 750.46896 34.70204 
L 751.294109 35.210574 
L 751.706683 35.831381 
L 752.119258 37.494439 
L 752.531832 37.963377 
L 752.944407 37.204945 
L 753.356981 36.783716 
L 753.769556 37.167257 
L 754.18213 36.971955 
L 755.007279 35.498927 
L 755.419854 35.892624 
L 755.832428 35.059955 
L 756.245003 33.378481 
L 756.657577 33.378481 
L 757.070151 32.957252 
L 757.482726 33.169114 
L 758.307875 30.932384 
L 758.720449 31.377068 
L 759.545598 31.023088 
L 759.958173 32.257734 
L 760.370747 32.4671 
L 760.783322 32.23122 
L 761.195896 32.443083 
L 761.60847 32.8825 
L 762.021045 33.715168 
L 762.846194 33.696753 
L 763.258768 34.094626 
L 763.671343 33.631289 
L 764.083917 33.820974 
L 764.496492 34.549035 
L 765.321641 34.506927 
L 765.734215 34.276876 
L 766.14679 33.865436 
L 766.559364 33.865436 
L 767.384513 32.562322 
L 767.797087 33.994511 
L 768.209662 32.800459 
L 768.622236 32.072398 
L 769.034811 32.114506 
L 769.447385 32.323872 
L 769.85996 32.735312 
L 770.272534 32.756118 
L 770.685109 33.195535 
L 771.510257 34.679484 
L 771.922832 34.079964 
L 772.335406 35.772532 
L 772.747981 35.351304 
L 773.160555 36.320156 
L 773.57313 36.527079 
L 773.985704 36.115639 
L 774.398279 36.094833 
L 775.223428 35.655537 
L 776.461151 33.247014 
L 776.873725 33.458876 
L 777.2863 33.261333 
L 777.698874 32.845044 
L 778.524023 32.444727 
L 778.936598 34.223789 
L 779.349172 34.639819 
L 779.761747 36.651322 
L 780.174321 37.483991 
L 780.586896 36.516192 
L 780.99947 36.725558 
L 781.412044 37.944599 
L 781.824619 49.161518 
L 782.237193 50.55873 
L 782.649768 51.381688 
L 783.062342 49.181397 
L 783.474917 49.557977 
L 783.887491 47.776753 
L 784.300066 47.155947 
L 785.125215 46.734718 
L 785.537789 44.281032 
L 785.950363 33.273479 
L 786.362938 38.687408 
L 786.775512 38.073817 
L 787.188087 38.906486 
L 787.600661 41.363423 
L 788.013236 41.554373 
L 788.42581 44.45597 
L 788.838385 44.649844 
L 789.250959 45.500413 
L 789.663534 45.730692 
L 790.076108 45.730692 
L 790.488682 41.647501 
L 790.901257 41.668307 
L 791.313831 40.835639 
L 791.726406 37.355919 
L 792.13898 37.146553 
L 792.551555 33.805535 
L 792.964129 34.646481 
L 793.376704 33.814328 
L 793.789278 34.235328 
L 794.201853 35.140202 
L 794.614427 33.843411 
L 795.027002 34.312072 
L 795.439576 36.168615 
L 796.677299 37.468881 
L 797.089874 36.206503 
L 797.915023 36.142367 
L 798.327597 37.460128 
L 798.740172 36.40425 
L 799.152746 35.687427 
L 799.565321 34.714954 
L 799.977895 34.87153 
L 800.390469 42.240015 
L 801.215618 44.497155 
L 802.040767 44.479166 
L 802.453342 42.236217 
L 802.865916 41.615054 
L 803.278491 41.633043 
L 803.691065 42.107029 
L 804.10364 41.904734 
L 804.516214 33.869367 
L 804.928788 32.251021 
L 805.341363 31.40275 
L 806.166512 32.216715 
L 806.579086 32.82364 
L 806.991661 32.82364 
L 807.404235 32.596175 
L 807.81681 31.222515 
L 808.229384 50.894279 
L 808.641959 51.103756 
L 809.054533 52.732338 
L 809.467108 52.74794 
L 809.879682 52.142381 
L 810.292256 51.809504 
L 810.704831 51.809504 
L 811.117405 51.597548 
L 811.52998 51.84343 
L 811.942554 53.486523 
L 812.355129 33.610114 
L 812.767703 33.837468 
L 813.180278 33.444285 
L 813.592852 33.638159 
L 814.005427 33.4106 
L 814.830575 31.50024 
L 815.655724 32.856723 
L 816.068299 31.213629 
L 816.480873 35.716625 
L 816.893448 35.758733 
L 817.718597 36.163481 
L 818.131171 37.249104 
L 818.543746 37.688526 
L 818.95632 38.923171 
L 819.368894 38.732221 
L 819.781469 38.195161 
L 820.194043 39.882805 
L 820.606618 36.872232 
L 821.019192 36.620758 
L 821.431767 35.187653 
L 821.844341 34.998601 
L 822.256916 34.140536 
L 822.66949 35.13422 
L 823.082065 33.899575 
L 823.494639 33.881159 
L 823.907214 35.074548 
L 824.732362 32.39324 
L 825.144937 32.39324 
L 825.557511 33.478864 
L 825.970086 33.91828 
L 826.38266 34.148559 
L 826.795235 33.853709 
L 827.207809 34.711774 
L 827.620384 34.963248 
L 828.032958 34.865658 
L 828.445533 34.88696 
L 828.858107 35.119887 
L 829.270681 35.792095 
L 829.683256 35.818099 
L 830.09583 37.294749 
L 831.333554 40.069931 
L 831.746128 41.136712 
L 832.158703 41.562845 
L 832.571277 42.219151 
L 832.983852 42.428258 
L 833.396426 42.428258 
L 833.809001 43.720995 
L 834.221575 42.268029 
L 834.634149 42.783641 
L 835.046724 42.21885 
L 835.459298 42.95849 
L 835.871873 42.519074 
L 836.284447 41.295443 
L 836.697022 42.264032 
L 837.109596 42.674861 
L 837.522171 42.648856 
L 837.934745 41.330115 
L 838.34732 41.306431 
L 838.759894 39.901456 
L 839.172468 38.964628 
L 839.585043 36.723533 
L 839.997617 35.844695 
L 840.410192 35.375757 
L 840.822766 35.527665 
L 841.235341 34.931982 
L 841.647915 35.431974 
L 842.473064 34.597829 
L 843.298213 38.002464 
L 843.710787 38.71016 
L 844.123362 38.919526 
L 844.535936 40.612095 
L 844.948511 40.582126 
L 845.77366 39.980902 
L 846.598809 42.568447 
L 847.011383 40.419549 
L 847.423958 39.124853 
L 847.836532 39.019548 
L 848.249107 42.063295 
L 849.074255 39.16386 
L 849.48683 39.891921 
L 849.899404 39.508381 
L 850.724553 36.687777 
L 851.137128 36.70338 
L 851.549702 38.462209 
L 851.962277 38.462209 
L 852.374851 35.418462 
L 852.787426 35.229411 
L 852.787426 35.229411 
" clip-path="url(#p7e1e4f84e7)" style="fill: none; stroke-dasharray: 7.4,3.2; stroke-dashoffset: 0; stroke: #000000; stroke-width: 2"/>
   </g>
   <g id="patch_3">
    <path d="M 35.89 404.12 
L 35.89 13.161545 
" style="fill: none; stroke: #000000; stroke-width: 0.8; stroke-linejoin: miter; stroke-linecap: square"/>
   </g>
   <g id="patch_4">
    <path d="M 853.2 404.12 
L 853.2 13.161545 
" style="fill: none; stroke: #000000; stroke-width: 0.8; stroke-linejoin: miter; stroke-linecap: square"/>
   </g>
   <g id="patch_5">
    <path d="M 35.89 404.12 
L 853.2 404.12 
" style="fill: none; stroke: #000000; stroke-width: 0.8; stroke-linejoin: miter; stroke-linecap: square"/>
   </g>
   <g id="patch_6">
    <path d="M 35.89 13.161545 
L 853.2 13.161545 
" style="fill: none; stroke: #000000; stroke-width: 0.8; stroke-linejoin: miter; stroke-linecap: square"/>
   </g>
  </g>
 </g>
 <defs>
  <clipPath id="p7e1e4f84e7">
   <rect x="35.89" y="13.161545" width="817.31" height="390.958455"/>
  </clipPath>
 </defs>
</svg>
