<?xml version="1.0" encoding="utf-8" standalone="no"?>
<!DOCTYPE svg PUBLIC "-//W3C//DTD SVG 1.1//EN"
  "http://www.w3.org/Graphics/SVG/1.1/DTD/svg11.dtd">
<svg xmlns:xlink="http://www.w3.org/1999/xlink" width="864pt" height="432pt" viewBox="0 0 864 432" xmlns="http://www.w3.org/2000/svg" version="1.1">
 <metadata>
  <rdf:RDF xmlns:dc="http://purl.org/dc/elements/1.1/" xmlns:cc="http://creativecommons.org/ns#" xmlns:rdf="http://www.w3.org/1999/02/22-rdf-syntax-ns#">
   <cc:Work>
    <dc:type rdf:resource="http://purl.org/dc/dcmitype/StillImage"/>
    <dc:date>2024-09-16T10:39:00.129937</dc:date>
    <dc:format>image/svg+xml</dc:format>
    <dc:creator>
     <cc:Agent>
      <dc:title>Matplotlib v3.9.2, https://matplotlib.org/</dc:title>
     </cc:Agent>
    </dc:creator>
   </cc:Work>
  </rdf:RDF>
 </metadata>
 <defs>
  <style type="text/css">*{stroke-linejoin: round; stroke-linecap: butt}</style>
 </defs>
 <g id="figure_1">
  <g id="patch_1">
   <path d="M 0 432 
L 864 432 
L 864 0 
L 0 0 
z
" style="fill: #ffffff"/>
  </g>
  <g id="axes_1">
   <g id="patch_2">
    <path d="M 41.92 404.12 
L 841.14 404.12 
L 841.14 10.8 
L 41.92 10.8 
z
" style="fill: #ffffff"/>
   </g>
   <g id="matplotlib.axis_1">
    <g id="xtick_1">
     <g id="line2d_1">
      <defs>
       <path id="m2ab08cbbf6" d="M 0 0 
L 0 3.5 
" style="stroke: #000000; stroke-width: 0.8"/>
      </defs>
      <g>
       <use xlink:href="#m2ab08cbbf6" x="138.308342" y="404.12" style="stroke: #000000; stroke-width: 0.8"/>
      </g>
     </g>
     <g id="text_1">
      <!-- 250 -->
      <g transform="translate(129.277873 418.771563) scale(0.1 -0.1)">
       <defs>
        <path id="DejaVuSansMono-32" d="M 1166 531 
L 3309 531 
L 3309 0 
L 475 0 
L 475 531 
Q 1059 1147 1496 1619 
Q 1934 2091 2100 2284 
Q 2413 2666 2522 2902 
Q 2631 3138 2631 3384 
Q 2631 3775 2401 3997 
Q 2172 4219 1772 4219 
Q 1488 4219 1175 4116 
Q 863 4013 513 3803 
L 513 4441 
Q 834 4594 1145 4672 
Q 1456 4750 1759 4750 
Q 2444 4750 2861 4386 
Q 3278 4022 3278 3431 
Q 3278 3131 3139 2831 
Q 3000 2531 2688 2169 
Q 2513 1966 2180 1606 
Q 1847 1247 1166 531 
z
" transform="scale(0.015625)"/>
        <path id="DejaVuSansMono-35" d="M 647 4666 
L 3009 4666 
L 3009 4134 
L 1222 4134 
L 1222 2988 
Q 1356 3038 1492 3061 
Q 1628 3084 1766 3084 
Q 2491 3084 2916 2656 
Q 3341 2228 3341 1497 
Q 3341 759 2895 334 
Q 2450 -91 1678 -91 
Q 1306 -91 998 -41 
Q 691 9 447 109 
L 447 750 
Q 734 594 1025 517 
Q 1316 441 1619 441 
Q 2141 441 2423 716 
Q 2706 991 2706 1497 
Q 2706 1997 2414 2275 
Q 2122 2553 1600 2553 
Q 1347 2553 1106 2495 
Q 866 2438 647 2322 
L 647 4666 
z
" transform="scale(0.015625)"/>
        <path id="DejaVuSansMono-30" d="M 1509 2344 
Q 1509 2516 1629 2641 
Q 1750 2766 1919 2766 
Q 2094 2766 2219 2641 
Q 2344 2516 2344 2344 
Q 2344 2169 2220 2047 
Q 2097 1925 1919 1925 
Q 1744 1925 1626 2044 
Q 1509 2163 1509 2344 
z
M 1925 4250 
Q 1484 4250 1267 3775 
Q 1050 3300 1050 2328 
Q 1050 1359 1267 884 
Q 1484 409 1925 409 
Q 2369 409 2586 884 
Q 2803 1359 2803 2328 
Q 2803 3300 2586 3775 
Q 2369 4250 1925 4250 
z
M 1925 4750 
Q 2672 4750 3055 4137 
Q 3438 3525 3438 2328 
Q 3438 1134 3055 521 
Q 2672 -91 1925 -91 
Q 1178 -91 797 521 
Q 416 1134 416 2328 
Q 416 3525 797 4137 
Q 1178 4750 1925 4750 
z
" transform="scale(0.015625)"/>
       </defs>
       <use xlink:href="#DejaVuSansMono-32"/>
       <use xlink:href="#DejaVuSansMono-35" x="60.205078"/>
       <use xlink:href="#DejaVuSansMono-30" x="120.410156"/>
      </g>
     </g>
    </g>
    <g id="xtick_2">
     <g id="line2d_2">
      <g>
       <use xlink:href="#m2ab08cbbf6" x="238.712864" y="404.12" style="stroke: #000000; stroke-width: 0.8"/>
      </g>
     </g>
     <g id="text_2">
      <!-- 500 -->
      <g transform="translate(229.682396 418.771563) scale(0.1 -0.1)">
       <use xlink:href="#DejaVuSansMono-35"/>
       <use xlink:href="#DejaVuSansMono-30" x="60.205078"/>
       <use xlink:href="#DejaVuSansMono-30" x="120.410156"/>
      </g>
     </g>
    </g>
    <g id="xtick_3">
     <g id="line2d_3">
      <g>
       <use xlink:href="#m2ab08cbbf6" x="339.117387" y="404.12" style="stroke: #000000; stroke-width: 0.8"/>
      </g>
     </g>
     <g id="text_3">
      <!-- 750 -->
      <g transform="translate(330.086918 418.771563) scale(0.1 -0.1)">
       <defs>
        <path id="DejaVuSansMono-37" d="M 434 4666 
L 3372 4666 
L 3372 4397 
L 1703 0 
L 1044 0 
L 2669 4134 
L 434 4134 
L 434 4666 
z
" transform="scale(0.015625)"/>
       </defs>
       <use xlink:href="#DejaVuSansMono-37"/>
       <use xlink:href="#DejaVuSansMono-35" x="60.205078"/>
       <use xlink:href="#DejaVuSansMono-30" x="120.410156"/>
      </g>
     </g>
    </g>
    <g id="xtick_4">
     <g id="line2d_4">
      <g>
       <use xlink:href="#m2ab08cbbf6" x="439.52191" y="404.12" style="stroke: #000000; stroke-width: 0.8"/>
      </g>
     </g>
     <g id="text_4">
      <!-- 1000 -->
      <g transform="translate(427.481285 418.771563) scale(0.1 -0.1)">
       <defs>
        <path id="DejaVuSansMono-31" d="M 844 531 
L 1825 531 
L 1825 4097 
L 769 3859 
L 769 4434 
L 1819 4666 
L 2450 4666 
L 2450 531 
L 3419 531 
L 3419 0 
L 844 0 
L 844 531 
z
" transform="scale(0.015625)"/>
       </defs>
       <use xlink:href="#DejaVuSansMono-31"/>
       <use xlink:href="#DejaVuSansMono-30" x="60.205078"/>
       <use xlink:href="#DejaVuSansMono-30" x="120.410156"/>
       <use xlink:href="#DejaVuSansMono-30" x="180.615234"/>
      </g>
     </g>
    </g>
    <g id="xtick_5">
     <g id="line2d_5">
      <g>
       <use xlink:href="#m2ab08cbbf6" x="539.926432" y="404.12" style="stroke: #000000; stroke-width: 0.8"/>
      </g>
     </g>
     <g id="text_5">
      <!-- 1250 -->
      <g transform="translate(527.885807 418.771563) scale(0.1 -0.1)">
       <use xlink:href="#DejaVuSansMono-31"/>
       <use xlink:href="#DejaVuSansMono-32" x="60.205078"/>
       <use xlink:href="#DejaVuSansMono-35" x="120.410156"/>
       <use xlink:href="#DejaVuSansMono-30" x="180.615234"/>
      </g>
     </g>
    </g>
    <g id="xtick_6">
     <g id="line2d_6">
      <g>
       <use xlink:href="#m2ab08cbbf6" x="640.330955" y="404.12" style="stroke: #000000; stroke-width: 0.8"/>
      </g>
     </g>
     <g id="text_6">
      <!-- 1500 -->
      <g transform="translate(628.29033 418.771563) scale(0.1 -0.1)">
       <use xlink:href="#DejaVuSansMono-31"/>
       <use xlink:href="#DejaVuSansMono-35" x="60.205078"/>
       <use xlink:href="#DejaVuSansMono-30" x="120.410156"/>
       <use xlink:href="#DejaVuSansMono-30" x="180.615234"/>
      </g>
     </g>
    </g>
    <g id="xtick_7">
     <g id="line2d_7">
      <g>
       <use xlink:href="#m2ab08cbbf6" x="740.735477" y="404.12" style="stroke: #000000; stroke-width: 0.8"/>
      </g>
     </g>
     <g id="text_7">
      <!-- 1750 -->
      <g transform="translate(728.694852 418.771563) scale(0.1 -0.1)">
       <use xlink:href="#DejaVuSansMono-31"/>
       <use xlink:href="#DejaVuSansMono-37" x="60.205078"/>
       <use xlink:href="#DejaVuSansMono-35" x="120.410156"/>
       <use xlink:href="#DejaVuSansMono-30" x="180.615234"/>
      </g>
     </g>
    </g>
    <g id="xtick_8">
     <g id="line2d_8">
      <g>
       <use xlink:href="#m2ab08cbbf6" x="841.14" y="404.12" style="stroke: #000000; stroke-width: 0.8"/>
      </g>
     </g>
     <g id="text_8">
      <!-- 2000 -->
      <g transform="translate(829.099375 418.771563) scale(0.1 -0.1)">
       <use xlink:href="#DejaVuSansMono-32"/>
       <use xlink:href="#DejaVuSansMono-30" x="60.205078"/>
       <use xlink:href="#DejaVuSansMono-30" x="120.410156"/>
       <use xlink:href="#DejaVuSansMono-30" x="180.615234"/>
      </g>
     </g>
    </g>
   </g>
   <g id="matplotlib.axis_2">
    <g id="ytick_1">
     <g id="line2d_9">
      <defs>
       <path id="m3e71b72bd0" d="M 0 0 
L -3.5 0 
" style="stroke: #000000; stroke-width: 0.8"/>
      </defs>
      <g>
       <use xlink:href="#m3e71b72bd0" x="41.92" y="358.440256" style="stroke: #000000; stroke-width: 0.8"/>
      </g>
     </g>
     <g id="text_9">
      <!-- 0.02 -->
      <g transform="translate(10.83875 362.266037) scale(0.1 -0.1)">
       <defs>
        <path id="DejaVuSansMono-2e" d="M 1528 953 
L 2316 953 
L 2316 0 
L 1528 0 
L 1528 953 
z
" transform="scale(0.015625)"/>
       </defs>
       <use xlink:href="#DejaVuSansMono-30"/>
       <use xlink:href="#DejaVuSansMono-2e" x="60.205078"/>
       <use xlink:href="#DejaVuSansMono-30" x="120.410156"/>
       <use xlink:href="#DejaVuSansMono-32" x="180.615234"/>
      </g>
     </g>
    </g>
    <g id="ytick_2">
     <g id="line2d_10">
      <g>
       <use xlink:href="#m3e71b72bd0" x="41.92" y="308.146454" style="stroke: #000000; stroke-width: 0.8"/>
      </g>
     </g>
     <g id="text_10">
      <!-- 0.04 -->
      <g transform="translate(10.83875 311.972236) scale(0.1 -0.1)">
       <defs>
        <path id="DejaVuSansMono-34" d="M 2297 4091 
L 825 1625 
L 2297 1625 
L 2297 4091 
z
M 2194 4666 
L 2925 4666 
L 2925 1625 
L 3547 1625 
L 3547 1113 
L 2925 1113 
L 2925 0 
L 2297 0 
L 2297 1113 
L 319 1113 
L 319 1709 
L 2194 4666 
z
" transform="scale(0.015625)"/>
       </defs>
       <use xlink:href="#DejaVuSansMono-30"/>
       <use xlink:href="#DejaVuSansMono-2e" x="60.205078"/>
       <use xlink:href="#DejaVuSansMono-30" x="120.410156"/>
       <use xlink:href="#DejaVuSansMono-34" x="180.615234"/>
      </g>
     </g>
    </g>
    <g id="ytick_3">
     <g id="line2d_11">
      <g>
       <use xlink:href="#m3e71b72bd0" x="41.92" y="257.852653" style="stroke: #000000; stroke-width: 0.8"/>
      </g>
     </g>
     <g id="text_11">
      <!-- 0.06 -->
      <g transform="translate(10.83875 261.678435) scale(0.1 -0.1)">
       <defs>
        <path id="DejaVuSansMono-36" d="M 3097 4563 
L 3097 3981 
Q 2900 4097 2678 4158 
Q 2456 4219 2216 4219 
Q 1616 4219 1306 3767 
Q 997 3316 997 2438 
Q 1147 2750 1412 2917 
Q 1678 3084 2022 3084 
Q 2697 3084 3067 2670 
Q 3438 2256 3438 1497 
Q 3438 741 3056 325 
Q 2675 -91 1984 -91 
Q 1172 -91 794 492 
Q 416 1075 416 2328 
Q 416 3509 870 4129 
Q 1325 4750 2188 4750 
Q 2419 4750 2650 4701 
Q 2881 4653 3097 4563 
z
M 1972 2591 
Q 1569 2591 1337 2300 
Q 1106 2009 1106 1497 
Q 1106 984 1337 693 
Q 1569 403 1972 403 
Q 2391 403 2603 679 
Q 2816 956 2816 1497 
Q 2816 2041 2603 2316 
Q 2391 2591 1972 2591 
z
" transform="scale(0.015625)"/>
       </defs>
       <use xlink:href="#DejaVuSansMono-30"/>
       <use xlink:href="#DejaVuSansMono-2e" x="60.205078"/>
       <use xlink:href="#DejaVuSansMono-30" x="120.410156"/>
       <use xlink:href="#DejaVuSansMono-36" x="180.615234"/>
      </g>
     </g>
    </g>
    <g id="ytick_4">
     <g id="line2d_12">
      <g>
       <use xlink:href="#m3e71b72bd0" x="41.92" y="207.558852" style="stroke: #000000; stroke-width: 0.8"/>
      </g>
     </g>
     <g id="text_12">
      <!-- 0.08 -->
      <g transform="translate(10.83875 211.384633) scale(0.1 -0.1)">
       <defs>
        <path id="DejaVuSansMono-38" d="M 1925 2216 
Q 1503 2216 1273 1980 
Q 1044 1744 1044 1313 
Q 1044 881 1276 642 
Q 1509 403 1925 403 
Q 2350 403 2579 639 
Q 2809 875 2809 1313 
Q 2809 1741 2576 1978 
Q 2344 2216 1925 2216 
z
M 1375 2478 
Q 972 2581 745 2862 
Q 519 3144 519 3541 
Q 519 4097 897 4423 
Q 1275 4750 1925 4750 
Q 2578 4750 2956 4423 
Q 3334 4097 3334 3541 
Q 3334 3144 3107 2862 
Q 2881 2581 2478 2478 
Q 2947 2375 3195 2062 
Q 3444 1750 3444 1253 
Q 3444 622 3041 265 
Q 2638 -91 1925 -91 
Q 1213 -91 811 264 
Q 409 619 409 1247 
Q 409 1747 657 2061 
Q 906 2375 1375 2478 
z
M 1147 3481 
Q 1147 3106 1347 2909 
Q 1547 2713 1925 2713 
Q 2306 2713 2506 2909 
Q 2706 3106 2706 3481 
Q 2706 3863 2507 4063 
Q 2309 4263 1925 4263 
Q 1547 4263 1347 4061 
Q 1147 3859 1147 3481 
z
" transform="scale(0.015625)"/>
       </defs>
       <use xlink:href="#DejaVuSansMono-30"/>
       <use xlink:href="#DejaVuSansMono-2e" x="60.205078"/>
       <use xlink:href="#DejaVuSansMono-30" x="120.410156"/>
       <use xlink:href="#DejaVuSansMono-38" x="180.615234"/>
      </g>
     </g>
    </g>
    <g id="ytick_5">
     <g id="line2d_13">
      <g>
       <use xlink:href="#m3e71b72bd0" x="41.92" y="157.265051" style="stroke: #000000; stroke-width: 0.8"/>
      </g>
     </g>
     <g id="text_13">
      <!-- 0.10 -->
      <g transform="translate(10.83875 161.090832) scale(0.1 -0.1)">
       <use xlink:href="#DejaVuSansMono-30"/>
       <use xlink:href="#DejaVuSansMono-2e" x="60.205078"/>
       <use xlink:href="#DejaVuSansMono-31" x="120.410156"/>
       <use xlink:href="#DejaVuSansMono-30" x="180.615234"/>
      </g>
     </g>
    </g>
    <g id="ytick_6">
     <g id="line2d_14">
      <g>
       <use xlink:href="#m3e71b72bd0" x="41.92" y="106.97125" style="stroke: #000000; stroke-width: 0.8"/>
      </g>
     </g>
     <g id="text_14">
      <!-- 0.12 -->
      <g transform="translate(10.83875 110.797031) scale(0.1 -0.1)">
       <use xlink:href="#DejaVuSansMono-30"/>
       <use xlink:href="#DejaVuSansMono-2e" x="60.205078"/>
       <use xlink:href="#DejaVuSansMono-31" x="120.410156"/>
       <use xlink:href="#DejaVuSansMono-32" x="180.615234"/>
      </g>
     </g>
    </g>
    <g id="ytick_7">
     <g id="line2d_15">
      <g>
       <use xlink:href="#m3e71b72bd0" x="41.92" y="56.677448" style="stroke: #000000; stroke-width: 0.8"/>
      </g>
     </g>
     <g id="text_15">
      <!-- 0.14 -->
      <g transform="translate(10.83875 60.50323) scale(0.1 -0.1)">
       <use xlink:href="#DejaVuSansMono-30"/>
       <use xlink:href="#DejaVuSansMono-2e" x="60.205078"/>
       <use xlink:href="#DejaVuSansMono-31" x="120.410156"/>
       <use xlink:href="#DejaVuSansMono-34" x="180.615234"/>
      </g>
     </g>
    </g>
   </g>
   <g id="line2d_16">
    <path d="M 41.518382 36.062651 
L 41.92 36.245571 
L 42.321618 37.368427 
L 42.723236 37.761662 
L 43.124854 37.513531 
L 43.526472 39.683037 
L 43.92809 39.608108 
L 44.329709 41.262079 
L 44.731327 41.608855 
L 45.132945 44.197057 
L 45.534563 45.30452 
L 45.936181 44.935821 
L 46.337799 47.206198 
L 46.739417 47.106825 
L 47.141035 49.463648 
L 47.542653 49.851549 
L 47.944271 55.313543 
L 48.345889 56.026 
L 48.747508 57.162193 
L 49.149126 56.925195 
L 49.550744 57.804114 
L 49.952362 58.250793 
L 50.35398 66.31868 
L 50.755598 67.402449 
L 51.157216 66.186842 
L 51.558834 65.94047 
L 51.960452 65.984025 
L 52.36207 64.644548 
L 52.763688 64.901829 
L 53.165307 64.838709 
L 53.566925 65.65975 
L 53.968543 65.950562 
L 54.370161 65.892765 
L 54.771779 65.960052 
L 55.173397 63.521373 
L 55.575015 65.246314 
L 55.976633 65.701431 
L 56.378251 65.117903 
L 56.779869 68.812953 
L 57.181487 70.76454 
L 57.583106 70.723043 
L 57.984724 72.101283 
L 58.386342 74.24469 
L 58.78796 74.921939 
L 59.189578 78.70557 
L 59.591196 79.340953 
L 59.992814 79.042626 
L 60.394432 81.300466 
L 60.79605 76.136917 
L 61.197668 76.063251 
L 61.599286 75.215147 
L 62.000905 74.906879 
L 62.402523 74.758161 
L 62.804141 73.72268 
L 63.205759 74.378878 
L 63.607377 73.831057 
L 64.008995 74.238581 
L 64.410613 72.691753 
L 64.812231 70.601123 
L 65.213849 70.451516 
L 66.017085 68.40145 
L 66.418704 66.983773 
L 67.22194 67.294781 
L 67.623558 61.024961 
L 68.025176 60.792707 
L 68.426794 60.112464 
L 68.828412 59.152757 
L 69.23003 55.790144 
L 69.631648 56.035077 
L 70.033266 55.62101 
L 70.434884 54.591791 
L 70.836503 54.613268 
L 71.238121 55.415839 
L 71.639739 55.552504 
L 72.041357 54.249301 
L 72.442975 48.628294 
L 72.844593 49.055287 
L 74.049447 46.022939 
L 74.451065 45.053933 
L 74.852683 44.411674 
L 75.254302 46.947514 
L 75.65592 46.943398 
L 76.057538 47.149982 
L 76.459156 48.476444 
L 76.860774 48.267717 
L 77.262392 48.871383 
L 77.66401 49.093036 
L 78.065628 49.127529 
L 78.467246 47.470679 
L 78.868864 49.464485 
L 79.270482 48.433502 
L 79.672101 48.48268 
L 80.073719 49.630583 
L 80.475337 48.793646 
L 80.876955 54.832066 
L 81.278573 56.65964 
L 81.680191 57.361108 
L 82.081809 56.971227 
L 82.483427 56.300918 
L 82.885045 57.711946 
L 83.286663 57.195412 
L 83.688281 57.722357 
L 84.089899 56.776072 
L 84.491518 57.513697 
L 84.893136 59.659821 
L 85.294754 59.996437 
L 85.696372 60.933469 
L 86.09799 61.086884 
L 86.499608 62.567647 
L 87.302844 62.523837 
L 87.704462 68.319989 
L 88.10608 68.172433 
L 88.909317 69.919544 
L 89.310935 73.421398 
L 89.712553 73.555948 
L 90.515789 72.398171 
L 90.917407 72.229765 
L 91.319025 72.262679 
L 91.720643 70.214713 
L 92.122261 71.057361 
L 92.523879 78.144189 
L 92.925497 78.15062 
L 93.327116 78.615169 
L 93.728734 78.616289 
L 94.933588 80.697195 
L 95.335206 79.455363 
L 95.736824 78.773157 
L 96.138442 77.143045 
L 96.54006 74.831467 
L 96.941678 74.259081 
L 97.343296 74.122721 
L 97.744915 72.40797 
L 98.146533 71.799752 
L 98.548151 72.199211 
L 98.949769 71.904834 
L 99.351387 72.979792 
L 99.753005 71.655228 
L 100.154623 70.771302 
L 100.556241 70.376371 
L 100.957859 68.526301 
L 101.359477 68.398255 
L 101.761095 66.170472 
L 102.162714 65.928101 
L 102.564332 65.259318 
L 102.96595 65.401895 
L 103.367568 64.077146 
L 103.769186 62.242197 
L 104.170804 63.477791 
L 104.572422 62.955162 
L 104.97404 62.236919 
L 105.375658 60.110404 
L 105.777276 60.113866 
L 106.178894 61.449045 
L 106.580513 58.616402 
L 106.982131 58.237398 
L 107.383749 56.880575 
L 107.785367 56.069454 
L 108.186985 55.61112 
L 108.990221 54.409222 
L 109.793457 54.434352 
L 110.195075 55.289215 
L 110.596693 56.502274 
L 110.998312 55.580146 
L 111.39993 56.339737 
L 111.801548 58.451748 
L 112.203166 59.186301 
L 112.604784 59.222884 
L 113.006402 58.470862 
L 113.809638 60.172111 
L 114.211256 59.30071 
L 114.612874 59.689962 
L 115.014492 57.977407 
L 115.416111 59.320293 
L 115.817729 59.947305 
L 116.620965 63.661814 
L 117.022583 64.508493 
L 117.424201 64.489444 
L 117.825819 62.710598 
L 118.227437 62.482348 
L 119.030673 63.26686 
L 119.432291 63.219418 
L 119.83391 64.608984 
L 120.235528 64.652418 
L 120.637146 65.320813 
L 121.038764 66.836719 
L 121.440382 66.850624 
L 121.842 68.899856 
L 122.243618 68.551336 
L 122.645236 71.074127 
L 123.046854 70.12576 
L 123.85009 72.938933 
L 124.251709 71.70623 
L 125.054945 72.295476 
L 125.456563 73.69642 
L 126.259799 71.908273 
L 126.661417 73.555386 
L 127.063035 71.561129 
L 127.464653 72.402456 
L 127.866271 73.554225 
L 128.669508 73.788291 
L 129.071126 74.006143 
L 129.472744 73.879977 
L 129.874362 73.556333 
L 130.27598 73.822937 
L 130.677598 73.926206 
L 131.079216 74.30268 
L 131.480834 72.384324 
L 131.882452 71.454487 
L 132.28407 69.967988 
L 132.685688 70.091171 
L 133.087307 70.84038 
L 133.488925 69.58736 
L 134.292161 70.200272 
L 134.693779 69.774119 
L 135.095397 70.505164 
L 135.497015 68.54359 
L 135.898633 68.622359 
L 136.300251 68.26106 
L 136.701869 68.713435 
L 137.103487 67.970656 
L 137.505106 67.770406 
L 137.906724 71.132614 
L 138.308342 71.258435 
L 138.70996 71.585109 
L 139.111578 71.538812 
L 139.513196 68.841743 
L 139.914814 68.860973 
L 140.316432 68.58193 
L 140.71805 68.614318 
L 141.119668 68.471261 
L 141.922905 67.837207 
L 142.324523 69.382707 
L 143.529377 69.955768 
L 143.930995 69.545206 
L 144.332613 71.548064 
L 144.734231 72.633098 
L 145.135849 73.153294 
L 145.537467 73.128556 
L 145.939085 73.41082 
L 146.340704 72.824825 
L 146.742322 71.769346 
L 147.14394 72.836564 
L 147.545558 73.337157 
L 147.947176 72.883839 
L 148.348794 71.820257 
L 148.750412 71.195288 
L 149.955266 70.307781 
L 150.356884 70.620936 
L 150.758503 70.313378 
L 151.160121 70.289478 
L 151.561739 71.773566 
L 151.963357 71.473023 
L 152.364975 72.938193 
L 152.766593 70.749825 
L 153.168211 70.512062 
L 153.569829 71.206225 
L 153.971447 70.943788 
L 154.373065 69.996727 
L 154.774683 70.232159 
L 155.176302 71.190958 
L 155.57792 73.013813 
L 155.979538 72.624196 
L 156.381156 72.955928 
L 156.782774 72.454462 
L 157.184392 72.640182 
L 157.58601 72.485623 
L 157.987628 71.782336 
L 158.389246 72.485299 
L 158.790864 72.600987 
L 159.192482 72.468219 
L 159.594101 75.350503 
L 159.995719 74.437898 
L 160.397337 70.41165 
L 160.798955 70.805086 
L 161.200573 70.849917 
L 161.602191 70.162489 
L 162.003809 70.739502 
L 162.405427 69.736158 
L 162.807045 69.117106 
L 163.208663 69.306877 
L 164.011899 70.224829 
L 165.216754 68.763204 
L 165.618372 69.080424 
L 166.01999 69.632515 
L 166.421608 69.236176 
L 166.823226 71.487584 
L 167.224844 70.196854 
L 167.626462 69.795388 
L 168.02808 70.509345 
L 168.429698 72.168444 
L 168.831317 72.832261 
L 169.232935 72.970891 
L 170.036171 73.93759 
L 170.437789 74.021078 
L 170.839407 74.253615 
L 171.241025 74.848728 
L 171.642643 73.664043 
L 172.044261 74.635453 
L 172.445879 73.707654 
L 172.847497 75.315495 
L 173.249116 74.717921 
L 174.052352 74.602134 
L 174.45397 75.803624 
L 175.257206 73.713648 
L 175.658824 73.734549 
L 176.863678 72.802093 
L 177.265296 73.494999 
L 177.666915 73.366848 
L 178.068533 74.237733 
L 179.273387 72.033938 
L 179.675005 71.580255 
L 180.076623 71.604468 
L 180.478241 76.420135 
L 180.879859 76.008463 
L 181.281477 76.424329 
L 181.683095 76.677299 
L 182.084714 76.745014 
L 182.486332 75.775606 
L 182.88795 76.091726 
L 183.289568 73.675514 
L 184.89604 72.465316 
L 186.100894 70.704613 
L 186.502513 70.984033 
L 186.904131 68.712968 
L 187.305749 69.97998 
L 187.707367 69.882145 
L 188.108985 68.896151 
L 188.510603 68.786362 
L 189.313839 68.020675 
L 189.715457 66.088962 
L 190.518693 64.475729 
L 190.920312 64.547172 
L 191.32193 64.492467 
L 191.723548 65.514015 
L 192.125166 65.149224 
L 192.526784 66.205409 
L 192.928402 66.731364 
L 193.33002 67.583872 
L 193.731638 68.16387 
L 194.133256 68.320761 
L 194.534874 68.703035 
L 194.936492 68.895405 
L 195.338111 69.810003 
L 195.739729 70.008277 
L 196.141347 70.707582 
L 196.542965 71.064157 
L 196.944583 71.114102 
L 197.346201 70.672946 
L 198.149437 70.183103 
L 198.551055 70.712801 
L 199.354291 72.468436 
L 199.75591 72.598847 
L 200.157528 73.30981 
L 200.559146 73.467827 
L 200.960764 73.376476 
L 201.362382 73.017673 
L 201.764 72.207776 
L 202.165618 72.277051 
L 202.567236 74.472932 
L 202.968854 73.974774 
L 203.370472 76.653611 
L 203.77209 75.294666 
L 204.173709 74.784303 
L 204.575327 74.817797 
L 204.976945 75.590476 
L 205.378563 75.499283 
L 205.780181 76.106119 
L 206.181799 75.416094 
L 206.583417 75.460052 
L 207.386653 78.125446 
L 207.788271 77.506947 
L 208.189889 78.074519 
L 208.591508 77.8358 
L 208.993126 77.956624 
L 209.394744 77.750601 
L 209.796362 79.084771 
L 210.19798 78.900829 
L 210.599598 79.510443 
L 211.001216 79.714247 
L 211.402834 79.080806 
L 211.804452 79.263881 
L 212.20607 78.533931 
L 212.607688 77.073458 
L 213.009307 76.894159 
L 213.812543 73.979239 
L 214.214161 74.128014 
L 214.615779 73.954028 
L 215.017397 72.158775 
L 215.419015 71.919269 
L 215.820633 70.210186 
L 216.623869 68.54114 
L 217.025487 68.738977 
L 217.427106 67.987465 
L 217.828724 66.991303 
L 218.63196 66.377335 
L 219.033578 66.342351 
L 219.435196 66.041802 
L 219.836814 65.961658 
L 220.238432 66.115297 
L 220.64005 65.711896 
L 221.041668 66.151829 
L 221.443286 65.636619 
L 221.844905 67.10493 
L 222.246523 66.938055 
L 222.648141 67.025194 
L 223.049759 66.816959 
L 223.451377 67.097749 
L 224.254613 69.140365 
L 224.656231 69.93503 
L 225.057849 69.797219 
L 225.459467 71.166966 
L 225.861085 70.88333 
L 226.664322 74.000526 
L 227.06594 73.796588 
L 227.467558 72.383561 
L 227.869176 73.160763 
L 228.270794 73.554133 
L 228.672412 73.227518 
L 229.07403 73.271397 
L 229.475648 73.985821 
L 229.877266 73.752527 
L 230.278884 73.734355 
L 230.680503 73.92435 
L 231.082121 73.12595 
L 231.483739 73.417356 
L 231.885357 73.159411 
L 232.286975 74.31883 
L 232.688593 75.07732 
L 233.090211 75.18395 
L 233.491829 75.819833 
L 233.893447 77.363656 
L 234.295065 77.067962 
L 234.696683 75.56808 
L 235.098302 77.778192 
L 235.49992 78.095057 
L 235.901538 78.736149 
L 236.303156 79.077425 
L 237.106392 79.324364 
L 237.50801 79.983159 
L 237.909628 81.374858 
L 238.311246 80.899126 
L 238.712864 80.924354 
L 239.114482 80.802451 
L 239.516101 80.804588 
L 240.319337 80.210019 
L 240.720955 80.110833 
L 241.122573 80.357514 
L 241.524191 80.462754 
L 242.729045 78.813684 
L 243.130663 79.168182 
L 243.532281 78.585369 
L 243.933899 78.338826 
L 244.737136 77.388781 
L 245.138754 77.306939 
L 245.540372 76.846402 
L 245.94199 76.773504 
L 246.343608 75.914618 
L 246.745226 74.737182 
L 247.146844 75.176585 
L 247.548462 74.961922 
L 247.95008 75.269403 
L 248.351698 75.005009 
L 249.154935 75.441587 
L 249.556553 74.803287 
L 250.359789 75.532866 
L 250.761407 74.793258 
L 251.163025 74.65229 
L 251.564643 73.697991 
L 251.966261 74.296837 
L 252.367879 74.041002 
L 252.769497 74.400115 
L 253.171116 74.561222 
L 253.572734 75.223933 
L 253.974352 74.725023 
L 254.37597 74.695241 
L 254.777588 75.440227 
L 255.179206 75.715421 
L 255.580824 75.181476 
L 255.982442 75.479458 
L 256.38406 75.630503 
L 256.785678 74.256849 
L 257.187296 73.733936 
L 257.588915 74.083004 
L 257.990533 74.263845 
L 258.392151 74.823813 
L 258.793769 75.057328 
L 259.195387 74.809492 
L 259.597005 74.800689 
L 259.998623 75.407138 
L 260.801859 75.615054 
L 261.203477 75.353494 
L 261.605095 75.434742 
L 262.006714 75.111353 
L 262.80995 75.60538 
L 263.211568 75.109592 
L 263.613186 75.440645 
L 264.014804 75.186661 
L 264.416422 75.404159 
L 264.81804 75.867441 
L 265.219658 75.941484 
L 265.621276 75.836261 
L 266.022894 76.365877 
L 266.424513 76.698198 
L 266.826131 77.603198 
L 267.227749 77.584498 
L 267.629367 78.762928 
L 268.432603 78.636886 
L 269.235839 79.320401 
L 269.637457 79.89656 
L 270.039075 79.862087 
L 270.440693 79.537956 
L 270.842312 79.554614 
L 271.645548 80.149343 
L 272.047166 79.708563 
L 272.850402 80.058996 
L 273.25202 79.943853 
L 273.653638 79.481908 
L 274.055256 77.786427 
L 274.456874 77.061166 
L 274.858492 77.914338 
L 275.260111 77.968004 
L 275.661729 76.792158 
L 276.063347 76.975673 
L 276.464965 76.500017 
L 276.866583 77.966028 
L 277.268201 78.647706 
L 277.669819 76.498508 
L 278.071437 75.741246 
L 278.473055 75.831456 
L 278.874673 75.534702 
L 279.276291 76.171176 
L 279.67791 75.298827 
L 280.079528 74.132976 
L 280.481146 74.107488 
L 280.882764 73.111052 
L 281.686 72.960523 
L 282.087618 73.859335 
L 282.489236 74.01594 
L 282.890854 74.405298 
L 283.292472 75.319561 
L 283.69409 75.437493 
L 284.497327 76.435927 
L 284.898945 76.097173 
L 285.300563 76.351865 
L 286.103799 76.497587 
L 286.505417 77.064304 
L 286.907035 76.830187 
L 287.710271 77.7026 
L 288.111889 77.504481 
L 288.915126 76.015172 
L 289.718362 75.767837 
L 290.11998 74.863652 
L 290.923216 75.767287 
L 291.324834 76.055906 
L 291.726452 76.618213 
L 292.12807 76.067221 
L 292.529688 76.129296 
L 292.931307 74.121347 
L 293.332925 73.845831 
L 293.734543 74.360315 
L 294.136161 75.656198 
L 294.537779 75.902253 
L 294.939397 75.282305 
L 295.341015 75.534683 
L 295.742633 76.167447 
L 296.144251 76.455891 
L 296.545869 77.202131 
L 296.947487 75.872718 
L 297.349106 75.588093 
L 297.750724 77.241039 
L 298.152342 78.032191 
L 298.55396 77.938078 
L 298.955578 78.380943 
L 299.357196 78.384574 
L 299.758814 78.745077 
L 300.160432 79.654611 
L 300.56205 79.946771 
L 300.963668 80.763851 
L 301.766905 79.243159 
L 302.168523 78.331491 
L 302.570141 77.925016 
L 302.971759 78.010006 
L 303.373377 77.573511 
L 303.774995 77.457626 
L 304.176613 77.074403 
L 304.578231 76.961599 
L 304.979849 77.138879 
L 305.381467 76.656817 
L 306.184704 76.307968 
L 306.586322 75.540313 
L 306.98794 76.002583 
L 307.389558 75.621118 
L 308.192794 75.107158 
L 308.594412 75.492084 
L 308.99603 75.659107 
L 309.397648 75.969517 
L 309.799266 75.772513 
L 310.200884 77.138774 
L 311.004121 76.386756 
L 311.405739 74.933162 
L 311.807357 75.023507 
L 312.208975 75.838662 
L 312.610593 75.317062 
L 313.012211 76.642874 
L 314.217065 76.376684 
L 314.618683 76.842054 
L 315.020302 76.725876 
L 315.42192 76.151485 
L 315.823538 76.359549 
L 316.225156 75.870498 
L 316.626774 75.174441 
L 317.028392 76.646822 
L 317.43001 76.984188 
L 317.831628 77.66522 
L 318.233246 77.495532 
L 318.634864 77.708483 
L 319.036482 77.105002 
L 319.438101 76.904818 
L 319.839719 77.374287 
L 320.241337 76.319426 
L 320.642955 76.008503 
L 321.044573 76.393885 
L 321.446191 77.301015 
L 321.847809 78.682957 
L 322.249427 79.648334 
L 322.651045 80.037347 
L 323.052663 79.432803 
L 323.454281 80.085709 
L 323.855899 79.790497 
L 324.257518 80.032628 
L 324.659136 79.935362 
L 325.462372 80.446542 
L 325.86399 80.76424 
L 326.265608 79.398891 
L 327.470462 78.897069 
L 327.87208 78.74586 
L 328.273698 78.126692 
L 328.675317 78.17766 
L 329.076935 78.641266 
L 329.478553 78.731728 
L 329.880171 79.101365 
L 330.281789 78.993504 
L 330.683407 79.05401 
L 331.085025 79.546298 
L 331.486643 81.132571 
L 332.289879 81.006201 
L 332.691497 81.217785 
L 333.494734 81.959522 
L 333.896352 81.361722 
L 334.29797 82.020572 
L 334.699588 81.355209 
L 335.101206 81.929871 
L 335.502824 81.964467 
L 335.904442 81.596324 
L 336.30606 81.900748 
L 336.707678 82.660834 
L 337.109296 82.714168 
L 337.510915 82.622689 
L 337.912533 82.127913 
L 338.715769 82.166606 
L 339.117387 82.728123 
L 339.920623 82.350594 
L 340.322241 83.089732 
L 340.723859 82.454262 
L 341.125477 81.505293 
L 341.527095 80.944447 
L 341.928714 80.946214 
L 342.330332 80.519932 
L 342.73195 80.687789 
L 343.936804 80.159743 
L 344.338422 80.421648 
L 345.543276 79.365673 
L 345.944894 79.236421 
L 346.748131 80.174271 
L 347.149749 79.732106 
L 347.551367 79.895466 
L 348.354603 80.752743 
L 348.756221 81.190508 
L 349.157839 81.125839 
L 349.559457 80.719409 
L 350.362693 81.042213 
L 350.764312 80.994536 
L 351.16593 80.527116 
L 351.567548 80.373743 
L 351.969166 79.944132 
L 352.370784 79.984989 
L 352.772402 79.600999 
L 353.17402 79.038507 
L 353.575638 77.818287 
L 353.977256 78.349229 
L 354.378874 78.55932 
L 354.780492 79.284834 
L 355.182111 79.571075 
L 355.583729 80.028916 
L 355.985347 81.167349 
L 356.386965 81.643672 
L 356.788583 81.176837 
L 357.190201 80.460264 
L 357.591819 80.451786 
L 358.395055 81.328939 
L 358.796673 80.841865 
L 359.198291 79.995854 
L 359.59991 80.335874 
L 361.206382 82.411305 
L 361.608 81.270362 
L 362.009618 81.597818 
L 362.411236 81.674694 
L 362.812854 80.648614 
L 364.017709 81.174047 
L 364.419327 80.678401 
L 364.820945 80.648263 
L 365.222563 79.12315 
L 365.624181 79.539519 
L 366.025799 79.112039 
L 366.427417 79.921298 
L 366.829035 80.026511 
L 367.230653 79.71225 
L 368.033889 79.671706 
L 368.435508 80.253963 
L 368.837126 80.635306 
L 369.238744 80.166019 
L 369.640362 80.560634 
L 370.04198 80.254909 
L 370.443598 80.251742 
L 370.845216 80.858815 
L 371.246834 81.251047 
L 372.853307 81.595703 
L 373.254925 82.542925 
L 373.656543 83.82321 
L 374.058161 83.991992 
L 374.861397 84.109997 
L 376.066251 83.101541 
L 376.467869 82.322155 
L 376.869487 81.253885 
L 377.271106 81.470608 
L 377.672724 81.176379 
L 378.47596 79.395718 
L 378.877578 79.795644 
L 379.279196 80.434904 
L 379.680814 80.800904 
L 380.48405 81.171919 
L 380.885668 81.100921 
L 381.287286 82.013245 
L 381.688905 83.773998 
L 382.090523 82.831029 
L 382.492141 83.350818 
L 382.893759 84.44112 
L 383.295377 85.100788 
L 383.696995 84.244347 
L 384.098613 84.073291 
L 384.500231 84.9703 
L 384.901849 85.531214 
L 385.303467 85.682053 
L 385.705085 85.429263 
L 386.106704 86.045108 
L 386.90994 84.881986 
L 387.311558 84.925247 
L 387.713176 83.450824 
L 388.114794 82.773032 
L 388.91803 81.083812 
L 389.319648 81.85126 
L 390.122884 81.045939 
L 390.926121 81.08437 
L 391.327739 81.270212 
L 392.130975 82.215442 
L 393.335829 82.298531 
L 393.737447 81.565181 
L 394.139065 81.415139 
L 394.540683 80.940149 
L 394.942302 80.865132 
L 395.745538 81.559059 
L 396.147156 81.952763 
L 396.548774 81.224693 
L 396.950392 82.623439 
L 397.35201 81.875719 
L 397.753628 82.096666 
L 398.155246 82.975568 
L 398.556864 83.432902 
L 399.360101 82.544929 
L 399.761719 82.467107 
L 401.769809 80.330645 
L 402.171427 80.945 
L 402.573045 80.639209 
L 402.974663 81.097113 
L 403.376281 80.911515 
L 403.777899 81.360469 
L 404.179518 81.308752 
L 404.581136 80.424647 
L 404.982754 80.413639 
L 405.384372 81.671593 
L 405.78599 81.192617 
L 406.187608 80.90327 
L 406.589226 81.125351 
L 406.990844 82.165482 
L 407.392462 82.400748 
L 407.79408 84.246823 
L 408.195698 85.204949 
L 408.597317 85.654963 
L 408.998935 84.183211 
L 409.400553 84.376729 
L 410.203789 85.800586 
L 411.007025 85.379666 
L 411.810261 84.253325 
L 412.211879 84.397007 
L 412.613497 83.876573 
L 413.015116 85.049662 
L 413.416734 84.862301 
L 413.818352 85.232626 
L 414.21997 84.653852 
L 415.023206 85.284874 
L 415.424824 85.326317 
L 415.826442 84.97256 
L 416.22806 84.891071 
L 416.629678 85.625261 
L 417.031296 86.098202 
L 417.432915 87.320811 
L 417.834533 86.945971 
L 418.236151 87.046725 
L 418.637769 87.435578 
L 419.441005 88.552714 
L 419.842623 88.622529 
L 420.244241 87.873335 
L 420.645859 87.6959 
L 421.047477 87.343478 
L 421.850714 88.040316 
L 422.65395 88.042863 
L 423.055568 87.122628 
L 423.457186 87.086644 
L 423.858804 87.413504 
L 424.66204 88.425308 
L 425.063658 88.465058 
L 425.465276 88.179648 
L 425.866894 88.959016 
L 426.268513 89.059388 
L 426.670131 89.735652 
L 427.071749 89.345251 
L 427.473367 89.368776 
L 427.874985 87.945604 
L 428.276603 87.461979 
L 428.678221 88.086635 
L 429.079839 90.052471 
L 429.481457 88.959164 
L 429.883075 88.298308 
L 430.686312 88.126096 
L 431.08793 88.442815 
L 431.489548 89.066011 
L 432.292784 89.855213 
L 432.694402 90.306175 
L 433.09602 89.9708 
L 433.497638 89.848295 
L 434.300874 91.263312 
L 434.702492 91.013598 
L 435.104111 90.524177 
L 435.907347 90.220415 
L 436.308965 89.854206 
L 436.710583 90.158433 
L 437.112201 89.65257 
L 437.513819 89.909536 
L 437.915437 90.905488 
L 438.317055 91.184933 
L 439.52191 89.291461 
L 439.923528 89.469172 
L 440.726764 91.188233 
L 441.128382 91.860029 
L 441.53 91.368465 
L 441.931618 91.21457 
L 442.734854 92.26677 
L 443.136472 93.220095 
L 443.53809 93.33671 
L 444.742945 92.620383 
L 445.144563 92.225291 
L 445.546181 92.943873 
L 445.947799 92.121363 
L 446.349417 92.926643 
L 446.751035 92.664056 
L 447.152653 93.578381 
L 447.554271 93.967122 
L 447.955889 95.766779 
L 448.357508 96.607007 
L 448.759126 97.007027 
L 449.160744 97.621572 
L 449.562362 98.791235 
L 449.96398 99.282738 
L 450.767216 100.85143 
L 451.168834 101.134535 
L 451.570452 101.840215 
L 451.97207 102.148973 
L 452.775307 103.229008 
L 453.176925 103.551477 
L 453.578543 104.595885 
L 453.980161 104.998494 
L 454.381779 105.824306 
L 454.783397 106.109653 
L 455.185015 107.288888 
L 455.586633 107.655893 
L 455.988251 108.903646 
L 456.791487 110.387716 
L 457.193106 111.493861 
L 457.996342 111.7255 
L 458.799578 113.52018 
L 459.602814 116.856608 
L 461.610905 122.422478 
L 462.012523 121.286718 
L 463.618995 123.889904 
L 464.422231 127.883243 
L 465.225467 130.728027 
L 466.028704 134.604157 
L 466.83194 136.042399 
L 467.233558 137.174868 
L 467.635176 138.684647 
L 468.84003 142.170386 
L 470.446503 146.988311 
L 470.848121 147.642166 
L 471.651357 149.789305 
L 472.454593 150.350731 
L 472.856211 151.899561 
L 473.257829 152.91256 
L 473.659447 151.971594 
L 474.061065 152.385211 
L 474.462683 153.18338 
L 474.864302 155.137007 
L 475.26592 156.352798 
L 475.667538 158.0757 
L 476.069156 159.036013 
L 476.872392 162.834776 
L 477.27401 163.670874 
L 478.077246 166.599645 
L 478.478864 166.204563 
L 479.683719 168.608162 
L 480.085337 168.500012 
L 481.290191 170.679504 
L 481.691809 172.519761 
L 482.093427 175.958844 
L 482.495045 176.653621 
L 482.896663 177.734442 
L 483.699899 180.372715 
L 484.101518 180.881012 
L 484.503136 181.139747 
L 485.306372 183.508107 
L 485.70799 184.018325 
L 486.511226 186.335481 
L 486.912844 187.239965 
L 487.314462 187.679005 
L 487.71608 187.939812 
L 488.117698 187.903057 
L 488.920935 189.064477 
L 489.322553 188.10212 
L 489.724171 188.17417 
L 490.527407 188.752304 
L 490.929025 188.630802 
L 491.330643 189.56404 
L 491.732261 189.369219 
L 492.937116 191.690021 
L 493.338734 191.892408 
L 493.740352 194.457831 
L 494.14197 195.890874 
L 494.945206 197.584726 
L 495.748442 199.193994 
L 496.15006 199.93836 
L 496.551678 199.414729 
L 496.953296 199.733478 
L 497.756533 201.93013 
L 498.158151 201.914591 
L 498.559769 203.134551 
L 498.961387 203.483119 
L 499.363005 203.183714 
L 499.764623 203.329185 
L 501.371095 206.272194 
L 501.772714 206.182777 
L 502.174332 206.521134 
L 502.57595 207.811017 
L 502.977568 207.87768 
L 503.379186 207.401125 
L 504.58404 207.786614 
L 504.985658 207.749883 
L 505.387276 206.56359 
L 505.788894 206.45683 
L 506.190513 204.935537 
L 507.395367 206.712667 
L 507.796985 207.548272 
L 508.198603 208.816661 
L 509.001839 209.723884 
L 509.403457 211.991632 
L 509.805075 213.396044 
L 510.608312 215.143318 
L 511.00993 216.875622 
L 511.411548 217.485832 
L 512.214784 219.465004 
L 512.616402 220.06013 
L 513.01802 220.434281 
L 513.419638 220.097956 
L 513.821256 219.219847 
L 514.222874 219.23148 
L 514.624492 219.389238 
L 515.026111 219.272841 
L 515.829347 219.567199 
L 516.230965 219.350989 
L 517.034201 219.838125 
L 517.435819 219.846363 
L 518.640673 221.594512 
L 519.44391 224.081382 
L 519.845528 225.282814 
L 520.247146 226.064067 
L 520.648764 226.228371 
L 521.050382 226.621392 
L 521.452 226.837967 
L 522.255236 227.916611 
L 522.656854 227.729907 
L 523.058472 228.631913 
L 523.46009 230.10021 
L 525.066563 234.262169 
L 525.468181 236.445428 
L 525.869799 237.47111 
L 526.271417 239.454874 
L 526.673035 240.086392 
L 527.074653 241.254185 
L 527.476271 241.776932 
L 527.877889 242.039925 
L 528.279508 242.524159 
L 528.681126 242.780857 
L 529.082744 243.752743 
L 529.88598 244.910469 
L 530.287598 245.029413 
L 531.090834 246.265415 
L 531.492452 246.123776 
L 532.295688 246.923169 
L 532.697307 246.800283 
L 533.098925 247.734409 
L 533.902161 252.134348 
L 534.303779 252.488282 
L 534.705397 253.29669 
L 535.107015 254.756925 
L 535.910251 256.111881 
L 536.713487 259.849089 
L 537.115106 260.391118 
L 537.516724 261.216875 
L 537.918342 260.53164 
L 538.721578 262.755723 
L 539.123196 262.871649 
L 539.524814 263.647079 
L 539.926432 263.661154 
L 540.32805 264.338065 
L 540.729668 264.755648 
L 541.532905 266.574286 
L 541.934523 266.828073 
L 542.336141 267.465585 
L 543.139377 269.70548 
L 544.344231 272.088907 
L 544.745849 273.161304 
L 545.147467 273.271109 
L 545.549085 274.01724 
L 545.950704 273.786634 
L 546.352322 274.755254 
L 547.155558 275.288144 
L 547.557176 276.15219 
L 547.958794 277.380127 
L 548.360412 278.022268 
L 548.76203 279.261544 
L 549.163648 279.391871 
L 549.966884 280.058676 
L 550.368503 280.336262 
L 550.770121 280.181272 
L 551.171739 279.863032 
L 552.376593 283.052775 
L 552.778211 284.750706 
L 553.179829 285.589513 
L 553.581447 286.140338 
L 553.983065 286.200377 
L 554.384683 287.679417 
L 554.786302 288.584977 
L 555.18792 288.574056 
L 555.991156 289.215888 
L 556.392774 288.916533 
L 556.794392 289.144453 
L 557.19601 289.977396 
L 557.597628 290.182412 
L 557.999246 291.291454 
L 558.802482 291.833517 
L 559.204101 293.124277 
L 559.605719 293.769958 
L 560.408955 296.561362 
L 560.810573 297.675871 
L 561.212191 298.179669 
L 562.417045 301.09366 
L 562.818663 300.669398 
L 563.220281 300.480381 
L 563.621899 300.638337 
L 564.023518 300.360232 
L 564.425136 300.375241 
L 565.228372 300.92733 
L 565.62999 301.564814 
L 566.031608 302.939365 
L 566.433226 302.960854 
L 567.236462 305.242216 
L 567.63808 305.338764 
L 568.039698 304.630032 
L 568.441317 304.343745 
L 568.842935 304.685275 
L 569.244553 304.669148 
L 569.646171 304.800315 
L 570.047789 305.799454 
L 571.252643 310.23118 
L 571.654261 310.402736 
L 572.457497 311.493999 
L 572.859116 311.972215 
L 573.260734 310.543376 
L 574.06397 310.885645 
L 574.867206 310.960168 
L 575.268824 311.704713 
L 575.670442 312.07067 
L 576.473678 313.86385 
L 576.875296 313.907668 
L 577.678533 314.922256 
L 578.080151 316.170506 
L 578.481769 316.435835 
L 578.883387 317.066878 
L 579.285005 317.121832 
L 579.686623 316.669191 
L 580.088241 316.581113 
L 580.489859 315.758091 
L 581.293095 316.756832 
L 581.694714 317.400695 
L 582.096332 317.780638 
L 582.49795 318.427923 
L 583.301186 320.646411 
L 584.907658 322.870666 
L 585.309276 323.068515 
L 585.710894 323.007065 
L 586.112513 323.345295 
L 586.514131 324.475269 
L 586.915749 324.500885 
L 587.317367 324.866189 
L 587.718985 325.692674 
L 588.522221 328.809836 
L 588.923839 329.071707 
L 589.727075 331.096238 
L 590.128693 331.336681 
L 590.530312 331.264502 
L 590.93193 332.008194 
L 591.333548 332.067226 
L 591.735166 332.687275 
L 592.94002 332.039459 
L 593.341638 333.455726 
L 593.743256 333.962975 
L 594.144874 334.913917 
L 595.751347 336.653852 
L 596.152965 336.808869 
L 596.554583 336.827202 
L 596.956201 337.286664 
L 597.357819 337.300116 
L 597.759437 338.018718 
L 598.161055 338.254999 
L 598.562673 339.283906 
L 599.36591 339.997754 
L 599.767528 341.37192 
L 600.570764 343.126752 
L 600.972382 343.3243 
L 601.374 343.305761 
L 601.775618 343.15789 
L 602.578854 343.54861 
L 602.980472 343.564825 
L 603.38209 343.374445 
L 603.783709 343.736867 
L 604.185327 344.390437 
L 604.586945 344.712821 
L 604.988563 344.586842 
L 605.791799 345.609495 
L 606.193417 345.530316 
L 607.398271 346.145634 
L 608.201508 346.361912 
L 608.603126 346.171162 
L 609.406362 346.884246 
L 610.209598 346.811524 
L 610.611216 347.332319 
L 611.012834 347.139565 
L 611.414452 346.306264 
L 611.81607 346.582178 
L 612.217688 347.458166 
L 613.020925 347.992242 
L 613.824161 349.235568 
L 614.225779 349.271233 
L 614.627397 349.493477 
L 615.029015 349.311749 
L 616.635487 350.220742 
L 617.037106 350.697972 
L 617.438724 350.973429 
L 617.840342 350.675792 
L 618.24196 350.523297 
L 618.643578 350.515445 
L 619.045196 350.359538 
L 619.446814 350.643421 
L 620.25005 350.615263 
L 620.651668 350.947239 
L 622.258141 351.216083 
L 623.061377 351.961032 
L 623.462995 352.492274 
L 624.266231 352.224998 
L 624.667849 351.845796 
L 625.069467 351.996242 
L 625.471085 351.279608 
L 625.872704 350.974678 
L 626.274322 351.211388 
L 626.67594 351.035057 
L 627.077558 350.992168 
L 627.479176 350.807473 
L 627.880794 350.274836 
L 628.282412 350.297388 
L 628.68403 350.539865 
L 629.487266 349.926951 
L 629.888884 349.995251 
L 630.290503 350.397246 
L 631.093739 350.20964 
L 631.495357 351.287376 
L 631.896975 351.580657 
L 632.298593 351.669915 
L 633.101829 352.306345 
L 635.511538 352.32489 
L 636.314774 352.418333 
L 636.716392 352.718426 
L 637.519628 352.937678 
L 638.322864 353.685054 
L 638.724482 353.620349 
L 639.126101 353.909199 
L 639.527719 353.635613 
L 639.929337 353.864466 
L 640.330955 353.864278 
L 641.134191 354.542055 
L 641.535809 354.273718 
L 642.339045 354.448762 
L 642.740663 354.354577 
L 643.142281 354.418925 
L 643.543899 354.294358 
L 643.945518 353.972321 
L 644.748754 354.708317 
L 645.150372 354.943997 
L 645.55199 356.367026 
L 645.953608 356.892284 
L 646.756844 356.988211 
L 647.56008 357.368415 
L 647.961698 358.286454 
L 648.363317 358.711242 
L 648.764935 358.903759 
L 649.166553 359.28887 
L 649.969789 359.673383 
L 650.371407 359.523838 
L 650.773025 359.012334 
L 651.174643 359.09292 
L 651.977879 359.467177 
L 652.379497 359.382145 
L 652.781116 359.804181 
L 653.182734 359.67995 
L 653.584352 360.038208 
L 653.98597 359.999555 
L 654.789206 360.428529 
L 655.190824 360.815449 
L 655.99406 360.711288 
L 656.395678 361.079756 
L 657.198915 360.696032 
L 657.600533 360.692913 
L 658.002151 360.500579 
L 658.403769 360.518003 
L 659.207005 361.172939 
L 659.608623 361.639989 
L 661.215095 359.847758 
L 661.616714 360.376162 
L 662.018332 360.179948 
L 662.821568 360.479853 
L 663.624804 361.013855 
L 664.026422 361.607906 
L 664.829658 361.865014 
L 665.231276 362.264759 
L 665.632894 362.304294 
L 666.034513 362.060272 
L 666.436131 362.508512 
L 666.837749 362.668004 
L 667.239367 363.014337 
L 667.640985 363.179444 
L 668.042603 363.067894 
L 668.444221 362.717071 
L 668.845839 362.581823 
L 669.247457 362.653154 
L 670.452312 363.168124 
L 670.85393 363.970202 
L 671.255548 364.346424 
L 671.657166 364.2735 
L 672.058784 363.637545 
L 672.460402 363.906513 
L 672.86202 363.629936 
L 673.263638 363.908057 
L 674.468492 364.132121 
L 674.870111 363.974845 
L 676.074965 364.706336 
L 676.476583 364.539405 
L 676.878201 364.603964 
L 677.279819 364.890743 
L 677.681437 364.882321 
L 678.083055 365.193861 
L 679.28791 364.950309 
L 679.689528 364.767027 
L 680.091146 365.217229 
L 680.894382 366.50075 
L 681.697618 366.4309 
L 682.099236 366.81853 
L 682.500854 366.887303 
L 682.902472 366.620834 
L 683.705709 366.873207 
L 684.107327 366.570674 
L 684.910563 367.107927 
L 685.312181 366.659234 
L 685.713799 366.737702 
L 686.115417 366.949696 
L 686.517035 366.768087 
L 688.123508 366.680425 
L 688.926744 367.167145 
L 689.72998 366.928849 
L 690.131598 366.445564 
L 691.336452 366.573419 
L 691.73807 366.70522 
L 692.139688 367.132784 
L 692.541307 367.01149 
L 693.344543 367.529684 
L 693.746161 367.410241 
L 694.549397 367.542475 
L 695.352633 367.125547 
L 695.754251 367.475351 
L 696.155869 367.38906 
L 696.959106 367.936451 
L 697.360724 367.721106 
L 697.762342 367.901082 
L 698.16396 367.783287 
L 698.565578 368.076555 
L 698.967196 368.102075 
L 699.368814 367.908646 
L 700.17205 367.881222 
L 700.573668 368.084022 
L 700.975286 368.112907 
L 701.778523 368.66546 
L 702.180141 368.774029 
L 703.384995 368.805271 
L 703.786613 368.557584 
L 704.188231 368.651934 
L 704.589849 368.283975 
L 704.991467 368.353042 
L 705.794704 368.740609 
L 706.196322 368.883475 
L 706.999558 368.801842 
L 709.007648 369.190313 
L 709.409266 369.413683 
L 709.810884 369.47346 
L 710.212503 370.113531 
L 711.818975 370.37854 
L 712.622211 370.920495 
L 713.023829 371.149328 
L 713.425447 371.023996 
L 714.228683 371.11099 
L 714.630302 371.2639 
L 715.03192 371.949472 
L 715.433538 372.014397 
L 715.835156 371.747174 
L 716.236774 371.81857 
L 716.638392 371.374488 
L 717.441628 371.594711 
L 717.843246 371.691333 
L 718.244864 371.959759 
L 718.646482 371.872179 
L 719.048101 372.198476 
L 719.449719 372.369913 
L 719.851337 372.873563 
L 720.252955 373.070977 
L 720.654573 373.069849 
L 721.457809 373.351928 
L 721.859427 373.325806 
L 722.261045 373.025153 
L 722.662663 373.018902 
L 723.465899 373.438171 
L 723.867518 373.538751 
L 724.670754 374.306664 
L 725.072372 374.203615 
L 725.47399 374.382221 
L 726.277226 374.262779 
L 726.678844 374.408038 
L 727.080462 374.835843 
L 727.48208 375.040351 
L 727.883698 374.96667 
L 728.285317 375.349586 
L 728.686935 375.577123 
L 729.088553 375.282396 
L 729.490171 375.471575 
L 729.891789 375.78843 
L 730.293407 375.711268 
L 730.695025 375.804586 
L 731.096643 375.592981 
L 731.498261 375.639976 
L 732.301497 375.502038 
L 732.703116 375.716948 
L 733.104734 375.543128 
L 733.506352 375.547182 
L 733.90797 375.37294 
L 734.309588 375.337575 
L 735.514442 375.538464 
L 735.91606 375.473609 
L 736.317678 375.245291 
L 736.719296 375.704126 
L 737.120915 375.336069 
L 737.924151 375.695122 
L 739.129005 375.434413 
L 739.530623 375.59808 
L 739.932241 375.364039 
L 740.333859 374.959761 
L 740.735477 375.157861 
L 741.137095 374.744306 
L 741.940332 374.778718 
L 743.546804 374.914262 
L 743.948422 374.820596 
L 744.35004 374.479694 
L 745.153276 374.798648 
L 745.554894 374.550817 
L 746.759749 375.125881 
L 747.562985 374.664184 
L 748.366221 374.463636 
L 749.169457 373.975248 
L 749.571075 373.971512 
L 749.972693 373.399602 
L 750.374312 373.478869 
L 750.77593 373.683549 
L 751.177548 374.192589 
L 751.980784 374.529032 
L 752.382402 374.160252 
L 752.78402 374.119153 
L 753.185638 374.393218 
L 753.587256 374.340174 
L 753.988874 374.868428 
L 754.390492 374.935712 
L 755.193729 374.717879 
L 755.595347 374.682849 
L 755.996965 374.971108 
L 756.398583 375.611176 
L 756.800201 375.253079 
L 757.201819 375.506132 
L 758.005055 375.658423 
L 758.406673 375.927843 
L 759.20991 376.053632 
L 759.611528 376.16873 
L 760.013146 376.161219 
L 760.414764 376.811191 
L 760.816382 376.811348 
L 761.218 377.216786 
L 762.021236 377.23781 
L 764.430945 378.133217 
L 765.234181 377.979781 
L 766.037417 378.257333 
L 766.840653 378.512757 
L 767.643889 378.879409 
L 768.045508 378.841411 
L 768.848744 379.338175 
L 769.250362 379.812349 
L 769.65198 379.508642 
L 770.053598 380.043919 
L 772.061688 379.40878 
L 772.463307 379.956135 
L 773.266543 379.699113 
L 773.668161 379.872885 
L 774.069779 379.780893 
L 775.676251 380.317825 
L 776.077869 380.382793 
L 776.479487 380.248418 
L 777.282724 381.056882 
L 777.684342 381.175378 
L 779.290814 381.205581 
L 779.692432 381.024112 
L 780.09405 381.364461 
L 780.495668 381.225724 
L 781.298905 381.375422 
L 781.700523 381.430658 
L 782.503759 381.995175 
L 783.306995 382.164608 
L 784.110231 382.486262 
L 784.913467 383.011798 
L 785.315085 382.901042 
L 785.716704 383.084801 
L 786.118322 382.881147 
L 786.51994 383.017844 
L 786.921558 382.831988 
L 787.724794 382.658895 
L 788.126412 383.019144 
L 788.52803 382.826846 
L 789.331266 383.096626 
L 789.732884 383.562146 
L 790.134503 383.783946 
L 790.536121 384.17505 
L 790.937739 384.367891 
L 791.740975 384.209709 
L 792.142593 384.379144 
L 792.544211 384.333658 
L 792.945829 384.429641 
L 793.347447 384.780309 
L 794.150683 384.745083 
L 795.757156 385.12176 
L 796.158774 384.973006 
L 796.96201 385.03855 
L 797.765246 384.414974 
L 798.166864 384.394274 
L 798.568482 384.554619 
L 798.970101 384.435486 
L 799.371719 384.758882 
L 800.174955 384.978653 
L 800.576573 384.83376 
L 801.379809 384.358003 
L 801.781427 384.258295 
L 802.183045 383.953946 
L 802.584663 383.983532 
L 802.986281 384.132376 
L 803.789518 383.846048 
L 804.191136 383.950825 
L 804.994372 383.693932 
L 805.797608 383.819943 
L 806.199226 384.162551 
L 806.600844 384.041778 
L 807.40408 384.431175 
L 807.805698 384.67378 
L 808.207317 384.410767 
L 808.608935 384.698765 
L 809.010553 384.545662 
L 809.813789 384.636631 
L 810.617025 384.418212 
L 811.018643 384.433816 
L 811.420261 384.639249 
L 811.821879 385.026052 
L 814.231588 384.792151 
L 814.633206 384.251031 
L 815.83806 384.399813 
L 816.239678 384.679481 
L 816.641296 384.521254 
L 817.042915 384.586263 
L 817.846151 385.333436 
L 818.247769 385.453122 
L 818.649387 385.440134 
L 819.051005 385.8141 
L 819.452623 385.704442 
L 819.854241 385.836309 
L 820.255859 385.703307 
L 821.059095 386.241818 
L 821.059095 386.241818 
" clip-path="url(#p41bfe06627)" style="fill: none; stroke-dasharray: 7.4,3.2; stroke-dashoffset: 0; stroke: #000000; stroke-width: 2"/>
   </g>
   <g id="patch_3">
    <path d="M 41.92 404.12 
L 41.92 10.8 
" style="fill: none; stroke: #000000; stroke-width: 0.8; stroke-linejoin: miter; stroke-linecap: square"/>
   </g>
   <g id="patch_4">
    <path d="M 841.14 404.12 
L 841.14 10.8 
" style="fill: none; stroke: #000000; stroke-width: 0.8; stroke-linejoin: miter; stroke-linecap: square"/>
   </g>
   <g id="patch_5">
    <path d="M 41.92 404.12 
L 841.14 404.12 
" style="fill: none; stroke: #000000; stroke-width: 0.8; stroke-linejoin: miter; stroke-linecap: square"/>
   </g>
   <g id="patch_6">
    <path d="M 41.92 10.8 
L 841.14 10.8 
" style="fill: none; stroke: #000000; stroke-width: 0.8; stroke-linejoin: miter; stroke-linecap: square"/>
   </g>
  </g>
 </g>
 <defs>
  <clipPath id="p41bfe06627">
   <rect x="41.92" y="10.8" width="799.22" height="393.32"/>
  </clipPath>
 </defs>
</svg>
