<?xml version="1.0" encoding="utf-8" standalone="no"?>
<!DOCTYPE svg PUBLIC "-//W3C//DTD SVG 1.1//EN"
  "http://www.w3.org/Graphics/SVG/1.1/DTD/svg11.dtd">
<svg xmlns:xlink="http://www.w3.org/1999/xlink" width="864pt" height="432pt" viewBox="0 0 864 432" xmlns="http://www.w3.org/2000/svg" version="1.1">
 <metadata>
  <rdf:RDF xmlns:dc="http://purl.org/dc/elements/1.1/" xmlns:cc="http://creativecommons.org/ns#" xmlns:rdf="http://www.w3.org/1999/02/22-rdf-syntax-ns#">
   <cc:Work>
    <dc:type rdf:resource="http://purl.org/dc/dcmitype/StillImage"/>
    <dc:date>2024-09-16T10:39:00.048317</dc:date>
    <dc:format>image/svg+xml</dc:format>
    <dc:creator>
     <cc:Agent>
      <dc:title>Matplotlib v3.9.2, https://matplotlib.org/</dc:title>
     </cc:Agent>
    </dc:creator>
   </cc:Work>
  </rdf:RDF>
 </metadata>
 <defs>
  <style type="text/css">*{stroke-linejoin: round; stroke-linecap: butt}</style>
 </defs>
 <g id="figure_1">
  <g id="patch_1">
   <path d="M 0 432 
L 864 432 
L 864 0 
L 0 0 
z
" style="fill: #ffffff"/>
  </g>
  <g id="axes_1">
   <g id="patch_2">
    <path d="M 35.89 404.12 
L 841.14 404.12 
L 841.14 10.8 
L 35.89 10.8 
z
" style="fill: #ffffff"/>
   </g>
   <g id="matplotlib.axis_1">
    <g id="xtick_1">
     <g id="line2d_1">
      <defs>
       <path id="mb9ecf4aecc" d="M 0 0 
L 0 3.5 
" style="stroke: #000000; stroke-width: 0.8"/>
      </defs>
      <g>
       <use xlink:href="#mb9ecf4aecc" x="133.005578" y="404.12" style="stroke: #000000; stroke-width: 0.8"/>
      </g>
     </g>
     <g id="text_1">
      <!-- 250 -->
      <g transform="translate(123.975109 418.771563) scale(0.1 -0.1)">
       <defs>
        <path id="DejaVuSansMono-32" d="M 1166 531 
L 3309 531 
L 3309 0 
L 475 0 
L 475 531 
Q 1059 1147 1496 1619 
Q 1934 2091 2100 2284 
Q 2413 2666 2522 2902 
Q 2631 3138 2631 3384 
Q 2631 3775 2401 3997 
Q 2172 4219 1772 4219 
Q 1488 4219 1175 4116 
Q 863 4013 513 3803 
L 513 4441 
Q 834 4594 1145 4672 
Q 1456 4750 1759 4750 
Q 2444 4750 2861 4386 
Q 3278 4022 3278 3431 
Q 3278 3131 3139 2831 
Q 3000 2531 2688 2169 
Q 2513 1966 2180 1606 
Q 1847 1247 1166 531 
z
" transform="scale(0.015625)"/>
        <path id="DejaVuSansMono-35" d="M 647 4666 
L 3009 4666 
L 3009 4134 
L 1222 4134 
L 1222 2988 
Q 1356 3038 1492 3061 
Q 1628 3084 1766 3084 
Q 2491 3084 2916 2656 
Q 3341 2228 3341 1497 
Q 3341 759 2895 334 
Q 2450 -91 1678 -91 
Q 1306 -91 998 -41 
Q 691 9 447 109 
L 447 750 
Q 734 594 1025 517 
Q 1316 441 1619 441 
Q 2141 441 2423 716 
Q 2706 991 2706 1497 
Q 2706 1997 2414 2275 
Q 2122 2553 1600 2553 
Q 1347 2553 1106 2495 
Q 866 2438 647 2322 
L 647 4666 
z
" transform="scale(0.015625)"/>
        <path id="DejaVuSansMono-30" d="M 1509 2344 
Q 1509 2516 1629 2641 
Q 1750 2766 1919 2766 
Q 2094 2766 2219 2641 
Q 2344 2516 2344 2344 
Q 2344 2169 2220 2047 
Q 2097 1925 1919 1925 
Q 1744 1925 1626 2044 
Q 1509 2163 1509 2344 
z
M 1925 4250 
Q 1484 4250 1267 3775 
Q 1050 3300 1050 2328 
Q 1050 1359 1267 884 
Q 1484 409 1925 409 
Q 2369 409 2586 884 
Q 2803 1359 2803 2328 
Q 2803 3300 2586 3775 
Q 2369 4250 1925 4250 
z
M 1925 4750 
Q 2672 4750 3055 4137 
Q 3438 3525 3438 2328 
Q 3438 1134 3055 521 
Q 2672 -91 1925 -91 
Q 1178 -91 797 521 
Q 416 1134 416 2328 
Q 416 3525 797 4137 
Q 1178 4750 1925 4750 
z
" transform="scale(0.015625)"/>
       </defs>
       <use xlink:href="#DejaVuSansMono-32"/>
       <use xlink:href="#DejaVuSansMono-35" x="60.205078"/>
       <use xlink:href="#DejaVuSansMono-30" x="120.410156"/>
      </g>
     </g>
    </g>
    <g id="xtick_2">
     <g id="line2d_2">
      <g>
       <use xlink:href="#mb9ecf4aecc" x="234.167638" y="404.12" style="stroke: #000000; stroke-width: 0.8"/>
      </g>
     </g>
     <g id="text_2">
      <!-- 500 -->
      <g transform="translate(225.137169 418.771563) scale(0.1 -0.1)">
       <use xlink:href="#DejaVuSansMono-35"/>
       <use xlink:href="#DejaVuSansMono-30" x="60.205078"/>
       <use xlink:href="#DejaVuSansMono-30" x="120.410156"/>
      </g>
     </g>
    </g>
    <g id="xtick_3">
     <g id="line2d_3">
      <g>
       <use xlink:href="#mb9ecf4aecc" x="335.329698" y="404.12" style="stroke: #000000; stroke-width: 0.8"/>
      </g>
     </g>
     <g id="text_3">
      <!-- 750 -->
      <g transform="translate(326.29923 418.771563) scale(0.1 -0.1)">
       <defs>
        <path id="DejaVuSansMono-37" d="M 434 4666 
L 3372 4666 
L 3372 4397 
L 1703 0 
L 1044 0 
L 2669 4134 
L 434 4134 
L 434 4666 
z
" transform="scale(0.015625)"/>
       </defs>
       <use xlink:href="#DejaVuSansMono-37"/>
       <use xlink:href="#DejaVuSansMono-35" x="60.205078"/>
       <use xlink:href="#DejaVuSansMono-30" x="120.410156"/>
      </g>
     </g>
    </g>
    <g id="xtick_4">
     <g id="line2d_4">
      <g>
       <use xlink:href="#mb9ecf4aecc" x="436.491759" y="404.12" style="stroke: #000000; stroke-width: 0.8"/>
      </g>
     </g>
     <g id="text_4">
      <!-- 1000 -->
      <g transform="translate(424.451134 418.771563) scale(0.1 -0.1)">
       <defs>
        <path id="DejaVuSansMono-31" d="M 844 531 
L 1825 531 
L 1825 4097 
L 769 3859 
L 769 4434 
L 1819 4666 
L 2450 4666 
L 2450 531 
L 3419 531 
L 3419 0 
L 844 0 
L 844 531 
z
" transform="scale(0.015625)"/>
       </defs>
       <use xlink:href="#DejaVuSansMono-31"/>
       <use xlink:href="#DejaVuSansMono-30" x="60.205078"/>
       <use xlink:href="#DejaVuSansMono-30" x="120.410156"/>
       <use xlink:href="#DejaVuSansMono-30" x="180.615234"/>
      </g>
     </g>
    </g>
    <g id="xtick_5">
     <g id="line2d_5">
      <g>
       <use xlink:href="#mb9ecf4aecc" x="537.653819" y="404.12" style="stroke: #000000; stroke-width: 0.8"/>
      </g>
     </g>
     <g id="text_5">
      <!-- 1250 -->
      <g transform="translate(525.613194 418.771563) scale(0.1 -0.1)">
       <use xlink:href="#DejaVuSansMono-31"/>
       <use xlink:href="#DejaVuSansMono-32" x="60.205078"/>
       <use xlink:href="#DejaVuSansMono-35" x="120.410156"/>
       <use xlink:href="#DejaVuSansMono-30" x="180.615234"/>
      </g>
     </g>
    </g>
    <g id="xtick_6">
     <g id="line2d_6">
      <g>
       <use xlink:href="#mb9ecf4aecc" x="638.815879" y="404.12" style="stroke: #000000; stroke-width: 0.8"/>
      </g>
     </g>
     <g id="text_6">
      <!-- 1500 -->
      <g transform="translate(626.775254 418.771563) scale(0.1 -0.1)">
       <use xlink:href="#DejaVuSansMono-31"/>
       <use xlink:href="#DejaVuSansMono-35" x="60.205078"/>
       <use xlink:href="#DejaVuSansMono-30" x="120.410156"/>
       <use xlink:href="#DejaVuSansMono-30" x="180.615234"/>
      </g>
     </g>
    </g>
    <g id="xtick_7">
     <g id="line2d_7">
      <g>
       <use xlink:href="#mb9ecf4aecc" x="739.97794" y="404.12" style="stroke: #000000; stroke-width: 0.8"/>
      </g>
     </g>
     <g id="text_7">
      <!-- 1750 -->
      <g transform="translate(727.937315 418.771563) scale(0.1 -0.1)">
       <use xlink:href="#DejaVuSansMono-31"/>
       <use xlink:href="#DejaVuSansMono-37" x="60.205078"/>
       <use xlink:href="#DejaVuSansMono-35" x="120.410156"/>
       <use xlink:href="#DejaVuSansMono-30" x="180.615234"/>
      </g>
     </g>
    </g>
    <g id="xtick_8">
     <g id="line2d_8">
      <g>
       <use xlink:href="#mb9ecf4aecc" x="841.14" y="404.12" style="stroke: #000000; stroke-width: 0.8"/>
      </g>
     </g>
     <g id="text_8">
      <!-- 2000 -->
      <g transform="translate(829.099375 418.771563) scale(0.1 -0.1)">
       <use xlink:href="#DejaVuSansMono-32"/>
       <use xlink:href="#DejaVuSansMono-30" x="60.205078"/>
       <use xlink:href="#DejaVuSansMono-30" x="120.410156"/>
       <use xlink:href="#DejaVuSansMono-30" x="180.615234"/>
      </g>
     </g>
    </g>
   </g>
   <g id="matplotlib.axis_2">
    <g id="ytick_1">
     <g id="line2d_9">
      <defs>
       <path id="m10417d6d2a" d="M 0 0 
L -3.5 0 
" style="stroke: #000000; stroke-width: 0.8"/>
      </defs>
      <g>
       <use xlink:href="#m10417d6d2a" x="35.89" y="386.241818" style="stroke: #000000; stroke-width: 0.8"/>
      </g>
     </g>
     <g id="text_9">
      <!-- 0.0 -->
      <g transform="translate(10.829063 390.067599) scale(0.1 -0.1)">
       <defs>
        <path id="DejaVuSansMono-2e" d="M 1528 953 
L 2316 953 
L 2316 0 
L 1528 0 
L 1528 953 
z
" transform="scale(0.015625)"/>
       </defs>
       <use xlink:href="#DejaVuSansMono-30"/>
       <use xlink:href="#DejaVuSansMono-2e" x="60.205078"/>
       <use xlink:href="#DejaVuSansMono-30" x="120.410156"/>
      </g>
     </g>
    </g>
    <g id="ytick_2">
     <g id="line2d_10">
      <g>
       <use xlink:href="#m10417d6d2a" x="35.89" y="313.559532" style="stroke: #000000; stroke-width: 0.8"/>
      </g>
     </g>
     <g id="text_10">
      <!-- 0.2 -->
      <g transform="translate(10.829063 317.385313) scale(0.1 -0.1)">
       <use xlink:href="#DejaVuSansMono-30"/>
       <use xlink:href="#DejaVuSansMono-2e" x="60.205078"/>
       <use xlink:href="#DejaVuSansMono-32" x="120.410156"/>
      </g>
     </g>
    </g>
    <g id="ytick_3">
     <g id="line2d_11">
      <g>
       <use xlink:href="#m10417d6d2a" x="35.89" y="240.877245" style="stroke: #000000; stroke-width: 0.8"/>
      </g>
     </g>
     <g id="text_11">
      <!-- 0.4 -->
      <g transform="translate(10.829063 244.703027) scale(0.1 -0.1)">
       <defs>
        <path id="DejaVuSansMono-34" d="M 2297 4091 
L 825 1625 
L 2297 1625 
L 2297 4091 
z
M 2194 4666 
L 2925 4666 
L 2925 1625 
L 3547 1625 
L 3547 1113 
L 2925 1113 
L 2925 0 
L 2297 0 
L 2297 1113 
L 319 1113 
L 319 1709 
L 2194 4666 
z
" transform="scale(0.015625)"/>
       </defs>
       <use xlink:href="#DejaVuSansMono-30"/>
       <use xlink:href="#DejaVuSansMono-2e" x="60.205078"/>
       <use xlink:href="#DejaVuSansMono-34" x="120.410156"/>
      </g>
     </g>
    </g>
    <g id="ytick_4">
     <g id="line2d_12">
      <g>
       <use xlink:href="#m10417d6d2a" x="35.89" y="168.194959" style="stroke: #000000; stroke-width: 0.8"/>
      </g>
     </g>
     <g id="text_12">
      <!-- 0.6 -->
      <g transform="translate(10.829063 172.02074) scale(0.1 -0.1)">
       <defs>
        <path id="DejaVuSansMono-36" d="M 3097 4563 
L 3097 3981 
Q 2900 4097 2678 4158 
Q 2456 4219 2216 4219 
Q 1616 4219 1306 3767 
Q 997 3316 997 2438 
Q 1147 2750 1412 2917 
Q 1678 3084 2022 3084 
Q 2697 3084 3067 2670 
Q 3438 2256 3438 1497 
Q 3438 741 3056 325 
Q 2675 -91 1984 -91 
Q 1172 -91 794 492 
Q 416 1075 416 2328 
Q 416 3509 870 4129 
Q 1325 4750 2188 4750 
Q 2419 4750 2650 4701 
Q 2881 4653 3097 4563 
z
M 1972 2591 
Q 1569 2591 1337 2300 
Q 1106 2009 1106 1497 
Q 1106 984 1337 693 
Q 1569 403 1972 403 
Q 2391 403 2603 679 
Q 2816 956 2816 1497 
Q 2816 2041 2603 2316 
Q 2391 2591 1972 2591 
z
" transform="scale(0.015625)"/>
       </defs>
       <use xlink:href="#DejaVuSansMono-30"/>
       <use xlink:href="#DejaVuSansMono-2e" x="60.205078"/>
       <use xlink:href="#DejaVuSansMono-36" x="120.410156"/>
      </g>
     </g>
    </g>
    <g id="ytick_5">
     <g id="line2d_13">
      <g>
       <use xlink:href="#m10417d6d2a" x="35.89" y="95.512672" style="stroke: #000000; stroke-width: 0.8"/>
      </g>
     </g>
     <g id="text_13">
      <!-- 0.8 -->
      <g transform="translate(10.829063 99.338454) scale(0.1 -0.1)">
       <defs>
        <path id="DejaVuSansMono-38" d="M 1925 2216 
Q 1503 2216 1273 1980 
Q 1044 1744 1044 1313 
Q 1044 881 1276 642 
Q 1509 403 1925 403 
Q 2350 403 2579 639 
Q 2809 875 2809 1313 
Q 2809 1741 2576 1978 
Q 2344 2216 1925 2216 
z
M 1375 2478 
Q 972 2581 745 2862 
Q 519 3144 519 3541 
Q 519 4097 897 4423 
Q 1275 4750 1925 4750 
Q 2578 4750 2956 4423 
Q 3334 4097 3334 3541 
Q 3334 3144 3107 2862 
Q 2881 2581 2478 2478 
Q 2947 2375 3195 2062 
Q 3444 1750 3444 1253 
Q 3444 622 3041 265 
Q 2638 -91 1925 -91 
Q 1213 -91 811 264 
Q 409 619 409 1247 
Q 409 1747 657 2061 
Q 906 2375 1375 2478 
z
M 1147 3481 
Q 1147 3106 1347 2909 
Q 1547 2713 1925 2713 
Q 2306 2713 2506 2909 
Q 2706 3106 2706 3481 
Q 2706 3863 2507 4063 
Q 2309 4263 1925 4263 
Q 1547 4263 1347 4061 
Q 1147 3859 1147 3481 
z
" transform="scale(0.015625)"/>
       </defs>
       <use xlink:href="#DejaVuSansMono-30"/>
       <use xlink:href="#DejaVuSansMono-2e" x="60.205078"/>
       <use xlink:href="#DejaVuSansMono-38" x="120.410156"/>
      </g>
     </g>
    </g>
    <g id="ytick_6">
     <g id="line2d_14">
      <g>
       <use xlink:href="#m10417d6d2a" x="35.89" y="22.830386" style="stroke: #000000; stroke-width: 0.8"/>
      </g>
     </g>
     <g id="text_14">
      <!-- 1.0 -->
      <g transform="translate(10.829063 26.656167) scale(0.1 -0.1)">
       <use xlink:href="#DejaVuSansMono-31"/>
       <use xlink:href="#DejaVuSansMono-2e" x="60.205078"/>
       <use xlink:href="#DejaVuSansMono-30" x="120.410156"/>
      </g>
     </g>
    </g>
   </g>
   <g id="line2d_15">
    <path d="M 35.485352 360.698067 
L 35.89 360.698067 
L 36.294648 362.32182 
L 37.103945 362.32182 
L 37.508593 363.734453 
L 37.913241 363.725773 
L 38.317889 365.056951 
L 38.722538 365.056951 
L 39.127186 366.71753 
L 39.531834 366.91666 
L 39.936482 366.91666 
L 40.341131 368.295759 
L 40.745779 368.295759 
L 41.150427 370.112817 
L 41.555075 370.112817 
L 41.959724 372.234927 
L 43.982965 372.326352 
L 44.387613 374.448462 
L 44.792261 374.54735 
L 45.19691 374.127221 
L 48.838744 374.026969 
L 49.243392 372.177349 
L 49.64804 372.519383 
L 50.457337 372.519383 
L 51.266633 376.135634 
L 52.07593 376.135634 
L 52.480578 377.797954 
L 52.885226 378.583449 
L 53.289874 380.703989 
L 54.099171 380.703989 
L 54.503819 381.978289 
L 54.908467 379.856178 
L 56.122412 379.906414 
L 57.741005 379.906414 
L 58.145653 380.369358 
L 58.550302 379.767256 
L 58.95495 377.871197 
L 61.382839 377.871197 
L 61.787487 375.749086 
L 63.001432 375.749086 
L 63.40608 373.639205 
L 65.024673 373.639205 
L 65.429322 374.059334 
L 66.238618 374.059334 
L 66.643266 372.037475 
L 69.071156 372.037475 
L 69.475804 373.887096 
L 72.308342 373.887096 
L 72.71299 373.525942 
L 73.117638 374.702983 
L 74.736231 374.702983 
L 75.140879 376.825093 
L 75.545528 377.028401 
L 76.354824 377.028401 
L 76.759472 376.830626 
L 77.973417 376.830626 
L 78.378065 376.644261 
L 78.782714 377.246363 
L 79.187362 379.142422 
L 81.615251 379.142422 
L 82.019899 381.264533 
L 83.233844 381.264533 
L 83.638492 383.374414 
L 85.661734 383.374414 
L 86.066382 382.483027 
L 86.47103 382.483027 
L 86.875678 384.605138 
L 90.517513 384.502768 
L 90.922161 383.146755 
L 92.540754 383.146755 
L 92.945402 383.50791 
L 95.77794 383.50791 
L 96.182588 381.947714 
L 96.587236 381.947714 
L 96.991884 380.099223 
L 97.801181 380.099223 
L 98.205829 379.7425 
L 98.610477 379.928865 
L 100.633719 379.833856 
L 101.038367 377.851612 
L 105.894146 377.851612 
L 106.298794 378.742998 
L 110.749925 378.845368 
L 111.154573 380.201381 
L 111.963869 380.201381 
L 112.368518 378.072611 
L 116.010352 378.072611 
L 116.415 379.632806 
L 116.819648 379.632806 
L 117.224296 381.679072 
L 118.033593 381.679072 
L 118.438241 382.035795 
L 118.842889 381.743114 
L 120.866131 381.838124 
L 121.270779 383.820368 
L 121.675427 383.439832 
L 132.196281 383.439832 
L 132.60093 385.568602 
L 133.814874 385.568602 
L 134.219523 383.415671 
L 138.670653 383.415671 
L 139.075302 383.708352 
L 141.098543 383.708352 
L 141.503191 383.084087 
L 141.907839 383.464622 
L 142.717136 383.464622 
L 143.121784 383.163868 
L 147.168266 383.163868 
L 147.572915 382.622617 
L 154.047286 382.622617 
L 154.451935 384.775548 
L 154.856583 384.775548 
L 155.261231 382.653437 
L 161.330955 382.550342 
L 161.735603 383.174607 
L 162.140251 381.026822 
L 162.949548 381.026822 
L 163.354196 381.327576 
L 167.400678 381.327576 
L 167.805327 381.868827 
L 175.088995 381.868827 
L 175.493643 383.990938 
L 177.112236 383.990938 
L 177.516884 382.205759 
L 177.921533 382.205759 
L 178.326181 380.111373 
L 181.563367 380.214469 
L 181.968015 379.090878 
L 182.372663 381.238663 
L 184.395905 381.238663 
L 184.800553 380.868307 
L 197.344648 380.868307 
L 197.749296 382.653486 
L 198.153945 382.653486 
L 198.558593 384.747872 
L 201.795779 384.747872 
L 202.200427 385.871463 
L 204.628317 385.871463 
L 205.032965 386.241818 
L 209.888744 386.241818 
L 210.293392 384.062408 
L 212.721281 384.062408 
L 213.12593 383.777379 
L 229.716508 383.777379 
L 230.121156 383.305416 
L 230.525804 385.484827 
L 232.953693 385.484827 
L 233.358342 385.769855 
L 249.94892 385.769855 
L 250.353568 386.241818 
L 251.972161 386.241818 
L 252.376809 385.52691 
L 266.944146 385.52691 
L 267.348794 385.325015 
L 269.372035 385.325015 
L 269.776683 383.248378 
L 270.990628 383.248378 
L 271.395276 382.791257 
L 272.204573 382.791257 
L 272.609221 383.506165 
L 273.013869 383.506165 
L 273.418518 381.399432 
L 287.176558 381.399432 
L 287.581206 381.601327 
L 288.390503 381.601327 
L 288.795151 380.022461 
L 289.604447 380.022461 
L 290.009095 381.997444 
L 291.22304 381.997444 
L 291.627688 382.454566 
L 292.436985 382.454566 
L 292.841633 381.150847 
L 293.246281 381.150847 
L 293.65093 383.25758 
L 297.292764 383.25758 
L 297.697412 382.021981 
L 306.599673 382.021981 
L 307.004322 381.824206 
L 307.40897 380.180955 
L 308.622915 380.180955 
L 309.027563 381.759821 
L 312.669397 381.758379 
L 313.074045 383.062097 
L 315.906583 382.960444 
L 316.311231 382.002952 
L 317.525176 382.002952 
L 317.929824 383.238551 
L 319.953065 383.238551 
L 320.357714 382.856013 
L 321.976307 382.856013 
L 322.380955 381.731168 
L 323.999548 381.731168 
L 324.404196 381.192781 
L 325.213492 381.092529 
L 326.832085 381.092529 
L 327.236734 381.290304 
L 327.641382 382.933556 
L 329.664623 382.831187 
L 330.069271 382.728817 
L 330.47392 382.831913 
L 330.878568 382.454342 
L 331.687864 382.454342 
L 332.092513 381.199927 
L 335.329698 381.201329 
L 335.734347 380.187158 
L 336.138995 380.187158 
L 336.543643 381.144649 
L 336.948291 380.007719 
L 337.757588 378.913689 
L 338.971533 378.713176 
L 340.185477 378.713176 
L 340.590126 379.095715 
L 341.399422 379.095715 
L 341.80407 378.278039 
L 342.208719 378.278039 
L 342.613367 379.302632 
L 344.23196 379.302632 
L 344.636608 379.73865 
L 345.041256 379.451263 
L 345.445905 379.451263 
L 345.850553 379.156605 
L 346.659849 379.055657 
L 347.064497 378.665417 
L 347.469146 378.665417 
L 347.873794 378.467642 
L 348.278442 377.367586 
L 348.68309 377.367586 
L 349.492387 375.027148 
L 349.897035 373.649285 
L 350.706332 373.751654 
L 351.11098 374.129225 
L 351.920276 374.129225 
L 352.324925 375.38364 
L 352.729573 375.38364 
L 353.134221 375.18982 
L 353.538869 374.634287 
L 353.943518 374.437848 
L 354.752814 374.437848 
L 355.157462 373.720424 
L 355.562111 372.391823 
L 355.966759 373.208219 
L 356.776055 373.208219 
L 357.180704 374.345149 
L 357.585352 374.516403 
L 357.99 372.983124 
L 358.799296 373.183637 
L 359.203945 371.623931 
L 359.608593 370.892537 
L 360.417889 370.792972 
L 360.822538 370.041086 
L 361.227186 370.041086 
L 361.631834 367.727592 
L 362.036482 368.545268 
L 362.441131 367.106014 
L 362.845779 367.206266 
L 363.250427 366.917462 
L 363.655075 365.554669 
L 364.059724 365.554669 
L 364.464372 365.26394 
L 364.86902 365.366309 
L 365.273668 365.753948 
L 365.678317 364.362899 
L 366.082965 364.657557 
L 366.487613 364.106228 
L 366.892261 364.106228 
L 367.29691 364.496469 
L 367.701558 363.722338 
L 368.106206 363.722338 
L 368.510854 363.105007 
L 369.320151 362.440341 
L 369.724799 363.642935 
L 370.129447 364.057538 
L 371.343392 363.954443 
L 371.74804 363.569371 
L 372.152688 363.569371 
L 372.557337 362.561062 
L 373.771281 357.85647 
L 374.17593 357.490207 
L 374.580578 356.829459 
L 374.985226 355.568643 
L 375.389874 356.097515 
L 375.794523 357.426116 
L 376.199171 357.522238 
L 377.008467 357.419868 
L 377.413116 357.419868 
L 377.817764 357.714526 
L 378.222412 359.875924 
L 378.62706 357.850352 
L 379.031709 357.850352 
L 379.436357 359.410058 
L 379.841005 360.141452 
L 380.245653 358.277803 
L 380.650302 357.636657 
L 381.05495 358.388543 
L 381.459598 358.095862 
L 381.864246 358.326251 
L 382.268894 358.125748 
L 382.673543 359.565001 
L 383.482839 356.827573 
L 383.887487 357.174377 
L 384.696784 353.059707 
L 385.101432 351.37244 
L 385.50608 350.564859 
L 385.910729 351.758132 
L 386.315377 350.464312 
L 386.720025 350.33785 
L 387.529322 350.33785 
L 387.93397 350.1068 
L 388.338618 350.304575 
L 388.743266 350.377566 
L 389.147915 350.752701 
L 389.957211 351.071074 
L 390.361859 350.783885 
L 390.766508 350.783885 
L 391.171156 349.221556 
L 391.575804 348.615556 
L 391.980452 349.000628 
L 392.385101 349.000628 
L 392.789749 350.008937 
L 393.194397 349.382412 
L 393.599045 351.221999 
L 394.003693 350.622633 
L 394.408342 350.896531 
L 394.81299 351.355384 
L 395.217638 352.616199 
L 395.622286 352.905003 
L 396.431583 351.906006 
L 396.836231 352.008375 
L 397.240879 350.680171 
L 398.050176 349.338607 
L 398.454824 348.031095 
L 398.859472 349.676629 
L 399.264121 348.850693 
L 400.073417 348.850693 
L 400.478065 349.854196 
L 400.882714 348.963988 
L 401.287362 347.257534 
L 401.69201 347.001669 
L 402.096658 348.522074 
L 402.905955 345.902468 
L 403.310603 345.592339 
L 404.119899 347.052674 
L 404.929196 351.165393 
L 405.333844 351.10346 
L 405.738492 349.38941 
L 406.143141 349.587185 
L 406.547789 350.684567 
L 406.952437 350.460792 
L 407.357085 349.932193 
L 407.761734 349.829824 
L 408.166382 349.843882 
L 408.57103 349.386761 
L 408.975678 349.457623 
L 409.380327 347.879003 
L 409.784975 349.090374 
L 410.189623 349.090374 
L 410.594271 349.533241 
L 410.99892 347.779816 
L 411.808216 349.101591 
L 412.212864 348.465621 
L 413.022161 346.085969 
L 413.426809 346.431216 
L 413.831457 346.071897 
L 414.236106 347.510189 
L 414.640754 346.00777 
L 415.45005 345.738362 
L 415.854698 345.363228 
L 416.259347 345.629958 
L 416.663995 345.703112 
L 417.068643 343.768825 
L 417.473291 343.05038 
L 417.87794 341.721668 
L 418.282588 342.142433 
L 418.687236 341.756377 
L 419.091884 340.951378 
L 419.496533 341.203506 
L 419.901181 340.011993 
L 420.305829 339.626921 
L 421.115126 340.345992 
L 421.519774 340.188798 
L 421.924422 339.601683 
L 422.32907 338.584334 
L 422.733719 340.305757 
L 423.543015 342.257921 
L 423.947663 341.311749 
L 424.352312 339.80203 
L 424.75696 337.591002 
L 425.161608 336.041431 
L 425.566256 337.588736 
L 425.970905 338.14598 
L 426.375553 335.697186 
L 426.780201 334.14925 
L 427.184849 334.515794 
L 427.994146 331.62419 
L 428.803442 331.68228 
L 429.20809 333.059375 
L 429.612739 333.345866 
L 430.422035 331.235671 
L 430.826683 332.043252 
L 431.231332 333.596174 
L 431.63598 332.598405 
L 432.040628 331.15972 
L 432.445276 330.935545 
L 432.849925 330.236046 
L 433.254573 329.198356 
L 434.468518 327.729838 
L 435.277814 328.547004 
L 436.491759 321.347076 
L 436.896407 320.948592 
L 437.301055 321.189311 
L 437.705704 322.092643 
L 438.110352 322.327145 
L 438.515 319.67453 
L 438.919648 319.085514 
L 439.324296 319.006511 
L 439.728945 318.593275 
L 440.133593 317.758071 
L 440.942889 314.001678 
L 441.347538 312.613496 
L 441.752186 311.98518 
L 442.156834 310.135239 
L 442.561482 309.67878 
L 442.966131 306.75478 
L 443.370779 306.193458 
L 443.775427 304.851184 
L 444.180075 304.315624 
L 444.584724 302.942407 
L 444.989372 303.479831 
L 445.39402 304.926308 
L 445.798668 304.445282 
L 446.203317 306.409668 
L 446.607965 306.955784 
L 447.012613 306.062269 
L 447.417261 306.698239 
L 447.82191 305.926887 
L 448.226558 306.134999 
L 448.631206 304.747074 
L 449.440503 299.674861 
L 449.845151 299.07093 
L 450.249799 296.687174 
L 450.654447 295.518852 
L 451.059095 293.850734 
L 451.463744 292.825271 
L 451.868392 291.177555 
L 452.27304 291.658607 
L 452.677688 289.135723 
L 453.082337 288.647103 
L 453.891633 286.074492 
L 455.510226 276.69696 
L 455.914874 275.766966 
L 456.724171 274.514254 
L 457.128819 271.840476 
L 457.533467 270.487101 
L 457.938116 270.176772 
L 458.342764 268.43804 
L 459.15206 265.995244 
L 460.366005 258.786683 
L 460.770653 257.691409 
L 461.175302 257.893793 
L 462.389246 253.779425 
L 462.793894 251.939545 
L 463.198543 250.685913 
L 463.603191 247.214421 
L 464.412487 243.587548 
L 464.817136 242.346263 
L 465.221784 240.11601 
L 466.435729 229.178572 
L 466.840377 226.865678 
L 467.245025 225.666304 
L 467.649673 221.725698 
L 468.054322 220.36567 
L 468.45897 217.389571 
L 468.863618 215.495159 
L 469.672915 213.031411 
L 470.077563 210.910818 
L 470.482211 210.606735 
L 471.291508 206.22466 
L 471.696156 203.026488 
L 472.100804 202.464335 
L 472.505452 199.276372 
L 472.910101 198.274764 
L 473.314749 196.462083 
L 473.719397 195.998259 
L 474.933342 193.428544 
L 475.33799 193.246576 
L 475.742638 192.327931 
L 476.551935 190.89273 
L 476.956583 189.816747 
L 477.361231 189.158489 
L 477.765879 187.91435 
L 478.170528 185.084073 
L 478.575176 184.142264 
L 478.979824 184.364471 
L 479.384472 183.402999 
L 480.193769 182.28222 
L 481.003065 180.427654 
L 481.407714 179.530924 
L 481.812362 179.235819 
L 482.621658 178.218676 
L 483.026307 177.610414 
L 483.430955 177.901008 
L 484.240251 177.261573 
L 484.644899 180.464813 
L 485.049548 180.526995 
L 485.454196 180.451999 
L 485.858844 179.489837 
L 486.668141 178.689157 
L 487.072789 178.963735 
L 487.882085 178.0667 
L 488.286734 178.054073 
L 488.691382 177.7213 
L 489.09603 177.896052 
L 489.500678 177.555011 
L 490.714623 176.016266 
L 491.119271 175.368625 
L 491.928568 175.265048 
L 492.737864 173.831283 
L 493.547161 173.469296 
L 494.356457 172.644611 
L 494.761106 171.941777 
L 495.570402 170.254259 
L 495.97505 169.791515 
L 496.784347 169.444224 
L 497.188995 169.486647 
L 497.593643 169.18143 
L 497.998291 169.134112 
L 498.40294 168.808914 
L 498.807588 169.074926 
L 499.212236 167.945235 
L 500.426181 167.16646 
L 500.830829 167.200489 
L 501.235477 167.061701 
L 501.640126 165.101022 
L 502.449422 164.63922 
L 502.85407 165.090925 
L 503.258719 164.48194 
L 503.663367 164.250827 
L 504.472663 163.517776 
L 504.877312 159.257291 
L 505.686608 158.002247 
L 506.091256 158.117438 
L 506.495905 158.032824 
L 507.709849 155.804704 
L 510.137739 151.893027 
L 510.542387 151.557964 
L 510.947035 151.426121 
L 511.351683 151.62521 
L 512.16098 150.319899 
L 512.970276 150.462019 
L 513.374925 149.914147 
L 514.184221 149.210102 
L 514.588869 148.600228 
L 514.993518 148.326598 
L 515.398166 148.380801 
L 516.207462 147.514186 
L 517.016759 145.820967 
L 518.230704 143.618732 
L 518.635352 143.239852 
L 519.04 142.377177 
L 520.253945 141.303815 
L 520.658593 140.530329 
L 521.467889 138.676227 
L 522.277186 137.156057 
L 522.681834 136.52721 
L 523.086482 135.313193 
L 523.491131 134.866711 
L 523.895779 133.970951 
L 524.300427 133.644381 
L 524.705075 132.745676 
L 525.514372 132.159877 
L 525.91902 131.732303 
L 526.728317 129.875166 
L 527.537613 129.294293 
L 528.34691 128.165908 
L 529.156206 127.758261 
L 529.965503 127.196888 
L 530.370151 127.247806 
L 530.774799 126.665394 
L 531.179447 125.565109 
L 531.584095 124.099094 
L 531.988744 123.719632 
L 532.393392 122.981711 
L 533.202688 120.638262 
L 533.607337 120.103567 
L 534.011985 119.085782 
L 534.416633 117.746313 
L 534.821281 117.570433 
L 535.22593 117.044829 
L 535.630578 116.963822 
L 536.439874 115.300083 
L 536.844523 115.117619 
L 537.249171 114.348317 
L 538.463116 113.099273 
L 538.867764 112.038545 
L 539.272412 111.371324 
L 539.67706 111.105175 
L 540.081709 110.577881 
L 540.891005 108.787596 
L 541.700302 107.663859 
L 542.10495 107.377264 
L 542.509598 106.794002 
L 542.914246 106.589705 
L 543.318894 106.030544 
L 543.723543 105.973291 
L 544.532839 104.442547 
L 544.937487 104.118053 
L 546.55608 101.664272 
L 546.960729 101.659549 
L 547.365377 101.003459 
L 548.174673 100.17704 
L 548.579322 100.337292 
L 548.98397 100.006666 
L 549.793266 98.396909 
L 550.197915 97.719556 
L 551.007211 95.774368 
L 551.411859 95.321764 
L 551.816508 95.356777 
L 552.625804 93.798928 
L 553.030452 93.858813 
L 553.435101 93.61279 
L 553.839749 93.197432 
L 554.244397 93.328357 
L 554.649045 93.260438 
L 555.053693 92.620771 
L 555.458342 92.258887 
L 555.86299 91.513886 
L 556.267638 91.363432 
L 556.672286 91.05099 
L 557.076935 90.243827 
L 557.481583 89.894842 
L 558.695528 87.308164 
L 559.100176 86.912896 
L 559.909472 85.279594 
L 560.314121 84.852246 
L 560.718769 85.031156 
L 561.123417 85.373971 
L 561.528065 85.054233 
L 561.932714 85.151118 
L 562.337362 85.088874 
L 562.74201 84.583447 
L 563.146658 84.444832 
L 563.955955 83.332245 
L 564.360603 83.770271 
L 565.169899 82.475603 
L 565.574548 82.352852 
L 566.383844 82.404465 
L 566.788492 81.891207 
L 567.597789 81.35045 
L 568.002437 80.735944 
L 569.216382 77.74278 
L 569.62103 78.034421 
L 570.430327 76.870498 
L 570.834975 76.247394 
L 571.239623 76.934951 
L 572.453568 76.109283 
L 572.858216 76.130003 
L 573.262864 75.287827 
L 573.667513 74.944095 
L 574.476809 73.93129 
L 574.881457 74.156013 
L 575.690754 73.612028 
L 576.095402 72.762491 
L 577.309347 71.47703 
L 578.118643 71.731074 
L 578.523291 72.157392 
L 578.92794 71.779717 
L 579.332588 71.569701 
L 579.737236 71.075443 
L 580.141884 70.88489 
L 580.951181 69.815139 
L 581.355829 69.018822 
L 581.760477 68.86519 
L 582.165126 68.319222 
L 582.569774 67.497493 
L 582.974422 67.268003 
L 583.37907 66.782231 
L 583.783719 66.835466 
L 584.188367 66.205993 
L 584.593015 64.998111 
L 584.997663 64.858089 
L 585.80696 63.916726 
L 586.616256 61.952769 
L 587.020905 61.683938 
L 587.830201 60.433853 
L 588.234849 60.112632 
L 588.639497 60.07588 
L 589.044146 59.45819 
L 589.448794 59.464465 
L 589.853442 58.636561 
L 590.25809 58.722298 
L 590.662739 59.036556 
L 591.067387 59.177111 
L 591.472035 58.472543 
L 591.876683 58.236729 
L 592.281332 57.55784 
L 592.68598 57.134321 
L 593.090628 57.002172 
L 593.495276 57.103825 
L 594.709221 56.302037 
L 595.113869 55.507086 
L 595.518518 55.154562 
L 596.732462 53.693182 
L 597.541759 53.635344 
L 597.946407 52.789492 
L 598.755704 51.659811 
L 599.565 51.672593 
L 599.969648 51.828881 
L 600.374296 51.598917 
L 600.778945 51.548625 
L 601.992889 51.017662 
L 602.397538 50.620491 
L 602.802186 50.821961 
L 603.206834 50.794889 
L 603.611482 50.646997 
L 604.016131 50.198625 
L 604.420779 50.429294 
L 604.825427 50.01146 
L 605.230075 49.802016 
L 605.634724 49.967178 
L 606.039372 49.763032 
L 606.848668 49.788259 
L 607.657965 49.430075 
L 608.467261 49.598486 
L 608.87191 49.422803 
L 609.276558 49.579973 
L 609.681206 49.892713 
L 610.085854 49.630383 
L 610.490503 49.048522 
L 610.895151 48.769355 
L 611.299799 48.881045 
L 612.109095 48.099317 
L 612.513744 48.292475 
L 612.918392 48.287123 
L 613.32304 48.484283 
L 614.132337 48.176132 
L 614.941633 47.974971 
L 615.346281 47.687865 
L 615.75093 47.669079 
L 616.560226 48.002638 
L 618.583467 47.429219 
L 619.392764 46.858513 
L 619.797412 46.796632 
L 620.20206 46.620607 
L 620.606709 46.610793 
L 621.416005 45.946899 
L 621.820653 45.675166 
L 623.034598 45.714171 
L 623.439246 45.455081 
L 624.248543 45.864021 
L 624.653191 45.704963 
L 625.057839 45.960309 
L 625.462487 45.85901 
L 625.867136 45.992055 
L 626.271784 46.357778 
L 626.676432 46.410096 
L 627.08108 46.349279 
L 627.485729 46.765197 
L 627.890377 46.899062 
L 628.295025 46.751172 
L 628.699673 46.248647 
L 629.104322 46.386035 
L 629.50897 46.154968 
L 629.913618 45.676796 
L 630.722915 45.685318 
L 631.127563 45.574841 
L 631.936859 44.9134 
L 632.341508 44.889629 
L 633.555452 44.288026 
L 634.364749 44.186745 
L 634.769397 44.201907 
L 635.174045 43.984572 
L 635.983342 43.942384 
L 636.38799 43.492309 
L 636.792638 43.378662 
L 637.197286 43.600014 
L 637.601935 43.527464 
L 638.006583 43.804752 
L 638.411231 43.60962 
L 638.815879 43.639761 
L 639.220528 43.382932 
L 639.625176 43.325226 
L 640.029824 43.738977 
L 641.243769 43.778675 
L 641.648417 43.762074 
L 642.457714 44.390403 
L 642.862362 44.286836 
L 643.26701 43.965576 
L 643.671658 43.991014 
L 644.076307 43.224372 
L 644.480955 42.994212 
L 645.290251 42.708955 
L 645.694899 42.864306 
L 646.099548 42.577034 
L 646.908844 41.483298 
L 647.313492 41.367428 
L 648.122789 40.660747 
L 648.527437 40.599682 
L 649.336734 41.017831 
L 649.741382 41.204877 
L 650.14603 40.89122 
L 650.550678 40.749804 
L 650.955327 40.744916 
L 651.359975 40.420187 
L 653.383216 40.296122 
L 653.787864 39.985656 
L 654.597161 39.89054 
L 655.001809 39.621001 
L 655.406457 39.851611 
L 657.02505 40.183449 
L 657.429698 40.05875 
L 658.238995 39.256906 
L 659.45294 40.361615 
L 659.857588 40.385604 
L 660.262236 39.467061 
L 660.666884 39.564423 
L 661.071533 39.509425 
L 662.285477 38.816833 
L 662.690126 38.233682 
L 663.499422 38.196239 
L 663.90407 37.82947 
L 664.308719 37.638185 
L 664.713367 37.769266 
L 665.522663 37.365858 
L 666.736608 36.859516 
L 667.545905 37.149419 
L 668.355201 37.181504 
L 669.164497 36.905468 
L 669.569146 36.481067 
L 669.973794 36.219613 
L 670.78309 36.813083 
L 671.187739 36.627499 
L 671.592387 36.814714 
L 672.401683 36.61915 
L 672.806332 36.885952 
L 674.020276 36.642794 
L 675.638869 36.580434 
L 676.043518 36.396765 
L 676.852814 36.417174 
L 677.257462 36.295469 
L 678.471407 36.408575 
L 679.685352 35.280939 
L 680.09 35.40022 
L 680.494648 35.693573 
L 680.899296 35.517008 
L 681.303945 35.471159 
L 681.708593 35.629306 
L 682.113241 35.398344 
L 682.517889 35.323658 
L 682.922538 35.617431 
L 683.327186 35.379948 
L 683.731834 35.455565 
L 684.136482 35.807808 
L 684.541131 36.00131 
L 684.945779 35.805255 
L 687.373668 36.23671 
L 687.778317 36.041787 
L 688.587613 36.035172 
L 688.992261 36.455621 
L 690.206206 36.308862 
L 691.015503 35.937173 
L 691.420151 36.072027 
L 692.229447 35.842878 
L 692.634095 35.895523 
L 693.038744 35.670418 
L 693.443392 35.667408 
L 693.84804 35.892493 
L 694.252688 35.863231 
L 694.657337 35.71184 
L 695.061985 35.774759 
L 695.871281 35.361086 
L 696.27593 35.512605 
L 696.680578 35.275081 
L 697.489874 35.238889 
L 697.894523 35.277107 
L 698.299171 35.501231 
L 699.108467 35.568876 
L 699.513116 35.412769 
L 699.917764 35.436604 
L 700.72706 35.172843 
L 702.345653 35.193282 
L 702.750302 35.34903 
L 703.15495 35.354531 
L 703.559598 35.528296 
L 703.964246 35.477469 
L 704.773543 35.158283 
L 705.178191 35.104088 
L 705.987487 35.427925 
L 707.201432 35.220577 
L 708.010729 35.21224 
L 708.415377 35.067033 
L 708.820025 35.15657 
L 709.224673 34.767273 
L 709.629322 34.747694 
L 710.03397 34.593428 
L 710.438618 34.702883 
L 710.843266 34.677752 
L 711.652563 34.403252 
L 713.675804 34.283153 
L 714.080452 33.949878 
L 714.889749 34.157543 
L 715.294397 34.044549 
L 715.699045 34.380191 
L 716.103693 34.427357 
L 716.508342 34.145029 
L 717.722286 34.136925 
L 718.936231 33.452043 
L 720.959472 33.196191 
L 721.768769 33.466578 
L 722.578065 33.362046 
L 722.982714 33.416202 
L 723.387362 33.039331 
L 724.601307 32.711439 
L 725.005955 32.736399 
L 725.410603 32.908512 
L 726.624548 32.280383 
L 727.029196 32.435577 
L 727.838492 32.018702 
L 728.243141 32.11964 
L 728.647789 32.045462 
L 729.052437 31.824364 
L 729.861734 31.786768 
L 730.266382 31.912436 
L 730.67103 31.855626 
L 731.075678 32.051811 
L 732.694271 31.81393 
L 733.908216 31.938205 
L 734.717513 31.552917 
L 735.122161 31.731045 
L 735.526809 32.033859 
L 735.931457 31.646485 
L 736.336106 31.934177 
L 736.740754 31.908495 
L 737.145402 31.725029 
L 738.359347 31.845655 
L 738.763995 31.71427 
L 739.573291 32.369914 
L 739.97794 32.290443 
L 740.382588 32.557958 
L 740.787236 32.689911 
L 742.001181 32.466529 
L 742.405829 32.543755 
L 742.810477 32.468531 
L 743.215126 32.564273 
L 743.619774 32.848794 
L 744.42907 32.804256 
L 744.833719 33.024919 
L 745.238367 32.951375 
L 745.643015 32.700924 
L 746.047663 32.675255 
L 746.452312 32.969028 
L 748.070905 33.454544 
L 748.475553 33.693224 
L 748.880201 33.768646 
L 749.284849 34.109896 
L 749.689497 34.107354 
L 750.903442 33.679611 
L 751.30809 33.461526 
L 751.712739 33.92555 
L 752.117387 33.9516 
L 752.522035 33.775966 
L 752.926683 33.799956 
L 753.331332 33.543311 
L 754.949925 33.823795 
L 755.354573 33.642399 
L 755.759221 33.183837 
L 756.163869 33.380985 
L 756.568518 33.125217 
L 757.377814 33.176223 
L 757.782462 32.934912 
L 758.591759 32.829627 
L 758.996407 33.010129 
L 759.401055 32.911529 
L 759.805704 32.423729 
L 760.210352 32.397863 
L 761.019648 32.049378 
L 761.828945 32.029711 
L 764.256834 31.676477 
L 765.066131 31.614512 
L 765.875427 31.587726 
L 768.303317 30.953546 
L 768.707965 30.613929 
L 769.112613 30.712057 
L 769.517261 30.524355 
L 771.540503 30.905043 
L 771.945151 30.336819 
L 773.563744 30.512078 
L 774.37304 30.442041 
L 775.182337 30.518759 
L 776.396281 30.300504 
L 777.205578 30.142336 
L 778.014874 30.269322 
L 780.038116 30.260781 
L 781.25206 30.314017 
L 782.061357 30.139566 
L 783.275302 30.111756 
L 783.67995 29.795746 
L 784.084598 29.62251 
L 786.917136 29.722982 
L 787.321784 29.746702 
L 787.726432 29.619011 
L 788.13108 29.750203 
L 788.940377 29.70123 
L 790.154322 29.116396 
L 790.963618 28.960632 
L 792.582211 29.020069 
L 792.986859 28.868847 
L 793.796156 28.915865 
L 795.414749 28.678182 
L 796.628693 28.828768 
L 797.43799 29.150704 
L 799.056583 29.042645 
L 800.270528 28.966323 
L 800.675176 29.263068 
L 801.484472 29.310199 
L 802.293769 29.281549 
L 802.698417 29.132343 
L 804.721658 29.435109 
L 805.530955 29.317166 
L 805.935603 29.113695 
L 806.340251 29.164692 
L 807.149548 28.960436 
L 807.958844 29.176871 
L 808.363492 28.941289 
L 809.982085 29.147295 
L 811.19603 29.199195 
L 811.600678 28.933932 
L 812.409975 29.118816 
L 813.62392 29.32372 
L 814.028568 29.32372 
L 814.433216 29.717976 
L 816.051809 29.436378 
L 816.456457 29.571306 
L 818.07505 29.023279 
L 818.479698 29.102184 
L 818.884347 29.004811 
L 819.288995 29.054891 
L 820.098291 29.008462 
L 820.50294 29.00922 
L 820.907588 28.738156 
L 820.907588 28.738156 
" clip-path="url(#p86c43ab7e5)" style="fill: none; stroke-dasharray: 7.4,3.2; stroke-dashoffset: 0; stroke: #000000; stroke-width: 2"/>
   </g>
   <g id="patch_3">
    <path d="M 35.89 404.12 
L 35.89 10.8 
" style="fill: none; stroke: #000000; stroke-width: 0.8; stroke-linejoin: miter; stroke-linecap: square"/>
   </g>
   <g id="patch_4">
    <path d="M 841.14 404.12 
L 841.14 10.8 
" style="fill: none; stroke: #000000; stroke-width: 0.8; stroke-linejoin: miter; stroke-linecap: square"/>
   </g>
   <g id="patch_5">
    <path d="M 35.89 404.12 
L 841.14 404.12 
" style="fill: none; stroke: #000000; stroke-width: 0.8; stroke-linejoin: miter; stroke-linecap: square"/>
   </g>
   <g id="patch_6">
    <path d="M 35.89 10.8 
L 841.14 10.8 
" style="fill: none; stroke: #000000; stroke-width: 0.8; stroke-linejoin: miter; stroke-linecap: square"/>
   </g>
  </g>
 </g>
 <defs>
  <clipPath id="p86c43ab7e5">
   <rect x="35.89" y="10.8" width="805.25" height="393.32"/>
  </clipPath>
 </defs>
</svg>
