<?xml version="1.0" encoding="utf-8" standalone="no"?>
<!DOCTYPE svg PUBLIC "-//W3C//DTD SVG 1.1//EN"
  "http://www.w3.org/Graphics/SVG/1.1/DTD/svg11.dtd">
<svg xmlns:xlink="http://www.w3.org/1999/xlink" width="864pt" height="432pt" viewBox="0 0 864 432" xmlns="http://www.w3.org/2000/svg" version="1.1">
 <metadata>
  <rdf:RDF xmlns:dc="http://purl.org/dc/elements/1.1/" xmlns:cc="http://creativecommons.org/ns#" xmlns:rdf="http://www.w3.org/1999/02/22-rdf-syntax-ns#">
   <cc:Work>
    <dc:type rdf:resource="http://purl.org/dc/dcmitype/StillImage"/>
    <dc:date>2024-09-15T22:06:37.522138</dc:date>
    <dc:format>image/svg+xml</dc:format>
    <dc:creator>
     <cc:Agent>
      <dc:title>Matplotlib v3.9.2, https://matplotlib.org/</dc:title>
     </cc:Agent>
    </dc:creator>
   </cc:Work>
  </rdf:RDF>
 </metadata>
 <defs>
  <style type="text/css">*{stroke-linejoin: round; stroke-linecap: butt}</style>
 </defs>
 <g id="figure_1">
  <g id="patch_1">
   <path d="M 0 432 
L 864 432 
L 864 0 
L 0 0 
z
" style="fill: #ffffff"/>
  </g>
  <g id="axes_1">
   <g id="patch_2">
    <path d="M 35.89 403.436 
L 844.952613 403.436 
L 844.952613 10.98866 
L 35.89 10.98866 
z
" style="fill: #ffffff"/>
   </g>
   <g id="matplotlib.axis_1">
    <g id="xtick_1">
     <g id="line2d_1">
      <defs>
       <path id="m3be82de449" d="M 0 0 
L 0 3.5 
" style="stroke: #000000; stroke-width: 0.8"/>
      </defs>
      <g>
       <use xlink:href="#m3be82de449" x="35.89" y="403.436" style="stroke: #000000; stroke-width: 0.8"/>
      </g>
     </g>
     <g id="text_1">
      <!-- $\mathdefault{10^{0}}$ -->
      <g transform="translate(27.54 418.087562) scale(0.1 -0.1)">
       <defs>
        <path id="DejaVuSansMono-31" d="M 844 531 
L 1825 531 
L 1825 4097 
L 769 3859 
L 769 4434 
L 1819 4666 
L 2450 4666 
L 2450 531 
L 3419 531 
L 3419 0 
L 844 0 
L 844 531 
z
" transform="scale(0.015625)"/>
        <path id="DejaVuSansMono-30" d="M 1509 2344 
Q 1509 2516 1629 2641 
Q 1750 2766 1919 2766 
Q 2094 2766 2219 2641 
Q 2344 2516 2344 2344 
Q 2344 2169 2220 2047 
Q 2097 1925 1919 1925 
Q 1744 1925 1626 2044 
Q 1509 2163 1509 2344 
z
M 1925 4250 
Q 1484 4250 1267 3775 
Q 1050 3300 1050 2328 
Q 1050 1359 1267 884 
Q 1484 409 1925 409 
Q 2369 409 2586 884 
Q 2803 1359 2803 2328 
Q 2803 3300 2586 3775 
Q 2369 4250 1925 4250 
z
M 1925 4750 
Q 2672 4750 3055 4137 
Q 3438 3525 3438 2328 
Q 3438 1134 3055 521 
Q 2672 -91 1925 -91 
Q 1178 -91 797 521 
Q 416 1134 416 2328 
Q 416 3525 797 4137 
Q 1178 4750 1925 4750 
z
" transform="scale(0.015625)"/>
       </defs>
       <use xlink:href="#DejaVuSansMono-31" transform="translate(0 0.765625)"/>
       <use xlink:href="#DejaVuSansMono-30" transform="translate(60.205078 0.765625)"/>
       <use xlink:href="#DejaVuSansMono-30" transform="translate(121.367188 39.046875) scale(0.7)"/>
      </g>
     </g>
    </g>
    <g id="xtick_2">
     <g id="line2d_2">
      <g>
       <use xlink:href="#m3be82de449" x="440.421306" y="403.436" style="stroke: #000000; stroke-width: 0.8"/>
      </g>
     </g>
     <g id="text_2">
      <!-- $\mathdefault{10^{1}}$ -->
      <g transform="translate(432.071306 418.087562) scale(0.1 -0.1)">
       <use xlink:href="#DejaVuSansMono-31" transform="translate(0 0.684375)"/>
       <use xlink:href="#DejaVuSansMono-30" transform="translate(60.205078 0.684375)"/>
       <use xlink:href="#DejaVuSansMono-31" transform="translate(121.367188 38.965625) scale(0.7)"/>
      </g>
     </g>
    </g>
    <g id="xtick_3">
     <g id="line2d_3">
      <g>
       <use xlink:href="#m3be82de449" x="844.952613" y="403.436" style="stroke: #000000; stroke-width: 0.8"/>
      </g>
     </g>
     <g id="text_3">
      <!-- $\mathdefault{10^{2}}$ -->
      <g transform="translate(836.602613 418.087562) scale(0.1 -0.1)">
       <defs>
        <path id="DejaVuSansMono-32" d="M 1166 531 
L 3309 531 
L 3309 0 
L 475 0 
L 475 531 
Q 1059 1147 1496 1619 
Q 1934 2091 2100 2284 
Q 2413 2666 2522 2902 
Q 2631 3138 2631 3384 
Q 2631 3775 2401 3997 
Q 2172 4219 1772 4219 
Q 1488 4219 1175 4116 
Q 863 4013 513 3803 
L 513 4441 
Q 834 4594 1145 4672 
Q 1456 4750 1759 4750 
Q 2444 4750 2861 4386 
Q 3278 4022 3278 3431 
Q 3278 3131 3139 2831 
Q 3000 2531 2688 2169 
Q 2513 1966 2180 1606 
Q 1847 1247 1166 531 
z
" transform="scale(0.015625)"/>
       </defs>
       <use xlink:href="#DejaVuSansMono-31" transform="translate(0 0.765625)"/>
       <use xlink:href="#DejaVuSansMono-30" transform="translate(60.205078 0.765625)"/>
       <use xlink:href="#DejaVuSansMono-32" transform="translate(121.367188 39.046875) scale(0.7)"/>
      </g>
     </g>
    </g>
    <g id="xtick_4">
     <g id="line2d_4">
      <defs>
       <path id="m43d544fcb0" d="M 0 0 
L 0 2 
" style="stroke: #000000; stroke-width: 0.6"/>
      </defs>
      <g>
       <use xlink:href="#m43d544fcb0" x="157.666057" y="403.436" style="stroke: #000000; stroke-width: 0.6"/>
      </g>
     </g>
    </g>
    <g id="xtick_5">
     <g id="line2d_5">
      <g>
       <use xlink:href="#m43d544fcb0" x="228.900484" y="403.436" style="stroke: #000000; stroke-width: 0.6"/>
      </g>
     </g>
    </g>
    <g id="xtick_6">
     <g id="line2d_6">
      <g>
       <use xlink:href="#m43d544fcb0" x="279.442115" y="403.436" style="stroke: #000000; stroke-width: 0.6"/>
      </g>
     </g>
    </g>
    <g id="xtick_7">
     <g id="line2d_7">
      <g>
       <use xlink:href="#m43d544fcb0" x="318.645249" y="403.436" style="stroke: #000000; stroke-width: 0.6"/>
      </g>
     </g>
    </g>
    <g id="xtick_8">
     <g id="line2d_8">
      <g>
       <use xlink:href="#m43d544fcb0" x="350.676542" y="403.436" style="stroke: #000000; stroke-width: 0.6"/>
      </g>
     </g>
    </g>
    <g id="xtick_9">
     <g id="line2d_9">
      <g>
       <use xlink:href="#m43d544fcb0" x="377.758614" y="403.436" style="stroke: #000000; stroke-width: 0.6"/>
      </g>
     </g>
    </g>
    <g id="xtick_10">
     <g id="line2d_10">
      <g>
       <use xlink:href="#m43d544fcb0" x="401.218172" y="403.436" style="stroke: #000000; stroke-width: 0.6"/>
      </g>
     </g>
    </g>
    <g id="xtick_11">
     <g id="line2d_11">
      <g>
       <use xlink:href="#m43d544fcb0" x="421.910969" y="403.436" style="stroke: #000000; stroke-width: 0.6"/>
      </g>
     </g>
    </g>
    <g id="xtick_12">
     <g id="line2d_12">
      <g>
       <use xlink:href="#m43d544fcb0" x="562.197364" y="403.436" style="stroke: #000000; stroke-width: 0.6"/>
      </g>
     </g>
    </g>
    <g id="xtick_13">
     <g id="line2d_13">
      <g>
       <use xlink:href="#m43d544fcb0" x="633.431791" y="403.436" style="stroke: #000000; stroke-width: 0.6"/>
      </g>
     </g>
    </g>
    <g id="xtick_14">
     <g id="line2d_14">
      <g>
       <use xlink:href="#m43d544fcb0" x="683.973421" y="403.436" style="stroke: #000000; stroke-width: 0.6"/>
      </g>
     </g>
    </g>
    <g id="xtick_15">
     <g id="line2d_15">
      <g>
       <use xlink:href="#m43d544fcb0" x="723.176555" y="403.436" style="stroke: #000000; stroke-width: 0.6"/>
      </g>
     </g>
    </g>
    <g id="xtick_16">
     <g id="line2d_16">
      <g>
       <use xlink:href="#m43d544fcb0" x="755.207848" y="403.436" style="stroke: #000000; stroke-width: 0.6"/>
      </g>
     </g>
    </g>
    <g id="xtick_17">
     <g id="line2d_17">
      <g>
       <use xlink:href="#m43d544fcb0" x="782.28992" y="403.436" style="stroke: #000000; stroke-width: 0.6"/>
      </g>
     </g>
    </g>
    <g id="xtick_18">
     <g id="line2d_18">
      <g>
       <use xlink:href="#m43d544fcb0" x="805.749479" y="403.436" style="stroke: #000000; stroke-width: 0.6"/>
      </g>
     </g>
    </g>
    <g id="xtick_19">
     <g id="line2d_19">
      <g>
       <use xlink:href="#m43d544fcb0" x="826.442275" y="403.436" style="stroke: #000000; stroke-width: 0.6"/>
      </g>
     </g>
    </g>
   </g>
   <g id="matplotlib.axis_2">
    <g id="ytick_1">
     <g id="line2d_20">
      <defs>
       <path id="mf8d9fc0bb6" d="M 0 0 
L -3.5 0 
" style="stroke: #000000; stroke-width: 0.8"/>
      </defs>
      <g>
       <use xlink:href="#mf8d9fc0bb6" x="35.89" y="385.597485" style="stroke: #000000; stroke-width: 0.8"/>
      </g>
     </g>
     <g id="text_4">
      <!-- 0.0 -->
      <g transform="translate(10.829063 389.423266) scale(0.1 -0.1)">
       <defs>
        <path id="DejaVuSansMono-2e" d="M 1528 953 
L 2316 953 
L 2316 0 
L 1528 0 
L 1528 953 
z
" transform="scale(0.015625)"/>
       </defs>
       <use xlink:href="#DejaVuSansMono-30"/>
       <use xlink:href="#DejaVuSansMono-2e" x="60.205078"/>
       <use xlink:href="#DejaVuSansMono-30" x="120.410156"/>
      </g>
     </g>
    </g>
    <g id="ytick_2">
     <g id="line2d_21">
      <g>
       <use xlink:href="#mf8d9fc0bb6" x="35.89" y="332.717568" style="stroke: #000000; stroke-width: 0.8"/>
      </g>
     </g>
     <g id="text_5">
      <!-- 0.1 -->
      <g transform="translate(10.829063 336.54335) scale(0.1 -0.1)">
       <use xlink:href="#DejaVuSansMono-30"/>
       <use xlink:href="#DejaVuSansMono-2e" x="60.205078"/>
       <use xlink:href="#DejaVuSansMono-31" x="120.410156"/>
      </g>
     </g>
    </g>
    <g id="ytick_3">
     <g id="line2d_22">
      <g>
       <use xlink:href="#mf8d9fc0bb6" x="35.89" y="279.837652" style="stroke: #000000; stroke-width: 0.8"/>
      </g>
     </g>
     <g id="text_6">
      <!-- 0.2 -->
      <g transform="translate(10.829063 283.663434) scale(0.1 -0.1)">
       <use xlink:href="#DejaVuSansMono-30"/>
       <use xlink:href="#DejaVuSansMono-2e" x="60.205078"/>
       <use xlink:href="#DejaVuSansMono-32" x="120.410156"/>
      </g>
     </g>
    </g>
    <g id="ytick_4">
     <g id="line2d_23">
      <g>
       <use xlink:href="#mf8d9fc0bb6" x="35.89" y="226.957736" style="stroke: #000000; stroke-width: 0.8"/>
      </g>
     </g>
     <g id="text_7">
      <!-- 0.3 -->
      <g transform="translate(10.829063 230.783518) scale(0.1 -0.1)">
       <defs>
        <path id="DejaVuSansMono-33" d="M 2425 2497 
Q 2884 2375 3128 2064 
Q 3372 1753 3372 1288 
Q 3372 644 2939 276 
Q 2506 -91 1741 -91 
Q 1419 -91 1084 -31 
Q 750 28 428 141 
L 428 769 
Q 747 603 1056 522 
Q 1366 441 1672 441 
Q 2191 441 2469 675 
Q 2747 909 2747 1350 
Q 2747 1756 2469 1995 
Q 2191 2234 1716 2234 
L 1234 2234 
L 1234 2753 
L 1716 2753 
Q 2150 2753 2394 2943 
Q 2638 3134 2638 3475 
Q 2638 3834 2411 4026 
Q 2184 4219 1766 4219 
Q 1488 4219 1191 4156 
Q 894 4094 569 3969 
L 569 4550 
Q 947 4650 1242 4700 
Q 1538 4750 1766 4750 
Q 2447 4750 2855 4408 
Q 3263 4066 3263 3500 
Q 3263 3116 3048 2859 
Q 2834 2603 2425 2497 
z
" transform="scale(0.015625)"/>
       </defs>
       <use xlink:href="#DejaVuSansMono-30"/>
       <use xlink:href="#DejaVuSansMono-2e" x="60.205078"/>
       <use xlink:href="#DejaVuSansMono-33" x="120.410156"/>
      </g>
     </g>
    </g>
    <g id="ytick_5">
     <g id="line2d_24">
      <g>
       <use xlink:href="#mf8d9fc0bb6" x="35.89" y="174.07782" style="stroke: #000000; stroke-width: 0.8"/>
      </g>
     </g>
     <g id="text_8">
      <!-- 0.4 -->
      <g transform="translate(10.829063 177.903601) scale(0.1 -0.1)">
       <defs>
        <path id="DejaVuSansMono-34" d="M 2297 4091 
L 825 1625 
L 2297 1625 
L 2297 4091 
z
M 2194 4666 
L 2925 4666 
L 2925 1625 
L 3547 1625 
L 3547 1113 
L 2925 1113 
L 2925 0 
L 2297 0 
L 2297 1113 
L 319 1113 
L 319 1709 
L 2194 4666 
z
" transform="scale(0.015625)"/>
       </defs>
       <use xlink:href="#DejaVuSansMono-30"/>
       <use xlink:href="#DejaVuSansMono-2e" x="60.205078"/>
       <use xlink:href="#DejaVuSansMono-34" x="120.410156"/>
      </g>
     </g>
    </g>
    <g id="ytick_6">
     <g id="line2d_25">
      <g>
       <use xlink:href="#mf8d9fc0bb6" x="35.89" y="121.197904" style="stroke: #000000; stroke-width: 0.8"/>
      </g>
     </g>
     <g id="text_9">
      <!-- 0.5 -->
      <g transform="translate(10.829063 125.023685) scale(0.1 -0.1)">
       <defs>
        <path id="DejaVuSansMono-35" d="M 647 4666 
L 3009 4666 
L 3009 4134 
L 1222 4134 
L 1222 2988 
Q 1356 3038 1492 3061 
Q 1628 3084 1766 3084 
Q 2491 3084 2916 2656 
Q 3341 2228 3341 1497 
Q 3341 759 2895 334 
Q 2450 -91 1678 -91 
Q 1306 -91 998 -41 
Q 691 9 447 109 
L 447 750 
Q 734 594 1025 517 
Q 1316 441 1619 441 
Q 2141 441 2423 716 
Q 2706 991 2706 1497 
Q 2706 1997 2414 2275 
Q 2122 2553 1600 2553 
Q 1347 2553 1106 2495 
Q 866 2438 647 2322 
L 647 4666 
z
" transform="scale(0.015625)"/>
       </defs>
       <use xlink:href="#DejaVuSansMono-30"/>
       <use xlink:href="#DejaVuSansMono-2e" x="60.205078"/>
       <use xlink:href="#DejaVuSansMono-35" x="120.410156"/>
      </g>
     </g>
    </g>
    <g id="ytick_7">
     <g id="line2d_26">
      <g>
       <use xlink:href="#mf8d9fc0bb6" x="35.89" y="68.317988" style="stroke: #000000; stroke-width: 0.8"/>
      </g>
     </g>
     <g id="text_10">
      <!-- 0.6 -->
      <g transform="translate(10.829063 72.143769) scale(0.1 -0.1)">
       <defs>
        <path id="DejaVuSansMono-36" d="M 3097 4563 
L 3097 3981 
Q 2900 4097 2678 4158 
Q 2456 4219 2216 4219 
Q 1616 4219 1306 3767 
Q 997 3316 997 2438 
Q 1147 2750 1412 2917 
Q 1678 3084 2022 3084 
Q 2697 3084 3067 2670 
Q 3438 2256 3438 1497 
Q 3438 741 3056 325 
Q 2675 -91 1984 -91 
Q 1172 -91 794 492 
Q 416 1075 416 2328 
Q 416 3509 870 4129 
Q 1325 4750 2188 4750 
Q 2419 4750 2650 4701 
Q 2881 4653 3097 4563 
z
M 1972 2591 
Q 1569 2591 1337 2300 
Q 1106 2009 1106 1497 
Q 1106 984 1337 693 
Q 1569 403 1972 403 
Q 2391 403 2603 679 
Q 2816 956 2816 1497 
Q 2816 2041 2603 2316 
Q 2391 2591 1972 2591 
z
" transform="scale(0.015625)"/>
       </defs>
       <use xlink:href="#DejaVuSansMono-30"/>
       <use xlink:href="#DejaVuSansMono-2e" x="60.205078"/>
       <use xlink:href="#DejaVuSansMono-36" x="120.410156"/>
      </g>
     </g>
    </g>
    <g id="ytick_8">
     <g id="line2d_27">
      <g>
       <use xlink:href="#mf8d9fc0bb6" x="35.89" y="15.438072" style="stroke: #000000; stroke-width: 0.8"/>
      </g>
     </g>
     <g id="text_11">
      <!-- 0.7 -->
      <g transform="translate(10.829063 19.263853) scale(0.1 -0.1)">
       <defs>
        <path id="DejaVuSansMono-37" d="M 434 4666 
L 3372 4666 
L 3372 4397 
L 1703 0 
L 1044 0 
L 2669 4134 
L 434 4134 
L 434 4666 
z
" transform="scale(0.015625)"/>
       </defs>
       <use xlink:href="#DejaVuSansMono-30"/>
       <use xlink:href="#DejaVuSansMono-2e" x="60.205078"/>
       <use xlink:href="#DejaVuSansMono-37" x="120.410156"/>
      </g>
     </g>
    </g>
   </g>
   <g id="line2d_28">
    <path d="M -1 204.913492 
L 35.89 204.898859 
L 157.666057 54.617976 
L 228.900484 38.887405 
L 279.442115 33.835558 
L 318.645249 28.827175 
L 350.676542 177.051072 
L 377.758614 241.999614 
L 401.218172 113.460869 
L 421.910969 352.490058 
" clip-path="url(#p05ad7ea9c1)" style="fill: none; stroke: #000000; stroke-width: 2; stroke-linecap: square"/>
   </g>
   <g id="line2d_29">
    <path d="M -1 138.745483 
L 35.89 138.747399 
L 157.666057 155.414318 
L 228.900484 164.532716 
L 279.442115 212.156272 
L 318.645249 191.207449 
L 350.676542 318.460917 
L 377.758614 225.261872 
L 401.218172 149.801813 
L 421.910969 385.597485 
" clip-path="url(#p05ad7ea9c1)" style="fill: none; stroke-dasharray: 7.4,3.2; stroke-dashoffset: 0; stroke: #000000; stroke-width: 2"/>
   </g>
   <g id="line2d_30">
    <path d="M -1 301.707644 
L 35.89 301.699993 
L 157.666057 279.431554 
L 228.900484 375.324 
L 279.442115 194.88304 
L 318.645249 209.975921 
L 350.676542 197.484498 
L 377.758614 298.405206 
L 401.218172 209.998851 
L 421.910969 209.998851 
" clip-path="url(#p05ad7ea9c1)" style="fill: none; stroke-dasharray: 7.4,3.2; stroke-dashoffset: 0; stroke: #000000; stroke-width: 2"/>
   </g>
   <g id="line2d_31">
    <path d="M -1 254.977781 
L 35.89 254.97776 
L 157.666057 317.578932 
L 228.900484 348.168082 
L 279.442115 308.424335 
L 318.645249 385.597485 
L 350.676542 376.00234 
L 377.758614 333.055344 
L 401.218172 343.225759 
L 421.910969 347.154238 
" clip-path="url(#p05ad7ea9c1)" style="fill: none; stroke-dasharray: 7.4,3.2; stroke-dashoffset: 0; stroke: #000000; stroke-width: 2"/>
   </g>
   <g id="line2d_32">
    <path d="M -1 309.668422 
L 35.89 309.66889 
L 157.666057 305.860644 
L 228.900484 300.751046 
L 279.442115 331.460831 
L 318.645249 301.921547 
L 350.676542 307.531468 
L 377.758614 303.425227 
L 401.218172 347.783918 
L 421.910969 300.226013 
" clip-path="url(#p05ad7ea9c1)" style="fill: none; stroke-dasharray: 7.4,3.2; stroke-dashoffset: 0; stroke: #000000; stroke-width: 2"/>
   </g>
   <g id="line2d_33">
    <path d="M -1 338.494201 
L 35.89 338.489905 
L 157.666057 362.570462 
L 228.900484 379.251895 
L 279.442115 319.397651 
L 318.645249 312.560251 
L 350.676542 316.783758 
L 377.758614 328.449075 
L 401.218172 311.782885 
L 421.910969 311.782885 
" clip-path="url(#p05ad7ea9c1)" style="fill: none; stroke-dasharray: 7.4,3.2; stroke-dashoffset: 0; stroke: #000000; stroke-width: 2"/>
   </g>
   <g id="line2d_34">
    <path d="M -1 332.887381 
L 35.89 332.8876 
L 157.666057 340.554963 
L 228.900484 340.604054 
L 279.442115 335.158177 
L 318.645249 326.181851 
L 350.676542 329.752984 
L 377.758614 341.24659 
L 401.218172 326.173065 
L 421.910969 326.058616 
" clip-path="url(#p05ad7ea9c1)" style="fill: none; stroke-dasharray: 7.4,3.2; stroke-dashoffset: 0; stroke: #000000; stroke-width: 2"/>
   </g>
   <g id="line2d_35">
    <path d="M -1 336.011431 
L 35.89 336.010456 
L 157.666057 340.105059 
L 228.900484 336.438447 
L 279.442115 334.844501 
L 318.645249 333.519381 
L 350.676542 346.339936 
L 377.758614 364.778622 
L 401.218172 335.774439 
L 421.910969 345.273116 
" clip-path="url(#p05ad7ea9c1)" style="fill: none; stroke-dasharray: 7.4,3.2; stroke-dashoffset: 0; stroke: #000000; stroke-width: 2"/>
   </g>
   <g id="line2d_36">
    <path d="M -1 346.120653 
L 35.89 346.120832 
L 157.666057 371.043382 
L 228.900484 382.118544 
L 279.442115 350.970789 
L 318.645249 385.597485 
L 350.676542 381.975573 
L 377.758614 385.597485 
L 401.218172 385.597485 
L 421.910969 385.597485 
" clip-path="url(#p05ad7ea9c1)" style="fill: none; stroke-dasharray: 7.4,3.2; stroke-dashoffset: 0; stroke: #000000; stroke-width: 2"/>
   </g>
   <g id="line2d_37">
    <path d="M -1 367.117946 
L 35.89 367.119406 
L 157.666057 349.89224 
L 228.900484 353.000276 
L 279.442115 352.253474 
L 318.645249 353.926811 
L 350.676542 352.595783 
L 377.758614 351.067686 
L 401.218172 385.597485 
L 421.910969 359.015126 
" clip-path="url(#p05ad7ea9c1)" style="fill: none; stroke-dasharray: 7.4,3.2; stroke-dashoffset: 0; stroke: #000000; stroke-width: 2"/>
   </g>
   <g id="line2d_38">
    <path d="M -1 353.654346 
L 35.89 353.654472 
L 157.666057 352.909321 
L 228.900484 355.216852 
L 279.442115 353.378192 
L 318.645249 352.420819 
L 350.676542 351.543125 
L 377.758614 351.754337 
L 401.218172 351.605544 
L 421.910969 351.803616 
" clip-path="url(#p05ad7ea9c1)" style="fill: none; stroke-dasharray: 7.4,3.2; stroke-dashoffset: 0; stroke: #000000; stroke-width: 2"/>
   </g>
   <g id="line2d_39">
    <path d="M -1 358.011609 
L 35.89 358.011492 
L 157.666057 357.557413 
L 228.900484 355.284158 
L 279.442115 359.399571 
L 318.645249 358.358292 
L 350.676542 353.861599 
L 377.758614 385.597485 
L 401.218172 385.597485 
L 421.910969 363.829647 
" clip-path="url(#p05ad7ea9c1)" style="fill: none; stroke-dasharray: 7.4,3.2; stroke-dashoffset: 0; stroke: #000000; stroke-width: 2"/>
   </g>
   <g id="line2d_40">
    <path d="M -1 357.66104 
L 35.89 357.660925 
L 157.666057 361.002177 
L 228.900484 362.095301 
L 279.442115 362.758984 
L 318.645249 358.814957 
L 350.676542 361.059961 
L 377.758614 357.911665 
L 401.218172 358.318164 
L 421.910969 358.78228 
" clip-path="url(#p05ad7ea9c1)" style="fill: none; stroke-dasharray: 7.4,3.2; stroke-dashoffset: 0; stroke: #000000; stroke-width: 2"/>
   </g>
   <g id="line2d_41">
    <path d="M -1 363.775469 
L 35.89 363.77564 
L 157.666057 361.434919 
L 228.900484 359.694659 
L 279.442115 359.705571 
L 318.645249 359.864341 
L 350.676542 360.11791 
L 377.758614 360.5765 
L 401.218172 360.21254 
L 421.910969 360.583334 
" clip-path="url(#p05ad7ea9c1)" style="fill: none; stroke-dasharray: 7.4,3.2; stroke-dashoffset: 0; stroke: #000000; stroke-width: 2"/>
   </g>
   <g id="line2d_42">
    <path d="M -1 367.123054 
L 35.89 367.12137 
L 157.666057 364.605177 
L 228.900484 363.038506 
L 279.442115 362.450822 
L 318.645249 362.902242 
L 350.676542 362.888318 
L 377.758614 363.861247 
L 401.218172 363.27041 
L 421.910969 362.60254 
" clip-path="url(#p05ad7ea9c1)" style="fill: none; stroke-dasharray: 7.4,3.2; stroke-dashoffset: 0; stroke: #000000; stroke-width: 2"/>
   </g>
   <g id="line2d_43">
    <path d="M -1 373.263951 
L 35.89 373.263977 
L 157.666057 367.137003 
L 228.900484 366.500518 
L 279.442115 366.143774 
L 318.645249 366.726454 
L 350.676542 365.974974 
L 377.758614 366.258544 
L 401.218172 385.597485 
L 421.910969 364.969577 
" clip-path="url(#p05ad7ea9c1)" style="fill: none; stroke-dasharray: 7.4,3.2; stroke-dashoffset: 0; stroke: #000000; stroke-width: 2"/>
   </g>
   <g id="line2d_44">
    <path d="M -1 369.075548 
L 35.89 369.075547 
L 157.666057 366.378552 
L 228.900484 369.600535 
L 279.442115 369.090933 
L 318.645249 369.149609 
L 350.676542 368.655727 
L 377.758614 369.233592 
L 401.218172 369.28659 
L 421.910969 370.898413 
" clip-path="url(#p05ad7ea9c1)" style="fill: none; stroke-dasharray: 7.4,3.2; stroke-dashoffset: 0; stroke: #000000; stroke-width: 2"/>
   </g>
   <g id="line2d_45">
    <path d="M -1 370.075104 
L 35.89 370.075005 
L 157.666057 372.210165 
L 228.900484 370.044569 
L 279.442115 368.791348 
L 318.645249 373.51065 
L 350.676542 365.531449 
L 377.758614 367.398553 
L 401.218172 378.903827 
L 421.910969 369.647628 
" clip-path="url(#p05ad7ea9c1)" style="fill: none; stroke-dasharray: 7.4,3.2; stroke-dashoffset: 0; stroke: #000000; stroke-width: 2"/>
   </g>
   <g id="line2d_46">
    <path d="M -1 372.106476 
L 35.89 372.106315 
L 157.666057 371.158136 
L 228.900484 371.215063 
L 279.442115 371.171006 
L 318.645249 371.217284 
L 350.676542 371.174946 
L 377.758614 371.201714 
L 401.218172 371.217284 
L 421.910969 371.053234 
" clip-path="url(#p05ad7ea9c1)" style="fill: none; stroke-dasharray: 7.4,3.2; stroke-dashoffset: 0; stroke: #000000; stroke-width: 2"/>
   </g>
   <g id="line2d_47">
    <path d="M -1 378.435175 
L 35.89 378.43542 
L 157.666057 370.194157 
L 228.900484 370.905862 
L 279.442115 370.462888 
L 318.645249 370.411959 
L 350.676542 370.545647 
L 377.758614 370.675462 
L 401.218172 385.597485 
L 421.910969 370.322064 
" clip-path="url(#p05ad7ea9c1)" style="fill: none; stroke-dasharray: 7.4,3.2; stroke-dashoffset: 0; stroke: #000000; stroke-width: 2"/>
   </g>
   <g id="line2d_48">
    <path d="M -1 374.805812 
L 35.89 374.805666 
L 157.666057 385.597485 
L 228.900484 385.597485 
L 279.442115 369.413883 
L 318.645249 385.597485 
L 350.676542 385.597485 
L 377.758614 371.277973 
L 401.218172 385.597485 
L 421.910969 378.593523 
" clip-path="url(#p05ad7ea9c1)" style="fill: none; stroke-dasharray: 7.4,3.2; stroke-dashoffset: 0; stroke: #000000; stroke-width: 2"/>
   </g>
   <g id="line2d_49">
    <path d="M -1 372.925271 
L 35.89 372.925206 
L 157.666057 373.480976 
L 228.900484 385.597485 
L 279.442115 385.597485 
L 318.645249 385.597485 
L 350.676542 378.639603 
L 377.758614 369.672621 
L 401.218172 385.597485 
L 421.910969 381.514096 
" clip-path="url(#p05ad7ea9c1)" style="fill: none; stroke-dasharray: 7.4,3.2; stroke-dashoffset: 0; stroke: #000000; stroke-width: 2"/>
   </g>
   <g id="line2d_50">
    <path d="M -1 372.596814 
L 35.89 372.595629 
L 157.666057 373.683466 
L 228.900484 373.590537 
L 279.442115 373.72462 
L 318.645249 373.640743 
L 350.676542 373.486946 
L 377.758614 373.376704 
L 401.218172 373.605456 
L 421.910969 373.640743 
" clip-path="url(#p05ad7ea9c1)" style="fill: none; stroke-dasharray: 7.4,3.2; stroke-dashoffset: 0; stroke: #000000; stroke-width: 2"/>
   </g>
   <g id="line2d_51">
    <path d="M -1 374.900491 
L 35.89 374.900455 
L 157.666057 373.245209 
L 228.900484 373.640743 
L 279.442115 373.975526 
L 318.645249 373.640743 
L 350.676542 373.606162 
L 377.758614 373.616453 
L 401.218172 385.597485 
L 421.910969 385.597485 
" clip-path="url(#p05ad7ea9c1)" style="fill: none; stroke-dasharray: 7.4,3.2; stroke-dashoffset: 0; stroke: #000000; stroke-width: 2"/>
   </g>
   <g id="line2d_52">
    <path d="M -1 375.762075 
L 35.89 375.762052 
L 157.666057 376.580203 
L 228.900484 376.539848 
L 279.442115 376.474208 
L 318.645249 385.597485 
L 350.676542 375.466471 
L 377.758614 375.711848 
L 401.218172 374.789913 
L 421.910969 376.108847 
" clip-path="url(#p05ad7ea9c1)" style="fill: none; stroke-dasharray: 7.4,3.2; stroke-dashoffset: 0; stroke: #000000; stroke-width: 2"/>
   </g>
   <g id="line2d_53">
    <path d="M -1 377.627369 
L 35.89 377.627179 
L 157.666057 376.105204 
L 228.900484 376.890583 
L 279.442115 377.831224 
L 318.645249 377.161839 
L 350.676542 377.988864 
L 377.758614 378.381901 
L 401.218172 377.214283 
L 421.910969 377.614355 
" clip-path="url(#p05ad7ea9c1)" style="fill: none; stroke-dasharray: 7.4,3.2; stroke-dashoffset: 0; stroke: #000000; stroke-width: 2"/>
   </g>
   <g id="line2d_54">
    <path d="M -1 375.714959 
L 35.89 375.714953 
L 157.666057 375.251223 
L 228.900484 375.7502 
L 279.442115 375.749268 
L 318.645249 375.7502 
L 350.676542 375.119592 
L 377.758614 375.456849 
L 401.218172 374.817888 
L 421.910969 385.597485 
" clip-path="url(#p05ad7ea9c1)" style="fill: none; stroke-dasharray: 7.4,3.2; stroke-dashoffset: 0; stroke: #000000; stroke-width: 2"/>
   </g>
   <g id="line2d_55">
    <path d="M -1 374.578147 
L 35.89 374.578103 
L 157.666057 373.709829 
L 228.900484 374.651665 
L 279.442115 375.019848 
L 318.645249 374.775548 
L 350.676542 374.658527 
L 377.758614 374.752007 
L 401.218172 374.775548 
L 421.910969 374.851215 
" clip-path="url(#p05ad7ea9c1)" style="fill: none; stroke-dasharray: 7.4,3.2; stroke-dashoffset: 0; stroke: #000000; stroke-width: 2"/>
   </g>
   <g id="line2d_56">
    <path d="M -1 378.243406 
L 35.89 378.243767 
L 157.666057 376.947305 
L 228.900484 373.561482 
L 279.442115 377.134582 
L 318.645249 361.561158 
L 350.676542 380.678424 
L 377.758614 376.183398 
L 401.218172 385.597485 
L 421.910969 385.597485 
" clip-path="url(#p05ad7ea9c1)" style="fill: none; stroke-dasharray: 7.4,3.2; stroke-dashoffset: 0; stroke: #000000; stroke-width: 2"/>
   </g>
   <g id="line2d_57">
    <path d="M -1 282.986794 
L 35.89 282.985119 
L 157.666057 278.740833 
L 228.900484 271.897902 
L 279.442115 271.818371 
L 318.645249 271.897902 
L 350.676542 273.029839 
L 377.758614 271.897902 
L 401.218172 273.599803 
L 421.910969 385.597485 
" clip-path="url(#p05ad7ea9c1)" style="fill: none; stroke-dasharray: 7.4,3.2; stroke-dashoffset: 0; stroke: #000000; stroke-width: 2"/>
   </g>
   <g id="patch_3">
    <path d="M 35.89 403.436 
L 35.89 10.98866 
" style="fill: none; stroke: #000000; stroke-width: 0.8; stroke-linejoin: miter; stroke-linecap: square"/>
   </g>
   <g id="patch_4">
    <path d="M 844.952613 403.436 
L 844.952613 10.98866 
" style="fill: none; stroke: #000000; stroke-width: 0.8; stroke-linejoin: miter; stroke-linecap: square"/>
   </g>
   <g id="patch_5">
    <path d="M 35.89 403.436 
L 844.952613 403.436 
" style="fill: none; stroke: #000000; stroke-width: 0.8; stroke-linejoin: miter; stroke-linecap: square"/>
   </g>
   <g id="patch_6">
    <path d="M 35.89 10.98866 
L 844.952613 10.98866 
" style="fill: none; stroke: #000000; stroke-width: 0.8; stroke-linejoin: miter; stroke-linecap: square"/>
   </g>
  </g>
 </g>
 <defs>
  <clipPath id="p05ad7ea9c1">
   <rect x="35.89" y="10.98866" width="809.062613" height="392.44734"/>
  </clipPath>
 </defs>
</svg>
