<?xml version="1.0" encoding="utf-8" standalone="no"?>
<!DOCTYPE svg PUBLIC "-//W3C//DTD SVG 1.1//EN"
  "http://www.w3.org/Graphics/SVG/1.1/DTD/svg11.dtd">
<svg xmlns:xlink="http://www.w3.org/1999/xlink" width="864pt" height="432pt" viewBox="0 0 864 432" xmlns="http://www.w3.org/2000/svg" version="1.1">
 <metadata>
  <rdf:RDF xmlns:dc="http://purl.org/dc/elements/1.1/" xmlns:cc="http://creativecommons.org/ns#" xmlns:rdf="http://www.w3.org/1999/02/22-rdf-syntax-ns#">
   <cc:Work>
    <dc:type rdf:resource="http://purl.org/dc/dcmitype/StillImage"/>
    <dc:date>2024-09-15T22:06:37.758160</dc:date>
    <dc:format>image/svg+xml</dc:format>
    <dc:creator>
     <cc:Agent>
      <dc:title>Matplotlib v3.9.2, https://matplotlib.org/</dc:title>
     </cc:Agent>
    </dc:creator>
   </cc:Work>
  </rdf:RDF>
 </metadata>
 <defs>
  <style type="text/css">*{stroke-linejoin: round; stroke-linecap: butt}</style>
 </defs>
 <g id="figure_1">
  <g id="patch_1">
   <path d="M 0 432 
L 864 432 
L 864 0 
L 0 0 
z
" style="fill: #ffffff"/>
  </g>
  <g id="axes_1">
   <g id="patch_2">
    <path d="M 35.89 403.436 
L 844.952613 403.436 
L 844.952613 10.8 
L 35.89 10.8 
z
" style="fill: #ffffff"/>
   </g>
   <g id="matplotlib.axis_1">
    <g id="xtick_1">
     <g id="line2d_1">
      <defs>
       <path id="mc6affdd6b1" d="M 0 0 
L 0 3.5 
" style="stroke: #000000; stroke-width: 0.8"/>
      </defs>
      <g>
       <use xlink:href="#mc6affdd6b1" x="35.89" y="403.436" style="stroke: #000000; stroke-width: 0.8"/>
      </g>
     </g>
     <g id="text_1">
      <!-- $\mathdefault{10^{0}}$ -->
      <g transform="translate(27.54 418.087562) scale(0.1 -0.1)">
       <defs>
        <path id="DejaVuSansMono-31" d="M 844 531 
L 1825 531 
L 1825 4097 
L 769 3859 
L 769 4434 
L 1819 4666 
L 2450 4666 
L 2450 531 
L 3419 531 
L 3419 0 
L 844 0 
L 844 531 
z
" transform="scale(0.015625)"/>
        <path id="DejaVuSansMono-30" d="M 1509 2344 
Q 1509 2516 1629 2641 
Q 1750 2766 1919 2766 
Q 2094 2766 2219 2641 
Q 2344 2516 2344 2344 
Q 2344 2169 2220 2047 
Q 2097 1925 1919 1925 
Q 1744 1925 1626 2044 
Q 1509 2163 1509 2344 
z
M 1925 4250 
Q 1484 4250 1267 3775 
Q 1050 3300 1050 2328 
Q 1050 1359 1267 884 
Q 1484 409 1925 409 
Q 2369 409 2586 884 
Q 2803 1359 2803 2328 
Q 2803 3300 2586 3775 
Q 2369 4250 1925 4250 
z
M 1925 4750 
Q 2672 4750 3055 4137 
Q 3438 3525 3438 2328 
Q 3438 1134 3055 521 
Q 2672 -91 1925 -91 
Q 1178 -91 797 521 
Q 416 1134 416 2328 
Q 416 3525 797 4137 
Q 1178 4750 1925 4750 
z
" transform="scale(0.015625)"/>
       </defs>
       <use xlink:href="#DejaVuSansMono-31" transform="translate(0 0.765625)"/>
       <use xlink:href="#DejaVuSansMono-30" transform="translate(60.205078 0.765625)"/>
       <use xlink:href="#DejaVuSansMono-30" transform="translate(121.367188 39.046875) scale(0.7)"/>
      </g>
     </g>
    </g>
    <g id="xtick_2">
     <g id="line2d_2">
      <g>
       <use xlink:href="#mc6affdd6b1" x="440.421306" y="403.436" style="stroke: #000000; stroke-width: 0.8"/>
      </g>
     </g>
     <g id="text_2">
      <!-- $\mathdefault{10^{1}}$ -->
      <g transform="translate(432.071306 418.087562) scale(0.1 -0.1)">
       <use xlink:href="#DejaVuSansMono-31" transform="translate(0 0.684375)"/>
       <use xlink:href="#DejaVuSansMono-30" transform="translate(60.205078 0.684375)"/>
       <use xlink:href="#DejaVuSansMono-31" transform="translate(121.367188 38.965625) scale(0.7)"/>
      </g>
     </g>
    </g>
    <g id="xtick_3">
     <g id="line2d_3">
      <g>
       <use xlink:href="#mc6affdd6b1" x="844.952613" y="403.436" style="stroke: #000000; stroke-width: 0.8"/>
      </g>
     </g>
     <g id="text_3">
      <!-- $\mathdefault{10^{2}}$ -->
      <g transform="translate(836.602613 418.087562) scale(0.1 -0.1)">
       <defs>
        <path id="DejaVuSansMono-32" d="M 1166 531 
L 3309 531 
L 3309 0 
L 475 0 
L 475 531 
Q 1059 1147 1496 1619 
Q 1934 2091 2100 2284 
Q 2413 2666 2522 2902 
Q 2631 3138 2631 3384 
Q 2631 3775 2401 3997 
Q 2172 4219 1772 4219 
Q 1488 4219 1175 4116 
Q 863 4013 513 3803 
L 513 4441 
Q 834 4594 1145 4672 
Q 1456 4750 1759 4750 
Q 2444 4750 2861 4386 
Q 3278 4022 3278 3431 
Q 3278 3131 3139 2831 
Q 3000 2531 2688 2169 
Q 2513 1966 2180 1606 
Q 1847 1247 1166 531 
z
" transform="scale(0.015625)"/>
       </defs>
       <use xlink:href="#DejaVuSansMono-31" transform="translate(0 0.765625)"/>
       <use xlink:href="#DejaVuSansMono-30" transform="translate(60.205078 0.765625)"/>
       <use xlink:href="#DejaVuSansMono-32" transform="translate(121.367188 39.046875) scale(0.7)"/>
      </g>
     </g>
    </g>
    <g id="xtick_4">
     <g id="line2d_4">
      <defs>
       <path id="mfd65ead6a9" d="M 0 0 
L 0 2 
" style="stroke: #000000; stroke-width: 0.6"/>
      </defs>
      <g>
       <use xlink:href="#mfd65ead6a9" x="157.666057" y="403.436" style="stroke: #000000; stroke-width: 0.6"/>
      </g>
     </g>
    </g>
    <g id="xtick_5">
     <g id="line2d_5">
      <g>
       <use xlink:href="#mfd65ead6a9" x="228.900484" y="403.436" style="stroke: #000000; stroke-width: 0.6"/>
      </g>
     </g>
    </g>
    <g id="xtick_6">
     <g id="line2d_6">
      <g>
       <use xlink:href="#mfd65ead6a9" x="279.442115" y="403.436" style="stroke: #000000; stroke-width: 0.6"/>
      </g>
     </g>
    </g>
    <g id="xtick_7">
     <g id="line2d_7">
      <g>
       <use xlink:href="#mfd65ead6a9" x="318.645249" y="403.436" style="stroke: #000000; stroke-width: 0.6"/>
      </g>
     </g>
    </g>
    <g id="xtick_8">
     <g id="line2d_8">
      <g>
       <use xlink:href="#mfd65ead6a9" x="350.676542" y="403.436" style="stroke: #000000; stroke-width: 0.6"/>
      </g>
     </g>
    </g>
    <g id="xtick_9">
     <g id="line2d_9">
      <g>
       <use xlink:href="#mfd65ead6a9" x="377.758614" y="403.436" style="stroke: #000000; stroke-width: 0.6"/>
      </g>
     </g>
    </g>
    <g id="xtick_10">
     <g id="line2d_10">
      <g>
       <use xlink:href="#mfd65ead6a9" x="401.218172" y="403.436" style="stroke: #000000; stroke-width: 0.6"/>
      </g>
     </g>
    </g>
    <g id="xtick_11">
     <g id="line2d_11">
      <g>
       <use xlink:href="#mfd65ead6a9" x="421.910969" y="403.436" style="stroke: #000000; stroke-width: 0.6"/>
      </g>
     </g>
    </g>
    <g id="xtick_12">
     <g id="line2d_12">
      <g>
       <use xlink:href="#mfd65ead6a9" x="562.197364" y="403.436" style="stroke: #000000; stroke-width: 0.6"/>
      </g>
     </g>
    </g>
    <g id="xtick_13">
     <g id="line2d_13">
      <g>
       <use xlink:href="#mfd65ead6a9" x="633.431791" y="403.436" style="stroke: #000000; stroke-width: 0.6"/>
      </g>
     </g>
    </g>
    <g id="xtick_14">
     <g id="line2d_14">
      <g>
       <use xlink:href="#mfd65ead6a9" x="683.973421" y="403.436" style="stroke: #000000; stroke-width: 0.6"/>
      </g>
     </g>
    </g>
    <g id="xtick_15">
     <g id="line2d_15">
      <g>
       <use xlink:href="#mfd65ead6a9" x="723.176555" y="403.436" style="stroke: #000000; stroke-width: 0.6"/>
      </g>
     </g>
    </g>
    <g id="xtick_16">
     <g id="line2d_16">
      <g>
       <use xlink:href="#mfd65ead6a9" x="755.207848" y="403.436" style="stroke: #000000; stroke-width: 0.6"/>
      </g>
     </g>
    </g>
    <g id="xtick_17">
     <g id="line2d_17">
      <g>
       <use xlink:href="#mfd65ead6a9" x="782.28992" y="403.436" style="stroke: #000000; stroke-width: 0.6"/>
      </g>
     </g>
    </g>
    <g id="xtick_18">
     <g id="line2d_18">
      <g>
       <use xlink:href="#mfd65ead6a9" x="805.749479" y="403.436" style="stroke: #000000; stroke-width: 0.6"/>
      </g>
     </g>
    </g>
    <g id="xtick_19">
     <g id="line2d_19">
      <g>
       <use xlink:href="#mfd65ead6a9" x="826.442275" y="403.436" style="stroke: #000000; stroke-width: 0.6"/>
      </g>
     </g>
    </g>
   </g>
   <g id="matplotlib.axis_2">
    <g id="ytick_1">
     <g id="line2d_20">
      <defs>
       <path id="mafee79c60e" d="M 0 0 
L -3.5 0 
" style="stroke: #000000; stroke-width: 0.8"/>
      </defs>
      <g>
       <use xlink:href="#mafee79c60e" x="35.89" y="385.588909" style="stroke: #000000; stroke-width: 0.8"/>
      </g>
     </g>
     <g id="text_4">
      <!-- 0.0 -->
      <g transform="translate(10.829063 389.41469) scale(0.1 -0.1)">
       <defs>
        <path id="DejaVuSansMono-2e" d="M 1528 953 
L 2316 953 
L 2316 0 
L 1528 0 
L 1528 953 
z
" transform="scale(0.015625)"/>
       </defs>
       <use xlink:href="#DejaVuSansMono-30"/>
       <use xlink:href="#DejaVuSansMono-2e" x="60.205078"/>
       <use xlink:href="#DejaVuSansMono-30" x="120.410156"/>
      </g>
     </g>
    </g>
    <g id="ytick_2">
     <g id="line2d_21">
      <g>
       <use xlink:href="#mafee79c60e" x="35.89" y="321.429181" style="stroke: #000000; stroke-width: 0.8"/>
      </g>
     </g>
     <g id="text_5">
      <!-- 0.1 -->
      <g transform="translate(10.829063 325.254963) scale(0.1 -0.1)">
       <use xlink:href="#DejaVuSansMono-30"/>
       <use xlink:href="#DejaVuSansMono-2e" x="60.205078"/>
       <use xlink:href="#DejaVuSansMono-31" x="120.410156"/>
      </g>
     </g>
    </g>
    <g id="ytick_3">
     <g id="line2d_22">
      <g>
       <use xlink:href="#mafee79c60e" x="35.89" y="257.269454" style="stroke: #000000; stroke-width: 0.8"/>
      </g>
     </g>
     <g id="text_6">
      <!-- 0.2 -->
      <g transform="translate(10.829063 261.095235) scale(0.1 -0.1)">
       <use xlink:href="#DejaVuSansMono-30"/>
       <use xlink:href="#DejaVuSansMono-2e" x="60.205078"/>
       <use xlink:href="#DejaVuSansMono-32" x="120.410156"/>
      </g>
     </g>
    </g>
    <g id="ytick_4">
     <g id="line2d_23">
      <g>
       <use xlink:href="#mafee79c60e" x="35.89" y="193.109726" style="stroke: #000000; stroke-width: 0.8"/>
      </g>
     </g>
     <g id="text_7">
      <!-- 0.3 -->
      <g transform="translate(10.829063 196.935507) scale(0.1 -0.1)">
       <defs>
        <path id="DejaVuSansMono-33" d="M 2425 2497 
Q 2884 2375 3128 2064 
Q 3372 1753 3372 1288 
Q 3372 644 2939 276 
Q 2506 -91 1741 -91 
Q 1419 -91 1084 -31 
Q 750 28 428 141 
L 428 769 
Q 747 603 1056 522 
Q 1366 441 1672 441 
Q 2191 441 2469 675 
Q 2747 909 2747 1350 
Q 2747 1756 2469 1995 
Q 2191 2234 1716 2234 
L 1234 2234 
L 1234 2753 
L 1716 2753 
Q 2150 2753 2394 2943 
Q 2638 3134 2638 3475 
Q 2638 3834 2411 4026 
Q 2184 4219 1766 4219 
Q 1488 4219 1191 4156 
Q 894 4094 569 3969 
L 569 4550 
Q 947 4650 1242 4700 
Q 1538 4750 1766 4750 
Q 2447 4750 2855 4408 
Q 3263 4066 3263 3500 
Q 3263 3116 3048 2859 
Q 2834 2603 2425 2497 
z
" transform="scale(0.015625)"/>
       </defs>
       <use xlink:href="#DejaVuSansMono-30"/>
       <use xlink:href="#DejaVuSansMono-2e" x="60.205078"/>
       <use xlink:href="#DejaVuSansMono-33" x="120.410156"/>
      </g>
     </g>
    </g>
    <g id="ytick_5">
     <g id="line2d_24">
      <g>
       <use xlink:href="#mafee79c60e" x="35.89" y="128.949998" style="stroke: #000000; stroke-width: 0.8"/>
      </g>
     </g>
     <g id="text_8">
      <!-- 0.4 -->
      <g transform="translate(10.829063 132.775779) scale(0.1 -0.1)">
       <defs>
        <path id="DejaVuSansMono-34" d="M 2297 4091 
L 825 1625 
L 2297 1625 
L 2297 4091 
z
M 2194 4666 
L 2925 4666 
L 2925 1625 
L 3547 1625 
L 3547 1113 
L 2925 1113 
L 2925 0 
L 2297 0 
L 2297 1113 
L 319 1113 
L 319 1709 
L 2194 4666 
z
" transform="scale(0.015625)"/>
       </defs>
       <use xlink:href="#DejaVuSansMono-30"/>
       <use xlink:href="#DejaVuSansMono-2e" x="60.205078"/>
       <use xlink:href="#DejaVuSansMono-34" x="120.410156"/>
      </g>
     </g>
    </g>
    <g id="ytick_6">
     <g id="line2d_25">
      <g>
       <use xlink:href="#mafee79c60e" x="35.89" y="64.79027" style="stroke: #000000; stroke-width: 0.8"/>
      </g>
     </g>
     <g id="text_9">
      <!-- 0.5 -->
      <g transform="translate(10.829063 68.616052) scale(0.1 -0.1)">
       <defs>
        <path id="DejaVuSansMono-35" d="M 647 4666 
L 3009 4666 
L 3009 4134 
L 1222 4134 
L 1222 2988 
Q 1356 3038 1492 3061 
Q 1628 3084 1766 3084 
Q 2491 3084 2916 2656 
Q 3341 2228 3341 1497 
Q 3341 759 2895 334 
Q 2450 -91 1678 -91 
Q 1306 -91 998 -41 
Q 691 9 447 109 
L 447 750 
Q 734 594 1025 517 
Q 1316 441 1619 441 
Q 2141 441 2423 716 
Q 2706 991 2706 1497 
Q 2706 1997 2414 2275 
Q 2122 2553 1600 2553 
Q 1347 2553 1106 2495 
Q 866 2438 647 2322 
L 647 4666 
z
" transform="scale(0.015625)"/>
       </defs>
       <use xlink:href="#DejaVuSansMono-30"/>
       <use xlink:href="#DejaVuSansMono-2e" x="60.205078"/>
       <use xlink:href="#DejaVuSansMono-35" x="120.410156"/>
      </g>
     </g>
    </g>
   </g>
   <g id="line2d_26">
    <path d="M -1 28.648694 
L 35.89 28.647091 
L 157.666057 35.948632 
L 228.900484 53.182622 
L 279.442115 46.299604 
L 318.645249 49.749392 
L 350.676542 35.818302 
L 377.758614 63.448008 
L 401.218172 36.513851 
L 421.910969 78.984906 
" clip-path="url(#pedd751941d)" style="fill: none; stroke: #000000; stroke-width: 2; stroke-linecap: square"/>
   </g>
   <g id="line2d_27">
    <path d="M -1 166.613832 
L 35.89 166.613721 
L 157.666057 165.956739 
L 228.900484 165.319223 
L 279.442115 173.723764 
L 318.645249 167.445832 
L 350.676542 172.141666 
L 377.758614 157.074802 
L 401.218172 168.929839 
L 421.910969 385.588909 
" clip-path="url(#pedd751941d)" style="fill: none; stroke-dasharray: 7.4,3.2; stroke-dashoffset: 0; stroke: #000000; stroke-width: 2"/>
   </g>
   <g id="line2d_28">
    <path d="M -1 192.84591 
L 35.89 192.828332 
L 157.666057 172.885457 
L 228.900484 365.745694 
L 279.442115 229.145131 
L 318.645249 257.832348 
L 350.676542 243.178595 
L 377.758614 170.692479 
L 401.218172 257.852358 
L 421.910969 257.852358 
" clip-path="url(#pedd751941d)" style="fill: none; stroke-dasharray: 7.4,3.2; stroke-dashoffset: 0; stroke: #000000; stroke-width: 2"/>
   </g>
   <g id="line2d_29">
    <path d="M -1 293.27767 
L 35.89 293.277694 
L 157.666057 298.553508 
L 228.900484 290.782439 
L 279.442115 296.443295 
L 318.645249 385.588909 
L 350.676542 300.671618 
L 377.758614 292.987244 
L 401.218172 286.576985 
L 421.910969 303.867851 
" clip-path="url(#pedd751941d)" style="fill: none; stroke-dasharray: 7.4,3.2; stroke-dashoffset: 0; stroke: #000000; stroke-width: 2"/>
   </g>
   <g id="line2d_30">
    <path d="M -1 330.768176 
L 35.89 330.768202 
L 157.666057 330.518213 
L 228.900484 328.243062 
L 279.442115 335.594317 
L 318.645249 329.968544 
L 350.676542 332.010222 
L 377.758614 326.430024 
L 401.218172 323.74821 
L 421.910969 329.214676 
" clip-path="url(#pedd751941d)" style="fill: none; stroke-dasharray: 7.4,3.2; stroke-dashoffset: 0; stroke: #000000; stroke-width: 2"/>
   </g>
   <g id="line2d_31">
    <path d="M -1 344.73756 
L 35.89 344.733834 
L 157.666057 330.818409 
L 228.900484 293.932151 
L 279.442115 338.626167 
L 318.645249 337.814845 
L 350.676542 338.417756 
L 377.758614 334.638535 
L 401.218172 337.449015 
L 421.910969 337.449015 
" clip-path="url(#pedd751941d)" style="fill: none; stroke-dasharray: 7.4,3.2; stroke-dashoffset: 0; stroke: #000000; stroke-width: 2"/>
   </g>
   <g id="line2d_32">
    <path d="M -1 350.554408 
L 35.89 350.554533 
L 157.666057 350.744742 
L 228.900484 352.234844 
L 279.442115 349.751944 
L 318.645249 347.398595 
L 350.676542 348.661354 
L 377.758614 346.794655 
L 401.218172 347.392612 
L 421.910969 347.31466 
" clip-path="url(#pedd751941d)" style="fill: none; stroke-dasharray: 7.4,3.2; stroke-dashoffset: 0; stroke: #000000; stroke-width: 2"/>
   </g>
   <g id="line2d_33">
    <path d="M -1 353.57103 
L 35.89 353.571578 
L 157.666057 354.025787 
L 228.900484 353.004984 
L 279.442115 351.696901 
L 318.645249 352.348677 
L 350.676542 354.045286 
L 377.758614 349.544117 
L 401.218172 353.367838 
L 421.910969 351.328861 
" clip-path="url(#pedd751941d)" style="fill: none; stroke-dasharray: 7.4,3.2; stroke-dashoffset: 0; stroke: #000000; stroke-width: 2"/>
   </g>
   <g id="line2d_34">
    <path d="M -1 359.139091 
L 35.89 359.13908 
L 157.666057 362.944298 
L 228.900484 368.70477 
L 279.442115 357.623896 
L 318.645249 385.588909 
L 350.676542 360.91209 
L 377.758614 385.588909 
L 401.218172 385.588909 
L 421.910969 385.588909 
" clip-path="url(#pedd751941d)" style="fill: none; stroke-dasharray: 7.4,3.2; stroke-dashoffset: 0; stroke: #000000; stroke-width: 2"/>
   </g>
   <g id="line2d_35">
    <path d="M -1 371.160788 
L 35.89 371.161457 
L 157.666057 362.874956 
L 228.900484 364.85041 
L 279.442115 364.474361 
L 318.645249 364.948886 
L 350.676542 364.742787 
L 377.758614 363.909837 
L 401.218172 385.588909 
L 421.910969 365.561347 
" clip-path="url(#pedd751941d)" style="fill: none; stroke-dasharray: 7.4,3.2; stroke-dashoffset: 0; stroke: #000000; stroke-width: 2"/>
   </g>
   <g id="line2d_36">
    <path d="M -1 364.898788 
L 35.89 364.89883 
L 157.666057 362.623458 
L 228.900484 365.374201 
L 279.442115 364.326366 
L 318.645249 364.689975 
L 350.676542 364.10578 
L 377.758614 364.289194 
L 401.218172 364.282734 
L 421.910969 364.379945 
" clip-path="url(#pedd751941d)" style="fill: none; stroke-dasharray: 7.4,3.2; stroke-dashoffset: 0; stroke: #000000; stroke-width: 2"/>
   </g>
   <g id="line2d_37">
    <path d="M -1 367.686226 
L 35.89 367.686318 
L 157.666057 366.730459 
L 228.900484 365.375227 
L 279.442115 368.094259 
L 318.645249 368.6192 
L 350.676542 363.521934 
L 377.758614 385.588909 
L 401.218172 385.588909 
L 421.910969 371.151209 
" clip-path="url(#pedd751941d)" style="fill: none; stroke-dasharray: 7.4,3.2; stroke-dashoffset: 0; stroke: #000000; stroke-width: 2"/>
   </g>
   <g id="line2d_38">
    <path d="M -1 367.937577 
L 35.89 367.937498 
L 157.666057 368.578873 
L 228.900484 370.147717 
L 279.442115 369.47149 
L 318.645249 368.783619 
L 350.676542 369.925687 
L 377.758614 366.704515 
L 401.218172 368.601608 
L 421.910969 368.870789 
" clip-path="url(#pedd751941d)" style="fill: none; stroke-dasharray: 7.4,3.2; stroke-dashoffset: 0; stroke: #000000; stroke-width: 2"/>
   </g>
   <g id="line2d_39">
    <path d="M -1 371.271862 
L 35.89 371.272001 
L 157.666057 370.300231 
L 228.900484 369.392031 
L 279.442115 369.468374 
L 318.645249 369.575315 
L 350.676542 369.668381 
L 377.758614 370.021739 
L 401.218172 369.81028 
L 421.910969 369.828721 
" clip-path="url(#pedd751941d)" style="fill: none; stroke-dasharray: 7.4,3.2; stroke-dashoffset: 0; stroke: #000000; stroke-width: 2"/>
   </g>
   <g id="line2d_40">
    <path d="M -1 373.349025 
L 35.89 373.347908 
L 157.666057 372.335081 
L 228.900484 371.593816 
L 279.442115 371.223215 
L 318.645249 371.518793 
L 350.676542 371.509972 
L 377.758614 372.091827 
L 401.218172 371.736241 
L 421.910969 371.319534 
" clip-path="url(#pedd751941d)" style="fill: none; stroke-dasharray: 7.4,3.2; stroke-dashoffset: 0; stroke: #000000; stroke-width: 2"/>
   </g>
   <g id="line2d_41">
    <path d="M -1 377.128143 
L 35.89 377.128286 
L 157.666057 374.042166 
L 228.900484 373.72658 
L 279.442115 373.427485 
L 318.645249 373.925348 
L 350.676542 373.434003 
L 377.758614 373.52881 
L 401.218172 385.588909 
L 421.910969 372.237335 
" clip-path="url(#pedd751941d)" style="fill: none; stroke-dasharray: 7.4,3.2; stroke-dashoffset: 0; stroke: #000000; stroke-width: 2"/>
   </g>
   <g id="line2d_42">
    <path d="M -1 375.378134 
L 35.89 375.37813 
L 157.666057 373.614278 
L 228.900484 375.697257 
L 279.442115 375.346764 
L 318.645249 375.453091 
L 350.676542 375.13292 
L 377.758614 375.505657 
L 401.218172 375.538827 
L 421.910969 376.005679 
" clip-path="url(#pedd751941d)" style="fill: none; stroke-dasharray: 7.4,3.2; stroke-dashoffset: 0; stroke: #000000; stroke-width: 2"/>
   </g>
   <g id="line2d_43">
    <path d="M -1 375.116687 
L 35.89 375.116701 
L 157.666057 376.562108 
L 228.900484 373.949956 
L 279.442115 375.221988 
L 318.645249 367.766762 
L 350.676542 371.834617 
L 377.758614 374.166452 
L 401.218172 373.923504 
L 421.910969 374.59976 
" clip-path="url(#pedd751941d)" style="fill: none; stroke-dasharray: 7.4,3.2; stroke-dashoffset: 0; stroke: #000000; stroke-width: 2"/>
   </g>
   <g id="line2d_44">
    <path d="M -1 377.278394 
L 35.89 377.278354 
L 157.666057 376.705096 
L 228.900484 376.743451 
L 279.442115 376.710133 
L 318.645249 376.744837 
L 350.676542 376.718436 
L 377.758614 376.735128 
L 401.218172 376.744837 
L 421.910969 376.642536 
" clip-path="url(#pedd751941d)" style="fill: none; stroke-dasharray: 7.4,3.2; stroke-dashoffset: 0; stroke: #000000; stroke-width: 2"/>
   </g>
   <g id="line2d_45">
    <path d="M -1 380.734129 
L 35.89 380.734453 
L 157.666057 375.999327 
L 228.900484 376.517798 
L 279.442115 376.257812 
L 318.645249 376.242332 
L 350.676542 376.322863 
L 377.758614 376.385434 
L 401.218172 385.588909 
L 421.910969 375.526959 
" clip-path="url(#pedd751941d)" style="fill: none; stroke-dasharray: 7.4,3.2; stroke-dashoffset: 0; stroke: #000000; stroke-width: 2"/>
   </g>
   <g id="line2d_46">
    <path d="M -1 377.549032 
L 35.89 377.548843 
L 157.666057 385.588909 
L 228.900484 385.588909 
L 279.442115 375.416934 
L 318.645249 385.588909 
L 350.676542 385.588909 
L 377.758614 375.046231 
L 401.218172 385.588909 
L 421.910969 380.865493 
" clip-path="url(#pedd751941d)" style="fill: none; stroke-dasharray: 7.4,3.2; stroke-dashoffset: 0; stroke: #000000; stroke-width: 2"/>
   </g>
   <g id="line2d_47">
    <path d="M -1 377.785563 
L 35.89 377.78552 
L 157.666057 377.771362 
L 228.900484 385.588909 
L 279.442115 385.588909 
L 318.645249 385.588909 
L 350.676542 377.467424 
L 377.758614 375.260165 
L 401.218172 385.588909 
L 421.910969 382.139461 
" clip-path="url(#pedd751941d)" style="fill: none; stroke-dasharray: 7.4,3.2; stroke-dashoffset: 0; stroke: #000000; stroke-width: 2"/>
   </g>
   <g id="line2d_48">
    <path d="M -1 377.511218 
L 35.89 377.510481 
L 157.666057 378.245071 
L 228.900484 378.221188 
L 279.442115 378.231575 
L 318.645249 378.252349 
L 350.676542 378.156887 
L 377.758614 378.071154 
L 401.218172 378.230448 
L 421.910969 378.252349 
" clip-path="url(#pedd751941d)" style="fill: none; stroke-dasharray: 7.4,3.2; stroke-dashoffset: 0; stroke: #000000; stroke-width: 2"/>
   </g>
   <g id="line2d_49">
    <path d="M -1 378.970924 
L 35.89 378.970913 
L 157.666057 378.004259 
L 228.900484 378.252349 
L 279.442115 378.447455 
L 318.645249 378.252349 
L 350.676542 378.221926 
L 377.758614 378.228328 
L 401.218172 385.588909 
L 421.910969 385.588909 
" clip-path="url(#pedd751941d)" style="fill: none; stroke-dasharray: 7.4,3.2; stroke-dashoffset: 0; stroke: #000000; stroke-width: 2"/>
   </g>
   <g id="line2d_50">
    <path d="M -1 379.419729 
L 35.89 379.419704 
L 157.666057 380.051078 
L 228.900484 380.018725 
L 279.442115 379.979787 
L 318.645249 385.588909 
L 350.676542 379.372826 
L 377.758614 379.535153 
L 401.218172 378.40302 
L 421.910969 379.747595 
" clip-path="url(#pedd751941d)" style="fill: none; stroke-dasharray: 7.4,3.2; stroke-dashoffset: 0; stroke: #000000; stroke-width: 2"/>
   </g>
   <g id="line2d_51">
    <path d="M -1 380.681248 
L 35.89 380.681134 
L 157.666057 379.756207 
L 228.900484 380.257076 
L 279.442115 380.813597 
L 318.645249 380.430236 
L 350.676542 380.935157 
L 377.758614 381.099973 
L 401.218172 380.462564 
L 421.910969 380.706748 
" clip-path="url(#pedd751941d)" style="fill: none; stroke-dasharray: 7.4,3.2; stroke-dashoffset: 0; stroke: #000000; stroke-width: 2"/>
   </g>
   <g id="line2d_52">
    <path d="M -1 379.536107 
L 35.89 379.536104 
L 157.666057 379.249227 
L 228.900484 379.55886 
L 279.442115 379.557322 
L 318.645249 379.55886 
L 350.676542 379.15102 
L 377.758614 379.375411 
L 401.218172 378.572657 
L 421.910969 385.588909 
" clip-path="url(#pedd751941d)" style="fill: none; stroke-dasharray: 7.4,3.2; stroke-dashoffset: 0; stroke: #000000; stroke-width: 2"/>
   </g>
   <g id="line2d_53">
    <path d="M -1 378.792676 
L 35.89 378.792671 
L 157.666057 378.285371 
L 228.900484 378.87913 
L 279.442115 379.105058 
L 318.645249 378.955855 
L 350.676542 378.883379 
L 377.758614 378.941276 
L 401.218172 378.955855 
L 421.910969 379.001668 
" clip-path="url(#pedd751941d)" style="fill: none; stroke-dasharray: 7.4,3.2; stroke-dashoffset: 0; stroke: #000000; stroke-width: 2"/>
   </g>
   <g id="line2d_54">
    <path d="M -1 380.957741 
L 35.89 380.957958 
L 157.666057 380.274895 
L 228.900484 378.071468 
L 279.442115 380.379289 
L 318.645249 342.815755 
L 350.676542 382.139461 
L 377.758614 379.799145 
L 401.218172 385.588909 
L 421.910969 385.588909 
" clip-path="url(#pedd751941d)" style="fill: none; stroke-dasharray: 7.4,3.2; stroke-dashoffset: 0; stroke: #000000; stroke-width: 2"/>
   </g>
   <g id="line2d_55">
    <path d="M -1 309.108894 
L 35.89 309.108378 
L 157.666057 311.85396 
L 228.900484 308.303772 
L 279.442115 308.243196 
L 318.645249 308.303772 
L 350.676542 308.983311 
L 377.758614 308.303772 
L 401.218172 307.595163 
L 421.910969 385.588909 
" clip-path="url(#pedd751941d)" style="fill: none; stroke-dasharray: 7.4,3.2; stroke-dashoffset: 0; stroke: #000000; stroke-width: 2"/>
   </g>
   <g id="patch_3">
    <path d="M 35.89 403.436 
L 35.89 10.8 
" style="fill: none; stroke: #000000; stroke-width: 0.8; stroke-linejoin: miter; stroke-linecap: square"/>
   </g>
   <g id="patch_4">
    <path d="M 844.952613 403.436 
L 844.952613 10.8 
" style="fill: none; stroke: #000000; stroke-width: 0.8; stroke-linejoin: miter; stroke-linecap: square"/>
   </g>
   <g id="patch_5">
    <path d="M 35.89 403.436 
L 844.952613 403.436 
" style="fill: none; stroke: #000000; stroke-width: 0.8; stroke-linejoin: miter; stroke-linecap: square"/>
   </g>
   <g id="patch_6">
    <path d="M 35.89 10.8 
L 844.952613 10.8 
" style="fill: none; stroke: #000000; stroke-width: 0.8; stroke-linejoin: miter; stroke-linecap: square"/>
   </g>
  </g>
 </g>
 <defs>
  <clipPath id="pedd751941d">
   <rect x="35.89" y="10.8" width="809.062613" height="392.636"/>
  </clipPath>
 </defs>
</svg>
