<?xml version="1.0" encoding="utf-8" standalone="no"?>
<!DOCTYPE svg PUBLIC "-//W3C//DTD SVG 1.1//EN"
  "http://www.w3.org/Graphics/SVG/1.1/DTD/svg11.dtd">
<svg xmlns:xlink="http://www.w3.org/1999/xlink" width="864pt" height="432pt" viewBox="0 0 864 432" xmlns="http://www.w3.org/2000/svg" version="1.1">
 <metadata>
  <rdf:RDF xmlns:dc="http://purl.org/dc/elements/1.1/" xmlns:cc="http://creativecommons.org/ns#" xmlns:rdf="http://www.w3.org/1999/02/22-rdf-syntax-ns#">
   <cc:Work>
    <dc:type rdf:resource="http://purl.org/dc/dcmitype/StillImage"/>
    <dc:date>2024-09-19T08:45:55.060677</dc:date>
    <dc:format>image/svg+xml</dc:format>
    <dc:creator>
     <cc:Agent>
      <dc:title>Matplotlib v3.9.2, https://matplotlib.org/</dc:title>
     </cc:Agent>
    </dc:creator>
   </cc:Work>
  </rdf:RDF>
 </metadata>
 <defs>
  <style type="text/css">*{stroke-linejoin: round; stroke-linecap: butt}</style>
 </defs>
 <g id="figure_1">
  <g id="patch_1">
   <path d="M 0 432 
L 864 432 
L 864 0 
L 0 0 
z
" style="fill: #ffffff"/>
  </g>
  <g id="axes_1">
   <g id="patch_2">
    <path d="M 41.92 404.12 
L 853.2 404.12 
L 853.2 10.8 
L 41.92 10.8 
z
" style="fill: #ffffff"/>
   </g>
   <g id="matplotlib.axis_1">
    <g id="xtick_1">
     <g id="line2d_1">
      <defs>
       <path id="m304c661f55" d="M 0 0 
L 0 3.5 
" style="stroke: #000000; stroke-width: 0.8"/>
      </defs>
      <g>
       <use xlink:href="#m304c661f55" x="203.166175" y="404.12" style="stroke: #000000; stroke-width: 0.8"/>
      </g>
     </g>
     <g id="text_1">
      <!-- 1000 -->
      <g transform="translate(191.12555 418.771563) scale(0.1 -0.1)">
       <defs>
        <path id="DejaVuSansMono-31" d="M 844 531 
L 1825 531 
L 1825 4097 
L 769 3859 
L 769 4434 
L 1819 4666 
L 2450 4666 
L 2450 531 
L 3419 531 
L 3419 0 
L 844 0 
L 844 531 
z
" transform="scale(0.015625)"/>
        <path id="DejaVuSansMono-30" d="M 1509 2344 
Q 1509 2516 1629 2641 
Q 1750 2766 1919 2766 
Q 2094 2766 2219 2641 
Q 2344 2516 2344 2344 
Q 2344 2169 2220 2047 
Q 2097 1925 1919 1925 
Q 1744 1925 1626 2044 
Q 1509 2163 1509 2344 
z
M 1925 4250 
Q 1484 4250 1267 3775 
Q 1050 3300 1050 2328 
Q 1050 1359 1267 884 
Q 1484 409 1925 409 
Q 2369 409 2586 884 
Q 2803 1359 2803 2328 
Q 2803 3300 2586 3775 
Q 2369 4250 1925 4250 
z
M 1925 4750 
Q 2672 4750 3055 4137 
Q 3438 3525 3438 2328 
Q 3438 1134 3055 521 
Q 2672 -91 1925 -91 
Q 1178 -91 797 521 
Q 416 1134 416 2328 
Q 416 3525 797 4137 
Q 1178 4750 1925 4750 
z
" transform="scale(0.015625)"/>
       </defs>
       <use xlink:href="#DejaVuSansMono-31"/>
       <use xlink:href="#DejaVuSansMono-30" x="60.205078"/>
       <use xlink:href="#DejaVuSansMono-30" x="120.410156"/>
       <use xlink:href="#DejaVuSansMono-30" x="180.615234"/>
      </g>
     </g>
    </g>
    <g id="xtick_2">
     <g id="line2d_2">
      <g>
       <use xlink:href="#m304c661f55" x="366.0411" y="404.12" style="stroke: #000000; stroke-width: 0.8"/>
      </g>
     </g>
     <g id="text_2">
      <!-- 2000 -->
      <g transform="translate(354.000475 418.771563) scale(0.1 -0.1)">
       <defs>
        <path id="DejaVuSansMono-32" d="M 1166 531 
L 3309 531 
L 3309 0 
L 475 0 
L 475 531 
Q 1059 1147 1496 1619 
Q 1934 2091 2100 2284 
Q 2413 2666 2522 2902 
Q 2631 3138 2631 3384 
Q 2631 3775 2401 3997 
Q 2172 4219 1772 4219 
Q 1488 4219 1175 4116 
Q 863 4013 513 3803 
L 513 4441 
Q 834 4594 1145 4672 
Q 1456 4750 1759 4750 
Q 2444 4750 2861 4386 
Q 3278 4022 3278 3431 
Q 3278 3131 3139 2831 
Q 3000 2531 2688 2169 
Q 2513 1966 2180 1606 
Q 1847 1247 1166 531 
z
" transform="scale(0.015625)"/>
       </defs>
       <use xlink:href="#DejaVuSansMono-32"/>
       <use xlink:href="#DejaVuSansMono-30" x="60.205078"/>
       <use xlink:href="#DejaVuSansMono-30" x="120.410156"/>
       <use xlink:href="#DejaVuSansMono-30" x="180.615234"/>
      </g>
     </g>
    </g>
    <g id="xtick_3">
     <g id="line2d_3">
      <g>
       <use xlink:href="#m304c661f55" x="528.916025" y="404.12" style="stroke: #000000; stroke-width: 0.8"/>
      </g>
     </g>
     <g id="text_3">
      <!-- 3000 -->
      <g transform="translate(516.8754 418.771563) scale(0.1 -0.1)">
       <defs>
        <path id="DejaVuSansMono-33" d="M 2425 2497 
Q 2884 2375 3128 2064 
Q 3372 1753 3372 1288 
Q 3372 644 2939 276 
Q 2506 -91 1741 -91 
Q 1419 -91 1084 -31 
Q 750 28 428 141 
L 428 769 
Q 747 603 1056 522 
Q 1366 441 1672 441 
Q 2191 441 2469 675 
Q 2747 909 2747 1350 
Q 2747 1756 2469 1995 
Q 2191 2234 1716 2234 
L 1234 2234 
L 1234 2753 
L 1716 2753 
Q 2150 2753 2394 2943 
Q 2638 3134 2638 3475 
Q 2638 3834 2411 4026 
Q 2184 4219 1766 4219 
Q 1488 4219 1191 4156 
Q 894 4094 569 3969 
L 569 4550 
Q 947 4650 1242 4700 
Q 1538 4750 1766 4750 
Q 2447 4750 2855 4408 
Q 3263 4066 3263 3500 
Q 3263 3116 3048 2859 
Q 2834 2603 2425 2497 
z
" transform="scale(0.015625)"/>
       </defs>
       <use xlink:href="#DejaVuSansMono-33"/>
       <use xlink:href="#DejaVuSansMono-30" x="60.205078"/>
       <use xlink:href="#DejaVuSansMono-30" x="120.410156"/>
       <use xlink:href="#DejaVuSansMono-30" x="180.615234"/>
      </g>
     </g>
    </g>
    <g id="xtick_4">
     <g id="line2d_4">
      <g>
       <use xlink:href="#m304c661f55" x="691.79095" y="404.12" style="stroke: #000000; stroke-width: 0.8"/>
      </g>
     </g>
     <g id="text_4">
      <!-- 4000 -->
      <g transform="translate(679.750325 418.771563) scale(0.1 -0.1)">
       <defs>
        <path id="DejaVuSansMono-34" d="M 2297 4091 
L 825 1625 
L 2297 1625 
L 2297 4091 
z
M 2194 4666 
L 2925 4666 
L 2925 1625 
L 3547 1625 
L 3547 1113 
L 2925 1113 
L 2925 0 
L 2297 0 
L 2297 1113 
L 319 1113 
L 319 1709 
L 2194 4666 
z
" transform="scale(0.015625)"/>
       </defs>
       <use xlink:href="#DejaVuSansMono-34"/>
       <use xlink:href="#DejaVuSansMono-30" x="60.205078"/>
       <use xlink:href="#DejaVuSansMono-30" x="120.410156"/>
       <use xlink:href="#DejaVuSansMono-30" x="180.615234"/>
      </g>
     </g>
    </g>
   </g>
   <g id="matplotlib.axis_2">
    <g id="ytick_1">
     <g id="line2d_5">
      <defs>
       <path id="m59bd87dce3" d="M 0 0 
L -3.5 0 
" style="stroke: #000000; stroke-width: 0.8"/>
      </defs>
      <g>
       <use xlink:href="#m59bd87dce3" x="41.92" y="386.477916" style="stroke: #000000; stroke-width: 0.8"/>
      </g>
     </g>
     <g id="text_5">
      <!-- 0.00 -->
      <g transform="translate(10.83875 390.303697) scale(0.1 -0.1)">
       <defs>
        <path id="DejaVuSansMono-2e" d="M 1528 953 
L 2316 953 
L 2316 0 
L 1528 0 
L 1528 953 
z
" transform="scale(0.015625)"/>
       </defs>
       <use xlink:href="#DejaVuSansMono-30"/>
       <use xlink:href="#DejaVuSansMono-2e" x="60.205078"/>
       <use xlink:href="#DejaVuSansMono-30" x="120.410156"/>
       <use xlink:href="#DejaVuSansMono-30" x="180.615234"/>
      </g>
     </g>
    </g>
    <g id="ytick_2">
     <g id="line2d_6">
      <g>
       <use xlink:href="#m59bd87dce3" x="41.92" y="328.370819" style="stroke: #000000; stroke-width: 0.8"/>
      </g>
     </g>
     <g id="text_6">
      <!-- 0.02 -->
      <g transform="translate(10.83875 332.1966) scale(0.1 -0.1)">
       <use xlink:href="#DejaVuSansMono-30"/>
       <use xlink:href="#DejaVuSansMono-2e" x="60.205078"/>
       <use xlink:href="#DejaVuSansMono-30" x="120.410156"/>
       <use xlink:href="#DejaVuSansMono-32" x="180.615234"/>
      </g>
     </g>
    </g>
    <g id="ytick_3">
     <g id="line2d_7">
      <g>
       <use xlink:href="#m59bd87dce3" x="41.92" y="270.263721" style="stroke: #000000; stroke-width: 0.8"/>
      </g>
     </g>
     <g id="text_7">
      <!-- 0.04 -->
      <g transform="translate(10.83875 274.089503) scale(0.1 -0.1)">
       <use xlink:href="#DejaVuSansMono-30"/>
       <use xlink:href="#DejaVuSansMono-2e" x="60.205078"/>
       <use xlink:href="#DejaVuSansMono-30" x="120.410156"/>
       <use xlink:href="#DejaVuSansMono-34" x="180.615234"/>
      </g>
     </g>
    </g>
    <g id="ytick_4">
     <g id="line2d_8">
      <g>
       <use xlink:href="#m59bd87dce3" x="41.92" y="212.156624" style="stroke: #000000; stroke-width: 0.8"/>
      </g>
     </g>
     <g id="text_8">
      <!-- 0.06 -->
      <g transform="translate(10.83875 215.982405) scale(0.1 -0.1)">
       <defs>
        <path id="DejaVuSansMono-36" d="M 3097 4563 
L 3097 3981 
Q 2900 4097 2678 4158 
Q 2456 4219 2216 4219 
Q 1616 4219 1306 3767 
Q 997 3316 997 2438 
Q 1147 2750 1412 2917 
Q 1678 3084 2022 3084 
Q 2697 3084 3067 2670 
Q 3438 2256 3438 1497 
Q 3438 741 3056 325 
Q 2675 -91 1984 -91 
Q 1172 -91 794 492 
Q 416 1075 416 2328 
Q 416 3509 870 4129 
Q 1325 4750 2188 4750 
Q 2419 4750 2650 4701 
Q 2881 4653 3097 4563 
z
M 1972 2591 
Q 1569 2591 1337 2300 
Q 1106 2009 1106 1497 
Q 1106 984 1337 693 
Q 1569 403 1972 403 
Q 2391 403 2603 679 
Q 2816 956 2816 1497 
Q 2816 2041 2603 2316 
Q 2391 2591 1972 2591 
z
" transform="scale(0.015625)"/>
       </defs>
       <use xlink:href="#DejaVuSansMono-30"/>
       <use xlink:href="#DejaVuSansMono-2e" x="60.205078"/>
       <use xlink:href="#DejaVuSansMono-30" x="120.410156"/>
       <use xlink:href="#DejaVuSansMono-36" x="180.615234"/>
      </g>
     </g>
    </g>
    <g id="ytick_5">
     <g id="line2d_9">
      <g>
       <use xlink:href="#m59bd87dce3" x="41.92" y="154.049526" style="stroke: #000000; stroke-width: 0.8"/>
      </g>
     </g>
     <g id="text_9">
      <!-- 0.08 -->
      <g transform="translate(10.83875 157.875308) scale(0.1 -0.1)">
       <defs>
        <path id="DejaVuSansMono-38" d="M 1925 2216 
Q 1503 2216 1273 1980 
Q 1044 1744 1044 1313 
Q 1044 881 1276 642 
Q 1509 403 1925 403 
Q 2350 403 2579 639 
Q 2809 875 2809 1313 
Q 2809 1741 2576 1978 
Q 2344 2216 1925 2216 
z
M 1375 2478 
Q 972 2581 745 2862 
Q 519 3144 519 3541 
Q 519 4097 897 4423 
Q 1275 4750 1925 4750 
Q 2578 4750 2956 4423 
Q 3334 4097 3334 3541 
Q 3334 3144 3107 2862 
Q 2881 2581 2478 2478 
Q 2947 2375 3195 2062 
Q 3444 1750 3444 1253 
Q 3444 622 3041 265 
Q 2638 -91 1925 -91 
Q 1213 -91 811 264 
Q 409 619 409 1247 
Q 409 1747 657 2061 
Q 906 2375 1375 2478 
z
M 1147 3481 
Q 1147 3106 1347 2909 
Q 1547 2713 1925 2713 
Q 2306 2713 2506 2909 
Q 2706 3106 2706 3481 
Q 2706 3863 2507 4063 
Q 2309 4263 1925 4263 
Q 1547 4263 1347 4061 
Q 1147 3859 1147 3481 
z
" transform="scale(0.015625)"/>
       </defs>
       <use xlink:href="#DejaVuSansMono-30"/>
       <use xlink:href="#DejaVuSansMono-2e" x="60.205078"/>
       <use xlink:href="#DejaVuSansMono-30" x="120.410156"/>
       <use xlink:href="#DejaVuSansMono-38" x="180.615234"/>
      </g>
     </g>
    </g>
    <g id="ytick_6">
     <g id="line2d_10">
      <g>
       <use xlink:href="#m59bd87dce3" x="41.92" y="95.942429" style="stroke: #000000; stroke-width: 0.8"/>
      </g>
     </g>
     <g id="text_10">
      <!-- 0.10 -->
      <g transform="translate(10.83875 99.76821) scale(0.1 -0.1)">
       <use xlink:href="#DejaVuSansMono-30"/>
       <use xlink:href="#DejaVuSansMono-2e" x="60.205078"/>
       <use xlink:href="#DejaVuSansMono-31" x="120.410156"/>
       <use xlink:href="#DejaVuSansMono-30" x="180.615234"/>
      </g>
     </g>
    </g>
    <g id="ytick_7">
     <g id="line2d_11">
      <g>
       <use xlink:href="#m59bd87dce3" x="41.92" y="37.835331" style="stroke: #000000; stroke-width: 0.8"/>
      </g>
     </g>
     <g id="text_11">
      <!-- 0.12 -->
      <g transform="translate(10.83875 41.661113) scale(0.1 -0.1)">
       <use xlink:href="#DejaVuSansMono-30"/>
       <use xlink:href="#DejaVuSansMono-2e" x="60.205078"/>
       <use xlink:href="#DejaVuSansMono-31" x="120.410156"/>
       <use xlink:href="#DejaVuSansMono-32" x="180.615234"/>
      </g>
     </g>
    </g>
   </g>
   <g id="line2d_12">
    <path d="M 41.757125 58.071565 
L 41.92 60.564926 
L 42.082875 80.197193 
L 42.24575 82.051595 
L 42.408625 81.455368 
L 42.734375 122.352192 
L 42.89725 118.820371 
L 43.060124 159.615045 
L 43.222999 162.067115 
L 43.548749 177.803774 
L 43.711624 176.487714 
L 43.874499 180.673234 
L 44.037374 180.535713 
L 44.363124 144.877731 
L 44.688874 155.003595 
L 44.851749 154.368783 
L 45.014624 157.294115 
L 45.177498 124.749603 
L 45.340373 123.585463 
L 45.503248 124.592371 
L 45.666123 124.250909 
L 45.991873 157.837441 
L 46.154748 152.682052 
L 46.317623 131.592936 
L 46.480498 128.577355 
L 46.643373 117.20551 
L 46.806248 135.017676 
L 46.969123 136.6834 
L 47.294873 133.991922 
L 47.620622 100.479624 
L 47.783497 100.970239 
L 47.946372 122.55117 
L 48.109247 125.120593 
L 48.272122 138.349721 
L 48.434997 138.602311 
L 48.597872 128.287345 
L 48.760747 130.583067 
L 48.923622 128.621497 
L 49.412247 154.228705 
L 49.575121 110.339695 
L 49.900871 102.341991 
L 50.063746 110.20422 
L 50.226621 104.310553 
L 50.389496 53.17921 
L 50.552371 56.014276 
L 50.878121 69.663411 
L 51.040996 28.678182 
L 51.203871 52.705267 
L 51.366746 59.84034 
L 51.529621 58.69769 
L 51.692495 48.893261 
L 51.85537 65.993112 
L 52.018245 115.326292 
L 52.18112 115.199801 
L 52.343995 119.841778 
L 52.50687 119.216296 
L 52.669745 130.730666 
L 52.83262 130.835786 
L 52.995495 128.456526 
L 53.15837 132.558519 
L 53.321245 144.490182 
L 53.48412 133.99898 
L 53.80987 138.463777 
L 53.972744 137.605284 
L 54.135619 139.948738 
L 54.461369 175.490062 
L 54.624244 177.81326 
L 54.787119 178.504268 
L 54.949994 165.411888 
L 55.112869 174.429174 
L 55.438619 171.437787 
L 55.601494 169.494223 
L 55.764369 168.998475 
L 55.927244 183.831574 
L 56.252993 172.896525 
L 56.415868 168.843653 
L 56.578743 183.811123 
L 56.741618 186.627521 
L 56.904493 187.122566 
L 57.230243 184.432247 
L 57.393118 168.618821 
L 57.555993 167.986018 
L 57.718868 172.185225 
L 57.881743 169.285891 
L 58.044618 171.06595 
L 58.370367 128.282085 
L 58.533242 123.19458 
L 58.858992 130.919296 
L 59.021867 147.413338 
L 59.184742 148.603154 
L 59.510492 157.592099 
L 59.673367 157.778955 
L 60.161992 200.086982 
L 60.324866 196.782807 
L 60.487741 196.557568 
L 60.813491 194.228995 
L 60.976366 194.75039 
L 61.139241 191.172979 
L 61.302116 193.578769 
L 61.464991 188.235112 
L 61.627866 188.066038 
L 61.790741 187.245418 
L 61.953616 190.76841 
L 62.116491 188.355015 
L 62.605115 178.077987 
L 62.76799 182.67166 
L 62.930865 176.323759 
L 63.09374 185.427846 
L 63.582365 178.782082 
L 63.74524 178.021062 
L 63.908115 180.576305 
L 64.07099 187.780841 
L 64.233865 187.996084 
L 64.39674 187.947307 
L 64.722489 200.126971 
L 64.885364 201.578433 
L 65.048239 200.806825 
L 65.211114 202.820121 
L 65.536864 180.175014 
L 65.699739 174.398011 
L 65.862614 175.318496 
L 66.025489 162.413818 
L 66.188364 162.012199 
L 66.514114 139.083673 
L 66.676989 138.291482 
L 66.839863 136.112019 
L 67.165613 163.749096 
L 67.328488 150.025874 
L 67.491363 148.994072 
L 67.654238 162.22672 
L 67.817113 162.724847 
L 68.142863 182.862524 
L 68.305738 182.932542 
L 68.468613 184.073826 
L 68.631488 181.873226 
L 68.794363 181.567159 
L 68.957238 201.201383 
L 69.120112 202.18329 
L 69.282987 198.01417 
L 69.445862 190.411235 
L 69.771612 195.178444 
L 69.934487 188.933678 
L 70.097362 188.336341 
L 70.260237 190.569157 
L 70.423112 186.439214 
L 70.585987 186.661862 
L 70.748862 184.975207 
L 70.911737 188.347872 
L 71.074612 195.920889 
L 71.237486 195.585533 
L 71.400361 193.621949 
L 71.563236 203.649593 
L 71.726111 205.742065 
L 71.888986 205.854667 
L 72.051861 210.830842 
L 72.214736 210.289691 
L 72.377611 211.682638 
L 72.703361 209.111723 
L 72.866236 209.375667 
L 73.029111 206.903876 
L 73.191986 206.391137 
L 73.35486 205.086464 
L 73.68061 201.543453 
L 73.843485 200.345219 
L 74.00636 198.227962 
L 74.494985 188.768984 
L 74.65786 192.025952 
L 74.820735 190.769464 
L 75.146485 196.047283 
L 75.30936 194.783711 
L 75.635109 196.940143 
L 75.960859 205.464759 
L 76.123734 207.112488 
L 76.286609 207.593799 
L 76.449484 208.645797 
L 76.612359 208.411358 
L 76.775234 208.489364 
L 76.938109 211.140788 
L 77.100984 211.152284 
L 77.263859 210.974015 
L 77.589609 214.721114 
L 77.752483 212.002237 
L 77.915358 212.413202 
L 78.078233 210.891673 
L 78.729733 211.945819 
L 78.892608 212.847877 
L 79.218358 211.219558 
L 79.381233 214.138767 
L 79.544108 213.907451 
L 79.706983 214.372878 
L 80.032732 213.610697 
L 80.195607 211.853288 
L 80.358482 211.835264 
L 80.684232 213.287071 
L 81.009982 213.941798 
L 81.172857 214.313608 
L 81.498607 217.020333 
L 81.661482 216.243806 
L 81.824357 218.184269 
L 82.150106 214.286673 
L 82.312981 215.408621 
L 82.638731 214.535562 
L 82.964481 214.045217 
L 83.127356 211.935028 
L 83.290231 213.368408 
L 83.453106 213.472885 
L 83.615981 215.575833 
L 83.778856 215.424361 
L 83.941731 214.174562 
L 84.104606 215.081955 
L 84.26748 215.333079 
L 84.756105 217.520596 
L 84.91898 215.452185 
L 85.081855 215.489773 
L 85.24473 215.097805 
L 85.57048 219.442891 
L 85.733355 219.157966 
L 86.059105 217.658392 
L 86.22198 216.417503 
L 86.384854 217.428346 
L 86.547729 219.432705 
L 86.710604 218.119708 
L 86.873479 218.309503 
L 87.199229 214.580832 
L 87.362104 213.66317 
L 87.850729 220.058881 
L 88.013604 219.777697 
L 88.176479 219.245096 
L 88.827978 228.580522 
L 88.990853 228.240532 
L 89.479478 225.618367 
L 89.642353 225.808749 
L 89.805228 226.218233 
L 89.968103 226.251115 
L 90.130978 225.195634 
L 90.293853 225.205858 
L 90.456728 224.533322 
L 90.782477 228.878839 
L 90.945352 229.160024 
L 91.108227 230.259416 
L 91.433977 233.043438 
L 91.596852 233.033111 
L 91.759727 233.702158 
L 91.922602 235.12658 
L 92.085477 234.484102 
L 92.411227 236.345619 
L 92.574102 238.657292 
L 92.736977 238.700167 
L 92.899851 237.007735 
L 93.551351 242.183652 
L 93.714226 245.119342 
L 93.877101 244.63473 
L 94.039976 245.058506 
L 94.202851 245.152821 
L 94.365726 245.39158 
L 95.668725 253.731749 
L 95.8316 253.337516 
L 96.320225 260.059999 
L 96.4831 261.876724 
L 96.645975 262.283644 
L 96.80885 264.359313 
L 96.971725 263.225748 
L 98.600474 284.792718 
L 98.763349 283.452941 
L 98.926224 285.310122 
L 99.089099 288.929889 
L 99.577723 291.222286 
L 99.740598 290.763062 
L 99.903473 294.864506 
L 100.066348 292.115951 
L 100.554973 303.368572 
L 100.880723 309.653754 
L 101.369348 319.8697 
L 101.532222 322.635121 
L 101.695097 331.347719 
L 101.857972 331.510167 
L 102.346597 335.623764 
L 102.672347 337.40771 
L 102.835222 336.877962 
L 102.998097 337.586339 
L 103.160972 339.311107 
L 103.323847 338.279073 
L 103.649596 343.012794 
L 103.812471 343.83676 
L 104.626846 356.042303 
L 104.789721 357.016754 
L 104.952596 360.387603 
L 105.76697 364.738051 
L 105.929845 364.327473 
L 106.255595 366.905096 
L 106.581345 368.134586 
L 107.232845 371.136518 
L 107.39572 371.096507 
L 107.558595 371.769107 
L 107.884345 370.82169 
L 108.047219 370.060295 
L 108.210094 370.017613 
L 108.372969 370.841184 
L 108.535844 371.046719 
L 108.698719 370.915942 
L 108.861594 370.522321 
L 109.187344 370.843351 
L 109.675969 373.787286 
L 110.001719 373.578393 
L 110.978968 376.394684 
L 111.141843 376.174568 
L 111.630468 377.938048 
L 111.793343 377.515315 
L 112.119093 378.496931 
L 112.281967 377.988818 
L 112.444842 378.090695 
L 112.607717 377.364394 
L 112.770592 377.705832 
L 113.096342 374.527425 
L 113.259217 374.438132 
L 113.422092 375.332228 
L 113.584967 375.486702 
L 113.747842 374.857358 
L 114.073592 375.637295 
L 114.236467 376.077766 
L 114.399341 376.095401 
L 114.562216 378.256669 
L 114.725091 378.654678 
L 115.050841 378.599317 
L 115.213716 377.704597 
L 115.702341 377.208245 
L 115.865216 377.592164 
L 116.028091 377.494223 
L 116.190966 376.765491 
L 116.353841 377.231 
L 116.842465 376.175776 
L 117.00534 376.653408 
L 117.168215 376.762477 
L 117.33109 376.315413 
L 117.65684 376.415971 
L 117.819715 377.145569 
L 117.98259 376.414885 
L 118.63409 378.246515 
L 118.796964 378.071027 
L 118.959839 378.482303 
L 119.122714 378.032207 
L 119.285589 378.180698 
L 119.448464 377.735128 
L 119.611339 378.130014 
L 119.937089 374.069208 
L 120.099964 374.426032 
L 120.262839 373.935408 
L 120.425714 373.936303 
L 120.588589 372.665572 
L 120.751464 373.232734 
L 121.240088 371.452583 
L 121.565838 376.358752 
L 121.728713 376.099796 
L 121.891588 376.44137 
L 122.054463 376.279148 
L 122.217338 377.179225 
L 122.380213 375.730436 
L 122.543088 376.144964 
L 122.705963 376.148776 
L 122.868838 376.322475 
L 123.194587 374.334562 
L 123.357462 374.098316 
L 123.520337 373.002755 
L 123.846087 372.611543 
L 124.008962 373.383282 
L 124.171837 373.21403 
L 124.823337 376.065257 
L 124.986212 376.255067 
L 125.149087 377.250831 
L 125.311961 377.435038 
L 125.474836 378.054861 
L 125.800586 375.321307 
L 126.126336 373.271358 
L 126.452086 372.608967 
L 126.614961 372.29645 
L 126.777836 372.856519 
L 126.940711 372.650891 
L 127.103586 372.101032 
L 127.266461 374.176965 
L 127.755085 376.194539 
L 127.91796 377.128807 
L 128.080835 377.066176 
L 128.406585 374.552857 
L 128.56946 374.968031 
L 128.732335 374.913174 
L 128.89521 373.00198 
L 129.058085 373.77857 
L 129.383835 370.559655 
L 129.546709 369.753979 
L 129.709584 370.207382 
L 129.872459 372.473058 
L 130.198209 373.103785 
L 130.361084 372.693659 
L 130.523959 374.564774 
L 130.686834 374.039005 
L 130.849709 375.942702 
L 131.175459 376.408049 
L 131.338334 374.145655 
L 131.501209 373.870265 
L 131.664084 372.8433 
L 131.826958 372.682656 
L 131.989833 373.058952 
L 132.478458 373.323027 
L 132.641333 374.361116 
L 132.804208 374.659551 
L 132.967083 375.890333 
L 133.129958 374.615048 
L 133.292833 376.244576 
L 133.455708 376.255174 
L 133.618583 376.496177 
L 133.944332 373.136295 
L 134.107207 373.716459 
L 134.270082 373.741664 
L 134.432957 373.894582 
L 134.595832 374.772248 
L 134.758707 376.589413 
L 134.921582 376.163748 
L 135.084457 376.230726 
L 135.410207 377.537559 
L 135.573082 379.786707 
L 135.735957 378.849927 
L 136.061706 376.744279 
L 136.224581 376.623679 
L 136.876081 373.252581 
L 137.038956 373.855194 
L 137.201831 373.264328 
L 137.364706 373.740861 
L 137.527581 374.764428 
L 137.853331 372.704711 
L 138.016206 373.146465 
L 138.179081 374.180123 
L 138.341955 372.524815 
L 138.50483 373.268977 
L 138.83058 373.408828 
L 138.993455 373.822672 
L 139.15633 374.623442 
L 139.319205 376.042072 
L 139.48208 376.215731 
L 139.80783 374.942211 
L 140.13358 373.932713 
L 140.296455 374.011356 
L 140.459329 374.580123 
L 140.622204 374.671482 
L 140.785079 374.468997 
L 140.947954 373.161214 
L 141.110829 373.445652 
L 141.273704 374.332357 
L 141.436579 373.782537 
L 141.599454 376.721126 
L 141.762329 376.704391 
L 141.925204 376.873991 
L 142.088079 376.397572 
L 142.413829 376.126257 
L 142.576703 376.456004 
L 142.739578 375.591884 
L 143.065328 375.196347 
L 143.228203 374.20157 
L 143.391078 374.294818 
L 143.553953 373.891064 
L 143.716828 374.438983 
L 144.205453 372.595597 
L 144.531203 374.642884 
L 144.856952 376.317576 
L 145.182702 377.634309 
L 145.345577 377.314011 
L 145.508452 378.047299 
L 145.834202 381.236689 
L 145.997077 380.796225 
L 146.322827 377.36946 
L 146.485702 377.34385 
L 146.648577 376.02569 
L 146.974326 375.573858 
L 147.137201 375.915304 
L 147.462951 374.329843 
L 147.625826 371.660064 
L 147.951576 374.860732 
L 148.114451 373.20823 
L 148.277326 373.458643 
L 148.440201 372.789435 
L 148.603076 373.3354 
L 148.765951 372.356903 
L 148.928826 373.170385 
L 149.0917 373.033097 
L 149.254575 375.6571 
L 149.41745 375.300298 
L 149.580325 375.231702 
L 149.7432 377.00279 
L 149.906075 377.223692 
L 150.06895 378.2356 
L 150.231825 377.683718 
L 150.3947 378.113523 
L 150.557575 377.876452 
L 150.72045 379.138864 
L 150.883325 378.858918 
L 151.209074 378.820268 
L 151.371949 378.615758 
L 151.534824 378.749247 
L 151.697699 378.027069 
L 151.860574 378.555216 
L 152.186324 377.950508 
L 152.349199 376.059863 
L 152.512074 376.342842 
L 152.674949 376.39733 
L 152.837824 376.875996 
L 153.000699 376.857567 
L 153.163574 377.216502 
L 153.326449 377.045566 
L 153.489323 377.108963 
L 153.652198 376.049439 
L 153.815073 376.385327 
L 153.977948 377.018465 
L 154.140823 376.859869 
L 154.303698 377.08922 
L 154.466573 376.222867 
L 154.629448 376.334693 
L 154.792323 375.555595 
L 154.955198 376.06225 
L 155.118073 376.060256 
L 155.280948 378.041826 
L 155.443823 377.568879 
L 155.606697 378.397037 
L 155.932447 378.910839 
L 156.095322 379.799866 
L 156.258197 379.977371 
L 156.421072 378.99841 
L 156.746822 379.152504 
L 156.909697 378.634991 
L 157.072572 378.567526 
L 157.235447 378.663033 
L 157.561197 378.034371 
L 157.886946 378.508704 
L 158.049821 380.259994 
L 158.375571 380.331326 
L 158.538446 380.575134 
L 158.701321 379.173963 
L 158.864196 375.65035 
L 159.027071 375.580974 
L 159.352821 372.531018 
L 159.515696 372.722973 
L 159.678571 372.734633 
L 159.841445 373.056462 
L 160.167195 371.594694 
L 160.33007 373.376982 
L 160.492945 376.7319 
L 160.65582 377.387814 
L 160.98157 379.704138 
L 161.144445 379.681581 
L 161.30732 379.784 
L 161.470195 379.127984 
L 161.795945 379.69026 
L 161.95882 378.607882 
L 162.284569 378.215715 
L 162.447444 378.441069 
L 162.610319 377.584982 
L 162.773194 377.659599 
L 162.936069 377.922807 
L 163.587569 380.604493 
L 163.750444 380.875093 
L 163.913319 380.787413 
L 164.076194 379.871591 
L 164.239068 380.141158 
L 164.564818 378.808546 
L 164.890568 376.06702 
L 165.216318 374.872972 
L 165.542068 375.29071 
L 165.704943 375.8661 
L 165.867818 375.24201 
L 166.356442 377.931406 
L 166.519317 379.073869 
L 166.682192 378.880365 
L 166.845067 380.114291 
L 167.007942 379.926312 
L 167.170817 379.989168 
L 167.333692 380.571142 
L 167.496567 382.478067 
L 167.659442 379.971453 
L 167.822317 379.610783 
L 167.985192 378.838715 
L 168.148067 376.410987 
L 168.310942 376.155557 
L 168.473817 376.199956 
L 168.636691 376.376763 
L 168.799566 375.663923 
L 169.125316 375.40685 
L 169.288191 377.470475 
L 169.451066 376.746755 
L 169.613941 377.261155 
L 169.776816 379.144286 
L 169.939691 377.478451 
L 170.102566 377.016596 
L 170.265441 375.798802 
L 170.591191 376.585756 
L 170.754065 376.664595 
L 170.91694 376.992195 
L 171.079815 378.369277 
L 171.405565 379.140579 
L 171.56844 381.638119 
L 171.731315 380.865445 
L 171.89419 382.101356 
L 172.057065 382.09326 
L 172.382815 381.807426 
L 172.54569 380.647034 
L 173.197189 379.497904 
L 173.360064 380.618207 
L 173.522939 379.286899 
L 174.011564 378.178107 
L 174.174439 378.979584 
L 174.500189 378.609265 
L 174.663064 379.255481 
L 174.825939 379.192081 
L 174.988813 379.261899 
L 175.151688 380.735695 
L 175.314563 381.100464 
L 175.477438 381.020926 
L 176.128938 382.174625 
L 176.291813 381.813225 
L 176.617563 382.242295 
L 176.780438 382.0926 
L 176.943313 382.244162 
L 177.106188 382.204747 
L 177.594812 378.351601 
L 177.757687 378.519037 
L 177.920562 378.398268 
L 178.083437 377.093813 
L 178.246312 377.000379 
L 178.572062 377.344345 
L 179.060687 379.760242 
L 179.223562 381.15611 
L 179.549311 381.04423 
L 179.712186 382.4512 
L 179.875061 382.374755 
L 180.037936 380.928324 
L 180.200811 380.77954 
L 180.363686 380.093769 
L 180.526561 380.024132 
L 180.852311 380.263251 
L 181.015186 379.752556 
L 181.340936 376.40729 
L 181.50381 375.925498 
L 181.666685 377.037616 
L 181.992435 374.480601 
L 182.318185 371.889688 
L 182.48106 371.999964 
L 182.643935 372.208668 
L 182.969685 375.405441 
L 183.295435 376.040038 
L 183.621185 378.344242 
L 183.946934 381.396093 
L 184.272684 381.459999 
L 184.435559 381.690077 
L 184.761309 382.48891 
L 184.924184 382.17036 
L 185.087059 382.443723 
L 185.412809 381.54556 
L 185.575684 381.603087 
L 185.901433 377.224067 
L 186.064308 375.424739 
L 186.390058 375.230473 
L 186.715808 376.358117 
L 186.878683 376.954014 
L 187.204433 376.699086 
L 187.530183 381.201202 
L 187.693058 382.559043 
L 188.018807 381.653428 
L 188.181682 380.21767 
L 188.344557 380.028734 
L 188.507432 380.180571 
L 188.833182 379.610159 
L 188.996057 379.711233 
L 189.158932 379.530225 
L 189.321807 378.488879 
L 189.973307 380.33004 
L 190.136181 380.354308 
L 190.299056 380.256401 
L 190.461931 380.959881 
L 190.787681 381.405506 
L 190.950556 382.700757 
L 191.113431 382.378138 
L 191.276306 376.66559 
L 191.439181 376.940625 
L 191.602056 376.005258 
L 191.927806 375.643381 
L 192.579305 371.849434 
L 192.74218 371.95792 
L 192.905055 377.133201 
L 194.04518 381.507332 
L 194.208055 382.301833 
L 194.37093 381.450868 
L 194.533804 381.666249 
L 194.859554 379.799488 
L 195.022429 379.59884 
L 195.185304 378.53546 
L 195.348179 378.935531 
L 195.511054 379.648097 
L 195.673929 378.788397 
L 195.836804 378.67838 
L 195.999679 379.863583 
L 196.162554 379.543464 
L 196.325429 379.755696 
L 196.488304 380.349896 
L 196.651178 380.315808 
L 196.814053 381.425858 
L 196.976928 381.100993 
L 197.139803 380.162337 
L 197.302678 380.774523 
L 197.628428 379.74476 
L 197.791303 380.01922 
L 197.954178 380.629846 
L 198.117053 380.563368 
L 198.279928 378.871377 
L 198.442803 378.766721 
L 198.605678 378.431735 
L 198.768552 378.547325 
L 198.931427 378.871198 
L 199.094302 377.471826 
L 199.257177 377.585398 
L 199.745802 378.415362 
L 199.908677 380.208562 
L 200.071552 380.308051 
L 200.397302 381.577814 
L 200.560177 381.479295 
L 200.723052 383.922677 
L 200.885927 383.596054 
L 201.374551 383.273585 
L 201.537426 381.416056 
L 201.700301 381.370355 
L 201.863176 380.243646 
L 202.026051 380.231389 
L 202.351801 379.872955 
L 202.514676 380.219779 
L 202.677551 378.859265 
L 202.840426 378.50189 
L 203.003301 378.761478 
L 203.166175 380.541901 
L 203.32905 378.214795 
L 203.491925 378.638031 
L 203.6548 378.65207 
L 203.98055 378.842911 
L 204.143425 378.880975 
L 204.3063 380.262689 
L 204.63205 380.225616 
L 204.794925 380.307837 
L 204.9578 382.69485 
L 205.120675 383.380636 
L 205.283549 382.98835 
L 205.609299 383.056395 
L 205.772174 382.568192 
L 205.935049 382.645153 
L 206.097924 383.196693 
L 206.260799 383.202784 
L 206.423674 383.434569 
L 206.586549 383.217083 
L 206.749424 383.329088 
L 206.912299 382.445311 
L 207.075174 382.215227 
L 207.238049 381.520067 
L 207.400924 381.865764 
L 207.726673 380.443279 
L 207.889548 380.293269 
L 208.052423 377.633224 
L 208.215298 377.74826 
L 208.378173 376.560193 
L 208.703923 377.030176 
L 209.029673 377.135484 
L 209.192548 377.781231 
L 209.355423 376.533695 
L 209.518298 376.911435 
L 209.681172 379.377587 
L 209.844047 379.226327 
L 210.169797 381.387869 
L 210.332672 381.402657 
L 210.495547 381.29297 
L 210.658422 381.363146 
L 210.821297 381.898113 
L 210.984172 383.356059 
L 211.147047 383.213847 
L 211.309922 383.368324 
L 211.472797 383.22534 
L 211.635672 383.344056 
L 211.798546 382.726167 
L 212.287171 383.484058 
L 212.450046 383.420431 
L 212.612921 382.503106 
L 212.775796 382.426469 
L 212.938671 382.004106 
L 213.101546 382.05572 
L 213.264421 379.401249 
L 213.427296 379.866493 
L 214.404545 376.684686 
L 214.56742 376.540319 
L 214.730295 377.033886 
L 214.89317 379.592405 
L 215.056045 379.701297 
L 215.381795 380.759584 
L 215.54467 381.560138 
L 215.707545 381.652591 
L 215.87042 382.843939 
L 216.033295 382.626462 
L 216.196169 382.949754 
L 216.521919 382.625723 
L 216.684794 381.098874 
L 217.010544 381.182042 
L 217.173419 380.422311 
L 217.824919 381.765383 
L 218.150669 381.355915 
L 218.313543 382.720747 
L 218.476418 382.031428 
L 218.639293 382.031161 
L 218.965043 382.285348 
L 219.127918 380.417694 
L 219.290793 380.447148 
L 219.616543 379.715896 
L 219.779418 380.1473 
L 219.942293 379.79906 
L 220.105168 379.909496 
L 220.268043 379.04289 
L 220.430917 379.89468 
L 220.593792 379.420531 
L 220.756667 381.071079 
L 220.919542 381.215767 
L 221.245292 382.072083 
L 221.408167 382.165338 
L 221.571042 382.481991 
L 221.733917 381.253639 
L 221.896792 381.705083 
L 222.059667 381.814301 
L 222.385417 382.341219 
L 222.548292 382.532301 
L 222.711166 382.226186 
L 222.874041 382.224592 
L 223.036916 382.000639 
L 223.199791 382.345071 
L 223.362666 383.443526 
L 223.525541 383.691662 
L 223.688416 383.324916 
L 223.851291 383.430525 
L 224.014166 383.272494 
L 224.177041 382.500507 
L 224.339916 382.796936 
L 224.502791 382.231505 
L 224.665666 382.249775 
L 224.82854 380.373494 
L 224.991415 380.373575 
L 225.15429 378.981894 
L 225.317165 378.973914 
L 225.48004 378.258828 
L 225.642915 376.939453 
L 225.80579 376.596141 
L 225.968665 376.665576 
L 226.13154 377.162571 
L 226.294415 376.942759 
L 226.45729 378.654566 
L 226.620165 379.006608 
L 226.78304 380.230361 
L 227.108789 380.811789 
L 227.434539 382.758205 
L 227.597414 382.369226 
L 227.923164 382.285683 
L 228.248914 379.741195 
L 228.411789 379.048579 
L 228.574664 378.851047 
L 228.737539 379.232557 
L 228.900414 379.009034 
L 229.226163 379.865616 
L 229.389038 375.860558 
L 229.551913 376.384685 
L 230.040538 379.960656 
L 230.203413 380.293456 
L 230.366288 379.888997 
L 230.692038 379.685049 
L 230.854913 379.347994 
L 231.017788 382.992717 
L 231.180663 382.293615 
L 231.506412 382.559614 
L 231.832162 381.837075 
L 232.157912 382.495534 
L 232.320787 382.499089 
L 232.483662 382.645124 
L 232.646537 382.96322 
L 232.809412 382.92833 
L 233.135162 381.999944 
L 233.298037 381.987553 
L 233.460911 382.138335 
L 233.786661 380.504238 
L 233.949536 380.076692 
L 234.112411 378.618941 
L 234.275286 378.257088 
L 234.438161 378.717361 
L 235.252536 379.04789 
L 235.578285 379.357764 
L 235.74116 380.8464 
L 236.229785 381.920318 
L 236.71841 382.078755 
L 236.881285 383.192358 
L 237.207035 383.601677 
L 237.532785 383.860034 
L 237.858534 382.906365 
L 238.021409 383.079212 
L 238.184284 383.43573 
L 238.510034 382.643709 
L 238.672909 383.062666 
L 238.835784 382.728672 
L 238.998659 380.355114 
L 239.161534 380.380893 
L 239.324409 380.047886 
L 239.487284 380.208585 
L 239.650159 379.583843 
L 239.813034 379.570128 
L 240.138783 380.329223 
L 240.301658 380.158137 
L 240.464533 380.50466 
L 240.627408 382.858782 
L 240.790283 382.849643 
L 241.116033 384.29639 
L 241.278908 384.825659 
L 241.441783 384.666203 
L 241.604658 384.680167 
L 241.767533 380.012952 
L 241.930408 380.164719 
L 242.093282 379.755355 
L 242.256157 379.045239 
L 242.419032 378.918212 
L 242.581907 378.492034 
L 242.744782 378.4226 
L 242.907657 378.042366 
L 243.233407 376.644153 
L 243.396282 381.202941 
L 243.559157 380.827702 
L 243.722032 379.434381 
L 243.884907 379.744165 
L 244.047782 379.731639 
L 244.210656 380.180468 
L 244.373531 380.150461 
L 244.536406 380.653976 
L 244.862156 382.330211 
L 245.187906 382.392782 
L 245.350781 384.191405 
L 245.513656 384.448069 
L 245.676531 384.255412 
L 245.839406 381.660788 
L 246.002281 381.767246 
L 246.97953 381.204658 
L 247.142405 380.44716 
L 247.30528 380.237053 
L 247.468155 382.556046 
L 247.63103 381.642013 
L 247.793905 381.362316 
L 248.119655 379.418053 
L 248.445405 377.274656 
L 248.608279 377.306457 
L 248.771154 378.189341 
L 248.934029 378.253282 
L 249.259779 376.830222 
L 249.422654 376.866941 
L 249.585529 377.601186 
L 249.748404 377.733949 
L 250.237029 379.781422 
L 250.399904 379.619916 
L 250.562779 379.878042 
L 250.725653 380.575617 
L 250.888528 381.856698 
L 251.051403 381.010506 
L 251.214278 380.801482 
L 251.377153 381.31911 
L 251.540028 381.084592 
L 251.702903 381.483155 
L 251.865778 379.381024 
L 252.028653 379.507541 
L 252.191528 377.296828 
L 252.354403 377.543605 
L 252.517278 377.252389 
L 252.843028 378.706726 
L 253.005902 378.805758 
L 253.168777 379.352102 
L 253.331652 379.313185 
L 253.494527 381.51966 
L 253.657402 381.507723 
L 253.820277 383.970757 
L 253.983152 384.242271 
L 254.146027 383.460835 
L 254.308902 383.604961 
L 254.471777 382.511442 
L 254.960402 382.474659 
L 255.123276 382.616388 
L 255.286151 382.607244 
L 255.611901 380.839059 
L 255.774776 381.762961 
L 255.937651 381.891452 
L 256.100526 381.174417 
L 256.426276 381.145545 
L 256.589151 381.276061 
L 256.752026 380.485888 
L 256.914901 380.589664 
L 257.077776 381.692651 
L 257.24065 381.806604 
L 257.403525 382.124311 
L 257.5664 382.045586 
L 257.729275 383.732416 
L 257.89215 383.886513 
L 258.2179 383.539884 
L 258.380775 383.987598 
L 259.032275 384.245424 
L 259.358024 383.862377 
L 259.520899 383.404444 
L 259.683774 382.178206 
L 259.846649 382.167838 
L 260.009524 382.506319 
L 260.498149 382.031908 
L 260.661024 381.339924 
L 260.823899 381.667271 
L 260.986774 381.445048 
L 261.312524 382.078307 
L 261.475399 380.745384 
L 262.126898 379.468813 
L 262.289773 380.099748 
L 262.452648 379.779215 
L 262.615523 380.007057 
L 262.778398 379.940194 
L 263.429898 383.1131 
L 263.592773 382.423511 
L 263.755647 382.695237 
L 263.918522 382.565809 
L 264.244272 382.64649 
L 264.570022 381.672207 
L 265.058647 381.430204 
L 265.384397 382.431202 
L 265.547272 382.462009 
L 265.710147 381.708534 
L 266.035896 382.609884 
L 266.198771 383.262399 
L 266.361646 383.404176 
L 266.524521 383.717827 
L 266.687396 383.653277 
L 266.850271 383.998089 
L 267.013146 383.951328 
L 267.176021 382.989048 
L 267.338896 383.653264 
L 267.827521 383.287862 
L 267.990396 382.941236 
L 268.15327 382.296077 
L 268.316145 382.463469 
L 268.47902 381.176677 
L 268.641895 381.067438 
L 268.80477 382.050032 
L 268.967645 381.549904 
L 269.13052 380.263086 
L 269.293395 379.996663 
L 269.45627 377.833688 
L 269.619145 378.082837 
L 269.944895 376.716698 
L 270.10777 378.090237 
L 270.433519 377.837533 
L 270.759269 379.411105 
L 270.922144 379.352353 
L 271.085019 381.378657 
L 271.247894 380.921743 
L 271.573644 382.919557 
L 271.736519 382.368653 
L 271.899394 382.655082 
L 272.062269 382.484806 
L 272.225144 382.677127 
L 272.713768 383.765175 
L 273.202393 383.119668 
L 273.365268 383.67036 
L 273.528143 383.227898 
L 273.691018 382.420007 
L 274.016768 382.292118 
L 274.342518 381.931719 
L 274.668267 382.922701 
L 274.994017 382.706821 
L 275.156892 383.106191 
L 275.319767 384.087222 
L 275.808392 384.523215 
L 276.134142 383.07375 
L 276.459892 382.932202 
L 276.622767 382.542979 
L 276.785641 381.726399 
L 277.111391 379.599986 
L 277.274266 379.318102 
L 277.437141 378.646987 
L 277.600016 379.682897 
L 277.925766 377.954384 
L 278.414391 378.761808 
L 278.740141 380.213486 
L 278.903015 380.567769 
L 279.06589 381.298646 
L 279.228765 380.72208 
L 279.554515 382.39147 
L 279.71739 382.335872 
L 279.880265 380.556019 
L 280.04314 380.409648 
L 280.206015 381.179717 
L 280.36889 379.98041 
L 280.531765 379.623902 
L 280.69464 378.278609 
L 280.857515 378.775328 
L 281.020389 378.843904 
L 281.183264 379.286376 
L 281.346139 379.390882 
L 281.671889 381.489478 
L 281.834764 380.617043 
L 282.323389 382.492032 
L 282.812014 382.068416 
L 282.974889 381.987369 
L 283.137764 382.257223 
L 283.300638 382.090342 
L 283.626388 383.467186 
L 283.789263 383.571828 
L 284.115013 383.096487 
L 284.277888 382.970452 
L 284.440763 383.213244 
L 284.766513 383.338124 
L 285.092263 382.866159 
L 285.255138 382.73229 
L 285.418012 382.151988 
L 285.580887 382.677243 
L 285.906637 382.24703 
L 286.069512 379.564737 
L 286.232387 379.183678 
L 286.395262 379.167406 
L 286.558137 379.527971 
L 286.721012 379.608941 
L 287.046762 380.428433 
L 287.209637 380.277647 
L 287.372512 380.459933 
L 287.535386 380.42159 
L 287.698261 382.848579 
L 287.861136 383.332338 
L 288.186886 382.704349 
L 288.349761 381.474752 
L 288.675511 381.495734 
L 288.838386 380.202953 
L 289.001261 380.50517 
L 289.164136 380.436429 
L 289.327011 380.045608 
L 289.489886 380.001762 
L 289.65276 380.218693 
L 289.815635 380.620729 
L 289.97851 381.637886 
L 290.30426 381.031527 
L 290.467135 382.530853 
L 290.63001 382.782866 
L 290.95576 384.028008 
L 291.118635 384.024032 
L 291.28151 384.14694 
L 291.444385 384.099003 
L 291.60726 384.184344 
L 291.770135 384.454209 
L 291.933009 383.709016 
L 292.258759 383.488075 
L 292.584509 383.479595 
L 292.910259 382.752187 
L 293.073134 382.798055 
L 293.236009 382.318661 
L 293.398884 382.199699 
L 293.561759 381.861242 
L 293.724634 382.026557 
L 294.050383 381.843669 
L 294.213258 381.825106 
L 294.539008 382.556803 
L 294.701883 382.190472 
L 295.190508 383.924219 
L 295.353383 384.072339 
L 295.679133 383.862121 
L 295.842008 383.531889 
L 296.004883 383.650819 
L 296.167757 383.232813 
L 296.330632 383.696382 
L 296.493507 383.787028 
L 296.656382 383.449241 
L 296.819257 383.797149 
L 296.982132 381.704747 
L 297.470757 382.24438 
L 297.633632 382.094696 
L 297.796507 382.172361 
L 298.122257 381.481233 
L 298.285131 381.825668 
L 298.448006 381.860816 
L 298.610881 383.209436 
L 298.773756 383.083232 
L 298.936631 383.238199 
L 299.099506 382.989884 
L 299.425256 383.479385 
L 299.751006 383.978521 
L 299.913881 383.84347 
L 300.076756 381.85522 
L 300.402506 382.719774 
L 300.56538 382.182349 
L 300.728255 382.250276 
L 300.89113 382.02029 
L 301.054005 381.529649 
L 301.21688 381.397056 
L 301.379755 381.662313 
L 301.54263 381.393365 
L 301.705505 383.135923 
L 302.031255 382.721962 
L 302.51988 383.353176 
L 302.682754 383.674847 
L 302.845629 383.717363 
L 303.008504 383.59225 
L 303.334254 384.307134 
L 303.497129 384.162597 
L 303.822879 384.586229 
L 303.985754 383.924057 
L 304.148629 383.864594 
L 304.311504 383.947817 
L 304.474379 383.204539 
L 304.963003 382.996982 
L 305.125878 383.335209 
L 305.614503 383.022794 
L 305.777378 382.042689 
L 305.940253 381.931724 
L 306.103128 382.878198 
L 306.428878 380.110311 
L 306.591753 380.032257 
L 306.754628 380.096495 
L 306.917503 380.039711 
L 307.080377 380.181787 
L 307.569002 382.10832 
L 307.731877 381.846725 
L 307.894752 384.001549 
L 308.057627 384.565983 
L 308.220502 383.825987 
L 308.383377 383.74001 
L 308.546252 383.310682 
L 308.872002 383.461138 
L 309.360626 383.044518 
L 309.686376 383.09069 
L 309.849251 383.557367 
L 310.012126 382.69511 
L 310.175001 383.094957 
L 310.826501 382.652286 
L 310.989376 383.126567 
L 311.152251 383.063176 
L 311.315125 382.870437 
L 311.478 383.400376 
L 311.640875 384.351129 
L 311.80375 384.576579 
L 311.966625 382.702705 
L 312.292375 382.949412 
L 312.45525 383.15278 
L 312.618125 382.982201 
L 312.781 383.138531 
L 312.943875 383.537585 
L 313.269625 382.958112 
L 313.432499 382.968012 
L 313.595374 384.602495 
L 313.758249 384.228028 
L 315.061249 379.297159 
L 315.224124 379.545077 
L 315.386999 379.312093 
L 315.549874 378.845567 
L 315.712748 378.991071 
L 316.201373 381.39062 
L 316.364248 381.167013 
L 316.527123 381.311349 
L 316.689998 381.155335 
L 316.852873 381.300858 
L 317.015748 381.692239 
L 317.178623 382.642471 
L 317.341498 382.350125 
L 317.667248 382.788932 
L 317.830122 382.867503 
L 317.992997 383.898448 
L 318.155872 383.925942 
L 318.318747 384.405895 
L 318.481622 383.119401 
L 318.644497 383.284149 
L 318.807372 383.253033 
L 318.970247 383.359493 
L 319.133122 383.303056 
L 319.295997 383.013182 
L 319.458872 381.450929 
L 319.621747 381.525626 
L 319.947496 380.473783 
L 320.110371 381.370149 
L 320.273246 381.416595 
L 320.598996 381.857064 
L 320.761871 381.780309 
L 320.924746 381.928696 
L 321.087621 383.33658 
L 321.250496 383.242606 
L 321.413371 383.875552 
L 321.739121 383.9419 
L 321.901996 383.675942 
L 322.064871 383.665262 
L 322.227745 383.236139 
L 322.879245 383.449144 
L 323.04212 383.2164 
L 323.36787 384.045148 
L 323.530745 384.43067 
L 323.69362 383.512406 
L 324.01937 383.84219 
L 324.182245 383.720636 
L 324.507994 383.065635 
L 324.996619 383.188382 
L 325.159494 383.066817 
L 325.322369 383.905635 
L 325.485244 383.874371 
L 325.648119 383.655715 
L 325.810994 383.735293 
L 325.973869 381.477818 
L 326.299619 382.195766 
L 326.462493 382.112668 
L 326.951118 382.31492 
L 327.276868 382.761721 
L 327.439743 382.575311 
L 327.602618 385.308858 
L 327.765493 385.243451 
L 327.928368 384.701686 
L 328.254118 384.741808 
L 328.742742 383.151045 
L 328.905617 383.090056 
L 329.068492 383.33223 
L 329.231367 383.303306 
L 329.394242 380.590429 
L 329.557117 380.938541 
L 329.882867 380.568534 
L 330.045742 381.23302 
L 330.208617 381.067913 
L 330.534367 381.445675 
L 330.697242 381.360124 
L 330.860116 380.968248 
L 331.022991 383.296762 
L 331.185866 383.264078 
L 331.511616 382.859365 
L 331.674491 382.732498 
L 331.837366 383.502085 
L 332.000241 382.866981 
L 332.163116 382.705398 
L 332.488866 381.748587 
L 332.651741 381.965757 
L 332.814616 381.802729 
L 332.97749 382.291262 
L 333.140365 382.103417 
L 333.30324 381.604649 
L 333.466115 381.491666 
L 333.62899 382.155057 
L 333.791865 381.992309 
L 334.28049 383.677184 
L 334.60624 383.844528 
L 335.094864 384.845617 
L 335.420614 385.132472 
L 335.909239 384.15179 
L 336.234989 383.287031 
L 336.397864 382.679704 
L 336.560739 382.768231 
L 336.723614 382.49372 
L 336.886489 382.43781 
L 337.049364 382.128049 
L 337.212239 382.376268 
L 337.375113 382.296186 
L 337.700863 383.305398 
L 338.026613 384.125372 
L 338.189488 384.101806 
L 338.352363 383.946295 
L 338.515238 383.609133 
L 338.678113 383.65252 
L 338.840988 383.362794 
L 339.166738 381.547744 
L 339.492487 381.289687 
L 339.655362 379.18256 
L 339.818237 379.197074 
L 339.981112 378.910929 
L 340.632612 380.257015 
L 340.795487 381.088528 
L 340.958362 381.151758 
L 341.121237 380.405007 
L 341.284112 382.803516 
L 341.446987 382.68984 
L 341.609861 382.972651 
L 341.935611 381.994118 
L 342.098486 381.236911 
L 342.261361 382.04963 
L 342.587111 381.996772 
L 342.749986 382.634732 
L 342.912861 382.393553 
L 343.075736 382.443002 
L 343.238611 382.628437 
L 343.401486 381.24757 
L 343.727235 382.617131 
L 344.21586 382.635267 
L 344.378735 382.539284 
L 344.704485 382.633971 
L 344.86736 382.604281 
L 345.030235 384.222494 
L 345.19311 384.130399 
L 345.681735 381.561213 
L 345.84461 381.721536 
L 346.007484 382.077528 
L 346.170359 382.163013 
L 346.333234 380.94343 
L 346.821859 381.643801 
L 347.147609 384.211137 
L 347.310484 383.934863 
L 347.636234 383.889357 
L 347.799109 383.443929 
L 347.961984 384.428304 
L 348.124858 384.434421 
L 348.287733 384.056835 
L 348.613483 383.979412 
L 348.776358 383.512425 
L 348.939233 383.545389 
L 349.102108 383.427466 
L 349.590733 382.733625 
L 350.079358 382.318306 
L 350.405107 381.354902 
L 350.730857 380.124271 
L 350.893732 380.402543 
L 351.382357 380.351229 
L 351.545232 380.936186 
L 351.708107 381.020831 
L 352.033857 382.190443 
L 352.359607 383.806493 
L 352.522481 383.769222 
L 352.848231 384.881368 
L 353.011106 384.226014 
L 353.173981 380.377253 
L 353.336856 379.43611 
L 353.499731 379.603713 
L 353.662606 379.960655 
L 354.151231 380.172818 
L 354.476981 379.294762 
L 354.639855 379.766975 
L 354.80273 383.447231 
L 354.965605 384.399747 
L 355.12848 384.107826 
L 355.291355 383.499508 
L 355.77998 383.280781 
L 356.268605 384.058444 
L 356.43148 384.183231 
L 356.594355 384.126898 
L 356.920104 384.325801 
L 357.082979 384.293086 
L 357.245854 384.44529 
L 357.408729 384.42468 
L 357.571604 384.619141 
L 357.734479 384.577892 
L 357.897354 384.835553 
L 358.223104 384.594913 
L 358.385979 384.824759 
L 358.548854 385.276841 
L 358.874603 383.672063 
L 359.037478 383.582257 
L 359.363228 381.456344 
L 359.526103 381.133214 
L 359.688978 381.16176 
L 360.177603 379.825332 
L 360.340478 380.935518 
L 360.666228 381.410117 
L 360.829103 382.786808 
L 361.154852 383.50265 
L 361.317727 383.403983 
L 361.643477 383.838565 
L 361.806352 383.484671 
L 361.969227 383.408567 
L 362.132102 383.575928 
L 362.294977 382.43961 
L 362.457852 382.330247 
L 362.620727 382.555605 
L 362.783602 382.136946 
L 362.946477 382.084841 
L 363.109352 382.455651 
L 363.272226 382.357571 
L 363.435101 383.445545 
L 363.597976 383.443776 
L 363.760851 382.974327 
L 363.923726 384.016576 
L 364.249476 384.153581 
L 364.575226 384.845234 
L 364.900976 384.940124 
L 365.063851 384.535883 
L 365.226726 384.440967 
L 365.3896 384.910457 
L 365.552475 384.863192 
L 365.71535 385.080199 
L 365.878225 385.106647 
L 366.203975 384.719082 
L 366.36685 384.616494 
L 366.529725 384.313527 
L 366.855475 384.786409 
L 367.181225 384.47397 
L 367.669849 384.216734 
L 367.832724 383.620282 
L 367.995599 383.699746 
L 368.158474 383.961879 
L 368.484224 383.90147 
L 368.809974 382.91025 
L 368.972849 382.897963 
L 369.135724 382.505488 
L 369.298599 382.550675 
L 369.461474 382.241908 
L 369.624349 382.29165 
L 369.787223 382.15552 
L 369.950098 382.239458 
L 370.112973 381.986006 
L 370.438723 383.248168 
L 370.601598 383.190926 
L 370.764473 383.841964 
L 370.927348 383.938342 
L 371.090223 384.879721 
L 371.578848 384.866673 
L 371.904597 385.222992 
L 372.718972 385.504149 
L 372.881847 385.273046 
L 373.696222 385.220178 
L 374.184846 383.883381 
L 374.347721 383.052877 
L 374.510596 383.339729 
L 375.162096 381.526822 
L 375.324971 381.580102 
L 375.487846 381.867783 
L 375.650721 381.709632 
L 376.139346 383.150616 
L 376.30222 383.44031 
L 376.62797 384.471121 
L 376.790845 384.504498 
L 376.95372 383.969363 
L 377.116595 383.82134 
L 377.27947 384.005699 
L 377.442345 383.888592 
L 377.60522 383.974996 
L 377.768095 383.610137 
L 377.93097 384.125633 
L 378.093845 384.114815 
L 378.25672 383.938288 
L 378.419594 383.155983 
L 378.582469 383.587666 
L 378.745344 383.137454 
L 378.908219 383.225401 
L 379.071094 381.251737 
L 379.233969 380.901441 
L 379.396844 381.346627 
L 379.885469 381.455183 
L 380.048344 382.420916 
L 380.211219 381.990075 
L 380.374094 382.073885 
L 380.536968 381.225292 
L 380.699843 383.357236 
L 380.862718 383.53846 
L 381.025593 383.499247 
L 381.188468 382.84473 
L 381.351343 382.970356 
L 381.514218 382.812914 
L 381.677093 382.122215 
L 382.328593 383.564056 
L 382.491468 383.623185 
L 382.654343 383.478386 
L 382.817217 383.892281 
L 382.980092 383.905028 
L 383.142967 382.886392 
L 383.305842 383.444239 
L 383.468717 383.081503 
L 383.631592 383.095324 
L 383.794467 383.654387 
L 383.957342 383.722428 
L 384.120217 383.464149 
L 384.445967 383.761686 
L 384.934591 381.150252 
L 385.097466 381.645134 
L 385.748966 381.431761 
L 385.911841 380.820132 
L 386.074716 380.829692 
L 386.237591 380.373242 
L 386.563341 383.364959 
L 386.726216 383.244935 
L 386.889091 383.356193 
L 387.051965 383.293094 
L 387.21484 382.498415 
L 387.377715 382.669848 
L 387.54059 383.315863 
L 387.703465 383.220342 
L 387.86634 384.281937 
L 388.354965 383.834739 
L 388.680715 383.680763 
L 388.84359 384.557011 
L 389.006465 384.464183 
L 389.332214 384.073378 
L 389.495089 383.895974 
L 389.657964 383.954561 
L 389.820839 384.253088 
L 389.983714 384.282055 
L 390.309464 384.183802 
L 390.635214 384.434678 
L 391.123839 384.929404 
L 391.286714 385.053865 
L 391.775338 384.124393 
L 391.938213 384.139912 
L 392.263963 383.966685 
L 392.426838 383.984477 
L 392.589713 383.886526 
L 392.915463 384.017253 
L 393.404088 385.057614 
L 393.566962 385.041896 
L 393.729837 385.231206 
L 394.055587 384.649867 
L 394.381337 378.434923 
L 394.544212 378.262529 
L 394.707087 378.252552 
L 394.869962 378.073778 
L 395.032837 378.172328 
L 395.358587 377.223666 
L 395.684336 377.647753 
L 396.010086 383.651581 
L 396.335836 383.677329 
L 396.661586 383.270199 
L 396.987336 384.326117 
L 397.150211 384.257837 
L 397.313086 384.470031 
L 397.475961 383.80199 
L 397.638836 384.405188 
L 397.80171 384.553327 
L 397.964585 383.919515 
L 398.290335 384.284495 
L 398.45321 384.120106 
L 398.616085 383.509249 
L 398.941835 383.311392 
L 399.10471 383.984957 
L 399.267585 383.925367 
L 399.43046 383.176272 
L 399.75621 383.873609 
L 399.919085 383.812713 
L 400.081959 383.951904 
L 400.244834 384.548954 
L 400.570584 384.717329 
L 400.896334 384.743866 
L 401.059209 385.431917 
L 401.384959 385.056586 
L 401.547834 384.900206 
L 401.710709 384.91847 
L 401.873584 384.495793 
L 402.199333 382.065788 
L 402.687958 382.232308 
L 402.850833 382.534596 
L 403.013708 382.418786 
L 403.339458 382.664976 
L 403.502333 382.487363 
L 403.828083 384.951355 
L 403.990958 384.803078 
L 404.153833 384.812404 
L 404.479582 384.386909 
L 404.968207 384.409703 
L 405.131082 384.768529 
L 405.293957 383.991687 
L 405.619707 384.100808 
L 405.945457 383.455177 
L 406.271207 383.799659 
L 406.759831 383.830488 
L 406.922706 384.423263 
L 407.085581 384.476019 
L 407.248456 383.652171 
L 407.411331 383.843024 
L 407.574206 384.206265 
L 408.062831 383.422565 
L 408.551456 383.806609 
L 408.71433 383.652278 
L 408.877205 384.514337 
L 409.202955 384.155243 
L 409.36583 384.489525 
L 409.528705 384.50458 
L 409.69158 384.747829 
L 410.01733 384.535943 
L 410.505955 384.408851 
L 410.66883 384.797112 
L 410.831704 384.803511 
L 410.994579 384.526447 
L 411.157454 384.666623 
L 411.320329 384.410782 
L 411.483204 384.387323 
L 411.646079 383.842924 
L 412.134704 383.963681 
L 412.949078 382.093535 
L 413.111953 382.220321 
L 413.274828 382.778121 
L 413.600578 382.555018 
L 413.763453 382.395577 
L 414.577828 384.837044 
L 414.740703 384.327649 
L 414.903578 384.248971 
L 415.392202 384.365045 
L 415.555077 384.180955 
L 415.717952 384.35007 
L 415.880827 384.313894 
L 416.043702 384.607619 
L 416.369452 384.034985 
L 416.532327 384.097383 
L 416.695202 382.991052 
L 416.858077 383.215959 
L 417.020952 383.19142 
L 417.183827 383.313628 
L 417.509576 383.042619 
L 417.672451 382.705713 
L 417.835326 382.723435 
L 417.998201 383.193778 
L 418.161076 383.198878 
L 418.323951 384.175709 
L 418.649701 383.9773 
L 418.975451 383.364915 
L 419.789825 384.60778 
L 420.115575 384.16493 
L 420.27845 384.49099 
L 420.441325 384.2118 
L 420.6042 384.45319 
L 420.92995 384.589245 
L 421.2557 384.216774 
L 421.418575 384.171335 
L 421.744324 384.667868 
L 421.907199 384.50444 
L 422.070074 385.107022 
L 422.395824 384.861081 
L 422.558699 384.42449 
L 422.721574 384.421458 
L 422.884449 384.185951 
L 423.047324 383.463991 
L 423.210199 383.540929 
L 423.373074 382.645259 
L 423.535949 382.860081 
L 423.698824 382.77161 
L 424.024573 382.150277 
L 424.187448 382.352083 
L 424.350323 382.154059 
L 424.513198 382.434218 
L 424.676073 383.168332 
L 424.838948 383.205507 
L 425.001823 384.07548 
L 425.164698 383.761746 
L 425.327573 383.818499 
L 425.979072 384.802749 
L 426.141947 384.603443 
L 426.304822 384.595791 
L 426.630572 384.019459 
L 426.956322 384.541322 
L 427.282072 384.360785 
L 427.444947 384.486098 
L 427.607822 384.773314 
L 427.933572 384.73965 
L 428.096446 384.916239 
L 428.259321 385.297092 
L 428.422196 385.224363 
L 428.585071 384.956246 
L 428.747946 385.391919 
L 429.236571 383.363774 
L 429.399446 383.589061 
L 430.050946 383.675218 
L 430.213821 381.381155 
L 430.53957 381.241112 
L 430.86532 382.275632 
L 431.19107 382.001073 
L 431.679695 381.964273 
L 431.84257 384.488453 
L 432.005445 384.39372 
L 432.16832 384.975551 
L 432.331195 384.4347 
L 432.656944 384.317817 
L 432.982694 384.407369 
L 433.471319 384.04509 
L 433.797069 383.958079 
L 433.959944 384.342604 
L 434.122819 384.323423 
L 434.285694 384.622118 
L 434.448569 384.426513 
L 434.611443 383.893823 
L 434.937193 384.181179 
L 435.100068 384.162323 
L 435.751568 384.852751 
L 436.077318 384.65359 
L 436.240193 385.223887 
L 436.728818 383.520279 
L 437.054567 383.394834 
L 437.217442 383.442534 
L 437.543192 382.975841 
L 437.868942 383.055247 
L 438.031817 383.670711 
L 438.194692 383.780041 
L 438.357567 384.540384 
L 438.520442 384.078631 
L 439.009066 384.101036 
L 439.334816 384.471241 
L 439.497691 384.296959 
L 439.660566 384.373927 
L 440.312066 385.304591 
L 440.474941 385.001786 
L 440.637816 385.005206 
L 440.800691 385.126389 
L 440.963566 385.102722 
L 441.12644 385.204586 
L 441.45219 384.667042 
L 441.615065 384.637067 
L 442.266565 385.414803 
L 442.75519 385.26956 
L 442.918065 385.256667 
L 443.08094 384.033067 
L 443.406689 383.702566 
L 443.732439 382.66206 
L 444.058189 382.682563 
L 444.221064 382.767006 
L 444.383939 382.39145 
L 444.546814 382.744539 
L 444.709689 384.164889 
L 445.035439 384.105722 
L 445.361189 384.836477 
L 445.686938 384.585719 
L 445.849813 384.375068 
L 446.012688 384.780201 
L 446.175563 384.765621 
L 446.338438 383.162317 
L 446.664188 383.398424 
L 446.827063 383.217337 
L 447.152813 383.404053 
L 447.315688 382.852659 
L 447.478563 383.019186 
L 447.641437 382.992615 
L 447.804312 382.735453 
L 447.967187 383.977184 
L 448.130062 384.105482 
L 448.292937 383.702519 
L 448.455812 383.963072 
L 448.618687 383.984452 
L 448.781562 383.735701 
L 448.944437 384.439768 
L 449.107312 384.057672 
L 449.270187 383.998352 
L 449.433062 383.783901 
L 449.595937 384.162333 
L 449.921686 383.709207 
L 450.084561 383.757438 
L 450.247436 383.449787 
L 450.410311 383.567844 
L 450.573186 383.519688 
L 450.736061 383.138633 
L 450.898936 383.157731 
L 451.061811 383.441578 
L 451.224686 383.345265 
L 451.713311 383.579717 
L 451.876186 383.929624 
L 452.03906 383.783427 
L 452.201935 383.807067 
L 452.36481 384.60901 
L 453.01631 385.187393 
L 453.179185 385.717176 
L 453.830685 385.763757 
L 454.156434 385.640437 
L 454.319309 385.737959 
L 454.645059 385.603814 
L 454.970809 385.488292 
L 455.133684 384.463925 
L 455.459434 384.305665 
L 455.785184 383.227771 
L 456.273808 383.201535 
L 456.436683 382.775906 
L 456.599558 382.7083 
L 456.762433 383.73066 
L 457.088183 384.079115 
L 457.251058 384.86973 
L 457.413933 385.095001 
L 457.576808 384.106174 
L 457.739683 384.251595 
L 457.902558 383.759995 
L 458.065433 384.226454 
L 458.391182 384.4427 
L 458.554057 384.258253 
L 458.716932 384.282852 
L 459.042682 383.550445 
L 459.205557 384.537303 
L 459.368432 384.479551 
L 459.531307 384.997272 
L 460.019932 384.864885 
L 460.182807 384.970813 
L 460.508557 384.81268 
L 460.671431 385.185547 
L 460.834306 385.124057 
L 461.485806 384.339404 
L 462.300181 384.637474 
L 462.463056 384.628204 
L 462.625931 384.811896 
L 462.788805 384.644464 
L 462.95168 385.11616 
L 463.440305 385.001748 
L 464.091805 385.581378 
L 464.25468 385.358836 
L 464.417555 385.588736 
L 464.58043 385.553342 
L 464.743305 385.690833 
L 464.906179 385.499465 
L 465.557679 383.414422 
L 465.720554 383.405568 
L 465.883429 383.723168 
L 466.046304 383.441416 
L 466.209179 383.455534 
L 466.372054 382.962208 
L 466.534929 383.141634 
L 467.186428 384.945689 
L 467.512178 384.808294 
L 467.675053 383.293505 
L 467.837928 383.134733 
L 468.489428 381.339054 
L 468.652303 381.123179 
L 468.815178 381.236817 
L 468.978053 380.696969 
L 469.140928 380.679531 
L 469.303802 382.449127 
L 469.466677 382.581822 
L 469.792427 384.174027 
L 469.955302 384.224071 
L 470.118177 384.682577 
L 470.281052 384.776345 
L 470.443927 384.551095 
L 470.606802 385.123656 
L 470.769677 385.15656 
L 470.932552 385.062991 
L 471.095427 385.157477 
L 471.421176 384.48419 
L 471.746926 383.304352 
L 472.072676 383.520171 
L 472.235551 383.590332 
L 472.398426 383.447637 
L 472.561301 383.574092 
L 472.724176 383.559108 
L 472.887051 383.864021 
L 473.212801 384.658119 
L 473.375676 384.036008 
L 473.701425 384.105137 
L 473.8643 383.867457 
L 474.027175 383.977933 
L 474.352925 383.906177 
L 474.5158 383.966124 
L 474.84155 382.929459 
L 475.004425 383.961831 
L 475.1673 383.972544 
L 475.49305 384.141263 
L 475.818799 383.132484 
L 476.144549 383.034243 
L 476.307424 382.72791 
L 476.470299 383.946855 
L 476.958924 383.695057 
L 477.121799 383.976653 
L 477.447549 385.039143 
L 477.773299 384.962007 
L 477.936173 385.665036 
L 478.261923 385.259845 
L 478.424798 385.24795 
L 478.587673 385.392352 
L 478.913423 384.611604 
L 479.239173 384.128556 
L 479.402048 383.852242 
L 479.890673 383.822288 
L 480.053547 382.535016 
L 480.216422 382.573622 
L 480.379297 382.855206 
L 481.030797 382.897272 
L 481.193672 381.722311 
L 481.356547 381.698512 
L 481.519422 381.482213 
L 481.682297 382.606862 
L 481.845172 382.489083 
L 482.008047 381.818136 
L 482.659546 382.818631 
L 482.985296 384.442658 
L 483.148171 384.175377 
L 483.311046 384.171997 
L 483.473921 384.337381 
L 483.636796 384.918176 
L 483.799671 384.738832 
L 483.962546 384.791099 
L 484.125421 384.511834 
L 484.288296 384.507497 
L 484.45117 384.378765 
L 484.614045 383.733243 
L 484.77692 383.709821 
L 485.10267 383.367995 
L 485.42842 383.537708 
L 485.591295 383.332419 
L 485.75417 383.494122 
L 485.917045 382.605687 
L 486.07992 382.74384 
L 486.568544 384.051872 
L 486.894294 384.243411 
L 487.220044 383.700799 
L 487.382919 383.027091 
L 487.545794 383.458928 
L 488.197294 383.382134 
L 488.360169 381.80658 
L 488.523044 381.882029 
L 488.848793 382.808207 
L 489.174543 384.11842 
L 489.337418 384.000519 
L 489.663168 384.068429 
L 489.826043 384.426227 
L 489.988918 385.733699 
L 490.314668 385.754649 
L 490.640418 385.439896 
L 490.803293 384.915629 
L 491.129042 385.029844 
L 491.454792 384.734453 
L 491.617667 384.814906 
L 491.780542 384.698876 
L 491.943417 384.296334 
L 492.106292 384.519636 
L 492.269167 384.387837 
L 492.432042 384.785431 
L 492.757792 384.817297 
L 492.920667 384.764988 
L 493.246416 384.298397 
L 493.409291 383.181212 
L 493.735041 382.885289 
L 493.897916 383.140495 
L 494.223666 383.128064 
L 494.386541 382.931217 
L 494.549416 383.118509 
L 494.712291 383.495586 
L 494.875166 383.523582 
L 495.200915 385.29761 
L 495.36379 385.243993 
L 495.526665 385.038106 
L 496.01529 385.398693 
L 496.178165 385.330719 
L 496.34104 384.946907 
L 496.503915 385.158369 
L 496.66679 384.709844 
L 497.155415 385.018291 
L 497.481164 383.695383 
L 497.806914 383.539003 
L 497.969789 383.577201 
L 498.132664 383.466112 
L 498.295539 383.872149 
L 498.458414 383.727871 
L 498.621289 383.360541 
L 498.784164 383.36998 
L 498.947039 383.817744 
L 499.272789 383.082656 
L 499.435664 382.967849 
L 499.598538 382.243433 
L 499.761413 382.255314 
L 500.087163 382.116407 
L 500.412913 382.18927 
L 500.575788 382.241447 
L 500.738663 383.206091 
L 500.901538 383.47065 
L 501.064413 380.983729 
L 501.227288 381.431428 
L 501.390163 381.018791 
L 501.553038 381.005552 
L 501.715912 380.732148 
L 502.041662 380.670711 
L 502.204537 378.881651 
L 502.530287 378.681663 
L 502.693162 381.447577 
L 503.507537 383.425379 
L 503.670412 382.959343 
L 503.833286 384.858297 
L 503.996161 383.942131 
L 504.321911 384.163291 
L 504.647661 383.513588 
L 504.973411 383.042021 
L 505.136286 382.916303 
L 505.299161 383.497234 
L 505.462036 383.478868 
L 505.624911 384.721081 
L 505.950661 384.576165 
L 506.113535 385.157327 
L 506.27641 385.188492 
L 506.439285 385.511396 
L 506.765035 385.350542 
L 507.090785 384.331857 
L 507.25366 384.231808 
L 507.416535 384.289026 
L 507.742285 384.196513 
L 507.90516 384.40094 
L 508.068035 384.403193 
L 508.882409 385.79356 
L 509.045284 385.738711 
L 509.208159 385.875853 
L 509.859659 385.520669 
L 510.185409 385.107313 
L 510.348283 385.127014 
L 510.511158 384.329555 
L 510.674033 384.382227 
L 510.836908 384.041677 
L 510.999783 384.177555 
L 511.488408 381.913857 
L 511.651283 382.242225 
L 511.814158 382.205296 
L 511.977033 381.594576 
L 512.139908 382.276006 
L 512.302783 382.197403 
L 512.465657 381.777926 
L 512.628532 381.773088 
L 513.117157 384.146096 
L 513.442907 384.191685 
L 513.605782 384.771802 
L 513.768657 384.845718 
L 513.931532 384.69482 
L 514.094407 384.085903 
L 514.257282 384.105947 
L 514.420157 382.91602 
L 514.745906 382.985623 
L 514.908781 382.931052 
L 515.071656 383.046734 
L 515.397406 382.737079 
L 515.560281 382.863914 
L 515.723156 384.231747 
L 515.886031 384.143792 
L 516.048906 385.367728 
L 516.211781 385.102491 
L 516.537531 385.012117 
L 516.700406 384.351332 
L 516.86328 384.600094 
L 517.026155 384.32469 
L 517.18903 384.412096 
L 517.351905 383.636642 
L 517.677655 383.505385 
L 518.003405 383.878347 
L 518.16628 383.888958 
L 518.329155 384.486097 
L 518.49203 384.612546 
L 518.654905 384.973022 
L 518.81778 384.401058 
L 518.980654 384.879564 
L 519.143529 384.813168 
L 519.306404 384.945798 
L 519.632154 384.874604 
L 520.120779 384.864847 
L 520.283654 382.426995 
L 520.609404 383.185943 
L 521.098029 383.174434 
L 521.423778 382.477579 
L 521.749528 382.420257 
L 521.912403 384.902374 
L 522.238153 384.996181 
L 522.401028 385.097651 
L 522.726778 385.102901 
L 523.052528 385.596499 
L 523.541152 385.645027 
L 524.029777 385.597686 
L 524.192652 385.009019 
L 524.518402 384.978747 
L 524.681277 385.06606 
L 524.844152 384.591735 
L 525.007027 383.475523 
L 525.169902 383.505063 
L 525.332777 383.289825 
L 525.658526 383.289719 
L 525.821401 383.733461 
L 526.147151 383.737495 
L 526.310026 383.845436 
L 526.472901 384.220078 
L 526.635776 385.190929 
L 526.798651 385.110836 
L 527.124401 385.507413 
L 527.287276 385.491309 
L 527.613025 385.657678 
L 527.938775 383.625526 
L 528.264525 383.334832 
L 528.4274 383.275017 
L 528.590275 382.699474 
L 528.75315 382.694987 
L 529.0789 382.495708 
L 529.241775 382.090485 
L 529.567525 384.175605 
L 529.893274 384.565778 
L 530.056149 384.522603 
L 530.219024 384.674872 
L 530.381899 384.181239 
L 530.707649 384.201775 
L 530.870524 384.474956 
L 531.033399 384.428298 
L 531.196274 384.241758 
L 531.522024 384.342604 
L 531.684899 384.447223 
L 532.010648 385.319915 
L 532.825023 385.241609 
L 532.987898 384.894934 
L 533.476523 384.912876 
L 533.802273 384.291716 
L 533.965148 384.260107 
L 534.128022 382.990195 
L 534.290897 383.021442 
L 534.453772 383.174389 
L 534.616647 383.484388 
L 534.779522 383.386941 
L 535.105272 383.468119 
L 535.593897 384.578313 
L 535.756772 385.896534 
L 536.082522 385.946752 
L 536.408271 386.048831 
L 536.896896 385.814514 
L 537.059771 384.839434 
L 537.222646 384.827654 
L 537.711271 384.278349 
L 538.037021 382.931635 
L 538.362771 383.031359 
L 538.525645 382.672088 
L 538.68852 378.445761 
L 538.851395 378.382976 
L 539.177145 378.677836 
L 539.34002 378.548079 
L 539.66577 379.925321 
L 540.154395 380.117995 
L 540.31727 385.159249 
L 540.805894 385.313993 
L 540.968769 384.505525 
L 541.131644 384.508003 
L 541.294519 383.610762 
L 541.457394 383.58059 
L 541.620269 383.202677 
L 541.783144 383.167749 
L 541.946019 383.268908 
L 542.434644 382.866117 
L 542.597519 383.864236 
L 542.760393 383.761787 
L 542.923268 384.516874 
L 543.086143 384.031142 
L 543.249018 384.342387 
L 543.737643 384.35219 
L 544.552018 383.486532 
L 544.714893 383.998853 
L 544.877768 384.006234 
L 545.203517 384.395747 
L 545.366392 384.364041 
L 545.529267 384.567581 
L 545.855017 385.272316 
L 546.017892 385.161701 
L 546.180767 385.40432 
L 546.343642 385.351171 
L 546.506517 385.434417 
L 546.832267 385.299835 
L 547.158016 385.404577 
L 547.320891 385.244436 
L 547.483766 385.314919 
L 547.646641 383.80689 
L 547.972391 383.652502 
L 548.623891 383.789939 
L 548.949641 383.681935 
L 549.112516 383.512279 
L 549.27539 384.0576 
L 549.60114 384.194759 
L 549.92689 384.176169 
L 550.415515 384.140911 
L 550.741265 384.522533 
L 550.90414 385.825872 
L 551.067015 385.584771 
L 551.392765 385.716699 
L 551.718514 384.052912 
L 551.881389 384.060609 
L 552.044264 383.415142 
L 552.532889 383.02361 
L 552.695764 383.277282 
L 553.021514 383.083426 
L 553.347264 384.708688 
L 553.510139 384.840399 
L 553.673013 384.275095 
L 553.835888 384.385625 
L 554.161638 384.235588 
L 554.324513 384.256997 
L 554.487388 383.640141 
L 554.976013 383.628364 
L 555.138888 383.647285 
L 555.301763 384.887316 
L 555.464638 384.895431 
L 555.627513 383.75134 
L 555.790387 383.885309 
L 555.953262 383.680049 
L 556.116137 384.394408 
L 556.279012 384.495343 
L 556.930512 383.416223 
L 557.093387 383.348376 
L 557.256262 384.631957 
L 557.582012 383.711801 
L 557.744887 383.642342 
L 558.233511 382.395812 
L 558.396386 382.507197 
L 558.559261 382.799798 
L 558.885011 382.792157 
L 559.210761 384.003196 
L 559.373636 383.912205 
L 559.536511 384.327045 
L 559.862261 385.555225 
L 560.350885 385.949681 
L 560.51376 385.326638 
L 560.83951 385.197386 
L 561.002385 385.318269 
L 561.16526 385.169772 
L 561.328135 384.007648 
L 561.653885 383.974462 
L 561.979635 383.89824 
L 562.14251 384.560024 
L 562.305384 384.102563 
L 562.468259 383.982647 
L 562.794009 384.111659 
L 562.956884 384.799909 
L 563.119759 384.812172 
L 563.282634 384.557471 
L 563.445509 384.584498 
L 563.771259 383.915031 
L 564.097009 384.571671 
L 564.259884 383.512139 
L 564.422758 383.211009 
L 564.585633 383.655154 
L 564.748508 383.546598 
L 564.911383 383.771784 
L 565.074258 383.696858 
L 565.400008 384.418665 
L 565.562883 384.459382 
L 565.725758 384.351331 
L 566.051508 385.398785 
L 566.214383 385.363807 
L 566.377258 385.475092 
L 567.028757 385.431734 
L 567.680257 385.497341 
L 568.006007 385.273928 
L 568.331757 385.314636 
L 568.657507 385.198465 
L 568.983256 384.955228 
L 569.471881 385.356569 
L 570.123381 385.545253 
L 570.286256 385.171407 
L 570.449131 385.341326 
L 570.612006 384.387112 
L 570.937755 384.497798 
L 571.42638 384.203874 
L 571.589255 383.99801 
L 571.75213 383.973648 
L 571.915005 384.395113 
L 572.07788 384.252335 
L 572.240755 385.19276 
L 572.566505 385.066902 
L 572.72938 384.891363 
L 572.892255 384.956382 
L 573.055129 384.836155 
L 573.218004 385.052834 
L 573.543754 385.080254 
L 574.032379 385.184741 
L 574.358129 384.820737 
L 574.521004 384.199809 
L 574.683879 382.467983 
L 575.172504 382.251228 
L 575.335378 381.804982 
L 575.498253 381.792314 
L 575.661128 381.649632 
L 575.986878 381.00616 
L 576.149753 381.537779 
L 576.312628 383.264954 
L 576.475503 382.480703 
L 576.638378 382.260851 
L 576.801253 382.248905 
L 576.964128 381.884157 
L 577.127003 380.5024 
L 577.778502 381.171795 
L 577.941377 380.976097 
L 578.267127 381.978801 
L 578.430002 381.643753 
L 578.592877 381.640987 
L 578.755752 382.793214 
L 578.918627 382.337951 
L 579.244377 382.888148 
L 579.407252 382.345576 
L 579.570126 382.791573 
L 579.733001 382.873872 
L 579.895876 382.736595 
L 580.058751 382.973482 
L 580.221626 383.910563 
L 580.384501 384.013449 
L 580.547376 384.524122 
L 580.710251 384.570102 
L 580.873126 384.372479 
L 581.036001 384.739441 
L 581.198876 381.904606 
L 581.361751 381.800157 
L 581.850375 382.060948 
L 582.01325 382.108591 
L 582.176125 381.287118 
L 582.339 381.324108 
L 582.501875 381.722851 
L 582.66475 381.4621 
L 582.827625 383.999323 
L 583.153375 383.46879 
L 583.642 383.030703 
L 583.804875 383.819825 
L 583.967749 383.388834 
L 584.293499 383.530946 
L 584.944999 383.52233 
L 585.107874 383.814257 
L 585.270749 383.847947 
L 585.433624 383.35268 
L 585.596499 383.667217 
L 585.759374 383.344934 
L 586.247998 384.711787 
L 586.573748 384.445194 
L 586.899498 384.397165 
L 587.225248 384.996383 
L 587.388123 385.09354 
L 587.876748 384.813551 
L 588.202497 385.32209 
L 588.365372 385.152062 
L 588.691122 385.226985 
L 588.853997 384.985926 
L 589.179747 385.361149 
L 589.505497 385.654411 
L 589.831247 385.619207 
L 589.994122 385.878116 
L 590.156997 385.871728 
L 590.319872 385.600915 
L 590.482746 385.721138 
L 591.297121 385.40211 
L 591.785746 385.293871 
L 591.948621 385.105795 
L 592.274371 384.398371 
L 592.762995 383.927753 
L 593.414495 383.989006 
L 594.065995 385.788705 
L 594.22887 386.076664 
L 594.717494 386.059582 
L 594.880369 385.815816 
L 595.531869 385.833808 
L 596.346244 385.86943 
L 596.509119 386.047103 
L 597.160618 385.494612 
L 597.323493 385.064045 
L 597.649243 385.062932 
L 597.812118 384.861935 
L 598.137868 384.966406 
L 598.463618 384.495058 
L 598.626493 384.49078 
L 598.789368 384.290548 
L 598.952243 384.746249 
L 599.277992 384.611048 
L 599.440867 384.78823 
L 599.766617 384.614892 
L 599.929492 384.947519 
L 600.255242 384.030896 
L 600.418117 384.520737 
L 600.580992 384.460878 
L 600.743867 384.249409 
L 600.906742 382.397379 
L 601.558241 382.632392 
L 601.883991 383.806144 
L 602.046866 383.643723 
L 602.209741 383.686556 
L 602.372616 383.967319 
L 602.535491 385.876264 
L 602.698366 385.890497 
L 602.861241 385.765133 
L 603.024116 385.797602 
L 603.51274 385.138378 
L 603.675615 385.324011 
L 603.83849 385.069242 
L 604.16424 385.093781 
L 604.327115 383.554935 
L 604.652865 383.626967 
L 605.630114 383.687572 
L 605.792989 383.671589 
L 605.955864 385.040882 
L 606.281614 384.611952 
L 606.607364 384.975037 
L 606.933114 384.826773 
L 607.421739 384.888892 
L 607.584614 384.862581 
L 607.747488 385.010316 
L 608.073238 384.897449 
L 608.398988 385.302412 
L 608.561863 385.256823 
L 608.724738 384.897706 
L 609.213363 385.035842 
L 609.376238 384.933051 
L 609.539113 385.309005 
L 609.701988 385.322546 
L 609.864862 385.165257 
L 610.027737 384.850869 
L 610.190612 384.897248 
L 610.353487 385.152658 
L 610.679237 385.160429 
L 611.004987 385.361217 
L 611.167862 384.839669 
L 611.330737 384.837826 
L 611.656487 385.325098 
L 611.819362 385.109733 
L 611.982236 385.323684 
L 612.145111 385.098124 
L 612.307986 384.057508 
L 612.633736 384.15057 
L 612.796611 384.67151 
L 613.122361 384.707114 
L 613.285236 384.573314 
L 613.773861 384.966859 
L 613.936736 386.006537 
L 614.42536 385.979287 
L 614.75111 385.938738 
L 614.913985 386.032745 
L 615.07686 385.195334 
L 615.565485 384.979354 
L 615.72836 384.97452 
L 615.891235 384.800825 
L 616.542734 384.828387 
L 616.705609 385.69537 
L 616.868484 385.738541 
L 617.031359 385.636689 
L 617.519984 385.88265 
L 617.682859 385.037389 
L 618.008609 384.928519 
L 618.334359 384.491324 
L 618.660108 384.57723 
L 619.148733 384.414478 
L 619.311608 385.279515 
L 619.474483 385.332104 
L 619.637358 384.973314 
L 619.800233 385.326231 
L 619.963108 385.361303 
L 620.288858 384.483233 
L 620.451733 384.343994 
L 621.103232 384.411912 
L 621.266107 384.736056 
L 621.428982 384.756616 
L 621.591857 384.913685 
L 621.917607 385.612391 
L 622.243357 385.912443 
L 622.569107 385.89001 
L 622.731982 385.690987 
L 622.894856 385.203481 
L 623.220606 385.151752 
L 623.383481 385.397434 
L 624.360731 385.180319 
L 624.523606 385.766008 
L 624.686481 385.793956 
L 624.849356 385.588162 
L 625.175105 385.631389 
L 625.33798 385.769012 
L 625.66373 385.528811 
L 625.826605 384.79892 
L 625.98948 384.964243 
L 626.152355 382.220149 
L 626.31523 382.156361 
L 626.478105 382.238137 
L 626.96673 381.855276 
L 627.129604 381.604174 
L 627.292479 381.567144 
L 627.455354 382.230869 
L 627.618229 381.941911 
L 627.781104 384.612568 
L 627.943979 384.555788 
L 628.106854 384.358151 
L 628.595479 384.691815 
L 628.758354 385.122793 
L 629.084104 385.322937 
L 629.246979 384.762935 
L 629.572728 384.780395 
L 629.735603 384.987849 
L 629.898478 384.88225 
L 630.224228 383.092291 
L 630.387103 383.133612 
L 630.549978 383.026336 
L 630.712853 382.685153 
L 630.875728 383.433063 
L 631.038603 383.433686 
L 631.201478 382.725662 
L 631.364353 382.884444 
L 631.527227 382.60913 
L 631.852977 384.438615 
L 632.178727 384.247544 
L 632.504477 384.580449 
L 632.667352 384.534438 
L 632.830227 385.33347 
L 632.993102 384.896711 
L 633.155977 385.082286 
L 633.318852 385.00444 
L 633.481727 384.1681 
L 633.807476 383.895605 
L 634.133226 383.980069 
L 634.458976 383.626289 
L 634.621851 383.936781 
L 634.784726 383.839425 
L 634.947601 383.569322 
L 635.273351 384.22652 
L 635.436226 384.52356 
L 635.761976 384.501586 
L 636.57635 385.665807 
L 636.739225 386.034805 
L 637.22785 386.044711 
L 637.390725 385.499396 
L 637.5536 385.598514 
L 638.042224 385.392234 
L 638.530849 384.131317 
L 638.856599 384.163357 
L 639.019474 384.599156 
L 639.345224 384.65997 
L 639.670974 384.714748 
L 639.833849 384.645169 
L 639.996724 384.848481 
L 640.159598 385.356577 
L 640.485348 385.239003 
L 640.648223 385.381201 
L 640.973973 385.362972 
L 641.136848 385.099438 
L 641.299723 385.092276 
L 641.462598 385.656424 
L 641.625473 385.671894 
L 641.788348 385.545973 
L 642.276972 385.629653 
L 642.439847 385.149589 
L 642.602722 385.026136 
L 642.765597 385.259389 
L 642.928472 385.278309 
L 643.254222 385.118276 
L 643.905722 385.188484 
L 644.068597 384.966425 
L 644.394347 385.044212 
L 644.557221 384.95554 
L 644.882971 385.115171 
L 645.371596 385.127586 
L 645.534471 385.066888 
L 645.697346 385.541268 
L 646.348846 385.75467 
L 646.511721 385.665447 
L 646.674595 385.790628 
L 647.000345 385.733521 
L 647.16322 385.774065 
L 647.326095 386.017974 
L 647.81472 385.643865 
L 647.977595 384.260144 
L 648.303345 384.429032 
L 648.791969 383.99225 
L 648.954844 383.896834 
L 649.280594 384.167907 
L 649.443469 383.625523 
L 649.606344 384.934249 
L 649.769219 384.81798 
L 649.932094 384.362795 
L 650.257844 384.865774 
L 650.420719 384.190472 
L 650.583594 384.235949 
L 650.909344 383.786074 
L 651.235093 384.026885 
L 651.397968 383.91646 
L 651.560843 384.25272 
L 651.886593 384.283572 
L 652.049468 384.877169 
L 652.212343 384.932247 
L 652.538093 385.453742 
L 652.700968 385.811949 
L 652.863843 385.79081 
L 653.189592 386.089823 
L 653.352467 386.062411 
L 653.515342 385.612981 
L 654.003967 385.667258 
L 654.166842 385.506449 
L 654.329717 385.176806 
L 654.981217 381.663724 
L 655.144092 381.943335 
L 655.306966 381.593664 
L 655.632716 381.492337 
L 655.795591 381.169661 
L 655.958466 381.532555 
L 656.447091 384.949244 
L 656.772841 384.916408 
L 657.261466 384.818586 
L 657.42434 385.137812 
L 657.587215 384.558299 
L 657.912965 384.548031 
L 658.07584 382.876291 
L 658.238715 382.865957 
L 658.564465 383.308929 
L 659.05309 383.339334 
L 659.215965 383.911892 
L 659.37884 383.549888 
L 659.541715 383.535303 
L 659.704589 384.645332 
L 660.030339 384.632669 
L 660.193214 384.503917 
L 660.681839 384.664397 
L 661.007589 384.760847 
L 661.170464 384.886206 
L 661.333339 385.351022 
L 661.659089 384.821031 
L 661.821963 385.098887 
L 662.147713 384.910766 
L 662.473463 384.951951 
L 662.636338 385.208255 
L 662.962088 385.138818 
L 663.450713 385.387207 
L 663.613588 385.493071 
L 663.776463 385.46368 
L 663.939337 385.198014 
L 664.102212 385.159932 
L 664.427962 384.369495 
L 664.590837 384.463324 
L 664.753712 384.798685 
L 665.242337 383.599443 
L 665.405212 383.655679 
L 665.568087 383.975423 
L 665.730962 383.731823 
L 666.219586 384.394254 
L 666.382461 384.394793 
L 666.871086 385.429313 
L 667.033961 385.257853 
L 667.196836 385.265175 
L 667.359711 385.434298 
L 667.522586 385.245406 
L 667.685461 385.246269 
L 668.011211 384.960586 
L 668.174086 385.028292 
L 668.499835 384.822378 
L 668.66271 384.952283 
L 668.825585 384.272755 
L 668.98846 384.158745 
L 669.151335 384.369728 
L 669.31421 384.267961 
L 669.63996 384.381309 
L 669.802835 384.238764 
L 670.29146 384.457605 
L 670.617209 385.302481 
L 670.780084 384.061178 
L 670.942959 384.260072 
L 671.268709 384.203879 
L 671.431584 384.371212 
L 672.083084 384.110314 
L 672.245959 383.182603 
L 672.408834 384.520618 
L 673.060333 384.652623 
L 673.223208 384.33487 
L 673.548958 384.509543 
L 673.711833 384.643892 
L 673.874708 385.556752 
L 674.526208 385.224196 
L 674.851957 385.635826 
L 675.177707 385.554912 
L 675.829207 385.650981 
L 675.992082 384.675162 
L 676.317832 384.682711 
L 676.480707 384.881983 
L 676.643582 384.870009 
L 676.969331 384.698858 
L 677.295081 383.458163 
L 677.457956 383.488667 
L 677.620831 384.718406 
L 678.272331 384.794062 
L 678.598081 384.605621 
L 678.923831 385.755253 
L 679.412455 385.144218 
L 679.57533 384.985382 
L 679.738205 384.315006 
L 679.90108 384.272762 
L 680.22683 384.37299 
L 680.55258 383.822477 
L 681.041205 383.610575 
L 681.20408 383.762193 
L 681.366954 384.471218 
L 681.529829 384.453878 
L 681.855579 384.680076 
L 682.018454 385.138419 
L 682.181329 385.136418 
L 682.344204 384.946829 
L 682.507079 385.45138 
L 682.995704 385.388088 
L 683.321454 385.04728 
L 683.647203 384.999211 
L 683.972953 385.097899 
L 684.135828 384.239222 
L 684.298703 384.272712 
L 684.624453 383.694643 
L 684.787328 384.040292 
L 684.950203 384.088213 
L 685.113078 383.797754 
L 685.275953 383.753612 
L 685.438828 383.837919 
L 685.601702 384.280948 
L 685.764577 384.112934 
L 685.927452 384.141668 
L 686.090327 384.02549 
L 686.253202 384.2255 
L 686.578952 384.140206 
L 686.741827 384.433442 
L 687.067577 384.407587 
L 687.230452 384.03842 
L 687.393327 384.814533 
L 687.556202 384.137498 
L 687.719076 384.63294 
L 688.044826 384.442472 
L 688.207701 384.382998 
L 688.370576 384.46435 
L 688.533451 383.812676 
L 688.696326 383.844403 
L 689.184951 384.824225 
L 689.347826 384.67941 
L 689.510701 383.899366 
L 689.836451 384.235222 
L 689.999325 384.150302 
L 690.1622 384.796476 
L 690.325075 383.506725 
L 690.48795 383.502289 
L 690.650825 383.080915 
L 690.976575 383.503199 
L 691.13945 384.144111 
L 691.79095 384.145199 
L 691.953825 385.474846 
L 692.279574 385.156949 
L 692.442449 384.243485 
L 692.605324 384.234492 
L 692.768199 384.436016 
L 693.093949 383.990296 
L 693.256824 384.06223 
L 693.419699 383.645271 
L 693.582574 383.593913 
L 693.745449 383.366482 
L 693.908324 383.623652 
L 694.071199 384.576337 
L 694.396948 384.420518 
L 695.211323 385.072108 
L 695.537073 385.672929 
L 696.188573 385.697666 
L 696.677197 385.251857 
L 697.002947 385.176966 
L 697.165822 385.301121 
L 697.654447 385.326047 
L 697.817322 384.993945 
L 697.980197 385.055421 
L 698.305947 385.485406 
L 698.794571 385.310726 
L 699.120321 385.090129 
L 699.283196 385.152401 
L 699.608946 385.690815 
L 699.771821 385.694705 
L 700.260446 385.040058 
L 700.74907 385.498096 
L 701.07482 385.491716 
L 701.237695 385.303807 
L 701.40057 385.349956 
L 701.72632 385.602217 
L 702.05207 385.61841 
L 702.70357 385.581238 
L 702.866444 385.767358 
L 703.029319 385.188739 
L 703.192194 385.262274 
L 703.355069 385.654649 
L 703.517944 385.327277 
L 703.680819 385.257031 
L 703.843694 383.903005 
L 704.006569 383.945231 
L 704.332319 383.62851 
L 704.495194 382.975806 
L 704.658069 383.40237 
L 704.983819 383.316753 
L 705.146693 383.626465 
L 705.309568 383.593002 
L 705.472443 384.544711 
L 705.798193 384.573469 
L 705.961068 384.661307 
L 706.123943 385.287358 
L 706.449693 385.333749 
L 706.775443 385.284764 
L 707.264067 385.566726 
L 707.589817 385.624835 
L 707.752692 385.191794 
L 708.241317 385.309372 
L 708.892817 385.395473 
L 709.055692 385.514342 
L 709.218567 385.452972 
L 709.381441 385.888895 
L 709.707191 385.887727 
L 709.870066 385.652318 
L 710.195816 385.662381 
L 710.521566 384.806615 
L 710.847316 384.778304 
L 711.010191 384.222893 
L 711.335941 384.204652 
L 711.498815 384.529971 
L 711.824565 384.303254 
L 711.98744 384.895459 
L 712.150315 385.046903 
L 712.31319 385.034766 
L 712.476065 384.903283 
L 712.63894 385.195745 
L 712.801815 384.951196 
L 713.127565 384.965739 
L 713.29044 384.239978 
L 713.453315 384.293547 
L 713.61619 383.624907 
L 713.941939 383.579576 
L 714.267689 383.86964 
L 714.430564 384.138139 
L 714.756314 384.008073 
L 714.919189 384.631699 
L 715.082064 384.687117 
L 715.244939 385.389625 
L 715.407814 385.58749 
L 716.222188 385.182653 
L 716.385063 384.882732 
L 716.547938 385.001144 
L 716.873688 383.8301 
L 717.362313 383.787111 
L 717.525188 383.655567 
L 717.688063 383.932157 
L 717.850938 383.166502 
L 718.013812 383.524615 
L 718.176687 382.799354 
L 718.339562 383.523442 
L 718.502437 383.638378 
L 718.665312 383.374065 
L 719.153937 383.922788 
L 719.316812 383.624948 
L 719.479687 384.293729 
L 719.642562 384.284465 
L 719.805437 385.05958 
L 719.968312 385.110106 
L 720.294061 385.710614 
L 720.619811 385.726099 
L 720.782686 385.752231 
L 720.945561 385.912403 
L 721.108436 385.908596 
L 721.271311 385.692424 
L 721.597061 385.61038 
L 721.759936 384.427361 
L 721.922811 384.426173 
L 722.248561 384.23628 
L 722.411435 384.206691 
L 722.90006 384.704703 
L 723.062935 384.507913 
L 723.22581 384.547743 
L 723.388685 385.643713 
L 724.040185 385.894324 
L 724.528809 385.716673 
L 724.854559 384.595468 
L 725.017434 384.477335 
L 725.180309 383.52826 
L 725.506059 383.419734 
L 725.668934 383.092335 
L 726.157559 383.071878 
L 726.320434 383.860566 
L 726.483309 383.89727 
L 726.646183 384.115549 
L 726.809058 385.069861 
L 726.971933 385.153459 
L 727.134808 384.996449 
L 727.297683 385.30029 
L 727.623433 385.09915 
L 727.786308 385.188199 
L 727.949183 385.092675 
L 728.112058 385.528847 
L 728.926432 385.614248 
L 729.252182 385.798226 
L 729.415057 385.656804 
L 729.577932 385.771614 
L 729.903682 385.610952 
L 730.066557 385.398922 
L 730.392307 385.441401 
L 730.555182 385.047549 
L 731.043806 384.986456 
L 731.206681 384.781461 
L 731.369556 384.931062 
L 731.532431 384.91141 
L 731.858181 384.645737 
L 732.021056 384.524792 
L 732.183931 384.948717 
L 732.509681 384.967554 
L 732.998306 385.202942 
L 733.16118 384.971565 
L 733.324055 385.389176 
L 733.48693 385.43164 
L 733.649805 385.669844 
L 734.301305 385.632443 
L 734.627055 385.67484 
L 735.930054 385.714538 
L 736.255804 385.140101 
L 736.418679 385.308668 
L 737.070179 384.376619 
L 737.558803 384.355561 
L 738.373178 384.41847 
L 738.536053 384.361587 
L 738.698928 384.706577 
L 738.861803 383.794579 
L 739.187553 383.785902 
L 739.839052 384.3353 
L 740.164802 384.987707 
L 740.327677 384.998508 
L 740.490552 385.920875 
L 740.816302 385.96401 
L 740.979177 385.949286 
L 741.142052 386.210155 
L 741.304927 386.194783 
L 741.467802 385.907136 
L 741.793551 385.874477 
L 741.956426 385.574268 
L 742.445051 385.49603 
L 742.933676 384.989225 
L 743.096551 385.277329 
L 743.422301 385.173941 
L 743.585176 385.45935 
L 743.910926 385.46458 
L 744.0738 385.468999 
L 744.39955 385.859721 
L 744.7253 385.963506 
L 745.3768 385.572509 
L 745.865425 384.672201 
L 746.191174 384.684484 
L 746.354049 384.674902 
L 746.842674 383.684524 
L 747.005549 383.624055 
L 747.331299 384.417333 
L 747.494174 384.389992 
L 747.657049 384.039392 
L 747.819924 384.024698 
L 747.982799 383.250588 
L 748.145674 383.75861 
L 748.308548 384.676369 
L 748.634298 384.562071 
L 748.797173 384.646711 
L 748.960048 384.600043 
L 749.122923 384.732305 
L 749.285798 385.015516 
L 749.448673 385.009183 
L 749.611548 385.504929 
L 749.774423 385.550213 
L 749.937298 385.371754 
L 750.263048 385.59211 
L 750.425923 385.474478 
L 750.588797 384.881547 
L 751.077422 384.95164 
L 751.240297 385.1497 
L 751.403172 384.77007 
L 751.566047 384.930596 
L 751.728922 384.928672 
L 752.054672 384.352583 
L 752.217547 384.744875 
L 752.869046 384.610327 
L 753.031921 384.971986 
L 753.194796 383.640591 
L 753.357671 383.568815 
L 754.009171 384.086876 
L 754.172046 383.95842 
L 754.334921 384.011063 
L 754.497796 383.790927 
L 754.660671 383.789599 
L 754.823545 385.123456 
L 754.98642 384.771391 
L 755.149295 384.934696 
L 755.63792 384.60044 
L 755.800795 384.773296 
L 755.96367 384.760851 
L 756.126545 385.053454 
L 756.452295 385.079482 
L 756.61517 385.511886 
L 756.778045 385.367066 
L 756.940919 385.765777 
L 757.103794 385.77343 
L 757.266669 385.96884 
L 757.429544 385.97428 
L 757.592419 386.143316 
L 757.918169 386.074797 
L 758.569669 386.09523 
L 758.732544 385.467348 
L 759.709793 385.174343 
L 760.198418 384.588489 
L 760.361293 385.21204 
L 760.524168 385.26322 
L 760.687043 384.95126 
L 760.849918 384.939383 
L 761.175668 385.145098 
L 761.338542 385.089815 
L 761.827167 385.819829 
L 761.990042 385.799584 
L 762.152917 385.45764 
L 762.315792 384.799195 
L 762.478667 383.346887 
L 762.641542 383.401232 
L 763.618791 382.840157 
L 763.781666 383.077774 
L 764.107416 385.330832 
L 764.270291 384.257691 
L 764.433166 384.348354 
L 764.596041 384.569314 
L 764.921791 384.57926 
L 765.084666 384.863126 
L 765.247541 384.772623 
L 765.410416 384.429689 
L 765.736165 384.503994 
L 765.89904 384.967532 
L 766.061915 384.944908 
L 766.22479 384.597168 
L 766.55054 384.627775 
L 766.87629 384.708803 
L 767.039165 385.083323 
L 767.364915 385.058197 
L 767.52779 385.591468 
L 767.690665 385.479886 
L 767.853539 385.717246 
L 768.016414 384.2761 
L 768.179289 384.124295 
L 768.505039 383.519228 
L 768.830789 383.519004 
L 768.993664 382.500737 
L 769.482289 382.856869 
L 769.645164 384.309693 
L 769.808039 384.490996 
L 769.970913 383.513005 
L 770.296663 383.874737 
L 770.459538 383.938191 
L 770.622413 384.922757 
L 771.273913 384.836989 
L 771.436788 384.610023 
L 771.599663 385.954382 
L 772.414037 385.534334 
L 772.576912 384.775561 
L 772.902662 384.743759 
L 773.065537 384.872186 
L 773.228412 384.830166 
L 773.391287 384.219059 
L 773.554162 384.235314 
L 773.879912 384.427374 
L 774.042787 384.403807 
L 774.205662 385.093669 
L 774.531411 384.251244 
L 774.694286 384.327055 
L 774.857161 383.760056 
L 775.020036 384.446114 
L 775.182911 384.213332 
L 775.508661 384.434319 
L 775.671536 384.345096 
L 775.834411 384.439904 
L 775.997286 385.106298 
L 776.160161 385.171504 
L 776.323036 385.114392 
L 776.48591 385.680307 
L 776.648785 385.082823 
L 776.81166 385.239869 
L 777.13741 385.136592 
L 777.46316 385.262186 
L 777.78891 385.310697 
L 778.11466 385.400573 
L 778.277535 386.027726 
L 778.44041 385.878561 
L 778.929034 385.80546 
L 779.091909 385.359217 
L 779.743409 385.330851 
L 779.906284 385.305589 
L 780.069159 385.503233 
L 780.557784 383.490409 
L 780.720659 383.854238 
L 780.883533 383.792788 
L 781.046408 383.200097 
L 781.209283 383.268874 
L 781.372158 382.559383 
L 781.697908 382.539044 
L 782.186533 384.617699 
L 782.512283 384.656449 
L 782.675158 385.173438 
L 782.838033 384.953427 
L 783.000907 385.558873 
L 783.489532 385.334495 
L 783.815282 385.277214 
L 784.303907 385.452974 
L 784.629657 385.794412 
L 784.955407 384.380261 
L 785.118281 384.447477 
L 785.606906 384.207507 
L 785.932656 384.197992 
L 786.258406 383.743002 
L 786.584156 385.149907 
L 786.747031 385.139534 
L 787.235655 385.398345 
L 787.39853 384.783431 
L 787.561405 384.769069 
L 787.72428 382.602861 
L 787.887155 382.605932 
L 788.05003 382.774255 
L 788.212905 382.497097 
L 788.37578 382.541486 
L 788.70153 382.432641 
L 788.864405 382.446714 
L 789.02728 383.064997 
L 789.190155 382.855255 
L 789.35303 385.249323 
L 789.515904 385.47689 
L 789.678779 385.426884 
L 789.841654 385.720704 
L 790.004529 385.680431 
L 790.167404 385.839076 
L 790.656029 385.73706 
L 790.818904 385.95855 
L 791.144654 385.804725 
L 791.633278 385.715941 
L 791.796153 385.769377 
L 792.121903 385.644666 
L 792.447653 385.706354 
L 792.610528 385.661639 
L 793.099153 385.986758 
L 793.424903 385.993985 
L 793.587778 386.163199 
L 793.750652 386.159151 
L 793.913527 385.585783 
L 794.076402 385.574399 
L 794.239277 385.744831 
L 794.890777 385.644657 
L 795.216527 385.109551 
L 795.379402 384.949732 
L 795.542277 385.131316 
L 796.519526 385.083491 
L 796.682401 385.050501 
L 797.008151 385.353289 
L 797.171026 385.713072 
L 797.333901 385.679357 
L 797.496776 385.292915 
L 797.659651 385.222229 
L 797.822526 384.890777 
L 798.148275 385.053589 
L 798.31115 385.397278 
L 798.474025 385.463382 
L 798.799775 385.243285 
L 798.96265 385.271991 
L 799.125525 385.602467 
L 799.2884 385.615602 
L 799.451275 385.932668 
L 799.61415 385.910603 
L 799.9399 385.668408 
L 800.102775 385.645336 
L 800.428524 385.794129 
L 800.591399 385.72808 
L 800.917149 385.827438 
L 801.242899 385.850142 
L 801.731524 386.101374 
L 801.894399 386.150163 
L 802.220149 386.109561 
L 802.871648 385.916487 
L 803.197398 385.56725 
L 803.360273 385.487842 
L 803.523148 385.114199 
L 803.848898 385.284537 
L 804.011773 385.17386 
L 804.500398 385.337448 
L 804.663272 385.59212 
L 804.989022 385.524349 
L 805.477647 384.905605 
L 805.803397 384.994748 
L 806.454897 384.689728 
L 806.617772 384.785034 
L 806.943521 385.519769 
L 807.106396 385.385061 
L 807.920771 385.576887 
L 808.083646 385.860413 
L 808.735146 386.151146 
L 808.89802 385.594708 
L 809.22377 385.559017 
L 809.87527 385.448026 
L 810.20102 385.598046 
L 810.363895 385.271239 
L 810.689645 385.577468 
L 811.015394 385.389521 
L 811.178269 385.381509 
L 811.341144 385.254379 
L 811.829769 384.581845 
L 811.992644 384.850971 
L 812.155519 384.864451 
L 812.807019 384.267218 
L 812.969894 383.711619 
L 813.295643 383.923732 
L 813.621393 383.320908 
L 814.110018 383.955663 
L 814.272893 383.697008 
L 814.435768 383.918737 
L 814.598643 384.576366 
L 814.924393 384.684867 
L 815.250143 385.629113 
L 815.413017 385.228498 
L 815.901642 385.191995 
L 816.553142 385.233017 
L 816.716017 384.964975 
L 816.878892 384.938068 
L 817.041767 385.061514 
L 817.204642 384.145473 
L 817.367517 384.153973 
L 817.530391 384.551975 
L 817.693266 384.483236 
L 817.856141 383.838671 
L 818.019016 383.847349 
L 818.181891 383.716639 
L 818.344766 383.964161 
L 818.507641 383.84628 
L 818.670516 383.913133 
L 818.833391 384.779057 
L 818.996266 384.686236 
L 819.159141 384.369462 
L 819.322016 384.303409 
L 819.484891 384.931623 
L 819.647766 384.946964 
L 819.973515 384.802792 
L 820.299265 384.899788 
L 820.625015 384.869343 
L 820.78789 385.223822 
L 820.950765 385.197051 
L 821.276515 384.934846 
L 821.602265 385.183783 
L 821.928014 385.299186 
L 822.090889 384.858837 
L 822.416639 384.947758 
L 822.579514 385.116268 
L 822.742389 384.926602 
L 823.393889 385.031858 
L 823.556764 385.228748 
L 823.719639 385.699496 
L 824.208263 385.553137 
L 824.371138 386.007285 
L 824.696888 385.889901 
L 825.999888 386.085775 
L 826.162762 385.322717 
L 826.325637 385.203718 
L 826.488512 384.366064 
L 827.140012 384.051239 
L 827.628637 384.11035 
L 827.791512 384.905519 
L 827.954387 385.042859 
L 828.117262 385.674661 
L 828.443011 385.719872 
L 828.605886 385.265366 
L 828.768761 385.300778 
L 829.257386 384.80711 
L 829.746011 384.827832 
L 829.908886 384.070397 
L 830.071761 384.106127 
L 830.234636 384.579737 
L 830.397511 384.517406 
L 830.560385 384.700607 
L 830.72326 384.540173 
L 830.886135 384.688699 
L 831.37476 384.219592 
L 831.537635 384.673144 
L 831.70051 384.699342 
L 831.863385 384.496135 
L 832.189135 384.514968 
L 832.514885 384.775922 
L 832.840634 384.914956 
L 833.166384 385.75536 
L 833.329259 385.756653 
L 833.655009 386.058108 
L 833.817884 386.001233 
L 833.980759 386.14082 
L 834.143634 386.026201 
L 834.306509 386.138279 
L 834.795134 386.000052 
L 835.935258 386.131561 
L 836.423883 386.241818 
L 836.586758 386.224347 
L 836.912508 385.698812 
L 837.238257 385.684648 
L 837.401132 383.97588 
L 837.726882 383.997108 
L 837.889757 383.580344 
L 838.215507 383.424065 
L 838.378382 383.801957 
L 838.541257 383.73713 
L 838.867007 383.822133 
L 839.029882 385.427219 
L 839.192756 385.218583 
L 839.355631 385.193414 
L 839.518506 385.645719 
L 839.681381 385.66843 
L 840.007131 384.760729 
L 840.170006 384.910905 
L 840.658631 384.854533 
L 840.821506 385.050458 
L 840.984381 384.971727 
L 841.147256 384.348013 
L 841.31013 384.357238 
L 841.63588 385.197534 
L 841.798755 385.262316 
L 842.124505 384.612436 
L 842.28738 384.621398 
L 842.450255 384.277005 
L 842.61313 384.272187 
L 842.776005 384.834546 
L 843.427505 384.969609 
L 843.753254 385.242 
L 844.567629 385.609625 
L 845.056254 385.619972 
L 845.382004 386.070785 
L 845.544879 385.937819 
L 845.707753 386.090711 
L 847.173628 386.045285 
L 847.336503 386.126932 
L 847.499378 385.852792 
L 847.825127 385.845676 
L 848.476627 385.242273 
L 848.802377 385.251891 
L 848.965252 385.282967 
L 849.128127 385.476747 
L 849.291002 385.281884 
L 849.616752 385.466708 
L 849.779627 385.727791 
L 850.105376 385.670718 
L 851.082626 385.651865 
L 851.408376 385.368903 
L 851.571251 385.597472 
L 851.734126 384.884051 
L 851.897001 384.911702 
L 852.385625 384.412123 
L 852.5485 384.600333 
L 852.711375 384.501721 
L 852.87425 384.657073 
L 853.037125 384.657389 
L 853.037125 384.657389 
" clip-path="url(#p6ce4e9ea29)" style="fill: none; stroke-dasharray: 7.4,3.2; stroke-dashoffset: 0; stroke: #000000; stroke-width: 2"/>
   </g>
   <g id="patch_3">
    <path d="M 41.92 404.12 
L 41.92 10.8 
" style="fill: none; stroke: #000000; stroke-width: 0.8; stroke-linejoin: miter; stroke-linecap: square"/>
   </g>
   <g id="patch_4">
    <path d="M 853.2 404.12 
L 853.2 10.8 
" style="fill: none; stroke: #000000; stroke-width: 0.8; stroke-linejoin: miter; stroke-linecap: square"/>
   </g>
   <g id="patch_5">
    <path d="M 41.92 404.12 
L 853.2 404.12 
" style="fill: none; stroke: #000000; stroke-width: 0.8; stroke-linejoin: miter; stroke-linecap: square"/>
   </g>
   <g id="patch_6">
    <path d="M 41.92 10.8 
L 853.2 10.8 
" style="fill: none; stroke: #000000; stroke-width: 0.8; stroke-linejoin: miter; stroke-linecap: square"/>
   </g>
  </g>
 </g>
 <defs>
  <clipPath id="p6ce4e9ea29">
   <rect x="41.92" y="10.8" width="811.28" height="393.32"/>
  </clipPath>
 </defs>
</svg>
