<?xml version="1.0" encoding="utf-8" standalone="no"?>
<!DOCTYPE svg PUBLIC "-//W3C//DTD SVG 1.1//EN"
  "http://www.w3.org/Graphics/SVG/1.1/DTD/svg11.dtd">
<svg xmlns:xlink="http://www.w3.org/1999/xlink" width="864pt" height="432pt" viewBox="0 0 864 432" xmlns="http://www.w3.org/2000/svg" version="1.1">
 <metadata>
  <rdf:RDF xmlns:dc="http://purl.org/dc/elements/1.1/" xmlns:cc="http://creativecommons.org/ns#" xmlns:rdf="http://www.w3.org/1999/02/22-rdf-syntax-ns#">
   <cc:Work>
    <dc:type rdf:resource="http://purl.org/dc/dcmitype/StillImage"/>
    <dc:date>2024-09-19T08:35:10.223184</dc:date>
    <dc:format>image/svg+xml</dc:format>
    <dc:creator>
     <cc:Agent>
      <dc:title>Matplotlib v3.9.2, https://matplotlib.org/</dc:title>
     </cc:Agent>
    </dc:creator>
   </cc:Work>
  </rdf:RDF>
 </metadata>
 <defs>
  <style type="text/css">*{stroke-linejoin: round; stroke-linecap: butt}</style>
 </defs>
 <g id="figure_1">
  <g id="patch_1">
   <path d="M 0 432 
L 864 432 
L 864 0 
L 0 0 
z
" style="fill: #ffffff"/>
  </g>
  <g id="axes_1">
   <g id="patch_2">
    <path d="M 35.89 404.12 
L 853.2 404.12 
L 853.2 10.8 
L 35.89 10.8 
z
" style="fill: #ffffff"/>
   </g>
   <g id="matplotlib.axis_1">
    <g id="xtick_1">
     <g id="line2d_1">
      <defs>
       <path id="mbf49ab1dfe" d="M 0 0 
L 0 3.5 
" style="stroke: #000000; stroke-width: 0.8"/>
      </defs>
      <g>
       <use xlink:href="#mbf49ab1dfe" x="134.90787" y="404.12" style="stroke: #000000; stroke-width: 0.8"/>
      </g>
     </g>
     <g id="text_1">
      <!-- 250 -->
      <g transform="translate(125.877401 418.771563) scale(0.1 -0.1)">
       <defs>
        <path id="DejaVuSansMono-32" d="M 1166 531 
L 3309 531 
L 3309 0 
L 475 0 
L 475 531 
Q 1059 1147 1496 1619 
Q 1934 2091 2100 2284 
Q 2413 2666 2522 2902 
Q 2631 3138 2631 3384 
Q 2631 3775 2401 3997 
Q 2172 4219 1772 4219 
Q 1488 4219 1175 4116 
Q 863 4013 513 3803 
L 513 4441 
Q 834 4594 1145 4672 
Q 1456 4750 1759 4750 
Q 2444 4750 2861 4386 
Q 3278 4022 3278 3431 
Q 3278 3131 3139 2831 
Q 3000 2531 2688 2169 
Q 2513 1966 2180 1606 
Q 1847 1247 1166 531 
z
" transform="scale(0.015625)"/>
        <path id="DejaVuSansMono-35" d="M 647 4666 
L 3009 4666 
L 3009 4134 
L 1222 4134 
L 1222 2988 
Q 1356 3038 1492 3061 
Q 1628 3084 1766 3084 
Q 2491 3084 2916 2656 
Q 3341 2228 3341 1497 
Q 3341 759 2895 334 
Q 2450 -91 1678 -91 
Q 1306 -91 998 -41 
Q 691 9 447 109 
L 447 750 
Q 734 594 1025 517 
Q 1316 441 1619 441 
Q 2141 441 2423 716 
Q 2706 991 2706 1497 
Q 2706 1997 2414 2275 
Q 2122 2553 1600 2553 
Q 1347 2553 1106 2495 
Q 866 2438 647 2322 
L 647 4666 
z
" transform="scale(0.015625)"/>
        <path id="DejaVuSansMono-30" d="M 1509 2344 
Q 1509 2516 1629 2641 
Q 1750 2766 1919 2766 
Q 2094 2766 2219 2641 
Q 2344 2516 2344 2344 
Q 2344 2169 2220 2047 
Q 2097 1925 1919 1925 
Q 1744 1925 1626 2044 
Q 1509 2163 1509 2344 
z
M 1925 4250 
Q 1484 4250 1267 3775 
Q 1050 3300 1050 2328 
Q 1050 1359 1267 884 
Q 1484 409 1925 409 
Q 2369 409 2586 884 
Q 2803 1359 2803 2328 
Q 2803 3300 2586 3775 
Q 2369 4250 1925 4250 
z
M 1925 4750 
Q 2672 4750 3055 4137 
Q 3438 3525 3438 2328 
Q 3438 1134 3055 521 
Q 2672 -91 1925 -91 
Q 1178 -91 797 521 
Q 416 1134 416 2328 
Q 416 3525 797 4137 
Q 1178 4750 1925 4750 
z
" transform="scale(0.015625)"/>
       </defs>
       <use xlink:href="#DejaVuSansMono-32"/>
       <use xlink:href="#DejaVuSansMono-35" x="60.205078"/>
       <use xlink:href="#DejaVuSansMono-30" x="120.410156"/>
      </g>
     </g>
    </g>
    <g id="xtick_2">
     <g id="line2d_2">
      <g>
       <use xlink:href="#mbf49ab1dfe" x="238.051484" y="404.12" style="stroke: #000000; stroke-width: 0.8"/>
      </g>
     </g>
     <g id="text_2">
      <!-- 500 -->
      <g transform="translate(229.021015 418.771563) scale(0.1 -0.1)">
       <use xlink:href="#DejaVuSansMono-35"/>
       <use xlink:href="#DejaVuSansMono-30" x="60.205078"/>
       <use xlink:href="#DejaVuSansMono-30" x="120.410156"/>
      </g>
     </g>
    </g>
    <g id="xtick_3">
     <g id="line2d_3">
      <g>
       <use xlink:href="#mbf49ab1dfe" x="341.195098" y="404.12" style="stroke: #000000; stroke-width: 0.8"/>
      </g>
     </g>
     <g id="text_3">
      <!-- 750 -->
      <g transform="translate(332.16463 418.771563) scale(0.1 -0.1)">
       <defs>
        <path id="DejaVuSansMono-37" d="M 434 4666 
L 3372 4666 
L 3372 4397 
L 1703 0 
L 1044 0 
L 2669 4134 
L 434 4134 
L 434 4666 
z
" transform="scale(0.015625)"/>
       </defs>
       <use xlink:href="#DejaVuSansMono-37"/>
       <use xlink:href="#DejaVuSansMono-35" x="60.205078"/>
       <use xlink:href="#DejaVuSansMono-30" x="120.410156"/>
      </g>
     </g>
    </g>
    <g id="xtick_4">
     <g id="line2d_4">
      <g>
       <use xlink:href="#mbf49ab1dfe" x="444.338713" y="404.12" style="stroke: #000000; stroke-width: 0.8"/>
      </g>
     </g>
     <g id="text_4">
      <!-- 1000 -->
      <g transform="translate(432.298088 418.771563) scale(0.1 -0.1)">
       <defs>
        <path id="DejaVuSansMono-31" d="M 844 531 
L 1825 531 
L 1825 4097 
L 769 3859 
L 769 4434 
L 1819 4666 
L 2450 4666 
L 2450 531 
L 3419 531 
L 3419 0 
L 844 0 
L 844 531 
z
" transform="scale(0.015625)"/>
       </defs>
       <use xlink:href="#DejaVuSansMono-31"/>
       <use xlink:href="#DejaVuSansMono-30" x="60.205078"/>
       <use xlink:href="#DejaVuSansMono-30" x="120.410156"/>
       <use xlink:href="#DejaVuSansMono-30" x="180.615234"/>
      </g>
     </g>
    </g>
    <g id="xtick_5">
     <g id="line2d_5">
      <g>
       <use xlink:href="#mbf49ab1dfe" x="547.482327" y="404.12" style="stroke: #000000; stroke-width: 0.8"/>
      </g>
     </g>
     <g id="text_5">
      <!-- 1250 -->
      <g transform="translate(535.441702 418.771563) scale(0.1 -0.1)">
       <use xlink:href="#DejaVuSansMono-31"/>
       <use xlink:href="#DejaVuSansMono-32" x="60.205078"/>
       <use xlink:href="#DejaVuSansMono-35" x="120.410156"/>
       <use xlink:href="#DejaVuSansMono-30" x="180.615234"/>
      </g>
     </g>
    </g>
    <g id="xtick_6">
     <g id="line2d_6">
      <g>
       <use xlink:href="#mbf49ab1dfe" x="650.625941" y="404.12" style="stroke: #000000; stroke-width: 0.8"/>
      </g>
     </g>
     <g id="text_6">
      <!-- 1500 -->
      <g transform="translate(638.585316 418.771563) scale(0.1 -0.1)">
       <use xlink:href="#DejaVuSansMono-31"/>
       <use xlink:href="#DejaVuSansMono-35" x="60.205078"/>
       <use xlink:href="#DejaVuSansMono-30" x="120.410156"/>
       <use xlink:href="#DejaVuSansMono-30" x="180.615234"/>
      </g>
     </g>
    </g>
    <g id="xtick_7">
     <g id="line2d_7">
      <g>
       <use xlink:href="#mbf49ab1dfe" x="753.769556" y="404.12" style="stroke: #000000; stroke-width: 0.8"/>
      </g>
     </g>
     <g id="text_7">
      <!-- 1750 -->
      <g transform="translate(741.728931 418.771563) scale(0.1 -0.1)">
       <use xlink:href="#DejaVuSansMono-31"/>
       <use xlink:href="#DejaVuSansMono-37" x="60.205078"/>
       <use xlink:href="#DejaVuSansMono-35" x="120.410156"/>
       <use xlink:href="#DejaVuSansMono-30" x="180.615234"/>
      </g>
     </g>
    </g>
   </g>
   <g id="matplotlib.axis_2">
    <g id="ytick_1">
     <g id="line2d_8">
      <defs>
       <path id="m722eb76d17" d="M 0 0 
L -3.5 0 
" style="stroke: #000000; stroke-width: 0.8"/>
      </defs>
      <g>
       <use xlink:href="#m722eb76d17" x="35.89" y="386.241818" style="stroke: #000000; stroke-width: 0.8"/>
      </g>
     </g>
     <g id="text_8">
      <!-- 0.0 -->
      <g transform="translate(10.829063 390.067599) scale(0.1 -0.1)">
       <defs>
        <path id="DejaVuSansMono-2e" d="M 1528 953 
L 2316 953 
L 2316 0 
L 1528 0 
L 1528 953 
z
" transform="scale(0.015625)"/>
       </defs>
       <use xlink:href="#DejaVuSansMono-30"/>
       <use xlink:href="#DejaVuSansMono-2e" x="60.205078"/>
       <use xlink:href="#DejaVuSansMono-30" x="120.410156"/>
      </g>
     </g>
    </g>
    <g id="ytick_2">
     <g id="line2d_9">
      <g>
       <use xlink:href="#m722eb76d17" x="35.89" y="314.314259" style="stroke: #000000; stroke-width: 0.8"/>
      </g>
     </g>
     <g id="text_9">
      <!-- 0.2 -->
      <g transform="translate(10.829063 318.140041) scale(0.1 -0.1)">
       <use xlink:href="#DejaVuSansMono-30"/>
       <use xlink:href="#DejaVuSansMono-2e" x="60.205078"/>
       <use xlink:href="#DejaVuSansMono-32" x="120.410156"/>
      </g>
     </g>
    </g>
    <g id="ytick_3">
     <g id="line2d_10">
      <g>
       <use xlink:href="#m722eb76d17" x="35.89" y="242.386701" style="stroke: #000000; stroke-width: 0.8"/>
      </g>
     </g>
     <g id="text_10">
      <!-- 0.4 -->
      <g transform="translate(10.829063 246.212482) scale(0.1 -0.1)">
       <defs>
        <path id="DejaVuSansMono-34" d="M 2297 4091 
L 825 1625 
L 2297 1625 
L 2297 4091 
z
M 2194 4666 
L 2925 4666 
L 2925 1625 
L 3547 1625 
L 3547 1113 
L 2925 1113 
L 2925 0 
L 2297 0 
L 2297 1113 
L 319 1113 
L 319 1709 
L 2194 4666 
z
" transform="scale(0.015625)"/>
       </defs>
       <use xlink:href="#DejaVuSansMono-30"/>
       <use xlink:href="#DejaVuSansMono-2e" x="60.205078"/>
       <use xlink:href="#DejaVuSansMono-34" x="120.410156"/>
      </g>
     </g>
    </g>
    <g id="ytick_4">
     <g id="line2d_11">
      <g>
       <use xlink:href="#m722eb76d17" x="35.89" y="170.459142" style="stroke: #000000; stroke-width: 0.8"/>
      </g>
     </g>
     <g id="text_11">
      <!-- 0.6 -->
      <g transform="translate(10.829063 174.284923) scale(0.1 -0.1)">
       <defs>
        <path id="DejaVuSansMono-36" d="M 3097 4563 
L 3097 3981 
Q 2900 4097 2678 4158 
Q 2456 4219 2216 4219 
Q 1616 4219 1306 3767 
Q 997 3316 997 2438 
Q 1147 2750 1412 2917 
Q 1678 3084 2022 3084 
Q 2697 3084 3067 2670 
Q 3438 2256 3438 1497 
Q 3438 741 3056 325 
Q 2675 -91 1984 -91 
Q 1172 -91 794 492 
Q 416 1075 416 2328 
Q 416 3509 870 4129 
Q 1325 4750 2188 4750 
Q 2419 4750 2650 4701 
Q 2881 4653 3097 4563 
z
M 1972 2591 
Q 1569 2591 1337 2300 
Q 1106 2009 1106 1497 
Q 1106 984 1337 693 
Q 1569 403 1972 403 
Q 2391 403 2603 679 
Q 2816 956 2816 1497 
Q 2816 2041 2603 2316 
Q 2391 2591 1972 2591 
z
" transform="scale(0.015625)"/>
       </defs>
       <use xlink:href="#DejaVuSansMono-30"/>
       <use xlink:href="#DejaVuSansMono-2e" x="60.205078"/>
       <use xlink:href="#DejaVuSansMono-36" x="120.410156"/>
      </g>
     </g>
    </g>
    <g id="ytick_5">
     <g id="line2d_12">
      <g>
       <use xlink:href="#m722eb76d17" x="35.89" y="98.531583" style="stroke: #000000; stroke-width: 0.8"/>
      </g>
     </g>
     <g id="text_12">
      <!-- 0.8 -->
      <g transform="translate(10.829063 102.357364) scale(0.1 -0.1)">
       <defs>
        <path id="DejaVuSansMono-38" d="M 1925 2216 
Q 1503 2216 1273 1980 
Q 1044 1744 1044 1313 
Q 1044 881 1276 642 
Q 1509 403 1925 403 
Q 2350 403 2579 639 
Q 2809 875 2809 1313 
Q 2809 1741 2576 1978 
Q 2344 2216 1925 2216 
z
M 1375 2478 
Q 972 2581 745 2862 
Q 519 3144 519 3541 
Q 519 4097 897 4423 
Q 1275 4750 1925 4750 
Q 2578 4750 2956 4423 
Q 3334 4097 3334 3541 
Q 3334 3144 3107 2862 
Q 2881 2581 2478 2478 
Q 2947 2375 3195 2062 
Q 3444 1750 3444 1253 
Q 3444 622 3041 265 
Q 2638 -91 1925 -91 
Q 1213 -91 811 264 
Q 409 619 409 1247 
Q 409 1747 657 2061 
Q 906 2375 1375 2478 
z
M 1147 3481 
Q 1147 3106 1347 2909 
Q 1547 2713 1925 2713 
Q 2306 2713 2506 2909 
Q 2706 3106 2706 3481 
Q 2706 3863 2507 4063 
Q 2309 4263 1925 4263 
Q 1547 4263 1347 4061 
Q 1147 3859 1147 3481 
z
" transform="scale(0.015625)"/>
       </defs>
       <use xlink:href="#DejaVuSansMono-30"/>
       <use xlink:href="#DejaVuSansMono-2e" x="60.205078"/>
       <use xlink:href="#DejaVuSansMono-38" x="120.410156"/>
      </g>
     </g>
    </g>
    <g id="ytick_6">
     <g id="line2d_13">
      <g>
       <use xlink:href="#m722eb76d17" x="35.89" y="26.604024" style="stroke: #000000; stroke-width: 0.8"/>
      </g>
     </g>
     <g id="text_13">
      <!-- 1.0 -->
      <g transform="translate(10.829063 30.429806) scale(0.1 -0.1)">
       <use xlink:href="#DejaVuSansMono-31"/>
       <use xlink:href="#DejaVuSansMono-2e" x="60.205078"/>
       <use xlink:href="#DejaVuSansMono-30" x="120.410156"/>
      </g>
     </g>
    </g>
   </g>
   <g id="line2d_14">
    <path d="M 35.477426 352.943367 
L 35.89 351.315826 
L 36.302574 343.071165 
L 36.715149 332.533227 
L 37.127723 329.818048 
L 37.540298 320.227706 
L 37.952872 317.692831 
L 38.365447 309.022992 
L 38.778021 309.585025 
L 39.190596 307.941193 
L 39.60317 298.714381 
L 40.428319 294.099818 
L 40.840893 293.964635 
L 41.253468 288.164025 
L 41.666042 287.140056 
L 42.078617 297.586964 
L 42.491191 294.758179 
L 43.31634 311.484976 
L 43.728915 312.767933 
L 44.141489 319.325144 
L 45.379213 349.726149 
L 45.791787 350.260646 
L 46.204361 341.972695 
L 46.616936 343.024412 
L 47.02951 344.507454 
L 47.442085 346.562527 
L 47.854659 355.863505 
L 48.267234 353.266049 
L 48.679808 346.415805 
L 49.092383 344.191242 
L 49.504957 338.592091 
L 50.330106 356.959854 
L 50.74268 361.241542 
L 51.980404 361.241542 
L 52.392978 365.40264 
L 52.805553 371.533609 
L 53.218127 373.758172 
L 53.630702 379.357323 
L 54.043276 379.357323 
L 54.455851 368.568189 
L 54.868425 374.733408 
L 55.280999 368.697529 
L 55.693574 368.697529 
L 56.106148 358.247677 
L 56.518723 358.247677 
L 56.931297 358.966952 
L 57.343872 358.966952 
L 57.756446 348.371814 
L 58.169021 347.563639 
L 58.581595 358.352773 
L 58.99417 347.905866 
L 59.406744 353.941745 
L 59.819319 343.295921 
L 60.231893 352.247283 
L 60.644467 352.247283 
L 61.057042 345.587324 
L 61.469616 335.140416 
L 61.882191 345.735555 
L 62.294765 335.263849 
L 62.70734 335.263849 
L 63.119914 342.762905 
L 63.532489 332.315998 
L 63.945063 342.961822 
L 64.357638 334.204483 
L 64.770212 331.56494 
L 65.595361 331.453682 
L 66.007935 320.487148 
L 66.42051 325.10707 
L 67.245659 306.56486 
L 67.658233 306.06917 
L 68.070808 305.319925 
L 68.483382 305.128848 
L 68.895957 307.768391 
L 69.308531 314.48163 
L 69.721106 324.986514 
L 70.13368 328.405094 
L 70.546254 324.675517 
L 70.958829 324.116849 
L 71.371403 329.47409 
L 71.783978 329.95231 
L 72.196552 329.944423 
L 72.609127 336.83056 
L 73.434276 336.83056 
L 74.259425 329.896557 
L 74.671999 333.607107 
L 75.084573 344.590057 
L 75.497148 339.8815 
L 75.909722 350.345878 
L 76.322297 350.321189 
L 76.734871 353.881959 
L 77.147446 348.553991 
L 77.56002 348.553991 
L 77.972595 352.441967 
L 78.797744 364.509652 
L 79.210318 364.509652 
L 79.622892 374.926746 
L 80.035467 374.926746 
L 80.448041 375.708567 
L 80.860616 375.708567 
L 81.27319 381.036534 
L 82.098339 381.036534 
L 82.510914 386.241818 
L 83.748637 386.241818 
L 84.161212 383.946258 
L 85.398935 383.946258 
L 85.811509 372.562039 
L 87.874382 372.562039 
L 88.286956 374.857599 
L 89.524679 374.857599 
L 89.937254 376.038141 
L 90.349828 376.038141 
L 90.762403 371.621536 
L 92.000126 371.621536 
L 92.412701 367.901145 
L 93.650424 367.901145 
L 94.062998 371.300865 
L 94.475573 371.300865 
L 94.888147 365.004854 
L 95.713296 344.117819 
L 96.125871 338.232837 
L 96.538445 341.953228 
L 96.95102 332.886728 
L 97.776169 332.886728 
L 98.188743 333.59513 
L 98.601318 333.59513 
L 99.839041 364.429593 
L 100.251615 370.314575 
L 100.66419 370.314575 
L 101.076764 379.381075 
L 101.901913 356.571019 
L 102.314488 352.736278 
L 103.139637 352.736278 
L 103.552211 342.966621 
L 103.964785 342.966621 
L 104.37736 332.254006 
L 104.789934 329.014026 
L 105.202509 323.686058 
L 105.615083 325.100019 
L 106.027658 335.922147 
L 106.440232 334.945396 
L 107.265381 323.660521 
L 107.677956 334.195365 
L 108.09053 334.195365 
L 108.503104 344.90798 
L 108.915679 348.14796 
L 109.328253 353.475928 
L 109.740828 364.049894 
L 110.153402 364.049894 
L 110.565977 374.956943 
L 110.978551 375.137212 
L 111.391126 379.932383 
L 111.8037 377.837406 
L 113.041424 377.837406 
L 113.453998 377.020047 
L 113.866572 365.631517 
L 114.691721 365.631517 
L 115.104296 371.940952 
L 115.51687 371.940952 
L 115.929445 374.03593 
L 117.167168 374.03593 
L 117.579743 370.234087 
L 117.992317 381.622617 
L 119.642615 381.622617 
L 120.055189 375.388896 
L 120.467764 373.187031 
L 121.292913 373.187031 
L 121.705487 375.485989 
L 122.118062 365.548628 
L 122.530636 365.548628 
L 123.768359 335.002898 
L 124.180934 330.384392 
L 124.593508 329.765568 
L 125.006083 329.765568 
L 125.418657 323.725848 
L 125.831232 314.666073 
L 126.243806 323.786075 
L 126.656381 323.094464 
L 128.306678 362.196862 
L 128.719253 365.01755 
L 129.131827 365.01755 
L 129.544402 370.239911 
L 129.956976 381.61993 
L 130.782125 383.128899 
L 131.1947 383.128899 
L 131.607274 379.057528 
L 132.019849 379.057528 
L 132.432423 381.353089 
L 133.257572 381.353089 
L 133.670146 376.285465 
L 135.320444 376.285465 
L 135.733019 380.356836 
L 136.145593 379.539477 
L 136.558168 367.916522 
L 136.970742 367.916522 
L 137.383317 360.452341 
L 137.795891 361.058237 
L 138.208465 356.641633 
L 139.033614 335.551993 
L 139.446189 335.551993 
L 139.858763 322.90024 
L 140.271338 319.829623 
L 140.683912 331.452578 
L 141.096487 318.48889 
L 141.509061 316.781101 
L 141.921636 312.713668 
L 142.33421 309.871528 
L 143.159359 330.961167 
L 143.571933 330.961167 
L 143.984508 343.61292 
L 144.397082 347.500896 
L 144.809657 336.435119 
L 145.222231 338.309974 
L 145.634806 336.190991 
L 146.459955 328.747239 
L 146.872529 324.961579 
L 147.285103 324.162384 
L 147.697678 321.890987 
L 148.110252 321.890987 
L 148.522827 310.424274 
L 148.935401 310.057858 
L 149.347976 320.373275 
L 149.76055 322.282375 
L 150.173125 332.432236 
L 150.998274 327.53665 
L 151.410848 311.521611 
L 151.823423 300.362551 
L 152.235997 286.158369 
L 152.648571 285.115941 
L 153.061146 281.532954 
L 153.47372 282.306369 
L 153.886295 288.01845 
L 154.298869 276.582416 
L 154.711444 289.450191 
L 155.124018 285.263663 
L 155.536593 300.514255 
L 155.949167 311.573473 
L 156.361742 325.777655 
L 157.18689 343.514236 
L 157.599465 326.749166 
L 158.012039 318.164614 
L 158.424614 328.439503 
L 158.837188 320.58187 
L 159.249763 321.240821 
L 159.662337 304.740465 
L 160.074912 295.668682 
L 160.487486 295.668682 
L 161.312635 272.583356 
L 161.725209 276.137242 
L 162.137784 271.451101 
L 163.375507 244.644813 
L 163.788082 246.766105 
L 164.200656 240.859764 
L 164.613231 231.023518 
L 165.025805 229.454992 
L 165.43838 229.056472 
L 165.850954 224.144174 
L 166.263529 222.91737 
L 166.676103 218.942563 
L 167.088677 217.081289 
L 167.501252 217.292841 
L 167.913826 219.264007 
L 168.326401 226.606057 
L 168.738975 224.76176 
L 169.15155 225.070869 
L 169.564124 223.302998 
L 170.389273 226.53036 
L 170.801848 224.051037 
L 171.214422 229.934793 
L 171.626996 227.514939 
L 172.039571 226.182742 
L 172.452145 230.603448 
L 172.86472 221.99673 
L 173.277294 221.290087 
L 173.689869 219.709819 
L 174.515018 211.337225 
L 174.927592 215.856673 
L 175.340167 213.721559 
L 175.752741 213.10626 
L 176.165315 208.403655 
L 176.57789 190.973443 
L 176.990464 191.314408 
L 177.403039 189.380629 
L 177.815613 186.869269 
L 178.228188 189.09752 
L 178.640762 186.936664 
L 179.053337 183.915707 
L 179.465911 186.95087 
L 180.29106 181.620938 
L 180.703635 180.788093 
L 181.116209 179.530313 
L 181.941358 175.131998 
L 182.353932 173.589963 
L 182.766507 171.148314 
L 183.179081 166.215228 
L 183.591656 154.987267 
L 184.00423 155.215311 
L 184.416805 154.021943 
L 184.829379 156.183525 
L 185.654528 150.324201 
L 186.067102 150.81859 
L 186.479677 143.110089 
L 186.892251 143.953097 
L 187.304826 139.695441 
L 187.7174 136.762413 
L 188.542549 133.341312 
L 189.367698 128.003582 
L 189.780273 126.526574 
L 190.192847 123.934788 
L 190.605422 124.01602 
L 191.017996 120.694326 
L 191.843145 124.490892 
L 192.255719 123.724828 
L 192.668294 120.663537 
L 193.080868 118.726905 
L 193.493443 118.461012 
L 193.906017 118.566492 
L 194.318592 118.142735 
L 194.731166 119.417335 
L 195.143741 120.035003 
L 195.968889 116.800596 
L 196.381464 113.098748 
L 196.794038 119.0139 
L 197.206613 117.737124 
L 197.619187 116.84059 
L 198.031762 116.813775 
L 198.444336 116.019978 
L 199.269485 111.058628 
L 199.68206 106.995449 
L 200.507208 104.245804 
L 200.919783 95.511719 
L 201.744932 93.349213 
L 202.157506 91.333717 
L 202.570081 87.978904 
L 202.982655 89.147275 
L 203.39523 91.774025 
L 204.220379 93.573248 
L 204.632953 97.013821 
L 205.045528 103.116892 
L 205.458102 102.476658 
L 205.870676 100.826191 
L 206.283251 99.665091 
L 207.1084 101.020919 
L 207.520974 95.026955 
L 207.933549 94.612355 
L 208.346123 90.837761 
L 208.758698 88.285896 
L 209.171272 82.662877 
L 209.583847 78.728016 
L 209.996421 75.928584 
L 210.408995 76.371321 
L 210.82157 76.066755 
L 211.234144 71.385226 
L 211.646719 72.09103 
L 213.297017 63.90778 
L 213.709591 64.849525 
L 214.122166 68.24753 
L 214.947314 61.881701 
L 215.359889 60.816718 
L 215.772463 60.999463 
L 216.185038 61.853682 
L 217.835336 61.670127 
L 218.24791 58.614274 
L 218.660485 60.820244 
L 219.073059 63.926358 
L 219.485634 63.808008 
L 219.898208 63.208084 
L 220.310782 63.226177 
L 220.723357 66.412736 
L 221.135931 67.133006 
L 221.548506 66.242561 
L 221.96108 65.725504 
L 222.373655 65.725504 
L 223.198804 59.79089 
L 223.611378 62.047321 
L 224.436527 59.753643 
L 224.849101 56.376173 
L 225.261676 54.41932 
L 226.086825 55.21476 
L 226.499399 54.130969 
L 226.911974 56.064073 
L 227.324548 56.293398 
L 227.737123 52.309939 
L 228.149697 55.263703 
L 228.562272 54.45795 
L 228.974846 54.815234 
L 229.38742 56.102548 
L 229.799995 56.383116 
L 230.625144 59.642256 
L 231.037718 57.665888 
L 231.450293 58.017238 
L 231.862867 59.609316 
L 232.275442 56.24918 
L 232.688016 58.228382 
L 233.100591 57.66191 
L 233.513165 56.122692 
L 233.92574 56.151489 
L 234.338314 54.30894 
L 234.750888 56.888515 
L 235.163463 61.467258 
L 235.576037 60.303127 
L 236.401186 60.420864 
L 237.226335 57.703172 
L 237.63891 57.224691 
L 238.051484 57.868403 
L 238.464059 56.941239 
L 239.289207 47.407531 
L 240.114356 48.169969 
L 240.526931 48.087275 
L 240.939505 47.852908 
L 241.35208 49.686133 
L 242.177229 49.060184 
L 242.589803 48.51004 
L 243.002378 49.817261 
L 243.414952 48.717672 
L 243.827527 49.00881 
L 244.240101 47.87951 
L 244.652675 47.707606 
L 245.06525 46.823719 
L 245.477824 47.554329 
L 245.890399 47.890361 
L 246.302973 47.2272 
L 246.715548 47.631287 
L 247.128122 46.972612 
L 247.540697 49.617668 
L 247.953271 49.347912 
L 248.365846 48.634348 
L 249.190994 46.824287 
L 249.603569 45.017116 
L 250.016143 46.008457 
L 250.428718 45.245592 
L 250.841292 44.241082 
L 251.253867 45.900124 
L 251.666441 43.255068 
L 252.079016 43.911305 
L 252.49159 45.936434 
L 252.904165 46.376802 
L 253.316739 45.774414 
L 253.729313 46.311645 
L 254.141888 44.539606 
L 254.554462 43.741253 
L 254.967037 44.745763 
L 255.379611 43.609198 
L 255.792186 43.833402 
L 256.617335 40.535982 
L 257.029909 40.095614 
L 257.442484 40.095614 
L 258.680207 45.642869 
L 259.092781 49.017001 
L 259.505356 50.695118 
L 260.330505 51.086209 
L 260.743079 52.500933 
L 261.155654 53.384747 
L 261.568228 57.169561 
L 261.980803 55.335799 
L 262.393377 54.253197 
L 262.805952 52.154575 
L 263.218526 47.596374 
L 263.6311 45.471471 
L 264.043675 45.663457 
L 264.456249 46.727402 
L 264.868824 45.538285 
L 265.281398 47.381486 
L 265.693973 45.370608 
L 266.106547 45.501565 
L 266.519122 46.556548 
L 266.931696 46.95145 
L 267.344271 48.460548 
L 267.756845 50.626426 
L 268.169419 51.399274 
L 268.581994 51.072012 
L 269.407143 49.337901 
L 269.819717 48.789881 
L 270.232292 48.943222 
L 270.644866 47.467607 
L 271.057441 47.836171 
L 271.470015 46.308065 
L 271.88259 43.38147 
L 272.295164 42.279542 
L 272.707739 41.518824 
L 273.120313 41.518824 
L 273.532887 40.019175 
L 273.945462 39.221181 
L 274.770611 39.479007 
L 275.183185 39.304586 
L 275.59576 40.121946 
L 276.008334 41.491995 
L 276.420909 42.07225 
L 276.833483 43.571899 
L 277.246058 44.051825 
L 277.658632 43.832464 
L 278.071206 43.390449 
L 278.483781 41.995492 
L 278.896355 41.822646 
L 279.721504 42.223283 
L 280.134079 40.643057 
L 280.546653 40.062802 
L 280.959228 38.957911 
L 281.371802 38.704998 
L 281.784377 42.046491 
L 282.196951 42.944397 
L 282.609525 42.731881 
L 283.0221 44.370619 
L 283.434674 44.389847 
L 283.847249 45.455861 
L 284.259823 47.907937 
L 284.672398 48.060922 
L 285.084972 47.643203 
L 285.497547 47.843836 
L 285.910121 44.948718 
L 286.73527 44.645498 
L 287.147845 43.439547 
L 287.972993 41.654527 
L 288.385568 41.777899 
L 288.798142 41.41962 
L 289.210717 42.391076 
L 289.623291 42.358188 
L 290.035866 43.703431 
L 290.44844 44.081279 
L 290.861015 45.808307 
L 291.273589 45.952454 
L 291.686164 47.680504 
L 292.098738 47.203826 
L 293.336461 50.303222 
L 293.749036 52.627152 
L 294.16161 51.534823 
L 294.574185 51.156976 
L 294.986759 49.589325 
L 295.399334 48.799729 
L 295.811908 46.875871 
L 296.224483 47.697902 
L 296.637057 44.218356 
L 297.049631 44.030578 
L 297.462206 42.778065 
L 297.87478 39.8492 
L 298.287355 38.755115 
L 298.699929 38.853878 
L 299.112504 37.655084 
L 299.525078 38.027124 
L 299.937653 37.809557 
L 300.350227 40.686656 
L 300.762802 41.343464 
L 301.175376 41.79025 
L 301.587951 41.936568 
L 302.000525 42.403631 
L 302.413099 43.662988 
L 302.825674 43.000115 
L 303.238248 44.390979 
L 303.650823 44.630737 
L 304.063397 45.639654 
L 304.475972 41.111528 
L 304.888546 43.878765 
L 305.301121 42.461086 
L 305.713695 42.399363 
L 306.12627 44.26177 
L 306.538844 44.7991 
L 306.951418 46.134105 
L 307.363993 46.359591 
L 307.776567 47.266505 
L 308.189142 46.052093 
L 308.601716 45.860718 
L 309.014291 43.074252 
L 309.426865 45.526328 
L 309.83944 44.450858 
L 310.252014 44.504993 
L 310.664589 43.685791 
L 311.077163 43.332268 
L 311.489738 42.755335 
L 311.902312 41.218044 
L 312.314886 42.432456 
L 312.727461 45.721881 
L 313.140035 45.558 
L 313.55261 43.487358 
L 313.965184 44.438708 
L 314.377759 44.122539 
L 314.790333 43.348197 
L 315.202908 42.946367 
L 315.615482 44.252416 
L 316.028057 44.053798 
L 316.853205 42.878901 
L 317.26578 45.907337 
L 317.678354 45.325064 
L 318.090929 46.82579 
L 318.503503 44.758354 
L 318.916078 44.978201 
L 319.741227 43.870933 
L 320.153801 44.46017 
L 320.566376 46.506263 
L 320.97895 43.990379 
L 321.391524 42.915659 
L 321.804099 43.690001 
L 322.216673 40.833944 
L 322.629248 41.04412 
L 323.041822 44.061015 
L 323.454397 44.615511 
L 323.866971 43.858847 
L 324.279546 44.980297 
L 324.69212 42.749678 
L 325.104695 42.9551 
L 325.517269 39.929939 
L 325.929844 39.356436 
L 326.342418 39.356436 
L 326.754992 43.534183 
L 327.167567 40.49828 
L 327.580141 40.956982 
L 327.992716 42.809319 
L 328.40529 42.650834 
L 329.643014 47.84327 
L 330.055588 51.146759 
L 330.468163 52.331772 
L 330.880737 49.980757 
L 331.293311 51.84155 
L 331.705886 52.33745 
L 332.11846 51.202253 
L 332.531035 49.657016 
L 332.943609 52.239031 
L 333.356184 50.608784 
L 333.768758 49.872101 
L 334.181333 47.005801 
L 334.593907 47.119974 
L 335.006482 45.737908 
L 335.419056 43.877115 
L 335.83163 43.039112 
L 336.244205 42.510532 
L 336.656779 45.319133 
L 337.069354 41.35546 
L 337.481928 42.121348 
L 337.894503 45.90073 
L 338.307077 46.713066 
L 338.719652 46.598893 
L 339.132226 47.626845 
L 339.544801 49.154951 
L 339.957375 48.455663 
L 340.36995 50.587136 
L 340.782524 47.575392 
L 341.195098 48.514018 
L 341.607673 48.074407 
L 342.020247 45.950404 
L 342.432822 44.710273 
L 342.845396 45.509468 
L 343.257971 44.963866 
L 343.670545 43.435761 
L 344.08312 43.643513 
L 344.495694 41.484171 
L 344.908269 41.687314 
L 345.320843 40.559515 
L 345.733417 40.263111 
L 346.145992 38.187106 
L 346.971141 38.983761 
L 347.383715 37.865576 
L 347.79629 38.317525 
L 348.208864 38.54173 
L 348.621439 38.61389 
L 349.034013 38.833736 
L 349.446588 42.156651 
L 349.859162 42.344431 
L 350.684311 43.796462 
L 351.096885 42.646366 
L 351.50946 43.408389 
L 351.922034 43.90779 
L 352.334609 45.814489 
L 352.747183 45.742328 
L 353.159758 45.111469 
L 353.572332 43.282045 
L 353.984907 43.785874 
L 354.397481 43.368156 
L 354.810056 42.651719 
L 355.22263 41.453551 
L 356.047779 39.740178 
L 356.460353 38.228068 
L 356.872928 38.784517 
L 357.285502 40.533562 
L 357.698077 38.822875 
L 358.110651 39.553794 
L 358.523226 38.957896 
L 358.9358 38.971364 
L 359.760949 40.841676 
L 360.173523 41.259857 
L 360.586098 44.76282 
L 361.411247 43.642681 
L 361.823821 44.439529 
L 362.236396 43.561246 
L 362.64897 43.769088 
L 363.886694 41.537311 
L 364.299268 40.913707 
L 364.711843 37.730577 
L 365.536991 36.568461 
L 365.949566 36.388093 
L 366.36214 35.38618 
L 366.774715 37.696942 
L 367.187289 38.77319 
L 367.599864 39.181532 
L 368.837587 42.164903 
L 369.250162 44.742219 
L 369.662736 45.397062 
L 370.07531 45.210441 
L 370.487885 45.388264 
L 370.900459 42.86966 
L 371.313034 41.788713 
L 371.725608 41.16511 
L 372.138183 39.584739 
L 372.550757 39.462757 
L 372.963332 36.679974 
L 373.375906 35.522406 
L 373.788481 34.867564 
L 374.201055 34.645507 
L 374.613629 33.848814 
L 375.026204 34.846539 
L 375.851353 35.654506 
L 376.263927 36.901805 
L 376.676502 37.198208 
L 377.089076 38.020158 
L 377.501651 36.38544 
L 377.914225 38.452875 
L 378.3268 38.44369 
L 378.739374 40.55605 
L 379.151949 40.540509 
L 379.564523 39.937842 
L 379.977097 40.289289 
L 380.389672 39.670474 
L 380.802246 39.288443 
L 381.214821 39.087728 
L 381.627395 39.877843 
L 382.03997 39.65703 
L 382.452544 39.695062 
L 382.865119 38.390745 
L 383.277693 39.140585 
L 383.690268 39.14296 
L 384.102842 37.957605 
L 384.515416 37.744886 
L 384.927991 37.772129 
L 385.340565 37.550073 
L 385.75314 39.379808 
L 386.578289 38.883725 
L 386.990863 38.883725 
L 387.403438 38.133885 
L 387.816012 39.524392 
L 388.228587 41.480642 
L 388.641161 42.247857 
L 389.053735 44.256658 
L 389.46631 44.443874 
L 389.878884 42.031867 
L 390.291459 40.698298 
L 391.116608 42.083468 
L 391.529182 41.528972 
L 391.941757 40.554231 
L 392.354331 39.238679 
L 392.766906 38.875352 
L 393.17948 37.22134 
L 393.592055 37.024938 
L 394.417203 39.642352 
L 394.829778 39.373857 
L 395.242352 38.909971 
L 395.654927 39.328153 
L 396.067501 39.113183 
L 396.480076 40.693981 
L 396.89265 40.079822 
L 397.305225 40.287251 
L 397.717799 40.095597 
L 398.130374 41.631745 
L 398.542948 41.575979 
L 398.955522 41.829362 
L 399.368097 40.968731 
L 399.780671 41.668735 
L 400.193246 43.214609 
L 400.60582 41.604965 
L 401.018395 42.772413 
L 401.430969 42.375022 
L 401.843544 42.763077 
L 402.256118 42.416728 
L 402.668693 40.655047 
L 403.493841 40.616472 
L 403.906416 39.71349 
L 404.31899 39.944582 
L 404.731565 40.518085 
L 405.144139 40.149522 
L 405.556714 42.299136 
L 405.969288 41.703239 
L 406.381863 40.492057 
L 406.794437 42.143084 
L 407.207012 42.201469 
L 407.619586 44.185679 
L 408.032161 44.173524 
L 408.444735 42.406062 
L 408.857309 42.748394 
L 409.269884 42.362885 
L 409.682458 39.861824 
L 410.095033 40.261319 
L 410.507607 39.238507 
L 410.920182 38.612644 
L 411.745331 36.750417 
L 412.157905 36.937037 
L 412.57048 38.473408 
L 412.983054 36.945721 
L 413.395628 36.118968 
L 413.808203 39.360952 
L 414.220777 39.370138 
L 414.633352 39.152941 
L 415.045926 37.9269 
L 415.458501 38.518098 
L 416.28365 38.148467 
L 416.696224 37.478337 
L 417.108799 38.663692 
L 417.521373 39.471867 
L 417.933948 36.229882 
L 418.346522 37.010912 
L 418.759096 37.010912 
L 419.171671 38.763992 
L 419.584245 38.823432 
L 419.99682 39.944882 
L 420.409394 39.299047 
L 420.821969 39.59545 
L 421.234543 39.220514 
L 421.647118 39.867521 
L 422.059692 40.082654 
L 422.472267 40.460295 
L 422.884841 40.268921 
L 423.297415 39.799573 
L 423.70999 39.571924 
L 424.122564 37.459563 
L 424.535139 38.080798 
L 424.947713 37.754522 
L 425.360288 37.147274 
L 426.185437 35.472245 
L 426.598011 35.003676 
L 427.010586 36.16632 
L 427.42316 36.428462 
L 427.835734 40.110156 
L 428.248309 41.690527 
L 428.660883 41.849905 
L 429.073458 41.807618 
L 429.486032 42.789802 
L 430.311181 42.37636 
L 430.723756 41.677072 
L 431.13633 40.719895 
L 431.548905 39.17872 
L 431.961479 36.622319 
L 432.374054 36.683631 
L 432.786628 35.893516 
L 433.199202 36.136436 
L 433.611777 35.553748 
L 434.024351 35.967123 
L 434.436926 35.964748 
L 434.8495 36.547436 
L 435.262075 39.158626 
L 435.674649 39.572001 
L 436.087224 38.822602 
L 436.499798 38.92759 
L 436.912373 41.028013 
L 437.324947 39.572831 
L 438.56267 40.932185 
L 438.975245 40.157843 
L 439.387819 38.378187 
L 439.800394 38.59085 
L 440.212968 38.577382 
L 440.625543 38.276336 
L 441.038117 35.975117 
L 441.450692 36.979693 
L 441.863266 36.304827 
L 442.27584 36.60123 
L 442.688415 37.568675 
L 443.100989 36.952154 
L 443.513564 37.265682 
L 444.751287 35.205403 
L 445.163862 36.061536 
L 445.576436 36.65535 
L 445.989011 36.251301 
L 446.401585 35.083854 
L 446.81416 34.52488 
L 447.226734 35.351633 
L 447.639308 34.001104 
L 448.464457 34.42171 
L 448.877032 33.622642 
L 449.289606 34.271188 
L 449.702181 33.677374 
L 450.114755 34.894161 
L 450.939904 34.887085 
L 451.352479 35.286369 
L 451.765053 36.829848 
L 452.177627 37.007078 
L 452.590202 37.007078 
L 453.002776 37.609744 
L 453.415351 37.665892 
L 453.827925 39.689844 
L 454.2405 38.473057 
L 454.653074 39.788071 
L 455.065649 39.173912 
L 455.478223 38.153383 
L 455.890798 36.801278 
L 456.303372 37.00903 
L 456.715946 40.591326 
L 457.128521 41.023282 
L 457.541095 40.523881 
L 457.95367 37.700861 
L 458.366244 38.119001 
L 458.778819 37.390383 
L 460.016542 39.200793 
L 460.429117 39.224282 
L 460.841691 37.534568 
L 461.254266 36.918086 
L 461.66684 37.283496 
L 462.079414 38.129559 
L 462.491989 38.533447 
L 462.904563 38.556407 
L 463.317138 38.376848 
L 464.142287 39.054193 
L 464.554861 39.213571 
L 464.967436 37.916731 
L 465.38001 37.293082 
L 465.792585 37.612915 
L 466.205159 38.214851 
L 466.617733 38.014068 
L 467.030308 38.719726 
L 467.442882 38.296737 
L 467.855457 38.660063 
L 468.680606 37.866019 
L 469.09318 37.270278 
L 469.505755 38.106646 
L 469.918329 37.37813 
L 470.330904 36.341144 
L 470.743478 36.360597 
L 471.156052 34.627402 
L 471.568627 34.622703 
L 471.981201 34.259377 
L 472.393776 33.19795 
L 472.80635 33.615812 
L 473.218925 34.597681 
L 473.631499 33.966821 
L 474.044074 33.966821 
L 474.456648 35.119011 
L 474.869223 34.882361 
L 475.281797 35.506009 
L 475.694372 37.073362 
L 476.51952 38.831912 
L 476.932095 38.669892 
L 477.344669 37.48018 
L 477.757244 38.314089 
L 478.169818 38.741559 
L 478.582393 37.819055 
L 478.994967 38.225425 
L 479.407542 37.809659 
L 480.232691 35.114617 
L 480.645265 34.283083 
L 481.470414 34.652945 
L 481.882988 34.031711 
L 482.295563 33.195564 
L 482.708137 34.369794 
L 483.120712 33.353867 
L 483.533286 34.72681 
L 483.945861 34.932277 
L 484.358435 34.533098 
L 484.77101 34.325216 
L 485.183584 35.06084 
L 485.596159 36.13673 
L 486.008733 38.396702 
L 486.421307 39.408009 
L 486.833882 38.018518 
L 487.246456 39.30294 
L 487.659031 38.558482 
L 488.896754 40.200387 
L 489.309329 38.652104 
L 489.721903 39.637847 
L 490.134478 37.79606 
L 490.547052 36.598339 
L 490.959626 37.166187 
L 491.372201 36.708518 
L 491.784775 36.923721 
L 492.19735 36.702261 
L 492.609924 36.081015 
L 493.022499 36.648863 
L 493.435073 36.443369 
L 493.847648 34.388864 
L 494.260222 34.360671 
L 494.672797 34.734302 
L 495.497945 33.741082 
L 495.91052 34.270337 
L 496.323094 35.586005 
L 496.735669 36.197857 
L 497.148243 35.407742 
L 497.560818 36.008034 
L 497.973392 35.993942 
L 498.385967 36.675393 
L 498.798541 37.109368 
L 499.211116 39.117213 
L 499.62369 39.772551 
L 500.861413 38.671902 
L 501.273988 40.690227 
L 501.686562 41.948937 
L 502.099137 42.565417 
L 502.924286 41.07636 
L 503.33686 39.835729 
L 503.749435 40.370103 
L 504.162009 40.120131 
L 504.574584 38.992331 
L 504.987158 39.588228 
L 505.812307 36.72906 
L 506.637456 37.383268 
L 507.05003 36.960205 
L 507.462605 35.77485 
L 507.875179 35.567323 
L 508.287754 34.980928 
L 508.700328 35.000381 
L 509.112903 34.813165 
L 509.525477 33.995805 
L 509.938051 34.005198 
L 510.350626 32.723456 
L 510.7632 32.576233 
L 511.175775 32.984871 
L 511.588349 33.596723 
L 512.000924 33.80425 
L 512.413498 33.386069 
L 512.826073 33.567399 
L 513.238647 33.576792 
L 513.651222 33.784675 
L 514.063796 33.766096 
L 514.476371 34.189159 
L 514.888945 33.964341 
L 515.301519 33.34782 
L 515.714094 33.140017 
L 516.126668 32.605643 
L 516.539243 34.186468 
L 516.951817 33.57231 
L 517.364392 33.553731 
L 517.776966 34.182216 
L 518.189541 33.579549 
L 518.602115 34.717314 
L 519.01469 34.098443 
L 519.839838 37.290881 
L 520.664987 38.437934 
L 521.077562 38.634113 
L 521.490136 39.406763 
L 521.902711 39.179953 
L 522.315285 39.990371 
L 522.72786 38.84531 
L 523.140434 39.050804 
L 523.553009 39.83204 
L 523.965583 40.043983 
L 524.378157 39.829029 
L 524.790732 40.83747 
L 525.203306 40.641291 
L 525.615881 39.670022 
L 526.028455 40.124482 
L 526.44103 39.925915 
L 526.853604 40.306843 
L 527.266179 40.945036 
L 528.091328 36.563254 
L 528.503902 35.533381 
L 528.916477 32.79523 
L 529.741625 34.551915 
L 530.1542 33.896578 
L 530.566774 35.399461 
L 530.979349 35.410812 
L 531.391923 34.76792 
L 531.804498 35.966441 
L 532.217072 36.179115 
L 532.629647 36.606804 
L 533.042221 37.424162 
L 533.454796 39.372198 
L 533.86737 38.400929 
L 534.279944 38.200133 
L 534.692519 36.298071 
L 535.105093 35.690823 
L 535.517668 36.32156 
L 535.930242 35.761362 
L 536.342817 36.160541 
L 536.755391 35.947822 
L 537.167966 35.135163 
L 537.58054 33.460535 
L 537.993115 32.850979 
L 538.405689 33.451271 
L 538.818264 33.64961 
L 539.230838 33.654309 
L 539.643412 33.231414 
L 540.055987 33.231414 
L 540.468561 33.02361 
L 541.29371 33.018911 
L 541.706285 32.373462 
L 542.118859 32.983019 
L 542.531434 32.791365 
L 542.944008 33.202381 
L 543.356583 33.412652 
L 543.769157 33.209508 
L 544.181731 33.390838 
L 544.594306 34.91967 
L 545.00688 34.296022 
L 545.832029 35.081026 
L 546.244604 34.47147 
L 546.657178 34.268326 
L 547.069753 33.857311 
L 547.894902 33.869412 
L 548.307476 33.047383 
L 548.72005 31.317673 
L 549.132625 31.731051 
L 549.545199 31.74963 
L 549.957774 32.135758 
L 550.370348 33.187328 
L 550.782923 33.620157 
L 551.608072 33.634581 
L 552.020646 34.280416 
L 552.433221 38.070884 
L 553.25837 39.3039 
L 553.670944 38.68503 
L 554.496093 37.850384 
L 554.908667 37.209685 
L 555.321242 36.987418 
L 556.146391 38.279504 
L 556.558965 36.071783 
L 556.97154 35.457624 
L 557.384114 35.266455 
L 557.796689 35.467251 
L 558.209263 34.268457 
L 558.621837 34.282882 
L 559.034412 35.128944 
L 559.446986 34.928148 
L 559.859561 34.565722 
L 560.272135 33.408414 
L 560.68471 33.25488 
L 561.509859 35.456421 
L 561.922433 35.874496 
L 562.335008 37.143805 
L 562.747582 36.931042 
L 563.160156 36.50312 
L 563.572731 37.299813 
L 563.985305 37.854309 
L 564.39788 37.428871 
L 564.810454 37.392541 
L 565.223029 36.907492 
L 565.635603 35.562352 
L 566.048178 36.504309 
L 566.460752 35.85152 
L 566.873327 35.638847 
L 567.285901 35.220706 
L 567.698476 35.2677 
L 568.11105 34.881413 
L 568.523624 34.881413 
L 568.936199 34.721575 
L 569.348773 34.125678 
L 569.761348 34.525084 
L 570.173922 33.807944 
L 570.586497 33.399305 
L 570.999071 33.607175 
L 571.411646 35.563426 
L 571.82422 34.925233 
L 572.236795 36.08715 
L 572.649369 36.512588 
L 573.061943 35.279544 
L 573.474518 36.069658 
L 573.887092 35.467109 
L 574.299667 34.621046 
L 574.712241 34.413164 
L 575.124816 34.623434 
L 575.53739 33.071233 
L 575.949965 33.274376 
L 576.362539 31.315765 
L 576.775114 31.531026 
L 577.187688 32.780701 
L 577.600262 31.78979 
L 578.012837 32.440429 
L 578.425411 32.648299 
L 578.837986 33.06648 
L 579.25056 34.231085 
L 579.663135 34.6731 
L 580.900858 38.366535 
L 581.313433 37.719527 
L 581.726007 38.319819 
L 582.138582 38.271729 
L 582.551156 40.02011 
L 582.96373 40.218449 
L 583.376305 39.039752 
L 583.788879 38.604702 
L 584.201454 37.068331 
L 584.614028 36.451926 
L 585.026603 35.076608 
L 585.439177 35.92194 
L 585.851752 38.464429 
L 586.264326 37.65401 
L 586.676901 37.490238 
L 587.089475 37.483274 
L 587.502049 37.0816 
L 587.914624 37.282439 
L 588.327198 37.272936 
L 588.739773 37.065251 
L 589.152347 37.490688 
L 589.564922 36.453703 
L 589.977496 33.719561 
L 590.390071 33.721936 
L 590.802645 32.739876 
L 591.21522 32.335827 
L 591.627794 32.536623 
L 592.040369 31.719263 
L 592.452943 31.310584 
L 592.865517 31.114183 
L 593.278092 30.688745 
L 593.690666 31.341534 
L 594.103241 32.458208 
L 594.515815 33.0585 
L 594.92839 33.0585 
L 595.753539 33.469513 
L 596.166113 34.941715 
L 596.578688 35.778083 
L 596.991262 35.593556 
L 597.403836 36.986439 
L 597.816411 36.534489 
L 598.228985 35.432239 
L 598.64156 34.829572 
L 599.054134 36.02371 
L 599.466709 36.441784 
L 599.879283 36.448912 
L 600.291858 34.97671 
L 600.704432 34.34585 
L 601.117007 34.13088 
L 601.529581 33.163436 
L 601.942155 33.172829 
L 602.35473 32.960065 
L 602.767304 33.378206 
L 603.179879 32.004509 
L 604.005028 31.170669 
L 604.417602 32.769059 
L 604.830177 33.173108 
L 605.242751 33.177806 
L 605.655326 33.745655 
L 606.0679 33.970472 
L 606.480475 34.360465 
L 606.893049 34.544991 
L 607.305623 36.386777 
L 607.718198 36.386777 
L 608.130772 36.597076 
L 608.543347 35.806861 
L 609.78107 35.25089 
L 610.193645 35.398113 
L 611.018794 34.192779 
L 611.431368 32.131147 
L 611.843942 31.930351 
L 612.256517 31.512169 
L 613.081666 31.990277 
L 613.49424 32.812306 
L 613.906815 32.824752 
L 614.319389 32.242479 
L 614.731964 33.235765 
L 615.557113 32.831918 
L 615.969687 33.864166 
L 617.20741 34.480389 
L 617.619985 34.069374 
L 618.032559 34.793611 
L 618.445134 34.985265 
L 618.857708 34.802398 
L 619.270283 35.220579 
L 619.682857 36.193261 
L 620.095432 35.957706 
L 620.508006 36.779735 
L 620.920581 36.126946 
L 621.333155 35.921524 
L 621.745729 37.676241 
L 622.158304 36.093495 
L 622.570878 35.908969 
L 622.983453 35.301721 
L 623.396027 36.671794 
L 623.808602 35.694308 
L 624.221176 36.288122 
L 624.633751 36.087339 
L 625.046325 37.632576 
L 625.871474 36.856337 
L 626.284048 37.260386 
L 626.696623 37.045416 
L 627.109197 37.482944 
L 627.521772 36.318338 
L 627.934346 36.722321 
L 628.346921 35.329438 
L 628.759495 35.566701 
L 629.17207 33.823125 
L 629.584644 34.463823 
L 629.997219 32.65127 
L 630.409793 33.10573 
L 631.234942 32.259523 
L 631.647516 32.663411 
L 632.060091 32.259429 
L 632.472665 33.924869 
L 632.88524 35.022611 
L 633.297814 34.812312 
L 633.710389 34.783465 
L 634.122963 35.580159 
L 634.535538 35.324317 
L 634.948112 36.71518 
L 635.360687 36.306501 
L 635.773261 36.306501 
L 636.185835 35.893124 
L 636.59841 34.868382 
L 637.010984 32.914507 
L 637.423559 33.323145 
L 637.836133 32.923967 
L 639.073857 30.339251 
L 639.486431 31.166004 
L 639.899006 30.138468 
L 640.31158 30.343976 
L 640.724154 29.497769 
L 641.549303 30.680333 
L 641.961878 32.689156 
L 642.787027 33.095498 
L 643.199601 33.497172 
L 643.612176 33.083796 
L 644.02475 33.707445 
L 644.849899 34.531836 
L 645.262473 34.763078 
L 645.675048 34.180805 
L 646.087622 32.384746 
L 646.500197 32.592588 
L 646.912771 32.391792 
L 647.325346 31.782236 
L 647.73792 31.777537 
L 648.150495 31.153889 
L 648.563069 31.345542 
L 648.975644 31.137672 
L 649.388218 30.098256 
L 650.213367 30.51391 
L 650.625941 29.897389 
L 651.038516 31.644059 
L 651.45109 32.88419 
L 651.863665 32.681019 
L 652.276239 33.893281 
L 652.688814 33.085106 
L 653.101388 33.687773 
L 653.513963 35.304122 
L 653.926537 36.084104 
L 654.339112 35.866907 
L 655.16426 36.645976 
L 655.576835 35.824027 
L 655.989409 36.228075 
L 656.401984 35.646759 
L 656.814558 36.845552 
L 657.227133 37.236171 
L 657.639707 35.827705 
L 658.052282 35.038109 
L 658.464856 35.255306 
L 658.877431 35.255306 
L 659.290005 33.34844 
L 659.70258 34.129052 
L 660.115154 33.932873 
L 660.527728 35.035123 
L 660.940303 34.672697 
L 661.352877 33.887281 
L 661.765452 35.277788 
L 662.178026 34.864412 
L 663.003175 35.745071 
L 663.41575 35.740372 
L 663.828324 35.963873 
L 664.240899 35.959175 
L 664.653473 34.634658 
L 665.066047 35.204695 
L 665.478622 34.996825 
L 665.891196 34.014956 
L 666.303771 36.630107 
L 666.716345 35.962206 
L 667.541494 35.938712 
L 668.366643 34.944105 
L 668.779218 34.948804 
L 669.191792 34.546976 
L 669.604366 35.149643 
L 670.016941 34.533122 
L 670.429515 32.759143 
L 670.84209 32.759143 
L 671.254664 32.158851 
L 672.079813 32.125959 
L 672.492388 32.534638 
L 672.904962 32.730817 
L 673.317537 31.931748 
L 673.730111 31.96978 
L 674.142686 32.383158 
L 674.55526 31.936784 
L 674.967834 31.728942 
L 675.380409 32.347812 
L 675.792983 32.147016 
L 676.205558 31.338841 
L 676.618132 31.546683 
L 677.030707 32.163164 
L 677.443281 33.021672 
L 677.855856 32.593647 
L 678.681005 33.502724 
L 679.093579 34.145616 
L 679.506153 33.73224 
L 679.918728 33.937735 
L 680.331302 34.547291 
L 680.743877 34.74813 
L 681.156451 35.102919 
L 681.569026 37.308338 
L 681.9816 37.698331 
L 682.394175 39.912871 
L 682.806749 40.226839 
L 683.219324 40.002022 
L 683.631898 40.995049 
L 684.044472 41.621087 
L 684.869621 41.236001 
L 685.282196 40.278824 
L 685.69477 37.836142 
L 686.107345 37.23585 
L 686.519919 34.382986 
L 687.345068 33.217296 
L 687.757643 32.018775 
L 688.170217 31.588915 
L 688.582792 31.378616 
L 688.995366 31.572327 
L 689.40794 31.154187 
L 689.820515 31.154187 
L 690.645664 31.565176 
L 691.058238 30.931787 
L 691.470813 30.929412 
L 691.883387 30.721529 
L 692.295962 30.742918 
L 692.708536 30.948413 
L 693.121111 30.131053 
L 693.533685 29.925545 
L 693.946259 29.944999 
L 694.358834 29.531621 
L 694.771408 31.079904 
L 695.183983 30.869605 
L 696.009132 31.282983 
L 696.421706 32.074333 
L 696.834281 32.277476 
L 697.246855 33.329047 
L 697.65943 33.737725 
L 698.072004 33.50804 
L 698.484578 35.646429 
L 698.897153 33.89265 
L 700.134876 41.128413 
L 700.547451 41.112523 
L 700.960025 41.304176 
L 701.3726 40.670787 
L 701.785174 41.326125 
L 702.197749 40.917486 
L 702.610323 39.818514 
L 703.022898 40.446999 
L 704.260621 35.126589 
L 704.673195 34.35113 
L 705.08577 34.159476 
L 705.498344 34.364943 
L 706.323493 33.910404 
L 706.736068 32.870987 
L 707.148642 32.447998 
L 707.561217 33.059796 
L 707.973791 31.983257 
L 708.386365 32.169672 
L 708.79894 31.538726 
L 709.211514 31.73038 
L 709.624089 31.312239 
L 710.036663 30.702762 
L 710.861812 31.529622 
L 711.274387 33.823195 
L 711.686961 32.384643 
L 712.099536 33.416892 
L 712.51211 33.216053 
L 712.924685 33.216053 
L 713.337259 32.407878 
L 713.749833 32.620552 
L 714.162408 32.620552 
L 714.574982 32.20237 
L 714.987557 32.001574 
L 715.400131 29.918272 
L 715.812706 30.126155 
L 716.22528 28.886024 
L 716.637855 28.678182 
L 717.050429 29.30183 
L 717.463004 29.509713 
L 717.875578 30.482395 
L 718.288152 30.48002 
L 719.113301 31.911712 
L 719.525876 32.694468 
L 719.93845 32.486585 
L 720.351025 34.06741 
L 720.763599 34.476091 
L 721.176174 34.68881 
L 721.588748 35.090484 
L 722.001323 34.117802 
L 722.413897 35.138331 
L 722.826471 34.932864 
L 723.239046 34.533459 
L 723.65162 33.127054 
L 724.064195 33.334937 
L 724.476769 33.038534 
L 724.889344 32.221174 
L 725.301918 32.21156 
L 725.714493 33.922247 
L 726.127067 34.120587 
L 726.539642 33.100058 
L 727.364791 33.095254 
L 727.777365 34.486117 
L 728.189939 35.086409 
L 728.602514 35.014248 
L 729.015088 35.822423 
L 729.427663 35.203553 
L 729.840237 33.296687 
L 730.252812 33.731736 
L 730.665386 33.734111 
L 731.077961 33.528616 
L 731.490535 33.976112 
L 731.90311 32.790756 
L 732.315684 33.237131 
L 732.728258 33.076439 
L 733.140833 33.723447 
L 733.553407 33.928942 
L 733.965982 33.721072 
L 734.378556 32.877384 
L 734.791131 33.300447 
L 735.203705 33.092564 
L 735.61628 32.437226 
L 736.854003 33.131545 
L 737.266577 31.884246 
L 737.679152 31.88905 
L 738.091726 31.683542 
L 738.504301 32.283834 
L 738.916875 31.858396 
L 739.32945 31.858396 
L 739.742024 32.059274 
L 740.154599 32.702165 
L 740.567173 31.311302 
L 740.979748 30.318276 
L 741.392322 31.322655 
L 741.804897 31.317851 
L 742.217471 31.525734 
L 742.630045 31.126238 
L 743.04262 31.984747 
L 743.455194 32.19263 
L 743.867769 32.599 
L 744.280343 32.746223 
L 744.692918 33.362744 
L 745.518067 32.947188 
L 746.343216 33.365552 
L 746.75579 33.162381 
L 747.168364 32.306247 
L 747.580939 32.098365 
L 747.993513 33.220826 
L 748.406088 32.440214 
L 748.818662 32.241875 
L 749.231237 33.276498 
L 749.643811 34.950075 
L 750.056386 35.826592 
L 751.294109 35.826592 
L 751.706683 36.443113 
L 752.119258 34.713404 
L 752.531832 34.703901 
L 752.944407 34.493602 
L 753.356981 33.253471 
L 753.769556 31.614734 
L 754.18213 30.934025 
L 754.594705 30.730854 
L 755.007279 31.148995 
L 755.419854 31.359293 
L 755.832428 30.742772 
L 756.245003 31.36163 
L 757.482726 32.580664 
L 758.307875 30.920002 
L 758.720449 32.105357 
L 759.133024 31.481709 
L 759.958173 33.278106 
L 760.370747 33.058744 
L 760.783322 32.654762 
L 762.433619 35.119122 
L 762.846194 34.146441 
L 763.258768 34.559819 
L 763.671343 33.999621 
L 764.083917 33.822392 
L 764.909066 33.845886 
L 765.321641 33.042302 
L 765.734215 33.06131 
L 766.14679 32.664719 
L 766.559364 32.657422 
L 766.971938 35.632047 
L 767.384513 35.424177 
L 767.797087 34.783478 
L 768.209662 34.358041 
L 768.622236 34.329848 
L 769.034811 34.729344 
L 769.447385 34.729344 
L 769.85996 35.09177 
L 770.272534 36.781068 
L 770.685109 37.161996 
L 771.097683 35.160052 
L 771.922832 38.172011 
L 772.335406 38.583024 
L 773.160555 37.79343 
L 773.57313 37.802933 
L 773.985704 36.809647 
L 774.398279 34.697286 
L 774.810853 34.106087 
L 775.636002 31.550619 
L 776.048576 30.546844 
L 776.461151 30.135831 
L 778.111449 29.30191 
L 778.524023 29.717675 
L 778.936598 29.712977 
L 779.349172 30.126354 
L 779.761747 30.348912 
L 780.99947 29.71563 
L 781.824619 29.71563 
L 782.237193 31.428193 
L 782.649768 31.428193 
L 783.062342 32.024091 
L 783.474917 33.017117 
L 785.125215 35.196532 
L 785.537789 36.381888 
L 785.950363 36.984555 
L 786.362938 35.477499 
L 786.775512 35.26253 
L 788.013236 32.505009 
L 788.42581 32.318595 
L 788.838385 31.914546 
L 789.250959 33.558608 
L 789.663534 32.79869 
L 790.076108 33.054532 
L 790.488682 33.465545 
L 790.901257 34.061442 
L 791.313831 35.077369 
L 791.726406 35.273548 
L 792.13898 35.647179 
L 792.551555 35.221741 
L 792.964129 35.434415 
L 793.376704 33.173832 
L 793.789278 32.961068 
L 794.201853 31.897052 
L 794.614427 31.280531 
L 795.027002 31.303491 
L 795.439576 30.696243 
L 795.85215 30.894861 
L 796.264725 30.69846 
L 797.089874 32.472358 
L 797.502448 32.881037 
L 797.915023 32.881037 
L 798.327597 33.490593 
L 798.740172 33.698476 
L 799.152746 33.287461 
L 799.565321 34.118913 
L 799.977895 33.934387 
L 800.390469 33.943572 
L 801.215618 31.959375 
L 801.628193 31.964074 
L 802.040767 32.392099 
L 803.691065 33.290965 
L 804.10364 33.731333 
L 804.516214 33.332155 
L 805.341363 34.166231 
L 805.753937 33.752853 
L 806.579086 32.268323 
L 807.404235 31.422453 
L 807.81681 30.777004 
L 808.229384 30.728914 
L 808.641959 30.51624 
L 809.054533 31.169717 
L 809.467108 30.971378 
L 810.292256 31.384768 
L 811.117405 33.197322 
L 811.52998 33.412291 
L 812.355129 33.005921 
L 812.767703 34.191277 
L 813.180278 33.516411 
L 813.592852 33.098229 
L 814.005427 32.892722 
L 814.418001 33.315784 
L 814.830575 33.315784 
L 815.24315 32.920987 
L 815.655724 33.133706 
L 816.068299 32.729657 
L 816.480873 32.519425 
L 816.893448 32.519425 
L 817.306022 32.115376 
L 817.718597 32.323259 
L 818.131171 32.736637 
L 818.543746 32.523873 
L 818.95632 31.517119 
L 819.368894 31.309249 
L 819.781469 31.281056 
L 820.194043 31.692069 
L 820.606618 32.481953 
L 821.019192 31.091089 
L 821.431767 32.693816 
L 822.256916 32.280438 
L 822.66949 33.268661 
L 823.494639 34.530605 
L 824.319788 34.54503 
L 824.732362 33.984832 
L 825.144937 34.821199 
L 825.557511 33.636614 
L 825.970086 34.472981 
L 826.38266 34.896044 
L 826.795235 33.489639 
L 827.207809 33.061614 
L 827.620384 32.234861 
L 828.032958 32.454223 
L 828.445533 32.03116 
L 828.858107 32.575817 
L 829.270681 32.148128 
L 829.683256 31.937858 
L 830.09583 31.10149 
L 830.920979 32.492353 
L 831.333554 32.27968 
L 831.746128 32.487562 
L 832.158703 31.460026 
L 832.571277 32.464405 
L 832.983852 31.491723 
L 833.396426 31.288552 
L 833.809001 30.875175 
L 834.221575 32.101211 
L 834.634149 31.319905 
L 835.046724 30.894467 
L 835.459298 32.827348 
L 836.284447 33.841017 
L 836.697022 33.465123 
L 837.109596 33.254824 
L 837.522171 33.254824 
L 837.934745 33.668202 
L 838.34732 33.682296 
L 838.759894 34.342049 
L 839.172468 34.753063 
L 839.585043 33.451041 
L 839.997617 33.897416 
L 840.410192 34.753348 
L 840.822766 34.725155 
L 841.235341 34.517272 
L 841.647915 35.119939 
L 842.06049 34.912069 
L 842.473064 34.870732 
L 842.885639 33.80693 
L 843.298213 34.389202 
L 843.710787 34.36101 
L 844.535936 33.261847 
L 844.948511 33.271032 
L 845.361085 34.275608 
L 845.77366 33.675316 
L 846.186234 33.469809 
L 846.598809 32.476523 
L 847.011383 32.478898 
L 847.423958 32.088279 
L 847.836532 32.344121 
L 848.249107 32.344121 
L 849.074255 31.134352 
L 849.48683 31.157312 
L 849.899404 31.580375 
L 850.724553 33.038433 
L 851.137128 33.239229 
L 851.962277 32.189067 
L 852.374851 31.985924 
L 852.787426 32.805577 
L 852.787426 32.805577 
" clip-path="url(#p32e037dcc9)" style="fill: none; stroke-dasharray: 7.4,3.2; stroke-dashoffset: 0; stroke: #000000; stroke-width: 2"/>
   </g>
   <g id="patch_3">
    <path d="M 35.89 404.12 
L 35.89 10.8 
" style="fill: none; stroke: #000000; stroke-width: 0.8; stroke-linejoin: miter; stroke-linecap: square"/>
   </g>
   <g id="patch_4">
    <path d="M 853.2 404.12 
L 853.2 10.8 
" style="fill: none; stroke: #000000; stroke-width: 0.8; stroke-linejoin: miter; stroke-linecap: square"/>
   </g>
   <g id="patch_5">
    <path d="M 35.89 404.12 
L 853.2 404.12 
" style="fill: none; stroke: #000000; stroke-width: 0.8; stroke-linejoin: miter; stroke-linecap: square"/>
   </g>
   <g id="patch_6">
    <path d="M 35.89 10.8 
L 853.2 10.8 
" style="fill: none; stroke: #000000; stroke-width: 0.8; stroke-linejoin: miter; stroke-linecap: square"/>
   </g>
  </g>
 </g>
 <defs>
  <clipPath id="p32e037dcc9">
   <rect x="35.89" y="10.8" width="817.31" height="393.32"/>
  </clipPath>
 </defs>
</svg>
