<?xml version="1.0" encoding="utf-8" standalone="no"?>
<!DOCTYPE svg PUBLIC "-//W3C//DTD SVG 1.1//EN"
  "http://www.w3.org/Graphics/SVG/1.1/DTD/svg11.dtd">
<svg xmlns:xlink="http://www.w3.org/1999/xlink" width="864pt" height="432pt" viewBox="0 0 864 432" xmlns="http://www.w3.org/2000/svg" version="1.1">
 <metadata>
  <rdf:RDF xmlns:dc="http://purl.org/dc/elements/1.1/" xmlns:cc="http://creativecommons.org/ns#" xmlns:rdf="http://www.w3.org/1999/02/22-rdf-syntax-ns#">
   <cc:Work>
    <dc:type rdf:resource="http://purl.org/dc/dcmitype/StillImage"/>
    <dc:date>2024-09-16T11:01:58.337467</dc:date>
    <dc:format>image/svg+xml</dc:format>
    <dc:creator>
     <cc:Agent>
      <dc:title>Matplotlib v3.9.2, https://matplotlib.org/</dc:title>
     </cc:Agent>
    </dc:creator>
   </cc:Work>
  </rdf:RDF>
 </metadata>
 <defs>
  <style type="text/css">*{stroke-linejoin: round; stroke-linecap: butt}</style>
 </defs>
 <g id="figure_1">
  <g id="patch_1">
   <path d="M 0 432 
L 864 432 
L 864 0 
L 0 0 
z
" style="fill: #ffffff"/>
  </g>
  <g id="axes_1">
   <g id="patch_2">
    <path d="M 41.92 404.12 
L 853.2 404.12 
L 853.2 10.8 
L 41.92 10.8 
z
" style="fill: #ffffff"/>
   </g>
   <g id="matplotlib.axis_1">
    <g id="xtick_1">
     <g id="line2d_1">
      <defs>
       <path id="md7474bd629" d="M 0 0 
L 0 3.5 
" style="stroke: #000000; stroke-width: 0.8"/>
      </defs>
      <g>
       <use xlink:href="#md7474bd629" x="205.727864" y="404.12" style="stroke: #000000; stroke-width: 0.8"/>
      </g>
     </g>
     <g id="text_1">
      <!-- 200 -->
      <g transform="translate(196.697395 418.771563) scale(0.1 -0.1)">
       <defs>
        <path id="DejaVuSansMono-32" d="M 1166 531 
L 3309 531 
L 3309 0 
L 475 0 
L 475 531 
Q 1059 1147 1496 1619 
Q 1934 2091 2100 2284 
Q 2413 2666 2522 2902 
Q 2631 3138 2631 3384 
Q 2631 3775 2401 3997 
Q 2172 4219 1772 4219 
Q 1488 4219 1175 4116 
Q 863 4013 513 3803 
L 513 4441 
Q 834 4594 1145 4672 
Q 1456 4750 1759 4750 
Q 2444 4750 2861 4386 
Q 3278 4022 3278 3431 
Q 3278 3131 3139 2831 
Q 3000 2531 2688 2169 
Q 2513 1966 2180 1606 
Q 1847 1247 1166 531 
z
" transform="scale(0.015625)"/>
        <path id="DejaVuSansMono-30" d="M 1509 2344 
Q 1509 2516 1629 2641 
Q 1750 2766 1919 2766 
Q 2094 2766 2219 2641 
Q 2344 2516 2344 2344 
Q 2344 2169 2220 2047 
Q 2097 1925 1919 1925 
Q 1744 1925 1626 2044 
Q 1509 2163 1509 2344 
z
M 1925 4250 
Q 1484 4250 1267 3775 
Q 1050 3300 1050 2328 
Q 1050 1359 1267 884 
Q 1484 409 1925 409 
Q 2369 409 2586 884 
Q 2803 1359 2803 2328 
Q 2803 3300 2586 3775 
Q 2369 4250 1925 4250 
z
M 1925 4750 
Q 2672 4750 3055 4137 
Q 3438 3525 3438 2328 
Q 3438 1134 3055 521 
Q 2672 -91 1925 -91 
Q 1178 -91 797 521 
Q 416 1134 416 2328 
Q 416 3525 797 4137 
Q 1178 4750 1925 4750 
z
" transform="scale(0.015625)"/>
       </defs>
       <use xlink:href="#DejaVuSansMono-32"/>
       <use xlink:href="#DejaVuSansMono-30" x="60.205078"/>
       <use xlink:href="#DejaVuSansMono-30" x="120.410156"/>
      </g>
     </g>
    </g>
    <g id="xtick_2">
     <g id="line2d_2">
      <g>
       <use xlink:href="#md7474bd629" x="378.157194" y="404.12" style="stroke: #000000; stroke-width: 0.8"/>
      </g>
     </g>
     <g id="text_2">
      <!-- 400 -->
      <g transform="translate(369.126726 418.771563) scale(0.1 -0.1)">
       <defs>
        <path id="DejaVuSansMono-34" d="M 2297 4091 
L 825 1625 
L 2297 1625 
L 2297 4091 
z
M 2194 4666 
L 2925 4666 
L 2925 1625 
L 3547 1625 
L 3547 1113 
L 2925 1113 
L 2925 0 
L 2297 0 
L 2297 1113 
L 319 1113 
L 319 1709 
L 2194 4666 
z
" transform="scale(0.015625)"/>
       </defs>
       <use xlink:href="#DejaVuSansMono-34"/>
       <use xlink:href="#DejaVuSansMono-30" x="60.205078"/>
       <use xlink:href="#DejaVuSansMono-30" x="120.410156"/>
      </g>
     </g>
    </g>
    <g id="xtick_3">
     <g id="line2d_3">
      <g>
       <use xlink:href="#md7474bd629" x="550.586525" y="404.12" style="stroke: #000000; stroke-width: 0.8"/>
      </g>
     </g>
     <g id="text_3">
      <!-- 600 -->
      <g transform="translate(541.556056 418.771563) scale(0.1 -0.1)">
       <defs>
        <path id="DejaVuSansMono-36" d="M 3097 4563 
L 3097 3981 
Q 2900 4097 2678 4158 
Q 2456 4219 2216 4219 
Q 1616 4219 1306 3767 
Q 997 3316 997 2438 
Q 1147 2750 1412 2917 
Q 1678 3084 2022 3084 
Q 2697 3084 3067 2670 
Q 3438 2256 3438 1497 
Q 3438 741 3056 325 
Q 2675 -91 1984 -91 
Q 1172 -91 794 492 
Q 416 1075 416 2328 
Q 416 3509 870 4129 
Q 1325 4750 2188 4750 
Q 2419 4750 2650 4701 
Q 2881 4653 3097 4563 
z
M 1972 2591 
Q 1569 2591 1337 2300 
Q 1106 2009 1106 1497 
Q 1106 984 1337 693 
Q 1569 403 1972 403 
Q 2391 403 2603 679 
Q 2816 956 2816 1497 
Q 2816 2041 2603 2316 
Q 2391 2591 1972 2591 
z
" transform="scale(0.015625)"/>
       </defs>
       <use xlink:href="#DejaVuSansMono-36"/>
       <use xlink:href="#DejaVuSansMono-30" x="60.205078"/>
       <use xlink:href="#DejaVuSansMono-30" x="120.410156"/>
      </g>
     </g>
    </g>
    <g id="xtick_4">
     <g id="line2d_4">
      <g>
       <use xlink:href="#md7474bd629" x="723.015855" y="404.12" style="stroke: #000000; stroke-width: 0.8"/>
      </g>
     </g>
     <g id="text_4">
      <!-- 800 -->
      <g transform="translate(713.985387 418.771563) scale(0.1 -0.1)">
       <defs>
        <path id="DejaVuSansMono-38" d="M 1925 2216 
Q 1503 2216 1273 1980 
Q 1044 1744 1044 1313 
Q 1044 881 1276 642 
Q 1509 403 1925 403 
Q 2350 403 2579 639 
Q 2809 875 2809 1313 
Q 2809 1741 2576 1978 
Q 2344 2216 1925 2216 
z
M 1375 2478 
Q 972 2581 745 2862 
Q 519 3144 519 3541 
Q 519 4097 897 4423 
Q 1275 4750 1925 4750 
Q 2578 4750 2956 4423 
Q 3334 4097 3334 3541 
Q 3334 3144 3107 2862 
Q 2881 2581 2478 2478 
Q 2947 2375 3195 2062 
Q 3444 1750 3444 1253 
Q 3444 622 3041 265 
Q 2638 -91 1925 -91 
Q 1213 -91 811 264 
Q 409 619 409 1247 
Q 409 1747 657 2061 
Q 906 2375 1375 2478 
z
M 1147 3481 
Q 1147 3106 1347 2909 
Q 1547 2713 1925 2713 
Q 2306 2713 2506 2909 
Q 2706 3106 2706 3481 
Q 2706 3863 2507 4063 
Q 2309 4263 1925 4263 
Q 1547 4263 1347 4061 
Q 1147 3859 1147 3481 
z
" transform="scale(0.015625)"/>
       </defs>
       <use xlink:href="#DejaVuSansMono-38"/>
       <use xlink:href="#DejaVuSansMono-30" x="60.205078"/>
       <use xlink:href="#DejaVuSansMono-30" x="120.410156"/>
      </g>
     </g>
    </g>
   </g>
   <g id="matplotlib.axis_2">
    <g id="ytick_1">
     <g id="line2d_5">
      <defs>
       <path id="m5f763f193e" d="M 0 0 
L -3.5 0 
" style="stroke: #000000; stroke-width: 0.8"/>
      </defs>
      <g>
       <use xlink:href="#m5f763f193e" x="41.92" y="403.556508" style="stroke: #000000; stroke-width: 0.8"/>
      </g>
     </g>
     <g id="text_5">
      <!-- 0.02 -->
      <g transform="translate(10.83875 407.38229) scale(0.1 -0.1)">
       <defs>
        <path id="DejaVuSansMono-2e" d="M 1528 953 
L 2316 953 
L 2316 0 
L 1528 0 
L 1528 953 
z
" transform="scale(0.015625)"/>
       </defs>
       <use xlink:href="#DejaVuSansMono-30"/>
       <use xlink:href="#DejaVuSansMono-2e" x="60.205078"/>
       <use xlink:href="#DejaVuSansMono-30" x="120.410156"/>
       <use xlink:href="#DejaVuSansMono-32" x="180.615234"/>
      </g>
     </g>
    </g>
    <g id="ytick_2">
     <g id="line2d_6">
      <g>
       <use xlink:href="#m5f763f193e" x="41.92" y="346.248484" style="stroke: #000000; stroke-width: 0.8"/>
      </g>
     </g>
     <g id="text_6">
      <!-- 0.04 -->
      <g transform="translate(10.83875 350.074265) scale(0.1 -0.1)">
       <use xlink:href="#DejaVuSansMono-30"/>
       <use xlink:href="#DejaVuSansMono-2e" x="60.205078"/>
       <use xlink:href="#DejaVuSansMono-30" x="120.410156"/>
       <use xlink:href="#DejaVuSansMono-34" x="180.615234"/>
      </g>
     </g>
    </g>
    <g id="ytick_3">
     <g id="line2d_7">
      <g>
       <use xlink:href="#m5f763f193e" x="41.92" y="288.94046" style="stroke: #000000; stroke-width: 0.8"/>
      </g>
     </g>
     <g id="text_7">
      <!-- 0.06 -->
      <g transform="translate(10.83875 292.766241) scale(0.1 -0.1)">
       <use xlink:href="#DejaVuSansMono-30"/>
       <use xlink:href="#DejaVuSansMono-2e" x="60.205078"/>
       <use xlink:href="#DejaVuSansMono-30" x="120.410156"/>
       <use xlink:href="#DejaVuSansMono-36" x="180.615234"/>
      </g>
     </g>
    </g>
    <g id="ytick_4">
     <g id="line2d_8">
      <g>
       <use xlink:href="#m5f763f193e" x="41.92" y="231.632436" style="stroke: #000000; stroke-width: 0.8"/>
      </g>
     </g>
     <g id="text_8">
      <!-- 0.08 -->
      <g transform="translate(10.83875 235.458217) scale(0.1 -0.1)">
       <use xlink:href="#DejaVuSansMono-30"/>
       <use xlink:href="#DejaVuSansMono-2e" x="60.205078"/>
       <use xlink:href="#DejaVuSansMono-30" x="120.410156"/>
       <use xlink:href="#DejaVuSansMono-38" x="180.615234"/>
      </g>
     </g>
    </g>
    <g id="ytick_5">
     <g id="line2d_9">
      <g>
       <use xlink:href="#m5f763f193e" x="41.92" y="174.324411" style="stroke: #000000; stroke-width: 0.8"/>
      </g>
     </g>
     <g id="text_9">
      <!-- 0.10 -->
      <g transform="translate(10.83875 178.150193) scale(0.1 -0.1)">
       <defs>
        <path id="DejaVuSansMono-31" d="M 844 531 
L 1825 531 
L 1825 4097 
L 769 3859 
L 769 4434 
L 1819 4666 
L 2450 4666 
L 2450 531 
L 3419 531 
L 3419 0 
L 844 0 
L 844 531 
z
" transform="scale(0.015625)"/>
       </defs>
       <use xlink:href="#DejaVuSansMono-30"/>
       <use xlink:href="#DejaVuSansMono-2e" x="60.205078"/>
       <use xlink:href="#DejaVuSansMono-31" x="120.410156"/>
       <use xlink:href="#DejaVuSansMono-30" x="180.615234"/>
      </g>
     </g>
    </g>
    <g id="ytick_6">
     <g id="line2d_10">
      <g>
       <use xlink:href="#m5f763f193e" x="41.92" y="117.016387" style="stroke: #000000; stroke-width: 0.8"/>
      </g>
     </g>
     <g id="text_10">
      <!-- 0.12 -->
      <g transform="translate(10.83875 120.842168) scale(0.1 -0.1)">
       <use xlink:href="#DejaVuSansMono-30"/>
       <use xlink:href="#DejaVuSansMono-2e" x="60.205078"/>
       <use xlink:href="#DejaVuSansMono-31" x="120.410156"/>
       <use xlink:href="#DejaVuSansMono-32" x="180.615234"/>
      </g>
     </g>
    </g>
    <g id="ytick_7">
     <g id="line2d_11">
      <g>
       <use xlink:href="#m5f763f193e" x="41.92" y="59.708363" style="stroke: #000000; stroke-width: 0.8"/>
      </g>
     </g>
     <g id="text_11">
      <!-- 0.14 -->
      <g transform="translate(10.83875 63.534144) scale(0.1 -0.1)">
       <use xlink:href="#DejaVuSansMono-30"/>
       <use xlink:href="#DejaVuSansMono-2e" x="60.205078"/>
       <use xlink:href="#DejaVuSansMono-31" x="120.410156"/>
       <use xlink:href="#DejaVuSansMono-34" x="180.615234"/>
      </g>
     </g>
    </g>
   </g>
   <g id="line2d_12">
    <path d="M 33.298533 104.2546 
L 34.16068 87.822192 
L 35.022827 104.554463 
L 35.884973 104.554463 
L 36.74712 116.016067 
L 37.609267 115.773057 
L 38.471413 132.025491 
L 39.33356 138.6699 
L 41.057853 171.20702 
L 41.92 171.20702 
L 42.782147 155.454814 
L 43.644293 172.187085 
L 44.50644 159.609449 
L 45.368587 159.609449 
L 47.09288 192.906846 
L 47.955027 192.906846 
L 48.817173 176.063156 
L 49.67932 161.994083 
L 50.541467 162.203912 
L 51.403613 162.203912 
L 52.26576 145.471641 
L 53.127906 159.1877 
L 53.990053 143.253716 
L 54.8522 143.253716 
L 55.714346 153.017305 
L 56.576493 148.975821 
L 57.43864 140.079213 
L 58.300786 138.609228 
L 59.162933 123.875988 
L 60.02508 135.647365 
L 60.887226 152.379636 
L 61.749373 139.668981 
L 62.61152 130.919663 
L 64.335813 130.919663 
L 65.19796 146.900317 
L 66.060106 157.167446 
L 66.922253 140.435175 
L 67.7844 133.869292 
L 68.646546 133.422603 
L 70.37084 106.885232 
L 71.232986 111.361133 
L 72.095133 111.361133 
L 72.957279 112.003605 
L 73.819426 102.674391 
L 74.681573 101.26806 
L 75.543719 87.387952 
L 76.405866 87.387952 
L 77.268013 103.820359 
L 78.130159 87.138025 
L 78.992306 87.138025 
L 79.854453 85.740268 
L 80.716599 97.342922 
L 81.578746 97.342922 
L 82.440893 95.814708 
L 85.027333 46.143847 
L 85.889479 61.896053 
L 86.751626 45.262431 
L 87.613773 61.231074 
L 88.475919 64.426017 
L 89.338066 64.426017 
L 90.200213 47.693746 
L 91.062359 46.079435 
L 91.924506 47.199624 
L 92.786652 54.273352 
L 93.648799 58.357018 
L 94.510946 42.642148 
L 95.373092 42.639513 
L 96.235239 29.052466 
L 97.097386 42.810196 
L 97.959532 42.003041 
L 98.821679 42.003041 
L 99.683826 55.08235 
L 100.545972 55.325992 
L 101.408119 42.300589 
L 102.270266 45.410453 
L 103.132412 28.678182 
L 103.994559 28.678182 
L 104.856706 45.410453 
L 105.718852 39.217494 
L 106.580999 39.217494 
L 107.443146 38.448259 
L 108.305292 39.255414 
L 109.167439 45.362006 
L 110.029586 45.458437 
L 110.891732 62.288444 
L 111.753879 63.378311 
L 112.616026 75.160602 
L 113.478172 73.978926 
L 114.340319 86.233472 
L 115.202465 86.233472 
L 116.064612 81.925705 
L 116.926759 91.254918 
L 117.788905 77.914234 
L 118.651052 89.722968 
L 120.375345 89.722968 
L 121.237492 106.405303 
L 122.099639 89.673032 
L 122.961785 91.070789 
L 123.823932 96.443416 
L 124.686079 96.443416 
L 125.548225 97.97163 
L 126.410372 108.690962 
L 127.272519 114.118959 
L 128.134665 115.41408 
L 128.996812 99.308414 
L 129.858959 115.942036 
L 130.721105 115.942036 
L 131.583252 129.479364 
L 132.445399 112.747093 
L 133.307545 113.264611 
L 134.169692 114.878922 
L 135.031838 127.87347 
L 135.893985 118.066462 
L 136.756132 125.799652 
L 139.342572 174.852686 
L 140.204718 169.790031 
L 141.066865 170.597187 
L 142.791158 170.597187 
L 143.653305 171.079709 
L 144.515452 173.688619 
L 145.377598 186.800515 
L 146.239745 203.532786 
L 147.101892 203.532786 
L 147.964038 188.690419 
L 148.826185 203.632696 
L 149.688332 203.632696 
L 150.550478 192.847893 
L 151.412625 192.847893 
L 152.274772 186.217213 
L 153.136918 202.853054 
L 153.999065 202.853054 
L 154.861211 218.547964 
L 155.723358 219.360844 
L 156.585505 235.992826 
L 157.447651 219.540101 
L 158.309798 219.540101 
L 159.171945 236.272372 
L 160.034091 223.36858 
L 160.896238 238.115595 
L 161.758385 240.18697 
L 164.344825 240.18697 
L 165.206971 256.91924 
L 168.655558 256.91924 
L 169.517705 255.850559 
L 170.379851 253.89176 
L 171.241998 268.429243 
L 172.104145 267.488792 
L 172.966291 265.298676 
L 173.828438 248.566405 
L 174.690584 248.566405 
L 175.552731 249.163408 
L 176.414878 248.64589 
L 177.277024 248.64589 
L 178.139171 251.374843 
L 179.001318 259.545026 
L 179.863464 264.320694 
L 181.587758 264.320694 
L 182.449904 263.519183 
L 183.312051 260.958207 
L 184.174198 258.768091 
L 185.898491 258.768091 
L 186.760638 258.076894 
L 187.622784 270.770528 
L 188.484931 270.770528 
L 189.347078 254.038257 
L 190.209224 254.038257 
L 191.071371 268.880624 
L 191.933518 252.148353 
L 192.795664 252.148353 
L 193.657811 247.52744 
L 194.519957 247.52744 
L 195.382104 254.15812 
L 196.244251 254.15812 
L 197.106397 238.392502 
L 197.968544 237.585347 
L 199.692837 204.120805 
L 200.554984 220.57353 
L 202.279277 220.57353 
L 203.141424 233.477323 
L 204.003571 216.845341 
L 204.865717 210.981264 
L 205.727864 199.938522 
L 206.590011 199.938522 
L 207.452157 184.717268 
L 208.314304 184.717268 
L 209.176451 169.683006 
L 210.038597 167.311639 
L 211.762891 167.311639 
L 212.625037 174.258067 
L 213.487184 173.793666 
L 214.34933 174.606546 
L 215.211477 174.920392 
L 216.073624 174.348675 
L 216.93577 187.082712 
L 217.797917 187.082712 
L 218.660064 203.21798 
L 221.246504 203.21798 
L 222.10865 211.850151 
L 222.970797 206.946791 
L 223.832944 206.946791 
L 224.69509 200.889846 
L 225.557237 191.856316 
L 226.419384 201.656201 
L 227.28153 203.846316 
L 229.005824 203.846316 
L 229.86797 220.578587 
L 232.45441 220.578587 
L 233.316557 203.846316 
L 234.178704 203.846316 
L 235.04085 220.578587 
L 235.902997 203.856118 
L 236.765143 209.760812 
L 237.62729 196.583695 
L 240.21373 196.518367 
L 241.075877 197.325522 
L 242.80017 230.790064 
L 243.662317 230.790064 
L 246.248757 180.575786 
L 247.110903 180.591472 
L 247.97305 186.455548 
L 248.835197 197.49829 
L 249.697343 197.49829 
L 250.55949 211.923599 
L 251.421637 211.154364 
L 252.283783 226.188627 
L 253.14593 228.559993 
L 254.870223 228.559993 
L 255.73237 212.991537 
L 256.594516 209.682767 
L 257.456663 194.014809 
L 258.31881 210.747079 
L 259.180956 213.508912 
L 260.043103 217.507146 
L 260.90525 208.486438 
L 261.767396 208.486438 
L 262.629543 209.980737 
L 263.49169 209.980737 
L 264.353836 209.211501 
L 265.215983 209.211501 
L 266.07813 214.114862 
L 266.940276 214.114862 
L 267.802423 220.171807 
L 268.66457 230.006848 
L 269.526716 227.935474 
L 270.388863 217.477805 
L 272.975303 217.477805 
L 273.83745 206.129681 
L 274.699596 189.42252 
L 276.423889 222.887062 
L 277.286036 217.848994 
L 278.148183 217.848994 
L 279.010329 234.571463 
L 279.872476 244.841719 
L 280.734623 258.018837 
L 281.596769 244.534596 
L 282.458916 244.534596 
L 283.321063 260.365541 
L 285.907503 260.365541 
L 286.769649 252.984963 
L 287.631796 265.364725 
L 290.218236 315.463028 
L 291.942529 315.463028 
L 293.666823 283.082859 
L 294.528969 283.852094 
L 295.391116 278.642274 
L 297.115409 278.642274 
L 297.977556 262.14976 
L 298.839702 277.718216 
L 299.701849 277.718216 
L 300.563996 279.181621 
L 303.150436 279.181621 
L 304.012582 288.202329 
L 304.874729 288.202329 
L 305.736876 286.639902 
L 306.599022 286.639902 
L 307.461169 277.458549 
L 308.323316 264.492932 
L 310.909756 264.492932 
L 311.771902 248.459936 
L 312.634049 250.53131 
L 313.496196 260.988978 
L 314.358342 260.988978 
L 315.220489 244.194784 
L 316.082635 244.194784 
L 316.944782 255.542907 
L 317.806929 272.250068 
L 318.669075 272.250068 
L 319.531222 256.532306 
L 320.393369 261.570374 
L 321.255515 244.926013 
L 322.117662 244.926013 
L 322.979809 231.033159 
L 323.841955 229.563722 
L 324.704102 243.047963 
L 325.566249 243.047963 
L 326.428395 227.63177 
L 328.152689 227.63177 
L 329.014835 211.118252 
L 329.876982 218.498831 
L 330.739129 222.851339 
L 331.601275 214.792399 
L 335.049862 214.792399 
L 336.774155 247.968513 
L 337.636302 231.263834 
L 338.498448 236.473654 
L 339.360595 219.84356 
L 340.222742 219.84356 
L 341.084888 227.381696 
L 341.947035 227.381696 
L 342.809182 244.113967 
L 343.671328 258.31852 
L 344.533475 246.406921 
L 345.395622 229.529394 
L 347.982062 229.529394 
L 348.844208 246.329794 
L 349.706355 230.01114 
L 350.568502 223.229458 
L 351.430648 219.713347 
L 354.017088 219.713347 
L 354.879235 235.746344 
L 355.741382 219.014074 
L 357.465675 219.014074 
L 358.327821 235.808268 
L 360.914261 235.808268 
L 361.776408 223.073152 
L 362.638555 238.790914 
L 363.500701 238.790914 
L 364.362848 238.668036 
L 365.224995 238.668036 
L 366.087141 236.486688 
L 366.949288 237.956125 
L 367.811435 221.29912 
L 368.673581 221.29912 
L 369.535728 235.935612 
L 370.397875 218.736325 
L 371.260021 218.736325 
L 372.122168 235.249843 
L 372.984315 235.249843 
L 373.846461 218.837997 
L 374.708608 210.164667 
L 375.570755 210.164667 
L 376.432901 193.432396 
L 379.019341 193.432396 
L 379.881488 176.970264 
L 380.743634 193.674943 
L 383.330074 193.600357 
L 384.192221 192.970119 
L 385.054368 192.970119 
L 385.916514 176.237848 
L 386.778661 176.237848 
L 387.640808 188.149446 
L 388.502954 205.026973 
L 391.089394 205.026973 
L 391.951541 191.952898 
L 392.813688 196.776137 
L 393.675834 206.376743 
L 394.537981 222.85847 
L 395.400128 222.85847 
L 396.262274 210.602496 
L 397.986567 210.602496 
L 398.848714 220.141292 
L 399.710861 217.379459 
L 400.573007 217.379459 
L 401.435154 216.649421 
L 402.297301 216.649421 
L 403.159447 215.079338 
L 404.021594 215.079338 
L 404.883741 227.814455 
L 406.608034 227.814455 
L 407.470181 229.156365 
L 408.332327 217.460849 
L 409.194474 233.535051 
L 410.056621 233.535051 
L 410.918767 250.192056 
L 411.780914 250.192056 
L 412.643061 250.971757 
L 413.505207 268.171044 
L 414.367354 251.438773 
L 416.091647 251.438773 
L 417.81594 284.58289 
L 418.678087 284.58289 
L 419.540234 285.949966 
L 422.126674 285.949966 
L 422.98882 302.412098 
L 423.850967 286.927546 
L 424.713114 286.927546 
L 425.57526 288.838034 
L 426.437407 288.838034 
L 427.299554 281.69038 
L 428.1617 264.95811 
L 429.023847 281.69038 
L 429.885994 265.916202 
L 432.472434 265.916202 
L 433.33458 264.377732 
L 434.196727 264.377732 
L 435.92102 288.947221 
L 436.783167 296.078886 
L 438.50746 296.078886 
L 439.369607 291.716755 
L 440.231753 275.205293 
L 441.0939 275.205293 
L 441.956047 282.398768 
L 442.818193 268.910144 
L 443.68034 268.910144 
L 444.542487 254.47041 
L 445.404633 252.223037 
L 446.26678 253.79312 
L 447.128927 242.419008 
L 447.991073 242.419008 
L 448.85322 225.720866 
L 449.715367 225.720866 
L 450.577513 241.146195 
L 451.43966 252.84171 
L 452.301807 251.390874 
L 453.163953 251.390874 
L 454.0261 234.909313 
L 456.61254 234.909313 
L 457.474687 251.641584 
L 460.923273 251.641584 
L 461.78542 234.919115 
L 462.647566 250.28431 
L 463.509713 250.28431 
L 464.37186 241.294815 
L 465.234006 241.294815 
L 466.096153 235.114538 
L 466.9583 243.400981 
L 467.820446 243.400981 
L 468.682593 257.42074 
L 469.54474 257.42074 
L 470.406886 274.15301 
L 471.269033 274.135545 
L 472.13118 267.045893 
L 472.993326 267.714424 
L 473.855473 252.849545 
L 474.71762 252.849545 
L 475.579766 252.04239 
L 476.441913 253.580861 
L 477.30406 252.031995 
L 478.166206 235.780466 
L 481.614793 235.780466 
L 482.476939 237.375261 
L 483.339086 253.886723 
L 484.201233 237.154452 
L 485.063379 232.621614 
L 485.925526 232.928106 
L 486.787673 232.928106 
L 487.649819 248.097878 
L 488.511966 250.345251 
L 489.374113 250.345251 
L 490.236259 261.719363 
L 491.098406 261.719363 
L 491.960553 278.417505 
L 494.546993 278.417505 
L 495.409139 268.31553 
L 496.271286 268.31553 
L 497.133433 284.797091 
L 497.995579 277.233595 
L 498.857726 263.696267 
L 499.719872 255.006964 
L 501.444166 255.006964 
L 502.306312 249.381636 
L 504.030606 249.381636 
L 504.892752 266.104105 
L 506.617046 266.104105 
L 507.479192 275.0936 
L 508.341339 258.361329 
L 509.203486 264.541606 
L 510.065632 271.739716 
L 510.927779 271.739716 
L 511.789926 272.514148 
L 512.652072 272.514148 
L 513.514219 262.807251 
L 514.376366 278.167702 
L 515.238512 270.366293 
L 516.962806 300.336819 
L 517.824952 300.336819 
L 518.687099 301.143974 
L 519.549245 301.143974 
L 520.411392 302.69284 
L 521.273539 318.944369 
L 522.135685 305.753263 
L 522.997832 305.753263 
L 523.859979 289.020992 
L 524.722125 288.251757 
L 525.584272 303.275067 
L 526.446419 303.275067 
L 527.308565 320.007338 
L 528.170712 307.807905 
L 529.032859 307.019599 
L 529.895005 291.252312 
L 530.757152 291.252312 
L 531.619299 275.721683 
L 532.481445 273.444543 
L 533.343592 256.712272 
L 534.205739 247.419078 
L 535.067885 230.974883 
L 535.930032 229.436412 
L 536.792179 216.048883 
L 537.654325 216.048883 
L 538.516472 224.771668 
L 539.378618 218.059917 
L 540.240765 218.059917 
L 541.102912 225.623413 
L 541.965058 239.160741 
L 542.827205 247.850045 
L 543.689352 230.892809 
L 545.413645 210.399156 
L 546.275792 210.399156 
L 548.000085 179.247209 
L 549.724378 179.247209 
L 550.586525 170.219233 
L 551.448672 186.951504 
L 552.310818 186.951504 
L 554.035112 153.486962 
L 555.759405 153.486962 
L 556.621552 163.193859 
L 557.483698 159.782473 
L 558.345845 174.673534 
L 559.207991 174.673534 
L 560.070138 164.329125 
L 563.518725 164.329125 
L 564.380871 147.629301 
L 565.243018 160.018896 
L 566.105165 160.018896 
L 566.967311 160.523476 
L 567.829458 144.487194 
L 569.553751 144.487194 
L 570.415898 133.849177 
L 573.002338 183.081005 
L 573.864485 183.081005 
L 574.726631 181.879365 
L 575.588778 184.156504 
L 576.450925 200.888775 
L 577.313071 210.181969 
L 578.175218 226.626164 
L 579.037365 228.164635 
L 579.899511 232.531456 
L 580.761658 232.531456 
L 581.623804 235.361482 
L 582.485951 227.468418 
L 585.072391 227.468418 
L 585.934538 210.650751 
L 586.796684 227.607986 
L 587.658831 238.103962 
L 588.520978 253.726967 
L 589.383124 253.726967 
L 590.245271 268.708278 
L 591.107418 274.156767 
L 592.831711 274.156767 
L 593.693858 283.184743 
L 595.418151 283.184743 
L 597.142444 316.649284 
L 599.728884 316.649284 
L 600.591031 321.449956 
L 602.315324 321.449956 
L 603.177471 331.794365 
L 604.039617 315.062095 
L 604.901764 315.062095 
L 605.763911 298.329824 
L 606.626057 298.329824 
L 607.488204 315.029648 
L 608.350351 315.831159 
L 609.212497 315.831159 
L 610.936791 348.864367 
L 612.661084 348.864367 
L 613.523231 359.502383 
L 614.385377 347.693457 
L 616.109671 347.693457 
L 616.971817 346.897513 
L 617.833964 361.520286 
L 619.558257 361.520286 
L 620.420404 345.552782 
L 622.144697 345.552782 
L 623.006844 354.57349 
L 623.86899 348.67895 
L 624.731137 335.422154 
L 625.593284 347.764811 
L 628.179724 347.764811 
L 629.04187 364.582477 
L 631.62831 364.582477 
L 632.490457 354.318353 
L 633.352604 354.318353 
L 634.21475 365.040501 
L 637.663337 365.040501 
L 638.525484 355.118514 
L 640.249777 355.118514 
L 641.111923 354.333473 
L 646.284803 354.333473 
L 647.14695 371.065744 
L 648.009097 354.333473 
L 648.871243 365.096158 
L 649.73339 363.607638 
L 650.595537 358.513591 
L 651.457683 358.513591 
L 652.31983 342.26467 
L 654.044123 342.26467 
L 654.90627 325.872653 
L 656.630563 325.872653 
L 657.49271 321.734997 
L 658.354857 321.734997 
L 659.217003 305.002727 
L 660.07915 305.798671 
L 660.941296 307.908169 
L 661.803443 307.908169 
L 662.66559 307.149122 
L 663.527736 323.116626 
L 666.114176 323.116626 
L 666.976323 329.011166 
L 667.83847 325.535691 
L 668.700616 313.59414 
L 669.562763 296.844404 
L 674.735643 296.844404 
L 675.59779 307.108527 
L 676.459936 302.282589 
L 680.77067 302.282589 
L 681.632816 312.204575 
L 682.494963 295.472304 
L 683.357109 295.472304 
L 684.219256 296.257345 
L 686.805696 296.257345 
L 687.667843 295.45019 
L 689.392136 295.45019 
L 690.254283 279.230939 
L 691.116429 295.963209 
L 691.978576 301.932796 
L 692.840723 303.421316 
L 693.702869 308.515362 
L 694.565016 308.515362 
L 695.427163 308.032012 
L 697.151456 308.032012 
L 698.013603 314.259304 
L 699.737896 314.259304 
L 700.600043 330.205885 
L 702.324336 330.255821 
L 703.186482 317.634411 
L 704.048629 317.634411 
L 704.910776 307.575023 
L 705.772922 295.598953 
L 706.635069 278.866682 
L 710.945802 278.866682 
L 711.807949 276.338122 
L 712.670096 293.087858 
L 713.532242 293.087858 
L 715.256536 260.021753 
L 717.842976 260.021753 
L 718.705122 243.967612 
L 719.567269 248.793551 
L 720.429416 232.402224 
L 723.015855 232.402224 
L 723.878002 215.669953 
L 724.740149 215.669953 
L 725.602295 232.402224 
L 726.464442 215.669953 
L 729.050882 215.669953 
L 730.775175 212.774705 
L 731.637322 212.774705 
L 732.499469 199.799303 
L 733.361615 216.018554 
L 735.085909 216.018554 
L 735.948055 199.286283 
L 738.534495 199.286283 
L 739.396642 191.605826 
L 740.258789 191.605826 
L 741.120935 201.770552 
L 741.983082 186.80091 
L 743.707375 186.80091 
L 744.569522 179.453727 
L 745.431668 196.136062 
L 746.293815 208.757472 
L 747.155962 208.757472 
L 748.018108 201.494208 
L 748.880255 214.229325 
L 750.604548 214.331502 
L 751.466695 214.331502 
L 752.328842 200.764704 
L 753.190988 200.764704 
L 754.053135 211.161415 
L 754.915282 227.893686 
L 756.639575 227.893686 
L 758.363868 260.95979 
L 759.226015 257.030097 
L 760.088162 257.030097 
L 760.950308 248.879623 
L 761.812455 254.477563 
L 762.674601 254.477563 
L 763.536748 270.86889 
L 766.123188 270.86889 
L 766.985335 287.601161 
L 768.709628 287.601161 
L 769.571775 290.033105 
L 770.433921 276.02707 
L 771.296068 273.214406 
L 772.158215 273.214406 
L 773.020361 264.746042 
L 773.882508 266.950197 
L 774.744655 266.950197 
L 775.606801 279.925599 
L 776.468948 279.925599 
L 777.331095 269.857973 
L 778.193241 253.125702 
L 780.779681 253.125702 
L 781.641828 264.371035 
L 782.503974 272.051492 
L 784.228268 272.051492 
L 785.090414 287.021134 
L 785.952561 287.021134 
L 786.814708 270.288864 
L 787.676854 271.982341 
L 790.263294 271.982341 
L 791.125441 289.304992 
L 791.987588 289.304992 
L 792.849734 305.935085 
L 794.574028 305.935085 
L 795.436174 319.501884 
L 796.298321 319.501884 
L 797.160468 325.837444 
L 798.022614 325.837444 
L 798.884761 321.429134 
L 801.471201 321.429134 
L 802.333348 317.137422 
L 803.195494 317.137422 
L 804.057641 325.287896 
L 804.919787 335.744098 
L 807.506227 335.744098 
L 808.368374 321.523218 
L 811.816961 321.523218 
L 813.541254 349.829579 
L 814.403401 335.909972 
L 815.265547 335.909972 
L 816.127694 345.876585 
L 816.989841 330.458218 
L 819.576281 330.458218 
L 820.438427 340.525844 
L 822.162721 373.990385 
L 823.887014 373.990385 
L 824.74916 363.855841 
L 829.059894 363.855841 
L 829.92204 380.588112 
L 830.784187 386.241818 
L 831.646334 375.185607 
L 832.50848 358.503273 
L 835.09492 358.503273 
L 835.957067 341.771002 
L 836.819214 341.771002 
L 837.68136 335.158537 
L 841.129947 335.158537 
L 841.992094 322.818154 
L 842.85424 321.279684 
L 843.716387 304.424384 
L 844.578533 304.424384 
L 845.44068 312.645789 
L 846.302827 309.129959 
L 849.751413 309.129959 
L 850.61356 292.397688 
L 851.475707 306.618568 
L 852.337853 306.618568 
L 852.337853 306.618568 
" clip-path="url(#p8f061d77f3)" style="fill: none; stroke-dasharray: 7.4,3.2; stroke-dashoffset: 0; stroke: #000000; stroke-width: 2"/>
   </g>
   <g id="patch_3">
    <path d="M 41.92 404.12 
L 41.92 10.8 
" style="fill: none; stroke: #000000; stroke-width: 0.8; stroke-linejoin: miter; stroke-linecap: square"/>
   </g>
   <g id="patch_4">
    <path d="M 853.2 404.12 
L 853.2 10.8 
" style="fill: none; stroke: #000000; stroke-width: 0.8; stroke-linejoin: miter; stroke-linecap: square"/>
   </g>
   <g id="patch_5">
    <path d="M 41.92 404.12 
L 853.2 404.12 
" style="fill: none; stroke: #000000; stroke-width: 0.8; stroke-linejoin: miter; stroke-linecap: square"/>
   </g>
   <g id="patch_6">
    <path d="M 41.92 10.8 
L 853.2 10.8 
" style="fill: none; stroke: #000000; stroke-width: 0.8; stroke-linejoin: miter; stroke-linecap: square"/>
   </g>
  </g>
 </g>
 <defs>
  <clipPath id="p8f061d77f3">
   <rect x="41.92" y="10.8" width="811.28" height="393.32"/>
  </clipPath>
 </defs>
</svg>
