<?xml version="1.0" encoding="utf-8" standalone="no"?>
<!DOCTYPE svg PUBLIC "-//W3C//DTD SVG 1.1//EN"
  "http://www.w3.org/Graphics/SVG/1.1/DTD/svg11.dtd">
<svg xmlns:xlink="http://www.w3.org/1999/xlink" width="864pt" height="432pt" viewBox="0 0 864 432" xmlns="http://www.w3.org/2000/svg" version="1.1">
 <metadata>
  <rdf:RDF xmlns:dc="http://purl.org/dc/elements/1.1/" xmlns:cc="http://creativecommons.org/ns#" xmlns:rdf="http://www.w3.org/1999/02/22-rdf-syntax-ns#">
   <cc:Work>
    <dc:type rdf:resource="http://purl.org/dc/dcmitype/StillImage"/>
    <dc:date>2024-09-16T11:01:58.418835</dc:date>
    <dc:format>image/svg+xml</dc:format>
    <dc:creator>
     <cc:Agent>
      <dc:title>Matplotlib v3.9.2, https://matplotlib.org/</dc:title>
     </cc:Agent>
    </dc:creator>
   </cc:Work>
  </rdf:RDF>
 </metadata>
 <defs>
  <style type="text/css">*{stroke-linejoin: round; stroke-linecap: butt}</style>
 </defs>
 <g id="figure_1">
  <g id="patch_1">
   <path d="M 0 432 
L 864 432 
L 864 0 
L 0 0 
z
" style="fill: #ffffff"/>
  </g>
  <g id="axes_1">
   <g id="patch_2">
    <path d="M 47.95 404.12 
L 853.2 404.12 
L 853.2 11.3174 
L 47.95 11.3174 
z
" style="fill: #ffffff"/>
   </g>
   <g id="matplotlib.axis_1">
    <g id="xtick_1">
     <g id="line2d_1">
      <defs>
       <path id="me352a9c939" d="M 0 0 
L 0 3.5 
" style="stroke: #000000; stroke-width: 0.8"/>
      </defs>
      <g>
       <use xlink:href="#me352a9c939" x="210.540329" y="404.12" style="stroke: #000000; stroke-width: 0.8"/>
      </g>
     </g>
     <g id="text_1">
      <!-- 200 -->
      <g transform="translate(201.509861 418.771563) scale(0.1 -0.1)">
       <defs>
        <path id="DejaVuSansMono-32" d="M 1166 531 
L 3309 531 
L 3309 0 
L 475 0 
L 475 531 
Q 1059 1147 1496 1619 
Q 1934 2091 2100 2284 
Q 2413 2666 2522 2902 
Q 2631 3138 2631 3384 
Q 2631 3775 2401 3997 
Q 2172 4219 1772 4219 
Q 1488 4219 1175 4116 
Q 863 4013 513 3803 
L 513 4441 
Q 834 4594 1145 4672 
Q 1456 4750 1759 4750 
Q 2444 4750 2861 4386 
Q 3278 4022 3278 3431 
Q 3278 3131 3139 2831 
Q 3000 2531 2688 2169 
Q 2513 1966 2180 1606 
Q 1847 1247 1166 531 
z
" transform="scale(0.015625)"/>
        <path id="DejaVuSansMono-30" d="M 1509 2344 
Q 1509 2516 1629 2641 
Q 1750 2766 1919 2766 
Q 2094 2766 2219 2641 
Q 2344 2516 2344 2344 
Q 2344 2169 2220 2047 
Q 2097 1925 1919 1925 
Q 1744 1925 1626 2044 
Q 1509 2163 1509 2344 
z
M 1925 4250 
Q 1484 4250 1267 3775 
Q 1050 3300 1050 2328 
Q 1050 1359 1267 884 
Q 1484 409 1925 409 
Q 2369 409 2586 884 
Q 2803 1359 2803 2328 
Q 2803 3300 2586 3775 
Q 2369 4250 1925 4250 
z
M 1925 4750 
Q 2672 4750 3055 4137 
Q 3438 3525 3438 2328 
Q 3438 1134 3055 521 
Q 2672 -91 1925 -91 
Q 1178 -91 797 521 
Q 416 1134 416 2328 
Q 416 3525 797 4137 
Q 1178 4750 1925 4750 
z
" transform="scale(0.015625)"/>
       </defs>
       <use xlink:href="#DejaVuSansMono-32"/>
       <use xlink:href="#DejaVuSansMono-30" x="60.205078"/>
       <use xlink:href="#DejaVuSansMono-30" x="120.410156"/>
      </g>
     </g>
    </g>
    <g id="xtick_2">
     <g id="line2d_2">
      <g>
       <use xlink:href="#me352a9c939" x="381.688045" y="404.12" style="stroke: #000000; stroke-width: 0.8"/>
      </g>
     </g>
     <g id="text_2">
      <!-- 400 -->
      <g transform="translate(372.657576 418.771563) scale(0.1 -0.1)">
       <defs>
        <path id="DejaVuSansMono-34" d="M 2297 4091 
L 825 1625 
L 2297 1625 
L 2297 4091 
z
M 2194 4666 
L 2925 4666 
L 2925 1625 
L 3547 1625 
L 3547 1113 
L 2925 1113 
L 2925 0 
L 2297 0 
L 2297 1113 
L 319 1113 
L 319 1709 
L 2194 4666 
z
" transform="scale(0.015625)"/>
       </defs>
       <use xlink:href="#DejaVuSansMono-34"/>
       <use xlink:href="#DejaVuSansMono-30" x="60.205078"/>
       <use xlink:href="#DejaVuSansMono-30" x="120.410156"/>
      </g>
     </g>
    </g>
    <g id="xtick_3">
     <g id="line2d_3">
      <g>
       <use xlink:href="#me352a9c939" x="552.83576" y="404.12" style="stroke: #000000; stroke-width: 0.8"/>
      </g>
     </g>
     <g id="text_3">
      <!-- 600 -->
      <g transform="translate(543.805291 418.771563) scale(0.1 -0.1)">
       <defs>
        <path id="DejaVuSansMono-36" d="M 3097 4563 
L 3097 3981 
Q 2900 4097 2678 4158 
Q 2456 4219 2216 4219 
Q 1616 4219 1306 3767 
Q 997 3316 997 2438 
Q 1147 2750 1412 2917 
Q 1678 3084 2022 3084 
Q 2697 3084 3067 2670 
Q 3438 2256 3438 1497 
Q 3438 741 3056 325 
Q 2675 -91 1984 -91 
Q 1172 -91 794 492 
Q 416 1075 416 2328 
Q 416 3509 870 4129 
Q 1325 4750 2188 4750 
Q 2419 4750 2650 4701 
Q 2881 4653 3097 4563 
z
M 1972 2591 
Q 1569 2591 1337 2300 
Q 1106 2009 1106 1497 
Q 1106 984 1337 693 
Q 1569 403 1972 403 
Q 2391 403 2603 679 
Q 2816 956 2816 1497 
Q 2816 2041 2603 2316 
Q 2391 2591 1972 2591 
z
" transform="scale(0.015625)"/>
       </defs>
       <use xlink:href="#DejaVuSansMono-36"/>
       <use xlink:href="#DejaVuSansMono-30" x="60.205078"/>
       <use xlink:href="#DejaVuSansMono-30" x="120.410156"/>
      </g>
     </g>
    </g>
    <g id="xtick_4">
     <g id="line2d_4">
      <g>
       <use xlink:href="#me352a9c939" x="723.983475" y="404.12" style="stroke: #000000; stroke-width: 0.8"/>
      </g>
     </g>
     <g id="text_4">
      <!-- 800 -->
      <g transform="translate(714.953006 418.771563) scale(0.1 -0.1)">
       <defs>
        <path id="DejaVuSansMono-38" d="M 1925 2216 
Q 1503 2216 1273 1980 
Q 1044 1744 1044 1313 
Q 1044 881 1276 642 
Q 1509 403 1925 403 
Q 2350 403 2579 639 
Q 2809 875 2809 1313 
Q 2809 1741 2576 1978 
Q 2344 2216 1925 2216 
z
M 1375 2478 
Q 972 2581 745 2862 
Q 519 3144 519 3541 
Q 519 4097 897 4423 
Q 1275 4750 1925 4750 
Q 2578 4750 2956 4423 
Q 3334 4097 3334 3541 
Q 3334 3144 3107 2862 
Q 2881 2581 2478 2478 
Q 2947 2375 3195 2062 
Q 3444 1750 3444 1253 
Q 3444 622 3041 265 
Q 2638 -91 1925 -91 
Q 1213 -91 811 264 
Q 409 619 409 1247 
Q 409 1747 657 2061 
Q 906 2375 1375 2478 
z
M 1147 3481 
Q 1147 3106 1347 2909 
Q 1547 2713 1925 2713 
Q 2306 2713 2506 2909 
Q 2706 3106 2706 3481 
Q 2706 3863 2507 4063 
Q 2309 4263 1925 4263 
Q 1547 4263 1347 4061 
Q 1147 3859 1147 3481 
z
" transform="scale(0.015625)"/>
       </defs>
       <use xlink:href="#DejaVuSansMono-38"/>
       <use xlink:href="#DejaVuSansMono-30" x="60.205078"/>
       <use xlink:href="#DejaVuSansMono-30" x="120.410156"/>
      </g>
     </g>
    </g>
   </g>
   <g id="matplotlib.axis_2">
    <g id="ytick_1">
     <g id="line2d_5">
      <defs>
       <path id="m05a8aebfdf" d="M 0 0 
L -3.5 0 
" style="stroke: #000000; stroke-width: 0.8"/>
      </defs>
      <g>
       <use xlink:href="#m05a8aebfdf" x="47.95" y="396.249801" style="stroke: #000000; stroke-width: 0.8"/>
      </g>
     </g>
     <g id="text_5">
      <!-- 0.135 -->
      <g transform="translate(10.848438 400.075582) scale(0.1 -0.1)">
       <defs>
        <path id="DejaVuSansMono-2e" d="M 1528 953 
L 2316 953 
L 2316 0 
L 1528 0 
L 1528 953 
z
" transform="scale(0.015625)"/>
        <path id="DejaVuSansMono-31" d="M 844 531 
L 1825 531 
L 1825 4097 
L 769 3859 
L 769 4434 
L 1819 4666 
L 2450 4666 
L 2450 531 
L 3419 531 
L 3419 0 
L 844 0 
L 844 531 
z
" transform="scale(0.015625)"/>
        <path id="DejaVuSansMono-33" d="M 2425 2497 
Q 2884 2375 3128 2064 
Q 3372 1753 3372 1288 
Q 3372 644 2939 276 
Q 2506 -91 1741 -91 
Q 1419 -91 1084 -31 
Q 750 28 428 141 
L 428 769 
Q 747 603 1056 522 
Q 1366 441 1672 441 
Q 2191 441 2469 675 
Q 2747 909 2747 1350 
Q 2747 1756 2469 1995 
Q 2191 2234 1716 2234 
L 1234 2234 
L 1234 2753 
L 1716 2753 
Q 2150 2753 2394 2943 
Q 2638 3134 2638 3475 
Q 2638 3834 2411 4026 
Q 2184 4219 1766 4219 
Q 1488 4219 1191 4156 
Q 894 4094 569 3969 
L 569 4550 
Q 947 4650 1242 4700 
Q 1538 4750 1766 4750 
Q 2447 4750 2855 4408 
Q 3263 4066 3263 3500 
Q 3263 3116 3048 2859 
Q 2834 2603 2425 2497 
z
" transform="scale(0.015625)"/>
        <path id="DejaVuSansMono-35" d="M 647 4666 
L 3009 4666 
L 3009 4134 
L 1222 4134 
L 1222 2988 
Q 1356 3038 1492 3061 
Q 1628 3084 1766 3084 
Q 2491 3084 2916 2656 
Q 3341 2228 3341 1497 
Q 3341 759 2895 334 
Q 2450 -91 1678 -91 
Q 1306 -91 998 -41 
Q 691 9 447 109 
L 447 750 
Q 734 594 1025 517 
Q 1316 441 1619 441 
Q 2141 441 2423 716 
Q 2706 991 2706 1497 
Q 2706 1997 2414 2275 
Q 2122 2553 1600 2553 
Q 1347 2553 1106 2495 
Q 866 2438 647 2322 
L 647 4666 
z
" transform="scale(0.015625)"/>
       </defs>
       <use xlink:href="#DejaVuSansMono-30"/>
       <use xlink:href="#DejaVuSansMono-2e" x="60.205078"/>
       <use xlink:href="#DejaVuSansMono-31" x="120.410156"/>
       <use xlink:href="#DejaVuSansMono-33" x="180.615234"/>
       <use xlink:href="#DejaVuSansMono-35" x="240.820312"/>
      </g>
     </g>
    </g>
    <g id="ytick_2">
     <g id="line2d_6">
      <g>
       <use xlink:href="#m05a8aebfdf" x="47.95" y="348.641406" style="stroke: #000000; stroke-width: 0.8"/>
      </g>
     </g>
     <g id="text_6">
      <!-- 0.140 -->
      <g transform="translate(10.848438 352.467187) scale(0.1 -0.1)">
       <use xlink:href="#DejaVuSansMono-30"/>
       <use xlink:href="#DejaVuSansMono-2e" x="60.205078"/>
       <use xlink:href="#DejaVuSansMono-31" x="120.410156"/>
       <use xlink:href="#DejaVuSansMono-34" x="180.615234"/>
       <use xlink:href="#DejaVuSansMono-30" x="240.820312"/>
      </g>
     </g>
    </g>
    <g id="ytick_3">
     <g id="line2d_7">
      <g>
       <use xlink:href="#m05a8aebfdf" x="47.95" y="301.033011" style="stroke: #000000; stroke-width: 0.8"/>
      </g>
     </g>
     <g id="text_7">
      <!-- 0.145 -->
      <g transform="translate(10.848438 304.858793) scale(0.1 -0.1)">
       <use xlink:href="#DejaVuSansMono-30"/>
       <use xlink:href="#DejaVuSansMono-2e" x="60.205078"/>
       <use xlink:href="#DejaVuSansMono-31" x="120.410156"/>
       <use xlink:href="#DejaVuSansMono-34" x="180.615234"/>
       <use xlink:href="#DejaVuSansMono-35" x="240.820312"/>
      </g>
     </g>
    </g>
    <g id="ytick_4">
     <g id="line2d_8">
      <g>
       <use xlink:href="#m05a8aebfdf" x="47.95" y="253.424616" style="stroke: #000000; stroke-width: 0.8"/>
      </g>
     </g>
     <g id="text_8">
      <!-- 0.150 -->
      <g transform="translate(10.848438 257.250398) scale(0.1 -0.1)">
       <use xlink:href="#DejaVuSansMono-30"/>
       <use xlink:href="#DejaVuSansMono-2e" x="60.205078"/>
       <use xlink:href="#DejaVuSansMono-31" x="120.410156"/>
       <use xlink:href="#DejaVuSansMono-35" x="180.615234"/>
       <use xlink:href="#DejaVuSansMono-30" x="240.820312"/>
      </g>
     </g>
    </g>
    <g id="ytick_5">
     <g id="line2d_9">
      <g>
       <use xlink:href="#m05a8aebfdf" x="47.95" y="205.816222" style="stroke: #000000; stroke-width: 0.8"/>
      </g>
     </g>
     <g id="text_9">
      <!-- 0.155 -->
      <g transform="translate(10.848438 209.642003) scale(0.1 -0.1)">
       <use xlink:href="#DejaVuSansMono-30"/>
       <use xlink:href="#DejaVuSansMono-2e" x="60.205078"/>
       <use xlink:href="#DejaVuSansMono-31" x="120.410156"/>
       <use xlink:href="#DejaVuSansMono-35" x="180.615234"/>
       <use xlink:href="#DejaVuSansMono-35" x="240.820312"/>
      </g>
     </g>
    </g>
    <g id="ytick_6">
     <g id="line2d_10">
      <g>
       <use xlink:href="#m05a8aebfdf" x="47.95" y="158.207827" style="stroke: #000000; stroke-width: 0.8"/>
      </g>
     </g>
     <g id="text_10">
      <!-- 0.160 -->
      <g transform="translate(10.848438 162.033608) scale(0.1 -0.1)">
       <use xlink:href="#DejaVuSansMono-30"/>
       <use xlink:href="#DejaVuSansMono-2e" x="60.205078"/>
       <use xlink:href="#DejaVuSansMono-31" x="120.410156"/>
       <use xlink:href="#DejaVuSansMono-36" x="180.615234"/>
       <use xlink:href="#DejaVuSansMono-30" x="240.820312"/>
      </g>
     </g>
    </g>
    <g id="ytick_7">
     <g id="line2d_11">
      <g>
       <use xlink:href="#m05a8aebfdf" x="47.95" y="110.599432" style="stroke: #000000; stroke-width: 0.8"/>
      </g>
     </g>
     <g id="text_11">
      <!-- 0.165 -->
      <g transform="translate(10.848438 114.425213) scale(0.1 -0.1)">
       <use xlink:href="#DejaVuSansMono-30"/>
       <use xlink:href="#DejaVuSansMono-2e" x="60.205078"/>
       <use xlink:href="#DejaVuSansMono-31" x="120.410156"/>
       <use xlink:href="#DejaVuSansMono-36" x="180.615234"/>
       <use xlink:href="#DejaVuSansMono-35" x="240.820312"/>
      </g>
     </g>
    </g>
    <g id="ytick_8">
     <g id="line2d_12">
      <g>
       <use xlink:href="#m05a8aebfdf" x="47.95" y="62.991037" style="stroke: #000000; stroke-width: 0.8"/>
      </g>
     </g>
     <g id="text_12">
      <!-- 0.170 -->
      <g transform="translate(10.848438 66.816819) scale(0.1 -0.1)">
       <defs>
        <path id="DejaVuSansMono-37" d="M 434 4666 
L 3372 4666 
L 3372 4397 
L 1703 0 
L 1044 0 
L 2669 4134 
L 434 4134 
L 434 4666 
z
" transform="scale(0.015625)"/>
       </defs>
       <use xlink:href="#DejaVuSansMono-30"/>
       <use xlink:href="#DejaVuSansMono-2e" x="60.205078"/>
       <use xlink:href="#DejaVuSansMono-31" x="120.410156"/>
       <use xlink:href="#DejaVuSansMono-37" x="180.615234"/>
       <use xlink:href="#DejaVuSansMono-30" x="240.820312"/>
      </g>
     </g>
    </g>
    <g id="ytick_9">
     <g id="line2d_13">
      <g>
       <use xlink:href="#m05a8aebfdf" x="47.95" y="15.382642" style="stroke: #000000; stroke-width: 0.8"/>
      </g>
     </g>
     <g id="text_13">
      <!-- 0.175 -->
      <g transform="translate(10.848438 19.208424) scale(0.1 -0.1)">
       <use xlink:href="#DejaVuSansMono-30"/>
       <use xlink:href="#DejaVuSansMono-2e" x="60.205078"/>
       <use xlink:href="#DejaVuSansMono-31" x="120.410156"/>
       <use xlink:href="#DejaVuSansMono-37" x="180.615234"/>
       <use xlink:href="#DejaVuSansMono-35" x="240.820312"/>
      </g>
     </g>
    </g>
   </g>
   <g id="line2d_14">
    <path d="M 39.392614 44.718867 
L 40.248353 29.172063 
L 41.104091 65.930631 
L 41.95983 69.006377 
L 42.815569 73.433969 
L 43.671307 86.468969 
L 44.527046 102.37412 
L 45.382784 106.991771 
L 46.238523 157.246474 
L 47.094261 172.89723 
L 47.95 169.077174 
L 48.805739 154.6781 
L 49.661477 172.699701 
L 50.517216 166.080282 
L 51.372954 142.047537 
L 52.228693 157.266531 
L 53.084431 184.455665 
L 53.94017 184.986665 
L 55.651647 156.81492 
L 56.507386 164.104878 
L 57.363124 164.113862 
L 58.218863 139.608298 
L 59.074601 154.392397 
L 59.93034 142.620865 
L 60.786079 138.018997 
L 61.641817 145.089699 
L 62.497556 143.561906 
L 63.353294 120.536553 
L 64.209033 124.819619 
L 65.064772 112.743786 
L 65.92051 119.379281 
L 66.776249 147.882755 
L 67.631987 135.47047 
L 68.487726 132.536503 
L 69.343464 132.475998 
L 70.199203 136.104517 
L 71.054942 151.294928 
L 71.91068 161.606129 
L 72.766419 124.578041 
L 73.622157 115.620497 
L 74.477896 112.161215 
L 76.189373 96.570239 
L 77.045112 107.267696 
L 77.90085 108.844711 
L 78.756589 106.948333 
L 79.612327 101.72981 
L 80.468066 97.995911 
L 81.323804 95.620332 
L 82.179543 95.577935 
L 83.035282 108.542349 
L 83.89102 89.736316 
L 85.602497 88.130965 
L 86.458236 101.742571 
L 87.313974 104.720403 
L 88.169713 103.468375 
L 89.025452 89.164741 
L 89.88119 61.887925 
L 90.736929 41.462005 
L 91.592667 55.231658 
L 92.448406 41.568111 
L 93.304145 52.460335 
L 94.159883 98.49792 
L 95.015622 95.457026 
L 95.87136 70.317385 
L 96.727099 68.014773 
L 97.582837 73.62313 
L 98.438576 82.693665 
L 99.294315 88.513347 
L 100.150053 78.002144 
L 101.005792 85.80501 
L 101.86153 73.16113 
L 102.717269 83.659337 
L 103.573007 84.334209 
L 104.428746 83.633374 
L 105.284485 87.391102 
L 106.140223 97.100973 
L 106.995962 83.895641 
L 107.8517 87.652362 
L 108.707439 66.842988 
L 109.563177 67.873572 
L 110.418916 84.756707 
L 111.274655 79.919226 
L 112.130393 79.961642 
L 112.986132 79.35804 
L 113.84187 79.3031 
L 114.697609 82.81792 
L 116.409086 115.648161 
L 117.264825 117.624839 
L 118.120563 124.203056 
L 118.976302 114.425628 
L 119.83204 119.745779 
L 120.687779 118.239545 
L 121.543518 98.494219 
L 122.399256 103.943039 
L 123.254995 96.092891 
L 124.110733 100.934313 
L 124.966472 100.296351 
L 125.82221 102.186466 
L 126.677949 118.569856 
L 127.533688 71.135051 
L 128.389426 73.061208 
L 129.245165 75.692712 
L 130.100903 75.31983 
L 130.956642 77.050119 
L 131.81238 85.241957 
L 132.668119 105.185682 
L 133.523858 112.96333 
L 134.379596 100.627614 
L 135.235335 115.876902 
L 136.091073 115.249946 
L 136.946812 123.554531 
L 137.80255 95.508014 
L 138.658289 113.556661 
L 139.514028 114.494197 
L 140.369766 124.440375 
L 141.225505 116.587727 
L 142.081243 120.654034 
L 142.936982 127.422018 
L 144.648459 158.823416 
L 145.504198 156.907698 
L 146.359936 159.963943 
L 147.215675 160.140911 
L 148.071413 162.655687 
L 148.927152 157.488865 
L 150.638629 177.237419 
L 151.494368 196.796426 
L 152.350106 197.181864 
L 153.205845 187.187663 
L 154.061583 194.20937 
L 154.917322 194.640047 
L 155.773061 188.817752 
L 156.628799 188.235464 
L 157.484538 181.207605 
L 158.340276 200.299552 
L 159.196015 200.681888 
L 160.051753 211.51684 
L 160.907492 212.607148 
L 161.763231 234.999224 
L 162.618969 221.625124 
L 163.474708 219.437348 
L 164.330446 247.706704 
L 165.186185 238.636498 
L 166.041923 250.200116 
L 166.897662 255.092972 
L 167.753401 255.907589 
L 168.609139 255.546395 
L 169.464878 254.24893 
L 170.320616 302.169223 
L 171.176355 297.165796 
L 172.032094 297.57521 
L 172.887832 296.963624 
L 173.743571 297.015853 
L 174.599309 296.502891 
L 175.455048 295.573488 
L 176.310786 308.735988 
L 177.166525 306.121752 
L 178.022264 304.019924 
L 178.878002 282.442043 
L 179.733741 282.689381 
L 180.589479 298.773703 
L 181.445218 264.001106 
L 182.300956 262.15051 
L 183.156695 262.282093 
L 184.012434 269.843422 
L 184.868172 271.890809 
L 185.723911 272.444435 
L 186.579649 272.232715 
L 187.435388 269.49602 
L 188.291126 267.348133 
L 189.146865 264.333738 
L 190.002604 264.642098 
L 190.858342 264.512081 
L 191.714081 267.044947 
L 192.569819 272.820185 
L 193.425558 272.465042 
L 194.281296 252.166913 
L 195.137035 250.783259 
L 195.992774 261.065111 
L 196.848512 240.778273 
L 198.559989 230.732909 
L 199.415728 231.735591 
L 201.127205 239.545139 
L 201.982944 226.185393 
L 202.838682 229.114859 
L 203.694421 202.067152 
L 204.550159 155.548623 
L 205.405898 169.236365 
L 206.261637 169.208091 
L 207.117375 168.750113 
L 207.973114 174.664003 
L 208.828852 156.783972 
L 209.684591 151.639874 
L 210.540329 145.528821 
L 211.396068 143.115052 
L 212.251807 131.092539 
L 213.107545 129.768241 
L 213.963284 122.116479 
L 214.819022 121.061453 
L 215.674761 121.966591 
L 216.530499 118.771214 
L 217.386238 124.239818 
L 218.241977 126.014033 
L 219.097715 127.407499 
L 219.953454 120.087643 
L 220.809192 122.417513 
L 221.664931 143.289043 
L 222.52067 141.99045 
L 223.376408 154.449404 
L 224.232147 173.332341 
L 225.087885 175.899123 
L 225.943624 180.501109 
L 226.799362 183.56372 
L 227.655101 181.396957 
L 228.51084 182.530545 
L 229.366578 177.05327 
L 230.222317 172.727394 
L 231.078055 178.092724 
L 231.933794 180.676376 
L 232.789532 179.531025 
L 233.645271 179.662682 
L 234.50101 202.156959 
L 235.356748 199.57327 
L 236.212487 200.127022 
L 237.068225 182.481303 
L 237.923964 152.589981 
L 238.779702 148.448957 
L 239.635441 171.869054 
L 240.49118 153.274088 
L 241.346918 157.007883 
L 242.202657 147.907069 
L 243.058395 150.013304 
L 243.914134 147.508177 
L 245.625611 146.405514 
L 246.48135 173.062903 
L 247.337088 219.471948 
L 248.192827 218.758176 
L 249.048565 206.666707 
L 249.904304 190.301955 
L 250.760043 171.200959 
L 251.615781 170.353746 
L 252.47152 174.286855 
L 253.327258 180.117272 
L 254.182997 179.472409 
L 255.038735 192.504855 
L 255.894474 191.481687 
L 256.750213 200.305866 
L 257.605951 201.251898 
L 258.46169 197.574461 
L 259.317428 196.957898 
L 260.173167 189.373928 
L 261.028905 168.70219 
L 261.884644 153.168912 
L 262.740383 175.299978 
L 263.596121 168.6511 
L 264.45186 169.668164 
L 265.307598 163.11241 
L 266.163337 164.765598 
L 267.019075 181.3186 
L 267.874814 179.792867 
L 268.730553 177.688912 
L 269.586291 174.705904 
L 270.44203 178.761135 
L 271.297768 181.275325 
L 273.009245 194.535565 
L 273.864984 190.674392 
L 274.720723 185.814414 
L 275.576461 186.752324 
L 276.4322 185.767813 
L 277.287938 182.165469 
L 278.143677 174.856938 
L 278.999416 157.60974 
L 279.855154 196.760159 
L 280.710893 227.568377 
L 281.566631 225.511151 
L 282.42237 225.98585 
L 283.278108 249.637343 
L 284.133847 256.490643 
L 284.989586 261.48759 
L 285.845324 253.896109 
L 286.701063 256.031925 
L 287.556801 270.375097 
L 288.41254 269.352263 
L 289.268278 267.246715 
L 290.124017 266.253715 
L 290.979756 260.8542 
L 292.691233 288.674883 
L 293.546971 311.444635 
L 294.40271 329.499082 
L 295.258448 328.248085 
L 296.114187 326.577519 
L 296.969926 313.415549 
L 297.825664 293.397772 
L 298.681403 293.958731 
L 299.537141 291.051277 
L 300.39288 290.640448 
L 301.248618 294.549633 
L 302.104357 284.267861 
L 302.960096 293.327941 
L 303.815834 297.859179 
L 304.671573 307.38363 
L 305.527311 308.09749 
L 306.38305 315.647502 
L 307.238789 315.024913 
L 308.094527 319.368689 
L 308.950266 319.975315 
L 309.806004 316.427777 
L 310.661743 315.03794 
L 311.517481 308.505767 
L 312.37322 304.208649 
L 313.228959 304.102345 
L 314.084697 303.440949 
L 314.940436 302.388645 
L 315.796174 285.372657 
L 316.651913 289.394708 
L 317.507651 295.933549 
L 318.36339 293.828017 
L 319.219129 285.477774 
L 320.074867 288.690096 
L 320.930606 298.234419 
L 321.786344 312.835811 
L 322.642083 313.466713 
L 323.497821 303.363935 
L 324.35356 309.255423 
L 325.209299 291.042928 
L 326.065037 289.410478 
L 326.920776 280.934844 
L 327.776514 281.876645 
L 328.632253 291.019198 
L 329.487991 291.345836 
L 330.34373 274.736717 
L 331.199469 277.664517 
L 332.055207 279.304592 
L 332.910946 262.626613 
L 333.766684 266.500911 
L 334.622423 268.732989 
L 335.478162 264.38089 
L 336.3339 264.254737 
L 337.189639 263.116299 
L 338.901116 266.935317 
L 339.756854 277.196067 
L 340.612593 299.679817 
L 341.468332 284.444303 
L 342.32407 289.658228 
L 343.179809 271.225472 
L 344.035547 270.937744 
L 344.891286 277.491045 
L 345.747024 276.477376 
L 346.602763 299.555734 
L 347.458502 303.494967 
L 348.31424 293.764553 
L 349.169979 275.970953 
L 350.025717 277.555149 
L 350.881456 278.37695 
L 351.737194 277.517934 
L 352.592933 289.084485 
L 354.30441 267.504162 
L 356.015887 260.320854 
L 356.871626 261.082032 
L 357.727365 259.261682 
L 358.583103 276.014309 
L 359.438842 235.325961 
L 360.29458 233.006664 
L 361.150319 229.550669 
L 362.006057 237.845498 
L 362.861796 237.636243 
L 363.717535 238.020413 
L 364.573273 234.831492 
L 365.429012 228.191053 
L 366.28475 233.617804 
L 367.140489 232.214507 
L 367.996227 221.129964 
L 368.851966 217.127863 
L 369.707705 214.287006 
L 370.563443 217.525979 
L 371.419182 203.319062 
L 372.27492 199.245567 
L 373.130659 211.392924 
L 373.986397 193.893388 
L 374.842136 195.358104 
L 375.697875 211.878033 
L 376.553613 212.716894 
L 378.26509 175.80575 
L 379.120829 173.924697 
L 379.976567 152.338934 
L 380.832306 151.766682 
L 381.688045 151.466912 
L 382.543783 158.106222 
L 383.399522 142.194675 
L 384.25526 159.45763 
L 385.110999 160.825046 
L 385.966738 161.374268 
L 386.822476 161.557507 
L 388.533953 164.625492 
L 389.389692 151.006882 
L 390.24543 155.667722 
L 391.101169 165.558472 
L 391.956908 181.879479 
L 392.812646 177.556175 
L 393.668385 178.986241 
L 395.379862 164.906517 
L 396.2356 171.548996 
L 397.947078 197.23616 
L 398.802816 200.384316 
L 399.658555 190.405375 
L 400.514293 192.927143 
L 401.370032 191.880388 
L 402.22577 225.026111 
L 403.081509 225.380384 
L 403.937248 230.371487 
L 404.792986 226.31644 
L 405.648725 225.853401 
L 406.504463 218.769381 
L 407.360202 223.741631 
L 408.21594 230.459357 
L 409.071679 235.032594 
L 409.927418 236.527998 
L 410.783156 256.010654 
L 411.638895 254.159359 
L 412.494633 264.146545 
L 413.350372 262.937132 
L 414.206111 276.534189 
L 415.061849 278.130379 
L 415.917588 281.149979 
L 416.773326 297.886286 
L 417.629065 283.48737 
L 418.484803 282.302533 
L 419.340542 283.817189 
L 420.196281 301.005815 
L 421.052019 324.831417 
L 421.907758 325.27491 
L 422.763496 334.44204 
L 423.619235 333.454271 
L 424.474973 330.872116 
L 425.330712 328.918141 
L 426.186451 344.197349 
L 427.042189 332.557805 
L 427.897928 330.875764 
L 428.753666 336.012376 
L 429.609405 334.96333 
L 430.465143 312.048264 
L 431.320882 282.796725 
L 432.176621 296.459944 
L 433.032359 284.164851 
L 433.888098 282.340253 
L 434.743836 279.796847 
L 435.599575 283.77938 
L 436.455313 284.290759 
L 437.311052 292.563667 
L 438.166791 302.311977 
L 439.022529 310.753185 
L 439.878268 315.583214 
L 440.734006 313.662348 
L 441.589745 313.265277 
L 442.445484 305.416497 
L 443.301222 290.704452 
L 444.156961 291.07477 
L 445.012699 293.488141 
L 445.868438 277.201087 
L 446.724176 277.891471 
L 448.435654 270.055117 
L 449.291392 277.042906 
L 450.147131 272.348686 
L 451.002869 270.226259 
L 451.858608 258.310989 
L 452.714346 254.178547 
L 453.570085 264.44615 
L 454.425824 272.121701 
L 455.281562 268.005587 
L 456.137301 267.179399 
L 456.993039 250.291488 
L 457.848778 249.058039 
L 458.704516 246.578612 
L 459.560255 247.082075 
L 460.415994 260.577424 
L 461.271732 263.329331 
L 462.127471 258.511389 
L 462.983209 258.185441 
L 463.838948 259.403928 
L 464.694687 243.35258 
L 465.550425 257.648566 
L 466.406164 259.54525 
L 467.261902 256.333046 
L 468.117641 257.193987 
L 468.973379 250.471836 
L 469.829118 256.389244 
L 470.684857 255.88481 
L 471.540595 265.541187 
L 472.396334 266.055594 
L 473.252072 294.285158 
L 474.107811 309.7088 
L 474.963549 305.318264 
L 475.819288 303.369665 
L 476.675027 294.985811 
L 477.530765 299.1122 
L 478.386504 293.797768 
L 479.242242 291.737909 
L 480.097981 286.50227 
L 480.953719 270.848714 
L 481.809458 265.39536 
L 482.665197 265.196033 
L 483.520935 265.514869 
L 484.376674 266.296423 
L 485.232412 272.205032 
L 486.088151 285.696011 
L 486.943889 241.884318 
L 487.799628 243.013769 
L 488.655367 250.462152 
L 489.511105 247.281364 
L 490.366844 253.698199 
L 491.222582 258.281249 
L 492.078321 257.7234 
L 492.93406 258.335678 
L 493.789798 258.428272 
L 494.645537 266.173406 
L 495.501275 267.430734 
L 496.357014 263.739654 
L 497.212752 262.242967 
L 498.068491 259.309732 
L 498.92423 260.164093 
L 499.779968 277.709362 
L 500.635707 275.944861 
L 501.491445 270.439625 
L 502.347184 262.219034 
L 503.202922 262.908207 
L 504.058661 260.01814 
L 504.9144 257.959064 
L 505.770138 257.793233 
L 506.625877 258.130382 
L 507.481615 275.089462 
L 508.337354 270.498002 
L 509.193092 267.181147 
L 510.048831 268.85186 
L 510.90457 247.477748 
L 511.760308 254.835888 
L 512.616047 259.636371 
L 513.471785 258.245126 
L 514.327524 261.566608 
L 515.183262 256.442604 
L 516.039001 248.804142 
L 516.89474 254.799323 
L 517.750478 249.433991 
L 518.606217 263.174124 
L 519.461955 272.48448 
L 520.317694 272.229547 
L 521.173433 273.006547 
L 522.029171 276.009438 
L 522.88491 281.361549 
L 523.740648 295.634758 
L 524.596387 293.39337 
L 525.452125 287.036376 
L 526.307864 234.278855 
L 527.163603 232.203512 
L 528.019341 244.390395 
L 528.87508 246.328679 
L 529.730818 288.155525 
L 530.586557 275.93045 
L 531.442295 270.844343 
L 532.298034 263.988649 
L 533.153773 267.857787 
L 534.009511 256.840952 
L 534.86525 251.225313 
L 535.720988 233.901744 
L 536.576727 232.827463 
L 537.432465 225.35671 
L 538.288204 225.650969 
L 539.143943 219.639673 
L 539.999681 218.091051 
L 540.85542 222.170516 
L 541.711158 218.876408 
L 542.566897 218.897282 
L 544.278374 227.163437 
L 545.134113 235.68854 
L 545.989851 223.511055 
L 546.84559 219.161165 
L 547.701328 213.180661 
L 548.557067 213.616758 
L 549.412806 201.863744 
L 550.268544 192.014294 
L 551.124283 195.560434 
L 551.980021 198.464809 
L 552.83576 194.105841 
L 553.691498 216.002904 
L 554.547237 216.189979 
L 555.402976 193.582441 
L 556.258714 184.245044 
L 557.114453 182.911227 
L 557.970191 188.600396 
L 558.82593 196.874754 
L 559.681668 197.523947 
L 560.537407 206.877171 
L 561.393146 207.324559 
L 562.248884 199.341301 
L 563.104623 199.618432 
L 563.960361 203.655676 
L 564.8161 202.514727 
L 565.671838 199.673223 
L 566.527577 184.284987 
L 567.383316 188.313908 
L 568.239054 196.235413 
L 569.094793 234.827521 
L 569.950531 223.532093 
L 570.80627 223.090854 
L 572.517747 212.918226 
L 574.229224 243.891742 
L 575.084963 253.627411 
L 575.940701 253.642269 
L 576.79644 241.240739 
L 577.652179 247.247831 
L 578.507917 267.123559 
L 579.363656 270.380385 
L 580.219394 281.747081 
L 581.075133 281.988695 
L 581.930871 284.065529 
L 583.642349 288.974769 
L 584.498087 286.939363 
L 585.353826 285.647737 
L 586.209564 281.494262 
L 587.065303 285.904528 
L 587.921041 275.423051 
L 588.77678 286.193829 
L 589.632519 292.72194 
L 590.488257 303.944786 
L 591.343996 303.834292 
L 592.199734 314.475521 
L 593.055473 318.317339 
L 593.911211 319.065068 
L 594.76695 314.733256 
L 595.622689 323.583267 
L 596.478427 324.458994 
L 597.334166 324.683348 
L 598.189904 346.664877 
L 599.045643 360.13135 
L 599.901382 361.465974 
L 600.75712 361.469538 
L 601.612859 361.287471 
L 602.468597 368.286279 
L 603.324336 362.589541 
L 604.180074 360.575691 
L 605.035813 368.803397 
L 605.891552 344.832172 
L 606.74729 345.670381 
L 607.603029 316.966373 
L 608.458767 318.973021 
L 609.314506 330.603777 
L 610.170244 333.239728 
L 611.025983 332.091663 
L 612.73746 356.805519 
L 613.593199 356.086705 
L 614.448937 359.457799 
L 615.304676 366.459097 
L 616.160414 360.429702 
L 617.016153 360.05532 
L 617.871892 360.139855 
L 618.72763 354.386193 
L 619.583369 376.222435 
L 620.439107 376.460281 
L 621.294846 378.764856 
L 622.150584 369.08993 
L 623.006323 369.35051 
L 623.862062 371.765444 
L 624.7178 379.462983 
L 626.429277 365.651723 
L 627.285016 365.729694 
L 628.996493 368.270645 
L 629.852232 369.211404 
L 630.70797 373.754155 
L 631.563709 375.204453 
L 632.419447 374.186962 
L 633.275186 371.574769 
L 634.130925 365.465859 
L 634.986663 366.233307 
L 635.842402 370.272193 
L 636.69814 365.377874 
L 637.553879 369.885152 
L 638.409617 368.181468 
L 639.265356 368.572533 
L 640.121095 359.133913 
L 640.976833 357.480958 
L 641.832572 357.848791 
L 642.68831 356.250796 
L 643.544049 351.438602 
L 644.399787 351.177678 
L 645.255526 351.405099 
L 646.111265 357.281742 
L 646.967003 353.05493 
L 647.822742 347.897928 
L 648.67848 369.336617 
L 649.534219 343.681231 
L 650.389957 366.352439 
L 651.245696 359.472044 
L 652.101435 360.064524 
L 652.957173 361.30829 
L 653.812912 352.36091 
L 654.66865 354.749724 
L 655.524389 355.159736 
L 656.380128 344.7987 
L 657.235866 346.656905 
L 658.091605 345.002639 
L 658.947343 339.734605 
L 659.803082 340.19281 
L 660.65882 312.542057 
L 661.514559 315.981934 
L 662.370298 314.37548 
L 663.226036 313.107237 
L 664.081775 307.247833 
L 664.937513 311.867201 
L 665.793252 311.58947 
L 666.64899 310.345892 
L 667.504729 309.386369 
L 668.360468 316.249109 
L 669.216206 296.580597 
L 670.071945 292.046827 
L 670.927683 274.713526 
L 671.783422 279.280954 
L 672.63916 278.083275 
L 673.494899 282.118583 
L 674.350638 275.057738 
L 675.206376 275.432014 
L 676.062115 277.720893 
L 676.917853 283.183827 
L 677.773592 278.237096 
L 678.62933 280.177406 
L 679.485069 285.077113 
L 680.340808 281.700126 
L 681.196546 283.307454 
L 682.052285 282.713758 
L 682.908023 292.103507 
L 683.763762 269.291043 
L 684.619501 264.076807 
L 685.475239 265.766079 
L 686.330978 269.995744 
L 687.186716 270.541497 
L 688.042455 269.124188 
L 688.898193 264.738952 
L 689.753932 267.743384 
L 690.609671 272.002293 
L 691.465409 256.547184 
L 692.321148 278.882876 
L 693.176886 283.183816 
L 694.032625 290.564925 
L 694.888363 291.48004 
L 695.744102 290.340216 
L 696.599841 285.779633 
L 697.455579 284.098372 
L 698.311318 284.097379 
L 699.167056 287.462492 
L 700.022795 285.103405 
L 700.878533 287.546957 
L 701.734272 299.609799 
L 702.590011 297.738043 
L 703.445749 310.419747 
L 704.301488 304.87444 
L 705.157226 307.161356 
L 706.012965 299.079063 
L 706.868704 295.080625 
L 707.724442 284.560483 
L 708.580181 285.047163 
L 709.435919 284.617157 
L 711.147396 286.526938 
L 712.003135 295.480669 
L 712.858874 278.246561 
L 713.714612 288.420827 
L 714.570351 286.230964 
L 715.426089 269.819679 
L 716.281828 260.477356 
L 717.137566 266.531612 
L 717.993305 268.019915 
L 718.849044 268.86469 
L 719.704782 256.457875 
L 720.560521 261.51384 
L 721.416259 237.263687 
L 722.271998 237.368823 
L 723.127736 241.681408 
L 723.983475 238.270501 
L 724.839214 215.841825 
L 725.694952 214.533629 
L 726.550691 237.634127 
L 727.406429 219.615465 
L 728.262168 219.625466 
L 729.117906 220.01952 
L 729.973645 219.929944 
L 731.685122 215.672094 
L 732.540861 216.049971 
L 733.396599 208.225674 
L 734.252338 220.599217 
L 735.963815 226.214069 
L 736.819554 211.46937 
L 737.675292 213.956632 
L 738.531031 214.84157 
L 739.386769 202.879968 
L 740.242508 198.613514 
L 741.098247 198.412953 
L 741.953985 206.001805 
L 742.809724 196.953596 
L 743.665462 193.429961 
L 745.376939 187.293157 
L 746.232678 196.410775 
L 747.088417 202.594125 
L 747.944155 199.656322 
L 748.799894 187.901184 
L 749.655632 194.714707 
L 750.511371 188.95921 
L 751.367109 189.347638 
L 752.222848 188.739409 
L 753.078587 177.700098 
L 753.934325 177.593923 
L 754.790064 188.443347 
L 755.645802 215.338543 
L 756.501541 220.637422 
L 757.357279 221.714209 
L 758.213018 239.321853 
L 759.068757 248.997873 
L 759.924495 243.3161 
L 760.780234 241.926177 
L 761.635972 236.116679 
L 762.491711 242.735117 
L 763.34745 241.965859 
L 764.203188 262.21958 
L 765.058927 262.258444 
L 765.914665 261.035007 
L 766.770404 259.371992 
L 767.626142 279.796735 
L 768.481881 274.403696 
L 769.33762 271.488662 
L 770.193358 284.684713 
L 771.049097 274.985485 
L 771.904835 269.255792 
L 772.760574 268.670223 
L 773.616312 264.913825 
L 774.472051 271.570968 
L 775.32779 271.422685 
L 776.183528 279.448803 
L 777.039267 284.198822 
L 777.895005 275.56075 
L 779.606482 241.49742 
L 780.462221 242.326545 
L 781.31796 241.899458 
L 782.173698 261.542326 
L 783.029437 268.503314 
L 784.740914 261.959424 
L 785.596652 273.410376 
L 786.452391 276.095597 
L 787.30813 257.68411 
L 788.163868 257.579623 
L 789.019607 262.08528 
L 789.875345 263.028098 
L 790.731084 263.403242 
L 791.586823 283.067427 
L 792.442561 280.976062 
L 793.2983 301.671534 
L 794.154038 294.594586 
L 795.009777 296.734646 
L 795.865515 307.54596 
L 796.721254 307.762952 
L 797.576993 315.72526 
L 798.432731 317.227163 
L 799.28847 310.082139 
L 800.144208 311.116921 
L 800.999947 310.902762 
L 801.855685 311.507401 
L 802.711424 309.488669 
L 803.567163 308.882884 
L 804.422901 315.125252 
L 805.27864 322.445565 
L 806.134378 320.311944 
L 806.990117 321.771886 
L 807.845855 319.858834 
L 808.701594 310.736191 
L 809.557333 315.95625 
L 810.413071 317.228204 
L 811.26881 315.680082 
L 812.124548 317.52779 
L 812.980287 325.805082 
L 813.836026 332.676386 
L 814.691764 317.919639 
L 815.547503 318.231859 
L 816.403241 324.701024 
L 817.25898 313.897393 
L 818.114718 316.752439 
L 818.970457 317.116175 
L 819.826196 318.056685 
L 820.681934 327.059799 
L 821.537673 343.513846 
L 822.393411 371.346501 
L 823.24915 371.917473 
L 824.104888 372.151993 
L 824.960627 368.24843 
L 825.816366 362.9692 
L 827.527843 369.936762 
L 829.23932 367.567538 
L 830.095058 385.650939 
L 830.950797 386.265336 
L 831.806536 382.722474 
L 832.662274 368.314236 
L 833.518013 371.806963 
L 834.373751 373.346333 
L 835.22949 378.538811 
L 836.085228 357.236475 
L 836.940967 364.3796 
L 837.796706 358.440935 
L 838.652444 358.733851 
L 839.508183 358.902739 
L 840.363921 358.835553 
L 841.21966 355.89267 
L 842.075399 351.460861 
L 842.931137 345.131493 
L 843.786876 334.838607 
L 844.642614 331.127555 
L 845.498353 338.403161 
L 846.354091 335.707258 
L 847.20983 336.250176 
L 848.065569 335.977495 
L 848.921307 338.508 
L 849.777046 341.45362 
L 850.632784 321.940011 
L 851.488523 329.227373 
L 852.344261 328.6468 
L 852.344261 328.6468 
" clip-path="url(#p3bb7e75a76)" style="fill: none; stroke-dasharray: 7.4,3.2; stroke-dashoffset: 0; stroke: #000000; stroke-width: 2"/>
   </g>
   <g id="patch_3">
    <path d="M 47.95 404.12 
L 47.95 11.3174 
" style="fill: none; stroke: #000000; stroke-width: 0.8; stroke-linejoin: miter; stroke-linecap: square"/>
   </g>
   <g id="patch_4">
    <path d="M 853.2 404.12 
L 853.2 11.3174 
" style="fill: none; stroke: #000000; stroke-width: 0.8; stroke-linejoin: miter; stroke-linecap: square"/>
   </g>
   <g id="patch_5">
    <path d="M 47.95 404.12 
L 853.2 404.12 
" style="fill: none; stroke: #000000; stroke-width: 0.8; stroke-linejoin: miter; stroke-linecap: square"/>
   </g>
   <g id="patch_6">
    <path d="M 47.95 11.3174 
L 853.2 11.3174 
" style="fill: none; stroke: #000000; stroke-width: 0.8; stroke-linejoin: miter; stroke-linecap: square"/>
   </g>
  </g>
 </g>
 <defs>
  <clipPath id="p3bb7e75a76">
   <rect x="47.95" y="11.3174" width="805.25" height="392.8026"/>
  </clipPath>
 </defs>
</svg>
