<?xml version="1.0" encoding="utf-8" standalone="no"?>
<!DOCTYPE svg PUBLIC "-//W3C//DTD SVG 1.1//EN"
  "http://www.w3.org/Graphics/SVG/1.1/DTD/svg11.dtd">
<svg xmlns:xlink="http://www.w3.org/1999/xlink" width="864pt" height="360pt" viewBox="0 0 864 360" xmlns="http://www.w3.org/2000/svg" version="1.1">
 <metadata>
  <rdf:RDF xmlns:dc="http://purl.org/dc/elements/1.1/" xmlns:cc="http://creativecommons.org/ns#" xmlns:rdf="http://www.w3.org/1999/02/22-rdf-syntax-ns#">
   <cc:Work>
    <dc:type rdf:resource="http://purl.org/dc/dcmitype/StillImage"/>
    <dc:date>2024-09-16T23:39:17.595521</dc:date>
    <dc:format>image/svg+xml</dc:format>
    <dc:creator>
     <cc:Agent>
      <dc:title>Matplotlib v3.9.2, https://matplotlib.org/</dc:title>
     </cc:Agent>
    </dc:creator>
   </cc:Work>
  </rdf:RDF>
 </metadata>
 <defs>
  <style type="text/css">*{stroke-linejoin: round; stroke-linecap: butt}</style>
 </defs>
 <g id="figure_1">
  <g id="patch_1">
   <path d="M 0 360 
L 864 360 
L 864 0 
L 0 0 
z
" style="fill: #ffffff"/>
  </g>
  <g id="axes_1">
   <g id="patch_2">
    <path d="M 36.36 328.931379 
L 853.2 328.931379 
L 853.2 19.095517 
L 36.36 19.095517 
z
" style="fill: #ffffff"/>
   </g>
   <g id="patch_3">
    <path d="M 57.086695 308.204685 
L 71.967098 308.204685 
L 71.967098 293.324281 
L 57.086695 293.324281 
z
" clip-path="url(#p579bb51166)" style="stroke: #000000; stroke-linejoin: miter"/>
   </g>
   <g id="patch_4">
    <path d="M 85.382637 308.075638 
L 100.004949 308.075638 
L 100.004949 293.453327 
L 85.382637 293.453327 
z
" clip-path="url(#p579bb51166)" style="stroke: #000000; stroke-linejoin: miter"/>
   </g>
   <g id="patch_5">
    <path d="M 113.576167 308.049005 
L 128.145212 308.049005 
L 128.145212 293.47996 
L 113.576167 293.47996 
z
" clip-path="url(#p579bb51166)" style="stroke: #000000; stroke-linejoin: miter"/>
   </g>
   <g id="patch_6">
    <path d="M 141.792155 307.999914 
L 156.263018 307.999914 
L 156.263018 293.529051 
L 141.792155 293.529051 
z
" clip-path="url(#p579bb51166)" style="stroke: #000000; stroke-linejoin: miter"/>
   </g>
   <g id="patch_7">
    <path d="M 169.996601 307.962364 
L 184.392364 307.962364 
L 184.392364 293.566601 
L 169.996601 293.566601 
z
" clip-path="url(#p579bb51166)" style="stroke: #000000; stroke-linejoin: miter"/>
   </g>
   <g id="patch_8">
    <path d="M 199.89151 306.234352 
L 210.831249 306.234352 
L 210.831249 295.294613 
L 199.89151 295.294613 
z
" clip-path="url(#p579bb51166)" style="stroke: #000000; stroke-linejoin: miter"/>
   </g>
   <g id="patch_9">
    <path d="M 231.580352 302.712407 
L 235.4762 302.712407 
L 235.4762 298.816559 
L 231.580352 298.816559 
z
" clip-path="url(#p579bb51166)" style="stroke: #000000; stroke-linejoin: miter"/>
   </g>
   <g id="patch_10">
    <path d="M 259.666034 302.793621 
L 263.724311 302.793621 
L 263.724311 298.735344 
L 259.666034 298.735344 
z
" clip-path="url(#p579bb51166)" style="stroke: #000000; stroke-linejoin: miter"/>
   </g>
   <g id="patch_11">
    <path d="M 287.77887 302.847682 
L 291.945268 302.847682 
L 291.945268 298.681283 
L 287.77887 298.681283 
z
" clip-path="url(#p579bb51166)" style="stroke: #000000; stroke-linejoin: miter"/>
   </g>
   <g id="patch_12">
    <path d="M 315.99593 302.797518 
L 320.062001 302.797518 
L 320.062001 298.731447 
L 315.99593 298.731447 
z
" clip-path="url(#p579bb51166)" style="stroke: #000000; stroke-linejoin: miter"/>
   </g>
   <g id="patch_13">
    <path d="M 344.198136 302.762209 
L 348.193588 302.762209 
L 348.193588 298.766756 
L 344.198136 298.766756 
z
" clip-path="url(#p579bb51166)" style="stroke: #000000; stroke-linejoin: miter"/>
   </g>
   <g id="patch_14">
    <path d="M 372.506522 302.62072 
L 376.218995 302.62072 
L 376.218995 298.908246 
L 372.506522 298.908246 
z
" clip-path="url(#p579bb51166)" style="stroke: #000000; stroke-linejoin: miter"/>
   </g>
   <g id="patch_15">
    <path d="M 400.745737 302.548401 
L 404.313573 302.548401 
L 404.313573 298.980565 
L 400.745737 298.980565 
z
" clip-path="url(#p579bb51166)" style="stroke: #000000; stroke-linejoin: miter"/>
   </g>
   <g id="patch_16">
    <path d="M 429.009804 302.45123 
L 432.383299 302.45123 
L 432.383299 299.077735 
L 429.009804 299.077735 
z
" clip-path="url(#p579bb51166)" style="stroke: #000000; stroke-linejoin: miter"/>
   </g>
   <g id="patch_17">
    <path d="M 457.297264 302.330667 
L 460.429632 302.330667 
L 460.429632 299.198299 
L 457.297264 299.198299 
z
" clip-path="url(#p579bb51166)" style="stroke: #000000; stroke-linejoin: miter"/>
   </g>
   <g id="patch_18">
    <path d="M 485.551124 302.243704 
L 488.509566 302.243704 
L 488.509566 299.285262 
L 485.551124 299.285262 
z
" clip-path="url(#p579bb51166)" style="stroke: #000000; stroke-linejoin: miter"/>
   </g>
   <g id="patch_19">
    <path d="M 513.827864 302.13386 
L 516.566618 302.13386 
L 516.566618 299.395106 
L 513.827864 299.395106 
z
" clip-path="url(#p579bb51166)" style="stroke: #000000; stroke-linejoin: miter"/>
   </g>
   <g id="patch_20">
    <path d="M 542.061467 302.067154 
L 544.666809 302.067154 
L 544.666809 299.461812 
L 542.061467 299.461812 
z
" clip-path="url(#p579bb51166)" style="stroke: #000000; stroke-linejoin: miter"/>
   </g>
   <g id="patch_21">
    <path d="M 570.342823 301.952694 
L 572.719246 301.952694 
L 572.719246 299.576272 
L 570.342823 299.576272 
z
" clip-path="url(#p579bb51166)" style="stroke: #000000; stroke-linejoin: miter"/>
   </g>
   <g id="patch_22">
    <path d="M 598.552944 301.90947 
L 600.842919 301.90947 
L 600.842919 299.619495 
L 598.552944 299.619495 
z
" clip-path="url(#p579bb51166)" style="stroke: #000000; stroke-linejoin: miter"/>
   </g>
   <g id="patch_23">
    <path d="M 626.735154 301.894156 
L 628.994501 301.894156 
L 628.994501 299.63481 
L 626.735154 299.63481 
z
" clip-path="url(#p579bb51166)" style="stroke: #000000; stroke-linejoin: miter"/>
   </g>
   <g id="patch_24">
    <path d="M 655.054372 301.741835 
L 657.009076 301.741835 
L 657.009076 299.787131 
L 655.054372 299.787131 
z
" clip-path="url(#p579bb51166)" style="stroke: #000000; stroke-linejoin: miter"/>
   </g>
   <g id="patch_25">
    <path d="M 683.259157 301.703946 
L 685.138084 301.703946 
L 685.138084 299.825019 
L 683.259157 299.825019 
z
" clip-path="url(#p579bb51166)" style="stroke: #000000; stroke-linejoin: miter"/>
   </g>
   <g id="patch_26">
    <path d="M 711.437917 301.692083 
L 713.293117 301.692083 
L 713.293117 299.836883 
L 711.437917 299.836883 
z
" clip-path="url(#p579bb51166)" style="stroke: #000000; stroke-linejoin: miter"/>
   </g>
   <g id="patch_27">
    <path d="M 739.641867 301.655029 
L 741.42296 301.655029 
L 741.42296 299.873936 
L 739.641867 299.873936 
z
" clip-path="url(#p579bb51166)" style="stroke: #000000; stroke-linejoin: miter"/>
   </g>
   <g id="patch_28">
    <path d="M 767.914804 301.548989 
L 769.483817 301.548989 
L 769.483817 299.979976 
L 767.914804 299.979976 
z
" clip-path="url(#p579bb51166)" style="stroke: #000000; stroke-linejoin: miter"/>
   </g>
   <g id="patch_29">
    <path d="M 796.069253 301.561436 
L 797.66316 301.561436 
L 797.66316 299.967529 
L 796.069253 299.967529 
z
" clip-path="url(#p579bb51166)" style="stroke: #000000; stroke-linejoin: miter"/>
   </g>
   <g id="patch_30">
    <path d="M 57.969781 279.154702 
L 71.084012 279.154702 
L 71.084012 266.04047 
L 57.969781 266.04047 
z
" clip-path="url(#p579bb51166)" style="stroke: #000000; stroke-linejoin: miter"/>
   </g>
   <g id="patch_31">
    <path d="M 86.202704 279.088675 
L 99.184882 279.088675 
L 99.184882 266.106497 
L 86.202704 266.106497 
z
" clip-path="url(#p579bb51166)" style="stroke: #000000; stroke-linejoin: miter"/>
   </g>
   <g id="patch_32">
    <path d="M 114.399805 279.058471 
L 127.321574 279.058471 
L 127.321574 266.136702 
L 114.399805 266.136702 
z
" clip-path="url(#p579bb51166)" style="stroke: #000000; stroke-linejoin: miter"/>
   </g>
   <g id="patch_33">
    <path d="M 142.587757 279.037416 
L 155.467416 279.037416 
L 155.467416 266.157757 
L 142.587757 266.157757 
z
" clip-path="url(#p579bb51166)" style="stroke: #000000; stroke-linejoin: miter"/>
   </g>
   <g id="patch_34">
    <path d="M 170.792791 278.999278 
L 183.596175 278.999278 
L 183.596175 266.195894 
L 170.792791 266.195894 
z
" clip-path="url(#p579bb51166)" style="stroke: #000000; stroke-linejoin: miter"/>
   </g>
   <g id="patch_35">
    <path d="M 199.034328 278.924638 
L 211.688431 278.924638 
L 211.688431 266.270535 
L 199.034328 266.270535 
z
" clip-path="url(#p579bb51166)" style="stroke: #000000; stroke-linejoin: miter"/>
   </g>
   <g id="patch_36">
    <path d="M 227.492643 278.633219 
L 239.563908 278.633219 
L 239.563908 266.561954 
L 227.492643 266.561954 
z
" clip-path="url(#p579bb51166)" style="stroke: #000000; stroke-linejoin: miter"/>
   </g>
   <g id="patch_37">
    <path d="M 256.671216 277.621543 
L 266.719129 277.621543 
L 266.719129 267.57363 
L 256.671216 267.57363 
z
" clip-path="url(#p579bb51166)" style="stroke: #000000; stroke-linejoin: miter"/>
   </g>
   <g id="patch_38">
    <path d="M 286.063173 276.396482 
L 293.660965 276.396482 
L 293.660965 268.79869 
L 286.063173 268.79869 
z
" clip-path="url(#p579bb51166)" style="stroke: #000000; stroke-linejoin: miter"/>
   </g>
   <g id="patch_39">
    <path d="M 315.036147 275.590405 
L 321.021784 275.590405 
L 321.021784 269.604767 
L 315.036147 269.604767 
z
" clip-path="url(#p579bb51166)" style="stroke: #000000; stroke-linejoin: miter"/>
   </g>
   <g id="patch_40">
    <path d="M 343.651515 275.141933 
L 348.740209 275.141933 
L 348.740209 270.053239 
L 343.651515 270.053239 
z
" clip-path="url(#p579bb51166)" style="stroke: #000000; stroke-linejoin: miter"/>
   </g>
   <g id="patch_41">
    <path d="M 372.191033 274.769312 
L 376.534484 274.769312 
L 376.534484 270.425861 
L 372.191033 270.425861 
z
" clip-path="url(#p579bb51166)" style="stroke: #000000; stroke-linejoin: miter"/>
   </g>
   <g id="patch_42">
    <path d="M 400.571652 274.55559 
L 404.487659 274.55559 
L 404.487659 270.639583 
L 400.571652 270.639583 
z
" clip-path="url(#p579bb51166)" style="stroke: #000000; stroke-linejoin: miter"/>
   </g>
   <g id="patch_43">
    <path d="M 428.927207 274.366931 
L 432.465897 274.366931 
L 432.465897 270.828241 
L 428.927207 270.828241 
z
" clip-path="url(#p579bb51166)" style="stroke: #000000; stroke-linejoin: miter"/>
   </g>
   <g id="patch_44">
    <path d="M 457.226224 274.234811 
L 460.500673 274.234811 
L 460.500673 270.960362 
L 457.226224 270.960362 
z
" clip-path="url(#p579bb51166)" style="stroke: #000000; stroke-linejoin: miter"/>
   </g>
   <g id="patch_45">
    <path d="M 485.513781 274.11415 
L 488.546909 274.11415 
L 488.546909 271.081022 
L 485.513781 271.081022 
z
" clip-path="url(#p579bb51166)" style="stroke: #000000; stroke-linejoin: miter"/>
   </g>
   <g id="patch_46">
    <path d="M 513.807413 273.987414 
L 516.58707 273.987414 
L 516.58707 271.207758 
L 513.807413 271.207758 
z
" clip-path="url(#p579bb51166)" style="stroke: #000000; stroke-linejoin: miter"/>
   </g>
   <g id="patch_47">
    <path d="M 542.100315 273.861409 
L 544.62796 273.861409 
L 544.62796 271.333764 
L 542.100315 271.333764 
z
" clip-path="url(#p579bb51166)" style="stroke: #000000; stroke-linejoin: miter"/>
   </g>
   <g id="patch_48">
    <path d="M 570.324592 273.804028 
L 572.737477 273.804028 
L 572.737477 271.391144 
L 570.324592 271.391144 
z
" clip-path="url(#p579bb51166)" style="stroke: #000000; stroke-linejoin: miter"/>
   </g>
   <g id="patch_49">
    <path d="M 598.571799 273.723718 
L 600.824063 273.723718 
L 600.824063 271.471455 
L 598.571799 271.471455 
z
" clip-path="url(#p579bb51166)" style="stroke: #000000; stroke-linejoin: miter"/>
   </g>
   <g id="patch_50">
    <path d="M 626.803047 273.659367 
L 628.926608 273.659367 
L 628.926608 271.535806 
L 626.803047 271.535806 
z
" clip-path="url(#p579bb51166)" style="stroke: #000000; stroke-linejoin: miter"/>
   </g>
   <g id="patch_51">
    <path d="M 655.058491 273.57082 
L 657.004958 273.57082 
L 657.004958 271.624353 
L 655.058491 271.624353 
z
" clip-path="url(#p579bb51166)" style="stroke: #000000; stroke-linejoin: miter"/>
   </g>
   <g id="patch_52">
    <path d="M 683.251452 273.544755 
L 685.145789 273.544755 
L 685.145789 271.650418 
L 683.251452 271.650418 
z
" clip-path="url(#p579bb51166)" style="stroke: #000000; stroke-linejoin: miter"/>
   </g>
   <g id="patch_53">
    <path d="M 711.445919 273.517184 
L 713.285115 273.517184 
L 713.285115 271.677988 
L 711.445919 271.677988 
z
" clip-path="url(#p579bb51166)" style="stroke: #000000; stroke-linejoin: miter"/>
   </g>
   <g id="patch_54">
    <path d="M 739.64973 273.48027 
L 741.415098 273.48027 
L 741.415098 271.714902 
L 739.64973 271.714902 
z
" clip-path="url(#p579bb51166)" style="stroke: #000000; stroke-linejoin: miter"/>
   </g>
   <g id="patch_55">
    <path d="M 767.887931 273.408966 
L 769.51069 273.408966 
L 769.51069 271.786207 
L 767.887931 271.786207 
z
" clip-path="url(#p579bb51166)" style="stroke: #000000; stroke-linejoin: miter"/>
   </g>
   <g id="patch_56">
    <path d="M 796.113847 273.349946 
L 797.618567 273.349946 
L 797.618567 271.845226 
L 796.113847 271.845226 
z
" clip-path="url(#p579bb51166)" style="stroke: #000000; stroke-linejoin: miter"/>
   </g>
   <g id="patch_57">
    <path d="M 58.516379 250.441208 
L 70.537414 250.441208 
L 70.537414 238.420172 
L 58.516379 238.420172 
z
" clip-path="url(#p579bb51166)" style="stroke: #000000; stroke-linejoin: miter"/>
   </g>
   <g id="patch_58">
    <path d="M 86.77277 250.351713 
L 98.614816 250.351713 
L 98.614816 238.509667 
L 86.77277 238.509667 
z
" clip-path="url(#p579bb51166)" style="stroke: #000000; stroke-linejoin: miter"/>
   </g>
   <g id="patch_59">
    <path d="M 115.004262 250.287117 
L 126.717117 250.287117 
L 126.717117 238.574262 
L 115.004262 238.574262 
z
" clip-path="url(#p579bb51166)" style="stroke: #000000; stroke-linejoin: miter"/>
   </g>
   <g id="patch_60">
    <path d="M 143.166601 250.291675 
L 154.888572 250.291675 
L 154.888572 238.569704 
L 143.166601 238.569704 
z
" clip-path="url(#p579bb51166)" style="stroke: #000000; stroke-linejoin: miter"/>
   </g>
   <g id="patch_61">
    <path d="M 171.392455 250.232717 
L 182.996511 250.232717 
L 182.996511 238.628662 
L 171.392455 238.628662 
z
" clip-path="url(#p579bb51166)" style="stroke: #000000; stroke-linejoin: miter"/>
   </g>
   <g id="patch_62">
    <path d="M 199.667746 250.124323 
L 211.055013 250.124323 
L 211.055013 238.737056 
L 199.667746 238.737056 
z
" clip-path="url(#p579bb51166)" style="stroke: #000000; stroke-linejoin: miter"/>
   </g>
   <g id="patch_63">
    <path d="M 228.137305 249.82166 
L 238.919247 249.82166 
L 238.919247 239.039719 
L 228.137305 239.039719 
z
" clip-path="url(#p579bb51166)" style="stroke: #000000; stroke-linejoin: miter"/>
   </g>
   <g id="patch_64">
    <path d="M 256.806024 249.319838 
L 266.584321 249.319838 
L 266.584321 239.541541 
L 256.806024 239.541541 
z
" clip-path="url(#p579bb51166)" style="stroke: #000000; stroke-linejoin: miter"/>
   </g>
   <g id="patch_65">
    <path d="M 285.599246 248.693513 
L 294.124892 248.693513 
L 294.124892 240.167867 
L 285.599246 240.167867 
z
" clip-path="url(#p579bb51166)" style="stroke: #000000; stroke-linejoin: miter"/>
   </g>
   <g id="patch_66">
    <path d="M 314.441121 248.018534 
L 321.61681 248.018534 
L 321.61681 240.842845 
L 314.441121 240.842845 
z
" clip-path="url(#p579bb51166)" style="stroke: #000000; stroke-linejoin: miter"/>
   </g>
   <g id="patch_67">
    <path d="M 343.10181 247.524742 
L 349.289914 247.524742 
L 349.289914 241.336638 
L 343.10181 241.336638 
z
" clip-path="url(#p579bb51166)" style="stroke: #000000; stroke-linejoin: miter"/>
   </g>
   <g id="patch_68">
    <path d="M 371.70553 247.087918 
L 377.019987 247.087918 
L 377.019987 241.773461 
L 371.70553 241.773461 
z
" clip-path="url(#p579bb51166)" style="stroke: #000000; stroke-linejoin: miter"/>
   </g>
   <g id="patch_69">
    <path d="M 400.208777 246.751568 
L 404.850533 246.751568 
L 404.850533 242.109811 
L 400.208777 242.109811 
z
" clip-path="url(#p579bb51166)" style="stroke: #000000; stroke-linejoin: miter"/>
   </g>
   <g id="patch_70">
    <path d="M 428.662524 246.464717 
L 432.730579 246.464717 
L 432.730579 242.396662 
L 428.662524 242.396662 
z
" clip-path="url(#p579bb51166)" style="stroke: #000000; stroke-linejoin: miter"/>
   </g>
   <g id="patch_71">
    <path d="M 457.00703 246.287108 
L 460.719866 246.287108 
L 460.719866 242.574272 
L 457.00703 242.574272 
z
" clip-path="url(#p579bb51166)" style="stroke: #000000; stroke-linejoin: miter"/>
   </g>
   <g id="patch_72">
    <path d="M 485.271312 246.189723 
L 488.789378 246.189723 
L 488.789378 242.671656 
L 485.271312 242.671656 
z
" clip-path="url(#p579bb51166)" style="stroke: #000000; stroke-linejoin: miter"/>
   </g>
   <g id="patch_73">
    <path d="M 513.673335 245.954596 
L 516.721148 245.954596 
L 516.721148 242.906783 
L 513.673335 242.906783 
z
" clip-path="url(#p579bb51166)" style="stroke: #000000; stroke-linejoin: miter"/>
   </g>
   <g id="patch_74">
    <path d="M 541.932965 245.861863 
L 544.795311 245.861863 
L 544.795311 242.999517 
L 541.932965 242.999517 
z
" clip-path="url(#p579bb51166)" style="stroke: #000000; stroke-linejoin: miter"/>
   </g>
   <g id="patch_75">
    <path d="M 570.162235 245.799489 
L 572.899834 245.799489 
L 572.899834 243.06189 
L 570.162235 243.06189 
z
" clip-path="url(#p579bb51166)" style="stroke: #000000; stroke-linejoin: miter"/>
   </g>
   <g id="patch_76">
    <path d="M 598.46807 245.66055 
L 600.927792 245.66055 
L 600.927792 243.200829 
L 598.46807 243.200829 
z
" clip-path="url(#p579bb51166)" style="stroke: #000000; stroke-linejoin: miter"/>
   </g>
   <g id="patch_77">
    <path d="M 626.662926 245.632591 
L 629.066729 245.632591 
L 629.066729 243.228788 
L 626.662926 243.228788 
z
" clip-path="url(#p579bb51166)" style="stroke: #000000; stroke-linejoin: miter"/>
   </g>
   <g id="patch_78">
    <path d="M 654.984573 245.477841 
L 657.078876 245.477841 
L 657.078876 243.383538 
L 654.984573 243.383538 
z
" clip-path="url(#p579bb51166)" style="stroke: #000000; stroke-linejoin: miter"/>
   </g>
   <g id="patch_79">
    <path d="M 683.196651 245.432659 
L 685.20059 245.432659 
L 685.20059 243.42872 
L 683.196651 243.42872 
z
" clip-path="url(#p579bb51166)" style="stroke: #000000; stroke-linejoin: miter"/>
   </g>
   <g id="patch_80">
    <path d="M 711.352018 245.444188 
L 713.379016 245.444188 
L 713.379016 243.417191 
L 711.352018 243.417191 
z
" clip-path="url(#p579bb51166)" style="stroke: #000000; stroke-linejoin: miter"/>
   </g>
   <g id="patch_81">
    <path d="M 739.59609 245.367014 
L 741.468738 245.367014 
L 741.468738 243.494365 
L 739.59609 243.494365 
z
" clip-path="url(#p579bb51166)" style="stroke: #000000; stroke-linejoin: miter"/>
   </g>
   <g id="patch_82">
    <path d="M 767.833611 245.296389 
L 769.56501 245.296389 
L 769.56501 243.56499 
L 767.833611 243.56499 
z
" clip-path="url(#p579bb51166)" style="stroke: #000000; stroke-linejoin: miter"/>
   </g>
   <g id="patch_83">
    <path d="M 796.025878 245.271019 
L 797.706536 245.271019 
L 797.706536 243.59036 
L 796.025878 243.59036 
z
" clip-path="url(#p579bb51166)" style="stroke: #000000; stroke-linejoin: miter"/>
   </g>
   <g id="patch_84">
    <path d="M 58.695984 222.094705 
L 70.357809 222.094705 
L 70.357809 210.432881 
L 58.695984 210.432881 
z
" clip-path="url(#p579bb51166)" style="stroke: #000000; stroke-linejoin: miter"/>
   </g>
   <g id="patch_85">
    <path d="M 86.896777 222.060809 
L 98.490809 222.060809 
L 98.490809 210.466777 
L 86.896777 210.466777 
z
" clip-path="url(#p579bb51166)" style="stroke: #000000; stroke-linejoin: miter"/>
   </g>
   <g id="patch_86">
    <path d="M 115.149465 221.975017 
L 126.571914 221.975017 
L 126.571914 210.552569 
L 115.149465 210.552569 
z
" clip-path="url(#p579bb51166)" style="stroke: #000000; stroke-linejoin: miter"/>
   </g>
   <g id="patch_87">
    <path d="M 143.326473 221.964906 
L 154.728699 221.964906 
L 154.728699 210.56268 
L 143.326473 210.56268 
z
" clip-path="url(#p579bb51166)" style="stroke: #000000; stroke-linejoin: miter"/>
   </g>
   <g id="patch_88">
    <path d="M 171.508826 221.94945 
L 182.88014 221.94945 
L 182.88014 210.578136 
L 171.508826 210.578136 
z
" clip-path="url(#p579bb51166)" style="stroke: #000000; stroke-linejoin: miter"/>
   </g>
   <g id="patch_89">
    <path d="M 199.765592 221.85958 
L 210.957166 221.85958 
L 210.957166 210.668006 
L 199.765592 210.668006 
z
" clip-path="url(#p579bb51166)" style="stroke: #000000; stroke-linejoin: miter"/>
   </g>
   <g id="patch_90">
    <path d="M 228.073175 221.718894 
L 238.983377 221.718894 
L 238.983377 210.808692 
L 228.073175 210.808692 
z
" clip-path="url(#p579bb51166)" style="stroke: #000000; stroke-linejoin: miter"/>
   </g>
   <g id="patch_91">
    <path d="M 256.566124 221.392842 
L 266.824221 221.392842 
L 266.824221 211.134744 
L 256.566124 211.134744 
z
" clip-path="url(#p579bb51166)" style="stroke: #000000; stroke-linejoin: miter"/>
   </g>
   <g id="patch_92">
    <path d="M 285.19484 220.931022 
L 294.529298 220.931022 
L 294.529298 211.596564 
L 285.19484 211.596564 
z
" clip-path="url(#p579bb51166)" style="stroke: #000000; stroke-linejoin: miter"/>
   </g>
   <g id="patch_93">
    <path d="M 313.833708 220.459051 
L 322.224223 220.459051 
L 322.224223 212.068536 
L 313.833708 212.068536 
z
" clip-path="url(#p579bb51166)" style="stroke: #000000; stroke-linejoin: miter"/>
   </g>
   <g id="patch_94">
    <path d="M 342.550534 219.909121 
L 349.84119 219.909121 
L 349.84119 212.618465 
L 342.550534 212.618465 
z
" clip-path="url(#p579bb51166)" style="stroke: #000000; stroke-linejoin: miter"/>
   </g>
   <g id="patch_95">
    <path d="M 371.224607 219.401944 
L 377.50091 219.401944 
L 377.50091 213.125642 
L 371.224607 213.125642 
z
" clip-path="url(#p579bb51166)" style="stroke: #000000; stroke-linejoin: miter"/>
   </g>
   <g id="patch_96">
    <path d="M 399.839519 218.953929 
L 405.219791 218.953929 
L 405.219791 213.573657 
L 399.839519 213.573657 
z
" clip-path="url(#p579bb51166)" style="stroke: #000000; stroke-linejoin: miter"/>
   </g>
   <g id="patch_97">
    <path d="M 428.329613 218.630732 
L 433.06349 218.630732 
L 433.06349 213.896854 
L 428.329613 213.896854 
z
" clip-path="url(#p579bb51166)" style="stroke: #000000; stroke-linejoin: miter"/>
   </g>
   <g id="patch_98">
    <path d="M 456.766706 218.360536 
L 460.960191 218.360536 
L 460.960191 214.167051 
L 456.766706 214.167051 
z
" clip-path="url(#p579bb51166)" style="stroke: #000000; stroke-linejoin: miter"/>
   </g>
   <g id="patch_99">
    <path d="M 485.078929 218.215209 
L 488.98176 218.215209 
L 488.98176 214.312377 
L 485.078929 214.312377 
z
" clip-path="url(#p579bb51166)" style="stroke: #000000; stroke-linejoin: miter"/>
   </g>
   <g id="patch_100">
    <path d="M 513.460665 218.00037 
L 516.933818 218.00037 
L 516.933818 214.527216 
L 513.460665 214.527216 
z
" clip-path="url(#p579bb51166)" style="stroke: #000000; stroke-linejoin: miter"/>
   </g>
   <g id="patch_101">
    <path d="M 541.754228 217.873703 
L 544.974048 217.873703 
L 544.974048 214.653883 
L 541.754228 214.653883 
z
" clip-path="url(#p579bb51166)" style="stroke: #000000; stroke-linejoin: miter"/>
   </g>
   <g id="patch_102">
    <path d="M 570.047291 217.747536 
L 573.014778 217.747536 
L 573.014778 214.78005 
L 570.047291 214.78005 
z
" clip-path="url(#p579bb51166)" style="stroke: #000000; stroke-linejoin: miter"/>
   </g>
   <g id="patch_103">
    <path d="M 598.343377 217.618347 
L 601.052485 217.618347 
L 601.052485 214.909239 
L 598.343377 214.909239 
z
" clip-path="url(#p579bb51166)" style="stroke: #000000; stroke-linejoin: miter"/>
   </g>
   <g id="patch_104">
    <path d="M 626.530341 217.59828 
L 629.199315 217.59828 
L 629.199315 214.929306 
L 626.530341 214.929306 
z
" clip-path="url(#p579bb51166)" style="stroke: #000000; stroke-linejoin: miter"/>
   </g>
   <g id="patch_105">
    <path d="M 654.841401 217.454116 
L 657.222047 217.454116 
L 657.222047 215.07347 
L 654.841401 215.07347 
z
" clip-path="url(#p579bb51166)" style="stroke: #000000; stroke-linejoin: miter"/>
   </g>
   <g id="patch_106">
    <path d="M 683.04948 217.412933 
L 685.347761 217.412933 
L 685.347761 215.114653 
L 683.04948 215.114653 
z
" clip-path="url(#p579bb51166)" style="stroke: #000000; stroke-linejoin: miter"/>
   </g>
   <g id="patch_107">
    <path d="M 711.297648 217.331663 
L 713.433387 217.331663 
L 713.433387 215.195924 
L 711.297648 215.195924 
z
" clip-path="url(#p579bb51166)" style="stroke: #000000; stroke-linejoin: miter"/>
   </g>
   <g id="patch_108">
    <path d="M 739.513953 217.282254 
L 741.550874 217.282254 
L 741.550874 215.245333 
L 739.513953 215.245333 
z
" clip-path="url(#p579bb51166)" style="stroke: #000000; stroke-linejoin: miter"/>
   </g>
   <g id="patch_109">
    <path d="M 767.748982 217.214122 
L 769.649639 217.214122 
L 769.649639 215.313465 
L 767.748982 215.313465 
z
" clip-path="url(#p579bb51166)" style="stroke: #000000; stroke-linejoin: miter"/>
   </g>
   <g id="patch_110">
    <path d="M 795.969428 217.160572 
L 797.762986 217.160572 
L 797.762986 215.367014 
L 795.969428 215.367014 
z
" clip-path="url(#p579bb51166)" style="stroke: #000000; stroke-linejoin: miter"/>
   </g>
   <g id="patch_111">
    <path d="M 58.68935 193.934444 
L 70.364444 193.934444 
L 70.364444 182.25935 
L 58.68935 182.25935 
z
" clip-path="url(#p579bb51166)" style="stroke: #000000; stroke-linejoin: miter"/>
   </g>
   <g id="patch_112">
    <path d="M 87.086494 193.704195 
L 98.301092 193.704195 
L 98.301092 182.489598 
L 87.086494 182.489598 
z
" clip-path="url(#p579bb51166)" style="stroke: #000000; stroke-linejoin: miter"/>
   </g>
   <g id="patch_113">
    <path d="M 115.304534 193.653052 
L 126.416845 193.653052 
L 126.416845 182.540741 
L 115.304534 182.540741 
z
" clip-path="url(#p579bb51166)" style="stroke: #000000; stroke-linejoin: miter"/>
   </g>
   <g id="patch_114">
    <path d="M 143.502384 193.622099 
L 154.552788 193.622099 
L 154.552788 182.571694 
L 143.502384 182.571694 
z
" clip-path="url(#p579bb51166)" style="stroke: #000000; stroke-linejoin: miter"/>
   </g>
   <g id="patch_115">
    <path d="M 171.733548 193.557832 
L 182.655418 193.557832 
L 182.655418 182.635962 
L 171.733548 182.635962 
z
" clip-path="url(#p579bb51166)" style="stroke: #000000; stroke-linejoin: miter"/>
   </g>
   <g id="patch_116">
    <path d="M 199.985371 193.472904 
L 210.737387 193.472904 
L 210.737387 182.720889 
L 199.985371 182.720889 
z
" clip-path="url(#p579bb51166)" style="stroke: #000000; stroke-linejoin: miter"/>
   </g>
   <g id="patch_117">
    <path d="M 228.312599 193.312573 
L 238.743953 193.312573 
L 238.743953 182.88122 
L 228.312599 182.88122 
z
" clip-path="url(#p579bb51166)" style="stroke: #000000; stroke-linejoin: miter"/>
   </g>
   <g id="patch_118">
    <path d="M 256.886328 192.905741 
L 266.504017 192.905741 
L 266.504017 183.288052 
L 256.886328 183.288052 
z
" clip-path="url(#p579bb51166)" style="stroke: #000000; stroke-linejoin: miter"/>
   </g>
   <g id="patch_119">
    <path d="M 285.588385 192.37058 
L 294.135753 192.37058 
L 294.135753 183.823213 
L 285.588385 183.823213 
z
" clip-path="url(#p579bb51166)" style="stroke: #000000; stroke-linejoin: miter"/>
   </g>
   <g id="patch_120">
    <path d="M 314.311629 191.814234 
L 321.746302 191.814234 
L 321.746302 184.37956 
L 314.311629 184.37956 
z
" clip-path="url(#p579bb51166)" style="stroke: #000000; stroke-linejoin: miter"/>
   </g>
   <g id="patch_121">
    <path d="M 342.93775 191.355008 
L 349.453974 191.355008 
L 349.453974 184.838785 
L 342.93775 184.838785 
z
" clip-path="url(#p579bb51166)" style="stroke: #000000; stroke-linejoin: miter"/>
   </g>
   <g id="patch_122">
    <path d="M 371.491921 190.967735 
L 377.233597 190.967735 
L 377.233597 185.226059 
L 371.491921 185.226059 
z
" clip-path="url(#p579bb51166)" style="stroke: #000000; stroke-linejoin: miter"/>
   </g>
   <g id="patch_123">
    <path d="M 400.012702 190.61385 
L 405.046609 190.61385 
L 405.046609 185.579943 
L 400.012702 185.579943 
z
" clip-path="url(#p579bb51166)" style="stroke: #000000; stroke-linejoin: miter"/>
   </g>
   <g id="patch_124">
    <path d="M 428.412593 190.380855 
L 432.98051 190.380855 
L 432.98051 185.812938 
L 428.412593 185.812938 
z
" clip-path="url(#p579bb51166)" style="stroke: #000000; stroke-linejoin: miter"/>
   </g>
   <g id="patch_125">
    <path d="M 456.798118 190.162227 
L 460.928778 190.162227 
L 460.928778 186.031567 
L 456.798118 186.031567 
z
" clip-path="url(#p579bb51166)" style="stroke: #000000; stroke-linejoin: miter"/>
   </g>
   <g id="patch_126">
    <path d="M 485.15672 189.970521 
L 488.90397 189.970521 
L 488.90397 186.223272 
L 485.15672 186.223272 
z
" clip-path="url(#p579bb51166)" style="stroke: #000000; stroke-linejoin: miter"/>
   </g>
   <g id="patch_127">
    <path d="M 513.461194 189.832944 
L 516.933289 189.832944 
L 516.933289 186.360849 
L 513.461194 186.360849 
z
" clip-path="url(#p579bb51166)" style="stroke: #000000; stroke-linejoin: miter"/>
   </g>
   <g id="patch_128">
    <path d="M 541.783331 189.677703 
L 544.944945 189.677703 
L 544.944945 186.51609 
L 541.783331 186.51609 
z
" clip-path="url(#p579bb51166)" style="stroke: #000000; stroke-linejoin: miter"/>
   </g>
   <g id="patch_129">
    <path d="M 570.065847 189.562084 
L 572.996222 189.562084 
L 572.996222 186.631709 
L 570.065847 186.631709 
z
" clip-path="url(#p579bb51166)" style="stroke: #000000; stroke-linejoin: miter"/>
   </g>
   <g id="patch_130">
    <path d="M 598.363225 189.431602 
L 601.032637 189.431602 
L 601.032637 186.762191 
L 598.363225 186.762191 
z
" clip-path="url(#p579bb51166)" style="stroke: #000000; stroke-linejoin: miter"/>
   </g>
   <g id="patch_131">
    <path d="M 626.550206 189.411519 
L 629.17945 189.411519 
L 629.17945 186.782275 
L 626.550206 186.782275 
z
" clip-path="url(#p579bb51166)" style="stroke: #000000; stroke-linejoin: miter"/>
   </g>
   <g id="patch_132">
    <path d="M 654.864876 189.263745 
L 657.198573 189.263745 
L 657.198573 186.930048 
L 654.864876 186.930048 
z
" clip-path="url(#p579bb51166)" style="stroke: #000000; stroke-linejoin: miter"/>
   </g>
   <g id="patch_133">
    <path d="M 683.075738 189.219779 
L 685.321503 189.219779 
L 685.321503 186.974014 
L 683.075738 186.974014 
z
" clip-path="url(#p579bb51166)" style="stroke: #000000; stroke-linejoin: miter"/>
   </g>
   <g id="patch_134">
    <path d="M 711.234703 189.22771 
L 713.496331 189.22771 
L 713.496331 186.966083 
L 711.234703 186.966083 
z
" clip-path="url(#p579bb51166)" style="stroke: #000000; stroke-linejoin: miter"/>
   </g>
   <g id="patch_135">
    <path d="M 739.531317 189.097994 
L 741.533511 189.097994 
L 741.533511 187.0958 
L 739.531317 187.0958 
z
" clip-path="url(#p579bb51166)" style="stroke: #000000; stroke-linejoin: miter"/>
   </g>
   <g id="patch_136">
    <path d="M 767.743676 189.052531 
L 769.654945 189.052531 
L 769.654945 187.141262 
L 767.743676 187.141262 
z
" clip-path="url(#p579bb51166)" style="stroke: #000000; stroke-linejoin: miter"/>
   </g>
   <g id="patch_137">
    <path d="M 795.946577 189.016526 
L 797.785836 189.016526 
L 797.785836 187.177267 
L 795.946577 187.177267 
z
" clip-path="url(#p579bb51166)" style="stroke: #000000; stroke-linejoin: miter"/>
   </g>
   <g id="patch_138">
    <path d="M 58.83794 165.618957 
L 70.215853 165.618957 
L 70.215853 154.241043 
L 58.83794 154.241043 
z
" clip-path="url(#p579bb51166)" style="stroke: #000000; stroke-linejoin: miter"/>
   </g>
   <g id="patch_139">
    <path d="M 87.147629 165.476164 
L 98.239958 165.476164 
L 98.239958 154.383836 
L 87.147629 154.383836 
z
" clip-path="url(#p579bb51166)" style="stroke: #000000; stroke-linejoin: miter"/>
   </g>
   <g id="patch_140">
    <path d="M 115.362247 165.428443 
L 126.359133 165.428443 
L 126.359133 154.431557 
L 115.362247 154.431557 
z
" clip-path="url(#p579bb51166)" style="stroke: #000000; stroke-linejoin: miter"/>
   </g>
   <g id="patch_141">
    <path d="M 143.589091 165.368495 
L 154.466081 165.368495 
L 154.466081 154.491505 
L 143.589091 154.491505 
z
" clip-path="url(#p579bb51166)" style="stroke: #000000; stroke-linejoin: miter"/>
   </g>
   <g id="patch_142">
    <path d="M 171.771344 165.353138 
L 182.617621 165.353138 
L 182.617621 154.506862 
L 171.771344 154.506862 
z
" clip-path="url(#p579bb51166)" style="stroke: #000000; stroke-linejoin: miter"/>
   </g>
   <g id="patch_143">
    <path d="M 200.001831 165.289549 
L 210.720928 165.289549 
L 210.720928 154.570451 
L 200.001831 154.570451 
z
" clip-path="url(#p579bb51166)" style="stroke: #000000; stroke-linejoin: miter"/>
   </g>
   <g id="patch_144">
    <path d="M 228.404997 165.053279 
L 238.651555 165.053279 
L 238.651555 154.806721 
L 228.404997 154.806721 
z
" clip-path="url(#p579bb51166)" style="stroke: #000000; stroke-linejoin: miter"/>
   </g>
   <g id="patch_145">
    <path d="M 256.934866 164.690307 
L 266.455479 164.690307 
L 266.455479 155.169693 
L 256.934866 155.169693 
z
" clip-path="url(#p579bb51166)" style="stroke: #000000; stroke-linejoin: miter"/>
   </g>
   <g id="patch_146">
    <path d="M 285.508043 164.284026 
L 294.216095 164.284026 
L 294.216095 155.575974 
L 285.508043 155.575974 
z
" clip-path="url(#p579bb51166)" style="stroke: #000000; stroke-linejoin: miter"/>
   </g>
   <g id="patch_147">
    <path d="M 314.219911 163.739055 
L 321.83802 163.739055 
L 321.83802 156.120945 
L 314.219911 156.120945 
z
" clip-path="url(#p579bb51166)" style="stroke: #000000; stroke-linejoin: miter"/>
   </g>
   <g id="patch_148">
    <path d="M 342.794991 163.330871 
L 349.596733 163.330871 
L 349.596733 156.529129 
L 342.794991 156.529129 
z
" clip-path="url(#p579bb51166)" style="stroke: #000000; stroke-linejoin: miter"/>
   </g>
   <g id="patch_149">
    <path d="M 371.389385 162.903373 
L 377.336132 162.903373 
L 377.336132 156.956627 
L 371.389385 156.956627 
z
" clip-path="url(#p579bb51166)" style="stroke: #000000; stroke-linejoin: miter"/>
   </g>
   <g id="patch_150">
    <path d="M 399.926508 162.533147 
L 405.132802 162.533147 
L 405.132802 157.326853 
L 399.926508 157.326853 
z
" clip-path="url(#p579bb51166)" style="stroke: #000000; stroke-linejoin: miter"/>
   </g>
   <g id="patch_151">
    <path d="M 428.359658 162.266894 
L 433.033446 162.266894 
L 433.033446 157.593106 
L 428.359658 157.593106 
z
" clip-path="url(#p579bb51166)" style="stroke: #000000; stroke-linejoin: miter"/>
   </g>
   <g id="patch_152">
    <path d="M 456.746724 162.046724 
L 460.980172 162.046724 
L 460.980172 157.813276 
L 456.746724 157.813276 
z
" clip-path="url(#p579bb51166)" style="stroke: #000000; stroke-linejoin: miter"/>
   </g>
   <g id="patch_153">
    <path d="M 485.085392 161.874953 
L 488.975298 161.874953 
L 488.975298 157.985047 
L 485.085392 157.985047 
z
" clip-path="url(#p579bb51166)" style="stroke: #000000; stroke-linejoin: miter"/>
   </g>
   <g id="patch_154">
    <path d="M 513.427771 161.69947 
L 516.966711 161.69947 
L 516.966711 158.16053 
L 513.427771 158.16053 
z
" clip-path="url(#p579bb51166)" style="stroke: #000000; stroke-linejoin: miter"/>
   </g>
   <g id="patch_155">
    <path d="M 541.757682 161.536456 
L 544.970594 161.536456 
L 544.970594 158.323544 
L 541.757682 158.323544 
z
" clip-path="url(#p579bb51166)" style="stroke: #000000; stroke-linejoin: miter"/>
   </g>
   <g id="patch_156">
    <path d="M 570.019011 161.442023 
L 573.043058 161.442023 
L 573.043058 158.417977 
L 570.019011 158.417977 
z
" clip-path="url(#p579bb51166)" style="stroke: #000000; stroke-linejoin: miter"/>
   </g>
   <g id="patch_157">
    <path d="M 598.290724 161.337207 
L 601.105138 161.337207 
L 601.105138 158.522793 
L 598.290724 158.522793 
z
" clip-path="url(#p579bb51166)" style="stroke: #000000; stroke-linejoin: miter"/>
   </g>
   <g id="patch_158">
    <path d="M 626.526137 161.268691 
L 629.203519 161.268691 
L 629.203519 158.591309 
L 626.526137 158.591309 
z
" clip-path="url(#p579bb51166)" style="stroke: #000000; stroke-linejoin: miter"/>
   </g>
   <g id="patch_159">
    <path d="M 654.832975 161.128749 
L 657.230474 161.128749 
L 657.230474 158.731251 
L 654.832975 158.731251 
z
" clip-path="url(#p579bb51166)" style="stroke: #000000; stroke-linejoin: miter"/>
   </g>
   <g id="patch_160">
    <path d="M 683.042221 161.0864 
L 685.35502 161.0864 
L 685.35502 158.7736 
L 683.042221 158.7736 
z
" clip-path="url(#p579bb51166)" style="stroke: #000000; stroke-linejoin: miter"/>
   </g>
   <g id="patch_161">
    <path d="M 711.273021 161.022496 
L 713.458013 161.022496 
L 713.458013 158.837504 
L 711.273021 158.837504 
z
" clip-path="url(#p579bb51166)" style="stroke: #000000; stroke-linejoin: miter"/>
   </g>
   <g id="patch_162">
    <path d="M 739.441858 161.020556 
L 741.622969 161.020556 
L 741.622969 158.839444 
L 739.441858 158.839444 
z
" clip-path="url(#p579bb51166)" style="stroke: #000000; stroke-linejoin: miter"/>
   </g>
   <g id="patch_163">
    <path d="M 767.706778 160.922533 
L 769.691843 160.922533 
L 769.691843 158.937467 
L 767.706778 158.937467 
z
" clip-path="url(#p579bb51166)" style="stroke: #000000; stroke-linejoin: miter"/>
   </g>
   <g id="patch_164">
    <path d="M 795.918873 160.877334 
L 797.81354 160.877334 
L 797.81354 158.982666 
L 795.918873 158.982666 
z
" clip-path="url(#p579bb51166)" style="stroke: #000000; stroke-linejoin: miter"/>
   </g>
   <g id="patch_165">
    <path d="M 58.615623 137.674377 
L 70.43817 137.674377 
L 70.43817 125.85183 
L 58.615623 125.85183 
z
" clip-path="url(#p579bb51166)" style="stroke: #000000; stroke-linejoin: miter"/>
   </g>
   <g id="patch_166">
    <path d="M 87.320768 137.136128 
L 98.066818 137.136128 
L 98.066818 126.390079 
L 87.320768 126.390079 
z
" clip-path="url(#p579bb51166)" style="stroke: #000000; stroke-linejoin: miter"/>
   </g>
   <g id="patch_167">
    <path d="M 115.476944 137.146849 
L 126.244435 137.146849 
L 126.244435 126.379358 
L 115.476944 126.379358 
z
" clip-path="url(#p579bb51166)" style="stroke: #000000; stroke-linejoin: miter"/>
   </g>
   <g id="patch_168">
    <path d="M 143.797582 136.993107 
L 154.25759 136.993107 
L 154.25759 126.5331 
L 143.797582 126.5331 
z
" clip-path="url(#p579bb51166)" style="stroke: #000000; stroke-linejoin: miter"/>
   </g>
   <g id="patch_169">
    <path d="M 171.997564 136.960023 
L 182.391402 136.960023 
L 182.391402 126.566184 
L 171.997564 126.566184 
z
" clip-path="url(#p579bb51166)" style="stroke: #000000; stroke-linejoin: miter"/>
   </g>
   <g id="patch_170">
    <path d="M 200.213857 136.910626 
L 210.508902 136.910626 
L 210.508902 126.615581 
L 200.213857 126.615581 
z
" clip-path="url(#p579bb51166)" style="stroke: #000000; stroke-linejoin: miter"/>
   </g>
   <g id="patch_171">
    <path d="M 228.537351 136.754028 
L 238.519201 136.754028 
L 238.519201 126.772179 
L 228.537351 126.772179 
z
" clip-path="url(#p579bb51166)" style="stroke: #000000; stroke-linejoin: miter"/>
   </g>
   <g id="patch_172">
    <path d="M 256.982154 136.476121 
L 266.40819 136.476121 
L 266.40819 127.050085 
L 256.982154 127.050085 
z
" clip-path="url(#p579bb51166)" style="stroke: #000000; stroke-linejoin: miter"/>
   </g>
   <g id="patch_173">
    <path d="M 285.474336 136.150836 
L 294.249801 136.150836 
L 294.249801 127.375371 
L 285.474336 127.375371 
z
" clip-path="url(#p579bb51166)" style="stroke: #000000; stroke-linejoin: miter"/>
   </g>
   <g id="patch_174">
    <path d="M 314.002409 135.78966 
L 322.055522 135.78966 
L 322.055522 127.736547 
L 314.002409 127.736547 
z
" clip-path="url(#p579bb51166)" style="stroke: #000000; stroke-linejoin: miter"/>
   </g>
   <g id="patch_175">
    <path d="M 342.509266 135.449699 
L 349.882458 135.449699 
L 349.882458 128.076508 
L 342.509266 128.076508 
z
" clip-path="url(#p579bb51166)" style="stroke: #000000; stroke-linejoin: miter"/>
   </g>
   <g id="patch_176">
    <path d="M 371.102095 135.023767 
L 377.623422 135.023767 
L 377.623422 128.50244 
L 371.102095 128.50244 
z
" clip-path="url(#p579bb51166)" style="stroke: #000000; stroke-linejoin: miter"/>
   </g>
   <g id="patch_177">
    <path d="M 399.54316 134.749599 
L 405.51615 134.749599 
L 405.51615 128.776608 
L 399.54316 128.776608 
z
" clip-path="url(#p579bb51166)" style="stroke: #000000; stroke-linejoin: miter"/>
   </g>
   <g id="patch_178">
    <path d="M 428.033822 134.425833 
L 433.359281 134.425833 
L 433.359281 129.100374 
L 428.033822 129.100374 
z
" clip-path="url(#p579bb51166)" style="stroke: #000000; stroke-linejoin: miter"/>
   </g>
   <g id="patch_179">
    <path d="M 456.448131 134.178421 
L 461.278766 134.178421 
L 461.278766 129.347786 
L 456.448131 129.347786 
z
" clip-path="url(#p579bb51166)" style="stroke: #000000; stroke-linejoin: miter"/>
   </g>
   <g id="patch_180">
    <path d="M 484.816483 133.976965 
L 489.244206 133.976965 
L 489.244206 129.549242 
L 484.816483 129.549242 
z
" clip-path="url(#p579bb51166)" style="stroke: #000000; stroke-linejoin: miter"/>
   </g>
   <g id="patch_181">
    <path d="M 513.218815 133.74153 
L 517.175668 133.74153 
L 517.175668 129.784677 
L 513.218815 129.784677 
z
" clip-path="url(#p579bb51166)" style="stroke: #000000; stroke-linejoin: miter"/>
   </g>
   <g id="patch_182">
    <path d="M 541.505841 133.6214 
L 545.222434 133.6214 
L 545.222434 129.904807 
L 541.505841 129.904807 
z
" clip-path="url(#p579bb51166)" style="stroke: #000000; stroke-linejoin: miter"/>
   </g>
   <g id="patch_183">
    <path d="M 569.84534 133.448798 
L 573.216729 133.448798 
L 573.216729 130.077409 
L 569.84534 130.077409 
z
" clip-path="url(#p579bb51166)" style="stroke: #000000; stroke-linejoin: miter"/>
   </g>
   <g id="patch_184">
    <path d="M 598.132051 133.328983 
L 601.263811 133.328983 
L 601.263811 130.197224 
L 598.132051 130.197224 
z
" clip-path="url(#p579bb51166)" style="stroke: #000000; stroke-linejoin: miter"/>
   </g>
   <g id="patch_185">
    <path d="M 626.389945 133.237986 
L 629.33971 133.237986 
L 629.33971 130.288221 
L 626.389945 130.288221 
z
" clip-path="url(#p579bb51166)" style="stroke: #000000; stroke-linejoin: miter"/>
   </g>
   <g id="patch_186">
    <path d="M 654.705633 133.089194 
L 657.357815 133.089194 
L 657.357815 130.437013 
L 654.705633 130.437013 
z
" clip-path="url(#p579bb51166)" style="stroke: #000000; stroke-linejoin: miter"/>
   </g>
   <g id="patch_187">
    <path d="M 682.945852 133.015872 
L 685.451389 133.015872 
L 685.451389 130.510335 
L 682.945852 130.510335 
z
" clip-path="url(#p579bb51166)" style="stroke: #000000; stroke-linejoin: miter"/>
   </g>
   <g id="patch_188">
    <path d="M 711.140372 132.988248 
L 713.590662 132.988248 
L 713.590662 130.537959 
L 711.140372 130.537959 
z
" clip-path="url(#p579bb51166)" style="stroke: #000000; stroke-linejoin: miter"/>
   </g>
   <g id="patch_189">
    <path d="M 739.381069 132.914448 
L 741.683758 132.914448 
L 741.683758 130.611759 
L 739.381069 130.611759 
z
" clip-path="url(#p579bb51166)" style="stroke: #000000; stroke-linejoin: miter"/>
   </g>
   <g id="patch_190">
    <path d="M 767.667067 132.795347 
L 769.731554 132.795347 
L 769.731554 130.73086 
L 767.667067 130.73086 
z
" clip-path="url(#p579bb51166)" style="stroke: #000000; stroke-linejoin: miter"/>
   </g>
   <g id="patch_191">
    <path d="M 795.875359 132.753951 
L 797.857055 132.753951 
L 797.857055 130.772256 
L 795.875359 130.772256 
z
" clip-path="url(#p579bb51166)" style="stroke: #000000; stroke-linejoin: miter"/>
   </g>
   <g id="patch_192">
    <path d="M 58.83331 109.289793 
L 70.220483 109.289793 
L 70.220483 97.902621 
L 58.83331 97.902621 
z
" clip-path="url(#p579bb51166)" style="stroke: #000000; stroke-linejoin: miter"/>
   </g>
   <g id="patch_193">
    <path d="M 87.277702 109.012298 
L 98.109884 109.012298 
L 98.109884 98.180116 
L 87.277702 98.180116 
z
" clip-path="url(#p579bb51166)" style="stroke: #000000; stroke-linejoin: miter"/>
   </g>
   <g id="patch_194">
    <path d="M 115.464433 108.992464 
L 126.256946 108.992464 
L 126.256946 98.19995 
L 115.464433 98.19995 
z
" clip-path="url(#p579bb51166)" style="stroke: #000000; stroke-linejoin: miter"/>
   </g>
   <g id="patch_195">
    <path d="M 143.573752 109.050041 
L 154.481421 109.050041 
L 154.481421 98.142373 
L 143.573752 98.142373 
z
" clip-path="url(#p579bb51166)" style="stroke: #000000; stroke-linejoin: miter"/>
   </g>
   <g id="patch_196">
    <path d="M 171.889516 108.901174 
L 182.49945 108.901174 
L 182.49945 98.29124 
L 171.889516 98.29124 
z
" clip-path="url(#p579bb51166)" style="stroke: #000000; stroke-linejoin: miter"/>
   </g>
   <g id="patch_197">
    <path d="M 200.109 108.848587 
L 210.613759 108.848587 
L 210.613759 98.343827 
L 200.109 98.343827 
z
" clip-path="url(#p579bb51166)" style="stroke: #000000; stroke-linejoin: miter"/>
   </g>
   <g id="patch_198">
    <path d="M 228.441018 108.683465 
L 238.615534 108.683465 
L 238.615534 98.508949 
L 228.441018 98.508949 
z
" clip-path="url(#p579bb51166)" style="stroke: #000000; stroke-linejoin: miter"/>
   </g>
   <g id="patch_199">
    <path d="M 256.847581 108.443798 
L 266.542763 108.443798 
L 266.542763 98.748616 
L 256.847581 98.748616 
z
" clip-path="url(#p579bb51166)" style="stroke: #000000; stroke-linejoin: miter"/>
   </g>
   <g id="patch_200">
    <path d="M 285.350426 108.10785 
L 294.373712 108.10785 
L 294.373712 99.084564 
L 285.350426 99.084564 
z
" clip-path="url(#p579bb51166)" style="stroke: #000000; stroke-linejoin: miter"/>
   </g>
   <g id="patch_201">
    <path d="M 313.916416 107.708757 
L 322.141515 107.708757 
L 322.141515 99.483657 
L 313.916416 99.483657 
z
" clip-path="url(#p579bb51166)" style="stroke: #000000; stroke-linejoin: miter"/>
   </g>
   <g id="patch_202">
    <path d="M 342.486004 107.306065 
L 349.90572 107.306065 
L 349.90572 99.886349 
L 342.486004 99.886349 
z
" clip-path="url(#p579bb51166)" style="stroke: #000000; stroke-linejoin: miter"/>
   </g>
   <g id="patch_203">
    <path d="M 371.026991 106.931975 
L 377.698526 106.931975 
L 377.698526 100.260439 
L 371.026991 100.260439 
z
" clip-path="url(#p579bb51166)" style="stroke: #000000; stroke-linejoin: miter"/>
   </g>
   <g id="patch_204">
    <path d="M 399.503887 106.621975 
L 405.555423 106.621975 
L 405.555423 100.570439 
L 399.503887 100.570439 
z
" clip-path="url(#p579bb51166)" style="stroke: #000000; stroke-linejoin: miter"/>
   </g>
   <g id="patch_205">
    <path d="M 427.956965 106.335794 
L 433.436138 106.335794 
L 433.436138 100.85662 
L 427.956965 100.85662 
z
" clip-path="url(#p579bb51166)" style="stroke: #000000; stroke-linejoin: miter"/>
   </g>
   <g id="patch_206">
    <path d="M 456.397896 106.06176 
L 461.329001 106.06176 
L 461.329001 101.130654 
L 456.397896 101.130654 
z
" clip-path="url(#p579bb51166)" style="stroke: #000000; stroke-linejoin: miter"/>
   </g>
   <g id="patch_207">
    <path d="M 484.727432 105.89912 
L 489.333258 105.89912 
L 489.333258 101.293294 
L 484.727432 101.293294 
z
" clip-path="url(#p579bb51166)" style="stroke: #000000; stroke-linejoin: miter"/>
   </g>
   <g id="patch_208">
    <path d="M 513.113122 105.680327 
L 517.281361 105.680327 
L 517.281361 101.512087 
L 513.113122 101.512087 
z
" clip-path="url(#p579bb51166)" style="stroke: #000000; stroke-linejoin: miter"/>
   </g>
   <g id="patch_209">
    <path d="M 541.435484 105.524861 
L 545.292792 105.524861 
L 545.292792 101.667553 
L 541.435484 101.667553 
z
" clip-path="url(#p579bb51166)" style="stroke: #000000; stroke-linejoin: miter"/>
   </g>
   <g id="patch_210">
    <path d="M 569.784585 105.342656 
L 573.277484 105.342656 
L 573.277484 101.849758 
L 569.784585 101.849758 
z
" clip-path="url(#p579bb51166)" style="stroke: #000000; stroke-linejoin: miter"/>
   </g>
   <g id="patch_211">
    <path d="M 598.068743 105.225395 
L 601.327119 105.225395 
L 601.327119 101.967019 
L 598.068743 101.967019 
z
" clip-path="url(#p579bb51166)" style="stroke: #000000; stroke-linejoin: miter"/>
   </g>
   <g id="patch_212">
    <path d="M 626.295099 105.165935 
L 629.434556 105.165935 
L 629.434556 102.026478 
L 626.295099 102.026478 
z
" clip-path="url(#p579bb51166)" style="stroke: #000000; stroke-linejoin: miter"/>
   </g>
   <g id="patch_213">
    <path d="M 654.636673 104.991258 
L 657.426776 104.991258 
L 657.426776 102.201156 
L 654.636673 102.201156 
z
" clip-path="url(#p579bb51166)" style="stroke: #000000; stroke-linejoin: miter"/>
   </g>
   <g id="patch_214">
    <path d="M 682.872452 104.922375 
L 685.524789 104.922375 
L 685.524789 102.270038 
L 682.872452 102.270038 
z
" clip-path="url(#p579bb51166)" style="stroke: #000000; stroke-linejoin: miter"/>
   </g>
   <g id="patch_215">
    <path d="M 711.104493 104.857231 
L 713.626542 104.857231 
L 713.626542 102.335182 
L 711.104493 102.335182 
z
" clip-path="url(#p579bb51166)" style="stroke: #000000; stroke-linejoin: miter"/>
   </g>
   <g id="patch_216">
    <path d="M 739.355972 104.772649 
L 741.708856 104.772649 
L 741.708856 102.419765 
L 739.355972 102.419765 
z
" clip-path="url(#p579bb51166)" style="stroke: #000000; stroke-linejoin: miter"/>
   </g>
   <g id="patch_217">
    <path d="M 767.606071 104.689447 
L 769.79255 104.689447 
L 769.79255 102.502967 
L 767.606071 102.502967 
z
" clip-path="url(#p579bb51166)" style="stroke: #000000; stroke-linejoin: miter"/>
   </g>
   <g id="patch_218">
    <path d="M 795.814887 104.647527 
L 797.917527 104.647527 
L 797.917527 102.544887 
L 795.814887 102.544887 
z
" clip-path="url(#p579bb51166)" style="stroke: #000000; stroke-linejoin: miter"/>
   </g>
   <g id="patch_219">
    <path d="M 58.588935 81.367271 
L 70.464858 81.367271 
L 70.464858 69.491349 
L 58.588935 69.491349 
z
" clip-path="url(#p579bb51166)" style="stroke: #000000; stroke-linejoin: miter"/>
   </g>
   <g id="patch_220">
    <path d="M 86.833933 81.28917 
L 98.553653 81.28917 
L 98.553653 69.56945 
L 86.833933 69.56945 
z
" clip-path="url(#p579bb51166)" style="stroke: #000000; stroke-linejoin: miter"/>
   </g>
   <g id="patch_221">
    <path d="M 115.04879 81.24121 
L 126.672589 81.24121 
L 126.672589 69.617411 
L 115.04879 69.617411 
z
" clip-path="url(#p579bb51166)" style="stroke: #000000; stroke-linejoin: miter"/>
   </g>
   <g id="patch_222">
    <path d="M 143.236141 81.220756 
L 154.819032 81.220756 
L 154.819032 69.637865 
L 143.236141 69.637865 
z
" clip-path="url(#p579bb51166)" style="stroke: #000000; stroke-linejoin: miter"/>
   </g>
   <g id="patch_223">
    <path d="M 171.467607 81.156187 
L 182.921359 81.156187 
L 182.921359 69.702434 
L 171.467607 69.702434 
z
" clip-path="url(#p579bb51166)" style="stroke: #000000; stroke-linejoin: miter"/>
   </g>
   <g id="patch_224">
    <path d="M 200.192945 80.597745 
L 210.529814 80.597745 
L 210.529814 70.260876 
L 200.192945 70.260876 
z
" clip-path="url(#p579bb51166)" style="stroke: #000000; stroke-linejoin: miter"/>
   </g>
   <g id="patch_225">
    <path d="M 229.291149 79.666437 
L 237.765403 79.666437 
L 237.765403 71.192183 
L 229.291149 71.192183 
z
" clip-path="url(#p579bb51166)" style="stroke: #000000; stroke-linejoin: miter"/>
   </g>
   <g id="patch_226">
    <path d="M 258.278082 78.846401 
L 265.112263 78.846401 
L 265.112263 72.01222 
L 258.278082 72.01222 
z
" clip-path="url(#p579bb51166)" style="stroke: #000000; stroke-linejoin: miter"/>
   </g>
   <g id="patch_227">
    <path d="M 287.01583 78.27555 
L 292.708308 78.27555 
L 292.708308 72.583071 
L 287.01583 72.583071 
z
" clip-path="url(#p579bb51166)" style="stroke: #000000; stroke-linejoin: miter"/>
   </g>
   <g id="patch_228">
    <path d="M 315.592018 77.866258 
L 320.465913 77.866258 
L 320.465913 72.992363 
L 315.592018 72.992363 
z
" clip-path="url(#p579bb51166)" style="stroke: #000000; stroke-linejoin: miter"/>
   </g>
   <g id="patch_229">
    <path d="M 344.011196 77.613976 
L 348.380528 77.613976 
L 348.380528 73.244645 
L 344.011196 73.244645 
z
" clip-path="url(#p579bb51166)" style="stroke: #000000; stroke-linejoin: miter"/>
   </g>
   <g id="patch_230">
    <path d="M 372.441391 77.350677 
L 376.284126 77.350677 
L 376.284126 73.507943 
L 372.441391 73.507943 
z
" clip-path="url(#p579bb51166)" style="stroke: #000000; stroke-linejoin: miter"/>
   </g>
   <g id="patch_231">
    <path d="M 400.844821 77.114144 
L 404.214489 77.114144 
L 404.214489 73.744476 
L 400.844821 73.744476 
z
" clip-path="url(#p579bb51166)" style="stroke: #000000; stroke-linejoin: miter"/>
   </g>
   <g id="patch_232">
    <path d="M 429.159149 76.966713 
L 432.233955 76.966713 
L 432.233955 73.891907 
L 429.159149 73.891907 
z
" clip-path="url(#p579bb51166)" style="stroke: #000000; stroke-linejoin: miter"/>
   </g>
   <g id="patch_233">
    <path d="M 457.438043 76.854715 
L 460.288853 76.854715 
L 460.288853 74.003906 
L 457.438043 74.003906 
z
" clip-path="url(#p579bb51166)" style="stroke: #000000; stroke-linejoin: miter"/>
   </g>
   <g id="patch_234">
    <path d="M 485.700863 76.758792 
L 488.359827 76.758792 
L 488.359827 74.099829 
L 485.700863 74.099829 
z
" clip-path="url(#p579bb51166)" style="stroke: #000000; stroke-linejoin: miter"/>
   </g>
   <g id="patch_235">
    <path d="M 514.017566 76.608986 
L 516.376917 76.608986 
L 516.376917 74.249635 
L 514.017566 74.249635 
z
" clip-path="url(#p579bb51166)" style="stroke: #000000; stroke-linejoin: miter"/>
   </g>
   <g id="patch_236">
    <path d="M 542.27611 76.517338 
L 544.452166 76.517338 
L 544.452166 74.341283 
L 542.27611 74.341283 
z
" clip-path="url(#p579bb51166)" style="stroke: #000000; stroke-linejoin: miter"/>
   </g>
   <g id="patch_237">
    <path d="M 570.495672 76.464673 
L 572.566397 76.464673 
L 572.566397 74.393948 
L 570.495672 74.393948 
z
" clip-path="url(#p579bb51166)" style="stroke: #000000; stroke-linejoin: miter"/>
   </g>
   <g id="patch_238">
    <path d="M 598.750981 76.376261 
L 600.644881 76.376261 
L 600.644881 74.48236 
L 598.750981 74.48236 
z
" clip-path="url(#p579bb51166)" style="stroke: #000000; stroke-linejoin: miter"/>
   </g>
   <g id="patch_239">
    <path d="M 626.924646 76.369492 
L 628.80501 76.369492 
L 628.80501 74.489128 
L 626.924646 74.489128 
z
" clip-path="url(#p579bb51166)" style="stroke: #000000; stroke-linejoin: miter"/>
   </g>
   <g id="patch_240">
    <path d="M 655.231875 76.229159 
L 656.831573 76.229159 
L 656.831573 74.629461 
L 655.231875 74.629461 
z
" clip-path="url(#p579bb51166)" style="stroke: #000000; stroke-linejoin: miter"/>
   </g>
   <g id="patch_241">
    <path d="M 683.40751 76.220421 
L 684.989732 76.220421 
L 684.989732 74.638199 
L 683.40751 74.638199 
z
" clip-path="url(#p579bb51166)" style="stroke: #000000; stroke-linejoin: miter"/>
   </g>
   <g id="patch_242">
    <path d="M 711.608821 76.186006 
L 713.122213 76.186006 
L 713.122213 74.672614 
L 711.608821 74.672614 
z
" clip-path="url(#p579bb51166)" style="stroke: #000000; stroke-linejoin: miter"/>
   </g>
   <g id="patch_243">
    <path d="M 739.802672 76.159052 
L 741.262155 76.159052 
L 741.262155 74.699569 
L 739.802672 74.699569 
z
" clip-path="url(#p579bb51166)" style="stroke: #000000; stroke-linejoin: miter"/>
   </g>
   <g id="patch_244">
    <path d="M 768.049076 76.079545 
L 769.349545 76.079545 
L 769.349545 74.779076 
L 768.049076 74.779076 
z
" clip-path="url(#p579bb51166)" style="stroke: #000000; stroke-linejoin: miter"/>
   </g>
   <g id="patch_245">
    <path d="M 796.245275 76.050242 
L 797.487139 76.050242 
L 797.487139 74.808379 
L 796.245275 74.808379 
z
" clip-path="url(#p579bb51166)" style="stroke: #000000; stroke-linejoin: miter"/>
   </g>
   <g id="matplotlib.axis_1">
    <g id="xtick_1">
     <g id="line2d_1">
      <defs>
       <path id="m0aa60a26c3" d="M 0 0 
L 0 3.5 
" style="stroke: #000000; stroke-width: 0.8"/>
      </defs>
      <g>
       <use xlink:href="#m0aa60a26c3" x="64.526897" y="328.931379" style="stroke: #000000; stroke-width: 0.8"/>
      </g>
     </g>
     <g id="text_1">
      <!-- 1 -->
      <g transform="translate(61.51674 350.082942) scale(0.1 -0.1)">
       <defs>
        <path id="DejaVuSansMono-31" d="M 844 531 
L 1825 531 
L 1825 4097 
L 769 3859 
L 769 4434 
L 1819 4666 
L 2450 4666 
L 2450 531 
L 3419 531 
L 3419 0 
L 844 0 
L 844 531 
z
" transform="scale(0.015625)"/>
       </defs>
       <use xlink:href="#DejaVuSansMono-31"/>
      </g>
     </g>
    </g>
    <g id="xtick_2">
     <g id="line2d_2">
      <g>
       <use xlink:href="#m0aa60a26c3" x="796.866207" y="328.931379" style="stroke: #000000; stroke-width: 0.8"/>
      </g>
     </g>
     <g id="text_2">
      <!-- 5000 -->
      <g transform="translate(784.825582 350.082942) scale(0.1 -0.1)">
       <defs>
        <path id="DejaVuSansMono-35" d="M 647 4666 
L 3009 4666 
L 3009 4134 
L 1222 4134 
L 1222 2988 
Q 1356 3038 1492 3061 
Q 1628 3084 1766 3084 
Q 2491 3084 2916 2656 
Q 3341 2228 3341 1497 
Q 3341 759 2895 334 
Q 2450 -91 1678 -91 
Q 1306 -91 998 -41 
Q 691 9 447 109 
L 447 750 
Q 734 594 1025 517 
Q 1316 441 1619 441 
Q 2141 441 2423 716 
Q 2706 991 2706 1497 
Q 2706 1997 2414 2275 
Q 2122 2553 1600 2553 
Q 1347 2553 1106 2495 
Q 866 2438 647 2322 
L 647 4666 
z
" transform="scale(0.015625)"/>
        <path id="DejaVuSansMono-30" d="M 1509 2344 
Q 1509 2516 1629 2641 
Q 1750 2766 1919 2766 
Q 2094 2766 2219 2641 
Q 2344 2516 2344 2344 
Q 2344 2169 2220 2047 
Q 2097 1925 1919 1925 
Q 1744 1925 1626 2044 
Q 1509 2163 1509 2344 
z
M 1925 4250 
Q 1484 4250 1267 3775 
Q 1050 3300 1050 2328 
Q 1050 1359 1267 884 
Q 1484 409 1925 409 
Q 2369 409 2586 884 
Q 2803 1359 2803 2328 
Q 2803 3300 2586 3775 
Q 2369 4250 1925 4250 
z
M 1925 4750 
Q 2672 4750 3055 4137 
Q 3438 3525 3438 2328 
Q 3438 1134 3055 521 
Q 2672 -91 1925 -91 
Q 1178 -91 797 521 
Q 416 1134 416 2328 
Q 416 3525 797 4137 
Q 1178 4750 1925 4750 
z
" transform="scale(0.015625)"/>
       </defs>
       <use xlink:href="#DejaVuSansMono-35"/>
       <use xlink:href="#DejaVuSansMono-30" x="60.205078"/>
       <use xlink:href="#DejaVuSansMono-30" x="120.410156"/>
       <use xlink:href="#DejaVuSansMono-30" x="180.615234"/>
      </g>
     </g>
    </g>
   </g>
   <g id="matplotlib.axis_2">
    <g id="ytick_1">
     <g id="line2d_3">
      <defs>
       <path id="m3249b6a143" d="M 0 0 
L -3.5 0 
" style="stroke: #000000; stroke-width: 0.8"/>
      </defs>
      <g>
       <use xlink:href="#m3249b6a143" x="36.36" y="300.764483" style="stroke: #000000; stroke-width: 0.8"/>
      </g>
     </g>
     <g id="text_3">
      <!-- 2 -->
      <g transform="translate(16.839687 304.590264) scale(0.1 -0.1)">
       <defs>
        <path id="DejaVuSansMono-32" d="M 1166 531 
L 3309 531 
L 3309 0 
L 475 0 
L 475 531 
Q 1059 1147 1496 1619 
Q 1934 2091 2100 2284 
Q 2413 2666 2522 2902 
Q 2631 3138 2631 3384 
Q 2631 3775 2401 3997 
Q 2172 4219 1772 4219 
Q 1488 4219 1175 4116 
Q 863 4013 513 3803 
L 513 4441 
Q 834 4594 1145 4672 
Q 1456 4750 1759 4750 
Q 2444 4750 2861 4386 
Q 3278 4022 3278 3431 
Q 3278 3131 3139 2831 
Q 3000 2531 2688 2169 
Q 2513 1966 2180 1606 
Q 1847 1247 1166 531 
z
" transform="scale(0.015625)"/>
       </defs>
       <use xlink:href="#DejaVuSansMono-32"/>
      </g>
     </g>
    </g>
    <g id="ytick_2">
     <g id="line2d_4">
      <g>
       <use xlink:href="#m3249b6a143" x="36.36" y="272.597586" style="stroke: #000000; stroke-width: 0.8"/>
      </g>
     </g>
     <g id="text_4">
      <!-- 3 -->
      <g transform="translate(16.839687 276.423367) scale(0.1 -0.1)">
       <defs>
        <path id="DejaVuSansMono-33" d="M 2425 2497 
Q 2884 2375 3128 2064 
Q 3372 1753 3372 1288 
Q 3372 644 2939 276 
Q 2506 -91 1741 -91 
Q 1419 -91 1084 -31 
Q 750 28 428 141 
L 428 769 
Q 747 603 1056 522 
Q 1366 441 1672 441 
Q 2191 441 2469 675 
Q 2747 909 2747 1350 
Q 2747 1756 2469 1995 
Q 2191 2234 1716 2234 
L 1234 2234 
L 1234 2753 
L 1716 2753 
Q 2150 2753 2394 2943 
Q 2638 3134 2638 3475 
Q 2638 3834 2411 4026 
Q 2184 4219 1766 4219 
Q 1488 4219 1191 4156 
Q 894 4094 569 3969 
L 569 4550 
Q 947 4650 1242 4700 
Q 1538 4750 1766 4750 
Q 2447 4750 2855 4408 
Q 3263 4066 3263 3500 
Q 3263 3116 3048 2859 
Q 2834 2603 2425 2497 
z
" transform="scale(0.015625)"/>
       </defs>
       <use xlink:href="#DejaVuSansMono-33"/>
      </g>
     </g>
    </g>
    <g id="ytick_3">
     <g id="line2d_5">
      <g>
       <use xlink:href="#m3249b6a143" x="36.36" y="244.43069" style="stroke: #000000; stroke-width: 0.8"/>
      </g>
     </g>
     <g id="text_5">
      <!-- 5 -->
      <g transform="translate(16.839687 248.256471) scale(0.1 -0.1)">
       <use xlink:href="#DejaVuSansMono-35"/>
      </g>
     </g>
    </g>
    <g id="ytick_4">
     <g id="line2d_6">
      <g>
       <use xlink:href="#m3249b6a143" x="36.36" y="216.263793" style="stroke: #000000; stroke-width: 0.8"/>
      </g>
     </g>
     <g id="text_6">
      <!-- 7 -->
      <g transform="translate(16.839687 220.089574) scale(0.1 -0.1)">
       <defs>
        <path id="DejaVuSansMono-37" d="M 434 4666 
L 3372 4666 
L 3372 4397 
L 1703 0 
L 1044 0 
L 2669 4134 
L 434 4134 
L 434 4666 
z
" transform="scale(0.015625)"/>
       </defs>
       <use xlink:href="#DejaVuSansMono-37"/>
      </g>
     </g>
    </g>
    <g id="ytick_5">
     <g id="line2d_7">
      <g>
       <use xlink:href="#m3249b6a143" x="36.36" y="188.096897" style="stroke: #000000; stroke-width: 0.8"/>
      </g>
     </g>
     <g id="text_7">
      <!-- 11 -->
      <g transform="translate(10.819375 191.922678) scale(0.1 -0.1)">
       <use xlink:href="#DejaVuSansMono-31"/>
       <use xlink:href="#DejaVuSansMono-31" x="60.205078"/>
      </g>
     </g>
    </g>
    <g id="ytick_6">
     <g id="line2d_8">
      <g>
       <use xlink:href="#m3249b6a143" x="36.36" y="159.93" style="stroke: #000000; stroke-width: 0.8"/>
      </g>
     </g>
     <g id="text_8">
      <!-- 13 -->
      <g transform="translate(10.819375 163.755781) scale(0.1 -0.1)">
       <use xlink:href="#DejaVuSansMono-31"/>
       <use xlink:href="#DejaVuSansMono-33" x="60.205078"/>
      </g>
     </g>
    </g>
    <g id="ytick_7">
     <g id="line2d_9">
      <g>
       <use xlink:href="#m3249b6a143" x="36.36" y="131.763103" style="stroke: #000000; stroke-width: 0.8"/>
      </g>
     </g>
     <g id="text_9">
      <!-- 17 -->
      <g transform="translate(10.819375 135.588885) scale(0.1 -0.1)">
       <use xlink:href="#DejaVuSansMono-31"/>
       <use xlink:href="#DejaVuSansMono-37" x="60.205078"/>
      </g>
     </g>
    </g>
    <g id="ytick_8">
     <g id="line2d_10">
      <g>
       <use xlink:href="#m3249b6a143" x="36.36" y="103.596207" style="stroke: #000000; stroke-width: 0.8"/>
      </g>
     </g>
     <g id="text_10">
      <!-- 19 -->
      <g transform="translate(10.819375 107.421988) scale(0.1 -0.1)">
       <defs>
        <path id="DejaVuSansMono-39" d="M 1863 2069 
Q 2266 2069 2495 2359 
Q 2725 2650 2725 3163 
Q 2725 3675 2495 3965 
Q 2266 4256 1863 4256 
Q 1444 4256 1231 3979 
Q 1019 3703 1019 3163 
Q 1019 2619 1230 2344 
Q 1441 2069 1863 2069 
z
M 738 97 
L 738 678 
Q 934 563 1156 502 
Q 1378 441 1619 441 
Q 2219 441 2526 892 
Q 2834 1344 2834 2222 
Q 2688 1909 2422 1742 
Q 2156 1575 1813 1575 
Q 1138 1575 767 1990 
Q 397 2406 397 3169 
Q 397 3922 776 4336 
Q 1156 4750 1850 4750 
Q 2663 4750 3041 4165 
Q 3419 3581 3419 2328 
Q 3419 1150 2964 529 
Q 2509 -91 1644 -91 
Q 1416 -91 1184 -42 
Q 953 6 738 97 
z
" transform="scale(0.015625)"/>
       </defs>
       <use xlink:href="#DejaVuSansMono-31"/>
       <use xlink:href="#DejaVuSansMono-39" x="60.205078"/>
      </g>
     </g>
    </g>
    <g id="ytick_9">
     <g id="line2d_11">
      <g>
       <use xlink:href="#m3249b6a143" x="36.36" y="75.42931" style="stroke: #000000; stroke-width: 0.8"/>
      </g>
     </g>
     <g id="text_11">
      <!--  -->
      <g transform="translate(16.839687 79.255092) scale(0.1 -0.1)">
       <defs>
        <path id="DejaVuSansMono-2119" d="M 506 4353 
L 506 313 
L 1106 313 
L 1106 4353 
L 506 4353 
z
M 1406 4353 
L 1406 2284 
L 2306 2284 
Q 2378 2284 2447 2291 
L 2447 4347 
Q 2378 4353 2306 4353 
L 1406 4353 
z
M 206 4666 
L 2166 4666 
Q 2913 4666 3297 4323 
Q 3681 3981 3681 3322 
Q 3681 2656 3297 2315 
Q 2913 1975 2163 1975 
L 1406 1975 
L 1406 0 
L 206 0 
L 206 4666 
z
M 2759 4281 
L 2759 2359 
Q 2941 2428 3075 2556 
Q 3353 2825 3353 3322 
Q 3353 3816 3078 4084 
Q 2947 4213 2759 4281 
z
" transform="scale(0.015625)"/>
       </defs>
       <use xlink:href="#DejaVuSansMono-2119"/>
      </g>
     </g>
    </g>
   </g>
  </g>
 </g>
 <defs>
  <clipPath id="p579bb51166">
   <rect x="36.36" y="19.095517" width="816.84" height="309.835862"/>
  </clipPath>
 </defs>
</svg>
