<?xml version="1.0" encoding="utf-8" standalone="no"?>
<!DOCTYPE svg PUBLIC "-//W3C//DTD SVG 1.1//EN"
  "http://www.w3.org/Graphics/SVG/1.1/DTD/svg11.dtd">
<svg xmlns:xlink="http://www.w3.org/1999/xlink" width="864pt" height="432pt" viewBox="0 0 864 432" xmlns="http://www.w3.org/2000/svg" version="1.1">
 <metadata>
  <rdf:RDF xmlns:dc="http://purl.org/dc/elements/1.1/" xmlns:cc="http://creativecommons.org/ns#" xmlns:rdf="http://www.w3.org/1999/02/22-rdf-syntax-ns#">
   <cc:Work>
    <dc:type rdf:resource="http://purl.org/dc/dcmitype/StillImage"/>
    <dc:date>2024-09-16T09:49:32.094277</dc:date>
    <dc:format>image/svg+xml</dc:format>
    <dc:creator>
     <cc:Agent>
      <dc:title>Matplotlib v3.9.2, https://matplotlib.org/</dc:title>
     </cc:Agent>
    </dc:creator>
   </cc:Work>
  </rdf:RDF>
 </metadata>
 <defs>
  <style type="text/css">*{stroke-linejoin: round; stroke-linecap: butt}</style>
 </defs>
 <g id="figure_1">
  <g id="patch_1">
   <path d="M 0 432 
L 864 432 
L 864 0 
L 0 0 
z
" style="fill: #ffffff"/>
  </g>
  <g id="axes_1">
   <g id="patch_2">
    <path d="M 47.95 403.436 
L 844.932925 403.436 
L 844.932925 10.8 
L 47.95 10.8 
z
" style="fill: #ffffff"/>
   </g>
   <g id="matplotlib.axis_1">
    <g id="xtick_1">
     <g id="line2d_1">
      <defs>
       <path id="m44de68d495" d="M 0 0 
L 0 3.5 
" style="stroke: #000000; stroke-width: 0.8"/>
      </defs>
      <g>
       <use xlink:href="#m44de68d495" x="47.95" y="403.436" style="stroke: #000000; stroke-width: 0.8"/>
      </g>
     </g>
     <g id="text_1">
      <!-- $\mathdefault{10^{1}}$ -->
      <g transform="translate(39.6 418.087562) scale(0.1 -0.1)">
       <defs>
        <path id="DejaVuSansMono-31" d="M 844 531 
L 1825 531 
L 1825 4097 
L 769 3859 
L 769 4434 
L 1819 4666 
L 2450 4666 
L 2450 531 
L 3419 531 
L 3419 0 
L 844 0 
L 844 531 
z
" transform="scale(0.015625)"/>
        <path id="DejaVuSansMono-30" d="M 1509 2344 
Q 1509 2516 1629 2641 
Q 1750 2766 1919 2766 
Q 2094 2766 2219 2641 
Q 2344 2516 2344 2344 
Q 2344 2169 2220 2047 
Q 2097 1925 1919 1925 
Q 1744 1925 1626 2044 
Q 1509 2163 1509 2344 
z
M 1925 4250 
Q 1484 4250 1267 3775 
Q 1050 3300 1050 2328 
Q 1050 1359 1267 884 
Q 1484 409 1925 409 
Q 2369 409 2586 884 
Q 2803 1359 2803 2328 
Q 2803 3300 2586 3775 
Q 2369 4250 1925 4250 
z
M 1925 4750 
Q 2672 4750 3055 4137 
Q 3438 3525 3438 2328 
Q 3438 1134 3055 521 
Q 2672 -91 1925 -91 
Q 1178 -91 797 521 
Q 416 1134 416 2328 
Q 416 3525 797 4137 
Q 1178 4750 1925 4750 
z
" transform="scale(0.015625)"/>
       </defs>
       <use xlink:href="#DejaVuSansMono-31" transform="translate(0 0.684375)"/>
       <use xlink:href="#DejaVuSansMono-30" transform="translate(60.205078 0.684375)"/>
       <use xlink:href="#DejaVuSansMono-31" transform="translate(121.367188 38.965625) scale(0.7)"/>
      </g>
     </g>
    </g>
    <g id="xtick_2">
     <g id="line2d_2">
      <g>
       <use xlink:href="#m44de68d495" x="446.441463" y="403.436" style="stroke: #000000; stroke-width: 0.8"/>
      </g>
     </g>
     <g id="text_2">
      <!-- $\mathdefault{10^{2}}$ -->
      <g transform="translate(438.091463 418.087562) scale(0.1 -0.1)">
       <defs>
        <path id="DejaVuSansMono-32" d="M 1166 531 
L 3309 531 
L 3309 0 
L 475 0 
L 475 531 
Q 1059 1147 1496 1619 
Q 1934 2091 2100 2284 
Q 2413 2666 2522 2902 
Q 2631 3138 2631 3384 
Q 2631 3775 2401 3997 
Q 2172 4219 1772 4219 
Q 1488 4219 1175 4116 
Q 863 4013 513 3803 
L 513 4441 
Q 834 4594 1145 4672 
Q 1456 4750 1759 4750 
Q 2444 4750 2861 4386 
Q 3278 4022 3278 3431 
Q 3278 3131 3139 2831 
Q 3000 2531 2688 2169 
Q 2513 1966 2180 1606 
Q 1847 1247 1166 531 
z
" transform="scale(0.015625)"/>
       </defs>
       <use xlink:href="#DejaVuSansMono-31" transform="translate(0 0.765625)"/>
       <use xlink:href="#DejaVuSansMono-30" transform="translate(60.205078 0.765625)"/>
       <use xlink:href="#DejaVuSansMono-32" transform="translate(121.367188 39.046875) scale(0.7)"/>
      </g>
     </g>
    </g>
    <g id="xtick_3">
     <g id="line2d_3">
      <g>
       <use xlink:href="#m44de68d495" x="844.932925" y="403.436" style="stroke: #000000; stroke-width: 0.8"/>
      </g>
     </g>
     <g id="text_3">
      <!-- $\mathdefault{10^{3}}$ -->
      <g transform="translate(836.582925 418.087562) scale(0.1 -0.1)">
       <defs>
        <path id="DejaVuSansMono-33" d="M 2425 2497 
Q 2884 2375 3128 2064 
Q 3372 1753 3372 1288 
Q 3372 644 2939 276 
Q 2506 -91 1741 -91 
Q 1419 -91 1084 -31 
Q 750 28 428 141 
L 428 769 
Q 747 603 1056 522 
Q 1366 441 1672 441 
Q 2191 441 2469 675 
Q 2747 909 2747 1350 
Q 2747 1756 2469 1995 
Q 2191 2234 1716 2234 
L 1234 2234 
L 1234 2753 
L 1716 2753 
Q 2150 2753 2394 2943 
Q 2638 3134 2638 3475 
Q 2638 3834 2411 4026 
Q 2184 4219 1766 4219 
Q 1488 4219 1191 4156 
Q 894 4094 569 3969 
L 569 4550 
Q 947 4650 1242 4700 
Q 1538 4750 1766 4750 
Q 2447 4750 2855 4408 
Q 3263 4066 3263 3500 
Q 3263 3116 3048 2859 
Q 2834 2603 2425 2497 
z
" transform="scale(0.015625)"/>
       </defs>
       <use xlink:href="#DejaVuSansMono-31" transform="translate(0 0.765625)"/>
       <use xlink:href="#DejaVuSansMono-30" transform="translate(60.205078 0.765625)"/>
       <use xlink:href="#DejaVuSansMono-33" transform="translate(121.367188 39.046875) scale(0.7)"/>
      </g>
     </g>
    </g>
    <g id="xtick_4">
     <g id="line2d_4">
      <defs>
       <path id="m89fcd17fea" d="M 0 0 
L 0 2 
" style="stroke: #000000; stroke-width: 0.6"/>
      </defs>
      <g>
       <use xlink:href="#m89fcd17fea" x="167.907883" y="403.436" style="stroke: #000000; stroke-width: 0.6"/>
      </g>
     </g>
    </g>
    <g id="xtick_5">
     <g id="line2d_5">
      <g>
       <use xlink:href="#m89fcd17fea" x="238.078747" y="403.436" style="stroke: #000000; stroke-width: 0.6"/>
      </g>
     </g>
    </g>
    <g id="xtick_6">
     <g id="line2d_6">
      <g>
       <use xlink:href="#m89fcd17fea" x="287.865767" y="403.436" style="stroke: #000000; stroke-width: 0.6"/>
      </g>
     </g>
    </g>
    <g id="xtick_7">
     <g id="line2d_7">
      <g>
       <use xlink:href="#m89fcd17fea" x="326.483579" y="403.436" style="stroke: #000000; stroke-width: 0.6"/>
      </g>
     </g>
    </g>
    <g id="xtick_8">
     <g id="line2d_8">
      <g>
       <use xlink:href="#m89fcd17fea" x="358.03663" y="403.436" style="stroke: #000000; stroke-width: 0.6"/>
      </g>
     </g>
    </g>
    <g id="xtick_9">
     <g id="line2d_9">
      <g>
       <use xlink:href="#m89fcd17fea" x="384.714354" y="403.436" style="stroke: #000000; stroke-width: 0.6"/>
      </g>
     </g>
    </g>
    <g id="xtick_10">
     <g id="line2d_10">
      <g>
       <use xlink:href="#m89fcd17fea" x="407.82365" y="403.436" style="stroke: #000000; stroke-width: 0.6"/>
      </g>
     </g>
    </g>
    <g id="xtick_11">
     <g id="line2d_11">
      <g>
       <use xlink:href="#m89fcd17fea" x="428.207493" y="403.436" style="stroke: #000000; stroke-width: 0.6"/>
      </g>
     </g>
    </g>
    <g id="xtick_12">
     <g id="line2d_12">
      <g>
       <use xlink:href="#m89fcd17fea" x="566.399346" y="403.436" style="stroke: #000000; stroke-width: 0.6"/>
      </g>
     </g>
    </g>
    <g id="xtick_13">
     <g id="line2d_13">
      <g>
       <use xlink:href="#m89fcd17fea" x="636.570209" y="403.436" style="stroke: #000000; stroke-width: 0.6"/>
      </g>
     </g>
    </g>
    <g id="xtick_14">
     <g id="line2d_14">
      <g>
       <use xlink:href="#m89fcd17fea" x="686.357229" y="403.436" style="stroke: #000000; stroke-width: 0.6"/>
      </g>
     </g>
    </g>
    <g id="xtick_15">
     <g id="line2d_15">
      <g>
       <use xlink:href="#m89fcd17fea" x="724.975042" y="403.436" style="stroke: #000000; stroke-width: 0.6"/>
      </g>
     </g>
    </g>
    <g id="xtick_16">
     <g id="line2d_16">
      <g>
       <use xlink:href="#m89fcd17fea" x="756.528092" y="403.436" style="stroke: #000000; stroke-width: 0.6"/>
      </g>
     </g>
    </g>
    <g id="xtick_17">
     <g id="line2d_17">
      <g>
       <use xlink:href="#m89fcd17fea" x="783.205817" y="403.436" style="stroke: #000000; stroke-width: 0.6"/>
      </g>
     </g>
    </g>
    <g id="xtick_18">
     <g id="line2d_18">
      <g>
       <use xlink:href="#m89fcd17fea" x="806.315112" y="403.436" style="stroke: #000000; stroke-width: 0.6"/>
      </g>
     </g>
    </g>
    <g id="xtick_19">
     <g id="line2d_19">
      <g>
       <use xlink:href="#m89fcd17fea" x="826.698956" y="403.436" style="stroke: #000000; stroke-width: 0.6"/>
      </g>
     </g>
    </g>
   </g>
   <g id="matplotlib.axis_2">
    <g id="ytick_1">
     <g id="line2d_20">
      <defs>
       <path id="m6211b111eb" d="M 0 0 
L -3.5 0 
" style="stroke: #000000; stroke-width: 0.8"/>
      </defs>
      <g>
       <use xlink:href="#m6211b111eb" x="47.95" y="358.28896" style="stroke: #000000; stroke-width: 0.8"/>
      </g>
     </g>
     <g id="text_4">
      <!-- 0.300 -->
      <g transform="translate(10.848438 362.114741) scale(0.1 -0.1)">
       <defs>
        <path id="DejaVuSansMono-2e" d="M 1528 953 
L 2316 953 
L 2316 0 
L 1528 0 
L 1528 953 
z
" transform="scale(0.015625)"/>
       </defs>
       <use xlink:href="#DejaVuSansMono-30"/>
       <use xlink:href="#DejaVuSansMono-2e" x="60.205078"/>
       <use xlink:href="#DejaVuSansMono-33" x="120.410156"/>
       <use xlink:href="#DejaVuSansMono-30" x="180.615234"/>
       <use xlink:href="#DejaVuSansMono-30" x="240.820312"/>
      </g>
     </g>
    </g>
    <g id="ytick_2">
     <g id="line2d_21">
      <g>
       <use xlink:href="#m6211b111eb" x="47.95" y="304.95932" style="stroke: #000000; stroke-width: 0.8"/>
      </g>
     </g>
     <g id="text_5">
      <!-- 0.325 -->
      <g transform="translate(10.848438 308.785102) scale(0.1 -0.1)">
       <defs>
        <path id="DejaVuSansMono-35" d="M 647 4666 
L 3009 4666 
L 3009 4134 
L 1222 4134 
L 1222 2988 
Q 1356 3038 1492 3061 
Q 1628 3084 1766 3084 
Q 2491 3084 2916 2656 
Q 3341 2228 3341 1497 
Q 3341 759 2895 334 
Q 2450 -91 1678 -91 
Q 1306 -91 998 -41 
Q 691 9 447 109 
L 447 750 
Q 734 594 1025 517 
Q 1316 441 1619 441 
Q 2141 441 2423 716 
Q 2706 991 2706 1497 
Q 2706 1997 2414 2275 
Q 2122 2553 1600 2553 
Q 1347 2553 1106 2495 
Q 866 2438 647 2322 
L 647 4666 
z
" transform="scale(0.015625)"/>
       </defs>
       <use xlink:href="#DejaVuSansMono-30"/>
       <use xlink:href="#DejaVuSansMono-2e" x="60.205078"/>
       <use xlink:href="#DejaVuSansMono-33" x="120.410156"/>
       <use xlink:href="#DejaVuSansMono-32" x="180.615234"/>
       <use xlink:href="#DejaVuSansMono-35" x="240.820312"/>
      </g>
     </g>
    </g>
    <g id="ytick_3">
     <g id="line2d_22">
      <g>
       <use xlink:href="#m6211b111eb" x="47.95" y="251.629681" style="stroke: #000000; stroke-width: 0.8"/>
      </g>
     </g>
     <g id="text_6">
      <!-- 0.350 -->
      <g transform="translate(10.848438 255.455463) scale(0.1 -0.1)">
       <use xlink:href="#DejaVuSansMono-30"/>
       <use xlink:href="#DejaVuSansMono-2e" x="60.205078"/>
       <use xlink:href="#DejaVuSansMono-33" x="120.410156"/>
       <use xlink:href="#DejaVuSansMono-35" x="180.615234"/>
       <use xlink:href="#DejaVuSansMono-30" x="240.820312"/>
      </g>
     </g>
    </g>
    <g id="ytick_4">
     <g id="line2d_23">
      <g>
       <use xlink:href="#m6211b111eb" x="47.95" y="198.300042" style="stroke: #000000; stroke-width: 0.8"/>
      </g>
     </g>
     <g id="text_7">
      <!-- 0.375 -->
      <g transform="translate(10.848438 202.125823) scale(0.1 -0.1)">
       <defs>
        <path id="DejaVuSansMono-37" d="M 434 4666 
L 3372 4666 
L 3372 4397 
L 1703 0 
L 1044 0 
L 2669 4134 
L 434 4134 
L 434 4666 
z
" transform="scale(0.015625)"/>
       </defs>
       <use xlink:href="#DejaVuSansMono-30"/>
       <use xlink:href="#DejaVuSansMono-2e" x="60.205078"/>
       <use xlink:href="#DejaVuSansMono-33" x="120.410156"/>
       <use xlink:href="#DejaVuSansMono-37" x="180.615234"/>
       <use xlink:href="#DejaVuSansMono-35" x="240.820312"/>
      </g>
     </g>
    </g>
    <g id="ytick_5">
     <g id="line2d_24">
      <g>
       <use xlink:href="#m6211b111eb" x="47.95" y="144.970403" style="stroke: #000000; stroke-width: 0.8"/>
      </g>
     </g>
     <g id="text_8">
      <!-- 0.400 -->
      <g transform="translate(10.848438 148.796184) scale(0.1 -0.1)">
       <defs>
        <path id="DejaVuSansMono-34" d="M 2297 4091 
L 825 1625 
L 2297 1625 
L 2297 4091 
z
M 2194 4666 
L 2925 4666 
L 2925 1625 
L 3547 1625 
L 3547 1113 
L 2925 1113 
L 2925 0 
L 2297 0 
L 2297 1113 
L 319 1113 
L 319 1709 
L 2194 4666 
z
" transform="scale(0.015625)"/>
       </defs>
       <use xlink:href="#DejaVuSansMono-30"/>
       <use xlink:href="#DejaVuSansMono-2e" x="60.205078"/>
       <use xlink:href="#DejaVuSansMono-34" x="120.410156"/>
       <use xlink:href="#DejaVuSansMono-30" x="180.615234"/>
       <use xlink:href="#DejaVuSansMono-30" x="240.820312"/>
      </g>
     </g>
    </g>
    <g id="ytick_6">
     <g id="line2d_25">
      <g>
       <use xlink:href="#m6211b111eb" x="47.95" y="91.640764" style="stroke: #000000; stroke-width: 0.8"/>
      </g>
     </g>
     <g id="text_9">
      <!-- 0.425 -->
      <g transform="translate(10.848438 95.466545) scale(0.1 -0.1)">
       <use xlink:href="#DejaVuSansMono-30"/>
       <use xlink:href="#DejaVuSansMono-2e" x="60.205078"/>
       <use xlink:href="#DejaVuSansMono-34" x="120.410156"/>
       <use xlink:href="#DejaVuSansMono-32" x="180.615234"/>
       <use xlink:href="#DejaVuSansMono-35" x="240.820312"/>
      </g>
     </g>
    </g>
    <g id="ytick_7">
     <g id="line2d_26">
      <g>
       <use xlink:href="#m6211b111eb" x="47.95" y="38.311125" style="stroke: #000000; stroke-width: 0.8"/>
      </g>
     </g>
     <g id="text_10">
      <!-- 0.450 -->
      <g transform="translate(10.848438 42.136906) scale(0.1 -0.1)">
       <use xlink:href="#DejaVuSansMono-30"/>
       <use xlink:href="#DejaVuSansMono-2e" x="60.205078"/>
       <use xlink:href="#DejaVuSansMono-34" x="120.410156"/>
       <use xlink:href="#DejaVuSansMono-35" x="180.615234"/>
       <use xlink:href="#DejaVuSansMono-30" x="240.820312"/>
      </g>
     </g>
    </g>
   </g>
   <g id="line2d_27">
    <path d="M -1 170.346282 
L 9.332187 159.071341 
L 29.716031 145.187556 
L 47.95 173.374212 
L 64.444632 175.088319 
L 79.503051 175.088319 
L 93.355453 149.902386 
L 118.120863 149.902386 
L 129.29007 169.726954 
L 139.781928 177.437263 
L 149.673914 176.794387 
L 159.03093 174.961578 
L 167.907883 194.682494 
L 176.351638 195.261851 
L 184.402515 222.430993 
L 192.095454 223.451759 
L 199.460934 251.219116 
L 206.525696 235.156345 
L 213.313336 258.868577 
L 219.844777 258.868577 
L 226.138658 232.976918 
L 232.211654 232.907607 
L 238.078747 225.58373 
L 243.75344 226.686963 
L 249.247954 215.37294 
L 254.573378 211.652615 
L 259.739811 199.718709 
L 264.756471 180.811627 
L 269.631797 180.811627 
L 274.373536 191.876894 
L 278.988813 188.593332 
L 283.4842 171.407614 
L 287.865767 157.362817 
L 292.139135 159.954538 
L 296.309521 160.304942 
L 300.381771 184.389176 
L 304.360398 165.250315 
L 308.24961 165.250315 
L 312.053338 165.489203 
L 315.775258 186.982539 
L 319.418817 189.874502 
L 322.987245 190.066114 
L 326.483579 192.004431 
L 329.910674 192.004431 
L 333.27122 186.748903 
L 336.567751 206.126047 
L 339.802661 188.387645 
L 342.978211 215.501032 
L 346.096541 216.103461 
L 349.159677 188.429703 
L 352.169538 185.460938 
L 355.127946 199.134037 
L 358.03663 171.186831 
L 360.897235 188.855757 
L 363.711323 186.843318 
L 366.480385 183.842595 
L 369.205837 183.842595 
L 371.889032 155.705702 
L 374.531262 135.881133 
L 377.133756 133.510927 
L 379.697694 133.558435 
L 382.224201 109.759944 
L 384.714354 82.194604 
L 387.169184 106.996287 
L 389.58968 79.850209 
L 391.976789 97.294926 
L 394.331419 97.714226 
L 396.654443 125.004289 
L 398.946697 96.794568 
L 401.208986 124.771059 
L 403.442083 124.474362 
L 405.646732 124.614245 
L 407.82365 123.950163 
L 409.973524 122.878177 
L 412.097019 130.695927 
L 414.194773 158.882583 
L 416.267405 142.629832 
L 418.315507 133.350258 
L 420.339655 105.163602 
L 422.340401 93.610715 
L 424.318281 69.534061 
L 426.273812 90.891341 
L 428.207493 113.842367 
L 430.119807 95.454909 
L 432.011221 107.559971 
L 433.882187 110.338073 
L 435.733142 107.049413 
L 437.564509 120.114754 
L 439.3767 148.038807 
L 441.170112 126.498708 
L 442.945129 129.942463 
L 444.702125 129.843781 
L 446.441463 128.073108 
L 448.163493 143.366487 
L 449.868558 149.17537 
L 451.556987 149.17537 
L 453.229103 177.362027 
L 454.885217 177.362027 
L 456.525634 203.107372 
L 458.150647 202.594473 
L 459.760544 202.594473 
L 461.355603 175.125412 
L 462.936094 203.072619 
L 464.502283 183.689585 
L 466.054424 160.250635 
L 467.592769 160.513238 
L 469.11756 132.326582 
L 470.629034 132.276819 
L 472.127421 160.463475 
L 473.612946 162.833681 
L 475.085829 163.790158 
L 476.546282 189.421457 
L 477.994513 217.397947 
L 479.430726 192.452165 
L 480.855118 193.926975 
L 482.267882 165.839143 
L 483.669207 165.839143 
L 485.059275 138.881515 
L 486.438268 167.091236 
L 487.806359 139.114745 
L 490.510518 195.417486 
L 491.846916 203.615611 
L 493.173073 202.44178 
L 494.489145 222.76318 
L 495.795284 194.576524 
L 497.09164 212.391891 
L 498.378357 212.877634 
L 500.923441 269.250946 
L 503.43164 269.312376 
L 504.672237 273.027219 
L 505.904005 263.275528 
L 507.127068 278.889214 
L 508.341547 250.656907 
L 509.547564 251.133329 
L 510.745234 266.044478 
L 511.934672 251.613076 
L 513.115992 278.981244 
L 514.289303 272.645526 
L 515.454712 293.013021 
L 516.612326 321.032033 
L 517.762248 333.92531 
L 518.90458 356.303084 
L 520.039421 328.163935 
L 521.166869 327.128408 
L 523.399966 271.068273 
L 524.505802 271.068273 
L 525.604616 297.629645 
L 526.696497 297.464948 
L 527.781533 269.278292 
L 528.859808 285.601241 
L 530.996411 332.41317 
L 533.106958 332.436885 
L 534.152657 317.008184 
L 535.192075 288.91772 
L 536.225288 287.890671 
L 537.252369 287.890671 
L 538.27339 288.100837 
L 539.288423 287.618817 
L 540.297538 286.144008 
L 541.300802 286.045183 
L 542.298284 277.400379 
L 543.29005 298.250727 
L 545.256692 298.250727 
L 546.231696 297.020043 
L 547.201237 297.020043 
L 548.165377 268.833387 
L 549.124175 269.093427 
L 550.07769 246.679345 
L 551.025981 274.866002 
L 551.969104 259.605992 
L 552.907115 264.297264 
L 554.768022 264.297264 
L 555.691025 265.801742 
L 556.609131 263.598452 
L 557.522393 264.624022 
L 558.43086 264.576514 
L 559.334584 260.513304 
L 560.233612 260.558955 
L 561.127995 284.703047 
L 562.017779 273.918209 
L 562.903012 286.538417 
L 563.78374 259.170249 
L 564.660008 287.356905 
L 565.531862 266.942647 
L 567.262503 210.569335 
L 568.121376 210.569335 
L 568.976008 238.708484 
L 569.826441 239.744011 
L 570.672715 240.94973 
L 572.352948 294.376475 
L 573.186986 296.001759 
L 574.017024 323.846203 
L 574.843101 324.114011 
L 575.665253 335.977718 
L 576.483517 312.44023 
L 577.297931 314.086392 
L 578.10853 331.878044 
L 578.915351 333.179669 
L 579.718427 320.64392 
L 580.517794 348.734384 
L 581.313486 348.757448 
L 582.105536 320.570792 
L 582.893978 320.570792 
L 583.678843 348.757448 
L 584.460166 348.757448 
L 585.237977 376.944104 
L 586.012308 385.588909 
L 586.783189 363.890485 
L 587.550652 335.703829 
L 588.314727 362.852439 
L 589.83283 308.926914 
L 590.586917 337.113571 
L 591.337732 336.85353 
L 592.085304 334.348224 
L 592.829661 334.348224 
L 593.57083 333.261614 
L 594.308838 328.084599 
L 595.043712 328.084599 
L 596.504165 326.28828 
L 597.229796 300.304914 
L 597.952396 300.304914 
L 598.671993 301.013247 
L 599.388609 305.076457 
L 600.102271 333.263113 
L 600.813001 305.147029 
L 601.520825 308.466136 
L 602.225765 282.090675 
L 602.927846 282.090675 
L 603.62709 262.522252 
L 604.32352 269.751295 
L 605.708028 269.751295 
L 607.764242 186.029124 
L 608.444254 184.487162 
L 609.121603 159.456636 
L 609.796312 150.861745 
L 610.468401 129.716776 
L 611.13789 129.716776 
L 611.804799 129.448968 
L 612.469148 101.262311 
L 613.130956 97.820607 
L 613.790243 98.377519 
L 614.447028 96.430412 
L 615.10133 95.128787 
L 615.753167 105.902272 
L 616.402559 77.715616 
L 617.694077 134.088928 
L 618.33624 105.902272 
L 618.976029 92.467133 
L 619.613461 92.467133 
L 620.881325 41.029259 
L 621.51179 41.624832 
L 622.139968 69.811489 
L 622.765873 42.709641 
L 624.010933 97.655683 
L 624.630121 70.174916 
L 625.2471 78.467173 
L 625.861888 90.91446 
L 626.4745 66.369438 
L 627.084951 84.020296 
L 627.693256 84.020296 
L 628.903489 28.647091 
L 630.105318 81.791313 
L 630.703117 64.17208 
L 631.298858 63.463748 
L 631.892556 62.438178 
L 632.484223 49.389826 
L 633.073875 59.573914 
L 633.661525 53.597424 
L 634.247186 55.384435 
L 634.830872 55.384435 
L 635.412595 46.766201 
L 635.99237 42.52478 
L 636.570209 42.620972 
L 637.146125 50.259833 
L 638.29224 105.795349 
L 639.430814 105.795349 
L 639.997304 104.006545 
L 640.561946 87.384412 
L 641.124752 80.342724 
L 642.244903 80.297073 
L 642.802271 88.660186 
L 643.35785 89.84162 
L 643.91165 64.80794 
L 644.463685 72.107076 
L 645.013964 100.293732 
L 645.562499 107.755777 
L 646.109301 135.942434 
L 647.197749 79.569121 
L 647.739416 79.592837 
L 648.279394 75.865113 
L 648.817692 86.127961 
L 649.35432 111.734291 
L 649.88929 109.379179 
L 650.422612 136.589309 
L 650.954295 136.589309 
L 651.484349 138.089236 
L 652.539612 82.068561 
L 653.064841 81.362672 
L 653.58848 101.257072 
L 654.11054 85.542517 
L 654.631029 85.495739 
L 655.149958 94.562789 
L 655.667336 95.09505 
L 656.183171 123.281707 
L 656.697474 131.715498 
L 657.210252 131.715498 
L 657.721516 133.723202 
L 658.231274 125.234789 
L 658.739534 125.234789 
L 659.246307 126.260359 
L 659.751599 139.308711 
L 660.255421 157.240708 
L 660.75778 142.779434 
L 661.758145 173.743579 
L 662.256168 175.888747 
L 662.752761 172.901126 
L 663.247933 172.925215 
L 663.741693 176.95383 
L 664.725006 120.580517 
L 665.702764 120.580517 
L 666.189579 142.245841 
L 666.675028 142.245841 
L 667.15912 170.432498 
L 668.12326 170.478149 
L 668.603323 162.115036 
L 669.082058 181.700482 
L 669.559473 181.79494 
L 670.035574 186.8142 
L 670.510369 158.627544 
L 670.983864 168.356464 
L 672.864999 168.381757 
L 673.332105 157.357963 
L 673.797953 153.022441 
L 674.262551 124.835785 
L 674.725905 124.835785 
L 675.648908 69.451962 
L 677.024248 128.426471 
L 677.480276 128.426471 
L 677.935106 128.215786 
L 678.388743 128.215786 
L 678.841195 152.807586 
L 679.292467 152.807586 
L 679.742565 153.92437 
L 680.191496 153.92437 
L 680.639265 145.322935 
L 681.085878 145.322935 
L 681.531342 144.496519 
L 681.975662 145.84815 
L 682.418845 145.84815 
L 683.301819 99.19217 
L 683.741623 71.005513 
L 684.180312 87.107818 
L 684.617891 69.7221 
L 685.489745 94.385686 
L 685.924031 94.385686 
L 686.357229 122.452061 
L 686.789346 130.350532 
L 687.220386 133.020226 
L 688.07926 189.182854 
L 688.507103 190.709603 
L 688.933892 167.676952 
L 689.35963 194.0308 
L 689.784324 165.844144 
L 690.207978 165.844144 
L 690.630598 193.820634 
L 691.052188 193.820634 
L 691.472754 201.24041 
L 691.8923 213.29263 
L 692.310831 213.29263 
L 692.728353 214.391217 
L 694.388439 214.391217 
L 694.800984 217.802795 
L 695.212548 218.452632 
L 696.032752 268.898618 
L 696.849086 325.173107 
L 697.255814 327.131699 
L 697.661589 311.085704 
L 698.066414 285.472729 
L 698.470294 272.594422 
L 698.873234 275.460341 
L 699.275238 247.484369 
L 699.67631 262.076487 
L 700.475677 207.229924 
L 700.87398 216.293908 
L 701.271369 188.130968 
L 701.667847 189.585785 
L 702.063419 185.958892 
L 702.458089 158.598652 
L 702.851861 183.354665 
L 703.244739 183.354665 
L 704.027829 226.649022 
L 704.418049 226.649022 
L 704.807392 238.660378 
L 705.19586 238.70714 
L 705.583459 230.580719 
L 705.970191 216.480293 
L 706.356061 216.480293 
L 706.741073 194.343463 
L 707.12523 186.023253 
L 707.508536 211.540216 
L 707.890995 183.564245 
L 708.27261 183.564245 
L 708.653386 183.41775 
L 709.033327 211.604406 
L 709.412434 187.047289 
L 709.790714 215.233945 
L 710.168168 191.357072 
L 710.5448 191.567238 
L 710.920615 199.589738 
L 711.295616 184.026016 
L 711.669805 200.065994 
L 712.043188 200.065994 
L 712.415766 199.226173 
L 712.787544 171.039517 
L 713.158525 171.039517 
L 713.528713 199.226173 
L 713.89811 204.536586 
L 714.266721 202.242306 
L 714.634548 225.961344 
L 716.098089 118.319928 
L 716.462048 143.657327 
L 716.825244 155.266151 
L 717.187679 155.266151 
L 717.549356 155.804413 
L 717.91028 171.354835 
L 718.270452 199.541492 
L 718.629876 207.170342 
L 718.988555 205.643592 
L 719.346492 233.830248 
L 719.703691 223.117219 
L 720.060154 223.070439 
L 720.415884 243.836589 
L 720.770884 247.463482 
L 721.831537 247.463482 
L 722.183648 250.405806 
L 722.535045 222.63845 
L 722.885729 250.825106 
L 723.235704 224.594824 
L 723.584973 224.548062 
L 723.933538 204.487827 
L 724.281403 216.748383 
L 724.62857 216.890855 
L 724.975042 212.203888 
L 725.320822 223.480673 
L 725.665912 197.377737 
L 726.010315 198.87608 
L 726.354034 172.924717 
L 726.697072 171.544462 
L 727.039432 171.544462 
L 727.381115 188.201222 
L 727.722126 187.789013 
L 728.062465 211.665886 
L 728.402137 183.47923 
L 729.079487 217.204117 
L 729.754196 160.830804 
L 730.426285 216.110852 
L 731.095773 159.856947 
L 731.429549 163.643766 
L 731.762682 190.664116 
L 732.095175 179.424118 
L 733.418797 282.604845 
L 733.748126 276.405845 
L 734.07683 258.670628 
L 734.404911 258.670628 
L 734.732371 258.132365 
L 735.059213 267.902681 
L 735.385439 267.902681 
L 735.711051 273.868369 
L 736.036051 302.055026 
L 736.360442 273.868369 
L 736.684226 273.868369 
L 737.007406 293.069419 
L 737.65196 246.825533 
L 737.97334 275.012189 
L 738.294123 251.335424 
L 738.614313 251.335424 
L 738.933912 237.04413 
L 739.252921 249.512578 
L 739.571344 221.325921 
L 739.889182 227.116555 
L 740.523112 227.094062 
L 740.839208 214.946395 
L 741.154728 242.99058 
L 741.469674 242.134817 
L 741.784047 219.612294 
L 743.035862 312.17838 
L 743.968817 237.763786 
L 744.278687 210.886027 
L 744.588004 210.886027 
L 745.204984 172.638143 
L 745.512651 193.641177 
L 745.819772 196.751334 
L 746.432383 141.212519 
L 747.042834 196.433405 
L 747.347254 188.843838 
L 747.651139 184.938692 
L 747.954492 199.996472 
L 748.257314 171.809816 
L 748.559607 164.575477 
L 749.46333 89.444514 
L 749.763526 107.986883 
L 750.063201 108.010599 
L 750.362359 131.787074 
L 750.661 103.600418 
L 750.959127 88.668118 
L 751.553845 88.668118 
L 751.850439 94.276728 
L 752.146526 94.276728 
L 752.442107 103.285399 
L 753.031759 100.640723 
L 753.325833 73.747348 
L 753.619408 69.237457 
L 753.912486 69.238088 
L 754.497158 42.874278 
L 754.788755 71.060934 
L 755.079861 86.728355 
L 755.370479 114.915012 
L 755.660609 117.42217 
L 755.950253 145.608826 
L 756.239414 145.39969 
L 756.528092 173.079251 
L 756.81629 173.079251 
L 757.104009 149.19639 
L 757.39125 148.492744 
L 757.964305 115.081653 
L 758.250123 143.26831 
L 758.820346 143.26831 
L 759.104755 170.146069 
L 759.388697 170.216641 
L 759.672174 195.0501 
L 759.955188 185.562081 
L 760.237739 192.745703 
L 760.51983 217.822203 
L 760.801461 219.857585 
L 761.082635 219.857585 
L 761.363353 192.703948 
L 761.643617 184.774531 
L 761.923427 188.013961 
L 762.202786 163.73245 
L 762.760154 163.73245 
L 763.038166 145.19904 
L 763.315733 146.920503 
L 763.869534 203.08365 
L 764.145771 190.542806 
L 764.421568 218.705746 
L 764.696926 194.999843 
L 764.971847 194.999843 
L 765.246332 209.721977 
L 765.520382 184.063479 
L 765.793999 183.64418 
L 766.339939 220.279989 
L 766.612264 192.093333 
L 766.884161 194.414553 
L 767.155632 205.910777 
L 767.426678 204.617496 
L 767.967499 204.663628 
L 768.237277 232.850284 
L 768.506635 232.850284 
L 768.775575 213.038113 
L 769.044097 206.910852 
L 769.312204 206.910852 
L 769.579895 209.007732 
L 769.847174 183.08943 
L 770.11404 183.298566 
L 770.380495 155.93216 
L 770.646541 183.093247 
L 770.912178 183.963118 
L 771.177408 189.037656 
L 771.442232 197.023523 
L 771.706652 189.147663 
L 771.970668 160.961007 
L 772.497496 160.961007 
L 772.760309 132.774351 
L 773.022724 155.177368 
L 773.284742 155.177368 
L 773.546363 165.744422 
L 774.068423 165.744422 
L 774.328863 163.685976 
L 774.588913 163.685976 
L 774.848572 175.345248 
L 775.107841 157.65156 
L 775.625219 198.239074 
L 775.883329 186.75269 
L 776.141054 214.939346 
L 776.398397 213.728057 
L 776.655357 236.040145 
L 776.911936 208.063655 
L 777.168135 208.063655 
L 777.423956 203.527831 
L 777.934466 203.552584 
L 778.189157 225.053794 
L 778.443474 197.305613 
L 778.697418 222.964111 
L 778.950989 222.964111 
L 779.457021 194.060981 
L 779.709483 194.060981 
L 779.961577 218.105878 
L 780.213304 221.937209 
L 780.464666 250.123865 
L 780.966298 250.077103 
L 781.216569 238.205461 
L 781.466479 238.252968 
L 781.716029 229.878484 
L 781.965219 230.031849 
L 782.214051 230.031849 
L 782.462526 225.450303 
L 782.710644 236.070336 
L 782.958407 208.144996 
L 783.205817 219.174781 
L 783.452873 192.745296 
L 783.699576 191.875424 
L 783.945929 191.875424 
L 784.191931 175.625157 
L 784.437584 183.511268 
L 784.927847 239.884581 
L 785.416725 239.884581 
L 785.660647 245.597648 
L 785.904226 217.410991 
L 786.390357 188.879751 
L 786.632912 188.879751 
L 786.875127 208.005183 
L 787.117003 215.158141 
L 787.599745 208.588637 
L 787.840611 211.162319 
L 788.561206 146.553756 
L 788.800739 174.763477 
L 789.039941 150.871413 
L 789.517356 150.871413 
L 789.75557 149.405712 
L 789.993457 149.405712 
L 790.231017 177.497043 
L 790.468252 155.995834 
L 790.705162 155.767525 
L 790.941748 141.291093 
L 791.178011 114.447792 
L 791.413952 101.106503 
L 791.649571 102.828386 
L 791.884871 131.015042 
L 792.119851 131.835498 
L 792.354512 144.17562 
L 792.588855 144.17562 
L 792.822882 157.841404 
L 793.056592 157.841404 
L 793.289988 144.048803 
L 793.755836 143.978231 
L 793.988291 154.515218 
L 794.220434 126.328561 
L 794.452267 154.515218 
L 794.683788 142.029187 
L 794.915001 169.954527 
L 795.145905 158.104491 
L 795.376502 166.673743 
L 795.606791 194.860399 
L 795.836775 190.98188 
L 796.066453 190.965682 
L 796.295827 183.07957 
L 796.753665 183.07957 
L 796.982131 191.000964 
L 797.210295 217.550643 
L 797.438159 189.363987 
L 797.892989 231.874226 
L 798.119957 246.557192 
L 798.346627 218.370535 
L 798.573 227.454824 
L 798.799078 220.301865 
L 799.024861 240.835202 
L 799.25035 240.835202 
L 799.475545 212.648546 
L 799.700448 212.958749 
L 800.373408 212.935684 
L 800.597148 237.321212 
L 800.820599 244.576485 
L 801.043761 224.738142 
L 801.266637 225.514308 
L 801.711528 170.31536 
L 801.933546 170.31536 
L 802.155279 198.502017 
L 802.376728 184.791792 
L 802.597894 212.054392 
L 802.818778 212.054392 
L 803.039381 234.859524 
L 803.259703 234.859524 
L 803.699506 178.486211 
L 804.138195 151.455891 
L 804.357123 151.455891 
L 804.575775 177.120134 
L 805.012251 177.166915 
L 805.230077 159.418726 
L 805.447629 160.02047 
L 805.664908 131.833814 
L 805.881914 138.488456 
L 806.315112 138.488456 
L 806.531306 157.37426 
L 806.747229 129.187603 
L 806.962883 123.791403 
L 807.178269 122.674135 
L 807.393388 150.860792 
L 807.822824 106.774616 
L 808.037143 99.729069 
L 808.251197 101.366046 
L 808.464987 129.552703 
L 808.678512 129.763388 
L 808.891775 143.415776 
L 809.104775 115.22912 
L 809.317514 143.415776 
L 809.529991 120.398559 
L 809.954164 120.398559 
L 810.165862 120.7232 
L 810.3773 122.655264 
L 810.588481 122.345062 
L 810.799405 122.345062 
L 811.010071 150.531718 
L 811.220482 150.112419 
L 811.430637 125.585404 
L 811.640537 118.330131 
L 811.850183 128.091711 
L 812.059575 155.502201 
L 812.268714 155.430017 
L 812.477601 154.327837 
L 812.686236 182.514493 
L 812.89462 179.031741 
L 813.102753 207.218397 
L 813.310636 179.521245 
L 813.518269 207.707901 
L 813.932791 157.162488 
L 814.346322 157.162488 
L 814.552717 170.527024 
L 814.758867 195.41694 
L 815.170431 195.41694 
L 815.375847 223.603596 
L 815.581019 223.57988 
L 815.785948 213.304381 
L 815.990635 216.312224 
L 816.19508 226.073103 
L 816.399284 226.793658 
L 816.603247 226.793658 
L 816.80697 254.980315 
L 817.010453 240.467934 
L 817.213698 241.087268 
L 817.416704 222.175332 
L 817.619472 250.361988 
L 818.024297 250.361988 
L 818.226355 243.940419 
L 818.428177 271.251228 
L 818.629765 270.029356 
L 819.233121 189.669556 
L 819.433774 189.669556 
L 819.634194 161.627347 
L 819.834382 174.238781 
L 820.034339 202.425437 
L 820.234065 174.238781 
L 820.433561 173.91414 
L 820.632827 184.888228 
L 820.831864 206.386082 
L 821.229252 206.409147 
L 821.62573 206.99609 
L 821.823629 235.182747 
L 822.021302 223.770417 
L 822.21875 223.770417 
L 822.415972 226.219504 
L 822.61297 226.360992 
L 822.809744 226.360992 
L 823.006294 229.843744 
L 823.202622 201.797601 
L 823.398727 201.308097 
L 823.59461 195.928759 
L 823.790272 193.760501 
L 824.180932 193.760501 
L 824.375932 221.947157 
L 824.570713 221.947157 
L 824.765275 197.58359 
L 824.959618 225.770247 
L 825.347651 172.150291 
L 825.541342 184.2009 
L 825.928074 232.829938 
L 826.313944 223.175102 
L 826.698956 223.175102 
L 826.891141 209.736607 
L 827.083113 237.303929 
L 827.466419 237.303929 
L 827.657754 228.047502 
L 827.848878 228.047502 
L 828.039791 222.45775 
L 828.230494 212.866683 
L 828.420986 185.9019 
L 828.61127 185.9019 
L 828.99121 203.219072 
L 829.370318 259.447937 
L 829.559561 269.85372 
L 829.748597 241.667064 
L 829.937427 259.248051 
L 830.126051 259.202919 
L 830.31447 246.296767 
L 830.502684 224.798913 
L 830.690693 228.187287 
L 830.878498 228.187287 
L 831.0661 200.024346 
L 831.253499 228.043358 
L 831.440695 199.856702 
L 831.627688 221.345793 
L 831.81448 201.281723 
L 832.001071 198.832636 
L 832.18746 200.62962 
L 832.559638 200.62962 
L 832.931017 256.862419 
L 833.116409 259.30618 
L 833.671393 342.054954 
L 834.040397 285.888498 
L 834.224604 285.362149 
L 834.408616 257.820679 
L 834.592431 278.892799 
L 834.776052 282.475841 
L 835.325749 243.748655 
L 835.508594 266.677187 
L 835.691246 264.824576 
L 836.055972 209.787179 
L 836.055972 209.787179 
" clip-path="url(#pff70671c5a)" style="fill: none; stroke: #000000; stroke-width: 2; stroke-linecap: square"/>
   </g>
   <g id="patch_3">
    <path d="M 47.95 403.436 
L 47.95 10.8 
" style="fill: none; stroke: #000000; stroke-width: 0.8; stroke-linejoin: miter; stroke-linecap: square"/>
   </g>
   <g id="patch_4">
    <path d="M 844.932925 403.436 
L 844.932925 10.8 
" style="fill: none; stroke: #000000; stroke-width: 0.8; stroke-linejoin: miter; stroke-linecap: square"/>
   </g>
   <g id="patch_5">
    <path d="M 47.95 403.436 
L 844.932925 403.436 
" style="fill: none; stroke: #000000; stroke-width: 0.8; stroke-linejoin: miter; stroke-linecap: square"/>
   </g>
   <g id="patch_6">
    <path d="M 47.95 10.8 
L 844.932925 10.8 
" style="fill: none; stroke: #000000; stroke-width: 0.8; stroke-linejoin: miter; stroke-linecap: square"/>
   </g>
  </g>
 </g>
 <defs>
  <clipPath id="pff70671c5a">
   <rect x="47.95" y="10.8" width="796.982925" height="392.636"/>
  </clipPath>
 </defs>
</svg>
