<?xml version="1.0" encoding="utf-8" standalone="no"?>
<!DOCTYPE svg PUBLIC "-//W3C//DTD SVG 1.1//EN"
  "http://www.w3.org/Graphics/SVG/1.1/DTD/svg11.dtd">
<svg xmlns:xlink="http://www.w3.org/1999/xlink" width="864pt" height="432pt" viewBox="0 0 864 432" xmlns="http://www.w3.org/2000/svg" version="1.1">
 <metadata>
  <rdf:RDF xmlns:dc="http://purl.org/dc/elements/1.1/" xmlns:cc="http://creativecommons.org/ns#" xmlns:rdf="http://www.w3.org/1999/02/22-rdf-syntax-ns#">
   <cc:Work>
    <dc:type rdf:resource="http://purl.org/dc/dcmitype/StillImage"/>
    <dc:date>2024-09-19T08:21:18.110056</dc:date>
    <dc:format>image/svg+xml</dc:format>
    <dc:creator>
     <cc:Agent>
      <dc:title>Matplotlib v3.9.2, https://matplotlib.org/</dc:title>
     </cc:Agent>
    </dc:creator>
   </cc:Work>
  </rdf:RDF>
 </metadata>
 <defs>
  <style type="text/css">*{stroke-linejoin: round; stroke-linecap: butt}</style>
 </defs>
 <g id="figure_1">
  <g id="patch_1">
   <path d="M 0 432 
L 864 432 
L 864 0 
L 0 0 
z
" style="fill: #ffffff"/>
  </g>
  <g id="axes_1">
   <g id="patch_2">
    <path d="M 41.92 404.12 
L 853.2 404.12 
L 853.2 10.8 
L 41.92 10.8 
z
" style="fill: #ffffff"/>
   </g>
   <g id="matplotlib.axis_1">
    <g id="xtick_1">
     <g id="line2d_1">
      <defs>
       <path id="ma5040b41f8" d="M 0 0 
L 0 3.5 
" style="stroke: #000000; stroke-width: 0.8"/>
      </defs>
      <g>
       <use xlink:href="#ma5040b41f8" x="199.048644" y="404.12" style="stroke: #000000; stroke-width: 0.8"/>
      </g>
     </g>
     <g id="text_1">
      <!-- 200 -->
      <g transform="translate(190.018175 418.771563) scale(0.1 -0.1)">
       <defs>
        <path id="DejaVuSansMono-32" d="M 1166 531 
L 3309 531 
L 3309 0 
L 475 0 
L 475 531 
Q 1059 1147 1496 1619 
Q 1934 2091 2100 2284 
Q 2413 2666 2522 2902 
Q 2631 3138 2631 3384 
Q 2631 3775 2401 3997 
Q 2172 4219 1772 4219 
Q 1488 4219 1175 4116 
Q 863 4013 513 3803 
L 513 4441 
Q 834 4594 1145 4672 
Q 1456 4750 1759 4750 
Q 2444 4750 2861 4386 
Q 3278 4022 3278 3431 
Q 3278 3131 3139 2831 
Q 3000 2531 2688 2169 
Q 2513 1966 2180 1606 
Q 1847 1247 1166 531 
z
" transform="scale(0.015625)"/>
        <path id="DejaVuSansMono-30" d="M 1509 2344 
Q 1509 2516 1629 2641 
Q 1750 2766 1919 2766 
Q 2094 2766 2219 2641 
Q 2344 2516 2344 2344 
Q 2344 2169 2220 2047 
Q 2097 1925 1919 1925 
Q 1744 1925 1626 2044 
Q 1509 2163 1509 2344 
z
M 1925 4250 
Q 1484 4250 1267 3775 
Q 1050 3300 1050 2328 
Q 1050 1359 1267 884 
Q 1484 409 1925 409 
Q 2369 409 2586 884 
Q 2803 1359 2803 2328 
Q 2803 3300 2586 3775 
Q 2369 4250 1925 4250 
z
M 1925 4750 
Q 2672 4750 3055 4137 
Q 3438 3525 3438 2328 
Q 3438 1134 3055 521 
Q 2672 -91 1925 -91 
Q 1178 -91 797 521 
Q 416 1134 416 2328 
Q 416 3525 797 4137 
Q 1178 4750 1925 4750 
z
" transform="scale(0.015625)"/>
       </defs>
       <use xlink:href="#DejaVuSansMono-32"/>
       <use xlink:href="#DejaVuSansMono-30" x="60.205078"/>
       <use xlink:href="#DejaVuSansMono-30" x="120.410156"/>
      </g>
     </g>
    </g>
    <g id="xtick_2">
     <g id="line2d_2">
      <g>
       <use xlink:href="#ma5040b41f8" x="364.447217" y="404.12" style="stroke: #000000; stroke-width: 0.8"/>
      </g>
     </g>
     <g id="text_2">
      <!-- 400 -->
      <g transform="translate(355.416748 418.771563) scale(0.1 -0.1)">
       <defs>
        <path id="DejaVuSansMono-34" d="M 2297 4091 
L 825 1625 
L 2297 1625 
L 2297 4091 
z
M 2194 4666 
L 2925 4666 
L 2925 1625 
L 3547 1625 
L 3547 1113 
L 2925 1113 
L 2925 0 
L 2297 0 
L 2297 1113 
L 319 1113 
L 319 1709 
L 2194 4666 
z
" transform="scale(0.015625)"/>
       </defs>
       <use xlink:href="#DejaVuSansMono-34"/>
       <use xlink:href="#DejaVuSansMono-30" x="60.205078"/>
       <use xlink:href="#DejaVuSansMono-30" x="120.410156"/>
      </g>
     </g>
    </g>
    <g id="xtick_3">
     <g id="line2d_3">
      <g>
       <use xlink:href="#ma5040b41f8" x="529.84579" y="404.12" style="stroke: #000000; stroke-width: 0.8"/>
      </g>
     </g>
     <g id="text_3">
      <!-- 600 -->
      <g transform="translate(520.815321 418.771563) scale(0.1 -0.1)">
       <defs>
        <path id="DejaVuSansMono-36" d="M 3097 4563 
L 3097 3981 
Q 2900 4097 2678 4158 
Q 2456 4219 2216 4219 
Q 1616 4219 1306 3767 
Q 997 3316 997 2438 
Q 1147 2750 1412 2917 
Q 1678 3084 2022 3084 
Q 2697 3084 3067 2670 
Q 3438 2256 3438 1497 
Q 3438 741 3056 325 
Q 2675 -91 1984 -91 
Q 1172 -91 794 492 
Q 416 1075 416 2328 
Q 416 3509 870 4129 
Q 1325 4750 2188 4750 
Q 2419 4750 2650 4701 
Q 2881 4653 3097 4563 
z
M 1972 2591 
Q 1569 2591 1337 2300 
Q 1106 2009 1106 1497 
Q 1106 984 1337 693 
Q 1569 403 1972 403 
Q 2391 403 2603 679 
Q 2816 956 2816 1497 
Q 2816 2041 2603 2316 
Q 2391 2591 1972 2591 
z
" transform="scale(0.015625)"/>
       </defs>
       <use xlink:href="#DejaVuSansMono-36"/>
       <use xlink:href="#DejaVuSansMono-30" x="60.205078"/>
       <use xlink:href="#DejaVuSansMono-30" x="120.410156"/>
      </g>
     </g>
    </g>
    <g id="xtick_4">
     <g id="line2d_4">
      <g>
       <use xlink:href="#ma5040b41f8" x="695.244363" y="404.12" style="stroke: #000000; stroke-width: 0.8"/>
      </g>
     </g>
     <g id="text_4">
      <!-- 800 -->
      <g transform="translate(686.213894 418.771563) scale(0.1 -0.1)">
       <defs>
        <path id="DejaVuSansMono-38" d="M 1925 2216 
Q 1503 2216 1273 1980 
Q 1044 1744 1044 1313 
Q 1044 881 1276 642 
Q 1509 403 1925 403 
Q 2350 403 2579 639 
Q 2809 875 2809 1313 
Q 2809 1741 2576 1978 
Q 2344 2216 1925 2216 
z
M 1375 2478 
Q 972 2581 745 2862 
Q 519 3144 519 3541 
Q 519 4097 897 4423 
Q 1275 4750 1925 4750 
Q 2578 4750 2956 4423 
Q 3334 4097 3334 3541 
Q 3334 3144 3107 2862 
Q 2881 2581 2478 2478 
Q 2947 2375 3195 2062 
Q 3444 1750 3444 1253 
Q 3444 622 3041 265 
Q 2638 -91 1925 -91 
Q 1213 -91 811 264 
Q 409 619 409 1247 
Q 409 1747 657 2061 
Q 906 2375 1375 2478 
z
M 1147 3481 
Q 1147 3106 1347 2909 
Q 1547 2713 1925 2713 
Q 2306 2713 2506 2909 
Q 2706 3106 2706 3481 
Q 2706 3863 2507 4063 
Q 2309 4263 1925 4263 
Q 1547 4263 1347 4061 
Q 1147 3859 1147 3481 
z
" transform="scale(0.015625)"/>
       </defs>
       <use xlink:href="#DejaVuSansMono-38"/>
       <use xlink:href="#DejaVuSansMono-30" x="60.205078"/>
       <use xlink:href="#DejaVuSansMono-30" x="120.410156"/>
      </g>
     </g>
    </g>
   </g>
   <g id="matplotlib.axis_2">
    <g id="ytick_1">
     <g id="line2d_5">
      <defs>
       <path id="me67c0f8684" d="M 0 0 
L -3.5 0 
" style="stroke: #000000; stroke-width: 0.8"/>
      </defs>
      <g>
       <use xlink:href="#me67c0f8684" x="41.92" y="386.271911" style="stroke: #000000; stroke-width: 0.8"/>
      </g>
     </g>
     <g id="text_5">
      <!-- 0.00 -->
      <g transform="translate(10.83875 390.097692) scale(0.1 -0.1)">
       <defs>
        <path id="DejaVuSansMono-2e" d="M 1528 953 
L 2316 953 
L 2316 0 
L 1528 0 
L 1528 953 
z
" transform="scale(0.015625)"/>
       </defs>
       <use xlink:href="#DejaVuSansMono-30"/>
       <use xlink:href="#DejaVuSansMono-2e" x="60.205078"/>
       <use xlink:href="#DejaVuSansMono-30" x="120.410156"/>
       <use xlink:href="#DejaVuSansMono-30" x="180.615234"/>
      </g>
     </g>
    </g>
    <g id="ytick_2">
     <g id="line2d_6">
      <g>
       <use xlink:href="#me67c0f8684" x="41.92" y="318.00659" style="stroke: #000000; stroke-width: 0.8"/>
      </g>
     </g>
     <g id="text_6">
      <!-- 0.05 -->
      <g transform="translate(10.83875 321.832371) scale(0.1 -0.1)">
       <defs>
        <path id="DejaVuSansMono-35" d="M 647 4666 
L 3009 4666 
L 3009 4134 
L 1222 4134 
L 1222 2988 
Q 1356 3038 1492 3061 
Q 1628 3084 1766 3084 
Q 2491 3084 2916 2656 
Q 3341 2228 3341 1497 
Q 3341 759 2895 334 
Q 2450 -91 1678 -91 
Q 1306 -91 998 -41 
Q 691 9 447 109 
L 447 750 
Q 734 594 1025 517 
Q 1316 441 1619 441 
Q 2141 441 2423 716 
Q 2706 991 2706 1497 
Q 2706 1997 2414 2275 
Q 2122 2553 1600 2553 
Q 1347 2553 1106 2495 
Q 866 2438 647 2322 
L 647 4666 
z
" transform="scale(0.015625)"/>
       </defs>
       <use xlink:href="#DejaVuSansMono-30"/>
       <use xlink:href="#DejaVuSansMono-2e" x="60.205078"/>
       <use xlink:href="#DejaVuSansMono-30" x="120.410156"/>
       <use xlink:href="#DejaVuSansMono-35" x="180.615234"/>
      </g>
     </g>
    </g>
    <g id="ytick_3">
     <g id="line2d_7">
      <g>
       <use xlink:href="#me67c0f8684" x="41.92" y="249.74127" style="stroke: #000000; stroke-width: 0.8"/>
      </g>
     </g>
     <g id="text_7">
      <!-- 0.10 -->
      <g transform="translate(10.83875 253.567051) scale(0.1 -0.1)">
       <defs>
        <path id="DejaVuSansMono-31" d="M 844 531 
L 1825 531 
L 1825 4097 
L 769 3859 
L 769 4434 
L 1819 4666 
L 2450 4666 
L 2450 531 
L 3419 531 
L 3419 0 
L 844 0 
L 844 531 
z
" transform="scale(0.015625)"/>
       </defs>
       <use xlink:href="#DejaVuSansMono-30"/>
       <use xlink:href="#DejaVuSansMono-2e" x="60.205078"/>
       <use xlink:href="#DejaVuSansMono-31" x="120.410156"/>
       <use xlink:href="#DejaVuSansMono-30" x="180.615234"/>
      </g>
     </g>
    </g>
    <g id="ytick_4">
     <g id="line2d_8">
      <g>
       <use xlink:href="#me67c0f8684" x="41.92" y="181.475949" style="stroke: #000000; stroke-width: 0.8"/>
      </g>
     </g>
     <g id="text_8">
      <!-- 0.15 -->
      <g transform="translate(10.83875 185.30173) scale(0.1 -0.1)">
       <use xlink:href="#DejaVuSansMono-30"/>
       <use xlink:href="#DejaVuSansMono-2e" x="60.205078"/>
       <use xlink:href="#DejaVuSansMono-31" x="120.410156"/>
       <use xlink:href="#DejaVuSansMono-35" x="180.615234"/>
      </g>
     </g>
    </g>
    <g id="ytick_5">
     <g id="line2d_9">
      <g>
       <use xlink:href="#me67c0f8684" x="41.92" y="113.210628" style="stroke: #000000; stroke-width: 0.8"/>
      </g>
     </g>
     <g id="text_9">
      <!-- 0.20 -->
      <g transform="translate(10.83875 117.03641) scale(0.1 -0.1)">
       <use xlink:href="#DejaVuSansMono-30"/>
       <use xlink:href="#DejaVuSansMono-2e" x="60.205078"/>
       <use xlink:href="#DejaVuSansMono-32" x="120.410156"/>
       <use xlink:href="#DejaVuSansMono-30" x="180.615234"/>
      </g>
     </g>
    </g>
    <g id="ytick_6">
     <g id="line2d_10">
      <g>
       <use xlink:href="#me67c0f8684" x="41.92" y="44.945308" style="stroke: #000000; stroke-width: 0.8"/>
      </g>
     </g>
     <g id="text_10">
      <!-- 0.25 -->
      <g transform="translate(10.83875 48.771089) scale(0.1 -0.1)">
       <use xlink:href="#DejaVuSansMono-30"/>
       <use xlink:href="#DejaVuSansMono-2e" x="60.205078"/>
       <use xlink:href="#DejaVuSansMono-32" x="120.410156"/>
       <use xlink:href="#DejaVuSansMono-35" x="180.615234"/>
      </g>
     </g>
    </g>
   </g>
   <g id="line2d_11">
    <path d="M 33.650071 28.678182 
L 34.477064 48.24543 
L 35.304057 129.203251 
L 36.13105 175.59485 
L 36.958043 197.421515 
L 37.785036 210.652332 
L 38.612029 214.697115 
L 39.439021 214.710697 
L 40.266014 218.866963 
L 41.093007 200.76232 
L 41.92 202.121271 
L 42.746993 207.835217 
L 43.573986 210.399276 
L 44.400979 235.352559 
L 45.227971 250.840189 
L 46.054964 253.194904 
L 46.881957 256.362243 
L 47.70895 256.287476 
L 48.535943 257.630625 
L 49.362936 243.54982 
L 50.189929 243.219087 
L 51.016922 240.05596 
L 51.843914 245.595325 
L 52.670907 252.884556 
L 53.4979 253.716188 
L 54.324893 253.505853 
L 55.151886 254.005087 
L 55.978879 251.158459 
L 56.805872 251.465124 
L 57.632864 282.538014 
L 58.459857 283.020352 
L 59.28685 287.311695 
L 60.113843 289.92666 
L 60.940836 288.456757 
L 61.767829 279.501463 
L 62.594822 277.304919 
L 63.421814 277.387246 
L 64.248807 274.569907 
L 65.0758 274.579709 
L 65.902793 279.473826 
L 66.729786 278.348609 
L 67.556779 277.891496 
L 68.383772 273.807889 
L 69.210765 276.20145 
L 70.037757 280.47282 
L 70.86475 281.901251 
L 71.691743 278.94926 
L 72.518736 279.955147 
L 73.345729 279.145319 
L 74.172722 278.038649 
L 74.999715 275.286859 
L 75.826707 277.01649 
L 76.6537 283.645745 
L 77.480693 278.150099 
L 78.307686 280.878614 
L 79.134679 280.422614 
L 79.961672 280.658442 
L 80.788665 281.069193 
L 81.615657 279.527907 
L 82.44265 280.249299 
L 83.269643 281.901553 
L 84.096636 266.526346 
L 84.923629 268.456315 
L 85.750622 269.975955 
L 86.577615 271.184138 
L 87.404608 270.837927 
L 88.2316 271.044552 
L 89.058593 270.71929 
L 89.885586 273.139136 
L 90.712579 273.592738 
L 91.539572 274.675782 
L 92.366565 272.215046 
L 93.193558 272.006455 
L 94.02055 275.693892 
L 94.847543 276.5889 
L 95.674536 276.508535 
L 96.501529 277.162659 
L 97.328522 281.415029 
L 98.982508 280.878072 
L 99.809501 279.601465 
L 100.636493 294.706764 
L 101.463486 292.132807 
L 102.290479 291.060153 
L 103.117472 287.543476 
L 103.944465 287.169806 
L 104.771458 284.878993 
L 105.598451 283.929328 
L 106.425443 284.125233 
L 107.252436 283.679486 
L 108.079429 286.241 
L 108.906422 287.301872 
L 109.733415 279.161284 
L 110.560408 279.213249 
L 111.387401 277.447268 
L 112.214393 278.862979 
L 113.041386 272.227692 
L 113.868379 270.687487 
L 114.695372 270.754058 
L 115.522365 270.943501 
L 116.349358 266.110749 
L 117.176351 267.109358 
L 118.003344 277.501197 
L 118.830336 269.557387 
L 119.657329 274.072975 
L 120.484322 274.266585 
L 121.311315 280.382503 
L 122.138308 283.020417 
L 122.965301 282.907267 
L 123.792294 282.208244 
L 124.619286 286.49947 
L 125.446279 282.53288 
L 126.273272 283.082865 
L 127.100265 292.106374 
L 127.927258 292.827341 
L 128.754251 293.344956 
L 129.581244 296.544435 
L 130.408236 295.765817 
L 132.062222 295.879587 
L 132.889215 296.509516 
L 133.716208 297.510974 
L 134.543201 297.334091 
L 135.370194 297.580658 
L 136.197187 294.738281 
L 137.024179 294.731289 
L 137.851172 287.990441 
L 138.678165 278.123792 
L 139.505158 271.215341 
L 140.332151 271.08528 
L 141.159144 270.119277 
L 141.986137 273.720691 
L 142.813129 273.923761 
L 143.640122 273.284071 
L 144.467115 275.720574 
L 145.294108 275.096356 
L 146.948094 290.228246 
L 147.775087 295.005678 
L 148.60208 294.838592 
L 149.429072 295.334884 
L 150.256065 293.647489 
L 151.083058 293.609306 
L 151.910051 294.300593 
L 152.737044 294.52944 
L 153.564037 293.390538 
L 154.39103 291.964783 
L 155.218022 293.613573 
L 156.045015 295.785137 
L 156.872008 297.178796 
L 157.699001 297.550768 
L 158.525994 299.640332 
L 159.352987 299.67313 
L 160.17998 294.923475 
L 161.006972 294.656835 
L 161.833965 291.430626 
L 162.660958 292.247946 
L 163.487951 294.509857 
L 164.314944 290.462121 
L 165.141937 289.642566 
L 166.795923 289.646595 
L 167.622915 287.082835 
L 168.449908 291.367731 
L 169.276901 290.897516 
L 170.103894 295.721962 
L 170.930887 294.021926 
L 171.75788 290.920912 
L 172.584873 294.965651 
L 173.411865 294.865431 
L 174.238858 294.939522 
L 175.065851 294.552331 
L 175.892844 291.510698 
L 176.719837 291.511729 
L 178.373823 288.67002 
L 179.200815 290.562099 
L 180.027808 292.976519 
L 180.854801 292.84055 
L 181.681794 291.984009 
L 182.508787 292.017917 
L 183.33578 291.771112 
L 184.162773 296.961124 
L 184.989766 296.370201 
L 185.816758 298.271252 
L 186.643751 298.968371 
L 187.470744 297.428046 
L 188.297737 297.400149 
L 189.12473 296.578254 
L 189.951723 295.958904 
L 190.778716 293.347838 
L 192.432701 294.130869 
L 193.259694 294.604706 
L 194.086687 294.513099 
L 194.91368 295.291952 
L 195.740673 297.167354 
L 196.567666 296.79014 
L 197.394659 296.713386 
L 198.221651 298.896032 
L 199.048644 301.503013 
L 199.875637 301.872854 
L 200.70263 301.706838 
L 201.529623 302.059464 
L 203.183609 295.948641 
L 204.010601 296.239102 
L 204.837594 296.966201 
L 205.664587 295.044735 
L 206.49158 295.354915 
L 207.318573 291.861653 
L 208.972559 291.599664 
L 209.799551 290.340986 
L 211.453537 296.356977 
L 212.28053 294.693213 
L 213.107523 294.990873 
L 213.934516 298.003217 
L 214.761509 297.951307 
L 215.588502 300.553437 
L 216.415494 299.333029 
L 217.242487 299.692805 
L 218.06948 301.063214 
L 218.896473 301.804439 
L 219.723466 300.869751 
L 220.550459 301.692327 
L 221.377452 300.114653 
L 222.204444 296.061253 
L 223.031437 295.760276 
L 223.85843 296.690685 
L 224.685423 297.954723 
L 225.512416 296.090001 
L 226.339409 296.182699 
L 227.166402 294.832917 
L 228.820387 296.586793 
L 229.64738 298.241328 
L 230.474373 302.424783 
L 231.301366 302.312178 
L 232.128359 302.084444 
L 232.955352 301.150405 
L 233.782345 302.987593 
L 234.609337 302.378985 
L 235.43633 303.637027 
L 236.263323 302.943073 
L 237.917309 303.122404 
L 239.571295 302.962931 
L 240.398287 302.735298 
L 241.22528 303.513301 
L 242.052273 303.566153 
L 242.879266 304.119548 
L 243.706259 304.106274 
L 244.533252 300.029578 
L 245.360245 299.752376 
L 247.01423 299.515291 
L 248.668216 300.639953 
L 251.976188 299.926148 
L 252.80318 304.704406 
L 254.457166 304.875519 
L 255.284159 304.470263 
L 256.111152 304.3155 
L 257.765138 304.217015 
L 258.59213 303.585684 
L 259.419123 303.694131 
L 260.246116 302.78102 
L 261.073109 303.271883 
L 261.900102 303.393476 
L 262.727095 302.624656 
L 263.554088 303.03491 
L 266.035066 303.30781 
L 266.862059 304.274006 
L 267.689052 304.64192 
L 268.516045 305.729715 
L 269.343038 305.792868 
L 270.170031 305.647212 
L 270.997023 306.641347 
L 272.651009 306.962213 
L 273.478002 307.010967 
L 274.304995 305.817386 
L 275.131988 305.835541 
L 275.958981 306.110716 
L 276.785973 305.483365 
L 278.439959 305.446001 
L 279.266952 305.328772 
L 281.747931 305.740573 
L 282.574924 307.426381 
L 283.401916 307.265771 
L 284.228909 306.198424 
L 285.055902 307.122946 
L 287.536881 307.593618 
L 288.363874 306.668797 
L 289.190866 306.637216 
L 290.017859 306.352062 
L 290.844852 305.946766 
L 291.671845 306.166602 
L 292.498838 305.345286 
L 293.325831 305.014631 
L 295.806809 305.177304 
L 296.633802 306.184031 
L 297.460795 306.240524 
L 298.287788 306.66503 
L 299.114781 307.28879 
L 299.941774 307.332359 
L 300.768767 309.302706 
L 301.595759 309.808958 
L 302.422752 309.743499 
L 303.249745 310.02376 
L 304.076738 310.09098 
L 304.903731 309.985052 
L 305.730724 310.120262 
L 306.557717 309.619655 
L 307.384709 308.877118 
L 310.692681 309.668304 
L 311.519674 309.774432 
L 312.346667 309.335345 
L 313.17366 309.512555 
L 314.000652 309.474526 
L 314.827645 310.289737 
L 315.654638 311.377817 
L 317.308624 311.874727 
L 318.135617 311.746719 
L 319.789602 312.297695 
L 320.616595 312.761824 
L 321.443588 312.719773 
L 322.270581 312.792299 
L 323.097574 312.490421 
L 323.924567 312.668413 
L 324.75156 312.622061 
L 325.578552 312.741753 
L 326.405545 313.044178 
L 327.232538 313.14698 
L 328.059531 313.394467 
L 328.886524 313.782898 
L 331.367503 315.349748 
L 332.194495 315.374008 
L 333.021488 315.212435 
L 334.675474 315.395233 
L 336.32946 315.918722 
L 337.156453 315.715929 
L 339.637431 316.353661 
L 340.464424 316.808934 
L 341.291417 317.541855 
L 342.945403 318.389565 
L 343.772396 317.887347 
L 344.599388 317.712945 
L 345.426381 318.473202 
L 346.253374 318.898917 
L 347.080367 319.117026 
L 347.90736 319.518853 
L 348.734353 318.952624 
L 349.561346 319.222554 
L 350.388338 319.178918 
L 351.215331 319.548616 
L 352.042324 320.127445 
L 352.869317 320.959238 
L 353.69631 321.473646 
L 354.523303 321.518424 
L 355.350296 322.174449 
L 356.177288 322.599467 
L 357.004281 323.870942 
L 357.831274 324.086288 
L 358.658267 324.93293 
L 359.48526 325.082225 
L 360.312253 325.938994 
L 361.139246 325.773418 
L 361.966239 326.083486 
L 362.793231 326.699597 
L 364.447217 327.279801 
L 367.755189 329.434085 
L 368.582181 329.582338 
L 369.409174 330.774189 
L 371.06316 332.195449 
L 371.890153 332.140223 
L 372.717146 332.34254 
L 374.371131 333.147327 
L 376.025117 334.088113 
L 376.85211 335.391788 
L 377.679103 335.813311 
L 378.506096 336.432311 
L 379.333089 336.682197 
L 380.160082 336.375789 
L 380.987074 337.524494 
L 381.814067 338.245577 
L 382.64106 339.546868 
L 383.468053 339.985171 
L 384.295046 340.248249 
L 385.122039 340.946132 
L 385.949032 342.033693 
L 387.603017 343.534863 
L 388.43001 345.677658 
L 390.083996 348.042315 
L 390.910989 348.633659 
L 391.737982 350.005201 
L 392.564975 351.612302 
L 394.21896 353.611334 
L 395.045953 354.580947 
L 396.699939 357.424709 
L 397.526932 358.309379 
L 398.353925 358.95027 
L 399.180917 359.942582 
L 401.661896 363.642491 
L 402.488889 364.180611 
L 404.142875 366.789586 
L 404.969867 367.480601 
L 405.79686 368.430069 
L 406.623853 369.745287 
L 407.450846 370.800325 
L 408.277839 371.467693 
L 409.104832 371.793169 
L 409.931825 372.508112 
L 410.758818 373.523617 
L 411.58581 373.833284 
L 412.412803 374.433815 
L 414.066789 375.398075 
L 414.893782 375.934683 
L 416.547768 376.636706 
L 417.37476 377.277955 
L 418.201753 377.469025 
L 419.855739 378.575911 
L 420.682732 378.801904 
L 421.509725 379.523933 
L 423.16371 379.842119 
L 424.817696 380.322361 
L 428.952661 381.689102 
L 429.779653 381.56169 
L 433.914618 382.933083 
L 436.395596 383.14813 
L 437.222589 383.154797 
L 438.049582 383.649818 
L 438.876575 383.798322 
L 443.838532 383.926751 
L 445.492518 384.058304 
L 446.319511 384.062837 
L 447.146504 383.569915 
L 450.454475 383.843522 
L 453.762446 384.117714 
L 454.589439 384.036454 
L 455.416432 384.600179 
L 458.724404 384.481867 
L 460.378389 384.470141 
L 461.205382 384.392553 
L 463.686361 384.590256 
L 464.513354 384.710685 
L 466.994332 384.593688 
L 472.783282 384.891836 
L 474.437268 385.296588 
L 476.091254 385.15845 
L 477.74524 385.234458 
L 478.572232 385.291701 
L 481.053211 385.134944 
L 482.707197 385.056274 
L 483.53419 385.261096 
L 484.361182 385.184011 
L 486.015168 385.37666 
L 490.150133 385.485853 
L 492.631111 385.742064 
L 493.458104 385.616927 
L 495.11209 385.622549 
L 495.939083 385.768734 
L 497.593068 385.781372 
L 499.247054 385.844762 
L 500.90104 385.859588 
L 501.728033 386.014441 
L 505.862997 385.924402 
L 514.132926 385.907683 
L 529.84579 386.093007 
L 552.174597 386.069513 
L 553.828583 385.999738 
L 557.963547 386.037869 
L 559.617533 386.102432 
L 574.503405 386.17051 
L 575.330398 386.013613 
L 577.811376 386.029242 
L 578.638369 385.808735 
L 586.081305 385.657336 
L 586.908298 385.880595 
L 588.562283 385.875962 
L 589.389276 385.613812 
L 591.870255 385.803559 
L 596.832212 385.78214 
L 597.659205 386.044127 
L 598.486198 385.669959 
L 601.794169 385.518012 
L 605.102141 385.509405 
L 605.929134 385.35879 
L 606.756126 385.758281 
L 610.064098 385.968374 
L 611.718084 385.844876 
L 613.372069 385.811663 
L 614.199062 385.957164 
L 615.853048 385.94005 
L 616.680041 385.830726 
L 617.507034 385.499313 
L 622.468991 385.583898 
L 624.122977 385.60512 
L 624.949969 385.717905 
L 625.776962 386.024846 
L 634.873884 386.110553 
L 639.008848 386.002284 
L 643.143812 386.010315 
L 649.759755 386.223174 
L 654.721713 386.241818 
L 660.510663 386.16785 
L 727.497085 386.146609 
L 728.324077 385.931783 
L 734.113028 385.880339 
L 735.767013 385.867943 
L 736.594006 385.964749 
L 739.074985 385.905861 
L 744.036942 385.981019 
L 744.863935 386.103137 
L 745.690928 385.724277 
L 748.998899 385.751091 
L 750.652885 385.637578 
L 753.133863 385.615457 
L 753.960856 386.020508 
L 758.095821 386.065197 
L 762.230785 386.09707 
L 765.538756 386.023709 
L 767.192742 386.005394 
L 772.154699 385.949512 
L 772.981692 385.97898 
L 773.808685 385.717716 
L 774.635678 385.668907 
L 777.943649 385.841336 
L 781.251621 385.818242 
L 783.732599 385.961665 
L 789.521549 385.983518 
L 790.348542 386.179068 
L 796.137492 386.199777 
L 796.964485 385.830834 
L 799.445464 385.795411 
L 803.580428 385.748102 
L 804.407421 385.743748 
L 805.234414 386.114828 
L 807.715392 386.167357 
L 827.563221 386.215643 
L 828.390214 385.936087 
L 829.217207 385.812624 
L 832.525178 385.825596 
L 834.179164 385.593015 
L 835.83315 385.588977 
L 836.660143 385.864306 
L 839.141121 385.914777 
L 840.795107 385.920255 
L 842.449093 386.147726 
L 844.103078 386.124152 
L 844.930071 385.919613 
L 846.584057 385.999257 
L 849.892029 385.964587 
L 850.719021 385.654834 
L 852.373007 385.611674 
L 852.373007 385.611674 
" clip-path="url(#pb7e0095206)" style="fill: none; stroke-dasharray: 7.4,3.2; stroke-dashoffset: 0; stroke: #000000; stroke-width: 2"/>
   </g>
   <g id="patch_3">
    <path d="M 41.92 404.12 
L 41.92 10.8 
" style="fill: none; stroke: #000000; stroke-width: 0.8; stroke-linejoin: miter; stroke-linecap: square"/>
   </g>
   <g id="patch_4">
    <path d="M 853.2 404.12 
L 853.2 10.8 
" style="fill: none; stroke: #000000; stroke-width: 0.8; stroke-linejoin: miter; stroke-linecap: square"/>
   </g>
   <g id="patch_5">
    <path d="M 41.92 404.12 
L 853.2 404.12 
" style="fill: none; stroke: #000000; stroke-width: 0.8; stroke-linejoin: miter; stroke-linecap: square"/>
   </g>
   <g id="patch_6">
    <path d="M 41.92 10.8 
L 853.2 10.8 
" style="fill: none; stroke: #000000; stroke-width: 0.8; stroke-linejoin: miter; stroke-linecap: square"/>
   </g>
  </g>
 </g>
 <defs>
  <clipPath id="pb7e0095206">
   <rect x="41.92" y="10.8" width="811.28" height="393.32"/>
  </clipPath>
 </defs>
</svg>
