<?xml version="1.0" encoding="utf-8" standalone="no"?>
<!DOCTYPE svg PUBLIC "-//W3C//DTD SVG 1.1//EN"
  "http://www.w3.org/Graphics/SVG/1.1/DTD/svg11.dtd">
<svg xmlns:xlink="http://www.w3.org/1999/xlink" width="864pt" height="432pt" viewBox="0 0 864 432" xmlns="http://www.w3.org/2000/svg" version="1.1">
 <metadata>
  <rdf:RDF xmlns:dc="http://purl.org/dc/elements/1.1/" xmlns:cc="http://creativecommons.org/ns#" xmlns:rdf="http://www.w3.org/1999/02/22-rdf-syntax-ns#">
   <cc:Work>
    <dc:type rdf:resource="http://purl.org/dc/dcmitype/StillImage"/>
    <dc:date>2024-09-19T08:21:18.060842</dc:date>
    <dc:format>image/svg+xml</dc:format>
    <dc:creator>
     <cc:Agent>
      <dc:title>Matplotlib v3.9.2, https://matplotlib.org/</dc:title>
     </cc:Agent>
    </dc:creator>
   </cc:Work>
  </rdf:RDF>
 </metadata>
 <defs>
  <style type="text/css">*{stroke-linejoin: round; stroke-linecap: butt}</style>
 </defs>
 <g id="figure_1">
  <g id="patch_1">
   <path d="M 0 432 
L 864 432 
L 864 0 
L 0 0 
z
" style="fill: #ffffff"/>
  </g>
  <g id="axes_1">
   <g id="patch_2">
    <path d="M 35.89 404.12 
L 853.2 404.12 
L 853.2 10.8 
L 35.89 10.8 
z
" style="fill: #ffffff"/>
   </g>
   <g id="matplotlib.axis_1">
    <g id="xtick_1">
     <g id="line2d_1">
      <defs>
       <path id="m54426d5811" d="M 0 0 
L 0 3.5 
" style="stroke: #000000; stroke-width: 0.8"/>
      </defs>
      <g>
       <use xlink:href="#m54426d5811" x="194.186534" y="404.12" style="stroke: #000000; stroke-width: 0.8"/>
      </g>
     </g>
     <g id="text_1">
      <!-- 200 -->
      <g transform="translate(185.156065 418.771563) scale(0.1 -0.1)">
       <defs>
        <path id="DejaVuSansMono-32" d="M 1166 531 
L 3309 531 
L 3309 0 
L 475 0 
L 475 531 
Q 1059 1147 1496 1619 
Q 1934 2091 2100 2284 
Q 2413 2666 2522 2902 
Q 2631 3138 2631 3384 
Q 2631 3775 2401 3997 
Q 2172 4219 1772 4219 
Q 1488 4219 1175 4116 
Q 863 4013 513 3803 
L 513 4441 
Q 834 4594 1145 4672 
Q 1456 4750 1759 4750 
Q 2444 4750 2861 4386 
Q 3278 4022 3278 3431 
Q 3278 3131 3139 2831 
Q 3000 2531 2688 2169 
Q 2513 1966 2180 1606 
Q 1847 1247 1166 531 
z
" transform="scale(0.015625)"/>
        <path id="DejaVuSansMono-30" d="M 1509 2344 
Q 1509 2516 1629 2641 
Q 1750 2766 1919 2766 
Q 2094 2766 2219 2641 
Q 2344 2516 2344 2344 
Q 2344 2169 2220 2047 
Q 2097 1925 1919 1925 
Q 1744 1925 1626 2044 
Q 1509 2163 1509 2344 
z
M 1925 4250 
Q 1484 4250 1267 3775 
Q 1050 3300 1050 2328 
Q 1050 1359 1267 884 
Q 1484 409 1925 409 
Q 2369 409 2586 884 
Q 2803 1359 2803 2328 
Q 2803 3300 2586 3775 
Q 2369 4250 1925 4250 
z
M 1925 4750 
Q 2672 4750 3055 4137 
Q 3438 3525 3438 2328 
Q 3438 1134 3055 521 
Q 2672 -91 1925 -91 
Q 1178 -91 797 521 
Q 416 1134 416 2328 
Q 416 3525 797 4137 
Q 1178 4750 1925 4750 
z
" transform="scale(0.015625)"/>
       </defs>
       <use xlink:href="#DejaVuSansMono-32"/>
       <use xlink:href="#DejaVuSansMono-30" x="60.205078"/>
       <use xlink:href="#DejaVuSansMono-30" x="120.410156"/>
      </g>
     </g>
    </g>
    <g id="xtick_2">
     <g id="line2d_2">
      <g>
       <use xlink:href="#m54426d5811" x="360.814465" y="404.12" style="stroke: #000000; stroke-width: 0.8"/>
      </g>
     </g>
     <g id="text_2">
      <!-- 400 -->
      <g transform="translate(351.783996 418.771563) scale(0.1 -0.1)">
       <defs>
        <path id="DejaVuSansMono-34" d="M 2297 4091 
L 825 1625 
L 2297 1625 
L 2297 4091 
z
M 2194 4666 
L 2925 4666 
L 2925 1625 
L 3547 1625 
L 3547 1113 
L 2925 1113 
L 2925 0 
L 2297 0 
L 2297 1113 
L 319 1113 
L 319 1709 
L 2194 4666 
z
" transform="scale(0.015625)"/>
       </defs>
       <use xlink:href="#DejaVuSansMono-34"/>
       <use xlink:href="#DejaVuSansMono-30" x="60.205078"/>
       <use xlink:href="#DejaVuSansMono-30" x="120.410156"/>
      </g>
     </g>
    </g>
    <g id="xtick_3">
     <g id="line2d_3">
      <g>
       <use xlink:href="#m54426d5811" x="527.442396" y="404.12" style="stroke: #000000; stroke-width: 0.8"/>
      </g>
     </g>
     <g id="text_3">
      <!-- 600 -->
      <g transform="translate(518.411927 418.771563) scale(0.1 -0.1)">
       <defs>
        <path id="DejaVuSansMono-36" d="M 3097 4563 
L 3097 3981 
Q 2900 4097 2678 4158 
Q 2456 4219 2216 4219 
Q 1616 4219 1306 3767 
Q 997 3316 997 2438 
Q 1147 2750 1412 2917 
Q 1678 3084 2022 3084 
Q 2697 3084 3067 2670 
Q 3438 2256 3438 1497 
Q 3438 741 3056 325 
Q 2675 -91 1984 -91 
Q 1172 -91 794 492 
Q 416 1075 416 2328 
Q 416 3509 870 4129 
Q 1325 4750 2188 4750 
Q 2419 4750 2650 4701 
Q 2881 4653 3097 4563 
z
M 1972 2591 
Q 1569 2591 1337 2300 
Q 1106 2009 1106 1497 
Q 1106 984 1337 693 
Q 1569 403 1972 403 
Q 2391 403 2603 679 
Q 2816 956 2816 1497 
Q 2816 2041 2603 2316 
Q 2391 2591 1972 2591 
z
" transform="scale(0.015625)"/>
       </defs>
       <use xlink:href="#DejaVuSansMono-36"/>
       <use xlink:href="#DejaVuSansMono-30" x="60.205078"/>
       <use xlink:href="#DejaVuSansMono-30" x="120.410156"/>
      </g>
     </g>
    </g>
    <g id="xtick_4">
     <g id="line2d_4">
      <g>
       <use xlink:href="#m54426d5811" x="694.070326" y="404.12" style="stroke: #000000; stroke-width: 0.8"/>
      </g>
     </g>
     <g id="text_4">
      <!-- 800 -->
      <g transform="translate(685.039857 418.771563) scale(0.1 -0.1)">
       <defs>
        <path id="DejaVuSansMono-38" d="M 1925 2216 
Q 1503 2216 1273 1980 
Q 1044 1744 1044 1313 
Q 1044 881 1276 642 
Q 1509 403 1925 403 
Q 2350 403 2579 639 
Q 2809 875 2809 1313 
Q 2809 1741 2576 1978 
Q 2344 2216 1925 2216 
z
M 1375 2478 
Q 972 2581 745 2862 
Q 519 3144 519 3541 
Q 519 4097 897 4423 
Q 1275 4750 1925 4750 
Q 2578 4750 2956 4423 
Q 3334 4097 3334 3541 
Q 3334 3144 3107 2862 
Q 2881 2581 2478 2478 
Q 2947 2375 3195 2062 
Q 3444 1750 3444 1253 
Q 3444 622 3041 265 
Q 2638 -91 1925 -91 
Q 1213 -91 811 264 
Q 409 619 409 1247 
Q 409 1747 657 2061 
Q 906 2375 1375 2478 
z
M 1147 3481 
Q 1147 3106 1347 2909 
Q 1547 2713 1925 2713 
Q 2306 2713 2506 2909 
Q 2706 3106 2706 3481 
Q 2706 3863 2507 4063 
Q 2309 4263 1925 4263 
Q 1547 4263 1347 4061 
Q 1147 3859 1147 3481 
z
" transform="scale(0.015625)"/>
       </defs>
       <use xlink:href="#DejaVuSansMono-38"/>
       <use xlink:href="#DejaVuSansMono-30" x="60.205078"/>
       <use xlink:href="#DejaVuSansMono-30" x="120.410156"/>
      </g>
     </g>
    </g>
   </g>
   <g id="matplotlib.axis_2">
    <g id="ytick_1">
     <g id="line2d_5">
      <defs>
       <path id="m99cba72c09" d="M 0 0 
L -3.5 0 
" style="stroke: #000000; stroke-width: 0.8"/>
      </defs>
      <g>
       <use xlink:href="#m99cba72c09" x="35.89" y="386.241818" style="stroke: #000000; stroke-width: 0.8"/>
      </g>
     </g>
     <g id="text_5">
      <!-- 0.0 -->
      <g transform="translate(10.829063 390.067599) scale(0.1 -0.1)">
       <defs>
        <path id="DejaVuSansMono-2e" d="M 1528 953 
L 2316 953 
L 2316 0 
L 1528 0 
L 1528 953 
z
" transform="scale(0.015625)"/>
       </defs>
       <use xlink:href="#DejaVuSansMono-30"/>
       <use xlink:href="#DejaVuSansMono-2e" x="60.205078"/>
       <use xlink:href="#DejaVuSansMono-30" x="120.410156"/>
      </g>
     </g>
    </g>
    <g id="ytick_2">
     <g id="line2d_6">
      <g>
       <use xlink:href="#m99cba72c09" x="35.89" y="314.729091" style="stroke: #000000; stroke-width: 0.8"/>
      </g>
     </g>
     <g id="text_6">
      <!-- 0.2 -->
      <g transform="translate(10.829063 318.554872) scale(0.1 -0.1)">
       <use xlink:href="#DejaVuSansMono-30"/>
       <use xlink:href="#DejaVuSansMono-2e" x="60.205078"/>
       <use xlink:href="#DejaVuSansMono-32" x="120.410156"/>
      </g>
     </g>
    </g>
    <g id="ytick_3">
     <g id="line2d_7">
      <g>
       <use xlink:href="#m99cba72c09" x="35.89" y="243.216364" style="stroke: #000000; stroke-width: 0.8"/>
      </g>
     </g>
     <g id="text_7">
      <!-- 0.4 -->
      <g transform="translate(10.829063 247.042145) scale(0.1 -0.1)">
       <use xlink:href="#DejaVuSansMono-30"/>
       <use xlink:href="#DejaVuSansMono-2e" x="60.205078"/>
       <use xlink:href="#DejaVuSansMono-34" x="120.410156"/>
      </g>
     </g>
    </g>
    <g id="ytick_4">
     <g id="line2d_8">
      <g>
       <use xlink:href="#m99cba72c09" x="35.89" y="171.703636" style="stroke: #000000; stroke-width: 0.8"/>
      </g>
     </g>
     <g id="text_8">
      <!-- 0.6 -->
      <g transform="translate(10.829063 175.529418) scale(0.1 -0.1)">
       <use xlink:href="#DejaVuSansMono-30"/>
       <use xlink:href="#DejaVuSansMono-2e" x="60.205078"/>
       <use xlink:href="#DejaVuSansMono-36" x="120.410156"/>
      </g>
     </g>
    </g>
    <g id="ytick_5">
     <g id="line2d_9">
      <g>
       <use xlink:href="#m99cba72c09" x="35.89" y="100.190909" style="stroke: #000000; stroke-width: 0.8"/>
      </g>
     </g>
     <g id="text_9">
      <!-- 0.8 -->
      <g transform="translate(10.829063 104.01669) scale(0.1 -0.1)">
       <use xlink:href="#DejaVuSansMono-30"/>
       <use xlink:href="#DejaVuSansMono-2e" x="60.205078"/>
       <use xlink:href="#DejaVuSansMono-38" x="120.410156"/>
      </g>
     </g>
    </g>
    <g id="ytick_6">
     <g id="line2d_10">
      <g>
       <use xlink:href="#m99cba72c09" x="35.89" y="28.678182" style="stroke: #000000; stroke-width: 0.8"/>
      </g>
     </g>
     <g id="text_10">
      <!-- 1.0 -->
      <g transform="translate(10.829063 32.503963) scale(0.1 -0.1)">
       <defs>
        <path id="DejaVuSansMono-31" d="M 844 531 
L 1825 531 
L 1825 4097 
L 769 3859 
L 769 4434 
L 1819 4666 
L 2450 4666 
L 2450 531 
L 3419 531 
L 3419 0 
L 844 0 
L 844 531 
z
" transform="scale(0.015625)"/>
       </defs>
       <use xlink:href="#DejaVuSansMono-31"/>
       <use xlink:href="#DejaVuSansMono-2e" x="60.205078"/>
       <use xlink:href="#DejaVuSansMono-30" x="120.410156"/>
      </g>
     </g>
    </g>
   </g>
   <g id="line2d_11">
    <path d="M 27.558603 334.781169 
L 28.391743 345.174022 
L 32.557441 345.136461 
L 33.390581 342.44622 
L 34.223721 342.988309 
L 35.05686 342.908647 
L 35.89 351.325503 
L 39.222559 310.927275 
L 40.055698 310.149963 
L 40.888838 309.589591 
L 41.721978 312.994959 
L 42.555117 322.891809 
L 43.388257 322.891809 
L 44.221397 315.731805 
L 45.887676 336.560048 
L 46.720815 336.262876 
L 47.553955 345.446204 
L 48.387095 342.120326 
L 49.220234 352.353331 
L 50.886514 352.353331 
L 51.719653 362.739987 
L 52.552793 370.685846 
L 53.385933 370.685846 
L 54.219072 360.299189 
L 55.052212 360.596362 
L 55.885352 350.209706 
L 56.718491 343.856413 
L 57.551631 344.625367 
L 58.384771 334.238711 
L 60.05105 334.238711 
L 61.717329 313.354774 
L 65.049888 354.971225 
L 68.382446 354.971225 
L 70.048726 375.855162 
L 71.715005 375.855162 
L 72.548145 365.468506 
L 73.381284 365.468506 
L 74.214424 355.08185 
L 75.880703 355.08185 
L 76.713843 351.140203 
L 77.546983 351.140203 
L 78.380122 340.753547 
L 80.046402 340.753547 
L 80.879541 351.140203 
L 81.712681 351.140203 
L 82.545821 361.526859 
L 84.2121 361.526859 
L 85.04524 365.468506 
L 87.544659 365.468506 
L 88.377798 362.937082 
L 89.210938 362.937082 
L 90.877217 342.128973 
L 91.710357 348.68459 
L 94.209776 348.68459 
L 95.042915 359.071246 
L 95.876055 348.68459 
L 96.709195 351.216014 
L 99.208614 351.233441 
L 100.041753 355.06448 
L 102.541172 355.06448 
L 103.374312 344.677824 
L 105.040591 344.677824 
L 105.873731 334.291168 
L 107.54001 355.08185 
L 108.37315 344.695193 
L 109.20629 344.695193 
L 110.039429 340.185382 
L 110.872569 329.798726 
L 111.705708 340.185382 
L 112.538848 341.579421 
L 113.371988 341.579421 
L 114.205127 340.994262 
L 115.038267 334.695213 
L 115.871407 324.308557 
L 116.704546 334.695213 
L 117.537686 334.695213 
L 118.370826 329.105899 
L 119.203965 339.492555 
L 120.037105 339.492555 
L 120.870245 348.485173 
L 121.703384 348.485173 
L 122.536524 359.456988 
L 123.369664 365.756036 
L 125.869083 365.736441 
L 126.702222 375.835566 
L 135.866758 375.855162 
L 136.699898 370.236305 
L 140.032457 370.236305 
L 140.865596 380.622961 
L 142.531876 359.691206 
L 144.198155 359.691206 
L 145.031295 355.042189 
L 147.530714 355.042189 
L 149.196993 334.251507 
L 150.030133 334.199225 
L 150.863272 344.744323 
L 152.529551 344.744323 
L 153.362691 355.012197 
L 156.69525 355.029567 
L 158.361529 375.855162 
L 160.027808 355.610862 
L 161.694088 355.610862 
L 162.527227 345.290689 
L 163.360367 345.290689 
L 164.193507 335.011653 
L 165.026646 345.398309 
L 166.692926 345.398309 
L 168.359205 365.642609 
L 171.691764 365.576126 
L 172.524903 375.855162 
L 173.358043 365.468506 
L 177.523741 365.468506 
L 178.356881 357.380757 
L 179.19002 367.767413 
L 180.02316 357.569749 
L 180.8563 351.509349 
L 181.689439 351.930012 
L 182.522579 351.930012 
L 183.355719 348.751669 
L 185.855138 317.556741 
L 186.688277 325.64449 
L 187.521417 325.64449 
L 188.354557 335.047568 
L 189.187696 341.107969 
L 190.020836 351.073962 
L 190.853976 351.073962 
L 191.687115 345.2776 
L 194.186534 376.472527 
L 195.852813 376.472527 
L 196.685953 377.267113 
L 199.185372 377.267113 
L 200.018512 386.241818 
L 201.684791 386.241818 
L 202.517931 375.802879 
L 204.18421 375.802879 
L 205.01735 365.293408 
L 205.850489 361.687724 
L 206.683629 361.687724 
L 207.516769 351.328987 
L 210.016188 351.328987 
L 210.849327 361.767925 
L 212.515607 361.767925 
L 213.348746 372.277397 
L 214.181886 375.88308 
L 215.015025 365.500107 
L 215.848165 365.028792 
L 216.681305 365.028792 
L 217.514444 354.465791 
L 220.013863 354.465791 
L 220.847003 344.026852 
L 221.680143 344.026852 
L 222.513282 334.200675 
L 224.179562 355.413702 
L 225.012701 355.413702 
L 225.845841 365.976702 
L 228.34526 365.976702 
L 229.1784 376.415641 
L 230.011539 365.749337 
L 230.844679 375.575514 
L 234.177238 375.575514 
L 235.010377 371.87658 
L 237.509796 371.87658 
L 238.342936 382.542884 
L 242.508634 382.542884 
L 243.341774 386.241818 
L 244.174913 386.241818 
L 245.008053 379.740661 
L 250.006891 379.740661 
L 250.840031 376.054438 
L 251.67317 370.946386 
L 252.50631 370.946386 
L 253.33945 367.045691 
L 254.172589 367.045691 
L 255.005729 362.0398 
L 257.505148 362.0398 
L 258.338287 349.371831 
L 259.171427 353.058054 
L 260.004567 358.166106 
L 260.837706 358.166106 
L 261.670846 368.567958 
L 262.503986 368.567958 
L 263.337125 365.911771 
L 264.170265 359.782109 
L 265.003405 359.782109 
L 265.836544 348.624093 
L 266.669684 361.292062 
L 267.502824 357.567441 
L 268.335963 357.567441 
L 269.169103 355.235504 
L 270.002243 343.836891 
L 270.835382 335.891032 
L 271.668522 339.828489 
L 272.501662 333.404194 
L 273.334801 322.361787 
L 274.167941 323.455049 
L 275.001081 323.455049 
L 275.83422 326.376157 
L 276.66736 318.075572 
L 277.500499 317.331693 
L 278.333639 327.141134 
L 279.166779 334.283479 
L 279.999918 337.204587 
L 280.833058 343.197744 
L 281.666198 346.156103 
L 282.499337 344.30207 
L 283.332477 333.094852 
L 284.165617 332.309194 
L 284.998756 330.228898 
L 285.831896 320.779887 
L 286.665036 310.051077 
L 287.498175 301.989376 
L 288.331315 291.921907 
L 289.164455 285.657056 
L 290.830734 283.528734 
L 291.663874 287.314819 
L 292.497013 275.810112 
L 293.330153 278.318032 
L 294.163293 280.115949 
L 294.996432 286.82509 
L 295.829572 286.599704 
L 296.662712 287.586813 
L 297.495851 291.321863 
L 298.328991 289.061238 
L 299.16213 291.176238 
L 299.99527 285.316436 
L 300.82841 292.037893 
L 301.661549 291.61027 
L 302.494689 290.027611 
L 303.327829 283.80728 
L 305.827248 272.427869 
L 306.660387 273.895223 
L 307.493527 277.603898 
L 308.326667 285.828376 
L 309.159806 286.536424 
L 309.992946 283.096113 
L 310.826086 287.984549 
L 311.659225 286.611371 
L 312.492365 287.090251 
L 313.325505 291.534758 
L 314.158644 298.522636 
L 314.991784 295.656177 
L 315.824924 289.35541 
L 316.658063 280.604954 
L 317.491203 279.326345 
L 318.324343 281.241064 
L 319.157482 275.150575 
L 319.990622 274.83871 
L 320.823761 279.109841 
L 321.656901 281.266306 
L 322.490041 272.251752 
L 323.32318 270.37448 
L 324.15632 270.161685 
L 324.98946 268.506385 
L 325.822599 265.669851 
L 326.655739 260.338438 
L 327.488879 263.091507 
L 328.322018 268.732761 
L 329.155158 263.299991 
L 329.988298 256.105383 
L 330.821437 260.47617 
L 331.654577 260.801229 
L 332.487717 260.229126 
L 333.320856 261.102741 
L 334.153996 259.269082 
L 334.987136 260.551067 
L 335.820275 256.014989 
L 336.653415 248.870277 
L 337.486555 245.901726 
L 338.319694 248.804175 
L 339.152834 243.788159 
L 339.985973 241.669263 
L 340.819113 249.404313 
L 341.652253 246.892039 
L 342.485392 240.627035 
L 343.318532 240.200092 
L 344.151672 239.972579 
L 344.984811 248.422756 
L 345.817951 250.421463 
L 346.651091 252.015028 
L 347.48423 249.461003 
L 348.31737 257.193982 
L 349.15051 245.883298 
L 349.983649 243.656405 
L 350.816789 244.804545 
L 351.649929 240.451597 
L 352.483068 238.203912 
L 353.316208 225.232412 
L 354.149348 226.708877 
L 354.982487 217.73358 
L 355.815627 218.660596 
L 356.648767 209.260544 
L 357.481906 209.026329 
L 358.315046 210.602708 
L 359.148186 210.013261 
L 359.981325 210.182473 
L 360.814465 208.754252 
L 361.647604 208.538348 
L 362.480744 202.533744 
L 363.313884 202.161413 
L 364.147023 199.964362 
L 364.980163 199.632932 
L 365.813303 197.204438 
L 366.646442 195.452351 
L 367.479582 192.601582 
L 368.312722 192.632967 
L 369.145861 191.873975 
L 369.979001 190.572349 
L 371.64528 186.220793 
L 372.47842 183.021282 
L 373.31156 177.905394 
L 374.144699 174.131956 
L 374.977839 169.023904 
L 375.810979 166.846434 
L 376.644118 165.096991 
L 377.477258 160.88538 
L 378.310398 158.89515 
L 379.143537 154.490382 
L 379.976677 151.16169 
L 380.809817 150.012377 
L 383.309235 144.649625 
L 384.142375 141.621867 
L 384.975515 136.467083 
L 385.808654 133.868403 
L 386.641794 129.944646 
L 387.474934 128.731379 
L 388.308073 126.163932 
L 389.141213 122.535454 
L 389.974353 118.079916 
L 390.807492 115.150107 
L 391.640632 112.633718 
L 392.473772 109.267246 
L 393.306911 103.854228 
L 394.973191 95.258035 
L 395.80633 92.531132 
L 396.63947 88.591998 
L 397.47261 83.673562 
L 398.305749 81.460632 
L 399.138889 80.998416 
L 399.972029 76.884872 
L 400.805168 73.425193 
L 401.638308 72.647602 
L 402.471448 71.179276 
L 403.304587 69.040529 
L 404.137727 64.862101 
L 404.970866 63.090433 
L 405.804006 63.268611 
L 406.637146 61.705492 
L 407.470285 57.705769 
L 408.303425 58.5464 
L 409.136565 56.196943 
L 409.969704 56.841679 
L 410.802844 55.025918 
L 413.302263 53.449604 
L 414.135403 50.806329 
L 414.968542 50.561223 
L 415.801682 49.492431 
L 416.634822 46.501209 
L 417.467961 46.710031 
L 418.301101 43.063935 
L 419.134241 43.972504 
L 419.96738 43.366578 
L 420.80052 43.318081 
L 422.466799 41.964698 
L 423.299939 40.267197 
L 424.133078 40.255912 
L 424.966218 39.849588 
L 425.799358 38.435496 
L 426.632497 39.356282 
L 428.298777 37.671602 
L 429.131916 37.272092 
L 429.965056 36.046159 
L 430.798196 35.433194 
L 431.631335 36.030023 
L 432.464475 35.442235 
L 433.297615 35.848559 
L 434.130754 36.670544 
L 434.963894 34.95081 
L 435.797034 34.165482 
L 436.630173 34.355753 
L 437.463313 34.355753 
L 438.296453 35.150213 
L 439.129592 35.150213 
L 439.962732 34.551022 
L 440.795872 34.943542 
L 441.629011 34.537218 
L 442.462151 34.335285 
L 443.295291 33.928963 
L 444.12843 34.157324 
L 444.96157 33.755605 
L 446.627849 32.169047 
L 447.460989 32.775088 
L 448.294128 32.570765 
L 449.127268 31.767251 
L 449.960408 31.767251 
L 450.793547 31.351522 
L 451.626687 31.762516 
L 452.459827 31.332183 
L 453.292966 31.334545 
L 454.126106 31.933736 
L 454.959246 32.725834 
L 455.792385 32.119794 
L 456.625525 32.119794 
L 457.458665 32.326477 
L 458.291804 32.335925 
L 462.457503 31.314104 
L 463.290642 30.928287 
L 464.123782 31.134971 
L 464.956922 31.134971 
L 466.623201 30.719201 
L 467.45634 30.719201 
L 469.12262 30.310556 
L 469.955759 30.310556 
L 471.622039 29.09155 
L 473.288318 29.49551 
L 474.121458 29.901832 
L 474.954597 29.695148 
L 475.787737 29.695148 
L 476.620877 29.901832 
L 479.120296 29.901832 
L 479.953435 30.308154 
L 480.786575 29.901832 
L 481.619715 30.113279 
L 482.452854 29.706957 
L 484.119134 29.706957 
L 484.952273 30.499056 
L 487.451692 30.499056 
L 488.284832 30.092734 
L 489.117971 30.092734 
L 489.951111 29.676964 
L 490.784251 29.883648 
L 492.45053 29.883648 
L 493.28367 28.884866 
L 498.282508 28.884866 
L 499.115647 28.678182 
L 499.948787 28.884866 
L 500.781927 28.884866 
L 502.448206 29.293511 
L 504.947625 29.293511 
L 505.780765 29.500195 
L 506.613904 29.500195 
L 507.447044 29.704517 
L 508.280183 29.497833 
L 509.946463 29.500195 
L 510.779602 29.295872 
L 513.279021 29.295872 
L 514.112161 29.089188 
L 514.945301 29.089188 
L 515.77844 28.884866 
L 516.61158 28.884866 
L 517.44472 29.089188 
L 518.277859 28.882504 
L 524.942977 28.882504 
L 525.776116 28.678182 
L 526.609256 28.882504 
L 534.107513 28.882504 
L 534.940652 28.678182 
L 547.437747 28.678182 
L 548.270887 29.084504 
L 555.769144 29.084504 
L 556.602283 28.678182 
L 558.268563 28.678182 
L 559.101702 28.882504 
L 566.599959 28.882504 
L 567.433099 28.678182 
L 572.431937 28.678182 
L 573.265076 29.093952 
L 575.764495 29.093952 
L 576.597635 29.699992 
L 579.097054 29.699992 
L 579.930194 29.906676 
L 580.763333 29.906676 
L 581.596473 29.697591 
L 584.095892 29.697591 
L 584.929032 29.09155 
L 586.595311 29.09155 
L 587.428451 29.697591 
L 589.09473 29.695229 
L 589.92787 29.904315 
L 590.761009 29.904315 
L 591.594149 30.108637 
L 594.093568 30.108637 
L 594.926707 30.31296 
L 595.759847 29.706919 
L 597.426126 30.12505 
L 598.259266 30.115602 
L 599.092406 30.319925 
L 602.424964 30.319925 
L 603.258104 30.115602 
L 604.091244 30.319925 
L 604.924383 29.904155 
L 605.757523 29.697471 
L 606.590663 29.291149 
L 608.256942 28.882504 
L 609.090082 29.086827 
L 609.923221 29.086827 
L 610.756361 29.291149 
L 611.589501 29.291149 
L 612.42264 29.086827 
L 614.088919 29.086827 
L 614.922059 29.293511 
L 615.755199 29.920817 
L 616.588338 29.920817 
L 617.421478 29.716495 
L 618.254618 29.716495 
L 619.087757 29.512172 
L 619.920897 29.918494 
L 622.420316 29.918494 
L 623.253456 29.71181 
L 624.086595 29.288826 
L 627.419154 29.288826 
L 628.252294 29.488545 
L 631.584852 29.488545 
L 632.417992 29.284223 
L 634.917411 29.284223 
L 635.75055 29.699992 
L 636.58369 29.093952 
L 643.248807 29.093952 
L 644.081947 28.678182 
L 653.246483 28.678182 
L 654.079623 28.882504 
L 655.745902 28.882504 
L 656.579042 29.086827 
L 661.57788 29.086827 
L 662.411019 28.882504 
L 664.077299 28.882504 
L 664.910438 28.678182 
L 667.409857 28.678182 
L 668.242997 28.882504 
L 675.741254 28.882504 
L 676.574393 28.678182 
L 692.404047 28.678182 
L 693.237187 28.884866 
L 700.735443 28.884866 
L 701.568583 28.678182 
L 703.234862 28.678182 
L 704.068002 28.882504 
L 706.567421 28.882504 
L 707.400561 29.089188 
L 711.566259 29.089188 
L 712.399399 28.884866 
L 714.898818 28.884866 
L 715.731957 28.678182 
L 720.730795 28.678182 
L 721.563935 28.882504 
L 726.562773 28.882504 
L 727.395912 29.089188 
L 729.062192 29.089188 
L 729.895331 28.884866 
L 731.561611 28.884866 
L 732.39475 29.089188 
L 734.06103 29.089188 
L 735.727309 29.493149 
L 736.560449 29.899471 
L 737.393588 30.103793 
L 739.893007 30.103793 
L 740.726147 29.899471 
L 742.392426 29.899471 
L 743.225566 29.695148 
L 744.058705 29.288826 
L 745.724985 28.884866 
L 748.224404 28.884866 
L 749.057543 29.490907 
L 751.556962 29.490907 
L 752.390102 29.695229 
L 756.5558 29.692868 
L 757.38894 29.293511 
L 759.055219 29.293511 
L 759.888359 29.497833 
L 761.554638 29.089188 
L 762.387778 29.293511 
L 763.220917 29.293511 
L 764.054057 29.497833 
L 765.720336 29.495472 
L 766.553476 29.702156 
L 769.886035 29.704517 
L 770.719174 29.500195 
L 771.552314 29.500195 
L 772.385454 29.295872 
L 773.218593 29.702194 
L 774.051733 29.704555 
L 774.884873 29.497872 
L 775.718012 29.497872 
L 776.551152 29.291188 
L 777.384292 29.49551 
L 780.71685 29.49551 
L 782.383129 29.086827 
L 784.882548 29.086827 
L 785.715688 28.882504 
L 789.048247 28.882504 
L 789.881386 28.678182 
L 795.713364 28.678182 
L 796.546504 29.519508 
L 797.379643 29.72383 
L 801.545341 29.72383 
L 802.378481 29.928153 
L 804.04476 29.928153 
L 804.8779 29.086827 
L 805.71104 28.882504 
L 809.876738 28.882504 
L 810.709878 28.678182 
L 813.209297 28.678182 
L 814.042436 28.882504 
L 821.540693 28.882504 
L 822.373833 28.678182 
L 827.372671 28.678182 
L 829.03895 29.09155 
L 832.371509 29.09155 
L 834.037788 29.500195 
L 835.704067 29.500195 
L 836.537207 29.293511 
L 837.370347 29.493149 
L 840.702905 29.493149 
L 842.369185 29.084504 
L 844.035464 29.084504 
L 844.868603 29.291188 
L 845.701743 28.884866 
L 849.867441 28.884866 
L 851.533721 29.293511 
L 852.36686 29.293511 
L 852.36686 29.293511 
" clip-path="url(#pd6e6d43aac)" style="fill: none; stroke-dasharray: 7.4,3.2; stroke-dashoffset: 0; stroke: #000000; stroke-width: 2"/>
   </g>
   <g id="patch_3">
    <path d="M 35.89 404.12 
L 35.89 10.8 
" style="fill: none; stroke: #000000; stroke-width: 0.8; stroke-linejoin: miter; stroke-linecap: square"/>
   </g>
   <g id="patch_4">
    <path d="M 853.2 404.12 
L 853.2 10.8 
" style="fill: none; stroke: #000000; stroke-width: 0.8; stroke-linejoin: miter; stroke-linecap: square"/>
   </g>
   <g id="patch_5">
    <path d="M 35.89 404.12 
L 853.2 404.12 
" style="fill: none; stroke: #000000; stroke-width: 0.8; stroke-linejoin: miter; stroke-linecap: square"/>
   </g>
   <g id="patch_6">
    <path d="M 35.89 10.8 
L 853.2 10.8 
" style="fill: none; stroke: #000000; stroke-width: 0.8; stroke-linejoin: miter; stroke-linecap: square"/>
   </g>
  </g>
 </g>
 <defs>
  <clipPath id="pd6e6d43aac">
   <rect x="35.89" y="10.8" width="817.31" height="393.32"/>
  </clipPath>
 </defs>
</svg>
