<?xml version="1.0" encoding="utf-8" standalone="no"?>
<!DOCTYPE svg PUBLIC "-//W3C//DTD SVG 1.1//EN"
  "http://www.w3.org/Graphics/SVG/1.1/DTD/svg11.dtd">
<svg xmlns:xlink="http://www.w3.org/1999/xlink" width="864pt" height="432pt" viewBox="0 0 864 432" xmlns="http://www.w3.org/2000/svg" version="1.1">
 <metadata>
  <rdf:RDF xmlns:dc="http://purl.org/dc/elements/1.1/" xmlns:cc="http://creativecommons.org/ns#" xmlns:rdf="http://www.w3.org/1999/02/22-rdf-syntax-ns#">
   <cc:Work>
    <dc:type rdf:resource="http://purl.org/dc/dcmitype/StillImage"/>
    <dc:date>2024-09-16T08:35:13.695457</dc:date>
    <dc:format>image/svg+xml</dc:format>
    <dc:creator>
     <cc:Agent>
      <dc:title>Matplotlib v3.9.2, https://matplotlib.org/</dc:title>
     </cc:Agent>
    </dc:creator>
   </cc:Work>
  </rdf:RDF>
 </metadata>
 <defs>
  <style type="text/css">*{stroke-linejoin: round; stroke-linecap: butt}</style>
 </defs>
 <g id="figure_1">
  <g id="patch_1">
   <path d="M 0 432 
L 864 432 
L 864 0 
L 0 0 
z
" style="fill: #ffffff"/>
  </g>
  <g id="axes_1">
   <g id="patch_2">
    <path d="M 47.95 403.436 
L 853.2 403.436 
L 853.2 10.8 
L 47.95 10.8 
z
" style="fill: #ffffff"/>
   </g>
   <g id="matplotlib.axis_1">
    <g id="xtick_1">
     <g id="line2d_1">
      <defs>
       <path id="mcbf8b6dfac" d="M 0 0 
L 0 3.5 
" style="stroke: #000000; stroke-width: 0.8"/>
      </defs>
      <g>
       <use xlink:href="#mcbf8b6dfac" x="47.95" y="403.436" style="stroke: #000000; stroke-width: 0.8"/>
      </g>
     </g>
     <g id="text_1">
      <!-- $\mathdefault{10^{1}}$ -->
      <g transform="translate(39.6 418.087562) scale(0.1 -0.1)">
       <defs>
        <path id="DejaVuSansMono-31" d="M 844 531 
L 1825 531 
L 1825 4097 
L 769 3859 
L 769 4434 
L 1819 4666 
L 2450 4666 
L 2450 531 
L 3419 531 
L 3419 0 
L 844 0 
L 844 531 
z
" transform="scale(0.015625)"/>
        <path id="DejaVuSansMono-30" d="M 1509 2344 
Q 1509 2516 1629 2641 
Q 1750 2766 1919 2766 
Q 2094 2766 2219 2641 
Q 2344 2516 2344 2344 
Q 2344 2169 2220 2047 
Q 2097 1925 1919 1925 
Q 1744 1925 1626 2044 
Q 1509 2163 1509 2344 
z
M 1925 4250 
Q 1484 4250 1267 3775 
Q 1050 3300 1050 2328 
Q 1050 1359 1267 884 
Q 1484 409 1925 409 
Q 2369 409 2586 884 
Q 2803 1359 2803 2328 
Q 2803 3300 2586 3775 
Q 2369 4250 1925 4250 
z
M 1925 4750 
Q 2672 4750 3055 4137 
Q 3438 3525 3438 2328 
Q 3438 1134 3055 521 
Q 2672 -91 1925 -91 
Q 1178 -91 797 521 
Q 416 1134 416 2328 
Q 416 3525 797 4137 
Q 1178 4750 1925 4750 
z
" transform="scale(0.015625)"/>
       </defs>
       <use xlink:href="#DejaVuSansMono-31" transform="translate(0 0.684375)"/>
       <use xlink:href="#DejaVuSansMono-30" transform="translate(60.205078 0.684375)"/>
       <use xlink:href="#DejaVuSansMono-31" transform="translate(121.367188 38.965625) scale(0.7)"/>
      </g>
     </g>
    </g>
    <g id="xtick_2">
     <g id="line2d_2">
      <g>
       <use xlink:href="#mcbf8b6dfac" x="397.901979" y="403.436" style="stroke: #000000; stroke-width: 0.8"/>
      </g>
     </g>
     <g id="text_2">
      <!-- $\mathdefault{10^{2}}$ -->
      <g transform="translate(389.551979 418.087562) scale(0.1 -0.1)">
       <defs>
        <path id="DejaVuSansMono-32" d="M 1166 531 
L 3309 531 
L 3309 0 
L 475 0 
L 475 531 
Q 1059 1147 1496 1619 
Q 1934 2091 2100 2284 
Q 2413 2666 2522 2902 
Q 2631 3138 2631 3384 
Q 2631 3775 2401 3997 
Q 2172 4219 1772 4219 
Q 1488 4219 1175 4116 
Q 863 4013 513 3803 
L 513 4441 
Q 834 4594 1145 4672 
Q 1456 4750 1759 4750 
Q 2444 4750 2861 4386 
Q 3278 4022 3278 3431 
Q 3278 3131 3139 2831 
Q 3000 2531 2688 2169 
Q 2513 1966 2180 1606 
Q 1847 1247 1166 531 
z
" transform="scale(0.015625)"/>
       </defs>
       <use xlink:href="#DejaVuSansMono-31" transform="translate(0 0.765625)"/>
       <use xlink:href="#DejaVuSansMono-30" transform="translate(60.205078 0.765625)"/>
       <use xlink:href="#DejaVuSansMono-32" transform="translate(121.367188 39.046875) scale(0.7)"/>
      </g>
     </g>
    </g>
    <g id="xtick_3">
     <g id="line2d_3">
      <g>
       <use xlink:href="#mcbf8b6dfac" x="747.853957" y="403.436" style="stroke: #000000; stroke-width: 0.8"/>
      </g>
     </g>
     <g id="text_3">
      <!-- $\mathdefault{10^{3}}$ -->
      <g transform="translate(739.503957 418.087562) scale(0.1 -0.1)">
       <defs>
        <path id="DejaVuSansMono-33" d="M 2425 2497 
Q 2884 2375 3128 2064 
Q 3372 1753 3372 1288 
Q 3372 644 2939 276 
Q 2506 -91 1741 -91 
Q 1419 -91 1084 -31 
Q 750 28 428 141 
L 428 769 
Q 747 603 1056 522 
Q 1366 441 1672 441 
Q 2191 441 2469 675 
Q 2747 909 2747 1350 
Q 2747 1756 2469 1995 
Q 2191 2234 1716 2234 
L 1234 2234 
L 1234 2753 
L 1716 2753 
Q 2150 2753 2394 2943 
Q 2638 3134 2638 3475 
Q 2638 3834 2411 4026 
Q 2184 4219 1766 4219 
Q 1488 4219 1191 4156 
Q 894 4094 569 3969 
L 569 4550 
Q 947 4650 1242 4700 
Q 1538 4750 1766 4750 
Q 2447 4750 2855 4408 
Q 3263 4066 3263 3500 
Q 3263 3116 3048 2859 
Q 2834 2603 2425 2497 
z
" transform="scale(0.015625)"/>
       </defs>
       <use xlink:href="#DejaVuSansMono-31" transform="translate(0 0.765625)"/>
       <use xlink:href="#DejaVuSansMono-30" transform="translate(60.205078 0.765625)"/>
       <use xlink:href="#DejaVuSansMono-33" transform="translate(121.367188 39.046875) scale(0.7)"/>
      </g>
     </g>
    </g>
    <g id="xtick_4">
     <g id="line2d_4">
      <defs>
       <path id="m791968ae23" d="M 0 0 
L 0 2 
" style="stroke: #000000; stroke-width: 0.6"/>
      </defs>
      <g>
       <use xlink:href="#m791968ae23" x="153.296043" y="403.436" style="stroke: #000000; stroke-width: 0.6"/>
      </g>
     </g>
    </g>
    <g id="xtick_5">
     <g id="line2d_5">
      <g>
       <use xlink:href="#m791968ae23" x="214.919527" y="403.436" style="stroke: #000000; stroke-width: 0.6"/>
      </g>
     </g>
    </g>
    <g id="xtick_6">
     <g id="line2d_6">
      <g>
       <use xlink:href="#m791968ae23" x="258.642085" y="403.436" style="stroke: #000000; stroke-width: 0.6"/>
      </g>
     </g>
    </g>
    <g id="xtick_7">
     <g id="line2d_7">
      <g>
       <use xlink:href="#m791968ae23" x="292.555936" y="403.436" style="stroke: #000000; stroke-width: 0.6"/>
      </g>
     </g>
    </g>
    <g id="xtick_8">
     <g id="line2d_8">
      <g>
       <use xlink:href="#m791968ae23" x="320.26557" y="403.436" style="stroke: #000000; stroke-width: 0.6"/>
      </g>
     </g>
    </g>
    <g id="xtick_9">
     <g id="line2d_9">
      <g>
       <use xlink:href="#m791968ae23" x="343.693731" y="403.436" style="stroke: #000000; stroke-width: 0.6"/>
      </g>
     </g>
    </g>
    <g id="xtick_10">
     <g id="line2d_10">
      <g>
       <use xlink:href="#m791968ae23" x="363.988128" y="403.436" style="stroke: #000000; stroke-width: 0.6"/>
      </g>
     </g>
    </g>
    <g id="xtick_11">
     <g id="line2d_11">
      <g>
       <use xlink:href="#m791968ae23" x="381.889054" y="403.436" style="stroke: #000000; stroke-width: 0.6"/>
      </g>
     </g>
    </g>
    <g id="xtick_12">
     <g id="line2d_12">
      <g>
       <use xlink:href="#m791968ae23" x="503.248021" y="403.436" style="stroke: #000000; stroke-width: 0.6"/>
      </g>
     </g>
    </g>
    <g id="xtick_13">
     <g id="line2d_13">
      <g>
       <use xlink:href="#m791968ae23" x="564.871506" y="403.436" style="stroke: #000000; stroke-width: 0.6"/>
      </g>
     </g>
    </g>
    <g id="xtick_14">
     <g id="line2d_14">
      <g>
       <use xlink:href="#m791968ae23" x="608.594064" y="403.436" style="stroke: #000000; stroke-width: 0.6"/>
      </g>
     </g>
    </g>
    <g id="xtick_15">
     <g id="line2d_15">
      <g>
       <use xlink:href="#m791968ae23" x="642.507915" y="403.436" style="stroke: #000000; stroke-width: 0.6"/>
      </g>
     </g>
    </g>
    <g id="xtick_16">
     <g id="line2d_16">
      <g>
       <use xlink:href="#m791968ae23" x="670.217548" y="403.436" style="stroke: #000000; stroke-width: 0.6"/>
      </g>
     </g>
    </g>
    <g id="xtick_17">
     <g id="line2d_17">
      <g>
       <use xlink:href="#m791968ae23" x="693.64571" y="403.436" style="stroke: #000000; stroke-width: 0.6"/>
      </g>
     </g>
    </g>
    <g id="xtick_18">
     <g id="line2d_18">
      <g>
       <use xlink:href="#m791968ae23" x="713.940107" y="403.436" style="stroke: #000000; stroke-width: 0.6"/>
      </g>
     </g>
    </g>
    <g id="xtick_19">
     <g id="line2d_19">
      <g>
       <use xlink:href="#m791968ae23" x="731.841033" y="403.436" style="stroke: #000000; stroke-width: 0.6"/>
      </g>
     </g>
    </g>
    <g id="xtick_20">
     <g id="line2d_20">
      <g>
       <use xlink:href="#m791968ae23" x="853.2" y="403.436" style="stroke: #000000; stroke-width: 0.6"/>
      </g>
     </g>
    </g>
   </g>
   <g id="matplotlib.axis_2">
    <g id="ytick_1">
     <g id="line2d_21">
      <defs>
       <path id="m7ac1c2c15f" d="M 0 0 
L -3.5 0 
" style="stroke: #000000; stroke-width: 0.8"/>
      </defs>
      <g>
       <use xlink:href="#m7ac1c2c15f" x="47.95" y="387.020242" style="stroke: #000000; stroke-width: 0.8"/>
      </g>
     </g>
     <g id="text_4">
      <!-- 0.875 -->
      <g transform="translate(10.848438 390.846023) scale(0.1 -0.1)">
       <defs>
        <path id="DejaVuSansMono-2e" d="M 1528 953 
L 2316 953 
L 2316 0 
L 1528 0 
L 1528 953 
z
" transform="scale(0.015625)"/>
        <path id="DejaVuSansMono-38" d="M 1925 2216 
Q 1503 2216 1273 1980 
Q 1044 1744 1044 1313 
Q 1044 881 1276 642 
Q 1509 403 1925 403 
Q 2350 403 2579 639 
Q 2809 875 2809 1313 
Q 2809 1741 2576 1978 
Q 2344 2216 1925 2216 
z
M 1375 2478 
Q 972 2581 745 2862 
Q 519 3144 519 3541 
Q 519 4097 897 4423 
Q 1275 4750 1925 4750 
Q 2578 4750 2956 4423 
Q 3334 4097 3334 3541 
Q 3334 3144 3107 2862 
Q 2881 2581 2478 2478 
Q 2947 2375 3195 2062 
Q 3444 1750 3444 1253 
Q 3444 622 3041 265 
Q 2638 -91 1925 -91 
Q 1213 -91 811 264 
Q 409 619 409 1247 
Q 409 1747 657 2061 
Q 906 2375 1375 2478 
z
M 1147 3481 
Q 1147 3106 1347 2909 
Q 1547 2713 1925 2713 
Q 2306 2713 2506 2909 
Q 2706 3106 2706 3481 
Q 2706 3863 2507 4063 
Q 2309 4263 1925 4263 
Q 1547 4263 1347 4061 
Q 1147 3859 1147 3481 
z
" transform="scale(0.015625)"/>
        <path id="DejaVuSansMono-37" d="M 434 4666 
L 3372 4666 
L 3372 4397 
L 1703 0 
L 1044 0 
L 2669 4134 
L 434 4134 
L 434 4666 
z
" transform="scale(0.015625)"/>
        <path id="DejaVuSansMono-35" d="M 647 4666 
L 3009 4666 
L 3009 4134 
L 1222 4134 
L 1222 2988 
Q 1356 3038 1492 3061 
Q 1628 3084 1766 3084 
Q 2491 3084 2916 2656 
Q 3341 2228 3341 1497 
Q 3341 759 2895 334 
Q 2450 -91 1678 -91 
Q 1306 -91 998 -41 
Q 691 9 447 109 
L 447 750 
Q 734 594 1025 517 
Q 1316 441 1619 441 
Q 2141 441 2423 716 
Q 2706 991 2706 1497 
Q 2706 1997 2414 2275 
Q 2122 2553 1600 2553 
Q 1347 2553 1106 2495 
Q 866 2438 647 2322 
L 647 4666 
z
" transform="scale(0.015625)"/>
       </defs>
       <use xlink:href="#DejaVuSansMono-30"/>
       <use xlink:href="#DejaVuSansMono-2e" x="60.205078"/>
       <use xlink:href="#DejaVuSansMono-38" x="120.410156"/>
       <use xlink:href="#DejaVuSansMono-37" x="180.615234"/>
       <use xlink:href="#DejaVuSansMono-35" x="240.820312"/>
      </g>
     </g>
    </g>
    <g id="ytick_2">
     <g id="line2d_22">
      <g>
       <use xlink:href="#m7ac1c2c15f" x="47.95" y="343.056681" style="stroke: #000000; stroke-width: 0.8"/>
      </g>
     </g>
     <g id="text_5">
      <!-- 0.900 -->
      <g transform="translate(10.848438 346.882463) scale(0.1 -0.1)">
       <defs>
        <path id="DejaVuSansMono-39" d="M 1863 2069 
Q 2266 2069 2495 2359 
Q 2725 2650 2725 3163 
Q 2725 3675 2495 3965 
Q 2266 4256 1863 4256 
Q 1444 4256 1231 3979 
Q 1019 3703 1019 3163 
Q 1019 2619 1230 2344 
Q 1441 2069 1863 2069 
z
M 738 97 
L 738 678 
Q 934 563 1156 502 
Q 1378 441 1619 441 
Q 2219 441 2526 892 
Q 2834 1344 2834 2222 
Q 2688 1909 2422 1742 
Q 2156 1575 1813 1575 
Q 1138 1575 767 1990 
Q 397 2406 397 3169 
Q 397 3922 776 4336 
Q 1156 4750 1850 4750 
Q 2663 4750 3041 4165 
Q 3419 3581 3419 2328 
Q 3419 1150 2964 529 
Q 2509 -91 1644 -91 
Q 1416 -91 1184 -42 
Q 953 6 738 97 
z
" transform="scale(0.015625)"/>
       </defs>
       <use xlink:href="#DejaVuSansMono-30"/>
       <use xlink:href="#DejaVuSansMono-2e" x="60.205078"/>
       <use xlink:href="#DejaVuSansMono-39" x="120.410156"/>
       <use xlink:href="#DejaVuSansMono-30" x="180.615234"/>
       <use xlink:href="#DejaVuSansMono-30" x="240.820312"/>
      </g>
     </g>
    </g>
    <g id="ytick_3">
     <g id="line2d_23">
      <g>
       <use xlink:href="#m7ac1c2c15f" x="47.95" y="299.093121" style="stroke: #000000; stroke-width: 0.8"/>
      </g>
     </g>
     <g id="text_6">
      <!-- 0.925 -->
      <g transform="translate(10.848438 302.918902) scale(0.1 -0.1)">
       <use xlink:href="#DejaVuSansMono-30"/>
       <use xlink:href="#DejaVuSansMono-2e" x="60.205078"/>
       <use xlink:href="#DejaVuSansMono-39" x="120.410156"/>
       <use xlink:href="#DejaVuSansMono-32" x="180.615234"/>
       <use xlink:href="#DejaVuSansMono-35" x="240.820312"/>
      </g>
     </g>
    </g>
    <g id="ytick_4">
     <g id="line2d_24">
      <g>
       <use xlink:href="#m7ac1c2c15f" x="47.95" y="255.129561" style="stroke: #000000; stroke-width: 0.8"/>
      </g>
     </g>
     <g id="text_7">
      <!-- 0.950 -->
      <g transform="translate(10.848438 258.955342) scale(0.1 -0.1)">
       <use xlink:href="#DejaVuSansMono-30"/>
       <use xlink:href="#DejaVuSansMono-2e" x="60.205078"/>
       <use xlink:href="#DejaVuSansMono-39" x="120.410156"/>
       <use xlink:href="#DejaVuSansMono-35" x="180.615234"/>
       <use xlink:href="#DejaVuSansMono-30" x="240.820312"/>
      </g>
     </g>
    </g>
    <g id="ytick_5">
     <g id="line2d_25">
      <g>
       <use xlink:href="#m7ac1c2c15f" x="47.95" y="211.166001" style="stroke: #000000; stroke-width: 0.8"/>
      </g>
     </g>
     <g id="text_8">
      <!-- 0.975 -->
      <g transform="translate(10.848438 214.991782) scale(0.1 -0.1)">
       <use xlink:href="#DejaVuSansMono-30"/>
       <use xlink:href="#DejaVuSansMono-2e" x="60.205078"/>
       <use xlink:href="#DejaVuSansMono-39" x="120.410156"/>
       <use xlink:href="#DejaVuSansMono-37" x="180.615234"/>
       <use xlink:href="#DejaVuSansMono-35" x="240.820312"/>
      </g>
     </g>
    </g>
    <g id="ytick_6">
     <g id="line2d_26">
      <g>
       <use xlink:href="#m7ac1c2c15f" x="47.95" y="167.20244" style="stroke: #000000; stroke-width: 0.8"/>
      </g>
     </g>
     <g id="text_9">
      <!-- 1.000 -->
      <g transform="translate(10.848438 171.028222) scale(0.1 -0.1)">
       <use xlink:href="#DejaVuSansMono-31"/>
       <use xlink:href="#DejaVuSansMono-2e" x="60.205078"/>
       <use xlink:href="#DejaVuSansMono-30" x="120.410156"/>
       <use xlink:href="#DejaVuSansMono-30" x="180.615234"/>
       <use xlink:href="#DejaVuSansMono-30" x="240.820312"/>
      </g>
     </g>
    </g>
    <g id="ytick_7">
     <g id="line2d_27">
      <g>
       <use xlink:href="#m7ac1c2c15f" x="47.95" y="123.23888" style="stroke: #000000; stroke-width: 0.8"/>
      </g>
     </g>
     <g id="text_10">
      <!-- 1.025 -->
      <g transform="translate(10.848438 127.064661) scale(0.1 -0.1)">
       <use xlink:href="#DejaVuSansMono-31"/>
       <use xlink:href="#DejaVuSansMono-2e" x="60.205078"/>
       <use xlink:href="#DejaVuSansMono-30" x="120.410156"/>
       <use xlink:href="#DejaVuSansMono-32" x="180.615234"/>
       <use xlink:href="#DejaVuSansMono-35" x="240.820312"/>
      </g>
     </g>
    </g>
    <g id="ytick_8">
     <g id="line2d_28">
      <g>
       <use xlink:href="#m7ac1c2c15f" x="47.95" y="79.27532" style="stroke: #000000; stroke-width: 0.8"/>
      </g>
     </g>
     <g id="text_11">
      <!-- 1.050 -->
      <g transform="translate(10.848438 83.101101) scale(0.1 -0.1)">
       <use xlink:href="#DejaVuSansMono-31"/>
       <use xlink:href="#DejaVuSansMono-2e" x="60.205078"/>
       <use xlink:href="#DejaVuSansMono-30" x="120.410156"/>
       <use xlink:href="#DejaVuSansMono-35" x="180.615234"/>
       <use xlink:href="#DejaVuSansMono-30" x="240.820312"/>
      </g>
     </g>
    </g>
    <g id="ytick_9">
     <g id="line2d_29">
      <g>
       <use xlink:href="#m7ac1c2c15f" x="47.95" y="35.31176" style="stroke: #000000; stroke-width: 0.8"/>
      </g>
     </g>
     <g id="text_12">
      <!-- 1.075 -->
      <g transform="translate(10.848438 39.137541) scale(0.1 -0.1)">
       <use xlink:href="#DejaVuSansMono-31"/>
       <use xlink:href="#DejaVuSansMono-2e" x="60.205078"/>
       <use xlink:href="#DejaVuSansMono-30" x="120.410156"/>
       <use xlink:href="#DejaVuSansMono-37" x="180.615234"/>
       <use xlink:href="#DejaVuSansMono-35" x="240.820312"/>
      </g>
     </g>
    </g>
   </g>
   <g id="line2d_30">
    <path d="M 31.937076 55.978366 
L 62.435452 56.045897 
L 75.659634 77.347832 
L 87.824702 76.832954 
L 99.087795 77.568645 
L 109.573485 79.32248 
L 119.382192 86.473965 
L 128.596056 81.088995 
L 137.283118 83.449239 
L 145.500374 87.341857 
L 153.296043 85.711545 
L 160.71128 107.007511 
L 167.781495 106.667405 
L 174.537372 106.660943 
L 181.005676 128.338307 
L 187.209893 135.043682 
L 193.170744 123.437137 
L 198.906603 121.343891 
L 204.433838 122.541049 
L 209.767094 125.112429 
L 214.919527 131.735106 
L 219.902997 132.871026 
L 224.728234 125.554103 
L 229.404979 125.630392 
L 233.942099 137.950617 
L 238.347689 137.512892 
L 242.629161 141.408565 
L 246.793318 135.650831 
L 250.846417 152.923796 
L 254.794229 170.32282 
L 258.642085 177.697754 
L 262.394923 174.48795 
L 266.057322 161.982254 
L 269.633539 136.353924 
L 273.127537 130.968039 
L 276.543012 141.189544 
L 279.883415 141.568006 
L 283.151975 148.901076 
L 286.351719 165.879298 
L 289.485484 164.664814 
L 292.555936 168.475365 
L 295.565583 170.630755 
L 298.516787 163.80483 
L 301.411774 158.991612 
L 304.252645 161.078935 
L 307.041388 167.187847 
L 309.77988 161.968593 
L 312.469901 152.870305 
L 315.113137 147.606944 
L 317.711187 149.388324 
L 320.26557 148.795858 
L 322.77773 150.80743 
L 325.24904 143.735774 
L 327.680807 147.852984 
L 330.074277 144.67587 
L 332.430638 157.582065 
L 334.751022 155.457607 
L 337.036512 162.472696 
L 339.288141 161.666698 
L 341.506899 159.397653 
L 343.693731 155.533474 
L 345.849544 152.352817 
L 347.975204 151.224008 
L 350.071543 152.707314 
L 352.13936 143.377595 
L 354.179421 141.456849 
L 356.192459 156.414644 
L 358.179183 158.869631 
L 360.140271 157.909321 
L 362.076377 151.024027 
L 365.87613 148.906249 
L 367.740966 155.436809 
L 369.583197 153.94011 
L 371.403365 135.520058 
L 373.201992 138.04807 
L 374.979582 137.35745 
L 376.736621 132.002612 
L 378.47358 129.528901 
L 380.190911 124.880993 
L 381.889054 118.890419 
L 383.568433 118.258196 
L 385.229457 132.566524 
L 386.872524 139.09955 
L 388.498018 143.591459 
L 390.10631 143.691798 
L 391.697762 133.731107 
L 393.272721 129.723402 
L 394.831527 128.637673 
L 397.901979 130.143927 
L 399.414252 129.702735 
L 400.911626 143.772672 
L 402.394391 142.443196 
L 403.862829 143.137482 
L 405.317216 139.370739 
L 406.757816 147.386251 
L 408.18489 156.143857 
L 409.598688 153.460382 
L 410.999456 155.938821 
L 412.387431 150.641158 
L 413.762845 148.415298 
L 415.125923 151.562825 
L 416.476885 147.203539 
L 417.815944 154.873513 
L 419.143308 137.495869 
L 421.763756 142.260164 
L 423.057229 136.726856 
L 424.339787 137.416892 
L 425.611612 136.939738 
L 426.872883 140.9439 
L 428.123772 136.049771 
L 429.36445 135.70618 
L 430.595082 140.426815 
L 431.815829 131.709462 
L 433.02685 136.171642 
L 434.228296 139.004096 
L 435.42032 140.605531 
L 436.603067 146.162302 
L 437.77668 142.877996 
L 438.941301 136.57877 
L 440.097064 143.15408 
L 441.244106 144.107231 
L 442.382554 156.327484 
L 443.512539 155.157267 
L 444.634184 154.571157 
L 445.747612 159.876686 
L 446.852942 147.246176 
L 447.950291 142.335973 
L 449.039774 147.688791 
L 450.121502 149.233176 
L 451.195586 137.497444 
L 452.262132 157.129999 
L 453.321246 152.878984 
L 454.37303 152.225071 
L 455.417586 159.727088 
L 456.455011 164.993424 
L 457.485403 164.651924 
L 458.508856 149.38947 
L 459.525463 148.618043 
L 460.535316 148.298115 
L 461.538502 147.276033 
L 462.53511 134.941506 
L 463.525226 129.031828 
L 464.508933 133.715602 
L 465.486314 134.256845 
L 466.45745 126.486293 
L 467.422419 124.25854 
L 468.381301 132.815997 
L 469.334171 136.645715 
L 470.281103 129.778135 
L 471.222173 125.463819 
L 472.157451 115.461788 
L 473.087008 114.396415 
L 474.010915 132.06518 
L 474.92924 123.185877 
L 475.842048 123.887453 
L 476.749408 129.705612 
L 477.651382 130.119347 
L 478.548035 130.124892 
L 479.439429 129.092344 
L 480.325625 122.130498 
L 481.206683 123.481359 
L 482.082664 121.208708 
L 482.953625 132.29406 
L 483.819623 129.468484 
L 484.680714 127.86555 
L 485.536954 127.874601 
L 486.388397 125.214925 
L 487.235097 117.847322 
L 488.077106 122.120081 
L 488.914476 119.243517 
L 489.747257 117.243454 
L 490.5755 123.238833 
L 491.399254 127.727442 
L 492.218567 122.581825 
L 493.033487 129.72406 
L 493.844061 141.473898 
L 494.650334 150.456544 
L 495.452353 140.287573 
L 496.250162 144.796082 
L 497.043804 153.05813 
L 497.833324 151.755136 
L 498.618764 158.170088 
L 499.400165 158.795174 
L 500.177569 162.688075 
L 500.951017 159.200287 
L 501.720549 152.244357 
L 502.486204 171.505065 
L 503.248021 170.86939 
L 504.006039 161.735786 
L 504.760295 162.638494 
L 505.510826 173.738726 
L 506.257668 170.629767 
L 507.000859 162.628161 
L 508.476426 126.773225 
L 509.208872 133.227198 
L 509.937805 133.535867 
L 510.663258 134.405575 
L 511.385266 138.342096 
L 512.103859 134.610262 
L 512.819071 148.022309 
L 513.530932 146.955214 
L 514.239476 146.957336 
L 514.944731 143.794959 
L 515.646728 146.0403 
L 516.345498 146.3596 
L 517.04107 140.752131 
L 517.733473 145.136529 
L 518.422736 146.247044 
L 519.108887 154.661282 
L 519.791955 152.380159 
L 520.471966 158.222743 
L 521.148948 155.307554 
L 521.822928 156.763817 
L 522.493932 156.206165 
L 523.161987 145.835348 
L 523.827118 143.172287 
L 524.489351 154.476714 
L 525.148711 154.198563 
L 525.805222 150.43776 
L 526.45891 152.420621 
L 527.109799 148.089995 
L 527.757911 148.34626 
L 528.403272 154.98551 
L 529.045904 151.066787 
L 529.68583 154.689572 
L 530.323073 155.959025 
L 530.957655 167.768491 
L 531.589599 167.717887 
L 532.218925 169.111559 
L 532.845657 165.974438 
L 534.09142 163.549746 
L 534.710493 160.676859 
L 535.327055 160.311267 
L 535.941125 151.866915 
L 536.552724 150.876706 
L 537.161872 135.353873 
L 537.768588 143.090928 
L 538.372892 141.709609 
L 538.974803 147.299573 
L 539.574339 154.028093 
L 540.171519 162.057701 
L 540.766362 179.666103 
L 541.358886 204.220346 
L 541.949109 200.195561 
L 542.537049 197.870569 
L 543.706149 181.921823 
L 544.287343 191.064347 
L 544.866324 191.584458 
L 545.443107 194.28859 
L 546.01771 194.858109 
L 546.590148 194.084584 
L 547.160439 184.334922 
L 547.728597 179.718996 
L 548.294639 178.793436 
L 548.858581 172.899939 
L 549.420439 156.942137 
L 549.980227 165.438334 
L 550.53796 166.592836 
L 551.093654 156.006777 
L 552.198984 151.786743 
L 552.748649 146.617005 
L 553.296334 157.463645 
L 553.842051 149.669295 
L 554.385817 150.169253 
L 554.927643 151.848373 
L 555.467545 156.999784 
L 556.005536 152.782631 
L 556.541629 157.00534 
L 557.075837 152.815082 
L 557.608175 153.797579 
L 558.138654 155.583632 
L 558.667289 150.633999 
L 559.194091 150.391874 
L 559.719073 145.761843 
L 560.242248 144.547442 
L 560.763628 142.652023 
L 561.283226 133.935315 
L 562.317123 138.471669 
L 563.344034 144.420257 
L 563.854899 160.104376 
L 564.364052 158.553688 
L 564.871506 173.657818 
L 565.377271 168.313326 
L 565.881358 165.613667 
L 566.383779 159.448143 
L 566.884545 161.654199 
L 567.881153 156.193737 
L 568.377017 157.561183 
L 568.871269 164.831575 
L 569.363918 166.361248 
L 569.854976 173.406112 
L 570.344452 185.664972 
L 570.832357 171.763421 
L 571.3187 172.98716 
L 571.803492 172.161619 
L 572.286743 170.864429 
L 572.768462 182.891525 
L 573.248659 183.54886 
L 573.727343 170.546217 
L 574.204525 178.987167 
L 574.680213 181.502444 
L 575.154417 195.0217 
L 575.627146 194.080823 
L 576.098409 194.0425 
L 576.568215 203.448437 
L 577.503493 199.094161 
L 577.968983 205.096204 
L 578.433051 200.022921 
L 578.895707 212.391519 
L 579.356958 209.941308 
L 580.275282 212.91819 
L 580.732372 217.486617 
L 581.188091 217.629405 
L 581.642448 220.436145 
L 582.09545 208.382986 
L 582.547107 209.599276 
L 582.997425 214.408799 
L 583.446412 214.702767 
L 583.894077 220.473328 
L 584.340428 221.052481 
L 584.785471 224.697908 
L 585.229215 237.458625 
L 585.671667 236.406207 
L 586.112835 236.257996 
L 586.552726 236.244956 
L 586.991348 237.158777 
L 587.428707 236.248185 
L 587.864811 238.733403 
L 588.299667 233.840547 
L 588.733283 233.398333 
L 589.165665 236.817277 
L 589.596821 241.758404 
L 590.026757 239.912584 
L 590.45548 241.886535 
L 590.882997 246.737668 
L 591.309314 220.763214 
L 591.73444 215.081522 
L 592.158379 207.537451 
L 592.58114 208.671737 
L 593.002727 203.572567 
L 593.423148 218.814411 
L 593.84241 217.705413 
L 594.260518 212.494641 
L 594.677479 212.179967 
L 595.093299 201.628872 
L 595.507985 213.683162 
L 595.921542 222.29699 
L 596.333977 213.806521 
L 596.745296 212.994677 
L 597.155505 211.802682 
L 597.972616 212.732946 
L 598.379529 214.556646 
L 598.785357 210.108158 
L 599.190103 211.554661 
L 599.593775 212.238276 
L 599.996377 216.867949 
L 600.397915 217.499036 
L 600.798396 213.768588 
L 601.596204 210.326676 
L 601.993544 209.0281 
L 602.389847 200.70236 
L 602.785119 201.232759 
L 603.179367 212.853114 
L 603.572594 211.29056 
L 603.964806 211.145205 
L 604.356009 210.745199 
L 604.746207 209.293835 
L 605.135407 209.536333 
L 605.523612 208.531774 
L 605.910828 206.406638 
L 606.29706 208.888268 
L 606.682313 202.903298 
L 607.066592 199.923282 
L 607.449901 199.649743 
L 607.832247 200.042215 
L 608.213633 194.933525 
L 608.594064 199.379178 
L 608.973545 208.200104 
L 609.352082 208.470501 
L 609.729677 204.54399 
L 610.106337 202.899378 
L 610.482066 202.740637 
L 610.856868 199.911102 
L 611.230748 224.671015 
L 611.603711 229.936677 
L 611.975761 232.171699 
L 612.346902 229.199853 
L 612.717139 230.405139 
L 613.086476 232.259156 
L 613.454918 230.860222 
L 613.822469 220.644013 
L 614.189133 219.810996 
L 614.554915 228.224497 
L 614.919818 226.909307 
L 615.283848 226.378764 
L 616.009301 238.39043 
L 616.370733 242.279071 
L 616.731308 238.506602 
L 617.09103 226.225518 
L 617.449902 224.095484 
L 617.807928 230.133888 
L 618.165113 233.960178 
L 618.521461 235.246616 
L 618.876975 233.830873 
L 619.23166 233.337335 
L 619.585518 234.594571 
L 619.938555 237.06843 
L 620.290773 235.982373 
L 620.642177 236.528008 
L 620.992771 244.724586 
L 621.691541 246.201708 
L 622.039725 242.649306 
L 622.387113 242.824576 
L 622.733709 226.720974 
L 623.079516 228.108123 
L 623.424538 228.541375 
L 623.768779 225.327918 
L 624.112242 227.849749 
L 624.45493 224.534142 
L 624.796847 227.456532 
L 625.137997 225.277438 
L 625.478383 225.404175 
L 625.818008 222.411356 
L 626.156876 227.355326 
L 626.49499 228.904829 
L 627.16897 228.292521 
L 627.504843 235.505072 
L 627.839975 238.508743 
L 628.174369 229.678808 
L 628.508029 233.187727 
L 628.840959 234.44832 
L 629.17316 227.797565 
L 629.504638 234.267793 
L 629.835393 233.120075 
L 630.165431 237.959471 
L 630.494753 237.734772 
L 630.823363 223.30158 
L 631.151265 237.632046 
L 631.47846 238.710647 
L 631.804953 242.109966 
L 632.130745 243.809138 
L 632.455841 254.301344 
L 633.103954 234.841817 
L 633.426977 233.852247 
L 633.749315 237.787885 
L 634.07097 245.901973 
L 634.391947 245.666559 
L 634.712246 247.840983 
L 635.031873 247.210979 
L 635.350828 246.996541 
L 635.669115 246.356613 
L 635.986738 247.338064 
L 636.303698 252.439601 
L 636.619998 253.716309 
L 636.935641 256.29334 
L 637.25063 243.140519 
L 637.564968 244.35449 
L 637.878657 242.444873 
L 638.1917 239.074287 
L 638.504099 244.829813 
L 638.815858 242.646712 
L 639.126978 257.708048 
L 639.437463 258.176833 
L 639.747314 249.025806 
L 640.056536 252.766012 
L 640.365129 252.693135 
L 640.673097 253.791424 
L 640.980442 253.539391 
L 641.287168 256.307364 
L 641.593275 255.762395 
L 641.898767 259.623262 
L 642.507915 257.929498 
L 642.811576 253.055028 
L 643.114631 253.65023 
L 643.417083 240.839505 
L 643.718935 241.912396 
L 644.020188 251.725155 
L 644.320845 250.180361 
L 644.620909 249.975275 
L 644.920381 252.573329 
L 645.219265 252.486391 
L 645.517562 244.57404 
L 645.815274 244.85787 
L 646.112405 228.804094 
L 646.408956 245.043912 
L 646.704929 244.239584 
L 647.000327 245.414829 
L 647.295152 244.739431 
L 647.883092 244.446514 
L 648.176211 243.747252 
L 648.468766 252.344673 
L 648.760758 251.688828 
L 649.052191 250.281339 
L 649.343066 252.825381 
L 649.633386 252.665327 
L 649.923152 250.153921 
L 650.212366 250.08096 
L 650.501032 242.145908 
L 650.78915 242.557146 
L 651.363752 241.73608 
L 651.650241 240.490919 
L 651.936191 231.946237 
L 652.221603 242.291541 
L 652.506481 241.92053 
L 652.790826 241.95773 
L 653.07464 239.982269 
L 653.357924 239.789605 
L 653.640682 242.015644 
L 653.922915 242.462273 
L 654.204624 242.505463 
L 654.485812 251.529713 
L 655.326269 248.112452 
L 655.605392 236.316858 
L 655.884003 238.713039 
L 656.162104 238.305455 
L 656.439697 238.955259 
L 656.716784 237.13529 
L 657.269447 230.965176 
L 657.545027 230.605225 
L 657.820108 243.403495 
L 658.368781 233.710823 
L 658.642376 232.440854 
L 658.91548 230.347595 
L 659.188094 231.161606 
L 659.46022 212.798011 
L 659.731859 218.952272 
L 660.003014 217.410782 
L 660.273686 232.648416 
L 660.543876 233.146224 
L 660.813588 235.531489 
L 661.082821 224.910564 
L 661.351578 224.29487 
L 661.619861 221.487192 
L 661.887671 221.509751 
L 662.15501 229.060771 
L 662.42188 228.014461 
L 662.688282 229.179975 
L 662.954218 228.673673 
L 663.749244 235.444986 
L 664.013331 233.299103 
L 664.276961 238.87803 
L 664.540133 234.954359 
L 664.802851 236.239663 
L 665.065116 234.581336 
L 665.326928 234.285394 
L 665.588291 241.450705 
L 665.849204 245.500842 
L 666.109671 240.029854 
L 666.369692 241.304209 
L 666.629269 241.822557 
L 666.888403 241.844611 
L 667.147096 241.054522 
L 667.40535 238.028006 
L 667.663165 238.475864 
L 667.920544 238.371859 
L 668.177488 237.20959 
L 668.433998 235.467015 
L 668.690076 232.596277 
L 668.945723 244.817342 
L 669.200941 243.511945 
L 669.455731 235.863348 
L 669.710095 235.884298 
L 670.217548 243.326387 
L 670.470641 250.746306 
L 670.723313 247.854777 
L 670.975566 238.811914 
L 671.478819 246.637455 
L 671.729822 248.937458 
L 671.980411 249.462286 
L 672.230587 254.696946 
L 672.480353 270.433222 
L 672.729708 277.756253 
L 672.978656 278.279698 
L 673.47533 274.976108 
L 673.72306 261.674159 
L 673.970386 272.233296 
L 674.217311 272.278069 
L 674.463836 274.721562 
L 674.709961 273.886351 
L 674.955688 273.652231 
L 675.201018 272.286528 
L 675.445953 272.754194 
L 675.690494 274.724913 
L 676.178399 273.602713 
L 676.421766 262.879655 
L 676.664743 265.326869 
L 676.907332 253.137988 
L 677.149535 257.86987 
L 677.391352 256.916266 
L 677.873836 260.568583 
L 678.114505 260.785963 
L 678.354793 254.337792 
L 678.594702 259.277677 
L 678.834232 259.621818 
L 679.073386 263.779257 
L 679.312164 256.838479 
L 679.550568 255.928942 
L 679.788598 259.10282 
L 680.026256 258.054684 
L 680.263543 255.827662 
L 681.444452 264.299557 
L 681.679536 271.092902 
L 681.914258 271.842729 
L 682.148618 271.544481 
L 682.382616 273.428289 
L 682.616255 260.741503 
L 682.849536 264.124777 
L 683.082459 271.16046 
L 683.315025 271.375712 
L 683.779094 271.504363 
L 684.010597 273.36939 
L 684.241749 269.550128 
L 684.47255 272.344533 
L 684.703001 265.218519 
L 684.933102 266.047349 
L 685.162856 267.803091 
L 685.392263 268.676958 
L 685.621325 281.809501 
L 685.850042 281.945761 
L 686.306445 271.284983 
L 686.534134 266.327756 
L 686.761482 269.107726 
L 686.98849 274.147577 
L 687.21516 259.893874 
L 687.441493 258.363704 
L 687.667489 259.24462 
L 687.893149 251.728958 
L 688.118475 262.88787 
L 688.343467 262.556461 
L 688.568127 276.160968 
L 688.792455 276.808037 
L 689.016452 277.971467 
L 689.463459 274.891845 
L 689.68647 273.781927 
L 689.909155 277.368542 
L 690.131514 278.157436 
L 690.353548 276.635001 
L 690.575258 277.042101 
L 690.796645 282.616628 
L 691.01771 282.064697 
L 691.238454 279.125128 
L 691.458878 279.8369 
L 691.898769 282.406006 
L 692.118238 273.860695 
L 692.33739 278.965784 
L 692.556227 278.64203 
L 692.774749 272.135667 
L 693.210854 269.616396 
L 693.428437 266.888932 
L 693.64571 267.140627 
L 693.862672 278.740073 
L 694.079326 268.746219 
L 694.295671 269.932384 
L 694.511708 268.438724 
L 694.727438 270.494076 
L 694.942863 270.454319 
L 695.157983 270.077616 
L 695.372799 272.014718 
L 695.587312 271.61152 
L 695.801522 274.93601 
L 696.015431 275.252079 
L 696.229039 271.850595 
L 696.442348 270.33746 
L 696.655357 263.1443 
L 696.868068 263.148475 
L 697.504422 277.455202 
L 697.715949 278.098896 
L 697.927182 277.873607 
L 698.138122 292.191599 
L 698.34877 294.025328 
L 698.559126 294.244108 
L 698.769191 302.628664 
L 698.978966 305.218461 
L 699.188453 305.326601 
L 699.39765 306.031279 
L 699.815184 303.621611 
L 700.023522 301.789779 
L 700.231574 301.113123 
L 700.646826 306.953208 
L 700.854028 306.019359 
L 701.060947 307.728976 
L 701.267585 305.501454 
L 701.68002 306.30149 
L 701.885819 299.246285 
L 702.091339 297.120971 
L 702.296582 298.556624 
L 702.501548 298.317638 
L 702.706237 304.725953 
L 702.910652 305.342216 
L 703.114792 303.767559 
L 703.522251 309.580155 
L 703.725572 306.691628 
L 703.928621 306.440159 
L 704.131399 305.5279 
L 704.333907 307.286466 
L 704.536146 316.332073 
L 704.738116 316.027642 
L 704.939817 316.911076 
L 705.141252 314.166648 
L 705.342419 314.200221 
L 705.543321 314.447626 
L 705.743958 312.771304 
L 705.94433 307.046967 
L 706.144438 310.976127 
L 706.344283 309.798455 
L 706.942247 319.704638 
L 707.141046 318.812926 
L 707.339586 321.52445 
L 707.537867 322.325007 
L 707.735889 322.17978 
L 707.933654 320.262067 
L 708.131162 320.401469 
L 708.328413 319.302252 
L 708.72215 318.75203 
L 708.918636 319.600353 
L 709.114869 318.76988 
L 709.310849 318.916108 
L 709.506576 318.6079 
L 709.702052 317.94442 
L 709.897276 319.232994 
L 710.09225 322.980118 
L 710.286974 323.295448 
L 710.481449 321.498043 
L 710.675676 314.86652 
L 710.869654 314.194445 
L 711.063386 314.205537 
L 711.25687 316.567561 
L 711.450109 312.447193 
L 711.643102 314.01983 
L 711.835851 320.911187 
L 712.028355 320.248629 
L 712.220616 319.985263 
L 712.412634 317.667139 
L 712.60441 319.154992 
L 712.795944 319.341902 
L 712.987237 320.078663 
L 713.369102 317.927068 
L 713.559675 322.01087 
L 713.75001 311.838234 
L 713.940107 307.9319 
L 714.129966 306.793977 
L 714.508974 301.676553 
L 714.698124 301.502779 
L 714.887039 303.507669 
L 715.07572 302.35873 
L 715.264167 302.440828 
L 715.45238 303.108688 
L 715.64036 300.661217 
L 716.015625 299.854163 
L 716.202911 301.927488 
L 716.389966 300.88182 
L 716.576791 300.719393 
L 716.763387 301.429942 
L 716.949754 301.500735 
L 717.135892 294.13427 
L 717.321803 294.633869 
L 717.692944 278.358897 
L 717.878176 278.967779 
L 718.063181 279.141306 
L 718.247962 272.510085 
L 718.432519 272.125371 
L 718.800961 258.324589 
L 718.984847 257.69596 
L 719.168512 258.894881 
L 719.351954 258.959354 
L 719.535176 258.058096 
L 719.718177 247.657136 
L 719.900957 248.820587 
L 720.083519 255.059525 
L 720.265861 256.836325 
L 720.447985 256.414718 
L 720.62989 249.563414 
L 720.811578 254.529395 
L 720.99305 255.148536 
L 721.89717 263.806447 
L 722.077351 259.106665 
L 722.437072 261.845682 
L 722.616614 262.182664 
L 722.795944 262.23621 
L 722.975063 275.804466 
L 723.153971 280.433145 
L 723.332668 281.641298 
L 723.689434 286.118949 
L 723.867504 286.124905 
L 724.045365 284.693151 
L 724.223018 279.211007 
L 724.400463 278.150652 
L 724.577702 281.169403 
L 724.754734 286.80024 
L 724.931561 279.686885 
L 725.108182 280.290235 
L 725.284597 278.85912 
L 725.460809 279.820811 
L 725.636816 277.167217 
L 725.81262 277.096033 
L 725.98822 273.1345 
L 726.163618 273.953639 
L 726.338814 272.571971 
L 726.513807 282.344672 
L 726.6886 285.437713 
L 726.863192 285.939801 
L 727.037584 284.442682 
L 727.211775 290.308439 
L 727.385767 290.954485 
L 727.733156 300.207874 
L 727.906552 295.188446 
L 728.079751 296.368503 
L 728.252753 296.37757 
L 728.425559 296.617088 
L 728.598168 302.945584 
L 728.770581 303.531371 
L 728.942799 303.110904 
L 729.28665 303.38731 
L 729.629725 304.732347 
L 729.800973 299.308369 
L 729.972028 300.086349 
L 730.14289 299.824023 
L 730.313561 299.264264 
L 730.48404 299.32259 
L 730.654328 294.934694 
L 730.824426 299.839177 
L 730.994333 300.109925 
L 731.164051 302.912297 
L 731.333579 302.618116 
L 731.502919 301.806165 
L 731.67207 298.10325 
L 731.841033 297.994712 
L 732.009808 296.979072 
L 732.346798 299.664947 
L 732.515013 298.186596 
L 732.683042 299.975984 
L 732.850885 307.165033 
L 733.018544 307.215199 
L 733.186017 307.074429 
L 733.353306 310.090193 
L 733.520412 318.668032 
L 733.687333 316.077983 
L 733.854072 316.488927 
L 734.020628 314.623803 
L 734.187001 319.945867 
L 734.353193 318.344917 
L 734.519203 317.984012 
L 734.685032 323.040676 
L 734.85068 324.279522 
L 735.016148 319.73417 
L 735.181436 321.46919 
L 735.346544 321.500968 
L 735.511473 319.669558 
L 735.676224 319.933787 
L 735.840796 319.029093 
L 736.00519 319.889418 
L 736.333445 329.858688 
L 736.497307 329.72759 
L 736.660993 327.36891 
L 736.824503 328.352594 
L 736.987837 332.627243 
L 737.150995 332.48456 
L 737.313979 332.593455 
L 737.476788 331.328148 
L 737.639423 331.527185 
L 737.801884 336.60552 
L 737.964171 336.325873 
L 738.126286 341.573071 
L 738.449997 342.705617 
L 738.611594 343.145139 
L 738.773019 338.797575 
L 738.934274 340.188561 
L 739.095357 340.1979 
L 739.25627 339.696095 
L 739.417013 336.753661 
L 739.577586 337.671069 
L 739.737989 337.688773 
L 739.898223 341.165722 
L 740.058289 337.881603 
L 740.218186 336.993989 
L 740.377915 336.835702 
L 740.537477 333.899447 
L 740.696871 334.37026 
L 740.856098 334.213503 
L 741.015158 333.173671 
L 741.174052 330.96957 
L 741.64974 329.42064 
L 741.807973 324.639195 
L 741.966041 325.233231 
L 742.123944 322.075744 
L 742.281684 322.999779 
L 742.753923 326.9834 
L 742.911011 326.323842 
L 743.067936 331.882385 
L 743.2247 330.96303 
L 743.381302 330.707401 
L 743.537742 333.455946 
L 743.694022 331.693894 
L 743.850142 332.392127 
L 744.31754 327.42934 
L 744.47302 327.185818 
L 744.628342 329.445935 
L 744.783505 326.933357 
L 744.93851 326.509786 
L 745.093357 322.849332 
L 745.248046 323.093378 
L 745.402578 324.098288 
L 745.556953 323.808408 
L 746.01914 321.773679 
L 746.17289 322.010139 
L 746.326485 321.757199 
L 746.479925 320.594995 
L 746.786341 325.533698 
L 746.939317 325.616396 
L 747.09214 314.571609 
L 747.244809 317.753571 
L 747.549689 318.793888 
L 747.701899 318.896329 
L 748.005864 323.674989 
L 748.157618 322.50191 
L 748.309221 322.829241 
L 748.460674 324.371437 
L 748.611975 323.447611 
L 748.763126 323.971729 
L 748.914127 327.062636 
L 749.215679 326.130905 
L 749.366231 325.14203 
L 749.516634 331.746625 
L 749.666888 329.428014 
L 749.816994 334.278144 
L 750.116762 331.193308 
L 750.415939 332.399496 
L 750.714529 331.296535 
L 750.863604 332.559368 
L 751.161317 332.529113 
L 751.309955 335.00637 
L 751.458448 335.089013 
L 751.903057 337.4201 
L 752.34637 332.679871 
L 752.493854 331.60992 
L 752.641195 334.845826 
L 752.788393 335.057646 
L 752.935449 335.065162 
L 753.082362 334.318037 
L 753.229134 331.469098 
L 753.522253 333.432053 
L 753.814808 332.426158 
L 753.960875 332.263403 
L 754.106801 332.675925 
L 754.398234 328.8912 
L 754.543741 339.420415 
L 754.689109 339.405258 
L 754.834338 339.748155 
L 755.124381 338.132918 
L 755.269195 333.911716 
L 755.413871 334.607765 
L 755.558409 334.297074 
L 755.70281 337.071436 
L 755.847074 336.649842 
L 756.135192 337.498197 
L 756.279047 337.058635 
L 756.422765 337.7584 
L 756.566348 332.752025 
L 757.425007 339.464045 
L 757.567646 337.028128 
L 757.710152 336.760435 
L 757.852524 329.195186 
L 757.994763 331.998915 
L 758.136869 332.210612 
L 758.278842 330.041775 
L 758.420682 330.286853 
L 758.562391 330.196501 
L 758.986725 326.934413 
L 759.409877 328.905139 
L 759.691326 335.712236 
L 759.831855 336.238471 
L 760.112524 330.951929 
L 760.252664 332.143076 
L 760.392676 334.927193 
L 760.532558 334.986738 
L 760.672312 330.700651 
L 760.811937 329.914492 
L 760.951434 330.310146 
L 761.090804 331.670007 
L 761.369159 326.866219 
L 761.508146 328.679346 
L 761.647006 328.071115 
L 761.78574 328.154579 
L 761.924346 327.367692 
L 762.201181 329.652229 
L 762.339409 333.890068 
L 762.477512 333.546323 
L 762.61549 334.432398 
L 762.753342 331.23866 
L 762.89107 331.098165 
L 763.028672 331.407759 
L 763.166151 330.541339 
L 763.303505 330.887158 
L 763.440735 328.41777 
L 763.577841 334.038322 
L 763.714823 333.711137 
L 763.851683 330.812672 
L 763.988419 331.99103 
L 764.125032 330.899159 
L 764.397891 326.502726 
L 764.534137 329.096218 
L 764.67026 326.841595 
L 764.806262 335.669009 
L 764.942143 335.337454 
L 765.077902 335.2999 
L 765.21354 337.723001 
L 765.349057 336.8151 
L 765.484453 336.938168 
L 765.619728 336.768985 
L 765.754884 337.467758 
L 765.889919 341.11818 
L 766.15963 341.390996 
L 766.294307 339.582612 
L 766.428864 340.140567 
L 766.563302 340.055597 
L 766.697621 340.21205 
L 766.831822 343.679571 
L 766.965904 344.170803 
L 767.099868 344.096925 
L 767.367442 341.392877 
L 767.634546 346.779726 
L 767.767923 347.004069 
L 767.901182 346.564523 
L 768.167351 354.128401 
L 768.30026 351.802165 
L 768.565731 352.306771 
L 768.698293 350.735476 
L 768.963071 345.021254 
L 769.227388 342.968703 
L 769.359374 343.1048 
L 769.491246 346.311062 
L 769.623003 346.720064 
L 769.754647 346.29589 
L 769.886176 346.301366 
L 770.017592 344.547689 
L 770.148894 345.566026 
L 770.280083 344.96444 
L 770.411158 345.384988 
L 770.672971 349.244775 
L 770.803708 345.734724 
L 771.195247 350.954473 
L 771.325536 350.969313 
L 771.455714 351.178722 
L 771.715735 339.669343 
L 771.845578 332.054848 
L 771.975311 331.637471 
L 772.104934 330.422243 
L 772.363847 332.236861 
L 772.493139 328.703336 
L 772.751393 328.775144 
L 772.880355 330.432313 
L 773.009208 327.728661 
L 773.137952 327.437822 
L 773.266587 326.424658 
L 773.395113 323.889888 
L 773.523531 323.738589 
L 773.65184 323.889343 
L 773.908134 328.28391 
L 774.036119 327.663198 
L 774.163996 323.887964 
L 774.291766 323.699912 
L 774.419429 322.9535 
L 774.546984 322.935545 
L 774.674432 321.212587 
L 774.801774 321.656737 
L 774.929009 322.904631 
L 775.056137 321.523629 
L 775.18316 322.29945 
L 775.436886 326.343836 
L 775.563591 325.135086 
L 775.816684 326.919946 
L 775.943072 326.534488 
L 776.069356 326.809676 
L 776.195535 327.935552 
L 776.321609 327.369177 
L 776.573443 329.943391 
L 776.699204 328.696859 
L 776.824862 328.575758 
L 777.075864 323.943997 
L 777.201211 328.539706 
L 777.326453 328.245534 
L 777.451593 327.637866 
L 777.57663 327.670469 
L 777.701564 329.570265 
L 777.826395 329.595515 
L 778.449019 350.028274 
L 778.573238 350.08216 
L 778.697356 350.533831 
L 778.945288 349.427581 
L 779.069102 349.502017 
L 779.192816 345.818735 
L 779.439942 348.247669 
L 779.563354 349.217884 
L 779.686666 348.393855 
L 779.809878 348.534142 
L 780.056003 345.824801 
L 780.178917 345.474101 
L 780.30173 342.950496 
L 780.424445 346.23149 
L 780.547061 345.996565 
L 781.036537 349.8933 
L 781.15866 349.091173 
L 781.280685 350.407406 
L 781.524442 350.043048 
L 781.646174 349.24 
L 782.132128 343.219298 
L 782.374524 342.722322 
L 782.616534 338.810504 
L 782.737395 337.285053 
L 782.85816 339.686412 
L 782.978828 339.451889 
L 783.219879 343.324424 
L 783.340261 342.958195 
L 783.460547 341.272833 
L 783.580739 341.371806 
L 783.820837 337.85076 
L 783.940744 337.310637 
L 784.180275 338.176333 
L 784.299899 339.686816 
L 784.419429 338.229213 
L 784.538865 338.369226 
L 784.658207 338.292565 
L 784.777455 338.398116 
L 784.89661 343.339662 
L 785.015672 338.603896 
L 785.13464 339.752652 
L 785.253516 343.526174 
L 785.372298 343.483642 
L 785.490988 341.266313 
L 785.609585 341.259851 
L 785.72809 344.581435 
L 785.846502 343.341245 
L 785.964822 344.777719 
L 786.201187 343.886378 
L 786.437184 346.036428 
L 786.555045 346.4765 
L 786.790494 345.810664 
L 786.908082 341.285578 
L 787.142985 342.717584 
L 787.2603 342.652068 
L 787.49466 343.370963 
L 787.611705 343.200108 
L 787.728659 345.84212 
L 787.845523 345.873717 
L 787.962298 345.48408 
L 788.195579 346.618973 
L 788.312085 346.77095 
L 788.661068 353.109438 
L 788.777218 347.679829 
L 788.893279 347.893837 
L 789.009252 347.470899 
L 789.240932 346.107394 
L 789.703236 352.903121 
L 789.818592 353.351427 
L 790.049043 348.558843 
L 790.164138 346.075907 
L 790.394065 347.140248 
L 790.738306 338.479279 
L 790.85288 343.253327 
L 791.081769 342.520803 
L 791.310314 343.282193 
L 791.538515 340.657484 
L 791.880176 343.69047 
L 792.221071 345.399767 
L 792.44791 341.707439 
L 792.561203 341.756187 
L 792.674411 346.398846 
L 792.900575 346.281802 
L 793.013531 344.572258 
L 793.126403 345.078977 
L 793.239192 338.387076 
L 793.351896 339.047302 
L 793.68951 342.60479 
L 793.914169 342.958908 
L 794.026375 342.457727 
L 794.138497 343.554833 
L 794.362495 341.273089 
L 794.47437 344.900329 
L 794.586163 342.127749 
L 794.921048 344.181237 
L 795.032513 341.644059 
L 795.143896 341.967014 
L 795.366418 339.17378 
L 795.477556 338.979155 
L 795.588614 342.275363 
L 795.69959 341.971584 
L 795.810486 344.323278 
L 796.032034 343.944817 
L 796.363753 352.599932 
L 796.474165 352.47668 
L 796.584497 352.928796 
L 796.694748 351.675346 
L 796.80492 351.738061 
L 797.244811 356.249898 
L 797.354585 356.18396 
L 797.46428 355.834311 
L 797.573896 354.343764 
L 797.792891 354.873422 
L 797.90227 354.075296 
L 798.01157 354.679735 
L 798.120792 353.558499 
L 798.229935 354.197141 
L 798.339001 352.032614 
L 798.447987 352.148143 
L 798.665727 354.345559 
L 798.883155 362.630926 
L 798.991753 362.663296 
L 799.208715 363.112908 
L 799.31708 363.403765 
L 799.425368 356.082348 
L 799.533579 356.122873 
L 799.641713 356.394957 
L 799.74977 354.316755 
L 799.85775 355.469258 
L 799.965654 353.471965 
L 800.073481 355.62835 
L 800.288906 354.898138 
L 800.396504 355.102618 
L 800.611472 358.228767 
L 800.718842 357.921834 
L 800.933354 356.944313 
L 801.040497 358.250245 
L 801.147565 358.138981 
L 801.254557 356.016391 
L 801.468315 349.477448 
L 801.78839 348.328407 
L 802.0014 345.234725 
L 802.107793 347.252693 
L 802.214111 346.818779 
L 802.320355 347.557057 
L 802.532621 347.150263 
L 802.638643 343.750747 
L 802.744591 343.865255 
L 802.850465 344.34214 
L 802.956265 345.766264 
L 803.061992 345.330365 
L 803.167645 345.491993 
L 803.378731 349.449999 
L 803.589525 347.56289 
L 803.694812 349.461183 
L 804.220158 341.901341 
L 804.325009 341.858148 
L 804.429788 342.343345 
L 804.534495 342.281175 
L 804.63913 341.929615 
L 804.848184 348.008727 
L 804.952603 348.531053 
L 805.056951 351.861208 
L 805.161227 351.438056 
L 805.265431 354.620133 
L 805.369564 354.1051 
L 805.473626 354.600962 
L 805.577617 354.538038 
L 805.681536 354.787236 
L 805.785385 354.743687 
L 805.889162 354.061764 
L 806.096505 357.363936 
L 806.303565 356.883684 
L 806.40699 357.119926 
L 806.510344 358.165046 
L 806.613628 364.656589 
L 806.716841 364.50197 
L 807.026063 353.170384 
L 807.128997 355.852934 
L 807.334656 353.06487 
L 807.437382 353.095773 
L 807.745142 351.864437 
L 807.94997 353.163045 
L 808.05228 352.805293 
L 808.256695 353.395804 
L 808.358799 352.990366 
L 808.460835 353.677878 
L 808.562802 353.026918 
L 808.766531 356.928708 
L 808.868294 355.891284 
L 809.376087 362.306071 
L 809.57873 362.124488 
L 809.67995 358.944827 
L 809.882188 360.692288 
L 810.28586 359.313802 
L 810.487294 360.124291 
L 810.587911 359.628817 
L 810.688462 360.219903 
L 810.788946 360.168296 
L 810.889364 360.231844 
L 810.989715 360.072944 
L 811.09 359.234599 
L 811.190219 359.322905 
L 811.290373 358.701779 
L 811.39046 359.056497 
L 811.490481 358.345196 
L 811.590436 359.447441 
L 811.690326 359.121433 
L 811.79015 352.948578 
L 812.08923 362.383885 
L 812.188792 362.71865 
L 812.28829 365.1359 
L 812.586391 363.633441 
L 812.784802 364.460475 
L 812.982953 367.039777 
L 813.081932 365.654302 
L 813.180847 365.68803 
L 813.477205 364.48479 
L 813.674456 364.086846 
L 813.772986 364.052466 
L 813.871452 365.017089 
L 813.969854 364.632074 
L 814.068193 364.717278 
L 814.264679 364.248202 
L 814.362827 364.577991 
L 814.460912 364.470808 
L 814.558933 363.971647 
L 814.656891 367.210991 
L 814.754787 366.709815 
L 814.852619 365.284654 
L 814.950388 365.819602 
L 815.048094 363.852388 
L 815.438293 365.477827 
L 815.535686 365.878515 
L 815.827492 365.332183 
L 815.924636 365.644237 
L 816.021718 367.082829 
L 816.118739 367.024427 
L 816.312594 363.95664 
L 816.409428 364.36908 
L 816.506201 363.554285 
L 816.602913 364.195872 
L 816.699563 370.615276 
L 816.796152 368.66063 
L 816.892679 369.197253 
L 816.989145 371.776945 
L 817.08555 371.713932 
L 817.181894 372.165196 
L 817.278176 368.997424 
L 817.374398 370.402937 
L 817.470559 370.259406 
L 817.662698 371.064662 
L 817.758677 371.019224 
L 818.04625 369.551939 
L 818.141987 369.530098 
L 818.33328 370.401499 
L 818.428836 371.178352 
L 818.619768 369.304636 
L 818.715145 367.568885 
L 818.810461 368.223804 
L 819.000915 365.685286 
L 819.096053 363.749159 
L 819.191131 363.894106 
L 819.286149 364.158426 
L 819.381108 364.874949 
L 819.570849 363.569521 
L 819.665631 365.05257 
L 819.760353 364.846829 
L 819.855017 365.670835 
L 819.949621 365.45968 
L 820.044167 364.04841 
L 820.138654 357.395103 
L 820.233082 357.796231 
L 820.327452 357.777754 
L 820.516015 357.38264 
L 820.610209 357.315088 
L 820.798422 358.289074 
L 820.892442 358.068132 
L 820.986403 360.78675 
L 821.080306 359.192856 
L 821.174151 359.256014 
L 821.45534 359.655176 
L 821.548953 361.483014 
L 821.64251 361.419547 
L 821.922834 359.447732 
L 822.109429 362.143969 
L 822.202641 361.71622 
L 822.295796 361.768327 
L 822.388894 359.349105 
L 822.481935 359.645399 
L 822.574919 357.895231 
L 822.667846 360.227935 
L 822.760716 358.511449 
L 822.85353 359.295587 
L 823.131631 358.033074 
L 823.316749 359.949301 
L 823.501643 355.139128 
L 823.778561 361.126056 
L 823.962894 360.476035 
L 824.054977 357.742931 
L 824.147003 357.783546 
L 824.33089 358.907614 
L 824.42275 356.323197 
L 824.514554 356.732039 
L 824.606303 356.856568 
L 824.697997 356.310808 
L 824.789635 363.488547 
L 824.881218 363.350817 
L 825.155637 360.524211 
L 825.247 360.877105 
L 825.338308 360.817359 
L 825.429561 358.862776 
L 825.52076 359.07027 
L 825.702993 360.72071 
L 825.794027 359.83792 
L 825.975933 360.358684 
L 826.066804 360.014781 
L 826.248384 356.816428 
L 826.339092 357.280226 
L 826.429747 358.587908 
L 826.520347 356.508907 
L 826.610894 357.036646 
L 826.701386 356.769215 
L 826.791825 357.731383 
L 826.88221 357.154241 
L 826.972541 359.109476 
L 827.062819 359.024029 
L 827.153043 360.221685 
L 827.243213 359.635497 
L 827.33333 360.402647 
L 827.423393 359.917841 
L 827.513404 360.605348 
L 827.603361 360.584641 
L 827.693264 360.935402 
L 827.783115 360.873156 
L 827.872912 360.976121 
L 828.052348 367.577907 
L 828.500013 365.504542 
L 828.678711 368.101139 
L 828.857199 367.772925 
L 829.035477 371.18772 
L 829.124538 370.327948 
L 829.213546 372.311747 
L 829.391407 370.639348 
L 829.657809 374.472574 
L 829.746506 374.256603 
L 829.835151 374.306449 
L 830.100777 371.070278 
L 830.189216 371.136368 
L 830.365939 372.706148 
L 830.454224 371.107687 
L 830.542458 371.441554 
L 830.718771 374.310497 
L 830.806851 373.239283 
L 830.89488 370.538513 
L 830.982859 371.95513 
L 831.070786 371.558464 
L 831.158662 371.826762 
L 831.246488 370.347927 
L 831.334263 370.573564 
L 831.421987 371.171007 
L 831.509661 366.961906 
L 831.597284 368.027303 
L 831.684856 368.742734 
L 831.85985 366.606824 
L 832.034643 365.886753 
L 832.209235 365.470429 
L 832.296455 365.464017 
L 832.383626 364.785718 
L 832.470747 364.892745 
L 832.557818 365.116603 
L 832.73181 364.571097 
L 832.905603 366.046442 
L 833.079198 367.13481 
L 833.252595 363.546463 
L 833.425794 363.929788 
L 833.598796 364.814032 
L 833.771601 365.491833 
L 833.94421 364.350257 
L 834.116623 361.97188 
L 834.202757 358.347046 
L 834.374877 362.914688 
L 834.460864 363.069579 
L 834.632693 364.066478 
L 834.718534 363.707444 
L 834.804327 365.13655 
L 834.975768 364.196532 
L 835.147015 364.827354 
L 835.31807 368.663979 
L 835.488933 368.17106 
L 835.574292 369.871818 
L 835.659603 369.477217 
L 835.744867 366.637219 
L 835.830083 370.902376 
L 835.915251 369.993917 
L 836.000371 368.295751 
L 836.170468 371.880052 
L 836.255446 372.121108 
L 836.425258 371.456894 
L 836.510094 371.677592 
L 836.594881 371.551986 
L 836.679622 370.748454 
L 836.764315 370.938829 
L 836.848962 371.042593 
L 837.018113 372.427407 
L 837.187076 372.398232 
L 837.271487 372.288338 
L 837.355851 368.969328 
L 837.524439 372.014396 
L 837.608663 371.959637 
L 837.861056 372.145268 
L 838.196928 374.295152 
L 838.28078 374.202661 
L 838.364586 374.991341 
L 838.448346 378.858989 
L 838.53206 378.346181 
L 838.615727 377.464038 
L 838.699349 377.505418 
L 838.866454 377.118532 
L 838.949938 377.461845 
L 839.116768 374.758051 
L 839.200115 374.344652 
L 839.44988 374.744504 
L 839.533044 374.572653 
L 839.616162 375.717266 
L 839.699236 375.601613 
L 839.865246 375.537012 
L 839.948183 378.259104 
L 840.031075 378.216205 
L 840.113921 378.360153 
L 840.196723 379.020882 
L 840.279479 378.310291 
L 840.362191 378.463951 
L 840.444857 378.591086 
L 840.610055 380.132514 
L 840.775074 379.634542 
L 840.857516 380.984099 
L 840.939914 380.925865 
L 841.104575 381.134669 
L 841.515449 377.946772 
L 841.59749 378.133768 
L 841.761441 378.853635 
L 841.84335 378.51158 
L 842.007036 375.642523 
L 842.252234 374.948145 
L 842.333879 372.650165 
L 842.415481 373.456936 
L 842.497038 374.393175 
L 842.578552 374.080308 
L 842.90417 375.398008 
L 843.066718 374.535113 
L 843.229092 377.785534 
L 843.310214 377.534963 
L 843.391293 373.488704 
L 843.472328 374.039749 
L 843.553321 373.967509 
L 843.63427 374.114798 
L 843.796039 373.985302 
L 843.876859 374.089351 
L 843.957636 374.576178 
L 844.038371 374.459233 
L 844.119062 373.899883 
L 844.280316 375.588548 
L 844.602313 372.596622 
L 844.763055 370.340663 
L 845.003851 370.636816 
L 845.16417 370.592589 
L 845.484301 373.109053 
L 845.644114 377.39325 
L 845.803759 376.828851 
L 845.883519 377.154198 
L 846.042913 379.819307 
L 846.122548 379.658556 
L 846.281691 376.270631 
L 846.361201 377.932611 
L 846.520095 376.544594 
L 846.59948 376.394815 
L 846.916605 377.142024 
L 847.07492 378.180834 
L 847.23307 378.569182 
L 847.312083 378.426701 
L 847.469987 382.047693 
L 847.548877 382.116081 
L 847.627727 379.796844 
L 847.706535 379.92768 
L 847.86403 379.728912 
L 847.942716 380.102599 
L 848.021361 379.166507 
L 848.099966 379.769285 
L 848.17853 379.679467 
L 848.257053 379.586903 
L 848.413979 381.86501 
L 848.492381 381.410829 
L 848.727344 385.588909 
L 848.883785 383.065721 
L 848.961945 382.96305 
L 849.196184 381.142934 
L 849.274184 380.767754 
L 849.352144 379.254884 
L 849.352144 379.254884 
" clip-path="url(#pb297901096)" style="fill: none; stroke: #000000; stroke-width: 2; stroke-linecap: square"/>
   </g>
   <g id="patch_3">
    <path d="M 47.95 403.436 
L 47.95 10.8 
" style="fill: none; stroke: #000000; stroke-width: 0.8; stroke-linejoin: miter; stroke-linecap: square"/>
   </g>
   <g id="patch_4">
    <path d="M 853.2 403.436 
L 853.2 10.8 
" style="fill: none; stroke: #000000; stroke-width: 0.8; stroke-linejoin: miter; stroke-linecap: square"/>
   </g>
   <g id="patch_5">
    <path d="M 47.95 403.436 
L 853.2 403.436 
" style="fill: none; stroke: #000000; stroke-width: 0.8; stroke-linejoin: miter; stroke-linecap: square"/>
   </g>
   <g id="patch_6">
    <path d="M 47.95 10.8 
L 853.2 10.8 
" style="fill: none; stroke: #000000; stroke-width: 0.8; stroke-linejoin: miter; stroke-linecap: square"/>
   </g>
  </g>
 </g>
 <defs>
  <clipPath id="pb297901096">
   <rect x="47.95" y="10.8" width="805.25" height="392.636"/>
  </clipPath>
 </defs>
</svg>
