<?xml version="1.0" encoding="utf-8" standalone="no"?>
<!DOCTYPE svg PUBLIC "-//W3C//DTD SVG 1.1//EN"
  "http://www.w3.org/Graphics/SVG/1.1/DTD/svg11.dtd">
<svg xmlns:xlink="http://www.w3.org/1999/xlink" width="864pt" height="432pt" viewBox="0 0 864 432" xmlns="http://www.w3.org/2000/svg" version="1.1">
 <metadata>
  <rdf:RDF xmlns:dc="http://purl.org/dc/elements/1.1/" xmlns:cc="http://creativecommons.org/ns#" xmlns:rdf="http://www.w3.org/1999/02/22-rdf-syntax-ns#">
   <cc:Work>
    <dc:type rdf:resource="http://purl.org/dc/dcmitype/StillImage"/>
    <dc:date>2024-09-18T12:57:17.704108</dc:date>
    <dc:format>image/svg+xml</dc:format>
    <dc:creator>
     <cc:Agent>
      <dc:title>Matplotlib v3.9.2, https://matplotlib.org/</dc:title>
     </cc:Agent>
    </dc:creator>
   </cc:Work>
  </rdf:RDF>
 </metadata>
 <defs>
  <style type="text/css">*{stroke-linejoin: round; stroke-linecap: butt}</style>
 </defs>
 <g id="figure_1">
  <g id="patch_1">
   <path d="M 0 432 
L 864 432 
L 864 0 
L 0 0 
z
" style="fill: #ffffff"/>
  </g>
  <g id="axes_1">
   <g id="patch_2">
    <path d="M 35.89 404.12 
L 853.2 404.12 
L 853.2 10.8 
L 35.89 10.8 
z
" style="fill: #ffffff"/>
   </g>
   <g id="matplotlib.axis_1">
    <g id="xtick_1">
     <g id="line2d_1">
      <defs>
       <path id="mc8b3588b74" d="M 0 0 
L 0 3.5 
" style="stroke: #000000; stroke-width: 0.8"/>
      </defs>
      <g>
       <use xlink:href="#mc8b3588b74" x="134.90787" y="404.12" style="stroke: #000000; stroke-width: 0.8"/>
      </g>
     </g>
     <g id="text_1">
      <!-- 250 -->
      <g transform="translate(125.877401 418.771563) scale(0.1 -0.1)">
       <defs>
        <path id="DejaVuSansMono-32" d="M 1166 531 
L 3309 531 
L 3309 0 
L 475 0 
L 475 531 
Q 1059 1147 1496 1619 
Q 1934 2091 2100 2284 
Q 2413 2666 2522 2902 
Q 2631 3138 2631 3384 
Q 2631 3775 2401 3997 
Q 2172 4219 1772 4219 
Q 1488 4219 1175 4116 
Q 863 4013 513 3803 
L 513 4441 
Q 834 4594 1145 4672 
Q 1456 4750 1759 4750 
Q 2444 4750 2861 4386 
Q 3278 4022 3278 3431 
Q 3278 3131 3139 2831 
Q 3000 2531 2688 2169 
Q 2513 1966 2180 1606 
Q 1847 1247 1166 531 
z
" transform="scale(0.015625)"/>
        <path id="DejaVuSansMono-35" d="M 647 4666 
L 3009 4666 
L 3009 4134 
L 1222 4134 
L 1222 2988 
Q 1356 3038 1492 3061 
Q 1628 3084 1766 3084 
Q 2491 3084 2916 2656 
Q 3341 2228 3341 1497 
Q 3341 759 2895 334 
Q 2450 -91 1678 -91 
Q 1306 -91 998 -41 
Q 691 9 447 109 
L 447 750 
Q 734 594 1025 517 
Q 1316 441 1619 441 
Q 2141 441 2423 716 
Q 2706 991 2706 1497 
Q 2706 1997 2414 2275 
Q 2122 2553 1600 2553 
Q 1347 2553 1106 2495 
Q 866 2438 647 2322 
L 647 4666 
z
" transform="scale(0.015625)"/>
        <path id="DejaVuSansMono-30" d="M 1509 2344 
Q 1509 2516 1629 2641 
Q 1750 2766 1919 2766 
Q 2094 2766 2219 2641 
Q 2344 2516 2344 2344 
Q 2344 2169 2220 2047 
Q 2097 1925 1919 1925 
Q 1744 1925 1626 2044 
Q 1509 2163 1509 2344 
z
M 1925 4250 
Q 1484 4250 1267 3775 
Q 1050 3300 1050 2328 
Q 1050 1359 1267 884 
Q 1484 409 1925 409 
Q 2369 409 2586 884 
Q 2803 1359 2803 2328 
Q 2803 3300 2586 3775 
Q 2369 4250 1925 4250 
z
M 1925 4750 
Q 2672 4750 3055 4137 
Q 3438 3525 3438 2328 
Q 3438 1134 3055 521 
Q 2672 -91 1925 -91 
Q 1178 -91 797 521 
Q 416 1134 416 2328 
Q 416 3525 797 4137 
Q 1178 4750 1925 4750 
z
" transform="scale(0.015625)"/>
       </defs>
       <use xlink:href="#DejaVuSansMono-32"/>
       <use xlink:href="#DejaVuSansMono-35" x="60.205078"/>
       <use xlink:href="#DejaVuSansMono-30" x="120.410156"/>
      </g>
     </g>
    </g>
    <g id="xtick_2">
     <g id="line2d_2">
      <g>
       <use xlink:href="#mc8b3588b74" x="238.051484" y="404.12" style="stroke: #000000; stroke-width: 0.8"/>
      </g>
     </g>
     <g id="text_2">
      <!-- 500 -->
      <g transform="translate(229.021015 418.771563) scale(0.1 -0.1)">
       <use xlink:href="#DejaVuSansMono-35"/>
       <use xlink:href="#DejaVuSansMono-30" x="60.205078"/>
       <use xlink:href="#DejaVuSansMono-30" x="120.410156"/>
      </g>
     </g>
    </g>
    <g id="xtick_3">
     <g id="line2d_3">
      <g>
       <use xlink:href="#mc8b3588b74" x="341.195098" y="404.12" style="stroke: #000000; stroke-width: 0.8"/>
      </g>
     </g>
     <g id="text_3">
      <!-- 750 -->
      <g transform="translate(332.16463 418.771563) scale(0.1 -0.1)">
       <defs>
        <path id="DejaVuSansMono-37" d="M 434 4666 
L 3372 4666 
L 3372 4397 
L 1703 0 
L 1044 0 
L 2669 4134 
L 434 4134 
L 434 4666 
z
" transform="scale(0.015625)"/>
       </defs>
       <use xlink:href="#DejaVuSansMono-37"/>
       <use xlink:href="#DejaVuSansMono-35" x="60.205078"/>
       <use xlink:href="#DejaVuSansMono-30" x="120.410156"/>
      </g>
     </g>
    </g>
    <g id="xtick_4">
     <g id="line2d_4">
      <g>
       <use xlink:href="#mc8b3588b74" x="444.338713" y="404.12" style="stroke: #000000; stroke-width: 0.8"/>
      </g>
     </g>
     <g id="text_4">
      <!-- 1000 -->
      <g transform="translate(432.298088 418.771563) scale(0.1 -0.1)">
       <defs>
        <path id="DejaVuSansMono-31" d="M 844 531 
L 1825 531 
L 1825 4097 
L 769 3859 
L 769 4434 
L 1819 4666 
L 2450 4666 
L 2450 531 
L 3419 531 
L 3419 0 
L 844 0 
L 844 531 
z
" transform="scale(0.015625)"/>
       </defs>
       <use xlink:href="#DejaVuSansMono-31"/>
       <use xlink:href="#DejaVuSansMono-30" x="60.205078"/>
       <use xlink:href="#DejaVuSansMono-30" x="120.410156"/>
       <use xlink:href="#DejaVuSansMono-30" x="180.615234"/>
      </g>
     </g>
    </g>
    <g id="xtick_5">
     <g id="line2d_5">
      <g>
       <use xlink:href="#mc8b3588b74" x="547.482327" y="404.12" style="stroke: #000000; stroke-width: 0.8"/>
      </g>
     </g>
     <g id="text_5">
      <!-- 1250 -->
      <g transform="translate(535.441702 418.771563) scale(0.1 -0.1)">
       <use xlink:href="#DejaVuSansMono-31"/>
       <use xlink:href="#DejaVuSansMono-32" x="60.205078"/>
       <use xlink:href="#DejaVuSansMono-35" x="120.410156"/>
       <use xlink:href="#DejaVuSansMono-30" x="180.615234"/>
      </g>
     </g>
    </g>
    <g id="xtick_6">
     <g id="line2d_6">
      <g>
       <use xlink:href="#mc8b3588b74" x="650.625941" y="404.12" style="stroke: #000000; stroke-width: 0.8"/>
      </g>
     </g>
     <g id="text_6">
      <!-- 1500 -->
      <g transform="translate(638.585316 418.771563) scale(0.1 -0.1)">
       <use xlink:href="#DejaVuSansMono-31"/>
       <use xlink:href="#DejaVuSansMono-35" x="60.205078"/>
       <use xlink:href="#DejaVuSansMono-30" x="120.410156"/>
       <use xlink:href="#DejaVuSansMono-30" x="180.615234"/>
      </g>
     </g>
    </g>
    <g id="xtick_7">
     <g id="line2d_7">
      <g>
       <use xlink:href="#mc8b3588b74" x="753.769556" y="404.12" style="stroke: #000000; stroke-width: 0.8"/>
      </g>
     </g>
     <g id="text_7">
      <!-- 1750 -->
      <g transform="translate(741.728931 418.771563) scale(0.1 -0.1)">
       <use xlink:href="#DejaVuSansMono-31"/>
       <use xlink:href="#DejaVuSansMono-37" x="60.205078"/>
       <use xlink:href="#DejaVuSansMono-35" x="120.410156"/>
       <use xlink:href="#DejaVuSansMono-30" x="180.615234"/>
      </g>
     </g>
    </g>
   </g>
   <g id="matplotlib.axis_2">
    <g id="ytick_1">
     <g id="line2d_8">
      <defs>
       <path id="m64d5bc9c8c" d="M 0 0 
L -3.5 0 
" style="stroke: #000000; stroke-width: 0.8"/>
      </defs>
      <g>
       <use xlink:href="#m64d5bc9c8c" x="35.89" y="386.241818" style="stroke: #000000; stroke-width: 0.8"/>
      </g>
     </g>
     <g id="text_8">
      <!-- 0.0 -->
      <g transform="translate(10.829063 390.067599) scale(0.1 -0.1)">
       <defs>
        <path id="DejaVuSansMono-2e" d="M 1528 953 
L 2316 953 
L 2316 0 
L 1528 0 
L 1528 953 
z
" transform="scale(0.015625)"/>
       </defs>
       <use xlink:href="#DejaVuSansMono-30"/>
       <use xlink:href="#DejaVuSansMono-2e" x="60.205078"/>
       <use xlink:href="#DejaVuSansMono-30" x="120.410156"/>
      </g>
     </g>
    </g>
    <g id="ytick_2">
     <g id="line2d_9">
      <g>
       <use xlink:href="#m64d5bc9c8c" x="35.89" y="314.525276" style="stroke: #000000; stroke-width: 0.8"/>
      </g>
     </g>
     <g id="text_9">
      <!-- 0.2 -->
      <g transform="translate(10.829063 318.351057) scale(0.1 -0.1)">
       <use xlink:href="#DejaVuSansMono-30"/>
       <use xlink:href="#DejaVuSansMono-2e" x="60.205078"/>
       <use xlink:href="#DejaVuSansMono-32" x="120.410156"/>
      </g>
     </g>
    </g>
    <g id="ytick_3">
     <g id="line2d_10">
      <g>
       <use xlink:href="#m64d5bc9c8c" x="35.89" y="242.808734" style="stroke: #000000; stroke-width: 0.8"/>
      </g>
     </g>
     <g id="text_10">
      <!-- 0.4 -->
      <g transform="translate(10.829063 246.634515) scale(0.1 -0.1)">
       <defs>
        <path id="DejaVuSansMono-34" d="M 2297 4091 
L 825 1625 
L 2297 1625 
L 2297 4091 
z
M 2194 4666 
L 2925 4666 
L 2925 1625 
L 3547 1625 
L 3547 1113 
L 2925 1113 
L 2925 0 
L 2297 0 
L 2297 1113 
L 319 1113 
L 319 1709 
L 2194 4666 
z
" transform="scale(0.015625)"/>
       </defs>
       <use xlink:href="#DejaVuSansMono-30"/>
       <use xlink:href="#DejaVuSansMono-2e" x="60.205078"/>
       <use xlink:href="#DejaVuSansMono-34" x="120.410156"/>
      </g>
     </g>
    </g>
    <g id="ytick_4">
     <g id="line2d_11">
      <g>
       <use xlink:href="#m64d5bc9c8c" x="35.89" y="171.092192" style="stroke: #000000; stroke-width: 0.8"/>
      </g>
     </g>
     <g id="text_11">
      <!-- 0.6 -->
      <g transform="translate(10.829063 174.917973) scale(0.1 -0.1)">
       <defs>
        <path id="DejaVuSansMono-36" d="M 3097 4563 
L 3097 3981 
Q 2900 4097 2678 4158 
Q 2456 4219 2216 4219 
Q 1616 4219 1306 3767 
Q 997 3316 997 2438 
Q 1147 2750 1412 2917 
Q 1678 3084 2022 3084 
Q 2697 3084 3067 2670 
Q 3438 2256 3438 1497 
Q 3438 741 3056 325 
Q 2675 -91 1984 -91 
Q 1172 -91 794 492 
Q 416 1075 416 2328 
Q 416 3509 870 4129 
Q 1325 4750 2188 4750 
Q 2419 4750 2650 4701 
Q 2881 4653 3097 4563 
z
M 1972 2591 
Q 1569 2591 1337 2300 
Q 1106 2009 1106 1497 
Q 1106 984 1337 693 
Q 1569 403 1972 403 
Q 2391 403 2603 679 
Q 2816 956 2816 1497 
Q 2816 2041 2603 2316 
Q 2391 2591 1972 2591 
z
" transform="scale(0.015625)"/>
       </defs>
       <use xlink:href="#DejaVuSansMono-30"/>
       <use xlink:href="#DejaVuSansMono-2e" x="60.205078"/>
       <use xlink:href="#DejaVuSansMono-36" x="120.410156"/>
      </g>
     </g>
    </g>
    <g id="ytick_5">
     <g id="line2d_12">
      <g>
       <use xlink:href="#m64d5bc9c8c" x="35.89" y="99.37565" style="stroke: #000000; stroke-width: 0.8"/>
      </g>
     </g>
     <g id="text_12">
      <!-- 0.8 -->
      <g transform="translate(10.829063 103.201431) scale(0.1 -0.1)">
       <defs>
        <path id="DejaVuSansMono-38" d="M 1925 2216 
Q 1503 2216 1273 1980 
Q 1044 1744 1044 1313 
Q 1044 881 1276 642 
Q 1509 403 1925 403 
Q 2350 403 2579 639 
Q 2809 875 2809 1313 
Q 2809 1741 2576 1978 
Q 2344 2216 1925 2216 
z
M 1375 2478 
Q 972 2581 745 2862 
Q 519 3144 519 3541 
Q 519 4097 897 4423 
Q 1275 4750 1925 4750 
Q 2578 4750 2956 4423 
Q 3334 4097 3334 3541 
Q 3334 3144 3107 2862 
Q 2881 2581 2478 2478 
Q 2947 2375 3195 2062 
Q 3444 1750 3444 1253 
Q 3444 622 3041 265 
Q 2638 -91 1925 -91 
Q 1213 -91 811 264 
Q 409 619 409 1247 
Q 409 1747 657 2061 
Q 906 2375 1375 2478 
z
M 1147 3481 
Q 1147 3106 1347 2909 
Q 1547 2713 1925 2713 
Q 2306 2713 2506 2909 
Q 2706 3106 2706 3481 
Q 2706 3863 2507 4063 
Q 2309 4263 1925 4263 
Q 1547 4263 1347 4061 
Q 1147 3859 1147 3481 
z
" transform="scale(0.015625)"/>
       </defs>
       <use xlink:href="#DejaVuSansMono-30"/>
       <use xlink:href="#DejaVuSansMono-2e" x="60.205078"/>
       <use xlink:href="#DejaVuSansMono-38" x="120.410156"/>
      </g>
     </g>
    </g>
    <g id="ytick_6">
     <g id="line2d_13">
      <g>
       <use xlink:href="#m64d5bc9c8c" x="35.89" y="27.659108" style="stroke: #000000; stroke-width: 0.8"/>
      </g>
     </g>
     <g id="text_13">
      <!-- 1.0 -->
      <g transform="translate(10.829063 31.484889) scale(0.1 -0.1)">
       <use xlink:href="#DejaVuSansMono-31"/>
       <use xlink:href="#DejaVuSansMono-2e" x="60.205078"/>
       <use xlink:href="#DejaVuSansMono-30" x="120.410156"/>
      </g>
     </g>
    </g>
   </g>
   <g id="line2d_14">
    <path d="M 35.477426 379.293503 
L 36.302574 379.293503 
L 36.715149 378.32436 
L 37.540298 378.32436 
L 37.952872 367.633107 
L 38.365447 367.633107 
L 38.778021 357.163539 
L 39.190596 357.163539 
L 39.60317 364.111854 
L 40.428319 364.111854 
L 40.840893 365.080997 
L 41.253468 354.611428 
L 41.666042 354.611428 
L 42.078617 365.302681 
L 42.491191 365.302681 
L 42.903766 375.772249 
L 44.966638 375.772249 
L 45.379213 386.241818 
L 45.791787 375.772249 
L 49.504957 375.772249 
L 49.917532 386.241818 
L 53.630702 386.241818 
L 54.043276 384.844743 
L 57.756446 384.844743 
L 58.169021 386.241818 
L 62.294765 386.241818 
L 62.70734 376.211533 
L 66.42051 376.211533 
L 66.833084 386.241818 
L 76.734871 386.241818 
L 77.147446 383.089443 
L 80.860616 383.089443 
L 81.27319 386.241818 
L 170.801848 386.241818 
L 171.214422 384.797861 
L 173.277294 384.797861 
L 173.689869 383.815443 
L 176.165315 383.815443 
L 176.57789 382.371485 
L 176.990464 382.371485 
L 177.403039 375.199831 
L 177.815613 375.684218 
L 178.228188 375.684218 
L 179.053337 368.066839 
L 179.465911 365.292176 
L 180.29106 365.292176 
L 180.703635 363.977804 
L 181.116209 356.315781 
L 181.528783 360.190123 
L 182.353932 355.58357 
L 182.766507 354.896844 
L 183.179081 353.530665 
L 183.591656 357.749285 
L 184.00423 349.857034 
L 184.416805 349.857034 
L 184.829379 346.020738 
L 185.241954 352.219159 
L 185.654528 354.062757 
L 186.067102 351.256157 
L 186.479677 350.808491 
L 186.892251 347.574023 
L 187.304826 349.772457 
L 187.7174 345.788205 
L 188.129975 349.386052 
L 188.542549 349.386052 
L 188.955124 355.472049 
L 189.367698 355.010376 
L 189.780273 351.248341 
L 190.192847 349.425553 
L 190.605422 343.569131 
L 191.017996 345.38712 
L 192.255719 329.56461 
L 192.668294 326.657182 
L 193.080868 320.719379 
L 193.493443 317.683134 
L 193.906017 313.572517 
L 194.318592 314.759832 
L 194.731166 321.898283 
L 195.143741 321.384504 
L 195.556315 326.307468 
L 195.968889 328.380547 
L 196.381464 332.167651 
L 196.794038 325.583184 
L 197.619187 319.12976 
L 198.031762 320.018885 
L 198.444336 317.455465 
L 198.856911 308.968391 
L 199.68206 299.529841 
L 200.507208 296.667132 
L 200.919783 302.334145 
L 201.744932 298.390185 
L 202.157506 299.697712 
L 202.570081 297.565942 
L 202.982655 297.66779 
L 203.39523 297.307886 
L 203.807804 296.437652 
L 204.220379 298.563559 
L 204.632953 294.586249 
L 205.045528 287.618835 
L 205.458102 289.674061 
L 205.870676 289.172125 
L 206.283251 286.371858 
L 206.695825 286.156817 
L 207.520974 284.321635 
L 207.933549 282.585181 
L 208.346123 278.970213 
L 208.758698 280.713194 
L 209.171272 279.654027 
L 209.583847 277.470351 
L 209.996421 276.57521 
L 210.408995 274.893943 
L 210.82157 272.717491 
L 211.234144 273.104189 
L 212.059293 269.931244 
L 212.471868 266.572334 
L 212.884442 264.415856 
L 213.297017 265.31553 
L 213.709591 265.233775 
L 214.122166 266.797688 
L 214.53474 266.779228 
L 214.947314 267.597745 
L 215.359889 265.791582 
L 216.597612 264.739504 
L 217.010187 265.511077 
L 217.422761 262.645915 
L 218.24791 258.605089 
L 218.660485 257.829775 
L 219.485634 255.54784 
L 220.310782 256.112555 
L 220.723357 254.144794 
L 221.135931 250.966719 
L 221.548506 250.637746 
L 222.373655 248.853752 
L 222.786229 247.274051 
L 223.611378 246.111225 
L 224.436527 243.557597 
L 224.849101 243.773296 
L 225.261676 245.052969 
L 226.086825 245.610807 
L 226.499399 244.598764 
L 226.911974 245.181913 
L 227.324548 244.631227 
L 227.737123 243.334534 
L 228.149697 244.246177 
L 228.562272 243.763352 
L 228.974846 243.892445 
L 229.799995 242.62922 
L 230.212569 241.604145 
L 230.625144 241.891779 
L 231.037718 241.22456 
L 231.450293 241.572589 
L 231.862867 241.397942 
L 232.275442 241.037336 
L 232.688016 241.181462 
L 233.100591 240.947004 
L 233.513165 239.930258 
L 233.92574 239.30573 
L 234.338314 239.349911 
L 234.750888 238.23613 
L 235.576037 237.379607 
L 235.988612 239.713341 
L 236.401186 239.861976 
L 236.813761 239.327426 
L 237.226335 239.251746 
L 237.63891 238.78767 
L 238.051484 239.760785 
L 238.876633 240.452393 
L 239.289207 239.787747 
L 239.701782 239.827014 
L 240.114356 236.828979 
L 240.526931 235.473145 
L 240.939505 235.863569 
L 241.764654 235.636299 
L 242.589803 233.273325 
L 243.002378 232.333591 
L 243.414952 231.868755 
L 243.827527 230.648356 
L 244.240101 231.429158 
L 244.652675 231.440306 
L 245.06525 229.803447 
L 245.477824 229.374291 
L 245.890399 227.835741 
L 246.302973 226.955583 
L 246.715548 226.418559 
L 247.128122 224.477994 
L 247.540697 223.991961 
L 247.953271 223.94047 
L 248.365846 223.308262 
L 248.77842 221.135815 
L 249.603569 219.513846 
L 250.016143 219.950363 
L 250.428718 219.237747 
L 250.841292 219.490893 
L 251.253867 220.383294 
L 251.666441 220.207288 
L 252.49159 218.626569 
L 252.904165 220.021479 
L 253.316739 219.714643 
L 253.729313 219.787822 
L 254.141888 218.817071 
L 254.554462 218.787347 
L 254.967037 218.631554 
L 255.379611 218.158895 
L 255.792186 216.600683 
L 256.20476 216.383839 
L 256.617335 214.704205 
L 257.029909 213.516433 
L 257.442484 214.000235 
L 258.267633 214.245128 
L 258.680207 214.433296 
L 259.092781 213.465075 
L 259.505356 213.346664 
L 260.330505 210.895559 
L 260.743079 211.517399 
L 261.155654 210.245505 
L 261.568228 209.553325 
L 263.6311 200.211287 
L 264.043675 201.498067 
L 264.456249 199.985905 
L 265.281398 198.686091 
L 265.693973 197.106914 
L 266.106547 196.441075 
L 266.519122 196.835673 
L 267.344271 195.842623 
L 267.756845 197.130795 
L 268.169419 196.573989 
L 268.581994 199.097275 
L 268.994568 198.432008 
L 269.407143 198.738346 
L 269.819717 197.549445 
L 270.232292 197.519401 
L 271.057441 196.238535 
L 271.470015 196.141035 
L 271.88259 195.689557 
L 272.295164 194.270499 
L 272.707739 190.758171 
L 273.120313 190.366529 
L 273.532887 190.628998 
L 273.945462 191.612806 
L 274.358036 189.633661 
L 274.770611 187.068258 
L 275.183185 186.626147 
L 275.59576 185.334614 
L 276.008334 183.461057 
L 276.420909 182.350221 
L 276.833483 182.938984 
L 277.246058 183.266612 
L 277.658632 180.868067 
L 278.071206 180.990185 
L 278.483781 183.340916 
L 278.896355 183.50142 
L 279.30893 181.846842 
L 279.721504 181.525244 
L 280.134079 180.688432 
L 281.371802 177.570596 
L 281.784377 177.962526 
L 282.196951 174.326835 
L 282.609525 171.775484 
L 283.0221 171.903918 
L 283.434674 171.7322 
L 283.847249 172.591857 
L 284.259823 170.057954 
L 284.672398 170.025757 
L 285.084972 167.664827 
L 285.910121 165.708742 
L 286.322696 165.682544 
L 287.147845 163.041433 
L 287.560419 162.271006 
L 287.972993 160.088235 
L 288.385568 161.507622 
L 288.798142 160.523951 
L 289.210717 161.182559 
L 289.623291 158.413905 
L 290.035866 158.815952 
L 290.44844 158.966469 
L 290.861015 158.05055 
L 291.273589 157.625354 
L 291.686164 157.408587 
L 292.098738 156.624946 
L 292.511312 155.027182 
L 292.923887 155.419029 
L 293.336461 154.730522 
L 293.749036 155.974871 
L 294.574185 154.597138 
L 294.986759 153.16968 
L 296.224483 151.617901 
L 296.637057 152.125858 
L 297.462206 149.337729 
L 297.87478 149.1915 
L 298.287355 145.708826 
L 298.699929 145.711536 
L 299.112504 149.62096 
L 300.762802 146.977072 
L 301.175376 148.09389 
L 301.587951 147.377258 
L 302.000525 146.271129 
L 302.413099 146.149949 
L 302.825674 144.162986 
L 303.238248 141.193441 
L 303.650823 143.845307 
L 304.063397 142.57238 
L 304.475972 143.477361 
L 304.888546 143.235891 
L 305.301121 144.028155 
L 305.713695 144.31696 
L 306.12627 143.382646 
L 306.538844 147.867901 
L 306.951418 148.067992 
L 307.363993 149.263977 
L 307.776567 146.25337 
L 308.601716 147.010051 
L 309.014291 146.81046 
L 309.426865 145.268117 
L 309.83944 147.464779 
L 310.252014 147.796628 
L 310.664589 143.183721 
L 311.902312 141.341463 
L 312.314886 140.34817 
L 312.727461 139.659414 
L 313.140035 137.719446 
L 313.55261 137.462585 
L 313.965184 133.729036 
L 314.377759 132.722489 
L 314.790333 133.973943 
L 315.202908 134.219291 
L 315.615482 131.944003 
L 316.028057 133.21786 
L 316.440631 133.927207 
L 317.26578 132.027722 
L 317.678354 131.3243 
L 318.090929 133.003286 
L 318.503503 133.461267 
L 318.916078 131.697087 
L 319.328652 132.501986 
L 319.741227 130.871932 
L 320.153801 128.427255 
L 320.566376 131.956386 
L 320.97895 132.175201 
L 321.391524 132.211014 
L 321.804099 132.830394 
L 322.216673 132.063287 
L 322.629248 130.716305 
L 323.454397 131.315122 
L 323.866971 132.487256 
L 324.279546 133.006939 
L 324.69212 127.450485 
L 325.104695 125.757796 
L 325.517269 127.271812 
L 325.929844 125.935269 
L 326.342418 126.426739 
L 326.754992 126.321946 
L 327.167567 125.776118 
L 327.580141 123.929995 
L 327.992716 124.847587 
L 328.40529 124.548907 
L 328.817865 125.704133 
L 329.230439 128.50133 
L 330.055588 124.674742 
L 330.468163 126.010447 
L 330.880737 124.254534 
L 331.293311 124.569192 
L 331.705886 125.100626 
L 332.11846 123.263589 
L 332.531035 122.726676 
L 332.943609 121.873096 
L 333.356184 119.042033 
L 333.768758 121.849441 
L 334.181333 122.398995 
L 334.593907 119.204208 
L 335.006482 119.18493 
L 335.83163 117.253684 
L 336.244205 117.714003 
L 336.656779 116.674618 
L 337.069354 119.221777 
L 337.481928 118.714019 
L 337.894503 115.528423 
L 338.307077 114.776084 
L 338.719652 113.570931 
L 339.132226 113.650121 
L 339.544801 114.541565 
L 340.36995 111.328624 
L 340.782524 112.796283 
L 341.195098 109.771228 
L 341.607673 107.635631 
L 342.020247 108.503569 
L 342.432822 108.144283 
L 342.845396 108.234478 
L 343.257971 108.157069 
L 343.670545 107.096172 
L 344.08312 107.048574 
L 344.495694 108.093524 
L 344.908269 106.660139 
L 345.320843 105.675673 
L 345.733417 107.802404 
L 346.145992 107.327032 
L 346.558566 106.448784 
L 346.971141 108.565551 
L 347.383715 108.513234 
L 347.79629 109.828252 
L 348.208864 109.03861 
L 348.621439 106.446067 
L 349.034013 108.597656 
L 349.446588 110.005335 
L 349.859162 109.130402 
L 350.271736 107.36831 
L 350.684311 109.636776 
L 351.096885 106.244418 
L 351.50946 105.328307 
L 351.922034 103.797655 
L 352.334609 106.915079 
L 352.747183 107.040858 
L 353.159758 103.775194 
L 353.572332 102.162178 
L 353.984907 104.373861 
L 354.397481 104.415509 
L 354.810056 103.136041 
L 355.635204 105.80628 
L 356.047779 104.628818 
L 356.460353 101.990256 
L 357.698077 106.536681 
L 358.110651 103.759215 
L 358.523226 103.229701 
L 358.9358 105.266425 
L 359.348375 104.017337 
L 359.760949 101.896736 
L 360.173523 102.758326 
L 360.586098 102.380743 
L 360.998672 101.280641 
L 361.823821 98.282573 
L 362.236396 101.275122 
L 362.64897 100.81584 
L 363.474119 99.213318 
L 363.886694 99.456994 
L 364.299268 97.842021 
L 364.711843 97.936712 
L 365.124417 96.688437 
L 365.949566 96.561713 
L 366.36214 92.810339 
L 366.774715 93.055846 
L 367.187289 90.49233 
L 367.599864 91.386489 
L 368.012438 90.80683 
L 368.425013 91.849979 
L 368.837587 92.108037 
L 369.250162 95.070216 
L 369.662736 93.645434 
L 370.07531 93.456675 
L 370.487885 94.768014 
L 370.900459 93.762119 
L 371.725608 94.645582 
L 372.138183 94.896942 
L 372.550757 98.473257 
L 372.963332 98.146531 
L 373.375906 95.426837 
L 374.201055 93.773947 
L 374.613629 92.480582 
L 375.026204 94.035029 
L 375.438778 94.129052 
L 375.851353 91.763593 
L 376.263927 92.350172 
L 376.676502 87.050635 
L 377.089076 85.689352 
L 377.501651 86.109107 
L 377.914225 87.351725 
L 378.3268 86.379168 
L 378.739374 86.838065 
L 379.151949 86.023768 
L 379.564523 84.495867 
L 379.977097 85.946587 
L 380.389672 86.083801 
L 380.802246 86.400817 
L 381.214821 86.131461 
L 381.627395 84.551478 
L 382.03997 85.407038 
L 382.452544 85.902507 
L 382.865119 83.538356 
L 383.690268 83.793849 
L 384.515416 80.507139 
L 384.927991 80.649375 
L 385.340565 81.203587 
L 385.75314 84.563622 
L 386.165714 85.553951 
L 386.578289 86.918022 
L 386.990863 87.011799 
L 387.403438 86.496415 
L 387.816012 89.023624 
L 388.228587 89.767997 
L 388.641161 92.626561 
L 389.053735 92.296831 
L 389.46631 92.319647 
L 389.878884 88.585437 
L 390.291459 86.045323 
L 390.704033 85.053044 
L 391.116608 84.508246 
L 391.529182 87.307442 
L 391.941757 83.434615 
L 392.354331 83.36964 
L 392.766906 82.244577 
L 393.17948 79.784736 
L 393.592055 79.514602 
L 394.004629 80.414576 
L 394.417203 80.593724 
L 394.829778 79.89456 
L 395.242352 80.450378 
L 395.654927 77.082382 
L 396.067501 77.447872 
L 396.480076 78.009564 
L 396.89265 76.924647 
L 397.305225 77.84518 
L 397.717799 77.950447 
L 398.130374 76.541364 
L 398.955522 75.376937 
L 399.368097 74.066705 
L 399.780671 74.579288 
L 400.193246 77.918469 
L 400.60582 75.740767 
L 401.018395 75.666779 
L 401.430969 75.312204 
L 402.668693 76.809068 
L 403.081267 75.707542 
L 403.493841 77.344731 
L 403.906416 76.731438 
L 404.31899 74.420333 
L 404.731565 75.627876 
L 405.144139 74.480873 
L 405.556714 74.584648 
L 405.969288 73.717196 
L 406.381863 73.901251 
L 406.794437 73.26546 
L 407.207012 75.03509 
L 407.619586 74.728611 
L 408.032161 74.062505 
L 408.444735 74.648201 
L 408.857309 74.365925 
L 409.269884 74.786809 
L 409.682458 76.782556 
L 410.095033 76.013861 
L 410.507607 77.871734 
L 410.920182 76.817465 
L 411.332756 77.913495 
L 411.745331 77.636755 
L 412.157905 79.02055 
L 412.57048 76.980731 
L 412.983054 78.39707 
L 413.395628 77.342348 
L 413.808203 75.850672 
L 414.220777 76.57975 
L 414.633352 73.774711 
L 415.045926 74.192322 
L 415.458501 72.266635 
L 415.871075 71.407309 
L 416.28365 70.040681 
L 416.696224 71.986328 
L 417.108799 68.891303 
L 417.521373 70.73572 
L 417.933948 71.201697 
L 418.346522 69.549093 
L 418.759096 70.787599 
L 419.171671 71.044708 
L 419.99682 70.324376 
L 420.409394 69.671457 
L 420.821969 67.460932 
L 421.234543 70.500848 
L 421.647118 69.298452 
L 422.059692 68.663634 
L 422.472267 69.122063 
L 422.884841 70.168431 
L 423.297415 69.148378 
L 424.122564 71.053226 
L 424.535139 72.435178 
L 424.947713 72.930091 
L 425.360288 71.080994 
L 425.772862 71.622646 
L 426.185437 71.966761 
L 426.598011 71.954268 
L 427.010586 69.363204 
L 427.42316 71.501449 
L 427.835734 69.84742 
L 428.660883 70.410452 
L 429.073458 68.94784 
L 429.486032 69.03423 
L 429.898607 69.466405 
L 430.311181 68.349296 
L 430.723756 69.019081 
L 431.13633 70.566421 
L 431.548905 70.103704 
L 431.961479 71.010218 
L 432.374054 70.214456 
L 432.786628 68.335957 
L 433.199202 69.318628 
L 434.436926 66.488633 
L 434.8495 66.488633 
L 435.262075 65.375562 
L 436.087224 65.1259 
L 436.499798 66.656242 
L 436.912373 66.799265 
L 437.324947 68.664895 
L 437.737521 68.921944 
L 438.150096 67.820645 
L 438.56267 69.776384 
L 438.975245 70.815688 
L 439.387819 72.994014 
L 439.800394 71.620472 
L 440.212968 71.041571 
L 440.625543 69.40579 
L 441.038117 69.054699 
L 441.450692 66.711434 
L 441.863266 67.544268 
L 442.27584 69.77884 
L 442.688415 70.648374 
L 443.513564 66.868115 
L 443.926138 67.188477 
L 444.338713 65.905291 
L 445.163862 67.773432 
L 445.576436 68.13432 
L 445.989011 67.135677 
L 446.401585 65.654284 
L 446.81416 64.61679 
L 447.226734 64.663525 
L 447.639308 63.578643 
L 448.051883 63.892927 
L 448.464457 65.497272 
L 448.877032 64.044532 
L 449.289606 63.280372 
L 449.702181 62.825999 
L 450.114755 62.967107 
L 450.52733 62.7082 
L 450.939904 61.839863 
L 451.352479 62.536796 
L 451.765053 62.374039 
L 452.177627 61.970261 
L 452.590202 61.284275 
L 453.002776 63.225438 
L 453.415351 62.522157 
L 453.827925 62.930155 
L 454.2405 63.981397 
L 455.065649 63.544029 
L 455.478223 65.545578 
L 455.890798 66.731474 
L 456.303372 67.213307 
L 456.715946 68.926343 
L 457.128521 66.63128 
L 457.541095 67.580103 
L 458.366244 66.179353 
L 459.191393 67.004381 
L 459.603968 63.94636 
L 460.016542 63.670353 
L 460.429117 62.982292 
L 460.841691 60.745077 
L 461.254266 62.598577 
L 462.079414 61.662741 
L 462.491989 60.74799 
L 462.904563 60.629499 
L 463.317138 61.853232 
L 463.729712 62.457873 
L 464.142287 62.72674 
L 464.554861 63.439801 
L 464.967436 63.645607 
L 465.38001 64.28937 
L 465.792585 64.440979 
L 466.205159 66.548654 
L 466.617733 66.507228 
L 467.030308 64.963226 
L 467.442882 62.842888 
L 467.855457 61.358128 
L 468.268031 60.671185 
L 468.680606 60.353139 
L 469.09318 61.717632 
L 469.505755 61.607231 
L 469.918329 61.210856 
L 470.330904 60.335175 
L 470.743478 60.236643 
L 471.568627 63.144271 
L 471.981201 63.685394 
L 472.393776 62.808295 
L 472.80635 62.530955 
L 473.218925 61.521956 
L 473.631499 58.983754 
L 474.044074 58.457767 
L 474.456648 56.917653 
L 474.869223 57.656374 
L 475.281797 59.215139 
L 475.694372 57.624934 
L 476.106946 57.859358 
L 476.932095 57.572256 
L 477.344669 57.719263 
L 477.757244 58.224502 
L 478.169818 59.06425 
L 478.582393 59.144299 
L 478.994967 58.516068 
L 479.407542 55.603473 
L 479.820116 55.236129 
L 480.232691 55.458772 
L 481.470414 54.848191 
L 481.882988 56.726955 
L 482.295563 56.995481 
L 482.708137 58.611831 
L 483.120712 58.26974 
L 483.945861 60.81068 
L 484.358435 59.624484 
L 484.77101 61.119856 
L 485.183584 60.952602 
L 485.596159 61.287219 
L 486.008733 59.387595 
L 486.421307 58.450087 
L 486.833882 57.091898 
L 487.246456 58.92386 
L 487.659031 57.279819 
L 488.071605 56.811312 
L 488.48418 60.133763 
L 488.896754 58.890029 
L 489.309329 58.678445 
L 489.721903 57.174627 
L 490.134478 57.817671 
L 490.547052 60.319598 
L 490.959626 60.589781 
L 491.372201 59.924767 
L 491.784775 61.445162 
L 492.19735 60.944288 
L 492.609924 58.527928 
L 493.022499 60.775198 
L 493.435073 60.83466 
L 493.847648 61.452196 
L 494.260222 61.0586 
L 494.672797 58.836252 
L 495.085371 58.837184 
L 495.497945 58.565272 
L 495.91052 59.800181 
L 496.323094 60.074221 
L 496.735669 59.429869 
L 497.148243 57.234008 
L 498.385967 58.991594 
L 498.798541 58.777653 
L 499.211116 58.255781 
L 499.62369 59.656619 
L 500.036265 57.008574 
L 500.448839 56.248716 
L 500.861413 56.125038 
L 501.273988 56.288697 
L 501.686562 56.221799 
L 502.099137 54.38597 
L 502.511711 53.699273 
L 503.33686 54.674561 
L 503.749435 51.744309 
L 504.162009 51.819274 
L 504.574584 52.791309 
L 504.987158 53.13059 
L 505.399732 54.110796 
L 505.812307 53.83996 
L 506.224881 54.655338 
L 506.637456 55.72764 
L 507.05003 54.39634 
L 507.462605 55.166002 
L 507.875179 56.597155 
L 508.287754 57.250051 
L 508.700328 56.979829 
L 509.112903 56.476123 
L 509.525477 55.480818 
L 509.938051 56.361101 
L 510.350626 55.879155 
L 510.7632 54.338064 
L 511.175775 54.600764 
L 512.000924 52.435666 
L 512.413498 52.606017 
L 512.826073 52.434061 
L 513.238647 53.311522 
L 513.651222 52.799743 
L 514.063796 51.833972 
L 514.888945 52.598551 
L 515.301519 53.695137 
L 515.714094 53.065235 
L 516.126668 52.035348 
L 516.539243 52.475356 
L 517.364392 51.167663 
L 517.776966 51.533805 
L 518.189541 50.439129 
L 518.602115 49.808966 
L 519.01469 49.587559 
L 519.427264 48.068573 
L 519.839838 48.15276 
L 520.252413 48.836191 
L 520.664987 47.644334 
L 521.077562 48.267205 
L 521.490136 47.915573 
L 522.315285 47.680151 
L 522.72786 48.079847 
L 523.140434 48.29086 
L 523.553009 49.981061 
L 523.965583 50.111145 
L 524.378157 50.575063 
L 525.203306 49.590827 
L 525.615881 50.196772 
L 526.028455 50.276702 
L 526.44103 52.676559 
L 526.853604 52.587802 
L 527.266179 51.412413 
L 527.678753 51.390897 
L 528.091328 51.50983 
L 528.916477 51.398649 
L 529.741625 49.727404 
L 530.1542 49.888947 
L 530.566774 48.136561 
L 531.391923 47.551767 
L 531.804498 46.777206 
L 532.217072 48.820576 
L 532.629647 49.297269 
L 533.042221 49.554572 
L 533.454796 50.390862 
L 533.86737 51.490282 
L 535.105093 52.128969 
L 535.517668 52.158733 
L 535.930242 51.41189 
L 536.342817 49.625805 
L 536.755391 48.87216 
L 537.167966 48.433204 
L 537.58054 49.370213 
L 537.993115 48.503154 
L 538.405689 47.025768 
L 538.818264 47.110483 
L 539.230838 47.73816 
L 539.643412 47.623604 
L 540.055987 48.353067 
L 540.468561 48.397617 
L 541.29371 47.20193 
L 541.706285 46.979155 
L 542.118859 46.602662 
L 542.531434 47.083157 
L 543.356583 45.039856 
L 543.769157 46.858756 
L 544.181731 46.629582 
L 544.594306 46.054852 
L 545.00688 46.044405 
L 545.419455 46.79716 
L 545.832029 45.711152 
L 546.244604 45.954648 
L 546.657178 45.501404 
L 547.482327 45.323462 
L 547.894902 45.036266 
L 548.307476 44.103475 
L 548.72005 43.540961 
L 549.132625 43.754402 
L 549.545199 43.499182 
L 549.957774 43.026548 
L 550.782923 42.708051 
L 551.195497 42.360226 
L 551.608072 42.473036 
L 552.020646 41.016478 
L 552.433221 41.290647 
L 552.845795 41.72491 
L 553.25837 40.402946 
L 553.670944 40.547078 
L 554.496093 41.368628 
L 554.908667 43.202755 
L 555.321242 43.308653 
L 556.146391 42.490498 
L 556.558965 43.232334 
L 556.97154 42.903969 
L 557.384114 45.220047 
L 557.796689 44.971424 
L 558.621837 42.935659 
L 559.034412 40.851648 
L 559.446986 41.182734 
L 559.859561 42.250334 
L 560.272135 42.658974 
L 560.68471 41.39045 
L 561.097284 41.301377 
L 561.509859 40.578114 
L 561.922433 41.944043 
L 562.335008 42.595056 
L 563.160156 46.163208 
L 563.985305 45.722576 
L 564.39788 46.332774 
L 564.810454 47.154856 
L 565.223029 47.616953 
L 565.635603 46.94726 
L 566.048178 45.873099 
L 566.460752 45.888383 
L 566.873327 45.339733 
L 567.285901 44.178658 
L 567.698476 43.764779 
L 568.523624 42.061692 
L 568.936199 42.130133 
L 569.348773 41.978283 
L 569.761348 41.679682 
L 570.173922 40.99487 
L 570.586497 41.868081 
L 570.999071 41.672935 
L 571.411646 41.078104 
L 571.82422 41.071036 
L 572.236795 41.745858 
L 572.649369 41.356588 
L 573.061943 40.10323 
L 573.474518 39.629536 
L 574.299667 43.555785 
L 574.712241 43.021703 
L 575.124816 41.99984 
L 575.949965 43.787443 
L 576.362539 46.22403 
L 576.775114 46.494166 
L 577.187688 47.92742 
L 577.600262 48.216537 
L 578.425411 43.533677 
L 578.837986 42.773432 
L 579.25056 42.87146 
L 579.663135 42.672369 
L 580.075709 43.796092 
L 580.488284 40.773756 
L 580.900858 42.839262 
L 581.313433 42.123595 
L 581.726007 41.730551 
L 582.138582 43.173729 
L 582.551156 45.440984 
L 582.96373 46.431687 
L 583.376305 46.449983 
L 583.788879 45.859461 
L 584.201454 43.48651 
L 584.614028 43.226922 
L 585.026603 41.722288 
L 585.439177 40.869702 
L 585.851752 40.731926 
L 586.264326 40.145117 
L 586.676901 37.745593 
L 587.089475 37.00208 
L 587.502049 37.479875 
L 587.914624 37.238576 
L 588.327198 37.88118 
L 588.739773 38.958667 
L 589.152347 38.365766 
L 589.564922 39.298341 
L 589.977496 39.703491 
L 590.390071 39.347726 
L 591.21522 39.876471 
L 591.627794 39.111836 
L 592.040369 39.843872 
L 592.452943 39.315488 
L 592.865517 38.599822 
L 593.278092 38.631852 
L 593.690666 37.820553 
L 594.103241 38.354548 
L 594.515815 37.982449 
L 594.92839 38.591647 
L 595.340964 38.903601 
L 595.753539 39.964362 
L 596.166113 38.960482 
L 597.403836 37.581015 
L 597.816411 37.330306 
L 598.228985 36.509722 
L 598.64156 36.753364 
L 599.054134 35.778203 
L 599.466709 35.177375 
L 599.879283 33.756209 
L 600.291858 33.634057 
L 600.704432 35.237243 
L 601.117007 35.365679 
L 601.529581 36.091073 
L 602.35473 39.490462 
L 602.767304 39.367286 
L 603.179879 39.37092 
L 603.592453 38.606178 
L 604.005028 38.592651 
L 604.417602 39.459153 
L 605.242751 38.28563 
L 606.0679 38.307353 
L 606.480475 39.070462 
L 606.893049 40.26467 
L 607.718198 41.033096 
L 608.130772 42.57723 
L 608.543347 42.936546 
L 608.955921 42.261388 
L 609.368496 42.389892 
L 609.78107 44.084013 
L 610.193645 42.779735 
L 610.606219 40.405603 
L 611.018794 40.0378 
L 611.843942 40.868025 
L 612.256517 39.607553 
L 612.669091 39.85669 
L 613.081666 39.728198 
L 613.49424 39.4757 
L 613.906815 37.170036 
L 614.319389 36.816592 
L 614.731964 36.670603 
L 615.144538 36.339577 
L 615.557113 36.211222 
L 615.969687 37.082539 
L 616.382261 36.685728 
L 616.794836 35.595424 
L 618.445134 37.065227 
L 618.857708 38.950161 
L 619.270283 38.880341 
L 619.682857 39.595319 
L 620.508006 38.945063 
L 620.920581 39.893422 
L 621.333155 39.147356 
L 621.745729 39.025138 
L 622.570878 37.279559 
L 622.983453 35.266134 
L 623.396027 36.162951 
L 623.808602 35.39362 
L 624.221176 34.918879 
L 624.633751 36.037108 
L 625.046325 35.68262 
L 625.4589 36.183189 
L 625.871474 36.185933 
L 626.284048 36.810595 
L 626.696623 38.39203 
L 627.109197 38.143113 
L 627.521772 36.700271 
L 627.934346 35.900958 
L 628.346921 36.958515 
L 629.17207 35.364921 
L 629.584644 34.735826 
L 629.997219 34.730378 
L 630.409793 34.607202 
L 630.822367 33.795976 
L 631.234942 34.055793 
L 631.647516 34.055793 
L 632.060091 33.929095 
L 632.472665 32.506758 
L 633.710389 34.034516 
L 634.122963 34.283486 
L 634.535538 34.034516 
L 634.948112 33.390119 
L 635.360687 33.748763 
L 635.773261 35.218523 
L 636.185835 35.96542 
L 636.59841 36.445539 
L 637.423559 35.423744 
L 638.248708 35.179284 
L 638.661282 35.307788 
L 639.073857 35.579631 
L 639.486431 35.210087 
L 639.899006 34.00009 
L 640.31158 33.749334 
L 640.724154 32.753268 
L 641.136729 33.566537 
L 641.549303 33.562025 
L 641.961878 33.68602 
L 642.374452 33.560219 
L 643.199601 34.048135 
L 644.02475 33.543089 
L 644.437325 34.381798 
L 644.849899 34.764627 
L 645.262473 35.626879 
L 646.500197 34.864826 
L 646.912771 34.347035 
L 647.325346 34.475471 
L 647.73792 34.739028 
L 648.150495 35.63047 
L 648.563069 34.167098 
L 648.975644 34.780336 
L 649.388218 33.352038 
L 649.800793 33.226227 
L 650.213367 33.738489 
L 650.625941 34.957804 
L 651.038516 34.957804 
L 651.45109 35.4211 
L 651.863665 35.281537 
L 652.276239 34.38288 
L 652.688814 36.920413 
L 653.101388 37.169427 
L 653.513963 36.417157 
L 653.926537 36.290453 
L 654.339112 36.41624 
L 654.751686 35.196925 
L 655.16426 35.834062 
L 655.576835 35.363805 
L 655.989409 35.499627 
L 656.401984 35.374705 
L 656.814558 32.83809 
L 657.227133 31.721535 
L 658.052282 33.471544 
L 658.464856 33.462589 
L 658.877431 33.5884 
L 659.290005 32.823658 
L 659.70258 35.937829 
L 660.115154 36.179449 
L 660.527728 36.055454 
L 660.940303 36.307053 
L 661.352877 36.936094 
L 662.178026 35.313693 
L 662.590601 35.801293 
L 663.003175 36.059218 
L 663.41575 37.404321 
L 663.828324 33.674209 
L 664.240899 34.390271 
L 665.066047 35.020212 
L 665.478622 35.014915 
L 665.891196 35.529928 
L 666.303771 35.656633 
L 666.716345 35.169033 
L 667.541494 34.685264 
L 667.954069 34.685264 
L 668.366643 33.465948 
L 668.779218 33.084929 
L 669.191792 33.451836 
L 669.604366 32.957538 
L 670.429515 32.443431 
L 671.254664 33.55123 
L 671.667239 32.814778 
L 672.079813 32.688967 
L 672.492388 32.9397 
L 672.904962 34.16756 
L 673.317537 33.043086 
L 673.730111 32.913639 
L 674.142686 32.659337 
L 674.967834 32.826969 
L 675.380409 32.336204 
L 675.792983 32.085548 
L 676.618132 32.335407 
L 677.030707 31.108464 
L 677.855856 31.753857 
L 678.26843 32.145019 
L 678.681005 32.892001 
L 679.093579 31.862893 
L 679.506153 32.102901 
L 680.331302 31.851302 
L 680.743877 31.222208 
L 681.156451 31.845952 
L 681.569026 31.715589 
L 681.9816 31.70827 
L 682.394175 31.317109 
L 682.806749 30.70049 
L 683.219324 31.447473 
L 684.044472 31.457229 
L 684.457047 32.498469 
L 684.869621 33.136519 
L 685.282196 32.900196 
L 685.69477 33.152712 
L 686.107345 32.644083 
L 686.519919 35.017298 
L 686.932494 35.38842 
L 687.345068 35.142924 
L 687.757643 34.762808 
L 688.170217 35.264293 
L 688.582792 34.481028 
L 688.995366 33.971504 
L 689.40794 33.967819 
L 689.820515 34.216789 
L 690.233089 34.845883 
L 690.645664 32.471751 
L 691.058238 32.723384 
L 691.470813 32.602918 
L 691.883387 32.602918 
L 692.295962 32.726094 
L 693.121111 35.053411 
L 693.533685 34.799121 
L 693.946259 34.297635 
L 694.771408 34.711724 
L 695.183983 34.085309 
L 695.596557 33.832811 
L 696.009132 33.830107 
L 696.421706 33.593784 
L 696.834281 32.026611 
L 697.246855 31.752716 
L 697.65943 32.850212 
L 698.072004 32.980576 
L 698.484578 32.322966 
L 698.897153 32.191706 
L 699.309727 31.937393 
L 699.722302 32.43883 
L 700.134876 32.563752 
L 700.547451 32.430633 
L 700.960025 32.808041 
L 701.785174 30.960809 
L 702.197749 30.958967 
L 702.610323 31.336405 
L 703.022898 31.210617 
L 703.435472 31.715663 
L 703.848046 31.346454 
L 704.260621 31.474946 
L 704.673195 31.346431 
L 705.08577 31.475837 
L 705.498344 31.73015 
L 706.323493 32.627081 
L 706.736068 32.249643 
L 707.148642 32.248726 
L 708.386365 31.876717 
L 708.79894 32.401931 
L 709.211514 31.766596 
L 709.624089 32.275226 
L 710.036663 31.509568 
L 710.449238 30.994555 
L 710.861812 32.457927 
L 711.274387 32.330318 
L 712.099536 32.959605 
L 712.51211 32.952389 
L 712.924685 32.692549 
L 713.337259 32.56494 
L 713.749833 31.801996 
L 714.162408 33.968349 
L 714.574982 34.836806 
L 714.987557 33.374352 
L 715.400131 34.491045 
L 715.812706 34.1189 
L 716.22528 34.25118 
L 716.637855 34.134491 
L 717.050429 33.869117 
L 717.463004 34.249242 
L 717.875578 34.878336 
L 718.288152 32.584375 
L 718.700727 31.842622 
L 719.113301 31.842622 
L 719.525876 31.245616 
L 720.351025 30.846178 
L 720.763599 31.497191 
L 721.176174 31.623002 
L 721.588748 32.716506 
L 722.001323 33.269552 
L 722.413897 33.523866 
L 723.239046 33.526608 
L 723.65162 33.261234 
L 724.064195 33.51375 
L 724.476769 33.136312 
L 724.889344 32.096942 
L 725.301918 32.221864 
L 726.127067 30.082042 
L 726.539642 30.33999 
L 727.364791 30.591551 
L 727.777365 30.591551 
L 728.189939 30.731114 
L 728.602514 31.232599 
L 729.015088 31.360208 
L 729.427663 31.235286 
L 729.840237 30.847865 
L 730.252812 30.847865 
L 730.665386 30.715727 
L 731.077961 30.852586 
L 731.490535 31.49154 
L 731.90311 31.49154 
L 732.728258 30.471284 
L 733.140833 30.471284 
L 733.553407 30.729209 
L 733.965982 31.475275 
L 734.378556 31.855399 
L 734.791131 31.602883 
L 735.203705 31.840763 
L 735.61628 31.57659 
L 736.028854 31.449886 
L 736.441429 31.577494 
L 736.854003 31.829093 
L 737.266577 31.829093 
L 737.679152 31.447173 
L 738.091726 30.830554 
L 738.504301 30.578956 
L 738.916875 30.709319 
L 739.742024 29.450267 
L 740.154599 29.842346 
L 740.567173 29.714737 
L 740.979748 29.462221 
L 741.392322 30.086883 
L 742.217471 30.341181 
L 742.630045 30.975599 
L 743.455194 31.349378 
L 743.867769 31.476987 
L 744.280343 31.462346 
L 744.692918 31.720318 
L 745.105492 31.59271 
L 745.518067 30.968048 
L 745.930641 31.102163 
L 746.343216 31.099459 
L 746.75579 30.336515 
L 747.168364 30.085782 
L 747.580939 30.085782 
L 747.993513 29.958173 
L 748.818662 29.32368 
L 749.231237 29.703805 
L 749.643811 29.830509 
L 750.056386 29.568794 
L 750.46896 29.568794 
L 750.881535 30.073841 
L 751.294109 29.819528 
L 751.706683 30.705583 
L 752.944407 31.719246 
L 753.769556 31.340025 
L 754.18213 32.078119 
L 754.594705 32.450264 
L 755.007279 31.945218 
L 755.419854 32.33079 
L 755.832428 31.819516 
L 756.245003 31.693705 
L 756.657577 31.707426 
L 757.482726 32.347363 
L 757.8953 32.599879 
L 758.720449 31.107677 
L 759.545598 31.605512 
L 759.958173 31.609956 
L 760.370747 31.355643 
L 762.021045 29.69016 
L 762.846194 30.199722 
L 763.258768 30.702976 
L 764.083917 29.94897 
L 764.496492 30.077496 
L 765.734215 31.372111 
L 766.14679 31.372111 
L 766.971938 30.734022 
L 767.384513 30.488718 
L 767.797087 30.867943 
L 768.622236 31.119541 
L 769.034811 30.467573 
L 769.85996 29.823088 
L 771.097683 31.722377 
L 771.510257 31.590239 
L 771.922832 31.08431 
L 772.335406 30.832711 
L 772.747981 31.083444 
L 773.160555 31.958035 
L 773.985704 31.701901 
L 775.636002 29.678623 
L 776.461151 30.579503 
L 776.873725 30.074456 
L 777.2863 29.851833 
L 777.698874 29.979442 
L 778.524023 30.869142 
L 778.936598 31.245663 
L 779.349172 31.376026 
L 779.761747 32.027994 
L 780.174321 31.376026 
L 780.586896 33.036916 
L 780.99947 33.036916 
L 781.412044 32.512557 
L 781.824619 33.018486 
L 782.237193 32.886348 
L 782.649768 32.381302 
L 783.062342 32.132385 
L 783.474917 32.383041 
L 783.887491 31.731073 
L 784.300066 31.858682 
L 784.71264 30.075574 
L 785.125215 30.329887 
L 785.537789 30.329887 
L 785.950363 29.824875 
L 786.775512 30.092046 
L 787.188087 30.09023 
L 787.600661 29.581601 
L 788.013236 29.710127 
L 788.42581 29.710127 
L 788.838385 29.327299 
L 789.250959 29.585247 
L 789.663534 29.457639 
L 790.488682 29.566129 
L 790.901257 29.567046 
L 792.13898 30.702969 
L 792.551555 30.575361 
L 792.964129 30.831491 
L 793.376704 30.319229 
L 793.789278 30.835175 
L 794.201853 30.707567 
L 795.027002 31.451059 
L 795.439576 30.821965 
L 795.85215 30.693443 
L 796.264725 30.059905 
L 796.677299 30.059905 
L 797.502448 31.454568 
L 797.915023 31.443668 
L 798.327597 31.697981 
L 798.740172 30.830441 
L 799.152746 30.581525 
L 799.565321 31.339091 
L 799.977895 31.339091 
L 800.390469 31.467617 
L 800.803044 33.482128 
L 801.215618 33.460939 
L 801.628193 32.955926 
L 802.453342 32.707003 
L 803.278491 33.082597 
L 803.691065 32.452639 
L 804.516214 33.334228 
L 804.928788 31.448242 
L 805.341363 30.579785 
L 805.753937 31.447325 
L 806.166512 31.064497 
L 806.991661 30.811077 
L 807.404235 30.816525 
L 807.81681 32.854853 
L 808.641959 32.099968 
L 809.054533 31.971443 
L 809.467108 32.472928 
L 809.879682 31.476863 
L 810.292256 31.981909 
L 810.704831 31.981909 
L 811.117405 32.115953 
L 811.52998 31.730381 
L 811.942554 29.820575 
L 812.355129 29.692049 
L 812.767703 29.437736 
L 813.180278 29.565345 
L 814.005427 30.110008 
L 814.418001 29.861092 
L 814.830575 29.861092 
L 815.24315 29.600343 
L 816.893448 30.490894 
L 817.718597 30.452176 
L 818.543746 30.069342 
L 818.95632 30.19695 
L 819.368894 30.574388 
L 819.781469 30.574388 
L 820.194043 30.445884 
L 821.019192 30.699287 
L 821.431767 30.960035 
L 821.844341 30.960035 
L 822.256916 31.218008 
L 822.66949 31.218008 
L 823.082065 31.090399 
L 823.494639 31.337623 
L 823.907214 31.08331 
L 824.319788 30.961158 
L 824.732362 31.219106 
L 825.970086 30.209815 
L 826.38266 30.079451 
L 826.795235 30.47153 
L 827.207809 30.47153 
L 827.620384 30.715325 
L 828.032958 30.715325 
L 828.445533 30.840181 
L 828.858107 30.455528 
L 829.270681 30.583136 
L 829.683256 30.837449 
L 830.09583 30.449141 
L 830.508405 30.707105 
L 830.920979 30.187418 
L 831.333554 30.315943 
L 831.746128 29.319878 
L 832.158703 29.319878 
L 832.571277 29.064658 
L 833.396426 29.318067 
L 833.809001 29.063754 
L 834.221575 29.063754 
L 834.634149 28.678182 
L 835.871873 29.813188 
L 836.284447 29.941714 
L 836.697022 30.202463 
L 837.109596 29.948149 
L 837.934745 30.201569 
L 838.34732 30.201569 
L 838.759894 30.457699 
L 839.172468 30.077575 
L 839.585043 29.44848 
L 839.997617 29.194167 
L 840.410192 29.194167 
L 840.822766 29.453069 
L 841.235341 29.580678 
L 841.647915 29.328162 
L 842.06049 29.7056 
L 842.473064 29.451287 
L 843.298213 29.453129 
L 843.710787 29.972816 
L 844.535936 30.226212 
L 844.948511 29.706562 
L 845.361085 30.208047 
L 845.77366 30.460563 
L 846.186234 30.20983 
L 846.598809 30.598187 
L 847.011383 30.467824 
L 847.423958 31.712904 
L 847.836532 31.193217 
L 848.249107 31.065608 
L 848.661681 31.316342 
L 849.074255 31.316342 
L 849.48683 30.815773 
L 849.899404 30.944277 
L 850.311979 30.817572 
L 850.724553 30.429215 
L 851.137128 30.55592 
L 851.549702 29.310839 
L 851.962277 29.690963 
L 852.374851 29.690963 
L 852.787426 29.443889 
L 852.787426 29.443889 
" clip-path="url(#pd8e2534fd0)" style="fill: none; stroke-dasharray: 7.4,3.2; stroke-dashoffset: 0; stroke: #000000; stroke-width: 2"/>
   </g>
   <g id="patch_3">
    <path d="M 35.89 404.12 
L 35.89 10.8 
" style="fill: none; stroke: #000000; stroke-width: 0.8; stroke-linejoin: miter; stroke-linecap: square"/>
   </g>
   <g id="patch_4">
    <path d="M 853.2 404.12 
L 853.2 10.8 
" style="fill: none; stroke: #000000; stroke-width: 0.8; stroke-linejoin: miter; stroke-linecap: square"/>
   </g>
   <g id="patch_5">
    <path d="M 35.89 404.12 
L 853.2 404.12 
" style="fill: none; stroke: #000000; stroke-width: 0.8; stroke-linejoin: miter; stroke-linecap: square"/>
   </g>
   <g id="patch_6">
    <path d="M 35.89 10.8 
L 853.2 10.8 
" style="fill: none; stroke: #000000; stroke-width: 0.8; stroke-linejoin: miter; stroke-linecap: square"/>
   </g>
  </g>
 </g>
 <defs>
  <clipPath id="pd8e2534fd0">
   <rect x="35.89" y="10.8" width="817.31" height="393.32"/>
  </clipPath>
 </defs>
</svg>
